<?xml version="1.0" encoding="UTF-8"?> <svg xmlns="http://www.w3.org/2000/svg" width="300" height="186" viewBox="0 0 300 186" fill="none"><rect width="300" height="186" fill="#051C2C"></rect><path d="M103.517 141.544C102.634 141.544 101.922 140.824 101.922 139.941V99.3706C101.922 98.4829 102.638 97.7676 103.517 97.7676C104.4 97.7676 105.112 98.4872 105.112 99.3706V139.941C105.116 140.824 104.4 141.544 103.517 141.544Z" fill="white"></path><path d="M194.361 141.544C193.478 141.544 192.767 140.824 192.767 139.941V99.3706C192.767 98.4829 193.483 97.7676 194.361 97.7676C195.245 97.7676 195.956 98.4872 195.956 99.3706V139.941C195.956 140.824 195.24 141.544 194.361 141.544Z" fill="white"></path><path d="M198.399 141.544H99.4776C98.5944 141.544 97.8828 140.824 97.8828 139.941C97.8828 139.053 98.5988 138.338 99.4776 138.338H198.395C199.278 138.338 199.989 139.057 199.989 139.941C199.994 140.824 199.278 141.544 198.399 141.544Z" fill="white"></path><path d="M132.532 86.7606H99.4786C98.9642 86.7606 98.484 86.5107 98.1839 86.0927C97.8838 85.6747 97.8023 85.1361 97.9652 84.6491L104.023 66.391C104.242 65.7361 104.85 65.2922 105.536 65.2922H123.726C124.609 65.2922 125.321 66.0118 125.321 66.8952C125.321 67.7829 124.605 68.4982 123.726 68.4982L106.685 68.5025L101.695 83.5504H132.533C133.416 83.5504 134.128 84.2701 134.128 85.1534C134.132 86.0411 133.415 86.7606 132.532 86.7606Z" fill="white"></path><path d="M198.399 86.7606H165.346C164.462 86.7606 163.751 86.041 163.751 85.1577C163.751 84.27 164.467 83.5547 165.346 83.5547H196.183L191.193 68.5067H174.156C173.273 68.5067 172.562 67.7871 172.562 66.9037C172.562 66.0161 173.278 65.3008 174.156 65.3008H192.346C193.032 65.3008 193.645 65.7446 193.86 66.3996L199.917 84.6577C200.08 85.1489 199.999 85.6833 199.699 86.1013C199.394 86.515 198.909 86.7606 198.399 86.7606Z" fill="white"></path><path d="M105.664 100.972C101.377 100.972 97.8875 97.4647 97.8875 93.1556V85.1579C97.8875 84.2702 98.6034 83.5549 99.4822 83.5549H111.847C112.73 83.5549 113.442 84.2745 113.442 85.1579V93.1556C113.442 97.4647 109.951 100.972 105.664 100.972ZM101.077 86.7606V93.1554C101.077 95.6978 103.135 97.7662 105.664 97.7662C108.194 97.7662 110.252 95.6978 110.252 93.1554V86.7606H101.077Z" fill="white"></path><path d="M118.029 100.972C113.742 100.972 110.252 97.4647 110.252 93.1556V85.1579C110.252 84.2702 110.968 83.5549 111.847 83.5549H124.211C125.094 83.5549 125.806 84.2745 125.806 85.1579V93.1556C125.806 97.4647 122.316 100.972 118.029 100.972ZM113.442 86.7606V93.1554C113.442 95.6978 115.499 97.7662 118.029 97.7662C120.558 97.7662 122.616 95.6978 122.616 93.1554V86.7606H113.442Z" fill="white"></path><path d="M130.393 100.972C126.102 100.972 122.612 97.4647 122.612 93.1556V85.1579C122.612 84.2702 123.328 83.5549 124.207 83.5549H132.528C133.411 83.5549 134.123 84.2745 134.123 85.1579C134.123 86.0455 133.407 86.7608 132.528 86.7608H125.802V93.1556C125.802 95.698 127.859 97.7621 130.385 97.7621C132.914 97.7621 134.972 95.6937 134.972 93.1556L134.98 87.9976C134.98 87.1099 135.696 86.3946 136.575 86.3946C137.458 86.3946 138.17 87.1142 138.17 87.9976V93.1513C138.17 97.4648 134.68 100.972 130.393 100.972Z" fill="white"></path><path d="M142.757 100.972C138.465 100.972 134.976 97.4647 134.976 93.1557V87.9976C134.976 87.1099 135.692 86.3946 136.57 86.3946C137.454 86.3946 138.165 87.1142 138.165 87.9976V93.1514C138.165 95.6938 140.223 97.7579 142.748 97.7579C145.278 97.7579 147.335 95.6895 147.335 93.1514V91.2424C147.335 90.3547 148.051 89.6394 148.93 89.6394C149.813 89.6394 150.525 90.359 150.525 91.2424V93.1514C150.533 97.4649 147.048 100.972 142.757 100.972Z" fill="white"></path><path d="M155.121 100.972C150.83 100.972 147.34 97.4647 147.34 93.1557V91.2467C147.34 90.359 148.056 89.6437 148.935 89.6437C149.818 89.6437 150.53 90.3633 150.53 91.2467V93.1557C150.53 95.6981 152.587 97.7622 155.113 97.7622C157.642 97.7622 159.7 95.6938 159.7 93.1557L159.708 87.9976C159.708 87.1099 160.424 86.3946 161.303 86.3946C162.186 86.3946 162.898 87.1142 162.898 87.9976V93.1514C162.902 97.4649 159.413 100.972 155.121 100.972Z" fill="white"></path><path d="M167.484 100.972C163.193 100.972 159.703 97.4647 159.703 93.1556L159.708 87.9976C159.708 87.1099 160.424 86.3946 161.302 86.3946C162.186 86.3946 162.897 87.1142 162.897 87.9976V93.1513C162.897 95.6938 164.955 97.7578 167.48 97.7578C170.01 97.7578 172.067 95.6894 172.067 93.1513V86.7565H165.341C164.458 86.7565 163.746 86.0369 163.746 85.1536C163.746 84.2659 164.462 83.5506 165.341 83.5506H173.662C174.545 83.5506 175.257 84.2702 175.257 85.1536V93.1513C175.266 97.4648 171.776 100.972 167.484 100.972Z" fill="white"></path><path d="M179.849 100.972C175.562 100.972 172.072 97.4647 172.072 93.1556V85.1579C172.072 84.2702 172.788 83.5549 173.667 83.5549H186.031C186.914 83.5549 187.626 84.2745 187.626 85.1579V93.1556C187.63 97.4647 184.14 100.972 179.849 100.972ZM175.266 86.7606V93.1554C175.266 95.6978 177.324 97.7662 179.853 97.7662C182.383 97.7662 184.44 95.6978 184.44 93.1554V86.7606H175.266Z" fill="white"></path><path d="M192.213 100.972C187.926 100.972 184.437 97.4647 184.437 93.1556V85.1579C184.437 84.2702 185.152 83.5549 186.031 83.5549H198.396C199.279 83.5549 199.991 84.2745 199.991 85.1579V93.1556C199.995 97.4647 196.505 100.972 192.213 100.972ZM187.63 86.7606V93.1554C187.63 95.6978 189.688 97.7662 192.218 97.7662C194.747 97.7662 196.805 95.6978 196.805 93.1554V86.7606H187.63Z" fill="white"></path><path d="M133.796 141.544H111.594C110.711 141.544 109.999 140.824 109.999 139.941L109.995 111.539C109.995 110.652 110.711 109.936 111.59 109.936H133.797C134.68 109.936 135.391 110.656 135.391 111.539V139.941C135.396 140.824 134.68 141.544 133.796 141.544ZM113.189 138.333H132.202V113.142H113.189V138.333Z" fill="white"></path><path d="M186.284 133.429H141.873C140.99 133.429 140.278 132.709 140.278 131.826V107.484C140.278 106.596 140.994 105.881 141.873 105.881H186.284C187.167 105.881 187.878 106.601 187.878 107.484V131.822C187.883 132.709 187.167 133.429 186.284 133.429ZM143.468 130.219H184.689V109.087H143.468V130.219Z" fill="white"></path><path d="M149.946 133.429C149.063 133.429 148.352 132.709 148.352 131.826V107.484C148.352 106.596 149.068 105.881 149.946 105.881C150.829 105.881 151.541 106.601 151.541 107.484V131.822C151.545 132.709 150.829 133.429 149.946 133.429Z" fill="white"></path><path d="M178.211 133.429C177.328 133.429 176.617 132.709 176.617 131.826L176.612 107.484C176.612 106.596 177.328 105.881 178.207 105.881C179.09 105.881 179.802 106.601 179.802 107.484V131.822C179.806 132.709 179.09 133.429 178.211 133.429Z" fill="white"></path><path d="M119.666 127.349C118.783 127.349 118.072 126.629 118.072 125.746V123.72C118.072 122.833 118.787 122.117 119.666 122.117C120.549 122.117 121.261 122.837 121.261 123.72V125.746C121.265 126.629 120.549 127.349 119.666 127.349Z" fill="white"></path><path d="M148.939 92.8544C134.144 92.8544 122.11 80.7584 122.11 65.8881C122.11 51.0133 134.144 38.9174 148.939 38.9174C163.733 38.9174 175.767 51.0133 175.767 65.8837C175.767 80.754 163.733 92.8544 148.939 92.8544ZM148.939 42.1275C135.906 42.1275 125.3 52.7841 125.3 65.8881C125.3 78.9879 135.906 89.6443 148.939 89.6443C161.972 89.6443 172.578 78.9877 172.578 65.8837C172.578 52.7839 161.972 42.1275 148.939 42.1275Z" fill="white"></path><path d="M154.997 77.6343H146.92C146.037 77.6343 145.325 76.9147 145.325 76.0313C145.325 75.1437 146.041 74.4284 146.92 74.4284H154.997C155.88 74.4284 156.592 75.148 156.592 76.0313C156.592 76.9147 155.876 77.6343 154.997 77.6343Z" fill="white"></path><path d="M159.618 73.6178C159.433 73.6178 159.249 73.5876 159.069 73.5187C158.241 73.2128 157.817 72.2906 158.121 71.4589L161.796 61.397L139.181 61.4014C138.298 61.4014 137.587 60.6817 137.587 59.7984C137.587 58.9107 138.303 58.1954 139.181 58.1954H164.077C164.6 58.1954 165.089 58.4496 165.385 58.8806C165.685 59.3115 165.754 59.8587 165.573 60.3499L161.115 72.5661C160.883 73.2168 160.269 73.6178 159.618 73.6178Z" fill="white"></path><path d="M142.552 73.5924C141.853 73.5924 141.21 73.127 141.013 72.416L137.656 60.2682L136.687 57.3467H133.802C132.918 57.3467 132.207 56.627 132.207 55.7437C132.207 54.856 132.923 54.1407 133.802 54.1407H137.84C138.526 54.1407 139.139 54.5845 139.353 55.2395L140.7 59.2988C140.708 59.3246 140.717 59.3505 140.725 59.3763L144.095 71.5672C144.331 72.4204 143.833 73.3037 142.985 73.5408C142.839 73.571 142.693 73.5924 142.552 73.5924Z" fill="white"></path><path d="M159.03 81.6939C155.922 81.6939 153.397 79.1558 153.397 76.0317C153.397 72.9076 155.922 70.3695 159.03 70.3695C162.139 70.3695 164.664 72.9119 164.664 76.0317C164.664 79.1515 162.139 81.6939 159.03 81.6939ZM159.03 73.5755C157.684 73.5755 156.591 74.6743 156.591 76.0274C156.591 77.3805 157.684 78.4794 159.03 78.4794C160.377 78.4794 161.47 77.3805 161.47 76.0274C161.474 74.6786 160.377 73.5755 159.03 73.5755Z" fill="white"></path><path d="M142.881 81.6939C139.772 81.6939 137.247 79.1558 137.247 76.0317C137.247 72.9076 139.772 70.3695 142.881 70.3695C145.989 70.3695 148.514 72.9119 148.514 76.0317C148.514 79.1515 145.989 81.6939 142.881 81.6939ZM142.881 73.5755C141.534 73.5755 140.441 74.6743 140.441 76.0274C140.441 77.3805 141.534 78.4794 142.881 78.4794C144.227 78.4794 145.32 77.3805 145.32 76.0274C145.324 74.6786 144.227 73.5755 142.881 73.5755Z" fill="white"></path></svg> 