<?xml version="1.0" encoding="UTF-8"?> <svg xmlns="http://www.w3.org/2000/svg" width="300" height="186" viewBox="0 0 300 186" fill="none"><rect width="300" height="186" fill="#051C2C"></rect><path d="M194.778 47H105.217C101.239 47 98 50.2617 98 54.268V116.173C98 120.179 101.239 123.441 105.217 123.441H136.631V125.455C136.631 129.981 132.976 133.662 128.481 133.662H114.446C110.468 133.662 107.229 136.923 107.229 140.93C107.229 141.526 107.712 142 108.292 142H191.691C192.283 142 192.754 141.513 192.754 140.93C192.754 136.923 189.515 133.662 185.537 133.662H171.519C167.024 133.662 163.369 129.981 163.369 125.455V123.441H194.783C198.761 123.441 202 120.179 202 116.173L201.996 54.268C201.996 50.2617 198.756 47 194.778 47ZM105.217 49.1576H194.766C197.564 49.1576 199.841 51.4547 199.841 54.2681L199.845 108.918H100.143V54.2681C100.143 51.4505 102.423 49.1576 105.217 49.1576ZM165.246 133.675H153.073C152.48 133.675 152.01 134.161 152.01 134.745C152.01 135.329 152.493 135.815 153.073 135.815H185.549C187.981 135.815 190.023 137.55 190.519 139.855L109.477 139.86C109.972 137.554 112.006 135.819 114.446 135.819H146.923C147.515 135.819 147.985 135.333 147.985 134.749C147.985 134.165 147.502 133.679 146.923 133.679L134.749 133.675C137.19 131.779 138.769 128.801 138.769 125.467V123.454H161.223V125.467C161.227 128.814 162.806 131.779 165.246 133.675ZM194.778 121.296H105.217C102.419 121.296 100.142 118.999 100.142 116.185V111.075H199.845V116.185C199.853 118.999 197.572 121.296 194.778 121.296ZM109.863 116.236C109.863 116.833 109.38 117.306 108.8 117.306L105.67 117.311C105.078 117.311 104.607 116.824 104.607 116.24C104.607 115.656 105.091 115.17 105.67 115.17H108.8C109.388 115.153 109.863 115.644 109.863 116.236ZM106.905 60.0723H109.497C109.636 60.0723 109.766 60.1696 109.8 60.3007C109.8 60.3134 109.8 60.3219 109.812 60.3345L117.231 93.2137C117.252 93.2983 117.286 93.3744 117.315 93.4506C117.088 94.0344 116.971 94.6858 116.971 95.3247C116.971 97.9899 119.121 100.143 121.755 100.143C124.389 100.143 126.54 97.9772 126.54 95.3247C126.54 94.8932 126.477 94.4702 126.368 94.0555H137.349C137.239 94.4659 137.189 94.9016 137.189 95.3247C137.189 97.9899 139.34 100.143 141.974 100.143C144.608 100.143 146.759 97.9772 146.759 95.3247C146.759 94.3179 146.435 93.3322 145.855 92.5199C145.759 92.3253 145.607 92.1646 145.427 92.0546C145.255 91.9446 145.061 91.8811 144.856 91.8811H138.995C138.932 91.8811 138.857 91.8938 138.79 91.9023H124.834C124.771 91.8896 124.695 91.8811 124.628 91.8811H119.1L117.852 86.3688H143.876C145.241 86.3688 146.434 85.3958 146.695 84.0505L150.072 67.5769C150.257 66.7096 150.039 65.8339 149.493 65.1528C148.942 64.4716 148.127 64.0824 147.258 64.0824H138.482H138.47C138.331 64.0486 138.188 64.0613 138.062 64.0824L123.423 64.0782C123.292 64.0571 123.154 64.0444 123.015 64.0782H123.002H112.828L111.883 59.8646C111.648 58.7393 110.648 57.9144 109.497 57.9144L106.905 57.9186C106.313 57.9186 105.842 58.4051 105.842 58.9889C105.829 59.5981 106.313 60.0723 106.905 60.0723ZM124.394 95.3253C124.394 96.7976 123.201 97.9991 121.739 97.9991C120.277 97.9991 119.084 96.7976 119.084 95.3253C119.084 94.8938 119.193 94.4369 119.353 94.0561H124.062C124.284 94.4496 124.394 94.8811 124.394 95.3253ZM141.974 97.9991C140.513 97.9991 139.319 96.7976 139.319 95.3253C139.319 94.8938 139.429 94.4369 139.588 94.0561H144.297C144.503 94.4454 144.621 94.8811 144.621 95.3253C144.621 96.7976 143.436 97.9991 141.974 97.9991ZM135.072 76.288L133.556 84.2159L127.952 84.2117L126.436 76.2837L135.072 76.288ZM126.028 74.143L124.524 66.2362H137.001L135.497 74.143H126.028ZM125.768 84.2117H117.379L115.593 76.2837H124.251L125.768 84.2117ZM144.621 83.6194C144.558 83.9663 144.243 84.2159 143.89 84.2159H135.74L137.257 76.288H146.129L144.621 83.6194ZM147.859 66.5068C147.943 66.6041 148.074 66.8198 148.011 67.1329L146.57 74.1301H137.664L139.168 66.2233H147.267C147.591 66.2359 147.771 66.4095 147.859 66.5068ZM122.34 66.236L123.844 74.1429H115.304C115.241 74.1429 115.173 74.1555 115.11 74.164L113.325 66.2487L122.34 66.2445L122.34 66.236ZM162.504 74.2613H193.09C193.682 74.2613 194.153 73.7748 194.153 73.191V66.236C194.153 65.6395 193.67 65.1657 193.09 65.1657L162.504 65.1615C161.912 65.1615 161.442 65.648 161.442 66.2318V73.1868C161.429 73.7748 161.912 74.2613 162.504 74.2613ZM163.571 67.2979H192.028V72.108L163.571 72.1038V67.2979ZM161.429 78.9273C161.429 78.3308 161.912 77.8569 162.492 77.8569H193.077C193.67 77.8569 194.14 78.3435 194.14 78.9273C194.14 79.5111 193.657 79.9976 193.077 79.9976L162.504 80.0018C161.911 80.0103 161.429 79.5238 161.429 78.9273ZM161.429 85.3915C161.429 84.795 161.912 84.3212 162.492 84.3212H182.387C182.979 84.3212 183.45 84.8077 183.45 85.3915C183.45 85.9753 182.967 86.4619 182.387 86.4619H162.492C161.912 86.4661 161.429 85.9796 161.429 85.3915ZM161.429 91.8473C161.429 91.2508 161.912 90.7769 162.492 90.7769H182.387C182.979 90.7769 183.45 91.2634 183.45 91.8473C183.45 92.4438 182.967 92.9176 182.387 92.9176H162.492C161.912 92.9218 161.429 92.4438 161.429 91.8473Z" fill="white" stroke="white"></path></svg> 