<?xml version="1.0" encoding="UTF-8"?> <svg xmlns="http://www.w3.org/2000/svg" width="300" height="186" viewBox="0 0 300 186" fill="none"><rect width="300" height="186" fill="#051C2C"></rect><path d="M140.994 80.2321C140.994 81.2069 141.787 82.0044 142.757 82.0044H149.81V101.501C149.81 102.476 150.604 103.273 151.574 103.273H163.917V99.7285H153.337V73.1427H149.811V78.4597H144.521V67.8256C144.521 62.9339 148.471 58.9639 153.337 58.9639H156.864V60.7362C156.864 65.6279 160.814 69.598 165.681 69.598C170.547 69.598 174.497 65.6279 174.497 60.7362V58.9639H178.024C182.89 58.9639 186.84 62.9339 186.84 67.8256V78.4597H181.55V73.1427H178.024V94.4109H181.55V82.0038H188.603C189.573 82.0038 190.367 81.2063 190.367 80.2315V67.8245C190.367 60.9833 184.83 55.4175 178.023 55.4175H167.443V49.8345C169.982 49.0724 171.851 46.6975 171.851 43.8971C171.851 40.4765 169.083 37.6938 165.68 37.6938C162.277 37.6938 159.508 40.4764 159.508 43.8971H163.035C163.035 42.4261 164.216 41.2385 165.68 41.2385C167.143 41.2385 168.325 42.4261 168.325 43.8971C168.325 45.3682 167.143 46.5557 165.68 46.5557C164.71 46.5557 163.917 47.3533 163.917 48.3281V55.4175H153.337C146.531 55.4175 140.993 60.9826 140.993 67.8245L140.994 80.2321ZM160.391 58.9639H170.97V60.7362C170.97 63.6606 168.59 66.0533 165.681 66.0533C162.771 66.0533 160.391 63.6606 160.391 60.7362V58.9639Z" fill="white" stroke="#051C2C" stroke-width="0.6"></path><path d="M100.244 142.247C100.438 142.264 101.761 142.406 103.683 142.406C107.015 142.406 112.147 141.981 116.166 139.783C123.749 146.235 133.288 147.511 133.711 147.564H133.923C134.54 147.564 135.122 147.227 135.439 146.678C135.792 146.057 135.757 145.295 135.316 144.728C134.558 143.7 133.87 142.601 133.253 141.467C136.092 142.318 139.142 142.53 141.611 142.53C144.309 142.53 146.301 142.264 146.495 142.229C147.253 142.123 147.871 141.52 147.994 140.758C148.117 139.996 147.729 139.234 147.042 138.879C138.49 134.572 134.804 122.343 134.029 119.436L142.845 103.219L145.332 104.761L147.183 101.748L125.107 88.0831V83.4927C127.646 82.7306 129.515 80.3557 129.515 77.5553C129.515 74.1347 126.747 71.352 123.344 71.352C119.941 71.352 117.172 74.1346 117.172 77.5553H120.699C120.699 76.0842 121.88 74.8967 123.344 74.8967C124.807 74.8967 125.989 76.0842 125.989 77.5553C125.989 79.0264 124.807 80.2139 123.344 80.2139C122.374 80.2139 121.581 81.0114 121.581 81.9862V88.0831L99.5047 101.748L101.356 104.761L103.842 103.219L112.659 119.436C111.883 122.343 108.198 134.572 99.646 138.879C98.9406 139.234 98.5527 139.996 98.6938 140.776C98.8348 141.556 99.452 142.14 100.228 142.229L100.244 142.247ZM123.361 91.1679L128.651 94.429C128.633 97.3534 126.27 99.7106 123.361 99.7106C120.451 99.7106 118.089 97.3356 118.071 94.429L123.361 91.1679ZM106.856 101.377L114.809 96.4673C115.743 100.366 119.199 103.273 123.361 103.273C127.522 103.273 130.978 100.366 131.913 96.4673L139.865 101.377L130.961 117.771C126.041 119.596 120.698 119.596 115.779 117.771L106.874 101.377H106.856ZM115.761 121.529C118.247 122.309 120.804 122.716 123.361 122.716C125.918 122.716 128.474 122.309 130.961 121.529C132.054 125.251 135.016 133.599 141.029 139.004C137.696 138.933 133.729 138.383 131.102 136.647C129.338 131.968 128.633 127.873 128.615 127.803L125.142 128.387C125.212 128.76 126.499 136.381 130.167 143.169C127.134 142.282 122.867 140.634 119.094 137.656C120.081 136.682 120.892 135.494 121.457 134.076L118.177 132.765C116.378 137.302 110.383 138.543 105.886 138.826C111.758 133.421 114.667 125.233 115.743 121.546L115.761 121.529Z" fill="white" stroke="#051C2C" stroke-width="0.6"></path><path d="M185.958 111.337V108.59H182.431V111.337C178.958 111.78 176.26 114.74 176.26 118.338C176.26 122.255 179.416 125.427 183.313 125.427H185.076C187.016 125.427 188.603 127.022 188.603 128.972C188.603 130.921 187.016 132.517 185.076 132.517H183.313C181.373 132.517 179.786 130.921 179.786 128.972V127.908H176.26V128.972C176.26 132.57 178.958 135.529 182.431 135.973V138.72H185.958V135.973C189.432 135.53 192.13 132.57 192.13 128.972C192.13 125.055 188.973 121.882 185.076 121.882H183.313C181.373 121.882 179.786 120.287 179.786 118.338C179.786 116.388 181.373 114.793 183.313 114.793H185.076C187.016 114.793 188.603 116.388 188.603 118.338V119.401H192.13V118.338C192.13 114.74 189.432 111.78 185.958 111.337Z" fill="white" stroke="#051C2C" stroke-width="0.6"></path><path d="M184.195 99.7285C171.076 99.7285 160.391 110.469 160.391 123.655C160.391 136.842 171.076 147.582 184.195 147.582C197.314 147.582 208 136.842 208 123.655C208 110.469 197.314 99.7285 184.195 99.7285ZM184.195 144.037C173.016 144.037 163.917 134.891 163.917 123.654C163.917 112.417 173.016 103.272 184.195 103.272C195.375 103.272 204.474 112.417 204.474 123.654C204.474 134.891 195.375 144.037 184.195 144.037Z" fill="white" stroke="#051C2C" stroke-width="0.6"></path><path d="M109.255 43.0133H112.782V46.558H109.255V43.0133Z" fill="white" stroke="#051C2C" stroke-width="0.6"></path><path d="M112.781 46.558H116.307V50.1027H112.781V46.558Z" fill="white" stroke="#051C2C" stroke-width="0.6"></path><path d="M109.255 50.1027H112.782V53.6474H109.255V50.1027Z" fill="white" stroke="#051C2C" stroke-width="0.6"></path><path d="M105.729 46.558H109.255V50.1027H105.729V46.558Z" fill="white" stroke="#051C2C" stroke-width="0.6"></path><path d="M139.231 44.7856H142.758V48.3303H139.231V44.7856Z" fill="white" stroke="#051C2C" stroke-width="0.6"></path><path d="M123.362 58.9639H126.888V62.5086H123.362V58.9639Z" fill="white" stroke="#051C2C" stroke-width="0.6"></path></svg> 