<?xml version="1.0" encoding="UTF-8"?> <svg xmlns="http://www.w3.org/2000/svg" width="300" height="186" viewBox="0 0 300 186" fill="none"><rect width="300" height="186" fill="#051C2C"></rect><path fill-rule="evenodd" clip-rule="evenodd" d="M105.245 121.547V99.6459C105.245 99.2741 105.56 98.9605 105.932 98.9605H111.317V108.766C111.317 109.664 112.044 110.388 112.939 110.388H122.513C123.41 110.388 124.134 109.664 124.134 108.766V98.9605H129.521C129.893 98.9605 130.207 99.2741 130.207 99.6459V121.547C130.207 121.919 129.893 122.234 129.521 122.234H105.932C105.56 122.234 105.245 121.919 105.245 121.547ZM114.561 98.9605V107.142H120.891V98.9605H114.561ZM133.454 121.547V99.6459C133.454 97.4786 131.688 95.7151 129.521 95.7151H105.932C103.763 95.7151 102 97.4786 102 99.6459V121.547C102 123.716 103.763 125.479 105.932 125.479H129.521C131.688 125.479 133.454 123.716 133.454 121.547ZM105.245 65.1337C105.245 64.7605 105.56 64.4469 105.932 64.4469H111.317V74.2536C111.317 75.1485 112.044 75.8755 112.939 75.8755H122.513C123.41 75.8755 124.134 75.1485 124.134 74.2536V64.4469H129.521C129.893 64.4469 130.207 64.7605 130.207 65.1337V87.0351C130.207 87.4069 129.893 87.7205 129.521 87.7205H105.932C105.56 87.7205 105.245 87.4069 105.245 87.0351V65.1337ZM114.561 64.4469V72.6316H120.891V64.4469H114.561ZM105.932 90.9658H129.521C131.688 90.9658 133.454 89.2023 133.454 87.0351V65.1337C133.454 62.965 131.688 61.2015 129.521 61.2015H105.932C103.763 61.2015 102 62.965 102 65.1337V87.0351C102 89.2023 103.763 90.9658 105.932 90.9658ZM119.202 53.9034C119.202 53.8923 119.201 53.8812 119.201 53.8701L119.591 44.6212C119.628 43.7263 120.387 43.0353 121.279 43.0686C122.175 43.1061 122.869 43.8636 122.833 44.7585L122.604 50.1864C135.737 39.8038 154.912 40.671 167.031 52.7907C168.058 53.8172 167.313 55.5615 165.885 55.5615C165.469 55.5615 165.054 55.4019 164.738 55.0855C153.888 44.2368 136.779 43.3711 124.93 52.4868L130.14 52.706C131.034 52.7435 131.73 53.4997 131.692 54.396C131.655 55.2974 130.884 55.992 130.002 55.9486L120.753 55.56C119.826 55.4906 119.161 54.741 119.202 53.9034ZM167.506 132.78C167.506 132.789 167.506 132.8 167.506 132.811L167.116 142.06C167.078 142.99 166.245 143.682 165.429 143.611C164.532 143.573 163.836 142.817 163.875 141.921L164.102 136.497C150.862 146.992 131.718 145.945 119.674 133.89C119.041 133.256 119.041 132.228 119.674 131.595C120.308 130.961 121.336 130.961 121.97 131.595C132.755 142.38 149.83 143.415 161.781 134.194L156.568 133.975C155.673 133.936 154.978 133.181 155.016 132.285C155.052 131.389 155.812 130.691 156.706 130.732L165.952 131.121C166.794 131.139 167.506 131.853 167.506 132.78ZM199.609 114.337C199.609 115.231 198.882 115.959 197.987 115.959H180.212C179.313 115.959 178.589 115.231 178.589 114.337C178.589 113.439 179.313 112.715 180.212 112.715H197.987C198.882 112.715 199.609 113.439 199.609 114.337ZM199.609 96.9375C199.609 97.8338 198.882 98.5595 197.987 98.5595H180.212C179.313 98.5595 178.589 97.8338 178.589 96.9375C178.589 96.0426 179.313 95.3142 180.212 95.3142H197.987C198.882 95.3142 199.609 96.0426 199.609 96.9375ZM199.609 79.5385C199.609 80.4362 198.882 81.1618 197.987 81.1618H180.212C179.313 81.1618 178.589 80.4362 178.589 79.5385C178.589 78.6422 179.313 77.9165 180.212 77.9165H197.987C198.882 77.9165 199.609 78.6422 199.609 79.5385ZM173.343 109.365C173.976 109.999 173.976 111.026 173.343 111.66L169.519 115.483C168.883 116.118 167.857 116.115 167.224 115.483L164.931 113.19C164.296 112.556 164.296 111.528 164.931 110.894C165.565 110.26 166.591 110.26 167.224 110.894L168.373 112.04L171.049 109.365C171.683 108.731 172.71 108.731 173.343 109.365ZM173.343 91.9662C173.976 92.6002 173.976 93.627 173.343 94.261L169.519 98.085C168.888 98.7189 167.856 98.7172 167.224 98.085L164.931 95.7914C164.296 95.1574 164.296 94.1293 164.931 93.4952C165.565 92.8611 166.591 92.8611 167.224 93.4952L168.373 94.6426L171.049 91.9662C171.683 91.3321 172.71 91.3335 173.343 91.9662ZM173.343 74.5685C173.976 75.2027 173.976 76.228 173.343 76.8621L169.519 80.6873C168.887 81.3211 167.857 81.3189 167.224 80.6873L164.931 78.3924C164.296 77.7584 164.296 76.733 164.931 76.099C165.565 75.4649 166.591 75.4649 167.224 76.099L168.373 77.245L171.049 74.5685C171.683 73.9344 172.71 73.9344 173.343 74.5685ZM205.849 120.275V66.4046C205.849 64.6453 204.418 63.2134 202.658 63.2134H193.368V67.3189C193.368 68.2139 192.641 68.9409 191.745 68.9409H172.014C171.119 68.9409 170.392 68.2139 170.392 67.3189V63.2134H161.1C159.34 63.2134 157.909 64.6453 157.909 66.4046V120.275C157.909 122.034 159.34 123.466 161.1 123.466H202.658C204.418 123.466 205.849 122.034 205.849 120.275ZM173.637 59.9403H176.733C177.639 59.9403 178.365 59.2092 178.353 58.2782C178.328 56.2596 179.912 54.6624 181.88 54.6624C183.843 54.6624 185.43 56.2545 185.404 58.2782C185.393 59.2078 186.118 59.9403 187.026 59.9403H190.122V65.6956H173.637V59.9403ZM202.658 59.9695H193.368V58.3184C193.368 57.4221 192.641 56.6964 191.745 56.6964H188.484C187.803 53.6773 185.1 51.417 181.88 51.417C178.658 51.417 175.956 53.6773 175.274 56.6964H172.014C171.119 56.6964 170.392 57.4221 170.392 58.3184V59.9695H161.1C157.551 59.9695 154.662 62.8554 154.662 66.4046V120.275C154.662 123.826 157.551 126.711 161.1 126.711H202.658C206.208 126.711 209.094 123.826 209.094 120.275V66.4046C209.094 62.8554 206.208 59.9695 202.658 59.9695Z" fill="white"></path></svg> 