<?xml version="1.0" encoding="UTF-8"?> <svg xmlns="http://www.w3.org/2000/svg" width="300" height="186" viewBox="0 0 300 186" fill="none"><rect width="300" height="186" fill="#051C2C"></rect><path d="M123.736 42C110.097 42 99 53.0676 99 66.6713C99 80.275 110.097 91.3426 123.747 91.3426C137.398 91.3426 148.483 80.275 148.483 66.6713C148.483 53.0676 137.375 42 123.736 42ZM123.736 88.0613C111.914 88.0613 102.29 78.4731 102.29 66.6824C102.29 54.8918 111.914 45.2925 123.736 45.2925C135.558 45.2925 145.171 54.8807 145.171 66.6824C145.171 78.4842 135.558 88.0613 123.736 88.0613ZM127.45 61.8772C127.517 60.9985 127.204 60.142 126.58 59.4635C125.866 58.7071 124.84 58.2622 123.736 58.2622C121.684 58.2622 120.011 59.7749 120.011 61.6436C120.011 63.9461 121.071 64.3911 124.093 65.0696C126.747 65.6591 130.762 66.5601 130.762 71.7101C130.762 74.8469 128.465 77.4942 125.387 78.195V81.9991C125.387 82.9112 124.651 83.6454 123.736 83.6454C122.822 83.6454 122.086 82.9112 122.086 81.9991V78.195C120.703 77.8724 119.431 77.1605 118.472 76.1261C117.212 74.769 116.587 73.0338 116.721 71.2207C116.788 70.3086 117.58 69.6301 118.494 69.6968C119.409 69.7636 120.089 70.5533 120.022 71.4654C119.955 72.3442 120.268 73.2007 120.892 73.8792C121.606 74.6467 122.643 75.0805 123.736 75.0805C125.788 75.0805 127.461 73.5677 127.461 71.699C127.461 69.3965 126.401 68.9516 123.379 68.2731C120.725 67.6835 116.71 66.7826 116.71 61.6325C116.71 58.4957 119.007 55.8484 122.086 55.1477V51.3324C122.086 50.4203 122.822 49.6862 123.736 49.6862C124.651 49.6862 125.387 50.4203 125.387 51.3324V55.1477C126.77 55.4702 128.041 56.1821 129 57.2055C130.26 58.5625 130.885 60.2977 130.74 62.0997C130.673 63.0118 129.881 63.6903 128.967 63.6236C128.052 63.5568 127.372 62.7671 127.439 61.855L127.45 61.8772ZM200.699 115.491C200.587 114.768 200.007 114.212 199.294 114.112L196.673 113.756C196.204 112.043 195.524 110.408 194.643 108.873L196.249 106.771C196.695 106.192 196.695 105.391 196.271 104.802C194.743 102.711 192.915 100.886 190.829 99.3736C190.238 98.9398 189.435 98.9509 188.855 99.3959L186.747 100.998C185.208 100.119 183.569 99.4403 181.851 98.9732L181.494 96.3592C181.394 95.6362 180.836 95.0689 180.112 94.9466C177.558 94.5461 174.959 94.5461 172.405 94.9466C171.68 95.0578 171.123 95.6251 171.022 96.3481L170.665 98.9621C168.948 99.4292 167.32 100.108 165.77 100.986L163.662 99.3847C163.082 98.9398 162.279 98.9398 161.688 99.3625C159.602 100.875 157.773 102.711 156.245 104.791C155.81 105.38 155.822 106.181 156.268 106.759L157.874 108.862C156.993 110.397 156.323 112.032 155.855 113.745L153.234 114.101C152.509 114.201 151.941 114.757 151.818 115.48C151.416 118.038 151.416 120.619 151.818 123.166C151.929 123.889 152.498 124.445 153.223 124.545L155.844 124.901C156.312 126.614 156.993 128.25 157.874 129.785L156.268 131.887C155.822 132.465 155.822 133.266 156.245 133.856C157.762 135.925 159.591 137.76 161.688 139.284C162.279 139.718 163.082 139.706 163.662 139.261L165.77 137.66C167.309 138.538 168.948 139.217 170.665 139.684L171.022 142.298C171.123 143.021 171.68 143.588 172.405 143.7C173.688 143.9 174.97 144 176.264 144C177.558 144 178.84 143.9 180.123 143.7C180.848 143.588 181.405 143.01 181.506 142.287L181.862 139.673C183.58 139.206 185.219 138.527 186.758 137.649L188.866 139.25C189.446 139.695 190.249 139.695 190.84 139.273C192.937 137.749 194.766 135.913 196.283 133.844C196.717 133.255 196.706 132.454 196.26 131.876L194.654 129.773C195.535 128.238 196.216 126.603 196.673 124.89L199.294 124.534C200.019 124.434 200.587 123.878 200.699 123.155C201.1 120.608 201.1 118.027 200.699 115.469V115.491ZM197.587 121.453L195.1 121.787C194.409 121.876 193.851 122.399 193.706 123.077C193.249 125.191 192.424 127.182 191.253 128.995C190.874 129.573 190.907 130.341 191.32 130.886L192.836 132.877C191.933 133.967 190.929 134.979 189.825 135.88L187.829 134.367C187.271 133.945 186.513 133.922 185.933 134.289C184.115 135.468 182.119 136.292 180 136.737C179.32 136.881 178.796 137.437 178.706 138.127L178.372 140.607C176.955 140.752 175.528 140.752 174.112 140.607L173.777 138.127C173.688 137.437 173.164 136.881 172.483 136.737C170.364 136.28 168.368 135.457 166.55 134.289C165.97 133.911 165.212 133.945 164.654 134.356L162.658 135.869C161.554 134.968 160.55 133.956 159.647 132.866L161.164 130.875C161.587 130.318 161.621 129.562 161.242 128.984C160.071 127.182 159.245 125.191 158.777 123.066C158.632 122.388 158.074 121.876 157.383 121.787L154.896 121.453C154.751 120.041 154.751 118.617 154.896 117.204L157.372 116.87C158.063 116.781 158.621 116.259 158.766 115.591C159.223 113.478 160.048 111.487 161.219 109.674C161.599 109.095 161.565 108.339 161.141 107.783L159.625 105.792C160.528 104.691 161.532 103.689 162.636 102.788L164.632 104.301C165.19 104.724 165.948 104.746 166.528 104.379C168.346 103.211 170.342 102.377 172.461 101.932C173.141 101.787 173.654 101.231 173.755 100.542L174.089 98.0611C175.506 97.9165 176.933 97.9165 178.349 98.0611L178.684 100.542C178.773 101.231 179.297 101.787 179.978 101.932C182.097 102.388 184.093 103.211 185.911 104.379C186.491 104.757 187.249 104.724 187.807 104.301L189.803 102.788C190.907 103.689 191.911 104.691 192.814 105.792L191.286 107.783C190.862 108.339 190.829 109.095 191.208 109.674C192.379 111.487 193.204 113.467 193.662 115.591C193.807 116.27 194.364 116.781 195.056 116.882L197.543 117.215C197.688 118.628 197.688 120.052 197.543 121.464L197.587 121.453ZM184.45 111.153C179.933 106.648 172.572 106.648 168.056 111.153C165.87 113.333 164.665 116.236 164.665 119.329C164.665 122.421 165.87 125.324 168.056 127.504C170.32 129.762 173.286 130.886 176.253 130.886C179.219 130.886 182.186 129.762 184.45 127.504C186.636 125.324 187.84 122.421 187.84 119.329C187.84 116.236 186.636 113.333 184.45 111.153ZM182.119 125.168C178.885 128.394 173.632 128.394 170.398 125.168C168.836 123.611 167.967 121.531 167.967 119.318C167.967 117.104 168.825 115.035 170.398 113.467C172.015 111.854 174.134 111.053 176.264 111.053C178.394 111.053 180.513 111.854 182.13 113.467C183.691 115.024 184.561 117.104 184.561 119.318C184.561 121.531 183.703 123.6 182.13 125.168H182.119ZM162.39 79.0626C162.859 79.5298 163.572 79.6744 164.186 79.4185C164.799 79.1627 165.201 78.562 165.201 77.8947V73.2785H169.628V88.5507C169.628 89.4628 170.364 90.1969 171.279 90.1969H177.881C178.796 90.1969 179.532 89.4628 179.532 88.5507V65.0473C179.532 64.1352 178.796 63.4011 177.881 63.4011H165.201V59.0297C165.201 58.3623 164.799 57.7616 164.186 57.5058C163.572 57.2499 162.859 57.3945 162.39 57.8617L152.933 67.2942C152.286 67.9394 152.286 68.985 152.933 69.619L162.39 79.0515V79.0626ZM161.911 63.0118V65.0473C161.911 65.9594 162.647 66.6936 163.561 66.6936H176.242V86.8933H172.941V71.6212C172.941 70.7091 172.204 69.9749 171.29 69.9749H163.561C162.647 69.9749 161.911 70.7091 161.911 71.6212V73.9125L156.435 68.451L161.911 62.9895V63.0118ZM137.331 106.949C136.862 106.481 136.149 106.337 135.535 106.593C134.922 106.848 134.52 107.449 134.52 108.116V112.733H130.093V97.4715C130.093 96.5594 129.357 95.8253 128.442 95.8253H121.84C120.926 95.8253 120.19 96.5594 120.19 97.4715V120.975C120.19 121.887 120.926 122.621 121.84 122.621H134.52V126.993C134.52 127.66 134.922 128.261 135.535 128.516C135.736 128.605 135.959 128.639 136.171 128.639C136.606 128.639 137.019 128.472 137.342 128.161L146.799 118.728C147.112 118.417 147.279 118.005 147.279 117.56C147.279 117.115 147.1 116.704 146.799 116.392L137.342 106.96L137.331 106.949ZM137.81 122.999V120.964C137.81 120.052 137.074 119.318 136.16 119.318H123.48V99.1178H126.781V114.379C126.781 115.291 127.517 116.025 128.431 116.025H136.16C137.074 116.025 137.81 115.291 137.81 114.379V112.099L143.286 117.56L137.81 123.022V122.999Z" fill="white"></path></svg> 