<?xml version="1.0" encoding="UTF-8"?> <svg xmlns="http://www.w3.org/2000/svg" width="300" height="186" viewBox="0 0 300 186" fill="none"><rect width="300" height="186" fill="#051C2C"></rect><path d="M196.065 103.752C192.894 99.5294 188.048 97.1086 182.764 97.1086C179.147 97.1086 175.694 98.2621 172.789 100.443C165.467 105.958 163.994 116.399 169.505 123.712C172.671 127.926 177.513 130.343 182.793 130.343C186.422 130.343 189.875 129.185 192.78 126.996C200.098 121.485 201.568 111.056 196.065 103.752ZM191.349 125.102C188.861 126.975 185.901 127.969 182.793 127.969C178.267 127.969 174.116 125.897 171.405 122.285C166.681 116.017 167.944 107.07 174.221 102.342C176.714 100.473 179.67 99.4836 182.769 99.4836C187.295 99.4836 191.451 101.559 194.17 105.18C198.886 111.44 197.623 120.379 191.349 125.102ZM205.028 135.282L198.99 127.249C201.491 124.264 203.121 120.635 203.677 116.682C204.464 111.099 203.033 105.55 199.647 101.054C195.626 95.703 189.483 92.6338 182.784 92.6338C178.182 92.6338 173.795 94.1031 170.11 96.8775C165.601 100.254 162.679 105.188 161.887 110.771C161.092 116.358 162.523 121.915 165.917 126.416C166.729 127.494 167.63 128.471 168.599 129.359H111.375V47.1873C111.375 46.5305 110.844 46 110.187 46C109.531 46 109 46.5305 109 47.1873V130.547C109 131.203 109.531 131.734 110.187 131.734H171.765C175.028 133.734 178.818 134.828 182.8 134.828C185.756 134.828 188.619 134.218 191.268 133.048L197.314 141.093C198.269 142.343 199.722 143 201.187 143C202.198 143 203.213 142.688 204.072 142.04C205.107 141.257 205.777 140.116 205.954 138.828C206.13 137.548 205.798 136.285 205.027 135.283L205.028 135.282ZM172.878 129.628C172.789 129.556 172.692 129.493 172.583 129.446C170.776 128.272 169.164 126.773 167.817 124.984C164.806 120.989 163.539 116.059 164.242 111.103C164.945 106.148 167.539 101.774 171.539 98.7756C174.814 96.3085 178.7 95.0076 182.785 95.0076C188.73 95.0076 194.182 97.7315 197.749 102.48C200.755 106.472 202.027 111.393 201.328 116.348C200.629 121.299 198.044 125.682 194.048 128.688C190.772 131.151 186.882 132.451 182.797 132.451C179.21 132.451 175.804 131.455 172.878 129.628ZM203.601 138.507C203.513 139.168 203.172 139.748 202.645 140.144C201.589 140.936 200.01 140.713 199.205 139.66L193.408 131.943C194.115 131.53 194.81 131.084 195.479 130.587C196.136 130.095 196.751 129.564 197.34 129.004L203.134 136.717C203.525 137.222 203.69 137.858 203.601 138.507ZM117.57 99.1807C116.913 99.1807 116.382 99.7112 116.382 100.368V123.094C116.382 123.751 116.913 124.281 117.57 124.281H127.397C128.054 124.281 128.584 123.751 128.584 123.094V100.368C128.584 99.7112 128.054 99.1807 127.397 99.1807H117.57ZM126.21 121.907H118.757V101.555H126.21V121.907ZM137.085 90.2848C136.428 90.2848 135.898 90.8152 135.898 91.472V123.094C135.898 123.751 136.428 124.281 137.085 124.281H146.912C147.569 124.281 148.1 123.751 148.1 123.094V91.472C148.1 90.8153 147.569 90.2848 146.912 90.2848H137.085ZM145.725 121.907H138.273V92.6634H145.725V121.907ZM191.101 112C190.596 115.714 187.657 118.686 183.952 119.237C183.754 119.267 183.615 119.435 183.615 119.646V121.393C183.615 122.05 183.085 122.58 182.428 122.58C181.771 122.58 181.24 122.05 181.24 121.393V119.646C181.24 118.248 182.234 117.09 183.602 116.888C186.268 116.492 188.385 114.354 188.748 111.685C189.16 108.557 187.156 105.643 184.087 104.923C181.013 104.216 177.927 105.938 176.916 108.923C176.706 109.546 176.032 109.879 175.409 109.664C174.79 109.453 174.453 108.78 174.668 108.157C176.074 104.014 180.356 101.631 184.63 102.608C188.891 103.618 191.67 107.651 191.101 112ZM183.544 124.235V124.303C183.544 124.959 183.013 125.49 182.356 125.49C181.699 125.49 181.169 124.959 181.169 124.303C181.169 123.646 181.699 123.078 182.356 123.078C183.013 123.082 183.544 123.579 183.544 124.235ZM120.126 61.1435C119.798 60.5751 119.995 59.8468 120.564 59.5226L124.139 57.4682V50.8205C124.139 50.1637 124.669 49.6332 125.326 49.6332C125.983 49.6332 126.513 50.1636 126.513 50.8205V58.1544C126.513 58.5796 126.286 58.9711 125.92 59.1816L121.751 61.5814C121.566 61.6909 121.36 61.7414 121.162 61.7414C120.745 61.7414 120.345 61.5266 120.126 61.1435ZM125.326 70.3088C130.905 70.3088 135.608 66.5239 137.03 61.3919H140.601V62.857C140.601 63.3117 140.858 63.7243 141.266 63.9222C141.43 64.0022 141.611 64.0443 141.788 64.0443C142.045 64.0443 142.302 63.9601 142.512 63.7959L148.613 59.0932C148.904 58.8659 149.077 58.5207 149.077 58.1544C149.077 57.7839 148.908 57.4387 148.613 57.2155L142.512 52.5129C142.155 52.235 141.67 52.1887 141.266 52.3866C140.858 52.5845 140.601 52.997 140.601 53.4517V54.9169H137.031C135.607 49.7848 130.904 46 125.326 46C118.623 46 113.171 51.452 113.171 58.1541C113.171 64.8561 118.623 70.3088 125.326 70.3088ZM141.788 57.2914C142.445 57.2914 142.976 56.7609 142.976 56.1041V55.8642L145.944 58.1502L142.976 60.4363V60.1963C142.976 59.5395 142.445 59.009 141.788 59.009H137.439C137.46 58.7228 137.481 58.4407 137.481 58.146C137.481 57.8555 137.46 57.5692 137.439 57.2829L141.788 57.2914ZM125.326 48.3746C130.037 48.3746 133.982 51.7258 134.905 56.1674C134.909 56.2516 134.921 56.3358 134.947 56.4158C135.048 56.9799 135.111 57.5609 135.111 58.1546C135.111 58.7482 135.048 59.3291 134.947 59.8933C134.926 59.9733 134.909 60.0575 134.905 60.1417C133.982 64.5833 130.037 67.9346 125.326 67.9346C119.932 67.9346 115.545 63.5477 115.545 58.1546C115.545 52.7616 119.932 48.3746 125.326 48.3746ZM174.904 69.749V66.2798C174.904 65.6273 175.438 65.1179 176.091 65.1179H177.371C178.024 65.1179 178.558 65.6315 178.558 66.2798C178.558 66.9324 178.024 67.4671 177.371 67.4671H177.278V69.749C177.278 70.4015 176.744 70.9109 176.091 70.9109C175.438 70.9109 174.904 70.4015 174.904 69.749ZM177.278 92.1505C176.487 92.361 175.695 92.5926 174.904 92.8957V88.6562C174.904 88.0036 175.438 87.4689 176.091 87.4689C176.744 87.4689 177.278 88.0036 177.278 88.6562L177.278 92.1505ZM174.904 81.5538V76.826C174.904 76.1734 175.438 75.6387 176.091 75.6387C176.744 75.6387 177.278 76.1734 177.278 76.826V81.5538C177.278 82.2274 176.744 82.7411 176.091 82.7411C175.438 82.7411 174.904 82.2275 174.904 81.5538ZM187.105 88.4962V91.8727C186.314 91.7337 185.522 91.6158 184.73 91.5443V88.4962C184.73 87.8437 185.265 87.3089 185.918 87.3089C186.566 87.3047 187.105 87.8394 187.105 88.4962ZM163.725 80.1098C163.725 79.4573 164.239 78.9226 164.887 78.9226H166.424C167.076 78.9226 167.59 79.4572 167.59 80.1098V83.3221C167.59 83.9747 167.076 84.5094 166.424 84.5094C165.746 84.5094 165.236 83.9747 165.236 83.3221V81.2971H164.887C164.239 81.3013 163.725 80.7624 163.725 80.1098ZM183.286 66.2798C183.286 65.6273 183.821 65.1179 184.474 65.1179H185.918C186.57 65.1179 187.105 65.6315 187.105 66.2798V69.5637C187.105 70.2163 186.57 70.751 185.918 70.751C185.265 70.751 184.73 70.2163 184.73 69.5637V67.4671H184.473C183.821 67.4671 183.286 66.9324 183.286 66.2798ZM187.105 81.3935C187.105 82.046 186.57 82.5807 185.918 82.5807C185.265 82.5807 184.73 82.0461 184.73 81.3935V76.6656C184.73 76.013 185.265 75.4783 185.918 75.4783C186.57 75.4783 187.105 76.013 187.105 76.6656V81.3935ZM155.414 107.285V102.557C155.414 101.904 155.927 101.37 156.58 101.37C157.258 101.37 157.767 101.904 157.767 102.557V107.285C157.767 107.937 157.254 108.472 156.58 108.472C155.923 108.472 155.414 107.937 155.414 107.285ZM167.59 90.4274V95.1552C167.59 95.8078 167.077 96.3425 166.424 96.3425C165.746 96.3425 165.237 95.8078 165.237 95.1552V90.4274C165.237 89.7748 165.75 89.2401 166.424 89.2401C167.077 89.2359 167.59 89.7706 167.59 90.4274ZM155.414 119.114V114.387C155.414 113.734 155.927 113.199 156.58 113.199C157.258 113.199 157.767 113.734 157.767 114.387V119.114C157.767 119.767 157.254 120.302 156.58 120.302C155.923 120.298 155.414 119.763 155.414 119.114ZM155.414 95.4541V90.7262C155.414 90.0737 155.927 89.5389 156.58 89.5389C157.258 89.5389 157.767 90.0736 157.767 90.7262V95.4541C157.767 96.1067 157.254 96.6414 156.58 96.6414C155.923 96.6414 155.414 96.1067 155.414 95.4541ZM155.414 83.6234V80.108C155.414 79.4554 155.927 78.9207 156.58 78.9207H157.813C158.466 78.9207 158.98 79.4554 158.98 80.108C158.98 80.7606 158.466 81.2953 157.813 81.2953H157.767V83.6235C157.767 84.276 157.253 84.8108 156.58 84.8108C155.923 84.815 155.414 84.276 155.414 83.6234ZM159.696 121.926H162.07C162.373 122.718 162.744 123.509 163.165 124.28H159.695C159.043 124.28 158.508 123.745 158.508 123.093C158.508 122.44 159.043 121.926 159.696 121.926Z" fill="white"></path></svg> 