<?xml version="1.0" encoding="UTF-8"?> <svg xmlns="http://www.w3.org/2000/svg" width="300" height="186" viewBox="0 0 300 186" fill="none"><rect width="300" height="186" fill="#051C2C"></rect><path fill-rule="evenodd" clip-rule="evenodd" d="M117.418 88.5409C118.502 88.4555 119.59 88.4555 120.673 88.5409V51.3726C120.673 50.9468 120.842 50.5383 121.143 50.2371C121.444 49.9358 121.852 49.7664 122.278 49.7661H136.639V46.5096H120.864C119.951 46.5136 119.077 46.8783 118.432 47.5242C117.786 48.17 117.422 49.0449 117.418 49.9581V88.5409ZM136.218 125.523L134.364 122.373C134.738 121.948 135.091 121.508 135.423 121.053H156.248C156.674 121.053 157.082 120.884 157.383 120.583C157.684 120.282 157.853 119.873 157.853 119.447C157.853 119.021 157.684 118.612 157.383 118.311C157.082 118.01 156.674 117.841 156.248 117.841H137.38C137.815 116.949 138.185 116.027 138.486 115.082L143.511 115.039C143.721 115.037 143.928 114.994 144.121 114.912C144.315 114.83 144.49 114.711 144.637 114.561C144.785 114.411 144.901 114.234 144.98 114.039C145.058 113.845 145.098 113.636 145.096 113.426L145.014 103.902C145.012 103.691 144.969 103.484 144.887 103.29C144.805 103.097 144.686 102.922 144.537 102.774C144.387 102.627 144.21 102.511 144.015 102.432C143.821 102.353 143.612 102.313 143.402 102.315L138.379 102.359L137.76 100.773H156.252C156.467 100.779 156.68 100.742 156.88 100.664C157.08 100.586 157.262 100.468 157.416 100.319C157.57 100.169 157.692 99.99 157.775 99.7922C157.859 99.5945 157.902 99.3821 157.902 99.1674C157.902 98.9528 157.859 98.7404 157.775 98.5426C157.692 98.3449 157.57 98.1659 157.416 98.0162C157.262 97.8665 157.08 97.7491 156.88 97.6711C156.68 97.593 156.467 97.5557 156.252 97.5615H136.011C135.447 96.7086 134.817 95.9009 134.127 95.1459L136.599 90.774C136.703 90.5912 136.77 90.3897 136.796 90.1811C136.822 89.9724 136.807 89.7607 136.751 89.558C136.695 89.3553 136.6 89.1656 136.471 88.9998C136.341 88.8339 136.181 88.6952 135.998 88.5916L127.712 83.9005C127.342 83.6911 126.905 83.6369 126.496 83.7497C126.087 83.8625 125.739 84.1332 125.529 84.5023L123.881 87.4138V52.9779H136.811C137.079 53.9195 137.646 54.7482 138.426 55.3389C139.207 55.9296 140.158 56.2502 141.136 56.2522H163.074C164.052 56.2497 165.003 55.929 165.783 55.3383C166.563 54.7477 167.13 53.9192 167.398 52.9779H180.327V136.317H123.883V129.641L125.953 133.155C126.168 133.521 126.519 133.787 126.929 133.894C127.339 134.001 127.775 133.941 128.141 133.726L136.344 128.897C136.424 128.851 136.499 128.798 136.57 128.738H147.628C148.047 128.727 148.444 128.553 148.736 128.253C149.027 127.953 149.191 127.551 149.191 127.133C149.191 126.714 149.027 126.312 148.736 126.012C148.444 125.712 148.047 125.538 147.628 125.527L136.218 125.523ZM133.202 118.67C132.62 119.512 131.965 120.3 131.243 121.025C130.986 121.285 130.825 121.626 130.788 121.99C130.751 122.354 130.839 122.72 131.038 123.027L133.346 126.946L127.898 130.155L125.555 126.176C125.376 125.87 125.1 125.632 124.771 125.5C124.442 125.368 124.079 125.349 123.737 125.445C120.768 126.291 117.626 126.318 114.643 125.522C114.291 125.429 113.917 125.459 113.585 125.607C113.252 125.754 112.979 126.011 112.812 126.335L110.564 130.305L105.064 127.192L107.338 123.171C107.514 122.86 107.581 122.499 107.529 122.145C107.476 121.792 107.307 121.466 107.047 121.22C104.842 119.067 103.253 116.363 102.447 113.389C102.348 113.023 102.123 112.705 101.812 112.489C101.501 112.274 101.124 112.175 100.747 112.211L96.2644 112.251L96.2091 105.925L100.833 105.885C101.187 105.882 101.531 105.761 101.809 105.542C102.088 105.323 102.286 105.017 102.372 104.673C103.12 101.677 104.666 98.9402 106.845 96.7536C107.103 96.4936 107.264 96.153 107.301 95.7887C107.338 95.4243 107.25 95.0582 107.05 94.7514L104.742 90.8329L110.19 87.6223L112.541 91.5984C112.721 91.9044 112.996 92.1422 113.325 92.2744C113.654 92.4065 114.018 92.4256 114.359 92.3287C117.328 91.4821 120.471 91.4557 123.454 92.2521C123.806 92.3445 124.179 92.3143 124.512 92.1664C124.844 92.0185 125.117 91.7617 125.284 91.4383L127.532 87.4656L133.024 90.5832L130.751 94.603C130.575 94.9141 130.507 95.2754 130.56 95.6292C130.612 95.9831 130.782 96.3092 131.041 96.5557C133.246 98.708 134.834 101.412 135.641 104.387C135.74 104.752 135.965 105.071 136.276 105.286C136.587 105.502 136.964 105.6 137.341 105.565L141.824 105.526L141.879 111.85L137.262 111.892C136.908 111.894 136.564 112.015 136.285 112.234C136.007 112.453 135.809 112.758 135.722 113.102C135.347 114.596 134.774 116.032 134.019 117.374C133.817 117.732 133.601 118.085 133.372 118.434C133.31 118.508 133.256 118.586 133.209 118.67H133.202ZM161.454 124.794L163.798 127.463C163.937 127.621 164.105 127.751 164.293 127.844C164.481 127.937 164.686 127.992 164.896 128.006C165.106 128.02 165.316 127.993 165.515 127.925C165.714 127.858 165.898 127.752 166.056 127.614L173.166 121.362C173.328 121.225 173.46 121.056 173.556 120.867C173.652 120.678 173.709 120.472 173.725 120.26C173.74 120.049 173.714 119.837 173.646 119.635C173.579 119.434 173.473 119.249 173.333 119.089C173.193 118.93 173.024 118.799 172.833 118.706C172.643 118.613 172.436 118.558 172.224 118.546C172.013 118.533 171.801 118.562 171.601 118.633C171.401 118.703 171.217 118.812 171.059 118.954L165.144 124.155L163.867 122.689C163.587 122.369 163.191 122.174 162.767 122.145C162.343 122.117 161.926 122.258 161.606 122.538C161.286 122.818 161.09 123.214 161.062 123.638C161.034 124.062 161.175 124.48 161.454 124.8V124.794ZM161.454 104.51L163.798 107.18C163.937 107.339 164.105 107.468 164.293 107.561C164.481 107.655 164.686 107.71 164.896 107.724C165.106 107.738 165.316 107.71 165.515 107.643C165.714 107.576 165.898 107.47 166.056 107.331L173.166 101.08C173.328 100.942 173.46 100.774 173.556 100.585C173.652 100.396 173.709 100.189 173.725 99.978C173.74 99.7665 173.714 99.554 173.646 99.3529C173.579 99.1518 173.473 98.9661 173.333 98.8066C173.193 98.647 173.024 98.5168 172.833 98.4235C172.643 98.3302 172.436 98.2756 172.224 98.263C172.013 98.2504 171.801 98.28 171.601 98.35C171.401 98.42 171.217 98.5292 171.059 98.671L165.148 103.871L163.867 102.407C163.73 102.242 163.562 102.107 163.373 102.009C163.183 101.91 162.976 101.851 162.763 101.834C162.55 101.817 162.336 101.842 162.133 101.91C161.93 101.977 161.743 102.084 161.582 102.224C161.421 102.365 161.29 102.537 161.197 102.729C161.104 102.921 161.049 103.13 161.038 103.343C161.027 103.557 161.058 103.77 161.13 103.971C161.203 104.172 161.314 104.357 161.459 104.514L161.454 104.51ZM153.71 76.5453V88.6999L164.22 82.6273V70.4726L153.706 76.5453H153.71ZM153.003 92.808L166.53 84.9911C166.801 84.8593 167.03 84.6539 167.189 84.3983C167.349 84.1427 167.434 83.8474 167.433 83.546V67.6954C167.434 67.411 167.358 67.1316 167.214 66.8861C167.071 66.6406 166.864 66.4378 166.616 66.2986L152.925 58.3922C152.68 58.2459 152.4 58.1678 152.115 58.1659C151.83 58.164 151.549 58.2385 151.302 58.3816L137.68 66.2503C137.409 66.3824 137.181 66.5879 137.022 66.8434C136.862 67.0989 136.777 67.3941 136.777 67.6954V83.5495C136.777 83.8303 136.85 84.1063 136.991 84.3496C137.131 84.593 137.332 84.7951 137.575 84.9358L151.204 92.808C151.469 92.9879 151.781 93.0841 152.102 93.0841C152.422 93.0841 152.735 92.9879 153 92.808H153.003ZM150.5 88.6999V76.5453L139.987 70.4726V82.6273L150.5 88.6999ZM141.585 67.6954L152.105 73.7728L162.626 67.6954L152.105 61.6181L141.585 67.6954ZM139.852 51.3679C139.812 51.5984 139.825 51.835 139.891 52.0596C139.956 52.2842 140.072 52.4908 140.23 52.6635C140.47 52.9048 140.796 53.0408 141.136 53.0415H163.074C163.414 53.0385 163.738 52.9022 163.978 52.6621C164.218 52.422 164.354 52.0973 164.357 51.7578V44.4979C164.354 44.1584 164.218 43.8337 163.978 43.5936C163.738 43.3535 163.414 43.2172 163.074 43.2142H141.136C140.797 43.2169 140.472 43.353 140.232 43.5932C139.991 43.8333 139.855 44.1582 139.852 44.4979V51.3679ZM167.569 49.7661V46.5096H183.343C184.256 46.5133 185.131 46.8778 185.776 47.5237C186.422 48.1697 186.786 49.0446 186.79 49.9581V139.338C186.786 140.252 186.421 141.126 185.776 141.772C185.13 142.418 184.256 142.782 183.343 142.786H120.864C119.951 142.782 119.077 142.418 118.432 141.772C117.786 141.126 117.422 140.252 117.418 139.338V129.231C118.502 129.317 119.59 129.317 120.673 129.231V137.92C120.673 138.346 120.842 138.755 121.143 139.056C121.444 139.357 121.852 139.526 122.278 139.526H181.932C182.357 139.526 182.765 139.357 183.067 139.056C183.368 138.755 183.537 138.346 183.537 137.92V51.3726C183.537 50.9466 183.368 50.5379 183.067 50.2367C182.766 49.9354 182.357 49.7661 181.932 49.7661H167.569ZM167.405 43.2978H183.345C185.109 43.3024 186.8 44.0057 188.047 45.2538C189.294 46.502 189.996 48.1933 190 49.9581V139.338C189.996 141.103 189.294 142.795 188.047 144.044C186.8 145.292 185.109 145.995 183.345 146H120.864C119.1 145.996 117.409 145.293 116.161 144.045C114.914 142.797 114.211 141.105 114.207 139.34V130.366L112.559 133.278C112.349 133.647 112.002 133.918 111.592 134.031C111.183 134.144 110.746 134.089 110.376 133.879L102.09 129.19C101.721 128.98 101.45 128.632 101.338 128.222C101.225 127.813 101.279 127.375 101.489 127.006L103.961 122.635C102.066 120.545 100.62 118.09 99.71 115.419L94.687 115.463C94.2629 115.466 93.8549 115.3 93.5527 115.003C93.2505 114.705 93.0788 114.299 93.0754 113.875L93.0001 104.35C92.9983 104.14 93.038 103.932 93.1168 103.737C93.1955 103.542 93.3119 103.365 93.4591 103.215C93.6063 103.066 93.7816 102.947 93.9749 102.865C94.1682 102.783 94.3758 102.74 94.5857 102.738L99.6099 102.694C100.469 100.007 101.872 97.5256 103.73 95.4038L101.18 91.072C101.073 90.8908 101.003 90.6902 100.973 90.4818C100.944 90.2733 100.955 90.0611 101.008 89.8572C101.061 89.6534 101.153 89.4619 101.28 89.2938C101.406 89.1258 101.565 88.9844 101.747 88.8778L109.952 84.0489C110.132 83.9425 110.333 83.8729 110.541 83.844C110.748 83.8151 110.96 83.8274 111.163 83.8804C111.366 83.9333 111.557 84.0258 111.724 84.1525C111.892 84.2793 112.033 84.4377 112.139 84.6189L114.208 88.1346V49.9581C114.212 48.1931 114.915 46.5016 116.162 45.2534C117.409 44.0053 119.1 43.3021 120.864 43.2978H136.805C137.069 42.3508 137.635 41.516 138.417 40.9206C139.199 40.3253 140.154 40.002 141.136 40H163.074C164.057 40.0023 165.012 40.3258 165.793 40.9211C166.575 41.5164 167.141 42.351 167.405 43.2978ZM119.045 96.286C116.554 96.286 114.119 97.0251 112.047 98.4099C109.976 99.7946 108.362 101.763 107.408 104.066C106.455 106.368 106.205 108.902 106.691 111.347C107.177 113.791 108.377 116.037 110.139 117.799C111.9 119.562 114.145 120.762 116.588 121.248C119.031 121.735 121.564 121.485 123.865 120.531C126.167 119.577 128.134 117.962 129.518 115.89C130.902 113.817 131.641 111.381 131.641 108.888H131.635C131.637 107.233 131.312 105.595 130.68 104.066C130.048 102.536 129.121 101.147 127.952 99.9765C126.782 98.8061 125.394 97.8777 123.866 97.2445C122.338 96.6112 120.7 96.2855 119.046 96.286H119.045ZM125.681 102.248C124.145 100.713 122.124 99.758 119.964 99.5462C117.803 99.3344 115.636 99.8787 113.831 101.086C112.027 102.294 110.696 104.091 110.067 106.17C109.438 108.248 109.549 110.481 110.38 112.488C111.212 114.494 112.713 116.15 114.629 117.173C116.544 118.196 118.754 118.523 120.884 118.099C123.013 117.674 124.929 116.524 126.306 114.844C127.682 113.165 128.434 111.059 128.433 108.887C128.434 107.654 128.192 106.432 127.719 105.293C127.247 104.153 126.554 103.119 125.681 102.248Z" fill="white"></path></svg> 