<?xml version="1.0" encoding="UTF-8"?> <svg xmlns="http://www.w3.org/2000/svg" width="300" height="186" viewBox="0 0 300 186" fill="none"><rect width="300" height="186" fill="#051C2C"></rect><path fill-rule="evenodd" clip-rule="evenodd" d="M172.663 69.5176C182.842 79.6971 182.843 96.345 172.663 106.525L167.472 111.715V121.157C167.472 122.013 166.778 122.707 165.922 122.707H142.397C141.541 122.707 140.847 122.013 140.847 121.157V111.715L135.656 106.525C125.476 96.345 125.477 79.6971 135.656 69.5176C145.836 59.338 162.483 59.338 172.663 69.5176ZM146.623 79.9638L144.364 78.8131L142.813 80.364L143.964 82.623C144.225 83.1361 144.173 83.7262 143.879 84.1755C143.367 85.0017 142.875 86.2539 142.635 87.1885C142.5 87.7204 142.103 88.1166 141.617 88.275L141.618 88.2784L139.21 89.0609V91.2582L141.618 92.0407C142.176 92.2219 142.56 92.6897 142.661 93.2279C142.863 94.1198 143.441 95.4039 143.916 96.2065C144.195 96.6792 144.194 97.2397 143.963 97.6955L143.964 97.6962L142.813 99.9552L144.364 101.506L146.623 100.355C147.136 100.094 147.726 100.146 148.175 100.441C149.002 100.952 150.254 101.445 151.188 101.684C151.72 101.82 152.117 102.216 152.275 102.702L152.278 102.701L153.061 105.109H155.258L156.041 102.701C156.222 102.143 156.69 101.759 157.228 101.658C158.12 101.456 159.404 100.878 160.206 100.404C160.679 100.124 161.24 100.125 161.695 100.357L161.696 100.355L163.955 101.506L165.506 99.9551L164.355 97.6963C164.094 97.1832 164.146 96.5931 164.44 96.1437C164.952 95.3173 165.445 94.0654 165.684 93.1306C165.819 92.5987 166.216 92.2025 166.702 92.044L166.701 92.0406L169.109 91.2582V89.0609L166.701 88.2784C166.143 88.0972 165.759 87.6295 165.658 87.0912C165.456 86.1998 164.878 84.9149 164.404 84.1126C164.124 83.64 164.125 83.0794 164.356 82.6237L164.355 82.623L165.506 80.3641L163.955 78.8131L161.696 79.964C161.183 80.225 160.593 80.1729 160.144 79.8786C159.317 79.3674 158.065 78.8742 157.13 78.6352C156.599 78.4995 156.202 78.1027 156.044 77.6167L156.04 77.6179L155.258 75.21H153.061L152.278 77.6179C152.097 78.1755 151.629 78.5597 151.091 78.6607C150.199 78.863 148.915 79.4409 148.112 79.9154C147.64 80.1947 147.079 80.1938 146.623 79.9625L146.623 79.9638ZM144.766 75.5408C144.153 75.2288 143.429 75.3642 142.968 75.8258L139.825 78.9675C139.322 79.4704 139.237 80.233 139.57 80.8238L140.831 83.298C140.45 84.0359 140.138 84.7888 139.884 85.5881L137.181 86.4662C136.528 86.6788 136.112 87.2854 136.112 87.9377H136.11V92.3814C136.11 93.1054 136.606 93.7136 137.277 93.8839L139.884 94.731C140.138 95.5307 140.45 96.2829 140.831 97.0211L139.541 99.5532C139.229 100.166 139.364 100.89 139.826 101.351L142.967 104.494C143.47 104.997 144.233 105.082 144.824 104.749L147.298 103.488C148.035 103.869 148.79 104.182 149.588 104.436L150.466 107.138C150.679 107.792 151.285 108.207 151.938 108.207V108.21H156.381C157.105 108.21 157.713 107.713 157.884 107.042L158.731 104.435C159.53 104.182 160.283 103.869 161.021 103.488L163.553 104.778C164.166 105.09 164.89 104.955 165.351 104.493L168.494 101.352C168.997 100.849 169.082 100.086 168.749 99.4954L167.488 97.0212C167.869 96.2837 168.182 95.5298 168.435 94.7309L171.138 93.8529C171.791 93.6403 172.207 93.0337 172.207 92.3814H172.209V87.9377C172.209 87.2137 171.713 86.6056 171.042 86.4352L168.435 85.5881C168.181 84.7888 167.869 84.036 167.488 83.298L168.778 80.766C169.09 80.1527 168.955 79.4295 168.493 78.968L165.352 75.8253C164.849 75.3224 164.086 75.2374 163.495 75.5702L161.021 76.8309C160.284 76.4504 159.529 76.1369 158.731 75.8836L157.853 73.1814C157.64 72.5276 157.034 72.1121 156.381 72.1123V72.1096H151.938C151.214 72.1096 150.605 72.6061 150.435 73.2771L149.588 75.8836C148.789 76.1372 148.036 76.45 147.298 76.8307L144.766 75.5408ZM154.16 80.2512C148.688 80.2512 144.251 84.6875 144.251 90.1596C144.251 95.6316 148.687 100.068 154.16 100.068C159.632 100.068 164.068 95.6315 164.068 90.1596C164.068 84.6877 159.632 80.2512 154.16 80.2512ZM158.974 85.3455C156.315 82.687 152.004 82.687 149.345 85.3455C146.687 88.0041 146.687 92.3151 149.345 94.9736C152.004 97.6321 156.315 97.6322 158.974 94.9736C161.632 92.3151 161.632 88.004 158.974 85.3455ZM146.841 134.79H161.478C162.334 134.79 163.028 135.484 163.028 136.34V141.537C163.028 142.393 162.334 143.087 161.478 143.087H146.841C145.985 143.087 145.291 142.393 145.291 141.537V136.34C145.291 135.484 145.985 134.79 146.841 134.79ZM159.928 137.891H148.391V139.987H159.928V137.891ZM145.017 124.712H163.302C164.158 124.712 164.852 125.406 164.852 126.262V131.459C164.852 132.315 164.158 133.009 163.302 133.009H145.017C144.161 133.009 143.467 132.315 143.467 131.459V126.262C143.467 125.406 144.161 124.712 145.017 124.712ZM161.751 127.812H146.568V129.909H161.751V127.812ZM190.333 57.8837C191.133 57.0833 191.534 56.0246 191.533 54.9635H191.54C191.54 51.2752 187.071 49.4648 184.492 52.0432L175.446 61.0891C174.642 61.8935 174.24 62.952 174.24 64.0092C174.24 67.6975 178.709 69.5077 181.287 66.9295L190.333 57.8837ZM179.095 64.7374L188.141 55.6916C188.344 55.4887 188.445 55.2248 188.445 54.9635H188.439C188.439 54.0282 187.315 53.6051 186.684 54.2352L177.639 63.2811C177.008 63.9113 177.432 65.0357 178.367 65.0357C178.632 65.0357 178.896 64.9363 179.095 64.7374ZM123.827 52.0431C123.022 51.2387 121.964 50.8365 120.906 50.8365C117.218 50.8365 115.408 55.3055 117.986 57.8837L127.032 66.9295C127.836 67.7339 128.895 68.1361 129.952 68.1361C133.641 68.1361 135.451 63.6671 132.873 61.0889L123.827 52.0431ZM130.68 63.281L121.635 54.2352C121.005 53.6052 119.88 54.0281 119.88 54.9635C119.88 55.2286 119.979 55.4927 120.178 55.6916L129.224 64.7373C129.854 65.3676 130.979 64.9443 130.979 64.0092C130.979 63.744 130.879 63.4799 130.68 63.281ZM107.133 84.0864H119.925C123.569 84.0864 125.453 88.5252 122.843 91.1346C122.095 91.8824 121.063 92.3466 119.925 92.3466H107.133C103.488 92.3466 101.605 87.9078 104.214 85.2984C104.962 84.5507 105.995 84.0864 107.133 84.0864ZM119.925 87.1868H107.133C106.24 87.1868 105.746 88.2824 106.407 88.9425C106.594 89.1298 106.851 89.2462 107.133 89.2462H119.925C120.818 89.2462 121.311 88.1506 120.651 87.4905C120.464 87.3032 120.207 87.1868 119.925 87.1868ZM117.986 118.549C117.182 119.354 116.779 120.412 116.779 121.47C116.779 125.158 121.248 126.968 123.827 124.39L132.873 115.344C133.677 114.54 134.079 113.481 134.079 112.424C134.079 108.735 129.61 106.926 127.032 109.504L117.986 118.549ZM129.224 111.696L120.178 120.741C119.548 121.372 119.971 122.496 120.906 122.496C121.172 122.496 121.436 122.397 121.635 122.198L130.68 113.152C131.311 112.522 130.887 111.397 129.952 111.397C129.687 111.397 129.423 111.497 129.224 111.696ZM184.492 124.39C185.297 125.194 186.355 125.597 187.413 125.597C191.101 125.597 192.911 121.128 190.333 118.549L181.287 109.504C180.483 108.699 179.424 108.297 178.367 108.297C174.682 108.297 172.867 112.765 175.447 115.344L184.492 124.39ZM177.639 113.152L186.684 122.198C187.314 122.828 188.439 122.405 188.439 121.47C188.439 121.204 188.34 120.94 188.141 120.742L179.095 111.696C178.465 111.066 177.34 111.489 177.34 112.424C177.34 112.689 177.44 112.953 177.639 113.152ZM158.29 43.1326C158.29 41.9952 157.825 40.9623 157.078 40.2145C154.468 37.605 150.029 39.4882 150.029 43.1326V55.9252C150.029 57.0626 150.494 58.0956 151.241 58.8432C153.851 61.4527 158.29 59.5695 158.29 55.9252V43.1326ZM155.189 55.9252C155.189 56.2067 155.073 56.4638 154.886 56.6511C154.225 57.3113 153.13 56.8181 153.13 55.9252V43.1326C153.13 42.8511 153.246 42.5939 153.434 42.4066C154.094 41.7465 155.189 42.2395 155.189 43.1326V55.9252ZM201.186 92.3466H188.394C184.75 92.3466 182.866 87.9079 185.476 85.2985C186.223 84.5507 187.256 84.0865 188.394 84.0865H201.186C204.831 84.0865 206.714 88.5252 204.105 91.1347C203.357 91.8825 202.324 92.3466 201.186 92.3466ZM188.394 89.2462H201.186C202.079 89.2462 202.573 88.1507 201.912 87.4906C201.725 87.3033 201.468 87.1869 201.186 87.1869H188.394C187.501 87.1869 187.008 88.2824 187.668 88.9426C187.855 89.1299 188.112 89.2462 188.394 89.2462ZM177.197 88.0211C177.197 75.2444 166.936 64.9832 154.16 64.9832C141.383 64.9832 131.122 75.2445 131.122 88.0211C131.122 93.9351 133.364 99.8482 137.848 104.332L143.486 109.97C143.771 110.251 143.947 110.642 143.947 111.074V119.606H164.372V111.074C164.372 110.677 164.523 110.28 164.826 109.978L170.471 104.332C174.955 99.8482 177.197 93.9351 177.197 88.0211Z" fill="white" stroke="#051C2C" stroke-width="0.6"></path></svg> 