<?xml version="1.0" encoding="UTF-8"?> <svg xmlns="http://www.w3.org/2000/svg" width="300" height="186" viewBox="0 0 300 186" fill="none"><rect width="300" height="186" fill="#051C2C"></rect><path d="M197.321 70.4285H101.679C99.6471 70.4285 98 72.0738 98 74.1071V129.286C98 131.319 99.6471 132.964 101.679 132.964H197.321C199.353 132.964 201 131.319 201 129.286V74.1071C201 72.0738 199.353 70.4285 197.321 70.4285ZM193.643 125.607H105.357V77.7857H193.643V125.607Z" fill="white" stroke="#051C2C" stroke-width="4"></path><path d="M132.185 61.9937C132.903 62.7122 133.845 63.0714 134.786 63.0714C135.727 63.0714 136.668 62.7122 137.387 61.9937C138.824 60.5568 138.824 58.2289 137.387 56.792L132.63 52.0357L137.387 47.2794C138.824 45.8425 138.824 43.5146 137.387 42.0777C135.95 40.6408 133.622 40.6408 132.185 42.0777L124.828 49.4348C123.391 50.8718 123.391 53.1996 124.828 54.6366L132.185 61.9937Z" fill="white" stroke="#051C2C" stroke-width="4"></path><path d="M161.613 61.9937C162.332 62.7122 163.273 63.0714 164.214 63.0714C165.155 63.0714 166.097 62.7122 166.815 61.9937L174.172 54.6366C175.609 53.1996 175.609 50.8718 174.172 49.4348L166.815 42.0777C165.378 40.6408 163.05 40.6408 161.613 42.0777C160.176 43.5146 160.176 45.8425 161.613 47.2794L166.37 52.0357L161.613 56.792C160.176 58.2289 160.176 60.5568 161.613 61.9937Z" fill="white" stroke="#051C2C" stroke-width="4"></path><path d="M144.176 62.6834C144.704 62.9457 145.266 63.0714 145.818 63.0714C147.168 63.0714 148.467 62.3278 149.112 61.0381L156.469 46.3238C157.378 44.5061 156.641 42.2968 154.824 41.3879C153.001 40.4862 150.799 41.2191 149.888 43.0332L142.531 57.7475C141.622 59.5652 142.358 61.7745 144.176 62.6834Z" fill="white" stroke="#051C2C" stroke-width="4"></path><path d="M160.536 136.643H138.464C136.433 136.643 134.786 138.288 134.786 140.321C134.786 142.355 136.433 144 138.464 144H160.536C162.567 144 164.214 142.355 164.214 140.321C164.214 138.288 162.567 136.643 160.536 136.643Z" fill="white" stroke="#051C2C" stroke-width="4"></path><path d="M127.429 104.344V118.25C127.429 120.283 129.076 121.929 131.107 121.929H167.893C169.924 121.929 171.571 120.283 171.571 118.25V104.344C173.813 102.323 175.25 99.4274 175.25 96.1786C175.25 95.7834 175.187 95.3919 175.061 95.0147L171.383 83.979C170.882 82.4773 169.477 81.4643 167.893 81.4643H131.107C129.523 81.4643 128.118 82.4773 127.617 83.979L123.939 95.0147C123.813 95.3919 123.75 95.7834 123.75 96.1786C123.75 99.4274 125.187 102.323 127.429 104.344ZM164.214 114.571H134.786V107.214C137.609 107.214 140.189 106.147 142.143 104.398C144.097 106.147 146.676 107.214 149.5 107.214C152.324 107.214 154.903 106.147 156.857 104.398C158.811 106.147 161.391 107.214 164.214 107.214V114.571ZM133.758 88.8214H165.242L167.859 96.6743C167.616 98.4705 166.075 99.8572 164.214 99.8572C162.186 99.8572 160.536 98.2083 160.536 96.1786C160.536 94.1453 158.889 92.5 156.857 92.5C154.826 92.5 153.179 94.1453 153.179 96.1786C153.179 98.2083 151.528 99.8572 149.5 99.8572C147.472 99.8572 145.821 98.2083 145.821 96.1786C145.821 94.1453 144.174 92.5 142.143 92.5C140.111 92.5 138.464 94.1453 138.464 96.1786C138.464 98.2083 136.814 99.8572 134.786 99.8572C132.925 99.8572 131.384 98.4705 131.141 96.6743L133.758 88.8214Z" fill="white" stroke="#051C2C" stroke-width="4"></path></svg> 