<?xml version="1.0" encoding="UTF-8"?> <svg xmlns="http://www.w3.org/2000/svg" xmlns:xlink="http://www.w3.org/1999/xlink" id="Group_14" data-name="Group 14" width="90" height="90" viewBox="0 0 90 90"><defs><clipPath id="clip-path"><rect id="Rectangle_7" data-name="Rectangle 7" width="90" height="90" fill="none"></rect></clipPath></defs><g id="Group_13" data-name="Group 13" clip-path="url(#clip-path)"><path id="Path_19" data-name="Path 19" d="M81.536,64.773l-2.454-.582a2.218,2.218,0,0,1-1.642-2.684,2.012,2.012,0,0,1,.265-.635L79.029,58.7a1.39,1.39,0,0,0-.212-1.73l-3.142-3.142a1.417,1.417,0,0,0-1.731-.212L71.773,54.94a2.216,2.216,0,0,1-3.054-.742,2.191,2.191,0,0,1-.265-.635l-.583-2.454a1.416,1.416,0,0,0-1.377-1.077H64.217a8.543,8.543,0,0,0,1.465-4.785V10.662a8.477,8.477,0,0,0-8.474-8.474,7.92,7.92,0,0,0-1.713.177l-34.3,7.062a8.518,8.518,0,0,0-6.744,7.7L13.443,31.3,6.487,46.607a1.423,1.423,0,0,0,.706,1.871,1.332,1.332,0,0,0,.583.124h5.649V65.621a4.227,4.227,0,0,0,4.237,4.237,4.29,4.29,0,0,0,1.571-.3l11.14-4.449V86.735H33.2V63.961l10.416-4.166-1.042-2.631-24.4,9.763a1.42,1.42,0,0,1-1.836-.794,1.345,1.345,0,0,1-.106-.53V47.189a1.417,1.417,0,0,0-1.412-1.412H9.947l6.161-13.541a1.587,1.587,0,0,0,.124-.477l1.024-14.441a5.685,5.685,0,0,1,4.5-5.137l34.3-7.062a5.652,5.652,0,0,1,6.674,4.4,6.225,6.225,0,0,1,.123,1.147V45.23a5.616,5.616,0,0,1-3.548,5.243l.953,2.366-.176.706A2.219,2.219,0,0,1,57.4,55.187a2.012,2.012,0,0,1-.635-.265L54.6,53.6a1.39,1.39,0,0,0-1.73.212l-3.143,3.142a1.416,1.416,0,0,0-.211,1.73l1.324,2.172a2.217,2.217,0,0,1-.742,3.054,2.191,2.191,0,0,1-.635.265L47,64.756a1.415,1.415,0,0,0-1.077,1.377v4.449A1.416,1.416,0,0,0,47,71.959l2.454.582A2.22,2.22,0,0,1,51.1,75.225a2.036,2.036,0,0,1-.265.635l-1.324,2.172a1.39,1.39,0,0,0,.211,1.73L52.865,82.9a1.416,1.416,0,0,0,1.73.212l2.172-1.324a2.23,2.23,0,0,1,3.319,1.377l.582,2.454A1.416,1.416,0,0,0,62.045,86.7h4.449a1.416,1.416,0,0,0,1.377-1.077l.583-2.454a2.219,2.219,0,0,1,2.683-1.642,2.031,2.031,0,0,1,.636.265l2.171,1.324a1.389,1.389,0,0,0,1.73-.212l3.143-3.142a1.417,1.417,0,0,0,.212-1.73L77.705,75.86a2.228,2.228,0,0,1,1.377-3.319l2.454-.582a1.417,1.417,0,0,0,1.077-1.377V66.133a1.412,1.412,0,0,0-1.077-1.36m-1.748,4.714-1.377.335a5.039,5.039,0,0,0-3.725,6.091,5.549,5.549,0,0,0,.6,1.466l.742,1.218-1.572,1.571-1.218-.742A5.026,5.026,0,0,0,65.7,82.551l-.336,1.377H63.14L62.8,82.551a5.038,5.038,0,0,0-6.09-3.725,5.617,5.617,0,0,0-1.466.6l-1.218.742L52.459,78.6l.741-1.218a5.026,5.026,0,0,0-3.124-7.539L48.7,69.5V67.28l1.377-.335A5.039,5.039,0,0,0,53.8,60.854a5.579,5.579,0,0,0-.6-1.465l-.741-1.218L54.03,56.6l1.218.742a5.026,5.026,0,0,0,7.539-3.125l.335-1.377h2.225l.335,1.377a5.038,5.038,0,0,0,6.091,3.725,5.577,5.577,0,0,0,1.465-.6l1.218-.742,1.572,1.572-.742,1.218a5.026,5.026,0,0,0,3.125,7.538l1.377.336Z" fill="#1a53f6"></path><path id="Path_20" data-name="Path 20" d="M23.294,51.427a4.237,4.237,0,1,0,5.649-3.99V28.829a1.426,1.426,0,0,0-.406-1.006l-5.649-5.65-2,1.995,5.243,5.244V47.437a4.217,4.217,0,0,0-2.842,3.99m4.237,1.412a1.413,1.413,0,1,1,1.412-1.412,1.416,1.416,0,0,1-1.412,1.412" fill="#1a53f6"></path><path id="Path_21" data-name="Path 21" d="M45.892,47.189a4.237,4.237,0,1,0,4.237-4.237,4.409,4.409,0,0,0-1.836.406L41.655,36.72V18.112L46.9,12.869l-1.995-2-5.649,5.649a1.4,1.4,0,0,0-.407,1.007V37.3a1.431,1.431,0,0,0,.407,1.006l7.061,7.062a4.049,4.049,0,0,0-.423,1.818m5.649,0a1.413,1.413,0,1,1-1.412-1.412,1.416,1.416,0,0,1,1.412,1.412" fill="#1a53f6"></path><path id="Path_22" data-name="Path 22" d="M58.2,11.475l-2-2L49.14,16.541a1.4,1.4,0,0,0-.406,1.007v14.37a4.233,4.233,0,1,0,2.825,0V18.13ZM50.129,37.3a1.413,1.413,0,1,1,1.412-1.412A1.416,1.416,0,0,1,50.129,37.3" fill="#1a53f6"></path><path id="Path_23" data-name="Path 23" d="M37.418,51.426a4.237,4.237,0,1,0,0-8.474,4.409,4.409,0,0,0-1.836.406l-1.007-1.006V21.767a1.43,1.43,0,0,0-.406-1.007L28.52,15.111l-2,2,5.243,5.243v20.6a1.428,1.428,0,0,0,.406,1.006l1.413,1.413a4.228,4.228,0,0,0,1.995,5.649,4.409,4.409,0,0,0,1.836.406m1.412-4.237a1.413,1.413,0,1,1-1.412-1.412,1.416,1.416,0,0,1,1.412,1.412" fill="#1a53f6"></path><path id="Path_24" data-name="Path 24" d="M64.252,61.313a7.062,7.062,0,1,0,7.062,7.062,7.06,7.06,0,0,0-7.062-7.062m0,11.3a4.237,4.237,0,1,1,4.237-4.237,4.227,4.227,0,0,1-4.237,4.237" fill="#1a53f6"></path><path id="Path_25" data-name="Path 25" d="M81.483,53.757l2.154-1.836a25.673,25.673,0,0,0-2.931-2.931L78.87,51.144a22.784,22.784,0,0,1,2.613,2.613" fill="#1a53f6"></path><path id="Path_26" data-name="Path 26" d="M77.705,46.8a25.293,25.293,0,0,0-8.968-3.46l-.5,2.789a22.455,22.455,0,0,1,7.98,3.072Z" fill="#1a53f6"></path><path id="Path_27" data-name="Path 27" d="M42.007,64.385l-2.789-.494a24.252,24.252,0,0,0-.353,2.983l2.824.159a22.548,22.548,0,0,1,.318-2.648" fill="#1a53f6"></path><path id="Path_28" data-name="Path 28" d="M41.69,69.7l-2.825.159a25.533,25.533,0,0,0,9,17.954l1.818-2.153a22.688,22.688,0,0,1-8-15.96" fill="#1a53f6"></path></g></svg> 