<?xml version="1.0" encoding="UTF-8"?> <svg xmlns="http://www.w3.org/2000/svg" xmlns:xlink="http://www.w3.org/1999/xlink" width="90" height="90" viewBox="0 0 90 90"><defs><clipPath id="clip-path"><rect id="Rectangle_14" data-name="Rectangle 14" width="90" height="90" transform="translate(479 1206)" fill="#fff"></rect></clipPath></defs><g id="Mask_Group_9" data-name="Mask Group 9" transform="translate(-479 -1206)" clip-path="url(#clip-path)"><g id="Group_121" data-name="Group 121" transform="translate(302.209 -13.337)"><path id="Path_155" data-name="Path 155" d="M232.269,488.35h-11.1a1.276,1.276,0,1,0,0,2.553h11.1a1.206,1.206,0,0,0,1.276-1.276,1.279,1.279,0,0,0-1.276-1.277Z" transform="translate(-17.417 808.125)" fill="#05f" stroke="#fff" stroke-width="0.6"></path><path id="Path_156" data-name="Path 156" d="M161.772,50.928a6.42,6.42,0,0,0-6.254,5.106H141.477V41.483h7.914a5.121,5.121,0,0,0,5.106-5.106V34.335a5.121,5.121,0,1,0-6.382-4.978,5.206,5.206,0,0,0,3.829,4.978v2.042a2.56,2.56,0,0,1-2.553,2.553h-7.914V24.124a7.681,7.681,0,0,0-7.658-7.658h-39.7a7.682,7.682,0,0,0-7.659,7.659V52.54a1.277,1.277,0,1,0,2.553,0V24.124a5.121,5.121,0,0,1,5.106-5.106h39.7a5.121,5.121,0,0,1,5.106,5.106V84.5H89.018V52.46a1.277,1.277,0,1,0-2.553,0V90.5a7.681,7.681,0,0,0,7.658,7.658h39.7a7.681,7.681,0,0,0,7.658-7.658V73.137H153.22a2.56,2.56,0,0,1,2.553,2.553v3.319a5.121,5.121,0,1,0,6.382,4.978,5.206,5.206,0,0,0-3.829-4.978V75.691a5.121,5.121,0,0,0-5.106-5.106H141.477v-12h14.041a6.382,6.382,0,1,0,6.254-7.658Zm-11.1-21.572a2.553,2.553,0,1,1,2.553,2.553,2.553,2.553,0,0,1-2.553-2.553Zm8.934,54.63a2.553,2.553,0,1,0-.006,0ZM133.819,95.6h-39.7a5.121,5.121,0,0,1-5.1-5.1V87.05h49.907V90.5a5.121,5.121,0,0,1-5.106,5.106Zm27.953-34.462A3.829,3.829,0,1,1,165.6,57.31a3.761,3.761,0,0,1-3.828,3.829Z" transform="translate(95.327 1206.872)" fill="#05f" stroke="#fff" stroke-width="0.6"></path><path id="Path_157" data-name="Path 157" d="M287.085,307.875a1.267,1.267,0,1,0-1.659-1.915.719.719,0,0,1-1.148-.128,1.174,1.174,0,0,1,.128-1.532,1.267,1.267,0,1,0-1.659-1.915,3.72,3.72,0,0,0-.383,4.978,3.173,3.173,0,0,0,4.722.512Z" transform="translate(-69.554 965.497)" fill="#05f" stroke="#fff" stroke-width="0.6"></path><path id="Path_158" data-name="Path 158" d="M305.132,201.822a.719.719,0,0,1,1.148.128,1.174,1.174,0,0,1-.128,1.532,1.267,1.267,0,1,0,1.659,1.915,3.72,3.72,0,0,0,.383-4.978,3.236,3.236,0,0,0-4.85-.383,1.368,1.368,0,0,0-.128,1.787,1.74,1.74,0,0,0,1.915,0Z" transform="translate(-87.601 1052.533)" fill="#05f" stroke="#fff" stroke-width="0.6"></path><path id="Path_159" data-name="Path 159" d="M126.415,124.076a8.747,8.747,0,0,0,6.127,11.232,7.3,7.3,0,0,0,13.147,4.722,6.719,6.719,0,0,0,5.616,2.936,6.542,6.542,0,0,0,6.51-8.169,8.6,8.6,0,0,0,6.254-10.339,8.58,8.58,0,0,0,1.148-12.509,8.747,8.747,0,0,0-6.127-11.232,7.2,7.2,0,0,0-7.275-7.658A6.869,6.869,0,0,0,145.943,96a6.795,6.795,0,0,0-12.381,3.574,6.467,6.467,0,0,0,.255,1.659,8.848,8.848,0,0,0-6.51,8.424,9.843,9.843,0,0,0,.255,1.914,8.581,8.581,0,0,0-1.149,12.509Zm2.425-10.211a8.518,8.518,0,0,0,5.233,1.787,7.651,7.651,0,0,0,.894,2.553,1.315,1.315,0,0,0,2.3-1.277c-1.532-2.808-.383-4.85-.255-4.978a1.292,1.292,0,0,0-2.17-1.4,9.337,9.337,0,0,0-.894,2.553c-3.446-.128-4.084-1.532-4.084-3.446a6.462,6.462,0,0,1,5.872-6.254,1.254,1.254,0,0,0,.894-1.914,3.6,3.6,0,0,1-.51-1.914,4.039,4.039,0,0,1,4.212-3.957,4.119,4.119,0,0,1,4.212,3.957v26.294a1.276,1.276,0,1,0,2.553,0V100.207a4.617,4.617,0,0,1,4.85-4.467,4.562,4.562,0,0,1,4.722,5.233,5.871,5.871,0,0,0-2.3,2.936,6.4,6.4,0,0,0-1.532-.255,1.279,1.279,0,0,0-1.276,1.276,1.372,1.372,0,0,0,1.276,1.276,2.95,2.95,0,0,1,2.68,1.4,1.258,1.258,0,0,0,2.3-1.021,4.908,4.908,0,0,0-1.149-1.4c.51-1.276,1.021-1.659,1.276-1.787,4.212.766,6.637,5.106,4.85,8.679a1.357,1.357,0,0,0,.255,1.532,6.018,6.018,0,0,1-.128,9.062,8.518,8.518,0,0,0-5.233-1.787,12.242,12.242,0,0,0-.894-2.553,1.315,1.315,0,0,0-2.3,1.277c1.532,2.808.383,4.85.255,4.978a1.292,1.292,0,1,0,2.17,1.4,9.337,9.337,0,0,0,.894-2.553c2.68.128,3.574,1.276,3.829,1.532a6.291,6.291,0,0,1-5.616,8.169,1.254,1.254,0,0,0-.894,1.914,3.941,3.941,0,0,1-3.574,5.872,4.119,4.119,0,0,1-4.212-3.957v-6.382a1.276,1.276,0,0,0-2.553,0v5.744a4.617,4.617,0,0,1-4.85,4.467,4.562,4.562,0,0,1-4.722-5.233,5.871,5.871,0,0,0,2.3-2.936,7.638,7.638,0,0,0,1.532.255,1.279,1.279,0,0,0,1.276-1.276,1.372,1.372,0,0,0-1.276-1.276,2.764,2.764,0,0,1-2.68-1.4,1.258,1.258,0,1,0-2.3,1.021,4.908,4.908,0,0,0,1.149,1.4c-.51,1.276-1.021,1.66-1.276,1.787-4.212-.766-6.637-5.106-4.85-8.679a1.357,1.357,0,0,0-.255-1.532,6.017,6.017,0,0,1,0-9.063Z" transform="translate(63.417 1142.15)" fill="#05f" stroke="#fff" stroke-width="0.6"></path><path id="Path_160" data-name="Path 160" d="M211.119,167.273c.894-.766,2.042.766,1.148,1.659a1.267,1.267,0,1,0,1.659,1.915c3.446-3.064-1.149-8.424-4.467-5.361a1.222,1.222,0,1,0,1.659,1.787Z" transform="translate(-8.267 1081.72)" fill="#05f" stroke="#fff" stroke-width="0.6"></path><path id="Path_161" data-name="Path 161" d="M191.555,273.3a1.267,1.267,0,1,0-1.659-1.915.719.719,0,0,1-1.149-.128,1.174,1.174,0,0,1,.128-1.532,1.267,1.267,0,1,0-1.659-1.915,3.72,3.72,0,0,0-.383,4.978,3.1,3.1,0,0,0,4.722.512Z" transform="translate(11.17 994.718)" fill="#05f" stroke="#fff" stroke-width="0.6"></path></g></g></svg> 