<?xml version="1.0" encoding="UTF-8"?> <svg xmlns="http://www.w3.org/2000/svg" xmlns:xlink="http://www.w3.org/1999/xlink" width="90" height="90" viewBox="0 0 90 90"><defs><clipPath id="clip-path"><rect id="Rectangle_1" data-name="Rectangle 1" width="90" height="90" transform="translate(87 73)" fill="#fff" stroke="#707070" stroke-width="1"></rect></clipPath></defs><g id="Mask_Group_1" data-name="Mask Group 1" transform="translate(-87 -73)" clip-path="url(#clip-path)"><g id="Group_1" data-name="Group 1" transform="translate(237.8 -11)"><path id="Path_1" data-name="Path 1" d="M73.245,30.042A1.17,1.17,0,0,0,74.386,28.9V24.186a1.3,1.3,0,0,0-.532-.989L39.4,1.446a1.167,1.167,0,0,0-1.217,0L3.732,23.2a1.3,1.3,0,0,0-.532.989V28.9a1.17,1.17,0,0,0,1.141,1.141H9.056V65.863H4.341A1.17,1.17,0,0,0,3.2,67v7.225A1.17,1.17,0,0,0,4.341,75.37h68.98a1.17,1.17,0,0,0,1.141-1.141V67a1.17,1.17,0,0,0-1.141-1.141H68.606V30.042ZM38.793,3.728,69.366,22.969H8.22ZM72.1,68.145v4.943H5.482V68.145H72.1Zm-60.843-38.1H17.27V65.863H11.262Zm22.36,0V65.863H27.613V30.042Zm16.351,0V65.863H43.965V30.042Zm16.351,0V65.863H60.316V30.042Zm-8.29,35.821h-5.78V30.042h5.78Zm-16.351,0H35.9V30.042h5.78Zm-16.351,0h-5.78V30.042h5.78Zm42.134-38.1H5.482V25.327h66.7v2.434Z" transform="translate(-145 90.725)" fill="#1c54f8"></path><path id="Path_2" data-name="Path 2" d="M48.851,14.129a1.714,1.714,0,0,1-1.825-1.6,1.842,1.842,0,0,1,3.651,0,.925.925,0,0,0,.913.913.981.981,0,0,0,.913-.913,3.481,3.481,0,0,0-2.738-3.346V7.513a.913.913,0,1,0-1.825,0v1.6A3.481,3.481,0,0,0,45.2,12.456a3.641,3.641,0,0,0,3.727,3.5,1.714,1.714,0,0,1,1.825,1.6,1.842,1.842,0,0,1-3.651,0,.925.925,0,0,0-.913-.913.981.981,0,0,0-.913.913A3.481,3.481,0,0,0,48.014,20.9v1.6a.913.913,0,0,0,1.825,0V20.9a3.481,3.481,0,0,0,2.738-3.346A3.58,3.58,0,0,0,48.851,14.129Z" transform="translate(-155.058 89.45)" fill="#1c54f8"></path></g></g></svg> 