<?xml version="1.0" encoding="UTF-8"?> <svg xmlns="http://www.w3.org/2000/svg" width="90" height="90" viewBox="0 0 90 90" fill="none"><mask id="mask0_3_5" style="mask-type:alpha" maskUnits="userSpaceOnUse" x="0" y="0" width="90" height="90"><rect width="90" height="90" fill="#D9D9D9"></rect></mask><g mask="url(#mask0_3_5)"><path d="M33.0083 53.6451L44.3744 60.2076C44.4031 60.2251 44.4369 60.2314 44.4669 60.2464C44.5006 60.2626 44.5331 60.2751 44.5681 60.2889C44.7094 60.3401 44.8531 60.3751 44.9994 60.3751C45.1456 60.3751 45.2894 60.3401 45.4306 60.2889C45.4656 60.2751 45.4994 60.2626 45.5319 60.2464C45.5619 60.2314 45.5956 60.2251 45.6244 60.2076L56.9905 53.6451C57.3779 53.4214 57.6154 53.0089 57.6154 52.5626V43.5439L66.0166 38.6939L76.7589 44.8952C76.7864 44.9114 76.8177 44.9177 76.8452 44.9302C76.8814 44.9477 76.9177 44.9614 76.9552 44.9764C77.0914 45.0264 77.2339 45.0602 77.3764 45.0614C77.3789 45.0614 77.3802 45.0627 77.3814 45.0627H77.3839C77.5314 45.0627 77.6764 45.0264 77.8177 44.9752C77.8489 44.9627 77.8789 44.9514 77.9089 44.9377C77.9414 44.9227 77.9777 44.9139 78.0089 44.8964L89.375 38.3339C89.7612 38.1102 89.9987 37.6964 89.9987 37.2502V24.1252C89.9987 24.0177 89.9825 23.9127 89.9575 23.8115C89.9563 23.8077 89.9575 23.804 89.9563 23.8002C89.9188 23.6627 89.8512 23.5377 89.7712 23.4202C89.75 23.3902 89.7288 23.3627 89.705 23.334C89.6113 23.2215 89.505 23.1177 89.3738 23.0427L78.0077 16.4803C77.6214 16.2565 77.1439 16.2565 76.7577 16.4803L65.3903 23.0427C65.2603 23.119 65.1541 23.2215 65.0591 23.334C65.0353 23.3627 65.0141 23.3902 64.9929 23.4202C64.9128 23.5365 64.8453 23.6615 64.8078 23.8002C64.8078 23.804 64.8078 23.8077 64.8066 23.8127C64.7803 23.914 64.7654 24.019 64.7654 24.1252V25.344L57.6142 21.2152V8.81279C57.6142 8.70529 57.5979 8.60029 57.5729 8.49904C57.5717 8.49529 57.5729 8.49154 57.5717 8.48779C57.5342 8.35029 57.4667 8.22529 57.3867 8.10779C57.3655 8.07779 57.3442 8.05029 57.3204 8.02154C57.2267 7.90904 57.1205 7.80529 56.9892 7.73029L45.6231 1.16781C45.2369 0.944063 44.7594 0.944063 44.3731 1.16781L33.007 7.73029C32.877 7.80654 32.7708 7.90904 32.6758 8.02154C32.652 8.04904 32.6308 8.07654 32.6095 8.10779C32.5295 8.22404 32.462 8.34904 32.4245 8.48779C32.4233 8.49154 32.4245 8.49529 32.4233 8.49904C32.397 8.60029 32.382 8.70529 32.382 8.81279V21.9377C32.382 22.384 32.6195 22.7977 33.007 23.0202L44.3731 29.5827C44.4019 29.6002 44.4356 29.6065 44.4656 29.6215C44.4994 29.6377 44.5319 29.6502 44.5669 29.664C44.7094 29.7152 44.8531 29.7502 44.9994 29.7502C45.1456 29.7502 45.2894 29.7152 45.4306 29.664C45.4656 29.6502 45.4994 29.6377 45.5319 29.6215C45.5619 29.6065 45.5956 29.6002 45.6244 29.5827L56.3667 23.3802L64.7666 28.2302V36.5277L57.6154 40.6564V39.4377C57.6154 39.3302 57.5992 39.2252 57.5742 39.1239C57.5729 39.1202 57.5742 39.1164 57.5729 39.1127C57.5354 38.9752 57.4679 38.8502 57.388 38.7327C57.3667 38.7027 57.3455 38.6752 57.3217 38.6464C57.228 38.5339 57.1217 38.4302 56.9905 38.3552L45.6244 31.7927C45.2381 31.569 44.7606 31.569 44.3744 31.7927L33.0083 38.3552C32.8783 38.4314 32.772 38.5339 32.677 38.6464C32.6533 38.6739 32.632 38.7014 32.6108 38.7327C32.5308 38.8489 32.4633 38.9739 32.4258 39.1127C32.4245 39.1164 32.4258 39.1202 32.4245 39.1239C32.3983 39.2252 32.3833 39.3302 32.3833 39.4377V40.6552L25.2321 36.5277V24.1252C25.2321 24.0177 25.2159 23.9127 25.1909 23.8127C25.1896 23.809 25.1896 23.804 25.1896 23.8002C25.1522 23.6627 25.0847 23.5377 25.0047 23.4202C24.9834 23.3902 24.9622 23.3627 24.9384 23.334C24.8447 23.2215 24.7384 23.119 24.6072 23.0427L13.2398 16.4803C12.8536 16.2565 12.3761 16.2565 11.9898 16.4803L0.623741 23.0427C0.493743 23.119 0.387495 23.2215 0.292496 23.334C0.268747 23.3615 0.247496 23.389 0.226247 23.4202C0.146248 23.5365 0.0787489 23.6615 0.0412494 23.8002C0.0399994 23.804 0.0412489 23.8077 0.0399989 23.8115C0.0162493 23.9127 0 24.0177 0 24.1252V37.2502C0 37.6964 0.237497 38.1102 0.624991 38.3327L11.3648 44.5339V47.4664L0.624991 53.6676C0.494993 53.7439 0.388744 53.8464 0.293745 53.9589C0.269996 53.9864 0.248747 54.0139 0.227497 54.0451C0.147498 54.1614 0.0799994 54.2864 0.0424999 54.4251C0.0412499 54.4289 0.0424994 54.4326 0.0412494 54.4364C0.0162498 54.5376 0 54.6426 0 54.7501V67.8751C0 68.3213 0.237497 68.7351 0.624991 68.9576L11.9911 75.5201C12.0186 75.5363 12.0511 75.5438 12.0798 75.5576C12.1148 75.5738 12.1498 75.5876 12.1861 75.6013C12.3236 75.6525 12.4673 75.6876 12.6123 75.6876C12.6136 75.6876 12.6136 75.6876 12.6148 75.6876C12.6161 75.6876 12.6161 75.6876 12.6161 75.6876C12.7636 75.6876 12.9073 75.6525 13.0486 75.6001C13.0811 75.5876 13.1136 75.5751 13.1436 75.5613C13.1761 75.5463 13.2111 75.5388 13.2411 75.5213L23.9834 69.3201L32.3846 74.1713V83.1888C32.3846 83.635 32.622 84.0488 33.0095 84.2713L44.3756 90.8337C44.4044 90.8512 44.4381 90.8575 44.4681 90.8725C44.5019 90.8887 44.5344 90.9012 44.5694 90.915C44.7094 90.965 44.8531 91 44.9994 91C45.1456 91 45.2894 90.965 45.4306 90.9137C45.4656 90.9 45.4994 90.8875 45.5319 90.8713C45.5619 90.8563 45.5956 90.85 45.6244 90.8325L56.9905 84.27C57.3779 84.0463 57.6154 83.6338 57.6154 83.1875V74.1688L66.0153 69.3188L76.7589 75.5213C76.7864 75.5375 76.8177 75.5438 76.8452 75.5563C76.8814 75.5738 76.9177 75.5875 76.9552 75.6025C77.0914 75.6525 77.2339 75.6863 77.3764 75.6876C77.3789 75.6876 77.3802 75.6888 77.3814 75.6888H77.3839C77.5314 75.6888 77.6764 75.6525 77.8177 75.6013C77.8489 75.5888 77.8789 75.5776 77.9089 75.5638C77.9414 75.5488 77.9777 75.54 78.0089 75.5225L89.375 68.9601C89.7625 68.7363 90 68.3238 90 67.8776V54.7501C90 54.6426 89.9837 54.5376 89.9587 54.4364C89.9575 54.4326 89.9587 54.4289 89.9575 54.4251C89.92 54.2876 89.8525 54.1626 89.7725 54.0451C89.7513 54.0151 89.73 53.9876 89.7063 53.9589C89.6125 53.8464 89.5063 53.7426 89.375 53.6676L78.0089 47.1052C77.6227 46.8814 77.1452 46.8814 76.7589 47.1052L65.3916 53.6676C65.2616 53.7439 65.1553 53.8464 65.0603 53.9589C65.0366 53.9876 65.0154 54.0151 64.9941 54.0451C64.9141 54.1614 64.8466 54.2864 64.8091 54.4251C64.8091 54.4289 64.8091 54.4326 64.8078 54.4376C64.7816 54.5389 64.7666 54.6439 64.7666 54.7501V67.1526L57.6154 71.2813V70.0626C57.6154 69.9551 57.5992 69.8501 57.5742 69.7488C57.5729 69.7451 57.5742 69.7413 57.5729 69.7376C57.5354 69.6001 57.4679 69.4751 57.388 69.3576C57.3667 69.3276 57.3455 69.3001 57.3217 69.2713C57.228 69.1588 57.1217 69.0551 56.9905 68.9801L45.6244 62.4176C45.2381 62.1938 44.7606 62.1938 44.3744 62.4176L33.0083 68.9801C32.8783 69.0563 32.772 69.1588 32.677 69.2713C32.6533 69.2988 32.632 69.3263 32.6108 69.3576C32.5308 69.4738 32.4633 69.5988 32.4258 69.7376C32.4245 69.7413 32.4258 69.7451 32.4245 69.7488C32.3983 69.8501 32.3833 69.9551 32.3833 70.0626V71.2851L25.2321 67.1551V54.7501C25.2321 54.6426 25.2159 54.5376 25.1909 54.4376C25.1896 54.4339 25.1896 54.4289 25.1896 54.4251C25.1522 54.2876 25.0847 54.1626 25.0047 54.0451C24.9834 54.0151 24.9622 53.9876 24.9384 53.9589C24.8447 53.8464 24.7384 53.7439 24.6072 53.6676L13.8636 47.4652V44.5352L23.9834 38.6927L32.3833 43.5427V52.5626C32.3833 53.0089 32.622 53.4226 33.0083 53.6451ZM44.9994 3.69405L53.8655 8.81279L44.9994 13.9315L36.1332 8.81279L44.9994 3.69405ZM34.8833 10.9778L43.7494 16.0978V26.3352L34.8833 21.2165V10.9778ZM46.2494 26.3352V16.0978L55.1155 10.9778V19.7715L51.308 17.574C50.7105 17.229 49.9456 17.4328 49.6006 18.0315C49.2556 18.6303 49.4606 19.394 50.0581 19.739L53.8668 21.9377L46.2494 26.3352ZM87.4988 36.5289L78.6301 41.6489L78.6327 31.4102L87.4988 26.2902V36.5289ZM77.3827 19.0065L86.2488 24.1252L77.3827 29.244L68.5153 24.1252L77.3827 19.0065ZM67.2653 26.2902L76.1327 31.4102L76.1302 41.6464L68.5153 37.2502L72.3227 35.0514C72.9215 34.7064 73.1265 33.9414 72.7802 33.3439C72.434 32.7465 71.6678 32.5415 71.0728 32.8864L67.2653 35.0852V26.2902ZM87.4988 67.1538L78.6301 72.2738L78.6327 62.0351L87.4988 56.9151V67.1538ZM77.3827 49.6314L86.2488 54.7501L77.3827 59.8689L68.5153 54.7501L77.3827 49.6314ZM67.2653 56.9151L76.1327 62.0351L76.1302 72.2713L68.5153 67.8751L72.3227 65.6776C72.9215 65.3326 73.1265 64.5676 72.7802 63.9701C72.434 63.3713 71.6665 63.1676 71.0728 63.5126L67.2666 65.7101L67.2653 56.9151ZM34.8833 72.2276L43.7494 77.3475V87.585L34.8833 82.4663V72.2276ZM55.1155 82.4663L46.2494 87.585V77.3475L55.1155 72.2276V82.4663ZM44.9994 64.9438L53.8655 70.0626L44.9994 75.1813L36.1332 70.0626L44.9994 64.9438ZM12.6161 19.0065L21.4835 24.1252L12.6161 29.244L3.74995 24.1252L12.6161 19.0065ZM2.49997 26.2902L11.3661 31.4102L11.3648 41.6477L2.49997 36.5289V26.2902ZM2.49997 56.9151L11.3661 62.0351L11.3648 72.2726L2.49997 67.1538V56.9151ZM18.926 63.5113C18.3285 63.1638 17.5635 63.3701 17.2185 63.9688C16.8735 64.5663 17.0785 65.3313 17.676 65.6763L21.4835 67.8751L13.8648 72.2738L13.8661 62.0351L22.7334 56.9151V65.7113L18.926 63.5113ZM21.4835 54.7501L12.6161 59.8689L3.74995 54.7501L11.3648 50.3539V54.7501C11.3648 55.4401 11.9236 56.0001 12.6148 56.0001C13.3061 56.0001 13.8648 55.4401 13.8648 54.7501V50.3514L21.4835 54.7501ZM13.8648 41.6489L13.8661 31.4102L22.7334 26.2902V35.0839L18.926 32.8864C18.3285 32.5415 17.5635 32.7465 17.2185 33.3439C16.8735 33.9414 17.0785 34.7064 17.676 35.0514L21.4847 37.2502L13.8648 41.6489ZM34.8833 41.6027L43.7494 46.7227V56.9601L34.8833 51.8414V41.6027ZM55.1155 51.8414L46.2494 56.9601V46.7227L55.1155 41.6027V51.8414ZM44.9994 34.3189L53.8655 39.4377L44.9994 44.5564L36.1332 39.4377L44.9994 34.3189Z" fill="#1A53F6" stroke="#1A53F6" stroke-width="0.5"></path></g></svg> 