<?xml version="1.0" encoding="UTF-8"?> <svg xmlns="http://www.w3.org/2000/svg" xmlns:xlink="http://www.w3.org/1999/xlink" width="90" height="90" viewBox="0 0 90 90"><defs><clipPath id="clip-path"><rect id="Rectangle_7" data-name="Rectangle 7" width="90" height="90" transform="translate(267 282)" fill="#fff" stroke="#707070" stroke-width="1"></rect></clipPath></defs><g id="Mask_Group_7" data-name="Mask Group 7" transform="translate(-267 -282)" clip-path="url(#clip-path)"><g id="Group_19" data-name="Group 19" transform="translate(-146.782 -143.622)"><g id="Group_18" data-name="Group 18" transform="translate(425.782 432.622)"><g id="Group_7" data-name="Group 7" transform="translate(0 21.249)"><path id="Path_13" data-name="Path 13" d="M98.735,170.836H39.942a3.544,3.544,0,0,1-3.542-3.542V131.042a3.544,3.544,0,0,1,3.542-3.542H51.456a.872.872,0,1,1,0,1.745H39.942a1.794,1.794,0,0,0-1.8,1.8v36.253a1.794,1.794,0,0,0,1.8,1.8H98.735a1.794,1.794,0,0,0,1.8-1.8V131.042a1.794,1.794,0,0,0-1.8-1.8H88.215a.872.872,0,1,1,0-1.745h10.52a3.544,3.544,0,0,1,3.542,3.542v36.253A3.544,3.544,0,0,1,98.735,170.836Z" transform="translate(-36.4 -127.5)" fill="#1c54f8"></path></g><g id="Group_8" data-name="Group 8" transform="translate(4.519 25.768)"><path id="Path_14" data-name="Path 14" d="M118.285,187.717H63.172a.864.864,0,0,1-.872-.872V154.272a.864.864,0,0,1,.872-.872h8.671a.872.872,0,0,1,0,1.745h-7.8v30.827h53.35V155.145h-7.8a.872.872,0,0,1,0-1.745h8.671a.864.864,0,0,1,.872.872v32.572A.849.849,0,0,1,118.285,187.717Z" transform="translate(-62.3 -153.4)" fill="#1c54f8"></path></g><g id="Group_9" data-name="Group 9" transform="translate(25.82 62.841)"><path id="Path_15" data-name="Path 15" d="M185.272,375.635a.864.864,0,0,1-.872-.872v-7.99a.872.872,0,1,1,1.745,0v7.99A.864.864,0,0,1,185.272,375.635Z" transform="translate(-184.4 -365.9)" fill="#1c54f8"></path></g><g id="Group_10" data-name="Group 10" transform="translate(38.329 62.841)"><path id="Path_16" data-name="Path 16" d="M256.972,375.635a.864.864,0,0,1-.872-.872v-7.99a.872.872,0,1,1,1.745,0v7.99A.875.875,0,0,1,256.972,375.635Z" transform="translate(-256.1 -365.9)" fill="#1c54f8"></path></g><g id="Group_11" data-name="Group 11" transform="translate(16.923 70.849)"><path id="Path_17" data-name="Path 17" d="M164.576,417.732h-30.3a.864.864,0,0,1-.872-.872v-2.094a2.963,2.963,0,0,1,2.966-2.966h26.117a2.963,2.963,0,0,1,2.966,2.966v2.094A.875.875,0,0,1,164.576,417.732Zm-29.432-1.745h28.577v-1.221a1.225,1.225,0,0,0-1.221-1.221H136.366a1.225,1.225,0,0,0-1.221,1.221v1.221Z" transform="translate(-133.4 -411.8)" fill="#1c54f8"></path></g><g id="Group_12" data-name="Group 12" transform="translate(16.016 0)"><path id="Path_18" data-name="Path 18" d="M158.434,61.266H131.829a3.637,3.637,0,0,1-3.629-3.629V9.329A3.637,3.637,0,0,1,131.829,5.7h26.623a3.637,3.637,0,0,1,3.629,3.629V57.62A3.645,3.645,0,0,1,158.434,61.266ZM131.829,7.445a1.887,1.887,0,0,0-1.884,1.884V57.62a1.887,1.887,0,0,0,1.884,1.884h26.623a1.887,1.887,0,0,0,1.884-1.884V9.329a1.887,1.887,0,0,0-1.884-1.884Z" transform="translate(-128.2 -5.7)" fill="#1c54f8"></path></g><g id="Group_13" data-name="Group 13" transform="translate(21.965 3.716)"><path id="Path_19" data-name="Path 19" d="M182.084,31.362h-17.6a2.181,2.181,0,0,1,0-4.362h17.6a2.181,2.181,0,0,1,0,4.362Zm-17.6-2.617a.436.436,0,1,0,0,.872h17.6a.436.436,0,1,0,0-.872Z" transform="translate(-162.3 -27)" fill="#1c54f8"></path></g><g id="Group_14" data-name="Group 14" transform="translate(27.722 46.808)"><path id="Path_20" data-name="Path 20" d="M203.587,278.362h-6.106a2.181,2.181,0,1,1,0-4.362h6.106a2.181,2.181,0,1,1,0,4.362Zm-6.106-2.617a.436.436,0,0,0,0,.872h6.106a.436.436,0,0,0,0-.872Z" transform="translate(-195.3 -274)" fill="#1c54f8"></path></g><g id="Group_15" data-name="Group 15" transform="translate(48.151 11.357)"><path id="Path_21" data-name="Path 21" d="M314.668,88.961h-1.4a.872.872,0,1,1,0-1.745h1.4a.537.537,0,0,0,.523-.523V73.068a.537.537,0,0,0-.523-.523h-1.4a.872.872,0,1,1,0-1.745h1.4a2.263,2.263,0,0,1,2.268,2.268V86.711A2.249,2.249,0,0,1,314.668,88.961Z" transform="translate(-312.4 -70.8)" fill="#1c54f8"></path></g><g id="Group_16" data-name="Group 16" transform="translate(13.207 21.197)"><path id="Path_22" data-name="Path 22" d="M115.764,135.522h-1.4a2.263,2.263,0,0,1-2.268-2.268v-3.786a2.263,2.263,0,0,1,2.268-2.268h1.4a.872.872,0,1,1,0,1.745h-1.4a.537.537,0,0,0-.523.523v3.786a.537.537,0,0,0,.523.523h1.4a.872.872,0,1,1,0,1.745Z" transform="translate(-112.1 -127.2)" fill="#1c54f8"></path></g><g id="Group_17" data-name="Group 17" transform="translate(13.207 11.357)"><path id="Path_23" data-name="Path 23" d="M115.764,79.122h-1.4a2.263,2.263,0,0,1-2.268-2.268V73.068a2.263,2.263,0,0,1,2.268-2.268h1.4a.872.872,0,0,1,0,1.745h-1.4a.537.537,0,0,0-.523.523v3.786a.537.537,0,0,0,.523.523h1.4a.872.872,0,0,1,0,1.745Z" transform="translate(-112.1 -70.8)" fill="#1c54f8"></path></g></g></g></g></svg> 