<?xml version="1.0" encoding="UTF-8"?> <svg xmlns="http://www.w3.org/2000/svg" xmlns:xlink="http://www.w3.org/1999/xlink" width="90" height="90" viewBox="0 0 90 90"><defs><clipPath id="clip-path"><rect id="Rectangle_31" data-name="Rectangle 31" width="90" height="90" transform="translate(61 1727)" fill="#fff"></rect></clipPath></defs><g id="Mask_Group_9" data-name="Mask Group 9" transform="translate(-61 -1727)" clip-path="url(#clip-path)"><g id="Group_245" data-name="Group 245" transform="translate(67 1733)"><path id="Path_144" data-name="Path 144" d="M157.554,82.365V44.743a3.822,3.822,0,0,0-3.892-3.892h-6.487V17.5H105.662V40.851H99.176a3.822,3.822,0,0,0-3.892,3.892V82.365H87.5v6.487a6.424,6.424,0,0,0,6.487,6.487h64.865a6.424,6.424,0,0,0,6.487-6.487V82.365ZM147.176,71.987V48.635h2.595V74.581h-46.7V48.635h2.595V71.987ZM108.257,20.095h36.325v49.3H108.257ZM97.878,44.743a1.226,1.226,0,0,1,1.3-1.3h6.487v2.595h-5.189V77.176h51.892V46.041h-5.189V43.446h6.487a1.226,1.226,0,0,1,1.3,1.3V82.365H97.878ZM119.933,84.96h12.973v1.3a1.226,1.226,0,0,1-1.3,1.3H121.23a1.226,1.226,0,0,1-1.3-1.3Zm42.811,3.892a3.822,3.822,0,0,1-3.892,3.892H93.987a3.822,3.822,0,0,1-3.892-3.892V84.96h27.243v1.3a3.822,3.822,0,0,0,3.892,3.892h10.378a3.822,3.822,0,0,0,3.892-3.892v-1.3h27.243Z" transform="translate(-87.5 -17.5)" fill="#1b54f8" stroke="#fff" stroke-width="0.4"></path><path id="Path_145" data-name="Path 145" d="M258.26,143.5l-7.135,8.562,7.135,8.562,2.076-1.557-5.838-7.005,5.838-7.005Z" transform="translate(-226.865 -124.819)" fill="#1b54f8" stroke="#fff" stroke-width="0.4"></path><path id="Path_146" data-name="Path 146" d="M386.75,145.057l5.838,7.005-5.838,7.005,2.076,1.557,7.135-8.562-7.135-8.562Z" transform="translate(-342.382 -124.819)" fill="#1b54f8" stroke="#fff" stroke-width="0.4"></path><path id="Path_147" data-name="Path 147" d="M335.295,156.988l-2.569-.367,2.59-18.107,2.569.367Z" transform="translate(-296.368 -120.572)" fill="#1b54f8" stroke="#fff" stroke-width="0.4"></path></g></g></svg> 