<?xml version="1.0" encoding="UTF-8"?> <svg xmlns="http://www.w3.org/2000/svg" width="90" height="90" viewBox="0 0 90 90" fill="none"><mask id="mask0_6_188" style="mask-type:luminance" maskUnits="userSpaceOnUse" x="0" y="0" width="90" height="90"><path d="M90 0H0V90H90V0Z" fill="white"></path></mask><g mask="url(#mask0_6_188)"><path d="M28.52 55.1L25.98 59.8H24.08C23.45 57.53 21.37 55.86 18.9 55.86C15.93 55.86 13.52 58.27 13.52 61.24C13.52 64.21 15.93 66.62 18.9 66.62C21.37 66.62 23.45 64.95 24.08 62.68H26.84C27.37 62.68 27.85 62.39 28.11 61.92L30.65 57.22H33.97L33.25 58.84C33.01 59.38 33.13 60.02 33.55 60.44L38.2 65.09C38.62 65.51 39.26 65.63 39.8 65.39L43.07 63.94C44.67 64.85 46.38 65.56 48.16 66.05L49.44 69.38C49.65 69.93 50.19 70.3 50.78 70.3H57.35C57.94 70.3 58.48 69.93 58.69 69.38L59.97 66.05C61.75 65.56 63.45 64.85 65.06 63.94L68.33 65.39C68.87 65.63 69.51 65.51 69.93 65.09L74.58 60.44C75 60.02 75.12 59.38 74.88 58.84L73.43 55.57C74.34 53.96 75.05 52.26 75.54 50.48L78.87 49.2C79.42 48.99 79.79 48.45 79.79 47.86V41.29C79.79 40.7 79.42 40.16 78.87 39.95L75.54 38.67C75.05 36.89 74.34 35.19 73.43 33.58L74.88 30.31C75.12 29.77 75 29.13 74.58 28.71L69.93 24.06C69.51 23.64 68.87 23.52 68.33 23.76L65.06 25.21C63.45 24.3 61.75 23.59 59.97 23.1L58.69 19.77C58.48 19.22 57.94 18.85 57.35 18.85H50.78C50.19 18.85 49.65 19.22 49.44 19.77L48.16 23.1C46.38 23.59 44.68 24.3 43.07 25.21L39.8 23.76C39.26 23.52 38.62 23.64 38.2 24.06L33.55 28.71C33.13 29.13 33.01 29.77 33.25 30.31L33.97 31.93H30.65L28.11 27.23C27.86 26.76 27.37 26.47 26.84 26.47H24.08C23.45 24.2 21.37 22.53 18.9 22.53C15.93 22.53 13.52 24.94 13.52 27.91C13.52 30.88 15.93 33.29 18.9 33.29C21.37 33.29 23.45 31.62 24.08 29.35H25.98L28.52 34.05C28.77 34.52 29.26 34.81 29.79 34.81H34.05C33.44 36.05 32.95 37.34 32.59 38.67L29.26 39.95C28.71 40.16 28.34 40.7 28.34 41.29V43.14H19.55C18.92 40.87 16.84 39.2 14.37 39.2C11.4 39.2 8.99 41.61 8.99 44.58C8.99 47.55 11.4 49.96 14.37 49.96C16.84 49.96 18.92 48.29 19.55 46.02H28.34V47.87C28.34 48.46 28.71 49 29.26 49.21L32.59 50.49C32.96 51.82 33.45 53.11 34.05 54.35H29.79C29.26 54.35 28.78 54.64 28.53 55.11L28.52 55.1ZM18.9 63.75C17.52 63.75 16.39 62.63 16.39 61.24C16.39 59.85 17.51 58.73 18.9 58.73C20.29 58.73 21.41 59.85 21.41 61.24C21.41 62.63 20.29 63.75 18.9 63.75ZM18.9 30.41C17.52 30.41 16.39 29.29 16.39 27.9C16.39 26.51 17.51 25.39 18.9 25.39C20.29 25.39 21.41 26.51 21.41 27.9C21.41 29.29 20.29 30.41 18.9 30.41ZM14.36 47.08C12.98 47.08 11.85 45.96 11.85 44.57C11.85 43.18 12.97 42.06 14.36 42.06C15.75 42.06 16.87 43.18 16.87 44.57C16.87 45.96 15.75 47.08 14.36 47.08ZM31.21 46.87V42.27L34.31 41.08C34.75 40.91 35.08 40.53 35.19 40.07C35.66 38.07 36.45 36.17 37.53 34.42C37.78 34.02 37.81 33.52 37.62 33.08L36.27 30.04L39.52 26.79L42.56 28.14C42.99 28.33 43.49 28.3 43.9 28.05C45.65 26.97 47.55 26.18 49.55 25.71C50.01 25.6 50.39 25.27 50.56 24.83L51.75 21.73H56.35L57.54 24.83C57.71 25.27 58.09 25.6 58.55 25.71C60.55 26.19 62.45 26.97 64.2 28.05C64.6 28.3 65.1 28.33 65.54 28.14L68.58 26.79L71.83 30.04L70.48 33.08C70.29 33.51 70.32 34.01 70.57 34.42C71.65 36.17 72.44 38.07 72.91 40.07C73.02 40.53 73.35 40.91 73.79 41.08L76.89 42.27V46.87L73.79 48.06C73.35 48.23 73.02 48.61 72.91 49.07C72.44 51.07 71.65 52.97 70.57 54.72C70.32 55.12 70.29 55.62 70.48 56.06L71.83 59.1L68.58 62.35L65.54 61C65.11 60.81 64.61 60.84 64.2 61.09C62.45 62.17 60.55 62.96 58.55 63.43C58.09 63.54 57.71 63.87 57.54 64.31L56.35 67.41H51.75L50.56 64.31C50.39 63.87 50.01 63.54 49.55 63.43C47.55 62.95 45.65 62.17 43.9 61.09C43.5 60.84 43 60.81 42.56 61L39.52 62.35L36.27 59.1L37.62 56.06C37.81 55.63 37.78 55.13 37.53 54.72C36.45 52.97 35.66 51.07 35.19 49.07C35.08 48.61 34.75 48.23 34.31 48.06L31.2 46.87H31.21ZM54.06 58.48C61.73 58.48 67.97 52.24 67.97 44.57C67.97 36.9 61.73 30.66 54.06 30.66C46.39 30.66 40.15 36.9 40.15 44.57C40.15 52.24 46.39 58.48 54.06 58.48ZM54.06 33.54C60.14 33.54 65.09 38.49 65.09 44.57C65.09 50.65 60.14 55.6 54.06 55.6C47.98 55.6 43.03 50.65 43.03 44.57C43.03 38.49 47.98 33.54 54.06 33.54ZM8.33 65.51C8.73 66.2 8.5 67.08 7.81 67.48C7.58 67.61 7.33 67.68 7.09 67.68C6.59 67.68 6.11 67.42 5.85 66.97C1.06 58.74 -0.939998 49.38 0.0600019 39.9C1.31 28.06 7.09 17.42 16.34 9.93C25.59 2.44 37.21 -1 49.05 0.249999C56.94 1.08 64.37 3.95 70.7 8.6L69.77 5.35C69.55 4.59 69.99 3.79 70.76 3.57C71.52 3.35 72.32 3.79 72.54 4.56L74.72 12.21C74.84 12.63 74.76 13.09 74.5 13.45C74.24 13.81 73.83 14.03 73.39 14.04L65.44 14.33C65.44 14.33 65.4 14.33 65.39 14.33C64.62 14.33 63.98 13.72 63.95 12.94C63.92 12.15 64.54 11.48 65.33 11.45L69.51 11.3C63.47 6.72 56.34 3.9 48.74 3.1C37.67 1.93 26.8 5.15 18.14 12.16C9.49 19.17 4.08 29.12 2.91 40.2C1.98 49.07 3.85 57.82 8.32 65.51H8.33ZM88.7 49.23C87.45 61.07 81.67 71.71 72.42 79.2C64.41 85.68 54.63 89.13 44.46 89.13C42.88 89.13 41.3 89.05 39.71 88.88C31.82 88.05 24.39 85.17 18.06 80.53L18.99 83.78C19.21 84.54 18.77 85.34 18 85.56C17.87 85.6 17.74 85.62 17.6 85.62C16.97 85.62 16.4 85.21 16.22 84.58L14.04 76.93C13.92 76.51 14 76.05 14.26 75.69C14.52 75.33 14.93 75.11 15.37 75.1L23.32 74.81C24.11 74.78 24.78 75.4 24.81 76.19C24.84 76.98 24.22 77.65 23.43 77.68L19.25 77.83C25.29 82.4 32.43 85.23 40.02 86.03C51.09 87.2 61.96 83.98 70.62 76.97C79.27 69.96 84.68 60.01 85.85 48.93C86.78 40.06 84.91 31.31 80.44 23.62C80.04 22.93 80.27 22.05 80.96 21.65C81.65 21.25 82.53 21.48 82.93 22.17C87.72 30.39 89.72 39.74 88.72 49.22L88.7 49.23Z" fill="#1B54F8"></path></g></svg> 