<?xml version="1.0" encoding="UTF-8"?> <svg xmlns="http://www.w3.org/2000/svg" xmlns:xlink="http://www.w3.org/1999/xlink" id="eoAn60h8qVb1" viewBox="0 0 80 80" shape-rendering="geometricPrecision" text-rendering="geometricPrecision"><style><![CDATA[#eoAn60h8qVb1{pointer-events: all}#eoAn60h8qVb1:hover #eoAn60h8qVb3_ts {animation: eoAn60h8qVb3_ts__ts 1000ms linear 1 normal forwards}@keyframes eoAn60h8qVb3_ts__ts { 0% {transform: translate(40.050001px,40.049999px) scale(1,1);animation-timing-function: cubic-bezier(0.42,0,0.58,1)} 50% {transform: translate(40.050001px,40.049999px) scale(0,0);animation-timing-function: cubic-bezier(0.42,0,0.58,1)} 100% {transform: translate(40.050001px,40.049999px) scale(1,1)}}]]></style><path id="eoAn60h8qVb2" d="M76.3,2.5C77,2.5,77.5,3.1,77.5,3.7L77.5,76.2C77.5,76.9,76.9,77.4,76.3,77.4L3.7,77.4C3,77.4,2.5,76.8,2.5,76.2L2.5,3.7C2.5,3,3.1,2.5,3.7,2.5L76.3,2.5M76.3,0.5L3.7,0.5C2,0.5,0.5,2,0.5,3.7L0.5,76.2C0.5,78,2,79.4,3.7,79.4L76.2,79.4C78,79.4,79.4,77.9,79.4,76.2L79.4,3.7C79.5,2,78,0.5,76.3,0.5L76.3,0.5Z" transform="matrix(1 0 0 1 0 0.05)" fill="rgb(27,84,248)" stroke="none" stroke-width="1"></path><g id="eoAn60h8qVb3_ts" transform="translate(40.050001,40.049999) scale(1,1)"><g id="eoAn60h8qVb3" transform="translate(-40.05,-40.049999)"><path id="eoAn60h8qVb4" d="M45.4,17.5C41.8,16.6,38.1,16.6,34.6,17.5" fill="none" stroke="rgb(27,84,248)" stroke-width="2" stroke-miterlimit="10"></path><path id="eoAn60h8qVb5" d="M16.9,38.7C16.9,39.1,16.9,39.5,16.9,40C16.9,47.2,20.2,54,26,58.4" fill="none" stroke="rgb(27,84,248)" stroke-width="2" stroke-miterlimit="10"></path><path id="eoAn60h8qVb6" d="M54,58.4C59.8,54,63.1,47.2,63.1,40C63.1,39.6,63.1,39.2,63.1,38.7" fill="none" stroke="rgb(27,84,248)" stroke-width="2" stroke-miterlimit="10"></path><circle id="eoAn60h8qVb7" r="6.5" transform="matrix(1 0 0 1 40 48.7)" fill="none" stroke="rgb(27,84,248)" stroke-width="2" stroke-miterlimit="10"></circle><path id="eoAn60h8qVb8" d="M31.3,55.5C29.9,57.5,29.1,61.4,29.1,64C29.1,67.2,32.3,69.6,35.2,69.6L45,69.6C48.1,69.6,50.8,67.2,51,64.1L51,63.8C51,61,50.2,58.2,48.9,55.7" fill="none" stroke="rgb(27,84,248)" stroke-width="2" stroke-miterlimit="10"></path><path id="eoAn60h8qVb9" d="M24.1,23.5C27.7,23.5,30.6,20.6,30.6,17C30.6,13.4,27.7,10.5,24.1,10.5C20.5,10.5,17.6,13.4,17.6,17C17.6,17,17.6,17,17.6,17C17.6,20.6,20.5,23.5,24.1,23.5Z" fill="none" stroke="rgb(27,84,248)" stroke-width="2" stroke-miterlimit="10"></path><path id="eoAn60h8qVb10" d="M15.4,23.8C14,25.8,13.2,29.7,13.2,32.3C13.2,35.5,16.4,37.8,19.3,37.8L29.1,37.8C32.2,37.8,34.9,35.4,35,32.3L35,32C35,29.2,34.2,26.4,32.9,23.9" fill="none" stroke="rgb(27,84,248)" stroke-width="2" stroke-miterlimit="10"></path><path id="eoAn60h8qVb11" d="M55.9,23.5C59.5,23.5,62.4,20.6,62.4,17C62.4,13.4,59.5,10.5,55.9,10.5C52.3,10.5,49.4,13.4,49.4,17C49.4,17,49.4,17,49.4,17C49.4,20.6,52.3,23.5,55.9,23.5Z" fill="none" stroke="rgb(27,84,248)" stroke-width="2" stroke-miterlimit="10"></path><path id="eoAn60h8qVb12" d="M47.2,23.7C45.8,25.7,45,29.6,45,32.2C45,35.4,48.2,37.7,51.1,37.7L60.9,37.7C64,37.7,66.7,35.3,66.9,32.2L66.9,31.9C66.9,29.1,66.1,26.3,64.8,23.8" fill="none" stroke="rgb(27,84,248)" stroke-width="2" stroke-miterlimit="10"></path></g></g></svg> 