<?xml version="1.0" encoding="UTF-8"?> <svg xmlns="http://www.w3.org/2000/svg" xmlns:xlink="http://www.w3.org/1999/xlink" id="Group_29" data-name="Group 29" width="365" height="250" viewBox="0 0 365 250"><defs><clipPath id="clip-path"><rect id="Rectangle_67" data-name="Rectangle 67" width="365" height="250" fill="#fff"></rect></clipPath><clipPath id="clip-path-2"><rect id="Rectangle_66" data-name="Rectangle 66" width="444" height="250" fill="#fff"></rect></clipPath><linearGradient id="linear-gradient" x1="0.5" x2="0.5" y2="1" gradientUnits="objectBoundingBox"><stop offset="0" stop-color="#0c2b50"></stop><stop offset="1" stop-color="#031c34"></stop></linearGradient></defs><g id="Mask_Group_2" data-name="Mask Group 2" clip-path="url(#clip-path)"><g id="Mask_Group_1" data-name="Mask Group 1" clip-path="url(#clip-path-2)"><g id="Group_3" data-name="Group 3"><rect id="Rectangle_52" data-name="Rectangle 52" width="444" height="250" fill="url(#linear-gradient)"></rect></g><path id="Polygon_2" data-name="Polygon 2" d="M45,0,90,37H0Z" transform="translate(341 64) rotate(-90)" fill="#113b71" opacity="0.497"></path><g id="Polygon_3" data-name="Polygon 3" transform="translate(325 64) rotate(-90)" fill="none"><path d="M45,0,90,37H0Z" stroke="none"></path><path d="M 45 1.29461669921875 L 2.790748596191406 36 L 87.20925140380859 36 L 45 1.29461669921875 M 45 0 L 90 37 L 0 37 L 45 0 Z" stroke="none" fill="#0e325f"></path></g><g id="Polygon_4" data-name="Polygon 4" transform="translate(34 206) rotate(90)" fill="none"><path d="M52,0l52,42H0Z" stroke="none"></path><path d="M 52 1.285449981689453 L 2.829605102539062 41 L 101.1703948974609 41 L 52 1.285449981689453 M 52 0 L 104 42 L 0 42 L 52 0 Z" stroke="none" fill="#0e325f"></path></g><path id="Polygon_1" data-name="Polygon 1" d="M45,0,90,37H0Z" transform="translate(21 202) rotate(90)" fill="#113b71" opacity="0.497"></path></g></g><path id="Path_17" data-name="Path 17" d="M1250,58l113.282,66.353" transform="translate(-1180)" fill="none" stroke="#acacac" stroke-width="1"></path><path id="Path_20" data-name="Path 20" d="M1250,124.353,1363.282,58" transform="translate(-1180 67)" fill="none" stroke="#acacac" stroke-width="1"></path><path id="Path_18" data-name="Path 18" d="M1363.282,58,1250,124.353" transform="translate(-1067.5)" fill="none" stroke="#707070" stroke-width="1"></path><path id="Path_19" data-name="Path 19" d="M1363.282,124.353,1250,58" transform="translate(-1067.5 67)" fill="none" stroke="#acacac" stroke-width="1"></path><g id="Group_25" data-name="Group 25" transform="translate(23 38)"><rect id="Rectangle_53" data-name="Rectangle 53" width="60" height="60" rx="4" transform="translate(17 12)" fill="#103b71"></rect><g id="Group_20" data-name="Group 20" transform="translate(31 -755)"><g id="Group_17" data-name="Group 17" transform="translate(-4 778)"><path id="Path_13" data-name="Path 13" d="M26.6,25.236a7.805,7.805,0,0,0-2.848-.543,7.526,7.526,0,0,0-1.939.249,7.719,7.719,0,0,0-4.574,3.305,7.719,7.719,0,0,0,4.574,3.305c.173.046.345.081.518.117l.1.015q.213.038.426.061l.122.015.406.03c.046,0,.1,0,.147.005H23.9c.066,0,.127-.005.193-.005.1-.005.2-.01.3-.02.086-.005.173-.015.259-.025.066-.005.132-.015.2-.025.107-.015.218-.03.325-.051a1.038,1.038,0,0,1,.122-.025c.122-.025.249-.056.371-.086.066-.015.132-.036.2-.056.081-.025.162-.046.244-.071a.073.073,0,0,1,.03-.01c.178-.061.355-.127.528-.2.076-.03.152-.061.228-.1.041-.015.076-.036.112-.051.061-.03.122-.056.178-.086.091-.041.183-.086.269-.132l.081-.051c.107-.061.213-.122.315-.183a.107.107,0,0,0,.03-.02c.112-.071.223-.142.33-.223.005,0,.005,0,.01-.005.046-.03.086-.061.127-.091.091-.066.183-.137.274-.208l.112-.1q.122-.1.244-.213c.015-.01.03-.025.046-.036l.193-.193.046-.046c.071-.071.137-.142.2-.213.036-.041.066-.076.1-.112.051-.061.1-.122.152-.188.081-.1.157-.193.234-.289l.183-.259c.041-.066.081-.127.122-.188A7.756,7.756,0,0,0,26.6,25.236Zm-2.848,5.042a2.031,2.031,0,1,1,2.031-2.031A2.03,2.03,0,0,1,23.754,30.278Zm0-3.046a1.015,1.015,0,1,0,1.015,1.015A1.018,1.018,0,0,0,23.754,27.231Zm7.392,1.523c-.02.036-.046.066-.066.1l-.162.239-.117.162c-.041.051-.076.107-.117.157-.061.081-.127.157-.193.239l-.168.2c-.112.132-.234.254-.355.376-.025.025-.046.051-.071.076s-.066.066-.1.1c-.086.081-.178.157-.269.239a1.028,1.028,0,0,0-.081.071c-.076.061-.142.127-.218.188-.046.041-.1.071-.147.112a.106.106,0,0,0-.03.02.214.214,0,0,1-.036.025c-.127.1-.259.2-.4.289-.081.051-.162.1-.239.147-.137.081-.274.168-.411.244l-.274.137c-.005.005-.015.005-.02.01l-.1.051-.294.137c-.066.025-.127.056-.188.081s-.107.036-.157.056l-.178.076v4.595H32.35V28.754ZM22.2,12V23.819A.775.775,0,0,1,22.3,23.8c.183-.03.371-.056.558-.076.066-.01.132-.015.193-.02q.35-.03.7-.03a8.766,8.766,0,0,1,7.387,4.062h1.716a.509.509,0,0,1,.508.508v9.139a.509.509,0,0,1-.508.508h-6.6a.509.509,0,0,1-.508-.508v-4.8c-.066.015-.132.025-.193.036s-.132.03-.2.041c-.127.025-.259.046-.391.066l-.269.03c-.107.01-.213.025-.32.03-.208.015-.416.025-.624.025q-.35,0-.7-.03c-.061-.005-.127-.015-.193-.02-.188-.02-.371-.046-.553-.076a.742.742,0,0,1-.112-.015V50.586H53.673V12Zm2.066,8.631a.508.508,0,0,1-1.015,0V18.6a.508.508,0,1,1,1.015,0Zm5.575.112-1.193,1.64a.508.508,0,0,1-.411.208.505.505,0,0,1-.411-.8l1.193-1.645a.509.509,0,1,1,.822.6Zm3.249,5.006-1.929.63A.6.6,0,0,1,31,26.4a.51.51,0,0,1-.157-1l1.929-.624a.507.507,0,1,1,.315.965ZM49.612,47.032H31.842a.508.508,0,0,1,0-1.015h17.77a.508.508,0,0,1,0,1.015Zm0-4.737H31.842a.508.508,0,0,1,0-1.015h17.77a.508.508,0,0,1,0,1.015Zm0-4.742H36.919a.508.508,0,1,1,0-1.015H49.612a.508.508,0,0,1,0,1.015Zm0-4.737H36.919a.508.508,0,0,1,0-1.015H49.612a.508.508,0,1,1,0,1.015Zm0-4.737H36.919a.508.508,0,0,1,0-1.015H49.612a.508.508,0,0,1,0,1.015Zm0-4.742H36.919a.508.508,0,0,1,0-1.015H49.612a.508.508,0,0,1,0,1.015Zm0-4.737H31.842a.508.508,0,0,1,0-1.015h17.77a.508.508,0,0,1,0,1.015Zm2.539-2.031a.508.508,0,0,1-1.015,0V14.539H49.1a.508.508,0,1,1,0-1.015h2.539a.509.509,0,0,1,.508.508Z" transform="translate(-14.072 -12)" fill="#fff"></path><path id="Path_14" data-name="Path 14" d="M19.193,30.078a.508.508,0,0,0,.822-.6l-1.194-1.643a.508.508,0,1,0-.822.6Z" transform="translate(-14.398 -19.694)" fill="#fff"></path><path id="Path_15" data-name="Path 15" d="M13.439,38.772a.508.508,0,0,0,.157-.991l-1.931-.627a.508.508,0,1,0-.314.966l1.931.627A.51.51,0,0,0,13.439,38.772Z" transform="translate(-11 -24.371)" fill="#fff"></path></g></g></g><g id="Group_26" data-name="Group 26" transform="translate(22 3)"><rect id="Rectangle_54" data-name="Rectangle 54" width="60" height="60" rx="4" transform="translate(18 137)" fill="#103b71"></rect><g id="Group_18" data-name="Group 18" transform="translate(289.258 -648)"><path id="Path_3" data-name="Path 3" d="M19.445,7.2a1.467,1.467,0,0,0-1.472,0L7.984,12.9H2.475A1.475,1.475,0,0,0,1,14.377v8.852A1.475,1.475,0,0,0,2.475,24.7H7.984l9.988,5.707a1.475,1.475,0,0,0,2.207-1.281V8.476A1.477,1.477,0,0,0,19.445,7.2Z" transform="translate(-263.258 795.949)" fill="#fff"></path><path id="Path_4" data-name="Path 4" d="M16.552,11.326a1.475,1.475,0,0,0-.226,2.074,5.924,5.924,0,0,1,0,7,1.476,1.476,0,0,0,2.3,1.85,8.818,8.818,0,0,0,0-10.7A1.479,1.479,0,0,0,16.552,11.326Z" transform="translate(-256.128 797.851)" fill="#fff"></path><path id="Path_5" data-name="Path 5" d="M20.552,8.326a1.475,1.475,0,0,0-.226,2.074,13.238,13.238,0,0,1,0,15.854,1.476,1.476,0,0,0,2.3,1.85,16.328,16.328,0,0,0,0-19.554A1.479,1.479,0,0,0,20.552,8.326Z" transform="translate(-254.226 796.425)" fill="#fff"></path><path id="Path_6" data-name="Path 6" d="M26.625,5.55a1.476,1.476,0,0,0-2.3,1.85c5.477,6.812,5.477,17.895,0,24.706a1.476,1.476,0,0,0,2.3,1.85C32.922,26.124,32.922,13.383,26.625,5.55Z" transform="translate(-252.326 794.999)" fill="#fff"></path></g></g><g id="Group_27" data-name="Group 27" transform="translate(12 29)"><rect id="Rectangle_55" data-name="Rectangle 55" width="60" height="60" rx="4" transform="translate(253 21)" fill="#103b71"></rect><g id="Group_21" data-name="Group 21" transform="translate(306.709 -857)"><path id="Path_7" data-name="Path 7" d="M29.62,12.993a1.431,1.431,0,0,0,1.43,1.43H45.673a1.431,1.431,0,0,0,1.43-1.43V5.682a1.431,1.431,0,0,0-1.43-1.43H31.05a1.431,1.431,0,0,0-1.43,1.43v7.312Zm14.009-.367H33.094a.458.458,0,0,1,0-.916H43.629a.458.458,0,0,1,0,.916ZM33.972,9.338a.458.458,0,0,1,.458-.458h7.863a.458.458,0,1,1,0,.916H34.43A.458.458,0,0,1,33.972,9.338ZM32.583,6.05H44.139a.458.458,0,1,1,0,.916H32.583a.458.458,0,0,1,0-.916Z" transform="translate(-49.386 884.748)" fill="#fff"></path><rect id="Rectangle_65" data-name="Rectangle 65" width="10.405" height="0.916" transform="translate(-31.087 907.543)" fill="#fff"></rect><path id="Path_8" data-name="Path 8" d="M27.663,38.925H22.525V31.01a.458.458,0,0,0-.458-.458H17.258v.916h4.351v7.915a.458.458,0,0,0,.458.458h5.6Z" transform="translate(-48.345 882.533)" fill="#fff"></path><path id="Path_9" data-name="Path 9" d="M15,32.829V15.585H1.291V32.829Zm-12-14.74h10.3a.458.458,0,1,1,0,.916H2.994a.458.458,0,1,1,0-.916Zm0,2.83h10.3a.458.458,0,1,1,0,.916H2.994a.458.458,0,1,1,0-.916Zm0,2.831h10.3a.458.458,0,1,1,0,.916H2.994a.458.458,0,1,1,0-.916Zm0,2.831h10.3a.458.458,0,1,1,0,.916H2.994a.458.458,0,1,1,0-.916Zm0,2.831h10.3a.458.458,0,1,1,0,.916H2.994a.458.458,0,1,1,0-.916Z" transform="translate(-47 883.793)" fill="#fff"></path><path id="Path_10" data-name="Path 10" d="M47.1,36.072a1.431,1.431,0,0,0-1.43-1.43H31.05a1.431,1.431,0,0,0-1.43,1.43v7.311a1.431,1.431,0,0,0,1.43,1.43H45.673a1.431,1.431,0,0,0,1.43-1.43V36.072Zm-3.473,6.943H33.094a.458.458,0,0,1,0-.916H43.629a.458.458,0,0,1,0,.916Zm-9.657-3.288a.458.458,0,0,1,.458-.458h7.863a.458.458,0,1,1,0,.916H34.43A.457.457,0,0,1,33.972,39.727ZM44.14,37.355H32.583a.458.458,0,0,1,0-.916H44.139a.458.458,0,0,1,0,.916Z" transform="translate(-49.386 882.188)" fill="#fff"></path><path id="Path_11" data-name="Path 11" d="M47.1,20.877a1.431,1.431,0,0,0-1.43-1.429H31.05a1.431,1.431,0,0,0-1.43,1.429v7.312a1.431,1.431,0,0,0,1.43,1.43H45.673a1.431,1.431,0,0,0,1.43-1.43V20.877Zm-3.473,6.944H33.094a.458.458,0,1,1,0-.916H43.629a.458.458,0,1,1,0,.916Zm-9.657-3.289a.458.458,0,0,1,.458-.458h7.863a.458.458,0,1,1,0,.916H34.43A.458.458,0,0,1,33.972,24.532ZM44.14,22.16H32.583a.458.458,0,0,1,0-.916H44.139a.458.458,0,0,1,0,.916Z" transform="translate(-49.386 883.468)" fill="#fff"></path><path id="Path_12" data-name="Path 12" d="M17.258,18.594h4.81a.458.458,0,0,0,.458-.458V10.221h5.137V9.305h-5.6a.458.458,0,0,0-.458.458v7.915H17.258Z" transform="translate(-48.345 884.322)" fill="#fff"></path></g></g><g id="Group_28" data-name="Group 28" transform="translate(-7 10)"><rect id="Rectangle_56" data-name="Rectangle 56" width="60" height="60" rx="4" transform="translate(272 130)" fill="#103b71"></rect><g id="Group_19" data-name="Group 19" transform="translate(421.5 -659)"><path id="Path_16" data-name="Path 16" d="M40.039,7.777H7.193A4.692,4.692,0,0,0,2.5,12.47V40.625a4.692,4.692,0,0,0,4.693,4.693H40.039a4.692,4.692,0,0,0,4.693-4.693V12.47a4.692,4.692,0,0,0-4.693-4.693ZM21.856,10.71a1.759,1.759,0,1,1-1.244.515A1.76,1.76,0,0,1,21.856,10.71Zm-7.039,0a1.759,1.759,0,1,1-1.244.515A1.76,1.76,0,0,1,14.818,10.71Zm-7.039,0a1.759,1.759,0,1,1-1.244.515A1.76,1.76,0,0,1,7.779,10.71ZM42.386,38.279a4.7,4.7,0,0,1-4.693,4.692H9.539a4.7,4.7,0,0,1-4.693-4.692V17.163H42.387Zm-24.636,0a1.169,1.169,0,0,1-.83-.344L9.882,30.9a1.173,1.173,0,0,1,0-1.659l6.772-6.775h0a1.173,1.173,0,1,1,1.659,1.659l-5.943,5.946,6.209,6.209a1.173,1.173,0,0,1-.829,2Zm11.732,0h0a1.173,1.173,0,0,1-.829-2l6.209-6.209-5.943-5.946a1.173,1.173,0,1,1,1.659-1.659l6.772,6.775a1.173,1.173,0,0,1,0,1.659l-7.039,7.039a1.169,1.169,0,0,1-.83.344Z" transform="translate(-143 792.223)" fill="#fff"></path></g></g><g id="Group_24" data-name="Group 24" transform="translate(18 3)"><rect id="Rectangle_12" data-name="Rectangle 12" width="135" height="74" rx="11" transform="translate(97 85)" fill="#001d2d"></rect><text id="Generative_AI_use_cases" data-name="Generative AI use cases" transform="translate(165 119)" fill="#fff" font-size="16" font-family="Open Sans" font-weight="700"><tspan x="-44" y="0">Generative</tspan><tspan x="-49" y="19">AI Use Cases</tspan></text></g><text id="Visual_Content" data-name="Visual Content" transform="translate(75 38)" fill="#fff" font-size="14" font-family="Open Sans" font-weight="600"><tspan x="-49" y="0">Visual Content</tspan></text><text id="Audio_Generation" data-name="Audio Generation" transform="translate(70 223)" fill="#fff" font-size="14" font-family="Open Sans" font-weight="600"><tspan x="-59" y="0">Audio Generation</tspan></text><text id="Text_Generation" data-name="Text Generation" transform="translate(295 38)" fill="#fff" font-size="14" font-family="Open Sans" font-weight="600"><tspan x="-53" y="0">Text Generation</tspan></text><text id="Code_Generation" data-name="Code Generation" transform="translate(295 223)" fill="#fff" font-size="14" font-family="Open Sans" font-weight="600"><tspan x="-56" y="0">Code Generation</tspan></text></svg> 