<?xml version="1.0" encoding="UTF-8"?> <svg xmlns="http://www.w3.org/2000/svg" xmlns:xlink="http://www.w3.org/1999/xlink" width="90" height="90" viewBox="0 0 90 90"><defs><clipPath id="clip-path"><rect id="Rectangle_5" data-name="Rectangle 5" width="90" height="90" transform="translate(807 73)" fill="#fff" stroke="#707070" stroke-width="1"></rect></clipPath></defs><g id="Mask_Group_5" data-name="Mask Group 5" transform="translate(-807 -73)" clip-path="url(#clip-path)"><g id="Group_5" data-name="Group 5" transform="translate(33.977 -153.023)"><path id="Path_10" data-name="Path 10" d="M85.1,29.69H66.356V10.951A.951.951,0,0,0,65.406,10H30.641a.951.951,0,0,0-.951.951V29.69H10.951a.951.951,0,0,0-.951.951V65.406a.951.951,0,0,0,.951.951H29.69V85.1a.951.951,0,0,0,.951.951H65.406a.951.951,0,0,0,.951-.951V66.356H85.1a.951.951,0,0,0,.951-.951V30.641A.951.951,0,0,0,85.1,29.69Zm-.951,34.765H65.406a.951.951,0,0,0-.951.951v18.74H31.591V65.406a.951.951,0,0,0-.951-.951H11.9V31.591h18.74a.951.951,0,0,0,.951-.951V11.9H64.455v18.74a.951.951,0,0,0,.951.951h18.74Z" transform="translate(770 223)" fill="#1c54f8"></path><path id="Path_11" data-name="Path 11" d="M61.253,35.109c-4.491-1.825-9.172-.366-12.26,3.71-3.087-4.076-7.767-5.535-12.259-3.71-4.387,1.783-8.359,6.987-6.715,14.2C32.8,61.491,47.989,67.817,48.635,68.08a.95.95,0,0,0,.719,0c.645-.263,15.836-6.589,18.614-18.773C69.612,42.1,65.64,36.892,61.253,35.109ZM48.994,66.163c-2.03-.909-12.077-5.751-15.958-13.965h5.077a.952.952,0,0,0,.83-.487l3.678-6.593,5.5,12.655a.949.949,0,0,0,.79.568c.027,0,.055,0,.082,0a.951.951,0,0,0,.794-.427l6.8-10.31,2.361,4.113a.95.95,0,0,0,.824.478h5.183C61.073,60.412,51.025,65.254,48.994,66.163Zm17.12-17.279c-.11.481-.249.95-.4,1.413H60.32l-2.855-4.975a.95.95,0,0,0-1.618-.05L49.166,55.405,43.6,42.6a.95.95,0,0,0-1.7-.084L37.555,50.3H32.276c-.153-.463-.292-.932-.4-1.413-1.4-6.129,1.911-10.524,5.577-12.014a8.443,8.443,0,0,1,3.165-.626c2.6,0,5.429,1.256,7.567,4.758a.951.951,0,0,0,1.623,0c3.064-5.018,7.554-5.424,10.732-4.132C64.2,38.36,67.512,42.756,66.114,48.884Z" transform="translate(769.029 221.797)" fill="#1c54f8"></path></g></g></svg> 