<?xml version="1.0" encoding="UTF-8"?> <svg xmlns="http://www.w3.org/2000/svg" id="Group_43" data-name="Group 43" width="1800" height="86" viewBox="0 0 1800 86"><g id="Group_38" data-name="Group 38" transform="translate(-86)"><rect id="Rectangle_6" data-name="Rectangle 6" width="200" height="86" transform="translate(1000)" fill="none"></rect><path id="McKinsey" d="M11.688,0h3.355V.632H14.41c-.11,0-.3.127-.581.38s-.417.45-.417.581v9.633c0,.133.139.326.417.581s.47.383.581.383h.632v.629h-4.95v-.635h.632c.111,0,.3-.127.567-.383s.4-.448.4-.581V1.893L7.038,13.048,2.391,1.7v9.523c0,.133.133.326.4.581s.456.383.567.383h.629v.629H0v-.632H.632c.133,0,.331-.127.6-.383s.4-.448.4-.581V1.592c0-.13-.133-.326-.4-.581S.765.632.632.632H0V0H3.717L7.571,9.6h.1Zm7.97,11.52a3.026,3.026,0,0,0,1.626-.363,3.2,3.2,0,0,0,.995-1.1h.533A4.791,4.791,0,0,1,21.5,12.217a3.5,3.5,0,0,1-2.44.8A3.375,3.375,0,0,1,16.3,11.753a4.624,4.624,0,0,1-1.029-3.02,4.42,4.42,0,0,1,1.159-3.221,3.748,3.748,0,0,1,2.788-1.2,4.208,4.208,0,0,1,1.66.3,4.372,4.372,0,0,1,1.295.85l-1.21,1.9-.5.031a3.366,3.366,0,0,0-.1-1.7A1.235,1.235,0,0,0,19.04,4.95a2.051,2.051,0,0,0-1.827.9,4.2,4.2,0,0,0-.6,2.36,3.539,3.539,0,0,0,.813,2.357A2.788,2.788,0,0,0,19.658,11.52Zm8.234,1.295H22.876v-.632h.64c.133,0,.331-.127.6-.383s.4-.448.4-.581V1.592c0-.13-.13-.326-.4-.581a1.142,1.142,0,0,0-.6-.38h-.64V0h5.015V.632H27.26c-.133,0-.332.127-.6.38s-.4.45-.4.581V6.84l4.582-5.114c.088-.11,0-.32-.232-.629s-.422-.465-.533-.465h-.615V0h4.647V.632h-.632a2.391,2.391,0,0,0-.841.5c-.445.343-.708.567-.8.649L28.724,5.134l4.482,5.95a3.718,3.718,0,0,0,.745.663,1.9,1.9,0,0,0,.782.433h.929a1.029,1.029,0,0,0,.567-.332c.244-.224.365-.411.365-.567V6.043c0-.133-.122-.312-.365-.533a1.028,1.028,0,0,0-.567-.332h-.5V4.548h2.955v6.74c0,.156.127.343.382.567a1.133,1.133,0,0,0,.547.332h1.031c.111,0,.283-.111.53-.332a.878.878,0,0,0,.365-.567V6.043c0-.133-.122-.312-.365-.533s-.419-.331-.53-.331h-.533V4.548h2.624L42.5,6.233A14.215,14.215,0,0,1,43.945,4.9a2.833,2.833,0,0,1,1.808-.567A2.267,2.267,0,0,1,47.4,5a2.3,2.3,0,0,1,.68,1.726v4.559c0,.156.122.343.366.567s.419.332.53.332h.533v.629H45.158v-.632h.459a1.037,1.037,0,0,0,.567-.332c.244-.224.365-.411.365-.567V6.84a1.544,1.544,0,0,0-.334-1.029,1.218,1.218,0,0,0-.994-.4,3.117,3.117,0,0,0-1.81.649q-.91.646-.91,1.08v4.148c0,.156.122.343.366.567a1.028,1.028,0,0,0,.567.332H43.9v.629H32.017L27.56,6.409,26.265,7.8v3.42c0,.133.13.326.4.581s.465.383.6.383h.632Zm4.448,14.45-.04-.04q.633.531,1.281,1.063t1.377,1.031h.762v.663H34.326a4.369,4.369,0,0,1-1.66-.3,5.349,5.349,0,0,1-1.527-1.031A4.947,4.947,0,0,1,29.362,29.8a6.871,6.871,0,0,1-2.406.38,4.3,4.3,0,0,1-2.833-1.046,3.4,3.4,0,0,1-1.264-2.74h0a4.46,4.46,0,0,1,.567-2.224,4.791,4.791,0,0,1,1.507-1.626,5.978,5.978,0,0,1-.748-1.23,3.556,3.556,0,0,1-.283-1.459,2.689,2.689,0,0,1,.827-2.108A3.253,3.253,0,0,1,26.993,17a4.057,4.057,0,0,1,1.4.2,2.7,2.7,0,0,0,.929.2,1.567,1.567,0,0,0,.365-.034.4.4,0,0,0,.232-.2h.567v3.02h-.567a2.74,2.74,0,0,0-.85-1.626,2.692,2.692,0,0,0-2.108-.963,2.53,2.53,0,0,0-1.629.482,1.632,1.632,0,0,0-.6,1.343,2.074,2.074,0,0,0,.5,1.363,3.258,3.258,0,0,0,1.329.929q1.227,1.332,2.655,2.672t2.723,2.507a4.182,4.182,0,0,0,.516-1.227,6.259,6.259,0,0,0,.15-1.417,1.8,1.8,0,0,0-.55-1.38,2.063,2.063,0,0,0-1.476-.513v-.643h4.556v.6h-.5c-.11,0-.329.187-.649.567a1.663,1.663,0,0,0-.482.83v.034a6.8,6.8,0,0,1-.331,1.876,5.859,5.859,0,0,1-.836,1.641ZM27.99,29.192a4.817,4.817,0,0,0,1.544-.232,4.9,4.9,0,0,0,1.244-.626l-.1-.065Q29.263,27,27.891,25.679t-2.658-2.791a4.035,4.035,0,0,0-.762,1.133,3.944,3.944,0,0,0-.266,1.592,3.312,3.312,0,0,0,1.213,2.474,3.76,3.76,0,0,0,2.573,1.1Zm9.2-26.667h-.034a1.051,1.051,0,0,1-.745-.3.961.961,0,0,1-.317-.731V1.462A.989.989,0,0,1,36.408.68a1.221,1.221,0,0,1,1.558,0,.989.989,0,0,1,.317.782H38.25c.023,0,.034,0,.034.031a.96.96,0,0,1-.317.731,1.014,1.014,0,0,1-.714.3h-.065Zm8.429,26.594a4.406,4.406,0,0,0,2.59-.663,5.1,5.1,0,0,0,1.558-1.927h.669a5.667,5.667,0,0,1-1.961,2.706,5.259,5.259,0,0,1-3.219.98,5.477,5.477,0,0,1-4.417-1.983,7.115,7.115,0,0,1-1.66-4.732A7.256,7.256,0,0,1,40.7,18.85a5.1,5.1,0,0,1,4.216-1.924,4.924,4.924,0,0,1,1.762.283,4.06,4.06,0,0,0,1.493.283,1.037,1.037,0,0,0,.465-.085,1.255,1.255,0,0,0,.332-.247h.465v4.519h-.567a4.76,4.76,0,0,0-1.029-2.491A3.281,3.281,0,0,0,44.985,17.7a3.508,3.508,0,0,0-2.624.98,4.91,4.91,0,0,0-1.133,3.136v-.065q-.034.366-.051.731c0,.244-.017.5-.017.762a8.909,8.909,0,0,0,.034.946c.034.32.045.615.065.881a4.7,4.7,0,0,0,1.295,2.87,4.026,4.026,0,0,0,3.063,1.179ZM56.1,10.492a2.354,2.354,0,0,1-.748,1.859,2.757,2.757,0,0,1-1.91.666,3.159,3.159,0,0,1-1.329-.249,2.468,2.468,0,0,0-1.062-.249.592.592,0,0,0-.363.082l-.266.215h-.385V9.894h.5a2.689,2.689,0,0,0,.779,1.5,2.658,2.658,0,0,0,2.142.929,2.286,2.286,0,0,0,1.2-.266.935.935,0,0,0,.431-.85,1.094,1.094,0,0,0-.513-1.012,8.784,8.784,0,0,0-1.046-.55c-.312-.13-.592-.252-.85-.363s-.55-.232-.881-.366a4.363,4.363,0,0,1-1.261-.881,1.9,1.9,0,0,1-.5-1.377,2.148,2.148,0,0,1,.666-1.7,3.154,3.154,0,0,1,2.969-.366,2.085,2.085,0,0,0,.915.218.689.689,0,0,0,.283-.051.363.363,0,0,0,.184-.184h.431v2.55h-.5a2.414,2.414,0,0,0-.68-1.329,2.267,2.267,0,0,0-1.842-.83,1.621,1.621,0,0,0-1.08.3.958.958,0,0,0-.348.762.918.918,0,0,0,.366.8,6.428,6.428,0,0,0,.994.567c.312.13.6.252.881.363l.912.365a4.485,4.485,0,0,1,1.295.83,1.983,1.983,0,0,1,.632,1.536Zm2.173,12.152a4.154,4.154,0,0,1,1.247,3.187,4.2,4.2,0,0,1-1.247,3.2,4.057,4.057,0,0,1-2.87,1.179A4.1,4.1,0,0,1,52.5,29.036a4.2,4.2,0,0,1-1.244-3.2,4.157,4.157,0,0,1,7.035-3.187Zm-.4,4.556v.065c.023-.244.037-.487.048-.731s.017-.487.017-.731,0-.479-.017-.711-.026-.45-.048-.649a2.751,2.751,0,0,0-.714-1.626,2.323,2.323,0,0,0-1.742-.6,2.267,2.267,0,0,0-1.7.6A2.714,2.714,0,0,0,53,24.409v-.042a4.891,4.891,0,0,0-.082.7c0,.244-.017.487-.017.728s0,.482.017.714a4.055,4.055,0,0,0,.082.649,2.85,2.85,0,0,0,.714,1.592,2.207,2.207,0,0,0,1.7.632,2.267,2.267,0,0,0,1.76-.615A2.833,2.833,0,0,0,57.874,27.2ZM60.6,13.033a3.437,3.437,0,0,1-2.74-1.278,4.565,4.565,0,0,1-1.079-3.04,4.587,4.587,0,0,1,1.1-3.117A3.363,3.363,0,0,1,60.6,4.369a2.808,2.808,0,0,1,2.173.85,3.162,3.162,0,0,1,.85,2.043l.034.6L58.14,8.3a3.533,3.533,0,0,0,.793,2.182,2.6,2.6,0,0,0,2.19,1.046,3.117,3.117,0,0,0,1.643-.363,2.935,2.935,0,0,0,.98-1.065h.5a4.488,4.488,0,0,1-1.264,2.142,3.426,3.426,0,0,1-2.386.774ZM60.563,5a2.08,2.08,0,0,0-1.876.878,3.522,3.522,0,0,0-.615,1.844l4.151-.354a3.5,3.5,0,0,0-.184-1.646q-.272-.737-1.476-.74ZM70.59,29.365c.133,0,.314-.116.547-.349s.349-.414.349-.547V23.936a1.49,1.49,0,0,0-.315-.98,1.235,1.235,0,0,0-1.011-.382,2.717,2.717,0,0,0-1.612.6q-.813.6-.813,1v4.315c0,.133.116.315.349.547s.405.349.516.349h.5v.632h-4.25v-.632h.465c.133,0,.314-.116.547-.349s.348-.414.348-.547V23.95a1.493,1.493,0,0,0-.332-1.014,1.247,1.247,0,0,0-1-.382,2.683,2.683,0,0,0-1.643.632q-.813.629-.813,1.063V28.5c0,.133.116.314.348.547s.417.349.55.349h.465v.632h-4.25v-.632h.5c.111,0,.283-.116.513-.349s.348-.414.348-.547v-5.29c0-.13-.116-.309-.348-.53s-.4-.332-.513-.332h-.5v-.632h2.55l.332,1.6q.731-.765,1.329-1.281a2.522,2.522,0,0,1,1.7-.513,2.442,2.442,0,0,1,1.459.448,1.873,1.873,0,0,1,.765,1.312c.507-.487.975-.9,1.394-1.23a2.6,2.6,0,0,1,1.66-.5,2.309,2.309,0,0,1,1.626.615,2.267,2.267,0,0,1,.666,1.745v4.533c0,.133.116.314.348.547s.4.349.513.349h.5v.632h-4.25v-.632ZM65.045,6.131a2.267,2.267,0,0,0-.516-.567c-.283-.244-.47-.366-.567-.366H63.6V4.548h4.482v.632h-.53c-.11,0-.255.111-.431.331a.977.977,0,0,0-.266.567l1.983,4.083,1.827-4.052a.825.825,0,0,0-.249-.6q-.283-.331-.451-.331h-.547V4.548h3.355v.632h-.366c-.11,0-.283.116-.516.349a2.091,2.091,0,0,0-.448.581l-2.833,6.01L66.173,16.8l-.723-.368,2.522-4.55ZM80.087,21.505a2.811,2.811,0,0,1,2.388,1.162,5,5,0,0,1,.85,3.054,5.1,5.1,0,0,1-.963,3.187,2.961,2.961,0,0,1-2.456,1.264,3.185,3.185,0,0,1-1.743-.417,3.431,3.431,0,0,1-1.113-1.244V32.5c0,.156.122.343.366.567s.422.332.533.332h.535V34H74.109v-.632h.533a.966.966,0,0,0,.547-.331.893.893,0,0,0,.348-.567V23.208c0-.13-.116-.309-.348-.53a.966.966,0,0,0-.547-.331h-.533v-.666H76.8l.266,1.728a4.094,4.094,0,0,1,1.278-1.462,3.136,3.136,0,0,1,1.745-.465Zm1.66,5.579v.031l.065-.663a6.5,6.5,0,0,0,.034-.663,4.817,4.817,0,0,0-.034-.581c-.023-.19-.045-.371-.065-.55a2.833,2.833,0,0,0-.666-1.575,1.836,1.836,0,0,0-1.417-.567,2.218,2.218,0,0,0-1.66.646,3.967,3.967,0,0,0-.929,1.609v2.159a2.267,2.267,0,0,0,.7,1.66,2.309,2.309,0,0,0,1.7.7h.034a1.983,1.983,0,0,0,1.592-.615,2.983,2.983,0,0,0,.649-1.612Zm18.759,1.394c0,.133.122.314.366.547s.419.349.53.349h.5v.632H97.552v-.632h.482c.113,0,.283-.116.533-.349s.366-.414.366-.547V23.973a1.618,1.618,0,0,0-.314-1.011,1.156,1.156,0,0,0-.98-.417,3.08,3.08,0,0,0-1.811.663q-.915.669-.912,1.063v4.185c0,.156.122.343.366.567a1.028,1.028,0,0,0,.567.331h.487v.632H89.284l-.232-1.726a9.893,9.893,0,0,1-1.162,1.278,2.267,2.267,0,0,1-1.6.615,2.046,2.046,0,0,1-1.493-.632,2.2,2.2,0,0,1-.632-1.626,1.867,1.867,0,0,1,.912-1.776,6.74,6.74,0,0,1,1.777-.714l2.159-.433.034-.994a1.983,1.983,0,0,0-.465-1.377,2.077,2.077,0,0,0-1.6-.516,1.521,1.521,0,0,0-1.445.663,1.893,1.893,0,0,0,.085,1.728h-.6L83.9,22.814a4.644,4.644,0,0,1,3.454-1.329,3.9,3.9,0,0,1,2.292.649,2.148,2.148,0,0,1,.929,1.876v4.448c0,.133.122.309.366.53s.419.334.53.334h1a1.02,1.02,0,0,0,.567-.334c.244-.221.366-.4.366-.53v-5.25c0-.13-.122-.309-.366-.53a1.028,1.028,0,0,0-.567-.332h-.5v-.666h2.624l.331,1.728a15.447,15.447,0,0,1,1.417-1.329,2.808,2.808,0,0,1,1.825-.567,2.267,2.267,0,0,1,1.643.663,2.3,2.3,0,0,1,.683,1.728ZM89.052,25.534l-1.983.5a1.842,1.842,0,0,0-1.1.612,1.7,1.7,0,0,0-.3,1.014v.031a1.281,1.281,0,0,0,.365.915,1.193,1.193,0,0,0,.9.38h.048a1.873,1.873,0,0,0,1.2-.5,3.732,3.732,0,0,0,.85-.963Zm21.117-3.819v.632h-.4c-.088,0-.249.116-.482.348a4.223,4.223,0,0,0-.482.547l-2.788,6.044-2.491,4.649-.7-.365,2.491-4.55L102.4,23.276a2.329,2.329,0,0,0-.516-.567c-.283-.244-.459-.366-.547-.366h-.4v-.629h4.482v.632h-.5c-.111,0-.261.111-.448.331a.963.963,0,0,0-.283.567l1.983,4.086,1.836-4.1a.765.765,0,0,0-.249-.567c-.187-.221-.337-.332-.448-.332h-.53v-.621Z" transform="translate(1044.916 26)" fill="#262626"></path></g><g id="Group_34" data-name="Group 34" transform="translate(-195)"><rect id="Rectangle_2" data-name="Rectangle 2" width="200" height="86" transform="translate(195)" fill="none"></rect><path id="Rackspace" d="M110.211,30.064a1.4,1.4,0,0,0-1.418-1.561,1.741,1.741,0,0,0-1.7,1.561,1.395,1.395,0,0,0,1.418,1.555,1.73,1.73,0,0,0,1.7-1.555Zm-.222-.02a1.515,1.515,0,0,1-1.476,1.352,1.178,1.178,0,0,1-1.2-1.313,1.515,1.515,0,0,1,1.476-1.352,1.181,1.181,0,0,1,1.2,1.313Zm-1.078.209.248.725h-.242l-.242-.705h-.346l-.131.706h-.229l.346-1.836h.6a.476.476,0,0,1,.49.464.678.678,0,0,1-.5.647Zm.007-.888H108.5l-.131.686h.379a.463.463,0,0,0,.431-.366.264.264,0,0,0-.261-.32ZM57.738,13.676a4.287,4.287,0,0,1-1.26,3.164A7.056,7.056,0,0,1,51.4,18.527a8.648,8.648,0,0,1-4.016-.95l.593-3.116a8.948,8.948,0,0,0,3.817,1.076c1.012,0,1.693-.467,1.693-1.215,0-.679-.479-1.153-1.7-1.752-1.935-.968-2.9-2.195-2.9-3.641,0-2.845,2.423-4.768,6.059-4.768a7.219,7.219,0,0,1,3.87.9l-.591,3.11a6.485,6.485,0,0,0-3.475-.991c-1.06,0-1.75.444-1.75,1.187,0,.533.528,1.011,1.646,1.555,1.457.728,3.1,1.805,3.1,3.754Zm-25.2-9.485a8.648,8.648,0,0,0-8.981,8.7c0,3.425,2.276,5.637,5.807,5.637a9.577,9.577,0,0,0,3.923-.737l.647-3.417a7.229,7.229,0,0,1-3.418.884,2.552,2.552,0,0,1-2.676-2.817,4.782,4.782,0,0,1,4.642-4.98A4.449,4.449,0,0,1,34.736,8l.633-3.322a7.885,7.885,0,0,0-2.832-.485Zm71.818,11.151a9.111,9.111,0,0,0,4.8-1.355l-.655,3.44a11.989,11.989,0,0,1-5.13,1.1c-3.8,0-5.976-2.115-5.976-5.807A9.12,9.12,0,0,1,99.54,6.869a7.631,7.631,0,0,1,5.882-2.707c2.877,0,4.8,1.671,4.8,4.149a3.757,3.757,0,0,1-1.107,2.8c-1.374,1.339-4.76,2.089-7.844,1.484-.147,1.738,1.161,2.742,3.088,2.742Zm-2.641-5.393c2.4.02,3.748-.223,4.336-.806.637-.633.438-1.99-1.133-1.99a3.42,3.42,0,0,0-3.2,2.8ZM95.328,4.191a8.648,8.648,0,0,0-8.981,8.7c0,3.425,2.276,5.637,5.807,5.637a9.578,9.578,0,0,0,3.923-.737l.647-3.417a7.229,7.229,0,0,1-3.418.884,2.552,2.552,0,0,1-2.676-2.817,4.782,4.782,0,0,1,4.642-4.98A4.448,4.448,0,0,1,97.527,8l.633-3.322a7.886,7.886,0,0,0-2.832-.485Zm-9.654,6.343L84.2,18.247H80.3l.507-2.655a4.11,4.11,0,0,1-4.119,2.964c-2.716,0-3.943-2.411-3.944-4.824a10.425,10.425,0,0,1,2.878-7.26,7.8,7.8,0,0,1,5.64-2.31A4.511,4.511,0,0,1,84.913,5.58c1.138,1.379,1.045,3.449.761,4.954ZM81.916,8.76a1.369,1.369,0,0,0-1.462-1.5c-1.922,0-3.588,3.318-3.586,5.625,0,1.442.535,2.339,1.464,2.339,1.487,0,2.768-1.555,3.208-3.832a15.513,15.513,0,0,0,.375-2.636ZM22.884,10.534,21.41,18.247h-3.9l.507-2.655a4.11,4.11,0,0,1-4.119,2.964c-2.716,0-3.943-2.411-3.944-4.824a10.425,10.425,0,0,1,2.878-7.26,7.8,7.8,0,0,1,5.64-2.31A4.511,4.511,0,0,1,22.123,5.58c1.138,1.379,1.045,3.449.761,4.954ZM19.125,8.76a1.369,1.369,0,0,0-1.462-1.5c-1.922,0-3.588,3.318-3.586,5.625,0,1.442.535,2.339,1.465,2.339,1.487,0,2.767-1.555,3.208-3.832a15.513,15.513,0,0,0,.375-2.636Zm53.342.648c0,3.351-1.609,6.787-4.509,8.333a6.507,6.507,0,0,1-2.971.816,2.8,2.8,0,0,1-2.73-1.379L61.22,22.663H57.134L60.6,4.416h3.6l-.421,2.215A5.221,5.221,0,0,1,68.01,4.162C70.714,4.162,72.468,6.212,72.468,9.407Zm-4.25.31c0-.65-.153-2.227-1.65-2.227-1.522,0-2.807,1.734-3.305,4.365-.17.9-.648,3.6,1.233,3.6C66.641,15.454,68.218,12.407,68.218,9.717ZM5.694,7.482l.583-3.066h-3.6L0,18.49H4.087l1.1-5.8C5.842,9.265,7.805,7.9,10.6,8.319l.8-4.2a5.662,5.662,0,0,0-5.7,3.361ZM38.476,18.247l1.408-7.405,2.9,7.405h4.4l-3-7.465,5.456-6.367H45.173l-5.265,6.3L41.945,0H37.886L34.417,18.247ZM85.5,27.923a3.491,3.491,0,0,1-3.373,3.7,2.273,2.273,0,0,1-2.388-2.411,3.5,3.5,0,0,1,3.373-3.7A2.277,2.277,0,0,1,85.5,27.923Zm-4.32,1.249c0,.8.42,1.369,1.14,1.369,1.045,0,1.74-1.44,1.74-2.606,0-.6-.276-1.344-1.116-1.344C81.832,26.59,81.183,28.08,81.183,29.172Zm13.831-1.249a3.491,3.491,0,0,1-3.373,3.7,2.273,2.273,0,0,1-2.388-2.411,3.5,3.5,0,0,1,3.373-3.7,2.277,2.277,0,0,1,2.387,2.411Zm-4.32,1.249c0,.8.42,1.369,1.14,1.369,1.045,0,1.74-1.44,1.74-2.606,0-.6-.276-1.344-1.116-1.344-1.116,0-1.764,1.489-1.764,2.581Zm-3.1-5.441-1.475,7.757h1.393L89,23.73ZM65.067,25.523a3.683,3.683,0,0,0-3.708,3.756,2.2,2.2,0,0,0,2.364,2.328,3.932,3.932,0,0,0,1.723-.357l.231-1.213a3.152,3.152,0,0,1-1.57.441,1.222,1.222,0,0,1-1.284-1.367,2.335,2.335,0,0,1,2.2-2.46,2.115,2.115,0,0,1,1.077.273l.221-1.162a3.219,3.219,0,0,0-1.249-.238Zm-7.983,4.393a1.608,1.608,0,0,1-.156-.829c2.256.048,3.828-.433,3.828-1.931a1.667,1.667,0,0,0-1.884-1.644,3.556,3.556,0,0,0-3.312,3.683,2.2,2.2,0,0,0,2.4,2.424,4.552,4.552,0,0,0,2.209-.548l.239-1.258a3.519,3.519,0,0,1-2.124.7,1.291,1.291,0,0,1-1.2-.6Zm1.608-3.361c.444,0,.743.227.743.6,0,.707-.924.9-2.364.887a1.8,1.8,0,0,1,1.62-1.487Zm20.088.563a1.421,1.421,0,0,0-1.488-1.607,2.529,2.529,0,0,0-2.135,1.226l.216-1.129h-1.26l-1.118,5.88h1.393l.517-2.7c.252-1.37,1.054-2.137,1.69-2.137.552,0,.733.347.733.84a3.9,3.9,0,0,1-.069.7l-.628,3.3h1.393l.653-3.408a5.476,5.476,0,0,0,.1-.962Zm-8.093-1.607a2.464,2.464,0,0,0-1.944.967l.526-2.748h-1.4L66.39,31.487h1.393l.517-2.7c.252-1.37,1.054-2.137,1.69-2.137.552,0,.733.347.733.84a3.9,3.9,0,0,1-.069.7l-.628,3.3H71.42l.653-3.408a5.482,5.482,0,0,0,.1-.962,1.421,1.421,0,0,0-1.488-1.606ZM54.466,24.139H53.107l-.3,1.5h-.78l-.2,1.08h.781l-.5,2.6a5.444,5.444,0,0,0-.121,1.08c0,.672.421,1.2,1.38,1.2a2.789,2.789,0,0,0,.912-.12l.211-1.108a2.759,2.759,0,0,1-.559.053.461.461,0,0,1-.516-.529,4.135,4.135,0,0,1,.108-.828l.456-2.352h1.309l.216-1.08H54.188Zm46.949,9.533a2.057,2.057,0,0,0,2.891-1.093v0l3.91-6.969h-1.488l-2.22,4.351-.539-4.351H102.5l1.042,5.723-.456.914a1.013,1.013,0,0,1-1.457.287Zm-1.9-8.16a3.874,3.874,0,0,0-3.758,4.046c0,1.045.516,2.065,1.765,2.065a2.354,2.354,0,0,0,1.943-1.044l-.112.511c-.287,1.357-.984,1.788-1.9,1.788a3.379,3.379,0,0,1-1.536-.348L95.7,33.672A4.152,4.152,0,0,0,97.425,34a3.434,3.434,0,0,0,2.183-.648,4.285,4.285,0,0,0,1.213-2.6l.529-2.651a4.824,4.824,0,0,0,.12-1.009c0-1.057-.733-1.573-1.957-1.573Zm.444,2.51-.108.54c-.24,1.177-.985,1.921-1.705,1.921-.648,0-.925-.54-.925-1.177,0-1.153.8-2.725,2.029-2.725a.7.7,0,0,1,.78.744,2.982,2.982,0,0,1-.072.7Z" transform="translate(240 26)" fill="#262626"></path></g><g id="Group_40" data-name="Group 40" transform="translate(-29)"><rect id="Rectangle_8" data-name="Rectangle 8" width="200" height="86" transform="translate(1400)" fill="none"></rect><g id="g862" transform="translate(1436.603 20.32)"><path id="path7" d="M163.987,50.952a2.428,2.428,0,1,1,2.428,2.428A2.428,2.428,0,0,1,163.987,50.952Zm2.429,2.78a2.78,2.78,0,1,0-2.78-2.78A2.781,2.781,0,0,0,166.416,53.732Z" transform="translate(-66.138 -17.053)" fill="#262626" fill-rule="evenodd"></path><path id="path9" d="M167.081,50.624h.881c.4,0,.818.064.818.537,0,.527-.441.559-.86.559h-.838Zm2.086.559c0-.613-.441-.828-1.108-.828h-1.344v3.1h.365v-1.43h.709l.882,1.43h.452l-.946-1.43h0C168.725,52,169.166,51.773,169.166,51.182Z" transform="translate(-67.452 -17.985)" fill="#262626" fill-rule="evenodd"></path><path id="polygon11" d="M171.3,9.452l-1.484,6.139h-2.87l1.526-6.139Z" transform="translate(-67.549 -0.33)" fill="#262626" fill-rule="evenodd"></path><path id="polygon13" d="M150.136,36.656V25.67l-3.59-16.218h4.548l2.021,11.6,2.214-11.6h2.828l-3.6,16.218V36.656Z" transform="translate(-58.711 -0.33)" fill="#262626" fill-rule="evenodd"></path><path id="path15" d="M183.274,28.137v2.979h0c0,1.912-.828,1.773-1.516,1.773-.85,0-1.548,0-1.548-1.741h0l-.032-4.25H176.06v5.115h0c0,4.773,2.591,4.293,5.624,4.293,2.44,0,5.934.48,5.934-4.4h0V26.621h0c0-1.5-.785-2.594-2.021-3.822,0,0-1.377-1.164-3.72-3.492-1.58-1.548-1.925-2.691-1.925-3.748h0V13.328h0c0-1.9.818-1.751,1.505-1.751.839,0,1.56,0,1.56,1.74h0l.021,3.417h4.128V12.975h0c0-4.773-2.591-4.281-5.633-4.281-2.43,0-5.924-.491-5.924,4.378h0v4h0c0,1.484,1.075,3.086,3.635,5.488,0,0,4.03,2.614,4.03,5.573Z" transform="translate(-71.25 0)" fill="#262626" fill-rule="evenodd"></path><path id="path17" d="M86.768,28.137v2.979h0c0,1.912-.817,1.773-1.505,1.773-.838,0-1.559,0-1.559-1.741h0l-.011-4.25H79.564v5.115h0c0,4.773,2.581,4.293,5.634,4.293,2.43,0,5.935.48,5.935-4.4h0V26.621h0c0-1.5-.8-2.594-2.021-3.822,0,0-1.376-1.164-3.731-3.492-1.591-1.548-1.914-2.691-1.914-3.748h0V13.328h0c0-1.9.817-1.751,1.505-1.751.839,0,1.559,0,1.559,1.74h0l.021,3.417h4.128V12.975h0c0-4.773-2.591-4.281-5.645-4.281-2.43,0-5.924-.491-5.924,4.378h0v4h0c0,1.484,1.075,3.086,3.645,5.488,0,0,4.011,2.614,4.011,5.573Z" transform="translate(-29.627 0)" fill="#262626" fill-rule="evenodd"></path><path id="path19" d="M58.939,12.25h.945c1.635,0,1.451,1.868,1.451,3.769,0,0,.183,3.716-1.451,3.716h-.945ZM54.348,36.656h4.591V23.374h.817c1.473,0,1.57.694,1.57,2.254h0V31.51h0c0,1.815.118,4.26.613,5.147h4.548c-.505-.886-.452-3.331-.452-5.147h0v-4.8h0c0-2.691.1-4.741-2.516-5.21h0c1.979-.3,2.709-1.174,2.709-5.456,0-5.733-.978-6.587-5.881-6.587h-6v27.2Z" transform="translate(-18.946 -0.33)" fill="#262626" fill-rule="evenodd"></path><path id="polygon21" d="M137.046,19.681v3.694h-4.731v9.364h5.622v3.918H127.9V9.452h9.816v3.609h-5.4v6.62Z" transform="translate(-50.659 -0.33)" fill="#262626" fill-rule="evenodd"></path><path id="polygon23" d="M42.851,19.681v3.694H38.121v9.364h5.612v3.918H33.691V9.452h9.838v3.609H38.121v6.62Z" transform="translate(-9.933 -0.33)" fill="#262626" fill-rule="evenodd"></path><path id="polygon25" d="M115.052,9.452v27.2h-4.419V23.374h-2.547V36.656h-4.43V9.452h4.43V19.638h2.547V9.452Z" transform="translate(-40.211 -0.33)" fill="#262626" fill-rule="evenodd"></path><path id="polygon27" d="M21.8,9.452v27.2H17.382V23.374H14.834V36.656H10.426V9.452h4.408V19.638h2.548V9.452Z" transform="translate(0 -0.33)" fill="#262626" fill-rule="evenodd"></path></g></g><g id="Group_39" data-name="Group 39" transform="translate(-57)"><rect id="Rectangle_7" data-name="Rectangle 7" width="200" height="86" transform="translate(1200)" fill="none"></rect><g id="Ebene_x0020_1" transform="translate(1225.314 22.746)"><path id="Path_5" data-name="Path 5" d="M194.545,10.014v4.052a17.923,17.923,0,0,0-5.926-1.193,4.968,4.968,0,0,0-2.454.526,1.519,1.519,0,0,0-.927,1.289c0,.676.693,1.277,2.087,1.815l4.029,1.854c3.257,1.468,4.873,3.418,4.873,5.868a5.629,5.629,0,0,1-2.587,4.863,11.762,11.762,0,0,1-6.906,1.815,33.861,33.861,0,0,1-3.579-.167,29.063,29.063,0,0,1-3.627-.646V25.85a22.391,22.391,0,0,0,6.761,1.193c2.422,0,3.627-.664,3.627-2,0-.667-.493-1.205-1.5-1.627l-4.474-1.8a9.184,9.184,0,0,1-3.681-2.575,5.615,5.615,0,0,1-1.192-3.535,5.294,5.294,0,0,1,2.485-4.534,11.509,11.509,0,0,1,6.615-1.711,25.982,25.982,0,0,1,3.058.212c1.148.147,2.251.326,3.314.547Z" transform="translate(-53.467 0)" fill="#262626" fill-rule="evenodd"></path><path id="Path_6" data-name="Path 6" d="M22.149,10.014v4.052a17.907,17.907,0,0,0-5.923-1.193,4.96,4.96,0,0,0-2.454.526,1.519,1.519,0,0,0-.926,1.289c0,.676.7,1.277,2.1,1.815l4.029,1.854c3.244,1.468,4.863,3.418,4.863,5.868a5.649,5.649,0,0,1-2.577,4.863A11.8,11.8,0,0,1,14.342,30.9a33.926,33.926,0,0,1-3.583-.167,29.327,29.327,0,0,1-3.624-.646V25.85a22.487,22.487,0,0,0,6.757,1.193c2.422,0,3.627-.664,3.627-2,0-.667-.49-1.205-1.483-1.627l-4.474-1.8a9.006,9.006,0,0,1-3.681-2.575,5.543,5.543,0,0,1-1.2-3.535,5.276,5.276,0,0,1,2.489-4.534,11.449,11.449,0,0,1,6.606-1.711,26.174,26.174,0,0,1,3.067.212c1.138.147,2.242.326,3.3.547Z" transform="translate(0 0)" fill="#262626" fill-rule="evenodd"></path><path id="Path_7" data-name="Path 7" d="M34,9.8h6.561V30.647H34Z" transform="translate(-7.237 -0.145)" fill="#262626" fill-rule="evenodd"></path><path id="Path_8" data-name="Path 8" d="M65.9,9.8v3.853H56.148v4.623H64.6V21.75H56.148V26.6H66.1v4.044H49.834V9.8Z" transform="translate(-13.369 -0.145)" fill="#262626" fill-rule="evenodd"></path><path id="Path_9" data-name="Path 9" d="M103.7,9.8V30.658H97.572V16.9L91.216,30.849H87.434L81.322,16.9V30.658h-4.43V9.8H84.9l5.467,12.769L96.089,9.8Z" transform="translate(-22.037 -0.145)" fill="#262626" fill-rule="evenodd"></path><path id="Path_10" data-name="Path 10" d="M136.313,9.8v3.853h-9.7v4.623h8.455V21.75h-8.455V26.6h9.895v4.044H120.25V9.8Z" transform="translate(-35.187 -0.145)" fill="#262626" fill-rule="evenodd"></path><path id="Path_11" data-name="Path 11" d="M166.505,9.8V30.647h-6.96l-7.81-13.371V30.647h-4.427V9.8h7.162l7.608,13.141V9.8Z" transform="translate(-44.895 -0.145)" fill="#262626" fill-rule="evenodd"></path></g></g><g id="Group_37" data-name="Group 37" transform="translate(-114)"><rect id="Rectangle_5" data-name="Rectangle 5" width="200" height="86" transform="translate(800)" fill="none"></rect><path id="ESPN" d="M35.137.348C31.2.343,28.59,2.419,28.223,5.524q-.128,1.076-.265,2.152H79.209s.1-.756.171-1.363C79.766,3.184,78.437.348,73.6.348h0S37.214.35,35.137.348ZM3.859.349l-.9,7.327H26.2L27.1.349H3.859Zm78.02,0-.9,7.327h25.2s.031-.265.142-1.127c.613-4.809-2.489-6.2-5.485-6.2ZM80.634,10.465l-1.963,15.99,8.693,0,1.965-15.984-8.695,0h0Zm16.514,0-1.966,15.99,8.693,0,1.965-15.984-8.691,0h0Zm-94.528,0L.654,26.456H23.895l.856-6.936-14.553,0,.368-2.991H25.114l.745-6.059H2.621Zm25,0c-.638,4.173,1.451,6.059,4.411,6.059l11.759,0-.367,3-16.913,0-.852,6.936s18.414.006,19.16,0c.616-.044,4.924-.162,6.39-3.685a41.63,41.63,0,0,0,1.014-6.106c.677-5-2.785-6.192-5.511-6.192l-19.091,0Zm27.056,0L52.71,26.456H61.4l1.223-9.929H73.535c3.095,0,4.759-1.664,5.067-3.9q.148-1.079.268-2.161h-24.2Z" transform="translate(846.346 29.652)" fill="#262626"></path></g><g id="Group_36" data-name="Group 36" transform="translate(-143)"><rect id="Rectangle_4" data-name="Rectangle 4" width="200" height="86" transform="translate(600)" fill="none"></rect><g id="US-ARMY-TEXT" transform="translate(621 24)"><path id="Path_12" data-name="Path 12" d="M302.341,90.716h3.884v14.335c0,2.34-1.622,3.775-4.056,3.775h-4.913c-2.433,0-4.056-1.419-4.056-3.775V90.716h3.931v13.851a.6.6,0,0,0,.608.608h3.993a.6.6,0,0,0,.608-.608V90.716Zm5.553,14.148h3.884v3.931h-3.884Zm5.584-7.971V94.038A3.279,3.279,0,0,1,317,90.7h5.709a3.271,3.271,0,0,1,3.525,3.338V96.69h-3.744V94.756a.6.6,0,0,0-.608-.608h-4.04a.6.6,0,0,0-.608.608v1.763c0,.265.14.5.562.624l5.927,1.731c1.856.562,2.5,1.529,2.5,3.556v3.042a3.323,3.323,0,0,1-3.556,3.338h-5.709a3.292,3.292,0,0,1-3.51-3.338v-2.933h3.744v2.2a.6.6,0,0,0,.608.608h4.04a.6.6,0,0,0,.608-.608V102.8a.642.642,0,0,0-.562-.624l-5.927-1.731c-1.856-.546-2.48-1.513-2.48-3.556Zm14.444,7.971h3.884v3.931h-3.884Zm20.4.9h-6.38l-.842,3.042h-4.056l5.413-18.094h5.647L353.3,108.81h-4.134Zm-.952-3.432-2.215-8.142-2.277,8.142Zm19.451-1.014-.983.827,3.244,6.676h-4.368l-2.87-6.224h-2.636v6.208h-3.931V90.716h9.141c2.277,0,3.822,1.373,3.822,3.463V97.7c-.016,1.778-.187,2.6-1.419,3.619ZM364.3,98.562v-3.65a.6.6,0,0,0-.608-.608h-4.477V99.17h4.477a.6.6,0,0,0,.608-.608Zm18.235-7.846h5.1V108.81h-3.775V97.423l-3.931,11.387h-1.139l-3.915-11.356V108.81h-3.619V90.716h5.1l3.12,9.889,3.057-9.889Zm22.836,0L399.254,101.9v6.91h-3.931v-6.879L389.38,90.716H394l3.479,7.05,3.463-7.05Z" transform="translate(-247.465 -76.552)" fill="#262626"></path><path id="Path_13" data-name="Path 13" d="M39,14.163H24.1L19.5,0,14.9,14.163H0L12.058,22.93l-4.6,14.163,12.058-8.751,12.058,8.751L26.954,22.93,39,14.163h0ZM19.5,23.99l-5.366,3.9,2.043-6.3-5.366-3.9h6.629l2.059-6.3,2.043,6.3h6.629l-5.366,3.9,2.043,6.3-5.35-3.9h0Z" fill="#9f9f9f"></path></g></g><g id="Group_35" data-name="Group 35" transform="translate(-171)"><rect id="Rectangle_3" data-name="Rectangle 3" width="200" height="86" transform="translate(400)" fill="none"></rect><g id="g5" transform="translate(434.892 -21.52)"><path id="path7-2" data-name="path7" d="M62.172,85.388H50.059l-1.077-8.951-7.4-5.317a22.567,22.567,0,0,1-.471-4.778,23.823,23.823,0,0,1,47.647,0,22.566,22.566,0,0,1-.471,4.778l-7.335,5.317L79.8,85.388H67.691l-.673.538a3.363,3.363,0,0,1-2.086.673,3.843,3.843,0,0,1-2.086-.673l-.673-.538Z" transform="translate(0 0)" fill="none" stroke="#fff" stroke-width="3.088"></path><path id="path9-2" data-name="path9" d="M62.172,85.388H50.059l-1.077-8.951-7.4-5.317a22.567,22.567,0,0,1-.471-4.778,23.823,23.823,0,0,1,47.647,0,22.566,22.566,0,0,1-.471,4.778l-7.335,5.317L79.8,85.388H67.691l-.673.538a3.363,3.363,0,0,1-2.086.673,3.843,3.843,0,0,1-2.086-.673l-.673-.538Z" transform="translate(0 0)" fill="#9f9f9f"></path><path id="path11" d="M62.172,85.388H50.059l-1.077-8.951-7.4-5.317a22.567,22.567,0,0,1-.471-4.778,23.823,23.823,0,0,1,47.647,0,22.566,22.566,0,0,1-.471,4.778l-7.335,5.317L79.8,85.388H67.691l-.673.538a3.363,3.363,0,0,1-2.086.673,3.843,3.843,0,0,1-2.086-.673l-.673-.538Zm.4-4.172H53.76l-.875-7.134-7.268-5.249a10.652,10.652,0,0,1-.336-2.557,9.582,9.582,0,0,1,.875-4.105L59.009,75.159,46.559,59.748a10.066,10.066,0,0,1,3.1-5.182L60.826,73.88,50.934,52.816a10.164,10.164,0,0,1,5.115-3.567l6.864,23.958L57.933,48.24a9.985,9.985,0,0,1,4.98-1.279,5.789,5.789,0,0,1,1.077.067L65,72.938l1.009-25.91a5.788,5.788,0,0,1,1.077-.067,10.742,10.742,0,0,1,4.98,1.279l-4.98,24.967,6.864-24.025a10.164,10.164,0,0,1,5.115,3.567L69.1,73.88,80.275,54.566a9.8,9.8,0,0,1,3.1,5.182L70.921,75.159,83.775,62.171a9.582,9.582,0,0,1,.875,4.105,11.116,11.116,0,0,1-.336,2.557l-7.268,5.249-.875,7.134H67.422l-1.346.942a1.762,1.762,0,0,1-1.144.337,2.269,2.269,0,0,1-1.144-.337Z" transform="translate(0 0)" fill="#262626" fill-rule="evenodd"></path></g></g><g id="Group_41" data-name="Group 41" transform="translate(0)"><rect id="Rectangle_9" data-name="Rectangle 9" width="200" height="86" transform="translate(1600)" fill="none"></rect><g id="Group_1" data-name="Group 1" transform="translate(1409.481 1480.714)"><path id="Path_1" data-name="Path 1" d="M323.863-1001.917l-4.4,17.892-4.411-17.892h-12.74v6.607c-1.548-5.782-7.227-7.232-12.3-7.314-6.187-.081-13.043,2.6-13.281,10.782h8.558c0-2.47,2.262-3.884,4.4-3.848,2.622-.022,3.828,1.1,3.889,2.839-.09,1.512-.982,2.565-3.867,2.565h-2.878v5.937h2.613c1.484,0,3.55.808,3.631,2.922.1,2.52-1.652,3.626-3.808,3.648-3.848-.143-4.841-3.1-4.841-5.642H275.54c.037,1.713-.019,12.877,13.9,12.795,6.669.061,11.523-2.743,12.892-6.609v5.925H310.9v-19.3l4.737,19.3h7.655l4.754-19.282v19.3h8.741v-30.623Zm-21.522,17.85a6.773,6.773,0,0,0-3.491-3.556,5.9,5.9,0,0,0,3.491-4.081Z" transform="translate(-25.271 -451.088)" fill="#262626"></path></g></g></svg> 