<?xml version="1.0" encoding="UTF-8"?> <svg xmlns="http://www.w3.org/2000/svg" xmlns:xlink="http://www.w3.org/1999/xlink" width="90" height="90" viewBox="0 0 90 90"><defs><clipPath id="clip-path"><rect id="Rectangle_4" data-name="Rectangle 4" width="90" height="90" transform="translate(627 73)" fill="#fff" stroke="#707070" stroke-width="1"></rect></clipPath></defs><g id="Mask_Group_4" data-name="Mask Group 4" transform="translate(-627 -73)" clip-path="url(#clip-path)"><g id="Group_4" data-name="Group 4" transform="translate(199.5 253)"><path id="Path_5" data-name="Path 5" d="M76.074,123.217H74.84v-11.3a6.412,6.412,0,0,0-.114-1.148l0-.014,0-.012a8.92,8.92,0,0,0-1.387-3.395l-6.582-8.9a5.889,5.889,0,0,0-4.333-2.183H50.374a3.243,3.243,0,0,0-3.24,3.24v23.709h-.908V88.946a1.054,1.054,0,0,0-1.054-1.054H3.005a1.054,1.054,0,0,0-1.054,1.054v34.271h-.9A1.054,1.054,0,0,0,0,124.272v3.642a1.054,1.054,0,0,0,1.054,1.054H11.076a8.026,8.026,0,1,0,15.749,0H51.552a8.026,8.026,0,1,0,15.749,0h8.773a1.054,1.054,0,0,0,1.054-1.054v-3.642A1.054,1.054,0,0,0,76.074,123.217Zm-10.731,7.3a5.917,5.917,0,1,1-5.917-5.917A5.924,5.924,0,0,1,65.343,130.514Zm-40.475,0a5.917,5.917,0,1,1-5.917-5.917A5.924,5.924,0,0,1,24.868,130.514ZM44.117,90v33.216H22.286a8,8,0,0,0-6.67,0H4.06V90Zm6.257,8.376h3.679v12.583a1.054,1.054,0,0,0,1.054,1.054H72.731v11.2h-9.97a8,8,0,0,0-6.67,0H49.243V99.508A1.132,1.132,0,0,1,50.374,98.377Zm14.682,1.328,6.582,8.9a5.537,5.537,0,0,1,.664,1.3H56.162V98.377h6.256A3.877,3.877,0,0,1,65.056,99.706ZM53.31,125.326a8.05,8.05,0,0,0-1.025,1.533H26.092a8.063,8.063,0,0,0-1.025-1.533Zm-40.475,0a8.058,8.058,0,0,0-1.025,1.533h-9.7v-1.533Zm62.185,1.533H66.567a8.055,8.055,0,0,0-1.025-1.533H75.02Z" transform="translate(433.5 -247.892)" fill="#1c54f8"></path><path id="Path_6" data-name="Path 6" d="M105.19,346.563a3.656,3.656,0,1,0,3.656,3.656A3.66,3.66,0,0,0,105.19,346.563Zm1.547,3.656a1.547,1.547,0,1,1-1.547-1.547A1.549,1.549,0,0,1,106.736,350.219Z" transform="translate(347.261 -467.596)" fill="#1c54f8"></path><path id="Path_7" data-name="Path 7" d="M373.875,346.563a3.656,3.656,0,1,0,3.656,3.656A3.66,3.66,0,0,0,373.875,346.563Zm1.547,3.656a1.547,1.547,0,1,1-1.547-1.547A1.549,1.549,0,0,1,375.421,350.219Z" transform="translate(119.051 -467.596)" fill="#1c54f8"></path><path id="Path_8" data-name="Path 8" d="M38.352,116.852H51.931a1.054,1.054,0,0,0,1.054-1.054v-4.058a1.054,1.054,0,0,0-1.054-1.054H38.352a1.054,1.054,0,0,0-1.054,1.054V115.8A1.054,1.054,0,0,0,38.352,116.852Zm1.054-4.058H50.876v1.949H39.407Z" transform="translate(401.821 -267.251)" fill="#1c54f8"></path><path id="Path_9" data-name="Path 9" d="M177.7,116.852h13.579a1.054,1.054,0,0,0,1.054-1.054v-4.058a1.054,1.054,0,0,0-1.054-1.054H177.7a1.054,1.054,0,0,0-1.054,1.054V115.8A1.054,1.054,0,0,0,177.7,116.852Zm1.054-4.058h11.47v1.949h-11.47Z" transform="translate(283.463 -267.251)" fill="#1c54f8"></path></g></g></svg> 