<?xml version="1.0" encoding="UTF-8"?> <svg xmlns="http://www.w3.org/2000/svg" xmlns:xlink="http://www.w3.org/1999/xlink" width="90" height="90" viewBox="0 0 90 90"><defs><clipPath id="clip-path"><rect id="Rectangle_2" data-name="Rectangle 2" width="90" height="90" transform="translate(267 73)" fill="#fff" stroke="#707070" stroke-width="1"></rect></clipPath></defs><g id="Mask_Group_2" data-name="Mask Group 2" transform="translate(-267 -73)" clip-path="url(#clip-path)"><g id="Group_2" data-name="Group 2" transform="translate(82 64)"><path id="Path_3" data-name="Path 3" d="M36.219,58.12a4.106,4.106,0,1,0,4.106,4.106A4.111,4.111,0,0,0,36.219,58.12Zm0,5.475a1.369,1.369,0,1,1,1.369-1.369A1.369,1.369,0,0,1,36.219,63.595ZM25.269,58.12a4.106,4.106,0,1,0,4.106,4.106A4.111,4.111,0,0,0,25.269,58.12Zm0,5.475a1.369,1.369,0,1,1,1.369-1.369A1.369,1.369,0,0,1,25.269,63.595ZM14.319,58.12a4.106,4.106,0,1,0,4.106,4.106A4.111,4.111,0,0,0,14.319,58.12Zm0,5.475a1.369,1.369,0,1,1,1.369-1.369A1.369,1.369,0,0,1,14.319,63.595Zm43.8-5.475a4.106,4.106,0,1,0,4.106,4.106A4.111,4.111,0,0,0,58.12,58.12Zm0,5.475a1.369,1.369,0,1,1,1.369-1.369A1.369,1.369,0,0,1,58.12,63.595ZM47.17,58.12a4.106,4.106,0,1,0,4.106,4.106A4.111,4.111,0,0,0,47.17,58.12Zm0,5.475a1.369,1.369,0,1,1,1.369-1.369A1.369,1.369,0,0,1,47.17,63.595Zm15.057-9.581H60.857V38.957a1.368,1.368,0,0,0-1.369-1.369H43.063a1.368,1.368,0,0,0-1.369,1.369V54.014H30.744V39.641l4.928-3.7a1.368,1.368,0,1,0-1.641-2.189l-5.11,3.833H13.406L8.3,33.757a1.368,1.368,0,0,0-1.641,2.189l4.928,3.7V54.014H10.214a8.213,8.213,0,1,0,0,16.425H62.228a8.213,8.213,0,1,0,0-16.425ZM52.645,40.326v2.738H49.907V40.326Zm-8.213,0H47.17v4.106A1.368,1.368,0,0,0,48.538,45.8h5.475a1.368,1.368,0,0,0,1.369-1.369V40.326H58.12V54.014H44.432Zm-30.113,0H28.007V54.014H14.319ZM62.226,67.7H10.213a5.475,5.475,0,1,1,0-10.95H62.226a5.475,5.475,0,0,1,0,10.95ZM69.07,2H3.369a1.369,1.369,0,0,0,0,2.738h6.938a10.963,10.963,0,0,0,5.5,8.174l1.2,11.964-3.786,5.048a1.365,1.365,0,0,0-.274.821v2.738a1.369,1.369,0,1,0,2.738,0V31.2L18.1,27.982a4.055,4.055,0,0,0,6.121,0L26.638,31.2v2.282a1.369,1.369,0,1,0,2.738,0V30.746a1.365,1.365,0,0,0-.274-.821l-3.786-5.048,1.2-11.964a10.96,10.96,0,0,0,5.5-8.174h8.4a10.963,10.963,0,0,0,5.5,8.174l1.2,11.964-3.786,5.048a1.365,1.365,0,0,0-.274.821v2.738a1.369,1.369,0,1,0,2.738,0V31.2l2.415-3.219a4.055,4.055,0,0,0,6.121,0L56.752,31.2v2.282a1.369,1.369,0,1,0,2.738,0V30.746a1.365,1.365,0,0,0-.274-.821L55.43,24.876l1.2-11.964a10.96,10.96,0,0,0,5.5-8.174h6.938a1.369,1.369,0,1,0,0-2.738ZM53.633,4.738a2.714,2.714,0,0,1-4.714,0h4.713Zm-30.113,0a2.714,2.714,0,0,1-4.714,0h4.713Zm-2.357,21.9a1.369,1.369,0,1,1,1.369-1.369A1.369,1.369,0,0,1,21.163,26.638ZM22.9,21.56a3.987,3.987,0,0,0-3.468,0l-.756-7.538a10.584,10.584,0,0,0,4.98,0Zm-1.734-9.978a8.22,8.22,0,0,1-8.089-6.844h2.809a5.449,5.449,0,0,0,10.561,0h2.809A8.218,8.218,0,0,1,21.163,11.581ZM51.276,26.638a1.369,1.369,0,1,1,1.369-1.369A1.369,1.369,0,0,1,51.276,26.638ZM53.01,21.56a3.987,3.987,0,0,0-3.468,0l-.756-7.538a10.584,10.584,0,0,0,4.98,0L53.01,21.56Zm-1.734-9.978a8.22,8.22,0,0,1-8.089-6.844H46a5.449,5.449,0,0,0,10.561,0h2.809a8.218,8.218,0,0,1-8.089,6.844Z" transform="translate(194 18)" fill="#1c54f8" stroke="#fff" stroke-width="0.8"></path></g></g></svg> 