<?xml version="1.0" encoding="UTF-8"?> <svg xmlns="http://www.w3.org/2000/svg" xmlns:xlink="http://www.w3.org/1999/xlink" width="90" height="90" viewBox="0 0 90 90"><defs><clipPath id="clip-path"><rect id="Rectangle_3" data-name="Rectangle 3" width="90" height="90" transform="translate(447 73)" fill="#fff" stroke="#707070" stroke-width="1"></rect></clipPath></defs><g id="Mask_Group_3" data-name="Mask Group 3" transform="translate(-447 -73)" clip-path="url(#clip-path)"><g id="Group_3" data-name="Group 3" transform="translate(12.466 195)"><path id="Path_4" data-name="Path 4" d="M52.068,72.576a.972.972,0,1,0,0-1.945H41.5V42.678H56.2v8.555a.972.972,0,0,0,1.945,0V41.706a.973.973,0,0,0-.972-.972H23.871a.973.973,0,0,0-.972.972V70.631H9.626V66.795h9.13a.973.973,0,0,0,.972-.972V41.706a.973.973,0,0,0-.972-.972H9.626V38.561a6.947,6.947,0,0,0,6.886-3.367,6.972,6.972,0,0,0,12.005,0,6.972,6.972,0,0,0,12.005,0,6.972,6.972,0,0,0,12.005,0,6.972,6.972,0,0,0,12.005,0,6.978,6.978,0,0,0,6,3.426,6.881,6.881,0,0,0,.883-.058v2.172H62.291a.973.973,0,0,0-.972.972V52.2a.972.972,0,0,0,1.945,0V42.678h8.158V54.113a.972.972,0,1,0,1.945,0V38.018a6.984,6.984,0,0,0,4.148-6.374.869.869,0,0,0-.009-.124c0-.01,0-.02,0-.03a1.064,1.064,0,0,0-.022-.1l0-.017a.951.951,0,0,0-.043-.118l-.008-.017a.96.96,0,0,0-.052-.1l-.007-.013-12.5-19.715a.972.972,0,0,0-.821-.452H60.917V6.4a3.4,3.4,0,0,0-3.4-3.4H23.527a3.4,3.4,0,0,0-3.4,3.4v4.561H17.005a.972.972,0,0,0-.821.452L3.685,31.124l-.007.013a.958.958,0,0,0-.052.1l-.008.017a.952.952,0,0,0-.043.118l0,.017a1.064,1.064,0,0,0-.022.1c0,.01,0,.02,0,.03a1.023,1.023,0,0,0-.009.124,6.984,6.984,0,0,0,4.148,6.374V70.63H4.506a.973.973,0,0,0-.972.972v5.271a.973.973,0,0,0,.972.972H52.068a.972.972,0,1,0,0-1.945H5.478V72.575h46.59ZM32.29,16.922l-4.478,13.75H18.045l6.475-13.75Zm24.237,0L63,30.672H53.235l-4.478-13.75Zm-9.814,0,4.478,13.75H41.5V16.922Zm-7.161,13.75H29.857l4.478-13.75h5.217v13.75Zm-17.037,6a5.039,5.039,0,0,1-4.935-4.059H27.45A5.038,5.038,0,0,1,22.515,36.675Zm12.006,0a5.039,5.039,0,0,1-4.935-4.059h9.871A5.038,5.038,0,0,1,34.521,36.675Zm12.005,0a5.039,5.039,0,0,1-4.935-4.059h9.871A5.038,5.038,0,0,1,46.526,36.675Zm12.006,0A5.039,5.039,0,0,1,53.6,32.616h9.871A5.038,5.038,0,0,1,58.533,36.675Zm12.005,0A5.039,5.039,0,0,1,65.6,32.616h9.871A5.038,5.038,0,0,1,70.538,36.675ZM59.943,16.922a.973.973,0,0,0,.972-.972V12.9h2.592l11.266,17.77H65.152l-6.475-13.75ZM22.076,6.4a1.452,1.452,0,0,1,1.451-1.451H57.521A1.452,1.452,0,0,1,58.972,6.4v8.582h-36.9ZM17.539,12.9H20.13V15.95a.973.973,0,0,0,.972.972H22.37l-6.475,13.75H6.273ZM5.574,32.617h9.871a5.03,5.03,0,0,1-9.871,0Zm12.21,10.061V64.851H9.627V42.678Zm7.059,0H39.551V70.631H24.843ZM75.766,56.963,54.912,53.017l-.443-1.667a3.063,3.063,0,0,0-2.993-2.3H47.583a.972.972,0,1,0,0,1.945h3.893a1.126,1.126,0,0,1,1.114.857l.595,2.237c0,.014.007.028.012.042l3.26,12.25a3,3,0,0,0,1.2,5.751H60.22a2.87,2.87,0,1,0,.108,0h9.546a2.87,2.87,0,1,0,.108,0h2.937a.972.972,0,1,0,0-1.945H57.653a1.056,1.056,0,0,1-.016-2.111H72.994a.973.973,0,0,0,.936-.708l2.591-9.182a.976.976,0,0,0-.755-1.222ZM61.2,75a.926.926,0,1,1-.926-.926A.927.927,0,0,1,61.2,75Zm9.655,0a.926.926,0,1,1-.926-.926A.927.927,0,0,1,70.853,75Zm1.405-8.869H58.4L55.466,55.1l18.895,3.576Zm-34-11.313v3.679a.972.972,0,1,1-1.945,0V54.815a.972.972,0,0,1,1.945,0Zm5.509-.972a.973.973,0,0,1,.972.972v3.679a.972.972,0,1,1-1.945,0V54.815A.973.973,0,0,1,43.764,53.843Z" transform="translate(439 -117)" fill="#1c54f8"></path></g></g></svg> 