<?xml version="1.0" encoding="UTF-8"?> <svg xmlns="http://www.w3.org/2000/svg" width="90" height="90" viewBox="0 0 90 90" fill="none"><mask id="mask0_3_7" style="mask-type:alpha" maskUnits="userSpaceOnUse" x="0" y="0" width="90" height="90"><rect width="90" height="90" fill="#D9D9D9"></rect></mask><g mask="url(#mask0_3_7)"><path d="M84.1071 37.2093H83.5327C81.9471 16.9084 65.2788 0.881348 45 0.881348C24.7212 0.881348 8.05289 16.9084 6.46734 37.2093H5.89289C2.63812 37.2093 0 39.7608 0 42.9078V54.3048C0 57.4518 2.63812 60.0033 5.89289 60.0033H7.32656C8.30039 63.624 12.2716 74.4604 25.4405 78.2192C25.797 80.2144 27.5161 81.7288 29.5875 81.7288C31.9177 81.7288 33.8063 79.8148 33.8063 77.4549C33.8063 75.095 31.9177 73.1811 29.5875 73.1811C27.9956 73.1811 26.6119 74.0743 25.8933 75.3928C14.9323 72.1347 11.2999 63.6247 10.2284 60.0033H15.4688V37.2093H9.28406C10.8612 18.4812 26.2716 3.7306 45 3.7306C63.7284 3.7306 79.1388 18.4812 80.7159 37.2093H74.5312V60.0033H84.1071C87.3619 60.0033 90 57.4518 90 54.3048V42.9078C90 39.7608 87.3619 37.2093 84.1071 37.2093ZM12.6562 40.0585V57.154H5.89289C4.19414 57.154 2.8125 55.8754 2.8125 54.3048V42.9078C2.8125 41.3371 4.19414 40.0585 5.89289 40.0585H12.6562ZM87.1875 54.3048C87.1875 55.8754 85.8059 57.154 84.1071 57.154H77.3438V40.0585H84.1071C85.8059 40.0585 87.1875 41.3371 87.1875 42.9078V54.3048Z" fill="#1A53F6"></path><path d="M65.4025 68.0206L61.6187 60.453L61.5981 60.4636C67.3009 55.7066 70.9322 48.5493 70.9322 40.5424C70.9322 26.2209 59.3214 14.6102 45 14.6102C30.6786 14.6102 19.0678 26.2209 19.0678 40.5424C19.0678 54.8638 30.6786 66.4746 45 66.4746C46.9281 66.4746 48.8052 66.258 50.6128 65.8583L54.2677 73.1674L52.6271 73.9263L60.2146 90.1186H63.3821L56.4414 75.3175L65.6985 71.0394L74.6298 90.1186H77.7966L67.0988 67.2373L65.4025 68.0206ZM45 63.4237C32.3832 63.4237 22.1186 53.1592 22.1186 40.5424C22.1186 27.9256 32.3832 17.661 45 17.661C57.6168 17.661 67.8814 27.9256 67.8814 40.5424C67.8814 53.1592 57.6168 63.4237 45 63.4237ZM57.0386 71.8868L53.5996 65.0079C55.5597 64.3192 57.4108 63.4008 59.1231 62.2865L62.6316 69.3019L57.0386 71.8868Z" fill="#1A53F6"></path><path d="M45.7625 25.2881C37.3378 25.2881 30.5085 32.1175 30.5085 40.5422C30.5085 45.3496 32.7347 49.635 36.2099 52.431L30.5085 55.7966H45.7625C54.1872 55.7966 61.017 48.9672 61.017 40.5422C61.017 32.1175 54.1864 25.2881 45.7625 25.2881ZM45.7621 54.4393H35.5711L38.7969 52.5661C34.6537 50.1602 31.8654 45.6784 31.8654 40.5422C31.8654 32.867 38.087 26.6455 45.7621 26.6455C53.4373 26.6455 59.6592 32.867 59.6592 40.5422C59.6592 48.2169 53.4373 54.4393 45.7621 54.4393ZM41.1304 44.66C41.3578 44.8874 41.3578 45.2553 41.1304 45.4831C40.903 45.7105 40.5351 45.7105 40.3077 45.4831L35.7883 40.9633C35.5609 40.7359 35.5609 40.368 35.7883 40.1406L40.3077 35.6212C40.5351 35.3938 40.9034 35.3938 41.1304 35.6212C41.3578 35.8482 41.3578 36.2165 41.1304 36.4439L37.0224 40.552L41.1304 44.66ZM50.3946 36.4439C50.1672 36.2165 50.1672 35.8486 50.3946 35.6212C50.622 35.3938 50.9899 35.3938 51.2177 35.6212L55.7371 40.1406C55.9645 40.368 55.9645 40.7363 55.7371 40.9633L51.2177 45.4827C50.9903 45.7101 50.622 45.7101 50.3946 45.4827C50.1672 45.2557 50.1672 44.8874 50.3946 44.66L54.5027 40.552L50.3946 36.4439ZM43.6091 45.8506C43.5285 45.8506 43.4467 45.8334 43.3684 45.7982C43.076 45.6643 42.9469 45.3195 43.0799 45.0271L47.3868 35.5739C47.5199 35.2815 47.8647 35.1523 48.157 35.2858C48.4498 35.4189 48.5786 35.7637 48.4455 36.0561L44.1386 45.5097C44.0412 45.7242 43.8298 45.8506 43.6091 45.8506Z" fill="#1A53F6" stroke="#1A53F6"></path></g></svg> 