<?xml version="1.0" encoding="UTF-8"?> <svg xmlns="http://www.w3.org/2000/svg" xmlns:xlink="http://www.w3.org/1999/xlink" width="90" height="90" viewBox="0 0 90 90"><defs><clipPath id="clip-path"><rect id="Rectangle_8" data-name="Rectangle 8" width="90" height="90" transform="translate(447 282)" fill="#fff" stroke="#707070" stroke-width="1"></rect></clipPath></defs><g id="Mask_Group_8" data-name="Mask Group 8" transform="translate(-447 -282)" clip-path="url(#clip-path)"><g id="Group_20" data-name="Group 20" transform="translate(-131.5 32)"><g id="Layer_2" data-name="Layer 2" transform="translate(591.5 263)"><path id="Path_24" data-name="Path 24" d="M16.284,13.328A3.724,3.724,0,1,0,12.56,9.6a3.724,3.724,0,0,0,3.724,3.724Zm0-4.862A1.138,1.138,0,1,1,15.146,9.6,1.138,1.138,0,0,1,16.284,8.466Z" transform="translate(16.044 5.504)" fill="#1c54f8" stroke="#fff" stroke-width="0.4"></path><path id="Path_25" data-name="Path 25" d="M8.5,29.466v5.716A1.216,1.216,0,0,0,9.38,36.4a1.06,1.06,0,0,0,.414.052,1.319,1.319,0,0,0,1.035-.517l2.586-3.569a14.69,14.69,0,0,1,2.716-2.586l.388,2.431a1.293,1.293,0,0,0,1.267,1.086H27.51a1.293,1.293,0,0,0,1.267-1.086l.388-2.431a14.69,14.69,0,0,1,2.716,2.586l2.586,3.569a1.319,1.319,0,0,0,1.035.517,1.06,1.06,0,0,0,.414,0,1.216,1.216,0,0,0,.879-1.216V29.466a12.931,12.931,0,0,0-6.1-11.121A22.164,22.164,0,0,0,24.2,2.439h0L23.63,1.87a1.241,1.241,0,0,0-1.81,0l-.569.569a22.164,22.164,0,0,0-6.492,15.906A12.931,12.931,0,0,0,8.5,29.466Zm2.922,1.371-.336.44v-1.81A10.345,10.345,0,0,1,14.966,21.4v.233l.828,5.173a16.345,16.345,0,0,0-4.371,4.035Zm22.94-1.371v1.81l-.336-.466a16.345,16.345,0,0,0-4.371-3.957l.828-5.173V21.4A10.345,10.345,0,0,1,34.363,29.466ZM22.725,4.664A19.733,19.733,0,0,1,27.9,21.242l-.931,6.078h0l-.517,3.336h-7.5l-.517-3.336h0l-.879-6.078A19.733,19.733,0,0,1,22.725,4.664Z" transform="translate(9.603 -1.478)" fill="#1c54f8" stroke="#fff" stroke-width="0.4"></path><path id="Path_26" data-name="Path 26" d="M12.46,18.363a10.345,10.345,0,0,0,3.078,6.285,1.241,1.241,0,0,0,1.81,0,10.345,10.345,0,0,0,3.078-6.285,3.983,3.983,0,1,0-7.966,0Zm5.379,0a6.44,6.44,0,0,1-1.4,3.362,6.362,6.362,0,0,1-1.4-3.362,1.4,1.4,0,1,1,2.793,0Z" transform="translate(15.886 18.987)" fill="#1c54f8" stroke="#fff" stroke-width="0.4"></path><path id="Path_27" data-name="Path 27" d="M61.424,3.5H44.174a1.293,1.293,0,0,0,0,2.586h17.25a2.147,2.147,0,0,1,2.147,2.147V37.122H41.587a1.293,1.293,0,1,0,0,2.586H63.571v3.026a2.147,2.147,0,0,1-2.147,2.147H6.233a2.147,2.147,0,0,1-2.147-2.147V39.708H26.07a1.293,1.293,0,1,0,0-2.586H4.086V8.233A2.147,2.147,0,0,1,6.233,6.086h17.25a1.293,1.293,0,1,0,0-2.586H6.233A4.733,4.733,0,0,0,1.5,8.233v34.5a4.733,4.733,0,0,0,4.733,4.733h20.69l-1.94,7.759h-1.5a3.879,3.879,0,0,0,0,7.759h20.69a3.879,3.879,0,1,0,0-7.759H42.6l-1.94-7.759h20.69a4.733,4.733,0,0,0,4.733-4.733V8.233A4.733,4.733,0,0,0,61.423,3.5ZM45.467,59.1A1.293,1.293,0,0,1,44.174,60.4H23.483a1.293,1.293,0,0,1,0-2.586h20.69A1.293,1.293,0,0,1,45.467,59.1Zm-5.535-3.879H27.725l1.94-7.759h8.328Z" transform="translate(-1.5 1.728)" fill="#1c54f8" stroke="#fff" stroke-width="0.4"></path></g></g></g></svg> 