<?xml version="1.0" encoding="UTF-8"?> <svg xmlns="http://www.w3.org/2000/svg" xmlns:xlink="http://www.w3.org/1999/xlink" width="90" height="90" viewBox="0 0 90 90"><defs><clipPath id="clip-path"><rect id="Rectangle_6" data-name="Rectangle 6" width="90" height="90" transform="translate(87 282)" fill="#fff" stroke="#707070" stroke-width="1"></rect></clipPath></defs><g id="Mask_Group_6" data-name="Mask Group 6" transform="translate(-87 -282)" clip-path="url(#clip-path)"><g id="Group_6" data-name="Group 6" transform="translate(-527.229 18.107)"><path id="Path_12" data-name="Path 12" d="M62.553,69.515a4.13,4.13,0,0,0-3.995,3.138H48.095V64.97a.987.987,0,0,0-.988-.988,19.825,19.825,0,1,1,0-39.65.987.987,0,0,0,.988-.988V15.652H58.567a4.126,4.126,0,1,0,0-1.976H48.095V4.5a.987.987,0,0,0-.988-.988H41.871A3.469,3.469,0,0,0,38.4,6.84c-.2,5.087-2.474,9.248-6.241,11.425s-8.514,2.063-13.016-.306A3.46,3.46,0,0,0,14.52,19.3L9.293,28.361a3.458,3.458,0,0,0,1.154,4.668c4.4,2.771,6.914,6.827,6.914,11.119S14.843,52.5,10.446,55.267a3.458,3.458,0,0,0-1.154,4.668L14.529,69a3.471,3.471,0,0,0,4.624,1.337c4.5-2.369,9.248-2.483,13.016-.306s6.04,6.337,6.241,11.425a3.457,3.457,0,0,0,3.47,3.33h5.236A.987.987,0,0,0,48.1,83.8v-9.17H58.576a4.121,4.121,0,1,0,3.977-5.114Zm0-57a2.142,2.142,0,1,1-2.142,2.142A2.145,2.145,0,0,1,62.553,12.513ZM46.111,82.8H41.871a1.484,1.484,0,0,1-1.486-1.425c-.227-5.778-2.867-10.542-7.229-13.068a13.748,13.748,0,0,0-6.914-1.827,17.3,17.3,0,0,0-8.016,2.089A1.488,1.488,0,0,1,16.242,68l-5.236-9.065a1.481,1.481,0,0,1,.5-2c4.982-3.138,7.841-7.806,7.841-12.8s-2.858-9.65-7.841-12.8a1.487,1.487,0,0,1-.5-2l5.236-9.065a1.486,1.486,0,0,1,1.984-.568c5.122,2.692,10.559,2.788,14.93.271S40.167,12.7,40.385,6.91a1.478,1.478,0,0,1,1.486-1.425h4.239V22.356a21.81,21.81,0,0,0,0,43.575Zm16.442-7.019a2.142,2.142,0,1,1,2.142-2.142A2.145,2.145,0,0,1,62.553,75.782Zm10.14-30.647a4.126,4.126,0,1,0,0-1.976h-24.6v-7.5H61.469a1.011,1.011,0,0,0,.5-.131l8.462-4.886a4.287,4.287,0,1,0-.988-1.722l-8.234,4.755H48.095V28.09a.987.987,0,0,0-.988-.988,17.045,17.045,0,1,0,0,34.091.987.987,0,0,0,.988-.988V54.62H61.207l8.234,4.755a4.013,4.013,0,0,0-.175,1.136,4.147,4.147,0,1,0,1.163-2.858l-8.462-4.886a.987.987,0,0,0-.5-.131H48.095v-7.5h24.6Zm3.995-3.129a2.142,2.142,0,1,1-2.142,2.142A2.145,2.145,0,0,1,76.687,42.006Zm-3.3-16.364a2.142,2.142,0,1,1-2.142,2.142A2.145,2.145,0,0,1,73.383,25.643ZM46.111,59.183a15.068,15.068,0,0,1,0-30.07v30.07Zm27.273-.822A2.142,2.142,0,1,1,71.242,60.5,2.145,2.145,0,0,1,73.383,58.361Z" transform="translate(614.41 264.745)" fill="#1c54f8"></path></g></g></svg> 