<?xml version="1.0" encoding="UTF-8"?> <svg xmlns="http://www.w3.org/2000/svg" width="90" height="90" viewBox="0 0 90 90" fill="none"><mask id="mask0_3_8" style="mask-type:alpha" maskUnits="userSpaceOnUse" x="0" y="0" width="90" height="90"><rect width="90" height="90" fill="#D9D9D9"></rect></mask><g mask="url(#mask0_3_8)"><path d="M86.7857 -2H3.21429C1.43921 -2 0 -0.560791 0 1.21429V84.7857C0 86.5608 1.43921 88 3.21429 88H86.7857C88.5608 88 90 86.5608 90 84.7857V1.21429C90 -0.560791 88.5608 -2 86.7857 -2ZM83.5714 17.2857H46.987L53.4155 4.42857H83.5714V17.2857ZM34.1298 17.2857L40.5584 4.42857H46.2273L39.7988 17.2857H34.1298ZM6.42857 4.42857H33.3702L26.9416 17.2857H6.42857V4.42857ZM83.5714 81.5714H6.42857V23.7143H83.5714V81.5714Z" fill="#1A53F6" stroke="white" stroke-width="3"></path><path d="M12.8571 14.0714C14.6323 14.0714 16.0714 12.6323 16.0714 10.8571C16.0714 9.08194 14.6323 7.64285 12.8571 7.64285C11.0819 7.64285 9.64285 9.08194 9.64285 10.8571C9.64285 12.6323 11.0819 14.0714 12.8571 14.0714Z" fill="#1A53F6" stroke="white" stroke-width="3"></path><path d="M22.5 14.0714C24.2752 14.0714 25.7143 12.6323 25.7143 10.8571C25.7143 9.08194 24.2752 7.64285 22.5 7.64285C20.7248 7.64285 19.2857 9.08194 19.2857 10.8571C19.2857 12.6323 20.7248 14.0714 22.5 14.0714Z" fill="#1A53F6" stroke="white" stroke-width="3"></path><path d="M25.7143 33.3571C23.9392 33.3571 22.5 34.7964 22.5 36.5714V44.2273L11.4195 49.7676C10.3303 50.3122 9.64285 51.4249 9.64285 52.6429V68.7143C9.64285 69.9322 10.3303 71.045 11.4195 71.5896L24.2766 78.0181C24.7287 78.2441 25.2215 78.3571 25.7143 78.3571C26.2071 78.3571 26.6999 78.2441 27.1519 78.0181L39.3311 71.9286H64.2857C66.0608 71.9286 67.5 70.4894 67.5 68.7143V61.0584L78.5805 55.5181C79.6697 54.9735 80.3571 53.8608 80.3571 52.6429V36.5714C80.3571 35.3535 79.6697 34.2408 78.5805 33.6962L65.7234 27.2676C64.8193 26.8156 63.7521 26.8156 62.8481 27.2676L50.6689 33.3571H25.7143ZM61.0714 44.9868V53.8702L54.6429 50.6559V41.7721L61.0714 44.9868ZM25.7143 55.4773L20.0453 52.6429L25.7143 49.8084L31.3832 52.6429L25.7143 55.4773ZM16.0714 57.8441L22.5 61.0584V69.9416L16.0714 66.7273V57.8441ZM28.9286 69.9416V61.0584L35.3571 57.8441V66.7273L28.9286 69.9416ZM41.7857 65.5V52.6429C41.7857 51.4249 41.0983 50.3122 40.0091 49.7676L28.9286 44.2273V39.7857H48.2143V52.6429C48.2143 53.8608 48.9017 54.9735 49.9909 55.5181L61.0714 61.0584V65.5H41.7857ZM67.5 53.8702V44.987L73.9286 41.7727V50.6559L67.5 53.8702ZM64.2857 33.737L69.9547 36.5714L64.2857 39.4059L58.6168 36.5714L64.2857 33.737Z" fill="#1A53F6" stroke="white" stroke-width="3"></path></g></svg> 