<?xml version="1.0" encoding="UTF-8"?> <svg xmlns="http://www.w3.org/2000/svg" width="300" height="186" viewBox="0 0 300 186"><g id="Group_38" data-name="Group 38" transform="translate(-537 -543)"><g id="Group_6" data-name="Group 6" transform="translate(455 404)"><rect id="Rectangle_2" data-name="Rectangle 2" width="300" height="186" transform="translate(82 139)" fill="#051c2c"></rect></g><g id="Group_37" data-name="Group 37" transform="translate(1024.449 -209)"><g id="Group_36" data-name="Group 36" transform="translate(-390.449 807)"><path id="Path_8" data-name="Path 8" d="M4.71,113.55a.414.414,0,0,0-.414-.414H3.965a.414.414,0,1,0,0,.829H4.3A.414.414,0,0,0,4.71,113.55Z" transform="translate(-3.551 -37.479)" fill="#fff" stroke="#fff" stroke-width="1"></path><path id="Path_9" data-name="Path 9" d="M6.051,97.936a.414.414,0,0,0,.414.414H108.086a.414.414,0,0,0,0-.829h-2.863a5.09,5.09,0,0,0,2.312-4.264v-57.1a5.1,5.1,0,0,0-3.684-4.894c-.021-.006-.043-.008-.064-.014V24.48a2.623,2.623,0,0,0-2.62-2.615h-22A2.618,2.618,0,0,0,76.55,24.48v6.591H69.916a5.193,5.193,0,0,0-5.129-4.443,5.105,5.105,0,0,0-2.451.618,9.067,9.067,0,0,0-16.85,3.825H12.258a5.088,5.088,0,0,0-5.073,5.09v57.1a5.225,5.225,0,0,0,.2,1.408,5.1,5.1,0,0,0,2.148,2.856H6.465A.414.414,0,0,0,6.051,97.936ZM77.379,24.48a1.789,1.789,0,0,1,1.787-1.787h22a1.794,1.794,0,0,1,1.791,1.787V39.717a1.791,1.791,0,0,1-1.791,1.787H81.97a.413.413,0,0,0-.271.1l-4.319,3.734ZM57.836,31.494A14.48,14.48,0,0,1,71.825,45.943v3.263c-.1-.057-.208-.1-.314-.151a4.069,4.069,0,0,0-1.717-.3v-.92a8.1,8.1,0,0,0-2.85-6.139c-.167-.143-.331-.289-.511-.422l-.19-.139-.217.092a21.966,21.966,0,0,1-17.331,0l-.213-.086,0,0h0l-.186.135a8.054,8.054,0,0,0-3.359,6.56v.92h-.3a3.723,3.723,0,0,0-1.733.45V46.655C42.9,38.468,49.649,31.237,57.836,31.494ZM69.79,49.582a2.987,2.987,0,0,1,1.783.444,2.7,2.7,0,0,1,.217.169A2.665,2.665,0,0,1,72.8,52.272a2.72,2.72,0,0,1-2.717,2.717h-.3ZM61.355,66.358l-.033.013A11.549,11.549,0,0,1,45.762,55.534V49.581h0V47.833A7.224,7.224,0,0,1,48.6,42.08a22.749,22.749,0,0,0,17.526,0c.156.121.3.254.443.385a7.405,7.405,0,0,1,1.249,1.456,7.19,7.19,0,0,1,1.142,3.909v7.128a12.494,12.494,0,0,1-3.8,8.917A11.684,11.684,0,0,1,61.355,66.358Zm-.521,1.063v4.135a.554.554,0,0,1-.353.511,9.31,9.31,0,0,1-6.261.012.531.531,0,0,1-.333-.5V67.473a12.081,12.081,0,0,0,6.933-.048Zm-15.9-12.432h-.3a2.72,2.72,0,0,1-2.717-2.717c0-1.817,1.2-2.409,3.013-2.69Zm-2.859-8.334v3.2a3.486,3.486,0,0,0-.983,2.419,3.55,3.55,0,0,0,3.546,3.546h.31a12.431,12.431,0,0,0,8.111,11.368V69.3c-.325.046-.649.092-.975.149A21.987,21.987,0,0,0,34.407,90.986v1.783h-16.9l.074-56.193L45.6,36.6A16.352,16.352,0,0,0,42.075,46.655ZM35.236,90.986A21.164,21.164,0,0,1,44.93,73.23v4.386A4.857,4.857,0,0,0,40.5,82.082l-.388,4.409a1.649,1.649,0,0,0,1.35,1.743,1.333,1.333,0,1,0,.028-.854.8.8,0,0,1-.552-.823l.388-4.409a4.041,4.041,0,0,1,4.009-3.742l.008,0,.008,0a4.042,4.042,0,0,1,4.011,3.75l.394,4.487a.711.711,0,0,1-.526.75,1.325,1.325,0,1,0,.022.849,1.558,1.558,0,0,0,1.33-1.665l-.394-4.487a4.859,4.859,0,0,0-4.43-4.474v-4.9a20.834,20.834,0,0,1,5.572-2.232,6.463,6.463,0,0,0-.625,2.789v19.5H35.236Zm6.993-3.135a.5.5,0,1,1,.508.508A.508.508,0,0,1,42.229,87.851Zm6.26,0A.49.49,0,1,1,48,87.357.494.494,0,0,1,48.489,87.851Zm3.045,4.918v-19.5a5.581,5.581,0,0,1,.891-3.037c.209-.036.421-.065.633-.1v1.441a1.356,1.356,0,0,0,.88,1.277,9.745,9.745,0,0,0,3.314.579,11.174,11.174,0,0,0,3.49-.584,1.379,1.379,0,0,0,.921-1.3V70.14c.214.031.428.062.636.1a5.582,5.582,0,0,1,.891,3.038v19.5Zm11.861-22.28a20.968,20.968,0,0,1,5.563,2.246v9.017a3.282,3.282,0,1,0,.829,0v-8.5a21.2,21.2,0,0,1,9.7,17.761v1.757H64.018v-19.5A6.461,6.461,0,0,0,63.395,70.489Zm5.937,12.054a.389.389,0,0,0,.04.008.377.377,0,0,0,.04-.008,2.446,2.446,0,1,1-.08,0Zm-6.7-13.1c-.318-.055-.642-.1-.965-.147V67.122a12.5,12.5,0,0,0,4.073-2.649,13.338,13.338,0,0,0,4.011-8.655h.34a3.55,3.55,0,0,0,3.546-3.546,3.485,3.485,0,0,0-.978-2.413V45.943a15.077,15.077,0,0,0-3.208-9.333l7.1.007v9.628a.416.416,0,0,0,.415.408.43.43,0,0,0,.28-.1l4.878-4.215H97.206l-.065,50.436H80.313V91.011A22.045,22.045,0,0,0,62.628,69.448ZM76.55,35.788l-7.807-.007c-.092-.1-.182-.2-.277-.3a5.165,5.165,0,0,0,1.5-3.578H76.55ZM54.492,23.6a8.263,8.263,0,0,1,7.144,4.121A5.167,5.167,0,0,0,60.582,28.8a.414.414,0,0,0,.093.579.409.409,0,0,0,.242.079.415.415,0,0,0,.336-.172,4.376,4.376,0,0,1,3.539-1.812c.014,0,.025-.006.038-.008A4.364,4.364,0,0,1,67.9,34.883a15.267,15.267,0,0,0-10.035-4.218,14.8,14.8,0,0,0-10.8,4.281c-.028.027-.052.058-.079.085s-.029.025-.043.039A8.223,8.223,0,0,1,54.492,23.6ZM8.181,94.439a4.384,4.384,0,0,1-.167-1.181v-57.1A4.257,4.257,0,0,1,12.258,31.9h33.2a9,9,0,0,0,.89,3.822l-.046.049-29.132-.024h0a.415.415,0,0,0-.414.414l-.074,57.022a.414.414,0,0,0,.414.415H97.555a.415.415,0,0,0,.414-.414l.066-50.851h3.132a2.621,2.621,0,0,0,2.62-2.615V32.125a4.262,4.262,0,0,1,2.919,4.036v57.1a4.257,4.257,0,0,1-4.244,4.26h-.144V87.46a.414.414,0,1,0-.829,0V97.518H12.258A4.273,4.273,0,0,1,8.181,94.439Z" transform="translate(-3.978 -21.865)" fill="#fff" stroke="#fff" stroke-width="1"></path><path id="Path_10" data-name="Path 10" d="M131.726,113.135h-.667a.414.414,0,0,0,0,.829h.667a.414.414,0,1,0,0-.829Z" transform="translate(-25.293 -37.479)" fill="#fff" stroke="#fff" stroke-width="1"></path><path id="Path_11" data-name="Path 11" d="M121.638,78.678a2.784,2.784,0,1,0-2.784-2.784A2.787,2.787,0,0,0,121.638,78.678Zm0-4.739a1.955,1.955,0,1,1-1.955,1.955A1.957,1.957,0,0,1,121.638,73.939Z" transform="translate(-23.276 -30.631)" fill="#fff" stroke="#fff" stroke-width="1"></path><path id="Path_12" data-name="Path 12" d="M13.757,77.7V68.478a.414.414,0,1,0-.829,0V77.7a.414.414,0,1,0,.829,0Z" transform="translate(-5.155 -29.768)" fill="#fff" stroke="#fff" stroke-width="1"></path><path id="Path_13" data-name="Path 13" d="M13.343,64.677a.414.414,0,0,0,.414-.414v-.969a.414.414,0,1,0-.829,0v.969A.414.414,0,0,0,13.343,64.677Z" transform="translate(-5.155 -28.881)" fill="#fff" stroke="#fff" stroke-width="1"></path><path id="Path_14" data-name="Path 14" d="M62.606,66.482a4.334,4.334,0,0,0,4.329,4.329h.2a4.314,4.314,0,0,0,4.329-4.329v-.414H62.606Zm8.008.414a3.481,3.481,0,0,1-3.476,3.086h-.2A3.505,3.505,0,0,1,63.459,66.9Z" transform="translate(-13.653 -29.427)" fill="#fff" stroke="#fff" stroke-width="1"></path><path id="Path_15" data-name="Path 15" d="M61.126,55.661c-.776,0-1.384.835-1.384,1.9s.608,1.9,1.384,1.9,1.391-.834,1.391-1.9S61.906,55.661,61.126,55.661Zm0,2.972c-.262,0-.555-.457-.555-1.07s.293-1.073.555-1.073.562.459.562,1.073S61.391,58.633,61.126,58.633Z" transform="translate(-13.163 -27.646)" fill="#fff" stroke="#fff" stroke-width="1"></path><path id="Path_16" data-name="Path 16" d="M74.2,55.661c-.776,0-1.384.835-1.384,1.9s.608,1.9,1.384,1.9,1.39-.834,1.39-1.9S74.977,55.661,74.2,55.661Zm0,2.972c-.262,0-.555-.457-.555-1.07s.293-1.073.555-1.073.561.459.561,1.073S74.463,58.633,74.2,58.633Z" transform="translate(-15.399 -27.646)" fill="#fff" stroke="#fff" stroke-width="1"></path><path id="Path_17" data-name="Path 17" d="M62.786,54.664a.415.415,0,0,0,.393-.73,5.507,5.507,0,0,0-5.031,0,.414.414,0,0,0,.4.725A4.662,4.662,0,0,1,62.786,54.664Z" transform="translate(-12.854 -27.245)" fill="#fff" stroke="#fff" stroke-width="1"></path><path id="Path_18" data-name="Path 18" d="M76.6,54.5a.415.415,0,0,0-.168-.562,5.507,5.507,0,0,0-5.031,0,.414.414,0,0,0,.4.725,4.662,4.662,0,0,1,4.236,0A.415.415,0,0,0,76.6,54.5Z" transform="translate(-15.122 -27.245)" fill="#fff" stroke="#fff" stroke-width="1"></path><path id="Path_19" data-name="Path 19" d="M102.46,38.069a3.041,3.041,0,0,0,1.35.325h8.348a3.087,3.087,0,0,0,0-6.173h-7.973v-1.5h0V26.961a3.087,3.087,0,0,0-6.173,0v3.759h0v4.592a3.1,3.1,0,0,0,.9,2.173A3.057,3.057,0,0,0,102.46,38.069Zm9.7-5.019a2.26,2.26,0,0,1,2.255,2.26,2.257,2.257,0,0,1-2.255,2.255H108.4c0-.083,0-4.731,0-4.515Zm-4.588,4.515h-3.76a2.231,2.231,0,0,1-1.193-.35,2.255,2.255,0,0,1-.961-2.548,2.231,2.231,0,0,1,2.154-1.618h3.759C107.569,33.133,107.57,37.781,107.57,37.565Zm-8.731-10.6a2.258,2.258,0,0,1,4.515,0v3.759H98.839Zm0,4.588h4.518v.7c-.034,0-.066.017-.1.023a3.037,3.037,0,0,0-2.372,2.091,3.019,3.019,0,0,0,.748,3.126l.007.009a2.259,2.259,0,0,1-2.8-2.188Z" transform="translate(-19.71 -22.209)" fill="#fff" stroke="#fff" stroke-width="1"></path><path id="Path_20" data-name="Path 20" d="M121.6,98.051a.414.414,0,0,0-.414.414v.37a.414.414,0,0,0,.829,0v-.37A.414.414,0,0,0,121.6,98.051Z" transform="translate(-23.675 -34.898)" fill="#fff" stroke="#fff" stroke-width="1"></path></g></g></g></svg> 