<?xml version="1.0" encoding="UTF-8"?> <svg xmlns="http://www.w3.org/2000/svg" width="300" height="186" viewBox="0 0 300 186"><g id="Group_35" data-name="Group 35" transform="translate(-123 -543)"><g id="Group_5" data-name="Group 5" transform="translate(41 404)"><rect id="Rectangle_2" data-name="Rectangle 2" width="300" height="186" transform="translate(82 139)" fill="#051c2c"></rect></g><g id="Group_34" data-name="Group 34" transform="translate(358.822 -3)"><path id="Path_7" data-name="Path 7" d="M80.48,37.451ZM45.67,15.874ZM69.168,15.139ZM8.4,79.863ZM82.417,74.3ZM48.264,43.567A19.862,19.862,0,1,1,43.2,57.892,19.791,19.791,0,0,1,48.264,43.567ZM34.209,67.631a.919.919,0,0,0,.248-.659.94.94,0,0,0-.292-.646.918.918,0,0,0-.46-.235l-.031,0a.129.129,0,0,1-.04-.009,1.244,1.244,0,0,0-.128,0,.94.94,0,0,0-.646.292.919.919,0,0,0-.248.659.94.94,0,0,0,.292.646.919.919,0,0,0,.659.248.875.875,0,0,0,.646-.288Zm-13.917-13a.943.943,0,0,0,.252-.659c0-.027,0-.049,0-.075s0-.035-.009-.058a.953.953,0,0,0-.279-.513.919.919,0,0,0-1.305.04.919.919,0,0,0-.248.659.929.929,0,0,0,.951.9.922.922,0,0,0,.642-.292Zm12.5-7.138-5.58,5.943a1.069,1.069,0,0,1-.58.319l-3.987.841a3.082,3.082,0,1,1-.912-2.841,3.046,3.046,0,0,1,.562.708l1.624-.341,1.952-.412L28.324,49.1l2.89-3.075-5.779-5.43L9.286,57.785a.641.641,0,0,1-.075.08A14.5,14.5,0,0,0,9.83,78.238c.027.022.049.044.075.066a14.5,14.5,0,0,0,20.418-.668L39.4,67.963A26.058,26.058,0,0,1,37.015,59l-.5.535-.947,1.013-.19,1.305L35.019,64.3a3.191,3.191,0,0,1,.624.451,3.081,3.081,0,1,1-2.761-.77l.593-4.08a1.08,1.08,0,0,1,.283-.589l3.177-3.385a25.358,25.358,0,0,1,.363-3.514l-4.461,4.753-.412.438-.022.164-.651,4.461a1.065,1.065,0,0,1-.31.615l-5.536,5.9a3.039,3.039,0,0,1,.314,1.27,3.084,3.084,0,1,1-3.177-2.987,3.151,3.151,0,0,1,1.288.235l5.2-5.545.124-.133.009-.049.664-4.571a1.08,1.08,0,0,1,.283-.589l5.443-5.8-.783-.735L25.58,60.17a3.094,3.094,0,0,1-.522,3.478A3.078,3.078,0,1,1,24,58.692l9.7-10.329ZM23.5,62.165a.919.919,0,0,1-1.305.04.9.9,0,0,1-.292-.642.924.924,0,0,1,1.553-.7l.009.009a.917.917,0,0,1,.288.642.94.94,0,0,1-.252.655Zm.323,8.572a.906.906,0,0,1-.646.292.923.923,0,1,1,.6-1.6.924.924,0,0,1,.044,1.305ZM64.806,16.979a1.079,1.079,0,1,1-1.217,1.783A10.341,10.341,0,0,0,50.3,20.219l-8.324,8.864A1.08,1.08,0,1,1,40.4,27.6l8.324-8.864a12.49,12.49,0,0,1,16.081-1.757ZM39.511,45.514,28.784,35.442a1.082,1.082,0,0,1-.049-1.527l.1-.1L45.671,15.878l.022-.022.031-.031a16.672,16.672,0,0,1,23.446-.682l.053.053a16.5,16.5,0,0,1,4.828,8.709,16.791,16.791,0,0,1-.637,9.005,26,26,0,0,1,7.058,4.545l.044.044a26.111,26.111,0,0,1,4.6,33.229l3.075,2.77.155-.177a1.08,1.08,0,0,1,1.527-.089c.013.009.022.022.035.031l16.962,15.422a6.233,6.233,0,0,1,.761,9.094,6.111,6.111,0,0,1-9,.124L81.663,82.455a1.08,1.08,0,0,1-.08-1.518l.292-.327-3.2-2.876a26.112,26.112,0,0,1-33.109-1.487l-.044-.04,0,0a26.115,26.115,0,0,1-5.049-6.213L31.9,79.118a16.674,16.674,0,0,1-23.5.739l-.022-.022L8.346,79.8a16.672,16.672,0,0,1-.682-23.446l.022-.022.027-.027L24.6,38.321a1.082,1.082,0,0,1,1.527-.049L38,49.42a25.638,25.638,0,0,1,1.513-3.907ZM71.4,32.133a14.643,14.643,0,0,0,.54-7.8,14.349,14.349,0,0,0-4.2-7.572c-.027-.022-.049-.044-.075-.071a14.5,14.5,0,0,0-20.374.619c-.022.027-.044.049-.066.075L31.05,34.611l9.519,8.935a25.958,25.958,0,0,1,3.058-4.151l.04-.044,0,0A26.118,26.118,0,0,1,71.4,32.132ZM82.714,70.455a.981.981,0,0,1,.186-.283.2.2,0,0,1,.031-.031A23.935,23.935,0,0,0,79.068,39.1c-.027-.022-.049-.044-.075-.066a23.922,23.922,0,0,0-33.725,1.775c-.022.027-.044.049-.066.075a23.822,23.822,0,0,0-6.107,15.515V56.4c-.009.571,0,1.146.027,1.717a23.871,23.871,0,0,0,7.85,16.493c.027.022.053.044.075.066A23.916,23.916,0,0,0,80.775,72.9c.022-.027.044-.049.066-.075a23.627,23.627,0,0,0,1.872-2.367Zm6.417,5.253c-.009.013-.022.027-.031.04l-.027.027-4.841,5.443a.253.253,0,0,1-.031.035c-.009.009-.013.018-.022.027l-.266.3L100.11,96.3a4.153,4.153,0,0,0,4.58,1.018,4.019,4.019,0,0,0,1.359-.991,4.113,4.113,0,0,0,.854-1.46,4.265,4.265,0,0,0-1.469-4.589l-16.178-14.7Zm-2.363-.6-2.876-2.589q-.69.916-1.474,1.788l-.044.044a27.578,27.578,0,0,1-2.009,2l2.943,2.646ZM62.088,39.177A17.694,17.694,0,1,0,74.856,43.7a17.638,17.638,0,0,0-12.767-4.518Z" transform="translate(-142 583.343)" fill="#fff" fill-rule="evenodd"></path></g></g></svg> 