<?xml version="1.0" encoding="UTF-8"?> <svg xmlns="http://www.w3.org/2000/svg" width="300" height="186" viewBox="0 0 300 186"><g id="Group_75" data-name="Group 75" transform="translate(-1365 -155)"><g id="Group_4" data-name="Group 4" transform="translate(1283 16)"><rect id="Rectangle_2" data-name="Rectangle 2" width="300" height="186" transform="translate(82 139)" fill="#051c2c"></rect></g><path id="Path_107" data-name="Path 107" d="M46.412,75.707a1.681,1.681,0,0,1,.181.807,16.656,16.656,0,0,0,23.282-.259,3.287,3.287,0,0,0-.215-2.333,2.513,2.513,0,0,0-1.268-1.091H48.9v-.007a2.692,2.692,0,0,0-1.41.092,2.04,2.04,0,0,0-1.077,2.792Zm-3.145-3.665a5.722,5.722,0,0,1,5.744-2.886H68.685a1.916,1.916,0,0,1,.669.124,6.2,6.2,0,0,1,3.47,2.808.771.771,0,0,1,.046.085,16.65,16.65,0,1,0-29.6-.131Zm14.9-21.416a8.847,8.847,0,1,1-8.85,8.843,8.84,8.84,0,0,1,8.85-8.843Zm3.658,5.185a5.177,5.177,0,1,0,0,7.324,5.181,5.181,0,0,0,0-7.324Zm-18.09-5.7a20.317,20.317,0,1,1,0,28.733,20.319,20.319,0,0,1,0-28.733Zm-4.424-4.424a26.58,26.58,0,0,1,38.72,1.2H111.74a1.835,1.835,0,0,1,1.831,1.838v5.21a35.125,35.125,0,0,0,15.587,4.685,1.838,1.838,0,0,1,1.71,1.625h.007a39.162,39.162,0,0,1-17.3,37.2V115.77a1.829,1.829,0,0,1-1.831,1.831H78.177v6.159H89.23a4.45,4.45,0,0,1,4.445,4.445v4.158a4.45,4.45,0,0,1-4.445,4.445H48.659a4.45,4.45,0,0,1-4.445-4.445v-4.158a4.45,4.45,0,0,1,4.445-4.445H59.712V117.6H26.151a1.829,1.829,0,0,1-1.831-1.831V48.73a1.835,1.835,0,0,1,1.831-1.838H38.179c.358-.41.74-.814,1.132-1.2Zm41.441,4.873a26.6,26.6,0,0,1-.442,28.524l6.53,6.53a3.768,3.768,0,0,1,2.366-.825V84.8a3.8,3.8,0,0,1,2.7,1.112l10.28,10.278a3.821,3.821,0,0,1,0,5.387l-1.3,1.3h9.024V97.579A39.168,39.168,0,0,1,92.414,60.251,1.839,1.839,0,0,1,94.2,58.626a35.174,35.174,0,0,0,15.7-4.793V50.562ZM78.067,82.029a28.125,28.125,0,0,1-2.32,2.327l6.159,6.152,2.32-2.32Zm-5.242,4.587A26.583,26.583,0,0,1,35.458,50.562H27.985v52.313H83.974l-4.523-4.523a3.827,3.827,0,0,1-.138-5.245ZM58.1,41.569A22.911,22.911,0,1,0,81.011,64.48,22.914,22.914,0,0,0,58.1,41.569ZM97.21,106.537l-2.086,2.093a3.83,3.83,0,0,1-5.394,0l-2.086-2.093H27.985v7.4h81.921v-7.4ZM89.1,88.5l-7.055,7.055v.2l10.285,10.278h.2l7.055-7.055v-.2L89.308,88.5a.149.149,0,0,0-.1-.046v.007a.158.158,0,0,0-.105.039Zm17.732-13.3A1.826,1.826,0,0,1,110,73.381l.195.332,3.386-3.386a1.833,1.833,0,0,1,2.592,2.592L111.1,77.995l-.007-.007a1.832,1.832,0,0,1-2.879-.383Zm4.816-12.678A11.634,11.634,0,1,1,100.011,74.16a11.636,11.636,0,0,1,11.637-11.637Zm5.632,6.006a7.966,7.966,0,1,0,0,11.266,7.963,7.963,0,0,0,0-11.266Zm10.132-5.815c-.007-.181-.021-.371-.032-.559a39.017,39.017,0,0,1-15.731-5.1,39.063,39.063,0,0,1-15.731,5.1,35.49,35.49,0,0,0,15.731,32.189,35.48,35.48,0,0,0,15.763-31.63ZM89.23,127.428H48.659a.785.785,0,0,0-.772.779v4.158a.779.779,0,0,0,.772.772H89.23a.779.779,0,0,0,.772-.772v-4.158a.785.785,0,0,0-.772-.779ZM74.508,117.6H63.384v6.159H74.508Z" transform="translate(1437.68 161.097)" fill="#fff" stroke="#051b2c" stroke-width="1.4"></path></g></svg> 