<?xml version="1.0" encoding="UTF-8"?> <svg xmlns="http://www.w3.org/2000/svg" width="300" height="186" viewBox="0 0 300 186"><g id="Group_41" data-name="Group 41" transform="translate(-1365 -543)"><g id="Group_8" data-name="Group 8" transform="translate(1283 404)"><rect id="Rectangle_2" data-name="Rectangle 2" width="300" height="186" transform="translate(82 139)" fill="#051c2c"></rect></g><g id="Group_40" data-name="Group 40" transform="translate(1449.5 571)"><path id="Path_22" data-name="Path 22" d="M27.5,78.962H19.26a1.115,1.115,0,0,1-1.112-1.112V48.983a1.115,1.115,0,0,1,1.112-1.112H27.5a4.57,4.57,0,0,1,4.564,4.564V74.393A4.567,4.567,0,0,1,27.5,78.957Zm-7.126-2.224H27.5a2.345,2.345,0,0,0,2.34-2.346V52.435a2.349,2.349,0,0,0-2.34-2.346H20.372Z" transform="translate(2.39 13.907)" fill="#fff" fill-rule="evenodd"></path><path id="Path_23" data-name="Path 23" d="M107.691,59.279a1.115,1.115,0,0,1-1.112-1.112A43.911,43.911,0,0,0,94.411,28.049a1.113,1.113,0,0,1,1.607-1.54A46.144,46.144,0,0,1,108.8,58.167a1.111,1.111,0,0,1-1.112,1.112Zm-88.431,0a1.115,1.115,0,0,1-1.112-1.112A45.079,45.079,0,0,1,30.989,26.559a1.113,1.113,0,0,1,1.6,1.551A42.878,42.878,0,0,0,20.377,58.167a1.115,1.115,0,0,1-1.112,1.112Z" transform="translate(2.389 4.723)" fill="#fff" fill-rule="evenodd"></path><path id="Path_24" data-name="Path 24" d="M21.65,74.222H15.986A3.487,3.487,0,0,1,12.5,70.736V53.927a3.487,3.487,0,0,1,3.485-3.485H21.65a1.112,1.112,0,0,1,0,2.224H15.986a1.265,1.265,0,0,0-1.262,1.262V70.736A1.264,1.264,0,0,0,15.986,72H21.65a1.112,1.112,0,1,1,0,2.224Z" transform="translate(0 14.994)" fill="#fff" fill-rule="evenodd"></path><path id="Path_25" data-name="Path 25" d="M84.876,78.961H76.638A4.567,4.567,0,0,1,72.074,74.4V52.439a4.567,4.567,0,0,1,4.564-4.564h8.238a1.115,1.115,0,0,1,1.112,1.112V77.854a1.115,1.115,0,0,1-1.112,1.112ZM76.638,50.094a2.345,2.345,0,0,0-2.34,2.346V74.4a2.349,2.349,0,0,0,2.34,2.346h7.126V50.1H76.638Z" transform="translate(25.204 13.908)" fill="#fff" fill-rule="evenodd"></path><path id="Path_26" data-name="Path 26" d="M87.066,74.222H81.4A1.112,1.112,0,0,1,81.4,72h5.665a1.264,1.264,0,0,0,1.262-1.262V53.927a1.265,1.265,0,0,0-1.262-1.262H81.4a1.112,1.112,0,0,1,0-2.224h5.665a3.487,3.487,0,0,1,3.485,3.485V70.736a3.487,3.487,0,0,1-3.485,3.485Z" transform="translate(28.68 14.994)" fill="#fff" fill-rule="evenodd"></path><path id="Path_27" data-name="Path 27" d="M50.685,87.553H27.849a9.713,9.713,0,0,1-9.7-9.7V69.264a1.112,1.112,0,0,1,2.224,0v8.589a7.486,7.486,0,0,0,7.477,7.477H50.685a1.112,1.112,0,1,1,0,2.224Z" transform="translate(2.39 22.487)" fill="#fff" fill-rule="evenodd"></path><path id="Path_28" data-name="Path 28" d="M53.22,88.372H41.346a1.115,1.115,0,0,1-1.112-1.112V78.127a1.115,1.115,0,0,1,1.112-1.112H53.22a5.681,5.681,0,0,1,0,11.362ZM42.458,86.149H53.22a3.458,3.458,0,0,0,0-6.915H42.458Z" transform="translate(11.733 26.237)" fill="#fff" fill-rule="evenodd"></path><path id="Path_29" data-name="Path 29" d="M61.359,84.142H53.643a1.115,1.115,0,0,1-1.112-1.112V76.71a18.328,18.328,0,0,1-4.1-1.7l-4.469,4.469a1.146,1.146,0,0,1-1.573,0l-5.459-5.459a1.1,1.1,0,0,1,0-1.568L41.4,67.982a18.328,18.328,0,0,1-1.7-4.1h-6.32a1.115,1.115,0,0,1-1.112-1.112V55.058a1.115,1.115,0,0,1,1.112-1.112H39.7a18.328,18.328,0,0,1,1.7-4.1L36.934,45.38a1.114,1.114,0,0,1,0-1.573l5.459-5.459a1.114,1.114,0,0,1,1.573,0l4.469,4.469a18.328,18.328,0,0,1,4.1-1.7V34.8a1.115,1.115,0,0,1,1.112-1.112h7.716A1.115,1.115,0,0,1,62.471,34.8v6.32a18.328,18.328,0,0,1,4.1,1.7l4.469-4.469a1.114,1.114,0,0,1,1.573,0l5.459,5.459a1.1,1.1,0,0,1,0,1.568L73.6,49.844a18.328,18.328,0,0,1,1.7,4.1h6.32a1.115,1.115,0,0,1,1.112,1.112v7.716a1.115,1.115,0,0,1-1.112,1.112H75.3a18.328,18.328,0,0,1-1.7,4.1l4.469,4.469a1.1,1.1,0,0,1,0,1.568L72.61,79.472a1.114,1.114,0,0,1-1.573,0L66.568,75a18.329,18.329,0,0,1-4.1,1.7v6.32a1.111,1.111,0,0,1-1.112,1.112Zm-6.6-2.224h5.492v-6.07a1.117,1.117,0,0,1,.867-1.084,16.068,16.068,0,0,0,5.036-2.09,1.11,1.11,0,0,1,1.379.156l4.3,4.3,3.886-3.886-4.3-4.291a1.11,1.11,0,0,1-.156-1.379,16.2,16.2,0,0,0,2.09-5.036,1.117,1.117,0,0,1,1.084-.867H80.5V56.175h-6.07a1.117,1.117,0,0,1-1.084-.867,16.145,16.145,0,0,0-2.09-5.036,1.11,1.11,0,0,1,.156-1.379l4.3-4.3L71.827,40.71l-4.3,4.3a1.11,1.11,0,0,1-1.379.156,16.2,16.2,0,0,0-5.036-2.09,1.117,1.117,0,0,1-.867-1.084v-6.07H54.755v6.07a1.117,1.117,0,0,1-.867,1.084,16.014,16.014,0,0,0-5.036,2.09,1.11,1.11,0,0,1-1.379-.156l-4.3-4.3L39.29,44.6l4.3,4.3a1.11,1.11,0,0,1,.156,1.379,16.2,16.2,0,0,0-2.09,5.036,1.117,1.117,0,0,1-1.084.867H34.5v5.492h6.07a1.117,1.117,0,0,1,1.084.867,16.068,16.068,0,0,0,2.09,5.036,1.11,1.11,0,0,1-.156,1.379l-4.3,4.3,3.886,3.886,4.3-4.3a1.11,1.11,0,0,1,1.379-.156,16.2,16.2,0,0,0,5.036,2.09,1.117,1.117,0,0,1,.867,1.084v6.07Z" transform="translate(8.364 7.905)" fill="#fff" fill-rule="evenodd"></path><path id="Path_30" data-name="Path 30" d="M53.614,67.182A12.157,12.157,0,1,1,65.772,55.024,12.171,12.171,0,0,1,53.614,67.182Zm0-22.086a9.934,9.934,0,1,0,9.934,9.934A9.944,9.944,0,0,0,53.614,45.1Z" transform="translate(12.251 11.79)" fill="#fff" fill-rule="evenodd"></path><path id="Path_31" data-name="Path 31" d="M30.27,35h-.05a1.114,1.114,0,0,1-.773-.361l-3.458-3.774a1.115,1.115,0,0,1,.067-1.573l1.884-1.729a47.883,47.883,0,0,1,64.662,0l1.884,1.729a1.115,1.115,0,0,1,.067,1.573L91.1,34.64a1.115,1.115,0,0,1-1.573.072l-1.884-1.729a40.527,40.527,0,0,0-54.743,0l-1.884,1.729a1.109,1.109,0,0,1-.75.295Zm-1.884-4.814,1.951,2.135,1.067-.978a42.765,42.765,0,0,1,57.757,0l1.067.978,1.951-2.135-1.067-.978a45.66,45.66,0,0,0-61.659,0Z" transform="translate(5.583)" fill="#fff" fill-rule="evenodd"></path></g></g></svg> 