<?xml version="1.0" encoding="UTF-8"?> <svg xmlns="http://www.w3.org/2000/svg" width="300" height="186" viewBox="0 0 300 186"><g id="Group_42" data-name="Group 42" transform="translate(-123 -1039)"><g id="Group_9" data-name="Group 9" transform="translate(41 900)"><rect id="Rectangle_2" data-name="Rectangle 2" width="300" height="186" transform="translate(82 139)" fill="#051c2c"></rect></g><path id="Path_32" data-name="Path 32" d="M47.077,43.6a1.424,1.424,0,1,1,0-2.848H71.059a1.424,1.424,0,0,1,0,2.848Zm0,7.733a1.424,1.424,0,1,1,0-2.848H71.059a1.424,1.424,0,0,1,0,2.848ZM41.534,66.014a1.419,1.419,0,0,1,1.818,2.176l-1.818,1.633V80.58A1.424,1.424,0,0,1,40.11,82H24.871a1.424,1.424,0,0,1-1.424-1.424V65.341a1.424,1.424,0,0,1,1.424-1.424H40.11a1.424,1.424,0,0,1,1.424,1.424Zm-13.379,6.8A1.424,1.424,0,0,1,30.168,70.8l2.857,2.857,5.669-5.093v-1.8H26.3v12.4h12.4V72.384l-4.713,4.235a1.417,1.417,0,0,1-2.009,0L28.164,72.81ZM41.534,39.1a1.419,1.419,0,0,1,1.818,2.176l-1.818,1.633V53.665a1.424,1.424,0,0,1-1.424,1.424H24.871a1.424,1.424,0,0,1-1.424-1.424V38.427A1.424,1.424,0,0,1,24.871,37H40.11a1.424,1.424,0,0,1,1.424,1.424ZM28.155,45.9a1.424,1.424,0,0,1,2.013-2.013l2.857,2.857,5.669-5.093v-1.8H26.3v12.4h12.4V45.469L33.981,49.7a1.417,1.417,0,0,1-2.009,0L28.164,45.9ZM14.479,90.637V90.6Zm12.859,9.389v-8h-8ZM60.732,15.581H56.08a1.424,1.424,0,0,1-1.424-1.424v-.032a6.7,6.7,0,0,0-13.383.093,1.422,1.422,0,0,1-1.415,1.359v0H35.205a.955.955,0,0,0-.45.093v8.47a.968.968,0,0,0,.45.093H60.742a.989.989,0,0,0,.455-.093v-8.47a.975.975,0,0,0-.455-.093Zm-14.19-1a1.424,1.424,0,1,1,2.848,0v.223a1.424,1.424,0,1,1-2.848,0ZM96.679,66.376,90.166,55.094a4.9,4.9,0,0,0-4.4-2.528,4.9,4.9,0,0,0-4.4,2.528l-.223.385a1.263,1.263,0,0,1-.135.232l-12.534,21.7a1.264,1.264,0,0,1-.135.232l0,0v0a4.946,4.946,0,0,0,0,5.075v0a4.9,4.9,0,0,0,4.4,2.528H98.79a4.9,4.9,0,0,0,4.4-2.528v0a4.946,4.946,0,0,0,0-5.075v0L96.675,66.371ZM81.278,51.1c.172-.116.343-.227.524-.334a7.846,7.846,0,0,1,2.542-.923V22.363a4.546,4.546,0,0,0-4.527-4.527H64.026v4.509H79.849a1.424,1.424,0,0,1,1.424,1.424V51.1ZM78.434,88.118H72.747A7.779,7.779,0,0,1,65.9,84.157h0A7.907,7.907,0,0,1,64.8,80.2a7.515,7.515,0,0,1,.255-1.948H47.08a1.424,1.424,0,0,1,0-2.848h19.3l2.82-4.885H47.08a1.424,1.424,0,1,1,0-2.848h23.76l7.594-13.156V25.189H63.873a2.74,2.74,0,0,1-1,1.239,3.758,3.758,0,0,1-2.143.649H35.2a3.78,3.78,0,0,1-2.143-.649,2.7,2.7,0,0,1-1-1.239H17.322V89.172H28.757A1.424,1.424,0,0,1,30.181,90.6v11.435H78.43V88.114Zm5.915,0H81.278v15.336a1.424,1.424,0,0,1-1.424,1.424h-51.1a1.452,1.452,0,0,1-.566-.116h0l-.06-.028,0,0-.023-.014-.037-.019-.023-.014-.009,0-.019-.014-.028-.019-.019-.009-.028-.019-.019-.014-.009-.009-.023-.019h0c-.009-.009-.019-.014-.028-.023a1.264,1.264,0,0,1-.116-.107L14.9,91.607l-.046-.046-.028-.028c-.014-.014-.023-.028-.032-.037l-.065-.1v0l-.009-.009-.019-.028,0,0-.028-.042-.009-.014v0l-.009-.014v0l0-.009,0,0-.009-.014,0,0,0-.009-.009-.014,0-.014v0l-.009-.014,0,0-.014-.028,0,0-.014-.028,0-.014v0l-.009-.019,0,0v0l-.009-.023v0l0,0-.009-.028v0l0,0-.009-.028c0-.023-.014-.042-.019-.065v0l0,0,0-.023V90.87l0-.028v0l0-.032v0l0-.032v-.009c0-.023,0-.042-.009-.065v-.009l0-.032v-.074l.032-66.8A1.424,1.424,0,0,1,15.9,22.35h16V17.841H16.113a4.546,4.546,0,0,0-4.527,4.527v82.139a4.546,4.546,0,0,0,4.527,4.527H79.822a4.546,4.546,0,0,0,4.527-4.527Zm8.276-34.434a7.769,7.769,0,0,0-5.432-3.846V22.363A7.38,7.38,0,0,0,79.826,15H63.989a2.628,2.628,0,0,0-1.109-1.61,3.758,3.758,0,0,0-2.143-.649h-3.4a9.544,9.544,0,0,0-18.741,0H35.2a3.78,3.78,0,0,0-2.143.649A2.641,2.641,0,0,0,31.944,15H16.107a7.38,7.38,0,0,0-7.366,7.366V104.5a7.38,7.38,0,0,0,7.366,7.366H79.816a7.38,7.38,0,0,0,7.366-7.366V88.113h11.6a7.779,7.779,0,0,0,6.851-3.962h0a7.735,7.735,0,0,0,0-7.918h0L92.614,53.68ZM84.349,79.226a1.424,1.424,0,0,1,2.848,0v.186a1.424,1.424,0,0,1-2.848,0Zm0-16.82a1.424,1.424,0,0,1,2.848,0V74.6a1.424,1.424,0,0,1-2.848,0Z" transform="translate(215.259 1074)" fill="#fff" stroke="#051b2c" stroke-width="0.4" fill-rule="evenodd"></path></g></svg> 