<?xml version="1.0" encoding="UTF-8"?> <svg xmlns="http://www.w3.org/2000/svg" width="300" height="186" viewBox="0 0 300 186"><g id="Group_70" data-name="Group 70" transform="translate(-1365 -155)"><g id="Group_4" data-name="Group 4" transform="translate(1283 16)"><rect id="Rectangle_2" data-name="Rectangle 2" width="300" height="186" transform="translate(82 139)" fill="#051c2c"></rect></g><path id="Path_6" data-name="Path 6" d="M44.995,7.564A7.279,7.279,0,0,0,37.724,14.8v.037a7.271,7.271,0,1,0,14.543,0v-.06A7.29,7.29,0,0,0,44.995,7.564Zm0,11.781a4.511,4.511,0,0,1-4.51-4.487v-.033a4.509,4.509,0,0,1,9.019-.03c0,.006,0,.033,0,.039A4.514,4.514,0,0,1,44.995,19.344ZM68.784,82.568A1.381,1.381,0,0,1,67.4,83.949H58.994l-2.5,9.164a1.381,1.381,0,0,1-2.646.063l-4.87-15.006-2,4.918a1.381,1.381,0,0,1-1.279.86H40.525L37.232,94.782a1.381,1.381,0,0,1-1.321.979h-.019a1.381,1.381,0,0,1-1.313-1.014L29.369,75.82,25.9,83.157a1.38,1.38,0,0,1-1.249.79h-6.69a1.381,1.381,0,1,1,0-2.762h5.816l4.684-9.913a1.381,1.381,0,0,1,2.58.223l4.935,17.92,2.2-7.251a1.382,1.382,0,0,1,1.321-.979h5.271l3.076-7.56a1.381,1.381,0,0,1,2.592.095l4.609,14.2L56.607,82.2a1.382,1.382,0,0,1,1.333-1.018H67.4A1.382,1.382,0,0,1,68.784,82.568ZM19.209,38.143a1.381,1.381,0,0,1,1.381-1.381H41.424a1.381,1.381,0,0,1,0,2.762H20.589A1.38,1.38,0,0,1,19.209,38.143Zm0,9.988a1.381,1.381,0,0,1,1.381-1.381H50.577a1.381,1.381,0,1,1,0,2.762H20.589A1.38,1.38,0,0,1,19.209,48.132Zm0,9.988a1.381,1.381,0,0,1,1.381-1.381H50.577a1.381,1.381,0,1,1,0,2.762H20.589A1.38,1.38,0,0,1,19.209,58.12Zm81.2-5.916a21.368,21.368,0,0,0-19.96-21.3V26.866a8.421,8.421,0,0,0-8.411-8.411H61.5V14.837a1.381,1.381,0,0,0-1.381-1.381H56.751a11.836,11.836,0,0,0-23.51,0H29.867a1.381,1.381,0,0,0-1.381,1.381v3.617H17.953a8.421,8.421,0,0,0-8.411,8.411v68.26a8.421,8.421,0,0,0,8.411,8.411H72.038c.126,0,.253-.006.379-.012a6.716,6.716,0,0,0,13.368-.916V84.985a6.694,6.694,0,0,0-1.991-4.767v-7.2A21.377,21.377,0,0,0,100.41,52.2Zm-2.762,0A18.58,18.58,0,1,1,79.067,33.625,18.6,18.6,0,0,1,97.648,52.2Zm-66.4-35.988h3.294a1.381,1.381,0,0,0,1.381-1.381,9.073,9.073,0,0,1,18.146,0,1.381,1.381,0,0,0,1.381,1.381h3.294v6.86h-27.5Zm41.1,68.769v15.778c-.105.006-.21.009-.315.009H17.953a5.657,5.657,0,0,1-5.65-5.65V26.865a5.657,5.657,0,0,1,5.65-5.65H28.486v3.242a1.381,1.381,0,0,0,1.381,1.381H60.125a1.381,1.381,0,0,0,1.381-1.381V21.214H72.039a5.657,5.657,0,0,1,5.65,5.65v4.043a21.342,21.342,0,0,0-3.344,42.109v7.2A6.687,6.687,0,0,0,72.352,84.985Zm10.67,17.623a3.954,3.954,0,0,1-7.908,0V84.985a3.959,3.959,0,0,1,3.954-3.954h0a3.959,3.959,0,0,1,3.954,3.954ZM81.032,78.563a6.7,6.7,0,0,0-3.927,0V73.455c.647.059,1.3.091,1.963.091s1.317-.032,1.963-.091ZM62.167,52.2a16.9,16.9,0,1,0,16.9-16.9A16.92,16.92,0,0,0,62.167,52.2Zm31.039,0a14.139,14.139,0,1,1-14.139-14.14A14.155,14.155,0,0,1,93.207,52.2ZM73.643,42.149v4.63h-4.63a1.381,1.381,0,0,0-1.381,1.381v8.086a1.381,1.381,0,0,0,1.381,1.381h4.63v4.63a1.381,1.381,0,0,0,1.381,1.381h8.086a1.381,1.381,0,0,0,1.381-1.381v-4.63h4.63A1.381,1.381,0,0,0,90.5,56.247V48.16a1.381,1.381,0,0,0-1.381-1.381h-4.63v-4.63a1.381,1.381,0,0,0-1.381-1.381H75.024A1.383,1.383,0,0,0,73.643,42.149Zm2.762,6.011V43.53H81.73v4.63a1.381,1.381,0,0,0,1.381,1.381h4.63v5.324h-4.63a1.381,1.381,0,0,0-1.381,1.381v4.63H76.405v-4.63a1.381,1.381,0,0,0-1.381-1.381h-4.63V49.541h4.63A1.38,1.38,0,0,0,76.405,48.16Z" transform="translate(1460.458 192)" fill="#fff"></path></g></svg> 