<?xml version="1.0" encoding="UTF-8"?> <svg xmlns="http://www.w3.org/2000/svg" width="300" height="186" viewBox="0 0 300 186"><g id="Group_39" data-name="Group 39" transform="translate(-951 -543)"><g id="Group_7" data-name="Group 7" transform="translate(869 404)"><rect id="Rectangle_2" data-name="Rectangle 2" width="300" height="186" transform="translate(82 139)" fill="#051c2c"></rect></g><path id="Path_21" data-name="Path 21" d="M52.648,31.324a2.664,2.664,0,0,1,2.666-2.666h5.331V23.328a2.666,2.666,0,1,1,5.331,0v5.331h5.331a2.666,2.666,0,0,1,0,5.331H65.976v5.331a2.666,2.666,0,1,1-5.331,0V33.99H55.314A2.664,2.664,0,0,1,52.648,31.324Zm63.973,13.328v69.3a2.664,2.664,0,0,1-2.666,2.666H12.666A2.664,2.664,0,0,1,10,113.955v-69.3a2.664,2.664,0,0,1,2.666-2.666H28.659V23.328a2.664,2.664,0,0,1,2.666-2.666H44.87a21.277,21.277,0,0,1,36.88,0H95.3a2.664,2.664,0,0,1,2.666,2.666V41.986h15.993A2.664,2.664,0,0,1,116.621,44.652Zm-69.3-13.328A15.993,15.993,0,1,0,63.31,15.331,16.011,16.011,0,0,0,47.317,31.324ZM15.331,111.29H28.659V47.317H15.331Zm45.314,0V95.3H49.983V111.29Zm15.993,0V95.3H65.976V111.29Zm5.331-18.659V111.29H92.631v-85.3h-8.7a21.324,21.324,0,1,1-41.243,0h-8.7v85.3H44.652V92.631a2.664,2.664,0,0,1,2.666-2.666H79.3a2.664,2.664,0,0,1,2.666,2.666ZM111.29,47.317H97.962V111.29H111.29ZM49.983,79.3H44.652a2.666,2.666,0,0,0,0,5.331h5.331a2.666,2.666,0,0,0,0-5.331Zm0-10.662H44.652a2.666,2.666,0,1,0,0,5.331h5.331a2.666,2.666,0,1,0,0-5.331ZM84.635,81.969A2.664,2.664,0,0,0,81.969,79.3H76.638a2.666,2.666,0,0,0,0,5.331h5.331A2.664,2.664,0,0,0,84.635,81.969Zm-8-8h5.331a2.666,2.666,0,1,0,0-5.331H76.638a2.666,2.666,0,1,0,0,5.331ZM49.983,57.979H44.652a2.666,2.666,0,0,0,0,5.331h5.331a2.666,2.666,0,0,0,0-5.331ZM76.638,63.31h5.331a2.666,2.666,0,1,0,0-5.331H76.638a2.666,2.666,0,1,0,0,5.331ZM65.976,79.3H60.645a2.666,2.666,0,0,0,0,5.331h5.331a2.666,2.666,0,0,0,0-5.331Zm0-10.662H60.645a2.666,2.666,0,1,0,0,5.331h5.331a2.666,2.666,0,1,0,0-5.331Zm0-10.662H60.645a2.666,2.666,0,0,0,0,5.331h5.331a2.666,2.666,0,1,0,0-5.331Z" transform="translate(1037.5 572.5)" fill="#fff" stroke="#051b2c" stroke-width="3"></path></g></svg> 