<?xml version="1.0" encoding="UTF-8"?> <svg xmlns="http://www.w3.org/2000/svg" width="300" height="186" viewBox="0 0 300 186"><g id="Group_30" data-name="Group 30" transform="translate(-123 -155)"><g id="Group_1" data-name="Group 1" transform="translate(41 16)"><rect id="Rectangle_2" data-name="Rectangle 2" width="300" height="186" transform="translate(82 139)" fill="#051c2c"></rect></g><path id="Path_3" data-name="Path 3" d="M76.652,7.375H36.514a13.006,13.006,0,0,0-13,13.007v80.423a13,13,0,0,0,13,13.007H76.652a13,13,0,0,0,13-13.007V20.382a13,13,0,0,0-13-13.007Zm7.8,93.431a7.8,7.8,0,0,1-7.8,7.8H36.514a7.8,7.8,0,0,1-7.8-7.8V20.382a7.8,7.8,0,0,1,7.8-7.8H76.652a7.8,7.8,0,0,1,7.8,7.8ZM60.173,99.05a3.591,3.591,0,1,1-3.59-3.6,3.585,3.585,0,0,1,3.59,3.6Zm2.912-79.244a2.6,2.6,0,0,1,2.6-2.6h4.185a2.6,2.6,0,1,1,0,5.2H65.689a2.6,2.6,0,0,1-2.6-2.6Zm-22.449,0h0a2.6,2.6,0,0,1,2.6-2.6H56.35a2.6,2.6,0,0,1,0,5.2H43.265a2.6,2.6,0,0,1-2.6-2.6ZM69.513,52.151H65.026V47.664a8.454,8.454,0,0,0-16.909,0v4.487H43.655a8.454,8.454,0,0,0,0,16.909h4.487v4.487a8.454,8.454,0,0,0,16.909,0V69.036h4.487a8.454,8.454,0,0,0,0-16.909Zm0,11.705H62.422a2.6,2.6,0,0,0-2.6,2.6v7.086a3.251,3.251,0,1,1-6.5,0V66.431a2.606,2.606,0,0,0-2.6-2.6H43.655a3.251,3.251,0,0,1,0-6.5h7.091a2.606,2.606,0,0,0,2.6-2.6V47.664a3.251,3.251,0,0,1,6.5,0v7.091a2.606,2.606,0,0,0,2.6,2.6h7.086a3.251,3.251,0,1,1,0,6.5Z" transform="translate(216.488 187.625)" fill="#fff" stroke="#051b2c" stroke-width="3"></path></g></svg> 