<?xml version="1.0" encoding="UTF-8"?> <svg xmlns="http://www.w3.org/2000/svg" width="300" height="186" viewBox="0 0 300 186"><g id="Group_2974" data-name="Group 2974" transform="translate(-1294 -3854)"><rect id="Rectangle_67" data-name="Rectangle 67" width="300" height="186" transform="translate(1294 3854)" fill="#051c2c"></rect><g id="Group_2973" data-name="Group 2973" transform="translate(1345.219 -1068.001)"><path id="Path_3160" data-name="Path 3160" d="M79.053,64.488a5.177,5.177,0,1,1-5.168-5.126,5.149,5.149,0,0,1,5.168,5.126Zm-12.582,0a7.406,7.406,0,1,0,7.414-7.329,7.381,7.381,0,0,0-7.414,7.329Zm20.853-4.069A10.723,10.723,0,0,0,76.55,49.766H48.769A10.72,10.72,0,0,0,38.012,60.419v8.138A10.72,10.72,0,0,0,48.769,79.209H76.55A10.723,10.723,0,0,0,87.323,68.557V60.419ZM48.769,47.564A12.939,12.939,0,0,0,35.783,60.42v8.138A12.938,12.938,0,0,0,48.769,81.413H76.55a12.943,12.943,0,0,0,13-12.855V60.42a12.943,12.943,0,0,0-13-12.856Zm65.657,46.488a4.339,4.339,0,0,1-5.88,1.559,4.249,4.249,0,0,1-1.582-5.817,4.335,4.335,0,0,1,3.747-2.128,4.274,4.274,0,0,1,3.715,6.386ZM66.971,119.36a4.3,4.3,0,1,1-4.312-4.258,4.292,4.292,0,0,1,4.312,4.258ZM18.79,93.025a4.194,4.194,0,0,1-2,2.586,4.338,4.338,0,0,1-5.88-1.559,4.274,4.274,0,0,1,3.715-6.387,4.337,4.337,0,0,1,3.747,2.128,4.183,4.183,0,0,1,.42,3.232Zm95.167-6.7a6.426,6.426,0,0,1,2.391,8.827,6.572,6.572,0,0,1-8.916,2.365,6.423,6.423,0,0,1-2.858-7.824l-12.615-7.2A34.688,34.688,0,0,1,63.773,98.585v14.408a6.525,6.525,0,1,1-2.229,0V98.586a34.69,34.69,0,0,1-28.17-16.093L20.759,89.7a6.316,6.316,0,0,1,.178,3.9A6.4,6.4,0,0,1,17.9,97.52a6.571,6.571,0,0,1-8.916-2.365,6.426,6.426,0,0,1,2.391-8.827,6.568,6.568,0,0,1,8.27,1.458l13.567-7.744a1.115,1.115,0,0,1,1.518.4,32.43,32.43,0,0,0,55.869,0,1.115,1.115,0,0,1,1.518-.4l13.567,7.745a6.574,6.574,0,0,1,8.272-1.459ZM51.449,69.615a5.127,5.127,0,1,1,5.185-5.127,5.163,5.163,0,0,1-5.185,5.127Zm0-12.457a7.33,7.33,0,1,1-7.414,7.329,7.381,7.381,0,0,1,7.414-7.329ZM10.908,34.923a4.331,4.331,0,0,1,5.88-1.559,4.251,4.251,0,0,1,1.582,5.817,4.339,4.339,0,0,1-5.88,1.559,4.237,4.237,0,0,1-1.582-5.817ZM58.363,9.616a4.3,4.3,0,1,1,4.3,4.258,4.288,4.288,0,0,1-4.3-4.258Zm50.184,23.749a4.337,4.337,0,0,1,5.88,1.559,4.237,4.237,0,0,1-1.582,5.817,4.338,4.338,0,0,1-5.88-1.559,4.25,4.25,0,0,1,1.582-5.817Zm-97.17,9.282A6.444,6.444,0,0,1,12.943,30.81a6.56,6.56,0,0,1,4.959.644,6.393,6.393,0,0,1,3.036,3.924,6.306,6.306,0,0,1-.178,3.9l12.615,7.2a34.691,34.691,0,0,1,28.17-16.095V15.982a6.542,6.542,0,1,1,2.229,0V30.391A34.692,34.692,0,0,1,91.959,46.485l12.615-7.2a6.425,6.425,0,0,1,2.858-7.824,6.569,6.569,0,0,1,8.916,2.365,6.426,6.426,0,0,1-2.391,8.827,6.569,6.569,0,0,1-8.27-1.459L92.121,48.935a1.137,1.137,0,0,1-.55.148,1.123,1.123,0,0,1-.97-.551,32.432,32.432,0,0,0-55.869,0,1.115,1.115,0,0,1-1.518.4L19.647,41.19a6.556,6.556,0,0,1-8.27,1.458Z" transform="translate(35.674 4950.846)" fill="#fff" stroke="#fff" stroke-width="1" fill-rule="evenodd"></path></g></g></svg> 