<?xml version="1.0" encoding="UTF-8"?> <svg xmlns="http://www.w3.org/2000/svg" width="300" height="186" viewBox="0 0 300 186"><g id="Group_2854" data-name="Group 2854" transform="translate(-82 -665)"><rect id="Rectangle_50" data-name="Rectangle 50" width="300" height="186" transform="translate(82 665)" fill="#051c2c"></rect><g id="Group_2848" data-name="Group 2848" transform="translate(4125.964 -2743)"><path id="Path_2885" data-name="Path 2885" d="M294.894,230.126v4.322a1.281,1.281,0,1,0,2.562,0v-4.322h3.027a3.516,3.516,0,0,0,3.479-3.542v-3.075h4.245a1.3,1.3,0,0,0,0-2.607h-4.245v-2.941h4.245a1.3,1.3,0,0,0,0-2.607h-4.245v-2.94H308.2a1.3,1.3,0,0,0,0-2.607H303.96v-2.919a3.516,3.516,0,0,0-3.479-3.542h-3.027v-4.322a1.281,1.281,0,1,0-2.562,0l0,4.322h-2.888v-4.322a1.281,1.281,0,1,0-2.562,0v4.322h-2.886v-4.322a1.281,1.281,0,1,0-2.562,0v4.322H280.97a3.515,3.515,0,0,0-3.48,3.542v3.633h-4.245a1.3,1.3,0,0,0,0,2.607h4.245v2.938h-4.245a1.3,1.3,0,0,0,0,2.607h4.245v2.941h-4.245a1.3,1.3,0,0,0,0,2.607h4.245v2.36a3.516,3.516,0,0,0,3.48,3.542H284v4.322a1.281,1.281,0,1,0,2.562,0v-4.32h2.886v4.322a1.281,1.281,0,1,0,2.562,0v-4.322Zm-14.842-3.542v-19.7a.928.928,0,0,1,.918-.935h19.511a.927.927,0,0,1,.917.935v19.7a.928.928,0,0,1-.917.935H280.97A.927.927,0,0,1,280.052,226.583Z" transform="translate(-4184.553 3284.58)" fill="#fff"></path><path id="Path_2886" data-name="Path 2886" d="M333.6,259.41v-14.9a1.292,1.292,0,0,0-1.281-1.3H317.678a1.292,1.292,0,0,0-1.281,1.3v14.9a1.292,1.292,0,0,0,1.281,1.3h14.638a1.292,1.292,0,0,0,1.28-1.3Zm-2.561-1.305H318.959V245.811h12.076Z" transform="translate(-4218.822 3249.499)" fill="#fff"></path><path id="Path_2887" data-name="Path 2887" d="M410.576,127.775l-.012-16.076a1.292,1.292,0,0,0-1.281-1.3h-7.218a12.217,12.217,0,0,0,.187-2.116c0-.06-.006-.121-.008-.18,0-.012.008-.024.008-.038a11.325,11.325,0,0,0-6.76-10.489,10.452,10.452,0,0,0-1.993-.667,11.856,11.856,0,0,0,2.827-7.766,12.2,12.2,0,0,0-.218-2.287h8.1a1.292,1.292,0,0,0,1.281-1.3l0-17.605a5.013,5.013,0,1,0-2.562-.008V84.243h-7.647a11.277,11.277,0,0,0-6.9-6.258l-.015-9.847a5.014,5.014,0,1,0-4.823-1.322,4.927,4.927,0,0,0,2.263,1.315l.015,9.4c-.184-.009-.365-.029-.552-.029a10.329,10.329,0,0,0-2,.2,11,11,0,0,0-10.714-10.518c-.03,0-.059.017-.088.018-.123,0-.242-.018-.365-.018-5.892,0-11.058,5.79-11.058,12.391v7.19a1.281,1.281,0,1,0,2.562,0v-7.19c0-5.213,3.97-9.783,8.5-9.783a8.782,8.782,0,0,1,8.5,9.021c0,.145-.012.287-.021.428l-.01.136a1.3,1.3,0,0,0,.068.481,8.366,8.366,0,0,1-8.082,7.335,1.3,1.3,0,0,0,0,2.607,10.934,10.934,0,0,0,10.584-9.363,7.933,7.933,0,0,1,2.132-.331,8.782,8.782,0,0,1,8.5,9.023,9.061,9.061,0,0,1-4.177,7.754c-.027.017-.044.044-.069.063a11.181,11.181,0,0,0-8.775,11.106,1.281,1.281,0,1,0,2.562,0,8.466,8.466,0,0,1,8.191-8.7,7.707,7.707,0,0,1,3.051.633,9.066,9.066,0,0,1,5.141,8.286,8.78,8.78,0,0,1-8.5,9.02c-.227,0-.449-.017-.67-.036a1.273,1.273,0,0,0-1.323.877,1.318,1.318,0,0,0,.519,1.518,9.072,9.072,0,0,1,4.029,7.434,1.252,1.252,0,0,0-.062.313,8.207,8.207,0,1,1-16.383,0,1.281,1.281,0,1,0-2.562,0,11.416,11.416,0,0,0,5.489,9.851c.063.213.121.395.172.549A2.881,2.881,0,0,1,380.6,139a8.513,8.513,0,1,1-16.995,0,1.109,1.109,0,0,0-.038-.189,1.2,1.2,0,0,0,.038-.189v-6.865a1.281,1.281,0,1,0-2.562,0v6.865a1.109,1.109,0,0,0,.038.189,1.2,1.2,0,0,0-.038.189,11.527,11.527,0,0,0,8.728,11.366v4.257a1.291,1.291,0,0,0,1.279,1.3l19.752.013a5.032,5.032,0,0,0,4.824,3.786h.017a5.1,5.1,0,1,0-4.847-6.392l-18.463-.012v-2.7A11.376,11.376,0,0,0,383.154,139c0-.087,0-.171,0-.25a10.554,10.554,0,0,0,2.113.212c6.1,0,11.056-5.216,11.056-11.628a11.884,11.884,0,0,0-2.768-7.694A11.244,11.244,0,0,0,401.288,113H408l.01,14.759a5.1,5.1,0,0,0,1.247,10.016h.02a5.1,5.1,0,0,0,1.3-10Zm-8.8-64.755a2.451,2.451,0,1,1,2.451,2.5v.5h-.005l0-.494a2.478,2.478,0,0,1-2.442-2.5Zm-17.123.194a2.45,2.45,0,1,1,2.447,2.5v0h-.009a2.41,2.41,0,0,1-1.729-.736,2.5,2.5,0,0,1-.709-1.767Zm10.971,88.914a2.495,2.495,0,0,1,.01,4.988l-.008,1.3v-1.3a2.495,2.495,0,0,1,0-4.988Zm13.658-16.955v1.3l-.009-1.3a2.457,2.457,0,1,1,.009,0Z" transform="translate(-4253.255 3392.404)" fill="#fff"></path><path id="Path_2888" data-name="Path 2888" d="M169.678,129.307a1.292,1.292,0,0,0-1.281,1.3v6.865a1.127,1.127,0,0,0,.038.189,1.244,1.244,0,0,0-.038.189,8.513,8.513,0,1,1-16.995,0,2.889,2.889,0,0,1,.192-1.194c.051-.155.109-.337.172-.549a11.416,11.416,0,0,0,5.489-9.851,1.281,1.281,0,1,0-2.562,0,8.207,8.207,0,1,1-16.383,0,1.267,1.267,0,0,0-.062-.313,9.082,9.082,0,0,1,4.029-7.434A1.315,1.315,0,0,0,142.8,117a1.277,1.277,0,0,0-1.323-.877c-.222.02-.444.036-.67.036a8.781,8.781,0,0,1-8.5-9.02,9.063,9.063,0,0,1,5.141-8.286,7.729,7.729,0,0,1,3.051-.633,8.466,8.466,0,0,1,8.191,8.7,1.281,1.281,0,1,0,2.562,0,11.183,11.183,0,0,0-8.775-11.106c-.026-.018-.042-.045-.069-.062a9.063,9.063,0,0,1-4.177-7.754,8.782,8.782,0,0,1,8.5-9.023,7.968,7.968,0,0,1,2.132.331,10.934,10.934,0,0,0,10.584,9.363,1.3,1.3,0,0,0,0-2.607,8.366,8.366,0,0,1-8.082-7.335,1.3,1.3,0,0,0,.068-.481l-.01-.136c-.009-.141-.021-.283-.021-.428a8.782,8.782,0,0,1,8.5-9.021c4.526,0,8.5,4.571,8.5,9.783v7.19a1.281,1.281,0,1,0,2.562,0v-7.19c0-5.712-3.869-10.808-8.728-12.081v-4.77a1.291,1.291,0,0,0-1.279-1.3l-14.63-.013a5.015,5.015,0,1,0-4.819,6.417h.02a5.026,5.026,0,0,0,4.809-3.811l13.34.012v3.169c-.044,0-.087.005-.133.006-.03,0-.058-.018-.088-.018a11,11,0,0,0-10.714,10.518,10.213,10.213,0,0,0-2-.2c-6.1,0-11.057,5.217-11.057,11.631,0,.266.018.532.035.794H125.444V74.277a5.013,5.013,0,1,0-2.561.007V90.09a1.292,1.292,0,0,0,1.281,1.3h11.994a11.619,11.619,0,0,0,2.342,4.365,10.5,10.5,0,0,0-1.988.665,11.325,11.325,0,0,0-6.765,10.492c0,.014.008.026.008.038,0,.06-.008.121-.008.18,0,.4.026.8.064,1.193h-2.647a5.019,5.019,0,1,0-4.889,6.25h.021a5.017,5.017,0,0,0,4.774-3.641h3.288a11.3,11.3,0,0,0,8.082,7.561,11.882,11.882,0,0,0-2.768,7.694c0,6.412,4.96,11.628,11.057,11.628a10.547,10.547,0,0,0,2.113-.212c0,.079,0,.162,0,.25,0,.272.021.541.038.809l-8.18-.005c-.017,0-.029-.009-.046-.009s-.029.009-.046.009l-12.861-.009a5.016,5.016,0,1,0-4.817,6.422h.02a5.023,5.023,0,0,0,4.806-3.814l11.619.008v7.512a5.1,5.1,0,0,0,1.112,10.06h.015a5.123,5.123,0,0,0,3.559-8.7,4.942,4.942,0,0,0-2.124-1.272v-7.6l7.4.005a11.162,11.162,0,0,0,10.57,8.214c6.1,0,11.058-5.217,11.058-11.631a1.129,1.129,0,0,0-.038-.189,1.249,1.249,0,0,0,.038-.189v-6.865a1.294,1.294,0,0,0-1.281-1.305Zm-28.17-65.222-.009,1.3v-1.3a2.449,2.449,0,1,1,.009,0ZM121.7,69.38a2.451,2.451,0,1,1,2.459,2.483h-.009v0A2.475,2.475,0,0,1,121.7,69.38Zm.6,42.587v1.3l-.012-1.3a2.452,2.452,0,1,1,.012,0Zm20.653,41.775a2.478,2.478,0,0,1-2.45,2.486v1.3l-.006-1.3a2.495,2.495,0,0,1,.019-4.989,2.41,2.41,0,0,1,1.729.736,2.5,2.5,0,0,1,.708,1.766Zm-20.013-11.281-.009,1.3v-1.3a2.384,2.384,0,1,1,.009,0Z" transform="translate(-4065.246 3393.514)" fill="#fff"></path></g></g></svg> 