<?xml version="1.0" encoding="UTF-8"?> <svg xmlns="http://www.w3.org/2000/svg" width="300" height="186" viewBox="0 0 300 186"><g id="Group_2977" data-name="Group 2977" transform="translate(-921 -3367)"><g id="Group_2975" data-name="Group 2975" transform="translate(421)"><rect id="Rectangle_67" data-name="Rectangle 67" width="300" height="186" transform="translate(500 3367)" fill="#051c2c"></rect></g><g id="LINE_ICON" transform="translate(1016.99 3406)"><g id="Group_2976" data-name="Group 2976" transform="translate(0.01)"><path id="Path_3161" data-name="Path 3161" d="M62.42,77.952a8.7,8.7,0,1,0,8.7-8.7A8.712,8.712,0,0,0,62.42,77.952Zm14.068,0a5.366,5.366,0,1,1-5.366-5.366A5.374,5.374,0,0,1,76.488,77.952Z" transform="translate(-20.77 -23.035)" fill="#fff"></path><path id="Path_3162" data-name="Path 3162" d="M101,101.154a5.674,5.674,0,0,0-2.643.654L91.825,94.82s-.02-.027-.027-.033a.1.1,0,0,1-.02-.013L83.99,86.445a1.65,1.65,0,0,0-1.221-.527H66.539a14.562,14.562,0,0,1,0-29.123H78.644a5.726,5.726,0,1,0,0-3.337H66.539a17.9,17.9,0,0,0,0,35.8H82.048l6.246,6.68-6.213,6.213H69.248a1.668,1.668,0,0,0,0,3.337H82.775A1.672,1.672,0,0,0,83.957,105l6.62-6.62,5.4,5.779a5.672,5.672,0,0,0-.7,2.736A5.726,5.726,0,1,0,101,101.167ZM84.123,52.73a2.389,2.389,0,1,1-2.389,2.389A2.4,2.4,0,0,1,84.123,52.73ZM101,109.269a2.389,2.389,0,1,1,2.389-2.389A2.4,2.4,0,0,1,101,109.269Z" transform="translate(-16.186 -16.433)" fill="#fff"></path><path id="Path_3163" data-name="Path 3163" d="M78.678,23.592a1.668,1.668,0,0,0,0,3.337h22.25l7.628,7.628a1.66,1.66,0,0,0,1.181.487h9.3a5.726,5.726,0,1,0,0-3.337h-8.6l-6.52-6.52,5.225-5.939a5.721,5.721,0,1,0-3.123-5.092,5.632,5.632,0,0,0,.721,2.77l-5.866,6.66H78.685ZM124.5,30.987a2.389,2.389,0,1,1-2.389,2.389A2.4,2.4,0,0,1,124.5,30.987Zm-12.767-19.22a2.389,2.389,0,1,1-2.389,2.389A2.4,2.4,0,0,1,111.733,11.767Z" transform="translate(-25.623 -2.804)" fill="#fff"></path><path id="Path_3164" data-name="Path 3164" d="M135.356,85.888a5.739,5.739,0,0,0-5.479,4.058h-8.709l-7.815-7.815a1.431,1.431,0,0,0,.187-.153l5.6-5.6a5.734,5.734,0,1,0-2.362-2.362l-5.105,5.105H98.618a1.668,1.668,0,1,0,0,3.337h10.344l10.331,10.331a1.66,1.66,0,0,0,1.181.487h9.4a5.727,5.727,0,1,0,5.479-7.394ZM121.829,68.937a2.389,2.389,0,1,1-2.389,2.389A2.4,2.4,0,0,1,121.829,68.937ZM135.356,94a2.389,2.389,0,1,1,2.389-2.389A2.4,2.4,0,0,1,135.356,94Z" transform="translate(-32.256 -21.821)" fill="#fff"></path><path id="Path_3165" data-name="Path 3165" d="M65.238,97.381a5.739,5.739,0,0,0-5.479,4.058H47.833L46.411,89.533A5.682,5.682,0,0,0,36.221,86.8l-7.181,9.6-4.371-2.529,4.718-11.018a5.689,5.689,0,0,0-7.468-7.468L10.9,80.1,8.379,75.725l9.6-7.181a5.682,5.682,0,0,0-2.736-10.191L3.333,56.932V51.88l11.906-1.421a5.682,5.682,0,0,0,2.736-10.191l-9.6-7.181L10.9,28.716l11.018,4.718a5.689,5.689,0,0,0,7.468-7.468L24.669,14.949l4.371-2.523,7.181,9.6a5.682,5.682,0,0,0,10.191-2.736L47.833,7.381H59.759a5.719,5.719,0,1,0,0-3.323H46.351A1.667,1.667,0,0,0,44.7,5.526L43.1,18.9a2.348,2.348,0,0,1-4.211,1.128L30.822,9.243A1.674,1.674,0,0,0,28.653,8.8l-6.941,4a1.666,1.666,0,0,0-.7,2.1l5.305,12.379a2.325,2.325,0,0,1-.5,2.583,2.348,2.348,0,0,1-2.583.5L10.855,25.059a1.666,1.666,0,0,0-2.1.7l-4,6.941A1.665,1.665,0,0,0,5.2,34.869L15.98,42.938a2.348,2.348,0,0,1-1.128,4.211L1.478,48.744A1.666,1.666,0,0,0,.01,50.4v8.015a1.667,1.667,0,0,0,1.468,1.655l13.374,1.595a2.348,2.348,0,0,1,1.128,4.211L5.2,73.943a1.674,1.674,0,0,0-.447,2.169l4,6.941a1.673,1.673,0,0,0,2.1.7l12.379-5.305a2.35,2.35,0,0,1,3.083,3.083L21.012,93.911a1.666,1.666,0,0,0,.7,2.1l6.941,4a1.665,1.665,0,0,0,2.169-.447L38.89,88.785A2.348,2.348,0,0,1,43.1,89.913L44.7,103.287a1.666,1.666,0,0,0,1.655,1.468H59.759a5.727,5.727,0,1,0,5.479-7.394Zm0-94.044a2.389,2.389,0,1,1-2.389,2.389A2.4,2.4,0,0,1,65.238,3.337Zm0,102.159a2.389,2.389,0,1,1,2.389-2.389A2.4,2.4,0,0,1,65.238,105.5Z" transform="translate(-0.01)" fill="#fff"></path></g></g></g></svg> 