<?xml version="1.0" encoding="UTF-8"?> <svg xmlns="http://www.w3.org/2000/svg" width="300" height="186" viewBox="0 0 300 186"><g id="Group_2919" data-name="Group 2919" transform="translate(-1366 -1700)"><rect id="Rectangle_55" data-name="Rectangle 55" width="300" height="186" transform="translate(1366 1700)" fill="#051c2c"></rect><g id="Group_2918" data-name="Group 2918" transform="translate(123.379 -321.192)"><path id="Path_3009" data-name="Path 3009" d="M183.615,60.149a7.427,7.427,0,1,0-7.274-8.931l-14.681.009a8.97,8.97,0,0,0-5.046-3.914,8.858,8.858,0,0,0-5.843-6.551V28.735a4.949,4.949,0,0,1,4.942-4.943l20.628-.007a7.427,7.427,0,1,0,0-3.008l-20.63.007a7.962,7.962,0,0,0-7.95,7.953V40.3a9.048,9.048,0,0,0-8.8,8.924V86.665a8.935,8.935,0,0,0,8.8,8.924v11.561a7.962,7.962,0,0,0,7.95,7.953l20.63.007a7.427,7.427,0,1,0,0-3.008l-20.628-.007a4.95,4.95,0,0,1-4.942-4.943V95.113a8.939,8.939,0,0,0,6.048-8.418,10.026,10.026,0,0,0,4.809-2.037l14.714.009a7.426,7.426,0,1,0,0-3.009l-12.124-.007a10.041,10.041,0,0,0-.2-10.2A9.946,9.946,0,0,0,162.8,57.514a8.878,8.878,0,0,0,0-3.277l13.534-.008a7.443,7.443,0,0,0,7.275,5.919Zm0-11.846a4.418,4.418,0,1,1-4.418,4.418A4.423,4.423,0,0,1,183.615,48.3Zm0-30.444a4.418,4.418,0,1,1-4.418,4.418,4.423,4.423,0,0,1,4.418-4.418Zm0,91.327A4.418,4.418,0,1,1,179.2,113.6a4.423,4.423,0,0,1,4.418-4.418Zm0-30.442a4.418,4.418,0,1,1-4.418,4.418A4.423,4.423,0,0,1,183.615,78.745ZM163.308,65.1a6.875,6.875,0,0,1-1.273,4.015,10.025,10.025,0,0,0-6.595-2.468,1.5,1.5,0,0,0,0,3.008,7.064,7.064,0,1,1-4.991,12.065,1.5,1.5,0,1,0-2.126,2.131,9.991,9.991,0,0,0,5.488,2.81v0a5.925,5.925,0,0,1-5.919,5.919,6,6,0,0,1-5.919-5.919V49.219a6.074,6.074,0,0,1,5.919-5.919,5.886,5.886,0,0,1,5.474,3.653,8.861,8.861,0,0,0-5.693,2.628,1.5,1.5,0,1,0,2.141,2.116,5.922,5.922,0,1,1,7.828,8.853,1.5,1.5,0,1,0,1.839,2.381,8.946,8.946,0,0,0,2.14-2.366,6.939,6.939,0,0,1,1.688,4.533Zm-35.163-24.8V28.733a7.962,7.962,0,0,0-7.95-7.953l-20.63-.007a7.427,7.427,0,1,0,0,3.008l20.628.007a4.95,4.95,0,0,1,4.942,4.943V40.757a8.858,8.858,0,0,0-5.843,6.551,8.975,8.975,0,0,0-5.046,3.914l-14.681-.009a7.426,7.426,0,1,0,0,3.009l13.534.008a8.879,8.879,0,0,0,0,3.277,9.946,9.946,0,0,0-1.217,13.939,10.041,10.041,0,0,0-.2,10.2l-12.124.008a7.429,7.429,0,1,0,0,3.009l14.714-.009a10.015,10.015,0,0,0,4.809,2.037,8.938,8.938,0,0,0,6.048,8.418v12.037a4.949,4.949,0,0,1-4.942,4.943l-20.628.007a7.427,7.427,0,1,0,0,3.008l20.63-.007a7.962,7.962,0,0,0,7.95-7.953V95.581a8.935,8.935,0,0,0,8.8-8.924l0-37.438a9.05,9.05,0,0,0-8.8-8.924ZM92.29,26.7a4.419,4.419,0,1,1,4.418-4.419A4.423,4.423,0,0,1,92.29,26.7Zm0,30.442a4.418,4.418,0,1,1,4.418-4.418A4.423,4.423,0,0,1,92.29,57.138Zm0,30.444a4.418,4.418,0,1,1,4.418-4.418A4.423,4.423,0,0,1,92.29,87.582Zm0,30.444a4.418,4.418,0,1,1,4.418-4.418A4.423,4.423,0,0,1,92.29,118.025Zm41.641-31.359a6,6,0,0,1-5.919,5.919,5.925,5.925,0,0,1-5.919-5.919v0a10,10,0,0,0,5.488-2.81,1.5,1.5,0,1,0-2.126-2.131,7.065,7.065,0,1,1-4.991-12.065,1.5,1.5,0,1,0,0-3.008,10.032,10.032,0,0,0-6.594,2.468A6.875,6.875,0,0,1,112.6,65.1a6.951,6.951,0,0,1,1.686-4.534,8.98,8.98,0,0,0,2.14,2.366,1.5,1.5,0,0,0,1.839-2.381,5.922,5.922,0,1,1,7.828-8.853,1.5,1.5,0,0,0,2.141-2.116,8.851,8.851,0,0,0-5.693-2.628A5.882,5.882,0,0,1,128.01,43.3a6.074,6.074,0,0,1,5.919,5.919V86.666Z" transform="translate(1254.759 2046.343)" fill="#fff"></path></g></g></svg> 