<?xml version="1.0" encoding="UTF-8"?> <svg xmlns="http://www.w3.org/2000/svg" xmlns:xlink="http://www.w3.org/1999/xlink" width="300" height="186" viewBox="0 0 300 186"><defs><clipPath id="clip-path"><rect id="Rectangle_57" data-name="Rectangle 57" width="109" height="109" transform="translate(897 546)" fill="#c5cae0"></rect></clipPath></defs><g id="Group_2856" data-name="Group 2856" transform="translate(-801 -665)"><rect id="Rectangle_1" data-name="Rectangle 1" width="300" height="186" transform="translate(801 665)" fill="#051c2c"></rect><g id="Mask_Group_4" data-name="Mask Group 4" transform="translate(0 158)" clip-path="url(#clip-path)"><path id="Union_40" data-name="Union 40" d="M5.229,104.59A3.488,3.488,0,0,1,1.743,101.1V95.873a1.744,1.744,0,0,1,.511-1.234L12.713,84.181a1.743,1.743,0,0,1,1.233-.51h3.487V80.185a1.744,1.744,0,0,0-1.744-1.743H5.229a5.229,5.229,0,0,1,0-10.459H15.688a1.745,1.745,0,0,0,1.744-1.744V62.754H8.715a5.229,5.229,0,0,1-5.229-5.229V12.2A5.229,5.229,0,0,1,8.715,6.972h12.2v3.487H8.715A1.743,1.743,0,0,0,6.972,12.2V48.809H80.185V12.2a1.742,1.742,0,0,0-1.744-1.744h-12.2V6.972h12.2A5.229,5.229,0,0,1,83.671,12.2V57.524a5.229,5.229,0,0,1-5.229,5.229h-24.4v6.972H61.01a1.744,1.744,0,0,1,1.744,1.744v6.972a1.742,1.742,0,0,1-1.743,1.743H26.147A1.742,1.742,0,0,1,24.4,78.442V71.47a1.744,1.744,0,0,1,1.743-1.744H33.12V62.754h-12.2V66.24a5.23,5.23,0,0,1-5.231,5.23H5.229a1.743,1.743,0,0,0,0,3.487H15.688a5.228,5.228,0,0,1,5.23,5.229v3.485H73.213a1.745,1.745,0,0,1,1.232.51L84.9,94.641a1.743,1.743,0,0,1,.51,1.234V101.1a3.486,3.486,0,0,1-3.487,3.486Zm0-3.487h76.7V97.617H5.229Zm2.464-6.972H79.469L72.5,87.158H14.662ZM27.89,76.7H59.267V73.213H27.89Zm8.715-6.972H50.551V62.754H36.605ZM6.972,57.524a1.744,1.744,0,0,0,1.744,1.743H78.441a1.742,1.742,0,0,0,1.743-1.743V52.295H6.972Zm61.01,34.864V88.9h3.487v3.487Zm-6.972,0V88.9H64.5v3.487Zm-31.377,0V88.9h27.89v3.487Zm-6.972,0V88.9h3.487v3.487Zm-6.972,0V88.9h3.487v3.487ZM69.726,57.524V54.038h3.487v3.487ZM47.064,41.836a1.742,1.742,0,0,1-1.233-.511h0l-2.254-2.248L41.33,41.33a1.744,1.744,0,0,1-1.234.511H36.605a1.744,1.744,0,0,1-1.455-.776l-2.963-4.459H29.634A1.747,1.747,0,0,1,28.4,36.1l-1.743-1.744a1.74,1.74,0,0,1-.51-1.233V29.148L22.109,27.8a1.744,1.744,0,0,1-1.192-1.655V19.174a1.744,1.744,0,0,1,.964-1.564h0L24.4,16.349v-5.89a1.743,1.743,0,0,1,1.321-1.691h0l5.652-1.413V5.23A1.743,1.743,0,0,1,31.887,4L35.373.51A1.745,1.745,0,0,1,36.605,0h3.487a1.744,1.744,0,0,1,1.451.776l2.036,3.059L45.614.776A1.745,1.745,0,0,1,47.064,0h3.487a1.745,1.745,0,0,1,1.232.51L55.27,4a1.743,1.743,0,0,1,.51,1.234V7.355l5.651,1.413a1.743,1.743,0,0,1,1.323,1.691v5.9l2.522,1.26a1.742,1.742,0,0,1,.964,1.564v6.968A1.744,1.744,0,0,1,65.048,27.8l-4.037,1.346v3.972a1.74,1.74,0,0,1-.511,1.233L58.756,36.1a1.746,1.746,0,0,1-1.233.51H54.969L52,41.061a1.744,1.744,0,0,1-1.451.776ZM45.322,7.5V35.885l2.464,2.465h1.834L52.588,33.9a1.744,1.744,0,0,1,1.451-.775H56.8l.721-.722V28.613l-2.982-2.975a1.745,1.745,0,0,1-.51-1.233V22.661h3.487v1.022L59.733,25.9l3.02-1V20.252L60.6,19.177h-3.08V15.689h1.744V11.82l-4.692-1.173-2.28,2.278v4.508H48.808V12.2a1.747,1.747,0,0,1,.51-1.233l2.977-2.975V5.952L49.829,3.487H47.994Zm-10.746,26.4,2.96,4.454h1.833l2.468-2.465V7.5L39.16,3.489H37.327L34.863,5.952V7.995l2.976,2.974a1.747,1.747,0,0,1,.51,1.234v5.229H34.863V12.924l-2.278-2.279-4.692,1.173v3.871h1.744v3.487H26.558l-2.15,1.075v4.638L27.423,25.9l2.214-2.214v-1.02h3.487V24.4a1.742,1.742,0,0,1-.511,1.233h0l-2.976,2.976V32.4l.721.721h2.77A1.744,1.744,0,0,1,34.575,33.895Zm13-3.75,1.233-1.233V24.406h3.487v5.229a1.74,1.74,0,0,1-.51,1.233l-1.744,1.744Zm-12.2.721a1.74,1.74,0,0,1-.511-1.233V24.4h3.487v4.508l1.233,1.233L37.116,32.61Z" transform="translate(908.5 548.5)" fill="#fff" stroke="#051c2c" stroke-width="0.8"></path></g></g></svg> 