<?xml version="1.0" encoding="UTF-8"?> <svg xmlns="http://www.w3.org/2000/svg" width="300" height="186" viewBox="0 0 300 186"><g id="Group_2858" data-name="Group 2858" transform="translate(-1543 -665)"><rect id="Rectangle_2" data-name="Rectangle 2" width="300" height="186" transform="translate(1543 665)" fill="#051c2c"></rect><g id="Group_2857" data-name="Group 2857" transform="translate(1713 -2719)"><g id="Ellipse_3" data-name="Ellipse 3" transform="translate(-70 3445)" fill="none" stroke="#fff" stroke-width="3"><circle cx="7.5" cy="7.5" r="7.5" stroke="none"></circle><circle cx="7.5" cy="7.5" r="6" fill="none"></circle></g><g id="Ellipse_7" data-name="Ellipse 7" transform="translate(-27 3424)" fill="none" stroke="#fff" stroke-width="3"><circle cx="7.5" cy="7.5" r="7.5" stroke="none"></circle><circle cx="7.5" cy="7.5" r="6" fill="none"></circle></g><g id="Ellipse_8" data-name="Ellipse 8" transform="translate(-27 3463)" fill="none" stroke="#fff" stroke-width="3"><circle cx="7.5" cy="7.5" r="7.5" stroke="none"></circle><circle cx="7.5" cy="7.5" r="6" fill="none"></circle></g><g id="Ellipse_9" data-name="Ellipse 9" transform="translate(-27 3515)" fill="none" stroke="#fff" stroke-width="3"><circle cx="7.5" cy="7.5" r="7.5" stroke="none"></circle><circle cx="7.5" cy="7.5" r="6" fill="none"></circle></g><g id="Ellipse_6" data-name="Ellipse 6" transform="translate(-70 3496)" fill="none" stroke="#fff" stroke-width="3"><circle cx="7.5" cy="7.5" r="7.5" stroke="none"></circle><circle cx="7.5" cy="7.5" r="6" fill="none"></circle></g><g id="Ellipse_4" data-name="Ellipse 4" transform="translate(16 3445)" fill="none" stroke="#fff" stroke-width="3"><circle cx="7.5" cy="7.5" r="7.5" stroke="none"></circle><circle cx="7.5" cy="7.5" r="6" fill="none"></circle></g><g id="Ellipse_5" data-name="Ellipse 5" transform="translate(16 3496)" fill="none" stroke="#fff" stroke-width="3"><circle cx="7.5" cy="7.5" r="7.5" stroke="none"></circle><circle cx="7.5" cy="7.5" r="6" fill="none"></circle></g><path id="Path_2890" data-name="Path 2890" d="M-79.141,3331.6l37.516-15.224,37.2,14.4" transform="translate(22 170)" fill="none" stroke="#fff" stroke-width="3"></path><path id="Path_2891" data-name="Path 2891" d="M-85.294,3289.046v38.063" transform="translate(22 170)" fill="none" stroke="#fff" stroke-width="3"></path><path id="Path_2892" data-name="Path 2892" d="M-79.141,3279.829l32.194-14.583" transform="translate(22 170)" fill="none" stroke="#fff" stroke-width="3"></path><path id="Path_2893" data-name="Path 2893" d="M-35.511,3265.246l31.031,14.1" transform="translate(22 170)" fill="none" stroke="#fff" stroke-width="3"></path><path id="Path_2894" data-name="Path 2894" d="M1.5,3289.046v38.411" transform="translate(22 170)" fill="none" stroke="#fff" stroke-width="3"></path><path id="Path_2895" data-name="Path 2895" d="M-78.184,3284.1l30.222,13.461" transform="translate(22 170)" fill="none" stroke="#fff" stroke-width="3"></path><path id="Path_2896" data-name="Path 2896" d="M-34.646,3298.89l29.711-14.335" transform="translate(22 170)" fill="none" stroke="#fff" stroke-width="3"></path><path id="Path_2897" data-name="Path 2897" d="M-41.5,3307.5v38.782" transform="translate(22 170)" fill="none" stroke="#fff" stroke-width="3"></path><path id="Path_2898" data-name="Path 2898" d="M-78.184,3335.718l30.427,13.915" transform="translate(22 170)" fill="none" stroke="#fff" stroke-width="3"></path><path id="Path_2899" data-name="Path 2899" d="M-34.646,3349.633l31-13.262" transform="translate(22 170)" fill="none" stroke="#fff" stroke-width="3"></path></g></g></svg> 