<?xml version="1.0" encoding="UTF-8"?> <svg xmlns="http://www.w3.org/2000/svg" width="300" height="186" viewBox="0 0 300 186"><g id="Group_2878" data-name="Group 2878" transform="translate(-51 -2123)"><rect id="Rectangle_55" data-name="Rectangle 55" width="300" height="186" transform="translate(51 2123)" fill="#051c2c"></rect><g id="AI-MLOps_04_Icon" data-name="AI-MLOps_04 Icon" transform="translate(144.1 2158.771)"><circle id="Ellipse_10" data-name="Ellipse 10" cx="5.872" cy="5.872" r="5.872" transform="translate(100.498 75.328)" fill="none" stroke="#fff" stroke-linecap="round" stroke-linejoin="round" stroke-width="3"></circle><circle id="Ellipse_11" data-name="Ellipse 11" cx="5.872" cy="5.872" r="5.872" transform="translate(100.498 40.097)" fill="none" stroke="#fff" stroke-linecap="round" stroke-linejoin="round" stroke-width="3"></circle><circle id="Ellipse_12" data-name="Ellipse 12" cx="5.872" cy="5.872" r="5.872" transform="translate(100.498 57.713)" fill="none" stroke="#fff" stroke-linecap="round" stroke-linejoin="round" stroke-width="3"></circle><path id="Path_2934" data-name="Path 2934" d="M75.872,50.781l-7.19,2.924a27.585,27.585,0,0,1-2.277,5.584l2.948,7.19a29.958,29.958,0,0,1-5.776,5.776l-7.19-2.972a26.363,26.363,0,0,1-5.584,2.4l-2.924,7.19a36.112,36.112,0,0,1-3.954.288,35.685,35.685,0,0,1-3.931-.288L37.07,71.68a24.71,24.71,0,0,1-5.584-2.4L24.3,72.255a31.516,31.516,0,0,1-5.8-5.776l3-7.19a25.093,25.093,0,0,1-2.277-5.584l-7.358-2.924a31.468,31.468,0,0,1,0-8.221l7.19-2.924a23.487,23.487,0,0,1,2.4-5.56l-3-7.19a32.283,32.283,0,0,1,5.8-5.776l7.19,2.972a25.668,25.668,0,0,1,5.56-2.4l2.924-7.19a35.272,35.272,0,0,1,7.765.144l2.924,7.19a27.585,27.585,0,0,1,5.584,2.4l7.19-2.948a30.534,30.534,0,0,1,5.776,5.752l-2.972,7.19a26.364,26.364,0,0,1,2.4,5.584l7.19,2.924a31.468,31.468,0,0,1,0,8.221Z" transform="translate(13.53 16.925)" fill="none" stroke="#fff" stroke-linecap="round" stroke-linejoin="round" stroke-width="3"></path><path id="Path_2935" data-name="Path 2935" d="M20.16,2.23H43.743V15.843H20.256Z" transform="translate(25.503)" fill="none" stroke="#fff" stroke-linecap="round" stroke-linejoin="round" stroke-width="3"></path><path id="Path_2936" data-name="Path 2936" d="M23.71,21.06h6.471v6.495H23.71Z" transform="translate(30.461 26.299)" fill="none" stroke="#fff" stroke-linecap="round" stroke-linejoin="round" stroke-width="3"></path><path id="Path_2937" data-name="Path 2937" d="M23.71,31.88h6.471V38.3H23.71Z" transform="translate(30.461 41.411)" fill="none" stroke="#fff" stroke-linecap="round" stroke-linejoin="round" stroke-width="3"></path><path id="Path_2938" data-name="Path 2938" d="M29.1,26.49h6.423v6.471H29.1Z" transform="translate(37.989 33.883)" fill="none" stroke="#fff" stroke-linecap="round" stroke-linejoin="round" stroke-width="3"></path><path id="Path_2939" data-name="Path 2939" d="M18.3,26.49h6.471v6.471H18.3Z" transform="translate(22.905 33.883)" fill="none" stroke="#fff" stroke-linecap="round" stroke-linejoin="round" stroke-width="3"></path><path id="Path_2940" data-name="Path 2940" d="M23.71,26.49h6.471v6.471H23.71Z" transform="translate(30.461 33.883)" fill="none" stroke="#fff" stroke-linecap="round" stroke-linejoin="round" stroke-width="3"></path><path id="Path_2941" data-name="Path 2941" d="M34.87,23.01H47.045l3.02-3.02h4.386" transform="translate(46.048 24.805)" fill="none" stroke="#fff" stroke-linecap="round" stroke-linejoin="round" stroke-width="3"></path><path id="Path_2942" data-name="Path 2942" d="M35.33,35.18H46.4l3.02,3.02h4.386" transform="translate(46.69 46.02)" fill="none" stroke="#fff" stroke-linecap="round" stroke-linejoin="round" stroke-width="3"></path><line id="Line_1" data-name="Line 1" x1="11.097" transform="translate(89.402 63.584)" fill="none" stroke="#fff" stroke-linecap="round" stroke-linejoin="round" stroke-width="3"></line><circle id="Ellipse_13" data-name="Ellipse 13" cx="5.872" cy="5.872" r="5.872" transform="translate(1.9 40.097)" fill="none" stroke="#fff" stroke-linecap="round" stroke-linejoin="round" stroke-width="3"></circle><circle id="Ellipse_14" data-name="Ellipse 14" cx="5.872" cy="5.872" r="5.872" transform="translate(1.9 75.328)" fill="none" stroke="#fff" stroke-linecap="round" stroke-linejoin="round" stroke-width="3"></circle><circle id="Ellipse_15" data-name="Ellipse 15" cx="5.872" cy="5.872" r="5.872" transform="translate(1.9 57.713)" fill="none" stroke="#fff" stroke-linecap="round" stroke-linejoin="round" stroke-width="3"></circle><path id="Path_2943" data-name="Path 2943" d="M26.381,34.41H14.206l-3.02,3.02H6.8" transform="translate(6.844 44.944)" fill="none" stroke="#fff" stroke-linecap="round" stroke-linejoin="round" stroke-width="3"></path><path id="Path_2944" data-name="Path 2944" d="M25.3,22.24h-11.1l-3.02-3.02H6.8" transform="translate(6.844 23.729)" fill="none" stroke="#fff" stroke-linecap="round" stroke-linejoin="round" stroke-width="3"></path><line id="Line_2" data-name="Line 2" x2="11.097" transform="translate(13.644 63.584)" fill="none" stroke="#fff" stroke-linecap="round" stroke-linejoin="round" stroke-width="3"></line><path id="Path_2945" data-name="Path 2945" d="M29.25,7.91v13.9l-7.19-7.19,7.19,7.19L36.3,14.764" transform="translate(28.157 7.933)" fill="none" stroke="#fff" stroke-linecap="round" stroke-linejoin="round" stroke-width="3"></path><path id="Path_2946" data-name="Path 2946" d="M29.25,41.44V53.471l-7.19-7.166,7.19,7.166L36.3,46.425" transform="translate(28.157 54.763)" fill="none" stroke="#fff" stroke-linecap="round" stroke-linejoin="round" stroke-width="3"></path><line id="Line_3" data-name="Line 3" x2="45.704" transform="translate(34.519 111.518)" fill="none" stroke="#fff" stroke-linecap="round" stroke-linejoin="round" stroke-width="3"></line></g></g></svg> 