<?xml version="1.0" encoding="UTF-8"?> <svg xmlns="http://www.w3.org/2000/svg" xmlns:xlink="http://www.w3.org/1999/xlink" width="300" height="186" viewBox="0 0 300 186"><defs><clipPath id="clip-path"><rect id="Rectangle_56" data-name="Rectangle 56" width="109" height="109" transform="translate(1405 456)" fill="#c5cae0"></rect></clipPath></defs><g id="Group_2863" data-name="Group 2863" transform="translate(-1514 -139)"><rect id="Rectangle_44" data-name="Rectangle 44" width="300" height="186" transform="translate(1514 139)" fill="#051c2c"></rect><g id="Mask_Group_9" data-name="Mask Group 9" transform="translate(205 -278)" clip-path="url(#clip-path)"><g id="noun-natural-language-processing-4127911" transform="translate(1407 463)"><path id="Path_2849" data-name="Path 2849" d="M433.453,90h-9.041v-7.75h9.041a1.291,1.291,0,1,0,0-2.583h-9.041V78.373a3.88,3.88,0,0,0-3.875-3.875h-1.291V65.458a1.292,1.292,0,0,0-2.583,0V74.5h-7.749V65.458a1.292,1.292,0,0,0-2.583,0V74.5h-1.291a3.88,3.88,0,0,0-3.875,3.875v1.291h-9.041a1.291,1.291,0,1,0,0,2.583h9.041V90h-9.041a1.292,1.292,0,1,0,0,2.583h9.041v1.291a3.88,3.88,0,0,0,3.875,3.875h1.291v9.042a1.292,1.292,0,0,0,2.583,0V97.747h7.749v9.042a1.292,1.292,0,0,0,2.583,0V97.747h1.291a3.88,3.88,0,0,0,3.875-3.875V92.581h9.041a1.292,1.292,0,1,0,0-2.583Zm-11.624,3.875a1.292,1.292,0,0,1-1.291,1.292h-15.5a1.292,1.292,0,0,1-1.291-1.292v-15.5a1.291,1.291,0,0,1,1.291-1.291h15.5a1.29,1.29,0,0,1,1.291,1.291Z" transform="translate(-328.835 -64.166)" fill="#fff" stroke="#fff" stroke-width="1"></path><path id="Path_2850" data-name="Path 2850" d="M168.953,227.5H117.29a6.464,6.464,0,0,0-6.458,6.458v15.5a6.464,6.464,0,0,0,6.458,6.457h5.166a1.292,1.292,0,0,0,1.292-1.291v-3.875h45.2a6.464,6.464,0,0,0,6.458-6.458V233.958a6.464,6.464,0,0,0-6.458-6.458Zm3.875,16.79a3.88,3.88,0,0,1-3.875,3.875h-46.5a1.292,1.292,0,0,0-1.291,1.292v3.875H117.29a3.883,3.883,0,0,1-3.875-3.875v-15.5a3.88,3.88,0,0,1,3.875-3.875h51.663a3.88,3.88,0,0,1,3.875,3.875Z" transform="translate(-110.832 -191.336)" fill="#fff" stroke="#fff" stroke-width="1"></path><path id="Path_2851" data-name="Path 2851" d="M168.953,367.5H117.29a6.464,6.464,0,0,0-6.458,6.458v10.333h0a6.464,6.464,0,0,0,6.458,6.458H162.5v3.875a1.29,1.29,0,0,0,1.291,1.291h5.166a6.464,6.464,0,0,0,6.458-6.457v-15.5a6.464,6.464,0,0,0-6.458-6.458Zm3.875,21.957a3.882,3.882,0,0,1-3.875,3.875h-3.875v-3.875a1.292,1.292,0,0,0-1.291-1.292h-46.5a3.882,3.882,0,0,1-3.875-3.875V373.958a3.882,3.882,0,0,1,3.875-3.875h51.663a3.88,3.88,0,0,1,3.875,3.875Z" transform="translate(-110.832 -300.338)" fill="#fff" stroke="#fff" stroke-width="1"></path><path id="Path_2852" data-name="Path 2852" d="M169.124,274.17H158.791a1.291,1.291,0,1,0,0,2.583h10.333a1.291,1.291,0,1,0,0-2.583Z" transform="translate(-147.167 -227.672)" fill="#fff" stroke="#fff" stroke-width="1"></path><path id="Path_2853" data-name="Path 2853" d="M262.454,274.17H252.122a1.291,1.291,0,1,0,0,2.583h10.332a1.291,1.291,0,1,0,0-2.583Z" transform="translate(-219.833 -227.672)" fill="#fff" stroke="#fff" stroke-width="1"></path><path id="Path_2854" data-name="Path 2854" d="M272.789,414.17H252.124a1.291,1.291,0,1,0,0,2.583h20.665a1.291,1.291,0,0,0,0-2.583Z" transform="translate(-219.834 -336.674)" fill="#fff" stroke="#fff" stroke-width="1"></path><path id="Path_2855" data-name="Path 2855" d="M169.124,414.17H158.791a1.291,1.291,0,0,0,0,2.583h10.333a1.291,1.291,0,0,0,0-2.583Z" transform="translate(-147.167 -336.674)" fill="#fff" stroke="#fff" stroke-width="1"></path><path id="Path_2856" data-name="Path 2856" d="M252.126,147.084a1.29,1.29,0,0,0,1.291-1.291v-5.167a3.88,3.88,0,0,1,3.875-3.875h15.5a1.291,1.291,0,0,0,0-2.583h-15.5a6.464,6.464,0,0,0-6.458,6.457v5.167a1.292,1.292,0,0,0,1.292,1.291Z" transform="translate(-219.836 -118.669)" fill="#fff" stroke="#fff" stroke-width="1"></path><path id="Path_2857" data-name="Path 2857" d="M449.124,297.5a1.291,1.291,0,0,0-1.291,1.291v20.666a3.883,3.883,0,0,1-3.875,3.875h-5.167a1.291,1.291,0,1,0,0,2.583h5.167a6.464,6.464,0,0,0,6.457-6.457V298.791a1.29,1.29,0,0,0-1.291-1.291Z" transform="translate(-365.171 -245.836)" fill="#fff" stroke="#fff" stroke-width="1"></path></g></g></g></svg> 