<?xml version="1.0" encoding="UTF-8"?> <svg xmlns="http://www.w3.org/2000/svg" width="300" height="186" viewBox="0 0 300 186"><g id="Group_2995" data-name="Group 2995" transform="translate(-43 -139)"><g id="Group_2851" data-name="Group 2851" transform="translate(-39)"><rect id="Rectangle_2" data-name="Rectangle 2" width="300" height="186" transform="translate(82 139)" fill="#051c2c"></rect></g><g id="Group_2994" data-name="Group 2994" transform="translate(104.677 149)"><path id="Path_3217" data-name="Path 3217" d="M204.168,183.717V161.112a1.818,1.818,0,0,0-.9-1.566l-19.577-11.3a1.809,1.809,0,0,0-1.808,0l-19.577,11.3a1.816,1.816,0,0,0-.9,1.566v22.606a1.808,1.808,0,0,0,.9,1.566l18.55,10.71c.614.464,1.862,1.155,2.835.593l19.577-11.3a1.808,1.808,0,0,0,.9-1.566ZM182.783,151.9l15.96,9.215-15.96,9.215-15.96-9.215Zm-17.769,12.347,15.392,8.887V191.56l-15.392-8.887Zm19.009,27.972V173.786l16.528-9.542v18.429Z" transform="translate(-94.479 -89.778)" fill="#fff"></path><path id="Path_3218" data-name="Path 3218" d="M136.381,53.909a1.809,1.809,0,0,0,.9-1.566V39.987a1.819,1.819,0,0,0-.9-1.566l-10.7-6.178a1.808,1.808,0,0,0-1.808,0l-10.7,6.178a1.819,1.819,0,0,0-.9,1.566v4.37H64.342v-4.37a1.82,1.82,0,0,0-.9-1.566l-10.7-6.178a1.809,1.809,0,0,0-1.808,0l-10.7,6.178a1.818,1.818,0,0,0-.9,1.566V52.343a1.809,1.809,0,0,0,.9,1.566l9.8,5.656v46.143l-9.8,5.656a1.815,1.815,0,0,0-.9,1.566v12.356a1.808,1.808,0,0,0,.9,1.566l10.7,6.178a1.808,1.808,0,0,0,1.808,0l10.7-6.178a1.808,1.808,0,0,0,.9-1.566v-4.37h5.436a1.808,1.808,0,0,0,0-3.617H64.342v-4.37a1.811,1.811,0,0,0-.9-1.566l-9.8-5.656V59.565l9.8-5.656a1.809,1.809,0,0,0,.9-1.566v-4.37h47.925v4.37a1.809,1.809,0,0,0,.9,1.566l9.8,5.656v46.143l-9.8,5.656a1.812,1.812,0,0,0-.9,1.566v4.37H91.79a1.808,1.808,0,0,0,0,3.617h20.477v4.37a1.808,1.808,0,0,0,.9,1.566l10.7,6.178a1.808,1.808,0,0,0,1.808,0l10.7-6.178a1.808,1.808,0,0,0,.9-1.566V112.93a1.812,1.812,0,0,0-.9-1.566l-9.8-5.656V59.565ZM51.832,35.9l7.084,4.09-7.084,4.09-7.084-4.09Zm0,81.124-7.084-4.09,7.084-4.09,7.084,4.09Zm-8.892-73.9,7.012,4.048v8.18L42.94,51.3Zm0,72.944,7.012,4.048v8.18l-7.012-4.048Zm17.785,8.18-7.156,4.132v-8.18l7.156-4.132Zm0-72.944L53.569,55.43V47.25l7.156-4.132Zm64.052,65.722-7.084-4.09,7.084-4.09,7.084,4.09Zm1.736-61.59V47.25l7.156-4.132V51.3ZM124.776,35.9l7.084,4.09-7.084,4.09-7.084-4.09Zm-8.892,7.222,7.012,4.048v8.18L115.884,51.3Zm0,72.944,7.012,4.048v8.18l-7.012-4.048Zm10.628,12.312v-8.18l7.156-4.132v8.18Z" transform="translate(0 0)" fill="#fff"></path><path id="Path_3219" data-name="Path 3219" d="M233.119,407.277a2.159,2.159,0,1,0,2.157,2.159A2.159,2.159,0,0,0,233.119,407.277Z" transform="translate(-148.315 -290.444)" fill="#fff"></path><path id="Path_3220" data-name="Path 3220" d="M197.543,407.277a2.159,2.159,0,1,0,2.157,2.159A2.159,2.159,0,0,0,197.543,407.277Z" transform="translate(-120.781 -290.444)" fill="#fff"></path></g></g></svg> 