<?xml version="1.0" encoding="UTF-8"?> <svg xmlns="http://www.w3.org/2000/svg" width="300" height="186" viewBox="0 0 300 186"><g id="Group_2779" data-name="Group 2779" transform="translate(-523 -717)"><rect id="Rectangle_2" data-name="Rectangle 2" width="300" height="186" transform="translate(523 717)" fill="#051c2c"></rect><g id="Group_2778" data-name="Group 2778" transform="translate(-3819.24 -348)"><path id="Path_2729" data-name="Path 2729" d="M263.884,158.833H253.01a49.9,49.9,0,0,0-6.678-22.892h5.532v5.723h15.262V126.4H251.864v5.723h-8.012a49.7,49.7,0,0,0-22.7-17.741v-5.723h14.117v5.723h15.262V99.123H235.268v5.723H217.335v8.2a55.759,55.759,0,0,0-13.926-1.908,48.229,48.229,0,0,0-13.926,2.1v-8.2H171.551V99.313H156.289v15.262h15.262v-5.723h14.117v5.723a49.715,49.715,0,0,0-22.7,17.741h-8.012v-5.723H139.692v15.262h15.262v-5.723h5.532a50.882,50.882,0,0,0-6.678,22.892H142.933V153.3H127.671v15.262h15.262v-5.723h10.875a50.488,50.488,0,0,0,7.058,23.846H154.76v-5.723H139.5v15.262H154.76V190.5h8.584a50.341,50.341,0,0,0,21.938,16.788v6.678H171.165v-5.723H155.9V223.5h15.262V217.78H189.1v-9.157a73.3,73.3,0,0,0,14.31,1.718,48.229,48.229,0,0,0,13.926-2.1V217.4h17.933v5.723h15.262V207.861H235.267v5.723H221.15v-6.678a50.322,50.322,0,0,0,21.938-16.788h8.584v5.723h15.262V180.58H251.672V186.3h-6.105a48.419,48.419,0,0,0,7.058-23.846H263.5v5.723h15.262V152.919H263.5v5.914Zm-8.2-28.615h7.63v7.63h-7.63Zm-16.6-27.279h7.63v7.63h-7.63Zm-71.348,7.63h-7.63v-7.63h7.63Zm-16.6,27.281h-7.63v-7.63h7.63ZM139.12,164.556h-7.63v-7.63h7.63Zm12.017,27.661h-7.63v-7.63h7.63Zm16.6,27.281h-7.63v-7.63h7.63Zm71.348-7.631h7.63v7.63h-7.63Zm16.6-27.279h7.63v7.63h-7.63ZM203.41,206.525A45.785,45.785,0,1,1,249.2,160.74,45.919,45.919,0,0,1,203.41,206.525Zm64.289-49.6h7.63v7.63H267.7Z" transform="translate(4288.568 996.877)" fill="#fff"></path><path id="Path_2730" data-name="Path 2730" d="M325.814,220.665V210.172H308.836v-2.1a5.943,5.943,0,0,0-5.914-5.914H277.74a7.857,7.857,0,0,0-7.822,7.822v34.911a5.943,5.943,0,0,0,5.914,5.914H319.9a5.943,5.943,0,0,0,5.914-5.914v-5.342a5.8,5.8,0,0,0,3.815-5.532v-8.012a5.736,5.736,0,0,0-3.814-5.343Zm-52.08-10.493a4.031,4.031,0,0,1,4.007-4.007h25.181a2.117,2.117,0,0,1,2.1,2.1v2.1ZM319.9,247.181H275.833a2.117,2.117,0,0,1-2.1-2.1v-31.1H322v6.3H301.777v19.841H322v4.96a2.117,2.117,0,0,1-2.1,2.1Zm5.914-12.973a2.117,2.117,0,0,1-2.1,2.1H305.593V224.1h18.123a2.117,2.117,0,0,1,2.1,2.1Z" transform="translate(4194.779 928.941)" fill="#fff"></path></g></g></svg> 