<?xml version="1.0" encoding="UTF-8"?> <svg xmlns="http://www.w3.org/2000/svg" width="300" height="186" viewBox="0 0 300 186"><g id="Group_60" data-name="Group 60" transform="translate(-1337 -71)"><rect id="Rectangle_2" data-name="Rectangle 2" width="300" height="186" transform="translate(1337 71)" fill="#051c2c"></rect><g id="Group_59" data-name="Group 59" transform="translate(-322 992.075)"><path id="Path_73" data-name="Path 73" d="M191.046,109.52A48.02,48.02,0,0,0,166.224,35.9V9.626A9.622,9.622,0,0,0,156.6,0H79.618A9.862,9.862,0,0,0,70,9.626V86.609a4.813,4.813,0,0,0,4.812,4.812h9.622v9.622a9.752,9.752,0,0,0,9.622,9.622h19.338a47.885,47.885,0,0,0,66.117,10.393L200.4,141.964h0a8.42,8.42,0,0,0,11.547.019,8.178,8.178,0,0,0,0-11.547ZM84.431,86.607H74.808V9.624a5,5,0,0,1,4.811-4.811,4.811,4.811,0,0,1,4.812,4.811ZM98.865,96.23v4.812a4.813,4.813,0,0,1-4.812,4.812,4.938,4.938,0,0,1-4.811-4.812V9.624A9.524,9.524,0,0,0,87.9,4.813h68.7a4.811,4.811,0,0,1,4.812,4.811V34.643a47.611,47.611,0,0,0-20.056.2,25.238,25.238,0,0,0,.811-6.216V17.2a4.482,4.482,0,0,0-3.733-4.451,81.743,81.743,0,0,1-11.877-2.814,4.549,4.549,0,0,0-2.671.029,80.728,80.728,0,0,1-11.806,2.771,4.489,4.489,0,0,0-3.712,4.465V28.629A26.665,26.665,0,0,0,117.3,48.322a48.422,48.422,0,0,0-7.114,9.416H98.864a2.406,2.406,0,0,0,0,4.812h8.855a48.183,48.183,0,0,0-1.825,4.811h-7.03a2.406,2.406,0,0,0,0,4.812h5.773a48.275,48.275,0,0,0,0,19.246h-.962a4.811,4.811,0,0,0-4.812,4.811Zm21.972-51.216h0a21.86,21.86,0,0,1-7.657-16.385v-11.2a85.259,85.259,0,0,0,12.088-2.853,85.976,85.976,0,0,0,12.088,2.857V28.63a20.953,20.953,0,0,1-1.58,7.849,48.088,48.088,0,0,0-14.94,8.536Zm-18.452,60.84a9.56,9.56,0,0,0,1.292-4.812V96.231h2.218a47.972,47.972,0,0,0,4.291,9.624Zm6.1-24.058a43.354,43.354,0,1,1,12.7,30.606,43.3,43.3,0,0,1-12.7-30.606Zm79.561,31.529,3.257,3.257-4.734,4.734-3.266-3.259A48.6,48.6,0,0,0,188.048,113.325Zm20.517,25.246a3.464,3.464,0,0,1-4.732,0L189.981,124.71l4.734-4.732,13.85,13.863a3.369,3.369,0,0,1,0,4.73Z" transform="translate(1667.005 -900.078)" fill="#fff" stroke="#051c2c" stroke-width="2"></path><path id="Path_74" data-name="Path 74" d="M270.22,93.813a2.4,2.4,0,0,0-3.368.481l-5.553,7.4-.445-.445a2.406,2.406,0,0,0-3.4,3.4l2.405,2.405a2.406,2.406,0,0,0,1.7.7h.171a2.4,2.4,0,0,0,1.754-.962l7.217-9.622h0a2.405,2.405,0,0,0-.481-3.368Z" transform="translate(1528.366 -969.351)" fill="#fff" stroke="#051c2c" stroke-width="2"></path><path id="Path_75" data-name="Path 75" d="M287,169.384a2.406,2.406,0,1,0-1.28,4.638,33.71,33.71,0,1,1-8.984-1.211,2.406,2.406,0,1,0,0-4.812A38.46,38.46,0,1,0,287,169.385Z" transform="translate(1542.06 -1024.773)" fill="#fff" stroke="#051c2c" stroke-width="2"></path><path id="Path_76" data-name="Path 76" d="M307.359,239.933l2.405-2.405a2.406,2.406,0,0,0-3.4-3.4l-2.406,2.406a2.406,2.406,0,1,0,3.4,3.4Z" transform="translate(1493.893 -1073.354)" fill="#fff" stroke="#051c2c" stroke-width="2"></path><path id="Path_77" data-name="Path 77" d="M294.7,247.44a2.406,2.406,0,0,0,3.4,0l19.246-19.246h0a2.406,2.406,0,0,0-3.4-3.4L294.7,244.039a2.4,2.4,0,0,0,0,3.4Z" transform="translate(1500.741 -1066.427)" fill="#fff" stroke="#051c2c" stroke-width="2"></path><path id="Path_78" data-name="Path 78" d="M324.4,292.985a2.407,2.407,0,0,0,1.7-.7l36.086-36.086a2.406,2.406,0,0,0-3.4-3.4L322.7,288.878a2.406,2.406,0,0,0,1.7,4.107Z" transform="translate(1479.955 -1087.209)" fill="#fff" stroke="#051c2c" stroke-width="2"></path><path id="Path_79" data-name="Path 79" d="M305.743,308.664a2.406,2.406,0,0,0,1.7-.7l14.434-14.434a2.406,2.406,0,0,0-3.4-3.4l-14.434,14.434a2.406,2.406,0,0,0,1.7,4.107Z" transform="translate(1493.808 -1114.918)" fill="#fff" stroke="#051c2c" stroke-width="2"></path><path id="Path_80" data-name="Path 80" d="M395.173,234.127l-7.217,7.217a2.406,2.406,0,1,0,3.4,3.4l7.217-7.217a2.406,2.406,0,0,0-3.4-3.4Z" transform="translate(1431.545 -1073.355)" fill="#fff" stroke="#051c2c" stroke-width="2"></path></g></g></svg> 