<?xml version="1.0" encoding="UTF-8"?> <svg xmlns="http://www.w3.org/2000/svg" width="300" height="186" viewBox="0 0 300 186" fill="none"><rect width="300" height="186" fill="#051C2C"></rect><path d="M115.155 113.023L124.886 108.091C124.174 104.902 126.607 101.851 129.912 101.851C131.84 101.851 133.538 102.907 134.41 104.535L146.001 103.916L148.869 96.5068C141.892 97.4473 134.595 95.8186 128.58 91.6667L127.708 91.0474L125.459 93.2954L122.384 99.3512C122.315 99.5118 122.223 99.6494 122.085 99.787L114.649 107.196C114.121 107.747 113.249 107.747 112.698 107.196L105.653 100.154C105.102 99.6035 105.102 98.7319 105.653 98.2042L113.112 90.749C113.226 90.6573 113.341 90.5655 113.456 90.4967L119.607 87.3771L121.856 85.1291L121.213 84.2345C117.289 78.5686 115.636 71.8016 116.233 65.2187C117.587 50.3547 130.072 39 144.991 39C160.941 39 173.862 51.9144 173.862 67.8566C173.862 74.0959 171.866 80.3117 167.849 85.497L172.233 88.502L184.788 60.8833C181.414 58.8877 180.817 54.254 183.594 51.4784C187.358 47.7165 193.83 50.4003 193.83 55.7221C193.83 59.1859 190.892 61.9386 187.427 61.7092L174.046 91.1166C173.702 91.8965 172.715 92.1718 172.026 91.6901L166.059 87.584C162.158 91.8048 157.269 94.5574 152.059 95.8649L148.272 105.66C148.089 106.164 147.63 106.554 147.033 106.6L135.053 107.242C134.824 111.738 129.293 113.803 126.194 110.523L115.981 115.661C116.142 120.295 110.496 122.749 107.214 119.469C103.978 116.235 106.273 110.706 110.84 110.706C112.63 110.683 114.214 111.6 115.155 113.023ZM112.538 114.147C111.047 112.656 108.476 113.711 108.476 115.821C108.476 117.932 111.047 119.01 112.538 117.519C113.479 116.578 113.479 115.064 112.538 114.147ZM105.378 125.18H115.27C116.027 125.18 116.647 125.799 116.647 126.556V143.623C116.647 144.38 116.027 144.999 115.27 144.999H105.378C104.62 144.999 104.001 144.38 104.001 143.623V126.556C103.978 125.799 104.597 125.18 105.378 125.18ZM113.892 127.933H106.755V142.247H113.892V127.933ZM122.683 92.6989L120.181 90.1986L114.925 92.8595L108.591 99.1905L113.686 104.283L120.02 97.9518L122.683 92.6989ZM122.384 88.5241L124.358 90.4968L126.584 88.2488C127.089 87.7441 127.892 87.7212 128.443 88.157L130.188 89.3957C135.306 92.9283 141.433 94.4192 147.378 93.8688C160.735 92.653 171.108 81.4136 171.108 67.8568C171.108 53.4508 159.404 41.752 144.99 41.752C131.495 41.752 120.203 52.0514 118.964 65.4702C118.413 71.4343 119.928 77.5355 123.463 82.6738L124.771 84.486C125.161 85.0365 125.092 85.7935 124.61 86.2523L122.384 88.5241ZM151.348 57.557L141.203 63.4522L145.059 65.5626L155.479 59.8279L151.348 57.557ZM138.403 61.9153L148.524 56.0201L145.036 54.0932L134.616 59.8279L138.403 61.9153ZM145.724 51.3405L158.99 58.635C159.472 58.9103 159.724 59.369 159.701 59.9425V74.3485C159.724 74.8532 159.472 75.3808 158.99 75.6331L145.794 82.9047C145.266 83.18 144.853 83.18 144.325 82.9047L131.129 75.6331C130.647 75.3808 130.371 74.8532 130.417 74.3485V59.9202C130.394 59.4156 130.647 58.888 131.129 58.6356L144.394 51.3411C144.784 51.1117 145.288 51.0882 145.724 51.3405ZM156.947 62.1677L146.436 67.9483V79.4176L156.97 73.637V62.1677H156.947ZM142.993 67.5812L133.147 62.1677V73.637L143.682 79.4176V67.9483M159.518 53.52C151.531 45.5373 138.564 45.5373 130.577 53.52C122.59 61.5027 122.59 74.463 130.577 82.4459C138.564 90.4286 151.531 90.4286 159.518 82.4459C167.528 74.4631 167.528 61.5028 159.518 53.52ZM161.469 51.5701C170.535 60.6309 170.535 75.3342 161.469 84.3952C152.404 93.456 137.693 93.456 128.627 84.3952C119.561 75.3345 119.561 60.6311 128.627 51.5701C137.692 42.4864 152.403 42.4864 161.469 51.5701ZM190.157 53.4741C188.115 51.4325 184.626 52.8777 184.626 55.7679C184.626 58.6581 188.138 60.1033 190.157 58.0618C191.42 56.7771 191.42 54.7357 190.157 53.4741ZM131.587 105.293C130.095 103.802 127.525 104.857 127.525 106.967C127.525 109.077 130.095 110.156 131.587 108.665C132.528 107.747 132.528 106.233 131.587 105.293ZM144.554 116.097H154.446C155.203 116.097 155.823 116.716 155.823 117.473V143.624C155.823 144.381 155.203 145 154.446 145H144.554C143.796 145 143.177 144.381 143.177 143.624V117.473C143.177 116.716 143.796 116.097 144.554 116.097ZM153.069 118.849H145.908V142.247H153.069V118.849ZM183.731 86.4366H193.623C194.38 86.4366 195 87.0559 195 87.8129V143.623C195 144.38 194.38 145 193.623 145H183.731C182.974 145 182.354 144.38 182.354 143.623V87.8129C182.354 87.0559 182.974 86.4366 183.731 86.4366ZM192.269 89.1893H185.108V142.247H192.269V89.1893ZM164.154 100.75H174.046C174.803 100.75 175.423 101.37 175.423 102.127V123.712C175.423 124.469 174.803 125.089 174.046 125.089H164.154C163.396 125.089 162.777 124.469 162.777 123.712V102.127C162.777 101.37 163.373 100.75 164.154 100.75ZM172.669 103.503H165.531V122.313H172.669V103.503ZM124.954 116.807H134.846C135.604 116.807 136.223 117.427 136.223 118.184V134.356C136.223 135.113 135.604 135.733 134.846 135.733H124.954C124.197 135.733 123.577 135.113 123.577 134.356V118.184C123.577 117.404 124.197 116.807 124.954 116.807ZM133.492 119.537H126.331V132.957H133.492V119.537Z" fill="white"></path></svg> 