<?xml version="1.0" encoding="UTF-8"?> <svg xmlns="http://www.w3.org/2000/svg" width="300" height="186" viewBox="0 0 300 186" fill="none"><rect width="300" height="186" fill="#051C2C"></rect><path d="M120.268 133.114C123 133.114 125.223 130.891 125.223 128.159C125.223 125.426 123 123.203 120.268 123.203C117.536 123.203 115.312 125.426 115.312 128.159C115.312 130.891 117.536 133.114 120.268 133.114ZM120.268 126.507C121.18 126.507 121.92 127.247 121.92 128.159C121.92 129.07 121.18 129.81 120.268 129.81C119.356 129.81 118.616 129.07 118.616 128.159C118.616 127.247 119.356 126.507 120.268 126.507Z" fill="white" stroke="#051C2C" stroke-width="0.6"></path><path d="M150 133.114C152.732 133.114 154.955 130.891 154.955 128.159C154.955 125.426 152.732 123.203 150 123.203C147.268 123.203 145.044 125.426 145.044 128.159C145.044 130.891 147.268 133.114 150 133.114ZM150 126.507C150.912 126.507 151.652 127.247 151.652 128.159C151.652 129.07 150.912 129.81 150 129.81C149.088 129.81 148.348 129.07 148.348 128.159C148.348 127.247 149.088 126.507 150 126.507Z" fill="white" stroke="#051C2C" stroke-width="0.6"></path><path d="M179.732 123.203C177 123.203 174.776 125.426 174.776 128.159C174.776 130.891 177 133.114 179.732 133.114C182.464 133.114 184.687 130.891 184.687 128.159C184.687 125.426 182.464 123.203 179.732 123.203ZM179.732 129.81C178.82 129.81 178.08 129.07 178.08 128.159C178.08 127.247 178.82 126.507 179.732 126.507C180.643 126.507 181.383 127.247 181.383 128.159C181.383 129.07 180.643 129.81 179.732 129.81Z" fill="white" stroke="#051C2C" stroke-width="0.6"></path><path d="M191.294 115.075V95.1213H168.169V114.943H161.562V95.1213H138.437V114.943H131.83V95.1213H108.706V115.075C103.113 115.881 98.7949 120.692 98.7949 126.505V129.809C98.7949 136.183 103.983 141.371 110.357 141.371H189.642C196.017 141.371 201.205 136.183 201.205 129.809V126.505C201.205 120.694 196.887 115.881 191.294 115.075ZM178.08 98.4265H181.384V101.73H178.08V98.4265ZM171.473 98.4265H174.777V105.034H184.687V98.4265H187.991V114.944H171.473V98.4265ZM179.732 136.417C175.178 136.417 171.473 132.712 171.473 128.158C171.473 123.605 175.178 119.9 179.732 119.9C184.286 119.9 187.991 123.605 187.991 128.158C187.991 132.712 184.286 136.417 179.732 136.417ZM168.169 128.158C168.169 132.367 170.437 136.046 173.807 138.069H155.925C159.294 136.046 161.562 132.367 161.562 128.158C161.562 123.95 159.294 120.271 155.925 118.248H173.809C170.437 120.27 168.169 123.95 168.169 128.158ZM120.268 119.9C124.822 119.9 128.527 123.605 128.527 128.158C128.527 132.712 124.822 136.417 120.268 136.417C115.714 136.417 112.009 132.712 112.009 128.158C112.009 123.605 115.714 119.9 120.268 119.9ZM131.83 128.158C131.83 123.95 129.563 120.271 126.193 118.248H144.077C140.707 120.271 138.439 123.95 138.439 128.158C138.439 132.367 140.707 136.046 144.077 138.069H126.193C129.563 136.046 131.83 132.366 131.83 128.158ZM158.259 128.158C158.259 132.712 154.554 136.417 150 136.417C145.446 136.417 141.741 132.712 141.741 128.158C141.741 123.605 145.446 119.9 150 119.9C154.554 119.9 158.259 123.605 158.259 128.158ZM148.348 98.4265H151.652V101.73H148.348V98.4265ZM141.741 98.4265H145.045V105.034H154.955V98.4265H158.259V114.944H141.741V98.4265ZM118.616 98.4265H121.92V101.73H118.616V98.4265ZM115.313 98.4265V105.034H125.223V98.4265H128.527V114.944H112.009V98.4265H115.313ZM102.098 129.81V126.507C102.098 121.953 105.803 118.248 110.357 118.248H114.343C110.973 120.27 108.706 123.95 108.706 128.158C108.706 132.367 110.973 136.046 114.343 138.069H110.357C105.803 138.069 102.098 134.363 102.098 129.81ZM197.901 129.81C197.901 134.364 194.196 138.069 189.642 138.069H185.657C189.026 136.046 191.294 132.367 191.294 128.158C191.294 123.95 189.026 120.271 185.657 118.248H189.642C194.196 118.248 197.901 121.953 197.901 126.507V129.81Z" fill="white" stroke="#051C2C" stroke-width="0.6"></path><path d="M135.173 80.9177L133.972 83.3178L140.328 89.6738L142.728 88.4729C143.348 88.7769 143.992 89.0411 144.654 89.2658L145.505 91.8161H154.492L155.343 89.2658C156.005 89.0411 156.65 88.7752 157.269 88.4729L159.669 89.6738L166.025 83.3178L164.824 80.9177C165.128 80.2983 165.392 79.6541 165.617 78.9918L168.169 78.1427V69.1554L165.619 68.3048C165.392 67.6441 165.128 66.9999 164.826 66.3788L166.027 63.9788L159.671 57.6228L157.271 58.8236C156.651 58.5197 156.007 58.2554 155.345 58.0307L154.494 55.4804H145.507L144.656 58.0307C143.994 58.2554 143.35 58.5213 142.73 58.8236L140.33 57.6228L133.974 63.9788L135.175 66.3788C134.871 66.9982 134.607 67.6424 134.382 68.3048L131.83 69.1554V78.1427L134.38 78.9934C134.607 79.6541 134.871 80.2983 135.173 80.9177ZM135.134 71.5356L137.056 70.8948L137.294 70.054C137.58 69.0497 137.975 68.09 138.472 67.203L138.898 66.4399L137.994 64.6312L140.983 61.6432L142.795 62.5467L143.558 62.1189C144.44 61.6234 145.398 61.2286 146.405 60.9445L147.248 60.7066L147.89 58.7823H152.117L152.76 60.7066L153.602 60.9445C154.608 61.2286 155.566 61.6234 156.45 62.1189L157.213 62.5467L159.025 61.6432L162.013 64.6312L161.109 66.4399L161.536 67.203C162.033 68.09 162.428 69.0497 162.713 70.054L162.951 70.8948L164.866 71.5356V75.7625L162.943 76.4034L162.705 77.2442C162.419 78.2485 162.024 79.2081 161.527 80.0951L161.101 80.8583L162.005 82.667L159.018 85.655L157.206 84.7515L156.443 85.1793C155.561 85.6748 154.603 86.0696 153.594 86.3537L152.751 86.5916L152.111 88.5159H147.884L147.243 86.5916L146.4 86.3537C145.393 86.0696 144.435 85.6748 143.551 85.1793L142.788 84.7515L140.981 85.655L137.993 82.667L138.896 80.8583L138.47 80.0951C137.973 79.2081 137.578 78.2485 137.292 77.2442L137.055 76.4034L135.134 75.7625V71.5356Z" fill="white" stroke="#051C2C" stroke-width="0.6"></path><path d="M150 83.5606C155.466 83.5606 159.911 79.1157 159.911 73.65C159.911 68.1842 155.466 63.7393 150 63.7393C144.534 63.7393 140.089 68.1842 140.089 73.65C140.089 79.1157 144.534 83.5606 150 83.5606ZM150 67.0429C153.644 67.0429 156.607 70.0061 156.607 73.65C156.607 77.2938 153.644 80.2571 150 80.2571C146.356 80.2571 143.393 77.2938 143.393 73.65C143.393 70.0061 146.356 67.0429 150 67.0429Z" fill="white" stroke="#051C2C" stroke-width="0.6"></path><path d="M178.496 59.7733C177.978 58.5857 177.386 57.4179 176.74 56.3046L173.883 57.9596C174.466 58.9672 174.999 60.0227 175.47 61.098L178.496 59.7733Z" fill="white" stroke="#051C2C" stroke-width="0.6"></path><path d="M174.216 92.1697L183.649 88.397L182.423 85.3297L178.259 86.9947C180.327 82.4391 181.384 77.9644 181.384 73.65C181.384 70.0987 180.851 66.5969 179.795 63.2438L176.644 64.2349C177.597 67.2659 178.081 70.434 178.081 73.65C178.081 77.9479 176.89 82.4672 174.549 87.112L171.143 82.5696L168.5 84.5517L174.216 92.1697Z" fill="white" stroke="#051C2C" stroke-width="0.6"></path><path d="M150 45.5698C154.298 45.5698 158.818 46.7607 163.461 49.1013L158.92 52.5072L160.9 55.1501L168.52 49.4366L164.749 40L161.682 41.2273L163.347 45.3897C158.79 43.3234 154.315 42.2662 150 42.2662C146.452 42.2662 142.949 42.8014 139.594 43.8536L140.585 47.0052C143.62 46.0521 146.788 45.5698 150 45.5698Z" fill="white" stroke="#051C2C" stroke-width="0.6"></path><path d="M137.446 48.1796L136.125 45.1536C134.935 45.6722 133.769 46.2636 132.654 46.9077L134.309 49.767C135.315 49.1839 136.372 48.6487 137.446 48.1796Z" fill="white" stroke="#051C2C" stroke-width="0.6"></path><path d="M123.26 90.9952L126.117 89.3402C125.534 88.3326 125.001 87.2771 124.53 86.2018L121.504 87.5265C122.024 88.7141 122.614 89.8803 123.26 90.9952Z" fill="white" stroke="#051C2C" stroke-width="0.6"></path><path d="M121.741 60.3036C119.673 64.8592 118.616 69.3339 118.616 73.6499C118.616 77.2013 119.15 80.703 120.205 84.0561L123.357 83.0651C122.404 80.034 121.92 76.8659 121.92 73.6499C121.92 69.352 123.111 64.8328 125.451 60.188L128.857 64.7304L131.5 62.7482L125.785 55.1286L116.352 58.9013L117.577 61.9686L121.741 60.3036Z" fill="white" stroke="#051C2C" stroke-width="0.6"></path></svg> 