<?xml version="1.0" encoding="UTF-8"?> <svg xmlns="http://www.w3.org/2000/svg" width="300" height="186" viewBox="0 0 300 186" fill="none"><rect width="300" height="186" fill="#051C2C"></rect><path fill-rule="evenodd" clip-rule="evenodd" d="M154.794 62.0158C154.263 61.4865 153.564 61.157 152.816 61.0836C152.068 61.0102 151.317 61.1973 150.692 61.6132C150.068 62.0291 149.607 62.6479 149.389 63.3642C149.17 64.0805 149.208 64.85 149.496 65.5417C149.783 66.2333 150.303 66.8042 150.966 67.1571C151.628 67.51 152.394 67.6231 153.131 67.4771C153.868 67.3311 154.531 66.9351 155.008 66.3565C155.485 65.7778 155.746 65.0524 155.746 64.3039C155.746 63.8788 155.663 63.4579 155.499 63.0652C155.336 62.6725 155.096 62.3159 154.794 62.0158ZM152.497 57.917C153.981 57.917 155.419 58.4295 156.566 59.3671C157.713 60.3048 158.498 61.6095 158.787 63.059C159.077 64.5085 158.852 66.0132 158.153 67.3165C157.453 68.6199 156.322 69.6414 154.951 70.2069C153.58 70.7724 152.055 70.847 150.635 70.4179C149.215 69.9889 147.988 69.0827 147.164 67.8539C146.34 66.625 145.969 65.1495 146.114 63.6787C146.26 62.2079 146.913 60.8329 147.962 59.7879C148.557 59.1938 149.264 58.7226 150.042 58.4016C150.82 58.0805 151.655 57.9158 152.497 57.917ZM152.497 42.3894L200.268 70.2146L198.788 72.7407L191.778 68.6569C191.702 68.6027 191.621 68.5555 191.536 68.5159L153.316 46.2479C153.073 46.1004 152.794 46.0213 152.51 46.0191C152.225 46.0168 151.945 46.0915 151.7 46.2352L113.459 68.5102C113.374 68.5494 113.293 68.5966 113.217 68.6511L106.206 72.7407L104.726 70.2146L152.497 42.3894ZM120.188 99.0521V102.586H121.478V99.0521H120.188ZM124.642 99.0521H130.282V117.873H111.386V99.0521H117.024V104.162C117.025 104.58 117.192 104.981 117.488 105.276C117.785 105.571 118.187 105.737 118.607 105.737H123.061C123.48 105.737 123.882 105.571 124.179 105.276C124.476 104.98 124.642 104.58 124.642 104.162V99.0521ZM120.188 121.024V124.193H121.478V121.024H120.188ZM124.642 121.024H130.282V139.845H111.386V121.024H117.024V125.762C117.024 126.18 117.191 126.581 117.488 126.877C117.785 127.172 118.187 127.338 118.607 127.338H123.061C123.48 127.338 123.883 127.172 124.179 126.876C124.476 126.581 124.642 126.18 124.642 125.762V121.024ZM141.628 121.024V124.193H142.919V121.024H141.628ZM146.082 121.024H152.347V139.845H133.446V121.024H138.465V125.762C138.465 126.18 138.631 126.581 138.928 126.876C139.224 127.172 139.626 127.338 140.046 127.338H144.5C144.92 127.338 145.322 127.172 145.619 126.877C145.916 126.581 146.082 126.18 146.082 125.762V121.024ZM126.019 78.9266H178.975V76.427H126.019V78.9266ZM126.019 84.5774H178.975V82.0778H126.019V84.5774ZM126.019 90.2281H178.975V87.7286H126.019V90.2281ZM190.41 129.668L192.83 127.258L191.381 125.817C191.13 125.567 190.972 125.241 190.929 124.891C190.887 124.541 190.965 124.187 191.149 123.886C191.469 123.363 191.751 122.818 191.991 122.255C192 122.228 192.011 122.203 192.021 122.178C192.251 121.625 192.441 121.057 192.588 120.478C192.648 120.108 192.838 119.772 193.124 119.529C193.411 119.287 193.774 119.153 194.15 119.153H196.195V115.741H194.154C193.8 115.74 193.457 115.622 193.179 115.404C192.901 115.186 192.705 114.881 192.621 114.539C192.47 113.919 192.27 113.311 192.025 112.721V112.716C191.794 112.16 191.523 111.621 191.212 111.105C190.998 110.801 190.898 110.432 190.929 110.062C190.961 109.691 191.123 109.344 191.387 109.081L192.827 107.639L190.407 105.228L188.961 106.669C188.71 106.918 188.383 107.076 188.031 107.118C187.68 107.16 187.324 107.083 187.022 106.9C185.961 106.253 184.808 105.769 183.602 105.467C183.231 105.407 182.893 105.218 182.649 104.933C182.405 104.648 182.271 104.286 182.271 103.911V101.861H178.845V103.899C178.844 104.251 178.725 104.593 178.506 104.869C178.288 105.146 177.982 105.342 177.638 105.425C177.041 105.569 176.456 105.756 175.886 105.987L175.809 106.021C175.248 106.251 174.705 106.522 174.184 106.83C173.88 107.045 173.509 107.145 173.137 107.113C172.766 107.081 172.418 106.92 172.154 106.657L170.707 105.216L168.285 107.639L169.732 109.08C169.982 109.329 170.141 109.655 170.184 110.006C170.226 110.356 170.148 110.71 169.964 111.011C169.314 112.068 168.829 113.216 168.525 114.418C168.465 114.788 168.275 115.124 167.989 115.367C167.703 115.61 167.339 115.743 166.963 115.743H164.911V119.153H166.956C167.31 119.154 167.653 119.273 167.931 119.49C168.209 119.708 168.406 120.013 168.489 120.355C168.633 120.95 168.822 121.533 169.053 122.1C169.065 122.123 169.075 122.148 169.085 122.173C169.315 122.732 169.587 123.272 169.898 123.791C170.113 124.094 170.213 124.464 170.181 124.834C170.149 125.204 169.987 125.551 169.724 125.814L168.277 127.255L170.698 129.666L172.145 128.225C172.395 127.976 172.722 127.817 173.073 127.775C173.425 127.734 173.78 127.81 174.082 127.994C175.143 128.641 176.297 129.125 177.504 129.428C177.875 129.487 178.213 129.676 178.457 129.961C178.701 130.246 178.835 130.609 178.834 130.983V133.02H182.258V130.989C182.259 130.637 182.378 130.295 182.597 130.018C182.815 129.741 183.121 129.545 183.465 129.462C184.088 129.311 184.698 129.113 185.29 128.868C185.848 128.639 186.389 128.368 186.908 128.06C187.213 127.845 187.584 127.745 187.955 127.777C188.327 127.808 188.676 127.969 188.94 128.232L190.386 129.673L190.41 129.668ZM182.139 98.7147V74.8508C182.139 74.4328 181.972 74.0319 181.675 73.7363C181.378 73.4407 180.976 73.2746 180.556 73.2746H124.438C124.018 73.2746 123.616 73.4407 123.319 73.7363C123.022 74.0319 122.856 74.4328 122.856 74.8508V95.9009H115.719V70.8329L152.497 49.4073L189.275 70.8329V102.111C188.998 102.24 188.745 102.416 188.529 102.632L187.559 103.599C187.216 103.427 186.864 103.267 186.504 103.119C186.145 102.971 185.786 102.838 185.428 102.72V101.353C185.427 100.653 185.148 99.983 184.651 99.4884C184.154 98.9939 183.481 98.7156 182.779 98.7147H182.139ZM178.975 136.182H178.33C177.982 136.182 177.637 136.114 177.316 135.981C176.995 135.848 176.703 135.653 176.457 135.408C176.413 135.364 176.372 135.318 176.333 135.269C175.914 134.791 175.682 134.179 175.681 133.544V132.172C175.316 132.052 174.957 131.919 174.603 131.774C174.25 131.628 173.899 131.468 173.55 131.293L172.58 132.259C172.083 132.753 171.409 133.031 170.707 133.031C170.004 133.031 169.331 132.753 168.834 132.259L165.684 129.123C165.642 129.079 165.603 129.036 165.568 128.991C165.125 128.489 164.891 127.839 164.912 127.171C164.934 126.504 165.21 125.869 165.684 125.397L166.654 124.432C166.48 124.09 166.319 123.743 166.172 123.392C166.161 123.363 166.149 123.335 166.14 123.307C166.007 122.981 165.884 122.649 165.772 122.313H164.399C163.697 122.312 163.024 122.034 162.528 121.539C162.031 121.045 161.752 120.374 161.751 119.675V115.228C161.751 114.528 162.03 113.857 162.527 113.363C163.024 112.868 163.697 112.59 164.399 112.59H165.772C165.893 112.226 166.026 111.869 166.172 111.517C166.318 111.166 166.479 110.816 166.655 110.467L165.684 109.501C165.188 109.006 164.91 108.335 164.91 107.635C164.91 106.936 165.188 106.265 165.684 105.77L168.834 102.632C169.331 102.138 170.004 101.861 170.706 101.861C171.408 101.861 172.082 102.138 172.579 102.632L173.549 103.598C173.892 103.425 174.24 103.265 174.593 103.119C174.621 103.107 174.65 103.096 174.678 103.086C175.005 102.953 175.338 102.831 175.676 102.72V101.353C175.676 101.006 175.745 100.663 175.878 100.343C176.011 100.023 176.206 99.7325 176.453 99.4878C176.495 99.4468 176.539 99.4082 176.586 99.3722C177.067 98.9499 177.685 98.7169 178.326 98.717H178.971V93.3794H126.019V95.9009H131.863C132.071 95.9007 132.277 95.9414 132.469 96.0204C132.661 96.0995 132.835 96.2155 132.982 96.3618C133.129 96.5081 133.246 96.6818 133.325 96.8729C133.405 97.0641 133.446 97.269 133.446 97.4759V117.873H153.924C154.132 117.873 154.338 117.914 154.53 117.993C154.721 118.072 154.896 118.188 155.043 118.335C155.19 118.481 155.306 118.655 155.385 118.846C155.465 119.037 155.506 119.242 155.505 119.449V139.852H178.975V136.182ZM189.275 132.781V139.852H182.139V136.182H182.784C183.421 136.181 184.036 135.95 184.516 135.533C184.565 135.494 184.611 135.452 184.655 135.408C184.901 135.163 185.097 134.873 185.23 134.553C185.364 134.233 185.432 133.89 185.432 133.544V132.173C185.801 132.052 186.163 131.919 186.516 131.774C186.873 131.626 187.221 131.466 187.56 131.295L188.53 132.261C188.746 132.477 188.999 132.654 189.276 132.784L189.275 132.781ZM195.424 129.123L192.439 132.096V141.421C192.439 141.839 192.274 142.24 191.978 142.536C191.682 142.832 191.28 142.999 190.861 143C190.815 143 190.768 142.998 190.722 142.993H180.695C180.649 142.998 180.603 143 180.556 143C180.51 143 180.463 142.998 180.417 142.993H154.063C154.017 142.993 153.971 142.993 153.924 142.993H109.802C109.383 142.993 108.981 142.827 108.684 142.532C108.388 142.236 108.221 141.836 108.221 141.418V97.4759C108.221 97.0582 108.388 96.6576 108.684 96.3622C108.981 96.0668 109.383 95.9009 109.802 95.9009H112.55V72.6737L106.438 76.2364C106.259 76.3407 106.062 76.409 105.857 76.4373C105.652 76.4656 105.443 76.4533 105.243 76.4013C105.042 76.3493 104.854 76.2584 104.689 76.1339C104.524 76.0095 104.386 75.8538 104.281 75.6759L101.217 70.4469C101.112 70.2692 101.044 70.0726 101.015 69.8684C100.987 69.6642 100.999 69.4564 101.051 69.2569C101.103 69.0574 101.194 68.8701 101.319 68.7057C101.444 68.5413 101.6 68.403 101.778 68.2987L151.678 39.2289C151.921 39.0816 152.2 39.0025 152.484 39.0001C152.769 38.9976 153.049 39.0719 153.294 39.2151L203.222 68.2987C203.4 68.403 203.556 68.5413 203.681 68.7057C203.806 68.8701 203.897 69.0574 203.949 69.2569C204.001 69.4564 204.013 69.6642 203.985 69.8684C203.956 70.0726 203.888 70.2692 203.783 70.4469L200.713 75.6759C200.609 75.8538 200.47 76.0095 200.305 76.1339C200.14 76.2584 199.952 76.3493 199.751 76.4013C199.551 76.4533 199.343 76.4656 199.137 76.4373C198.932 76.409 198.735 76.3407 198.556 76.2364L192.443 72.676V102.795L195.424 105.77C195.92 106.264 196.199 106.935 196.199 107.635C196.199 108.334 195.92 109.005 195.424 109.5L194.454 110.467C194.626 110.807 194.786 111.153 194.934 111.507C195.081 111.858 195.214 112.218 195.336 112.586H196.707C197.056 112.585 197.402 112.653 197.725 112.785C198.048 112.917 198.341 113.111 198.589 113.357C198.836 113.602 199.032 113.894 199.166 114.215C199.3 114.536 199.369 114.88 199.369 115.228V119.664C199.367 120.363 199.088 121.034 198.591 121.528C198.095 122.022 197.422 122.301 196.72 122.302H195.343C195.221 122.67 195.088 123.03 194.941 123.382C194.93 123.409 194.917 123.436 194.904 123.463C194.766 123.791 194.616 124.111 194.459 124.425L195.429 125.391C195.925 125.886 196.204 126.557 196.204 127.257C196.204 127.957 195.925 128.628 195.429 129.123H195.424ZM184.927 113.092C185.938 114.1 186.568 115.425 186.708 116.842C186.848 118.26 186.491 119.682 185.696 120.867C184.902 122.051 183.72 122.925 182.351 123.338C180.983 123.752 179.512 123.68 178.191 123.135C176.87 122.59 175.779 121.606 175.105 120.349C174.431 119.093 174.215 117.643 174.494 116.246C174.772 114.849 175.529 113.591 176.635 112.687C177.74 111.784 179.126 111.29 180.556 111.29C181.368 111.289 182.172 111.447 182.922 111.757C183.672 112.066 184.353 112.52 184.927 113.092ZM180.556 108.138C182.718 108.14 184.812 108.887 186.482 110.254C188.152 111.621 189.295 113.522 189.716 115.634C190.137 117.746 189.809 119.938 188.79 121.836C187.77 123.734 186.121 125.222 184.124 126.045C182.126 126.868 179.904 126.977 177.836 126.351C175.768 125.726 173.981 124.405 172.78 122.615C171.58 120.825 171.039 118.675 171.251 116.533C171.463 114.39 172.415 112.387 173.943 110.864C174.811 109.998 175.841 109.312 176.976 108.844C178.111 108.376 179.328 108.136 180.556 108.138Z" fill="white" stroke="#051C2C" stroke-width="0.6"></path></svg> 