<?xml version="1.0" encoding="UTF-8"?> <svg xmlns="http://www.w3.org/2000/svg" width="300" height="186" viewBox="0 0 300 186" fill="none"><rect width="300" height="186" fill="#051C2C"></rect><path d="M198.423 43H101.564C99.0448 43 97 45.0516 97 47.5793V121.77C97 124.297 99.0449 126.349 101.564 126.349H137.981V133.549L132.849 136.229C132.703 136.309 132.543 136.389 132.397 136.455C130.964 137.185 129.012 138.178 129.012 140.532C129.012 142.993 131.013 145 133.466 145H166.534C168.987 145 170.988 142.993 170.988 140.532C170.988 138.164 169.023 137.172 167.603 136.442C167.457 136.362 167.297 136.295 167.151 136.215L162.019 133.536V126.336H198.436C200.955 126.336 203 124.284 203 121.756L202.991 47.5796C202.991 45.0608 200.947 43 198.423 43ZM101.564 45.6523H198.428C199.497 45.6523 200.357 46.5201 200.357 47.5882V58.5359L99.6307 58.5403V47.5793C99.6307 46.5201 100.495 45.6523 101.564 45.6523ZM99.6304 90.1419V61.184H117.653V90.1465L99.6304 90.1419ZM117.653 92.7854V110.217H99.6304V92.7854H117.653ZM120.287 91.4636V61.1841H179.687V91.4636C179.687 92.1934 180.277 92.7854 181.004 92.7854H200.344V110.217H120.288L120.287 91.4636ZM182.335 90.1418V76.9821H200.357V90.1418H182.335ZM182.335 74.339V61.1839H200.357V74.3436L182.335 74.339ZM160.076 135.53L165.922 138.574C166.082 138.654 166.242 138.734 166.401 138.823C167.878 139.576 168.344 139.905 168.344 140.546C168.344 141.547 167.528 142.37 166.525 142.37L133.462 142.366C132.464 142.366 131.643 141.547 131.643 140.541C131.643 139.905 132.109 139.571 133.586 138.819C133.745 138.739 133.905 138.659 134.065 138.57L139.911 135.526C140.341 135.299 140.625 134.84 140.625 134.351V126.341H159.375V134.351C159.362 134.849 159.632 135.303 160.076 135.53ZM198.423 123.706H101.565C100.496 123.706 99.635 122.838 99.635 121.77V112.874H200.348V121.77C200.357 122.829 199.492 123.706 198.423 123.706ZM196.086 67.7574C196.086 68.4873 195.496 69.0792 194.768 69.0792H187.92C187.192 69.0792 186.602 68.4873 186.602 67.7574C186.602 67.0276 187.192 66.4357 187.92 66.4357H194.768C195.496 66.4357 196.086 67.0275 196.086 67.7574ZM196.086 83.5557C196.086 84.2855 195.496 84.8775 194.768 84.8775H187.92C187.192 84.8775 186.602 84.2856 186.602 83.5557C186.602 82.8258 187.192 82.2339 187.92 82.2339H194.768C195.496 82.2384 196.086 82.8302 196.086 83.5557ZM113.386 69.3729C113.386 70.1028 112.796 70.6947 112.069 70.6947H105.22C104.492 70.6947 103.902 70.1028 103.902 69.3729C103.902 68.643 104.492 68.0511 105.22 68.0511H112.069C112.792 68.0511 113.386 68.643 113.386 69.3729ZM113.386 81.9402C113.386 82.67 112.796 83.262 112.069 83.262H105.22C104.492 83.262 103.902 82.6701 103.902 81.9402C103.902 81.2103 104.492 80.6184 105.22 80.6184H112.069C112.792 80.6184 113.386 81.2103 113.386 81.9402ZM158.396 76.5642C158.329 76.5197 158.258 76.4841 158.178 76.4485L143.642 70.2715C143.314 70.1336 142.937 70.1336 142.609 70.2715L128.073 76.4485C127.993 76.4841 127.926 76.5153 127.855 76.5642C127.509 76.8134 127.283 77.2229 127.283 77.6679V93.7339C127.283 94.2679 127.602 94.7485 128.09 94.9532L142.627 101.13C142.786 101.197 142.968 101.233 143.137 101.233C143.305 101.233 143.487 101.197 143.647 101.13L158.183 94.9532C158.671 94.7485 158.99 94.2679 158.99 93.7339V77.6679C158.99 77.2229 158.76 76.8134 158.396 76.5642ZM143.136 72.9417L154.274 77.6678L143.136 82.394L131.998 77.6678L143.136 72.9417ZM129.926 79.675L141.815 84.7216V97.903L129.926 92.8563V79.675ZM156.354 92.8518L144.466 97.8984L144.462 84.7216L156.35 79.675L156.354 92.8518ZM168.889 76.4839V94.9173L170.446 93.3552C170.957 92.8434 171.799 92.8434 172.309 93.3552C172.819 93.867 172.819 94.7125 172.309 95.2243L168.495 99.0516C168.246 99.3008 167.914 99.4387 167.563 99.4387C167.213 99.4387 166.88 99.3008 166.632 99.0516L162.817 95.2243C162.307 94.7125 162.307 93.867 162.817 93.3552C163.327 92.8434 164.17 92.8434 164.68 93.3552L166.237 94.9173L166.232 76.4839L164.689 78.0548C164.179 78.5666 163.336 78.5666 162.826 78.0548C162.316 77.5431 162.316 76.6975 162.826 76.1858L166.627 72.3585C166.876 72.1093 167.208 71.9713 167.559 71.9713C167.909 71.9713 168.242 72.1093 168.49 72.3585L172.305 76.1858C172.815 76.6975 172.815 77.5431 172.305 78.0548C172.043 78.3174 171.715 78.442 171.373 78.442C171.032 78.442 170.704 78.3174 170.442 78.0548L168.889 76.4839Z" fill="white"></path></svg> 