<?xml version="1.0" encoding="UTF-8"?> <svg xmlns="http://www.w3.org/2000/svg" width="300" height="186" viewBox="0 0 300 186" fill="none"><rect width="300" height="186" fill="#051C2C"></rect><path d="M136.468 141.531C136.768 141.831 137.175 142 137.6 142C138.024 142 138.431 141.831 138.731 141.531L146.731 133.531L144.468 131.269L137.6 138.137L107.862 108.4L125.931 90.3311L123.668 88.0687L104.468 107.269C104.169 107.569 104 107.976 104 108.4C104 108.824 104.169 109.231 104.468 109.531L136.468 141.531Z" fill="white"></path><path d="M199.99 79.424L196.79 50.624C196.75 50.2626 196.588 49.9256 196.331 49.6685C196.074 49.4114 195.737 49.2496 195.376 49.2096L166.576 46.0096C166.337 45.9844 166.096 46.0126 165.87 46.092C165.644 46.1714 165.439 46.3001 165.268 46.4688L154.068 57.6688L156.331 59.9312L166.987 49.2752L193.76 52.248L196.732 79.0128L190.454 85.2912L187.414 64.8416C188.471 64.4217 189.345 63.6417 189.883 62.6394C190.421 61.6371 190.587 60.4771 190.352 59.3642C190.117 58.2514 189.497 57.2573 188.6 56.5577C187.703 55.8581 186.588 55.498 185.451 55.541C184.315 55.5839 183.23 56.0272 182.389 56.7925C181.547 57.5578 181.003 58.5958 180.853 59.7232C180.703 60.8506 180.956 61.9948 181.568 62.9536C182.18 63.9125 183.111 64.6242 184.196 64.9632L186.672 81.6032L164.331 59.2688C164.031 58.9688 163.624 58.8003 163.2 58.8003C162.775 58.8003 162.368 58.9688 162.068 59.2688L154.068 67.2688L156.331 69.5312L163.2 62.6624L183.337 82.8L179.668 86.4688L181.931 88.7312L186.731 83.9312C186.821 83.8282 186.898 83.7136 186.958 83.5904L187.63 88.1072L184.468 91.2688L186.731 93.5312L188.216 92.0464L189.232 98.8656C189.32 99.5884 189.554 100.286 189.919 100.916C190.284 101.546 190.773 102.096 191.356 102.533C191.939 102.969 192.604 103.283 193.312 103.457C194.019 103.63 194.754 103.658 195.473 103.54C196.191 103.422 196.879 103.16 197.493 102.769C198.108 102.379 198.638 101.868 199.05 101.268C199.463 100.668 199.75 99.9902 199.894 99.2763C200.038 98.5624 200.036 97.8268 199.889 97.1136L196.945 83.3168L199.531 80.7312C199.7 80.5616 199.83 80.3561 199.909 80.1299C199.989 79.9036 200.016 79.6623 199.99 79.424ZM185.6 58.8C185.916 58.8 186.225 58.8938 186.488 59.0696C186.752 59.2455 186.957 59.4953 187.078 59.7877C187.199 60.0801 187.231 60.4018 187.169 60.7121C187.107 61.0225 186.955 61.3076 186.731 61.5314C186.507 61.7551 186.222 61.9075 185.912 61.9692C185.601 62.031 185.28 61.9993 184.987 61.8782C184.695 61.7571 184.445 61.552 184.269 61.2889C184.093 61.0258 184 60.7164 184 60.4C184 59.9756 184.168 59.5687 184.468 59.2686C184.768 58.9686 185.175 58.8 185.6 58.8ZM196.756 97.7632C196.813 98.0545 196.81 98.3543 196.748 98.6444C196.685 98.9346 196.565 99.2093 196.394 99.4519C196.224 99.6945 196.005 99.9002 195.753 100.057C195.501 100.213 195.22 100.317 194.926 100.362C194.633 100.407 194.334 100.392 194.046 100.319C193.759 100.245 193.489 100.114 193.253 99.9343C193.017 99.7541 192.82 99.5282 192.674 99.27C192.527 99.0119 192.435 98.7268 192.401 98.432L191.04 89.2304L194.257 86.0128L196.756 97.7632Z" fill="white"></path><path d="M126.069 97.8294L115.67 108.229L117.933 110.492L128.332 100.092L126.069 97.8294Z" fill="white"></path><path d="M131.027 102.789L120.627 113.188L122.89 115.451L133.289 105.052L131.027 102.789Z" fill="white"></path><path d="M131.668 112.068L125.588 118.148L127.851 120.411L133.931 114.331L131.668 112.068Z" fill="white"></path><path d="M134.87 118.788L130.549 123.109L132.812 125.372L137.132 121.051L134.87 118.788Z" fill="white"></path><path d="M138.708 124.869L135.509 128.069L137.772 130.332L140.971 127.132L138.708 124.869Z" fill="white"></path><path d="M161.6 134C167.051 133.998 172.357 132.245 176.736 128.998L188.275 140.537C189.211 141.474 190.482 142 191.806 142C193.131 142 194.401 141.474 195.337 140.537C196.274 139.601 196.8 138.331 196.8 137.006C196.8 135.682 196.274 134.412 195.337 133.475L183.531 121.669L183.326 121.874C186.304 117.056 187.599 111.386 187.007 105.753C186.415 100.12 183.97 94.8431 180.056 90.7497C176.141 86.6564 170.978 83.9783 165.378 83.1358C159.777 82.2932 154.055 83.3337 149.109 86.0941C144.163 88.8545 140.274 93.1786 138.051 98.388C135.828 103.597 135.397 109.397 136.826 114.878C138.255 120.359 141.463 125.21 145.947 128.671C150.43 132.131 155.936 134.006 161.6 134ZM193.075 135.737C193.242 135.904 193.374 136.102 193.464 136.32C193.554 136.537 193.6 136.771 193.6 137.006C193.6 137.242 193.554 137.475 193.464 137.693C193.374 137.911 193.242 138.108 193.075 138.275C192.908 138.442 192.71 138.574 192.493 138.664C192.275 138.754 192.042 138.801 191.806 138.801C191.57 138.801 191.337 138.754 191.119 138.664C190.902 138.574 190.704 138.442 190.537 138.275L179.2 126.939C180.071 126.115 180.883 125.232 181.63 124.294L193.075 135.737ZM161.6 86C166.03 86 170.361 87.3137 174.044 89.775C177.728 92.2364 180.599 95.7348 182.295 99.8278C183.99 103.921 184.434 108.425 183.569 112.77C182.705 117.115 180.572 121.106 177.439 124.239C174.306 127.372 170.315 129.505 165.97 130.369C161.625 131.234 157.121 130.79 153.028 129.095C148.935 127.399 145.436 124.528 142.975 120.845C140.513 117.161 139.2 112.83 139.2 108.4C139.206 102.461 141.568 96.7672 145.768 92.5678C149.967 88.3683 155.661 86.0063 161.6 86Z" fill="white"></path><path d="M161.6 127.6C165.397 127.6 169.109 126.474 172.267 124.364C175.424 122.254 177.885 119.256 179.338 115.747C180.792 112.239 181.172 108.379 180.431 104.654C179.69 100.93 177.861 97.5087 175.176 94.8235C172.491 92.1383 169.07 90.3097 165.346 89.5689C161.621 88.828 157.761 89.2083 154.252 90.6615C150.744 92.1147 147.745 94.5756 145.636 97.733C143.526 100.89 142.4 104.603 142.4 108.4C142.405 113.49 144.43 118.371 148.03 121.97C151.629 125.57 156.509 127.594 161.6 127.6ZM161.6 92.4C164.764 92.4 167.858 93.3383 170.489 95.0964C173.12 96.8545 175.171 99.3534 176.382 102.277C177.593 105.201 177.91 108.418 177.292 111.521C176.675 114.625 175.151 117.476 172.914 119.714C170.676 121.951 167.825 123.475 164.721 124.092C161.618 124.71 158.401 124.393 155.477 123.182C152.553 121.971 150.054 119.92 148.296 117.289C146.538 114.658 145.6 111.564 145.6 108.4C145.605 104.158 147.292 100.091 150.291 97.0914C153.291 94.0918 157.358 92.4046 161.6 92.4Z" fill="white"></path><path d="M163.2 114.8H160C159.575 114.8 159.168 114.631 158.868 114.331C158.568 114.031 158.4 113.624 158.4 113.2H155.2C155.2 114.473 155.705 115.694 156.606 116.594C157.506 117.494 158.727 118 160 118V121.2H163.2V118C164.473 118 165.694 117.494 166.594 116.594C167.494 115.694 168 114.473 168 113.2V111.6C168 110.327 167.494 109.106 166.594 108.206C165.694 107.306 164.473 106.8 163.2 106.8H160C159.575 106.8 159.168 106.631 158.868 106.331C158.568 106.031 158.4 105.624 158.4 105.2V103.6C158.4 103.176 158.568 102.769 158.868 102.469C159.168 102.169 159.575 102 160 102H163.2C163.624 102 164.031 102.169 164.331 102.469C164.631 102.769 164.8 103.176 164.8 103.6H168C168 102.327 167.494 101.106 166.594 100.206C165.694 99.3057 164.473 98.8 163.2 98.8V95.6H160V98.8C158.727 98.8 157.506 99.3057 156.606 100.206C155.705 101.106 155.2 102.327 155.2 103.6V105.2C155.2 106.473 155.705 107.694 156.606 108.594C157.506 109.494 158.727 110 160 110H163.2C163.624 110 164.031 110.169 164.331 110.469C164.631 110.769 164.8 111.176 164.8 111.6V113.2C164.8 113.624 164.631 114.031 164.331 114.331C164.031 114.631 163.624 114.8 163.2 114.8Z" fill="white"></path><path d="M112 84.4H122.688L133.47 92.1008C133.741 92.2956 134.066 92.4003 134.4 92.4C134.708 92.3994 135.01 92.3105 135.269 92.144C135.539 91.9692 135.751 91.7168 135.875 91.42C136 91.1231 136.032 90.7955 135.968 90.48L134.752 84.4H144C146.121 84.3974 148.154 83.5538 149.654 82.054C151.154 80.5543 151.997 78.5209 152 76.4V54C151.997 51.879 151.154 49.8457 149.654 48.3459C148.154 46.8462 146.121 46.0025 144 46H112C109.879 46.0025 107.846 46.8462 106.346 48.3459C104.846 49.8457 104.003 51.879 104 54V76.4C104.003 78.5209 104.846 80.5543 106.346 82.054C107.846 83.5538 109.879 84.3974 112 84.4ZM107.2 54C107.2 52.727 107.706 51.5061 108.606 50.6059C109.506 49.7057 110.727 49.2 112 49.2H144C145.273 49.2 146.494 49.7057 147.394 50.6059C148.294 51.5061 148.8 52.727 148.8 54V76.4C148.8 77.673 148.294 78.8939 147.394 79.7941C146.494 80.6943 145.273 81.2 144 81.2H132.8C132.563 81.1999 132.328 81.2526 132.114 81.3543C131.9 81.456 131.71 81.6041 131.56 81.7879C131.41 81.9717 131.303 82.1866 131.246 82.417C131.189 82.6473 131.185 82.8875 131.232 83.12L132.032 87.1536L124.125 81.5056C123.856 81.3095 123.533 81.2026 123.2 81.2H112C110.727 81.2 109.506 80.6943 108.606 79.7941C107.706 78.8939 107.2 77.673 107.2 76.4V54Z" fill="white"></path><path d="M112 78H145.6V74.8H113.6V70.5328L116.8 66.2672L120.32 70.96C120.479 71.1586 120.68 71.3192 120.909 71.43C121.138 71.5407 121.389 71.5988 121.643 71.6C121.899 71.593 122.15 71.5248 122.374 71.4009C122.598 71.277 122.789 71.1011 122.931 70.888L128.142 63.0704L134.769 71.0256C134.92 71.2051 135.109 71.3495 135.321 71.4487C135.534 71.5479 135.765 71.5996 136 71.6C136.05 71.6031 136.1 71.6031 136.15 71.6C136.409 71.5755 136.658 71.4884 136.875 71.3463C137.093 71.2041 137.272 71.0111 137.398 70.784L145.398 56.384L142.601 54.832L135.734 67.1904L129.23 59.3824C129.073 59.1875 128.871 59.033 128.642 58.9317C128.413 58.8304 128.163 58.7852 127.913 58.8C127.665 58.8135 127.423 58.8847 127.207 59.008C126.991 59.1313 126.807 59.3034 126.669 59.5104L121.523 67.232L118.08 62.64C117.924 62.451 117.729 62.2988 117.508 62.1943C117.286 62.0898 117.045 62.0356 116.8 62.0356C116.555 62.0356 116.313 62.0898 116.092 62.1943C115.871 62.2988 115.675 62.451 115.52 62.64L113.6 65.2V54H110.4V76.4C110.4 76.8243 110.568 77.2313 110.869 77.5313C111.169 77.8314 111.576 78 112 78Z" fill="white"></path></svg> 