<?xml version="1.0" encoding="UTF-8"?> <svg xmlns="http://www.w3.org/2000/svg" width="300" height="186" viewBox="0 0 300 186" fill="none"><rect width="300" height="186" fill="#051C2C"></rect><path d="M197.494 122.903H196.425V84.901C196.425 82.309 194.316 80.2013 191.725 80.2013H140.87V80.0573C140.87 77.9816 139.181 76.293 137.106 76.293H106.765C104.689 76.293 103 77.9816 103 80.0573V135.235C103 137.311 104.689 139 106.765 139H137.106C139.181 139 140.87 137.311 140.87 135.236V135.194H192.902C196.265 135.194 199 132.458 199 129.096V124.41C199 123.577 198.326 122.903 197.494 122.903ZM191.725 83.2135C192.657 83.2135 193.414 83.9709 193.414 84.9021V122.904H140.87V121.057H190.06C190.892 121.057 191.566 120.382 191.566 119.55V86.5661C191.566 85.7341 190.892 85.0599 190.06 85.0599H140.87V83.2135H191.725ZM149.469 125.915H170.507V126.965H149.469V125.915ZM140.87 118.044V88.0722H188.555V118.044H140.87ZM137.858 135.236C137.858 135.644 137.513 135.989 137.105 135.989H106.765C106.357 135.989 106.012 135.644 106.012 135.236V80.0573C106.012 79.6488 106.357 79.3042 106.765 79.3042H137.106C137.514 79.3042 137.859 79.6488 137.859 80.0573L137.858 135.236ZM195.988 129.095C195.988 130.797 194.603 132.182 192.901 132.182H140.869V125.915H146.456V128.471C146.456 129.303 147.13 129.977 147.962 129.977H172.013C172.845 129.977 173.519 129.303 173.519 128.471V125.915H195.989L195.988 129.095ZM121.934 105.626C114.611 105.626 108.652 111.585 108.652 118.908C108.652 126.232 114.611 132.19 121.934 132.19C129.258 132.19 135.217 126.232 135.217 118.908C135.217 111.585 129.258 105.626 121.934 105.626ZM121.934 129.178C116.271 129.178 111.665 124.571 111.665 118.908C111.665 113.245 116.271 108.639 121.934 108.639C127.597 108.639 132.204 113.245 132.204 118.908C132.205 124.571 127.597 129.178 121.934 129.178ZM121.934 96.7954C124.322 96.7954 126.264 94.853 126.264 92.4658C126.264 90.0786 124.322 88.1362 121.934 88.1362C119.547 88.1362 117.605 90.0786 117.605 92.4658C117.606 94.853 119.547 96.7954 121.934 96.7954ZM121.934 91.1484C122.661 91.1484 123.252 91.7394 123.252 92.4658C123.252 93.1922 122.661 93.7831 121.934 93.7831C121.208 93.7831 120.617 93.1922 120.617 92.4658C120.617 91.7394 121.208 91.1484 121.934 91.1484ZM121.934 112.519C118.411 112.519 115.545 115.385 115.545 118.908C115.545 122.432 118.411 125.298 121.934 125.298C125.458 125.298 128.324 122.432 128.324 118.908C128.324 115.385 125.458 112.519 121.934 112.519ZM121.934 122.285C120.072 122.285 118.557 120.771 118.557 118.908C118.557 117.046 120.072 115.53 121.934 115.53C123.797 115.53 125.313 117.046 125.313 118.908C125.313 120.771 123.797 122.285 121.934 122.285ZM133.204 85.2562C135.129 87.1815 136.19 89.7426 136.19 92.4658C136.19 95.189 135.13 97.75 133.204 99.6753C132.909 99.9697 132.524 100.117 132.139 100.117C131.754 100.117 131.368 99.9697 131.075 99.6753C130.487 99.0876 130.487 98.134 131.075 97.5463C132.431 96.1895 133.179 94.3847 133.179 92.4658C133.179 90.5468 132.431 88.7431 131.075 87.3853C130.487 86.7975 130.487 85.8439 131.075 85.2562C131.662 84.6674 132.616 84.6674 133.204 85.2562ZM126.957 95.3116C128.526 93.7426 128.526 91.189 126.957 89.621C126.37 89.0332 126.37 88.0797 126.957 87.4919C127.545 86.9042 128.499 86.9042 129.086 87.4919C131.83 90.2354 131.83 94.6994 129.086 97.4418C128.792 97.7362 128.407 97.8834 128.022 97.8834C127.637 97.8834 127.251 97.7362 126.957 97.4418C126.37 96.853 126.37 95.8994 126.957 95.3116ZM110.666 99.6753C108.741 97.75 107.679 95.189 107.679 92.4658C107.679 89.7426 108.74 87.1815 110.666 85.2562C111.254 84.6685 112.207 84.6685 112.795 85.2562C113.383 85.8439 113.383 86.7975 112.795 87.3853C111.438 88.7421 110.691 90.5458 110.691 92.4658C110.691 94.3847 111.438 96.1884 112.795 97.5463C113.383 98.134 113.383 99.0876 112.795 99.6753C112.501 99.9697 112.116 100.117 111.731 100.117C111.346 100.116 110.959 99.9687 110.666 99.6753ZM114.782 87.4909C115.37 86.9031 116.324 86.9031 116.911 87.4909C117.499 88.0786 117.499 89.0322 116.911 89.6199C115.342 91.189 115.342 93.7426 116.911 95.3106C117.499 95.8983 117.499 96.8519 116.911 97.4396C116.617 97.734 116.232 97.8812 115.847 97.8812C115.462 97.8812 115.076 97.734 114.782 97.4396C112.04 94.6972 112.04 90.2332 114.782 87.4909ZM175.529 96.9319C176.117 97.5196 176.117 98.4732 175.529 99.0609C174.941 99.6487 173.988 99.6487 173.4 99.0609C169.817 95.478 165.054 93.5058 159.988 93.5058C154.921 93.5058 150.158 95.4791 146.577 99.0609C146.282 99.3553 145.897 99.5025 145.512 99.5025C145.127 99.5025 144.741 99.3553 144.447 99.0609C143.86 98.4732 143.86 97.5196 144.447 96.9319C148.599 92.7804 154.118 90.4946 159.989 90.4946C165.86 90.4946 171.379 92.7815 175.529 96.9319ZM171.669 100.793C172.257 101.381 172.257 102.335 171.669 102.922C171.374 103.217 170.989 103.364 170.604 103.364C170.219 103.364 169.833 103.217 169.54 102.922C164.273 97.6562 155.704 97.6562 150.437 102.922C149.849 103.51 148.895 103.51 148.308 102.922C147.72 102.335 147.72 101.381 148.308 100.793C154.748 94.3516 165.228 94.3516 171.669 100.793ZM167.809 104.653C168.396 105.241 168.396 106.195 167.809 106.783C167.221 107.37 166.267 107.37 165.679 106.783C162.541 103.644 157.435 103.644 154.297 106.783C154.003 107.077 153.618 107.224 153.233 107.224C152.847 107.224 152.461 107.077 152.168 106.783C151.58 106.195 151.58 105.241 152.168 104.653C156.479 100.341 163.496 100.341 167.809 104.653ZM159.988 106.873C157.576 106.873 155.613 108.836 155.613 111.248C155.613 113.659 157.576 115.622 159.988 115.622C162.399 115.622 164.362 113.659 164.362 111.248C164.362 108.836 162.399 106.873 159.988 106.873ZM159.988 112.61C159.237 112.61 158.626 111.999 158.626 111.248C158.626 110.497 159.237 109.885 159.988 109.885C160.739 109.885 161.35 110.497 161.35 111.248C161.351 111.999 160.74 112.61 159.988 112.61ZM152.778 69.2776C153.118 69.4803 153.29 69.7832 153.29 70.1789V72.4157C153.29 73.6573 153.993 74.7368 155.021 75.2797V75.6658C155.021 77.9048 156.843 79.7266 159.082 79.7266H160.894C163.133 79.7266 164.955 77.9048 164.955 75.6658V75.2797C165.983 74.7368 166.686 73.6573 166.686 72.4157V70.1789C166.686 69.7832 166.858 69.4803 167.198 69.2776C171.45 66.7443 174.091 62.0989 174.091 57.155C174.091 49.379 167.765 43.0526 159.988 43.0526C152.211 43.0526 145.885 49.3779 145.885 57.1539C145.885 62.0989 148.526 66.7443 152.778 69.2776ZM163.674 71.684V72.4146C163.674 72.5373 163.571 72.6408 163.448 72.6408H156.526C156.404 72.6408 156.3 72.5373 156.3 72.4146V71.684H163.674ZM160.894 76.7133H159.082C158.504 76.7133 158.034 76.2429 158.034 75.6648V75.652H161.943V75.6648C161.943 76.2429 161.473 76.7133 160.894 76.7133ZM159.988 46.0638C166.104 46.0638 171.079 51.0387 171.079 57.155C171.079 61.044 169.001 64.6973 165.656 66.6909C164.854 67.1688 164.271 67.8579 163.953 68.6728H156.022C155.703 67.8579 155.121 67.1677 154.318 66.6909C150.973 64.6984 148.895 61.044 148.895 57.155C148.897 51.0387 153.873 46.0638 159.988 46.0638ZM153.332 60.6291L156.586 60.5022L155.501 64.9171C155.34 65.572 155.635 66.2547 156.222 66.5875C156.455 66.7187 156.71 66.7827 156.964 66.7827C157.352 66.7827 157.736 66.6323 158.026 66.3453L167.765 56.6664C168.197 56.2366 168.328 55.588 168.095 55.0238C167.863 54.4595 167.314 54.0915 166.703 54.0915H162.811L163.611 49.2787C163.721 48.6153 163.379 47.9593 162.771 47.6713C162.163 47.3833 161.437 47.5337 160.994 48.0393L152.142 58.131C151.746 58.5832 151.656 59.2286 151.915 59.7715C152.173 60.3155 152.728 60.6547 153.332 60.6291ZM159.773 53.9966L159.548 55.3502C159.476 55.7864 159.598 56.2334 159.885 56.5704C160.171 56.9075 160.591 57.1027 161.034 57.1027H163.052L159.706 60.4286L159.989 59.2787C160.102 58.819 159.992 58.3336 159.693 57.9678C159.406 57.6168 158.978 57.4142 158.526 57.4142C158.507 57.4142 158.487 57.4142 158.468 57.4152L156.716 57.4835L159.773 53.9966ZM178.49 55.6488H185.234C186.066 55.6488 186.74 56.323 186.74 57.155C186.74 57.987 186.066 58.6611 185.234 58.6611H178.49C177.658 58.6611 176.984 57.987 176.984 57.155C176.984 56.323 177.658 55.6488 178.49 55.6488ZM133.237 57.155C133.237 56.323 133.911 55.6488 134.743 55.6488H141.486C142.318 55.6488 142.993 56.323 142.993 57.155C142.993 57.987 142.318 58.6611 141.486 58.6611H134.743C133.911 58.66 133.237 57.9859 133.237 57.155ZM174.707 48.6814C174.291 47.9614 174.538 47.0398 175.258 46.6238L181.098 43.2521C181.818 42.8371 182.74 43.0825 183.156 43.8035C183.572 44.5235 183.324 45.4451 182.604 45.8611L176.764 49.2329C176.527 49.3694 176.268 49.4345 176.012 49.4345C175.492 49.4355 174.986 49.1646 174.707 48.6814ZM145.269 65.6275C145.685 66.3475 145.437 67.2691 144.717 67.6851L138.877 71.0568C138.641 71.1933 138.381 71.2584 138.125 71.2584C137.605 71.2584 137.099 70.9885 136.82 70.5053C136.404 69.7853 136.651 68.8637 137.371 68.4477L143.211 65.076C143.932 64.6611 144.853 64.9064 145.269 65.6275ZM174.707 65.6776C175.123 64.9576 176.043 64.7101 176.764 65.1261L182.604 68.4979C183.324 68.9139 183.572 69.8344 183.156 70.5554C182.876 71.0386 182.371 71.3085 181.85 71.3085C181.594 71.3085 181.336 71.2434 181.098 71.1069L175.258 67.7352C174.538 67.3192 174.292 66.3976 174.707 65.6776ZM136.821 43.7534C137.237 43.0334 138.157 42.7859 138.878 43.2019L144.717 46.5737C145.437 46.9897 145.685 47.9102 145.269 48.6313C144.989 49.1145 144.484 49.3843 143.963 49.3843C143.707 49.3843 143.449 49.3193 143.211 49.1827L137.371 45.811C136.652 45.395 136.405 44.4734 136.821 43.7534Z" fill="white" stroke="#051C2C"></path></svg> 