<?xml version="1.0" encoding="UTF-8"?> <svg xmlns="http://www.w3.org/2000/svg" width="300" height="186" viewBox="0 0 300 186" fill="none"><rect width="300" height="186" fill="#051C2C"></rect><path d="M153.302 59.1268C152.806 58.8404 152.195 58.8404 151.699 59.1268L123.133 75.6196C122.637 75.906 122.331 76.4347 122.331 77.0075V109.992C122.331 110.565 122.636 111.093 123.133 111.38L151.699 127.873C151.948 128.016 152.223 128.087 152.501 128.087C152.779 128.087 153.054 128.016 153.303 127.873L181.869 111.38C182.365 111.093 182.671 110.565 182.671 109.992V77.0062C182.671 76.4335 182.366 75.9048 181.869 75.6184L153.302 59.1268ZM152.5 62.3639L177.861 77.0062L170.755 81.1086L145.394 66.4663L152.5 62.3639ZM152.5 91.6486L127.139 77.0062L134.244 72.9039L159.606 87.5462L152.5 91.6486ZM162.81 85.6969L137.447 71.0546L142.19 68.3168L167.551 82.9591L162.81 85.6969ZM164.412 88.4714L169.155 85.7336V95.7779L164.412 98.5157V88.4714ZM125.536 79.782L150.898 94.4243V123.709L125.536 109.067V79.782ZM154.102 123.709V94.4243L161.208 90.3219V101.29C161.208 101.863 161.513 102.392 162.009 102.678C162.258 102.821 162.533 102.892 162.811 102.892C163.088 102.892 163.364 102.82 163.613 102.678L171.559 98.0898C172.055 97.8034 172.361 97.2747 172.361 96.7019V83.8844L179.467 79.782V109.067L154.102 123.709ZM201.011 64.4788C201.759 63.6135 202.246 62.5512 202.411 61.3922C202.881 58.0939 200.581 55.0293 197.283 54.5581C195.685 54.3305 194.095 54.738 192.804 55.7061C191.512 56.6742 190.677 58.0878 190.449 59.6849C190.221 61.282 190.629 62.8731 191.597 64.1642C192.565 65.4554 193.979 66.2913 195.576 66.519C195.866 66.5606 196.155 66.5801 196.442 66.5801C197.093 66.5801 197.735 66.4749 198.347 66.2693C208.837 83.9982 208.08 106.7 196.445 123.694L195.523 118.373C195.371 117.501 194.543 116.916 193.671 117.068C192.8 117.219 192.215 118.049 192.367 118.92L193.93 127.94C194.064 128.719 194.741 129.269 195.506 129.269C195.597 129.269 195.688 129.262 195.781 129.246L204.801 127.683C205.673 127.532 206.258 126.703 206.106 125.831C205.956 124.96 205.127 124.375 204.254 124.526L199.157 125.41C205.189 116.577 208.573 106.284 208.963 95.5221C209.358 84.5575 206.612 73.8548 201.011 64.4788ZM196.03 63.3479C195.28 63.2414 194.616 62.8486 194.161 62.2415C193.706 61.6357 193.515 60.888 193.621 60.1377C193.728 59.3875 194.121 58.7242 194.728 58.2689C195.225 57.8968 195.814 57.701 196.424 57.701C196.559 57.701 196.694 57.7108 196.83 57.7304C198.378 57.9519 199.459 59.3912 199.239 60.9394C199.132 61.6896 198.74 62.3529 198.132 62.8082C197.527 63.2635 196.779 63.4556 196.03 63.3479ZM186.313 131.447C183.016 130.976 179.949 133.277 179.479 136.575C179.342 137.537 179.443 138.479 179.733 139.343C161.945 149.875 139.324 149.099 122.301 137.444L127.622 136.522C128.493 136.371 129.078 135.541 128.927 134.67C128.776 133.798 127.948 133.213 127.075 133.365L118.055 134.928C117.636 135 117.263 135.237 117.018 135.584C116.773 135.932 116.677 136.361 116.749 136.781L118.312 145.801C118.447 146.581 119.123 147.13 119.888 147.13C119.979 147.13 120.071 147.123 120.164 147.107C121.035 146.956 121.62 146.126 121.468 145.255L120.585 140.158C129.307 146.117 139.455 149.493 150.095 149.947C150.917 149.983 151.737 150 152.556 150C162.793 150 172.734 147.259 181.522 142.009C182.366 142.738 183.421 143.243 184.605 143.412C184.892 143.454 185.179 143.473 185.462 143.473C188.417 143.473 191.009 141.295 191.439 138.284C191.667 136.687 191.259 135.096 190.291 133.805C189.324 132.512 187.912 131.676 186.313 131.447ZM188.269 137.83C188.048 139.379 186.608 140.46 185.06 140.238C183.512 140.017 182.431 138.578 182.652 137.029C182.853 135.616 184.07 134.593 185.459 134.593C185.591 134.593 185.726 134.603 185.862 134.621C186.612 134.727 187.275 135.12 187.731 135.727C188.185 136.332 188.376 137.08 188.269 137.83ZM109.423 120.478C108.462 120.341 107.52 120.441 106.656 120.731C96.1326 102.96 96.9025 80.3144 108.554 63.299L109.477 68.6228C109.611 69.4024 110.288 69.9519 111.053 69.9519C111.144 69.9519 111.235 69.9445 111.328 69.9286C112.2 69.7781 112.785 68.9483 112.633 68.0769L111.07 59.0571C110.92 58.1857 110.091 57.6007 109.218 57.7524L100.198 59.3153C99.327 59.4658 98.742 60.2956 98.8937 61.167C99.0443 62.0384 99.8728 62.6234 100.745 62.4716L105.843 61.588C99.863 70.3386 96.4851 80.5261 96.0482 91.1994C95.5954 102.264 98.3405 113.064 103.991 122.523C103.262 123.367 102.758 124.421 102.589 125.606C102.119 128.904 104.418 131.97 107.717 132.44C108.007 132.482 108.296 132.501 108.583 132.501C109.882 132.501 111.14 132.084 112.196 131.291C113.487 130.323 114.323 128.909 114.551 127.312C114.779 125.715 114.371 124.124 113.403 122.833C112.434 121.541 111.02 120.706 109.423 120.478ZM111.379 126.859C111.272 127.609 110.879 128.273 110.272 128.728C109.666 129.182 108.92 129.374 108.168 129.268C106.62 129.046 105.539 127.607 105.761 126.059C105.963 124.645 107.179 123.622 108.567 123.622C108.701 123.622 108.835 123.632 108.97 123.65C109.72 123.757 110.384 124.15 110.839 124.757C111.294 125.362 111.485 126.109 111.379 126.859ZM119.553 55.6119C120.851 55.6119 122.11 55.1945 123.166 54.4015C124.457 53.4334 125.293 52.0198 125.521 50.4227C125.658 49.4607 125.557 48.5196 125.267 47.6555C143.026 37.1425 165.69 37.9087 182.701 49.5537L177.378 50.4765C176.506 50.6271 175.921 51.4569 176.073 52.3282C176.208 53.1078 176.885 53.6574 177.65 53.6574C177.74 53.6574 177.832 53.65 177.925 53.6341L186.945 52.0712C187.363 51.999 187.737 51.7628 187.982 51.4152C188.226 51.0677 188.323 50.6381 188.251 50.2183L186.688 41.1984C186.536 40.327 185.709 39.742 184.836 39.8938C183.962 40.0443 183.379 40.8729 183.529 41.7455L184.413 46.8404C175.634 40.8447 165.412 37.4656 154.71 37.0446C143.676 36.6101 132.908 39.3553 123.477 44.9912C122.632 44.263 121.577 43.7575 120.394 43.5886C118.795 43.361 117.205 43.7685 115.914 44.7366C114.623 45.7047 113.787 47.1182 113.56 48.7154C113.332 50.3125 113.739 51.9036 114.708 53.1947C115.676 54.4859 117.089 55.3218 118.686 55.5495C118.976 55.5911 119.265 55.6119 119.553 55.6119ZM117.27 51.272C116.816 50.6662 116.624 49.9185 116.731 49.1694C116.837 48.4192 117.23 47.7559 117.837 47.3006C118.334 46.9286 118.924 46.7327 119.533 46.7327C119.668 46.7327 119.804 46.7425 119.94 46.7621C121.488 46.9836 122.569 48.4229 122.347 49.9711C122.241 50.7213 121.848 51.3846 121.241 51.8399C120.635 52.294 119.889 52.4861 119.137 52.3796C118.389 52.2707 117.726 51.8779 117.27 51.272Z" fill="white"></path></svg> 