<?xml version="1.0" encoding="UTF-8"?> <svg xmlns="http://www.w3.org/2000/svg" width="300" height="186" viewBox="0 0 300 186" fill="none"><rect width="300" height="186" fill="#051C2C"></rect><path d="M170.2 49.6993H181.262C185.477 49.7047 188.896 53.1329 188.901 57.3671V72.2248L190.249 70.919V70.9244C190.554 70.6289 190.96 70.4677 191.383 70.4784C191.8 70.4838 192.201 70.6611 192.496 70.9674L198.16 76.8835C198.455 77.1844 198.615 77.5928 198.604 78.0173C198.599 78.4364 198.422 78.8394 198.123 79.1349L191.688 85.3626L190.859 86.1632L198.652 92.3641C198.717 92.3104 198.781 92.262 198.845 92.219C199.401 91.8268 200.097 91.6763 200.765 91.7945L206.89 92.9068C208.281 93.1594 209.206 94.4973 208.96 95.8944L205.285 116.388C205.162 117.06 204.783 117.656 204.226 118.043C203.665 118.43 202.975 118.586 202.306 118.467L196.181 117.36V117.355C195.507 117.237 194.908 116.85 194.523 116.28C194.352 116.039 194.229 115.765 194.148 115.48L188.89 115.233L188.896 130.327C188.885 134.561 185.472 137.989 181.262 138H123.854C119.645 137.989 116.237 134.561 116.232 130.327V109.296H113.37C112.637 109.296 112.001 108.801 111.819 108.092L110.653 104.47C110.15 104.304 109.663 104.126 109.187 103.928C108.711 103.729 108.245 103.514 107.78 103.272L104.308 105.045V105.051C103.699 105.368 102.955 105.249 102.463 104.76L97.5201 99.7955V99.7901C97.0173 99.285 96.9103 98.5005 97.258 97.8772L99.0018 94.449C98.7611 93.9761 98.5418 93.5033 98.3439 93.0305C98.1513 92.5576 97.9694 92.0686 97.8089 91.5689L94.0966 90.3653C93.444 90.1503 93 89.5378 93 88.8499V81.8215C92.9947 81.0907 93.4922 80.4513 94.1983 80.2686L97.8036 79.0972C97.9641 78.5921 98.146 78.0978 98.3385 77.6249C98.5311 77.1521 98.7558 76.6739 98.9965 76.2064L97.2259 72.7246C96.9156 72.1066 97.0333 71.3544 97.5201 70.8653L102.463 65.9057C102.966 65.3952 103.747 65.2877 104.367 65.637L107.785 67.3833C108.251 67.1361 108.721 66.9158 109.192 66.7224C109.663 66.5289 110.15 66.3462 110.658 66.185L111.856 62.4667V62.4721C112.07 61.8111 112.68 61.3652 113.37 61.3652H116.237V57.3674C116.242 53.1386 119.65 49.7104 123.865 49.6997H134.922V48.8077C134.922 47.9264 135.633 47.2117 136.505 47.2117H141.539V42.5906L141.544 42.596C141.544 41.7147 142.255 41.0055 143.127 41H161.979C162.856 41 163.567 41.7147 163.573 42.596V47.2117H168.606C169.029 47.2117 169.435 47.3783 169.735 47.6792C170.035 47.9747 170.2 48.3831 170.2 48.8076L170.2 49.6993ZM200.771 95.1156L197.352 114.17H197.358C197.352 114.213 197.342 114.262 197.331 114.304L202.258 115.196L205.719 95.9108L200.792 95.0188L200.771 95.1156ZM194.469 112.294L197.486 95.4966L188.537 88.3929L180.941 95.7438L182.765 98.7368C183.086 99.258 183.246 99.8598 183.23 100.472C183.22 101.09 183.027 101.687 182.674 102.197C182.337 102.708 181.855 103.111 181.294 103.352C180.727 103.594 180.106 103.664 179.502 103.562L168.916 101.751C168.605 101.692 168.29 101.767 168.033 101.95C167.771 102.133 167.589 102.412 167.53 102.735L167.413 103.385V103.379C167.359 103.691 167.429 104.013 167.6 104.282C167.776 104.54 168.044 104.723 168.349 104.787L178.844 107.033C179.042 107.082 179.229 107.162 179.4 107.275L181.107 108.317C181.176 108.35 181.246 108.393 181.31 108.441L185.648 111.096C186.103 111.375 186.59 111.601 187.098 111.762C187.226 111.799 187.36 111.842 187.499 111.869C187.579 111.88 187.659 111.896 187.734 111.918C188.05 111.971 188.36 112.009 188.676 112.025L194.469 112.294ZM178.598 98.0057L176.693 99.8379L180.031 100.418C180.042 100.418 180.037 100.424 180.042 100.418L180.053 100.413H180.042L178.598 98.0057ZM172.81 99.1663L177.785 94.3571L177.79 94.3518C177.806 94.3303 177.827 94.3088 177.854 94.2873L188.333 84.1531L186.691 82.4551L184.867 80.5475L181.572 83.7339C181.518 83.7877 181.465 83.8414 181.411 83.8951L162.08 102.6L164.497 105.12H164.492C164.225 104.384 164.155 103.589 164.294 102.821L164.412 102.176V102.17C164.615 101.026 165.257 100.01 166.204 99.3386C167.145 98.6669 168.312 98.4036 169.451 98.6025L172.81 99.1663ZM168.242 108.027L166.616 109.607L166.482 109.725L166.434 109.773L166.407 109.784C166.289 109.865 166.156 109.929 166.016 109.977L165.102 110.305H169.809H169.804C170.686 110.305 171.398 111.02 171.398 111.907C171.398 112.788 170.686 113.508 169.804 113.508H152.462C151.584 113.508 150.873 112.788 150.873 111.907C150.873 111.02 151.584 110.305 152.462 110.305H154.976L158.356 101.95L158.362 101.939V101.923L158.367 101.912V101.901L158.378 101.88V101.869L158.389 101.848V101.837L158.41 101.81V101.799L158.415 101.794V101.783L158.431 101.751L158.453 101.719L158.458 101.713L158.469 101.692V101.686L158.49 101.665V101.66H158.496L158.517 101.633L158.57 101.568L158.624 101.514V101.509L158.645 101.488V101.482L158.672 101.461L160.17 100.015L160.175 99.9991C160.079 99.94 159.983 99.8702 159.897 99.8003H152.462C151.584 99.8003 150.873 99.0857 150.873 98.199C150.873 97.3178 151.584 96.5977 152.462 96.5977H158.132C158.036 95.969 158.078 95.3296 158.249 94.717C158.469 93.9271 158.907 93.2179 159.512 92.6643H152.462C151.584 92.6643 150.873 91.9497 150.873 91.063C150.873 90.1818 151.584 89.4671 152.462 89.4671H164.941L178.79 81.6488L178.796 60.2309H170.199V60.4244C170.199 60.8489 170.034 61.2573 169.734 61.5582C169.434 61.8591 169.028 62.0257 168.605 62.0257H136.505C136.083 62.0257 135.681 61.8537 135.382 61.5582C135.088 61.2573 134.922 60.8489 134.922 60.4244V60.2309H126.326V127.468H178.796V110.634L177.929 110.102L168.242 108.027ZM161.753 97.0761C161.78 97.103 161.801 97.1299 161.823 97.1621C161.93 97.2696 162.058 97.3609 162.197 97.42C162.368 97.4899 162.55 97.5221 162.732 97.5221L170.66 89.849L166.198 92.369C166.156 92.3959 166.102 92.4281 166.054 92.455L161.876 94.8194C161.598 94.9752 161.395 95.2331 161.309 95.5394C161.218 95.8511 161.256 96.1788 161.411 96.4582L161.662 96.9257C161.689 96.9795 161.721 97.0278 161.758 97.0708L161.753 97.0761ZM181.983 112.583V129.068C181.978 129.949 181.266 130.664 180.389 130.664H124.735C124.307 130.669 123.906 130.503 123.607 130.202C123.307 129.901 123.136 129.493 123.141 129.068V58.6286C123.141 58.2041 123.307 57.8011 123.607 57.5002C123.906 57.1993 124.313 57.0327 124.735 57.0381H134.915V52.9006H123.853C121.408 52.9113 119.424 54.9048 119.424 57.3659V130.325C119.424 132.792 121.408 134.785 123.863 134.796H181.26C183.71 134.785 185.695 132.787 185.706 130.325V114.651C185.107 114.43 184.534 114.151 183.989 113.812L181.983 112.583ZM188.483 77.049H188.477C188.429 77.1027 188.376 77.1565 188.317 77.2048L187.151 78.3386L189.012 80.2838L190.612 81.9549L194.762 77.9356L191.296 74.3246L188.483 77.049ZM185.706 75.3027V57.3664C185.696 54.9054 183.711 52.9119 181.261 52.9012H170.199V57.0333H180.384C181.266 57.0333 181.978 57.7479 181.983 58.6292V78.9026L183.807 77.1402L185.706 75.3027ZM161.902 107.017L160.388 105.437L158.864 109.188L162.656 107.801M134.401 96.2541C133.711 95.7114 133.588 94.7119 134.129 94.0134C134.669 93.3202 135.664 93.1966 136.354 93.7393L138.21 95.1955L141.5 90.7517C142.024 90.0478 143.019 89.8973 143.72 90.4186C144.426 90.9451 144.576 91.9446 144.051 92.6539L139.788 98.4088L139.761 98.441H139.767C139.226 99.1342 138.231 99.2524 137.541 98.7151L134.401 96.2541ZM131.336 85.2118H146.823C147.245 85.2118 147.647 85.3784 147.946 85.674C148.246 85.9749 148.411 86.3779 148.411 86.8024V102.359C148.417 102.783 148.251 103.192 147.951 103.493C147.652 103.794 147.245 103.96 146.823 103.96H131.342C130.919 103.96 130.513 103.794 130.218 103.493C129.919 103.192 129.753 102.783 129.753 102.359V86.8134C129.753 85.9375 130.464 85.2229 131.342 85.2229L131.336 85.2118ZM145.223 88.4143H132.936V100.762H145.223V88.4143ZM134.402 116.904C133.712 116.367 133.589 115.362 134.129 114.669C134.669 113.976 135.664 113.852 136.36 114.395L138.216 115.846L141.506 111.402H141.5C142.025 110.698 143.02 110.547 143.726 111.069C144.426 111.595 144.576 112.595 144.057 113.304L139.794 119.064L139.767 119.096C139.227 119.784 138.232 119.908 137.542 119.365L134.402 116.904ZM131.337 105.862H146.823C147.246 105.862 147.647 106.028 147.947 106.329C148.246 106.625 148.412 107.033 148.412 107.458V123.009C148.407 123.885 147.695 124.599 146.823 124.599H131.342C130.47 124.594 129.764 123.884 129.753 123.009V107.463C129.753 106.582 130.465 105.867 131.342 105.867L131.337 105.862ZM145.224 109.048H132.937V121.396L145.224 121.402V109.048ZM152.456 120.397H152.461C151.584 120.397 150.873 119.682 150.873 118.795C150.873 117.914 151.584 117.194 152.461 117.194H169.792C170.67 117.194 171.387 117.914 171.387 118.795C171.387 119.682 170.67 120.397 169.792 120.397H152.456ZM152.456 79.1018H152.461C151.584 79.1018 150.873 78.3871 150.873 77.5058C150.873 76.6245 151.584 75.9099 152.461 75.9099H172.676C173.554 75.9099 174.265 76.6245 174.265 77.5058C174.265 78.3871 173.554 79.1018 172.676 79.1018H152.456ZM152.456 71.9659H152.461C151.584 71.9659 150.873 71.2459 150.873 70.3646C150.873 69.4833 151.584 68.7633 152.461 68.7633H172.676C173.554 68.7633 174.27 69.4833 174.27 70.3646C174.27 71.2459 173.554 71.9659 172.676 71.9659H152.456ZM134.402 75.6144C134.054 75.3565 133.824 74.975 133.76 74.5451C133.701 74.1152 133.819 73.68 134.081 73.3361C134.348 72.9976 134.739 72.7773 135.172 72.7343C135.6 72.6913 136.028 72.8256 136.36 73.105L138.216 74.5612L141.506 70.1174H141.5C142.024 69.4135 143.019 69.263 143.72 69.7842C144.426 70.3108 144.576 71.3103 144.057 72.0142L139.794 77.7637L139.767 77.796C139.232 78.4891 138.232 78.6181 137.542 78.0754L134.402 75.6144ZM131.337 64.5722H146.823C147.7 64.5722 148.412 65.2868 148.412 66.1681V81.7191C148.407 82.6003 147.695 83.3095 146.823 83.3095H131.342C130.47 83.3042 129.759 82.5949 129.753 81.7191V66.1681C129.759 65.2923 130.465 64.5777 131.342 64.5722H131.337ZM145.224 67.7747H132.937V80.1281H145.224V67.7747ZM144.721 47.2111H160.388V44.1859H144.725L144.721 47.2111ZM167.016 50.4082L138.098 50.4136V58.8283H167.022V50.4082L167.016 50.4082ZM116.231 64.5616H114.519L113.417 67.963C113.256 68.4734 112.845 68.8657 112.331 69.0108C111.673 69.1935 111.031 69.4138 110.411 69.6825C109.822 69.9189 109.25 70.1929 108.694 70.5046C108.212 70.8324 107.592 70.8754 107.073 70.6121L103.901 68.9786L100.595 72.3101L102.216 75.5019H102.205C102.451 75.9801 102.44 76.5443 102.178 77.0118C101.52 78.1779 101.007 79.4191 100.643 80.7087C100.515 81.2568 100.113 81.692 99.5838 81.8694L96.1763 82.9763V87.6834L99.5678 88.7903C100.076 88.9623 100.466 89.3706 100.606 89.8865C100.964 91.1546 101.461 92.3797 102.093 93.535C102.419 94.0132 102.462 94.6419 102.2 95.1631L100.584 98.3549L103.89 101.676L107.067 100.053C107.538 99.8111 108.1 99.8272 108.565 100.085C109.159 100.418 109.774 100.719 110.4 100.982C111.004 101.23 111.625 101.445 112.251 101.627C112.796 101.756 113.235 102.159 113.406 102.691L114.508 106.093H116.225L116.22 96.7268C110.197 96.399 105.479 91.3964 105.479 85.3353C105.479 79.2742 110.197 74.2715 116.22 73.9438L116.231 64.5616ZM116.231 93.519V77.1468C111.967 77.4746 108.678 81.0425 108.678 85.3358C108.678 89.6238 111.967 93.1912 116.231 93.519Z" fill="white"></path></svg> 