<?xml version="1.0" encoding="UTF-8"?> <svg xmlns="http://www.w3.org/2000/svg" width="300" height="186" viewBox="0 0 300 186" fill="none"><rect width="300" height="186" fill="#051C2C"></rect><path fill-rule="evenodd" clip-rule="evenodd" d="M127.534 92.0118C128.709 92.0118 129.663 92.9707 129.663 94.155C129.663 95.3393 128.709 96.2981 127.534 96.2981C126.796 96.2981 126.145 95.9211 125.764 95.3471H113.66V99.75H119.321C119.657 99.75 119.96 99.8886 120.175 100.114L124.591 104.336C124.741 104.301 124.9 104.283 125.062 104.283C126.239 104.283 127.191 105.241 127.191 106.426C127.191 107.61 126.239 108.569 125.062 108.569C123.886 108.569 122.932 107.61 122.932 106.426C122.932 106.301 122.944 106.178 122.963 106.059L118.856 102.132H113.66V106.579H114.497C114.833 106.579 115.136 106.717 115.351 106.943L117.803 109.289C117.955 109.254 118.114 109.236 118.276 109.236C119.453 109.236 120.405 110.195 120.405 111.379C120.405 112.564 119.453 113.522 118.276 113.522C117.099 113.522 116.146 112.564 116.146 111.379C116.146 111.255 116.158 111.132 116.177 111.013L114.031 108.96H113.659V113.849C113.659 114.391 113.301 114.847 112.812 114.993C112.115 115.241 111.38 115.375 110.628 115.388C109.877 115.399 109.116 115.285 108.372 115.035C107.08 114.602 105.956 113.797 105.085 112.746C103.803 112.597 102.752 112.159 101.922 111.541C101.041 110.886 100.417 110.033 100.024 109.101C99.639 108.185 99.4806 107.198 99.5283 106.252C99.5875 105.083 99.9596 103.955 100.602 103.079C100.646 103.02 100.693 102.967 100.745 102.917C100.522 102.505 100.343 102.067 100.208 101.611C98.609 101.1 97.3255 99.9262 96.45 98.418C95.8115 97.3192 95.3879 96.026 95.218 94.6849C95.0493 93.3464 95.1356 91.9587 95.5153 90.6591C95.9827 89.0653 96.8839 87.605 98.2898 86.5243C97.7207 84.823 97.7761 83.088 98.2498 81.5487C98.5743 80.4953 99.0983 79.5364 99.7561 78.7421C100.432 77.9271 101.253 77.2818 102.148 76.8866C102.778 76.6106 103.438 76.4512 104.106 76.4357C104.262 75.9653 104.472 75.53 104.727 75.1348C105.354 74.1656 106.246 73.4412 107.268 73.002C108.274 72.5692 109.408 72.4124 110.536 72.5718C111.388 72.6936 112.239 72.9942 113.03 73.4931C113.403 73.6926 113.659 74.0904 113.659 74.5465V78.943H114.031L116.177 76.8905C116.157 76.7713 116.146 76.6469 116.146 76.5238C116.146 75.3395 117.099 74.3807 118.276 74.3807C119.453 74.3807 120.405 75.3395 120.405 76.5238C120.405 77.7081 119.453 78.667 118.276 78.667C118.114 78.667 117.955 78.6462 117.803 78.6138L115.351 80.9578C115.136 81.1859 114.833 81.3245 114.497 81.3245H113.66V86.181H118.856L122.963 82.2536C122.943 82.1344 122.932 82.01 122.932 81.8869C122.932 80.7026 123.886 79.7437 125.062 79.7437C126.239 79.7437 127.191 80.7026 127.191 81.8869C127.191 83.0686 126.239 84.03 125.062 84.03C124.9 84.03 124.741 84.0093 124.591 83.9769L120.175 88.1985C119.958 88.4239 119.657 88.5626 119.321 88.5626H113.66V92.9655H125.764C126.145 92.3902 126.796 92.0118 127.534 92.0118ZM166.679 83.2915C166.2 83.2915 165.813 83.6815 165.813 84.1648C165.813 84.6455 166.2 85.0355 166.679 85.0355C167.158 85.0355 167.546 84.6455 167.546 84.1648C167.546 83.6815 167.158 83.2915 166.679 83.2915ZM166.679 74.6592C166.108 74.6592 165.597 75.1322 165.638 75.7075L166.1 82.0748C166.119 82.3378 166.334 82.5373 166.594 82.5373H166.763C167.023 82.5373 167.238 82.3378 167.257 82.0748L167.72 75.7075C167.762 75.1322 167.251 74.6592 166.679 74.6592ZM175.027 96.7698C175.176 96.9136 175.29 97.1041 175.346 97.3218C175.713 98.7523 175.707 100.253 175.323 101.669C174.952 103.044 174.231 104.342 173.16 105.418C171.971 106.615 170.506 107.379 168.965 107.706C167.642 107.99 166.26 107.944 164.95 107.571L154.216 118.375C153.917 118.678 153.523 118.829 153.13 118.829C152.74 118.829 152.35 118.679 152.049 118.375L152.046 118.372L152.044 118.375L148.42 114.729C148.378 114.686 148.34 114.643 148.306 114.597C148.081 114.315 147.969 113.975 147.969 113.635C147.969 113.24 148.12 112.843 148.42 112.542L159.154 101.738C158.786 100.419 158.741 99.0296 159.02 97.6988C159.346 96.1478 160.104 94.672 161.294 93.4747C162.374 92.3889 163.68 91.6607 165.065 91.2875C166.491 90.9053 167.998 90.9078 169.422 91.2953C169.625 91.351 169.804 91.4572 169.944 91.5959C169.958 91.6088 169.971 91.6218 169.985 91.6335C170.446 92.0986 170.446 92.8528 169.985 93.3192L166.884 96.4394L166.939 98.3726L166.977 99.6956L168.292 99.7332L170.212 99.7889L173.286 96.6959C173.749 96.2308 174.498 96.2308 174.96 96.6959C174.985 96.7218 175.006 96.7452 175.027 96.7698ZM165.137 105.136C166.209 105.537 167.372 105.617 168.487 105.38C169.584 105.147 170.63 104.597 171.489 103.734C172.259 102.96 172.775 102.029 173.042 101.044C173.123 100.748 173.178 100.447 173.214 100.144L171.532 101.837C171.268 102.103 170.91 102.217 170.565 102.18L168.231 102.111L165.799 102.04C165.17 102.021 164.668 101.514 164.652 100.885V100.88L164.581 98.4374L164.511 95.9898C164.501 95.6503 164.635 95.3419 164.856 95.119L164.854 95.1164L166.538 93.4203C166.244 93.4527 165.953 93.5084 165.666 93.5874C164.681 93.8505 163.748 94.374 162.968 95.1592C162.109 96.0221 161.564 97.0769 161.331 98.1809C161.097 99.3017 161.177 100.474 161.573 101.552C161.782 101.996 161.705 102.54 161.34 102.906L150.682 113.634L153.13 116.098L163.789 105.371C164.155 105.006 164.698 104.926 165.137 105.136ZM144.484 88.4563C142.978 88.4563 141.614 89.0718 140.626 90.0656C139.637 91.0595 139.028 92.4342 139.028 93.9502C139.028 95.4663 139.638 96.8398 140.626 97.8349C141.614 98.8274 142.978 99.4416 144.484 99.4416C145.992 99.4416 147.355 98.8261 148.344 97.8349C149.332 96.8398 149.941 95.4663 149.941 93.9502C149.941 92.4342 149.331 91.0607 148.344 90.0656C147.356 89.0705 145.99 88.4563 144.484 88.4563ZM146.67 91.7514C147.229 92.3137 147.574 93.0899 147.574 93.9502C147.574 94.808 147.228 95.5881 146.67 96.1491C146.11 96.7115 145.338 97.06 144.484 97.06C143.632 97.06 142.858 96.7102 142.299 96.1491C141.741 95.5868 141.394 94.808 141.394 93.9502C141.394 93.0899 141.742 92.3124 142.299 91.7514C142.859 91.1864 143.632 90.8405 144.484 90.8405C145.338 90.8405 146.11 91.1877 146.67 91.7514ZM141.536 84.2788C141.229 84.3721 140.929 84.481 140.637 84.6028C140.342 84.7272 140.054 84.8632 139.775 85.0122L139.733 84.9915L138.007 84.0754C137.551 83.7916 136.944 83.8499 136.547 84.2477L135.696 85.1055L134.844 85.9633C134.488 86.3222 134.389 86.8872 134.635 87.3575L135.581 89.169L135.605 89.2091C135.455 89.4903 135.319 89.7805 135.197 90.0773C135.075 90.3714 134.969 90.672 134.875 90.9804L134.835 90.9934L132.978 91.5751C132.452 91.6944 132.056 92.1699 132.056 92.7361V93.949V95.1618H132.059C132.059 95.671 132.386 96.1414 132.893 96.2981L134.835 96.9033L134.875 96.9162C134.969 97.2246 135.075 97.5265 135.197 97.8193C135.32 98.1174 135.455 98.4063 135.605 98.6901L135.581 98.7302L134.674 100.469C134.391 100.928 134.447 101.539 134.844 101.937L135.696 102.795L136.547 103.653L136.548 103.65C136.905 104.009 137.465 104.11 137.934 103.86L139.732 102.909L139.773 102.886C140.053 103.037 140.341 103.175 140.636 103.295C140.929 103.417 141.228 103.526 141.535 103.622L141.547 103.662L142.123 105.529C142.243 106.06 142.714 106.458 143.276 106.458H144.481H145.688V106.453C146.192 106.453 146.66 106.126 146.816 105.616L147.418 103.662L147.431 103.622C147.737 103.526 148.037 103.417 148.33 103.295C148.624 103.173 148.913 103.037 149.192 102.886L149.233 102.909L150.96 103.823C151.416 104.109 152.023 104.051 152.42 103.653L153.271 102.795L154.123 101.937L154.122 101.935C154.477 101.578 154.577 101.013 154.332 100.54L153.385 98.7315L153.362 98.6914C153.511 98.4076 153.648 98.12 153.77 97.8206C153.891 97.5265 153.998 97.2259 154.092 96.9175L154.132 96.9045L155.988 96.3253C156.515 96.2061 156.91 95.7306 156.91 95.1644V93.9516V92.7387H156.908C156.908 92.2295 156.581 91.7592 156.073 91.6024L154.132 90.9947L154.092 90.9817C153.998 90.6733 153.891 90.3714 153.77 90.0786C153.647 89.7818 153.511 89.4916 153.363 89.2104L153.385 89.1703L154.293 87.4314C154.576 86.9714 154.52 86.3611 154.123 85.9633L153.271 85.1055L152.42 84.2477L152.418 84.2503C152.062 83.8914 151.502 83.7903 151.033 84.0378L149.235 84.9915L149.193 85.0122C148.913 84.8632 148.626 84.7259 148.33 84.6028C148.037 84.481 147.739 84.3721 147.432 84.2788L147.419 84.2387L146.844 82.3715C146.724 81.8402 146.253 81.4424 145.69 81.4424H144.484H143.279V81.445C142.774 81.445 142.307 81.7742 142.151 82.2847L141.549 84.2387L141.536 84.2788ZM143.804 84.9371L143.611 85.5642C143.502 85.9737 143.175 86.3131 142.734 86.4142C142.326 86.5101 141.928 86.6397 141.544 86.799C141.153 86.961 140.779 87.1554 140.425 87.3782C140.08 87.5933 139.634 87.6257 139.251 87.421L138.634 87.0945L137.607 86.5503L137.37 86.7913L137.132 87.0297L137.671 88.0624L137.975 88.6416C138.185 89.0109 138.192 89.4786 137.954 89.8635C137.731 90.2224 137.54 90.5995 137.377 90.9921C137.218 91.3795 137.089 91.7786 136.995 92.1893C136.905 92.5897 136.608 92.9305 136.19 93.0601L135.525 93.2674L134.421 93.6121V93.9516V94.291L135.525 94.6357L136.149 94.8301C136.557 94.9415 136.893 95.2706 136.994 95.7138C137.088 96.1232 137.216 96.5236 137.376 96.911C137.538 97.3036 137.73 97.6807 137.953 98.037C138.167 98.3843 138.196 98.8313 137.994 99.2187L137.668 99.8407L137.129 100.873L137.367 101.112L137.605 101.353L138.631 100.809L139.207 100.503C139.572 100.29 140.039 100.283 140.422 100.524C140.776 100.746 141.151 100.941 141.541 101.103C141.926 101.265 142.322 101.394 142.732 101.49C143.13 101.581 143.47 101.878 143.598 102.3L143.804 102.969L144.148 104.079H144.484H144.821L145.165 102.969L145.358 102.341C145.468 101.929 145.795 101.593 146.235 101.491C146.643 101.396 147.041 101.266 147.426 101.104C147.816 100.942 148.189 100.748 148.545 100.525C148.891 100.31 149.335 100.28 149.72 100.485L150.337 100.811L151.364 101.355L151.601 101.114L151.839 100.876L151.3 99.8433L150.996 99.2641C150.786 98.8948 150.778 98.427 151.016 98.0396C151.239 97.6833 151.431 97.3062 151.593 96.9136C151.753 96.5262 151.882 96.1271 151.976 95.7164C152.066 95.316 152.363 94.9752 152.78 94.8456L153.446 94.6383L154.549 94.2936V93.9541V93.6147L153.446 93.27L152.821 93.0756C152.413 92.9642 152.077 92.6351 151.977 92.1919C151.883 91.7825 151.754 91.3821 151.594 90.9947C151.432 90.6021 151.24 90.225 151.018 89.8661C150.804 89.5188 150.774 89.0718 150.977 88.6844L151.302 88.0637L151.842 87.031L151.604 86.7926L151.367 86.5516L150.339 87.0958L149.764 87.399C149.398 87.6115 148.932 87.6193 148.548 87.3782C148.193 87.1554 147.82 86.961 147.43 86.799C147.045 86.6397 146.648 86.5101 146.239 86.4142C145.84 86.3209 145.504 86.0242 145.375 85.6044L145.169 84.9358L144.825 83.8253H144.484H144.148L143.804 84.9371ZM169.295 71.311L172.883 77.5643C172.895 77.5876 172.908 77.6071 172.918 77.6304L176.468 83.8201L176.47 83.8175C176.747 84.3009 176.885 84.8192 176.885 85.3413C176.885 85.8596 176.747 86.3792 176.47 86.8625C176.196 87.3407 175.819 87.7177 175.371 87.9782C174.915 88.2438 174.4 88.385 173.854 88.385H166.679H159.504C158.959 88.385 158.444 88.2438 157.989 87.9782C157.539 87.7177 157.161 87.3407 156.888 86.8625C156.612 86.3792 156.474 85.8609 156.474 85.3413C156.474 84.8204 156.612 84.3009 156.888 83.8175C156.901 83.7968 156.914 83.7774 156.926 83.7566L160.476 77.5695L160.478 77.5643L164.063 71.311C164.337 70.8329 164.715 70.4558 165.163 70.1954C165.618 69.9298 166.133 69.7885 166.679 69.7885C167.225 69.7885 167.74 69.9298 168.196 70.1954C168.644 70.4558 169.021 70.8329 169.295 71.311ZM170.839 78.7564C170.852 78.7771 170.865 78.7965 170.876 78.8173L174.426 85.0044L174.428 85.007L174.426 85.0096C174.488 85.1159 174.517 85.2299 174.517 85.3413C174.517 85.4528 174.488 85.5642 174.426 85.6705C174.363 85.7845 174.28 85.8674 174.185 85.9231C174.096 85.9737 173.984 86.0022 173.853 86.0022H166.679H159.504C159.373 86.0022 159.262 85.975 159.172 85.9231C159.078 85.8674 158.996 85.7845 158.932 85.6705C158.87 85.5642 158.84 85.4528 158.84 85.3413C158.84 85.2299 158.87 85.1159 158.932 85.0096C158.944 84.9863 158.956 84.9669 158.966 84.9435L162.517 78.7538L162.518 78.7564L166.106 72.5031C166.171 72.3891 166.252 72.3062 166.347 72.2505C166.436 72.1999 166.548 72.1714 166.679 72.1714C166.811 72.1714 166.923 72.1986 167.011 72.2505C167.105 72.3062 167.189 72.3891 167.252 72.5031L170.839 78.7564ZM196.891 52.7988C197.544 52.7988 198.075 53.33 198.075 53.9883C198.075 54.6465 197.544 55.1803 196.891 55.1803H178.649C177.995 55.1803 177.465 54.6465 177.465 53.9883C177.465 53.33 177.995 52.7988 178.649 52.7988H196.891ZM196.891 58.4016C197.544 58.4016 198.075 58.9354 198.075 59.5936C198.075 60.2519 197.544 60.7831 196.891 60.7831H178.649C177.995 60.7831 177.465 60.2519 177.465 59.5936C177.465 58.9354 177.995 58.4016 178.649 58.4016H196.891ZM99.4034 64.0834C96.8169 64.0834 94.4648 65.1459 92.7628 66.8628C91.0583 68.5757 90 70.9418 90 73.5462V114.357C90 116.961 91.057 119.325 92.7628 121.04C94.4648 122.756 96.8169 123.82 99.4034 123.82H127.485L124.882 128.674H113.887C112.749 128.674 111.714 129.141 110.965 129.895C110.215 130.65 109.75 131.69 109.75 132.837V135.15C109.75 135.654 109.956 136.114 110.29 136.453L110.292 136.456L110.295 136.458C110.63 136.793 111.088 137 111.59 137H160.579C161.082 137 161.54 136.793 161.875 136.458L161.877 136.456L161.88 136.453C162.213 136.114 162.419 135.654 162.419 135.15V132.837C162.419 131.69 161.954 130.65 161.205 129.895C160.456 129.141 159.421 128.674 158.283 128.674H147.288L144.685 123.82H169.545V134.414C169.545 135.122 169.835 135.768 170.301 136.238L170.3 136.241C170.763 136.708 171.407 137 172.114 137H203.43C204.133 137 204.774 136.708 205.242 136.241L205.243 136.238L205.246 136.236L205.249 136.233C205.712 135.763 206 135.12 206 134.414V48.5837C206 47.8775 205.71 47.2323 205.246 46.7619L205.243 46.7593L205.242 46.7567L205.238 46.7541C204.772 46.289 204.132 46 203.43 46H172.111C171.404 46 170.76 46.289 170.297 46.7567C170.267 46.7865 170.239 46.8176 170.215 46.85C169.797 47.31 169.544 47.9203 169.544 48.5837V64.0847H99.4034V64.0834ZM141.998 123.818L144.601 128.672H127.565L130.168 123.818H141.998ZM170.724 66.465H99.4034C97.4697 66.465 95.711 67.2618 94.4365 68.5446C93.1606 69.83 92.3689 71.5987 92.3689 73.5449V114.356C92.3689 116.302 93.1606 118.071 94.4365 119.353C95.711 120.639 97.4697 121.436 99.4034 121.436H170.724H172.762C174.696 121.436 176.455 120.639 177.729 119.353C179.005 118.071 179.797 116.302 179.797 114.356V73.5462C179.797 71.6 179.005 69.8313 177.729 68.5459C176.455 67.2631 174.696 66.4663 172.762 66.4663L170.724 66.465ZM158.28 131.054C158.765 131.054 159.207 131.256 159.529 131.577C159.849 131.901 160.049 132.347 160.049 132.835V134.617H112.117V132.835C112.117 132.347 112.316 131.901 112.637 131.577C112.959 131.256 113.4 131.054 113.886 131.054H123.601H148.565H158.28ZM203.428 48.3803H172.111C172.057 48.3803 172.007 48.4036 171.971 48.4412L171.945 48.4645C171.922 48.4969 171.91 48.5384 171.91 48.5837V64.0847H172.764C175.35 64.0847 177.702 65.1472 179.406 66.864C181.109 68.577 182.167 70.943 182.167 73.5475V114.358C182.167 116.963 181.11 119.326 179.406 121.042C177.701 122.757 175.35 123.821 172.764 123.821H171.91V134.415C171.91 134.473 171.932 134.524 171.965 134.559L171.968 134.561L171.971 134.559C172.007 134.596 172.057 134.62 172.111 134.62H203.428C203.486 134.62 203.536 134.596 203.569 134.564L203.574 134.559C203.608 134.524 203.63 134.473 203.63 134.415V48.585C203.63 48.5267 203.608 48.4788 203.574 48.4438L203.569 48.4386C203.536 48.3997 203.486 48.3803 203.428 48.3803ZM187.77 123.507C188.241 123.507 188.669 123.699 188.978 124.011C189.287 124.324 189.478 124.753 189.478 125.227C189.478 125.702 189.288 126.133 188.978 126.444C188.667 126.755 188.241 126.948 187.77 126.948C187.299 126.948 186.871 126.756 186.562 126.444C186.253 126.131 186.062 125.702 186.062 125.227C186.062 124.754 186.252 124.324 186.562 124.011C186.873 123.699 187.298 123.507 187.77 123.507ZM184.887 122.326C185.624 121.585 186.643 121.123 187.769 121.123C188.894 121.123 189.912 121.583 190.65 122.326C191.388 123.068 191.845 124.094 191.845 125.226C191.845 126.359 191.389 127.384 190.65 128.125C189.912 128.869 188.894 129.328 187.769 129.328C186.643 129.328 185.624 128.869 184.887 128.125C184.15 127.384 183.693 126.359 183.693 125.226C183.694 124.094 184.15 123.067 184.887 122.326ZM103.512 109.761C103.334 109.151 103.219 108.513 103.178 107.855C103.138 107.199 103.633 106.636 104.283 106.594C104.933 106.553 105.494 107.053 105.535 107.705C105.56 108.071 105.613 108.426 105.692 108.77C105.875 109.547 106.196 110.262 106.628 110.875C106.648 110.901 106.664 110.926 106.683 110.952C107.304 111.804 108.145 112.452 109.122 112.781C109.611 112.946 110.111 113.022 110.601 113.015C110.832 113.012 111.062 112.989 111.293 112.946V112.923V107.767V100.938V94.1537V87.3666V80.1286V75.2423C110.941 75.0804 110.576 74.9767 110.213 74.9262C109.512 74.8251 108.812 74.921 108.194 75.1866C107.591 75.447 107.07 75.8669 106.71 76.4266C106.596 76.6016 106.498 76.7907 106.417 76.9942C106.771 77.182 107.123 77.4192 107.463 77.7107C107.606 77.6576 107.755 77.6148 107.906 77.5837C108.638 77.4321 109.449 77.5539 110.215 78.0619C110.76 78.4208 110.91 79.1581 110.554 79.7049C110.196 80.2517 109.465 80.4033 108.921 80.0443C108.833 79.986 108.745 79.9459 108.661 79.9225C108.561 79.8953 108.464 79.8927 108.377 79.9096C108.267 79.9329 108.164 79.9886 108.078 80.069C107.993 80.1506 107.927 80.2491 107.894 80.3631C107.87 80.4421 107.863 80.5328 107.875 80.6261C107.886 80.7168 107.916 80.8114 107.969 80.9073C108.278 81.4865 108.063 82.2082 107.488 82.5192C106.913 82.8276 106.197 82.6125 105.888 82.0333C105.458 81.2312 105.411 80.4059 105.628 79.6828C105.659 79.5766 105.696 79.4755 105.739 79.3744C104.858 78.7395 103.918 78.7007 103.092 79.0661C102.533 79.311 102.01 79.7269 101.569 80.2607C101.108 80.8153 100.737 81.4956 100.507 82.2471C99.8939 84.2335 100.285 86.7032 102.569 88.6701C103.066 89.0977 103.124 89.8466 102.699 90.3455C102.276 90.8444 101.532 90.9027 101.036 90.4777C100.378 89.9101 99.8373 89.3141 99.3995 88.6934C98.6026 89.4177 98.0748 90.3364 97.7825 91.3303C97.4941 92.3124 97.431 93.3672 97.5585 94.3869C97.6872 95.4015 98.0091 96.3811 98.4957 97.2194C98.8678 97.8621 99.3352 98.4115 99.881 98.8093C99.9016 98.3389 99.9583 97.8673 100.046 97.4099C100.279 96.2023 100.738 95.049 101.381 94.1019C102.207 92.8826 103.331 91.9937 104.675 91.7151C104.684 91.6723 104.693 91.6296 104.702 91.5829C104.862 90.8586 105.17 90.1835 105.622 89.6549C106.299 88.858 107.257 88.3889 108.475 88.5159C109.123 88.582 109.595 89.1664 109.529 89.8194C109.462 90.4725 108.883 90.9454 108.234 90.8793C107.881 90.8418 107.607 90.9726 107.415 91.1981C107.221 91.4262 107.082 91.7423 107.004 92.096C106.957 92.3163 106.931 92.5496 106.932 92.7841C106.934 92.797 106.934 92.8074 106.934 92.8191C106.935 92.9888 106.95 93.1586 106.979 93.3283C107.067 93.8544 107.285 94.3377 107.638 94.6318C107.724 94.7031 107.819 94.764 107.924 94.8119C108.518 95.0827 108.782 95.7863 108.515 96.3862C108.247 96.9836 107.546 97.2518 106.952 96.981C106.327 96.6946 105.829 96.2567 105.453 95.7254C105.126 95.2654 104.89 94.7355 104.748 94.1796C104.204 94.4128 103.723 94.8625 103.331 95.4404C102.872 96.118 102.538 96.9616 102.366 97.8569C102.192 98.7575 102.182 99.6943 102.371 100.549C102.636 101.752 103.309 102.804 104.491 103.335C104.572 103.37 104.655 103.407 104.74 103.436C105.353 103.662 105.669 104.342 105.447 104.958C105.224 105.576 104.548 105.894 103.935 105.672C103.318 105.446 102.782 105.145 102.316 104.783C102.065 105.236 101.916 105.784 101.888 106.365C101.857 106.978 101.956 107.605 102.197 108.181C102.431 108.736 102.803 109.244 103.327 109.634C103.388 109.677 103.448 109.721 103.512 109.761Z" fill="white"></path></svg> 