<?xml version="1.0" encoding="UTF-8"?> <svg xmlns="http://www.w3.org/2000/svg" width="300" height="186" viewBox="0 0 300 186" fill="none"><rect width="300" height="186" fill="#051C2C"></rect><path d="M171.133 109.204C181.826 109.204 190.526 100.567 190.526 89.9504C190.526 79.3343 181.826 70.6968 171.133 70.6968C160.439 70.6968 151.739 79.3343 151.739 89.9504C151.739 100.567 160.439 109.204 171.133 109.204ZM171.133 73.6589C180.181 73.6589 187.543 80.9678 187.543 89.9504C187.543 98.933 180.181 106.242 171.133 106.242C162.085 106.242 154.722 98.933 154.722 89.9504C154.722 80.9678 162.085 73.6589 171.133 73.6589Z" fill="white" stroke="black" stroke-width="0.5"></path><path d="M157.706 93.9507L159.677 94.6616L158.789 96.547L164.488 102.205L166.387 101.323L167.103 103.28H175.16L175.877 101.323L177.776 102.205L183.474 96.547L182.587 94.6616L184.559 93.9507V85.9516L182.588 85.2407L183.476 83.3553L177.777 77.6977L175.878 78.5789L175.162 76.621H167.105L166.389 78.5774L164.489 77.6962L158.791 83.3538L159.678 85.2392L157.706 85.9501V93.9507ZM160.69 88.0265L161.918 87.5852L162.583 87.2771L163.214 85.759L162.377 83.9803L165.117 81.2596L166.911 82.092L168.517 81.4344L169.195 79.5831H173.072L173.518 80.802L173.81 81.4566L175.354 82.089L177.148 81.2567L179.888 83.9773L179.051 85.7561L179.717 87.3541L181.575 88.0265V91.8758L180.348 92.3186L179.679 92.6355L179.05 94.1447L179.887 95.9235L177.146 98.6442L175.354 97.8133L173.746 98.4709L173.07 100.318H169.193L168.479 98.4546L166.908 97.8118L165.116 98.6427L162.375 95.922L163.212 94.1433L162.546 92.5452L160.69 91.8743V88.0265Z" fill="white" stroke="black" stroke-width="0.5"></path><path d="M171.133 97.3556C175.245 97.3556 178.592 94.0337 178.592 89.9504C178.592 85.8672 175.245 82.5452 171.133 82.5452C167.02 82.5452 163.673 85.8672 163.673 89.9504C163.673 94.0337 167.02 97.3556 171.133 97.3556ZM171.133 85.5073C173.6 85.5073 175.608 87.5008 175.608 89.9504C175.608 92.4001 173.6 94.3936 171.133 94.3936C168.665 94.3936 166.657 92.4001 166.657 89.9504C166.657 87.5008 168.665 85.5073 171.133 85.5073Z" fill="white" stroke="black" stroke-width="0.5"></path><path d="M109.967 91.4315H130.853V76.621H109.967V91.4315ZM112.951 79.5831H127.869V88.4694H112.951V79.5831Z" fill="white" stroke="black" stroke-width="0.5"></path><path d="M118.918 82.5452H115.935V85.5073H118.918V82.5452Z" fill="white" stroke="black" stroke-width="0.5"></path><path d="M124.886 82.5452H121.902V85.5073H124.886V82.5452Z" fill="white" stroke="black" stroke-width="0.5"></path><path d="M118.918 116.609H115.935V119.571H118.918V116.609Z" fill="white" stroke="black" stroke-width="0.5"></path><path d="M112.951 116.609H109.967V119.571H112.951V116.609Z" fill="white" stroke="black" stroke-width="0.5"></path><path d="M142.788 129.939H139.804V132.901H142.788V129.939Z" fill="white" stroke="black" stroke-width="0.5"></path><path d="M148.755 129.939H145.771V132.901H148.755V129.939Z" fill="white" stroke="black" stroke-width="0.5"></path><path d="M184.559 52.9242H181.575V55.8863H184.559V52.9242Z" fill="white" stroke="black" stroke-width="0.5"></path><path d="M190.526 52.9242H187.542V55.8863H190.526V52.9242Z" fill="white" stroke="black" stroke-width="0.5"></path><path d="M187.543 61.8105H196.494V47H175.608V61.8105H184.559V64.7726H172.624V51.4431C172.624 48.9935 170.616 47 168.149 47H108.475C106.008 47 104 48.9935 104 51.4431V92.9125C104 95.3622 106.008 97.3556 108.475 97.3556H127.869V116.609H124.886V110.685H104V125.496H124.886V119.571H127.869V132.901H133.837V138.825H154.722V124.015H133.837V129.939H130.853V97.3556H146.895C149.361 105.293 155.679 111.566 163.673 114.013V131.42C163.673 135.503 167.019 138.825 171.132 138.825C175.245 138.825 178.592 135.503 178.592 131.42V114.013C188.946 110.844 196.494 101.257 196.494 89.9504C196.494 80.3399 191.037 71.9764 183.042 67.7347H187.543V61.8105ZM178.592 49.9621H193.51V58.8484H178.592V49.9621ZM121.902 122.533H106.984V113.647H121.902V122.533ZM136.82 126.977H151.739V135.863H136.82V126.977ZM169.641 51.4431V55.8863H150.247V49.9621H168.149C168.971 49.9621 169.641 50.6271 169.641 51.4431ZM129.361 49.9621H147.263V61.5113L142.792 58.5492L138.32 61.5113L133.841 58.5492L129.363 61.5113L129.361 49.9621ZM108.475 49.9621H126.377V55.8863H106.984V51.4431C106.984 50.6271 107.653 49.9621 108.475 49.9621ZM108.475 94.3935C107.653 94.3935 106.984 93.7286 106.984 92.9125V58.8484H126.377V64.7726H129.813L133.841 62.1097L138.321 65.0718L142.792 62.1097L146.811 64.7726H150.247V58.8484H169.641V64.8481C156.351 65.6212 145.771 76.5676 145.771 89.9504C145.771 91.4685 145.931 92.948 146.191 94.3935H108.475ZM175.608 131.42C175.608 133.869 173.6 135.863 171.132 135.863C168.665 135.863 166.657 133.869 166.657 131.42V114.712C168.113 114.97 169.603 115.128 171.132 115.128C172.662 115.128 174.152 114.97 175.608 114.712V131.42ZM193.51 89.9504C193.51 102.2 183.471 112.166 171.132 112.166C158.794 112.166 148.755 102.2 148.755 89.9504C148.755 77.7007 158.794 67.7347 171.132 67.7347C183.471 67.7347 193.51 77.7007 193.51 89.9504Z" fill="white" stroke="black" stroke-width="0.5"></path></svg> 