<?xml version="1.0" encoding="UTF-8"?> <svg xmlns="http://www.w3.org/2000/svg" width="300" height="186" viewBox="0 0 300 186" fill="none"><rect width="300" height="186" fill="#051C2C"></rect><path fill-rule="evenodd" clip-rule="evenodd" d="M141.818 108.107L121.486 119.89V143.468L130.942 137.988C130.963 137.974 130.985 137.96 131.008 137.946L141.818 131.681V108.107ZM105.59 109.191L99.8609 105.87L109.389 100.348C109.411 100.336 109.434 100.322 109.455 100.307L120.2 94.0792L125.931 97.4013L105.592 109.19L105.59 109.191ZM111.902 112.849L108.158 110.679L128.498 98.8904L131.01 100.347V100.349L132.24 101.062L111.902 112.849ZM106.877 118.538L110.611 120.703V115.083L106.877 112.918V118.538ZM111.153 123.992L105.052 120.457C104.608 120.252 104.3 119.803 104.3 119.279V111.424L98.5789 108.109V131.684L109.389 137.949V137.951L118.91 143.471V119.893L113.189 116.577V122.938C113.189 123.652 112.613 124.232 111.9 124.232C111.622 124.232 111.365 124.143 111.153 123.992ZM187.949 35.0766C188.282 35.0929 188.607 35.2385 188.846 35.5085C189.112 35.8085 189.214 36.2003 189.156 36.5681L188.091 47.0042C188.018 47.7135 187.388 48.2296 186.681 48.1567C185.974 48.0839 185.46 47.4511 185.533 46.7417L186.277 39.4546C176.852 47.2854 164.993 53.9925 151.893 59.0887C137.709 64.6055 122.068 68.2353 106.491 69.3539C105.782 69.4042 105.166 68.868 105.116 68.1562C105.066 67.4443 105.6 66.8265 106.309 66.7763C121.638 65.6752 137.022 62.107 150.966 56.6831C163.872 51.6622 175.54 45.0543 184.777 37.3453L177.288 36.5744C176.582 36.5016 176.068 35.8688 176.14 35.1594C176.213 34.4501 176.843 33.934 177.55 34.0069L187.949 35.0778V35.0766ZM137.968 101.401V82.7631H128.198V95.7415L129.137 96.2852L129.147 96.2902L132.295 98.1145V98.112L137.968 101.399V101.401ZM138.695 104.804L140.534 105.87L120.197 117.657L114.468 114.336L134.805 102.549L138.535 104.711C138.586 104.746 138.638 104.776 138.695 104.804ZM159.348 130.902V73.1193H149.578V130.902H159.348ZM147 130.902V71.8248C147 71.1104 147.577 70.5304 148.29 70.5304H160.638C161.35 70.5304 161.927 71.1092 161.927 71.8248V130.902H192.711C193.422 130.902 194 131.48 194 132.196C194 132.912 193.423 133.49 192.711 133.49H143.841C143.787 133.528 143.73 133.562 143.67 133.592L132.297 140.184C132.274 140.198 132.25 140.21 132.226 140.223L120.945 146.761C120.735 146.912 120.477 147 120.198 147C119.919 147 119.663 146.911 119.452 146.761L108.1 140.182V140.185L96.6441 133.546C96.2326 133.307 96.0025 132.874 96.0025 132.428H96V105.872C96 105.36 96.2964 104.918 96.7266 104.709L108.099 98.117C108.123 98.1032 108.147 98.0906 108.17 98.0781L119.559 91.4777C119.976 91.2379 120.47 91.258 120.855 91.4878L125.621 94.2499V81.4711C125.621 80.7567 126.198 80.1766 126.911 80.1766H139.259C139.97 80.1766 140.548 80.7555 140.548 81.4711V102.898L143.74 104.747C143.837 104.803 143.928 104.871 144.009 104.95L144.011 104.952L144.025 104.966C144.118 105.061 144.194 105.168 144.253 105.284L144.266 105.31V105.312L144.275 105.329L144.278 105.334C144.354 105.501 144.393 105.677 144.395 105.851V105.872H144.399V130.903H147.004L147 130.902ZM180.729 119.231V125.549C180.729 126.264 181.306 126.844 182.018 126.844C182.731 126.844 183.308 126.265 183.308 125.549V119.231C183.308 118.517 182.731 117.937 182.018 117.937C181.306 117.937 180.729 118.516 180.729 119.231ZM180.729 108.338V113.28C180.729 113.994 181.306 114.575 182.018 114.575C182.731 114.575 183.308 113.996 183.308 113.28V108.338C183.308 107.624 182.731 107.044 182.018 107.044C181.306 107.044 180.729 107.623 180.729 108.338ZM180.729 97.4453V102.387C180.729 103.101 181.306 103.682 182.018 103.682C182.731 103.682 183.308 103.103 183.308 102.387V97.4453C183.308 96.7309 182.731 96.1508 182.018 96.1508C181.306 96.1508 180.729 96.7296 180.729 97.4453ZM180.729 86.5523V91.494C180.729 92.2084 181.306 92.7885 182.018 92.7885C182.731 92.7885 183.308 92.2097 183.308 91.494V86.5523C183.308 85.8379 182.731 85.2578 182.018 85.2578C181.306 85.2578 180.729 85.8366 180.729 86.5523ZM180.729 75.6592V80.601C180.729 81.3154 181.306 81.8955 182.018 81.8955C182.731 81.8955 183.308 81.3167 183.308 80.601V75.6592C183.308 74.9448 182.731 74.3648 182.018 74.3648C181.306 74.3648 180.729 74.9436 180.729 75.6592ZM170.959 69.7067V62.8616H180.729V69.7067C180.729 70.4211 181.306 71.0012 182.018 71.0012C182.731 71.0012 183.308 70.4224 183.308 69.7067V61.5671C183.308 60.8527 182.731 60.2726 182.018 60.2726H169.67C168.959 60.2726 168.381 60.8514 168.381 61.5671V69.7067C168.381 70.4211 168.958 71.0012 169.67 71.0012C170.383 71.0012 170.96 70.4224 170.96 69.7067H170.959ZM170.959 80.5998V75.658C170.959 74.9436 170.382 74.3635 169.669 74.3635C168.956 74.3635 168.38 74.9423 168.38 75.658V80.5998C168.38 81.3142 168.956 81.8942 169.669 81.8942C170.382 81.8942 170.959 81.3154 170.959 80.5998ZM170.959 91.4928V86.551C170.959 85.8366 170.382 85.2565 169.669 85.2565C168.956 85.2565 168.38 85.8353 168.38 86.551V91.4928C168.38 92.2072 168.956 92.7872 169.669 92.7872C170.382 92.7872 170.959 92.2084 170.959 91.4928ZM170.959 102.386V97.444C170.959 96.7296 170.382 96.1496 169.669 96.1496C168.956 96.1496 168.38 96.7284 168.38 97.444V102.386C168.38 103.1 168.956 103.68 169.669 103.68C170.382 103.68 170.959 103.101 170.959 102.386ZM170.959 113.279V108.337C170.959 107.623 170.382 107.043 169.669 107.043C168.956 107.043 168.38 107.621 168.38 108.337V113.279C168.38 113.993 168.956 114.573 169.669 114.573C170.382 114.573 170.959 113.994 170.959 113.279ZM170.959 125.549V119.231C170.959 118.517 170.382 117.937 169.669 117.937C168.956 117.937 168.38 118.516 168.38 119.231V125.549C168.38 126.264 168.956 126.844 169.669 126.844C170.382 126.844 170.959 126.265 170.959 125.549ZM101.354 129.799C100.74 129.445 100.527 128.657 100.881 128.04C101.234 127.424 102.02 127.21 102.634 127.566L106.046 129.543C106.66 129.897 106.872 130.686 106.518 131.302C106.166 131.919 105.38 132.132 104.766 131.777L101.354 129.799Z" fill="white"></path></svg> 