<?xml version="1.0" encoding="UTF-8"?> <svg xmlns="http://www.w3.org/2000/svg" width="300" height="186" viewBox="0 0 300 186" fill="none"><rect width="300" height="186" fill="#051C2C"></rect><path fill-rule="evenodd" clip-rule="evenodd" d="M193.678 103.309C196.061 103.309 198 101.255 198 98.7283C198 96.202 196.061 94.1474 193.678 94.1474H189.306V77.6758C189.306 76.9086 188.679 76.2871 187.904 76.2871H169.871C169.097 76.2871 168.469 76.9086 168.469 77.6758V94.1474H163.863V77.6758C163.863 76.9086 163.236 76.2871 162.461 76.2871H144.429C143.654 76.2871 143.027 76.9086 143.027 77.6758V94.1474H139.618H137.35V92.8273C137.35 90.7146 135.727 88.9713 133.653 88.754L132.277 74.7422C133.222 73.4643 133.772 71.9879 133.931 70.4789L149.199 53.9546C149.542 53.9335 149.882 53.8839 150.217 53.81L157.354 57.0222C157.362 57.0549 157.369 57.0866 157.377 57.1193C157.782 58.6135 158.749 59.8619 160.101 60.6354C161.003 61.1504 162.002 61.4142 163.015 61.4142C163.397 61.4142 163.779 61.3773 164.16 61.3024C163.362 66.1967 165.617 71.2999 170.204 73.9233C172.127 75.0229 174.269 75.5716 176.411 75.5716C178.656 75.5716 180.901 74.9691 182.889 73.7661C183.311 73.5107 183.567 73.0538 183.56 72.5641C183.554 72.0745 183.287 71.6228 182.859 71.378L173.578 66.0711V61.6559L177.438 59.4483L186.719 64.7552C187.147 65 187.675 65.0032 188.106 64.7636C188.538 64.5241 188.81 64.0766 188.822 63.587C188.934 59.08 186.556 54.8811 182.617 52.6281C179.746 50.9861 176.4 50.5503 173.198 51.3998C171.471 51.8578 169.899 52.664 168.555 53.7519C168.113 52.4698 167.223 51.3343 165.949 50.6062C164.522 49.7905 162.889 49.6406 161.418 50.0575L155.038 45.541C154.896 45.0946 154.705 44.6598 154.463 44.244C153.589 42.7445 152.178 41.6724 150.49 41.2239C148.802 40.7754 147.038 41.0054 145.525 41.8718C144.011 42.7371 142.929 44.1353 142.476 45.8069C142.394 46.1118 142.334 46.42 142.297 46.7281L124.806 60.8148C122.651 60.894 120.521 61.7445 118.88 63.3696C115.755 66.4647 115.461 71.3168 117.997 74.7422L116.62 88.754C114.545 88.9724 112.923 90.7157 112.923 92.8273V94.1474H109.504C106.377 94.1474 103.833 96.6674 103.833 99.7635V107.278L101.027 110.057C100.27 110.807 100.153 111.991 100.749 112.872L101.725 114.312L100.531 117.167L98.8134 117.502C97.7629 117.708 97 118.626 97 119.688V124.193C97 125.254 97.7629 126.174 98.8134 126.378L100.531 126.714L101.724 129.568L100.749 131.009C100.153 131.89 100.27 133.074 101.027 133.824L104.244 137.01C105.001 137.76 106.197 137.875 107.086 137.284L108.541 136.319L111.422 137.502L111.761 139.204C111.967 140.244 112.895 141 113.967 141H118.516C119.587 141 120.515 140.244 120.723 139.204L121.062 137.502L123.944 136.319L125.398 137.284C126.288 137.875 127.483 137.76 128.242 137.01L129.626 135.639H181.893C189.519 135.639 195.724 129.493 195.724 121.94C195.724 114.386 189.519 108.24 181.893 108.24H141.021V103.308L193.678 103.309ZM195.196 98.7283C195.196 99.7055 194.5 100.532 193.678 100.532H141.021V96.9248H193.678C194.501 96.9248 195.196 97.7511 195.196 98.7283ZM177.195 79.0645H180.58V82.0583H177.195V79.0645ZM171.274 79.0645H174.391V83.447C174.391 84.2142 175.019 84.8358 175.793 84.8358H181.983C182.758 84.8358 183.385 84.2142 183.385 83.447V79.0645H186.503V94.1474H171.275L171.274 79.0645ZM151.752 79.0645H155.136V82.0583H151.752V79.0645ZM145.83 79.0645H148.947V83.447C148.947 84.2142 149.575 84.8358 150.349 84.8358H156.54C157.314 84.8358 157.942 84.2142 157.942 83.447V79.0645H161.059V94.1474H145.831L145.83 79.0645ZM125.136 78.3248C126.715 78.3248 128.293 77.909 129.688 77.0796L130.832 88.7297H119.438L120.582 77.0796C121.978 77.909 123.557 78.3248 125.136 78.3248ZM143.129 50.7244C143.799 51.8746 144.787 52.7727 145.973 53.3309L133.527 66.7992C133.108 65.5445 132.398 64.3647 131.391 63.3686C130.528 62.5138 129.53 61.8732 128.464 61.4459L142.743 49.9467C142.854 50.2115 142.981 50.4722 143.129 50.7244ZM155.116 49.1616C155.128 49.1183 155.138 49.075 155.148 49.0318L158.801 51.6172C158.484 51.9453 158.201 52.3147 157.961 52.7241C157.724 53.1304 157.54 53.5578 157.41 53.9968L153.328 52.1596C154.183 51.3491 154.802 50.3223 155.116 49.1616ZM173.923 54.0822C174.751 53.8628 175.591 53.7541 176.426 53.7541C178.091 53.7541 179.734 54.1867 181.215 55.033C183.509 56.3447 185.119 58.5091 185.739 60.9868L178.139 56.6413C177.706 56.3933 177.171 56.3933 176.737 56.6413L171.474 59.6509C171.04 59.8989 170.773 60.3579 170.773 60.8539V66.8731C170.773 67.3691 171.04 67.8281 171.474 68.0761L179.074 72.4217C176.596 73.1287 173.9 72.83 171.606 71.5183C167.017 68.8939 165.44 63.0625 168.089 58.5175C169.373 56.3162 171.444 54.7407 173.923 54.0833V54.0822ZM164.546 53.0112C165.999 53.8416 166.498 55.6862 165.662 57.1256C165.662 57.1256 165.662 57.1277 165.661 57.1277C165.661 57.1277 165.661 57.1298 165.66 57.1298C165.253 57.8253 164.598 58.3233 163.813 58.5312C163.029 58.7402 162.209 58.6325 161.505 58.2305C160.8 57.8284 160.297 57.1784 160.087 56.4007C159.877 55.6229 159.984 54.8104 160.39 54.1139C161.23 52.6745 163.094 52.1796 164.546 53.0112ZM145.184 46.5255C145.443 45.5705 146.061 44.7717 146.926 44.2767C147.503 43.9475 148.142 43.7787 148.79 43.7787C149.115 43.7787 149.442 43.8209 149.764 43.9063C150.729 44.1628 151.534 44.7748 152.034 45.6317C152.534 46.4886 152.666 47.4869 152.408 48.4419C152.149 49.3969 151.531 50.1957 150.666 50.6906C149.801 51.1856 148.793 51.3164 147.829 51.061C146.863 50.8046 146.058 50.1925 145.558 49.3357C145.059 48.4788 144.926 47.4805 145.184 46.5255ZM120.863 65.3324C122.041 64.1653 123.588 63.5817 125.136 63.5817C126.684 63.5817 128.231 64.1653 129.409 65.3324C131.765 67.6666 131.765 71.4635 129.409 73.7977C127.053 76.132 123.219 76.132 120.863 73.7977C118.507 71.4635 118.507 67.6666 120.863 65.3324ZM115.726 92.8273C115.726 92.0991 116.324 91.5071 117.059 91.5071H133.213C133.948 91.5071 134.546 92.0991 134.546 92.8273V94.1474H115.726V92.8273ZM126.58 134.726L124.88 133.598C124.49 133.34 123.996 133.291 123.562 133.469L119.293 135.22C118.86 135.399 118.545 135.779 118.455 136.234L118.059 138.221H114.424L114.029 136.233C113.938 135.777 113.623 135.397 113.189 135.219L108.92 133.468C108.486 133.289 107.992 133.339 107.602 133.597L105.903 134.725L103.333 132.179L104.472 130.497C104.733 130.111 104.782 129.621 104.603 129.192L102.834 124.963C102.654 124.534 102.271 124.222 101.81 124.132L99.8032 123.74V120.14L101.81 119.748C102.271 119.658 102.655 119.346 102.834 118.917L104.603 114.688C104.783 114.259 104.733 113.769 104.472 113.383L103.333 111.7L105.904 109.153L107.603 110.281C107.993 110.54 108.488 110.588 108.921 110.411L113.19 108.659C113.624 108.481 113.939 108.101 114.03 107.645L114.425 105.658H118.06L118.456 107.645C118.546 108.101 118.862 108.482 119.295 108.659L123.564 110.411C123.997 110.588 124.492 110.54 124.882 110.281L126.582 109.153L129.153 111.7L128.014 113.382C127.753 113.768 127.704 114.258 127.883 114.687L129.651 118.915C129.831 119.345 130.215 119.656 130.675 119.747L132.682 120.139V123.739L130.676 124.131C130.216 124.22 129.831 124.533 129.652 124.962L127.884 129.191C127.704 129.62 127.754 130.11 128.015 130.496L129.154 132.178L126.584 134.724L126.58 134.726ZM192.917 121.941C192.917 127.963 187.97 132.863 181.89 132.863H132.026C132.203 132.249 132.112 131.568 131.734 131.01L130.759 129.569L131.953 126.715L133.67 126.379C134.722 126.175 135.485 125.255 135.485 124.194V119.689C135.485 118.628 134.722 117.709 133.671 117.504L131.954 117.168L130.76 114.313L131.735 112.873C132.114 112.315 132.204 111.634 132.027 111.02H181.892C187.972 111.02 192.919 115.92 192.919 121.941H192.917ZM129.623 108.241L128.239 106.871C127.481 106.12 126.286 106.005 125.396 106.596L123.942 107.562L121.061 106.379L120.722 104.677C120.515 103.636 119.587 102.881 118.515 102.881H113.966C112.895 102.881 111.967 103.636 111.759 104.677L111.421 106.379L108.54 107.562L107.084 106.595C106.942 106.5 106.791 106.426 106.636 106.367V99.7624C106.636 98.1975 107.922 96.9238 109.502 96.9238H138.214V108.24L129.623 108.241ZM116.241 111.49C110.422 111.49 105.69 116.178 105.69 121.94C105.69 127.702 110.423 132.39 116.241 132.39C122.058 132.39 126.792 127.702 126.792 121.94C126.792 116.178 122.058 111.49 116.241 111.49ZM116.241 129.613C111.969 129.613 108.494 126.17 108.494 121.94C108.494 117.709 111.969 114.267 116.241 114.267C120.512 114.267 123.987 117.709 123.987 121.94C123.987 126.17 120.512 129.613 116.241 129.613ZM181.89 129.558C186.131 129.558 189.581 126.141 189.581 121.94C189.581 117.739 186.131 114.322 181.89 114.322C177.648 114.322 174.198 117.739 174.198 121.94C174.198 126.141 177.648 129.558 181.89 129.558ZM181.89 117.099C184.584 117.099 186.777 119.27 186.777 121.94C186.777 124.61 184.584 126.78 181.89 126.78C179.195 126.78 177.002 124.609 177.002 121.94C177.002 119.271 179.195 117.099 181.89 117.099ZM154.908 129.558C159.15 129.558 162.6 126.141 162.6 121.94C162.6 117.739 159.15 114.322 154.908 114.322C150.667 114.322 147.217 117.739 147.217 121.94C147.217 126.141 150.667 129.558 154.908 129.558ZM154.908 117.099C157.603 117.099 159.796 119.27 159.796 121.94C159.796 124.61 157.603 126.78 154.908 126.78C152.214 126.78 150.022 124.609 150.022 121.94C150.022 119.271 152.214 117.099 154.908 117.099ZM169.232 116.217C169.232 115.45 169.86 114.828 170.634 114.828H172.856C173.63 114.828 174.258 115.45 174.258 116.217C174.258 116.984 173.63 117.606 172.856 117.606H170.634C169.86 117.606 169.232 116.984 169.232 116.217ZM162.54 116.217C162.54 115.45 163.168 114.828 163.942 114.828H166.164C166.938 114.828 167.566 115.45 167.566 116.217C167.566 116.984 166.938 117.606 166.164 117.606H163.942C163.168 117.606 162.54 116.984 162.54 116.217ZM169.232 127.663C169.232 126.895 169.86 126.274 170.634 126.274H172.856C173.63 126.274 174.258 126.895 174.258 127.663C174.258 128.43 173.63 129.051 172.856 129.051H170.634C169.86 129.051 169.232 128.43 169.232 127.663ZM167.567 127.663C167.567 128.43 166.939 129.051 166.165 129.051H163.943C163.169 129.051 162.541 128.43 162.541 127.663C162.541 126.895 163.169 126.274 163.943 126.274H166.165C166.939 126.274 167.567 126.895 167.567 127.663ZM135.559 127.663C135.559 126.895 136.187 126.274 136.961 126.274H139.184C139.958 126.274 140.586 126.895 140.586 127.663C140.586 128.43 139.958 129.051 139.184 129.051H136.961C136.187 129.051 135.559 128.43 135.559 127.663ZM142.251 116.217C142.251 115.45 142.879 114.828 143.653 114.828H145.876C146.65 114.828 147.278 115.45 147.278 116.217C147.278 116.984 146.65 117.606 145.876 117.606H143.653C142.879 117.606 142.251 116.984 142.251 116.217ZM135.559 116.217C135.559 115.45 136.187 114.828 136.961 114.828H139.184C139.958 114.828 140.586 115.45 140.586 116.217C140.586 116.984 139.958 117.606 139.184 117.606H136.961C136.187 117.606 135.559 116.984 135.559 116.217ZM142.251 127.663C142.251 126.895 142.879 126.274 143.653 126.274H145.876C146.65 126.274 147.278 126.895 147.278 127.663C147.278 128.43 146.65 129.051 145.876 129.051H143.653C142.879 129.051 142.251 128.43 142.251 127.663ZM123.572 71.1142C122.709 70.2584 122.709 68.8717 123.572 68.017C124.436 67.1612 125.836 67.1612 126.699 68.017C127.563 68.8728 127.563 70.2594 126.699 71.1142C125.836 71.97 124.435 71.97 123.572 71.1142Z" fill="white"></path></svg> 