<?xml version="1.0" encoding="UTF-8"?> <svg xmlns="http://www.w3.org/2000/svg" width="300" height="186" viewBox="0 0 300 186" fill="none"><rect width="300" height="186" fill="#051C2C"></rect><path d="M156.69 59H143.123V62.4H156.69V59Z" fill="white"></path><path d="M156.69 65.8H143.123V69.2H156.69V65.8Z" fill="white"></path><path d="M197.392 59V72.6H177.041V45.4H187.216V53.9C187.216 54.3509 187.395 54.7833 187.713 55.1021C188.031 55.4209 188.463 55.6 188.912 55.6H199.088C199.423 55.5999 199.751 55.5002 200.03 55.3134C200.309 55.1266 200.526 54.8611 200.654 54.5505C200.783 54.2399 200.816 53.8982 200.751 53.5684C200.685 53.2387 200.524 52.9358 200.287 52.6981L191.807 44.1981L190.111 42.4981C189.793 42.1793 189.362 42.0001 188.912 42H175.345C174.895 42 174.464 42.1791 174.146 42.4979C173.828 42.8167 173.649 43.2491 173.649 43.7V74.3C173.649 74.7509 173.828 75.1833 174.146 75.5021C174.464 75.8209 174.895 76 175.345 76H185.521V103.2H170.959L173.152 101.002L170.754 98.5981L165.666 103.698C165.349 104.017 165.17 104.449 165.17 104.9C165.17 105.351 165.349 105.783 165.666 106.102L170.754 111.202L173.152 108.798L170.959 106.6H187.216C187.666 106.6 188.098 106.421 188.416 106.102C188.734 105.783 188.912 105.351 188.912 104.9V76H199.088C199.538 76 199.969 75.8209 200.287 75.5021C200.605 75.1833 200.784 74.7509 200.784 74.3V59H197.392ZM194.994 52.2H190.608V47.8038L194.994 52.2Z" fill="white"></path><path d="M194 59H180.433V62.4H194V59Z" fill="white"></path><path d="M194 65.8H180.433V69.2H194V65.8Z" fill="white"></path><path d="M119.38 59H105.812V62.4H119.38V59Z" fill="white"></path><path d="M119.38 65.8H105.812V69.2H119.38V65.8Z" fill="white"></path><path d="M168.561 130.4H131.251C130.801 130.4 130.37 130.579 130.052 130.898C129.734 131.217 129.555 131.649 129.555 132.1V142.3C129.555 142.751 129.734 143.183 130.052 143.502C130.37 143.821 130.801 144 131.251 144H168.561C169.011 144 169.442 143.821 169.76 143.502C170.078 143.183 170.257 142.751 170.257 142.3V132.1C170.257 131.649 170.078 131.217 169.76 130.898C169.442 130.579 169.011 130.4 168.561 130.4ZM166.865 140.6H132.947V133.8H166.865V140.6Z" fill="white"></path><path d="M156.193 124.802L153.795 122.398L151.602 124.596V118.5H153.298C153.748 118.5 154.179 118.321 154.497 118.002C154.815 117.683 154.994 117.251 154.994 116.8V115.642C155.569 115.369 156.121 115.051 156.646 114.69L157.643 115.268C158.033 115.492 158.496 115.553 158.93 115.438C159.146 115.381 159.348 115.281 159.525 115.145C159.701 115.009 159.85 114.84 159.961 114.646L163.353 108.757C163.465 108.564 163.537 108.35 163.566 108.129C163.595 107.907 163.581 107.682 163.523 107.466C163.465 107.25 163.365 107.048 163.229 106.871C163.093 106.693 162.924 106.545 162.731 106.433L161.737 105.859C161.764 105.538 161.778 105.22 161.778 104.902C161.778 104.584 161.764 104.266 161.737 103.945L162.731 103.37C162.924 103.259 163.093 103.11 163.229 102.933C163.365 102.756 163.465 102.553 163.523 102.337C163.581 102.122 163.595 101.896 163.566 101.675C163.537 101.453 163.465 101.24 163.353 101.046L159.961 95.1573C159.85 94.9636 159.702 94.7938 159.525 94.6576C159.348 94.5214 159.147 94.4214 158.931 94.3635C158.716 94.3056 158.491 94.2907 158.27 94.3199C158.049 94.349 157.836 94.4216 157.643 94.5334L156.646 95.1114C156.121 94.7506 155.569 94.4323 154.994 94.1594V93C154.994 92.5492 154.815 92.1167 154.497 91.7979C154.179 91.4791 153.748 91.3 153.298 91.3H146.515C146.065 91.3 145.633 91.4791 145.315 91.7979C144.997 92.1167 144.819 92.5492 144.819 93V94.1577C144.244 94.4306 143.691 94.7489 143.167 95.1097L142.168 94.5317C141.975 94.4202 141.762 94.3478 141.541 94.3188C141.32 94.2898 141.096 94.3047 140.881 94.3626C140.666 94.4206 140.464 94.5204 140.287 94.6565C140.111 94.7925 139.962 94.9622 139.851 95.1556L136.459 101.044C136.348 101.238 136.276 101.452 136.246 101.673C136.217 101.895 136.232 102.12 136.29 102.336C136.348 102.552 136.447 102.754 136.583 102.931C136.719 103.108 136.889 103.257 137.082 103.368L138.076 103.943C138.049 104.264 138.035 104.582 138.035 104.9C138.035 105.218 138.049 105.536 138.076 105.857L137.082 106.432C136.889 106.543 136.719 106.692 136.583 106.869C136.447 107.046 136.348 107.248 136.29 107.464C136.232 107.68 136.217 107.905 136.246 108.127C136.276 108.348 136.348 108.562 136.459 108.756L139.851 114.644C139.962 114.838 140.111 115.007 140.287 115.144C140.464 115.28 140.666 115.379 140.881 115.437C141.096 115.495 141.32 115.51 141.541 115.481C141.762 115.452 141.975 115.38 142.168 115.268L143.167 114.69C143.691 115.051 144.244 115.369 144.819 115.642V116.8C144.819 117.251 144.997 117.683 145.315 118.002C145.633 118.321 146.065 118.5 146.515 118.5H148.21V124.596L146.018 122.398L143.62 124.802L148.707 129.902C149.025 130.221 149.457 130.4 149.906 130.4C150.356 130.4 150.787 130.221 151.105 129.902L156.193 124.802ZM147.081 112.902C146.101 112.555 145.193 112.031 144.403 111.355C144.137 111.126 143.806 110.985 143.456 110.953C143.106 110.92 142.755 110.997 142.451 111.173L141.942 111.469L140.246 108.524L140.755 108.23C141.059 108.055 141.3 107.79 141.447 107.471C141.594 107.152 141.639 106.796 141.576 106.45C141.377 105.424 141.377 104.369 141.576 103.343C141.639 102.997 141.594 102.641 141.447 102.322C141.3 102.004 141.059 101.738 140.755 101.563L140.246 101.269L141.942 98.3244L142.451 98.6202C142.755 98.7962 143.106 98.8732 143.456 98.8406C143.806 98.8081 144.137 98.6675 144.403 98.4383C145.193 97.7623 146.101 97.2379 147.081 96.8913C147.411 96.7742 147.696 96.5578 147.898 96.2717C148.101 95.9857 148.21 95.6439 148.21 95.2933V94.7H151.602V95.2933C151.602 95.6445 151.711 95.987 151.913 96.2737C152.116 96.5605 152.402 96.7774 152.732 96.8947C153.711 97.2413 154.619 97.7657 155.41 98.4417C155.676 98.6709 156.007 98.8115 156.357 98.844C156.706 98.8766 157.057 98.7996 157.362 98.6236L157.87 98.3278L159.566 101.272L159.057 101.566C158.754 101.742 158.512 102.007 158.365 102.326C158.218 102.644 158.173 103.001 158.237 103.346C158.436 104.372 158.436 105.428 158.237 106.454C158.173 106.799 158.218 107.156 158.365 107.474C158.512 107.793 158.754 108.058 159.057 108.234L159.566 108.528L157.87 111.472L157.362 111.176C157.057 111 156.706 110.923 156.357 110.956C156.007 110.989 155.676 111.129 155.41 111.358C154.619 112.034 153.711 112.559 152.732 112.905C152.402 113.023 152.116 113.24 151.913 113.526C151.711 113.813 151.602 114.156 151.602 114.507V115.1H148.21V114.507C148.21 114.156 148.102 113.813 147.899 113.526C147.697 113.24 147.411 113.023 147.081 112.905V112.902Z" fill="white"></path><path d="M134.146 103.698L129.058 98.5981L126.66 101.002L128.853 103.2H114.292V76H124.468C124.917 76 125.349 75.8209 125.667 75.5021C125.985 75.1833 126.163 74.7509 126.163 74.3V59H122.772V72.6H102.421V45.4H112.596V53.9C112.596 54.3509 112.775 54.7833 113.093 55.1021C113.411 55.4209 113.842 55.6 114.292 55.6H124.468C124.803 55.5999 125.131 55.5002 125.41 55.3134C125.688 55.1266 125.906 54.8611 126.034 54.5505C126.162 54.2399 126.196 53.8982 126.13 53.5684C126.065 53.2387 125.904 52.9358 125.667 52.6981L117.187 44.1981L115.491 42.4981C115.173 42.1793 114.742 42.0001 114.292 42H100.725C100.275 42 99.8436 42.1791 99.5255 42.4979C99.2075 42.8167 99.0288 43.2491 99.0288 43.7V74.3C99.0288 74.7509 99.2075 75.1833 99.5255 75.5021C99.8436 75.8209 100.275 76 100.725 76H110.9V104.9C110.9 105.351 111.079 105.783 111.397 106.102C111.715 106.421 112.146 106.6 112.596 106.6H128.853L126.66 108.798L129.058 111.202L134.146 106.102C134.464 105.783 134.643 105.351 134.643 104.9C134.643 104.449 134.464 104.017 134.146 103.698ZM120.374 52.2H115.988V47.8038L120.374 52.2Z" fill="white"></path><path d="M156.69 104.9C156.69 103.555 156.292 102.24 155.547 101.122C154.801 100.004 153.742 99.1323 152.502 98.6176C151.263 98.1029 149.899 97.9683 148.583 98.2306C147.267 98.493 146.058 99.1407 145.109 100.092C144.161 101.043 143.515 102.254 143.253 103.573C142.991 104.892 143.125 106.26 143.639 107.502C144.152 108.745 145.022 109.807 146.137 110.554C147.253 111.301 148.565 111.7 149.906 111.7C151.705 111.7 153.431 110.984 154.703 109.708C155.975 108.433 156.69 106.703 156.69 104.9ZM146.514 104.9C146.514 104.228 146.713 103.57 147.086 103.011C147.459 102.452 147.988 102.016 148.608 101.759C149.228 101.501 149.91 101.434 150.568 101.565C151.226 101.696 151.83 102.02 152.305 102.496C152.779 102.971 153.102 103.577 153.233 104.237C153.364 104.896 153.297 105.58 153.04 106.201C152.783 106.822 152.348 107.353 151.791 107.727C151.233 108.101 150.577 108.3 149.906 108.3C149.007 108.3 148.144 107.942 147.508 107.304C146.872 106.667 146.514 105.802 146.514 104.9Z" fill="white"></path><path d="M138.035 76H148.21V82.0962L146.017 79.8981L143.619 82.3019L148.707 87.4019C149.025 87.7206 149.456 87.8996 149.906 87.8996C150.356 87.8996 150.787 87.7206 151.105 87.4019L156.193 82.3019L153.795 79.8981L151.602 82.0962V76H161.778C162.227 76 162.659 75.8209 162.977 75.5021C163.295 75.1833 163.473 74.7509 163.473 74.3V59H160.082V72.6H139.731V45.4H149.906V53.9C149.906 54.3509 150.085 54.7833 150.403 55.1021C150.721 55.4209 151.152 55.6 151.602 55.6H161.778C162.113 55.5999 162.441 55.5002 162.72 55.3134C162.998 55.1266 163.216 54.8611 163.344 54.5505C163.472 54.2399 163.506 53.8982 163.441 53.5684C163.375 53.2387 163.214 52.9358 162.977 52.6981L154.497 44.1981L152.801 42.4981C152.483 42.1793 152.052 42.0001 151.602 42H138.035C137.585 42 137.154 42.1791 136.836 42.4979C136.518 42.8167 136.339 43.2491 136.339 43.7V74.3C136.339 74.7509 136.518 75.1833 136.836 75.5021C137.154 75.8209 137.585 76 138.035 76ZM157.684 52.2H153.298V47.8038L157.684 52.2Z" fill="white"></path></svg> 