<?xml version="1.0" encoding="UTF-8"?> <svg xmlns="http://www.w3.org/2000/svg" width="300" height="186" viewBox="0 0 300 186" fill="none"><rect width="300" height="186" fill="#051C2C"></rect><path d="M194 127.819C194 121.659 189.319 116.596 183.354 116.029V101.542C183.354 99.5463 181.741 97.9202 179.761 97.9202H164.202C162.222 97.9202 160.609 99.5463 160.609 101.542V115.968H139.11V101.542C139.11 99.5463 137.497 97.9202 135.517 97.9202H119.958C117.978 97.9202 116.364 99.5463 116.364 101.542V116.054C110.534 116.744 106 121.758 106 127.819C106 133.88 110.534 138.882 116.364 139.584V144.709C116.364 145.965 117.379 147 118.638 147H135.456C136.702 147 137.729 145.978 137.729 144.709V139.67H162.173V144.709C162.173 145.965 163.188 147 164.447 147H181.264C182.511 147 183.538 145.978 183.538 144.709V139.596C189.404 138.943 194 133.905 194 127.819ZM169.641 100.778H174.31V105.78L172.697 104.708C172.22 104.388 171.597 104.4 171.12 104.72L169.641 105.731V100.778ZM163.444 101.542C163.444 101.123 163.787 100.778 164.202 100.778H166.806V108.428C166.806 108.958 167.099 109.439 167.563 109.697C167.771 109.808 168.003 109.87 168.236 109.87C168.517 109.87 168.786 109.784 169.03 109.623L171.951 107.64L174.97 109.636C175.41 109.919 175.96 109.944 176.424 109.697C176.889 109.451 177.17 108.958 177.17 108.441V100.791H179.773C180.189 100.791 180.531 101.136 180.531 101.554V115.98H163.444V101.542ZM125.397 100.778H130.066V105.78L128.452 104.708C127.976 104.388 127.352 104.4 126.876 104.72L125.397 105.731V100.778ZM119.958 100.778H122.561V108.428C122.561 108.958 122.854 109.439 123.319 109.697C123.527 109.808 123.759 109.87 123.991 109.87C124.272 109.87 124.541 109.784 124.786 109.623L127.707 107.64L130.726 109.636C131.166 109.919 131.716 109.944 132.18 109.697C132.644 109.451 132.926 108.958 132.926 108.441V100.791H135.529C135.944 100.791 136.287 101.136 136.287 101.554V115.98H119.2V101.542C119.2 101.123 119.554 100.778 119.958 100.778ZM134.881 144.13H119.2V139.658H134.881V144.13ZM165.009 144.13V139.658H180.69V144.13H165.009ZM182.242 136.8H117.758C112.844 136.8 108.848 132.771 108.848 127.819C108.848 122.867 112.844 118.838 117.758 118.838H182.254C187.168 118.838 191.164 122.867 191.164 127.819C191.164 132.771 187.168 136.8 182.242 136.8ZM119.249 121.856C115.986 121.856 113.321 124.53 113.321 127.807C113.321 131.096 115.973 133.757 119.249 133.757C122.524 133.757 125.177 131.084 125.177 127.807C125.177 124.53 122.512 121.856 119.249 121.856ZM119.249 130.911C117.55 130.911 116.169 129.519 116.169 127.819C116.169 126.119 117.55 124.727 119.249 124.727C120.948 124.727 122.329 126.119 122.329 127.819C122.329 129.519 120.948 130.911 119.249 130.911ZM134.624 121.856C131.361 121.856 128.697 124.53 128.697 127.807C128.697 131.096 131.349 133.757 134.624 133.757C137.9 133.757 140.552 131.084 140.552 127.807C140.552 124.53 137.888 121.856 134.624 121.856ZM134.624 130.911C132.926 130.911 131.544 129.519 131.544 127.819C131.544 126.119 132.926 124.727 134.624 124.727C136.323 124.727 137.704 126.119 137.704 127.819C137.704 129.519 136.323 130.911 134.624 130.911ZM150 121.856C146.737 121.856 144.072 124.53 144.072 127.807C144.072 131.096 146.724 133.757 150 133.757C153.276 133.757 155.928 131.084 155.928 127.807C155.928 124.53 153.263 121.856 150 121.856ZM150 130.911C148.301 130.911 146.92 129.519 146.92 127.819C146.92 126.119 148.301 124.727 150 124.727C151.699 124.727 153.08 126.119 153.08 127.819C153.08 129.519 151.699 130.911 150 130.911ZM165.376 121.856C162.112 121.856 159.448 124.53 159.448 127.807C159.448 131.096 162.1 133.757 165.376 133.757C168.651 133.757 171.303 131.084 171.303 127.807C171.303 124.53 168.639 121.856 165.376 121.856ZM165.376 130.911C163.677 130.911 162.296 129.519 162.296 127.819C162.296 126.119 163.677 124.727 165.376 124.727C167.074 124.727 168.456 126.119 168.456 127.819C168.456 129.519 167.074 130.911 165.376 130.911ZM180.751 121.856C177.488 121.856 174.823 124.53 174.823 127.807C174.823 131.096 177.476 133.757 180.751 133.757C184.027 133.757 186.667 131.096 186.667 127.819C186.667 124.53 184.014 121.856 180.751 121.856ZM180.751 130.911C179.052 130.911 177.671 129.519 177.671 127.819C177.671 126.119 179.052 124.727 180.751 124.727C182.45 124.727 183.831 126.119 183.831 127.819C183.831 129.519 182.45 130.911 180.751 130.911ZM158.103 87.6706V79.429C158.494 76.8543 160.169 74.8956 162.1 72.6288C165.094 69.1178 168.492 65.1387 168.321 57.6856C168.321 47.5469 160.096 39.3053 150 39.3053C139.904 39.3053 131.679 47.5469 131.679 57.6733C131.508 65.1387 134.906 69.1055 137.9 72.6165C139.831 74.8832 141.506 76.842 141.897 79.4167V87.6583C141.897 88.0525 142.056 88.4097 142.312 88.6685L145.099 91.4526C146.052 92.4012 147.177 92.8816 148.472 92.8816H151.528C152.823 92.8816 153.948 92.4012 154.901 91.4526L157.688 88.6685C157.944 88.4221 158.103 88.0648 158.103 87.6706ZM147.763 76.2384H152.237V77.8768H147.763V76.2384ZM155.268 80.7349V82.053H144.732V80.7349H155.268ZM144.732 84.9111H155.268V86.2292H144.732V84.9111ZM134.514 57.7349C134.514 57.7225 134.514 57.7102 134.514 57.6979C134.514 49.136 141.457 42.1634 150 42.1634C158.543 42.1634 165.486 49.1237 165.486 57.6979C165.486 57.7102 165.486 57.7225 165.486 57.7349C165.632 64.1039 162.748 67.4917 159.949 70.7686C158.067 72.9738 156.27 75.0803 155.524 77.8768H155.072V74.8093C155.072 74.0209 154.437 73.3803 153.654 73.3803H153.104L154.302 67.849C154.852 68.1446 155.476 68.3048 156.136 68.3048C158.311 68.3048 160.071 66.5185 160.071 64.338C160.071 62.1575 158.299 60.3712 156.136 60.3712C154.033 60.3712 152.31 62.0466 152.2 64.1409L150.183 73.3803H149.78L147.776 64.1778C147.666 62.0836 145.954 60.4081 143.84 60.4081C141.664 60.4081 139.904 62.1944 139.904 64.3749C139.904 66.5554 141.677 68.3417 143.84 68.3417C144.5 68.3417 145.123 68.1693 145.673 67.8859L146.871 73.368H146.321C145.539 73.368 144.903 74.0086 144.903 74.797V77.8645H144.451C143.706 75.0557 141.921 72.9614 140.027 70.7563C137.252 67.4917 134.368 64.1039 134.514 57.7349ZM155.036 64.338C155.036 63.722 155.524 63.2292 156.136 63.2292C156.747 63.2292 157.236 63.722 157.236 64.338C157.236 64.9539 156.747 65.4467 156.136 65.4467C155.537 65.4467 155.036 64.9539 155.036 64.338ZM144.964 64.3749C144.964 64.9909 144.476 65.4837 143.864 65.4837C143.253 65.4837 142.764 64.9909 142.764 64.3749C142.764 63.759 143.253 63.2662 143.864 63.2662C144.463 63.2662 144.964 63.7713 144.964 64.3749ZM151.528 90.0359H148.472C147.947 90.0359 147.507 89.8511 147.103 89.4322L146.761 89.0996H153.239L152.897 89.4322C152.493 89.8388 152.053 90.0359 151.528 90.0359ZM148.582 37.0632V33.429C148.582 32.6406 149.218 32 150 32C150.782 32 151.418 32.6406 151.418 33.429V37.0632C151.418 37.8516 150.782 38.4922 150 38.4922C149.218 38.4922 148.582 37.8516 148.582 37.0632ZM159.472 39.2191L161.281 36.0777C161.672 35.3878 162.54 35.166 163.224 35.5603C163.909 35.9545 164.129 36.8291 163.738 37.519L161.929 40.6604C161.66 41.1162 161.183 41.3749 160.694 41.3749C160.45 41.3749 160.206 41.3133 159.986 41.1778C159.313 40.7713 159.081 39.8966 159.472 39.2191ZM167.307 48.5078C166.916 47.8179 167.148 46.9432 167.832 46.549L170.961 44.7381C171.646 44.3439 172.513 44.5779 172.904 45.2678C173.296 45.9577 173.063 46.8324 172.379 47.2266L169.25 49.0375C169.03 49.1607 168.786 49.2223 168.541 49.2223C168.04 49.2223 167.563 48.9636 167.307 48.5078ZM171.401 57.0943H175.019C175.801 57.0943 176.437 57.7349 176.437 58.5233C176.437 59.3117 175.801 59.9523 175.019 59.9523H171.401C170.619 59.9523 169.983 59.3117 169.983 58.5233C169.983 57.7349 170.619 57.0943 171.401 57.0943ZM167.307 68.5512C167.698 67.8613 168.566 67.6272 169.25 68.0214L172.379 69.8324C173.063 70.2266 173.296 71.1012 172.904 71.7911C172.648 72.2469 172.159 72.5056 171.67 72.5056C171.426 72.5056 171.181 72.444 170.961 72.3208L167.832 70.5099C167.148 70.1034 166.916 69.2287 167.307 68.5512ZM132.693 68.5512C133.084 69.241 132.852 70.1157 132.168 70.5099L129.039 72.3208C128.819 72.444 128.574 72.5056 128.33 72.5056C127.841 72.5056 127.364 72.2469 127.096 71.7911C126.704 71.1012 126.937 70.2266 127.621 69.8324L130.75 68.0214C131.434 67.6272 132.302 67.8613 132.693 68.5512ZM123.563 58.5233C123.563 57.7349 124.199 57.0943 124.981 57.0943H128.599C129.381 57.0943 130.017 57.7349 130.017 58.5233C130.017 59.3117 129.381 59.9523 128.599 59.9523H124.981C124.199 59.9646 123.563 59.3117 123.563 58.5233ZM127.108 45.2678C127.499 44.5779 128.367 44.3439 129.051 44.7381L132.18 46.549C132.864 46.9432 133.097 47.8179 132.706 48.5078C132.449 48.9636 131.96 49.2223 131.471 49.2223C131.227 49.2223 130.982 49.1607 130.762 49.0375L127.633 47.2266C126.949 46.82 126.717 45.9454 127.108 45.2678ZM136.262 37.5067C135.871 36.8168 136.103 35.9422 136.776 35.5479C137.46 35.1537 138.328 35.3878 138.719 36.0653L140.528 39.2067C140.919 39.8966 140.687 40.7713 140.014 41.1655C139.794 41.301 139.55 41.3626 139.306 41.3626C138.817 41.3626 138.34 41.1039 138.071 40.6481L136.262 37.5067Z" fill="white"></path></svg> 