<?xml version="1.0" encoding="UTF-8"?> <svg xmlns="http://www.w3.org/2000/svg" width="300" height="186" viewBox="0 0 300 186" fill="none"><rect width="300" height="186" fill="#051C2C"></rect><path d="M161.722 113.748V96.4888C161.722 95.6855 161.063 95.0348 160.259 95.0348H141.976C141.172 95.0348 140.518 95.6895 140.518 96.4888V113.447H135.676V96.4888C135.676 95.6855 135.022 95.0348 134.217 95.0348H115.931C115.123 95.0348 114.468 95.6895 114.468 96.4888V113.583C107.994 114.499 103.003 120.042 103.003 126.721C103.003 134.04 108.996 139.996 116.359 139.996L158.905 140C166.268 140 172.26 134.043 172.26 126.725C172.26 120.367 167.738 115.037 161.721 113.748L161.722 113.748ZM149.057 97.7659H153.179V102.763H149.057V97.7659ZM143.27 97.7659H146.309V104.128C146.309 104.883 146.923 105.494 147.683 105.494H154.557C155.317 105.494 155.931 104.883 155.931 104.128V97.7659H158.974V113.451C158.95 113.451 158.929 113.447 158.905 113.447H143.266V97.766L143.27 97.7659ZM123.02 97.7659H127.142V102.763H123.02V97.7659ZM120.272 97.7659V104.128C120.272 104.883 120.886 105.494 121.646 105.494H128.52C129.28 105.494 129.894 104.883 129.894 104.128V97.7659H132.933V113.447H117.228V97.7659H120.272ZM158.914 137.265L116.364 137.269C110.517 137.269 105.756 132.537 105.756 126.725C105.756 120.913 110.517 116.182 116.364 116.182H158.906C164.753 116.182 169.514 120.913 169.514 126.725C169.514 132.537 164.753 137.269 158.906 137.269L158.914 137.265ZM118.086 119.11C113.863 119.11 110.428 122.524 110.428 126.722C110.428 130.919 113.863 134.333 118.086 134.333C122.309 134.333 125.744 130.919 125.744 126.722C125.744 122.524 122.309 119.11 118.086 119.11ZM118.086 131.601C115.378 131.601 113.176 129.412 113.176 126.721C113.176 124.03 115.378 121.841 118.086 121.841C120.794 121.841 122.996 124.03 122.996 126.721C122.996 129.412 120.794 131.601 118.086 131.601ZM137.091 119.11C132.868 119.11 129.434 122.524 129.434 126.722C129.434 130.919 132.868 134.333 137.091 134.333C141.314 134.333 144.749 130.919 144.749 126.722C144.749 122.524 141.314 119.11 137.091 119.11ZM137.091 131.601C134.384 131.601 132.181 129.412 132.181 126.721C132.181 124.03 134.384 121.841 137.091 121.841C139.799 121.841 142.002 124.03 142.002 126.721C142.002 129.412 139.799 131.601 137.091 131.601ZM156.097 119.11C151.874 119.11 148.439 122.524 148.439 126.722C148.439 130.919 151.874 134.333 156.097 134.333C160.32 134.333 163.755 130.919 163.755 126.722C163.755 122.524 160.32 119.11 156.097 119.11ZM156.097 131.601C153.389 131.601 151.187 129.412 151.187 126.721C151.187 124.03 153.389 121.841 156.097 121.841C158.805 121.841 161.007 124.03 161.007 126.721C161.007 129.412 158.805 131.601 156.097 131.601ZM151.118 52.1169C148.047 52.1169 145.546 54.5992 145.546 57.6557C145.546 60.7084 148.043 63.1946 151.118 63.1946C154.19 63.1946 156.691 60.7123 156.691 57.6557C156.691 54.6031 154.194 52.1169 151.118 52.1169ZM151.118 60.4593C149.562 60.4593 148.298 59.2021 148.298 57.6557C148.298 56.1093 149.562 54.8521 151.118 54.8521C152.674 54.8521 153.939 56.1093 153.939 57.6557C153.939 59.2021 152.674 60.4593 151.118 60.4593ZM187.639 62.8211C190.71 62.8211 193.211 60.3388 193.211 57.2823C193.211 54.2296 190.714 51.7394 187.639 51.7394C184.567 51.7394 182.066 54.2257 182.066 57.2823C182.066 60.3388 184.563 62.8211 187.639 62.8211ZM187.639 54.4746C189.195 54.4746 190.459 55.7359 190.459 57.2863C190.459 58.8367 189.195 60.0899 187.639 60.0899C186.083 60.0899 184.818 58.8327 184.818 57.2863C184.818 55.7399 186.083 54.4746 187.639 54.4746ZM197.746 109.972H197.281L195.123 100.654C194.949 99.8825 194.4 99.2881 193.684 99.0351L193.688 65.6129C196.287 63.7452 197.984 60.7087 197.984 57.2825C197.984 51.6111 193.345 47 187.639 47C184.03 47 180.85 48.8477 178.999 51.6391H159.5C157.62 49.0565 154.565 47.3696 151.118 47.3696C145.412 47.3696 140.773 51.9806 140.773 57.652C140.773 61.4437 142.85 64.7614 145.933 66.5447V70.0311C144.761 70.1877 143.848 71.3044 143.848 72.662V76.5902L140.32 79.0725C139.827 79.4219 139.621 80.0485 139.811 80.6188L143.634 92.0262C143.836 92.6327 144.43 93.0143 145.072 92.954C145.711 92.8938 146.22 92.3998 146.301 91.7692L147.493 82.5632L151.122 80.0086L154.747 82.5632L155.943 91.7732C156.024 92.4038 156.537 92.8979 157.176 92.958C157.22 92.9621 157.265 92.9661 157.309 92.9661C157.895 92.9661 158.424 92.5925 158.614 92.0302L162.437 80.6228C162.627 80.0525 162.421 79.4259 161.928 79.0765L158.4 76.5942V72.666C158.4 71.2883 157.503 70.1877 156.315 70.0351V66.5487C157.572 65.8217 158.659 64.8376 159.507 63.6728H179.552C180.142 64.4119 180.829 65.0626 181.596 65.6168L181.588 99.0184C180.857 99.2554 180.279 99.8538 180.093 100.641L177.939 109.968H177.531C176.23 109.968 175.284 111.269 175.284 113.064V136.899C175.284 138.695 176.23 139.996 177.531 139.996H197.745C199.05 139.996 200 138.695 200 136.899V113.064C200 111.269 199.054 109.968 197.745 109.968L197.746 109.972ZM159.5 80.7196L157.895 85.5033L157.39 81.6193C157.342 81.2418 157.136 80.9004 156.82 80.6794L151.91 77.2171C151.672 77.0484 151.393 76.9641 151.114 76.9641C150.835 76.9641 150.557 77.0484 150.318 77.2171L145.404 80.6794C145.089 80.9004 144.883 81.2418 144.834 81.6193L144.333 85.4953L142.733 80.7196L146.026 78.402C146.447 78.1048 146.665 77.6027 146.592 77.0927C146.588 77.0806 146.588 77.0646 146.588 77.0525V72.7427H155.636V77.0525C155.636 77.0646 155.636 77.0766 155.632 77.0927C155.559 77.5988 155.778 78.1049 156.198 78.402L159.492 80.7196H159.5ZM153.559 70.0114H148.686V67.6457C149.469 67.8344 150.286 67.9348 151.122 67.9348C151.963 67.9348 152.779 67.8304 153.559 67.6457L153.559 70.0114ZM151.122 65.2036C146.932 65.2036 143.525 61.8176 143.525 57.6523C143.525 53.4871 146.932 50.1011 151.122 50.1011C155.313 50.1011 158.716 53.4871 158.716 57.6523C158.716 61.8176 155.309 65.2036 151.122 65.2036ZM160.922 60.934C161.274 59.9017 161.464 58.8012 161.464 57.6524C161.464 56.5077 161.27 55.4031 160.922 54.3709H177.729C177.455 55.2947 177.305 56.2708 177.305 57.2789C177.305 58.5642 177.547 59.7932 177.98 60.93H160.922L160.922 60.934ZM180.053 57.2829C180.053 53.1177 183.46 49.7316 187.646 49.7316C191.833 49.7316 195.244 53.1177 195.244 57.2829C195.244 61.4481 191.837 64.83 187.646 64.83C183.456 64.83 180.053 61.444 180.053 57.2829ZM187.646 67.5613C188.798 67.5613 189.909 67.3685 190.948 67.0231V98.9111H184.349L184.337 67.019C185.375 67.3684 186.482 67.5572 187.638 67.5572L187.646 67.5613ZM182.692 101.643H192.54L194.468 109.973H180.768L182.692 101.643ZM197.256 136.904C197.256 137.045 197.24 137.169 197.22 137.27H178.072C178.052 137.169 178.04 137.045 178.04 136.904V113.069C178.04 112.929 178.056 112.804 178.072 112.704H197.22C197.24 112.804 197.256 112.929 197.256 113.069V136.904ZM105.461 69.9674L107.785 70.4936C107.991 71.1001 108.237 71.6906 108.528 72.273L107.259 74.2773C106.447 75.5626 106.52 76.9924 107.449 77.9163L109.458 79.9126C110.383 80.8324 111.818 80.9087 113.115 80.1013L115.136 78.8361C115.714 79.1213 116.312 79.3663 116.922 79.5751L117.447 81.8847C117.799 83.3868 118.841 84.3187 120.171 84.3187H123.008C124.329 84.3187 125.4 83.3588 125.736 81.8807L126.265 79.5751C126.875 79.3703 127.473 79.1213 128.051 78.8361L130.076 80.1053C131.385 80.9127 132.784 80.8404 133.733 79.9125L135.746 77.9123C136.675 76.9764 136.752 75.5867 135.932 74.2732L134.659 72.273C134.946 71.6986 135.196 71.1042 135.402 70.4976L137.718 69.9714C139.213 69.6381 140.179 68.5736 140.179 67.2603V64.4406C140.179 63.1191 139.241 62.0788 137.722 61.7294L135.402 61.2073C135.196 60.5967 134.946 60.0023 134.659 59.4319L135.932 57.4236C136.74 56.1383 136.667 54.7124 135.738 53.7927L133.729 51.7964C132.784 50.8566 131.381 50.7843 130.068 51.6077L128.055 52.8689C127.473 52.5837 126.875 52.3347 126.265 52.1299L125.736 49.8243C125.4 48.3422 124.329 47.3822 123.008 47.3822H120.171C118.841 47.3822 117.799 48.3141 117.443 49.8243L116.918 52.1299C116.304 52.3347 115.705 52.5797 115.128 52.8649L113.115 51.6077C111.818 50.7883 110.379 50.8646 109.454 51.7964L107.449 53.7887C106.508 54.7125 106.431 56.1424 107.251 57.4277L108.52 59.436C108.233 60.0104 107.987 60.6048 107.781 61.2154L105.449 61.7375C103.938 62.087 103 63.1233 103 64.4447V67.2644C103 68.5777 103.966 69.6382 105.453 69.9755L105.461 69.9674ZM105.756 64.5129C105.809 64.4767 105.914 64.4285 106.071 64.3924L109.171 63.6935C109.668 63.581 110.06 63.2075 110.193 62.7215C110.448 61.7896 110.824 60.89 111.309 60.0464C111.559 59.6086 111.547 59.0704 111.28 58.6406L109.583 55.9575C109.498 55.8249 109.462 55.7205 109.45 55.6603L111.353 53.7685C111.414 53.7846 111.519 53.8207 111.656 53.905L114.352 55.588C114.78 55.8571 115.326 55.8691 115.766 55.6161C116.611 55.1341 117.516 54.7646 118.458 54.5075C118.947 54.375 119.326 53.9814 119.436 53.4913L120.135 50.4186C120.171 50.258 120.224 50.1495 120.26 50.0973H122.947C122.98 50.1495 123.032 50.2499 123.069 50.4106L123.776 53.4913C123.889 53.9814 124.265 54.375 124.754 54.5075C125.683 54.7566 126.588 55.1301 127.445 55.6161C127.886 55.8651 128.427 55.8531 128.856 55.584L131.543 53.901C131.68 53.8127 131.79 53.7765 131.85 53.7645L133.75 55.6522C133.737 55.7125 133.701 55.8209 133.616 55.9575L131.919 58.6366C131.648 59.0623 131.636 59.6046 131.887 60.0424C132.367 60.8779 132.743 61.7816 133.01 62.7215C133.147 63.2075 133.539 63.577 134.032 63.6895L137.12 64.3844C137.282 64.4205 137.387 64.4727 137.439 64.5049V67.1759C137.387 67.2081 137.286 67.2563 137.12 67.2924L134.024 67.9953C133.531 68.1078 133.139 68.4773 133.006 68.9633C132.747 69.8952 132.367 70.799 131.883 71.6464C131.632 72.0842 131.644 72.6225 131.915 73.0523L133.608 75.7152C133.697 75.8598 133.733 75.9683 133.75 76.0325L131.854 77.9163C131.794 77.9042 131.685 77.8681 131.543 77.7837L128.856 76.0968C128.427 75.8277 127.882 75.8156 127.441 76.0646C126.589 76.5466 125.679 76.9242 124.742 77.1812C124.257 77.3178 123.881 77.7034 123.768 78.1934L123.061 81.2741C123.024 81.4308 122.976 81.5312 122.943 81.5834H120.256C120.224 81.5312 120.171 81.4268 120.135 81.2701L119.432 78.1934C119.318 77.7034 118.947 77.3138 118.458 77.1772C117.512 76.9161 116.603 76.5426 115.762 76.0606C115.322 75.8116 114.776 75.8236 114.348 76.0927L111.656 77.7797C111.519 77.8681 111.41 77.9002 111.349 77.9163L109.45 76.0285C109.462 75.9682 109.502 75.8598 109.587 75.7232L111.28 73.0522C111.551 72.6264 111.563 72.0882 111.313 71.6504C110.824 70.7988 110.448 69.8991 110.197 68.9753C110.064 68.4893 109.672 68.1157 109.175 68.0033L106.071 67.3004C105.914 67.2642 105.809 67.216 105.756 67.1799V64.5088L105.756 64.5129ZM121.594 74.5263C126.407 74.5263 130.327 70.6342 130.327 65.8464C130.327 61.0627 126.411 57.1666 121.594 57.1666C116.781 57.1666 112.861 61.0587 112.861 65.8464C112.861 70.6301 116.777 74.5263 121.594 74.5263ZM121.594 59.9015C124.892 59.9015 127.575 62.5686 127.575 65.846C127.575 69.1235 124.891 71.7905 121.594 71.7905C118.296 71.7905 115.613 69.1235 115.613 65.846C115.613 62.5686 118.296 59.9015 121.594 59.9015Z" fill="white"></path></svg> 