<?xml version="1.0" encoding="UTF-8"?> <svg xmlns="http://www.w3.org/2000/svg" width="300" height="186" viewBox="0 0 300 186" fill="none"><rect width="300" height="186" fill="#051C2C"></rect><path d="M188.841 49.6907H176.691L169.465 42.3433C169.247 42.1229 168.952 41.9994 168.645 42H115.302C114.995 42.0003 114.7 42.1248 114.483 42.346C114.266 42.5672 114.143 42.8672 114.143 43.1799V98.5996C111.337 101.712 109.79 105.787 109.811 110.009C109.832 114.232 111.419 118.291 114.256 121.374C113.929 121.935 113.832 122.605 113.985 123.238C113.997 123.293 114.015 123.346 114.031 123.4L111.286 127.925C110.816 127.878 110.343 127.966 109.92 128.179C109.497 128.393 109.142 128.723 108.895 129.132L103.466 138.156C103.027 138.888 102.891 139.767 103.089 140.601C103.286 141.434 103.801 142.154 104.52 142.601L107.623 144.527C108.343 144.973 109.207 145.111 110.026 144.91C110.846 144.708 111.553 144.185 111.994 143.454L117.425 134.429C117.598 134.143 117.714 133.824 117.765 133.493C117.816 133.161 117.802 132.822 117.723 132.496C117.653 132.203 117.533 131.926 117.369 131.675L117.396 131.631H121.446V138.141C121.446 138.454 121.569 138.754 121.786 138.975C122.004 139.196 122.298 139.321 122.606 139.321H188.841C189.149 139.321 189.443 139.196 189.661 138.975C189.878 138.754 190 138.454 190 138.141V50.8694C190 50.5568 189.878 50.257 189.661 50.0359C189.443 49.8149 189.149 49.6907 188.841 49.6907ZM169.805 46.0284L178.74 55.1165H169.805V46.0284ZM114.203 102.419C115.596 100.1 117.605 98.2307 119.999 97.0252C122.392 95.8198 125.072 95.328 127.729 95.6066C130.386 95.8853 132.911 96.923 135.012 98.5998C137.114 100.277 138.706 102.524 139.604 105.083C140.503 107.641 140.672 110.406 140.091 113.058C139.51 115.71 138.203 118.14 136.322 120.068C134.44 121.997 132.061 123.344 129.458 123.954C126.856 124.565 124.136 124.414 121.615 123.519C121.365 123.43 121.092 123.43 120.842 123.521C120.592 123.612 120.381 123.786 120.242 124.017L119.792 124.77C119.771 124.804 119.737 124.828 119.698 124.838C119.66 124.847 119.619 124.841 119.584 124.821L116.304 122.783C116.286 122.772 116.272 122.758 116.26 122.742C116.248 122.725 116.24 122.707 116.236 122.687C116.227 122.648 116.233 122.607 116.253 122.572L116.703 121.819C116.841 121.589 116.898 121.318 116.863 121.05C116.829 120.783 116.705 120.536 116.513 120.35C114.182 118.073 112.683 115.056 112.263 111.797C111.843 108.537 112.528 105.23 114.203 102.419ZM115.685 125.163L117.796 126.476L115.512 130.245L113.4 128.933L115.685 125.163ZM115.447 133.197L110.017 142.222C109.895 142.418 109.704 142.559 109.482 142.613C109.261 142.667 109.027 142.631 108.831 142.513L105.728 140.588C105.535 140.466 105.397 140.272 105.344 140.047C105.29 139.823 105.326 139.586 105.444 139.388L110.874 130.364C110.892 130.334 110.918 130.31 110.948 130.294C110.977 130.277 111.011 130.268 111.045 130.269C111.081 130.268 111.115 130.278 111.145 130.297L115.384 132.929C115.406 132.943 115.425 132.961 115.439 132.982C115.454 133.003 115.464 133.027 115.47 133.052C115.476 133.076 115.477 133.102 115.474 133.127C115.47 133.152 115.46 133.176 115.447 133.197ZM120.11 127.155C120.444 127.093 120.762 126.962 121.044 126.77C121.326 126.577 121.566 126.327 121.749 126.035C124.441 126.819 127.286 126.892 130.014 126.246C132.741 125.6 135.262 124.257 137.338 122.345C139.413 120.432 140.975 118.013 141.876 115.315C142.776 112.617 142.986 109.731 142.484 106.928C141.983 104.125 140.787 101.498 139.01 99.2963C137.233 97.0943 134.934 95.3896 132.329 94.3433C129.724 93.2971 126.9 92.9438 124.123 93.3169C121.347 93.69 118.71 94.7771 116.461 96.4755V44.3587H167.486V56.2952C167.486 56.6079 167.608 56.9077 167.825 57.1288C168.043 57.3498 168.337 57.474 168.645 57.474H180.379V129.272H118.824L120.11 127.155ZM187.681 136.962H123.765V131.631H181.537C181.69 131.631 181.841 131.6 181.981 131.541C182.122 131.482 182.25 131.395 182.358 131.286C182.465 131.176 182.551 131.046 182.609 130.903C182.667 130.76 182.697 130.607 182.697 130.452V56.2918C182.698 55.9792 182.577 55.6792 182.36 55.4575L179.006 52.0459H187.684L187.681 136.962ZM126.16 121.551C128.488 121.553 130.761 120.83 132.672 119.478C134.584 118.127 136.044 116.213 136.854 113.993C137.665 111.773 137.788 109.354 137.207 107.061C136.626 104.767 135.369 102.71 133.604 101.165C131.84 99.6204 129.653 98.6622 127.337 98.4193C125.021 98.1764 122.688 98.6605 120.651 99.8066C118.614 100.953 116.97 102.706 115.941 104.83C114.913 106.954 114.548 109.348 114.896 111.69C115.3 114.434 116.66 116.939 118.727 118.749C120.794 120.559 123.432 121.554 126.16 121.551ZM118.857 104.474C119.743 103.251 120.912 102.27 122.26 101.617C123.608 100.963 125.093 100.658 126.585 100.728C128.076 100.798 129.528 101.241 130.811 102.018C132.094 102.795 133.169 103.882 133.94 105.182C134.712 106.483 135.156 107.957 135.234 109.474C135.312 110.99 135.021 112.503 134.387 113.878C133.752 115.253 132.795 116.448 131.598 117.357C130.401 118.265 129.003 118.86 127.527 119.087C127.075 119.156 126.619 119.191 126.162 119.192C124.483 119.191 122.836 118.716 121.406 117.82C119.976 116.925 118.818 115.643 118.061 114.118C117.304 112.593 116.977 110.884 117.118 109.181C117.259 107.479 117.861 105.849 118.857 104.474ZM120.445 109.205C120.465 109.18 120.488 109.156 120.509 109.133L120.521 109.12L124.404 105.173C124.51 105.059 124.638 104.967 124.78 104.904C124.922 104.84 125.075 104.806 125.23 104.804C125.385 104.802 125.539 104.831 125.683 104.891C125.826 104.95 125.957 105.038 126.066 105.149C126.176 105.261 126.263 105.394 126.321 105.54C126.379 105.686 126.408 105.842 126.406 106C126.404 106.158 126.371 106.313 126.309 106.458C126.247 106.602 126.157 106.732 126.044 106.841L124.139 108.778H130.994C131.15 108.773 131.304 108.8 131.449 108.857C131.594 108.914 131.726 109 131.838 109.11C131.949 109.22 132.038 109.352 132.098 109.498C132.159 109.643 132.19 109.8 132.19 109.958C132.19 110.116 132.159 110.272 132.098 110.418C132.038 110.563 131.949 110.695 131.838 110.805C131.726 110.915 131.594 111.001 131.449 111.058C131.304 111.115 131.15 111.142 130.994 111.137H124.139L126.044 113.07C126.259 113.292 126.378 113.591 126.377 113.902C126.375 114.213 126.253 114.511 126.037 114.731C125.821 114.951 125.528 115.076 125.222 115.077C124.916 115.078 124.622 114.957 124.404 114.739L120.521 110.788L120.508 110.774C120.486 110.751 120.465 110.727 120.445 110.703L120.423 110.675C120.408 110.653 120.392 110.632 120.377 110.609L120.363 110.585C120.347 110.561 120.332 110.536 120.319 110.511L120.31 110.494C120.296 110.465 120.282 110.435 120.269 110.406V110.394C120.257 110.363 120.245 110.33 120.234 110.298V110.286C120.224 110.253 120.216 110.22 120.21 110.186V110.158C120.21 110.13 120.2 110.101 120.197 110.072C120.195 110.033 120.195 109.995 120.197 109.957C120.195 109.919 120.195 109.881 120.197 109.843C120.197 109.814 120.205 109.784 120.21 109.756V109.729C120.216 109.695 120.225 109.661 120.234 109.627V109.617C120.245 109.584 120.257 109.551 120.269 109.519V109.508C120.282 109.479 120.296 109.449 120.311 109.419L120.319 109.404C120.332 109.378 120.348 109.353 120.364 109.328L120.377 109.305C120.393 109.282 120.41 109.259 120.427 109.237L120.445 109.205ZM131.89 87.4951C131.87 87.5202 131.848 87.5431 131.827 87.566L131.814 87.5809L127.931 91.5304C127.713 91.7515 127.419 91.8757 127.111 91.8757C126.804 91.8757 126.509 91.7515 126.292 91.5304C126.074 91.3093 125.952 91.0093 125.952 90.6966C125.952 90.3839 126.074 90.084 126.292 89.8629L128.195 87.9265H121.34C121.039 87.917 120.753 87.7885 120.544 87.5684C120.334 87.3483 120.217 87.0537 120.217 86.7472C120.217 86.4406 120.334 86.1461 120.544 85.9259C120.753 85.7058 121.039 85.5774 121.34 85.5678H128.195L126.292 83.6303C126.184 83.5208 126.099 83.3908 126.04 83.2478C125.982 83.1047 125.952 82.9514 125.952 82.7966C125.952 82.6417 125.982 82.4884 126.04 82.3453C126.099 82.2023 126.184 82.0723 126.292 81.9628C126.399 81.8533 126.527 81.7665 126.668 81.7072C126.808 81.648 126.959 81.6175 127.111 81.6175C127.263 81.6175 127.414 81.648 127.555 81.7072C127.695 81.7665 127.823 81.8533 127.931 81.9628L131.814 85.9123L131.827 85.9272C131.848 85.9501 131.87 85.973 131.89 85.9981L131.911 86.0267C131.927 86.0473 131.943 86.0691 131.957 86.0908L131.972 86.116C131.988 86.14 132.002 86.1648 132.016 86.1904L132.025 86.2076C132.039 86.2362 132.053 86.2648 132.065 86.2945V86.306C132.079 86.3378 132.09 86.3702 132.1 86.4033V86.4147C132.11 86.4479 132.118 86.4811 132.125 86.5143V86.5417C132.125 86.5704 132.135 86.6001 132.137 86.6287C132.142 86.6667 132.144 86.7049 132.144 86.7432C132.144 86.7814 132.142 86.8196 132.137 86.8576C132.137 86.8874 132.129 86.916 132.125 86.9446V86.9721C132.119 87.0057 132.11 87.0389 132.1 87.0716V87.0831C132.09 87.1161 132.079 87.1486 132.065 87.1803V87.1918C132.053 87.2215 132.039 87.2502 132.025 87.2788L132.016 87.2971C132.002 87.3223 131.988 87.3463 131.972 87.3715L131.957 87.3955C131.943 87.4184 131.927 87.439 131.911 87.4596L131.89 87.4951ZM132.147 63.4217C132.152 63.4597 132.154 63.4979 132.154 63.5361C132.154 63.5744 132.152 63.6126 132.147 63.6506C132.147 63.6803 132.14 63.709 132.135 63.7376V63.765C132.129 63.7987 132.12 63.8319 132.11 63.8646V63.876C132.1 63.9091 132.089 63.9415 132.075 63.9733V63.9848C132.063 64.0145 132.05 64.0431 132.035 64.0717L132.026 64.0889C132.012 64.1152 131.998 64.1393 131.982 64.1644L131.967 64.1885C131.953 64.2114 131.937 64.232 131.921 64.2526L131.9 64.2812C131.88 64.3064 131.858 64.3292 131.837 64.3521L131.825 64.367L127.931 68.3222C127.823 68.4317 127.695 68.5185 127.555 68.5778C127.414 68.637 127.263 68.6675 127.111 68.6675C126.959 68.6675 126.808 68.637 126.668 68.5778C126.527 68.5185 126.399 68.4317 126.292 68.3222C126.184 68.2127 126.099 68.0827 126.04 67.9397C125.982 67.7966 125.952 67.6433 125.952 67.4885C125.952 67.3336 125.982 67.1803 126.04 67.0373C126.099 66.8942 126.184 66.7642 126.292 66.6547L128.195 64.7183H121.34C121.039 64.7088 120.753 64.5804 120.544 64.3602C120.334 64.1401 120.217 63.8456 120.217 63.539C120.217 63.2324 120.334 62.9379 120.544 62.7178C120.753 62.4976 121.039 62.3692 121.34 62.3597H128.195L126.292 60.4255C126.184 60.3161 126.099 60.1861 126.04 60.043C125.982 59.9 125.952 59.7467 125.952 59.5918C125.952 59.437 125.982 59.2837 126.04 59.1406C126.099 58.9976 126.184 58.8676 126.292 58.7581C126.399 58.6486 126.527 58.5618 126.668 58.5025C126.808 58.4432 126.959 58.4127 127.111 58.4127C127.263 58.4127 127.414 58.4432 127.555 58.5025C127.695 58.5618 127.823 58.6486 127.931 58.7581L131.814 62.7076L131.827 62.7224C131.848 62.7453 131.87 62.7682 131.89 62.7934L131.911 62.822C131.927 62.8426 131.943 62.8644 131.957 62.8861L131.972 62.9101C131.988 62.9353 132.002 62.9593 132.016 62.9857L132.025 63.0028C132.039 63.0314 132.053 63.0601 132.065 63.0898V63.1013C132.079 63.133 132.09 63.1655 132.1 63.1985V63.21C132.11 63.2432 132.118 63.2764 132.125 63.3095V63.337C132.14 63.3633 132.145 63.3919 132.147 63.4217ZM142.214 60.4313C142.214 60.1185 142.336 59.8186 142.554 59.5973C142.771 59.3761 143.066 59.2516 143.373 59.2513H161.35C161.505 59.2464 161.66 59.2733 161.805 59.3303C161.95 59.3874 162.082 59.4735 162.193 59.5835C162.305 59.6935 162.394 59.8251 162.454 59.9707C162.515 60.1162 162.546 60.2726 162.546 60.4307C162.546 60.5887 162.515 60.7452 162.454 60.8907C162.394 61.0362 162.305 61.1679 162.193 61.2779C162.082 61.3879 161.95 61.474 161.805 61.531C161.66 61.5881 161.505 61.615 161.35 61.61H143.373C143.066 61.61 142.771 61.4858 142.554 61.2648C142.336 61.0437 142.214 60.7439 142.214 60.4313ZM172.274 66.6479C172.274 66.9606 172.152 67.2606 171.935 67.4818C171.717 67.7031 171.423 67.8275 171.115 67.8278H143.373C143.072 67.8183 142.786 67.6898 142.576 67.4697C142.366 67.2496 142.249 66.955 142.249 66.6485C142.249 66.3419 142.366 66.0473 142.576 65.8272C142.786 65.6071 143.072 65.4787 143.373 65.4691H171.115C171.423 65.4691 171.717 65.5933 171.935 65.8144C172.152 66.0354 172.274 66.3353 172.274 66.6479ZM139.459 60.4313C139.459 60.744 139.336 61.0438 139.119 61.2649C138.901 61.4859 138.607 61.61 138.299 61.61H138.243C137.942 61.6005 137.656 61.4721 137.446 61.2519C137.236 61.0318 137.119 60.7373 137.119 60.4307C137.119 60.1241 137.236 59.8296 137.446 59.6095C137.656 59.3893 137.942 59.2609 138.243 59.2513H138.299C138.607 59.2516 138.901 59.3761 139.119 59.5973C139.336 59.8185 139.459 60.1184 139.459 60.4313ZM139.459 66.6479C139.459 66.9607 139.336 67.2607 139.119 67.4819C138.901 67.7031 138.607 67.8275 138.299 67.8278H138.243C137.942 67.8183 137.656 67.6898 137.446 67.4697C137.236 67.2496 137.119 66.955 137.119 66.6485C137.119 66.3419 137.236 66.0473 137.446 65.8272C137.656 65.6071 137.942 65.4787 138.243 65.4691H138.299C138.607 65.4691 138.901 65.5933 139.119 65.8143C139.336 66.0353 139.459 66.3351 139.459 66.6479ZM142.214 83.6383C142.214 83.3256 142.336 83.0256 142.554 82.8044C142.771 82.5831 143.066 82.4587 143.373 82.4584H161.35C161.505 82.4534 161.66 82.4803 161.805 82.5374C161.95 82.5944 162.082 82.6805 162.193 82.7905C162.305 82.9005 162.394 83.0322 162.454 83.1777C162.515 83.3232 162.546 83.4797 162.546 83.6377C162.546 83.7958 162.515 83.9522 162.454 84.0977C162.394 84.2433 162.305 84.3749 162.193 84.4849C162.082 84.5949 161.95 84.681 161.805 84.7381C161.66 84.7951 161.505 84.822 161.35 84.8171H143.373C143.066 84.8171 142.771 84.6929 142.554 84.4718C142.336 84.2507 142.214 83.9509 142.214 83.6383ZM172.274 89.8549C172.274 90.1676 172.152 90.4676 171.935 90.6888C171.717 90.9101 171.423 91.0345 171.115 91.0348H143.373C143.072 91.0253 142.786 90.8968 142.576 90.6767C142.366 90.4566 142.249 90.162 142.249 89.8555C142.249 89.5489 142.366 89.2544 142.576 89.0342C142.786 88.8141 143.072 88.6857 143.373 88.6761H171.115C171.423 88.6761 171.717 88.8003 171.935 89.0214C172.152 89.2425 172.274 89.5423 172.274 89.8549ZM139.459 83.6383C139.459 83.951 139.336 84.2509 139.119 84.4719C138.901 84.6929 138.607 84.8171 138.299 84.8171H138.243C137.942 84.8075 137.656 84.6791 137.446 84.459C137.236 84.2388 137.119 83.9443 137.119 83.6377C137.119 83.3311 137.236 83.0366 137.446 82.8165C137.656 82.5964 137.942 82.4679 138.243 82.4584H138.299C138.607 82.4587 138.901 82.5831 139.119 82.8043C139.336 83.0255 139.459 83.3254 139.459 83.6383ZM139.459 89.8549C139.459 90.1677 139.336 90.4677 139.119 90.6889C138.901 90.9101 138.607 91.0345 138.299 91.0348H138.243C137.942 91.0253 137.656 90.8968 137.446 90.6767C137.236 90.4566 137.119 90.162 137.119 89.8555C137.119 89.5489 137.236 89.2544 137.446 89.0342C137.656 88.8141 137.942 88.6857 138.243 88.6761H138.299C138.607 88.6761 138.901 88.8003 139.119 89.0213C139.336 89.2423 139.459 89.5422 139.459 89.8549ZM146.38 106.845C146.38 106.533 146.503 106.233 146.72 106.012C146.938 105.791 147.233 105.667 147.54 105.667H162.82C163.122 105.676 163.407 105.805 163.617 106.025C163.827 106.245 163.944 106.539 163.944 106.846C163.944 107.152 163.827 107.447 163.617 107.667C163.407 107.887 163.122 108.016 162.82 108.025H147.54C147.233 108.025 146.938 107.901 146.72 107.679C146.503 107.458 146.38 107.158 146.38 106.845ZM172.274 113.062C172.274 113.217 172.244 113.37 172.186 113.513C172.128 113.657 172.043 113.787 171.935 113.896C171.827 114.006 171.7 114.093 171.559 114.152C171.418 114.211 171.267 114.242 171.115 114.242H147.54C147.385 114.247 147.23 114.22 147.085 114.163C146.94 114.106 146.808 114.02 146.697 113.91C146.585 113.8 146.496 113.668 146.436 113.523C146.375 113.377 146.344 113.221 146.344 113.062C146.344 112.904 146.375 112.748 146.436 112.602C146.496 112.457 146.585 112.325 146.697 112.215C146.808 112.105 146.94 112.019 147.085 111.962C147.23 111.905 147.385 111.878 147.54 111.883H171.115C171.423 111.883 171.717 112.007 171.935 112.228C172.152 112.449 172.274 112.749 172.274 113.062Z" fill="white"></path></svg> 