<?xml version="1.0" encoding="UTF-8"?> <svg xmlns="http://www.w3.org/2000/svg" width="300" height="186" viewBox="0 0 300 186" fill="none"><rect width="300" height="186" fill="#051C2C"></rect><path d="M141.512 108.415C144.296 108.415 146.572 106.153 146.572 103.372C146.572 100.591 144.307 98.3283 141.512 98.3283C138.717 98.3283 136.452 100.591 136.452 103.372C136.452 106.153 138.717 108.415 141.512 108.415ZM141.512 100.889C142.882 100.889 143.998 102.003 143.998 103.372C143.998 104.74 142.882 105.855 141.512 105.855C140.142 105.855 139.027 104.74 139.027 103.372C139.027 102.003 140.142 100.889 141.512 100.889ZM153.378 108.415C156.162 108.415 158.438 106.153 158.438 103.372C158.438 100.591 156.173 98.3283 153.378 98.3283C150.583 98.3283 148.318 100.591 148.318 103.372C148.318 106.153 150.583 108.415 153.378 108.415ZM153.378 100.889C154.748 100.889 155.864 102.003 155.864 103.372C155.864 104.74 154.748 105.855 153.378 105.855C152.008 105.855 150.892 104.74 150.892 103.372C150.892 102.003 152.008 100.889 153.378 100.889ZM165.243 108.415C168.027 108.415 170.303 106.153 170.303 103.372C170.303 100.591 168.038 98.3283 165.243 98.3283C162.459 98.3283 160.183 100.591 160.183 103.372C160.183 106.153 162.459 108.415 165.243 108.415ZM165.243 100.889C166.613 100.889 167.729 102.003 167.729 103.372C167.729 104.74 166.613 105.855 165.243 105.855C163.873 105.855 162.757 104.74 162.757 103.372C162.757 102.003 163.873 100.889 165.243 100.889ZM177.109 108.415C179.893 108.415 182.169 106.153 182.169 103.372C182.169 100.591 179.904 98.3283 177.109 98.3283C174.325 98.3283 172.049 100.591 172.049 103.372C172.049 106.153 174.325 108.415 177.109 108.415ZM177.109 100.889C178.479 100.889 179.595 102.003 179.595 103.372C179.595 104.74 178.479 105.855 177.109 105.855C175.739 105.855 174.623 104.74 174.623 103.372C174.623 102.003 175.739 100.889 177.109 100.889ZM195.238 56.5897H180.335L173.695 50.0012C173.297 49.6039 172.69 49.5156 172.192 49.7694L164.779 53.6431C163.608 53.003 162.393 52.4291 161.144 51.9325C160.15 51.5352 159.134 51.1931 158.095 50.9061L155.576 42.8939C155.411 42.3642 154.913 42 154.35 42L144.451 42.0331C143.888 42.0331 143.402 42.3973 143.225 42.927L140.706 50.9834C138.463 51.6345 136.309 52.5284 134.265 53.6541L126.498 49.8798C126.001 49.637 125.416 49.7363 125.029 50.1336L118.599 56.5897H103.762C101.132 56.5897 99 58.7307 99 61.3463V123.987C99 126.614 101.143 128.744 103.762 128.744H138.585L134.95 142.44H129.26C128.553 142.44 127.979 143.014 127.979 143.72C127.979 144.426 128.553 145 129.26 145H169.718C170.425 145 170.999 144.426 170.999 143.72C170.999 143.014 170.425 142.44 169.718 142.44H164.028L160.393 128.744H195.238C197.868 128.744 200 126.603 200 123.987V61.3573C200 58.7307 197.868 56.5897 195.238 56.5897ZM197.437 61.3573V115.534H177.54V113.282C182.666 112.885 186.72 108.592 186.72 103.372C186.72 98.5049 183.207 94.4436 178.578 93.5938C178.689 93.351 178.788 93.0972 178.887 92.8544C179.274 91.8832 179.617 90.8789 179.904 89.8746L187.925 87.3584C188.466 87.1929 188.831 86.6962 188.82 86.1334L188.786 76.2561C188.786 75.6932 188.422 75.2076 187.88 75.0311L179.86 72.5259C179.186 70.2083 178.258 67.968 177.076 65.8601L180.578 59.1611H195.238C196.443 59.1611 197.437 60.1434 197.437 61.3573ZM114.843 103.372C114.843 102.511 114.997 101.683 115.263 100.911H125.228C124.819 101.639 124.576 102.478 124.576 103.372C124.576 104.266 124.808 105.104 125.228 105.833H115.263C114.997 105.06 114.843 104.233 114.843 103.372ZM127.15 103.372C127.15 102.003 128.266 100.889 129.636 100.889C131.006 100.889 132.122 102.003 132.122 103.372C132.122 104.74 131.006 105.855 129.636 105.855C128.266 105.855 127.15 104.74 127.15 103.372ZM129.249 108.393C129.382 108.404 129.503 108.404 129.636 108.404C132.42 108.404 134.696 106.142 134.696 103.361C134.696 100.58 132.431 98.3173 129.636 98.3173C129.503 98.3173 129.371 98.3283 129.249 98.3283H116.831C118.179 96.8826 120.102 95.9776 122.234 95.9776H132.762H147.125H151.908H166.271H176.744C180.821 95.9776 184.135 99.2884 184.135 103.361C184.135 107.433 180.821 110.744 176.744 110.744H122.234C120.102 110.744 118.179 109.839 116.831 108.393H129.249ZM150.704 62.3285H148.218V58.2672C149.036 58.2231 149.865 58.212 150.704 58.2562V62.3285ZM146.937 64.8889H148.174V67.0299H147.533C147.246 67.0299 146.97 67.1292 146.738 67.3058L143.976 69.4799C143.667 69.7227 143.49 70.0979 143.49 70.4952L143.501 73.5633C143.501 73.9606 143.689 74.3248 143.998 74.5676L145.39 75.6491C145.633 75.8477 145.909 75.936 146.186 75.936C146.572 75.936 146.948 75.7705 147.202 75.4394C147.633 74.8766 147.533 74.0709 146.97 73.6405L146.064 72.9452L146.053 71.1243L147.975 69.6013L151.025 69.5903L152.969 71.1022L152.98 72.9232L152.085 73.6295C151.533 74.0709 151.433 74.8766 151.875 75.4284C152.317 75.9802 153.124 76.0795 153.676 75.6381L155.057 74.5455C155.366 74.3027 155.543 73.9275 155.543 73.5302L155.532 70.4621C155.532 70.0648 155.344 69.7006 155.035 69.4578L152.24 67.2948C152.019 67.1182 151.732 67.0299 151.444 67.0299H150.715V64.8889H151.953C152.66 64.8889 153.234 64.315 153.234 63.6087V58.5321C154.825 58.797 156.416 59.2274 157.985 59.8454C163.708 62.1078 168.215 66.4671 170.657 72.1065C173.098 77.746 173.198 84.0034 170.933 89.7201C170.425 91.0114 169.795 92.2584 169.066 93.4283H167.541V82.7895C167.541 82.0831 166.967 81.5093 166.26 81.5093H161.664H156.482H151.886C151.179 81.5093 150.605 82.0831 150.605 82.7895V93.4283H148.384V82.7895C148.384 82.0831 147.81 81.5093 147.103 81.5093H142.54H137.358H132.762C132.055 81.5093 131.481 82.0831 131.481 82.7895V93.4283H129.956C126.101 87.237 125.393 79.5669 128.089 72.7797C131.16 65.0434 137.988 59.8895 145.655 58.5652V63.6197C145.655 64.315 146.23 64.8889 146.937 64.8889ZM157.797 84.0696H160.404V86.2879H157.797V84.0696ZM156.515 88.8483H161.697C162.404 88.8483 162.978 88.2744 162.978 87.5681V84.0696H165V93.4283H153.201V84.0696H155.223V87.5681C155.234 88.2744 155.808 88.8483 156.515 88.8483ZM138.651 84.0696H141.258V86.2879H138.651V84.0696ZM137.358 88.8483H142.54C143.247 88.8483 143.821 88.2744 143.821 87.5681V84.0696H145.843V93.4283H134.055V84.0696H136.077V87.5681C136.077 88.2744 136.651 88.8483 137.358 88.8483ZM124.024 113.315H174.965V115.534H124.024V113.315ZM126.211 52.5836L133.282 56.0159L133.326 56.06C133.735 56.4683 134.375 56.5566 134.884 56.2587C137.137 54.9454 139.557 53.9411 142.076 53.2679C142.518 53.1465 142.86 52.7933 142.982 52.3629L145.412 44.5935L153.422 44.5714L155.875 52.3629C156.007 52.7823 156.35 53.1134 156.781 53.2237C157.941 53.5217 159.101 53.8969 160.216 54.3384C161.564 54.8681 162.879 55.5082 164.127 56.2255C164.503 56.4463 164.978 56.4573 165.365 56.2476L172.557 52.4843L178.236 58.1127L174.49 65.2862C174.28 65.6835 174.303 66.147 174.524 66.5333C175.871 68.8288 176.91 71.2898 177.584 73.8612C177.694 74.2917 178.026 74.6227 178.446 74.7552L186.234 77.1831L186.256 85.1733L178.468 87.6233C178.048 87.7557 177.727 88.0978 177.606 88.5172C177.308 89.6539 176.932 90.7906 176.501 91.8832C176.302 92.3909 176.081 92.8985 175.849 93.4062H172.071C172.557 92.5123 172.988 91.5963 173.363 90.6472C175.882 84.2904 175.772 77.3376 173.054 71.0691C170.325 64.8116 165.332 59.9778 158.968 57.4616C145.832 52.2636 130.906 58.7087 125.703 71.8306C122.897 78.8937 123.405 86.8066 126.995 93.4283H123.217C122.488 91.8722 121.902 90.2388 121.471 88.5834C121.328 88.0206 120.809 87.6233 120.234 87.6233H120.212L112.788 85.416L112.766 77.4149L120.19 74.8545H120.234C120.82 74.8545 121.328 74.4572 121.471 73.8944C121.77 72.7797 122.134 71.6651 122.565 70.5835C123.107 69.2261 123.747 67.9017 124.476 66.6436C124.775 66.136 124.686 65.5069 124.278 65.0875L124.244 65.0544L120.554 58.2562L126.211 52.5836ZM103.762 59.1611H118.124L121.869 66.0587C121.239 67.2175 120.665 68.4204 120.179 69.6455C119.814 70.5725 119.483 71.5216 119.207 72.4817L111.053 75.2849C110.534 75.4615 110.192 75.9471 110.192 76.4989L110.225 86.3762C110.225 86.939 110.6 87.4357 111.142 87.6012L119.207 89.996C119.56 91.21 119.991 92.4129 120.488 93.5828C115.837 94.4105 112.291 98.4828 112.291 103.372C112.291 108.592 116.345 112.885 121.471 113.282V115.534H101.563V61.3573C101.563 60.1434 102.557 59.1611 103.762 59.1611ZM161.388 142.451H137.612L141.247 128.755H157.753L161.388 142.451ZM195.238 126.183H103.762C102.546 126.183 101.563 125.201 101.563 123.987V118.094H197.426V123.987C197.437 125.201 196.443 126.183 195.238 126.183ZM149.5 118.657C147.533 118.657 145.943 120.257 145.943 122.21C145.943 124.164 147.545 125.764 149.5 125.764C151.467 125.764 153.057 124.164 153.057 122.21C153.057 120.257 151.467 118.657 149.5 118.657ZM149.5 123.204C148.948 123.204 148.506 122.762 148.506 122.21C148.506 121.659 148.948 121.217 149.5 121.217C150.052 121.217 150.494 121.659 150.494 122.21C150.494 122.762 150.052 123.204 149.5 123.204Z" fill="white"></path></svg> 