<?xml version="1.0" encoding="UTF-8"?> <svg xmlns="http://www.w3.org/2000/svg" width="300" height="186" viewBox="0 0 300 186" fill="none"><rect width="300" height="186" fill="#051C2C"></rect><path d="M115.053 76.5933C114.712 77.3022 113.858 77.5993 113.148 77.2597C112.438 76.9159 112.14 76.0626 112.485 75.3538C115.716 68.702 120.66 63.0307 126.807 58.9132C127.122 58.6925 127.509 58.6118 127.883 58.6798C128.261 58.7519 128.593 58.9684 128.806 59.2868C129.018 59.6051 129.095 59.9957 129.018 60.3692C128.937 60.7428 128.712 61.0696 128.393 61.2776C122.662 65.1107 118.058 70.3955 115.053 76.5933ZM159.82 132.567C161.473 132.562 163.059 133.216 164.22 134.388C164.326 134.485 164.424 134.591 164.517 134.698H167.132V118.796L145.62 118.8V134.702H155.13C155.223 134.587 155.321 134.49 155.419 134.388C156.588 133.22 158.17 132.562 159.823 132.567H159.82ZM165.929 137.554C166.01 137.958 166.048 138.369 166.048 138.781V138.904H169.934V137.554L165.929 137.554ZM165.3 141.757H165.295C164.356 143.48 162.659 144.656 160.717 144.936C158.774 145.216 156.81 144.563 155.419 143.179C154.999 142.759 154.641 142.279 154.357 141.757H141.947C141.662 142.283 141.305 142.759 140.88 143.179C139.711 144.346 138.13 145 136.476 145C134.826 145 133.24 144.346 132.076 143.179C131.65 142.759 131.293 142.283 131.008 141.757H128.33C127.539 141.757 126.902 141.116 126.902 140.331V136.124C126.902 135.746 127.05 135.381 127.318 135.114C127.586 134.846 127.952 134.698 128.33 134.698H128.445V129.23C128.445 128.852 128.589 128.496 128.857 128.228L136.782 118.936H136.778C137.05 118.618 137.445 118.435 137.862 118.435V118.431H142.759V117.366C142.759 116.988 142.912 116.623 143.18 116.355C143.448 116.088 143.809 115.935 144.192 115.935H168.561C168.944 115.935 169.305 116.088 169.573 116.355C169.845 116.623 169.994 116.988 169.994 117.366V134.697H171.358V134.693C171.741 134.693 172.102 134.846 172.37 135.113C172.638 135.381 172.791 135.746 172.791 136.124V140.326C172.791 140.704 172.638 141.069 172.37 141.336C172.102 141.604 171.737 141.757 171.358 141.757L165.3 141.757ZM153.6 138.896V138.773L153.596 138.777C153.596 138.365 153.638 137.953 153.719 137.55H142.581C142.666 137.953 142.704 138.365 142.704 138.777V138.9L153.6 138.896ZM162.205 136.4C160.887 135.092 158.757 135.092 157.439 136.4C157.286 136.557 157.141 136.731 157.018 136.913C156.329 137.945 156.27 139.274 156.856 140.365C157.443 141.455 158.582 142.139 159.824 142.139C161.065 142.139 162.209 141.455 162.796 140.365C163.382 139.274 163.319 137.945 162.63 136.913H162.626C162.502 136.727 162.362 136.557 162.205 136.4ZM136.475 132.567C138.124 132.562 139.71 133.22 140.879 134.388C140.977 134.485 141.075 134.591 141.168 134.702H142.758V121.288H138.52L131.301 129.752V134.702H131.781C131.875 134.587 131.973 134.489 132.071 134.388H132.075C133.24 133.22 134.821 132.567 136.475 132.567ZM130.251 138.904V138.781C130.251 138.369 130.289 137.958 130.374 137.554H129.762V138.9L130.251 138.904ZM138.86 136.404C137.542 135.097 135.412 135.097 134.094 136.404C133.937 136.561 133.797 136.735 133.673 136.918C133.303 137.465 133.108 138.115 133.112 138.773C133.095 139.677 133.439 140.547 134.073 141.192C134.706 141.833 135.574 142.198 136.475 142.198C137.38 142.198 138.248 141.833 138.881 141.192C139.515 140.547 139.859 139.677 139.842 138.773C139.846 138.115 139.651 137.465 139.281 136.918C139.157 136.735 139.017 136.561 138.86 136.404ZM110.01 80.9532C107.557 80.949 105.563 82.9356 105.559 85.3891C105.555 87.8384 107.544 89.8292 110.002 89.8334H110.019C112.476 89.8334 114.465 87.8469 114.465 85.3933C114.465 82.9398 112.476 80.9532 110.019 80.9532H110.01ZM104.84 80.2358C107.642 77.4554 112.153 77.4002 115.018 80.1127C117.888 82.8252 118.075 87.3248 115.448 90.2666C119.35 91.5018 122.007 95.1184 122.02 99.2063V103.481C122.012 106.295 119.729 108.579 116.906 108.592H103.119C100.291 108.583 98.0042 106.3 98 103.481V99.2063C98.0085 95.1143 100.666 91.4976 104.577 90.2666C101.984 87.3843 102.098 82.9781 104.84 80.2358ZM110.018 92.6861H107.395C103.794 92.703 100.878 95.6108 100.865 99.2062V103.481C100.874 104.72 101.877 105.726 103.123 105.735H116.906C118.151 105.726 119.155 104.72 119.159 103.481V99.2062C119.146 95.6108 116.23 92.6988 112.629 92.6861H110.018ZM149.845 86.2423C153.234 86.2465 156.146 88.6364 156.805 91.9559C157.464 95.2754 155.682 98.5949 152.553 99.8896C149.42 101.18 145.811 100.085 143.932 97.2705C142.048 94.4604 142.423 90.7078 144.82 88.318C146.151 86.9851 147.958 86.2381 149.845 86.2423ZM152.851 90.3428H152.855C151.423 88.9081 149.174 88.6831 147.482 89.808C145.794 90.9329 145.135 93.0892 145.913 94.9613C146.687 96.8376 148.676 97.903 150.67 97.5083C152.66 97.1135 154.097 95.3688 154.097 93.3441C154.097 92.2191 153.646 91.1409 152.851 90.3428ZM156.932 84.2556L155.899 84.782L155.223 84.3745L155.228 84.3702C154.785 84.1113 154.326 83.8821 153.854 83.6826C153.382 83.4915 152.894 83.3302 152.4 83.2029L151.635 83.0119L150.934 80.8767H148.753L148.056 83.0119L147.29 83.2029C146.797 83.326 146.308 83.4873 145.836 83.6826C145.365 83.8778 144.905 84.107 144.463 84.3702L143.787 84.7777L141.789 83.759L140.25 85.2957L141.27 87.2907L140.858 87.9656V87.9699C140.595 88.4114 140.365 88.8698 140.169 89.341C139.974 89.8121 139.812 90.3003 139.689 90.7927L139.498 91.5568L137.364 92.2487V94.4263L139.498 95.114L139.689 95.8823C139.812 96.3789 139.974 96.8629 140.169 97.334C140.369 97.8052 140.599 98.2636 140.858 98.7051L141.27 99.38L140.25 101.375L141.789 102.912L143.787 101.893L144.463 102.296V102.301C145.343 102.831 146.3 103.226 147.295 103.476L148.06 103.667L148.757 105.794H150.938L151.631 103.667L152.396 103.476C153.391 103.226 154.343 102.831 155.228 102.301L155.904 101.897L157.902 102.916L159.441 101.379L158.421 99.3843L158.833 98.7093V98.7051C159.092 98.2636 159.322 97.8052 159.522 97.334C159.713 96.8628 159.874 96.3789 159.998 95.8823L160.189 95.114L162.332 94.4178V92.2571L160.198 91.5652L160.006 90.8011C159.879 90.3045 159.717 89.8163 159.526 89.3408C159.326 88.8697 159.097 88.4112 158.837 87.9698L158.425 87.2948L159.445 85.2998L157.906 83.7631L156.932 84.2556ZM155.984 81.5389L158.459 80.2824L162.935 84.7523L161.677 87.2228C161.855 87.5667 162.021 87.9105 162.166 88.2543C162.31 88.5982 162.442 88.9717 162.557 89.3368L165.193 90.1942L165.189 93.3439H165.18L165.189 96.5064L162.553 97.3554C162.438 97.7247 162.306 98.0855 162.162 98.4378C162.017 98.7901 161.855 99.1382 161.673 99.4778L162.931 101.944L158.454 106.414L155.98 105.158C155.64 105.336 155.291 105.497 154.938 105.641C154.586 105.786 154.228 105.917 153.854 106.036L153.004 108.668L146.682 108.664L145.828 106.032C145.462 105.917 145.105 105.786 144.752 105.637C144.399 105.493 144.051 105.332 143.711 105.153L141.236 106.41L136.76 101.94L138.018 99.4736C137.839 99.134 137.678 98.7859 137.529 98.4336C137.38 98.0813 137.253 97.7204 137.138 97.3511L134.502 96.4937V90.1857L137.138 89.3283C137.253 88.9632 137.38 88.6067 137.529 88.2458C137.678 87.885 137.835 87.5539 138.018 87.2143L136.76 84.7438L141.236 80.2739L143.702 81.539C144.046 81.3607 144.391 81.1951 144.735 81.055C145.08 80.915 145.454 80.7791 145.819 80.656L146.674 78.0242H153.004L153.854 80.656C154.224 80.7791 154.586 80.9065 154.938 81.055C155.291 81.2036 155.64 81.3607 155.98 81.539L155.984 81.5389ZM180.749 89.1457H194.141C194.927 89.1457 195.569 89.7867 195.569 90.572V105.85H199.149V86.8794L187.449 81.0002L175.745 86.8794V105.85H179.32V90.572C179.32 89.7867 179.962 89.1457 180.749 89.1457ZM192.707 92.0068H182.177V105.849H192.707V92.0068ZM173.764 84.6843L186.802 78.143C187.206 77.935 187.686 77.935 188.09 78.143L201.218 84.731C201.698 84.9772 201.996 85.4654 202 86.0045V107.28C202 108.065 201.358 108.706 200.572 108.706H174.311C173.52 108.706 172.882 108.065 172.878 107.28V86.0045C172.878 85.423 173.231 84.9051 173.767 84.6844L173.764 84.6843ZM166.12 44.8505L158.922 48.8323V65.9259H166.12V44.8505ZM158.922 45.5764L166.753 41.2423H166.757C167.195 40.9494 167.761 40.9197 168.224 41.1659C168.692 41.4164 168.981 41.9003 168.981 42.4267V67.3533C168.977 68.1428 168.339 68.7795 167.548 68.7795H132.139C131.348 68.7795 130.71 68.1428 130.71 67.3533V42.4267C130.71 41.6414 131.348 41.0004 132.139 41.0004H146.492C147.278 41.0004 147.916 41.6414 147.92 42.4267V46.1028L156.704 41.2465C157.141 40.9494 157.703 40.9239 158.17 41.1701C158.638 41.4163 158.927 41.9045 158.923 42.4309L158.922 45.5764ZM156.057 44.8505L147.911 49.3543L147.915 65.9264H156.061L156.057 44.8505ZM145.05 43.8572H133.567V65.9268H145.059V43.8572H145.05ZM170.78 60.9433C170.134 60.5103 169.955 59.6401 170.376 58.9864C170.801 58.3326 171.673 58.1416 172.332 58.5576C178.241 62.3695 183.088 67.6204 186.413 73.8137C186.783 74.5099 186.519 75.3716 185.826 75.7408C185.133 76.1101 184.27 75.847 183.9 75.155C180.792 69.3905 176.281 64.5046 170.78 60.9433ZM184.159 111.038C184.333 110.698 184.631 110.448 184.992 110.333C185.354 110.218 185.745 110.248 186.081 110.422C186.782 110.783 187.054 111.645 186.693 112.341C183.759 118.003 179.559 122.915 174.424 126.693C174.118 126.918 173.735 127.011 173.361 126.952C172.987 126.892 172.651 126.688 172.43 126.383C171.962 125.75 172.103 124.859 172.736 124.392C175.121 122.639 177.293 120.614 179.219 118.364C181.141 116.119 182.799 113.661 184.155 111.038L184.159 111.038ZM126.362 123.955C126.97 124.439 127.076 125.318 126.605 125.933C126.133 126.549 125.257 126.672 124.632 126.213C122.111 124.282 119.815 122.066 117.8 119.613C115.781 117.168 114.05 114.498 112.643 111.653C112.32 110.953 112.613 110.121 113.306 109.781C114.004 109.438 114.841 109.714 115.202 110.397C116.508 113.046 118.119 115.533 119.994 117.813C121.877 120.097 124.011 122.155 126.358 123.955L126.362 123.955Z" fill="white"></path></svg> 