<?xml version="1.0" encoding="UTF-8"?> <svg xmlns="http://www.w3.org/2000/svg" width="300" height="186" viewBox="0 0 300 186" fill="none"><rect width="300" height="186" fill="#051C2C"></rect><path d="M147.142 56.6388H148.28V55.6326H147.142V56.6388ZM149.758 59.5137H145.713C144.913 59.5137 144.26 58.8668 144.26 58.0763V54.1952C144.26 53.4046 144.913 52.7577 145.713 52.7577H149.758C150.557 52.7577 151.211 53.4046 151.211 54.1952V58.0763C151.187 58.8668 150.533 59.5137 149.758 59.5137ZM133.239 68.5935H161.796V66.8926H133.239V68.5935ZM163.249 71.4684H131.785C130.986 71.4684 130.332 70.8216 130.332 70.031V65.4551C130.332 64.6645 130.986 64.0177 131.785 64.0177H132.27V50.7932C132.27 50.3141 132.512 49.8349 132.972 49.5714L143.678 43.2467C144.768 42.5519 145.979 43.3425 145.979 44.4206V47.0319L152.374 43.2467C152.495 43.1508 152.64 43.079 152.785 43.031V39.4374C152.785 38.6468 153.439 38 154.239 38H160.779C161.578 38 162.232 38.6468 162.232 39.4374V64.0177H163.249C164.048 64.0177 164.702 64.6645 164.702 65.4551V70.031C164.727 70.8216 164.073 71.4684 163.249 71.4684ZM155.716 63.6583H159.349V40.8988H155.716V63.6583ZM139.246 56.6388H140.384V55.6326H139.246V56.6388ZM141.837 59.5137H137.792C136.993 59.5137 136.339 58.8668 136.339 58.0763V54.1952C136.339 53.4046 136.993 52.7577 137.792 52.7577H141.837C142.637 52.7577 143.291 53.4046 143.291 54.1952V58.0763C143.291 58.8668 142.637 59.5137 141.837 59.5137ZM135.201 63.5625H151.792V46.9361L145.277 50.7693C144.308 51.3442 143.097 50.6255 143.097 49.5474V46.9361L135.201 51.6078V63.5625ZM173.616 88.0709C175.045 88.0709 176.401 88.4781 177.516 89.1729C177.637 88.2865 177.806 87.448 178 86.6334C176.183 86.2741 174.439 85.8189 172.792 85.2199C171.945 86.2741 171.194 87.448 170.612 88.6937C171.533 88.3104 172.55 88.0709 173.616 88.0709ZM180.131 91.904C180.543 92.6467 180.81 93.4613 180.931 94.3237H192.121C192.024 91.6884 191.709 89.2448 191.201 87.0886C187.81 87.4959 184.298 87.4959 180.882 87.0886C180.543 88.574 180.277 90.1791 180.131 91.904ZM180.761 97.2226C180.616 97.7496 180.422 98.2288 180.18 98.7079C183.014 99.235 185.266 101.415 185.92 104.17C187.543 104.146 189.626 104.29 191.201 104.482C191.709 102.325 192.024 99.8818 192.121 97.2465H180.761V97.2226ZM177.709 101.439C176.547 102.206 175.142 102.661 173.616 102.661C172.114 102.661 170.709 102.206 169.522 101.439H168.384C165.986 101.439 164.024 103.38 164.024 105.727V110.303C169.595 114.783 177.588 114.783 183.183 110.303V105.751C183.183 103.38 181.221 101.463 178.824 101.463H177.709V101.439ZM176.789 92.2394C173.979 89.4604 169.159 91.4488 169.159 95.3539C169.159 99.2589 173.979 101.247 176.789 98.4683C178.533 96.7674 178.533 93.9644 176.789 92.2394ZM186.114 107.021V110.974C186.114 111.693 185.678 112.004 185.218 112.388C187.471 113.442 189.408 110.016 190.377 107.237C188.997 107.117 187.567 107.021 186.114 107.021ZM181.246 114.879C180.955 115.023 180.664 115.143 180.374 115.262C181.512 115.262 182.215 116.532 181.585 117.49C178.218 122.498 173.689 126.762 168.481 129.852C167.803 130.26 166.907 130.044 166.495 129.349C166.083 128.655 166.301 127.792 167.003 127.385C171.848 124.51 176.062 120.557 179.187 115.909C179.26 115.79 179.356 115.694 179.453 115.622C173.301 117.682 166.519 116.317 161.675 112.076C161.336 111.789 161.19 111.405 161.19 110.998V105.751C161.19 102.541 163.37 99.7381 166.422 98.8517C164.533 86.873 173.882 76.0922 186.09 76.0922C197.087 76.0922 206 84.9085 206 95.7851C205.952 108.65 193.72 117.946 181.246 114.879ZM195.028 94.3477H202.997C202.706 90.9218 201.374 87.7834 199.291 85.2439C197.619 85.8189 195.875 86.298 194.083 86.6574C194.592 88.9573 194.955 91.5686 195.028 94.3477ZM202.997 97.2226H195.028C194.955 99.9777 194.592 102.589 194.083 104.913C195.9 105.272 197.644 105.751 199.291 106.326C201.349 103.787 202.682 100.648 202.997 97.2226ZM178.799 83.8783C179.284 82.4409 179.889 81.0514 180.616 79.8535C178.557 80.5482 176.668 81.6024 175.045 82.9679C176.232 83.3273 177.491 83.6148 178.799 83.8783ZM191.467 79.8295C192.218 81.0514 192.824 82.4409 193.308 83.8544C194.616 83.6148 195.851 83.3033 197.062 82.944C195.415 81.6024 193.526 80.5243 191.467 79.8295ZM193.308 107.692C192.824 109.129 192.218 110.519 191.467 111.717C193.526 111.022 195.439 109.968 197.062 108.602C195.851 108.243 194.592 107.931 193.308 107.692ZM190.377 84.2856C188.488 79.015 185.484 76.4755 182.554 82.2971C182.263 82.8961 181.972 83.5669 181.706 84.2856C184.564 84.597 187.519 84.597 190.377 84.2856ZM103.689 91.5686L103.398 94.0362C103.325 94.8268 102.599 95.3778 101.799 95.306C101 95.2101 100.443 94.5154 100.516 93.7248L100.903 90.2989L97.1246 88.574L98.1176 102.254L111.27 108.267L110.277 94.5873L103.689 91.5686ZM116.356 77.7932C116.696 77.8171 117.01 77.9609 117.253 78.2004L127.983 83.0877L129.339 101.727L113.014 112.22L95.3322 104.146L94 85.5074L110.325 75.0381L116.356 77.7932ZM116.332 80.9555L105.215 89.125L111.536 92.0238L123.599 84.2856L116.332 80.9555ZM102.235 87.7355L113.353 79.566L110.567 78.2963L98.5052 86.0345L102.235 87.7355ZM113.183 94.3716L114.176 108.051L126.336 100.265L125.343 86.5855L113.183 94.3716ZM179.381 70.2705C179.889 70.8934 179.792 71.7799 179.163 72.283C178.533 72.7861 177.637 72.6663 177.128 72.0673C174.633 69.0008 171.606 66.2936 168.263 64.1375C167.609 63.7062 167.415 62.8198 167.827 62.149C168.263 61.4782 169.159 61.2865 169.837 61.7178C173.422 64.0177 176.692 66.9644 179.381 70.2705ZM128.54 60.0408C129.242 59.6574 130.114 59.921 130.502 60.6157C130.889 61.3105 130.623 62.173 129.92 62.5563C124.156 65.6468 119.239 70.2226 115.799 75.7089C115.363 76.3797 114.491 76.5953 113.813 76.1641C113.135 75.7328 112.917 74.8704 113.353 74.1996C117.059 68.306 122.363 63.3708 128.54 60.0408ZM113.644 117.011C113.208 116.341 113.401 115.454 114.08 115.023C114.758 114.592 115.654 114.783 116.09 115.454C118.754 119.575 122.266 123.168 126.336 125.947C126.99 126.403 127.159 127.289 126.699 127.936C126.239 128.583 125.343 128.75 124.689 128.295C120.304 125.301 116.526 121.443 113.644 117.011ZM157.073 145.113C159.543 145.113 160.9 140.945 158.962 138.573C157.121 136.321 154.263 138.19 154.263 141.352C154.263 143.149 155.353 145.113 157.073 145.113ZM161.215 145.928C158.163 149.641 152.785 148.108 151.574 143.173H144.26C143.048 148.108 137.671 149.665 134.619 145.928C133.99 145.161 133.529 144.227 133.263 143.173H130.72C129.92 143.173 129.266 142.526 129.266 141.735V121.755C129.266 120.964 129.92 120.317 130.72 120.317H151.768C152.567 120.317 153.221 120.964 153.221 121.755V124.366H160.318C160.803 124.366 161.287 124.606 161.554 125.061L165.986 132.2C166.156 132.44 166.253 132.727 166.253 133.039V141.735C166.253 142.526 165.599 143.173 164.799 143.173H162.547C162.304 144.203 161.844 145.161 161.215 145.928ZM153.246 136.393C156.588 132.895 161.99 135.099 162.716 140.298H163.37V133.446L159.543 127.241H153.246V136.393ZM138.785 145.113C141.256 145.113 142.612 140.945 140.675 138.573C138.761 136.225 135.782 138.333 136 141.663C136.073 143.316 137.138 145.113 138.785 145.113ZM133.142 140.298C133.893 134.86 139.682 132.799 142.927 136.776C143.702 137.71 144.235 138.956 144.429 140.298H150.363V123.216H132.221V140.298H133.142Z" fill="white"></path></svg> 