<?xml version="1.0" encoding="UTF-8"?> <svg xmlns="http://www.w3.org/2000/svg" width="300" height="186" viewBox="0 0 300 186" fill="none"><rect width="300" height="186" fill="#051C2C"></rect><path fill-rule="evenodd" clip-rule="evenodd" d="M140.353 49.2115L141.326 40.3075C141.392 39.6715 141.945 39.2033 142.577 39.2254L155.629 39.0001C156.244 38.9913 156.761 39.4418 156.845 40.038H156.849L158.132 48.9023C160.904 49.4234 163.588 50.2051 166.165 51.2255C168.787 52.2634 171.281 53.5442 173.624 55.0459L180.636 49.4588C181.132 49.0657 181.844 49.1231 182.268 49.5736L191.632 58.6897C192.088 59.1357 192.119 59.8468 191.716 60.3282L186.353 67.4391C187.918 69.7491 189.271 72.2092 190.377 74.7929C191.464 77.3325 192.318 79.9958 192.915 82.7606L201.806 83.8029C202.452 83.878 202.916 84.4434 202.876 85.0794L203 98.1126C203.004 98.7265 202.549 99.2388 201.952 99.3183L193.083 100.528C192.539 103.298 191.734 105.983 190.695 108.545C189.638 111.146 188.339 113.628 186.813 115.969L192.344 123.027C192.725 123.513 192.672 124.193 192.251 124.617L183.024 133.945C182.591 134.382 181.905 134.422 181.428 134.06L174.314 128.61C172.001 130.151 169.53 131.481 166.93 132.567C164.388 133.631 161.717 134.462 158.941 135.036L157.826 143.922C157.747 144.572 157.168 145.035 156.527 144.982L143.51 145C142.895 145 142.387 144.541 142.312 143.944L141.171 135.062C138.399 134.497 135.724 133.671 133.173 132.616C130.577 131.538 128.101 130.213 125.776 128.676L118.679 134.148C118.193 134.523 117.508 134.47 117.083 134.042L107.829 124.741C107.396 124.303 107.36 123.619 107.732 123.146H107.727L113.236 116.075C111.72 113.756 110.411 111.278 109.341 108.664C108.289 106.098 107.475 103.417 106.927 100.656L98.0534 99.4726C97.4256 99.3931 96.9746 98.8454 97.0011 98.2271L97.0851 85.1543C97.0895 84.5359 97.5538 84.028 98.1507 83.9617V83.9573L107.042 82.8885C107.63 80.1369 108.475 77.4692 109.558 74.9208C110.663 72.3237 112.003 69.8548 113.555 67.5538L108.139 60.4076C107.754 59.8997 107.834 59.1842 108.302 58.7734L117.631 49.6398C118.074 49.2069 118.759 49.1804 119.232 49.5559L126.258 55.1165C128.402 53.734 130.675 52.5327 133.053 51.5389C135.379 50.5584 137.82 49.7812 140.353 49.2115ZM143.068 117.587L149.793 115.003C150.416 114.764 151.115 115.078 151.354 115.701C151.433 115.904 151.451 116.12 151.42 116.319H151.424L151.084 118.465C154.298 118.333 157.424 117.622 160.32 116.394C162.748 115.369 165.016 113.978 167.054 112.26H160.272C159.604 112.26 159.065 111.721 159.065 111.054H159.06L159.051 97.7157C159.051 97.4375 159.144 97.1813 159.303 96.9737L162.681 91.6781C163.04 91.1172 163.787 90.9494 164.348 91.3115C164.508 91.4131 164.636 91.5456 164.729 91.7002L167.138 95.472L169.557 91.6824C169.915 91.1215 170.662 90.9537 171.224 91.3159C171.383 91.4174 171.511 91.5499 171.604 91.7045L174.009 95.4763L176.428 91.6868C176.441 91.6603 176.459 91.6382 176.476 91.6161C176.454 90.1497 176.313 88.6923 176.052 87.2568C175.756 85.6227 175.3 84.0061 174.69 82.4294L168.558 78.6046C167.987 78.2513 167.815 77.5048 168.168 76.9394C168.288 76.7495 168.447 76.6082 168.628 76.511L170.649 75.4378C168.394 72.6331 165.578 70.2923 162.368 68.5919C161.094 67.9161 159.759 67.3419 158.371 66.8783C160.254 68.9232 161.404 71.6572 161.404 74.6648C161.404 75.3318 160.864 75.8706 160.197 75.8706V75.875H139.681C139.014 75.875 138.47 75.3318 138.47 74.6649C138.47 71.6704 139.615 68.9408 141.494 66.8959C140.402 67.2625 139.341 67.6997 138.315 68.1988C135.017 69.8109 132.099 72.0943 129.738 74.8679L129.11 82.0185C129.052 82.6854 128.464 83.18 127.797 83.1227C127.536 83.1006 127.306 82.999 127.12 82.8444L125.511 81.7182C124.777 83.454 124.233 85.2559 123.888 87.0933C123.579 88.7451 123.424 90.4323 123.433 92.1283C123.795 91.9825 124.176 91.8721 124.569 91.797V90.2998C124.569 89.6329 125.113 89.0896 125.78 89.0896C126.448 89.0896 126.992 89.6329 126.992 90.2998V91.797C128.252 92.0399 129.375 92.6583 130.251 93.5283C131.4 94.6722 132.112 96.2489 132.112 97.9891C132.112 98.656 131.568 99.1993 130.9 99.1993C130.233 99.1993 129.689 98.656 129.689 97.9891C129.689 96.9159 129.256 95.9442 128.548 95.2419C127.841 94.5397 126.864 94.1069 125.78 94.1069C124.777 94.1069 123.866 94.4823 123.176 95.0918C123.145 95.1227 123.114 95.1536 123.079 95.1801C123.057 95.2022 123.035 95.2199 123.013 95.2419C122.31 95.9442 121.872 96.9115 121.872 97.9891C121.872 99.0624 122.305 100.034 123.013 100.736C123.72 101.439 124.697 101.871 125.78 101.871C127.523 101.871 129.105 102.578 130.25 103.718C131.4 104.861 132.112 106.438 132.112 108.178C132.112 109.19 131.873 110.148 131.444 110.996C132.987 112.498 134.72 113.819 136.6 114.914C138.616 116.058 140.782 116.973 143.068 117.587ZM150.691 120.899C154.369 120.806 157.942 120.025 161.253 118.624C164.728 117.154 167.907 115.007 170.605 112.264H173.872C173.907 112.269 173.943 112.269 173.978 112.269C174.013 112.269 174.049 112.264 174.084 112.264H180.783C180.818 112.269 180.853 112.269 180.889 112.269C181.556 112.269 182.1 111.726 182.1 111.059L182.105 97.7157H182.1C182.1 97.4948 182.038 97.2696 181.91 97.0664L178.904 92.3538C178.926 90.4944 178.771 88.6438 178.439 86.8197C178.112 85.0044 177.613 83.2289 176.945 81.5197L177.201 74.0953C177.228 73.8612 177.188 73.6138 177.069 73.393C176.755 72.8012 176.021 72.5759 175.428 72.8895L172.829 74.272C170.317 71.0478 167.143 68.3668 163.504 66.4368C160.758 64.9836 157.752 63.959 154.568 63.4511C155.483 62.3823 156.036 60.9998 156.036 59.485C156.036 57.8066 155.355 56.2829 154.254 55.1787C153.149 54.0745 151.628 53.3856 149.948 53.3856C148.268 53.3856 146.747 54.0702 145.641 55.1787C144.54 56.2829 143.86 57.8066 143.86 59.485C143.86 60.9998 144.417 62.3911 145.332 63.4555C142.48 63.9149 139.77 64.7894 137.263 66.0128C133.659 67.775 130.48 70.2528 127.916 73.265L121.107 76.392C120.917 76.4803 120.749 76.6172 120.621 76.7983C120.24 77.346 120.373 78.0968 120.917 78.4811L123.495 80.2832C122.593 82.3193 121.929 84.4481 121.523 86.63C121.08 88.9752 120.93 91.3735 121.076 93.7673C120.072 94.8847 119.462 96.3555 119.462 97.9675C119.462 99.7078 120.174 101.284 121.324 102.428C122.469 103.568 124.052 104.275 125.794 104.275C126.877 104.275 127.854 104.707 128.561 105.414C129.264 106.116 129.702 107.084 129.702 108.161C129.702 109.018 129.428 109.804 128.959 110.445L128.955 110.449V110.453C128.835 110.617 128.703 110.767 128.561 110.908C127.854 111.611 126.877 112.043 125.794 112.043C124.71 112.043 123.733 111.611 123.026 110.908C122.323 110.206 121.885 109.239 121.885 108.161C121.885 107.494 121.341 106.951 120.674 106.951C120.006 106.951 119.462 107.494 119.462 108.161C119.462 109.901 120.174 111.478 121.324 112.622C122.199 113.492 123.326 114.11 124.582 114.353V115.851C124.582 116.517 125.126 117.061 125.794 117.061C126.461 117.061 127.005 116.517 127.005 115.851V114.353C128.124 114.137 129.136 113.625 129.963 112.9C131.603 114.468 133.425 115.842 135.388 116.99C137.55 118.249 139.889 119.238 142.365 119.909L148.259 124.671C148.418 124.799 148.612 124.887 148.829 124.922C149.488 125.028 150.107 124.578 150.213 123.92L150.691 120.899ZM148.701 118.006L145.425 119.265L148.153 121.469L148.701 118.006ZM171.626 77.6514L174.597 79.5019L174.717 76.0084L171.626 77.6514ZM126.882 79.7095L127.182 76.2601L124.025 77.7087L125.63 78.8305C125.688 78.8658 125.745 78.9056 125.798 78.9453L126.882 79.7095ZM170.026 109.849C170.07 109.844 170.11 109.844 170.154 109.849H172.767V102.901H168.394V109.849H170.026ZM152.535 56.879C151.876 56.2165 150.961 55.8058 149.944 55.8058C148.931 55.8058 148.016 56.2165 147.353 56.879C146.689 57.5415 146.278 58.4646 146.278 59.4805C146.278 60.5007 146.689 61.4193 147.353 62.0819C148.011 62.7444 148.931 63.1507 149.944 63.1507C150.956 63.1507 151.871 62.74 152.535 62.0775C153.198 61.415 153.609 60.492 153.609 59.476C153.609 58.4646 153.198 57.546 152.535 56.879ZM156.341 68.2298C154.706 66.5912 152.446 65.5798 149.948 65.5798C147.45 65.5798 145.186 66.5912 143.555 68.2298C142.189 69.6034 141.256 71.4142 140.986 73.4371H158.92C158.645 71.4186 157.712 69.6079 156.341 68.2298ZM161.479 109.849H165.967V101.691C165.967 101.024 166.511 100.481 167.178 100.481H173.978C174.646 100.481 175.19 101.024 175.19 101.691V109.849H179.678V98.0558L177.454 94.571L175.048 98.3428C174.956 98.493 174.827 98.6299 174.668 98.7315C174.107 99.0893 173.359 98.9258 173.001 98.3649L170.583 94.5754L168.177 98.3472C168.085 98.4973 167.956 98.6343 167.797 98.7358C167.236 99.0936 166.489 98.9302 166.13 98.3693L163.712 94.5797L161.488 98.0644L161.479 109.849ZM143.617 41.624L142.666 50.3381H142.662C142.609 50.8504 142.229 51.2877 141.698 51.3937C139.032 51.9325 136.45 52.7363 133.978 53.7699C131.489 54.8122 129.124 56.0887 126.917 57.5683C126.488 57.8951 125.874 57.8995 125.432 57.5506L118.561 52.1092L110.713 59.7943L116.014 66.7859C116.324 67.1967 116.346 67.7708 116.036 68.2125C114.356 70.5975 112.928 73.1592 111.783 75.8577C110.664 78.49 109.811 81.2726 109.254 84.1611C109.174 84.6912 108.754 85.124 108.197 85.1858L99.4957 86.2326L99.425 97.2168L108.029 98.3651C108.577 98.396 109.055 98.8024 109.152 99.3677C109.674 102.296 110.492 105.101 111.579 107.755C112.68 110.449 114.064 113.006 115.691 115.391C116.023 115.82 116.036 116.429 115.687 116.875L110.297 123.796L118.048 131.583L124.981 126.239C125.388 125.916 125.971 125.881 126.422 126.19C128.81 127.842 131.387 129.251 134.107 130.382C136.773 131.49 139.58 132.325 142.481 132.859C142.985 132.952 143.396 133.363 143.462 133.897L144.576 142.589L155.564 142.572L156.651 133.875H156.656C156.718 133.363 157.107 132.93 157.637 132.833C160.542 132.294 163.341 131.446 166.007 130.333C168.717 129.198 171.282 127.785 173.669 126.124C174.089 125.832 174.668 125.828 175.093 126.155L182.057 131.49L189.785 123.677L184.373 116.774C184.06 116.372 184.024 115.798 184.325 115.352C185.952 112.958 187.34 110.374 188.45 107.636C189.533 104.964 190.347 102.155 190.855 99.2395H190.86C190.948 98.736 191.355 98.3209 191.89 98.2502L200.578 97.0665L200.476 86.0823L191.77 85.062C191.258 85.0046 190.82 84.6203 190.718 84.0859C190.152 81.1798 189.286 78.3884 188.154 75.7384C187 73.0442 185.576 70.5047 183.918 68.155C183.586 67.7354 183.564 67.1303 183.9 66.6842L189.18 59.6794L181.305 52.0165L174.443 57.4843C174.041 57.8023 173.466 57.8421 173.019 57.5417C170.601 55.9252 168.005 54.5561 165.273 53.4739C162.611 52.4183 159.808 51.6322 156.899 51.1419C156.377 51.0712 155.939 50.6605 155.864 50.1128L154.609 41.4384L143.617 41.624Z" fill="white"></path></svg> 