<?xml version="1.0" encoding="UTF-8"?> <svg xmlns="http://www.w3.org/2000/svg" width="300" height="186" viewBox="0 0 300 186" fill="none"><rect width="300" height="186" fill="#051C2C"></rect><path d="M164.46 100.444C164.204 100.187 164.264 99.9065 164.325 99.7625C164.384 99.6178 164.54 99.375 164.904 99.375C167.007 99.375 168.719 97.6637 168.719 95.5603V90.4397C168.719 88.3363 167.007 86.625 164.904 86.625C164.54 86.625 164.384 86.3822 164.325 86.2375C164.264 86.0935 164.202 85.8118 164.46 85.5542C165.948 84.0671 165.948 81.6476 164.46 80.1605L160.839 76.538C159.351 75.0509 156.931 75.0547 155.446 76.5388C155.187 76.7987 154.904 76.7349 154.763 76.675C154.618 76.615 154.375 76.4602 154.375 76.096C154.375 73.9925 152.663 72.2812 150.56 72.2812H145.44C143.337 72.2812 141.625 73.9925 141.625 76.096C141.625 76.4602 141.382 76.615 141.237 76.675C141.094 76.7333 140.811 76.7948 140.554 76.5388C139.069 75.0516 136.648 75.0547 135.16 76.5388L131.54 80.1605C130.053 81.6469 130.053 84.0671 131.54 85.5558C131.796 85.8126 131.736 86.0935 131.675 86.2375C131.616 86.3822 131.46 86.625 131.096 86.625C128.993 86.625 127.281 88.3363 127.281 90.4397V95.5603C127.281 97.6637 128.993 99.375 131.096 99.375C131.46 99.375 131.616 99.6178 131.675 99.7625C131.736 99.9065 131.798 100.188 131.54 100.446C130.052 101.933 130.052 104.352 131.54 105.839L135.161 109.462C136.651 110.951 139.071 110.947 140.554 109.461C140.813 109.201 141.096 109.265 141.237 109.325C141.382 109.385 141.625 109.54 141.625 109.904C141.625 112.007 143.337 113.719 145.44 113.719H150.56C152.663 113.719 154.375 112.007 154.375 109.904C154.375 109.54 154.618 109.385 154.763 109.325C154.906 109.265 155.191 109.206 155.446 109.461C156.932 110.95 159.354 110.947 160.84 109.461L164.46 105.839C165.947 104.353 165.947 101.933 164.46 100.444ZM162.207 103.586L158.588 107.207C158.342 107.451 157.945 107.452 157.699 107.206C156.602 106.111 154.968 105.789 153.542 106.38C152.112 106.973 151.188 108.356 151.188 109.904C151.188 110.25 150.906 110.531 150.56 110.531H145.44C145.094 110.531 144.812 110.25 144.812 109.904C144.812 108.356 143.888 106.973 142.458 106.38C141.983 106.183 141.486 106.088 140.995 106.088C140.003 106.088 139.032 106.476 138.301 107.208C138.055 107.452 137.659 107.452 137.413 107.208L133.793 103.586C133.549 103.341 133.549 102.943 133.793 102.699C134.887 101.605 135.213 99.9734 134.62 98.5431C134.028 97.112 132.645 96.1875 131.096 96.1875C130.75 96.1875 130.469 95.9058 130.469 95.5603V90.4397C130.469 90.0942 130.75 89.8125 131.096 89.8125C132.645 89.8125 134.028 88.888 134.62 87.4577C135.213 86.0273 134.889 84.3955 133.793 83.3005C133.549 83.0562 133.549 82.6585 133.793 82.4142L137.412 78.7932C137.658 78.5489 138.055 78.5481 138.301 78.794C139.396 79.8881 141.029 80.2111 142.458 79.6197C143.888 79.0267 144.812 77.6438 144.812 76.096C144.812 75.7505 145.094 75.4688 145.44 75.4688H150.56C150.906 75.4688 151.188 75.7505 151.188 76.096C151.188 77.6438 152.112 79.0275 153.542 79.6197C154.974 80.2111 156.604 79.8858 157.699 78.7924C157.945 78.5481 158.341 78.5481 158.587 78.7924L162.207 82.4142C162.451 82.6585 162.451 83.057 162.207 83.3005C161.113 84.3955 160.787 86.0266 161.38 87.4569C161.972 88.888 163.355 89.8125 164.904 89.8125C165.25 89.8125 165.531 90.0942 165.531 90.4397V95.5603C165.531 95.9058 165.25 96.1875 164.904 96.1875C163.355 96.1875 161.972 97.112 161.38 98.5423C160.787 99.9727 161.111 101.605 162.207 102.699C162.451 102.944 162.451 103.341 162.207 103.586ZM138.438 67.5H157.562C159.32 67.5 160.75 66.0704 160.75 64.3125V45.1875C160.75 43.4296 159.32 42 157.562 42H138.438C136.68 42 135.25 43.4296 135.25 45.1875V64.3125C135.25 66.0704 136.68 67.5 138.438 67.5ZM146.406 45.1875H149.594V49.9688H146.406V45.1875ZM138.438 45.1875H143.219V51.5625C143.219 52.4426 143.932 53.1562 144.812 53.1562H151.188C152.068 53.1562 152.781 52.4426 152.781 51.5625V45.1875H157.562V64.3125H138.438V45.1875ZM195.812 80.25H176.688C174.93 80.25 173.5 81.6796 173.5 83.4375V102.562C173.5 104.32 174.93 105.75 176.688 105.75H195.812C197.57 105.75 199 104.32 199 102.562V83.4375C199 81.6796 197.57 80.25 195.812 80.25ZM184.656 83.4375H187.844V88.2188H184.656V83.4375ZM195.812 102.562H176.688V83.4375H181.469V89.8125C181.469 90.6926 182.182 91.4062 183.062 91.4062H189.438C190.318 91.4062 191.031 90.6926 191.031 89.8125V83.4375H195.812V102.562ZM122.5 102.562V83.4375C122.5 81.6796 121.07 80.25 119.312 80.25H100.188C98.4303 80.25 97 81.6796 97 83.4375V102.562C97 104.32 98.4303 105.75 100.188 105.75H119.312C121.07 105.75 122.5 104.32 122.5 102.562ZM108.156 83.4375H111.344V88.2188H108.156V83.4375ZM100.188 83.4375H104.969V89.8125C104.969 90.6926 105.682 91.4062 106.562 91.4062H112.938C113.818 91.4062 114.531 90.6926 114.531 89.8125V83.4375H119.312V102.562H100.188V83.4375ZM157.562 118.5H138.438C136.68 118.5 135.25 119.93 135.25 121.688V140.812C135.25 142.57 136.68 144 138.438 144H157.562C159.32 144 160.75 142.57 160.75 140.812V121.688C160.75 119.93 159.32 118.5 157.562 118.5ZM146.406 121.688H149.594V126.469H146.406V121.688ZM157.562 140.812H138.438V121.688H143.219V128.062C143.219 128.943 143.932 129.656 144.812 129.656H151.188C152.068 129.656 152.781 128.943 152.781 128.062V121.688H157.562V140.812ZM148 83.4375C142.727 83.4375 138.438 87.7269 138.438 93C138.438 98.2731 142.727 102.562 148 102.562C153.273 102.562 157.562 98.2731 157.562 93C157.562 87.7269 153.273 83.4375 148 83.4375ZM148 99.375C144.484 99.375 141.625 96.5151 141.625 93C141.625 89.4849 144.484 86.625 148 86.625C151.516 86.625 154.375 89.4849 154.375 93C154.375 96.5151 151.516 99.375 148 99.375ZM170.312 61.125C171.019 61.125 171.685 60.9613 172.289 60.6849C175.535 63.2948 178.333 66.3232 180.635 69.7149C180.16 70.4579 179.875 71.3353 179.875 72.2812C179.875 74.9178 182.02 77.0625 184.656 77.0625C187.293 77.0625 189.438 74.9178 189.438 72.2812C189.438 69.6447 187.293 67.5 184.656 67.5C184.129 67.5 183.631 67.6062 183.157 67.7644C180.77 64.2822 177.897 61.1617 174.583 58.4513C174.899 57.8127 175.094 57.1037 175.094 56.3438C175.094 53.7072 172.949 51.5625 170.312 51.5625C167.676 51.5625 165.531 53.7072 165.531 56.3438C165.531 58.9803 167.676 61.125 170.312 61.125ZM184.656 70.6875C185.536 70.6875 186.25 71.4027 186.25 72.2812C186.25 73.1598 185.536 73.875 184.656 73.875C183.777 73.875 183.062 73.1598 183.062 72.2812C183.062 71.4027 183.777 70.6875 184.656 70.6875ZM170.312 54.75C171.192 54.75 171.906 55.4652 171.906 56.3438C171.906 57.2223 171.192 57.9375 170.312 57.9375C169.433 57.9375 168.719 57.2223 168.719 56.3438C168.719 55.4652 169.433 54.75 170.312 54.75ZM111.344 77.0625C113.98 77.0625 116.125 74.9178 116.125 72.2812C116.125 71.3353 115.84 70.4579 115.365 69.7149C117.667 66.3232 120.465 63.2948 123.711 60.6849C124.315 60.9613 124.981 61.125 125.688 61.125C128.324 61.125 130.469 58.9803 130.469 56.3438C130.469 53.7072 128.324 51.5625 125.688 51.5625C123.051 51.5625 120.906 53.7072 120.906 56.3438C120.906 57.1037 121.101 57.8127 121.417 58.4513C118.103 61.1617 115.23 64.2822 112.843 67.7644C112.369 67.6062 111.871 67.5 111.344 67.5C108.707 67.5 106.562 69.6447 106.562 72.2812C106.562 74.9178 108.707 77.0625 111.344 77.0625ZM125.688 54.75C126.567 54.75 127.281 55.4652 127.281 56.3438C127.281 57.2223 126.567 57.9375 125.688 57.9375C124.808 57.9375 124.094 57.2223 124.094 56.3438C124.094 55.4652 124.808 54.75 125.688 54.75ZM111.344 70.6875C112.223 70.6875 112.938 71.4027 112.938 72.2812C112.938 73.1598 112.223 73.875 111.344 73.875C110.464 73.875 109.75 73.1598 109.75 72.2812C109.75 71.4027 110.464 70.6875 111.344 70.6875ZM184.656 110.531C182.02 110.531 179.875 112.676 179.875 115.312C179.875 116.258 180.16 117.136 180.635 117.879C178.333 121.271 175.535 124.299 172.289 126.909C171.685 126.632 171.019 126.469 170.312 126.469C167.676 126.469 165.531 128.613 165.531 131.25C165.531 133.887 167.676 136.031 170.312 136.031C172.949 136.031 175.094 133.887 175.094 131.25C175.094 130.49 174.899 129.781 174.583 129.142C177.897 126.432 180.77 123.312 183.157 119.829C183.631 119.988 184.129 120.094 184.656 120.094C187.293 120.094 189.438 117.949 189.438 115.312C189.438 112.676 187.293 110.531 184.656 110.531ZM170.312 132.844C169.433 132.844 168.719 132.129 168.719 131.25C168.719 130.371 169.433 129.656 170.312 129.656C171.192 129.656 171.906 130.371 171.906 131.25C171.906 132.129 171.192 132.844 170.312 132.844ZM184.656 116.906C183.777 116.906 183.062 116.191 183.062 115.312C183.062 114.434 183.777 113.719 184.656 113.719C185.536 113.719 186.25 114.434 186.25 115.312C186.25 116.191 185.536 116.906 184.656 116.906ZM125.688 126.469C124.981 126.469 124.315 126.632 123.711 126.909C120.465 124.299 117.667 121.271 115.365 117.879C115.84 117.136 116.125 116.258 116.125 115.312C116.125 112.676 113.98 110.531 111.344 110.531C108.707 110.531 106.562 112.676 106.562 115.312C106.562 117.949 108.707 120.094 111.344 120.094C111.871 120.094 112.369 119.988 112.843 119.829C115.23 123.312 118.103 126.432 121.417 129.142C121.101 129.781 120.906 130.49 120.906 131.25C120.906 133.887 123.051 136.031 125.688 136.031C128.324 136.031 130.469 133.887 130.469 131.25C130.469 128.613 128.324 126.469 125.688 126.469ZM111.344 116.906C110.464 116.906 109.75 116.191 109.75 115.312C109.75 114.434 110.464 113.719 111.344 113.719C112.223 113.719 112.938 114.434 112.938 115.312C112.938 116.191 112.223 116.906 111.344 116.906ZM125.688 132.844C124.808 132.844 124.094 132.129 124.094 131.25C124.094 130.371 124.808 129.656 125.688 129.656C126.567 129.656 127.281 130.371 127.281 131.25C127.281 132.129 126.567 132.844 125.688 132.844Z" fill="white"></path></svg> 