<?xml version="1.0" encoding="UTF-8"?> <svg xmlns="http://www.w3.org/2000/svg" width="300" height="186" viewBox="0 0 300 186" fill="none"><rect width="300" height="186" fill="#051C2C"></rect><path d="M115.898 57.8063C124.82 57.4625 124.82 44.5122 115.898 44.1684C106.863 44.3976 106.977 57.4625 115.898 57.8063ZM115.898 46.5751C120.931 46.5751 121.96 53.6805 117.156 55.285C110.637 56.7748 109.15 46.9189 115.898 46.5751ZM206.712 106.284H192.187L198.592 65.8286C198.706 65.2556 198.363 64.6826 197.791 64.4533L169.655 56.2018C169.426 56.2018 169.312 56.2018 169.083 56.2018L139.116 61.4736L129.966 58.8377C135.113 47.1481 128.136 35.3438 115.898 35C107.091 35 100 42.2201 100 50.93C100.343 56.7748 103.889 64.2241 107.091 71.5588L100.458 113.275C100.343 113.848 100.686 114.421 101.258 114.65L129.395 122.902C129.623 122.902 129.738 123.016 129.966 122.902L159.933 117.63L167.253 119.807V145.823C167.253 146.969 168.168 148 169.426 148H206.827C207.971 148 209 147.083 209 145.823V108.347C208.886 107.201 207.971 106.284 206.712 106.284ZM194.589 108.576V125.881L188.984 120.151C188.527 119.693 187.726 119.693 187.269 120.151L181.55 125.881V108.576H194.589ZM140.146 63.6511L167.939 58.8377L163.478 86.8012L159.59 83.2485C160.619 77.6329 152.613 76.8306 151.24 81.8732L135.342 93.9067L140.146 63.6511ZM157.302 82.5609C157.073 84.7383 153.185 85.3114 153.413 82.6755C153.642 80.3834 157.531 79.9249 157.302 82.5609ZM104.575 59.5254C102.745 54.5974 102.402 52.1907 102.402 50.93C102.402 43.4807 108.464 37.2921 115.898 37.2921C123.333 37.2921 129.395 43.3661 129.395 50.93C129.395 52.0761 129.051 54.4828 127.336 59.0669C124.133 67.7769 119.787 76.2576 115.898 83.8215C112.353 77.289 106.977 66.0578 104.575 59.5254ZM128.823 120.151L102.974 112.587L108.921 75.2262C111.094 79.8103 113.496 84.3945 115.898 88.8641C120.13 81.071 125.849 69.8398 129.166 61.0152L137.744 63.5365L132.597 95.6258L119.787 96.6572C118.186 92.646 112.009 94.1359 111.438 98.1471C110.98 103.763 119.101 104.106 120.13 98.9493L132.254 97.9178L128.823 120.151ZM117.843 98.3763C117.614 100.554 113.725 101.127 113.954 98.4909C114.183 96.3134 118.071 95.7404 117.843 98.3763ZM158.903 115.452L131.11 120.266L134.77 97.3448L151.355 84.5091C152.613 87.2596 156.502 87.3742 158.446 85.1968L163.021 89.4371L158.903 115.452ZM169.426 106.284C168.282 106.284 167.253 107.201 167.253 108.461V117.401L161.305 115.567L165.194 90.8124L176.403 96.428C176.289 96.6572 176.174 97.001 176.174 97.2302C175.488 102.96 183.952 103.19 184.752 97.9178C185.439 94.0213 180.52 92.073 177.775 94.4797L165.537 88.4057L170.227 58.8377L196.076 66.4016L189.671 106.169C189.785 106.284 169.426 106.169 169.426 106.284ZM178.576 97.6886C178.805 95.5112 182.694 94.9381 182.465 97.574C182.236 99.7515 178.347 100.325 178.576 97.6886ZM206.598 145.593H169.54C169.54 138.259 169.54 115.452 169.54 108.576H179.148V128.746C179.148 129.205 179.491 129.663 179.834 129.892C180.292 130.122 180.749 130.007 181.092 129.663L187.955 122.787L194.817 129.663C195.161 130.007 195.618 130.122 196.076 129.892C196.533 129.663 196.762 129.319 196.762 128.746V108.576H206.369V145.593H206.598Z" fill="white"></path></svg> 