<?xml version="1.0" encoding="UTF-8"?> <svg xmlns="http://www.w3.org/2000/svg" width="300" height="186" viewBox="0 0 300 186" fill="none"><rect width="300" height="186" fill="#051C2C"></rect><path fill-rule="evenodd" clip-rule="evenodd" d="M191.325 103C193.837 93.6897 193.121 83.8054 189.293 74.9524C185.465 66.0993 178.749 58.7977 170.237 54.2333C170.088 54.1531 169.956 54.0443 169.848 53.913C169.741 53.7818 169.661 53.6308 169.612 53.4687C169.513 53.1411 169.549 52.7879 169.712 52.4868C169.874 52.1856 170.15 51.9612 170.478 51.8629C170.806 51.7646 171.16 51.8004 171.462 51.9625C180.488 56.8013 187.608 64.5432 191.666 73.9303C195.724 83.3173 196.481 93.7978 193.815 103.669C193.743 103.942 193.582 104.184 193.358 104.356C193.134 104.529 192.859 104.623 192.575 104.623C192.458 104.622 192.342 104.606 192.229 104.577C191.9 104.485 191.621 104.268 191.452 103.972C191.283 103.677 191.237 103.327 191.325 102.998V103ZM107.27 91.8472C107.248 98.6699 108.884 105.396 112.037 111.45C112.194 111.754 112.224 112.107 112.121 112.433C112.017 112.759 111.788 113.03 111.484 113.187C111.18 113.344 110.826 113.375 110.499 113.271C110.173 113.168 109.901 112.939 109.743 112.636C104.279 102.075 103.195 89.7948 106.724 78.4435C110.253 67.0922 118.113 57.58 128.608 51.9588C128.909 51.7967 129.263 51.7609 129.592 51.8592C129.92 51.9576 130.196 52.182 130.358 52.4831C130.52 52.7843 130.556 53.1374 130.458 53.465C130.359 53.7925 130.134 54.0676 129.833 54.2297C123.011 57.8748 117.31 63.2992 113.336 69.9243C109.362 76.5493 107.266 84.1264 107.27 91.8472ZM165.6 133.003C165.655 133.163 165.678 133.333 165.668 133.502C165.658 133.671 165.614 133.836 165.54 133.988C165.465 134.141 165.362 134.277 165.234 134.389C165.107 134.501 164.959 134.587 164.799 134.642C160.047 136.273 155.057 137.104 150.032 137.1C149.059 137.1 148.072 137.068 147.103 137.006C146.776 136.966 146.477 136.802 146.267 136.549C146.057 136.296 145.952 135.972 145.973 135.644C145.994 135.316 146.141 135.009 146.382 134.785C146.623 134.561 146.94 134.437 147.27 134.439C148.183 134.497 149.113 134.527 150.032 134.527C154.773 134.529 159.482 133.744 163.964 132.204C164.288 132.093 164.643 132.115 164.95 132.265C165.258 132.415 165.493 132.68 165.605 133.003H165.6ZM139.005 139.26H133.248C132.96 138.1 132.292 137.07 131.349 136.333C130.406 135.597 129.243 135.196 128.045 135.196C126.848 135.196 125.685 135.597 124.742 136.333C123.799 137.07 123.131 138.1 122.843 139.26H112.149V120.356C112.15 120.28 112.181 120.208 112.234 120.154C112.288 120.101 112.36 120.071 112.436 120.07H138.72C138.795 120.071 138.867 120.101 138.92 120.155C138.974 120.208 139.004 120.28 139.005 120.356V139.26ZM128.039 143.317C128.589 143.318 129.126 143.155 129.582 142.851C130.039 142.547 130.395 142.114 130.606 141.608C130.816 141.101 130.871 140.544 130.764 140.006C130.657 139.469 130.392 138.975 130.004 138.587C129.616 138.2 129.121 137.936 128.582 137.829C128.043 137.722 127.485 137.777 126.977 137.987C126.47 138.197 126.036 138.552 125.731 139.008C125.426 139.464 125.263 140 125.263 140.548C125.264 141.282 125.557 141.986 126.078 142.505C126.598 143.024 127.303 143.317 128.039 143.317ZM109.562 139.26H108.827C108.54 138.1 107.871 137.07 106.928 136.333C105.985 135.597 104.822 135.196 103.625 135.196C102.427 135.196 101.264 135.597 100.322 136.333C99.3786 137.07 98.7101 138.1 98.4225 139.26H97.5871V131.853H104.834C105.594 131.852 106.323 131.551 106.861 131.014C107.398 130.478 107.701 129.75 107.701 128.992V123.835H109.562V139.26ZM103.626 143.317C104.175 143.318 104.712 143.155 105.169 142.851C105.626 142.547 105.982 142.114 106.193 141.608C106.403 141.101 106.458 140.544 106.351 140.006C106.244 139.469 105.979 138.975 105.591 138.587C105.202 138.2 104.708 137.936 104.169 137.829C103.63 137.722 103.072 137.777 102.564 137.987C102.057 138.197 101.623 138.552 101.318 139.008C101.013 139.464 100.85 140 100.85 140.548C100.851 141.282 101.144 141.986 101.664 142.505C102.185 143.024 102.89 143.317 103.626 143.317ZM102.536 123.835L97.6373 129.278H104.834C104.909 129.277 104.981 129.248 105.035 129.194C105.088 129.141 105.119 129.069 105.119 128.994V123.835H102.536ZM138.72 117.487H112.433C111.671 117.488 110.941 117.79 110.403 118.328C109.864 118.866 109.562 119.595 109.562 120.356V121.262H102.429C102.1 121.261 101.774 121.329 101.473 121.463C101.172 121.597 100.903 121.792 100.684 122.037L95.6015 127.682C95.2117 128.109 94.997 128.666 95 129.244V140.548C95 140.89 95.1362 141.218 95.3785 141.46C95.6209 141.702 95.9496 141.837 96.2923 141.837H98.4299C98.7183 142.996 99.3873 144.026 100.33 144.761C101.273 145.497 102.435 145.897 103.632 145.897C104.829 145.897 105.992 145.497 106.934 144.761C107.877 144.026 108.546 142.996 108.835 141.837H122.837C123.125 142.996 123.794 144.026 124.737 144.761C125.68 145.497 126.842 145.897 128.039 145.897C129.236 145.897 130.399 145.497 131.341 144.761C132.284 144.026 132.953 142.996 133.242 141.837H139.244C139.865 141.836 140.461 141.589 140.9 141.151C141.34 140.712 141.587 140.118 141.588 139.498V120.356C141.587 119.596 141.285 118.869 140.747 118.332C140.209 117.795 139.479 117.493 138.718 117.492L138.72 117.487ZM188.778 143.479V127.771L202.415 119.917V135.625L188.778 143.479ZM172.561 119.917L186.193 127.771V143.479L172.561 135.625V119.917ZM187.483 109.83L173.853 117.685L187.483 125.539L201.123 117.685L187.483 109.83ZM204.347 116.567L188.131 107.226C187.935 107.113 187.712 107.053 187.485 107.053C187.258 107.053 187.035 107.113 186.839 107.226L170.624 116.567C170.428 116.68 170.265 116.843 170.151 117.04C170.038 117.236 169.978 117.458 169.978 117.685V136.367C169.978 136.593 170.038 136.815 170.151 137.011C170.265 137.206 170.428 137.369 170.624 137.481L186.839 146.829C187.036 146.941 187.258 147 187.485 147C187.712 147 187.934 146.941 188.131 146.829L204.347 137.485C204.546 137.373 204.711 137.211 204.826 137.014C204.941 136.818 205.001 136.594 205 136.367V117.685C205 117.458 204.94 117.235 204.826 117.038C204.712 116.842 204.547 116.679 204.35 116.567H204.347ZM162.684 52.202C162.687 54.4293 162.095 56.6172 160.969 58.5405C160.271 55.8229 158.574 53.4669 156.215 51.9404C156.648 50.9219 156.821 49.8122 156.719 48.7106C156.617 47.609 156.244 46.5498 155.631 45.6274C155.019 44.7051 154.187 43.9484 153.211 43.4249C152.234 42.9014 151.142 42.6274 150.034 42.6274C148.925 42.6274 147.833 42.9014 146.857 43.4249C145.88 43.9484 145.048 44.7051 144.436 45.6274C143.824 46.5498 143.45 47.609 143.348 48.7106C143.246 49.8122 143.419 50.9219 143.852 51.9404C141.494 53.4677 139.798 55.8235 139.099 58.5405C138.123 56.8651 137.547 54.988 137.415 53.0547C137.283 51.1213 137.599 49.1836 138.338 47.3917C139.078 45.5997 140.221 44.0018 141.679 42.7216C143.137 41.4414 144.87 40.5133 146.746 40.0093C148.621 39.5054 150.587 39.439 152.493 39.8154C154.398 40.1918 156.191 41.0009 157.732 42.1799C159.273 43.3589 160.522 44.8762 161.381 46.6142C162.24 48.3522 162.685 50.2642 162.684 52.202ZM150.032 53.4536C150.849 53.4538 151.648 53.2123 152.327 52.7595C153.007 52.3067 153.536 51.6631 153.849 50.91C154.162 50.1568 154.244 49.3281 154.084 48.5285C153.925 47.7289 153.532 46.9945 152.954 46.418C152.376 45.8416 151.64 45.449 150.839 45.29C150.037 45.131 149.207 45.2128 148.452 45.5248C147.697 45.8369 147.052 46.3654 146.598 47.0433C146.144 47.7212 145.902 48.5182 145.903 49.3334C145.904 50.4258 146.339 51.473 147.113 52.2454C147.888 53.0178 148.937 53.4523 150.032 53.4536ZM141.325 61.3467C143.672 63.5803 146.79 64.8265 150.034 64.8265C153.277 64.8265 156.396 63.5803 158.742 61.3467C158.742 59.9002 158.377 58.477 157.682 57.2076C156.987 55.9383 155.984 54.8635 154.764 54.0818C153.508 55.3311 151.807 56.0327 150.034 56.0327C148.26 56.0327 146.559 55.3311 145.304 54.0818C144.083 54.8629 143.079 55.9376 142.384 57.2071C141.689 58.4765 141.325 59.9 141.325 61.3467ZM134.796 52.202C134.796 55.209 135.689 58.1486 137.363 60.6489C139.038 63.1493 141.417 65.0981 144.202 66.2489C146.986 67.3998 150.05 67.701 153.005 67.1144C155.961 66.5278 158.676 65.0798 160.807 62.9535C162.938 60.8272 164.39 58.1182 164.977 55.1689C165.565 52.2197 165.263 49.1627 164.11 46.3846C162.957 43.6066 161.004 41.2322 158.498 39.5617C155.992 37.8912 153.046 36.9998 150.032 37C145.992 37.0045 142.12 38.6076 139.264 41.4576C136.407 44.3075 134.801 48.1716 134.796 52.202ZM150.032 101.962C148.543 101.962 147.087 101.521 145.849 100.696C144.61 99.87 143.645 98.6966 143.075 97.3237C142.505 95.9508 142.356 94.4402 142.647 92.9828C142.937 91.5253 143.654 90.1865 144.707 89.1356C145.76 88.0847 147.101 87.3689 148.562 87.0787C150.023 86.7884 151.537 86.9368 152.913 87.505C154.289 88.0732 155.465 89.0357 156.293 90.2709C157.121 91.5061 157.563 92.9585 157.564 94.4445C157.562 96.437 156.767 98.3473 155.355 99.7562C153.943 101.165 152.029 101.958 150.032 101.96V101.962ZM150.032 84.355C148.031 84.3553 146.075 84.9475 144.412 86.0569C142.748 87.1662 141.452 88.7428 140.687 90.5874C139.921 92.4319 139.722 94.4614 140.112 96.4193C140.503 98.3772 141.467 100.175 142.882 101.587C144.297 102.998 146.1 103.959 148.062 104.348C150.025 104.737 152.059 104.536 153.907 103.772C155.755 103.007 157.335 101.713 158.446 100.053C159.557 98.3925 160.149 96.4408 160.149 94.4445C160.146 91.7683 159.079 89.2025 157.183 87.3104C155.286 85.4183 152.714 84.3545 150.032 84.3526V84.355ZM162.289 110.779L166.401 106.675L163.634 102.912C163.49 102.717 163.404 102.485 163.386 102.244C163.369 102.002 163.42 101.761 163.533 101.547C163.973 100.717 164.334 99.8477 164.612 98.9508C164.684 98.7197 164.819 98.5132 165.002 98.3552C165.186 98.1972 165.41 98.094 165.65 98.0574L170.273 97.3485V91.5466L165.65 90.8377C165.41 90.8011 165.186 90.6978 165.002 90.5398C164.819 90.3818 164.684 90.1754 164.612 89.9442C164.335 89.0467 163.974 88.1771 163.533 87.347C163.42 87.1329 163.37 86.8914 163.387 86.65C163.405 86.4087 163.49 86.1771 163.634 85.9818L166.401 82.2222L162.289 78.1156L158.517 80.8778C158.321 81.021 158.089 81.1063 157.847 81.124C157.605 81.1418 157.363 81.0911 157.149 80.978C156.317 80.5388 155.445 80.1779 154.546 79.9C154.314 79.8287 154.107 79.6938 153.949 79.5107C153.79 79.3277 153.686 79.1039 153.649 78.8648L152.94 74.2521H147.126L146.415 78.8648C146.378 79.1039 146.275 79.3279 146.116 79.511C145.958 79.6941 145.751 79.829 145.519 79.9C144.62 80.1786 143.749 80.5395 142.916 80.978C142.702 81.0911 142.46 81.1418 142.218 81.124C141.976 81.1063 141.744 81.021 141.548 80.8778L137.775 78.1156L133.663 82.2222L136.433 85.9842C136.576 86.1798 136.661 86.4115 136.679 86.653C136.697 86.8945 136.647 87.1362 136.534 87.3507C136.094 88.1806 135.732 89.0497 135.454 89.9467C135.383 90.1784 135.247 90.3853 135.063 90.5434C134.879 90.7015 134.654 90.8044 134.414 90.8401L129.788 91.5466V97.3485L134.41 98.0574C134.65 98.0939 134.875 98.1971 135.058 98.3551C135.242 98.5131 135.377 98.7196 135.449 98.9508C135.727 99.8479 136.09 100.717 136.531 101.547C136.643 101.762 136.693 102.003 136.675 102.245C136.657 102.487 136.572 102.719 136.429 102.914L133.659 106.675L137.773 110.779L141.545 108.018C141.741 107.875 141.973 107.79 142.215 107.772C142.457 107.754 142.699 107.804 142.914 107.917C143.745 108.356 144.616 108.717 145.515 108.994C145.747 109.065 145.954 109.201 146.112 109.384C146.271 109.567 146.374 109.791 146.411 110.03L147.123 114.642H152.94L153.648 110.03C153.685 109.791 153.789 109.567 153.948 109.384C154.106 109.201 154.313 109.066 154.545 108.994C155.444 108.718 156.316 108.357 157.148 107.917C157.362 107.804 157.605 107.754 157.847 107.772C158.089 107.79 158.321 107.875 158.517 108.018L162.287 110.779H162.289ZM166.184 102.02C166.42 101.52 166.634 101.007 166.821 100.486L171 99.8467C171.518 99.7694 171.991 99.5086 172.332 99.112C172.673 98.7153 172.859 98.2095 172.856 97.687V91.2092C172.859 90.6868 172.673 90.1809 172.332 89.7843C171.991 89.3877 171.518 89.1268 171 89.0496L166.821 88.4104C166.633 87.8881 166.421 87.3759 166.184 86.874L168.685 83.4738C168.997 83.0537 169.147 82.5355 169.107 82.0142C169.067 81.493 168.84 81.0036 168.467 80.6358L163.875 76.0549C163.507 75.6835 163.017 75.4571 162.494 75.4173C161.972 75.3776 161.453 75.5272 161.033 75.8386L157.623 78.3344C157.121 78.0985 156.606 77.8858 156.084 77.6988L155.444 73.5273C155.366 73.0105 155.105 72.5388 154.708 72.1987C154.31 71.8586 153.803 71.6729 153.279 71.6757H146.787C146.264 71.673 145.757 71.8589 145.36 72.199C144.963 72.5392 144.703 73.0108 144.626 73.5273L143.982 77.7C143.458 77.887 142.947 78.0997 142.442 78.3356L139.034 75.8398C138.613 75.5285 138.094 75.3789 137.572 75.4187C137.049 75.4584 136.559 75.6847 136.19 76.0561L131.599 80.6334C131.227 81.0012 131 81.4906 130.96 82.0118C130.92 82.533 131.069 83.0512 131.381 83.4714L133.882 86.8728C133.647 87.3739 133.434 87.8872 133.245 88.4079L129.064 89.0471C128.547 89.1244 128.074 89.3852 127.733 89.7818C127.392 90.1784 127.205 90.6842 127.207 91.2068V97.6846C127.205 98.2077 127.391 98.7143 127.732 99.1115C128.074 99.5086 128.547 99.7696 129.066 99.8467L133.243 100.486C133.434 101.009 133.647 101.52 133.882 102.023L131.381 105.422C131.069 105.842 130.919 106.36 130.96 106.881C131 107.403 131.227 107.892 131.599 108.259L136.19 112.841C136.558 113.212 137.048 113.438 137.57 113.478C138.092 113.518 138.611 113.369 139.032 113.059L142.442 110.562C142.947 110.797 143.458 111.012 143.982 111.199L144.624 115.369C144.7 115.885 144.961 116.357 145.358 116.697C145.755 117.037 146.261 117.223 146.785 117.221H153.277C153.8 117.223 154.308 117.038 154.705 116.698C155.103 116.357 155.364 115.886 155.441 115.369L156.082 111.199C156.606 111.012 157.118 110.799 157.623 110.562L161.031 113.059C161.451 113.37 161.97 113.519 162.492 113.479C163.014 113.439 163.504 113.213 163.872 112.841L168.467 108.256C168.84 107.888 169.067 107.399 169.107 106.878C169.147 106.357 168.997 105.839 168.685 105.419L166.184 102.02Z" fill="white"></path></svg> 