<?xml version="1.0" encoding="UTF-8"?> <svg xmlns="http://www.w3.org/2000/svg" width="300" height="186" viewBox="0 0 300 186" fill="none"><rect width="300" height="186" fill="#051C2C"></rect><path d="M140.091 83.7948H129.17C127.964 83.7948 126.983 84.7754 126.983 85.9819V91.7071C126.983 92.9135 127.964 93.8942 129.17 93.8942H140.091C141.297 93.8942 142.277 92.9135 142.277 91.7071V85.9819C142.277 84.7754 141.297 83.7948 140.091 83.7948ZM138.953 90.5677H130.309V87.1213H138.953V90.5677ZM201.342 106.653H198.216C197.654 104.483 196.797 102.414 195.658 100.48L197.871 98.2672C198.52 97.6181 198.52 96.5645 197.871 95.9155L193.815 91.8588V53.5448C193.815 49.9361 190.879 47 187.271 47H103.544C99.9356 47 97 49.9361 97 53.5448V112.307C97 115.916 99.9356 118.852 103.544 118.852H124.898L120.395 126.579C119.953 127.338 119.947 128.242 120.38 128.996C120.814 129.752 121.621 130.221 122.487 130.221H152.285L157.927 135.864C158.577 136.513 159.63 136.513 160.279 135.864L162.49 133.651C164.425 134.791 166.492 135.649 168.662 136.211V139.337C168.662 140.256 169.406 141 170.324 141H179.196C180.114 141 180.858 140.256 180.858 139.337V136.211C183.028 135.649 185.096 134.791 187.03 133.652L189.242 135.864C189.892 136.513 190.944 136.514 191.593 135.864L197.866 129.59C198.515 128.939 198.515 127.887 197.866 127.238L195.653 125.025C196.794 123.089 197.651 121.022 198.212 118.852H201.338C202.256 118.852 203 118.107 203 117.189V108.316C203.005 107.398 202.26 106.653 201.342 106.653ZM103.544 50.3265H187.27C189.044 50.3265 190.488 51.7704 190.488 53.5448V89.1578C190.465 89.1567 190.443 89.1543 190.421 89.1543C189.98 89.1543 189.557 89.3295 189.245 89.6411L187.032 91.8541C185.097 90.7135 183.031 89.8563 180.86 89.2942V86.1676C180.86 85.2493 180.116 84.505 179.198 84.505H171.99V60.0061C171.99 57.5897 170.025 55.6225 167.607 55.6225H123.206C120.789 55.6225 118.823 57.5886 118.823 60.0061V97.671C118.823 100.089 120.789 102.055 123.206 102.055H153.018C152.292 103.524 151.72 105.06 151.308 106.652H148.182C147.624 106.652 147.13 106.928 146.829 107.351H100.326V53.5436C100.326 51.7704 101.768 50.3265 103.544 50.3265ZM151.655 98.2672L152.117 98.7293H123.206C122.634 98.7293 122.149 98.2448 122.149 97.6722V60.0061C122.149 59.4335 122.634 58.949 123.206 58.949H135.685V67.9607C135.685 69.0802 136.313 70.0738 137.324 70.5523C137.72 70.7393 138.139 70.831 138.555 70.831C139.202 70.831 139.84 70.6088 140.367 70.1772L145.407 66.0441L150.447 70.1772C151.312 70.8874 152.477 71.0309 153.489 70.5523C154.5 70.0738 155.128 69.0813 155.128 67.9607V58.949H167.607C168.18 58.949 168.664 59.4335 168.664 60.0061V89.2942C166.494 89.8563 164.426 90.7135 162.492 91.8529L160.28 89.6411C159.631 88.992 158.577 88.992 157.928 89.6411L151.655 95.9143C151.006 96.5645 151.006 97.6169 151.655 98.2672ZM139.011 58.949H151.802V66.9871L147.223 63.2326C146.171 62.3696 144.644 62.3696 143.59 63.2326L139.011 66.9871V58.949ZM100.326 112.307V110.678H146.52V115.525H103.544C101.768 115.525 100.326 114.081 100.326 112.307ZM151.999 126.894H124.061L128.747 118.852H151.308C151.87 121.022 152.727 123.091 153.867 125.025L151.999 126.894ZM199.679 115.525H196.89C196.097 115.525 195.415 116.085 195.26 116.863C194.726 119.543 193.683 122.059 192.161 124.341C191.721 125 191.807 125.879 192.368 126.439L194.34 128.412L190.419 132.334L188.447 130.361C187.886 129.8 187.008 129.713 186.348 130.154C184.069 131.675 181.553 132.718 178.872 133.253C178.095 133.409 177.535 134.092 177.535 134.884V137.672H171.989V134.884C171.989 134.091 171.429 133.409 170.651 133.253C167.971 132.72 165.455 131.677 163.175 130.154C162.516 129.713 161.638 129.801 161.077 130.361L159.104 132.334L155.183 128.412L157.156 126.439C157.717 125.879 157.804 125 157.363 124.341C155.842 122.061 154.799 119.544 154.264 116.863C154.109 116.086 153.426 115.525 152.633 115.525H149.846V109.98H152.633C153.427 109.98 154.109 109.42 154.264 108.642C154.798 105.961 155.841 103.446 157.363 101.164C157.803 100.505 157.717 99.6264 157.156 99.0656L155.183 97.0925L159.104 93.171L161.077 95.1441C161.638 95.705 162.516 95.792 163.175 95.3511C165.455 93.8295 167.97 92.7865 170.651 92.2515C171.428 92.0963 171.989 91.4131 171.989 90.6206V87.8315H177.535V90.6206C177.535 91.4143 178.094 92.0963 178.872 92.2515C181.553 92.7853 184.068 93.8283 186.348 95.3511C187.008 95.792 187.886 95.7038 188.447 95.1441L190.419 93.171L194.34 97.0925L192.368 99.0656C191.807 99.6264 191.72 100.505 192.161 101.164C193.682 103.444 194.725 105.961 195.26 108.642C195.415 109.42 196.098 109.98 196.89 109.98H199.679V115.525ZM174.762 96.2518C165.665 96.2518 158.265 103.654 158.265 112.752C158.265 121.85 165.665 129.252 174.762 129.252C183.859 129.252 191.26 121.85 191.26 112.752C191.26 103.654 183.859 96.2518 174.762 96.2518ZM174.762 125.926C167.499 125.926 161.591 120.016 161.591 112.751C161.591 105.487 167.499 99.5771 174.762 99.5771C182.025 99.5771 187.934 105.487 187.934 112.751C187.934 120.016 182.025 125.926 174.762 125.926ZM170.354 109.393L166.995 112.751L170.354 116.111C171.003 116.76 171.003 117.813 170.354 118.462C170.029 118.787 169.604 118.949 169.178 118.949C168.753 118.949 168.327 118.787 168.002 118.462L163.468 113.927C162.819 113.278 162.819 112.225 163.468 111.575L168.002 107.04C168.653 106.391 169.705 106.391 170.354 107.04C171.003 107.69 171.003 108.744 170.354 109.393ZM181.522 107.041L186.057 111.577C186.368 111.888 186.543 112.312 186.543 112.752C186.543 113.193 186.368 113.617 186.057 113.928L181.522 118.464C181.198 118.788 180.772 118.95 180.347 118.95C179.921 118.95 179.495 118.788 179.171 118.464C178.522 117.815 178.522 116.761 179.171 116.112L182.53 112.752L179.171 109.394C178.521 108.745 178.521 107.692 179.171 107.043C179.821 106.392 180.873 106.392 181.522 107.041ZM177.947 107.291L174.789 119.075C174.591 119.818 173.918 120.309 173.185 120.309C173.042 120.309 172.898 120.29 172.753 120.251C171.866 120.013 171.34 119.101 171.578 118.214L174.735 106.43C174.973 105.542 175.885 105.017 176.772 105.254C177.658 105.492 178.185 106.403 177.947 107.291Z" fill="white"></path></svg> 