<?xml version="1.0" encoding="UTF-8"?> <svg xmlns="http://www.w3.org/2000/svg" width="300" height="186" viewBox="0 0 300 186"><g id="Group_30" data-name="Group 30" transform="translate(-1038 -3463)"><rect id="Rectangle_4" data-name="Rectangle 4" width="300" height="186" transform="translate(1038 3463)" fill="#051c2c"></rect><path id="Union_30" data-name="Union 30" d="M72.243,106.887v-8.66a2.113,2.113,0,1,1,4.226,0v8.66a2.113,2.113,0,1,1-4.226,0Zm-9.928,0v-8.66a2.113,2.113,0,0,1,4.226,0v8.66a2.113,2.113,0,1,1-4.226,0Zm-9.928,0v-8.66a2.113,2.113,0,1,1,4.226,0v8.66a2.113,2.113,0,1,1-4.226,0Zm-9.928,0v-8.66a2.113,2.113,0,0,1,4.226,0v8.66a2.113,2.113,0,1,1-4.226,0Zm-9.928,0v-8.66a2.115,2.115,0,0,1,2.113-2.113,2,2,0,0,1,2.113,2.113v8.66a2.113,2.113,0,1,1-4.226,0Zm-1.69-17.109a1.908,1.908,0,0,1-1.479-.634L20.067,79.85a1.918,1.918,0,0,1-.634-1.479v-47.1a1.918,1.918,0,0,1,.634-1.479l9.294-9.294a1.918,1.918,0,0,1,1.479-.634H78.368a1.914,1.914,0,0,1,1.479.634l9.294,9.294a1.918,1.918,0,0,1,.634,1.479v47.1a1.9,1.9,0,0,1-.634,1.479l-9.294,9.294a1.908,1.908,0,0,1-1.479.634ZM23.659,32.112V77.526l8.026,8.026h45.84l8.026-8.026V32.112l-8.026-8.029H31.686Zm74.353,44.78a2.113,2.113,0,1,1,0-4.226h8.663a2,2,0,0,1,2.113,2.113,2.115,2.115,0,0,1-2.113,2.113Zm-95.9,0a2.113,2.113,0,1,1,0-4.226h8.66a2,2,0,0,1,2.113,2.113,2.115,2.115,0,0,1-2.113,2.113Zm45.777-7.2,9.669-31.5,4.04,1.239-9.669,31.5Zm50.123-2.725a2.113,2.113,0,0,1,0-4.226h8.663a2,2,0,0,1,2.113,2.113,2.115,2.115,0,0,1-2.113,2.113ZM64.428,64.005l9.083-9.083-9.083-9.294,2.958-2.958L79.424,54.923,67.386,66.964ZM2.113,66.964a2.113,2.113,0,0,1,0-4.226h8.66a2,2,0,0,1,2.113,2.113,2.115,2.115,0,0,1-2.113,2.113ZM28.519,54.923,40.557,42.67l2.958,2.958-9.083,9.294,9.083,9.083L40.557,66.96Zm69.493,2.113a2.113,2.113,0,0,1,0-4.226h8.663a2,2,0,0,1,2.113,2.113,2.115,2.115,0,0,1-2.113,2.113Zm-95.9,0a2.113,2.113,0,0,1,0-4.226h8.66a2,2,0,0,1,2.113,2.113,2.115,2.115,0,0,1-2.113,2.113Zm95.9-9.928a2.113,2.113,0,0,1,0-4.226h8.663a2,2,0,0,1,2.113,2.113,2.115,2.115,0,0,1-2.113,2.113Zm-95.9,0a2.113,2.113,0,0,1,0-4.226h8.66a2,2,0,0,1,2.113,2.113,2.115,2.115,0,0,1-2.113,2.113Zm0-9.928a2.113,2.113,0,1,1,0-4.226h8.66a2,2,0,0,1,2.113,2.113,2.115,2.115,0,0,1-2.113,2.113Zm96.111-.211a2,2,0,0,1-2.113-2.113,2.117,2.117,0,0,1,2.113-2.113h8.663a2.113,2.113,0,1,1,0,4.226Zm-25.981-26.2V2.113a2.113,2.113,0,1,1,4.226,0v8.66a2.115,2.115,0,0,1-2.113,2.113A2,2,0,0,1,72.243,10.773Zm-9.928,0V2.113a2.113,2.113,0,0,1,4.226,0v8.66a2.113,2.113,0,0,1-4.226,0Zm-9.928,0V2.113a2.113,2.113,0,1,1,4.226,0v8.66a2.113,2.113,0,1,1-4.226,0Zm-9.928,0V2.113a2.113,2.113,0,0,1,4.226,0v8.66a2.113,2.113,0,0,1-4.226,0Zm-9.928,0V2.113a2.113,2.113,0,1,1,4.226,0v8.66a2.113,2.113,0,0,1-4.226,0Z" transform="translate(1134 3502)" fill="#fff"></path></g></svg> 