<?xml version="1.0" encoding="UTF-8"?> <svg xmlns="http://www.w3.org/2000/svg" width="300" height="186" viewBox="0 0 300 186"><g id="Group_29" data-name="Group 29" transform="translate(-632 -3463)"><rect id="Rectangle_2" data-name="Rectangle 2" width="300" height="186" transform="translate(632 3463)" fill="#051c2c"></rect><path id="Union_27" data-name="Union 27" d="M0,109V51.937L19.232,32.7h9.833V20.738l-3.633-3.633v-6.2h3.633V.006H41.78v10.9h3.635v6.2L41.78,20.738V32.7h9.083V16.355H65.4V32.7h5.449V23.621H85.379V32.7H89.76l19.234,19.232V109ZM98.093,76.3v29.065h7.266V54.5H39.964V78.119H41.78A1.822,1.822,0,0,0,43.6,76.3V69.036a5.449,5.449,0,1,1,10.9,0V76.3A12.724,12.724,0,0,1,41.78,89.018H39.964v16.349h21.8V76.3ZM81.744,105.367H94.46V79.935H81.744Zm-16.349,0H78.111V79.935H65.395ZM23.615,90.833v14.534H36.331V89.018h-10.9A1.822,1.822,0,0,0,23.615,90.833Zm-7.266,0v14.534h3.633V90.833a5.466,5.466,0,0,1,5.449-5.449H41.78A9.081,9.081,0,0,0,50.863,76.3V69.036a1.816,1.816,0,1,0-3.633,0V76.3a5.466,5.466,0,0,1-5.45,5.45H25.431A9.078,9.078,0,0,0,16.349,90.833ZM3.633,53.436v51.931h9.083V90.833A12.722,12.722,0,0,1,25.431,78.119h10.9V53.436L19.982,37.087ZM38.9,50.869h63.9L88.262,36.337H85.377v10.9H81.744V27.254H74.478V47.236H70.845v-10.9h-5.45v10.9H61.762V19.988H54.5V47.236H50.863v-10.9h-26.5ZM32.7,32.7h5.449v-10.9H32.7Zm-3.633-17.1,2.565,2.567h7.584l2.565-2.567V14.54H29.065Zm3.633-4.7h5.449V3.639H32.7ZM90.827,72.669V69.036h7.266v3.633Zm-14.532,0V69.036h7.266v3.633Zm-14.534,0V69.036H69.03v3.633ZM12.716,61.77V50.121l7.266-7.268,7.266,7.268V61.77Zm3.633-10.151v6.516h7.266V51.619l-3.633-3.633ZM75.136,19.24l-2.565-2.567a7.251,7.251,0,0,1,10.264,0L80.269,19.24A3.647,3.647,0,0,0,75.136,19.24Zm-5.131-5.155L67.44,11.518a14.528,14.528,0,0,1,20.55,0l-2.565,2.567A10.922,10.922,0,0,0,70.005,14.085ZM77.7,3.639A18.094,18.094,0,0,0,64.85,8.952L62.284,6.387a21.8,21.8,0,0,1,30.836,0L90.555,8.952A18.09,18.09,0,0,0,77.7,3.639Z" transform="translate(727.5 3501.5)" fill="#fff" stroke="#051c2c" stroke-width="0.5"></path></g></svg> 