<?xml version="1.0" encoding="UTF-8"?> <svg xmlns="http://www.w3.org/2000/svg" width="300" height="186" viewBox="0 0 300 186"><g id="Group_28" data-name="Group 28" transform="translate(-231 -3463)"><rect id="Rectangle_1" data-name="Rectangle 1" width="300" height="186" transform="translate(231 3463)" fill="#051c2c"></rect><path id="Union_29" data-name="Union 29" d="M78.078,107.291V96.015H68.853v11.276a1.709,1.709,0,1,1-3.417,0V96.015H56.209v11.276a1.709,1.709,0,1,1-3.417,0V96.015H43.568v11.276a1.709,1.709,0,1,1-3.419,0V96.015H30.924v11.276a1.709,1.709,0,1,1-3.417,0V96.015H23.918A10.9,10.9,0,0,1,12.985,85.081V81.493H1.709a1.709,1.709,0,1,1,0-3.417H12.985V68.851H1.709a1.709,1.709,0,0,1,0-3.419l11.276,0V56.209H1.709a1.709,1.709,0,0,1,0-3.419l11.276,0V43.566H1.709a1.709,1.709,0,1,1,0-3.417H12.985V30.924H1.709a1.709,1.709,0,1,1,0-3.417H13.325V23.919A10.9,10.9,0,0,1,24.259,12.985h3.588V1.709a1.709,1.709,0,1,1,3.417,0V12.985h9.225V1.709a1.709,1.709,0,1,1,3.419,0l0,11.276h9.226V1.709a1.709,1.709,0,1,1,3.417,0l0,11.276h9.226V1.709a1.709,1.709,0,1,1,3.417,0V12.985h9.225V1.709a1.709,1.709,0,1,1,3.417,0V13.154h3.589A10.9,10.9,0,0,1,96.355,24.088v3.588h11.276a1.709,1.709,0,1,1,0,3.417H96.355V40.32h11.276a1.709,1.709,0,1,1,0,3.417v-.171l-11.614,0v9.225h11.277a1.709,1.709,0,0,1,0,3.419H96.017v9.225h11.277a1.709,1.709,0,0,1,0,3.417H96.017v9.226h11.277a1.709,1.709,0,0,1,0,3.417H96.017v3.588A10.9,10.9,0,0,1,85.084,96.015H81.5v11.276a1.709,1.709,0,1,1-3.419,0ZM16.4,85.421a7.474,7.474,0,0,0,7.517,7.517h61.5a7.472,7.472,0,0,0,7.515-7.517V77.9H75.682L71.07,82.518H54.84l-5.3-5.3H46.127a7.329,7.329,0,0,1-7,5.468,7.176,7.176,0,1,1,0-14.351,7.329,7.329,0,0,1,7,5.468h4.954l5.3,5.3H69.7l4.612-4.612h18.62V58.259H75.853l-5.125,5.125a7.323,7.323,0,0,1,1.025,3.759,7.176,7.176,0,1,1-7.176-7.176,6.877,6.877,0,0,1,3.759,1.026l6.151-6.151,18.279,0V23.918A7.473,7.473,0,0,0,85.248,16.4H23.918A7.474,7.474,0,0,0,16.4,23.918V36.732h9.739l11.274-8.885,17.768,0a7.328,7.328,0,0,1,7-5.468,7.176,7.176,0,0,1,0,14.351,7.329,7.329,0,0,1-7-5.468H38.61L27.335,40.149H16.4v5.98H29.725l4.785,4.783h8.883a7.168,7.168,0,1,1-.342,3.417H33.144l-4.785-4.785H16.4Zm18.965-9.906a3.758,3.758,0,1,0,3.759-3.759A3.792,3.792,0,0,0,35.366,75.514Zm25.625-8.373a3.759,3.759,0,1,0,3.759-3.759A3.792,3.792,0,0,0,60.991,67.142ZM46.3,53.3a3.759,3.759,0,1,0,3.759-3.759A3.792,3.792,0,0,0,46.3,53.3Zm12.13-23.747A3.759,3.759,0,1,0,62.186,25.8,3.793,3.793,0,0,0,58.428,29.556ZM28.7,89.522a8.932,8.932,0,0,1-8.883-8.885V59.965a1.709,1.709,0,0,1,3.417,0V80.638A5.506,5.506,0,0,0,28.7,86.105h7a1.713,1.713,0,0,1,1.709,1.708,1.615,1.615,0,0,1-1.709,1.709Zm57.4-45.1V28.7a5.506,5.506,0,0,0-5.466-5.468h-7a1.709,1.709,0,0,1,0-3.417h7A8.932,8.932,0,0,1,89.522,28.7V44.421a1.709,1.709,0,0,1-3.419,0Z" transform="translate(326 3502)" fill="#fff"></path></g></svg> 