<?xml version="1.0" encoding="UTF-8"?> <svg xmlns="http://www.w3.org/2000/svg" width="300" height="186" viewBox="0 0 300 186"><g id="Group_31" data-name="Group 31" transform="translate(-231 -3781)"><rect id="Rectangle_1" data-name="Rectangle 1" width="300" height="186" transform="translate(231 3781)" fill="#051c2c"></rect><path id="Union_26" data-name="Union 26" d="M5.331,99.5V79.244A9.645,9.645,0,0,1,0,70.631v-6.22a9.655,9.655,0,0,1,9.644-9.644H20.01a9.651,9.651,0,0,1,9.64,9.644v6.22a9.646,9.646,0,0,1-5.329,8.613V99.5a9.5,9.5,0,1,1-18.99,0Zm5.07,0a4.425,4.425,0,1,0,8.85,0V80.275H10.4ZM5.07,64.413v6.218A4.578,4.578,0,0,0,9.644,75.2H20.01a4.578,4.578,0,0,0,4.572-4.573V64.413a4.578,4.578,0,0,0-4.572-4.573H9.644A4.578,4.578,0,0,0,5.07,64.413ZM60.886,99.476a2.532,2.532,0,0,1-1.526-3.243,42.449,42.449,0,0,0,0-28.7,2.531,2.531,0,0,1,1.526-3.243v0a2.536,2.536,0,0,1,3.245,1.527,47.527,47.527,0,0,1,0,32.131,2.535,2.535,0,0,1-2.385,1.676A2.51,2.51,0,0,1,60.886,99.476ZM52,95.966a2.531,2.531,0,0,1-1.527-3.243,32.062,32.062,0,0,0,0-21.675,2.534,2.534,0,1,1,4.77-1.714,37.131,37.131,0,0,1,0,25.105,2.537,2.537,0,0,1-2.385,1.678A2.5,2.5,0,0,1,52,95.966Zm-8.882-3.514a2.535,2.535,0,0,1-1.529-3.243,21.666,21.666,0,0,0,0-14.65,2.536,2.536,0,0,1,4.773-1.717,26.764,26.764,0,0,1,0,18.083A2.537,2.537,0,0,1,43.977,92.6,2.488,2.488,0,0,1,43.119,92.452ZM50.263,50.64a8.832,8.832,0,0,1-8.822-8.823v-33A8.832,8.832,0,0,1,50.263,0h44a8.832,8.832,0,0,1,8.822,8.822v33a8.832,8.832,0,0,1-8.822,8.823Zm-3.75-8.822a3.754,3.754,0,0,0,3.75,3.751h44a3.756,3.756,0,0,0,3.751-3.751V38.462h-51.5Zm0-8.426,51.5,0V22.177H91.375l-5.369,6.294c-.01.011-.023.02-.033.031s-.007.013-.011.02a2.331,2.331,0,0,1-.2.18c-.062.056-.121.12-.189.169a2.374,2.374,0,0,1-.272.161c-.064.036-.125.077-.192.108a2.529,2.529,0,0,1-.363.118c-.046.011-.092.034-.141.044a2.475,2.475,0,0,1-.527.056h0A2.512,2.512,0,0,1,83.2,29.2a2.26,2.26,0,0,1-.264-.154,2.443,2.443,0,0,1-.505-.294c-.011-.01-.02-.023-.031-.033s-.013-.007-.02-.011L67.122,14.975l-7.819,6.6c-.018.016-.041.02-.059.034a2.5,2.5,0,0,1-.679.392c-.038.013-.079.025-.115.036a2.555,2.555,0,0,1-.779.135H46.512ZM67.962,9.207c.034.01.066.025.1.038a2.546,2.546,0,0,1,.771.456c.011.011.028.015.039.025L83.837,23.2l4.437-5.2c.025-.028.049-.046.074-.071a2.193,2.193,0,0,1,.189-.182c.059-.051.118-.1.18-.149a2.559,2.559,0,0,1,.218-.138c.069-.038.135-.077.205-.11s.159-.064.241-.092a2.32,2.32,0,0,1,.223-.069,2.441,2.441,0,0,1,.248-.044,2.533,2.533,0,0,1,.253-.025c.034,0,.066-.01.1-.01h7.8V8.822A3.755,3.755,0,0,0,94.258,5.07h-44a3.76,3.76,0,0,0-3.755,3.75V17.1H56.737l8.8-7.431a2.6,2.6,0,0,1,.527-.333c.036-.016.067-.028.1-.043A2.5,2.5,0,0,1,67,9.087c.036,0,.072,0,.107,0h.075A2.5,2.5,0,0,1,67.962,9.207Zm1.352,35.341a2.535,2.535,0,0,1,0-5.07h5.892a2.535,2.535,0,1,1,0,5.07ZM2.8,41.386a47.547,47.547,0,0,1,0-32.131,2.536,2.536,0,0,1,4.772,1.717,42.469,42.469,0,0,0,0,28.7A2.535,2.535,0,1,1,2.8,41.386Zm8.886-3.507a37.121,37.121,0,0,1,0-25.109,2.535,2.535,0,1,1,4.77,1.716,32.033,32.033,0,0,0,0,21.672,2.535,2.535,0,0,1-4.77,1.721Zm8.882-3.515a26.788,26.788,0,0,1,0-18.085,2.535,2.535,0,0,1,4.772,1.716,21.69,21.69,0,0,0,0,14.651,2.536,2.536,0,0,1-4.772,1.717Z" transform="translate(329.5 3819.5)" fill="#fff" stroke="#051c2c" stroke-width="1.6"></path></g></svg> 