<?xml version="1.0" encoding="UTF-8"?> <svg xmlns="http://www.w3.org/2000/svg" width="300" height="186" viewBox="0 0 300 186"><g id="Group_32" data-name="Group 32" transform="translate(-1465 -3463)"><rect id="Rectangle_3" data-name="Rectangle 3" width="300" height="186" transform="translate(1465 3463)" fill="#051c2c"></rect><path id="Union_31" data-name="Union 31" d="M9.084,109A9.082,9.082,0,0,1,0,99.916V9.084A9.082,9.082,0,0,1,9.084,0h43.6a9.08,9.08,0,0,1,9.082,9.084V99.916A9.08,9.08,0,0,1,52.683,109ZM3.633,9.084V99.916a5.467,5.467,0,0,0,5.451,5.451h43.6a5.465,5.465,0,0,0,5.449-5.451V9.084a5.465,5.465,0,0,0-5.449-5.451H47.347a2.986,2.986,0,0,0-2.885,2.248A6.628,6.628,0,0,1,38.036,10.9H23.729A6.611,6.611,0,0,1,17.3,5.881,2.965,2.965,0,0,0,14.42,3.633H9.084A5.467,5.467,0,0,0,3.633,9.084ZM20.846,5.018a2.966,2.966,0,0,0,2.883,2.248H38.036a2.984,2.984,0,0,0,2.883-2.248,7.3,7.3,0,0,1,.522-1.385H20.323A6.365,6.365,0,0,1,20.846,5.018ZM28.2,99.189,25.66,96.578a7.568,7.568,0,0,1,10.492,0l-2.543,2.611A3.9,3.9,0,0,0,28.2,99.189Zm-5.289-5.133-2.545-2.611h0a15.181,15.181,0,0,1,21.049,0l-2.543,2.611A11.55,11.55,0,0,0,22.913,94.056ZM17.622,88.9,15.079,86.29a22.839,22.839,0,0,1,31.61,0L44.146,88.9A19.161,19.161,0,0,0,17.622,88.9Zm-.09-41.669H7.268V43.6h6.7a12.048,12.048,0,0,1,.408-16.465,11.771,11.771,0,0,1,16.51-.273,11.79,11.79,0,0,1,16.508.273A12.047,12.047,0,0,1,47.8,43.6h6.7v3.633H44.237L30.884,60.72Zm2.974-2.18L30.884,55.544,41.171,45.165l-3.2-4.268-7.221,7.221-6.9-8.629Zm10.537-2.361L38.356,35.4l5.381,7.176,1.09-1.09a8.459,8.459,0,0,0,0-11.807l-.092-.092A8.168,8.168,0,0,0,33.2,29.68l-2.316,2.338L28.59,29.7l-.09-.092a8.17,8.17,0,0,0-11.537.092,8.389,8.389,0,0,0,0,11.785l.91.91,5.541-9.243Z" transform="translate(1584 3502)" fill="#fff"></path></g></svg> 