<?xml version="1.0" encoding="UTF-8"?> <svg xmlns="http://www.w3.org/2000/svg" width="300" height="186" viewBox="0 0 300 186"><g id="Group_3010" data-name="Group 3010" transform="translate(-67 -1671)"><g id="Group_3008" data-name="Group 3008" transform="translate(0 373)"><rect id="Rectangle_1" data-name="Rectangle 1" width="300" height="186" transform="translate(67 1298)" fill="#051c2c"></rect></g><path id="Path_3222" data-name="Path 3222" d="M100.242,106.153a1.633,1.633,0,0,1,0-3.266h28.38a1.633,1.633,0,1,1,0,3.266Zm0,28.867a1.633,1.633,0,0,1,0-3.266h12.684a1.633,1.633,0,1,1,0,3.266Zm0-9.62a1.637,1.637,0,0,1,0-3.274h12.684a1.637,1.637,0,0,1,0,3.274Zm0-9.628a1.633,1.633,0,0,1,0-3.266H121.3a1.633,1.633,0,1,1,0,3.266Zm22.025,18.011a1.629,1.629,0,1,1,2.816-1.637l3.552,6.144,12.191-12.2a1.635,1.635,0,0,1,2.31,2.315l-13.7,13.7V142.1a1.63,1.63,0,0,1-2.563-.332Zm10.562-17.679a18.245,18.245,0,0,1,2.6.185V100.4l-7.1.008a1.637,1.637,0,0,1-1.637-1.637V91.661l-29.861-.054v50.307h19.787a18,18,0,0,1,16.213-25.809Zm5.867.98a18,18,0,1,1-20.051,28.094H95.2a1.637,1.637,0,0,1-1.637-1.637V89.981h.008A1.623,1.623,0,0,1,95.2,88.352l4.162.008q14.454.037,28.9.054a1.639,1.639,0,0,1,1.228.479l8.639,8.647a1.633,1.633,0,0,1,.572,1.242Zm4.548,6.6a14.729,14.729,0,1,0,0,20.83,14.729,14.729,0,0,0,0-20.83ZM129.959,93.979v3.157c1.49,0,.8,0,0,.008h3.173ZM57.131,48.389a1.633,1.633,0,1,1,0,3.266H53.078a5.132,5.132,0,0,0-2.579.618c-.387.24-.626.479-.626.673,0,.812,1.713,1.057,3.434,1.3,3.118.447,6.237.9,6.237,4.532,0,2.517-2.495,4.006-4.864,4.415v.447a1.633,1.633,0,1,1-3.266,0v-.308h-2.8a1.633,1.633,0,1,1,0-3.266h4.461a5.132,5.132,0,0,0,2.579-.618c.387-.232.626-.479.626-.673,0-.812-1.713-1.057-3.434-1.3-3.118-.447-6.237-.9-6.237-4.532,0-2.508,2.487-4.006,4.848-4.415l.025-.509a1.626,1.626,0,0,1,3.249.117l-.008.256h2.41Zm-1.473-5.148a13,13,0,1,0,.177.038c-.054-.008-.114-.025-.177-.038Zm-11.379-.912a16.139,16.139,0,1,1-6.994,10.192,16.1,16.1,0,0,1,6.994-10.192Zm18.929-7.983a23.336,23.336,0,0,1,6.308,4.33l3.1-1.468a1.633,1.633,0,0,1,2.1.648l3.636,5.6a1.631,1.631,0,0,1-.308,2.124L75.452,47.8a23.6,23.6,0,0,1,1.405,7.536l3.211,1.144a1.633,1.633,0,0,1,1.051,1.893l-1.4,6.586a1.635,1.635,0,0,1-1.713,1.288h0L74.6,65.986a23.354,23.354,0,0,1-4.33,6.316l1.468,3.1a1.633,1.633,0,0,1-.648,2.1l-5.6,3.636a1.631,1.631,0,0,1-2.124-.308h0l-2.222-2.587a23.6,23.6,0,0,1-7.536,1.405l-1.144,3.211a1.632,1.632,0,0,1-1.89,1.051l-6.586-1.4A1.626,1.626,0,0,1,42.7,80.8H42.7l.261-3.413a23.355,23.355,0,0,1-6.316-4.33l-3.1,1.468a1.62,1.62,0,0,1-2.092-.648l-3.644-5.6a1.637,1.637,0,0,1,.308-2.124L30.7,63.93A23.824,23.824,0,0,1,29.3,56.394l-3.211-1.149a1.632,1.632,0,0,1-1.051-1.89l1.4-6.586a1.635,1.635,0,0,1,1.713-1.288h0l3.413.261a23.355,23.355,0,0,1,4.33-6.316l-1.468-3.1a1.633,1.633,0,0,1,.648-2.1l5.6-3.636A1.63,1.63,0,0,1,42.8,30.9l2.222,2.587a23.626,23.626,0,0,1,7.536-1.405L53.7,28.872a1.627,1.627,0,0,1,1.89-1.049l6.586,1.4a1.622,1.622,0,0,1,1.288,1.713h0Zm1.482,4.595A20.184,20.184,0,0,0,61,36.926a1.631,1.631,0,0,1-1.136-1.675l.231-3.135-3.8-.812-1.051,2.958h0a1.629,1.629,0,0,1-1.582,1.081,20.5,20.5,0,0,0-8.492,1.591h0a1.644,1.644,0,0,1-1.868-.447l-2.045-2.38-3.266,2.116,1.343,2.824a1.64,1.64,0,0,1-.349,1.906,20.206,20.206,0,0,0-2.824,3.3,20.457,20.457,0,0,0-2.015,3.69,1.615,1.615,0,0,1-1.675,1.136l-3.135-.232-.812,3.8L31.475,53.7h0a1.646,1.646,0,0,1,1.089,1.582,20.4,20.4,0,0,0,1.582,8.5h0a1.635,1.635,0,0,1-.447,1.86l-2.378,2.045,2.124,3.266,2.819-1.343a1.64,1.64,0,0,1,1.906.349,20.51,20.51,0,0,0,6.986,4.84,1.622,1.622,0,0,1,1.136,1.675l-.232,3.135,3.8.812,1.051-2.958h0A1.629,1.629,0,0,1,52.5,76.382,20.41,20.41,0,0,0,61,74.791h0a1.635,1.635,0,0,1,1.86.447l2.045,2.386L68.172,75.5l-1.335-2.824a1.629,1.629,0,0,1,.34-1.907A20.2,20.2,0,0,0,70,67.473a20.456,20.456,0,0,0,2.015-3.69,1.622,1.622,0,0,1,1.675-1.136l3.135.232.812-3.8-2.958-1.049h0A1.629,1.629,0,0,1,73.6,56.443a20.434,20.434,0,0,0-1.591-8.5h0a1.635,1.635,0,0,1,.447-1.86l2.386-2.045-2.124-3.266-2.824,1.343a1.64,1.64,0,0,1-1.906-.349,20.244,20.244,0,0,0-3.3-2.824Zm54.776,36.286a1.371,1.371,0,0,0-.046-.169h0A35.638,35.638,0,0,0,82.67,50.6l1.367,2.1a33.488,33.488,0,0,1,33.3,22.952,1.642,1.642,0,0,1-1.3,2.154l-.517.076,3.813,4.785,2.239-5.7-.223.03h0a1.636,1.636,0,0,1-1.868-1.612,1.284,1.284,0,0,0-.016-.161Zm2.887-1.678,1.528-.231a1.63,1.63,0,0,1,1.729,2.285l-4.271,10.886a1.629,1.629,0,0,1-2.811.395L111.2,77.711a1.641,1.641,0,0,1,1.035-2.634h0l1.335-.2A30.211,30.211,0,0,0,83.3,56.007a1.631,1.631,0,0,1-1.536-.825l-3.257-5A1.632,1.632,0,0,1,79.7,47.67a38.4,38.4,0,0,1,7.435-.409,38.9,38.9,0,0,1,35.221,26.288ZM55.687,94.981l-3.211-5.218-2.911,5.39.379-.008a1.62,1.62,0,0,1,1.667,1.691v.008a.807.807,0,0,0,.016.193h0l.071.27a35.976,35.976,0,0,0,9.72,15.078A35.592,35.592,0,0,0,88.193,121.7l-1.367-2.108a33.5,33.5,0,0,1-32.89-22.442,1.631,1.631,0,0,1,1.552-2.171h.2Zm1.174-4.322L59.95,95.67l-.008.008A1.629,1.629,0,0,1,58.6,98.157l-.765.025a30.231,30.231,0,0,0,29.739,18.112h0a1.639,1.639,0,0,1,1.468.741l3.266,5.02a1.632,1.632,0,0,1-1.073,2.593,38.941,38.941,0,0,1-42.6-26.212l-1.713.054a1.633,1.633,0,0,1-1.566-2.4L50.9,85.811a1.633,1.633,0,0,1,2.871-.163Z" transform="translate(129.003 1674.216)" fill="#fff"></path></g></svg> 