<?xml version="1.0" encoding="UTF-8"?> <svg xmlns="http://www.w3.org/2000/svg" width="300" height="186" viewBox="0 0 300 186"><g id="Group_2927" data-name="Group 2927" transform="translate(-51 -2596)"><rect id="Rectangle_55" data-name="Rectangle 55" width="300" height="186" transform="translate(51 2596)" fill="#051c2c"></rect><g id="Group_2926" data-name="Group 2926" transform="translate(-442.368 -371.182)"><path id="Path_3027" data-name="Path 3027" d="M207.792,76.974H183.708V34.658a1.241,1.241,0,0,0-.41-.922l-6.082-5.5a1.242,1.242,0,0,0-1.67,0l-5.25,4.747-5.253-4.747a1.247,1.247,0,0,0-1.67,0l-5.253,4.747-5.253-4.747a1.247,1.247,0,0,0-1.67,0l-5.252,4.747-5.252-4.747a1.245,1.245,0,0,0-1.668,0l-5.259,4.747L128.5,28.235a1.243,1.243,0,0,0-1.668,0l-6.1,5.5a1.243,1.243,0,0,0-.411.924V83.025H103.64a1.244,1.244,0,0,0-1.245,1.245V111.78a10.225,10.225,0,0,0,10.214,10.212h52.6V135.3a4.651,4.651,0,0,0,4.647,4.646h37.929a4.651,4.651,0,0,0,4.647-4.646V81.621a4.651,4.651,0,0,0-4.647-4.647ZM112.61,119.5a7.732,7.732,0,0,1-7.724-7.723V85.513h15.447V111.78A7.732,7.732,0,0,1,112.61,119.5Zm6.674,0a10.194,10.194,0,0,0,3.538-7.723V35.213l4.852-4.379,5.263,4.749a1.243,1.243,0,0,0,1.668,0l5.259-4.747,5.252,4.747a1.247,1.247,0,0,0,1.67,0l5.252-4.747,5.253,4.747a1.247,1.247,0,0,0,1.67,0l5.253-4.747,5.253,4.747a1.247,1.247,0,0,0,1.67,0l5.25-4.746,4.838,4.377V76.975H169.867a4.651,4.651,0,0,0-4.647,4.647V119.5Zm90.667,15.8a2.159,2.159,0,0,1-2.158,2.156H169.863a2.159,2.159,0,0,1-2.158-2.156V81.62a2.16,2.16,0,0,1,2.158-2.158h37.929a2.16,2.16,0,0,1,2.158,2.158Z" transform="translate(485.973 2976.271)" fill="#fff" stroke="#fff" stroke-width="0.6"></path><path id="Path_3028" data-name="Path 3028" d="M411.093,287.948h33.729a1.244,1.244,0,0,0,1.245-1.245V274.69a1.244,1.244,0,0,0-1.245-1.245H411.093a1.244,1.244,0,0,0-1.245,1.245V286.7a1.244,1.244,0,0,0,1.245,1.245Zm1.245-12.014h31.24v9.525h-31.24Z" transform="translate(246.843 2785.301)" fill="#fff" stroke="#fff" stroke-width="0.6"></path><path id="Path_3029" data-name="Path 3029" d="M474.793,354.17a1.245,1.245,0,0,0,0,2.49h5.418a1.245,1.245,0,0,0,0-2.49Z" transform="translate(197.299 2722.514)" fill="#fff" stroke="#fff" stroke-width="0.6"></path><path id="Path_3030" data-name="Path 3030" d="M543.909,354.17H538.49a1.245,1.245,0,1,0,0,2.49h5.418a1.245,1.245,0,1,0,0-2.49Z" transform="translate(147.756 2722.514)" fill="#fff" stroke="#fff" stroke-width="0.6"></path><path id="Path_3031" data-name="Path 3031" d="M411.093,356.656h5.418a1.245,1.245,0,1,0,0-2.49h-5.418a1.245,1.245,0,1,0,0,2.49Z" transform="translate(246.843 2722.517)" fill="#fff" stroke="#fff" stroke-width="0.6"></path><path id="Path_3032" data-name="Path 3032" d="M476.434,378.55h-8.443a1.244,1.244,0,0,0-1.245,1.245v5.8a1.244,1.244,0,0,0,1.245,1.245h8.443a1.244,1.244,0,0,0,1.245-1.245v-5.8A1.244,1.244,0,0,0,476.434,378.55Zm-1.245,5.8h-5.953v-3.308h5.953Z" transform="translate(202.589 2703.552)" fill="#fff" stroke="#fff" stroke-width="0.6"></path><path id="Path_3033" data-name="Path 3033" d="M539.514,378.55h-8.443a1.244,1.244,0,0,0-1.245,1.245v5.8a1.244,1.244,0,0,0,1.245,1.245h8.443a1.244,1.244,0,0,0,1.245-1.245v-5.8A1.244,1.244,0,0,0,539.514,378.55Zm-1.245,5.8h-5.953v-3.308h5.953Z" transform="translate(153.527 2703.552)" fill="#fff" stroke="#fff" stroke-width="0.6"></path><path id="Path_3034" data-name="Path 3034" d="M413.344,378.55H404.9a1.244,1.244,0,0,0-1.245,1.245v5.8a1.244,1.244,0,0,0,1.245,1.245h8.443a1.244,1.244,0,0,0,1.245-1.245v-5.8A1.244,1.244,0,0,0,413.344,378.55Zm-1.245,5.8h-5.953v-3.308H412.1Z" transform="translate(251.659 2703.552)" fill="#fff" stroke="#fff" stroke-width="0.6"></path><path id="Path_3035" data-name="Path 3035" d="M476.434,427.04h-8.443a1.244,1.244,0,0,0-1.245,1.245v5.8a1.244,1.244,0,0,0,1.245,1.245h8.443a1.244,1.244,0,0,0,1.245-1.245v-5.8A1.244,1.244,0,0,0,476.434,427.04Zm-1.245,5.8h-5.953v-3.308h5.953Z" transform="translate(202.589 2665.838)" fill="#fff" stroke="#fff" stroke-width="0.6"></path><path id="Path_3036" data-name="Path 3036" d="M539.514,427.04h-8.443a1.244,1.244,0,0,0-1.245,1.245v5.8a1.244,1.244,0,0,0,1.245,1.245h8.443a1.244,1.244,0,0,0,1.245-1.245v-5.8A1.244,1.244,0,0,0,539.514,427.04Zm-1.245,5.8h-5.953v-3.308h5.953Z" transform="translate(153.527 2665.838)" fill="#fff" stroke="#fff" stroke-width="0.6"></path><path id="Path_3037" data-name="Path 3037" d="M413.344,427.04H404.9a1.244,1.244,0,0,0-1.245,1.245v5.8a1.244,1.244,0,0,0,1.245,1.245h8.443a1.244,1.244,0,0,0,1.245-1.245v-5.8A1.244,1.244,0,0,0,413.344,427.04Zm-1.245,5.8h-5.953v-3.308H412.1Z" transform="translate(251.659 2665.838)" fill="#fff" stroke="#fff" stroke-width="0.6"></path><path id="Path_3038" data-name="Path 3038" d="M476.434,475.52h-8.443a1.244,1.244,0,0,0-1.245,1.245v5.8a1.244,1.244,0,0,0,1.245,1.245h8.443a1.244,1.244,0,0,0,1.245-1.245v-5.8A1.244,1.244,0,0,0,476.434,475.52Zm-1.245,5.8h-5.953v-3.308h5.953Z" transform="translate(202.589 2628.131)" fill="#fff" stroke="#fff" stroke-width="0.6"></path><path id="Path_3039" data-name="Path 3039" d="M539.514,475.52h-8.443a1.244,1.244,0,0,0-1.245,1.245v5.8a1.244,1.244,0,0,0,1.245,1.245h8.443a1.244,1.244,0,0,0,1.245-1.245v-5.8A1.244,1.244,0,0,0,539.514,475.52Zm-1.245,5.8h-5.953v-3.308h5.953Z" transform="translate(153.527 2628.131)" fill="#fff" stroke="#fff" stroke-width="0.6"></path><path id="Path_3040" data-name="Path 3040" d="M413.344,475.52H404.9a1.244,1.244,0,0,0-1.245,1.245v5.8a1.244,1.244,0,0,0,1.245,1.245h8.443a1.244,1.244,0,0,0,1.245-1.245v-5.8A1.244,1.244,0,0,0,413.344,475.52Zm-1.245,5.8h-5.953v-3.308H412.1Z" transform="translate(251.659 2628.131)" fill="#fff" stroke="#fff" stroke-width="0.6"></path><path id="Path_3041" data-name="Path 3041" d="M207.353,149.546h50.693a1.245,1.245,0,0,0,0-2.49H207.353a1.245,1.245,0,0,0,0,2.49Z" transform="translate(405.307 2883.603)" fill="#fff" stroke="#fff" stroke-width="0.6"></path><path id="Path_3042" data-name="Path 3042" d="M229.953,188.81h-22.6a1.245,1.245,0,1,0,0,2.49h22.6a1.245,1.245,0,1,0,0-2.49Z" transform="translate(405.307 2851.128)" fill="#fff" stroke="#fff" stroke-width="0.6"></path><path id="Path_3043" data-name="Path 3043" d="M229.953,224.45h-22.6a1.245,1.245,0,0,0,0,2.49h22.6a1.245,1.245,0,1,0,0-2.49Z" transform="translate(405.307 2823.408)" fill="#fff" stroke="#fff" stroke-width="0.6"></path><path id="Path_3044" data-name="Path 3044" d="M229.953,260.1h-22.6a1.245,1.245,0,1,0,0,2.49h22.6a1.245,1.245,0,1,0,0-2.49Z" transform="translate(405.307 2795.68)" fill="#fff" stroke="#fff" stroke-width="0.6"></path><path id="Path_3045" data-name="Path 3045" d="M229.953,295.75h-22.6a1.245,1.245,0,0,0,0,2.49h22.6a1.245,1.245,0,0,0,0-2.49Z" transform="translate(405.307 2767.952)" fill="#fff" stroke="#fff" stroke-width="0.6"></path><path id="Path_3046" data-name="Path 3046" d="M229.953,331.4h-22.6a1.245,1.245,0,1,0,0,2.49h22.6a1.245,1.245,0,1,0,0-2.49Z" transform="translate(405.307 2740.224)" fill="#fff" stroke="#fff" stroke-width="0.6"></path><path id="Path_3047" data-name="Path 3047" d="M229.953,367.04h-22.6a1.245,1.245,0,1,0,0,2.49h22.6a1.245,1.245,0,1,0,0-2.49Z" transform="translate(405.307 2712.504)" fill="#fff" stroke="#fff" stroke-width="0.6"></path></g></g></svg> 