<?xml version="1.0" encoding="UTF-8"?> <svg xmlns="http://www.w3.org/2000/svg" width="300" height="186" viewBox="0 0 300 186"><g id="Group_2940" data-name="Group 2940" transform="translate(-814 -2957)"><rect id="Rectangle_67" data-name="Rectangle 67" width="300" height="186" transform="translate(814 2957)" fill="#051c2c"></rect><g id="Group_2939" data-name="Group 2939" transform="translate(2165.779 -2904.99)"><path id="Path_3090" data-name="Path 3090" d="M272.7,200.41c.146-.166.3-.317.443-.487a26.245,26.245,0,0,0,1.791-2.409c.024-.035.054-.067.076-.1s.037-.079.059-.118a25.672,25.672,0,0,0,0-27.906,1.218,1.218,0,0,0-.059-.118c-.024-.037-.054-.067-.076-.1a25.9,25.9,0,0,0-1.791-2.409c-.142-.17-.3-.323-.443-.487-.487-.552-.993-1.085-1.526-1.594-.268-.256-.545-.5-.822-.747-.452-.4-.917-.774-1.4-1.137-.3-.231-.6-.467-.915-.685-.62-.43-1.261-.827-1.918-1.2-.288-.164-.578-.325-.871-.478q-1.052-.549-2.158-1.006c-.32-.131-.646-.238-.971-.356-.6-.218-1.213-.419-1.835-.592-.341-.094-.681-.183-1.026-.264-.659-.155-1.329-.279-2.008-.38-.3-.046-.606-.1-.912-.14a25.262,25.262,0,0,0-2.99-.191,26.255,26.255,0,0,0-2.986.186c-.307.035-.607.092-.912.14-.677.1-1.349.227-2.008.382-.345.082-.685.17-1.026.264q-.933.261-1.835.592c-.325.118-.652.225-.971.356-.738.3-1.456.639-2.158,1.006-.295.153-.583.314-.871.478-.657.375-1.3.771-1.917,1.2-.314.218-.611.454-.915.685-.48.366-.945.742-1.4,1.139-.279.244-.552.489-.822.746-.533.509-1.039,1.043-1.529,1.6-.146.166-.3.317-.443.487a26.235,26.235,0,0,0-1.791,2.409c-.024.035-.054.067-.076.1s-.037.079-.059.118a25.665,25.665,0,0,0,0,27.9,1.217,1.217,0,0,0,.059.118c.024.037.054.067.076.1a25.907,25.907,0,0,0,1.791,2.409c.142.17.3.323.443.487.487.552.995,1.087,1.529,1.6.268.256.543.5.822.746.452.4.92.774,1.4,1.139.3.231.6.467.915.685.62.43,1.261.827,1.917,1.2.288.164.578.325.871.478q1.052.549,2.158,1.006c.32.131.646.238.971.356.6.218,1.213.419,1.835.592.34.094.681.183,1.026.264.661.155,1.331.279,2.008.382.3.046.6.1.912.14a24.041,24.041,0,0,0,5.973,0c.307-.035.607-.092.912-.14.677-.1,1.347-.225,2.008-.38.345-.082.686-.17,1.026-.264q.933-.261,1.835-.592c.325-.118.652-.225.971-.356.738-.3,1.456-.639,2.158-1.006.3-.153.583-.314.871-.478.657-.375,1.3-.771,1.917-1.2.314-.218.611-.454.915-.685.478-.363.945-.74,1.4-1.137.279-.246.554-.491.822-.747.536-.511,1.041-1.044,1.53-1.6Zm-2.773-2.429c-.369.419-.746.827-1.143,1.215-.229.222-.471.43-.707.644-.317.284-.639.567-.972.831-.283.223-.572.436-.864.646-.317.227-.639.448-.966.659q-.465.3-.947.576c-.339.2-.686.378-1.037.554-.321.162-.643.321-.971.469-.382.17-.771.32-1.161.467a.027.027,0,0,1-.011,0,27.047,27.047,0,0,0,3.261-7.213c2.047.213,4.028.465,5.84.794-.1.123-.218.236-.323.356Zm-25.548,5.593c-.329-.146-.649-.307-.971-.469-.351-.177-.7-.36-1.037-.554-.321-.185-.635-.377-.947-.576-.329-.21-.649-.432-.966-.659-.292-.21-.583-.423-.864-.646-.332-.266-.653-.546-.972-.831-.238-.213-.48-.421-.707-.644-.4-.387-.774-.8-1.143-1.215-.105-.12-.22-.232-.323-.356,1.813-.329,3.795-.579,5.84-.794a27.041,27.041,0,0,0,3.261,7.213.027.027,0,0,0-.011,0c-.39-.148-.78-.3-1.161-.467Zm-13.085-18.388h9.181a49.348,49.348,0,0,0,.9,8.019c-2.587.284-5.021.659-7.236,1.121a21.943,21.943,0,0,1-2.848-9.139Zm2.849-12.83c2.215.461,4.647.838,7.236,1.121a49.323,49.323,0,0,0-.9,8.019H231.29a21.911,21.911,0,0,1,2.848-9.139Zm2.63-3.657c.369-.419.746-.827,1.143-1.215.229-.222.471-.43.707-.644.317-.284.639-.567.972-.831.283-.223.572-.436.864-.646.317-.227.639-.448.966-.659q.465-.3.947-.576c.339-.2.686-.378,1.037-.554.321-.162.643-.321.971-.469.382-.17.771-.32,1.161-.467a.027.027,0,0,1,.011,0,27.049,27.049,0,0,0-3.261,7.213c-2.047-.213-4.028-.465-5.84-.794.1-.123.218-.236.323-.356Zm25.548-5.593c.329.146.649.307.971.469.351.177.7.36,1.037.554.321.185.635.377.947.576.329.21.649.432.966.659.292.21.583.423.864.646.332.266.653.546.972.831.238.213.48.421.707.644.4.387.774.8,1.143,1.215.105.12.22.232.323.356-1.813.329-3.795.579-5.84.794a27.04,27.04,0,0,0-3.261-7.213.027.027,0,0,0,.011,0c.39.148.78.3,1.161.467ZM275.4,181.494H266.22a49.354,49.354,0,0,0-.9-8.019c2.587-.284,5.021-.659,7.236-1.121a21.943,21.943,0,0,1,2.848,9.139Zm-31.242,0a45.422,45.422,0,0,1,.908-7.677c2.671.194,5.453.293,8.278.293s5.607-.1,8.278-.293a45.4,45.4,0,0,1,.908,7.677Zm18.372,3.692a45.42,45.42,0,0,1-.908,7.677c-2.671-.194-5.453-.293-8.278-.293s-5.607.1-8.278.293a45.4,45.4,0,0,1-.908-7.677Zm-1.873-15.021c-2.372.155-4.811.255-7.313.255s-4.941-.1-7.313-.255c1.819-5.588,4.655-8.974,7.313-8.974S258.84,164.577,260.659,170.164Zm-14.626,26.35c2.372-.155,4.811-.255,7.313-.255s4.941.1,7.313.255c-1.819,5.588-4.655,8.974-7.313,8.974S247.851,202.1,246.033,196.514Zm19.285-3.311a49.321,49.321,0,0,0,.9-8.019H275.4a21.983,21.983,0,0,1-2.848,9.138c-2.216-.461-4.648-.838-7.236-1.12Z" transform="translate(-1454.75 5773.023)" fill="#fff" stroke="#051c2c" stroke-width="1"></path><path id="Path_3091" data-name="Path 3091" d="M341.334,516.095l-.122,3.688c.615.022,1.234.033,1.855.033.657,0,1.313-.011,1.966-.037l-.137-3.688c-1.183.043-2.377.043-3.562,0Z" transform="translate(-1544.471 5490.076)" fill="#fff" stroke="#051c2c" stroke-width="1"></path><path id="Path_3092" data-name="Path 3092" d="M270.07,507.778c1.2.4,2.438.761,3.668,1.072l.91-3.577c-1.146-.292-2.3-.63-3.416-1Z" transform="translate(-1488.336 5499.401)" fill="#fff" stroke="#051c2c" stroke-width="1"></path><path id="Path_3093" data-name="Path 3093" d="M574.3,341.633l3.5,1.161c.4-1.2.759-2.438,1.07-3.666l-3.577-.908c-.29,1.143-.626,2.292-1,3.413Z" transform="translate(-1728.389 5630.425)" fill="#fff" stroke="#051c2c" stroke-width="1"></path><path id="Path_3094" data-name="Path 3094" d="M305.18,516.207c1.249.223,2.523.4,3.784.536l.387-3.669c-1.176-.124-2.361-.292-3.525-.5Z" transform="translate(-1516.04 5492.852)" fill="#fff" stroke="#051c2c" stroke-width="1"></path><path id="Path_3095" data-name="Path 3095" d="M561.4,373.458l3.3,1.652c.569-1.135,1.1-2.307,1.587-3.479l-3.411-1.414c-.451,1.092-.948,2.183-1.477,3.241Z" transform="translate(-1718.21 5605.178)" fill="#fff" stroke="#051c2c" stroke-width="1"></path><path id="Path_3096" data-name="Path 3096" d="M582.57,308.567l3.635.649c.223-1.249.4-2.523.537-3.785l-3.671-.386c-.126,1.174-.294,2.359-.5,3.522Z" transform="translate(-1734.914 5656.602)" fill="#fff" stroke="#051c2c" stroke-width="1"></path><path id="Path_3097" data-name="Path 3097" d="M586.09,270.838q.033.908.033,1.828,0,.866-.03,1.731l3.69.129c.022-.618.031-1.239.031-1.861q0-.983-.035-1.962Z" transform="translate(-1737.692 5683.699)" fill="#fff" stroke="#051c2c" stroke-width="1"></path><path id="Path_3098" data-name="Path 3098" d="M586.672,238.48c-.133-1.255-.316-2.529-.543-3.785l-3.632.655c.21,1.168.38,2.352.5,3.518Z" transform="translate(-1734.857 5712.111)" fill="#fff" stroke="#051c2c" stroke-width="1"></path><path id="Path_3099" data-name="Path 3099" d="M523.019,430.813l2.7,2.512c.866-.93,1.707-1.9,2.5-2.889l-2.876-2.315c-.738.917-1.523,1.822-2.33,2.691Z" transform="translate(-1687.926 5559.488)" fill="#fff" stroke="#051c2c" stroke-width="1"></path><path id="Path_3100" data-name="Path 3100" d="M375.5,512.989l.4,3.669c1.268-.137,2.54-.321,3.778-.543l-.653-3.635c-1.153.209-2.34.379-3.523.508Z" transform="translate(-1571.526 5492.924)" fill="#fff" stroke="#051c2c" stroke-width="1"></path><path id="Path_3101" data-name="Path 3101" d="M544.18,403.388l3.031,2.109c.722-1.039,1.417-2.119,2.069-3.217L546.1,400.4c-.6,1.021-1.253,2.027-1.925,2.992Z" transform="translate(-1704.623 5581.364)" fill="#fff" stroke="#051c2c" stroke-width="1"></path><path id="Path_3102" data-name="Path 3102" d="M498.36,455.14l2.32,2.874c.982-.794,1.951-1.637,2.885-2.505l-2.516-2.7C500.179,453.617,499.274,454.4,498.36,455.14Z" transform="translate(-1668.469 5540.008)" fill="#fff" stroke="#051c2c" stroke-width="1"></path><path id="Path_3103" data-name="Path 3103" d="M470.71,475.918l1.89,3.173c1.087-.649,2.167-1.346,3.208-2.069l-2.109-3.032C472.731,474.664,471.725,475.314,470.71,475.918Z" transform="translate(-1646.651 5523.296)" fill="#fff" stroke="#051c2c" stroke-width="1"></path><path id="Path_3104" data-name="Path 3104" d="M408.68,505.172l.915,3.577c1.229-.316,2.462-.677,3.666-1.079l-1.168-3.5c-1.12.371-2.269.709-3.413,1Z" transform="translate(-1597.706 5499.482)" fill="#fff" stroke="#051c2c" stroke-width="1"></path><path id="Path_3105" data-name="Path 3105" d="M440.61,492.711l1.42,3.407c1.178-.491,2.344-1.024,3.47-1.59l-1.655-3.3c-1.048.527-2.138,1.023-3.234,1.481Z" transform="translate(-1622.901 5509.693)" fill="#fff" stroke="#051c2c" stroke-width="1"></path><path id="Path_3106" data-name="Path 3106" d="M141.6,130.2l-2.955-2.213c-.762,1.017-1.5,2.073-2.182,3.14l3.1,2c.64-.993,1.323-1.977,2.032-2.924Z" transform="translate(-1382.91 5796.309)" fill="#fff" stroke="#051c2c" stroke-width="1"></path><path id="Path_3107" data-name="Path 3107" d="M100.951,300.525c-.168-1.174-.295-2.364-.378-3.538l-3.683.26c.089,1.262.227,2.54.406,3.8Z" transform="translate(-1351.689 5662.96)" fill="#fff" stroke="#051c2c" stroke-width="1"></path><path id="Path_3108" data-name="Path 3108" d="M183.77,79.285l2.42,2.787c.895-.775,1.825-1.529,2.769-2.236l-2.215-2.953c-1.014.76-2.014,1.568-2.974,2.4Z" transform="translate(-1420.241 5836.633)" fill="#fff" stroke="#051c2c" stroke-width="1"></path><path id="Path_3109" data-name="Path 3109" d="M212.73,59.246l2,3.1c.986-.637,2.014-1.249,3.056-1.82l-1.777-3.238c-1.118.615-2.222,1.272-3.28,1.953Z" transform="translate(-1443.092 5852.09)" fill="#fff" stroke="#051c2c" stroke-width="1"></path><path id="Path_3110" data-name="Path 3110" d="M96.381,262.04c-.087,1.261-.131,2.535-.131,3.79v.026l3.692-.026c0-1.17.04-2.359.122-3.533Z" transform="translate(-1351.183 5690.535)" fill="#fff" stroke="#051c2c" stroke-width="1"></path><path id="Path_3111" data-name="Path 3111" d="M99.448,226.19c-.269,1.244-.494,2.508-.672,3.762l3.654.518c.164-1.167.377-2.346.625-3.5Z" transform="translate(-1353.177 5718.822)" fill="#fff" stroke="#051c2c" stroke-width="1"></path><path id="Path_3112" data-name="Path 3112" d="M246,47.054c1.082-.5,2.185-.954,3.28-1.362l-1.289-3.458c-1.178.438-2.364.93-3.529,1.463Z" transform="translate(-1468.127 5863.973)" fill="#fff" stroke="#051c2c" stroke-width="1"></path><path id="Path_3113" data-name="Path 3113" d="M163.386,103.229l-2.612-2.61c-.9.9-1.776,1.843-2.6,2.8l2.791,2.416c.772-.892,1.588-1.768,2.426-2.606Z" transform="translate(-1400.041 5817.904)" fill="#fff" stroke="#051c2c" stroke-width="1"></path><path id="Path_3114" data-name="Path 3114" d="M348.739,28.242l-.3,1.663a1.781,1.781,0,0,0,.33.031c1.176,0,2.362.04,3.531.122l.259-3.681c-1.253-.088-2.529-.133-3.79-.133l-.028,0Z" transform="translate(-1550.171 5876.591)" fill="#fff" stroke="#051c2c" stroke-width="1"></path><path id="Path_3115" data-name="Path 3115" d="M387.028,33.061l.777-3.608c-1.231-.266-2.5-.493-3.762-.672l-.521,3.654c1.178.167,2.358.38,3.505.625Z" transform="translate(-1577.856 5874.588)" fill="#fff" stroke="#051c2c" stroke-width="1"></path><path id="Path_3116" data-name="Path 3116" d="M279.414,36.511c1.14-.336,2.3-.631,3.446-.878l-.78-3.609c-1.231.268-2.479.583-3.7.944Z" transform="translate(-1494.889 5872.029)" fill="#fff" stroke="#051c2c" stroke-width="1"></path><path id="Path_3117" data-name="Path 3117" d="M124.026,160.219l-3.239-1.77c-.607,1.113-1.185,2.263-1.713,3.422l3.358,1.532c.493-1.078,1.03-2.148,1.594-3.184Z" transform="translate(-1369.193 5772.273)" fill="#fff" stroke="#051c2c" stroke-width="1"></path><path id="Path_3118" data-name="Path 3118" d="M314.286,30.965c1.176-.17,2.367-.295,3.537-.378l-.259-3.681c-1.259.087-2.538.223-3.8.4Z" transform="translate(-1522.813 5876.067)" fill="#fff" stroke="#051c2c" stroke-width="1"></path><path id="Path_3119" data-name="Path 3119" d="M111.092,192.709l-3.459-1.286c-.445,1.192-.849,2.414-1.206,3.627l3.544,1.039c.33-1.132.707-2.269,1.121-3.38Z" transform="translate(-1359.214 5746.256)" fill="#fff" stroke="#051c2c" stroke-width="1"></path><path id="Path_3120" data-name="Path 3120" d="M444.954,17.5h-24a1.845,1.845,0,0,0-1.846,1.846v3.692h-3.692a5.544,5.544,0,0,0-5.537,5.537v1.846h-1.846a5.544,5.544,0,0,0-5.537,5.537V41.5a1.845,1.845,0,0,0,1.846,1.846h4.031a5.505,5.505,0,0,0,10.4,0h11.754a5.505,5.505,0,0,0,10.4,0h4.031A1.845,1.845,0,0,0,446.8,41.5V19.346a1.845,1.845,0,0,0-1.846-1.846ZM406.192,35.958a1.848,1.848,0,0,1,1.846-1.846h3.692a1.845,1.845,0,0,0,1.846-1.846V28.575a1.848,1.848,0,0,1,1.846-1.846h3.692V39.65H406.192Zm36.916,3.692H422.8V21.192h20.3Z" transform="translate(-1592.83 5883.489)" fill="#fff" stroke="#051c2c" stroke-width="1"></path><path id="Path_3121" data-name="Path 3121" d="M126.262,362.921h-1.846v-1.846a5.544,5.544,0,0,0-5.537-5.537h-3.692v-3.692A1.845,1.845,0,0,0,113.341,350h-24a1.845,1.845,0,0,0-1.846,1.846V374a1.845,1.845,0,0,0,1.846,1.846h4.031a5.505,5.505,0,0,0,10.4,0h11.754a5.505,5.505,0,0,0,10.4,0h4.031A1.845,1.845,0,0,0,131.8,374v-5.537a5.544,5.544,0,0,0-5.537-5.537Zm-35.07-9.229h20.3V372.15h-20.3Zm36.916,18.458H115.187V359.229h3.692a1.848,1.848,0,0,1,1.846,1.846v3.692a1.845,1.845,0,0,0,1.846,1.846h3.692a1.848,1.848,0,0,1,1.846,1.846Z" transform="translate(-1344.279 5621.13)" fill="#fff" stroke="#051c2c" stroke-width="1"></path></g></g></svg> 