<?xml version="1.0" encoding="UTF-8"?> <svg xmlns="http://www.w3.org/2000/svg" width="300" height="186" viewBox="0 0 300 186"><g id="Group_2942" data-name="Group 2942" transform="translate(-1191 -2957)"><rect id="Rectangle_67" data-name="Rectangle 67" width="300" height="186" transform="translate(1191 2957)" fill="#051c2c"></rect><g id="Group_2941" data-name="Group 2941" transform="translate(-355.126 67.957)"><path id="Path_3122" data-name="Path 3122" d="M181.015,199.327a6.581,6.581,0,0,0,.863-3.234V167.639a6.6,6.6,0,0,0-6.593-6.593H144.566a6.6,6.6,0,0,0-6.593,6.593v28.455a6.8,6.8,0,0,0,.808,3.18H99.207a16.311,16.311,0,1,0,0,32.623h6.144v5.767a5.136,5.136,0,0,0,5.138,5.138h57.9a5.136,5.136,0,0,0,5.138-5.138V231.9h6.144a16.312,16.312,0,0,0,1.348-32.569Zm-17.749-34.815v6.97l-2.605-1.545a1.7,1.7,0,0,0-.88-.233,1.74,1.74,0,0,0-.9.251l-2.3,1.437v-6.9h6.682ZM141.4,196.092V167.638a3.182,3.182,0,0,1,3.162-3.18h8.569v10.024a1.688,1.688,0,0,0,.88,1.491,1.668,1.668,0,0,0,.826.216,1.74,1.74,0,0,0,.9-.251l4.042-2.515,4.293,2.533a1.739,1.739,0,0,0,1.724.018,1.712,1.712,0,0,0,.863-1.491V164.458h8.569a3.17,3.17,0,0,1,3.162,3.18v28.455a3.182,3.182,0,0,1-3.162,3.18H144.566a3.194,3.194,0,0,1-3.162-3.18Zm28.707,41.549a1.706,1.706,0,0,1-1.707,1.707h-57.9a1.706,1.706,0,0,1-1.707-1.707v-5.767h61.328v5.767Zm9.575-9.179H99.208a12.88,12.88,0,1,1,0-25.76h80.478a12.88,12.88,0,1,1,0,25.76Z" transform="translate(1556.231 2795.363)" fill="#fff" stroke="#051c2c" stroke-width="1"></path><path id="Path_3123" data-name="Path 3123" d="M506.536,380.55a8.048,8.048,0,1,0,8.048,8.048A8.058,8.058,0,0,0,506.536,380.55Zm0,12.682a4.616,4.616,0,1,1,4.616-4.616A4.615,4.615,0,0,1,506.536,393.232Z" transform="translate(1228.626 2622.333)" fill="#fff" stroke="#051c2c" stroke-width="1"></path><path id="Path_3124" data-name="Path 3124" d="M413.286,380.55a8.048,8.048,0,1,0,8.048,8.048A8.058,8.058,0,0,0,413.286,380.55Zm0,12.682a4.616,4.616,0,1,1,4.616-4.616A4.615,4.615,0,0,1,413.286,393.232Z" transform="translate(1302.134 2622.333)" fill="#fff" stroke="#051c2c" stroke-width="1"></path><path id="Path_3125" data-name="Path 3125" d="M320.036,380.55a8.048,8.048,0,1,0,8.048,8.048A8.058,8.058,0,0,0,320.036,380.55Zm0,12.682a4.616,4.616,0,1,1,4.616-4.616A4.615,4.615,0,0,1,320.036,393.232Z" transform="translate(1375.641 2622.333)" fill="#fff" stroke="#051c2c" stroke-width="1"></path><path id="Path_3126" data-name="Path 3126" d="M226.786,380.55a8.048,8.048,0,1,0,8.048,8.048A8.058,8.058,0,0,0,226.786,380.55Zm0,12.682a4.616,4.616,0,1,1,4.616-4.616A4.615,4.615,0,0,1,226.786,393.232Z" transform="translate(1449.149 2622.333)" fill="#fff" stroke="#051c2c" stroke-width="1"></path><path id="Path_3127" data-name="Path 3127" d="M133.536,380.55a8.048,8.048,0,1,0,8.048,8.048A8.058,8.058,0,0,0,133.536,380.55Zm0,12.682a4.616,4.616,0,1,1,4.616-4.616A4.615,4.615,0,0,1,133.536,393.232Z" transform="translate(1522.656 2622.333)" fill="#fff" stroke="#051c2c" stroke-width="1"></path><path id="Path_3128" data-name="Path 3128" d="M84.12,45.194,87.551,46.2a23.81,23.81,0,0,0,1.868,4.527l-1.707,3.126A1.714,1.714,0,0,0,88,55.882l5.461,5.461a1.688,1.688,0,0,0,2.029.288l3.144-1.707a21.641,21.641,0,0,0,4.527,1.868l1.006,3.431a1.708,1.708,0,0,0,1.635,1.24h7.724a1.693,1.693,0,0,0,1.635-1.24l1.006-3.431a24.285,24.285,0,0,0,4.527-1.868l3.144,1.707a1.714,1.714,0,0,0,2.03-.288l5.461-5.461a1.688,1.688,0,0,0,.288-2.03l-1.707-3.144a21.64,21.64,0,0,0,1.868-4.527l3.431-1.006a1.7,1.7,0,0,0,1.221-1.652V35.8a1.735,1.735,0,0,0-1.221-1.652l-3.431-1.006a24.286,24.286,0,0,0-1.868-4.527l1.707-3.144a1.714,1.714,0,0,0-.288-2.029l-5.461-5.461a1.715,1.715,0,0,0-2.03-.288L120.694,19.4a21.64,21.64,0,0,0-4.527-1.868l-.987-3.415a1.677,1.677,0,0,0-1.635-1.222H105.82a1.693,1.693,0,0,0-1.635,1.24l-1.024,3.412a24.286,24.286,0,0,0-4.527,1.868l-3.125-1.706a1.715,1.715,0,0,0-2.03.287L88,23.475a1.712,1.712,0,0,0-.287,2.03l1.707,3.144a21.64,21.64,0,0,0-1.868,4.527l-3.431.988A1.7,1.7,0,0,0,82.9,35.817v7.724a1.713,1.713,0,0,0,1.221,1.652Zm2.192-8.1,3.108-.916a1.722,1.722,0,0,0,1.186-1.24,19.27,19.27,0,0,1,2.245-5.407,1.7,1.7,0,0,0,.036-1.707l-1.545-2.837,3.646-3.646L97.844,22.9a1.749,1.749,0,0,0,1.707-.036,20.127,20.127,0,0,1,5.407-2.245,1.722,1.722,0,0,0,1.24-1.186l.916-3.108h5.174l.916,3.108a1.722,1.722,0,0,0,1.24,1.186,19.27,19.27,0,0,1,5.407,2.245,1.7,1.7,0,0,0,1.707.036l2.856-1.563,3.646,3.646L126.5,27.841a1.749,1.749,0,0,0,.036,1.707,20.375,20.375,0,0,1,2.245,5.407,1.722,1.722,0,0,0,1.186,1.24l3.108.916v5.174l-3.108.916a1.722,1.722,0,0,0-1.186,1.24,19.271,19.271,0,0,1-2.245,5.407,1.7,1.7,0,0,0-.036,1.707l1.563,2.856-3.646,3.646-2.856-1.563a1.749,1.749,0,0,0-1.707.036,20.127,20.127,0,0,1-5.407,2.245,1.722,1.722,0,0,0-1.24,1.186l-.916,3.108h-5.174l-.916-3.108a1.722,1.722,0,0,0-1.24-1.186,19.27,19.27,0,0,1-5.407-2.245,1.749,1.749,0,0,0-1.707-.036l-2.856,1.563-3.646-3.646L92.9,51.555a1.749,1.749,0,0,0-.036-1.707,19.886,19.886,0,0,1-2.245-5.407,1.722,1.722,0,0,0-1.186-1.24l-3.108-.916V37.092Z" transform="translate(1556.229 2912.148)" fill="#fff" stroke="#051c2c" stroke-width="1"></path><path id="Path_3129" data-name="Path 3129" d="M157.642,101.544a13.9,13.9,0,1,0-13.9-13.9A13.915,13.915,0,0,0,157.642,101.544Zm0-24.394a10.473,10.473,0,1,1-10.473,10.473A10.484,10.484,0,0,1,157.642,77.15Z" transform="translate(1508.27 2864.188)" fill="#fff" stroke="#051c2c" stroke-width="1"></path></g></g></svg> 