<?xml version="1.0" encoding="UTF-8"?> <svg xmlns="http://www.w3.org/2000/svg" width="300" height="186" viewBox="0 0 300 186" fill="none"><rect width="300" height="186" fill="#051C2C"></rect><path d="M174.854 87.5479C175.616 90.191 176.002 92.9284 176 95.6792V142.533H155.2V146H177.734C178.193 146 178.634 145.817 178.959 145.492C179.284 145.167 179.467 144.726 179.467 144.267V95.6792C179.469 92.6027 179.037 89.5414 178.185 86.5854L174.854 87.5479Z" fill="white" stroke="#051C2C" stroke-width="0.3"></path><path d="M136.133 99.2001C136.133 97.8288 135.727 96.4883 134.965 95.3481C134.203 94.2079 133.12 93.3193 131.853 92.7945C130.586 92.2697 129.192 92.1324 127.847 92.3999C126.502 92.6675 125.267 93.3278 124.297 94.2975C123.328 95.2671 122.667 96.5025 122.4 97.8474C122.132 99.1924 122.27 100.586 122.794 101.853C123.319 103.12 124.208 104.203 125.348 104.965C126.488 105.727 127.829 106.133 129.2 106.133C131.038 106.131 132.8 105.4 134.1 104.1C135.4 102.801 136.131 101.038 136.133 99.2001ZM125.733 99.2001C125.733 98.5144 125.937 97.8442 126.318 97.2741C126.698 96.704 127.24 96.2597 127.873 95.9973C128.507 95.7349 129.204 95.6662 129.876 95.8C130.549 95.9338 131.166 96.2639 131.651 96.7488C132.136 97.2336 132.466 97.8513 132.6 98.5237C132.734 99.1962 132.665 99.8932 132.403 100.527C132.14 101.16 131.696 101.702 131.126 102.082C130.556 102.463 129.886 102.667 129.2 102.667C128.281 102.666 127.4 102.3 126.75 101.65C126.1 101 125.734 100.119 125.733 99.2001Z" fill="white" stroke="#051C2C" stroke-width="0.3"></path><path d="M159.892 138.559L165.092 133.359C166.2 133.888 167.458 134.008 168.646 133.699C169.833 133.39 170.873 132.671 171.582 131.669C172.291 130.667 172.622 129.447 172.518 128.224C172.414 127.001 171.881 125.855 171.013 124.987C170.145 124.119 168.999 123.586 167.776 123.482C166.553 123.378 165.333 123.709 164.331 124.418C163.329 125.126 162.61 126.166 162.301 127.354C161.991 128.541 162.112 129.8 162.641 130.907L157.949 135.6H151.733V132.133H156.933V128.667H151.733V123.467H154.482L157.441 126.426L159.892 123.974L156.426 120.508C156.265 120.347 156.074 120.219 155.863 120.132C155.653 120.045 155.428 120 155.2 120H151.733V116.533H162.432C162.84 117.69 163.645 118.665 164.703 119.285C165.761 119.906 167.005 120.133 168.214 119.925C169.423 119.718 170.519 119.09 171.31 118.152C172.101 117.214 172.534 116.027 172.534 114.8C172.534 113.573 172.101 112.386 171.31 111.448C170.519 110.51 169.423 109.882 168.214 109.675C167.005 109.467 165.761 109.694 164.703 110.315C163.645 110.935 162.84 111.91 162.432 113.067H151.733V109.6H158.667C158.894 109.6 159.12 109.555 159.33 109.468C159.54 109.381 159.732 109.253 159.892 109.092L165.092 103.892L165.091 103.891C166.198 104.42 167.456 104.541 168.644 104.232C169.831 103.923 170.871 103.204 171.579 102.203C172.288 101.201 172.619 99.9812 172.515 98.7588C172.411 97.5364 171.879 96.39 171.011 95.5225C170.144 94.655 168.997 94.1222 167.775 94.0182C166.552 93.9142 165.333 94.2458 164.331 94.9544C163.329 95.6629 162.611 96.7027 162.302 97.89C161.993 99.0774 162.114 100.336 162.643 101.443L162.642 101.441L157.949 106.133H151.733V102.667H156.933V99.2H151.733V95.7333H156.933V92.2667H151.733V87.0667H148.267V142.533H129.116C127.97 142.537 126.835 142.314 125.776 141.875C124.718 141.436 123.757 140.791 122.95 139.977C122.15 139.178 121.517 138.228 121.087 137.182C120.658 136.137 120.441 135.016 120.449 133.885L120.488 125.2H129.2V121.733H120.503L120.533 114.808C120.534 114.579 120.49 114.353 120.404 114.142C120.317 113.931 120.19 113.739 120.028 113.577C119.867 113.415 119.676 113.287 119.465 113.199C119.254 113.112 119.028 113.067 118.8 113.067H110.695L117.937 87.6055L117.952 87.5535L114.625 86.5798L114.615 86.6151C114.615 86.6151 114.607 86.6435 114.607 86.6446L106.733 114.326C106.66 114.584 106.647 114.855 106.697 115.119C106.746 115.382 106.856 115.631 107.017 115.845C107.179 116.059 107.388 116.232 107.628 116.352C107.868 116.471 108.132 116.533 108.4 116.533H117.059L116.982 133.869C116.978 135.463 117.29 137.043 117.898 138.516C118.506 139.99 119.4 141.329 120.528 142.456C121.655 143.584 122.994 144.477 124.468 145.085C125.942 145.693 127.521 146.004 129.116 146H150C150.46 146 150.901 145.817 151.226 145.492C151.551 145.167 151.733 144.726 151.733 144.267V139.067H158.667C158.894 139.067 159.12 139.022 159.33 138.935C159.54 138.848 159.732 138.72 159.892 138.559ZM167.333 126.933C167.676 126.933 168.011 127.035 168.296 127.225C168.581 127.416 168.804 127.687 168.935 128.003C169.066 128.32 169.1 128.669 169.033 129.005C168.967 129.341 168.802 129.65 168.559 129.892C168.317 130.135 168.008 130.3 167.672 130.367C167.335 130.434 166.987 130.399 166.67 130.268C166.353 130.137 166.083 129.915 165.892 129.63C165.702 129.345 165.6 129.01 165.6 128.667C165.601 128.207 165.783 127.767 166.108 127.442C166.433 127.117 166.874 126.934 167.333 126.933ZM167.333 113.067C167.676 113.067 168.011 113.168 168.296 113.359C168.581 113.549 168.804 113.82 168.935 114.137C169.066 114.453 169.1 114.802 169.033 115.138C168.967 115.474 168.802 115.783 168.559 116.026C168.317 116.268 168.008 116.433 167.672 116.5C167.335 116.567 166.987 116.533 166.67 116.401C166.353 116.27 166.083 116.048 165.892 115.763C165.702 115.478 165.6 115.143 165.6 114.8C165.601 114.34 165.783 113.9 166.108 113.575C166.433 113.25 166.874 113.067 167.333 113.067ZM167.333 97.4667C167.676 97.4667 168.011 97.5683 168.296 97.7588C168.581 97.9493 168.804 98.22 168.935 98.5367C169.066 98.8534 169.1 99.2019 169.033 99.5382C168.967 99.8744 168.802 100.183 168.559 100.426C168.317 100.668 168.008 100.833 167.672 100.9C167.335 100.967 166.987 100.933 166.67 100.801C166.353 100.67 166.083 100.448 165.892 100.163C165.702 99.878 165.6 99.5428 165.6 99.2C165.601 98.7405 165.783 98.2999 166.108 97.9749C166.433 97.65 166.874 97.4672 167.333 97.4667Z" fill="white" stroke="#051C2C" stroke-width="0.3"></path><path d="M144.8 135.6H141.333V139.067H144.8V135.6Z" fill="white" stroke="#051C2C" stroke-width="0.3"></path><path d="M144.8 121.733H141.333V125.2H144.8V121.733Z" fill="white" stroke="#051C2C" stroke-width="0.3"></path><path d="M144.8 107.867H141.333V111.333H144.8V107.867Z" fill="white" stroke="#051C2C" stroke-width="0.3"></path><path d="M144.8 94H141.333V97.4667H144.8V94Z" fill="white" stroke="#051C2C" stroke-width="0.3"></path><path d="M172.533 135.6H167.333V139.067H172.533V135.6Z" fill="white" stroke="#051C2C" stroke-width="0.3"></path><path d="M181.2 42H118.8C113.283 42 107.993 44.1914 104.092 48.0922C100.191 51.9929 98 57.2835 98 62.8C98 68.3165 100.191 73.6071 104.092 77.5078C107.993 81.4086 113.283 83.6 118.8 83.6H160.4V90.5333C160.4 90.8518 160.488 91.1641 160.654 91.436C160.819 91.7079 161.057 91.9289 161.34 92.0746C161.623 92.2203 161.941 92.2852 162.259 92.2622C162.577 92.2391 162.882 92.1289 163.141 91.9438L174.822 83.6H181.2C186.717 83.6 192.007 81.4086 195.908 77.5078C199.809 73.6071 202 68.3165 202 62.8C202 57.2835 199.809 51.9929 195.908 48.0922C192.007 44.1914 186.717 42 181.2 42ZM181.2 80.1333H174.267C173.905 80.1333 173.553 80.2462 173.259 80.4562L163.867 87.165V81.8667C163.867 81.407 163.684 80.9661 163.359 80.641C163.034 80.3159 162.593 80.1333 162.133 80.1333H118.8C114.203 80.1333 109.794 78.3071 106.543 75.0565C103.293 71.8059 101.467 67.3971 101.467 62.8C101.467 58.2029 103.293 53.7941 106.543 50.5435C109.794 47.2929 114.203 45.4667 118.8 45.4667H181.2C185.797 45.4667 190.206 47.2929 193.457 50.5435C196.707 53.7941 198.533 58.2029 198.533 62.8C198.533 67.3971 196.707 71.8059 193.457 75.0565C190.206 78.3071 185.797 80.1333 181.2 80.1333Z" fill="white" stroke="#051C2C" stroke-width="0.3"></path><path d="M150 48.9333C147.257 48.9333 144.576 49.7466 142.296 51.2703C140.016 52.794 138.238 54.9597 137.189 57.4935C136.139 60.0273 135.865 62.8154 136.4 65.5053C136.935 68.1951 138.255 70.6659 140.195 72.6052C142.134 74.5445 144.605 75.8652 147.295 76.4002C149.985 76.9353 152.773 76.6607 155.307 75.6111C157.84 74.5616 160.006 72.7843 161.53 70.5039C163.053 68.2236 163.867 65.5426 163.867 62.8C163.863 59.1236 162.4 55.599 159.801 52.9994C157.201 50.3998 153.676 48.9375 150 48.9333ZM150 73.2C147.943 73.2 145.932 72.5901 144.222 71.4473C142.512 70.3045 141.179 68.6803 140.392 66.7799C139.604 64.8796 139.399 62.7885 139.8 60.7711C140.201 58.7537 141.192 56.9006 142.646 55.4461C144.101 53.9916 145.954 53.0011 147.971 52.5999C149.988 52.1986 152.08 52.4045 153.98 53.1917C155.88 53.9788 157.504 55.3118 158.647 57.0221C159.79 58.7324 160.4 60.7431 160.4 62.8C160.397 65.5573 159.3 68.2009 157.351 70.1506C155.401 72.1003 152.757 73.197 150 73.2Z" fill="white" stroke="#051C2C" stroke-width="0.3"></path><path d="M181.2 48.9333C178.457 48.9333 175.776 49.7466 173.496 51.2703C171.215 52.794 169.438 54.9597 168.389 57.4935C167.339 60.0273 167.064 62.8154 167.599 65.5053C168.135 68.1951 169.455 70.6659 171.394 72.6052C173.334 74.5445 175.805 75.8652 178.494 76.4002C181.184 76.9353 183.972 76.6607 186.506 75.6111C189.04 74.5616 191.206 72.7843 192.729 70.5039C194.253 68.2236 195.066 65.5426 195.066 62.8C195.062 59.1236 193.6 55.599 191 52.9994C188.401 50.3998 184.876 48.9375 181.2 48.9333ZM181.2 73.2C179.143 73.2 177.132 72.5901 175.422 71.4473C173.711 70.3045 172.378 68.6803 171.591 66.7799C170.804 64.8796 170.598 62.7885 171 60.7711C171.401 58.7537 172.391 56.9006 173.846 55.4461C175.3 53.9916 177.153 53.0011 179.171 52.5999C181.188 52.1986 183.279 52.4045 185.18 53.1917C187.08 53.9788 188.704 55.3118 189.847 57.0221C190.99 58.7324 191.6 60.7431 191.6 62.8C191.597 65.5573 190.5 68.2009 188.55 70.1506C186.601 72.1003 183.957 73.197 181.2 73.2Z" fill="white" stroke="#051C2C" stroke-width="0.3"></path><path d="M118.8 48.9333C116.057 48.9333 113.376 49.7466 111.096 51.2703C108.816 52.794 107.038 54.9597 105.989 57.4935C104.939 60.0273 104.665 62.8154 105.2 65.5053C105.735 68.1951 107.055 70.6659 108.995 72.6052C110.934 74.5445 113.405 75.8652 116.095 76.4002C118.784 76.9353 121.573 76.6607 124.106 75.6111C126.64 74.5616 128.806 72.7843 130.329 70.5039C131.853 68.2236 132.666 65.5426 132.666 62.8C132.662 59.1236 131.2 55.599 128.6 52.9994C126.001 50.3998 122.476 48.9375 118.8 48.9333ZM118.8 73.2C116.743 73.2 114.732 72.5901 113.022 71.4473C111.312 70.3045 109.979 68.6803 109.191 66.7799C108.404 64.8796 108.198 62.7885 108.6 60.7711C109.001 58.7537 109.991 56.9006 111.446 55.4461C112.9 53.9916 114.753 53.0011 116.771 52.5999C118.788 52.1986 120.879 52.4045 122.78 53.1917C124.68 53.9788 126.304 55.3118 127.447 57.0221C128.59 58.7324 129.2 60.7431 129.2 62.8C129.197 65.5573 128.1 68.2009 126.15 70.1506C124.201 72.1003 121.557 73.197 118.8 73.2Z" fill="white" stroke="#051C2C" stroke-width="0.3"></path><path d="M114.467 62.8C115.903 62.8 117.067 61.636 117.067 60.2C117.067 58.7641 115.903 57.6 114.467 57.6C113.031 57.6 111.867 58.7641 111.867 60.2C111.867 61.636 113.031 62.8 114.467 62.8Z" fill="white" stroke="#051C2C" stroke-width="0.3"></path><path d="M123.133 62.8C124.569 62.8 125.733 61.636 125.733 60.2C125.733 58.7641 124.569 57.6 123.133 57.6C121.697 57.6 120.533 58.7641 120.533 60.2C120.533 61.636 121.697 62.8 123.133 62.8Z" fill="white" stroke="#051C2C" stroke-width="0.3"></path><path d="M112.643 66.4744L114.556 69.3652C115.814 68.5308 117.29 68.0858 118.8 68.0858C120.309 68.0858 121.785 68.5308 123.043 69.3652L124.956 66.4744C123.131 65.2636 120.99 64.6177 118.8 64.6177C116.61 64.6177 114.468 65.2636 112.643 66.4744Z" fill="white" stroke="#051C2C" stroke-width="0.3"></path><path d="M145.667 62.8C147.103 62.8 148.267 61.636 148.267 60.2C148.267 58.7641 147.103 57.6 145.667 57.6C144.231 57.6 143.067 58.7641 143.067 60.2C143.067 61.636 144.231 62.8 145.667 62.8Z" fill="white" stroke="#051C2C" stroke-width="0.3"></path><path d="M154.333 62.8C155.769 62.8 156.933 61.636 156.933 60.2C156.933 58.7641 155.769 57.6 154.333 57.6C152.897 57.6 151.733 58.7641 151.733 60.2C151.733 61.636 152.897 62.8 154.333 62.8Z" fill="white" stroke="#051C2C" stroke-width="0.3"></path><path d="M155.2 66.2667H144.8V69.7334H155.2V66.2667Z" fill="white" stroke="#051C2C" stroke-width="0.3"></path><path d="M176.867 62.8C178.303 62.8 179.467 61.636 179.467 60.2C179.467 58.7641 178.303 57.6 176.867 57.6C175.431 57.6 174.267 58.7641 174.267 60.2C174.267 61.636 175.431 62.8 176.867 62.8Z" fill="white" stroke="#051C2C" stroke-width="0.3"></path><path d="M185.533 62.8C186.969 62.8 188.133 61.636 188.133 60.2C188.133 58.7641 186.969 57.6 185.533 57.6C184.097 57.6 182.933 58.7641 182.933 60.2C182.933 61.636 184.097 62.8 185.533 62.8Z" fill="white" stroke="#051C2C" stroke-width="0.3"></path><path d="M176.957 64.9112L175.043 67.802C176.869 69.0128 179.01 69.6586 181.2 69.6586C183.39 69.6586 185.532 69.0128 187.357 67.802L185.443 64.9112C184.186 65.7458 182.71 66.1909 181.2 66.1909C179.691 66.1909 178.215 65.7458 176.957 64.9112Z" fill="white" stroke="#051C2C" stroke-width="0.3"></path></svg> 