<?xml version="1.0" encoding="UTF-8"?> <svg xmlns="http://www.w3.org/2000/svg" width="300" height="186" viewBox="0 0 300 186" fill="none"><rect width="300" height="186" fill="#051C2C"></rect><path d="M119.766 54.6008C119.766 52.7721 122.564 52.7721 122.564 54.6008V56.3837C127.745 57.3209 128.731 62.7612 126.117 62.7612C125.338 62.7612 124.719 62.144 124.719 61.3668C124.719 60.2925 123.572 59.5153 122.564 59.2182V63.9498C125.177 64.4756 127.516 65.3213 127.516 68.8187C127.516 71.4931 125.154 73.3447 122.564 73.8018V75.5848C122.564 77.3906 119.766 77.3906 119.766 75.5848V73.8018C114.585 72.8646 113.599 67.4243 116.213 67.4243C116.992 67.4243 117.611 68.0415 117.611 68.8187C117.611 69.893 118.758 70.6702 119.766 70.9674V66.2357C117.153 65.7099 114.814 64.8413 114.814 61.3668C114.814 58.7153 117.176 56.8409 119.766 56.3837V54.6008ZM122.564 66.7843V70.9674C123.572 70.6702 124.719 69.893 124.719 68.8187C124.719 67.63 123.779 67.1043 122.564 66.7843ZM119.766 63.4012V59.2182C118.758 59.5153 117.611 60.2696 117.611 61.3668C117.611 62.5555 118.551 63.0812 119.766 63.4012ZM136.893 63.6984H142.487C142.304 60.8182 141.547 58.0981 140.332 55.6294L135.494 58.4181C136.251 60.0639 136.755 61.824 136.893 63.6984ZM142.51 66.4643H136.916C136.755 68.3387 136.274 70.1216 135.517 71.7446L140.355 74.5333C141.57 72.0646 142.327 69.3444 142.51 66.4643ZM119.766 49.389V43.8116C116.878 43.9945 114.149 44.7488 111.673 45.9603L114.493 50.8063C116.121 50.0519 117.886 49.549 119.766 49.389ZM122.564 43.8116V49.389C124.444 49.549 126.209 50.0291 127.837 50.7834L130.634 45.9374C128.158 44.7488 125.429 43.9945 122.564 43.8116ZM112.086 52.1778L109.289 47.3318C106.95 48.8862 104.933 50.8977 103.351 53.2293L108.211 56.018C109.289 54.5322 110.573 53.2292 112.086 52.1778ZM106.836 58.441L101.975 55.6294C100.76 58.0752 100.003 60.8182 99.82 63.6984H105.414C105.575 61.824 106.079 60.0639 106.836 58.441ZM134.096 56.0408L138.956 53.2521C137.397 50.9206 135.38 48.909 133.018 47.3318L130.221 52.1778C131.734 53.2292 133.041 54.5322 134.096 56.0408ZM105.414 66.4643H99.82C100.003 69.3444 100.76 72.0646 101.975 74.5333L106.836 71.7446C106.079 70.1216 105.575 68.3387 105.414 66.4643ZM108.211 74.1447L103.351 76.9334C104.91 79.265 106.927 81.2765 109.289 82.8309L112.086 78.0078C110.573 76.9334 109.266 75.6305 108.211 74.1447ZM114.493 79.3793L111.696 84.2024C114.172 85.4139 116.901 86.1682 119.789 86.3511V80.7736C117.886 80.6365 116.121 80.1336 114.493 79.3793ZM122.564 80.7736V86.3511C125.452 86.1682 128.181 85.4139 130.657 84.2024L127.86 79.3793C126.209 80.1336 124.421 80.6365 122.564 80.7736ZM130.244 77.9849L133.041 82.808C135.38 81.2537 137.397 79.2421 138.979 76.9106L134.119 74.1218C133.041 75.6305 131.734 76.9334 130.244 77.9849ZM111.948 74.2818C117.038 79.3564 125.292 79.3564 130.382 74.2818C135.471 69.2073 135.471 60.9783 130.382 55.9037C125.292 50.8291 117.038 50.8291 111.948 55.9037C106.859 60.9783 106.859 69.2073 111.948 74.2818ZM121.165 89.1855C107.822 89.1855 97 78.3964 97 65.0928C97 51.7892 107.822 41 121.165 41C134.509 41 145.33 51.7892 145.33 65.0928C145.33 78.3964 134.509 89.1855 121.165 89.1855ZM200.515 56.818L184.008 60.1553L186.346 62.7841C186.851 63.3555 186.805 64.2241 186.209 64.727L169.747 79.1735C169.266 79.6079 168.532 79.6307 168.028 79.2421L160.278 74.1676L126.805 102.946L160.118 81.5737C160.622 81.2537 161.264 81.2994 161.723 81.6423L170.527 87.8826L190.863 69.9845C191.436 69.4816 192.307 69.5273 192.812 70.0988L195.15 72.7503L200.515 56.818ZM191.734 55.7894L202.281 53.6636C203.404 53.4121 204.252 54.4407 203.931 55.4465L197.03 75.9048C196.686 76.9106 195.38 77.1849 194.669 76.3848L191.665 73.0018L171.581 90.6485C171.1 91.1056 170.366 91.1742 169.816 90.7856L160.829 84.4081L111.673 115.953C110.275 116.867 108.739 114.856 110.023 113.735L159.27 71.3788C159.728 70.9674 160.393 70.9217 160.943 71.2645L168.738 76.3848L183.389 63.5613L180.385 60.1553C179.698 59.3782 180.087 58.0981 181.165 57.8924L191.734 55.7894ZM107.065 121.324H120.133C120.913 121.324 121.532 121.942 121.532 122.719V142.606C121.532 143.383 120.913 144 120.133 144H107.065C106.285 144 105.666 143.383 105.666 142.606V122.719C105.689 121.942 106.308 121.324 107.065 121.324ZM118.758 124.09H108.463V141.211H118.758V124.09ZM199.713 103.106V142.583C199.713 143.36 199.094 143.977 198.314 143.977H185.246C184.466 143.977 183.847 143.36 183.847 142.583V83.3795C183.847 82.6023 184.466 81.9851 185.246 81.9851H198.314C199.094 81.9851 199.713 82.6023 199.713 83.3795V103.106ZM196.916 141.188V84.751H186.622V141.188H196.916ZM170.871 98.3975H160.576V141.188H170.871V98.3975ZM159.178 95.6316H172.246C173.026 95.6316 173.645 96.2488 173.645 97.026V142.583C173.645 143.36 173.026 143.977 172.246 143.977H159.178C158.398 143.977 157.779 143.36 157.779 142.583V97.0031C157.802 96.2488 158.421 95.6316 159.178 95.6316ZM133.133 109.072H146.201C146.981 109.072 147.6 109.69 147.6 110.467V142.583C147.6 143.36 146.981 143.977 146.201 143.977H133.133C132.353 143.977 131.734 143.36 131.734 142.583V110.444C131.734 109.69 132.353 109.072 133.133 109.072ZM144.803 111.838H134.509V141.188H144.803V111.838Z" fill="white"></path></svg> 