<?xml version="1.0" encoding="UTF-8"?> <svg xmlns="http://www.w3.org/2000/svg" width="300" height="186" viewBox="0 0 300 186" fill="none"><rect width="300" height="186" fill="#051C2C"></rect><path d="M172.296 135.797H185.653C187.636 131.767 193.317 131.518 195.639 135.374C197.726 134.513 199.162 132.466 199.162 130.145V92.6096C199.162 89.4995 196.612 86.9553 193.506 86.9553C183.821 86.9553 174.127 86.9553 164.443 86.9553C161.339 86.9553 158.787 89.4995 158.787 92.6096V130.143C158.787 132.464 160.223 134.511 162.31 135.371C164.631 131.518 170.312 131.767 172.296 135.797ZM154.549 138.118C155.761 138.118 155.761 139.956 154.549 139.956H130.847C129.641 139.956 129.641 138.118 130.847 138.118H154.549ZM126.822 138.118C128.035 138.118 128.035 139.956 126.822 139.956H124.519C123.314 139.956 123.314 138.118 124.519 138.118H126.822ZM190.206 80.643V85.1173H193.506C197.627 85.1173 201 88.4873 201 92.6096V130.143C201 133.234 199.095 135.946 196.325 137.08C197.1 140.628 194.408 144 190.761 144C187.355 144 184.707 141.026 185.105 137.635H172.843C173.242 141.026 170.593 144 167.188 144C163.548 144 160.849 140.628 161.624 137.08C159.68 136.285 158.134 134.695 157.404 132.719H97.9204C97.4119 132.719 97 132.303 97 131.792V124.606C97 124.097 97.4119 123.685 97.9204 123.685H106.503V118.788C97 115.984 93.8362 103.934 100.925 96.8446C103.084 94.6868 105.987 93.2767 109.209 93.0306V44.9435C109.209 42.2245 111.434 40 114.153 40H168.122C170.842 40 173.067 42.2245 173.067 44.9435V69.5713C180.977 64.7336 191.14 70.5168 191.14 79.7252C191.138 80.2336 190.729 80.643 190.206 80.643ZM188.368 85.1173V80.643H187.187V85.1173H188.368ZM185.34 85.1173V80.643C184.732 80.643 184.309 80.2911 184.309 79.7229C184.309 75.2763 178.877 72.9276 175.66 76.1435C174.739 77.0637 174.166 78.3335 174.166 79.7229C174.166 80.3877 173.651 80.643 173.064 80.643V85.1173H185.34ZM170.046 80.643V85.1173H171.226V80.643H170.046ZM168.207 85.1173V80.643C167.724 80.6177 167.347 80.2129 167.347 79.7229C167.347 76.2723 168.833 73.1369 171.228 70.9516V44.9435C171.228 43.2412 169.827 41.8403 168.124 41.8403H114.156C112.453 41.8403 111.052 43.2412 111.052 44.9435V93.0145C117.973 93.4308 123.417 99.1772 123.417 106.161C123.417 112.068 119.503 117.162 113.986 118.792V123.69H126.822V98.471C126.822 97.9626 127.234 97.5462 127.743 97.5462H154.537C155.046 97.5462 155.458 97.9626 155.458 98.471V123.688H156.951V92.7729H152.881C152.372 92.7729 151.96 92.3612 151.96 91.8528V81.7334C151.96 81.225 152.372 80.8133 152.881 80.8133H164.659C165.168 80.8133 165.579 81.225 165.579 81.7334V85.1173H168.207ZM166.511 93.5758C166.511 92.3635 168.35 92.3635 168.35 93.5758V129.179C168.35 130.384 166.511 130.384 166.511 129.179V93.5758ZM174.206 93.5758C174.206 92.3635 176.044 92.3635 176.044 93.5758V129.179C176.044 130.384 174.206 130.384 174.206 129.179V93.5758ZM181.902 93.5758C181.902 92.3635 183.741 92.3635 183.741 93.5758V129.179C183.741 130.384 181.902 130.384 181.902 129.179V93.5758ZM189.599 93.5758C189.599 92.3635 191.437 92.3635 191.437 93.5758V129.179C191.437 130.384 189.599 130.384 189.599 129.179V93.5758ZM186.09 78.805H189.254C188.784 73.6867 184.44 69.6749 179.242 69.6749C174.045 69.6749 169.7 73.6844 169.224 78.805H172.388C173.138 73.2243 180.038 70.7583 184.123 74.8461C185.172 75.8905 185.883 77.273 186.09 78.805ZM169.914 135.581C167.494 133.161 163.334 134.884 163.334 138.307C163.334 141.723 167.496 143.453 169.914 141.026C171.415 139.526 171.415 137.087 169.914 135.581ZM193.487 135.581C191.067 133.161 186.907 134.884 186.907 138.307C186.907 141.723 191.069 143.446 193.487 141.026C194.988 139.526 194.988 137.087 193.487 135.581ZM156.988 130.874C156.962 130.633 156.949 130.391 156.949 130.145V125.528C137.584 125.528 118.212 125.528 98.8407 125.528V130.874H156.988ZM157.137 90.9349C157.855 87.8179 160.515 85.4508 163.739 85.1518V82.6536H153.799V90.9349H157.137ZM112.14 123.688V111.422C112.14 108.938 108.344 108.938 108.344 111.422V123.688H112.14ZM113.986 111.422V116.86C121.813 114.12 124.186 104.072 118.258 98.1512C113.829 93.723 106.655 93.723 102.232 98.1512C96.3028 104.072 98.6705 114.12 106.505 116.86V111.422C106.505 106.506 113.986 106.506 113.986 111.422ZM142.059 99.3911V123.688H153.617V99.3911H142.059ZM140.218 123.688V99.3911H128.661V123.688H140.218ZM144.015 109.57C144.015 108.358 145.86 108.358 145.86 109.57V113.509C145.86 114.721 144.015 114.721 144.015 113.509V109.57ZM136.417 109.57C136.417 108.358 138.256 108.358 138.256 109.57V113.509C138.256 114.721 136.417 114.721 136.417 113.509V109.57ZM117.619 80.8133H129.397C129.906 80.8133 130.318 81.225 130.318 81.7334V91.8528C130.318 92.3612 129.906 92.7729 129.397 92.7729H117.619C117.11 92.7729 116.698 92.3612 116.698 91.8528V81.7334C116.698 81.225 117.11 80.8133 117.619 80.8133ZM128.479 82.6536H118.539V90.9349H128.479V82.6536ZM135.248 80.8133H147.027C147.535 80.8133 147.947 81.225 147.947 81.7334V91.8528C147.947 92.3612 147.535 92.7729 147.027 92.7729H135.248C134.74 92.7729 134.328 92.3612 134.328 91.8528V81.7334C134.328 81.225 134.74 80.8133 135.248 80.8133ZM146.109 82.6536H136.169V90.9349H146.109V82.6536ZM117.619 64.0757H129.397C129.906 64.0757 130.318 64.4921 130.318 65.0028V75.1221C130.318 75.6305 129.906 76.0423 129.397 76.0423H117.619C117.11 76.0423 116.698 75.6305 116.698 75.1221V65.0028C116.698 64.4921 117.11 64.0757 117.619 64.0757ZM128.479 65.9206H118.539V74.202H128.479V65.9206ZM135.248 64.0757H147.027C147.535 64.0757 147.947 64.4921 147.947 65.0028V75.1221C147.947 75.6305 147.535 76.0423 147.027 76.0423H135.248C134.74 76.0423 134.328 75.6305 134.328 75.1221V65.0028C134.328 64.4921 134.74 64.0757 135.248 64.0757ZM146.109 65.9206H136.169V74.202H146.109V65.9206ZM152.878 64.0757H164.657C165.165 64.0757 165.577 64.4921 165.577 65.0028V75.1221C165.577 75.6305 165.165 76.0423 164.657 76.0423H152.878C152.37 76.0423 151.958 75.6305 151.958 75.1221V65.0028C151.96 64.4921 152.37 64.0757 152.878 64.0757ZM163.739 65.9206H153.799V74.202H163.739V65.9206ZM117.619 47.3428H129.397C129.906 47.3428 130.318 47.7546 130.318 48.263V58.3823C130.318 58.8907 129.906 59.3094 129.397 59.3094H117.619C117.11 59.3094 116.698 58.893 116.698 58.3823V48.263C116.698 47.7546 117.11 47.3428 117.619 47.3428ZM128.479 49.1808H118.539V57.4622H128.479V49.1808ZM135.248 47.3428H147.027C147.535 47.3428 147.947 47.7546 147.947 48.263V58.3823C147.947 58.8907 147.535 59.3094 147.027 59.3094H135.248C134.74 59.3094 134.328 58.893 134.328 58.3823V48.263C134.328 47.7546 134.74 47.3428 135.248 47.3428ZM146.109 49.1808H136.169V57.4622H146.109V49.1808ZM152.878 47.3428H164.657C165.165 47.3428 165.577 47.7546 165.577 48.263V58.3823C165.577 58.8907 165.165 59.3094 164.657 59.3094H152.878C152.37 59.3094 151.958 58.893 151.958 58.3823V48.263C151.96 47.7546 152.37 47.3428 152.878 47.3428ZM163.739 49.1808H153.799V57.4622H163.739V49.1808Z" fill="white"></path></svg> 