<?xml version="1.0" encoding="UTF-8"?> <svg xmlns="http://www.w3.org/2000/svg" width="300" height="186" viewBox="0 0 300 186" fill="none"><rect width="300" height="186" fill="#051C2C"></rect><path fill-rule="evenodd" clip-rule="evenodd" d="M197.963 107.874C202.117 107.874 205.878 109.552 208.596 112.258C211.319 114.968 213 118.706 213 122.84C213 126.975 211.314 130.718 208.596 133.423C205.878 136.134 202.117 137.807 197.963 137.807C193.809 137.807 190.053 136.129 187.33 133.423C184.607 130.713 182.926 126.97 182.926 122.84C182.926 118.706 184.612 114.968 187.33 112.258C190.053 109.552 193.809 107.874 197.963 107.874ZM111.347 66.8292H115.252V79.7944H111.347V66.8292ZM105.986 72.5733H109.8V79.7891H105.986V72.5733ZM100.624 69.9104H104.438V79.7946H100.624V69.9104ZM95.2943 74.5534H99.0761V79.7946H95.2943V74.5534ZM138.113 89.4778C137.74 89.4725 137.373 89.3084 137.118 88.996C136.671 88.4402 136.762 87.6302 137.315 87.1855L145.389 80.7002C145.655 80.4884 145.979 80.3984 146.293 80.4196L148.458 80.5096L150.187 80.5837L155.942 75.9619C153.336 72.3407 151.804 67.8991 151.804 63.1078C151.804 57.0038 154.288 51.4768 158.309 47.4746C162.33 43.4776 167.878 41 174.016 41C180.149 41 185.702 43.4723 189.718 47.4746C193.739 51.4769 196.223 56.9986 196.223 63.1078C196.223 69.2119 193.739 74.7389 189.718 78.7411C185.702 82.7381 180.149 85.2157 174.016 85.2157C167.883 85.2157 162.33 82.7434 158.309 78.7411C158.059 78.4923 157.809 78.2329 157.57 77.9682L151.814 82.59L151.522 84.2841L151.149 86.4547C151.091 86.7988 150.899 87.0847 150.639 87.2753L142.66 93.6812C142.378 93.93 141.985 94.057 141.58 93.9882C140.873 93.8718 140.4 93.2047 140.522 92.5005L140.894 90.3299L141.022 89.5993L140.283 89.5676L138.113 89.4778ZM146.628 83.0138L141.602 87.0532L142.597 87.0956C143.309 87.122 143.862 87.7203 143.836 88.4297C143.836 88.4879 143.825 88.5408 143.82 88.5938H143.825L143.655 89.5785L148.676 85.5443L148.969 83.8502L149.096 83.1196L148.357 83.0879L146.628 83.0138ZM157.969 74.3474L162.107 71.0227C160.586 68.7621 159.703 66.041 159.703 63.1134C159.703 59.18 161.304 55.6171 163.894 53.0388C166.485 50.4606 170.064 48.867 174.016 48.867C177.968 48.867 181.548 50.4606 184.139 53.0388C186.729 55.6169 188.33 59.1798 188.33 63.1134C188.33 67.047 186.729 70.6098 184.139 73.1828C181.548 75.761 177.969 77.3545 174.016 77.3545C170.064 77.3545 166.485 75.761 163.894 73.1828C163.841 73.1299 163.788 73.0716 163.735 73.0187L159.591 76.3433C159.772 76.5392 159.953 76.7298 160.139 76.9151C163.687 80.4463 168.596 82.6328 174.012 82.6328C179.427 82.6328 184.331 80.4463 187.885 76.9151C191.432 73.3839 193.629 68.5028 193.629 63.1074C193.629 57.712 191.432 52.8317 187.885 49.2998C184.337 45.7686 179.427 43.5821 174.012 43.5821C168.597 43.5821 163.687 45.7686 160.139 49.2998C156.591 52.831 154.394 57.712 154.394 63.1074C154.394 67.295 155.719 71.1709 157.969 74.3474ZM164.133 69.3922L168.309 66.041C167.851 65.1621 167.596 64.1722 167.596 63.1133C167.596 61.3503 168.314 59.7568 169.474 58.5975C170.633 57.4434 172.24 56.7287 174.011 56.7287C175.782 56.7287 177.383 57.4434 178.548 58.5975C179.708 59.7516 180.426 61.3503 180.426 63.1133C180.426 64.8762 179.708 66.4698 178.548 67.6291C177.388 68.7832 175.782 69.4979 174.011 69.4979C172.463 69.4979 171.043 68.9526 169.931 68.042L165.756 71.3933C167.873 73.4845 170.788 74.7762 174.006 74.7762C177.24 74.7762 180.17 73.4686 182.293 71.3616C184.415 69.2492 185.723 66.3322 185.723 63.1134C185.723 59.8893 184.41 56.9776 182.293 54.8653C180.17 52.7529 177.24 51.4506 174.006 51.4506C170.766 51.4506 167.841 52.753 165.719 54.8653C163.596 56.9776 162.288 59.8946 162.288 63.1134C162.293 65.4269 162.969 67.5764 164.133 69.3922ZM170.399 64.3576L173.203 62.1075C173.761 61.6628 174.575 61.7528 175.022 62.3034C175.468 62.8593 175.378 63.6693 174.825 64.1139L172.027 66.3586C172.607 66.708 173.288 66.9144 174.016 66.9144C175.069 66.9144 176.027 66.4856 176.718 65.8027C177.41 65.1145 177.835 64.1616 177.835 63.1133C177.835 62.0649 177.405 61.112 176.718 60.4238C176.027 59.7356 175.075 59.3121 174.016 59.3121C172.963 59.3121 172.006 59.7356 171.314 60.4238C170.623 61.112 170.197 62.0649 170.197 63.1133C170.192 63.5474 170.266 63.9711 170.399 64.3576ZM100.23 123.027C97.7357 123.027 95.4803 124.032 93.8421 125.658C92.2092 127.283 91.1985 129.528 91.1985 132.011C91.1985 134.494 92.2091 136.738 93.8421 138.369C95.475 139.994 97.7357 141 100.23 141C102.725 141 104.98 139.994 106.613 138.369C108.246 136.744 109.257 134.494 109.257 132.011C109.257 130.264 108.757 128.628 107.884 127.251L127.98 110.332C129.576 111.74 131.672 112.592 133.969 112.592C136.464 112.592 138.719 111.587 140.352 109.961C141.023 109.294 141.592 108.521 142.023 107.669L158.826 113.313C158.73 113.842 158.677 114.382 158.677 114.938C158.677 117.421 159.688 119.665 161.321 121.291C162.953 122.916 165.214 123.922 167.703 123.922C170.198 123.922 172.453 122.916 174.092 121.291C175.725 119.665 176.735 117.421 176.735 114.938C176.735 113.275 176.283 111.719 175.491 110.38L195.288 94.6298C196.905 96.1334 199.075 97.0598 201.464 97.0598C203.958 97.0598 206.214 96.054 207.847 94.4287C209.479 92.8034 210.49 90.5534 210.49 88.0758C210.49 85.5929 209.479 83.3481 207.847 81.7229C206.214 80.0976 203.953 79.0917 201.464 79.0917C198.969 79.0917 196.714 80.0976 195.075 81.7229C193.442 83.3481 192.432 85.5929 192.432 88.0758C192.432 89.7382 192.884 91.2946 193.676 92.6287L173.89 108.384C172.273 106.88 170.103 105.954 167.714 105.954C165.22 105.954 162.964 106.96 161.331 108.585C160.661 109.252 160.097 110.025 159.661 110.877L142.858 105.234C142.954 104.71 143.007 104.164 143.007 103.609C143.007 101.126 141.996 98.8809 140.363 97.2557C138.73 95.6304 136.47 94.6245 133.98 94.6245C131.486 94.6245 129.23 95.6304 127.597 97.2557C125.965 98.8809 124.954 101.126 124.954 103.609C124.954 105.356 125.454 106.992 126.326 108.368L106.22 125.282C104.624 123.879 102.528 123.027 100.23 123.027ZM104.784 127.484C105.948 128.644 106.666 130.243 106.666 132.011C106.666 133.779 105.948 135.383 104.784 136.542C103.619 137.702 102.012 138.417 100.236 138.417C98.4592 138.417 96.8475 137.702 95.6825 136.542C94.5177 135.383 93.7996 133.784 93.7996 132.011C93.7996 130.242 94.5177 128.638 95.6825 127.484C96.8474 126.325 98.4592 125.61 100.236 125.61C102.012 125.605 103.619 126.325 104.784 127.484ZM138.527 99.0761C139.692 100.236 140.41 101.834 140.41 103.608C140.41 105.376 139.692 106.98 138.527 108.134C137.363 109.294 135.756 110.008 133.98 110.008C132.203 110.008 130.591 109.294 129.426 108.134C128.262 106.975 127.544 105.376 127.544 103.608C127.544 101.84 128.262 100.236 129.426 99.0761C130.591 97.9166 132.198 97.202 133.98 97.202C135.751 97.1967 137.363 97.9167 138.527 99.0761ZM172.266 110.411C173.431 111.57 174.149 113.169 174.149 114.943C174.149 116.711 173.431 118.315 172.266 119.469C171.101 120.628 169.495 121.343 167.713 121.343C165.936 121.343 164.324 120.628 163.165 119.469C162 118.31 161.282 116.711 161.282 114.943C161.282 113.174 162 111.57 163.165 110.411C164.33 109.251 165.936 108.537 167.713 108.537C169.495 108.531 171.101 109.251 172.266 110.411ZM206.01 83.5436C204.845 82.3841 203.239 81.6695 201.462 81.6695C199.686 81.6695 198.074 82.3842 196.909 83.5436C195.744 84.703 195.026 86.3071 195.026 88.0699C195.026 89.8382 195.744 91.4423 196.909 92.5963C198.074 93.7557 199.68 94.4704 201.462 94.4704C203.239 94.4704 204.85 93.7557 206.01 92.5963C207.175 91.4369 207.893 89.8381 207.893 88.0699C207.893 86.3017 207.175 84.7029 206.01 83.5436ZM97.9792 96.2547V100.278C97.9792 101.247 98.3781 102.131 99.0164 102.772C99.41 103.163 99.894 103.465 100.437 103.635C100.719 104.572 101.219 105.398 101.883 106.033C102.782 106.906 103.968 107.436 105.272 107.436C106.575 107.436 107.756 106.906 108.66 106.033C109.32 105.392 109.825 104.566 110.107 103.635C110.649 103.46 111.133 103.158 111.527 102.772C112.171 102.131 112.57 101.252 112.57 100.278V96.2547C112.57 94.047 112.687 92.8717 113.218 91.993C113.772 91.0771 114.91 90.2089 116.91 88.7053C119.282 86.9212 121.218 84.6024 122.553 81.9342C123.841 79.3613 124.564 76.46 124.564 73.3948C124.564 68.0953 122.405 63.299 118.915 59.8256C115.426 56.3523 110.607 54.2034 105.282 54.2034C99.9573 54.2034 95.1386 56.3527 91.6488 59.8256C88.1591 63.2985 86 68.095 86 73.3948C86 76.46 86.7234 79.3559 88.0107 81.9342C89.3404 84.6024 91.2872 86.9159 93.6542 88.7053C95.6542 90.2141 96.7925 91.0771 97.3456 91.993C97.8615 92.8665 97.9792 94.047 97.9792 96.2547ZM110.192 92.8294C110.346 92.0089 110.596 91.3259 110.99 90.6694C111.804 89.3194 113.085 88.3399 115.335 86.6405C117.383 85.0947 119.064 83.0882 120.218 80.78C121.33 78.5565 121.952 76.0471 121.952 73.3948C121.952 68.8048 120.085 64.6542 117.064 61.6471C114.043 58.64 109.873 56.7819 105.261 56.7819C100.655 56.7819 96.4792 58.6402 93.4579 61.6471C90.4366 64.6541 88.5697 68.8047 88.5697 73.3948C88.5697 76.0523 89.192 78.5565 90.3037 80.78C91.4579 83.0935 93.1387 85.1 95.1865 86.6405C97.4365 88.3346 98.7238 89.3141 99.5375 90.6694C99.9311 91.3259 100.181 92.0088 100.335 92.8294H110.192ZM103.357 103.804H107.181C107.086 103.947 106.974 104.074 106.852 104.191C106.421 104.609 105.867 104.858 105.266 104.858C104.665 104.858 104.112 104.609 103.681 104.191C103.57 104.074 103.458 103.947 103.357 103.804ZM109.969 95.413V97.0277H100.57V95.413H109.969ZM100.57 99.6113H109.969V100.278C109.969 100.538 109.862 100.776 109.687 100.945C109.511 101.12 109.277 101.226 109.016 101.226H101.522C101.261 101.226 101.022 101.12 100.852 100.945C100.676 100.771 100.57 100.538 100.57 100.278L100.57 99.6113ZM193.154 125.229L193.148 125.282C193.143 125.308 193.143 125.33 193.143 125.351C193.111 126.484 193.627 127.527 194.489 128.294C195.074 128.813 195.818 129.21 196.659 129.417V129.697C196.659 130.412 197.239 130.989 197.957 130.989C198.67 130.989 199.255 130.412 199.255 129.697V129.427C199.505 129.364 199.749 129.284 199.983 129.189C200.744 128.877 201.387 128.39 201.84 127.775C202.361 127.071 202.595 126.15 202.547 125.266C202.499 124.371 202.164 123.482 201.552 122.857C200.978 122.27 200.281 121.957 199.536 121.751C199.074 121.624 198.595 121.539 198.122 121.449C197.132 121.269 196.159 121.094 196.015 120.501C195.962 120.274 195.951 120.051 195.983 119.861C196.015 119.691 196.079 119.538 196.18 119.4C196.345 119.178 196.611 118.992 196.93 118.86C197.212 118.744 197.536 118.68 197.882 118.675H197.957H198.015C198.047 118.675 198.084 118.68 198.116 118.68C198.755 118.717 199.318 118.95 199.701 119.3C200.01 119.57 200.196 119.914 200.185 120.258L200.18 120.311C200.164 120.612 200.255 120.898 200.419 121.126C200.638 121.433 200.994 121.645 201.403 121.666C202.116 121.703 202.728 121.163 202.765 120.454L202.77 120.401V120.385C202.818 119.231 202.302 118.167 201.425 117.388C200.84 116.87 200.095 116.473 199.249 116.266L199.26 115.991C199.26 115.276 198.68 114.699 197.962 114.699C197.244 114.699 196.664 115.276 196.664 115.991V116.255C196.419 116.314 196.185 116.393 195.957 116.483C195.207 116.79 194.568 117.267 194.111 117.87C193.76 118.331 193.542 118.86 193.435 119.421C193.334 119.977 193.35 120.549 193.483 121.11C193.919 122.926 195.196 123.477 196.643 123.8C196.973 123.874 197.313 123.937 197.653 123.995C198.489 124.144 199.334 124.297 199.691 124.662C199.85 124.827 199.941 125.102 199.957 125.409C199.973 125.732 199.903 126.05 199.749 126.261C199.579 126.494 199.318 126.685 198.999 126.817C198.717 126.934 198.387 127.002 198.036 127.008C198.01 127.002 197.983 127.002 197.957 127.002H197.898C197.866 127.002 197.829 126.997 197.797 126.997C197.159 126.96 196.595 126.727 196.212 126.378C195.909 126.108 195.723 125.769 195.728 125.43V125.42L195.733 125.367C195.749 125.081 195.669 124.805 195.52 124.588C195.302 124.26 194.935 124.032 194.51 124.011C193.802 123.974 193.191 124.52 193.154 125.229ZM206.765 114.085C204.515 111.845 201.403 110.458 197.962 110.458C194.526 110.458 191.414 111.845 189.164 114.085C186.914 116.324 185.521 119.421 185.521 122.841C185.521 126.261 186.914 129.358 189.164 131.603C191.414 133.842 194.526 135.229 197.962 135.229C201.398 135.229 204.51 133.842 206.765 131.603C209.015 129.364 210.409 126.266 210.409 122.841C210.409 119.421 209.015 116.324 206.765 114.085Z" fill="white"></path></svg> 