<?xml version="1.0" encoding="UTF-8"?> <svg xmlns="http://www.w3.org/2000/svg" width="300" height="186" viewBox="0 0 300 186" fill="none"><rect width="300" height="186" fill="#051C2C"></rect><path d="M162.423 58.3791C162.222 58.0705 162.153 57.6958 162.232 57.3371C162.31 56.9784 162.529 56.665 162.841 56.4655L167 53.8216C167.179 53.7074 167.383 53.6351 167.595 53.6102C167.808 53.5854 168.023 53.6087 168.225 53.6783L170.685 54.53L176.381 50.9108C176.563 50.7945 176.771 50.7218 176.987 50.6985C177.203 50.6753 177.422 50.702 177.626 50.7767L183.589 52.9492L190.677 48.7302L189.407 48.4217C189.218 48.389 189.037 48.3183 188.876 48.2139C188.715 48.1094 188.578 47.9735 188.472 47.8145C188.367 47.6555 188.296 47.4769 188.263 47.2897C188.231 47.1025 188.238 46.9107 188.283 46.7262C188.329 46.5417 188.413 46.3684 188.529 46.2171C188.646 46.0658 188.792 45.9398 188.96 45.8467C189.128 45.7537 189.314 45.6957 189.505 45.6763C189.697 45.6568 189.89 45.6764 190.074 45.7339L194.597 46.827C194.778 46.8712 194.949 46.9504 195.098 47.0601C195.248 47.1698 195.374 47.3078 195.469 47.466C195.564 47.6242 195.626 47.7994 195.652 47.9815C195.678 48.1637 195.666 48.349 195.619 48.5268L194.522 52.5863C194.442 52.8805 194.266 53.1405 194.022 53.3261C193.777 53.5118 193.477 53.6128 193.168 53.6136C193.046 53.6138 192.924 53.5978 192.805 53.5662C192.446 53.4711 192.14 53.2396 191.954 52.9223C191.767 52.6051 191.716 52.2279 191.811 51.8733L191.999 51.18L184.463 55.6647C184.283 55.7721 184.081 55.8382 183.871 55.8582C183.662 55.8782 183.451 55.8516 183.253 55.7803L177.307 53.6124L171.624 57.2236C171.444 57.3374 171.241 57.4094 171.029 57.434C170.817 57.4587 170.602 57.4353 170.4 57.3657L167.94 56.5152L164.359 58.7928C164.046 58.9907 163.667 59.0583 163.304 58.9808C162.94 58.9033 162.623 58.6869 162.421 58.3791H162.423ZM143.998 68.1181C143.998 69.5607 143.564 70.9709 142.752 72.1704C141.94 73.3699 140.785 74.3047 139.434 74.8568C138.083 75.4088 136.596 75.5533 135.162 75.2719C133.728 74.9904 132.411 74.2957 131.377 73.2757C130.343 72.2556 129.639 70.956 129.353 69.5411C129.068 68.1262 129.214 66.6597 129.774 65.3269C130.334 63.9941 131.281 62.855 132.497 62.0535C133.713 61.252 135.142 60.8243 136.605 60.8243C138.565 60.8261 140.444 61.5952 141.831 62.9626C143.217 64.3301 143.996 66.1842 143.998 68.1181ZM141.187 68.1181C141.187 67.2229 140.918 66.3478 140.414 65.6035C139.91 64.8591 139.193 64.279 138.355 63.9364C137.516 63.5938 136.594 63.5041 135.704 63.6788C134.814 63.8534 133.996 64.2845 133.354 64.9175C132.713 65.5506 132.276 66.3571 132.099 67.2351C131.922 68.1131 132.013 69.0232 132.36 69.8503C132.707 70.6774 133.295 71.3843 134.05 71.8816C134.804 72.379 135.691 72.6444 136.599 72.6444C137.816 72.6444 138.984 72.1678 139.845 71.3191C140.707 70.4704 141.191 69.3191 141.193 68.1181H141.187ZM136.605 99.2569C137.265 99.2575 137.897 99.5164 138.364 99.9768C138.831 100.437 139.093 101.061 139.094 101.712C139.094 102.08 139.242 102.433 139.505 102.693C139.769 102.953 140.127 103.099 140.499 103.099C140.872 103.099 141.23 102.953 141.493 102.693C141.757 102.433 141.905 102.08 141.905 101.712C141.904 100.569 141.522 99.4569 140.82 98.5472C140.117 97.6375 139.131 96.98 138.014 96.6754V95.1916C138.014 95.0095 137.977 94.8292 137.907 94.661C137.836 94.4928 137.733 94.3399 137.602 94.2111C137.472 94.0824 137.317 93.9802 137.146 93.9105C136.976 93.8408 136.793 93.805 136.608 93.805C136.424 93.805 136.241 93.8408 136.07 93.9105C135.9 93.9802 135.745 94.0824 135.614 94.2111C135.484 94.3399 135.38 94.4928 135.31 94.661C135.239 94.8292 135.203 95.0095 135.203 95.1916V96.6754C133.966 97.01 132.895 97.7759 132.187 98.831C131.48 99.886 131.185 101.158 131.356 102.412C131.528 103.666 132.155 104.815 133.121 105.647C134.087 106.479 135.326 106.937 136.608 106.936C137.1 106.935 137.582 107.079 137.991 107.349C138.401 107.619 138.72 108.002 138.909 108.451C139.097 108.899 139.147 109.393 139.051 109.869C138.955 110.346 138.718 110.784 138.37 111.127C138.022 111.471 137.578 111.705 137.095 111.799C136.612 111.894 136.112 111.846 135.657 111.66C135.202 111.474 134.813 111.159 134.54 110.755C134.266 110.352 134.12 109.877 134.12 109.391C134.133 109.202 134.106 109.012 134.041 108.834C133.976 108.655 133.874 108.492 133.743 108.353C133.612 108.215 133.453 108.105 133.276 108.029C133.1 107.954 132.91 107.915 132.718 107.915C132.525 107.915 132.335 107.954 132.159 108.029C131.982 108.105 131.824 108.215 131.692 108.353C131.561 108.492 131.459 108.655 131.394 108.834C131.33 109.012 131.302 109.202 131.315 109.391C131.316 110.535 131.698 111.647 132.4 112.556C133.103 113.466 134.089 114.124 135.206 114.428V115.912C135.206 116.28 135.354 116.632 135.618 116.892C135.881 117.152 136.239 117.299 136.612 117.299C136.984 117.299 137.342 117.152 137.606 116.892C137.869 116.632 138.017 116.28 138.017 115.912V114.428C139.254 114.094 140.325 113.328 141.033 112.273C141.74 111.218 142.035 109.945 141.864 108.692C141.692 107.438 141.065 106.289 140.099 105.457C139.133 104.625 137.894 104.167 136.612 104.168C135.952 104.168 135.318 103.909 134.852 103.449C134.385 102.988 134.123 102.364 134.123 101.712C134.123 101.061 134.385 100.437 134.852 99.9761C135.318 99.5156 135.952 99.2569 136.612 99.2569H136.605ZM150.091 116.244C148.614 117.971 146.804 119.392 144.767 120.424C142.729 121.457 140.504 122.08 138.22 122.258C137.733 122.299 137.245 122.318 136.762 122.318C132.791 122.312 128.941 120.969 125.85 118.511C122.758 116.053 120.61 112.628 119.76 108.801C118.91 104.975 119.41 100.977 121.176 97.469C122.942 93.9609 125.87 91.1527 129.474 89.5092C133.078 87.8656 137.143 87.4851 140.997 88.4305C144.85 89.376 148.26 91.5908 150.664 94.7086C153.068 97.8263 154.321 101.66 154.216 105.576C154.11 109.492 152.653 113.255 150.086 116.242L150.091 116.244ZM151.373 103.937C151.072 100.332 149.409 96.9693 146.714 94.5161C144.019 92.0629 140.488 90.6976 136.821 90.6908C136.414 90.6908 136.006 90.7073 135.597 90.7404C132.714 90.9745 129.967 92.0466 127.701 93.8213C125.436 95.5959 123.755 97.9934 122.871 100.71C121.987 103.428 121.94 106.342 122.735 109.086C123.53 111.83 125.132 114.279 127.338 116.125C129.544 117.97 132.256 119.129 135.13 119.454C138.003 119.78 140.91 119.257 143.483 117.952C146.056 116.648 148.178 114.62 149.583 112.125C150.987 109.63 151.61 106.781 151.373 103.937ZM205 45.4588V76.222C204.998 77.6693 204.415 79.0567 203.377 80.08C202.34 81.1033 200.934 81.6791 199.467 81.6809H173.009L169.203 84.7466V125.156L178.059 132.566C178.887 133.256 179.487 134.174 179.786 135.202C180.084 136.23 180.066 137.322 179.735 138.34C179.403 139.358 178.773 140.256 177.923 140.92C177.074 141.584 176.044 141.984 174.963 142.07C174.81 142.083 174.655 142.089 174.503 142.089C173.209 142.091 171.957 141.638 170.972 140.811L168.278 138.558C167.612 140.144 166.492 141.503 165.055 142.469C163.618 143.436 161.926 143.968 160.187 144H113.022C108.049 144 104.003 139.63 104.003 134.258V76.1192C103.966 74.5919 104.291 73.077 104.952 71.6957C105.614 70.3143 106.594 69.1046 107.813 68.1632L131.395 50.1539C132.871 48.9797 134.71 48.3395 136.607 48.3395C138.503 48.3395 140.343 48.9797 141.819 50.1539L150.883 57.0756V45.4588C150.885 44.0125 151.467 42.6258 152.504 41.6026C153.54 40.5794 154.945 40.0031 156.411 40H199.467C200.934 40.0015 202.34 40.5771 203.378 41.6005C204.415 42.6239 204.998 44.0115 205 45.4588ZM176.247 134.677L161.986 122.746C161.829 122.998 161.653 123.238 161.458 123.463L159.153 126.146C158.961 126.369 158.753 126.577 158.53 126.77L168.507 135.116L168.514 135.123L172.789 138.699C173.057 138.923 173.367 139.093 173.701 139.199C174.035 139.305 174.388 139.345 174.737 139.316C175.087 139.288 175.428 139.192 175.74 139.034C176.052 138.875 176.33 138.658 176.557 138.394C176.784 138.13 176.956 137.824 177.064 137.494C177.171 137.165 177.211 136.817 177.182 136.472C177.154 136.127 177.056 135.791 176.896 135.483C176.735 135.175 176.515 134.901 176.247 134.677ZM149.266 122.717C152.33 120.592 154.79 117.728 156.411 114.397C156.442 114.125 156.555 113.869 156.734 113.661L156.763 113.63C158.191 110.368 158.775 106.807 158.464 103.267C158.153 99.727 156.956 96.3187 154.981 93.3477C153.005 90.3766 150.313 87.9359 147.146 86.2443C143.978 84.5527 140.435 83.6633 136.833 83.6557C136.229 83.6557 135.622 83.6804 135.014 83.7297C131.722 84.0004 128.537 85.0069 125.698 86.6729C122.86 88.3388 120.443 90.6205 118.631 93.345C116.819 96.0694 115.66 99.165 115.242 102.397C114.823 105.629 115.156 108.913 116.215 111.999C117.274 115.086 119.031 117.894 121.354 120.21C123.677 122.527 126.503 124.291 129.62 125.37C132.737 126.448 136.062 126.813 139.342 126.435C142.623 126.058 145.773 124.948 148.555 123.191C148.565 123.178 148.573 123.164 148.585 123.151C148.763 122.943 149 122.792 149.266 122.717ZM151.978 124.176L152.618 124.711C153.25 125.236 154.066 125.493 154.89 125.426C155.713 125.36 156.476 124.975 157.013 124.356L159.318 121.675C159.85 121.051 160.111 120.245 160.043 119.433C159.975 118.621 159.585 117.868 158.957 117.338L158.318 116.803C156.724 119.653 154.568 122.159 151.978 124.176ZM166.4 87.0057L162.88 89.8414C162.674 90.0055 162.425 90.1086 162.161 90.139C161.898 90.1694 161.632 90.1258 161.393 90.0132C161.153 89.9006 160.951 89.7237 160.81 89.5027C160.668 89.2818 160.593 89.0258 160.592 88.7644V81.6809H156.411C154.944 81.6791 153.537 81.1033 152.5 80.08C151.463 79.0567 150.879 77.6693 150.877 76.222V60.5758L140.101 52.3436C139.117 51.5457 137.883 51.1094 136.609 51.1094C135.336 51.1094 134.101 51.5457 133.118 52.3436L109.53 70.3518C108.653 71.0378 107.95 71.9164 107.477 72.9176C107.005 73.9189 106.776 75.0152 106.808 76.1192V134.258C106.808 138.103 109.596 141.232 113.022 141.232H160.187C161.521 141.168 162.801 140.693 163.847 139.873C164.893 139.053 165.651 137.93 166.016 136.662L155.775 128.095C155.558 128.136 155.34 128.166 155.12 128.185C154.954 128.198 154.787 128.205 154.621 128.205C153.222 128.206 151.868 127.714 150.804 126.818L149.598 125.809C146.326 127.779 142.631 128.963 138.81 129.264C138.123 129.321 137.438 129.349 136.756 129.349C131.496 129.341 126.378 127.667 122.154 124.574C117.931 121.482 114.825 117.133 113.294 112.169C111.763 107.204 111.888 101.886 113.65 96.9972C115.412 92.1081 118.718 87.906 123.083 85.0094C127.447 82.1129 132.638 80.6747 137.892 80.9066C143.147 81.1386 148.187 83.0283 152.272 86.2978C156.356 89.5673 159.269 94.0438 160.582 99.0687C161.894 104.094 161.537 109.401 159.563 114.211L160.772 115.222C161.366 115.718 161.855 116.324 162.209 117.008C162.564 117.691 162.778 118.437 162.839 119.202C162.857 119.414 162.862 119.628 162.857 119.841L166.4 122.806V87.0057ZM202.195 45.4588C202.192 44.7464 201.904 44.0638 201.393 43.5606C200.881 43.0573 200.189 42.7742 199.467 42.7733H156.411C155.688 42.7739 154.996 43.0569 154.484 43.5602C153.973 44.0635 153.684 44.7462 153.682 45.4588V76.222C153.682 76.9354 153.97 77.6193 154.482 78.1236C154.993 78.628 155.686 78.9116 156.41 78.9122H161.998C162.371 78.9122 162.728 79.0583 162.992 79.3183C163.255 79.5784 163.404 79.9311 163.404 80.2988V85.8524L166.918 83.0213L171.631 79.2242C171.881 79.0227 172.195 78.9125 172.518 78.9122H199.467C200.19 78.9116 200.883 78.628 201.395 78.1236C201.906 77.6193 202.194 76.9354 202.195 76.222V45.4588ZM195.768 75.0538C195.768 75.4215 195.619 75.7743 195.356 76.0343C195.092 76.2944 194.735 76.4404 194.362 76.4404H161.513C161.321 76.4527 161.129 76.426 160.948 76.362C160.767 76.298 160.601 76.198 160.461 76.0683C160.321 75.9386 160.209 75.7819 160.133 75.6079C160.056 75.4339 160.017 75.2463 160.017 75.0567C160.017 74.867 160.056 74.6794 160.133 74.5054C160.209 74.3314 160.321 74.1747 160.461 74.045C160.601 73.9153 160.767 73.8154 160.948 73.7514C161.129 73.6874 161.321 73.6607 161.513 73.6729H163.58V62.4917C163.58 62.124 163.729 61.7713 163.992 61.5112C164.256 61.2512 164.613 61.1051 164.986 61.1051H170.801C171.173 61.1051 171.531 61.2512 171.794 61.5112C172.058 61.7713 172.206 62.124 172.206 62.4917V73.6694H173.823V60.0755C173.823 59.7077 173.971 59.355 174.234 59.0949C174.498 58.8349 174.855 58.6888 175.228 58.6888H181.044C181.417 58.6888 181.774 58.8349 182.038 59.0949C182.301 59.355 182.449 59.7077 182.449 60.0755V73.6694H183.686V62.4917C183.686 62.124 183.834 61.7713 184.098 61.5112C184.362 61.2512 184.719 61.1051 185.092 61.1051H190.907C191.279 61.1051 191.637 61.2512 191.9 61.5112C192.164 61.7713 192.312 62.124 192.312 62.4917V73.6694H194.381C194.75 73.6743 195.102 73.8222 195.362 74.0812C195.621 74.3403 195.767 74.6896 195.768 75.0538ZM186.481 73.6671H189.492V63.8761H186.479L186.481 73.6671ZM176.624 73.6671H179.634V61.4598H176.624V73.6671ZM166.387 73.6671H169.396V63.8761H166.387V73.6671Z" fill="white"></path></svg> 