<?xml version="1.0" encoding="UTF-8"?> <svg xmlns="http://www.w3.org/2000/svg" width="300" height="186" viewBox="0 0 300 186" fill="none"><rect width="300" height="186" fill="#051C2C"></rect><path d="M128.466 64.7875V62.8722C128.466 62.5696 128.466 62.4202 126.948 62.1444C125.692 61.9146 123.588 61.5354 123.588 59.2026L123.584 57.2874C123.676 55.9045 124.676 54.7554 126.023 54.4796V53.5794C126.016 53.2729 126.13 52.978 126.339 52.7597C126.552 52.5413 126.841 52.4187 127.142 52.4187C127.443 52.4187 127.736 52.5413 127.945 52.7597C128.154 52.978 128.268 53.2729 128.261 53.5794V54.4796C129.608 54.7554 130.608 55.9045 130.7 57.2874C130.7 57.9079 130.197 58.4135 129.581 58.4135C128.965 58.4135 128.466 57.9079 128.466 57.2874C128.466 57.0039 127.937 56.5749 127.142 56.5749C126.347 56.5749 125.822 57.0039 125.822 57.2874V59.2064C125.822 59.509 125.822 59.6584 127.34 59.9304C128.595 60.1602 130.7 60.5394 130.7 62.8722V64.7875C130.608 66.1703 129.608 67.3194 128.261 67.5952V68.4954C128.268 68.8019 128.154 69.0968 127.945 69.3152C127.736 69.5335 127.443 69.6561 127.142 69.6561C126.841 69.6561 126.552 69.5335 126.339 69.3152C126.13 69.0968 126.016 68.8019 126.023 68.4954V67.5952C124.676 67.3195 123.676 66.1703 123.584 64.7875C123.584 64.1669 124.087 63.6651 124.703 63.6651C125.319 63.6651 125.822 64.1669 125.822 64.7875C125.822 65.0709 126.351 65.4961 127.142 65.4961C127.937 65.4999 128.466 65.0709 128.466 64.7875ZM134.752 65.8677H142.749C143.366 65.8677 143.864 65.3659 143.864 64.7416C143.864 64.121 143.366 63.6193 142.749 63.6193H134.752C134.131 63.6193 133.633 64.1211 133.633 64.7416C133.633 65.366 134.131 65.8677 134.752 65.8677ZM147.308 63.6192C146.688 63.6192 146.189 64.121 146.189 64.7415C146.189 65.3659 146.688 65.8676 147.308 65.8676H148.13H148.126C148.742 65.8676 149.245 65.3658 149.245 64.7415C149.245 64.1209 148.742 63.6192 148.126 63.6192H147.308ZM143.412 60.8919L155.793 60.8881C156.409 60.8881 156.911 60.3863 156.911 59.7657C156.911 59.1452 156.409 58.6396 155.793 58.6396H143.404C142.788 58.6396 142.289 59.1452 142.289 59.7657C142.289 60.3863 142.788 60.8881 143.404 60.8881L143.412 60.8919ZM134.756 60.8919H138.15L138.154 60.8881C138.77 60.8881 139.268 60.3863 139.268 59.7657C139.268 59.1452 138.77 58.6396 138.154 58.6396H134.752C134.132 58.6396 133.633 59.1452 133.633 59.7657C133.633 60.3863 134.132 60.8881 134.752 60.8881L134.756 60.8919ZM157.536 89.4826C157.536 93.5622 155.926 97.4731 153.061 100.358C150.196 103.242 146.311 104.862 142.259 104.862C138.207 104.862 134.322 103.242 131.457 100.358C128.592 97.4733 126.982 93.5623 126.982 89.4826C126.982 85.403 128.592 81.4922 131.457 78.6076C134.322 75.7233 138.207 74.1029 142.259 74.1029C146.307 74.1067 150.188 75.7309 153.053 78.6115C155.914 81.4958 157.528 85.403 157.532 89.4786L157.536 89.4826ZM143.374 76.4013V87.5332L152.943 81.9712C150.729 78.7766 147.225 76.7384 143.374 76.4013ZM129.216 89.4209L141.137 88.4441V76.4012C134.421 76.9911 129.254 82.6336 129.216 89.4209ZM155.294 89.4783C155.298 87.5554 154.88 85.6555 154.065 83.9164L142.81 90.4551C142.666 90.5356 142.506 90.5854 142.342 90.6007L129.395 91.6655C130.525 98.3919 136.586 103.127 143.339 102.555C150.092 101.988 155.29 96.3038 155.29 89.4778L155.294 89.4783ZM152.756 73.9072C153.194 74.3477 153.898 74.3477 154.335 73.9072L159.278 68.9313H178.371C178.987 68.9313 179.49 68.4257 179.49 67.8052C179.49 67.1847 178.987 66.6791 178.371 66.6791H158.814C158.518 66.6791 158.236 66.7978 158.023 67.0085L152.757 72.3176C152.548 72.5283 152.43 72.8118 152.43 73.1105C152.43 73.4093 152.547 73.6965 152.756 73.9072ZM178.375 74.838H163.456C162.836 74.838 162.338 75.3398 162.338 75.9603C162.338 76.5847 162.836 77.0864 163.456 77.0864H178.371C178.987 77.0864 179.489 76.5846 179.489 75.9603C179.489 75.3398 178.987 74.838 178.371 74.838H178.375ZM178.375 82.1504H167.363C166.747 82.1504 166.245 82.6522 166.245 83.2727C166.245 83.8933 166.747 84.3989 167.363 84.3989H178.371C178.987 84.3989 179.489 83.8932 179.489 83.2727C179.489 82.6522 178.987 82.1504 178.371 82.1504H178.375ZM121.877 111.129H124.289C124.593 111.136 124.886 111.021 125.103 110.811C125.32 110.6 125.442 110.309 125.442 110.002C125.442 109.7 125.32 109.409 125.103 109.194C124.886 108.983 124.593 108.869 124.289 108.88H121.877C121.275 108.895 120.796 109.393 120.796 110.002C120.796 110.611 121.275 111.109 121.877 111.129ZM150.276 108.88H128.444C128.143 108.868 127.85 108.983 127.633 109.194C127.416 109.409 127.295 109.7 127.295 110.002C127.295 110.309 127.416 110.6 127.633 110.811C127.85 111.021 128.143 111.136 128.444 111.129H150.276C150.576 111.136 150.869 111.021 151.086 110.811C151.303 110.6 151.425 110.309 151.425 110.002C151.425 109.7 151.303 109.409 151.086 109.194C150.869 108.983 150.576 108.868 150.276 108.88ZM150.276 114.764H143.035C142.419 114.764 141.916 115.265 141.916 115.886C141.916 116.51 142.419 117.012 143.035 117.012H150.276C150.892 117.012 151.39 116.51 151.39 115.886C151.39 115.265 150.892 114.764 150.276 114.764ZM121.877 117.012H138.964C139.584 117.012 140.083 116.51 140.083 115.886C140.083 115.266 139.584 114.764 138.964 114.764H121.877C121.26 114.764 120.762 115.266 120.762 115.886C120.762 116.51 121.26 117.012 121.877 117.012ZM150.276 120.647H121.877C121.26 120.647 120.762 121.149 120.762 121.773C120.762 122.394 121.26 122.896 121.877 122.896H150.279C150.896 122.896 151.398 122.394 151.398 121.773C151.398 121.149 150.896 120.647 150.279 120.647H150.276ZM121.877 103.241H122.421L122.425 103.238C123.041 103.238 123.539 102.736 123.539 102.115C123.539 101.491 123.041 100.989 122.425 100.989H121.877C121.26 100.989 120.762 101.491 120.762 102.115C120.762 102.736 121.26 103.238 121.877 103.238L121.877 103.241ZM130.354 102.115H130.358C130.358 101.817 130.24 101.529 130.03 101.319C129.821 101.108 129.536 100.989 129.239 100.989H126.191C125.571 100.989 125.073 101.491 125.073 102.115C125.073 102.736 125.571 103.238 126.191 103.238H129.239C129.536 103.238 129.821 103.119 130.03 102.908C130.24 102.697 130.358 102.41 130.358 102.111L130.354 102.115ZM128.927 72.5439H125.879C125.259 72.5439 124.761 73.0457 124.761 73.6663C124.761 74.2868 125.259 74.7924 125.879 74.7924H128.927C129.543 74.7924 130.046 74.2868 130.046 73.6663C130.046 73.0457 129.543 72.5439 128.927 72.5439ZM121.568 74.7925H122.113H122.109C122.729 74.7925 123.227 74.2907 123.227 73.6702C123.227 73.0458 122.729 72.544 122.109 72.544H121.565H121.568C120.948 72.544 120.45 73.0458 120.45 73.6702C120.45 74.2907 120.948 74.7925 121.568 74.7925ZM121.568 79.5079H126.842H126.838C127.455 79.5079 127.957 79.0022 127.957 78.3817C127.957 77.7612 127.455 77.2556 126.838 77.2556H121.568C120.948 77.2556 120.45 77.7612 120.45 78.3817C120.45 79.0023 120.948 79.5079 121.568 79.5079ZM201.135 127.206L197.49 130.876L197.494 130.872C196.338 132.032 194.469 132.032 193.313 130.872L186.266 123.778C186.175 123.686 186.091 123.59 186.015 123.486V131.22C186.015 131.519 185.897 131.806 185.688 132.017C185.479 132.228 185.193 132.346 184.896 132.346H179.09V137.874C179.09 138.173 178.972 138.456 178.759 138.667C178.55 138.881 178.268 139 177.972 139H108.115C107.498 139 107 138.494 107 137.874V50.7797C107 50.1592 107.498 49.6536 108.115 49.6536H113.925V44.1261C113.925 43.5056 114.423 43 115.043 43H170.038C170.335 43 170.617 43.1187 170.826 43.3294L185.688 58.2916C185.897 58.5023 186.015 58.7896 186.015 59.0884V91.7516C188.454 94.4292 189.972 97.823 190.349 101.435C190.725 105.047 189.938 108.683 188.1 111.812L191.368 115.102H191.372C191.578 115.057 191.787 115.034 192 115.034C192.784 115.03 193.537 115.344 194.089 115.903L201.135 123.001C202.288 124.162 202.288 126.043 201.135 127.207L201.135 127.206ZM186.81 113.692C186.407 114.202 185.977 114.692 185.52 115.155C185.06 115.615 184.577 116.048 184.067 116.45L186.715 119.116L189.462 116.358L186.81 113.692ZM188.207 103.189C188.203 98.6343 186.099 94.3403 182.507 91.5666C178.919 88.7971 174.254 87.8625 169.883 89.0423C165.515 90.222 161.938 93.3823 160.207 97.5881C158.476 101.798 158.784 106.575 161.048 110.52C163.308 114.466 167.265 117.128 171.75 117.722C176.236 118.319 180.741 116.78 183.941 113.562C186.681 110.815 188.218 107.08 188.207 103.189ZM174.776 120.649H177.298V119.691C176.469 119.875 175.624 119.997 174.776 120.055V120.649ZM166.146 120.649L168.669 120.645V119.342C167.801 119.074 166.957 118.733 166.146 118.327V120.649ZM157.517 120.649L160.036 120.645V113.125C159.229 112.015 158.563 110.808 158.05 109.532H157.509L157.517 120.649ZM171.153 57.9657L182.199 57.9619L171.153 46.8418V57.9657ZM176.853 132.347H115.044C114.424 132.347 113.925 131.842 113.925 131.221V51.9022H109.234V136.752H176.853L176.853 132.347ZM183.778 130.099V119.338L182.195 117.745V117.749C181.347 118.251 180.456 118.68 179.532 119.024V121.771V121.767C179.532 122.391 179.029 122.893 178.413 122.893H173.657C173.041 122.893 172.542 122.391 172.542 121.767V120.059C171.994 120.024 171.447 119.955 170.902 119.871V121.771V121.767C170.902 122.066 170.785 122.353 170.571 122.564C170.362 122.774 170.081 122.893 169.784 122.893H165.028C164.411 122.893 163.909 122.391 163.909 121.767V116.979C163.339 116.569 162.791 116.125 162.269 115.646V121.771V121.767C162.269 122.066 162.151 122.353 161.942 122.564C161.733 122.774 161.451 122.893 161.155 122.893H156.399C155.782 122.893 155.284 122.391 155.284 121.767V108.406C155.284 107.786 155.782 107.28 156.399 107.28H157.331C157.003 105.943 156.836 104.568 156.836 103.189C156.836 98.9716 158.404 94.9036 161.227 91.7894C164.05 88.6714 167.931 86.7332 172.101 86.3462C176.275 85.9593 180.437 87.1583 183.778 89.7056V60.2107H170.039C169.423 60.2107 168.924 59.7089 168.924 59.0884V45.2529H116.159V130.102L183.778 130.099ZM187.845 122.192L189.828 124.192L194.492 119.496L192.506 117.496L192.51 117.492C192.225 117.209 191.768 117.209 191.483 117.492L187.842 121.162C187.564 121.449 187.568 121.905 187.845 122.189L187.845 122.192ZM199.556 124.59L196.075 121.082L191.41 125.778L194.891 129.287C195.177 129.57 195.633 129.57 195.915 129.287L199.56 125.617V125.621C199.838 125.334 199.838 124.874 199.556 124.587L199.556 124.59ZM180.936 95.8535C183.884 98.8221 184.767 103.289 183.169 107.169C181.575 111.049 177.812 113.581 173.638 113.581C169.468 113.581 165.705 111.049 164.111 107.169C162.513 103.289 163.395 98.8221 166.344 95.8535C170.377 91.8008 176.903 91.8008 180.936 95.8535ZM181.723 103.197C181.719 99.9062 179.752 96.9376 176.731 95.6811C173.71 94.4208 170.236 95.118 167.923 97.4432C166.017 99.3661 165.187 102.12 165.712 104.782C166.241 107.449 168.056 109.674 170.548 110.712C173.044 111.75 175.89 111.467 178.131 109.958C180.376 108.448 181.723 105.909 181.723 103.189V103.197ZM179.048 107.154V107.812C179.048 108.111 178.93 108.395 178.721 108.605C178.512 108.816 178.226 108.935 177.93 108.935H169.35C168.733 108.935 168.231 108.433 168.231 107.812V107.15C168.136 104.587 170.077 102.411 172.618 102.228C172.949 102.212 173.269 102.346 173.489 102.592L173.638 102.76L173.79 102.592C174.011 102.346 174.33 102.212 174.658 102.228C177.199 102.411 179.14 104.583 179.048 107.146V107.154ZM176.777 106.686C176.655 105.698 175.982 104.867 175.042 104.549L174.464 105.189H174.467C174.254 105.426 173.954 105.56 173.638 105.56C173.326 105.56 173.025 105.426 172.812 105.189L172.234 104.549C171.298 104.867 170.625 105.698 170.503 106.686H176.777ZM170.735 98.4009C170.735 96.7844 172.036 95.4743 173.638 95.4743C175.244 95.4743 176.541 96.7843 176.541 98.4009C176.541 99.8871 175.415 102.044 173.638 102.044C171.865 102.044 170.735 99.8756 170.735 98.3931V98.4009ZM172.968 98.4009H172.972C173.006 98.9295 173.246 99.4198 173.638 99.776C174.034 99.4198 174.273 98.9218 174.308 98.3893C174.277 98.0446 173.988 97.7803 173.642 97.7803C173.295 97.7803 173.01 98.0446 172.976 98.3893L172.968 98.4009Z" fill="white"></path></svg> 