<?xml version="1.0" encoding="UTF-8"?> <svg xmlns="http://www.w3.org/2000/svg" width="300" height="186" viewBox="0 0 300 186" fill="none"><rect width="300" height="186" fill="#051C2C"></rect><path d="M137.558 62.6C138.495 62.6 139.254 61.8407 139.254 60.9041C139.254 59.9676 138.495 59.2083 137.558 59.2083C136.622 59.2083 135.862 59.9676 135.862 60.9041C135.862 61.8407 136.622 62.6 137.558 62.6Z" fill="white" stroke="#051C2C" stroke-width="0.6"></path><path d="M162.996 65.9916H171.475C171.925 65.9916 172.356 65.813 172.674 65.4949C172.992 65.1769 173.171 64.7456 173.171 64.2958V55.8167C173.171 55.3669 172.992 54.9355 172.674 54.6175C172.356 54.2995 171.925 54.1208 171.475 54.1208H162.996C162.546 54.1208 162.115 54.2995 161.797 54.6175C161.479 54.9355 161.3 55.3669 161.3 55.8167V64.2958C161.3 64.7456 161.479 65.1769 161.797 65.4949C162.115 65.813 162.546 65.9916 162.996 65.9916ZM164.692 57.5125H169.779V62.6H164.692V57.5125Z" fill="white" stroke="#051C2C" stroke-width="0.6"></path><path d="M162.996 81.2541H171.475C171.925 81.2541 172.356 81.0755 172.674 80.7574C172.992 80.4394 173.171 80.0081 173.171 79.5583V71.0791C173.171 70.6294 172.992 70.198 172.674 69.88C172.356 69.562 171.925 69.3833 171.475 69.3833H162.996C162.546 69.3833 162.115 69.562 161.797 69.88C161.479 70.198 161.3 70.6294 161.3 71.0791V79.5583C161.3 80.0081 161.479 80.4394 161.797 80.7574C162.115 81.0755 162.546 81.2541 162.996 81.2541ZM164.692 72.775H169.779V77.8625H164.692V72.775Z" fill="white" stroke="#051C2C" stroke-width="0.6"></path><path d="M162.996 96.5166H171.475C171.925 96.5166 172.356 96.338 172.674 96.0199C172.992 95.7019 173.171 95.2706 173.171 94.8208V86.3416C173.171 85.8919 172.992 85.4605 172.674 85.1425C172.356 84.8245 171.925 84.6458 171.475 84.6458H162.996C162.546 84.6458 162.115 84.8245 161.797 85.1425C161.479 85.4605 161.3 85.8919 161.3 86.3416V94.8208C161.3 95.2706 161.479 95.7019 161.797 96.0199C162.115 96.338 162.546 96.5166 162.996 96.5166ZM164.692 88.0375H169.779V93.125H164.692V88.0375Z" fill="white" stroke="#051C2C" stroke-width="0.6"></path><path d="M140.95 120.258H137.558V123.65H140.95V120.258Z" fill="white" stroke="#051C2C" stroke-width="0.6"></path><path d="M134.167 120.258H130.775V123.65H134.167V120.258Z" fill="white" stroke="#051C2C" stroke-width="0.6"></path><path d="M127.383 120.258H123.992V123.65H127.383V120.258Z" fill="white" stroke="#051C2C" stroke-width="0.6"></path><path d="M147.734 103.3H117.209C114.51 103.3 111.922 104.372 110.014 106.28C108.106 108.188 107.034 110.776 107.034 113.475C107.034 116.174 108.106 118.762 110.014 120.67C111.922 122.578 114.51 123.65 117.209 123.65H120.6V120.258H117.209C115.41 120.258 113.684 119.544 112.412 118.272C111.14 116.999 110.425 115.274 110.425 113.475C110.425 111.676 111.14 109.951 112.412 108.678C113.684 107.406 115.41 106.692 117.209 106.692H147.734C150.432 106.692 153.02 105.62 154.928 103.711C156.837 101.803 157.909 99.2152 157.909 96.5167C157.909 93.8181 156.837 91.23 154.928 89.3218C153.02 87.4137 150.432 86.3417 147.734 86.3417H135.863V82.95C135.863 82.5002 135.684 82.0689 135.366 81.7509C135.048 81.4328 134.617 81.2542 134.167 81.2542H120.6C120.151 81.2542 119.719 81.4328 119.401 81.7509C119.083 82.0689 118.905 82.5002 118.905 82.95V86.3417H117.209C115.41 86.3417 113.684 85.627 112.412 84.3549C111.14 83.0828 110.425 81.3574 110.425 79.5583C110.425 77.7593 111.14 76.0339 112.412 74.7618C113.684 73.4897 115.41 72.775 117.209 72.775H147.734C150.432 72.7743 153.02 71.7021 154.928 69.7941C156.836 67.886 157.908 65.2984 157.909 62.6V52.425H154.517V62.6C154.516 64.3988 153.801 66.1238 152.529 67.3957C151.257 68.6677 149.532 69.3826 147.734 69.3833H141.653L143.182 67.8543C144.09 66.951 144.81 65.8764 145.3 64.6929C145.791 63.5093 146.041 62.2403 146.038 60.9593V60.9042C146.038 58.6554 145.144 56.4987 143.554 54.9085C141.964 53.3184 139.807 52.425 137.559 52.425C135.31 52.425 133.153 53.3184 131.563 54.9085C129.973 56.4987 129.08 58.6554 129.08 60.9042V60.9593C129.076 62.2403 129.327 63.5093 129.817 64.6929C130.307 65.8764 131.027 66.951 131.936 67.8543L133.465 69.3833H117.209C114.51 69.3833 111.922 70.4553 110.014 72.3635C108.106 74.2717 107.034 76.8598 107.034 79.5583C107.034 82.2569 108.106 84.845 110.014 86.7531C111.922 88.6613 114.51 89.7333 117.209 89.7333H118.905V94.8208C118.905 95.2706 119.083 95.7019 119.401 96.02C119.719 96.338 120.151 96.5167 120.6 96.5167H123.085L125.973 100.849C126.128 101.081 126.337 101.272 126.584 101.403C126.83 101.535 127.105 101.604 127.384 101.604C127.663 101.604 127.938 101.535 128.184 101.403C128.43 101.272 128.64 101.081 128.795 100.849L131.683 96.5167H134.167C134.617 96.5167 135.048 96.338 135.366 96.02C135.684 95.7019 135.863 95.2706 135.863 94.8208V89.7333H147.734C149.533 89.7333 151.258 90.448 152.53 91.7201C153.802 92.9922 154.517 94.7176 154.517 96.5167C154.517 98.3157 153.802 100.041 152.53 101.313C151.258 102.585 149.533 103.3 147.734 103.3ZM132.471 60.9042C132.471 59.5549 133.007 58.2609 133.961 57.3068C134.915 56.3527 136.209 55.8167 137.559 55.8167C138.908 55.8167 140.202 56.3527 141.156 57.3068C142.11 58.2609 142.646 59.5549 142.646 60.9042V60.9593C142.648 61.7948 142.485 62.6224 142.165 63.3942C141.846 64.1661 141.376 64.8669 140.784 65.456L137.559 68.6811L134.334 65.456C133.741 64.8669 133.272 64.1661 132.952 63.3942C132.632 62.6224 132.469 61.7948 132.471 60.9593V60.9042ZM132.471 93.125H130.775C130.496 93.125 130.221 93.1939 129.975 93.3256C129.729 93.4574 129.519 93.6478 129.364 93.8801L127.384 96.8512L125.403 93.8801C125.248 93.6478 125.038 93.4574 124.792 93.3256C124.546 93.1939 124.271 93.125 123.992 93.125H122.296V84.6458H132.471V93.125Z" fill="white" stroke="#051C2C" stroke-width="0.6"></path><path d="M195.217 42.25H190.129C189.679 42.25 189.248 42.4287 188.93 42.7467C188.612 43.0647 188.433 43.4961 188.433 43.9458V45.6417H108.729C106.481 45.6442 104.326 46.5383 102.736 48.1279C101.147 49.7175 100.253 51.8728 100.25 54.1208V135.521C100.253 137.769 101.147 139.924 102.736 141.514C104.326 143.103 106.481 143.997 108.729 144H115.512C115.962 144 116.394 143.821 116.712 143.503C117.03 143.185 117.208 142.754 117.208 142.304V130.433H149.257C149.247 130.454 149.236 130.477 149.227 130.499C149.218 130.518 149.211 130.537 149.203 130.556C149.185 130.602 149.169 130.648 149.155 130.694C149.152 130.706 149.146 130.717 149.143 130.729L146.099 141.69C146.015 141.994 146.017 142.315 146.105 142.617C146.193 142.92 146.363 143.192 146.597 143.403C146.83 143.614 147.118 143.756 147.428 143.812C147.738 143.869 148.057 143.838 148.351 143.724L158.947 139.582C158.954 139.579 158.961 139.575 158.968 139.572C159.02 139.551 159.071 139.527 159.12 139.501C159.13 139.496 159.142 139.491 159.15 139.486C159.21 139.453 159.268 139.416 159.323 139.376C159.332 139.37 159.34 139.362 159.349 139.355C159.392 139.322 159.435 139.287 159.476 139.249C159.494 139.233 159.51 139.215 159.528 139.198C159.545 139.18 159.569 139.159 159.588 139.138L167.449 130.433H195.217C197.015 130.431 198.739 129.716 200.011 128.444C201.283 127.173 201.998 125.448 202 123.65V49.0333C202.002 48.2631 201.87 47.4983 201.611 46.773C201.142 45.4511 200.276 44.3067 199.131 43.4968C197.987 42.687 196.619 42.2514 195.217 42.25ZM191.825 45.6417H195.217C195.919 45.6428 196.604 45.8617 197.177 46.2682C197.75 46.6747 198.183 47.2488 198.416 47.9115C198.544 48.2716 198.609 48.6511 198.608 49.0333V117.778C197.578 117.18 196.408 116.865 195.217 116.867H191.825V102.24C192.09 101.174 192.09 100.06 191.825 98.994V45.6417ZM158.207 135.607L156.948 134.471L178.543 110.558L179.801 111.694L158.207 135.607ZM174.767 107.148L176.026 108.284L154.432 132.198L153.173 131.061L174.767 107.148ZM182.074 109.177L177.039 104.631L179.314 102.113L184.348 106.659L182.074 109.177ZM188.631 100.613C188.632 101.453 188.32 102.262 187.757 102.885L186.62 104.143L184.364 102.106L181.586 99.5965L182.723 98.338C183.182 97.829 183.785 97.4713 184.452 97.3119C185.119 97.1526 185.819 97.1992 186.459 97.4455C187.099 97.6918 187.649 98.1263 188.037 98.6917C188.425 99.2571 188.632 99.9268 188.632 100.612L188.631 100.613ZM103.642 54.1208C103.643 52.772 104.18 51.4789 105.133 50.5252C106.087 49.5714 107.38 49.0349 108.729 49.0333H188.433V57.5125H178.258C177.809 57.5125 177.377 57.6912 177.059 58.0092C176.741 58.3272 176.562 58.7586 176.562 59.2083C176.562 59.6581 176.741 60.0894 177.059 60.4075C177.377 60.7255 177.809 60.9042 178.258 60.9042H188.433V74.4708H178.258C177.809 74.4708 177.377 74.6495 177.059 74.9675C176.741 75.2855 176.562 75.7169 176.562 76.1666C176.562 76.6164 176.741 77.0477 177.059 77.3658C177.377 77.6838 177.809 77.8625 178.258 77.8625H188.433V89.7333H178.258C177.809 89.7333 177.377 89.912 177.059 90.23C176.741 90.548 176.562 90.9794 176.562 91.4291C176.562 91.8789 176.741 92.3102 177.059 92.6283C177.377 92.9463 177.809 93.125 178.258 93.125H188.433V94.6268C187.098 93.9139 185.563 93.6681 184.072 93.9287C182.581 94.1892 181.22 94.9412 180.206 96.0647L177.933 98.5819L173.387 103.616L173.385 103.618L155.704 123.198C154.883 122.277 153.877 121.54 152.752 121.033C151.627 120.527 150.408 120.263 149.175 120.258H144.342V123.65H149.175C149.993 123.653 150.799 123.843 151.533 124.205C152.267 124.566 152.909 125.091 153.409 125.738L152.232 127.042H108.729C106.893 127.04 105.107 127.637 103.642 128.742V54.1208ZM113.817 140.608H108.729C107.38 140.608 106.086 140.072 105.132 139.118C104.178 138.164 103.642 136.87 103.642 135.521C103.642 134.171 104.178 132.877 105.132 131.923C106.086 130.969 107.38 130.433 108.729 130.433H113.817V140.608ZM150.275 139.33L151.677 134.281L153.953 136.337L155.156 137.423L150.275 139.33ZM195.217 127.042H170.512L183.455 112.709L188 107.676L188.002 107.675L188.433 107.197V118.562C188.433 119.012 188.612 119.444 188.93 119.762C189.248 120.08 189.679 120.258 190.129 120.258H195.217C196.116 120.258 196.979 120.616 197.615 121.252C198.251 121.888 198.608 122.75 198.608 123.65C198.608 124.549 198.251 125.412 197.615 126.048C196.979 126.684 196.116 127.042 195.217 127.042Z" fill="white" stroke="#051C2C" stroke-width="0.6"></path></svg> 