<?xml version="1.0" encoding="UTF-8"?> <svg xmlns="http://www.w3.org/2000/svg" width="300" height="186" viewBox="0 0 300 186" fill="none"><rect width="300" height="186" fill="#051C2C"></rect><path d="M155.664 42.3694C154.303 41.8496 152.895 41.3876 151.474 41L150.567 44.3433C151.878 44.7014 153.18 45.1275 154.435 45.6075L155.664 42.3694Z" fill="white"></path><path d="M179.341 71.5157L182.61 70.4004C180.352 63.7331 176.675 57.8088 171.68 52.7932C167.67 48.7671 163.029 45.5688 157.888 43.2882L156.492 46.457C161.244 48.5669 165.531 51.5226 169.24 55.2445C173.858 59.8803 177.256 65.3553 179.341 71.5157Z" fill="white"></path><path d="M103.528 108.983L100.654 110.903C103.564 115.295 107.198 119.128 111.454 122.299C116.009 125.691 121.065 128.172 126.486 129.675L127.405 126.333C122.396 124.946 117.722 122.652 113.513 119.516C109.576 116.584 106.217 113.041 103.528 108.983Z" fill="white"></path><path d="M134.213 93.3199C134.446 93.8808 134.954 94.2773 135.552 94.3659L141.862 95.3079C141.946 95.3208 142.032 95.3272 142.116 95.3272C142.584 95.3272 143.038 95.136 143.365 94.7907C146.316 91.681 146.458 91.2523 146.573 90.9097C146.71 90.4977 148.049 85.4218 148.62 83.2566C148.658 83.1129 148.677 82.9627 148.677 82.8138V77.4222C148.677 76.6278 148.139 75.9347 147.372 75.7409L142.551 74.5268C141.822 74.3407 141.062 74.6539 140.665 75.293L139.579 77.0449C139.271 77.5428 139.232 78.164 139.48 78.6954L140.543 80.9683L138.763 84.7069L133.557 87.9437C132.836 88.3916 132.546 89.2977 132.872 90.0831L134.213 93.3199ZM141.009 87.3867C141.292 87.2121 141.516 86.9606 141.659 86.6615L144.007 81.7229C144.23 81.2545 144.232 80.7103 144.012 80.2406L143.075 78.2346L145.223 78.7749V82.5905C144.575 85.0521 143.596 88.7535 143.349 89.6416C143.064 90.0113 142.275 90.8917 141.477 91.7503L137.025 91.0855L136.623 90.1152L141.009 87.3867Z" fill="white"></path><path d="M206.487 115.411C205.287 114.258 201.963 111.371 198.138 110.658C198.042 110.638 197.945 110.631 197.845 110.631H180.97L173.752 105.52C182.774 90.1793 180.727 70.0463 167.613 56.881C162.542 51.7884 156.34 48.2449 149.581 46.4712L149.535 46.3877L149.45 46.4352C146.218 45.5984 142.861 45.1621 139.436 45.1621C128.789 45.1621 118.782 49.3242 111.253 56.881C95.7157 72.4809 95.7144 97.8644 111.253 113.466C118.781 121.022 128.789 125.185 139.435 125.185C139.436 125.185 139.435 125.185 139.436 125.185C139.713 125.185 139.988 125.169 140.263 125.164L146.756 129.893C147.03 130.092 147.358 130.199 147.694 130.199H154.379L136.55 144.623C136.024 145.051 135.822 145.765 136.047 146.407C136.272 147.049 136.876 147.478 137.554 147.478H153.301C153.561 147.478 153.815 147.415 154.045 147.293L186.458 130.196H205.797C209.867 130.196 213.177 126.872 213.177 122.788C213.177 118.936 210.234 115.763 206.487 115.411ZM205.795 126.988H187.085C185.414 124.069 181.723 123.47 181.548 123.442C181.469 123.43 181.389 123.424 181.31 123.424H163.31C162.944 123.424 162.59 123.549 162.308 123.778L158.342 126.986H148.212L145.166 124.767L140.923 121.678L132.844 115.795V113.838H162H163.116H167.219H180.461H197.693C198.97 114.101 200.206 114.707 201.272 115.378H194.824V118.586H205.797C208.104 118.586 209.981 120.471 209.981 122.786C209.981 125.101 208.103 126.988 205.795 126.988ZM179.587 130.196L152.906 144.269H142.083L159.471 130.196L161.454 128.592L163.437 126.988H182.308C182.813 127.194 183.381 127.505 183.834 127.957L182.631 128.592L179.587 130.196ZM170.173 110.629H165.533H163.92L155.619 99.4135H159.586L169.187 106.212L172.007 108.21L175.426 110.631L170.173 110.629ZM132.844 110.629V101.522H134.46L140.161 110.629H132.844ZM175.642 81.5868L173.434 82.6982L171.524 82.0013L172.805 79.4294C173.184 78.6696 172.958 77.7455 172.273 77.2488L167.691 73.9274L165.177 70.1425C164.799 69.5753 164.126 69.2788 163.451 69.3956C161.141 69.7909 158.401 70.2106 157.373 70.3068C156.712 69.805 155.236 68.5242 153.84 67.2677L155.489 60.1421C155.635 59.5081 155.415 58.8446 154.921 58.4249L153.845 57.515C153.383 57.1235 152.753 57.0068 152.178 57.1993L150.024 57.9334L142.673 58.3928L141.539 56.4613L144.308 53.1976L149.873 50.1456C155.592 51.8551 160.833 54.9725 165.171 59.3272C171.361 65.5428 174.849 73.4563 175.642 81.5868ZM106.473 69.6625L112.109 67.2985L115.779 68.5935C116.077 68.7 116.398 68.7192 116.71 68.6538L123.807 67.1432L129.033 66.0946L129.775 68.2906L127.742 71.8623C127.446 72.3834 127.439 73.0225 127.724 73.55L131.397 80.329L123.897 91.9992C123.654 92.3778 123.567 92.8372 123.655 93.2787L124.585 97.9465H116.217C115.743 97.9465 115.291 98.1416 114.965 98.4881C114.639 98.8347 114.469 99.2993 114.495 99.7754L114.63 102.201C114.66 102.772 114.972 103.292 115.459 103.587L120.904 106.891L123.173 110.311L111.088 108.097C102.233 97.0815 100.695 82.0681 106.473 69.6625ZM115.107 112.355L124.365 114.051C124.47 114.07 124.572 114.079 124.675 114.079C125.394 114.079 126.05 113.627 126.3 112.929L126.971 111.043C127.154 110.528 127.084 109.954 126.782 109.499L123.561 104.646C123.42 104.434 123.233 104.256 123.016 104.125L118.544 101.41H126.686C127.203 101.41 127.694 101.178 128.022 100.776C128.35 100.375 128.481 99.8473 128.379 99.339L127.176 93.289L134.853 81.3442C135.197 80.8116 135.221 80.134 134.921 79.5757L131.216 72.7415L133.158 69.3314C133.402 68.9002 133.45 68.3855 133.292 67.9145L131.814 63.5394C131.537 62.7141 130.69 62.2277 129.841 62.3958L123.109 63.7486L116.465 65.1629L112.628 63.8089C112.226 63.6664 111.785 63.678 111.391 63.8435L109.257 64.7381C110.537 62.8309 112.013 61.0162 113.694 59.3285C120.569 52.4249 129.71 48.6235 139.435 48.6235C141.228 48.6235 143.003 48.7557 144.748 49.0098L142.376 50.3099C142.191 50.4113 142.027 50.546 141.889 50.7064L138.117 55.1535C137.64 55.7156 137.569 56.5203 137.944 57.1582L140.24 61.0688C140.571 61.6309 141.19 61.9723 141.834 61.9184L150.47 61.3781C150.622 61.3678 150.771 61.3383 150.917 61.2895L151.746 61.0072L150.247 67.4782C150.105 68.0904 150.305 68.7308 150.766 69.153C155.517 73.4871 156.047 73.6206 156.48 73.7297C156.812 73.8106 157.305 73.9351 162.925 72.9994L164.991 76.1104C165.106 76.2824 165.249 76.4326 165.417 76.5545L169.062 79.1971L167.568 82.1913C167.349 82.6341 167.328 83.1487 167.51 83.6082C167.691 84.0664 168.061 84.4257 168.522 84.5951L172.953 86.2122C173.144 86.2828 173.344 86.3162 173.544 86.3162C173.808 86.3162 174.074 86.2546 174.317 86.1327L175.813 85.3793C175.777 91.6565 174.145 97.9234 170.917 103.513L161.014 96.5001C160.744 96.3102 160.422 96.2062 160.092 96.2062H152.442C151.838 96.2062 151.287 96.5489 151.014 97.0892C150.742 97.6295 150.8 98.2802 151.159 98.7666L159.939 110.631H143.936L136.695 99.0657C136.402 98.5985 135.892 98.3149 135.342 98.3149H131.246C130.366 98.3149 129.648 99.0336 129.648 99.9192V112.235V116.615C129.648 117.129 129.894 117.611 130.309 117.914L135.181 121.461C127.705 120.592 120.742 117.449 115.107 112.355Z" fill="white"></path><path d="M192.875 115.158H189.22V118.829H192.875V115.158Z" fill="white"></path><path d="M187.327 115.158H183.669V118.829H187.327V115.158Z" fill="white"></path><path d="M181.778 115.158H178.123V118.829H181.778V115.158Z" fill="white"></path><path d="M176.23 115.158H172.575V118.829H176.23V115.158Z" fill="white"></path><path d="M170.683 115.158H167.027V118.829H170.683V115.158Z" fill="white"></path><path d="M161.48 118.515V118.829H165.136V115.738V115.158H161.48V118.515Z" fill="white"></path><path d="M155.931 117.755V118.829H159.589V115.614V115.158H155.931V117.755Z" fill="white"></path><path d="M150.385 118.829H153.645H154.04V118.653V115.158H150.385V118.829Z" fill="white"></path></svg> 