<?xml version="1.0" encoding="UTF-8"?> <svg xmlns="http://www.w3.org/2000/svg" width="300" height="186" viewBox="0 0 300 186" fill="none"><rect width="300" height="186" fill="#051C2C"></rect><path d="M111.987 104.187C110.833 103.728 109.516 103.992 108.629 104.866L106.486 107.018C105.854 107.652 105.522 108.531 105.579 109.425C105.635 110.3 106.057 111.109 106.745 111.646L115.746 118.816C115.443 119.174 115.163 119.508 114.9 119.813L114.786 119.947V119.951C113.81 121.122 113.373 122.652 113.575 124.164C113.782 125.702 114.624 127.081 115.896 127.963C116.921 128.675 118.165 128.996 119.404 128.878V138.651C119.413 143.438 123.277 147.322 128.049 147.326H172.987C177.759 147.322 181.623 143.438 181.631 138.651V128.065C181.866 128.13 182.109 128.17 182.352 128.187C183.333 128.256 184.289 127.894 184.977 127.19L187.627 124.526V124.53C188.619 123.542 188.911 122.05 188.372 120.76L181.631 104.321V75.0178C182.753 73.9237 183.835 72.8623 184.823 71.8659C190.993 65.6677 192.127 59.8436 191.99 56.0496C191.864 52.8488 189.308 50.2865 186.124 50.1646C184.568 50.1076 183.013 50.2663 181.502 50.6404C180.894 46.3863 177.268 43.2221 172.987 43.21H128.049C123.277 43.214 119.413 47.0981 119.409 51.8849V53.6907C118.845 53.8453 118.335 54.1381 117.918 54.5448L115.268 57.2047C114.58 57.9001 114.219 58.8558 114.276 59.836C114.333 60.8121 114.803 61.7231 115.568 62.3291L119.409 65.3875V107.241L111.987 104.187ZM172.986 143.858H128.049C125.185 143.858 122.864 141.527 122.864 138.652V127.333L123.605 126.699L130.727 135.711C131.261 136.419 132.076 136.858 132.959 136.915H133.165C133.988 136.915 134.778 136.59 135.361 136.004L137.504 133.853H137.5C138.379 132.962 138.642 131.628 138.168 130.469L133.258 118.467C139.339 113.262 148.004 105.786 156.92 97.8471L178.171 124.742V138.651C178.171 141.527 175.85 143.858 172.986 143.858ZM178.172 95.8995L172.986 83.2546C174.858 81.5098 176.559 79.8992 178.172 78.3579V95.8995ZM140.149 46.6806H160.89V48.4172C160.89 48.8768 160.708 49.3201 160.384 49.6455C160.06 49.9709 159.618 50.1539 159.16 50.1539H141.875C140.923 50.1539 140.149 49.3771 140.149 48.4172L140.149 46.6806ZM128.049 46.6806H136.69V48.4172C136.69 51.2926 139.011 53.6231 141.875 53.6231H159.16C162.024 53.6231 164.346 51.2926 164.346 48.4172V46.6806H172.986C175.81 46.6887 178.111 48.9581 178.163 51.7887C175.247 53.1512 172.606 55.0383 170.369 57.3566C167.157 60.5858 163.442 64.4698 159.03 69.2446L122.863 54.2862V51.8866C122.863 49.0112 125.185 46.6806 128.049 46.6806ZM120.352 56.9987L158.824 72.9087C159.493 73.1853 160.259 73.0185 160.749 72.4858C165.488 67.3491 169.434 63.2047 172.813 59.8169C178.107 54.5053 182.916 53.5374 185.999 53.639C187.372 53.7 188.474 54.7982 188.543 56.1769C188.656 59.2841 187.68 64.0995 182.389 69.4153C179.011 72.8072 174.883 76.7685 169.771 81.5271C169.244 82.0192 169.074 82.7919 169.349 83.4631L185.177 122.08L182.584 124.732L158.489 94.2536C158.194 93.8794 157.756 93.6476 157.282 93.6069C156.808 93.5622 156.338 93.7208 155.982 94.038C146.142 102.831 136.452 111.185 130.055 116.643C129.488 117.131 129.294 117.928 129.577 118.623L134.876 131.576L133.195 133.264L125.207 123.162L125.211 123.158C124.923 122.796 124.502 122.564 124.044 122.515C123.983 122.507 123.918 122.503 123.853 122.503C123.461 122.503 123.08 122.637 122.772 122.889C121.873 123.617 121.087 124.288 120.422 124.862C119.717 125.508 118.676 125.61 117.862 125.118C117.376 124.789 117.056 124.26 116.991 123.674C116.926 123.084 117.121 122.499 117.526 122.072C118.105 121.388 118.794 120.579 119.543 119.644C119.835 119.282 119.969 118.822 119.916 118.363C119.867 117.903 119.636 117.484 119.276 117.195L109.213 109.179L110.898 107.487L123.797 112.811L123.793 112.807C124.486 113.096 125.284 112.901 125.766 112.327C131.202 105.905 139.523 96.1891 148.281 86.298C148.597 85.9442 148.755 85.4724 148.715 84.9966C148.67 84.5207 148.439 84.0815 148.067 83.7846L117.716 59.6587L120.352 56.9987ZM122.864 68.1423L144.491 85.3787C136.584 94.3263 129.134 103.025 123.953 109.13L122.863 108.674L122.864 68.1423Z" fill="white"></path><path d="M162.617 136.915H138.42C137.464 136.915 136.691 137.692 136.691 138.652C136.691 139.608 137.464 140.384 138.42 140.384H162.617C163.573 140.384 164.347 139.608 164.347 138.652C164.347 137.692 163.573 136.915 162.617 136.915Z" fill="white"></path></svg> 