<?xml version="1.0" encoding="UTF-8"?> <svg xmlns="http://www.w3.org/2000/svg" xmlns:xlink="http://www.w3.org/1999/xlink" width="300" height="186" viewBox="0 0 300 186"><defs><clipPath id="clip-path"><rect id="Rectangle_62" data-name="Rectangle 62" width="110" height="110" transform="translate(1594 1303)" fill="#c17c7c"></rect></clipPath></defs><g id="Group_2910" data-name="Group 2910" transform="translate(-1514 -1270)"><rect id="Rectangle_55" data-name="Rectangle 55" width="300" height="186" transform="translate(1514 1270)" fill="#051c2c"></rect><g id="Mask_Group_12" data-name="Mask Group 12" transform="translate(15 5)" clip-path="url(#clip-path)"><g id="Group_2909" data-name="Group 2909" transform="translate(107 -228.453)"><path id="Path_2948" data-name="Path 2948" d="M243.442,70H220.4a1.646,1.646,0,1,0,0,3.292h23.045a1.646,1.646,0,0,0,0-3.292Z" transform="translate(1298.234 1476.622)" fill="#fff" stroke="#051c2c" stroke-width="1"></path><path id="Path_2949" data-name="Path 2949" d="M215.026,105H185.4a1.646,1.646,0,1,0,0,3.292h29.63a1.646,1.646,0,0,0,0-3.292Z" transform="translate(1326.649 1448.207)" fill="#fff" stroke="#051c2c" stroke-width="1"></path><path id="Path_2950" data-name="Path 2950" d="M215.026,140H185.4a1.646,1.646,0,1,0,0,3.292h29.63a1.646,1.646,0,0,0,0-3.292Z" transform="translate(1326.649 1419.791)" fill="#fff" stroke="#051c2c" stroke-width="1"></path><path id="Path_2951" data-name="Path 2951" d="M185.4,178.292h13.169a1.646,1.646,0,0,0,0-3.292H185.4a1.646,1.646,0,0,0,0,3.292Z" transform="translate(1326.649 1391.376)" fill="#fff" stroke="#051c2c" stroke-width="1"></path><path id="Path_2952" data-name="Path 2952" d="M449.023,376.25h-9.877a1.646,1.646,0,1,0,0,3.292h9.877a1.646,1.646,0,1,0,0-3.292Z" transform="translate(1120.636 1227.986)" fill="#fff" stroke="#051c2c" stroke-width="1"></path><path id="Path_2953" data-name="Path 2953" d="M420.607,411.25H404.146a1.646,1.646,0,1,0,0,3.292h16.461a1.646,1.646,0,1,0,0-3.292Z" transform="translate(1149.052 1199.57)" fill="#fff" stroke="#051c2c" stroke-width="1"></path><path id="Path_2954" data-name="Path 2954" d="M420.607,446.25H404.146a1.646,1.646,0,1,0,0,3.292h16.461a1.646,1.646,0,1,0,0-3.292Z" transform="translate(1149.052 1171.155)" fill="#fff" stroke="#051c2c" stroke-width="1"></path><path id="Path_2955" data-name="Path 2955" d="M410.73,481.25h-6.584a1.646,1.646,0,0,0,0,3.292h6.584a1.646,1.646,0,0,0,0-3.292Z" transform="translate(1149.052 1142.739)" fill="#fff" stroke="#051c2c" stroke-width="1"></path><path id="Path_2956" data-name="Path 2956" d="M169.083,57.929c.016-.016.021-.038.036-.054a21.362,21.362,0,0,0-5.29-34.042V14.814a1.616,1.616,0,0,0-.129-.633,1.639,1.639,0,0,0-.356-.53L150.177.483a1.64,1.64,0,0,0-.53-.356A1.616,1.616,0,0,0,149.013,0h-64.2a3.3,3.3,0,0,0-3.292,3.292V74.074H79.877a3.3,3.3,0,0,0-3.292,3.292V92.181H71.647a1.646,1.646,0,0,0,0,3.292h9.877v6.584a3.3,3.3,0,0,0,3.292,3.292h75.721a3.3,3.3,0,0,0,3.292-3.292V61.763a21.463,21.463,0,0,0,5.2-3.8c.017-.015.038-.02.053-.036ZM172.059,42.8a18.032,18.032,0,0,1-4.2,11.579L155.6,42.117V24.775A18.124,18.124,0,0,1,172.059,42.8ZM153.952,60.905a18.032,18.032,0,0,1-11.579-4.2l11.579-11.579L165.53,56.7A18.029,18.029,0,0,1,153.952,60.905ZM135.928,44.444h14.049l-9.932,9.932A18.024,18.024,0,0,1,135.928,44.444Zm16.377-3.292H135.928a18.125,18.125,0,0,1,16.377-16.377ZM150.659,5.619l7.549,7.549h-7.549ZM79.877,77.366h6.584V92.181H79.877Zm36.214,14.815h-6.584V62.551h6.584Zm-9.877,0H99.63V74.074h6.584Zm-9.877,0H89.754v-21.4h6.584Zm64.2,9.877H84.815V95.473h39.506a1.646,1.646,0,1,0,0-3.292h-4.938V62.551a3.3,3.3,0,0,0-3.292-3.292h-6.584a3.3,3.3,0,0,0-3.292,3.292v8.231H99.63a3.3,3.3,0,0,0-3.292-3.292H89.754a3.3,3.3,0,0,0-3.292,3.292v3.292H84.815V3.292h62.552v9.877a3.3,3.3,0,0,0,3.292,3.292h9.877v5.985a21.384,21.384,0,0,0-21.751,35.43c.015.016.02.038.036.054s.038.021.054.036a21.319,21.319,0,0,0,21.661,5.184Z" transform="translate(1418.999 1533.454)" fill="#fff" stroke="#051c2c" stroke-width="1"></path><path id="Path_2957" data-name="Path 2957" d="M243.442,227.5H220.4a1.646,1.646,0,0,0,0,3.292h23.045a1.646,1.646,0,0,0,0-3.292Z" transform="translate(1298.234 1348.752)" fill="#fff" stroke="#051c2c" stroke-width="1"></path><path id="Path_2958" data-name="Path 2958" d="M198.565,262.5H185.4a1.646,1.646,0,1,0,0,3.292h13.169a1.646,1.646,0,1,0,0-3.292Z" transform="translate(1326.649 1320.337)" fill="#fff" stroke="#051c2c" stroke-width="1"></path><path id="Path_2959" data-name="Path 2959" d="M292.042,176.646A1.646,1.646,0,1,1,290.4,175a1.646,1.646,0,0,1,1.646,1.646" transform="translate(1241.402 1391.376)" fill="#fff" stroke="#051c2c" stroke-width="1"></path><path id="Path_2960" data-name="Path 2960" d="M292.042,264.146A1.646,1.646,0,1,1,290.4,262.5a1.646,1.646,0,0,1,1.646,1.646" transform="translate(1241.402 1320.337)" fill="#fff" stroke="#051c2c" stroke-width="1"></path><path id="Path_2961" data-name="Path 2961" d="M475.792,482.9a1.646,1.646,0,1,1-1.646-1.646,1.646,1.646,0,0,1,1.646,1.646" transform="translate(1092.22 1142.739)" fill="#fff" stroke="#051c2c" stroke-width="1"></path></g></g></g></svg> 