<?xml version="1.0" encoding="UTF-8"?> <svg xmlns="http://www.w3.org/2000/svg" xmlns:xlink="http://www.w3.org/1999/xlink" width="300" height="186" viewBox="0 0 300 186"><defs><clipPath id="clip-path"><rect id="Rectangle_61" data-name="Rectangle 61" width="110" height="110" transform="translate(611 2170)" fill="#c60404"></rect></clipPath></defs><g id="Group_2908" data-name="Group 2908" transform="translate(-429 -2123)"><g id="Group_2907" data-name="Group 2907" transform="translate(-172)"><rect id="Rectangle_55" data-name="Rectangle 55" width="300" height="186" transform="translate(601 2123)" fill="#051c2c"></rect><g id="Mask_Group_11" data-name="Mask Group 11" transform="translate(85 -9)" clip-path="url(#clip-path)"><g id="Group_2880" data-name="Group 2880" transform="translate(-595.497 145.883)"><path id="Path_2947" data-name="Path 2947" d="M202.878,62.38l.156-.156a5.136,5.136,0,0,0,6.7-7.286c8.492-10.259,11.293-18.508,7.886-23.3-2.587-3.638-8.314-4.562-16.559-2.669a71.42,71.42,0,0,0-11.4,3.791,66.7,66.7,0,0,0-4.307-13.28c-3.095-6.653-6.895-10.172-10.988-10.172s-7.894,3.517-10.988,10.172h0a66.685,66.685,0,0,0-4.307,13.28,71.491,71.491,0,0,0-11.4-3.791c-8.25-1.892-13.977-.969-16.559,2.669-3.153,4.438-.921,11.973,6.277,21.29h0a5.138,5.138,0,0,0,6.5,7.474q.958.992,1.961,1.983h0a85.4,85.4,0,0,0-11.18,13.23c-5.052,7.639-6.284,13.692-3.572,17.51,1.708,2.4,4.809,3.623,9.108,3.623h0a31.211,31.211,0,0,0,5.711-.592,66.263,66.263,0,0,0,12.749-3.982,5.138,5.138,0,0,0,3.042,9.282h.09c3.35,9.16,7.682,14,12.567,14,2.721,0,6.749-1.6,10.546-9.25a64.159,64.159,0,0,0,4.748-14.193,66.978,66.978,0,0,0,13.153,4.151,31.067,31.067,0,0,0,5.71.592c4.295,0,7.4-1.222,9.108-3.624,2.712-3.815,1.48-9.871-3.563-17.505a85.389,85.389,0,0,0-11.189-13.242Zm2.5-2.585h0a2.143,2.143,0,1,1,2.143-2.143,2.144,2.144,0,0,1-2.143,2.143Zm9.805-26.424c2.436,3.43-.513,10.882-7.7,19.594h0a5.137,5.137,0,0,0-6.6,7.178l-.16.16c-2.38-2.24-4.936-4.473-7.632-6.665v-8.1a3.047,3.047,0,0,0-1.633-2.5c-.33-2.527-.72-4.957-1.17-7.277,12.28-5.205,22.067-6.368,24.9-2.388ZM190.1,81.8c-.86.9-6.25,2.534-15.731,2.534S159.5,82.7,158.636,81.8V76.085c4.691,2,13.47,2.129,15.731,2.129s11.039-.135,15.731-2.129Zm-2.306,4.162q-.156.917-.323,1.81-1.257-.581-2.539-1.213c.99-.163,1.958-.36,2.862-.6ZM190.1,72.687c-.855.9-6.245,2.534-15.731,2.534s-14.879-1.634-15.731-2.534V66.973c4.691,2,13.47,2.129,15.731,2.129s11.039-.135,15.731-2.129ZM174.367,50.88c2.259,0,11.039-.135,15.731-2.129v5.714c-.855.9-6.244,2.535-15.731,2.535s-14.879-1.638-15.731-2.537V48.748C163.323,50.748,172.1,50.88,174.367,50.88ZM190.1,63.575c-.855.9-6.245,2.534-15.731,2.534s-14.879-1.634-15.731-2.534V57.859c4.691,2,13.47,2.129,15.731,2.129s11.039-.135,15.731-2.129Zm-.225-18.04c-1.352.921-6.639,2.349-15.505,2.349s-14.159-1.428-15.511-2.349c1.352-.923,6.639-2.349,15.51-2.349s14.148,1.426,15.5,2.349Zm-9.264-5.086c2.34-1.266,4.639-2.417,6.869-3.442q.424,2.267.771,4.677h0a41.7,41.7,0,0,0-7.646-1.24Zm-20.128,1.229q.348-2.407.771-4.677c2.23,1.026,4.529,2.175,6.869,3.442a41.719,41.719,0,0,0-7.641,1.235Zm-4.85,25.558q-2.862-2.413-5.468-4.856c1.731-1.625,3.561-3.251,5.473-4.858Zm8.161,19.324q-1.282.632-2.537,1.213-.168-.9-.324-1.81c.906.238,1.874.434,2.864.6Zm29.293-29.038q2.864,2.412,5.471,4.855-2.6,2.446-5.471,4.857Zm-27-36.781c2.533-5.441,5.471-8.433,8.279-8.433s5.737,2.992,8.267,8.433a64.527,64.527,0,0,1,4.227,13.234,127.732,127.732,0,0,0-11.9,6.217h-1.183a127.727,127.727,0,0,0-11.9-6.217,64.507,64.507,0,0,1,4.214-13.234ZM139.515,55.769a2.143,2.143,0,1,1,2.143,2.143,2.143,2.143,0,0,1-2.143-2.143Zm6.572,2.6h0a5.137,5.137,0,0,0-6.394-7.348c-6.1-7.924-8.4-14.476-6.15-17.648,2.829-3.98,12.616-2.817,24.9,2.388-.449,2.319-.84,4.75-1.168,7.277h0a3.048,3.048,0,0,0-1.635,2.5v8.1c-2.7,2.192-5.254,4.426-7.634,6.666q-.98-.969-1.914-1.937Zm-.726,34.851c-5.982,1.129-10.172.479-11.817-1.827-1.878-2.644-.558-7.792,3.622-14.125h0A82.328,82.328,0,0,1,148,64.466q3.576,3.361,7.634,6.663V81.988h0a3.311,3.311,0,0,0,2.065,2.761q.34,2.184.745,4.278a64.974,64.974,0,0,1-13.085,4.192Zm14.2,3.1h0a2.143,2.143,0,1,1,2.146,2.141,2.144,2.144,0,0,1-2.146-2.141Zm22.661,8.552c-2.431,4.892-5.224,7.586-7.863,7.586-3.4,0-6.911-4.329-9.713-11.927h0a5.137,5.137,0,0,0-2.692-9.344c-.029-.131-.058-.265-.088-.4q3.559-1.617,7.306-3.635c2.321.155,4.279.177,5.186.177s2.865-.022,5.186-.177c2.493,1.343,4.936,2.557,7.308,3.636h0a62.063,62.063,0,0,1-4.632,14.079ZM215.18,91.391c-1.638,2.306-5.835,2.957-11.817,1.827h0a64.947,64.947,0,0,1-13.083-4.192q.4-2.083.744-4.28h0a3.311,3.311,0,0,0,2.063-2.759V71.125c2.692-2.188,5.246-4.418,7.632-6.663h0a82.409,82.409,0,0,1,10.838,12.806c4.18,6.332,5.5,11.481,3.622,14.125Zm-15.348,10.7a8.344,8.344,0,1,0,5.891,2.444,8.335,8.335,0,0,0-5.891-2.444Zm0,13.674a5.345,5.345,0,1,1,3.773-1.565,5.341,5.341,0,0,1-3.773,1.565Zm-57.06-12.172a6.263,6.263,0,1,0,4.419,1.834,6.255,6.255,0,0,0-4.419-1.834Zm0,9.512h0a3.263,3.263,0,1,1,2.3-.956,3.26,3.26,0,0,1-2.3.956Zm6.363-90.035h0a7.158,7.158,0,1,0-5.058-2.1,7.154,7.154,0,0,0,5.058,2.1Zm0-11.314v0a4.163,4.163,0,1,1-2.938,1.22,4.155,4.155,0,0,1,2.938-1.22ZM163.1,80.381h0a1.492,1.492,0,0,1-1.808,1.1q-.3-.075-.592-.15a1.5,1.5,0,0,1,.779-2.893c.168.045.342.09.52.134a1.5,1.5,0,0,1,1.1,1.811Zm11.158.909v0a1.5,1.5,0,0,1-1.5,1.466h-.031a67.2,67.2,0,0,1-7.071-.5,1.5,1.5,0,1,1,.378-2.973,64.421,64.421,0,0,0,6.754.474,1.5,1.5,0,0,1,1.467,1.529Zm6.083-.427v0a1.774,1.774,0,1,1,1.774,1.774,1.775,1.775,0,0,1-1.774-1.774Zm5.179-.906v0a1.819,1.819,0,1,1,1.818,1.819,1.818,1.818,0,0,1-1.818-1.819Zm-11.263-7.779v0a1.5,1.5,0,0,1-1.5,1.467h-.031a67.416,67.416,0,0,1-7.071-.5,1.5,1.5,0,1,1,.378-2.973,64.632,64.632,0,0,0,6.754.473,1.5,1.5,0,0,1,1.467,1.529ZM163.1,71.269v0a1.492,1.492,0,0,1-1.808,1.1q-.3-.075-.592-.15a1.5,1.5,0,0,1,.779-2.893c.168.045.342.089.52.132a1.5,1.5,0,0,1,1.1,1.812Zm17.241.482v0a1.774,1.774,0,1,1,1.774,1.774,1.775,1.775,0,0,1-1.774-1.774Zm5.179-.907,0,0a1.819,1.819,0,1,1,1.819,1.819,1.818,1.818,0,0,1-1.819-1.819ZM163.1,62.158a1.5,1.5,0,0,1-1.808,1.1q-.3-.075-.592-.151h0a1.5,1.5,0,0,1,.781-2.893c.168.045.342.089.52.132A1.5,1.5,0,0,1,163.1,62.158Zm11.158.909a1.5,1.5,0,0,1-1.5,1.467h-.031a67.627,67.627,0,0,1-7.071-.5,1.5,1.5,0,1,1,.378-2.973,64.207,64.207,0,0,0,6.754.474,1.5,1.5,0,0,1,1.467,1.529Zm6.083-.427a1.775,1.775,0,1,1,1.774,1.774A1.774,1.774,0,0,1,180.346,62.64Zm5.179-.907h0a1.819,1.819,0,1,1,1.818,1.819,1.819,1.819,0,0,1-1.818-1.819Zm-21.158-8.484a1.5,1.5,0,0,1,1.676-1.3,64.209,64.209,0,0,0,6.754.473,1.5,1.5,0,0,1-.03,3h-.031a67.633,67.633,0,0,1-7.071-.5,1.5,1.5,0,0,1-1.3-1.671Zm-4.717-1.091a1.5,1.5,0,0,1,1.836-1.057c.168.046.342.089.52.134h0a1.5,1.5,0,0,1-.355,2.957,1.532,1.532,0,0,1-.355-.043c-.2-.05-.4-.1-.592-.151h0a1.5,1.5,0,0,1-1.054-1.839Zm20.7,1.371a1.77,1.77,0,1,1,.518,1.255,1.775,1.775,0,0,1-.518-1.255Zm5.179-.907h0a1.819,1.819,0,1,1,1.818,1.819,1.819,1.819,0,0,1-1.818-1.819Z" transform="translate(1086.799 2015.355)" fill="#fff" stroke="#051c2c" stroke-width="0.6" fill-rule="evenodd"></path></g></g></g></g></svg> 