<?xml version="1.0" encoding="UTF-8"?> <svg xmlns="http://www.w3.org/2000/svg" width="300" height="186" viewBox="0 0 300 186"><g id="Group_2949" data-name="Group 2949" transform="translate(-51 -2090)"><g id="Group_2922" data-name="Group 2922" transform="translate(-1315)"><rect id="Rectangle_55" data-name="Rectangle 55" width="300" height="186" transform="translate(1366 2090)" fill="#051c2c"></rect></g><g id="Group_2948" data-name="Group 2948" transform="translate(-799.02 153)"><path id="Path_3137" data-name="Path 3137" d="M162.172,81.082a12.044,12.044,0,1,0,6.323-14.265L154.513,51.389a12.05,12.05,0,1,0-22.087-3.9l-10.435,5.5a12.047,12.047,0,1,0,0,16.813l10.435,5.5a11.781,11.781,0,0,0,0,4.734l-10.438,5.5a12.046,12.046,0,1,0,0,16.813l10.435,5.5a11.78,11.78,0,0,0,0,4.734l-10.438,5.5a12.044,12.044,0,1,0,0,16.813l10.435,5.5a12.044,12.044,0,1,0,22.087-3.9l13.981-15.428a12.046,12.046,0,1,0,0-21.705L154.508,83.933a12.153,12.153,0,0,0,1.264-2.85h6.4ZM149.457,131.9a12.044,12.044,0,0,0-13.853,2.446l-10.435-5.5a11.767,11.767,0,0,0,0-4.731l10.438-5.5a12.043,12.043,0,0,0,20.176-4.994h6.394a12.053,12.053,0,0,0,1.264,2.85L149.46,131.9Zm-9.848-19.262a5.221,5.221,0,0,1,0-4.862,5.222,5.222,0,1,1,0,4.862Zm22.565-5.843H155.78a12.043,12.043,0,0,0-20.176-4.994l-10.435-5.5a11.781,11.781,0,0,0,0-4.734l10.438-5.5a12.044,12.044,0,0,0,13.853,2.446l13.981,15.428a12.152,12.152,0,0,0-1.264,2.85ZM147.731,81.538a5.218,5.218,0,0,1-8.122-1.439,5.221,5.221,0,0,1,0-4.862,5.22,5.22,0,1,1,8.122,6.3Zm-3.5-15.914a12.019,12.019,0,0,0-8.625,3.639l-10.435-5.5a11.767,11.767,0,0,0,0-4.731l10.438-5.5a12.044,12.044,0,0,0,13.853,2.446l13.981,15.428a12.152,12.152,0,0,0-1.264,2.85h-6.394a12.064,12.064,0,0,0-11.551-8.633ZM178.943,77.67a5.221,5.221,0,1,1-5.223-5.22A5.228,5.228,0,0,1,178.943,77.67ZM144.229,39.905a5.22,5.22,0,1,1-4.619,7.65,5.132,5.132,0,0,1-.6-2.43A5.227,5.227,0,0,1,144.229,39.905ZM113.361,66.618a5.22,5.22,0,1,1,4.619-7.655,5.221,5.221,0,0,1-4.619,7.655Zm0,32.544a5.22,5.22,0,1,1,4.619-7.65,5.221,5.221,0,0,1,0,4.862A5.214,5.214,0,0,1,113.361,99.162Zm0,32.544a5.22,5.22,0,1,1,4.619-7.65,5.231,5.231,0,0,1,0,4.862A5.215,5.215,0,0,1,113.361,131.706Zm30.868,16.272a5.227,5.227,0,0,1-5.22-5.22,5.151,5.151,0,0,1,.6-2.433v0h0a5.218,5.218,0,0,1,8.12-1.433h0a5.219,5.219,0,0,1-3.506,9.086Zm34.714-37.764a5.221,5.221,0,1,1-5.223-5.22,5.228,5.228,0,0,1,5.223,5.22Z" transform="translate(856.634 1935.92)" fill="#fff" stroke="#051c2c" stroke-width="4"></path><path id="Path_3138" data-name="Path 3138" d="M22.186,97.2a3.413,3.413,0,0,0-4.827,4.827l1.846,1.846H13.433a3.413,3.413,0,1,0,0,6.825H19.2l-1.846,1.846a3.413,3.413,0,0,0,4.827,4.827l7.672-7.672a3.414,3.414,0,0,0,0-4.827Z" transform="translate(923 1890.033)" fill="#fff" stroke="#051c2c" stroke-width="4"></path><path id="Path_3139" data-name="Path 3139" d="M22.186,216.4a3.413,3.413,0,1,0-4.827,4.827l1.846,1.846H13.433a3.413,3.413,0,1,0,0,6.825H19.2l-1.846,1.846a3.413,3.413,0,0,0,4.827,4.827l7.672-7.672a3.414,3.414,0,0,0,0-4.827Z" transform="translate(923 1803.377)" fill="#fff" stroke="#051c2c" stroke-width="4"></path><path id="Path_3140" data-name="Path 3140" d="M429.083,170.3h5.772l-1.846,1.846a3.413,3.413,0,0,0,4.827,4.827l7.672-7.672a3.414,3.414,0,0,0,0-4.827l-7.672-7.672a3.413,3.413,0,0,0-4.827,4.827l1.846,1.846h-5.772a3.413,3.413,0,1,0,0,6.825Z" transform="translate(620.831 1846.705)" fill="#fff" stroke="#051c2c" stroke-width="4"></path><path id="Path_3141" data-name="Path 3141" d="M437.826,276.009A3.413,3.413,0,0,0,433,280.836l1.846,1.846h-5.772a3.413,3.413,0,1,0,0,6.825h5.772L433,291.353a3.413,3.413,0,0,0,4.827,4.827l7.672-7.672a3.414,3.414,0,0,0,0-4.827Z" transform="translate(620.838 1760.042)" fill="#fff" stroke="#051c2c" stroke-width="4"></path><path id="Path_3142" data-name="Path 3142" d="M22.186,335.609a3.413,3.413,0,1,0-4.827,4.827l1.846,1.846H13.433a3.413,3.413,0,0,0,0,6.826H19.2l-1.846,1.846a3.413,3.413,0,0,0,4.827,4.827l7.672-7.672a3.414,3.414,0,0,0,0-4.827Z" transform="translate(923 1716.713)" fill="#fff" stroke="#051c2c" stroke-width="4"></path></g></g></svg> 