<?xml version="1.0" encoding="UTF-8"?> <svg xmlns="http://www.w3.org/2000/svg" width="300" height="186" viewBox="0 0 300 186"><g id="Group_2991" data-name="Group 2991" transform="translate(-51 -4904)"><g id="Group_2983" data-name="Group 2983" transform="translate(0 695)"><g id="Group_2978" data-name="Group 2978" transform="translate(0 355)"><rect id="Rectangle_67" data-name="Rectangle 67" width="300" height="186" transform="translate(51 3854)" fill="#051c2c"></rect></g></g><g id="Group_2990" data-name="Group 2990" transform="translate(-355 -13)"><path id="Path_3202" data-name="Path 3202" d="M97.368,28.991a1.8,1.8,0,0,0,1.272-.527l7.2-7.2a1.8,1.8,0,0,0,.527-1.272V12.465a5.4,5.4,0,1,0-3.6,0v6.784l-6.143,6.143H74.816A35.668,35.668,0,0,0,70.786,23.2a1.72,1.72,0,0,0-.408-.112V15.341L76.52,9.2h3.185a5.4,5.4,0,1,0,0-3.6h-3.93a1.8,1.8,0,0,0-1.272.527l-7.2,7.2a1.8,1.8,0,0,0-.527,1.272V25.7l-1.189,1.27a30.216,30.216,0,0,0-3.4-.91l-1.051-4.5a1.8,1.8,0,0,0-1.576-1.382c-.6-.059-1.186-.059-1.776-.088v-7.62a5.4,5.4,0,1,0-3.6,0v7.62c-.59.031-1.173.029-1.776.088a1.8,1.8,0,0,0-1.576,1.382l-1.051,4.5a30.186,30.186,0,0,0-3.4.91L45.186,25.7V14.6a1.8,1.8,0,0,0-.527-1.272l-7.2-7.2A1.8,1.8,0,0,0,36.189,5.6h-3.93a5.4,5.4,0,1,0,0,3.6h3.185l6.143,6.143v7.752a1.862,1.862,0,0,0-.408.112,35.824,35.824,0,0,0-4.031,2.188H15.341L9.2,19.249V12.465a5.4,5.4,0,1,0-3.6,0v7.529a1.8,1.8,0,0,0,.527,1.272l7.2,7.2a1.8,1.8,0,0,0,1.272.527H34.384l1.26,4.146a30.792,30.792,0,0,0-2.507,2.507l-4.362-1.326a1.8,1.8,0,0,0-1.983.669q-1.045,1.452-1.945,3H17.862a5.4,5.4,0,1,0,0,3.6h5.229a1.785,1.785,0,0,0,.522,1.646l3.354,3.142a30.215,30.215,0,0,0-.91,3.4l-4.5,1.051a1.8,1.8,0,0,0-1.382,1.576c-.059.6-.059,1.182-.09,1.776H12.465a5.4,5.4,0,1,0,0,3.6h7.62c.031.594.031,1.171.09,1.776a1.8,1.8,0,0,0,1.382,1.576l4.5,1.051a30.186,30.186,0,0,0,.91,3.4l-3.354,3.142a1.786,1.786,0,0,0-.522,1.648H17.865a5.4,5.4,0,1,0,0,3.6h6.985q.9,1.544,1.943,3a1.8,1.8,0,0,0,1.985.669l4.362-1.324a30.507,30.507,0,0,0,2.507,2.507l-1.263,4.146H14.6a1.8,1.8,0,0,0-1.272.527l-7.2,7.2A1.8,1.8,0,0,0,5.6,91.97V99.5a5.4,5.4,0,1,0,3.6,0V92.715l6.143-6.143H37.148a35.8,35.8,0,0,0,4.031,2.188,1.814,1.814,0,0,0,.408.113v7.75l-6.143,6.143H32.259a5.4,5.4,0,1,0,0,3.6h3.93a1.8,1.8,0,0,0,1.272-.527l7.2-7.2a1.8,1.8,0,0,0,.527-1.272v-11.1L46.375,85a30.214,30.214,0,0,0,3.4.91l1.051,4.5a1.8,1.8,0,0,0,1.576,1.382c.6.059,1.182.059,1.776.09V99.5a5.4,5.4,0,1,0,3.6,0V91.88c.594-.031,1.173-.031,1.776-.09a1.8,1.8,0,0,0,1.576-1.382l1.051-4.5a30.185,30.185,0,0,0,3.4-.91l1.191,1.272v11.1a1.8,1.8,0,0,0,.527,1.272l7.2,7.2a1.8,1.8,0,0,0,1.272.527h3.93a5.4,5.4,0,1,0,0-3.6H76.52l-6.143-6.143v-7.75a1.862,1.862,0,0,0,.408-.112,35.823,35.823,0,0,0,4.031-2.188H96.623l6.143,6.141V99.5a5.4,5.4,0,1,0,3.6,0V91.97a1.8,1.8,0,0,0-.527-1.272l-7.2-7.2a1.8,1.8,0,0,0-1.272-.527H77.58l-1.26-4.146a30.506,30.506,0,0,0,2.507-2.507l4.36,1.326a1.8,1.8,0,0,0,1.983-.669c.7-.968,1.348-1.972,1.945-3H94.1a5.4,5.4,0,1,0,0-3.6H88.871a1.785,1.785,0,0,0-.522-1.646L85,65.589a30.214,30.214,0,0,0,.91-3.4l4.5-1.051a1.8,1.8,0,0,0,1.382-1.576c.059-.6.059-1.182.09-1.776H99.5a5.4,5.4,0,1,0,0-3.6H91.88c-.031-.594-.031-1.173-.09-1.776a1.8,1.8,0,0,0-1.382-1.576l-4.5-1.051a30.185,30.185,0,0,0-.91-3.4l3.354-3.142a1.786,1.786,0,0,0,.522-1.648H94.1a5.4,5.4,0,1,0,0-3.6H87.115q-.9-1.544-1.943-3a1.8,1.8,0,0,0-1.985-.669l-4.362,1.324a30.507,30.507,0,0,0-2.507-2.507l1.26-4.146Zm7.2-23.392a1.8,1.8,0,1,1-1.8,1.8A1.8,1.8,0,0,1,104.566,5.6Zm-19.793,0a1.8,1.8,0,1,1-1.8,1.8A1.8,1.8,0,0,1,84.772,5.6ZM27.192,9.2a1.8,1.8,0,1,1,1.8-1.8A1.8,1.8,0,0,1,27.192,9.2ZM7.4,5.6A1.8,1.8,0,1,1,5.6,7.4,1.8,1.8,0,0,1,7.4,5.6Zm5.4,35.988a1.8,1.8,0,1,1,1.8-1.8A1.8,1.8,0,0,1,12.8,41.587Zm0,32.389a1.8,1.8,0,1,1,1.8-1.8A1.8,1.8,0,0,1,12.8,73.976ZM7.4,106.365a1.8,1.8,0,1,1,1.8-1.8A1.8,1.8,0,0,1,7.4,106.365Zm19.793,0a1.8,1.8,0,1,1,1.8-1.8A1.8,1.8,0,0,1,27.192,106.365Zm57.581-3.6a1.8,1.8,0,1,1-1.8,1.8A1.8,1.8,0,0,1,84.772,102.766Zm19.793,3.6a1.8,1.8,0,1,1,1.8-1.8A1.8,1.8,0,0,1,104.566,106.365Zm-5.4-35.988a1.8,1.8,0,1,1-1.8,1.8A1.8,1.8,0,0,1,99.168,70.377Zm0-32.389a1.8,1.8,0,1,1-1.8,1.8A1.8,1.8,0,0,1,99.168,37.988ZM55.982,5.6a1.8,1.8,0,1,1-1.8,1.8A1.8,1.8,0,0,1,55.982,5.6ZM7.4,57.781a1.8,1.8,0,1,1,1.8-1.8A1.8,1.8,0,0,1,7.4,57.781Zm48.584,48.584a1.8,1.8,0,1,1,1.8-1.8A1.8,1.8,0,0,1,55.982,106.365Zm48.584-52.183a1.8,1.8,0,1,1-1.8,1.8A1.8,1.8,0,0,1,104.566,54.183ZM76.837,38.85a1.8,1.8,0,0,0,1.913.578l4.23-1.285a32.93,32.93,0,0,1,1.951,3.365l-3.252,3.045a1.8,1.8,0,0,0-.453,1.947,26.907,26.907,0,0,1,1.353,5.06,1.8,1.8,0,0,0,1.366,1.458l4.367,1.018q.059.993.059,1.947t-.061,1.947l-4.367,1.018A1.8,1.8,0,0,0,82.577,60.4a27.044,27.044,0,0,1-1.353,5.06,1.8,1.8,0,0,0,.453,1.947l3.252,3.045a32.823,32.823,0,0,1-1.951,3.365L78.75,72.535a1.8,1.8,0,0,0-1.913.578,27.263,27.263,0,0,1-3.723,3.723,1.8,1.8,0,0,0-.578,1.913l1.285,4.23a32.929,32.929,0,0,1-3.365,1.951l-3.045-3.252a1.8,1.8,0,0,0-1.947-.453,26.908,26.908,0,0,1-5.06,1.353,1.8,1.8,0,0,0-1.458,1.366L57.929,88.31a31.243,31.243,0,0,1-3.894,0l-1.018-4.367a1.8,1.8,0,0,0-1.458-1.366,27.044,27.044,0,0,1-5.06-1.353,1.8,1.8,0,0,0-1.947.453l-3.046,3.252a32.546,32.546,0,0,1-3.365-1.951l1.287-4.229a1.8,1.8,0,0,0-.578-1.913,27.263,27.263,0,0,1-3.723-3.723,1.793,1.793,0,0,0-1.913-.578l-4.23,1.285a32.93,32.93,0,0,1-1.951-3.365l3.252-3.045a1.8,1.8,0,0,0,.453-1.947,26.907,26.907,0,0,1-1.353-5.06,1.8,1.8,0,0,0-1.366-1.458l-4.367-1.018q-.059-.993-.059-1.947t.061-1.947l4.367-1.018a1.8,1.8,0,0,0,1.366-1.458A27.044,27.044,0,0,1,30.74,46.5a1.8,1.8,0,0,0-.453-1.947l-3.252-3.045a32.823,32.823,0,0,1,1.951-3.365l4.229,1.285a1.791,1.791,0,0,0,1.913-.578,27.365,27.365,0,0,1,3.723-3.723,1.8,1.8,0,0,0,.578-1.913l-1.285-4.23a32.93,32.93,0,0,1,3.365-1.951l3.045,3.252a1.8,1.8,0,0,0,1.947.453,26.907,26.907,0,0,1,5.06-1.353,1.8,1.8,0,0,0,1.458-1.366l1.018-4.367a31.239,31.239,0,0,1,3.894,0l1.018,4.367A1.8,1.8,0,0,0,60.4,29.385a27.044,27.044,0,0,1,5.06,1.353,1.808,1.808,0,0,0,1.947-.453l3.046-3.252a32.548,32.548,0,0,1,3.365,1.951l-1.287,4.229a1.8,1.8,0,0,0,.578,1.913A27.481,27.481,0,0,1,76.837,38.85Z" transform="translate(500 4954)" fill="#fff"></path><path id="Path_3203" data-name="Path 3203" d="M39.195,21C31.146,21,23,23.472,23,28.2V55.189c0,4.725,8.146,7.2,16.195,7.2s16.195-2.472,16.195-7.2V28.2C55.389,23.472,47.243,21,39.195,21Zm0,37.787c-8.182,0-12.6-2.553-12.6-3.6V50.87c3.124,1.661,7.871,2.519,12.6,2.519s9.472-.858,12.6-2.519v4.319C51.79,56.234,47.376,58.787,39.195,58.787Zm0-9c-8.182,0-12.6-2.553-12.6-3.6V41.873c3.124,1.661,7.871,2.519,12.6,2.519s9.472-.858,12.6-2.519v4.319C51.79,47.237,47.376,49.79,39.195,49.79Zm0-9c-8.182,0-12.6-2.553-12.6-3.6V32.876c3.124,1.661,7.871,2.519,12.6,2.519s9.472-.858,12.6-2.519v4.319C51.79,38.24,47.376,40.793,39.195,40.793Zm0-9c-8.182,0-12.6-2.553-12.6-3.6s4.414-3.6,12.6-3.6,12.6,2.553,12.6,3.6S47.376,31.8,39.195,31.8Z" transform="translate(516.787 4969.188)" fill="#fff"></path></g></g></svg> 