<?xml version="1.0" encoding="UTF-8"?> <svg xmlns="http://www.w3.org/2000/svg" xmlns:xlink="http://www.w3.org/1999/xlink" width="300" height="186" viewBox="0 0 300 186"><defs><clipPath id="clip-path"><rect id="Rectangle_60" data-name="Rectangle 60" width="109" height="109" transform="translate(-2321 3459)" fill="#986767"></rect></clipPath></defs><g id="Group_2866" data-name="Group 2866" transform="translate(-51 -921)"><rect id="Rectangle_2" data-name="Rectangle 2" width="300" height="186" transform="translate(51 921)" fill="#051c2c"></rect><g id="Mask_Group_10" data-name="Mask Group 10" transform="translate(2468 -2499)" clip-path="url(#clip-path)"><g id="Group_2865" data-name="Group 2865" transform="translate(-2962.536 2473.016)"><path id="Path_2900" data-name="Path 2900" d="M186.6,93.808V32.787a8.08,8.08,0,0,0-8.136-8.136h-18.15c-4.538-10.17-17.993-11.109-24.408-3.442a7.016,7.016,0,0,0-6.572.782c-4.381-4.538-13.612-4.381-18.776,2.66H94.6a8.284,8.284,0,0,0-8.136,8.136V93.808a8.08,8.08,0,0,0,8.136,8.136h26.129l-3.286,11.265h-7.823a1.564,1.564,0,1,0,0,3.129h53.823a1.564,1.564,0,1,0,0-3.129h-7.823l-3.286-11.265h26.129a8.081,8.081,0,0,0,8.135-8.137Zm-59.456-69.47a6.7,6.7,0,0,0-.939,3.442,1.564,1.564,0,1,0,3.129,0,3.837,3.837,0,0,1,.939-2.5,4.047,4.047,0,0,1,5.163-.626,3.874,3.874,0,0,1,1.721,3.286,1.564,1.564,0,1,0,3.129,0,6.625,6.625,0,0,0-1.878-4.694c6.728-7.667,19.4-2.5,19.715,5.945a12.5,12.5,0,0,0-6.1,4.694A5.746,5.746,0,0,0,145.3,35.6a1.513,1.513,0,0,0,.157,2.191,1.664,1.664,0,0,0,2.191-.157,2.677,2.677,0,0,1,4.068-.157,2.65,2.65,0,0,1,.157,3.6,1.565,1.565,0,1,0,2.5,1.878,5.867,5.867,0,0,0,0-7.2c3.129-4.224,7.041-5.007,11.578-2.347,3.6,2.191,6.1,5.163,6.884,8.136,1.564,5.633,0,12.83-5.789,12.83h-5.32c-.782-1.1-2.191-4.224.469-7.98a1.565,1.565,0,1,0-2.5-1.878c-2.66,3.755-2.5,7.354-1.408,9.857H113.537a8.888,8.888,0,0,1,5.633-7.2,1.541,1.541,0,1,0-1.252-2.816,12.211,12.211,0,0,0-7.511,10.17h-5.32c-3.286,0-6.415-3.442-5.633-9.075.626-4.381,3.286-8.136,7.511-8.605a5.459,5.459,0,0,0,1.408,5.163,1.549,1.549,0,0,0,2.191-2.191c-1.878-1.721.469-4.694,2.66-3.442a1.584,1.584,0,0,0,1.722-2.66,5.311,5.311,0,0,0-4.068-.626c.312-9.857,11.578-13.926,16.272-8.763ZM145.3,68.461a2.347,2.347,0,1,1-2.347,2.347A2.406,2.406,0,0,1,145.3,68.461ZM89.6,93.808V88.8H150.3a1.564,1.564,0,1,0,0-3.129H89.6V32.788A4.943,4.943,0,0,1,94.6,27.781h14.238a14.434,14.434,0,0,0-1.1,5.633c-5.32.157-10.17,4.381-11.109,11.265-1.1,7.667,3.6,12.674,8.762,12.674h7.667V68.775h-5.007a5.44,5.44,0,1,0-5.163,7.041,5.4,5.4,0,0,0,5.163-3.912h6.572a1.478,1.478,0,0,0,1.564-1.564V65.8h10.953V71.59a5.44,5.44,0,1,0,7.041,5.163,5.4,5.4,0,0,0-3.912-5.163V64.236a1.478,1.478,0,0,0-1.564-1.564H116.195v-5.32h27.7v7.98a5.44,5.44,0,1,0,7.041,5.163,5.4,5.4,0,0,0-3.912-5.163v-7.98h10.953V71.9a1.478,1.478,0,0,0,1.564,1.564h6.572a5.44,5.44,0,1,0,5.163-7.041,5.4,5.4,0,0,0-5.163,3.912H161.1V57.353h6.258c6.258,0,11.422-6.884,8.762-16.741-.939-3.755-4.068-7.354-8.293-9.857a14.031,14.031,0,0,0-6.415-2.034,1.983,1.983,0,0,0-.157-.939h17.211a4.943,4.943,0,0,1,5.007,5.007V85.672h-26.6a1.564,1.564,0,1,0,0,3.129h26.6v5.007a4.943,4.943,0,0,1-5.007,5.007H94.6A4.941,4.941,0,0,1,89.6,93.808Zm13.143-20.966a2.347,2.347,0,1,1,2.347-2.347A2.406,2.406,0,0,1,102.739,72.843Zm25.974,1.877a2.347,2.347,0,1,1-2.347,2.347A2.3,2.3,0,0,1,128.713,74.72Zm40.21-2.66a2.347,2.347,0,1,1,2.347,2.347A2.406,2.406,0,0,1,168.922,72.06Zm-16.585,41.15H120.732l3.286-11.265h25.035Z" transform="translate(559.069 973.844)" fill="#fff"></path><path id="Path_2901" data-name="Path 2901" d="M310.2,136.594a7.82,7.82,0,0,0,2.191-5.476,8.1,8.1,0,0,0-2.191-5.476,1.549,1.549,0,0,0-2.191,2.191,4.536,4.536,0,0,1-6.415,6.415,1.549,1.549,0,0,0-2.191,2.191,7.514,7.514,0,0,0,10.8.156Z" transform="translate(386.97 885.527)" fill="#fff"></path><path id="Path_2902" data-name="Path 2902" d="M128.119,415.527a1.549,1.549,0,1,0,2.191,0A1.511,1.511,0,0,0,128.119,415.527Z" transform="translate(525.71 650.717)" fill="#fff"></path><path id="Path_2903" data-name="Path 2903" d="M170.939,415.527a1.549,1.549,0,1,0,2.191,0A1.511,1.511,0,0,0,170.939,415.527Z" transform="translate(491.026 650.717)" fill="#fff"></path><path id="Path_2904" data-name="Path 2904" d="M213.769,415.527a1.549,1.549,0,1,0,2.191,0A1.511,1.511,0,0,0,213.769,415.527Z" transform="translate(456.333 650.717)" fill="#fff"></path></g></g></g></svg> 