<?xml version="1.0" encoding="UTF-8"?> <svg xmlns="http://www.w3.org/2000/svg" width="300" height="186" viewBox="0 0 300 186"><g id="Group_2964" data-name="Group 2964" transform="translate(-500 -3367)"><rect id="Rectangle_67" data-name="Rectangle 67" width="300" height="186" transform="translate(500 3367)" fill="#051c2c"></rect><g id="Group_2963" data-name="Group 2963" transform="translate(0.2 -0.224)"><g id="Group_2962" data-name="Group 2962" transform="translate(3240.78 -2492.281)"><g id="Group_2961" data-name="Group 2961" transform="translate(-2644.98 5891.505)"><g id="Group_2960" data-name="Group 2960" transform="translate(0 0)"><g id="Group_2959" data-name="Group 2959"><g id="Group_2951" data-name="Group 2951" transform="translate(50.503 79.845)"><path id="Path_3143" data-name="Path 3143" d="M3340.776,4699.173A1.764,1.764,0,0,1,3339,4697.4v-23.62a1.776,1.776,0,1,1,3.552,0v23.62A1.908,1.908,0,0,1,3340.776,4699.173Z" transform="translate(-3339 -4672)" fill="#fff" fill-rule="evenodd"></path></g><g id="Group_2952" data-name="Group 2952" transform="translate(21.349 72.432)"><path id="Path_3144" data-name="Path 3144" d="M1646.022,4260.135h-12.246a1.776,1.776,0,0,1,0-3.553h10.572v-16.806a1.776,1.776,0,1,1,3.552,0v18.582A1.925,1.925,0,0,1,1646.022,4260.135Z" transform="translate(-1632 -4238)" fill="#fff" fill-rule="evenodd"></path></g><g id="Group_2953" data-name="Group 2953" transform="translate(71.339 72.432)"><path id="Path_3145" data-name="Path 3145" d="M4573.039,4260.135h-12.246a1.779,1.779,0,0,1-1.793-1.776v-18.582a1.785,1.785,0,0,1,3.569,0v16.806h10.572a1.764,1.764,0,0,1,1.776,1.776A1.854,1.854,0,0,1,4573.039,4260.135Z" transform="translate(-4559 -4238)" fill="#fff" fill-rule="evenodd"></path></g><g id="Group_2954" data-name="Group 2954" transform="translate(6.627 83.704)"><path id="Path_3146" data-name="Path 3146" d="M779.086,4916.189a9.094,9.094,0,1,1,9.086-9.1A9.075,9.075,0,0,1,779.086,4916.189Zm0-14.636a5.636,5.636,0,1,0,0,11.272,5.636,5.636,0,1,0,0-11.272Z" transform="translate(-770 -4898)" fill="#fff" fill-rule="evenodd"></path></g><g id="Group_2955" data-name="Group 2955" transform="translate(83.602 83.704)"><path id="Path_3147" data-name="Path 3147" d="M5286.086,4916.189a9.094,9.094,0,1,1,9.1-9.1A9.075,9.075,0,0,1,5286.086,4916.189Zm0-14.636a5.636,5.636,0,1,0,5.637,5.636A5.577,5.577,0,0,0,5286.086,4901.553Z" transform="translate(-5277 -4898)" fill="#fff" fill-rule="evenodd"></path></g><g id="Group_2956" data-name="Group 2956" transform="translate(43.278 103.465)"><path id="Path_3148" data-name="Path 3148" d="M2925,6073.087a9.044,9.044,0,1,1,9.086-9.086A9.193,9.193,0,0,1,2925,6073.087Zm0-14.534a5.521,5.521,0,0,0-5.533,5.533,5.585,5.585,0,1,0,11.169,0A5.689,5.689,0,0,0,2925,6058.553Z" transform="translate(-2916 -6055)" fill="#fff" fill-rule="evenodd"></path></g><g id="Group_2957" data-name="Group 2957"><path id="Path_3149" data-name="Path 3149" d="M488.625,61.935a1.779,1.779,0,0,1-1.776-1.793V43.848l-10.282-.6A1.68,1.68,0,0,1,475,41.969,37.854,37.854,0,0,0,470.043,30.2a1.776,1.776,0,0,1,.2-2.067l6.917-7.72L466.883,10.151l-7.7,6.917a1.8,1.8,0,0,1-2.084.188,39.7,39.7,0,0,0-11.75-4.936,1.575,1.575,0,0,1-1.281-1.588L443.57.467H428.933l-.581,10.265a1.7,1.7,0,0,1-1.3,1.588,42.1,42.1,0,0,0-11.75,4.936,1.8,1.8,0,0,1-2.084-.188l-7.7-6.917L395.236,20.518l6.917,7.72a1.776,1.776,0,0,1,.2,2.067,40.393,40.393,0,0,0-4.936,11.767,1.6,1.6,0,0,1-1.588,1.281l-10.282.6V60.244a1.776,1.776,0,1,1-3.552,0V42.26a1.654,1.654,0,0,1,1.674-1.674l10.572-.6A40.317,40.317,0,0,1,398.6,29.621l-7.122-7.908a1.726,1.726,0,0,1,.1-2.374L404.339,6.581A1.688,1.688,0,0,1,406.7,6.5l7.908,7.1a44.747,44.747,0,0,1,10.384-4.338l.6-10.589A1.786,1.786,0,0,1,427.26-3h17.882a1.68,1.68,0,0,1,1.691,1.674l.683,10.589A44.747,44.747,0,0,1,457.9,13.6l7.891-7.1a1.709,1.709,0,0,1,2.374.085l12.656,12.656a1.726,1.726,0,0,1,.1,2.374L473.8,29.519a41.893,41.893,0,0,1,4.355,10.367l10.572.6a1.8,1.8,0,0,1,1.674,1.674v17.9A1.8,1.8,0,0,1,488.625,61.935Z" transform="translate(-382 3)" fill="#fff" fill-rule="evenodd"></path></g><g id="Group_2958" data-name="Group 2958" transform="translate(25.004 24.901)"><path id="Path_3150" data-name="Path 3150" d="M1875.239,1513.513a29.256,29.256,0,1,1,29.256-29.256A29.243,29.243,0,0,1,1875.239,1513.513Zm0-55.046a25.789,25.789,0,1,0,25.807,25.789A25.81,25.81,0,0,0,1875.239,1458.467Z" transform="translate(-1846 -1455)" fill="#fff" fill-rule="evenodd"></path></g></g></g></g></g><text id="AI" transform="translate(641 3459)" fill="#fff" font-size="18" font-family="OpenSans-Bold, Open Sans" font-weight="700"><tspan x="0" y="0">AI</tspan></text></g></g></svg> 