<?xml version="1.0" encoding="UTF-8"?> <svg xmlns="http://www.w3.org/2000/svg" width="300" height="186" viewBox="0 0 300 186"><g id="Group_2968" data-name="Group 2968" transform="translate(-500 -3854)"><rect id="Rectangle_67" data-name="Rectangle 67" width="300" height="186" transform="translate(500 3854)" fill="#051c2c"></rect><g id="Group_2967" data-name="Group 2967" transform="translate(113.2 -284)"><path id="Path_3158" data-name="Path 3158" d="M62.651,61.471a1.42,1.42,0,1,1-2.838,0V57.4a8,8,0,0,0-7.974-7.974,7.853,7.853,0,0,0-5.64,2.344,8.191,8.191,0,0,0-2.33,5.772,1.42,1.42,0,0,1-1.346,1.419Q30.107,60.348,29.76,72.855h0a1.414,1.414,0,0,1-1.211,1.361h0a9.2,9.2,0,0,0-5.653,3.14,9.391,9.391,0,0,0-2.253,6.118A9.549,9.549,0,0,0,30.16,92.99H59.81V77.917a1.42,1.42,0,0,1,2.84,0V92.99H92.3a9.549,9.549,0,0,0,9.516-9.516,9.391,9.391,0,0,0-2.253-6.118,9.2,9.2,0,0,0-5.653-3.14,1.417,1.417,0,0,1-1.2-1.615v-.02q.042-.509.042-1.009a12.487,12.487,0,0,0-3.381-8.494,12.831,12.831,0,0,0-8.228-4.066c-.374-.034-.752-.051-1.132-.051A1.414,1.414,0,0,1,78.6,57.545h0a8.19,8.19,0,0,0-2.331-5.774,7.857,7.857,0,0,0-5.642-2.344A8,8,0,0,0,62.658,57.4v4.068ZM18.076,28.265a1.42,1.42,0,0,1-2.838,0V11.494a1.42,1.42,0,1,1,2.838,0Zm8.255-4.608a1.42,1.42,0,0,1-2.838,0V16.1a1.42,1.42,0,1,1,2.838,0Zm8.251,4.608a1.42,1.42,0,1,1-2.84,0V11.494a1.42,1.42,0,0,1,2.84,0Zm8.255-4.608a1.42,1.42,0,0,1-2.838,0V16.1a1.42,1.42,0,1,1,2.838,0Zm8.255,4.608a1.42,1.42,0,0,1-2.838,0V11.494a1.42,1.42,0,1,1,2.838,0Zm-2.468,6.155H54.95a.912.912,0,0,0,.6-.2.357.357,0,0,0,.135-.256V5.8a.357.357,0,0,0-.135-.256.906.906,0,0,0-.6-.2H11.384a.911.911,0,0,0-.6.2.357.357,0,0,0-.141.256V33.962a.357.357,0,0,0,.141.256.91.91,0,0,0,.6.2H37.1a1.42,1.42,0,0,1,.752.215l9.358,4.7v-3.5a1.42,1.42,0,0,1,1.42-1.42Zm6.325,2.84a3.743,3.743,0,0,0,2.451-.9,3.161,3.161,0,0,0,1.129-2.4V5.8A3.167,3.167,0,0,0,57.4,3.4a3.741,3.741,0,0,0-2.449-.9H11.384a3.741,3.741,0,0,0-2.451.9A3.169,3.169,0,0,0,7.8,5.8V33.962a3.164,3.164,0,0,0,1.128,2.4,3.743,3.743,0,0,0,2.451.9h25.4L48,42.891a1.414,1.414,0,0,0,2.046-1.265h0V37.259Zm46.858-10.316a1.42,1.42,0,1,1,0,2.838H76.866a1.42,1.42,0,1,1,0-2.838Zm0-8.514a1.42,1.42,0,1,1,0,2.838H76.866a1.42,1.42,0,1,1,0-2.838Zm0-8.514a1.42,1.42,0,0,1,0,2.84H76.866a1.42,1.42,0,1,1,0-2.84ZM72.487,37.2v4.358h0a1.413,1.413,0,0,0,2.046,1.264l11.2-5.622H111.08a3.74,3.74,0,0,0,2.448-.9,3.164,3.164,0,0,0,1.126-2.394V5.795A3.16,3.16,0,0,0,113.528,3.4a3.735,3.735,0,0,0-2.448-.9H67.6a3.735,3.735,0,0,0-2.448.9A3.161,3.161,0,0,0,64.02,5.795V33.9A3.165,3.165,0,0,0,65.148,36.3a3.74,3.74,0,0,0,2.448.9ZM67.6,34.359h6.309a1.42,1.42,0,0,1,1.42,1.42V39.26l9.336-4.686a1.42,1.42,0,0,1,.752-.215H111.08a.906.906,0,0,0,.6-.2.357.357,0,0,0,.135-.254V5.795a.357.357,0,0,0-.135-.254.907.907,0,0,0-.6-.2H67.6a.907.907,0,0,0-.6.2.357.357,0,0,0-.135.254V33.9a.357.357,0,0,0,.135.254A.906.906,0,0,0,67.6,34.359ZM61.315,71.527a1.42,1.42,0,0,1,0,2.84h-.17a1.42,1.42,0,0,1,0-2.84Zm0-6.854a1.42,1.42,0,0,1,0,2.84h-.17a1.42,1.42,0,0,1,0-2.84Zm-26.442,43,10.9-6.289V95.833H30.163a12.324,12.324,0,0,1-9.414-20.314,12.063,12.063,0,0,1,6.114-3.842v-.1A15.168,15.168,0,0,1,29.4,63.2a13.138,13.138,0,0,1,4-4.149,15.555,15.555,0,0,1,7.65-2.853h.057a10.979,10.979,0,0,1,3.071-6.4,10.767,10.767,0,0,1,15.3-.027,10.9,10.9,0,0,1,1.75,2.3,10.9,10.9,0,0,1,1.75-2.3,10.775,10.775,0,0,1,15.3.023,11,11,0,0,1,3.071,6.4H81.4A15.655,15.655,0,0,1,91.45,61.156a15.313,15.313,0,0,1,4.134,10.422v.1a12.065,12.065,0,0,1,6.125,3.848,12.345,12.345,0,0,1-9.421,20.314H76.676v5.552l10.9,6.289c.122-.143.252-.281.385-.416a7.57,7.57,0,1,1-1.8,2.863l-11.6-6.7a1.414,1.414,0,0,1-.711-1.226h0V95.833H62.65v12.728a7.595,7.595,0,1,1-2.84,0V95.833h-11.2V102.2h0a1.416,1.416,0,0,1-.709,1.226l-11.6,6.7a7.605,7.605,0,1,1-1.8-2.863,4.854,4.854,0,0,1,.385.416ZM25.748,116a4.76,4.76,0,1,0-1.394-3.365A4.76,4.76,0,0,0,25.748,116Zm67.6,1.393A4.758,4.758,0,1,0,89.981,116a4.757,4.757,0,0,0,3.365,1.393Zm-32.116,3.4a4.76,4.76,0,1,0-3.365-1.394,4.76,4.76,0,0,0,3.365,1.394Zm25.341-43.83a1.414,1.414,0,1,1-2.826.078,10.215,10.215,0,0,0-2.335-6.877,10.228,10.228,0,0,0-6.671-2.871,1.416,1.416,0,0,1,.3-2.817,12.942,12.942,0,0,1,8.457,3.768,12.908,12.908,0,0,1,3.078,8.717Zm-47.854.078a1.414,1.414,0,0,1-2.826-.078A12.92,12.92,0,0,1,38.97,68.24a12.942,12.942,0,0,1,8.457-3.768,1.416,1.416,0,0,1,.3,2.817,10.228,10.228,0,0,0-6.671,2.871,10.215,10.215,0,0,0-2.338,6.876Z" transform="translate(476 4167.5)" fill="#fff" fill-rule="evenodd"></path></g></g></svg> 