<?xml version="1.0" encoding="UTF-8"?> <svg xmlns="http://www.w3.org/2000/svg" width="300" height="186" viewBox="0 0 300 186"><g id="Group_2851" data-name="Group 2851" transform="translate(-82 -139)"><rect id="Rectangle_2" data-name="Rectangle 2" width="300" height="186" transform="translate(82 139)" fill="#051c2c"></rect><g id="Group_2843" data-name="Group 2843" transform="translate(-618.823 -770.656)"><path id="Path_2861" data-name="Path 2861" d="M367.646,76.231a1.7,1.7,0,0,0,1.059-1.308l.458-2.74a17.17,17.17,0,0,1,11.488,16.086,1.7,1.7,0,0,0,1.7,1.7h10.219a1.7,1.7,0,0,0,1.7-1.7,30.778,30.778,0,0,0-22.853-29.648l.688-4.135a1.7,1.7,0,0,0-2.384-1.829l-18.734,8.516a1.7,1.7,0,0,0-.341,2.893l15.328,11.922a1.7,1.7,0,0,0,1.667.243Zm-12.68-13.124,13.261-6.026-.426,2.553a1.705,1.705,0,0,0,1.335,1.949,27.36,27.36,0,0,1,21.679,24.984h-6.829a20.321,20.321,0,0,0-15.81-18.2,1.7,1.7,0,0,0-2.06,1.381l-.3,1.805-10.849-8.439Z" transform="translate(501.327 906.373)" fill="#fff" stroke="#051c2c" stroke-width="1"></path><path id="Path_2862" data-name="Path 2862" d="M150.784,328.987a1.7,1.7,0,0,0-2.727,1.064l-.458,2.74A17.17,17.17,0,0,1,136.112,316.7a1.7,1.7,0,0,0-1.7-1.7H124.19a1.7,1.7,0,0,0-1.7,1.7,30.778,30.778,0,0,0,22.853,29.648l-.688,4.135a1.7,1.7,0,0,0,1.679,1.983,1.676,1.676,0,0,0,.7-.154L165.77,343.8a1.7,1.7,0,0,0,.341-2.893l-15.328-11.922Zm-2.247,18.908.426-2.553a1.705,1.705,0,0,0-1.335-1.949,27.36,27.36,0,0,1-21.679-24.984h6.829a20.321,20.321,0,0,0,15.81,18.2,1.7,1.7,0,0,0,2.06-1.382l.3-1.8,10.849,8.439-13.261,6.026Z" transform="translate(684.553 694.967)" fill="#fff" stroke="#051c2c" stroke-width="1"></path><path id="Path_2863" data-name="Path 2863" d="M430.984,315H386.7a1.7,1.7,0,0,0-1.7,1.7v44.281a1.7,1.7,0,0,0,1.7,1.7h44.281a1.7,1.7,0,0,0,1.7-1.7V316.7A1.7,1.7,0,0,0,430.984,315Zm-1.7,44.281H388.406V318.406h40.875Z" transform="translate(473.136 694.968)" fill="#fff" stroke="#051c2c" stroke-width="1"></path><path id="Path_2864" data-name="Path 2864" d="M421.7,384.063h30.656a1.7,1.7,0,0,0,1.7-1.7V351.7a1.7,1.7,0,0,0-1.7-1.7H421.7a1.7,1.7,0,0,0-1.7,1.7v30.656A1.7,1.7,0,0,0,421.7,384.063Zm3.008-3.406L432,368.512l5.319,7.981a1.7,1.7,0,0,0,1.248.75,1.685,1.685,0,0,0,1.372-.49l3.688-3.688,5.424,7.593H424.71Zm25.946-27.25v23.639l-5.428-7.6a1.7,1.7,0,0,0-1.245-.709,1.756,1.756,0,0,0-1.343.494L439,372.875l-5.66-8.49a1.727,1.727,0,0,0-1.456-.758,1.708,1.708,0,0,0-1.42.826l-7.056,11.758v-22.8h27.25Z" transform="translate(444.948 666.781)" fill="#fff" stroke="#051c2c" stroke-width="1"></path><path id="Path_2865" data-name="Path 2865" d="M512.609,386.469a5.109,5.109,0,1,0-5.109-5.109A5.116,5.116,0,0,0,512.609,386.469Zm0-6.813a1.7,1.7,0,1,1-1.7,1.7A1.7,1.7,0,0,1,512.609,379.656Z" transform="translate(374.479 645.64)" fill="#fff" stroke="#051c2c" stroke-width="1"></path><path id="Path_2866" data-name="Path 2866" d="M117.687,45.984V1.7a1.7,1.7,0,0,0-1.7-1.7H71.7A1.7,1.7,0,0,0,70,1.7V45.984a1.7,1.7,0,0,0,1.7,1.7h44.281A1.7,1.7,0,0,0,117.687,45.984Zm-3.406-1.7H73.406V3.406h40.875Z" transform="translate(726.823 948.656)" fill="#fff" stroke="#051c2c" stroke-width="1"></path><path id="Path_2867" data-name="Path 2867" d="M140,43.75h3.406v3.406H140Z" transform="translate(670.448 913.422)" fill="#fff" stroke="#051c2c" stroke-width="1"></path><path id="Path_2868" data-name="Path 2868" d="M105,43.75h3.406v3.406H105Z" transform="translate(698.636 913.422)" fill="#fff" stroke="#051c2c" stroke-width="1"></path><path id="Path_2869" data-name="Path 2869" d="M175,43.75h20.437v3.406H175Z" transform="translate(642.261 913.422)" fill="#fff" stroke="#051c2c" stroke-width="1"></path><path id="Path_2870" data-name="Path 2870" d="M227.5,78.75h3.406v3.406H227.5Z" transform="translate(599.979 885.234)" fill="#fff" stroke="#051c2c" stroke-width="1"></path><path id="Path_2871" data-name="Path 2871" d="M262.5,78.75h3.406v3.406H262.5Z" transform="translate(571.792 885.234)" fill="#fff" stroke="#051c2c" stroke-width="1"></path><path id="Path_2872" data-name="Path 2872" d="M105,78.75h20.437v3.406H105Z" transform="translate(698.636 885.234)" fill="#fff" stroke="#051c2c" stroke-width="1"></path><path id="Path_2873" data-name="Path 2873" d="M140,113.75h3.406v3.406H140Z" transform="translate(670.448 857.047)" fill="#fff" stroke="#051c2c" stroke-width="1"></path><path id="Path_2874" data-name="Path 2874" d="M105,113.75h3.406v3.406H105Z" transform="translate(698.636 857.047)" fill="#fff" stroke="#051c2c" stroke-width="1"></path><path id="Path_2875" data-name="Path 2875" d="M175,113.75h20.437v3.406H175Z" transform="translate(642.261 857.047)" fill="#fff" stroke="#051c2c" stroke-width="1"></path><path id="Path_2876" data-name="Path 2876" d="M227.5,148.75h3.406v3.406H227.5Z" transform="translate(599.979 828.859)" fill="#fff" stroke="#051c2c" stroke-width="1"></path><path id="Path_2877" data-name="Path 2877" d="M262.5,148.75h3.406v3.406H262.5Z" transform="translate(571.792 828.859)" fill="#fff" stroke="#051c2c" stroke-width="1"></path><path id="Path_2878" data-name="Path 2878" d="M105,148.75h20.437v3.406H105Z" transform="translate(698.636 828.859)" fill="#fff" stroke="#051c2c" stroke-width="1"></path><path id="Path_2879" data-name="Path 2879" d="M140,183.75h3.406v3.406H140Z" transform="translate(670.448 800.672)" fill="#fff" stroke="#051c2c" stroke-width="1"></path><path id="Path_2880" data-name="Path 2880" d="M105,183.75h3.406v3.406H105Z" transform="translate(698.636 800.672)" fill="#fff" stroke="#051c2c" stroke-width="1"></path><path id="Path_2881" data-name="Path 2881" d="M175,183.75h20.437v3.406H175Z" transform="translate(642.261 800.672)" fill="#fff" stroke="#051c2c" stroke-width="1"></path></g></g></svg> 