<?xml version="1.0" encoding="UTF-8"?> <svg xmlns="http://www.w3.org/2000/svg" width="300" height="186" viewBox="0 0 300 186"><g id="Group_2989" data-name="Group 2989" transform="translate(-51 -1602)"><rect id="Rectangle_2" data-name="Rectangle 2" width="300" height="186" transform="translate(51 1602)" fill="#051c2c"></rect><g id="Group_2988" data-name="Group 2988" transform="translate(-283.7 -1)"><g id="Group_2987" data-name="Group 2987" transform="translate(428.7 1631)"><path id="Path_3196" data-name="Path 3196" d="M119.165,61.078a2.321,2.321,0,1,0,0-4.643H109.2V42.644h9.968a2.393,2.393,0,0,0,2.321-2.321A2.3,2.3,0,0,0,119.165,38H109.2V29.126A14.335,14.335,0,0,0,94.86,14.789H85.984V4.821a2.321,2.321,0,1,0-4.643,0v9.968H67.414V4.821a2.321,2.321,0,0,0-4.643,0v9.968H48.844V4.821a2.321,2.321,0,1,0-4.643,0v9.968H35.326A14.335,14.335,0,0,0,20.989,29.126V38H11.021A2.3,2.3,0,0,0,8.7,40.323a2.393,2.393,0,0,0,2.321,2.321h9.968V56.572H11.021A2.3,2.3,0,0,0,8.7,58.893a2.393,2.393,0,0,0,2.321,2.321h9.968V75.142H11.021a2.321,2.321,0,0,0,0,4.643h9.968V88.66A14.468,14.468,0,0,0,30,102.041v-.819a12.625,12.625,0,0,1,.546-3.96A9.93,9.93,0,0,1,25.632,88.8V29.126A9.79,9.79,0,0,1,35.463,19.3h59.4a9.79,9.79,0,0,1,9.831,9.831v59.4a9.645,9.645,0,0,1-4.916,8.466,13.2,13.2,0,0,1,.546,3.96v.819a14.329,14.329,0,0,0,9.012-13.381V79.648H119.3a2.321,2.321,0,0,0,0-4.643h-9.968V61.078Z" transform="translate(-8.7 -2.5)" fill="#fff" stroke="#051c2c" stroke-width="1"></path><path id="Path_3197" data-name="Path 3197" d="M42.949,68.873h0a2.27,2.27,0,0,0-.819,3.141c3.141,5.189-1.229,9.831-1.365,9.968a2.492,2.492,0,0,0,0,3.277,2.261,2.261,0,0,0,1.639.683,2.519,2.519,0,0,0,1.639-.683C46.5,82.8,50.05,76.383,46.09,69.692A2.4,2.4,0,0,0,42.949,68.873Z" transform="translate(2.793 21.656)" fill="#fff" stroke="#051c2c" stroke-width="1"></path><path id="Path_3198" data-name="Path 3198" d="M46.993,59.447a2.4,2.4,0,0,0,.819-3.141,2.169,2.169,0,0,0-1.365-1.092,2.73,2.73,0,0,0-1.775.273c-.41.273-4.1,2.458-4.369,6.418-.137,2.594,1.092,4.916,3.823,7.1a2.863,2.863,0,0,0,1.5.546,2.251,2.251,0,0,0,1.5-3.96c-.956-.819-2.185-2.048-2.185-3.277S46.447,59.857,46.993,59.447Z" transform="translate(2.845 16.745)" fill="#fff" stroke="#051c2c" stroke-width="1"></path><path id="Path_3199" data-name="Path 3199" d="M83.876,71.827a13.2,13.2,0,0,0-10.651-11.2V49.844H79.1a2.3,2.3,0,0,0,2.321-2.321V39.33a7.783,7.783,0,0,0,5.6-7.51,7.92,7.92,0,0,0-15.839,0,7.783,7.783,0,0,0,5.6,7.51v6.008H70.9a2.3,2.3,0,0,0-2.321,2.321v9.695a9.847,9.847,0,0,0-5.462-1.639,15.045,15.045,0,0,0-2.458.273V39.33a7.783,7.783,0,0,0,5.6-7.51,7.92,7.92,0,1,0-15.839,0,7.783,7.783,0,0,0,5.6,7.51V55.988a15.046,15.046,0,0,0-2.458-.273A9.847,9.847,0,0,0,48.1,57.354V47.659a2.3,2.3,0,0,0-2.321-2.321H39.908V39.33a7.783,7.783,0,0,0,5.6-7.51,7.92,7.92,0,0,0-15.839,0,7.783,7.783,0,0,0,5.6,7.51v8.193a2.3,2.3,0,0,0,2.321,2.321h5.871V60.631a13.2,13.2,0,0,0-10.651,11.2,11.058,11.058,0,0,0-3.96,16.249,10.89,10.89,0,0,0-1.092,5.052,11.918,11.918,0,0,0,4.1,9.012,14.81,14.81,0,0,0,9.831,13.245,12.711,12.711,0,0,0,11.879,8.875,11.319,11.319,0,0,0,4.643-.956,11.319,11.319,0,0,0,4.643.956,12.711,12.711,0,0,0,11.879-8.875,14.76,14.76,0,0,0,9.831-13.245,11.708,11.708,0,0,0,4.1-9.012,12.416,12.416,0,0,0-1.092-5.052,10.88,10.88,0,0,0,2.048-6.418A10.268,10.268,0,0,0,83.876,71.827ZM75.82,31.82A3.277,3.277,0,1,1,79.1,35.1,3.235,3.235,0,0,1,75.82,31.82Zm-41.237,0A3.277,3.277,0,1,1,37.86,35.1,3.155,3.155,0,0,1,34.583,31.82Zm20.618,0A3.277,3.277,0,1,1,58.478,35.1,3.235,3.235,0,0,1,55.2,31.82Zm.956,87.662a7.261,7.261,0,0,1-5.6-.273,8.583,8.583,0,0,1-4.369-4.916c-.137-.546-.137-1.092-.273-1.775a1.341,1.341,0,0,1,.819-1.5,1.941,1.941,0,0,1,.819-.273,2.179,2.179,0,0,1,1.092.41l1.092.819a2.2,2.2,0,0,0,3.141-.41,1.888,1.888,0,0,0,.41-1.639,3.255,3.255,0,0,0-.819-1.5l-.956-1.092a6.442,6.442,0,0,0-6.964-.546,6.14,6.14,0,0,0-2.867,3.55,10.574,10.574,0,0,1-5.189-8.466,6.673,6.673,0,0,1,5.325-5.735,2.169,2.169,0,0,0,1.365-1.092,2.6,2.6,0,0,0,.273-1.775,2.233,2.233,0,0,0-2.731-1.639,11.468,11.468,0,0,0-7.237,5.189A7.724,7.724,0,0,1,32.4,92.992a7.225,7.225,0,0,1,1.229-4.1,2.273,2.273,0,0,0-.273-2.867,6.628,6.628,0,0,1,.41-9.695,13.26,13.26,0,0,0,7.92,7.373,1.732,1.732,0,0,0,.819.137,2.34,2.34,0,0,0,2.185-1.5,2.025,2.025,0,0,0,0-1.775,2.679,2.679,0,0,0-1.229-1.229,8.572,8.572,0,0,1-5.871-6.827,8.372,8.372,0,0,1,8.193-8.056h.41a2.109,2.109,0,0,0,2.185-1.229,6.122,6.122,0,0,1,5.462-3.55,5.356,5.356,0,0,1,2.458.546v59.261ZM83.466,86.3a2.469,2.469,0,0,0-.273,2.867,7.225,7.225,0,0,1,1.229,4.1,7.724,7.724,0,0,1-1.092,3.823A11.124,11.124,0,0,0,76.093,91.9a2.73,2.73,0,0,0-1.775.273,2.169,2.169,0,0,0-1.092,1.365,2.73,2.73,0,0,0,.273,1.775,2.169,2.169,0,0,0,1.365,1.092,6.671,6.671,0,0,1,5.325,5.6,10.608,10.608,0,0,1-5.189,8.6,6.14,6.14,0,0,0-2.867-3.55,6.206,6.206,0,0,0-6.964.546l-1.092.819a1.887,1.887,0,0,0-.819,1.5,2.289,2.289,0,0,0,.41,1.639,2.213,2.213,0,0,0,3.141.41l1.092-.819a1.661,1.661,0,0,1,1.912-.137,1.341,1.341,0,0,1,.819,1.5,5.092,5.092,0,0,1-.273,1.639,8.442,8.442,0,0,1-4.369,5.052,7.232,7.232,0,0,1-5.6.273V60.767a5.356,5.356,0,0,1,2.458-.546,6.122,6.122,0,0,1,5.462,3.55A2.109,2.109,0,0,0,70.494,65h.546a8.468,8.468,0,0,1,8.193,8.056,8.8,8.8,0,0,1-5.871,6.827,2.679,2.679,0,0,0-1.229,1.229,2.025,2.025,0,0,0,0,1.775,2.564,2.564,0,0,0,2.185,1.5,1.732,1.732,0,0,0,.819-.137,13.643,13.643,0,0,0,7.92-7.373,6.315,6.315,0,0,1,.41,9.422Z" transform="translate(-2.085 5.321)" fill="#fff" stroke="#051c2c" stroke-width="1"></path><path id="Path_3200" data-name="Path 3200" d="M59.911,72.03a2.3,2.3,0,1,0-3.96-2.321C52.128,76.263,55.678,82.68,58,85.275a2.261,2.261,0,0,0,1.639.683,2.837,2.837,0,0,0,1.639-.683,2.23,2.23,0,0,0,0-3.277C61.277,81.861,56.907,77.219,59.911,72.03Z" transform="translate(7.951 21.64)" fill="#fff" stroke="#051c2c" stroke-width="1"></path><path id="Path_3201" data-name="Path 3201" d="M55.072,65.594a2.251,2.251,0,0,0,1.5,3.96,2.053,2.053,0,0,0,1.5-.546c2.731-2.185,3.96-4.643,3.823-7.1-.273-3.823-3.96-6.145-4.369-6.418a2.3,2.3,0,1,0-2.321,3.96,4.5,4.5,0,0,1,2.185,2.867C57.257,63.545,56.028,64.774,55.072,65.594Z" transform="translate(7.875 16.743)" fill="#fff" stroke="#051c2c" stroke-width="1"></path></g></g></g></svg> 