<?xml version="1.0" encoding="UTF-8"?> <svg xmlns="http://www.w3.org/2000/svg" width="300" height="186" viewBox="0 0 300 186"><g id="Group_2853" data-name="Group 2853" transform="translate(-897 -139)"><rect id="Rectangle_49" data-name="Rectangle 49" width="300" height="186" transform="translate(897 139)" fill="#051c2c"></rect><g id="noun-prompt-4124507" transform="translate(888 143)"><path id="Path_2858" data-name="Path 2858" d="M176.125,267.176l16.55-16.551-16.551-16.551a3.855,3.855,0,0,1,5.451-5.451L200.851,247.9a3.851,3.851,0,0,1,0,5.451l-19.276,19.276a3.854,3.854,0,1,1-5.451-5.451Zm22,2.725a3.854,3.854,0,0,0,3.855,3.855h23.131a3.855,3.855,0,1,0,0-7.71H201.981A3.854,3.854,0,0,0,198.126,269.9Z" transform="translate(-54.574 -149.362)" fill="#fff" stroke="#051c2c" stroke-width="4"></path><path id="Path_2859" data-name="Path 2859" d="M202.321,35H116.679A11.693,11.693,0,0,0,105,46.679v85.643A11.693,11.693,0,0,0,116.679,144h85.643A11.693,11.693,0,0,0,214,132.321V46.679A11.693,11.693,0,0,0,202.321,35ZM112.786,46.679a3.9,3.9,0,0,1,3.893-3.893h85.643a3.9,3.9,0,0,1,3.893,3.893V58.357H112.786Zm93.429,85.643a3.9,3.9,0,0,1-3.893,3.893H116.679a3.9,3.9,0,0,1-3.893-3.893V66.143h93.429Z" transform="translate(0 0)" fill="#fff" stroke="#051c2c" stroke-width="4"></path></g></g></svg> 