<?xml version="1.0" encoding="UTF-8"?> <svg xmlns="http://www.w3.org/2000/svg" width="300" height="186" viewBox="0 0 300 186"><g id="Group_2868" data-name="Group 2868" transform="translate(-409 -921)"><rect id="Rectangle_2" data-name="Rectangle 2" width="300" height="186" transform="translate(409 921)" fill="#051c2c"></rect><g id="Group_2867" data-name="Group 2867" transform="translate(354.529 -2190.164)"><path id="Path_2905" data-name="Path 2905" d="M142.083,65.618h35.573a5.711,5.711,0,0,0,5.706-5.706V42.128a5.711,5.711,0,0,0-5.706-5.706H142.084a5.711,5.711,0,0,0-5.706,5.706v7.779H122.766a1.115,1.115,0,0,0-1.114,1.114V70.276H111.066V62.784a1.115,1.115,0,0,0-1.114-1.114H74.382a1.115,1.115,0,0,0-1.114,1.114v44.178a1.115,1.115,0,0,0,1.114,1.114h35.571a1.115,1.115,0,0,0,1.114-1.114v-7.49h10.584v19.255a1.115,1.115,0,0,0,1.114,1.114H136.38v7.777a5.711,5.711,0,0,0,5.706,5.706h35.573a5.711,5.711,0,0,0,5.706-5.706V109.833a5.711,5.711,0,0,0-5.706-5.706H142.085a5.711,5.711,0,0,0-5.706,5.706v7.779h-12.5V98.357a1.115,1.115,0,0,0-1.114-1.114h-11.7V85.987h25.311v7.779a5.711,5.711,0,0,0,5.706,5.706h35.573a5.711,5.711,0,0,0,5.706-5.706V75.979a5.71,5.71,0,0,0-5.706-5.7H142.084a5.711,5.711,0,0,0-5.706,5.7v7.779H111.068V72.5h11.7a1.115,1.115,0,0,0,1.114-1.114V52.135h12.5v7.777a5.71,5.71,0,0,0,5.7,5.706Zm-3.478,44.212a3.482,3.482,0,0,1,3.478-3.478h35.573a3.482,3.482,0,0,1,3.478,3.478v17.784a3.482,3.482,0,0,1-3.478,3.478H142.083a3.482,3.482,0,0,1-3.478-3.478Zm0-33.85a3.48,3.48,0,0,1,3.478-3.476h35.573a3.482,3.482,0,0,1,3.478,3.476V93.766a3.482,3.482,0,0,1-3.478,3.478H142.083a3.482,3.482,0,0,1-3.478-3.478Zm-29.767,29.868H75.5V63.9h33.343Zm29.767-63.719a3.482,3.482,0,0,1,3.478-3.478h35.573a3.482,3.482,0,0,1,3.478,3.478V59.913a3.482,3.482,0,0,1-3.478,3.478H142.083a3.482,3.482,0,0,1-3.478-3.478Z" transform="translate(76.203 3119.742)" fill="#fff"></path><path id="Path_2906" data-name="Path 2906" d="M433.493,71.834H461.6a1.114,1.114,0,1,0,0-2.228H433.493a1.114,1.114,0,1,0,0,2.228Z" transform="translate(-211.477 3093.159)" fill="#fff"></path><path id="Path_2907" data-name="Path 2907" d="M475.207,106.455a1.114,1.114,0,1,0,0-2.228H456.079a1.114,1.114,0,1,0,0,2.228Z" transform="translate(-229.571 3065.424)" fill="#fff"></path><path id="Path_2908" data-name="Path 2908" d="M465.37,138.84H439.743a1.114,1.114,0,0,0,0,2.228H465.37a1.114,1.114,0,1,0,0-2.228Z" transform="translate(-216.484 3037.696)" fill="#fff"></path><path id="Path_2909" data-name="Path 2909" d="M433.493,242.005H461.6a1.114,1.114,0,1,0,0-2.228H433.493a1.114,1.114,0,1,0,0,2.228Z" transform="translate(-211.477 2956.836)" fill="#fff"></path><path id="Path_2910" data-name="Path 2910" d="M475.207,276.625a1.114,1.114,0,1,0,0-2.228H456.079a1.114,1.114,0,1,0,0,2.228Z" transform="translate(-229.571 2929.103)" fill="#fff"></path><path id="Path_2911" data-name="Path 2911" d="M465.37,309.02H439.743a1.114,1.114,0,0,0,0,2.228H465.37a1.114,1.114,0,1,0,0-2.228Z" transform="translate(-216.484 2901.366)" fill="#fff"></path><path id="Path_2912" data-name="Path 2912" d="M433.493,412.185H461.6a1.114,1.114,0,1,0,0-2.228H433.493a1.114,1.114,0,1,0,0,2.228Z" transform="translate(-211.477 2820.507)" fill="#fff"></path><path id="Path_2913" data-name="Path 2913" d="M475.207,446.815a1.114,1.114,0,0,0,0-2.228H456.079a1.114,1.114,0,1,0,0,2.228Z" transform="translate(-229.571 2792.765)" fill="#fff"></path><path id="Path_2914" data-name="Path 2914" d="M465.37,479.19H439.743a1.114,1.114,0,0,0,0,2.228H465.37a1.114,1.114,0,1,0,0-2.228Z" transform="translate(-216.484 2765.045)" fill="#fff"></path><path id="Path_2915" data-name="Path 2915" d="M125.865,343.64H100.813a1.114,1.114,0,1,0,0,2.228h25.055a1.114,1.114,0,1,0,0-2.228Z" transform="translate(55.03 2873.633)" fill="#fff"></path><path id="Path_2916" data-name="Path 2916" d="M100.8,242.005h25.053a1.114,1.114,0,1,0,0-2.228H100.8a1.114,1.114,0,1,0,0,2.228Z" transform="translate(55.038 2956.836)" fill="#fff"></path><path id="Path_2917" data-name="Path 2917" d="M100.8,276.625h25.053a1.114,1.114,0,1,0,0-2.228H100.8a1.114,1.114,0,1,0,0,2.228Z" transform="translate(55.038 2929.103)" fill="#fff"></path><path id="Path_2918" data-name="Path 2918" d="M100.8,311.245h25.053a1.114,1.114,0,1,0,0-2.228H100.8a1.114,1.114,0,1,0,0,2.228Z" transform="translate(55.038 2901.369)" fill="#fff"></path><path id="Path_2919" data-name="Path 2919" d="M100.8,207.4h25.053a1.114,1.114,0,1,0,0-2.228H100.8a1.114,1.114,0,1,0,0,2.228Z" transform="translate(55.038 2984.562)" fill="#fff"></path></g></g></svg> 