<?xml version="1.0" encoding="UTF-8"?> <svg xmlns="http://www.w3.org/2000/svg" width="300" height="186" viewBox="0 0 300 186"><g id="Group_67" data-name="Group 67" transform="translate(-537 -3618)"><g id="Group_27" data-name="Group 27" transform="translate(455 3479)"><rect id="Rectangle_2" data-name="Rectangle 2" width="300" height="186" transform="translate(82 139)" fill="#051c2c"></rect></g><path id="Path_103" data-name="Path 103" d="M38.635,89.331l-5.72-4.677L20.188,100.567a3.923,3.923,0,0,0-.667,4.381,3.783,3.783,0,0,0,.985,1.2,3.708,3.708,0,0,0,1.371.7,3.814,3.814,0,0,0,4.014-1.585L38.635,89.331Zm16.2-36.871h-.625c-.033,0-.03,0-.038,0a1.447,1.447,0,0,0-.855.742,4.018,4.018,0,0,0-.575,2.128h0a4.909,4.909,0,0,0,.032.583L54.15,66.727a.812.812,0,0,0,.193.457.2.2,0,0,0,.132.074h.087a.2.2,0,0,0,.133-.074.807.807,0,0,0,.191-.457l1.375-10.814a4.671,4.671,0,0,0,.032-.583,4.01,4.01,0,0,0-.57-2.128,1.444,1.444,0,0,0-.855-.742.3.3,0,0,1-.037,0ZM54.206,50.3h.625a2.633,2.633,0,0,1,.308.024,3.516,3.516,0,0,1,2.411,1.73,6.193,6.193,0,0,1,.909,3.277,6.909,6.909,0,0,1-.058.854L57.027,67a2.967,2.967,0,0,1-.759,1.665,2.328,2.328,0,0,1-1.7.761h-.087a2.32,2.32,0,0,1-1.7-.761A2.962,2.962,0,0,1,52.013,67L50.638,56.183a6.7,6.7,0,0,1-.059-.854h0a6.177,6.177,0,0,1,.906-3.277A3.511,3.511,0,0,1,53.9,50.323a2.382,2.382,0,0,1,.307-.025Zm.313,22.788a.746.746,0,1,0,.528.218.744.744,0,0,0-.528-.218Zm-2.059-1.311a2.908,2.908,0,1,1-.853,2.057,2.9,2.9,0,0,1,.853-2.057Zm24.211-11.6c.05.325.091.652.125.979a22.326,22.326,0,0,1-4.808,16.387,1.381,1.381,0,0,0-.09.112A22.4,22.4,0,1,1,61.452,42.212a.947.947,0,0,0,.116.038,22.354,22.354,0,0,1,6.977,3.8,1.214,1.214,0,0,0,.112.091,22.319,22.319,0,0,1,7.995,13.9,1.024,1.024,0,0,0,.02.132Zm1.964-1.312H97.119a3.569,3.569,0,0,0,3.555-3.555V29.029a3.569,3.569,0,0,0-3.555-3.555H66.487a3.569,3.569,0,0,0-3.556,3.555V40.438a24.524,24.524,0,0,1,7.021,3.977h0a24.456,24.456,0,0,1,8.682,14.45Zm-17.867-19.1a24.579,24.579,0,0,0-30.46,19.606,27.511,27.511,0,0,1-20.382-25.5h4a1.082,1.082,0,1,0,0-2.164h-4a27.5,27.5,0,0,1,26.4-26.4V9.435a1.082,1.082,0,0,0,2.164,0V5.308A27.516,27.516,0,0,1,63.525,24.143a5.779,5.779,0,0,0-1.075.846,5.7,5.7,0,0,0-1.679,4.039V39.762Zm4.777-16.373a5.756,5.756,0,0,1,.942-.078h6.021V17.288c0-3.448,2.444-5.61,5.583-6.535a12.955,12.955,0,0,1,3.66-.505,13.179,13.179,0,0,1,3.666.514C88.6,11.7,91.1,13.877,91.1,17.288v6.022h6.022a5.732,5.732,0,0,1,5.719,5.718V55.31a5.732,5.732,0,0,1-5.719,5.718H78.953a24.476,24.476,0,0,1-5.329,17.925v0a24.569,24.569,0,0,1-31.349,5.859l-2.287,2.829.84.687,0,0a1.076,1.076,0,0,1,.159,1.5L27.573,106.605a5.775,5.775,0,0,1-8.42,1.224,5.888,5.888,0,0,1-.646-8.605L31.856,82.536c.021-.031.043-.061.067-.091a1.081,1.081,0,0,1,1.521-.152l.8.657,2.231-2.76a24.6,24.6,0,0,1-6.439-18.664A29.664,29.664,0,1,1,65.546,23.389Zm9.126-.078H88.933V17.288c0-2.278-1.812-3.777-4.124-4.456A10.969,10.969,0,0,0,81.75,12.4a10.852,10.852,0,0,0-3.051.42c-2.264.667-4.027,2.154-4.027,4.464v6.022ZM65.477,49.966a17.433,17.433,0,0,1,2.6,24.511h0A17.429,17.429,0,0,1,43.62,77.121a1.18,1.18,0,0,0-.112-.091,17.427,17.427,0,0,1-2.591-24.409.934.934,0,0,0,.09-.112,17.432,17.432,0,0,1,24.471-2.543ZM52.452,44.042A19.587,19.587,0,0,1,69.807,75.765a.929.929,0,0,1-.106.13,19.584,19.584,0,0,1-27.426,2.913,1,1,0,0,1-.131-.105,19.584,19.584,0,0,1-2.862-27.489h0a19.52,19.52,0,0,1,13.169-7.17ZM40.444,83.649l-2.126,2.63-2.4-1.964,2.1-2.6q.517.468,1.064.912.668.54,1.362,1.024ZM80.629,44.1h0a1.082,1.082,0,0,0-.585-.96,3.88,3.88,0,0,1-1.537-1.428,3.857,3.857,0,1,1,6.6,0,3.9,3.9,0,0,1-1.475,1.4,1.083,1.083,0,0,0-.65.992v3.228a1.173,1.173,0,0,1-2.347,0V44.1Zm-2.163,3.228a3.336,3.336,0,0,0,6.672,0V44.709A6.019,6.019,0,1,0,75.782,39.7a6.031,6.031,0,0,0,2.685,5.009v2.615ZM36.633,12.807,33.521,15.92a1.082,1.082,0,1,0,1.529,1.529l1.272-1.272V32.788A1.082,1.082,0,0,0,37.4,33.869H49.522L48.25,35.141a1.082,1.082,0,0,0,1.529,1.529L52.9,33.553a1.083,1.083,0,0,0,0-1.529L49.78,28.905a1.082,1.082,0,0,0-.9-.309,1.069,1.069,0,0,0-.634.309,1.081,1.081,0,0,0,0,1.529l1.272,1.272H38.486V16.177l1.271,1.272a1.082,1.082,0,0,0,.894.308,1.081,1.081,0,0,0,.635-1.838l-3.112-3.112c-.027-.027-.058-.054-.087-.079h0l-.021-.017h0a.489.489,0,0,0-.04-.028l-.009-.007L38,12.667l-.006,0-.018-.011-.006,0-.017-.009-.006,0-.019-.011,0,0-.018-.009-.006,0a1.082,1.082,0,0,0-1,0l-.006,0-.018.009-.006,0-.018.011-.007,0-.017.009h0l-.017.011-.007,0-.014.009-.009.007-.039.028h0l-.021.017h0C36.691,12.752,36.663,12.779,36.633,12.807Z" transform="translate(631.257 3654.875)" fill="#fff" stroke="#051b2c" stroke-width="0.4" fill-rule="evenodd"></path></g></svg> 