<?xml version="1.0" encoding="UTF-8"?> <svg xmlns="http://www.w3.org/2000/svg" width="300" height="186" viewBox="0 0 300 186"><g id="Group_59" data-name="Group 59" transform="translate(-951 -3181)"><g id="Group_24" data-name="Group 24" transform="translate(869 3042)"><rect id="Rectangle_2" data-name="Rectangle 2" width="300" height="186" transform="translate(82 139)" fill="#051c2c"></rect></g><g id="Group_58" data-name="Group 58" transform="translate(16.75 7.211)"><path id="Path_98" data-name="Path 98" d="M18.623,44.546a4.1,4.1,0,0,1,4.093-4.093h38.2a4.093,4.093,0,0,1,0,8.186h-38.2A4.1,4.1,0,0,1,18.623,44.546Zm20.466,12.28H22.716a4.093,4.093,0,1,0,0,8.186H39.089a4.093,4.093,0,0,0,0-8.186ZM22.716,32.267h38.2a4.093,4.093,0,0,0,0-8.186h-38.2a4.093,4.093,0,0,0,0,8.186ZM77.974,71.834H86.16a2.729,2.729,0,0,0,0-5.458H82.749V63.648a2.729,2.729,0,0,0-5.458,0v2.865a6.768,6.768,0,0,0,.682,13.508h4.093a1.364,1.364,0,0,1,0,2.729H73.881a2.729,2.729,0,0,0,0,5.458h3.411v2.729a2.729,2.729,0,0,0,5.458,0V88.07a6.766,6.766,0,0,0,6.14-6.686,7.293,7.293,0,0,0-.356-2.175,6.74,6.74,0,0,0-6.466-4.647H77.974a1.364,1.364,0,1,1,0-2.729Zm30.7-4.519v1.79c0,18.638-11.324,34.841-27.539,39.415a4.132,4.132,0,0,1-2.227,0,34.7,34.7,0,0,1-11.155-5.479c-.464.044-.9.175-1.375.175H17.258A15.021,15.021,0,0,1,2.25,88.207V17.258A15.021,15.021,0,0,1,17.258,2.25H66.377A15.021,15.021,0,0,1,81.385,17.258V46.085a9.655,9.655,0,0,1,3.389,1.081l18.419,10.386a11.117,11.117,0,0,1,5.479,9.758ZM17.258,95.029H59.833a43.348,43.348,0,0,1-8.465-25.923v-1.79a11.117,11.117,0,0,1,5.479-9.758L73.2,48.334V17.258a6.831,6.831,0,0,0-6.822-6.822H17.258a6.831,6.831,0,0,0-6.822,6.822V88.207A6.831,6.831,0,0,0,17.258,95.029Zm83.228-27.714a3.031,3.031,0,0,0-1.31-2.625h0L80.757,54.3a1.452,1.452,0,0,0-.731-.2,1.486,1.486,0,0,0-.737.2L60.87,64.69a3.022,3.022,0,0,0-1.315,2.625v1.79c0,14.544,8.361,27.19,20.466,31.2,12.1-4.006,20.466-16.651,20.466-31.2Z" transform="translate(1029 3211.539)" fill="#fff" stroke="#051b2c" stroke-width="6"></path><text id="_" data-name="$" transform="translate(1101 3300)" fill="#fff" font-size="31" font-family="HelveticaNeue, Helvetica Neue"><tspan x="0" y="0">$</tspan></text></g></g></svg> 