<?xml version="1.0" encoding="UTF-8"?> <svg xmlns="http://www.w3.org/2000/svg" width="300" height="186" viewBox="0 0 300 186"><g id="Group_81" data-name="Group 81" transform="translate(-537 -3181)"><g id="Group_23" data-name="Group 23" transform="translate(455 3042)"><rect id="Rectangle_2" data-name="Rectangle 2" width="300" height="186" transform="translate(82 139)" fill="#051c2c"></rect></g><g id="Group_80" data-name="Group 80" transform="translate(625.105 3211.005)"><path id="Path_124" data-name="Path 124" d="M109.293,63.009a1.684,1.684,0,0,0-1.194-.529,44.279,44.279,0,0,1-15.143-2.522,43.447,43.447,0,0,1-9.964-4.915l-.005-28.57v-.135a.485.485,0,0,0-.135-.4c0-.135,0-.135-.135-.265a.285.285,0,0,0-.265-.265l-.135-.135L67.708,10.53a1.865,1.865,0,0,0-.529-.4h-.135c-.135,0-.265-.135-.4-.135H17.351a3.52,3.52,0,0,0-3.456,3.456V95.424a3.52,3.52,0,0,0,3.456,3.456H62.259a53.469,53.469,0,0,0,17.8,17.136,1.887,1.887,0,0,0,.929.265,1.943,1.943,0,0,0,.929-.265c17.272-10.229,28.036-30.029,28.036-51.815a2.115,2.115,0,0,0-.659-1.194ZM68.106,15.845l8.9,8.9h-8.9ZM17.356,95.429V13.457H64.785V26.608a1.762,1.762,0,0,0,1.728,1.728H79.664V54.772a37.928,37.928,0,0,1-10.629,5.314,45.267,45.267,0,0,1-15.143,2.522,1.971,1.971,0,0,0-1.194.529,2.036,2.036,0,0,0-.529,1.329,62.965,62.965,0,0,0,8.106,31.086l-42.92.005Zm63.508,17.136c-15.279-9.435-24.979-27.1-25.507-46.636A49.107,49.107,0,0,0,69.97,63.272a46.317,46.317,0,0,0,10.893-5.449,44.048,44.048,0,0,0,10.893,5.449,49.109,49.109,0,0,0,14.614,2.657c-.529,19.534-10.1,37.206-25.507,46.636Z" transform="translate(0)" fill="#fff" stroke="#051b2c" stroke-width="1.5"></path><path id="Path_125" data-name="Path 125" d="M75.458,59.517,64.3,70.675l-5.584-5.444a1.692,1.692,0,0,0-2.393,2.393L63.1,74.4a1.985,1.985,0,0,0,1.194.529,1.446,1.446,0,0,0,1.194-.529L77.845,62.045a1.685,1.685,0,0,0,0-2.393,1.565,1.565,0,0,0-2.387-.135Z" transform="translate(13.777 16.113)" fill="#fff" stroke="#051b2c" stroke-width="1.5"></path><path id="Path_126" data-name="Path 126" d="M25.325,30.753H65.047a1.728,1.728,0,0,0,0-3.456L25.325,27.3a1.726,1.726,0,1,0,0,3.451Z" transform="translate(3.188 5.685)" fill="#fff" stroke="#051b2c" stroke-width="1.5"></path><path id="Path_127" data-name="Path 127" d="M25.325,38.156H65.047a1.728,1.728,0,0,0,0-3.456H25.325A1.762,1.762,0,0,0,23.6,36.428,1.679,1.679,0,0,0,25.325,38.156Z" transform="translate(3.188 8.117)" fill="#fff" stroke="#051b2c" stroke-width="1.5"></path><path id="Path_128" data-name="Path 128" d="M25.325,45.554H65.047a1.728,1.728,0,0,0,0-3.456L25.325,42.1A1.762,1.762,0,0,0,23.6,43.831a1.678,1.678,0,0,0,1.728,1.723Z" transform="translate(3.188 10.548)" fill="#fff" stroke="#051b2c" stroke-width="1.5"></path><path id="Path_129" data-name="Path 129" d="M25.325,52.957H41.933a1.728,1.728,0,1,0,0-3.456H25.325a1.728,1.728,0,0,0,0,3.456Z" transform="translate(3.188 12.981)" fill="#fff" stroke="#051b2c" stroke-width="1.5"></path><path id="Path_130" data-name="Path 130" d="M42.6,56.9H25.325a1.728,1.728,0,1,0,0,3.456H42.6a1.762,1.762,0,0,0,1.728-1.728A1.676,1.676,0,0,0,42.6,56.9Z" transform="translate(3.188 15.411)" fill="#fff" stroke="#051b2c" stroke-width="1.5"></path></g></g></svg> 