<?xml version="1.0" encoding="UTF-8"?> <svg xmlns="http://www.w3.org/2000/svg" width="300" height="186" viewBox="0 0 300 186"><g id="Group_65" data-name="Group 65" transform="translate(-1365 -3181)"><g id="Group_25" data-name="Group 25" transform="translate(1283 3042)"><rect id="Rectangle_2" data-name="Rectangle 2" width="300" height="186" transform="translate(82 139)" fill="#051c2c"></rect></g><g id="Group_64" data-name="Group 64" transform="translate(-657.751 28)"><path id="Path_100" data-name="Path 100" d="M91.413,74.575l1.542,2.394a1.447,1.447,0,0,0,1.208.668,1.37,1.37,0,0,0,.771-.23l14.6-9.368a1.433,1.433,0,0,0,.633-.909,1.491,1.491,0,0,0-.2-1.082L93.358,40.141a1.447,1.447,0,0,0-1.991-.437l-1.588,1.013a34.054,34.054,0,0,0,.242-3.925,33.042,33.042,0,0,0-66.084,0,32.473,32.473,0,0,0,.334,4.638l-1.68-1.07A1.449,1.449,0,0,0,20.6,40.8L3.98,66.7a1.438,1.438,0,0,0-.2,1.082,1.463,1.463,0,0,0,.633.909l14.6,9.368a1.467,1.467,0,0,0,.771.23A1.42,1.42,0,0,0,21,77.625l1.634-2.555L25.375,76.8l1.772,10.162a1.607,1.607,0,0,0,.3.633,4.922,4.922,0,0,0,1.715,4.949h.012a.459.459,0,0,0,.035.046,4.994,4.994,0,0,0,1.945.932l-.1.127a4.974,4.974,0,0,0,.783,6.974h.012l.023.023a4.929,4.929,0,0,0,3.084,1.07,4.761,4.761,0,0,0,1.5-.265,4.981,4.981,0,0,0,1.7,2.647h.012a4.874,4.874,0,0,0,3.084,1.082,5.049,5.049,0,0,0,2.463-.679,4.789,4.789,0,0,0,1.485,2.049H45.2a.46.46,0,0,0,.035.046,4.96,4.96,0,0,0,3.084,1.082,3.221,3.221,0,0,0,.575-.035,5.064,5.064,0,0,0,2-.691l2.428,1.98a5.655,5.655,0,0,0,7.987-.806,5.737,5.737,0,0,0,1.208-2.831,5.59,5.59,0,0,0,2.44.575,5.676,5.676,0,0,0,4.408-2.083,5.6,5.6,0,0,0,1.243-3.245,5.76,5.76,0,0,0,1.462.219,5.649,5.649,0,0,0,5.651-5.26,5.737,5.737,0,0,0,1.6.253,5.677,5.677,0,0,0,5.639-6.238,5.508,5.508,0,0,0-.621-2.049l5.018-11.578L91.413,74.6Zm.3-31.672,15.065,23.49L94.6,74.207,79.536,50.718,91.712,42.9ZM56.978,6.627A30.191,30.191,0,0,1,86.544,42.8l-9.783,6.272a1.433,1.433,0,0,0-.633.909,1.491,1.491,0,0,0,.2,1.082l.944,1.473L62.825,56.852a1.462,1.462,0,0,0-.495.265l-1.554,1.277L42.258,57.14l-6.192-3.027L37.609,51.7a1.438,1.438,0,0,0,.2-1.082,1.463,1.463,0,0,0-.633-.909l-9.61-6.157A30.156,30.156,0,0,1,56.955,6.616ZM19.356,74.852,7.179,67.037l15.065-23.49,12.176,7.815ZM31,90.331h-.012a2.105,2.105,0,0,1-.334-2.958l3.027-3.809a2.1,2.1,0,0,1,1.634-.794,2.129,2.129,0,0,1,1.324.46,2.1,2.1,0,0,1,.345,2.946L33.96,89.986a2.092,2.092,0,0,1-1.4.783,2.059,2.059,0,0,1-1.542-.437Zm6.353,6.779h0l-.748.944a2.089,2.089,0,0,1-2.946.334H33.65a2.17,2.17,0,0,1-.783-1.416A2.073,2.073,0,0,1,33.3,95.43l8.574-10.807a2.1,2.1,0,0,1,1.634-.794,2.129,2.129,0,0,1,1.324.46,2.089,2.089,0,0,1,.334,2.946L43.7,89.088h0L37.344,97.1Zm7.089,2.474h0l-1.531,1.933a2.089,2.089,0,0,1-2.946.334h-.012a2.17,2.17,0,0,1-.783-1.416,2.073,2.073,0,0,1,.437-1.542l6.353-8.01a2.1,2.1,0,0,1,1.634-.794A2.115,2.115,0,0,1,49.7,91.954a2.073,2.073,0,0,1-.437,1.542L47.783,95.36h0l-3.338,4.212ZM50,103.992a2.1,2.1,0,0,1-2.946.345h-.012a2.17,2.17,0,0,1-.783-1.416,2.073,2.073,0,0,1,.437-1.542l3.338-4.212a2.1,2.1,0,0,1,1.634-.794,2.129,2.129,0,0,1,1.324.46,2.089,2.089,0,0,1,.334,2.946l-3.338,4.212Zm9.1,2.3a2.861,2.861,0,0,1-3.925.4l-2.221-1.807,2.636-3.315a5.091,5.091,0,0,0,.679-1.185l2.359,1.922a.864.864,0,0,0,.092.081,2.789,2.789,0,0,1,.391,3.913ZM81.492,91.816a2.846,2.846,0,0,1-3.925.4L65.921,82.712l-.253-.207-.046-.035a1.424,1.424,0,0,0-2.256,1.565.875.875,0,0,0,.092.242,1.432,1.432,0,0,0,.334.414L73.85,92.9a2.8,2.8,0,0,1,1.013,1.876,2.754,2.754,0,0,1-.61,2.049,2.867,2.867,0,0,1-3.925.4L68.74,95.936a.315.315,0,0,0-.058-.046l-.035-.035h0a.286.286,0,0,0-.081-.058L57.68,86.924a1.44,1.44,0,0,0-1.818,2.233L66.749,98.03l.046.035a2.8,2.8,0,0,1,.357,3.89,2.861,2.861,0,0,1-3.936.4L60.6,100.229s-.069-.058-.092-.081l-4.2-3.43a4.883,4.883,0,0,0-1.554-2.141,5.03,5.03,0,0,0-2.279-.99l-.069-.058a4.953,4.953,0,0,0-1.715-5.225,4.857,4.857,0,0,0-2.371-1,4.968,4.968,0,0,0-8.54-4.6,4.916,4.916,0,0,0-1.37-1.715,4.975,4.975,0,0,0-6.986.806l-1.841,2.325-1.462-8.424a1.456,1.456,0,0,0-.644-.967l-3.269-2.06L34.536,56.576l6.756,3.292a1.444,1.444,0,0,0,.529.138l15.744,1.07L48.07,68.867a4.232,4.232,0,0,0-1.531,2.969,4.176,4.176,0,0,0,1.128,3.142,6.692,6.692,0,0,0,7.9,1.37l7.308-3.74,7.642,6.5.023.035a.69.69,0,0,1,.069.081c.012.012.023.035.035.046h0a1.277,1.277,0,0,0,.23.276l10.243,8.367a2.8,2.8,0,0,1,1.013,1.876,2.769,2.769,0,0,1-.61,2.049Zm5.421-17.5-4.684,10.8-5.743-4.684-12.5-10.646a1.418,1.418,0,0,0-.932-.345,1.349,1.349,0,0,0-.656.161L54.228,73.77a3.82,3.82,0,0,1-4.488-.783,1.306,1.306,0,0,1-.357-.99,1.287,1.287,0,0,1,.483-.932L63.941,59.522,78.9,55.045,89.871,72.136l-2.405,1.519a1.436,1.436,0,0,0-.552.644Z" transform="translate(2116 3189.25)" fill="#fff" stroke="#051b2c" stroke-width="1"></path><path id="Path_101" data-name="Path 101" d="M48.758,49.948a1.44,1.44,0,0,0,1.013.426,1.393,1.393,0,0,0,1.013-.426L72.7,28.035a1.448,1.448,0,0,0,.426-1.013,1.4,1.4,0,0,0-.426-1.013L65.8,19.115a1.438,1.438,0,0,0-2.037,0L49.759,33.122l-7.193-7.193a1.438,1.438,0,0,0-2.037,0l-6.894,6.894a1.438,1.438,0,0,0,0,2.037L48.747,49.971ZM41.565,28.967l7.193,7.193a1.438,1.438,0,0,0,2.037,0L64.8,22.154l4.857,4.857L49.771,46.9,36.7,33.824l4.857-4.857Z" transform="translate(2120.445 3191.505)" fill="#fff" stroke="#051b2c" stroke-width="1"></path></g></g></svg> 