<?xml version="1.0" encoding="UTF-8"?> <svg xmlns="http://www.w3.org/2000/svg" width="300" height="186" viewBox="0 0 300 186"><g id="Group_69" data-name="Group 69" transform="translate(-951 -3618)"><g id="Group_28" data-name="Group 28" transform="translate(869 3479)"><rect id="Rectangle_2" data-name="Rectangle 2" width="300" height="186" transform="translate(82 139)" fill="#051c2c"></rect></g><g id="Group_68" data-name="Group 68" transform="translate(-282.924 0)"><path id="Path_104" data-name="Path 104" d="M75.08,28.7a8.923,8.923,0,1,0,3.014,12.257A8.923,8.923,0,0,0,75.08,28.7Zm.6,10.793a6.1,6.1,0,1,1-2.06-8.378A6.1,6.1,0,0,1,75.679,39.493Zm11.432-3.7a1.414,1.414,0,0,0,.768-1.613L86.952,30.4a1.414,1.414,0,0,0-1.428-1.072l-2.638.108a14.079,14.079,0,0,0-1.953-2.711l.916-2.554a1.414,1.414,0,0,0-.6-1.684l-3.32-2.013a1.414,1.414,0,0,0-1.768.251l-1.787,1.941a14.085,14.085,0,0,0-3.3-.535l-1.16-2.456a1.414,1.414,0,0,0-1.613-.768l-3.771.928a1.414,1.414,0,0,0-1.072,1.428l.108,2.638a14.079,14.079,0,0,0-2.711,1.953L58.3,24.942a1.414,1.414,0,0,0-1.684.6l-2.011,3.322a1.414,1.414,0,0,0,.251,1.768L56.8,32.417a14.036,14.036,0,0,0-.536,3.3l-2.455,1.16a1.414,1.414,0,0,0-.768,1.613l.928,3.771a1.414,1.414,0,0,0,1.43,1.072l2.636-.108a14.079,14.079,0,0,0,1.953,2.711l-.916,2.554a1.414,1.414,0,0,0,.6,1.684l3.321,2.011a1.414,1.414,0,0,0,1.768-.251l1.787-1.941a14.085,14.085,0,0,0,3.3.535L71,52.984a1.414,1.414,0,0,0,1.276.81,1.448,1.448,0,0,0,.337-.041l3.769-.919A1.414,1.414,0,0,0,77.46,51.4l-.108-2.638a14.025,14.025,0,0,0,2.711-1.953l2.554.916a1.414,1.414,0,0,0,1.684-.6l2.011-3.322a1.414,1.414,0,0,0-.251-1.768l-1.941-1.787a14.085,14.085,0,0,0,.535-3.3ZM81.171,40.2a1.414,1.414,0,0,0,.371,1.518L83.3,43.331l-.816,1.347-2.3-.825a1.414,1.414,0,0,0-1.5.354A11.271,11.271,0,0,1,75.3,46.638a1.414,1.414,0,0,0-.812,1.336l.1,2.388-1.532.376-1.044-2.212a1.414,1.414,0,0,0-1.276-.808H70.7a11.274,11.274,0,0,1-4.112-.671,1.414,1.414,0,0,0-1.518.371l-1.612,1.761-1.347-.816.825-2.3a1.414,1.414,0,0,0-.354-1.5,11.271,11.271,0,0,1-2.431-3.384,1.414,1.414,0,0,0-1.336-.812l-2.388.1-.376-1.532,2.212-1.044a1.414,1.414,0,0,0,.808-1.309,11.269,11.269,0,0,1,.671-4.112,1.414,1.414,0,0,0-.371-1.519l-1.757-1.617.816-1.347,2.3.825a1.414,1.414,0,0,0,1.5-.354,11.261,11.261,0,0,1,3.385-2.431,1.414,1.414,0,0,0,.811-1.336l-.1-2.384,1.532-.376L68.9,24.144a1.414,1.414,0,0,0,1.309.808,11.314,11.314,0,0,1,4.112.671,1.414,1.414,0,0,0,1.52-.369l1.612-1.768L78.8,24.3l-.825,2.3a1.414,1.414,0,0,0,.354,1.5,11.252,11.252,0,0,1,2.431,3.382A1.414,1.414,0,0,0,82.1,32.3l2.388-.1.376,1.532-2.212,1.044a1.414,1.414,0,0,0-.808,1.309,11.27,11.27,0,0,1-.671,4.113Zm-29.7,21.373A12.364,12.364,0,1,0,51.589,86.3h.118a12.364,12.364,0,1,0-.236-24.727ZM58.4,80.614a9.477,9.477,0,0,1-6.717,2.862H51.59a9.546,9.546,0,0,1-.09-19.081h.094A9.546,9.546,0,0,1,58.4,80.614ZM75.27,78.1a1.414,1.414,0,0,0,1.118-1.394l-.055-5.657a1.414,1.414,0,0,0-1.144-1.373l-4.173-.8a19.834,19.834,0,0,0-2.1-5.078l2.371-3.654a1.414,1.414,0,0,0-.2-1.777L67.048,54.4a1.414,1.414,0,0,0-1.78-.161l-3.52,2.378a19.873,19.873,0,0,0-5.082-2.107l-.905-4.257a1.414,1.414,0,0,0-1.38-1.117h-.014l-5.657.054a1.414,1.414,0,0,0-1.372,1.144l-.8,4.173a19.866,19.866,0,0,0-5.082,2.1L37.8,54.241a1.414,1.414,0,0,0-1.776.2l-3.966,4.041a1.414,1.414,0,0,0-.161,1.78l2.384,3.52a19.885,19.885,0,0,0-2.108,5.083l-4.257.906A1.414,1.414,0,0,0,26.8,71.162l.054,5.657a1.414,1.414,0,0,0,1.144,1.372l4.174.8a19.841,19.841,0,0,0,2.1,5.082L31.9,87.73a1.414,1.414,0,0,0,.2,1.776l4.041,3.964a1.414,1.414,0,0,0,1.78.161l3.52-2.377a19.876,19.876,0,0,0,5.082,2.108l.905,4.256a1.414,1.414,0,0,0,1.38,1.118h.014l5.657-.055a1.414,1.414,0,0,0,1.372-1.144l.8-4.173a19.893,19.893,0,0,0,5.084-2.11l3.654,2.371a1.414,1.414,0,0,0,1.776-.2l3.962-4.042a1.414,1.414,0,0,0,.16-1.78l-2.383-3.522a19.851,19.851,0,0,0,2.1-5.081Zm-6.805-.581a17.1,17.1,0,0,1-2.422,5.829,1.414,1.414,0,0,0,.012,1.564l2.25,3.322-2.348,2.392L62.527,88.4a1.414,1.414,0,0,0-1.539,0,17.069,17.069,0,0,1-5.833,2.412,1.414,1.414,0,0,0-1.1,1.115L53.3,95.863l-3.352.033L49.1,91.889A1.414,1.414,0,0,0,48.009,90.8a17.115,17.115,0,0,1-5.83-2.422,1.414,1.414,0,0,0-1.563.012l-3.322,2.25L34.9,88.295l2.23-3.434a1.414,1.414,0,0,0,0-1.539,17.089,17.089,0,0,1-2.416-5.828A1.414,1.414,0,0,0,33.6,76.4l-3.939-.759-.032-3.352,4.007-.851a1.414,1.414,0,0,0,1.087-1.089,17.078,17.078,0,0,1,2.423-5.829,1.414,1.414,0,0,0-.013-1.564l-2.25-3.322,2.348-2.394,3.433,2.229a1.414,1.414,0,0,0,1.539,0,17.07,17.07,0,0,1,5.834-2.413,1.414,1.414,0,0,0,1.1-1.115L49.891,52l3.353-.032.851,4a1.414,1.414,0,0,0,1.089,1.088,17.076,17.076,0,0,1,5.829,2.422,1.414,1.414,0,0,0,1.564-.013L65.9,57.218l2.392,2.348L66.063,63a1.414,1.414,0,0,0,0,1.532,17.089,17.089,0,0,1,2.413,5.833,1.414,1.414,0,0,0,1.115,1.1l3.939.758.032,3.353-4.007.851a1.414,1.414,0,0,0-1.085,1.095ZM111.057,33.85a1.414,1.414,0,0,1-1.661,1.109l-7.13-1.421A49.818,49.818,0,0,1,24.552,93.9a1.414,1.414,0,1,1,1.93-2.053,47,47,0,0,0,73.45-56.689l-1.6,6.963a1.414,1.414,0,0,1-1.374,1.095,1.46,1.46,0,0,1-.317-.035,1.414,1.414,0,0,1-1.061-1.692L97.944,31.2a1.414,1.414,0,0,1,1.65-1.068l10.351,2.064A1.414,1.414,0,0,1,111.057,33.85ZM20.517,71.934l-2.279,9.911A1.408,1.408,0,0,1,16.1,83.209L6.148,81.226A1.414,1.414,0,1,1,6.7,78.457l7.4,1.474a49.82,49.82,0,0,1,77.2-59.971,1.414,1.414,0,0,1-1.854,2.13A47,47,0,0,0,16.249,77.9l1.518-6.6a1.414,1.414,0,1,1,2.751.632Z" transform="translate(1326 3653.267)" fill="#fff" stroke="#051b2c" stroke-width="1"></path></g></g></svg> 