<?xml version="1.0" encoding="UTF-8"?> <svg xmlns="http://www.w3.org/2000/svg" width="300" height="186" viewBox="0 0 300 186"><g id="Group_66" data-name="Group 66" transform="translate(-123 -3618)"><g id="Group_26" data-name="Group 26" transform="translate(41 3479)"><rect id="Rectangle_2" data-name="Rectangle 2" width="300" height="186" transform="translate(82 139)" fill="#051c2c"></rect></g><path id="Path_102" data-name="Path 102" d="M90.259,61.824a23.562,23.562,0,0,1,7.047,1.743c2.327-8.832,3.5-18.468,4.748-28.713.9-7.381,1.836-15.073,3.292-23.155h0a1.534,1.534,0,0,0-1.91-1.762A81.491,81.491,0,0,1,79.767,12.5,100.6,100.6,0,0,1,56.534,8.769a82.252,82.252,0,0,1-23.776,3.783A94.4,94.4,0,0,1,9.543,9.794a1.539,1.539,0,0,0-1.878,1.771c1.609,8.9,2.462,17.59,3.287,25.95,3.074,31.152,5.694,57.613,45.512,70.117q4.194-1.711,7.882-3.593,3.1-1.579,5.814-3.246v0A23.573,23.573,0,0,1,66.09,94a78.672,78.672,0,0,1-9.083,4.33,1.293,1.293,0,0,1-.876.032c-32.279-9.982-34.351-31-36.8-55.759-.626-6.361-1.28-12.983-2.494-19.672A3.495,3.495,0,0,1,21.107,18.9a69.854,69.854,0,0,0,17.206,2.049,60.709,60.709,0,0,0,17.726-2.861,1.338,1.338,0,0,1,.83-.042c11.61,3.259,23.257,4.024,34.968.964v0a3.5,3.5,0,0,1,4.33,4.011c-1.085,6-1.8,11.911-2.494,17.581h0a179.273,179.273,0,0,1-3.422,21.212Zm-25,29.622Q63.438,92.49,61.4,93.491q-2.309,1.134-4.938,2.212C47.882,92.99,41.581,89.429,36.9,85.155V82.071A19.607,19.607,0,0,1,71.088,69a23.668,23.668,0,0,0-5.828,22.45Zm-31-8.953c-9.37-10.5-10.761-24.551-12.3-40.147-.631-6.4-1.289-13.056-2.522-19.881a.861.861,0,0,1,.26-.793.849.849,0,0,1,.8-.209,72.258,72.258,0,0,0,17.836,2.119,63.106,63.106,0,0,0,18.2-2.879A77.074,77.074,0,0,0,74.3,23.541,62.582,62.582,0,0,0,92.5,21.57a.862.862,0,0,1,1.076,1C92.458,28.775,91.739,34.66,91.053,40.3a170.973,170.973,0,0,1-3.5,21.438A23.571,23.571,0,0,0,73.022,67.2,22.225,22.225,0,0,0,34.255,82.07ZM56.511,28.96a13.565,13.565,0,1,1-9.592,3.973,13.575,13.575,0,0,1,9.592-3.973ZM64.226,34.8a10.918,10.918,0,1,1-15.435,0,10.926,10.926,0,0,1,15.435,0Zm35.5,29.946A23.674,23.674,0,1,1,72.034,102.74a96.683,96.683,0,0,1-15.022,7.516,1.308,1.308,0,0,1-.881.037C14.208,97.325,11.509,69.983,8.33,37.769,7.509,29.451,6.66,20.794,5.075,12.026a4.167,4.167,0,0,1,5.082-4.8A91.5,91.5,0,0,0,32.736,9.917a79.7,79.7,0,0,0,23.3-3.756,1.305,1.305,0,0,1,.83-.042C72.1,10.394,87.4,11.4,102.775,7.385a4.172,4.172,0,0,1,5.165,4.78c-1.423,7.873-2.36,15.6-3.264,23C103.4,45.7,102.19,55.591,99.724,64.753ZM88.15,100.324a1.322,1.322,0,0,1,.96.376,1.316,1.316,0,0,1,0,1.9,1.321,1.321,0,0,1-.96.376A17.571,17.571,0,0,1,70.582,85.4a1.324,1.324,0,0,1,2.647,0,14.921,14.921,0,0,0,14.92,14.92Zm0-29.849v0a1.324,1.324,0,0,1,0-2.647A17.571,17.571,0,0,1,105.718,85.4a1.324,1.324,0,0,1-2.647,0A14.918,14.918,0,0,0,88.15,70.48Zm-1.321,4.247a1.336,1.336,0,0,1,.371-.96,1.326,1.326,0,0,1,2.277.96v1.864a5.156,5.156,0,0,1,3.83,4.984,1.322,1.322,0,0,1-2.643,0,2.551,2.551,0,1,0-2.513,2.508,5.157,5.157,0,0,1,1.326,10.14v1.864a1.324,1.324,0,0,1-2.647,0V94.219a5.16,5.16,0,0,1-3.834-4.984,1.33,1.33,0,0,1,1.326-1.363,1.3,1.3,0,0,1,.946.4,1.321,1.321,0,0,1,.376.96,2.509,2.509,0,1,0,2.508-2.508,5.157,5.157,0,0,1-1.321-10.14Zm16.191-4.187a21.02,21.02,0,1,1-14.869-6.162,21.029,21.029,0,0,1,14.869,6.162Z" transform="translate(214.994 3652.929)" fill="#fff" stroke="#051b2c" stroke-width="0.6" fill-rule="evenodd"></path></g></svg> 