<?xml version="1.0" encoding="UTF-8"?> <svg xmlns="http://www.w3.org/2000/svg" width="300" height="186" viewBox="0 0 300 186"><g id="Group_87" data-name="Group 87" transform="translate(-632 -5338)"><rect id="Rectangle_6" data-name="Rectangle 6" width="300" height="186" transform="translate(632 5338)" fill="#051c2c"></rect><path id="Union_36" data-name="Union 36" d="M43.6,109a1.817,1.817,0,0,1-1.816-1.817V98.1A44.97,44.97,0,0,1,32.7,94.322l-6.5,6.43a1.815,1.815,0,0,1-2.579,0L8.247,85.329a1.905,1.905,0,0,1-.527-1.29,1.819,1.819,0,0,1,.527-1.29L14.678,76.3A44.948,44.948,0,0,1,10.9,67.217H1.817v0A1.815,1.815,0,0,1,0,65.4V43.6a1.817,1.817,0,0,1,1.817-1.817H10.9A44.948,44.948,0,0,1,14.678,32.7L8.247,26.2a1.819,1.819,0,0,1-.527-1.29,1.905,1.905,0,0,1,.527-1.29L23.67,8.248a1.9,1.9,0,0,1,1.29-.527,1.812,1.812,0,0,1,1.29.527l6.449,6.43A45.018,45.018,0,0,1,41.783,10.9V1.817A1.817,1.817,0,0,1,43.6,0h9.083A1.818,1.818,0,0,1,54.5,1.817v16.35a1.817,1.817,0,0,1-1.726,1.925,34.517,34.517,0,0,0,0,68.925A1.818,1.818,0,0,1,54.5,90.833v16.35A1.818,1.818,0,0,1,52.682,109ZM33.3,90.436A41.46,41.46,0,0,0,44.053,94.9a1.815,1.815,0,0,1,1.363,1.817v8.647h5.45V92.47a38.15,38.15,0,0,1,0-75.937V3.635h-5.45v8.52a1.816,1.816,0,0,1-1.363,1.817A41.447,41.447,0,0,0,33.3,18.44a1.816,1.816,0,0,1-2.216-.272L24.96,12.1,12.1,24.962l6.068,6.121a1.817,1.817,0,0,1,.4,2.217A41.449,41.449,0,0,0,14.1,44.055a1.817,1.817,0,0,1-1.817,1.363H3.633V63.585h8.52a1.819,1.819,0,0,1,1.817,1.363A41.393,41.393,0,0,0,18.439,75.7a1.817,1.817,0,0,1-.273,2.217L12.1,84.041,24.96,96.848l6.122-6.14a1.816,1.816,0,0,1,2.216-.272Zm57.771.16A5.451,5.451,0,0,1,87.525,87.2h-3.96a1.818,1.818,0,0,1-1.69-1.235l-1.4-4.215H69.032a30.883,30.883,0,1,1,0-54.5H80.441l1.308-4.215A1.816,1.816,0,0,1,83.566,21.8h3.96a5.45,5.45,0,1,1,0,3.633H84.874l-1.308,4.215a1.817,1.817,0,0,1-1.817,1.235H74.318a30.9,30.9,0,0,1,6.3,7.266h7.266l1.326-2.634a1.821,1.821,0,0,1,1.617-1h5.777a5.45,5.45,0,1,1,0,3.633h-4.65l-1.326,2.634a1.821,1.821,0,0,1-1.617,1H82.694a30.884,30.884,0,0,1,2.689,10.9H94.72a7.264,7.264,0,0,1,7.012-5.45v0a7.266,7.266,0,1,1-6.921,9.083H85.382a30.875,30.875,0,0,1-2.779,10.9h6.413a1.818,1.818,0,0,1,1.617,1l1.326,2.634h4.65a5.45,5.45,0,1,1,0,3.633H90.833a1.817,1.817,0,0,1-1.581-1l-1.326-2.634H80.659a30.887,30.887,0,0,1-6.3,7.267h7.393a1.816,1.816,0,0,1,1.817,1.235l1.308,4.216h2.651A5.45,5.45,0,1,1,91.069,90.6Zm-.237-5.212a1.816,1.816,0,1,0,1.817-1.817A1.816,1.816,0,0,0,90.832,85.383ZM54.5,81.75c3.124,0,6.449-4.1,8.592-10.9H45.906C48.05,77.645,51.374,81.75,54.5,81.75Zm7.866-1.163A27.349,27.349,0,0,0,76.3,70.85H66.87A30.468,30.468,0,0,1,62.365,80.587Zm-15.786,0a30.488,30.488,0,0,1-4.506-9.737H32.7A27.36,27.36,0,0,0,46.579,80.587Zm53.337-7.92a1.816,1.816,0,1,0,1.817-1.817A1.815,1.815,0,0,0,99.916,72.667ZM67.778,67.217H78.587a26.983,26.983,0,0,0,3.161-10.9H69.032A62.928,62.928,0,0,1,67.778,67.217Zm-22.834,0H64.091a57.008,57.008,0,0,0,1.308-10.9H43.6A56.962,56.962,0,0,0,44.944,67.217Zm-14.533,0H41.274a62.814,62.814,0,0,1-1.218-10.9H27.34A26.99,26.99,0,0,0,30.411,67.216ZM99.163,51.931a3.634,3.634,0,1,0,2.569-1.064A3.633,3.633,0,0,0,99.163,51.931Zm-30.131.753H81.749a27,27,0,0,0-3.125-10.9H67.815A62.831,62.831,0,0,1,69.032,52.684Zm-25.433,0H65.4a57.022,57.022,0,0,0-1.344-10.9H44.908A57.008,57.008,0,0,0,43.6,52.684Zm-16.35,0H39.966a62.753,62.753,0,0,1,1.345-10.9h-10.9A26.983,26.983,0,0,0,27.25,52.684ZM66.87,38.151H76.3a27.354,27.354,0,0,0-13.934-9.737A30.468,30.468,0,0,1,66.87,38.151Zm-20.963,0H63.092c-2.143-6.795-5.467-10.9-8.592-10.9S48.05,31.356,45.907,38.151Zm-13.207,0h9.429a30.468,30.468,0,0,1,4.5-9.737A27.349,27.349,0,0,0,32.7,38.151Zm67.216-1.817a1.816,1.816,0,1,0,1.817-1.817A1.815,1.815,0,0,0,99.916,36.334ZM90.832,23.618A1.816,1.816,0,1,0,92.649,21.8,1.816,1.816,0,0,0,90.832,23.618ZM19.815,86.6l3.854-3.854,2.569,2.569-3.854,3.854ZM7.266,56.318V52.684h5.45v3.633ZM19.825,22.395l2.569-2.569,3.854,3.854-2.569,2.569Z" transform="translate(727.5 5376.5)" fill="#fff" stroke="#051c2c" stroke-width="0.7"></path></g></svg> 