<?xml version="1.0" encoding="UTF-8"?> <svg xmlns="http://www.w3.org/2000/svg" width="300" height="186" viewBox="0 0 300 186"><g id="Group_82" data-name="Group 82" transform="translate(-632 -5020)"><rect id="Rectangle_2" data-name="Rectangle 2" width="300" height="186" transform="translate(632 5020)" fill="#051c2c"></rect><path id="Union_35" data-name="Union 35" d="M26.758,109V47.848h61.17V109Zm5.1-5.1H82.826V90.043H31.861Zm0-18.954H82.825V71.907H31.861Zm0-18.138H82.825V52.952H31.861Zm4.3,33.2V94.9H58.276v5.1ZM12.742,73.363a27.5,27.5,0,0,1,.168-3.011C5.01,65.807,0,56.894,0,47.118,0,36.255,6.093,26.637,15.319,22.671,17.432,9.834,30.608,0,46.115,0,58.423,0,69.44,6.1,74.434,15.426c2.693-1.209,7.032-2.914,10.074-2.914,11.308,0,20.508,9.933,20.508,22.141a23.2,23.2,0,0,1-4.072,13.231A24.258,24.258,0,0,1,109,65.53c0,9.153-5.48,17.507-14.659,22.346l-2.38-4.513C99.434,79.423,103.9,72.756,103.9,65.53c0-5.8-2.852-11.229-8.034-15.282L93.73,48.58l1.789-2.03a17.927,17.927,0,0,0,4.393-11.9c0-9.395-6.911-17.038-15.405-17.038-2.425,0-7.5,2.141-10.131,3.49l-2.5,1.281L70.84,19.781C67.343,11,57.406,5.1,46.113,5.1,32.584,5.1,21.2,13.724,20.195,24.73l-.149,1.633-1.547.543C10.484,29.722,5.1,37.843,5.1,47.119c0,8.493,4.582,16.149,11.674,19.5l1.754.83L18.2,69.366a23.422,23.422,0,0,0-.355,4,22.55,22.55,0,0,0,4.6,13.76l-4.032,3.12A27.681,27.681,0,0,1,12.742,73.363Zm23.42,7.612v-5.1H58.276v5.1Zm0-19.031v-5.1H58.276v5.1Z" transform="translate(727.5 5058.5)" fill="#fff" stroke="#051c2c" stroke-width="1.5"></path></g></svg> 