<?xml version="1.0" encoding="UTF-8"?> <svg xmlns="http://www.w3.org/2000/svg" width="300" height="186" viewBox="0 0 300 186"><g id="Group_81" data-name="Group 81" transform="translate(-231 -5020)"><rect id="Rectangle_1" data-name="Rectangle 1" width="300" height="186" transform="translate(231 5020)" fill="#051c2c"></rect><path id="Union_34" data-name="Union 34" d="M140.3,109H18.693a7.524,7.524,0,0,1-3.583-.895L3.244,101.63A5.811,5.811,0,0,1,.161,95.062a6.353,6.353,0,0,1,6.287-4.67H7.972V7.975A7.983,7.983,0,0,1,15.947,0H143.555a7.983,7.983,0,0,1,7.975,7.975V90.391h1.239a6.539,6.539,0,0,1,6.568,4.714,5.693,5.693,0,0,1-3.058,6.441l-11.7,6.386A8.972,8.972,0,0,1,140.338,109ZM5.324,96.334c-.052.218.1.429.47.627l11.864,6.474a2.2,2.2,0,0,0,1.038.248H65.129l-3.19-7.975H6.606C5.8,95.721,5.4,96.032,5.324,96.334ZM140.3,103.683a3.681,3.681,0,0,0,1.732-.419l11.7-6.385c.119-.063.5-.287.447-.481-.065-.263-.512-.682-1.433-.689H97.441l-3.189,7.975Zm-51.806,0a2.021,2.021,0,0,0,.147-.3l3.07-7.673H67.666l3.07,7.673a1.938,1.938,0,0,0,.146.3ZM13.288,7.977V90.389H146.215V7.977a2.662,2.662,0,0,0-2.659-2.659H15.948A2.662,2.662,0,0,0,13.288,7.977ZM88.9,109h0Zm33.387-23.926a2.659,2.659,0,0,1-2.659-2.659V66.463a2.658,2.658,0,0,1,2.659-2.658h15.95a2.656,2.656,0,0,1,2.658,2.658V82.415a2.659,2.659,0,0,1-2.658,2.659Zm2.658-5.317H135.58V69.123H124.946ZM21.264,85.073a2.658,2.658,0,0,1-2.658-2.658V13.294a2.659,2.659,0,0,1,2.658-2.659H37.215a2.659,2.659,0,0,1,2.658,2.659v69.12a2.658,2.658,0,0,1-2.658,2.658Zm2.658-5.316H34.556v-63.8H23.922Zm43.866,0a2.665,2.665,0,0,1-1.767-.671L54.109,68.5a2.679,2.679,0,0,1-.238-.228l-.008-.009-.009-.01a2.661,2.661,0,0,1-.687-1.96V29.245h0c0-.005,0-.01,0-.015s0-.013,0-.019,0-.014,0-.021,0-.009,0-.014,0-.012,0-.018V29.1q0-.015,0-.029v0a2.661,2.661,0,0,1,.886-1.809L66.021,16.623a2.661,2.661,0,0,1,1.767-.671H91.714a2.661,2.661,0,0,1,1.767.671l11.964,10.633a2.66,2.66,0,0,1,.656.893v0l.005.012a2.643,2.643,0,0,1,.223.9v0l0,.029v.044c0,.006,0,.012,0,.018s0,.012,0,.017,0,.009,0,.014,0,.014,0,.021,0,.012,0,.018,0,.011,0,.016h0V66.273a2.66,2.66,0,0,1-.807,2.1q-.057.055-.117.107L93.481,79.084a2.665,2.665,0,0,1-1.767.671Zm19.939-5.318v-31.9H71.775v31.9Zm5.317-2.08,7.975-7.089v-30.1l-7.538,6.7a2.649,2.649,0,0,1-.437.316Zm-26.585,0V42.181a2.649,2.649,0,0,1-.437-.316l-7.538-6.7v30.1ZM90.7,37.22l8.973-7.975L90.7,21.269H68.8l-8.972,7.976L68.8,37.22H90.7Zm47.535,21.268h-15.95a2.658,2.658,0,0,1-2.659-2.658V39.879a2.659,2.659,0,0,1,2.659-2.659h15.95a2.659,2.659,0,0,1,2.658,2.659V55.83a2.656,2.656,0,0,1-2.655,2.658Zm-13.293-5.317H135.58V42.536H124.946ZM122.288,31.9a2.659,2.659,0,0,1-2.659-2.659V13.292a2.659,2.659,0,0,1,2.659-2.658h15.95a2.658,2.658,0,0,1,2.658,2.658V29.243a2.659,2.659,0,0,1-2.658,2.659Zm2.658-5.318H135.58V15.951H124.946Z" transform="translate(301.5 5058.5)" fill="#fff" stroke="#051c2c" stroke-width="2"></path></g></svg> 