<?xml version="1.0" encoding="UTF-8"?> <svg xmlns="http://www.w3.org/2000/svg" width="300" height="186" viewBox="0 0 300 186"><g id="Group_83" data-name="Group 83" transform="translate(-1038 -5020)"><rect id="Rectangle_4" data-name="Rectangle 4" width="300" height="186" transform="translate(1038 5020)" fill="#051c2c"></rect><path id="Union_37" data-name="Union 37" d="M31.225,109a4.83,4.83,0,0,1-4.825-4.825V86.216c0-9.761,7.815-16.131,16.485-17.705a18.817,18.817,0,0,0,3.9,3.027c-8.288.119-16.982,5.253-16.982,14.678v17.96a1.421,1.421,0,0,0,1.42,1.418H81.181a1.421,1.421,0,0,0,1.419-1.418V86.216c0-9.426-8.693-14.559-16.981-14.678a18.818,18.818,0,0,0,3.9-3.027c8.669,1.574,16.485,7.944,16.485,17.705v17.96A4.831,4.831,0,0,1,81.181,109ZM56.192,98.781a3.645,3.645,0,0,1-2.542-1.07h0l-3.236-3.266a3.536,3.536,0,0,1-.983-3.024l2.8-17.762a18.718,18.718,0,0,0,3.383.413L52.8,91.949a.121.121,0,0,0,.038.1h0l3.234,3.265a.239.239,0,0,0,.316,0h0l3.183-3.083a.117.117,0,0,0,.041-.1L56.933,74.069a18.774,18.774,0,0,0,3.379-.441l2.667,18.005a3.538,3.538,0,0,1-1.042,3.047h0l-3.182,3.083a3.647,3.647,0,0,1-2.529,1.018ZM45.364,66.19A15.33,15.33,0,1,1,56.2,70.679,15.326,15.326,0,0,1,45.364,66.19Zm2.413-19.265a11.913,11.913,0,1,0,8.426-3.5A11.933,11.933,0,0,0,47.777,46.926ZM69.521,68.51h0Zm-46.111-.969-12.17-13.97H8.062A8.243,8.243,0,0,1,0,45.367V7.81A7.982,7.982,0,0,1,8.133,0H90.645a7.984,7.984,0,0,1,8.134,7.807V45.365c0,4.419-5.306,8.206-9.651,8.206l-14.278.017a18.542,18.542,0,0,0-.646-3.406h0l14.922-.018c2.861,0,6.246-2.6,6.246-4.8V7.809a4.579,4.579,0,0,0-4.727-4.4H8.133a4.579,4.579,0,0,0-4.727,4.4V45.367a4.852,4.852,0,0,0,4.655,4.8h3.954a1.7,1.7,0,0,1,1.283.584l9.692,11.125V51.946a1.7,1.7,0,0,1,1.7-1.7l13.493-.016a18.638,18.638,0,0,0-.637,3.407h0L26.4,53.647V66.422a1.7,1.7,0,0,1-2.987,1.119ZM19.587,31.51a1.7,1.7,0,0,1,0-3.406H79.2a1.7,1.7,0,1,1,0,3.406Zm0-6.812a1.7,1.7,0,0,1,0-3.406H79.2a1.7,1.7,0,0,1,0,3.406Zm0-6.813a1.7,1.7,0,0,1,0-3.406H79.2a1.7,1.7,0,0,1,0,3.406Z" transform="translate(1138.5 5058.5)" fill="#fff" stroke="#051c2c" stroke-width="0.4"></path></g></svg> 