<?xml version="1.0" encoding="UTF-8"?> <svg xmlns="http://www.w3.org/2000/svg" width="300" height="186" viewBox="0 0 300 186"><g id="Group_84" data-name="Group 84" transform="translate(-1465 -5020)"><rect id="Rectangle_3" data-name="Rectangle 3" width="300" height="186" transform="translate(1465 5020)" fill="#051c2c"></rect><path id="Union_33" data-name="Union 33" d="M86.972,107.706H33.3a10.19,10.19,0,0,1-7.2-2.983l-.089-.09a10.208,10.208,0,0,1-2.9-7.115V89.684q0-.033,0-.066V72.675H17.825v6.461A1.229,1.229,0,0,1,16.6,80.365H1.227A1.227,1.227,0,0,1,0,79.136V63.761a1.226,1.226,0,0,1,1.227-1.227H16.6a1.226,1.226,0,0,1,1.228,1.227v6.46h5.292V18.091q0-.033,0-.066V10.187A10.2,10.2,0,0,1,33.3,0H86.975A10.2,10.2,0,0,1,97.163,10.187v7.838a1.214,1.214,0,0,1-.007.127l-.006,19.891h5.3V31.587a1.227,1.227,0,0,1,1.227-1.228h15.37a1.225,1.225,0,0,1,1.227,1.228v15.37a1.225,1.225,0,0,1-1.227,1.227H103.68a1.227,1.227,0,0,1-1.227-1.227V40.5h-5.3l-.014,48.955a1.23,1.23,0,0,1,.022.231v7.838A10.161,10.161,0,0,1,87,107.706Zm-61.4-10.177a7.734,7.734,0,0,0,7.726,7.725H86.972q.356,0,.709-.03a7.7,7.7,0,0,0,6.993-7.109v-.007l0-.03,0-.033v0q0-.06.006-.119l0-7.009H25.572Zm69.115-9.071L94.7,40.5H92.284l-6.75,6.915h0a1.228,1.228,0,1,1-1.76-1.714l7.119-7.287a1.23,1.23,0,0,1,.878-.368H94.7l.005-18.791H25.572V70.221h2.938a1.225,1.225,0,0,1,.879.368l7.119,7.285h0a1.227,1.227,0,0,1-.879,2.086l0,0a1.219,1.219,0,0,1-.878-.368L28,72.675H25.572V88.457H52.16V68.937L48.4,63.673a5.485,5.485,0,0,1-.109-6.18l8.676-13.081A3.756,3.756,0,0,1,60.1,42.728h.008a3.736,3.736,0,0,1,3.124,1.688l8.675,13.079h0a5.487,5.487,0,0,1-.1,6.179l-3.777,5.292V88.457Zm-40.069-.139H65.58V69.944H54.616ZM2.454,77.909H15.37V64.987H2.454ZM50.335,58.852a3.015,3.015,0,0,0,.063,3.4l3.74,5.24H66.072l3.741-5.241a3.016,3.016,0,0,0,.053-3.4L61.33,45.98v8.506a4,4,0,1,1-2.453,0V45.977Zm9.763-2.1a1.543,1.543,0,1,0,1.094.452,1.542,1.542,0,0,0-1.094-.452Zm44.809-11.019h12.916V32.814H104.908v6.352c0,.035,0,.069,0,.1s0,.07,0,.1ZM94.707,16.8v-6.61q0-.238-.015-.475a7.737,7.737,0,0,0-7.716-7.25H33.3a7.733,7.733,0,0,0-7.726,7.724V16.8Zm-34.568,86.62a5.342,5.342,0,1,1,3.772-1.563,5.337,5.337,0,0,1-3.772,1.563Zm-2.661-6.443A2.883,2.883,0,1,0,60.139,95.2v-.005A2.879,2.879,0,0,0,57.478,96.973ZM4.418,74.921a1.227,1.227,0,0,1,0-2.454H13.4a1.227,1.227,0,1,1,0,2.454Zm0-4.5a1.227,1.227,0,0,1,0-2.453H13.4a1.227,1.227,0,1,1,0,2.453Zm75.128-10.83a4.491,4.491,0,0,1,1.507-7.344,21.515,21.515,0,0,0-16.74-16.677,4.486,4.486,0,0,1-8.355-.012A21.535,21.535,0,0,0,39.147,52.248,4.489,4.489,0,1,1,36.693,52,24.016,24.016,0,0,1,49.607,35.161H38.88a4.486,4.486,0,1,1,0-2.455H55.838a4.488,4.488,0,0,1,8.593,0H81.4a4.491,4.491,0,1,1,0,2.455H70.6A23.99,23.99,0,0,1,83.508,52a4.491,4.491,0,1,1-3.961,7.6ZM35.6,55.64a2.036,2.036,0,1,0,1.882-1.256h0A2.035,2.035,0,0,0,35.6,55.64Zm45.237,0a2.036,2.036,0,1,0,1.88-1.257A2.036,2.036,0,0,0,80.842,55.642Zm3.436-20.265a2.036,2.036,0,1,0-.592-1.576,1.234,1.234,0,0,1,0,.267A2.038,2.038,0,0,0,84.278,35.376Zm-51.6-2.219A2.036,2.036,0,1,0,34.56,31.9,2.034,2.034,0,0,0,32.68,33.157Zm27.449,2.805a2.03,2.03,0,0,0,2.029-1.883l.007-.148h0a2.033,2.033,0,0,0-4.064-.07c0,.024,0,.048,0,.072s0,.038,0,.056a1.241,1.241,0,0,1,.011.151A2.03,2.03,0,0,0,60.129,35.962Zm46.748,6.783a1.228,1.228,0,1,1,0-2.455h8.984a1.228,1.228,0,1,1,0,2.455Zm0-4.492a1.227,1.227,0,1,1,0-2.453h8.984a1.227,1.227,0,1,1,0,2.453Zm-56.163-27.4a1.228,1.228,0,0,1,0-2.455H69.563a1.228,1.228,0,1,1,0,2.455Z" transform="translate(1555 5059)" fill="#fff"></path></g></svg> 