<?xml version="1.0" encoding="UTF-8"?> <svg xmlns="http://www.w3.org/2000/svg" width="300" height="186" viewBox="0 0 300 186" fill="none"><rect width="300" height="186" fill="#051C2C"></rect><path d="M171.015 85.5804C170.931 85.0944 170.81 84.6158 170.651 84.1491C170.622 84.06 170.579 83.9775 170.547 83.8872C170.414 83.5177 170.258 83.1569 170.08 82.8068C170.017 82.685 169.942 82.5711 169.874 82.4519C169.708 82.1562 169.526 81.8698 169.328 81.5942C169.227 81.4541 169.117 81.3218 169.009 81.1869C168.823 80.9564 168.629 80.7351 168.422 80.523C168.279 80.3763 168.133 80.2349 167.979 80.0961C167.788 79.9245 167.587 79.7635 167.385 79.6063C167.183 79.4492 167.012 79.3222 166.814 79.1938C166.616 79.0655 166.421 78.962 166.227 78.8507C165.999 78.7198 165.776 78.5888 165.537 78.4867C165.354 78.4042 165.16 78.3426 164.97 78.2719C164.732 78.1816 164.505 78.0716 164.258 78.0009C164.238 78.0009 164.22 78.0009 164.202 78.0009L164.182 77.993C164.174 77.9328 164.157 77.8765 164.148 77.8162C164.114 77.5831 164.071 77.3526 164.017 77.1248C163.989 77.0109 163.962 76.8982 163.929 76.7869C163.87 76.5826 163.798 76.3836 163.726 76.1872C163.654 75.9907 163.576 75.8166 163.492 75.6372C163.418 75.4826 163.345 75.3281 163.263 75.1788C163.18 75.0296 163.087 74.8816 162.994 74.7375C162.93 74.638 162.863 74.5424 162.795 74.4468C162.689 74.2975 162.583 74.1482 162.465 74.0055C162.445 73.9806 162.422 73.9597 162.402 73.9348C162.154 73.6438 161.885 73.3715 161.597 73.1203C161.493 73.0286 161.39 72.9396 161.281 72.8584C161.173 72.7772 161.043 72.6737 160.919 72.5873C160.727 72.4563 160.526 72.3254 160.324 72.2102C160.272 72.18 160.223 72.1447 160.17 72.1159C159.883 71.9632 159.587 71.8285 159.283 71.7125C159.259 71.7034 159.238 71.6903 159.215 71.6811C159.09 70.6688 158.674 69.7147 158.016 68.9348C157.359 68.155 156.489 67.5831 155.512 67.2889C154.536 66.9947 153.495 66.9908 152.516 67.2778C151.537 67.5647 150.663 68.13 150 68.9049C149.337 68.1306 148.463 67.5656 147.485 67.2786C146.507 66.9917 145.467 66.9951 144.491 67.2885C143.515 67.5819 142.645 68.1527 141.987 68.9314C141.329 69.7101 140.912 70.6631 140.786 71.6746C140.761 71.6837 140.74 71.6968 140.717 71.706C140.414 71.822 140.118 71.9567 139.831 72.1093C139.778 72.1381 139.729 72.1735 139.677 72.2036C139.473 72.3197 139.274 72.4454 139.081 72.5807C138.957 72.6672 138.838 72.7588 138.718 72.8518C138.599 72.9448 138.506 73.0273 138.403 73.1137C138.116 73.3641 137.848 73.6355 137.601 73.9256C137.58 73.9505 137.557 73.9741 137.535 73.999C137.418 74.1417 137.312 74.291 137.205 74.4403C137.136 74.5359 137.074 74.6315 137.007 74.731C136.914 74.875 136.822 75.0204 136.738 75.1723C136.655 75.3242 136.583 75.4761 136.509 75.6306C136.424 75.81 136.346 75.9921 136.275 76.1793C136.204 76.3666 136.129 76.5722 136.071 76.7817C136.039 76.8917 136.012 77.0043 135.984 77.1169C135.929 77.3448 135.886 77.5753 135.853 77.811C135.845 77.8699 135.827 77.9262 135.82 77.9865L135.799 77.9943C135.781 77.9943 135.763 77.9943 135.744 77.9943C135.497 78.065 135.269 78.175 135.032 78.2654C134.842 78.3361 134.648 78.3963 134.465 78.4801C134.225 78.5875 134.003 78.7172 133.775 78.8442C133.576 78.9555 133.382 79.0629 133.187 79.1873C132.992 79.3117 132.805 79.457 132.617 79.5998C132.43 79.7425 132.214 79.918 132.023 80.0895C131.87 80.2283 131.723 80.3698 131.579 80.5164C131.372 80.7286 131.186 80.9499 130.992 81.1804C130.884 81.3113 130.775 81.4423 130.674 81.5876C130.476 81.8633 130.294 82.1496 130.128 82.4454C130.06 82.5645 129.985 82.6785 129.922 82.8002C129.743 83.151 129.587 83.5127 129.454 83.8832C129.422 83.9697 129.38 84.0522 129.35 84.1451C129.192 84.6121 129.071 85.0906 128.987 85.5764C127.916 86.5398 127.058 87.7171 126.47 89.0325C125.882 90.3478 125.576 91.7718 125.572 93.2127C125.569 94.6535 125.867 96.0792 126.449 97.3975C127.03 98.7158 127.882 99.8976 128.948 100.866C129.177 102.603 129.884 104.243 130.99 105.601C132.096 106.96 133.557 107.985 135.212 108.561V108.585C135.248 108.941 135.308 109.294 135.392 109.642C135.417 109.746 135.445 109.85 135.472 109.953C135.549 110.231 135.641 110.505 135.747 110.773C135.799 110.904 135.857 111.035 135.916 111.166C136.016 111.383 136.124 111.597 136.242 111.804C136.322 111.934 136.403 112.076 136.49 112.208C136.609 112.391 136.737 112.566 136.871 112.732C137.004 112.898 137.154 113.08 137.307 113.247C137.432 113.384 137.563 113.515 137.7 113.639C137.814 113.747 137.926 113.853 138.047 113.954C138.281 114.152 138.526 114.337 138.781 114.508C138.866 114.564 138.954 114.614 139.043 114.666C139.299 114.824 139.564 114.966 139.837 115.093C139.888 115.117 139.936 115.144 139.989 115.166C140.346 115.324 140.714 115.455 141.09 115.559L141.113 115.567C141.502 116.555 142.178 117.403 143.054 118.002C143.93 118.601 144.966 118.924 146.027 118.929C146.782 118.927 147.528 118.762 148.213 118.446C148.899 118.129 149.508 117.669 150 117.095C150.491 117.669 151.101 118.129 151.786 118.446C152.472 118.762 153.218 118.927 153.973 118.929C155.034 118.925 156.07 118.604 156.946 118.006C157.823 117.408 158.5 116.56 158.89 115.574L158.912 115.566C159.289 115.462 159.658 115.331 160.015 115.173C160.066 115.151 160.116 115.123 160.167 115.1C160.437 114.972 160.699 114.83 160.953 114.673C161.039 114.62 161.128 114.571 161.215 114.514C161.469 114.344 161.714 114.159 161.948 113.96C162.068 113.859 162.182 113.753 162.295 113.646C162.426 113.515 162.557 113.384 162.688 113.253C162.84 113.087 162.985 112.917 163.124 112.739C163.263 112.56 163.386 112.393 163.505 112.215C163.591 112.084 163.672 111.953 163.751 111.81C163.87 111.603 163.978 111.391 164.077 111.175C164.137 111.044 164.195 110.913 164.247 110.782C164.353 110.514 164.445 110.241 164.521 109.964C164.55 109.86 164.577 109.758 164.602 109.652C164.686 109.304 164.746 108.951 164.783 108.595V108.572C166.437 107.995 167.899 106.97 169.005 105.612C170.111 104.253 170.818 102.614 171.046 100.877C172.113 99.908 172.964 98.7263 173.546 97.408C174.127 96.0896 174.426 94.664 174.422 93.2232C174.418 91.7823 174.112 90.3583 173.524 89.0429C172.936 87.7276 172.079 86.5503 171.007 85.5869L171.015 85.5804ZM146.027 116.31C145.674 116.308 145.325 116.236 145 116.098C144.675 115.96 144.381 115.758 144.135 115.506C144.265 115.385 144.37 115.238 144.442 115.075C144.513 114.912 144.551 114.736 144.551 114.557C144.551 114.21 144.413 113.877 144.167 113.631C143.922 113.386 143.589 113.248 143.241 113.248C142.725 113.246 142.211 113.163 141.72 113.004C141.572 112.961 141.421 112.923 141.28 112.873C141.138 112.824 140.986 112.742 140.842 112.673C140.673 112.592 140.508 112.502 140.347 112.403C140.235 112.333 140.127 112.255 140.021 112.177C139.852 112.053 139.69 111.919 139.536 111.776C139.446 111.692 139.36 111.607 139.274 111.514C139.131 111.36 138.997 111.199 138.873 111.03C138.796 110.924 138.717 110.819 138.646 110.707C138.546 110.544 138.455 110.376 138.373 110.203C138.306 110.072 138.234 109.932 138.178 109.788C138.121 109.644 138.075 109.47 138.028 109.308C137.976 109.14 137.932 108.969 137.897 108.797C137.869 108.611 137.849 108.423 137.84 108.235C137.827 108.078 137.799 107.925 137.799 107.764C137.809 106.661 138.152 105.587 138.783 104.682C139.414 103.777 140.303 103.084 141.335 102.693C141.653 102.566 141.909 102.32 142.047 102.007C142.186 101.694 142.196 101.339 142.077 101.018C141.957 100.698 141.716 100.437 141.406 100.291C141.096 100.146 140.741 100.128 140.418 100.24C139.204 100.703 138.118 101.451 137.254 102.421C136.389 103.392 135.771 104.556 135.451 105.815C134.345 105.303 133.396 104.505 132.702 103.503C132.008 102.502 131.595 101.333 131.504 100.117C131.491 99.9402 131.442 99.7676 131.36 99.61C131.278 99.4524 131.165 99.3132 131.028 99.2007C129.625 98.0619 128.669 96.4637 128.331 94.6887C127.993 92.9137 128.293 91.0761 129.179 89.5011C129.54 90.9476 130.241 92.2873 131.223 93.4095C132.205 94.5316 133.439 95.4039 134.825 95.9544C134.965 96.7811 135.39 97.5331 136.025 98.0806C136.66 98.6281 137.466 98.9369 138.304 98.9538C139.143 98.9707 139.961 98.6945 140.617 98.173C141.274 97.6515 141.728 96.9173 141.902 96.0969C142.075 95.2764 141.957 94.4212 141.567 93.6786C141.178 92.9361 140.541 92.3526 139.768 92.0289C138.994 91.7051 138.132 91.6613 137.33 91.9051C136.527 92.1488 135.835 92.6648 135.373 93.3642C134.202 92.8039 133.214 91.9228 132.525 90.8232C131.835 89.7236 131.472 88.4509 131.478 87.1531C131.482 86.8404 131.509 86.5284 131.557 86.2194C131.583 86.0256 131.625 85.837 131.668 85.6471C131.711 85.4573 131.75 85.2766 131.807 85.0958C131.858 84.9348 131.922 84.7802 131.984 84.6244C132.06 84.4332 132.135 84.242 132.228 84.0587C132.302 83.9147 132.387 83.7772 132.469 83.6383C132.573 83.4642 132.676 83.2913 132.794 83.1276C132.912 82.9639 133.019 82.8435 133.137 82.7047C133.255 82.5658 133.364 82.4349 133.487 82.3118C133.641 82.1573 133.809 82.0145 133.977 81.8744C134.083 81.7854 134.185 81.6937 134.296 81.6125C134.506 81.4619 134.725 81.3233 134.951 81.1974C135.041 81.145 135.129 81.0874 135.223 81.0389C135.473 80.9126 135.73 80.8019 135.993 80.7076C136.269 81.9191 136.833 83.0462 137.637 83.9934C138.441 84.9406 139.461 85.68 140.612 86.1487C140.933 86.2784 141.292 86.2757 141.611 86.1413C141.93 86.0068 142.183 85.7514 142.314 85.4311C142.444 85.1101 142.441 84.7508 142.307 84.4318C142.172 84.1128 141.917 83.86 141.597 83.7287C140.646 83.344 139.832 82.6836 139.26 81.8325C138.688 80.9813 138.383 79.9785 138.386 78.9529C138.388 78.6258 138.421 78.2995 138.484 77.9786C138.501 77.8895 138.53 77.8057 138.552 77.7167C138.606 77.4897 138.675 77.2666 138.759 77.0488C138.793 76.9637 138.834 76.8812 138.872 76.7987C138.969 76.5877 139.08 76.3833 139.204 76.1872C139.249 76.1178 139.293 76.0497 139.335 75.9816C139.477 75.7842 139.632 75.5965 139.799 75.4198C139.85 75.3674 139.896 75.3124 139.948 75.2613C140.132 75.0853 140.329 74.9229 140.537 74.7755C140.59 74.7388 140.636 74.6943 140.689 74.659C140.933 74.4983 141.19 74.3585 141.458 74.2412C141.598 74.181 141.747 74.1391 141.893 74.0893C142.421 73.9021 142.976 73.803 143.536 73.796C143.876 73.8025 144.205 73.6754 144.453 73.442C144.7 73.2086 144.847 72.8875 144.86 72.5476C144.874 72.2077 144.753 71.876 144.525 71.6236C144.297 71.3713 143.979 71.2185 143.64 71.1979C143.901 70.6558 144.338 70.2183 144.88 69.9572C145.422 69.696 146.037 69.6266 146.624 69.7603C147.21 69.894 147.734 70.2229 148.11 70.6932C148.485 71.1634 148.69 71.7472 148.69 72.349V89.7852C148.657 90.0502 148.544 90.2988 148.367 90.4989C148.136 90.7289 147.823 90.858 147.497 90.858C147.171 90.858 146.859 90.7289 146.628 90.4989C146.506 90.3773 146.362 90.2809 146.203 90.2152C146.044 90.1495 145.873 90.1157 145.701 90.1158C145.354 90.1161 145.02 90.2543 144.775 90.5002C144.529 90.7461 144.392 91.0795 144.392 91.427C144.392 91.7745 144.53 92.1077 144.776 92.3532C145.276 92.8596 145.908 93.2143 146.601 93.3765C147.294 93.5387 148.018 93.5018 148.69 93.2699V96.5437C148.648 97.0815 148.648 97.6218 148.69 98.1596V104.894C148.657 105.16 148.544 105.408 148.367 105.608C148.136 105.838 147.823 105.967 147.497 105.967C147.171 105.967 146.859 105.838 146.628 105.608C146.382 105.363 146.049 105.225 145.701 105.225C145.354 105.225 145.02 105.364 144.775 105.609C144.529 105.855 144.392 106.189 144.392 106.536C144.392 106.884 144.53 107.217 144.776 107.462C145.275 107.97 145.908 108.325 146.601 108.487C147.293 108.65 148.018 108.612 148.69 108.379V113.651C148.688 114.357 148.407 115.032 147.908 115.531C147.408 116.029 146.732 116.309 146.027 116.31ZM137.377 95.3572C137.377 95.1604 137.436 94.9679 137.545 94.8042C137.655 94.6405 137.81 94.5129 137.992 94.4376C138.174 94.3624 138.374 94.3427 138.567 94.3812C138.76 94.4197 138.938 94.5147 139.077 94.654C139.216 94.7933 139.311 94.9707 139.349 95.1639C139.387 95.357 139.367 95.5572 139.292 95.739C139.216 95.9208 139.088 96.0762 138.925 96.1854C138.761 96.2946 138.568 96.3527 138.371 96.3525C138.108 96.3518 137.855 96.2467 137.669 96.0601C137.483 95.8736 137.378 95.6209 137.377 95.3572ZM168.977 99.1981C168.84 99.3106 168.727 99.4498 168.645 99.6074C168.563 99.765 168.514 99.9376 168.501 100.115C168.41 101.33 167.996 102.499 167.302 103.5C166.608 104.502 165.66 105.3 164.554 105.812C164.234 104.553 163.615 103.389 162.751 102.419C161.886 101.448 160.801 100.7 159.587 100.238C159.264 100.125 158.909 100.143 158.599 100.289C158.289 100.434 158.048 100.695 157.928 101.016C157.808 101.336 157.819 101.691 157.958 102.004C158.096 102.317 158.352 102.564 158.67 102.691C159.881 103.14 160.892 104.007 161.521 105.135C162.15 106.263 162.356 107.579 162.102 108.845C162.084 108.938 162.051 109.025 162.029 109.115C161.97 109.361 161.895 109.602 161.804 109.838C161.767 109.928 161.72 110.013 161.673 110.1C161.572 110.322 161.455 110.537 161.325 110.743C161.272 110.824 161.213 110.901 161.157 110.979C161.017 111.173 160.865 111.358 160.7 111.532C160.628 111.608 160.555 111.68 160.479 111.751C160.313 111.904 160.138 112.047 159.955 112.178C159.855 112.251 159.754 112.325 159.648 112.39C159.484 112.492 159.315 112.584 159.14 112.666C158.999 112.736 158.859 112.807 158.711 112.864C158.563 112.922 158.417 112.957 158.268 113.002C158.081 113.06 157.892 113.109 157.7 113.148C157.386 113.208 157.067 113.24 156.748 113.244C156.4 113.244 156.067 113.382 155.822 113.628C155.576 113.873 155.438 114.206 155.438 114.554C155.439 114.732 155.476 114.908 155.548 115.071C155.619 115.234 155.724 115.381 155.855 115.502C155.486 115.877 155.014 116.134 154.499 116.24C153.984 116.347 153.449 116.297 152.961 116.099C152.474 115.901 152.057 115.562 151.763 115.126C151.469 114.69 151.311 114.176 151.309 113.65V105.146C151.383 104.52 151.401 103.888 151.363 103.259L151.346 102.683C151.338 102.624 151.326 102.567 151.309 102.51V101.462C151.644 101.564 151.991 101.618 152.34 101.623C153.375 101.621 154.367 101.207 155.098 100.474C155.22 100.352 155.316 100.208 155.382 100.049C155.448 99.8898 155.482 99.7194 155.482 99.5473C155.482 99.3753 155.449 99.2049 155.383 99.0458C155.317 98.8868 155.221 98.7423 155.099 98.6206C154.978 98.4988 154.833 98.4022 154.674 98.3363C154.515 98.2703 154.345 98.2363 154.173 98.2362C154.001 98.236 153.83 98.2698 153.671 98.3355C153.512 98.4013 153.368 98.4977 153.246 98.6193C153.038 98.8479 152.748 98.9854 152.439 99.002C152.13 99.0187 151.827 98.9132 151.595 98.7083C151.424 98.5101 151.324 98.261 151.309 97.9999V96.5856C151.322 96.3787 151.334 96.1718 151.342 95.9662C151.337 95.8933 151.326 95.8211 151.309 95.7501V90.0367C151.383 89.4109 151.401 88.7799 151.363 88.151L151.346 87.5748C151.338 87.5194 151.326 87.4647 151.309 87.4111V72.349C151.308 71.7465 151.511 71.1615 151.886 70.6899C152.261 70.2183 152.785 69.888 153.372 69.7533C153.959 69.6186 154.575 69.6874 155.118 69.9484C155.661 70.2095 156.099 70.6473 156.36 71.19C156.021 71.2106 155.703 71.3635 155.474 71.6158C155.246 71.8681 155.126 72.1998 155.14 72.5397C155.153 72.8797 155.299 73.2008 155.547 73.4341C155.794 73.6675 156.123 73.7946 156.464 73.7881C157.023 73.7945 157.577 73.8936 158.104 74.0815C158.255 74.1312 158.408 74.1757 158.551 74.2386C158.813 74.3544 159.065 74.4914 159.305 74.6485C159.373 74.693 159.436 74.748 159.496 74.7951C159.685 74.9307 159.864 75.0786 160.033 75.2378C160.109 75.3111 160.177 75.3923 160.248 75.4696C160.382 75.6139 160.508 75.7661 160.624 75.9253C160.704 76.0353 160.778 76.1505 160.849 76.2671C160.92 76.3836 161.004 76.5394 161.073 76.6796C161.15 76.8313 161.218 76.9869 161.279 77.1457C161.321 77.2584 161.352 77.3749 161.386 77.4901C161.445 77.6789 161.494 77.8709 161.531 78.065C161.551 78.1803 161.555 78.3007 161.567 78.4173C161.594 78.6144 161.61 78.8129 161.615 79.0118C161.605 79.8475 161.391 80.6681 160.991 81.4019C160.591 82.1358 160.018 82.7606 159.321 83.2219C158.813 82.5554 158.089 82.0864 157.273 81.8954C156.457 81.7044 155.6 81.8032 154.848 82.175C154.097 82.5467 153.499 83.1682 153.156 83.9329C152.813 84.6976 152.746 85.5578 152.968 86.366C153.19 87.1743 153.686 87.8802 154.371 88.3627C155.056 88.8452 155.888 89.0743 156.724 89.0107C157.56 88.947 158.347 88.5947 158.951 88.0139C159.556 87.4332 159.939 86.6604 160.036 85.8279C161.032 85.3147 161.905 84.5904 162.593 83.7054C163.281 82.8204 163.767 81.796 164.018 80.7037C164.281 80.7985 164.538 80.9091 164.788 81.035C164.881 81.0835 164.969 81.1411 165.061 81.1935C165.287 81.3193 165.505 81.4579 165.715 81.6086C165.825 81.6911 165.929 81.7828 166.034 81.8705C166.202 82.0106 166.37 82.1533 166.525 82.3079C166.648 82.4388 166.76 82.5698 166.874 82.7007C166.988 82.8317 167.11 82.977 167.217 83.1237C167.325 83.2704 167.437 83.4602 167.541 83.6344C167.625 83.7732 167.71 83.9107 167.783 84.0548C167.876 84.2381 167.951 84.4293 168.028 84.6205C168.089 84.7763 168.159 84.9308 168.205 85.0919C168.261 85.2726 168.302 85.4586 168.344 85.6432C168.385 85.8279 168.429 86.0217 168.455 86.2155C168.704 87.8419 168.352 89.5033 167.467 90.8899C166.581 92.2765 165.221 93.2937 163.641 93.7518C163.341 93.8429 163.083 94.0389 162.915 94.3042C162.747 94.5695 162.68 94.8863 162.726 95.1969C162.772 95.5076 162.928 95.7913 163.165 95.9965C163.403 96.2016 163.707 96.3145 164.021 96.3145C164.15 96.315 164.278 96.296 164.401 96.2582C165.967 95.7862 167.384 94.9147 168.512 93.7293C169.64 92.5439 170.44 91.0854 170.833 89.4971C171.719 91.0726 172.02 92.9108 171.681 94.6864C171.342 96.4621 170.386 98.0607 168.983 99.1994L168.977 99.1981ZM157.464 85.4049C157.464 85.6014 157.406 85.7935 157.297 85.9569C157.188 86.1204 157.032 86.2478 156.851 86.323C156.669 86.3983 156.47 86.4181 156.277 86.3798C156.084 86.3416 155.907 86.247 155.768 86.1082C155.629 85.9693 155.534 85.7923 155.495 85.5996C155.457 85.4069 155.476 85.2071 155.552 85.0254C155.627 84.8438 155.754 84.6885 155.917 84.5791C156.08 84.4697 156.272 84.4112 156.469 84.411C156.732 84.4113 156.985 84.5161 157.172 84.7024C157.358 84.8887 157.463 85.1413 157.464 85.4049ZM190.028 99.8476L184.012 96.5568C184.232 94.4685 184.259 92.3643 184.092 90.2711L189.786 87.7751C190.677 87.3817 191.386 86.6646 191.769 85.7687C192.153 84.8727 192.182 83.8647 191.851 82.9482L187.829 71.9037C187.493 70.9897 186.822 70.2372 185.953 69.7977C185.084 69.3581 184.081 69.2642 183.145 69.5348L176.574 71.4598C175.251 69.8275 173.78 68.3209 172.18 66.959L174.439 61.1709C174.792 60.2628 174.786 59.2548 174.424 58.3505C174.062 57.4463 173.37 56.7132 172.488 56.2995L161.834 51.3325C160.95 50.9224 159.943 50.8633 159.018 51.1672C158.092 51.4711 157.316 52.1153 156.847 52.9694L153.558 58.9853C151.47 58.7642 149.365 58.7375 147.272 58.9054L144.776 53.2116C144.382 52.3207 143.665 51.6123 142.769 51.2291C141.874 50.8459 140.866 50.8164 139.949 51.1465L128.904 55.168C127.989 55.5035 127.236 56.1738 126.796 57.0433C126.357 57.9128 126.264 58.9167 126.536 59.8522L128.461 66.4234C126.828 67.7459 125.322 69.2167 123.96 70.8168L118.179 68.5592C117.27 68.2074 116.262 68.2132 115.358 68.5753C114.454 68.9374 113.72 69.6289 113.306 70.5104L108.339 81.1647C107.93 82.0486 107.871 83.055 108.175 83.9806C108.478 84.9062 109.122 85.682 109.976 86.1513L115.992 89.4408C115.772 91.5292 115.745 93.6334 115.913 95.7265L110.219 98.2225C109.328 98.6157 108.619 99.3328 108.235 100.229C107.852 101.125 107.823 102.133 108.154 103.049L112.175 114.095C112.511 115.009 113.181 115.762 114.05 116.202C114.92 116.641 115.923 116.734 116.859 116.463L123.431 114.538C124.754 116.17 126.224 117.677 127.823 119.039L125.56 124.821C125.208 125.73 125.213 126.738 125.575 127.643C125.937 128.547 126.629 129.28 127.512 129.694L138.166 134.661C139.049 135.071 140.056 135.13 140.981 134.826C141.907 134.522 142.682 133.878 143.151 133.024L146.442 127.008C148.53 127.23 150.634 127.256 152.728 127.087L155.223 132.781C155.616 133.673 156.333 134.383 157.229 134.767C158.125 135.15 159.134 135.179 160.05 134.846L171.095 130.826C172.009 130.49 172.762 129.82 173.202 128.95C173.642 128.081 173.735 127.077 173.464 126.141L171.539 119.569C173.171 118.246 174.677 116.776 176.04 115.177L181.828 117.434C182.736 117.787 183.744 117.782 184.648 117.42C185.552 117.057 186.285 116.365 186.699 115.483L191.666 104.829C192.075 103.946 192.133 102.94 191.829 102.015C191.525 101.091 190.881 100.316 190.028 99.8476ZM189.292 103.726L184.325 114.379C184.194 114.66 183.961 114.879 183.674 114.994C183.387 115.109 183.067 115.111 182.778 114.999L176.108 112.397C175.849 112.295 175.565 112.278 175.296 112.349C175.027 112.42 174.787 112.574 174.612 112.79C173.036 114.751 171.231 116.516 169.235 118.047C169.026 118.208 168.87 118.428 168.788 118.679C168.706 118.93 168.702 119.2 168.776 119.454L170.952 126.881C171.039 127.178 171.01 127.497 170.87 127.773C170.731 128.049 170.492 128.262 170.202 128.369L159.157 132.389C158.866 132.494 158.547 132.485 158.262 132.363C157.978 132.242 157.751 132.017 157.625 131.734L154.744 125.175C154.632 124.92 154.442 124.706 154.2 124.567C153.959 124.427 153.679 124.368 153.402 124.398C150.903 124.67 148.381 124.641 145.889 124.311C145.627 124.275 145.36 124.319 145.124 124.439C144.888 124.559 144.695 124.748 144.569 124.981L140.854 131.774C140.705 132.045 140.459 132.25 140.166 132.347C139.872 132.444 139.552 132.426 139.271 132.298L128.619 127.331C128.338 127.199 128.117 126.965 128.002 126.677C127.887 126.388 127.886 126.067 128 125.777L130.602 119.108C130.704 118.849 130.721 118.565 130.65 118.295C130.58 118.026 130.425 117.787 130.209 117.611C128.249 116.038 126.484 114.235 124.951 112.242C124.791 112.033 124.571 111.876 124.32 111.794C124.069 111.712 123.799 111.707 123.545 111.781L116.117 113.952C115.821 114.039 115.502 114.01 115.226 113.871C114.949 113.732 114.736 113.493 114.63 113.202L110.61 102.158C110.505 101.867 110.514 101.547 110.635 101.263C110.757 100.978 110.982 100.751 111.264 100.625L117.824 97.7445C118.079 97.6327 118.292 97.4424 118.432 97.2012C118.571 96.9601 118.63 96.6806 118.6 96.4036C118.328 93.9048 118.358 91.3825 118.688 88.8908C118.723 88.6289 118.677 88.3626 118.557 88.127C118.438 87.8914 118.249 87.6975 118.018 87.5708L111.225 83.8557C110.954 83.707 110.749 83.461 110.652 83.1672C110.554 82.8734 110.572 82.5537 110.701 82.2725L115.668 71.6196C115.8 71.3396 116.032 71.1199 116.319 71.0049C116.607 70.89 116.927 70.8883 117.215 71.0002L123.884 73.6035C124.144 73.7046 124.429 73.7203 124.698 73.6483C124.967 73.5762 125.207 73.4201 125.381 73.2028C126.957 71.242 128.761 69.4769 130.757 67.945C130.966 67.7845 131.122 67.5642 131.205 67.3132C131.287 67.0622 131.291 66.7922 131.217 66.5386L129.048 59.1163C128.961 58.8194 128.99 58.5006 129.129 58.2245C129.269 57.9483 129.508 57.7354 129.798 57.6286L140.842 53.6084C141.133 53.5041 141.452 53.5136 141.736 53.6351C142.02 53.7566 142.248 53.9809 142.373 54.2632L145.254 60.8239C145.367 61.0781 145.558 61.2901 145.799 61.4296C146.04 61.5691 146.318 61.6289 146.595 61.6004C149.094 61.3293 151.616 61.3583 154.108 61.6868C154.37 61.7228 154.637 61.6779 154.873 61.5581C155.109 61.4382 155.302 61.2492 155.428 61.0164L159.143 54.2252C159.29 53.953 159.536 53.7472 159.83 53.6499C160.124 53.5526 160.444 53.571 160.725 53.7014L171.379 58.6684C171.659 58.8002 171.878 59.033 171.993 59.3199C172.108 59.6068 172.11 59.9266 171.998 60.2149L169.395 66.8856C169.294 67.1451 169.279 67.43 169.351 67.6989C169.423 67.9679 169.579 68.2068 169.796 68.3811C171.757 69.9569 173.522 71.7621 175.053 73.758C175.214 73.9675 175.435 74.1235 175.686 74.2055C175.937 74.2875 176.206 74.2918 176.46 74.2176L183.882 72.0478C184.179 71.9604 184.498 71.9894 184.774 72.1287C185.051 72.2681 185.264 72.5075 185.37 72.7981L189.39 83.8426C189.495 84.1335 189.486 84.4533 189.364 84.7376C189.243 85.022 189.018 85.2496 188.735 85.3748L182.175 88.2557C181.919 88.3676 181.706 88.5581 181.566 88.7995C181.427 89.041 181.368 89.3207 181.398 89.598C181.67 92.0966 181.641 94.619 181.312 97.1107C181.277 97.3727 181.323 97.639 181.442 97.8745C181.562 98.1101 181.75 98.304 181.982 98.4307L188.773 102.146C189.044 102.295 189.247 102.541 189.344 102.834C189.44 103.127 189.421 103.446 189.292 103.726ZM177.129 66.6879C176.903 66.4245 176.79 66.0819 176.817 65.7357C176.843 65.3894 177.006 65.0678 177.269 64.8415L178.872 63.4665C179.001 63.347 179.154 63.2548 179.319 63.1954C179.485 63.1361 179.661 63.1108 179.837 63.121C180.013 63.1313 180.185 63.1769 180.343 63.2552C180.5 63.3335 180.641 63.4428 180.755 63.5765C180.87 63.7103 180.956 63.8658 181.009 64.0337C181.062 64.2017 181.081 64.3786 181.064 64.5539C181.047 64.7292 180.995 64.8993 180.911 65.054C180.827 65.2087 180.712 65.3449 180.574 65.4543L178.973 66.8293C178.709 67.0554 178.367 67.1675 178.02 67.141C177.674 67.1145 177.353 66.9515 177.126 66.6879H177.129ZM186.043 63.4324C187.204 63.4314 188.329 63.0293 189.228 62.2942C190.126 61.5591 190.744 60.5362 190.975 59.3985C191.206 58.2607 191.037 57.078 190.497 56.0503C189.957 55.0227 189.078 54.2132 188.01 53.7588C186.941 53.3044 185.749 53.233 184.634 53.5567C183.519 53.8804 182.55 54.5793 181.891 55.5351C181.232 56.491 180.923 57.6452 181.017 58.8024C181.111 59.9596 181.602 61.0489 182.406 61.8859C182.877 62.3758 183.441 62.7654 184.066 63.0311C184.691 63.2969 185.364 63.4334 186.043 63.4324ZM184.367 56.6465C184.712 56.3154 185.149 56.0943 185.62 56.0109C186.091 55.9276 186.577 55.9859 187.015 56.1784C187.453 56.3709 187.825 56.689 188.082 57.0924C188.34 57.4959 188.472 57.9667 188.462 58.4452C188.452 58.9238 188.301 59.3887 188.027 59.7812C187.753 60.1737 187.369 60.4762 186.923 60.6505C186.477 60.8247 185.989 60.8629 185.522 60.7602C185.054 60.6575 184.628 60.4186 184.296 60.0735C184.075 59.8444 183.901 59.5738 183.784 59.2772C183.668 58.9806 183.611 58.6638 183.618 58.3453C183.624 58.0267 183.694 57.7126 183.823 57.421C183.951 57.1295 184.136 56.8662 184.367 56.6465ZM122.871 119.31C123.097 119.573 123.209 119.916 123.183 120.262C123.157 120.608 122.994 120.93 122.731 121.156L121.128 122.531C120.862 122.742 120.526 122.841 120.188 122.809C119.851 122.776 119.54 122.614 119.319 122.357C119.099 122.1 118.987 121.767 119.007 121.429C119.026 121.091 119.176 120.773 119.425 120.543L121.028 119.17C121.291 118.945 121.633 118.833 121.978 118.859C122.324 118.886 122.644 119.047 122.871 119.31ZM110.463 123.968C109.744 124.658 109.246 125.547 109.032 126.521C108.818 127.495 108.898 128.51 109.261 129.439C109.624 130.367 110.254 131.167 111.071 131.738C111.889 132.308 112.858 132.624 113.854 132.644C114.851 132.664 115.832 132.388 116.672 131.851C117.512 131.314 118.174 130.54 118.574 129.627C118.974 128.713 119.094 127.702 118.92 126.72C118.745 125.739 118.284 124.831 117.593 124.112C116.666 123.149 115.395 122.593 114.058 122.566C112.721 122.539 111.428 123.043 110.463 123.968ZM115.633 129.351C115.287 129.683 114.851 129.905 114.379 129.989C113.908 130.073 113.422 130.015 112.983 129.822C112.544 129.63 112.172 129.312 111.914 128.908C111.656 128.505 111.523 128.034 111.533 127.554C111.543 127.075 111.694 126.61 111.968 126.217C112.243 125.824 112.627 125.521 113.073 125.347C113.52 125.173 114.008 125.135 114.476 125.238C114.944 125.34 115.37 125.58 115.702 125.925C116.147 126.389 116.389 127.01 116.376 127.653C116.363 128.295 116.096 128.906 115.633 129.351ZM179.391 123.72C179.127 123.946 178.785 124.059 178.438 124.032C178.092 124.006 177.77 123.843 177.544 123.58L176.169 121.977C175.959 121.712 175.859 121.375 175.892 121.038C175.924 120.701 176.086 120.389 176.343 120.169C176.601 119.948 176.933 119.836 177.272 119.856C177.61 119.876 177.927 120.026 178.157 120.275L179.532 121.878C179.756 122.141 179.867 122.482 179.84 122.827C179.814 123.171 179.652 123.492 179.391 123.718V123.72ZM181.113 125.408C180.393 126.099 179.894 126.987 179.679 127.961C179.464 128.935 179.542 129.951 179.905 130.88C180.267 131.81 180.897 132.611 181.715 133.182C182.532 133.753 183.501 134.069 184.498 134.09C185.496 134.11 186.477 133.835 187.317 133.298C188.158 132.761 188.821 131.987 189.221 131.074C189.622 130.16 189.743 129.148 189.568 128.166C189.394 127.184 188.932 126.276 188.242 125.556C187.315 124.593 186.044 124.036 184.708 124.008C183.372 123.98 182.079 124.482 181.113 125.406V125.408ZM186.284 130.796C185.938 131.128 185.502 131.35 185.03 131.434C184.558 131.518 184.072 131.461 183.632 131.269C183.193 131.076 182.821 130.758 182.562 130.354C182.304 129.951 182.171 129.479 182.181 129C182.19 128.52 182.342 128.055 182.616 127.661C182.89 127.268 183.275 126.965 183.721 126.791C184.168 126.616 184.656 126.578 185.124 126.68C185.593 126.783 186.02 127.023 186.352 127.368C186.796 127.832 187.038 128.453 187.025 129.095C187.012 129.737 186.746 130.347 186.284 130.793V130.796ZM120.608 62.2801C120.738 62.1679 120.89 62.0826 121.053 62.029C121.217 61.9754 121.389 61.9546 121.561 61.9677C121.733 61.9809 121.9 62.0277 122.053 62.1056C122.207 62.1834 122.344 62.2908 122.456 62.4215L123.829 64.023C123.951 64.152 124.045 64.3042 124.105 64.4706C124.166 64.6369 124.193 64.8138 124.183 64.9907C124.174 65.1676 124.129 65.3407 124.05 65.4995C123.972 65.6584 123.862 65.7997 123.728 65.915C123.593 66.0302 123.437 66.117 123.268 66.17C123.099 66.2231 122.921 66.2413 122.745 66.2236C122.568 66.2058 122.398 66.1526 122.243 66.0669C122.088 65.9813 121.952 65.8651 121.843 65.7254L120.468 64.1226C120.243 63.8593 120.131 63.5177 120.157 63.1724C120.184 62.8271 120.346 62.5062 120.608 62.2801ZM115.397 61.9933C116.559 61.9932 117.686 61.5916 118.586 60.8565C119.486 60.1214 120.104 59.098 120.337 57.9593C120.569 56.8206 120.401 55.6367 119.86 54.6078C119.32 53.5789 118.441 52.7682 117.372 52.3129C116.303 51.8577 115.109 51.7858 113.993 52.1094C112.877 52.433 111.907 53.1323 111.247 54.0889C110.587 55.0455 110.278 56.2006 110.372 57.359C110.466 58.5173 110.957 59.6076 111.762 60.4454C112.232 60.9357 112.796 61.3256 113.421 61.5916C114.046 61.8577 114.718 61.9943 115.397 61.9933ZM113.716 55.206C114.061 54.8736 114.498 54.6512 114.97 54.5668C115.442 54.4825 115.928 54.54 116.368 54.7322C116.807 54.9244 117.179 55.2425 117.438 55.6464C117.696 56.0503 117.829 56.5217 117.82 57.0011C117.81 57.4805 117.659 57.9463 117.384 58.3396C117.11 58.7329 116.725 59.036 116.279 59.2106C115.832 59.3851 115.344 59.4233 114.875 59.3203C114.407 59.2172 113.98 58.9776 113.648 58.6317C113.426 58.4031 113.251 58.1328 113.135 57.8363C113.018 57.5399 112.961 57.2232 112.967 56.9047C112.974 56.5861 113.043 56.272 113.172 55.9804C113.3 55.6889 113.485 55.4256 113.716 55.206ZM192.504 93.9364C192.479 94.2664 192.33 94.5748 192.087 94.7995C191.845 95.0243 191.525 95.1487 191.195 95.1477C191.161 95.1477 191.128 95.1477 191.095 95.1477L188.988 94.988C188.814 94.9778 188.645 94.9332 188.489 94.8567C188.332 94.7802 188.193 94.6734 188.079 94.5425C187.964 94.4116 187.877 94.2593 187.822 94.0943C187.767 93.9294 187.746 93.7552 187.759 93.5818C187.772 93.4085 187.819 93.2394 187.899 93.0847C187.978 92.9299 188.087 92.7924 188.22 92.6802C188.353 92.568 188.506 92.4834 188.672 92.4313C188.838 92.3792 189.013 92.3607 189.186 92.3768L191.291 92.5365C191.463 92.5488 191.63 92.5948 191.784 92.6718C191.938 92.7488 192.075 92.8553 192.188 92.9853C192.3 93.1153 192.386 93.2662 192.44 93.4294C192.495 93.5926 192.516 93.7649 192.504 93.9364ZM203.594 90.5251C203.137 90.0459 202.589 89.6623 201.982 89.3964C201.375 89.1304 200.721 88.9875 200.059 88.9759C198.724 88.9576 197.436 89.4659 196.473 90.3907C195.511 91.3155 194.951 92.5824 194.916 93.9168C194.902 94.5788 195.019 95.2371 195.26 95.854C195.501 96.4708 195.861 97.0342 196.319 97.5119C196.778 97.9896 197.326 98.3722 197.933 98.638C198.539 98.9037 199.192 99.0473 199.854 99.0606H199.96C200.949 99.0602 201.915 98.7694 202.739 98.2243C203.563 97.6793 204.209 96.9041 204.597 95.995C204.984 95.0858 205.096 94.083 204.918 93.111C204.74 92.1389 204.28 91.2407 203.596 90.5277L203.594 90.5251ZM201.63 95.7632C201.166 96.2073 200.544 96.4493 199.901 96.436C199.259 96.4228 198.648 96.1554 198.202 95.6925C197.981 95.4636 197.807 95.193 197.692 94.8965C197.576 94.5999 197.521 94.2834 197.529 93.9652C197.543 93.3317 197.804 92.7288 198.257 92.2854C198.709 91.842 199.318 91.5932 199.951 91.5924H200C200.479 91.6018 200.944 91.7532 201.338 92.0273C201.731 92.3014 202.034 92.6859 202.208 93.1323C202.383 93.5786 202.421 94.0667 202.318 94.5348C202.215 95.0029 201.976 95.4312 201.63 95.7632ZM108.703 93.4663C108.356 93.4403 108.033 93.2773 107.806 93.0133C107.579 92.7493 107.466 92.4059 107.492 92.0586C107.518 91.7113 107.681 91.3885 107.945 91.1614C108.209 90.9342 108.552 90.8212 108.899 90.8473L111.005 91.0083C111.352 91.0212 111.68 91.1715 111.917 91.4261C112.153 91.6808 112.279 92.019 112.266 92.3663C112.253 92.7136 112.103 93.0416 111.848 93.2781C111.594 93.5146 111.256 93.6402 110.908 93.6274C110.875 93.6274 110.841 93.6274 110.809 93.6274L108.703 93.4663ZM100.145 86.941C98.8093 86.9173 97.5177 87.4212 96.5507 88.3435C95.8311 89.0341 95.3325 89.9226 95.118 90.8967C94.9035 91.8708 94.9827 92.8866 95.3456 93.8156C95.7086 94.7446 96.3389 95.5451 97.1569 96.1158C97.975 96.6865 98.9438 97.0018 99.9411 97.0216H100.042C101.379 97.0354 102.667 96.5173 103.622 95.5816C104.577 94.6458 105.122 93.3689 105.135 92.0317C105.149 90.6946 104.631 89.4068 103.695 88.4516C102.759 87.4964 101.482 86.9521 100.145 86.9383V86.941ZM100.042 94.4052H99.9934C99.3509 94.399 98.7372 94.1377 98.2873 93.679C97.8374 93.2202 97.5882 92.6016 97.5944 91.959C97.6007 91.3165 97.8619 90.7028 98.3206 90.2529C98.7794 89.803 99.3981 89.5537 100.041 89.56H100.092C100.734 89.5666 101.348 89.8282 101.797 90.2872C102.247 90.7462 102.496 91.365 102.489 92.0075C102.483 92.65 102.221 93.2636 101.762 93.7133C101.303 94.1629 100.684 94.4118 100.042 94.4052ZM149.062 135.503C148.716 135.477 148.394 135.315 148.168 135.051C147.941 134.788 147.829 134.446 147.855 134.099L148.015 131.994C148.047 131.652 148.212 131.337 148.474 131.116C148.736 130.895 149.075 130.785 149.417 130.811C149.759 130.837 150.077 130.996 150.303 131.254C150.529 131.511 150.645 131.848 150.626 132.19L150.466 134.296C150.441 134.626 150.292 134.934 150.049 135.159C149.806 135.384 149.487 135.508 149.157 135.507C149.129 135.507 149.095 135.506 149.062 135.503ZM149.083 137.917C147.747 137.895 146.456 138.399 145.487 139.32C144.768 140.011 144.269 140.9 144.055 141.874C143.841 142.849 143.92 143.864 144.283 144.794C144.646 145.723 145.276 146.523 146.095 147.094C146.913 147.665 147.882 147.98 148.879 148H148.985C150.304 147.986 151.566 147.456 152.499 146.522C153.432 145.589 153.962 144.327 153.975 143.008C153.988 141.688 153.483 140.416 152.569 139.464C151.655 138.513 150.405 137.957 149.086 137.917H149.083ZM150.655 144.708C150.429 144.934 150.159 145.11 149.861 145.226C149.563 145.342 149.245 145.395 148.926 145.381C148.297 145.355 147.703 145.085 147.269 144.629C146.835 144.172 146.596 143.565 146.602 142.935C146.609 142.305 146.86 141.703 147.303 141.255C147.745 140.807 148.345 140.549 148.974 140.536H149.027C149.505 140.547 149.97 140.699 150.362 140.974C150.753 141.248 151.055 141.633 151.229 142.078C151.403 142.524 151.442 143.011 151.339 143.479C151.237 143.946 150.999 144.373 150.655 144.705V144.708ZM150.932 50.497C151.278 50.5231 151.6 50.6856 151.827 50.9489C152.053 51.2121 152.166 51.5545 152.14 51.9008L151.979 54.0078C151.954 54.3378 151.805 54.6462 151.562 54.8709C151.319 55.0956 151 55.22 150.669 55.2191H150.569C150.398 55.2062 150.231 55.1596 150.077 55.082C149.924 55.0043 149.787 54.8972 149.675 54.7667C149.563 54.6363 149.477 54.4849 149.424 54.3215C149.37 54.158 149.349 53.9856 149.362 53.814L149.522 51.7083C149.534 51.5352 149.58 51.3662 149.658 51.2112C149.736 51.0562 149.844 50.9182 149.976 50.8053C150.107 50.6923 150.26 50.6067 150.425 50.5533C150.591 50.4999 150.765 50.4799 150.937 50.4944L150.932 50.497ZM150.917 48.0835H151.023C152.011 48.0831 152.977 47.7922 153.802 47.247C154.626 46.7018 155.272 45.9264 155.659 45.0171C156.046 44.1077 156.158 43.1047 155.979 42.1326C155.801 41.1604 155.341 40.2622 154.656 39.5494C154.199 39.0697 153.651 38.6857 153.043 38.4198C152.436 38.1538 151.782 38.0112 151.119 38.0002C149.791 37.9877 148.512 38.4996 147.559 39.4247C146.606 40.3499 146.057 41.6136 146.03 42.9415C146.003 44.2693 146.501 45.5542 147.416 46.5169C148.331 47.4797 149.589 48.0426 150.917 48.0835ZM149.345 41.2937C149.794 40.861 150.393 40.6192 151.016 40.6193H151.067C151.546 40.6296 152.012 40.7816 152.404 41.0563C152.797 41.3309 153.099 41.7158 153.273 42.1622C153.448 42.6087 153.485 43.0968 153.382 43.5647C153.279 44.0327 153.039 44.4596 152.694 44.7914C152.466 45.0134 152.195 45.1874 151.899 45.303C151.602 45.4187 151.286 45.4736 150.968 45.4645C150.489 45.4532 150.025 45.3005 149.633 45.0256C149.241 44.7508 148.939 44.3661 148.766 43.92C148.592 43.474 148.555 42.9865 148.658 42.5191C148.761 42.0517 149 41.6253 149.345 41.2937Z" fill="white"></path></svg> 