<?xml version="1.0" encoding="UTF-8"?> <svg xmlns="http://www.w3.org/2000/svg" width="300" height="186" viewBox="0 0 300 186" fill="none"><rect width="300" height="186" fill="#051C2C"></rect><path d="M175.264 99.5742L148.101 86.9717C147.72 86.795 147.281 86.795 146.901 86.9717L119.737 99.5742C119.226 99.8119 118.899 100.328 118.899 100.896V132.942C118.899 133.51 119.226 134.027 119.737 134.263L146.9 146.866C147.09 146.955 147.296 147 147.501 147C147.705 147 147.911 146.955 148.101 146.867L175.264 134.264C175.775 134.027 176.102 133.51 176.102 132.943V100.897C176.102 100.328 175.775 99.8119 175.264 99.5742ZM147.501 111.899L140.823 108.802L164.536 97.7996L171.214 100.898L147.501 111.899ZM133.091 105.213L156.805 94.2107L161.087 96.198L137.374 107.2L133.091 105.213ZM131.081 107.481L135.935 109.734V116.424L131.081 114.172V107.481ZM147.501 89.8949L153.354 92.6116L129.641 103.614L123.787 100.898L147.501 89.8949ZM121.777 103.166L128.202 106.146V115.104C128.202 115.672 128.529 116.189 129.04 116.425L136.772 120.013C136.963 120.101 137.168 120.146 137.373 120.146C137.644 120.146 137.915 120.069 138.15 119.916C138.562 119.648 138.812 119.187 138.812 118.691V111.069L146.061 114.432V143.277L121.777 132.009V103.166ZM148.94 143.278V114.432L173.224 103.164V132.009L148.94 143.278ZM138.682 123.446C138.439 123.98 137.918 124.294 137.373 124.294C137.172 124.294 136.968 124.252 136.773 124.161L129.041 120.573C128.319 120.238 128.002 119.375 128.333 118.644C128.665 117.914 129.519 117.594 130.242 117.929L137.974 121.516C138.696 121.854 139.013 122.717 138.682 123.446ZM138.706 71.7534V72.2649C138.706 72.8672 138.877 73.4284 139.173 73.9051C138.877 74.3804 138.706 74.9429 138.706 75.544V77.2924C138.706 78.8156 139.802 80.0825 141.239 80.3376C141.876 83.2384 144.441 85.4149 147.501 85.4149C150.56 85.4149 153.124 83.2384 153.762 80.3376C155.199 80.0837 156.295 78.8169 156.295 77.2924V75.544C156.295 74.9417 156.124 74.3804 155.828 73.9051C156.124 73.4297 156.295 72.8672 156.295 72.2649V71.7534C161.012 68.722 163.908 63.4331 163.908 57.7509C163.908 48.608 156.547 41.1687 147.501 41.1687C138.453 41.1687 131.093 48.608 131.093 57.7509C131.093 63.4331 133.989 68.7207 138.706 71.7534ZM153.416 77.2937C153.416 77.392 153.331 77.4791 153.232 77.4791H141.767C141.67 77.4791 141.584 77.3932 141.584 77.2937V75.544C141.584 75.4457 141.669 75.3586 141.767 75.3586H153.232C153.33 75.3586 153.416 75.4444 153.416 75.544V77.2937ZM147.501 82.5067C146.064 82.5067 144.826 81.6343 144.274 80.3874H150.728C150.175 81.6343 148.937 82.5067 147.501 82.5067ZM147.501 44.0782C154.96 44.0782 161.029 50.2121 161.029 57.7509C161.029 62.674 158.392 67.2386 154.146 69.664C153.694 69.9216 153.415 70.4057 153.415 70.9308V72.2661C153.415 72.3644 153.33 72.4516 153.231 72.4516H141.766C141.669 72.4516 141.583 72.3657 141.583 72.2661V70.9308C141.583 70.4069 141.303 69.9228 140.851 69.664C136.606 67.2386 133.968 62.674 133.968 57.7509C133.972 50.2108 140.04 44.0782 147.501 44.0782ZM146.061 38.8292V36.4548C146.061 35.6508 146.706 35 147.501 35C148.295 35 148.94 35.6508 148.94 36.4548V38.8292C148.94 39.6318 148.296 40.2839 147.501 40.2839C146.705 40.2839 146.061 39.6318 146.061 38.8292ZM159.722 45.3998C159.16 44.8311 159.16 43.9102 159.722 43.3428L161.383 41.664C161.944 41.0953 162.855 41.0965 163.418 41.664C163.98 42.2327 163.98 43.1536 163.418 43.7211L161.757 45.3998C161.476 45.6836 161.108 45.8254 160.74 45.8254C160.372 45.8254 160.004 45.6836 159.722 45.3998ZM164.785 57.7509C164.785 56.9483 165.429 56.2962 166.224 56.2962H168.574C169.368 56.2962 170.013 56.947 170.013 57.7509C170.013 58.5548 169.369 59.2057 168.574 59.2057H166.224C165.429 59.2057 164.785 58.5536 164.785 57.7509ZM161.757 70.102L163.418 71.7808C163.98 72.3495 163.98 73.2704 163.418 73.8379C163.137 74.1216 162.769 74.2635 162.401 74.2635C162.033 74.2635 161.665 74.1216 161.384 73.8379L159.723 72.1591C159.161 71.5904 159.161 70.6695 159.723 70.102C160.284 69.5346 161.195 69.5346 161.757 70.102ZM135.279 70.1033C135.841 70.6708 135.841 71.5916 135.279 72.1604L133.618 73.8391C133.338 74.1228 132.969 74.2647 132.601 74.2647C132.233 74.2647 131.865 74.1228 131.584 73.8391C131.023 73.2716 131.023 72.3508 131.584 71.782L133.245 70.1033C133.806 69.5346 134.717 69.5346 135.279 70.1033ZM124.989 57.7509C124.989 56.9483 125.633 56.2962 126.429 56.2962H128.778C129.572 56.2962 130.217 56.947 130.217 57.7509C130.217 58.5548 129.573 59.2057 128.778 59.2057H126.429C125.633 59.2057 124.989 58.5536 124.989 57.7509ZM131.583 43.7198C131.021 43.1524 131.021 42.2302 131.583 41.6628C132.144 41.0953 133.057 41.0953 133.618 41.6628L135.279 43.3415C135.841 43.909 135.841 44.8311 135.279 45.3986C134.999 45.6823 134.631 45.8242 134.262 45.8242C133.894 45.8242 133.526 45.6823 133.245 45.3986L131.583 43.7198ZM138.518 63.3061C138.518 66.0004 140.566 68.1918 143.081 68.1918C143.355 68.1918 143.625 68.1632 143.889 68.1122C144.495 69.5346 145.719 70.6036 147.233 70.8935C147.236 70.8935 147.237 70.8935 147.239 70.8935C147.324 70.9097 147.411 70.9184 147.499 70.9184H147.502C147.59 70.9184 147.677 70.9097 147.762 70.8935C147.764 70.8935 147.765 70.8935 147.768 70.8935C149.282 70.6036 150.506 69.5346 151.112 68.1122C151.377 68.1632 151.646 68.1918 151.92 68.1918C154.435 68.1918 156.483 66.0004 156.483 63.3061C156.483 62.9652 156.45 62.6316 156.387 62.3106C158.1 61.6062 159.321 59.8304 159.321 57.7522C159.321 55.6727 158.1 53.8981 156.387 53.1938C156.45 52.8715 156.483 52.5392 156.483 52.1982C156.483 49.504 154.437 47.3125 151.92 47.3125C151.646 47.3125 151.376 47.3412 151.112 47.3922C150.521 46.0021 149.338 44.9531 147.87 44.6357C147.839 44.627 147.808 44.6196 147.778 44.6133C147.774 44.6133 147.771 44.6121 147.768 44.6108C147.759 44.6096 147.752 44.6084 147.743 44.6071C147.707 44.6009 147.67 44.5959 147.635 44.5922C147.62 44.5909 147.605 44.5897 147.59 44.5897C147.56 44.5872 147.528 44.586 147.496 44.586C147.475 44.586 147.452 44.5872 147.432 44.5884C147.407 44.5897 147.382 44.5909 147.358 44.5934C147.329 44.5959 147.302 44.6009 147.275 44.6046C147.262 44.6071 147.247 44.6084 147.233 44.6108C147.228 44.6121 147.222 44.6133 147.217 44.6146C147.194 44.6196 147.171 44.6258 147.147 44.632C145.672 44.9456 144.482 45.9972 143.889 47.3922C143.624 47.3412 143.355 47.3125 143.081 47.3125C140.566 47.3125 138.518 49.504 138.518 52.1982C138.518 52.5392 138.551 52.8727 138.614 53.1938C136.901 53.8981 135.68 55.674 135.68 57.7522C135.68 59.8316 136.901 61.6062 138.614 62.3106C138.551 62.6316 138.518 62.9652 138.518 63.3061ZM140.005 55.7959C140.818 56.5924 141.895 57.0827 143.08 57.0827C143.874 57.0827 144.519 56.4318 144.519 55.6279C144.519 54.824 143.875 54.1732 143.08 54.1732C142.152 54.1732 141.396 53.2859 141.396 52.1957C141.396 51.1056 142.152 50.2183 143.08 50.2183C143.67 50.2183 144.207 50.573 144.518 51.1678C144.89 51.8784 145.761 52.1497 146.464 51.7739C147.167 51.398 147.435 50.5182 147.063 49.8076C146.884 49.4642 146.667 49.1531 146.423 48.8718C146.577 48.2583 146.98 47.7556 147.501 47.5465C148.021 47.7556 148.424 48.2583 148.578 48.8718C148.334 49.1531 148.117 49.4654 147.938 49.8076C147.566 50.5182 147.834 51.398 148.537 51.7739C149.24 52.1497 150.111 51.8784 150.483 51.1678C150.794 50.573 151.331 50.2183 151.921 50.2183C152.849 50.2183 153.605 51.1056 153.605 52.1957C153.605 53.2859 152.849 54.1732 151.921 54.1732C151.127 54.1732 150.482 54.824 150.482 55.6279C150.482 56.4318 151.126 57.0827 151.921 57.0827C153.107 57.0827 154.184 56.5924 154.996 55.7959C155.812 55.9316 156.444 56.7554 156.444 57.7509C156.444 58.7465 155.813 59.5703 154.996 59.706C154.183 58.9095 153.106 58.4192 151.921 58.4192C151.127 58.4192 150.482 59.07 150.482 59.874C150.482 60.6766 151.126 61.3287 151.921 61.3287C152.849 61.3287 153.605 62.216 153.605 63.3061C153.605 64.3963 152.849 65.2836 151.921 65.2836C151.331 65.2836 150.794 64.9289 150.483 64.334C150.111 63.6235 149.24 63.3522 148.537 63.728C147.834 64.1038 147.566 64.9836 147.938 65.6942C148.117 66.0377 148.334 66.3488 148.578 66.63C148.424 67.2436 148.021 67.7463 147.501 67.9554C146.98 67.7463 146.577 67.2436 146.423 66.63C146.667 66.3488 146.884 66.0364 147.063 65.6942C147.435 64.9836 147.167 64.1038 146.464 63.728C145.762 63.3522 144.89 63.6235 144.518 64.334C144.207 64.9289 143.67 65.2836 143.08 65.2836C142.152 65.2836 141.396 64.3963 141.396 63.3061C141.396 62.216 142.152 61.3287 143.08 61.3287C143.874 61.3287 144.519 60.6779 144.519 59.874C144.519 59.0713 143.875 58.4192 143.08 58.4192C141.894 58.4192 140.817 58.9095 140.005 59.706C139.189 59.5703 138.557 58.7465 138.557 57.7509C138.557 56.7554 139.189 55.9316 140.005 55.7959ZM146.061 60.1291V55.3728C146.061 54.5701 146.705 53.918 147.501 53.918C148.296 53.918 148.94 54.5689 148.94 55.3728V60.1291C148.94 60.9317 148.296 61.5838 147.501 61.5838C146.705 61.5838 146.061 60.9317 146.061 60.1291ZM201.84 86.5387C201.592 87.0215 201.1 87.3239 200.561 87.3239H195.978V132.943C195.978 133.745 195.334 134.398 194.539 134.398C193.745 134.398 193.1 133.747 193.1 132.943V85.8704C193.1 85.0677 193.744 84.4156 194.539 84.4156H197.782L188.2 70.7106L178.616 84.4156H181.86C182.654 84.4156 183.299 85.0665 183.299 85.8704V132.944C183.299 133.747 182.655 134.399 181.86 134.399C181.064 134.399 180.42 133.748 180.42 132.944V87.3239H175.837C175.299 87.3239 174.807 87.0203 174.559 86.5387C174.312 86.0558 174.351 85.4747 174.661 85.0304L187.023 67.3493C187.293 66.9636 187.731 66.7346 188.199 66.7346C188.667 66.7346 189.105 66.9636 189.375 67.3493L201.736 85.0304C202.046 85.4747 202.086 86.0558 201.84 86.5387ZM119.164 87.3239H114.581V132.943C114.581 133.745 113.937 134.398 113.141 134.398C112.347 134.398 111.702 133.747 111.702 132.943V85.8704C111.702 85.0677 112.346 84.4156 113.141 84.4156H116.383L106.801 70.7106L97.2187 84.4156H100.462C101.256 84.4156 101.901 85.0665 101.901 85.8704V132.944C101.901 133.747 101.258 134.399 100.462 134.399C99.6666 134.399 99.0226 133.747 99.0226 132.943V87.3239H94.4396C93.9015 87.3239 93.4089 87.0203 93.1614 86.5387C92.9139 86.0558 92.9533 85.4747 93.2636 85.0304L105.625 67.3493C105.895 66.9636 106.333 66.7346 106.801 66.7346C107.269 66.7346 107.707 66.9636 107.977 67.3493L120.338 85.0304C120.649 85.4747 120.688 86.0558 120.441 86.5387C120.194 87.0215 119.702 87.3239 119.164 87.3239Z" fill="white"></path></svg> 