<?xml version="1.0" encoding="UTF-8"?> <svg xmlns="http://www.w3.org/2000/svg" width="300" height="186" viewBox="0 0 300 186" fill="none"><rect width="300" height="186" fill="#051C2C"></rect><path fill-rule="evenodd" clip-rule="evenodd" d="M193.916 40.625H186.649C185.645 40.625 184.832 41.438 184.832 42.4418V47.8922H115.793V42.4418C115.793 41.438 114.98 40.625 113.976 40.625H106.709C101.699 40.625 97.625 44.6992 97.625 49.7091V107.847C97.625 112.857 101.699 116.931 106.709 116.931H117.61C118.614 116.931 119.427 116.118 119.427 115.114C119.427 114.11 118.614 113.297 117.61 113.297H106.709C103.702 113.297 101.259 110.854 101.259 107.847C101.259 104.84 103.702 102.397 106.709 102.397H113.976C114.98 102.397 115.793 101.584 115.793 100.58V51.5253H184.832V100.58C184.832 101.584 185.645 102.397 186.649 102.397H193.916C196.923 102.397 199.366 104.84 199.366 107.847C199.366 110.854 196.923 113.297 193.916 113.297H183.015C182.011 113.297 181.198 114.11 181.198 115.114C181.198 116.118 182.011 116.931 183.015 116.931H193.916C198.926 116.931 203 112.857 203 107.847V49.7091C203 44.6992 198.926 40.625 193.916 40.625ZM112.16 98.7629H106.71C104.666 98.7629 102.776 99.4397 101.259 100.584V49.7089C101.259 46.7022 103.703 44.2585 106.71 44.2585H112.16V98.7629ZM199.367 100.584C197.85 99.4397 195.96 98.7629 193.917 98.7629H188.466V44.2586H193.917C196.923 44.2586 199.367 46.7023 199.367 49.7091V100.584Z" fill="white"></path><path fill-rule="evenodd" clip-rule="evenodd" d="M150.313 102.396C155.322 102.396 159.397 98.3218 159.397 93.312C159.397 88.3021 155.322 84.2279 150.313 84.2279C145.303 84.2279 141.229 88.3021 141.229 93.312C141.229 98.3218 145.303 102.396 150.313 102.396ZM150.313 87.8615C153.319 87.8615 155.763 90.3052 155.763 93.312C155.763 96.3187 153.319 98.7624 150.313 98.7624C147.306 98.7624 144.862 96.3187 144.862 93.312C144.862 90.3052 147.306 87.8615 150.313 87.8615Z" fill="white"></path><path fill-rule="evenodd" clip-rule="evenodd" d="M172.114 135.1C170.665 135.1 169.257 135.454 167.967 136.131C167.527 135.804 167.045 135.554 166.537 135.377C165.705 130.517 160.814 126.942 155.767 128.028V124.194H161.218C162.222 124.194 163.035 123.381 163.035 122.377V116.927H164.851C165.855 116.927 166.668 116.114 166.668 115.11V113.47C169.593 113.888 172.155 115.61 173.504 118.312L174.126 119.552C174.44 120.179 175.076 120.556 175.752 120.556C175.889 120.556 176.029 120.542 176.17 120.506C176.988 120.315 177.569 119.58 177.569 118.739V104.205C177.569 97.8142 172.814 92.5633 166.668 91.6691V87.7493C166.668 77.0348 160.714 67.4011 151.13 62.6093C150.622 62.355 150.017 62.355 149.504 62.6093C139.921 67.4012 133.966 77.0345 133.966 87.7493V91.6691C127.821 92.5594 123.065 97.8145 123.065 104.205V118.739C123.065 119.58 123.647 120.315 124.464 120.506C124.601 120.542 124.741 120.556 124.882 120.556C125.559 120.556 126.195 120.175 126.508 119.552L127.13 118.312C128.48 115.61 131.046 113.888 133.966 113.47V115.11C133.966 116.114 134.779 116.927 135.783 116.927H137.6V122.377C137.6 123.381 138.413 124.194 139.417 124.194H144.867V128.028C139.835 126.929 134.925 130.517 134.098 135.377C133.589 135.549 133.108 135.804 132.667 136.131C131.377 135.454 129.965 135.1 128.52 135.1C123.51 135.1 119.436 139.174 119.436 144.184C119.436 145.188 120.249 146.001 121.253 146.001H143.055C144.059 146.001 144.872 145.188 144.872 144.184C144.872 143.18 144.059 142.367 143.055 142.367H123.379C124.505 139.192 128.811 137.584 131.813 139.887C132.204 140.182 132.694 140.314 133.185 140.237C133.671 140.164 134.107 139.905 134.393 139.501C134.602 139.215 135.056 138.729 135.787 138.729C136.791 138.729 137.604 137.916 137.604 136.912C137.604 132.997 141.815 129.994 145.794 132.243C146.357 132.565 147.043 132.561 147.606 132.234C148.165 131.911 148.505 131.312 148.505 130.667V124.199H152.139V130.667C152.139 131.312 152.484 131.911 153.038 132.234C153.597 132.565 154.283 132.565 154.85 132.243C158.825 129.985 163.035 132.992 163.04 136.912C163.04 137.916 163.853 138.729 164.857 138.729C165.588 138.729 166.046 139.21 166.251 139.501C166.537 139.901 166.973 140.164 167.459 140.237C167.945 140.309 168.436 140.182 168.831 139.887C171.838 137.593 176.139 139.197 177.265 142.367H157.589C156.585 142.367 155.772 143.18 155.772 144.184C155.772 145.188 156.585 146.001 157.589 146.001H179.391C180.395 146.001 181.208 145.188 181.208 144.184C181.208 139.174 177.134 135.1 172.124 135.1H172.114ZM173.931 104.214V112.958C171.942 111.15 169.412 110.001 166.664 109.729V95.3126C170.806 96.1575 173.931 99.8315 173.931 104.214ZM137.595 87.7591C137.595 78.7341 142.446 70.5898 150.313 66.2934C158.18 70.5902 163.031 78.7338 163.031 87.7591V113.299H137.596L137.595 87.7591ZM126.694 112.958V104.215C126.694 99.8275 129.819 96.1575 133.961 95.3128V109.729C131.213 110.001 128.683 111.146 126.694 112.958ZM146.679 120.566H141.229V116.933H159.397V120.566H146.679Z" fill="white"></path><path d="M152.129 144.183C152.129 146.604 148.495 146.604 148.495 144.183C148.495 141.762 152.129 141.762 152.129 144.183Z" fill="white"></path></svg> 