<?xml version="1.0" encoding="UTF-8"?> <svg xmlns="http://www.w3.org/2000/svg" width="300" height="186" viewBox="0 0 300 186" fill="none"><rect width="300" height="186" fill="#051C2C"></rect><path fill-rule="evenodd" clip-rule="evenodd" d="M140.838 73.0431V103.394H181.601V83.3665H146.365C146.081 83.3667 145.804 83.2843 145.566 83.1296C145.329 82.9748 145.141 82.7543 145.027 82.4951L140.838 73.046V73.0431ZM105.923 133.139C106.28 133.139 106.629 133.245 106.926 133.443C107.223 133.641 107.454 133.922 107.591 134.252C107.728 134.581 107.763 134.943 107.694 135.293C107.624 135.642 107.452 135.963 107.199 136.215C106.946 136.467 106.625 136.638 106.274 136.708C105.924 136.777 105.561 136.741 105.231 136.605C104.901 136.468 104.619 136.237 104.421 135.94C104.223 135.644 104.117 135.296 104.117 134.939C104.117 134.703 104.164 134.469 104.255 134.25C104.346 134.032 104.479 133.833 104.646 133.666C104.814 133.499 105.013 133.366 105.232 133.276C105.451 133.185 105.686 133.139 105.923 133.139ZM197.918 113.305L180.51 118.92C180.494 118.344 180.404 117.773 180.241 117.22C179.141 113.57 173.826 111.965 170.441 112.137C159.565 112.676 156.706 111.462 153.659 110.168C150.025 108.544 146.102 107.666 142.122 107.588C137.912 107.24 134.69 108.878 130.295 110.537C126.971 111.787 122.721 113.858 119.824 113.858H119.524V113.245C119.523 112.26 119.131 111.316 118.433 110.62C117.736 109.924 116.79 109.532 115.804 109.531H101.722C100.735 109.532 99.789 109.924 99.0913 110.62C98.3936 111.316 98.0011 112.26 98 113.245V140.287C98.0011 141.271 98.3936 142.215 99.0913 142.911C99.789 143.607 100.735 143.999 101.722 144H115.798C116.784 143.998 117.73 143.607 118.427 142.911C119.125 142.214 119.517 141.271 119.518 140.287V139.474L120.141 139.385C129.131 138.104 133.817 137.436 142.988 139.07C145.441 139.515 147.868 140.093 150.259 140.801C156.13 142.468 158.572 143.162 170.179 138.035L204.277 122.976C205.183 122.679 205.997 122.153 206.641 121.45C207.284 120.747 207.735 119.891 207.95 118.963C208.579 114.982 203.208 111.598 197.918 113.305ZM116.596 138.452V113.239C116.596 113.029 116.512 112.828 116.363 112.68C116.215 112.531 116.014 112.448 115.804 112.446H101.722C101.511 112.448 101.31 112.531 101.161 112.68C101.012 112.828 100.928 113.029 100.927 113.239V140.287C100.928 140.496 101.012 140.697 101.161 140.846C101.31 140.994 101.511 141.078 101.722 141.079H115.798C116.008 141.078 116.209 140.994 116.358 140.846C116.506 140.697 116.59 140.496 116.591 140.287V138.452H116.596ZM204.086 116.782C205.751 118.059 205.242 119.362 203.098 120.306L169.002 135.365C158.357 140.067 156.218 139.458 151.059 137.995C148.573 137.258 146.049 136.656 143.498 136.193C133.883 134.473 129.037 135.173 119.735 136.499L119.524 136.529L119.539 116.773C122.646 116.773 125.375 115.648 128.768 114.272L133.423 112.452C136.827 111.132 139.077 110.259 141.827 110.486H141.939C145.587 110.553 149.183 111.354 152.514 112.839C155.881 114.272 159.036 115.609 170.579 115.036C172.637 114.934 176.268 115.839 177.304 117.708C177.599 118.395 177.664 119.159 177.488 119.886L165.885 123.388C164.819 123.713 163.71 123.879 162.595 123.879L155.394 123.951C155.015 123.965 154.656 124.126 154.394 124.4C154.132 124.674 153.987 125.039 153.99 125.417C153.993 125.796 154.144 126.158 154.41 126.428C154.676 126.698 155.037 126.853 155.417 126.862L162.618 126.789C164.008 126.793 165.39 126.589 166.719 126.184L178.354 122.678C178.41 122.661 178.466 122.642 178.52 122.622L198.81 116.078C199.682 115.767 200.616 115.669 201.534 115.791C202.451 115.913 203.326 116.253 204.086 116.782ZM137.217 66.7284L124.785 60.8178L119.973 67.9624L130.413 76.8282L137.217 66.7284ZM130.753 60.4222H136.05C136.144 60.6057 136.275 60.7674 136.435 60.8966C136.596 61.0258 136.782 61.1196 136.981 61.1718L141.417 62.3341L140.045 64.6774H139.7L130.753 60.4222ZM137.909 70.9205V102.011L125.743 93.2987V76.6734L129.765 80.0945C129.922 80.2267 130.105 80.3244 130.302 80.3813C130.499 80.4382 130.706 80.453 130.909 80.4247C131.112 80.3964 131.307 80.3257 131.482 80.2172C131.656 80.1087 131.805 79.9648 131.919 79.795L137.902 70.909L137.909 70.9205ZM122.816 74.1911L117.162 69.3913C116.863 69.1677 116.662 68.8383 116.599 68.4709C116.536 68.1035 116.617 67.7261 116.825 67.4163L123.001 58.2437C123.128 58.0164 123.313 57.8271 123.538 57.6953C123.763 57.5635 124.019 57.4941 124.279 57.4942H135.889V54.4687C135.89 54.1288 136.01 53.7999 136.227 53.5384C136.445 53.2768 136.747 53.099 137.082 53.0354L141.418 51.8989L139.104 47.9432C138.941 47.6645 138.876 47.3401 138.917 47.0202C138.958 46.7004 139.104 46.4032 139.332 46.1747L143.088 42.4325C143.322 42.1988 143.629 42.0512 143.958 42.014C144.287 41.9767 144.619 42.0521 144.9 42.2276L148.822 44.5121L149.987 40.0864C150.069 39.7752 150.252 39.4998 150.508 39.3033C150.763 39.1068 151.077 39.0001 151.399 39H156.704C157.044 39.0007 157.374 39.1196 157.636 39.3364C157.898 39.5533 158.076 39.8544 158.14 40.1881L159.279 44.515L163.239 42.2075C163.518 42.0446 163.843 41.9786 164.164 42.0198C164.485 42.0611 164.783 42.2072 165.011 42.4354L168.763 46.1775C168.998 46.4113 169.145 46.7175 169.183 47.046C169.22 47.3746 169.145 47.7061 168.969 47.9862L166.679 51.8989L171.113 53.0612C171.425 53.1432 171.702 53.326 171.899 53.5811C172.096 53.8363 172.203 54.1493 172.203 54.4715V59.3444L183.694 64.8165C184.027 64.9743 184.287 65.2518 184.424 65.5933L191.361 81.2396C191.475 81.4624 191.53 81.7106 191.521 81.9606C191.511 82.2106 191.437 82.4539 191.306 82.6672C191.175 82.8806 190.992 83.0568 190.773 83.179C190.554 83.3012 190.308 83.3653 190.057 83.3651H184.528V104.849C184.528 105.236 184.374 105.608 184.1 105.882C183.825 106.156 183.453 106.309 183.065 106.309H139.373C139.023 106.31 138.685 106.185 138.42 105.958L123.533 95.2994C123.314 95.1702 123.132 94.9864 123.006 94.766C122.881 94.5456 122.814 94.2962 122.814 94.0425L122.816 74.1911ZM176.601 64.676L169.906 61.4871L166.678 62.3327L168.048 64.676H176.601ZM164.659 64.676L163.753 63.1281C163.24 62.251 163.835 61.6276 164.147 60.6917C164.22 60.4548 164.352 60.2405 164.531 60.0689C164.711 59.8974 164.931 59.7743 165.171 59.7113L169.274 58.6364V55.5909L165.171 54.516C164.177 54.2551 164.165 53.388 163.734 52.551C163.61 52.3292 163.546 52.0788 163.548 51.8246C163.551 51.5704 163.62 51.3213 163.749 51.102L165.888 47.4459L163.733 45.2961L160.067 47.433C159.188 47.9432 158.564 47.3513 157.626 47.0403C157.389 46.967 157.174 46.8348 157.003 46.656C156.831 46.4772 156.708 46.2578 156.645 46.0184L155.567 41.9238H152.521L151.442 46.0184C151.179 47.0102 150.31 47.0217 149.473 47.4517C149.251 47.5758 149 47.6398 148.745 47.6373C148.49 47.6348 148.241 47.5658 148.021 47.4373L144.355 45.3018L142.201 47.4517L144.341 51.1078C144.854 51.9849 144.259 52.6083 143.947 53.5442C143.874 53.7808 143.742 53.9949 143.562 54.1662C143.383 54.3374 143.163 54.4603 142.923 54.5231L138.821 55.598V58.645L142.923 59.7199C143.917 59.9822 143.929 60.8479 144.36 61.6863C144.484 61.9078 144.548 62.1579 144.546 62.4118C144.544 62.6657 144.475 62.9146 144.347 63.1339L143.442 64.6817L164.659 64.676ZM182.114 67.5969L187.811 80.4442H147.316L141.619 67.5969H182.114ZM160.812 59.4175C161.171 58.3643 161.279 57.2416 161.126 56.1395C160.973 55.0373 160.563 53.9861 159.93 53.0701C159.297 52.1541 158.458 51.3987 157.48 50.8642C156.502 50.3298 155.412 50.0311 154.297 49.9922C153.183 49.9533 152.075 50.1752 151.062 50.6402C150.048 51.1051 149.158 51.8002 148.463 52.6698C147.767 53.5395 147.285 54.5595 147.055 55.6483C146.825 56.7371 146.854 57.8645 147.139 58.9403C147.125 59.2767 147.237 59.6064 147.453 59.8647C148.014 61.1993 148.967 62.3323 150.188 63.1135C151.408 63.8947 152.838 64.2871 154.287 64.2386C155.736 64.1901 157.136 63.703 158.302 62.8419C159.467 61.9809 160.342 60.7866 160.812 59.4175ZM156.658 60.4208H151.436C152.18 61.0056 153.1 61.3236 154.047 61.3236C154.994 61.3236 155.914 61.0056 156.658 60.4208ZM149.846 57.4985H158.248C158.302 56.9155 158.233 56.3276 158.047 55.7725C157.86 55.2174 157.56 54.7072 157.164 54.2745C156.769 53.8419 156.288 53.4963 155.751 53.2598C155.214 53.0233 154.634 52.9012 154.047 52.9012C153.46 52.9012 152.88 53.0233 152.343 53.2598C151.806 53.4963 151.325 53.8419 150.93 54.2745C150.534 54.7072 150.234 55.2174 150.047 55.7725C149.861 56.3276 149.792 56.9155 149.846 57.4985Z" fill="white"></path></svg> 