<?xml version="1.0" encoding="UTF-8"?> <svg xmlns="http://www.w3.org/2000/svg" width="300" height="186" viewBox="0 0 300 186" fill="none"><rect width="300" height="186" fill="#051C2C"></rect><path d="M188.8 41H126.4C125.022 41.0015 123.7 41.5499 122.725 42.5247C121.75 43.4996 121.202 44.8213 121.2 46.2V72.1998H124.667V53.1332C124.667 52.6737 124.85 52.2331 125.175 51.9082C125.5 51.5832 125.941 51.4004 126.4 51.3999H178.4V58.3332C178.401 59.7118 178.95 61.0336 179.925 62.0084C180.899 62.9833 182.221 63.5316 183.6 63.5332H190.533V125.933C190.533 126.392 190.35 126.833 190.025 127.158C189.7 127.483 189.259 127.666 188.8 127.666H154.133V131.133H188.8C190.178 131.131 191.5 130.583 192.475 129.608C193.45 128.633 193.998 127.311 194 125.933V46.2C193.998 44.8213 193.45 43.4996 192.475 42.5247C191.5 41.5499 190.178 41.0015 188.8 41ZM183.6 60.0665C183.14 60.066 182.7 59.8832 182.375 59.5583C182.05 59.2333 181.867 58.7928 181.866 58.3332V53.8513L188.082 60.0665H183.6ZM190.533 57.6154L181.359 48.4409C181.198 48.28 181.007 48.1523 180.796 48.0652C180.586 47.9781 180.361 47.9333 180.133 47.9333H126.4C125.81 47.933 125.223 48.0339 124.667 48.2314V46.2C124.667 45.7404 124.85 45.2998 125.175 44.9749C125.5 44.6499 125.941 44.4672 126.4 44.4666H188.8C189.259 44.4672 189.7 44.6499 190.025 44.9749C190.35 45.2998 190.533 45.7404 190.533 46.2V57.6154Z" fill="white" stroke="#051C2C"></path><path d="M187.066 77.3998H140.267V80.8664H187.066V77.3998Z" fill="white" stroke="#051C2C"></path><path d="M128.133 73.933H131.6V73.2709L136.8 70.6709L142.958 73.7499C143.283 73.9126 143.652 73.9687 144.011 73.9104C144.37 73.8521 144.702 73.6822 144.959 73.4249L152.4 65.9842L159.841 73.4253C160.136 73.7204 160.527 73.8991 160.944 73.9287C161.36 73.9582 161.773 73.8367 162.106 73.5863L168 69.1664L173.893 73.5863C174.227 73.8367 174.64 73.9582 175.056 73.9287C175.472 73.8991 175.864 73.7204 176.159 73.4253L179.945 69.6385L183.946 74.973L186.72 72.893L181.52 65.9597C181.371 65.761 181.181 65.5967 180.963 65.4778C180.745 65.359 180.504 65.2883 180.256 65.2707C180.008 65.2531 179.759 65.2889 179.527 65.3758C179.294 65.4626 179.083 65.5984 178.907 65.774L174.77 69.911L169.04 65.6131C168.74 65.388 168.375 65.2664 168 65.2664C167.625 65.2664 167.26 65.388 166.96 65.6131L161.229 69.911L153.625 62.3074C153.465 62.1464 153.273 62.0187 153.063 61.9316C152.853 61.8445 152.627 61.7997 152.4 61.7997C152.172 61.7997 151.947 61.8445 151.736 61.9316C151.526 62.0187 151.335 62.1464 151.174 62.3074L143.391 70.0907L137.575 67.1828C137.334 67.0624 137.069 66.9998 136.8 66.9998C136.531 66.9998 136.265 67.0624 136.025 67.1828L131.6 69.3952V61.7997H128.133V73.933Z" fill="white" stroke="#051C2C"></path><path d="M131.6 54.8666H128.133V58.3332H131.6V54.8666Z" fill="white" stroke="#051C2C"></path><path d="M138.533 54.8666H135.066V58.3332H138.533V54.8666Z" fill="white" stroke="#051C2C"></path><path d="M145.467 54.8666H142V58.3332H145.467V54.8666Z" fill="white" stroke="#051C2C"></path><path d="M157.599 84.333C156.079 84.336 154.585 84.7375 153.268 85.4976C151.951 86.2577 150.857 87.3498 150.093 88.665L153.094 90.4009C153.716 89.3292 154.698 88.5134 155.866 88.0991V92.9996C155.866 93.3747 155.988 93.7396 156.213 94.0396L159.149 97.9543C158.464 98.1702 157.742 98.2418 157.028 98.1644C156.314 98.0871 155.624 97.8625 155.001 97.5049L153.265 100.506C154.416 101.17 155.705 101.561 157.031 101.648C158.357 101.735 159.686 101.515 160.914 101.006C162.142 100.498 163.237 99.7134 164.113 98.7141C164.99 97.7147 165.624 96.5272 165.969 95.2433C166.313 93.9594 166.357 92.6135 166.098 91.3098C165.838 90.0061 165.283 88.7794 164.474 87.7248C163.665 86.6701 162.624 85.8156 161.432 85.2275C160.24 84.6394 158.929 84.3333 157.599 84.333ZM161.918 95.8691L159.333 92.4218V88.0978C160.346 88.4572 161.223 89.1213 161.843 89.9989C162.464 90.8765 162.798 91.9247 162.799 92.9996C162.8 94.0229 162.493 95.0228 161.918 95.8691Z" fill="white" stroke="#051C2C"></path><path d="M185.312 87.8129C184.513 86.7323 183.471 85.8546 182.27 85.2502C181.069 84.6458 179.744 84.3316 178.4 84.333C176.685 84.333 175.01 84.8413 173.585 85.7936C172.159 86.7459 171.049 88.0994 170.393 89.6831C169.737 91.2667 169.565 93.0092 169.899 94.6904C170.234 96.3715 171.059 97.9158 172.271 99.1278C173.483 100.34 175.028 101.165 176.709 101.5C178.39 101.834 180.132 101.662 181.716 101.007C183.3 100.351 184.653 99.2397 185.606 97.8145C186.558 96.3893 187.066 94.7137 187.066 92.9996C187.064 91.1256 186.448 89.3039 185.312 87.8129ZM178.4 87.7997C179.423 87.7985 180.423 88.1056 181.269 88.6808L177.822 91.2663H173.498C173.857 90.2533 174.521 89.3762 175.399 88.7556C176.276 88.1349 177.325 87.801 178.4 87.7997ZM178.4 98.1996C177.324 98.1983 176.276 97.8645 175.398 97.2438C174.52 96.6231 173.856 95.7461 173.497 94.7329H178.4C178.775 94.7329 179.139 94.6113 179.44 94.3863L183.354 91.4502C183.517 91.9506 183.6 92.4735 183.599 92.9996C183.598 94.3783 183.05 95.7 182.075 96.6748C181.1 97.6497 179.778 98.198 178.4 98.1996Z" fill="white" stroke="#051C2C"></path><path d="M166.266 112.066H154.133V115.533H166.266V112.066Z" fill="white" stroke="#051C2C"></path><path d="M166.266 118.999H154.133V122.466H166.266V118.999Z" fill="white" stroke="#051C2C"></path><path d="M159.333 105.133H154.133V108.599H159.333V105.133Z" fill="white" stroke="#051C2C"></path><path d="M166.266 105.133H162.8V108.599H166.266V105.133Z" fill="white" stroke="#051C2C"></path><path d="M187.066 118.999H169.733V122.466H187.066V118.999Z" fill="white" stroke="#051C2C"></path><path d="M187.066 105.133H169.733V108.599H187.066V105.133Z" fill="white" stroke="#051C2C"></path><path d="M187.066 112.066H183.6V115.533H187.066V112.066Z" fill="white" stroke="#051C2C"></path><path d="M180.133 112.066H169.733V115.533H180.133V112.066Z" fill="white" stroke="#051C2C"></path><path d="M91.7334 124.199H98.6667V134.599C98.6698 137.357 99.7666 140 101.716 141.95C103.666 143.899 106.309 144.996 109.067 144.999H148.933C149.393 144.999 149.834 144.817 150.159 144.492C150.484 144.167 150.666 143.726 150.666 143.266V105.802C150.666 98.7542 148.045 91.958 143.313 86.7346C138.581 81.5112 132.076 78.2337 125.062 77.5392C118.048 76.8447 111.027 78.7827 105.362 82.9767C99.6979 87.1707 95.7951 93.3209 94.4125 100.232L90.0337 122.126C89.9834 122.378 89.9895 122.637 90.0516 122.886C90.1137 123.135 90.2303 123.367 90.3929 123.565C90.5555 123.763 90.7601 123.923 90.9919 124.033C91.2237 124.143 91.4769 124.199 91.7334 124.199ZM122.264 80.8664C125.538 80.8662 128.781 81.511 131.807 82.7641C134.832 84.0172 137.581 85.854 139.897 88.1695C142.212 90.4851 144.049 93.2341 145.302 96.2595C146.555 99.285 147.2 102.528 147.2 105.802V141.533H138.533V133.391L141.709 128.628C141.898 128.343 142 128.008 142 127.666V118.999H138.533V127.141L135.358 131.904C135.168 132.189 135.066 132.524 135.066 132.866V141.533H122.933V138.066H119.467V141.533H116V126.511L120.853 120.039C121.078 119.739 121.2 119.374 121.2 118.999V115.533H124.666V121.888L119.813 128.359C119.588 128.659 119.467 129.024 119.467 129.399V134.599H122.933V129.977L127.786 123.506C128.011 123.206 128.133 122.841 128.133 122.466V115.533H131.6V118.999H135.066V115.533H140.266C140.726 115.533 141.167 115.35 141.492 115.025C141.817 114.7 142 114.259 142 113.799V106.866C142 103.241 141.052 99.6784 139.251 96.532C137.45 93.3857 134.858 90.7648 131.732 88.9291C128.605 87.0934 125.054 86.1068 121.428 86.067C117.803 86.0271 114.231 86.9355 111.065 88.7021L107.907 85.4211C112.11 82.4627 117.124 80.8722 122.264 80.8664ZM122.642 93.9612L125.273 90.0148C127.765 90.6214 130.092 91.7712 132.088 93.382C134.083 94.9928 135.698 97.0248 136.817 99.3325L132.466 105.133H126.4V108.6H133.333C133.602 108.6 133.868 108.537 134.108 108.417C134.349 108.296 134.558 108.121 134.72 107.906L138.167 103.31C138.41 104.48 138.533 105.671 138.533 106.866V112.066H121.2V101.666H126.4C126.627 101.666 126.853 101.621 127.063 101.534C127.273 101.447 127.465 101.32 127.625 101.159L131.092 97.6919L128.641 95.2406L125.682 98.1996H120.203L113.567 91.3034C115.942 90.1358 118.554 89.5301 121.2 89.533C121.275 89.533 121.349 89.5375 121.424 89.5384L119.758 92.0381L122.642 93.9612ZM97.8122 100.912C98.8369 95.8197 101.423 91.1734 105.21 87.6187L117.733 100.631V118.422L112.88 124.893C112.655 125.193 112.533 125.558 112.533 125.933V141.533H109.067C107.228 141.531 105.466 140.799 104.166 139.5C102.867 138.2 102.135 136.438 102.133 134.599V129.393C104.812 129.33 107.444 128.678 109.842 127.483L108.291 124.382C106.375 125.338 104.274 125.864 102.133 125.927V122.466C102.133 122.006 101.951 121.565 101.626 121.24C101.301 120.915 100.86 120.733 100.4 120.733H93.8476L97.8122 100.912Z" fill="white" stroke="#051C2C"></path><path d="M108.2 112.066C109.4 112.066 110.573 111.71 111.571 111.044C112.568 110.377 113.346 109.43 113.805 108.321C114.264 107.213 114.385 105.993 114.15 104.816C113.916 103.639 113.339 102.558 112.49 101.71C111.642 100.861 110.561 100.284 109.384 100.049C108.207 99.8154 106.987 99.9355 105.879 100.395C104.77 100.854 103.823 101.631 103.156 102.629C102.49 103.627 102.134 104.8 102.134 105.999C102.136 107.608 102.775 109.15 103.913 110.287C105.05 111.425 106.592 112.064 108.2 112.066ZM108.2 103.4C108.715 103.4 109.217 103.552 109.645 103.838C110.072 104.123 110.406 104.529 110.602 105.005C110.799 105.48 110.851 106.002 110.75 106.507C110.65 107.011 110.402 107.474 110.039 107.838C109.675 108.202 109.212 108.449 108.708 108.55C108.203 108.65 107.681 108.598 107.205 108.402C106.73 108.205 106.324 107.872 106.039 107.444C105.753 107.016 105.6 106.514 105.6 105.999C105.601 105.31 105.875 104.649 106.363 104.162C106.85 103.674 107.511 103.4 108.2 103.4Z" fill="white" stroke="#051C2C"></path><path d="M131.6 125.408L128.424 130.171C128.235 130.456 128.133 130.79 128.133 131.133V138.066H131.6V131.657L134.775 126.894C134.965 126.61 135.067 126.275 135.067 125.933V122.466H131.6V125.408Z" fill="white" stroke="#051C2C"></path><path d="M114.266 115.533H110.8V118.999H114.266V115.533Z" fill="white" stroke="#051C2C"></path><path d="M107.333 92.9996H103.867V96.4663H107.333V92.9996Z" fill="white" stroke="#051C2C"></path></svg> 