<?xml version="1.0" encoding="UTF-8"?> <svg xmlns="http://www.w3.org/2000/svg" width="300" height="186" viewBox="0 0 300 186" fill="none"><rect width="300" height="186" fill="#051C2C"></rect><path d="M123.311 109.621L146.174 122.82C146.434 122.969 146.718 123.041 147.002 123.041C147.286 123.041 147.57 122.969 147.83 122.82L170.693 109.621C171.198 109.327 171.521 108.783 171.521 108.191L171.511 81.7927C171.511 81.2006 171.203 80.6566 170.683 80.363L147.825 67.1687C147.32 66.875 146.689 66.875 146.189 67.1687L123.312 80.363C122.807 80.6566 122.484 81.2005 122.484 81.7927V108.191C122.484 108.783 122.806 109.322 123.311 109.621ZM125.776 84.642L145.346 95.9446V118.545L125.776 107.242V84.642ZM156.731 91.2705L160.134 89.3113V94.9049L156.731 96.864V91.2705ZM155.08 88.4256L135.51 77.123L138.914 75.1639L158.483 86.4664L155.08 88.4256ZM151.792 90.3222L146.997 93.0949L127.427 81.7923L132.222 79.0196L151.792 90.3222ZM148.633 118.54V95.939L153.428 93.1664V99.7082C153.428 100.3 153.736 100.844 154.256 101.138C154.516 101.287 154.8 101.359 155.084 101.359C155.368 101.359 155.653 101.287 155.912 101.138L162.604 97.2821C163.11 96.9885 163.432 96.4445 163.432 95.8524V87.4091L168.227 84.6365V107.237L148.633 118.54ZM146.997 70.4944L166.566 81.797L161.772 84.5697L142.202 73.2671L146.997 70.4944ZM138.678 49.6796C138.543 48.7794 139.169 47.9418 140.069 47.8167C142.361 47.4845 144.691 47.3112 147.006 47.3112C173.292 47.3112 194.69 68.7028 194.69 94.9903C194.69 97.2191 194.531 99.4526 194.223 101.657L197.598 99.2168C198.339 98.6873 199.36 98.8461 199.89 99.5874C200.419 100.329 200.26 101.349 199.519 101.879L192.813 106.736C192.529 106.948 192.196 107.044 191.85 107.044C191.763 107.044 191.677 107.029 191.59 107.02C191.157 106.948 190.776 106.712 190.516 106.365L185.659 99.6597C185.129 98.9184 185.288 97.8978 186.03 97.3683C186.771 96.8388 187.792 96.9977 188.321 97.739L190.935 101.34C191.229 99.2457 191.393 97.1228 191.393 94.9952C191.393 70.5229 171.477 50.6076 147 50.6076C144.858 50.6076 142.673 50.7665 140.545 51.0746C139.64 51.2045 138.802 50.5788 138.677 49.6786L138.678 49.6796ZM159.013 139.464C159.225 140.35 158.666 141.226 157.78 141.438C154.266 142.251 150.631 142.656 146.997 142.656C120.711 142.656 99.3128 121.264 99.3128 94.9765V94.6539L96.2461 97.5229C95.5818 98.139 94.5467 98.115 93.9161 97.4507C93.2999 96.7864 93.324 95.7514 93.9883 95.1209L100.025 89.4648C100.348 89.1712 100.767 89.0075 101.21 89.022C101.643 89.0364 102.062 89.2193 102.355 89.5419L108.012 95.5782C108.628 96.2425 108.604 97.2774 107.94 97.908C107.275 98.5241 106.24 98.5001 105.61 97.8358L102.601 94.6202V94.9764C102.601 119.449 122.517 139.364 146.993 139.364C150.382 139.364 153.771 138.984 157.035 138.218C157.931 138.035 158.816 138.589 159.014 139.465L159.013 139.464ZM204.858 129.89C204.699 128.46 203.64 127.314 202.22 127.045C201.589 126.92 200.496 126.587 200.135 125.716C199.779 124.84 200.318 123.829 200.679 123.3C201.478 122.106 201.43 120.551 200.53 119.43C199.534 118.173 198.397 117.028 197.141 116.026C196.005 115.126 194.455 115.064 193.261 115.877C192.731 116.233 191.72 116.777 190.844 116.421C189.968 116.065 189.636 114.953 189.515 114.327C189.246 112.912 188.1 111.848 186.67 111.68C185.081 111.497 183.464 111.497 181.875 111.68C180.445 111.839 179.3 112.912 179.03 114.327C178.905 114.958 178.573 116.065 177.701 116.421C176.825 116.777 175.814 116.238 175.285 115.877C174.091 115.064 172.536 115.126 171.405 116.026C170.148 117.023 169.002 118.168 168.015 119.43C167.13 120.566 167.067 122.116 167.866 123.309C168.222 123.839 168.766 124.85 168.41 125.726C168.054 126.602 166.956 126.934 166.326 127.054C164.91 127.324 163.846 128.47 163.688 129.899C163.505 131.478 163.505 133.067 163.688 134.646C163.846 136.075 164.905 137.221 166.326 137.491C166.956 137.616 168.049 137.948 168.41 138.819C168.766 139.695 168.227 140.706 167.866 141.235C167.067 142.429 167.115 143.984 168.015 145.115C169.012 146.372 170.148 147.517 171.405 148.519C172.541 149.419 174.091 149.481 175.285 148.668C175.814 148.312 176.825 147.768 177.701 148.124C178.578 148.48 178.91 149.592 179.03 150.218C179.3 151.633 180.445 152.697 181.875 152.865C182.674 152.952 183.478 153 184.278 153C185.077 153 185.881 152.952 186.68 152.865C188.11 152.706 189.255 151.633 189.525 150.218C189.65 149.587 189.982 148.48 190.854 148.124C191.73 147.768 192.741 148.307 193.27 148.668C194.464 149.481 196.019 149.419 197.151 148.519C198.407 147.522 199.553 146.376 200.54 145.115C201.425 143.979 201.488 142.429 200.689 141.235C200.333 140.706 199.789 139.695 200.145 138.819C200.501 137.943 201.599 137.611 202.229 137.491C203.645 137.221 204.709 136.075 204.868 134.646C205.046 133.057 205.046 131.454 204.858 129.89ZM201.594 134.251C199.399 134.684 197.81 135.854 197.107 137.543C196.404 139.243 196.703 141.192 197.959 143.05C197.122 144.109 196.173 145.072 195.1 145.91C193.237 144.653 191.277 144.345 189.578 145.058C187.878 145.76 186.709 147.363 186.275 149.568C184.947 149.727 183.589 149.727 182.231 149.568C181.813 147.363 180.643 145.761 178.929 145.058C177.23 144.355 175.28 144.653 173.407 145.91C172.348 145.072 171.4 144.109 170.547 143.05C171.804 141.188 172.102 139.243 171.4 137.543C170.697 135.854 169.108 134.684 166.913 134.251C166.764 132.932 166.764 131.589 166.913 130.26C169.108 129.827 170.697 128.657 171.4 126.968C172.102 125.269 171.804 123.319 170.547 121.461C171.385 120.402 172.333 119.439 173.407 118.601C175.27 119.858 177.23 120.156 178.929 119.454C180.628 118.751 181.798 117.148 182.231 114.943C183.56 114.784 184.918 114.784 186.275 114.943C186.694 117.148 187.864 118.751 189.578 119.454C191.277 120.156 193.227 119.858 195.1 118.601C196.159 119.439 197.107 120.402 197.959 121.461C196.703 123.324 196.404 125.268 197.107 126.968C197.81 128.657 199.399 129.827 201.594 130.26C201.743 131.579 201.753 132.922 201.594 134.251ZM184.264 122.029C178.621 122.029 174.033 126.626 174.033 132.258C174.033 137.9 178.631 142.487 184.264 142.487C189.906 142.487 194.494 137.89 194.494 132.258C194.508 126.612 189.911 122.029 184.264 122.029ZM184.264 139.205C180.431 139.205 177.312 136.086 177.312 132.254C177.312 128.422 180.431 125.303 184.264 125.303C188.096 125.303 191.215 128.422 191.215 132.254C191.215 136.09 188.101 139.205 184.264 139.205ZM101.494 67.9763C102.514 69.5407 103.357 70.8116 103.554 72.4868C103.063 73.0404 102.755 73.7673 102.755 74.5711V77.8637C102.755 79.924 104.05 81.6713 105.875 82.3597L106.159 83.7508C106.563 85.8111 108.33 87.2503 110.434 87.2503H111.136C113.245 87.2503 114.993 85.8062 115.412 83.7508L115.696 82.3597C117.506 81.6713 118.815 79.9191 118.815 77.8637V74.5711C118.815 73.772 118.507 73.0548 118.016 72.4868C118.199 70.8116 119.037 69.5312 120.076 67.9763C121.492 65.8198 123.268 63.1433 123.268 58.7725C123.268 51.8986 117.674 46.3003 110.795 46.3003C103.92 46.3003 98.3214 51.8939 98.3214 58.7725C98.3021 63.1337 100.078 65.8198 101.494 67.9763ZM115.508 74.6818V77.8492C115.508 78.7012 114.819 79.3896 113.967 79.3896H107.593C106.741 79.3896 106.053 78.7012 106.053 77.8492V74.6818H115.508ZM111.122 83.9481H110.419C109.899 83.9481 109.471 83.6015 109.37 83.0864L109.283 82.6677H112.253L112.167 83.0864C112.07 83.6063 111.651 83.9481 111.122 83.9481ZM110.775 49.5927C115.84 49.5927 119.956 53.7083 119.956 58.7724C119.956 62.1612 118.675 64.1059 117.308 66.1662C116.288 67.721 115.248 69.3096 114.843 71.4035H114.29V69.1603L116.543 64.3033C116.639 64.0819 116.692 63.846 116.692 63.615V59.119C116.692 58.2092 115.951 57.4824 115.055 57.4824C114.145 57.4824 113.418 58.2237 113.418 59.119V63.2588L111.165 68.1158C111.069 68.3373 111.016 68.5731 111.016 68.8042V71.4036H110.559V68.8042C110.559 68.5683 110.511 68.3228 110.41 68.1158L108.156 63.2588V59.119C108.156 58.2092 107.415 57.4824 106.52 57.4824C105.619 57.4824 104.883 58.2237 104.883 59.119V63.615C104.883 63.8508 104.931 64.0963 105.032 64.3033L107.285 69.1603V71.4035H106.698C106.293 69.3192 105.254 67.721 104.233 66.1662C102.875 64.1059 101.585 62.1468 101.585 58.7724C101.595 53.7083 105.711 49.5927 110.775 49.5927ZM109.124 42.0736V38.6366C109.124 37.7268 109.865 37 110.761 37C111.661 37 112.398 37.7413 112.398 38.6366V42.0736C112.398 42.9834 111.656 43.7103 110.761 43.7103C109.865 43.7151 109.124 42.9882 109.124 42.0736ZM123.85 74.1666L121.424 71.7404C120.784 71.1002 120.784 70.0508 121.424 69.4106C122.064 68.7704 123.114 68.7704 123.754 69.4106L126.18 71.8368C126.821 72.477 126.821 73.5264 126.18 74.1666C125.858 74.4891 125.439 74.6479 125.02 74.6479C124.592 74.6431 124.173 74.4843 123.85 74.1666ZM127.475 57.1213H130.913C131.823 57.1213 132.55 57.8626 132.55 58.7579C132.55 59.6581 131.808 60.3946 130.913 60.3946H127.475C126.566 60.3946 125.839 59.6533 125.839 58.7579C125.834 57.8626 126.566 57.1213 127.475 57.1213ZM121.424 48.1245C120.784 47.4843 120.784 46.4349 121.424 45.7947L123.85 43.3686C124.491 42.7283 125.54 42.7283 126.18 43.3686C126.821 44.0088 126.821 45.0582 126.18 45.6983L123.754 48.1245C123.431 48.447 123.013 48.6059 122.594 48.6059C122.175 48.6059 121.747 48.447 121.424 48.1245ZM95.3692 45.6983C94.7289 45.0581 94.7289 44.0087 95.3692 43.3686C96.0095 42.7284 97.059 42.7283 97.6992 43.3686L100.126 45.7947C100.766 46.4349 100.766 47.4843 100.126 48.1245C99.8031 48.447 99.3842 48.6059 98.9654 48.6059C98.5466 48.6059 98.1277 48.447 97.8052 48.1245L95.3692 45.6983ZM94.0742 60.4133H90.6368C89.7269 60.4133 89 59.672 89 58.7767C89 57.8765 89.7414 57.14 90.6368 57.14H94.0742C94.984 57.14 95.7109 57.8814 95.7109 58.7767C95.7158 59.672 94.9888 60.4133 94.0742 60.4133ZM100.126 69.4197C100.766 70.0599 100.766 71.1093 100.126 71.7495L97.6992 74.1659C97.3767 74.4885 96.9578 74.6473 96.539 74.6473C96.1202 74.6473 95.7013 74.4885 95.3788 74.1659C94.7385 73.5257 94.7385 72.4763 95.3788 71.8361L97.8052 69.41C98.4503 68.7649 99.4854 68.7651 100.126 69.4197Z" fill="white"></path></svg> 