<?xml version="1.0" encoding="UTF-8"?> <svg xmlns="http://www.w3.org/2000/svg" xmlns:xlink="http://www.w3.org/1999/xlink" width="90" height="90" viewBox="0 0 90 90"><defs><clipPath id="clip-path"><rect id="Rectangle_9" data-name="Rectangle 9" width="90" height="90" transform="translate(587 354)" fill="#fff" stroke="#707070" stroke-width="1"></rect></clipPath></defs><g id="Mask_Group_20" data-name="Mask Group 20" transform="translate(-587 -354)" clip-path="url(#clip-path)"><g id="Group_21" data-name="Group 21" transform="translate(103.362 -143.51)"><path id="Path_95" data-name="Path 95" d="M22.613,20.879H18.821a3.876,3.876,0,0,0-3.871,3.863v3.792A3.871,3.871,0,0,0,18.821,32.4h3.792a3.876,3.876,0,0,0,3.871-3.863V24.743A3.871,3.871,0,0,0,22.613,20.879Zm1.506,7.656a1.5,1.5,0,0,1-1.506,1.5H18.821a1.5,1.5,0,0,1-1.506-1.5V24.743a1.5,1.5,0,0,1,1.506-1.5h3.792a1.5,1.5,0,0,1,1.506,1.5ZM22.613,37.2H18.821a3.876,3.876,0,0,0-3.871,3.863v3.792a3.871,3.871,0,0,0,3.871,3.863h3.792a3.876,3.876,0,0,0,3.871-3.863V41.064A3.871,3.871,0,0,0,22.613,37.2Zm1.506,7.656a1.5,1.5,0,0,1-1.506,1.5H18.821a1.5,1.5,0,0,1-1.506-1.5V41.064a1.5,1.5,0,0,1,1.506-1.5h3.792a1.5,1.5,0,0,1,1.506,1.5Zm-1.506,8.665H18.821a3.876,3.876,0,0,0-3.871,3.863v3.792a3.871,3.871,0,0,0,3.871,3.863h3.792a3.876,3.876,0,0,0,3.871-3.863V57.384A3.871,3.871,0,0,0,22.613,53.521Zm1.506,7.656a1.5,1.5,0,0,1-1.506,1.5H18.821a1.5,1.5,0,0,1-1.506-1.5V57.384a1.5,1.5,0,0,1,1.506-1.5h3.792a1.5,1.5,0,0,1,1.506,1.5Zm17.456,1.2a1.181,1.181,0,0,1-1.183,1.183H30.411a1.183,1.183,0,0,1,0-2.365h9.982A1.181,1.181,0,0,1,41.575,62.375ZM30.411,56.21H46.629a1.183,1.183,0,1,1,0,2.365H30.411a1.183,1.183,0,0,1,0-2.365Zm37.577,3.643a3.242,3.242,0,0,0-4.013-1.963l-1.656-4.455a20.144,20.144,0,0,0-7.23-38.555V10.1a1.181,1.181,0,0,0-1.183-1.183H42.451V6.869A3.362,3.362,0,0,0,39.092,3.51H23.828a3.362,3.362,0,0,0-3.359,3.359v2.05H9.013A1.181,1.181,0,0,0,7.83,10.1v60.71a1.181,1.181,0,0,0,1.183,1.183H53.9a1.181,1.181,0,0,0,1.183-1.183v-15.7a19.86,19.86,0,0,0,5.015-.867l1.664,4.47A3.232,3.232,0,0,0,60,62.817L64.535,75a3.272,3.272,0,0,0,3.051,2.121,3.353,3.353,0,0,0,1.135-.2l1.884-.7a3.262,3.262,0,0,0,1.916-4.187L67.988,59.844Zm2.286,13.68a.925.925,0,0,1-.5.465h0l-1.884.7a.918.918,0,0,1-.678-.024.9.9,0,0,1-.465-.5L62.217,62a.89.89,0,0,1,.52-1.143l1.884-.7a.845.845,0,0,1,.307-.055.893.893,0,0,1,.836.576L70.3,72.854a.918.918,0,0,1-.024.678ZM52.716,69.621H10.187V11.276H20.461V14.95a1.181,1.181,0,0,0,1.183,1.183H41.252a1.181,1.181,0,0,0,1.183-1.183V11.276H52.708v3.635a20.43,20.43,0,0,0-5.543,1.214,20.066,20.066,0,0,0-9.548,7.451H30.4a1.183,1.183,0,1,0,0,2.365h5.819a19.524,19.524,0,0,0-1.1,2.618H30.4a1.183,1.183,0,1,0,0,2.365h4.076a20.045,20.045,0,0,0,.173,8.965H30.4a1.183,1.183,0,0,0,0,2.365H35.41a19.4,19.4,0,0,0,1.23,2.618H30.4a1.183,1.183,0,0,0,0,2.365h7.806a20.237,20.237,0,0,0,14.5,7.845V69.621ZM22.826,8.911V6.861a.994.994,0,0,1,.993-.993H39.084a.994.994,0,0,1,.993.993v6.907H22.834V8.911Zm29.882,43.8a17.854,17.854,0,0,1-11.4-5.472,17.282,17.282,0,0,1-1.892-2.365,17.917,17.917,0,0,1-1.451-2.618c-.158-.347-.3-.694-.434-1.057-.166-.434-.3-.875-.426-1.309a17.667,17.667,0,0,1-.2-8.965,17.95,17.95,0,0,1,2.018-4.983A17.694,17.694,0,0,1,52.708,17.3c.394-.032.788-.047,1.183-.055.095,0,.189-.016.284-.016.3,0,.6.016.9.032a17.766,17.766,0,0,1,5.314,34.4,17.6,17.6,0,0,1-5.314,1.1c-.394.016-.788.024-1.183.016s-.788-.024-1.183-.055ZM70.1,35.5a1.154,1.154,0,0,0,0-.993A17.572,17.572,0,0,0,55.074,24.364c-.292-.016-.583-.032-.883-.032-.1,0-.2.008-.3.008-.394,0-.788.024-1.183.055h-.047a17.563,17.563,0,0,0-5.771,1.53,17.717,17.717,0,0,0-8.6,8.563,1.154,1.154,0,0,0,0,.993A17.6,17.6,0,0,0,52.716,45.589c.394.032.788.055,1.183.055.1,0,.2.008.3.008.292,0,.591-.016.883-.032A17.587,17.587,0,0,0,70.109,35.481Zm-16.21,7.8q-.591-.012-1.183-.071A15.2,15.2,0,0,1,40.669,35a15.182,15.182,0,0,1,3.1-4.139c.237-.229.481-.442.733-.647a15.21,15.21,0,0,1,8.208-3.438q.591-.059,1.183-.071c.1,0,.2-.008.3-.008.292,0,.591.016.883.032A15.246,15.246,0,0,1,67.72,35.008a15.235,15.235,0,0,1-12.647,8.279c-.292.016-.583.032-.883.032-.1,0-.2-.008-.3-.008ZM57.447,35a3.307,3.307,0,0,0-3.256-3.256c-.1,0-.2.024-.3.032a3.165,3.165,0,0,0-1.183.347,3.221,3.221,0,0,0,0,5.756,3.165,3.165,0,0,0,1.183.347c.1.008.2.032.3.032A3.307,3.307,0,0,0,57.447,35Zm-3.256.891a.755.755,0,0,1-.3-.063A.888.888,0,0,1,53.3,35a.877.877,0,0,1,.591-.828.968.968,0,0,1,.3-.063.89.89,0,0,1,.883.844c0,.016.008.032.008.047s-.008.032-.008.047A.89.89,0,0,1,54.191,35.891ZM61.515,35a7.343,7.343,0,0,0-6.442-7.269,8.168,8.168,0,0,0-.883-.055c-.1,0-.2.008-.3.016A7.322,7.322,0,0,0,52.2,42.049c.166.047.331.095.5.126a7.339,7.339,0,0,0,1.183.134c.1,0,.2.016.3.016a8.168,8.168,0,0,0,.883-.055A7.324,7.324,0,0,0,61.515,35ZM54.191,39.96c-.1,0-.2-.008-.3-.016a4.895,4.895,0,0,1-1.183-.213,4.957,4.957,0,0,1,0-9.461,4.895,4.895,0,0,1,1.183-.213c.1,0,.2-.016.3-.016a4.722,4.722,0,0,1,.883.087,4.96,4.96,0,0,1,0,9.761,4.658,4.658,0,0,1-.883.087Z" transform="translate(487.808 502)" fill="#1c54f8"></path></g></g></svg> 