<?xml version="1.0" encoding="UTF-8"?> <svg xmlns="http://www.w3.org/2000/svg" xmlns:xlink="http://www.w3.org/1999/xlink" width="60" height="60" viewBox="0 0 60 60"><defs><clipPath id="clip-path"><rect id="Rectangle_7" data-name="Rectangle 7" width="60" height="60" transform="translate(101 286)" fill="#fff" stroke="#707070" stroke-width="1"></rect></clipPath></defs><g id="Mask_Group_58" data-name="Mask Group 58" transform="translate(-101 -286)" clip-path="url(#clip-path)"><path id="Path_191" data-name="Path 191" d="M38.466,40.62a11.158,11.158,0,0,0,3.095.429,11.476,11.476,0,1,0,0-22.952,11.169,11.169,0,0,0-3.095.429V6.787a.832.832,0,0,0-.834-.834H5.521a.832.832,0,0,0-.834.834V52.119a.832.832,0,0,0,.834.834H37.632a.832.832,0,0,0,.834-.834ZM36.8,7.62V51.286H6.355V7.62ZM26.891,46.455a.833.833,0,0,0,.834.834h4.723a.832.832,0,0,0,.834-.834V33.988a.832.832,0,0,0-.834-.834H27.725a.833.833,0,0,0-.834.834ZM16.26,42.3a.833.833,0,0,0-.834-.834H10.7a.833.833,0,0,0-.834.834v4.156a.833.833,0,0,0,.834.834h4.723a.833.833,0,0,0,.834-.834Zm8.509,0a.833.833,0,0,0-.834-.834H19.213a.833.833,0,0,0-.834.834v4.156a.833.833,0,0,0,.834.834h4.723a.833.833,0,0,0,.834-.834Zm-10.176.834v2.488H11.538V43.133Zm8.509,0v2.488H20.047V43.133Zm5.456,2.488v-10.8h3.055v10.8Zm9.907-11.773v5.023a9.406,9.406,0,0,0,3.095.513,9.809,9.809,0,1,0,0-19.618,9.406,9.406,0,0,0-3.095.513v2.132a3.565,3.565,0,0,1,0,7.044v2.038l7.965-7.965a.834.834,0,1,1,1.18,1.18l-9.143,9.141Zm-22.2.138a.833.833,0,0,0-.834-.834H10.706a.833.833,0,0,0-.834.834v4.156a.833.833,0,0,0,.834.834h4.723a.833.833,0,0,0,.834-.834Zm8.509,0a.833.833,0,0,0-.834-.834H19.215a.833.833,0,0,0-.834.834v4.156a.833.833,0,0,0,.834.834h4.723a.833.833,0,0,0,.834-.834ZM14.6,34.82v2.488H11.54V34.82Zm8.509,0v2.488H20.049V34.82Zm22.1-5.16a3.566,3.566,0,1,0,3.566,3.566A3.566,3.566,0,0,0,45.206,29.659Zm0,1.667a1.9,1.9,0,1,1-1.9,1.9A1.9,1.9,0,0,1,45.206,31.327ZM16.262,25.675a.833.833,0,0,0-.834-.834H10.706a.833.833,0,0,0-.834.834V29.83a.833.833,0,0,0,.834.834h4.723a.833.833,0,0,0,.834-.834Zm8.509,0a.833.833,0,0,0-.834-.834H19.215a.833.833,0,0,0-.834.834V29.83a.833.833,0,0,0,.834.834h4.723a.833.833,0,0,0,.834-.834Zm8.509,0a.832.832,0,0,0-.834-.834H27.724a.833.833,0,0,0-.834.834V29.83a.833.833,0,0,0,.834.834h4.723a.832.832,0,0,0,.834-.834Zm-1.667.834V29H28.558V26.508Zm-17.018,0V29H11.54V26.508Zm8.509,0V29H20.049V26.508Zm15.362-2.395a1.9,1.9,0,0,1,0,3.632ZM33.735,13.37a.833.833,0,0,0-.834-.834H10.233a.833.833,0,0,0-.834.834v6.638a.833.833,0,0,0,.834.834H32.9a.833.833,0,0,0,.834-.834Zm-1.667.834v4.97h-21V14.2Z" transform="translate(102.138 286.547)" fill="#1c54f8" stroke="#fff" stroke-width="0.5" fill-rule="evenodd"></path></g></svg> 