<?xml version="1.0" encoding="UTF-8"?> <svg xmlns="http://www.w3.org/2000/svg" width="512" height="512" viewBox="0 0 512 512"><g id="Group_35" data-name="Group 35" transform="translate(-778 -540)"><g id="Rectangle_12" data-name="Rectangle 12" transform="translate(778 540)" fill="#f1a5a5" stroke="#707070" stroke-width="1" opacity="0"><rect width="512" height="512" stroke="none"></rect><rect x="0.5" y="0.5" width="511" height="511" fill="none"></rect></g><g id="Group_34" data-name="Group 34" transform="translate(2103.272 -66.202)"><path id="Path_7" data-name="Path 7" d="M537.09,374.838a27.829,27.829,0,0,0-36.539-13.694l-98.738,30.918a32.494,32.494,0,0,0,.5-3.676,26.848,26.848,0,0,0-7.423-20.254,29.767,29.767,0,0,0-21.694-9.37H307.616L250.75,338a128.176,128.176,0,0,0-44.47-7.857l-34.094.007v-25.3a7.226,7.226,0,0,0-7.207-7.207H85.7a7.226,7.226,0,0,0-7.207,7.207v186.96a7.226,7.226,0,0,0,7.207,7.207h79.279a7.226,7.226,0,0,0,7.207-7.207V465.579h18.163a36.221,36.221,0,0,1,12.108,2.09l122.021,43.46a36.352,36.352,0,0,0,12.035,2.017,35.693,35.693,0,0,0,17.875-4.758l169.3-96.436a27.965,27.965,0,0,0,13.836-14.344,8.253,8.253,0,0,0,.577-1.37,27.832,27.832,0,0,0-1.005-21.4ZM92.9,484.533V312H157.77V484.542ZM524.553,391.2c-.073.143-.143.362-.216.5a14.171,14.171,0,0,1-7.28,7.5l-169.8,96.648a22.053,22.053,0,0,1-17.948,1.659l-121.945-43.46a49.991,49.991,0,0,0-17.008-2.956H172.192V344.569h34.09a115.159,115.159,0,0,1,39.5,6.991L303.8,372.75a7.319,7.319,0,0,0,2.452.431h66.813a15.326,15.326,0,0,1,11.172,4.828,12.619,12.619,0,0,1,3.6,9.44,13.534,13.534,0,0,1-3.892,8.651,14.9,14.9,0,0,1-3.749,2.668l-3.676,1.155a11.016,11.016,0,0,1-2.163.143H306.246a7.207,7.207,0,1,0,0,14.414h68.111a28.384,28.384,0,0,0,10.956-2.233l119.931-37.551a7.786,7.786,0,0,0,.936-.362,13.542,13.542,0,0,1,17.944,6.56,13.747,13.747,0,0,1,.435,10.306Z" transform="translate(-1378.763 554.75)" fill="#1b54f8" stroke="#1b54f8" stroke-width="3"></path><g id="Group_33" data-name="Group 33" transform="translate(-1099.282 657.202)"><path id="Path_33" data-name="Path 33" d="M144.612,128.33a39.61,39.61,0,1,0,39.608,39.61,39.632,39.632,0,0,0-39.608-39.61Zm0,11.318a28.291,28.291,0,1,1-28.293,28.291A28.3,28.3,0,0,1,144.612,139.648Z" transform="translate(-93.687 -94.38)" fill="#1b54f8" stroke="#1b54f8" stroke-width="3" fill-rule="evenodd"></path><path id="Path_34" data-name="Path 34" d="M307.942,58.332a39.61,39.61,0,1,0,39.61,39.61A39.633,39.633,0,0,0,307.942,58.332Zm0,11.318A28.291,28.291,0,1,1,279.65,97.942,28.3,28.3,0,0,1,307.942,69.65Z" transform="translate(-177.801 -58.332)" fill="#1b54f8" stroke="#1b54f8" stroke-width="3" fill-rule="evenodd"></path><path id="Path_35" data-name="Path 35" d="M471.274,128.33a39.61,39.61,0,1,0,39.61,39.61,39.632,39.632,0,0,0-39.61-39.61Zm0,11.318a28.291,28.291,0,1,1-28.291,28.291A28.3,28.3,0,0,1,471.274,139.648Z" transform="translate(-261.916 -94.38)" fill="#1b54f8" stroke="#1b54f8" stroke-width="3" fill-rule="evenodd"></path><path id="Path_36" data-name="Path 36" d="M160.887,279.519v-6.226A28.294,28.294,0,0,1,189.179,245h45.269a28.294,28.294,0,0,1,28.291,28.291v6.226a28.288,28.288,0,0,1,5.659-.566h45.267a28.3,28.3,0,0,1,28.291,28.291v45.269a16.974,16.974,0,0,1-16.975,16.975H98.647a16.974,16.974,0,0,1-16.975-16.975V307.244a28.294,28.294,0,0,1,28.291-28.291H155.23a28.285,28.285,0,0,1,5.659.566Zm90.536-6.226v79.221a5.66,5.66,0,0,1-5.659,5.657h-67.9a5.66,5.66,0,0,1-5.659-5.657V273.293a16.974,16.974,0,0,1,16.975-16.975h45.269A16.974,16.974,0,0,1,251.424,273.293Zm-90.536,17.943a16.9,16.9,0,0,0-5.659-.968H109.962a16.974,16.974,0,0,0-16.975,16.975v45.269a5.66,5.66,0,0,0,5.659,5.657h63.216a16.864,16.864,0,0,1-.974-5.657Zm100.877,66.931H324.98a5.66,5.66,0,0,0,5.659-5.657V307.242a16.974,16.974,0,0,0-16.975-16.975H268.4a16.906,16.906,0,0,0-5.659.968v61.276a16.861,16.861,0,0,1-.974,5.657Z" transform="translate(-81.672 -154.466)" fill="#1b54f8" stroke="#1b54f8" stroke-width="3" fill-rule="evenodd"></path></g></g></g></svg> 