<?xml version="1.0" encoding="UTF-8"?> <svg xmlns="http://www.w3.org/2000/svg" xmlns:xlink="http://www.w3.org/1999/xlink" width="90" height="90" viewBox="0 0 90 90"><defs><clipPath id="clip-path"><rect id="Rectangle_23" data-name="Rectangle 23" width="90" height="90" transform="translate(610 833)" fill="#fff"></rect></clipPath></defs><g id="Mask_Group_7" data-name="Mask Group 7" transform="translate(-610 -833)" clip-path="url(#clip-path)"><g id="Group_108" data-name="Group 108" transform="translate(189.475 -52.277)"><path id="Path_125" data-name="Path 125" d="M212.722,147.458a28.7,28.7,0,1,0-35.537,0v6.2h-5.467v2.734h5.467v2.734h-5.467v2.734h5.467v5.467h35.537v-5.467h5.467v-2.734h-5.467V156.39h5.467v-2.734h-5.467Zm-2.189-1.765-.544.41v7.553H196.32v-6.834a6.834,6.834,0,0,0,0-13.668v-5.467h6.8l1.982.045-.454-1.751a4.1,4.1,0,1,1,7.942,0l-.438,1.707h8.619a25.745,25.745,0,0,1-10.241,18.006Zm10.39-20.74h-5.467a6.834,6.834,0,0,0-13.668,0H196.32v-5.467a6.834,6.834,0,1,0,0-13.668V99.054a25.979,25.979,0,0,1,24.6,25.9Zm-27.336-25.9v10.065l1.707-.438a4.1,4.1,0,1,1,0,7.942l-1.714-.444.007,8.775h-5.466a6.834,6.834,0,1,0-13.668,0h-5.467a25.978,25.978,0,0,1,24.6-25.9Zm-14.212,46.641a25.758,25.758,0,0,1-10.241-18.006h8.619l-.437-1.707a4.1,4.1,0,1,1,7.942,0l-.454,1.751,8.785-.039v6.8l-.045,1.982,1.751-.454a4.193,4.193,0,0,1,1.028-.128,4.1,4.1,0,1,1-1.026,8.071l-1.707-.438v10.135H179.918v-7.553Zm30.614,18.9h-30.07v-2.734h30.07Zm0-5.467h-30.07v-2.734h30.07Z" transform="translate(270.576 804.328)" fill="#1b54f8" stroke="#fff" stroke-width="0.4"></path><path id="Path_126" data-name="Path 126" d="M341.25,17.5h2.734v9.568H341.25Z" transform="translate(122.912 870.777)" fill="#1b54f8" stroke="#fff" stroke-width="0.4"></path><path id="Path_127" data-name="Path 127" d="M158.2,90.128l1.933-1.933L166.9,94.96l-1.933,1.933Z" transform="translate(277.368 811.125)" fill="#1b54f8" stroke="#fff" stroke-width="0.4"></path><path id="Path_128" data-name="Path 128" d="M87.5,271.25h9.568v2.734H87.5Z" transform="translate(337.025 656.664)" fill="#1b54f8" stroke="#fff" stroke-width="0.4"></path><path id="Path_129" data-name="Path 129" d="M158.2,422.88l6.765-6.765,1.933,1.933-6.765,6.765Z" transform="translate(277.368 534.429)" fill="#1b54f8" stroke="#fff" stroke-width="0.4"></path><path id="Path_130" data-name="Path 130" d="M486.11,418.058l1.933-1.933,6.765,6.765-1.933,1.933Z" transform="translate(0.681 534.42)" fill="#1b54f8" stroke="#fff" stroke-width="0.4"></path><path id="Path_131" data-name="Path 131" d="M551.25,271.25h9.568v2.734H551.25Z" transform="translate(-54.284 656.664)" fill="#1b54f8" stroke="#fff" stroke-width="0.4"></path><path id="Path_132" data-name="Path 132" d="M486.12,94.97l6.765-6.765,1.933,1.933L488.053,96.9Z" transform="translate(0.672 811.116)" fill="#1b54f8" stroke="#fff" stroke-width="0.4"></path></g></g></svg> 