<?xml version="1.0" encoding="UTF-8"?> <svg xmlns="http://www.w3.org/2000/svg" xmlns:xlink="http://www.w3.org/1999/xlink" width="90" height="90" viewBox="0 0 90 90"><defs><clipPath id="clip-path"><rect id="Rectangle_10" data-name="Rectangle 10" width="90" height="90" transform="translate(285.934 340.019)" fill="none"></rect></clipPath></defs><g id="Group_20" data-name="Group 20" transform="translate(-285.934 -340.019)"><g id="Group_19" data-name="Group 19" clip-path="url(#clip-path)"><path id="Path_22" data-name="Path 22" d="M375.389,347.008h-87.5a1.25,1.25,0,0,0-1.25,1.25V415.9a1.25,1.25,0,0,0,1.25,1.25H312.26a12.623,12.623,0,0,0,23.072,0h40.057a1.25,1.25,0,0,0,1.25-1.25V348.258a1.25,1.25,0,0,0-1.25-1.25m-1.25,11.818h-64v-9.318h64Zm-66.5,0h-18.5v-9.318h18.5ZM323.8,422.144a10.13,10.13,0,1,1,10.13-10.13,10.13,10.13,0,0,1-10.13,10.13m12.351-7.5a12.629,12.629,0,1,0-24.7,0h-22.31V361.326h85v53.32Zm29.12-57.09a3.39,3.39,0,1,0-3.389-3.39,3.391,3.391,0,0,0,3.389,3.39Zm0-4.28a.89.89,0,1,1-.889.89.89.89,0,0,1,.889-.89Zm-11.785,4.282a3.39,3.39,0,1,0-3.389-3.39,3.391,3.391,0,0,0,3.389,3.39m0-4.28a.89.89,0,1,1-.889.89.89.89,0,0,1,.889-.89m-11.785,4.28a3.39,3.39,0,1,0-3.391-3.39,3.39,3.39,0,0,0,3.391,3.39m0-4.28a.89.89,0,1,1-.891.89.889.889,0,0,1,.891-.89m27.794,45.915-5.245-1.4q.264-.651.464-1.324l3.309-.456a1.25,1.25,0,0,0,1.079-1.238v-4.625a1.25,1.25,0,0,0-1.079-1.238l-3.309-.456a14.08,14.08,0,0,0-1.167-2.812l2.019-2.662a1.25,1.25,0,0,0-.112-1.639l-3.27-3.271a1.251,1.251,0,0,0-1.639-.112l-2.663,2.018a14.093,14.093,0,0,0-2.811-1.166l-.456-3.308a1.25,1.25,0,0,0-1.238-1.08h-4.625a1.25,1.25,0,0,0-1.239,1.08l-.455,3.309a14.124,14.124,0,0,0-2.815,1.165l-2.661-2.018a1.251,1.251,0,0,0-1.639.112l-3.269,3.271a1.247,1.247,0,0,0-.112,1.638l2.018,2.663a14.1,14.1,0,0,0-1.167,2.812l-3.307.456a1.249,1.249,0,0,0-1.081,1.238v4.625a1.25,1.25,0,0,0,1.08,1.238l3.308.456a14.081,14.081,0,0,0,1.167,2.812l-2.018,2.662a1.249,1.249,0,0,0,.112,1.639l3.269,3.27a1.25,1.25,0,0,0,1.639.113l2.661-2.018a14.244,14.244,0,0,0,2.812,1.166l.456,3.308a1.249,1.249,0,0,0,1.238,1.08h4.625a1.248,1.248,0,0,0,1.237-1.08l.457-3.309c.436-.128.867-.28,1.289-.45l1.41,5.26a1.248,1.248,0,0,0,.884.884,1.22,1.22,0,0,0,.323.043,1.247,1.247,0,0,0,.884-.367l10.2-10.193a1.25,1.25,0,0,0-.56-2.091m-15.825,4.7a1.252,1.252,0,0,0-.963,1.049l-.42,3.058H349.84l-.421-3.058a1.25,1.25,0,0,0-.962-1.048,11.625,11.625,0,0,1-3.634-1.507,1.251,1.251,0,0,0-1.422.061l-2.461,1.861-1.729-1.729,1.866-2.461a1.254,1.254,0,0,0,.061-1.422,11.628,11.628,0,0,1-1.508-3.634,1.246,1.246,0,0,0-1.048-.962l-3.057-.421v-2.445l3.057-.421a1.246,1.246,0,0,0,1.048-.962,11.683,11.683,0,0,1,1.509-3.635,1.247,1.247,0,0,0-.061-1.421l-1.866-2.461,1.728-1.729,2.461,1.865a1.251,1.251,0,0,0,1.422.061,11.612,11.612,0,0,1,3.633-1.5,1.254,1.254,0,0,0,.961-1.049l.42-3.058h2.447l.42,3.058a1.251,1.251,0,0,0,.963,1.048,11.645,11.645,0,0,1,3.634,1.5,1.251,1.251,0,0,0,1.422-.061l2.461-1.865,1.729,1.729-1.865,2.461a1.246,1.246,0,0,0-.061,1.421,11.626,11.626,0,0,1,1.505,3.635,1.255,1.255,0,0,0,1.048.962l3.059.421v2.445l-3.059.421a1.251,1.251,0,0,0-1.048.962,11.528,11.528,0,0,1-.681,2.072l-3.558-.954a8.115,8.115,0,1,0-3.5,3.475l.955,3.566a11.582,11.582,0,0,1-2.041.671Zm2.086-8.377-.185-.05a1.249,1.249,0,0,0-1.529,1.527l.046.169a5.608,5.608,0,1,1,1.67-1.65Zm3.868,12.667-2.609-9.742,9.742,2.61Zm-35.629-33.543v-.009a.923.923,0,0,0-.027-.137l-.011-.037c-.01-.037-.023-.073-.036-.11l-.014-.035a1.163,1.163,0,0,0-.149-.258l-.026-.026a1.081,1.081,0,0,0-.077-.088l-.026-.026a1.032,1.032,0,0,0-.1-.093l-.008-.006a1.226,1.226,0,0,0-.127-.085l-.009-.006-14.321-8.268a1.251,1.251,0,0,0-1.25,0l-14.32,8.265-.01.007a1.071,1.071,0,0,0-.127.084l-.01.009a1.059,1.059,0,0,0-.1.089l-.029.028c-.026.028-.051.056-.074.086l-.025.031a1.315,1.315,0,0,0-.082.123,1.114,1.114,0,0,0-.066.134l-.015.035c-.014.037-.026.073-.036.11l-.011.036a1.051,1.051,0,0,0-.027.138v.009a1.286,1.286,0,0,0-.01.153v16.547a1.248,1.248,0,0,0,.625,1.082l14.321,8.269h.008a1.359,1.359,0,0,0,.138.068h.008c.044.017.088.032.134.045l.036.009c.038.01.075.017.112.023l.039.006a1.255,1.255,0,0,0,.3,0l.039-.006a.965.965,0,0,0,.112-.023l.038-.009c.044-.013.09-.028.134-.045h.006a1.391,1.391,0,0,0,.14-.068h.009l14.32-8.269a1.248,1.248,0,0,0,.625-1.082V374.791c-.008-.051-.01-.1-.017-.153m-15.56-6.661,11.821,6.825-11.821,6.824-11.82-6.824Zm-13.07,8.99,11.82,6.824v13.65l-11.82-6.825Zm14.32,20.474v-13.65l11.821-6.824v13.649Zm21.907,8.911a2.851,2.851,0,0,0-4.028,0l-5.2,5.2-2.331-2.331A2.848,2.848,0,0,0,316,413.248l4.488,4.488a2.646,2.646,0,0,0,3.74,0l7.355-7.356a2.849,2.849,0,0,0,0-4.028m-1.767,2.259-7.357,7.357a.149.149,0,0,1-.2,0l-4.488-4.489a.348.348,0,1,1,.492-.492l3.215,3.216a1.249,1.249,0,0,0,1.767,0l6.083-6.083a.348.348,0,0,1,.493.491Z" fill="#1a53f6"></path></g></g></svg> 