<?xml version="1.0" encoding="UTF-8"?> <svg xmlns="http://www.w3.org/2000/svg" width="80" height="80" viewBox="0 0 80 80"><g id="Group_621" data-name="Group 621" transform="translate(-1011 -2585)"><rect id="Rectangle_123" data-name="Rectangle 123" width="80" height="80" transform="translate(1011 2585)" fill="#f6f6f6" opacity="0"></rect><g id="Group_611" data-name="Group 611" transform="translate(-1302.758 1360.381)"><path id="Path_540" data-name="Path 540" d="M137.956,61.608l-9.176-6.553v2.778h-12.8a17.887,17.887,0,0,0,7.79-24.6,12.271,12.271,0,1,0-10.983-13.151H99.52a1.89,1.89,0,0,0-1.888,1.888v5.207a17.96,17.96,0,0,0-4.24,4.232H89.137a8.5,8.5,0,1,1,0-16.99h14.712l-2.164,2.164,1.335,1.335,4.443-4.443-4.443-4.443-1.335,1.335,2.165,2.165H89.137a10.383,10.383,0,1,0,0,20.766h3.081a17.9,17.9,0,0,0,.83,18.352l-2.881,2.881,9.784,2.8-2.8-9.784-2.749,2.749a16.034,16.034,0,0,1,3.225-20.728V46.5a1.89,1.89,0,0,0,1.888,1.888h16.99A1.89,1.89,0,0,0,118.4,46.5V31.343a12.218,12.218,0,0,0,2.826,1.345,16.036,16.036,0,0,1-13.209,25.143H78.754v7.551H128.78V68.16ZM96.222,51.139l.98,3.431-3.431-.98ZM114.67,20.077a10.341,10.341,0,0,1,2.361-5.7l1.643,1.643,1.334-1.335-1.643-1.643a10.335,10.335,0,0,1,5.7-2.361v1.84h1.888v-1.84a10.341,10.341,0,0,1,5.7,2.361L130,14.69l1.334,1.335,1.643-1.643a10.326,10.326,0,0,1,2.361,5.7H133.5v1.888h1.84a10.226,10.226,0,0,1-.355,1.888h-7.323a2.83,2.83,0,0,0-1.714-1.714V16.3H124.06v5.837a2.83,2.83,0,0,0-1.714,1.714h-7.323a10.38,10.38,0,0,1-.355-1.888h1.841V20.077ZM125.948,24.8a.944.944,0,1,1-.944-.944A.945.945,0,0,1,125.948,24.8Zm-9.439,21.71H99.519V21.965h13.263a12.226,12.226,0,0,0,3.728,7.89Zm-.742-20.766h6.579a2.815,2.815,0,0,0,5.316,0h6.579a10.365,10.365,0,0,1-18.474,0ZM80.641,63.5V59.721h50.026v-1l4.039,2.886-4.039,2.886v-1Z" transform="translate(2245.004 1225.869)" fill="#1b54f8"></path><path id="Path_541" data-name="Path 541" d="M288.75,218.75h13.215v1.888H288.75Z" transform="translate(2057.661 1038.523)" fill="#1b54f8"></path><path id="Path_542" data-name="Path 542" d="M288.75,183.75h11.327v1.888H288.75Z" transform="translate(2057.661 1069.747)" fill="#1b54f8"></path><path id="Path_543" data-name="Path 543" d="M300.077,255.638h-1.888V261.3H296.3V253.75h-1.888V261.3h-1.888v-3.776h-1.888V261.3H288.75v1.888h13.215V261.3h-1.888Z" transform="translate(2057.661 1007.298)" fill="#1b54f8"></path><path id="Path_544" data-name="Path 544" d="M341.25,411.25h1.888v1.888H341.25Z" transform="translate(2010.824 866.788)" fill="#1b54f8"></path><path id="Path_545" data-name="Path 545" d="M376.25,411.25h1.888v1.888H376.25Z" transform="translate(1979.6 866.788)" fill="#1b54f8"></path><path id="Path_546" data-name="Path 546" d="M306.25,411.25h1.888v1.888H306.25Z" transform="translate(2042.049 866.788)" fill="#1b54f8"></path><path id="Path_547" data-name="Path 547" d="M288.75,148.75h9.439v1.888H288.75Z" transform="translate(2057.661 1100.971)" fill="#1b54f8"></path></g></g></svg> 