<?xml version="1.0" encoding="UTF-8"?> <svg xmlns="http://www.w3.org/2000/svg" width="90" height="90" viewBox="0 0 90 90" fill="none"><mask id="mask0_2_314" style="mask-type:luminance" maskUnits="userSpaceOnUse" x="0" y="0" width="90" height="90"><path d="M90 0H0V90H90V0Z" fill="white"></path></mask><g mask="url(#mask0_2_314)"><path d="M40.8 44.7H37.95V41.85H40.8V44.7ZM40.8 47.7H37.95V50.55H40.8V47.7ZM40.8 36.15H37.95V39H40.8V36.15ZM37.95 53.4V56.25H40.8V53.4H37.95ZM40.8 30.3H37.95V33.15H40.8V30.3ZM52.8 30.3H49.95V33.15H52.8V30.3ZM52.8 47.7H49.95V50.55H52.8V47.7ZM49.95 53.4V56.25H52.8V53.4H49.95ZM52.8 41.85H49.95V44.7H52.8V41.85ZM52.8 36.15H49.95V39H52.8V36.15ZM45.3 67.35C54.6 67.35 62.1 59.85 62.1 50.55C62.1 47.4 61.2 44.4 59.55 41.7C59.1 40.95 58.2 40.8 57.6 41.25C56.85 41.7 56.7 42.6 57.15 43.2C58.5 45.45 59.25 47.85 59.25 50.55C59.25 58.2 52.95 64.5 45.3 64.5C37.65 64.5 31.35 58.2 31.35 50.55C31.35 48.3 31.8 46.2 32.85 44.1C33.15 43.35 33 42.45 32.25 42.15C31.5 41.85 30.6 42 30.3 42.75C29.1 45.15 28.5 47.85 28.5 50.4C28.5 59.7 36 67.35 45.3 67.35ZM33 17.1H37.95V28.95H40.8V15.6C40.8 14.85 40.2 14.1 39.3 14.1H36.15L45.15 4.05003L54.45 14.1H51.3C50.55 14.1 49.8 14.7 49.8 15.6V28.95H51.3H52.8V17.1H57.75C58.35 17.1 58.8 16.8 59.1 16.2C59.4 15.6 59.25 15 58.8 14.7L46.2 1.05003C45.9 0.75003 45.6 0.600037 45.15 0.600037C44.7 0.600037 44.4 0.75003 44.1 1.05003L31.95 14.7C31.5 15.15 31.5 15.75 31.65 16.2C31.95 16.8 32.4 17.1 33 17.1ZM52.65 78.3V72.45C53.85 72 55.2 71.55 56.25 70.95L60.45 75.15C61.05 75.75 61.95 75.75 62.55 75.15L70.95 66.75C71.55 66.15 71.55 65.25 70.95 64.65L66.75 60.45C67.35 59.25 67.8 58.05 68.25 56.85H74.1C74.85 56.85 75.6 56.25 75.6 55.35V43.5C75.6 42.75 75 42 74.1 42H68.25C67.8 40.8 67.35 39.45 66.75 38.4L70.95 34.2C71.55 33.6 71.55 32.7 70.95 32.1L64.35 25.5C63.75 24.9 62.85 24.9 62.25 25.5C61.65 26.1 61.65 27 62.25 27.6L67.8 33.15L63.9 37.05C63.45 37.5 63.3 38.25 63.6 38.85C64.5 40.35 65.25 42.15 65.7 43.8C65.85 44.4 66.45 44.85 67.05 44.85H72.6V53.85H67.05C66.45 53.85 65.85 54.3 65.7 54.9C65.25 56.7 64.5 58.35 63.6 59.85C63.3 60.45 63.3 61.2 63.9 61.65L67.8 65.55L61.5 71.85L57.6 67.95C57.15 67.5 56.4 67.35 55.8 67.65C54.3 68.55 52.5 69.3 50.85 69.75C50.25 69.9 49.8 70.5 49.8 71.1V76.65H40.8V71.1C40.8 70.5 40.35 69.9 39.75 69.75C37.95 69.3 36.3 68.55 34.8 67.65C34.2 67.35 33.45 67.35 33 67.95L29.1 71.85L22.8 65.55L26.7 61.65C27.15 61.2 27.3 60.45 27 59.85C26.1 58.35 25.35 56.55 24.9 54.9C24.75 54.3 24.15 53.85 23.55 53.85H18V44.85H23.55C24.15 44.85 24.75 44.4 24.9 43.8C25.35 42 26.1 40.35 27 38.85C27.3 38.25 27.3 37.5 26.7 37.05L22.8 33.15L28.35 27.6C28.95 27 28.95 26.1 28.35 25.5C27.75 24.9 26.85 24.9 26.25 25.5L19.65 32.1C19.05 32.7 19.05 33.6 19.65 34.2L23.85 38.4C23.25 39.6 22.8 40.8 22.35 42H16.5C15.75 42 15 42.6 15 43.5V55.35C15 56.1 15.6 56.85 16.5 56.85H22.35C22.8 58.05 23.25 59.4 23.85 60.45L19.65 64.65C19.05 65.25 19.05 66.15 19.65 66.75L28.05 75.15C28.65 75.75 29.55 75.75 30.15 75.15L34.35 70.95C35.55 71.55 36.75 72 37.95 72.45V78.3C37.95 79.05 38.55 79.8 39.45 79.8H51.3C52.05 79.65 52.65 79.05 52.65 78.3ZM85.95 49.35C85.95 71.7 67.8 89.85 45.45 89.85C44.7 89.85 43.95 89.25 43.95 88.35C43.95 87.6 44.55 86.85 45.45 86.85C66.15 86.85 83.1 69.9 83.1 49.2C83.1 38.4 78.45 28.2 70.35 21L70.95 21.9C71.4 22.65 71.1 23.4 70.5 23.85C70.2 24 70.05 24 69.75 24C69.3 24 68.85 23.7 68.55 23.25L65.7 18.3C65.4 17.85 65.4 17.25 65.7 16.8C66 16.35 66.45 16.05 66.9 16.05H72.6C73.5 16.05 74.1 16.65 74.1 17.4C74.1 18.15 73.5 18.75 72.75 18.9C81 27 85.95 37.8 85.95 49.35ZM69.45 19.8C69.45 19.65 69.45 19.5 69.6 19.2H69.15L69.45 19.8ZM9.30002 60.6C9.00002 59.85 8.25 59.4 7.5 59.7C6.75 60 6.29999 60.75 6.59999 61.5C6.89999 62.4 7.20001 63.45 7.65001 64.35C7.80001 64.95 8.4 65.25 9 65.25C9.15 65.25 9.29999 65.25 9.59999 65.1C10.35 64.8 10.65 63.9 10.35 63.15C9.89999 62.25 9.60002 61.35 9.30002 60.6ZM25.5 81.3C24.75 80.85 24 80.25 23.25 79.8C22.65 79.35 21.75 79.5 21.3 80.1C20.85 80.7 21 81.6 21.6 82.05C22.35 82.65 23.25 83.25 24 83.7C24.3 83.85 24.45 83.85 24.75 83.85C25.2 83.85 25.65 83.55 25.95 83.1C26.25 82.65 26.1 81.75 25.5 81.3ZM21.15 20.1C21.45 20.1 21.75 19.95 22.05 19.8C22.8 19.2 23.55 18.6 24.3 18.15C24.9 17.7 25.2 16.8 24.75 16.2C24.3 15.6 23.4 15.3 22.8 15.75C22.05 16.35 21.15 16.95 20.4 17.55C19.8 18 19.65 18.9 20.1 19.65C20.25 19.95 20.7 20.1 21.15 20.1ZM7.80002 51.45C7.80002 50.7 7.80002 50.1 7.80002 49.35C7.80002 49.05 7.80002 48.9 7.80002 48.6C7.80002 47.85 7.20003 47.1 6.45003 47.1C5.70003 47.1 4.95003 47.7 4.95003 48.45C4.95003 48.75 4.95003 48.9 4.95003 49.2C4.95003 49.95 4.95003 50.7 4.95003 51.45C4.95003 52.2 5.70003 52.8 6.45003 52.8C6.45003 52.8 6.44999 52.8 6.59999 52.8C7.19999 52.95 7.80002 52.2 7.80002 51.45ZM36.45 85.95C35.55 85.8 34.65 85.5 33.75 85.2C33 84.9 32.25 85.35 31.95 86.1C31.65 86.85 32.1 87.6 32.85 87.9C33.75 88.2 34.8 88.5 35.7 88.65C35.85 88.65 36 88.65 36 88.65C36.6 88.65 37.2 88.2 37.35 87.6C37.8 87 37.2 86.1 36.45 85.95ZM13.95 28.65C14.4 27.9 15 27.15 15.6 26.4C16.05 25.8 16.05 24.9 15.3 24.45C14.7 24 13.8 24 13.35 24.75C12.75 25.5 12.15 26.4 11.55 27.15C11.1 27.75 11.25 28.65 12 29.1C12.3 29.25 12.45 29.4 12.75 29.4C13.2 29.25 13.65 29.1 13.95 28.65ZM7.20003 40.5C7.35003 40.5 7.50001 40.5 7.65001 40.5C8.25001 40.5 8.85 40.05 9 39.45C9.3 38.55 9.45001 37.65 9.90001 36.75C10.2 36 9.75 35.1 9 34.95C8.25 34.65 7.35003 35.1 7.20003 35.85C6.90003 36.75 6.60002 37.8 6.30002 38.7C6.00002 39.6 6.45003 40.35 7.20003 40.5ZM14.7 71.25C14.25 70.65 13.35 70.5 12.75 70.95C12.15 71.4 12 72.3 12.45 72.9C13.05 73.65 13.65 74.55 14.25 75.3C14.55 75.6 15 75.75 15.3 75.75C15.6 75.75 15.9 75.6 16.2 75.45C16.8 75 16.95 74.1 16.35 73.35C15.75 72.75 15.3 72 14.7 71.25Z" fill="#1B54F8" stroke="white" stroke-width="0.1" stroke-miterlimit="10"></path></g></svg> 