<?xml version="1.0" encoding="UTF-8"?> <svg xmlns="http://www.w3.org/2000/svg" id="Layer_1" data-name="Layer 1" viewBox="0 0 80 80"><defs><style>.cls-1{fill:#1b54f8;}</style></defs><path class="cls-1" d="M63.9,40.9v-8a4.44,4.44,0,0,0-4.4-4.4h-23a4.14,4.14,0,0,0-1.9.5,11,11,0,0,0-4.9-3.3,7,7,0,1,0-7.6.1,11.46,11.46,0,0,0-7.7,10.8V41H12.6V67.5H67.4V40.9ZM41.8,55V51.5H54.2V55Zm-5.3-5.3A2.69,2.69,0,0,1,33.8,47v-.9H62.1V47a2.69,2.69,0,0,1-2.7,2.7ZM59.4,30.3A2.69,2.69,0,0,1,62.1,33V44.5H33.8V32.9a2.69,2.69,0,0,1,2.7-2.7H59.4ZM20.6,19.7A5.3,5.3,0,1,1,25.9,25,5.27,5.27,0,0,1,20.6,19.7ZM16.1,36.5a9.71,9.71,0,0,1,17-6.4A4.36,4.36,0,0,0,32,33v8H20.6V33H18.8v8H16.1ZM32,42.7v4.4a4.44,4.44,0,0,0,4.4,4.4H40V55H36.5v1.8h23V55H56V51.5h3.5a4.44,4.44,0,0,0,4.4-4.4V42.7h1.8V60.4H14.4V42.7ZM14.4,65.6V62.1H65.7v3.5Z"></path><path class="cls-1" d="M24.1,58.6c2.7,0,8-1.1,8-3.5V48c0-2.5-5.3-3.5-8-3.5s-8,1.1-8,3.5v7C16.1,57.5,21.4,58.6,24.1,58.6Zm0-1.8c-3,0-6-1.2-6.2-1.8V53.6A15.88,15.88,0,0,0,24.1,55a14.28,14.28,0,0,0,6.2-1.4V55C30.1,55.6,27.1,56.8,24.1,56.8Zm0-10.6c3,0,5.9,1.2,6.2,1.8-.2.6-3.2,1.8-6.2,1.8s-6-1.2-6.2-1.7h0C18.1,47.4,21.1,46.2,24.1,46.2Zm-6.2,3.9a15.88,15.88,0,0,0,6.2,1.4,14.28,14.28,0,0,0,6.2-1.4v1.3c-.2.6-3.2,1.8-6.2,1.8s-6-1.2-6.2-1.8Z"></path><path class="cls-1" d="M37.3,21.4a4.19,4.19,0,0,0,1.5-.4l3.1,2.3a2,2,0,0,0-.1.8,2.7,2.7,0,0,0,5.4,0,2,2,0,0,0-.3-1.1l3.5-3.5a2.17,2.17,0,0,0,2.2,0l1.8,1.8a2,2,0,0,0-.3,1.1,2.7,2.7,0,0,0,5.4,0,2,2,0,0,0-.3-1.1l3.5-3.5a2,2,0,0,0,1.1.3,2.7,2.7,0,1,0-2.7-2.7,2,2,0,0,0,.3,1.1L57.9,20a2.17,2.17,0,0,0-2.2,0l-1.8-1.8a2,2,0,0,0,.3-1.1,2.7,2.7,0,0,0-5.4,0,2,2,0,0,0,.3,1.1l-3.5,3.5a2,2,0,0,0-1.1-.3,4.19,4.19,0,0,0-1.5.4l-3.1-2.3a2,2,0,0,0,.1-.8,2.7,2.7,0,0,0-5.4,0A2.75,2.75,0,0,0,37.3,21.4Zm26.6-7a.9.9,0,1,1-.9.9A.9.9,0,0,1,63.9,14.4Zm-6.2,7.9a.9.9,0,1,1-.9-.9A.9.9,0,0,1,57.7,22.3Zm-6.2-6.2a.9.9,0,1,1-.9.9A.9.9,0,0,1,51.5,16.1Zm-7.1,7.1a.9.9,0,1,1-.9.9A.9.9,0,0,1,44.4,23.2Zm-7.1-5.3a.9.9,0,1,1-.9.9A1.06,1.06,0,0,1,37.3,17.9Z"></path><path class="cls-1" d="M59.4,40.9H57.6V32H52.3v8.8H50.5V35.5H45.2v5.3H43.4V33.7H38.1v7.1H36.3v1.8h23V40.9Zm-5.3-7.1h1.8v7.1H54.1Zm-7,3.5h1.8v3.5H47.1ZM40,35.6h1.8v5.3H40Z"></path></svg> 