<?xml version="1.0" encoding="UTF-8"?> <svg xmlns="http://www.w3.org/2000/svg" xmlns:xlink="http://www.w3.org/1999/xlink" width="90" height="90" viewBox="0 0 90 90"><defs><clipPath id="clip-path"><rect id="Rectangle_9" data-name="Rectangle 9" width="90" height="90" transform="translate(597 354)" fill="#fff" stroke="#707070" stroke-width="1"></rect></clipPath></defs><g id="Mask_Group_12" data-name="Mask Group 12" transform="translate(-597 -354)" clip-path="url(#clip-path)"><g id="Group_239" data-name="Group 239" transform="translate(113.972 93.708)"><path id="Path_264" data-name="Path 264" d="M109.511,89.525a1.187,1.187,0,0,1-1.192,1.192h-16.1a1.192,1.192,0,0,1,0-2.385h16.1a1.193,1.193,0,0,1,1.193,1.192ZM92.223,77.467h15.8a1.192,1.192,0,1,0,0-2.385h-15.8a1.193,1.193,0,0,0,0,2.385ZM111.384,61.83H92.223a1.192,1.192,0,1,0,0,2.385h19.161a1.192,1.192,0,1,0,0-2.385ZM92.223,50.964h28.208a1.192,1.192,0,1,0,0-2.385H92.223a1.193,1.193,0,0,0,0,2.385Zm75.286,28.667a27.4,27.4,0,0,1-34.728,26.388H90.111A6.732,6.732,0,0,1,83.388,99.3v-65.3a6.732,6.732,0,0,1,6.723-6.723h45.47a6.732,6.732,0,0,1,6.723,6.723V52.334a27.416,27.416,0,0,1,25.2,27.3ZM119.2,37.491l4.744-3.127a1.189,1.189,0,0,1,1.316,0l4.744,3.127V29.646H119.2Zm7.748,66.142a27.385,27.385,0,0,1,12.977-51.389V33.992a4.349,4.349,0,0,0-4.346-4.346h-3.189V39.708a1.191,1.191,0,0,1-.627,1.051,1.2,1.2,0,0,1-1.22-.053l-5.937-3.914-5.937,3.914a1.192,1.192,0,0,1-1.846-1V29.646H90.111a4.349,4.349,0,0,0-4.346,4.346V99.286a4.349,4.349,0,0,0,4.346,4.346Zm38.182-24a25,25,0,1,0-25,25A25.029,25.029,0,0,0,165.132,79.631Zm-2.456.8-2.88,1.219a1.725,1.725,0,0,1-.7.141,1.757,1.757,0,0,1-.672-.132,1.775,1.775,0,0,1-.927-.866,2.447,2.447,0,0,0-.972,1.025,5.809,5.809,0,0,1-2.058,2.094,3.546,3.546,0,0,1,.389,1.378,3.46,3.46,0,0,1-3.243,3.675,2.045,2.045,0,0,1-.23.009,3,3,0,0,1-.406-.027,3.362,3.362,0,0,1-.786,1.563,3.428,3.428,0,0,1-3.278,1.1,3.457,3.457,0,0,1-3.137,2.58,2.045,2.045,0,0,1-.23.009,3.393,3.393,0,0,1-.733-.079A3.418,3.418,0,0,1,139.5,96.67,3.562,3.562,0,0,1,137.426,96a3.534,3.534,0,0,1-1.661.548,2.045,2.045,0,0,1-.23.009,3.446,3.446,0,0,1-3.419-2.978h-.009a3.479,3.479,0,0,1-2.288-.857,3.412,3.412,0,0,1-1.139-2.147,3.459,3.459,0,0,1-3.419-2.933H125.2a3.463,3.463,0,0,1-2.6-5.751l.99-1.122a4.319,4.319,0,0,0-1.2-.362,1.754,1.754,0,0,1-1,.654,1.823,1.823,0,0,1-.433.053,1.8,1.8,0,0,1-.919-.256l-2.677-1.616a1.781,1.781,0,0,1-.813-1.1,1.762,1.762,0,0,1,.2-1.351l8.039-13.313a1.781,1.781,0,0,1,1.1-.813,1.763,1.763,0,0,1,1.351.2l2.677,1.616a1.781,1.781,0,0,1,.813,1.1,1.691,1.691,0,0,1-.053,1.025,5.288,5.288,0,0,0,3.6.707,4.479,4.479,0,0,1,2.217.2,22.824,22.824,0,0,1,2.138-1.581.464.464,0,0,1,.115-.062c1.935-.98,4-.495,6.184.026,2.05.486,4.161.99,6.4.344a1.783,1.783,0,0,1,.044-1.228,1.762,1.762,0,0,1,.963-.972l2.88-1.219a1.793,1.793,0,0,1,1.369-.009,1.762,1.762,0,0,1,.972.963l6.06,14.329a1.789,1.789,0,0,1-.953,2.326ZM128.487,65.682m-.309.512-1.661-1-7.43,12.3,1.661,1Zm-2.907,19.055a1.07,1.07,0,0,0,.742-.362l2.421-2.747a1.093,1.093,0,0,0,.265-.786,1.07,1.07,0,0,0-.362-.742,1.054,1.054,0,0,0-.715-.265h-.071a1.07,1.07,0,0,0-.742.362l-2.421,2.747a1.079,1.079,0,0,0,.1,1.528,1.1,1.1,0,0,0,.786.265Zm2.695,2.668a1.079,1.079,0,0,0,1.528-.1l1.378-1.573,1.043-1.184a1.093,1.093,0,0,0,.265-.786,1.08,1.08,0,0,0-1.891-.645.244.244,0,0,1-.062.071l-2.359,2.677a1.089,1.089,0,0,0,.1,1.537Zm4.947,2.907.018-.018.256-.291,1.387-1.581a1.093,1.093,0,0,0,.265-.786,1.07,1.07,0,0,0-.362-.742,1.054,1.054,0,0,0-.715-.265h-.071a1.07,1.07,0,0,0-.742.362l-1.67,1.9a1.093,1.093,0,0,0-.265.786,1.07,1.07,0,0,0,.362.742,1.1,1.1,0,0,0,1.537-.106Zm3.445,2.986.256-.291a1.093,1.093,0,0,0,.265-.786,1.07,1.07,0,0,0-.362-.742,1.087,1.087,0,0,0-.715-.265,1.067,1.067,0,0,0-.813.371l-.256.291a1.08,1.08,0,0,0,.884,1.793A1.156,1.156,0,0,0,136.358,93.809Zm4.2-.662a1.07,1.07,0,0,0-.362-.742l-1.272-1.122a3.364,3.364,0,0,1,.336,1.29,3.461,3.461,0,0,1-.274,1.59,1.084,1.084,0,0,0,1.308-.23,1.059,1.059,0,0,0,.264-.786Zm11.917-7.712a1.07,1.07,0,0,0-.362-.742L140.06,74.109c-.336-.2-.468-.132-.512-.106a1.707,1.707,0,0,0-.566,1.325,5.572,5.572,0,0,1-2.288,4.55,4.919,4.919,0,0,1-3,1.1,3.994,3.994,0,0,1-1.29-.212,1.2,1.2,0,0,1-.742-.733,1.178,1.178,0,0,1,.124-1.043,4.547,4.547,0,0,0,.353-3.428c-.265-1.74-.583-3.887,1.74-5.848a7.269,7.269,0,0,1-4.391-1.06l-5.8,9.6a4.119,4.119,0,0,1,1.493.707,3.46,3.46,0,0,1,4.726-.141,3.377,3.377,0,0,1,1.131,2.076,3.438,3.438,0,0,1,2.35.857,3.4,3.4,0,0,1,1.166,2.385,3.063,3.063,0,0,1-.026.7,3.455,3.455,0,0,1,1.528.778A3.4,3.4,0,0,1,137.214,88a3.439,3.439,0,0,1-.256,1.555,3.29,3.29,0,0,1,.9.486,1.186,1.186,0,0,1,1.952-1.1l3,2.641a1.093,1.093,0,0,0,.786.265,1.07,1.07,0,0,0,.742-.362,1.093,1.093,0,0,0,.265-.786,1.07,1.07,0,0,0-.362-.742l-4.735-4.161A1.189,1.189,0,0,1,141.083,84l5.76,5.062a1.083,1.083,0,0,0,1.431-1.626l-5.583-4.9a1.189,1.189,0,0,1,1.573-1.785l6.379,5.61a1.093,1.093,0,0,0,.786.265,1.07,1.07,0,0,0,.742-.362,1.143,1.143,0,0,0,.3-.831Zm4.081-6.847L152.26,68.429c-2.942.927-5.654.291-7.871-.238-1.793-.424-3.357-.795-4.505-.247a25.886,25.886,0,0,0-2.968,2.332c-.442.389-.866.76-1.281,1.069-1.546,1.175-1.4,2.182-1.139,3.851a8.874,8.874,0,0,1,.071,3.189,3.62,3.62,0,0,0,.689-.406,3.245,3.245,0,0,0,1.361-2.5,4.014,4.014,0,0,1,1.732-3.533,2.777,2.777,0,0,1,3.013.15c.009.009.018.009.027.018a.068.068,0,0,0,.035.018c.053.035.1.071.141.106l11.228,9.868a3.7,3.7,0,0,0,1.714-1.563,4.678,4.678,0,0,1,2.049-1.954Zm3.092,1.184C159.637,79.772,159.637,79.763,159.646,79.772Zm1.546-1.307L155.6,65.231l-1.785.751,5.592,13.234Z" transform="translate(402.64 238.022)" fill="#1b54f8" stroke="#fff" stroke-width="0.4"></path></g></g></svg> 