<?xml version="1.0" encoding="UTF-8"?> <svg xmlns="http://www.w3.org/2000/svg" id="Layer_1" data-name="Layer 1" viewBox="0 0 94 94"><defs><style>.cls-1{fill:none;stroke:#1b54f8;stroke-miterlimit:10;stroke-width:4px;}.cls-2{fill:#1b54f8;}</style></defs><circle class="cls-1" cx="47" cy="47" r="44.6"></circle><circle class="cls-2" cx="56.4" cy="34.9" r="1.5"></circle><path class="cls-2" d="M60.3,30.9a5.6,5.6,0,0,0-4.6-1.6.46.46,0,0,0-.4.5v.9a.37.37,0,0,0,.1.3h0c.1.1.2.1.4.1A3.57,3.57,0,0,1,59,32.2a4.07,4.07,0,0,1,1.1,3.2.6.6,0,0,0,.1.4h0a.37.37,0,0,0,.3.1h.9a.66.66,0,0,0,.5-.4A5.6,5.6,0,0,0,60.3,30.9Z"></path><path class="cls-2" d="M63.1,28.2a9.94,9.94,0,0,0-7.4-2.8.46.46,0,0,0-.4.5v.9a.37.37,0,0,0,.1.3h0a.37.37,0,0,0,.3.1,7.53,7.53,0,0,1,6,2.2,7.41,7.41,0,0,1,2.2,6c0,.1,0,.3.1.3h0a.37.37,0,0,0,.3.1h.9a.66.66,0,0,0,.5-.4A8.9,8.9,0,0,0,63.1,28.2Z"></path><path class="cls-2" d="M70.1,35.5A13.7,13.7,0,0,0,55.8,21.2a.46.46,0,0,0-.4.5v.9a.37.37,0,0,0,.1.3h0a.37.37,0,0,0,.3.1A12,12,0,0,1,68.3,35.5a.37.37,0,0,0,.1.3h0a.37.37,0,0,0,.3.1h.9A.46.46,0,0,0,70.1,35.5Z"></path><path class="cls-2" d="M59.2,42.4a25.8,25.8,0,0,0-10.7-1.3.68.68,0,0,1-.5-.3,4,4,0,0,0-1-1.2c-.1-.1-.3-.3-.1-.5a30.13,30.13,0,0,0,0-10c-1-7.1-3.7-12.6-6.1-12.4-2.3.4-3.3,6.4-2.3,13.5a28.09,28.09,0,0,0,3.1,10,.3.3,0,0,1,0,.4,1.14,1.14,0,0,1-.3.6,4.14,4.14,0,0,0-.1,1c0,.3-.1.4-.4.5a26.21,26.21,0,0,0-9.3,5.2c-5.7,4.4-9.1,9.5-7.7,11.3s7.2-.3,12.9-4.8A41.82,41.82,0,0,0,41.5,50c.3-.4.8-.1.8.4l-1,26.7h7.5l-1-30.3c0-.4.4-.6.8-.4A31.5,31.5,0,0,0,57,50.1c7,2.1,13,1.8,13.8-.4C71.1,47.8,66.1,44.3,59.2,42.4Z"></path></svg> 