<?xml version="1.0" encoding="UTF-8"?> <!-- Generator: Adobe Illustrator 25.2.3, SVG Export Plug-In . SVG Version: 6.00 Build 0) --> <svg xmlns="http://www.w3.org/2000/svg" xmlns:xlink="http://www.w3.org/1999/xlink" version="1.1" id="Layer_1" x="0px" y="0px" viewBox="0 0 94 94" style="enable-background:new 0 0 94 94;" xml:space="preserve"> <style type="text/css"> .st0{fill:#1B54F8;} </style> <g> <desc>Created with Sketch.</desc> <g> <path class="st0" d="M78.8,37.1c-1-15.6-13.9-27.8-29.5-27.9h-0.1C32.7,9.3,19.5,22.6,19.5,39c0,1.6-0.3,3.2-1,4.7L13.9,54 c-1,2.2,0,4.8,2.2,5.7c0.1,0.1,0.3,0.1,0.4,0.2l3,1V70c0,3.8,3.1,6.9,6.9,6.9h9.3l1.8,6.4c0.3,1,1.4,1.6,2.4,1.3s1.6-1.4,1.3-2.4 L39,74.5c-0.2-0.8-1-1.4-1.9-1.4H26.4c-1.7,0-3-1.4-3-3V59.4c0-0.8-0.5-1.6-1.3-1.8l-4.3-1.4c-0.2-0.1-0.4-0.3-0.3-0.6 c0,0,0,0,0-0.1L22,45.3c0.9-2,1.3-4.1,1.3-6.3c0-14.2,11.5-25.8,25.8-25.8h0.1h0.1C63.5,13.2,75,24.8,74.9,39 c0,6.6-2.6,13-7.2,17.8c-0.5,0.5-0.7,1.2-0.5,1.9l4.2,14.9c0.3,1,1.4,1.6,2.4,1.3c1-0.3,1.6-1.4,1.3-2.4l0,0l-3.9-13.9 C76.6,52.8,79.3,45,78.8,37.1z"></path> <path class="st0" d="M39.4,84.9c-0.4,0-0.7-0.1-1-0.3c-0.5-0.3-0.9-0.7-1.1-1.3l-1.8-6.2h-9.1c-3.9,0-7.1-3.2-7.1-7.2V61l-2.9-1 h-0.1c-0.2,0-0.3,0-0.3-0.1c-1.1-0.5-1.9-1.3-2.4-2.4c-0.5-1.1-0.4-2.4,0.1-3.6l4.6-10.3c0.6-1.4,1-2.9,1-4.6 c0-16.5,13.4-30,29.9-30h0.1C65,9.1,78,21.4,79,37.1l0,0c0.5,8-2.3,15.8-7.6,21.6l3.9,13.8c0.3,1.1-0.3,2.4-1.5,2.7 c-0.5,0.2-1.1,0.1-1.7-0.2c-0.5-0.3-0.9-0.7-1.1-1.3l-4-14.9c-0.2-0.8,0-1.6,0.6-2.1c4.6-4.8,7.1-11.1,7.1-17.6 c0-6.8-2.6-13.2-7.4-18.1c-4.8-4.8-11.2-7.5-18-7.5h-0.2C35,13.5,23.5,24.9,23.5,39c0,2.3-0.4,4.4-1.3,6.4l-4.5,10.3 c0,0-0.1,0.2,0.2,0.3l4.3,1.4c0.8,0.2,1.5,1.1,1.5,2v10.7c0,1.5,1.2,2.8,2.8,2.8h10.7c1,0,1.9,0.7,2.1,1.6l2.2,7.7 c0.2,0.5,0.1,1.1-0.2,1.7C41,84.4,40.6,84.8,40,85C39.8,84.9,39.6,84.9,39.4,84.9z M16.6,59.7l3.1,1V70c0,3.7,3,6.7,6.6,6.7h9.5 l1.9,6.6c0.1,0.4,0.4,0.8,0.8,1s0.9,0.3,1.3,0.1c0.4-0.1,0.8-0.4,1-0.8s0.3-0.9,0.1-1.3l-2.2-7.7c-0.2-0.7-0.9-1.2-1.7-1.2H26.4 c-1.8,0-3.2-1.5-3.2-3.2V59.4c0-0.6-0.4-1.4-1.1-1.6l-4.3-1.4c-0.4-0.2-0.6-0.5-0.5-0.9v-0.2l4.5-10.2c0.9-1.9,1.3-3.9,1.3-6.2 c0-14.4,11.7-26,26-26h0.2c6.9,0,13.4,2.7,18.3,7.6s7.6,11.5,7.5,18.4c0,6.7-2.6,13.1-7.3,18c-0.5,0.5-0.6,1.1-0.4,1.7l4.2,14.9 c0.1,0.4,0.4,0.8,0.8,1s0.9,0.3,1.3,0.1c0.9-0.3,1.4-1.2,1.1-2.1l-3.9-14l0.1-0.1c5.3-5.7,8-13.4,7.5-21.3 c-1-15.4-13.8-27.6-29.3-27.7h-0.1C33,9.5,19.8,22.8,19.8,39c0,1.7-0.3,3.4-1,4.8l-4.6,10.3c-0.5,1-0.5,2.1-0.1,3.2 c0.4,1,1.2,1.8,2.1,2.2l0.1,0.1h0.1C16.5,59.6,16.5,59.6,16.6,59.7z"></path> </g> <g> <path class="st0" d="M48.3,61.1c1.1,0,1.9-0.9,1.9-1.9V45.7c3.5-1.1,5.4-4.7,4.3-8.2c-0.9-2.7-3.4-4.6-6.3-4.6l0,0 c-3.6,0-6.5,2.9-6.5,6.5c0,2.9,1.9,5.4,4.6,6.3v13.4C46.4,60.2,47.3,61.1,48.3,61.1z M46.5,37.6c0.5-0.5,1.2-0.8,1.9-0.8l0,0 c1.5,0,2.7,1.2,2.7,2.7s-1.2,2.7-2.7,2.7l0,0c-1.5,0-2.7-1.2-2.7-2.7C45.7,38.8,46,38.1,46.5,37.6L46.5,37.6z"></path> <path class="st0" d="M48.3,61.3c-1.1,0-2.1-1-2.2-2.2V45.9c-2.8-1-4.6-3.6-4.6-6.5c0-3.7,3-6.8,6.8-6.8c3,0,5.6,1.9,6.5,4.8 c1.1,3.6-0.8,7.3-4.3,8.5v13.3C50.5,60.4,49.5,61.3,48.3,61.3z M48.2,33.1c-3.4,0-6.2,2.8-6.2,6.2c0,2.7,1.8,5.2,4.4,6.1l0.2,0.1 v13.6c0.1,1,0.9,1.8,1.8,1.8c0.9,0,1.7-0.7,1.7-1.6V45.5l0.2-0.1c3.4-1.1,5.2-4.5,4.1-7.9C53.4,34.9,50.9,33.1,48.2,33.1z M48.4,42.5c-1.6,0-3-1.3-3-3c0-0.8,0.3-1.5,0.9-2.1c0.6-0.6,1.3-0.9,2.1-0.9c1.6,0,2.9,1.3,2.9,3S50,42.5,48.4,42.5z M48.4,37 c-0.6,0-1.3,0.3-1.7,0.7S46,38.9,46,39.5c0,1.4,1.1,2.5,2.5,2.5s2.4-1.1,2.4-2.5S49.8,37,48.4,37z"></path> </g> <g> <path class="st0" d="M41.7,63.1c1.1,0,1.9-0.9,1.9-1.9v-8.5c0-0.7-0.4-1.4-1-1.7L35,46.5v-2.8c3.5-1.1,5.4-4.7,4.3-8.2 c-0.9-2.7-3.4-4.6-6.3-4.6l0,0c-3.6,0-6.5,2.9-6.5,6.5c0,2.9,1.9,5.4,4.6,6.3v3.9c0,0.7,0.4,1.3,1,1.7l7.7,4.3v7.5 C39.8,62.2,40.7,63.1,41.7,63.1z M31.2,35.6c0.5-0.5,1.2-0.8,1.9-0.8l0,0c1.5,0,2.7,1.2,2.7,2.7s-1.2,2.7-2.7,2.7l0,0 c-1.5,0-2.7-1.2-2.7-2.7C30.4,36.8,30.7,36.1,31.2,35.6L31.2,35.6z"></path> <path class="st0" d="M41.7,63.3c-1.2,0-2.2-1-2.2-2.2v-7.4L32,49.5c-0.7-0.5-1.1-1.2-1.1-1.9v-3.7c-2.8-1-4.6-3.6-4.6-6.5 c0-3.7,3-6.8,6.8-6.8c3,0,5.6,1.9,6.5,4.8c0.6,1.8,0.4,3.6-0.4,5.2c-0.8,1.5-2.2,2.7-3.8,3.3v2.5l7.5,4.4c0.7,0.3,1.1,1.1,1.1,1.9 v8.5C43.9,62.4,42.9,63.3,41.7,63.3z M33,31.1c-3.4,0-6.2,2.8-6.2,6.2c0,2.7,1.8,5.2,4.4,6.1l0.2,0.1v4.1c0,0.6,0.3,1.1,0.9,1.5 l7.8,4.4v7.6c0,0.9,0.8,1.8,1.7,1.8s1.6-0.7,1.6-1.6v-8.5c0-0.6-0.4-1.2-0.9-1.5l-7.7-4.6v-3.1l0.2-0.1c3.4-1.1,5.2-4.5,4.1-7.9 C38.2,32.9,35.7,31.1,33,31.1z M33.1,40.5c-1.6,0-3-1.3-3-3c0-0.8,0.3-1.5,0.9-2.1s1.3-0.9,2.1-0.9c1.6,0,2.9,1.3,2.9,3 S34.7,40.5,33.1,40.5z M33.1,35c-0.6,0-1.3,0.3-1.7,0.7s-0.7,1.1-0.7,1.7c0,1.4,1.1,2.5,2.5,2.5c1.4,0,2.4-1.1,2.4-2.5 S34.5,35,33.1,35z"></path> </g> <g> <path class="st0" d="M55,63c1.1,0,1.9-0.9,1.9-1.9v-7.4l7.7-4.3c0.6-0.3,1-1,1-1.7v-3.9c3.5-1.1,5.4-4.7,4.3-8.2 C69,32.8,66.5,31,63.6,31l0,0c-3.6,0-6.5,2.9-6.5,6.6c0,2.9,1.9,5.4,4.6,6.2v2.8L54,50.8c-0.6,0.3-1,1-1,1.7v8.6 C53,62.2,53.9,63,55,63z M61.8,35.6c0.5-0.5,1.2-0.8,1.9-0.8l0,0c1.5,0,2.7,1.2,2.7,2.7s-1.2,2.7-2.7,2.7l0,0 c-1.5,0-2.7-1.2-2.7-2.7C61,36.8,61.3,36.1,61.8,35.6L61.8,35.6z"></path> <path class="st0" d="M55,63.2c-1.3,0-2.2-0.9-2.2-2.2v-8.6c0-0.8,0.5-1.6,1.1-1.9l7.6-4.1V44c-2.7-0.9-4.6-3.5-4.6-6.4 c0-3.8,3-6.9,6.8-6.9c3,0,5.6,1.9,6.5,4.8c1.1,3.6-0.8,7.2-4.3,8.5v3.7c0,0.8-0.5,1.6-1.1,1.9l-7.6,4.2v7.3 C57.2,62.3,56.2,63.2,55,63.2z M63.6,31.2c-3.5,0-6.2,2.8-6.2,6.4c0,2.7,1.8,5.2,4.4,6l0.2,0.1v3.1L54.1,51 c-0.5,0.3-0.9,0.9-0.9,1.5v8.6c0,0.9,0.8,1.7,1.8,1.7c0.9,0,1.7-0.7,1.7-1.7v-7.5l0.1-0.1l7.7-4.3c0.5-0.3,0.9-0.9,0.9-1.5v-4.1 l0.2-0.1c3.4-1.1,5.2-4.5,4.1-7.9C68.8,33,66.4,31.2,63.6,31.2z M63.7,40.5c-1.6,0-3-1.3-3-3c0-0.8,0.3-1.5,0.9-2.1 c0.6-0.6,1.3-0.9,2.1-0.9c1.6,0,3,1.3,3,3S65.3,40.5,63.7,40.5z M63.7,35c-0.6,0-1.3,0.3-1.7,0.7s-0.7,1.1-0.7,1.7 c0,1.4,1.1,2.5,2.5,2.5c1.4,0,2.5-1.1,2.5-2.5S65.1,35,63.7,35z"></path> </g> </g> </svg> 