<?xml version="1.0" encoding="UTF-8"?> <svg xmlns="http://www.w3.org/2000/svg" width="60" height="60" viewBox="0 0 60 60" fill="none"><mask id="mask0_1_33" style="mask-type:alpha" maskUnits="userSpaceOnUse" x="0" y="0" width="60" height="60"><rect width="60" height="60" fill="#D9D9D9"></rect></mask><g mask="url(#mask0_1_33)"><path d="M54.5897 5.26892H29.6979C26.7064 5.26892 24.2869 7.63469 24.2869 10.5597V20.5187C24.2869 21.0779 24.732 21.5156 25.3065 21.5156C25.8784 21.5156 26.326 21.0804 26.326 20.5187V10.5597C26.326 8.75558 27.7907 7.32347 29.6358 7.32347H54.5893C56.4344 7.32347 57.899 8.75558 57.899 10.5597V32.6563C57.899 34.4604 56.4344 35.8925 54.5893 35.8925H29.6975C28.2975 35.8925 27.0865 35.0828 26.6414 33.8379C26.4499 33.3395 25.8133 33.0915 25.3035 33.2787C24.7938 33.4659 24.5401 34.0884 24.7316 34.5868C25.5597 36.5781 27.5316 37.8862 29.7596 37.8862H35.3621L31.0353 54.8135C30.9084 55.3727 31.2267 55.9344 31.7987 56.0584C31.8633 56.0584 31.9901 56.1216 32.0523 56.1216C32.4974 56.1216 32.9425 55.8104 33.0719 55.3752L35.4914 45.7274H48.8597L51.2792 55.3117C51.4061 55.7469 51.789 56.0581 52.2988 56.0581C52.3635 56.0581 52.4903 56.0581 52.5524 55.9949C53.1244 55.8709 53.4426 55.3092 53.3158 54.75L48.9865 37.8203L54.589 37.8227C57.5805 37.8227 60 35.4569 60 32.532V10.5592C60 7.63423 57.5805 5.26846 54.589 5.26846L54.5897 5.26892ZM48.3506 43.7363H36.0021L37.4668 37.9471H46.824L48.3506 43.7363Z" fill="#1B54F8"></path><path d="M27.0898 30.6652C27.9179 30.23 28.5545 29.5443 28.8728 28.6739C29.4447 26.8698 28.4276 24.9393 26.6447 24.3168L22.5069 23.0087L19.0703 18.8996C18.0508 17.6547 16.7155 16.7843 15.1862 16.4098C16.5861 15.2282 17.4789 13.5456 17.4789 11.5543C17.4789 8.00691 14.5496 5.14256 10.9214 5.14256C7.29089 5.14499 4.29963 8.00678 4.29963 11.4933C4.29963 13.2974 5.1277 14.98 6.3362 16.1616C2.51668 16.7208 -0.47464 20.0203 -0.47464 23.9421V33.5899C-0.47464 35.4573 1.05215 36.9501 2.96191 36.9501C3.47167 36.9501 3.91679 36.8261 4.29976 36.7021V52.387C4.29976 54.4415 6.01803 56.1216 8.11928 56.1216C9.20096 56.1216 10.1558 55.6864 10.8571 54.94C11.5584 55.6257 12.5133 56.1216 13.5949 56.1216C15.6962 56.1216 17.4145 54.4415 17.4145 52.387V27.8641L17.6681 28.1121C18.1132 28.6105 18.6877 28.9825 19.3242 29.233L24.4169 30.8523C25.3071 31.1611 26.2617 31.0372 27.0898 30.6652ZM10.8569 7.13636C13.3385 7.13636 15.313 9.12767 15.313 11.4934C15.313 13.8592 13.2764 15.8505 10.8569 15.8505C8.43731 15.8505 6.40075 13.8592 6.40075 11.4934C6.40075 9.12767 8.3727 7.13636 10.8569 7.13636ZM25.0534 28.9218L19.9607 27.3024C19.707 27.2392 19.4509 27.0544 19.2594 26.8672L17.1582 24.3774C16.9045 24.0662 16.3948 23.9422 16.0118 24.0662C15.6289 24.1902 15.3105 24.5647 15.3105 24.9999L15.313 52.3872C15.313 53.3209 14.5496 54.0673 13.5948 54.0673C12.6399 54.0673 11.8765 53.3209 11.8765 52.3872L11.874 34.273C11.874 33.7138 11.4289 33.2761 10.8544 33.2761C10.2825 33.2761 9.83488 33.7113 9.83488 34.273L9.83736 52.3872C9.83736 53.3209 9.07397 54.0673 8.11909 54.0673C7.16421 54.0673 6.40082 53.3209 6.40082 52.3872V25.0634C6.40082 24.5041 5.9557 24.0665 5.38126 24.0665C4.80932 24.0665 4.29957 24.5017 4.29957 25.0634V33.5902C4.29957 34.3366 3.66299 34.8983 2.96172 34.8983C2.26046 34.8983 1.62387 34.2759 1.62387 33.5902L1.62636 23.9424C1.62636 20.7062 4.29951 18.0924 7.60925 18.0924H12.9556C14.6738 18.0924 16.33 18.8388 17.4117 20.147L21.0397 24.504C21.1665 24.628 21.358 24.7521 21.5495 24.8153L25.9434 26.2449C26.7068 26.493 27.0897 27.3026 26.8983 28.049C26.7714 28.4235 26.5153 28.7347 26.197 28.8587C25.8165 28.9827 25.4339 29.0458 25.0534 28.9218Z" fill="#1B54F8"></path><path d="M32.6275 18.4641C32.8189 18.6514 33.0726 18.7754 33.3909 18.7754C33.7091 18.7754 33.9006 18.6514 34.1543 18.4641L36.3823 16.2856L38.6104 18.4641C38.8018 18.6514 39.0555 18.7754 39.3738 18.7754C39.6274 18.7754 39.8835 18.6514 40.1371 18.4641C40.5201 18.0897 40.5201 17.4065 40.1371 17.032L37.9091 14.8535L40.1371 12.675C40.5201 12.3005 40.5201 11.6173 40.1371 11.2428C39.7542 10.8684 39.0555 10.8684 38.6725 11.2428L36.4444 13.4214L34.2164 11.2428C33.8334 10.8684 33.1347 10.8684 32.7517 11.2428C32.3688 11.6173 32.3688 12.3005 32.7517 12.675L34.9798 14.8535L32.7517 17.032C32.2445 17.4065 32.2445 18.0897 32.6275 18.4641Z" fill="#1B54F8"></path><path d="M50.2603 25.1871C49.8773 24.8127 49.1786 24.8127 48.7956 25.1871L46.5676 27.3657L44.3395 25.1871C43.9566 24.8127 43.2578 24.8127 42.8749 25.1871C42.4919 25.5616 42.4919 26.2448 42.8749 26.6192L45.1029 28.7978L42.8749 30.9763C42.4919 31.3507 42.4919 32.034 42.8749 32.4084C43.0663 32.5956 43.32 32.7196 43.6383 32.7196C43.8919 32.7196 44.148 32.5956 44.4016 32.4084L46.6297 30.2299L48.8577 32.4084C49.0492 32.5956 49.3029 32.7196 49.6211 32.7196C49.8748 32.7196 50.1309 32.5956 50.3845 32.4084C50.7675 32.034 50.7675 31.3508 50.3845 30.9763L48.1565 28.7978L50.3845 26.6192C50.6432 26.1816 50.6432 25.5592 50.2603 25.1871Z" fill="#1B54F8"></path><path d="M46.6973 20.2076L37.0836 21.3892C35.047 21.6372 33.5177 23.3198 33.5177 25.3719V31.7201C33.5177 32.2793 33.9628 32.717 34.5372 32.717C35.1092 32.717 35.5568 32.2818 35.5568 31.7201V25.3743C35.5568 24.3774 36.3202 23.5703 37.3397 23.4438L46.9535 22.2621C48.99 22.0141 50.5194 20.3316 50.5194 18.2795V13.9857L52.1755 15.605C52.367 15.7922 52.6206 15.9162 52.9389 15.9162C53.1925 15.9162 53.4487 15.7922 53.7023 15.605C54.0852 15.2306 54.0852 14.5474 53.7023 14.1729L50.2658 10.8127C49.8828 10.4383 49.1841 10.4383 48.8011 10.8127L45.3645 14.1729C44.9816 14.5473 44.9816 15.2306 45.3645 15.605C45.7475 15.9795 46.4462 15.9795 46.8292 15.605L48.4853 13.9857V18.2795C48.4779 19.2108 47.7144 20.0835 46.6973 20.2076Z" fill="#1B54F8"></path></g></svg> 