<?xml version="1.0" encoding="UTF-8"?> <!-- Generator: Adobe Illustrator 25.2.2, SVG Export Plug-In . SVG Version: 6.00 Build 0) --> <svg xmlns="http://www.w3.org/2000/svg" xmlns:xlink="http://www.w3.org/1999/xlink" version="1.1" id="Layer_1" x="0px" y="0px" viewBox="0 0 80 80" style="enable-background:new 0 0 80 80;" xml:space="preserve"> <style type="text/css"> .st0{fill:#1B54F8;} </style> <g> <g> <circle class="st0" cx="31.1" cy="53" r="1"></circle> </g> <g> <circle class="st0" cx="42.9" cy="37.3" r="1"></circle> </g> <g> <circle class="st0" cx="48.2" cy="43.7" r="1"></circle> </g> <g> <path class="st0" d="M61.9,45.8c5.5-9.1,3.8-20.3-3.5-27.8l-3.6,4.3c-0.2,0.2-0.4,0.3-0.7,0.3h-4.2c-0.3,1-1.5,1.9-2.6,1.9 c-1.6,0-2.8-1.2-2.8-2.8s1.2-2.8,2.8-2.8c1.1,0,2.3,0.8,2.6,1.9h3.7l3.4-4c-5.1-4.4-11.8-6.3-18.8-5.2c-5.9,1-11.2,4.5-14.7,9.4 H30c0.2,0,0.3,0.1,0.4,0.2l9,5.6c0.4-0.4,1.1-0.7,1.8-0.7c1.6,0,2.8,1.2,2.8,2.8c0,1.6-1.2,2.8-2.8,2.8s-2.8-1.2-2.8-2.8 c0-0.2,0-0.3,0.1-0.4l-8.8-5.6h-7.5c-0.9,1.6-1.6,3-2.1,4.7h8.3c0.3,0,0.6,0.2,0.8,0.4l3.4,6.2c0.2,0,0.3-0.1,0.4-0.1 c1.6,0,2.8,1.2,2.8,2.8s-1.2,2.8-2.8,2.8c-1.6,0-2.8-1.2-2.8-2.8c0-0.7,0.3-1.3,0.7-1.8l-3.1-5.7h-8.2c-0.6,2.9-0.7,5.9-0.2,8.8 L15,46.4c-0.1,0.3-0.2,0.4-0.1,0.7c0.1,0.3,0.3,0.4,0.5,0.5l5.9,2.3v2.2h6.9c0.3-1,1.3-1.9,2.6-1.9c1.6,0,2.8,1.2,2.8,2.8 s-1.2,2.8-2.8,2.8c-1.1,0-2.3-0.8-2.6-1.9h-6.8v2.7c0,2.5,2,4.5,4.5,4.5h5v6.6c0,0.4,0.3,0.9,0.9,0.9h4.4V52.8 c0-0.2,0.1-0.3,0.2-0.5l5.3-7v-5.4c-1-0.3-1.9-1.5-1.9-2.6c0-1.6,1.2-2.8,2.8-2.8s2.8,1.2,2.8,2.8c0,1.1-0.8,2.3-1.9,2.6v5.6 c0,0.2-0.1,0.3-0.2,0.5L38,53v15.5h5.5v-11c0-0.3,0.1-0.4,0.3-0.6l3.6-3.5v-7c-1-0.3-1.9-1.5-1.9-2.6c0-1.6,1.2-2.8,2.8-2.8 s2.8,1.2,2.8,2.8c0,1.1-0.8,2.3-1.9,2.6v7.4c0,0.3-0.1,0.4-0.3,0.6l-3.6,3.5v10.7h7.9c0.4,0,0.9-0.4,0.9-0.9V53.6 c3.2-2,4.9-3.9,6.7-6.3l-8.9-7.4c-0.2-0.2-0.3-0.4-0.3-0.7v-9.1c-1-0.3-1.9-1.5-1.9-2.6c0-1.6,1.2-2.8,2.8-2.8s2.8,1.2,2.8,2.8 c0,1.1-0.8,2.3-1.9,2.6v8.6l2.3,1.9l2.7-2V35c-1-0.3-1.9-1.5-1.9-2.6c0-1.6,1.2-2.8,2.8-2.8s2.8,1.2,2.8,2.8 c0,1.1-0.8,2.3-1.9,2.6v4.1c0,0.3-0.2,0.5-0.3,0.7l-2.5,1.9L61.9,45.8z"></path> </g> <g> <path class="st0" d="M34.4,36.8c0-0.5-0.4-1-1-1c-0.2,0-0.3,0-0.4,0.1c0,0,0,0-0.1,0l0,0c-0.3,0.2-0.4,0.4-0.4,0.8 c0,0.5,0.4,1,1,1S34.4,37.3,34.4,36.8z"></path> </g> <g> <circle class="st0" cx="52.5" cy="27.4" r="1"></circle> </g> <g> <path class="st0" d="M59.2,33.5c0.5,0,1-0.4,1-1s-0.4-1-1-1s-1,0.4-1,1C58.2,33,58.7,33.5,59.2,33.5L59.2,33.5L59.2,33.5z"></path> </g> <g> <circle class="st0" cx="47.2" cy="21.7" r="1"></circle> </g> <g> <path class="st0" d="M42.4,28.9c0-0.5-0.4-1-1-1s-1,0.5-1,1s0.4,1,1,1S42.4,29.4,42.4,28.9z"></path> </g> </g> </svg> 