<?xml version="1.0" encoding="UTF-8"?> <!-- Generator: Adobe Illustrator 25.2.2, SVG Export Plug-In . SVG Version: 6.00 Build 0) --> <svg xmlns="http://www.w3.org/2000/svg" xmlns:xlink="http://www.w3.org/1999/xlink" version="1.1" id="Layer_1" x="0px" y="0px" viewBox="0 0 80 80" style="enable-background:new 0 0 80 80;" xml:space="preserve"> <style type="text/css"> .st0{fill:#1B54F8;} </style> <path class="st0" d="M23.3,31.7c0-0.5-0.4-0.9-0.9-0.9c0,0,0,0,0,0c-5.4,0-9.7,4.4-9.7,9.7c-0.1,0.5,0.3,0.9,0.8,1 c0.5,0.1,0.9-0.3,1-0.8c0-0.1,0-0.1,0-0.2c0-4.4,3.6-8,8-8c0,0,0,0,0,0C22.9,32.5,23.3,32.2,23.3,31.7z"></path> <path class="st0" d="M30.9,13c-2.8,0-5.1,2.3-5.1,5.1c0,0,0,0,0,0c0.1,0.5,0.5,0.8,1,0.8c0.4,0,0.7-0.4,0.8-0.8 c-0.1-1.8,1.3-3.4,3.1-3.5c1.8-0.1,3.4,1.3,3.5,3.1c0,0.1,0,0.2,0,0.4c0.1,0.5,0.5,0.8,1,0.8c0.4,0,0.7-0.4,0.8-0.8 C36,15.3,33.7,13,30.9,13C30.9,13,30.9,13,30.9,13z"></path> <path class="st0" d="M25.9,25.8h0.4c2.4,0,4.3,1.9,4.3,4.3v2.8c0,2.4-1.9,4.3-4.3,4.3c-0.5,0.1-0.8,0.5-0.8,1c0,0.4,0.4,0.7,0.8,0.8 c3.3,0,6-2.7,6.1-6.1v-2.8c0-3.3-2.7-6-6.1-6h-0.4c-0.5-0.1-0.9,0.3-1,0.8c-0.1,0.5,0.3,0.9,0.8,1C25.8,25.8,25.9,25.8,25.9,25.8z"></path> <path class="st0" d="M31.5,47.8c0.5-0.1,0.8-0.5,0.8-1c0-0.4-0.4-0.7-0.8-0.8h-5c-2.8,0-5.1-2.3-5.1-5.1c0.1-0.5-0.3-0.9-0.8-1 c-0.5-0.1-0.9,0.3-1,0.8c0,0.1,0,0.1,0,0.2c0,3.8,3.1,6.8,6.8,6.8H31.5z"></path> <path class="st0" d="M34.7,58.2c-3.5,0-6.2-2.8-6.2-6.2c-0.1-0.5-0.5-0.8-1-0.8c-0.4,0-0.7,0.4-0.8,0.8c0,4.4,3.6,8,8,8 c0.5-0.1,0.8-0.5,0.8-1C35.4,58.5,35.1,58.2,34.7,58.2z"></path> <path class="st0" d="M22.3,56.4c-1.4-0.2-2.4-1.6-2.2-3c0.1-0.5-0.2-0.9-0.7-1s-0.9,0.2-1,0.7l0,0c-0.3,2.4,1.3,4.6,3.7,5h0.1 c0.5,0,0.9-0.3,0.9-0.8c0-0.5-0.3-0.9-0.8-0.9L22.3,56.4z"></path> <path class="st0" d="M31.1,65.6c-2.1,0-3.7-1.7-3.8-3.8c0.1-0.5-0.3-0.9-0.8-1c-0.5-0.1-0.9,0.3-1,0.8c0,0.1,0,0.1,0,0.2 c0,3,2.5,5.5,5.5,5.5c0.5,0.1,0.9-0.3,1-0.8c0.1-0.5-0.3-0.9-0.8-1C31.2,65.6,31.2,65.6,31.1,65.6z"></path> <path class="st0" d="M68.5,43.2c-0.6,0-1.2,0.2-1.8,0.5L55.4,32.3c-0.2-0.2-0.4-0.2-0.6-0.2H40.9v-5.4h24.3c0.5,1.8,2.4,3,4.2,2.5 c1.8-0.5,3-2.4,2.5-4.2c-0.5-1.8-2.4-3-4.2-2.5c-1.2,0.3-2.2,1.3-2.5,2.5H40.9V21h13.9c0.2,0,0.5-0.1,0.6-0.3l3.8-3.7 c1.7,0.9,3.8,0.2,4.7-1.5s0.2-3.8-1.5-4.7c-1.7-0.9-3.8-0.2-4.7,1.5c-0.6,1.1-0.5,2.5,0.2,3.5l-3.4,3.4H40.9v-1.4 c-0.4-5.5-5.2-9.7-10.7-9.3c-4.7,0.3-8.5,3.9-9.2,8.5c-4.2,0.6-7.4,4.3-7.4,8.5c0,1.1,0.2,2.1,0.6,3.1C7.7,33.3,6,42.3,10.6,48.8 c0,0,0,0,0,0c0.9,1.3,2,2.4,3.2,3.3c-1.1,4.6,1.7,9.3,6.3,10.4c0.3,0.1,0.5,0.1,0.8,0.2c0.7,5.5,5.7,9.3,11.2,8.6 c4.8-0.6,8.4-4.6,8.7-9.4v-0.2h9.6l3.7,4.7c-1.1,1.6-0.7,3.7,0.8,4.8c1.6,1.1,3.7,0.7,4.8-0.8s0.7-3.7-0.8-4.8 c-1-0.7-2.4-0.8-3.5-0.3l-4-5c-0.2-0.2-0.4-0.3-0.7-0.3h-10v-5.3h9.2c0.5,1.9,2.4,3,4.2,2.5s3-2.4,2.5-4.2s-2.4-3-4.2-2.5 c-1.2,0.3-2.2,1.3-2.5,2.5h-9.2v-5.2h14.7c0.5,1.9,2.4,3,4.2,2.5s3-2.4,2.5-4.2s-2.4-3-4.2-2.5c-1.2,0.3-2.2,1.3-2.5,2.5H40.9v-5.2 h5.3c0.5,1.9,2.4,3,4.2,2.5s3-2.4,2.5-4.2s-2.4-3-4.2-2.5c-1.2,0.3-2.2,1.3-2.5,2.5h-5.3v-5.2h13.6l11.1,11.1 c-1,1.6-0.4,3.8,1.3,4.7c1.6,1,3.8,0.4,4.7-1.3c1-1.6,0.4-3.8-1.3-4.7C69.7,43.3,69.1,43.2,68.5,43.2L68.5,43.2z M68.5,24.1 c0.9,0,1.7,0.8,1.7,1.7s-0.8,1.7-1.7,1.7c-0.9,0-1.7-0.8-1.7-1.7l0,0C66.8,24.8,67.6,24,68.5,24.1C68.5,24,68.5,24,68.5,24.1z M60.8,12.2c0.9,0,1.7,0.8,1.7,1.7c0,0.9-0.8,1.7-1.7,1.7c-0.9,0-1.7-0.8-1.7-1.7l0,0C59.1,12.9,59.8,12.2,60.8,12.2z M58.7,68.6 c0,0.9-0.8,1.7-1.7,1.7c-0.9,0-1.7-0.8-1.7-1.7c0-0.9,0.8-1.7,1.7-1.7c0,0,0,0,0,0l0,0C57.9,66.8,58.7,67.6,58.7,68.6z M53.5,52.2 c0.9,0,1.7,0.8,1.7,1.7c0,0.9-0.8,1.7-1.7,1.7c-0.9,0-1.7-0.8-1.7-1.7l0,0C51.8,53,52.5,52.2,53.5,52.2 C53.5,52.2,53.5,52.2,53.5,52.2z M59,45.2c0.9,0,1.7,0.8,1.7,1.7c0,0.9-0.8,1.7-1.7,1.7c-0.9,0-1.7-0.8-1.7-1.7c0,0,0,0,0,0l0,0 C57.2,46,58,45.2,59,45.2C59,45.2,59,45.2,59,45.2L59,45.2z M49.5,38.1c0.9,0,1.7,0.8,1.7,1.7c0,0.9-0.8,1.7-1.7,1.7 c-0.9,0-1.7-0.8-1.7-1.7l0,0C47.7,38.9,48.5,38.1,49.5,38.1z M39.1,62c-0.2,4.5-4,8.1-8.5,7.9c-4.3-0.2-7.8-3.6-7.9-7.9l0,0 c0-0.5-0.4-0.8-0.8-0.9c-3.8-0.2-6.7-3.4-6.5-7.2c0-0.6,0.1-1.2,0.3-1.8c0.1-0.4,0-0.8-0.3-1C9.5,47.2,8,39.3,11.9,33.5 c1-1.5,2.3-2.7,3.8-3.7c0.4-0.2,0.5-0.7,0.3-1.1c-1.7-3.4-0.3-7.5,3.1-9.2c0.8-0.4,1.7-0.6,2.7-0.7c0.5,0,0.8-0.4,0.8-0.9l0,0 c0.2-4.5,4-8.1,8.5-7.9c4.3,0.2,7.8,3.6,7.9,7.9L39.1,62z M68.5,48.4c-0.9,0-1.7-0.8-1.7-1.7c0-0.9,0.8-1.7,1.7-1.7s1.7,0.8,1.7,1.7 c0,0,0,0,0,0l0,0C70.2,47.6,69.5,48.4,68.5,48.4z"></path> <path class="st0" d="M65.9,30.6c-1.9,0-3.5,1.6-3.5,3.5c0,1.9,1.6,3.5,3.5,3.5s3.5-1.6,3.5-3.5c0,0,0,0,0,0l0,0 C69.4,32.1,67.8,30.6,65.9,30.6z M65.9,35.8c-0.9,0-1.7-0.8-1.7-1.7c0-0.9,0.8-1.7,1.7-1.7c0.9,0,1.7,0.8,1.7,1.7l0,0 C67.7,35,66.9,35.7,65.9,35.8C65.9,35.7,65.9,35.7,65.9,35.8z"></path> <path class="st0" d="M65.9,54.3c-1.9,0-3.5,1.6-3.5,3.5c0,1.9,1.6,3.5,3.5,3.5c1.9,0,3.5-1.6,3.5-3.5l0,0l0,0 C69.4,55.9,67.8,54.3,65.9,54.3z M65.9,59.5c-0.9,0-1.7-0.8-1.7-1.7s0.8-1.7,1.7-1.7c0.9,0,1.7,0.8,1.7,1.7l0,0 C67.7,58.7,66.9,59.5,65.9,59.5L65.9,59.5z"></path> </svg> 