<?xml version="1.0" encoding="UTF-8"?> <svg xmlns="http://www.w3.org/2000/svg" width="90" height="90" viewBox="0 0 90 90" fill="none"><g clip-path="url(#clip0_5_226)"><mask id="mask0_5_226" style="mask-type:luminance" maskUnits="userSpaceOnUse" x="-1" y="-1" width="92" height="92"><path d="M90 0H0V90H90V0Z" fill="white" stroke="white" stroke-width="0.5"></path></mask><g mask="url(#mask0_5_226)"><path d="M48.6525 69.915H41.3475C41.1335 69.915 40.9282 69.83 40.7769 69.6786C40.6255 69.5273 40.5405 69.322 40.5405 69.108V65.823C38.0101 65.2863 35.6003 64.2876 33.432 62.877L31.107 65.202C31.0321 65.277 30.9431 65.3364 30.8452 65.377C30.7472 65.4176 30.6423 65.4385 30.5363 65.4385C30.4303 65.4385 30.3253 65.4176 30.2274 65.377C30.1294 65.3364 30.0405 65.277 29.9655 65.202L24.7995 60.036C24.6484 59.8842 24.5635 59.6787 24.5635 59.4645C24.5635 59.2503 24.6484 59.0448 24.7995 58.893L27.1245 56.568C25.7134 54.3996 24.7152 51.9891 24.18 49.458H20.895C20.681 49.458 20.4757 49.373 20.3244 49.2216C20.173 49.0703 20.088 48.865 20.088 48.651V41.346C20.088 41.132 20.173 40.9267 20.3244 40.7753C20.4757 40.624 20.681 40.539 20.895 40.539H24.18C24.7167 38.0085 25.7154 35.5988 27.126 33.4305L24.801 31.1055C24.726 31.0305 24.6666 30.9416 24.626 30.8436C24.5854 30.7457 24.5645 30.6407 24.5645 30.5347C24.5645 30.4287 24.5854 30.3238 24.626 30.2258C24.6666 30.1279 24.726 30.0389 24.801 29.964L29.967 24.798C30.042 24.723 30.1309 24.6635 30.2289 24.623C30.3268 24.5824 30.4318 24.5615 30.5378 24.5615C30.6438 24.5615 30.7487 24.5824 30.8467 24.623C30.9446 24.6635 31.0336 24.723 31.1085 24.798L33.4335 27.123C35.6013 25.7115 38.0113 24.7128 40.542 24.177V20.892C40.542 20.6779 40.627 20.4727 40.7784 20.3213C40.9297 20.17 41.135 20.085 41.349 20.085H48.654C48.868 20.085 49.0733 20.17 49.2246 20.3213C49.376 20.4727 49.461 20.6779 49.461 20.892V24.177C51.9914 24.7137 54.4012 25.7124 56.5695 27.123L58.8945 24.798C58.9694 24.723 59.0584 24.6635 59.1564 24.623C59.2543 24.5824 59.3593 24.5615 59.4653 24.5615C59.5713 24.5615 59.6762 24.5824 59.7742 24.623C59.8721 24.6635 59.9611 24.723 60.036 24.798L65.202 29.964C65.3531 30.1158 65.438 30.3213 65.438 30.5355C65.438 30.7497 65.3531 30.9552 65.202 31.107L62.877 33.432C64.2885 35.5998 65.2872 38.0098 65.823 40.5405H69.108C69.322 40.5405 69.5273 40.6255 69.6786 40.7768C69.83 40.9282 69.915 41.1335 69.915 41.3475V48.66C69.915 48.874 69.83 49.0793 69.6786 49.2306C69.5273 49.382 69.322 49.467 69.108 49.467H65.823C65.2865 51.9951 64.2889 54.4028 62.88 56.5695L65.205 58.8945C65.3561 59.0463 65.441 59.2518 65.441 59.466C65.441 59.6802 65.3561 59.8857 65.205 60.0375L60.03 65.202C59.9551 65.277 59.8661 65.3364 59.7682 65.377C59.6702 65.4176 59.5653 65.4385 59.4593 65.4385C59.3533 65.4385 59.2483 65.4176 59.1504 65.377C59.0524 65.3364 58.9634 65.277 58.8885 65.202L56.5635 62.877C54.3957 64.2884 51.9857 65.2872 49.455 65.823V69.108C49.4554 69.3213 49.3711 69.5262 49.2207 69.6775C49.0702 69.8288 48.8659 69.9142 48.6525 69.915ZM42.156 68.301H47.847V65.16C47.8471 64.971 47.9136 64.7881 48.0347 64.6431C48.1559 64.4981 48.3241 64.4002 48.51 64.3665C51.2768 63.8708 53.9035 62.7818 56.2095 61.1745C56.3648 61.0666 56.553 61.0167 56.7414 61.0334C56.9297 61.0501 57.1062 61.1324 57.24 61.266L59.4645 63.4905L63.489 59.46L61.2645 57.24C61.131 57.1061 61.0486 56.9297 61.0319 56.7413C61.0152 56.553 61.0651 56.3648 61.173 56.2095C62.7809 53.9038 63.8699 51.277 64.365 48.51C64.3987 48.3241 64.4966 48.1559 64.6416 48.0347C64.7866 47.9135 64.9696 47.8471 65.1585 47.847H68.301V42.1545H65.1585C64.9696 42.1544 64.7866 42.0879 64.6416 41.9668C64.4966 41.8456 64.3987 41.6774 64.365 41.4915C63.8699 38.7245 62.7809 36.0977 61.173 33.792C61.0651 33.6367 61.0152 33.4485 61.0319 33.2601C61.0486 33.0718 61.131 32.8953 61.2645 32.7615L63.489 30.537L59.4645 26.5125L57.24 28.737C57.1062 28.8705 56.9297 28.9529 56.7414 28.9696C56.553 28.9863 56.3648 28.9364 56.2095 28.8285C53.9038 27.2206 51.277 26.1316 48.51 25.6365C48.3241 25.6028 48.1559 25.5049 48.0347 25.3599C47.9136 25.2149 47.8471 25.0319 47.847 24.843V21.693H42.1545V24.8355C42.1544 25.0244 42.0879 25.2074 41.9668 25.3524C41.8456 25.4974 41.6774 25.5953 41.4915 25.629C38.7246 26.1243 36.0978 27.2133 33.792 28.821C33.6367 28.9289 33.4485 28.9788 33.2602 28.9621C33.0718 28.9454 32.8953 28.863 32.7615 28.7295L30.537 26.505L26.5125 30.5295L28.737 32.76C28.8706 32.8938 28.9529 33.0703 28.9696 33.2586C28.9863 33.447 28.9364 33.6352 28.8285 33.7905C27.2206 36.0961 26.1316 38.723 25.6365 41.49C25.6028 41.6759 25.5049 41.8441 25.3599 41.9653C25.2149 42.0864 25.032 42.1528 24.843 42.153H21.693V47.844H24.8355C25.0245 47.8441 25.2074 47.9105 25.3524 48.0317C25.4974 48.1529 25.5953 48.321 25.629 48.507C26.1265 51.2753 27.2186 53.9027 28.83 56.208C28.9379 56.3633 28.9878 56.5515 28.9711 56.7398C28.9544 56.9282 28.8721 57.1046 28.7385 57.2385L26.511 59.46L30.5355 63.4845L32.76 61.26C32.8938 61.1264 33.0703 61.0441 33.2587 61.0274C33.447 61.0107 33.6352 61.0606 33.7905 61.1685C36.0962 62.7764 38.723 63.8654 41.49 64.3605C41.6759 64.3942 41.8441 64.4921 41.9653 64.6371C42.0865 64.7821 42.1529 64.965 42.153 65.154V68.304L42.156 68.301Z" fill="#1C54F8" stroke="#1C54F8" stroke-width="0.5"></path><path d="M45 60.3585C41.9623 60.3585 38.993 59.4577 36.4673 57.7701C33.9416 56.0825 31.973 53.6838 30.8106 50.8774C29.6481 48.071 29.344 44.9829 29.9366 42.0037C30.5292 39.0244 31.9919 36.2878 34.1399 34.1399C36.2878 31.992 39.0244 30.5292 42.0037 29.9366C44.9829 29.344 48.071 29.6481 50.8774 30.8106C53.6838 31.973 56.0825 33.9416 57.7701 36.4672C59.4577 38.9929 60.3585 41.9624 60.3585 45C60.3537 49.0718 58.7341 52.9756 55.8548 55.8548C52.9756 58.7341 49.0718 60.3537 45 60.3585ZM45 31.2585C42.2816 31.2585 39.6242 32.0646 37.3639 33.5748C35.1037 35.0851 33.342 37.2317 32.3017 39.7432C31.2614 42.2547 30.9893 45.0182 31.5196 47.6844C32.0499 50.3506 33.3589 52.7996 35.2811 54.7218C37.2034 56.644 39.6524 57.9531 42.3186 58.4834C44.9847 59.0137 47.7483 58.7415 50.2598 57.7012C52.7712 56.6609 54.9178 54.8993 56.4281 52.639C57.9384 50.3787 58.7445 47.7214 58.7445 45.003C58.7409 41.3585 57.2918 37.8643 54.715 35.287C52.1383 32.7097 48.6444 31.2598 45 31.2555V31.2585Z" fill="#1C54F8" stroke="#1C54F8" stroke-width="0.5"></path><path d="M45.9105 51.5579C45.6966 51.5575 45.4915 51.4724 45.3403 51.3211C45.189 51.1698 45.1039 50.9648 45.1035 50.7509V48.3614H34.7235C34.5095 48.3614 34.3042 48.2764 34.1529 48.125C34.0015 47.9737 33.9165 47.7684 33.9165 47.5544V42.4439C33.9165 42.2299 34.0015 42.0246 34.1529 41.8733C34.3042 41.7219 34.5095 41.6369 34.7235 41.6369H45.1035V39.2489C45.1035 39.1053 45.1419 38.9644 45.2146 38.8406C45.2873 38.7168 45.3917 38.6146 45.517 38.5446C45.6423 38.4746 45.7841 38.4393 45.9276 38.4423C46.0711 38.4454 46.2112 38.4866 46.3335 38.5619L55.698 44.3129C55.8156 44.3851 55.9127 44.4862 55.9801 44.6066C56.0474 44.727 56.0828 44.8627 56.0828 45.0006C56.0828 45.1386 56.0474 45.2743 55.9801 45.3947C55.9127 45.5151 55.8156 45.6162 55.698 45.6884L46.3335 51.4409C46.206 51.5181 46.0596 51.5586 45.9105 51.5579ZM35.532 46.7489H45.912C46.018 46.7489 46.1229 46.7698 46.2208 46.8103C46.3187 46.8509 46.4077 46.9103 46.4826 46.9853C46.5576 47.0602 46.617 47.1492 46.6576 47.2471C46.6981 47.345 46.719 47.4499 46.719 47.5559V49.3094L53.736 44.9984L46.719 40.6874V42.4409C46.719 42.6549 46.634 42.8602 46.4826 43.0115C46.3313 43.1629 46.126 43.2479 45.912 43.2479H35.532V46.7489Z" fill="#1C54F8" stroke="#1C54F8" stroke-width="0.5"></path><path d="M45 21.6945C44.786 21.6945 44.5807 21.6095 44.4293 21.4581C44.278 21.3068 44.193 21.1015 44.193 20.8875V15.7875C44.1926 15.4053 44.0406 15.0389 43.7703 14.7686C43.5001 14.4984 43.1337 14.3464 42.7515 14.346H31.0635C30.8495 14.346 30.6442 14.261 30.4928 14.1096C30.3415 13.9583 30.2565 13.753 30.2565 13.539C30.2565 13.3249 30.3415 13.1197 30.4928 12.9683C30.6442 12.817 30.8495 12.732 31.0635 12.732H42.7515C43.5616 12.7328 44.3383 13.0549 44.9112 13.6278C45.484 14.2006 45.8062 14.9774 45.807 15.7875V20.8875C45.807 21.1015 45.722 21.3068 45.5706 21.4581C45.4193 21.6095 45.214 21.6945 45 21.6945Z" fill="#1C54F8" stroke="#1C54F8" stroke-width="0.5"></path><path d="M27.816 17.601C27.015 17.601 26.232 17.3635 25.5659 16.9184C24.8999 16.4734 24.3808 15.8409 24.0743 15.1008C23.7677 14.3608 23.6875 13.5465 23.8438 12.7609C24.0001 11.9752 24.3858 11.2536 24.9522 10.6872C25.5186 10.1208 26.2403 9.73507 27.0259 9.5788C27.8115 9.42253 28.6258 9.50273 29.3659 9.80927C30.1059 10.1158 30.7384 10.6349 31.1834 11.3009C31.6285 11.9669 31.866 12.75 31.866 13.551C31.8636 14.6244 31.4362 15.6531 30.6771 16.4121C29.9181 17.1711 28.8894 17.5986 27.816 17.601ZM27.816 11.1045C27.3327 11.1042 26.8602 11.2473 26.4583 11.5157C26.0563 11.7841 25.7431 12.1658 25.5582 12.6123C25.3734 13.0589 25.3251 13.5502 25.4197 14.0242C25.5142 14.4981 25.7473 14.9334 26.0893 15.2748C26.4314 15.6163 26.8671 15.8485 27.3412 15.9422C27.8154 16.0358 28.3066 15.9867 28.7528 15.801C29.199 15.6153 29.5801 15.3014 29.8478 14.899C30.1154 14.4966 30.2577 14.0238 30.2565 13.5405C30.2541 12.8944 29.9961 12.2755 29.5388 11.819C29.0815 11.3626 28.4621 11.1057 27.816 11.1045Z" fill="#1C54F8" stroke="#1C54F8" stroke-width="0.5"></path><path d="M45.0031 16.5945C44.8971 16.5945 44.7921 16.5736 44.6942 16.533C44.5963 16.4925 44.5073 16.433 44.4324 16.3581C44.3575 16.2832 44.298 16.1942 44.2575 16.0963C44.2169 15.9984 44.196 15.8934 44.196 15.7875C44.1988 14.9784 44.5221 14.2034 45.095 13.6321C45.668 13.0608 46.444 12.7399 47.2531 12.7395H58.941C59.1551 12.7395 59.3604 12.8245 59.5117 12.9758C59.663 13.1272 59.7481 13.3324 59.7481 13.5465C59.7481 13.7605 59.663 13.9658 59.5117 14.1171C59.3604 14.2684 59.1551 14.3535 58.941 14.3535H47.2531C46.8709 14.3539 46.5044 14.5059 46.2342 14.7761C45.9639 15.0464 45.812 15.4128 45.8116 15.795C45.8096 16.008 45.7235 16.2115 45.572 16.3613C45.4206 16.5111 45.2161 16.5949 45.0031 16.5945Z" fill="#1C54F8" stroke="#1C54F8" stroke-width="0.5"></path><path d="M62.1855 17.601C61.3845 17.601 60.6015 17.3635 59.9355 16.9184C59.2694 16.4734 58.7503 15.8409 58.4438 15.1008C58.1373 14.3608 58.057 13.5465 58.2133 12.7609C58.3696 11.9752 58.7553 11.2536 59.3217 10.6872C59.8881 10.1208 60.6097 9.73507 61.3954 9.5788C62.181 9.42253 62.9953 9.50273 63.7354 9.80927C64.4754 10.1158 65.1079 10.6349 65.553 11.3009C65.998 11.9669 66.2355 12.75 66.2355 13.551C66.2331 14.6244 65.8057 15.6531 65.0467 16.4121C64.2877 17.1711 63.2589 17.5986 62.1855 17.601ZM62.1855 11.1045C61.7022 11.1042 61.2297 11.2473 60.8278 11.5157C60.4259 11.7841 60.1126 12.1658 59.9277 12.6123C59.7429 13.0589 59.6947 13.5502 59.7892 14.0242C59.8838 14.4981 60.1168 14.9334 60.4589 15.2748C60.8009 15.6163 61.2366 15.8485 61.7107 15.9422C62.1849 16.0358 62.6761 15.9867 63.1223 15.801C63.5685 15.6153 63.9496 15.3014 64.2173 14.899C64.4849 14.4966 64.6272 14.0238 64.626 13.5405C64.6236 12.8944 64.3656 12.2755 63.9083 11.819C63.451 11.3626 62.8316 11.1057 62.1855 11.1045Z" fill="#1C54F8" stroke="#1C54F8" stroke-width="0.5"></path><path d="M25.371 31.338H17.148C16.3379 31.3372 15.5612 31.015 14.9883 30.4422C14.4155 29.8693 14.0933 29.0926 14.0925 28.2825V23.25C14.0925 23.036 14.1776 22.8307 14.3289 22.6793C14.4802 22.528 14.6855 22.443 14.8995 22.443C15.1136 22.443 15.3188 22.528 15.4702 22.6793C15.6215 22.8307 15.7065 23.036 15.7065 23.25V28.2885C15.7069 28.6707 15.8589 29.0371 16.1292 29.3073C16.3994 29.5776 16.7658 29.7296 17.148 29.73H25.371C25.5849 29.73 25.7899 29.8149 25.9411 29.9661C26.0923 30.1173 26.1773 30.3224 26.1773 30.5362C26.1773 30.7501 26.0923 30.9551 25.9411 31.1063C25.7899 31.2575 25.5849 31.3425 25.371 31.3425V31.338Z" fill="#1C54F8" stroke="#1C54F8" stroke-width="0.5"></path><path d="M14.8935 24.057C14.0925 24.057 13.3095 23.8194 12.6434 23.3744C11.9774 22.9294 11.4583 22.2969 11.1518 21.5568C10.8453 20.8168 10.7651 20.0025 10.9213 19.2169C11.0776 18.4312 11.4633 17.7096 12.0297 17.1432C12.5961 16.5768 13.3178 16.1911 14.1034 16.0348C14.889 15.8785 15.7033 15.9587 16.4434 16.2653C17.1834 16.5718 17.8159 17.0909 18.261 17.7569C18.706 18.4229 18.9435 19.206 18.9435 20.007C18.9411 21.0804 18.5137 22.1091 17.7547 22.8681C16.9957 23.6271 15.9669 24.0546 14.8935 24.057ZM14.8935 17.5605C14.4105 17.5605 13.9384 17.7037 13.5368 17.972C13.1352 18.2404 12.8222 18.6217 12.6374 19.068C12.4526 19.5142 12.4042 20.0052 12.4984 20.4789C12.5927 20.9526 12.8252 21.3877 13.1668 21.7292C13.5083 22.0707 13.9434 22.3033 14.4171 22.3976C14.8908 22.4918 15.3818 22.4434 15.828 22.2586C16.2742 22.0738 16.6556 21.7608 16.924 21.3592C17.1923 20.9576 17.3355 20.4855 17.3355 20.0025C17.3347 19.3551 17.0772 18.7344 16.6194 18.2766C16.1616 17.8188 15.5409 17.5613 14.8935 17.5605Z" fill="#1C54F8" stroke="#1C54F8" stroke-width="0.5"></path><path d="M72.8535 31.338H64.6305C64.4164 31.338 64.2112 31.253 64.0599 31.1016C63.9085 30.9503 63.8235 30.745 63.8235 30.531C63.8235 30.3169 63.9085 30.1117 64.0599 29.9603C64.2112 29.809 64.4164 29.724 64.6305 29.724H72.8535C73.2357 29.7236 73.6021 29.5716 73.8724 29.3013C74.1426 29.0311 74.2946 28.6647 74.295 28.2825V23.25C74.295 23.036 74.38 22.8307 74.5314 22.6793C74.6827 22.528 74.888 22.443 75.102 22.443C75.316 22.443 75.5213 22.528 75.6727 22.6793C75.824 22.8307 75.909 23.036 75.909 23.25V28.2885C75.907 29.0977 75.5843 29.8731 75.0115 30.4447C74.4387 31.0164 73.6627 31.3376 72.8535 31.338Z" fill="#1C54F8" stroke="#1C54F8" stroke-width="0.5"></path><path d="M75.102 24.057C74.301 24.057 73.5179 23.8194 72.8519 23.3744C72.1859 22.9294 71.6668 22.2969 71.3603 21.5568C71.0538 20.8168 70.9735 20.0025 71.1298 19.2169C71.2861 18.4312 71.6718 17.7096 72.2382 17.1432C72.8046 16.5768 73.5262 16.1911 74.3119 16.0348C75.0975 15.8785 75.9118 15.9587 76.6519 16.2653C77.3919 16.5718 78.0244 17.0909 78.4695 17.7569C78.9145 18.4229 79.152 19.206 79.152 20.007C79.1496 21.0804 78.7221 22.1091 77.9631 22.8681C77.2041 23.6271 76.1754 24.0546 75.102 24.057ZM75.102 17.5605C74.619 17.5605 74.1469 17.7037 73.7453 17.972C73.3437 18.2404 73.0307 18.6217 72.8459 19.068C72.6611 19.5142 72.6127 20.0052 72.7069 20.4789C72.8011 20.9526 73.0337 21.3877 73.3752 21.7292C73.7168 22.0707 74.1519 22.3033 74.6256 22.3976C75.0993 22.4918 75.5903 22.4434 76.0365 22.2586C76.4827 22.0738 76.8641 21.7608 77.1324 21.3592C77.4008 20.9576 77.544 20.4855 77.544 20.0025C77.5432 19.3551 77.2857 18.7344 76.8279 18.2766C76.3701 17.8188 75.7494 17.5613 75.102 17.5605Z" fill="#1C54F8" stroke="#1C54F8" stroke-width="0.5"></path><path d="M14.8995 67.5525C14.6855 67.5525 14.4802 67.4675 14.3289 67.3161C14.1776 67.1648 14.0925 66.9595 14.0925 66.7455V61.7085C14.0933 60.8983 14.4155 60.1216 14.9883 59.5488C15.5612 58.9759 16.3379 58.6538 17.148 58.653H25.371C25.5851 58.653 25.7903 58.738 25.9417 58.8893C26.093 59.0407 26.178 59.2459 26.178 59.46C26.178 59.674 26.093 59.8793 25.9417 60.0306C25.7903 60.182 25.5851 60.267 25.371 60.267H17.148C16.7658 60.2674 16.3994 60.4194 16.1292 60.6896C15.8589 60.9599 15.7069 61.3263 15.7065 61.7085V66.747C15.7061 66.9607 15.6209 67.1656 15.4696 67.3167C15.3183 67.4677 15.1133 67.5525 14.8995 67.5525Z" fill="#1C54F8" stroke="#1C54F8" stroke-width="0.5"></path><path d="M14.8935 74.052C14.0925 74.052 13.3095 73.8145 12.6434 73.3694C11.9774 72.9244 11.4583 72.2919 11.1518 71.5518C10.8453 70.8118 10.7651 69.9975 10.9213 69.2118C11.0776 68.4262 11.4633 67.7046 12.0297 67.1382C12.5961 66.5718 13.3178 66.1861 14.1034 66.0298C14.889 65.8735 15.7033 65.9537 16.4434 66.2603C17.1834 66.5668 17.8159 67.0859 18.261 67.7519C18.706 68.4179 18.9435 69.201 18.9435 70.002C18.9411 71.0754 18.5137 72.1041 17.7547 72.8631C16.9957 73.6222 15.9669 74.0496 14.8935 74.052ZM14.8935 67.5555C14.4105 67.5555 13.9384 67.6987 13.5368 67.967C13.1352 68.2354 12.8222 68.6168 12.6374 69.063C12.4526 69.5092 12.4042 70.0002 12.4984 70.4739C12.5927 70.9476 12.8252 71.3827 13.1668 71.7242C13.5083 72.0658 13.9434 72.2983 14.4171 72.3926C14.8908 72.4868 15.3818 72.4384 15.828 72.2536C16.2742 72.0688 16.6556 71.7558 16.924 71.3542C17.1923 70.9526 17.3355 70.4804 17.3355 69.9975C17.3347 69.35 17.0772 68.7294 16.6194 68.2716C16.1616 67.8138 15.5409 67.5563 14.8935 67.5555Z" fill="#1C54F8" stroke="#1C54F8" stroke-width="0.5"></path><path d="M75.102 67.5525C74.888 67.5525 74.6827 67.4675 74.5314 67.3161C74.38 67.1648 74.295 66.9595 74.295 66.7455V61.7085C74.2946 61.3263 74.1426 60.9599 73.8724 60.6896C73.6021 60.4194 73.2357 60.2674 72.8535 60.267H64.6305C64.4164 60.267 64.2112 60.182 64.0599 60.0306C63.9085 59.8793 63.8235 59.674 63.8235 59.46C63.8235 59.2459 63.9085 59.0407 64.0599 58.8893C64.2112 58.738 64.4164 58.653 64.6305 58.653H72.8535C73.6636 58.6538 74.4404 58.9759 75.0132 59.5488C75.586 60.1216 75.9082 60.8983 75.909 61.7085V66.747C75.9086 66.9607 75.8234 67.1656 75.6721 67.3167C75.5208 67.4677 75.3158 67.5525 75.102 67.5525Z" fill="#1C54F8" stroke="#1C54F8" stroke-width="0.5"></path><path d="M75.102 74.052C74.301 74.052 73.5179 73.8145 72.8519 73.3694C72.1859 72.9244 71.6668 72.2919 71.3603 71.5518C71.0538 70.8118 70.9735 69.9975 71.1298 69.2118C71.2861 68.4262 71.6718 67.7046 72.2382 67.1382C72.8046 66.5718 73.5262 66.1861 74.3119 66.0298C75.0975 65.8735 75.9118 65.9537 76.6519 66.2603C77.3919 66.5668 78.0244 67.0859 78.4695 67.7519C78.9145 68.4179 79.152 69.201 79.152 70.002C79.1496 71.0754 78.7221 72.1041 77.9631 72.8631C77.2041 73.6222 76.1754 74.0496 75.102 74.052ZM75.102 67.5555C74.619 67.5555 74.1469 67.6987 73.7453 67.967C73.3437 68.2354 73.0307 68.6168 72.8459 69.063C72.6611 69.5092 72.6127 70.0002 72.7069 70.4739C72.8011 70.9476 73.0337 71.3827 73.3752 71.7242C73.7168 72.0658 74.1519 72.2983 74.6256 72.3926C75.0993 72.4868 75.5903 72.4384 76.0365 72.2536C76.4827 72.0688 76.8641 71.7558 77.1324 71.3542C77.4008 70.9526 77.544 70.4804 77.544 69.9975C77.5432 69.35 77.2857 68.7294 76.8279 68.2716C76.3701 67.8138 75.7494 67.5563 75.102 67.5555Z" fill="#1C54F8" stroke="#1C54F8" stroke-width="0.5"></path><path d="M42.7515 77.256H31.0635C30.8495 77.256 30.6442 77.1709 30.4928 77.0196C30.3415 76.8683 30.2565 76.663 30.2565 76.449C30.2565 76.235 30.3415 76.0297 30.4928 75.8783C30.6442 75.727 30.8495 75.642 31.0635 75.642H42.7515C43.1337 75.6416 43.5001 75.4896 43.7703 75.2193C44.0406 74.9491 44.1926 74.5826 44.193 74.2005V69.1005C44.193 68.8864 44.278 68.6812 44.4293 68.5298C44.5807 68.3785 44.786 68.2935 45 68.2935C45.214 68.2935 45.4193 68.3785 45.5706 68.5298C45.722 68.6812 45.807 68.8864 45.807 69.1005V74.2005C45.8062 75.0106 45.484 75.7873 44.9112 76.3601C44.3383 76.933 43.5616 77.2552 42.7515 77.256Z" fill="#1C54F8" stroke="#1C54F8" stroke-width="0.5"></path><path d="M27.816 80.508C27.015 80.508 26.232 80.2704 25.5659 79.8254C24.8999 79.3804 24.3808 78.7479 24.0743 78.0079C23.7677 77.2678 23.6875 76.4535 23.8438 75.6679C24.0001 74.8822 24.3858 74.1606 24.9522 73.5942C25.5186 73.0278 26.2403 72.6421 27.0259 72.4858C27.8115 72.3295 28.6258 72.4097 29.3659 72.7163C30.1059 73.0228 30.7384 73.5419 31.1834 74.2079C31.6285 74.8739 31.866 75.657 31.866 76.458C31.8636 77.5314 31.4362 78.5601 30.6771 79.3191C29.9181 80.0781 28.8894 80.5056 27.816 80.508ZM27.816 74.0115C27.333 74.0115 26.8609 74.1547 26.4593 74.423C26.0577 74.6914 25.7447 75.0727 25.5599 75.519C25.3751 75.9652 25.3267 76.4562 25.4209 76.9299C25.5151 77.4036 25.7477 77.8387 26.0892 78.1803C26.4308 78.5218 26.8659 78.7543 27.3396 78.8486C27.8133 78.9428 28.3043 78.8944 28.7505 78.7096C29.1967 78.5248 29.5781 78.2118 29.8464 77.8102C30.1148 77.4086 30.258 76.9365 30.258 76.4535C30.2556 75.8071 29.9974 75.188 29.5398 74.7315C29.0821 74.275 28.4624 74.0183 27.816 74.0175V74.0115Z" fill="#1C54F8" stroke="#1C54F8" stroke-width="0.5"></path><path d="M58.9365 77.259H47.253C46.4429 77.2582 45.6662 76.936 45.0933 76.3631C44.5205 75.7903 44.1983 75.0136 44.1975 74.2035C44.1975 73.9894 44.2825 73.7842 44.4339 73.6329C44.5852 73.4815 44.7905 73.3965 45.0045 73.3965C45.2185 73.3965 45.4238 73.4815 45.5751 73.6329C45.7265 73.7842 45.8115 73.9894 45.8115 74.2035C45.8119 74.5856 45.9639 74.9521 46.2341 75.2224C46.5044 75.4926 46.8708 75.6446 47.253 75.645H58.941C59.155 75.645 59.3603 75.73 59.5117 75.8813C59.663 76.0327 59.748 76.238 59.748 76.452C59.748 76.666 59.663 76.8713 59.5117 77.0226C59.3603 77.1739 59.155 77.259 58.941 77.259H58.9365Z" fill="#1C54F8" stroke="#1C54F8" stroke-width="0.5"></path><path d="M62.1855 80.508C61.3845 80.508 60.6015 80.2704 59.9355 79.8254C59.2694 79.3804 58.7503 78.7479 58.4438 78.0079C58.1373 77.2678 58.057 76.4535 58.2133 75.6679C58.3696 74.8822 58.7553 74.1606 59.3217 73.5942C59.8881 73.0278 60.6097 72.6421 61.3954 72.4858C62.181 72.3295 62.9953 72.4097 63.7354 72.7163C64.4754 73.0228 65.1079 73.5419 65.553 74.2079C65.998 74.8739 66.2355 75.657 66.2355 76.458C66.2331 77.5314 65.8057 78.5601 65.0467 79.3191C64.2877 80.0781 63.2589 80.5056 62.1855 80.508ZM62.1855 74.0115C61.7025 74.0115 61.2304 74.1547 60.8288 74.423C60.4272 74.6914 60.1142 75.0727 59.9294 75.519C59.7446 75.9652 59.6962 76.4562 59.7904 76.9299C59.8847 77.4036 60.1172 77.8387 60.4587 78.1803C60.8003 78.5218 61.2354 78.7543 61.7091 78.8486C62.1828 78.9428 62.6738 78.8944 63.12 78.7096C63.5663 78.5248 63.9476 78.2118 64.216 77.8102C64.4843 77.4086 64.6275 76.9365 64.6275 76.4535C64.6251 75.8071 64.3669 75.188 63.9093 74.7315C63.4516 74.275 62.8319 74.0183 62.1855 74.0175V74.0115Z" fill="#1C54F8" stroke="#1C54F8" stroke-width="0.5"></path></g></g><defs><clipPath id="clip0_5_226"><rect width="90" height="90" fill="white"></rect></clipPath></defs></svg> 