<?xml version="1.0" encoding="UTF-8"?> <svg xmlns="http://www.w3.org/2000/svg" id="Layer_1" data-name="Layer 1" viewBox="0 0 80 80"><defs><style>.cls-1{fill:none;}.cls-2{fill:#1b54f8;stroke:#1b54f8;stroke-width:0.4px;}</style></defs><rect id="Rectangle-Copy-5" class="cls-1" width="80" height="80"></rect><g id="noun_AI_1235930" data-name="noun AI 1235930"><g id="Group"><path id="Shape" class="cls-2" d="M32.07,14.27h-.29A6.85,6.85,0,0,0,25,20.73a6.76,6.76,0,0,0-1.27-.13,7.06,7.06,0,0,0-7,7.14,7.19,7.19,0,0,0,1.78,4.76,7.62,7.62,0,0,0-1.25.41,6.94,6.94,0,0,0-4.26,6.44v.13a7.1,7.1,0,0,0,5.47,7,7.21,7.21,0,0,0-1.74,4.72,7.06,7.06,0,0,0,7,7.14,7.51,7.51,0,0,0,1.34-.13v.15a7,7,0,1,0,13.92,0V21.88C39,17.83,35.78,14.27,32.07,14.27Zm5.37,44.06a5.37,5.37,0,1,1-10.74,0,1.64,1.64,0,0,1,.13-.73l.1-.33a7,7,0,0,0,3.46-6.05.79.79,0,0,0-.79-.8.8.8,0,0,0-.8.8,5.18,5.18,0,1,1-10.35,0,.65.65,0,0,0,0-.2A5.52,5.52,0,0,1,21,46.47a.8.8,0,0,0,.32-.93.76.76,0,0,0-.82-.54L20,45a5.47,5.47,0,0,1-5.37-5.54,5.55,5.55,0,0,1,3.25-5.08A4.91,4.91,0,0,1,19.84,34,5.26,5.26,0,0,1,25,39.35a.79.79,0,0,0,.79.8.8.8,0,0,0,.8-.8,6.91,6.91,0,0,0-5.53-6.82l0,0a5.53,5.53,0,0,1-2.64-4.75,5.46,5.46,0,0,1,5.37-5.54,4.81,4.81,0,0,1,1.35.21,6.83,6.83,0,0,0,6.66,5.74.8.8,0,1,0,0-1.6A5.23,5.23,0,0,1,26.67,22a1.25,1.25,0,0,0,0-.32,2.45,2.45,0,0,1,0-.27,5.47,5.47,0,0,1,5.37-5.54c2.86,0,5.36,2.81,5.36,6V58.33Z"></path><path id="Shape-2" data-name="Shape" class="cls-2" d="M66.58,39.35a7,7,0,0,0-4.26-6.44,7.43,7.43,0,0,0-1.26-.41,7.14,7.14,0,0,0,1.78-4.76,6.95,6.95,0,0,0-8.33-7,7,7,0,0,0-6.92-6.47c-3.71,0-7,3.56-7,7.61V58.33a7,7,0,1,0,13.91,0v-.15a7.51,7.51,0,0,0,1.34.13,7.06,7.06,0,0,0,7-7.14,7.21,7.21,0,0,0-1.74-4.72,7.09,7.09,0,0,0,5.48-7s0-.07,0-.11Zm-19,18.95a1.61,1.61,0,1,1,1.6-1.61A1.6,1.6,0,0,1,47.59,58.3Zm8.33-6a1.61,1.61,0,1,1,1.6-1.61A1.6,1.6,0,0,1,55.92,52.34ZM59.62,45l-.43,0a.79.79,0,0,0-.82.54.8.8,0,0,0,.33.93,5.58,5.58,0,0,1-2,10.17V53.83a3.19,3.19,0,1,0-1.59,0v2.81a4.89,4.89,0,0,1-1.33-.37.8.8,0,0,0-1.08,1l.12.36a1.65,1.65,0,0,1,.12.73,5.49,5.49,0,0,1-4.57,5.47v-4a3.19,3.19,0,1,0-1.59,0v4a5.49,5.49,0,0,1-4.57-5.47V41.88h2.29a3.21,3.21,0,1,0,0-1.6H42.22V29.39H52a3.21,3.21,0,1,0,0-1.6h-2.6V24.61a3.2,3.2,0,1,0-1.59,0v3.18H42.22V21.88c0-3.2,2.51-6,5.37-6A5.47,5.47,0,0,1,53,21.41c0,.09,0,.18,0,.35a.8.8,0,0,0,1.08.8,5.09,5.09,0,0,1,1.87-.36,5.57,5.57,0,0,1,2.74,10.29l0,0A6.91,6.91,0,0,0,53,39.35a.8.8,0,0,0,1.6,0A5.27,5.27,0,0,1,59.81,34a5,5,0,0,1,1.93.39A5.56,5.56,0,0,1,65,39.48,5.46,5.46,0,0,1,59.62,45ZM46,41.08a1.6,1.6,0,1,1,1.6,1.61A1.6,1.6,0,0,1,46,41.08Zm2.64-18a1.61,1.61,0,1,1,1.6-1.61A1.61,1.61,0,0,1,48.63,23.12Zm4.88,5.47a1.6,1.6,0,1,1,1.6,1.61A1.61,1.61,0,0,1,53.51,28.59Z"></path></g></g></svg> 