<?xml version="1.0" encoding="UTF-8"?> <svg xmlns="http://www.w3.org/2000/svg" width="90" height="90" viewBox="0 0 90 90" fill="none"><mask id="mask0_1_256" style="mask-type:luminance" maskUnits="userSpaceOnUse" x="0" y="0" width="90" height="90"><path d="M90 0H0V90H90V0Z" fill="white"></path></mask><g mask="url(#mask0_1_256)"><path d="M75.8 44.5C75.8 40.7 72.7 37.6 68.9 37.6C65.1 37.6 62 40.7 62 44.5C62 47.1 63.4 49.4 65.6 50.5V61.3C63.9 58.8 61 57.1 57.7 57.1H28C24.4 57.1 21.2 59.2 19.6 62.2V50.5C21.7 49.3 23.2 47 23.2 44.5C23.2 40.7 20.1 37.6 16.3 37.6C12.5 37.6 9.39999 40.7 9.39999 44.5C9.39999 47.1 10.8 49.4 13 50.5V65.5C11.6 66.1 10.5 67.5 10.5 69.2V78.6C10.5 80.8 12.3 82.6 14.5 82.6H18.7C19.3 87.2 23.3 90.8 28.1 90.8H57.8C62.6 90.8 66.5 87.2 67.2 82.6H70.9C73.1 82.6 74.9 80.8 74.9 78.6V69.2C74.9 67.5 73.9 66.1 72.4 65.5V50.5C74.4 49.4 75.8 47.1 75.8 44.5ZM16.3 40.5C18.5 40.5 20.3 42.3 20.3 44.5C20.3 46.7 18.5 48.5 16.3 48.5C14.1 48.5 12.3 46.7 12.3 44.5C12.2 42.3 14 40.5 16.3 40.5ZM16.3 51.5C16.4 51.5 16.6 51.5 16.7 51.5V65.3H15.8V51.5C16 51.4 16.1 51.5 16.3 51.5ZM13.4 78.6V69.2C13.4 68.6 13.9 68.1 14.5 68.1H18.6V79.6H14.5C13.8 79.7 13.4 79.2 13.4 78.6ZM64.2 81.3C64.2 84.9 61.3 87.8 57.7 87.8H28C24.4 87.8 21.5 84.9 21.5 81.3V66.6C21.5 63 24.4 60.1 28 60.1H57.7C61.3 60.1 64.2 63 64.2 66.6V81.3ZM68.9 40.5C71.1 40.5 72.9 42.3 72.9 44.5C72.9 46.7 71.1 48.5 68.9 48.5C66.7 48.5 64.9 46.7 64.9 44.5C64.9 42.3 66.7 40.5 68.9 40.5ZM71.8 78.6C71.8 79.2 71.3 79.7 70.7 79.7H67.1V68.2H70.7C71.3 68.2 71.8 68.7 71.8 69.3V78.6ZM69.3 65.3H68.4V51.5C68.5 51.5 68.7 51.5 68.8 51.5C68.9 51.5 69.1 51.5 69.2 51.5L69.3 65.3ZM38 70.3C38 67.4 35.7 65.1 32.8 65.1C29.9 65.1 27.6 67.4 27.6 70.3C27.6 73.2 29.9 75.5 32.8 75.5C35.7 75.5 38 73.2 38 70.3ZM32.8 72.6C31.5 72.6 30.5 71.6 30.5 70.3C30.5 69 31.5 68 32.8 68C34.1 68 35.1 69 35.1 70.3C35.1 71.6 34.1 72.6 32.8 72.6ZM52.9 65.3C50 65.3 47.7 67.6 47.7 70.5C47.7 73.4 50 75.7 52.9 75.7C55.8 75.7 58.1 73.4 58.1 70.5C58.1 67.6 55.8 65.3 52.9 65.3ZM52.9 72.8C51.6 72.8 50.6 71.8 50.6 70.5C50.6 69.2 51.6 68.2 52.9 68.2C54.2 68.2 55.2 69.2 55.2 70.5C55.2 71.8 54.2 72.8 52.9 72.8ZM50.8 81.1C50.8 81.9 50.2 82.6 49.3 82.6H36.2C35.4 82.6 34.7 82 34.7 81.1C34.7 80.3 35.3 79.6 36.2 79.6H49.3C50.2 79.7 50.8 80.3 50.8 81.1ZM83.8 0.600006H34.4C32.9 0.600006 31.7 1.79999 31.7 3.29999V31.9C31.7 33.4 32.9 34.6 34.4 34.6H36.2V41.9C36.2 42.5 36.5 43 37 43.2C37.2 43.3 37.4 43.3 37.6 43.3C37.9 43.3 38.2 43.2 38.5 43L49.1 34.5H83.8C85.3 34.5 86.5 33.3 86.5 31.8V3.19998C86.5 1.89998 85.3 0.600006 83.8 0.600006ZM83.6 31.8H48.6C48.3 31.8 48 31.9 47.7 32.1L39.1 39V33.2C39.1 32.4 38.5 31.7 37.6 31.7H34.5V3.39999H83.5L83.6 31.8ZM40.3 9.89999C40.3 9.09999 40.9 8.39999 41.8 8.39999H76.6C77.4 8.39999 78.1 8.99999 78.1 9.89999C78.1 10.8 77.5 11.4 76.6 11.4H41.8C40.9 11.3 40.3 10.7 40.3 9.89999ZM40.3 17.8C40.3 17 40.9 16.3 41.8 16.3H76.6C77.4 16.3 78.1 16.9 78.1 17.8C78.1 18.6 77.5 19.3 76.6 19.3H41.8C40.9 19.3 40.3 18.6 40.3 17.8ZM40.3 25.7C40.3 24.9 40.9 24.2 41.8 24.2H52.7C53.5 24.2 54.2 24.8 54.2 25.7C54.2 26.6 53.6 27.2 52.7 27.2H41.8C40.9 27.2 40.3 26.5 40.3 25.7ZM63.5 25.7C63.5 26.5 62.9 27.2 62 27.2H60.1C59.3 27.2 58.6 26.6 58.6 25.7C58.6 24.8 59.2 24.2 60.1 24.2H62C62.8 24.3 63.5 24.9 63.5 25.7Z" fill="#1B54F8" stroke="white" stroke-width="0.25" stroke-miterlimit="10"></path></g></svg> 