<?xml version="1.0" encoding="UTF-8"?> <svg xmlns="http://www.w3.org/2000/svg" width="90" height="90" viewBox="0 0 90 90" fill="none"><g clip-path="url(#clip0_5_316)"><mask id="mask0_5_316" style="mask-type:luminance" maskUnits="userSpaceOnUse" x="0" y="0" width="90" height="90"><path d="M90 0H0V90H90V0Z" fill="white"></path></mask><g mask="url(#mask0_5_316)"><path d="M75.1275 45.924C75.3811 46.7562 75.9252 47.4697 76.6607 47.9345C77.3962 48.3992 78.2742 48.5843 79.1348 48.4561C79.9953 48.3279 80.7812 47.8949 81.3492 47.2359C81.9173 46.5769 82.2298 45.7358 82.2298 44.8658C82.2298 43.9957 81.9173 43.1546 81.3492 42.4956C80.7812 41.8366 79.9953 41.4036 79.1348 41.2754C78.2742 41.1472 77.3962 41.3323 76.6607 41.797C75.9252 42.2618 75.3811 42.9753 75.1275 43.8075H70.1475V29.799H78.6C78.739 29.799 78.8768 29.7716 79.0052 29.7184C79.1337 29.6652 79.2505 29.5872 79.3488 29.4888C79.4471 29.3905 79.5251 29.2737 79.5784 29.1453C79.6316 29.0168 79.659 28.8791 79.659 28.74V22.122C80.4911 21.8682 81.2044 21.324 81.669 20.5885C82.1336 19.8529 82.3186 18.975 82.1903 18.1146C82.062 17.2541 81.6289 16.4683 80.9699 15.9003C80.311 15.3324 79.4699 15.0199 78.6 15.0199C77.73 15.0199 76.889 15.3324 76.23 15.9003C75.571 16.4683 75.138 17.2541 75.0097 18.1146C74.8814 18.975 75.0664 19.8529 75.5309 20.5885C75.9955 21.324 76.7088 21.8682 77.541 22.122V27.6795H70.146V26.8845C70.144 24.9477 69.3737 23.0908 68.0042 21.7213C66.6347 20.3518 64.7778 19.5815 62.841 19.5795H62.0505V12.1845H67.608C67.8616 13.0168 68.4057 13.7302 69.1412 14.195C69.8768 14.6597 70.7547 14.8448 71.6153 14.7166C72.4758 14.5884 73.2617 14.1554 73.8297 13.4964C74.3978 12.8374 74.7103 11.9963 74.7103 11.1263C74.7103 10.2562 74.3978 9.41512 73.8297 8.75613C73.2617 8.09715 72.4758 7.66411 71.6153 7.53589C70.7547 7.40767 69.8768 7.59279 69.1412 8.05754C68.4057 8.52229 67.8616 9.23576 67.608 10.068H60.9915C60.7106 10.068 60.4412 10.1796 60.2426 10.3782C60.044 10.5768 59.9325 10.8461 59.9325 11.127V19.581H45.924V15.1845C46.7562 14.9309 47.4697 14.3867 47.9344 13.6512C48.3992 12.9157 48.5843 12.0378 48.4561 11.1772C48.3279 10.3167 47.8948 9.53082 47.2358 8.96275C46.5769 8.39467 45.7358 8.08218 44.8657 8.08218C43.9957 8.08218 43.1546 8.39467 42.4956 8.96275C41.8366 9.53082 41.4036 10.3167 41.2754 11.1772C41.1471 12.0378 41.3323 12.9157 41.797 13.6512C42.2618 14.3867 42.9752 14.9309 43.8075 15.1845V19.59H29.7975V11.1345C29.7975 10.8536 29.6859 10.5843 29.4873 10.3857C29.2887 10.1871 29.0193 10.0755 28.7385 10.0755H22.122C21.8683 9.24326 21.3242 8.5298 20.5887 8.06504C19.8532 7.60029 18.9752 7.41517 18.1147 7.54339C17.2542 7.67161 16.4683 8.10465 15.9002 8.76363C15.3321 9.42262 15.0197 10.2637 15.0197 11.1338C15.0197 12.0038 15.3321 12.8449 15.9002 13.5039C16.4683 14.1629 17.2542 14.5959 18.1147 14.7241C18.9752 14.8523 19.8532 14.6672 20.5887 14.2025C21.3242 13.7377 21.8683 13.0243 22.122 12.192H27.6795V19.5855H26.8845C24.9477 19.5875 23.0908 20.3578 21.7213 21.7273C20.3517 23.0968 19.5815 24.9537 19.5795 26.8905V27.681H12.1845V22.1205C13.0167 21.8669 13.7302 21.3227 14.1949 20.5872C14.6597 19.8517 14.8448 18.9738 14.7166 18.1132C14.5884 17.2527 14.1553 16.4668 13.4963 15.8987C12.8374 15.3307 11.9963 15.0182 11.1262 15.0182C10.2562 15.0182 9.41509 15.3307 8.7561 15.8987C8.09712 16.4668 7.66408 17.2527 7.53586 18.1132C7.40764 18.9738 7.59276 19.8517 8.05751 20.5872C8.52226 21.3227 9.23573 21.8669 10.068 22.1205V28.737C10.068 29.0179 10.1795 29.2872 10.3781 29.4858C10.5767 29.6844 10.8461 29.796 11.127 29.796H19.581V43.8045H14.6055C14.3518 42.9723 13.8077 42.2588 13.0722 41.794C12.3367 41.3293 11.4587 41.1442 10.5982 41.2724C9.73765 41.4006 8.95179 41.8336 8.38372 42.4926C7.81564 43.1516 7.50315 43.9927 7.50315 44.8628C7.50315 45.7328 7.81564 46.5739 8.38372 47.2329C8.95179 47.8919 9.73765 48.3249 10.5982 48.4531C11.4587 48.5813 12.3367 48.3962 13.0722 47.9315C13.8077 47.4667 14.3518 46.7533 14.6055 45.921H19.5855V59.9295H11.1345C10.9954 59.9295 10.8577 59.9569 10.7292 60.0101C10.6007 60.0633 10.484 60.1413 10.3856 60.2397C10.2873 60.338 10.2093 60.4548 10.1561 60.5832C10.1029 60.7117 10.0755 60.8494 10.0755 60.9885V67.605C9.24323 67.8586 8.52976 68.4028 8.06501 69.1383C7.60026 69.8738 7.41514 70.7517 7.54336 71.6123C7.67158 72.4728 8.10462 73.2587 8.7636 73.8268C9.42259 74.3948 10.2637 74.7073 11.1337 74.7073C12.0038 74.7073 12.8449 74.3948 13.5038 73.8268C14.1628 73.2587 14.5959 72.4728 14.7241 71.6123C14.8523 70.7517 14.6672 69.8738 14.2024 69.1383C13.7377 68.4028 13.0242 67.8586 12.192 67.605V62.0505H19.5855V62.841C19.5875 64.7778 20.3577 66.6347 21.7273 68.0042C23.0968 69.3737 24.9537 70.144 26.8905 70.146H27.681V77.5395H22.1205C21.8668 76.7073 21.3227 75.9938 20.5872 75.529C19.8517 75.0643 18.9737 74.8792 18.1132 75.0074C17.2526 75.1356 16.4668 75.5686 15.8987 76.2276C15.3306 76.8866 15.0182 77.7277 15.0182 78.5977C15.0182 79.4678 15.3306 80.3089 15.8987 80.9679C16.4668 81.6269 17.2526 82.0599 18.1132 82.1881C18.9737 82.3163 19.8517 82.1312 20.5872 81.6665C21.3227 81.2017 21.8668 80.4882 22.1205 79.656H28.737C29.0178 79.656 29.2872 79.5444 29.4858 79.3458C29.6844 79.1472 29.796 78.8779 29.796 78.597V70.146H43.8045V75.126C42.9723 75.3798 42.259 75.924 41.7944 76.6595C41.3299 77.3951 41.1449 78.273 41.2732 79.1334C41.4015 79.9939 41.8345 80.7797 42.4935 81.3477C43.1525 81.9156 43.9935 82.2281 44.8635 82.2281C45.7334 82.2281 46.5745 81.9156 47.2335 81.3477C47.8924 80.7797 48.3255 79.9939 48.4538 79.1334C48.5821 78.273 48.3971 77.3951 47.9325 76.6595C47.4679 75.924 46.7546 75.3798 45.9225 75.126V70.146H59.931V78.5985C59.931 78.7376 59.9584 78.8753 60.0116 79.0038C60.0648 79.1322 60.1428 79.249 60.2411 79.3473C60.3395 79.4457 60.4562 79.5237 60.5847 79.5769C60.7132 79.6301 60.8509 79.6575 60.99 79.6575H67.6065C67.8601 80.4897 68.4042 81.2032 69.1397 81.668C69.8753 82.1327 70.7532 82.3178 71.6138 82.1896C72.4743 82.0614 73.2602 81.6284 73.8282 80.9694C74.3963 80.3104 74.7088 79.4693 74.7088 78.5993C74.7088 77.7292 74.3963 76.8881 73.8282 76.2291C73.2602 75.5701 72.4743 75.1371 71.6138 75.0089C70.7532 74.8807 69.8753 75.0658 69.1397 75.5305C68.4042 75.9953 67.8601 76.7087 67.6065 77.541H62.0505V70.1475H62.841C64.7778 70.1455 66.6347 69.3752 68.0042 68.0057C69.3737 66.6362 70.144 64.7793 70.146 62.8425V62.052H77.5395V67.6095C76.7072 67.8631 75.9938 68.4073 75.529 69.1428C75.0643 69.8783 74.8791 70.7562 75.0074 71.6168C75.1356 72.4773 75.5686 73.2632 76.2276 73.8313C76.8866 74.3993 77.7277 74.7118 78.5977 74.7118C79.4678 74.7118 80.3089 74.3993 80.9678 73.8313C81.6268 73.2632 82.0599 72.4773 82.1881 71.6168C82.3163 70.7562 82.1312 69.8783 81.6664 69.1428C81.2017 68.4073 80.4882 67.8631 79.656 67.6095V60.993C79.656 60.7121 79.5444 60.4428 79.3458 60.2442C79.1472 60.0456 78.8778 59.934 78.597 59.934H70.146V45.9255H75.126L75.1275 45.924ZM78.6 43.3515C78.899 43.3515 79.1914 43.4402 79.44 43.6063C79.6886 43.7725 79.8824 44.0086 79.9969 44.2849C80.1113 44.5612 80.1413 44.8652 80.0829 45.1585C80.0246 45.4518 79.8806 45.7212 79.6691 45.9326C79.4577 46.1441 79.1882 46.2881 78.895 46.3464C78.6016 46.4048 78.2976 46.3748 78.0214 46.2604C77.7451 46.146 77.5089 45.9522 77.3428 45.7035C77.1767 45.4549 77.088 45.1625 77.088 44.8635C77.0888 44.4629 77.2484 44.0789 77.5318 43.7958C77.8152 43.5126 78.1993 43.3534 78.6 43.353V43.3515ZM77.0865 18.648C77.0865 18.349 77.1751 18.0566 77.3413 17.808C77.5074 17.5593 77.7436 17.3655 78.0199 17.2511C78.2961 17.1367 78.6002 17.1067 78.8934 17.1651C79.1868 17.2234 79.4562 17.3674 79.6676 17.5789C79.8791 17.7903 80.0231 18.0597 80.0814 18.353C80.1398 18.6463 80.1098 18.9503 79.9954 19.2266C79.8809 19.5029 79.6871 19.739 79.4385 19.9052C79.1898 20.0713 78.8975 20.16 78.5985 20.16C78.1976 20.1596 77.8132 20.0002 77.5298 19.7167C77.2463 19.4332 77.0869 19.0489 77.0865 18.648ZM71.0865 9.6165C71.385 9.61769 71.6765 9.70723 71.9242 9.87382C72.172 10.0404 72.3648 10.2766 72.4785 10.5527C72.5922 10.8287 72.6217 11.1322 72.5631 11.4249C72.5046 11.7177 72.3607 11.9865 72.1496 12.1976C71.9385 12.4087 71.6697 12.5526 71.3769 12.6111C71.0842 12.6697 70.7807 12.6402 70.5046 12.5265C70.2286 12.4129 69.9924 12.22 69.8258 11.9723C69.6592 11.7245 69.5697 11.433 69.5685 11.1345C69.5681 10.9355 69.6069 10.7384 69.6828 10.5544C69.7587 10.3704 69.8701 10.2032 70.0107 10.0624C70.1513 9.9215 70.3183 9.80975 70.5021 9.7335C70.6859 9.65725 70.883 9.618 71.082 9.618L71.0865 9.6165ZM43.353 11.7075C43.353 11.4085 43.4417 11.1161 43.6078 10.8675C43.7739 10.6188 44.0101 10.425 44.2864 10.3106C44.5626 10.1962 44.8667 10.1662 45.16 10.2246C45.4533 10.2829 45.7227 10.4269 45.9341 10.6384C46.1456 10.8498 46.2896 11.1192 46.3479 11.4125C46.4063 11.7058 46.3763 12.0098 46.2619 12.2861C46.1474 12.5624 45.9536 12.7985 45.705 12.9647C45.4563 13.1308 45.164 13.2195 44.865 13.2195C44.4641 13.2191 44.0797 13.0597 43.7963 12.7762C43.5128 12.4927 43.3534 12.1084 43.353 11.7075ZM18.648 12.6435C18.3489 12.6432 18.0566 12.5542 17.8081 12.3877C17.5595 12.2213 17.366 11.9849 17.2519 11.7084C17.1377 11.4319 17.1082 11.1278 17.1669 10.8345C17.2257 10.5412 17.3701 10.272 17.5819 10.0608C17.7937 9.84958 18.0634 9.70596 18.3569 9.64808C18.6503 9.5902 18.9544 9.62066 19.2305 9.73561C19.5067 9.85055 19.7425 10.0448 19.9082 10.2938C20.0739 10.5428 20.1621 10.8354 20.1615 11.1345C20.1603 11.5351 20.0003 11.9189 19.7166 12.2018C19.4329 12.4847 19.0486 12.6435 18.648 12.6435ZM9.61647 18.6435C9.61766 18.345 9.7072 18.0535 9.87379 17.8057C10.0404 17.558 10.2766 17.3652 10.5526 17.2515C10.8287 17.1378 11.1322 17.1083 11.4249 17.1669C11.7177 17.2254 11.9865 17.3693 12.1976 17.5804C12.4087 17.7915 12.5526 18.0603 12.6111 18.3531C12.6696 18.6458 12.6402 18.9493 12.5265 19.2254C12.4128 19.5014 12.22 19.7376 11.9722 19.9042C11.7245 20.0708 11.433 20.1603 11.1345 20.1615C10.9355 20.1619 10.7383 20.123 10.5544 20.0472C10.3704 19.9713 10.2032 19.8599 10.0623 19.7193C9.92147 19.5787 9.80972 19.4117 9.73347 19.2279C9.65722 19.0441 9.61797 18.847 9.61797 18.648L9.61647 18.6435ZM11.1345 46.3845C10.8354 46.3845 10.5431 46.2958 10.2945 46.1297C10.0458 45.9635 9.85201 45.7274 9.73757 45.4511C9.62313 45.1748 9.59319 44.8708 9.65153 44.5775C9.70987 44.2842 9.85387 44.0148 10.0653 43.8034C10.2768 43.5919 10.5462 43.4479 10.8395 43.3896C11.1328 43.3312 11.4368 43.3612 11.7131 43.4756C11.9894 43.59 12.2255 43.7838 12.3917 44.0325C12.5578 44.2811 12.6465 44.5735 12.6465 44.8725C12.6461 45.2734 12.4867 45.6577 12.2032 45.9412C11.9197 46.2247 11.5354 46.3841 11.1345 46.3845ZM12.6435 71.082C12.6432 71.3811 12.5542 71.6734 12.3877 71.9219C12.2213 72.1704 11.9848 72.364 11.7084 72.4781C11.4319 72.5922 11.1278 72.6218 10.8345 72.563C10.5412 72.5043 10.2719 72.3599 10.0607 72.148C9.84955 71.9362 9.70593 71.6665 9.64805 71.3731C9.59017 71.0796 9.62063 70.7756 9.73558 70.4995C9.85052 70.2233 10.0448 69.9875 10.2938 69.8218C10.5428 69.656 10.8354 69.5679 11.1345 69.5685C11.5351 69.5697 11.9189 69.7297 12.2018 70.0134C12.4846 70.2971 12.6435 70.6814 12.6435 71.082ZM18.6435 80.1135C18.3444 80.1135 18.0521 80.0248 17.8035 79.8587C17.5548 79.6925 17.361 79.4564 17.2466 79.1801C17.1321 78.9038 17.1022 78.5998 17.1605 78.3065C17.2189 78.0132 17.3629 77.7438 17.5743 77.5324C17.7858 77.3209 18.0552 77.1769 18.3485 77.1185C18.6418 77.0602 18.9458 77.0901 19.2221 77.2046C19.4984 77.319 19.7345 77.5128 19.9007 77.7615C20.0668 78.0101 20.1555 78.3025 20.1555 78.6015C20.1547 79.0013 19.9957 79.3846 19.7132 79.6676C19.4308 79.9507 19.0478 80.1104 18.648 80.112L18.6435 80.1135ZM46.3845 78.5985C46.3845 78.8975 46.2958 79.1899 46.1297 79.4385C45.9635 79.6872 45.7274 79.881 45.4511 79.9954C45.1748 80.1098 44.8708 80.1398 44.5775 80.0814C44.2842 80.0231 44.0148 79.8791 43.8033 79.6676C43.5919 79.4562 43.4479 79.1868 43.3895 78.8935C43.3312 78.6002 43.3611 78.2962 43.4756 78.0199C43.59 77.7436 43.7838 77.5075 44.0325 77.3413C44.2811 77.1752 44.5734 77.0865 44.8725 77.0865C45.2734 77.0869 45.6577 77.2463 45.9412 77.5298C46.2247 77.8133 46.3841 78.1976 46.3845 78.5985ZM71.088 77.0865C71.387 77.0865 71.6793 77.1752 71.928 77.3413C72.1766 77.5075 72.3704 77.7436 72.4849 78.0199C72.5993 78.2962 72.6293 78.6002 72.5709 78.8935C72.5126 79.1868 72.3686 79.4562 72.1571 79.6676C71.9457 79.8791 71.6762 80.0231 71.3829 80.0814C71.0896 80.1398 70.7856 80.1098 70.5094 79.9954C70.2331 79.881 69.9969 79.6872 69.8308 79.4385C69.6646 79.1899 69.576 78.8975 69.576 78.5985C69.5764 78.1986 69.735 77.8152 70.0171 77.5319C70.2993 77.2486 70.6821 77.0885 71.082 77.0865H71.088ZM80.1195 71.0865C80.1195 71.3855 80.0308 71.6779 79.8647 71.9265C79.6985 72.1752 79.4624 72.369 79.1861 72.4834C78.9098 72.5978 78.6058 72.6278 78.3125 72.5695C78.0192 72.5111 77.7498 72.3671 77.5383 72.1556C77.3269 71.9442 77.1829 71.6748 77.1245 71.3815C77.0662 71.0882 77.0961 70.7842 77.2106 70.5079C77.325 70.2316 77.5188 69.9955 77.7674 69.8293C78.0161 69.6632 78.3084 69.5745 78.6075 69.5745C79.0063 69.5769 79.388 69.7365 79.6698 70.0188C79.9515 70.3011 80.1104 70.6832 80.112 71.082L80.1195 71.0865ZM68.0355 62.8455C68.0339 64.2207 67.4869 65.5391 66.5145 66.5115C65.5421 67.4839 64.2237 68.0309 62.8485 68.0325H26.8845C25.5093 68.0309 24.1909 67.4839 23.2185 66.5115C22.2461 65.5391 21.6991 64.2207 21.6975 62.8455V26.8845C21.7003 25.5101 22.2478 24.1928 23.2201 23.2214C24.1923 22.25 25.5101 21.7036 26.8845 21.702H62.841C64.2154 21.7036 65.5331 22.25 66.5054 23.2214C67.4777 24.1928 68.0252 25.5101 68.028 26.8845L68.0355 62.8455ZM37.869 25.4055C36.434 25.3985 35.0403 25.8857 33.9223 26.7853C32.8042 27.6848 32.0299 28.9418 31.7295 30.345C30.4394 30.738 29.3096 31.5346 28.506 32.6176C27.7025 33.7006 27.2676 35.0129 27.2655 36.3615C27.2654 36.7509 27.301 37.1396 27.372 37.5225C25.967 38.7166 25.0892 40.4163 24.9289 42.2531C24.7685 44.09 25.3386 45.9161 26.5155 47.3355C25.899 48.3392 25.5425 49.4808 25.4782 50.6569C25.4138 51.8331 25.6437 53.0067 26.147 54.0717C26.6503 55.1366 27.4111 56.0593 28.3607 56.7563C29.3103 57.4533 30.4186 57.9026 31.5855 58.0635C31.6139 59.7131 32.29 61.2852 33.4677 62.4406C34.6454 63.596 36.2302 64.2418 37.88 64.2387C39.5298 64.2355 41.1122 63.5836 42.2855 62.4238C43.4588 61.2639 44.1288 59.6892 44.151 58.0395V31.6845C44.1281 30.0258 43.4588 28.4416 42.2855 27.2689C41.1123 26.0962 39.5277 25.4276 37.869 25.4055ZM42.0345 58.041C42.0201 59.1413 41.5766 60.1925 40.7985 60.9706C40.0204 61.7486 38.9693 62.1921 37.869 62.2065C36.7646 62.2053 35.7058 61.7661 34.9248 60.9851C34.1439 60.2042 33.7047 59.1454 33.7035 58.041C35.1672 57.8036 36.5187 57.1108 37.566 56.061C37.6645 55.9625 37.7426 55.8456 37.7959 55.7169C37.8492 55.5882 37.8766 55.4503 37.8766 55.311C37.8766 55.1717 37.8492 55.0338 37.7959 54.9051C37.7426 54.7764 37.6645 54.6595 37.566 54.561C37.4675 54.4625 37.3506 54.3844 37.2219 54.3311C37.0932 54.2778 36.9553 54.2503 36.816 54.2503C36.6767 54.2503 36.5388 54.2778 36.4101 54.3311C36.2814 54.3844 36.1645 54.4625 36.066 54.561C35.4875 55.1382 34.7755 55.5639 33.9933 55.8004C33.211 56.0368 32.3825 56.0768 31.5811 55.9167C30.7797 55.7566 30.0301 55.4014 29.3988 54.8825C28.7674 54.3636 28.2737 53.6971 27.9613 52.9419C27.649 52.1867 27.5276 51.3662 27.608 50.5529C27.6884 49.7397 27.9681 48.9588 28.4223 48.2794C28.8765 47.6 29.4911 47.043 30.2119 46.6578C30.9326 46.2726 31.7372 46.0711 32.5545 46.071C32.8353 46.071 33.1047 45.9594 33.3033 45.7608C33.5019 45.5622 33.6135 45.2929 33.6135 45.012C33.6135 44.7311 33.5019 44.4618 33.3033 44.2632C33.1047 44.0646 32.8353 43.953 32.5545 43.953C30.8455 43.9497 29.1934 44.5663 27.9045 45.6885C27.3162 44.8644 27.0014 43.8765 27.0045 42.864C27.0041 41.6931 27.4241 40.5609 28.188 39.6735C28.587 40.315 29.0981 40.8795 29.697 41.34C29.8066 41.4292 29.9329 41.4956 30.0686 41.5352C30.2043 41.5749 30.3465 41.5869 30.4869 41.5707C30.6273 41.5545 30.763 41.5104 30.8861 41.4409C31.0092 41.3714 31.1171 41.278 31.2035 41.1662C31.2899 41.0543 31.3531 40.9263 31.3893 40.7897C31.4254 40.653 31.4339 40.5106 31.4141 40.3706C31.3943 40.2307 31.3468 40.0961 31.2742 39.9748C31.2016 39.8536 31.1055 39.748 30.9915 39.6645C30.3268 39.1541 29.8321 38.4544 29.5725 37.6575C29.5725 37.635 29.559 37.614 29.5515 37.5915C29.3599 36.9676 29.3172 36.3075 29.427 35.6642C29.5367 35.0208 29.7957 34.4122 30.1833 33.887C30.5708 33.3619 31.0761 32.935 31.6585 32.6406C32.241 32.3461 32.8843 32.1923 33.537 32.1915C34.0889 32.1897 34.6357 32.2983 35.145 32.5111C35.6543 32.7239 36.1159 33.0365 36.5025 33.4305C36.7039 33.6096 36.9659 33.7051 37.2353 33.6977C37.5047 33.6902 37.7611 33.5804 37.9523 33.3905C38.1435 33.2006 38.2552 32.945 38.2645 32.6757C38.2738 32.4064 38.1801 32.1436 38.0025 31.941C36.9376 30.8555 35.5127 30.1967 33.996 30.0885C34.3092 29.3254 34.8432 28.6733 35.5295 28.2158C36.2158 27.7582 37.0231 27.5161 37.848 27.5205C38.9474 27.5429 39.9959 27.9881 40.7756 28.7636C41.5553 29.5391 42.0062 30.5852 42.0345 31.6845V58.041ZM62.358 37.5225C62.4289 37.1396 62.4645 36.7509 62.4645 36.3615C62.4623 35.0129 62.0275 33.7006 61.2239 32.6176C60.4204 31.5346 59.2905 30.738 58.0005 30.345C57.7001 28.9418 56.9257 27.6848 55.8077 26.7853C54.6896 25.8857 53.296 25.3985 51.861 25.4055C50.202 25.4272 48.6171 26.0956 47.4435 27.2683C46.2699 28.4411 45.6004 30.0256 45.5775 31.6845V58.0425C45.5996 59.6922 46.2697 61.2669 47.443 62.4268C48.6162 63.5866 50.1986 64.2385 51.8484 64.2416C53.4982 64.2448 55.0831 63.599 56.2608 62.4436C57.4385 61.2882 58.1145 59.7161 58.143 58.0665C59.3098 57.9056 60.4182 57.4563 61.3677 56.7593C62.3173 56.0623 63.0781 55.1396 63.5814 54.0747C64.0847 53.0097 64.3146 51.8361 64.2503 50.6599C64.1859 49.4838 63.8294 48.3422 63.213 47.3385C64.3903 45.919 64.9607 44.0926 64.8003 42.2554C64.64 40.4181 63.7619 38.7181 62.3565 37.524L62.358 37.5225ZM61.815 45.687C60.5259 44.5651 58.8739 43.9485 57.165 43.9515C56.8841 43.9515 56.6147 44.0631 56.4161 44.2617C56.2175 44.4603 56.106 44.7296 56.106 45.0105C56.106 45.2914 56.2175 45.5607 56.4161 45.7593C56.6147 45.9579 56.8841 46.0695 57.165 46.0695C57.9822 46.0696 58.7868 46.2711 59.5076 46.6563C60.2283 47.0415 60.843 47.5985 61.2972 48.2779C61.7513 48.9573 62.031 49.7382 62.1114 50.5514C62.1918 51.3647 62.0705 52.1852 61.7581 52.9404C61.4458 53.6956 60.9521 54.3621 60.3207 54.881C59.6893 55.3999 58.9397 55.7551 58.1383 55.9152C57.3369 56.0753 56.5084 56.0353 55.7262 55.7989C54.9439 55.5624 54.232 55.1367 53.6535 54.5595C53.4546 54.3606 53.1848 54.2488 52.9035 54.2488C52.6222 54.2488 52.3524 54.3606 52.1535 54.5595C51.9546 54.7584 51.8428 55.0282 51.8428 55.3095C51.8428 55.5908 51.9546 55.8606 52.1535 56.0595C53.2 57.1103 54.5519 57.8033 56.016 58.0395C56.0148 59.1439 55.5755 60.2027 54.7946 60.9836C54.0137 61.7646 52.9549 62.2038 51.8505 62.205C50.7502 62.1906 49.699 61.7471 48.9209 60.9691C48.1428 60.191 47.6993 59.1398 47.685 58.0395V31.6845C47.7127 30.5885 48.1605 29.545 48.9357 28.7698C49.711 27.9945 50.7545 27.5467 51.8505 27.519C52.6753 27.5148 53.4825 27.757 54.1688 28.2145C54.8551 28.672 55.3891 29.324 55.7025 30.087C54.1858 30.1953 52.7609 30.8542 51.696 31.9395C51.5879 32.0356 51.5007 32.1528 51.4396 32.2839C51.3786 32.415 51.345 32.5572 51.341 32.7017C51.337 32.8463 51.3627 32.9901 51.4164 33.1244C51.4702 33.2587 51.5508 33.3805 51.6534 33.4824C51.756 33.5843 51.8784 33.6641 52.0131 33.7169C52.1477 33.7697 52.2917 33.7943 52.4362 33.7893C52.5808 33.7843 52.7227 33.7498 52.8534 33.6878C52.9841 33.6258 53.1007 33.5377 53.196 33.429C53.5975 33.0243 54.0778 32.7064 54.6071 32.4948C55.1365 32.2832 55.7036 32.1824 56.2734 32.1988C56.8433 32.2151 57.4037 32.3482 57.92 32.5898C58.4363 32.8314 58.8976 33.1764 59.2753 33.6035C59.6529 34.0305 59.939 34.5304 60.1157 35.0724C60.2924 35.6144 60.356 36.1869 60.3026 36.7545C60.2492 37.322 60.0799 37.8726 59.8052 38.3721C59.5305 38.8716 59.1562 39.3094 58.7055 39.6585C58.4831 39.8302 58.338 40.0831 58.3021 40.3618C58.2663 40.6404 58.3426 40.9219 58.5142 41.1443C58.6859 41.3666 58.9389 41.5117 59.2175 41.5476C59.4961 41.5835 59.7776 41.5072 60 41.3355C60.5986 40.8747 61.1096 40.3102 61.509 39.669C62.2725 40.5566 62.6924 41.6887 62.6925 42.8595C62.7038 43.8707 62.3968 44.8599 61.815 45.687Z" fill="#1C54F8"></path></g></g><defs><clipPath id="clip0_5_316"><rect width="90" height="90" fill="white"></rect></clipPath></defs></svg> 