<?xml version="1.0" encoding="UTF-8"?> <!-- Generator: Adobe Illustrator 25.2.3, SVG Export Plug-In . SVG Version: 6.00 Build 0) --> <svg xmlns="http://www.w3.org/2000/svg" xmlns:xlink="http://www.w3.org/1999/xlink" version="1.1" id="Layer_1" x="0px" y="0px" viewBox="0 0 94 94" style="enable-background:new 0 0 94 94;" xml:space="preserve"> <style type="text/css"> .st0{fill:#1B54F8;stroke:#1B54F8;stroke-width:0.75;stroke-miterlimit:10;} </style> <g> <path class="st0" d="M47,57.3c-21.6,0-39.1-10-39.1-22.2S25.5,12.9,47,12.9s39.1,10,39.1,22.2S68.6,57.3,47,57.3z M47,15.5 c-20.1,0-36.5,8.8-36.5,19.6S26.9,54.7,47,54.7s36.5-8.8,36.5-19.6S67.1,15.5,47,15.5z"></path> <path class="st0" d="M47,82.1c-21.6,0-39.1-10-39.1-22.2c0-0.7,0.6-1.3,1.3-1.3s1.3,0.6,1.3,1.3c0,10.8,16.4,19.6,36.5,19.6 s36.5-8.8,36.5-19.6c0-0.7,0.6-1.3,1.3-1.3s1.3,0.6,1.3,1.3C86.1,72.1,68.6,82.1,47,82.1z"></path> <path class="st0" d="M9.2,61.2L9.2,61.2c-0.7,0-1.3-0.6-1.3-1.3V36.4c0-0.7,0.6-1.3,1.3-1.3s1.3,0.6,1.3,1.3v23.5 C10.5,60.6,9.9,61.2,9.2,61.2z"></path> <path class="st0" d="M84.8,61.2L84.8,61.2c-0.7,0-1.3-0.6-1.3-1.3V36.4c0-0.7,0.6-1.3,1.3-1.3s1.3,0.6,1.3,1.3v23.5 C86.1,60.6,85.6,61.2,84.8,61.2z"></path> <path class="st0" d="M47,31.2c-5.2,0-9.1-2.2-9.1-5.2s3.9-5.2,9.1-5.2s9.1,2.2,9.1,5.2S52.2,31.2,47,31.2z M47,23.4 c-4,0-6.5,1.5-6.5,2.6s2.5,2.6,6.5,2.6s6.5-1.5,6.5-2.6S51,23.4,47,23.4z"></path> <path class="st0" d="M24.8,40.3c-5.2,0-9.1-2.2-9.1-5.2s3.9-5.2,9.1-5.2s9.1,2.2,9.1,5.2S30,40.3,24.8,40.3z M24.8,32.5 c-4,0-6.5,1.5-6.5,2.6s2.5,2.6,6.5,2.6s6.5-1.5,6.5-2.6S28.8,32.5,24.8,32.5z"></path> <path class="st0" d="M69.2,40.3c-5.2,0-9.1-2.2-9.1-5.2s3.9-5.2,9.1-5.2s9.1,2.2,9.1,5.2S74.4,40.3,69.2,40.3z M69.2,32.5 c-4,0-6.5,1.5-6.5,2.6s2.5,2.6,6.5,2.6s6.5-1.5,6.5-2.6S73.2,32.5,69.2,32.5z"></path> <path class="st0" d="M47,49.5c-5.2,0-9.1-2.2-9.1-5.2S41.8,39,47,39s9.1,2.2,9.1,5.2S52.2,49.5,47,49.5z M47,41.6 c-4,0-6.5,1.5-6.5,2.6s2.5,2.6,6.5,2.6s6.5-1.5,6.5-2.6S51,41.6,47,41.6z"></path> <path class="st0" d="M47,36.4L47,36.4c-0.3,0-0.7-0.1-0.9-0.4c-0.1-0.1-0.2-0.3-0.3-0.4c-0.1-0.2-0.1-0.3-0.1-0.5 c0-0.7,0.6-1.3,1.3-1.3s1.3,0.6,1.3,1.3c0,0.2,0,0.3-0.1,0.5S48,35.9,47.9,36C47.7,36.3,47.3,36.4,47,36.4z"></path> <path class="st0" d="M47,36.4L47,36.4c-0.3,0-0.7-0.1-0.9-0.4c-0.1-0.1-0.2-0.3-0.3-0.4c-0.1-0.2-0.1-0.3-0.1-0.5 c0-0.7,0.6-1.3,1.3-1.3s1.3,0.6,1.3,1.3c0,0.2,0,0.3-0.1,0.5S48,35.9,47.9,36C47.7,36.3,47.3,36.4,47,36.4z"></path> <path class="st0" d="M53.5,66.4h-13c-0.7,0-1.3-0.6-1.3-1.3s0.6-1.3,1.3-1.3h13c0.7,0,1.3,0.6,1.3,1.3S54.2,66.4,53.5,66.4z"></path> <path class="st0" d="M53.5,71.6h-13c-0.7,0-1.3-0.6-1.3-1.3s0.6-1.3,1.3-1.3h13c0.7,0,1.3,0.6,1.3,1.3S54.2,71.6,53.5,71.6z"></path> </g> </svg> 