<?xml version="1.0" encoding="UTF-8"?> <svg xmlns="http://www.w3.org/2000/svg" xmlns:xlink="http://www.w3.org/1999/xlink" width="90" height="90" viewBox="0 0 90 90"><defs><clipPath id="clip-path"><rect id="Rectangle_20" data-name="Rectangle 20" width="90" height="90" transform="translate(701 824)" fill="#fff" stroke="#707070" stroke-width="1"></rect></clipPath></defs><g id="Mask_Group_20" data-name="Mask Group 20" transform="translate(-701 -824)" clip-path="url(#clip-path)"><g id="Group_251" data-name="Group 251" transform="translate(104.264 -256.088)"><path id="Path_363" data-name="Path 363" d="M124.771,122.481a4.24,4.24,0,0,1-3.69-2.162l-8.3-14.8a7.848,7.848,0,0,1-4.786-3.15l-.066.036a2.906,2.906,0,0,1-2.841-5.07l.04-.022A7.943,7.943,0,0,1,108.4,86.952l1.949-1.092,0,0c11.275-6.322,21.961-19.6,31.832-33.031a4.089,4.089,0,0,1,1.438-1.9,1.907,1.907,0,0,1,.317-.214c2.211-1.238,5.395-.042,9.209,3.463a56.4,56.4,0,0,1,10.255,13.6c5.784,10.317,9.291,22.764,4.4,25.507h0a2.192,2.192,0,0,1-.378.174,4.028,4.028,0,0,1-2.319.218c-16.193,1.388-32.71,3.5-43.973,9.465l7.317,13.053a4.224,4.224,0,0,1-3.677,6.291Zm-9.709-16.808,7.685,13.711a2.31,2.31,0,1,0,4.03-2.258l-7.322-13.063-1.115.624a7.912,7.912,0,0,1-3.279.987Zm-1.614-1.974c.038,0,.075.006.112.011a5.954,5.954,0,0,0,3.846-.69l1.115-.625-8.072-14.4-1.115.624a6.025,6.025,0,0,0-2.308,8.2l2.185,3.9a5.966,5.966,0,0,0,4.238,2.988ZM112.11,87.05l8.083,14.422c10.737-5.7,25.977-7.969,41.255-9.39-4.112-2.711-8.994-8.537-13.1-15.867q-.842-1.5-1.588-2.991l-.02-.039-.009-.016-.029-.057c-3.1-6.214-4.905-12.118-5.05-16.352-9.179,12.3-19.053,24.1-29.54,30.29Zm-6.058,11.937-.027.015a.995.995,0,0,0,.973,1.735l.027-.015Zm60.811-7.372c2.775-1.556,1.35-11.346-5.13-22.906a54.488,54.488,0,0,0-9.881-13.125,18.54,18.54,0,0,0-3.4-2.563,5.48,5.48,0,0,0-2.67-.864,2.027,2.027,0,0,0-1.859,1.474c-1.2,3.227.511,11.7,6.09,21.651a57.5,57.5,0,0,0,8.5,11.766s.654.658.664.667a21.491,21.491,0,0,0,3.937,3.144c.024.015.05.029.073.043a7,7,0,0,0,2.158.877,2.245,2.245,0,0,0,1.35-.09l.168-.072ZM127.321,94.46a.862.862,0,0,1-.312-.046.955.955,0,0,1,.015-1.81q.645-.211,1.3-.412a.955.955,0,0,1,.565,1.824c-.288.09-.579.173-.864.27a2.416,2.416,0,0,1-.7.174Zm5.6-1.608a.955.955,0,0,1-.235-1.881,135.761,135.761,0,0,1,13.967-2.7.955.955,0,1,1,.274,1.89,134.145,134.145,0,0,0-13.771,2.665.926.926,0,0,1-.235.03Zm26.88-11.8a3.564,3.564,0,0,1-1.623-.489c-2.3-1.232-3.877-3.462-5.174-5.656a20.943,20.943,0,0,1-3.218-8.57,4.172,4.172,0,0,1,.242-2.044c.95-2.2,3.306-1.216,4.677-.105a20.115,20.115,0,0,1,4.61,5.876,22.425,22.425,0,0,1,2.312,5.35c.416,1.628.807,4.13-.764,5.293a1.737,1.737,0,0,1-1.061.345Zm-8.144-15.2c-.121,2.586,1.213,4.932,2.447,7.134a22.052,22.052,0,0,0,2.863,4.09,6.413,6.413,0,0,0,2.668,2.026.315.315,0,0,0,.317-.029.321.321,0,0,0,.066-.181,8.6,8.6,0,0,0-.548-3.844,22.52,22.52,0,0,0-1.335-3.14q-.235-.459-.486-.907a25.3,25.3,0,0,0-1.813-2.8l-.044-.058a9.833,9.833,0,0,0-3.407-3.227c-.4-.174-.63,0-.681.409q-.034.266-.047.531ZM186.716,80.14a15.663,15.663,0,0,1-3.419-.593l-3.655-.71c-1.509-.3-3.021-.588-4.531-.881l-2.339-.454c-.586-.114-1.125-.471-.991-1.161a.955.955,0,0,1,1.119-.756l14,2.712a.958.958,0,0,1,.732,1.15.852.852,0,0,1-.914.693ZM169.677,65.176a.8.8,0,0,1-.831-.458.953.953,0,0,1,.366-1.3l12.659-7.1a.955.955,0,1,1,.935,1.665l-3.538,1.984-6.331,3.549-2.068,1.159a3.419,3.419,0,0,1-1.192.5Zm-8.88-8.995a.93.93,0,0,1-.895-1.262l4.991-13.356a.955.955,0,1,1,1.789.668l-4.991,13.356A.877.877,0,0,1,160.8,56.181Z" transform="translate(496.129 1043.147)" fill="#1b54f8"></path></g></g></svg> 