<?xml version="1.0" encoding="UTF-8"?> <svg xmlns="http://www.w3.org/2000/svg" xmlns:xlink="http://www.w3.org/1999/xlink" width="90" height="90" viewBox="0 0 90 90"><defs><clipPath id="clip-path"><rect id="Rectangle_14" data-name="Rectangle 14" width="90" height="90" transform="translate(227 712)" fill="#fff" opacity="0.9"></rect></clipPath></defs><g id="Mask_Group_9" data-name="Mask Group 9" transform="translate(-227 -712)" clip-path="url(#clip-path)"><g id="Group_415" data-name="Group 415" transform="translate(268.115 -411)"><path id="Path_217" data-name="Path 217" d="M144.986,100.494A25.517,25.517,0,1,0,119.47,74.976a25.546,25.546,0,0,0,25.516,25.518Zm0-48.252A22.736,22.736,0,1,1,122.25,74.976a22.762,22.762,0,0,1,22.736-22.734Z" transform="translate(-152.502 1081.618)" fill="#05f" stroke="#fff" stroke-width="1"></path><path id="Path_218" data-name="Path 218" d="M168.258,85.531,154.113,71.386a4.27,4.27,0,0,0-5.9,0l-.643.643-2.208-2.208a1.39,1.39,0,0,0-1.966,1.966l2.208,2.208-1.625,1.625-5.109-5.109A30.588,30.588,0,1,0,87.979,42.582a1.39,1.39,0,0,0,2.735.5,27.827,27.827,0,1,1-.453,5.011,1.39,1.39,0,1,0-2.78,0,30.572,30.572,0,0,0,49.258,24.22l5.273,5.273a4.717,4.717,0,0,0-1.865,3.592,4.14,4.14,0,0,0,1.222,2.949l14.145,14.145a9.009,9.009,0,0,0,12.741-12.741Zm-1.966,10.775a6.238,6.238,0,0,1-8.809,0L143.338,82.161a1.393,1.393,0,0,1,0-1.967l6.842-6.842a1.393,1.393,0,0,1,1.967,0L166.292,87.5a6.238,6.238,0,0,1,0,8.809Z" transform="translate(-125.596 1108.502)" fill="#05f" stroke="#fff" stroke-width="1"></path><path id="Path_219" data-name="Path 219" d="M247.874,156.344h7.893a1.39,1.39,0,0,0,1.39-1.39V132.71a1.39,1.39,0,0,0-1.39-1.39h-7.893a1.39,1.39,0,0,0-1.39,1.39v22.243a1.39,1.39,0,0,0,1.39,1.39Zm1.39-22.243h5.113v19.463h-5.113Z" transform="translate(-259.336 1012.764)" fill="#05f" stroke="#fff" stroke-width="1"></path><path id="Path_220" data-name="Path 220" d="M326.62,185.783h7.893a1.39,1.39,0,0,0,1.39-1.39V167.71a1.39,1.39,0,0,0-1.39-1.39H326.62a1.39,1.39,0,0,0-1.39,1.39v16.683A1.39,1.39,0,0,0,326.62,185.783Zm1.39-16.683h5.113V183H328.01Z" transform="translate(-325.571 983.325)" fill="#05f" stroke="#fff" stroke-width="1"></path><path id="Path_221" data-name="Path 221" d="M178.4,221.192V211.46a1.39,1.39,0,0,0-1.39-1.39H169.12a1.39,1.39,0,0,0-1.39,1.39v9.732a1.39,1.39,0,0,0,1.39,1.39h7.893A1.39,1.39,0,0,0,178.4,221.192Zm-2.78-1.39H170.51V212.85h5.113Z" transform="translate(-193.094 946.526)" fill="#05f" stroke="#fff" stroke-width="1"></path></g></g></svg> 