<?xml version="1.0" encoding="UTF-8"?> <!-- Generator: Adobe Illustrator 25.3.1, SVG Export Plug-In . SVG Version: 6.00 Build 0) --> <svg xmlns="http://www.w3.org/2000/svg" xmlns:xlink="http://www.w3.org/1999/xlink" version="1.1" id="Layer_1" x="0px" y="0px" viewBox="0 0 56 56" style="enable-background:new 0 0 56 56;" xml:space="preserve"> <style type="text/css"> .st0{fill:#1B54F8;} .st1{fill:none;stroke:#1B54F8;stroke-width:2;stroke-miterlimit:10;} </style> <g> <path class="st0" d="M38.6,5.1c0.1,0,0.2,0,0.3,0.1c0,0,0,0,0,0c0.3,0.2,0.3,0.5,0.2,0.7L37,9.5c1.6,1.8,2.4,4.1,2.4,6.5v0H16.3 c0-2.4,0.9-4.7,2.4-6.5L16.6,6c0,0,0,0,0,0c-0.1-0.3,0-0.6,0.2-0.7c0,0,0,0,0,0c0.1,0,0.2-0.1,0.2-0.1c0.2,0,0.4,0.1,0.5,0.3 l1.9,3.3c2.4-2.2,5.4-3.3,8.4-3.3s6.1,1.1,8.4,3.3l1.9-3.3c0,0,0,0,0-0.1C38.2,5.2,38.4,5.1,38.6,5.1 M23.5,12.2 C23.5,12.2,23.5,12.2,23.5,12.2c0.5,0,0.9-0.4,0.9-1c0-0.5-0.4-0.9-0.9-0.9c0,0,0,0,0,0c-0.5,0-0.9,0.4-0.9,0.9c0,0,0,0,0,0 C22.6,11.8,23,12.2,23.5,12.2 M32.3,12.2c0.5,0,0.9-0.4,0.9-0.9c0-0.5-0.4-0.9-0.9-0.9c0,0,0,0,0,0s0,0,0,0c-0.5,0-0.9,0.4-0.9,0.9 C31.4,11.8,31.8,12.2,32.3,12.2 M38.6,3.1c-0.8,0-1.6,0.4-2.1,1.1c0,0.1-0.1,0.1-0.1,0.2l-0.7,1.3c-2.3-1.5-5-2.3-7.8-2.3 c-2.8,0-5.5,0.8-7.8,2.3l-0.7-1.3c-0.4-0.8-1.3-1.3-2.2-1.3c-0.4,0-0.8,0.1-1.2,0.3l-0.1,0l0,0c-0.6,0.3-1,0.8-1.2,1.5 c-0.2,0.6-0.1,1.3,0.2,1.9l0,0.1l0,0l1.4,2.5c-1.3,2-2,4.3-2,6.6l0,2h2h23.2h2v-2c0-2.4-0.7-4.7-2-6.7l1.4-2.4 c0.7-1.2,0.3-2.7-0.8-3.5l0,0l0,0C39.5,3.2,39,3.1,38.6,3.1L38.6,3.1z"></path> </g> <path class="st1" d="M43.8,36.8L43.8,36.8c0.2,1.4,1.6,2.4,3,2.2c1.1-0.2,2-1.1,2.2-2.2l0,0V25.3l0,0c0,0,0-0.1,0-0.1 c-0.1-1.4-1.4-2.5-2.8-2.4c-1.3,0.1-2.3,1.1-2.4,2.4c0,0,0,0.1,0,0.1l0,0L43.8,36.8L43.8,36.8z"></path> <g> <path class="st0" d="M39.2,21.1c0.2,0,0.3,0.1,0.3,0.3v17.3c0,0,0,0.1,0,0.1c0,0.1,0,0.2,0,0.4c0,1.2-1,2.2-2.2,2.4v0h-1v7.1 c-0.2,1.1-1.1,2-2.2,2.2c-0.1,0-0.3,0-0.4,0c-1.3,0-2.4-0.9-2.6-2.2v-7.1h-6.6v7.1c-0.2,1.3-1.2,2.2-2.5,2.2c0,0-0.1,0-0.1,0 c0,0-0.1,0-0.1,0c-1.3,0-2.3-0.9-2.5-2.2v-7.1h-1v0c-1.2-0.1-2.1-1.2-2.2-2.4c0-0.1,0-0.2,0-0.3c0,0,0-0.1,0-0.1V21.5 c0-0.2,0.1-0.3,0.3-0.3H39.2C39.2,21.1,39.2,21.1,39.2,21.1 M39.2,19.1H16.5c-1.3,0-2.3,1-2.3,2.3v17.1c0,0.1,0,0.2,0,0.3 c0,0.1,0,0.3,0,0.4c0.1,1.5,0.9,2.9,2.2,3.6v0.6l1,0v5.1v0.1l0,0.1c0.3,2.3,2.2,4,4.5,4c0,0,0.1,0,0.1,0c0,0,0.1,0,0.1,0 c2.3,0,4.2-1.7,4.5-4l0-0.1v-0.1v-5.1h2.6v5.1v0.2l0,0.2c0.4,2.2,2.3,3.9,4.6,3.9c0.2,0,0.5,0,0.7-0.1c2-0.3,3.5-1.9,3.8-3.8l0-0.2 v-0.2v-5.1h1V43c1.3-0.7,2.1-2.1,2.2-3.6c0-0.2,0-0.3,0-0.5c0-0.1,0-0.2,0-0.2V21.5C41.5,20.2,40.5,19.1,39.2,19.1L39.2,19.1z"></path> </g> <path class="st1" d="M6.7,36.8L6.7,36.8C6.9,38.1,8,39.1,9.3,39c1.3,0,2.4-0.9,2.6-2.2l0,0V25.3l0,0c0,0,0-0.1,0-0.1 c-0.1-1.4-1.2-2.5-2.6-2.4c-1.4-0.1-2.5,1-2.6,2.4c0,0,0,0.1,0,0.1l0,0L6.7,36.8z"></path> <g> <text transform="matrix(1 0 0 1 256 40)" style="font-family:'MyriadPro-Regular'; font-size:12px;">https://drive.google.com/drive/folders/1Vyn--NrVNPxWuuv_3BVNFNd9Luow7pJp?usp=sharing</text> </g> </svg> 