<?xml version="1.0" encoding="UTF-8"?> <svg xmlns="http://www.w3.org/2000/svg" xmlns:xlink="http://www.w3.org/1999/xlink" width="90" height="90" viewBox="0 0 90 90"><defs><clipPath id="clip-path"><rect id="Rectangle_3" data-name="Rectangle 3" width="90" height="90" transform="translate(11.003 333.82)" fill="none"></rect></clipPath></defs><g id="Group_6" data-name="Group 6" transform="translate(-11.003 -333.82)"><g id="Group_5" data-name="Group 5" clip-path="url(#clip-path)"><path id="Path_4" data-name="Path 4" d="M94.9,374.027c-.055-.358-.092-.708-.156-1.066a.916.916,0,0,0-1.811.276,6.507,6.507,0,0,0,.129.919,5.652,5.652,0,0,0-4.265,4.6H81.724a26.567,26.567,0,0,0-7.179-17.308l5.009-5.01a5.681,5.681,0,0,0,3.328,1.076,5.516,5.516,0,0,0,2.941-.846c.175.248.359.478.533.726a.919.919,0,1,0,1.5-1.061l0-.005c-.2-.294-.422-.579-.643-.864a5.672,5.672,0,0,0-4.338-9.3,5.606,5.606,0,0,0-3.677,1.324c-.294-.221-.57-.441-.864-.644a.92.92,0,0,0-1.066,1.5c.248.174.487.358.726.542a5.66,5.66,0,0,0,.23,6.25l-5.01,5.019a26.565,26.565,0,0,0-17.271-7.133v-7.077a5.655,5.655,0,0,0,4.6-4.265l.919.128h.156a.922.922,0,1,0,.147-1.838c-.349-.064-.7-.1-1.057-.156a5.671,5.671,0,0,0-11.287,0c-.358.055-.708.092-1.057.156a.922.922,0,1,0,.147,1.838h.083l.919-.128a5.655,5.655,0,0,0,4.6,4.265v7.077a26.563,26.563,0,0,0-17.308,7.179l-5.009-5.065a5.654,5.654,0,0,0,.257-6.241c.239-.184.478-.368.726-.542a.919.919,0,0,0,.215-1.282l0-.005a.919.919,0,0,0-1.278-.211c-.294.2-.57.422-.855.643a5.611,5.611,0,0,0-3.677-1.333,5.671,5.671,0,0,0-4.32,9.311c-.211.285-.432.561-.634.855a.92.92,0,0,0,.192,1.286h0a.906.906,0,0,0,1.278-.212l.551-.726a5.59,5.59,0,0,0,2.951.846,5.664,5.664,0,0,0,3.3-1.075l5.009,5.009a26.564,26.564,0,0,0-7.133,17.3H21.289a5.652,5.652,0,0,0-4.265-4.6c.046-.294.083-.6.129-.919a.918.918,0,0,0-1.811-.3c-.064.359-.11.708-.156,1.067a5.671,5.671,0,0,0,0,11.287c.046.358.092.708.156,1.057a.92.92,0,0,0,.919.772h.156a.92.92,0,0,0,.69-1.011c-.046-.294-.083-.6-.129-.919a5.653,5.653,0,0,0,4.265-4.6h7.068A26.577,26.577,0,0,0,35.49,397.9l-5.01,5.009a5.616,5.616,0,0,0-6.25-.257c-.184-.239-.368-.478-.542-.726a.919.919,0,1,0-1.5,1.066c.2.294.422.57.643.855a5.681,5.681,0,0,0,4.348,9.311,5.6,5.6,0,0,0,3.63-1.315c.294.221.57.442.864.644a.92.92,0,1,0,1.073-1.494l-.006,0c-.249-.175-.488-.359-.727-.543a5.625,5.625,0,0,0-.229-6.25l5.009-5.019a26.763,26.763,0,0,0,17.308,7.2v7.078a5.653,5.653,0,0,0-4.6,4.265l-.919-.129a.931.931,0,1,0-.3,1.838c.349.065.7.1,1.057.157a5.671,5.671,0,0,0,11.287,0c.358-.055.708-.092,1.057-.157a.931.931,0,0,0-.3-1.838l-.92.129a5.652,5.652,0,0,0-4.6-4.265v-7.078a26.744,26.744,0,0,0,17.307-7.178l5.01,5.018A5.616,5.616,0,0,0,78,410.463c-.239.183-.478.367-.726.542a.918.918,0,0,0-.225,1.28l0,.007a.918.918,0,0,0,1.287.211c.294-.2.57-.423.864-.643a5.605,5.605,0,0,0,3.677,1.323,5.68,5.68,0,0,0,5.662-5.671,5.608,5.608,0,0,0-1.324-3.677c.221-.284.441-.56.644-.854a.921.921,0,0,0-.207-1.284l0,0a.919.919,0,0,0-1.282.214l-.005.006c-.174.249-.358.488-.542.727a5.662,5.662,0,0,0-6.25.229l-5.019-5.009a26.538,26.538,0,0,0,7.179-17.271H88.8a5.653,5.653,0,0,0,4.265,4.6,6.893,6.893,0,0,1-.129.919.92.92,0,0,0,.746,1.065h.164a.917.917,0,0,0,.919-.772c.065-.349.1-.7.157-1.057a5.671,5.671,0,0,0,0-11.287ZM82.863,348a3.824,3.824,0,0,1,2.7,6.545,1.744,1.744,0,0,1-.175.147,3.824,3.824,0,0,1-5.349-5.46l.11-.11a3.785,3.785,0,0,1,2.757-1.131Zm-31.656-7.463a.353.353,0,0,1,0-.046v-.165a3.833,3.833,0,0,1,7.666,0v.165a.353.353,0,0,1,0,.046,3.824,3.824,0,0,1-7.629,0ZM24.6,354.651l-.129-.11A3.843,3.843,0,0,1,27.181,348a3.781,3.781,0,0,1,2.7,1.131,1.436,1.436,0,0,1,.165.175,3.823,3.823,0,0,1-5.45,5.349m-8.714,28.834H15.71a3.833,3.833,0,1,1-.056-7.666h.23a3.824,3.824,0,0,1,0,7.629Zm8.585,26.729a3.813,3.813,0,0,1-.019-5.394l.019-.019a.746.746,0,0,1,.175-.166,3.788,3.788,0,0,1,2.527-.919A3.832,3.832,0,0,1,30.048,410a1.492,1.492,0,0,1-.119.12,3.78,3.78,0,0,1-2.7,1.13,3.825,3.825,0,0,1-2.758-1.039m34.368,8.6h0v.165a3.833,3.833,0,1,1-7.666,0v-.165a3.824,3.824,0,0,1,7.629,0Zm24.008-15.13a3.888,3.888,0,0,1,2.61,1.011,1.454,1.454,0,0,1,.111.111,3.8,3.8,0,0,1,.032,5.381c-.011.011-.021.022-.032.032a3.86,3.86,0,0,1-5.46,0,1.073,1.073,0,0,1-.156-.174,3.824,3.824,0,0,1,2.849-6.361Zm-9.651-7.022a24.872,24.872,0,1,1,6.719-16.986,24.872,24.872,0,0,1-6.719,16.986M94.39,383.5h-.239a3.824,3.824,0,0,1,0-7.629h.229a3.833,3.833,0,1,1,0,7.665ZM40.747,342.959a.919.919,0,0,1,.552-1.176c1.131-.4,2.3-.772,3.465-1.075a.919.919,0,0,1,.469,1.774c-1.121.294-2.234.643-3.309,1.029a.918.918,0,0,1-1.177-.552M34.4,346.131a.919.919,0,0,1,.322-1.26c1.048-.615,2.123-1.185,3.217-1.691a.919.919,0,0,1,.781,1.664c-1.038.487-2.068,1.029-3.07,1.608a.829.829,0,0,1-.459.129.92.92,0,0,1-.791-.45m-16.094,19.3a.918.918,0,0,1,.551,1.176c-.4,1.085-.735,2.2-1.029,3.309a.921.921,0,0,1-.919.681.983.983,0,0,1-.23,0,.921.921,0,0,1-.653-1.122c.3-1.158.662-2.325,1.076-3.465a.919.919,0,0,1,1.132-.639c.024.007.048.014.072.023Zm.22-2.813c.506-1.084,1.076-2.169,1.692-3.208a.919.919,0,1,1,1.675.758,1.006,1.006,0,0,1-.094.162c-.58.992-1.122,2.031-1.609,3.06a.921.921,0,0,1-.836.534.857.857,0,0,1-.386-.092.92.92,0,0,1-.458-1.217c.006-.011.011-.022.016-.033Zm2.942,37.686a.932.932,0,0,1-.46.129.92.92,0,0,1-.8-.46c-.606-1.039-1.176-2.123-1.691-3.217a.919.919,0,0,1,1.611-.885.9.9,0,0,1,.053.113c.487,1.038,1.029,2.068,1.618,3.061a.92.92,0,0,1-.331,1.25Zm-3.162-6.342a.92.92,0,0,1-1.177-.552c-.413-1.14-.772-2.307-1.084-3.474a.921.921,0,1,1,1.783-.46c.294,1.1.634,2.215,1.029,3.3a.919.919,0,0,1-.551,1.177Zm20.855,21.765a.934.934,0,0,1-1.222.442c-1.094-.515-2.169-1.085-3.217-1.692a.919.919,0,0,1,.852-1.629c.023.012.045.025.067.039.993.588,2.031,1.131,3.07,1.618a.919.919,0,0,1,.452,1.219l0,0m6.72,2.252a.921.921,0,0,1-.92.69.974.974,0,0,1-.229,0c-1.168-.313-2.335-.671-3.466-1.085a.919.919,0,0,1,.625-1.728c1.085.395,2.2.735,3.309,1.03a.919.919,0,0,1,.681,1.093m23.42-1.6a.92.92,0,0,1-.552,1.177c-1.14.413-2.307.772-3.474,1.075a.683.683,0,0,1-.23,0,.92.92,0,0,1-.26-1.81h0c1.1-.294,2.215-.634,3.3-1.029a.919.919,0,0,1,1.191.522c.008.022.016.044.023.066m6.342-3.162a.919.919,0,0,1-.328,1.258h0c-1.039.607-2.123,1.177-3.208,1.692a1.03,1.03,0,0,1-.4.082.919.919,0,0,1-.386-1.746c1.039-.487,2.068-1.03,3.061-1.618a.919.919,0,0,1,1.257.329l0,0m18.383-23.291c-.312,1.167-.671,2.334-1.084,3.465a.919.919,0,0,1-.864.606.9.9,0,0,1-.313-.055.918.918,0,0,1-.551-1.176c.395-1.085.735-2.2,1.029-3.309a.922.922,0,0,1,1.783.469m-2.472,6.82c-.515,1.094-1.085,2.169-1.692,3.217a.92.92,0,0,1-1.591-.926v0c.588-.992,1.131-2.031,1.618-3.07a.919.919,0,0,1,1.664.782m0-34.165a.919.919,0,1,1-1.664.781c-.487-1.039-1.03-2.068-1.618-3.061a.919.919,0,0,1,1.552-.986c.013.022.026.044.038.067.57,1.029,1.14,2.114,1.655,3.2Zm.211,2.8a.92.92,0,0,1,1.177.551c.413,1.14.772,2.308,1.075,3.475a.919.919,0,0,1-.653,1.121H93.14a.92.92,0,0,1-.92-.689c-.294-1.112-.634-2.224-1.029-3.3a.92.92,0,0,1,.542-1.158Zm-26.959-22.9a.922.922,0,0,1,.469-1.784c1.167.313,2.325.671,3.465,1.085a.919.919,0,1,1-.625,1.728c-1.085-.395-2.2-.735-3.309-1.029m6.508,2.353a.919.919,0,1,1,.781-1.664c1.094.515,2.169,1.085,3.217,1.691a.921.921,0,0,1-.928,1.59c-.984-.588-2.032-1.13-3.07-1.617m-2.684,28.494,2.684-3.769a.92.92,0,0,0-.111-1.177l-4.871-4.862a.92.92,0,0,0-1.2-.147l-3.815,2.675c-.377-.175-.772-.331-1.158-.469l-.827-4.6a.92.92,0,0,0-.919-.763h-6.83a.92.92,0,0,0-.919.763l-.827,4.6c-.4.138-.781.294-1.149.46l-3.778-2.666a.919.919,0,0,0-1.167.1l-4.872,4.863a.919.919,0,0,0-.147,1.222l2.684,3.833c-.174.377-.331.763-.478,1.149l-4.6.809a.918.918,0,0,0-.762.919v6.894a.919.919,0,0,0,.762.919l4.6.8c.138.4.3.782.478,1.159l-2.684,3.741a.919.919,0,0,0,.111,1.176l4.871,4.872a.92.92,0,0,0,1.167.11l3.843-2.675c.367.166.753.331,1.139.469l.736,4.072.082.524a.92.92,0,0,0,.92.772h6.884a.92.92,0,0,0,.919-.763l.827-4.6c.386-.138.773-.3,1.14-.469l3.769,2.693a.917.917,0,0,0,1.176-.11l4.872-4.871a.92.92,0,0,0,.138-1.2l-2.684-3.833c.174-.377.34-.763.478-1.149l4.6-.8a.919.919,0,0,0,.762-.919v-6.894a.919.919,0,0,0-.762-.919l-4.6-.809c-.147-.3-.3-.726-.478-1.094Zm4.007,8.98-4.375.763a.919.919,0,0,0-.717.625,11.74,11.74,0,0,1-.8,1.893.92.92,0,0,0,.065.919l2.555,3.677-3.787,3.787-3.676-2.546a.922.922,0,0,0-.92-.065,11.567,11.567,0,0,1-1.884.782.919.919,0,0,0-.625.717l-.781,4.384H52.356l-.781-4.384a.917.917,0,0,0-.625-.717,10.776,10.776,0,0,1-1.838-.782.92.92,0,0,0-.919.065l-3.677,2.546-3.787-3.787,2.555-3.677a.92.92,0,0,0,.065-.919,12.123,12.123,0,0,1-.8-1.9.919.919,0,0,0-.717-.625l-4.375-.762V377l4.375-.772a.919.919,0,0,0,.717-.616,12.4,12.4,0,0,1,.8-1.912.92.92,0,0,0-.065-.919L40.729,369.1l3.787-3.777,3.677,2.546a.919.919,0,0,0,.919.064,11.582,11.582,0,0,1,1.746-.726h.23a.92.92,0,0,0,.551-.689l.782-4.385h5.331l.781,4.385a.922.922,0,0,0,.634.717,12.312,12.312,0,0,1,1.9.781.917.917,0,0,0,.919-.065L65.62,365.4l3.787,3.778-2.555,3.677a.917.917,0,0,0-.065.919,11.442,11.442,0,0,1,.8,1.893.919.919,0,0,0,.717.616l4.375.772Zm-17.62-10.782a8.144,8.144,0,1,0,8.135,8.153v-.009a8.144,8.144,0,0,0-8.135-8.144m0,14.44a6.306,6.306,0,1,1,6.3-6.315v.019a6.305,6.305,0,0,1-6.3,6.3" fill="#1a53f6"></path><path id="Path_5" data-name="Path 5" d="M94.9,374.027c-.055-.358-.092-.708-.156-1.066a.916.916,0,0,0-1.811.276,6.507,6.507,0,0,0,.129.919,5.652,5.652,0,0,0-4.265,4.6H81.724a26.567,26.567,0,0,0-7.179-17.308l5.009-5.01a5.681,5.681,0,0,0,3.328,1.076,5.516,5.516,0,0,0,2.941-.846c.175.248.359.478.533.726a.919.919,0,1,0,1.5-1.061l0-.005c-.2-.294-.422-.579-.643-.864a5.672,5.672,0,0,0-4.338-9.3,5.606,5.606,0,0,0-3.677,1.324c-.294-.221-.57-.441-.864-.644a.92.92,0,0,0-1.066,1.5c.248.174.487.358.726.542a5.66,5.66,0,0,0,.23,6.25l-5.01,5.019a26.565,26.565,0,0,0-17.271-7.133v-7.077a5.655,5.655,0,0,0,4.6-4.265l.919.128h.156a.922.922,0,1,0,.147-1.838c-.349-.064-.7-.1-1.057-.156a5.671,5.671,0,0,0-11.287,0c-.358.055-.708.092-1.057.156a.922.922,0,1,0,.147,1.838h.083l.919-.128a5.655,5.655,0,0,0,4.6,4.265v7.077a26.563,26.563,0,0,0-17.308,7.179l-5.009-5.065a5.654,5.654,0,0,0,.257-6.241c.239-.184.478-.368.726-.542a.919.919,0,0,0,.215-1.282l0-.005a.919.919,0,0,0-1.278-.211c-.294.2-.57.422-.855.643a5.611,5.611,0,0,0-3.677-1.333,5.671,5.671,0,0,0-4.32,9.311c-.211.285-.432.561-.634.855a.92.92,0,0,0,.192,1.286h0a.906.906,0,0,0,1.278-.212l.551-.726a5.59,5.59,0,0,0,2.951.846,5.664,5.664,0,0,0,3.3-1.075l5.009,5.009a26.564,26.564,0,0,0-7.133,17.3H21.289a5.652,5.652,0,0,0-4.265-4.6c.046-.294.083-.6.129-.919a.918.918,0,0,0-1.811-.3c-.064.359-.11.708-.156,1.067a5.671,5.671,0,0,0,0,11.287c.046.358.092.708.156,1.057a.92.92,0,0,0,.919.772h.156a.92.92,0,0,0,.69-1.011c-.046-.294-.083-.6-.129-.919a5.653,5.653,0,0,0,4.265-4.6h7.068A26.577,26.577,0,0,0,35.49,397.9l-5.01,5.009a5.616,5.616,0,0,0-6.25-.257c-.184-.239-.368-.478-.542-.726a.919.919,0,1,0-1.5,1.066c.2.294.422.57.643.855a5.681,5.681,0,0,0,4.348,9.311,5.6,5.6,0,0,0,3.63-1.315c.294.221.57.442.864.644a.92.92,0,1,0,1.073-1.494l-.006,0c-.249-.175-.488-.359-.727-.543a5.625,5.625,0,0,0-.229-6.25l5.009-5.019a26.763,26.763,0,0,0,17.308,7.2v7.078a5.653,5.653,0,0,0-4.6,4.265l-.919-.129a.931.931,0,1,0-.3,1.838c.349.065.7.1,1.057.157a5.671,5.671,0,0,0,11.287,0c.358-.055.708-.092,1.057-.157a.931.931,0,0,0-.3-1.838l-.92.129a5.652,5.652,0,0,0-4.6-4.265v-7.078a26.744,26.744,0,0,0,17.307-7.178l5.01,5.018A5.616,5.616,0,0,0,78,410.463c-.239.183-.478.367-.726.542a.918.918,0,0,0-.225,1.28l0,.007a.918.918,0,0,0,1.287.211c.294-.2.57-.423.864-.643a5.605,5.605,0,0,0,3.677,1.323,5.68,5.68,0,0,0,5.662-5.671,5.608,5.608,0,0,0-1.324-3.677c.221-.284.441-.56.644-.854a.921.921,0,0,0-.207-1.284l0,0a.919.919,0,0,0-1.282.214l-.005.006c-.174.249-.358.488-.542.727a5.662,5.662,0,0,0-6.25.229l-5.019-5.009a26.538,26.538,0,0,0,7.179-17.271H88.8a5.653,5.653,0,0,0,4.265,4.6,6.893,6.893,0,0,1-.129.919.92.92,0,0,0,.746,1.065h.164a.917.917,0,0,0,.919-.772c.065-.349.1-.7.157-1.057a5.671,5.671,0,0,0,0-11.287ZM82.863,348a3.824,3.824,0,0,1,2.7,6.545,1.744,1.744,0,0,1-.175.147,3.824,3.824,0,0,1-5.349-5.46l.11-.11a3.785,3.785,0,0,1,2.757-1.131Zm-31.656-7.463a.353.353,0,0,1,0-.046v-.165a3.833,3.833,0,0,1,7.666,0v.165a.353.353,0,0,1,0,.046,3.824,3.824,0,0,1-7.629,0ZM24.6,354.651l-.129-.11A3.843,3.843,0,0,1,27.181,348a3.781,3.781,0,0,1,2.7,1.131,1.436,1.436,0,0,1,.165.175,3.823,3.823,0,0,1-5.45,5.349Zm-8.714,28.834H15.71a3.833,3.833,0,1,1-.056-7.666h.23a3.824,3.824,0,0,1,0,7.629Zm8.585,26.729a3.813,3.813,0,0,1-.019-5.394l.019-.019a.746.746,0,0,1,.175-.166,3.788,3.788,0,0,1,2.527-.919A3.832,3.832,0,0,1,30.048,410a1.492,1.492,0,0,1-.119.12,3.78,3.78,0,0,1-2.7,1.13A3.825,3.825,0,0,1,24.469,410.214Zm34.368,8.6h0v.165a3.833,3.833,0,1,1-7.666,0v-.165a3.824,3.824,0,0,1,7.629,0Zm24.008-15.13a3.888,3.888,0,0,1,2.61,1.011,1.454,1.454,0,0,1,.111.111,3.8,3.8,0,0,1,.032,5.381c-.011.011-.021.022-.032.032a3.86,3.86,0,0,1-5.46,0,1.073,1.073,0,0,1-.156-.174,3.824,3.824,0,0,1,2.849-6.361Zm-9.651-7.022a24.872,24.872,0,1,1,6.719-16.986A24.872,24.872,0,0,1,73.194,396.657ZM94.39,383.5h-.239a3.824,3.824,0,0,1,0-7.629h.229a3.833,3.833,0,1,1,0,7.665ZM40.747,342.959a.919.919,0,0,1,.552-1.176c1.131-.4,2.3-.772,3.465-1.075a.919.919,0,0,1,.469,1.774c-1.121.294-2.234.643-3.309,1.029a.918.918,0,0,1-1.177-.552ZM34.4,346.131a.919.919,0,0,1,.322-1.26c1.048-.615,2.123-1.185,3.217-1.691a.919.919,0,0,1,.781,1.664c-1.038.487-2.068,1.029-3.07,1.608a.829.829,0,0,1-.459.129A.92.92,0,0,1,34.4,346.131Zm-16.094,19.3a.918.918,0,0,1,.551,1.176c-.4,1.085-.735,2.2-1.029,3.309a.921.921,0,0,1-.919.681.983.983,0,0,1-.23,0,.921.921,0,0,1-.653-1.122c.3-1.158.662-2.325,1.076-3.465a.919.919,0,0,1,1.132-.639c.024.007.048.014.072.023Zm.22-2.813c.506-1.084,1.076-2.169,1.692-3.208a.919.919,0,1,1,1.675.758,1.006,1.006,0,0,1-.094.162c-.58.992-1.122,2.031-1.609,3.06a.921.921,0,0,1-.836.534.857.857,0,0,1-.386-.092.92.92,0,0,1-.458-1.217c.006-.011.011-.022.016-.033Zm2.942,37.686a.932.932,0,0,1-.46.129.92.92,0,0,1-.8-.46c-.606-1.039-1.176-2.123-1.691-3.217a.919.919,0,0,1,1.611-.885.9.9,0,0,1,.053.113c.487,1.038,1.029,2.068,1.618,3.061a.92.92,0,0,1-.331,1.25Zm-3.162-6.342a.92.92,0,0,1-1.177-.552c-.413-1.14-.772-2.307-1.084-3.474a.921.921,0,1,1,1.783-.46c.294,1.1.634,2.215,1.029,3.3a.919.919,0,0,1-.551,1.177Zm20.855,21.765a.934.934,0,0,1-1.222.442c-1.094-.515-2.169-1.085-3.217-1.692a.919.919,0,0,1,.852-1.629c.023.012.045.025.067.039.993.588,2.031,1.131,3.07,1.618a.919.919,0,0,1,.452,1.219Zm6.72,2.252a.921.921,0,0,1-.92.69.974.974,0,0,1-.229,0c-1.168-.313-2.335-.671-3.466-1.085a.919.919,0,0,1,.625-1.728c1.085.395,2.2.735,3.309,1.03A.919.919,0,0,1,45.886,417.981Zm23.42-1.6a.92.92,0,0,1-.552,1.177c-1.14.413-2.307.772-3.474,1.075a.683.683,0,0,1-.23,0,.92.92,0,0,1-.26-1.81h0c1.1-.294,2.215-.634,3.3-1.029a.919.919,0,0,1,1.191.522C69.291,416.338,69.3,416.36,69.306,416.382Zm6.342-3.162a.919.919,0,0,1-.328,1.258h0c-1.039.607-2.123,1.177-3.208,1.692a1.03,1.03,0,0,1-.4.082.919.919,0,0,1-.386-1.746c1.039-.487,2.068-1.03,3.061-1.618a.919.919,0,0,1,1.257.329Zm18.383-23.291c-.312,1.167-.671,2.334-1.084,3.465a.919.919,0,0,1-.864.606.9.9,0,0,1-.313-.055.918.918,0,0,1-.551-1.176c.395-1.085.735-2.2,1.029-3.309a.922.922,0,0,1,1.783.469Zm-2.472,6.82c-.515,1.094-1.085,2.169-1.692,3.217a.92.92,0,0,1-1.591-.926v0c.588-.992,1.131-2.031,1.618-3.07a.919.919,0,0,1,1.664.782Zm0-34.165a.919.919,0,1,1-1.664.781c-.487-1.039-1.03-2.068-1.618-3.061a.919.919,0,0,1,1.552-.986c.013.022.026.044.038.067.57,1.029,1.14,2.114,1.655,3.2Zm.211,2.8a.92.92,0,0,1,1.177.551c.413,1.14.772,2.308,1.075,3.475a.919.919,0,0,1-.653,1.121H93.14a.92.92,0,0,1-.92-.689c-.294-1.112-.634-2.224-1.029-3.3a.92.92,0,0,1,.542-1.158Zm-26.959-22.9a.922.922,0,0,1,.469-1.784c1.167.313,2.325.671,3.465,1.085a.919.919,0,1,1-.625,1.728C67.035,343.116,65.923,342.776,64.811,342.482Zm6.508,2.353a.919.919,0,1,1,.781-1.664c1.094.515,2.169,1.085,3.217,1.691a.921.921,0,0,1-.928,1.59C73.4,345.864,72.357,345.322,71.319,344.835Zm-2.684,28.494,2.684-3.769a.92.92,0,0,0-.111-1.177l-4.871-4.862a.92.92,0,0,0-1.2-.147l-3.815,2.675c-.377-.175-.772-.331-1.158-.469l-.827-4.6a.92.92,0,0,0-.919-.763h-6.83a.92.92,0,0,0-.919.763l-.827,4.6c-.4.138-.781.294-1.149.46l-3.778-2.666a.919.919,0,0,0-1.167.1l-4.872,4.863a.919.919,0,0,0-.147,1.222l2.684,3.833c-.174.377-.331.763-.478,1.149l-4.6.809a.918.918,0,0,0-.762.919v6.894a.919.919,0,0,0,.762.919l4.6.8c.138.4.3.782.478,1.159l-2.684,3.741a.919.919,0,0,0,.111,1.176l4.871,4.872a.92.92,0,0,0,1.167.11l3.843-2.675c.367.166.753.331,1.139.469l.736,4.072.082.524a.92.92,0,0,0,.92.772h6.884a.92.92,0,0,0,.919-.763l.827-4.6c.386-.138.773-.3,1.14-.469l3.769,2.693a.917.917,0,0,0,1.176-.11l4.872-4.871a.92.92,0,0,0,.138-1.2l-2.684-3.833c.174-.377.34-.763.478-1.149l4.6-.8a.919.919,0,0,0,.762-.919v-6.894a.919.919,0,0,0-.762-.919l-4.6-.809c-.147-.3-.3-.726-.478-1.094Zm4.007,8.98-4.375.763a.919.919,0,0,0-.717.625,11.74,11.74,0,0,1-.8,1.893.92.92,0,0,0,.065.919l2.555,3.677-3.787,3.787-3.676-2.546a.922.922,0,0,0-.92-.065,11.567,11.567,0,0,1-1.884.782.919.919,0,0,0-.625.717l-.781,4.384H52.356l-.781-4.384a.917.917,0,0,0-.625-.717,10.776,10.776,0,0,1-1.838-.782.92.92,0,0,0-.919.065l-3.677,2.546-3.787-3.787,2.555-3.677a.92.92,0,0,0,.065-.919,12.123,12.123,0,0,1-.8-1.9.919.919,0,0,0-.717-.625l-4.375-.762V377l4.375-.772a.919.919,0,0,0,.717-.616,12.4,12.4,0,0,1,.8-1.912.92.92,0,0,0-.065-.919L40.729,369.1l3.787-3.777,3.677,2.546a.919.919,0,0,0,.919.064,11.582,11.582,0,0,1,1.746-.726h.23a.92.92,0,0,0,.551-.689l.782-4.385h5.331l.781,4.385a.922.922,0,0,0,.634.717,12.312,12.312,0,0,1,1.9.781.917.917,0,0,0,.919-.065L65.62,365.4l3.787,3.778-2.555,3.677a.917.917,0,0,0-.065.919,11.442,11.442,0,0,1,.8,1.893.919.919,0,0,0,.717.616l4.375.772Zm-17.62-10.782a8.144,8.144,0,1,0,8.135,8.153v-.009A8.144,8.144,0,0,0,55.022,371.527Zm0,14.44a6.306,6.306,0,1,1,6.3-6.315v.019A6.305,6.305,0,0,1,55.022,385.967Z" fill="none" stroke="#1a53f6" stroke-width="0.75"></path></g></g></svg> 