<?xml version="1.0" encoding="UTF-8"?> <!-- Generator: Adobe Illustrator 25.2.3, SVG Export Plug-In . SVG Version: 6.00 Build 0) --> <svg xmlns="http://www.w3.org/2000/svg" xmlns:xlink="http://www.w3.org/1999/xlink" version="1.1" id="Layer_1" x="0px" y="0px" viewBox="0 0 94 94" style="enable-background:new 0 0 94 94;" xml:space="preserve"> <style type="text/css"> .st0{fill:#1B54F8;} </style> <g transform="translate(0,-952.36218)"> <g> <path class="st0" d="M24.3,963.5c-4,0-7.3,3.3-7.3,7.3v57c0,4,3.3,7.3,7.3,7.3h29.2c4,0,7.3-3.3,7.3-7.3v-4c0-0.9-0.7-1.6-1.6-1.6 c-0.9,0-1.6,0.7-1.6,1.6l0,0v4c0,2.3-1.7,4.1-4,4.1H24.3c-2.3,0-4-1.7-4-4.1v-57c0-2.3,1.7-4.1,4-4.1h29.2c2.3,0,4,1.7,4,4.1v4.6 c0,0.9,0.7,1.6,1.6,1.6c0.9,0,1.6-0.7,1.6-1.6l0,0v-4.6c0-4-3.3-7.3-7.3-7.3L24.3,963.5L24.3,963.5z M59.2,979.5L59.2,979.5 c-0.3,0-0.6,0.1-0.8,0.2L42,989.1c-0.5,0.3-0.8,0.8-0.8,1.4v18.7c0,0.6,0.3,1.1,0.8,1.4l16.4,9.4c0.5,0.3,1.1,0.3,1.6,0l16.4-9.4 c0.5-0.3,0.8-0.8,0.8-1.4v-18.7c0-0.6-0.3-1.1-0.8-1.4L60,979.8C59.8,979.5,59.4,979.5,59.2,979.5z M59.1,983l14.8,8.4v16.9 l-14.8,8.4l-14.8-8.4v-15l13.2,7.5v11.1c0,0.9,0.7,1.6,1.6,1.6c0.9,0,1.6-0.7,1.6-1.6l0,0v-11l9.8-5.6c0.8-0.4,1-1.4,0.6-2.3 c-0.4-0.8-1.4-1-2.3-0.6l0,0l-9.7,5.6l-13.2-7.6L59.1,983z M33.5,1026.5c-0.9,0-1.5,0.8-1.5,1.7s0.8,1.5,1.7,1.5H44 c0.9,0,1.6-0.7,1.6-1.6s-0.7-1.6-1.6-1.6l0,0H33.7C33.6,1026.5,33.6,1026.5,33.5,1026.5z"></path> <path class="st0" d="M53.5,1035.7H24.3c-4.3,0-7.8-3.5-7.8-7.8v-57c0-4.3,3.5-7.8,7.8-7.8h29.2c4.3,0,7.8,3.5,7.8,7.8v4.6 c0,0.6-0.2,1.1-0.6,1.5c-0.4,0.4-0.9,0.6-1.5,0.6s-1.1-0.2-1.5-0.6c-0.4-0.4-0.6-0.9-0.6-1.5v-4.6c0-2-1.5-3.6-3.5-3.6H24.3 c-2,0-3.5,1.5-3.5,3.6v57c0,2,1.5,3.6,3.5,3.6h29.2c2,0,3.5-1.5,3.5-3.6v-4c0-0.6,0.2-1.1,0.6-1.5c0.4-0.4,0.9-0.6,1.5-0.6 c1.1,0,2.2,1,2.2,2.2v4C61.3,1032.2,57.8,1035.7,53.5,1035.7z M24.3,964c-3.7,0-6.8,3.1-6.8,6.8v57c0,3.8,3.1,6.8,6.8,6.8h29.2 c3.7,0,6.8-3.1,6.8-6.8v-4c0-0.6-0.5-1.1-1.1-1.1c-0.3,0-0.6,0.1-0.8,0.3s-0.3,0.5-0.3,0.8v4.1c0,2.6-2,4.6-4.5,4.6H24.3 c-2.6,0-4.5-2.1-4.5-4.6v-57c0-2.6,2-4.6,4.5-4.6h29.2c2.6,0,4.5,2.1,4.5,4.6v4.6c0,0.3,0.1,0.6,0.3,0.8s0.5,0.3,0.8,0.3 s0.6-0.1,0.8-0.3s0.3-0.5,0.3-0.8v-4.7c0-3.8-3.1-6.8-6.8-6.8H24.3z M33.6,1030.2c-0.5,0-1-0.2-1.4-0.5c-0.4-0.4-0.7-0.9-0.7-1.4 c-0.1-1.1,0.8-2.2,2.1-2.3l0,0c0.1,0,0.1,0,0.2,0H44c1.2,0,2.2,1,2.2,2.2c0,0.6-0.2,1.1-0.6,1.5c-0.4,0.4-0.9,0.6-1.5,0.6 L33.6,1030.2L33.6,1030.2z M33.6,1027c-0.6,0-1.1,0.5-1,1.1c0,0.3,0.1,0.6,0.4,0.8c0.2,0.2,0.5,0.3,0.8,0.3h10.3 c0.3,0,0.6-0.1,0.8-0.3c0.2-0.2,0.3-0.5,0.3-0.8c0-0.6-0.5-1.1-1.1-1.1H33.6z M59.1,1020.8c-0.4,0-0.7-0.1-1.1-0.3l-16.4-9.4 c-0.6-0.4-1.1-1-1.1-1.9v-18.7c0-0.8,0.4-1.5,1.1-1.9l16.4-9.4c0.3-0.2,0.6-0.2,0.9-0.3H59l0,0l0,0c0.4,0,0.7,0.1,1,0.3l16.4,9.4 c0.7,0.4,1.1,1.1,1.1,1.9v18.7c0,0.7-0.4,1.4-1.1,1.9l-16.4,9.4C59.9,1020.7,59.5,1020.8,59.1,1020.8z M59.2,980.1L59.2,980.1 c-0.3,0-0.5,0.1-0.6,0.2l-16.4,9.4c-0.4,0.2-0.6,0.6-0.6,0.9v18.7c0,0.4,0.2,0.7,0.6,0.9l16.5,9.4c0.3,0.2,0.8,0.2,1.1,0l16.5-9.4 c0.3-0.2,0.6-0.5,0.6-0.9v-18.7c0-0.4-0.2-0.8-0.6-0.9l-16.5-9.4C59.5,980.1,59.4,980.1,59.2,980.1z M59.1,1017.4l-15.3-8.7v-16.1 l14.2,8v11.3c0,0.3,0.1,0.6,0.3,0.8s0.5,0.3,0.8,0.3c0.6,0,1.1-0.5,1.1-1.1v-11.3l10-5.8c0.5-0.3,0.7-1,0.4-1.5 c-0.3-0.5-1-0.7-1.5-0.4l-10,5.7l-14.1-8l14.1-8l15.3,8.7v17.5L59.1,1017.4z M44.8,1008l14.3,8.1l14.3-8.1v-16.3l-14.3-8.2 l-12,6.9l12.1,6.9l9.5-5.3c1-0.6,2.4-0.2,2.9,0.8c0.6,1,0.2,2.4-0.8,2.9l-9.5,5.5v10.7c0,1.2-0.9,2.2-2.2,2.2l0,0 c-1.1,0-2.2-1-2.2-2.2V1001l-12.1-6.9C44.8,994.2,44.8,1008,44.8,1008z"></path> </g> </g> </svg> 