<?xml version="1.0" encoding="UTF-8"?> <svg xmlns="http://www.w3.org/2000/svg" width="90" height="83" viewBox="0 0 90 83" fill="none"><mask id="mask0_17_332" style="mask-type:alpha" maskUnits="userSpaceOnUse" x="0" y="0" width="90" height="83"><path fill-rule="evenodd" clip-rule="evenodd" d="M73.9104 41.5551C81.6418 38.9857 83.8796 29.2375 78.2141 23.5485C74.0054 19.3223 67.1606 19.2925 62.9222 23.5485C58.6998 27.7884 58.6998 34.6636 62.9222 38.9037C65.7634 41.7567 69.9979 42.8305 73.9104 41.5551ZM42.1735 32.9925C41.4237 32.9925 40.8158 32.382 40.8158 31.6291C40.8158 30.8761 41.4237 30.2657 42.1735 30.2657H42.9372C43.687 30.2657 44.2949 30.8761 44.2949 31.6291C44.2949 32.382 43.687 32.9925 42.9372 32.9925H42.1735ZM46.9742 32.9925C46.2243 32.9925 45.6164 32.382 45.6164 31.6291C45.6164 30.8761 46.2243 30.2657 46.9742 30.2657H49.2112C49.9611 30.2657 50.5689 30.8761 50.5689 31.6291C50.5689 32.382 49.9611 32.9925 49.2112 32.9925H46.9742ZM42.1735 28.8049C41.4237 28.8049 40.8158 28.1945 40.8158 27.4415C40.8158 26.6885 41.4237 26.0781 42.1735 26.0781H42.9372C43.687 26.0781 44.2949 26.6885 44.2949 27.4415C44.2949 28.1945 43.687 28.8049 42.9372 28.8049H42.1735ZM46.9742 28.8049C46.2243 28.8049 45.6164 28.1945 45.6164 27.4415C45.6164 26.6885 46.2243 26.0781 46.9742 26.0781H49.2112C49.9611 26.0781 50.5689 26.6885 50.5689 27.4415C50.5689 28.1945 49.9611 28.8049 49.2112 28.8049H46.9742ZM51.0133 24.3659H40.0215C39.6194 24.3659 39.2856 24.7011 39.2856 25.1049V34.2037C39.2856 34.6075 39.6194 34.9427 40.0215 34.9427H49.6263L52.1011 35.4066C51.9886 35.0348 51.755 34.3962 51.757 34.0524L51.7545 25.1049C51.7545 24.7114 51.4187 24.3659 51.0133 24.3659ZM40.0215 21.6391H47.1228V20.1034C47.1228 19.6996 46.7889 19.3644 46.3869 19.3644H35.395C34.9896 19.3644 34.6539 19.7099 34.6539 20.1034L34.6514 29.0509C34.6533 29.3947 34.4198 30.0333 34.3073 30.4051L36.5703 29.9577V25.1049C36.5701 23.1961 38.1204 21.6391 40.0215 21.6391ZM49.8383 21.6391V20.1034C49.8383 18.1946 48.2879 16.6376 46.3869 16.6376H35.395C33.4969 16.6376 31.9494 18.1847 31.9488 20.1034L31.9463 28.8655L31.0944 31.6811C30.7038 32.809 31.6567 33.7039 32.6172 33.515L36.5701 32.7346V34.2039C36.5701 36.1127 38.1206 37.6697 40.0215 37.6697H49.5012L53.7909 38.5165C54.7514 38.7054 55.7044 37.8107 55.3137 36.6828L54.4618 33.8672L54.4593 25.1051C54.4591 24.1472 54.0731 23.2805 53.4517 22.6562C52.327 21.5267 51.2286 21.6391 49.8383 21.6391ZM18.2376 15.5658C16.2361 15.5658 14.4239 16.3805 13.1121 17.698C10.364 20.4575 10.2711 24.9007 12.9026 27.772C10.0984 28.7334 8.13123 31.3994 8.13123 34.4552V45.8821H2.71552V11.0951H72.9873V17.8584C68.5239 17.049 64.0833 18.5271 61.0023 21.6206C55.1295 27.5179 55.8939 37.2649 62.5754 42.1866C59.657 42.5562 57.0311 43.9007 55.0336 45.8819H28.344V34.455C28.344 31.3992 26.3768 28.733 23.5726 27.7718C24.7607 26.4755 25.4865 24.7449 25.4865 22.8446C25.4863 18.8249 22.2407 15.5658 18.2376 15.5658ZM21.4433 19.6256C18.5955 16.766 13.7044 18.8009 13.7044 22.8446C13.7044 26.8884 18.5955 28.9231 21.4433 26.0635C23.2134 24.2859 23.2134 21.4031 21.4433 19.6256ZM25.6285 45.8819V34.455C25.6285 32.0753 23.6844 30.1233 21.3147 30.1233H15.1607C12.7909 30.1233 10.8467 32.0753 10.8467 34.455V45.8819H25.6285ZM78.5609 42.1866C85.024 43.0052 90 48.5799 90 55.2128V81.6366C90 82.3896 89.3921 83 88.6422 83H52.494C51.7442 83 51.1363 82.3896 51.1363 81.6366V74.8686H14.1486C13.3988 74.8686 12.7909 74.2581 12.7909 73.5052V68.8813C12.7909 66.5108 14.7175 64.5759 17.0785 64.5759H29.8315L31.1528 57.2573H6.602C3.05476 57.2573 0 54.4911 0 50.9428V6.31424C0 2.76593 3.05476 0 6.602 0H69.1008C72.648 0 75.7028 2.76593 75.7028 6.31424V18.6545C84.5889 22.3183 86.9885 33.9484 80.1341 40.8314C79.6453 41.3222 79.1193 41.7754 78.5609 42.1866ZM53.8518 80.2734H87.2845V55.2128C87.2845 49.4941 82.6198 44.8103 76.925 44.8103H64.2113C58.5095 44.8103 53.8518 49.501 53.8518 55.2128V80.2734ZM51.1363 72.1418V67.3025H17.0785C16.2165 67.3025 15.5064 68.0156 15.5064 68.8811V72.1416L51.1363 72.1418ZM51.1363 64.5759V57.2573H44.55L45.8713 64.5759H51.1363ZM51.1539 54.5305C51.2647 52.3822 51.8957 50.3665 52.9217 48.6087H2.71552V50.9428C2.71552 52.9844 4.53744 54.5305 6.602 54.5305H51.1539ZM32.5806 64.5759H43.1222L41.8009 57.2573H33.9017L32.5806 64.5759ZM2.71552 8.36829H72.9873V6.31424C72.9873 4.27267 71.1654 2.72658 69.1008 2.72658H6.602C4.53724 2.72678 2.71552 4.27286 2.71552 6.31424V8.36829Z" fill="black"></path></mask><g mask="url(#mask0_17_332)"><rect y="-4" width="90" height="90" fill="#1B54F8"></rect></g></svg> 