<?xml version="1.0" encoding="UTF-8"?> <svg xmlns="http://www.w3.org/2000/svg" id="Layer_1" data-name="Layer 1" viewBox="0 0 80 80"><defs><style>.cls-1{fill:#1b54f8;}</style></defs><g id="Artificial-Intelligence"><g id="Group-27"><path id="Shape" class="cls-1" d="M46.54,35.15H30.07V51.61H46.53ZM44.62,49.69H32V37.07h12.6Z"></path><path id="Shape-2" data-name="Shape" class="cls-1" d="M69.64,59.42V46.69H50.82V44.33h3.32V42.41H50.82V40.05h3.32V38.13H50.82V35.77H62V21A5.24,5.24,0,1,0,60,21V33.85H50.82v-3h-3V27.55H45.91v3.32H43.55V27.55H41.63v3.32H39.27V27.55H37.34v3.32H35V27.55H33.06v3.32H30.73V27.55H28.79v3.32h-3v3H23.45V18.39a5.24,5.24,0,1,0-1.93,0V35.77h4.27v2.36h-3.3v1.92h3.3v2.36H12.21V34.23a5.23,5.23,0,1,0-1.92,0v10.1h15.5v2.36h-3.3v1.92h3.3V51H10.29v9.08a5.24,5.24,0,1,0,1.92,0V52.89H25.79v3h3v3.32h1.92V55.89h2.35v3.32H35V55.89h2.35v3.32h1.93V55.89h2.36v3.32h1.92V55.89h2.36v3.32h1.92V55.89h3v-3h3.32V51H50.82V48.61H67.7V59.42a5.24,5.24,0,1,0,1.93,0Zm-12-43.63A3.32,3.32,0,1,1,61,19.11a3.31,3.31,0,0,1-3.31-3.32ZM19.15,13.23a3.32,3.32,0,1,1,3.32,3.31,3.33,3.33,0,0,1-3.32-3.31ZM7.92,29.05a3.31,3.31,0,1,1,3.33,3.35,3.31,3.31,0,0,1-3.33-3.35Zm6.62,36.11a3.31,3.31,0,1,1-3.29-3.28,3.3,3.3,0,0,1,3.29,3.28ZM48.89,54H27.73V32.79H48.89ZM68.67,67.87A3.31,3.31,0,1,1,72,64.56a3.32,3.32,0,0,1-3.31,3.31Z"></path><path id="Path" class="cls-1" d="M29.61,21a3.61,3.61,0,0,1,3-2.88,4.63,4.63,0,0,1,4.7,2.21v4h1.92V20.32A4.13,4.13,0,0,1,43.42,18,4,4,0,0,1,47,21.08l.21.86.88-.14a3.06,3.06,0,0,1,2.54.59,3.39,3.39,0,0,1,1,2.68l1.93,0a5.3,5.3,0,0,0-1.66-4.17,4.72,4.72,0,0,0-3.26-1.1,6,6,0,0,0-10.42-1.47,6.36,6.36,0,0,0-5.91-2.1,5.55,5.55,0,0,0-4.59,4.42Z"></path><path id="Path-2" data-name="Path" class="cls-1" d="M50.77,65.75a3.45,3.45,0,0,1-2.71.62l-.7-.07-.28.65a4.83,4.83,0,0,1-3.94,3.1,4.23,4.23,0,0,1-3.85-2.24v-4H37.34v4a4.25,4.25,0,0,1-3.85,2.23A4.84,4.84,0,0,1,29.55,67l-.27-.64-.7.06a3.41,3.41,0,0,1-2.68-.7A3.45,3.45,0,0,1,25,63.11H23.06a5.22,5.22,0,0,0,1.54,4,5.06,5.06,0,0,0,3.47,1.22A6.66,6.66,0,0,0,33.35,72h.4a6,6,0,0,0,4.56-2.24A6,6,0,0,0,42.86,72h.4a6.67,6.67,0,0,0,5.28-3.64,5,5,0,0,0,3.51-1.15,5.27,5.27,0,0,0,1.5-4.09H51.63A3.37,3.37,0,0,1,50.77,65.75Z"></path><polygon id="Path-3" data-name="Path" class="cls-1" points="64.1 43.38 64.1 42.2 65.28 42.2 65.28 40.28 64.1 40.28 64.1 39.1 62.18 39.1 62.18 40.28 61 40.28 61 42.2 62.18 42.2 62.18 43.38 64.1 43.38"></polygon><polygon id="Path-4" data-name="Path" class="cls-1" points="18.03 56.21 16.1 56.21 16.1 57.39 14.93 57.39 14.93 59.31 16.1 59.31 16.1 60.49 18.03 60.49 18.03 59.31 19.21 59.31 19.21 57.39 18.03 57.39 18.03 56.21"></polygon><polygon id="Path-5" data-name="Path" class="cls-1" points="48.06 13.25 49.99 13.25 49.99 12.07 51.17 12.07 51.17 10.14 49.99 10.14 49.99 8.97 48.06 8.97 48.06 10.14 46.89 10.14 46.89 12.07 48.06 12.07 48.06 13.25"></polygon><polygon id="Path-6" data-name="Path" class="cls-1" points="7.18 18.42 9.1 18.42 9.1 17.24 10.28 17.24 10.28 15.32 9.1 15.32 9.1 14.14 7.18 14.14 7.18 15.32 6 15.32 6 17.24 7.18 17.24 7.18 18.42"></polygon><polygon id="Path-7" data-name="Path" class="cls-1" points="59.83 56.22 57.9 56.22 57.9 57.4 56.72 57.4 56.72 59.32 57.9 59.32 57.9 60.5 59.83 60.5 59.83 59.32 61 59.32 61 57.4 59.83 57.4 59.83 56.22"></polygon></g></g></svg> 