<?xml version="1.0" encoding="UTF-8"?> <svg xmlns="http://www.w3.org/2000/svg" id="Layer_1" data-name="Layer 1" viewBox="0 0 80 80"><defs><style>.cls-1,.cls-2{fill:none;stroke:#1b54f8;stroke-miterlimit:10;stroke-width:2px;}.cls-1{stroke-linecap:round;}.cls-3{fill:#1b54f8;}</style></defs><path class="cls-1" d="M68.1,65.5h0L64.2,51.6a28.85,28.85,0,0,0,7.6-21.5A29.8,29.8,0,0,0,42.3,2.2h-.1A29.79,29.79,0,0,0,12.5,32a11,11,0,0,1-1,4.7L6.9,47a4.25,4.25,0,0,0,2.2,5.7c.1.1.3.1.4.2l3,1V63a6.91,6.91,0,0,0,6.9,6.9h9.3l1.8,6.4"></path><polyline class="cls-2" points="44.75 54.3 44.75 47.43 51.33 40.85 51.33 34.67"></polyline><circle class="cls-3" cx="51.33" cy="30.79" r="4.58"></circle><circle class="cls-3" cx="40.89" cy="30.79" r="4.58"></circle><polyline class="cls-2" points="37.02 54.3 37.02 47.43 30.44 40.85 30.44 34.67"></polyline><circle class="cls-3" cx="30.44" cy="30.79" r="4.58"></circle><line class="cls-2" x1="40.97" y1="54.3" x2="40.97" y2="33.34"></line></svg> 