<?xml version="1.0" encoding="UTF-8"?> <svg xmlns="http://www.w3.org/2000/svg" id="Layer_1" data-name="Layer 1" viewBox="0 0 94 94"><defs><style>.cls-1{fill:#1b54f8;}</style></defs><path class="cls-1" d="M35.7,84.75a1.08,1.08,0,0,1-1.05-1V82.4a12.34,12.34,0,0,1,7.84-11.47l.41-.15-.35-.28a7.36,7.36,0,1,1,11.9-5.8,7.19,7.19,0,0,1-2.8,5.8l-.35.28.41.15A12.34,12.34,0,0,1,59.55,82.4v1.3a1.08,1.08,0,0,1-1,1ZM47,72.05A10.36,10.36,0,0,0,36.65,82.4v.25h20.7V82.4A10.36,10.36,0,0,0,47,72.05Zm0-12.7a5.35,5.35,0,1,0,5.35,5.35A5.36,5.36,0,0,0,47,59.35Z"></path><path class="cls-1" d="M47.1,57.6a7.11,7.11,0,0,1,7.1,7.1,7,7,0,0,1-2.71,5.61l-.7.54.83.32A12.08,12.08,0,0,1,59.3,82.4v1.3a.82.82,0,0,1-.8.8H35.7a.82.82,0,0,1-.8-.8V82.4a12.08,12.08,0,0,1,7.68-11.23l.83-.32-.7-.54A7.12,7.12,0,0,1,47.1,57.6M47,70.3a5.6,5.6,0,1,0-5.6-5.6A5.6,5.6,0,0,0,47,70.3M36.4,82.9H57.6v-.5a10.6,10.6,0,1,0-21.2,0v.5M47.1,57.1a7.62,7.62,0,0,0-4.7,13.6,12.53,12.53,0,0,0-8,11.7v1.3A1.32,1.32,0,0,0,35.7,85H58.5a1.32,1.32,0,0,0,1.3-1.3V82.4a12.53,12.53,0,0,0-8-11.7,7.44,7.44,0,0,0,2.9-6,7.6,7.6,0,0,0-7.6-7.6ZM47,69.8a5.1,5.1,0,1,1,5.1-5.1A5.12,5.12,0,0,1,47,69.8ZM36.9,82.4a10.1,10.1,0,1,1,20.2,0Z"></path><path class="cls-1" d="M47,41.65A16.15,16.15,0,1,1,63.15,25.5,16.17,16.17,0,0,1,47,41.65Zm-1.55-2h.25a2.83,2.83,0,0,1,.56.05,5.38,5.38,0,0,0,.64,0,5.7,5.7,0,0,0,.75-.06,5.28,5.28,0,0,1,.55,0h.25V38h-3Zm-3.9-.95.19,0c.19,0,.41.12.63.2s.46.15.67.2l.31.08V36.9a1.08,1.08,0,0,1,1-1h5.1a1.08,1.08,0,0,1,1,1v2.31l.3-.06a5.17,5.17,0,0,0,1.36-.43l.95-.47h-1V17.65H41.55Zm12.8-1,.39-.25a14.6,14.6,0,0,0,6.41-10.58l0-.28H54.35ZM33,26.82a14,14,0,0,0,6.42,10.59l.38.25V26.55H32.93ZM53.2,15.55a1.08,1.08,0,0,1,1,1.05v7.85h6.82l0-.27A14.16,14.16,0,0,0,47,11.35,14.36,14.36,0,0,0,32.85,24.18l0,.27h6.83V16.6a1.08,1.08,0,0,1,1.05-1.05Z"></path><path class="cls-1" d="M47,9.6A15.9,15.9,0,1,1,31.1,25.5,15.91,15.91,0,0,1,47,9.6M32.55,24.7H39.9V16.6a.82.82,0,0,1,.8-.8H53.2a.82.82,0,0,1,.8.8v8.1h7.34l0-.54A14.42,14.42,0,0,0,47,11.1,14.61,14.61,0,0,0,32.6,24.15l-.05.55M43.6,39.54V36.9a.82.82,0,0,1,.8-.8h5.1a.82.82,0,0,1,.8.8v2.61l.6-.12A5.26,5.26,0,0,0,52.32,39l1.78-.89v.07l.77-.51A14.86,14.86,0,0,0,61.4,26.86l.06-.56H54.1V38H52.4V17.4H41.3V38.89l.38.1a5.83,5.83,0,0,1,.61.18l.69.22.62.15M40,38.11V26.3H32.65l.05.55a14.26,14.26,0,0,0,6.53,10.77l.77.49m5.2,1.79h.5a4.09,4.09,0,0,1,.53,0,3.75,3.75,0,0,0,.67.06,5.9,5.9,0,0,0,.78-.06,5.13,5.13,0,0,1,.52,0h.5V37.7H45.2v2.2M47,9.1A16.4,16.4,0,1,0,63.4,25.5,16.41,16.41,0,0,0,47,9.1ZM33.1,24.2A14.07,14.07,0,0,1,47,11.6,13.9,13.9,0,0,1,60.8,24.2H54.5V16.6a1.32,1.32,0,0,0-1.3-1.3H40.7a1.32,1.32,0,0,0-1.3,1.3v7.6Zm10,14.7c-.4-.1-.9-.3-1.3-.4V17.9H51.9V38.5h.2a5,5,0,0,1-1.3.4v-2a1.32,1.32,0,0,0-1.3-1.3H44.4a1.32,1.32,0,0,0-1.3,1.3v2Zm11.5-1.7V26.8h6.3a14.36,14.36,0,0,1-6.3,10.4Zm-15.1,0a13.77,13.77,0,0,1-6.3-10.4h6.3V37.2Zm7.4,2.3c-.5,0-.7-.1-1.2-.1V38.2h2.5v1.2c-.4,0-.8.1-1.3.1Z"></path><path class="cls-1" d="M23,65.75A13.65,13.65,0,1,1,36.65,52.1,13.66,13.66,0,0,1,23,65.75Zm0-25.3A11.6,11.6,0,1,0,34.65,52.1,11.62,11.62,0,0,0,23,40.45Z"></path><path class="cls-1" d="M23,38.7A13.4,13.4,0,1,1,9.6,52.1,13.41,13.41,0,0,1,23,38.7m0,25.2A11.85,11.85,0,1,0,11.1,52,11.86,11.86,0,0,0,23,63.9m0-25.7A13.9,13.9,0,1,0,36.9,52.1,13.87,13.87,0,0,0,23,38.2Zm0,25.2A11.35,11.35,0,1,1,34.4,52.1,11.39,11.39,0,0,1,23,63.4Z"></path><path class="cls-1" d="M71,65.75A13.65,13.65,0,1,1,84.65,52.1,13.66,13.66,0,0,1,71,65.75Zm0-25.3A11.6,11.6,0,1,0,82.65,52.1,11.67,11.67,0,0,0,71,40.45Z"></path><path class="cls-1" d="M71,38.7A13.4,13.4,0,1,1,57.6,52.1,13.41,13.41,0,0,1,71,38.7m0,25.2A11.85,11.85,0,1,0,59.1,52.1,11.86,11.86,0,0,0,71,63.9m0-25.7A13.9,13.9,0,1,0,84.9,52.1,13.87,13.87,0,0,0,71,38.2Zm0,25.2A11.35,11.35,0,1,1,82.4,52.1,11.37,11.37,0,0,1,71,63.4Z"></path><path class="cls-1" d="M66.84,36a22.83,22.83,0,0,0-2.69-2.86l1.37-1.52a27,27,0,0,1,2.93,3.1Z"></path><path class="cls-1" d="M65.53,32a26.13,26.13,0,0,1,2.57,2.71l-1.22,1a22.56,22.56,0,0,0-2.38-2.52l1-1.16m0-.71-1.7,1.9a22.74,22.74,0,0,1,3,3.2l2-1.6a27.34,27.34,0,0,0-3.3-3.5Z"></path><path class="cls-1" d="M24.85,35.65A25.29,25.29,0,0,1,29,31.25l1.28,1.52a28.8,28.8,0,0,0-3.8,4.08Z"></path><path class="cls-1" d="M28.94,31.6l1,1.15a28.9,28.9,0,0,0-3.5,3.75l-1.2-.9a25.33,25.33,0,0,1,3.74-4m.06-.7a25.63,25.63,0,0,0-4.5,4.8l2,1.5a28.51,28.51,0,0,1,4.1-4.4L29,30.9Z"></path><path class="cls-1" d="M32.61,75.56a27.87,27.87,0,0,1-7.76-7.11l1.6-1.2a23.29,23.29,0,0,0,7.21,6.54Z"></path><path class="cls-1" d="M26.39,67.6a23.77,23.77,0,0,0,6.92,6.28l-.78,1.33A27.47,27.47,0,0,1,25.2,68.5l1.19-.9m.11-.7-2,1.5a28,28,0,0,0,8.2,7.5L34,73.7a23.26,23.26,0,0,1-7.5-6.8Z"></path><path class="cls-1" d="M60.44,73.79a24.2,24.2,0,0,0,7.11-6.54l1.6,1.2a28.58,28.58,0,0,1-7.67,7.1Z"></path><path class="cls-1" d="M67.61,67.6l1.19.9a28.38,28.38,0,0,1-7.23,6.7l-.79-1.33a24.39,24.39,0,0,0,6.83-6.27m-.11-.7a24,24,0,0,1-7.4,6.8l1.3,2.2a28.9,28.9,0,0,0,8.1-7.5l-2-1.5Z"></path><rect class="cls-1" x="43.45" y="20.75" width="2" height="2"></rect><path class="cls-1" d="M45.2,21v1.5H43.7V21h1.5m.5-.5H43.2V23h2.5V20.5Z"></path><rect class="cls-1" x="48.55" y="20.75" width="2" height="2"></rect><path class="cls-1" d="M50.3,21v1.5H48.8V21h1.5m.5-.5H48.3V23h2.5V20.5Z"></path><rect class="cls-1" x="43.45" y="25.75" width="2" height="2"></rect><path class="cls-1" d="M45.2,26v1.5H43.7V26h1.5m.5-.5H43.2V28h2.5V25.5Z"></path><rect class="cls-1" x="48.55" y="25.75" width="2" height="2"></rect><path class="cls-1" d="M50.3,26v1.5H48.8V26h1.5m.5-.5H48.3V28h2.5V25.5Z"></path><rect class="cls-1" x="43.45" y="30.85" width="2" height="2"></rect><path class="cls-1" d="M45.2,31.1v1.5H43.7V31.1h1.5m.5-.5H43.2v2.5h2.5V30.6Z"></path><rect class="cls-1" x="48.55" y="30.85" width="2" height="2"></rect><path class="cls-1" d="M50.3,31.1v1.5H48.8V31.1h1.5m.5-.5H48.3v2.5h2.5V30.6Z"></path><rect class="cls-1" x="35.85" y="29.55" width="2" height="2"></rect><path class="cls-1" d="M37.6,29.8v1.5H36.1V29.8h1.5m.5-.5H35.6v2.5h2.5V29.3Z"></path><rect class="cls-1" x="56.05" y="29.55" width="2" height="2"></rect><path class="cls-1" d="M57.8,29.8v1.5H56.3V29.8h1.5m.5-.5H55.8v2.5h2.5V29.3Z"></path><path class="cls-1" d="M70.05,59.55V58.13l-.15-.06A3.82,3.82,0,0,1,67.56,55h2a1.55,1.55,0,1,0,1.53-1.8,3.55,3.55,0,0,1-3.55-3.55,3.44,3.44,0,0,1,2.33-3.36l.17-.06V44.55h2V46l.15.07a3.82,3.82,0,0,1,2.34,3.12h-2A1.55,1.55,0,1,0,71,51a3.55,3.55,0,0,1,3.55,3.55,3.44,3.44,0,0,1-2.33,3.36l-.17.06v1.63Z"></path><path class="cls-1" d="M71.8,44.8v1.33l.3.13a3.59,3.59,0,0,1,2.16,2.64H72.73A1.85,1.85,0,0,0,71,47.6a1.8,1.8,0,1,0,0,3.6,3.3,3.3,0,0,1,3.3,3.3,3.22,3.22,0,0,1-2.16,3.13l-.34.11V59.3H70.3V58l-.3-.13a3.59,3.59,0,0,1-2.16-2.64h1.53a1.85,1.85,0,0,0,1.73,1.3,1.8,1.8,0,1,0,0-3.6,3.3,3.3,0,0,1-3.3-3.3A3.22,3.22,0,0,1,70,46.47l.34-.11V44.8h1.5m.5-.5H69.8V46a3.7,3.7,0,0,0-2.5,3.6,3.8,3.8,0,0,0,3.8,3.8,1.3,1.3,0,1,1-1.3,1.3H67.3a4,4,0,0,0,2.5,3.6v1.5h2.5V58.1a3.7,3.7,0,0,0,2.5-3.6A3.8,3.8,0,0,0,71,50.7a1.3,1.3,0,1,1,1.3-1.3h2.5a4,4,0,0,0-2.5-3.6V44.3Z"></path><path class="cls-1" d="M17.9,57a4.85,4.85,0,1,1,0-9.7,4.8,4.8,0,0,1,4.66,3.62l.05.18h4.44v-2.5h2v2.5h1.8v-2.5h2v4.6H22.61l-.05.18A4.87,4.87,0,0,1,17.9,57Zm0-7.6a2.75,2.75,0,1,0,0,5.5A2.84,2.84,0,0,0,20,54a2.48,2.48,0,0,0,.67-1.88A2.72,2.72,0,0,0,17.9,49.35Z"></path><path class="cls-1" d="M17.9,47.5a4.57,4.57,0,0,1,4.42,3.43l.1.37H27.3V48.8h1.5v2.5h2.3V48.8h1.5v4.1H22.42l-.1.37A4.59,4.59,0,1,1,17.9,47.5m0,7.6a3.08,3.08,0,0,0,2.26-1,2.71,2.71,0,0,0,.74-2,3,3,0,1,0-3,3m0-8.1a5.1,5.1,0,1,0,4.9,6.4H33.1V48.3H30.6v2.5H29.3V48.3H26.8v2.5h-4A5,5,0,0,0,17.9,47Zm0,7.6a2.5,2.5,0,1,1,2.5-2.5,2.42,2.42,0,0,1-2.5,2.5Z"></path></svg> 