<?xml version="1.0" encoding="UTF-8"?> <svg xmlns="http://www.w3.org/2000/svg" xmlns:xlink="http://www.w3.org/1999/xlink" width="90" height="90" viewBox="0 0 90 90"><defs><clipPath id="clip-path"><rect id="Rectangle_21" data-name="Rectangle 21" width="90" height="90" transform="translate(1286 498)" fill="#fff" stroke="#707070" stroke-width="1"></rect></clipPath></defs><g id="Mask_Group_14" data-name="Mask Group 14" transform="translate(-1286 -498)" clip-path="url(#clip-path)"><g id="Group_30" data-name="Group 30" transform="translate(-5.013 133)"><path id="Path_53" data-name="Path 53" d="M78.566,19.834H34.074l-.031,0-.034,0a.869.869,0,0,0-.115.014h-.007a.888.888,0,0,0-.115.032l-.032.012a1.1,1.1,0,0,0-.1.045l-.01.005a.985.985,0,0,0-.1.064l-.027.019a.863.863,0,0,0-.094.082l-12.45,12.45a.974.974,0,0,0-.082.1l-.019.025a.887.887,0,0,0-.065.1l0,.006a.937.937,0,0,0-.047.107l-.01.029a.937.937,0,0,0-.032.118h0a.961.961,0,0,0-.015.12c0,.01,0,.02,0,.031s0,.021,0,.032V53.214l-3.466,1.849a3.087,3.087,0,0,0-.479-.193,3.022,3.022,0,0,0-2.319.224L3.625,60.848a3.05,3.05,0,0,0-1.254,4.119l.384.721a3.026,3.026,0,0,0,1.8,1.478,3.084,3.084,0,0,0,.895.134,3.021,3.021,0,0,0,1.425-.358l10.791-5.755a3.044,3.044,0,0,0,1.585-2.306l1.428-.762v7.6a.946.946,0,0,0,.945.945H78.567a.946.946,0,0,0,.945-.945V20.781A.948.948,0,0,0,78.566,19.834ZM33.129,23.061v9.223H23.905ZM24.373,53.385c.041.082.083.163.126.244s.087.161.131.241l-5.755,3.069-.259-.484Zm2.219.078c-.048-.076-.1-.151-.144-.228q-.142-.236-.273-.483l-.008-.013h0q-.135-.253-.255-.51c-.035-.073-.065-.148-.1-.222a11.308,11.308,0,1,1,.778,1.456Zm-9.815,6.057L5.985,65.274A1.161,1.161,0,0,1,4.423,64.8l-.384-.721a1.156,1.156,0,0,1,.475-1.563L15.3,56.759a1.14,1.14,0,0,1,.538-.135,1.17,1.17,0,0,1,.342.051,1.145,1.145,0,0,1,.683.559l.384.721A1.156,1.156,0,0,1,16.776,59.519ZM77.62,64.771H22.569v-7.66l3.108-1.657a13.207,13.207,0,1,0-2.036-3.82L22.57,52.2V34.174h11.5a.946.946,0,0,0,.945-.945v-11.5h42.6V64.771ZM50.506,55.19h5.028a.946.946,0,0,0,.945-.945V36.67a.946.946,0,0,0-.945-.945H50.506a.946.946,0,0,0-.945.945V54.245A.946.946,0,0,0,50.506,55.19Zm.945-17.575H54.59V53.3H51.452V37.615ZM59.114,55.19h5.028a.946.946,0,0,0,.945-.945V31.026a.946.946,0,0,0-.945-.945H59.114a.946.946,0,0,0-.945.945V54.245A.946.946,0,0,0,59.114,55.19Zm.945-23.219H63.2V53.3H60.06ZM67.723,55.19h5.028a.946.946,0,0,0,.945-.945V28.8a.946.946,0,0,0-.945-.945H67.723a.946.946,0,0,0-.945.945V54.246A.945.945,0,0,0,67.723,55.19Zm.945-25.444h3.138V53.3H68.668ZM73.7,57.694a.946.946,0,0,1-.945.945H51.693a.945.945,0,0,1,0-1.891H72.751A.945.945,0,0,1,73.7,57.694ZM32.407,45.55a3.186,3.186,0,0,1,2.474-3.1l-.051-.694a.945.945,0,1,1,1.885-.139l.052.71A3.189,3.189,0,0,1,39.627,45.1a.945.945,0,0,1-1.887.119c-.039-.612-.875-1.1-1.795-1.041h0c-.918.059-1.688.646-1.65,1.258a.993.993,0,0,0,.467.711,2.144,2.144,0,0,0,1.33.329,4.009,4.009,0,0,1,2.519.659,2.85,2.85,0,0,1,1.282,2.15,3.186,3.186,0,0,1-2.474,3.1l.051.693a.944.944,0,0,1-.873,1.012l-.071,0a.944.944,0,0,1-.941-.875l-.052-.709a3.835,3.835,0,0,1-1.579-.616,2.85,2.85,0,0,1-1.282-2.15.945.945,0,0,1,1.887-.119.993.993,0,0,0,.467.711,2.139,2.139,0,0,0,1.33.329c.918-.058,1.69-.645,1.651-1.258a.993.993,0,0,0-.467-.711,2.136,2.136,0,0,0-1.33-.329,4.013,4.013,0,0,1-2.519-.659A2.846,2.846,0,0,1,32.407,45.55Zm-3.432,9.919a10.707,10.707,0,0,0,7.16,2.733q.317,0,.636-.019a10.786,10.786,0,1,0-7.8-2.714ZM29.507,41.5a8.9,8.9,0,1,1,.726,12.56A8.877,8.877,0,0,1,29.507,41.5Z" transform="translate(1295 366.166)" fill="#1c54f8"></path></g></g></svg> 