<?xml version="1.0" encoding="UTF-8"?> <!-- Generator: Adobe Illustrator 25.2.2, SVG Export Plug-In . SVG Version: 6.00 Build 0) --> <svg xmlns="http://www.w3.org/2000/svg" xmlns:xlink="http://www.w3.org/1999/xlink" version="1.1" id="Layer_1" x="0px" y="0px" viewBox="0 0 80 80" style="enable-background:new 0 0 80 80;" xml:space="preserve"> <style type="text/css"> .st0{fill:#FFFFFF;} .st1{fill:#1B54F8;} </style> <path class="st0" d="M47.3,68c-0.6,0-1-0.4-1-1c0-3-2.4-5.4-5.4-5.4c-3,0-5.4,2.4-5.4,5.4c0,0.6-0.4,1-1,1H19.6 C13.2,68,8,62.8,8,56.3c0,0,0,0,0,0v-8.5c0-6.4,5.2-11.6,11.6-11.6h42.6c6.4,0,11.6,5.2,11.6,11.6v8.5c0,6.4-5.2,11.7-11.6,11.7 c0,0,0,0,0,0H47.3z"></path> <path class="st1" d="M62.2,37.2c5.9,0,10.6,4.8,10.6,10.6v8.5c0,5.9-4.7,10.7-10.6,10.7c0,0,0,0,0,0H47.3c-0.1-3.5-3.1-6.3-6.6-6.1 c-3.3,0.1-6,2.8-6.1,6.1H19.6C13.8,67,9,62.2,9,56.4c0,0,0,0,0,0v-8.5c0-5.9,4.8-10.6,10.6-10.6H62.2 M62.2,35.2H19.6 c-7,0-12.6,5.7-12.6,12.6v8.5c0,7,5.6,12.7,12.6,12.7c0,0,0,0,0,0h14.9c1.1,0,2-0.9,2-2c0-2.4,2-4.4,4.4-4.4c2.4,0,4.4,2,4.4,4.4 c0,0,0,0,0,0c0,1.1,0.9,2,2,2h14.9c7,0,12.6-5.7,12.6-12.7c0,0,0,0,0,0v-8.5C74.8,40.8,69.2,35.2,62.2,35.2z"></path> <path class="st0" d="M73.8,34.6c-3.2-2.8-7.3-4.4-11.6-4.4H19.6c-4.3,0-8.4,1.6-11.6,4.4V18c0-0.6,0.4-1,1-1h12.8 c0.2,0,0.4,0.1,0.6,0.2c5.3,4,11.9,6.2,18.6,6.2c6.7,0,13.2-2.2,18.6-6.2c0.2-0.1,0.4-0.2,0.6-0.2h12.8c0.6,0,1,0.4,1,1L73.8,34.6z"></path> <path class="st1" d="M21.8,18c5.5,4.2,12.3,6.4,19.2,6.4c6.9,0,13.6-2.2,19.2-6.4h12.8v14.5c-3.1-2.2-6.8-3.3-10.6-3.3H19.6 c-3.8,0-7.5,1.2-10.6,3.4V18H21.8 M72.9,16H60.1c-0.4,0-0.8,0.1-1.2,0.4c-5.2,3.9-11.5,6-18,6c-6.5,0-12.8-2.1-18-6 c-0.3-0.3-0.8-0.4-1.2-0.4H9c-1.1,0-2,0.9-2,2v19c3.1-3.7,7.8-5.8,12.6-5.8h42.6c4.9,0,9.5,2.1,12.6,5.8V18C74.8,16.9,74,16,72.9,16 L72.9,16z"></path> </svg> 