<?xml version="1.0" encoding="UTF-8"?> <!-- Generator: Adobe Illustrator 25.2.3, SVG Export Plug-In . SVG Version: 6.00 Build 0) --> <svg xmlns="http://www.w3.org/2000/svg" xmlns:xlink="http://www.w3.org/1999/xlink" version="1.1" id="Layer_1" x="0px" y="0px" viewBox="0 0 94 94" style="enable-background:new 0 0 94 94;" xml:space="preserve"> <style type="text/css"> .st0{fill:#1B54F8;} </style> <desc>Created with Sketch.</desc> <g> <path class="st0" d="M57.5,26.4c0-5.9-4.8-10.7-10.7-10.7s-10.7,4.8-10.7,10.7S41,37.1,46.9,37.1S57.5,32.3,57.5,26.4z M40.4,26.4 c0-3.6,2.9-6.4,6.4-6.4s6.4,2.9,6.4,6.4s-2.9,6.4-6.4,6.4S40.4,30,40.4,26.4z"></path> <path class="st0" d="M80.8,74.9V67c0-3.6-3-6.6-6.6-6.6H49V50h1c2,0,3.6-1.6,3.6-3.6v-1.8c0.5-0.2,1-0.4,1.4-0.6l1.2,1.2 c1.3,1.3,3.7,1.3,5.1,0l4.5-4.5c1.4-1.4,1.4-3.6,0-5.1l-1.2-1.2c0.2-0.5,0.4-1,0.6-1.4h1.7c2,0,3.6-1.6,3.6-3.6v-6.3 c0-2-1.6-3.6-3.6-3.6h-1.8c-0.2-0.5-0.4-1-0.6-1.4l1.2-1.2c1.4-1.4,1.4-3.6,0-5.1l-4.5-4.3c-1.4-1.4-3.6-1.4-5.1,0l-1.2,1.2 c-0.5-0.2-1-0.4-1.4-0.6V6.4c0-2-1.6-3.6-3.6-3.6h-6.3c-2,0-3.6,1.6-3.6,3.6v1.8c-0.5,0.2-1,0.4-1.4,0.6l-1.2-1.2 c-1.4-1.4-3.6-1.4-5.1,0L27.8,12c-1.4,1.4-1.4,3.6,0,5.1l1.2,1.2c-0.2,0.5-0.4,1-0.6,1.4h-1.7c-2,0-3.6,1.6-3.6,3.6v6.3 c0,2,1.6,3.6,3.6,3.6h1.9c0.2,0.5,0.4,1,0.6,1.4L28,35.8c-0.7,0.7-1.1,1.5-1.1,2.5s0.4,1.8,1.1,2.5l4.5,4.5c1.4,1.4,3.6,1.4,5.1,0 l1.2-1.2c0.5,0.2,1,0.4,1.4,0.6v1.7c0,2,1.6,3.6,3.6,3.6h1.1v10.4H19.6c-3.6,0-6.6,3-6.6,6.6v7.9c-4.3,1-7.5,4.8-7.5,9.4 c0,5.3,4.3,9.7,9.7,9.7s9.5-4.3,9.5-9.7c0-4.6-3.3-8.4-7.5-9.4V67c0-1.3,1.1-2.4,2.4-2.4h25.1v10.3c-4.3,1-7.5,4.8-7.5,9.4 c0,5.3,4.3,9.7,9.7,9.7s9.6-4.3,9.6-9.7c0-4.6-3.3-8.4-7.5-9.4V64.6h25.1c1.3,0,2.4,1.1,2.4,2.4v7.9c-4.3,1-7.5,4.8-7.5,9.4 c0,5.3,4.3,9.7,9.7,9.7c5.3,0,9.7-4.3,9.7-9.7C88.3,79.8,85.2,76,80.8,74.9z M42.8,41.1c-1.2-0.3-2.4-0.8-3.5-1.4 c-0.9-0.5-1.8-0.3-2.5,0.4L35,42l-3.6-3.6l1.8-1.8c0.7-0.7,0.8-1.7,0.4-2.6c-0.6-1.1-1.1-2.2-1.4-3.5c-0.3-1-1.1-1.5-2-1.5h-2.7v-5 h2.7c1,0,1.8-0.7,2-1.5c0.3-1.2,0.8-2.4,1.4-3.5c0.5-0.9,0.3-1.8-0.4-2.5l-1.9-1.9l3.6-3.6l1.8,1.8c0.7,0.7,1.7,0.8,2.6,0.4 c1.1-0.6,2.2-1.1,3.5-1.4c1-0.3,1.5-1.1,1.5-2V7h5v2.7c0,1,0.7,1.8,1.5,2c1.2,0.4,2.4,0.8,3.5,1.4c0.9,0.5,1.8,0.3,2.6-0.4l1.9-1.9 l3.6,3.6l-1.8,1.8c-0.7,0.7-0.8,1.7-0.4,2.6c0.6,1.1,1.1,2.2,1.4,3.5c0.3,1,1.1,1.5,2,1.5h2.7v5h-2.7c-1,0-1.8,0.7-2,1.5 c-0.4,1.2-0.8,2.4-1.4,3.5c-0.5,0.9-0.3,1.8,0.4,2.6l1.9,1.9l-3.6,3.6L57,40.1c-0.7-0.7-1.7-0.8-2.6-0.4c-1.1,0.6-2.2,1.1-3.5,1.4 c-1,0.3-1.5,1.1-1.5,2v2.7h-5v-2.7C44.4,42.3,43.7,41.4,42.8,41.1z M20.5,84.3c0,3-2.4,5.4-5.4,5.4s-5.4-2.4-5.4-5.4 s2.4-5.4,5.4-5.4S20.5,81.3,20.5,84.3z M52.2,84.3c0,3-2.4,5.4-5.4,5.4s-5.4-2.4-5.4-5.4s2.4-5.4,5.4-5.4S52.2,81.3,52.2,84.3z M78.7,89.8c-3,0-5.4-2.4-5.4-5.4s2.4-5.4,5.4-5.4s5.4,2.4,5.4,5.4C84.1,87.3,81.7,89.8,78.7,89.8z"></path> </g> </svg> 