<?xml version="1.0" encoding="UTF-8"?> <svg xmlns="http://www.w3.org/2000/svg" xmlns:xlink="http://www.w3.org/1999/xlink" width="90" height="90" viewBox="0 0 90 90"><defs><clipPath id="clip-path"><rect id="Rectangle_26" data-name="Rectangle 26" width="90" height="90" transform="translate(339 891)" fill="#fff" stroke="#707070" stroke-width="1"></rect></clipPath></defs><g id="Mask_Group_12" data-name="Mask Group 12" transform="translate(-339 -891)" clip-path="url(#clip-path)"><g id="Group_8" data-name="Group 8" transform="translate(346.5 898.5)"><path id="Path_12" data-name="Path 12" d="M77.991,65.861V58.646a14.007,14.007,0,0,0-8.558-12.92L62.889,29.114a1.507,1.507,0,0,0-2.014-.839,1.577,1.577,0,0,0-.839,2.014l5.705,14.347a12.391,12.391,0,0,0-1.762-.084H21.7a10.153,10.153,0,0,0-1.594.084l5.705-14.347a1.542,1.542,0,1,0-2.853-1.175L16.41,45.558A14.33,14.33,0,0,0,7.517,58.646v7.215A3.679,3.679,0,0,0,5,69.3v1.93a3.724,3.724,0,0,0,3.691,3.692h2.181v5.2a4.173,4.173,0,0,0,4.111,4.111h9.984a4.118,4.118,0,0,0,4.111-4.111v-5.2H56.6v5.2a4.173,4.173,0,0,0,4.111,4.111h9.984A4.118,4.118,0,0,0,74.8,80.124v-5.2h2.181a3.724,3.724,0,0,0,3.691-3.692V69.3A3.994,3.994,0,0,0,77.991,65.861ZM10.705,58.646A11.073,11.073,0,0,1,17.92,48.327c.084,0,.084,0,.168-.084a10.5,10.5,0,0,1,3.608-.587H63.9a11.051,11.051,0,0,1,3.691.671c.084,0,.168.084.252.084a10.893,10.893,0,0,1,7.047,10.236v7.047H56.261V61.079a4.047,4.047,0,0,0-4.111-4.027H33.357a4.1,4.1,0,0,0-4.111,4.027v4.614H10.705ZM32.351,65.61V61a.931.931,0,0,1,.923-.923H52.15a.931.931,0,0,1,.923.923V65.61Zm-6.46,14.514a.931.931,0,0,1-.923.923H14.984a.931.931,0,0,1-.923-.923v-5.2h11.83Zm45.556,0a.931.931,0,0,1-.923.923h-9.9a.931.931,0,0,1-.923-.923v-5.2h11.83ZM77.4,71.231a.484.484,0,0,1-.5.5H8.691a.484.484,0,0,1-.5-.5V69.3a.484.484,0,0,1,.5-.5H76.816a.484.484,0,0,1,.5.5v1.93Z" transform="translate(-5 -8.643)" fill="#1c54f8" stroke="#fff" stroke-width="0.2"></path><path id="Path_13" data-name="Path 13" d="M21.669,55.8a5.412,5.412,0,1,0,5.453,5.453A5.442,5.442,0,0,0,21.669,55.8Zm0,7.635A2.311,2.311,0,0,1,19.4,61.169a2.184,2.184,0,0,1,2.265-2.181,2.256,2.256,0,0,1,2.265,2.265,2.186,2.186,0,0,1-2.265,2.181Z" transform="translate(-6.82 -13.096)" fill="#1c54f8" stroke="#fff" stroke-width="0.2"></path><path id="Path_14" data-name="Path 14" d="M76.453,66.523A5.412,5.412,0,1,0,71,61.069,5.372,5.372,0,0,0,76.453,66.523Zm0-7.635a2.311,2.311,0,0,1,2.265,2.265,2.184,2.184,0,0,1-2.265,2.181,2.224,2.224,0,1,1,0-4.447Z" transform="translate(-15.628 -13.08)" fill="#1c54f8" stroke="#fff" stroke-width="0.2"></path><path id="Path_15" data-name="Path 15" d="M33.446,23.777l1.091.336a15.615,15.615,0,0,0,.839,2.1l-.5,1.007a2.659,2.659,0,0,0,.419,3.02l1.426,1.51a2.545,2.545,0,0,0,3.02.5l.923-.419a15.313,15.313,0,0,0,2.685,1.175l.336.923A2.546,2.546,0,0,0,46.2,35.69h2.1a2.653,2.653,0,0,0,2.517-1.762l.252-.755a13.916,13.916,0,0,0,2.6-1.007l.671.336a2.659,2.659,0,0,0,3.02-.419l1.51-1.426a2.567,2.567,0,0,0,.587-3.02l-.252-.5a14.474,14.474,0,0,0,1.342-3.1l.5-.168a2.618,2.618,0,0,0,1.846-2.517V19.33a2.618,2.618,0,0,0-1.846-2.517l-.587-.168a10.2,10.2,0,0,0-1.175-2.769l.252-.5a2.659,2.659,0,0,0-.419-3.02l-1.426-1.51a2.545,2.545,0,0,0-3.02-.5L54,8.675A11.9,11.9,0,0,0,50.98,7.5l-.252-.839A2.546,2.546,0,0,0,48.212,4.9H46.2a2.653,2.653,0,0,0-2.517,1.762l-.336.923a18.254,18.254,0,0,0-2.265.923L40.158,8a2.659,2.659,0,0,0-3.02.419L35.627,9.85a2.567,2.567,0,0,0-.587,3.02l.5,1.007a12.385,12.385,0,0,0-1.007,2.433l-1.091.419A2.618,2.618,0,0,0,31.6,19.247V21.26A2.618,2.618,0,0,0,33.446,23.777ZM34.7,19.582l2.433-.755.168-.839a8.527,8.527,0,0,1,1.342-3.1l.5-.755L38.06,11.947l1.007-.923,2.181,1.091.755-.5a9.6,9.6,0,0,1,3.02-1.258l.839-.168L46.618,8h1.258l.671,2.1.923.168A11.188,11.188,0,0,1,53.078,11.7l.755.5,1.846-.923.923.923-.923,1.762.5.755a9.641,9.641,0,0,1,1.426,3.44l.168.839,1.846.587v1.342l-1.846.587-.168.839a10.293,10.293,0,0,1-1.594,3.691l-.5.755.839,1.846-1.007.923L53.5,28.643l-.755.419a11.039,11.039,0,0,1-3.272,1.258l-.923.168-.671,2.1H46.534L45.779,30.4l-.839-.168a9.489,9.489,0,0,1-3.272-1.426l-.755-.5-2.181,1.007-.923-.923,1.175-2.181-.419-.755A12.035,12.035,0,0,1,37.389,22.6l-.168-.839-2.433-.839Z" transform="translate(-9.283 -4.9)" fill="#1c54f8" stroke="#fff" stroke-width="0.2"></path><path id="Path_16" data-name="Path 16" d="M48.751,29.13A7.4,7.4,0,0,0,56.3,21.915,7.4,7.4,0,0,0,48.751,14.7a8.07,8.07,0,0,0-5.705,2.433A7.1,7.1,0,0,0,41.2,21.915,7.4,7.4,0,0,0,48.751,29.13Zm-3.356-9.9A4.563,4.563,0,0,1,48.751,17.8,4.307,4.307,0,0,1,53.2,21.915a4.46,4.46,0,0,1-8.893,0A4.041,4.041,0,0,1,45.395,19.23Z" transform="translate(-10.829 -6.478)" fill="#1c54f8" stroke="#fff" stroke-width="0.2"></path></g></g></svg> 