<?xml version="1.0" encoding="UTF-8"?> <svg xmlns="http://www.w3.org/2000/svg" xmlns:xlink="http://www.w3.org/1999/xlink" width="60" height="60" viewBox="0 0 60 60"><defs><clipPath id="clip-path"><rect id="Rectangle_6" data-name="Rectangle 6" width="60" height="60" transform="translate(178.8 131.8)" fill="#fff" stroke="#707070" stroke-width="1"></rect></clipPath></defs><g id="Mask_Group_5" data-name="Mask Group 5" transform="translate(-178.8 -131.8)" clip-path="url(#clip-path)"><g id="Group_2" data-name="Group 2" transform="translate(184.905 137.816)"><path id="Path_7" data-name="Path 7" d="M14.038,72.884a.776.776,0,0,0,.774.774h3.559a4.248,4.248,0,0,0,8.356,0H40.8a4.248,4.248,0,0,0,8.356,0h4.333a.776.776,0,0,0,.774-.774V69.132a6.012,6.012,0,0,0-4.689-5.888L42.448,61.6l-3.064-3.064a7.761,7.761,0,0,0-5.517-2.282H27.376a7.775,7.775,0,0,0-5.517,2.282L18.8,61.588l-2.754.549a2.549,2.549,0,0,0-2.035,2.484v8.263Zm8.511,2.708a2.708,2.708,0,1,1,2.708-2.708A2.711,2.711,0,0,1,22.549,75.592Zm22.437,0a2.708,2.708,0,1,1,2.708-2.708A2.711,2.711,0,0,1,44.986,75.592Zm-29.4-10.971a.978.978,0,0,1,.8-.967l2.979-.6a.785.785,0,0,0,.395-.209l3.219-3.219A6.211,6.211,0,0,1,27.392,57.8h6.491A6.184,6.184,0,0,1,38.3,59.631l3.219,3.219a.775.775,0,0,0,.371.209l7.342,1.694a4.474,4.474,0,0,1,3.482,4.387v2.979H49.155a4.248,4.248,0,0,0-8.356,0H26.726a4.248,4.248,0,0,0-8.356,0H15.585Z" transform="translate(-7.849 -29.171)" fill="#1c54f8"></path><path id="Path_8" data-name="Path 8" d="M28.916,69.471h17.8a.778.778,0,0,0,.7-.449.789.789,0,0,0-.116-.828L44.05,64.4a5.413,5.413,0,0,0-4.108-1.888H35.7A5.4,5.4,0,0,0,31.593,64.4l-3.249,3.791a.787.787,0,0,0-.116.828.778.778,0,0,0,.7.449Zm9.671-5.416h1.346a3.872,3.872,0,0,1,2.94,1.354l2.159,2.514H38.587Zm-5.833,1.354a3.86,3.86,0,0,1,2.94-1.354H37.04v3.868H30.595Z" transform="translate(-14.99 -32.334)" fill="#1c54f8"></path><path id="Path_9" data-name="Path 9" d="M28.824,1.562h-6.19a.776.776,0,0,0-.774.774V5.021a20.141,20.141,0,0,0-5.067,1.656L15.215,4.5a.79.79,0,0,0-.5-.309.755.755,0,0,0-.573.139L9.134,7.969a.77.77,0,0,0-.17,1.083l1.571,2.182a20.8,20.8,0,0,0-3.126,4.3l-2.561-.828a.778.778,0,0,0-.975.5l-1.911,5.88a.778.778,0,0,0,.5.975l2.553.836a20.844,20.844,0,0,0-.17,2.661,20.58,20.58,0,0,0,.17,2.661l-2.553.836a.778.778,0,0,0-.5.975l.9,2.754,1.47-.48-.658-2.019,1.818-.6a1.542,1.542,0,0,0,1.052-1.679,19.691,19.691,0,0,1-.155-2.453,20.131,20.131,0,0,1,.248-3.079.779.779,0,0,0-.526-.859l-2.437-.8L5.1,16.41,6.929,17a1.578,1.578,0,0,0,1.841-.735,19.12,19.12,0,0,1,2.886-3.977,1.538,1.538,0,0,0,.132-1.973L10.666,8.766l3.752-2.723L15.548,7.6a1.556,1.556,0,0,0,1.919.48,19.041,19.041,0,0,1,4.665-1.524,1.556,1.556,0,0,0,1.277-1.516V3.125h4.642V5.036a1.548,1.548,0,0,0,1.277,1.516,19.06,19.06,0,0,1,4.681,1.532A1.56,1.56,0,0,0,35.92,7.6L37.041,6.05l3.752,2.723-1.122,1.54a1.529,1.529,0,0,0,.132,1.981A19.128,19.128,0,0,1,42.7,16.286a1.575,1.575,0,0,0,1.834.727l1.826-.588,1.431,4.41-1.818.6a1.542,1.542,0,0,0-1.052,1.679,19.691,19.691,0,0,1,.155,2.453,19.911,19.911,0,0,1-.155,2.46,1.538,1.538,0,0,0,1.052,1.671l1.818.6-.658,2.019,1.47.48.9-2.754a.778.778,0,0,0-.5-.975l-2.553-.843a20.031,20.031,0,0,0,.17-2.654,20.234,20.234,0,0,0-.17-2.661L49,22.065a.775.775,0,0,0,.5-.975l-1.911-5.88a.775.775,0,0,0-.975-.5l-2.561.82a20.441,20.441,0,0,0-3.126-4.3L42.5,9.06a.778.778,0,0,0-.17-1.083L37.328,4.34a.755.755,0,0,0-.573-.139.771.771,0,0,0-.5.309L34.666,6.684a20.281,20.281,0,0,0-5.06-1.648V2.352a.776.776,0,0,0-.774-.774Z" transform="translate(-1.745 -1.562)" fill="#1c54f8"></path><path id="Path_10" data-name="Path 10" d="M15.625,34.145A16.965,16.965,0,0,0,16.9,40.629l1.431-.588A15.483,15.483,0,0,1,23.88,21.4l-.58,1.586,1.455.534,1.331-3.629a.771.771,0,0,0-.673-1.037l-3.861-.263-.1,1.547,1.416.093a17,17,0,0,0-7.234,13.918Z" transform="translate(-8.662 -10.161)" fill="#1c54f8"></path><path id="Path_11" data-name="Path 11" d="M45.867,15.625a17,17,0,0,0-4.054.487l.364,1.5A15.431,15.431,0,0,1,60.861,36.375l-.5-1.455-1.462.5,1.253,3.66a.776.776,0,0,0,.5.487.863.863,0,0,0,.24.039.806.806,0,0,0,.449-.139L64.5,37.242l-.89-1.269-1.269.9A16.963,16.963,0,0,0,45.874,15.625Z" transform="translate(-21.882 -8.662)" fill="#1c54f8"></path><path id="Path_12" data-name="Path 12" d="M49.932,28.938v-.464a3.091,3.091,0,0,0-2.708-3.056v-1.2H45.676v1.2a3.087,3.087,0,0,0,.387,6.151h.774a1.547,1.547,0,1,1,0,3.095h-.774a1.552,1.552,0,0,1-1.547-1.547v-.464H42.968v.464a3.091,3.091,0,0,0,2.708,3.056v1.2h1.547v-1.2a3.087,3.087,0,0,0-.387-6.151h-.774a1.547,1.547,0,1,1,0-3.095h.774a1.552,1.552,0,0,1,1.547,1.547v.464Z" transform="translate(-22.466 -13)" fill="#1c54f8"></path><path id="Path_13" data-name="Path 13" d="M6.25,78.125H8.571v1.547H6.25Z" transform="translate(-3.929 -40.214)" fill="#1c54f8"></path><path id="Path_14" data-name="Path 14" d="M1.562,84.375H6.2v1.547H1.562Z" transform="translate(-1.562 -43.369)" fill="#1c54f8"></path></g></g></svg> 