<?xml version="1.0" encoding="UTF-8"?> <svg xmlns="http://www.w3.org/2000/svg" id="Layer_1" data-name="Layer 1" viewBox="0 0 56 56"><defs><style>.cls-1{fill:none;}.cls-1,.cls-2{stroke:#1b54f8;stroke-miterlimit:10;stroke-width:1.5px;}.cls-2{fill:#fff;}</style></defs><path class="cls-1" d="M5.91,34.61H1V20.21l9.42-9.59H36.26l8.28,8.43,7.75,2.17a3.78,3.78,0,0,1,1.27.63h0A3.89,3.89,0,0,1,55.08,25v9.14H50.26"></path><line class="cls-1" x1="39.37" y1="30.34" x2="35" y2="30.34"></line><line class="cls-1" x1="32.8" y1="30.34" x2="16.94" y2="30.34"></line><polyline class="cls-1" points="38.36 30.34 38.36 19.69 34.17 14.02 12.58 14.02 7.28 19.41 7.28 20.48 38.36 20.48"></polyline><line class="cls-1" x1="22.82" y1="14.02" x2="22.82" y2="23.81"></line><line class="cls-1" x1="22.82" y1="30.34" x2="22.82" y2="25.81"></line><ellipse class="cls-1" cx="8.85" cy="23.81" rx="1.57" ry="1.6"></ellipse><path class="cls-1" d="M51.53,21v2.78a1,1,0,0,0,1,1h2.55"></path><line class="cls-1" x1="34" y1="22.41" x2="36.76" y2="22.41"></line><line class="cls-1" x1="18.3" y1="22.41" x2="21.05" y2="22.41"></line><line class="cls-1" y1="48.49" x2="56" y2="48.49"></line><line class="cls-1" x1="5.91" y1="34.61" x2="37.91" y2="34.61"></line><ellipse class="cls-2" cx="12.09" cy="34.61" rx="6.18" ry="6.39"></ellipse><ellipse class="cls-2" cx="44.09" cy="34.61" rx="6.18" ry="6.39"></ellipse><ellipse class="cls-2" cx="12.09" cy="34.61" rx="3.09" ry="3.2"></ellipse><ellipse class="cls-2" cx="44.09" cy="34.61" rx="3.09" ry="3.2"></ellipse></svg> 