<?xml version="1.0" encoding="UTF-8"?> <svg xmlns="http://www.w3.org/2000/svg" xmlns:xlink="http://www.w3.org/1999/xlink" width="90" height="90" viewBox="0 0 90 90"><defs><clipPath id="clip-path"><rect id="Rectangle_22" data-name="Rectangle 22" width="90" height="90" transform="translate(72 712)" fill="#fff" stroke="#707070" stroke-width="1"></rect></clipPath></defs><g id="Mask_Group_15" data-name="Mask Group 15" transform="translate(-72 -712)" clip-path="url(#clip-path)"><g id="Group_31" data-name="Group 31" transform="translate(277.62 12.62)"><path id="Path_54" data-name="Path 54" d="M65.59,28.971A10.41,10.41,0,1,0,76,39.381,10.422,10.422,0,0,0,65.59,28.971Zm0,18.457a8.048,8.048,0,1,1,8.048-8.048A8.057,8.057,0,0,1,65.59,47.428Zm4.092-10.469-2.421,2.421L69.682,41.8a1.181,1.181,0,0,1-1.671,1.671L65.59,41.051l-2.421,2.421A1.181,1.181,0,0,1,61.5,41.8l2.421-2.421L61.5,36.959a1.181,1.181,0,0,1,1.671-1.671L65.59,37.71l2.421-2.421a1.181,1.181,0,1,1,1.671,1.671ZM65.59,23.581a10.41,10.41,0,1,0-10.41-10.41A10.422,10.422,0,0,0,65.59,23.581Zm0-18.457a8.048,8.048,0,1,1-8.048,8.048A8.057,8.057,0,0,1,65.59,5.123Zm-5.2,9.155a1.181,1.181,0,0,1,1.671-1.671l1.912,1.912,5.152-5.2A1.181,1.181,0,0,1,70.8,10.978l-5.988,6.048a1.181,1.181,0,0,1-.836.35h0a1.184,1.184,0,0,1-.835-.346Zm5.2,40.9A10.41,10.41,0,1,0,76,65.59,10.422,10.422,0,0,0,65.59,55.18Zm0,18.457a8.048,8.048,0,1,1,8.048-8.048A8.057,8.057,0,0,1,65.59,73.638Zm5.2-11.911A1.181,1.181,0,0,1,70.8,63.4l-5.988,6.048a1.181,1.181,0,0,1-.836.35h0a1.184,1.184,0,0,1-.835-.346L60.385,66.7a1.181,1.181,0,0,1,1.671-1.671l1.912,1.912,5.152-5.2A1.179,1.179,0,0,1,70.791,61.727ZM23.67,37.6a8.647,8.647,0,1,0-9.922,0A15.974,15.974,0,0,0,2.761,52.752a1.181,1.181,0,0,0,1.181,1.181H33.474a1.181,1.181,0,0,0,1.181-1.181A15.973,15.973,0,0,0,23.67,37.6ZM12.424,30.521a6.285,6.285,0,1,1,6.285,6.285A6.292,6.292,0,0,1,12.424,30.521Zm-7.25,21.05a13.585,13.585,0,0,1,27.067,0H5.174Zm40.52-37.219V38.2h5.841a1.181,1.181,0,1,1,0,2.362H45.694V64.408h5.841a1.181,1.181,0,1,1,0,2.362H44.513a1.181,1.181,0,0,1-1.181-1.181V40.56H36.769a1.181,1.181,0,0,1,0-2.362h6.563V13.169a1.181,1.181,0,0,1,1.181-1.181h7.022a1.181,1.181,0,1,1,0,2.362H45.694Z" transform="translate(-200 705)" fill="#1c54f8"></path></g></g></svg> 