<?xml version="1.0" encoding="UTF-8"?> <svg xmlns="http://www.w3.org/2000/svg" xmlns:xlink="http://www.w3.org/1999/xlink" width="90" height="90" viewBox="0 0 90 90"><defs><clipPath id="clip-path"><rect id="Rectangle_422" data-name="Rectangle 422" width="90" height="90" transform="translate(394 394)" fill="#fff" stroke="#707070" stroke-width="1"></rect></clipPath></defs><g id="Mask_Group_13" data-name="Mask Group 13" transform="translate(-394 -394)" clip-path="url(#clip-path)"><g id="wrench" transform="translate(403.528 403.4)"><path id="Path_7233" data-name="Path 7233" d="M50.914,48.6l1.279,1.279-1.89,1.89-1.279-1.279,1.89-1.89m0-2.168a2.2,2.2,0,0,0-1.557.667l-1.89,1.835a2.23,2.23,0,0,0-.667,1.557,2.2,2.2,0,0,0,.667,1.557l1.279,1.279a2.15,2.15,0,0,0,3.113,0l1.89-1.89a2.23,2.23,0,0,0,.667-1.557,2.2,2.2,0,0,0-.667-1.557l-1.279-1.279a2.389,2.389,0,0,0-1.557-.612ZM76.822,21.968l2,2L61.867,40.927l-2-2L76.822,21.968m0-2.168a2.2,2.2,0,0,0-1.557.667l-16.957,16.9a2.25,2.25,0,0,0,0,3.113l2,2a2.23,2.23,0,0,0,1.557.667,2.2,2.2,0,0,0,1.557-.667L80.38,25.526a2.23,2.23,0,0,0,.667-1.557,2.2,2.2,0,0,0-.667-1.557l-2-2a2.389,2.389,0,0,0-1.557-.612Z" transform="translate(-20.571 -8.525)" fill="#1b54f8"></path><path id="Path_7234" data-name="Path 7234" d="M65.869,2.768l3,3-7.561,8.9-4.337-4.337,8.9-7.561m0-2.168a2.135,2.135,0,0,0-1.39.5l-8.9,7.561a2.34,2.34,0,0,0-.778,1.557,2.139,2.139,0,0,0,.667,1.612l4.337,4.337a2.23,2.23,0,0,0,1.557.667h.111a1.948,1.948,0,0,0,1.557-.778l7.561-8.9a2.209,2.209,0,0,0-.111-2.947l-3-3A2.261,2.261,0,0,0,65.869.6ZM55.639,71.1a14.521,14.521,0,0,1-10.563-4.559A14.333,14.333,0,0,1,42.129,51.86L19.224,29.01a14.129,14.129,0,0,1-5.5.612,14.371,14.371,0,0,1-9.4-24.129A1.229,1.229,0,0,1,5.38,5.159a1.1,1.1,0,0,1,.778.778l3.225,11.62L21.5,14.332,18.445,3.157a1.067,1.067,0,0,1,.334-1.112,1.022,1.022,0,0,1,1.112-.222,14.393,14.393,0,0,1,8.9,9.785,14.114,14.114,0,0,1-.222,8.173L51.692,42.909a14.224,14.224,0,0,1,14.066,3.669,14.42,14.42,0,0,1,4,12.565,1.016,1.016,0,0,1-.723.834,1.158,1.158,0,0,1-1.112-.278l-8.339-8.284-8.84,8.84,8.673,8.562a1.059,1.059,0,0,1,.278,1.056,1.178,1.178,0,0,1-.834.778A10.994,10.994,0,0,1,55.639,71.1ZM19.5,26.675a1.1,1.1,0,0,1,.778.334L44.131,50.859a1.032,1.032,0,0,1,.222,1.168,12.244,12.244,0,0,0,2.279,13.01A12.006,12.006,0,0,0,56.2,68.872l-7.339-7.283a1.714,1.714,0,0,1,0-2.5l9.451-9.451a1.814,1.814,0,0,1,2.5,0l6.95,6.894A12.19,12.19,0,0,0,51.692,45.188a1.041,1.041,0,0,1-1.112-.278L26.507,20.837a1.114,1.114,0,0,1-.222-1.168,11.955,11.955,0,0,0,.389-7.506,12.248,12.248,0,0,0-5.448-7.283l2.557,9.285A1.753,1.753,0,0,1,22.5,16.334l-12.9,3.447a1.847,1.847,0,0,1-1.334-.167A1.726,1.726,0,0,1,7.437,18.5l-2.78-9.9a12.2,12.2,0,0,0,9.229,18.847,11.948,11.948,0,0,0,5.226-.723A.946.946,0,0,1,19.5,26.675Z" fill="#1b54f8"></path><path id="Path_7235" data-name="Path 7235" d="M9.985,100.3a4.8,4.8,0,0,1-3.391-1.39l-4.5-4.5a4.832,4.832,0,0,1,0-6.783L14.266,75.451a6.182,6.182,0,0,1,1.779-4.059L19.936,67.5a3.49,3.49,0,0,1,4.892,0L33.5,76.174h0a3.49,3.49,0,0,1,0,4.892L29.61,84.958a6.182,6.182,0,0,1-4.059,1.779L13.376,98.913A4.8,4.8,0,0,1,9.985,100.3ZM22.438,68.668a1.106,1.106,0,0,0-.89.389l-3.892,3.892A3.85,3.85,0,0,0,16.545,75.9a1.226,1.226,0,0,1-.334.834L3.647,89.183a2.551,2.551,0,0,0,0,3.669l4.5,4.5a2.521,2.521,0,0,0,1.835.778,2.616,2.616,0,0,0,1.835-.778L24.328,84.847a1.131,1.131,0,0,1,.834-.334A3.85,3.85,0,0,0,28.109,83.4L32,79.51a1.242,1.242,0,0,0,0-1.779l-8.673-8.673A1.184,1.184,0,0,0,22.438,68.668Z" transform="translate(-0.101 -29.262)" fill="#1b54f8"></path><path id="Path_7236" data-name="Path 7236" d="M4.956,105.377a.5.5,0,0,1-.389-.167.537.537,0,0,1,0-.778L18.188,90.867a.55.55,0,0,1,.778.778L5.345,105.211A.5.5,0,0,1,4.956,105.377Zm3.614,3.614a.5.5,0,0,1-.389-.167.537.537,0,0,1,0-.778L21.8,94.425a.55.55,0,0,1,.778.778L8.959,108.824A.5.5,0,0,1,8.57,108.991Z" transform="translate(-1.744 -40.008)" fill="#1b54f8"></path></g></g></svg> 