<?xml version="1.0" encoding="UTF-8"?> <svg xmlns="http://www.w3.org/2000/svg" width="91" height="91" viewBox="0 0 91 91" fill="none"><mask id="mask0_1_60" style="mask-type:luminance" maskUnits="userSpaceOnUse" x="0" y="0" width="91" height="91"><path d="M90.4 0.0999756H0.399994V90.1H90.4V0.0999756Z" fill="white"></path></mask><g mask="url(#mask0_1_60)"><path d="M86.8 67.9V59.4C86.8 52.8 82.9 46.8 76.8 44.2L69.1 24.7C68.7 23.7 67.6 23.3 66.7 23.7C65.8 24.1 65.3 25.2 65.7 26.1L72.4 42.9C71.7 42.8 71 42.8 70.3 42.8H20.7C20.1 42.8 19.4 42.8 18.8 42.9L25.5 26.1C25.9 25.1 25.4 24.1 24.5 23.7C23.5 23.3 22.5 23.8 22.1 24.7L14.4 44C8.09999 46.6 4.1 52.7 4 59.4V67.9C2.2 68.5 1 70.2 1 71.9V74.2C1 76.6 2.99999 78.5 5.29999 78.5H7.89999V84.6C7.89999 87.3 10.1 89.3 12.7 89.4H24.4C27.1 89.4 29.2 87.2 29.2 84.6V78.5H61.5V84.6C61.5 87.3 63.7 89.3 66.3 89.4H78C80.7 89.4 82.8 87.2 82.8 84.6V78.5H85.4C87.8 78.5 89.7 76.5 89.7 74.2V71.9C89.7 70 88.5 68.4 86.8 67.9ZM7.79999 59.4C7.79999 54 11.2 49.2 16.3 47.3C16.4 47.3 16.4 47.3 16.5 47.2C17.9 46.7 19.3 46.5 20.7 46.5H70.2C71.7 46.5 73.2 46.8 74.5 47.3C74.6 47.3 74.7 47.4 74.8 47.4C79.8 49.3 83.1 54.1 83.1 59.4V67.7H61.2V62.3C61.2 59.6 59 57.6 56.4 57.6H34.3C31.6 57.6 29.5 59.8 29.5 62.3V67.7H7.70001V59.4H7.79999ZM33.2 67.6V62.2C33.2 61.6 33.7 61.1 34.3 61.1H56.5C57.1 61.1 57.6 61.6 57.6 62.2V67.6H33.2ZM25.6 84.6C25.6 85.2 25.1 85.7 24.5 85.7H12.8C12.2 85.7 11.7 85.2 11.7 84.6V78.5H25.6V84.6ZM79.1 84.6C79.1 85.2 78.6 85.7 78 85.7H66.4C65.8 85.7 65.3 85.2 65.3 84.6V78.5H79.2L79.1 84.6ZM86.1 74.2C86.1 74.6 85.8 74.8 85.5 74.8H5.5C5.1 74.8 4.89999 74.5 4.89999 74.2V71.9C4.89999 71.5 5.2 71.3 5.5 71.3H85.4C85.8 71.3 86 71.6 86 71.9L86.1 74.2Z" fill="#1B54F8"></path></g><mask id="mask1_1_60" style="mask-type:luminance" maskUnits="userSpaceOnUse" x="0" y="0" width="91" height="91"><path d="M90.4 0.0999756H0.399994V90.1H90.4V0.0999756Z" fill="white"></path></mask><g mask="url(#mask1_1_60)"><path d="M18.5 50.8C15 50.8 12.2 53.7 12.2 57.2C12.2 60.6 15.1 63.5 18.6 63.5C22 63.5 24.9 60.6 24.9 57.2C24.9 53.7 22.1 50.8 18.5 50.8ZM18.5 59.8C17 59.8 15.8 58.5 15.8 57.1C15.8 55.6 17.1 54.4 18.5 54.5C20 54.5 21.2 55.7 21.2 57.2C21.3 58.6 20 59.8 18.5 59.8Z" fill="#1B54F8"></path></g><mask id="mask2_1_60" style="mask-type:luminance" maskUnits="userSpaceOnUse" x="0" y="0" width="91" height="91"><path d="M90.4 0.0999756H0.399994V90.1H90.4V0.0999756Z" fill="white"></path></mask><g mask="url(#mask2_1_60)"><path d="M72.5 63.4C76 63.4 78.8 60.5 78.8 57C78.8 53.6 75.9 50.7 72.4 50.7C69 50.7 66.1 53.6 66.1 57C66.1 60.7 68.9 63.5 72.5 63.4ZM72.5 54.5C74 54.5 75.2 55.8 75.2 57.2C75.2 58.7 73.9 59.9 72.5 59.8C71 59.8 69.8 58.6 69.8 57.1C69.8 55.6 71 54.5 72.5 54.5Z" fill="#1B54F8"></path></g><mask id="mask3_1_60" style="mask-type:luminance" maskUnits="userSpaceOnUse" x="0" y="0" width="91" height="91"><path d="M90.4 0.0999756H0.399994V90.1H90.4V0.0999756Z" fill="white"></path></mask><g mask="url(#mask3_1_60)"><path d="M29.5 22.9L30.8 23.3C31.1 24.2 31.4 25 31.8 25.8L31.2 27C30.6 28.2 30.8 29.7 31.7 30.5L33.4 32.3C34.3 33.3 35.8 33.5 36.9 32.9L38 32.4C39 33 40.1 33.4 41.2 33.8L41.6 34.9C42 36.2 43.2 37 44.6 37H47.1C48.5 37 49.7 36.1 50.1 34.9L50.4 34C51.5 33.7 52.5 33.3 53.5 32.8L54.3 33.2C55.5 33.8 57 33.6 57.8 32.7L59.6 31C60.6 30.1 60.9 28.6 60.3 27.5L60 26.9C60.7 25.7 61.2 24.5 61.6 23.3L62.2 23.1C63.5 22.7 64.4 21.5 64.4 20.1V17.7C64.4 16.3 63.5 15.1 62.2 14.7L61.5 14.5C61.2 13.3 60.7 12.2 60.1 11.3L60.4 10.7C61 9.50001 60.8 8.00001 59.9 7.20001L58.2 5.40002C57.3 4.40002 55.8 4.19999 54.7 4.79999L53.9 5.20001C52.8 4.60001 51.6 4.09999 50.4 3.79999L50.1 2.79999C49.7 1.49999 48.5 0.700012 47.1 0.700012H44.7C43.3 0.700012 42.1 1.59999 41.7 2.79999L41.3 3.90002C40.4 4.20002 39.4 4.6 38.6 5L37.5 4.40002C36.3 3.80002 34.8 4.00002 34 4.90002L32.2 6.59998C31.2 7.49998 30.9 8.99998 31.5 10.1L32.1 11.3C31.6 12.2 31.2 13.2 30.9 14.2L29.6 14.7C28.3 15.1 27.4 16.3 27.4 17.7V20.1C27.3 21.3 28.2 22.5 29.5 22.9ZM30.9 17.9L33.8 17L34 16C34.3 14.7 34.8 13.4 35.6 12.4L36.2 11.5L34.9 8.90002L36.1 7.79999L38.7 9.09998L39.6 8.5C40.7 7.8 41.9 7.3 43.1 7L44.1 6.79999L45 4.20001H46.5L47.3 6.70001L48.4 6.90002C49.9 7.20002 51.4 7.79998 52.6 8.59998L53.5 9.20001L55.7 8.09998L56.8 9.20001L55.7 11.3L56.3 12.2C57.1 13.4 57.7 14.8 58 16.2L58.2 17.2L60.4 17.9V19.5L58.2 20.2L58 21.2C57.7 22.8 57 24.2 56.1 25.5L55.5 26.4L56.5 28.6L55.3 29.7L53.1 28.6L52.2 29.1C51 29.8 49.7 30.3 48.4 30.6L47.3 30.8L46.5 33.3H44.9L44 30.7L43 30.5C41.6 30.2 40.3 29.6 39.2 28.8L38.3 28.2L35.7 29.4L34.6 28.3L36 25.7L35.5 24.8C34.9 23.7 34.4 22.6 34.1 21.5L33.9 20.5L31 19.5L30.9 17.9Z" fill="#1B54F8"></path></g><mask id="mask4_1_60" style="mask-type:luminance" maskUnits="userSpaceOnUse" x="0" y="0" width="91" height="91"><path d="M90.4 0.0999756H0.399994V90.1H90.4V0.0999756Z" fill="white"></path></mask><g mask="url(#mask4_1_60)"><path d="M45.6 27.3C50.5 27.3 54.5 23.5 54.5 18.8C54.5 14.2 50.6 10.3 45.6 10.3C43 10.3 40.7 11.4 38.9 13.2C37.5 14.7 36.7 16.7 36.7 18.8C36.7 23.5 40.7 27.3 45.6 27.3ZM41.7 15.7C42.7 14.6 44.2 14 45.6 14C48.5 14 50.8 16.2 50.8 18.8C50.8 21.4 48.4 23.6 45.6 23.6C42.8 23.6 40.4 21.4 40.4 18.8C40.4 17.6 40.9 16.6 41.7 15.7Z" fill="#1B54F8"></path></g></svg> 