<?xml version="1.0" encoding="UTF-8"?> <svg xmlns="http://www.w3.org/2000/svg" id="Layer_1" data-name="Layer 1" viewBox="0 0 80 80"><defs><style>.cls-1{fill:#5294cf;}.cls-2,.cls-3{fill-opacity:0.3;}.cls-3{fill:#fff;}.cls-4{fill-opacity:0.5;}</style></defs><path class="cls-1" d="M39.81,24.42l5.57,1.12V20.47l-5.57,1.3-5.53-1.3v5.07Zm0,55.58L6.74,63.56V31L11,30.14l2.45.22V27.14l-6.67-.85V17L11,14.92l8,1.87,6.88-2.73,4.1,1.17V5.56l9.87-5,9.89,5v9.68l4.12-1.18,6.88,2.73,8-1.87L72.92,17v9.25l-6.67.85v3.23l2.45-.23,4.22.88V63.55Z"></path><path class="cls-2" d="M68.7,25.07l-2.45.34V19L60.7,16.79l8-1.87Zm0,5.07V45.36l-19-.85V26.41l-4.32-.87V20.47l4.32-1V15.24l4.12-1.18V40.3H66.25V30.37ZM29.94,19.45V5.56l9.87-5V16.47ZM11,25.09l-4.22,1.2V17L11,14.92ZM25.84,40.3H13.41V19l12.43-5Zm14,39.7L6.74,63.56V31L11,30.14V45.36l19,1.89V26.41l9.87-2Z"></path><path class="cls-3" d="M49.7,47.25V44.51l19,.85Zm-19.76,0L11,45.36l19-.85Z"></path><path class="cls-4" d="M66.25,25.41l2.45-.34,4.22,1.22-6.67.85ZM39.81,21.77l-9.87-2.32,9.87-3,9.89,3Zm-26.4,5.37-6.67-.85L11,25.09l2.45.32Z"></path></svg> 