<?xml version="1.0" encoding="UTF-8"?> <svg xmlns="http://www.w3.org/2000/svg" xmlns:xlink="http://www.w3.org/1999/xlink" id="Layer_1" data-name="Layer 1" viewBox="0 0 80 80"><defs><style>.cls-1{fill:#006dd6;fill-rule:evenodd;}</style><symbol id="A" data-name="A" viewBox="0 0 80 80"><path class="cls-1" d="M25.75,67.71a7.75,7.75,0,1,0,7.75-7.77A7.75,7.75,0,0,0,25.75,67.71ZM42,42.63a9.25,9.25,0,1,0,9.25-9.28A9.24,9.24,0,0,0,42,42.63ZM59.5,15.05a7.25,7.25,0,1,0,7.25-7.28A7.24,7.24,0,0,0,59.5,15.05Zm-27.75,5A6.25,6.25,0,1,0,38,13.79,6.24,6.24,0,0,0,31.75,20.06Z"></path><path class="cls-1" d="M6.5,39.12a6.25,6.25,0,1,0,6.25-6.27A6.24,6.24,0,0,0,6.5,39.12ZM34.85,69.2,52.54,44l-3.27-2.31L31.58,66.9Z"></path><path class="cls-1" d="M52.79,44,68.44,16.53l-3.47-2L49.32,42Z"></path><path class="cls-1" d="M50.67,44.79l.33-4L12.88,37.62l-.33,4Z"></path><path class="cls-1" d="M49.28,43.79l3.42-2.07L39.28,19.38l-3.42,2.07ZM78.75,80H58.5c-.75,0-1.25-.5-1.25-1.5V71.22A1.18,1.18,0,0,1,58.5,70H70V58.68c0-.75.5-1.25,1.5-1.25h7.25A1.18,1.18,0,0,1,80,58.68V78.75A1.18,1.18,0,0,1,78.75,80ZM1.25,0H21.5c.75,0,1.25.5,1.25,1.5V8.78A1.18,1.18,0,0,1,21.5,10H10V21.32c0,.75-.5,1.25-1.5,1.25H1.25A1.18,1.18,0,0,1,0,21.32V1.25A1.18,1.18,0,0,1,1.25,0Z"></path></symbol></defs><use width="80" height="80" transform="matrix(0.99, 0, 0, -0.99, 0.23, 80)" xlink:href="#A"></use></svg> 