<?xml version="1.0" encoding="UTF-8"?> <svg xmlns="http://www.w3.org/2000/svg" id="Layer_1" data-name="Layer 1" viewBox="0 0 63.8 63.6"><defs><style>.cls-1{fill:#1b54f8;}</style></defs><path class="cls-1" d="M74.7,34a4,4,0,0,0,4-4V19.4a4,4,0,0,0-4-4H19.3a4,4,0,0,0-4,4V30.1a4,4,0,0,0,4,4h.3v3.7h-.3a4,4,0,0,0-4,4V52.5a4,4,0,0,0,4,4h.3V60h-.3a4,4,0,0,0-4,4V74.7a4,4,0,0,0,4,4H74.7a4,4,0,0,0,4-4V63.9a4,4,0,0,0-4-4h-.3V56.2h.3a4,4,0,0,0,4-4V41.7a4,4,0,0,0-4-4h-.3V34ZM18,30.1V19.4a1.21,1.21,0,0,1,1.3-1.3H74.7A1.21,1.21,0,0,1,76,19.4V30.1a1.21,1.21,0,0,1-1.3,1.3H19.3A1.26,1.26,0,0,1,18,30.1Zm58,34V74.8a1.21,1.21,0,0,1-1.3,1.3H19.3A1.21,1.21,0,0,1,18,74.8V64.1a1.21,1.21,0,0,1,1.3-1.3H74.7A1.21,1.21,0,0,1,76,64.1Zm-4.2-4H22.2V56.4H71.8ZM76,41.7V52.4a1.21,1.21,0,0,1-1.3,1.3H19.3A1.21,1.21,0,0,1,18,52.4V41.7a1.21,1.21,0,0,1,1.3-1.3H74.7A1.21,1.21,0,0,1,76,41.7Zm-4.2-4H22.2V34H71.8Z" transform="translate(-15.1 -15.2)"></path><path class="cls-1" d="M74.7,78.8H19.3a4.1,4.1,0,0,1-4.2-4.2V63.9a4.1,4.1,0,0,1,4.2-4.2h0V56.5a4.1,4.1,0,0,1-4.2-4.2V41.7a4.1,4.1,0,0,1,4.2-4.2h0V34.3a4.1,4.1,0,0,1-4.2-4.2V19.4a4.1,4.1,0,0,1,4.2-4.2H74.7a4.1,4.1,0,0,1,4.2,4.2V30.1a4.1,4.1,0,0,1-4.2,4.2h0v3.2a4.1,4.1,0,0,1,4.2,4.2V52.4a4.1,4.1,0,0,1-4.2,4.2h0v3.2A4.1,4.1,0,0,1,78.9,64V74.7A4.08,4.08,0,0,1,74.7,78.8ZM19.3,60.2a3.63,3.63,0,0,0-3.7,3.7V74.6a3.63,3.63,0,0,0,3.7,3.7H74.7a3.63,3.63,0,0,0,3.7-3.7V63.9a3.63,3.63,0,0,0-3.7-3.7h-.5V56h.5a3.63,3.63,0,0,0,3.7-3.7V41.7A3.63,3.63,0,0,0,74.7,38h-.5V33.8h.5a3.63,3.63,0,0,0,3.7-3.7V19.4a3.63,3.63,0,0,0-3.7-3.7H19.3a3.63,3.63,0,0,0-3.7,3.7V30.1a3.63,3.63,0,0,0,3.7,3.7h.5V38h-.5a3.63,3.63,0,0,0-3.7,3.7V52.4a3.63,3.63,0,0,0,3.7,3.7h.5v4.2h-.5ZM74.7,76.3H19.3a1.52,1.52,0,0,1-1.6-1.6V64.1a1.52,1.52,0,0,1,1.6-1.6H74.7a1.52,1.52,0,0,1,1.6,1.6V74.8A1.5,1.5,0,0,1,74.7,76.3ZM19.3,63a1,1,0,0,0-1.1,1.1V74.8a1,1,0,0,0,1.1,1.1H74.7a1,1,0,0,0,1.1-1.1V64.1A1,1,0,0,0,74.7,63ZM72,60.4H22V56.2H72Zm-49.5-.5H71.6V56.7H22.5Zm52.2-6H19.3a1.52,1.52,0,0,1-1.6-1.6V41.7a1.52,1.52,0,0,1,1.6-1.6H74.7a1.58,1.58,0,0,1,1.6,1.6V52.4A1.5,1.5,0,0,1,74.7,53.9ZM19.3,40.6a1,1,0,0,0-1.1,1.1V52.4a1,1,0,0,0,1.1,1.1H74.7a1,1,0,0,0,1.1-1.1V41.7a1.11,1.11,0,0,0-1.1-1.1ZM72,38H22V33.8H72Zm-49.5-.5H71.6V34.3H22.5Zm52.2-5.9H19.3A1.52,1.52,0,0,1,17.7,30V19.4a1.52,1.52,0,0,1,1.6-1.6H74.7a1.52,1.52,0,0,1,1.6,1.6V30.1A1.5,1.5,0,0,1,74.7,31.6ZM19.3,18.3a1,1,0,0,0-1.1,1.1V30.1a1,1,0,0,0,1.1,1.1H74.7a1,1,0,0,0,1.1-1.1V19.4a1,1,0,0,0-1.1-1.1Z" transform="translate(-15.1 -15.2)"></path><path class="cls-1" d="M27.5,28.7a4.2,4.2,0,1,0-4.2-4.2A4.16,4.16,0,0,0,27.5,28.7Zm0-5.9a1.6,1.6,0,1,1,0,3.2,1.5,1.5,0,0,1-1.6-1.5A1.67,1.67,0,0,1,27.5,22.8Z" transform="translate(-15.1 -15.2)"></path><path class="cls-1" d="M27.5,29A4.5,4.5,0,1,1,32,24.5,4.48,4.48,0,0,1,27.5,29Zm0-8.4a4,4,0,0,0-4,4,4,4,0,0,0,4,4,4,4,0,0,0,0-8Zm-.2,5.6a1.28,1.28,0,0,1-1-.4,1.61,1.61,0,0,1-.6-1.3,1.91,1.91,0,0,1,1.8-2,1.73,1.73,0,0,1,1.8,1.8,1.79,1.79,0,0,1-1.8,1.8A.31.31,0,0,1,27.3,26.2Zm.2-3.1a1.38,1.38,0,0,0-1.3,1.5,1.78,1.78,0,0,0,.4,1,1.9,1.9,0,0,0,.9.3,1.35,1.35,0,0,0,1.4-1.3A1.52,1.52,0,0,0,27.5,23.1Z" transform="translate(-15.1 -15.2)"></path><path class="cls-1" d="M27.5,42.8A4.2,4.2,0,1,0,31.7,47,4.16,4.16,0,0,0,27.5,42.8Zm0,5.8A1.6,1.6,0,1,1,29.1,47,1.58,1.58,0,0,1,27.5,48.6Z" transform="translate(-15.1 -15.2)"></path><path class="cls-1" d="M27.5,51.5A4.5,4.5,0,1,1,32,47,4.48,4.48,0,0,1,27.5,51.5Zm0-8.4a4,4,0,1,0,0,8,3.89,3.89,0,0,0,4-4A4,4,0,0,0,27.5,43.1Zm0,5.8a1.8,1.8,0,1,1,1.8-1.8A1.79,1.79,0,0,1,27.5,48.9Zm0-3.2A1.3,1.3,0,1,0,28.8,47,1.26,1.26,0,0,0,27.5,45.7Z" transform="translate(-15.1 -15.2)"></path><path class="cls-1" d="M27.5,65.1a4.2,4.2,0,1,0,4.2,4.2A4.22,4.22,0,0,0,27.5,65.1Zm0,6a1.6,1.6,0,1,1,1.6-1.6A1.64,1.64,0,0,1,27.5,71.1Z" transform="translate(-15.1 -15.2)"></path><path class="cls-1" d="M27.5,73.8A4.5,4.5,0,1,1,32,69.3,4.42,4.42,0,0,1,27.5,73.8Zm0-8.4a4,4,0,0,0-4,4,4,4,0,0,0,8,0A4.08,4.08,0,0,0,27.5,65.4Zm0,5.9a1.73,1.73,0,0,1-1.8-1.8,1.79,1.79,0,0,1,1.8-1.8,1.73,1.73,0,0,1,1.8,1.8A1.79,1.79,0,0,1,27.5,71.3Zm0-3.2a1.3,1.3,0,0,0,0,2.6,1.32,1.32,0,0,0,1.3-1.3A1.26,1.26,0,0,0,27.5,68.1Z" transform="translate(-15.1 -15.2)"></path><path class="cls-1" d="M56,23.7h1.8a1.3,1.3,0,1,0,0-2.6H56a1.3,1.3,0,1,0,0,2.6Z" transform="translate(-15.1 -15.2)"></path><path class="cls-1" d="M57.8,24H56a1.58,1.58,0,0,1-1.6-1.6A1.52,1.52,0,0,1,56,20.8h1.8a1.6,1.6,0,1,1,0,3.2ZM56,21.3a1,1,0,0,0-1.1,1.1A1.11,1.11,0,0,0,56,23.5h1.8a1,1,0,0,0,1.1-1.1,1,1,0,0,0-1.1-1.1Z" transform="translate(-15.1 -15.2)"></path><path class="cls-1" d="M61.8,23.7h1.8a1.3,1.3,0,1,0,0-2.6H61.8a1.3,1.3,0,1,0,0,2.6Z" transform="translate(-15.1 -15.2)"></path><path class="cls-1" d="M63.6,24H61.8a1.58,1.58,0,0,1-1.6-1.6,1.52,1.52,0,0,1,1.6-1.6h1.8a1.6,1.6,0,1,1,0,3.2Zm-1.8-2.7a1,1,0,0,0-1.1,1.1,1.11,1.11,0,0,0,1.1,1.1h1.8a1,1,0,0,0,1.1-1.1,1,1,0,0,0-1.1-1.1Z" transform="translate(-15.1 -15.2)"></path><path class="cls-1" d="M67.6,23.7h1.8a1.3,1.3,0,0,0,0-2.6H67.6a1.21,1.21,0,0,0-1.3,1.3C66.2,23.2,66.8,23.7,67.6,23.7Z" transform="translate(-15.1 -15.2)"></path><path class="cls-1" d="M69.4,24H67.6A1.52,1.52,0,0,1,66,22.4a1.47,1.47,0,0,1,1.6-1.6h1.8a1.6,1.6,0,0,1,0,3.2Zm-1.8-2.7a1,1,0,0,0-1.1,1.1,1,1,0,0,0,1.1,1.1h1.8a1,1,0,0,0,1.1-1.1,1,1,0,0,0-1.1-1.1Z" transform="translate(-15.1 -15.2)"></path><path class="cls-1" d="M56,28.3h1.8a1.3,1.3,0,1,0,0-2.6H56a1.3,1.3,0,1,0,0,2.6Z" transform="translate(-15.1 -15.2)"></path><path class="cls-1" d="M57.8,28.6H56A1.58,1.58,0,0,1,54.4,27,1.52,1.52,0,0,1,56,25.4h1.8A1.52,1.52,0,0,1,59.4,27,1.58,1.58,0,0,1,57.8,28.6ZM56,26a1,1,0,0,0-1.1,1.1A1.11,1.11,0,0,0,56,28.2h1.8a1.1,1.1,0,0,0,0-2.2Z" transform="translate(-15.1 -15.2)"></path><path class="cls-1" d="M61.8,28.3h1.8a1.3,1.3,0,1,0,0-2.6H61.8a1.3,1.3,0,1,0,0,2.6Z" transform="translate(-15.1 -15.2)"></path><path class="cls-1" d="M63.6,28.6H61.8A1.58,1.58,0,0,1,60.2,27a1.52,1.52,0,0,1,1.6-1.6h1.8A1.52,1.52,0,0,1,65.2,27,1.58,1.58,0,0,1,63.6,28.6ZM61.8,26a1,1,0,0,0-1.1,1.1,1.11,1.11,0,0,0,1.1,1.1h1.8a1.1,1.1,0,1,0,0-2.2Z" transform="translate(-15.1 -15.2)"></path><path class="cls-1" d="M67.6,28.3h1.8a1.3,1.3,0,0,0,0-2.6H67.6A1.21,1.21,0,0,0,66.3,27C66.2,27.8,66.8,28.3,67.6,28.3Z" transform="translate(-15.1 -15.2)"></path><path class="cls-1" d="M69.4,28.6H67.6a1.6,1.6,0,1,1,0-3.2h1.8A1.52,1.52,0,0,1,71,27,1.58,1.58,0,0,1,69.4,28.6ZM67.6,26a1.1,1.1,0,1,0,0,2.2h1.8a1.1,1.1,0,0,0,0-2.2Z" transform="translate(-15.1 -15.2)"></path><path class="cls-1" d="M57.9,43.4H56.1a1.3,1.3,0,0,0,0,2.6h1.8a1.3,1.3,0,1,0,0-2.6Z" transform="translate(-15.1 -15.2)"></path><path class="cls-1" d="M57.9,46.3H56.1a1.52,1.52,0,0,1-1.6-1.6,1.47,1.47,0,0,1,1.6-1.6h1.8a1.58,1.58,0,0,1,1.6,1.6A1.52,1.52,0,0,1,57.9,46.3Zm-1.8-2.7A1,1,0,0,0,55,44.7a1,1,0,0,0,1.1,1.1h1.8A1,1,0,0,0,59,44.7a1.11,1.11,0,0,0-1.1-1.1Z" transform="translate(-15.1 -15.2)"></path><path class="cls-1" d="M63.7,43.4H61.9a1.3,1.3,0,0,0,0,2.6h1.8a1.3,1.3,0,0,0,0-2.6Z" transform="translate(-15.1 -15.2)"></path><path class="cls-1" d="M63.7,46.3H61.9a1.52,1.52,0,0,1-1.6-1.6,1.47,1.47,0,0,1,1.6-1.6h1.8a1.58,1.58,0,0,1,1.6,1.6A1.52,1.52,0,0,1,63.7,46.3Zm-1.8-2.7a1,1,0,0,0-1.1,1.1,1,1,0,0,0,1.1,1.1h1.8a1,1,0,0,0,1.1-1.1,1.11,1.11,0,0,0-1.1-1.1Z" transform="translate(-15.1 -15.2)"></path><path class="cls-1" d="M69.4,43.4H67.6a1.3,1.3,0,0,0,0,2.6h1.8a1.3,1.3,0,0,0,0-2.6Z" transform="translate(-15.1 -15.2)"></path><path class="cls-1" d="M69.4,46.3H67.6A1.52,1.52,0,0,1,66,44.7a1.47,1.47,0,0,1,1.6-1.6h1.8a1.6,1.6,0,0,1,0,3.2Zm-1.8-2.7a1,1,0,0,0-1.1,1.1,1,1,0,0,0,1.1,1.1h1.8a1,1,0,0,0,1.1-1.1,1,1,0,0,0-1.1-1.1Z" transform="translate(-15.1 -15.2)"></path><path class="cls-1" d="M57.9,48.1H56.1a1.3,1.3,0,0,0,0,2.6h1.8a1.3,1.3,0,1,0,0-2.6Z" transform="translate(-15.1 -15.2)"></path><path class="cls-1" d="M57.9,51H56.1a1.52,1.52,0,0,1-1.6-1.6,1.47,1.47,0,0,1,1.6-1.6h1.8a1.58,1.58,0,0,1,1.6,1.6A1.47,1.47,0,0,1,57.9,51Zm-1.8-2.6A1,1,0,0,0,55,49.5a1,1,0,0,0,1.1,1.1h1.8A1,1,0,0,0,59,49.5a1.11,1.11,0,0,0-1.1-1.1Z" transform="translate(-15.1 -15.2)"></path><path class="cls-1" d="M63.7,48.1H61.9a1.3,1.3,0,1,0,0,2.6h1.8a1.3,1.3,0,0,0,0-2.6Z" transform="translate(-15.1 -15.2)"></path><path class="cls-1" d="M63.7,51H61.9a1.52,1.52,0,0,1-1.6-1.6,1.47,1.47,0,0,1,1.6-1.6h1.8a1.58,1.58,0,0,1,1.6,1.6A1.47,1.47,0,0,1,63.7,51Zm-1.8-2.6a1,1,0,0,0-1.1,1.1,1,1,0,0,0,1.1,1.1h1.8a1,1,0,0,0,1.1-1.1,1.11,1.11,0,0,0-1.1-1.1Z" transform="translate(-15.1 -15.2)"></path><path class="cls-1" d="M69.4,48.1H67.6a1.3,1.3,0,1,0,0,2.6h1.8a1.3,1.3,0,1,0,0-2.6Z" transform="translate(-15.1 -15.2)"></path><path class="cls-1" d="M69.4,51H67.6A1.52,1.52,0,0,1,66,49.4a1.47,1.47,0,0,1,1.6-1.6h1.8a1.6,1.6,0,0,1,0,3.2Zm-1.8-2.6a1,1,0,0,0-1.1,1.1,1,1,0,0,0,1.1,1.1h1.8a1,1,0,0,0,1.1-1.1,1,1,0,0,0-1.1-1.1Z" transform="translate(-15.1 -15.2)"></path><path class="cls-1" d="M57.9,65.8H56.1a1.3,1.3,0,1,0,0,2.6h1.8a1.3,1.3,0,1,0,0-2.6Z" transform="translate(-15.1 -15.2)"></path><path class="cls-1" d="M57.9,68.7H56.1a1.52,1.52,0,0,1-1.6-1.6,1.47,1.47,0,0,1,1.6-1.6h1.8a1.58,1.58,0,0,1,1.6,1.6A1.52,1.52,0,0,1,57.9,68.7ZM56.1,66A1,1,0,0,0,55,67.1a1,1,0,0,0,1.1,1.1h1.8A1,1,0,0,0,59,67.1,1.11,1.11,0,0,0,57.9,66Z" transform="translate(-15.1 -15.2)"></path><path class="cls-1" d="M63.7,65.8H61.9a1.3,1.3,0,0,0,0,2.6h1.8a1.3,1.3,0,0,0,0-2.6Z" transform="translate(-15.1 -15.2)"></path><path class="cls-1" d="M63.7,68.7H61.9a1.52,1.52,0,0,1-1.6-1.6,1.47,1.47,0,0,1,1.6-1.6h1.8a1.58,1.58,0,0,1,1.6,1.6A1.52,1.52,0,0,1,63.7,68.7ZM61.9,66a1,1,0,0,0-1.1,1.1,1,1,0,0,0,1.1,1.1h1.8a1,1,0,0,0,1.1-1.1A1.11,1.11,0,0,0,63.7,66Z" transform="translate(-15.1 -15.2)"></path><path class="cls-1" d="M69.4,65.8H67.6a1.3,1.3,0,1,0,0,2.6h1.8a1.3,1.3,0,0,0,0-2.6Z" transform="translate(-15.1 -15.2)"></path><path class="cls-1" d="M69.4,68.7H67.6A1.52,1.52,0,0,1,66,67.1a1.47,1.47,0,0,1,1.6-1.6h1.8a1.6,1.6,0,0,1,0,3.2ZM67.6,66a1,1,0,0,0-1.1,1.1,1,1,0,0,0,1.1,1.1h1.8a1,1,0,0,0,1.1-1.1A1,1,0,0,0,69.4,66Z" transform="translate(-15.1 -15.2)"></path><path class="cls-1" d="M57.9,70.4H56.1a1.3,1.3,0,0,0,0,2.6h1.8a1.21,1.21,0,0,0,1.3-1.3C59.3,71.1,58.6,70.4,57.9,70.4Z" transform="translate(-15.1 -15.2)"></path><path class="cls-1" d="M57.9,73.3H56.1a1.52,1.52,0,0,1-1.6-1.6,1.47,1.47,0,0,1,1.6-1.6h1.8a1.72,1.72,0,0,1,1.6,1.6A1.52,1.52,0,0,1,57.9,73.3Zm-1.8-2.6A1,1,0,0,0,55,71.8a1,1,0,0,0,1.1,1.1h1.8A1,1,0,0,0,59,71.8a1.18,1.18,0,0,0-1.1-1.1Z" transform="translate(-15.1 -15.2)"></path><path class="cls-1" d="M63.7,70.4H61.9a1.3,1.3,0,1,0,0,2.6h1.8A1.21,1.21,0,0,0,65,71.7C65.1,71.1,64.4,70.4,63.7,70.4Z" transform="translate(-15.1 -15.2)"></path><path class="cls-1" d="M63.7,73.3H61.9a1.52,1.52,0,0,1-1.6-1.6,1.47,1.47,0,0,1,1.6-1.6h1.8a1.72,1.72,0,0,1,1.6,1.6A1.52,1.52,0,0,1,63.7,73.3Zm-1.8-2.6a1,1,0,0,0-1.1,1.1,1,1,0,0,0,1.1,1.1h1.8a1,1,0,0,0,1.1-1.1,1.18,1.18,0,0,0-1.1-1.1Z" transform="translate(-15.1 -15.2)"></path><path class="cls-1" d="M69.4,70.4H67.6a1.3,1.3,0,1,0,0,2.6h1.8a1.21,1.21,0,0,0,1.3-1.3A1.32,1.32,0,0,0,69.4,70.4Z" transform="translate(-15.1 -15.2)"></path><path class="cls-1" d="M69.4,73.3H67.6A1.52,1.52,0,0,1,66,71.7a1.47,1.47,0,0,1,1.6-1.6h1.8a1.6,1.6,0,0,1,0,3.2Zm-1.8-2.6a1,1,0,0,0-1.1,1.1,1,1,0,0,0,1.1,1.1h1.8a1,1,0,0,0,1.1-1.1,1.11,1.11,0,0,0-1.1-1.1Z" transform="translate(-15.1 -15.2)"></path></svg> 