<?xml version="1.0" encoding="UTF-8"?> <svg xmlns="http://www.w3.org/2000/svg" xmlns:xlink="http://www.w3.org/1999/xlink" width="90" height="90" viewBox="0 0 90 90"><defs><clipPath id="clip-path"><rect id="Rectangle_35" data-name="Rectangle 35" width="90" height="90" transform="translate(339 891)" fill="#fff" stroke="#707070" stroke-width="1"></rect></clipPath></defs><g id="Mask_Group_9" data-name="Mask Group 9" transform="translate(-339 -891)" clip-path="url(#clip-path)"><g id="Group_5" data-name="Group 5" transform="translate(348 900)"><g id="Group_4" data-name="Group 4"><path id="Path_8" data-name="Path 8" d="M72.5,35A1.5,1.5,0,0,0,74,33.5v-6s0-.007,0-.011a1.49,1.49,0,0,0-.106-.527,1.426,1.426,0,0,0-.078-.148,1.331,1.331,0,0,0-.343-.435,1.437,1.437,0,0,0-.113-.109l-34.5-24a1.5,1.5,0,0,0-1.714,0l-34.5,24a1.437,1.437,0,0,0-.113.109,1.331,1.331,0,0,0-.343.436,1.43,1.43,0,0,0-.078.148A1.489,1.489,0,0,0,2,27.489S2,27.5,2,27.5v6A1.5,1.5,0,0,0,3.5,35H11V65H3.5A1.5,1.5,0,0,0,2,66.5v6A1.5,1.5,0,0,0,3.5,74h69A1.5,1.5,0,0,0,74,72.5v-6A1.5,1.5,0,0,0,72.5,65H65V35ZM38,5.327,67.717,26H8.283ZM5,32V29H71v3H5ZM32,65H23V35h9Zm3-30h6V65H35Zm9,0h9V65H44ZM14,35h6V65H14ZM71,68v3H5V68H71Zm-9-3H56V35h6Z" transform="translate(-2 -2)" fill="#1c54f7"></path><path id="Path_9" data-name="Path 9" d="M28,8a6,6,0,1,0,6,6A6.006,6.006,0,0,0,28,8Zm0,9a3,3,0,1,1,3-3A3,3,0,0,1,28,17Z" transform="translate(8 1)" fill="#1c54f7"></path></g></g></g></svg> 