<?xml version="1.0" encoding="UTF-8"?> <svg xmlns="http://www.w3.org/2000/svg" xmlns:xlink="http://www.w3.org/1999/xlink" width="60" height="60" viewBox="0 0 60 60"><defs><clipPath id="clip-path"><rect id="Rectangle_103" data-name="Rectangle 103" width="60" height="60" transform="translate(329 651)" fill="#fff" stroke="#707070" stroke-width="1"></rect></clipPath></defs><g id="Mask_Group_14" data-name="Mask Group 14" transform="translate(-329 -651)" clip-path="url(#clip-path)"><g id="Group_19" data-name="Group 19" transform="translate(23 -111.572)"><path id="Path_39" data-name="Path 39" d="M171.294,346a.674.674,0,0,0-.674.674v6.365a.674.674,0,0,0,.674.674h4.186a.674.674,0,0,0,.674-.674v-6.365a.674.674,0,0,0-.674-.674Zm3.512,6.365h-2.838v-5.018h2.838Z" transform="translate(148.822 453.041)" fill="#1b54f8" stroke="#fff" stroke-width="0.4"></path><path id="Path_40" data-name="Path 40" d="M263.294,277.17a.674.674,0,0,0-.674.674v12.824a.674.674,0,0,0,.674.674h4.186a.674.674,0,0,0,.674-.674V277.844a.674.674,0,0,0-.674-.674Zm3.512,12.824h-2.838V278.518h2.838Z" transform="translate(65.455 515.412)" fill="#1b54f8" stroke="#fff" stroke-width="0.4"></path><path id="Path_41" data-name="Path 41" d="M75.962,24.372l2.431-1.263a10.818,10.818,0,0,0,1.9.786l.826,2.612a.674.674,0,0,0,.642.471h3.457a.673.673,0,0,0,.642-.471l.826-2.612a10.845,10.845,0,0,0,1.9-.786l2.431,1.263a.673.673,0,0,0,.787-.121l2.3-2.3,4.383,3.591a.689.689,0,0,0,.905-.047l9.2-9.289a.674.674,0,0,0-.957-.948l-8.773,8.854L93.835,20,93.1,18.589a10.817,10.817,0,0,0,.786-1.9l2.612-.826a.674.674,0,0,0,.471-.642V12.158h15.783a1.574,1.574,0,0,1,1.572,1.572v17.5a.674.674,0,0,0,1.348,0V13.73a2.923,2.923,0,0,0-2.919-2.919H95.514L93.89,10.3A10.845,10.845,0,0,0,93.1,8.4l1.263-2.431a.673.673,0,0,0-.121-.787L91.8,2.737a.673.673,0,0,0-.787-.121L88.584,3.878a10.818,10.818,0,0,0-1.9-.786L85.859.48a.674.674,0,0,0-.643-.471H81.759a.673.673,0,0,0-.642.471l-.826,2.612a10.846,10.846,0,0,0-1.9.786L75.962,2.615a.673.673,0,0,0-.787.121L72.731,5.181a.673.673,0,0,0-.121.787L73.873,8.4a10.847,10.847,0,0,0-.787,1.9l-2.612.826a.674.674,0,0,0-.471.642v3.457a.673.673,0,0,0,.471.642l2.612.826a10.847,10.847,0,0,0,.787,1.9L72.61,21.02a.673.673,0,0,0,.121.787l2.444,2.444a.674.674,0,0,0,.787.121Zm-.742-6.129a9.472,9.472,0,0,1-.937-2.262.674.674,0,0,0-.448-.467l-2.485-.785v-2.47l2.485-.786a.674.674,0,0,0,.448-.467,9.476,9.476,0,0,1,.937-2.262.674.674,0,0,0,.014-.647l-1.2-2.312,1.746-1.746,2.313,1.2a.674.674,0,0,0,.647-.014A9.468,9.468,0,0,1,81,4.29a.674.674,0,0,0,.467-.448l.785-2.486h2.47l.786,2.485a.674.674,0,0,0,.467.448,9.469,9.469,0,0,1,2.262.937.674.674,0,0,0,.647.014l2.313-1.2,1.746,1.746L91.741,8.1a.674.674,0,0,0,.014.647,9.481,9.481,0,0,1,.937,2.262.674.674,0,0,0,.448.467l2.067.653.007,0,.412.13v2.47l-2.485.786a.674.674,0,0,0-.448.467,9.469,9.469,0,0,1-.937,2.262.674.674,0,0,0-.014.647l1.2,2.313L91.2,22.949l-2.313-1.2a.674.674,0,0,0-.647.014,9.481,9.481,0,0,1-2.262.937.674.674,0,0,0-.467.448l-.786,2.485h-2.47l-.786-2.485A.674.674,0,0,0,81,22.7a9.469,9.469,0,0,1-2.262-.937.674.674,0,0,0-.647-.014l-2.313,1.2L74.033,21.2l1.2-2.313a.675.675,0,0,0-.014-.647Z" transform="translate(239.996 766.563)" fill="#1b54f8" stroke="#fff" stroke-width="0.4"></path><path id="Path_42" data-name="Path 42" d="M145.231,82.413a7.08,7.08,0,1,0-7-7.079A7.047,7.047,0,0,0,145.231,82.413Zm0-12.81a5.732,5.732,0,1,1-5.651,5.732A5.7,5.7,0,0,1,145.231,69.6Z" transform="translate(178.171 704.723)" fill="#1b54f8" stroke="#fff" stroke-width="0.4"></path><path id="Path_43" data-name="Path 43" d="M185.046,100.57c-.5-.407-1.15.369-.709.827a3.446,3.446,0,0,0,2.168.917v.6a.427.427,0,0,0,.435.422.422.422,0,0,0,.412-.422V102.3a2.172,2.172,0,0,0,2.232-2.209c0-1.428-1.144-1.882-2.232-2.187v-2a2.659,2.659,0,0,1,1.118.518c.495.349,1.107-.4.681-.843a3.105,3.105,0,0,0-1.805-.765v-.654a.424.424,0,0,0-.847,0v.631a2.191,2.191,0,0,0-2.2,2.088c0,1.339,1.037,1.753,2.2,2.079v2.289a2.931,2.931,0,0,1-1.453-.68Zm2.306-1.349c.639.195,1.059.446,1.054,1,0,.427-.278.917-1.054,1.038Zm-1.865-2.411c0-.513.4-.881,1.019-.951V97.68c-.582-.179-1.019-.369-1.019-.871Z" transform="translate(136.525 681.618)" fill="#1b54f8" stroke="#fff" stroke-width="0.4"></path><path id="Path_44" data-name="Path 44" d="M164.506,259.313H155.75v-9.9a.674.674,0,0,0-.674-.674h-4.186a.674.674,0,0,0-.674.674v9.9h-3.1v-3.23a.674.674,0,0,0-.674-.674h-4.186a.674.674,0,0,0-.674.674v4.63a2.9,2.9,0,0,0-.427,1.519v6.249H122.44a1.574,1.574,0,0,1-1.572-1.572V252.2a.674.674,0,1,0-1.348,0V266.91a2.923,2.923,0,0,0,2.919,2.919H134.4l-3.667,5.616H127.82a.674.674,0,1,0,0,1.347h13.931a2.916,2.916,0,0,0,2.324,1.155h20.43a2.923,2.923,0,0,0,2.919-2.919v-12.8a2.923,2.923,0,0,0-2.919-2.919Zm-28.494,10.516h5.144v5.617h-8.811Zm5.167,5.616c0-.016,0-.018.007,0Zm10.386-25.358H154.4v9.226h-2.838Zm-8.633,6.67h2.838v2.556h-1.694a2.9,2.9,0,0,0-1.144.234Zm23.147,18.272a1.574,1.574,0,0,1-1.572,1.572h-20.43a1.574,1.574,0,0,1-1.572-1.572v-12.8a1.574,1.574,0,0,1,1.572-1.572h20.43a1.574,1.574,0,0,1,1.572,1.572Z" transform="translate(195.126 541.174)" fill="#1b54f8" stroke="#fff" stroke-width="0.4"></path><path id="Path_45" data-name="Path 45" d="M402.6,398.281a2.617,2.617,0,0,1-2.592-2.635.674.674,0,0,0-.674-.674H387.166a.674.674,0,0,0-.674.674,2.617,2.617,0,0,1-2.592,2.635.674.674,0,0,0-.674.674v4.372a.674.674,0,0,0,.674.674,2.616,2.616,0,0,1,2.592,2.635.674.674,0,0,0,.674.674h12.169a.674.674,0,0,0,.674-.674A2.616,2.616,0,0,1,402.6,404a.674.674,0,0,0,.674-.674v-4.372a.674.674,0,0,0-.674-.674Zm-.674,4.431a3.972,3.972,0,0,0-3.209,3.25H387.783a3.971,3.971,0,0,0-3.209-3.25V399.57a3.972,3.972,0,0,0,3.209-3.25h10.935a3.971,3.971,0,0,0,3.209,3.25Z" transform="translate(-43.833 408.664)" fill="#1b54f8" stroke="#fff" stroke-width="0.4"></path><path id="Path_46" data-name="Path 46" d="M459.539,427.05a3.159,3.159,0,1,0,3.159,3.159A3.163,3.163,0,0,0,459.539,427.05Zm0,4.97a1.811,1.811,0,1,1,1.811-1.811A1.813,1.813,0,0,1,459.539,432.02Z" transform="translate(-110.122 379.597)" fill="#1b54f8" stroke="#fff" stroke-width="0.4"></path><path id="Path_47" data-name="Path 47" d="M599.564,231.16a.674.674,0,0,0-.674.674v1.109a.674.674,0,1,0,1.347,0v-1.109A.673.673,0,0,0,599.564,231.16Z" transform="translate(-239.258 557.104)" fill="#1b54f8" stroke="#fff" stroke-width="0.4"></path><path id="Path_48" data-name="Path 48" d="M478.744,58.906h4.6a6.069,6.069,0,0,1,6.062,6.062v6.3a.674.674,0,0,0,1.348,0v-6.3a7.418,7.418,0,0,0-7.409-7.409h-4.6a.674.674,0,0,0,0,1.348Z" transform="translate(-129.777 714.414)" fill="#1b54f8" stroke="#fff" stroke-width="0.4"></path></g></g></svg> 