<?xml version="1.0" encoding="UTF-8"?> <svg xmlns="http://www.w3.org/2000/svg" xmlns:xlink="http://www.w3.org/1999/xlink" width="90" height="90" viewBox="0 0 90 90"><defs><clipPath id="clip-path"><rect id="Rectangle_421" data-name="Rectangle 421" width="90" height="90" transform="translate(186 404)" fill="#fff" stroke="#707070" stroke-width="1"></rect></clipPath></defs><g id="Mask_Group_12" data-name="Mask Group 12" transform="translate(-186 -404)" clip-path="url(#clip-path)"><g id="finance" transform="translate(196 414.159)"><path id="Path_7224" data-name="Path 7224" d="M31.26,26.456A14.533,14.533,0,0,0,24,28.4,1.108,1.108,0,1,0,25.1,30.316a12.336,12.336,0,1,1-2.532,1.94,1.106,1.106,0,1,0-1.561-1.568,14.529,14.529,0,1,0,10.248-4.23Z" transform="translate(7.954 11.703)" fill="#1b54f8"></path><path id="Path_7225" data-name="Path 7225" d="M40.416,57.062H37.638A1.635,1.635,0,0,1,36,55.428a1.107,1.107,0,0,0-2.213,0,3.851,3.851,0,0,0,3.846,3.846h.285V61.4a1.107,1.107,0,1,0,2.213,0V59.275h.282a3.846,3.846,0,1,0,0-7.693H37.638a1.635,1.635,0,0,1,0-3.268h2.778a1.635,1.635,0,0,1,1.633,1.633,1.107,1.107,0,1,0,2.213,0A3.851,3.851,0,0,0,40.416,46.1h-.285V43.978a1.107,1.107,0,0,0-2.213,0V46.1h-.28a3.848,3.848,0,1,0,0,7.7h2.778a1.633,1.633,0,0,1,0,3.267ZM65.534,22.2a1.107,1.107,0,0,0-.59,2.132c2.994.832,3.668,1.771,3.668,2.024,0,.924-4.33,3.09-12.726,3.09s-12.727-2.166-12.727-3.09,4.329-3.09,12.727-3.09a40.327,40.327,0,0,1,5.936.418,1.108,1.108,0,0,0,.326-2.191,42.943,42.943,0,0,0-6.262-.443c-7.2,0-14.94,1.66-14.94,5.3v8.609c0,3.643,7.745,5.3,14.94,5.3,4.836,0,9.912-.754,12.726-2.353v1.354c0,.924-4.33,3.09-12.726,3.09-.963,0-1.9-.03-2.8-.089A1.118,1.118,0,0,0,51.9,43.3a1.105,1.105,0,0,0,1.033,1.18c.952.062,1.939.094,2.951.094,4.836,0,9.912-.754,12.726-2.361v1.354c0,.924-4.33,3.1-12.726,3.1h-.66a1.149,1.149,0,0,0-1.139,1.073,1.11,1.11,0,0,0,1.074,1.14H55.9c4.836,0,9.912-.755,12.726-2.361V47.87c0,.924-4.33,3.09-12.726,3.09a1.107,1.107,0,1,0,0,2.213c4.836,0,9.912-.755,12.726-2.353v1.462c0,.924-4.33,3.09-12.726,3.09h-.4a1.171,1.171,0,0,0-1.118,1.095,1.108,1.108,0,0,0,1.095,1.118h.42c7.178,0,14.922-1.655,14.922-5.3V26.352C70.82,25.128,69.9,23.413,65.534,22.2Zm-9.652,9.459c4.836,0,9.912-.754,12.726-2.353v1.354c0,.924-4.33,3.1-12.726,3.1s-12.727-2.167-12.727-3.1V29.3C45.968,30.9,51.05,31.655,55.882,31.655Zm0,6.4c-8.4,0-12.727-2.166-12.727-3.09V33.607c2.814,1.6,7.888,2.361,12.727,2.361s9.912-.754,12.726-2.361v1.354C68.607,35.885,64.277,38.051,55.882,38.051Zm-32.57,20.5c-.39.015-.782.024-1.18.024-11.73,0-19.918-6.729-19.918-16.364,0-7.857,5.312-19.476,13.233-24.249.108-.066.2-.148.3-.221h9.046a1.107,1.107,0,1,0,0-2.213h-7.65a3.32,3.32,0,0,0-.481-2.4c-3.74-5.794-4.468-8.4-4.332-9.077a.078.078,0,0,0,.047.01,17.262,17.262,0,0,1,4.9.747,17.106,17.106,0,0,0,4.742.738,22.306,22.306,0,0,0,5.375-.794,20.03,20.03,0,0,1,4.254-.69c-.04.834-.866,3.3-3.724,8.174H19.476a1.107,1.107,0,0,0,0,2.213h7.469a3.3,3.3,0,0,0,.071,1.235,3.554,3.554,0,0,0,1.672,2.192,27.08,27.08,0,0,1,9.366,10.43A1.107,1.107,0,1,0,40,27.252a29.292,29.292,0,0,0-10.18-11.277,1.368,1.368,0,0,1-.654-.831,1.121,1.121,0,0,1,.134-.872C34.85,5.034,33.953,3.448,33.575,2.765a1.849,1.849,0,0,0-1.67-.922,21.113,21.113,0,0,0-5.016.754,20.275,20.275,0,0,1-4.869.738,15.049,15.049,0,0,1-4.175-.668,19.633,19.633,0,0,0-5.469-.82,2.1,2.1,0,0,0-1.97,1.07c-.372.683-1.36,2.5,4.4,11.412a1.12,1.12,0,0,1,.161.885,1.375,1.375,0,0,1-.655.857C5.754,21.23,0,33.754,0,42.215,0,52.978,9.31,60.8,22.131,60.8q.637,0,1.266-.027a1.107,1.107,0,0,0-.087-2.213Z" transform="translate(0 0)" fill="#1b54f8"></path></g></g></svg> 