<?xml version="1.0" encoding="UTF-8"?> <svg xmlns="http://www.w3.org/2000/svg" width="61" height="61" viewBox="0 0 61 61" fill="none"><mask id="mask0_1_143" style="mask-type:luminance" maskUnits="userSpaceOnUse" x="0" y="0" width="61" height="61"><path d="M60.5 0.399994H0.5V60.4H60.5V0.399994Z" fill="white"></path></mask><g mask="url(#mask0_1_143)"><path d="M58.1 22.5C58.6 22.5 59.1 22.1 59.1 21.5V15.7C59.1 15.2 58.7 14.7 58.1 14.7H56.2V8C56.2 7.6 55.9 7.20001 55.5 7.10001L30.6 1.29999C30.5 1.29999 30.3 1.29999 30.2 1.29999L5.3 7.10001C4.9 7.20001 4.6 7.6 4.6 8V14.7H2.7C2.2 14.7 1.7 15.1 1.7 15.7V21.5C1.7 22 2.1 22.5 2.7 22.5H6.5V47.4H5.5C5 47.4 4.5 47.8 4.5 48.4V53.2H2.6C2.1 53.2 1.6 53.6 1.6 54.2V58C1.6 58.5 2 59 2.6 59H58.2C58.7 59 59.2 58.6 59.2 58V54.2C59.2 53.7 58.8 53.2 58.2 53.2H56.3V48.4C56.3 47.9 55.9 47.4 55.3 47.4H54.3V22.5H58.1ZM6.3 8.89999L30.3 3.39999L54.3 8.89999V14.8H6.3V8.89999ZM3.5 16.7H57.2V20.5H3.5V16.7ZM15.9 47.4V22.5H44.7V47.4H15.9ZM8.3 22.5H14V47.4H8.2V22.5H8.3ZM57.2 57H3.5V55.1H57.2V57ZM6.3 53.2V49.4H54.2V53.2H6.3ZM52.4 47.4H46.6V22.5H52.4V47.4Z" fill="#1B54F8"></path><path d="M30.3 5.20001C28.2 5.20001 26.5 6.9 26.5 9C26.5 11.1 28.2 12.8 30.3 12.8C32.4 12.8 34.1 11.1 34.1 9C34.1 6.9 32.4 5.20001 30.3 5.20001ZM30.3 11C29.2 11 28.4 10.1 28.4 9.10001C28.4 8.10001 29.3 7.20001 30.3 7.20001C31.3 7.20001 32.2 8.10001 32.2 9.10001C32.2 10.1 31.4 11 30.3 11Z" fill="#1B54F8"></path><path d="M30.3 32.1C30.8 32.1 31.3 32.5 31.3 33.1H33.2C33.2 31.9 32.4 30.8 31.3 30.4V29.3H29.4V30.4C27.9 30.9 27.1 32.6 27.6 34.1C28 35.3 29.1 36 30.3 36C30.8 36 31.3 36.4 31.3 37C31.3 37.6 30.9 38 30.3 38C29.8 38 29.3 37.6 29.3 37H27.4C27.4 38.2 28.2 39.3 29.3 39.7V40.8H31.2V39.7C32.7 39.2 33.5 37.5 33 36C32.6 34.9 31.5 34.1 30.3 34.1C29.8 34.1 29.3 33.7 29.3 33.1C29.4 32.5 29.8 32.1 30.3 32.1Z" fill="#1B54F8"></path><path d="M30.3 26.3C25.5 26.3 21.7 30.2 21.7 34.9C21.7 39.6 25.6 43.5 30.3 43.5C35.1 43.5 38.9 39.6 38.9 34.9C38.9 30.2 35.1 26.3 30.3 26.3ZM30.3 41.7C26.6 41.7 23.6 38.7 23.6 35C23.6 31.3 26.6 28.3 30.3 28.3C34 28.3 37 31.3 37 35C37 38.6 34 41.6 30.3 41.7Z" fill="#1B54F8"></path><path d="M36 34H34.1V35.9H36V34Z" fill="#1B54F8"></path><path d="M26.5 34H24.6V35.9H26.5V34Z" fill="#1B54F8"></path></g></svg> 