<?xml version="1.0" encoding="UTF-8"?> <svg xmlns="http://www.w3.org/2000/svg" xmlns:xlink="http://www.w3.org/1999/xlink" width="60" height="60" viewBox="0 0 60 60"><defs><clipPath id="clip-path"><rect id="Rectangle_14" data-name="Rectangle 14" width="60" height="60" transform="translate(413 490)" fill="#fff" stroke="#707070" stroke-width="1"></rect></clipPath></defs><g id="Mask_Group_64" data-name="Mask Group 64" transform="translate(-413 -490)" clip-path="url(#clip-path)"><path id="Path_205" data-name="Path 205" d="M46.645,13.962H41.693v-.99A2.974,2.974,0,0,0,38.722,10H20.894a2.974,2.974,0,0,0-2.971,2.971v.99H12.971A2.974,2.974,0,0,0,10,16.933V40.7a2.974,2.974,0,0,0,2.971,2.971H24.856v3.962H18.914a.99.99,0,1,0,0,1.981H40.7a.99.99,0,1,0,0-1.981H34.76V43.674H46.645A2.974,2.974,0,0,0,49.616,40.7V16.933A2.974,2.974,0,0,0,46.645,13.962Zm0,1.981a.99.99,0,0,1,.99.99v20.8H41.693V15.942ZM19.9,12.971a.99.99,0,0,1,.99-.99H38.722a.99.99,0,0,1,.99.99v24.76H19.9Zm-6.933,2.971h4.952V37.731H11.981v-20.8A.99.99,0,0,1,12.971,15.942ZM32.779,47.635H26.837V43.674h5.942Zm13.866-5.942H12.971a.99.99,0,0,1-.99-.99v-.99H47.635v.99A.99.99,0,0,1,46.645,41.693ZM37.731,34.76a.99.99,0,0,1-.99.99H22.875a.99.99,0,0,1,0-1.981H36.741A.99.99,0,0,1,37.731,34.76Zm-5.942-8.914V23.866H26.837a.99.99,0,0,1-.99-.99V18.914a.99.99,0,0,1,.99-.99h1.981v-.99a.99.99,0,1,1,1.981,0v.99h1.981a.99.99,0,0,1,0,1.981H27.827v1.981h4.952a.99.99,0,0,1,.99.99v3.962a.99.99,0,0,1-.99.99H30.8v.99a.99.99,0,0,1-1.981,0v-.99H26.837a.99.99,0,1,1,0-1.981Z" transform="translate(413.192 490.192)" fill="#1c54f8" stroke="#fff" stroke-width="1"></path></g></svg> 