<?xml version="1.0" encoding="UTF-8"?> <svg xmlns="http://www.w3.org/2000/svg" id="Layer_1" data-name="Layer 1" viewBox="0 0 80 80"><defs><style>.cls-1{fill:#1b54f8;stroke:#1b54f8;stroke-miterlimit:10;stroke-width:0.5px;}</style></defs><g id="Application_Development" data-name="Application Development"><g id="Group"><path id="Path" class="cls-1" d="M34.7,66.05h-8a1,1,0,0,0-1,1,.94.94,0,0,0,1,1h8a1,1,0,0,0,1-1A.94.94,0,0,0,34.7,66.05Z"></path><path id="Path-2" data-name="Path" class="cls-1" d="M27,13.65a1,1,0,1,0-1.4,0A1.06,1.06,0,0,0,27,13.65Z"></path><path id="Path-3" data-name="Path" class="cls-1" d="M31.4,13.65a1,1,0,1,0-1.4,0A1.19,1.19,0,0,0,31.4,13.65Z"></path><path id="Path-4" data-name="Path" class="cls-1" d="M35.9,13.65a1,1,0,1,0-1.4,0A1.2,1.2,0,0,0,35.9,13.65Z"></path><path id="Shape" class="cls-1" d="M68.3,34.65c-.2,0-1.1-.3-1.8-.5h-.1a12,12,0,0,0-1.1-2.6l1-1.7a1.06,1.06,0,0,0-.2-1.2l-2.3-2.3a1.06,1.06,0,0,0-1.2-.2l-1.7,1a12,12,0,0,0-2.6-1.1l-.5-1.9a1,1,0,0,0-.9-.7H53.6a1,1,0,0,0-.9.7l-.5,1.9a10.41,10.41,0,0,0-1.6.6V11.85A3.9,3.9,0,0,0,46.7,8H14.8a3.84,3.84,0,0,0-3.9,3.9v56.3a3.9,3.9,0,0,0,3.9,3.9H46.7a3.9,3.9,0,0,0,3.9-3.9V48c.5.2,1.1.4,1.6.6l.5,1.9a1,1,0,0,0,.9.7h3.3a1,1,0,0,0,.9-.7l.5-1.9a12,12,0,0,0,2.6-1.1l1.7,1a1.06,1.06,0,0,0,1.2-.2L66.1,46a1.38,1.38,0,0,0,.3-.4,1,1,0,0,0-.1-.9h0c-.1-.1-.6-1.1-.9-1.7a12,12,0,0,0,1.1-2.6l1.9-.5a1,1,0,0,0,.7-.9v-3.3A1,1,0,0,0,68.3,34.65Zm-24.1-4.8,1,1.7a12,12,0,0,0-1.1,2.6l-1.9.5a1,1,0,0,0-.7.9v3.3a1,1,0,0,0,.7.9l1.9.5a12,12,0,0,0,1.1,2.6l-1,1.7a1.06,1.06,0,0,0,.2,1.2l2.3,2.3a1.06,1.06,0,0,0,1.2.2l.8-.4V62H12.8V17.85H48.6v8.7l-.8-.4a1.06,1.06,0,0,0-1.2.2l-2.3,2.3A1.26,1.26,0,0,0,44.2,29.85Zm-29.4-20H46.7a1.9,1.9,0,0,1,1.9,1.9V16H12.8v-4.1A2,2,0,0,1,14.8,9.85Zm31.9,60.2H14.8a1.9,1.9,0,0,1-1.9-1.9V64H48.7v4.1A2.07,2.07,0,0,1,46.7,70.05Zm20.5-31.9-1.7.5a1.21,1.21,0,0,0-.7.7,9.32,9.32,0,0,1-1.3,3.1.91.91,0,0,0,0,1,15.12,15.12,0,0,0,.9,1.6L63,46.25l-1.6-.9a.91.91,0,0,0-1,0,12,12,0,0,1-3.1,1.3,1,1,0,0,0-.7.7l-.5,1.7H54.3l-.5-1.7a1.21,1.21,0,0,0-.7-.7,9.32,9.32,0,0,1-3.1-1.3h-.2a1.1,1.1,0,0,0-.8,0l-1.6.9L46.1,45l.9-1.6a.91.91,0,0,0,0-1,10.7,10.7,0,0,1-1.3-3.1,1,1,0,0,0-.7-.7l-1.7-.5v-1.8l1.7-.5a1.21,1.21,0,0,0,.7-.7A12,12,0,0,1,47,32a.91.91,0,0,0,0-1l-.9-1.6,1.3-1.3L49,29c.3.1.6.2.8,0H50a12,12,0,0,1,3.1-1.3.85.85,0,0,0,.7-.7l.5-1.8h1.8l.5,1.8a1.21,1.21,0,0,0,.7.7A9.32,9.32,0,0,1,60.4,29a.91.91,0,0,0,1,0l1.6-.9,1.3,1.3L63.4,31a.91.91,0,0,0,0,1,12,12,0,0,1,1.3,3.1,1,1,0,0,0,.7.7l.6.2a5.31,5.31,0,0,1,1.1.3v1.9Z"></path><path id="Shape-2" data-name="Shape" class="cls-1" d="M39.4,42.25h0s-.8-.2-1.4-.4a10.84,10.84,0,0,0-.8-1.9l.7-1.3a1.06,1.06,0,0,0-.2-1.2l-1.8-1.8a1.06,1.06,0,0,0-1.2-.2l-1.3.7a15.39,15.39,0,0,0-1.9-.8L31.1,34a1,1,0,0,0-.9-.7H27.6a1,1,0,0,0-.9.7l-.4,1.4a7.71,7.71,0,0,0-1.9.8l-1.3-.7a1.06,1.06,0,0,0-1.2.2l-1.8,1.8a1.06,1.06,0,0,0-.2,1.2l.7,1.3a10.84,10.84,0,0,0-.8,1.9l-1.4.4a1,1,0,0,0-.7.9v2.6a1,1,0,0,0,.7.9l1.4.4a10.84,10.84,0,0,0,.8,1.9l-.6,1.3a1.06,1.06,0,0,0,.2,1.2l1.8,1.8a1.06,1.06,0,0,0,1.2.2l1.3-.7a10.84,10.84,0,0,0,1.9.8l.4,1.4a1,1,0,0,0,.9.7h2.6a1,1,0,0,0,.9-.7l.4-1.4a10.84,10.84,0,0,0,1.9-.8l1.3.7a1.06,1.06,0,0,0,1.2-.2l1.8-1.8a1.06,1.06,0,0,0,.2-1.2L37.2,49a10.84,10.84,0,0,0,.8-1.9l1.4-.4a1,1,0,0,0,.7-.9v-2.6A1,1,0,0,0,39.4,42.25ZM38.1,45l-1.2.3a1.21,1.21,0,0,0-.7.7,8.18,8.18,0,0,1-1,2.4.91.91,0,0,0,0,1l.6,1.1-.8.9-1.1-.6a.91.91,0,0,0-1,0,6.43,6.43,0,0,1-2.4,1,1,1,0,0,0-.7.7l-.4,1.2H28.3l-.3-1.3a1.21,1.21,0,0,0-.7-.7,8.18,8.18,0,0,1-2.4-1,.91.91,0,0,0-1,0l-1.1.6-.8-.8.6-1.1a.91.91,0,0,0,0-1,8.18,8.18,0,0,1-1-2.4,1,1,0,0,0-.7-.7L19.8,45v-1.1l1.2-.3a1.21,1.21,0,0,0,.7-.7,8.18,8.18,0,0,1,1-2.4.91.91,0,0,0,0-1l-.6-1.1.8-.8,1.1.6a.91.91,0,0,0,1,0,7.2,7.2,0,0,1,2.4-1,.85.85,0,0,0,.7-.7l.4-1.2h1.1l.4,1.2a1.21,1.21,0,0,0,.7.7,8.18,8.18,0,0,1,2.4,1,.91.91,0,0,0,1,0l1.1-.6.8.8-.6,1.1a.91.91,0,0,0,0,1,6.43,6.43,0,0,1,1,2.4,1,1,0,0,0,.7.7l1.2.3V45Z"></path><path id="Shape-3" data-name="Shape" class="cls-1" d="M28.9,40.65a3.8,3.8,0,1,0,3.8,3.8A3.8,3.8,0,0,0,28.9,40.65Zm0,5.6a1.8,1.8,0,1,1,1.8-1.8A1.68,1.68,0,0,1,28.9,46.25Z"></path><path id="Shape-4" data-name="Shape" class="cls-1" d="M55.3,31.85a5.4,5.4,0,1,0,5.4,5.4A5.38,5.38,0,0,0,55.3,31.85Zm0,8.9a3.5,3.5,0,1,1,3.5-3.5A3.54,3.54,0,0,1,55.3,40.75Z"></path></g></g></svg> 