<?xml version="1.0" encoding="UTF-8"?> <svg xmlns="http://www.w3.org/2000/svg" xmlns:xlink="http://www.w3.org/1999/xlink" width="90" height="90" viewBox="0 0 90 90"><defs><clipPath id="clip-path"><rect id="Rectangle_911" data-name="Rectangle 911" width="90" height="90" transform="translate(1663 1031)" fill="#fff"></rect></clipPath></defs><g id="Mask_Group_3" data-name="Mask Group 3" transform="translate(-1663 -1031)" clip-path="url(#clip-path)"><g id="Group_3887" data-name="Group 3887" transform="translate(-9.1 -200.688)"><path id="Path_2465" data-name="Path 2465" d="M126.405,43.947l-4.435-2.559V17.529a1.307,1.307,0,0,0-.653-1.132L100.65,4.462V1.307a1.307,1.307,0,1,0-2.614,0V4.463L77.37,16.4a1.307,1.307,0,0,0-.653,1.132V41.387l-4.435,2.56a1.307,1.307,0,0,0,1.307,2.264l4.435-2.56L98.691,55.58a1.308,1.308,0,0,0,1.306,0l20.665-11.93,4.435,2.56a1.307,1.307,0,1,0,1.307-2.263Zm-7.049-25.664V39.878l-4.515-2.607V21.643c0-.012,0-.023-.005-.037a1.256,1.256,0,0,0-.035-.268c-.005-.018-.008-.037-.013-.056a1.276,1.276,0,0,0-.121-.294,1.339,1.339,0,0,0-.2-.253c-.014-.014-.028-.026-.043-.039a1.272,1.272,0,0,0-.212-.163c-.011-.007-.019-.018-.03-.023L100.65,12.693V7.479Zm-32.9,18.988V23.906L98.035,30.59V43.954ZM99.343,14.956l11.578,6.687L99.342,28.326,87.765,21.643Zm1.305,15.633,11.579-6.682V37.272l-11.579,6.684ZM79.331,18.283l18.706-10.8v5.212L84.5,20.511c-.015.009-.025.022-.04.03a1.3,1.3,0,0,0-.192.147c-.019.018-.039.034-.058.053a1.19,1.19,0,0,0-.31.537c-.006.022-.01.045-.016.068a1.321,1.321,0,0,0-.033.252c0,.015-.006.029-.006.044v15.63l-4.515,2.607V18.284ZM99.344,52.94l-18.707-10.8,4.515-2.607L98.69,47.351c.012.007.027.01.039.017a1.246,1.246,0,0,0,.235.1.635.635,0,0,0,.069.021,1.285,1.285,0,0,0,.308.041h.008a1.354,1.354,0,0,0,.3-.039c.029-.007.057-.017.086-.026a1.258,1.258,0,0,0,.21-.087c.018-.01.037-.012.054-.022l13.537-7.815,4.515,2.607Z" transform="translate(1619.578 1246.647)" fill="#05f" stroke="#fff" stroke-width="1"></path><path id="Path_2528" data-name="Path 2528" d="M156.362,36.337l-8.034-2.374a38.15,38.15,0,0,0-3.1-7.486l4.017-7.486a1.942,1.942,0,0,0-.365-2.191L140.66,8.584a1.941,1.941,0,0,0-2.191-.365l-7.486,4.017a38.089,38.089,0,0,0-7.486-3.1L121.123,1.1c0-.549-.731-1.1-1.462-1.1h-11.5a2.2,2.2,0,0,0-1.826,1.278l-2.374,8.034a38.15,38.15,0,0,0-7.486,3.1L88.987,8.4a1.942,1.942,0,0,0-2.191.365l-8.034,8.217a1.941,1.941,0,0,0-.365,2.191l4.017,7.486a38.089,38.089,0,0,0-3.1,7.486l-8.034,2.374A1.411,1.411,0,0,0,70,37.98v11.5a2.2,2.2,0,0,0,1.278,1.826l8.034,2.374a38.149,38.149,0,0,0,3.1,7.486L78.4,68.655a1.942,1.942,0,0,0,.365,2.191l8.216,8.216a1.941,1.941,0,0,0,2.191.365l7.486-4.017a38.089,38.089,0,0,0,7.486,3.1l2.374,8.034a1.814,1.814,0,0,0,1.826,1.278h11.5a2.2,2.2,0,0,0,1.826-1.278l2.374-8.034a38.149,38.149,0,0,0,7.486-3.1l7.486,4.017a1.942,1.942,0,0,0,2.191-.365l8.216-8.216a1.941,1.941,0,0,0,.365-2.191l-4.017-7.486a38.088,38.088,0,0,0,3.1-7.486l8.034-2.374a1.814,1.814,0,0,0,1.278-1.826V37.98a3.87,3.87,0,0,0-1.825-1.643Zm-2.373,11.868-7.669,2.374a2.208,2.208,0,0,0-1.278,1.278,37.092,37.092,0,0,1-3.469,8.4,1.66,1.66,0,0,0,0,1.826l3.834,7.121L139.2,75.411l-7.12-3.835a1.66,1.66,0,0,0-1.826,0,28.183,28.183,0,0,1-8.4,3.469,1.8,1.8,0,0,0-1.278,1.278L118.2,83.992h-8.764l-2.374-7.669a2.207,2.207,0,0,0-1.278-1.278,37.093,37.093,0,0,1-8.4-3.469,1.66,1.66,0,0,0-1.826,0L88.439,75.41,82.231,69.2l3.835-7.12a1.66,1.66,0,0,0,0-1.826,28.184,28.184,0,0,1-3.469-8.4,1.8,1.8,0,0,0-1.278-1.278L73.65,48.205V39.441l7.669-2.374A2.207,2.207,0,0,0,82.6,35.789a37.094,37.094,0,0,1,3.469-8.4,1.66,1.66,0,0,0,0-1.826l-3.834-7.121,6.208-6.208,7.12,3.835a1.66,1.66,0,0,0,1.826,0,28.184,28.184,0,0,1,8.4-3.469,1.8,1.8,0,0,0,1.278-1.278l2.373-7.669H118.2l2.374,7.669a2.208,2.208,0,0,0,1.278,1.278,37.093,37.093,0,0,1,8.4,3.469,1.66,1.66,0,0,0,1.826,0l7.121-3.834,6.208,6.208-3.835,7.12a1.66,1.66,0,0,0,0,1.826,28.183,28.183,0,0,1,3.469,8.4,1.8,1.8,0,0,0,1.278,1.278l7.669,2.374Z" transform="translate(1603.102 1232.685)" fill="#05f" stroke="#fff" stroke-width="2"></path></g></g></svg> 