<?xml version="1.0" encoding="UTF-8"?> <svg xmlns="http://www.w3.org/2000/svg" xmlns:xlink="http://www.w3.org/1999/xlink" width="60" height="60" viewBox="0 0 60 60"><defs><clipPath id="clip-path"><rect id="Rectangle_3" data-name="Rectangle 3" width="60" height="60" transform="translate(462 63)" fill="#fff" stroke="#707070" stroke-width="1"></rect></clipPath></defs><g id="Mask_Group_3" data-name="Mask Group 3" transform="translate(-462 -63)" clip-path="url(#clip-path)"><g id="Group_3" data-name="Group 3" transform="translate(48.345 -152.827)"><path id="Path_3" data-name="Path 3" d="M28.775,26.6l-.995-.995a7.325,7.325,0,1,0-2.172,2.172l.995.995A1.458,1.458,0,0,0,27,30.08l4.66,4.66a1.461,1.461,0,0,0,2.063,0l1.014-1.014a1.461,1.461,0,0,0,0-2.063L30.081,27A1.458,1.458,0,0,0,28.775,26.6ZM15.523,21.641a6.118,6.118,0,1,1,6.118,6.118A6.125,6.125,0,0,1,15.523,21.641Zm11.522,4.922.706.706-.482.482-.706-.706Q26.815,26.815,27.045,26.563Zm6.85,6.318L32.881,33.9a.267.267,0,0,1-.373,0l-4.66-4.66a.268.268,0,0,1,0-.373l1.014-1.014a.266.266,0,0,1,.373,0l4.66,4.66A.267.267,0,0,1,33.9,32.881ZM21.641,15.925a5.717,5.717,0,1,0,5.716,5.716A5.723,5.723,0,0,0,21.641,15.925Zm0,10.237a4.521,4.521,0,1,1,4.521-4.521A4.526,4.526,0,0,1,21.641,26.162ZM10.117,8.343H6.644a.6.6,0,0,0-.6.6v3.473a.6.6,0,0,0,.6.6h3.473a.6.6,0,0,0,.6-.6V8.941A.6.6,0,0,0,10.117,8.343Zm-.6,3.473H7.242V9.539H9.519ZM40.554,8.343H37.081a.6.6,0,0,0-.6.6v3.473a.6.6,0,0,0,.6.6h3.473a.6.6,0,0,0,.6-.6V8.941A.6.6,0,0,0,40.554,8.343Zm-.6,3.473H37.679V9.539h2.277ZM42.945,15.4a.6.6,0,0,0,.423-.175l2.3-2.3a.6.6,0,0,0,.175-.423V4.253a.6.6,0,0,0-.6-.6H36.988a.6.6,0,0,0-.423.175l-2.3,2.3a.6.6,0,0,0-.175.423V8.931H15.4V4.253a.6.6,0,0,0-.6-.6H6.55a.6.6,0,0,0-.423.175l-2.3,2.3a.6.6,0,0,0-.175.422V14.8a.6.6,0,0,0,.6.6H8.931v18.69H6.55a.6.6,0,0,0-.423.175l-2.3,2.3a.6.6,0,0,0-.175.423v8.254a.6.6,0,0,0,.6.6h8.254a.6.6,0,0,0,.423-.175l2.3-2.3a.6.6,0,0,0,.175-.423V40.563h18.69v4.678a.6.6,0,0,0,.6.6h8.254a.6.6,0,0,0,.423-.175l2.3-2.3a.6.6,0,0,0,.175-.423V34.69a.6.6,0,0,0-.6-.6H40.563V15.4ZM35.288,7.148h7.059v7.059H35.288Zm8.255,6.214V6.8l1.1-1.1V12.26ZM37.235,4.851H43.8l-1.1,1.1H36.133ZM6.8,4.851h6.564l-1.1,1.1H5.7Zm7.409.845V12.26l-1.1,1.1V6.8ZM4.851,7.148H11.91v7.059H4.851ZM6.8,35.288h6.564l-1.1,1.1H5.7Zm-1.947,2.3H11.91v7.059H4.851ZM13.105,43.8V37.235l1.1-1.1V42.7ZM36.133,36.39l1.1-1.1H43.8l-1.1,1.1Zm-.845,1.2h7.059v7.059H35.288ZM43.543,43.8V37.235l1.1-1.1V42.7Zm-4.175-9.706H36.987a.6.6,0,0,0-.423.175l-2.3,2.3a.6.6,0,0,0-.175.423v2.381H15.4V34.691a.6.6,0,0,0-.6-.6H10.126V15.4h2.381a.6.6,0,0,0,.423-.175l2.3-2.3a.6.6,0,0,0,.175-.423V10.126h18.69V14.8a.6.6,0,0,0,.6.6h4.678V34.093Zm1.186,4.688H37.081a.6.6,0,0,0-.6.6v3.473a.6.6,0,0,0,.6.6h3.473a.6.6,0,0,0,.6-.6V39.378A.6.6,0,0,0,40.554,38.781Zm-.6,3.472H37.679V39.976h2.277ZM10.117,38.781H6.644a.6.6,0,0,0-.6.6v3.473a.6.6,0,0,0,.6.6h3.473a.6.6,0,0,0,.6-.6V39.378A.6.6,0,0,0,10.117,38.781Zm-.6,3.472H7.242V39.976H9.519Z" transform="translate(419 221.173)" fill="#1c54f8" stroke="#fff" stroke-width="0.3"></path></g></g></svg> 