<?xml version="1.0" encoding="UTF-8"?> <!-- Generator: Adobe Illustrator 25.2.3, SVG Export Plug-In . SVG Version: 6.00 Build 0) --> <svg xmlns="http://www.w3.org/2000/svg" xmlns:xlink="http://www.w3.org/1999/xlink" version="1.1" id="Layer_1" x="0px" y="0px" viewBox="0 0 94 94" style="enable-background:new 0 0 94 94;" xml:space="preserve"> <style type="text/css"> .st0{fill:#1B54F8;stroke:#1B54F8;stroke-miterlimit:10;} .st1{fill:#1B54F8;stroke:#1B54F8;stroke-width:1;stroke-miterlimit:9.9999;} </style> <g> <path class="st0" d="M9.2,57.8L9.2,57.8v17l0,0l12.9,5l12.9-5l0,0v-17l0,0l-12.9-5L9.2,57.8z M11.5,61.3l9.3,3.7v12l-9.3-3.7 C11.5,73.3,11.5,61.3,11.5,61.3z M32.5,73.2l-9.3,3.7v-12l9.3-3.7V73.2z M22.1,62.8L22.1,62.8L12.4,59l9.6-3.8l9.6,3.8L22.1,62.8z"></path> <path class="st0" d="M72,52.8l-12.9,5l0,0v17l0,0l12.9,5l12.8-5l0,0v-17l0,0L72,52.8z M61.5,61.3l9.3,3.7v12l-9.3-3.7 C61.5,73.3,61.5,61.3,61.5,61.3z M82.5,73.2l-9.3,3.7v-12l9.3-3.7V73.2z M72,62.8L72,62.8L62.3,59l9.6-3.8l9.6,3.8L72,62.8z"></path> <path class="st0" d="M60.6,36.2L60.6,36.2v-17l0,0l-12.9-5l-12.9,5l0,0v17l0,0l12.9,5L60.6,36.2z M58.2,34.5l-9.3,3.6V26.3l9.3-3.6 V34.5z M47.7,16.7l9.6,3.8l-9.6,3.8h-0.1l-9.5-3.9L47.7,16.7z M37.3,22.7l9.3,3.6v12l-9.3-3.6V22.7z"></path> <rect x="38" y="65" class="st0" width="2.4" height="2.4"></rect> <rect x="52" y="65" class="st0" width="2.4" height="2.4"></rect> <rect x="47.4" y="65" class="st0" width="2.4" height="2.4"></rect> <rect x="42.7" y="65" class="st0" width="2.4" height="2.4"></rect> <rect x="30.2" y="51.3" transform="matrix(0.7071 -0.7071 0.7071 0.7071 -27.9249 37.5843)" class="st1" width="2.4" height="2.4"></rect> <rect x="40.2" y="41.4" transform="matrix(0.7071 -0.7071 0.7071 0.7071 -17.9651 41.7314)" class="st1" width="2.4" height="2.4"></rect> <rect x="36.9" y="44.6" transform="matrix(0.7071 -0.7071 0.7071 0.7071 -21.2417 40.3788)" class="st1" width="2.4" height="2.4"></rect> <rect x="33.6" y="48" transform="matrix(0.7071 -0.7071 0.7071 0.7071 -24.5774 39.0259)" class="st1" width="2.4" height="2.4"></rect> <rect x="64.1" y="51.3" transform="matrix(0.7071 -0.7071 0.7071 0.7071 -17.9783 61.5828)" class="st1" width="2.4" height="2.4"></rect> <rect x="57.5" y="44.6" transform="matrix(0.7071 -0.7071 0.7071 0.7071 -15.1836 54.9)" class="st1" width="2.4" height="2.4"></rect> <rect x="60.8" y="48" transform="matrix(0.7071 -0.7071 0.7071 0.7071 -16.626 58.2468)" class="st1" width="2.4" height="2.4"></rect> <rect x="54.2" y="41.3" transform="matrix(0.7071 -0.7071 0.7071 0.7071 -13.8603 51.6346)" class="st1" width="2.4" height="2.4"></rect> </g> </svg> 