<?xml version="1.0" encoding="UTF-8"?> <svg xmlns="http://www.w3.org/2000/svg" width="77" height="77" viewBox="0 0 77 77"><g id="Group_297" data-name="Group 297" transform="translate(-2633 -65)"><rect id="Rectangle_112" data-name="Rectangle 112" width="77" height="77" transform="translate(2633 65)" fill="#9b9b9b" opacity="0"></rect><g id="Group_291" data-name="Group 291" transform="translate(-20 60)"><path id="Path_130" data-name="Path 130" d="M160.9,37.14a.963.963,0,0,0,.494-.8V28.686a.89.89,0,0,0-.494-.8l-6.664-3.826a.839.839,0,0,0-.925,0l-2.962,1.728L142.265,21.9V18.689a.89.89,0,0,0-.494-.8L135.23,14a.839.839,0,0,0-.925,0l-6.664,3.826a.963.963,0,0,0-.494.8v3.209l-8.083,3.888-2.9-1.667a.839.839,0,0,0-.925,0l-6.665,3.826a.963.963,0,0,0-.494.8v7.652a.89.89,0,0,0,.494.8l6.171,3.579v4.937l-6.171,3.579a.963.963,0,0,0-.494.8v7.652a.89.89,0,0,0,.494.8l6.664,3.825a1.166,1.166,0,0,0,.494.124,1.446,1.446,0,0,0,.494-.124l2.962-1.728,8.083,3.888v3.209a.89.89,0,0,0,.494.8l6.6,3.826a1.166,1.166,0,0,0,.494.124,1.446,1.446,0,0,0,.494-.124l6.6-3.826a.963.963,0,0,0,.494-.8V64.476l8.083-3.888,2.962,1.728a1.166,1.166,0,0,0,.494.124,1.446,1.446,0,0,0,.494-.124l6.6-3.826a.963.963,0,0,0,.494-.8V50.037a.889.889,0,0,0-.494-.8l-6.171-3.579V40.719ZM148.127,51.7l4.751,2.715v5.43l-4.751-2.715Zm5.677,1.049-4.751-2.715,4.751-2.715,4.751,2.715Zm-5.677-22.4,4.751,2.715V38.5l-4.751-2.715Zm6.6,8.145v-5.43l4.751-2.715v5.43ZM153.8,25.971l4.751,2.715L153.8,31.4l-4.751-2.715Zm-24.744-5.677,4.751,2.715v5.43l-4.751-2.715Zm6.6,2.715,4.751-2.715v5.43l-4.751,2.715Zm-.925-7.1,4.751,2.715-4.751,2.777-4.751-2.715ZM115.669,25.972l4.751,2.715L115.669,31.4l-4.751-2.715Zm.987,28.447,4.751-2.715v5.43l-4.751,2.715Zm-.987-1.666-4.751-2.715,4.751-2.715,4.751,2.715Zm.987-19.684,4.751-2.715v5.43L116.656,38.5Zm-6.664-2.715,4.751,2.715V38.5l-4.751-2.715Zm0,21.35,4.751,2.715v5.43l-4.751-2.715ZM134.736,62.81l-4.751-2.715,4.751-2.715,4.751,2.715Zm-5.677-1.11,4.751,2.715v5.43l-4.751-2.715Zm6.6,8.207v-5.43l4.751-2.715v5.43Zm6.664-7.467V60.095a.89.89,0,0,0-.494-.8l-6.6-3.826a.839.839,0,0,0-.925,0l-6.6,3.826a.963.963,0,0,0-.494.8V62.44L121.1,59.478l1.666-.987a.963.963,0,0,0,.494-.8V50.037a.89.89,0,0,0-.494-.8l-6.171-3.579V40.719l6.171-3.579a.963.963,0,0,0,.494-.8V28.686a.89.89,0,0,0-.494-.8L121.1,26.9l6.109-2.962V26.28a.89.89,0,0,0,.494.8l6.6,3.826a1.166,1.166,0,0,0,.494.124,1.446,1.446,0,0,0,.494-.124l6.6-3.826a.963.963,0,0,0,.494-.8V23.935L148.5,26.9l-1.666.987a.963.963,0,0,0-.494.8v7.652a.89.89,0,0,0,.494.8L153,40.719v4.937l-6.171,3.579a.963.963,0,0,0-.494.8v7.652a.89.89,0,0,0,.494.8l1.666.987Zm12.4-2.592v-5.43l4.751-2.715v5.43Z" transform="translate(2556.921 0.138)" fill="#1b54f8"></path><g id="Group_290" data-name="Group 290" transform="translate(2681.173 34.929)"><path id="Path_212" data-name="Path 212" d="M228.88,223.464l-4.647-4.647,4.647-4.647-1.055-1.054-5.7,5.7,5.7,5.7Z" transform="translate(-222.124 -210.505)" fill="#1b54f8"></path><path id="Path_213" data-name="Path 213" d="M399.66,224.518l5.7-5.7-5.7-5.7L398.6,214.17l4.647,4.647-4.647,4.647Z" transform="translate(-383.563 -210.504)" fill="#1b54f8"></path><path id="Path_214" data-name="Path 214" d="M315.66,198.7l4.406-16.229,1.439.391L317.1,199.09Z" transform="translate(-307.688 -182.47)" fill="#1b54f8"></path></g></g></g></svg> 