<?xml version="1.0" encoding="UTF-8"?> <svg xmlns="http://www.w3.org/2000/svg" id="Layer_1" data-name="Layer 1" viewBox="0 0 80 80"><defs><style>.cls-1{opacity:0;}.cls-2{fill:#fff;}.cls-3,.cls-4{fill:#1b54f8;}.cls-4{stroke:#1b54f8;stroke-miterlimit:10;stroke-width:0.75px;}</style></defs><g class="cls-1"><rect class="cls-2" width="80" height="80"></rect></g><path class="cls-3" d="M18.3,32.58V15.84a4.58,4.58,0,0,1,0-.53c0,.26,0-.13,0-.15l.09-.35.12-.34c-.08.23.1-.19.12-.23l.18-.3s.24-.32.08-.12a5.79,5.79,0,0,1,.48-.51s.31-.25.11-.1l.29-.19a3.14,3.14,0,0,1,.31-.18l.21-.1c-.12,0-.11,0,0,0a5.41,5.41,0,0,1,.69-.19c.38-.07-.24,0,.15,0H71.34l.37,0c-.26,0,.13,0,.15,0a4.11,4.11,0,0,1,.68.21c-.24-.09.11.05.13.06L73,13l.29.19c-.19-.13.16.15.19.18s.16.17.24.25.25.31.1.11a5.27,5.27,0,0,1,.37.59s.17.37.07.13c.05.11.08.23.12.34l.09.35a2,2,0,0,1,0,.24q0-.2,0,0a5,5,0,0,1,0,.55V43.82a2.09,2.09,0,0,1,0,.25s0,.42,0,.16a4.09,4.09,0,0,1-.17.69s-.15.38,0,.15c0,.1-.1.21-.15.31l-.18.3-.14.19c.08-.1.07-.09,0,0a5.78,5.78,0,0,1-.49.5c-.28.24.19-.13-.12.09l-.29.18-.31.17c-.34.17.22-.08-.14.06a4.59,4.59,0,0,1-.81.21c.26-.05-.13,0-.16,0H28.9a1.25,1.25,0,0,0,0,2.5H71.17A5.87,5.87,0,0,0,77,43.67V15.8a5.84,5.84,0,0,0-3.18-5.16A8.19,8.19,0,0,0,69.91,10H21.6a5.88,5.88,0,0,0-5,2.86c-1.07,1.77-.79,4.06-.79,6V32.58a1.25,1.25,0,0,0,2.49,0Z"></path><path class="cls-3" d="M50.25,48.36V59.63l1.24-1.25H41.32l1.24,1.25V48.36L41.32,49.6H51.49a1.25,1.25,0,1,0,0-2.49H41.32a1.26,1.26,0,0,0-1.25,1.25V59.63a1.25,1.25,0,0,0,1.25,1.24H51.49a1.25,1.25,0,0,0,1.25-1.24V48.36a1.25,1.25,0,1,0-2.49,0Z"></path><path class="cls-3" d="M35.51,60.88H59.08a1.25,1.25,0,0,0,0-2.5H35.51a1.25,1.25,0,0,0,0,2.5Z"></path><path class="cls-3" d="M29.23,41.87l0,.74c0,.13,0,.25,0,.37,0,.4,0-.24,0,.15a10.08,10.08,0,0,1-.37,1.51l-.12.33s-.15.38,0,.14c-.09.22-.19.43-.3.64A9.44,9.44,0,0,1,27.5,47c-.22.31.15-.18-.08.12l-.23.26c-.15.18-.31.35-.47.51a5.68,5.68,0,0,1-.51.47l-.26.23,0,0-.18.13a8.64,8.64,0,0,1-1.19.73c-.21.11-.42.21-.64.3.24-.1-.12.05-.14.05l-.45.16a9.37,9.37,0,0,1-1.39.33c-.39.07.25,0-.15,0l-.37,0-.86,0-.74,0-.37,0c.27,0-.13,0-.15,0a8.71,8.71,0,0,1-1.5-.39l-.33-.12c-.36-.14.22.1-.14-.05l-.63-.31a10.5,10.5,0,0,1-1.27-.81c.2.15-.1-.08-.11-.1L15,48.32l-.5-.48c-.16-.17-.32-.34-.47-.52l-.22-.26c.15.18-.12-.18-.15-.22a9,9,0,0,1-.71-1.2c-.06-.1-.11-.21-.16-.31s-.15-.38-.06-.14c-.1-.25-.19-.52-.27-.78a9.77,9.77,0,0,1-.32-1.4c0,.26,0-.13,0-.15l0-.37a8.42,8.42,0,0,1,0-.87c0-.24,0-.49,0-.74,0,0,.06-.41,0-.15l.06-.36a10,10,0,0,1,.41-1.49l.12-.33c-.09.24.06-.12.06-.13.1-.22.21-.42.32-.63s.23-.4.36-.6l.19-.29s.3-.4.15-.21a9.19,9.19,0,0,1,.94-1c.16-.16.34-.31.52-.46l.11-.09a3.28,3.28,0,0,1,.38-.27,9.7,9.7,0,0,1,1.2-.71l.32-.14c.35-.16-.22.08.14-.06l.78-.27.7-.17.35-.07s.42-.06.15,0a10.71,10.71,0,0,1,1.6-.07c.25,0,.49,0,.74.06s-.24,0,.15,0l.36.06a9.62,9.62,0,0,1,1.48.43s.38.15.14,0l.32.14c.21.1.42.21.62.33s.4.23.6.36l.29.2s.32.24.12.08a10.05,10.05,0,0,1,1,.94c.16.16.31.34.46.52,0,0,.25.31.1.11l.2.28a10.3,10.3,0,0,1,.72,1.2l.15.32s.15.37.06.13c.09.22.16.44.24.67a9.37,9.37,0,0,1,.33,1.39c.07.39,0-.24,0,.15,0,.12,0,.25,0,.37s0,.49,0,.74a1.25,1.25,0,1,0,2.49,0,11,11,0,1,0-21.51,3.54,11,11,0,0,0,21.51-3.54,1.25,1.25,0,0,0-2.49,0Z"></path><path class="cls-3" d="M39.71,69.66a19.09,19.09,0,0,0-3.89-11.51,19.31,19.31,0,0,0-10-6.82A19.1,19.1,0,0,0,13.5,52,19,19,0,0,0,1.63,69.66a1.26,1.26,0,0,0,1.25,1.25H38.46a1.25,1.25,0,1,0,0-2.5H2.88l1.25,1.25c0-.5,0-1,.06-1.49,0-.24,0-.49.07-.73,0,.26,0-.14,0-.15,0-.16,0-.32.08-.48a17.83,17.83,0,0,1,.77-2.89,10.55,10.55,0,0,1,.47-1.12c.21-.46.45-.91.7-1.35s.48-.81.74-1.19l.41-.57.09-.12.29-.36a18,18,0,0,1,2-2.08,14,14,0,0,1,2.19-1.59q.6-.37,1.23-.69c.21-.11.42-.21.64-.3l.32-.15c-.22.1.21-.08.25-.1a17.62,17.62,0,0,1,2.85-.85l.72-.14.36-.05.15,0c.53-.07,1.07-.1,1.6-.12s1,0,1.5,0l.74.06.36,0q.23,0,0,0l.24,0A17,17,0,0,1,26,54c.23.07.45.15.67.24l.33.13s.38.15.14,0c.47.2.93.43,1.38.67s.81.46,1.2.71l.58.39.29.21.21.16a18,18,0,0,1,2.13,2c.32.34.62.7.9,1.06l.09.12.21.28c.16.22.31.45.46.68a17.73,17.73,0,0,1,1.38,2.58c-.1-.24,0,.12,0,.14s.12.29.17.44.19.52.28.78q.27.87.45,1.74c.06.28.11.56.16.84,0,.12,0,.24.05.36,0-.25,0,.23,0,.27q.09.93.09,1.86a1.25,1.25,0,0,0,2.5,0Z"></path><path class="cls-4" d="M57,29.67s0,0,0,0v0l0,0h0L51.82,27.4V21.6h0s0,0,0,0v0l0,0,0,0h0l-5.22-2.22a.28.28,0,0,0-.18,0l-5.2,2.2h0l0,0h0l0,0s0,0,0,0a.05.05,0,0,0,0,0V27.4L35.9,29.54h0l0,0,0,0v0s0,0,0,0v6a.23.23,0,0,0,.14.21l5.18,2.2h0l.08,0,.08,0h0l5.11-2.16,5.11,2.16h0l.08,0,.08,0h0l5.2-2.2a.23.23,0,0,0,.14-.21V29.75a.06.06,0,0,0,0-.06ZM41,37.49l-4.74-2V30.1l4.74,2Zm.23-5.79-3.43-1.45-1.18-.5,4.61-1.95,4.61,1.95-1.17.5Zm5,3.79-4.74,2V32.11l4.74-2Zm0-6.09-4.74-2V22l4.74,2Zm-4.39-7.73,4.62-2,4.61,2-1.69.71-2.92,1.24Zm9.58.34V27.4l-4.73,2V24Zm0,15.48-4.73-2V30.1l4.74,2Zm.23-5.79L47.6,30,47,29.75l4.61-1.95,4.61,1.95-1.17.5Zm5,3.79-4.73,2V32.11l4.73-2Z"></path></svg> 