<?xml version="1.0" encoding="UTF-8"?> <svg xmlns="http://www.w3.org/2000/svg" xmlns:xlink="http://www.w3.org/1999/xlink" id="Layer_1" data-name="Layer 1" viewBox="0 0 80 80"><defs><style>.cls-1{fill:#fff;fill-rule:evenodd;}.cls-2{mask:url(#mask);}.cls-3{fill:#1b54f8;}</style><mask id="mask" x="8" y="8" width="35.11" height="35.1" maskUnits="userSpaceOnUse"><g id="mask-2"><polygon id="path-1" class="cls-1" points="8 8 43.11 8 43.11 43.1 8 43.1 8 8"></polygon></g></mask></defs><g id="Assessment-Consulting"><g id="Consulting"><g id="Group-3"><g id="Fill-1-Clipped"><g class="cls-2"><path id="Fill-1" class="cls-3" d="M10.07,25.55A15.48,15.48,0,1,1,36.6,36.38a11.38,11.38,0,0,0-7.17-8.07,6.2,6.2,0,1,0-7.76,0,11.36,11.36,0,0,0-7.17,8.07A15.46,15.46,0,0,1,10.07,25.55Zm11.35-2.07a4.13,4.13,0,1,1,4.13,4.14A4.13,4.13,0,0,1,21.42,23.48ZM16.31,38a9.29,9.29,0,0,1,18.47,0,15.39,15.39,0,0,1-18.47,0Zm-2,1a17.5,17.5,0,0,0,22.58,0h.07V38.9a17.56,17.56,0,1,0-22.71,0V39Z"></path></g></g></g><path id="Fill-4" class="cls-3" d="M58.33,57.21a6.2,6.2,0,1,0-7.76,0,11.35,11.35,0,0,0-7.17,8.08,15.48,15.48,0,1,1,22.1,0,11.42,11.42,0,0,0-7.17-8.08m-8-4.83a4.13,4.13,0,1,1,4.13,4.14,4.13,4.13,0,0,1-4.13-4.14m-5.1,14.48a9.29,9.29,0,0,1,18.47,0A15.41,15.41,0,0,1,54.45,70a15.63,15.63,0,0,1-9.23-3.09M72,54.45A17.55,17.55,0,1,0,43.1,67.8v.07h.07a17.5,17.5,0,0,0,22.58,0h.08V67.8A17.53,17.53,0,0,0,72,54.45"></path><path id="Fill-6" class="cls-3" d="M62.71,34.83h2.07A19.64,19.64,0,0,0,45.17,15.22v2.07A17.56,17.56,0,0,1,62.71,34.83"></path><path id="Fill-8" class="cls-3" d="M17.29,45.17H15.23A19.64,19.64,0,0,0,34.85,64.78V62.71A17.57,17.57,0,0,1,17.29,45.17"></path></g></g></svg> 