<?xml version="1.0" encoding="UTF-8"?> <!-- Generator: Adobe Illustrator 25.2.3, SVG Export Plug-In . SVG Version: 6.00 Build 0) --> <svg xmlns="http://www.w3.org/2000/svg" xmlns:xlink="http://www.w3.org/1999/xlink" version="1.1" id="Layer_1" x="0px" y="0px" viewBox="0 0 80 80" style="enable-background:new 0 0 80 80;" xml:space="preserve"> <style type="text/css"> .st0{fill:#1B54F8;stroke:#FFFFFF;stroke-width:0.25;} </style> <desc>Created with Sketch.</desc> <g id="Blockchain_Development"> <g id="Blockchain-development" transform="translate(7.000000, 13.000000)"> <path id="Fill-1" class="st0" d="M52.1,0L38.1,8.1v5.7l-4.9-2.8l-13.9,8.1v5.9l-5.4-3.1L0,29.8v16.1L13.9,54l13.9-8.1V40l5.4,3.1 l13.9-8.1v-5.7l4.9,2.8L66,24.2V8.1L52.1,0z M41.7,8.8l10.3-6l10.3,6l-10.3,6L41.7,8.8z M53.3,16.8l10.3-6v11.9l-10.3,6L53.3,16.8 z M47.2,26.6v-7.7l-6.6-3.8v-4.3l10.3,6l0,11.9L47.2,26.6z M22.9,19.6l10.3-6l4.9,2.8v6.3l-4.9,2.8L22.9,19.6z M40.5,17.9l3,1.7 l-3,1.7V17.9z M27.9,37.2v-7.4l-6.2-3.6v-4.5l10.3,6l0,11.9L27.9,37.2z M41.8,23.5l3-1.7v3.5L41.8,23.5z M3.6,30.5l10.3-6l5.4,3.1 v5.7l-5.4,3.1L3.6,30.5z M34.4,27.7l4.9-2.8l5.4,3.1v5.7l-10.3,6L34.4,27.7z M21.7,29.1l2.5,1.5L21.7,32V29.1z M22.7,34.2l2.8-1.6 v3.2L22.7,34.2z M2.4,44.5V32.6h0l10.3,6l0,11.9L2.4,44.5z M15.1,38.6l5.1-3l5.2,3v5.9l-10.3,6L15.1,38.6z"></path> </g> </g> </svg> 