<?xml version="1.0" encoding="UTF-8"?> <svg xmlns="http://www.w3.org/2000/svg" width="80" height="80" viewBox="0 0 80 80"><g id="Group_764" data-name="Group 764" transform="translate(-2005 -423)"><rect id="Rectangle_127" data-name="Rectangle 127" width="80" height="80" transform="translate(2005 423)" fill="#f6f6f6" opacity="0"></rect><g id="Group_760" data-name="Group 760" transform="translate(-0.823 2.394)"><path id="Path_693" data-name="Path 693" d="M145.785,30.128V22.357a.971.971,0,0,0-.537-.869L137.477,17.6a.97.97,0,0,0-.869,0l-7.771,3.886a.971.971,0,0,0-.537.869v7.771a.971.971,0,0,0,.537.869l.68.34-5.336,5.179a12.6,12.6,0,0,0-15.074,0l-5.336-5.179.68-.34a.971.971,0,0,0,.537-.869V22.357a.971.971,0,0,0-.537-.869L96.677,17.6a.97.97,0,0,0-.869,0l-7.771,3.886a.971.971,0,0,0-.537.869v7.771a.971.971,0,0,0,.537.869l7.771,3.886a.97.97,0,0,0,.869,0l5.251-2.625,5.709,5.541A12.6,12.6,0,0,0,106.3,53.874l-6.349,6.163L96.678,58.4a.97.97,0,0,0-.869,0l-7.771,3.886a.971.971,0,0,0-.537.869v7.771a.971.971,0,0,0,.537.869l7.771,3.886a.97.97,0,0,0,.869,0l7.771-3.886a.971.971,0,0,0,.537-.869V63.157a.971.971,0,0,0-.537-.869l-2.661-1.33,5.746-5.577h0a12.608,12.608,0,0,0,18.218,0l5.746,5.577-2.661,1.33h0a.971.971,0,0,0-.537.869v7.771a.971.971,0,0,0,.537.869l7.771,3.886a.97.97,0,0,0,.869,0l7.771-3.886a.971.971,0,0,0,.537-.869V63.157a.971.971,0,0,0-.537-.869L137.477,58.4a.97.97,0,0,0-.869,0l-3.269,1.635-6.349-6.163A12.6,12.6,0,0,0,125.648,37.8l5.709-5.541,5.251,2.625a.97.97,0,0,0,.869,0L145.249,31a.971.971,0,0,0,.537-.869ZM96.243,19.557l5.6,2.8-5.6,2.8-5.6-2.8Zm-6.8,4.371,5.829,2.914v5.6l-5.829-2.914Zm7.771,8.513v-5.6l5.829-2.914v5.6l-.751.375-1.487-1.443-1.353,1.394,1,.97ZM89.443,64.729l5.829,2.914v5.6l-5.829-2.914Zm7.771,8.513v-5.6l5.829-2.914v5.6Zm-.971-7.286-5.6-2.8,5.6-2.8,5.6,2.8Zm34-1.228,5.829,2.914v5.6l-5.829-2.914Zm7.771,8.513v-5.6l5.829-2.914v5.6Zm-.971-12.885,5.6,2.8-5.6,2.8-5.6-2.8ZM125.574,52.5l-1.75-1.7L122.471,52.2l1.886,1.831h0a10.669,10.669,0,0,1-15.431,0l1.887-1.831L109.461,50.8l-1.75,1.7a10.686,10.686,0,1,1,17.864,0Zm11.468-32.943,5.6,2.8-5.6,2.8-5.6-2.8Zm-4.562,8.9L130.993,29.9l-.751-.375v-5.6l5.829,2.914v5.6l-3.237-1.618,1-.97Zm5.534,3.982v-5.6l5.829-2.914v5.6Z" transform="translate(1929.323 414.106)" fill="#1b54f8"></path><path id="Path_694" data-name="Path 694" d="M157.5,192.5h1.943v19.428H157.5Z" transform="translate(1867.094 258.534)" fill="#1b54f8"></path><path id="Path_695" data-name="Path 695" d="M525,192.5h1.943v19.428H525Z" transform="translate(1540.394 258.534)" fill="#1b54f8"></path><path id="Path_696" data-name="Path 696" d="M262.5,78.75h19.428v1.943H262.5Z" transform="translate(1773.751 359.656)" fill="#1b54f8"></path><path id="Path_697" data-name="Path 697" d="M262.5,463.75h19.428v1.943H262.5Z" transform="translate(1773.751 17.398)" fill="#1b54f8"></path></g></g></svg> 