<?xml version="1.0" encoding="UTF-8"?> <!-- Generator: Adobe Illustrator 25.3.1, SVG Export Plug-In . SVG Version: 6.00 Build 0) --> <svg xmlns="http://www.w3.org/2000/svg" xmlns:xlink="http://www.w3.org/1999/xlink" version="1.1" id="Layer_1" x="0px" y="0px" viewBox="0 0 80 80" style="enable-background:new 0 0 80 80;" xml:space="preserve"> <style type="text/css"> .st0{fill:#1B54F8;} </style> <path class="st0" d="M65.5,55.5L60.1,50c-0.5,0.3-1.2,0.4-1.9,0.4c-2.6,0-4.8-2.1-4.8-4.9c0-2.6,2.1-4.9,4.8-4.9 c2.6,0,4.9,2.1,4.9,4.9c0,0.7-0.1,1.3-0.4,1.9l4.4,4.4h6V18.1h-6.7l-6.2,6.2c0.3,0.5,0.4,1.2,0.4,2c0,2.6-2.1,4.9-4.9,4.9 c-2.6,0-4.8-2.1-4.8-4.9c0-2.6,2.1-4.8,4.8-4.8c0.7,0,1.3,0.1,1.9,0.4l7.3-7.3h8.2V10c0-1.5-1.2-2.8-2.8-2.8H31.3v11l5,5 c0.5-0.3,1.2-0.4,1.9-0.4c2.6,0,4.8,2.1,4.8,4.8c0,2.6-2.1,4.8-4.8,4.8c-2.6,0-4.8-2.1-4.8-4.8c0-0.7,0.1-1.3,0.4-1.9l-6.1-6.1V7.1 H9.8c-1.5,0-2.8,1.2-2.8,2.8v9.7h8.6l9,9c0.5-0.3,1.2-0.4,1.9-0.4c2.6,0,4.9,2.1,4.9,4.8s-2.1,4.9-4.9,4.9c-2.6,0-4.8-2.1-4.8-4.9 c0-0.7,0.1-1.3,0.4-1.9l-7.9-7.9H7.1v28.7h9.1l3.4-3.4c-0.3-0.5-0.4-1.2-0.4-1.9c0-2.6,2.1-4.8,4.8-4.8s4.9,2.1,4.9,4.8 s-2.1,4.8-4.8,4.8c-0.7,0-1.3-0.1-1.9-0.4l-4.5,4.5H7.1v14.8c0,1.5,1.2,2.8,2.8,2.8h18.8v-8.1c-1.7-0.7-3-2.5-3-4.5 c0-2.6,2.1-4.9,4.9-4.9s4.8,2.1,4.8,4.9c0,2-1.2,3.7-3,4.5v8.1h15.6l-5.6-5.6v-14c-1.7-0.7-3-2.5-3-4.5c0-2.6,2.1-4.9,4.8-4.9 c2.6,0,4.9,2.1,4.9,4.9c0,2-1.2,3.7-3,4.5v12.6l7,7H70c1.5,0,2.8-1.2,2.8-2.8V55.5H65.5z"></path> </svg> 