<?xml version="1.0" encoding="UTF-8"?> <!-- Generator: Adobe Illustrator 25.3.1, SVG Export Plug-In . SVG Version: 6.00 Build 0) --> <svg xmlns="http://www.w3.org/2000/svg" xmlns:xlink="http://www.w3.org/1999/xlink" version="1.1" id="Layer_1" x="0px" y="0px" viewBox="0 0 56 56" style="enable-background:new 0 0 56 56;" xml:space="preserve"> <style type="text/css"> .st0{fill:#1B54F8;} .st1{fill:none;stroke:#1B54F8;stroke-width:2;stroke-miterlimit:10;} .st2{fill:none;stroke:#1B54F8;stroke-width:1.6964;stroke-linecap:round;stroke-linejoin:round;} </style> <g> <path class="st0" d="M16.6,28c0.6,0,1.2,0.5,1.3,1.1l0.3,1.7c0.7,0.2,1.5,0.5,2.1,0.9l1.4-1c0.2-0.2,0.5-0.2,0.8-0.2 c0.3,0,0.7,0.1,0.9,0.4l1,1c0.4,0.5,0.5,1.2,0.1,1.7l-1,1.4c0.4,0.7,0.7,1.4,0.9,2.1l1.7,0.3c0.6,0.1,1.1,0.7,1.1,1.3v1.5 c0,0.6-0.5,1.2-1.1,1.3l-1.7,0.3c-0.2,0.7-0.5,1.5-0.9,2.1l1,1.4c0.4,0.5,0.3,1.2-0.1,1.7l-1,1c-0.3,0.3-0.6,0.4-0.9,0.4 c-0.3,0-0.5-0.1-0.8-0.2l-1.4-1c-0.7,0.4-1.4,0.7-2.1,0.9l-0.3,1.7c-0.1,0.6-0.7,1.1-1.3,1.1h-1.5c-0.6,0-1.2-0.5-1.3-1.1l-0.3-1.7 c-0.7-0.2-1.5-0.5-2.1-0.9l-1.4,1c-0.2,0.2-0.5,0.2-0.8,0.2c-0.3,0-0.7-0.1-0.9-0.4l-1-1c-0.5-0.5-0.5-1.2-0.1-1.7l1-1.4 c-0.4-0.7-0.7-1.4-0.9-2.1l-1.7-0.3c-0.6-0.1-1.1-0.7-1.1-1.3v-1.5c0-0.6,0.5-1.2,1.1-1.3l1.7-0.3c0.2-0.7,0.5-1.5,0.9-2.1l-1-1.4 c-0.4-0.5-0.3-1.2,0.1-1.7l1-1c0.3-0.3,0.6-0.4,0.9-0.4c0.3,0,0.5,0.1,0.8,0.2l1.4,1c0.7-0.4,1.4-0.7,2.1-0.9l0.3-1.7 c0.1-0.6,0.7-1.1,1.3-1.1H16.6 M16.6,26.3L16.6,26.3h-1.5c-1.5,0-2.7,1-3,2.5L12,29.5c-0.2,0.1-0.3,0.1-0.5,0.2l-0.6-0.4 c-0.5-0.4-1.1-0.5-1.7-0.5c-0.8,0-1.6,0.3-2.1,0.9l-1,1c-1,1-1.2,2.7-0.3,3.9l0.4,0.6C6,35.3,6,35.5,5.9,35.6l-0.7,0.1 c-1.4,0.3-2.5,1.5-2.5,3v1.5c0,1.5,1.1,2.7,2.5,3l0.7,0.1C6,43.4,6,43.6,6.1,43.8l-0.4,0.6C4.8,45.6,5,47.2,6,48.2l1,1 c0.6,0.6,1.3,0.9,2.1,0.9c0.6,0,1.2-0.2,1.7-0.6l0.6-0.4c0.2,0.1,0.3,0.1,0.5,0.2l0.1,0.7c0.3,1.4,1.5,2.5,3,2.5h1.5 c1.5,0,2.7-1,3-2.5l0.1-0.7c0.2-0.1,0.3-0.1,0.5-0.2l0.6,0.4c0.5,0.4,1.1,0.5,1.7,0.5c0.8,0,1.6-0.3,2.1-0.9l1-1 c1-1,1.2-2.7,0.3-3.9l-0.4-0.6c0.1-0.2,0.1-0.3,0.2-0.5l0.7-0.1c1.4-0.3,2.5-1.5,2.5-3v-1.5c0-1.5-1-2.7-2.5-3l-0.7-0.1 c-0.1-0.2-0.1-0.3-0.2-0.5l0.4-0.6c0.8-1.2,0.7-2.8-0.3-3.8l-1.1-1.1c-0.6-0.6-1.3-0.9-2.1-0.9c-0.6,0-1.2,0.2-1.7,0.5l-0.6,0.4 c-0.2-0.1-0.3-0.1-0.5-0.2l-0.1-0.7C19.3,27.4,18,26.3,16.6,26.3L16.6,26.3L16.6,26.3z"></path> </g> <g> <path class="st0" d="M15.8,34.6c2.7,0,4.9,2.2,4.9,4.9c0,2.7-2.2,4.9-4.9,4.9c0,0,0,0,0,0c-2.7,0-4.9-2.2-4.9-4.9 C10.9,36.7,13.1,34.6,15.8,34.6L15.8,34.6 M15.8,32.9L15.8,32.9L15.8,32.9c-3.6,0-6.6,3-6.6,6.6c0,3.6,3,6.6,6.6,6.6 c3.6,0,6.6-3,6.6-6.6c0-1.8-0.7-3.4-1.9-4.7C19.3,33.6,17.6,32.9,15.8,32.9L15.8,32.9L15.8,32.9z"></path> </g> <g> <path class="st0" d="M40.3,4.5c0.5,0,0.9,0.4,1,0.9l0.2,1.4c0.6,0.2,1.2,0.4,1.7,0.7l1.1-0.8c0.2-0.1,0.4-0.2,0.6-0.2 c0.3,0,0.5,0.1,0.7,0.3l0.8,0.8C47,8,47,8.5,46.7,9l-0.8,1.1c0.3,0.5,0.5,1.1,0.7,1.7L48,12c0.5,0.1,0.9,0.5,0.9,1v1.2 c0,0.5-0.4,0.9-0.9,1l-1.4,0.2c-0.2,0.6-0.4,1.2-0.7,1.7l0.8,1.1c0.3,0.4,0.2,1-0.1,1.4l-0.8,0.8c-0.2,0.2-0.5,0.3-0.7,0.3 c-0.2,0-0.4-0.1-0.6-0.2l-1.1-0.8c-0.5,0.3-1.1,0.5-1.7,0.7L41.4,22c-0.1,0.5-0.5,0.9-1,0.9h-1.2c-0.5,0-0.9-0.4-1-0.9l-0.2-1.4 c-0.6-0.2-1.2-0.4-1.7-0.7L35,20.7c-0.2,0.1-0.4,0.2-0.6,0.2c-0.3,0-0.5-0.1-0.7-0.3l-0.8-0.8c-0.4-0.4-0.4-0.9-0.1-1.4l0.8-1.1 c-0.3-0.5-0.5-1.1-0.7-1.7l-1.4-0.2c-0.5-0.1-0.9-0.5-0.9-1v-1.2c0-0.5,0.4-0.9,0.9-1l1.4-0.2c0.2-0.6,0.4-1.2,0.7-1.7L32.7,9 c-0.3-0.4-0.2-1,0.1-1.4l0.8-0.8c0.2-0.2,0.5-0.3,0.7-0.3c0.2,0,0.4,0.1,0.6,0.2l1.1,0.8c0.5-0.3,1.1-0.5,1.7-0.7l0.2-1.4 c0.1-0.5,0.5-0.9,1-0.9H40.3 M40.3,3.1L40.3,3.1h-1.2c-1.2,0-2.2,0.8-2.4,2l-0.1,0.6c-0.1,0.1-0.3,0.1-0.4,0.2l-0.5-0.3 c-0.4-0.3-0.9-0.4-1.4-0.4c-0.6,0-1.3,0.3-1.7,0.7l-0.8,0.8c-0.8,0.8-0.9,2.1-0.3,3.1l0.3,0.5c-0.1,0.1-0.1,0.3-0.2,0.4l-0.6,0.1 c-1.2,0.2-2,1.2-2,2.4v1.2c0,1.2,0.8,2.2,2,2.4l0.6,0.1c0.1,0.1,0.1,0.3,0.2,0.4l-0.3,0.5c-0.7,1-0.6,2.3,0.3,3.1l0.8,0.8 c0.5,0.5,1.1,0.7,1.7,0.7c0.5,0,1-0.2,1.4-0.4l0.5-0.3c0.1,0.1,0.3,0.1,0.4,0.2l0.1,0.6c0.2,1.2,1.2,2,2.4,2h1.2 c1.2,0,2.2-0.8,2.4-2l0.1-0.6c0.1-0.1,0.3-0.1,0.4-0.2l0.5,0.3c0.4,0.3,0.9,0.4,1.4,0.4c0.6,0,1.2-0.3,1.7-0.7l0.8-0.8 c0.8-0.8,0.9-2.1,0.3-3.1l-0.3-0.5c0.1-0.1,0.1-0.3,0.2-0.4l0.6-0.1c1.2-0.2,2-1.2,2-2.4v-1.2c0-1.2-0.8-2.2-2-2.4l-0.6-0.1 c-0.1-0.1-0.1-0.3-0.2-0.4l0.3-0.5c0.7-0.9,0.6-2.2-0.2-3.1l-0.9-0.9c-0.4-0.4-1.1-0.7-1.7-0.7c-0.5,0-1,0.2-1.4,0.4l-0.5,0.3 c-0.1-0.1-0.3-0.1-0.4-0.2l-0.1-0.6C42.5,4,41.5,3.2,40.3,3.1L40.3,3.1L40.3,3.1z"></path> </g> <g> <path class="st0" d="M39.8,9.7c2.2,0,3.9,1.8,3.9,3.9c0,2.2-1.8,3.9-3.9,3.9c0,0,0,0,0,0c-2.2,0-3.9-1.8-3.9-3.9 C35.8,11.5,37.6,9.7,39.8,9.7L39.8,9.7 M39.8,8.4L39.8,8.4L39.8,8.4c-2.9,0-5.3,2.4-5.3,5.3c0,2.9,2.4,5.3,5.3,5.3 c2.9,0,5.3-2.4,5.3-5.3C45,10.8,42.7,8.4,39.8,8.4L39.8,8.4L39.8,8.4z"></path> </g> <g> <g> <polyline class="st2" points="14.4,25 14.4,12.7 23.9,12.7 "></polyline> <g> <polygon class="st0" points="23.2,15.1 27.3,12.7 23.2,10.4 "></polygon> </g> </g> </g> <g> <g> <polyline class="st2" points="43.4,29.2 43.4,41.6 34,41.6 "></polyline> <g> <polygon class="st0" points="34.7,39.2 30.6,41.6 34.7,43.9 "></polygon> </g> </g> </g> </svg> 