<?xml version="1.0" encoding="UTF-8"?> <svg xmlns="http://www.w3.org/2000/svg" xmlns:xlink="http://www.w3.org/1999/xlink" width="60" height="60" viewBox="0 0 60 60"><defs><clipPath id="clip-path"><rect id="Rectangle_868" data-name="Rectangle 868" width="60" height="60" transform="translate(761 45)" fill="#fff" stroke="#707070" stroke-width="1"></rect></clipPath></defs><g id="Mask_Group_97" data-name="Mask Group 97" transform="translate(-761 -45)" clip-path="url(#clip-path)"><g id="Group_163" data-name="Group 163" transform="translate(-1083.199 -1172)"><path id="Path_223" data-name="Path 223" d="M590.161,431.477H581.5a.891.891,0,0,1-.891-.891v-5.417a7.7,7.7,0,0,1,.912-3.641,7.321,7.321,0,0,1,2.578-2.749c.172-.106.348-.206.524-.3l.116-.059c.377-.191.733-.372,1.077-.572l2.967-1.72.019-.011a1.937,1.937,0,0,1,.223-.1,2.989,2.989,0,0,1,2.64.15l1.6-5.613a4.045,4.045,0,0,1,3.322-2.9c.081-.011.134-.016.147-.017s.051,0,.076,0a2.093,2.093,0,0,1,1.584.849,3.763,3.763,0,0,1,.733,3.485l-2.963,10.473a6.676,6.676,0,0,1-1.714,2.912l-2.874,2.857a1.769,1.769,0,0,0-.526,1.262v1.12A.89.89,0,0,1,590.161,431.477Zm-7.77-1.781h6.88v-.227a3.537,3.537,0,0,1,1.051-2.525l2.874-2.857a4.893,4.893,0,0,0,1.256-2.132l2.963-10.471a1.985,1.985,0,0,0-.372-1.841.974.974,0,0,0-.24-.219,2.264,2.264,0,0,0-1.825,1.621l-1.925,6.753a3.028,3.028,0,0,1,.174.8,2.64,2.64,0,0,1-1.376,2.748l-.181.092c-.181.091-.352.178-.51.271l-3.331,1.96a.89.89,0,1,1-.9-1.535l3.331-1.957c.208-.122.413-.226.612-.326l.171-.086c.142-.073.475-.243.414-1.021a1.275,1.275,0,0,0-.119-.445c-.011-.021-.022-.041-.032-.063a1.28,1.28,0,0,0-.46-.479,1.23,1.23,0,0,0-1.127-.089l-.056.024-2.95,1.709c-.39.223-.783.425-1.164.62l-.115.056c-.132.067-.264.142-.393.223a5.747,5.747,0,0,0-2.65,4.877Z" transform="translate(1298.231 833.065)" fill="#1c54f8" stroke="#fff" stroke-width="0.4"></path><path id="Path_224" data-name="Path 224" d="M556.818,811.627H543.981a.891.891,0,0,1-.891-.891v-5.766a.89.89,0,0,1,.891-.891h12.837a.89.89,0,0,1,.89.891v5.766A.89.89,0,0,1,556.818,811.627Zm-11.946-1.781h11.056v-3.984H544.871Z" transform="translate(1333.662 458.681)" fill="#1c54f8" stroke="#fff" stroke-width="0.4"></path><path id="Path_225" data-name="Path 225" d="M101.755,431.514H93.094a.891.891,0,0,1-.891-.891v-1.118a1.769,1.769,0,0,0-.526-1.262L88.8,425.388a6.676,6.676,0,0,1-1.714-2.909L84.126,412a3.762,3.762,0,0,1,.733-3.485,2.093,2.093,0,0,1,1.584-.849.576.576,0,0,1,.076,0c.014,0,.066.006.147.017a4.045,4.045,0,0,1,3.322,2.9l1.6,5.613a2.988,2.988,0,0,1,2.639-.151,2.431,2.431,0,0,1,.223.1l.019.011,2.967,1.72c.345.2.7.381,1.078.572l.115.059c.176.09.353.189.524.3a7.321,7.321,0,0,1,2.579,2.751,7.7,7.7,0,0,1,.914,3.641v5.417a.891.891,0,0,1-.893.891Zm-7.77-1.781h6.88v-4.527a5.747,5.747,0,0,0-2.65-4.877c-.129-.08-.261-.155-.393-.223l-.115-.056c-.382-.194-.779-.4-1.164-.62L93.6,417.723c-.01,0-.028-.013-.056-.024a1.229,1.229,0,0,0-1.127.089,1.28,1.28,0,0,0-.46.479c-.01.022-.021.042-.032.063a1.275,1.275,0,0,0-.119.445c-.062.779.272.946.414,1.021l.171.086c.2.1.4.2.612.326l3.331,1.96a.89.89,0,1,1-.9,1.535l-3.331-1.96c-.158-.093-.329-.179-.51-.27l-.181-.093a2.638,2.638,0,0,1-1.376-2.748,3.029,3.029,0,0,1,.174-.8l-1.925-6.754a2.264,2.264,0,0,0-1.825-1.621.972.972,0,0,0-.24.219,1.992,1.992,0,0,0-.372,1.841L88.8,421.992a4.894,4.894,0,0,0,1.256,2.131l2.874,2.857a3.536,3.536,0,0,1,1.051,2.526Z" transform="translate(1767.222 833.027)" fill="#1c54f8" stroke="#fff" stroke-width="0.4"></path><path id="Path_226" data-name="Path 226" d="M208,811.627H195.161a.891.891,0,0,1-.891-.891v-5.766a.891.891,0,0,1,.891-.891H208a.891.891,0,0,1,.891.891v5.766A.891.891,0,0,1,208,811.627Zm-11.946-1.781h11.056v-3.984H196.051Z" transform="translate(1663.068 458.681)" fill="#1c54f8" stroke="#fff" stroke-width="0.4"></path><path id="Path_227" data-name="Path 227" d="M168.829,126.2a9.267,9.267,0,1,1,9.239-9.267A9.264,9.264,0,0,1,168.829,126.2Zm0-16.753a7.486,7.486,0,1,0,7.458,7.486A7.481,7.481,0,0,0,168.829,109.451Z" transform="translate(1695.818 1116.33)" fill="#1c54f8" stroke="#fff" stroke-width="0.4"></path><path id="Path_228" data-name="Path 228" d="M226.436,208.251a.891.891,0,0,1-.631-.262l-3.228-3.239a.891.891,0,1,1,1.261-1.257l2.6,2.606,5.825-5.844a.891.891,0,1,1,1.262,1.257l-6.456,6.478A.89.89,0,0,1,226.436,208.251Z" transform="translate(1636.597 1029.145)" fill="#1c54f8" stroke="#fff" stroke-width="0.4"></path><path id="Path_229" data-name="Path 229" d="M517.649,126.2a9.267,9.267,0,1,1,9.239-9.267A9.264,9.264,0,0,1,517.649,126.2Zm0-16.753a7.486,7.486,0,1,0,7.458,7.486A7.481,7.481,0,0,0,517.649,109.451Z" transform="translate(1366.412 1116.33)" fill="#1c54f8" stroke="#fff" stroke-width="0.4"></path><path id="Path_230" data-name="Path 230" d="M605.91,206.359a.887.887,0,0,1-.631-.262l-6.689-6.713a.89.89,0,1,1,1.261-1.257l6.689,6.713a.89.89,0,0,1-.631,1.519Z" transform="translate(1281.497 1031.155)" fill="#1c54f8" stroke="#fff" stroke-width="0.4"></path><path id="Path_231" data-name="Path 231" d="M599.226,206.357a.89.89,0,0,1-.63-1.519l6.69-6.713a.891.891,0,1,1,1.262,1.257l-6.692,6.713A.886.886,0,0,1,599.226,206.357Z" transform="translate(1281.49 1031.157)" fill="#1c54f8" stroke="#fff" stroke-width="0.4"></path></g></g></svg> 