<?xml version="1.0" encoding="UTF-8"?> <svg xmlns="http://www.w3.org/2000/svg" width="80" height="80" viewBox="0 0 80 80"><g id="Group_618" data-name="Group 618" transform="translate(-899 -2688)"><rect id="Rectangle_126" data-name="Rectangle 126" width="80" height="80" transform="translate(899 2688)" fill="#f6f6f6" opacity="0"></rect><g id="Group_614" data-name="Group 614" transform="translate(-1772.564 1440.381)"><path id="Path_604" data-name="Path 604" d="M141.536,70.541H128.091V59.647a9.373,9.373,0,0,0-.757-3.691v-.009l2.149-1.234a4.392,4.392,0,1,0,3.971-7.466V31.931a4.4,4.4,0,1,0-3.841-7.588h0L115.25,16.052a.037.037,0,0,0,0-.006,4.489,4.489,0,0,0,.206-1.336,4.4,4.4,0,1,0-8.8,0,4.552,4.552,0,0,0,.206,1.346h0L92.5,24.346l0,0a4.392,4.392,0,1,0-3.835,7.586V47.968a4.4,4.4,0,1,0,4.4,6.995L95.376,56.3a9.336,9.336,0,0,0-.615,3.35V70.541H81.321a.935.935,0,0,0,0,1.869c17.507,0,6.31,0,60.215,0a.935.935,0,1,0,0-1.869Zm-6.492-19a2.528,2.528,0,1,1-2.523-2.532A2.524,2.524,0,0,1,135.044,51.546Zm-5.055-23.931a2.537,2.537,0,1,1,0,.028Zm1.6,4.317V47.247a4.334,4.334,0,0,0-2.168,1.177l-9.344-6.906a9.165,9.165,0,0,0,.524-2.672,9.071,9.071,0,0,0-1.252-5.065l9.513-3.71a4.356,4.356,0,0,0,2.728,1.859ZM114.306,17.665l14.2,8.2a4.368,4.368,0,0,0-.382,1.782,4.123,4.123,0,0,0,.056.682l-9.98,3.9a9.113,9.113,0,0,0-6.2-2.953V19.008a4.3,4.3,0,0,0,2.314-1.343Zm4.432,21.1a7.315,7.315,0,1,1-7.317-7.644C116.846,32.084,118.891,35.162,118.738,38.762Zm-7.681-26.585a2.533,2.533,0,1,1-2.533,2.533A2.54,2.54,0,0,1,111.057,12.177ZM93.611,25.863,107.8,17.669v0a4.408,4.408,0,0,0,2.318,1.336V29.342a9.134,9.134,0,0,0-5.541,2.962l-10.6-4.392a2.513,2.513,0,0,0,.009-.271,4.326,4.326,0,0,0-.383-1.776ZM87.07,27.641A2.528,2.528,0,1,1,89.6,30.164,2.528,2.528,0,0,1,87.07,27.641ZM89.6,54.8a2.533,2.533,0,1,1,2.43-3.205A2.534,2.534,0,0,1,89.6,54.8Zm2.85-5.868a4.376,4.376,0,0,0-1.916-.962h0V31.931h0a4.414,4.414,0,0,0,2.934-2.215l9.989,4.149a9.016,9.016,0,0,0-1.205,4.149,9.263,9.263,0,0,0,.411,3.177ZM126.224,70.54H96.63V59.646a7.613,7.613,0,0,1,7.606-7.606h2.934l3.514,4.523a.944.944,0,0,0,1.476,0l3.523-4.523h2.934a7.613,7.613,0,0,1,7.606,7.606Zm.224-16.23a9.484,9.484,0,0,0-7.831-4.14h-3.392a.92.92,0,0,0-.738.364l-3.065,3.934-3.056-3.934a.921.921,0,0,0-.738-.364h-3.392a9.482,9.482,0,0,0-8.027,4.448l-2.336-1.348a4.316,4.316,0,0,0-.29-2.847l9.849-7.466a9.177,9.177,0,0,0,7.578,4.644c.14.009.29.009.43.009a9.176,9.176,0,0,0,7.821-4.382l9.148,6.765V50a4.186,4.186,0,0,0-.29,1.542,4.4,4.4,0,0,0,.309,1.616Z" transform="translate(2600.178 1246.311)" fill="#1b54f8"></path></g></g></svg> 