<?xml version="1.0" encoding="UTF-8"?> <svg xmlns="http://www.w3.org/2000/svg" xmlns:xlink="http://www.w3.org/1999/xlink" width="90" height="90" viewBox="0 0 90 90"><defs><clipPath id="clip-path"><rect id="Rectangle_10" data-name="Rectangle 10" width="90" height="90" transform="translate(803 354)" fill="#fff" stroke="#707070" stroke-width="1"></rect></clipPath></defs><g id="Mask_Group_21" data-name="Mask Group 21" transform="translate(-803 -354)" clip-path="url(#clip-path)"><g id="Group_22" data-name="Group 22" transform="translate(-35.257 95.951)"><path id="Path_96" data-name="Path 96" d="M61.167,4.526H8.82A5.17,5.17,0,0,0,3.656,9.69V44.014A5.17,5.17,0,0,0,8.82,49.178H25.805a23.5,23.5,0,0,1-1.749,8.707H20.449a3.485,3.485,0,1,0,0,6.97H48.4a3.485,3.485,0,0,0,0-6.97H44.783a23.476,23.476,0,0,1-1.872-8.707H60.028a5.17,5.17,0,0,0,5.164-5.164V8.552A4.03,4.03,0,0,0,61.167,4.526ZM8.82,6.27H61.168a2.284,2.284,0,0,1,2.281,2.282V38.9H5.4V9.69A3.424,3.424,0,0,1,8.82,6.27Zm41.321,55.1A1.742,1.742,0,0,1,48.4,63.11H20.448a1.741,1.741,0,0,1,0-3.482H48.4A1.743,1.743,0,0,1,50.141,61.369Zm-7.262-3.485H25.95a26.07,26.07,0,0,0,1.6-8.707H41.167A25.9,25.9,0,0,0,42.879,57.885ZM60.028,47.434H8.82A3.424,3.424,0,0,1,5.4,44.014V40.639H63.448v3.374A3.424,3.424,0,0,1,60.028,47.434Zm-22.372-3.4a.872.872,0,0,1-.872.872h-4.72a.872.872,0,0,1,0-1.744h4.72A.873.873,0,0,1,37.656,44.036Zm4.187-18.05h5.064a.872.872,0,0,0,.872-.872V20.051a.872.872,0,0,0-.872-.872H41.843a.872.872,0,0,0-.872.872v5.064A.872.872,0,0,0,41.843,25.987Zm.871-5.064h3.32v3.32h-3.32Zm-.871,15.014h5.064a.872.872,0,0,0,.872-.872V30a.872.872,0,0,0-.872-.872H41.843A.872.872,0,0,0,40.97,30v5.064A.872.872,0,0,0,41.843,35.937Zm.871-5.064h3.32v3.32h-3.32ZM21.942,25.987h5.064a.872.872,0,0,0,.872-.872V20.051a.872.872,0,0,0-.872-.872H21.942a.872.872,0,0,0-.872.872v5.064A.873.873,0,0,0,21.942,25.987Zm.872-5.064h3.32v3.32h-3.32ZM40.97,12.632a.872.872,0,0,1,.872-.872H43.5V10.1a.872.872,0,0,1,1.744,0v1.66h1.66a.872.872,0,1,1,0,1.744h-1.66v1.66a.872.872,0,0,1-1.744,0V13.5h-1.66A.872.872,0,0,1,40.97,12.632Zm-19.029,3.4h5.064a.872.872,0,0,0,.872-.872V10.1a.872.872,0,0,0-.872-.872H21.942a.872.872,0,0,0-.872.872v5.064A.873.873,0,0,0,21.942,16.036Zm.872-5.064h3.32v3.32h-3.32Zm-.872,24.965h5.064a.872.872,0,0,0,.872-.872V30a.872.872,0,0,0-.872-.872H21.942a.872.872,0,0,0-.872.872v5.064A.873.873,0,0,0,21.942,35.937Zm.872-5.064h3.32v3.32h-3.32Zm9.078-4.887h5.064a.872.872,0,0,0,.872-.872V20.051a.872.872,0,0,0-.872-.872H31.892a.872.872,0,0,0-.872.872v5.064A.872.872,0,0,0,31.892,25.987Zm.872-5.064h3.32v3.32h-3.32Zm-.872-4.887h5.064a.872.872,0,0,0,.872-.872V10.1a.872.872,0,0,0-.872-.872H31.892a.872.872,0,0,0-.872.872v5.064A.872.872,0,0,0,31.892,16.036Zm.872-5.064h3.32v3.32h-3.32Zm-.872,24.965h5.064a.872.872,0,0,0,.872-.872V30a.872.872,0,0,0-.872-.872H31.892A.872.872,0,0,0,31.02,30v5.064A.872.872,0,0,0,31.892,35.937Zm.872-5.064h3.32v3.32h-3.32Z" transform="translate(848.601 268.523)" fill="#1c54f8" stroke="#1c54f8" stroke-width="0.4"></path></g></g></svg> 