<?xml version="1.0" encoding="UTF-8"?> <svg xmlns="http://www.w3.org/2000/svg" xmlns:xlink="http://www.w3.org/1999/xlink" width="90" height="90" viewBox="0 0 90 90"><defs><clipPath id="clip-path"><rect id="Rectangle_2" data-name="Rectangle 2" width="90" height="90" transform="translate(342 66)" fill="#fff" stroke="#707070" stroke-width="1"></rect></clipPath></defs><g id="Mask_Group_2" data-name="Mask Group 2" transform="translate(-342 -66)" clip-path="url(#clip-path)"><g id="Group_4" data-name="Group 4" transform="translate(-104 -170)"><path id="Path_10" data-name="Path 10" d="M20.6,8.06H32.68a1.055,1.055,0,1,0,0-2.11H20.6a1.055,1.055,0,0,0,0,2.11Z" transform="translate(456.364 245.434)" fill="#1c54f8"></path><path id="Path_11" data-name="Path 11" d="M20.6,60.19H32.68a1.055,1.055,0,0,0,0-2.11H20.6a1.055,1.055,0,0,0,0,2.11Z" transform="translate(456.364 250.01)" fill="#1c54f8"></path><path id="Path_12" data-name="Path 12" d="M54.295,48.363c-.109-.228-.228-.457-.359-.674a7.079,7.079,0,0,0-1.142-1.414,6.944,6.944,0,0,0-9.79.207,6.923,6.923,0,0,0,.25,9.79,6.97,6.97,0,0,0,4.8,1.925c.218,0,.446-.011.664-.033a6.833,6.833,0,0,0,3.524-1.381,1.359,1.359,0,0,0,.131-.1,5.981,5.981,0,0,0,.674-.609,6.765,6.765,0,0,0,1.773-3.426,6.9,6.9,0,0,0-.522-4.286ZM52.75,52.247a4.752,4.752,0,0,1-1.229,2.371,4.124,4.124,0,0,1-.457.413.6.6,0,0,0-.087.065,4.6,4.6,0,0,1-2.458.968,4.863,4.863,0,0,1-5.308-4.71,4.724,4.724,0,0,1,1.327-3.426,4.785,4.785,0,0,1,3.47-1.479,4.869,4.869,0,0,1,4.144,2.317c.087.152.174.3.25.457a5.12,5.12,0,0,1,.348,1.044A5.268,5.268,0,0,1,52.75,52.247Z" transform="translate(458.256 248.805)" fill="#1c54f8"></path><path id="Path_13" data-name="Path 13" d="M66.96,52.027a1.049,1.049,0,0,0-.892-1.012L63.9,50.678c-.152-.424-.315-.838-.5-1.24-.109-.239-.218-.457-.337-.664l1.207-1.817a1.059,1.059,0,0,0-.152-1.349l-3.949-3.775a1.041,1.041,0,0,0-1.349-.087l-1.751,1.294a12.9,12.9,0,0,0-1.936-.751L54.7,40.138a1.059,1.059,0,0,0-1.033-.848H52.036V7.788A6.8,6.8,0,0,0,45.237,1H10.8A6.8,6.8,0,0,0,4,7.788V63.8a6.862,6.862,0,0,0,6.8,6.82H54.1a1.061,1.061,0,0,0,1.022-.783l.544-2.089a13.665,13.665,0,0,0,1.969-.859l1.827,1.229a1.046,1.046,0,0,0,1.349-.152l3.764-3.938a1.041,1.041,0,0,0,.087-1.349L63.359,60.9a12.988,12.988,0,0,0,.74-1.925l2.143-.424a1.056,1.056,0,0,0,.848-1.066ZM48.185,39.289a1.054,1.054,0,0,0-1.044.9l-.326,2.263a12.65,12.65,0,0,0-1.882.827l-1.827-1.218a1.059,1.059,0,0,0-1.349.152l-3.764,3.938a1.055,1.055,0,0,0-.087,1.36L39.2,49.264A13.744,13.744,0,0,0,38.45,51.2l-2.143.435a1.053,1.053,0,0,0-.848,1.055l.131,5.015H6.1V13.879H49.9v25.41ZM10.8,3.11H45.216A4.686,4.686,0,0,1,49.9,7.788v3.981H6.1V7.788A4.7,4.7,0,0,1,10.8,3.11ZM6.1,63.8V59.816H38.787a11.479,11.479,0,0,0,.718,1.577L38.3,63.22a1.059,1.059,0,0,0,.152,1.349L42.4,68.344a.933.933,0,0,0,.218.141H10.8c-.033,0-.065.022-.1.022A4.762,4.762,0,0,1,6.1,63.8Zm39.268,4.71a.867.867,0,0,0-.163-.033H43.627a1.276,1.276,0,0,0,.12-.054l.25-.185a.731.731,0,0,0,.12-.076l1.392-1.022a13.244,13.244,0,0,0,1.882.74l.076.642h-2.1ZM63.044,57.031a1.065,1.065,0,0,0-.827.794,11.445,11.445,0,0,1-1.022,2.687,1.045,1.045,0,0,0,.076,1.12l1.164,1.577-2.545,2.654-1.643-1.1a1.04,1.04,0,0,0-1.131-.022,10.8,10.8,0,0,1-2.622,1.164,1.057,1.057,0,0,0-.729.751l-.489,1.86h-3.7l-.185-1.588a1.07,1.07,0,0,0-.794-.9,11.273,11.273,0,0,1-2.687-1.044,1.064,1.064,0,0,0-1.131.076l-1.566,1.153-2.676-2.556,1.077-1.632a1.062,1.062,0,0,0,.022-1.131,11.383,11.383,0,0,1-1.164-2.622,1.042,1.042,0,0,0-.848-.74l-1.947-.3-.1-3.688,1.9-.381a1.039,1.039,0,0,0,.816-.783,10.784,10.784,0,0,1,1.044-2.687,1.042,1.042,0,0,0-.076-1.131L40.1,46.991l2.534-2.654,1.632,1.088a1.04,1.04,0,0,0,1.131.022,10.934,10.934,0,0,1,2.632-1.153,1.071,1.071,0,0,0,.751-.859l.294-2h3.688l.392,1.936a1.083,1.083,0,0,0,.794.816l.174.054a10.823,10.823,0,0,1,2.491.99,1.042,1.042,0,0,0,1.131-.076L59.313,44l2.676,2.556-1.077,1.632a1.059,1.059,0,0,0-.011,1.142c.185.3.37.642.566,1.044a10.965,10.965,0,0,1,.6,1.577,1.072,1.072,0,0,0,.848.751l1.947.3.1,3.688Z" transform="translate(455 245)" fill="#1c54f8"></path><path id="Path_14" data-name="Path 14" d="M29.975,15.93a.945.945,0,0,0-.631.218,1.075,1.075,0,0,0-.348.5L21.675,37.674a1.264,1.264,0,0,0-.065.37,1.037,1.037,0,0,0,.283.729,1.087,1.087,0,0,0,1.392.1,1.132,1.132,0,0,0,.348-.5l7.321-21.027a1.317,1.317,0,0,0,.076-.37,1.037,1.037,0,0,0-.283-.729A1.123,1.123,0,0,0,29.975,15.93Z" transform="translate(456.546 246.31)" fill="#1c54f8"></path><path id="Path_15" data-name="Path 15" d="M39.624,25.443l-7.908-3.557a1.068,1.068,0,0,0-1.142.218.984.984,0,0,0-.294.729.955.955,0,0,0,.2.587,1.029,1.029,0,0,0,.479.381l6.657,2.959-6.657,2.959a1.185,1.185,0,0,0-.479.381,1,1,0,0,0,.827,1.6,1.036,1.036,0,0,0,.413-.076l7.919-3.557a1.394,1.394,0,0,0,.609-.5,1.184,1.184,0,0,0,.228-.729v-.141a1.22,1.22,0,0,0-.228-.74A1.447,1.447,0,0,0,39.624,25.443Z" transform="translate(457.307 246.826)" fill="#1c54f8"></path><path id="Path_16" data-name="Path 16" d="M13.327,28.1l7.908,3.546h.022a1.019,1.019,0,0,0,.4.076,1.037,1.037,0,0,0,.729-.283A1.025,1.025,0,0,0,22.5,30.13a1.193,1.193,0,0,0-.479-.392L15.35,26.78l6.657-2.948a1.064,1.064,0,0,0,.479-.392.955.955,0,0,0,.2-.587,1,1,0,0,0-.294-.729,1.02,1.02,0,0,0-1.142-.218l-7.908,3.557a1.394,1.394,0,0,0-.609.5,1.194,1.194,0,0,0-.228.74v.163a1.21,1.21,0,0,0,.228.729A1.536,1.536,0,0,0,13.327,28.1Z" transform="translate(455.746 246.828)" fill="#1c54f8"></path><path id="Path_17" data-name="Path 17" d="M30.925,41.52h-20.2a1.055,1.055,0,0,0,0,2.11h20.2a1.055,1.055,0,0,0,0-2.11Z" transform="translate(455.498 248.556)" fill="#1c54f8"></path><path id="Path_18" data-name="Path 18" d="M22.93,46.76h-12.2a1.055,1.055,0,0,0,0,2.11H22.919a1.055,1.055,0,0,0,.011-2.11Z" transform="translate(455.498 249.016)" fill="#1c54f8"></path></g></g></svg> 