<?xml version="1.0" encoding="UTF-8"?> <svg xmlns="http://www.w3.org/2000/svg" id="Layer_1" data-name="Layer 1" viewBox="0 0 94 94"><defs><style>.cls-1{fill:none;stroke:#1b54f8;stroke-miterlimit:10;stroke-width:4px;}.cls-2{fill:#1b54f8;}</style></defs><circle class="cls-1" cx="47" cy="47" r="44.6"></circle><circle class="cls-2" cx="48.2" cy="31.3" r="1.4"></circle><path class="cls-2" d="M44.1,27.9a.64.64,0,0,0,0,.6l.6.6a.37.37,0,0,0,.3.1h0c.1,0,.3-.1.3-.2a3.56,3.56,0,0,1,2.9-1.4A3.46,3.46,0,0,1,51,29.1c.1.1.2.2.3.2h0a.37.37,0,0,0,.3-.1l.6-.6a.47.47,0,0,0,.1-.6,5.21,5.21,0,0,0-4.1-2.1A5.76,5.76,0,0,0,44.1,27.9Z"></path><path class="cls-2" d="M41.6,25.2c-.2.2-.1.4,0,.6l.6.6a.37.37,0,0,0,.3.1h0c.1,0,.2-.1.3-.1a7.41,7.41,0,0,1,11.1.2c.1.1.2.2.3.2h0a.37.37,0,0,0,.3-.1l.6-.6c.2-.1.2-.4,0-.6a9,9,0,0,0-13.5-.3Z"></path><path class="cls-2" d="M38.8,22.9l.6.6a.37.37,0,0,0,.3.1h0c.1,0,.2-.1.3-.1a11.8,11.8,0,0,1,8.5-3.6,11.11,11.11,0,0,1,8.3,3.9c.1.1.2.2.3.2h0a.37.37,0,0,0,.3-.1l.6-.6a.38.38,0,0,0,0-.6,13.4,13.4,0,0,0-9.5-4.5,13.13,13.13,0,0,0-9.7,4C38.6,22.5,38.6,22.7,38.8,22.9Z"></path><path class="cls-2" d="M49.7,56.8a5.61,5.61,0,1,1,6-5.2,5.53,5.53,0,0,1-4.3,5,16.57,16.57,0,0,0,4.7,8.2L66.5,54A12.27,12.27,0,1,0,48.8,37l-.4.4-.5-.5a12.1,12.1,0,0,0-17.3-.1,12.31,12.31,0,0,0-.1,17.4h0L48.7,72.6,55,66A17.92,17.92,0,0,1,49.7,56.8Z"></path></svg> 