<?xml version="1.0" encoding="UTF-8"?> <svg xmlns="http://www.w3.org/2000/svg" width="92" height="69" viewBox="0 0 92 69" fill="none"><path d="M11.2 54.7C11.2 54.1 11.7 53.6 12.3 53.6H18.3C18.9 53.6 19.4 54 19.4 54.6C19.4 55.2 19 55.7 18.4 55.7C18.4 55.7 18.4 55.7 18.3 55.7H12.3C11.7 55.7 11.2 55.3 11.2 54.7ZM38.2 53.6H25.6C25 53.6 24.5 54 24.5 54.6C24.5 55.2 24.9 55.7 25.5 55.7C25.5 55.7 25.5 55.7 25.6 55.7H38.2C38.8 55.7 39.3 55.2 39.2 54.6C39.2 54.1 38.8 53.6 38.2 53.6ZM38.2 59.6H32.2C31.6 59.6 31.1 60.1 31.1 60.7C31.1 61.3 31.6 61.8 32.2 61.8H38.2C38.8 61.8 39.3 61.3 39.3 60.7C39.3 60 38.8 59.6 38.2 59.6ZM24.8 59.6H12.2C11.6 59.6 11.1 60.1 11.1 60.7C11.1 61.3 11.6 61.8 12.2 61.8H24.8C25.4 61.8 25.9 61.3 25.9 60.7C25.9 60 25.4 59.6 24.8 59.6ZM55.2 51.7V60.6C55.2 61.2 54.7 61.7 54.1 61.7H49.4C48.8 61.7 48.3 61.2 48.3 60.6V51.7C48.3 51.1 48.8 50.6 49.4 50.6H54.1C54.7 50.7 55.2 51.1 55.2 51.7ZM53 52.8H50.4V59.6H53V52.8ZM64.5 42.9V60.7C64.5 61.3 64 61.8 63.4 61.8H58.7C58.1 61.8 57.6 61.3 57.6 60.7V42.9C57.6 42.3 58.1 41.8 58.7 41.8H63.4C64 41.8 64.5 42.3 64.5 42.9ZM62.4 44H59.8V59.6H62.4V44ZM73.9 44.9V60.6C73.9 61.2 73.4 61.7 72.8 61.7H68.1C67.5 61.7 67 61.2 67 60.6V44.9C67 44.3 67.5 43.8 68.1 43.8H72.8C73.4 43.9 73.9 44.3 73.9 44.9ZM71.7 46H69.1V59.5H71.7V46ZM91 2.20001V67.5C91 68.1 90.5 68.6 89.9 68.6H2.09999C1.49999 68.6 1 68.1 1 67.5V2.10001C1 1.50001 1.49999 1 2.09999 1H89.9C90.5 1.1 91 1.60001 91 2.20001ZM3.09999 3.29999V15.2H88.8V3.29999H3.09999ZM88.8 66.5V17.3H3.09999V66.5H88.8ZM76.4 9.20001C76.4 7.30001 77.9 5.79999 79.8 5.79999C81.7 5.79999 83.2 7.30001 83.2 9.20001C83.2 11.1 81.7 12.6 79.8 12.6C77.9 12.5 76.4 11 76.4 9.20001ZM78.5 9.20001C78.5 9.90001 79 10.4 79.7 10.4C80.4 10.4 80.9 9.90001 80.9 9.20001C80.9 8.50001 80.4 8 79.7 8C79.1 8 78.5 8.50001 78.5 9.20001ZM66.1 9.20001C66.1 7.30001 67.6 5.79999 69.5 5.79999C71.4 5.79999 72.9 7.30001 72.9 9.20001C72.9 11.1 71.4 12.6 69.5 12.6C67.6 12.5 66.1 11 66.1 9.20001ZM68.2 9.20001C68.2 9.90001 68.7 10.4 69.4 10.4C70.1 10.4 70.6 9.90001 70.6 9.20001C70.6 8.50001 70.1 8 69.4 8C68.8 8 68.2 8.50001 68.2 9.20001ZM55.8 9.20001C55.8 7.30001 57.3 5.79999 59.2 5.79999C61.1 5.79999 62.6 7.30001 62.6 9.20001C62.6 11.1 61.1 12.6 59.2 12.6C57.3 12.5 55.8 11 55.8 9.20001ZM57.9 9.20001C57.9 9.90001 58.4 10.4 59.1 10.4C59.8 10.4 60.3 9.90001 60.3 9.20001C60.3 8.50001 59.8 8 59.1 8C58.5 8 57.9 8.50001 57.9 9.20001ZM8.89999 11.5V6.89999C8.89999 6.29999 9.4 5.79999 10 5.79999H50.2C50.8 5.79999 51.3 6.29999 51.3 6.89999V11.5C51.3 12.1 50.8 12.6 50.2 12.6H9.89999C9.29999 12.6 8.89999 12.1 8.89999 11.5ZM11 10.4H49.1V8H11V10.4ZM39.3 33.2V38.2C39.3 38.7 38.9 39.2 38.4 39.3L36.7 39.6C36.5 40.1 36.3 40.6 36.1 41.1L37 42.5C37.3 42.9 37.2 43.5 36.9 43.9L33.4 47.4C33 47.8 32.5 47.8 32 47.5L30.6 46.6C30.1 46.8 29.6 47.1 29.1 47.2L28.8 48.9C28.7 49.4 28.3 49.8 27.7 49.8H22.7C22.2 49.8 21.7 49.4 21.6 48.9L21.3 47.2C20.8 47 20.3 46.8 19.8 46.6L18.4 47.5C18 47.8 17.4 47.7 17 47.4L13.5 43.9C13.1 43.5 13.1 43 13.4 42.5L14.3 41.1C14.1 40.6 13.8 40.1 13.7 39.6L12 39.3C11.5 39.2 11.1 38.8 11.1 38.2V33.2C11.1 32.7 11.5 32.2 12 32.1L13.7 31.8C13.9 31.3 14.1 30.8 14.3 30.3L13.4 28.9C13.1 28.5 13.2 27.9 13.5 27.5L17 24C17.4 23.6 17.9 23.6 18.4 23.9L19.8 24.8C20.3 24.6 20.8 24.3 21.3 24.2L21.6 22.5C21.7 22 22.1 21.6 22.7 21.6H27.7C28.2 21.6 28.7 22 28.8 22.5L29.1 24.2C29.6 24.4 30.1 24.6 30.6 24.8L32 23.9C32.4 23.6 33 23.7 33.4 24L36.9 27.5C37.3 27.9 37.3 28.4 37 28.9L36.1 30.3C36.3 30.8 36.6 31.3 36.7 31.8L38.4 32.1C38.9 32.2 39.3 32.6 39.3 33.2ZM37.1 34L35.7 33.7C35.3 33.6 35 33.3 34.9 32.9C34.7 32.1 34.4 31.3 34 30.6C33.8 30.2 33.8 29.8 34 29.5L34.8 28.3L32.5 26L31.3 26.8C31 27 30.5 27 30.2 26.8C29.5 26.4 28.7 26.1 27.9 25.9C27.5 25.8 27.2 25.5 27.1 25.1L26.8 23.7H23.6L23.3 25.1C23.2 25.5 22.9 25.8 22.5 25.9C21.7 26.1 20.9 26.4 20.2 26.8C19.8 27 19.4 27 19.1 26.8L17.9 26L15.6 28.3L16.4 29.5C16.6 29.8 16.6 30.3 16.4 30.6C16 31.3 15.7 32.1 15.5 32.9C15.4 33.3 15.1 33.6 14.7 33.7L13.3 34V37.2L14.7 37.5C15.1 37.6 15.4 37.9 15.5 38.3C15.7 39.1 16 39.9 16.4 40.6C16.6 41 16.6 41.4 16.4 41.7L15.6 42.9L17.9 45.2L19.1 44.4C19.4 44.2 19.9 44.2 20.2 44.4C20.9 44.8 21.7 45.1 22.5 45.3C22.9 45.4 23.2 45.7 23.3 46.1L23.6 47.5H26.8L27.1 46.1C27.2 45.7 27.5 45.4 27.9 45.3C28.7 45.1 29.5 44.8 30.2 44.4C30.6 44.2 31 44.2 31.3 44.4L32.5 45.2L34.8 42.9L34 41.7C33.8 41.4 33.8 40.9 34 40.6C34.4 39.9 34.7 39.1 34.9 38.3C35 37.9 35.3 37.6 35.7 37.5L37.1 37.2V34ZM31.6 35.7C31.6 39.2 28.7 42.1 25.2 42.1C21.7 42.1 18.8 39.2 18.8 35.7C18.8 32.2 21.7 29.3 25.2 29.3C28.7 29.3 31.6 32.1 31.6 35.7ZM29.5 35.7C29.5 33.4 27.6 31.5 25.3 31.5C23 31.5 21.1 33.4 21.1 35.7C21.1 38 23 39.9 25.3 39.9C27.6 39.9 29.5 38 29.5 35.7ZM83.2 35.7V60.7C83.2 61.3 82.7 61.8 82.1 61.8H77.4C76.8 61.8 76.3 61.3 76.3 60.7V35.7C76.3 35.1 76.8 34.6 77.4 34.6H82.1C82.7 34.6 83.2 35.1 83.2 35.7ZM81 36.7H78.4V59.5H81V36.7ZM71.8 32.2L76.8 27.3C76 25.7 76.7 23.7 78.3 22.9C79.9 22.1 81.9 22.8 82.7 24.4C83.5 26 82.8 28 81.2 28.8C80.3 29.2 79.2 29.2 78.3 28.8L73.3 33.7C73.5 34.1 73.6 34.6 73.6 35.1C73.6 36.9 72.1 38.4 70.3 38.4C68.6 38.4 67.2 37.2 67.1 35.5L63.8 34.8C62.9 36.3 61 36.8 59.5 36L54.6 40.6C55.3 42.2 54.6 44.2 53 44.9C51.4 45.6 49.4 44.9 48.7 43.3C48 41.7 48.7 39.7 50.3 39C51.2 38.6 52.3 38.6 53.1 39.1L58 34.5C57.8 34.1 57.7 33.6 57.7 33.2C57.7 31.4 59.2 29.9 61 29.9C62.7 29.9 64.1 31.1 64.2 32.8L67.5 33.5C68.5 32 70.3 31.5 71.8 32.2ZM52.8 41.9C52.8 41.3 52.3 40.8 51.7 40.8C51.1 40.8 50.6 41.3 50.6 41.9C50.6 42.5 51.1 43 51.7 43C52.3 43 52.8 42.5 52.8 41.9C52.9 41.9 52.9 41.9 52.8 41.9ZM62.2 33.1C62.2 32.5 61.7 32 61.1 32C60.5 32 60 32.5 60 33.1C60 33.7 60.5 34.2 61.1 34.2C61.7 34.2 62.2 33.7 62.2 33.1ZM71.5 35.1C71.5 34.5 71 34 70.4 34C69.8 34 69.3 34.5 69.3 35.1C69.3 35.7 69.8 36.2 70.4 36.2C71 36.2 71.5 35.7 71.5 35.1ZM78.7 25.9C78.7 26.5 79.2 27 79.8 27C80.4 27 80.9 26.5 80.9 25.9C80.9 25.3 80.4 24.8 79.8 24.8C79.1 24.7 78.7 25.2 78.7 25.9ZM67.6 23.8C68.2 23.8 68.7 23.4 68.7 22.8C68.7 22.2 68.3 21.7 67.7 21.7C67.7 21.7 67.7 21.7 67.6 21.7H48.4C47.8 21.7 47.3 22.1 47.3 22.7C47.3 23.3 47.7 23.8 48.3 23.8C48.3 23.8 48.3 23.8 48.4 23.8H67.6Z" fill="#1B54F8"></path><path d="M52.8 41.9C52.8 41.3 52.3 40.8 51.7 40.8C51.1 40.8 50.6 41.3 50.6 41.9C50.6 42.5 51.1 43 51.7 43C52.3 43 52.8 42.5 52.8 41.9ZM52.8 41.9C52.9 41.9 52.9 41.9 52.8 41.9ZM11.2 54.7C11.2 54.1 11.7 53.6 12.3 53.6H18.3C18.9 53.6 19.4 54 19.4 54.6C19.4 55.2 19 55.7 18.4 55.7C18.4 55.7 18.4 55.7 18.3 55.7H12.3C11.7 55.7 11.2 55.3 11.2 54.7ZM38.2 53.6H25.6C25 53.6 24.5 54 24.5 54.6C24.5 55.2 24.9 55.7 25.5 55.7C25.5 55.7 25.5 55.7 25.6 55.7H38.2C38.8 55.7 39.3 55.2 39.2 54.6C39.2 54.1 38.8 53.6 38.2 53.6ZM38.2 59.6H32.2C31.6 59.6 31.1 60.1 31.1 60.7C31.1 61.3 31.6 61.8 32.2 61.8H38.2C38.8 61.8 39.3 61.3 39.3 60.7C39.3 60 38.8 59.6 38.2 59.6ZM24.8 59.6H12.2C11.6 59.6 11.1 60.1 11.1 60.7C11.1 61.3 11.6 61.8 12.2 61.8H24.8C25.4 61.8 25.9 61.3 25.9 60.7C25.9 60 25.4 59.6 24.8 59.6ZM55.2 51.7V60.6C55.2 61.2 54.7 61.7 54.1 61.7H49.4C48.8 61.7 48.3 61.2 48.3 60.6V51.7C48.3 51.1 48.8 50.6 49.4 50.6H54.1C54.7 50.7 55.2 51.1 55.2 51.7ZM53 52.8H50.4V59.6H53V52.8ZM64.5 42.9V60.7C64.5 61.3 64 61.8 63.4 61.8H58.7C58.1 61.8 57.6 61.3 57.6 60.7V42.9C57.6 42.3 58.1 41.8 58.7 41.8H63.4C64 41.8 64.5 42.3 64.5 42.9ZM62.4 44H59.8V59.6H62.4V44ZM73.9 44.9V60.6C73.9 61.2 73.4 61.7 72.8 61.7H68.1C67.5 61.7 67 61.2 67 60.6V44.9C67 44.3 67.5 43.8 68.1 43.8H72.8C73.4 43.9 73.9 44.3 73.9 44.9ZM71.7 46H69.1V59.5H71.7V46ZM91 2.20001V67.5C91 68.1 90.5 68.6 89.9 68.6H2.09999C1.49999 68.6 1 68.1 1 67.5V2.10001C1 1.50001 1.49999 1 2.09999 1H89.9C90.5 1.1 91 1.60001 91 2.20001ZM3.09999 3.29999V15.2H88.8V3.29999H3.09999ZM88.8 66.5V17.3H3.09999V66.5H88.8ZM76.4 9.20001C76.4 7.30001 77.9 5.79999 79.8 5.79999C81.7 5.79999 83.2 7.30001 83.2 9.20001C83.2 11.1 81.7 12.6 79.8 12.6C77.9 12.5 76.4 11 76.4 9.20001ZM78.5 9.20001C78.5 9.90001 79 10.4 79.7 10.4C80.4 10.4 80.9 9.90001 80.9 9.20001C80.9 8.50001 80.4 8 79.7 8C79.1 8 78.5 8.50001 78.5 9.20001ZM66.1 9.20001C66.1 7.30001 67.6 5.79999 69.5 5.79999C71.4 5.79999 72.9 7.30001 72.9 9.20001C72.9 11.1 71.4 12.6 69.5 12.6C67.6 12.5 66.1 11 66.1 9.20001ZM68.2 9.20001C68.2 9.90001 68.7 10.4 69.4 10.4C70.1 10.4 70.6 9.90001 70.6 9.20001C70.6 8.50001 70.1 8 69.4 8C68.8 8 68.2 8.50001 68.2 9.20001ZM55.8 9.20001C55.8 7.30001 57.3 5.79999 59.2 5.79999C61.1 5.79999 62.6 7.30001 62.6 9.20001C62.6 11.1 61.1 12.6 59.2 12.6C57.3 12.5 55.8 11 55.8 9.20001ZM57.9 9.20001C57.9 9.90001 58.4 10.4 59.1 10.4C59.8 10.4 60.3 9.90001 60.3 9.20001C60.3 8.50001 59.8 8 59.1 8C58.5 8 57.9 8.50001 57.9 9.20001ZM8.89999 11.5V6.89999C8.89999 6.29999 9.4 5.79999 10 5.79999H50.2C50.8 5.79999 51.3 6.29999 51.3 6.89999V11.5C51.3 12.1 50.8 12.6 50.2 12.6H9.89999C9.29999 12.6 8.89999 12.1 8.89999 11.5ZM11 10.4H49.1V8H11V10.4ZM39.3 33.2V38.2C39.3 38.7 38.9 39.2 38.4 39.3L36.7 39.6C36.5 40.1 36.3 40.6 36.1 41.1L37 42.5C37.3 42.9 37.2 43.5 36.9 43.9L33.4 47.4C33 47.8 32.5 47.8 32 47.5L30.6 46.6C30.1 46.8 29.6 47.1 29.1 47.2L28.8 48.9C28.7 49.4 28.3 49.8 27.7 49.8H22.7C22.2 49.8 21.7 49.4 21.6 48.9L21.3 47.2C20.8 47 20.3 46.8 19.8 46.6L18.4 47.5C18 47.8 17.4 47.7 17 47.4L13.5 43.9C13.1 43.5 13.1 43 13.4 42.5L14.3 41.1C14.1 40.6 13.8 40.1 13.7 39.6L12 39.3C11.5 39.2 11.1 38.8 11.1 38.2V33.2C11.1 32.7 11.5 32.2 12 32.1L13.7 31.8C13.9 31.3 14.1 30.8 14.3 30.3L13.4 28.9C13.1 28.5 13.2 27.9 13.5 27.5L17 24C17.4 23.6 17.9 23.6 18.4 23.9L19.8 24.8C20.3 24.6 20.8 24.3 21.3 24.2L21.6 22.5C21.7 22 22.1 21.6 22.7 21.6H27.7C28.2 21.6 28.7 22 28.8 22.5L29.1 24.2C29.6 24.4 30.1 24.6 30.6 24.8L32 23.9C32.4 23.6 33 23.7 33.4 24L36.9 27.5C37.3 27.9 37.3 28.4 37 28.9L36.1 30.3C36.3 30.8 36.6 31.3 36.7 31.8L38.4 32.1C38.9 32.2 39.3 32.6 39.3 33.2ZM37.1 34L35.7 33.7C35.3 33.6 35 33.3 34.9 32.9C34.7 32.1 34.4 31.3 34 30.6C33.8 30.2 33.8 29.8 34 29.5L34.8 28.3L32.5 26L31.3 26.8C31 27 30.5 27 30.2 26.8C29.5 26.4 28.7 26.1 27.9 25.9C27.5 25.8 27.2 25.5 27.1 25.1L26.8 23.7H23.6L23.3 25.1C23.2 25.5 22.9 25.8 22.5 25.9C21.7 26.1 20.9 26.4 20.2 26.8C19.8 27 19.4 27 19.1 26.8L17.9 26L15.6 28.3L16.4 29.5C16.6 29.8 16.6 30.3 16.4 30.6C16 31.3 15.7 32.1 15.5 32.9C15.4 33.3 15.1 33.6 14.7 33.7L13.3 34V37.2L14.7 37.5C15.1 37.6 15.4 37.9 15.5 38.3C15.7 39.1 16 39.9 16.4 40.6C16.6 41 16.6 41.4 16.4 41.7L15.6 42.9L17.9 45.2L19.1 44.4C19.4 44.2 19.9 44.2 20.2 44.4C20.9 44.8 21.7 45.1 22.5 45.3C22.9 45.4 23.2 45.7 23.3 46.1L23.6 47.5H26.8L27.1 46.1C27.2 45.7 27.5 45.4 27.9 45.3C28.7 45.1 29.5 44.8 30.2 44.4C30.6 44.2 31 44.2 31.3 44.4L32.5 45.2L34.8 42.9L34 41.7C33.8 41.4 33.8 40.9 34 40.6C34.4 39.9 34.7 39.1 34.9 38.3C35 37.9 35.3 37.6 35.7 37.5L37.1 37.2V34ZM31.6 35.7C31.6 39.2 28.7 42.1 25.2 42.1C21.7 42.1 18.8 39.2 18.8 35.7C18.8 32.2 21.7 29.3 25.2 29.3C28.7 29.3 31.6 32.1 31.6 35.7ZM29.5 35.7C29.5 33.4 27.6 31.5 25.3 31.5C23 31.5 21.1 33.4 21.1 35.7C21.1 38 23 39.9 25.3 39.9C27.6 39.9 29.5 38 29.5 35.7ZM83.2 35.7V60.7C83.2 61.3 82.7 61.8 82.1 61.8H77.4C76.8 61.8 76.3 61.3 76.3 60.7V35.7C76.3 35.1 76.8 34.6 77.4 34.6H82.1C82.7 34.6 83.2 35.1 83.2 35.7ZM81 36.7H78.4V59.5H81V36.7ZM71.8 32.2L76.8 27.3C76 25.7 76.7 23.7 78.3 22.9C79.9 22.1 81.9 22.8 82.7 24.4C83.5 26 82.8 28 81.2 28.8C80.3 29.2 79.2 29.2 78.3 28.8L73.3 33.7C73.5 34.1 73.6 34.6 73.6 35.1C73.6 36.9 72.1 38.4 70.3 38.4C68.6 38.4 67.2 37.2 67.1 35.5L63.8 34.8C62.9 36.3 61 36.8 59.5 36L54.6 40.6C55.3 42.2 54.6 44.2 53 44.9C51.4 45.6 49.4 44.9 48.7 43.3C48 41.7 48.7 39.7 50.3 39C51.2 38.6 52.3 38.6 53.1 39.1L58 34.5C57.8 34.1 57.7 33.6 57.7 33.2C57.7 31.4 59.2 29.9 61 29.9C62.7 29.9 64.1 31.1 64.2 32.8L67.5 33.5C68.5 32 70.3 31.5 71.8 32.2ZM62.2 33.1C62.2 32.5 61.7 32 61.1 32C60.5 32 60 32.5 60 33.1C60 33.7 60.5 34.2 61.1 34.2C61.7 34.2 62.2 33.7 62.2 33.1ZM71.5 35.1C71.5 34.5 71 34 70.4 34C69.8 34 69.3 34.5 69.3 35.1C69.3 35.7 69.8 36.2 70.4 36.2C71 36.2 71.5 35.7 71.5 35.1ZM78.7 25.9C78.7 26.5 79.2 27 79.8 27C80.4 27 80.9 26.5 80.9 25.9C80.9 25.3 80.4 24.8 79.8 24.8C79.1 24.7 78.7 25.2 78.7 25.9ZM67.6 23.8C68.2 23.8 68.7 23.4 68.7 22.8C68.7 22.2 68.3 21.7 67.7 21.7C67.7 21.7 67.7 21.7 67.6 21.7H48.4C47.8 21.7 47.3 22.1 47.3 22.7C47.3 23.3 47.7 23.8 48.3 23.8C48.3 23.8 48.3 23.8 48.4 23.8H67.6Z" stroke="#1B54F8" stroke-width="0.25" stroke-miterlimit="10"></path></svg> 