<?xml version="1.0" encoding="UTF-8"?> <svg xmlns="http://www.w3.org/2000/svg" xmlns:xlink="http://www.w3.org/1999/xlink" width="90" height="90" viewBox="0 0 90 90"><defs><clipPath id="clip-path"><rect id="Rectangle_18" data-name="Rectangle 18" width="90" height="90" transform="translate(541 498)" fill="#fff" stroke="#707070" stroke-width="1"></rect></clipPath></defs><g id="Mask_Group_11" data-name="Mask Group 11" transform="translate(-541 -498)" clip-path="url(#clip-path)"><g id="Group_27" data-name="Group 27" transform="translate(-127.72 57)"><g id="Group_26" data-name="Group 26" transform="translate(674.72 460)"><path id="Path_35" data-name="Path 35" d="M457.107,441.123h7.932a1.02,1.02,0,0,0,1-1.22c-.958-4.737-3.932-7.389-8.83-7.872a1,1,0,0,0-.78.254,1.02,1.02,0,0,0-.33.754v7.067A1.007,1.007,0,0,0,457.107,441.123Zm1.017-6.915a6.738,6.738,0,0,1,5.6,4.873h-5.6Z" transform="translate(-429.651 -419.819)" fill="#1c54f8"></path><path id="Path_36" data-name="Path 36" d="M333.355,442.136H323.186v-9.1a1.02,1.02,0,0,0-.33-.754.976.976,0,0,0-.78-.254,11.184,11.184,0,1,0,12.3,11.127A1.02,1.02,0,0,0,333.355,442.136ZM323.186,452.3a9.152,9.152,0,0,1-2.034-18.075v8.923a1.02,1.02,0,0,0,1.017,1.017h10.109A9.158,9.158,0,0,1,323.186,452.3Z" transform="translate(-297.764 -419.815)" fill="#1c54f8"></path><path id="Path_37" data-name="Path 37" d="M301.017,338.217a1.013,1.013,0,1,0-.72-.3A1.058,1.058,0,0,0,301.017,338.217Z" transform="translate(-286.781 -332.116)" fill="#1c54f8"></path><path id="Path_38" data-name="Path 38" d="M349.017,338.217a1.013,1.013,0,1,0-.72-.3A1.058,1.058,0,0,0,349.017,338.217Z" transform="translate(-330.713 -332.116)" fill="#1c54f8"></path><path id="Path_39" data-name="Path 39" d="M397.017,338.217a1.013,1.013,0,1,0-.72-.3A1.058,1.058,0,0,0,397.017,338.217Z" transform="translate(-374.645 -332.116)" fill="#1c54f8"></path><path id="Path_40" data-name="Path 40" d="M221.08,339.251l-8.949-11.932v-38.3A1.02,1.02,0,0,0,211.115,288H154.169a1.02,1.02,0,0,0-1.017,1.017v38.3L144.2,339.251a1.018,1.018,0,0,0,.814,1.627h75.25a1.021,1.021,0,0,0,.907-.559A1.033,1.033,0,0,0,221.08,339.251Zm-65.894-42.1H210.1v29.49H155.186Zm54.912-7.118v5.084H155.186v-5.084Zm-63.047,48.811,7.627-10.169h55.929l7.627,10.169Z" transform="translate(-144 -288)" fill="#1c54f8"></path><path id="Path_41" data-name="Path 41" d="M529.22,840h-12.2a1.017,1.017,0,1,0,0,2.034h12.2a1.017,1.017,0,0,0,0-2.034Z" transform="translate(-484.476 -793.223)" fill="#1c54f8"></path><path id="Path_42" data-name="Path 42" d="M378.709,792H337.017a1.017,1.017,0,1,0,0,2.034h41.692a1.017,1.017,0,1,0,0-2.034Z" transform="translate(-319.73 -749.291)" fill="#1c54f8"></path><path id="Path_43" data-name="Path 43" d="M625.017,588A1.02,1.02,0,0,0,624,589.017v8.135a1.017,1.017,0,0,0,2.034,0v-8.135A1.02,1.02,0,0,0,625.017,588Z" transform="translate(-583.325 -562.578)" fill="#1c54f8"></path><path id="Path_44" data-name="Path 44" d="M685.017,552A1.02,1.02,0,0,0,684,553.017V564.2a1.017,1.017,0,0,0,2.034,0V553.017A1.02,1.02,0,0,0,685.017,552Z" transform="translate(-638.24 -529.629)" fill="#1c54f8"></path><path id="Path_45" data-name="Path 45" d="M745.017,588A1.02,1.02,0,0,0,744,589.017v8.135a1.017,1.017,0,0,0,2.034,0v-8.135A1.02,1.02,0,0,0,745.017,588Z" transform="translate(-693.156 -562.578)" fill="#1c54f8"></path><path id="Path_46" data-name="Path 46" d="M805.017,552A1.02,1.02,0,0,0,804,553.017V564.2a1.017,1.017,0,0,0,2.034,0V553.017A1.02,1.02,0,0,0,805.017,552Z" transform="translate(-748.071 -529.629)" fill="#1c54f8"></path><path id="Path_47" data-name="Path 47" d="M865.017,516A1.02,1.02,0,0,0,864,517.017v14.237a1.017,1.017,0,0,0,2.034,0V517.017A1.02,1.02,0,0,0,865.017,516Z" transform="translate(-802.987 -496.679)" fill="#1c54f8"></path><path id="Path_48" data-name="Path 48" d="M635.289,420.561a1.126,1.126,0,0,0-.11-.195,1,1,0,0,0-.076-.127c-.008-.008-.017-.008-.017-.017a.75.75,0,0,0-.186-.136.766.766,0,0,0-.136-.093.987.987,0,0,0-.169-.042,1,1,0,0,0-.22-.042c-.008,0-.017-.008-.025-.008H631.3a1.017,1.017,0,0,0,0,2.034h.4l-7.483,6.737-4.4-4.407a1.018,1.018,0,0,0-1.44,0l-6.1,6.1a1.017,1.017,0,0,0,.72,1.737,1.036,1.036,0,0,0,.721-.3l5.381-5.372,4.364,4.364a1.014,1.014,0,0,0,1.4.034l8.474-7.627v.771a1.017,1.017,0,0,0,2.034,0v-3.051c0-.051-.025-.093-.025-.144A1.035,1.035,0,0,0,635.289,420.561Z" transform="translate(-572.319 -408.723)" fill="#1c54f8"></path></g></g></g></svg> 