<?xml version="1.0" encoding="UTF-8"?> <svg xmlns="http://www.w3.org/2000/svg" id="Layer_1" data-name="Layer 1" viewBox="0 0 80 80"><defs><style>.cls-1,.cls-2{fill:#1b54f8;}.cls-2{fill-rule:evenodd;}</style></defs><g id="Custom-ERP-Solutions"><g id="Group-29"><path id="Path" class="cls-1" d="M73.17,8.74a1,1,0,0,0-1.34-1.48l-10.3,9.36-3.32-3.33a1,1,0,0,0-1.39,0l-6.5,6a1,1,0,1,0,1.36,1.46l5.79-5.34,3.32,3.32a1,1,0,0,0,1.38,0Z"></path><path id="Shape" class="cls-2" d="M35.23,15.78a4,4,0,0,0,1.06-2.69,4.29,4.29,0,0,0-8.58,0,4,4,0,0,0,1.06,2.69,3.2,3.2,0,0,0-.39.16l-.1.05A4,4,0,0,0,26,19.6V25a2,2,0,0,0,2,2h8a2,2,0,0,0,2-2V19.6A4,4,0,0,0,35.72,16l-.1-.05A3.2,3.2,0,0,0,35.23,15.78Zm-.94-2.69a2.3,2.3,0,0,1-4.58,0,2.3,2.3,0,0,1,4.58,0ZM36,19.6V25H28V19.6a2,2,0,0,1,1.14-1.81l.1-.05a2,2,0,0,1,.87-.19h3.78a2,2,0,0,1,.87.19l.1.05A2,2,0,0,1,36,19.6Z"></path><path id="Shape-2" data-name="Shape" class="cls-2" d="M8,25a4,4,0,0,1,4-4H22a1,1,0,0,0,0-2H12a6,6,0,0,0-6,6V59a6,6,0,0,0,6,6H32.14l-1.28,3H30a2,2,0,0,0-2,2v2a2,2,0,0,0,2,2H50a2,2,0,0,0,2-2V70a2,2,0,0,0-2-2h-.71l-1.08-3H66a6,6,0,0,0,6-6V36.5a1,1,0,0,0-2,0V59a4,4,0,0,1-4,4H12a4,4,0,0,1-4-4ZM46.09,65H34.32L33,68H47.16ZM30,70H50v2H30Z"></path><path id="Path-2" data-name="Path" class="cls-1" d="M42,19a1,1,0,0,0,0,2h4.5a1,1,0,0,0,0-2Z"></path><path id="Shape-3" data-name="Shape" class="cls-2" d="M50.23,45.78a4,4,0,0,0,1.06-2.69,4.29,4.29,0,0,0-8.58,0,4,4,0,0,0,1.06,2.69,3.2,3.2,0,0,0-.39.16l-.1.05A4,4,0,0,0,41,49.6V55a2,2,0,0,0,2,2h8a2,2,0,0,0,2-2V49.6A4,4,0,0,0,50.72,46l-.1-.05A3.2,3.2,0,0,0,50.23,45.78Zm-.94-2.69A2.3,2.3,0,1,1,47,41,2.2,2.2,0,0,1,49.29,43.09ZM51,49.6V55H43V49.6a2,2,0,0,1,1.14-1.81l.1,0a2,2,0,0,1,.87-.19h3.78a2,2,0,0,1,.87.19l.1,0A2,2,0,0,1,51,49.6Z"></path><path id="Shape-4" data-name="Shape" class="cls-2" d="M21.29,43.09a4,4,0,0,1-1.06,2.69,3.2,3.2,0,0,1,.39.16l.1.05A4,4,0,0,1,23,49.6V55a2,2,0,0,1-2,2H13a2,2,0,0,1-2-2V49.6A4,4,0,0,1,13.28,46l.1-.05a3.2,3.2,0,0,1,.39-.16,4,4,0,0,1-1.06-2.69A4.19,4.19,0,0,1,17,39,4.19,4.19,0,0,1,21.29,43.09ZM17,45.18A2.1,2.1,0,1,0,17,41a2.1,2.1,0,1,0,0,4.18ZM21,55V49.6a2,2,0,0,0-1.14-1.81l-.1,0a2,2,0,0,0-.87-.19H15.11a2,2,0,0,0-.87.19l-.1,0A2,2,0,0,0,13,49.6V55Z"></path><path id="Path-3" data-name="Path" class="cls-1" d="M36.11,31.14a1.06,1.06,0,0,1,0-1.43,1,1,0,0,1,1.37,0l6.84,7.15a1.06,1.06,0,0,1,0,1.43,1,1,0,0,1-1.37,0Z"></path><path id="Path-4" data-name="Path" class="cls-1" d="M27.89,29.71a1.06,1.06,0,0,1,0,1.43l-6.84,7.15a1,1,0,0,1-1.37,0,1.06,1.06,0,0,1,0-1.43l6.84-7.15A1,1,0,0,1,27.89,29.71Z"></path><path id="Path-5" data-name="Path" class="cls-1" d="M50,32a1,1,0,0,0,1,1H72a1,1,0,0,0,1-1V14a1,1,0,0,0-2,0V31H68V18a1,1,0,0,0-2,0V31H63V24a1,1,0,0,0-2,0v7H58V23a1,1,0,0,0-2,0v8H53V28a1,1,0,0,0-2,0v3A1,1,0,0,0,50,32Z"></path></g></g></svg> 