<?xml version="1.0" encoding="UTF-8"?> <svg xmlns="http://www.w3.org/2000/svg" xmlns:xlink="http://www.w3.org/1999/xlink" width="90" height="90" viewBox="0 0 90 90"><defs><clipPath id="clip-path"><rect id="Rectangle_6" data-name="Rectangle 6" width="90" height="90" transform="translate(1669 70)" fill="#fff" stroke="#707070" stroke-width="1"></rect></clipPath></defs><g id="Mask_Group_6" data-name="Mask Group 6" transform="translate(-1669 -70)" clip-path="url(#clip-path)"><g id="Group_245" data-name="Group 245" transform="translate(-99.664 22.582)"><path id="Path_180" data-name="Path 180" d="M275.859,252.635a1.91,1.91,0,0,0,1.686,1.144h21.8a24.109,24.109,0,0,0,16.98-41.609,23.751,23.751,0,0,0-18.245-6.5,24.128,24.128,0,0,0-16.559,39.8l-5.3,5.239a1.746,1.746,0,0,0-.361,1.927Zm3.492-24.327a20.553,20.553,0,0,1,18.968-19.028,20.311,20.311,0,0,1,15.536,5.54,20.614,20.614,0,0,1,6.443,15.174c-.181,11.14-9.574,20.172-20.955,20.172H281.88l3.432-3.432a1.733,1.733,0,0,0,.542-1.265,1.64,1.64,0,0,0-.542-1.265,20.114,20.114,0,0,1-5.961-15.9Z" transform="translate(1527.685 -123.49)" fill="#1b54f8" stroke="#fff" stroke-width="1"></path><path id="Path_181" data-name="Path 181" d="M373.681,340.483h18.065a1.806,1.806,0,0,0,0-3.613H373.681a1.806,1.806,0,0,0,0,3.613Z" transform="translate(1444.735 -236.688)" fill="#1b54f8" stroke="#fff" stroke-width="1"></path><path id="Path_182" data-name="Path 182" d="M142.419,4.375H82.2A7.812,7.812,0,0,0,74.375,12.2V72.418A7.812,7.812,0,0,0,82.2,80.246h6.082A1.748,1.748,0,0,0,90.031,78.5v-.06a1.812,1.812,0,0,0-1.806-1.806H82.2a4.189,4.189,0,0,1-4.215-4.215V24.849h68.646v4.817a1.8,1.8,0,0,0,2.168,1.746h.06a1.745,1.745,0,0,0,1.385-1.746V12.2a7.812,7.812,0,0,0-7.828-7.828Zm4.215,16.86H77.988V12.2A4.189,4.189,0,0,1,82.2,7.988h60.216a4.189,4.189,0,0,1,4.215,4.215Z" transform="translate(1701.289 50.044)" fill="#1b54f8" stroke="#fff" stroke-width="1"></path><path id="Path_183" data-name="Path 183" d="M139.84,65.625h-2.409a1.806,1.806,0,0,0,0,3.613h2.409a1.806,1.806,0,1,0,0-3.613Z" transform="translate(1648.469 -2.776)" fill="#1b54f8" stroke="#fff" stroke-width="1"></path><path id="Path_184" data-name="Path 184" d="M209.84,65.625h-2.409a1.806,1.806,0,0,0,0,3.613h2.409a1.806,1.806,0,1,0,0-3.613Z" transform="translate(1588.103 -2.776)" fill="#1b54f8" stroke="#fff" stroke-width="1"></path><path id="Path_185" data-name="Path 185" d="M373.681,401.743h7.828a1.806,1.806,0,0,0,0-3.613h-7.828a1.806,1.806,0,0,0,0,3.613Z" transform="translate(1444.735 -289.517)" fill="#1b54f8" stroke="#fff" stroke-width="1"></path><path id="Path_186" data-name="Path 186" d="M486.067,398.12h-3.011a1.806,1.806,0,0,0,0,3.613h3.011a1.806,1.806,0,0,0,0-3.613Z" transform="translate(1350.414 -289.508)" fill="#1b54f8" stroke="#fff" stroke-width="1"></path></g></g></svg> 