<?xml version="1.0" encoding="UTF-8"?> <svg xmlns="http://www.w3.org/2000/svg" width="91" height="91" viewBox="0 0 91 91" fill="none"><mask id="mask0_2_246" style="mask-type:luminance" maskUnits="userSpaceOnUse" x="0" y="0" width="91" height="91"><path d="M90.91 0.630005H0.910004V90.63H90.91V0.630005Z" fill="white"></path></mask><g mask="url(#mask0_2_246)"><path d="M76.69 45.14C76.69 41.33 73.58 38.22 69.77 38.22C65.96 38.22 62.85 41.33 62.85 45.14C62.85 47.74 64.3 50.01 66.42 51.19V62.02C64.72 59.47 61.83 57.79 58.55 57.79H28.84C25.21 57.79 22.06 59.84 20.47 62.84V51.19C22.59 50.01 24.04 47.74 24.04 45.14C24.04 41.33 20.93 38.22 17.12 38.22C13.31 38.22 10.2 41.33 10.2 45.14C10.2 47.74 11.65 50.01 13.77 51.19V66.17C12.32 66.77 11.31 68.19 11.31 69.85V79.24C11.31 81.43 13.1 83.22 15.29 83.22H19.47C20.11 87.82 24.06 91.38 28.84 91.38H58.55C63.33 91.38 67.28 87.82 67.92 83.22H71.61C73.8 83.22 75.59 81.43 75.59 79.24V69.85C75.59 68.19 74.57 66.77 73.13 66.17V51.19C75.24 50.01 76.69 47.74 76.69 45.14ZM17.13 41.13C19.34 41.13 21.14 42.93 21.14 45.14C21.14 47.35 19.34 49.15 17.13 49.15C14.92 49.15 13.12 47.35 13.12 45.14C13.12 42.93 14.92 41.13 17.13 41.13ZM17.13 52.05C17.28 52.05 17.42 52.05 17.57 52.03V65.86H16.7V52.03C16.84 52.03 16.99 52.05 17.13 52.05ZM14.23 79.23V69.84C14.23 69.25 14.71 68.77 15.3 68.77H19.39V80.3H15.3C14.71 80.3 14.23 79.82 14.23 79.23ZM65.1 81.91C65.1 85.52 62.16 88.46 58.55 88.46H28.83C25.22 88.46 22.28 85.52 22.28 81.91V67.25C22.28 63.64 25.22 60.7 28.83 60.7H58.54C62.15 60.7 65.09 63.64 65.09 67.25L65.1 81.91ZM69.77 41.13C71.98 41.13 73.78 42.93 73.78 45.14C73.78 47.35 71.98 49.15 69.77 49.15C67.56 49.15 65.76 47.35 65.76 45.14C65.76 42.93 67.56 41.13 69.77 41.13ZM72.67 79.23C72.67 79.82 72.19 80.3 71.6 80.3H68V68.77H71.6C72.19 68.77 72.67 69.25 72.67 69.84V79.23ZM70.21 65.86H69.34V52.03C69.49 52.03 69.63 52.05 69.78 52.05C69.93 52.05 70.07 52.05 70.22 52.03L70.21 65.86ZM38.9 70.9C38.9 68.01 36.55 65.66 33.66 65.66C30.77 65.66 28.42 68.01 28.42 70.9C28.42 73.79 30.77 76.14 33.66 76.14C36.55 76.14 38.9 73.79 38.9 70.9ZM33.66 73.23C32.37 73.23 31.33 72.19 31.33 70.9C31.33 69.61 32.37 68.57 33.66 68.57C34.95 68.57 35.99 69.61 35.99 70.9C35.99 72.18 34.95 73.23 33.66 73.23ZM53.74 65.85C50.85 65.85 48.5 68.2 48.5 71.09C48.5 73.98 50.85 76.33 53.74 76.33C56.63 76.33 58.98 73.98 58.98 71.09C58.98 68.2 56.63 65.85 53.74 65.85ZM53.74 73.42C52.45 73.42 51.41 72.38 51.41 71.09C51.41 69.8 52.45 68.76 53.74 68.76C55.03 68.76 56.07 69.8 56.07 71.09C56.07 72.38 55.02 73.42 53.74 73.42ZM51.69 81.74C51.69 82.55 51.04 83.19 50.24 83.19H37.17C36.36 83.19 35.72 82.54 35.72 81.74C35.72 80.94 36.37 80.29 37.17 80.29H50.24C51.04 80.28 51.69 80.93 51.69 81.74ZM84.65 1.23001H35.28C33.77 1.23001 32.54 2.46001 32.54 3.97001V32.59C32.54 34.1 33.77 35.33 35.28 35.33H37.04V42.66C37.04 43.22 37.36 43.73 37.87 43.97C38.07 44.07 38.28 44.12 38.5 44.12C38.82 44.12 39.15 44.01 39.4 43.81L49.97 35.35H84.64C86.15 35.35 87.38 34.12 87.38 32.61V3.97001C87.38 2.46001 86.16 1.23001 84.65 1.23001ZM84.48 32.43H49.47C49.14 32.43 48.82 32.54 48.57 32.74L39.97 39.63V33.87C39.97 33.06 39.32 32.42 38.52 32.42H35.46V4.14001H84.5L84.48 32.43ZM41.12 10.48C41.12 9.67001 41.77 9.03001 42.57 9.03001H77.35C78.16 9.03001 78.8 9.68001 78.8 10.48C78.8 11.29 78.15 11.93 77.35 11.93H42.57C41.77 11.94 41.12 11.29 41.12 10.48ZM41.12 18.39C41.12 17.58 41.77 16.94 42.57 16.94H77.35C78.16 16.94 78.8 17.59 78.8 18.39C78.8 19.19 78.15 19.84 77.35 19.84H42.57C41.77 19.85 41.12 19.2 41.12 18.39ZM41.12 26.31C41.12 25.5 41.77 24.86 42.57 24.86H53.46C54.27 24.86 54.91 25.51 54.91 26.31C54.91 27.11 54.26 27.76 53.46 27.76H42.57C41.77 27.76 41.12 27.11 41.12 26.31ZM64.34 26.31C64.34 27.12 63.69 27.76 62.89 27.76H61C60.19 27.76 59.55 27.11 59.55 26.31C59.55 25.51 60.2 24.86 61 24.86H62.89C63.69 24.85 64.34 25.5 64.34 26.31Z" fill="#1B54F8" stroke="white" stroke-width="0.25" stroke-miterlimit="10"></path></g></svg> 