<?xml version="1.0" encoding="UTF-8"?> <svg xmlns="http://www.w3.org/2000/svg" xmlns:xlink="http://www.w3.org/1999/xlink" width="90" height="90" viewBox="0 0 90 90"><defs><clipPath id="clip-path"><rect id="Rectangle_3" data-name="Rectangle 3" width="90" height="90" transform="translate(0.154)" fill="#fff"></rect></clipPath></defs><g id="Mask_Group_2" data-name="Mask Group 2" transform="translate(-0.154)" clip-path="url(#clip-path)"><g id="Group_115" data-name="Group 115" transform="translate(5 6)"><path id="Path_46" data-name="Path 46" d="M116.346,61.275a1.366,1.366,0,0,1-.917-.353l-7.279-6.557a10.137,10.137,0,0,1,.542-20.26H124a10.138,10.138,0,1,1,0,20.275h-6.286v5.526a1.368,1.368,0,0,1-1.369,1.369Zm-7.654-24.432a7.4,7.4,0,1,0,0,14.8,1.368,1.368,0,0,1,.915.351l5.37,4.842V53.012a1.369,1.369,0,0,1,1.369-1.369H124a7.4,7.4,0,1,0,0-14.8Z" transform="translate(-97.874 -34.105)" fill="#1b54f8"></path><path id="Path_47" data-name="Path 47" d="M167.859,70.854H149.8a1.369,1.369,0,1,1,0-2.737h18.06a1.369,1.369,0,1,1,0,2.737Z" transform="translate(-139.961 -62.797)" fill="#1b54f8"></path><path id="Path_48" data-name="Path 48" d="M167.859,114.967H149.8a1.369,1.369,0,0,1,0-2.737h18.06a1.369,1.369,0,0,1,0,2.737Z" transform="translate(-139.961 -100.01)" fill="#1b54f8"></path><path id="Path_49" data-name="Path 49" d="M390.951,61.275a1.368,1.368,0,0,1-1.369-1.369V54.381H383.3a10.138,10.138,0,1,1,0-20.275H398.6a10.137,10.137,0,0,1,.542,20.26l-7.279,6.568a1.367,1.367,0,0,1-.917.342ZM383.3,36.843a7.4,7.4,0,1,0,0,14.8h7.655a1.368,1.368,0,0,1,1.369,1.369v3.824l5.37-4.842a1.368,1.368,0,0,1,.915-.351,7.4,7.4,0,1,0,0-14.8Z" transform="translate(-329.426 -34.105)" fill="#1b54f8"></path><path id="Path_50" data-name="Path 50" d="M438.039,70.854h-18.06a1.369,1.369,0,1,1,0-2.737h18.06a1.369,1.369,0,0,1,0,2.737Z" transform="translate(-367.88 -62.797)" fill="#1b54f8"></path><path id="Path_51" data-name="Path 51" d="M438.039,114.967h-18.06a1.369,1.369,0,1,1,0-2.737h18.06a1.369,1.369,0,0,1,0,2.737Z" transform="translate(-367.88 -100.01)" fill="#1b54f8"></path><path id="Path_52" data-name="Path 52" d="M180.571,267a1.369,1.369,0,0,1-1.369-1.369v-7.579H166.566c-9.6,0-17.411-8.761-17.411-19.529S156.961,219,166.566,219h28.01c9.6,0,17.411,8.759,17.411,19.527,0,10.616-7.589,19.278-17,19.524l-13.676,8.737h0a1.372,1.372,0,0,1-.737.216Zm-14-45.266c-8.092,0-14.674,7.528-14.674,16.79s6.582,16.791,14.674,16.791h14a1.368,1.368,0,0,1,1.369,1.369v6.45l11.9-7.6a1.355,1.355,0,0,1,.738-.216c8.092,0,14.674-7.528,14.674-16.791s-6.582-16.79-14.674-16.79Z" transform="translate(-140.572 -190.077)" fill="#1b54f8"></path><path id="Path_53" data-name="Path 53" d="M106.566,296.324h-1.331a10.816,10.816,0,1,1,0-21.63h1.331a1.369,1.369,0,0,1,0,2.737h-1.331a8.078,8.078,0,1,0,0,16.155h1.331a1.369,1.369,0,0,1,0,2.737Z" transform="translate(-94.283 -237.061)" fill="#1b54f8"></path><path id="Path_54" data-name="Path 54" d="M301.117,163.561a1.368,1.368,0,0,1-1.369-1.369v-1.338a8.079,8.079,0,0,0-16.157,0v1.338a1.369,1.369,0,0,1-2.737,0v-1.338a10.816,10.816,0,0,1,21.632,0v1.338a1.368,1.368,0,0,1-1.369,1.369Z" transform="translate(-251.671 -131.904)" fill="#1b54f8"></path><path id="Path_55" data-name="Path 55" d="M521.142,296.325h-1.331a1.369,1.369,0,1,1,0-2.737h1.338a8.078,8.078,0,1,0,0-16.155h-1.338a1.369,1.369,0,1,1,0-2.737h1.338a10.816,10.816,0,1,1,0,21.63Z" transform="translate(-452.096 -237.062)" fill="#1b54f8"></path><path id="Path_56" data-name="Path 56" d="M417.558,311.3a7.413,7.413,0,1,1,5.233-2.171A7.406,7.406,0,0,1,417.558,311.3Zm0-12.072a4.673,4.673,0,1,0,3.3,1.369,4.668,4.668,0,0,0-3.3-1.369Z" transform="translate(-360.746 -255.452)" fill="#1b54f8"></path><path id="Path_57" data-name="Path 57" d="M202.575,311.3a7.412,7.412,0,1,1,5.233-2.171A7.405,7.405,0,0,1,202.575,311.3Zm0-12.072a4.673,4.673,0,1,0,3.3,1.369,4.668,4.668,0,0,0-3.3-1.369Z" transform="translate(-179.39 -255.452)" fill="#1b54f8"></path><path id="Path_58" data-name="Path 58" d="M310.1,378.459a9.87,9.87,0,0,1-7-2.893,1.37,1.37,0,0,1,1.937-1.937,7.148,7.148,0,0,0,10.121,0,1.37,1.37,0,0,1,1.937,1.937,9.87,9.87,0,0,1-7,2.893Z" transform="translate(-270.102 -320.183)" fill="#1b54f8"></path></g></g></svg> 