<?xml version="1.0" encoding="UTF-8"?> <svg xmlns="http://www.w3.org/2000/svg" width="91" height="91" viewBox="0 0 91 91" fill="none"><mask id="mask0_2_251" style="mask-type:luminance" maskUnits="userSpaceOnUse" x="0" y="0" width="91" height="91"><path d="M90.9 0.0200043H0.899994V90.02H90.9V0.0200043Z" fill="white"></path></mask><g mask="url(#mask0_2_251)"><path d="M79.67 44.53C79.67 40.72 76.56 37.61 72.75 37.61C68.94 37.61 65.83 40.72 65.83 44.53C65.83 47.13 67.28 49.4 69.4 50.58V61.41C67.7 58.86 64.81 57.18 61.53 57.18H31.82C28.19 57.18 25.04 59.23 23.45 62.23V50.57C25.57 49.39 27.02 47.12 27.02 44.52C27.02 40.71 23.91 37.6 20.1 37.6C16.29 37.6 13.18 40.71 13.18 44.52C13.18 47.12 14.63 49.39 16.75 50.57V65.55C15.3 66.15 14.29 67.57 14.29 69.23V78.62C14.29 80.81 16.08 82.6 18.27 82.6H22.45C23.09 87.2 27.04 90.76 31.82 90.76H61.53C66.31 90.76 70.26 87.2 70.9 82.6H74.59C76.78 82.6 78.57 80.81 78.57 78.62V69.23C78.57 67.57 77.55 66.15 76.11 65.55V50.57C78.23 49.39 79.67 47.12 79.67 44.53ZM20.11 40.51C22.32 40.51 24.12 42.31 24.12 44.52C24.12 46.73 22.32 48.53 20.11 48.53C17.9 48.53 16.1 46.73 16.1 44.52C16.1 42.31 17.9 40.51 20.11 40.51ZM20.11 51.44C20.26 51.44 20.4 51.44 20.55 51.42V65.25H19.68V51.42C19.83 51.42 19.98 51.44 20.11 51.44ZM17.21 78.62V69.23C17.21 68.64 17.69 68.16 18.28 68.16H22.37V79.69H18.28C17.7 79.69 17.21 79.21 17.21 78.62ZM68.09 81.29C68.09 84.9 65.15 87.84 61.54 87.84H31.82C28.21 87.84 25.27 84.9 25.27 81.29V66.63C25.27 63.02 28.21 60.08 31.82 60.08H61.53C65.14 60.08 68.08 63.02 68.08 66.63L68.09 81.29ZM72.75 40.51C74.96 40.51 76.76 42.31 76.76 44.52C76.76 46.73 74.96 48.53 72.75 48.53C70.54 48.53 68.74 46.73 68.74 44.52C68.74 42.31 70.54 40.51 72.75 40.51ZM75.65 78.62C75.65 79.21 75.17 79.69 74.58 79.69H70.98V68.16H74.58C75.17 68.16 75.65 68.64 75.65 69.23V78.62ZM73.2 65.25H72.33V51.42C72.48 51.42 72.62 51.44 72.77 51.44C72.92 51.44 73.06 51.44 73.21 51.42L73.2 65.25ZM41.89 70.28C41.89 67.39 39.54 65.04 36.65 65.04C33.76 65.04 31.41 67.39 31.41 70.28C31.41 73.17 33.76 75.52 36.65 75.52C39.54 75.52 41.89 73.17 41.89 70.28ZM36.65 72.61C35.36 72.61 34.32 71.57 34.32 70.28C34.32 68.99 35.36 67.95 36.65 67.95C37.94 67.95 38.98 68.99 38.98 70.28C38.98 71.57 37.94 72.61 36.65 72.61ZM56.72 65.24C53.83 65.24 51.48 67.59 51.48 70.48C51.48 73.37 53.83 75.72 56.72 75.72C59.61 75.72 61.96 73.37 61.96 70.48C61.96 67.59 59.61 65.24 56.72 65.24ZM56.72 72.81C55.43 72.81 54.39 71.77 54.39 70.48C54.39 69.19 55.43 68.15 56.72 68.15C58.01 68.15 59.05 69.19 59.05 70.48C59.05 71.76 58.01 72.81 56.72 72.81ZM54.68 81.12C54.68 81.93 54.03 82.57 53.23 82.57H40.16C39.35 82.57 38.71 81.92 38.71 81.12C38.71 80.32 39.36 79.67 40.16 79.67H53.23C54.03 79.67 54.68 80.32 54.68 81.12Z" fill="#1B54F8" stroke="white" stroke-width="0.25" stroke-miterlimit="10"></path></g><path d="M47.26 21.14V18.96H45.26V21.14C44.1 21.55 43.26 22.65 43.26 23.95C43.26 25.25 44.1 26.35 45.26 26.76V31.94H47.26V26.76C48.42 26.35 49.26 25.25 49.26 23.95C49.25 22.65 48.42 21.55 47.26 21.14ZM46.26 24.95C45.71 24.95 45.26 24.5 45.26 23.95C45.26 23.4 45.71 22.95 46.26 22.95C46.81 22.95 47.26 23.4 47.26 23.95C47.26 24.5 46.81 24.95 46.26 24.95Z" fill="#1B54F8"></path><path d="M54.25 24.14V18.96H52.25V24.14C51.09 24.55 50.25 25.65 50.25 26.95C50.25 28.25 51.09 29.35 52.25 29.76V31.94H54.25V29.76C55.41 29.35 56.25 28.25 56.25 26.95C56.25 25.65 55.41 24.55 54.25 24.14ZM53.25 27.95C52.7 27.95 52.25 27.5 52.25 26.95C52.25 26.4 52.7 25.95 53.25 25.95C53.8 25.95 54.25 26.4 54.25 26.95C54.25 27.5 53.8 27.95 53.25 27.95Z" fill="#1B54F8"></path><path d="M40.26 24.14V18.96H38.26V24.14C37.1 24.55 36.26 25.65 36.26 26.95C36.26 28.25 37.1 29.35 38.26 29.76V31.94H40.26V29.76C41.42 29.35 42.26 28.25 42.26 26.95C42.26 25.65 41.42 24.55 40.26 24.14ZM39.27 27.95C38.72 27.95 38.27 27.5 38.27 26.95C38.27 26.4 38.72 25.95 39.27 25.95C39.82 25.95 40.27 26.4 40.27 26.95C40.26 27.5 39.82 27.95 39.27 27.95Z" fill="#1B54F8"></path><path d="M60.24 25.95C60.24 18.24 53.97 11.97 46.26 11.97C38.55 11.97 32.28 18.24 32.28 25.95C32.28 33.66 38.55 39.93 46.26 39.93C53.97 39.93 60.24 33.66 60.24 25.95ZM46.26 37.94C39.65 37.94 34.27 32.56 34.27 25.95C34.27 19.34 39.65 13.96 46.26 13.96C52.87 13.96 58.25 19.34 58.25 25.95C58.24 32.56 52.87 37.94 46.26 37.94Z" fill="#1B54F8"></path><path d="M47.26 48.92H45.26V50.92H47.26V48.92Z" fill="#1B54F8"></path><path d="M47.26 52.92H45.26V54.92H47.26V52.92Z" fill="#1B54F8"></path><path d="M51.25 45.93V44.25C52.79 43.83 54.27 43.22 55.66 42.42L56.85 43.61C57.24 44 57.87 44 58.26 43.61L63.91 37.96C64.3 37.57 64.3 36.94 63.91 36.55L62.72 35.36C63.52 33.97 64.13 32.49 64.55 30.95H66.23C66.78 30.95 67.23 30.5 67.23 29.95V21.96C67.23 21.41 66.78 20.96 66.23 20.96H64.55C64.13 19.42 63.52 17.94 62.72 16.55L63.91 15.36C64.3 14.97 64.3 14.34 63.91 13.95L58.26 8.30001C57.87 7.91001 57.24 7.91001 56.85 8.30001L55.66 9.49001C54.27 8.69001 52.79 8.08001 51.25 7.66001V5.98001C51.25 5.43001 50.8 4.98001 50.25 4.98001H42.26C41.71 4.98001 41.26 5.43001 41.26 5.98001V7.66001C39.72 8.08001 38.24 8.69001 36.85 9.49001L35.66 8.30001C35.27 7.91001 34.64 7.91001 34.25 8.30001L28.6 13.95C28.21 14.34 28.21 14.97 28.6 15.36L29.79 16.55C28.99 17.94 28.38 19.42 27.96 20.96H26.28C25.73 20.96 25.28 21.41 25.28 21.96V29.95C25.28 30.5 25.73 30.95 26.28 30.95H27.96C28.38 32.49 28.99 33.97 29.79 35.36L28.6 36.55C28.21 36.94 28.21 37.57 28.6 37.96L34.25 43.61C34.64 44 35.27 44 35.66 43.61L36.85 42.42C38.24 43.22 39.72 43.83 41.26 44.25V45.93C41.26 46.48 41.71 46.93 42.26 46.93H50.25C50.81 46.93 51.25 46.48 51.25 45.93ZM49.25 43.47V44.93H43.26V43.47C43.26 43 42.94 42.6 42.48 42.5C40.62 42.08 38.85 41.34 37.23 40.32C36.84 40.07 36.32 40.13 35.99 40.46L34.95 41.5L30.71 37.26L31.75 36.22C32.08 35.89 32.14 35.38 31.89 34.98C30.86 33.35 30.13 31.58 29.71 29.73C29.61 29.27 29.2 28.95 28.74 28.95H27.28V22.96H28.74C29.21 22.96 29.61 22.64 29.71 22.18C30.13 20.33 30.86 18.56 31.89 16.93C32.14 16.54 32.08 16.02 31.75 15.69L30.71 14.65L34.95 10.41L35.99 11.45C36.32 11.78 36.84 11.84 37.23 11.59C38.86 10.57 40.62 9.83001 42.48 9.41001C42.93 9.31001 43.26 8.90001 43.26 8.44001V6.98001H49.25V8.44001C49.25 8.91001 49.57 9.31001 50.03 9.41001C51.89 9.83001 53.66 10.57 55.28 11.59C55.67 11.84 56.19 11.78 56.52 11.45L57.56 10.41L61.8 14.65L60.76 15.69C60.43 16.02 60.37 16.53 60.62 16.93C61.65 18.56 62.38 20.33 62.8 22.18C62.9 22.64 63.31 22.96 63.77 22.96H65.23V28.95H63.77C63.3 28.95 62.9 29.27 62.8 29.73C62.38 31.58 61.65 33.35 60.62 34.98C60.37 35.37 60.43 35.89 60.76 36.22L61.8 37.26L57.56 41.5L56.52 40.46C56.19 40.13 55.67 40.07 55.28 40.32C53.65 41.34 51.89 42.08 50.03 42.5C49.58 42.6 49.25 43 49.25 43.47Z" fill="#1B54F8"></path></svg> 