<?xml version="1.0" encoding="UTF-8"?> <svg xmlns="http://www.w3.org/2000/svg" xmlns:xlink="http://www.w3.org/1999/xlink" width="90" height="90" viewBox="0 0 90 90"><defs><clipPath id="clip-path"><rect id="Rectangle_14" data-name="Rectangle 14" width="90" height="90" transform="translate(1025 349)" fill="#fff" stroke="#707070" stroke-width="1"></rect></clipPath></defs><g id="Mask_Group_7" data-name="Mask Group 7" transform="translate(-1025 -349)" clip-path="url(#clip-path)"><g id="Group_170" data-name="Group 170" transform="translate(1028 362)"><path id="Path_169" data-name="Path 169" d="M169.018,181.418H162.9a16.049,16.049,0,0,0-1.567-3.8l4.322-4.324a4.251,4.251,0,1,0-6.009-6.014l-4.326,4.325a15.978,15.978,0,0,0-3.8-1.569v-6.119a4.25,4.25,0,1,0-8.5,0v6.12a16.069,16.069,0,0,0-3.8,1.569l-4.324-4.325a4.252,4.252,0,1,0-6.011,6.014l4.322,4.323a16.1,16.1,0,0,0-1.567,3.8h-6.12a4.25,4.25,0,1,0,0,8.5h6.12a16.108,16.108,0,0,0,1.567,3.8l-4.322,4.322a4.252,4.252,0,0,0,6.011,6.014l4.324-4.323a15.933,15.933,0,0,0,3.8,1.568v6.12a4.25,4.25,0,1,0,8.5,0V201.3a15.859,15.859,0,0,0,3.8-1.571l4.326,4.326a4.251,4.251,0,1,0,6.009-6.014l-4.322-4.322a16.172,16.172,0,0,0,1.567-3.8h6.12a4.251,4.251,0,0,0,0-8.5ZM147.27,194.005a8.337,8.337,0,1,1,8.338-8.335A8.335,8.335,0,0,1,147.27,194.005Z" transform="translate(-121.27 -147.896)" fill="none" stroke="#1b54f8" stroke-width="2"></path><path id="Path_170" data-name="Path 170" d="M399.719,115.986l-4.815-1.575a13.232,13.232,0,0,0-.256-3.39l4.515-2.289a3.519,3.519,0,1,0-3.182-6.278l-4.513,2.289a13.3,13.3,0,0,0-2.583-2.213l1.574-4.813a3.518,3.518,0,1,0-6.688-2.188l-1.574,4.815a13.075,13.075,0,0,0-3.389.254l-2.292-4.515a3.518,3.518,0,0,0-6.276,3.182l2.287,4.513a13.4,13.4,0,0,0-2.211,2.585L365.5,104.79a3.519,3.519,0,1,0-2.188,6.689l4.812,1.574a13.314,13.314,0,0,0,.258,3.392l-4.513,2.288a3.519,3.519,0,1,0,3.18,6.278l4.513-2.291a13.066,13.066,0,0,0,2.584,2.21l-1.572,4.818a3.516,3.516,0,1,0,6.683,2.188l1.577-4.815a13.147,13.147,0,0,0,3.4-.257l2.287,4.516a3.518,3.518,0,0,0,6.276-3.18l-2.287-4.516a13.208,13.208,0,0,0,2.211-2.583l4.815,1.574a3.519,3.519,0,0,0,2.187-6.689Zm-18.206,3.284a5.537,5.537,0,1,1,5.539-5.537A5.537,5.537,0,0,1,381.513,119.269Z" transform="translate(-318.511 -93.103)" fill="none" stroke="#1b54f8" stroke-width="2"></path></g></g></svg> 