<?xml version="1.0" encoding="UTF-8"?> <svg xmlns="http://www.w3.org/2000/svg" id="Layer_1" data-name="Layer 1" viewBox="0 0 74 74"><defs><style>.cls-1{fill:none;stroke:#1b54f8;stroke-miterlimit:10;stroke-width:2px;}</style></defs><path class="cls-1" d="M66.24,48.49H63.69V16.62A4.74,4.74,0,0,0,59,11.9H15a4.68,4.68,0,0,0-4.72,4.72V48.49H7.76a1,1,0,0,0-.94.95v3.3a5.68,5.68,0,0,0,5.66,5.66h49a5.68,5.68,0,0,0,5.66-5.66v-3.3A1,1,0,0,0,66.24,48.49Z"></path><path class="cls-1" d="M49.07,29.16a7.69,7.69,0,0,0-1.22-6,7.87,7.87,0,0,0-12.64-.66,8,8,0,0,0-1.89,4.71,5.69,5.69,0,0,0-6.51,2,6.7,6.7,0,1,0-1.13,13.3H48.32a6.67,6.67,0,0,0,.75-13.3Z"></path><line class="cls-1" x1="9.2" y1="48.49" x2="63.69" y2="48.49"></line></svg> 