<?xml version="1.0" encoding="UTF-8"?> <svg xmlns="http://www.w3.org/2000/svg" xmlns:xlink="http://www.w3.org/1999/xlink" width="60" height="60" viewBox="0 0 60 60"><defs><clipPath id="clip-path"><rect id="Rectangle_15" data-name="Rectangle 15" width="60" height="60" transform="translate(414 173)" fill="#fff" stroke="#707070" stroke-width="1"></rect></clipPath></defs><g id="Mask_Group_10" data-name="Mask Group 10" transform="translate(-414 -173)" clip-path="url(#clip-path)"><g id="Group_16" data-name="Group 16" transform="translate(424.393 183.393)"><path id="Path_39" data-name="Path 39" d="M37.052,7.325H24.4a3.137,3.137,0,0,0-1.722.517,4.4,4.4,0,0,0-2.808-.453A7.584,7.584,0,0,0,4.9,7.357a4.428,4.428,0,0,0,.529,8.823H21.24v7.59H17.707l-3.795-3.795H11.12v-2.53H3.53V23.77h7.59V21.24h2.268l3.795,3.795H21.24v2.53H8.59v-2.53H1V31.36H8.59V28.83H21.24v2.53H17.183l-3.795,3.795H11.12v-2.53H3.53V38.95h7.59V36.42h2.792l3.795-3.795H21.24v4.427A3.166,3.166,0,0,0,24.4,40.215h12.65a3.166,3.166,0,0,0,3.162-3.162V10.487A3.166,3.166,0,0,0,37.052,7.325ZM9.855,22.5H4.795V18.71h5.06Zm-2.53,7.59H2.265V26.3h5.06Zm2.53,7.59H4.795V33.89h5.06ZM37.052,8.59a1.9,1.9,0,0,1,1.9,1.9v1.9H22.5v-1.9a1.9,1.9,0,0,1,1.9-1.9ZM5.427,14.915A3.163,3.163,0,0,1,5.4,8.589l.642,0,.052-.576a6.318,6.318,0,0,1,12.6.206l.049.846.8-.287a3.158,3.158,0,0,1,2.2.019,3.136,3.136,0,0,0-.5,1.688v4.427ZM37.052,38.95H24.4a1.9,1.9,0,0,1-1.9-1.9v-.016a3.13,3.13,0,0,0,1.9.649h12.65a3.13,3.13,0,0,0,1.9-.649v.016A1.9,1.9,0,0,1,37.052,38.95Zm0-2.53H24.4a1.9,1.9,0,0,1-1.9-1.9V13.65H38.95V34.522A1.9,1.9,0,0,1,37.052,36.42Z" transform="translate(-1 -1)" fill="#1c54f8"></path><rect id="Rectangle_50" data-name="Rectangle 50" width="6" height="1" transform="translate(27.367 33.129)" fill="#1c54f8"></rect><ellipse id="Ellipse_5" data-name="Ellipse 5" cx="1" cy="0.5" rx="1" ry="0.5" transform="translate(22.367 9.129)" fill="#1c54f8"></ellipse><rect id="Rectangle_51" data-name="Rectangle 51" width="7" height="1" transform="translate(26.367 9.129)" fill="#1c54f8"></rect><path id="Path_40" data-name="Path 40" d="M49.926,31.875,47.51,29.459l-.805.376L46.4,29H42.985l-.3.836-.805-.376L39.46,31.875l.376.805-.836.3V36.4l.836.3-.376.805,2.416,2.416.805-.376.3.836H46.4l.3-.836.805.376,2.416-2.416-.376-.805.836-.3V32.985l-.836-.3Zm-.806,3.639L48.6,35.7l-.283.135-.267.645.355.76L47.242,38.4l-.76-.355-.682.283-.286.787H43.87l-.189-.521-.135-.283-.645-.267-.76.355L40.98,37.242l.355-.76-.283-.682-.787-.286V33.87l.521-.189.283-.135.267-.645-.355-.76,1.162-1.162.76.355.681-.283.287-.787h1.644l.189.521.134.283.645.268.76-.355L48.4,32.142l-.355.76.283.682.787.287Z" transform="translate(-14.965 -11.29)" fill="#1c54f8"></path><path id="Path_41" data-name="Path 41" d="M46.162,33a3.162,3.162,0,1,0,3.162,3.162A3.166,3.166,0,0,0,46.162,33Zm0,5.06a1.9,1.9,0,1,1,1.9-1.9A1.9,1.9,0,0,1,46.162,38.06Z" transform="translate(-16.435 -12.76)" fill="#1c54f8"></path><path id="Path_42" data-name="Path 42" d="M11,10.06h1.265A3.8,3.8,0,0,1,16.06,6.265V5A5.066,5.066,0,0,0,11,10.06Z" transform="translate(-4.675 -2.47)" fill="#1c54f8"></path><path id="Path_43" data-name="Path 43" d="M20.715,6.544a3.755,3.755,0,0,1,1.083.523l.724-1.038a5.046,5.046,0,0,0-1.447-.7Z" transform="translate(-8.245 -2.592)" fill="#1c54f8"></path></g></g></svg> 