<?xml version="1.0" encoding="UTF-8"?> <svg xmlns="http://www.w3.org/2000/svg" xmlns:xlink="http://www.w3.org/1999/xlink" width="90" height="90" viewBox="0 0 90 90"><defs><clipPath id="clip-path"><rect id="Rectangle_2" data-name="Rectangle 2" width="90" height="90" transform="translate(154.593 333.82)" fill="none"></rect></clipPath></defs><g id="Group_4" data-name="Group 4" transform="translate(-154.593 -333.82)"><g id="Group_3" data-name="Group 3" clip-path="url(#clip-path)"><path id="Path_2" data-name="Path 2" d="M215.563,353.2a1.054,1.054,0,0,1-2.052.479l-.552-2.348a14.162,14.162,0,0,0-13.478-9.764,1.055,1.055,0,1,1,0-2.11,16.3,16.3,0,0,1,15.478,11.221,1.133,1.133,0,0,1,.047.15Zm-16.082,59.717a3.8,3.8,0,1,0,2.686,1.112,3.8,3.8,0,0,0-2.686-1.112m-4.178-.379a5.9,5.9,0,1,0,5.233-1.637V388.011h11.683v23.31a2.719,2.719,0,0,0,2.716,2.716h9.792a5.9,5.9,0,1,0,0-2.109h-9.792a.611.611,0,0,1-.607-.607v-23.31h5.927v9.421a2.719,2.719,0,0,0,2.716,2.716h9.793a5.905,5.905,0,1,0,0-2.11h-9.793a.609.609,0,0,1-.607-.606v-9.421h10.549a11.573,11.573,0,0,0,1.641-23.026c.023-.152.043-.3.061-.46a14.288,14.288,0,0,0-14.2-15.961,14.513,14.513,0,0,0-1.654.1q-.355.042-.7.1a19.85,19.85,0,0,0-37.15-.023A14.291,14.291,0,0,0,164.5,364.528c.017.149.037.3.058.442a11.572,11.572,0,0,0,1.491,23.046H176.6v9.421a.608.608,0,0,1-.607.606H166.2a5.906,5.906,0,1,0,0,2.11h9.792a2.719,2.719,0,0,0,2.717-2.716v-9.421h5.926v23.305a.609.609,0,0,1-.606.607h-9.792a5.9,5.9,0,1,0,0,2.109h9.792a2.719,2.719,0,0,0,2.716-2.716v-23.31h11.684V410.9a5.9,5.9,0,0,0-3.124,1.637m-32.232-16.13a3.8,3.8,0,1,1-2.686-1.112,3.8,3.8,0,0,1,2.686,1.112m8.036,13.89a3.8,3.8,0,1,1-2.687-1.114,3.8,3.8,0,0,1,2.687,1.114m67.471-15a3.8,3.8,0,1,1-2.686,1.112,3.8,3.8,0,0,1,2.686-1.112m-8.037,13.888a3.8,3.8,0,1,1-2.686,1.114,3.8,3.8,0,0,1,2.686-1.114m-11.536-58.427q-.15.018-.3.039a19.9,19.9,0,0,1,.622,4.948c0,.142,0,.357-.015.647-.008.249-.017.464-.029.646a1.053,1.053,0,0,1-2.1-.132c.014-.225.024-.419.029-.58,0-.118.006-.312.006-.581a17.739,17.739,0,0,0-34.239-6.522,14.336,14.336,0,0,1,8.516,7.276,1.054,1.054,0,0,1-1.887.939,12.189,12.189,0,0,0-22.771,8.243,1.031,1.031,0,0,1,.028.222,1.052,1.052,0,0,1-1.03,1.071,9.466,9.466,0,0,0,.215,18.929h66.863a9.466,9.466,0,0,0,.425-18.921,1.056,1.056,0,0,1-1.092-1.018,1.068,1.068,0,0,1,.028-.282,12.208,12.208,0,0,0-13.269-14.924" fill="#1a53f6" fill-rule="evenodd"></path><path id="Path_3" data-name="Path 3" d="M215.563,353.2a1.054,1.054,0,0,1-2.052.479l-.552-2.348a14.162,14.162,0,0,0-13.478-9.764,1.055,1.055,0,1,1,0-2.11,16.3,16.3,0,0,1,15.478,11.221,1.133,1.133,0,0,1,.047.15Zm-16.082,59.717a3.8,3.8,0,1,0,2.686,1.112A3.8,3.8,0,0,0,199.481,412.916Zm-4.178-.379a5.9,5.9,0,1,0,5.233-1.637V388.011h11.683v23.31a2.719,2.719,0,0,0,2.716,2.716h9.792a5.9,5.9,0,1,0,0-2.109h-9.792a.611.611,0,0,1-.607-.607v-23.31h5.927v9.421a2.719,2.719,0,0,0,2.716,2.716h9.793a5.905,5.905,0,1,0,0-2.11h-9.793a.609.609,0,0,1-.607-.606v-9.421h10.549a11.573,11.573,0,0,0,1.641-23.026c.023-.152.043-.3.061-.46a14.288,14.288,0,0,0-14.2-15.961,14.513,14.513,0,0,0-1.654.1q-.355.042-.7.1a19.85,19.85,0,0,0-37.15-.023A14.291,14.291,0,0,0,164.5,364.528c.017.149.037.3.058.442a11.572,11.572,0,0,0,1.491,23.046H176.6v9.421a.608.608,0,0,1-.607.606H166.2a5.906,5.906,0,1,0,0,2.11h9.792a2.719,2.719,0,0,0,2.717-2.716v-9.421h5.926v23.305a.609.609,0,0,1-.606.607h-9.792a5.9,5.9,0,1,0,0,2.109h9.792a2.719,2.719,0,0,0,2.716-2.716v-23.31h11.684V410.9A5.9,5.9,0,0,0,195.3,412.537Zm-32.232-16.13a3.8,3.8,0,1,1-2.686-1.112A3.8,3.8,0,0,1,163.071,396.407Zm8.036,13.89a3.8,3.8,0,1,1-2.687-1.114A3.8,3.8,0,0,1,171.107,410.3Zm67.471-15a3.8,3.8,0,1,1-2.686,1.112A3.8,3.8,0,0,1,238.578,395.3Zm-8.037,13.888a3.8,3.8,0,1,1-2.686,1.114A3.8,3.8,0,0,1,230.541,409.183Zm-11.536-58.427q-.15.018-.3.039a19.9,19.9,0,0,1,.622,4.948c0,.142,0,.357-.015.647-.008.249-.017.464-.029.646a1.053,1.053,0,0,1-2.1-.132c.014-.225.024-.419.029-.58,0-.118.006-.312.006-.581a17.739,17.739,0,0,0-34.239-6.522,14.336,14.336,0,0,1,8.516,7.276,1.054,1.054,0,0,1-1.887.939,12.189,12.189,0,0,0-22.771,8.243,1.031,1.031,0,0,1,.028.222,1.052,1.052,0,0,1-1.03,1.071,9.466,9.466,0,0,0,.215,18.929h66.863a9.466,9.466,0,0,0,.425-18.921,1.056,1.056,0,0,1-1.092-1.018,1.068,1.068,0,0,1,.028-.282,12.208,12.208,0,0,0-13.269-14.924Z" fill="none" stroke="#1a53f6" stroke-width="0.75"></path></g></g></svg> 