<?xml version="1.0" encoding="UTF-8"?> <svg xmlns="http://www.w3.org/2000/svg" xmlns:xlink="http://www.w3.org/1999/xlink" width="90" height="90" viewBox="0 0 90 90"><defs><clipPath id="clip-path"><rect id="Rectangle_11" data-name="Rectangle 11" width="90" height="90" transform="translate(1283 551)" fill="#fff"></rect></clipPath></defs><g id="Mask_Group_10" data-name="Mask Group 10" transform="translate(-1283 -551)" clip-path="url(#clip-path)"><g id="Group_186" data-name="Group 186" transform="translate(1288 557)"><path id="Path_164" data-name="Path 164" d="M162.954,48.243c-2.12-3.842-7.221-6-11.578-5.2a15,15,0,0,0-5.153-12.811A14.546,14.546,0,0,0,131.69,28a18.863,18.863,0,0,0-19.327-5.934c-6.656,1.965-11.937,8.622-12.94,16.139a13.921,13.921,0,0,0-13.145,7.966c-2.595,5.59-3.523,13.57,1.672,19.223,4.381,4.78,11.63,5.641,18.594,5.641,2.068,0,4.112-.077,6.039-.155,2.082-.077,4.035-.155,5.808-.128l3.675.038v5.872l-14.918-.073c-3.521,0-6.18.938-7.594,2.749a6.107,6.107,0,0,0-1.092,4.767H89.468a1.238,1.238,0,0,0-1.244,1.243V98.463A1.247,1.247,0,0,0,89.468,99.7h17.964a1.238,1.238,0,0,0,1.246-1.246v-13.1a1.247,1.247,0,0,0-1.246-1.246h-6.451a4.038,4.038,0,0,1,.527-3.238c.9-1.156,2.866-1.8,5.538-1.8h.077l14.931.077v4.96h-7.62a1.238,1.238,0,0,0-1.245,1.244V98.463a1.247,1.247,0,0,0,1.246,1.246h17.976a1.238,1.238,0,0,0,1.246-1.246V85.351a1.247,1.247,0,0,0-1.246-1.246H124.56V79.153l8.031.038c.989,0,1.992-.026,2.981-.065,3.636-.116,7.068-.219,8.815,1.465a5.308,5.308,0,0,1,1.349,3.508H139.71a1.238,1.238,0,0,0-1.246,1.252v13.1A1.247,1.247,0,0,0,139.71,99.7h17.964a1.238,1.238,0,0,0,1.246-1.246v-13.1a1.247,1.247,0,0,0-1.246-1.246h-9.431a7.737,7.737,0,0,0-2.133-5.294c-2.506-2.428-6.63-2.287-10.626-2.172-.964.026-1.965.065-2.889.052l-8.047-.038v-5.86c6.322.026,12.669-.065,18.966-.257l.86-.026c7.3-.206,13.608-.4,18.119-7.944a14,14,0,0,0,.461-14.326Zm-56.77,48.982H90.71V86.6h15.484V97.225Zm24.98,0H115.682V86.6h15.484Zm25.275,0H140.957V86.6H156.44Zm3.92-35.914h0c-3.8,6.373-8.943,6.527-16.061,6.733l-.86.026c-6.258.193-12.593.269-18.889.244V58.279a5,5,0,1,0-2.492.154v9.855c-1.221-.013-2.428-.013-3.65-.038-1.812-.026-3.817.052-5.936.128-8.34.309-17.784.669-22.705-4.69-4.356-4.755-3.508-11.63-1.246-16.485a11.478,11.478,0,0,1,10-6.553,8,8,0,0,1,1.748.18,1.225,1.225,0,0,0,1-.231,1.27,1.27,0,0,0,.488-.912c.45-6.926,5.307-13.479,11.3-15.239a16.238,16.238,0,0,1,17.228,5.808,1.244,1.244,0,0,0,1.555.386A12.173,12.173,0,0,1,144.6,32.129a12.645,12.645,0,0,1,3.984,12.361A1.21,1.21,0,0,0,149,45.736a1.246,1.246,0,0,0,1.311.18,8.775,8.775,0,0,1,10.46,3.508,11.63,11.63,0,0,1-.413,11.885Zm-37.327-5.255a2.67,2.67,0,1,1,2.532-2.673,2.6,2.6,0,0,1-2.532,2.673Z" transform="translate(-84.187 -21.396)" fill="#1b54f8"></path></g></g></svg> 