<?xml version="1.0" encoding="UTF-8"?> <svg xmlns="http://www.w3.org/2000/svg" xmlns:xlink="http://www.w3.org/1999/xlink" width="90" height="90" viewBox="0 0 90 90"><defs><clipPath id="clip-path"><rect id="Rectangle_20" data-name="Rectangle 20" width="90" height="90" transform="translate(1050 498)" fill="#fff" stroke="#707070" stroke-width="1"></rect></clipPath></defs><g id="Mask_Group_13" data-name="Mask Group 13" transform="translate(-1050 -498)" clip-path="url(#clip-path)"><g id="Group_29" data-name="Group 29" transform="translate(-42.692 151)"><path id="Path_52" data-name="Path 52" d="M28.846,37.4a.991.991,0,0,1,0,1.429,1.062,1.062,0,0,1-1.47,0l-3.911-3.8a.988.988,0,0,1,0-1.428l3.911-3.8a1.06,1.06,0,0,1,1.47,0,.99.99,0,0,1,0,1.428L25.67,34.313Zm8.361,1.559a1.062,1.062,0,0,1-1.47,0,.989.989,0,0,1,0-1.429l3.176-3.086-3.176-3.087a.988.988,0,0,1,0-1.428,1.06,1.06,0,0,1,1.47,0l3.911,3.8a.988.988,0,0,1,0,1.428Zm-5.539,1.578a1.041,1.041,0,0,1-1.271.714,1.005,1.005,0,0,1-.735-1.235l3.253-11.8a1.042,1.042,0,0,1,1.271-.714,1.005,1.005,0,0,1,.735,1.235Zm-5.524,4.137a1.012,1.012,0,1,1,0,2.02H20.657a1.025,1.025,0,0,1-1.039-1.012V41.067a1.04,1.04,0,0,1,2.079,0v3.606Zm16.743-3.606a1.04,1.04,0,0,1,2.079,0v4.616a1.026,1.026,0,0,1-1.04,1.012H38.443a1.012,1.012,0,1,1,0-2.02H42.89V41.067ZM38.439,24.084h4.447v5.032a1.04,1.04,0,0,0,2.079,0V23.074a1.026,1.026,0,0,0-1.04-1.012H38.443a1.012,1.012,0,0,0,0,2.024ZM21.7,29.116V24.084h4.447a1.012,1.012,0,0,0,0-2.024H20.657a1.026,1.026,0,0,0-1.039,1.012v6.044a1.04,1.04,0,0,0,2.079,0Zm-7.005-8.3a21.462,21.462,0,0,0-4.649,16.2,21.782,21.782,0,0,0,8.51,14.657,23.014,23.014,0,0,0,16.671,4.517,22.715,22.715,0,0,0,15.081-8.27,21.462,21.462,0,0,0,4.649-16.2,21.78,21.78,0,0,0-8.51-14.653,23.015,23.015,0,0,0-16.671-4.517,22.715,22.715,0,0,0-15.081,8.269ZM30.016,14.56a20.617,20.617,0,0,0-13.692,7.506,19.506,19.506,0,0,0-4.217,14.723,19.772,19.772,0,0,0,7.723,13.3,20.916,20.916,0,0,0,15.152,4.1,20.617,20.617,0,0,0,13.692-7.506,19.5,19.5,0,0,0,4.217-14.723,19.772,19.772,0,0,0-7.723-13.3,20.916,20.916,0,0,0-15.152-4.1ZM12.9,16.79A25.261,25.261,0,0,0,14.19,53.219a26.792,26.792,0,0,0,16.172,6.865A27.1,27.1,0,0,0,47.425,55.55a1.061,1.061,0,0,1,1.341.127l1.1,1a1.354,1.354,0,0,0,1.871-.06L56.456,51.7l.025-.027h0l.009-.009a1.265,1.265,0,0,0-.1-1.78l-.028-.025h0l-.022-.021-1.092-.989a.988.988,0,0,1-.161-1.291,25.253,25.253,0,0,0-4.7-32.022A27.072,27.072,0,0,0,12.9,16.789ZM62.539,55.91l-4-3.627a3.246,3.246,0,0,0-.7-3.849h0a.968.968,0,0,0-.077-.068l-.489-.443a27.125,27.125,0,0,0,3.337-17.458,27.43,27.43,0,0,0-8.8-16.4,29.194,29.194,0,0,0-40.424,1.354,27.241,27.241,0,0,0,1.392,39.278,28.889,28.889,0,0,0,17.439,7.4,29.25,29.25,0,0,0,17.7-4.434l.539.489a3.441,3.441,0,0,0,2.431.881,3.487,3.487,0,0,0,1.657-.479l3.988,3.61a2.814,2.814,0,0,0,.65,3.307h0q7.326,6.671,14.652,13.339a3.952,3.952,0,0,0,5.448-.18c1.171-1.127,2.354-2.46,3.487-3.644a3.711,3.711,0,0,0-.188-5.323L65.94,56.336h0l-.005,0h0a2.971,2.971,0,0,0-2.095-.759,3.007,3.007,0,0,0-1.295.337Zm-4.7,4.686-3.8-3.433,3.178-3.308,3.786,3.429Zm5.463-2.749h0a.86.86,0,0,1,.59-.261.87.87,0,0,1,.616.222h0L79.155,71.134a1.731,1.731,0,0,1,.09,2.482l-3.483,3.64a1.828,1.828,0,0,1-2.52.084L58.6,64.006h0a.838.838,0,0,1-.04-1.2Z" transform="translate(1095 348.411)" fill="#1c54f8" fill-rule="evenodd"></path></g></g></svg> 