<?xml version="1.0" encoding="UTF-8"?> <svg xmlns="http://www.w3.org/2000/svg" xmlns:xlink="http://www.w3.org/1999/xlink" width="60" height="60" viewBox="0 0 60 60"><defs><clipPath id="clip-path"><rect id="Rectangle_11" data-name="Rectangle 11" width="60" height="60" transform="translate(78 239)" fill="#fff" stroke="#707070" stroke-width="1"></rect></clipPath></defs><g id="Mask_Group_4" data-name="Mask Group 4" transform="translate(-78 -239)" clip-path="url(#clip-path)"><g id="Group_5" data-name="Group 5" transform="translate(98.121 -618.372)"><path id="Path_23" data-name="Path 23" d="M50.127,36.928a2.752,2.752,0,0,0-3.455-1.665L35.7,38.841l-3.624,1.183a4.153,4.153,0,0,0-1.195-1.131l-7.517-4.725a8.464,8.464,0,0,0-4.7-1.355H8.454a.575.575,0,0,0-.575.575V46.606a.575.575,0,0,0,.573.575l8.311.03a21.017,21.017,0,0,1,7.1,1.909,12.64,12.64,0,0,0,4.694,1.3,5.653,5.653,0,0,0,2.633-.657l17.635-9.057a2.9,2.9,0,0,0,1.305-3.781ZM9.03,33.963h7.178v12.1L9.03,46.034ZM48.3,39.685,30.661,48.743c-2.1,1.079-3.889.339-6.362-.685A22.633,22.633,0,0,0,17.358,46.1V33.963h1.307a7.358,7.358,0,0,1,4.086,1.179l7.517,4.725a2.989,2.989,0,0,1,1.022,1.064.592.592,0,0,0,.057.106,2.994,2.994,0,0,1,0,2.8c-.416.672-1.064.766-1.875.271L22.2,39.667a.575.575,0,1,0-.6.982l7.276,4.438a2.343,2.343,0,0,0,3.452-.649,4.029,4.029,0,0,0,.276-3.378l3.449-1.126,10.973-3.578a1.6,1.6,0,0,1,2.036,1.012,1.733,1.733,0,0,1-.768,2.315ZM26.186,23.48a17.1,17.1,0,0,1,2.595,5.314v3.748a1.238,1.238,0,0,0,1.237,1.237h.068v1.28a1.225,1.225,0,0,0,1.223,1.223h3.63a1.225,1.225,0,0,0,1.223-1.223v-1.28h.068a1.238,1.238,0,0,0,1.237-1.237V28.794a17.1,17.1,0,0,1,2.595-5.314c.2-.308.4-.629.618-.969a8.927,8.927,0,1,0-15.111,0c.215.34.421.662.618.97Zm8.826,11.58a.073.073,0,0,1-.073.073h-3.63a.073.073,0,0,1-.073-.073v-1.28h3.776Zm1.218-2.431H30.018a.089.089,0,0,1-.087-.087v-3.25h6.386v3.25a.089.089,0,0,1-.087.087ZM31.1,21.17h-.882a.882.882,0,1,1,.882-.882ZM34,28.142H32.248V22.32H34ZM33.124,9.977A7.778,7.778,0,0,1,39.707,21.9c-.213.338-.417.656-.613.962a18.781,18.781,0,0,0-2.64,5.283h-1.3V22.32h.882A2.032,2.032,0,1,0,34,20.288v.882H32.248v-.882a2.032,2.032,0,1,0-2.032,2.032H31.1v5.822h-1.3a18.785,18.785,0,0,0-2.641-5.283c-.2-.305-.4-.624-.613-.962A7.777,7.777,0,0,1,33.123,9.977ZM35.15,21.17v-.882a.882.882,0,1,1,.882.882Zm7.665,2.46a.575.575,0,0,1,.785-.21l2.55,1.473a.575.575,0,1,1-.575,1l-2.55-1.473a.575.575,0,0,1-.21-.785Zm.162-11.472a.575.575,0,0,1,.211-.785l2.55-1.47a.575.575,0,1,1,.575,1l-2.55,1.47a.574.574,0,0,1-.785-.211Zm2.031,5.184h2.943a.575.575,0,0,1,0,1.15H45.008a.575.575,0,0,1,0-1.15ZM38.629,7.116l1.47-2.55a.575.575,0,1,1,1,.575l-1.47,2.55a.575.575,0,0,1-1-.575Zm-20.908,10.8a.575.575,0,0,1,.575-.575h2.943a.575.575,0,1,1,0,1.15H18.3A.575.575,0,0,1,17.721,17.917Zm5.712,5.713a.575.575,0,0,1-.21.785l-2.55,1.473a.575.575,0,0,1-.575-1l2.55-1.473a.575.575,0,0,1,.785.21ZM19.723,10.114a.575.575,0,0,1,.785-.211l2.55,1.47a.575.575,0,0,1-.288,1.073.569.569,0,0,1-.287-.077l-2.55-1.47A.575.575,0,0,1,19.723,10.114ZM25.151,5.14a.575.575,0,1,1,1-.575l1.47,2.55a.575.575,0,1,1-1,.575l-1.47-2.55Zm7.4.567V2.764a.575.575,0,1,1,1.15,0V5.707a.575.575,0,1,1-1.15,0Z" transform="translate(-19 861.183)" fill="#1c54f8"></path></g></g></svg> 