<?xml version="1.0" encoding="UTF-8"?> <svg xmlns="http://www.w3.org/2000/svg" xmlns:xlink="http://www.w3.org/1999/xlink" width="60" height="60" viewBox="0 0 60 60"><defs><clipPath id="clip-path"><rect id="Rectangle_16" data-name="Rectangle 16" width="60" height="60" transform="translate(1193 239)" fill="#fff" stroke="#707070" stroke-width="1"></rect></clipPath></defs><g id="Mask_Group_9" data-name="Mask Group 9" transform="translate(-1193 -239)" clip-path="url(#clip-path)"><g id="Group_10" data-name="Group 10" transform="translate(-90.973 67)"><path id="Path_38" data-name="Path 38" d="M29.769,25.809A5.722,5.722,0,1,0,35.49,31.53,5.722,5.722,0,0,0,29.769,25.809Zm0,10.092a4.37,4.37,0,1,1,4.37-4.37,4.37,4.37,0,0,1-4.37,4.37Zm9.087,1.714L37.533,35.87a8.81,8.81,0,0,0,.785-1.892l2.169-.3a.676.676,0,0,0,.583-.669V30.079a.675.675,0,0,0-.583-.669l-2.169-.3a8.8,8.8,0,0,0-.785-1.892l1.323-1.745a.676.676,0,0,0-.061-.886l-2.07-2.07a.676.676,0,0,0-.886-.061L34.093,23.78a8.868,8.868,0,0,0-1.052-.5V13.156H34.9a.676.676,0,0,0,.54-1.081l-5.135-6.8a.676.676,0,0,0-1.081,0l-5.135,6.8a.676.676,0,0,0,.54,1.081H26.5V23.282a8.782,8.782,0,0,0-1.05.5L23.7,22.458a.676.676,0,0,0-.886.061l-2.07,2.07a.676.676,0,0,0-.061.885L22,27.219a8.8,8.8,0,0,0-.785,1.892l-2.169.3a.675.675,0,0,0-.583.67v2.927a.675.675,0,0,0,.583.669l2.169.3A8.8,8.8,0,0,0,22,35.866l-1.323,1.745a.676.676,0,0,0,.061.886l2.07,2.07a.676.676,0,0,0,.886.061l1.747-1.319a8.806,8.806,0,0,0,1.892.785l.3,2.168a.676.676,0,0,0,.669.584h2.927a.676.676,0,0,0,.669-.584l.3-2.168a8.834,8.834,0,0,0,1.893-.785l1.746,1.323a.676.676,0,0,0,.886-.061l2.071-2.07a.676.676,0,0,0,.061-.886ZM25.991,11.8,29.769,6.8,33.546,11.8h-1.18a.676.676,0,0,0-.676.676v7.942a.673.673,0,0,0-.458-.18H28.305a.673.673,0,0,0-.458.18V12.481a.676.676,0,0,0-.676-.676ZM36.186,39.2l-1.638-1.243a.675.675,0,0,0-.768-.033,7.477,7.477,0,0,1-2.335.97.675.675,0,0,0-.52.566l-.281,2.035h-1.75l-.281-2.035a.676.676,0,0,0-.519-.567,7.475,7.475,0,0,1-2.337-.969.675.675,0,0,0-.768.033L23.352,39.2l-1.237-1.237,1.243-1.638a.676.676,0,0,0,.033-.769,7.453,7.453,0,0,1-.968-2.336.676.676,0,0,0-.567-.52l-2.035-.281V30.669l2.035-.281a.676.676,0,0,0,.567-.519,7.45,7.45,0,0,1,.969-2.337.675.675,0,0,0-.034-.768l-1.243-1.638,1.237-1.237,1.638,1.243a.676.676,0,0,0,.768.033,7.478,7.478,0,0,1,2.335-.97.676.676,0,0,0,.52-.567l.281-2.035h1.749l.281,2.035a.675.675,0,0,0,.519.566,7.464,7.464,0,0,1,2.337.969.676.676,0,0,0,.768-.033l1.638-1.243,1.237,1.237L36.18,26.763a.675.675,0,0,0-.033.77,7.475,7.475,0,0,1,.973,2.337.675.675,0,0,0,.566.519l2.035.281v1.749l-2.035.281a.675.675,0,0,0-.566.52,7.475,7.475,0,0,1-.973,2.337.675.675,0,0,0,.034.768l1.243,1.638Zm4.148-17.605h1.86V32.4a.676.676,0,0,0,.676.676h5.195a.676.676,0,0,0,.676-.676v-10.8H50.6a.676.676,0,0,0,.54-1.081l-5.135-6.8a.676.676,0,0,0-1.081,0l-5.131,6.8a.676.676,0,0,0,.54,1.081Zm5.135-6.359,3.776,5.008h-1.18a.676.676,0,0,0-.676.676v10.8H43.546v-10.8a.676.676,0,0,0-.676-.676H41.69ZM8.937,21.593H10.8V32.4a.676.676,0,0,0,.676.676h5.194a.676.676,0,0,0,.676-.676v-10.8H19.2a.676.676,0,0,0,.54-1.081l-5.135-6.8a.676.676,0,0,0-1.081,0l-5.135,6.8a.676.676,0,0,0,.54,1.081Zm5.135-6.359,3.778,5.008H16.668a.676.676,0,0,0-.676.676v10.8H12.149v-10.8a.676.676,0,0,0-.676-.676H10.293Zm0,26.1a4.2,4.2,0,1,0,4.2,4.2,4.2,4.2,0,0,0-4.2-4.2Zm0,7.048a2.849,2.849,0,1,1,2.847-2.848,2.849,2.849,0,0,1-2.847,2.848Zm7.513-4.53L20.2,43.665a6.341,6.341,0,0,0-.465-1.121l.843-1.115a.676.676,0,0,0-.061-.886L19.073,39.1a.676.676,0,0,0-.886-.061l-1.114.844a6.334,6.334,0,0,0-1.12-.464l-.191-1.385a.676.676,0,0,0-.669-.583H13.048a.676.676,0,0,0-.669.583l-.191,1.385a6.336,6.336,0,0,0-1.12.465l-1.114-.845a.676.676,0,0,0-.886.061L7.622,40.544a.675.675,0,0,0-.061.885l.844,1.114a6.341,6.341,0,0,0-.465,1.121l-1.384.19a.676.676,0,0,0-.584.67v2.045a.676.676,0,0,0,.584.67l1.384.19a6.341,6.341,0,0,0,.465,1.121l-.844,1.114a.675.675,0,0,0,.061.886l1.446,1.445a.676.676,0,0,0,.886.061l1.114-.844a6.337,6.337,0,0,0,1.12.465l.191,1.385a.676.676,0,0,0,.669.583h2.045a.676.676,0,0,0,.669-.583l.191-1.385a6.336,6.336,0,0,0,1.12-.465l1.114.845a.676.676,0,0,0,.886-.061l1.446-1.445a.676.676,0,0,0,.062-.886l-.844-1.114a6.4,6.4,0,0,0,.466-1.122l1.384-.19a.676.676,0,0,0,.583-.67V44.525a.676.676,0,0,0-.586-.67Zm-.768,2.125-1.243.171a.675.675,0,0,0-.566.52,5.031,5.031,0,0,1-.649,1.567.675.675,0,0,0,.033.769l.76,1-.613.612-1-.76a.676.676,0,0,0-.768-.033,5.027,5.027,0,0,1-1.567.649.676.676,0,0,0-.52.566l-.177,1.25h-.865l-.172-1.243a.676.676,0,0,0-.519-.567,5.008,5.008,0,0,1-1.567-.649.676.676,0,0,0-.768.033l-1,.756L9,50.011l.76-1a.676.676,0,0,0,.031-.769,5.027,5.027,0,0,1-.649-1.567.675.675,0,0,0-.566-.52L7.329,45.98v-.865l1.243-.171a.675.675,0,0,0,.566-.52,5.031,5.031,0,0,1,.649-1.567.676.676,0,0,0-.033-.769l-.76-1.005.615-.612,1,.76a.676.676,0,0,0,.768.033,5.008,5.008,0,0,1,1.567-.649.676.676,0,0,0,.519-.566l.172-1.246H14.5l.171,1.243a.676.676,0,0,0,.52.567,5,5,0,0,1,1.567.649.677.677,0,0,0,.769-.033l1-.76.613.612-.76,1a.675.675,0,0,0-.033.768A5.034,5.034,0,0,1,19,44.419a.675.675,0,0,0,.566.52l1.243.171Zm24.651-4.642a4.2,4.2,0,1,0,4.2,4.2,4.2,4.2,0,0,0-4.2-4.2Zm0,7.048a2.849,2.849,0,1,1,2.848-2.849,2.849,2.849,0,0,1-2.848,2.849Zm7.513-4.53-1.384-.19a6.342,6.342,0,0,0-.465-1.121l.845-1.115a.675.675,0,0,0-.061-.886L50.469,39.1a.676.676,0,0,0-.886-.061l-1.114.844a6.334,6.334,0,0,0-1.12-.464l-.191-1.385a.676.676,0,0,0-.669-.583H44.445a.676.676,0,0,0-.669.583l-.191,1.385a6.378,6.378,0,0,0-1.12.464l-1.114-.844a.676.676,0,0,0-.886.061l-1.446,1.445a.676.676,0,0,0-.062.885l.844,1.114a6.358,6.358,0,0,0-.465,1.121l-1.384.19a.676.676,0,0,0-.583.67v2.045a.676.676,0,0,0,.583.67l1.384.19A6.382,6.382,0,0,0,39.8,48.55l-.844,1.114a.676.676,0,0,0,.061.886l1.446,1.445a.676.676,0,0,0,.886.061l1.116-.844a6.377,6.377,0,0,0,1.12.464l.191,1.385a.676.676,0,0,0,.669.583H46.49a.676.676,0,0,0,.669-.583l.191-1.385a6.337,6.337,0,0,0,1.12-.464l1.114.845A.676.676,0,0,0,50.47,52l1.445-1.445a.675.675,0,0,0,.061-.886l-.844-1.114a6.359,6.359,0,0,0,.465-1.121l1.384-.19a.676.676,0,0,0,.584-.67V44.525a.676.676,0,0,0-.583-.67Zm-.767,2.125-1.246.171a.675.675,0,0,0-.566.52,5.031,5.031,0,0,1-.649,1.567.676.676,0,0,0,.033.769l.76,1-.616.613-1-.76a.676.676,0,0,0-.768-.033,5.02,5.02,0,0,1-1.567.649.676.676,0,0,0-.519.566L45.9,52.293h-.865l-.171-1.243a.676.676,0,0,0-.52-.567,5.008,5.008,0,0,1-1.567-.649.676.676,0,0,0-.768.033l-1,.76-.613-.612.76-1a.675.675,0,0,0,.03-.773,5.011,5.011,0,0,1-.649-1.567.676.676,0,0,0-.567-.52l-1.243-.171v-.865l1.243-.171a.676.676,0,0,0,.567-.52,5.017,5.017,0,0,1,.649-1.567.675.675,0,0,0-.033-.769l-.76-1.005L41,40.471l1,.76a.676.676,0,0,0,.768.033,5.013,5.013,0,0,1,1.567-.649.676.676,0,0,0,.52-.566l.171-1.246H45.9l.172,1.243a.676.676,0,0,0,.519.567,5.008,5.008,0,0,1,1.567.649.676.676,0,0,0,.768-.033l1-.758.613.612-.76,1a.675.675,0,0,0-.033.768,5.039,5.039,0,0,1,.649,1.567.675.675,0,0,0,.566.52l1.246.171Z" transform="translate(1284 172.999)" fill="#1c54f8"></path></g></g></svg> 