<?xml version="1.0" encoding="UTF-8"?> <svg xmlns="http://www.w3.org/2000/svg" xmlns:xlink="http://www.w3.org/1999/xlink" width="90" height="90" viewBox="0 0 90 90"><defs><clipPath id="clip-path"><rect id="Rectangle_16" data-name="Rectangle 16" width="90" height="90" transform="translate(1217 589)" fill="#fff" stroke="#707070" stroke-width="1"></rect></clipPath></defs><g id="Mask_Group_16" data-name="Mask Group 16" transform="translate(-1217 -589)" clip-path="url(#clip-path)"><g id="Group_248" data-name="Group 248" transform="translate(-397.5 119.583)"><path id="Path_343" data-name="Path 343" d="M409.182,340.11a.613.613,0,0,1-.614-.307l-9.669-9.516a.977.977,0,0,1,1.381-1.381l9.516,9.669a.718.718,0,0,1,0,1.228c-.154.307-.307.307-.614.307Z" transform="translate(1267.953 192.863)" fill="#1b54f8" fill-rule="evenodd"></path><path id="Path_344" data-name="Path 344" d="M176.195,117.827c-.307,0-.46,0-.614-.153L161,106.162a.951.951,0,0,1-.154-1.228.971.971,0,0,1,1.381-.153l14.12,11.2,17.958-2.609a.934.934,0,0,1,.307,1.842Z" transform="translate(1472.546 385.524)" fill="#1b54f8" fill-rule="evenodd"></path><path id="Path_345" data-name="Path 345" d="M265.364,81.29h-.307a.873.873,0,0,1-.614-1.074l4.6-17.343c.154-.614.614-.921,1.074-.767a.949.949,0,0,1,.767,1.228l-4.758,17.343c0,.307-.46.614-.767.614Z" transform="translate(1383.377 422.06)" fill="#1b54f8" fill-rule="evenodd"></path><path id="Path_346" data-name="Path 346" d="M147.547,97.573a19.067,19.067,0,0,1-5.065-.614,19.817,19.817,0,0,1,5.066-38.984,19.068,19.068,0,0,1,5.065.614,19.817,19.817,0,0,1-5.066,38.984Zm0-37.756a17.952,17.952,0,0,0-4.6,35.3,15.844,15.844,0,0,0,4.6.614,17.952,17.952,0,0,0,4.6-35.3A15.844,15.844,0,0,0,147.547,59.817Z" transform="translate(1500.887 425.577)" fill="#1b54f8" fill-rule="evenodd"></path><path id="Path_347" data-name="Path 347" d="M97.934,55.869a28,28,0,0,1-19.8-47.732,28,28,0,0,1,39.6,39.6,28.12,28.12,0,0,1-19.8,8.135Zm0-54.026a26.092,26.092,0,1,0,18.418,7.674A26.027,26.027,0,0,0,97.934,1.843Z" transform="translate(1550.499 475.415)" fill="#1b54f8" fill-rule="evenodd"></path><path id="Path_348" data-name="Path 348" d="M457.133,393.57a6.827,6.827,0,0,1-4.911-2L437.18,376.533a.934.934,0,0,1,0-1.228l8.6-8.6a.767.767,0,0,1,1.228,0l15.042,15.042a7.141,7.141,0,0,1,0,9.823A7.392,7.392,0,0,1,457.133,393.57Zm-17.958-17.65,14.274,14.274a4.761,4.761,0,0,0,3.684,1.535,4.444,4.444,0,0,0,3.53-1.535,5.1,5.1,0,0,0,0-7.214l-14.274-14.274Z" transform="translate(1235.043 160.43)" fill="#1b54f8" fill-rule="evenodd"></path></g></g></svg> 