<?xml version="1.0" encoding="UTF-8"?> <svg xmlns="http://www.w3.org/2000/svg" xmlns:xlink="http://www.w3.org/1999/xlink" width="60" height="60" viewBox="0 0 60 60"><defs><clipPath id="clip-path"><rect id="Rectangle_68" data-name="Rectangle 68" width="60" height="60" transform="translate(534 218)" fill="#fff" stroke="#707070" stroke-width="1"></rect></clipPath></defs><g id="Mask_Group_22" data-name="Mask Group 22" transform="translate(-534 -218)" clip-path="url(#clip-path)"><g id="Group_27" data-name="Group 27" transform="translate(75.487 12.213)"><path id="Path_80" data-name="Path 80" d="M14.12,19.8a.663.663,0,0,1,.663-.663H36.439a.663.663,0,1,1,0,1.326H14.782a.663.663,0,0,1-.662-.663ZM42.556,45.274V49.03a.663.663,0,0,1-.664.664H9.329a.663.663,0,0,1-.663-.663V46.067h-3.2A.663.663,0,0,1,4.8,45.4V1.663A.663.663,0,0,1,5.463,1H38.026a.663.663,0,0,1,.663.663V9.092l3.671,3.672a.661.661,0,0,1,.194.469V24.567h1.316a.663.663,0,0,1,.612.407,4.633,4.633,0,0,0,4.046,2.9.663.663,0,0,1,.66.6c.567,5.676,1.325,13.289-6.634,16.807Zm-7.943-32.7h5.678l-5.678-5.68ZM9.329,4.627H33.951a.663.663,0,0,1,.471.194l2.944,2.944V2.326H6.126V44.74h2.54V5.29a.663.663,0,0,1,.663-.663Zm31.9,41.166c-.24.083-.486.164-.74.24a.66.66,0,0,1-.382,0c-4.232-1.273-6.553-3.475-7.777-6.053H28.752a.663.663,0,1,1,0-1.326H31.8a15.319,15.319,0,0,1-.687-3.927H14.782a.663.663,0,1,1,0-1.326h16.3c0-1.166.082-2.322.181-3.428H14.782a.663.663,0,1,1,0-1.326H31.39l.017-.177a.663.663,0,0,1,.66-.6A4.6,4.6,0,0,0,36,25.217H14.782a.663.663,0,1,1,0-1.326H36.439a.663.663,0,0,1,.663.663v.014H41.23V13.9H33.952a.663.663,0,0,1-.663-.663V5.954H9.992V48.368H41.229Zm6.335-7.666c.834-2.658.681-5.64.359-8.965a5.957,5.957,0,0,1-4.476-3.269h-6.3a5.957,5.957,0,0,1-4.476,3.269c-.319,3.325-.474,6.307.36,8.965,1.007,3.211,3.386,5.365,7.267,6.578,3.881-1.214,6.26-3.367,7.267-6.578Zm-.885-7.416a17.294,17.294,0,0,1-.5,7.355c-.885,2.387-2.74,4.021-5.666,4.994a.67.67,0,0,1-.419,0c-2.928-.973-4.783-2.607-5.669-4.994a17.321,17.321,0,0,1-.5-7.355.662.662,0,0,1,.495-.584,5.313,5.313,0,0,0,3.129-2.356.663.663,0,0,1,.563-.314h4.39a.663.663,0,0,1,.563.314,5.315,5.315,0,0,0,3.129,2.356.663.663,0,0,1,.494.584Zm-1.284.562a6.684,6.684,0,0,1-3.26-2.492H38.46a6.684,6.684,0,0,1-3.26,2.492c-.375,4.65-.127,8.619,5.1,10.456,5.226-1.837,5.475-5.806,5.1-10.456Zm-2.865,2.2-2.912,2.914-1.554-1.554a.663.663,0,1,0-.938.938l2.02,2.023a.663.663,0,0,0,.938,0l3.383-3.383a.663.663,0,1,0-.938-.938Z" transform="translate(461.713 210.787)" fill="#1c54f8" stroke="#fff" stroke-width="0.4"></path></g></g></svg> 