<?xml version="1.0" encoding="UTF-8"?> <svg xmlns="http://www.w3.org/2000/svg" width="90" height="90" viewBox="0 0 90 90" fill="none"><mask id="mask0_1_162" style="mask-type:luminance" maskUnits="userSpaceOnUse" x="0" y="0" width="90" height="90"><path d="M90 0H0V90H90V0Z" fill="white"></path></mask><g mask="url(#mask0_1_162)"><path d="M86.3 37.1C85.7 36.1 84.7 35.4 83.5 35.2C81.2 34.7 78.9 36.2 78.3 38.5L75.2 50.7C74.2 50.6 73.3 50.8 72.5 51.2L58 59.5C56.4 60.4 55.2 61.8 54.6 63.4L50.8 72.5L49.4 72.1C48.8 71.9 48.1 72.3 47.9 72.9L45.3 81.5C45.1 82.1 45.5 82.8 46.1 83L67.9 89.6C68 89.6 68.1 89.7 68.2 89.7C68.7 89.7 69.2 89.4 69.3 88.9L71.9 80.3C72.1 79.7 71.7 79 71.1 78.8L68.5 78L68.8 76.2L79.6 67.1C81.1 65.9 82.1 64.1 82.4 62.2L86.9 40.5C87.2 39.3 87 38.1 86.3 37.1ZM67.4 87.1L47.9 81.2L49.8 74.9L51.1 75.3L69.3 80.8L67.4 87.1ZM84.6 39.9L80.1 61.7C80.1 61.7 80.1 61.7 80.1 61.8C79.9 63.2 79.2 64.4 78.1 65.3L67 74.7C66.8 74.9 66.6 75.1 66.6 75.4L66.3 77.4L53.1 73.4L56.8 64.5C57.3 63.3 58.1 62.4 59.2 61.7L73.7 53.4C74.3 53.1 75 53 75.6 53.3C75.9 53.5 76.2 53.7 76.4 54C76.9 55 76.6 56.2 75.7 56.8L65.1 62.9C64.6 63.3 64.4 64 64.8 64.6C65.1 65.1 65.8 65.3 66.3 65L76.9 58.9C78.9 57.7 79.6 55.2 78.6 53.1C78.6 53 78.6 53 78.5 52.9C78.2 52.4 77.9 52 77.5 51.7L80.7 39.1C80.9 38 82 37.3 83.1 37.5C84.2 37.8 84.9 38.9 84.6 39.9ZM42.3 73C42.1 72.4 41.4 72 40.8 72.2L39.4 72.6L35.6 63.5C34.9 61.8 33.7 60.5 32.2 59.6L17.7 51.3C16.9 50.8 15.9 50.6 15 50.8L11.9 38.6C11.3 36.3 9.00002 34.8 6.70002 35.3C4.30002 35.8 2.8 38.1 3.3 40.5L7.8 62.3C8.1 64.2 9.09998 66 10.6 67.2L21.4 76.3L21.7 78.1L19.1 78.9C18.5 79.1 18.1 79.8 18.3 80.4L20.9 89C21.1 89.5 21.5 89.8 22 89.8C22.1 89.8 22.2 89.8 22.3 89.7L44.1 83.1C44.7 82.9 45.1 82.2 44.9 81.6L42.3 73ZM23.6 75.4C23.6 75.1 23.4 74.9 23.2 74.7L12.1 65.3C11 64.4 10.3 63.2 10.1 61.8C10.1 61.8 10.1 61.8 10.1 61.7L5.59998 39.9C5.39998 38.8 6.09998 37.8 7.09998 37.5C8.19998 37.3 9.20001 38 9.50001 39.1L12.7 51.7C12.3 52 11.9 52.4 11.7 52.9L11.6 53C10.6 55.1 11.3 57.6 13.3 58.8L23.9 64.9C24.5 65.2 25.2 64.9 25.5 64.3C25.8 63.8 25.6 63.1 25.1 62.8L14.5 56.7C13.6 56.1 13.3 54.9 13.8 53.9C14 53.6 14.3 53.3 14.6 53.2C15.2 52.9 15.9 52.9 16.5 53.3L31 61.6C32.1 62.2 33 63.2 33.4 64.4L37.1 73.3L23.9 77.3L23.6 75.4ZM22.8 87.1L20.9 80.8L39.1 75.3L40.4 74.9L42.3 81.2L22.8 87.1ZM22.4 30.4L25.9 43.1C25 43.6 24.5 44.6 24.5 45.6V48.6C24.5 50.2 25.8 51.5 27.4 51.5H62.8C64.4 51.5 65.7 50.2 65.7 48.6V45.6C65.7 44.6 65.2 43.6 64.3 43.1L67.8 30.4C68 29.8 67.6 29.1 67 28.9C66.8 28.8 66.6 28.8 66.4 28.9L56.1 31.4L45.9 21C45.4 20.5 44.7 20.5 44.2 21L34 31.4L23.7 28.9C23.1 28.7 22.4 29.2 22.3 29.8C22.3 30 22.3 30.2 22.4 30.4ZM63.3 48.6C63.3 48.9 63.1 49.1 62.8 49.1H27.4C27.1 49.1 26.9 48.9 26.9 48.6V45.6C26.9 45.3 27.1 45.1 27.4 45.1H62.8C63.1 45.1 63.3 45.3 63.3 45.6V48.6ZM34.2 33.8C34.6 33.9 35 33.8 35.3 33.5L45.1 23.5L54.9 33.5C55.2 33.8 55.6 33.9 56 33.8L65 31.7L61.9 42.7H28.3L25.2 31.7L34.2 33.8ZM68.8 22.4C72.2 22.4 75 25.2 75 28.6C75.1 29.3 75.6 29.7 76.3 29.7C76.9 29.6 77.3 29.2 77.4 28.6C77.4 25.2 80.2 22.4 83.6 22.4C84.3 22.5 84.8 22 84.9 21.3C85 20.6 84.5 20.1 83.8 20C83.7 20 83.7 20 83.6 20C80.2 20 77.4 17.2 77.4 13.8C77.4 13.2 76.8 12.7 76.2 12.7C75.5 12.7 75 13.2 75 13.9C75 17.3 72.2 20.1 68.8 20.1C68.1 20.2 67.7 20.7 67.7 21.4C67.8 21.9 68.2 22.4 68.8 22.4ZM76.2 18.2C76.9 19.4 78 20.5 79.2 21.2C78 21.9 76.9 23 76.2 24.2C75.5 23 74.4 21.9 73.2 21.2C74.4 20.5 75.5 19.4 76.2 18.2ZM6.59998 23.3C9.99998 23.3 12.8 26.1 12.8 29.5C12.9 30.2 13.4 30.6 14.1 30.6C14.7 30.5 15.1 30.1 15.2 29.5C15.2 26.1 18 23.3 21.4 23.3C22.1 23.2 22.5 22.7 22.5 22C22.4 21.4 22 21 21.4 20.9C18 20.9 15.2 18.1 15.2 14.7C15.2 14 14.7 13.5 14 13.5C13.3 13.5 12.8 14 12.8 14.7C12.8 18.1 9.99998 20.9 6.59998 20.9C5.89998 20.8 5.4 21.3 5.3 22C5.2 22.7 5.70003 23.2 6.40003 23.3C6.50003 23.3 6.59998 23.3 6.59998 23.3ZM14 19C14.7 20.2 15.8 21.3 17 22C15.8 22.7 14.7 23.8 14 25C13.3 23.8 12.2 22.7 11 22C12.3 21.3 13.3 20.3 14 19ZM37.7 9.7C41.1 9.7 43.9 12.5 43.9 15.9C44 16.6 44.5 17 45.2 17C45.8 16.9 46.2 16.5 46.3 15.9C46.3 12.5 49.1 9.7 52.5 9.7C53.2 9.6 53.6 9.1 53.6 8.4C53.5 7.8 53.1 7.4 52.5 7.3C49.1 7.3 46.3 4.5 46.3 1.1C46.2 0.399998 45.7 0 45 0C44.4 0.1 44 0.499998 43.9 1.1C43.9 4.5 41.1 7.3 37.7 7.3C37 7.2 36.5 7.7 36.4 8.4C36.3 9.1 36.8 9.6 37.5 9.7C37.6 9.7 37.6 9.7 37.7 9.7ZM45.1 5.5C45.8 6.7 46.9 7.8 48.1 8.5C46.9 9.2 45.8 10.3 45.1 11.5C44.4 10.3 43.3 9.2 42.1 8.5C43.3 7.8 44.3 6.7 45.1 5.5Z" fill="#1B54F8" stroke="#1B54F8" stroke-width="0.25" stroke-miterlimit="10"></path></g></svg> 