<?xml version="1.0" encoding="UTF-8"?> <!-- Generator: Adobe Illustrator 25.2.3, SVG Export Plug-In . SVG Version: 6.00 Build 0) --> <svg xmlns="http://www.w3.org/2000/svg" xmlns:xlink="http://www.w3.org/1999/xlink" version="1.1" id="Layer_1" x="0px" y="0px" viewBox="0 0 80 80" style="enable-background:new 0 0 80 80;" xml:space="preserve"> <style type="text/css"> .st0{fill:#1B54F8;stroke:#FFFFFF;stroke-width:0.35;} </style> <desc>Created with Sketch.</desc> <g id="Computer-Vision"> <g id="Group-41" transform="translate(6.000000, 5.000000)"> <path id="Path" class="st0" d="M48.2,5.5l1-2.1c-1.5-0.7-3-1.3-4.5-1.8L44,3.9C45.4,4.3,46.8,4.9,48.2,5.5z"></path> <path id="Path_1_" class="st0" d="M35.1,2.3c1.5,0,3,0.2,4.5,0.5L40,0.5c-1.6-0.3-3.2-0.4-4.8-0.5L35.1,2.3z"></path> <path id="Path_2_" class="st0" d="M52.1,7.8c1.2,0.8,2.3,1.7,3.4,2.6L57,8.6c-1.2-1-2.4-1.9-3.7-2.8L52.1,7.8z"></path> <path id="Shape" class="st0" d="M7,19.9c0-0.8-0.3-1.6-0.8-2.2c4.5-7.1,11.7-12.4,19.9-14.4v0c1.5-0.4,3-0.6,4.5-0.8l-0.2-2.3 c-1.6,0.2-3.2,0.5-4.8,0.8v0C16.7,3.2,9,8.8,4.2,16.5c-0.2,0-0.5-0.1-0.7-0.1C1.6,16.4,0,18,0,19.9s1.6,3.5,3.5,3.5S7,21.9,7,19.9 z M3.5,21.1c-0.6,0-1.2-0.5-1.2-1.2c0-0.6,0.5-1.2,1.2-1.2s1.2,0.5,1.2,1.2C4.7,20.6,4.2,21.1,3.5,21.1z"></path> <path id="Path_3_" class="st0" d="M11,61.7c1.2,1,2.4,1.9,3.7,2.8l1.3-2c-1.2-0.8-2.3-1.7-3.4-2.6L11,61.7z"></path> <path id="Path_4_" class="st0" d="M18.8,66.9c1.5,0.7,3,1.3,4.5,1.8l0.7-2.2c-1.4-0.5-2.8-1-4.2-1.7L18.8,66.9z"></path> <path id="Path_5_" class="st0" d="M28,69.8c1.6,0.3,3.2,0.4,4.8,0.5l0.1-2.3c-1.5,0-3-0.2-4.5-0.5L28,69.8z"></path> <path id="Shape_1_" class="st0" d="M64.5,46.9c-1.9,0-3.5,1.6-3.5,3.5c0,0.8,0.3,1.6,0.8,2.2C57.3,59.8,50.1,65,41.9,67v0 c-1.5,0.4-3,0.6-4.5,0.8l0.2,2.3c1.6-0.2,3.2-0.5,4.8-0.8v0c8.8-2.2,16.5-7.8,21.3-15.5c0.2,0,0.5,0.1,0.7,0.1 c1.9,0,3.5-1.6,3.5-3.5S66.4,46.9,64.5,46.9z M64.5,51.6c-0.6,0-1.2-0.5-1.2-1.2s0.5-1.2,1.2-1.2s1.2,0.5,1.2,1.2 S65.1,51.6,64.5,51.6z"></path> <path id="Shape_2_" class="st0" d="M62.1,35.2C62.1,35.2,62.1,35.2,62.1,35.2C62.1,19.6,49.5,7,34,7S5.9,19.6,5.9,35.2 c0,0,0,0,0,0c0,15.5,12.6,28.1,28.1,28.1S62.1,50.7,62.1,35.2z M34,9.4c13.1,0,23.9,9.8,25.6,22.5c-4.3-4.5-14-13.1-25.6-13.1 S12.7,27.3,8.4,31.8C10.1,19.2,20.9,9.4,34,9.4z M40,22.4l-2.3,4.1c-0.8-0.3-1.6-0.5-2.5-0.7v-4.7c0.1,0,0.2,0,0.3,0 C37.1,21.3,38.6,21.8,40,22.4z M34,42.2c-3.9,0-7-3.2-7-7s3.2-7,7-7s7,3.2,7,7S37.9,42.2,34,42.2z M26.5,29.5l-4.1-2.4 c1-1.4,2.2-2.6,3.5-3.5l2.4,4.1C27.7,28.2,27.1,28.8,26.5,29.5z M28.3,42.6L26,46.7c-1.4-1-2.6-2.2-3.5-3.5l4.1-2.4 C27.1,41.5,27.7,42.1,28.3,42.6z M41.5,40.8l4.1,2.4c-1,1.4-2.2,2.6-3.5,3.5l-2.4-4.1C40.3,42.1,40.9,41.5,41.5,40.8z M39.7,27.7 l2.4-4.1c1.4,1,2.6,2.2,3.5,3.5l-4.1,2.4C40.9,28.8,40.3,28.2,39.7,27.7z M32.8,21.1v4.7c-0.9,0.1-1.7,0.3-2.5,0.7L28,22.4 c1.4-0.7,2.9-1.1,4.5-1.3C32.6,21.2,32.7,21.2,32.8,21.1z M21.3,29.2l4.1,2.3c-0.3,0.8-0.5,1.6-0.7,2.5H20 C20.1,32.3,20.6,30.7,21.3,29.2z M24.7,36.3c0.1,0.9,0.3,1.7,0.7,2.5l-4.1,2.3c-0.7-1.5-1.2-3.1-1.3-4.8L24.7,36.3L24.7,36.3z M28,47.9l2.3-4.1c0.8,0.3,1.6,0.5,2.5,0.7v4.7c-0.1,0-0.2,0-0.3,0C30.9,49,29.4,48.5,28,47.9z M35.2,49.2v-4.7 c0.9-0.1,1.7-0.3,2.5-0.7l2.3,4.1c-1.4,0.7-2.9,1.1-4.5,1.3C35.4,49.1,35.3,49.2,35.2,49.2z M46.7,41.1l-4.1-2.3 c0.3-0.8,0.5-1.6,0.7-2.5H48C47.9,38,47.4,39.7,46.7,41.1z M43.3,34c-0.1-0.9-0.3-1.7-0.7-2.5l4.1-2.3c0.7,1.5,1.2,3.1,1.3,4.8 L43.3,34L43.3,34z M17.6,35.2c0,4,1.4,7.6,3.8,10.5C15,42.1,10.2,37,8.6,35.2c1.6-1.9,6.4-7,12.8-10.5 C19,27.5,17.6,31.2,17.6,35.2z M50.4,35.2c0-4-1.4-7.6-3.8-10.5c6.4,3.5,11.2,8.6,12.8,10.5c-1.6,1.9-6.4,7-12.8,10.5 C49,42.8,50.4,39.1,50.4,35.2z M34,60.9c-13.1,0-23.9-9.8-25.6-22.5c4.3,4.5,14,13.1,25.6,13.1S55.3,43,59.6,38.5 C57.9,51.1,47.1,60.9,34,60.9z"></path> </g> </g> </svg> 