<?xml version="1.0" encoding="UTF-8"?> <svg xmlns="http://www.w3.org/2000/svg" xmlns:xlink="http://www.w3.org/1999/xlink" width="60" height="60" viewBox="0 0 60 60"><defs><clipPath id="clip-path"><rect id="Rectangle_70" data-name="Rectangle 70" width="60" height="60" transform="translate(63 419)" fill="#fff" stroke="#707070" stroke-width="1"></rect></clipPath></defs><g id="Mask_Group_26" data-name="Mask Group 26" transform="translate(-63 -419)" clip-path="url(#clip-path)"><g id="Group_48" data-name="Group 48" transform="translate(-105.24 18.805)"><path id="Path_100" data-name="Path 100" d="M38.649,23.957a23.141,23.141,0,0,1,17.187,7.31,22.82,22.82,0,0,1-17.785,8.012,23.141,23.141,0,0,1-17.187-7.31,22.817,22.817,0,0,1,17.785-8.012ZM27.167,38.825a26.382,26.382,0,0,0,10.884,2.327c7.979,0,15.359-3.5,19.743-9.353a.934.934,0,0,0-.027-1.158,23.206,23.206,0,0,0-8.234-6.23,26.378,26.378,0,0,0-10.884-2.327c-7.979,0-15.361,3.5-19.745,9.353a.937.937,0,0,0,.029,1.158,23.2,23.2,0,0,0,8.234,6.23ZM38.35,27.633a3.985,3.985,0,1,0,3.985,3.985,3.988,3.988,0,0,0-3.985-3.985Zm0,9.842a5.857,5.857,0,1,0-5.857-5.857,5.863,5.863,0,0,0,5.857,5.857ZM55.459,51.808H21.241a4.5,4.5,0,0,1-4.5-4.5v-.281H59.959v.281a4.5,4.5,0,0,1-4.5,4.5Zm-12.29,5.1h-9.64V53.681h9.64v3.226Zm10.654,2.7a.823.823,0,0,1-.822.823H23.7a.823.823,0,0,1,0-1.645H53a.823.823,0,0,1,.822.822ZM21.241,15.625a4.505,4.505,0,0,0-4.5,4.5V45.155H59.959V20.126a4.505,4.505,0,0,0-4.5-4.5Zm34.218-1.873H21.241a6.38,6.38,0,0,0-6.373,6.373V47.308a6.38,6.38,0,0,0,6.373,6.373H31.656v3.226H23.7a2.7,2.7,0,0,0,0,5.39H53a2.7,2.7,0,1,0,0-5.39H45.042V53.681H55.459a6.38,6.38,0,0,0,6.373-6.373V20.126A6.38,6.38,0,0,0,55.459,13.753Z" transform="translate(160.372 392.443)" fill="#1c54f8" stroke="#fff" stroke-width="0.4" fill-rule="evenodd"></path></g></g></svg> 