<?xml version="1.0" encoding="UTF-8"?> <svg xmlns="http://www.w3.org/2000/svg" xmlns:xlink="http://www.w3.org/1999/xlink" width="90" height="90" viewBox="0 0 90 90"><defs><clipPath id="clip-path"><rect id="Rectangle_7" data-name="Rectangle 7" width="90" height="90" transform="translate(1401 187)" fill="#fff"></rect></clipPath></defs><g id="Mask_Group_2" data-name="Mask Group 2" transform="translate(-1401 -187)" clip-path="url(#clip-path)"><g id="Group_161" data-name="Group 161" transform="translate(964.993 -601.48)"><path id="Path_58" data-name="Path 58" d="M429.424,34.563l1.239-2.592a42.864,42.864,0,0,0-5.521-2.185l-.869,2.737a40.141,40.141,0,0,1,5.151,2.04Z" transform="translate(68.564 762.687)" fill="#1b54f8" stroke="#fff" stroke-width="1"></path><path id="Path_59" data-name="Path 59" d="M357.86,20.509a40.556,40.556,0,0,1,5.515.554l.483-2.83a43.26,43.26,0,0,0-5.9-.593Z" transform="translate(124.078 772.839)" fill="#1b54f8" stroke="#fff" stroke-width="1"></path><path id="Path_60" data-name="Path 60" d="M485.04,63.34a40.184,40.184,0,0,1,4.18,3.178L491.1,64.35a43.029,43.029,0,0,0-4.48-3.4Z" transform="translate(17.769 736.641)" fill="#1b54f8" stroke="#fff" stroke-width="1"></path><path id="Path_61" data-name="Path 61" d="M104.871,43.127a4.263,4.263,0,0,0-1-2.721,40.365,40.365,0,0,1,24.317-17.64h0a40.2,40.2,0,0,1,5.458-.958l-.3-2.855A43.2,43.2,0,0,0,127.5,19.98h0a43.248,43.248,0,0,0-26.073,18.928,4.262,4.262,0,0,0-.864-.088,4.308,4.308,0,1,0,4.308,4.308Zm-4.308,1.436A1.436,1.436,0,1,1,102,43.127,1.437,1.437,0,0,1,100.564,44.563Z" transform="translate(342.75 771.741)" fill="#1b54f8" stroke="#fff" stroke-width="1"></path><path id="Path_62" data-name="Path 62" d="M178.01,467.267a43.034,43.034,0,0,0,4.48,3.4l1.585-2.395a40.18,40.18,0,0,1-4.18-3.178Z" transform="translate(274.413 398.811)" fill="#1b54f8" stroke="#fff" stroke-width="1"></path><path id="Path_63" data-name="Path 63" d="M236.79,503.688a42.867,42.867,0,0,0,5.521,2.185l.869-2.737a39.86,39.86,0,0,1-5.151-2.041Z" transform="translate(225.28 368.722)" fill="#1b54f8" stroke="#fff" stroke-width="1"></path><path id="Path_64" data-name="Path 64" d="M305.59,524.331a43.267,43.267,0,0,0,5.9.593l.092-2.869a40.556,40.556,0,0,1-5.515-.555Z" transform="translate(167.77 351.666)" fill="#1b54f8" stroke="#fff" stroke-width="1"></path><path id="Path_65" data-name="Path 65" d="M408.972,367.5a4.313,4.313,0,0,0-4.308,4.308,4.263,4.263,0,0,0,1,2.721,40.366,40.366,0,0,1-24.317,17.64h0a40.2,40.2,0,0,1-5.458.958l.3,2.855a43.287,43.287,0,0,0,5.847-1.025h0a43.247,43.247,0,0,0,26.073-18.928,4.308,4.308,0,1,0,.866-8.528Zm0,5.744a1.436,1.436,0,1,1,1.436-1.436A1.437,1.437,0,0,1,408.972,373.244Z" transform="translate(109.01 480.394)" fill="#1b54f8" stroke="#fff" stroke-width="1"></path><path id="Path_66" data-name="Path 66" d="M208.924,104.473v-.005a34.462,34.462,0,0,0-68.924,0v.005a34.462,34.462,0,0,0,68.924,0ZM174.462,72.879a31.632,31.632,0,0,1,31.318,27.5c-5.237-5.475-17.156-16.016-31.318-16.016s-26.081,10.541-31.318,16.016a31.632,31.632,0,0,1,31.318-27.5ZM181.794,88.9l-2.876,4.983a11.366,11.366,0,0,0-3.018-.8V87.315c.132.007.265.013.4.022a17.122,17.122,0,0,1,5.5,1.561Zm-7.332,24.188a8.616,8.616,0,1,1,8.616-8.616A8.624,8.624,0,0,1,174.462,113.086Zm-9.137-15.55-5-2.888a17.328,17.328,0,0,1,4.318-4.318l2.888,5A11.568,11.568,0,0,0,165.326,97.536Zm2.2,16.071-2.888,5a17.328,17.328,0,0,1-4.318-4.318l5-2.888A11.57,11.57,0,0,0,167.528,113.607Zm16.071-2.2,5,2.888a17.328,17.328,0,0,1-4.318,4.318l-2.888-5A11.568,11.568,0,0,0,183.6,111.4Zm-2.2-16.071,2.888-5a17.328,17.328,0,0,1,4.318,4.318l-5,2.888A11.569,11.569,0,0,0,181.4,95.333Zm-8.37-8.016v5.766a11.368,11.368,0,0,0-3.018.8L167.132,88.9a17.091,17.091,0,0,1,5.5-1.56c.132-.012.264-.016.4-.023Zm-14.136,9.821,4.983,2.876a11.366,11.366,0,0,0-.8,3.018H157.3a17.126,17.126,0,0,1,1.589-5.894Zm4.183,8.768a11.367,11.367,0,0,0,.8,3.018l-4.983,2.876a17.085,17.085,0,0,1-1.588-5.9h5.771Zm4.057,14.136,2.876-4.983a11.366,11.366,0,0,0,3.018.8v5.766c-.132-.007-.265-.013-.4-.022a17.122,17.122,0,0,1-5.5-1.561Zm8.768,1.581v-5.766a11.368,11.368,0,0,0,3.018-.8l2.876,4.983a17.091,17.091,0,0,1-5.5,1.56c-.132.012-.264.016-.4.023Zm14.136-9.821-4.983-2.876a11.367,11.367,0,0,0,.8-3.018h5.771a17.126,17.126,0,0,1-1.589,5.894Zm-4.183-8.768a11.367,11.367,0,0,0-.8-3.018l4.983-2.876a17.084,17.084,0,0,1,1.588,5.9H185.85Zm-31.49,1.436A20,20,0,0,0,159,117.3a61.823,61.823,0,0,1-15.686-12.833,61.679,61.679,0,0,1,15.7-12.841,20,20,0,0,0-4.653,12.843Zm40.206,0a20,20,0,0,0-4.644-12.832,61.824,61.824,0,0,1,15.686,12.833,61.679,61.679,0,0,1-15.7,12.841,20,20,0,0,0,4.653-12.843Zm-20.1,31.59a31.632,31.632,0,0,1-31.318-27.5c5.237,5.475,17.156,16.016,31.318,16.016s26.081-10.541,31.318-16.016A31.632,31.632,0,0,1,174.463,136.06Z" transform="translate(306.186 729.065)" fill="#1b54f8" stroke="#fff" stroke-width="1"></path></g></g></svg> 