<?xml version="1.0" encoding="UTF-8"?> <!-- Generator: Adobe Illustrator 25.3.1, SVG Export Plug-In . SVG Version: 6.00 Build 0) --> <svg xmlns="http://www.w3.org/2000/svg" xmlns:xlink="http://www.w3.org/1999/xlink" version="1.1" id="Layer_1" x="0px" y="0px" viewBox="0 0 80 80" style="enable-background:new 0 0 80 80;" xml:space="preserve"> <style type="text/css"> .st0{fill:none;} .st1{fill:#1B54F8;stroke:#1B54F8;stroke-width:0.6;} </style> <desc>Created with Sketch.</desc> <rect id="Rectangle-Copy-5" class="st0" width="80" height="80"></rect> <g id="noun_encryption_2356913" transform="translate(282.000000, 205.000000)"> <g id="Group"> <path id="Shape" class="st1" d="M-221.2-186.4c-0.1-0.2-0.2-0.3-0.4-0.4c-22.6-12-40.2,0.7-40.4,0.9c-0.1,0.1-0.2,0.2-0.3,0.4 c-9,30.2,17.8,46.5,18,46.7c1,0.7,2,1,3.1,1c6.4,0,13.9-10.1,14.2-10.6C-213.6-163.5-221.1-186.2-221.2-186.4z M-228-149.5 c-2.7,3.7-10.7,12.5-15.3,9.3c-0.3-0.2-25.9-15.8-17.5-44.8c1.9-1.3,18-11.4,38.3-0.7C-221.7-183.1-216.1-163-228-149.5z"></path> <path id="Shape_1_" class="st1" d="M-232.3-171.9h-1.5v-3.4c0-4.2-3.4-7.6-7.7-7.6c-4.2,0-7.7,3.4-7.7,7.6v3.4h-1.5 c-1.8,0-3.3,1.5-3.3,3.2v13.5c0,1.8,1.5,3.2,3.3,3.2h18.3c1.8,0,3.3-1.5,3.3-3.2v-13.5C-229-170.5-230.5-171.9-232.3-171.9z M-247.7-175.3c0-3.4,2.8-6.1,6.2-6.1s6.2,2.8,6.2,6.1v3.4h-12.4V-175.3z M-230.5-155.1c0,1-0.8,1.8-1.8,1.8h-18.3 c-1,0-1.8-0.8-1.8-1.8v-13.5c0-1,0.8-1.8,1.8-1.8h18.3c1,0,1.8,0.8,1.8,1.8V-155.1z"></path> <path id="Shape_2_" class="st1" d="M-241.5-167.7c-1.8,0-3.2,1.4-3.2,3.2c0,0.8,0.3,1.6,0.9,2.2v5.5c0,0.4,0.3,0.7,0.7,0.7h3.1 c0.4,0,0.7-0.3,0.7-0.7v-5.5c0.6-0.6,0.9-1.4,0.9-2.2C-238.3-166.3-239.7-167.7-241.5-167.7z M-240.4-163.2 c-0.2,0.1-0.3,0.3-0.3,0.6v5.1h-1.6v-5.1c0-0.2-0.1-0.4-0.3-0.6c-0.4-0.3-0.6-0.8-0.6-1.3c0-0.9,0.8-1.7,1.7-1.7 c0.9,0,1.7,0.8,1.7,1.7C-239.8-164-240-163.5-240.4-163.2z"></path> </g> </g> </svg> 