<?xml version="1.0" encoding="UTF-8"?> <svg xmlns="http://www.w3.org/2000/svg" id="Layer_1" data-name="Layer 1" viewBox="0 0 94 94"><defs><style>.cls-1{fill:#1b54f8;stroke:#1b54f8;stroke-miterlimit:10;stroke-width:0.5px;}</style></defs><path class="cls-1" d="M12,50A19,19,0,1,0,31,31,19,19,0,0,0,12,50Zm36,0A17,17,0,1,1,31,33,17,17,0,0,1,48,50ZM27.9,40.3c-.7,2.6.2,5.5,1,7.6a3.59,3.59,0,0,0-.7,1,18.46,18.46,0,0,1-3.7-3.1c-2.1-2-4.1-4-6-3.2s-3.1,3-3.4,5.7a8.91,8.91,0,0,0,4.3,8.6,5.61,5.61,0,0,0,3.1.9,8.75,8.75,0,0,0,1.6-.2c2.6-.7,4.7-2.9,6.1-4.7a4.87,4.87,0,0,0,1.2.1,20.29,20.29,0,0,1-.9,4.8c-.7,2.8-1.4,5.5.2,6.8a4.63,4.63,0,0,0,3,.9,9.1,9.1,0,0,0,8.9-8.8,5.8,5.8,0,0,0-1.7-4.5c-1.9-1.9-4.9-2.7-7.1-3a2.38,2.38,0,0,0-.6-1.1,24.47,24.47,0,0,1,4.5-1.7c2.8-.8,5.5-1.5,5.8-3.6.3-1.9-1-4.2-3.3-5.8a8.85,8.85,0,0,0-9.5-.6A7,7,0,0,0,27.9,40.3ZM23.6,55.7a4,4,0,0,1-3.2-.5,6.94,6.94,0,0,1-3.3-6.7c.2-2.2,1.2-3.7,2.1-4h.2c.8,0,2.5,1.6,3.7,2.8a16.94,16.94,0,0,0,5.1,3.9,2.51,2.51,0,0,0,.4.7C27.4,53.3,25.6,55.1,23.6,55.7Zm17.1.9a7,7,0,0,1-4.2,6.2c-2,.9-3.8.8-4.6.2-.6-.5,0-2.9.5-4.7.5-2.1,1.2-4.4.8-6.4a2.09,2.09,0,0,0,.4-.6c1.9.3,4.4.9,5.8,2.4a3.1,3.1,0,0,1,1.3,2.9ZM31.8,38.3a6.29,6.29,0,0,1,3.3-.9,6.77,6.77,0,0,1,4.1,1.4c1.8,1.3,2.6,2.9,2.5,3.8s-2.6,1.5-4.3,2c-2.1.6-4.4,1.2-5.9,2.5a1.1,1.1,0,0,0-.8,0c-.7-1.8-1.4-4.3-.9-6.2A3.83,3.83,0,0,1,31.8,38.3ZM68,54V68a5,5,0,0,1-5,5H13a5,5,0,0,1-5-5V32a5,5,0,0,1,5-5H54a1,1,0,0,1,0,2H13a3,3,0,0,0-3,3V68a3,3,0,0,0,3,3H63a3,3,0,0,0,3-3V54a1,1,0,0,1,2,0ZM54,50a3,3,0,1,0,3-3A2.95,2.95,0,0,0,54,50Zm4,0a1,1,0,1,1-1-1A.94.94,0,0,1,58,50Zm.8-8.8A1,1,0,0,1,58,40a1,1,0,0,1,1.2-.8,11,11,0,0,1,8.6,8.6A1,1,0,0,1,67,49h-.2a1,1,0,0,1-1-.8A9,9,0,0,0,58.8,41.2ZM77,47.9a1.09,1.09,0,0,1-.9,1.1H76a1,1,0,0,1-1-.9,16.89,16.89,0,0,0-16-16,1,1,0,0,1,.2-2A18.83,18.83,0,0,1,77,47.9Zm9,.1a1,1,0,0,1-2,0A25,25,0,0,0,59,23a1,1,0,0,1,0-2A27,27,0,0,1,86,48Z"></path></svg> 