<?xml version="1.0" encoding="UTF-8"?> <svg xmlns="http://www.w3.org/2000/svg" xmlns:xlink="http://www.w3.org/1999/xlink" width="60" height="60" viewBox="0 0 60 60"><defs><clipPath id="clip-path"><rect id="Rectangle_26" data-name="Rectangle 26" width="60" height="60" transform="translate(65 40)" fill="#1c54f8"></rect></clipPath></defs><g id="Mask_Group_1" data-name="Mask Group 1" transform="translate(-65 -40)" clip-path="url(#clip-path)"><g id="Group_2" data-name="Group 2" transform="translate(-1329.27 -246)"><g id="Group_1" data-name="Group 1" transform="translate(1400.27 294)"><path id="Path_6" data-name="Path 6" d="M253.087,280.162h-5.426a.43.43,0,0,0,0,.861h5.426a.43.43,0,0,0,0-.861Z" transform="translate(-228.132 -245.559)" fill="#1c54f8" stroke="#1c54f8" stroke-width="0.2"></path><path id="Path_7" data-name="Path 7" d="M256.718,213.81a2.411,2.411,0,0,0-1.606-.612H236.487a2.421,2.421,0,0,0-2.418,2.418v1.316H212.852a2.585,2.585,0,0,0-2.582,2.582v28.811a2.585,2.585,0,0,0,2.582,2.582H228.1l-1.168,5.668h-3.421a.43.43,0,1,0,0,.86h18a.43.43,0,1,0,0-.86h-3.42l-1.169-5.668h15.249a2.585,2.585,0,0,0,2.582-2.582V228.116h.359a2.421,2.421,0,0,0,2.418-2.418v-10.08A2.425,2.425,0,0,0,256.718,213.81Zm-20.232,14.3h2.83l0,4.191a.31.31,0,0,0,0,.032.387.387,0,0,0,0,.043c0,.014.007.029.011.043s.007.025.011.038a.307.307,0,0,0,.02.042c.006.011.011.022.018.033s.02.027.03.041.01.014.016.021l.006.005a.563.563,0,0,0,.046.041l.021.017a.49.49,0,0,0,.06.034l.015.008a.43.43,0,0,0,.169.035h0a.47.47,0,0,0,.081-.008l.029-.009a.453.453,0,0,0,.049-.016.313.313,0,0,0,.032-.016.433.433,0,0,0,.04-.022l.032-.024a.242.242,0,0,0,.026-.02l4.9-4.507h6.749v17.544H237.512a9.546,9.546,0,0,0-19.072,0h-5.109V220.171h20.737V225.7A2.421,2.421,0,0,0,236.487,228.114Zm.164,17.544H219.3a8.685,8.685,0,0,1,17.349,0Zm.562,10.915h-9.4l1.168-5.668h7.066Zm16.681-8.249a1.723,1.723,0,0,1-1.721,1.721H212.852a1.723,1.723,0,0,1-1.721-1.721V219.514a1.723,1.723,0,0,1,1.721-1.721h21.217v1.519H212.9a.43.43,0,0,0-.43.43V246.09a.431.431,0,0,0,.43.43h39.223a.431.431,0,0,0,.43-.43V228.116h1.34v20.209Zm2.777-22.628a1.56,1.56,0,0,1-1.558,1.558H244.778l-.025,0a.468.468,0,0,0-.053.005l-.034.009c-.016,0-.032.009-.047.014l-.033.015a.377.377,0,0,0-.042.023c-.011.007-.02.014-.03.022s-.02.013-.029.022l-4.306,3.959,0-3.642a.431.431,0,0,0-.43-.43h-3.26a1.559,1.559,0,0,1-1.558-1.557v-5.951s0,0,0,0,0,0,0,0v-2.371s0,0,0,0,0,0,0,0v-1.742a1.559,1.559,0,0,1,1.558-1.557h18.626a1.562,1.562,0,0,1,1.558,1.557V225.7Z" transform="translate(-210.27 -213.198)" fill="#1c54f8" stroke="#1c54f8" stroke-width="0.2"></path><path id="Path_8" data-name="Path 8" d="M240.848,242a3.851,3.851,0,1,0,3.943,3.85A3.9,3.9,0,0,0,240.848,242Zm0,6.839a2.99,2.99,0,1,1,3.082-2.989A3.04,3.04,0,0,1,240.848,248.839Z" transform="translate(-223.142 -227.117)" fill="#1c54f8" stroke="#1c54f8" stroke-width="0.2"></path><path id="Path_9" data-name="Path 9" d="M288.947,223.372a1.912,1.912,0,1,0,1.912,1.912A1.914,1.914,0,0,0,288.947,223.372Zm0,2.964A1.052,1.052,0,1,1,290,225.284,1.053,1.053,0,0,1,288.947,226.336Z" transform="translate(-247.368 -218.115)" fill="#1c54f8" stroke="#1c54f8" stroke-width="0.2"></path><path id="Path_10" data-name="Path 10" d="M277.24,223.372a1.912,1.912,0,1,0,1.913,1.912A1.914,1.914,0,0,0,277.24,223.372Zm0,2.964a1.052,1.052,0,1,1,1.053-1.052A1.052,1.052,0,0,1,277.24,226.336Z" transform="translate(-241.71 -218.115)" fill="#1c54f8" stroke="#1c54f8" stroke-width="0.2"></path><path id="Path_11" data-name="Path 11" d="M265.534,223.372a1.912,1.912,0,1,0,1.912,1.912A1.914,1.914,0,0,0,265.534,223.372Zm0,2.964a1.052,1.052,0,1,1,1.052-1.052A1.053,1.053,0,0,1,265.534,226.336Z" transform="translate(-236.053 -218.115)" fill="#1c54f8" stroke="#1c54f8" stroke-width="0.2"></path></g></g></g></svg> 