<?xml version="1.0" encoding="UTF-8"?> <svg xmlns="http://www.w3.org/2000/svg" width="90" height="90" viewBox="0 0 90 90"><g id="Group_4568" data-name="Group 4568" transform="translate(-1344 -2014)"><rect id="Rectangle_941" data-name="Rectangle 941" width="90" height="90" transform="translate(1344 2014)" fill="#c3bebe" opacity="0"></rect><g id="Group_4555" data-name="Group 4555" transform="translate(-12.44 143.681)"><path id="Path_302" data-name="Path 302" d="M174.835,45.891H119.566A4.676,4.676,0,0,0,114.9,50.56v9.117H105.78a4.676,4.676,0,0,0-4.671,4.669V104.27a4.676,4.676,0,0,0,4.671,4.671H114.9v9.16a1.531,1.531,0,0,0,2.541,1.15l11.74-10.311h31.872a4.676,4.676,0,0,0,4.671-4.671V94.025h9.116a4.676,4.676,0,0,0,4.671-4.671V50.561a4.675,4.675,0,0,0-4.671-4.669ZM162.657,104.27a1.609,1.609,0,0,1-1.608,1.608H128.6a1.532,1.532,0,0,0-1.01.38l-9.632,8.459v-7.309a1.531,1.531,0,0,0-1.531-1.531H105.778a1.609,1.609,0,0,1-1.608-1.608V64.346a1.609,1.609,0,0,1,1.608-1.608h55.269a1.609,1.609,0,0,1,1.608,1.608Zm13.786-14.916a1.609,1.609,0,0,1-1.608,1.608h-9.117V64.347a4.676,4.676,0,0,0-4.671-4.671h-43.09V50.56a1.608,1.608,0,0,1,1.608-1.607h55.269a1.609,1.609,0,0,1,1.608,1.607ZM119.479,80.4H112.8a1.531,1.531,0,0,0-1.531,1.531V99.449a1.531,1.531,0,0,0,1.531,1.531h6.682a1.531,1.531,0,0,0,1.531-1.531V81.935a1.531,1.531,0,0,0-1.531-1.531Zm-1.532,17.513h-3.62V83.467h3.62Zm24.566-21.8h-6.682a1.531,1.531,0,0,0-1.531,1.531v21.8a1.531,1.531,0,0,0,1.531,1.531h6.682a1.531,1.531,0,0,0,1.531-1.531v-21.8A1.53,1.53,0,0,0,142.513,76.113Zm-1.531,21.8h-3.62V79.176h3.62ZM131,72.1h-6.682a1.531,1.531,0,0,0-1.531,1.531V99.45a1.531,1.531,0,0,0,1.531,1.531H131a1.531,1.531,0,0,0,1.531-1.531V73.635A1.53,1.53,0,0,0,131,72.1Zm-1.532,25.813h-3.62V75.166h3.62Zm24.566-30.28h-6.682a1.531,1.531,0,0,0-1.531,1.531V99.45a1.531,1.531,0,0,0,1.531,1.531h6.682a1.531,1.531,0,0,0,1.531-1.531V69.169A1.53,1.53,0,0,0,154.03,67.638ZM152.5,97.918h-3.62V70.7h3.62Z" transform="translate(1261.331 1832.428)" fill="#1b54f8" stroke="#fff" stroke-width="0.4"></path></g></g></svg> 