<?xml version="1.0" encoding="UTF-8"?> <svg xmlns="http://www.w3.org/2000/svg" width="91" height="91" viewBox="0 0 91 91" fill="none"><mask id="mask0_1_15" style="mask-type:luminance" maskUnits="userSpaceOnUse" x="0" y="0" width="91" height="91"><path d="M90.6 0.399994H0.600006V90.4H90.6V0.399994Z" fill="white"></path></mask><g mask="url(#mask0_1_15)"><path d="M47.3 22.3H45.9V19.6H59.5V22.3H47.3ZM46.5 16.8H45.1V14.1H60.2V16.8H46.5ZM47.4 11.3H46V8.59998H59.3V11.3H47.4ZM22.5 23.5H21.1V20.8H32V23.5H22.5ZM20.6 18H19.2V15.3H30V18H20.6ZM22.1 12.4H20.7V9.69998H32.7V12.4H22.1ZM63.2 4.39998C66.3 7.29998 68 11.1 68.2 15.1C68.4 19.1 67.1 23.1 64.2 26.3C61.8 29 58.5 30.7 55 31.2L51 39L48.3 30.8C47.3 30.5 46.3 30.1 45.4 29.6C44.3 29 43.2 28.3 42.2 27.4H42.1C41.4 26.8 40.8 26.1 40.3 25.4C38.8 27.3 36.9 28.9 34.8 30L33.4 38.6L28.4 31.6C21.8 31.8 15.8 27.7 13.5 21.6C10.5 13.6 14.5 4.69998 22.6 1.59998C29 -0.80002 36.2 1.29998 40.3 6.59998L41.2 5.49998C44.1 2.39998 47.9 0.699982 51.9 0.499982C55.9 0.199982 59.9 1.49998 63.2 4.39998ZM38.9 22.9C36.7 18.6 36.7 13.4 38.8 9.09998C35.5 4.09998 29.2 1.99998 23.6 4.09998C17 6.59998 13.6 14 16.1 20.6C18.1 25.9 23.4 29.3 29 28.9L29.8 28.8L31.9 31.7L32.5 28.1C34.1 27.4 35.3 26.8 36.7 25.5C37.5 24.7 38.3 23.9 38.9 22.9ZM65.5 15.2C65.3 11.9 63.9 8.69998 61.3 6.39998H61.2C58.6 4.09998 55.3 2.99998 52 3.09998C48.7 3.29998 45.5 4.69999 43.2 7.29998V7.39998C41 9.89998 39.8 13.2 39.9 16.6C40 18.7 40.6 20.5 41.6 22.3C42.1 23.2 43.3 24.7 44.2 25.5C45.8 26.9 47.7 27.9 49.7 28.4L50.4 28.6L51.5 32.1L53.2 28.8C55.2 28.6 56.6 28.4 58.4 27.4C59.8 26.7 61 25.8 62.1 24.6C64.6 21.8 65.7 18.5 65.5 15.2ZM53.5 73.4V72H56.2V87.6H80.3V67.2C79 65.7 77.5 64.5 75.7 63.7C73.9 62.8 71.8 62.3 69.7 62.3H57.7C55.5 62.3 53.5 62.8 51.7 63.7C49.9 64.5 48.4 65.7 47.1 67.2V87.6H53.6L53.5 73.4ZM63.6 38C57.8 38 53.2 42.7 53.2 48.4C53.2 54.2 57.9 58.8 63.6 58.8C69.4 58.8 74 54.1 74 48.4C74.1 42.7 69.4 38 63.6 38ZM54.3 39.1C59.4 34 67.8 34 72.9 39.1C78.9 45.1 77.7 55.2 70.5 59.6C75.3 59.8 79.7 62.1 82.7 65.8L83 66.2V71.4H88.2V84.1H83V90.3H44.2V84.1H5V71.4H8.4V61L8.7 60.6C11 57.8 14.2 56 17.8 55.6C12.4 51.7 11.8 43.9 16.5 39.2C20.7 35 27.5 35 31.7 39.2C36.4 43.9 35.8 51.7 30.4 55.6C34 56 37.3 57.8 39.5 60.6L39.8 61V71.5H44.3V66.3L44.6 65.9C47.6 62.2 52 59.9 56.8 59.7C49.5 55.2 48.3 45.2 54.3 39.1ZM83 74.1V81.4H85.4V74.1H83ZM44.3 81.4V74.1H7.8V81.4H44.3ZM11.1 71.4H15.8V65.4H18.5V71.4H37.1V61.9C36.1 60.8 34.9 59.9 33.6 59.2C32.2 58.5 30.6 58.2 28.9 58.2H19.3C17.6 58.2 16 58.6 14.6 59.2C13.3 59.8 12.1 60.8 11.1 61.9V71.4ZM24.1 38.8C19.7 38.8 16.1 42.4 16.1 46.8C16.1 51.2 19.7 54.8 24.1 54.8C28.5 54.8 32.1 51.2 32.1 46.8C32.1 42.4 28.5 38.8 24.1 38.8Z" fill="#1B54F8"></path></g></svg> 