<?xml version="1.0" encoding="UTF-8"?> <svg xmlns="http://www.w3.org/2000/svg" id="Layer_1" data-name="Layer 1" viewBox="0 0 94 94"><defs><style>.cls-1{fill:none;stroke:#1b54f8;stroke-miterlimit:10;stroke-width:4px;}.cls-2{fill:#1b54f8;}</style></defs><circle class="cls-1" cx="47" cy="47" r="44.6"></circle><path class="cls-2" d="M23.3,28.64a1.69,1.69,0,0,0-1.7,1.7A1.63,1.63,0,0,0,23.3,32h6.4l5.7,26.8c.2,1,.9,1.8,1.7,1.8H64.6a1.7,1.7,0,1,0,0-3.4H38.4l-.7-3.3H66.8a1.81,1.81,0,0,0,1.6-1.3l3.9-16.5a1.69,1.69,0,0,0-1.6-2H33.6l-.9-4.2a1.81,1.81,0,0,0-1.6-1.3Zm10.9,8.8h8.6l.8,5H35.2Zm12,0H56.6l-.8,5H47Zm13.8,0h8.6l-1.2,5H59.1Zm-24,8.3h8.2l.8,5H37Zm11.6,0h7.6l-.8,5h-6Zm11,0h8.1l-1.2,5H57.8Zm-15.4,17a5.5,5.5,0,1,0,5.5,5.5,5.55,5.55,0,0,0-5.5-5.5Zm15.4,0a5.5,5.5,0,1,0,5.5,5.5,5.55,5.55,0,0,0-5.5-5.5ZM43.2,66a2.2,2.2,0,1,1-2.2,2.2A2.16,2.16,0,0,1,43.2,66Zm15.4,0a2.2,2.2,0,1,1-2.2,2.2A2.16,2.16,0,0,1,58.6,66Z"></path><circle class="cls-2" cx="45.5" cy="34" r="1.5"></circle><path class="cls-2" d="M45.5,28.4a5.8,5.8,0,0,0-4.4,2.1.64.64,0,0,0,0,.6l.7.7a.37.37,0,0,0,.3.1h0c.1,0,.3-.1.3-.2a3.75,3.75,0,0,1,6,0c.1.1.2.2.3.2h0a.37.37,0,0,0,.3-.1l.7-.7a.38.38,0,0,0,0-.6A4.75,4.75,0,0,0,45.5,28.4Z"></path><path class="cls-2" d="M45.5,24.4a10,10,0,0,0-7.2,3.2c-.2.2-.2.5,0,.6l.7.7a.37.37,0,0,0,.3.1h0c.1,0,.3-.1.3-.2a7.58,7.58,0,0,1,11.6,0c.1.1.2.2.3.2h0a.37.37,0,0,0,.3-.1l.7-.7a.37.37,0,0,0,0-.6A9,9,0,0,0,45.5,24.4Z"></path><path class="cls-2" d="M55.7,24.7a14,14,0,0,0-10.1-4.5,13.58,13.58,0,0,0-10.1,4.5c-.2.2-.2.5,0,.6l.7.6a.37.37,0,0,0,.3.1h0c.1,0,.3,0,.3-.2a12,12,0,0,1,8.8-3.9,11.82,11.82,0,0,1,8.8,3.9c.1.1.2.1.3.2h0a.37.37,0,0,0,.3-.1l.7-.7A.45.45,0,0,0,55.7,24.7Z"></path></svg> 