<?xml version="1.0" encoding="UTF-8"?> <!-- Generator: Adobe Illustrator 25.2.3, SVG Export Plug-In . SVG Version: 6.00 Build 0) --> <svg xmlns="http://www.w3.org/2000/svg" xmlns:xlink="http://www.w3.org/1999/xlink" version="1.1" id="Layer_1" x="0px" y="0px" viewBox="0 0 80 80" style="enable-background:new 0 0 80 80;" xml:space="preserve"> <style type="text/css"> .st0{fill:#1B54F8;} </style> <desc>Created with Sketch.</desc> <g id="Consulting"> <path id="Fill-1" class="st0" d="M10.1,25.5c0-8.5,6.9-15.5,15.5-15.5S41,17,41,25.5c0,4.2-1.7,8-4.4,10.8 c-0.9-3.7-3.6-6.8-7.2-8.1c1.4-1.1,2.3-2.9,2.3-4.8c0-3.4-2.8-6.2-6.2-6.2s-6.2,2.8-6.2,6.2c0,2,0.9,3.7,2.3,4.8 c-3.6,1.3-6.3,4.3-7.2,8.1C11.8,33.6,10.1,29.8,10.1,25.5z M21.4,23.5c0-2.3,1.9-4.1,4.1-4.1s4.1,1.9,4.1,4.1s-1.9,4.1-4.1,4.1 S21.4,25.8,21.4,23.5z M16.3,37.9c0.5-4.6,4.4-8.3,9.2-8.3c4.8,0,8.7,3.6,9.2,8.3C32.2,39.9,29,41,25.5,41S18.9,39.9,16.3,37.9z M14.3,39c3,2.6,7,4.1,11.3,4.1s8.2-1.6,11.3-4.1h0.1v-0.1c3.8-3.2,6.2-8,6.2-13.4C43.1,15.9,35.2,8,25.5,8S8,15.9,8,25.5 C8,30.9,10.4,35.7,14.3,39L14.3,39L14.3,39z"></path> <path id="Fill-4" class="st0" d="M58.3,57.2c1.4-1.1,2.3-2.9,2.3-4.8c0-3.4-2.8-6.2-6.2-6.2s-6.2,2.8-6.2,6.2c0,2,0.9,3.7,2.3,4.8 c-3.6,1.3-6.3,4.3-7.2,8.1c-2.7-2.8-4.4-6.6-4.4-10.8C39,45.9,45.9,39,54.5,39s15.5,6.9,15.5,15.5c0,4.2-1.7,8-4.4,10.8 C64.6,61.5,61.9,58.5,58.3,57.2 M50.3,52.4c0-2.3,1.9-4.1,4.1-4.1s4.1,1.9,4.1,4.1c0,2.3-1.9,4.1-4.1,4.1S50.3,54.7,50.3,52.4 M45.2,66.9c0.5-4.6,4.4-8.3,9.2-8.3c4.8,0,8.7,3.6,9.2,8.3c-2.6,1.9-5.8,3.1-9.2,3.1C51,69.9,47.8,68.8,45.2,66.9 M72,54.5 c0-9.7-7.9-17.5-17.5-17.5s-17.5,7.9-17.5,17.5c0,5.4,2.4,10.1,6.2,13.4v0.1h0.1c3,2.6,7,4.1,11.3,4.1s8.2-1.6,11.3-4.1h0.1v-0.1 C69.6,64.6,72,59.8,72,54.5"></path> <path id="Fill-6" class="st0" d="M62.7,34.8h2.1c0-10.8-8.8-19.6-19.6-19.6v2.1C54.8,17.3,62.7,25.2,62.7,34.8"></path> <path id="Fill-8" class="st0" d="M17.3,45.2h-2.1c0,10.8,8.8,19.6,19.6,19.6v-2.1C25.2,62.7,17.3,54.8,17.3,45.2"></path> </g> </svg> 