<?xml version="1.0" encoding="UTF-8"?> <svg xmlns="http://www.w3.org/2000/svg" xmlns:xlink="http://www.w3.org/1999/xlink" width="90" height="90" viewBox="0 0 90 90"><defs><clipPath id="clip-path"><rect id="Rectangle_13" data-name="Rectangle 13" width="90" height="90" transform="translate(237 1226)" fill="#fff"></rect></clipPath></defs><g id="Mask_Group_8" data-name="Mask Group 8" transform="translate(-237 -1226)" clip-path="url(#clip-path)"><g id="Group_120" data-name="Group 120"><g id="Group_119" data-name="Group 119" transform="translate(747.015 137)"><path id="Path_154" data-name="Path 154" d="M180.593,69.3l-11.959-.046v-.2c0-2.425-2.173-4.264-4.226-4.664l-3.974-.933h0a24.264,24.264,0,0,0-.942-2.3l2.155-3.591c1.157-1.866,1.558-4.459-.131-6.147l-2.482-2.482a4.345,4.345,0,0,0-3.153-1.231,5.6,5.6,0,0,0-3.116.932l-3.535,2.239a21.6,21.6,0,0,0-2.33-.973l-.933-3.993c-.383-2.1-2.22-4.273-4.664-4.273h-.327V29.385h0a1.363,1.363,0,1,0-2.724.037V41.681h-.4c-2.4,0-3.965,2.145-4.44,4.236l-.97,3.945a21.372,21.372,0,0,0-2.565,1.082l-3.554-2.267h0a5.69,5.69,0,0,0-3.153-.933,4.348,4.348,0,0,0-3.153,1.231l-2.5,2.444c-1.81,1.81-1.2,4.45-.14,6.138l2.3,3.825h0a20.754,20.754,0,0,0-.886,2.155l-3.946.849a5.069,5.069,0,0,0-4.273,4.664v.177H99.22a1.427,1.427,0,0,0,0,2.845h11.353v.5c0,2.556,2.3,3.983,4.236,4.431l4.058,1.017h0a19.842,19.842,0,0,0,.8,1.94l-2.285,3.815c-1.157,1.866-1.558,4.459.131,6.147l2.472,2.454a4.365,4.365,0,0,0,3.125,1.269,5.507,5.507,0,0,0,3.116-.933l3.6-2.3h0a20.572,20.572,0,0,0,2.612,1.072l.989,3.965c.485,2.117,2.052,4.254,4.45,4.254h.28V110.75a1.423,1.423,0,1,0,2.846.01V99.705h.383c2.425,0,4.264-2.183,4.664-4.236l.933-4.049h0a22.146,22.146,0,0,0,2.248-.914l3.47,2.2a5.593,5.593,0,0,0,3.153.933,4.343,4.343,0,0,0,3.134-1.269l2.481-2.481c1.689-1.7,1.278-4.31.14-6.129l-2.117-3.591c.345-.728.644-1.446.933-2.155L164.455,77c2.117-.476,4.254-2.043,4.254-4.44V72.1h11.95a1.427,1.427,0,1,0,0-2.8Zm-14.8,3.256c0,.793-1.026,1.437-2.071,1.679l-4.562,1.138h0a1.867,1.867,0,0,0-1.344,1.241,18.342,18.342,0,0,1-1.147,2.8,1.864,1.864,0,0,0,.028,1.763l2.453,4.086c.56.933.83,2.08.271,2.631l-2.444,2.5a1.579,1.579,0,0,1-1.138.4,2.865,2.865,0,0,1-1.577-.495l-3.983-2.537h0a1.915,1.915,0,0,0-1.866-.084,17.9,17.9,0,0,1-2.892,1.213,1.868,1.868,0,0,0-1.25,1.39l-1.026,4.664c-.168.933-.989,1.95-1.866,1.95H141l.047-11.652,1.25,1.511h0a1.067,1.067,0,1,0,1.642-1.362L139.9,80.431l-4.6,4.879a1.073,1.073,0,0,0,1.549,1.465l1.362-1.455V96.86h-.3c-.793,0-1.446-1.026-1.679-2.071l-1.129-4.5h0a1.864,1.864,0,0,0-1.259-1.352,18.4,18.4,0,0,1-3.125-1.316,1.942,1.942,0,0,0-.886-.214,1.975,1.975,0,0,0-1.016.289l-4.1,2.621a2.7,2.7,0,0,1-1.539.476,1.53,1.53,0,0,1-1.138-.4l-2.481-2.481c-.56-.56-.289-1.745.271-2.649l2.575-4.282h0a1.865,1.865,0,0,0,.074-1.819,19.024,19.024,0,0,1-1.054-2.528,1.863,1.863,0,0,0-1.334-1.25l-4.627-1.148c-.709-.168-2.052-.728-2.052-1.67v-.485h11.353l-1.511,1.241h0a1.073,1.073,0,0,0-.14,1.549,1.034,1.034,0,0,0,.821.392,1.108,1.108,0,0,0,.681-.243l4.925-4.058-4.879-4.6h0A1.066,1.066,0,0,0,123.2,67.91l1.455,1.371h-11.2V69.05c0-.849,1.017-1.679,1.987-1.866l4.524-1a1.866,1.866,0,0,0,1.39-1.278,19.6,19.6,0,0,1,1.119-2.743,1.866,1.866,0,0,0-.065-1.81l-2.575-4.292c-.392-.625-.933-1.968-.28-2.64l2.491-2.481a1.548,1.548,0,0,1,1.063-.392,2.886,2.886,0,0,1,1.577.5l4.058,2.584a1.92,1.92,0,0,0,1.866.084,18.475,18.475,0,0,1,3.106-1.306,1.866,1.866,0,0,0,1.26-1.343l1.194-4.534c.243-1.017.933-2.052,1.679-2.052h.327V54.927l-1.241-1.511a1.089,1.089,0,1,0-1.7,1.362l4.067,4.944,4.6-4.879h0a1.066,1.066,0,1,0-1.549-1.465l-1.371,1.455V44.5h.336c.858,0,1.679,1.017,1.866,1.987l1.017,4.571h0a1.866,1.866,0,0,0,1.3,1.372,19.988,19.988,0,0,1,2.929,1.231,1.92,1.92,0,0,0,1.866-.084l4-2.556a2.848,2.848,0,0,1,1.54-.467,1.511,1.511,0,0,1,1.138.4l2.519,2.472c.56.56.289,1.754-.28,2.659l-2.435,4.058a1.866,1.866,0,0,0-.066,1.866,18.106,18.106,0,0,1,1.213,2.939,1.865,1.865,0,0,0,1.4,1.268l4.524.97c.933.168,1.94.989,1.94,1.866v.2H155.042l1.511-1.241h0a1.073,1.073,0,0,0-1.362-1.652l-4.925,4.058,4.879,4.6h0a1.11,1.11,0,0,0,1.549-1.586l-1.455-1.371h10.635Z" transform="translate(-604.922 1063.995)" fill="#05f"></path><text id="Ai" transform="translate(-475.015 1140)" fill="#1b54f8" font-size="19" font-family="'\.AppleSystemUIFont'"><tspan x="0" y="0">AI</tspan></text></g></g></g></svg> 