<?xml version="1.0" encoding="UTF-8"?> <svg xmlns="http://www.w3.org/2000/svg" xmlns:xlink="http://www.w3.org/1999/xlink" width="90" height="90" viewBox="0 0 90 90"><defs><clipPath id="clip-path"><rect id="Rectangle_1" data-name="Rectangle 1" width="90" height="90" transform="translate(146 165)" fill="#fff" stroke="#707070" stroke-width="1"></rect></clipPath></defs><g id="Mask_Group_97" data-name="Mask Group 97" transform="translate(-146 -165)" clip-path="url(#clip-path)"><g id="Group_367" data-name="Group 367" transform="translate(-81.574 143.902)"><path id="Path_688" data-name="Path 688" d="M311.337,415.31h-9.675a.767.767,0,0,0,0,1.535h9.675a.767.767,0,0,0,0-1.535Z" transform="translate(-36.267 -326.512)" fill="#1b54f8"></path><path id="Path_689" data-name="Path 689" d="M176.739,41.4a4.3,4.3,0,0,0-2.863-1.092H140.664a4.316,4.316,0,0,0-4.312,4.312v2.346H98.521a4.609,4.609,0,0,0-4.6,4.6v51.372a4.609,4.609,0,0,0,4.6,4.6h27.191l-2.083,10.106h-6.1a.767.767,0,1,0,0,1.534h32.1a.767.767,0,1,0,0-1.534h-6.1l-2.084-10.106h27.191a4.609,4.609,0,0,0,4.6-4.6V66.908h.64a4.317,4.317,0,0,0,4.311-4.312V44.621a4.331,4.331,0,0,0-1.452-3.221ZM140.664,66.9h5.047l.006,7.472a.512.512,0,0,0,.006.056.749.749,0,0,0,.008.076c0,.026.013.051.019.076s.012.044.021.067a.607.607,0,0,0,.035.075.63.63,0,0,0,.031.058c.017.026.036.049.055.073s.017.025.028.037l.011.009a.962.962,0,0,0,.082.073c.013.01.024.021.037.03a.835.835,0,0,0,.107.06l.027.014a.762.762,0,0,0,.3.062h0a.834.834,0,0,0,.144-.015l.053-.015a.763.763,0,0,0,.087-.028.523.523,0,0,0,.057-.028c.024-.012.049-.024.072-.039s.038-.028.057-.042a.478.478,0,0,0,.047-.036l8.742-8.037H167.78V98.185l-25.287,0a17.021,17.021,0,0,0-34.007,0h-9.11V52.741h36.976v9.851a4.317,4.317,0,0,0,4.313,4.311Zm.293,31.283H110.021a15.487,15.487,0,0,1,30.936,0Zm1,19.463H125.194l2.083-10.106h12.6ZM171.7,102.941a3.072,3.072,0,0,1-3.069,3.069H98.521a3.073,3.073,0,0,1-3.069-3.069V51.569A3.073,3.073,0,0,1,98.521,48.5h37.831v2.709H98.61a.768.768,0,0,0-.767.767V98.957a.768.768,0,0,0,.767.767h69.938a.769.769,0,0,0,.767-.767V66.908H171.7V102.94Zm4.951-40.347a2.781,2.781,0,0,1-2.778,2.778H155.447c-.017,0-.03,0-.044,0-.031,0-.062,0-.094.009a.453.453,0,0,0-.06.015.738.738,0,0,0-.084.026c-.019.008-.04.017-.058.027a.679.679,0,0,0-.076.042c-.019.012-.035.026-.055.04s-.035.024-.053.039l-7.678,7.059,0-6.494a.768.768,0,0,0-.767-.767h-5.813a2.78,2.78,0,0,1-2.778-2.776V51.984s0,0,0-.007,0,0,0-.007V47.742s0,0,0-.008,0,0,0-.007V44.621a2.78,2.78,0,0,1,2.778-2.777h33.213a2.785,2.785,0,0,1,2.778,2.777V62.594Z" transform="translate(136.656 -13.211)" fill="#1b54f8"></path><path id="Path_690" data-name="Path 690" d="M250.1,201.6a6.867,6.867,0,1,0,7.03,6.864,6.956,6.956,0,0,0-7.03-6.864Zm0,12.194a5.332,5.332,0,1,1,5.5-5.33A5.42,5.42,0,0,1,250.1,213.794Z" transform="translate(12.042 -147.965)" fill="#1b54f8"></path><path id="Path_691" data-name="Path 691" d="M527.2,97.281a3.41,3.41,0,1,0,3.41,3.409A3.414,3.414,0,0,0,527.2,97.281Zm0,5.286a1.875,1.875,0,1,1,1.875-1.876A1.879,1.879,0,0,1,527.2,102.567Z" transform="translate(-222.491 -60.81)" fill="#1b54f8"></path><path id="Path_692" data-name="Path 692" d="M461.65,97.281a3.41,3.41,0,1,0,3.411,3.409A3.413,3.413,0,0,0,461.65,97.281Zm0,5.286a1.875,1.875,0,1,1,1.877-1.876A1.877,1.877,0,0,1,461.65,102.567Z" transform="translate(-167.724 -60.81)" fill="#1b54f8"></path><path id="Path_693" data-name="Path 693" d="M396.09,97.281a3.41,3.41,0,1,0,3.409,3.409A3.413,3.413,0,0,0,396.09,97.281Zm0,5.286a1.875,1.875,0,1,1,1.875-1.876A1.877,1.877,0,0,1,396.09,102.567Z" transform="translate(-112.951 -60.81)" fill="#1b54f8"></path></g></g></svg> 