<?xml version="1.0" encoding="UTF-8"?> <svg xmlns="http://www.w3.org/2000/svg" xmlns:xlink="http://www.w3.org/1999/xlink" width="60" height="60" viewBox="0 0 60 60"><defs><clipPath id="clip-path"><rect id="Rectangle_6" data-name="Rectangle 6" width="60" height="60" transform="translate(56 22)" fill="#fff" stroke="#707070" stroke-width="1"></rect></clipPath></defs><g id="Mask_Group_1" data-name="Mask Group 1" transform="translate(-56 -22)" clip-path="url(#clip-path)"><g id="Group_1" data-name="Group 1" transform="translate(193.526 18.526)"><path id="Path_1" data-name="Path 1" d="M42.452,39.456V17.731a2.207,2.207,0,0,0-2.247-2.247H36.459V2H12.488V15.484H8.742a2.207,2.207,0,0,0-2.247,2.247V39.456H2V43.2a3.709,3.709,0,0,0,3.746,3.746H43.2A3.709,3.709,0,0,0,46.947,43.2V39.456Zm-5.993-5.993V19.979h1.5V34.961H10.989V19.979h1.5V33.463ZM13.986,3.5H34.961V31.965H13.986ZM7.993,17.731a.708.708,0,0,1,.749-.749h3.746v1.5h-3V36.459H39.456V18.481h-3v-1.5h3.746a.708.708,0,0,1,.749.749V39.456H7.993ZM20.728,40.954h7.491V41.7a.708.708,0,0,1-.749.749H21.477a.708.708,0,0,1-.749-.749ZM45.449,43.2A2.207,2.207,0,0,1,43.2,45.449H5.746A2.207,2.207,0,0,1,3.5,43.2V40.954H19.23V41.7a2.207,2.207,0,0,0,2.247,2.247H27.47A2.207,2.207,0,0,0,29.717,41.7v-.749H45.449Z" transform="translate(-132 9)" fill="#1c54f8" stroke="#fff" stroke-width="0.4"></path><path id="Path_2" data-name="Path 2" d="M23.4,16.247v2.4a.68.68,0,0,1-.225.524L21.6,20.742l1.573,1.573a.68.68,0,0,1,.225.524v2.4a2.207,2.207,0,0,0,2.247,2.247h1.5v-1.5h-1.5a.708.708,0,0,1-.749-.749v-2.4a2.156,2.156,0,0,0-.674-1.573l-.524-.524.524-.524a2.04,2.04,0,0,0,.674-1.573v-2.4a.708.708,0,0,1,.749-.749h1.5V14h-1.5A2.207,2.207,0,0,0,23.4,16.247Z" transform="translate(-136.917 5.989)" fill="#1c54f8" stroke="#fff" stroke-width="0.4"></path><path id="Path_3" data-name="Path 3" d="M38.746,18.645v-2.4A2.207,2.207,0,0,0,36.5,14H35v1.5h1.5a.708.708,0,0,1,.749.749v2.4a2.156,2.156,0,0,0,.674,1.573l.524.524-.524.524a2.04,2.04,0,0,0-.674,1.573v2.4a.708.708,0,0,1-.749.749H35v1.5h1.5a2.207,2.207,0,0,0,2.247-2.247v-2.4a.68.68,0,0,1,.225-.524l1.573-1.573L38.97,19.169A.68.68,0,0,1,38.746,18.645Z" transform="translate(-140.279 5.989)" fill="#1c54f8" stroke="#fff" stroke-width="0.4"></path></g></g></svg> 