<?xml version="1.0" encoding="UTF-8"?> <svg xmlns="http://www.w3.org/2000/svg" xmlns:xlink="http://www.w3.org/1999/xlink" width="90" height="90" viewBox="0 0 90 90"><defs><clipPath id="clip-path"><rect id="Rectangle_11" data-name="Rectangle 11" width="90" height="90" transform="translate(71 91)" fill="#fff" stroke="#707070" stroke-width="1"></rect></clipPath></defs><g id="Mask_Group_4" data-name="Mask Group 4" transform="translate(-71 -91)" clip-path="url(#clip-path)"><g id="Group_7" data-name="Group 7" transform="translate(-141.75 23.25)"><path id="Path_10" data-name="Path 10" d="M69.572,47.611a7.55,7.55,0,1,0-9.286,0,12.848,12.848,0,0,0-4.719,3.247l-.717-6.795a1.258,1.258,0,0,0-1.258-1.12H52.333V39.168A12.583,12.583,0,0,0,44.406,27.49a7.55,7.55,0,1,0-9.312,0,12.583,12.583,0,0,0-7.927,11.677v3.775H25.908a1.258,1.258,0,0,0-1.258,1.132l-.68,6.845a12.332,12.332,0,0,0-4.744-3.3,7.55,7.55,0,1,0-9.3,0A12.583,12.583,0,0,0,2,59.3V73.143A1.258,1.258,0,0,0,3.258,74.4H76.242A1.258,1.258,0,0,0,77.5,73.143V59.3a12.583,12.583,0,0,0-7.927-11.69Zm-9.689-5.927a5.033,5.033,0,1,1,5.033,5.033A5.033,5.033,0,0,1,59.883,41.684ZM34.717,21.551a5.033,5.033,0,1,1,5.033,5.033A5.033,5.033,0,0,1,34.717,21.551ZM29.683,39.168a10.067,10.067,0,0,1,20.133,0v3.775h-2.19l.931-6.1A1.258,1.258,0,0,0,47.3,35.393H32.2a1.258,1.258,0,0,0-1.258,1.447l.931,6.1H29.683ZM45.84,37.909l-1.132,7.55H34.792l-1.132-7.55ZM32.2,45.459l.214,1.447a1.258,1.258,0,0,0,1.258,1.07h12.08a1.258,1.258,0,0,0,1.258-1.07l.289-1.447h5.159l.969,9.1.44,5.033-5.776,2.315a1.258,1.258,0,0,0-.793,1.17v3.775a1.258,1.258,0,0,0,1.258,1.258h.189l5.788-.893.4,4.668H24.562l.4-4.681,5.788.893h.189A1.258,1.258,0,0,0,32.2,66.851V63.076a1.258,1.258,0,0,0-.793-1.17l-5.763-2.3,1.409-14.144ZM9.55,41.684a5.033,5.033,0,1,1,5.033,5.033A5.033,5.033,0,0,1,9.55,41.684ZM4.517,59.3a10.067,10.067,0,0,1,19.077-4.491l-.378,3.774-3.6-1.4V54.268H17.1v3.775a1.258,1.258,0,0,0,.793,1.17l11.791,4.719v1.447l-14.269-2.19-2.227-4.455-2.24,1.133L13.463,64.9a1.258,1.258,0,0,0,.931.68l8.078,1.258-.44,5.033H4.517ZM74.983,71.884H57.467l-.44-5.033,8.078-1.258a1.258,1.258,0,0,0,.931-.68l2.517-5.033-2.24-1.132L64.086,63.2,49.817,65.379V63.932l11.791-4.719a1.258,1.258,0,0,0,.793-1.17V54.268H59.883v2.919L56.31,58.621l-.34-3.9A10.056,10.056,0,0,1,74.983,59.3Z" transform="translate(218 76.099)" fill="#1c54f8" stroke="#fff" stroke-width="0.6"></path><path id="Path_11" data-name="Path 11" d="M3.258,29.683h6.921l3.4,4.53a1.258,1.258,0,0,0,2.013,0l3.4-4.53h6.921a1.258,1.258,0,0,0,1.258-1.258V3.258A1.258,1.258,0,0,0,25.908,2H3.258A1.258,1.258,0,0,0,2,3.258V28.425a1.258,1.258,0,0,0,1.258,1.258ZM4.517,4.517H24.65v22.65H18.358a1.258,1.258,0,0,0-1.007.5l-2.768,3.687L11.815,27.67a1.258,1.258,0,0,0-1.007-.5H4.517Z" transform="translate(218 73)" fill="#1c54f8" stroke="#fff" stroke-width="0.6"></path><rect id="Rectangle_29" data-name="Rectangle 29" width="15" height="3" transform="translate(225 95.14)" fill="#1c54f8" stroke="#fff" stroke-width="0.6"></rect><rect id="Rectangle_30" data-name="Rectangle 30" width="15" height="2" transform="translate(225 90.14)" fill="#1c54f8" stroke="#fff" stroke-width="0.6"></rect><rect id="Rectangle_31" data-name="Rectangle 31" width="15" height="2" transform="translate(225 85.14)" fill="#1c54f8" stroke="#fff" stroke-width="0.6"></rect><rect id="Rectangle_32" data-name="Rectangle 32" width="3" height="4" transform="translate(237 79.14)" fill="#1c54f8" stroke="#fff" stroke-width="0.6"></rect><rect id="Rectangle_33" data-name="Rectangle 33" width="5" height="4" transform="translate(230 79.14)" fill="#1c54f8" stroke="#fff" stroke-width="0.6"></rect><rect id="Rectangle_34" data-name="Rectangle 34" width="3" height="4" transform="translate(225 79.14)" fill="#1c54f8" stroke="#fff" stroke-width="0.6"></rect><path id="Path_12" data-name="Path 12" d="M65.908,2H43.258A1.258,1.258,0,0,0,42,3.258V28.425a1.258,1.258,0,0,0,1.258,1.258h6.921l3.4,4.53a1.258,1.258,0,0,0,2.013,0l3.4-4.53h6.921a1.258,1.258,0,0,0,1.258-1.258V3.258A1.258,1.258,0,0,0,65.908,2ZM64.65,27.167H58.358a1.258,1.258,0,0,0-1.007.5l-2.768,3.687L51.815,27.67a1.258,1.258,0,0,0-1.007-.5H44.517V4.517H64.65Z" transform="translate(228.333 73)" fill="#1c54f8" stroke="#fff" stroke-width="0.6"></path><rect id="Rectangle_35" data-name="Rectangle 35" width="15" height="4" transform="translate(276 79.14)" fill="#1c54f8" stroke="#fff" stroke-width="0.6"></rect><rect id="Rectangle_36" data-name="Rectangle 36" width="15" height="2" transform="translate(276 85.14)" fill="#1c54f8" stroke="#fff" stroke-width="0.6"></rect><rect id="Rectangle_37" data-name="Rectangle 37" width="15" height="2" transform="translate(276 90.14)" fill="#1c54f8" stroke="#fff" stroke-width="0.6"></rect><rect id="Rectangle_38" data-name="Rectangle 38" width="2" height="3" transform="translate(276 95.14)" fill="#1c54f8" stroke="#fff" stroke-width="0.6"></rect><rect id="Rectangle_39" data-name="Rectangle 39" width="6" height="3" transform="translate(280 95.14)" fill="#1c54f8" stroke="#fff" stroke-width="0.6"></rect><rect id="Rectangle_40" data-name="Rectangle 40" width="3" height="3" transform="translate(288 95.14)" fill="#1c54f8" stroke="#fff" stroke-width="0.6"></rect></g></g></svg> 