<?xml version="1.0" encoding="UTF-8"?> <svg xmlns="http://www.w3.org/2000/svg" xmlns:xlink="http://www.w3.org/1999/xlink" width="90" height="90" viewBox="0 0 90 90"><defs><clipPath id="clip-path"><rect id="Rectangle_4" data-name="Rectangle 4" width="90" height="90" transform="translate(112 72)" fill="#fff" stroke="#707070" stroke-width="1"></rect></clipPath></defs><g id="Mask_Group_1" data-name="Mask Group 1" transform="translate(-112 -72)" clip-path="url(#clip-path)"><g id="Group_2" data-name="Group 2" transform="translate(391.245 180.551)"><g id="Group_1" data-name="Group 1" transform="translate(-267.898 -99.95)"><path id="Path_1" data-name="Path 1" d="M75.733,41.763h-1.1v-2.2h11v2.2Zm-.612-4.456h-1.1v-2.2H86.261v2.2Zm.722-4.44h-1.1v-2.2H85.539v2.2Zm-20.16,9.806h-1.1v-2.2h8.754v2.2ZM54.13,38.217h-1.1v-2.2h8.754v2.2Zm1.177-4.456h-1.1v-2.2h9.7v2.2ZM88.6,27.282a12.528,12.528,0,0,1-6.605,21.651l-3.232,6.323-2.149-6.668a12.416,12.416,0,0,1-2.322-.941,12.212,12.212,0,0,1-2.557-1.8l-.047-.031h0a12.826,12.826,0,0,1-1.475-1.6,12.6,12.6,0,0,1-4.471,3.7l-1.161,7-4.079-5.7a12.545,12.545,0,1,1,9.617-20.207l.753-.91h0a12.51,12.51,0,0,1,17.666-.847l.063.031ZM68.94,42.2a12.6,12.6,0,0,1-.063-11.171,10.356,10.356,0,1,0-7.939,15.956l.612-.047,1.71,2.385.486-2.918a10.9,10.9,0,0,0,3.389-2.071,10.246,10.246,0,0,0,1.8-2.134Zm21.541-6.181a10.328,10.328,0,0,0-3.389-7.154l-.047-.031h0a10.338,10.338,0,0,0-14.575.753l-.031.047h0A10.426,10.426,0,0,0,69.8,37.056,10.271,10.271,0,0,0,71.168,41.7a10.743,10.743,0,0,0,2.071,2.557h0a10.41,10.41,0,0,0,4.487,2.353l.6.141.894,2.793,1.349-2.651A10.83,10.83,0,0,0,84.8,45.78a10.041,10.041,0,0,0,3.012-2.291,10.372,10.372,0,0,0,2.667-7.468ZM80.738,83.1v-1.1h2.2V94.6H102.42V78.114a11.625,11.625,0,0,0-3.718-2.84,11.312,11.312,0,0,0-4.895-1.1H84.064a11.322,11.322,0,0,0-8.613,3.938V94.6h5.271V83.1Zm8.205-28.648A8.456,8.456,0,1,0,97.4,62.912a8.45,8.45,0,0,0-8.456-8.456Zm-7.531.91A10.655,10.655,0,1,1,94.5,72a13.61,13.61,0,0,1,9.884,5.036l.251.3V81.5h4.173V91.78h-4.173V96.8H73.27V91.78H41.5V81.5h2.73V73.031l.251-.314A11.21,11.21,0,0,1,51.87,68.67a8.711,8.711,0,1,1,10.151,0,11.046,11.046,0,0,1,7.389,4.048l.251.314V81.5H73.27V77.33l.251-.3A13.665,13.665,0,0,1,83.405,72a10.668,10.668,0,0,1-1.993-16.63ZM104.632,83.7v5.883h1.977V83.7ZM73.27,89.583V83.7H43.7v5.883ZM46.426,81.5h3.765V76.608h2.2V81.5H67.481V73.816a8.9,8.9,0,0,0-2.84-2.149,8.748,8.748,0,0,0-3.8-.847H53.078a8.765,8.765,0,0,0-6.636,3V81.5Zm10.527-26.42a6.511,6.511,0,1,0,6.511,6.511,6.515,6.515,0,0,0-6.511-6.511Z" transform="translate(-41.5 -24.004)" fill="#1c54f8" stroke="#fff" stroke-width="0.4"></path></g></g></g></svg> 