<?xml version="1.0" encoding="UTF-8"?> <svg xmlns="http://www.w3.org/2000/svg" id="Layer_1" data-name="Layer 1" viewBox="0 0 94 94"><defs><style>.cls-1{fill:#1b54f8;stroke:#1b54f8;stroke-miterlimit:10;stroke-width:0.5px;}</style></defs><path class="cls-1" d="M63.4,61V32.5a1.11,1.11,0,0,0-1.1-1.1H31.7a1.11,1.11,0,0,0-1.1,1.1V61a1.11,1.11,0,0,0,1.1,1.1H62.3A1.11,1.11,0,0,0,63.4,61Zm-2.2-1H32.8V33.6H61.3V60Z"></path><path class="cls-1" d="M39.9,28.8V17.6a1.1,1.1,0,1,0-2.2,0V28.8a1.1,1.1,0,0,0,2.2,0Z"></path><path class="cls-1" d="M48.2,28.8V17.6a1.1,1.1,0,0,0-2.2,0V28.8a1.11,1.11,0,0,0,1.1,1.1A1.18,1.18,0,0,0,48.2,28.8Z"></path><path class="cls-1" d="M56.5,28.8V17.6a1.1,1.1,0,0,0-2.2,0V28.8a1.11,1.11,0,0,0,1.1,1.1A1.18,1.18,0,0,0,56.5,28.8Z"></path><path class="cls-1" d="M37.6,65.2V76.4a1.1,1.1,0,1,0,2.2,0V65.2a1.11,1.11,0,0,0-1.1-1.1A1.18,1.18,0,0,0,37.6,65.2Z"></path><path class="cls-1" d="M45.9,65.2V76.4a1.1,1.1,0,1,0,2.2,0V65.2A1.11,1.11,0,0,0,47,64.1,1.18,1.18,0,0,0,45.9,65.2Z"></path><path class="cls-1" d="M54.2,65.2V76.4a1.1,1.1,0,1,0,2.2,0V65.2a1.11,1.11,0,0,0-1.1-1.1A1.18,1.18,0,0,0,54.2,65.2Z"></path><path class="cls-1" d="M77.3,37.4H66a1.1,1.1,0,1,0,0,2.2H77.2a1.11,1.11,0,0,0,1.1-1.1A1,1,0,0,0,77.3,37.4Z"></path><path class="cls-1" d="M77.3,45.7H66a1.1,1.1,0,1,0,0,2.2H77.2a1.11,1.11,0,0,0,1.1-1.1A1,1,0,0,0,77.3,45.7Z"></path><path class="cls-1" d="M77.3,54H66a1.1,1.1,0,1,0,0,2.2H77.2a1.11,1.11,0,0,0,1.1-1.1A1,1,0,0,0,77.3,54Z"></path><path class="cls-1" d="M16.7,39.5H28a1.1,1.1,0,0,0,0-2.2H16.7a1.11,1.11,0,0,0-1.1,1.1C15.7,39.1,16.1,39.5,16.7,39.5Z"></path><path class="cls-1" d="M16.7,47.8H28a1.1,1.1,0,0,0,0-2.2H16.7a1.1,1.1,0,1,0,0,2.2Z"></path><path class="cls-1" d="M16.7,56.1H28A1.11,1.11,0,0,0,29.1,55,1.09,1.09,0,0,0,28,54H16.7a1.11,1.11,0,0,0-1.1,1.1A1,1,0,0,0,16.7,56.1Z"></path><path class="cls-1" d="M45,51.6a1.11,1.11,0,0,0,1.1-1.1V44.7a1.1,1.1,0,0,0-2.2,0v5.8A1.11,1.11,0,0,0,45,51.6Z"></path><path class="cls-1" d="M49.2,51.6a1.11,1.11,0,0,0,1.1-1.1V44.7a1.1,1.1,0,1,0-2.2,0v5.8A1.18,1.18,0,0,0,49.2,51.6Z"></path></svg> 