<?xml version="1.0" encoding="UTF-8"?> <svg xmlns="http://www.w3.org/2000/svg" xmlns:xlink="http://www.w3.org/1999/xlink" width="90" height="90" viewBox="0 0 90 90"><defs><clipPath id="clip-path"><rect id="Rectangle_15" data-name="Rectangle 15" width="90" height="90" transform="translate(587 642)" fill="#fff" stroke="#707070" stroke-width="1"></rect></clipPath></defs><g id="Mask_Group_26" data-name="Mask Group 26" transform="translate(-587 -642)" clip-path="url(#clip-path)"><g id="Group_61" data-name="Group 61" transform="translate(-10.003 -171.736)"><path id="Path_128" data-name="Path 128" d="M84.7,26.586a3.188,3.188,0,0,0-.935-2.148,3.234,3.234,0,0,0-2.354-.935,5.681,5.681,0,0,0-5.48,5.845L76.1,34.56l-.881,3.562a4.116,4.116,0,0,0-2.946,1.206l-5.8,5.8-2.007.347a6.452,6.452,0,0,0-3.456,1.786l-3.992,3.992a6.4,6.4,0,0,0-1.883,4.4l-.148,6.616a4.727,4.727,0,0,0-3.241,4.428l-.093,8.663a4.732,4.732,0,0,0,4.67,4.77l14.373.154h.052a4.731,4.731,0,0,0,4.719-4.67l.093-8.662a4.722,4.722,0,0,0-3.094-4.477l.029-.2a6.844,6.844,0,0,1,1.941-3.856l6.743-6.743a10.66,10.66,0,0,0,3.062-6.406l.716-6.787a4.373,4.373,0,0,0,.081-.766l0-.019c0-.01,0-.021,0-.031,0-.044.006-.087.006-.132ZM73.181,66.924l-.093,8.662a2.32,2.32,0,0,1-.705,1.642,2.4,2.4,0,0,1-1.657.67l-14.373-.153a2.347,2.347,0,0,1-2.312-2.362l.093-8.663a2.34,2.34,0,0,1,2.337-2.313H56.5l14.373.154a2.347,2.347,0,0,1,2.312,2.362ZM79.5,49.988l-6.743,6.743a9.213,9.213,0,0,0-2.614,5.194l-.036.246L57.38,62.034l.141-6.33a4.03,4.03,0,0,1,1.186-2.766L62.7,48.946a4.06,4.06,0,0,1,2.174-1.122l2.382-.412a1.15,1.15,0,0,0,.241-.069l.015-.008a1.191,1.191,0,0,0,.378-.251l.006,0,6.062-6.066a1.749,1.749,0,1,1,2.474,2.475l-6.965,6.965a1.192,1.192,0,0,0,1.686,1.684l6.965-6.965a4.115,4.115,0,0,0-.617-6.347l.952-3.853c0-.014,0-.026.006-.039a1.055,1.055,0,0,0,.017-.122c0-.041.008-.082.008-.123,0-.014,0-.026,0-.04l-.175-5.375a3.293,3.293,0,0,1,3.165-3.389.814.814,0,0,1,.842.781l.347,10.858-.08.764c0,.029-.008.057-.009.085l-.7,6.645A8.278,8.278,0,0,1,79.5,49.988Z" transform="translate(591.661 814.191)" fill="#1c54f8" stroke="#fff" stroke-width="0.6"></path><circle id="Ellipse_1" data-name="Ellipse 1" cx="2.039" cy="2.039" r="2.039" transform="translate(659.953 880.167)" fill="#1c54f8" stroke="#fff" stroke-width="0.6"></circle><path id="Path_129" data-name="Path 129" d="M36.351,62.265,36.2,55.649a6.4,6.4,0,0,0-1.883-4.4l-3.992-3.992a6.458,6.458,0,0,0-3.453-1.785l-2.01-.348-5.8-5.8a4.122,4.122,0,0,0-2.945-1.205l-.881-3.563.17-5.214A5.685,5.685,0,0,0,9.92,23.5a3.224,3.224,0,0,0-2.341.935,3.189,3.189,0,0,0-.935,2.151L6.295,37.541c0,.047.006.092.006.138v.02a4.285,4.285,0,0,0,.083.78L7.1,45.264a10.66,10.66,0,0,0,3.062,6.407l6.743,6.743a6.842,6.842,0,0,1,1.94,3.852l.03.206a4.722,4.722,0,0,0-3.094,4.477l.093,8.662a4.731,4.731,0,0,0,4.719,4.67h.052l14.373-.153a4.732,4.732,0,0,0,4.67-4.77l-.093-8.663A4.732,4.732,0,0,0,36.351,62.265ZM18.589,56.731l-6.743-6.743a8.275,8.275,0,0,1-2.378-4.971l-.7-6.644c0-.029-.006-.056-.009-.085l-.08-.764.346-10.855a.8.8,0,0,1,.238-.547.822.822,0,0,1,.591-.238,3.3,3.3,0,0,1,3.177,3.387l-.175,5.377c0,.014,0,.026,0,.04,0,.04,0,.082.008.123a1.03,1.03,0,0,0,.017.122c0,.014,0,.026.006.04l.952,3.853a4.116,4.116,0,0,0-.618,6.348l6.965,6.965a1.192,1.192,0,0,0,1.687-1.685l-6.965-6.965a1.749,1.749,0,0,1,2.474-2.475l6.063,6.067.006,0a1.193,1.193,0,0,0,.378.252l.014.007a1.15,1.15,0,0,0,.241.069l2.386.413a4.05,4.05,0,0,1,2.17,1.121l3.992,3.992A4.024,4.024,0,0,1,33.822,55.7l.141,6.331-12.725.137L21.2,61.92A9.206,9.206,0,0,0,18.589,56.731ZM36.633,77.039a2.32,2.32,0,0,1-1.642.705L20.618,77.9a2.347,2.347,0,0,1-2.362-2.312l-.094-8.663a2.347,2.347,0,0,1,2.312-2.363l14.373-.154h.025a2.34,2.34,0,0,1,2.337,2.313l.093,8.663A2.317,2.317,0,0,1,36.633,77.039Z" transform="translate(601 814.191)" fill="#1c54f8" stroke="#fff" stroke-width="0.6"></path><circle id="Ellipse_2" data-name="Ellipse 2" cx="2.039" cy="2.039" r="2.039" transform="translate(619.975 880.167)" fill="#1c54f8" stroke="#fff" stroke-width="0.6"></circle><path id="Path_130" data-name="Path 130" d="M29.171,27.614H31.41A13.977,13.977,0,0,0,32.561,30.4l-1.585,1.585a2.511,2.511,0,0,0,0,3.547L33.2,37.753a2.51,2.51,0,0,0,3.547,0l1.585-1.585a14.024,14.024,0,0,0,2.783,1.151v2.239a2.514,2.514,0,0,0,2.511,2.511h3.137a2.514,2.514,0,0,0,2.511-2.511V37.32a14.044,14.044,0,0,0,2.783-1.151l1.585,1.585a2.51,2.51,0,0,0,3.547,0l2.224-2.224a2.511,2.511,0,0,0,0-3.547L57.829,30.4a14.024,14.024,0,0,0,1.151-2.783h2.239A2.514,2.514,0,0,0,63.73,25.1V21.966a2.514,2.514,0,0,0-2.511-2.511H58.98a14.024,14.024,0,0,0-1.151-2.783l1.586-1.586a2.512,2.512,0,0,0,0-3.547L57.19,9.315a2.571,2.571,0,0,0-3.547,0L52.058,10.9a14,14,0,0,0-2.783-1.151V7.511A2.514,2.514,0,0,0,46.763,5H43.626a2.514,2.514,0,0,0-2.511,2.511V9.749A14,14,0,0,0,38.332,10.9L36.747,9.315a2.57,2.57,0,0,0-3.547,0L30.975,11.54a2.511,2.511,0,0,0,0,3.547l1.585,1.585a14.024,14.024,0,0,0-1.151,2.783H29.17a2.514,2.514,0,0,0-2.511,2.511V25.1A2.516,2.516,0,0,0,29.171,27.614Zm-.128-5.648a.126.126,0,0,1,.129-.129h3.153l.007,0a1.167,1.167,0,0,0,.351-.06c.019-.006.039-.01.058-.018a1.16,1.16,0,0,0,.3-.166c.017-.013.032-.026.048-.04a1.181,1.181,0,0,0,.234-.26c.007-.01.012-.022.018-.033a1.186,1.186,0,0,0,.141-.345s0-.007,0-.011a11.658,11.658,0,0,1,1.567-3.785,1.193,1.193,0,0,0,.091-.179c0-.008.008-.014.011-.022a1.19,1.19,0,0,0,.083-.423c0-.009,0-.017,0-.026a1.187,1.187,0,0,0-.082-.42c0-.009,0-.018-.009-.027a1.175,1.175,0,0,0-.252-.379s0-.006,0-.007l-.009-.009,0,0L32.661,13.4a.13.13,0,0,1,0-.179L34.886,11a.143.143,0,0,1,.178,0L37.3,13.23s.01.006.015.01a1.187,1.187,0,0,0,.344.229c.029.013.056.023.086.033a1.206,1.206,0,0,0,.4.077h0a1.181,1.181,0,0,0,.4-.078.97.97,0,0,0,.11-.05,1.262,1.262,0,0,0,.134-.06,11.638,11.638,0,0,1,3.785-1.567c.029-.006.054-.019.082-.027a1.131,1.131,0,0,0,.136-.044.975.975,0,0,0,.293-.189c.028-.024.058-.046.083-.072s.048-.058.072-.087a1.131,1.131,0,0,0,.071-.091c.02-.031.035-.064.052-.1s.039-.069.055-.106.025-.078.037-.117a.9.9,0,0,0,.029-.1,1.135,1.135,0,0,0,.016-.156c0-.025.007-.048.007-.072V7.511a.122.122,0,0,1,.126-.129h3.137a.126.126,0,0,1,.129.129v3.152c0,.025.006.048.007.072a1.135,1.135,0,0,0,.016.156c.007.036.02.069.029.1a1.171,1.171,0,0,0,.037.117,1.034,1.034,0,0,0,.055.106c.017.033.033.066.052.1a1.13,1.13,0,0,0,.071.091c.024.029.046.06.072.087s.056.048.083.072a1.066,1.066,0,0,0,.092.076c.033.022.068.04.1.059s.064.038.1.054a1.131,1.131,0,0,0,.136.044c.028.008.053.021.082.027a11.638,11.638,0,0,1,3.785,1.567,1.121,1.121,0,0,0,.134.06c.037.017.071.036.11.05a1.181,1.181,0,0,0,.4.078h0a1.186,1.186,0,0,0,.4-.077c.029-.01.057-.021.086-.033a1.172,1.172,0,0,0,.344-.229s.01-.006.015-.01L55.328,11a.143.143,0,0,1,.178,0l2.224,2.224a.129.129,0,0,1,0,.178l-2.22,2.22,0,0-.009.009s0,.006,0,.007a1.179,1.179,0,0,0-.252.379c0,.009-.006.018-.009.027a1.191,1.191,0,0,0-.082.42c0,.009,0,.017,0,.026a1.19,1.19,0,0,0,.083.423c0,.008.008.014.011.022a1.157,1.157,0,0,0,.091.179A11.658,11.658,0,0,1,56.9,20.9s0,.007,0,.011a1.181,1.181,0,0,0,.141.344l.018.034a1.192,1.192,0,0,0,.233.26c.017.014.032.028.049.041a1.19,1.19,0,0,0,.3.165c.019.007.039.012.058.018a1.166,1.166,0,0,0,.35.06l.007,0h3.153a.126.126,0,0,1,.129.129V25.1a.126.126,0,0,1-.129.129H58.066c-.026,0-.05.006-.075.008a1.209,1.209,0,0,0-.152.015,1.062,1.062,0,0,0-.112.032c-.036.011-.073.019-.107.033a1.25,1.25,0,0,0-.122.062c-.027.015-.055.027-.081.044a1.14,1.14,0,0,0-.109.085c-.023.019-.048.037-.07.058a1.209,1.209,0,0,0-.089.1c-.02.025-.042.047-.06.072a1.189,1.189,0,0,0-.071.124c-.013.026-.03.05-.042.078a1.211,1.211,0,0,0-.052.16c-.006.021-.015.039-.02.06a11.658,11.658,0,0,1-1.567,3.785,1.193,1.193,0,0,0-.091.179c0,.008-.008.014-.011.022a1.19,1.19,0,0,0-.083.423c0,.009,0,.017,0,.026a1.187,1.187,0,0,0,.082.42c0,.009,0,.018.009.027a1.175,1.175,0,0,0,.252.379s0,.006,0,.007l.009.009,0,0,2.22,2.22a.129.129,0,0,1,0,.178l-2.224,2.224a.129.129,0,0,1-.178,0L53.11,33.85l-.006-.006-.007-.007-.006,0a1.192,1.192,0,0,0-.38-.253l-.028-.009a1.2,1.2,0,0,0-.419-.082l-.03,0a1.186,1.186,0,0,0-.419.082c-.009,0-.016.009-.024.012a1.145,1.145,0,0,0-.179.091,11.673,11.673,0,0,1-3.785,1.567c-.021,0-.041.014-.062.021a1.313,1.313,0,0,0-.158.052c-.03.013-.057.031-.086.047a1.168,1.168,0,0,0-.115.066c-.03.021-.057.046-.085.07s-.062.049-.09.078-.046.056-.069.084-.052.061-.075.1-.033.061-.05.092a1.2,1.2,0,0,0-.056.11c-.014.036-.023.074-.034.111s-.024.071-.032.11a1.075,1.075,0,0,0-.014.144c0,.029-.009.056-.009.084v3.152a.126.126,0,0,1-.129.129H43.627a.126.126,0,0,1-.129-.129V36.406c0-.029-.006-.056-.009-.084a1.224,1.224,0,0,0-.014-.144,1.02,1.02,0,0,0-.032-.11c-.011-.037-.02-.075-.034-.111a1.11,1.11,0,0,0-.056-.11c-.017-.031-.031-.063-.05-.092s-.049-.064-.075-.1-.044-.058-.069-.084-.06-.052-.09-.078a1.019,1.019,0,0,0-.085-.07,1.267,1.267,0,0,0-.115-.066c-.029-.015-.056-.033-.086-.047a1.149,1.149,0,0,0-.158-.052c-.021-.006-.04-.016-.062-.021a11.673,11.673,0,0,1-3.785-1.567,1.253,1.253,0,0,0-.181-.092l-.019-.01a1.187,1.187,0,0,0-.429-.083l-.018,0a1.2,1.2,0,0,0-.428.083l-.02.006a1.178,1.178,0,0,0-.384.255l-.006,0-.006.006-.009.009L35.062,36.07a.129.129,0,0,1-.178,0L32.66,33.845a.129.129,0,0,1,0-.178l2.22-2.22,0,0,.009-.009s0-.006,0-.007a1.179,1.179,0,0,0,.252-.379c0-.009.006-.018.009-.027a1.19,1.19,0,0,0,.082-.42c0-.009,0-.017,0-.026a1.19,1.19,0,0,0-.083-.423c0-.008-.008-.014-.011-.022a1.156,1.156,0,0,0-.091-.179,11.658,11.658,0,0,1-1.567-3.785c0-.023-.015-.043-.021-.065a1.194,1.194,0,0,0-.05-.153,1.017,1.017,0,0,0-.052-.1c-.02-.035-.037-.071-.06-.1a1.118,1.118,0,0,0-.078-.095c-.023-.027-.044-.056-.07-.081a1.059,1.059,0,0,0-.092-.075c-.029-.023-.056-.048-.087-.068s-.068-.037-.1-.056-.065-.037-.1-.051a1.108,1.108,0,0,0-.126-.039c-.032-.009-.062-.021-.095-.027a1.169,1.169,0,0,0-.159-.016c-.024,0-.046-.007-.071-.007H29.17a.126.126,0,0,1-.129-.129V21.966Z" transform="translate(596.808 818)" fill="#1c54f8" stroke="#fff" stroke-width="0.6"></path><path id="Path_131" data-name="Path 131" d="M48.29,33.227a6.6,6.6,0,1,0-6.6-6.6A6.605,6.605,0,0,0,48.29,33.227Zm0-10.812a4.215,4.215,0,1,1-4.215,4.214A4.22,4.22,0,0,1,48.29,22.414Z" transform="translate(593.713 814.905)" fill="#1c54f8" stroke="#fff" stroke-width="0.6"></path></g></g></svg> 