<?xml version="1.0" encoding="UTF-8"?> <!-- Generator: Adobe Illustrator 25.2.3, SVG Export Plug-In . SVG Version: 6.00 Build 0) --> <svg xmlns="http://www.w3.org/2000/svg" xmlns:xlink="http://www.w3.org/1999/xlink" version="1.1" id="Layer_1" x="0px" y="0px" viewBox="0 0 94 94" style="enable-background:new 0 0 94 94;" xml:space="preserve"> <style type="text/css"> .st0{fill:#E6EEFF;} .st1{fill:#1B54F8;} </style> <desc>Created with Sketch.</desc> <path class="st0" d="M87.5,93.5h-81c-3.3,0-6-2.7-6-6v-81c0-3.3,2.7-6,6-6h81c3.3,0,6,2.7,6,6v81C93.5,90.8,90.8,93.5,87.5,93.5z"></path> <path class="st1" d="M18.4,47c0-15.7,12.8-28.6,28.6-28.6v-2.5c0-0.3,0.3-0.5,0.5-0.3l6.7,4.6c0.2,0.1,0.2,0.4,0,0.5l-6.7,4.6 c-0.2,0.1-0.5,0-0.5-0.3v-2.5c-13.4,0-24.3,10.9-24.3,24.3c0,7.7,3.7,15.2,10.1,19.7L30.3,70C22.8,64.8,18.4,56.1,18.4,47z M63.8,23.9l-2.5,3.4c6.3,4.6,10.1,12,10.1,19.7c0,13.4-10.9,24.3-24.3,24.3l0,0v-2.5c0-0.3-0.3-0.5-0.5-0.3l-6.7,4.6 c-0.2,0.1-0.2,0.4,0,0.5l6.7,4.6c0.2,0.1,0.5,0,0.5-0.3v-2.5l0,0c15.7,0,28.6-12.8,28.6-28.6C75.6,37.9,71.2,29.2,63.8,23.9z M60.9,37.2L59,39.1c1,1.5,1.8,3.3,2.1,5.2h2.6c0.6,0,1.2,0.5,1.2,1.2v3.2c0,0.6-0.5,1.2-1.2,1.2H61c-0.4,1.9-1.1,3.6-2.1,5.2 l1.9,1.9c0.5,0.5,0.5,1.2,0,1.7L58.5,61c-0.5,0.5-1.2,0.5-1.7,0L55,58.9c-1.5,1-3.3,1.8-5.2,2.1v2.7c0,0.6-0.5,1.2-1.2,1.2h-3.2 c-0.6,0-1.2-0.5-1.2-1.2V61c-1.9-0.4-3.6-1.1-5.2-2.1l-1.9,1.9c-0.5,0.5-1.2,0.5-1.7,0l-2.5-2.1c-0.5-0.5-0.5-1.2,0-1.7l1.9-1.9 c-1-1.5-1.8-3.3-2.1-5.2h-2.6c-0.6,0-1.2-0.5-1.2-1.2v-3.2c0-0.6,0.5-1.2,1.2-1.2h2.7c0.4-1.9,1.1-3.6,2.1-5.2L33,37.2 c-0.5-0.5-0.5-1.2,0-1.7l2.3-2.3c0.5-0.5,1.2-0.5,1.7,0l1.9,1.9c1.5-1,3.3-1.8,5.2-2.1v-2.7c0-0.6,0.5-1.2,1.2-1.2h3.2 c0.6,0,1.2,0.5,1.2,1.2V33c1.9,0.4,3.6,1.1,5.2,2.1l1.9-1.9c0.5-0.5,1.2-0.5,1.7,0l2.3,2.3C61.3,36,61.3,36.8,60.9,37.2z M52,47.6 h-2.6v-6.7c0-0.3-0.3-0.5-0.5-0.5h-3.8c-0.3,0-0.5,0.3-0.5,0.5v6.7H42c-0.3,0-0.5,0.3-0.3,0.5l4.9,6c0.2,0.2,0.5,0.2,0.6,0l4.9-6 C52.4,47.9,52.3,47.6,52,47.6z"></path> </svg> 