<?xml version="1.0" encoding="UTF-8"?> <svg xmlns="http://www.w3.org/2000/svg" xmlns:xlink="http://www.w3.org/1999/xlink" width="90" height="90" viewBox="0 0 90 90"><defs><clipPath id="clip-path"><rect id="Rectangle_15" data-name="Rectangle 15" width="90" height="90" transform="translate(993 589)" fill="#fff" stroke="#707070" stroke-width="1"></rect></clipPath></defs><g id="Mask_Group_15" data-name="Mask Group 15" transform="translate(-993 -589)" clip-path="url(#clip-path)"><g id="Group_247" data-name="Group 247" transform="translate(-258.359 271)"><path id="Path_328" data-name="Path 328" d="M166,34.555h-60.72a8.9,8.9,0,0,0-8.863,8.856V86.7a8.863,8.863,0,0,0,8.853,8.853h9.177a1.634,1.634,0,0,0,0-3.268h-9.177A5.591,5.591,0,0,1,99.684,86.7V50h71.9V86.7A5.591,5.591,0,0,1,166,92.282h-9.161a1.634,1.634,0,0,0,0,3.268H166a8.863,8.863,0,0,0,8.853-8.853c0-29.821,0,2.631.005-43.283A8.869,8.869,0,0,0,166,34.556ZM99.688,46.732V43.413a5.627,5.627,0,0,1,5.6-5.587H166a5.591,5.591,0,0,1,5.585,5.585v3.32Z" transform="translate(1160.944 290.445)" fill="#1b54f8" stroke="#fff" stroke-width="1.4"></path><path id="Path_329" data-name="Path 329" d="M166.651,73.922h-.018a1.643,1.643,0,1,0,.017,0Z" transform="translate(1102.959 257.167)" fill="#1b54f8" stroke="#fff" stroke-width="1.4"></path><path id="Path_330" data-name="Path 330" d="M213.468,73.922h-.017a1.642,1.642,0,1,0,.017,0Z" transform="translate(1063.384 257.167)" fill="#1b54f8" stroke="#fff" stroke-width="1.4"></path><path id="Path_331" data-name="Path 331" d="M260.288,73.922h-.017a1.642,1.642,0,1,0,.017,0Z" transform="translate(1023.805 257.167)" fill="#1b54f8" stroke="#fff" stroke-width="1.4"></path><path id="Path_332" data-name="Path 332" d="M369.726,73.922H343.038a1.634,1.634,0,1,0,0,3.268h26.687a1.634,1.634,0,0,0,0-3.268Z" transform="translate(953.846 257.167)" fill="#1b54f8" stroke="#fff" stroke-width="1.4"></path><path id="Path_333" data-name="Path 333" d="M148.668,360.426h9.255a1.634,1.634,0,1,0,0-3.268h-9.255a1.634,1.634,0,1,0,0,3.268Z" transform="translate(1118.154 17.737)" fill="#1b54f8" stroke="#fff" stroke-width="1.4"></path><path id="Path_334" data-name="Path 334" d="M148.668,320.446h13.656a1.634,1.634,0,0,0,0-3.268H148.668a1.634,1.634,0,0,0,0,3.268Z" transform="translate(1118.154 51.534)" fill="#1b54f8" stroke="#fff" stroke-width="1.4"></path><path id="Path_335" data-name="Path 335" d="M169.51,163.907H148.716a1.634,1.634,0,0,0-1.634,1.634v16.111c0,.018,0,.034,0,.051v.087c0,.013.007.024.007.036a1.62,1.62,0,0,0,.112.555c.008.022.013.044.023.066s.016.058.03.085a1.625,1.625,0,0,0,.3.4c.013.014.03.022.044.036a1.64,1.64,0,0,0,.416.28c.045.022.088.042.135.059a1.622,1.622,0,0,0,.547.111c.008,0,.015,0,.022,0h20.795c.008,0,.014,0,.021,0a1.773,1.773,0,0,0,1.134-.474,1.63,1.63,0,0,0,.284-.37c.021-.038.028-.08.046-.119s.02-.051.03-.078a1.628,1.628,0,0,0,.119-.681V165.541a1.635,1.635,0,0,0-1.635-1.634Zm-1.634,3.269v8.978l-3.407-5.367a1.636,1.636,0,0,0-1.38-.758h0a1.635,1.635,0,0,0-1.38.761l-3.985,6.3-2.492-3.449a1.634,1.634,0,0,0-2.649,0l-2.232,3.088v-9.554Zm-15.971,12.979,2-2.767,2,2.767Zm7.746,0,3.44-5.439,3.453,5.439Z" transform="translate(1118.114 181.099)" fill="#1b54f8" stroke="#fff" stroke-width="1.4"></path><path id="Path_336" data-name="Path 336" d="M255.5,312.578l-.431,2.779a12.663,12.663,0,0,0-1.271.53l-2.266-1.667a1.634,1.634,0,0,0-2.127.162l-3.316,3.328a1.635,1.635,0,0,0-.16,2.119l1.664,2.273a13.221,13.221,0,0,0-.524,1.267l-2.789.431a1.634,1.634,0,0,0-1.385,1.615v4.7a1.633,1.633,0,0,0,1.385,1.615l2.791.43a12.028,12.028,0,0,0,.527,1.272l-1.667,2.266a1.634,1.634,0,0,0,.16,2.124l3.316,3.316a1.635,1.635,0,0,0,2.124.161l2.259-1.66a12.929,12.929,0,0,0,1.28.533l.43,2.779a1.634,1.634,0,0,0,1.615,1.384h4.7a1.634,1.634,0,0,0,1.615-1.384l.431-2.779a13.053,13.053,0,0,0,1.278-.533l2.259,1.66a1.634,1.634,0,0,0,2.124-.161l3.316-3.316a1.633,1.633,0,0,0,.16-2.124l-1.667-2.266a12.154,12.154,0,0,0,.527-1.272l2.791-.43a1.634,1.634,0,0,0,1.385-1.615v-4.7a1.634,1.634,0,0,0-1.385-1.615l-2.789-.431a12.81,12.81,0,0,0-.524-1.267L273,319.828a1.635,1.635,0,0,0-.16-2.119l-3.316-3.328a1.636,1.636,0,0,0-2.127-.162l-2.265,1.668a12.6,12.6,0,0,0-1.271-.53l-.431-2.779a1.634,1.634,0,0,0-1.615-1.384h-4.7a1.634,1.634,0,0,0-1.615,1.384Zm2.643,4.289.373-2.4h1.9l.373,2.4a1.634,1.634,0,0,0,1.2,1.33,9.388,9.388,0,0,1,2.442,1.02,1.632,1.632,0,0,0,1.808-.087l1.963-1.445,1.336,1.34-1.442,1.969a1.634,1.634,0,0,0-.092,1.791,9.759,9.759,0,0,1,1.017,2.455,1.634,1.634,0,0,0,1.331,1.2l2.415.373v1.894l-2.426.374A1.634,1.634,0,0,0,269,330.307a8.868,8.868,0,0,1-1,2.42,1.635,1.635,0,0,0,.087,1.808l1.447,1.966-1.33,1.33-1.955-1.436a1.634,1.634,0,0,0-1.792-.094,9.706,9.706,0,0,1-2.462,1.025,1.634,1.634,0,0,0-1.207,1.332l-.373,2.405h-1.9l-.373-2.405a1.633,1.633,0,0,0-1.207-1.332,9.677,9.677,0,0,1-2.463-1.025,1.63,1.63,0,0,0-1.792.094l-1.955,1.436-1.33-1.33,1.447-1.966a1.634,1.634,0,0,0,.088-1.806,8.874,8.874,0,0,1-1-2.421,1.636,1.636,0,0,0-1.338-1.223l-2.426-.374v-1.894l2.415-.373a1.634,1.634,0,0,0,1.332-1.2,9.734,9.734,0,0,1,1.015-2.455,1.633,1.633,0,0,0-.092-1.789l-1.442-1.97,1.336-1.341,1.965,1.446a1.633,1.633,0,0,0,1.808.087,9.383,9.383,0,0,1,2.442-1.02,1.639,1.639,0,0,0,1.2-1.332Z" transform="translate(1037.119 56.592)" fill="#1b54f8" stroke="#fff" stroke-width="1.4"></path><path id="Path_337" data-name="Path 337" d="M302.04,377.763a7.42,7.42,0,1,0,7.42-7.42A7.429,7.429,0,0,0,302.04,377.763Zm7.42-4.151a4.152,4.152,0,1,1-4.152,4.152A4.157,4.157,0,0,1,309.46,373.612Z" transform="translate(987.122 6.591)" fill="#1b54f8" stroke="#fff" stroke-width="1.4"></path><path id="Path_338" data-name="Path 338" d="M349.488,215.5h28.454a1.634,1.634,0,1,0,0-3.268H349.488a1.634,1.634,0,1,0,0,3.268Z" transform="translate(948.393 140.252)" fill="#1b54f8" stroke="#fff" stroke-width="1.4"></path><path id="Path_339" data-name="Path 339" d="M349.488,167.186h28.454a1.634,1.634,0,1,0,0-3.268H349.488a1.634,1.634,0,1,0,0,3.268Z" transform="translate(948.393 181.09)" fill="#1b54f8" stroke="#fff" stroke-width="1.4"></path><path id="Path_340" data-name="Path 340" d="M453.147,308.84H438.459a1.634,1.634,0,0,0,0,3.268h14.688a1.634,1.634,0,1,0,0-3.268Z" transform="translate(873.183 58.582)" fill="#1b54f8" stroke="#fff" stroke-width="1.4"></path><path id="Path_341" data-name="Path 341" d="M349.488,263.806h28.454a1.634,1.634,0,1,0,0-3.268H349.488a1.634,1.634,0,1,0,0,3.268Z" transform="translate(948.393 99.413)" fill="#1b54f8" stroke="#fff" stroke-width="1.4"></path><path id="Path_342" data-name="Path 342" d="M482.929,357.16H473.69a1.634,1.634,0,1,0,0,3.268h9.239a1.634,1.634,0,1,0,0-3.268Z" transform="translate(843.401 17.735)" fill="#1b54f8" stroke="#fff" stroke-width="1.4"></path></g></g></svg> 