<?xml version="1.0" encoding="UTF-8"?> <svg xmlns="http://www.w3.org/2000/svg" width="90" height="90" viewBox="0 0 90 90" fill="none"><mask id="mask0_2_331" style="mask-type:luminance" maskUnits="userSpaceOnUse" x="0" y="0" width="90" height="90"><path d="M90 0H0V90H90V0Z" fill="white"></path></mask><g mask="url(#mask0_2_331)"><path d="M89.25 39.1501C89.25 38.8501 89.0999 38.7 88.7999 38.55L80.4 34.95C79.65 31.95 78.2999 28.95 76.7999 26.25L80.0999 17.85C80.2499 17.55 80.1 17.4 79.95 17.1C77.7 14.25 75.1499 11.7 72.2999 9.45003C72.1499 9.30003 71.8499 9.30002 71.5499 9.30002L63.15 12.6C60.45 10.95 57.45 9.75005 54.45 9.00005L50.8499 0.600037C50.6999 0.300037 50.55 0.150055 50.25 0.150055C48.45 5.49257e-05 46.6499 -0.149963 44.8499 -0.149963C43.0499 -0.149963 41.25 5.49257e-05 39.45 0.150055C39.15 0.150055 38.9999 0.300037 38.8499 0.600037L35.25 9.00005C32.25 9.75005 29.2499 11.1 26.5499 12.6L18.15 9.30002C17.85 9.15002 17.7 9.30003 17.4 9.45003C14.55 11.7 12 14.25 9.75 17.1C9.6 17.25 9.59995 17.55 9.59995 17.85L12.9 26.25C11.25 28.95 10.0499 31.95 9.29993 34.95L0.899963 38.55C0.599963 38.7 0.449982 38.8501 0.449982 39.1501C0.299982 40.9501 0.149963 42.75 0.149963 44.55C0.149963 46.35 0.299982 48.15 0.449982 49.95C0.449982 50.25 0.599963 50.4 0.899963 50.55L9.29993 54.1501C10.0499 57.1501 11.4 60.15 12.9 62.85L9.59995 71.25C9.44995 71.55 9.6 71.7 9.75 72C12 74.85 14.55 77.4001 17.4 79.6501C17.55 79.8001 17.85 79.8 18.15 79.8L26.5499 76.5C29.2499 78.15 32.25 79.35 35.25 80.1L38.8499 88.5C38.9999 88.8 39.15 88.9501 39.45 88.9501C41.25 89.1001 43.0499 89.25 44.8499 89.25C46.6499 89.25 48.45 89.1001 50.25 88.9501C50.55 88.9501 50.6999 88.8 50.8499 88.5L54.45 80.1C57.45 79.35 60.45 78 63.15 76.5L71.5499 79.8C71.8499 79.95 71.9999 79.8001 72.2999 79.6501C75.1499 77.4001 77.7 74.85 79.95 72C80.1 71.85 80.0999 71.55 80.0999 71.25L76.7999 62.85C78.4499 60.15 79.65 57.1501 80.4 54.1501L88.7999 50.55C89.0999 50.4 89.25 50.25 89.25 49.95C89.4 48.15 89.5499 46.35 89.5499 44.55C89.5499 42.9 89.4 40.9501 89.25 39.1501ZM87.9 49.5L79.65 53.1C79.5 53.25 79.35 53.4 79.2 53.55C78.45 56.7 77.1 59.7 75.45 62.55C75.3 62.7 75.3 63.0001 75.45 63.1501L78.75 71.55C76.65 74.1 74.3999 76.3501 71.8499 78.4501L63.45 75.1501C63.3 75.0001 62.9999 75.1501 62.8499 75.1501C59.9999 76.8001 56.9999 78.0001 53.8499 78.9001C53.6999 78.9001 53.4 79.05 53.4 79.35L49.7999 87.6C48.1499 87.75 46.5 87.9001 45 87.9001C43.35 87.9001 41.7 87.75 40.2 87.6L36.5999 79.35C36.4499 79.2 36.3 79.0501 36.15 78.9001C33 78.1501 30 76.8001 27.15 75.1501C27 75.0001 26.6999 75.0001 26.5499 75.1501L18.15 78.4501C15.6 76.3501 13.35 74.1 11.25 71.55L14.5499 63.1501C14.6999 63.0001 14.5499 62.7 14.5499 62.55C12.8999 59.7 11.6999 56.7 10.7999 53.55C10.7999 53.4 10.6499 53.1 10.3499 53.1L2.09995 49.5C1.94995 47.85 1.79993 46.2 1.79993 44.7C1.79993 43.05 1.94995 41.4001 2.09995 39.9001L10.3499 36.3C10.4999 36.15 10.6499 36 10.7999 35.85C11.5499 32.7 12.8999 29.7 14.5499 26.85C14.6999 26.7 14.6999 26.4 14.5499 26.25L11.25 17.85C13.35 15.3 15.6 13.05 18.15 10.95L26.5499 14.25C26.6999 14.4 27 14.25 27.15 14.25C30 12.6 33 11.4 36.15 10.5C36.3 10.5 36.5999 10.35 36.5999 10.05L40.2 1.80002C41.85 1.65002 43.5 1.50005 45 1.50005C46.65 1.50005 48.2999 1.65002 49.7999 1.80002L53.4 10.05C53.55 10.2 53.6999 10.35 53.8499 10.5C56.9999 11.25 59.9999 12.6 62.8499 14.25C62.9999 14.4 63.3 14.4 63.45 14.25L71.8499 10.95C74.3999 13.05 76.65 15.3 78.75 17.85L75.45 26.25C75.3 26.4 75.45 26.7 75.45 26.85C77.1 29.7 78.3 32.7 79.2 35.85C79.2 36 79.35 36.3 79.65 36.3L87.9 39.9001C88.05 41.5501 88.2 43.2 88.2 44.7C88.2 46.2 88.05 47.85 87.9 49.5Z" fill="#1B54F8" stroke="#1B54F8" stroke-width="1.5" stroke-miterlimit="10"></path><path d="M45 16.8C29.7 16.8 17.25 29.25 17.25 44.55C17.25 59.85 29.7 72.3 45 72.3C60.3 72.3 72.75 59.85 72.75 44.55C72.75 29.25 60.3 16.8 45 16.8ZM45 70.9501C30.45 70.9501 18.5999 59.1 18.5999 44.55C18.5999 30 30.45 18.1501 45 18.1501C59.55 18.1501 71.4 30 71.4 44.55C71.4 59.1 59.55 70.9501 45 70.9501Z" fill="#1B54F8" stroke="#1B54F8" stroke-width="1.5" stroke-miterlimit="10"></path><path d="M45.75 45.45V27.15C45.75 26.7 45.45 26.4 45 26.4C44.55 26.4 44.25 26.7 44.25 27.15V45.45C41.85 45.75 40.0499 47.85 40.0499 50.25C40.0499 52.65 41.85 54.75 44.25 55.05V61.95C44.25 62.4 44.55 62.7 45 62.7C45.45 62.7 45.75 62.4 45.75 61.95V55.05C48.15 54.75 49.95 52.65 49.95 50.25C49.8 47.85 48 45.9 45.75 45.45ZM41.5499 50.25C41.5499 48.3 43.05 46.8 45 46.8C46.95 46.8 48.45 48.3 48.45 50.25C48.45 52.2 46.95 53.7 45 53.7C43.05 53.85 41.5499 52.2 41.5499 50.25Z" fill="#1B54F8" stroke="#1B54F8" stroke-width="1.5" stroke-miterlimit="10"></path><path d="M60 31.5001V27.3C60 26.85 59.7 26.55 59.25 26.55C58.8 26.55 58.5 26.85 58.5 27.3V31.5001C56.1 31.8001 54.2999 33.9 54.2999 36.3C54.2999 38.7 56.1 40.8001 58.5 41.1001V62.1001C58.5 62.5501 58.8 62.8501 59.25 62.8501C59.7 62.8501 60 62.5501 60 62.1001V41.1001C62.4 40.8001 64.2 38.7 64.2 36.3C64.2 33.9 62.25 31.8001 60 31.5001ZM55.7999 36.3C55.7999 34.35 57.3 32.8501 59.25 32.8501C61.2 32.8501 62.7 34.35 62.7 36.3C62.7 38.25 61.2 39.7501 59.25 39.7501C57.3 39.7501 55.7999 38.25 55.7999 36.3Z" fill="#1B54F8" stroke="#1B54F8" stroke-width="1.5" stroke-miterlimit="10"></path><path d="M31.3499 39.75V27.15C31.3499 26.7 31.0499 26.4 30.5999 26.4C30.1499 26.4 29.8499 26.7 29.8499 27.15V39.75C27.4499 40.05 25.65 42.15 25.65 44.55C25.65 46.95 27.4499 49.05 29.8499 49.35V61.95C29.8499 62.4 30.1499 62.7 30.5999 62.7C31.0499 62.7 31.3499 62.4 31.3499 61.95V49.35C33.7499 49.05 35.5499 46.95 35.5499 44.55C35.5499 42.15 33.7499 40.2 31.3499 39.75ZM27.15 44.55C27.15 42.6 28.6499 41.1 30.5999 41.1C32.5499 41.1 34.0499 42.6 34.0499 44.55C34.0499 46.5 32.5499 48 30.5999 48C28.6499 48 27.15 46.5 27.15 44.55Z" fill="#1B54F8" stroke="#1B54F8" stroke-width="1.5" stroke-miterlimit="10"></path></g></svg> 