<?xml version="1.0" encoding="UTF-8"?> <svg xmlns="http://www.w3.org/2000/svg" xmlns:xlink="http://www.w3.org/1999/xlink" width="60" height="60" viewBox="0 0 60 60"><defs><clipPath id="clip-path"><rect id="Rectangle_797" data-name="Rectangle 797" width="60" height="60" transform="translate(774 424)" fill="#fff" stroke="#707070" stroke-width="1"></rect></clipPath></defs><g id="Mask_Group_81" data-name="Mask Group 81" transform="translate(-774 -424)" clip-path="url(#clip-path)"><g id="Group_93" data-name="Group 93" transform="translate(103.373 39)"><path id="Path_136" data-name="Path 136" d="M50.893,57.153H12.869A3.765,3.765,0,0,1,9.11,53.394V27.736A3.765,3.765,0,0,1,12.869,24H18.3a.586.586,0,0,1,0,1.171H12.869a2.588,2.588,0,0,0-2.588,2.588V53.394a2.588,2.588,0,0,0,2.588,2.588H50.893a2.588,2.588,0,0,0,2.588-2.588V27.736a2.588,2.588,0,0,0-2.588-2.565H45.46a.586.586,0,0,1,0-1.171h5.434a3.765,3.765,0,0,1,3.759,3.759V53.394A3.765,3.765,0,0,1,50.893,57.153Z" transform="translate(668.68 377.268)" fill="#1c54f8"></path><path id="Path_137" data-name="Path 137" d="M52.634,56.418H14.61a1.306,1.306,0,0,1-1.3-1.3V29.46a1.3,1.3,0,0,1,1.3-1.3h5.434a.586.586,0,1,1,0,1.171H14.61a.129.129,0,0,0-.129.129V55.118a.129.129,0,0,0,.129.129H52.634a.129.129,0,0,0,.129-.129V29.46a.129.129,0,0,0-.129-.129H47.2a.586.586,0,0,1,0-1.171h5.434a1.3,1.3,0,0,1,1.3,1.3V55.118A1.306,1.306,0,0,1,52.634,56.418Z" transform="translate(666.939 375.543)" fill="#1c54f8"></path><path id="Path_138" data-name="Path 138" d="M52.069,83.016H5.812A3.806,3.806,0,0,1,2,79.216a.586.586,0,0,1,.586-.586h52.7a.586.586,0,0,1,.586.586A3.806,3.806,0,0,1,52.069,83.016ZM3.235,79.8A2.641,2.641,0,0,0,5.8,81.845H52.057A2.641,2.641,0,0,0,54.621,79.8Z" transform="translate(671.627 354.625)" fill="#1c54f8"></path><path id="Path_139" data-name="Path 139" d="M51.552,44.233H24.4a.586.586,0,0,1-.586-.586V10.466A.586.586,0,0,1,24.4,9.88H51.552a.586.586,0,0,1,.586.586V43.647A.586.586,0,0,1,51.552,44.233ZM24.981,43.062H50.967V11.051H24.981Z" transform="translate(662.587 383.12)" fill="#1c54f8"></path><path id="Path_140" data-name="Path 140" d="M50.322,20.631H31.586a.586.586,0,0,1,0-1.171H50.322a.586.586,0,1,1,0,1.171Z" transform="translate(659.607 379.149)" fill="#1c54f8"></path><path id="Path_141" data-name="Path 141" d="M50.322,30.011H31.586a.586.586,0,1,1,0-1.171H50.322a.586.586,0,1,1,0,1.171Z" transform="translate(659.607 375.262)" fill="#1c54f8"></path><path id="Path_142" data-name="Path 142" d="M42.295,39.391H31.586a.586.586,0,1,1,0-1.171H42.3a.586.586,0,1,1,0,1.171Z" transform="translate(659.607 371.374)" fill="#1c54f8"></path><path id="Path_143" data-name="Path 143" d="M36.568,48.761H31.586a.586.586,0,1,1,0-1.171h4.989a.586.586,0,1,1,0,1.171Z" transform="translate(659.607 367.49)" fill="#1c54f8"></path><path id="Path_144" data-name="Path 144" d="M50.322,58.171H31.586a.586.586,0,0,1,0-1.171H50.322a.586.586,0,1,1,0,1.171Z" transform="translate(659.607 363.59)" fill="#1c54f8"></path><path id="Path_145" data-name="Path 145" d="M37.5,48.617a.586.586,0,0,1-.586-.708L38,42.85a.621.621,0,0,1,.158-.293l7.665-7.67a3.4,3.4,0,0,1,4.8,4.8l-7.653,7.653a.586.586,0,0,1-.287.158l-5.065,1.118Zm1.628-5.358-.867,4.011,4.011-.861,7.524-7.547a2.225,2.225,0,0,0,0-3.144,2.272,2.272,0,0,0-3.144,0Zm3.437,3.683Z" transform="translate(657.162 373.144)" fill="#1c54f8"></path><path id="Path_146" data-name="Path 146" d="M53.325,43.491a.586.586,0,0,1-.416-.176l-3.97-3.97a.584.584,0,1,1,.826-.826l3.976,3.97a.588.588,0,0,1-.416,1Z" transform="translate(652.242 371.32)" fill="#1c54f8"></path><path id="Path_147" data-name="Path 147" d="M43.341,53.456a.586.586,0,0,1-.416-.17l-3.976-3.993a.586.586,0,1,1,.831-.826l3.97,3.97a.586.586,0,0,1-.41,1Z" transform="translate(656.383 367.198)" fill="#1c54f8"></path></g></g></svg> 