<?xml version="1.0" encoding="UTF-8"?> <svg xmlns="http://www.w3.org/2000/svg" width="60" height="60" viewBox="0 0 60 60" fill="none"><mask id="mask0_1_19" style="mask-type:alpha" maskUnits="userSpaceOnUse" x="0" y="0" width="60" height="60"><rect width="60" height="60" fill="#D9D9D9"></rect></mask><g mask="url(#mask0_1_19)"><path d="M26.7709 14.7079C27.5034 15.3704 27.4934 16.0579 27.476 17.0979C27.4735 17.2504 27.471 17.4029 27.471 17.5604C27.471 17.9279 27.616 18.263 27.886 18.5254C28.496 19.1179 29.551 19.1604 30.001 19.1504C30.036 19.1504 30.0735 19.1529 30.1135 19.1529C30.606 19.1529 31.551 19.0754 32.116 18.5279C32.3885 18.2629 32.531 17.9304 32.531 17.5629C32.531 17.4054 32.5285 17.2504 32.526 17.1004C32.511 16.0604 32.4985 15.3729 33.2311 14.7104C34.3186 13.7253 34.8936 12.3479 34.8111 10.9329C34.6536 8.26282 32.6311 6.32532 30.0011 6.32532C27.371 6.32532 25.346 8.26282 25.191 10.9329C25.106 12.3454 25.6834 13.7229 26.7709 14.7079ZM30.0209 17.8454H30.0009H29.9809C29.2359 17.8679 28.8159 17.6554 28.7759 17.5604C28.7759 17.4104 28.7784 17.2629 28.7809 17.1179V17.0754H31.221V17.1179C31.2235 17.2629 31.226 17.4104 31.226 17.5679C31.186 17.6554 30.7634 17.8704 30.0209 17.8454ZM26.4934 11.005C26.6084 9.04746 28.0835 7.62498 30.001 7.62498C31.9185 7.62498 33.396 9.04753 33.5085 11.005C33.5685 12.025 33.1485 13.0225 32.356 13.74C31.6435 14.385 31.3735 15.0725 31.2735 15.77H30.6535V13.645C30.6535 13.285 30.361 12.9925 30.001 12.9925C29.641 12.9925 29.3485 13.285 29.3485 13.645V15.77H28.7285C28.6285 15.0726 28.3585 14.385 27.646 13.74C26.8535 13.0225 26.4334 12.025 26.4934 11.005ZM29.3484 4.68492V4.14241C29.3484 3.7824 29.6409 3.48992 30.0009 3.48992C30.3609 3.48992 30.6534 3.78242 30.6534 4.14241V4.68492C30.6534 5.04492 30.3609 5.3374 30.0009 5.3374C29.6409 5.3349 29.3484 5.0449 29.3484 4.68492ZM24.6084 6.64494C24.3534 6.38993 24.3534 5.97741 24.6084 5.72243C24.8634 5.46743 25.2759 5.46743 25.5309 5.72243L25.9159 6.10744C26.1709 6.36244 26.1709 6.77496 25.9159 7.02994C25.7884 7.15744 25.6209 7.22244 25.4534 7.22244C25.2859 7.22244 25.1184 7.15744 24.9909 7.02994L24.6084 6.64494ZM22.3759 11.115C22.3759 10.755 22.6684 10.4625 23.0284 10.4625H23.5709C23.9309 10.4625 24.2234 10.755 24.2234 11.115C24.2234 11.475 23.9308 11.7675 23.5709 11.7675H23.0284C22.6684 11.7675 22.3759 11.475 22.3759 11.115ZM35.7783 11.115C35.7783 10.755 36.0708 10.4625 36.4307 10.4625H36.9733C37.3333 10.4625 37.6257 10.755 37.6257 11.115C37.6257 11.475 37.3332 11.7675 36.9733 11.7675H36.4307C36.0707 11.7675 35.7783 11.475 35.7783 11.115ZM34.0858 7.02747C33.8308 6.77247 33.8308 6.35994 34.0858 6.10496L34.4708 5.71996C34.7258 5.46496 35.1383 5.46496 35.3933 5.71996C35.6483 5.97497 35.6483 6.38749 35.3933 6.64247L35.0083 7.02747C34.8808 7.15497 34.7133 7.21997 34.5458 7.21997C34.3808 7.21997 34.2133 7.15497 34.0858 7.02747ZM27.7732 11.1225C27.4207 11.0475 27.1982 10.7 27.2732 10.3475C27.4507 9.53252 28.0432 8.83248 28.8207 8.51747C29.1557 8.38247 29.5357 8.54497 29.6707 8.87748C29.8057 9.21248 29.6432 9.59249 29.3107 9.72747C28.9382 9.87747 28.6332 10.24 28.5482 10.625C28.4832 10.93 28.2107 11.14 27.9107 11.14C27.8657 11.1375 27.8207 11.1325 27.7732 11.1225ZM57.3108 7.48744H40.6533C39.0783 3.1249 34.8982 0 30.0004 0C25.1026 0 20.9225 3.12503 19.3475 7.48744H2.69001C1.2075 7.48744 0 8.69495 0 10.1775V46.2227C0 47.7052 1.2075 48.9127 2.69001 48.9127H24.4803L23.8403 55.1302C23.4853 55.1802 23.1278 55.2327 22.7678 55.2902L15.5824 56.4427C14.7599 56.5752 14.0999 56.9378 13.7724 57.4353C13.5549 57.7653 13.4874 58.1478 13.5799 58.5153C13.8024 59.3903 14.9025 60.0003 16.2575 60.0003H43.74C45.095 60.0003 46.195 59.3903 46.4151 58.5153C46.5076 58.1478 46.4401 57.7653 46.2226 57.4353C45.8951 56.9378 45.235 56.5752 44.4126 56.4427L37.2272 55.2902C36.8697 55.2327 36.5122 55.1802 36.1547 55.1302L35.5147 48.9127H57.305C58.7875 48.9127 59.995 47.7052 59.995 46.2227L60 10.1775C60 8.69495 58.7925 7.48744 57.31 7.48744H57.3108ZM55.0283 12.46V43.9407H4.97266V12.46H18.7379C19.3104 18.1676 24.143 22.6399 30.0008 22.6399C35.8586 22.6399 40.6908 18.1674 41.2636 12.46H55.0283ZM30.0008 1.30465C35.5233 1.30465 40.0156 5.79718 40.0156 11.3195C40.0156 16.8418 35.5231 21.3343 30.0008 21.3343C24.4785 21.3343 19.986 16.8418 19.986 11.3195C19.986 5.79718 24.4785 1.30465 30.0008 1.30465ZM44.2083 57.7302C44.8983 57.8403 45.1483 58.1253 45.1533 58.1953C45.1183 58.3378 44.6458 58.6953 43.7408 58.6953H16.2583C15.3558 58.6953 14.8833 58.3378 14.8458 58.1903C14.8508 58.1253 15.1033 57.8402 15.7908 57.7302L22.9762 56.5777C25.3737 56.1927 27.6863 56.0002 30.0016 56.0002C32.3168 56.0002 34.6291 56.1927 37.0269 56.5777L44.2083 57.7302ZM34.8335 54.9652C31.5785 54.6077 28.4257 54.6077 25.1706 54.9652L25.7957 48.9127H34.2105L34.8335 54.9652ZM58.6961 46.2227C58.6961 46.9877 58.0736 47.6078 57.3111 47.6078L2.69033 47.6103C1.92533 47.6103 1.30529 46.9878 1.30529 46.2252V10.1775C1.30529 9.41246 1.9278 8.79242 2.69033 8.79242H18.9657C18.7907 9.55493 18.6932 10.345 18.6832 11.1574L4.32081 11.1549C3.96081 11.1549 3.66832 11.4474 3.66832 11.8074V44.5931C3.66832 44.9531 3.96083 45.2456 4.32081 45.2456H55.6788C56.0388 45.2456 56.3313 44.9531 56.3313 44.5931L56.3338 11.8074C56.3338 11.4474 56.0413 11.1549 55.6813 11.1549H41.3189C41.3064 10.3425 41.2114 9.55243 41.0364 8.78992H57.3118C58.0768 8.78992 58.6968 9.41243 58.6968 10.175L58.6961 46.2227ZM46.0458 30.3429H34.2159C33.4308 30.3429 32.7933 30.9804 32.7933 31.7654V40.0631C32.7933 40.8481 33.4308 41.4857 34.2159 41.4857H46.0458C46.8308 41.4857 47.4683 40.8481 47.4683 40.0631V31.7654C47.4683 30.9804 46.8308 30.3429 46.0458 30.3429ZM34.2159 31.6454H46.0458C46.1108 31.6454 46.1633 31.7004 46.1633 31.7629V35.868L44.5158 33.7229C44.2333 33.3554 43.8233 33.1479 43.3607 33.1354C42.8982 33.1229 42.4757 33.3079 42.1757 33.6604L39.7182 36.5154L38.0957 34.3904C37.8032 34.0079 37.3781 33.7979 36.8981 33.7979H36.8956C36.4156 33.7979 35.9906 34.0079 35.7006 34.3879L34.0931 36.4804V31.7629C34.0956 31.7004 34.1509 31.6454 34.2159 31.6454ZM34.0959 40.0628V38.6228L36.7384 35.1852C36.7834 35.1277 36.8284 35.1052 36.9009 35.1052C36.9734 35.1052 37.0184 35.1277 37.0634 35.1852L38.8509 37.5278L36.5659 40.1803H34.2159C34.1509 40.1828 34.0959 40.1278 34.0959 40.0628ZM46.0461 40.1828H38.286L43.1661 34.5152C43.2111 34.4627 43.2561 34.4402 43.3261 34.4452C43.3961 34.4477 43.4386 34.4677 43.4811 34.5252L46.1636 38.0152V40.0652C46.1636 40.1277 46.1111 40.1828 46.0461 40.1828ZM26.0235 30.3427H14.191C13.406 30.3427 12.7685 30.9802 12.7685 31.7652V40.0629C12.7685 40.8479 13.406 41.4855 14.191 41.4855H26.0209C26.8059 41.4855 27.4434 40.848 27.4434 40.0629L27.4459 31.7652C27.4459 30.9802 26.806 30.3427 26.0235 30.3427ZM26.141 40.0631C26.141 40.1281 26.086 40.1806 26.0235 40.1806L14.191 40.1831C14.126 40.1831 14.0735 40.1281 14.0735 40.0656V31.7654C14.0735 31.7004 14.1285 31.6479 14.191 31.6479H26.0209C26.0859 31.6479 26.1384 31.7029 26.1384 31.7654L26.141 40.0631ZM22.9859 35.3505L19.1559 33.138C18.9534 33.0205 18.7059 33.0205 18.5034 33.138C18.3009 33.2555 18.1784 33.4705 18.1784 33.703V38.1256C18.1784 38.3581 18.3034 38.5731 18.5034 38.6906C18.6034 38.7481 18.7159 38.7781 18.8284 38.7781C18.9409 38.7781 19.0534 38.7481 19.1534 38.6906L22.9834 36.4781C23.1859 36.3606 23.3084 36.1456 23.3084 35.9131C23.3134 35.6831 23.1884 35.4655 22.9859 35.3505ZM19.4834 36.9956V34.833L21.3559 35.9155L19.4834 36.9956ZM18.7134 27.0281V16.9556C18.7134 16.7656 18.6309 16.5831 18.4859 16.4606L16.8633 15.0731C16.7458 14.9706 16.5958 14.9156 16.4383 14.9156H9.81295C9.06792 14.9156 8.46042 15.5231 8.46042 16.2681V27.0279C8.46042 27.773 9.06793 28.3805 9.81295 28.3805H17.3606C18.1056 28.383 18.7134 27.7756 18.7134 27.0281ZM9.7635 27.0281V16.2683C9.7635 16.2433 9.786 16.2208 9.811 16.2208H16.1961L17.4086 17.2558V27.0287C17.4086 27.0537 17.3861 27.0762 17.3611 27.0762L9.81092 27.0787C9.78592 27.0787 9.7635 27.0556 9.7635 27.0281ZM16.5533 18.0808C16.5533 18.4408 16.2608 18.7333 15.9008 18.7333H11.2708C10.9108 18.7333 10.6183 18.4408 10.6183 18.0808C10.6183 17.7208 10.9108 17.4283 11.2708 17.4283H15.9008C16.2608 17.4283 16.5533 17.7208 16.5533 18.0808ZM16.5533 20.4583C16.5533 20.8183 16.2608 21.1108 15.9008 21.1108H11.2708C10.9108 21.1108 10.6183 20.8183 10.6183 20.4583C10.6183 20.0983 10.9108 19.8058 11.2708 19.8058H15.9008C16.2608 19.8083 16.5533 20.0983 16.5533 20.4583ZM16.5533 22.8383C16.5533 23.1983 16.2608 23.4908 15.9008 23.4908H11.2708C10.9108 23.4908 10.6183 23.1983 10.6183 22.8383C10.6183 22.4784 10.9108 22.1859 11.2708 22.1859H15.9008C16.2608 22.1859 16.5533 22.4784 16.5533 22.8383ZM16.5533 25.2158C16.5533 25.5758 16.2608 25.8683 15.9008 25.8683H11.2708C10.9108 25.8683 10.6183 25.5758 10.6183 25.2158C10.6183 24.8559 10.9108 24.5633 11.2708 24.5633H15.9008C16.2608 24.5633 16.5533 24.8559 16.5533 25.2158ZM40.9613 27.4308L41.2513 27.4583C41.4788 28.0008 42.0163 28.3833 42.6413 28.3833C43.4738 28.3833 44.1489 27.7083 44.1489 26.8758V23.0507C44.1489 22.2182 43.4738 21.5432 42.6413 21.5432C42.0388 21.5432 41.5213 21.8982 41.2788 22.4082V21.8407C41.2788 18.7432 43.6639 16.2232 46.5939 16.2232C49.6389 16.2232 52.0264 18.6907 52.0264 21.8407V22.4082C51.7839 21.8982 51.2664 21.5432 50.6639 21.5432C49.8314 21.5432 49.1564 22.2182 49.1564 23.0507V26.8758C49.1564 27.7083 49.8314 28.3833 50.6639 28.3833C51.2889 28.3833 51.8264 28.0008 52.054 27.4583L52.3415 27.4308C53.449 27.3283 54.224 26.3108 54.224 24.9608C54.224 24.0658 53.8815 23.3183 53.329 22.8858V21.8383C53.329 17.9557 50.369 14.9159 46.5916 14.9159C42.9416 14.9159 39.974 18.021 39.974 21.8383V22.8858C39.4215 23.3183 39.079 24.0632 39.079 24.9608C39.079 26.3133 39.8538 27.3283 40.9613 27.4308ZM50.8667 26.8758C50.8667 26.9858 50.7742 27.0783 50.6642 27.0783C50.5542 27.0783 50.4617 26.9858 50.4617 26.8758V23.0508C50.4617 22.9408 50.5542 22.8483 50.6642 22.8483C50.7742 22.8483 50.8667 22.9408 50.8667 23.0508V26.8758ZM52.2217 26.1333L52.1717 26.1383V23.7883L52.2217 23.7933C52.7767 23.8458 52.9217 24.5808 52.9217 24.9632C52.9217 25.3433 52.7767 26.0808 52.2217 26.1333ZM40.3841 24.9608C40.3841 24.5783 40.5316 23.8433 41.0842 23.7908L41.1342 23.7858V26.1358L41.0842 26.1308C40.5292 26.0808 40.3841 25.3433 40.3841 24.9608ZM42.4391 23.0483C42.4391 22.9383 42.5316 22.8458 42.6416 22.8458C42.7516 22.8458 42.8441 22.9383 42.8441 23.0483V26.8733C42.8441 26.9833 42.7516 27.0758 42.6416 27.0758C42.5316 27.0758 42.4391 26.9833 42.4391 26.8733V23.0483Z" fill="#1B54F8"></path></g></svg> 