<?xml version="1.0" encoding="UTF-8"?> <svg xmlns="http://www.w3.org/2000/svg" xmlns:xlink="http://www.w3.org/1999/xlink" width="60" height="60" viewBox="0 0 60 60"><defs><clipPath id="clip-path"><rect id="Rectangle_8" data-name="Rectangle 8" width="60" height="60" transform="translate(418 286)" fill="#fff" stroke="#707070" stroke-width="1"></rect></clipPath></defs><g id="Mask_Group_59" data-name="Mask Group 59" transform="translate(-418 -286)" clip-path="url(#clip-path)"><path id="Path_192" data-name="Path 192" d="M27.113,17.139h.59v-.585l-.59.585Zm1.844-1.473h5a.235.235,0,0,1,.235.235V25.972a.235.235,0,0,1-.235.235h-7.49a.235.235,0,0,1-.235-.235V18.393H27.8a1.165,1.165,0,0,0,1.16-1.154V15.671Zm-1.076-1.045a.6.6,0,0,1,.454-.188h5.62A1.489,1.489,0,0,1,35.434,15.9V25.972a1.494,1.494,0,0,1-1.478,1.489h-7.49a1.494,1.494,0,0,1-1.478-1.489V17.766a.658.658,0,0,1,.188-.449l2.716-2.711Zm-.146,5.835h4.952a.627.627,0,1,0,0-1.254H27.735a.627.627,0,1,0,0,1.254Zm0,3.312h4.952a.627.627,0,1,0,0-1.254H27.735a.627.627,0,1,0,0,1.254ZM25.426,47.581H35a9.4,9.4,0,0,1-1.008-3.515H26.434a9.4,9.4,0,0,1-1.008,3.515Zm14.49,3.176a2.57,2.57,0,0,0-2.476-1.922H22.981a2.57,2.57,0,0,0-2.476,1.922Zm-5.1-40.952a11.857,11.857,0,0,1,2.021,1.071.622.622,0,0,0,.784-.078h0L39.09,9.351a.225.225,0,0,1,.319,0l2.4,2.4a.23.23,0,0,1,0,.324l-1.447,1.447a.622.622,0,0,0-.057.815,12.537,12.537,0,0,1,.925,1.687.219.219,0,0,0,.031.073,12.73,12.73,0,0,1,.768,2.413.622.622,0,0,0,.611.5h2.042a.23.23,0,0,1,.23.23v3.4a.23.23,0,0,1-.23.23H42.627a.622.622,0,0,0-.622.522,12.489,12.489,0,0,1-.658,2.136,12.212,12.212,0,0,1-1.076,2.016.632.632,0,0,0,.078.789h0L41.8,29.775a.23.23,0,0,1,.068.162h0a.2.2,0,0,1-.068.157l-2.4,2.4a.225.225,0,0,1-.319,0l-1.447-1.421a.627.627,0,0,0-.82-.057,12.071,12.071,0,0,1-1.99,1.045,12.374,12.374,0,0,1-2.178.669.622.622,0,0,0-.522.611h0v2.042a.23.23,0,0,1-.23.23h-3.4a.23.23,0,0,1-.23-.23V33.353a.627.627,0,0,0-.548-.622,11.857,11.857,0,0,1-2.131-.658A12.265,12.265,0,0,1,23.561,31a.622.622,0,0,0-.784.078h0l-1.447,1.447a.225.225,0,0,1-.319,0l-2.4-2.4a.225.225,0,0,1,0-.319l1.447-1.447a.627.627,0,0,0,.057-.82,11.962,11.962,0,0,1-1.724-4.179.622.622,0,0,0-.611-.522H15.752a.23.23,0,0,1-.23-.23v-3.4a.23.23,0,0,1,.23-.23h2.042a.616.616,0,0,0,.622-.548,12.291,12.291,0,0,1,.658-2.131,12.082,12.082,0,0,1,1.076-2.021.622.622,0,0,0-.078-.784h0l-1.447-1.447a.23.23,0,0,1,0-.324l2.4-2.4a.225.225,0,0,1,.319,0L22.793,10.8a.627.627,0,0,0,.82.057,12.233,12.233,0,0,1,4.179-1.724.622.622,0,0,0,.522-.611h0V6.478a.23.23,0,0,1,.23-.225h3.4a.23.23,0,0,1,.23.225V8.521a.622.622,0,0,0,.548.622,11.868,11.868,0,0,1,2.131.663Zm7.929,6.629h5.119v22.7H12.555v-22.7h5.119c-.151.434-.287.872-.4,1.327H15.71a1.478,1.478,0,0,0-1.478,1.478v3.4a1.478,1.478,0,0,0,1.478,1.478h1.567a13.283,13.283,0,0,0,1.536,3.709l-1.092,1.092a1.478,1.478,0,0,0,0,2.089l2.4,2.4a1.489,1.489,0,0,0,2.089,0l1.092-1.1a12.98,12.98,0,0,0,3.709,1.536v1.567a1.478,1.478,0,0,0,1.5,1.452h3.4a1.478,1.478,0,0,0,1.478-1.478V33.818A12.98,12.98,0,0,0,37.1,32.282l1.092,1.1a1.489,1.489,0,0,0,2.089,0l2.4-2.4a1.478,1.478,0,0,0,.434-1.045h0a1.468,1.468,0,0,0-.434-1.045L41.582,27.8a13.283,13.283,0,0,0,1.536-3.709h1.567a1.478,1.478,0,0,0,1.478-1.478v-3.4a1.478,1.478,0,0,0-1.478-1.478H43.118c-.11-.454-.246-.893-.4-1.327Zm-.8-2.716h7.835a.825.825,0,0,1,.8.825V41.992a.825.825,0,0,1-.82.82h-39.1a.825.825,0,0,1-.82-.82V14.543a.825.825,0,0,1,.82-.825h7.835l.334.334a11.847,11.847,0,0,0-.611,1.133H11.929a.627.627,0,0,0-.627.627V39.757a.627.627,0,0,0,.627.627H48.493a.627.627,0,0,0,.627-.627V15.812a.627.627,0,0,0-.627-.627H42.225a11.848,11.848,0,0,0-.611-1.133l.334-.334ZM33.387,8.024A13.283,13.283,0,0,1,37.1,9.56l1.092-1.092a1.478,1.478,0,0,1,2.089,0l2.4,2.4a1.483,1.483,0,0,1,.329,1.6h6.759a2.089,2.089,0,0,1,2.089,2.089V41.992a2.089,2.089,0,0,1-2.089,2.089H35.241a7.835,7.835,0,0,0,1.2,3.515h1a3.813,3.813,0,0,1,3.8,3.8.627.627,0,0,1-.627.627H19.806a.627.627,0,0,1-.627-.627,3.813,3.813,0,0,1,3.8-3.8h1a7.835,7.835,0,0,0,1.2-3.515H10.659A2.089,2.089,0,0,1,8.57,41.992V14.543a2.089,2.089,0,0,1,2.089-2.089h6.754a1.483,1.483,0,0,1,.329-1.6l2.4-2.4a1.478,1.478,0,0,1,2.089,0l1.092,1.092A13.283,13.283,0,0,1,27.03,8.009V6.442A1.478,1.478,0,0,1,28.513,5h3.4a1.478,1.478,0,0,1,1.478,1.478V8.045Zm2.753,6.984a8.357,8.357,0,1,1-5.929-2.467A8.384,8.384,0,0,1,36.139,15.008Zm-5.929-3.7a9.637,9.637,0,1,1-9.637,9.632A9.637,9.637,0,0,1,30.211,11.3Z" transform="translate(417.43 287)" fill="#1c54f8" stroke="#fff" stroke-width="0.2" fill-rule="evenodd"></path></g></svg> 