<?xml version="1.0" encoding="UTF-8"?> <svg xmlns="http://www.w3.org/2000/svg" xmlns:xlink="http://www.w3.org/1999/xlink" width="60" height="60" viewBox="0 0 60 60"><defs><clipPath id="clip-path"><rect id="Rectangle_86" data-name="Rectangle 86" width="60" height="60" transform="translate(858 236)" fill="#fff" stroke="#707070" stroke-width="1"></rect></clipPath></defs><g id="Mask_Group_29" data-name="Mask Group 29" transform="translate(-858 -236)" clip-path="url(#clip-path)"><g id="Group_80" data-name="Group 80" transform="translate(17.039 92)"><path id="Path_206" data-name="Path 206" d="M74.311,25.616a2.185,2.185,0,0,0-.641-1.473,2.21,2.21,0,0,0-1.614-.641A3.9,3.9,0,0,0,68.3,27.51l.116,3.573-.6,2.442a2.822,2.822,0,0,0-2.02.827l-3.973,3.976-1.376.238a4.423,4.423,0,0,0-2.369,1.224l-2.737,2.737a4.385,4.385,0,0,0-1.291,3.014l-.1,4.536a3.241,3.241,0,0,0-2.222,3.036l-.064,5.94a3.244,3.244,0,0,0,3.2,3.271l9.854.106h.035a3.244,3.244,0,0,0,3.235-3.2l.064-5.939a3.238,3.238,0,0,0-2.121-3.069l.02-.138a4.692,4.692,0,0,1,1.331-2.643L71.9,42.816A7.309,7.309,0,0,0,74,38.424l.491-4.653a3,3,0,0,0,.056-.525l0-.013c0-.007,0-.014,0-.021,0-.03,0-.059,0-.09Zm-7.9,27.656-.064,5.939a1.59,1.59,0,0,1-.483,1.126,1.63,1.63,0,0,1-1.136.46l-9.854-.105a1.609,1.609,0,0,1-1.585-1.619l.064-5.94a1.6,1.6,0,0,1,1.6-1.585h.017l9.854.106a1.609,1.609,0,0,1,1.585,1.619Zm4.331-11.611-4.623,4.623a6.317,6.317,0,0,0-1.792,3.561l-.024.169-8.724-.094.1-4.34a2.763,2.763,0,0,1,.813-1.9l2.737-2.737a2.783,2.783,0,0,1,1.49-.769l1.633-.283a.788.788,0,0,0,.165-.047l.01-.005a.817.817,0,0,0,.259-.172l0,0,4.156-4.159a1.2,1.2,0,0,1,1.7,1.7L63.867,41.98a.817.817,0,0,0,1.156,1.155L69.8,38.359a2.821,2.821,0,0,0-.423-4.351l.653-2.642c0-.009,0-.018,0-.027a.723.723,0,0,0,.012-.084c0-.028.005-.056.005-.084,0-.009,0-.018,0-.027l-.12-3.685a2.258,2.258,0,0,1,2.17-2.324.558.558,0,0,1,.577.535l.238,7.444-.055.524c0,.02-.005.039-.006.058l-.48,4.556A5.675,5.675,0,0,1,70.745,41.661Z" transform="translate(820.002 135.572)" fill="#1c54f8" stroke="#fff" stroke-width="0.4"></path><circle id="Ellipse_22" data-name="Ellipse 22" cx="1.398" cy="1.398" r="1.398" transform="translate(883.064 188.194)" fill="#1c54f8" stroke="#fff" stroke-width="0.4"></circle><path id="Path_207" data-name="Path 207" d="M26.9,50.078l-.1-4.536a4.387,4.387,0,0,0-1.291-3.014l-2.737-2.737a4.428,4.428,0,0,0-2.367-1.224l-1.378-.238-3.974-3.977a2.826,2.826,0,0,0-2.019-.826l-.6-2.443.117-3.575A3.9,3.9,0,0,0,8.78,23.5a2.22,2.22,0,0,0-1.605.641,2.186,2.186,0,0,0-.641,1.475l-.24,7.51c0,.032,0,.063,0,.095v.014a2.938,2.938,0,0,0,.057.535l.491,4.651a7.309,7.309,0,0,0,2.1,4.393l4.623,4.623a4.691,4.691,0,0,1,1.33,2.641l.021.141A3.238,3.238,0,0,0,12.8,53.288l.064,5.939a3.244,3.244,0,0,0,3.235,3.2h.035l9.854-.105a3.244,3.244,0,0,0,3.2-3.271l-.064-5.94A3.244,3.244,0,0,0,26.9,50.078ZM14.724,46.283,10.1,41.66a5.674,5.674,0,0,1-1.63-3.408L7.99,33.7c0-.02,0-.039-.006-.058l-.055-.524.237-7.442a.558.558,0,0,1,.568-.538,2.259,2.259,0,0,1,2.178,2.322l-.12,3.687c0,.009,0,.018,0,.027,0,.028,0,.056.005.084a.706.706,0,0,0,.012.084c0,.009,0,.018,0,.027l.653,2.642a2.822,2.822,0,0,0-.424,4.352l4.775,4.775a.817.817,0,0,0,1.156-1.155L12.2,37.2a1.2,1.2,0,0,1,1.7-1.7l4.157,4.16,0,0a.808.808,0,0,0,.259.172l.01.005a.823.823,0,0,0,.165.047l1.636.283a2.777,2.777,0,0,1,1.488.769l2.737,2.737a2.759,2.759,0,0,1,.813,1.9l.1,4.34-8.724.094-.025-.172A6.312,6.312,0,0,0,14.724,46.283ZM27.095,60.207a1.59,1.59,0,0,1-1.126.483l-9.854.106a1.611,1.611,0,0,1-1.136-.459,1.59,1.59,0,0,1-.483-1.126l-.064-5.94a1.609,1.609,0,0,1,1.585-1.62l9.854-.106h.017a1.6,1.6,0,0,1,1.6,1.585l.064,5.94A1.588,1.588,0,0,1,27.095,60.207Z" transform="translate(840.667 135.572)" fill="#1c54f8" stroke="#fff" stroke-width="0.4"></path><circle id="Ellipse_23" data-name="Ellipse 23" cx="1.398" cy="1.398" r="1.398" transform="translate(855.655 188.194)" fill="#1c54f8" stroke="#fff" stroke-width="0.4"></circle><path id="Path_208" data-name="Path 208" d="M28.381,20.5h1.535a9.582,9.582,0,0,0,.789,1.908L29.619,23.5a1.722,1.722,0,0,0,0,2.432l1.525,1.525a1.721,1.721,0,0,0,2.432,0l1.087-1.087a9.615,9.615,0,0,0,1.908.789v1.535a1.724,1.724,0,0,0,1.722,1.722h2.151a1.724,1.724,0,0,0,1.722-1.722V27.158a9.628,9.628,0,0,0,1.908-.789l1.087,1.087a1.721,1.721,0,0,0,2.432,0l1.525-1.525a1.722,1.722,0,0,0,0-2.432l-1.087-1.087a9.615,9.615,0,0,0,.789-1.908h1.535a1.724,1.724,0,0,0,1.722-1.722V16.632a1.724,1.724,0,0,0-1.722-1.722H48.819A9.615,9.615,0,0,0,48.029,13l1.087-1.087a1.722,1.722,0,0,0,0-2.432L47.591,7.958a1.762,1.762,0,0,0-2.432,0L44.072,9.045a9.6,9.6,0,0,0-1.908-.789V6.722A1.724,1.724,0,0,0,40.443,5H38.292A1.724,1.724,0,0,0,36.57,6.722V8.256a9.6,9.6,0,0,0-1.908.789L33.575,7.959a1.762,1.762,0,0,0-2.432,0L29.618,9.484a1.722,1.722,0,0,0,0,2.432L30.7,13a9.615,9.615,0,0,0-.789,1.908H28.381a1.724,1.724,0,0,0-1.722,1.722v2.151A1.725,1.725,0,0,0,28.381,20.5Zm-.088-3.872a.086.086,0,0,1,.088-.088h2.166a.8.8,0,0,0,.241-.041c.013,0,.027-.007.04-.013a.8.8,0,0,0,.205-.114l.033-.027a.81.81,0,0,0,.161-.179c0-.007.008-.015.013-.023a.813.813,0,0,0,.1-.236s0,0,0-.008a7.993,7.993,0,0,1,1.074-2.595.818.818,0,0,0,.063-.123c0-.005.005-.01.008-.015a.816.816,0,0,0,.057-.29c0-.006,0-.012,0-.018a.814.814,0,0,0-.056-.288c0-.006,0-.013-.006-.019a.805.805,0,0,0-.173-.26s0,0,0,0l-.006-.006,0,0L30.774,10.76a.089.089,0,0,1,0-.123L32.3,9.112a.1.1,0,0,1,.122,0l1.53,1.53s.007,0,.01.007a.814.814,0,0,0,.236.157c.02.009.039.016.059.023a.827.827,0,0,0,.271.053h0a.809.809,0,0,0,.273-.053.665.665,0,0,0,.075-.034.866.866,0,0,0,.092-.041,7.979,7.979,0,0,1,2.595-1.074c.02,0,.037-.013.056-.019a.776.776,0,0,0,.093-.03.668.668,0,0,0,.2-.13c.019-.016.04-.032.057-.05s.033-.04.05-.06a.775.775,0,0,0,.049-.063c.014-.021.024-.044.036-.066s.027-.047.038-.073.017-.053.025-.08a.619.619,0,0,0,.02-.071.778.778,0,0,0,.011-.107c0-.017,0-.033,0-.05V6.722a.084.084,0,0,1,.087-.088h2.151a.086.086,0,0,1,.088.088V8.883c0,.017,0,.033,0,.05a.778.778,0,0,0,.011.107c0,.025.014.047.02.071a.8.8,0,0,0,.025.08.71.71,0,0,0,.038.073c.012.022.022.045.036.066a.775.775,0,0,0,.049.063c.016.02.032.041.05.06s.038.033.057.05a.73.73,0,0,0,.063.052c.022.015.047.027.07.04s.044.026.068.037a.775.775,0,0,0,.093.03c.019.005.036.014.056.019a7.979,7.979,0,0,1,2.595,1.074.768.768,0,0,0,.092.041c.026.012.049.025.075.034a.809.809,0,0,0,.273.053h0a.813.813,0,0,0,.271-.053c.02-.007.039-.014.059-.023a.8.8,0,0,0,.236-.157s.007,0,.01-.007l1.53-1.53a.1.1,0,0,1,.122,0l1.525,1.525a.089.089,0,0,1,0,.122L46.44,12.282l0,0-.006.006,0,0a.808.808,0,0,0-.173.26c0,.006,0,.013-.006.019a.816.816,0,0,0-.056.288c0,.006,0,.012,0,.018a.816.816,0,0,0,.057.29c0,.005.005.01.008.015a.793.793,0,0,0,.063.123A7.993,7.993,0,0,1,47.4,15.9s0,0,0,.008a.81.81,0,0,0,.1.236l.013.023a.817.817,0,0,0,.16.178c.011.009.022.019.034.028a.816.816,0,0,0,.2.113l.04.013a.8.8,0,0,0,.24.041h2.166a.086.086,0,0,1,.088.088v2.151a.086.086,0,0,1-.088.088H48.192c-.018,0-.035,0-.053.005a.812.812,0,0,0-.1.01.783.783,0,0,0-.079.023c-.023.007-.048.013-.07.022a.819.819,0,0,0-.087.045c-.017.009-.035.017-.051.028a.841.841,0,0,0-.078.061c-.015.013-.031.023-.045.037a.809.809,0,0,0-.063.073c-.013.016-.027.03-.039.047a.719.719,0,0,0-.05.087c-.009.017-.02.034-.028.052a.84.84,0,0,0-.036.11c0,.014-.01.027-.014.041a7.993,7.993,0,0,1-1.074,2.595.818.818,0,0,0-.063.123c0,.005-.005.01-.008.015a.816.816,0,0,0-.057.29c0,.006,0,.012,0,.018a.814.814,0,0,0,.056.288c0,.006,0,.013.006.019a.805.805,0,0,0,.173.26s0,0,0,0l.006.006,0,0,1.522,1.522a.088.088,0,0,1,0,.122L46.435,26.3a.089.089,0,0,1-.122,0l-1.521-1.521,0,0,0,0,0,0a.818.818,0,0,0-.261-.173L44.5,24.59a.82.82,0,0,0-.287-.056l-.021,0a.815.815,0,0,0-.287.056l-.017.009a.8.8,0,0,0-.122.062,8,8,0,0,1-2.595,1.074c-.015,0-.028.01-.042.014a.9.9,0,0,0-.108.035c-.021.009-.039.021-.059.032a.8.8,0,0,0-.079.045c-.021.015-.039.032-.058.048s-.042.034-.062.053-.032.038-.047.058-.036.042-.051.065-.023.042-.034.063a.825.825,0,0,0-.039.076c-.01.024-.016.051-.023.076s-.016.049-.022.075a.737.737,0,0,0-.01.1c0,.02-.006.038-.006.058v2.161a.086.086,0,0,1-.088.088H38.291a.086.086,0,0,1-.088-.088V26.533c0-.02,0-.038-.006-.058a.84.84,0,0,0-.01-.1.7.7,0,0,0-.022-.075c-.008-.026-.014-.052-.023-.076a.76.76,0,0,0-.039-.076c-.011-.021-.021-.043-.034-.063s-.034-.044-.051-.065-.03-.04-.047-.058-.041-.036-.062-.053a.7.7,0,0,0-.058-.048.869.869,0,0,0-.079-.045c-.02-.01-.038-.023-.059-.032a.788.788,0,0,0-.108-.035c-.014,0-.027-.011-.042-.014a8,8,0,0,1-2.595-1.074.838.838,0,0,0-.125-.063l-.013-.007a.792.792,0,0,0-.295-.057h-.013a.82.82,0,0,0-.293.057l-.014,0a.807.807,0,0,0-.262.174l0,0,0,0-.005.005L32.419,26.3a.088.088,0,0,1-.122,0l-1.525-1.525a.088.088,0,0,1,0-.122l1.522-1.522,0,0,.006-.006,0,0a.808.808,0,0,0,.173-.26c0-.006,0-.013.006-.019a.816.816,0,0,0,.056-.288c0-.006,0-.012,0-.018a.816.816,0,0,0-.057-.29c0-.005-.005-.01-.008-.015a.793.793,0,0,0-.063-.123,7.993,7.993,0,0,1-1.074-2.595c0-.015-.01-.029-.014-.044a.874.874,0,0,0-.035-.107c-.01-.022-.023-.042-.034-.064s-.026-.051-.042-.074-.035-.043-.053-.064a.667.667,0,0,0-.048-.056.745.745,0,0,0-.064-.053.68.68,0,0,0-.059-.046c-.023-.015-.048-.027-.073-.04s-.043-.024-.066-.034a.809.809,0,0,0-.089-.028c-.021-.006-.041-.014-.062-.018a.818.818,0,0,0-.11-.011c-.016,0-.032,0-.048,0H28.38a.086.086,0,0,1-.088-.088V16.632Z" transform="translate(831.39 144)" fill="#1c54f8" stroke="#fff" stroke-width="0.4"></path><path id="Path_209" data-name="Path 209" d="M44.971,29.321a6.01,6.01,0,1,0-6.01-6.01A6.017,6.017,0,0,0,44.971,29.321Zm0-10.387a4.377,4.377,0,1,1-4.377,4.377A4.382,4.382,0,0,1,44.971,18.933Z" transform="translate(825.786 138.397)" fill="#1c54f8" stroke="#fff" stroke-width="0.4"></path></g></g></svg> 