<?xml version="1.0" encoding="UTF-8"?> <svg xmlns="http://www.w3.org/2000/svg" xmlns:xlink="http://www.w3.org/1999/xlink" width="90" height="90" viewBox="0 0 90 90"><defs><clipPath id="clip-path"><rect id="Rectangle_11" data-name="Rectangle 11" width="90" height="90" transform="translate(786 33)" fill="#fff" stroke="#707070" stroke-width="1"></rect></clipPath></defs><g id="Mask_Group_4" data-name="Mask Group 4" transform="translate(-786 -33)" clip-path="url(#clip-path)"><g id="Group_16" data-name="Group 16" transform="translate(-303.024 16.283)"><g id="Group_15" data-name="Group 15" transform="translate(1102.024 29.717)"><path id="Path_12" data-name="Path 12" d="M43.915,60.969a2,2,0,0,1,0,4A21.048,21.048,0,1,1,64.964,43.924a2,2,0,0,1-4,0A17.044,17.044,0,1,0,43.915,60.969ZM38.763,30.422A14.452,14.452,0,0,1,57.785,47.984L72.121,62.32a4.22,4.22,0,0,1,0,5.939l-3.862,3.87-.154.14a4.2,4.2,0,0,1-5.793-.139L47.974,57.794a14.452,14.452,0,0,1-17.492-19.2,1.995,1.995,0,0,1,3.263-.675l6.679,6.668,4.148-4.148L37.9,33.762a2,2,0,0,1,.864-3.34Zm7.286,3.26a10.561,10.561,0,0,0-2.767-.2L48.82,39.02a2,2,0,0,1,0,2.831L41.84,48.83a2,2,0,0,1-2.831,0l-5.536-5.536a10.562,10.562,0,0,0,.2,2.767,10.5,10.5,0,0,0,8.107,8.107,10.536,10.536,0,0,0,5.843-.456,2,2,0,0,1,2.308.377L65.142,69.3a.2.2,0,0,0,.143.058.225.225,0,0,0,.117-.032l3.887-3.887a.188.188,0,0,0,.058-.143.169.169,0,0,0-.056-.142L54.078,49.94a2.015,2.015,0,0,1-.437-2.151,10.529,10.529,0,0,0,.516-6,10.5,10.5,0,0,0-8.108-8.108Zm2.495,33.752a2,2,0,1,1,3.973-.422l.76,7.164a2,2,0,0,1-1.775,2.2l-.211.011-14.751,0a2,2,0,0,1-2-2,2.031,2.031,0,0,1,.03-.348l.574-5.409q-.64-.227-1.262-.486T32.651,67.6l-3.5,4.336a2,2,0,0,1-2.808.3l-.194-.178-10.4-10.4a2,2,0,0,1,.008-2.823l.156-.14,4.334-3.5q-.288-.607-.549-1.232l-.04-.106q-.235-.573-.442-1.154l-5.555.589a2,2,0,0,1-2.19-1.783l-.01-.2L11.45,36.549a2,2,0,0,1,2-2,2.031,2.031,0,0,1,.348.03l5.409.574q.227-.64.486-1.262t.549-1.228l-4.336-3.5a2,2,0,0,1-.3-2.808l.178-.194,10.4-10.4a2,2,0,0,1,2.823.008l.14.156,3.5,4.334q.607-.288,1.232-.549l.106-.04q.573-.235,1.154-.442l-.589-5.555a2,2,0,0,1,1.783-2.19l.2-.01L51.29,11.46a2,2,0,0,1,1.97,2.362l-.572,5.4q.63.225,1.252.482c.425.173.836.356,1.24.549l3.5-4.334a2,2,0,0,1,2.808-.3l.194.178,10.4,10.4a2,2,0,0,1-.008,2.823l-.156.14-4.336,3.5q.292.61.549,1.228t.486,1.262l5.546-.588a2,2,0,0,1,2.2,1.775l.011.211,0,14.751a2,2,0,0,1-2.362,1.97l-7.009-.743a2,2,0,1,1,.407-3.973l4.96.526V38.77l-4.892.519a2,2,0,0,1-2.194-1.44,22.389,22.389,0,0,0-1.932-4.681,2,2,0,0,1,.456-2.592l3.876-3.133L60.4,20.15l-3.071,3.8a2,2,0,0,1-2.6.57A22.157,22.157,0,0,0,52.415,23.4a21.472,21.472,0,0,0-2.425-.843,2,2,0,0,1-1.446-2.127l.526-4.96H38.759l.516,4.869a2,2,0,0,1-1.437,2.219,22.248,22.248,0,0,0-2.33.8l-.095.043A22.156,22.156,0,0,0,33.1,24.519a2,2,0,0,1-2.533-.493L27.432,20.15,20.14,27.442l3.876,3.133a2,2,0,0,1,.493,2.525,22.4,22.4,0,0,0-1.969,4.748A2,2,0,0,1,20.4,39.295l-4.951-.525V49.08l4.869-.516A2,2,0,0,1,22.542,50a22.249,22.249,0,0,0,.8,2.33l.043.095a22.157,22.157,0,0,0,1.124,2.316,2,2,0,0,1-.493,2.533L20.14,60.407,27.432,67.7l3.133-3.876a2,2,0,0,1,2.525-.493,22.172,22.172,0,0,0,2.321,1.122,21.95,21.95,0,0,0,2.428.847,2,2,0,0,1,1.446,2.135l-.525,4.951H49.069l-.525-4.951Z" transform="translate(-11.45 -11.46)" fill="#1c54f8" stroke="#fff" stroke-width="2"></path></g></g></g></svg> 