<?xml version="1.0" encoding="UTF-8"?> <svg xmlns="http://www.w3.org/2000/svg" width="90" height="90" viewBox="0 0 90 90"><g id="Group_774" data-name="Group 774" transform="translate(-3437 -1000)"><rect id="Rectangle_77" data-name="Rectangle 77" width="90" height="90" transform="translate(3437 1000)" fill="#bcbcbc" opacity="0"></rect><g id="noun-cosmos-832965" transform="translate(3446 1009)"><path id="Path_1" data-name="Path 1" d="M136.328,36.18a30.15,30.15,0,1,1-30.15-30.15A30.151,30.151,0,0,1,136.328,36.18Zm6.03,0a36.18,36.18,0,1,0-36.18,36.18A36.18,36.18,0,0,0,142.359,36.18Z" transform="translate(-69.998)" fill="#1b54f8" stroke="#fff" stroke-width="3" fill-rule="evenodd"></path><path id="Path_2" data-name="Path 2" d="M274.76,198.728a6.03,6.03,0,1,1-6.03-6.03A6.03,6.03,0,0,1,274.76,198.728Zm6.03,0a12.06,12.06,0,1,0-12.06,12.06A12.059,12.059,0,0,0,280.79,198.728Z" transform="translate(-232.549 -162.548)" fill="#1b54f8" stroke="#fff" stroke-width="3" fill-rule="evenodd"></path><path id="Path_3" data-name="Path 3" d="M283.013,99.362h12.06a3.015,3.015,0,0,0,0-6.03h-12.06a3.015,3.015,0,0,0,0,6.03Z" transform="translate(-252.863 -81.272)" fill="#1b54f8" stroke="#fff" stroke-width="3" fill-rule="evenodd"></path><path id="Path_4" data-name="Path 4" d="M283.013,426.032h12.06a3.015,3.015,0,0,0,0-6.03h-12.06a3.015,3.015,0,0,0,0,6.03Z" transform="translate(-252.863 -365.731)" fill="#1b54f8" stroke="#fff" stroke-width="3" fill-rule="evenodd"></path><path id="Path_5" data-name="Path 5" d="M490,213.013v12.06a3.015,3.015,0,0,0,6.03,0v-12.06a3.015,3.015,0,0,0-6.03,0Z" transform="translate(-435.729 -182.863)" fill="#1b54f8" stroke="#fff" stroke-width="3" fill-rule="evenodd"></path><path id="Path_6" data-name="Path 6" d="M163.33,213.013v12.06a3.015,3.015,0,0,0,6.03,0v-12.06a3.015,3.015,0,0,0-6.03,0Z" transform="translate(-151.27 -182.863)" fill="#1b54f8" stroke="#fff" stroke-width="3" fill-rule="evenodd"></path></g></g></svg> 