<?xml version="1.0" encoding="UTF-8"?> <svg xmlns="http://www.w3.org/2000/svg" width="80" height="80" viewBox="0 0 80 80"><g id="Group_763" data-name="Group 763" transform="translate(-1873 -423)"><rect id="Rectangle_123" data-name="Rectangle 123" width="80" height="80" transform="translate(1873 423)" fill="#f6f6f6" opacity="0"></rect><g id="Group_759" data-name="Group 759" transform="translate(83.097 119)"><path id="Path_644" data-name="Path 644" d="M345.505,308.8a.565.565,0,0,1-.565-.566V294.488a.565.565,0,1,1,1.13,0v13.743a.566.566,0,0,1-.565.566Z" transform="translate(1484.53 51.346)" fill="#1b54f8" stroke="#1b54f8" stroke-width="0.5"></path><path id="Path_645" data-name="Path 645" d="M416.222,442.771H403.005a.565.565,0,1,1,0-1.13h13.217a.565.565,0,1,1,0,1.13Z" transform="translate(1433.413 -79.972)" fill="#1b54f8" stroke="#1b54f8" stroke-width="0.5"></path><path id="Path_646" data-name="Path 646" d="M182.085,442.771h-13.22a.565.565,0,0,1,0-1.13h13.22a.565.565,0,0,1,0,1.13Z" transform="translate(1641.559 -79.972)" fill="#1b54f8" stroke="#1b54f8" stroke-width="0.5"></path><path id="Path_647" data-name="Path 647" d="M296.983,424.1h-7.461a3.221,3.221,0,1,1,0-6.437h7.461a3.219,3.219,0,1,1,0,6.437Zm-7.46-5.307h0a2.089,2.089,0,0,0-1.479.611,2.122,2.122,0,0,0-.607,1.481,2.088,2.088,0,0,0,2.085,2.085h7.461a2.088,2.088,0,1,0,0-4.177Z" transform="translate(1536.778 -58.655)" fill="#1b54f8" stroke="#1b54f8" stroke-width="0.5"></path><path id="Path_648" data-name="Path 648" d="M158.177,108.713H107.362a1.722,1.722,0,0,1-1.718-1.726V86.052a1.719,1.719,0,0,1,1.718-1.718h50.816a1.723,1.723,0,0,1,1.724,1.718v20.935a1.725,1.725,0,0,1-1.724,1.726ZM107.362,85.464a.59.59,0,0,0-.588.588v20.935a.591.591,0,0,0,.588.593h50.816a.594.594,0,0,0,.594-.593V86.052a.592.592,0,0,0-.594-.588Z" transform="translate(1697.26 237.667)" fill="#1b54f8" stroke="#1b54f8" stroke-width="0.5"></path><path id="Path_649" data-name="Path 649" d="M490.808,127.738h-6.76a.565.565,0,0,1-.565-.565v-4.182a.566.566,0,0,1,.139-.371l1.255-1.442a.567.567,0,0,1,.425-.194h4.459a.565.565,0,0,1,.458.234l1.045,1.442h0a.561.561,0,0,1,.108.331v4.182a.564.564,0,0,1-.565.565Zm-6.195-1.131h5.629v-3.433l-.768-1.06h-3.911l-.95,1.087Z" transform="translate(1361.368 205.085)" fill="#1b54f8" stroke="#1b54f8" stroke-width="0.5"></path><path id="Path_650" data-name="Path 650" d="M490.808,213.163h-6.76a.565.565,0,0,1-.565-.565v-4.182a.565.565,0,0,1,.14-.372l1.256-1.435h0a.566.566,0,0,1,.425-.193h4.459a.566.566,0,0,1,.458.232l1.045,1.435h0a.564.564,0,0,1,.108.333V212.6a.565.565,0,0,1-.565.565Zm-6.195-1.131h5.629V208.6l-.768-1.054h-3.912l-.95,1.083Z" transform="translate(1361.368 129.139)" fill="#1b54f8" stroke="#1b54f8" stroke-width="0.5"></path><path id="Path_651" data-name="Path 651" d="M148.287,131.15a2.894,2.894,0,1,1,2.043-.85,2.891,2.891,0,0,1-2.043.85Zm0-4.651a1.759,1.759,0,1,0,1.242.515,1.761,1.761,0,0,0-1.242-.515Z" transform="translate(1661.923 201.188)" fill="#1b54f8" stroke="#1b54f8" stroke-width="0.5"></path><path id="Path_652" data-name="Path 652" d="M308.553,127.738H301.8a.565.565,0,0,1-.565-.565v-4.182a.567.567,0,0,1,.138-.37l1.249-1.442h0a.565.565,0,0,1,.427-.195h4.459a.566.566,0,0,1,.457.234l1.046,1.442h0a.561.561,0,0,1,.107.331v4.182a.564.564,0,0,1-.565.565Zm-6.189-1.131h5.624v-3.433l-.768-1.06h-3.913l-.942,1.087Z" transform="translate(1523.384 205.085)" fill="#1b54f8" stroke="#1b54f8" stroke-width="0.5"></path><path id="Path_653" data-name="Path 653" d="M399.68,127.738h-6.754a.565.565,0,0,1-.566-.565v-4.182a.566.566,0,0,1,.139-.371l1.255-1.442a.566.566,0,0,1,.426-.194h4.459a.565.565,0,0,1,.458.235l1.04,1.441h0a.566.566,0,0,1,.107.331v4.182a.565.565,0,0,1-.565.565Zm-6.189-1.131h5.624v-3.434l-.764-1.059h-3.91l-.949,1.087Z" transform="translate(1442.374 205.085)" fill="#1b54f8" stroke="#1b54f8" stroke-width="0.5"></path><path id="Path_654" data-name="Path 654" d="M399.68,213.163h-6.754a.565.565,0,0,1-.566-.565v-4.182a.567.567,0,0,1,.14-.372l1.255-1.435a.567.567,0,0,1,.426-.193h4.459a.566.566,0,0,1,.457.233l1.04,1.435h0a.563.563,0,0,1,.108.332V212.6a.565.565,0,0,1-.565.565Zm-6.189-1.131h5.624V208.6l-.764-1.053h-3.914l-.946,1.082Z" transform="translate(1442.374 129.139)" fill="#1b54f8" stroke="#1b54f8" stroke-width="0.5"></path><path id="Path_655" data-name="Path 655" d="M148.287,216.523a2.891,2.891,0,1,1,2.041-.846,2.89,2.89,0,0,1-2.041.846Zm0-4.651h0a1.767,1.767,0,1,0,1.243.52,1.76,1.76,0,0,0-1.243-.52Z" transform="translate(1661.923 125.292)" fill="#1b54f8" stroke="#1b54f8" stroke-width="0.5"></path><path id="Path_656" data-name="Path 656" d="M224.347,131.15a2.9,2.9,0,1,1,2.042-.85,2.893,2.893,0,0,1-2.042.85Zm0-4.651a1.762,1.762,0,1,0,1.242.516,1.761,1.761,0,0,0-1.242-.516Z" transform="translate(1594.307 201.188)" fill="#1b54f8" stroke="#1b54f8" stroke-width="0.5"></path><path id="Path_657" data-name="Path 657" d="M308.553,213.163H301.8a.565.565,0,0,1-.565-.565v-4.182a.565.565,0,0,1,.138-.371l1.249-1.435a.566.566,0,0,1,.427-.195h4.459a.565.565,0,0,1,.457.232l1.046,1.435a.564.564,0,0,1,.108.333V212.6a.564.564,0,0,1-.565.565Zm-6.189-1.131h5.624V208.6l-.768-1.054h-3.915l-.941,1.082Z" transform="translate(1523.384 129.139)" fill="#1b54f8" stroke="#1b54f8" stroke-width="0.5"></path><path id="Path_658" data-name="Path 658" d="M224.347,216.523a2.894,2.894,0,1,1,2.04-.847,2.889,2.889,0,0,1-2.04.847Zm0-4.651h0a1.769,1.769,0,1,0,1.242.52,1.759,1.759,0,0,0-1.242-.52Z" transform="translate(1594.307 125.292)" fill="#1b54f8" stroke="#1b54f8" stroke-width="0.5"></path></g></g></svg> 