<?xml version="1.0" encoding="UTF-8"?> <svg xmlns="http://www.w3.org/2000/svg" xmlns:xlink="http://www.w3.org/1999/xlink" width="90" height="90" viewBox="0 0 90 90"><defs><clipPath id="clip-path"><rect id="Rectangle_22" data-name="Rectangle 22" width="90" height="90" transform="translate(1146 824)" fill="#fff" stroke="#707070" stroke-width="1"></rect></clipPath></defs><g id="Mask_Group_22" data-name="Mask Group 22" transform="translate(-1146 -824)" clip-path="url(#clip-path)"><g id="Group_253" data-name="Group 253" transform="translate(-2 -2)"><path id="Path_365" data-name="Path 365" d="M329.812,233.563a2.025,2.025,0,0,1,2.021,2.021h4.042a6.052,6.052,0,0,0-4.042-5.69V227.5h-4.042v2.393a6.047,6.047,0,0,0,2.021,11.752,2.021,2.021,0,1,1-2.021,2.023h-4.042a6.052,6.052,0,0,0,4.043,5.689v2.175h4.042v-2.175a6.048,6.048,0,0,0-2.022-11.754,2.02,2.02,0,1,1,0-4.041Z" transform="translate(863.137 632.082)" fill="#1b54f8" stroke="#fff" stroke-width="0.6"></path><path id="Path_367" data-name="Path 367" d="M192.8,96.25a26.577,26.577,0,1,0,18.763,7.784A26.545,26.545,0,0,0,192.8,96.25Zm0,50.566a24.045,24.045,0,1,1,16.975-7.042,24.014,24.014,0,0,1-16.975,7.042Z" transform="translate(1000.48 748.48)" fill="#1b54f8" stroke="#fff" stroke-width="0.6"></path><path id="Path_368" data-name="Path 368" d="M155.149,39.388h-2.462a2.409,2.409,0,0,1-2.244-1.755h0a34.026,34.026,0,0,0-2.225-5.356,2.407,2.407,0,0,1,.346-2.832l1.751-1.752a1.264,1.264,0,0,0,.155-1.6A39.206,39.206,0,0,0,139.8,15.426a1.264,1.264,0,0,0-1.6.155l-1.752,1.751a2.41,2.41,0,0,1-2.832.346,33.987,33.987,0,0,0-5.356-2.225,2.407,2.407,0,0,1-1.754-2.244V10.747a1.264,1.264,0,0,0-1.021-1.24,38.872,38.872,0,0,0-15.087,0,1.264,1.264,0,0,0-1.021,1.24V13.21a2.407,2.407,0,0,1-1.754,2.244,33.984,33.984,0,0,0-5.357,2.225,2.41,2.41,0,0,1-2.832-.346l-1.751-1.751a1.264,1.264,0,0,0-1.6-.155A39.206,39.206,0,0,0,85.417,26.094a1.264,1.264,0,0,0,.155,1.6l1.751,1.752a2.407,2.407,0,0,1,.346,2.832,33.963,33.963,0,0,0-2.225,5.356A2.409,2.409,0,0,1,83.2,39.388H80.738a1.264,1.264,0,0,0-1.24,1.021,38.719,38.719,0,0,0,0,15.087,1.264,1.264,0,0,0,1.24,1.021H83.2a2.407,2.407,0,0,1,2.244,1.754,33.97,33.97,0,0,0,2.225,5.356,2.409,2.409,0,0,1-.346,2.833l-1.751,1.751a1.264,1.264,0,0,0-.155,1.6A39.207,39.207,0,0,0,96.084,80.48a1.265,1.265,0,0,0,1.6-.155l1.752-1.751a2.409,2.409,0,0,1,2.832-.347,33.9,33.9,0,0,0,5.356,2.225,2.407,2.407,0,0,1,1.754,2.244v2.462A1.264,1.264,0,0,0,110.4,86.4a38.719,38.719,0,0,0,15.087,0,1.264,1.264,0,0,0,1.021-1.24V82.7a2.407,2.407,0,0,1,1.754-2.244,33.9,33.9,0,0,0,5.356-2.225,2.409,2.409,0,0,1,2.832.347l1.752,1.751a1.265,1.265,0,0,0,1.6.155A39.207,39.207,0,0,0,150.47,69.812a1.264,1.264,0,0,0-.155-1.6l-1.751-1.752a2.408,2.408,0,0,1-.346-2.832,33.966,33.966,0,0,0,2.225-5.356,2.407,2.407,0,0,1,2.244-1.754h2.462a1.264,1.264,0,0,0,1.24-1.021,38.719,38.719,0,0,0,0-15.087,1.264,1.264,0,0,0-1.24-1.021Zm-1.055,14.6h-1.407a4.925,4.925,0,0,0-4.654,3.517,31.465,31.465,0,0,1-2.058,4.956,4.924,4.924,0,0,0,.8,5.786l1,1.005h0a36.622,36.622,0,0,1-8.538,8.537l-1-1h0a4.927,4.927,0,0,0-5.786-.8,31.365,31.365,0,0,1-4.956,2.059A4.925,4.925,0,0,0,123.98,82.7V84.1h0a36.159,36.159,0,0,1-12.074,0V82.7a4.925,4.925,0,0,0-3.517-4.654,31.366,31.366,0,0,1-4.956-2.059,4.925,4.925,0,0,0-5.785.8l-1.005,1a36.666,36.666,0,0,1-8.538-8.537l1-1h0a4.928,4.928,0,0,0,.8-5.787,31.36,31.36,0,0,1-2.059-4.956A4.925,4.925,0,0,0,83.2,53.99H81.793a36.011,36.011,0,0,1,0-12.074H83.2A4.925,4.925,0,0,0,87.853,38.4a31.464,31.464,0,0,1,2.058-4.956,4.922,4.922,0,0,0-.8-5.786l-1-1a36.666,36.666,0,0,1,8.538-8.538l1,1h0a4.927,4.927,0,0,0,5.786.8,31.418,31.418,0,0,1,4.956-2.059,4.925,4.925,0,0,0,3.517-4.654V11.8a36.189,36.189,0,0,1,12.074,0v1.407a4.925,4.925,0,0,0,3.517,4.654,31.488,31.488,0,0,1,4.956,2.058,4.924,4.924,0,0,0,5.786-.8l1.005-1h0a36.666,36.666,0,0,1,8.537,8.538l-1,1h0a4.924,4.924,0,0,0-.8,5.786,31.364,31.364,0,0,1,2.059,4.956,4.925,4.925,0,0,0,4.654,3.517h1.406a35.981,35.981,0,0,1,0,12.074Z" transform="translate(1075.245 823.232)" fill="#1b54f8" stroke="#fff" stroke-width="0.6"></path></g></g></svg> 