<?xml version="1.0" encoding="UTF-8"?> <svg xmlns="http://www.w3.org/2000/svg" width="61" height="61" viewBox="0 0 61 61" fill="none"><mask id="mask0_1_106" style="mask-type:luminance" maskUnits="userSpaceOnUse" x="0" y="0" width="61" height="61"><path d="M60.3 0.5H0.299988V60.5H60.3V0.5Z" fill="white"></path></mask><g mask="url(#mask0_1_106)"><path fill-rule="evenodd" clip-rule="evenodd" d="M53.2 40.2C53.7 45.8 49.5 50.7 43.9 51.1C43.4 51.1 43 51.1 42.5 51.1C42.1 51.1 41.8 51.4 41.8 51.8V52.8L35.7 48.3L41.8 43.8V45.4C41.8 45.8 42.1 46 42.4 46.1C46.9 46.7 51.3 44.3 53.2 40.2ZM42.8 41.8C42.6 41.7 42.3 41.7 42.1 41.9L34.1 47.8C33.8 48 33.7 48.5 34 48.8C34 48.9 34.1 48.9 34.1 48.9L42.1 54.8C42.2 54.9 42.4 54.9 42.5 54.9C42.6 54.9 42.7 54.9 42.8 54.8C43 54.7 43.2 54.4 43.2 54.2V52.5C49.6 52.5 54.7 47.3 54.7 40.9C54.7 39.7 54.5 38.4 54.1 37.2C54 36.8 53.6 36.6 53.2 36.8C53 36.9 52.8 37.1 52.7 37.3C51.8 41.8 47.8 44.9 43.2 44.7V42.3C43.2 42.1 43 41.9 42.8 41.8ZM10.2 13.8C12.1 11.4 15 10 18.1 10C18.3 10 18.5 10 18.7 10C19.1 10 19.4 9.7 19.4 9.3V8.3L25.5 12.8L19.4 17.3V15.7C19.4 15.3 19.1 15.1 18.8 15C14.3 14.4 9.9 16.8 8 20.9C7.8 18.4 8.60001 15.9 10.2 13.8ZM7.89999 24.4C8.29999 24.4 8.50001 24.1 8.60001 23.8C9.50001 19.3 13.5 16.2 18.1 16.4V18.8C18.1 19.2 18.4 19.5 18.8 19.5C19 19.5 19.1 19.5 19.2 19.4L27.2 13.5C27.5 13.3 27.6 12.8 27.3 12.5C27.3 12.4 27.2 12.4 27.2 12.4L19.2 6.5C18.9 6.3 18.4 6.30001 18.2 6.60001C18.1 6.70001 18.1 6.9 18.1 7V8.7C11.7 8.7 6.60001 13.9 6.60001 20.3C6.60001 21.5 6.80001 22.8 7.20001 24C7.30001 24.2 7.59999 24.4 7.89999 24.4ZM16 31.3C23.7 31.3 29.9 37.5 29.9 45.2C29.9 52.9 23.7 59.1 16 59.1C8.3 59.1 2.10001 52.9 2.10001 45.2C2.10001 37.5 8.3 31.3 16 31.3ZM16 60.5C24.5 60.5 31.3 53.6 31.3 45.2C31.3 36.8 24.4 29.9 16 29.9C7.6 29.9 0.700012 36.8 0.700012 45.2C0.700012 53.7 7.6 60.5 16 60.5ZM11.9 41.2C11.9 42.8 13.4 44.2 15.3 44.4V38C13.3 38.3 11.9 39.6 11.9 41.2ZM20.2 49.2C20.2 47.6 18.7 46.2 16.8 45.9V52.4C18.7 52.1 20.2 50.8 20.2 49.2ZM11.8 50.4C11.6 50.1 11.2 49.9 10.9 50.1C10.6 50.3 10.4 50.7 10.6 51C11.6 52.7 13.4 53.8 15.4 53.8V55.4C15.4 55.8 15.7 56.1 16.1 56.1C16.5 56.1 16.8 55.8 16.8 55.4V53.7C19.5 53.3 21.6 51.4 21.6 49.1C21.6 46.8 19.4 44.7 16.8 44.4V37.8C18.2 37.9 19.6 38.6 20.3 39.9C20.5 40.2 20.9 40.4 21.2 40.2C21.5 40 21.7 39.6 21.5 39.3C20.5 37.6 18.7 36.5 16.7 36.5V34.9C16.7 34.5 16.4 34.2 16 34.2C15.6 34.2 15.3 34.5 15.3 34.9V36.6C12.6 37 10.5 38.9 10.5 41.2C10.5 43.5 12.7 45.6 15.3 45.9V52.5C13.9 52.4 12.5 51.6 11.8 50.4ZM45.2 10.7C48.1 10.7 50.5 13.1 50.5 16C50.5 18.9 48.1 21.3 45.2 21.3C42.3 21.3 39.9 18.9 39.9 16C40 13.1 42.3 10.7 45.2 10.7ZM45.2 22.7C48.9 22.7 51.9 19.7 51.9 16C51.9 12.3 48.9 9.3 45.2 9.3C41.5 9.3 38.5 12.3 38.5 16C38.6 19.7 41.5 22.7 45.2 22.7ZM31.3 13.9L34.6 13.4C34.9 13.4 35.1 13.2 35.2 12.9C35.4 12.3 35.6 11.7 35.9 11.1C36 10.9 36 10.6 35.8 10.4L33.8 7.7L36.8 4.7L39.5 6.7C39.7 6.9 40 6.9 40.2 6.8C40.8 6.5 41.4 6.20001 42 6.10001C42.3 6.00001 42.4 5.8 42.5 5.5L43 2.2H47.2L47.7 5.5C47.7 5.8 47.9 6.00001 48.2 6.10001C48.8 6.30001 49.4 6.5 50 6.8C50.2 6.9 50.5 6.9 50.7 6.7L53.4 4.7L56.4 7.7L54.4 10.4C54.2 10.6 54.2 10.9 54.3 11.1C54.6 11.7 54.9 12.3 55 12.9C55.1 13.2 55.3 13.3 55.6 13.4L58.9 13.9V18.1L55.6 18.6C55.3 18.6 55.1 18.8 55 19.1C54.8 19.7 54.6 20.3 54.3 20.9C54.2 21.1 54.2 21.4 54.4 21.6L56.4 24.3L53.4 27.3L50.7 25.3C50.5 25.1 50.2 25.1 50 25.2C49.4 25.5 48.8 25.8 48.2 25.9C47.9 26 47.8 26.2 47.7 26.5L47.2 29.8H43L42.5 26.5C42.5 26.2 42.3 26 42 25.9C41.4 25.7 40.8 25.5 40.2 25.2C40 25.1 39.7 25.1 39.5 25.3L36.8 27.3L33.8 24.3L35.8 21.6C36 21.4 36 21.1 35.9 20.9C35.6 20.3 35.3 19.7 35.2 19.1C35.1 18.8 34.9 18.7 34.6 18.6L31.3 18.1V13.9ZM31 19.5L33.9 20C34 20.4 34.2 20.8 34.4 21.2L32.6 23.6C32.2 24.1 32.3 24.8 32.7 25.3L35.8 28.4C36.3 28.9 37 28.9 37.5 28.5L39.9 26.7C40.3 26.9 40.7 27.1 41.1 27.2L41.6 30.1C41.7 30.7 42.2 31.2 42.9 31.2H47.3C47.9 31.2 48.5 30.7 48.6 30.1L49.1 27.2C49.5 27.1 49.9 26.9 50.3 26.7L52.7 28.5C53.2 28.9 53.9 28.8 54.4 28.4L57.5 25.3C58 24.8 58 24.1 57.6 23.6L55.8 21.2C56 20.8 56.2 20.4 56.3 20L59.2 19.5C59.8 19.4 60.3 18.9 60.3 18.2V13.8C60.3 13.2 59.8 12.6 59.2 12.5L56.3 12C56.2 11.6 56 11.2 55.8 10.8L57.6 8.39999C58 7.89999 57.9 7.2 57.5 6.7L54.4 3.60001C53.9 3.10001 53.2 3.1 52.7 3.5L50.3 5.3C49.9 5.1 49.5 4.9 49.1 4.8L48.6 1.89999C48.5 1.29999 48 0.800003 47.3 0.800003H43C42.4 0.800003 41.8 1.29999 41.7 1.89999L41.2 4.8C40.8 4.9 40.4 5.1 40 5.3L37.6 3.5C37.1 3.1 36.4 3.20001 35.9 3.60001L32.8 6.7C32.3 7.2 32.3 7.89999 32.7 8.39999L34.5 10.8C34.3 11.2 34.1 11.6 34 12L31.1 12.5C30.5 12.6 30 13.1 30 13.8V18.2C29.9 18.8 30.4 19.4 31 19.5Z" fill="#1B54F8" stroke="#1B54F8" stroke-width="0.25" stroke-miterlimit="10"></path></g></svg> 