<?xml version="1.0" encoding="UTF-8"?> <svg xmlns="http://www.w3.org/2000/svg" xmlns:xlink="http://www.w3.org/1999/xlink" width="90" height="90" viewBox="0 0 90 90"><defs><clipPath id="clip-path"><rect id="Rectangle_1" data-name="Rectangle 1" width="90" height="90" transform="translate(85 66)" fill="#fff" stroke="#707070" stroke-width="1"></rect></clipPath></defs><g id="Mask_Group_3" data-name="Mask Group 3" transform="translate(-85 -66)" clip-path="url(#clip-path)"><g id="Group_7" data-name="Group 7"><g id="Group_6" data-name="Group 6" transform="translate(-414 -216)"><g id="Group_5" data-name="Group 5" transform="translate(511 294)"><path id="Path_19" data-name="Path 19" d="M12.18,3A9.2,9.2,0,0,0,3,12.18V59.917a9.2,9.2,0,0,0,9.18,9.18H59.917a9.2,9.2,0,0,0,9.18-9.18V12.18A9.2,9.2,0,0,0,59.917,3Zm0,3.672H59.917a5.456,5.456,0,0,1,5.508,5.508V59.917a5.456,5.456,0,0,1-5.508,5.508H12.18a5.456,5.456,0,0,1-5.508-5.508V12.18A5.456,5.456,0,0,1,12.18,6.672Z" transform="translate(-3 -3)" fill="#1c54f8" stroke="#fff" stroke-width="1"></path><path id="Path_20" data-name="Path 20" d="M14.978,9.012a1.836,1.836,0,0,0-1.233.674L6.4,18.866a1.837,1.837,0,0,0,0,2.3l7.343,9.18a1.837,1.837,0,1,0,2.868-2.3l-6.425-8.033,6.425-8.033a1.833,1.833,0,0,0-1.635-2.969Z" transform="translate(5.015 13.033)" fill="#1c54f8" stroke="#fff" stroke-width="1"></path><path id="Path_21" data-name="Path 21" d="M15.867,9.036a1.836,1.836,0,0,0-2.159,1.442l-3.672,18.36a1.836,1.836,0,1,0,3.6.717l3.672-18.36A1.836,1.836,0,0,0,15.867,9.036Z" transform="translate(15.705 13.033)" fill="#1c54f8" stroke="#fff" stroke-width="1"></path><path id="Path_22" data-name="Path 22" d="M15.037,9.012A1.833,1.833,0,0,0,13.4,11.981l6.425,8.033L13.4,28.046a1.837,1.837,0,1,0,2.868,2.3l7.343-9.18a1.837,1.837,0,0,0,0-2.3l-7.343-9.18a1.836,1.836,0,0,0-1.233-.674Z" transform="translate(23.72 13.033)" fill="#1c54f8" stroke="#fff" stroke-width="1"></path><path id="Path_23" data-name="Path 23" d="M17.836,14a1.836,1.836,0,0,0,0,3.672h3.672a1.836,1.836,0,0,0,0-3.672Z" transform="translate(31.737 26.393)" fill="#1c54f8" stroke="#fff" stroke-width="1"></path></g></g><path id="Path_24" data-name="Path 24" d="M101.97,82.18,158.809,140.5" transform="translate(-1)" fill="none" stroke="#1c54f8" stroke-width="2.6"></path></g></g></svg> 