<?xml version="1.0" encoding="UTF-8"?> <svg xmlns="http://www.w3.org/2000/svg" xmlns:xlink="http://www.w3.org/1999/xlink" width="60" height="60" viewBox="0 0 60 60"><defs><clipPath id="clip-path"><rect id="Rectangle_866" data-name="Rectangle 866" width="60" height="60" transform="translate(317 45)" fill="#fff" stroke="#707070" stroke-width="1"></rect></clipPath></defs><g id="Mask_Group_95" data-name="Mask Group 95" transform="translate(-317 -45)" clip-path="url(#clip-path)"><g id="Group_161" data-name="Group 161" transform="translate(-1010.676 -1254)"><g id="Group_160" data-name="Group 160" transform="translate(1334.676 1304)"><g id="Group_159" data-name="Group 159" transform="translate(0 0)"><g id="Group_155" data-name="Group 155"><g id="Group_153" data-name="Group 153"><path id="Path_218" data-name="Path 218" d="M67.344,256.743H59.836a1.261,1.261,0,0,1-1.261-1.261v-3.189a18.377,18.377,0,0,1-4.277-1.761L52.04,252.79a1.261,1.261,0,0,1-1.783,0l-5.3-5.3a1.261,1.261,0,0,1,0-1.783l2.264-2.264a19.2,19.2,0,0,1-1.761-4.271h-3.2A1.261,1.261,0,0,1,41,237.907v-7.335a1.261,1.261,0,0,1,1.261-1.261H53.12A1.261,1.261,0,0,1,54.307,231a9.371,9.371,0,0,0-.545,3.157,9.831,9.831,0,0,0,19.656,0A9.369,9.369,0,0,0,72.873,231a1.261,1.261,0,0,1,1.188-1.684H84.92a1.261,1.261,0,0,1,1.261,1.261v7.335a1.261,1.261,0,0,1-1.261,1.261H81.73a18.377,18.377,0,0,1-1.761,4.277l2.259,2.259a1.261,1.261,0,0,1,0,1.783l-5.3,5.3a1.261,1.261,0,0,1-.892.369h0a1.261,1.261,0,0,1-.892-.369l-2.264-2.264a19.191,19.191,0,0,1-4.271,1.761v3.2A1.261,1.261,0,0,1,67.344,256.743ZM61.1,254.221h4.986V251.3a1.261,1.261,0,0,1,.989-1.231,16.7,16.7,0,0,0,5.329-2.2,1.261,1.261,0,0,1,1.565.175l2.066,2.066,3.521-3.521-2.066-2.066a1.261,1.261,0,0,1-.168-1.575,15.9,15.9,0,0,0,2.187-5.311,1.261,1.261,0,0,1,1.233-1h2.92v-4.813H75.713a11.925,11.925,0,0,1,.227,2.32,12.352,12.352,0,0,1-24.7,0,11.933,11.933,0,0,1,.227-2.32H43.522v4.813h2.92a1.261,1.261,0,0,1,1.231.989,16.7,16.7,0,0,0,2.2,5.329,1.261,1.261,0,0,1-.175,1.565l-2.066,2.066,3.521,3.521,2.066-2.066a1.261,1.261,0,0,1,1.575-.168,15.9,15.9,0,0,0,5.311,2.187,1.261,1.261,0,0,1,1,1.233v2.92Z" transform="translate(-41 -207.488)" fill="#1c54f8" stroke="#fff" stroke-width="1.2"></path><path id="Path_219" data-name="Path 219" d="M211.459,32.417h-8.993a1.261,1.261,0,0,1-1.108-1.862l4.5-8.285a1.261,1.261,0,0,1,2.216,0l4.5,8.285a1.261,1.261,0,0,1-1.108,1.862ZM204.585,29.9h4.755l-2.378-4.381Z" transform="translate(-184.373 -21.61)" fill="#1c54f8" stroke="#fff" stroke-width="1.2"></path></g><g id="Group_154" data-name="Group 154" transform="translate(16.833 9.546)"><path id="Path_220" data-name="Path 220" d="M211.46,129.167h-8.993a1.261,1.261,0,0,1-1.261-1.261V112.464h2.522v14.182H210.2v-5.108h2.522v6.368A1.261,1.261,0,0,1,211.46,129.167Z" transform="translate(-201.206 -112.464)" fill="#1c54f8" stroke="#fff" stroke-width="1.2"></path><rect id="Rectangle_878" data-name="Rectangle 878" width="2.522" height="2.522" transform="translate(8.993 3.913)" fill="#1c54f8" stroke="#fff" stroke-width="1.2"></rect><path id="Path_221" data-name="Path 221" d="M211.46,255.858h-8.993a1.261,1.261,0,0,1-1.261-1.261v-5.9a1.261,1.261,0,0,1,1.261-1.261h8.993a1.261,1.261,0,0,1,1.261,1.261v5.9A1.261,1.261,0,0,1,211.46,255.858Zm-7.732-2.522H210.2v-3.381h-6.471Z" transform="translate(-201.206 -233.253)" fill="#1c54f8" stroke="#fff" stroke-width="1.2"></path></g></g><g id="Group_158" data-name="Group 158" transform="translate(5.804 1.394)"><g id="Group_156" data-name="Group 156" transform="translate(25.142 0)"><rect id="Rectangle_879" data-name="Rectangle 879" width="7.174" height="2.522" transform="translate(1.126 10.414) rotate(-35.492)" fill="#1c54f8" stroke="#fff" stroke-width="1.2"></rect><rect id="Rectangle_880" data-name="Rectangle 880" width="4.866" height="2.522" transform="matrix(0.768, -0.64, 0.64, 0.768, 0, 3.114)" fill="#1c54f8" stroke="#fff" stroke-width="1.2"></rect></g><g id="Group_157" data-name="Group 157" transform="translate(0 0.001)"><rect id="Rectangle_881" data-name="Rectangle 881" width="2.522" height="7.174" transform="translate(0 8.3) rotate(-54.508)" fill="#1c54f8" stroke="#fff" stroke-width="1.2"></rect><rect id="Rectangle_882" data-name="Rectangle 882" width="2.522" height="4.866" transform="matrix(0.64, -0.768, 0.768, 0.64, 3.078, 1.938)" fill="#1c54f8" stroke="#fff" stroke-width="1.2"></rect></g></g></g></g></g></g></svg> 