<?xml version="1.0" encoding="UTF-8"?> <svg xmlns="http://www.w3.org/2000/svg" id="Layer_1" data-name="Layer 1" viewBox="0 0 80 80"><defs><style>.cls-1{fill:#1b54f8;}</style></defs><g id="Customer-Relationship-Management"><g id="Group"><path id="Shape" class="cls-1" d="M70.8,10H65a.94.94,0,0,0-1,1v.7c-6-1.6-6.5-2.4-6.8-2.5-.6-.3-6.4-3-9.4-.7l-6.1,5-1.3-.4V11a.94.94,0,0,0-1-1H33.5a.94.94,0,0,0-1,1v7H19a.94.94,0,0,0-1,1V52.1H9.2a.94.94,0,0,0-1,1V66.6a5.85,5.85,0,0,0,5.9,5.9H54.2a5.91,5.91,0,0,0,5.9-5.9v-36h0c1.9.6,3.6-.3,3.7-3.1a1.45,1.45,0,0,0-.2-.7H64v2.9a.94.94,0,0,0,1,1h5.9a.94.94,0,0,0,1-1V11A1.09,1.09,0,0,0,70.8,10ZM34.5,12h3.9V28.7H34.5ZM10.2,66.6V54.1H18V66.6a3.9,3.9,0,0,1-7.8,0Zm44,3.9H18.5A5.84,5.84,0,0,0,20,66.7V20H32.5v9.7a.94.94,0,0,0,1,1h5.9a.94.94,0,0,0,1-1V27.3a1.8,1.8,0,0,1,.9.6l.1.1c1.1.9,6.4,5.2,8.1,5.9a3.55,3.55,0,0,0,1.6.4,2.66,2.66,0,0,0,1.2-.3,1.8,1.8,0,0,0,.8-.9,2.81,2.81,0,0,0,2.2.1,2.33,2.33,0,0,0,1.1-1.1,3.66,3.66,0,0,0,1.8.4V66.7A4,4,0,0,1,54.2,70.5Zm7.2-41.8c-.3.2-1-.1-1.5-.4L58.3,26a1,1,0,0,0-1.7,1.1l1.6,2.4c-.1.7-.2.9-.3.9s-1-.3-1.6-.7h0l-1.7-2.4a1,1,0,0,0-1.7,1.1l1.6,2.3c-.1.3-.2.5-.3.5a2.18,2.18,0,0,1-1.4-.5l-1.7-2.4a1,1,0,0,0-1.7,1.1L51,31.7a.58.58,0,0,1-.1.4c-.1.1-.5,0-.8-.2a.1.1,0,0,1-.1-.1c-.9-.3-5-3.4-7.5-5.5A5.4,5.4,0,0,0,40.2,25V17a6.83,6.83,0,0,0,1.5,1.7c4.5,2.8,9.5-2,9.8-2.2.1-.1.2-.2.3-.2l9.8,11.4A1.12,1.12,0,0,1,61.4,28.7Zm.8-3.5L53.3,14.8l-.3-.3a2.49,2.49,0,0,0-2.7.6s-4.1,3.9-7.2,2c-.5-.4-1-1-1-1.4,0-.2.3-.3.4-.4l.1-.1h.1L49,10c1.7-1.3,5.8.2,7.2.9,1.5,1.2,5.8,2.3,7.8,2.8v11A2.9,2.9,0,0,0,62.2,25.2Zm7.6,3.5H66V12h3.9V28.7Z"></path><path id="Path" class="cls-1" d="M33.5,39.1a1,1,0,0,0,0,2H54.4a.94.94,0,0,0,1-1C55.4,38.2,53.3,39.5,33.5,39.1Z"></path><path id="Path-2" data-name="Path" class="cls-1" d="M54.4,50.3H33.5a1,1,0,0,0,0,2H54.4a1,1,0,0,0,0-2Z"></path><path id="Path-3" data-name="Path" class="cls-1" d="M54.4,61.6H33.5a1,1,0,0,0,0,2H54.4a1,1,0,0,0,0-2Z"></path><path id="Path-4" data-name="Path" class="cls-1" d="M29,36.9l-4.2,4.2-1-1a1,1,0,1,0-1.4,1.4l1.8,1.8a1,1,0,0,0,1.4,0l4.9-4.9a1,1,0,0,0,0-1.4A1.21,1.21,0,0,0,29,36.9Z"></path><path id="Path-5" data-name="Path" class="cls-1" d="M29,48.2l-4.2,4.2-1-1a1,1,0,1,0-1.4,1.4l1.8,1.8a1,1,0,0,0,1.4,0l4.9-4.9a1,1,0,0,0,0-1.4A1,1,0,0,0,29,48.2Z"></path><path id="Path-6" data-name="Path" class="cls-1" d="M29,59.5l-4.2,4.2-1-1a1,1,0,0,0-1.4,1.4l1.8,1.8a1,1,0,0,0,1.4,0L30.5,61a1,1,0,0,0,0-1.4A1,1,0,0,0,29,59.5Z"></path></g></g></svg> 