<?xml version="1.0" encoding="UTF-8"?> <svg xmlns="http://www.w3.org/2000/svg" id="Group_7" data-name="Group 7" width="80" height="80" viewBox="0 0 80 80"><rect id="Rectangle_12" data-name="Rectangle 12" width="80" height="80" fill="#fff" opacity="0"></rect><path id="Path_247" data-name="Path 247" d="M178.227,172.244H145.16a1.945,1.945,0,0,1-1.945-1.945v-5.835h-8.727v1.928H140.8a.494.494,0,0,1,.494.494v.972a.5.5,0,0,1-.494.494H126.216a.494.494,0,0,1-.494-.494v-.972a.5.5,0,0,1,.494-.494h6.33v-1.928H102.369a1.945,1.945,0,0,1-1.945-1.945V123.588a1.946,1.946,0,0,1,1.945-1.945h62.242a1.945,1.945,0,0,1,1.945,1.945v8.752h11.67a1.945,1.945,0,0,1,1.945,1.945V170.3a1.947,1.947,0,0,1-1.946,1.946ZM145.2,170.279h13.6V144.988H145.2Zm19.436-46.686H102.409V162.5h40.8V144.985a1.946,1.946,0,0,1,1.945-1.945h5.835v-8.752a1.945,1.945,0,0,1,1.945-1.945h11.7v-8.747Zm13.615,10.7H152.979v8.748h5.8a1.945,1.945,0,0,1,1.945,1.945v25.3H178.25Zm-13.135,32.1h.974a.494.494,0,0,1,.494.494v.972a.5.5,0,0,1-.494.494h-.974a.494.494,0,0,1-.494-.494v-.972A.493.493,0,0,1,165.116,166.394Zm-12.642,1.96H151.5a.494.494,0,0,1-.494-.494v-.972a.5.5,0,0,1,.494-.494h.974a.494.494,0,0,1,.494.494v.972A.494.494,0,0,1,152.475,168.354Z" transform="translate(-100.424 -102.2)" fill="#1b54f8" fill-rule="evenodd"></path></svg> 