<?xml version="1.0" encoding="UTF-8"?> <!-- Generator: Adobe Illustrator 25.2.3, SVG Export Plug-In . SVG Version: 6.00 Build 0) --> <svg xmlns="http://www.w3.org/2000/svg" xmlns:xlink="http://www.w3.org/1999/xlink" version="1.1" id="Layer_1" x="0px" y="0px" viewBox="0 0 86 86" style="enable-background:new 0 0 86 86;" xml:space="preserve"> <style type="text/css"> .st0{filter:url(#Adobe_OpacityMaskFilter);} .st1{fill-rule:evenodd;clip-rule:evenodd;fill:#FFFFFF;} .st2{mask:url(#mask-2_1_);fill-rule:evenodd;clip-rule:evenodd;fill:#1B54F8;stroke:#1B54F8;stroke-width:0.5;} .st3{filter:url(#Adobe_OpacityMaskFilter_1_);} .st4{mask:url(#mask-4_1_);fill-rule:evenodd;clip-rule:evenodd;fill:#1B54F8;stroke:#1B54F8;stroke-width:0.5;} .st5{fill-rule:evenodd;clip-rule:evenodd;fill:#1B54F8;stroke:#1B54F8;stroke-width:0.5;} .st6{fill:#1B54F8;} </style> <desc>Created with Sketch.</desc> <g id="Page-1"> <g id="Artboard" transform="translate(-332.000000, -1008.000000)"> <g id="ICO" transform="translate(355.000000, 1047.000000)"> <g id="Group-3" transform="translate(0.000000, 0.261464)"> <g id="Clip-2"> </g> <defs> <filter id="Adobe_OpacityMaskFilter" x="1.6" y="2.2" width="21.9" height="22.3"> <feColorMatrix type="matrix" values="1 0 0 0 0 0 1 0 0 0 0 0 1 0 0 0 0 0 1 0"></feColorMatrix> </filter> </defs> <mask maskUnits="userSpaceOnUse" x="1.6" y="2.2" width="21.9" height="22.3" id="mask-2_1_"> <g class="st0"> <polygon id="path-1_1_" class="st1" points="0.2,0.2 24.9,0.2 24.9,25.4 0.2,25.4 "></polygon> </g> </mask> <path id="Fill-1" class="st2" d="M12.3,3C6.8,3.1,2.4,7.7,2.4,13.3c0,5.7,4.6,10.4,10.2,10.4c5.5,0,10-4.5,10.2-10.1l-3.2,0 c-0.1,3.9-3.3,6.9-7.1,6.9c-3.9,0-7.1-3.2-7.1-7.2c0-3.9,3-7.1,6.8-7.2L12.3,3z M12.6,24.2c-5.9,0-10.7-4.9-10.7-10.9 S6.7,2.4,12.6,2.4h0.3l-0.1,4.3h-0.3c-3.6,0-6.5,3-6.5,6.7S8.9,20,12.5,20c3.6,0,6.5-3,6.5-6.7v-0.3l4.2-0.1v0.3 C23.3,19.3,18.5,24.2,12.6,24.2z"></path> </g> <g id="Group-6" transform="translate(13.253369, 1.079724)"> <g id="Clip-5"> </g> <defs> <filter id="Adobe_OpacityMaskFilter_1_" x="0.3" y="0.3" width="10.8" height="11"> <feColorMatrix type="matrix" values="1 0 0 0 0 0 1 0 0 0 0 0 1 0 0 0 0 0 1 0"></feColorMatrix> </filter> </defs> <mask maskUnits="userSpaceOnUse" x="0.3" y="0.3" width="10.8" height="11" id="mask-4_1_"> <g class="st3"> <polygon id="path-3_1_" class="st1" points="0,0.1 11.3,0.1 11.3,11.6 0,11.6 "></polygon> </g> </mask> <path id="Fill-4" class="st4" d="M5.8,10.6c0.1,0,0.2,0,0.4,0c0.4,0,0.9,0,1.5,0c1,0,2.1,0,2.7,0c0-2.7-0.9-5-2.6-6.7 C6.1,2.1,3.8,1.2,1,1.1c0,0.8,0,1.7,0,2.5C1,4.4,1,5.2,1,6C3.5,6.3,5.3,8.1,5.8,10.6z M10.8,11.1l-0.3,0c-0.5,0-1.8,0-2.9,0 c-0.6,0-1.1,0-1.5,0h0c-0.3,0-0.5,0-0.6,0l-0.2,0l0-0.2C4.9,8.4,3.1,6.7,0.7,6.5l-0.2,0l0-0.2c0-0.8,0-1.7,0-2.6 c0-0.9,0-1.9,0-2.8l0-0.3l0.3,0c3,0,5.5,1,7.3,2.9c1.8,1.9,2.7,4.4,2.7,7.3L10.8,11.1z"></path> </g> <g id="Group-9" transform="translate(7.299988, 8.400024)"> <path id="Fill-7" class="st5" d="M5.3,0.9C3,0.9,1.1,2.8,1.1,5.1S3,9.3,5.3,9.3s4.1-1.9,4.1-4.2S7.6,0.9,5.3,0.9 M5.3,9.8 c-2.6,0-4.6-2.1-4.6-4.7s2.1-4.7,4.6-4.7s4.6,2.1,4.6,4.7S7.8,9.8,5.3,9.8"></path> <path id="Fill-9" class="st5" d="M5,7.3V6.7c-0.4,0-0.7-0.1-0.9-0.3l0.2-0.6C4.4,6,4.8,6.2,5.1,6.2c0.4,0,0.6-0.2,0.6-0.5 c0-0.3-0.2-0.4-0.6-0.6c-0.6-0.2-1-0.5-1-1.1c0-0.5,0.3-0.9,0.9-1V2.4h0.5V3c0.4,0,0.6,0.1,0.8,0.2L6.2,3.7 C6,3.7,5.8,3.5,5.4,3.5C5,3.5,4.8,3.7,4.8,3.9c0,0.2,0.2,0.4,0.7,0.6c0.7,0.2,0.9,0.6,0.9,1.1c0,0.5-0.3,1-1,1.1v0.6H5z"></path> </g> </g> <g id="wallet" transform="translate(351.000000, 1030.000000)"> <path id="Shape" class="st6" d="M48,22.4h-2.3V11.8c0-2.5-2.1-4.6-4.7-4.6h-3.2l-3.2-5.7C34.2,0.5,33.2,0,32.2,0 c-0.5,0-0.9,0.1-1.4,0.3L18.5,7.2H4.7C2.1,7.2,0,9.2,0,11.8v31.6C0,45.9,2.1,48,4.7,48H41c2.6,0,4.7-2.1,4.7-4.6v-9.3H48V22.4z M41,9c1.4,0,2.6,1.1,2.8,2.5h-3.5L38.9,9H41z M31.8,2c0.4-0.2,1-0.1,1.3,0.4l5.1,9.1H14.5L31.8,2z M43.8,43.4 c0,1.5-1.3,2.8-2.8,2.8H4.7c-1.5,0-2.8-1.2-2.8-2.8V11.8C1.9,10.2,3.1,9,4.7,9h10.5l-4.5,2.5H5.2c-0.5,0-0.9,0.4-0.9,0.9 s0.4,0.9,0.9,0.9h2.1h34h2.5v9.1H37c-3.2,0-5.7,2.5-5.7,5.7v0.4c0,3.1,2.6,5.7,5.7,5.7h6.8V43.4z M46.1,32.3h-0.5H37 c-2.1,0-3.9-1.7-3.9-3.8V28c0-2.1,1.7-3.8,3.9-3.8h8.7h0.5V32.3z M39.9,28.3c0,1.1-0.9,2-2.1,2c-1.1,0-2.1-0.9-2.1-2 c0-1.1,0.9-2,2.1-2C38.9,26.3,39.9,27.2,39.9,28.3z"></path> </g> </g> </g> </svg> 