<?xml version="1.0" encoding="UTF-8"?> <svg xmlns="http://www.w3.org/2000/svg" xmlns:xlink="http://www.w3.org/1999/xlink" width="60" height="60" viewBox="0 0 60 60"><defs><clipPath id="clip-path"><rect id="Rectangle_13" data-name="Rectangle 13" width="60" height="60" transform="translate(101 490)" fill="#fff" stroke="#707070" stroke-width="1"></rect></clipPath></defs><g id="Mask_Group_63" data-name="Mask Group 63" transform="translate(-101 -490)" clip-path="url(#clip-path)"><path id="Path_204" data-name="Path 204" d="M13.9,21.154a.7.7,0,1,1,.7.7A.7.7,0,0,1,13.9,21.154Zm3.151.7a.7.7,0,1,0-.7-.7A.7.7,0,0,0,17.05,21.857Zm2.449,0a.7.7,0,1,0-.7-.7A.7.7,0,0,0,19.5,21.857Zm5.178,4.111a.7.7,0,0,0-.7.7V50.551a.7.7,0,1,0,1.4,0V26.67A.7.7,0,0,0,24.677,25.968Zm-3.895,1.1H14.6a.7.7,0,1,0,0,1.4h6.179a.7.7,0,1,0,0-1.4Zm0,3.1H14.6a.7.7,0,1,0,0,1.4h6.179a.7.7,0,1,0,0-1.4Zm0,3.1H14.6a.7.7,0,1,0,0,1.4h6.179a.7.7,0,1,0,0-1.4Zm0,3.1H14.6a.7.7,0,1,0,0,1.4h6.179a.7.7,0,1,0,0-1.4Zm0,3.1H14.6a.7.7,0,1,0,0,1.4h6.179a.7.7,0,1,0,0-1.4Zm0,3.1H14.6a.7.7,0,1,0,0,1.4h6.179a.7.7,0,1,0,0-1.4Zm0,3.1H14.6a.7.7,0,1,0,0,1.4h6.179a.7.7,0,1,0,0-1.4Zm0,3.1H14.6a.7.7,0,1,0,0,1.4h6.179a.7.7,0,1,0,0-1.4Zm38.979-.911v2.69a.7.7,0,0,1-.556.688l-1.3.279-.377.909.726,1.12a.7.7,0,0,1-.092.877l-1.9,1.9a.7.7,0,0,1-.877.092l-1.12-.726-.906.374-.279,1.307a.7.7,0,0,1-.688.556h-2.69a.7.7,0,0,1-.688-.556l-.279-1.307-.906-.374L46.7,56.4a.7.7,0,0,1-.877-.092l-1.9-1.9a.7.7,0,0,1-.2-.488l-31.092-.007A2.624,2.624,0,0,1,10,51.292V20.219A2.624,2.624,0,0,1,12.626,17.6H53.147a2.624,2.624,0,0,1,2.622,2.622V41.863a.7.7,0,0,1,.486.2l1.9,1.9a.7.7,0,0,1,.092.877l-.726,1.12.377.909,1.3.279a.7.7,0,0,1,.556.688ZM11.409,20.219v3.088H54.365V20.219A1.219,1.219,0,0,0,53.147,19H12.626a1.219,1.219,0,0,0-1.217,1.217Zm1.217,32.287H44.484l.07-.107-.377-.909-1.3-.279a.7.7,0,0,1-.556-.688v-2.69a.7.7,0,0,1,.556-.688l1.3-.279.377-.909-.729-1.12a.7.7,0,0,1,.092-.88l1.9-1.9a.7.7,0,0,1,.877-.092l1.12.726.906-.374L49,41.009a.7.7,0,0,1,.688-.556h2.69a.7.7,0,0,1,.688.556l.279,1.307.906.374.109-.07V24.7l-42.954,0V51.291a1.217,1.217,0,0,0,1.217,1.215Zm45.73-4.1-1.11-.238a.706.706,0,0,1-.5-.418l-.661-1.589a.7.7,0,0,1,.058-.651l.617-.952-1.1-1.1-.952.617a.7.7,0,0,1-.651.061l-1.589-.656a.7.7,0,0,1-.418-.5l-.238-1.113H50.259l-.238,1.113a.706.706,0,0,1-.418.5l-1.589.656a.7.7,0,0,1-.651-.061l-.952-.617-1.1,1.1.62.952a.7.7,0,0,1,.061.651l-.658,1.589a.7.7,0,0,1-.5.418l-1.11.238v1.553l1.11.238a.706.706,0,0,1,.5.418l.658,1.589a.7.7,0,0,1-.061.651l-.62.952,1.1,1.1.952-.617a.7.7,0,0,1,.651-.061l1.589.656a.7.7,0,0,1,.418.5l.238,1.113h1.553l.238-1.113a.706.706,0,0,1,.418-.5l1.589-.656a.7.7,0,0,1,.651.061l.952.617,1.1-1.1-.617-.952a.7.7,0,0,1-.058-.651l.661-1.589a.7.7,0,0,1,.5-.418l1.11-.238Zm-3.176.777a4.143,4.143,0,1,1-4.143-4.143A4.148,4.148,0,0,1,55.181,49.183Zm-1.4,0a2.738,2.738,0,1,0-2.738,2.738A2.741,2.741,0,0,0,53.777,49.183ZM47.489,37.768h-15.2a2.207,2.207,0,0,1-2.2-2.2v-3.3a2.207,2.207,0,0,1,2.2-2.2h15.2a2.206,2.206,0,0,1,2.2,2.2v3.3A2.2,2.2,0,0,1,47.489,37.768Zm-15.2-1.4h15.2a.8.8,0,0,0,.8-.8v-3.3a.8.8,0,0,0-.8-.8h-15.2a.811.811,0,0,0-.8.8v3.3A.8.8,0,0,0,32.289,36.364Z" transform="translate(95.996 482.402)" fill="#1c54f8" stroke="#fff" stroke-width="0.4"></path></g></svg> 