<?xml version="1.0" encoding="UTF-8"?> <svg xmlns="http://www.w3.org/2000/svg" xmlns:xlink="http://www.w3.org/1999/xlink" width="60" height="60" viewBox="0 0 60 60"><defs><clipPath id="clip-path"><rect id="Rectangle_17" data-name="Rectangle 17" width="60" height="60" transform="translate(413 694)" fill="#fff" stroke="#707070" stroke-width="1"></rect></clipPath></defs><g id="Mask_Group_66" data-name="Mask Group 66" transform="translate(-413 -694)" clip-path="url(#clip-path)"><path id="Path_207" data-name="Path 207" d="M25.1,39.17a4.336,4.336,0,1,0,0,6.132,4.336,4.336,0,0,0,0-6.132Zm-6.2,3.713a.583.583,0,1,1,.825-.825L20.968,43.3l3.373-3.373a.583.583,0,0,1,.825.825l-3.785,3.785a.583.583,0,0,1-.825,0L18.9,42.883h0Zm9.945,3.241a2.178,2.178,0,0,0,4.149,0q-.245.024-.5.024H29.341q-.251,0-.5-.024h0Zm3.366-3.279h3.809a3.993,3.993,0,0,1-3.525,2.137H29.341a3.951,3.951,0,0,1-2.211-.674,5.518,5.518,0,0,0,.059-3.993h2.258a.583.583,0,1,0,0-1.166h-2.86a5.531,5.531,0,0,0-1.227-1.3v-.833H36.476V41a3.931,3.931,0,0,1-.058.677H32.21a.583.583,0,0,0,0,1.166h0ZM31.5,6.816a.583.583,0,1,1-1.166,0V5.586a.583.583,0,1,1,1.166,0v1.23Zm-8.222,1.89a.582.582,0,0,1-1.007.583l-.615-1.065a.582.582,0,1,1,1.007-.583l.615,1.065ZM17.1,14.455a.58.58,0,1,1-.578,1.007l-1.065-.615a.58.58,0,0,1,.578-1.007l1.065.615Zm-2.471,8.063a.583.583,0,1,1,0,1.166H13.4a.583.583,0,1,1,0-1.166h1.23Zm1.893,8.222a.58.58,0,1,1,.578,1.007l-1.065.615a.58.58,0,0,1-.578-1.007l1.065-.615Zm28.207,1.007a.58.58,0,1,1,.578-1.007l1.065.615a.58.58,0,0,1-.578,1.007l-1.065-.615ZM47.2,23.684a.583.583,0,0,1,0-1.166h1.23a.583.583,0,0,1,0,1.166H47.2Zm-1.89-8.222a.582.582,0,0,1-.583-1.007l1.065-.615a.582.582,0,0,1,.583,1.007l-1.065.615ZM39.564,9.286a.58.58,0,0,1-1.007-.578l.615-1.065a.58.58,0,0,1,1.007.578l-.615,1.065Zm-21.8,13.908a13.648,13.648,0,0,1-.111-1.722A13.265,13.265,0,1,1,39.168,31.858a3.9,3.9,0,0,0-1.526,3.167V41a5.164,5.164,0,0,1-3.4,4.84,3.343,3.343,0,0,1-6.643,0,5.147,5.147,0,0,1-1.019-.5A5.5,5.5,0,1,1,24.2,37.174V35.024a3.9,3.9,0,0,0-1.526-3.167,13.257,13.257,0,0,1-4.9-8.663h0Zm3.732.175a2.025,2.025,0,1,0,3.854.358,4.392,4.392,0,0,1-.176-.627.583.583,0,0,1,.583-.583h4.577V18.706a3.188,3.188,0,1,1,0-6.309V9.388A12.1,12.1,0,0,0,18.864,22.518H20.98a.584.584,0,0,1,.517.852h0Zm9.69,9.152a2.025,2.025,0,1,0,.358-3.854,4.392,4.392,0,0,1-.627.176.583.583,0,0,1-.583-.583V23.684H26.523a3.188,3.188,0,1,1-6.309,0H19.02a12.081,12.081,0,0,0,4.372,7.263,5.079,5.079,0,0,1,1.968,4.078v.831h4.974V33.039a.584.584,0,0,1,.852-.517h0Zm9.152-9.69a2.025,2.025,0,1,0-3.854-.358,4.379,4.379,0,0,1,.176.627.583.583,0,0,1-.583.583H31.5v3.811a3.188,3.188,0,1,1,0,6.309v2.051h4.974a6.181,6.181,0,0,1,.5-3.1,5.181,5.181,0,0,1,1.464-1.807,12.083,12.083,0,0,0,4.372-7.263h-1.96a.584.584,0,0,1-.517-.852h0Zm-5.026-.313a3.188,3.188,0,1,1,6.309,0h1.35A12.1,12.1,0,0,0,31.5,9.388v3.774a.582.582,0,0,1-.852.517,2.025,2.025,0,1,0-.358,3.854,4.379,4.379,0,0,1,.627-.176.583.583,0,0,1,.583.583v4.577h3.811Z" transform="translate(412.082 697.094)" fill="#1c54f8" fill-rule="evenodd"></path></g></svg> 