<?xml version="1.0" encoding="UTF-8"?> <svg xmlns="http://www.w3.org/2000/svg" width="90" height="90" viewBox="0 0 90 90" fill="none"><g clip-path="url(#clip0_5_287)"><mask id="mask0_5_287" style="mask-type:luminance" maskUnits="userSpaceOnUse" x="0" y="0" width="90" height="90"><path d="M90 0H0V90H90V0Z" fill="white"></path></mask><g mask="url(#mask0_5_287)"><path d="M21.873 37.746C18.7336 37.746 15.6647 36.8151 13.0544 35.0709C10.4441 33.3268 8.40966 30.8478 7.20827 27.9473C6.00688 25.0469 5.69254 21.8554 6.305 18.7763C6.91747 15.6973 8.42922 12.869 10.6491 10.6491C12.869 8.42922 15.6973 6.91747 18.7763 6.305C21.8554 5.69254 25.0469 6.00688 27.9473 7.20827C30.8478 8.40966 33.3268 10.4441 35.0709 13.0544C36.8151 15.6647 37.746 18.7336 37.746 21.873C37.7337 26.079 36.0575 30.1092 33.0834 33.0834C30.1092 36.0575 26.079 37.7337 21.873 37.746ZM21.873 8.64601C19.257 8.64601 16.6996 9.42176 14.5245 10.8752C12.3493 12.3286 10.654 14.3943 9.65285 16.8113C8.65173 19.2282 8.38979 21.8877 8.90016 24.4535C9.41053 27.0193 10.6703 29.3761 12.5201 31.2259C14.3699 33.0757 16.7268 34.3355 19.2925 34.8459C21.8583 35.3562 24.5178 35.0943 26.9348 34.0932C29.3517 33.092 31.4175 31.3967 32.8709 29.2215C34.3243 27.0464 35.1 24.4891 35.1 21.873C35.0897 18.3682 33.6929 15.0098 31.2145 12.5315C28.7362 10.0532 25.3779 8.6563 21.873 8.64601Z" fill="#1C54F8"></path><path d="M16.581 15.258C16.5703 15.0815 16.5972 14.9047 16.6599 14.7393C16.7226 14.5739 16.8196 14.4237 16.9447 14.2987C17.0698 14.1736 17.2199 14.0765 17.3853 14.0138C17.5507 13.9512 17.7275 13.9243 17.904 13.935H20.55V11.2905H17.904C17.3805 11.2814 16.8605 11.3777 16.375 11.5739C15.8895 11.77 15.4485 12.0619 15.0782 12.4322C14.708 12.8025 14.4161 13.2435 14.2199 13.729C14.0238 14.2145 13.9274 14.7345 13.9365 15.258V19.491C13.9365 19.755 13.9365 20.5485 13.407 20.5485H11.2905V23.1945H13.407C13.9365 23.1945 13.9365 23.988 13.9365 24.252V28.485C13.9274 29.0085 14.0238 29.5286 14.2199 30.0141C14.4161 30.4995 14.708 30.9406 15.0782 31.3108C15.4485 31.6811 15.8895 31.973 16.375 32.1691C16.8605 32.3653 17.3805 32.4617 17.904 32.4525H20.55V29.808H17.904C17.7275 29.8187 17.5507 29.7919 17.3853 29.7292C17.2199 29.6665 17.0698 29.5694 16.9447 29.4443C16.8196 29.3193 16.7226 29.1691 16.6599 29.0037C16.5972 28.8383 16.5703 28.6615 16.581 28.485V24.2535C16.6033 23.3921 16.3237 22.55 15.7905 21.873C16.3059 21.1864 16.5844 20.351 16.584 19.4925L16.581 15.258Z" fill="#1C54F8"></path><path d="M27.1635 15.258C27.1743 15.0815 27.1474 14.9047 27.0847 14.7393C27.022 14.5739 26.9249 14.4237 26.7999 14.2987C26.6748 14.1736 26.5246 14.0765 26.3593 14.0138C26.1939 13.9512 26.0171 13.9243 25.8405 13.935H23.196V11.2905H25.842C26.3656 11.2814 26.8856 11.3777 27.3711 11.5739C27.8566 11.77 28.2976 12.0619 28.6679 12.4322C29.0381 12.8025 29.33 13.2435 29.5262 13.729C29.7223 14.2145 29.8187 14.7345 29.8095 15.258V19.491C29.8095 19.8885 29.8095 20.5485 30.339 20.5485H32.4555V23.1945H30.339C29.8095 23.1945 29.8095 23.988 29.8095 24.252V28.485C29.8187 29.0085 29.7223 29.5286 29.5262 30.0141C29.33 30.4995 29.0381 30.9406 28.6679 31.3108C28.2976 31.6811 27.8566 31.973 27.3711 32.1691C26.8856 32.3653 26.3656 32.4617 25.842 32.4525H23.196V29.808H25.842C26.0186 29.8187 26.1954 29.7919 26.3608 29.7292C26.5261 29.6665 26.6763 29.5694 26.8014 29.4443C26.9264 29.3193 27.0235 29.1691 27.0862 29.0037C27.1489 28.8383 27.1758 28.6615 27.165 28.485V24.2535C27.1436 23.3917 27.4243 22.5496 27.9585 21.873C27.4432 21.1864 27.1647 20.351 27.165 19.4925L27.1635 15.258Z" fill="#1C54F8"></path><path d="M64.464 78.2205L58.644 69.4905L64.464 60.7605L66.5805 62.3475L61.818 69.4905L66.5805 76.6335L64.464 78.2205Z" fill="#1C54F8"></path><path d="M74.517 78.2205L72.4005 76.6335L77.163 69.4905L72.4005 62.3475L74.517 60.7605L80.337 69.4905L74.517 78.2205Z" fill="#1C54F8"></path><path d="M66.8563 77.2313L69.4664 77.6655L72.1145 61.7473L69.5044 61.3131L66.8563 77.2313Z" fill="#1C54F8"></path><path d="M45.681 57.5865C43.3266 57.5865 41.0251 56.8884 39.0675 55.5803C37.1099 54.2723 35.5841 52.4131 34.6831 50.238C33.7821 48.0628 33.5464 45.6693 34.0057 43.3602C34.465 41.051 35.5988 38.9299 37.2636 37.2651C38.9284 35.6003 41.0495 34.4666 43.3586 34.0072C45.6678 33.5479 48.0613 33.7837 50.2364 34.6846C52.4116 35.5856 54.2708 37.1114 55.5788 39.069C56.8868 41.0266 57.585 43.3281 57.585 45.6825C57.5921 47.2478 57.2891 48.7989 56.6934 50.2464C56.0977 51.6939 55.2211 53.009 54.1143 54.1159C53.0075 55.2227 51.6924 56.0992 50.2449 56.6949C48.7974 57.2906 47.2462 57.5937 45.681 57.5865ZM45.681 36.423C43.8496 36.423 42.0594 36.9661 40.5367 37.9835C39.014 39.001 37.8271 40.4471 37.1263 42.1391C36.4255 43.831 36.2421 45.6928 36.5994 47.489C36.9567 49.2851 37.8386 50.935 39.1335 52.23C40.4285 53.5249 42.0784 54.4068 43.8745 54.7641C45.6707 55.1214 47.5325 54.938 49.2244 54.2372C50.9164 53.5363 52.3625 52.3495 53.38 50.8268C54.3974 49.3041 54.9405 47.5139 54.9405 45.6825C54.9481 44.4644 54.7137 43.257 54.2511 42.1301C53.7884 41.0033 53.1066 39.9795 52.2453 39.1182C51.384 38.2568 50.3602 37.5751 49.2334 37.1124C48.1065 36.6498 46.8991 36.4154 45.681 36.423Z" fill="#1C54F8"></path><path d="M50.973 69.4905C50.951 68.8263 50.9953 68.1615 51.105 67.506L50.3115 67.77L48.591 76.104H42.771L41.052 67.638L40.2585 67.374C38.0595 66.8252 35.9611 65.9322 34.041 64.728L33.3795 64.3305L26.2365 69.093L22.1355 64.992L26.898 57.849L26.5005 57.1875C25.3544 55.2419 24.4679 53.1547 23.8635 50.979L23.5995 50.1855L15.2595 48.591V42.771L23.7255 41.052L23.9895 40.2585C23.2892 40.3644 22.581 40.4085 21.873 40.3905C20.2641 40.3837 18.6633 40.1612 17.1135 39.729L12.6135 40.6545V50.7045L21.4755 52.4235C22.0307 54.3058 22.785 56.1236 23.7255 57.846L18.6975 65.529L25.8405 72.672L33.3795 67.6455C35.1019 68.5861 36.9197 69.3403 38.802 69.8955L40.521 78.7575H50.571L51.4965 74.2575C51.1767 72.6879 51.0015 71.0922 50.973 69.4905Z" fill="#1C54F8"></path><path d="M40.2585 23.8635L41.052 23.5995L42.771 15.267H48.591L50.31 23.733L51.1035 23.997C53.3025 24.5458 55.4009 25.4388 57.321 26.643L57.9825 27.0405L65.1255 22.278L69.2265 26.379L64.464 33.513L64.8615 34.1745C66.0114 36.1225 66.901 38.2128 67.5075 40.392L67.7715 41.1855L76.2375 42.9045V48.7245L67.7715 50.4435L67.5075 51.237C68.1453 51.0198 68.8196 50.9301 69.492 50.973C71.1019 50.9795 72.7037 51.202 74.2545 51.6345L78.7545 50.709V40.659L69.8925 38.94C69.3373 37.0577 68.5831 35.2399 67.6425 33.5175L72.669 25.9785L65.529 18.6975L57.99 23.724C56.2676 22.7835 54.4498 22.0292 52.5675 21.474L50.7075 12.6135H40.6575L39.729 17.1135C40.1434 18.668 40.3656 20.2674 40.3905 21.876C40.4127 22.5412 40.3685 23.207 40.2585 23.8635Z" fill="#1C54F8"></path><path d="M69.4904 85.3635C66.3511 85.3635 63.2822 84.4326 60.6719 82.6884C58.0616 80.9443 56.0271 78.4653 54.8257 75.5648C53.6243 72.6644 53.31 69.4729 53.9224 66.3938C54.5349 63.3148 56.0467 60.4865 58.2665 58.2666C60.4864 56.0467 63.3147 54.535 66.3938 53.9225C69.4728 53.31 72.6644 53.6244 75.5648 54.8258C78.4652 56.0272 80.9442 58.0616 82.6884 60.6719C84.4325 63.2822 85.3634 66.3511 85.3634 69.4905C85.3512 73.6965 83.6749 77.7268 80.7008 80.7009C77.7267 83.675 73.6964 85.3512 69.4904 85.3635ZM69.4904 56.2635C66.8744 56.2635 64.3171 57.0393 62.1419 58.4927C59.9667 59.9461 58.2714 62.0118 57.2703 64.4288C56.2692 66.8457 56.0072 69.5052 56.5176 72.071C57.028 74.6368 58.2877 76.9936 60.1375 78.8434C61.9874 80.6932 64.3442 81.953 66.91 82.4634C69.4758 82.9737 72.1353 82.7118 74.5522 81.7107C76.9691 80.7095 79.0349 79.0142 80.4883 76.839C81.9417 74.6639 82.7174 72.1066 82.7174 69.4905C82.7072 65.9857 81.3103 62.6273 78.832 60.149C76.3537 57.6707 72.9953 56.2738 69.4904 56.2635Z" fill="#1C54F8"></path></g></g><defs><clipPath id="clip0_5_287"><rect width="90" height="90" fill="white"></rect></clipPath></defs></svg> 