<?xml version="1.0" encoding="UTF-8"?> <svg xmlns="http://www.w3.org/2000/svg" xmlns:xlink="http://www.w3.org/1999/xlink" width="60" height="60" viewBox="0 0 60 60"><defs><clipPath id="clip-path"><rect id="Rectangle_790" data-name="Rectangle 790" width="60" height="60" transform="translate(511 46)" fill="#fff" stroke="#707070" stroke-width="1"></rect></clipPath></defs><g id="Mask_Group_74" data-name="Mask Group 74" transform="translate(-511 -46)" clip-path="url(#clip-path)"><g id="Group_83" data-name="Group 83" transform="translate(99.6 -64)"><g id="Group_82" data-name="Group 82" transform="translate(422.4 113)"><path id="Path_114" data-name="Path 114" d="M50.762,83.3H43.094a.562.562,0,0,0-.594.594.6.6,0,0,0,.594.594h7.668a.594.594,0,1,0,0-1.189Z" transform="translate(-27.581 -36.759)" fill="#1c54f8"></path><path id="Path_115" data-name="Path 115" d="M55.976,28.954l-3.507-3.507V11.538A6.519,6.519,0,0,0,45.931,5H27.564a6.519,6.519,0,0,0-6.538,6.538V25.507l-3.447,3.447a.575.575,0,0,0,0,.832l3.507,3.507V51.363A7.154,7.154,0,0,0,28.218,58.5H45.4a7.154,7.154,0,0,0,7.133-7.133V33.234l3.447-3.447A.575.575,0,0,0,55.976,28.954ZM22.215,11.538a5.327,5.327,0,0,1,5.35-5.35H45.931a5.327,5.327,0,0,1,5.35,5.35v1.01H22.215ZM45.4,57.306H28.158a5.961,5.961,0,0,1-5.944-5.944v-4.4H51.28v4.4h.059A5.961,5.961,0,0,1,45.4,57.306Zm-.119-18.486a.59.59,0,0,0,.773.892l.059-.059,5.231-5.231V45.775H22.215V34.482l5.171,5.171a.574.574,0,0,0,.832-.059.625.625,0,0,0,0-.773L18.827,29.37l9.451-9.451a.574.574,0,0,0-.059-.832.625.625,0,0,0-.773,0l-5.231,5.231V13.738H51.28V24.258l-5.171-5.171a.574.574,0,0,0-.832.059.625.625,0,0,0,0,.773l9.451,9.451Z" transform="translate(-17.4 -5)" fill="#1c54f8"></path></g></g></g></svg> 