<?xml version="1.0" encoding="UTF-8"?> <svg xmlns="http://www.w3.org/2000/svg" width="91" height="91" viewBox="0 0 91 91" fill="none"><mask id="mask0_2_325" style="mask-type:luminance" maskUnits="userSpaceOnUse" x="0" y="0" width="91" height="91"><path d="M90.07 0.690002H0.0700073V90.69H90.07V0.690002Z" fill="white"></path></mask><g mask="url(#mask0_2_325)"><path d="M45.07 56.93C50.65 56.93 55.19 52.39 55.19 46.81V28.81C55.19 23.23 50.65 18.69 45.07 18.69C39.49 18.69 34.95 23.23 34.95 28.81V46.81C34.95 52.39 39.49 56.93 45.07 56.93ZM37.2 28.81C37.2 24.47 40.73 20.94 45.07 20.94C49.41 20.94 52.94 24.47 52.94 28.81V46.81C52.94 51.15 49.41 54.68 45.07 54.68C40.73 54.68 37.2 51.15 37.2 46.81V28.81Z" fill="#1B54F8"></path><path d="M59.79 45.69C59.17 45.69 58.67 46.19 58.67 46.81C58.67 54.3 52.57 60.4 45.08 60.4C37.59 60.4 31.49 54.3 31.49 46.81C31.49 46.19 30.99 45.69 30.37 45.69C29.75 45.69 29.25 46.19 29.25 46.81C29.25 55.16 35.76 62.01 43.97 62.59V70.43H38.35C37.73 70.43 37.23 70.93 37.23 71.55C37.23 72.17 37.73 72.67 38.35 72.67H51.85C52.47 72.67 52.97 72.17 52.97 71.55C52.97 70.93 52.47 70.43 51.85 70.43H46.23V62.59C54.44 62.01 60.95 55.16 60.95 46.81C60.91 46.19 60.41 45.69 59.79 45.69Z" fill="#1B54F8"></path><path d="M88.94 46.81C89.56 46.81 90.06 46.31 90.06 45.69C90.06 45.07 89.56 44.57 88.94 44.57H78.82V28.82H84.68C85.11 29.81 86.1 30.51 87.25 30.51C88.8 30.51 90.06 29.25 90.06 27.7C90.06 26.15 88.8 24.89 87.25 24.89C86.1 24.89 85.11 25.59 84.68 26.58H78.82V17.58C78.82 14.48 76.3 11.96 73.2 11.96H64.21V1.84C64.21 1.22 63.71 0.720001 63.09 0.720001C62.47 0.720001 61.97 1.22 61.97 1.84V11.96H46.2V1.84C46.2 1.22 45.7 0.720001 45.08 0.720001C44.46 0.720001 43.96 1.22 43.96 1.84V11.96H28.2V6.10001C29.19 5.67001 29.89 4.68 29.89 3.53C29.89 1.98 28.63 0.720001 27.08 0.720001C25.53 0.720001 24.27 1.98 24.27 3.53C24.27 4.68 24.96 5.67001 25.96 6.10001V11.96H16.96C13.86 11.96 11.34 14.48 11.34 17.58V26.58H1.20001C0.580012 26.58 0.0800171 27.08 0.0800171 27.7C0.0800171 28.32 0.580012 28.82 1.20001 28.82H11.32V44.57H1.20001C0.580012 44.57 0.0800171 45.07 0.0800171 45.69C0.0800171 46.31 0.580012 46.81 1.20001 46.81H11.32V62.56H5.46002C5.03002 61.57 4.04001 60.87 2.89001 60.87C1.34001 60.87 0.0800171 62.13 0.0800171 63.68C0.0800171 65.23 1.34001 66.49 2.89001 66.49C4.04001 66.49 5.03002 65.8 5.46002 64.8H11.32V73.8C11.32 76.9 13.84 79.42 16.94 79.42H25.94V85.29C24.95 85.73 24.26 86.71 24.26 87.86C24.26 89.41 25.52 90.67 27.07 90.67C28.62 90.67 29.88 89.41 29.88 87.86C29.88 86.71 29.18 85.72 28.19 85.28V79.41H43.94V89.53C43.94 90.15 44.44 90.65 45.06 90.65C45.68 90.65 46.18 90.15 46.18 89.53V79.41H61.93V89.53C61.93 90.15 62.43 90.65 63.05 90.65C63.67 90.65 64.17 90.15 64.17 89.53V79.41H73.17C76.27 79.41 78.79 76.89 78.79 73.79V64.79H88.91C89.53 64.79 90.03 64.29 90.03 63.67C90.03 63.05 89.53 62.55 88.91 62.55H78.79V46.8H88.94V46.81ZM76.57 73.81C76.57 75.67 75.06 77.18 73.2 77.18H16.96C15.1 77.18 13.59 75.67 13.59 73.81V17.57C13.59 15.71 15.1 14.2 16.96 14.2H73.2C75.06 14.2 76.57 15.71 76.57 17.57V73.81Z" fill="#1B54F8"></path></g></svg> 