<?xml version="1.0" encoding="UTF-8"?> <svg xmlns="http://www.w3.org/2000/svg" xmlns:xlink="http://www.w3.org/1999/xlink" width="60" height="60" viewBox="0 0 60 60"><defs><clipPath id="clip-path"><rect id="Rectangle_163" data-name="Rectangle 163" width="60" height="60" transform="translate(539 1460)" fill="#fff" stroke="#707070" stroke-width="1"></rect></clipPath></defs><g id="Mask_Group_62" data-name="Mask Group 62" transform="translate(-539 -1460)" clip-path="url(#clip-path)"><g id="Group_133" data-name="Group 133" transform="translate(-4 -115.006)"><g id="Group_132" data-name="Group 132" transform="translate(547 1579.006)"><path id="Path_546" data-name="Path 546" d="M24.086,21.906a.843.843,0,0,1,.317.669v5.081a2.642,2.642,0,0,0,1.541,2.4v.026A4.615,4.615,0,0,0,30.566,34.7a4.628,4.628,0,0,0,4.623-4.623v-.026a2.642,2.642,0,0,0,1.541-2.4V22.575a.85.85,0,0,1,.308-.669A10.548,10.548,0,0,0,37.611,5.7,10.563,10.563,0,1,0,24.086,21.906Zm6.481,11.033A2.821,2.821,0,0,1,27.731,30.3h5.679A2.867,2.867,0,0,1,30.566,32.939Zm4.4-5.283a.883.883,0,0,1-.881.881H27.044a.883.883,0,0,1-.881-.881v-3.5h8.805ZM21.823,12.528a8.82,8.82,0,0,1,7.731-7.7,8.047,8.047,0,0,1,1.021-.062A8.691,8.691,0,0,1,36.44,7.007a8.795,8.795,0,0,1-.475,13.507A2.608,2.608,0,0,0,35,22.39H31.447V19.317l2.245-1.5a.883.883,0,1,0-.977-1.471l-2.149,1.444-2.157-1.435a.883.883,0,1,0-.977,1.471l2.245,1.5V22.4h-3.54a2.57,2.57,0,0,0-.977-1.876A8.784,8.784,0,0,1,21.823,12.528Z" transform="translate(-5.031 -3.006)" fill="#1c54f8" stroke="#fff" stroke-width="0.4"></path><path id="Path_547" data-name="Path 547" d="M52.715,34a4.182,4.182,0,0,0-5.75.282l-8.506,8.5a4.128,4.128,0,0,0-3.689-2.316H14.517V38.907a2.514,2.514,0,0,0-2.51-2.51H5.51A2.514,2.514,0,0,0,3,38.907V55.144a2.514,2.514,0,0,0,2.51,2.51h6.507a2.514,2.514,0,0,0,2.51-2.51V53.586H37.165a4.908,4.908,0,0,0,3.5-1.444L52.891,39.929a4.112,4.112,0,0,0,1.2-2.994A4.16,4.16,0,0,0,52.715,34ZM12.756,55.144a.748.748,0,0,1-.748.748H5.51a.748.748,0,0,1-.748-.748V38.907a.748.748,0,0,1,.748-.748h6.507a.748.748,0,0,1,.748.748V55.144ZM51.632,38.687,39.4,50.9a3.17,3.17,0,0,1-2.254.933H14.517V42.227H34.77a2.362,2.362,0,0,1,2.36,2.281v.009a.211.211,0,0,0,.009.079,2.375,2.375,0,0,1-2.369,2.369h-11.7a.881.881,0,1,0,0,1.761h11.7a4.129,4.129,0,0,0,4.1-3.866l9.334-9.325a2.448,2.448,0,0,1,3.328-.211,2.289,2.289,0,0,1,.775,1.664A2.331,2.331,0,0,1,51.632,38.687Z" transform="translate(-3 -6.588)" fill="#1c54f8" stroke="#fff" stroke-width="0.4"></path></g></g></g></svg> 