<?xml version="1.0" encoding="UTF-8"?> <svg xmlns="http://www.w3.org/2000/svg" id="Layer_1" data-name="Layer 1" viewBox="0 0 80 80"><defs><style>.cls-1{fill:#1b54f8;}</style></defs><g id="Custom-CMS-Development"><g id="Group-30"><path id="Shape" class="cls-1" d="M59.15,56.7A5.18,5.18,0,1,0,54,51.52a5.18,5.18,0,0,0,5.18,5.18Zm0-8.39a3.21,3.21,0,1,1-3.21,3.21,3.21,3.21,0,0,1,3.21-3.21Z"></path><path id="Path" class="cls-1" d="M59.33,33.75a1,1,0,0,0-1-1H44.52a1,1,0,1,0,0,2H58.34A1,1,0,0,0,59.33,33.75Z"></path><path id="Path-2" data-name="Path" class="cls-1" d="M58.34,20.92H44.52a1,1,0,0,0,0,2H58.34a1,1,0,0,0,0-2Z"></path><path id="Shape-2" data-name="Shape" class="cls-1" d="M19.84,33.75h0V34l.06.18a.54.54,0,0,0,.07.13v0h0a.8.8,0,0,0,.15.17l.05,0,.12.09.07,0,.15.06h.06a.75.75,0,0,0,.26.05H38.6l.22,0h.06l.15-.06.06,0,.13-.09.05,0a.75.75,0,0,0,.15-.16h0v0a.54.54,0,0,0,.07-.13c0-.06,0-.12,0-.18a.43.43,0,0,0,0-.16l.05-.07h0V21.91h0v-.19l-.06-.19-.09-.11v0h0l-.12-.15-.08-.06-.07-.06-.1,0L39,21l-.12,0H20.64l-.13,0h-.05l-.11.06-.06,0-.09.08-.05,0a.64.64,0,0,0-.13.15h0v0l-.07.13c0,.06,0,.13-.05.19v.15l-.06,0h0Zm17.77-1.84L31.5,27.83l6.11-4.07Zm-2.27.86H24.09L29.72,29Zm-5.62-6.12L24.09,22.9H35.34Zm-1.79,1.18-6.11,4.08V23.76Z"></path><path id="Path-3" data-name="Path" class="cls-1" d="M53.9,39.68a1,1,0,0,0-1-1H20.83a1,1,0,1,0,0,2H52.91A1,1,0,0,0,53.9,39.68Z"></path><path id="Path-4" data-name="Path" class="cls-1" d="M20.83,44.61a1,1,0,1,0,0,2H38.6a1,1,0,0,0,0-2Z"></path><path id="Path-5" data-name="Path" class="cls-1" d="M58.34,26.84H44.52a1,1,0,0,0,0,2H58.34a1,1,0,0,0,0-2Z"></path><path id="Shape-3" data-name="Shape" class="cls-1" d="M12.2,56.46H47a.8.8,0,0,0,.3-.06,12.42,12.42,0,0,0,1.85,3.14,1,1,0,0,0,1,.35l2.47-.55a10.33,10.33,0,0,0,3,1.76l.77,2.43a1,1,0,0,0,.79.68,13.21,13.21,0,0,0,3.87,0,1,1,0,0,0,.8-.68l.77-2.42a10.44,10.44,0,0,0,3-1.77l2.47.55a1,1,0,0,0,1-.34,12.68,12.68,0,0,0,1.94-3.36,1,1,0,0,0-.19-1L69.2,53.28a10.4,10.4,0,0,0,0-3.52l1.72-1.88a1,1,0,0,0,.19-1,12.47,12.47,0,0,0-1.94-3.35,1,1,0,0,0-1-.35l-2.47.55a10.33,10.33,0,0,0-3-1.76l-.77-2.43a1,1,0,0,0-.79-.68,13.21,13.21,0,0,0-3.87,0,1,1,0,0,0-.79.68l-.77,2.43a10.55,10.55,0,0,0-3,1.76l-2.47-.54a1,1,0,0,0-1,.34,12.68,12.68,0,0,0-1.94,3.36,1,1,0,0,0,.19,1l1.72,1.89a10.34,10.34,0,0,0,0,3.51l-1.4,1.53a1,1,0,0,0-.76-.33H12.2a2.53,2.53,0,0,1-2.11-2H46.5a1,1,0,0,0,0-2H16.85a1,1,0,0,1-1-1V17.93a1,1,0,0,1,1-1H62.31a1,1,0,0,1,1,1V38.2a1,1,0,0,0,2,0V17.93A3,3,0,0,0,62.32,15H16.85a3,3,0,0,0-2.93,2.93V49.58a2.8,2.8,0,0,0,.17,1H9a1,1,0,0,0-1,1v.25C8,54,9.8,56.46,12.2,56.46Zm38.94-3.1a8.12,8.12,0,0,1,0-3.67,1,1,0,0,0-.23-.89L49.27,47a10.84,10.84,0,0,1,1-1.8l2.36.53a1,1,0,0,0,.88-.24,8.2,8.2,0,0,1,3.18-1.84,1,1,0,0,0,.65-.65l.72-2.3a10.33,10.33,0,0,1,2.08,0l.72,2.3a1,1,0,0,0,.65.65,8.33,8.33,0,0,1,3.2,1.83,1,1,0,0,0,.88.24L68,45.22A11.08,11.08,0,0,1,69,47L67.41,48.8a1,1,0,0,0-.23.88,8.42,8.42,0,0,1,0,3.67,1,1,0,0,0,.23.89L69,56a11,11,0,0,1-1,1.79l-2.36-.52a1,1,0,0,0-.88.24,8.27,8.27,0,0,1-3.18,1.84,1,1,0,0,0-.65.65l-.73,2.3a10.23,10.23,0,0,1-2.07,0L57.4,60a1,1,0,0,0-.65-.65,8.27,8.27,0,0,1-3.18-1.84,1,1,0,0,0-.88-.24l-2.36.52a11,11,0,0,1-1-1.79l1.63-1.78a1,1,0,0,0,.22-.88Z"></path></g></g></svg> 