<?xml version="1.0" encoding="UTF-8"?> <!-- Generator: Adobe Illustrator 25.3.1, SVG Export Plug-In . SVG Version: 6.00 Build 0) --> <svg xmlns="http://www.w3.org/2000/svg" xmlns:xlink="http://www.w3.org/1999/xlink" version="1.1" id="Layer_1" x="0px" y="0px" viewBox="0 0 56 56" style="enable-background:new 0 0 56 56;" xml:space="preserve"> <style type="text/css"> .st0{fill:none;stroke:#1B54F8;stroke-width:2;stroke-miterlimit:10;} .st1{fill:#1B54F8;stroke:#1B54F8;stroke-width:0.75;stroke-miterlimit:10;} </style> <path class="st0" d="M39,14.7H17c-1.5,0-2.8,1.2-2.8,2.7c0,0,0,0,0,0v22.1c0,1.5,1.2,2.8,2.7,2.8c0,0,0,0,0,0h22 c1.5,0,2.8-1.2,2.8-2.7c0,0,0,0,0,0V17.5C41.8,15.9,40.5,14.7,39,14.7C39,14.7,39,14.7,39,14.7z"></path> <path class="st1" d="M49,32.4c0.3,0,0.5-0.2,0.5-0.5V29H54c0.3-0.1,0.5-0.4,0.4-0.7c-0.1-0.2-0.2-0.3-0.4-0.4h-4.5v-2.8 c0-0.3-0.2-0.5-0.5-0.5h-2.8v-2.2H49c0.3,0,0.5-0.2,0.5-0.5v-2.8H54c0.3,0,0.5-0.2,0.5-0.5c0-0.3-0.2-0.6-0.5-0.6c0,0,0,0,0,0h-4.5 v-2.8c0-0.3-0.2-0.5-0.5-0.6h-2.8V13c0-1.5-1.2-2.8-2.8-2.8h-1.7V7.5c0-0.3-0.3-0.5-0.5-0.5h-2.8V2.5c0-0.3-0.2-0.5-0.5-0.5h0 c-0.3,0-0.5,0.2-0.5,0.5V7h-2.8c-0.3,0-0.5,0.2-0.5,0.6v2.8h-2.2V7.5c0-0.3-0.3-0.5-0.6-0.5h-2.8V2.5C28.5,2.2,28.3,2,28,2 c-0.3,0-0.5,0.2-0.5,0.6l0,0V7h-2.8c-0.3,0-0.5,0.2-0.5,0.6v2.8h-2.2V7.5c0-0.3-0.3-0.5-0.6-0.5h-2.8V2.5c0-0.3-0.2-0.5-0.5-0.5 c0,0,0,0,0,0c-0.3,0-0.5,0.2-0.5,0.5V7h-2.8c-0.3,0-0.6,0.2-0.6,0.5v0v2.8h-1.7c-1.5,0-2.7,1.2-2.8,2.7v1.7H7 c-0.3,0-0.6,0.2-0.6,0.6l0,0V18H2c-0.3,0-0.5,0.2-0.5,0.5c0,0.3,0.2,0.5,0.5,0.5h4.4v2.8c0,0.3,0.2,0.5,0.6,0.5h2.8v2.2H7 c-0.3,0-0.5,0.2-0.6,0.5V28H2c-0.3,0-0.6,0.2-0.6,0.5c0,0.3,0.2,0.6,0.6,0.6h4.4v2.8c0,0.3,0.2,0.5,0.6,0.5h2.8v2.2H7 c-0.3,0-0.5,0.2-0.6,0.5v2.8H2c-0.3,0-0.5,0.2-0.5,0.5C1.5,38.8,1.7,39,2,39h4.4v2.8c0,0.3,0.3,0.5,0.5,0.5h2.8V44 c0,1.5,1.2,2.8,2.8,2.8h1.7v2.8c0,0.3,0.2,0.5,0.6,0.5h2.8v4.4c0,0.3,0.2,0.5,0.5,0.5s0.5-0.2,0.5-0.5V50h2.8c0.3,0,0.5-0.2,0.5-0.5 v-2.7h2.2v2.8c0,0.3,0.2,0.5,0.5,0.5h2.8v4.4c0,0.3,0.2,0.5,0.5,0.5c0.3,0,0.6-0.2,0.6-0.5V50h2.8c0.3,0,0.5-0.2,0.5-0.5v-2.7h2.2 v2.8c0,0.3,0.2,0.5,0.5,0.5h2.8v4.4c0,0.3,0.2,0.5,0.5,0.5s0.5-0.2,0.5-0.5V50h2.8c0.3,0,0.5-0.2,0.5-0.5v-2.7h1.7 c1.5,0,2.7-1.2,2.8-2.7v-1.7H49c0.3,0,0.5-0.2,0.5-0.5V39H54c0.3,0,0.5-0.2,0.5-0.5s-0.2-0.5-0.5-0.5h-4.5v-2.8 c0-0.3-0.2-0.5-0.5-0.5h-2.8v-2.2H49z M46.2,15.8h2.2v5.5h-2.2V15.8z M46.2,25.7h2.2v5.5h-2.2V25.7z M9.8,41.2H7.6v-5.5h2.2V41.2z M9.8,31.3H7.6v-5.5h2.2V31.3z M9.8,21.3H7.6v-5.5h2.2V21.3z M35.2,8.1h5.5v2.2h-5.5V8.1z M25.2,8.1h5.5v2.2h-5.5L25.2,8.1z M15.3,8.1h5.5v2.2h-5.5L15.3,8.1z M20.8,48.9h-5.5v-2.2h5.5L20.8,48.9z M30.8,48.9h-5.5v-2.2h5.5L30.8,48.9z M40.7,48.9h-5.5v-2.2 h5.5V48.9z M45.1,43.9c0,0.9-0.7,1.7-1.6,1.7h0H12.5c-0.9,0-1.6-0.7-1.6-1.6V13c0-0.9,0.7-1.6,1.6-1.6h30.9c0.9,0,1.7,0.7,1.7,1.6v0 V43.9z M48.4,35.7v5.5h-2.2v-5.5L48.4,35.7z"></path> </svg> 