<?xml version="1.0" encoding="UTF-8"?> <!-- Generator: Adobe Illustrator 25.2.3, SVG Export Plug-In . SVG Version: 6.00 Build 0) --> <svg xmlns="http://www.w3.org/2000/svg" xmlns:xlink="http://www.w3.org/1999/xlink" version="1.1" id="Layer_1" x="0px" y="0px" viewBox="0 0 80 80" style="enable-background:new 0 0 80 80;" xml:space="preserve"> <style type="text/css"> .st0{fill:#1B54F8;} .st1{font-family:'MyriadPro-Regular';} .st2{font-size:12px;} </style> <path class="st0" d="M40,33.2c-7.5,0-13.6,6-13.6,13.5s6,13.6,13.5,13.6c7.5,0,13.6-6,13.6-13.5c0,0,0-0.1,0-0.1 C53.4,39.2,47.4,33.2,40,33.2z M32.8,55.2c1.7-4,6.3-5.8,10.3-4.1c1.8,0.8,3.3,2.2,4.1,4.1c-2,1.7-4.5,2.7-7.2,2.8 C37.4,57.8,34.8,56.9,32.8,55.2L32.8,55.2z M49,53.2c-1.9-3.2-5.3-5.2-9-5.2c-3.7,0-7.1,2-9,5.2c-1.4-1.9-2.1-4.1-2.1-6.4 c0-6.1,5-11.1,11.1-11.1S51,40.6,51,46.8C51,49.1,50.3,51.3,49,53.2L49,53.2z"></path> <path class="st0" d="M40,36.9c-3,0-5.4,2.4-5.4,5.4s2.4,5.4,5.4,5.4s5.4-2.4,5.4-5.4v0C45.5,39.3,43,36.9,40,36.9 C40,36.9,40,36.9,40,36.9z M40,45.3c-1.7,0-3-1.3-3-3s1.3-3,3-3s3,1.3,3,3S41.7,45.3,40,45.3z"></path> <path class="st0" d="M79,41.9h-7.2c-0.6,0-1.2,0.4-1.2,1.1c0,0.1,0,0.1,0,0.2v2.3h-3.7v-14c0-2.1-1.7-3.7-3.7-3.7h-8.3V16.7h11.9 v2.4c0,0.7,0.5,1.2,1.1,1.2c0.1,0,0.1,0,0.2,0h7.2c0.6,0,1.2-0.5,1.2-1.1c0,0,0-0.1,0-0.1v-7.2c0-0.6-0.5-1.2-1.1-1.2 c0,0-0.1,0-0.1,0H68c-0.6,0-1.2,0.5-1.2,1.1c0,0,0,0.1,0,0.1v2.3H53.6c-0.6,0-1.2,0.5-1.2,1.1c0,0,0,0.1,0,0.1v12.4H40.9V9.4 C43,8.9,44.5,7,44.4,4.8c0-2.7-2.2-4.8-4.8-4.8c-2.6,0-4.8,2.1-4.8,4.7c0,0,0,0.1,0,0.1c0,2.2,1.5,4.1,3.6,4.6v18.3h-11V15.3 c0-0.6-0.5-1.2-1.1-1.2c0,0-0.1,0-0.1,0H13v-2.4c0-0.6-0.4-1.2-1.1-1.2c-0.1,0-0.1,0-0.2,0H4.6c-0.6,0-1.2,0.5-1.2,1.1 c0,0,0,0.1,0,0.1v7.2c0,0.6,0.5,1.2,1.1,1.2c0,0,0.1,0,0.1,0h7.2c0.6,0,1.2-0.5,1.2-1.1c0,0,0-0.1,0-0.1v-2.4h11.9v11.1H17 c-2,0-3.7,1.7-3.7,3.7v14h-4c-0.5-2.1-2.4-3.6-4.6-3.6c-2.6,0-4.8,2.2-4.8,4.8c0,1.3,0.5,2.5,1.4,3.4c1.3,1.4,3.4,1.8,5.2,1 c1.4-0.6,2.4-1.8,2.8-3.2h4V63h-5c-0.4,0-0.8,0.2-1,0.5c-0.3,0.3-0.4,0.7-0.2,1.1l1.7,6.6C9,71.7,9.5,72.1,10,72h59.8 c0.5,0,1-0.4,1.2-0.9l1.7-6.6c0.1-0.4,0-0.8-0.2-1.1c-0.3-0.3-0.6-0.5-1-0.5h-4.8V48h3.7v2.3c0,0.7,0.5,1.2,1.1,1.2c0,0,0.1,0,0.1,0 h7.2c0.6,0,1.2-0.5,1.2-1.1c0,0,0-0.1,0-0.1v-7.2c0.1-0.5-0.2-1.1-0.7-1.2C79.2,41.9,79.1,41.9,79,41.9z M69.3,13.1H74v4.7h-4.7 L69.3,13.1z M37.3,4.8c0-1.3,1.1-2.3,2.4-2.3C41,2.5,42,3.5,42,4.8c0,1.3-1.1,2.3-2.3,2.3C38.4,7.2,37.3,6.1,37.3,4.8L37.3,4.8z M10.6,17.8H5.8v-4.7h4.7L10.6,17.8z M5.5,48.9c-1.2,0.5-2.5,0-3-1.2c-0.1-0.3-0.2-0.6-0.2-0.9c0-1.3,1.1-2.3,2.3-2.3 c1.3,0,2.3,1.1,2.4,2.3C7,47.7,6.4,48.6,5.5,48.9z M68.9,69.8H11l-1.1-4.1h60L68.9,69.8z M15.6,63.2V31.5c0-0.7,0.6-1.2,1.2-1.2l0,0 H63c0.7,0,1.2,0.6,1.2,1.2v31.7H15.6z M77.7,49.1H73v-4.7h4.7L77.7,49.1z"></path> <text transform="matrix(1 0 0 1 -25.79 -17.34)" class="st1 st2">C</text> <text transform="matrix(1 0 0 1 -18.97 -17.34)" class="st1 st2">us</text> <text transform="matrix(1 0 0 1 -7.61 -17.34)" class="st1 st2">t</text> <text transform="matrix(1 0 0 1 -3.71 -17.34)" class="st1 st2">omer Expe</text> <text transform="matrix(1 0 0 1 49.67 -17.34)" class="st1 st2">r</text> <text transform="matrix(1 0 0 1 53.64 -17.34)" class="st1 st2">ien</text> <text transform="matrix(1 0 0 1 69.12 -17.34)" class="st1 st2">c</text> <text transform="matrix(1 0 0 1 74.42 -17.34)" class="st1 st2">e </text> <text transform="matrix(1 0 0 1 -25.79 -2.94)" class="st1 st2">T</text> <text transform="matrix(1 0 0 1 -20.37 -2.94)" class="st1 st2">r</text> <text transform="matrix(1 0 0 1 -16.5 -2.94)" class="st1 st2">ans</text> <text transform="matrix(1 0 0 1 0.69 -2.94)" class="st1 st2">f</text> <text transform="matrix(1 0 0 1 4.04 -2.94)" class="st1 st2">o</text> <text transform="matrix(1 0 0 1 10.63 -2.94)" class="st1 st2">r</text> <text transform="matrix(1 0 0 1 14.6 -2.94)" class="st1 st2">m</text> <text transform="matrix(1 0 0 1 24.61 -2.94)" class="st1 st2">a</text> <text transform="matrix(1 0 0 1 30.35 -2.94)" class="st1 st2">tion</text> </svg> 