<?xml version="1.0" encoding="UTF-8"?> <svg xmlns="http://www.w3.org/2000/svg" width="60" height="60" viewBox="0 0 60 60" fill="none"><mask id="mask0_5_333" style="mask-type:alpha" maskUnits="userSpaceOnUse" x="0" y="0" width="60" height="60"><rect width="60" height="60" fill="#D9D9D9"></rect></mask><g mask="url(#mask0_5_333)"><path fill-rule="evenodd" clip-rule="evenodd" d="M43.6667 2.0069V5.38592C44.37 4.97267 45.1723 4.74948 45.992 4.73902C47.1364 4.75292 48.2292 5.20873 49.0335 6.00767C49.8378 6.80662 50.2888 7.88433 50.2888 9.00728C50.2888 10.1302 49.8378 11.2079 49.0335 12.0069C48.2292 12.8058 47.1364 13.2616 45.992 13.2755C45.1723 13.2648 44.3701 13.0416 43.6667 12.6286V16.0351H48.3193C48.5868 16.0353 48.8432 16.1396 49.0324 16.3252C49.2215 16.5107 49.3278 16.7623 49.328 17.0248C49.328 18.9785 48.492 19.1479 48.492 20.2991C48.492 20.9063 48.7378 21.4886 49.1754 21.9179C49.613 22.3472 50.2065 22.5884 50.8253 22.5884C51.4442 22.5884 52.0377 22.3472 52.4752 21.9179C52.9128 21.4886 53.1587 20.9063 53.1587 20.2991C53.1587 19.1479 52.3233 18.9785 52.3233 17.0248C52.3233 16.8947 52.3495 16.7659 52.4002 16.6457C52.451 16.5256 52.5254 16.4164 52.6192 16.3245C52.713 16.2326 52.8244 16.1597 52.9469 16.1101C53.0694 16.0604 53.2008 16.035 53.3333 16.0351H57.9647C57.7214 12.393 56.1369 8.96188 53.5064 6.381C50.8759 3.80012 47.3788 2.24554 43.6667 2.0069ZM12.92 28.9606H17.5633C17.6958 28.9606 17.8269 28.9862 17.9492 29.0359C18.0716 29.0856 18.1827 29.1585 18.2763 29.2505C18.3699 29.3424 18.4442 29.4515 18.4948 29.5715C18.5454 29.6916 18.5714 29.8203 18.5713 29.9502V31.3761C19.7469 31.6778 20.8747 32.1362 21.9233 32.7386L22.9513 31.73C23.0449 31.6381 23.1561 31.5651 23.2784 31.5154C23.4008 31.4657 23.5319 31.4401 23.6643 31.4401C23.7968 31.4401 23.9279 31.4657 24.0502 31.5154C24.1726 31.5651 24.2837 31.6381 24.3773 31.73L27.66 34.9507C27.7537 35.0425 27.828 35.1516 27.8787 35.2716C27.9294 35.3917 27.9555 35.5203 27.9555 35.6502C27.9555 35.7802 27.9294 35.9088 27.8787 36.0289C27.828 36.1489 27.7537 36.2579 27.66 36.3498L26.632 37.3584C27.2461 38.387 27.7132 39.4936 28.02 40.6471H29.474C29.6064 40.6471 29.7376 40.6726 29.8599 40.7222C29.9823 40.7719 30.0935 40.8447 30.1872 40.9366C30.2809 41.0284 30.3552 41.1375 30.4059 41.2575C30.4566 41.3775 30.4827 41.5062 30.4827 41.6361V46.1918C30.4827 46.3218 30.4566 46.4504 30.4059 46.5705C30.3552 46.6905 30.2809 46.7995 30.1872 46.8914C30.0935 46.9832 29.9823 47.0561 29.8599 47.1057C29.7376 47.1554 29.6064 47.1809 29.474 47.1808H28.02C27.7132 48.3343 27.2461 49.4409 26.632 50.4696L27.66 51.4769C27.7537 51.5687 27.828 51.6778 27.8787 51.7978C27.9294 51.9178 27.9555 52.0465 27.9555 52.1764C27.9555 52.3064 27.9294 52.435 27.8787 52.555C27.828 52.6751 27.7537 52.7841 27.66 52.876L27.1013 53.4241C27.596 53.7097 28.1607 53.8573 28.7347 53.8512H36.8593C37.6852 53.8483 38.4765 53.5251 39.0606 52.9522C39.6446 52.3793 39.9742 51.603 39.9773 50.7927V47.7348H32.81C32.6754 47.7382 32.5415 47.7152 32.4161 47.667C32.2907 47.6188 32.1765 47.5465 32.0801 47.4543C31.9836 47.362 31.907 47.2518 31.8547 47.1301C31.8024 47.0084 31.7754 46.8776 31.7754 46.7455C31.7754 46.6134 31.8024 46.4827 31.8547 46.3609C31.907 46.2392 31.9836 46.129 32.0801 46.0368C32.1765 45.9446 32.2907 45.8723 32.4161 45.8241C32.5415 45.7759 32.6754 45.7528 32.81 45.7562H40.016C40.6 38.4141 47.58 35.7899 48.1153 27.6681H44.672C45.0941 28.3581 45.3223 29.1455 45.3333 29.9502C45.3333 31.0821 44.875 32.1677 44.0592 32.9681C43.2435 33.7685 42.137 34.2181 40.9833 34.2181C39.8296 34.2181 38.7232 33.7685 37.9074 32.9681C37.0916 32.1677 36.6333 31.0821 36.6333 29.9502C36.644 29.146 36.8713 28.3589 37.292 27.6687H32.812C32.6786 27.6693 32.5463 27.6438 32.423 27.5938C32.2997 27.5438 32.1877 27.4703 32.0936 27.3775C31.9994 27.2847 31.925 27.1745 31.8746 27.0532C31.8242 26.932 31.7988 26.8022 31.8 26.6712C31.8001 26.6275 31.803 26.5838 31.8087 26.5404V21.1115C31.8087 20.8492 31.9149 20.5977 32.1039 20.4122C32.2929 20.2267 32.5493 20.1225 32.8167 20.1225C34.808 20.1225 34.9813 20.9421 36.1547 20.9421C36.7735 20.9421 37.367 20.7009 37.8046 20.2716C38.2422 19.8422 38.488 19.2599 38.488 18.6528C38.488 18.0456 38.2422 17.4633 37.8046 17.034C37.367 16.6047 36.7735 16.3635 36.1547 16.3635C34.9813 16.3635 34.808 17.183 32.8167 17.183C32.6842 17.183 32.5531 17.1574 32.4308 17.1077C32.3084 17.058 32.1973 16.9851 32.1037 16.8931C32.0101 16.8012 31.9358 16.6921 31.8852 16.5721C31.8346 16.452 31.8086 16.3233 31.8087 16.1934V11.6665C27.9268 11.9177 24.2876 13.6077 21.6288 16.3941C18.9701 19.1804 17.4907 22.8544 17.4907 26.6712C17.4839 26.9292 17.3747 27.1744 17.1863 27.3545C16.998 27.5346 16.7454 27.6354 16.4823 27.6354C16.2193 27.6354 15.9667 27.5346 15.7783 27.3545C15.59 27.1744 15.4808 26.9292 15.474 26.6712C15.474 24.4366 15.9226 22.2238 16.7942 20.1593C17.6659 18.0948 18.9434 16.2189 20.554 14.6388C22.1645 13.0587 24.0765 11.8053 26.1808 10.9502C28.2851 10.0951 30.5404 9.65506 32.818 9.65515C33.0855 9.65515 33.3421 9.75941 33.5312 9.94501C33.7204 10.1306 33.8267 10.3823 33.8267 10.6448V15.0376C34.5316 14.6247 35.335 14.4014 36.156 14.3901C37.3004 14.404 38.3932 14.8598 39.1975 15.6587C40.0018 16.4577 40.4528 17.5354 40.4528 18.6583C40.4528 19.7813 40.0018 20.859 39.1975 21.6579C38.3932 22.4569 37.3004 22.9127 36.156 22.9266C35.335 22.9151 34.5316 22.6915 33.8267 22.2784V25.6908H38.4747V25.6947C38.741 25.6947 38.9964 25.7985 39.1848 25.9832C39.3732 26.1679 39.4792 26.4184 39.4793 26.6798C39.4793 28.642 38.648 28.7996 38.648 29.9502C38.648 30.5574 38.8938 31.1396 39.3314 31.569C39.769 31.9983 40.3625 32.2395 40.9813 32.2395C41.6002 32.2395 42.1937 31.9983 42.6312 31.569C43.0688 31.1396 43.3147 30.5574 43.3147 29.9502C43.3147 28.8153 42.4793 28.5962 42.4793 26.6798C42.4793 26.5498 42.5054 26.4212 42.5561 26.3011C42.6068 26.1811 42.6811 26.072 42.7748 25.9802C42.8685 25.8884 42.9797 25.8155 43.102 25.7659C43.2244 25.7162 43.3556 25.6907 43.488 25.6908H49.1547V25.6947C49.421 25.6947 49.6764 25.7985 49.8648 25.9832C50.0532 26.1679 50.1591 26.4184 50.1593 26.6798C50.1593 36.7239 41.996 39.2297 41.996 46.7465V50.7947C41.9928 51.9656 41.5752 53.0992 40.8146 54.0016C40.0541 54.904 38.9977 55.5192 37.826 55.7422C37.3027 57.5318 35.2593 58.8681 32.818 58.8681C30.65 58.8681 28.3907 57.7365 27.8133 55.752C27.0328 55.6154 26.2946 55.305 25.6553 54.8448L24.3773 56.0987C24.2837 56.1906 24.1726 56.2635 24.0502 56.3132C23.9279 56.363 23.7968 56.3886 23.6643 56.3886C23.5319 56.3886 23.4008 56.363 23.2784 56.3132C23.1561 56.2635 23.0449 56.1906 22.9513 56.0987L21.9233 55.0901C20.8749 55.6927 19.747 56.1511 18.5713 56.4525V57.8791C18.5713 58.009 18.5453 58.1376 18.4946 58.2576C18.4439 58.3775 18.3697 58.4866 18.2761 58.5784C18.1825 58.6702 18.0714 58.7431 17.9491 58.7928C17.8268 58.8425 17.6957 58.8681 17.5633 58.8681H12.92C12.7876 58.8681 12.6565 58.8425 12.5343 58.7928C12.412 58.7431 12.3008 58.6702 12.2072 58.5784C12.1136 58.4866 12.0394 58.3775 11.9887 58.2576C11.9381 58.1376 11.912 58.009 11.912 57.8791V56.4519C10.7363 56.1506 9.60839 55.6922 8.56 55.0894L7.53333 56.098C7.43972 56.1899 7.32857 56.2628 7.20623 56.3126C7.08389 56.3623 6.95276 56.3879 6.82033 56.3879C6.6879 56.3879 6.55677 56.3623 6.43443 56.3126C6.31209 56.2628 6.20094 56.1899 6.10733 56.098L2.82333 52.8773C2.72966 52.7854 2.65535 52.6764 2.60465 52.5564C2.55395 52.4363 2.52786 52.3077 2.52786 52.1777C2.52786 52.0478 2.55395 51.9191 2.60465 51.7991C2.65535 51.6791 2.72966 51.57 2.82333 51.4782L3.85133 50.4696C3.23698 49.441 2.76971 48.3344 2.46267 47.1808H1.00867C0.876238 47.1809 0.74509 47.1554 0.622717 47.1057C0.500344 47.0561 0.389144 46.9832 0.295472 46.8914C0.2018 46.7995 0.127491 46.6905 0.076793 46.5705C0.0260946 46.4504 -2.89633e-08 46.3218 0 46.1918V41.6361C0 41.3738 0.1062 41.1223 0.295236 40.9368C0.484273 40.7513 0.740662 40.6471 1.008 40.6471H2.46267C2.77012 39.4938 3.23736 38.3872 3.85133 37.3584L2.82333 36.3498C2.72966 36.2579 2.65535 36.1489 2.60465 36.0289C2.55395 35.9088 2.52786 35.7802 2.52786 35.6502C2.52786 35.5203 2.55395 35.3917 2.60465 35.2716C2.65535 35.1516 2.72966 35.0425 2.82333 34.9507L6.106 31.73C6.19961 31.6381 6.31076 31.5651 6.4331 31.5154C6.55544 31.4657 6.68657 31.4401 6.819 31.4401C6.95143 31.4401 7.08256 31.4657 7.2049 31.5154C7.32724 31.5651 7.43839 31.6381 7.532 31.73L8.56 32.7386C9.60853 32.1361 10.7364 31.6776 11.912 31.3761V29.9502C11.9119 29.8203 11.9379 29.6916 11.9885 29.5715C12.0392 29.4515 12.1134 29.3424 12.207 29.2505C12.3006 29.1585 12.4118 29.0856 12.5341 29.0359C12.6564 28.9862 12.7876 28.9606 12.92 28.9606ZM16.5547 30.9385H13.9287V32.1636C13.9288 32.3934 13.8472 32.616 13.698 32.793C13.5488 32.9701 13.3413 33.0905 13.1113 33.1336C11.6478 33.4108 10.256 33.9738 9.01867 34.7891C8.82438 34.9307 8.5847 34.999 8.34336 34.9816C8.10201 34.9642 7.87509 34.8622 7.704 34.6943L6.82133 33.8276L4.962 35.6479L5.84533 36.514C6.01051 36.6763 6.11306 36.89 6.13543 37.1183C6.15781 37.3467 6.09862 37.5756 5.968 37.7659C5.13159 38.9735 4.55287 40.3348 4.26667 41.7676C4.23434 42.0053 4.11511 42.2233 3.93115 42.3812C3.7472 42.539 3.51106 42.626 3.26667 42.6258H2.01733V45.2022H3.26667C3.50083 45.2021 3.72769 45.2821 3.90817 45.4285C4.08864 45.5749 4.21142 45.7785 4.25533 46.0041C4.53782 47.44 5.11163 48.8056 5.94267 50.0196C6.0868 50.2102 6.15633 50.4454 6.13859 50.6821C6.12085 50.9189 6.01701 51.1415 5.846 51.3094L4.96267 52.1754L6.82 53.9977L7.70267 53.1311C7.86817 52.969 8.08592 52.8684 8.31867 52.8464C8.55143 52.8245 8.78473 52.8826 8.97867 53.0107C10.2082 53.8315 11.5942 54.3999 13.0533 54.6819C13.2957 54.7135 13.5181 54.8304 13.6791 55.0109C13.8402 55.1914 13.9289 55.4232 13.9287 55.663V56.8881H16.5547V55.663C16.5548 55.4333 16.6366 55.2107 16.7859 55.0337C16.9352 54.8567 17.1427 54.7362 17.3727 54.693C18.8366 54.4162 20.2289 53.8535 21.4667 53.0382C21.661 52.8968 21.9007 52.8285 22.142 52.846C22.3833 52.8634 22.6102 52.9652 22.7813 53.133L23.6667 53.9997L25.524 52.1774L24.6407 51.3114C24.4754 51.1491 24.3727 50.9354 24.3504 50.707C24.328 50.4786 24.3872 50.2497 24.518 50.0595C25.3545 48.8533 25.9333 47.4934 26.2193 46.0617C26.2516 45.8239 26.3709 45.6058 26.5548 45.4478C26.7387 45.2899 26.9749 45.2028 27.2193 45.2029H28.4667V42.6258H27.2173C26.9831 42.6256 26.7563 42.5454 26.5759 42.3989C26.3955 42.2524 26.2727 42.0489 26.2287 41.8232C25.9462 40.3869 25.3724 39.0209 24.5413 37.8064C24.3971 37.6158 24.3274 37.3807 24.3452 37.1439C24.3629 36.9071 24.4669 36.6844 24.638 36.5166L25.5213 35.6479L23.6667 33.8283L22.784 34.6949C22.6186 34.8571 22.4008 34.9578 22.168 34.9798C21.9352 35.0017 21.7019 34.9436 21.508 34.8153C20.2785 33.9948 18.8924 33.427 17.4333 33.1461C17.191 33.1144 16.9687 32.9974 16.8077 32.8169C16.6467 32.6365 16.558 32.4048 16.558 32.1649V30.9385H16.5547ZM15.2413 37.813C14.0114 37.813 12.8091 38.1708 11.7864 38.8412C10.7638 39.5117 9.96671 40.4646 9.49603 41.5794C9.02536 42.6943 8.90221 43.9211 9.14216 45.1046C9.3821 46.2882 9.97437 47.3753 10.8441 48.2286C11.7138 49.0819 12.8218 49.663 14.0281 49.8984C15.2344 50.1338 16.4848 50.013 17.6211 49.5512C18.7574 49.0894 19.7286 48.3074 20.412 47.304C21.0953 46.3007 21.46 45.121 21.46 43.9143C21.4601 43.1131 21.2993 42.3196 20.9868 41.5793C20.6743 40.839 20.2163 40.1664 19.6388 39.5998C19.0613 39.0332 18.3757 38.5838 17.6212 38.2772C16.8667 37.9706 16.058 37.8129 15.2413 37.813ZM9.41867 38.2009C8.26709 39.3308 7.48287 40.7704 7.16518 42.3376C6.84749 43.9048 7.0106 45.5293 7.63388 47.0055C8.25716 48.4818 9.31262 49.7436 10.6668 50.6313C12.021 51.519 13.613 51.9929 15.2417 51.9929C16.8703 51.9929 18.4624 51.519 19.8165 50.6313C21.1707 49.7436 22.2262 48.4818 22.8494 47.0055C23.4727 45.5293 23.6358 43.9048 23.3181 42.3376C23.0005 40.7704 22.2162 39.3308 21.0647 38.2009C20.3 37.4506 19.3922 36.8554 18.3931 36.4493C17.394 36.0433 16.3231 35.8343 15.2417 35.8343C14.1602 35.8343 13.0894 36.0433 12.0903 36.4493C11.0911 36.8554 10.1833 37.4506 9.41867 38.2009ZM25.7653 4.66315C25.7282 4.53687 25.7171 4.4046 25.7328 4.27408C25.7484 4.14355 25.7904 4.01739 25.8563 3.90298C25.9222 3.78857 26.0107 3.6882 26.1166 3.60776C26.2225 3.52731 26.3438 3.46841 26.4732 3.43448C26.6026 3.40055 26.7376 3.39229 26.8703 3.41017C27.003 3.42805 27.1307 3.47172 27.246 3.53863C27.3613 3.60553 27.4619 3.69432 27.5418 3.79981C27.6216 3.90529 27.6793 4.02535 27.7113 4.15296L28.4053 6.6954C28.4684 6.94665 28.4285 7.21215 28.2943 7.43487C28.16 7.65759 27.9421 7.81977 27.6873 7.88657C27.4325 7.95337 27.1611 7.91946 26.9315 7.79214C26.7019 7.66481 26.5324 7.45422 26.4593 7.20559L25.7653 4.66315ZM15.494 11.0732L17.3913 12.9347C17.4841 13.0305 17.5954 13.1071 17.7188 13.16C17.8421 13.2129 17.9751 13.241 18.1097 13.2427C18.2443 13.2444 18.3779 13.2196 18.5026 13.1699C18.6274 13.1201 18.7407 13.0463 18.8359 12.9529C18.9311 12.8595 19.0063 12.7484 19.057 12.626C19.1077 12.5036 19.133 12.3725 19.1312 12.2405C19.1295 12.1084 19.1008 11.978 19.0469 11.8569C18.993 11.7359 18.9149 11.6266 18.8173 11.5357L16.92 9.67346C16.8273 9.57769 16.7159 9.5011 16.5926 9.4482C16.4692 9.39531 16.3363 9.36719 16.2016 9.36549C16.067 9.3638 15.9334 9.38856 15.8087 9.43833C15.684 9.4881 15.5707 9.56186 15.4755 9.65527C15.3802 9.74868 15.3051 9.85984 15.2543 9.98221C15.2036 10.1046 15.1784 10.2357 15.1801 10.3678C15.1818 10.4998 15.2105 10.6302 15.2644 10.7513C15.3183 10.8723 15.3964 10.9816 15.494 11.0726V11.0732ZM9.86666 21.6603L12.4587 22.3418C12.7147 22.4037 12.9854 22.3646 13.2124 22.2329C13.4394 22.1011 13.6047 21.8873 13.6727 21.6373C13.7408 21.3873 13.7063 21.1211 13.5765 20.8959C13.4467 20.6706 13.2321 20.5043 12.9787 20.4326L10.3867 19.7536C10.1306 19.6917 9.85998 19.7309 9.63297 19.8626C9.40597 19.9943 9.24068 20.2081 9.17259 20.4581C9.10451 20.7081 9.13906 20.9743 9.26884 21.1996C9.39861 21.4249 9.61326 21.5912 9.86666 21.6629V21.6603ZM30.1013 55.8311C31.326 57.2597 34.3793 57.2185 35.548 55.8311H30.1013ZM41.648 6.54823V0.988485C41.648 0.857196 41.6746 0.727219 41.7264 0.606144C41.7781 0.485069 41.8539 0.375323 41.9494 0.283313C42.0448 0.191304 42.158 0.118876 42.2823 0.0702596C42.4066 0.0216429 42.5395 -0.00218818 42.6733 0.000157811V0.00408237C44.9504 0.00442486 47.2051 0.445064 49.3085 1.30081C51.4119 2.15656 53.3228 3.41064 54.9319 4.99136C56.541 6.57208 57.8169 8.44845 58.6865 10.5132C59.5561 12.578 60.0024 14.7907 60 17.0248C60 17.2871 59.8938 17.5387 59.7048 17.7243C59.5158 17.9099 59.2594 18.0142 58.992 18.0144H54.5133C54.9345 18.7057 55.1624 19.4938 55.174 20.2991C55.1811 20.8641 55.0739 21.4248 54.8584 21.9488C54.643 22.4728 54.3237 22.9496 53.919 23.3516C53.5144 23.7535 53.0324 24.0727 52.501 24.2905C51.9697 24.5084 51.3995 24.6205 50.8237 24.6205C50.2478 24.6205 49.6776 24.5084 49.1463 24.2905C48.6149 24.0727 48.133 23.7535 47.7283 23.3516C47.3236 22.9496 47.0043 22.4728 46.7889 21.9488C46.5735 21.4248 46.4662 20.8641 46.4733 20.2991C46.4849 19.4938 46.7128 18.7057 47.134 18.0144H42.6567C42.3892 18.0142 42.1327 17.9099 41.9436 17.7243C41.7545 17.5388 41.6482 17.2872 41.648 17.0248V11.465H41.652C41.6522 11.2037 41.7581 10.9531 41.9465 10.7684C42.1349 10.5837 42.3903 10.48 42.6567 10.48C44.6567 10.48 44.8167 11.2956 45.99 11.2956C46.6088 11.2956 47.2023 11.0544 47.6399 10.6251C48.0775 10.1958 48.3233 9.61346 48.3233 9.00629C48.3233 8.39913 48.0775 7.81684 47.6399 7.38751C47.2023 6.95818 46.6088 6.71699 45.99 6.71699C44.834 6.71699 44.6107 7.53721 42.6567 7.53721C42.3893 7.53721 42.1328 7.43304 41.9437 7.24759C41.7545 7.06214 41.6482 6.81059 41.648 6.54823Z" fill="#1B54F8"></path></g></svg> 