<?xml version="1.0" encoding="UTF-8"?> <svg xmlns="http://www.w3.org/2000/svg" width="91" height="91" viewBox="0 0 91 91" fill="none"><mask id="mask0_2_333" style="mask-type:luminance" maskUnits="userSpaceOnUse" x="0" y="0" width="91" height="91"><path d="M90.24 0.899994H0.240005V90.9H90.24V0.899994Z" fill="white"></path></mask><g mask="url(#mask0_2_333)"><path d="M86.37 32.88C86.37 28.14 82.51 24.28 77.77 24.28C73.03 24.28 69.17 28.14 69.17 32.88C69.17 36.11 70.97 38.93 73.61 40.39V53.85C71.5 50.69 67.9 48.6 63.82 48.6H26.9C22.39 48.6 18.47 51.15 16.5 54.88V40.4C19.14 38.93 20.94 36.11 20.94 32.89C20.94 28.15 17.08 24.29 12.34 24.29C7.6 24.29 3.73999 28.15 3.73999 32.89C3.73999 36.12 5.53999 38.94 8.17999 40.4V59.02C6.37999 59.77 5.13 61.54 5.13 63.59V75.26C5.13 77.98 7.34999 80.21 10.08 80.21H15.27C16.06 85.93 20.98 90.35 26.91 90.35H63.83C69.77 90.35 74.68 85.93 75.47 80.21H80.05C82.77 80.21 85 77.99 85 75.26V63.59C85 61.53 83.73 59.77 81.95 59.02V40.4C84.58 38.93 86.37 36.11 86.37 32.88ZM12.34 27.9C15.09 27.9 17.33 30.14 17.33 32.89C17.33 35.64 15.09 37.88 12.34 37.88C9.59 37.88 7.35001 35.64 7.35001 32.89C7.36001 30.13 9.59 27.9 12.34 27.9ZM12.34 41.47C12.52 41.47 12.71 41.47 12.89 41.45V58.64H11.8V41.45C11.98 41.45 12.17 41.47 12.35 41.47H12.34ZM8.73999 75.25V63.58C8.73999 62.85 9.34001 62.25 10.07 62.25H15.15V76.58H10.07C9.34001 76.59 8.73999 75.99 8.73999 75.25ZM71.97 78.58C71.97 83.06 68.32 86.72 63.83 86.72H26.89C22.41 86.72 18.75 83.07 18.75 78.58V60.36C18.75 55.88 22.4 52.22 26.89 52.22H63.81C68.29 52.22 71.95 55.87 71.95 60.36V78.58H71.97ZM77.77 27.9C80.52 27.9 82.76 30.14 82.76 32.89C82.76 35.64 80.52 37.88 77.77 37.88C75.02 37.88 72.78 35.64 72.78 32.89C72.78 30.13 75.02 27.9 77.77 27.9ZM81.37 75.25C81.37 75.98 80.77 76.58 80.04 76.58H75.57V62.25H80.04C80.77 62.25 81.37 62.85 81.37 63.58V75.25ZM78.32 58.64H77.23V41.45C77.41 41.45 77.6 41.47 77.78 41.47C77.96 41.47 78.15 41.47 78.33 41.45V58.64H78.32ZM39.4 64.89C39.4 61.3 36.48 58.38 32.89 58.38C29.3 58.38 26.38 61.3 26.38 64.89C26.38 68.48 29.3 71.4 32.89 71.4C36.48 71.41 39.4 68.49 39.4 64.89ZM32.89 67.79C31.29 67.79 29.99 66.49 29.99 64.89C29.99 63.29 31.29 61.99 32.89 61.99C34.49 61.99 35.79 63.29 35.79 64.89C35.79 66.49 34.49 67.79 32.89 67.79ZM57.84 58.63C54.25 58.63 51.33 61.55 51.33 65.14C51.33 68.73 54.25 71.65 57.84 71.65C61.43 71.65 64.35 68.73 64.35 65.14C64.35 61.55 61.43 58.63 57.84 58.63ZM57.84 68.03C56.24 68.03 54.94 66.73 54.94 65.13C54.94 63.53 56.24 62.23 57.84 62.23C59.44 62.23 60.74 63.53 60.74 65.13C60.74 66.74 59.44 68.03 57.84 68.03ZM55.3 78.37C55.3 79.37 54.49 80.18 53.49 80.18H37.24C36.24 80.18 35.43 79.37 35.43 78.37C35.43 77.37 36.24 76.56 37.24 76.56H53.49C54.49 76.56 55.3 77.37 55.3 78.37Z" fill="#1B54F8" stroke="white" stroke-miterlimit="10"></path></g><mask id="mask1_2_333" style="mask-type:luminance" maskUnits="userSpaceOnUse" x="0" y="0" width="91" height="91"><path d="M90.24 0.899994H0.240005V90.9H90.24V0.899994Z" fill="white"></path></mask><g mask="url(#mask1_2_333)"><path d="M32.27 32.25H26.97C26.3 32.25 25.76 32.79 25.76 33.46V43.47C25.76 44.14 26.3 44.68 26.97 44.68H32.28C32.95 44.68 33.49 44.14 33.49 43.47V33.46C33.49 33.46 33.49 33.46 33.49 33.45C33.48 32.79 32.93 32.25 32.27 32.25ZM31.06 42.27H28.18V34.67H31.07L31.06 42.27Z" fill="#1B54F8" stroke="white" stroke-width="0.25" stroke-miterlimit="10"></path></g><mask id="mask2_2_333" style="mask-type:luminance" maskUnits="userSpaceOnUse" x="0" y="0" width="91" height="91"><path d="M90.24 0.899994H0.240005V90.9H90.24V0.899994Z" fill="white"></path></mask><g mask="url(#mask2_2_333)"><path d="M43.98 23.5C43.98 22.83 43.44 22.29 42.77 22.29H37.47C36.8 22.29 36.26 22.83 36.26 23.5V43.48C36.26 44.15 36.8 44.69 37.47 44.69H42.78C43.45 44.69 43.99 44.15 43.99 43.48L43.98 23.5ZM41.56 42.27H38.68V24.72H41.56V42.27Z" fill="#1B54F8" stroke="white" stroke-width="0.25" stroke-miterlimit="10"></path></g><mask id="mask3_2_333" style="mask-type:luminance" maskUnits="userSpaceOnUse" x="0" y="0" width="91" height="91"><path d="M90.24 0.899994H0.240005V90.9H90.24V0.899994Z" fill="white"></path></mask><g mask="url(#mask3_2_333)"><path d="M53.28 24.61H47.98C47.31 24.61 46.77 25.15 46.77 25.82V43.48C46.77 44.15 47.31 44.69 47.98 44.69H53.28C53.95 44.69 54.49 44.15 54.49 43.48V25.82C54.49 25.82 54.49 25.82 54.49 25.81C54.49 25.15 53.94 24.61 53.28 24.61ZM52.07 42.27H49.19V27.03H52.07V42.27Z" fill="#1B54F8" stroke="white" stroke-width="0.25" stroke-miterlimit="10"></path></g><mask id="mask4_2_333" style="mask-type:luminance" maskUnits="userSpaceOnUse" x="0" y="0" width="91" height="91"><path d="M90.24 0.899994H0.240005V90.9H90.24V0.899994Z" fill="white"></path></mask><g mask="url(#mask4_2_333)"><path d="M63.79 14.19H58.49C57.82 14.19 57.28 14.73 57.28 15.4V43.48C57.28 44.15 57.82 44.69 58.49 44.69H63.79C64.46 44.69 65 44.15 65 43.48V15.4C65 14.73 64.45 14.19 63.79 14.19ZM62.57 42.27H59.69V16.6H62.57V42.27Z" fill="#1B54F8" stroke="white" stroke-width="0.25" stroke-miterlimit="10"></path></g><mask id="mask5_2_333" style="mask-type:luminance" maskUnits="userSpaceOnUse" x="0" y="0" width="91" height="91"><path d="M90.24 0.899994H0.240005V90.9H90.24V0.899994Z" fill="white"></path></mask><g mask="url(#mask5_2_333)"><path d="M64.47 2.74001C63.59 0.900011 61.39 0.13 59.55 1.01C57.71 1.89 56.94 4.09 57.82 5.93L52.22 11.48C50.53 10.65 48.49 11.25 47.5 12.85L43.75 12.02C43.53 10.17 41.96 8.77 40.1 8.78C38.07 8.79 36.44 10.43 36.44 12.46C36.44 12.98 36.55 13.49 36.77 13.96L31.29 19.16C30.29 18.64 29.11 18.61 28.09 19.07C26.24 19.91 25.41 22.08 26.25 23.94C27.09 25.79 29.26 26.62 31.12 25.78C32.97 24.94 33.8 22.77 32.96 20.91L38.44 15.71C40.14 16.59 42.23 16.01 43.24 14.38L46.99 15.21C47.21 17.06 48.78 18.46 50.64 18.45C52.67 18.44 54.3 16.8 54.3 14.77C54.3 14.22 54.18 13.69 53.94 13.2L59.54 7.65C60.55 8.15 61.74 8.15001 62.75 7.66001C64.58 6.78001 65.36 4.58001 64.47 2.74001ZM30.86 22.43C30.86 23.12 30.29 23.68 29.6 23.67C28.91 23.67 28.35 23.11 28.35 22.42C28.35 21.73 28.91 21.17 29.6 21.17C30.3 21.17 30.85 21.73 30.86 22.43ZM41.37 12.47C41.37 13.16 40.8 13.72 40.11 13.71C39.42 13.71 38.86 13.15 38.86 12.46C38.86 11.77 39.42 11.21 40.11 11.21C40.8 11.21 41.36 11.77 41.37 12.47ZM51.88 14.79C51.88 15.48 51.31 16.04 50.62 16.03C49.93 16.03 49.37 15.47 49.37 14.78C49.37 14.09 49.93 13.53 50.62 13.53C51.31 13.53 51.87 14.09 51.88 14.79C51.88 14.78 51.88 14.78 51.88 14.79ZM62.39 4.28C62.39 4.97 61.82 5.53001 61.13 5.52001C60.44 5.52001 59.88 4.96001 59.88 4.27001C59.88 3.58001 60.44 3.02001 61.13 3.02001C61.82 3.02001 62.38 3.58 62.39 4.28Z" fill="#1B54F8"></path><path d="M51.88 14.79C51.88 15.48 51.31 16.04 50.62 16.03C49.93 16.03 49.37 15.47 49.37 14.78C49.37 14.09 49.93 13.53 50.62 13.53C51.31 13.53 51.87 14.09 51.88 14.79ZM51.88 14.79C51.88 14.78 51.88 14.78 51.88 14.79ZM64.47 2.74001C63.59 0.900011 61.39 0.13 59.55 1.01C57.71 1.89 56.94 4.09 57.82 5.93L52.22 11.48C50.53 10.65 48.49 11.25 47.5 12.85L43.75 12.02C43.53 10.17 41.96 8.77 40.1 8.78C38.07 8.79 36.44 10.43 36.44 12.46C36.44 12.98 36.55 13.49 36.77 13.96L31.29 19.16C30.29 18.64 29.11 18.61 28.09 19.07C26.24 19.91 25.41 22.08 26.25 23.94C27.09 25.79 29.26 26.62 31.12 25.78C32.97 24.94 33.8 22.77 32.96 20.91L38.44 15.71C40.14 16.59 42.23 16.01 43.24 14.38L46.99 15.21C47.21 17.06 48.78 18.46 50.64 18.45C52.67 18.44 54.3 16.8 54.3 14.77C54.3 14.22 54.18 13.69 53.94 13.2L59.54 7.65C60.55 8.15 61.74 8.15001 62.75 7.66001C64.58 6.78001 65.36 4.58001 64.47 2.74001ZM30.86 22.43C30.86 23.12 30.29 23.68 29.6 23.67C28.91 23.67 28.35 23.11 28.35 22.42C28.35 21.73 28.91 21.17 29.6 21.17C30.3 21.17 30.85 21.73 30.86 22.43ZM41.37 12.47C41.37 13.16 40.8 13.72 40.11 13.71C39.42 13.71 38.86 13.15 38.86 12.46C38.86 11.77 39.42 11.21 40.11 11.21C40.8 11.21 41.36 11.77 41.37 12.47ZM62.39 4.28C62.39 4.97 61.82 5.53001 61.13 5.52001C60.44 5.52001 59.88 4.96001 59.88 4.27001C59.88 3.58001 60.44 3.02001 61.13 3.02001C61.82 3.02001 62.38 3.58 62.39 4.28Z" stroke="white" stroke-width="0.25" stroke-miterlimit="10"></path></g></svg> 