<?xml version="1.0" encoding="UTF-8"?> <svg xmlns="http://www.w3.org/2000/svg" xmlns:xlink="http://www.w3.org/1999/xlink" width="60" height="60" viewBox="0 0 60 60"><defs><clipPath id="clip-path"><rect id="Rectangle_3" data-name="Rectangle 3" width="60" height="60" transform="translate(777 82)" fill="#fff" stroke="#707070" stroke-width="1"></rect></clipPath></defs><g id="Mask_Group_48" data-name="Mask Group 48" transform="translate(-777 -82)" clip-path="url(#clip-path)"><path id="Path_167" data-name="Path 167" d="M36.88,32.337h7.768a6.509,6.509,0,0,0,.544-12.995,8.329,8.329,0,0,0,.123-1.427,8.443,8.443,0,0,0-8.43-8.43,8.354,8.354,0,0,0-2.8.477,9.768,9.768,0,0,0-19.125,2.8,9.627,9.627,0,0,0,.108,1.438,9.083,9.083,0,0,0,.7,18.139h5.2V40.1H16.522a3.055,3.055,0,1,0,0,1.171h5.032a.591.591,0,0,0,.59-.59V32.337h6.192V45.209a3.055,3.055,0,1,0,1.171,0V32.337H35.7v8.338a.591.591,0,0,0,.59.59h5.032a3.055,3.055,0,1,0,0-1.171H36.88ZM13.524,42.56A1.879,1.879,0,1,1,15.4,40.68,1.88,1.88,0,0,1,13.524,42.56ZM30.8,48.207a1.879,1.879,0,1,1-1.879-1.879A1.88,1.88,0,0,1,30.8,48.207ZM7.861,23.255a7.917,7.917,0,0,1,7.907-7.907.579.579,0,0,0,.457-.221.6.6,0,0,0,.118-.5,8.794,8.794,0,0,1-.205-1.869A8.586,8.586,0,0,1,33.1,10.881a.584.584,0,0,0,.811.406A7.256,7.256,0,0,1,44.129,17.91a7.1,7.1,0,0,1-.236,1.833.6.6,0,0,0,.1.508.594.594,0,0,0,.467.231,5.341,5.341,0,1,1,.175,10.679H15.768A7.917,7.917,0,0,1,7.861,23.255ZM44.319,38.8A1.879,1.879,0,1,1,42.44,40.68,1.88,1.88,0,0,1,44.319,38.8ZM36.8,18.752l-.75-.139c-.026-.005-.031-.01-.036-.031a7.461,7.461,0,0,0-.6-1.432.039.039,0,0,1,.005-.051l.436-.626a1.222,1.222,0,0,0-.139-1.561L34.7,13.885a1.217,1.217,0,0,0-1.561-.139l-.626.436a.039.039,0,0,1-.051.005,7.743,7.743,0,0,0-1.432-.6h0A.034.034,0,0,1,31,13.556l-.133-.75A1.223,1.223,0,0,0,29.656,11.8H28.208A1.227,1.227,0,0,0,27,12.806l-.133.75c-.005.026-.01.031-.031.036a7.461,7.461,0,0,0-1.432.6.039.039,0,0,1-.051-.005l-.626-.436a1.222,1.222,0,0,0-1.561.139l-1.027,1.027A1.217,1.217,0,0,0,22,16.472l.431.626a.039.039,0,0,1,.005.051,7.646,7.646,0,0,0-.6,1.438.034.034,0,0,1-.036.031l-.75.133a1.228,1.228,0,0,0-1.006,1.207v1.448a1.227,1.227,0,0,0,1.006,1.207l.75.133c.026.005.031.01.036.031a7.461,7.461,0,0,0,.6,1.432.039.039,0,0,1-.005.051L22,24.887a1.222,1.222,0,0,0,.139,1.561l1.027,1.027a1.217,1.217,0,0,0,1.561.139l.626-.431a.039.039,0,0,1,.051-.005,7.646,7.646,0,0,0,1.438.6.034.034,0,0,1,.031.036l.133.75a1.228,1.228,0,0,0,1.207,1.006h1.448a1.227,1.227,0,0,0,1.207-1.006l.133-.75c.005-.026.01-.031.031-.036a7.461,7.461,0,0,0,1.432-.6.039.039,0,0,1,.051.005l.626.436A1.222,1.222,0,0,0,34.7,27.48l1.027-1.027a1.217,1.217,0,0,0,.139-1.561l-.431-.626a.039.039,0,0,1-.005-.051,7.646,7.646,0,0,0,.6-1.438.034.034,0,0,1,.036-.031l.75-.133a1.228,1.228,0,0,0,1.006-1.207V19.958A1.232,1.232,0,0,0,36.8,18.752Zm-.169,2.654a.045.045,0,0,1-.041.046l-.75.133a1.218,1.218,0,0,0-.955.857,6.493,6.493,0,0,1-.5,1.207,1.23,1.23,0,0,0,.067,1.284l.431.626a.047.047,0,0,1-.005.062l-1.027,1.027a.042.042,0,0,1-.062.005l-.626-.436a1.208,1.208,0,0,0-1.284-.067,6.162,6.162,0,0,1-1.207.5,1.218,1.218,0,0,0-.857.955l-.133.75a.045.045,0,0,1-.046.041H28.193a.045.045,0,0,1-.046-.041l-.133-.75a1.218,1.218,0,0,0-.857-.955,6.493,6.493,0,0,1-1.207-.5A1.2,1.2,0,0,0,25.364,26a1.21,1.21,0,0,0-.7.221l-.626.436a.047.047,0,0,1-.062-.005l-1.027-1.027a.042.042,0,0,1-.005-.062l.436-.626a1.208,1.208,0,0,0,.067-1.284,6.162,6.162,0,0,1-.5-1.207A1.218,1.218,0,0,0,22,21.591l-.75-.133a.045.045,0,0,1-.041-.046V19.964a.045.045,0,0,1,.041-.046l.75-.133a1.218,1.218,0,0,0,.955-.857,6.493,6.493,0,0,1,.5-1.207,1.23,1.23,0,0,0-.067-1.284l-.431-.626a.047.047,0,0,1,.005-.062l1.027-1.027a.042.042,0,0,1,.062-.005l.626.436a1.208,1.208,0,0,0,1.284.067,6.162,6.162,0,0,1,1.207-.5,1.218,1.218,0,0,0,.857-.955l.133-.75a.045.045,0,0,1,.046-.041h1.448a.045.045,0,0,1,.046.041l.133.75a1.218,1.218,0,0,0,.857.955,6.493,6.493,0,0,1,1.207.5,1.23,1.23,0,0,0,1.284-.067l.626-.436a.042.042,0,0,1,.062.005l1.027,1.027a.042.042,0,0,1,.005.062l-.436.626a1.208,1.208,0,0,0-.067,1.284,6.162,6.162,0,0,1,.5,1.207,1.218,1.218,0,0,0,.955.857l.75.133a.045.045,0,0,1,.041.046Zm-7.712-4.97a4.246,4.246,0,1,0,4.246,4.246A4.251,4.251,0,0,0,28.922,16.436Zm0,7.316a3.07,3.07,0,1,1,3.07-3.07A3.072,3.072,0,0,1,28.922,23.753Z" transform="translate(778.32 85)" fill="#1c54f8"></path></g></svg> 