<?xml version="1.0" encoding="UTF-8"?> <svg xmlns="http://www.w3.org/2000/svg" xmlns:xlink="http://www.w3.org/1999/xlink" width="60" height="60" viewBox="0 0 60 60"><defs><clipPath id="clip-path"><rect id="Rectangle_105" data-name="Rectangle 105" width="60" height="60" transform="translate(524 42)" fill="#fff" stroke="#707070" stroke-width="1"></rect></clipPath></defs><g id="Mask_Group_17" data-name="Mask Group 17" transform="translate(-524 -42)" clip-path="url(#clip-path)"><g id="Group_199" data-name="Group 199" transform="translate(-197.157 12)"><path id="Path_293" data-name="Path 293" d="M217.223,27.02a13.519,13.519,0,0,1,.213,2.388v2.855h-.7a.443.443,0,0,1-.443-.442V27.462a.443.443,0,0,1,.443-.442Zm-25.862,0h0a.443.443,0,0,1,.443.442v4.361a.443.443,0,0,1-.443.442h-.7V29.408a13.518,13.518,0,0,1,.213-2.388Zm23.667.442v4.361h0a1.71,1.71,0,0,0,1.707,1.707h1.333a.633.633,0,0,0,.632-.633V29.408a14.653,14.653,0,0,0-29.306,0V32.9a.633.633,0,0,0,.632.633h1.333a1.705,1.705,0,0,0,1.707-1.707V27.462a1.705,1.705,0,0,0-1.707-1.707h-.194a13.389,13.389,0,0,1,25.762,0h-.194a1.71,1.71,0,0,0-1.707,1.707ZM202.99,54.393l3.2,1.847-3.2,1.847Zm-.946-1.642a.637.637,0,0,0-.319.547v5.888a.638.638,0,0,0,.319.547.609.609,0,0,0,.313.085.641.641,0,0,0,.319-.085l5.1-2.942h0a.631.631,0,0,0,0-1.1l-5.1-2.941a.628.628,0,0,0-.632,0Zm2,7.971a4.486,4.486,0,1,0-3.169-1.313,4.481,4.481,0,0,0,3.169,1.313Zm0-10.226h0a5.752,5.752,0,1,0,4.059,1.686,5.746,5.746,0,0,0-4.059-1.686ZM219.3,53.36V49.684A11.45,11.45,0,0,0,210.526,38.6a10.481,10.481,0,0,1-12.963,0,11.445,11.445,0,0,0-8.772,11.081v3.675a2.248,2.248,0,0,0,2.245,2.249h.532V54.414a.632.632,0,0,1,.562-.628l2.314-.251h0a9.861,9.861,0,0,1,.9-2.17l-1.463-1.814a.637.637,0,0,1,.05-.844l2.582-2.582h0a.628.628,0,0,1,.839-.046l1.816,1.46a9.824,9.824,0,0,1,2.17-.9l.249-2.313a.633.633,0,0,1,.627-.564h3.658a.633.633,0,0,1,.627.564l.249,2.313a9.868,9.868,0,0,1,2.17.9l1.816-1.46h0a.629.629,0,0,1,.84.046l2.582,2.582a.63.63,0,0,1,.045.844l-1.458,1.813h0a9.88,9.88,0,0,1,.9,2.172l2.314.251h0a.633.633,0,0,1,.562.628v1.194h.54a2.252,2.252,0,0,0,2.25-2.249ZM215.259,57.5V54.979l-2.184-.236h0a.639.639,0,0,1-.547-.486,8.537,8.537,0,0,0-1.085-2.618.636.636,0,0,1,.045-.73l1.379-1.713-1.781-1.779L209.373,48.8h0a.633.633,0,0,1-.732.044,8.625,8.625,0,0,0-2.613-1.085.633.633,0,0,1-.488-.548l-.24-2.184h-2.512l-.24,2.184h0a.635.635,0,0,1-.48.548,8.6,8.6,0,0,0-2.617,1.085.633.633,0,0,1-.732-.044l-1.712-1.379L195.227,49.2l1.379,1.713h0a.638.638,0,0,1,.045.732,8.633,8.633,0,0,0-1.086,2.616.628.628,0,0,1-.547.486l-2.185.236V57.5l2.185.236h0a.634.634,0,0,1,.547.486,8.658,8.658,0,0,0,1.086,2.617.637.637,0,0,1-.045.73l-1.379,1.712,1.781,1.781,1.712-1.379h0a.633.633,0,0,1,.732-.043,8.668,8.668,0,0,0,2.617,1.083.635.635,0,0,1,.48.548l.24,2.184h2.518l.24-2.184h0a.634.634,0,0,1,.487-.548,8.592,8.592,0,0,0,2.613-1.084.631.631,0,0,1,.732.044l1.712,1.379,1.781-1.78-1.379-1.712h0a.639.639,0,0,1-.045-.732,8.532,8.532,0,0,0,1.086-2.615.637.637,0,0,1,.547-.486l2.184-.236ZM204.048,21.11a9.249,9.249,0,1,1-6.528,2.708,9.238,9.238,0,0,1,6.528-2.708Zm7.589,16.49a10.5,10.5,0,1,0-15.183,0,12.723,12.723,0,0,0-8.935,12.09v3.675a3.519,3.519,0,0,0,3.517,3.509h.532v1.194a.632.632,0,0,0,.562.628l2.314.25h0a9.833,9.833,0,0,0,.9,2.171l-1.463,1.814a.636.636,0,0,0,.05.843l2.582,2.582h0a.628.628,0,0,0,.839.046l1.821-1.459a9.888,9.888,0,0,0,2.17.9l.249,2.313a.634.634,0,0,0,.627.565h3.658a.634.634,0,0,0,.627-.565l.249-2.313a9.8,9.8,0,0,0,2.17-.9l1.816,1.459a.628.628,0,0,0,.84-.046l2.582-2.582a.63.63,0,0,0,.045-.843l-1.458-1.814a9.857,9.857,0,0,0,.9-2.171l2.314-.25a.633.633,0,0,0,.563-.628V56.873h.536a3.518,3.518,0,0,0,3.514-3.513V49.685a12.723,12.723,0,0,0-8.934-12.09Z" transform="translate(546.638 18.245)" fill="#1b54f8" fill-rule="evenodd"></path></g></g></svg> 