<?xml version="1.0" encoding="UTF-8"?> <svg xmlns="http://www.w3.org/2000/svg" xmlns:xlink="http://www.w3.org/1999/xlink" width="90" height="90" viewBox="0 0 90 90"><defs><clipPath id="clip-path"><rect id="Rectangle_4" data-name="Rectangle 4" width="90" height="90" transform="translate(1119 174)" fill="#fff" stroke="#707070" stroke-width="1"></rect></clipPath></defs><g id="Mask_Group_98" data-name="Mask Group 98" transform="translate(-1119 -174)" clip-path="url(#clip-path)"><g id="Group_368" data-name="Group 368" transform="translate(-114.723 114.633)"><path id="Path_657" data-name="Path 657" d="M161.251,43.1l-3.829-.676a35.707,35.707,0,0,0-3.365-8.069l2.239-3.207a3.863,3.863,0,0,0-.437-4.955l-7.539-7.526a3.86,3.86,0,0,0-4.942-.437l-3.193,2.239a35.769,35.769,0,0,0-8.069-3.352l-.689-3.829a3.876,3.876,0,0,0-3.8-3.193H117a3.864,3.864,0,0,0-3.8,3.18l-.689,3.842a35.33,35.33,0,0,0-8.069,3.352l-3.194-2.225a3.86,3.86,0,0,0-4.942.437L88.26,26.706a2.963,2.963,0,0,0-.345,3.842l2.663,3.816a35.428,35.428,0,0,0-3.365,8.069l-4.558.795a2.983,2.983,0,0,0-2.478,2.941V57.563A3.858,3.858,0,0,0,83.4,61.379l3.829.662a35.123,35.123,0,0,0,3.365,8.082l-2.663,3.789a2.962,2.962,0,0,0,.331,3.829L96.315,85.8a3.877,3.877,0,0,0,4.955.437L104.463,84a36.529,36.529,0,0,0,8.069,3.352l.848,4.77A2.767,2.767,0,0,0,116.1,94.37H128.4a2.966,2.966,0,0,0,2.941-2.464l.808-4.558A35.47,35.47,0,0,0,140.209,84l3.193,2.239a3.86,3.86,0,0,0,4.942-.437l8.055-8.055a3.01,3.01,0,0,0,.331-3.816l-2.65-3.816a36.529,36.529,0,0,0,3.352-8.069l4.558-.795a2.988,2.988,0,0,0,2.464-2.955V46.9a3.885,3.885,0,0,0-3.2-3.8Zm.927,15.2a.74.74,0,0,1-.6.729l-4.717.822a2.037,2.037,0,0,0-1.59,1.444,33.607,33.607,0,0,1-3.259,7.844,2,2,0,0,0,.093,2.133l2.756,3.948a.76.76,0,0,1-.079.941l-8.055,8.055a1.609,1.609,0,0,1-2.054.185l-3.339-2.332a2,2,0,0,0-2.133-.093,34.09,34.09,0,0,1-7.83,3.259A2,2,0,0,0,129.93,86.8l-.848,4.743a.716.716,0,0,1-.715.583H116.058a.512.512,0,0,1-.49-.4l-.875-4.916a2,2,0,0,0-1.444-1.577,33.37,33.37,0,0,1-7.844-3.259,2.031,2.031,0,0,0-.994-.265,1.967,1.967,0,0,0-1.139.357l-3.339,2.332a1.593,1.593,0,0,1-2.054-.185L89.85,76.139a.707.707,0,0,1-.079-.927l2.769-3.935a2.025,2.025,0,0,0,.093-2.146,33.042,33.042,0,0,1-3.259-7.844,2,2,0,0,0-1.59-1.444L83.8,59.153a1.62,1.62,0,0,1-1.338-1.59V46.169a.735.735,0,0,1,.609-.715l4.717-.834a2,2,0,0,0,1.577-1.444,33.371,33.371,0,0,1,3.259-7.83,2,2,0,0,0-.093-2.146l-2.756-3.948a.742.742,0,0,1,.079-.941l8.055-8.042a1.625,1.625,0,0,1,2.054-.185l3.339,2.332a2,2,0,0,0,2.133.093,33.7,33.7,0,0,1,7.844-3.259,2,2,0,0,0,1.444-1.577l.7-3.988A1.594,1.594,0,0,1,117,12.357h10.626a1.594,1.594,0,0,1,1.577,1.325l.715,4a2.02,2.02,0,0,0,1.444,1.577,33.5,33.5,0,0,1,7.844,3.259,2,2,0,0,0,2.133-.093l3.339-2.332a1.593,1.593,0,0,1,2.054.185l7.539,7.526a1.609,1.609,0,0,1,.185,2.054l-2.345,3.352a2.025,2.025,0,0,0-.093,2.146,33.846,33.846,0,0,1,3.259,7.83,2,2,0,0,0,1.577,1.444l4,.7a1.594,1.594,0,0,1,1.325,1.577Z" transform="translate(1156.545 52.276)" fill="#05f"></path><path id="Path_658" data-name="Path 658" d="M203.411,109.2a26.671,26.671,0,1,0,26.671,26.671A26.7,26.7,0,0,0,203.411,109.2Zm0,51.09a24.419,24.419,0,1,1,24.419-24.419A24.45,24.45,0,0,1,203.411,160.29Z" transform="translate(1075.061 -31.357)" fill="#05f"></path><path id="Path_659" data-name="Path 659" d="M274.248,154.43a14.01,14.01,0,0,0-10.56,23.226c.106.106.212.225.318.345a17.733,17.733,0,0,1,2.8,4.783,2.094,2.094,0,0,0-1.285,1.934v3.816a2.1,2.1,0,0,0,2.093,2.093h.98a4.971,4.971,0,0,0,4.823,3.829h1.7a4.971,4.971,0,0,0,4.823-3.829h.98a2.1,2.1,0,0,0,2.093-2.093v-3.816a2.094,2.094,0,0,0-1.285-1.934,17,17,0,0,1,2.756-4.743l.384-.424a14.014,14.014,0,0,0-10.612-23.186Zm.848,37.761h-1.7a2.688,2.688,0,0,1-2.451-1.563h6.6a2.711,2.711,0,0,1-2.451,1.563Zm5.644-3.829H267.756v-3.471H280.74Zm2.4-12.229c-.106.119-.212.238-.345.384a20.834,20.834,0,0,0-3.445,6.095h-3.962V171.257l2.557-2.557a1.134,1.134,0,1,0-1.6-1.6l-2.093,2.106-2.093-2.093a1.134,1.134,0,1,0-1.6,1.6l2.557,2.557v11.355h-3.962a20.663,20.663,0,0,0-3.445-6.095c-.119-.146-.252-.292-.357-.4a11.745,11.745,0,1,1,17.794,0Z" transform="translate(1004.608 -69.524)" fill="#05f"></path></g></g></svg> 