<?xml version="1.0" encoding="UTF-8"?> <svg xmlns="http://www.w3.org/2000/svg" xmlns:xlink="http://www.w3.org/1999/xlink" width="90" height="90" viewBox="0 0 90 90"><defs><clipPath id="clip-path"><rect id="Rectangle_19" data-name="Rectangle 19" width="90" height="90" transform="translate(463 824)" fill="#fff" stroke="#707070" stroke-width="1"></rect></clipPath></defs><g id="Mask_Group_19" data-name="Mask Group 19" transform="translate(-463 -824)" clip-path="url(#clip-path)"><g id="noun-automation-4456707" transform="translate(363 794)"><path id="Path_358" data-name="Path 358" d="M144.685,114.369h-5.669a2.835,2.835,0,0,1-2.835-2.835V107.6a33.483,33.483,0,0,1-8.766-3.622l-2.773,2.774a2.834,2.834,0,0,1-4.008,0l-8.018-8.018a2.834,2.834,0,0,1,0-4.008l2.772-2.774a33.621,33.621,0,0,1-3.622-8.766h-3.931A2.835,2.835,0,0,1,105,80.355V69.015a2.835,2.835,0,0,1,2.835-2.835h3.931a33.483,33.483,0,0,1,3.622-8.766l-2.774-2.773a2.834,2.834,0,0,1,0-4.008l8.018-8.018a2.834,2.834,0,0,1,4.008,0l2.774,2.772a33.621,33.621,0,0,1,8.766-3.622V37.835A2.835,2.835,0,0,1,139.014,35h11.34a2.835,2.835,0,0,1,2.835,2.835v6.209a2.835,2.835,0,0,1-5.669,0V40.669h-5.671v3.374a2.834,2.834,0,0,1-2.321,2.788,28.038,28.038,0,0,0-10.9,4.506,2.837,2.837,0,0,1-3.614-.332l-2.379-2.378-4.01,4.01,2.38,2.38a2.833,2.833,0,0,1,.33,3.612,28,28,0,0,0-4.5,10.9,2.835,2.835,0,0,1-2.788,2.323h-3.374V77.52h3.374a2.834,2.834,0,0,1,2.788,2.321,28.038,28.038,0,0,0,4.506,10.9,2.835,2.835,0,0,1-.331,3.612l-2.378,2.38,4.01,4.01,2.38-2.38a2.835,2.835,0,0,1,3.612-.33,28,28,0,0,0,10.9,4.5,2.836,2.836,0,0,1,2.322,2.789V108.7h2.835a2.835,2.835,0,1,1,0,5.669Z" transform="translate(0)" fill="#1b54f8" stroke="#fff" stroke-width="3"></path><path id="Path_359" data-name="Path 359" d="M335.335,187.723a2.835,2.835,0,1,1,0-5.669,34.054,34.054,0,0,0,34.015-34.015,31.1,31.1,0,0,0-7.766-20.764,2.834,2.834,0,1,1,4.194-3.814,36.828,36.828,0,0,1,9.242,24.579,39.73,39.73,0,0,1-39.685,39.685Z" transform="translate(-190.65 -73.354)" fill="#1b54f8" stroke="#fff" stroke-width="3"></path><path id="Path_360" data-name="Path 360" d="M232.677,185.354a2.835,2.835,0,1,1,0-5.669,17.008,17.008,0,1,0-17.008-17.008,2.835,2.835,0,0,1-5.669,0,22.677,22.677,0,1,1,22.677,22.677Z" transform="translate(-87.992 -87.992)" fill="#1b54f8" stroke="#fff" stroke-width="3"></path><path id="Path_361" data-name="Path 361" d="M306.006,367.006a2.825,2.825,0,0,1-2-.831l-5.669-5.669a2.834,2.834,0,0,1,0-4.008L304,350.829a2.834,2.834,0,1,1,4.008,4.008l-3.665,3.665,3.665,3.665a2.834,2.834,0,0,1-2,4.838Z" transform="translate(-161.321 -263.975)" fill="#1b54f8" stroke="#fff" stroke-width="3"></path><path id="Path_362" data-name="Path 362" d="M492.835,119.173A2.835,2.835,0,0,1,490,116.338v-8.5A2.835,2.835,0,0,1,492.835,105h8.5a2.835,2.835,0,0,1,0,5.669h-5.669v5.669A2.835,2.835,0,0,1,492.835,119.173Z" transform="translate(-322.639 -58.662)" fill="#1b54f8" stroke="#fff" stroke-width="3"></path></g></g></svg> 