<?xml version="1.0" encoding="UTF-8"?> <svg xmlns="http://www.w3.org/2000/svg" width="60" height="60" viewBox="0 0 60 60" fill="none"><mask id="mask0_1_59" style="mask-type:alpha" maskUnits="userSpaceOnUse" x="0" y="0" width="60" height="60"><rect width="60" height="60" fill="#D9D9D9"></rect></mask><g mask="url(#mask0_1_59)"><path d="M7.23734 37.4824L13.5127 34.1802C13.7328 34.0653 13.8692 33.8382 13.8692 33.585V26.401V26.367C13.8692 26.3462 13.8692 26.3279 13.8613 26.307C13.8534 26.2391 13.8351 26.1739 13.8089 26.1138C13.8089 26.106 13.8089 26.0929 13.801 26.0877L13.7931 26.0747C13.7538 26.0068 13.7066 25.9468 13.6463 25.8946C13.6332 25.8815 13.6123 25.8737 13.5992 25.8606C13.5729 25.8397 13.552 25.8215 13.5258 25.8084L7.25044 22.5062C7.05647 22.407 6.82056 22.407 6.61871 22.5062L0.343389 25.8084C0.343389 25.8084 0.290964 25.8423 0.26999 25.8606C0.256884 25.8737 0.235914 25.8815 0.222808 25.8946C0.162519 25.9468 0.115334 26.0094 0.0760172 26.0747L0.0681531 26.0877C0.0681531 26.0956 0.0681533 26.1086 0.0602893 26.1138C0.034077 26.1739 0.013107 26.2417 0.0078641 26.307C0.0078641 26.3279 0 26.3462 0 26.367V26.401V33.585C0 33.833 0.14155 34.0601 0.356491 34.1802L6.63181 37.4824C6.63181 37.4824 6.65278 37.4903 6.66589 37.4955C6.679 37.5033 6.69997 37.5085 6.71307 37.5164C6.78647 37.5425 6.86773 37.5634 6.94899 37.5634C7.03024 37.5634 7.10364 37.5425 7.1849 37.5164C7.198 37.5164 7.21897 37.5033 7.23208 37.4955C7.24518 37.4955 7.25305 37.4877 7.26616 37.4824H7.23734ZM7.59383 35.7778V30.1104L12.5271 27.5182V33.1856L7.59383 35.7778ZM6.92278 23.8637L11.7616 26.4089L6.92278 28.9541L2.08396 26.4089L6.92278 23.8637ZM1.3185 27.5184L6.25174 30.1106V35.7779L1.3185 33.1857V27.5184Z" fill="#1B54F8" stroke="#1B54F8" stroke-width="0.5"></path><path d="M59.5606 26.3696C59.5606 26.3696 59.5606 26.3304 59.5527 26.3096C59.5448 26.2417 59.5265 26.1764 59.5003 26.1164C59.5003 26.1085 59.5003 26.0955 59.4924 26.0903L59.4845 26.0772C59.4452 26.0094 59.398 25.9493 59.3377 25.8971C59.3246 25.884 59.3037 25.8762 59.2906 25.8632C59.2644 25.8423 59.2434 25.824 59.2172 25.811L52.9418 22.5087C52.7479 22.4095 52.512 22.4095 52.3101 22.5087L46.0348 25.811C46.0348 25.811 45.9876 25.8449 45.9614 25.8632C45.9483 25.8762 45.9273 25.884 45.9142 25.8971C45.8539 25.9493 45.8067 26.012 45.7674 26.0772L45.7596 26.0903C45.7596 26.0981 45.7596 26.1112 45.7517 26.1164C45.7255 26.1764 45.7045 26.2443 45.6993 26.3096C45.6993 26.3304 45.6914 26.3487 45.6914 26.3696V26.4035V33.5876C45.6914 33.8355 45.833 34.0627 46.0479 34.1827L52.3232 37.485C52.3232 37.485 52.3442 37.4928 52.3573 37.498C52.3704 37.5059 52.3914 37.5111 52.4045 37.5189C52.4779 37.545 52.5591 37.5659 52.6404 37.5659C52.7217 37.5659 52.795 37.545 52.8763 37.5189C52.8894 37.5189 52.9104 37.5059 52.9235 37.498C52.9366 37.498 52.9445 37.4902 52.9576 37.485L59.2329 34.1827C59.4531 34.0679 59.5894 33.8408 59.5894 33.5876V26.4035V26.3696H59.5606ZM52.6139 23.8635L57.4527 26.4088L52.6139 28.954L47.7751 26.4088L52.6139 23.8635ZM47.0096 27.5182L51.9429 30.1104V35.7778L47.0096 33.1856V27.5182ZM53.285 35.7775V30.1102L58.2182 27.518V33.1853L53.285 35.7775Z" fill="#1B54F8" stroke="#1B54F8" stroke-width="0.5"></path><path d="M36.7109 26.3148C36.703 26.2417 36.6847 26.1738 36.6506 26.1086V26.0877V26.0798C36.6113 26.0067 36.5562 25.9389 36.4959 25.8867C36.4881 25.8867 36.4828 25.8736 36.4697 25.8658C36.4356 25.8397 36.4094 25.8188 36.3754 25.7979L30.1 22.4957C29.9061 22.3965 29.6702 22.3965 29.4683 22.4957L23.193 25.7979C23.1589 25.8188 23.1327 25.8449 23.0986 25.8658C23.0908 25.8658 23.0855 25.8788 23.0724 25.8867C23.0043 25.9389 22.9571 26.0067 22.9178 26.0798V26.0877V26.1086C22.8837 26.1764 22.8653 26.2417 22.8575 26.3148C22.8575 26.3357 22.8575 26.3487 22.8496 26.367V26.4009V33.5849C22.8496 33.8329 22.9912 34.0601 23.2061 34.1801L29.4814 37.4824C29.4814 37.4824 29.4945 37.4824 29.5076 37.4902C29.5338 37.5033 29.5548 37.5111 29.581 37.5163C29.6413 37.5372 29.7016 37.5503 29.7619 37.5555H29.796H29.8301C29.8903 37.5555 29.9506 37.5424 30.0109 37.5163C30.0371 37.5085 30.0581 37.5033 30.0843 37.4902C30.0922 37.4902 30.0974 37.4902 30.1105 37.4824L36.3859 34.1801C36.606 34.0653 36.7423 33.8382 36.7423 33.5849V26.4009V26.367C36.7423 26.3461 36.7423 26.3331 36.7345 26.3148H36.7109ZM29.7723 23.8557L34.6111 26.4009L29.7723 28.9461L24.9335 26.4009L29.7723 23.8557ZM24.1628 27.5182L29.096 30.1104V35.7778L24.1628 33.1856V27.5182ZM30.4433 35.7775V30.1101L35.3766 27.518V33.1853L30.4433 35.7775Z" fill="#1B54F8" stroke="#1B54F8" stroke-width="0.5"></path><path d="M36.7028 3.87524C36.695 3.80737 36.6766 3.74211 36.6504 3.68207C36.6504 3.67424 36.6504 3.66118 36.6425 3.65596L36.6347 3.64291C36.5954 3.57504 36.5482 3.515 36.4879 3.46279C36.4748 3.44974 36.4538 3.44191 36.4407 3.42885C36.4145 3.40797 36.3935 3.3897 36.3673 3.37664L30.092 0.0743997C29.898 -0.0247999 29.6621 -0.0247999 29.4603 0.0743997L23.1849 3.37664C23.1849 3.37664 23.1325 3.41058 23.1115 3.42885C23.0984 3.44191 23.0775 3.44974 23.0644 3.46279C23.0041 3.515 22.9569 3.57765 22.9176 3.64291L22.9097 3.65596C22.9097 3.6638 22.9097 3.67685 22.9018 3.68207C22.8756 3.74211 22.8547 3.80998 22.8494 3.87524C22.8494 3.89613 22.8416 3.9144 22.8416 3.93528V3.96922V11.1532C22.8416 11.4012 22.9831 11.6284 23.198 11.7484L29.4734 15.0507C29.4734 15.0507 29.4943 15.0585 29.5074 15.0637C29.5205 15.0716 29.5415 15.0768 29.5546 15.0846C29.628 15.1107 29.7093 15.1316 29.7905 15.1316C29.8718 15.1316 29.9452 15.1107 30.0264 15.0846C30.0396 15.0846 30.0605 15.0716 30.0736 15.0637C30.0867 15.0637 30.0946 15.0559 30.1077 15.0507L36.383 11.7484C36.6032 11.6336 36.7395 11.4065 36.7395 11.1532V3.96922V3.93528C36.7395 3.9144 36.7395 3.89613 36.7317 3.87524H36.7028ZM29.7723 1.42138L34.6111 3.9666L29.7723 6.51181L24.9335 3.9666L29.7723 1.42138ZM24.1628 5.07868L29.096 7.67088V13.3382L24.1628 10.746V5.07868ZM30.4433 13.3433V7.67596L35.3766 5.08376V10.7511L30.4433 13.3433Z" fill="#1B54F8" stroke="#1B54F8" stroke-width="0.5"></path><path d="M36.7028 48.7437C36.695 48.6758 36.6766 48.6105 36.6504 48.5505C36.6504 48.5426 36.6504 48.5296 36.6425 48.5244L36.6347 48.5113C36.5954 48.4434 36.5482 48.3834 36.4879 48.3312C36.4748 48.3181 36.4538 48.3103 36.4407 48.2973C36.4145 48.2764 36.3935 48.2581 36.3673 48.2451L30.092 44.9428C29.898 44.8436 29.6621 44.8436 29.4603 44.9428L23.1849 48.2451C23.1849 48.2451 23.1325 48.279 23.1115 48.2973C23.0984 48.3103 23.0775 48.3181 23.0644 48.3312C23.0041 48.3834 22.9569 48.4461 22.9176 48.5113L22.9097 48.5244C22.9097 48.5322 22.9097 48.5453 22.9018 48.5505C22.8756 48.6105 22.8547 48.6784 22.8494 48.7437C22.8494 48.7645 22.8416 48.7828 22.8416 48.8037V48.8376V56.0217C22.8416 56.2696 22.9831 56.4968 23.198 56.6168L29.4734 59.9191C29.4734 59.9191 29.4943 59.9269 29.5074 59.9321C29.5205 59.94 29.5415 59.9452 29.5546 59.953C29.628 59.9791 29.7093 60 29.7905 60C29.8718 60 29.9452 59.9791 30.0264 59.953C30.0396 59.953 30.0605 59.94 30.0736 59.9321C30.0867 59.9321 30.0946 59.9243 30.1077 59.9191L36.383 56.6168C36.6032 56.502 36.7395 56.2749 36.7395 56.0217V48.8376V48.8037C36.7395 48.7828 36.7395 48.7645 36.7317 48.7437H36.7028ZM29.7723 46.2898L34.6111 48.835L29.7723 51.3802L24.9335 48.835L29.7723 46.2898ZM24.1628 49.9445L29.096 52.5367V58.204L24.1628 55.6118V49.9445ZM30.4433 58.2118V52.5444L35.3766 49.9522V55.6196L30.4433 58.2118Z" fill="#1B54F8" stroke="#1B54F8" stroke-width="0.5"></path><path d="M10.4067 19.5925C10.5141 19.6526 10.6269 19.6865 10.7422 19.6865C10.9781 19.6865 11.1983 19.5664 11.3267 19.3524C13.2245 16.0841 15.9899 13.3718 19.3061 11.5081C19.6285 11.328 19.7412 10.9207 19.5604 10.5918C19.3795 10.2707 18.9706 10.1585 18.6403 10.3386C15.1173 12.3173 12.1841 15.2045 10.1576 18.6787C9.96892 18.9998 10.0842 19.407 10.4067 19.595L10.4067 19.5925Z" fill="#1B54F8" stroke="#1B54F8" stroke-width="0.5"></path><path d="M49.3922 39.9076C49.0646 39.7275 48.6609 39.8476 48.48 40.1739C46.6137 43.5623 43.8561 46.3816 40.5141 48.3343C40.1916 48.5222 40.0842 48.9295 40.2729 49.2506C40.4013 49.4646 40.6215 49.5847 40.8574 49.5847C40.9728 49.5847 41.0934 49.5586 41.2008 49.4907C44.7579 47.418 47.6832 44.4186 49.662 40.8164C49.8429 40.4901 49.7223 40.0803 49.3946 39.908L49.3922 39.9076Z" fill="#1B54F8" stroke="#1B54F8" stroke-width="0.5"></path><path d="M19.0229 48.334C15.6807 46.3813 12.9232 43.562 11.0569 40.1736C10.876 39.8525 10.4724 39.7324 10.1447 39.9073C9.82227 40.0874 9.70169 40.4947 9.87732 40.8158C11.8642 44.4104 14.7896 47.4125 18.3385 49.4901C18.446 49.5501 18.5587 49.584 18.6819 49.584C18.9099 49.584 19.138 49.464 19.2664 49.2499C19.4552 48.9288 19.3477 48.5216 19.0253 48.3336L19.0229 48.334Z" fill="#1B54F8" stroke="#1B54F8" stroke-width="0.5"></path><path d="M40.2339 11.5057C43.5497 13.3643 46.3073 16.0766 48.2132 19.35C48.3417 19.564 48.5619 19.6841 48.7978 19.6841C48.9131 19.6841 49.0258 19.658 49.1333 19.5901C49.4557 19.4022 49.5632 18.9949 49.3823 18.6738C47.3561 15.1915 44.4229 12.3043 40.8996 10.3337C40.5772 10.1536 40.1683 10.2658 39.9874 10.5869C39.8065 10.908 39.9193 11.3152 40.2417 11.4954L40.2339 11.5057Z" fill="#1B54F8" stroke="#1B54F8" stroke-width="0.5"></path><path d="M20.8521 29.3221H15.8324C15.4628 29.3221 15.1613 29.6223 15.1613 29.9903C15.1613 30.3584 15.4628 30.6586 15.8324 30.6586H20.8521C21.2217 30.6586 21.5232 30.3584 21.5232 29.9903C21.5232 29.6223 21.2217 29.3221 20.8521 29.3221Z" fill="#1B54F8" stroke="#1B54F8" stroke-width="0.5"></path><path d="M44.3728 29.9984C44.3728 29.6303 44.0714 29.3301 43.7018 29.3301H38.6821C38.3125 29.3301 38.011 29.6303 38.011 29.9984C38.011 30.3664 38.3125 30.6666 38.6821 30.6666H43.7018C44.0714 30.6666 44.3728 30.3664 44.3728 29.9984Z" fill="#1B54F8" stroke="#1B54F8" stroke-width="0.5"></path><path d="M30.4433 21.2766V16.2775C30.4433 15.9095 30.1419 15.6093 29.7723 15.6093C29.4027 15.6093 29.1013 15.9095 29.1013 16.2775V21.2766C29.1013 21.6447 29.4027 21.9449 29.7723 21.9449C30.1419 21.9449 30.4433 21.6447 30.4433 21.2766Z" fill="#1B54F8" stroke="#1B54F8" stroke-width="0.5"></path><path d="M30.4433 43.7108V38.7117C30.4433 38.3437 30.1419 38.0435 29.7723 38.0435C29.4027 38.0435 29.1013 38.3437 29.1013 38.7117V43.7108C29.1013 44.0789 29.4027 44.3791 29.7723 44.3791C30.1419 44.3791 30.4433 44.0789 30.4433 43.7108Z" fill="#1B54F8" stroke="#1B54F8" stroke-width="0.5"></path></g></svg> 