<?xml version="1.0" encoding="UTF-8"?> <svg xmlns="http://www.w3.org/2000/svg" width="90" height="90" viewBox="0 0 90 90" fill="none"><g clip-path="url(#clip0_5_275)"><mask id="mask0_5_275" style="mask-type:luminance" maskUnits="userSpaceOnUse" x="0" y="0" width="90" height="90"><path d="M90 0H0V90H90V0Z" fill="white"></path></mask><g mask="url(#mask0_5_275)"><path d="M61.554 61.2C61.4423 61.1581 61.3233 61.1391 61.2041 61.1443C61.0849 61.1494 60.968 61.1786 60.8603 61.23C60.7526 61.2814 60.6565 61.354 60.5775 61.4435C60.4986 61.533 60.4386 61.6375 60.401 61.7507C60.3634 61.864 60.3491 61.9836 60.3589 62.1025C60.3686 62.2214 60.4023 62.3371 60.4579 62.4427C60.5134 62.5483 60.5897 62.6416 60.6822 62.717C60.7746 62.7924 60.8814 62.8483 60.996 62.8815C61.4403 63.0257 61.8517 63.2562 62.2067 63.5599C62.5616 63.8635 62.8531 64.2343 63.0643 64.6509C63.2755 65.0676 63.4023 65.5218 63.4375 65.9876C63.4726 66.4534 63.4154 66.9215 63.2691 67.3651C63.1227 67.8087 62.8902 68.2191 62.5849 68.5725C62.2795 68.926 61.9073 69.2157 61.4896 69.4249C61.072 69.6341 60.6171 69.7587 60.1512 69.7916C59.6852 69.8245 59.2174 69.765 58.7745 69.6165C58.5521 69.5571 58.3154 69.5851 58.1131 69.6949C57.9107 69.8047 57.7582 69.9878 57.6867 70.2066C57.6152 70.4254 57.6303 70.6633 57.7289 70.8713C57.8274 71.0793 58.0019 71.2417 58.2165 71.325C58.7568 71.4999 59.3211 71.5895 59.889 71.5905C61.1571 71.5985 62.3863 71.1523 63.354 70.3328C64.3218 69.5132 64.9643 68.3743 65.1653 67.1222C65.3663 65.87 65.1125 64.5873 64.4498 63.506C63.7872 62.4247 62.7594 61.6163 61.5525 61.227L61.554 61.2Z" fill="#1C54F8" stroke="#1C54F8" stroke-width="0.4"></path><path d="M62.1645 20.196C62.0468 20.2109 61.9333 20.2494 61.8308 20.3091C61.7283 20.3688 61.6389 20.4486 61.5679 20.5436C61.4968 20.6387 61.4457 20.747 61.4175 20.8623C61.3892 20.9775 61.3845 21.0972 61.4036 21.2143C61.4226 21.3314 61.465 21.4435 61.5283 21.5438C61.5916 21.6442 61.6745 21.7308 61.772 21.7984C61.8694 21.866 61.9795 21.9133 62.0957 21.9375C62.2118 21.9616 62.3317 21.9622 62.448 21.939C62.9071 21.864 63.3764 21.8802 63.8292 21.9867C64.282 22.0931 64.7095 22.2877 65.0871 22.5593C65.4647 22.8309 65.7851 23.1742 66.03 23.5697C66.2749 23.9651 66.4396 24.4049 66.5145 24.864C66.5895 25.3231 66.5733 25.7924 66.4669 26.2452C66.3604 26.698 66.1658 27.1254 65.8942 27.503C65.6226 27.8806 65.2793 28.2011 64.8838 28.446C64.4884 28.6909 64.0486 28.8555 63.5895 28.9305C63.3584 28.9538 63.1456 29.0667 62.9968 29.2451C62.848 29.4234 62.775 29.653 62.7934 29.8845C62.8119 30.1161 62.9203 30.3312 63.0955 30.4837C63.2707 30.6362 63.4986 30.7141 63.7305 30.7005H63.8715C64.5602 30.5883 65.22 30.3416 65.8133 29.9744C66.4066 29.6072 66.9218 29.1268 67.3294 28.5605C67.737 27.9942 68.0291 27.3532 68.189 26.6741C68.3489 25.9949 68.3735 25.2909 68.2613 24.6022C68.1491 23.9136 67.9024 23.2538 67.5352 22.6605C67.168 22.0672 66.6876 21.552 66.1213 21.1444C65.555 20.7368 64.914 20.4447 64.2348 20.2848C63.5557 20.1249 62.8517 20.1003 62.163 20.2125L62.1645 20.196Z" fill="#1C54F8" stroke="#1C54F8" stroke-width="0.4"></path><path d="M85.284 38.481C85.102 36.6541 84.5008 34.8938 83.5273 33.3372C82.5537 31.7806 81.2341 30.4697 79.671 29.5065C80.2399 27.9657 80.4692 26.3201 80.343 24.6825C79.812 18.2835 74.0235 13.4955 66.51 13.1775L66.1035 12.5565C65.898 12.1937 65.6643 11.8477 65.4045 11.5215C64.7204 10.7958 63.9255 10.1832 63.0495 9.7065C61.0918 8.73681 58.9081 8.31491 56.73 8.4855C55.8985 8.43392 55.1037 8.12459 54.456 7.6005C53.786 7.13263 53.0492 6.76853 52.2705 6.5205C51.1473 6.19978 49.9532 6.2275 48.846 6.6C47.8826 6.89067 47.0327 7.47227 46.4129 8.26504C45.7931 9.05781 45.4337 10.0229 45.384 11.028C45.4365 17.586 45.4905 24.303 45.4905 24.693L45.834 64.6785V64.767C45.8301 64.7964 45.8301 64.8261 45.834 64.8555L45.9405 78.7065C45.9525 79.5791 46.1487 80.4394 46.5163 81.2309C46.8839 82.0224 47.4145 82.7274 48.0735 83.2995C49.639 84.6398 51.6426 85.3578 53.703 85.317C54.0539 85.3258 54.4048 85.3083 54.753 85.2645C59.6295 84.7065 63.5325 81.309 64.125 77.22C69.1515 76.17 72.7365 72.096 72.375 67.6965C72.3211 67.0931 72.1931 66.4987 71.994 65.9265C74.1331 64.7151 75.8968 62.9375 77.0913 60.789C78.2859 58.6405 78.865 56.2042 78.765 53.748C78.6827 52.7898 78.4744 51.8467 78.1455 50.943C80.3864 49.7467 82.2447 47.943 83.5073 45.7388C84.7699 43.5346 85.3857 41.0192 85.284 38.481ZM76.584 49.7385C76.3889 49.844 76.2406 50.019 76.1683 50.2287C76.0961 50.4385 76.1053 50.6677 76.194 50.871C76.612 51.8188 76.869 52.8297 76.9545 53.862C77.3085 58.083 74.7945 62.262 70.4055 64.7565C70.2107 64.8668 70.065 65.0468 69.9976 65.2603C69.9303 65.4738 69.9463 65.7049 70.0425 65.907C70.3307 66.5141 70.5104 67.167 70.5735 67.836C70.866 71.5095 67.6005 74.916 63.1305 75.5985C62.9301 75.6291 62.7463 75.7276 62.6097 75.8775C62.4732 76.0274 62.3923 76.2196 62.3805 76.422C62.2035 79.962 58.8405 83.022 54.513 83.502C53.5701 83.6295 52.611 83.5592 51.6967 83.2955C50.7825 83.0318 49.9332 82.5806 49.203 81.9705C48.7289 81.5631 48.3464 81.0598 48.0809 80.4938C47.8154 79.9279 47.6728 79.3121 47.6625 78.687L47.5965 65.6565H50.889C51.1049 66.5149 51.6271 67.2648 52.3573 67.765C53.0875 68.2652 53.9754 68.4813 54.8538 68.3725C55.7322 68.2637 56.5406 67.8376 57.1268 67.1744C57.7129 66.5112 58.0364 65.6566 58.0364 64.7715C58.0364 63.8864 57.7129 63.0318 57.1268 62.3686C56.5406 61.7054 55.7322 61.2793 54.8538 61.1705C53.9754 61.0617 53.0875 61.2778 52.3573 61.778C51.6271 62.2782 51.1049 63.0281 50.889 63.8865H47.5965L47.535 55.7535H55.5C55.716 56.6143 56.2392 57.3665 56.9711 57.8685C57.7031 58.3704 58.5933 58.5874 59.4741 58.4786C60.3549 58.3698 61.1656 57.9427 61.7534 57.2778C62.3413 56.6129 62.6657 55.756 62.6657 54.8685C62.6657 53.981 62.3413 53.1241 61.7534 52.4592C61.1656 51.7943 60.3549 51.3672 59.4741 51.2584C58.5933 51.1496 57.7031 51.3666 56.9711 51.8685C56.2392 52.3705 55.716 53.1227 55.5 53.9835H51.3V49.0335L64.938 48.945C65.1539 49.8034 65.6761 50.5533 66.4063 51.0535C67.1365 51.5537 68.0244 51.7698 68.9028 51.661C69.7812 51.5522 70.5896 51.1261 71.1758 50.4629C71.7619 49.7997 72.0855 48.9451 72.0855 48.06C72.0855 47.1749 71.7619 46.3203 71.1758 45.6571C70.5896 44.9939 69.7812 44.5678 68.9028 44.459C68.0244 44.3502 67.1365 44.5663 66.4063 45.0665C65.6761 45.5667 65.1539 46.3166 64.938 47.175L50.424 47.2725C50.3078 47.2725 50.1927 47.2954 50.0854 47.3399C49.978 47.3843 49.8804 47.4495 49.7982 47.5317C49.7161 47.6139 49.6509 47.7115 49.6064 47.8188C49.5619 47.9262 49.539 48.0413 49.539 48.1575V53.9805H47.484L47.3865 41.112L61.4325 41.0415C61.6484 41.8999 62.1706 42.6498 62.9008 43.15C63.631 43.6502 64.5189 43.8663 65.3973 43.7575C66.2757 43.6487 67.0841 43.2226 67.6703 42.5594C68.2564 41.8962 68.5799 41.0416 68.5799 40.1565C68.5799 39.2714 68.2564 38.4168 67.6703 37.7536C67.0841 37.0904 66.2757 36.6643 65.3973 36.5555C64.5189 36.4467 63.631 36.6628 62.9008 37.163C62.1706 37.6632 61.6484 38.4131 61.4325 39.2715L47.3955 39.342L47.28 24.633H47.199C47.2605 24.0495 47.2695 23.04 47.2515 21.297H52.7655V30.3075C51.9047 30.5234 51.1525 31.0466 50.6506 31.7786C50.1487 32.5105 49.9317 33.4007 50.0405 34.2816C50.1492 35.1624 50.5763 35.973 51.2412 36.5609C51.9061 37.1487 52.763 37.4732 53.6505 37.4732C54.538 37.4732 55.3949 37.1487 56.0598 36.5609C56.7248 35.973 57.1518 35.1624 57.2606 34.2816C57.3694 33.4007 57.1524 32.5105 56.6505 31.7786C56.1486 31.0466 55.3964 30.5234 54.5355 30.3075L54.483 20.439C54.483 20.2043 54.3898 19.9792 54.2238 19.8132C54.0579 19.6472 53.8328 19.554 53.598 19.554H47.2245L47.154 10.956C47.2057 10.323 47.4507 9.72112 47.8558 9.23199C48.261 8.74286 48.8067 8.3901 49.419 8.2215C50.1968 7.97692 51.0308 7.97692 51.8085 8.2215C52.415 8.42596 52.9855 8.72461 53.499 9.1065C54.4438 9.82213 55.5888 10.2244 56.7735 10.257C58.6386 10.103 60.5105 10.4576 62.19 11.283C62.8867 11.6598 63.5199 12.1437 64.0665 12.717C64.164 12.8325 64.377 13.1775 64.5885 13.5225C65.376 14.7525 65.4735 14.9475 66.0135 14.9565C72.819 15.09 78.1035 19.2495 78.564 24.8565C78.6877 26.4626 78.411 28.0742 77.7585 29.547C77.6854 29.7408 77.6825 29.9542 77.7505 30.1499C77.8185 30.3456 77.953 30.5113 78.1305 30.618C79.6095 31.4077 80.8739 32.5455 81.8148 33.9332C82.7556 35.3209 83.3444 36.9168 83.5305 38.583C83.883 43.0065 81.234 47.2605 76.584 49.7385ZM52.509 64.785C52.5126 65.2942 52.7179 65.7813 53.0798 66.1395C53.4418 66.4977 53.931 66.6978 54.4402 66.696C54.9495 66.6942 55.4372 66.4907 55.7967 66.1299C56.1562 65.7692 56.358 65.2807 56.358 64.7715C56.358 64.2623 56.1562 63.7738 55.7967 63.4131C55.4372 63.0523 54.9495 62.8488 54.4402 62.847C53.931 62.8452 53.4418 63.0453 53.0798 63.4035C52.7179 63.7617 52.5126 64.2488 52.509 64.758V64.785ZM57.1455 54.8565C57.1475 54.4269 57.2983 54.0113 57.5722 53.6803C57.846 53.3493 58.2261 53.1235 58.6478 53.0411C59.0694 52.9588 59.5065 53.025 59.8848 53.2286C60.2631 53.4322 60.5591 53.7606 60.7226 54.1578C60.8861 54.5551 60.907 54.9967 60.7816 55.4076C60.6562 55.8185 60.3923 56.1733 60.0349 56.4116C59.6775 56.6498 59.2485 56.7569 58.821 56.7146C58.3935 56.6723 57.9938 56.4832 57.69 56.1795C57.5168 56.0056 57.3795 55.7992 57.2861 55.5722C57.1926 55.3452 57.1449 55.102 57.1455 54.8565ZM66.5805 48.024C66.5805 47.6546 66.6901 47.2936 66.8953 46.9865C67.1005 46.6794 67.3921 46.44 67.7334 46.2987C68.0746 46.1573 68.4501 46.1203 68.8124 46.1924C69.1746 46.2644 69.5074 46.4423 69.7686 46.7035C70.0297 46.9647 70.2076 47.2974 70.2796 47.6597C70.3517 48.0219 70.3147 48.3974 70.1734 48.7387C70.032 49.0799 69.7927 49.3716 69.4856 49.5768C69.1785 49.782 68.8174 49.8915 68.448 49.8915C67.9527 49.8915 67.4777 49.6947 67.1275 49.3445C66.7773 48.9943 66.5805 48.5193 66.5805 48.024ZM63.0405 40.1205C63.0405 39.7511 63.1501 39.3901 63.3553 39.083C63.5605 38.7759 63.8521 38.5365 64.1934 38.3952C64.5346 38.2538 64.9101 38.2168 65.2724 38.2889C65.6346 38.3609 65.9674 38.5388 66.2286 38.8C66.4897 39.0612 66.6676 39.3939 66.7396 39.7562C66.8117 40.1184 66.7747 40.4939 66.6334 40.8352C66.492 41.1764 66.2527 41.4681 65.9456 41.6733C65.6384 41.8785 65.2774 41.988 64.908 41.988C64.4127 41.988 63.9377 41.7912 63.5875 41.441C63.2373 41.0908 63.0405 40.6158 63.0405 40.1205ZM53.7915 31.9245C54.1609 31.9245 54.5219 32.034 54.8291 32.2392C55.1362 32.4444 55.3755 32.7361 55.5169 33.0773C55.6582 33.4186 55.6952 33.7941 55.6231 34.1563C55.5511 34.5186 55.3732 34.8513 55.1121 35.1125C54.8509 35.3737 54.5181 35.5516 54.1559 35.6236C53.7936 35.6957 53.4181 35.6587 53.0769 35.5173C52.7356 35.376 52.444 35.1366 52.2388 34.8295C52.0336 34.5224 51.924 34.1614 51.924 33.792C51.926 33.298 52.1236 32.8249 52.4737 32.4763C52.8237 32.1277 53.2975 31.932 53.7915 31.932V31.9245Z" fill="#1C54F8" stroke="#1C54F8" stroke-width="0.4"></path><path d="M44.25 7.77C44.4847 7.77 44.7098 7.67676 44.8758 7.51079C45.0418 7.34482 45.135 7.11972 45.135 6.885C45.135 6.65028 45.0418 6.42518 44.8758 6.25921C44.7098 6.09324 44.4847 6 44.25 6H41.595C40.5166 6.0004 39.4824 6.42866 38.7195 7.19078C37.9565 7.9529 37.5271 8.9866 37.5255 10.065C37.5224 10.5624 37.3589 11.0456 37.0592 11.4426C36.7594 11.8396 36.3396 12.1293 35.862 12.2685C33.4799 12.9921 31.183 13.9713 29.0115 15.189C28.5583 15.448 28.0314 15.5478 27.5149 15.4725C26.9984 15.3972 26.5219 15.1511 26.1615 14.7735C25.3971 14.0137 24.3631 13.5872 23.2853 13.5872C22.2074 13.5872 21.1734 14.0137 20.409 14.7735L14.7885 20.415C14.4101 20.7923 14.1099 21.2406 13.9051 21.7342C13.7002 22.2277 13.5948 22.7569 13.5948 23.2913C13.5948 23.8256 13.7002 24.3548 13.9051 24.8483C14.1099 25.3419 14.4101 25.7902 14.7885 26.1675L14.9655 26.3445C15.319 26.6998 15.5474 27.1605 15.6161 27.6571C15.6849 28.1536 15.5902 28.659 15.3465 29.097C14.1886 31.2435 13.2599 33.506 12.576 35.847C12.4426 36.3318 12.154 36.7596 11.7545 37.0649C11.3549 37.3702 10.8663 37.5362 10.3635 37.5375H10.0365C8.96405 37.5489 7.93922 37.9822 7.1838 38.7435C6.42837 39.5048 6.00309 40.533 6 41.6055V49.5705C6.0078 50.6399 6.43516 51.6635 7.19008 52.4209C7.94501 53.1784 8.96715 53.6091 10.0365 53.6205H10.329C10.832 53.6223 11.3205 53.7889 11.7198 54.0948C12.1191 54.4006 12.4072 54.8289 12.54 55.314C13.2218 57.6558 14.1505 59.9185 15.3105 62.064C15.5539 62.5015 15.6492 63.006 15.5822 63.5021C15.5151 63.9982 15.2893 64.4593 14.9385 64.8165L14.7525 65.0025C14.3738 65.3806 14.0734 65.8297 13.8685 66.324C13.6635 66.8183 13.558 67.3481 13.558 67.8833C13.558 68.4184 13.6635 68.9482 13.8685 69.4425C14.0734 69.9369 14.3738 70.3859 14.7525 70.764L20.373 76.3845C21.1378 77.1471 22.1737 77.5753 23.2537 77.5753C24.3338 77.5753 25.3697 77.1471 26.1345 76.3845L26.196 76.323C26.5573 75.9567 27.0312 75.7227 27.5417 75.6585C28.0521 75.5943 28.5693 75.7036 29.01 75.969C31.1824 77.1914 33.4827 78.1708 35.8695 78.8895C36.35 79.0296 36.772 79.3219 37.0721 79.7226C37.3721 80.1232 37.5338 80.6105 37.533 81.111C37.5354 82.1891 37.9653 83.2223 38.7285 83.9838C39.4917 84.7453 40.5259 85.173 41.604 85.173H44.259C44.4937 85.173 44.7188 85.0798 44.8848 84.9138C45.0508 84.7478 45.144 84.5227 45.144 84.288C45.144 84.0533 45.0508 83.8282 44.8848 83.6622C44.7188 83.4962 44.4937 83.403 44.259 83.403H41.604C41.2965 83.4066 40.9914 83.3486 40.7067 83.2324C40.422 83.1161 40.1636 82.9439 39.9465 82.7261C39.7295 82.5082 39.5584 82.2491 39.4432 81.9639C39.328 81.6788 39.2712 81.3735 39.276 81.066C39.2749 80.1879 38.9899 79.3337 38.4636 78.6309C37.9373 77.928 37.1978 77.4142 36.3555 77.166C34.0954 76.4745 31.9147 75.5458 29.85 74.3955C29.0734 73.9559 28.1747 73.7812 27.29 73.8979C26.4053 74.0145 25.5826 74.4161 24.9465 75.042L24.885 75.1125C24.4538 75.542 23.8699 75.7832 23.2612 75.7832C22.6526 75.7832 22.0688 75.542 21.6375 75.1125L16.0005 69.555C15.571 69.1238 15.3298 68.5399 15.3298 67.9313C15.3298 67.3226 15.571 66.7388 16.0005 66.3075L16.1865 66.1215C16.8088 65.4972 17.2116 64.6877 17.3344 63.8148C17.4572 62.942 17.2933 62.0528 16.8675 61.281C15.7618 59.2432 14.872 57.0956 14.2125 54.873C13.9842 54.0143 13.4806 53.2541 12.7788 52.709C12.0771 52.1639 11.216 51.8639 10.3275 51.855H10.0365C9.43479 51.8433 8.8614 51.5972 8.43837 51.1691C8.01534 50.7411 7.77608 50.1648 7.7715 49.563V41.598C7.77387 40.9885 8.01706 40.4046 8.44807 39.9736C8.87907 39.5426 9.46297 39.2994 10.0725 39.297H10.365C11.2513 39.2972 12.1133 39.0075 12.8196 38.472C13.5259 37.9366 14.0378 37.1849 14.277 36.3315C14.9312 34.1075 15.8212 31.9598 16.932 29.925C17.3567 29.1523 17.5191 28.2626 17.3946 27.3896C17.2702 26.5167 16.8657 25.7078 16.242 25.0845L16.065 24.9075C15.6349 24.4747 15.3936 23.8894 15.3936 23.2792C15.3936 22.6691 15.6349 22.0838 16.065 21.651L21.6945 16.0215C21.9144 15.8055 22.1753 15.6354 22.4617 15.5214C22.7481 15.4073 23.0544 15.3515 23.3627 15.3572C23.6709 15.363 23.9749 15.4301 24.2569 15.5547C24.5389 15.6793 24.7932 15.8589 25.005 16.083C25.6408 16.709 26.4629 17.1114 27.3473 17.2296C28.2317 17.3479 29.1306 17.1755 29.9085 16.7385C31.9733 15.5795 34.1575 14.6476 36.423 13.959C37.2653 13.7108 38.0048 13.197 38.5311 12.4941C39.0574 11.7913 39.3424 10.9371 39.3435 10.059C39.3427 9.75713 39.4016 9.45807 39.5167 9.17901C39.6318 8.89994 39.8009 8.64636 40.0143 8.43284C40.2277 8.21931 40.4811 8.05004 40.7601 7.93474C41.0391 7.81945 41.3381 7.76041 41.64 7.761L44.25 7.77Z" fill="#1C54F8" stroke="#1C54F8" stroke-width="0.4"></path><path d="M39.801 18.381C40.0287 18.3293 40.2266 18.1892 40.3511 17.9916C40.4756 17.794 40.5164 17.555 40.4647 17.3272C40.413 17.0995 40.2729 16.9016 40.0753 16.7771C39.8777 16.6527 39.6387 16.6118 39.411 16.6635C33.6802 17.9797 28.4636 20.9532 24.411 25.2135C20.8303 29.0125 18.3333 33.7018 17.18 38.7933C16.0266 43.8847 16.259 49.1923 17.853 54.1635C19.2966 59.1748 22.0583 63.7069 25.8502 67.2872C29.6421 70.8674 34.3252 73.3647 39.411 74.5185H39.606C39.7245 74.5361 39.8454 74.5297 39.9614 74.4995C40.0774 74.4694 40.1861 74.4161 40.2811 74.3429C40.376 74.2698 40.4552 74.1782 40.5139 74.0737C40.5727 73.9692 40.6097 73.8539 40.6228 73.7348C40.6359 73.6156 40.6249 73.4951 40.5903 73.3803C40.5558 73.2655 40.4984 73.1589 40.4217 73.0668C40.3449 72.9747 40.2504 72.8991 40.1438 72.8444C40.0371 72.7897 39.9205 72.7571 39.801 72.7485C35.0256 71.6583 30.6292 69.3095 27.0682 65.9462C23.5073 62.5828 20.9117 58.3274 19.551 53.622C18.06 48.9458 17.8482 43.9557 18.9376 39.17C20.027 34.3843 22.3778 29.9776 25.746 26.4075C29.5458 22.4156 34.4321 19.6261 39.801 18.381Z" fill="#1C54F8" stroke="#1C54F8" stroke-width="0.4"></path></g></g><defs><clipPath id="clip0_5_275"><rect width="90" height="90" fill="white"></rect></clipPath></defs></svg> 