<?xml version="1.0" encoding="UTF-8"?> <svg xmlns="http://www.w3.org/2000/svg" xmlns:xlink="http://www.w3.org/1999/xlink" width="90" height="90" viewBox="0 0 90 90"><defs><clipPath id="clip-path"><rect id="Rectangle_22" data-name="Rectangle 22" width="90" height="90" transform="translate(788 470)" fill="#fff" stroke="#707070" stroke-width="1"></rect></clipPath></defs><g id="Mask_Group_18" data-name="Mask Group 18" transform="translate(-788 -470)" clip-path="url(#clip-path)"><g id="Group_14" data-name="Group 14" transform="translate(-212.621 181)"><path id="Path_64" data-name="Path 64" d="M69.112,26.712,61.735,20.56a7.1,7.1,0,0,0-3.88-1.67A4.452,4.452,0,0,0,54,20.355l-5.737,6.883L26.35,53.51l.013.011a1.811,1.811,0,0,0-.438,1.2l.289,14.246a1.831,1.831,0,0,0,1.831,1.793,1.762,1.762,0,0,0,.366-.037l13.7-2.787a1.81,1.81,0,0,0,1.028-.632l.013.011,21.8-26.141,5.737-6.883C72.423,32.22,71.725,28.892,69.112,26.712ZM29.831,66.7l-.165-8.083,7.934,6.5ZM41.5,63.575,30.345,54.436l19.55-23.443,11.077,9.239ZM67.885,31.945,63.317,37.42,52.24,28.186l4.569-5.477a.93.93,0,0,1,.74-.166,3.464,3.464,0,0,1,1.841.832l7.376,6.152C67.913,30.481,68.144,31.636,67.885,31.945Z" transform="translate(1012.583 298.959)" fill="#1c54f8" stroke="#fff" stroke-width="1"></path><path id="Path_65" data-name="Path 65" d="M25.461,59.731a1.811,1.811,0,0,0-.286-.148c-.011,0-.021-.012-.032-.016a1.831,1.831,0,0,0-.654-.128h-.035a1.82,1.82,0,0,0-.654.122l-.032.01a1.807,1.807,0,0,0-.594.394h0l-.009.009-4.638,4.638a2.622,2.622,0,0,1-3.694,0l-1.28-1.282a2.62,2.62,0,0,1,0-3.689L18.191,55H18.2V55a1.84,1.84,0,0,0,.393-.591.11.11,0,0,1,.01-.034,1.819,1.819,0,0,0,.122-.654.3.3,0,0,0,0-.033,1.816,1.816,0,0,0-.122-.658L18.587,53a1.783,1.783,0,0,0-.15-.292,22.711,22.711,0,0,1-3.174-7.663c-.006-.028-.018-.052-.026-.079a1.831,1.831,0,0,0-.084-.262c-.02-.044-.045-.082-.067-.122a1.7,1.7,0,0,0-.106-.189c-.027-.038-.06-.071-.089-.107a1.8,1.8,0,0,0-.14-.164c-.027-.027-.059-.048-.087-.072a1.746,1.746,0,0,0-.19-.15c-.024-.016-.051-.027-.077-.042a1.709,1.709,0,0,0-.234-.122c-.031-.012-.063-.018-.094-.029a1.653,1.653,0,0,0-.244-.072c-.059-.011-.122-.012-.178-.018a1.573,1.573,0,0,0-.173-.017H6.9a2.618,2.618,0,0,1-2.615-2.615V39.193A2.618,2.618,0,0,1,6.9,36.578h6.585a1.817,1.817,0,0,0,.543-.094c.031-.01.06-.016.088-.027a1.8,1.8,0,0,0,.461-.258c.027-.02.05-.04.076-.062a1.864,1.864,0,0,0,.358-.4c.012-.02.021-.04.032-.06a1.819,1.819,0,0,0,.217-.537v-.01a22.736,22.736,0,0,1,3.174-7.662,1.831,1.831,0,0,0,.15-.292l.012-.024a1.8,1.8,0,0,0,.128-.659.28.28,0,0,0,0-.032,1.847,1.847,0,0,0-.128-.654.11.11,0,0,0-.01-.034,1.805,1.805,0,0,0-.4-.593h0l-.01-.011-4.632-4.632a2.621,2.621,0,0,1,0-3.694l1.28-1.282a2.621,2.621,0,0,1,3.689,0l4.652,4.651c.007.009.018.01.026.018a1.841,1.841,0,0,0,.527.35c.044.018.087.034.131.05a1.822,1.822,0,0,0,.61.122h0a1.831,1.831,0,0,0,.61-.122c.06-.022.112-.051.17-.078a1.77,1.77,0,0,0,.214-.1,22.72,22.72,0,0,1,7.661-3.174c.023,0,.042-.016.063-.021a1.831,1.831,0,0,0,.281-.09c.045-.02.085-.046.129-.07a2.011,2.011,0,0,0,.181-.1,1.729,1.729,0,0,0,.137-.114c.044-.037.092-.072.132-.112a1.741,1.741,0,0,0,.112-.135c.037-.045.077-.089.11-.139s.055-.1.082-.15a1.811,1.811,0,0,0,.083-.161A1.675,1.675,0,0,0,34.484,16c.015-.05.034-.1.045-.151a1.908,1.908,0,0,0,.027-.266c0-.031.009-.06.009-.092V8.9a2.617,2.617,0,0,1,2.616-2.615h1.793A2.617,2.617,0,0,1,41.6,8.9v6.573c0,.04.009.077.011.122a1.937,1.937,0,0,0,.024.244,1.643,1.643,0,0,0,.051.172c.017.056.029.114.051.167a1.773,1.773,0,0,0,.09.172,1.534,1.534,0,0,0,.076.139q.107.14.222.275a1.623,1.623,0,0,0,.131.112,1.779,1.779,0,0,0,.139.115c.054.037.114.065.171.1s.09.054.139.076a1.808,1.808,0,0,0,.258.082c.029.009.055.022.084.028a22.738,22.738,0,0,1,7.663,3.174,2.029,2.029,0,0,0,.21.1c.059.028.114.057.173.079a1.626,1.626,0,0,0,1.221,0c.045-.016.087-.031.131-.049a1.815,1.815,0,0,0,.527-.35c.007-.007.018-.01.026-.018l4.646-4.646a2.624,2.624,0,0,1,3.694,0l1.282,1.282a2.6,2.6,0,0,1,.64,2.588c.14,0,.28,0,.422.011a9.631,9.631,0,0,1,3.124.839,6.249,6.249,0,0,0-1.6-6.026l-1.28-1.282a6.291,6.291,0,0,0-8.868,0l-3.651,3.652a26.3,26.3,0,0,0-6.151-2.552V8.9a6.284,6.284,0,0,0-6.278-6.277H37.188A6.284,6.284,0,0,0,30.91,8.9v5.162a26.244,26.244,0,0,0-6.151,2.551L21.1,12.951a6.29,6.29,0,0,0-8.863,0l-1.28,1.282a6.29,6.29,0,0,0,0,8.867l3.657,3.664a26.3,26.3,0,0,0-2.551,6.151H6.9A6.284,6.284,0,0,0,.621,39.189v1.794A6.284,6.284,0,0,0,6.9,47.26H12.06a26.3,26.3,0,0,0,2.551,6.151l-3.662,3.662a6.288,6.288,0,0,0,0,8.862l1.28,1.282a6.291,6.291,0,0,0,8.867,0l3.668-3.657A26.245,26.245,0,0,0,28.6,65.35l-.081-3.972a22.865,22.865,0,0,1-3.063-1.647Z" transform="translate(1007 295.377)" fill="#1c54f8" stroke="#fff" stroke-width="1"></path><path id="Path_66" data-name="Path 66" d="M21.053,36.386a13.315,13.315,0,0,1,24.013-7.943l2.4-2.884A16.985,16.985,0,1,0,26.086,51.2l2.4-2.877A13.334,13.334,0,0,1,21.053,36.386Z" transform="translate(1010.7 299.077)" fill="#1c54f8" stroke="#fff" stroke-width="1"></path></g></g></svg> 