<?xml version="1.0" encoding="UTF-8"?> <svg xmlns="http://www.w3.org/2000/svg" id="Layer_1" data-name="Layer 1" viewBox="0 0 66 66.55"><defs><style>.cls-1{fill:#1b54f8;}</style></defs><g id="Social-Media-Applications"><g id="Group-32"><path id="Shape" class="cls-1" d="M40.37,36.85a.83.83,0,0,0,.16-.21,18.93,18.93,0,1,0-.16.21ZM25.6,9a16.56,16.56,0,0,1,14,25.52,18.48,18.48,0,0,0-8.16-5.4h0a1.66,1.66,0,0,0-.22,0,1,1,0,0,0-.17,0,.75.75,0,0,0-.16,0,.86.86,0,0,0-.21.07l-.1.08a1.56,1.56,0,0,0-.2.16h0a6.08,6.08,0,0,1-9.44,0,1,1,0,0,0-1.09-.31h0a18.51,18.51,0,0,0-8.17,5.4A16.58,16.58,0,0,1,25.6,9Zm0,33.2a16.56,16.56,0,0,1-12.76-6,16.38,16.38,0,0,1,7-5,8.05,8.05,0,0,0,11.57,0,16.47,16.47,0,0,1,7,5A16.59,16.59,0,0,1,25.6,42.2Z" transform="translate(-7 -7)"></path><path id="Shape-2" data-name="Shape" class="cls-1" d="M25.6,28.5a6.14,6.14,0,1,0-6.14-6.14A6.15,6.15,0,0,0,25.6,28.5Zm0-10.27a4.14,4.14,0,1,1-4.14,4.13A4.14,4.14,0,0,1,25.6,18.23Z" transform="translate(-7 -7)"></path><path id="Shape-3" data-name="Shape" class="cls-1" d="M54.4,36.35A18.6,18.6,0,1,0,69.17,66.21a1.12,1.12,0,0,0,.16-.22A18.41,18.41,0,0,0,73,55,18.62,18.62,0,0,0,54.4,36.35Zm0,2a16.58,16.58,0,0,1,14,25.52,18.51,18.51,0,0,0-8.17-5.4h0a1.75,1.75,0,0,0-.24,0h-.14a1.29,1.29,0,0,0-.21.06,1,1,0,0,0-.16,0,.64.64,0,0,0-.13.1l-.17.14,0,0a6.09,6.09,0,0,1-9.44,0,1,1,0,0,0-1.09-.32h0a18.48,18.48,0,0,0-8.16,5.4,16.56,16.56,0,0,1,14-25.52Zm0,33.2a16.59,16.59,0,0,1-12.76-6,16.36,16.36,0,0,1,7-4.95,8.08,8.08,0,0,0,11.57,0,16.27,16.27,0,0,1,7,4.95A16.56,16.56,0,0,1,54.4,71.55Z" transform="translate(-7 -7)"></path><path id="Shape-4" data-name="Shape" class="cls-1" d="M54.4,57.85a6.14,6.14,0,1,0-6.14-6.13A6.14,6.14,0,0,0,54.4,57.85Zm0-10.27a4.14,4.14,0,1,1-4.14,4.14A4.14,4.14,0,0,1,54.4,47.58Z" transform="translate(-7 -7)"></path><path id="Path" class="cls-1" d="M55.28,12.88a1,1,0,0,0-1.42-.05l-4,3.73h0a1.51,1.51,0,0,0-.18.26s0,0,0,.06a1.1,1.1,0,0,0-.08.4,1,1,0,0,0,.08.39l0,.06a1,1,0,0,0,.18.26v0l4,3.72a1,1,0,0,0,.69.27,1,1,0,0,0,.73-.31,1,1,0,0,0-.05-1.42l-2.12-2H65.28V32.6a1,1,0,0,0,2,0V17.29a1,1,0,0,0-1-1H53.1l2.13-2A1,1,0,0,0,55.28,12.88Z" transform="translate(-7 -7)"></path><path id="Path-2" data-name="Path" class="cls-1" d="M35,66H18.89V52l2.43,2.6a1,1,0,0,0,1.42,0,1,1,0,0,0,0-1.41l-4.16-4.44h0a1,1,0,0,0-.27-.19l-.06,0a.86.86,0,0,0-.39-.09.93.93,0,0,0-.4.09s0,0,0,0a1,1,0,0,0-.27.18h0L13,53.19a1,1,0,0,0,.72,1.68,1,1,0,0,0,.73-.31L16.89,52V67a1,1,0,0,0,1,1H35a1,1,0,1,0,0-2Z" transform="translate(-7 -7)"></path></g></g></svg> 