<?xml version="1.0" encoding="UTF-8"?> <svg xmlns="http://www.w3.org/2000/svg" width="60" height="60" viewBox="0 0 60 60"><g id="Group_2784" data-name="Group 2784" transform="translate(-810 -5507)"><g id="Group_1937" data-name="Group 1937" transform="translate(810 5507)" opacity="0"><rect id="Rectangle_635" data-name="Rectangle 635" width="60" height="60" fill="#bcbcbc" opacity="0.84"></rect></g><path id="Customer_Support" data-name="Customer Support" d="M61.205,41.133a8.265,8.265,0,0,0-2.869-6.293v-.5A21.833,21.833,0,0,0,53.1,20.493C49.577,16.315,45,14,40.264,14H36.99C26.623,14,18.923,24.722,18.923,34.337v.452A8.326,8.326,0,0,0,21.74,49.036a5.056,5.056,0,0,0,9.615-2.165V35.7a5.048,5.048,0,0,0-5.034-5.034,4.977,4.977,0,0,0-4.38,2.567,9.1,9.1,0,0,0-1.057.4c.353-8.407,7.249-17.719,16.106-17.719h3.275c8.809,0,15.756,9.313,16.159,17.668a8.534,8.534,0,0,0-1.359-.5,5.142,5.142,0,0,0-4.329-2.467A5.048,5.048,0,0,0,45.7,35.644V46.869a5.037,5.037,0,0,0,4.228,4.982v2.517a3.587,3.587,0,0,1-3.574,3.579H42.78a4.346,4.346,0,0,0-4.027-1.963c-2.366,0-4.228,1.308-4.228,2.922,0,1.661,1.86,2.922,4.228,2.922a4.345,4.345,0,0,0,4.027-1.963h3.575a5.5,5.5,0,0,0,5.487-5.487V51.8a5.142,5.142,0,0,0,3.423-2.669,8.384,8.384,0,0,0,5.941-8ZM26.321,32.525a3.137,3.137,0,0,1,3.122,3.122V46.871a3.122,3.122,0,0,1-6.243,0V35.7a3.085,3.085,0,0,1,3.122-3.172ZM21.236,35.7V46.771a6.443,6.443,0,0,1,0-11.276ZM38.7,59.91c-1.461,0-2.316-.654-2.316-1.007S37.294,57.9,38.7,57.9c1.461,0,2.316.654,2.316,1.007.049.353-.857,1.007-2.317,1.007Zm12.03-9.867a3.137,3.137,0,0,1-3.122-3.122V35.7a3.122,3.122,0,1,1,6.243,0V46.921a3.136,3.136,0,0,1-3.122,3.122Zm5.034-3.172V35.394a6.435,6.435,0,0,1,0,11.477Z" transform="translate(801.305 5498.978)" fill="#1b54f8" stroke="#fff" stroke-width="0.4"></path></g></svg> 