<?xml version="1.0" encoding="UTF-8"?> <!-- Generator: Adobe Illustrator 25.2.3, SVG Export Plug-In . SVG Version: 6.00 Build 0) --> <svg xmlns="http://www.w3.org/2000/svg" xmlns:xlink="http://www.w3.org/1999/xlink" version="1.1" id="Layer_1" x="0px" y="0px" viewBox="0 0 80 80" style="enable-background:new 0 0 80 80;" xml:space="preserve"> <style type="text/css"> .st0{fill:#1B54F8;} </style> <desc>Created with Sketch.</desc> <g id="Cutting-Edge-Technology"> <g id="Shape-7" transform="translate(13.000000, 14.000000)"> <path id="Shape" class="st0" d="M6,51.9h42c3.2,0,5.9-2.7,5.9-5.9v-1.1c0-0.6-0.4-1.1-1.1-1.1h-1.6V11c0-1.9-1.6-3.6-3.6-3.6h-9.1 C38,6.1,37,4.7,35.9,3.6c-2.6-2.5-5.9-3.8-9.5-3.6c-4.8,0.2-9.1,3.2-11,7.5H6.3c-1.9,0-3.6,1.6-3.6,3.6v32.7H1.1 c-0.6,0-1.1,0.4-1.1,1.1v1.1C0,49.2,2.7,51.9,6,51.9z M26.6,2.2c2.9-0.1,5.7,1,7.9,3s3.2,4.8,3.2,7.8s-1.2,5.8-3.5,7.9 c-2.1,1.9-3.6,4.4-4,7.1h-2.2V16.5c1.5-0.4,2.7-1.9,2.7-3.6c0-2.1-1.7-3.8-3.8-3.8s-3.8,1.7-3.8,3.8c0,1.7,1.2,3.1,2.7,3.6V28 h-2.2c-0.5-2.7-1.9-5.2-4.1-7.2c-2.4-2.2-3.6-5.3-3.3-8.5c0.1-1.1,0.3-2.2,0.8-3.2l0,0C18.6,5.2,22.2,2.4,26.6,2.2z M31.1,32.3 h-0.5l0,0l0,0h-7.1l0,0l0,0H23c-0.3,0-0.6-0.3-0.6-0.6v-1c0-0.3,0.3-0.6,0.6-0.6h8.2c0.3,0,0.6,0.3,0.6,0.6v1 C31.8,32.1,31.5,32.3,31.1,32.3z M29.3,34.5c-0.4,0.9-1.3,1.4-2.3,1.4s-1.8-0.6-2.3-1.4H29.3z M27,14.5c-0.9,0-1.6-0.8-1.6-1.6 s0.8-1.6,1.6-1.6s1.6,0.8,1.6,1.6S27.9,14.5,27,14.5z M4.9,11c0-0.8,0.6-1.4,1.4-1.4h8.3c-0.2,0.8-0.3,1.6-0.4,2.4 c-0.2,3.9,1.3,7.6,4.1,10.2c1.7,1.6,2.9,3.8,3.3,5.9c-0.9,0.4-1.5,1.4-1.5,2.5v1c0,1.4,1.1,2.6,2.4,2.8c0.4,2.1,2.4,3.7,4.5,3.7 c2.3,0,4.1-1.5,4.5-3.7c1.3-0.2,2.4-1.4,2.4-2.8v-1c0-1.1-0.6-2.1-1.5-2.5c0.4-2.3,1.6-4.3,3.3-5.9c2.6-2.4,4.1-5.8,4.1-9.4 c0-1.1-0.1-2.2-0.4-3.2h8.3c0.8,0,1.4,0.6,1.4,1.4v32.7H4.9V11z M3.8,45.9L3.8,45.9h46.4l0,0h1.6c0,2.1-1.7,3.8-3.8,3.8H6 c-2.1,0-3.8-1.7-3.8-3.8H3.8z"></path> </g> </g> </svg> 