<?xml version="1.0" encoding="UTF-8"?> <!-- Generator: Adobe Illustrator 25.2.3, SVG Export Plug-In . SVG Version: 6.00 Build 0) --> <svg xmlns="http://www.w3.org/2000/svg" xmlns:xlink="http://www.w3.org/1999/xlink" version="1.1" id="Layer_1" x="0px" y="0px" viewBox="0 0 80 80" style="enable-background:new 0 0 80 80;" xml:space="preserve"> <style type="text/css"> .st0{fill-rule:evenodd;clip-rule:evenodd;fill:#1B54F8;} </style> <desc>Created with Sketch.</desc> <g id="dApp_Development"> <path id="Fill-1" class="st0" d="M59.1,14l-13.9,8.1v5.7l-4.9-2.8l-13.9,8.1v5.9l-5.4-3.1L7,43.8v16.1L20.9,68l13.9-8.1V54l5.4,3.1 l13.9-8.1v-5.7l4.9,2.8L73,38.2V22.1L59.1,14z M48.7,22.8l10.3-6l10.3,6l-10.3,6L48.7,22.8z M60.3,30.8l10.3-6v11.9l-10.3,6 L60.3,30.8z M54.2,40.6v-7.7l-6.6-3.8v-4.3l10.3,6l0,11.9L54.2,40.6z M29.9,33.6l10.3-6l4.9,2.8v6.3l-4.9,2.8L29.9,33.6z M47.5,31.9l3,1.7l-3,1.7V31.9z M34.9,51.2v-7.4l-6.2-3.6v-4.5l10.3,6l0,11.9L34.9,51.2z M48.8,37.5l3-1.7v3.5L48.8,37.5z M10.6,44.5l10.3-6l5.4,3.1v5.7l-5.4,3.1L10.6,44.5z M41.4,41.7l4.9-2.8l5.4,3.1v5.7l-10.3,6L41.4,41.7z M28.7,43.1l2.5,1.5 L28.7,46V43.1z M29.7,48.2l2.8-1.6v3.2L29.7,48.2z M9.4,58.5V46.6h0l10.3,6l0,11.9L9.4,58.5z M22.1,52.6l5.1-3l5.2,3v5.9l-10.3,6 L22.1,52.6z"></path> </g> </svg> 