<?xml version="1.0" encoding="UTF-8"?> <svg xmlns="http://www.w3.org/2000/svg" width="90" height="90" viewBox="0 0 90 90" fill="none"><mask id="mask0_12_31" style="mask-type:alpha" maskUnits="userSpaceOnUse" x="0" y="0" width="90" height="90"><rect width="90" height="90" fill="#D9D9D9"></rect></mask><g mask="url(#mask0_12_31)"><path d="M25.7808 39.576C25.8031 39.2679 25.9471 38.9812 26.1813 38.7786C26.4155 38.576 26.7208 38.474 27.0304 38.4949C27.6414 38.5367 28.2546 38.5367 28.8657 38.4949C29.0248 38.4733 29.1867 38.4844 29.3414 38.5276C29.496 38.5709 29.6401 38.6452 29.7646 38.7461C29.8892 38.847 29.9917 38.9722 30.0656 39.1141C30.1396 39.256 30.1835 39.4115 30.1947 39.5709C30.2058 39.7304 30.1839 39.8904 30.1304 40.0411C30.0768 40.1918 29.9928 40.33 29.8834 40.447C29.774 40.5641 29.6417 40.6576 29.4945 40.7216C29.3474 40.7857 29.1886 40.8191 29.028 40.8196C28.6701 40.8449 28.3064 40.8575 27.9524 40.8575C27.5985 40.8575 27.2299 40.8449 26.872 40.8196C26.5616 40.7986 26.2723 40.6558 26.0677 40.4226C25.8631 40.1894 25.7599 39.8849 25.7808 39.576ZM26.8671 55.1455C27.225 55.1708 27.5877 55.1834 27.9476 55.1834C28.3074 55.1834 28.6711 55.1708 29.0231 55.1455C29.1837 55.145 29.3425 55.1116 29.4897 55.0475C29.6368 54.9835 29.7691 54.89 29.8785 54.7729C29.9879 54.6559 30.0719 54.5177 30.1255 54.367C30.179 54.2163 30.2009 54.0563 30.1898 53.8968C30.1786 53.7374 30.1347 53.5819 30.0608 53.44C29.9868 53.2981 29.8843 53.1729 29.7598 53.072C29.6352 52.9711 29.4911 52.8968 29.3365 52.8535C29.1818 52.8103 29.0199 52.7992 28.8608 52.8208C28.2498 52.8626 27.6366 52.8626 27.0255 52.8208C26.8664 52.7992 26.7046 52.8103 26.55 52.8535C26.3954 52.8967 26.2513 52.971 26.1268 53.0718C26.0022 53.1727 25.8997 53.2979 25.8257 53.4397C25.7518 53.5815 25.7078 53.7369 25.6966 53.8964C25.6854 54.0558 25.7072 54.2158 25.7606 54.3665C25.8141 54.5171 25.898 54.6553 26.0073 54.7724C26.1166 54.8895 26.2488 54.983 26.3959 55.0472C26.5429 55.1114 26.7017 55.1448 26.8622 55.1455H26.8671ZM28.8667 67.1486C28.256 67.1905 27.6431 67.1905 27.0324 67.1486C26.7345 67.1474 26.4473 67.2589 26.2291 67.4607C26.0108 67.6624 25.8778 67.9392 25.857 68.2349C25.8363 68.5306 25.9293 68.8231 26.1172 69.0531C26.3051 69.2831 26.5739 69.4333 26.8691 69.4733C27.2269 69.4986 27.5907 69.5113 27.9495 69.5113C28.3084 69.5113 28.6731 69.4986 29.0251 69.4733C29.1856 69.4727 29.3444 69.4392 29.4914 69.3751C29.6385 69.3109 29.7707 69.2174 29.88 69.1003C29.9892 68.9832 30.0732 68.845 30.1266 68.6943C30.1801 68.5436 30.2019 68.3836 30.1907 68.2242C30.1795 68.0648 30.1355 67.9094 30.0615 67.7675C29.9876 67.6257 29.8851 67.5005 29.7605 67.3997C29.636 67.2989 29.4919 67.2246 29.3373 67.1814C29.1827 67.1382 29.0209 67.127 28.8618 67.1486H28.8667ZM72.6613 60.8741V65.4428C72.6606 66.0421 72.421 66.6166 71.9952 67.0403C71.5694 67.4641 70.9921 67.7025 70.39 67.7033H68.6446C68.3537 68.6489 67.9722 69.5646 67.5055 70.4377L68.7404 71.6677C69.1658 72.0917 69.4047 72.6663 69.4047 73.2655C69.4047 73.8646 69.1658 74.4393 68.7404 74.8633L65.4942 78.095C65.0679 78.5181 64.4903 78.7557 63.8882 78.7557C63.2861 78.7557 62.7086 78.5181 62.2822 78.095L61.0473 76.866C60.1696 77.3308 59.2488 77.7101 58.2978 77.9986V79.7395C58.2973 80.3387 58.0579 80.9132 57.6323 81.337C57.2066 81.7608 56.6295 81.9992 56.0274 82H51.4318C50.8305 81.9979 50.2545 81.759 49.8297 81.3354C49.405 80.9117 49.1661 80.3379 49.1653 79.7395V77.9986C48.215 77.7098 47.2949 77.3305 46.4178 76.866L45.1828 78.095C44.7565 78.5181 44.179 78.7557 43.5768 78.7557C42.9747 78.7557 42.3972 78.5181 41.9708 78.095L39.3612 75.4978C35.6102 76.297 31.7835 76.6915 27.9476 76.6743C12.837 76.6743 1 71.0332 1 63.8323V20.8449C1 13.644 12.836 8 27.9466 8C43.0572 8 54.8941 13.644 54.8941 20.8449V44.3188H56.0274C56.6296 44.3196 57.207 44.5582 57.6326 44.9822C58.0583 45.4062 58.2975 45.9809 58.2978 46.5803V48.3183C59.2485 48.6069 60.1689 48.9862 61.0463 49.4509L62.2812 48.2219C62.7077 47.799 63.2852 47.5615 63.8872 47.5615C64.4893 47.5615 65.0668 47.799 65.4932 48.2219L68.7395 51.4536C69.1649 51.8777 69.4038 52.4526 69.4038 53.0519C69.4038 53.6512 69.1649 54.226 68.7395 54.6502L67.5055 55.8792C67.9727 56.752 68.3538 57.6677 68.6436 58.6136H70.39C70.9921 58.6144 71.5694 58.8528 71.9952 59.2765C72.421 59.7003 72.6606 60.2748 72.6613 60.8741ZM3.34667 20.8449C3.34667 23.442 5.8488 26.0645 10.2107 28.0458C14.9294 30.1866 21.2302 31.3611 27.9515 31.3611C34.6727 31.3611 40.9735 30.1836 45.6932 28.0458C50.0551 26.0694 52.5563 23.4469 52.5563 20.8449C52.5563 18.2428 50.0551 15.6252 45.6932 13.6488C40.9735 11.508 34.6727 10.3335 27.9515 10.3335C21.2302 10.3335 14.9304 11.5109 10.2107 13.6488C5.84489 15.6252 3.34667 18.2477 3.34667 20.8449ZM3.34667 35.1785C3.34667 37.7757 5.8488 40.3982 10.2107 42.3795C14.9294 44.5203 21.2302 45.6948 27.9515 45.6948C34.6727 45.6948 40.9696 44.5134 45.6893 42.3726C50.0512 40.3963 52.5524 37.7738 52.5524 35.1717V26.1735C48.3802 30.6439 39.0473 33.6868 27.9476 33.6868C16.8478 33.6868 7.51591 30.6439 3.34667 26.1735V35.1785ZM3.34667 49.5054C3.34667 52.1026 5.8488 54.7251 10.2107 56.7015C14.9304 58.8423 21.2302 60.0168 27.9515 60.0168C30.3951 60.0196 32.836 59.8571 35.2574 59.5303C35.4681 59.2469 35.7425 59.0166 36.0586 58.8578C36.3748 58.699 36.7239 58.616 37.078 58.6155H38.8204C39.1106 57.6698 39.4918 56.7541 39.9586 55.8811L38.7236 54.6521C38.2987 54.2277 38.0601 53.653 38.0601 53.0538C38.0601 52.4547 38.2987 51.8799 38.7236 51.4555L41.9689 48.2219C42.3954 47.799 42.9729 47.5615 43.5749 47.5615C44.1769 47.5615 44.7544 47.799 45.1809 48.2219L46.4158 49.4509C47.293 48.9864 48.2131 48.6071 49.1634 48.3183V46.5803C49.1639 45.9805 49.4036 45.4054 49.8299 44.9814C50.2561 44.5574 50.834 44.3191 51.4367 44.3188H52.5524V40.5072C48.3802 44.9766 39.0473 48.0166 27.9476 48.0166C16.8478 48.0166 7.51591 44.9766 3.34667 40.5072V49.5054ZM27.9476 74.3427C31.3434 74.3507 34.732 74.0303 38.0656 73.3862C38.0475 73.0698 38.0968 72.7531 38.2102 72.457C38.3236 72.1608 38.4986 71.8919 38.7236 71.6677L39.9586 70.4387C39.492 69.5653 39.1109 68.6493 38.8204 67.7033H37.0741C36.472 67.7025 35.8947 67.4641 35.4689 67.0403C35.0431 66.6166 34.8035 66.0421 34.8028 65.4428V61.9396C32.5282 62.2148 30.2389 62.3519 27.9476 62.3503C16.8488 62.3503 7.512 59.3064 3.34276 54.837V63.8352C3.34276 66.4324 5.84489 69.0549 10.2068 71.0361C14.9265 73.1662 21.2263 74.3427 27.9476 74.3427ZM70.3244 60.9442H67.7509C67.4884 60.9437 67.2335 60.8557 67.0272 60.6941C66.8209 60.5325 66.6749 60.3067 66.6128 60.0528C66.2907 58.7241 65.7615 57.4537 65.0444 56.2879C64.9077 56.0646 64.8502 55.802 64.8812 55.5423C64.9122 55.2825 65.03 55.0407 65.2156 54.8555L67.0323 53.0475L63.8858 49.9161L62.0691 51.7241C61.8831 51.9086 61.6402 52.0256 61.3795 52.0565C61.1187 52.0873 60.8551 52.0303 60.6308 51.8944C59.4604 51.1824 58.1852 50.6571 56.8516 50.3374C56.5964 50.2758 56.3692 50.1306 56.2067 49.9253C56.0441 49.7199 55.9555 49.4662 55.955 49.2047V46.6543H51.5071V49.2106C51.5067 49.4719 51.4182 49.7255 51.2558 49.9309C51.0935 50.1362 50.8666 50.2814 50.6115 50.3433C49.2778 50.6628 48.0027 51.1882 46.8324 51.9002C46.6079 52.0364 46.3441 52.0936 46.0831 52.0627C45.8222 52.0318 45.5792 51.9146 45.3931 51.7299L43.5764 49.9219L40.4299 53.0533L42.2466 54.8613C42.4322 55.0465 42.5499 55.2884 42.5809 55.5481C42.612 55.8078 42.5545 56.0704 42.4177 56.2937C41.7022 57.4585 41.1743 58.7275 40.8532 60.0548C40.7911 60.3086 40.6452 60.5344 40.4389 60.696C40.2325 60.8576 39.9777 60.9457 39.7151 60.9461H37.1455V65.3747H39.7141C39.9767 65.3751 40.2315 65.4631 40.4379 65.6247C40.6442 65.7863 40.7901 66.0121 40.8523 66.266C41.1734 67.5932 41.7012 68.8623 42.4167 70.027C42.5535 70.2504 42.611 70.5129 42.58 70.7727C42.5489 71.0324 42.4312 71.2742 42.2456 71.4594L40.4289 73.2674L43.5754 76.3989L45.3911 74.5889C45.5772 74.4042 45.8202 74.287 46.0812 74.2561C46.3422 74.2253 46.606 74.2825 46.8304 74.4186C48.0007 75.1307 49.2759 75.6561 50.6095 75.9756C50.8656 76.0372 51.0935 76.1828 51.2563 76.389C51.4191 76.5952 51.5075 76.8499 51.5071 77.1121V79.6685H55.957V77.1121C55.9572 76.8505 56.0457 76.5966 56.2083 76.391C56.3709 76.1855 56.5981 76.0402 56.8536 75.9785C58.1872 75.659 59.4624 75.1336 60.6327 74.4215C60.857 74.2856 61.1207 74.2286 61.3814 74.2594C61.6422 74.2903 61.885 74.4074 62.071 74.5918L63.8877 76.3998L67.0342 73.2684L65.2175 71.4604C65.0322 71.2753 64.9146 71.0336 64.8835 70.7741C64.8525 70.5146 64.9099 70.2522 65.0464 70.029C65.7618 68.8642 66.2896 67.5952 66.6108 66.268C66.6728 66.0137 66.8188 65.7876 67.0254 65.6258C67.2319 65.464 67.4871 65.3759 67.75 65.3756H70.3244V60.9442ZM63.2062 63.1589C63.2062 65.0229 62.6508 66.8451 61.6102 68.395C60.5696 69.9448 59.0906 71.1528 57.3601 71.8661C55.6297 72.5793 53.7256 72.7659 51.8886 72.4022C50.0516 72.0385 48.3643 71.1408 47.04 69.8227C45.7156 68.5045 44.8138 66.8252 44.4485 64.9969C44.0832 63.1687 44.2709 61.2738 44.9878 59.5517C45.7047 57.8296 46.9186 56.3578 48.476 55.3223C50.0335 54.2869 51.8644 53.7343 53.7374 53.7345C56.2468 53.7399 58.6517 54.7348 60.4255 56.5012C62.1993 58.2676 63.1975 60.6616 63.2013 63.1589H63.2062ZM49.4557 68.8282C50.9899 67.6478 52.5524 65.9303 52.5524 63.8323V56.1643C51.1771 56.3934 49.8996 57.0192 48.8783 57.9641C47.8571 58.909 47.1369 60.1314 46.8072 61.4798C46.4775 62.8282 46.5527 64.2433 47.0235 65.5495C47.4943 66.8558 48.34 67.9958 49.4557 68.8282ZM60.8596 63.1589C60.8573 61.479 60.2569 59.8542 59.1649 58.5731C58.073 57.292 56.5602 56.4375 54.8951 56.1614V63.8323C54.8413 65.0202 54.5318 66.1827 53.9874 67.2412C53.443 68.2997 52.6766 69.2295 51.7398 69.9677C52.8021 70.2764 53.922 70.3345 55.0107 70.1375C56.0995 69.9405 57.1271 69.4937 58.0122 68.8327C58.8972 68.1716 59.6154 67.3144 60.1096 66.3291C60.6039 65.3437 60.8606 64.2573 60.8596 63.156V63.1589ZM89 28.5362V32.3439C88.9992 32.8947 88.779 33.4227 88.3877 33.8121C87.9964 34.2016 87.4659 34.4207 86.9124 34.4215H85.5993C85.3743 35.1272 85.0891 35.8125 84.7467 36.4698L85.6746 37.3933C86.0653 37.7835 86.2847 38.3118 86.2847 38.8627C86.2847 39.4135 86.0653 39.9419 85.6746 40.3321L82.9691 43.0246C82.5773 43.414 82.0463 43.6326 81.4926 43.6326C80.939 43.6326 80.4079 43.414 80.0162 43.0246L79.0883 42.1021C78.4275 42.4423 77.739 42.7262 77.03 42.9507V44.2556C77.0295 44.8067 76.8093 45.3351 76.4178 45.7248C76.0262 46.1144 75.4953 46.3336 74.9415 46.3341H71.1155C70.5619 46.3333 70.0312 46.1141 69.6399 45.7244C69.2485 45.3347 69.0284 44.8065 69.0279 44.2556V42.9507C68.3189 42.7263 67.6304 42.4425 66.9697 42.1021L66.0418 43.0246C65.65 43.414 65.119 43.6326 64.5653 43.6326C64.0117 43.6326 63.4807 43.414 63.0889 43.0246L60.3834 40.3291C59.9922 39.9392 59.7724 39.4108 59.7724 38.8598C59.7724 38.3088 59.9922 37.7803 60.3834 37.3904L61.3103 36.4679C60.9685 35.81 60.6833 35.1244 60.4577 34.4186H59.1465C58.593 34.418 58.0623 34.199 57.6709 33.8095C57.2796 33.42 57.0595 32.8918 57.0589 32.341V28.5362C57.0592 27.9852 57.2792 27.4568 57.6706 27.0671C58.062 26.6774 58.5928 26.4582 59.1465 26.4577H60.4577C60.6832 25.752 60.9687 25.0667 61.3113 24.4093L60.3834 23.4858C59.9922 23.0959 59.7724 22.5675 59.7724 22.0165C59.7724 21.4655 59.9922 20.937 60.3834 20.5471L63.0889 17.8506C63.4809 17.4618 64.0118 17.2434 64.5653 17.2434C65.1188 17.2434 65.6497 17.4618 66.0418 17.8506L66.9697 18.7741C67.6301 18.4332 68.3187 18.1493 69.0279 17.9256V16.6236C69.0276 16.0721 69.2474 15.5431 69.6388 15.1529C70.0303 14.7626 70.5614 14.5429 71.1155 14.5421H74.9415C75.4951 14.5426 76.0259 14.7617 76.4174 15.1511C76.8089 15.5406 77.0293 16.0687 77.03 16.6197V17.9256C77.7391 18.1496 78.4277 18.4335 79.0883 18.7741L80.0162 17.8506C80.4082 17.4618 80.9391 17.2434 81.4926 17.2434C82.0461 17.2434 82.577 17.4618 82.9691 17.8506L85.6756 20.5471C86.0663 20.9372 86.2857 21.4656 86.2857 22.0165C86.2857 22.5673 86.0663 23.0957 85.6756 23.4858L84.7476 24.4093C85.0899 25.0667 85.3751 25.752 85.6003 26.4577H86.9124C87.466 26.4584 87.9967 26.6777 88.3881 27.0674C88.7794 27.457 88.9995 27.9853 89 28.5362ZM86.6582 28.7892H84.7124C84.4497 28.7887 84.1948 28.7005 83.9884 28.5388C83.7821 28.377 83.6363 28.1509 83.5743 27.8969C83.3108 26.8104 82.8783 25.7715 82.2924 24.818C82.1559 24.5948 82.0985 24.3324 82.1296 24.0729C82.1606 23.8134 82.2782 23.5717 82.4636 23.3866L83.8393 22.0165L81.4926 19.681L80.1159 21.0502C79.9299 21.2347 79.6871 21.3517 79.4263 21.3826C79.1655 21.4134 78.9019 21.3564 78.6776 21.2205C77.7194 20.6376 76.6756 20.2071 75.5839 19.9447C75.3288 19.8829 75.1019 19.7377 74.9395 19.5323C74.7772 19.327 74.6887 19.0734 74.6883 18.8121V16.8775H71.3697V18.814C71.3693 19.0753 71.2808 19.3289 71.1184 19.5343C70.956 19.7396 70.7292 19.8848 70.474 19.9467C69.3823 20.2087 68.3384 20.6392 67.3804 21.2224C67.1559 21.3586 66.8921 21.4158 66.6311 21.3849C66.3702 21.354 66.1272 21.2368 65.9411 21.0521L64.5653 19.682L62.2187 22.0174L63.5954 23.3876C63.7807 23.5727 63.8983 23.8143 63.9294 24.0739C63.9604 24.3334 63.903 24.5957 63.7665 24.819C63.1803 25.7724 62.7478 26.8112 62.4846 27.8978C62.4227 28.1519 62.2768 28.3779 62.0705 28.5397C61.8641 28.7015 61.6092 28.7897 61.3465 28.7902H59.4007V32.0919H61.3465C61.6091 32.0923 61.8639 32.1804 62.0702 32.342C62.2766 32.5036 62.4225 32.7294 62.4846 32.9832C62.7479 34.0698 63.1804 35.1087 63.7665 36.0621C63.9033 36.2855 63.9608 36.548 63.9297 36.8078C63.8987 37.0675 63.781 37.3093 63.5954 37.4945L62.2187 38.8627L64.5653 41.1981L65.9411 39.828C66.1272 39.6433 66.3702 39.5261 66.6311 39.4952C66.8921 39.4644 67.1559 39.5216 67.3804 39.6577C68.3383 40.2412 69.3822 40.6716 70.474 40.9334C70.7293 40.9953 70.9563 41.1407 71.1187 41.3462C71.2811 41.5518 71.3695 41.8056 71.3697 42.0671V44.0026H74.6883V42.0671C74.6885 41.8056 74.7768 41.5518 74.9392 41.3462C75.1016 41.1407 75.3286 40.9953 75.5839 40.9334C76.6756 40.6712 77.7195 40.2408 78.6776 39.6577C78.9019 39.5218 79.1655 39.4647 79.4263 39.4956C79.6871 39.5265 79.9299 39.6435 80.1159 39.828L81.4926 41.1981L83.8393 38.8627L82.4636 37.4935C82.278 37.3083 82.1602 37.0665 82.1292 36.8068C82.0982 36.5471 82.1557 36.2845 82.2924 36.0611C82.8782 35.1076 83.3103 34.0688 83.5733 32.9823C83.6355 32.7284 83.7814 32.5026 83.9877 32.341C84.1941 32.1794 84.4489 32.0913 84.7115 32.0909H86.6533L86.6582 28.7892ZM80.6938 30.4435C80.6938 31.9524 80.2442 33.4274 79.4019 34.6819C78.5595 35.9365 77.3623 36.9144 75.9616 37.4918C74.5608 38.0692 73.0195 38.2203 71.5325 37.9259C70.0455 37.6316 68.6796 36.905 67.6075 35.838C66.5354 34.7711 65.8053 33.4117 65.5095 31.9318C65.2137 30.4519 65.3655 28.918 65.9457 27.5239C66.5259 26.1299 67.5085 24.9384 68.7691 24.1001C70.0297 23.2618 71.5119 22.8144 73.028 22.8144C75.0599 22.8165 77.008 23.6203 78.4452 25.0497C79.8824 26.4792 80.6914 28.4174 80.6948 30.4396L80.6938 30.4435ZM78.3471 30.4435C78.3471 29.3955 78.0348 28.371 77.4498 27.4997C76.8647 26.6283 76.0332 25.9492 75.0603 25.5482C74.0874 25.1472 73.0169 25.0423 71.9841 25.2468C70.9513 25.4514 70.0027 25.9561 69.2581 26.6972C68.5136 27.4383 68.0066 28.3825 67.8013 29.4104C67.596 30.4382 67.7015 31.5036 68.1047 32.4718C68.5078 33.4399 69.1903 34.2674 70.066 34.8495C70.9416 35.4316 71.9711 35.7422 73.0241 35.742C74.4371 35.7417 75.7921 35.183 76.7912 34.1886C77.7903 33.1943 78.3517 31.8458 78.352 30.4396L78.3471 30.4435Z" fill="#1B54F8"></path></g></svg> 