<?xml version="1.0" encoding="UTF-8"?> <svg xmlns="http://www.w3.org/2000/svg" width="60" height="61" viewBox="0 0 60 61" fill="none"><mask id="mask0_1_30" style="mask-type:luminance" maskUnits="userSpaceOnUse" x="0" y="0" width="60" height="61"><path d="M60 0.800003H0V60.8H60V0.800003Z" fill="white"></path></mask><g mask="url(#mask0_1_30)"><path d="M59.1 47.6L56.2 44.2V9.40001C56.2 8.10001 55.2 7.10001 53.9 7.10001H4C2.7 7.10001 1.7 8.10001 1.7 9.40001V53.3C1.7 54.6 2.7 55.6 4 55.6H53.9C55.2 55.6 56.2 54.6 56.2 53.3V52.1C56.5 52 56.9 51.9 57.1 51.7L58.8 50.3C59.6 49.6 59.7 48.4 59.1 47.6ZM3.89999 8.40001H53.8C54.4 8.40001 54.8 8.80001 54.8 9.40001V15.7H2.89999V9.40001C2.89999 8.80001 3.39999 8.40001 3.89999 8.40001ZM53.8 54.3H3.89999C3.29999 54.3 2.89999 53.9 2.89999 53.3V17H54.8V42.6C54.4 42.2 53.9 42.1 53.3 42.2L51.2 39.7V39.6C51.2 39.2 51.1 38.8 50.9 38.5C54.1 33.9 52.9 27.7 48.3 24.5C43.7 21.3 37.5 22.5 34.3 27.1C31.8 30.7 31.9 35.5 34.6 39V48.8H31.5V28.5C31.5 28.1 31.2 27.8 30.8 27.8H25.8C25.4 27.8 25.1 28.1 25.1 28.5V48.8H22V32.2C22 31.8 21.7 31.5 21.3 31.5H19.2C19.8 30.4 20.2 29.2 20.1 27.9C20.1 23.9 16.8 20.6 12.8 20.6C8.8 20.6 5.5 23.9 5.5 27.9C5.5 31.9 8.8 35.2 12.8 35.2C13.8 35.2 14.7 35 15.6 34.6V48.8H12.2C11.8 48.8 11.5 49.1 11.6 49.5C11.6 49.9 11.9 50.1 12.2 50.1H44C44.4 50.1 44.7 49.8 44.7 49.5C44.7 49.1 44.4 48.8 44.1 48.8H41V42.7C43 43 45.1 42.8 46.9 41.9C47.2 42.2 47.6 42.4 48 42.4L50.1 44.9C49.8 45.4 49.9 46.1 50.3 46.5L54.4 51.4C54.5 51.5 54.7 51.7 54.8 51.8V53.2C54.8 53.8 54.4 54.3 53.8 54.3ZM51 44L49.2 41.9L50.4 40.9L52.2 43L51 44ZM36 48.8V40.4C37.1 41.3 38.3 42 39.6 42.4V48.8H36ZM36 38.5C32.9 34.8 33.4 29.3 37.1 26.2C40.8 23.1 46.3 23.6 49.4 27.3C52.1 30.5 52.2 35 49.6 38.3C49.4 38.5 49.4 38.9 49.6 39.1L49.9 39.5C50 39.6 49.9 39.7 49.9 39.7L48.1 41.2C48 41.2 48 41.2 47.9 41.2L47.6 40.8C47.4 40.6 47.1 40.5 46.8 40.6C43.1 42.5 38.6 41.6 36 38.5ZM30.3 48.8H26.7V29.2H30.3V48.8ZM17.3 48.8V33.9C17.7 33.6 18.1 33.2 18.5 32.9H20.9V48.9L17.3 48.8ZM19 27.3H13.8V22.1C16.6 22.4 18.7 24.5 19 27.3ZM13.1 28.6H19C18.6 31.9 15.7 34.2 12.4 33.8C9.09999 33.4 6.8 30.5 7.2 27.2C7.5 24.5 9.69999 22.3 12.4 22V27.9C12.5 28.3 12.8 28.6 13.1 28.6ZM58 49.3L56.3 50.7C56.1 50.9 55.7 50.9 55.5 50.6L51.4 45.7V45.6C51.4 45.6 51.4 45.5 51.5 45.5L53.8 43.5C53.9 43.4 54 43.4 54 43.5L58.1 48.4C58.2 48.7 58.2 49.1 58 49.3ZM50.1 33.5C50.4 29.4 47.4 25.8 43.3 25.4C39.2 25 35.6 28.1 35.2 32.2C35.1 33.3 35.3 34.4 35.6 35.4V35.5C36.6 38.2 39.1 40 41.9 40.3C42.1 40.3 42.3 40.3 42.5 40.3C46.5 40.3 49.8 37.3 50.1 33.5ZM38 36.8C37.8 36.5 37.5 36.2 37.4 35.9H39.7V38.2C39 37.8 38.4 37.3 38 36.8ZM46.6 37.5C45.4 38.6 43.7 39.1 42.1 38.9C41.7 38.9 41.3 38.8 40.9 38.7V35.2C40.9 34.8 40.6 34.5 40.2 34.5H36.7C35.8 31.3 37.6 27.9 40.9 26.9C41.5 26.7 42 26.7 42.6 26.7C42.8 26.7 43 26.7 43.1 26.7C46.5 27 49 30 48.7 33.3C48.6 35 47.8 36.5 46.6 37.5ZM7.39999 12C7.39999 11.6 7.70001 11.3 8.10001 11.3C8.50001 11.3 8.8 11.6 8.8 11.9C8.8 12.3 8.5 12.6 8.2 12.6C7.7 12.7 7.39999 12.4 7.39999 12ZM11.6 12C11.6 11.6 11.9 11.3 12.3 11.3C12.7 11.3 13 11.6 12.9 12C12.9 12.4 12.6 12.6 12.3 12.6C11.9 12.7 11.6 12.4 11.6 12ZM15.8 12C15.8 11.6 16.1 11.3 16.5 11.3C16.9 11.3 17.2 11.6 17.2 11.9C17.2 12.3 16.9 12.6 16.6 12.6C16.1 12.7 15.8 12.4 15.8 12ZM24.2 12C24.2 11.6 24.5 11.3 24.9 11.3H49.8C50.2 11.3 50.5 11.6 50.4 12C50.4 12.4 50.1 12.6 49.8 12.6H24.9C24.5 12.7 24.2 12.4 24.2 12Z" fill="#1B54F8" stroke="#1B54F8" stroke-width="0.25" stroke-miterlimit="10"></path></g></svg> 