<?xml version="1.0" encoding="UTF-8"?> <svg xmlns="http://www.w3.org/2000/svg" xmlns:xlink="http://www.w3.org/1999/xlink" width="90" height="90" viewBox="0 0 90 90"><defs><clipPath id="clip-path"><rect id="Rectangle_12" data-name="Rectangle 12" width="90" height="90" transform="translate(351 91)" fill="#fff" stroke="#707070" stroke-width="1"></rect></clipPath></defs><g id="Mask_Group_5" data-name="Mask Group 5" transform="translate(-351 -91)" clip-path="url(#clip-path)"><g id="Group_9" data-name="Group 9" transform="translate(-30 85)"><g id="Group_8" data-name="Group 8" transform="translate(388 13)"><path id="Path_13" data-name="Path 13" d="M51.412,25.891a2.434,2.434,0,0,0-1.877-.8H30.768a2.533,2.533,0,0,0-2.681,2.681V51.9H25.405V22.405H41.492a2.533,2.533,0,0,0,2.681-2.681,2.533,2.533,0,0,0-2.681-2.681H22.724a2.533,2.533,0,0,0-2.681,2.681v24.13H17.362V14.362H33.449a2.533,2.533,0,0,0,2.681-2.681A2.533,2.533,0,0,0,33.449,9H14.681A2.533,2.533,0,0,0,12,11.681V46.535a2.533,2.533,0,0,0,2.681,2.681h5.362v5.362a2.533,2.533,0,0,0,2.681,2.681h5.362v5.362A2.533,2.533,0,0,0,30.768,65.3H57.578a2.533,2.533,0,0,0,2.681-2.681V35.811a2.434,2.434,0,0,0-.8-1.877Zm2.413,9.92h-4.29v-4.29ZM54.9,59.94H33.449V30.449H44.173v8.043a2.533,2.533,0,0,0,2.681,2.681H54.9Z" transform="translate(14.811 9.768)" fill="#1c54f8" stroke="#fff" stroke-width="3"></path><path id="Path_14" data-name="Path 14" d="M21,24.681a2.533,2.533,0,0,0,2.681,2.681H34.405a2.533,2.533,0,0,0,2.681-2.681A2.533,2.533,0,0,0,34.405,22H23.681A2.533,2.533,0,0,0,21,24.681Z" transform="translate(29.94 31.621)" fill="#1c54f8" stroke="#fff" stroke-width="3"></path><path id="Path_15" data-name="Path 15" d="M34.405,25H23.681A2.533,2.533,0,0,0,21,27.681a2.533,2.533,0,0,0,2.681,2.681H34.405a2.533,2.533,0,0,0,2.681-2.681A2.533,2.533,0,0,0,34.405,25Z" transform="translate(29.94 36.665)" fill="#1c54f8" stroke="#fff" stroke-width="3"></path><path id="Path_16" data-name="Path 16" d="M74.389,28.811H69.831a16.4,16.4,0,0,0-1.341-3.217l3.217-3.217a2.592,2.592,0,0,0,0-3.753L60.447,7.362a2.592,2.592,0,0,0-3.753,0l-3.217,3.217a16.4,16.4,0,0,0-3.217-1.341V4.681A2.533,2.533,0,0,0,47.578,2H31.492a2.533,2.533,0,0,0-2.681,2.681V9.239a16.4,16.4,0,0,0-3.217,1.341L22.376,7.362a2.592,2.592,0,0,0-3.753,0L7.362,18.623a2.592,2.592,0,0,0,0,3.754l3.217,3.217a16.4,16.4,0,0,0-1.341,3.217H4.681A2.533,2.533,0,0,0,2,31.492V47.578a2.533,2.533,0,0,0,2.681,2.681H9.239a16.4,16.4,0,0,0,1.341,3.217L7.362,56.694a2.592,2.592,0,0,0,0,3.753l11.261,11.26a2.592,2.592,0,0,0,3.754,0l3.217-3.217c1.072.536,2.145.8,3.217,1.341v4.558a2.533,2.533,0,0,0,2.681,2.681h8.043a2.681,2.681,0,1,0,0-5.362H34.173V67.954A3.228,3.228,0,0,0,32.3,65.273a17.875,17.875,0,0,1-5.63-2.413,2.48,2.48,0,0,0-3.217.536l-2.681,2.681-7.507-7.507,2.681-2.681a2.851,2.851,0,0,0,.536-3.217,25.453,25.453,0,0,1-2.413-5.63,2.663,2.663,0,0,0-2.681-1.877H7.362V34.441h3.754A3.228,3.228,0,0,0,13.8,32.564a17.875,17.875,0,0,1,2.413-5.63,2.48,2.48,0,0,0-.536-3.217l-2.681-2.681L20.5,13.529,23.18,16.21a2.851,2.851,0,0,0,3.217.536,25.453,25.453,0,0,1,5.63-2.413A2.663,2.663,0,0,0,33.9,11.652V7.362H44.629v3.754A3.228,3.228,0,0,0,46.506,13.8a17.875,17.875,0,0,1,5.63,2.413,2.851,2.851,0,0,0,3.217-.536l2.681-2.681L65.541,20.5,62.86,23.18a2.851,2.851,0,0,0-.536,3.217,25.453,25.453,0,0,1,2.413,5.63A2.663,2.663,0,0,0,67.418,33.9h4.29v2.681a2.681,2.681,0,0,0,5.362,0V31.224A2.476,2.476,0,0,0,74.389,28.811Z" transform="translate(-2 -2)" fill="#1c54f8" stroke="#fff" stroke-width="3"></path></g></g></g></svg> 