<?xml version="1.0" encoding="UTF-8"?> <svg xmlns="http://www.w3.org/2000/svg" xmlns:xlink="http://www.w3.org/1999/xlink" width="60" height="60" viewBox="0 0 60 60"><defs><clipPath id="clip-path"><rect id="Rectangle_876" data-name="Rectangle 876" width="60" height="60" transform="translate(1221 253)" fill="#fff" stroke="#707070" stroke-width="1"></rect></clipPath></defs><g id="Mask_Group_105" data-name="Mask Group 105" transform="translate(-1221 -253)" clip-path="url(#clip-path)"><g id="Group_2977" data-name="Group 2977" transform="translate(107.936 -137.579)"><path id="Path_3163" data-name="Path 3163" d="M64.682,86.973H61.314L60.6,83.055a1.389,1.389,0,0,0-.978-1.086,17.914,17.914,0,0,1-3.585-1.485,1.391,1.391,0,0,0-1.46.075L51.3,82.826l-4.764-4.764,2.266-3.276a1.388,1.388,0,0,0,.075-1.46A17.913,17.913,0,0,1,47.4,69.741a1.389,1.389,0,0,0-1.086-.978l-3.917-.713V61.313l3.917-.713a1.389,1.389,0,0,0,1.086-.978,17.913,17.913,0,0,1,1.485-3.585,1.391,1.391,0,0,0-.075-1.46L46.539,51.3,51.3,46.538,54.579,48.8a1.388,1.388,0,0,0,1.46.075,17.914,17.914,0,0,1,3.585-1.485,1.389,1.389,0,0,0,.978-1.086l.713-3.917h3.368a1.39,1.39,0,0,0,0-2.781H60.153a1.391,1.391,0,0,0-1.368,1.141l-.771,4.235a20.64,20.64,0,0,0-2.544,1.054l-3.54-2.449a1.39,1.39,0,0,0-1.774.16l-6.405,6.405a1.39,1.39,0,0,0-.16,1.774l2.449,3.54a20.748,20.748,0,0,0-1.054,2.544l-4.235.771a1.391,1.391,0,0,0-1.141,1.368V69.21a1.391,1.391,0,0,0,1.141,1.368l4.235.77a20.641,20.641,0,0,0,1.054,2.544l-2.449,3.54a1.39,1.39,0,0,0,.16,1.774l6.405,6.405a1.39,1.39,0,0,0,1.774.16l3.54-2.449a20.743,20.743,0,0,0,2.544,1.054l.771,4.235a1.391,1.391,0,0,0,1.368,1.141h4.529a1.39,1.39,0,0,0,0-2.781Z" transform="translate(1078.454 355.969)" fill="#1c54f8" stroke="#fff" stroke-width="1.4"></path><path id="Path_3164" data-name="Path 3164" d="M264.335,202.79a6.139,6.139,0,0,0-5.967,4.738H245.39a1.39,1.39,0,0,0,0,2.781h12.977a6.128,6.128,0,1,0,5.967-7.519Zm0,9.474a3.347,3.347,0,1,1,3.347-3.347A3.351,3.351,0,0,1,264.335,212.264Z" transform="translate(897.746 211.696)" fill="#1c54f8" stroke="#fff" stroke-width="1.4"></path><path id="Path_3165" data-name="Path 3165" d="M194.79,80.127a6.092,6.092,0,0,0-3.46,1.074l-6.347-5.789a1.4,1.4,0,0,0-.957-.363l-5.2.074a7.329,7.329,0,0,1-.151-14.656,1.421,1.421,0,0,0,.158.009A7.349,7.349,0,0,1,184.8,63.56a1.39,1.39,0,1,0,2.264-1.614,10.061,10.061,0,0,0-1.9-2.013l6.163-5.621a6.131,6.131,0,1,0-1.879-2.051l-5.944,5.421H178.83a10.11,10.11,0,0,0,0,20.221h.02l4.664-.066,5.936,5.413a6.126,6.126,0,1,0,5.339-3.125Zm0-34.215a3.347,3.347,0,1,1-3.347,3.347A3.351,3.351,0,0,1,194.79,45.912Zm0,43.69a3.347,3.347,0,1,1,3.347-3.347A3.351,3.351,0,0,1,194.79,89.6Z" transform="translate(964.303 352.857)" fill="#1c54f8" stroke="#fff" stroke-width="1.4"></path></g></g></svg> 