<?xml version="1.0" encoding="UTF-8"?> <svg xmlns="http://www.w3.org/2000/svg" xmlns:xlink="http://www.w3.org/1999/xlink" width="60" height="60" viewBox="0 0 60 60"><defs><clipPath id="clip-path"><rect id="Rectangle_798" data-name="Rectangle 798" width="60" height="60" transform="translate(1021 424)" fill="#fff" stroke="#707070" stroke-width="1"></rect></clipPath></defs><g id="Mask_Group_82" data-name="Mask Group 82" transform="translate(-1021 -424)" clip-path="url(#clip-path)"><path id="Path_148" data-name="Path 148" d="M49.224,45.473l-6.309-6.309a.756.756,0,0,0-1.069,0l-.049.049-.788-.788.068-.1h2.276a.756.756,0,1,0,0-1.511H41.9a9.737,9.737,0,0,0-4.749-12.647l1.4-1.568,4.52,4.6a2.846,2.846,0,1,0,1.078-1.059l-4.59-4.671,2.835-3.181a2.847,2.847,0,1,0-1.128-1.006l-2.769,3.107-6.051-6.158a2.841,2.841,0,1,0-4.581.462L23.638,21.2,21.881,18.87a2.841,2.841,0,1,0-4.513-.01l-2.731,3.583L11.6,19.923a2.845,2.845,0,1,0-.965,1.163l3.089,2.561L10.1,28.394a2.846,2.846,0,1,0,1.2.917l3.582-4.7,2.661,2.206A2.841,2.841,0,1,0,22.26,26.1l1.473-2.27,1.98,2.621a9.725,9.725,0,0,0-1.7,10.363H3.343V4.052a.756.756,0,1,0-1.511,0V37.567a.756.756,0,0,0,.756.756H24.831A9.728,9.728,0,0,0,38.424,41.01l.788.788-.049.049a.756.756,0,0,0,0,1.069l6.31,6.31a2.653,2.653,0,0,0,3.752-3.752ZM46.852,28.619a1.33,1.33,0,1,1-1.33-1.33A1.332,1.332,0,0,1,46.852,28.619Zm-3.207-14.21a1.33,1.33,0,1,1-1.33,1.33A1.331,1.331,0,0,1,43.645,14.409ZM9.007,20.087a1.33,1.33,0,1,1,1.33-1.33A1.332,1.332,0,0,1,9.007,20.087Zm.036,12.272a1.33,1.33,0,1,1,1.33-1.33A1.332,1.332,0,0,1,9.044,32.359Zm20.94-20.883a1.33,1.33,0,1,1-1.33,1.33A1.332,1.332,0,0,1,29.983,11.476ZM19.628,15.812a1.33,1.33,0,1,1-1.33,1.33A1.332,1.332,0,0,1,19.628,15.812Zm.508,13.5a1.33,1.33,0,1,1,1.33-1.33A1.332,1.332,0,0,1,20.136,29.311Zm.857-4.038a2.834,2.834,0,0,0-2.482.38L15.8,23.408l2.768-3.631a2.829,2.829,0,0,0,2.106,0l2.088,2.764Zm8.134-9.759a2.833,2.833,0,0,0,2.237-.227l6.121,6.229L35.637,23.59A9.732,9.732,0,0,0,26.814,25.4L24.607,22.48Zm-4.4,17.441a8.229,8.229,0,1,1,8.229,8.229A8.238,8.238,0,0,1,24.726,32.955Zm14.885,7.1q.232-.217.449-.449l.671.671-.449.449Zm2.771.708.66.66L41.426,43.04l-.66-.659Zm5.775,7.39a1.143,1.143,0,0,1-1.615,0l-4.047-4.047,1.615-1.615,4.047,4.047A1.142,1.142,0,0,1,48.156,48.156Zm-15.2-22.641a7.439,7.439,0,1,0,7.439,7.439A7.447,7.447,0,0,0,32.955,25.516Zm0,13.367a5.928,5.928,0,1,1,5.928-5.928A5.934,5.934,0,0,1,32.955,38.882Z" transform="translate(1025.168 427.704)" fill="#1c54f8" stroke="#fff" stroke-width="0.4"></path></g></svg> 