<?xml version="1.0" encoding="UTF-8"?> <svg xmlns="http://www.w3.org/2000/svg" width="91" height="90" viewBox="0 0 91 90" fill="none"><mask id="mask0_10_7" style="mask-type:luminance" maskUnits="userSpaceOnUse" x="0" y="0" width="91" height="90"><path d="M90.19 0H0.190002V90H90.19V0Z" fill="white"></path></mask><g mask="url(#mask0_10_7)"><path d="M28.71 55.1L26.17 59.8H24.27C23.64 57.53 21.56 55.86 19.09 55.86C16.12 55.86 13.71 58.27 13.71 61.24C13.71 64.21 16.12 66.62 19.09 66.62C21.56 66.62 23.64 64.95 24.27 62.68H27.03C27.56 62.68 28.04 62.39 28.3 61.92L30.84 57.22H34.16L33.44 58.84C33.2 59.38 33.32 60.02 33.74 60.44L38.39 65.09C38.81 65.51 39.45 65.63 39.99 65.39L43.26 63.94C44.86 64.85 46.57 65.56 48.35 66.05L49.63 69.38C49.84 69.93 50.38 70.3 50.97 70.3H57.54C58.13 70.3 58.67 69.93 58.88 69.38L60.16 66.05C61.94 65.56 63.64 64.85 65.25 63.94L68.52 65.39C69.06 65.63 69.7 65.51 70.12 65.09L74.77 60.44C75.19 60.02 75.31 59.38 75.07 58.84L73.62 55.57C74.53 53.96 75.24 52.26 75.73 50.48L79.06 49.2C79.61 48.99 79.98 48.45 79.98 47.86V41.29C79.98 40.7 79.61 40.16 79.06 39.95L75.73 38.67C75.24 36.89 74.53 35.19 73.62 33.58L75.07 30.31C75.31 29.77 75.19 29.13 74.77 28.71L70.12 24.06C69.7 23.64 69.06 23.52 68.52 23.76L65.25 25.21C63.64 24.3 61.94 23.59 60.16 23.1L58.88 19.77C58.67 19.22 58.13 18.85 57.54 18.85H50.97C50.38 18.85 49.84 19.22 49.63 19.77L48.35 23.1C46.57 23.59 44.87 24.3 43.26 25.21L39.99 23.76C39.45 23.52 38.81 23.64 38.39 24.06L33.74 28.71C33.32 29.13 33.2 29.77 33.44 30.31L34.16 31.93H30.84L28.3 27.23C28.05 26.76 27.56 26.47 27.03 26.47H24.27C23.64 24.2 21.56 22.53 19.09 22.53C16.12 22.53 13.71 24.94 13.71 27.91C13.71 30.88 16.12 33.29 19.09 33.29C21.56 33.29 23.64 31.62 24.27 29.35H26.17L28.71 34.05C28.96 34.52 29.45 34.81 29.98 34.81H34.24C33.63 36.05 33.14 37.34 32.78 38.67L29.45 39.95C28.9 40.16 28.53 40.7 28.53 41.29V43.14H19.74C19.11 40.87 17.03 39.2 14.56 39.2C11.59 39.2 9.18 41.61 9.18 44.58C9.18 47.55 11.59 49.96 14.56 49.96C17.03 49.96 19.11 48.29 19.74 46.02H28.53V47.87C28.53 48.46 28.9 49 29.45 49.21L32.78 50.49C33.15 51.82 33.64 53.11 34.24 54.35H29.98C29.45 54.35 28.97 54.64 28.72 55.11L28.71 55.1ZM19.09 63.75C17.71 63.75 16.58 62.63 16.58 61.24C16.58 59.85 17.7 58.73 19.09 58.73C20.48 58.73 21.6 59.85 21.6 61.24C21.6 62.63 20.48 63.75 19.09 63.75ZM19.09 30.41C17.71 30.41 16.58 29.29 16.58 27.9C16.58 26.51 17.7 25.39 19.09 25.39C20.48 25.39 21.6 26.51 21.6 27.9C21.6 29.29 20.48 30.41 19.09 30.41ZM14.55 47.08C13.17 47.08 12.04 45.96 12.04 44.57C12.04 43.18 13.16 42.06 14.55 42.06C15.94 42.06 17.06 43.18 17.06 44.57C17.06 45.96 15.94 47.08 14.55 47.08ZM31.4 46.87V42.27L34.5 41.08C34.94 40.91 35.27 40.53 35.38 40.07C35.85 38.07 36.64 36.17 37.72 34.42C37.97 34.02 38 33.52 37.81 33.08L36.46 30.04L39.71 26.79L42.75 28.14C43.18 28.33 43.68 28.3 44.09 28.05C45.84 26.97 47.74 26.18 49.74 25.71C50.2 25.6 50.58 25.27 50.75 24.83L51.94 21.73H56.54L57.73 24.83C57.9 25.27 58.28 25.6 58.74 25.71C60.74 26.19 62.64 26.97 64.39 28.05C64.79 28.3 65.29 28.33 65.73 28.14L68.77 26.79L72.02 30.04L70.67 33.08C70.48 33.51 70.51 34.01 70.76 34.42C71.84 36.17 72.63 38.07 73.1 40.07C73.21 40.53 73.54 40.91 73.98 41.08L77.08 42.27V46.87L73.98 48.06C73.54 48.23 73.21 48.61 73.1 49.07C72.63 51.07 71.84 52.97 70.76 54.72C70.51 55.12 70.48 55.62 70.67 56.06L72.02 59.1L68.77 62.35L65.73 61C65.3 60.81 64.8 60.84 64.39 61.09C62.64 62.17 60.74 62.96 58.74 63.43C58.28 63.54 57.9 63.87 57.73 64.31L56.54 67.41H51.94L50.75 64.31C50.58 63.87 50.2 63.54 49.74 63.43C47.74 62.95 45.84 62.17 44.09 61.09C43.69 60.84 43.19 60.81 42.75 61L39.71 62.35L36.46 59.1L37.81 56.06C38 55.63 37.97 55.13 37.72 54.72C36.64 52.97 35.85 51.07 35.38 49.07C35.27 48.61 34.94 48.23 34.5 48.06L31.39 46.87H31.4ZM54.25 58.48C61.92 58.48 68.16 52.24 68.16 44.57C68.16 36.9 61.92 30.66 54.25 30.66C46.58 30.66 40.34 36.9 40.34 44.57C40.34 52.24 46.58 58.48 54.25 58.48ZM54.25 33.54C60.33 33.54 65.28 38.49 65.28 44.57C65.28 50.65 60.33 55.6 54.25 55.6C48.17 55.6 43.22 50.65 43.22 44.57C43.22 38.49 48.17 33.54 54.25 33.54ZM8.52 65.51C8.92 66.2 8.69 67.08 8 67.48C7.77 67.61 7.52 67.68 7.28 67.68C6.78 67.68 6.3 67.42 6.04 66.97C1.25 58.74 -0.749996 49.38 0.250004 39.9C1.5 28.06 7.28 17.42 16.53 9.93C25.78 2.44 37.4 -1 49.24 0.249999C57.13 1.08 64.56 3.95 70.89 8.6L69.96 5.35C69.74 4.59 70.18 3.79 70.95 3.57C71.71 3.35 72.51 3.79 72.73 4.56L74.91 12.21C75.03 12.63 74.95 13.09 74.69 13.45C74.43 13.81 74.02 14.03 73.58 14.04L65.63 14.33C65.63 14.33 65.59 14.33 65.58 14.33C64.81 14.33 64.17 13.72 64.14 12.94C64.11 12.15 64.73 11.48 65.52 11.45L69.7 11.3C63.66 6.72 56.53 3.9 48.93 3.1C37.86 1.93 26.99 5.15 18.33 12.16C9.68 19.17 4.27 29.12 3.1 40.2C2.17 49.07 4.04 57.82 8.51 65.51H8.52ZM88.89 49.23C87.64 61.07 81.86 71.71 72.61 79.2C64.6 85.68 54.82 89.13 44.65 89.13C43.07 89.13 41.49 89.05 39.9 88.88C32.01 88.05 24.58 85.17 18.25 80.53L19.18 83.78C19.4 84.54 18.96 85.34 18.19 85.56C18.06 85.6 17.93 85.62 17.79 85.62C17.16 85.62 16.59 85.21 16.41 84.58L14.23 76.93C14.11 76.51 14.19 76.05 14.45 75.69C14.71 75.33 15.12 75.11 15.56 75.1L23.51 74.81C24.3 74.78 24.97 75.4 25 76.19C25.03 76.98 24.41 77.65 23.62 77.68L19.44 77.83C25.48 82.4 32.62 85.23 40.21 86.03C51.28 87.2 62.15 83.98 70.81 76.97C79.46 69.96 84.87 60.01 86.04 48.93C86.97 40.06 85.1 31.31 80.63 23.62C80.23 22.93 80.46 22.05 81.15 21.65C81.84 21.25 82.72 21.48 83.12 22.17C87.91 30.39 89.91 39.74 88.91 49.22L88.89 49.23Z" fill="#1B54F8"></path></g></svg> 