<?xml version="1.0" encoding="UTF-8"?> <svg xmlns="http://www.w3.org/2000/svg" xmlns:xlink="http://www.w3.org/1999/xlink" width="90" height="90" viewBox="0 0 90 90"><defs><clipPath id="clip-path"><rect id="Rectangle_2" data-name="Rectangle 2" width="90" height="90" transform="translate(339 109)" fill="#fff" stroke="#707070" stroke-width="1"></rect></clipPath></defs><g id="Mask_Group_4" data-name="Mask Group 4" transform="translate(-339 -109)" clip-path="url(#clip-path)"><g id="Group_1463" data-name="Group 1463" transform="translate(351 116)"><path id="Path_334" data-name="Path 334" d="M183.326,76.892c-8.727,0-16.959-1.244-23.17-3.494a23.618,23.618,0,0,1-7.309-3.952c-1.994-1.711-3-3.586-3-5.571s1.006-3.869,3-5.571a23.7,23.7,0,0,1,7.309-3.952c6.211-2.25,14.444-3.494,23.17-3.494s16.959,1.244,23.17,3.494a23.618,23.618,0,0,1,7.309,3.952c1.994,1.711,3,3.586,3,5.571s-1.006,3.869-3,5.571A23.7,23.7,0,0,1,206.5,73.4C200.285,75.648,192.053,76.892,183.326,76.892Zm0-23.289c-8.416,0-16.31,1.18-22.228,3.33-5.324,1.93-8.5,4.528-8.5,6.943s3.174,5.013,8.5,6.943c5.918,2.15,13.813,3.33,22.228,3.33s16.31-1.18,22.228-3.33c5.324-1.93,8.5-4.528,8.5-6.943s-3.174-5.013-8.5-6.943c-5.918-2.15-13.813-3.33-22.228-3.33Z" transform="translate(-149.847 -50.858)" fill="#1b54f8" stroke="#fff" stroke-width="1"></path><path id="Path_335" data-name="Path 335" d="M183.326,242.536c-8.727,0-16.959-1.244-23.17-3.494a23.618,23.618,0,0,1-7.309-3.952c-1.994-1.711-3-3.586-3-5.571h2.744c0,2.415,3.174,5.013,8.5,6.943,5.918,2.15,13.813,3.33,22.228,3.33s16.31-1.18,22.228-3.33c5.324-1.93,8.5-4.528,8.5-6.943h2.744c0,1.994-1.006,3.869-3,5.571a23.7,23.7,0,0,1-7.309,3.952c-6.193,2.259-14.426,3.494-23.152,3.494Z" transform="translate(-149.847 -199.634)" fill="#1b54f8" stroke="#fff" stroke-width="1"></path><path id="Path_336" data-name="Path 336" d="M183.326,343.436c-8.727,0-16.959-1.244-23.17-3.494a23.617,23.617,0,0,1-7.309-3.952c-1.994-1.711-3-3.586-3-5.571h2.744c0,2.415,3.174,5.013,8.5,6.943,5.918,2.15,13.813,3.33,22.228,3.33s16.31-1.18,22.228-3.33c5.324-1.93,8.5-4.528,8.5-6.943h2.744c0,1.994-1.006,3.869-3,5.571a23.7,23.7,0,0,1-7.309,3.952c-6.193,2.259-14.426,3.494-23.152,3.494Z" transform="translate(-149.847 -283.657)" fill="#1b54f8" stroke="#fff" stroke-width="1"></path><path id="Path_337" data-name="Path 337" d="M183.326,192.319c-8.727,0-16.959-1.244-23.17-3.494a23.617,23.617,0,0,1-7.309-3.952c-1.994-1.711-3-3.586-3-5.571V128.679h2.744c0,2.415,3.174,5.013,8.5,6.943,5.918,2.15,13.813,3.33,22.228,3.33s16.31-1.18,22.228-3.33c5.324-1.93,8.5-4.528,8.5-6.943h2.744V179.3c0,1.994-1.006,3.869-3,5.571a23.7,23.7,0,0,1-7.309,3.952c-6.193,2.25-14.426,3.494-23.152,3.494Zm-30.727-58.3V179.3c0,2.415,3.174,5.013,8.5,6.943,5.919,2.15,13.813,3.33,22.228,3.33s16.31-1.18,22.228-3.33c5.324-1.93,8.5-4.528,8.5-6.943v-45.28l-.256.229a23.7,23.7,0,0,1-7.309,3.952c-6.2,2.25-14.435,3.494-23.162,3.494s-16.959-1.244-23.17-3.494a23.618,23.618,0,0,1-7.309-3.952c-.082-.073-.165-.146-.247-.229Z" transform="translate(-149.847 -115.662)" fill="#1b54f8" stroke="#fff" stroke-width="1"></path></g></g></svg> 