<?xml version="1.0" encoding="UTF-8"?> <svg xmlns="http://www.w3.org/2000/svg" xmlns:xlink="http://www.w3.org/1999/xlink" width="90" height="90" viewBox="0 0 90 90"><defs><clipPath id="clip-path"><rect id="Rectangle_69" data-name="Rectangle 69" width="90" height="90" transform="translate(339 45)" fill="#fff" stroke="#707070" stroke-width="1"></rect></clipPath></defs><g id="Mask_Group_31" data-name="Mask Group 31" transform="translate(-339 -45)" clip-path="url(#clip-path)"><g id="Group_33" data-name="Group 33" transform="translate(-92.999 -144)"><g id="Group_32" data-name="Group 32" transform="translate(440.999 198)"><path id="Path_101" data-name="Path 101" d="M70.55,46.946c-.212-.212-1.271-1.249-1.516-1.46A13.21,13.21,0,0,0,60,42.237a24.2,24.2,0,0,0-3.637.3,6.076,6.076,0,0,1-5.239-1.721l-7.777-7.778c0-.009.005-.017.005-.027V7.169H58.857v7.753a2.584,2.584,0,0,0,2.584,2.584h7.753V40.765a2.584,2.584,0,0,0,5.169,0V12.337a2.585,2.585,0,0,0-.757-1.827L65.852,2.757A2.585,2.585,0,0,0,64.025,2H40.766a2.584,2.584,0,0,0-2.584,2.584V27.875l-2.636-2.636A6.132,6.132,0,0,1,33.825,20c.556-3.676.726-8.437-2.943-12.667-.216-.251-1.253-1.31-1.5-1.556A12.819,12.819,0,0,0,20.258,2a12.958,12.958,0,0,0-5.766,1.362A2.584,2.584,0,0,0,13.821,7.5l5.62,5.62a8.777,8.777,0,0,1-6.32,6.32L7.5,13.82a2.584,2.584,0,0,0-4.139.671A12.9,12.9,0,0,0,5.813,29.416c.212.212,1.271,1.249,1.516,1.46a13.21,13.21,0,0,0,9.036,3.249c.365,0,.756-.028,1.142-.049v.686a18.639,18.639,0,0,0-2.6,1.47l-3.822-2.187a2.59,2.59,0,0,0-3.517.943L2.352,43.94a2.585,2.585,0,0,0,.95,3.543l3.789,2.17c-.042.486-.062.968-.062,1.449s.02.963.062,1.449L3.3,54.722a2.585,2.585,0,0,0-.95,3.543l5.215,8.952a2.588,2.588,0,0,0,3.517.943l3.822-2.188a18.647,18.647,0,0,0,2.6,1.471v4.335a2.584,2.584,0,0,0,2.584,2.584H30.429a2.584,2.584,0,0,0,2.584-2.584V67.443a18.647,18.647,0,0,0,2.6-1.471l3.822,2.188a2.586,2.586,0,0,0,3.517-.943l.632-1.085a13.053,13.053,0,0,0,1.9,2.9c.216.251,1.253,1.31,1.5,1.556a12.819,12.819,0,0,0,9.125,3.778h0A12.957,12.957,0,0,0,61.871,73a2.584,2.584,0,0,0,.671-4.139l-5.62-5.62a8.777,8.777,0,0,1,6.32-6.32l5.62,5.62a2.624,2.624,0,0,0,2.241.724,2.585,2.585,0,0,0,1.9-1.4A12.9,12.9,0,0,0,70.55,46.946ZM68.124,12.337h-4.1v-4.1ZM39.777,62.4,36.7,60.639a2.584,2.584,0,0,0-2.954.273,13.338,13.338,0,0,1-4.174,2.357,2.584,2.584,0,0,0-1.729,2.439v3.485H22.676V65.708a2.584,2.584,0,0,0-1.729-2.439,13.338,13.338,0,0,1-4.174-2.357,2.584,2.584,0,0,0-2.954-.273L10.743,62.4,8.129,57.913l3.04-1.74a2.583,2.583,0,0,0,1.258-2.714,12.265,12.265,0,0,1,0-4.712,2.583,2.583,0,0,0-1.258-2.714l-3.04-1.74,2.615-4.486,3.075,1.759a2.587,2.587,0,0,0,2.954-.271,13.352,13.352,0,0,1,4.174-2.357A2.584,2.584,0,0,0,22.676,36.5V34.026a6.083,6.083,0,0,1,2.565,1.519L40.818,51.123a6.132,6.132,0,0,1,1.721,5.238c-.079.524-.145,1.074-.2,1.637Zm26.09-10.162a2.579,2.579,0,0,0-2.334-.707c-6.543,1.309-10.692,5.458-12,12a2.586,2.586,0,0,0,.707,2.334l3.307,3.307A7.725,7.725,0,0,1,50.6,66.9c-.172-.173-1-1.011-1.21-1.248-1.856-2.141-2.345-4.528-1.741-8.511a11.323,11.323,0,0,0-3.177-9.669L28.9,31.89a11.284,11.284,0,0,0-9.67-3.177c-4.048.616-6.35.132-8.513-1.743-.236-.208-1.074-1.037-1.281-1.243a7.73,7.73,0,0,1-2.246-4.911l3.31,3.309a2.583,2.583,0,0,0,2.334.707c6.543-1.309,10.692-5.458,12-12a2.586,2.586,0,0,0-.707-2.334L20.818,7.189a7.725,7.725,0,0,1,4.944,2.278c.172.173,1,1.011,1.21,1.248,1.856,2.141,2.345,4.528,1.741,8.511a11.323,11.323,0,0,0,3.177,9.669L47.467,44.471a11.229,11.229,0,0,0,9.67,3.177c4.057-.613,6.352-.132,8.513,1.743.236.208,1.074,1.037,1.281,1.243a7.73,7.73,0,0,1,2.246,4.911Z" transform="translate(-1.999 -2)" fill="#1c54f8" stroke="#fff" stroke-width="2.8"></path><path id="Path_102" data-name="Path 102" d="M37.09,9H21.584a2.584,2.584,0,0,0,0,5.169H37.09A2.584,2.584,0,0,0,37.09,9Z" transform="translate(24.935 9.09)" fill="#1c54f8" stroke="#fff" stroke-width="2.8"></path><path id="Path_103" data-name="Path 103" d="M37.09,12H21.584a2.584,2.584,0,0,0,0,5.169H37.09a2.584,2.584,0,0,0,0-5.169Z" transform="translate(24.935 13.843)" fill="#1c54f8" stroke="#fff" stroke-width="2.8"></path><path id="Path_104" data-name="Path 104" d="M32.337,15H24.584a2.584,2.584,0,1,0,0,5.169h7.753a2.584,2.584,0,1,0,0-5.169Z" transform="translate(29.689 18.596)" fill="#1c54f8" stroke="#fff" stroke-width="2.8"></path><path id="Path_105" data-name="Path 105" d="M15.753,18a7.753,7.753,0,1,0,7.753,7.753A7.762,7.762,0,0,0,15.753,18Zm0,10.337a2.584,2.584,0,1,1,2.584-2.584A2.588,2.588,0,0,1,15.753,28.337Z" transform="translate(7.508 23.349)" fill="#1c54f8" stroke="#fff" stroke-width="2.8"></path></g></g></g></svg> 