<?xml version="1.0" encoding="UTF-8"?> <svg xmlns="http://www.w3.org/2000/svg" xmlns:xlink="http://www.w3.org/1999/xlink" width="60" height="60" viewBox="0 0 60 60"><defs><clipPath id="clip-path"><rect id="Rectangle_8" data-name="Rectangle 8" width="60" height="60" transform="translate(87 51)" fill="#fff" stroke="#707070" stroke-width="1"></rect></clipPath></defs><g id="Mask_Group_30" data-name="Mask Group 30" transform="translate(-87 -51)" clip-path="url(#clip-path)"><g id="Group_34" data-name="Group 34" transform="translate(66.618 3)"><path id="Path_142" data-name="Path 142" d="M54.47,44.859l-3.3-12.307V13.485a.745.745,0,0,0-.218-.527L42.331,4.336a.744.744,0,0,0-.527-.219H38.085L33.725,1.6a.745.745,0,0,0-.565-.074L23.488,4.117H14.275a.745.745,0,0,0-.745.745V6.785L6.569,8.65a.745.745,0,0,0-.527.913L13.02,35.6a7.955,7.955,0,0,0,.332,9.692l-1.138,1.138a1.769,1.769,0,0,0-2.409.082L6.3,50.026a1.769,1.769,0,0,0,0,2.5l.88.882a1.77,1.77,0,0,0,2.5,0L13.183,49.9a1.743,1.743,0,0,0,.346-.492V51.49a.745.745,0,0,0,.745.745h3.2L18.11,54.6a.745.745,0,0,0,.719.554.76.76,0,0,0,.193-.025l10.8-2.894h20.6a.745.745,0,0,0,.745-.745V46.515l2.769-.743a.745.745,0,0,0,.528-.913Zm-11.92-38.2,6.078,6.079H42.549Zm-9.3-3.616L35.1,4.117H29.246ZM13.531,8.328V31.751L7.675,9.9Zm1.377,27.346a6.43,6.43,0,1,1-1.9,4.561,6.447,6.447,0,0,1,1.9-4.561Zm6.28-3.4V27.1h2.2v5.18Zm-9.056,16.57L8.623,52.353a.279.279,0,0,1-.392,0l-.883-.881a.281.281,0,0,1,0-.392l3.508-3.508a.281.281,0,0,1,.392,0l.882.882a.28.28,0,0,1,0,.391Zm1.136-1.355.263-.263v.665a1.76,1.76,0,0,0-.263-.4Zm6.09,6.006-.338-1.261h5.045Zm-4.336-2.751V46.813a7.95,7.95,0,0,0,10.06-.962c.022-.022.042-.045.063-.067H44.26a.745.745,0,1,0,0-1.49H26.292a7.879,7.879,0,0,0,.684-1.486H44.26a.745.745,0,0,0,0-1.491H27.328a7.968,7.968,0,0,0,.065-1.483H41.257a.745.745,0,0,0,0-1.491H27.176a7.872,7.872,0,0,0-.519-1.483h3.271a.745.745,0,1,0,0-1.49H25.74a7.877,7.877,0,0,0-.659-.75,8.023,8.023,0,0,0-1.013-.856h.063a.745.745,0,0,0,.745-.745V26.352a.745.745,0,0,0-.745-.745H20.445a.745.745,0,0,0-.75.745V32.3c-.077,0-.153-.006-.231-.006a7.879,7.879,0,0,0-4.442,1.36V5.608H41.059v7.877a.745.745,0,0,0,.745.745h7.878V50.745Zm36.15-5.773V38.311l1.665,6.215ZM30.841,22.546H27.152a.745.745,0,0,0-.745.745v9.73a.745.745,0,0,0,.745.745h3.688a.745.745,0,0,0,.745-.745v-9.73a.745.745,0,0,0-.745-.745Zm-.745,9.73H27.9v-8.24h2.2ZM37.55,18.891H33.862a.745.745,0,0,0-.745.745V33.021a.745.745,0,0,0,.745.745H37.55a.745.745,0,0,0,.745-.745V19.637a.746.746,0,0,0-.745-.748ZM36.8,32.276h-2.2v-11.9h2.2Zm7.455-11.72H40.572a.745.745,0,0,0-.745.745v11.72a.745.745,0,0,0,.745.745H44.26a.745.745,0,0,0,.745-.745V21.3A.745.745,0,0,0,44.26,20.556Zm-.745,11.72h-2.2V22.046h2.2ZM19.7,11.666a.745.745,0,0,1,.75-.745H29.1a.745.745,0,1,1,0,1.491H20.445a.745.745,0,0,1-.75-.745Zm0,2.751a.745.745,0,0,1,.75-.744H36.08a.745.745,0,1,1,0,1.49H20.445a.745.745,0,0,1-.75-.747Zm16.379,3.5H20.445a.745.745,0,0,1,0-1.491H36.08a.745.745,0,0,1,0,1.491Zm-18.8,24.261v-.646a.745.745,0,1,1,1.49,0v.646a.728.728,0,0,0,1.411,0v-.646c0-.307,0-.38-.861-.564-.713-.151-2.039-.436-2.039-2.02V38.3a2.055,2.055,0,0,1,1.45-1.915v-.621a.745.745,0,1,1,1.49,0v.621A2.056,2.056,0,0,1,21.663,38.3v.646a.745.745,0,0,1-1.491,0V38.3a.728.728,0,0,0-1.411,0v.646c0,.306,0,.379.862.564.713.153,2.039.437,2.039,2.019v.647a2.055,2.055,0,0,1-1.449,1.917v.621a.745.745,0,1,1-1.49,0V44.09A2.054,2.054,0,0,1,17.272,42.173Z" transform="translate(20.603 49.5)" fill="#1c54f8" stroke="#fff" stroke-width="0.4"></path></g></g></svg> 