<?xml version="1.0" encoding="UTF-8"?> <svg xmlns="http://www.w3.org/2000/svg" xmlns:xlink="http://www.w3.org/1999/xlink" width="90" height="90" viewBox="0 0 90 90"><defs><clipPath id="clip-path"><rect id="Rectangle_21" data-name="Rectangle 21" width="90" height="90" transform="translate(595 470)" fill="#fff" stroke="#707070" stroke-width="1"></rect></clipPath></defs><g id="Mask_Group_32" data-name="Mask Group 32" transform="translate(-595 -470)" clip-path="url(#clip-path)"><g id="Group_31" data-name="Group 31" transform="translate(-86.63 21)"><g id="Group_30" data-name="Group 30" transform="translate(687.63 456)"><path id="Path_111" data-name="Path 111" d="M36.717,36.1c-8.086,0-14.421,3.626-14.421,8.254,0,.433-.024,14.987.048,15.414.43,4.387,6.578,7.759,14.372,7.759,8.019,0,14.331-3.581,14.41-8.172,0-.019.011-.034.011-.053V44.327c0-.007,0-.013,0-.021C51.089,39.7,44.775,36.1,36.717,36.1ZM48.166,59.268c0,.011-.006.02-.007.031-.02,2.487-4.724,5.257-11.442,5.257-6.743,0-11.442-2.78-11.442-5.275,0-.011-.006-.021-.007-.032V56.9c2.679,1.985,6.918,3.171,11.449,3.171s8.768-1.185,11.449-3.171Zm0-7.479c0,.011-.007.021-.007.032a3.574,3.574,0,0,1-1.574,2.563c-2.122,1.673-5.9,2.712-9.868,2.712s-7.746-1.039-9.866-2.711a3.577,3.577,0,0,1-1.576-2.564c0-.011-.006-.021-.007-.032V49.417c2.615,1.95,6.727,3.192,11.449,3.192s8.834-1.242,11.449-3.192ZM36.717,49.637c-6.747,0-11.449-2.784-11.449-5.282s4.7-5.282,11.449-5.282,11.449,2.784,11.449,5.282S43.464,49.637,36.717,49.637Z" transform="translate(2.468 7.514)" fill="#1c54f8"></path><path id="Path_112" data-name="Path 112" d="M26.426,32.576h18.01a1.486,1.486,0,0,0,1.486-1.486V14c0-.007,0-.014,0-.022a1.576,1.576,0,0,0-.388-1.055L40.3,7.231c-.008-.009-.02-.012-.029-.021a1.855,1.855,0,0,0-1.067-.46H26.426A1.486,1.486,0,0,0,24.94,8.236V31.09A1.486,1.486,0,0,0,26.426,32.576ZM27.912,9.722H38.555l4.395,4.785V29.6H27.912Z" transform="translate(3.754 -6.75)" fill="#1c54f8"></path><path id="Path_113" data-name="Path 113" d="M36.348,12.315H30.527a1.486,1.486,0,0,0,0,2.972h5.821a1.486,1.486,0,0,0,0-2.972Z" transform="translate(5.747 -4.045)" fill="#1c54f8"></path><path id="Path_114" data-name="Path 114" d="M36.348,16.565H30.527a1.486,1.486,0,0,0,0,2.972h5.821a1.486,1.486,0,0,0,0-2.972Z" transform="translate(5.747 -1.98)" fill="#1c54f8"></path><path id="Path_115" data-name="Path 115" d="M26.224,24.177l-5.232-5.7c-.008-.009-.02-.012-.029-.021A1.734,1.734,0,0,0,19.9,18H7.116A1.486,1.486,0,0,0,5.63,19.486V42.34a1.486,1.486,0,0,0,1.486,1.486h18.01a1.486,1.486,0,0,0,1.486-1.486V25.254c0-.007,0-.014,0-.022A1.576,1.576,0,0,0,26.224,24.177ZM23.64,40.854H8.6V20.972H19.245l4.395,4.785Z" transform="translate(-5.63 -1.283)" fill="#1c54f8"></path><path id="Path_116" data-name="Path 116" d="M11.217,23.565a1.486,1.486,0,1,0,0,2.972h5.821a1.486,1.486,0,1,0,0-2.972Z" transform="translate(-3.637 1.422)" fill="#1c54f8"></path><path id="Path_117" data-name="Path 117" d="M17.038,27.815H11.217a1.486,1.486,0,0,0,0,2.972h5.821a1.486,1.486,0,1,0,0-2.972Z" transform="translate(-3.637 3.487)" fill="#1c54f8"></path><path id="Path_118" data-name="Path 118" d="M63.746,18H50.967c-.012,0-.021.006-.033.007a1.707,1.707,0,0,0-1.034.453c-.009.009-.02.012-.029.021l-5.232,5.7a1.509,1.509,0,0,0-.388,1.055c0,.007,0,.014,0,.022V42.34a1.486,1.486,0,0,0,1.486,1.486h18.01a1.486,1.486,0,0,0,1.486-1.486V19.486A1.486,1.486,0,0,0,63.746,18ZM62.26,40.854H47.222v-15.1l4.395-4.785H62.26Z" transform="translate(13.138 -1.283)" fill="#1c54f8"></path><path id="Path_119" data-name="Path 119" d="M48.352,25.051a1.486,1.486,0,0,0,1.486,1.486h5.821a1.486,1.486,0,1,0,0-2.972H49.838A1.486,1.486,0,0,0,48.352,25.051Z" transform="translate(15.131 1.422)" fill="#1c54f8"></path><path id="Path_120" data-name="Path 120" d="M55.658,27.815H49.838a1.486,1.486,0,0,0,0,2.972h5.821a1.486,1.486,0,1,0,0-2.972Z" transform="translate(15.131 3.487)" fill="#1c54f8"></path><path id="Path_121" data-name="Path 121" d="M33.946,25.357a1.486,1.486,0,0,0-1.486,1.486v6.515l-1.929-1.929a1.486,1.486,0,0,0-2.1,2.1L32.9,38A1.487,1.487,0,0,0,35,38l4.465-4.465a1.486,1.486,0,0,0-2.1-2.1l-1.929,1.929V26.843A1.486,1.486,0,0,0,33.946,25.357Z" transform="translate(5.239 2.293)" fill="#1c54f8"></path><path id="Path_122" data-name="Path 122" d="M23.231,46.6l-4.465-4.465a1.486,1.486,0,0,0-2.1,2.1l1.929,1.929H14.662V38.611a1.486,1.486,0,1,0-2.972,0v9.043a1.486,1.486,0,0,0,1.486,1.486h5.418l-1.929,1.929a1.486,1.486,0,1,0,2.1,2.1L23.231,48.7A1.487,1.487,0,0,0,23.231,46.6Z" transform="translate(-2.685 8.011)" fill="#1c54f8"></path><path id="Path_123" data-name="Path 123" d="M54.741,37.125a1.486,1.486,0,0,0-1.486,1.486v7.557H49.323l1.929-1.929a1.486,1.486,0,0,0-2.1-2.1L44.686,46.6a1.487,1.487,0,0,0,0,2.1l4.465,4.465a1.486,1.486,0,1,0,2.1-2.1l-1.929-1.929h5.418a1.486,1.486,0,0,0,1.486-1.486V38.611A1.486,1.486,0,0,0,54.741,37.125Z" transform="translate(13.138 8.011)" fill="#1c54f8"></path></g></g></g></svg> 