<?xml version="1.0" encoding="UTF-8"?> <svg xmlns="http://www.w3.org/2000/svg" xmlns:xlink="http://www.w3.org/1999/xlink" width="90" height="90" viewBox="0 0 90 90"><defs><clipPath id="clip-path"><rect id="Rectangle_6" data-name="Rectangle 6" width="90" height="90" transform="translate(1726 174)" fill="#fff"></rect></clipPath></defs><g id="Mask_Group_99" data-name="Mask Group 99" transform="translate(-1726 -174)" clip-path="url(#clip-path)"><g id="Group_369" data-name="Group 369" transform="translate(-1.545 109.07)"><path id="Path_731" data-name="Path 731" d="M405.576,127.13H385.5a.908.908,0,0,1,0-1.816h20.081a.908.908,0,1,1,0,1.816Z" transform="translate(1393.171 -37.955)" fill="#05f"></path><path id="Path_732" data-name="Path 732" d="M526.007,113.741a3.667,3.667,0,1,1,3.667-3.667A3.653,3.653,0,0,1,526.007,113.741Zm0-5.519a1.843,1.843,0,1,0,1.852,1.834A1.844,1.844,0,0,0,526.007,108.221Z" transform="translate(1275.5 -21.805)" fill="#05f"></path><path id="Path_733" data-name="Path 733" d="M399.594,201.8H385.505a.908.908,0,0,1,0-1.816h14.089a.908.908,0,0,1,0,1.816Z" transform="translate(1393.163 -101.731)" fill="#05f"></path><path id="Path_734" data-name="Path 734" d="M484.817,188.614a3.649,3.649,0,1,1,3.667-3.649A3.649,3.649,0,0,1,484.817,188.614Zm0-5.5a1.834,1.834,0,1,0,1.852,1.834A1.84,1.84,0,0,0,484.817,183.113Z" transform="translate(1310.681 -85.786)" fill="#05f"></path><path id="Path_735" data-name="Path 735" d="M405.576,276.46H385.5a.908.908,0,0,1,0-1.816h20.081a.908.908,0,1,1,0,1.816Z" transform="translate(1393.171 -165.499)" fill="#05f"></path><path id="Path_736" data-name="Path 736" d="M526.007,263.284a3.649,3.649,0,1,1,3.667-3.649A3.649,3.649,0,0,1,526.007,263.284Zm0-5.5a1.843,1.843,0,1,0,1.852,1.852A1.859,1.859,0,0,0,526.007,257.783Z" transform="translate(1275.5 -149.563)" fill="#05f"></path><path id="Path_737" data-name="Path 737" d="M399.594,351.25H385.505a.908.908,0,1,1,0-1.816h14.089a.908.908,0,0,1,0,1.816Z" transform="translate(1393.163 -229.378)" fill="#05f"></path><path id="Path_738" data-name="Path 738" d="M484.817,337.847a3.658,3.658,0,1,1,3.667-3.649A3.649,3.649,0,0,1,484.817,337.847Zm0-5.5a1.843,1.843,0,1,0,1.852,1.852A1.844,1.844,0,0,0,484.817,332.346Z" transform="translate(1310.681 -213.232)" fill="#05f"></path><path id="Path_739" data-name="Path 739" d="M405.576,425.92H385.5a.908.908,0,0,1,0-1.816h20.081a.908.908,0,1,1,0,1.816Z" transform="translate(1393.171 -293.154)" fill="#05f"></path><path id="Path_740" data-name="Path 740" d="M526.007,412.507a3.658,3.658,0,1,1,3.667-3.667A3.653,3.653,0,0,1,526.007,412.507Zm0-5.5a1.843,1.843,0,0,0,0,3.685,1.843,1.843,0,1,0,0-3.685Z" transform="translate(1275.5 -277)" fill="#05f"></path><path id="Path_741" data-name="Path 741" d="M395.436,44.256h-9.931a.908.908,0,0,1,0-1.816h9.531l3.94-4.321a.95.95,0,0,1,.672-.291H407.4a.908.908,0,0,1,0,1.816h-7.353l-3.94,4.321a.95.95,0,0,1-.672.291Z" transform="translate(1393.163 36.768)" fill="#05f"></path><path id="Path_742" data-name="Path 742" d="M538.22,26.252a3.667,3.667,0,1,1,3.649-3.667A3.669,3.669,0,0,1,538.22,26.252Zm0-5.519a1.843,1.843,0,1,0,1.834,1.834A1.829,1.829,0,0,0,538.22,20.732Z" transform="translate(1265.084 52.92)" fill="#05f"></path><path id="Path_743" data-name="Path 743" d="M399.478,486.413h-7.752a.919.919,0,0,1-.672-.291l-3.94-4.321h-1.488a.908.908,0,1,1,0-1.816h1.888a.919.919,0,0,1,.672.291l3.94,4.321h7.353a.9.9,0,0,1,.908.908.911.911,0,0,1-.908.908Z" transform="translate(1393.06 -340.882)" fill="#05f"></path><path id="Path_744" data-name="Path 744" d="M483.21,500a3.658,3.658,0,1,1,3.649-3.667A3.669,3.669,0,0,1,483.21,500Zm0-5.5a1.843,1.843,0,1,0,1.834,1.834,1.829,1.829,0,0,0-1.834-1.834Z" transform="translate(1312.069 -351.726)" fill="#05f"></path><path id="Path_745" data-name="Path 745" d="M155.924,86.09h-4.067a5.35,5.35,0,0,1-5.338-5.356V70.658c-.472-.182-.926-.363-1.4-.581L138,77.194a5.358,5.358,0,0,1-7.571,0l-5.755-5.755a5.336,5.336,0,0,1,0-7.553l7.117-7.117c-.2-.454-.4-.926-.581-1.4H121.156a5.366,5.366,0,0,1-5.356-5.356V41.882a5.35,5.35,0,0,1,5.356-5.338h10.076c.182-.472.381-.926.581-1.4l-7.135-7.1a5.347,5.347,0,0,1,0-7.552l5.755-5.755a5.358,5.358,0,0,1,7.571,0l7.117,7.117c.454-.2.926-.4,1.4-.581V11.2a5.366,5.366,0,0,1,5.356-5.356h4.067a.9.9,0,0,1,.908.908V85.182a.926.926,0,0,1-.926.908Zm-11-17.991a1.069,1.069,0,0,1,.4.091,23.315,23.315,0,0,0,2.415,1,.9.9,0,0,1,.6.853V80.753a3.541,3.541,0,0,0,3.522,3.54h3.159V7.677h-3.159a3.529,3.529,0,0,0-3.522,3.54V21.928a.9.9,0,0,1-.6.853,25.112,25.112,0,0,0-2.415,1,.916.916,0,0,1-1.035-.182l-7.571-7.588a3.529,3.529,0,0,0-4.993,0l-5.755,5.755a3.55,3.55,0,0,0,0,5.01l7.571,7.571a.917.917,0,0,1,.182,1.035,23.315,23.315,0,0,0-1,2.415.9.9,0,0,1-.853.6H121.157a3.525,3.525,0,0,0-3.522,3.522v8.133a3.541,3.541,0,0,0,3.522,3.54H131.85a.9.9,0,0,1,.853.6,23.326,23.326,0,0,0,1,2.415.916.916,0,0,1-.182,1.035l-7.571,7.571a3.529,3.529,0,0,0,0,4.993l5.755,5.755a3.529,3.529,0,0,0,4.993,0l7.571-7.571a.872.872,0,0,1,.654-.29Z" transform="translate(1622.744 64.087)" fill="#05f"></path><path id="Path_746" data-name="Path 746" d="M298.884,204.768a15.7,15.7,0,1,1,0-31.408.908.908,0,0,1,0,1.816,13.889,13.889,0,1,0,0,27.777.908.908,0,0,1,0,1.816Z" transform="translate(1479.784 -78.991)" fill="#05f"></path></g></g></svg> 