<?xml version="1.0" encoding="UTF-8"?> <svg xmlns="http://www.w3.org/2000/svg" width="60" height="60" viewBox="0 0 60 60" fill="none"><mask id="mask0_1_21" style="mask-type:alpha" maskUnits="userSpaceOnUse" x="0" y="0" width="60" height="60"><rect width="60" height="60" fill="#D9D9D9"></rect></mask><g mask="url(#mask0_1_21)"><path fill-rule="evenodd" clip-rule="evenodd" d="M10.26 33.07H6.11933V37.2107H10.26V33.07ZM5.43267 31.696H10.9473C11.3267 31.696 11.6347 32.0033 11.6347 32.3833V37.898C11.6347 38.2773 11.3273 38.5853 10.9473 38.5853H5.43267C5.05333 38.5853 4.74533 38.278 4.74533 37.898V32.3833C4.74533 32.004 5.05267 31.696 5.43267 31.696ZM13.466 34.0227C13.0867 34.0227 12.7787 33.7153 12.7787 33.3353C12.7787 32.9553 13.086 32.648 13.466 32.648H23.688C24.0673 32.648 24.3753 32.9553 24.3753 33.3353C24.3753 33.7153 24.068 34.0227 23.688 34.0227H13.466ZM22.6193 37.6313C22.24 37.6313 21.932 37.324 21.932 36.944C21.932 36.564 22.2393 36.2567 22.6193 36.2567H26.8833C27.2627 36.2567 27.5707 36.564 27.5707 36.944C27.5707 37.324 27.2633 37.6313 26.8833 37.6313H22.6193ZM13.466 37.6313C13.0867 37.6313 12.7787 37.324 12.7787 36.944C12.7787 36.564 13.086 36.2567 13.466 36.2567H20.1747C20.554 36.2567 20.862 36.564 20.862 36.944C20.862 37.324 20.5547 37.6313 20.1747 37.6313H13.466ZM4.85933 7.91734H23.2493C23.6287 7.91734 23.9367 8.22467 23.9367 8.60467V19.5C23.9367 19.8793 23.6293 20.1873 23.2493 20.1873H4.85933C4.48 20.1873 4.172 19.88 4.172 19.5V8.60467C4.172 8.22534 4.47933 7.91734 4.85933 7.91734ZM19.4973 11.1753C19.4973 10.796 19.8047 10.488 20.1847 10.488C20.5647 10.488 20.872 10.7953 20.872 11.1753V18.8127H22.5633V9.29134H5.54667V18.8127H7.23733V15.5C7.23733 15.1207 7.54467 14.8127 7.92467 14.8127C8.30467 14.8127 8.612 15.12 8.612 15.5V18.8127H10.3027V14.4187C10.3027 14.0393 10.61 13.7313 10.99 13.7313C11.37 13.7313 11.6773 14.0387 11.6773 14.4187V18.8127H13.368V13.3373C13.368 12.958 13.6753 12.65 14.0553 12.65C14.4353 12.65 14.7427 12.9573 14.7427 13.3373V18.8127H16.4333V12.256C16.4333 11.8767 16.7407 11.5687 17.1207 11.5687C17.5007 11.5687 17.808 11.876 17.808 12.256V18.8127H19.4987V11.1753H19.4973ZM10.26 42.8747H6.11933V47.0153H10.26V42.8747ZM5.43267 41.5007H10.9473C11.3267 41.5007 11.6347 41.808 11.6347 42.188V47.7027C11.6347 48.082 11.3273 48.39 10.9473 48.39H5.43267C5.05333 48.39 4.74533 48.0827 4.74533 47.7027V42.188C4.74533 41.8087 5.05267 41.5007 5.43267 41.5007ZM13.466 43.8273C13.0867 43.8273 12.7787 43.52 12.7787 43.14C12.7787 42.76 13.086 42.4527 13.466 42.4527H23.688C24.0673 42.4527 24.3753 42.76 24.3753 43.14C24.3753 43.52 24.068 43.8273 23.688 43.8273H13.466ZM22.6193 47.436C22.24 47.436 21.932 47.1287 21.932 46.7487C21.932 46.3687 22.2393 46.0613 22.6193 46.0613H26.8833C27.2627 46.0613 27.5707 46.3687 27.5707 46.7487C27.5707 47.1287 27.2633 47.436 26.8833 47.436H22.6193ZM13.466 47.436C13.0867 47.436 12.7787 47.1287 12.7787 46.7487C12.7787 46.3687 13.086 46.0613 13.466 46.0613H20.1747C20.554 46.0613 20.862 46.3687 20.862 46.7487C20.862 47.1287 20.5547 47.436 20.1747 47.436H13.466ZM10.26 23.266H6.11933V27.4067H10.26V23.266ZM5.43267 21.892H10.9473C11.3267 21.892 11.6347 22.1993 11.6347 22.5793V28.094C11.6347 28.4733 11.3273 28.7813 10.9473 28.7813H5.43267C5.05333 28.7813 4.74533 28.474 4.74533 28.094V22.5793C4.74533 22.2 5.05267 21.892 5.43267 21.892ZM19.074 24.2187C18.6947 24.2187 18.3867 23.9113 18.3867 23.5313C18.3867 23.1513 18.694 22.844 19.074 22.844H26.8833C27.2627 22.844 27.5707 23.1513 27.5707 23.5313C27.5707 23.9113 27.2633 24.2187 26.8833 24.2187H19.074ZM13.466 24.2187C13.0867 24.2187 12.7787 23.9113 12.7787 23.5313C12.7787 23.1513 13.086 22.844 13.466 22.844H16.6293C17.0087 22.844 17.3167 23.1513 17.3167 23.5313C17.3167 23.9113 17.0093 24.2187 16.6293 24.2187H13.466ZM13.466 27.8273C13.0867 27.8273 12.7787 27.52 12.7787 27.14C12.7787 26.76 13.086 26.4527 13.466 26.4527H24.646C25.0253 26.4527 25.3333 26.76 25.3333 27.14C25.3333 27.52 25.026 27.8273 24.646 27.8273H13.466ZM33.5207 41.1447H30.768V47.574H33.5207V41.1447ZM30.0807 39.7707H34.2073C34.5867 39.7707 34.8947 40.078 34.8947 40.458V48.2613C34.8947 48.6407 34.5873 48.9487 34.2073 48.9487H30.0807C29.7013 48.9487 29.3933 48.6413 29.3933 48.2613V40.458C29.3933 40.0787 29.7007 39.7707 30.0807 39.7707ZM40.362 35.0133H37.6093V47.574H40.362V35.0133ZM36.922 33.6393H41.0487C41.428 33.6393 41.736 33.9467 41.736 34.3267V48.2613C41.736 48.6407 41.4287 48.9487 41.0487 48.9487H36.922C36.5427 48.9487 36.2347 48.6413 36.2347 48.2613V34.3267C36.2347 33.9473 36.542 33.6393 36.922 33.6393ZM47.2033 38.4693H44.4507V47.574H47.2033V38.4693ZM43.7633 37.0953H47.89C48.2693 37.0953 48.5773 37.4027 48.5773 37.7827V48.2613C48.5773 48.6407 48.27 48.9487 47.89 48.9487H43.7633C43.384 48.9487 43.076 48.6413 43.076 48.2613V37.7827C43.076 37.4033 43.3833 37.0953 43.7633 37.0953ZM33.0513 35.0787C32.2453 34.2727 30.86 34.8453 30.86 35.9867C30.86 37.128 32.2453 37.7007 33.0513 36.8947C33.5527 36.3933 33.5527 35.58 33.0513 35.0793V35.0787ZM39.8933 26.9347C39.0873 26.1287 37.702 26.702 37.702 27.8427C37.702 28.9833 39.0873 29.5567 39.8933 28.7507C40.3947 28.2493 40.3947 27.436 39.8933 26.9347ZM46.7353 31.422C45.9293 30.616 44.544 31.1893 44.544 32.33C44.544 33.4707 45.9293 34.044 46.7353 33.238C47.2367 32.7367 47.2367 31.9233 46.7353 31.422ZM53.5773 22.8833C52.7713 22.0773 51.386 22.65 51.386 23.7913C51.386 24.9327 52.7713 25.5053 53.5773 24.6993C54.0787 24.198 54.0787 23.384 53.5773 22.8833ZM38.986 30.5007C38.486 30.5007 38.0187 30.3627 37.6193 30.1227L34.332 34.4767C35.544 36.2287 34.2893 38.6447 32.1447 38.6447C29.7853 38.6447 28.5947 35.778 30.2653 34.1073C31.056 33.3167 32.266 33.1 33.2853 33.5853L36.656 29.1213C35.6893 27.3647 36.9593 25.1847 38.986 25.1847C40.5987 25.1847 41.84 26.6093 41.6187 28.2093L44.2147 30.218C44.9193 29.6793 45.8573 29.5233 46.7073 29.8213L50.494 25.318C49.2633 23.5673 50.5167 21.1333 52.67 21.1333C55.0293 21.1333 56.22 24 54.5493 25.6707C53.762 26.458 52.5587 26.676 51.5413 26.198L47.8427 30.5967C49.3207 32.3127 48.0973 34.988 45.828 34.988C43.9233 34.988 42.6453 33.0413 43.3767 31.3013L41.058 29.5073C40.516 30.1807 39.8607 30.5007 38.986 30.5007ZM54.046 31.3187H51.2933V47.574H54.046V31.3187ZM50.606 29.9447C50.2267 29.9447 49.9187 30.252 49.9187 30.632V48.2613C49.9187 48.6407 50.226 48.9487 50.606 48.9487H54.7327C55.112 48.9487 55.42 48.6413 55.42 48.2613V30.632C55.42 30.2527 55.1127 29.9447 54.7327 29.9447H50.606ZM39.5713 14.9587C39.1593 12.6473 37.272 10.89 34.9527 10.6213L34.9687 14.9753L39.5713 14.9587ZM34.2867 16.3467C33.9087 16.3467 33.6027 16.04 33.6027 15.6627L33.5807 9.56333C30.4993 9.916 28.1367 12.542 28.148 15.6873C28.16 19.074 30.92 21.814 34.312 21.802C37.4513 21.7907 40.0593 19.41 40.3913 16.3247L34.2867 16.3467ZM34.9473 9.24467L34.946 8.838C34.946 8.46 34.6393 8.154 34.262 8.154C30.124 8.16134 26.764 11.538 26.7787 15.6873C26.794 19.838 30.1667 23.1853 34.3113 23.1707C38.458 23.1553 41.802 19.7953 41.7947 15.638C41.7947 15.26 41.488 14.954 41.1107 14.954H40.9573C40.5227 11.8867 38.034 9.526 34.948 9.246L34.9473 9.24467ZM57.2427 6.65734V49.0087C57.2427 49.604 56.7533 50.0933 56.158 50.0933H3.84C3.24467 50.0933 2.75533 49.604 2.75533 49.0087V6.658H57.2433L57.2427 6.65734ZM1.89533 5.284H58.1033C58.3887 5.284 58.6247 5.048 58.6247 4.76267V3.22934C58.6247 2.944 58.3887 2.708 58.1033 2.708H1.89533C1.61 2.708 1.374 2.944 1.374 3.22934V4.76267C1.374 5.048 1.61 5.284 1.89533 5.284ZM30.832 56.9347C30.4267 56.5293 29.5727 56.5293 29.1673 56.9347C28.428 57.674 28.9533 58.944 30 58.944C31.0467 58.944 31.5707 57.674 30.832 56.9347ZM30.6867 55.3093C32.5513 55.83 33.1893 58.1853 31.8033 59.5707C30.2 61.174 27.4487 60.0313 27.4487 57.7667C27.4487 56.6087 28.2253 55.6127 29.3127 55.3093V51.468H3.84C2.486 51.468 1.38133 50.3627 1.38133 49.0093V6.58667C0.577333 6.35934 0 5.61934 0 4.762V3.22867C0 2.18467 0.852 1.33334 1.89533 1.33334H58.1033C59.1467 1.33334 59.9987 2.18534 59.9987 3.22867V4.762C59.9987 5.61867 59.4213 6.35867 58.6173 6.58667V49.0093C58.6173 50.3633 57.512 51.468 56.1587 51.468H30.6867V55.3093ZM43.0933 11.5907H50.4353C50.8147 11.5907 51.1227 11.2833 51.1227 10.9033C51.1227 10.5233 50.8153 10.216 50.4353 10.216H43.0933C42.714 10.216 42.406 10.5233 42.406 10.9033C42.406 11.2833 42.7133 11.5907 43.0933 11.5907ZM43.0933 15.6367H52.7713C53.1507 15.6367 53.4587 15.3293 53.4587 14.9493C53.4587 14.5693 53.1513 14.262 52.7713 14.262H43.0933C42.714 14.262 42.406 14.5693 42.406 14.9493C42.406 15.3293 42.7133 15.6367 43.0933 15.6367ZM43.0933 19.6827H55.1073C55.4867 19.6827 55.7947 19.3753 55.7947 18.9953C55.7947 18.6153 55.4873 18.308 55.1073 18.308H43.0933C42.714 18.308 42.406 18.6153 42.406 18.9953C42.406 19.3753 42.7133 19.6827 43.0933 19.6827Z" fill="#1B54F8"></path></g></svg> 