<?xml version="1.0" encoding="UTF-8"?> <svg xmlns="http://www.w3.org/2000/svg" width="91" height="91" viewBox="0 0 91 91" fill="none"><mask id="mask0_1_32" style="mask-type:luminance" maskUnits="userSpaceOnUse" x="0" y="0" width="91" height="91"><path d="M90.6 0.399994H0.600006V90.4H90.6V0.399994Z" fill="white"></path></mask><g mask="url(#mask0_1_32)"><path d="M2.89999 55.9H6.20001C8.70001 55.9 10.9 57.5 11.7 59.8C12.7 62 12.2 64.7 10.5 66.4L8.10001 68.7C7.50001 69.3 7.50001 70.2 8.10001 70.8L20.8 83.5C21.4 84.1 22.3 84.1 22.9 83.5L25.3 81.1C27.8 78.7 31.7 78.8 34.1 81.3C35.1 82.4 35.8 83.9 35.8 85.4V88.7C35.8 89.5 36.5 90.2 37.3 90.2H47.8C48.2 90.2 48.6 90 48.9 89.8C49.2 89.5 49.3 89.1 49.3 88.7V85.6C69.2 84.3 85.7 69.1 88 49.9L85 49.5C82.9 67.2 67.7 81.2 49.3 82.5V76.6C58 76.2 66.1 72.2 71.8 65.6L69.5 63.7C64.4 69.7 57.1 73.2 49.3 73.6V70.6C49.3 70.2 49.1 69.8 48.8 69.5C48.5 69.2 48.1 69.1 47.7 69.1C47.2 69.1 46.7 69.1 46.2 69.1C35.1 69.1 25.5 61.5 22.9 50.8L20 51.5C22.9 63.7 33.8 72.2 46.3 72.2V87.2H38.8V85.4C38.8 81.8 36.6 78.5 33.2 77.2H33C29.6 75.8 25.8 76.5 23.2 79L21.9 80.3L11.3 69.6L12.6 68.3C15.1 65.7 15.9 61.9 14.5 58.5L14.4 58.3C13 54.9 9.80001 52.7 6.10001 52.7H4.29999V37.7H6.10001C9.70001 37.7 13 35.5 14.3 32.1C14.3 32 14.4 32 14.4 31.9C15.8 28.5 15.1 24.7 12.6 22L11.3 20.7L21.9 10.1L23.2 11.4C25.8 13.9 29.6 14.7 32.9 13.3L33.1 13.2C36.5 11.9 38.7 8.59999 38.8 4.89999V3.09998H46.3V18.1C33.8 18 22.9 26.6 20 38.8L22.9 39.5C25.5 28.7 35.2 21.1 46.3 21.2C46.8 21.2 47.2 21.2 47.7 21.2C48.1 21.2 48.5 21.1 48.8 20.8C49.1 20.5 49.3 20.1 49.2 19.7V16.7C57 17.1 64.3 20.7 69.4 26.6L71.7 24.7C66.1 18.1 57.9 14.1 49.2 13.7V7.99998C67.6 9.29998 82.9 23.3 85 41L88 40.6C85.6 21.4 69.1 6.29999 49.2 4.89999V1.79999C49.2 0.999988 48.5 0.299988 47.7 0.299988H37.2C36.4 0.299988 35.7 0.999988 35.7 1.79999V5.09998C35.7 7.59998 34.1 9.79998 31.8 10.6C29.6 11.6 26.9 11.1 25.2 9.39999L22.8 6.99998C22.2 6.39998 21.3 6.39998 20.7 6.99998L8 19.7C7.4 20.3 7.4 21.2 8 21.8L10.4 24.2C12.8 26.7 12.7 30.6 10.2 33C9.10001 34 7.60001 34.7 6.10001 34.7H2.79999C1.99999 34.7 1.29999 35.4 1.29999 36.2V54.2C1.39999 55.2 1.99999 55.9 2.89999 55.9Z" fill="#1B54F8" stroke="white" stroke-width="0.4"></path><path d="M19.5 42.2C19.2 44.3 19.2 46.4 19.5 48.6L22.5 48.2C22.3 46.3 22.3 44.4 22.5 42.6L19.5 42.2Z" fill="#1B54F8" stroke="white" stroke-width="0.4"></path><path d="M25.4 45.4C25.4 57 34.8 66.4 46.4 66.4C58 66.4 67.4 57 67.4 45.4C67.4 33.8 58 24.4 46.4 24.4C34.8 24.4 25.4 33.8 25.4 45.4ZM44.9 34.9C43.5 34.8 42.1 34.5 40.7 34C41.4 31.5 42.8 29.3 44.9 27.8V34.9ZM47.9 27.9C49.9 29.4 51.4 31.6 52.1 34C50.7 34.4 49.3 34.7 47.9 34.9V27.9ZM37.9 32.8C37 32.3 36.2 31.8 35.4 31.2C36.8 30.1 38.4 29.2 40 28.6C39.2 29.9 38.4 31.3 37.9 32.8ZM39.8 36.8C41.4 37.4 43.1 37.7 44.8 37.8V43.8H38.8C38.9 41.5 39.3 39.2 39.8 36.8ZM44.9 46.9V52.9C43.2 53 41.5 53.3 39.9 53.9C39.4 51.6 39 49.3 38.9 46.9H44.9ZM44.9 63C42.9 61.5 41.4 59.3 40.7 56.9C42.1 56.5 43.5 56.2 44.9 56V63ZM47.9 56C49.3 56.1 50.7 56.4 52.1 56.9C51.4 59.4 49.9 61.5 47.9 63V56ZM40 62.2C38.3 61.6 36.8 60.7 35.4 59.6C36.2 59 37 58.4 37.9 58C38.4 59.5 39.2 60.9 40 62.2ZM54.8 58C55.7 58.5 56.5 59 57.3 59.6C55.9 60.7 54.3 61.6 52.7 62.2C53.6 60.9 54.3 59.5 54.8 58ZM52.9 53.9C51.3 53.4 49.6 53 47.9 52.9V46.8H53.9C53.8 49.3 53.4 51.6 52.9 53.9ZM47.9 43.9V37.9C49.6 37.8 51.3 37.5 52.9 36.9C53.4 39.2 53.8 41.5 53.9 43.9H47.9ZM52.7 28.6C54.4 29.2 55.9 30.1 57.3 31.2C56.5 31.8 55.7 32.4 54.8 32.8C54.3 31.3 53.6 29.9 52.7 28.6ZM33.2 33.2C34.4 34.2 35.7 35 37.1 35.7C36.4 38.4 36 41.1 35.9 43.9H28.4C28.7 39.9 30.4 36.1 33.2 33.2ZM28.4 46.9H35.9C36 49.7 36.4 52.4 37 55.1C35.6 55.8 34.3 56.6 33.1 57.6C30.5 54.7 28.8 50.9 28.4 46.9ZM59.6 57.6C58.4 56.6 57.1 55.8 55.7 55.1C56.4 52.4 56.8 49.7 56.9 46.9H64.4C64 50.9 62.3 54.7 59.6 57.6ZM64.4 43.9H56.9C56.8 41.1 56.4 38.4 55.8 35.7C57.2 35 58.5 34.2 59.7 33.2C62.3 36.1 64 39.9 64.4 43.9Z" fill="#1B54F8" stroke="white" stroke-width="0.4"></path><path d="M85.4 45.4C85.4 45.9 85.4 46.4 85.4 46.9H88.4C88.4 46.4 88.4 45.9 88.4 45.4C88.4 44.9 88.4 44.4 88.4 43.9H85.4C85.4 44.4 85.4 44.9 85.4 45.4Z" fill="#1B54F8" stroke="white" stroke-width="0.4"></path><path d="M76 31.2C75.5 30.1 74.8 29.1 74.2 28L71.7 29.7C72.3 30.6 72.9 31.6 73.4 32.5L76 31.2Z" fill="#1B54F8" stroke="white" stroke-width="0.4"></path><path d="M74.2 62.7C74.9 61.7 75.5 60.6 76 59.5L73.4 58.2C72.9 59.2 72.4 60.1 71.8 61L74.2 62.7Z" fill="#1B54F8" stroke="white" stroke-width="0.4"></path><path d="M79.4 45.4C79.4 41.6 78.7 37.9 77.4 34.4L74.6 35.5C77 41.9 77 49 74.6 55.5L77.4 56.6C78.7 52.9 79.4 49.2 79.4 45.4Z" fill="#1B54F8" stroke="white" stroke-width="0.4"></path><path d="M10.4 43.9H7.39999V46.9H10.4V43.9Z" fill="#1B54F8" stroke="white" stroke-width="0.4"></path><path d="M19.372 17.7857L17.2507 19.907L19.372 22.0283L21.4933 19.907L19.372 17.7857Z" fill="#1B54F8" stroke="white" stroke-width="0.4"></path><path d="M19.365 68.6871L17.2437 70.8084L19.365 72.9297L21.4863 70.8084L19.365 68.6871Z" fill="#1B54F8" stroke="white" stroke-width="0.4"></path></g></svg> 