<?xml version="1.0" encoding="UTF-8"?> <svg xmlns="http://www.w3.org/2000/svg" xmlns:xlink="http://www.w3.org/1999/xlink" width="60" height="60" viewBox="0 0 60 60"><defs><clipPath id="clip-path"><rect id="Rectangle_80" data-name="Rectangle 80" width="60" height="60" transform="translate(63 957)" fill="#fff" stroke="#707070" stroke-width="1"></rect></clipPath></defs><g id="Mask_Group_52" data-name="Mask Group 52" transform="translate(-63 -957)" clip-path="url(#clip-path)"><g id="Group_83" data-name="Group 83" transform="translate(-1430.531 -26.205)"><path id="Path_194" data-name="Path 194" d="M15.592,41.844A2.391,2.391,0,0,0,17.065,40.7l.92-1.61a13.916,13.916,0,0,0,1.456.085,13.614,13.614,0,1,0-10.91-5.511l-.92,1.6a2.415,2.415,0,0,0-.238,1.848,2.447,2.447,0,0,0,.809,1.243L2.459,45.983a4.615,4.615,0,0,0,1.388,6.78,4.638,4.638,0,0,0,3.773.375A4.657,4.657,0,0,0,10.4,50.557l3.7-8.8a2.356,2.356,0,0,0,.835.17A2.415,2.415,0,0,0,15.592,41.844ZM9.085,19.632a11.978,11.978,0,1,1-1.175,9.1A11.981,11.981,0,0,1,9.085,19.632Zm-.17,30.3A2.981,2.981,0,0,1,7.109,51.6a2.995,2.995,0,0,1-3.356-4.633L9.57,39.221l1.559.886,1.55.894Zm5.63-9.726-.443-.256h0l-2.172-1.252-2.615-1.5A.784.784,0,0,1,8.94,36.7a.808.808,0,0,1,.077-.613L9.647,35a13.886,13.886,0,0,0,3.041,2.385A13.183,13.183,0,0,0,16.282,38.8l-.63,1.09a.784.784,0,0,1-.494.375A.743.743,0,0,1,14.544,40.2Z" transform="translate(1495 983.818)" fill="#1c54f8" stroke="#fff" stroke-width="0.4"></path><path id="Path_195" data-name="Path 195" d="M28.64,44.5a.809.809,0,0,0,.809.809H51.236a.809.809,0,0,0,0-1.618H29.449A.8.8,0,0,0,28.64,44.5Z" transform="translate(1490.98 979.118)" fill="#1c54f8" stroke="#fff" stroke-width="0.4"></path><path id="Path_196" data-name="Path 196" d="M29.449,47.95a.809.809,0,0,0,0,1.618h6.763a.809.809,0,1,0,0-1.618Z" transform="translate(1490.98 978.487)" fill="#1c54f8" stroke="#fff" stroke-width="0.4"></path><path id="Path_197" data-name="Path 197" d="M47.706,23.65a7.606,7.606,0,1,0,7.606,7.606.809.809,0,0,0-.809-.809H48.523V24.459A.822.822,0,0,0,47.706,23.65Zm5.919,8.415a5.981,5.981,0,1,1-6.737-6.737v5.928a.809.809,0,0,0,.809.809Z" transform="translate(1489.281 982.09)" fill="#1c54f8" stroke="#fff" stroke-width="0.4"></path><path id="Path_198" data-name="Path 198" d="M58.916,28.815a.809.809,0,0,0,.809-.809A7.613,7.613,0,0,0,52.119,20.4a.809.809,0,0,0-.809.809v6.8a.809.809,0,0,0,.809.809Zm-5.979-6.737a5.981,5.981,0,0,1,5.11,5.119h-5.11Z" transform="translate(1487.618 982.572)" fill="#1c54f8" stroke="#fff" stroke-width="0.4"></path><path id="Path_199" data-name="Path 199" d="M31.158,29.684a.809.809,0,0,0-.809-.809h-.8V20.869a.809.809,0,0,0-.809-.809H25.281a.809.809,0,0,0-.809.809v8.006H23.263V23.859a.809.809,0,0,0-.809-.809H19a.809.809,0,0,0-.809.809v5.017H16.977v-3.33a.809.809,0,0,0-.809-.809H12.71a.809.809,0,0,0-.809.809v3.33H10.819a.809.809,0,0,0,0,1.618H30.357A.8.8,0,0,0,31.158,29.684ZM26.09,21.678h1.831v7.2H26.09Zm-6.286,3h1.831v4.207H19.8Zm-6.286,1.686H15.35v2.513H13.519Z" transform="translate(1493.743 982.623)" fill="#1c54f8" stroke="#fff" stroke-width="0.4"></path><path id="Path_200" data-name="Path 200" d="M57.307,15.256,47.7,5.648a.806.806,0,0,0-.571-.238H25.445a4.88,4.88,0,0,0-4.42,2.845.833.833,0,0,0,.051.775.816.816,0,0,0,.681.375h.119a.809.809,0,0,0,.809-.809V8.57a3.245,3.245,0,0,1,2.751-1.533H46.311V12.59a4.058,4.058,0,0,0,4.054,4.054h5.553v30.44a2.985,2.985,0,0,1-2.879,2.972,2.341,2.341,0,0,1-2.053-1.175,2.856,2.856,0,0,1,.043-2.8.8.8,0,0,0,.017-.818.82.82,0,0,0-.707-.417H22.2V40.662a.809.809,0,0,0-1.618,0v4.182h-1.49a.8.8,0,0,0-.69.392,4.477,4.477,0,0,0-.068,4.446,4.026,4.026,0,0,0,3.62,2.019H53.219c.034,0,.06-.017.085-.017a4.609,4.609,0,0,0,4.259-4.591V15.826A.9.9,0,0,0,57.307,15.256Zm-35.371,34.8a2.344,2.344,0,0,1-2.206-1.184,2.9,2.9,0,0,1-.153-2.419H49.139a4.487,4.487,0,0,0,.434,3.211c.077.136.162.264.247.392Zm26-37.475v-4.4l6.839,6.839h-4.4A2.435,2.435,0,0,1,47.938,12.581Z" transform="translate(1492.591 984.795)" fill="#1c54f8" stroke="#fff" stroke-width="0.4"></path></g></g></svg> 