<?xml version="1.0" encoding="UTF-8"?> <svg xmlns="http://www.w3.org/2000/svg" width="90" height="90" viewBox="0 0 90 90"><g id="Group_4565" data-name="Group 4565" transform="translate(-1765 -2014)"><rect id="Rectangle_944" data-name="Rectangle 944" width="90" height="90" transform="translate(1765 2014)" fill="#c3bebe" opacity="0"></rect><g id="Group_4558" data-name="Group 4558" transform="translate(116.195 124.681)"><path id="Path_428" data-name="Path 428" d="M201.054,121.88a9.873,9.873,0,1,0,9.995,9.873A9.936,9.936,0,0,0,201.054,121.88Zm0,17.43a7.436,7.436,0,1,1,7.557-7.435A7.415,7.415,0,0,1,201.054,139.31Z" transform="translate(1479.444 1789.259)" fill="#1b54f8"></path><path id="Path_429" data-name="Path 429" d="M364.451,271.963,361.4,271.6a14.806,14.806,0,0,0-1.707-4.022l2.8-3.535-3.413-3.413a1.675,1.675,0,0,0-2.194-.122l-2.437,1.828a16.641,16.641,0,0,0-4.022-1.707l-.365-3.047a1.683,1.683,0,0,0-1.585-1.463h-3.291a1.511,1.511,0,0,0-1.585,1.463l-.365,3.047a14.806,14.806,0,0,0-4.022,1.707l-2.437-1.828a1.836,1.836,0,0,0-2.194.122l-2.316,2.316a1.667,1.667,0,0,0-.122,2.194l1.828,2.437a14.818,14.818,0,0,0-1.707,4.022l-3.047.365a1.683,1.683,0,0,0-1.463,1.585v3.291a1.511,1.511,0,0,0,1.463,1.585l3.047.365a14.8,14.8,0,0,0,1.707,4.022l-1.828,2.437a1.675,1.675,0,0,0,.122,2.194l2.316,2.316a1.667,1.667,0,0,0,2.194.122l2.437-1.828a16.64,16.64,0,0,0,4.022,1.707l.365,3.047a1.683,1.683,0,0,0,1.585,1.463h3.291a1.511,1.511,0,0,0,1.585-1.463l.365-3.047a14.805,14.805,0,0,0,4.022-1.707l2.437,1.828a1.489,1.489,0,0,0,1.1.365,1.565,1.565,0,0,0,1.219-.487l2.316-2.316a1.667,1.667,0,0,0,.122-2.194l-1.828-2.437a14.818,14.818,0,0,0,1.707-4.022l3.047-.365a1.683,1.683,0,0,0,1.463-1.585v-3.291a1.943,1.943,0,0,0-1.585-1.585Zm-.975,4.266-2.925.365a1.552,1.552,0,0,0-1.341,1.341A18.351,18.351,0,0,1,357.5,282.2a1.654,1.654,0,0,0,.122,1.95l1.828,2.316-1.584,1.219-2.437-1.828a1.864,1.864,0,0,0-1.95-.122,10.844,10.844,0,0,1-4.266,1.707,1.689,1.689,0,0,0-1.341,1.341l-.365,2.925h-1.829l-.366-2.8a1.552,1.552,0,0,0-1.341-1.341,13.045,13.045,0,0,1-4.266-1.707,1.654,1.654,0,0,0-1.95.122l-2.315,1.706-1.341-1.341,1.95-2.559.609-.731-.487-.731a11.592,11.592,0,0,1-1.828-4.388,1.689,1.689,0,0,0-1.341-1.341l-3.169-.365v-1.95l2.925-.365a1.552,1.552,0,0,0,1.341-1.341,18.345,18.345,0,0,1,1.707-4.266,1.654,1.654,0,0,0-.122-1.95l-1.828-2.316L335.2,262.7l2.194,1.707.731.487h.853l.365-.244a11.363,11.363,0,0,1,4.509-1.828,1.689,1.689,0,0,0,1.341-1.341l.365-2.925h1.95l.365,2.925a1.552,1.552,0,0,0,1.341,1.341,13.048,13.048,0,0,1,4.266,1.707,1.654,1.654,0,0,0,1.95-.122l2.316-1.828,1.341,1.341-1.828,2.316a1.654,1.654,0,0,0-.122,1.95,10.844,10.844,0,0,1,1.707,4.266,1.689,1.689,0,0,0,1.341,1.341l2.925.365v2.071Z" transform="translate(1362.972 1674.889)" fill="#1b54f8"></path><path id="Path_430" data-name="Path 430" d="M402.083,323.65a9.142,9.142,0,1,0,9.263,9.141A9.234,9.234,0,0,0,402.083,323.65Zm0,15.845a6.789,6.789,0,0,1-6.825-6.7,6.711,6.711,0,0,1,6.825-6.7,6.7,6.7,0,1,1,0,13.407Z" transform="translate(1307.544 1617.351)" fill="#1b54f8"></path><path id="Path_431" data-name="Path 431" d="M134.055,39.438c-.975,0-1.828.122-2.681.122a28.108,28.108,0,0,0,.365-4.509,26.754,26.754,0,1,0-26.815,26.813,28.562,28.562,0,0,0,4.631-.365,19.729,19.729,0,0,0-.122,2.681,24.621,24.621,0,1,0,24.62-24.743ZM104.925,59.3a24.315,24.315,0,1,1,24.254-24.253,33.114,33.114,0,0,1-.487,5,24.044,24.044,0,0,0-9.141,4.144l-.609-.731a15.948,15.948,0,0,0,1.828-4.509c.975-.122,2.681-.365,3.413-.487a1.709,1.709,0,0,0,1.463-1.707V33.223a1.709,1.709,0,0,0-1.463-1.707l-3.291-.488a15.948,15.948,0,0,0-1.828-4.509l3.047-3.9-3.657-3.657a1.675,1.675,0,0,0-2.194-.122l-2.8,2.072a15.948,15.948,0,0,0-4.509-1.828l-.487-3.413a1.72,1.72,0,0,0-1.707-1.341H103.1a1.709,1.709,0,0,0-1.707,1.463l-.365,3.413a14.627,14.627,0,0,0-4.509,1.828c-.853-.609-2.194-1.585-2.8-2.072a1.675,1.675,0,0,0-2.194.122l-2.559,2.56a1.667,1.667,0,0,0-.122,2.194l2.072,2.681a15.948,15.948,0,0,0-1.828,4.509h-.244c-1.1.244-2.559.366-3.291.488a1.709,1.709,0,0,0-1.463,1.707v3.535a1.709,1.709,0,0,0,1.463,1.707l3.413.487a15.947,15.947,0,0,0,1.828,4.509c-.609.853-1.585,2.072-2.072,2.681a1.675,1.675,0,0,0,.122,2.194L91.4,50.9a1.667,1.667,0,0,0,2.194.122l2.8-2.072a15.948,15.948,0,0,0,4.509,1.828l.487,3.413a1.709,1.709,0,0,0,1.707,1.463h3.657a1.709,1.709,0,0,0,1.707-1.463l.487-3.413a14.627,14.627,0,0,0,4.509-1.828l.731.609a26.862,26.862,0,0,0-4.266,9.263,21.777,21.777,0,0,1-5,.487Zm10.847-11.7-1.219-.975a1.654,1.654,0,0,0-1.95-.122,13.927,13.927,0,0,1-4.631,1.95,1.685,1.685,0,0,0-1.341,1.463l-.487,3.291h-2.317l-.487-3.291A1.685,1.685,0,0,0,102,48.456a12.093,12.093,0,0,1-4.631-1.95,1.654,1.654,0,0,0-1.95.122L92.737,48.7l-1.585-1.585c.731-.975,1.95-2.437,2.194-2.8l.731-.853-.731-.731a16.561,16.561,0,0,1-2.072-4.753,1.685,1.685,0,0,0-1.463-1.341l-3.291-.487V33.83c.731-.122,1.828-.244,2.559-.365l.731-.122A1.831,1.831,0,0,0,91.274,32a13.932,13.932,0,0,1,1.95-4.631,1.642,1.642,0,0,0-.122-1.95l-1.949-2.56,1.585-1.585c.975.731,2.559,1.95,2.925,2.194l.975.487.609-.609a13.221,13.221,0,0,1,4.875-1.95,1.685,1.685,0,0,0,1.341-1.463l.365-3.169h2.316l.487,3.291a1.831,1.831,0,0,0,1.341,1.463,12.093,12.093,0,0,1,4.631,1.95,1.654,1.654,0,0,0,1.95-.122l2.681-2.072,1.585,1.585-2.072,2.681a1.872,1.872,0,0,0,0,1.95,12.944,12.944,0,0,1,1.95,4.631,1.685,1.685,0,0,0,1.463,1.341l3.291.487v2.316c-1.1.122-2.681.365-3.291.487A1.831,1.831,0,0,0,118.7,38.1a12.95,12.95,0,0,1-1.95,4.631,1.872,1.872,0,0,0,0,1.95l.975,1.219a8.559,8.559,0,0,0-1.95,1.707ZM134.055,86.24a22.182,22.182,0,1,1,22.182-22.182A22.264,22.264,0,0,1,134.055,86.24Z" transform="translate(1575.573 1886.084)" fill="#1b54f8"></path><path id="Path_432" data-name="Path 432" d="M443.422,31.22h0l6.094,5.607A1.21,1.21,0,0,0,451.1,35l-3.779-3.535h15.722V52.428a1.219,1.219,0,1,0,2.437,0V30.367a1.151,1.151,0,0,0-1.219-1.219h-16.82l3.657-3.291a1.21,1.21,0,0,0-1.585-1.829l-6.094,5.485a1.106,1.106,0,0,0-.365.853.947.947,0,0,0,.365.853Z" transform="translate(1264.744 1872.85)" fill="#1b54f8"></path><path id="Path_433" data-name="Path 433" d="M146.079,395.763a1.108,1.108,0,0,0-.365-.853l-6.094-5.607a1.21,1.21,0,1,0-1.585,1.829l3.779,3.535H125.968V380.04a1.219,1.219,0,0,0-2.437,0v15.845a1.151,1.151,0,0,0,1.219,1.219h16.942l-3.657,3.291a1.21,1.21,0,0,0,1.585,1.829l6.094-5.485a1.262,1.262,0,0,0,.366-.975Z" transform="translate(1536.978 1570.345)" fill="#1b54f8"></path></g></g></svg> 