<?xml version="1.0" encoding="UTF-8"?> <svg xmlns="http://www.w3.org/2000/svg" xmlns:xlink="http://www.w3.org/1999/xlink" width="90" height="90" viewBox="0 0 90 90"><defs><clipPath id="clip-path"><rect id="Rectangle_54" data-name="Rectangle 54" width="90" height="90" transform="translate(256 59)" fill="#fff" stroke="#707070" stroke-width="1"></rect></clipPath></defs><g id="Mask_Group_31" data-name="Mask Group 31" transform="translate(-256 -59)" clip-path="url(#clip-path)"><g id="Group_108" data-name="Group 108" transform="translate(264 67)"><path id="Path_234" data-name="Path 234" d="M309.978,27.479h1.249a1.249,1.249,0,0,0,.962-2.049l-6.245-7.494a1.25,1.25,0,0,0-1.924,0l-6.245,7.494a1.249,1.249,0,0,0,.962,2.049h1.249v5h2.5V26.23a1.249,1.249,0,0,0-1.087-1.249l3.585-4.321,3.585,4.321a1.249,1.249,0,0,0-1.087,1.249v6.245h2.5Z" transform="translate(-267.512 -17.484)" fill="#1b54f8" stroke="#fff" stroke-width="1"></path><path id="Path_235" data-name="Path 235" d="M315,139.91h2.5v2.5H315Z" transform="translate(-282.526 -122.434)" fill="#1b54f8" stroke="#fff" stroke-width="1"></path><path id="Path_236" data-name="Path 236" d="M367.5,139.91H370v2.5h-2.5Z" transform="translate(-327.531 -122.434)" fill="#1b54f8" stroke="#fff" stroke-width="1"></path><path id="Path_237" data-name="Path 237" d="M499.541,245.192a1.249,1.249,0,0,0-2.049.974v1.249H490v2.5h8.743a1.249,1.249,0,0,0,1.249-1.087l4.3,3.585-4.3,3.572a1.249,1.249,0,0,0-1.249-1.074H490v2.5h7.494v1.249a1.251,1.251,0,0,0,2.049.962l7.494-6.245a1.25,1.25,0,0,0,0-1.924Z" transform="translate(-432.544 -212.44)" fill="#1b54f8" stroke="#fff" stroke-width="1"></path><path id="Path_238" data-name="Path 238" d="M87.5,252.483a1.25,1.25,0,0,0,.449.962l7.494,6.245a1.249,1.249,0,0,0,2.049-.962v-1.249h7.494v-2.5H96.243a1.249,1.249,0,0,0-1.249,1.087l-4.3-3.585,4.3-3.6a1.249,1.249,0,0,0,1.249,1.1h8.743v-2.5H97.492v-1.249a1.249,1.249,0,0,0-2.049-.962l-7.494,6.245a1.25,1.25,0,0,0-.449.962Z" transform="translate(-87.5 -212.512)" fill="#1b54f8" stroke="#fff" stroke-width="1"></path><path id="Path_239" data-name="Path 239" d="M210,227.41h2.5v2.5H210Z" transform="translate(-192.514 -197.444)" fill="#1b54f8" stroke="#fff" stroke-width="1"></path><path id="Path_240" data-name="Path 240" d="M472.5,227.41H475v2.5h-2.5Z" transform="translate(-417.543 -197.444)" fill="#1b54f8" stroke="#fff" stroke-width="1"></path><path id="Path_241" data-name="Path 241" d="M306.236,244.993a8.744,8.744,0,1,0-2.561,6.182A8.741,8.741,0,0,0,306.236,244.993Zm-8.743,6.245a6.244,6.244,0,1,1,4.416-1.829A6.248,6.248,0,0,1,297.493,251.238Z" transform="translate(-260.023 -205.023)" fill="#1b54f8" stroke="#fff" stroke-width="1"></path><path id="Path_242" data-name="Path 242" d="M161.191,119.94h-6.245v-3.747a1.249,1.249,0,0,0-1.249-1.249H126.218v-2.5h2.5a1.249,1.249,0,0,0,1.249-1.249v-2.123a15,15,0,0,0,1.461-.6l1.486,1.474a1.249,1.249,0,0,0,1.774,0l5.271-5.283a1.249,1.249,0,0,0,0-1.761l-1.487-1.5c.212-.475.425-.962.6-1.461h2.136a1.249,1.249,0,0,0,1.249-1.249V91.213a1.249,1.249,0,0,0-1.249-1.249H139.1c-.175-.5-.387-.987-.6-1.461l1.461-1.5a1.249,1.249,0,0,0,0-1.774l-2.5-2.5V69.98a1.249,1.249,0,0,0-1.087-1.249l3.585-4.309,3.585,4.309a1.249,1.249,0,0,0-1.087,1.249V82.47h2.5V71.229H146.2a1.249,1.249,0,0,0,.962-2.049l-6.245-7.494a1.25,1.25,0,0,0-1.924,0L132.75,69.18a1.249,1.249,0,0,0,.962,2.049h1.249v8.993l-.275-.25a1.249,1.249,0,0,0-1.774,0l-1.487,1.487h0a15.021,15.021,0,0,0-1.461-.637v-2.1a1.249,1.249,0,0,0-1.249-1.249h-7.494a1.249,1.249,0,0,0-1.249,1.249v2.111a14.994,14.994,0,0,0-1.461.6l-1.486-1.461a1.249,1.249,0,0,0-1.774,0l-.275.275V71.229h1.249a1.249,1.249,0,0,0,.962-2.049l-6.245-7.494a1.25,1.25,0,0,0-1.924,0l-6.245,7.494a1.249,1.249,0,0,0,.962,2.049h1.249V82.47h2.5V69.98a1.249,1.249,0,0,0-1.087-1.249l3.585-4.309,3.585,4.309a1.249,1.249,0,0,0-1.087,1.249V82.72l-2.5,2.5a1.249,1.249,0,0,0,0,1.774l1.487,1.487c-.212.475-.425.962-.6,1.461h-2.136a1.249,1.249,0,0,0-1.249,1.249v7.494a1.249,1.249,0,0,0,1.249,1.249h2.111c.175.5.387.987.6,1.461l-1.461,1.511a1.249,1.249,0,0,0,0,1.761l5.271,5.283a1.249,1.249,0,0,0,1.774,0l1.487-1.5h0a15.068,15.068,0,0,0,1.461.625V111.2a1.249,1.249,0,0,0,1.249,1.249h2.5v2.5H96.242a1.249,1.249,0,0,0-1.249,1.249v3.747H88.748a1.249,1.249,0,0,0-1.249,1.249v7.494a1.249,1.249,0,0,0,1.249,1.249h14.988a1.249,1.249,0,0,0,1.249-1.249v-7.494a1.249,1.249,0,0,0-1.249-1.249H97.491v-2.5H123.72v2.5h-6.245a1.249,1.249,0,0,0-1.249,1.249v7.494a1.249,1.249,0,0,0,1.249,1.249h14.988a1.249,1.249,0,0,0,1.249-1.249v-7.494a1.249,1.249,0,0,0-1.249-1.249h-6.245v-2.5h26.229v2.5H146.2a1.249,1.249,0,0,0-1.249,1.249v7.494a1.249,1.249,0,0,0,1.249,1.249H161.19a1.249,1.249,0,0,0,1.249-1.249v-7.494a1.249,1.249,0,0,0-1.249-1.249Zm-58.7,2.5v5H90v-5Zm28.727,0v5h-12.49v-5Zm-8.743-12.49v-1.786a1.249,1.249,0,0,0-.912-1.249,12.064,12.064,0,0,1-2.673-1.112,1.25,1.25,0,0,0-1.5.212l-1.249,1.249-3.535-3.472,1.249-1.249a1.249,1.249,0,0,0,.2-1.5,12.041,12.041,0,0,1-1.1-2.673,1.249,1.249,0,0,0-1.249-.912h-1.723v-5h1.774A1.249,1.249,0,0,0,113,91.55a12.294,12.294,0,0,1,1.1-2.673,1.25,1.25,0,0,0-.2-1.5l-1.249-1.249,3.535-3.535,1.249,1.249a1.249,1.249,0,0,0,1.5.212,12.011,12.011,0,0,1,2.673-1.1,1.25,1.25,0,0,0,.912-1.249V79.972h5v1.774a1.248,1.248,0,0,0,.912,1.249,12.031,12.031,0,0,1,2.673,1.1,1.249,1.249,0,0,0,1.5-.212l1.249-1.249,3.535,3.535-1.249,1.249h0a1.249,1.249,0,0,0-.2,1.5,12.264,12.264,0,0,1,1.1,2.673,1.25,1.25,0,0,0,1.249.912h1.674v5h-1.774a1.249,1.249,0,0,0-1.249.912,12.035,12.035,0,0,1-1.1,2.673,1.25,1.25,0,0,0,.2,1.5l1.249,1.249-3.535,3.522L132.5,106.1a1.249,1.249,0,0,0-1.5-.212A12.055,12.055,0,0,1,128.329,107a1.249,1.249,0,0,0-.912,1.249v1.7Zm37.47,17.486h-12.49v-5h12.49Z" transform="translate(-87.499 -54.989)" fill="#1b54f8" stroke="#fff" stroke-width="1"></path></g></g></svg> 