<?xml version="1.0" encoding="UTF-8"?> <svg xmlns="http://www.w3.org/2000/svg" width="90" height="90" viewBox="0 0 90 90" fill="none"><g clip-path="url(#clip0_5_219)"><mask id="mask0_5_219" style="mask-type:luminance" maskUnits="userSpaceOnUse" x="0" y="0" width="90" height="90"><path d="M0.5 89.5V0.5H89.5V89.5H0.5Z" fill="white" stroke="white"></path></mask><g mask="url(#mask0_5_219)"><path d="M19.122 36.7695C20.994 36.7695 22.8239 36.2144 24.3804 35.1744C25.937 34.1343 27.1501 32.6561 27.8665 30.9266C28.5829 29.1971 28.7703 27.294 28.4051 25.458C28.0399 23.6219 27.1384 21.9354 25.8147 20.6117C24.491 19.288 22.8045 18.3866 20.9685 18.0214C19.1325 17.6562 17.2294 17.8436 15.4999 18.56C13.7704 19.2764 12.2921 20.4895 11.2521 22.046C10.2121 23.6025 9.65696 25.4325 9.65696 27.3045C9.65974 29.8139 10.6578 32.2198 12.4323 33.9942C14.2067 35.7686 16.6125 36.7667 19.122 36.7695ZM11.7465 28.314H18.4965L21.549 34.347C20.5088 34.7072 19.4016 34.8319 18.3073 34.7123C17.213 34.5926 16.1589 34.2316 15.2211 33.6551C14.2833 33.0786 13.4852 32.3012 12.8843 31.3789C12.2834 30.4565 11.8948 29.4123 11.7465 28.3215V28.314ZM26.565 27.3045C26.5645 28.509 26.2715 29.6953 25.7113 30.7616C25.1512 31.8279 24.3405 32.7422 23.349 33.426L20.1105 27.024L19.5105 19.869C21.4141 19.9714 23.2061 20.7992 24.5182 22.1821C25.8303 23.5651 26.5627 25.3982 26.565 27.3045ZM17.496 20.04L18.0225 26.295H11.748C11.9563 24.7915 12.6183 23.3873 13.6456 22.2699C14.6729 21.1525 16.0167 20.3751 17.4975 20.0415L17.496 20.04ZM31.0695 51.0525H36.4065C36.8081 51.0521 37.1933 50.8924 37.4773 50.6083C37.7613 50.3243 37.9211 49.9392 37.9215 49.5375V38.9475C37.9211 38.5458 37.7613 38.1607 37.4773 37.8767C37.1933 37.5926 36.8081 37.4329 36.4065 37.4325H31.071C30.6693 37.4329 30.2842 37.5926 30.0001 37.8767C29.7161 38.1607 29.5564 38.5458 29.556 38.9475V49.5375C29.5564 49.9392 29.7161 50.3243 30.0001 50.6083C30.2842 50.8924 30.6693 51.0521 31.071 51.0525H31.0695ZM31.5765 39.447H35.9025V49.0275H31.5765V39.447ZM40.1445 28.395V49.53C40.1449 49.9317 40.3046 50.3168 40.5886 50.6008C40.8727 50.8849 41.2578 51.0446 41.6595 51.045H46.995C47.3966 51.0446 47.7818 50.8849 48.0658 50.6008C48.3498 50.3168 48.5096 49.9317 48.51 49.53V28.4025C48.5096 28.0008 48.3498 27.6157 48.0658 27.3317C47.7818 27.0477 47.3966 26.8879 46.995 26.8875H41.6595C41.2578 26.8879 40.8727 27.0477 40.5886 27.3317C40.3046 27.6157 40.1449 28.0008 40.1445 28.4025V28.395ZM42.1635 28.9005H46.4895V49.0335H42.1635V28.9005ZM24.3885 43.1265C24.3885 43.2591 24.3624 43.3904 24.3116 43.5128C24.2609 43.6353 24.1865 43.7466 24.0928 43.8403C23.999 43.9341 23.8878 44.0084 23.7653 44.0592C23.6428 44.1099 23.5115 44.136 23.379 44.136H11.1015C10.8337 44.136 10.577 44.0297 10.3876 43.8403C10.1983 43.651 10.092 43.3942 10.092 43.1265C10.092 42.8588 10.1983 42.602 10.3876 42.4127C10.577 42.2234 10.8337 42.117 11.1015 42.117H23.3745C23.508 42.1164 23.6404 42.1423 23.7639 42.1933C23.8874 42.2442 23.9996 42.3191 24.0939 42.4137C24.1882 42.5083 24.2628 42.6207 24.3134 42.7443C24.3639 42.868 24.3895 43.0004 24.3885 43.134V43.1265ZM24.3885 47.706C24.3885 47.8386 24.3624 47.9698 24.3116 48.0923C24.2609 48.2148 24.1865 48.3261 24.0928 48.4198C23.999 48.5136 23.8878 48.5879 23.7653 48.6387C23.6428 48.6894 23.5115 48.7155 23.379 48.7155H11.1015C10.8337 48.7155 10.577 48.6092 10.3876 48.4198C10.1983 48.2305 10.092 47.9737 10.092 47.706C10.092 47.4383 10.1983 47.1815 10.3876 46.9922C10.577 46.8029 10.8337 46.6965 11.1015 46.6965H23.3745C23.508 46.6959 23.6404 46.7218 23.7639 46.7728C23.8874 46.8237 23.9996 46.8986 24.0939 46.9932C24.1882 47.0878 24.2628 47.2002 24.3134 47.3238C24.3639 47.4475 24.3895 47.5799 24.3885 47.7135V47.706ZM84.9015 68.5245C83.9475 67.5705 82.977 66.588 82.0395 65.637C80.364 63.939 78.633 62.187 76.9035 60.504C76.722 60.3282 76.4811 60.227 76.2284 60.2206C75.9758 60.2142 75.7301 60.3031 75.54 60.4695L74.34 59.2695C75.5511 57.4416 76.2884 55.341 76.4853 53.1571C76.6822 50.9732 76.3326 48.7746 75.468 46.7595V15.2115C75.4676 14.3604 75.1298 13.5441 74.5287 12.9416C73.9275 12.3391 73.1121 11.9994 72.261 11.997H6.21146C5.35971 11.9982 4.54324 12.3374 3.94138 12.9401C3.33952 13.5428 3.00146 14.3598 3.00146 15.2115V59.226C3.00265 60.0771 3.34118 60.8931 3.94288 61.495C4.54457 62.097 5.36035 62.4359 6.21146 62.4375H32.223V70.7235H25.7895C24.9918 70.7235 24.2269 71.0404 23.6628 71.6044C23.0988 72.1684 22.782 72.9334 22.782 73.731C22.782 74.5287 23.0988 75.2936 23.6628 75.8576C24.2269 76.4216 24.9918 76.7385 25.7895 76.7385H52.683C53.4806 76.7385 54.2456 76.4216 54.8096 75.8576C55.3736 75.2936 55.6905 74.5287 55.6905 73.731C55.6905 72.9334 55.3736 72.1684 54.8096 71.6044C54.2456 71.0404 53.4806 70.7235 52.683 70.7235H46.2495V62.4375H55.149C55.6285 62.8101 56.1327 63.1498 56.658 63.4545C58.6629 64.6187 60.9395 65.2334 63.258 65.2365C64.4227 65.2376 65.5825 65.0864 66.708 64.7865C68.0825 64.4184 69.3883 63.8303 70.575 63.045L71.775 64.245C71.6109 64.4373 71.5252 64.6844 71.5349 64.937C71.5446 65.1897 71.6491 65.4294 71.8275 65.6085L79.827 73.608C80.1172 73.8965 80.4619 74.1246 80.8409 74.2791C81.2198 74.4336 81.6257 74.5114 82.035 74.508C82.9799 74.5014 83.8836 74.12 84.5475 73.4475L84.7365 73.2585C85.0587 72.9588 85.3186 72.5985 85.5013 72.1982C85.684 71.7979 85.7859 71.3655 85.8013 70.9257C85.8166 70.486 85.745 70.0475 85.5906 69.6355C85.4362 69.2234 85.202 68.8459 84.9015 68.5245ZM6.21146 14.019H72.261C72.5766 14.021 72.8788 14.1472 73.102 14.3705C73.3252 14.5937 73.4515 14.8958 73.4535 15.2115V43.4715C72.3989 42.2159 71.1214 41.1657 69.6855 40.374V24.198C69.6851 23.7963 69.5253 23.4112 69.2413 23.1272C68.9573 22.8431 68.5721 22.6834 68.1705 22.683H62.835C62.4333 22.6834 62.0482 22.8431 61.7641 23.1272C61.4801 23.4112 61.3204 23.7963 61.32 24.198V38.8635C60.8262 38.9357 60.3369 39.0359 59.8545 39.1635C59.5995 39.231 59.3475 39.3135 59.1045 39.393V33.27C59.1041 32.8683 58.9443 32.4832 58.6603 32.1992C58.3763 31.9151 57.9911 31.7554 57.5895 31.755H52.248C51.8463 31.7554 51.4612 31.9151 51.1771 32.1992C50.8931 32.4832 50.7334 32.8683 50.733 33.27V47.697C50.1369 49.4381 49.914 51.2851 50.079 53.118H5.01896V15.2115C5.02093 14.8958 5.1472 14.5937 5.37041 14.3705C5.59363 14.1472 5.8958 14.021 6.21146 14.019ZM67.6665 39.4665C66.2765 38.9765 64.8142 38.723 63.3405 38.7165V24.7035H67.6665V39.4665ZM57.078 40.2585C55.3854 41.151 53.9088 42.4034 52.752 43.9275V33.774H57.078V40.2585ZM5.01896 59.226V55.1415H50.4165C50.439 55.2285 50.457 55.317 50.4795 55.404C50.969 57.2418 51.8495 58.9523 53.061 60.4185H6.21146C5.8958 60.4165 5.59363 60.2903 5.37041 60.0671C5.1472 59.8439 5.02093 59.5417 5.01896 59.226ZM53.67 73.731C53.6696 73.9927 53.5655 74.2435 53.3804 74.4285C53.1954 74.6135 52.9446 74.7176 52.683 74.718H25.788C25.526 74.718 25.2748 74.6139 25.0895 74.4287C24.9043 74.2435 24.8002 73.9922 24.8002 73.7303C24.8002 73.4683 24.9043 73.2171 25.0895 73.0318C25.2748 72.8466 25.526 72.7425 25.788 72.7425H52.6815C52.9436 72.7425 53.1951 72.8467 53.3804 73.032C53.5658 73.2174 53.67 73.4688 53.67 73.731ZM44.229 70.7235H34.242V62.4375H44.2275L44.229 70.7235ZM66.195 62.8275C64.048 63.4021 61.7788 63.3271 59.6744 62.6121C57.57 61.8971 55.7249 60.5742 54.3723 58.8106C53.0198 57.047 52.2205 54.9219 52.0756 52.7041C51.9308 50.4863 52.4467 48.2753 53.5584 46.3508C54.67 44.4262 56.3273 42.8744 58.3208 41.8917C60.3143 40.909 62.5544 40.5395 64.7579 40.8298C66.9614 41.1202 69.0293 42.0574 70.7002 43.523C72.3711 44.9886 73.5698 46.9167 74.145 49.0635C74.5377 50.4895 74.643 51.9793 74.4548 53.4463C74.2666 54.9134 73.7887 56.3284 73.0489 57.6091C72.309 58.8898 71.3219 60.0107 70.1451 60.9065C68.9682 61.8024 67.6264 62.4554 66.195 62.8275ZM73.095 60.8775L74.1105 61.893L73.2015 62.802L72.1875 61.788C72.5075 61.494 72.811 61.19 73.098 60.876L73.095 60.8775ZM76.2105 62.649C77.454 63.87 78.696 65.124 79.914 66.357L77.679 68.592L73.9725 64.8855L76.2105 62.649ZM83.3115 71.8185L83.1225 72.0075C82.8933 72.2707 82.5711 72.4348 82.2234 72.4656C81.8758 72.4964 81.5298 72.3913 81.258 72.1725L79.1115 70.0185L81.336 67.797C82.0455 68.5155 82.767 69.243 83.4795 69.957C83.6971 70.2284 83.8016 70.5733 83.7711 70.9198C83.7407 71.2664 83.5776 71.5878 83.316 71.817L83.3115 71.8185ZM72.762 49.434C72.2867 47.6678 71.3269 46.0697 69.9911 44.8203C68.6553 43.5708 66.9967 42.7199 65.2027 42.3635C63.4087 42.0071 61.5508 42.1595 59.8388 42.8036C58.1269 43.4476 56.6292 44.5575 55.5149 46.0079C54.4006 47.4584 53.7141 49.1915 53.5331 51.0116C53.352 52.8317 53.6835 54.6661 54.4902 56.3077C55.2968 57.9493 56.5465 59.3325 58.098 60.3012C59.6495 61.2699 61.4409 61.7854 63.27 61.7895C64.7758 61.7893 66.2614 61.4429 67.6121 60.7772C68.9627 60.1115 70.1423 59.1442 71.0597 57.9501C71.9771 56.756 72.6077 55.3669 72.9028 53.8903C73.198 52.4137 73.1498 50.889 72.762 49.434ZM65.301 59.5005C64.2969 59.8168 63.2391 59.9266 62.1915 59.8232C61.1439 59.7199 60.128 59.4055 59.2051 58.899C58.2821 58.3926 57.4713 57.7046 56.8214 56.8764C56.1714 56.0483 55.6959 55.0971 55.4233 54.0803C55.1508 53.0635 55.0869 52.002 55.2355 50.9598C55.3841 49.9176 55.7422 48.9163 56.2881 48.0161C56.834 47.116 57.5564 46.3357 58.4119 45.7222C59.2674 45.1087 60.2383 44.6748 61.266 44.4465C61.9278 44.2688 62.6101 44.1785 63.2955 44.178C65.179 44.1918 66.994 44.8868 68.4051 46.1346C69.8162 47.3823 70.7281 49.0986 70.9723 50.9663C71.2166 52.834 70.7768 54.727 69.734 56.2957C68.6913 57.8644 67.1176 59.0027 65.301 59.5005ZM32.0445 18.378C32.0445 18.1103 32.1508 17.8535 32.3401 17.6642C32.5295 17.4749 32.7862 17.3685 33.054 17.3685H45.327C45.5947 17.3685 45.8515 17.4749 46.0408 17.6642C46.2301 17.8535 46.3365 18.1103 46.3365 18.378C46.3365 18.6457 46.2301 18.9025 46.0408 19.0918C45.8515 19.2812 45.5947 19.3875 45.327 19.3875H33.054C32.7862 19.3875 32.5295 19.2812 32.3401 19.0918C32.1508 18.9025 32.0445 18.6457 32.0445 18.378ZM32.0445 22.9575C32.0445 22.6898 32.1508 22.433 32.3401 22.2437C32.5295 22.0544 32.7862 21.948 33.054 21.948H45.327C45.5947 21.948 45.8515 22.0544 46.0408 22.2437C46.2301 22.433 46.3365 22.6898 46.3365 22.9575C46.3365 23.2252 46.2301 23.482 46.0408 23.6713C45.8515 23.8607 45.5947 23.967 45.327 23.967H33.054C32.9213 23.9672 32.79 23.9412 32.6674 23.8906C32.5448 23.8399 32.4335 23.7656 32.3397 23.6718C32.2459 23.578 32.1716 23.4666 32.1209 23.3441C32.0702 23.2215 32.0443 23.0901 32.0445 22.9575Z" fill="#1C54F8"></path></g></g><defs><clipPath id="clip0_5_219"><rect width="90" height="90" fill="white"></rect></clipPath></defs></svg> 