<?xml version="1.0" encoding="UTF-8"?> <svg xmlns="http://www.w3.org/2000/svg" width="90" height="90" viewBox="0 0 90 90" fill="none"><g clip-path="url(#clip0_12_379)"><mask id="mask0_12_379" style="mask-type:luminance" maskUnits="userSpaceOnUse" x="0" y="0" width="90" height="90"><path d="M90 0H0V90H90V0Z" fill="white"></path></mask><g mask="url(#mask0_12_379)"><path d="M36.934 36.824C37.7799 36.824 38.6068 36.5732 39.3102 36.1032C40.0135 35.6332 40.5617 34.9652 40.8854 34.1837C41.2092 33.4022 41.2938 32.5422 41.1288 31.7126C40.9638 30.8829 40.5564 30.1209 39.9583 29.5227C39.3601 28.9246 38.5981 28.5172 37.7684 28.3522C36.9387 28.1871 36.0788 28.2718 35.2973 28.5956C34.5158 28.9193 33.8478 29.4675 33.3778 30.1708C32.9078 30.8742 32.657 31.7011 32.657 32.547C32.658 33.681 33.109 34.7682 33.9109 35.5701C34.7127 36.372 35.8 36.8229 36.934 36.824ZM36.934 30.337C37.3711 30.337 37.7984 30.4666 38.1618 30.7094C38.5252 30.9523 38.8085 31.2974 38.9758 31.7013C39.143 32.1051 39.1868 32.5494 39.1015 32.9781C39.0163 33.4068 38.8058 33.8006 38.4967 34.1097C38.1876 34.4188 37.7938 34.6292 37.3651 34.7145C36.9364 34.7998 36.4921 34.756 36.0883 34.5888C35.6844 34.4215 35.3393 34.1382 35.0964 33.7748C34.8536 33.4114 34.724 32.9841 34.724 32.547C34.7245 31.961 34.9575 31.3992 35.3719 30.9849C35.7862 30.5705 36.348 30.3375 36.934 30.337Z" fill="#1B54F8" stroke="white" stroke-width="0.2"></path><path d="M48.9121 53.885C48.6517 53.8046 48.3703 53.8289 48.1275 53.9527C47.8848 54.0765 47.6999 54.2901 47.6121 54.548C47.5285 54.8083 47.5513 55.0912 47.6755 55.3348C47.7997 55.5783 48.0153 55.7629 48.2751 55.848C52.5537 57.0888 56.9903 57.6992 61.4451 57.66H61.9591C67.9651 57.66 73.4861 56.773 76.8111 55.26C77.0552 55.1439 77.2441 54.9367 77.3371 54.6828C77.43 54.4289 77.4196 54.1487 77.3081 53.9024C77.1966 53.6561 76.993 53.4634 76.7409 53.3657C76.4888 53.268 76.2084 53.2732 75.9601 53.38C72.8001 54.816 67.4241 55.693 61.4601 55.59C57.2177 55.624 52.9924 55.0478 48.9141 53.879L48.9121 53.885Z" fill="#1B54F8" stroke="white" stroke-width="0.2"></path><path d="M75.957 61.569C72.797 63.003 67.421 63.869 61.457 63.779C57.2139 63.8129 52.988 63.2367 48.909 62.068C48.6484 61.9872 48.3665 62.0115 48.1236 62.1358C47.8806 62.26 47.696 62.4744 47.609 62.733C47.5249 62.9936 47.5477 63.2769 47.6724 63.5206C47.7971 63.7644 48.0135 63.9487 48.274 64.033C52.5521 65.2727 56.988 65.8831 61.442 65.845H61.956C67.962 65.845 73.483 64.958 76.808 63.445C76.9353 63.3916 77.0506 63.3133 77.1471 63.2146C77.2436 63.1159 77.3193 62.9988 77.3697 62.8703C77.4202 62.7419 77.4443 62.6046 77.4408 62.4666C77.4372 62.3286 77.406 62.1927 77.349 62.067C77.292 61.9413 77.2104 61.8283 77.1089 61.7347C77.0075 61.6411 76.8883 61.5688 76.7584 61.5221C76.6285 61.4754 76.4906 61.4552 76.3527 61.4627C76.2149 61.4703 76.08 61.5054 75.956 61.566L75.957 61.569Z" fill="#1B54F8" stroke="white" stroke-width="0.2"></path><path d="M75.9539 69.755C72.8009 71.191 67.4709 72.076 61.4539 71.966C57.2115 72.0001 52.9863 71.4239 48.9079 70.255C48.6476 70.1752 48.3664 70.1997 48.1238 70.3234C47.8812 70.4471 47.6962 70.6604 47.6079 70.918C47.5243 71.1783 47.5471 71.4611 47.6713 71.7047C47.7956 71.9483 48.0111 72.1328 48.271 72.218C52.5496 73.4588 56.9862 74.0693 61.4409 74.03H61.9579C67.9659 74.03 73.49 73.143 76.81 71.63C76.9371 71.5762 77.0522 71.4975 77.1484 71.3984C77.2446 71.2994 77.3199 71.1821 77.37 71.0535C77.4201 70.9248 77.4439 70.7874 77.44 70.6494C77.4361 70.5114 77.4046 70.3756 77.3473 70.25C77.29 70.1244 77.2081 70.0115 77.1065 69.9181C77.0048 69.8247 76.8855 69.7525 76.7555 69.706C76.6255 69.6595 76.4875 69.6395 76.3497 69.6472C76.2118 69.655 76.0769 69.6902 75.9529 69.751L75.9539 69.755Z" fill="#1B54F8" stroke="white" stroke-width="0.2"></path><path d="M81.2061 54.402V54.335L81.1571 47.772C81.1864 47.6403 81.2054 47.5066 81.2141 47.372C81.2141 41.935 65.0441 40.072 53.9511 41.777C53.2771 40.746 52.5431 39.685 51.7201 38.583C56.4411 37.901 60.1821 36.892 62.4281 35.65C62.9021 35.8844 63.4233 36.0079 63.9521 36.011C64.8875 36.011 65.7846 35.6394 66.446 34.978C67.1075 34.3165 67.4791 33.4194 67.4791 32.484C67.4791 31.5486 67.1075 30.6515 66.446 29.99C65.7846 29.3286 64.8875 28.957 63.9521 28.957C63.4275 28.96 62.9103 29.0814 62.4391 29.312C60.2061 28.082 56.4451 27.068 51.6861 26.381C56.0771 20.517 58.9861 14.892 56.7861 12.689C54.5861 10.486 48.9571 13.395 43.0951 17.789C42.4131 13.053 41.4031 9.30001 40.1591 7.04901C40.3928 6.57585 40.5159 6.05574 40.5191 5.52801C40.5191 4.59259 40.1475 3.69548 39.486 3.03404C38.8246 2.3726 37.9275 2.00101 36.9921 2.00101C36.0566 2.00101 35.1595 2.3726 34.4981 3.03404C33.8367 3.69548 33.4651 4.59259 33.4651 5.52801C33.4678 6.05416 33.5899 6.57284 33.8221 7.04501C32.5901 9.28101 31.5771 13.033 30.8901 17.791C25.0241 13.397 19.3981 10.484 17.1971 12.691C14.9961 14.898 17.9081 20.521 22.2971 26.391C15.2771 27.391 8.99707 29.262 8.99707 32.491C8.99707 35.926 16.0361 37.691 22.2731 38.585C19.4231 42.398 17.4831 45.763 16.7731 48.239C16.209 48.4336 15.7037 48.7685 15.3047 49.2121C14.9057 49.6558 14.6261 50.1936 14.4921 50.7751C14.3582 51.3565 14.3744 51.9625 14.5391 52.536C14.7039 53.1095 15.0118 53.6316 15.4339 54.0534C15.856 54.4751 16.3784 54.7825 16.9521 54.9468C17.5257 55.111 18.1317 55.1266 18.713 54.9922C19.2944 54.8578 19.832 54.5777 20.2753 54.1782C20.7186 53.7788 21.053 53.2732 21.2471 52.709C23.7221 51.997 27.0861 50.058 30.8981 47.209C31.8981 54.217 33.7711 60.483 36.9981 60.483C40.4331 60.483 42.1981 53.435 43.0911 47.198C43.3101 47.362 43.5351 47.542 43.7521 47.698V71.518C43.7521 75.503 52.4911 77.652 61.4521 77.806V81.268H57.1351C56.8611 81.2685 56.5985 81.3777 56.4049 81.5715C56.2112 81.7653 56.1023 82.028 56.1021 82.302V83.648H47.3141C47.1756 83.6437 47.0378 83.6672 46.9086 83.7172C46.7795 83.7673 46.6617 83.8427 46.5622 83.9391C46.4628 84.0355 46.3837 84.1509 46.3297 84.2784C46.2757 84.4059 46.2479 84.543 46.2479 84.6815C46.2479 84.82 46.2757 84.9571 46.3297 85.0846C46.3837 85.2122 46.4628 85.3275 46.5622 85.4239C46.6617 85.5203 46.7795 85.5958 46.9086 85.6458C47.0378 85.6958 47.1756 85.7193 47.3141 85.715H56.1021V87.061C56.1026 87.3348 56.2116 87.5973 56.4052 87.7909C56.5988 87.9845 56.8613 88.0935 57.1351 88.094H67.8351C68.109 88.0937 68.3717 87.9849 68.5656 87.7912C68.7594 87.5976 68.8685 87.335 68.8691 87.061V85.714H77.6291C77.8976 85.7057 78.1523 85.5931 78.3393 85.4002C78.5263 85.2073 78.6309 84.9492 78.6309 84.6805C78.6309 84.4118 78.5263 84.1537 78.3393 83.9608C78.1523 83.7679 77.8976 83.6554 77.6291 83.647H68.8691V82.302C68.8688 82.0278 68.7598 81.765 68.5659 81.5712C68.3721 81.3773 68.1092 81.2683 67.8351 81.268H63.5181V77.809C72.4781 77.655 81.2181 75.509 81.2181 71.509L81.1811 66.481C81.1948 66.4325 81.2048 66.383 81.2111 66.333V63.523C81.2111 63.505 81.2181 63.489 81.2181 63.47C81.2181 63.451 81.2111 63.446 81.2111 63.433V55.475C81.2111 55.457 81.2181 55.441 81.2181 55.422L81.2061 54.402ZM63.9541 31.027C64.2429 31.0268 64.5253 31.1123 64.7656 31.2726C65.0058 31.433 65.1931 31.661 65.3037 31.9278C65.4144 32.1946 65.4434 32.4883 65.3871 32.7716C65.3308 33.0549 65.1917 33.3151 64.9874 33.5194C64.7832 33.7236 64.523 33.8627 64.2397 33.919C63.9563 33.9753 63.6627 33.9463 63.3959 33.8357C63.1291 33.7251 62.9011 33.5378 62.7407 33.2975C62.5804 33.0573 62.4949 32.7749 62.4951 32.486C62.4959 32.0993 62.6498 31.7287 62.9233 31.4552C63.1967 31.1818 63.5674 31.0278 63.9541 31.027ZM79.1401 54.409V55.454C79.0591 57.181 72.5921 59.654 62.4821 59.654C52.3081 59.654 45.8161 57.146 45.8161 55.418V50.409C49.0921 52.565 55.8061 53.684 62.4821 53.684C69.1321 53.684 75.8211 52.573 79.1101 50.434L79.1401 54.409ZM79.0871 63.729C78.4971 65.439 72.1631 67.708 62.4791 67.708C52.3051 67.708 45.8131 65.2 45.8281 63.336C45.8671 63.1679 45.8619 62.9925 45.8131 62.827V58.451C49.0891 60.607 55.8031 61.726 62.4791 61.726C64.2251 61.726 65.9791 61.65 67.6651 61.499C72.4351 61.073 76.7171 60.046 79.1381 58.457V62.809C79.1062 62.8999 79.0877 62.9948 79.0831 63.091L79.0871 63.729ZM62.4821 43.14C72.1311 43.14 78.4571 45.395 79.0821 47.102V47.633C78.4921 49.343 72.1581 51.612 62.4741 51.612C52.3001 51.612 45.8081 49.104 45.8081 47.376C45.8081 45.648 52.3011 43.14 62.4751 43.14H62.4821ZM60.8651 30.824C60.5804 31.3308 60.431 31.9023 60.431 32.4835C60.431 33.0647 60.5804 33.6362 60.8651 34.143C57.4622 35.4974 53.8841 36.3614 50.2381 36.709C49.1381 35.328 47.9661 33.925 46.6961 32.497C47.9081 31.126 49.0961 29.705 50.2321 28.278C53.879 28.6206 57.4587 29.4795 60.8641 30.829L60.8651 30.824ZM45.3241 30.956C44.9091 30.506 44.4621 30.056 44.0331 29.607C44.0181 28.956 43.9871 28.328 43.9621 27.691C45.3041 27.7723 46.6017 27.876 47.8551 28.002C47.0791 28.948 46.2301 29.937 45.3241 30.956ZM55.3241 14.156C56.1831 15.014 54.5131 19.431 49.3851 26.08C47.6481 25.88 45.7921 25.731 43.8691 25.618C43.7571 23.682 43.5911 21.849 43.3911 20.1C50.0451 14.964 54.4681 13.288 55.3251 14.156H55.3241ZM41.8811 27.365C40.8381 26.325 39.7071 25.245 38.5211 24.158C39.5391 23.258 40.5211 22.405 41.4701 21.63C41.6551 23.459 41.7921 25.375 41.8811 27.365ZM36.9951 4.06501C37.2837 4.06521 37.5659 4.15098 37.8058 4.31148C38.0458 4.47198 38.2327 4.70001 38.3431 4.96675C38.4535 5.23349 38.4823 5.52696 38.426 5.81008C38.3696 6.0932 38.2306 6.35326 38.0264 6.55738C37.8223 6.76151 37.5623 6.90054 37.2791 6.9569C36.996 7.01327 36.7025 6.98444 36.4358 6.87406C36.1691 6.76368 35.941 6.57671 35.7805 6.33676C35.62 6.09682 35.5343 5.81468 35.5341 5.52601C35.5349 5.13895 35.6891 4.76801 35.963 4.49451C36.2369 4.22101 36.608 4.06727 36.9951 4.06701V4.06501ZM35.3271 8.61401C35.8338 8.90027 36.4058 9.05119 36.9878 9.05224C37.5698 9.05329 38.1423 8.90443 38.6501 8.62001C40.002 12.0223 40.864 15.5993 41.2101 19.244C39.7841 20.377 38.3631 21.567 36.9941 22.778C35.6251 21.567 34.2051 20.378 32.7781 19.245C33.1191 15.5985 33.977 12.0189 35.3261 8.61401H35.3271ZM32.5081 21.621C33.4561 22.398 34.4461 23.249 35.4661 24.157C34.9951 24.589 34.5371 25.018 34.0861 25.446C33.4787 25.4607 32.8491 25.482 32.1971 25.51C32.2777 24.168 32.3814 22.8717 32.5081 21.621ZM31.8861 27.585C30.7641 28.71 29.6921 29.834 28.6601 30.951C27.7511 29.929 26.8991 28.937 26.1221 27.988C27.8901 27.812 29.8061 27.673 31.8861 27.588V27.585ZM30.0161 37.285C28.6591 37.203 27.3631 37.105 26.1631 36.985C26.9584 36.0123 27.7977 35.0263 28.6811 34.027C29.1071 34.492 29.5301 34.942 29.9521 35.388C29.9674 35.9973 29.9887 36.6307 30.0161 37.288V37.285ZM18.6611 14.154C19.5191 13.284 23.9381 14.954 30.5871 20.089C30.3871 21.829 30.2361 23.689 30.1231 25.618C28.3421 25.727 26.4761 25.882 24.6141 26.094C19.4751 19.438 17.8011 15.013 18.6611 14.154ZM11.0681 32.486C11.0681 31.299 15.3131 29.343 23.7451 28.259C24.8801 29.689 26.0711 31.111 27.2851 32.484C26.0091 33.917 24.7851 35.336 23.7001 36.705C14.9641 35.57 11.0681 33.531 11.0681 32.486ZM17.9301 53.009C17.6413 53.0088 17.3591 52.923 17.1191 52.7624C16.8791 52.6018 16.6921 52.3737 16.5818 52.1068C16.4715 51.8399 16.4428 51.5464 16.4993 51.2632C16.5558 50.98 16.6951 50.72 16.8994 50.5159C17.1037 50.3119 17.364 50.173 17.6472 50.1169C17.9305 50.0607 18.224 50.0898 18.4907 50.2005C18.7574 50.3112 18.9853 50.4985 19.1456 50.7387C19.3058 50.9789 19.3913 51.2612 19.3911 51.55C19.3905 51.9371 19.2364 52.3082 18.9624 52.5818C18.6885 52.8554 18.3172 53.009 17.9301 53.009ZM21.2881 50.525C21.1196 49.9749 20.8189 49.4745 20.4121 49.0676C20.0054 48.6607 19.5051 48.3597 18.9551 48.191C20.4047 44.8344 22.3239 41.7007 24.6551 38.884C26.8771 39.14 28.8411 39.284 30.1201 39.365C30.2281 41.129 30.3811 42.974 30.5911 44.818C27.7748 47.1522 24.6407 49.0738 21.2831 50.525H21.2881ZM30.0601 32.494C31.1481 31.308 32.2701 30.12 33.4491 28.942C34.6711 27.72 35.8491 26.602 36.9941 25.542C38.1411 26.601 39.3171 27.719 40.5381 28.942C41.7161 30.12 42.8461 31.306 43.9381 32.488C42.8801 33.634 41.7631 34.809 40.5381 36.029C39.3611 37.207 38.1741 38.329 36.9901 39.415C35.8081 38.327 34.6251 37.206 33.4491 36.029C32.2301 34.811 31.1171 33.637 30.0601 32.494ZM32.0911 37.594C33.2041 38.704 34.3251 39.771 35.4451 40.805C34.4451 41.687 33.4601 42.5253 32.4901 43.32C32.3151 41.563 32.1791 39.659 32.0911 37.594ZM36.9911 58.415C35.8051 58.415 33.8541 54.185 32.7681 45.786C34.1371 44.697 35.5571 43.475 36.9921 42.198C38.4131 43.462 39.8261 44.673 41.2091 45.772C40.0801 54.509 38.0401 58.414 36.9951 58.414L36.9911 58.415ZM41.4911 43.328C40.5144 42.528 39.5294 41.6887 38.5361 40.81C38.9861 40.394 39.4361 39.958 39.8881 39.527C40.5341 39.512 41.1591 39.482 41.7881 39.457C41.7131 40.819 41.6151 42.121 41.4941 43.327L41.4911 43.328ZM42.1101 37.376C43.1441 36.338 44.2191 35.214 45.2991 34.035C46.1741 35.023 47.0261 36.002 47.8161 36.968C45.9971 37.151 44.0891 37.289 42.1101 37.376ZM44.4101 45.609C44.0721 45.358 43.7321 45.098 43.3901 44.834C43.6461 42.611 43.7901 40.647 43.8721 39.365C45.7881 39.254 47.6031 39.09 49.3351 38.892C50.2121 40.03 51.0061 41.127 51.7291 42.192C48.2851 42.93 45.5871 44.068 44.4101 45.606V45.609ZM66.7971 83.337V86.029H58.1631V83.336L66.7971 83.337ZM62.4871 75.755C52.3131 75.755 45.8211 73.247 45.8211 71.519V66.5C49.0971 68.656 55.8111 69.775 62.4871 69.775C69.1371 69.775 75.8261 68.664 79.1151 66.525L79.1521 71.519C79.1521 73.248 72.6611 75.755 62.4871 75.755Z" fill="#1B54F8" stroke="white" stroke-width="0.2"></path></g></g><defs><clipPath id="clip0_12_379"><rect width="90" height="90" fill="white"></rect></clipPath></defs></svg> 