<?xml version="1.0" encoding="UTF-8"?> <svg xmlns="http://www.w3.org/2000/svg" width="61" height="61" viewBox="0 0 61 61" fill="none"><mask id="mask0_1_192" style="mask-type:luminance" maskUnits="userSpaceOnUse" x="0" y="0" width="61" height="61"><path d="M60.8 0.600006H0.799988V60.6H60.8V0.600006Z" fill="white"></path></mask><g mask="url(#mask0_1_192)"><path d="M31.2 36.2C25.2 36.2 20.4 38.9 20.4 42.4C20.4 42.7 20.4 53.6 20.4 53.9C20.7 57.2 25.3 59.7 31.1 59.7C37.1 59.7 41.8 57 41.8 53.6V42.4C41.9 38.9 37.2 36.2 31.2 36.2ZM39.7 53.5C39.7 55.4 36.2 57.4 31.2 57.4C26.2 57.4 22.7 55.3 22.7 53.5V51.7C24.7 53.2 27.9 54.1 31.2 54.1C34.6 54.1 37.7 53.2 39.7 51.7V53.5ZM39.7 47.9C39.7 48.7 39.1 49.4 38.5 49.8C36.9 51 34.1 51.8 31.1 51.8C28.1 51.8 25.3 51 23.7 49.8C23.2 49.4 22.5 48.7 22.5 47.9V46.1C24.5 47.6 27.5 48.5 31 48.5C34.5 48.5 37.6 47.6 39.5 46.1V47.9H39.7ZM31.2 46.3C26.2 46.3 22.7 44.2 22.7 42.4C22.7 40.5 26.2 38.5 31.2 38.5C36.2 38.5 39.7 40.6 39.7 42.4C39.7 44.2 36.2 46.3 31.2 46.3Z" fill="#1B54F8" stroke="#FDFEFF" stroke-width="0.5" stroke-miterlimit="10"></path><path d="M24.4 22.9H37.8C38.4 22.9 38.9 22.4 38.9 21.8V9.10001C38.9 8.80001 38.8 8.49999 38.6 8.29999L34.7 4.10001C34.5 3.90001 34.2 3.79999 33.9 3.79999H24.4C23.8 3.79999 23.3 4.29999 23.3 4.89999V21.9C23.3 22.4 23.8 22.9 24.4 22.9ZM25.5 5.89999H33.4L36.7 9.5V20.8H25.5V5.89999Z" fill="#1B54F8" stroke="#FDFEFF" stroke-width="0.5" stroke-miterlimit="10"></path><path d="M33.3 9.79999H29C28.4 9.79999 27.9 10.3 27.9 10.9C27.9 11.5 28.4 12 29 12H33.3C33.9 12 34.4001 11.5 34.4001 10.9C34.4001 10.3 33.9 9.79999 33.3 9.79999Z" fill="#1B54F8" stroke="#FDFEFF" stroke-width="0.5" stroke-miterlimit="10"></path><path d="M33.3 14.5H29C28.4 14.5 27.9 15 27.9 15.6C27.9 16.2 28.4 16.7 29 16.7H33.3C33.9 16.7 34.4001 16.2 34.4001 15.6C34.4001 15 33.9 14.5 33.3 14.5Z" fill="#1B54F8" stroke="#FDFEFF" stroke-width="0.5" stroke-miterlimit="10"></path><path d="M17.3 20.7L13.4 16.5C13.2 16.3 12.8 16.2 12.6 16.2H3C2.4 16.2 1.89999 16.7 1.89999 17.3V34.3C1.89999 34.9 2.4 35.4 3 35.4H16.4C17 35.4 17.5 34.9 17.5 34.3V21.6C17.6 21.2 17.5 20.9 17.3 20.7ZM15.4 33.2H4.20001V18.4H12.1L15.4 22V33.2Z" fill="#1B54F8" stroke="#FDFEFF" stroke-width="0.5" stroke-miterlimit="10"></path><path d="M7.60001 22.3C7.00001 22.3 6.5 22.8 6.5 23.4C6.5 24 7.00001 24.5 7.60001 24.5H11.9C12.5 24.5 13 24 13 23.4C13 22.8 12.5 22.3 11.9 22.3H7.60001Z" fill="#1B54F8" stroke="#FDFEFF" stroke-width="0.5" stroke-miterlimit="10"></path><path d="M11.9 27H7.60001C7.00001 27 6.5 27.5 6.5 28.1C6.5 28.7 7.00001 29.2 7.60001 29.2H11.9C12.5 29.2 13 28.7 13 28.1C13 27.5 12.5 27 11.9 27Z" fill="#1B54F8" stroke="#FDFEFF" stroke-width="0.5" stroke-miterlimit="10"></path><path d="M59.3 16.1H49.8C49.5 16.1 49.2 16.3 49 16.4L45.1 20.6C44.9 20.9 44.8 21.2 44.8 21.4V34.1C44.8 34.7 45.3 35.2 45.9 35.2H59.3C59.9 35.2 60.4 34.7 60.4 34.1V17.1C60.4 16.6 59.9 16.1 59.3 16.1ZM58.2 33.2H47V21.9L50.3 18.3H58.2V33.2Z" fill="#1B54F8" stroke="#FDFEFF" stroke-width="0.5" stroke-miterlimit="10"></path><path d="M49.3 23.4C49.3 24 49.8 24.5 50.4 24.5H54.7C55.3 24.5 55.8 24 55.8 23.4C55.8 22.8 55.3 22.3 54.7 22.3H50.4C49.8 22.3 49.3 22.8 49.3 23.4Z" fill="#1B54F8" stroke="#FDFEFF" stroke-width="0.5" stroke-miterlimit="10"></path><path d="M54.7 27H50.4C49.8 27 49.3 27.5 49.3 28.1C49.3 28.7 49.8 29.2 50.4 29.2H54.7C55.3 29.2 55.8 28.7 55.8 28.1C55.8 27.5 55.3 27 54.7 27Z" fill="#1B54F8" stroke="#FDFEFF" stroke-width="0.5" stroke-miterlimit="10"></path><path d="M31.2001 24.3C30.6001 24.3 30.1 24.8 30.1 25.4V30.3L28.7001 28.9C28.3001 28.5 27.6 28.5 27.1 28.9C26.7 29.3 26.7 30 27.1 30.5L30.4 33.8C30.8 34.2 31.5 34.2 32 33.8L35.3 30.5C35.7 30.1 35.7 29.4 35.3 28.9C34.9 28.5 34.2001 28.5 33.7001 28.9L32.3 30.3V25.4C32.3 24.8 31.8001 24.3 31.2001 24.3Z" fill="#1B54F8" stroke="#FDFEFF" stroke-width="0.5" stroke-miterlimit="10"></path><path d="M17.3 44.4L14 41.1C13.6 40.7 12.9 40.7 12.4 41.1C12 41.5 12 42.2 12.4 42.7L13.8 44.1H10.9V38.5C10.9 37.9 10.4 37.4 9.79999 37.4C9.19999 37.4 8.70001 37.9 8.70001 38.5V45.2C8.70001 45.8 9.19999 46.3 9.79999 46.3H13.8L12.4 47.7C12 48.1 12 48.8 12.4 49.3C12.6 49.5 12.9 49.6 13.2 49.6C13.5 49.6 13.8 49.5 14 49.3L17.3 46C17.7 45.5 17.7 44.8 17.3 44.4Z" fill="#1B54F8" stroke="#FDFEFF" stroke-width="0.5" stroke-miterlimit="10"></path><path d="M52.6 37.3C52 37.3 51.5 37.8 51.5 38.4V44H48.6L50 42.6C50.4 42.2 50.4 41.5 50 41C49.6 40.6 48.9 40.6 48.4 41L45.1 44.3C44.7 44.7 44.7 45.4 45.1 45.9L48.4 49.2C48.6 49.4 48.9 49.5 49.2 49.5C49.5 49.5 49.8 49.4 50 49.2C50.4 48.8 50.4 48.1 50 47.6L48.6 46.2H52.6C53.2 46.2 53.7 45.7 53.7 45.1V38.4C53.7 37.8 53.2 37.3 52.6 37.3Z" fill="#1B54F8" stroke="#FDFEFF" stroke-width="0.5" stroke-miterlimit="10"></path></g></svg> 