<?xml version="1.0" encoding="UTF-8"?> <svg xmlns="http://www.w3.org/2000/svg" xmlns:xlink="http://www.w3.org/1999/xlink" width="60" height="60" viewBox="0 0 60 60"><defs><clipPath id="clip-path"><rect id="Rectangle_72" data-name="Rectangle 72" width="60" height="60" transform="translate(540 419)" fill="#fff" stroke="#707070" stroke-width="1"></rect></clipPath></defs><g id="Mask_Group_24" data-name="Mask Group 24" transform="translate(-540 -419)" clip-path="url(#clip-path)"><g id="Group_46" data-name="Group 46" transform="translate(81.436 12.5)"><g id="Group_45" data-name="Group 45" transform="translate(466.564 410.5)"><g id="Group_29" data-name="Group 29" transform="translate(25.473 11.321)"><path id="Path_83" data-name="Path 83" d="M266.433,101.879H253.39a.59.59,0,0,1,0-1.179h13.043a.59.59,0,0,1,0,1.179Z" transform="translate(-252.8 -100.7)" fill="#1c54f8"></path></g><g id="Group_30" data-name="Group 30" transform="translate(38.527 9.529)"><path id="Path_84" data-name="Path 84" d="M365.87,90.264a2.382,2.382,0,1,1,2.382-2.382A2.373,2.373,0,0,1,365.87,90.264Zm0-3.585a1.2,1.2,0,1,0,1.2,1.191A1.2,1.2,0,0,0,365.87,86.679Z" transform="translate(-363.5 -85.5)" fill="#1c54f8"></path></g><g id="Group_31" data-name="Group 31" transform="translate(25.473 18.397)"><path id="Path_85" data-name="Path 85" d="M262.541,161.879H253.39a.59.59,0,0,1,0-1.179h9.151a.59.59,0,0,1,0,1.179Z" transform="translate(-252.8 -160.7)" fill="#1c54f8"></path></g><g id="Group_32" data-name="Group 32" transform="translate(34.624 16.628)"><path id="Path_86" data-name="Path 86" d="M332.77,150.441a2.37,2.37,0,1,1,2.382-2.37A2.371,2.371,0,0,1,332.77,150.441Zm0-3.573a1.191,1.191,0,1,0,1.2,1.191A1.2,1.2,0,0,0,332.77,146.867Z" transform="translate(-330.4 -145.7)" fill="#1c54f8"></path></g><g id="Group_33" data-name="Group 33" transform="translate(25.473 25.473)"><path id="Path_87" data-name="Path 87" d="M266.433,221.879H253.39a.59.59,0,0,1,0-1.179h13.043a.59.59,0,0,1,0,1.179Z" transform="translate(-252.8 -220.7)" fill="#1c54f8"></path></g><g id="Group_34" data-name="Group 34" transform="translate(38.527 23.704)"><path id="Path_88" data-name="Path 88" d="M365.87,210.441a2.37,2.37,0,1,1,2.382-2.37A2.37,2.37,0,0,1,365.87,210.441Zm0-3.573a1.2,1.2,0,1,0,1.2,1.2A1.208,1.208,0,0,0,365.87,206.867Z" transform="translate(-363.5 -205.7)" fill="#1c54f8"></path></g><g id="Group_35" data-name="Group 35" transform="translate(25.473 32.56)"><path id="Path_89" data-name="Path 89" d="M262.541,281.979H253.39a.59.59,0,1,1,0-1.179h9.151a.59.59,0,0,1,0,1.179Z" transform="translate(-252.8 -280.8)" fill="#1c54f8"></path></g><g id="Group_36" data-name="Group 36" transform="translate(34.624 30.768)"><path id="Path_90" data-name="Path 90" d="M332.77,270.352a2.376,2.376,0,1,1,2.382-2.37A2.371,2.371,0,0,1,332.77,270.352Zm0-3.573a1.2,1.2,0,1,0,1.2,1.2A1.2,1.2,0,0,0,332.77,266.779Z" transform="translate(-330.4 -265.6)" fill="#1c54f8"></path></g><g id="Group_37" data-name="Group 37" transform="translate(25.473 39.636)"><path id="Path_91" data-name="Path 91" d="M266.433,341.979H253.39a.59.59,0,1,1,0-1.179h13.043a.59.59,0,1,1,0,1.179Z" transform="translate(-252.8 -340.8)" fill="#1c54f8"></path></g><g id="Group_38" data-name="Group 38" transform="translate(38.527 37.843)"><path id="Path_92" data-name="Path 92" d="M365.87,330.352a2.376,2.376,0,1,1,2.382-2.382A2.373,2.373,0,0,1,365.87,330.352Zm0-3.573a1.2,1.2,0,0,0,0,2.394,1.2,1.2,0,1,0,0-2.394Z" transform="translate(-363.5 -325.6)" fill="#1c54f8"></path></g><g id="Group_39" data-name="Group 39" transform="translate(25.473 3.031)"><path id="Path_93" data-name="Path 93" d="M259.84,34.575H253.39a.59.59,0,0,1,0-1.179h6.191l2.559-2.807a.617.617,0,0,1,.436-.189h5.036a.59.59,0,1,1,0,1.179h-4.776l-2.559,2.807A.617.617,0,0,1,259.84,34.575Z" transform="translate(-252.8 -30.4)" fill="#1c54f8"></path></g><g id="Group_40" data-name="Group 40" transform="translate(39.683 1.238)"><path id="Path_94" data-name="Path 94" d="M375.682,19.964a2.382,2.382,0,1,1,2.37-2.382A2.383,2.383,0,0,1,375.682,19.964Zm0-3.585a1.2,1.2,0,1,0,1.191,1.191A1.188,1.188,0,0,0,375.682,16.379Z" transform="translate(-373.3 -15.2)" fill="#1c54f8"></path></g><g id="Group_41" data-name="Group 41" transform="translate(25.484 44.931)"><path id="Path_95" data-name="Path 95" d="M262.488,389.875h-5.036a.6.6,0,0,1-.436-.189l-2.559-2.807h-.967a.59.59,0,1,1,0-1.179h1.226a.6.6,0,0,1,.436.189l2.559,2.807h4.776a.584.584,0,0,1,.59.59A.591.591,0,0,1,262.488,389.875Z" transform="translate(-252.9 -385.7)" fill="#1c54f8"></path></g><g id="Group_42" data-name="Group 42" transform="translate(34.471 46.134)"><path id="Path_96" data-name="Path 96" d="M331.482,400.653a2.376,2.376,0,1,1,2.37-2.382A2.383,2.383,0,0,1,331.482,400.653Zm0-3.573a1.2,1.2,0,1,0,1.191,1.191A1.188,1.188,0,0,0,331.482,397.079Z" transform="translate(-329.1 -395.9)" fill="#1c54f8"></path></g><g id="Group_43" data-name="Group 43" transform="translate(0 0)"><path id="Path_97" data-name="Path 97" d="M62.862,56.824H60.221a3.475,3.475,0,0,1-3.467-3.479V46.8c-.307-.118-.6-.236-.908-.377l-4.623,4.623a3.481,3.481,0,0,1-4.918,0l-3.738-3.738a3.466,3.466,0,0,1,0-4.906l4.623-4.623c-.13-.295-.259-.6-.377-.908H40.279A3.485,3.485,0,0,1,36.8,33.392V28.109a3.475,3.475,0,0,1,3.479-3.467h6.545c.118-.307.248-.6.377-.908l-4.635-4.611a3.473,3.473,0,0,1,0-4.906l3.738-3.738a3.481,3.481,0,0,1,4.918,0L55.845,15.1c.295-.13.6-.259.908-.377V8.179A3.485,3.485,0,0,1,60.232,4.7h2.642a.584.584,0,0,1,.59.59V56.235A.6.6,0,0,1,62.862,56.824ZM55.716,45.138a.69.69,0,0,1,.259.059,15.134,15.134,0,0,0,1.568.649.585.585,0,0,1,.389.554v6.958a2.3,2.3,0,0,0,2.288,2.3h2.052V5.891H60.221a2.293,2.293,0,0,0-2.288,2.3v6.958a.585.585,0,0,1-.389.554,16.288,16.288,0,0,0-1.568.649.6.6,0,0,1-.672-.118L50.385,11.3a2.292,2.292,0,0,0-3.243,0L43.4,15.042a2.306,2.306,0,0,0,0,3.255l4.918,4.918a.6.6,0,0,1,.118.672,15.134,15.134,0,0,0-.649,1.568.585.585,0,0,1-.554.389H40.279a2.29,2.29,0,0,0-2.288,2.288v5.283a2.3,2.3,0,0,0,2.288,2.3h6.946a.585.585,0,0,1,.554.389,15.133,15.133,0,0,0,.649,1.568.6.6,0,0,1-.118.672l-4.918,4.918a2.292,2.292,0,0,0,0,3.243l3.738,3.738a2.292,2.292,0,0,0,3.243,0l4.918-4.918A.566.566,0,0,1,55.716,45.138Z" transform="translate(-36.8 -4.7)" fill="#1c54f8"></path></g><g id="Group_44" data-name="Group 44" transform="translate(15.861 15.873)"><path id="Path_98" data-name="Path 98" d="M181.5,159.7a10.2,10.2,0,1,1,0-20.4.59.59,0,0,1,0,1.179,9.022,9.022,0,0,0,0,18.043.59.59,0,1,1,0,1.179Z" transform="translate(-171.3 -139.3)" fill="#1c54f8"></path></g></g></g></g></svg> 