<?xml version="1.0" encoding="UTF-8"?> <svg xmlns="http://www.w3.org/2000/svg" xmlns:xlink="http://www.w3.org/1999/xlink" width="90" height="90" viewBox="0 0 90 90"><defs><clipPath id="clip-path"><rect id="Rectangle_18" data-name="Rectangle 18" width="90" height="90" transform="translate(610 717)" fill="#fff"></rect></clipPath></defs><g id="Mask_Group_4" data-name="Mask Group 4" transform="translate(-610 -717)" clip-path="url(#clip-path)"><g id="Group_105" data-name="Group 105" transform="translate(-14.862 -146.277)"><path id="Path_20" data-name="Path 20" d="M97.61,67.772h3.016a5.616,5.616,0,0,1,3.913,9.51l-2.133,2.106a1.36,1.36,0,0,0,0,1.929l11.507,11.534a1.358,1.358,0,0,0,1.929,0l2.146-2.132a5.638,5.638,0,0,1,9.51,3.926v3.016a1.358,1.358,0,0,0,1.359,1.359h9.51a1.357,1.357,0,0,0,.964-.394,1.423,1.423,0,0,0,.394-.964V94.835c18.028-1.223,32.986-14.944,35.065-32.334l-2.717-.326c-1.9,16.072-15.691,28.693-32.348,29.917v-5.3A28.419,28.419,0,0,0,160.1,76.848l-2.065-1.766a25.732,25.732,0,0,1-18.314,8.994V81.358A1.349,1.349,0,0,0,138.286,80h-1.359a21.655,21.655,0,0,1-21.085-16.615l-2.636.625a24.347,24.347,0,0,0,23.8,18.708V96.3h-6.793V94.645a8.152,8.152,0,0,0-5.04-7.458h-.163a8.15,8.15,0,0,0-8.913,1.671l-1.168,1.182-9.646-9.687,1.182-1.168a8.152,8.152,0,0,0,1.712-8.831l-.081-.19a8.152,8.152,0,0,0-7.472-5.108H98.969V51.47h1.658a8.069,8.069,0,0,0,7.445-5.04.85.85,0,0,0,.068-.163,8.15,8.15,0,0,0-1.671-8.926l-1.182-1.168,9.605-9.619,1.168,1.182h0a8.153,8.153,0,0,0,8.817,1.712l.19-.081h0a8.152,8.152,0,0,0,5.149-7.486V20.222h6.793V33.808a24.347,24.347,0,0,0-23.8,18.708l2.636.625a21.655,21.655,0,0,1,21.167-16.615H138.3a1.329,1.329,0,0,0,1.427-1.359V32.45a25.7,25.7,0,0,1,18.286,8.994l2.093-1.725a28.355,28.355,0,0,0-20.379-9.986v-5.3c16.683,1.223,30.5,13.83,32.429,29.889L174.872,54c-2.16-17.4-17.146-31.056-35.146-32.32V18.864a1.358,1.358,0,0,0-1.359-1.359h-9.51a1.359,1.359,0,0,0-1.359,1.359V21.88a5.615,5.615,0,0,1-9.51,3.926l-2.133-2.132a1.358,1.358,0,0,0-1.929,0L102.406,35.167a1.36,1.36,0,0,0,0,1.929l2.133,2.146a5.638,5.638,0,0,1-3.912,9.51H97.61a1.359,1.359,0,0,0-1.359,1.359v16.3a1.358,1.358,0,0,0,1.359,1.359Z" transform="translate(534.61 849.771)" fill="#1b54f8" stroke="#fff" stroke-width="0.4"></path><path id="Path_21" data-name="Path 21" d="M201.25,261.45a23.592,23.592,0,0,0,0,5.761l2.717-.326a21.933,21.933,0,0,1,0-5.108Z" transform="translate(446.064 643.703)" fill="#1b54f8" stroke="#fff" stroke-width="0.4"></path><path id="Path_22" data-name="Path 22" d="M236.25,176.52a19.02,19.02,0,1,0,5.571-13.449A19.021,19.021,0,0,0,236.25,176.52Zm17.662-9.51a16.591,16.591,0,0,1-3.8-.775,10.312,10.312,0,0,1,3.8-5.624Zm2.717-6.331a10.313,10.313,0,0,1,3.8,5.556,16.6,16.6,0,0,1-3.8.775Zm-9.007,4.429a16.772,16.772,0,0,1-2.282-1.481,16.122,16.122,0,0,1,4.2-2.35,18.32,18.32,0,0,0-1.915,3.831Zm1.725,3.668a18.49,18.49,0,0,0,4.565.951v5.434h-5.434a32.572,32.572,0,0,1,.87-6.385Zm4.565,9.1v5.434a19.38,19.38,0,0,0-4.565.883,32.59,32.59,0,0,1-.87-6.318Zm0,14.55a10.313,10.313,0,0,1-3.8-5.556,16.593,16.593,0,0,1,3.8-.775Zm2.717-6.331a16.593,16.593,0,0,1,3.8.775,10.312,10.312,0,0,1-3.8,5.556Zm-7.092,5.665a16.121,16.121,0,0,1-4.2-2.35,16.777,16.777,0,0,1,2.282-1.481,18.32,18.32,0,0,0,1.915,3.831Zm13.382-3.831a16.767,16.767,0,0,1,2.282,1.481,16.121,16.121,0,0,1-4.2,2.35A18.319,18.319,0,0,0,262.919,187.932Zm-1.725-3.668a19.378,19.378,0,0,0-4.565-.883v-5.5h5.434a32.571,32.571,0,0,1-.87,6.385Zm-4.565-9.1v-5.434a18.612,18.612,0,0,0,4.565-.883,32.589,32.589,0,0,1,.87,6.318ZM261,161.277a16.122,16.122,0,0,1,4.2,2.35,16.775,16.775,0,0,1-2.282,1.481A18.321,18.321,0,0,0,261,161.277Zm-17.662,4.2a19.358,19.358,0,0,0,3.492,2.255,35.4,35.4,0,0,0-1.074,7.432h-6.793a16.223,16.223,0,0,1,4.347-9.687Zm-4.307,12.4h6.793a35.439,35.439,0,0,0,1.019,7.432,19.366,19.366,0,0,0-3.492,2.255,16.221,16.221,0,0,1-4.32-9.687Zm28.19,9.687a19.359,19.359,0,0,0-3.492-2.255,35.455,35.455,0,0,0,1.046-7.432h6.793a16.223,16.223,0,0,1-4.347,9.687Zm4.347-12.4H264.78a35.439,35.439,0,0,0-1.019-7.432,19.365,19.365,0,0,0,3.492-2.255,16.22,16.22,0,0,1,4.32,9.687Z" transform="translate(416.349 731.513)" fill="#1b54f8" stroke="#fff" stroke-width="0.4"></path><path id="Path_23" data-name="Path 23" d="M586.25,272.609v1.359h2.717V271.25H586.25Z" transform="translate(120.692 635.425)" fill="#1b54f8" stroke="#fff" stroke-width="0.4"></path><path id="Path_24" data-name="Path 24" d="M510.274,181.715a27.573,27.573,0,0,0-1.658-2.866l-2.255,1.522h0a23.357,23.357,0,0,1,1.535,2.568Z" transform="translate(188.177 713.479)" fill="#1b54f8" stroke="#fff" stroke-width="0.4"></path><path id="Path_25" data-name="Path 25" d="M508.843,358.9a27.588,27.588,0,0,0,1.658-2.866l-2.377-1.223a23.462,23.462,0,0,1-1.494,2.568Z" transform="translate(187.951 564.836)" fill="#1b54f8" stroke="#fff" stroke-width="0.4"></path><path id="Path_26" data-name="Path 26" d="M527.6,225.674a28.831,28.831,0,0,0-1.794-9.986l-2.554.951a25.816,25.816,0,0,1,0,18.07l2.554.951a28.835,28.835,0,0,0,1.794-9.986Z" transform="translate(173.91 682.36)" fill="#1b54f8" stroke="#fff" stroke-width="0.4"></path><path id="Path_27" data-name="Path 27" d="M131.25,271.25h2.717v2.717H131.25Z" transform="translate(505.046 635.425)" fill="#1b54f8" stroke="#fff" stroke-width="0.4"></path><path id="Path_28" data-name="Path 28" d="M189.1,121.056l1.921-1.921,1.921,1.921-1.921,1.921Z" transform="translate(456.178 763.921)" fill="#1b54f8" stroke="#fff" stroke-width="0.4"></path><path id="Path_29" data-name="Path 29" d="M189.09,418.026l1.921-1.921,1.921,1.921-1.921,1.921Z" transform="translate(456.186 513.061)" fill="#1b54f8" stroke="#fff" stroke-width="0.4"></path></g></g></svg> 