<?xml version="1.0" encoding="UTF-8"?> <svg xmlns="http://www.w3.org/2000/svg" id="Layer_1" data-name="Layer 1" viewBox="0 0 80 80"><defs><style>.cls-1{fill:#1b54f8;}</style></defs><path class="cls-1" d="M60.9,56.8a5.12,5.12,0,0,0-4-3.5l-4.8-.9V52a7.13,7.13,0,0,0,3.5-4.9,2.89,2.89,0,0,0,2.3-2.8V37.1a4.62,4.62,0,0,0-3.2-4.4l-.4-.4A8.77,8.77,0,0,0,48,29.7a8.92,8.92,0,0,0-8.9,8.9v5.6A2.81,2.81,0,0,0,41.4,47a7.35,7.35,0,0,0,3.5,4.9v.4l-4.8.9a5.12,5.12,0,0,0-4,3.5l-1.7,5.6h28ZM55.8,45.6V43.1a1.52,1.52,0,0,1,.7,1.2A1.71,1.71,0,0,1,55.8,45.6Zm-14.5,0a1.52,1.52,0,0,1-.7-1.2,1.39,1.39,0,0,1,.7-1.2Zm0-4.9v.8a4.88,4.88,0,0,0-.7.3V38.7a7.5,7.5,0,0,1,12.8-5.3l.6.6h.2a3,3,0,0,1,2.3,3v4.7c-.2-.1-.5-.2-.7-.3v-.8H53.5a6.16,6.16,0,0,1-5-2.5l-.6-.8-1.4,1.4a6.2,6.2,0,0,1-4.4,1.8h-.8Zm1.5,5.1V42.1a7.66,7.66,0,0,0,4.7-2.2l.3-.3a7.72,7.72,0,0,0,5.7,2.5h.8v3.6a5.8,5.8,0,0,1-5.8,5.8A5.63,5.63,0,0,1,42.8,45.8Zm3.7,6.9a7.5,7.5,0,0,0,4.2,0l-2.1,1.6Zm1,2.6L46,56.8l-1-2.9.5-.1Zm4.1-1.5.5.1-1,2.9-1.5-1.5ZM36.5,61l1.1-3.8a3.57,3.57,0,0,1,2.8-2.5l3.1-.6,1.8,5.3,3.2-3.2,3.2,3.2,1.8-5.3,3.1.6a3.57,3.57,0,0,1,2.8,2.5L60.5,61Z"></path><path class="cls-1" d="M36.3,29.3V24.7l-2-.5c-.1-.2-.1-.3-.2-.5l1-1.8-3.2-3.2-1.8,1c-.2-.1-.3-.1-.5-.2l-.5-2H24.5l-.5,2c-.2.1-.3.1-.5.2l-1.8-1-3.2,3.2,1,1.8c-.1.2-.1.3-.2.5l-2,.5v4.6l2,.5c.1.2.1.3.2.5l-1,1.8,3.2,3.2,1.8-1c.2.1.3.1.5.2l.5,2h4.6l.5-2c.2-.1.3-.1.5-.2l1.8,1,3.2-3.2-1-1.8c.1-.2.1-.3.2-.5Zm-3,2.5-1.7,1.7-1.5-.9-.4.2a4.18,4.18,0,0,1-1,.4l-.4.1L28,34.9H25.6l-.4-1.6-.4-.1a4.18,4.18,0,0,1-1-.4l-.4-.2-1.4.8-1.7-1.7.9-1.5-.2-.3a4.18,4.18,0,0,1-.4-1l-.1-.4-1.6-.4V25.7l1.6-.4.1-.4a4.18,4.18,0,0,1,.4-1l.2-.4L20.3,22,22,20.3l1.5.9.4-.2a4.18,4.18,0,0,1,1-.4l.4-.1.4-1.6H28l.4,1.6.4.1a4.18,4.18,0,0,1,1,.4l.4.2,1.5-.9L33.4,22l-.9,1.5.2.4a4.18,4.18,0,0,1,.4,1l.1.4,1.6.4v2.4l-1.6.4L33,29a4.18,4.18,0,0,1-.4,1l-.2.4Z"></path><path class="cls-1" d="M30.9,30a4.72,4.72,0,0,0,1-3,5.1,5.1,0,1,0-10.2,0,5,5,0,0,0,5.1,5,5.1,5.1,0,0,0,3.1-1.1L29,29.8a3.41,3.41,0,0,1-2.2.7,3.5,3.5,0,1,1,2.9-1.4Z"></path><path class="cls-1" d="M61.1,26.4l-.9.9V24.7A7.17,7.17,0,0,0,53,17.5H48.7V19H53a5.8,5.8,0,0,1,5.8,5.8v2.6l-.9-.9-1,1,2.7,2.7,2.7-2.7Z"></path><path class="cls-1" d="M21,55.2V52.6l.9.9,1-1-2.7-2.7-2.7,2.7,1,1,.9-.9v2.6a7.17,7.17,0,0,0,7.2,7.2V61A5.77,5.77,0,0,1,21,55.2Z"></path><rect class="cls-1" x="17.4" y="39.3" width="18.8" height="1.4"></rect><rect class="cls-1" x="17.4" y="45.1" width="18.8" height="1.4"></rect><rect class="cls-1" x="17.4" y="42.2" width="8.7" height="1.4"></rect><polygon class="cls-1" points="31.7 42.2 28.3 42.2 27.6 42.2 27.6 43.6 28.3 43.6 31.7 43.6 36.3 43.6 36.3 42.2 31.7 42.2"></polygon><rect class="cls-1" x="45.7" y="17.5" width="1.4" height="1.4"></rect><rect class="cls-1" x="42.8" y="17.5" width="1.4" height="1.4"></rect><rect class="cls-1" x="28.3" y="61" width="1.4" height="1.4"></rect><rect class="cls-1" x="31.2" y="61" width="1.4" height="1.4"></rect></svg> 