<?xml version="1.0" encoding="UTF-8"?> <svg xmlns="http://www.w3.org/2000/svg" width="61" height="61" viewBox="0 0 61 61" fill="none"><mask id="mask0_1_185" style="mask-type:luminance" maskUnits="userSpaceOnUse" x="0" y="0" width="61" height="61"><path d="M60.1 0.100006H0.100006V60.1H60.1V0.100006Z" fill="white"></path></mask><g mask="url(#mask0_1_185)"><path d="M30.6 0C34.9 0 38.3 3.50001 38.3 7.70001C38.3 8.50001 38.2 9.3 38 10L46.8 14.4C48.2 12.5 50.5 11.2 53 11.2C57.3 11.2 60.7 14.7 60.7 18.9C60.7 23.2 57.2 26.6 53 26.6C50.4 26.6 48.2 25.3 46.8 23.4L38 27.8C38.2 28.5 38.3 29.3 38.3 30.1C38.3 30.9 38.2 31.7 38 32.4L46.8 36.8C48.2 34.9 50.5 33.6 53 33.6C57.3 33.6 60.7 37.1 60.7 41.3C60.7 45.5 57.2 49 53 49C50.4 49 48.2 47.7 46.8 45.8L38 50.2C38.2 50.9 38.3 51.7 38.3 52.5C38.3 56.8 34.8 60.2 30.6 60.2C26.3 60.2 22.9 56.7 22.9 52.5C22.9 51.7 23 50.9 23.2 50.2L14.4 45.8C13 47.7 10.7 49 8.20001 49C3.90001 49 0.5 45.5 0.5 41.3C0.5 37.1 4.00001 33.6 8.20001 33.6C9.30001 33.6 10.4 33.8 11.4 34.3L14.2 30.1L11.4 25.9C10.4 26.3 9.40001 26.6 8.20001 26.6C3.90001 26.6 0.5 23.1 0.5 18.9C0.5 14.6 4.00001 11.2 8.20001 11.2C10.8 11.2 13 12.5 14.4 14.4L23.2 10C23 9.3 22.9 8.50001 22.9 7.70001C22.8 3.50001 26.3 0 30.6 0ZM30.6 47.7C27.9 47.7 25.7 49.9 25.7 52.6C25.7 55.3 27.9 57.5 30.6 57.5C33.3 57.5 35.5 55.3 35.5 52.6C35.5 49.9 33.3 47.7 30.6 47.7ZM30.6 50.5C31.8 50.5 32.7 51.4 32.7 52.6C32.7 53.8 31.8 54.7 30.6 54.7C29.4 54.7 28.5 53.8 28.5 52.6C28.5 51.5 29.4 50.5 30.6 50.5ZM30.6 37.9C28 37.9 25.8 36.6 24.4 34.7L21.3 36.3L27.5 45.6C28.5 45.2 29.5 44.9 30.7 44.9C33.3 44.9 35.5 46.2 37 48.1L45.8 43.7C45.6 43 45.5 42.2 45.5 41.4C45.5 40.6 45.6 39.8 45.8 39.1L37 34.7C35.4 36.7 33.1 37.9 30.6 37.9ZM18.9 37.4L15.5 39.1C15.7 39.8 15.8 40.6 15.8 41.4C15.8 42.2 15.7 43 15.5 43.7L24.3 48.1C24.6 47.7 24.9 47.3 25.3 47L18.9 37.4ZM53 36.5C50.3 36.5 48.1 38.7 48.1 41.4C48.1 44.1 50.3 46.3 53 46.3C55.7 46.3 57.9 44.1 57.9 41.4C57.9 38.7 55.7 36.5 53 36.5ZM8.09998 36.5C5.39998 36.5 3.20001 38.7 3.20001 41.4C3.20001 44.1 5.39998 46.3 8.09998 46.3C10.8 46.3 13 44.1 13 41.4C13 38.7 10.8 36.5 8.09998 36.5ZM53 39.3C54.2 39.3 55.1 40.2 55.1 41.4C55.1 42.6 54.2 43.5 53 43.5C51.8 43.5 50.9 42.6 50.9 41.4C50.9 40.2 51.9 39.3 53 39.3ZM8.09998 39.3C9.29998 39.3 10.2 40.2 10.2 41.4C10.2 42.6 9.29998 43.5 8.09998 43.5C6.89998 43.5 6 42.6 6 41.4C6 40.2 6.89998 39.3 8.09998 39.3ZM15.6 32.5L13.4 35.8C13.8 36.1 14.1 36.5 14.4 36.9L17.5 35.3L15.6 32.5ZM30.6 25.3C27.9 25.3 25.7 27.5 25.7 30.2C25.7 32.9 27.9 35.1 30.6 35.1C33.3 35.1 35.5 32.9 35.5 30.2C35.5 27.5 33.3 25.3 30.6 25.3ZM19.8 26.2L17.1 30.2L19.8 34.2L23.2 32.5C23 31.8 22.9 31 22.9 30.2C22.9 29.4 23 28.6 23.2 27.9L19.8 26.2ZM30.6 28.1C31.8 28.1 32.7 29 32.7 30.2C32.7 31.4 31.8 32.3 30.6 32.3C29.4 32.3 28.5 31.4 28.5 30.2C28.5 29 29.4 28.1 30.6 28.1ZM13.4 24.6L15.6 27.9L17.5 25.1L14.4 23.5C14.1 23.9 13.7 24.3 13.4 24.6ZM30.6 15.4C29.5 15.4 28.4 15.2 27.4 14.7L21.2 24L24.3 25.6C25.7 23.7 28 22.4 30.5 22.4C33.1 22.4 35.3 23.7 36.8 25.6L45.6 21.2C45.4 20.5 45.3 19.7 45.3 18.9C45.3 18.1 45.4 17.3 45.6 16.6L36.8 12.2C35.4 14.2 33.1 15.4 30.6 15.4ZM8.09998 14C5.39998 14 3.20001 16.2 3.20001 18.9C3.20001 21.6 5.39998 23.8 8.09998 23.8C10.8 23.8 13 21.6 13 18.9C13 16.2 10.8 14 8.09998 14ZM53 14C50.3 14 48.1 16.2 48.1 18.9C48.1 21.6 50.3 23.8 53 23.8C55.7 23.8 57.9 21.6 57.9 18.9C57.9 16.2 55.7 14 53 14ZM24.3 12.3L15.5 16.7C15.7 17.4 15.8 18.2 15.8 19C15.8 19.8 15.7 20.6 15.5 21.3L18.9 23L25.3 13.4C24.9 13 24.6 12.7 24.3 12.3ZM53 16.8C54.2 16.8 55.1 17.7 55.1 18.9C55.1 20.1 54.2 21 53 21C51.8 21 50.9 20.1 50.9 18.9C50.9 17.8 51.9 16.8 53 16.8ZM8.09998 16.8C9.29998 16.8 10.2 17.7 10.2 18.9C10.2 20.1 9.29998 21 8.09998 21C6.89998 21 6 20.1 6 18.9C6 17.8 6.89998 16.8 8.09998 16.8ZM30.6 2.79999C27.9 2.79999 25.7 5.00001 25.7 7.70001C25.7 10.4 27.9 12.6 30.6 12.6C33.3 12.6 35.5 10.4 35.5 7.70001C35.5 5.00001 33.3 2.79999 30.6 2.79999ZM30.6 5.59998C31.8 5.59998 32.7 6.50001 32.7 7.70001C32.7 8.90001 31.8 9.79999 30.6 9.79999C29.4 9.79999 28.5 8.90001 28.5 7.70001C28.5 6.50001 29.4 5.59998 30.6 5.59998Z" fill="#1B54F8" stroke="white" stroke-width="0.75" stroke-miterlimit="10"></path></g></svg> 