<?xml version="1.0" encoding="UTF-8"?> <svg xmlns="http://www.w3.org/2000/svg" xmlns:xlink="http://www.w3.org/1999/xlink" width="90" height="90" viewBox="0 0 90 90"><defs><clipPath id="clip-path"><rect id="Rectangle_14" data-name="Rectangle 14" width="90" height="90" transform="translate(100 268)" fill="#fff" stroke="#707070" stroke-width="1"></rect></clipPath></defs><g id="Mask_Group_22" data-name="Mask Group 22" transform="translate(-100 -268)" clip-path="url(#clip-path)"><g id="Group_20" data-name="Group 20" transform="translate(194.72 1)"><g id="Group_19" data-name="Group 19" transform="translate(-88.72 273)"><path id="Path_79" data-name="Path 79" d="M78.8,77.627H61.757V63.817a11.886,11.886,0,0,0-.96-4.679v-.012l2.725-1.564A5.569,5.569,0,1,0,68.556,48.1V28.682a5.571,5.571,0,1,0-4.869-9.619h0L45.477,8.552l0-.008a5.693,5.693,0,0,0,.261-1.694,5.579,5.579,0,1,0-11.159,0,5.774,5.774,0,0,0,.261,1.706h0l-18.2,10.51,0,0a5.568,5.568,0,1,0-4.861,9.617V49.011a5.576,5.576,0,1,0,5.578,8.867l2.931,1.692a11.838,11.838,0,0,0-.78,4.247v13.81H2.465a1.185,1.185,0,0,0,0,2.369c22.194,0,8,0,76.335,0a1.185,1.185,0,0,0,0-2.369ZM70.57,53.547a3.2,3.2,0,1,1-3.2-3.21A3.2,3.2,0,0,1,70.57,53.547ZM64.161,23.209a3.216,3.216,0,1,1,0,.035Zm2.026,5.473V48.1a5.494,5.494,0,0,0-2.748,1.493L51.593,40.836a11.621,11.621,0,0,0,.663-3.388,11.5,11.5,0,0,0-1.587-6.421l12.059-4.7A5.525,5.525,0,0,0,66.187,28.682ZM44.28,10.6l18,10.39a5.532,5.532,0,0,0-.484,2.258,5.211,5.211,0,0,0,.071.865l-12.652,4.94a11.554,11.554,0,0,0-7.866-3.743V12.3A5.443,5.443,0,0,0,44.28,10.6ZM49.9,37.341a9.273,9.273,0,1,1-9.275-9.69C47.5,28.876,50.092,32.778,49.9,37.341ZM40.161,3.64a3.21,3.21,0,1,1-3.21,3.21A3.22,3.22,0,0,1,40.161,3.64ZM18.045,20.99,36.037,10.6l0,0A5.588,5.588,0,0,0,38.977,12.3V25.4a11.576,11.576,0,0,0-7.025,3.755L18.519,23.588a3.214,3.214,0,0,0,.012-.344,5.479,5.479,0,0,0-.486-2.251v0ZM9.753,23.245a3.2,3.2,0,1,1,3.21,3.2A3.205,3.205,0,0,1,9.753,23.245Zm3.21,34.424a3.21,3.21,0,1,1,3.08-4.063A3.213,3.213,0,0,1,12.963,57.669Zm3.613-7.439a5.551,5.551,0,0,0-2.428-1.22h0V28.683h0a5.6,5.6,0,0,0,3.72-2.807l12.663,5.26A11.432,11.432,0,0,0,29,36.394a11.74,11.74,0,0,0,.521,4.028Zm42.811,27.4H21.871V63.817a9.651,9.651,0,0,1,9.643-9.643h3.72l4.454,5.733a1.2,1.2,0,0,0,1.872,0l4.466-5.733h3.72a9.651,9.651,0,0,1,9.643,9.643v13.81Zm.284-20.574a12.022,12.022,0,0,0-9.927-5.248h-4.3a1.167,1.167,0,0,0-.936.462l-3.886,4.987L36.75,52.267a1.167,1.167,0,0,0-.936-.462h-4.3a12.019,12.019,0,0,0-10.176,5.639l-2.961-1.709a5.469,5.469,0,0,0-.368-3.61L30.5,42.66A11.634,11.634,0,0,0,40.1,48.548c.178.012.367.012.545.012A11.633,11.633,0,0,0,50.562,43l11.6,8.576v.012a5.311,5.311,0,0,0-.367,1.955,5.584,5.584,0,0,0,.391,2.049Z" transform="translate(-1.28 -1.27)" fill="#1c54f8"></path></g></g></g></svg> 