<?xml version="1.0" encoding="UTF-8"?> <svg xmlns="http://www.w3.org/2000/svg" xmlns:xlink="http://www.w3.org/1999/xlink" width="60" height="60" viewBox="0 0 60 60"><defs><clipPath id="clip-path"><rect id="Rectangle_69" data-name="Rectangle 69" width="60" height="60" transform="translate(762 218)" fill="#fff" stroke="#707070" stroke-width="1"></rect></clipPath></defs><g id="Mask_Group_23" data-name="Mask Group 23" transform="translate(-762 -218)" clip-path="url(#clip-path)"><g id="Group_28" data-name="Group 28" transform="translate(108 58)"><path id="Path_81" data-name="Path 81" d="M46.594,26.273h-.842V25.43a.842.842,0,0,0-.842-.842H43.224a16.151,16.151,0,0,0,.469-1.685h2.058a.842.842,0,0,0,.842-.842V17.006a.842.842,0,0,0-.842-.842H43.694a15.746,15.746,0,0,0-2.19-5.307L42.956,9.4a.842.842,0,0,0,0-1.191L39.379,4.641a.842.842,0,0,0-1.191,0l-1.45,1.453A15.8,15.8,0,0,0,31.43,3.9V1.842A.842.842,0,0,0,30.588,1H25.533a.842.842,0,0,0-.842.842V3.9a15.8,15.8,0,0,0-5.307,2.19l-1.45-1.449a.867.867,0,0,0-1.191,0L13.168,8.215a.842.842,0,0,0,0,1.191l1.453,1.45a15.746,15.746,0,0,0-2.19,5.307H10.37a.842.842,0,0,0-.842.842v5.055a.842.842,0,0,0,.842.842h2.058a16.151,16.151,0,0,0,.469,1.685H11.212a.842.842,0,0,0-.842.842v.842H9.527A2.527,2.527,0,0,0,7,28.8V50.7A2.527,2.527,0,0,0,9.527,53.23H46.594A2.527,2.527,0,0,0,49.121,50.7V28.8A2.527,2.527,0,0,0,46.594,26.273ZM19.311,24.588a10.109,10.109,0,1,1,17.5,0H34.839c.089-.147.174-.295.27-.44a8.424,8.424,0,1,0-14.084.019c.092.139.174.281.259.421Zm3.117-1.348a6.709,6.709,0,0,1-1.107-3.757,6.74,6.74,0,0,1,13.479.051,6.706,6.706,0,0,1-1.1,3.69,14.574,14.574,0,0,0-1.532,3.05H23.959a14.243,14.243,0,0,0-1.528-3.033Zm9.023,6.4H24.67a11.8,11.8,0,0,0-.23-1.685h7.245A11.721,11.721,0,0,0,31.451,29.643Zm-.542,1.685-.842,1.685H26.054l-.842-1.685ZM28.9,34.7h1.685a.842.842,0,0,0,.758-.466l1.685-3.37h-.008a.824.824,0,0,0,.093-.377v-.156a10.511,10.511,0,0,1,.861-4.056H44.067v21.9H33.621A10.83,10.83,0,0,0,28.9,49.26ZM13.955,21.921a.842.842,0,0,0-.831-.7H11.212v-3.37h1.912a.842.842,0,0,0,.831-.7,14.138,14.138,0,0,1,2.443-5.9.842.842,0,0,0-.09-1.084L14.96,8.817l2.383-2.383,1.348,1.348a.842.842,0,0,0,1.083.09,14.153,14.153,0,0,1,5.9-2.443.842.842,0,0,0,.7-.831V2.685h3.37V4.6a.842.842,0,0,0,.7.831,14.153,14.153,0,0,1,5.9,2.443.842.842,0,0,0,1.083-.09l1.348-1.348L41.16,8.816l-1.348,1.348a.842.842,0,0,0-.09,1.084,14.138,14.138,0,0,1,2.443,5.9.842.842,0,0,0,.832.7h1.912v3.37H43a.842.842,0,0,0-.831.7,14.36,14.36,0,0,1-.741,2.667H38.713a11.794,11.794,0,1,0-21.3,0H14.7a14.3,14.3,0,0,1-.741-2.667Zm-1.9,4.352h10.1a10.5,10.5,0,0,1,.856,4.055v.158a.824.824,0,0,0,.1.373h-.008l1.685,3.37a.842.842,0,0,0,.754.469h1.685V49.26A10.83,10.83,0,0,0,22.5,48.176H12.055ZM47.436,50.7a.842.842,0,0,1-.842.842H9.527a.842.842,0,0,1-.842-.842V28.8a.842.842,0,0,1,.842-.842h.842V49.018a.842.842,0,0,0,.842.842H22.5A9.164,9.164,0,0,1,27.6,51.4a.842.842,0,0,0,.935,0,9.164,9.164,0,0,1,5.088-1.543H44.909a.842.842,0,0,0,.842-.842V27.958h.842a.842.842,0,0,1,.842.842Z" transform="translate(656 163)" fill="#1c54f8" stroke="#fff" stroke-width="0.6"></path><rect id="Rectangle_108" data-name="Rectangle 108" width="10" height="2" transform="translate(670 199)" fill="#1c54f8" stroke="#fff" stroke-width="0.4"></rect><rect id="Rectangle_109" data-name="Rectangle 109" width="7" height="2" transform="translate(671 196)" fill="#1c54f8" stroke="#fff" stroke-width="0.4"></rect><rect id="Rectangle_110" data-name="Rectangle 110" width="7" height="2" transform="translate(690 196)" fill="#1c54f8" stroke="#fff" stroke-width="0.4"></rect><rect id="Rectangle_111" data-name="Rectangle 111" width="10" height="1" transform="translate(670 203)" fill="#1c54f8" stroke="#fff" stroke-width="0.4"></rect><rect id="Rectangle_112" data-name="Rectangle 112" width="10" height="2" transform="translate(670 206)" fill="#1c54f8" stroke="#fff" stroke-width="0.4"></rect><rect id="Rectangle_113" data-name="Rectangle 113" width="10" height="2" transform="translate(688 199)" fill="#1c54f8" stroke="#fff" stroke-width="0.4"></rect><rect id="Rectangle_114" data-name="Rectangle 114" width="10" height="1" transform="translate(688 203)" fill="#1c54f8" stroke="#fff" stroke-width="0.4"></rect><rect id="Rectangle_115" data-name="Rectangle 115" width="10" height="2" transform="translate(688 206)" fill="#1c54f8" stroke="#fff" stroke-width="0.4"></rect><path id="Path_82" data-name="Path 82" d="M35.37,22.055h1.685A5.06,5.06,0,0,0,32,17v1.685A3.37,3.37,0,0,1,35.37,22.055Z" transform="translate(652.061 160.479)" fill="#1c54f8" stroke="#fff" stroke-width="0.4"></path></g></g></svg> 