<?xml version="1.0" encoding="UTF-8"?> <svg xmlns="http://www.w3.org/2000/svg" id="Layer_1" data-name="Layer 1" viewBox="0 0 74 74"><defs><style>.cls-1{fill:#1b54f8;}</style></defs><g id="Deep-Learning"><g id="deep-learning-2" data-name="deep-learning"><path id="Shape" class="cls-1" d="M46.33,23.87a.91.91,0,0,0,.66-.28L57.92,12.67h1.65a2.81,2.81,0,1,0,0-1.87h-2a1,1,0,0,0-.66.27L46,22H44.47v-.93a2.8,2.8,0,1,0-5.6,0v2.8H34.11a4.69,4.69,0,0,0-4.58-3.74,4.62,4.62,0,0,0-3,1.16L17.85,14.7a4.66,4.66,0,1,0-4.18,2.63,4.57,4.57,0,0,0,3-1.16l8.64,6.6a4.64,4.64,0,0,0-.39,1.1H18.24a4.67,4.67,0,1,0-4.57,5.6,4.62,4.62,0,0,0,3-1.16l3.35,2.56-3.35,2.56a4.57,4.57,0,0,0-3-1.16,4.67,4.67,0,1,0,3,8.17L20.06,43l-3.35,2.56A4.64,4.64,0,1,0,18.24,50H25a4.42,4.42,0,0,0,.39,1.09l-8.64,6.6a4.62,4.62,0,0,0-3-1.16,4.71,4.71,0,1,0,4.18,2.64l8.64-6.59a4.62,4.62,0,0,0,3,1.15A4.68,4.68,0,0,0,34.11,50h4.76v1.87a2.8,2.8,0,1,0,5.6,0H46L56.87,62.79a.94.94,0,0,0,.66.28h2a2.81,2.81,0,1,0,0-1.87H57.92L47,50.27a.94.94,0,0,0-.66-.27H44.47V47.2h4.28l7.19,7.19a.91.91,0,0,0,.66.28h3a2.81,2.81,0,1,0,0-1.87H57l-7.2-7.19a.91.91,0,0,0-.66-.28H44.47v-2.8h8L55.94,46a.91.91,0,0,0,.66.28h3a2.81,2.81,0,1,0,0-1.87H57l-3.46-3.46a.93.93,0,0,0-.66-.27h-8.4v-2.8h15.1a2.81,2.81,0,1,0,0-1.87H44.47V33.2h8.4a1,1,0,0,0,.66-.27L57,29.47h2.58a2.81,2.81,0,1,0,0-1.87h-3a.94.94,0,0,0-.66.27l-3.46,3.46h-8v-2.8h4.66a.9.9,0,0,0,.66-.27L57,21.07h2.58a2.81,2.81,0,1,0,0-1.87h-3a.94.94,0,0,0-.66.27l-7.19,7.2H44.47v-2.8ZM62.2,10.8a.94.94,0,1,1-.93.93A.93.93,0,0,1,62.2,10.8Zm0,50.4a.94.94,0,1,1-.93.93A.93.93,0,0,1,62.2,61.2Zm0-8.4a.94.94,0,1,1-.93.93A.93.93,0,0,1,62.2,52.8Zm0-8.4a.94.94,0,1,1-.93.93A.93.93,0,0,1,62.2,44.4Zm0-8.4a.94.94,0,1,1-.93.93A.93.93,0,0,1,62.2,36Zm0-8.4a.94.94,0,1,1-.93.93A.93.93,0,0,1,62.2,27.6Zm0-8.4a.94.94,0,1,1-.93.93A.93.93,0,0,1,62.2,19.2ZM34.11,25.73h4.76V36H34.11a4.68,4.68,0,0,0-4.58-3.73,4.57,4.57,0,0,0-3,1.16l-3.35-2.56,3.35-2.56a4.62,4.62,0,0,0,3,1.16A4.69,4.69,0,0,0,34.11,25.73Zm-7.38,11.2a2.8,2.8,0,1,1,2.8,2.8A2.81,2.81,0,0,1,26.73,36.93ZM29.53,22a2.8,2.8,0,1,1-2.8,2.8A2.8,2.8,0,0,1,29.53,22ZM13.67,15.47a2.8,2.8,0,1,1,2.8-2.8A2.8,2.8,0,0,1,13.67,15.47Zm0,12.13a2.8,2.8,0,1,1,2.8-2.8A2.8,2.8,0,0,1,13.67,27.6Zm4.18-.77a4.64,4.64,0,0,0,.39-1.1H25a4.64,4.64,0,0,0,.39,1.1L21.6,29.69Zm7.5,8.08A4.42,4.42,0,0,0,25,36H18.24a4.42,4.42,0,0,0-.39-1.09L21.6,32ZM13.67,39.73a2.8,2.8,0,1,1,2.8-2.8A2.8,2.8,0,0,1,13.67,39.73ZM17.85,39a4.57,4.57,0,0,0,.39-1.09H25A4.57,4.57,0,0,0,25.35,39L21.6,41.83ZM25,48.13H18.24A4.57,4.57,0,0,0,17.85,47l3.75-2.86L25.35,47A4.57,4.57,0,0,0,25,48.13ZM13.67,51.87a2.8,2.8,0,1,1,2.8-2.8A2.8,2.8,0,0,1,13.67,51.87Zm0,12.13a2.8,2.8,0,1,1,2.8-2.8A2.8,2.8,0,0,1,13.67,64ZM29.53,51.87a2.8,2.8,0,1,1,2.8-2.8A2.81,2.81,0,0,1,29.53,51.87Zm4.58-3.74a4.69,4.69,0,0,0-4.58-3.73,4.62,4.62,0,0,0-3,1.16L23.14,43l3.35-2.56a4.62,4.62,0,0,0,3,1.16,4.69,4.69,0,0,0,4.58-3.73h4.76V48.13Zm8.49,3.74a.94.94,0,0,1-1.87,0V21.07a.94.94,0,1,1,1.87,0Z"></path><polygon id="Path" class="cls-1" points="35.13 28.53 37 28.53 37 30.4 35.13 30.4 35.13 28.53"></polygon><polygon id="Path-2" data-name="Path" class="cls-1" points="35.13 32.27 37 32.27 37 34.13 35.13 34.13 35.13 32.27"></polygon><polygon id="Path-3" data-name="Path" class="cls-1" points="35.13 39.73 37 39.73 37 41.6 35.13 41.6 35.13 39.73"></polygon><polygon id="Path-4" data-name="Path" class="cls-1" points="35.13 43.47 37 43.47 37 45.33 35.13 45.33 35.13 43.47"></polygon></g></g></svg> 