<?xml version="1.0" encoding="UTF-8"?> <svg xmlns="http://www.w3.org/2000/svg" xmlns:xlink="http://www.w3.org/1999/xlink" width="90" height="90" viewBox="0 0 90 90"><defs><clipPath id="clip-path"><rect id="Rectangle_2" data-name="Rectangle 2" width="90" height="90" transform="translate(741 268)" fill="#2e3b60" stroke="#fff" stroke-width="0.4"></rect></clipPath></defs><g id="Mask_Group_4" data-name="Mask Group 4" transform="translate(-741 -268)" clip-path="url(#clip-path)"><g id="Group_2" data-name="Group 2" transform="translate(40.884 -297.78)"><path id="Path_19" data-name="Path 19" d="M192.713,47.981H191.4V46.674a1.308,1.308,0,0,0-1.308-1.308h-2.615a25.052,25.052,0,0,0,.729-2.615h3.2a1.308,1.308,0,0,0,1.308-1.308V33.6a1.308,1.308,0,0,0-1.308-1.308h-3.2a24.449,24.449,0,0,0-3.4-8.239l2.256-2.256a1.308,1.308,0,0,0,0-1.849L181.512,14.4a1.308,1.308,0,0,0-1.849,0l-2.251,2.256a24.524,24.524,0,0,0-8.239-3.4v-3.2a1.308,1.308,0,0,0-1.308-1.308H160.02a1.308,1.308,0,0,0-1.308,1.308v3.193a24.524,24.524,0,0,0-8.239,3.4l-2.25-2.249a1.346,1.346,0,0,0-1.849,0l-5.549,5.549a1.308,1.308,0,0,0,0,1.849l2.256,2.251a24.441,24.441,0,0,0-3.4,8.239h-3.2a1.308,1.308,0,0,0-1.308,1.308v7.846a1.308,1.308,0,0,0,1.308,1.308h3.2a25.04,25.04,0,0,0,.729,2.615H137.79a1.308,1.308,0,0,0-1.308,1.308v1.308h-1.308A3.923,3.923,0,0,0,131.25,51.9v34a3.923,3.923,0,0,0,3.923,3.923h57.539a3.923,3.923,0,0,0,3.923-3.923v-34a3.923,3.923,0,0,0-3.923-3.923Zm-42.352-2.615a15.693,15.693,0,1,1,27.164,0h-3.06c.138-.228.271-.458.419-.682a13.077,13.077,0,1,0-21.862.028c.142.216.269.436.4.654Zm4.839-2.092a10.465,10.465,0,1,1,17.5-.026,22.6,22.6,0,0,0-2.379,4.734H157.575a22.115,22.115,0,0,0-2.372-4.708Zm14.007,9.939H158.679a18.283,18.283,0,0,0-.357-2.615h11.246a18.193,18.193,0,0,0-.362,2.615Zm-.841,2.615-1.308,2.615h-6.23l-1.308-2.615Zm-3.115,5.231h2.615a1.307,1.307,0,0,0,1.177-.723l2.615-5.231h-.013a1.279,1.279,0,0,0,.144-.584v-.242a16.322,16.322,0,0,1,1.336-6.3H188.79v34H172.574a16.81,16.81,0,0,0-7.323,1.683Zm-23.2-19.832a1.307,1.307,0,0,0-1.289-1.091h-2.969V34.9h2.969a1.307,1.307,0,0,0,1.289-1.091,21.949,21.949,0,0,1,3.792-9.154,1.307,1.307,0,0,0-.14-1.683l-2.092-2.092,3.7-3.7,2.092,2.092a1.307,1.307,0,0,0,1.681.14,21.971,21.971,0,0,1,9.154-3.792,1.308,1.308,0,0,0,1.093-1.291V11.366h5.231v2.969a1.307,1.307,0,0,0,1.091,1.289,21.978,21.978,0,0,1,9.154,3.792,1.308,1.308,0,0,0,1.682-.14l2.092-2.092,3.7,3.7-2.092,2.092a1.308,1.308,0,0,0-.14,1.683,21.949,21.949,0,0,1,3.792,9.154,1.307,1.307,0,0,0,1.292,1.092H190.1v5.231h-2.969a1.307,1.307,0,0,0-1.289,1.091,22.33,22.33,0,0,1-1.151,4.14h-4.209a18.307,18.307,0,1,0-33.071,0H143.2a22.235,22.235,0,0,1-1.151-4.14Zm-2.95,6.756h15.672a16.3,16.3,0,0,1,1.329,6.294v.245a1.27,1.27,0,0,0,.151.579h-.013l2.615,5.231h0a1.308,1.308,0,0,0,1.171.729h2.615v22.6a16.81,16.81,0,0,0-7.323-1.683H139.1Zm54.924,37.924a1.308,1.308,0,0,1-1.308,1.308H135.174a1.308,1.308,0,0,1-1.308-1.308v-34a1.308,1.308,0,0,1,1.308-1.308h1.308V83.29A1.308,1.308,0,0,0,137.79,84.6h17.523a14.221,14.221,0,0,1,7.912,2.4,1.308,1.308,0,0,0,1.451,0,14.229,14.229,0,0,1,7.9-2.4H190.1a1.308,1.308,0,0,0,1.308-1.308V50.6h1.308a1.308,1.308,0,0,1,1.308,1.308Z" transform="translate(580.866 561.03)" fill="#1b54f8" stroke="#fff" stroke-width="0.6"></path><path id="Path_20" data-name="Path 20" d="M201.25,376.25h15.693v2.615H201.25Z" transform="translate(521.328 248.454)" fill="#1b54f8" stroke="#fff" stroke-width="0.6"></path><path id="Path_21" data-name="Path 21" d="M218.75,341.25h10.462v2.615H218.75Z" transform="translate(506.443 278.223)" fill="#1b54f8" stroke="#fff" stroke-width="0.6"></path><path id="Path_22" data-name="Path 22" d="M411.25,341.25h10.462v2.615H411.25Z" transform="translate(342.713 278.223)" fill="#1b54f8" stroke="#fff" stroke-width="0.6"></path><path id="Path_23" data-name="Path 23" d="M201.25,411.25h15.693v2.615H201.25Z" transform="translate(521.328 218.685)" fill="#1b54f8" stroke="#fff" stroke-width="0.6"></path><path id="Path_24" data-name="Path 24" d="M201.25,446.25h15.693v2.615H201.25Z" transform="translate(521.328 188.916)" fill="#1b54f8" stroke="#fff" stroke-width="0.6"></path><path id="Path_25" data-name="Path 25" d="M393.75,376.25h15.693v2.615H393.75Z" transform="translate(357.597 248.454)" fill="#1b54f8" stroke="#fff" stroke-width="0.6"></path><path id="Path_26" data-name="Path 26" d="M393.75,411.25h15.693v2.615H393.75Z" transform="translate(357.597 218.685)" fill="#1b54f8" stroke="#fff" stroke-width="0.6"></path><path id="Path_27" data-name="Path 27" d="M393.75,446.25h15.693v2.615H393.75Z" transform="translate(357.597 188.916)" fill="#1b54f8" stroke="#fff" stroke-width="0.6"></path><path id="Path_28" data-name="Path 28" d="M355.231,156.6h2.615A7.853,7.853,0,0,0,350,148.75v2.615a5.23,5.23,0,0,1,5.231,5.232Z" transform="translate(394.809 441.954)" fill="#1b54f8" stroke="#fff" stroke-width="0.6"></path></g></g></svg> 