<?xml version="1.0" encoding="UTF-8"?> <svg xmlns="http://www.w3.org/2000/svg" width="90" height="90" viewBox="0 0 90 90"><g id="Group_1721" data-name="Group 1721" transform="translate(0.249)"><rect id="Rectangle_594" data-name="Rectangle 594" width="90" height="90" transform="translate(-0.249)" fill="#bcbcbc" opacity="0"></rect><path id="Path_1735" data-name="Path 1735" d="M130.981,53.294h-8V41.572a.607.607,0,0,0-.606-.606H102.011V32.6h8a.607.607,0,0,0,.606-.606V14.772a.607.607,0,0,0-.606-.606H92.794a.607.607,0,0,0-.606.606V31.993a.607.607,0,0,0,.606.606h8v8.366H80.438a.607.607,0,0,0-.606.606V53.293h-8a.607.607,0,0,0-.606.606V71.121a.607.607,0,0,0,.606.606H89.049a.607.607,0,0,0,.606-.606V53.9a.607.607,0,0,0-.606-.606h-8V42.177h40.719V53.293h-8a.607.607,0,0,0-.606.606V71.12a.607.607,0,0,0,.606.606h17.22a.607.607,0,0,0,.606-.606V53.9a.605.605,0,0,0-.605-.606ZM93.4,15.378h16.007V31.387H93.4ZM88.442,70.516H72.434V54.508H88.442Zm41.932,0H114.366V54.508h16.007V70.516Z" transform="translate(-57.096 2.335)" fill="#1b54f8" stroke="#1b54f8" stroke-width="1"></path></g></svg> 