<?xml version="1.0" encoding="UTF-8"?> <svg xmlns="http://www.w3.org/2000/svg" width="90" height="90" viewBox="0 0 90 90"><g id="Group_772" data-name="Group 772" transform="translate(-3783 -1000)"><rect id="Rectangle_79" data-name="Rectangle 79" width="90" height="90" transform="translate(3783 1000)" fill="#bcbcbc" opacity="0"></rect><g id="Group_143" data-name="Group 143" transform="translate(37.452 156.362)"><path id="Path_29" data-name="Path 29" d="M182.636,37.965A5.014,5.014,0,1,0,178.61,35.9L154.565,59.83a6.535,6.535,0,0,0-6.586-.906L137.65,40.7a3.41,3.41,0,1,0-2.311.912,3.367,3.367,0,0,0,.961-.154l10.336,18.238a6.562,6.562,0,0,0-1.836,2.074l-11.479-4.731c0-.036.012-.071.012-.108a2.326,2.326,0,1,0-.6,1.539L144.213,63.2a6.433,6.433,0,0,0,.169,4.036l-17.757,9.127a4.071,4.071,0,1,0,.708,1.377l17.751-9.121a6.514,6.514,0,0,0,6.937,2.7l7.987,21.764a4.747,4.747,0,1,0,1.447-.552l-7.98-21.743a6.573,6.573,0,0,0,2.895-2.924l19.146,6.809a3.9,3.9,0,1,0,.517-1.46l-19.144-6.807a6.576,6.576,0,0,0,.167-1.446,6.509,6.509,0,0,0-.221-1.656l14.473-5.694a2.077,2.077,0,1,0-.57-1.438l-14.464,5.687a6.709,6.709,0,0,0-.615-.933L179.7,37a4.94,4.94,0,0,0,2.933.971ZM150.511,69.321a4.363,4.363,0,1,1,4.363-4.362A4.362,4.362,0,0,1,150.511,69.321Zm0-6.543a2.181,2.181,0,1,0,2.181,2.182A2.182,2.182,0,0,0,150.511,62.778Z" transform="translate(3636.861 823.638)" fill="#1b54f8"></path></g></g></svg> 