<?xml version="1.0" encoding="UTF-8"?> <svg xmlns="http://www.w3.org/2000/svg" id="Layer_1" data-name="Layer 1" viewBox="0 0 80 80"><defs><style>.cls-1{fill:#1b54f8;}</style></defs><path class="cls-1" d="M51.3,50.9l-1.1-4.3c0-.1-.1-.1-.1-.2L43.7,40l.9-.9a1.09,1.09,0,0,1,.9-.4A5,5,0,0,0,51,34.3a5.46,5.46,0,0,0-.1-1.8.55.55,0,0,0-.5-.3c-.1,0-.1.1-.2.1L47.6,35l-2.2-.5-.5-2.2,2.7-2.7a.45.45,0,0,0,0-.5.35.35,0,0,0-.2-.1,5,5,0,0,0-6.1,3.5,3.67,3.67,0,0,0-.1,1.8,1.09,1.09,0,0,1-.4.9l-.8,1-6.7-6.8a2.78,2.78,0,0,0-3.8,0,2.69,2.69,0,0,0,0,3.8l6.8,6.7-.9.9a1.09,1.09,0,0,1-.9.4A5,5,0,0,0,29,45.6a5.46,5.46,0,0,0,.1,1.8.55.55,0,0,0,.5.3c.1,0,.1-.1.2-.1l2.7-2.7,2.2.5.5,2.2-2.7,2.7a.45.45,0,0,0,0,.5.35.35,0,0,0,.2.1,5,5,0,0,0,6.1-3.5,3.67,3.67,0,0,0,.1-1.8,1.09,1.09,0,0,1,.4-.9l.9-.9,6.4,6.4a.35.35,0,0,0,.2.1l4.3,1.1h.1a2,2,0,0,0,.1-.5ZM48.5,50,47,49.6V48.2l.9.2c.2,0,.4-.1.4-.3V48l-.1-1h1.4l.4,1.5A2.76,2.76,0,0,0,48.5,50Zm-1.1-3.2.1.7-.7-.1L34,34.6l.5-.5Zm-6-11a2.27,2.27,0,0,0,.6-1.6,4.1,4.1,0,0,1,3.7-4.6h.9l-2.3,2.3a.37.37,0,0,0-.1.3l.5,2.7a.27.27,0,0,0,.3.3l2.7.5c.1,0,.3,0,.3-.1l2.3-2.3a4.25,4.25,0,0,1-3.8,4.6h-.9a1.91,1.91,0,0,0-1.6.6l-.9.9L42,38.3h0l1.5-1.5a.45.45,0,0,0,0-.5.45.45,0,0,0-.5,0l-1.5,1.5h0l-1.1-1.1Zm-5.8-2.9L49,46.3H47.9L35.1,33.5ZM30,32.7A1.91,1.91,0,0,1,32.7,30h0l.8.8-2.7,2.7ZM31.3,34,34,31.3l1.1,1.1-2.7,2.7Zm7.2,10.1a2.27,2.27,0,0,0-.6,1.6,4.1,4.1,0,0,1-3.7,4.6h-.9L35.6,48a.37.37,0,0,0,.1-.3L35.2,45a.27.27,0,0,0-.3-.3l-2.7-.5c-.1,0-.3,0-.3.1l-2.3,2.3A4.25,4.25,0,0,1,33.4,42h.9a1.91,1.91,0,0,0,1.6-.6l.9-.9,1.1,1.1h0l-1.5,1.5a.35.35,0,0,0,.5.5h0l1.5-1.5h0l1.1,1.1Zm-5.6-8.5.5-.5L46.2,47.9V49ZM49.3,50.1a2,2,0,0,1,.9-.9l.3,1.2Z"></path><path class="cls-1" d="M63.3,27.4a4.12,4.12,0,0,0-4.1-4.1,3.93,3.93,0,0,0-2.9,1.3L40.5,15.5a.91.91,0,0,0-1,0L23.7,24.6a3.93,3.93,0,0,0-2.9-1.3,4.12,4.12,0,0,0-4.1,4.1,4,4,0,0,0,3.1,3.9V49.6a.89.89,0,0,0,.5.8l15.8,9.1a4.25,4.25,0,0,0-.2,1.1,4.1,4.1,0,1,0,8.2,0,3.59,3.59,0,0,0-.2-1.1l15.8-9.1a1,1,0,0,0,.5-.8V31.3A4,4,0,0,0,63.3,27.4Zm-44.7,0a2.1,2.1,0,1,1,2.1,2.1A2.18,2.18,0,0,1,18.6,27.4ZM40,62.8a2.1,2.1,0,1,1,2.1-2.1A2.11,2.11,0,0,1,40,62.8Zm2.9-4.9a3.88,3.88,0,0,0-5.8,0L21.7,49V31.3a4,4,0,0,0,3.1-3.9,3.59,3.59,0,0,0-.2-1.1L40,17.4l15.3,8.9a4.25,4.25,0,0,0-.2,1.1,4,4,0,0,0,3.1,3.9V49ZM59.2,29.5a2.1,2.1,0,1,1,2.1-2.1A2,2,0,0,1,59.2,29.5Z"></path></svg> 