<?xml version="1.0" encoding="UTF-8"?> <svg xmlns="http://www.w3.org/2000/svg" xmlns:xlink="http://www.w3.org/1999/xlink" width="148" height="148" viewBox="0 0 148 148"><defs><clipPath id="clip-path"><rect id="Rectangle_26" data-name="Rectangle 26" width="148" height="148" transform="translate(1612 707)" fill="#fff" opacity="0.9"></rect></clipPath></defs><g id="Mask_Group_6" data-name="Mask Group 6" transform="translate(-1612 -707)" clip-path="url(#clip-path)"><g id="Group_36" data-name="Group 36" transform="translate(1638.311 711.933)"><path id="Path_92" data-name="Path 92" d="M304.034,533.75a2.164,2.164,0,0,0-2.164,2.164v2.164a2.164,2.164,0,1,0,4.329,0v-2.164A2.164,2.164,0,0,0,304.034,533.75Z" transform="translate(-265.079 -401.73)" fill="#05f" stroke="#fff" stroke-width="1"></path><path id="Path_93" data-name="Path 93" d="M381.644,533.75a2.164,2.164,0,0,0-2.164,2.164v2.164a2.164,2.164,0,1,0,4.329,0v-2.164A2.164,2.164,0,0,0,381.644,533.75Z" transform="translate(-323.492 -401.73)" fill="#05f" stroke="#fff" stroke-width="1"></path><path id="Path_94" data-name="Path 94" d="M154.935,55.663l10.6,1.765a36.856,36.856,0,0,0,4.453,10.76l-6.244,8.744h0a2.164,2.164,0,0,0,.231,2.788l6.825,6.825a2.161,2.161,0,0,0,2.788.232l7.36-5.254-.841-4.719-7.543,5.385-4.232-4.234,6.029-8.445a2.163,2.163,0,0,0,.036-2.462,32.681,32.681,0,0,1-4.938-11.931,2.163,2.163,0,0,0-1.768-1.717l-10.237-1.705V45.7L167.691,44a2.163,2.163,0,0,0,1.768-1.717A32.674,32.674,0,0,1,174.4,30.351a2.165,2.165,0,0,0-.036-2.463l-6.029-8.446,4.232-4.232,8.446,6.029a2.162,2.162,0,0,0,2.462.036A32.632,32.632,0,0,1,195.4,16.338a2.163,2.163,0,0,0,1.717-1.768l1.7-10.238h5.993l1.7,10.238a2.163,2.163,0,0,0,1.717,1.768,32.631,32.631,0,0,1,11.932,4.937,2.161,2.161,0,0,0,2.462-.036l8.446-6.029,4.232,4.232-6.028,8.446a2.165,2.165,0,0,0-.036,2.463,32.674,32.674,0,0,1,4.938,11.931A2.163,2.163,0,0,0,235.952,44L246.189,45.7v5.99L235.952,53.4a2.163,2.163,0,0,0-1.768,1.717,32.68,32.68,0,0,1-4.938,11.931,2.163,2.163,0,0,0,.036,2.462l6.029,8.445-4.232,4.234-7.5-5.352-.841,4.719,7.314,5.221h0a2.162,2.162,0,0,0,2.788-.231l6.824-6.826a2.163,2.163,0,0,0,.232-2.788l-6.244-8.745a36.855,36.855,0,0,0,4.453-10.76l10.6-1.765h0a2.163,2.163,0,0,0,1.809-2.134V43.87a2.163,2.163,0,0,0-1.809-2.134l-10.6-1.765a36.88,36.88,0,0,0-4.453-10.76l6.244-8.745a2.163,2.163,0,0,0-.232-2.788l-6.824-6.825a2.163,2.163,0,0,0-2.788-.231l-8.745,6.243h0a36.87,36.87,0,0,0-10.761-4.452l-1.764-10.6A2.165,2.165,0,0,0,206.651,0h-9.658a2.165,2.165,0,0,0-2.135,1.809l-1.764,10.6a36.871,36.871,0,0,0-10.761,4.452l-8.745-6.242a2.163,2.163,0,0,0-2.788.231l-6.824,6.825a2.163,2.163,0,0,0-.232,2.788l6.243,8.745a36.855,36.855,0,0,0-4.453,10.76l-10.6,1.765h0a2.163,2.163,0,0,0-1.809,2.134v9.658a2.163,2.163,0,0,0,1.81,2.134Z" transform="translate(-153.126 -0.003)" fill="#05f" stroke="#fff" stroke-width="1"></path><path id="Path_95" data-name="Path 95" d="M306.208,496.084a2.164,2.164,0,1,0-4.329,0v3.582a2.164,2.164,0,0,0,4.329,0Z" transform="translate(-265.086 -371.752)" fill="#05f" stroke="#fff" stroke-width="1"></path><path id="Path_96" data-name="Path 96" d="M306.208,456.966a2.156,2.156,0,0,0-1.072-1.859h-1.248a6.376,6.376,0,0,1-.8-.071,2.157,2.157,0,0,0-1.2,1.931v3.583a2.164,2.164,0,0,0,4.329,0Z" transform="translate(-265.086 -342.485)" fill="#05f" stroke="#fff" stroke-width="1"></path><path id="Path_97" data-name="Path 97" d="M383.809,496.084a2.164,2.164,0,1,0-4.329,0v3.582a2.164,2.164,0,0,0,4.329,0Z" transform="translate(-323.492 -371.752)" fill="#05f" stroke="#fff" stroke-width="1"></path><path id="Path_98" data-name="Path 98" d="M383.809,457.045a2.155,2.155,0,0,0-1.157-1.9c-.173.014-.341.046-.517.046h-1.582a2.156,2.156,0,0,0-1.073,1.859v3.583a2.164,2.164,0,0,0,4.329,0Z" transform="translate(-323.492 -342.564)" fill="#05f" stroke="#fff" stroke-width="1"></path><path id="Path_99" data-name="Path 99" d="M345.578,455.33H341.25v8.576a2.164,2.164,0,1,0,4.328,0Z" transform="translate(-294.718 -342.707)" fill="#05f" stroke="#fff" stroke-width="1"></path><path id="Path_100" data-name="Path 100" d="M224.06,180.441v7.726A2.164,2.164,0,0,0,227.2,190.1l18.695-9.426h18.634l18.695,9.426a2.163,2.163,0,0,0,3.138-1.932v-7.726c0-11.942-6.032-19.983-15.571-21.216l2.576-14.462h0a56.51,56.51,0,0,0,.139-20,39.27,39.27,0,0,0-6.361-15.9l-7.181-10.244a5.775,5.775,0,0,0-9.455,0l-7.181,10.244h0a39.213,39.213,0,0,0-6.36,15.9,56.456,56.456,0,0,0,.139,20l2.574,14.455c-9.568,1.211-15.62,9.26-15.62,21.224Zm40.233-9.424-.949,5.329H247.127l-.949-5.329Zm17.739,9.424v4.212L267.6,177.377l1.257-7.325,1.172-6.579c8.8,1,12,9.234,12,16.967Zm-27.98-79.334a1.446,1.446,0,0,1,2.366,0l4.793,6.838H249.261Zm-12.827,24.429a35.536,35.536,0,0,1,5.041-13.264h17.94a35.53,35.53,0,0,1,5.04,13.264A52.226,52.226,0,0,1,269.105,144l-2.918,16.379h0a2.124,2.124,0,0,0-.136.455l-1,5.849H257.4V154.366a2.164,2.164,0,0,0-4.329,0v12.323h-7.664l-.924-5.185-.114-.665c0-.017-.01-.033-.014-.049L241.368,144A52.225,52.225,0,0,1,241.226,125.536Zm-.8,37.928,2.387,13.91-14.428,7.275v-4.212c0-7.745,3.2-15.99,12.042-16.973Z" transform="translate(-206.515 -72.379)" fill="#05f" stroke="#fff" stroke-width="1"></path><path id="Path_101" data-name="Path 101" d="M322.916,211.725a8.94,8.94,0,1,0-6.312-2.616,8.927,8.927,0,0,0,6.312,2.616Zm0-13.52h0a4.605,4.605,0,1,1-3.253,1.346,4.6,4.6,0,0,1,3.253-1.346Z" transform="translate(-274.196 -145.922)" fill="#05f" stroke="#fff" stroke-width="1"></path><path id="Path_102" data-name="Path 102" d="M343.414,525a2.164,2.164,0,0,0-2.164,2.164v4.329a2.164,2.164,0,1,0,4.328,0v-4.329A2.164,2.164,0,0,0,343.414,525Z" transform="translate(-294.718 -395.144)" fill="#05f" stroke="#fff" stroke-width="1"></path></g></g></svg> 