<?xml version="1.0" encoding="UTF-8"?> <svg xmlns="http://www.w3.org/2000/svg" xmlns:xlink="http://www.w3.org/1999/xlink" width="90" height="90" viewBox="0 0 90 90"><defs><clipPath id="clip-path"><rect id="Rectangle_16" data-name="Rectangle 16" width="90" height="90" transform="translate(72 498)" fill="#fff" stroke="#707070" stroke-width="1"></rect></clipPath></defs><g id="Mask_Group_9" data-name="Mask Group 9" transform="translate(-72 -498)" clip-path="url(#clip-path)"><g id="Group_23" data-name="Group 23" transform="translate(-152.007 33)"><path id="Path_29" data-name="Path 29" d="M74.523,53.988a1.18,1.18,0,0,0-1.18,1.18V80.879a1.18,1.18,0,0,0,1.18,1.18h8.228a1.18,1.18,0,0,0,1.18-1.18V78.286a8.269,8.269,0,0,0,8.228-8.259V66.191a8.27,8.27,0,0,0-8.228-8.259V55.168a1.18,1.18,0,0,0-1.18-1.18H81.7V51.738a24.963,24.963,0,0,0-1.833-9.448H90.98a1.18,1.18,0,0,0,1.18-1.18V18.1a1.18,1.18,0,0,0-1.18-1.18h-43.2A1.18,1.18,0,0,0,46.6,18.1V28.6a25.127,25.127,0,0,0-15.255,23.14v2.248H28.415a1.18,1.18,0,0,0-1.18,1.18v2.592a8.269,8.269,0,0,0-8.228,8.259v3.837a8.269,8.269,0,0,0,8.228,8.259v2.764a1.18,1.18,0,0,0,1.18,1.18h2.42v2.805a7.832,7.832,0,0,0,7.823,7.823h6.576V93.82A1.18,1.18,0,0,0,46.413,95h7.714a1.18,1.18,0,0,0,1.18-1.18V89.449a1.18,1.18,0,0,0-1.18-1.18H46.413a1.18,1.18,0,0,0-1.18,1.18v.877H38.657a5.468,5.468,0,0,1-5.462-5.462V82.059h3.448a1.18,1.18,0,0,0,1.18-1.18V55.167a1.18,1.18,0,0,0-1.18-1.18H33.709V51.738A22.763,22.763,0,0,1,46.6,31.2v9.912a1.18,1.18,0,0,0,1.18,1.18h7.562v7.276a1.179,1.179,0,0,0,.912,1.149,1.163,1.163,0,0,0,.269.031,1.181,1.181,0,0,0,1.057-.657l3.857-7.8H77.3a22.615,22.615,0,0,1,2.048,9.448v2.249ZM89.8,66.191v3.836a5.907,5.907,0,0,1-5.867,5.9V60.29A5.908,5.908,0,0,1,89.8,66.191ZM27.234,75.756a5.907,5.907,0,0,1-5.867-5.9V66.018a5.907,5.907,0,0,1,5.867-5.9ZM47.593,90.629h5.353V92.64H47.593ZM35.462,56.347V79.7H29.595V56.347ZM60.708,39.931a1.181,1.181,0,0,0-1.058.657l-1.944,3.931V41.111a1.18,1.18,0,0,0-1.18-1.18H48.964V19.279H89.8V39.931ZM81.571,56.348V59.11h0V79.7H75.7V56.348Z" transform="translate(213 454.081)" fill="#1c54f8"></path><path id="Path_30" data-name="Path 30" d="M77.58,23.019H50.325a1.18,1.18,0,0,0,0,2.36H77.58a1.18,1.18,0,1,0,0-2.36Z" transform="translate(218.429 455.18)" fill="#1c54f8"></path><path id="Path_31" data-name="Path 31" d="M77.58,29.482H50.325a1.18,1.18,0,0,0,0,2.36H77.58a1.18,1.18,0,1,0,0-2.36Z" transform="translate(218.429 456.344)" fill="#1c54f8"></path></g></g></svg> 