<?xml version="1.0" encoding="UTF-8"?> <!-- Generator: Adobe Illustrator 25.2.3, SVG Export Plug-In . SVG Version: 6.00 Build 0) --> <svg xmlns="http://www.w3.org/2000/svg" xmlns:xlink="http://www.w3.org/1999/xlink" version="1.1" id="Layer_1" x="0px" y="0px" viewBox="0 0 80 80" style="enable-background:new 0 0 80 80;" xml:space="preserve"> <style type="text/css"> .st0{fill:#1B54F8;stroke:#FFFFFF;stroke-width:0.45;} </style> <desc>Created with Sketch.</desc> <g id="Dependable-Software"> <g id="Group" transform="translate(12.000000, 16.000000)"> <path id="Shape" class="st0" d="M18,25.8c-2.1,0-3.8,1.7-3.8,3.8s1.7,3.8,3.8,3.8s3.8-1.7,3.8-3.8S20.1,25.8,18,25.8z M18,31.1 c-0.8,0-1.5-0.6-1.5-1.5c0-0.8,0.6-1.5,1.5-1.5c0.8,0,1.5,0.6,1.5,1.5C19.5,30.4,18.9,31.1,18,31.1z"></path> <path id="Shape_1_" class="st0" d="M47.1,17.2h-23c-0.6,0-1.2,0.5-1.2,1.2v1.9c-1.5-0.8-3.2-1.3-5-1.3C12.2,19,7.4,23.7,7.4,29.6 S12.2,40.1,18,40.1c1.8,0,3.5-0.5,5-1.3v1.9c0,0.6,0.5,1.2,1.2,1.2h23c0.6,0,1.2-0.5,1.2-1.2V18.3C48.3,17.7,47.7,17.2,47.1,17.2z M18,37.9c-4.6,0-8.3-3.7-8.3-8.3s3.7-8.3,8.3-8.3c1.9,0,3.6,0.6,5,1.7v13.3C21.6,37.2,19.9,37.9,18,37.9z M45.9,39.7H25.3V19.5 h20.6V39.7z"></path> <path id="Path" class="st0" d="M30.5,33.2c0.2,0.2,0.5,0.3,0.8,0.3c0.3,0,0.6-0.1,0.8-0.3c0.5-0.5,0.5-1.2,0-1.6l-2.2-2.2l2.2-2.2 c0.5-0.5,0.5-1.2,0-1.6s-1.2-0.5-1.6,0l-3,3c-0.2,0.2-0.3,0.5-0.3,0.8c0,0.3,0.1,0.6,0.3,0.8L30.5,33.2z"></path> <path id="Path_1_" class="st0" d="M39.1,33.2c0.2,0.2,0.5,0.3,0.8,0.3s0.6-0.1,0.8-0.3l3-3c0.2-0.2,0.3-0.5,0.3-0.8 c0-0.3-0.1-0.6-0.3-0.8l-3-3c-0.5-0.5-1.2-0.5-1.6,0s-0.5,1.2,0,1.6l2.2,2.2l-2.2,2.2C38.7,32.1,38.7,32.8,39.1,33.2z"></path> <path id="Path_2_" class="st0" d="M34.3,35c0.1,0,0.2,0.1,0.3,0.1c0.5,0,1-0.3,1.1-0.9l2-8.5c0.1-0.6-0.2-1.2-0.9-1.4 c-0.6-0.2-1.2,0.2-1.4,0.9l-2,8.5C33.3,34.2,33.8,34.8,34.3,35z"></path> <circle id="Oval" class="st0" cx="6.8" cy="6.4" r="1.4"></circle> <circle id="Oval_1_" class="st0" cx="11" cy="6.4" r="1.4"></circle> <circle id="Oval_2_" class="st0" cx="15.1" cy="6.4" r="1.4"></circle> <path id="Shape_2_" class="st0" d="M53.2,0.1H2.5c-1.2,0-2.2,1-2.2,2.2v44.3c0,1.2,1,2.2,2.2,2.2h50.7c1.2,0,2.2-1,2.2-2.2V2.3 C55.4,1,54.4,0.1,53.2,0.1z M53.1,2.3v8.2H2.5V2.3L53.1,2.3z M2.6,46.5L2.5,12.8h50.6v33.6L2.6,46.5z"></path> </g> </g> </svg> 