<?xml version="1.0" encoding="UTF-8"?> <!-- Generator: Adobe Illustrator 25.2.3, SVG Export Plug-In . SVG Version: 6.00 Build 0) --> <svg xmlns="http://www.w3.org/2000/svg" xmlns:xlink="http://www.w3.org/1999/xlink" version="1.1" id="Layer_1" x="0px" y="0px" viewBox="0 0 94 94" style="enable-background:new 0 0 94 94;" xml:space="preserve"> <style type="text/css"> .st0{fill:#E6EEFF;} .st1{fill:#1B54F8;} </style> <desc>Created with Sketch.</desc> <path class="st0" d="M87.5,93.5h-81c-3.3,0-6-2.7-6-6v-81c0-3.3,2.7-6,6-6h81c3.3,0,6,2.7,6,6v81C93.5,90.8,90.8,93.5,87.5,93.5z"></path> <g> <path class="st1" d="M33.3,34.4l2.4,0.8c0.2,0.6,0.5,1.2,0.7,1.9l-1.1,2.2c-0.2,0.4-0.1,0.8,0.2,1.1l2.9,2.9 c0.3,0.3,0.7,0.4,1.1,0.2l2.2-1.1c0.6,0.3,1.2,0.6,1.9,0.7l0.8,2.4c0.1,0.4,0.5,0.6,0.8,0.6h4.1c0.4,0,0.7-0.3,0.9-0.6l0.8-2.4 c0.6-0.2,1.2-0.5,1.9-0.7l2.2,1.1c0.4,0.2,0.8,0.1,1.1-0.2l2.9-2.9c0.3-0.3,0.4-0.7,0.2-1.1l-1.1-2.2c0.3-0.6,0.6-1.2,0.7-1.9 l2.4-0.8c0.4-0.1,0.6-0.5,0.6-0.9v-4.1c0-0.4-0.3-0.7-0.6-0.9L59,27.9c-0.2-0.6-0.5-1.3-0.7-1.9l1.1-2.2c0.2-0.4,0.1-0.7-0.2-1.1 l-3-3c-0.3-0.3-0.7-0.4-1.1-0.2l-2.2,1.1c-0.6-0.3-1.2-0.6-1.9-0.7l-0.8-2.4c-0.1-0.4-0.5-0.6-0.9-0.6h-4.1c-0.4,0-0.7,0.3-0.8,0.6 l-0.8,2.4c-0.6,0.2-1.2,0.5-1.9,0.7l-2.1-1c-0.4-0.2-0.8-0.1-1.1,0.2l-2.9,2.9c-0.3,0.3-0.4,0.7-0.2,1.1l1.1,2.2 c-0.3,0.6-0.6,1.2-0.7,1.9l-2.4,0.8c-0.4,0.1-0.6,0.5-0.6,0.9v4.1C32.8,34,33,34.4,33.3,34.4z M47.3,25.6c3.2,0,5.8,2.6,5.8,5.8 s-2.6,5.8-5.8,5.8s-5.8-2.6-5.8-5.8C41.5,28.3,44.1,25.6,47.3,25.6z"></path> <path class="st1" d="M74.8,53.5H64.5v-3.1c0-0.5-0.5-0.9-0.9-0.9H48.3V48h-1.9v1.5H31.1c-0.6,0-0.9,0.5-0.9,0.9v3.1H19.1 c-0.5,0-0.9,0.5-0.9,0.9v21.8c0,0.6,0.5,0.9,0.9,0.9h21.1c0.5,0,0.9-0.4,0.9-0.9V54.5c0-0.5-0.5-0.9-0.9-0.9h-8.1v-2.2h30.6v2.2 h-8.9c-0.5,0-0.9,0.5-0.9,0.9v21.8c0,0.6,0.5,0.9,0.9,0.9h21.1c0.5,0,0.9-0.4,0.9-0.9V54.5C75.8,54,75.4,53.5,74.8,53.5z M34.6,71.8H24.5c-0.6,0-0.9-0.4-0.9-0.9S24,70,24.5,70h10c0.6,0,0.9,0.4,0.9,0.9C35.6,71.4,35.1,71.8,34.6,71.8z M34.6,66.2H24.5 c-0.6,0-0.9-0.4-0.9-0.9c0-0.6,0.4-0.9,0.9-0.9h10c0.6,0,0.9,0.4,0.9,0.9C35.6,65.9,35.1,66.2,34.6,66.2z M34.6,58.9 c0.6,0,0.9,0.4,0.9,0.9s-0.4,0.9-0.9,0.9h-5c-0.6,0-0.9-0.4-0.9-0.9s0.4-0.9,0.9-0.9H34.6z M69.4,71.8H59.3c-0.6,0-0.9-0.4-0.9-0.9 s0.4-0.9,0.9-0.9h10c0.6,0,0.9,0.4,0.9,0.9C70.3,71.4,69.8,71.8,69.4,71.8z M69.4,66.2H59.3c-0.6,0-0.9-0.4-0.9-0.9 c0-0.6,0.4-0.9,0.9-0.9h10c0.6,0,0.9,0.4,0.9,0.9C70.3,65.9,69.8,66.2,69.4,66.2z M69.4,60.8h-5c-0.6,0-0.9-0.4-0.9-0.9 s0.4-0.9,0.9-0.9h5c0.6,0,0.9,0.4,0.9,0.9C70.3,60.3,69.8,60.8,69.4,60.8z"></path> </g> </svg> 