<?xml version="1.0" encoding="UTF-8"?> <svg xmlns="http://www.w3.org/2000/svg" xmlns:xlink="http://www.w3.org/1999/xlink" width="90" height="90" viewBox="0 0 90 90"><defs><clipPath id="clip-path"><rect id="Rectangle_71" data-name="Rectangle 71" width="90" height="90" transform="translate(788 45)" fill="#fff" stroke="#707070" stroke-width="1"></rect></clipPath></defs><g id="Mask_Group_33" data-name="Mask Group 33" transform="translate(-788 -45)" clip-path="url(#clip-path)"><g id="Group_35" data-name="Group 35" transform="translate(-127.2 7)"><path id="Path_109" data-name="Path 109" d="M73.987,30.821l-3.438-.607a32.044,32.044,0,0,0-3.021-7.244l2.01-2.879a3.468,3.468,0,0,0-.393-4.449L62.377,8.886a3.465,3.465,0,0,0-4.437-.393L55.074,10.5a32.144,32.144,0,0,0-7.244-3.01l-.619-3.438A3.48,3.48,0,0,0,43.8,1.19h-9.54a3.469,3.469,0,0,0-3.414,2.855l-.619,3.45A31.7,31.7,0,0,0,22.98,10.5l-2.867-2a3.465,3.465,0,0,0-4.437.393l-7.22,7.209a2.66,2.66,0,0,0-.309,3.45l2.391,3.426a31.82,31.82,0,0,0-3.021,7.244l-4.092.714A2.679,2.679,0,0,0,1.2,33.581v10.23a3.463,3.463,0,0,0,2.891,3.426l3.438.595a31.512,31.512,0,0,0,3.021,7.256l-2.391,3.4a2.659,2.659,0,0,0,.3,3.438l7.232,7.232a3.48,3.48,0,0,0,4.449.393L23,67.542a32.8,32.8,0,0,0,7.244,3.009l.761,4.282a2.484,2.484,0,0,0,2.439,2.022H44.5a2.662,2.662,0,0,0,2.641-2.213l.726-4.092A31.829,31.829,0,0,0,55.1,67.542l2.867,2.01A3.465,3.465,0,0,0,62.4,69.16l7.232-7.232a2.7,2.7,0,0,0,.3-3.426l-2.379-3.426a32.8,32.8,0,0,0,3.009-7.244l4.092-.714a2.683,2.683,0,0,0,2.213-2.653V34.235A3.49,3.49,0,0,0,73.987,30.821Zm.833,13.644a.664.664,0,0,1-.535.654l-4.235.738a1.829,1.829,0,0,0-1.427,1.3A30.17,30.17,0,0,1,65.7,54.2a1.8,1.8,0,0,0,.083,1.915l2.474,3.545a.683.683,0,0,1-.071.845L60.95,67.732a1.444,1.444,0,0,1-1.844.167l-3-2.094a1.8,1.8,0,0,0-1.915-.083,30.6,30.6,0,0,1-7.03,2.926,1.8,1.8,0,0,0-1.3,1.416l-.761,4.259a.643.643,0,0,1-.642.523H33.412a.46.46,0,0,1-.44-.357l-.785-4.413a1.8,1.8,0,0,0-1.3-1.416,29.96,29.96,0,0,1-7.042-2.926,1.821,1.821,0,0,0-.892-.238,1.767,1.767,0,0,0-1.023.321l-3,2.094a1.43,1.43,0,0,1-1.844-.167L9.884,60.488a.636.636,0,0,1-.071-.833L12.3,56.122a1.818,1.818,0,0,0,.083-1.927,29.669,29.669,0,0,1-2.926-7.042,1.8,1.8,0,0,0-1.427-1.3l-3.58-.619a1.454,1.454,0,0,1-1.2-1.427V33.581a.66.66,0,0,1,.547-.642l4.235-.749a1.8,1.8,0,0,0,1.416-1.3,29.957,29.957,0,0,1,2.926-7.03,1.794,1.794,0,0,0-.083-1.927L9.812,18.391a.666.666,0,0,1,.071-.845l7.232-7.22a1.459,1.459,0,0,1,1.844-.167l3,2.094a1.8,1.8,0,0,0,1.915.083A30.256,30.256,0,0,1,30.914,9.41a1.8,1.8,0,0,0,1.3-1.416l.63-3.58a1.431,1.431,0,0,1,1.416-1.19H43.8a1.431,1.431,0,0,1,1.416,1.19l.642,3.592a1.813,1.813,0,0,0,1.3,1.416,30.084,30.084,0,0,1,7.042,2.926,1.8,1.8,0,0,0,1.915-.083l3-2.094a1.43,1.43,0,0,1,1.844.167l6.768,6.757a1.444,1.444,0,0,1,.167,1.844l-2.105,3.01a1.818,1.818,0,0,0-.083,1.927,30.383,30.383,0,0,1,2.926,7.03,1.8,1.8,0,0,0,1.416,1.3l3.592.63a1.431,1.431,0,0,1,1.19,1.416V44.465Z" transform="translate(921 43.81)" fill="#1c54f7" stroke="#1c54f7" stroke-width="0.4"></path><path id="Path_110" data-name="Path 110" d="M36.525,12.87A23.945,23.945,0,1,0,60.47,36.815,23.972,23.972,0,0,0,36.525,12.87Zm0,45.868A21.923,21.923,0,1,1,58.448,36.815,21.951,21.951,0,0,1,36.525,58.738Z" transform="translate(923.157 46.024)" fill="#1c54f7" stroke="#1c54f7" stroke-width="0.4"></path><path id="Path_111" data-name="Path 111" d="M35.005,18.2a12.578,12.578,0,0,0-9.481,20.852c.1.1.19.2.285.309a15.93,15.93,0,0,1,2.51,4.294,1.88,1.88,0,0,0-1.154,1.737v3.426A1.883,1.883,0,0,0,29.046,50.7h.88a4.463,4.463,0,0,0,4.33,3.438h1.523a4.463,4.463,0,0,0,4.33-3.438h.88a1.883,1.883,0,0,0,1.879-1.879V45.393a1.88,1.88,0,0,0-1.154-1.737A15.263,15.263,0,0,1,44.188,39.4l.345-.381A12.582,12.582,0,0,0,35.005,18.2Zm.761,33.9H34.244a2.414,2.414,0,0,1-2.2-1.4h5.924A2.434,2.434,0,0,1,35.766,52.1Zm5.067-3.438H29.177V45.547H40.834v3.117Zm2.153-10.979c-.1.107-.19.214-.309.345A18.7,18.7,0,0,0,39.585,43.5H36.028V33.307l2.3-2.3a1.018,1.018,0,0,0-1.439-1.439l-1.879,1.891-1.879-1.879a1.018,1.018,0,1,0-1.439,1.439l2.3,2.3V43.513H30.426a18.55,18.55,0,0,0-3.093-5.472c-.107-.131-.226-.262-.321-.357a10.545,10.545,0,1,1,15.975,0Z" transform="translate(925.022 47.034)" fill="#1c54f7" stroke="#1c54f7" stroke-width="0.4"></path></g></g></svg> 