<?xml version="1.0" encoding="UTF-8"?> <svg xmlns="http://www.w3.org/2000/svg" xmlns:xlink="http://www.w3.org/1999/xlink" width="60" height="60" viewBox="0 0 60 60"><defs><clipPath id="clip-path"><rect id="Rectangle_22" data-name="Rectangle 22" width="60" height="60" transform="translate(692 444)" fill="#fff" stroke="#707070" stroke-width="1"></rect></clipPath></defs><g id="Mask_Group_13" data-name="Mask Group 13" transform="translate(-692 -444)" clip-path="url(#clip-path)"><g id="Group_15" data-name="Group 15" transform="translate(685.21 439)"><path id="Path_58" data-name="Path 58" d="M23.43,49.011H20.154c-2.312,0-5-1.89-5-4.327V21.822H57.712V44.684c0,2.437-2.688,4.327-5,4.327H49.437v2.364h3.276c3.476,0,7.364-2.862,7.364-6.691V16.766c0-3.541-3.5-6.766-7.343-6.766H20.154c-3.476,0-7.364,2.894-7.364,6.766V44.684c0,3.83,3.888,6.691,7.364,6.691h3.275a1.182,1.182,0,0,0,0-2.365ZM15.155,16.766c0-2.221,2.477-4.4,5-4.4H52.733c2.559,0,4.979,2.139,4.979,4.4v2.691H15.155Z" fill="#1c54f8" stroke="#fff" stroke-width="1"></path><path id="Path_59" data-name="Path 59" d="M56.086,17.442H54.9a1.182,1.182,0,1,0,0,2.364h1.182a1.182,1.182,0,1,0,0-2.364Z" transform="translate(-14.924 -2.713)" fill="#1c54f8" stroke="#fff" stroke-width="1"></path><path id="Path_60" data-name="Path 60" d="M65.388,17.442H64.206a1.182,1.182,0,1,0,0,2.364h1.182a1.182,1.182,0,0,0,0-2.364Z" transform="translate(-18.315 -2.713)" fill="#1c54f8" stroke="#fff" stroke-width="1"></path><path id="Path_61" data-name="Path 61" d="M74.691,17.442H73.509a1.182,1.182,0,0,0,0,2.364h1.182a1.182,1.182,0,1,0,0-2.364Z" transform="translate(-21.707 -2.713)" fill="#1c54f8" stroke="#fff" stroke-width="1"></path><path id="Path_62" data-name="Path 62" d="M39.084,57.936,38.666,60A1.59,1.59,0,0,0,40.224,61.9h8.784a1.59,1.59,0,0,0,1.557-1.911l-.424-2.064,2.082,1.562a1.591,1.591,0,0,0,2.543-1.274V51.552a1.6,1.6,0,0,0-.636-1.272l-2.448-1.836a1.466,1.466,0,0,0-.178-.1V43.377a10.1,10.1,0,0,0-1.834-5.821l-3.418-4.882a2.074,2.074,0,0,0-3.274,0l-3.417,4.882a10.1,10.1,0,0,0-1.834,5.821v4.969a1.6,1.6,0,0,0-.18.1L35.1,50.281a1.6,1.6,0,0,0-.634,1.271v6.667a1.59,1.59,0,0,0,2.544,1.273Zm2.087,1.6.347-1.712h6.189l.351,1.712Zm11.231-7.6v4.732l-.9-.673V51.266ZM44.617,34.459l1.7,2.43h-3.4Zm-4.524,8.918a7.738,7.738,0,0,1,1.2-4.124s6.634-.016,6.656.022a7.724,7.724,0,0,1,1.188,4.1V55.465H40.093Zm-3.261,8.561.9-.673V56l-.9.673Z" transform="translate(-7.903 -7.975)" fill="#1c54f8" stroke="#fff" stroke-width="1"></path><path id="Path_63" data-name="Path 63" d="M48.14,83.741v2.364a1.182,1.182,0,1,0,2.364,0V83.741a1.182,1.182,0,0,0-2.364,0Z" transform="translate(-12.888 -26.455)" fill="#1c54f8" stroke="#fff" stroke-width="1"></path><path id="Path_64" data-name="Path 64" d="M42.558,83.741v1.182a1.182,1.182,0,1,0,2.364,0V83.741a1.182,1.182,0,0,0-2.364,0Z" transform="translate(-10.853 -26.455)" fill="#1c54f8" stroke="#fff" stroke-width="1"></path><path id="Path_65" data-name="Path 65" d="M54.9,82.558a1.182,1.182,0,0,0-1.182,1.182v1.182a1.182,1.182,0,0,0,2.364,0V83.74A1.18,1.18,0,0,0,54.9,82.558Z" transform="translate(-14.923 -26.454)" fill="#1c54f8" stroke="#fff" stroke-width="1"></path><path id="Path_66" data-name="Path 66" d="M48.144,54.752a3.711,3.711,0,1,0-3.711-3.711A3.715,3.715,0,0,0,48.144,54.752Zm0-5.058A1.346,1.346,0,1,1,46.8,51.039,1.347,1.347,0,0,1,48.144,49.694Z" transform="translate(-11.537 -13.61)" fill="#1c54f8" stroke="#fff" stroke-width="1"></path></g></g></svg> 