<?xml version="1.0" encoding="UTF-8"?> <svg xmlns="http://www.w3.org/2000/svg" width="60" height="60" viewBox="0 0 60 60" fill="none"><mask id="mask0_5_296" style="mask-type:alpha" maskUnits="userSpaceOnUse" x="0" y="0" width="60" height="60"><rect width="60" height="60" fill="#D9D9D9"></rect></mask><g mask="url(#mask0_5_296)"><path d="M14.1014 47.7983C14.571 47.7983 14.9517 48.1789 14.9517 48.6486C14.9517 49.1183 14.571 49.4989 14.1014 49.4989H7.97511C7.50543 49.4989 7.12481 49.1183 7.12481 48.6486C7.12481 48.1789 7.50543 47.7983 7.97511 47.7983H14.1014ZM14.1014 51.0141H7.97511C7.50543 51.0141 7.12481 51.3947 7.12481 51.8644C7.12481 52.3341 7.50543 52.7147 7.97511 52.7147H14.1014C14.571 52.7147 14.9517 52.3341 14.9517 51.8644C14.9517 51.3947 14.571 51.0141 14.1014 51.0141ZM14.1014 54.23H7.97511C7.50543 54.23 7.12481 54.6106 7.12481 55.0803C7.12481 55.5499 7.50543 55.9306 7.97511 55.9306H14.1014C14.571 55.9306 14.9517 55.5499 14.9517 55.0803C14.9517 54.6106 14.571 54.23 14.1014 54.23ZM26.9007 47.7983C26.4311 47.7983 26.0504 48.1789 26.0504 48.6486C26.0504 49.1183 26.4311 49.4989 26.9007 49.4989H33.027C33.4967 49.4989 33.8773 49.1183 33.8773 48.6486C33.8773 48.1789 33.4967 47.7983 33.027 47.7983H26.9007ZM33.027 51.0141H26.9007C26.4311 51.0141 26.0504 51.3947 26.0504 51.8644C26.0504 52.3341 26.4311 52.7147 26.9007 52.7147H33.027C33.4967 52.7147 33.8773 52.3341 33.8773 51.8644C33.8773 51.3947 33.4967 51.0141 33.027 51.0141ZM33.027 54.23H26.9007C26.4311 54.23 26.0504 54.6106 26.0504 55.0803C26.0504 55.5499 26.4311 55.9306 26.9007 55.9306H33.027C33.4967 55.9306 33.8773 55.5499 33.8773 55.0803C33.8773 54.6106 33.4967 54.23 33.027 54.23ZM55.4422 41.9834V58.2895C55.4422 59.1332 54.7562 59.8193 53.9125 59.8193H42.7662C41.9225 59.8193 41.2365 59.1332 41.2365 58.2895V45.0106C41.2365 44.5963 41.3915 44.2216 41.6844 43.9287L44.7122 40.9015C45.0051 40.6087 45.3791 40.4536 45.7941 40.4536H49.0343V38.2365H33.965C33.7091 38.9536 33.1411 39.5222 32.4241 39.7775V40.6337H35.6023C36.446 40.6337 37.1321 41.3198 37.1321 42.1635V58.4696C37.1321 59.3133 36.446 59.9993 35.6023 59.9993H24.4554C23.6117 59.9993 22.9256 59.3133 22.9256 58.4696V45.1906C22.9256 44.7757 23.0807 44.4017 23.3742 44.1088L26.4014 41.0816C26.6943 40.7887 27.0683 40.6337 27.4832 40.6337H30.7235V39.7775C30.0064 39.5215 29.4378 38.9536 29.1825 38.2365H13.4984V40.6344H16.6767C17.5204 40.6344 18.2064 41.3204 18.2064 42.1641V58.4703C18.2064 59.314 17.5204 60 16.6767 60H5.52975C4.68605 60 4 59.314 4 58.4703V45.1913C4 44.777 4.15502 44.403 4.44791 44.1101L7.47575 41.0823C7.76864 40.7894 8.14266 40.6344 8.55759 40.6344H11.7978V37.3869C11.7978 36.9172 12.1785 36.5366 12.6481 36.5366H29.1818C29.4378 35.8195 30.0058 35.2509 30.7235 34.9949V33.6031H29.7386C29.3217 33.6031 28.9661 33.3003 28.8995 32.8887L28.3111 29.248C27.1758 28.9518 26.094 28.5032 25.0807 27.9089L22.0898 30.0679C21.7514 30.312 21.2864 30.2751 20.9909 29.9796L18.3958 27.3845C18.1009 27.0896 18.0633 26.6239 18.3074 26.2855L20.4664 23.2946C19.8721 22.2813 19.4235 21.1988 19.1273 20.0642L15.4867 19.4758C15.075 19.4092 14.7722 19.0536 14.7722 18.6367V14.9657C14.7722 14.5481 15.075 14.1932 15.4867 14.1266L19.1273 13.5389C19.4235 12.4036 19.8721 11.3211 20.4664 10.3085L18.3074 7.31761C18.0633 6.9792 18.1009 6.51414 18.3958 6.21861L20.9909 3.62351C21.2857 3.32864 21.7514 3.29104 22.0898 3.53512L25.0807 5.69418C26.094 5.09983 27.1765 4.65126 28.3111 4.35507L28.8995 0.714411C28.9661 0.302784 29.3217 0 29.7386 0H33.4089C33.8259 0 34.1821 0.302784 34.248 0.714411L34.8358 4.35507C35.9704 4.65126 37.0529 5.09983 38.0661 5.69418L41.057 3.53512C41.3954 3.29104 41.8605 3.32798 42.156 3.62351L44.7511 6.21861C45.046 6.51348 45.0836 6.9792 44.8395 7.31761L42.6805 10.3085C43.2742 11.3217 43.7234 12.4042 44.0196 13.5389L47.6602 14.1266C48.0719 14.1932 48.3746 14.5488 48.3746 14.9657V18.636C48.3746 19.0529 48.0719 19.4085 47.6602 19.4751L44.0196 20.0635C43.7234 21.1988 43.2748 22.2807 42.6805 23.2939L44.8395 26.2848C45.0836 26.6232 45.046 27.0883 44.7511 27.3838L42.156 29.9789C41.8612 30.2738 41.3954 30.3114 41.057 30.0673L38.0661 27.9082C37.0522 28.5026 35.9704 28.9511 34.8358 29.2473L34.248 32.888C34.1814 33.2996 33.8259 33.6024 33.4089 33.6024H32.4241V34.9943C33.1411 35.2502 33.7097 35.8182 33.9657 36.5359H49.8853C50.3549 36.5359 50.7356 36.9165 50.7356 37.3862V40.4536H53.9138C54.7562 40.4536 55.4422 41.1397 55.4422 41.9834ZM30.4622 31.9018H32.6846L33.248 28.4155C33.3041 28.0692 33.5673 27.7928 33.9103 27.7196C35.2408 27.4366 36.4962 26.9161 37.6413 26.1733C37.9355 25.9827 38.3168 25.9919 38.6018 26.1971L41.466 28.2644L43.0373 26.6931L40.9693 23.8289C40.7642 23.5446 40.7543 23.1626 40.9456 22.8684C41.6877 21.7246 42.2081 20.4692 42.4918 19.138C42.565 18.795 42.8414 18.5318 43.1877 18.4757L46.6747 17.9124V15.69L43.1877 15.1267C42.8414 15.0706 42.565 14.808 42.4918 14.4644C42.2081 13.1332 41.6883 11.8778 40.9456 10.734C40.7543 10.4398 40.7642 10.0578 40.9693 9.77352L43.0373 6.90928L41.466 5.33797L38.6018 7.40534C38.3175 7.61049 37.9355 7.62039 37.6413 7.42909C36.4968 6.68631 35.2415 6.1665 33.9103 5.88285C33.5673 5.80962 33.3041 5.53323 33.248 5.1869L32.6846 1.69994H30.4622L29.8989 5.18624C29.8428 5.53257 29.5796 5.80896 29.2366 5.88219C27.9061 6.16518 26.6507 6.68565 25.5062 7.42843C25.212 7.61973 24.8301 7.60983 24.5458 7.40468L21.6815 5.33731L20.1102 6.90862L22.1782 9.77286C22.3834 10.0572 22.3933 10.4391 22.202 10.7333C21.4599 11.8772 20.9394 13.1325 20.6557 14.4637C20.5825 14.8067 20.3061 15.0699 19.9598 15.126L16.4735 15.6893V17.9117L19.9598 18.4751C20.3061 18.5312 20.5825 18.7944 20.6557 19.1374C20.9394 20.4679 21.4592 21.7233 22.202 22.8684C22.3926 23.1626 22.3834 23.5446 22.1782 23.8289L20.1102 26.6931L21.6815 28.2644L24.5458 26.1971C24.8301 25.9919 25.212 25.9827 25.5062 26.1733C26.6501 26.9154 27.9054 27.4359 29.2366 27.7196C29.5796 27.7928 29.8428 28.0692 29.8989 28.4155L30.4622 31.9018ZM6.90316 44.0593H7.42627V43.5362L6.90316 44.0593ZM16.5058 42.3343H9.12621V44.2302C9.12621 45.0739 8.44017 45.7599 7.59646 45.7599H5.7006V58.2987H16.5058V42.3343ZM25.8281 44.0593H26.3512V43.5362L25.8281 44.0593ZM35.4315 42.3343H28.0519V44.2302C28.0519 45.0739 27.3658 45.7599 26.5221 45.7599H24.6262V58.2987H35.4315V42.3343ZM32.4142 37.3862C32.4142 36.9225 32.0369 36.5458 31.5738 36.5458C31.1107 36.5458 30.7334 36.9231 30.7334 37.3862C30.7334 37.8493 31.1107 38.2266 31.5738 38.2266C32.0369 38.2266 32.4142 37.8493 32.4142 37.3862ZM44.139 43.8792H44.6621V43.3561L44.139 43.8792ZM53.7423 42.1542H46.3627V44.0501C46.3627 44.8938 45.6766 45.5798 44.8329 45.5798H42.9371V58.1187H53.7423V42.1542ZM45.2116 47.6182C44.7419 47.6182 44.3613 47.9988 44.3613 48.4685C44.3613 48.9382 44.7419 49.3188 45.2116 49.3188H51.3378C51.8075 49.3188 52.1881 48.9382 52.1881 48.4685C52.1881 47.9988 51.8075 47.6182 51.3378 47.6182H45.2116ZM51.3378 50.834H45.2116C44.7419 50.834 44.3613 51.2147 44.3613 51.6843C44.3613 52.154 44.7419 52.5346 45.2116 52.5346H51.3378C51.8075 52.5346 52.1881 52.154 52.1881 51.6843C52.1881 51.2147 51.8075 50.834 51.3378 50.834ZM51.3378 54.0499H45.2116C44.7419 54.0499 44.3613 54.4305 44.3613 54.9002C44.3613 55.3699 44.7419 55.7505 45.2116 55.7505H51.3378C51.8075 55.7505 52.1881 55.3699 52.1881 54.9002C52.1881 54.4305 51.8075 54.0499 51.3378 54.0499ZM31.5731 25.3633C26.8519 25.3633 23.0107 21.5221 23.0107 16.8009C23.0107 12.0797 26.8519 8.23849 31.5731 8.23849C36.2943 8.23849 40.1355 12.0797 40.1355 16.8009C40.1355 21.5221 36.295 25.3633 31.5731 25.3633ZM34.1563 10.4451L32.6813 15.9506H38.3808C38.0708 13.4511 36.4117 11.3653 34.1563 10.4451ZM31.5731 23.6633C31.8924 23.6633 32.2064 23.6396 32.5138 23.5973L30.7518 17.0212C30.7492 17.0126 30.7485 17.0034 30.7466 16.9948C30.7426 16.9783 30.7393 16.9618 30.7367 16.9453C30.734 16.9295 30.732 16.9137 30.7301 16.8978C30.7281 16.8813 30.7268 16.8655 30.7255 16.849C30.7248 16.8332 30.7241 16.8167 30.7241 16.8009C30.7241 16.785 30.7248 16.7685 30.7255 16.7527C30.7261 16.7362 30.7281 16.7204 30.7301 16.7039C30.732 16.6881 30.734 16.6722 30.7367 16.6564C30.7393 16.6399 30.7433 16.6234 30.7466 16.6069C30.7485 16.5984 30.7499 16.5891 30.7518 16.5805L32.5138 10.0044C32.2057 9.96218 31.8924 9.93843 31.5731 9.93843C27.7893 9.93843 24.7107 13.0171 24.7107 16.8009C24.7107 20.5847 27.7893 23.6633 31.5731 23.6633ZM38.3808 17.6512H32.6813L34.1563 23.1567C36.4117 22.2365 38.0708 20.1506 38.3808 17.6512Z" fill="#1B54F8"></path></g></svg> 