<?xml version="1.0" encoding="UTF-8"?> <svg xmlns="http://www.w3.org/2000/svg" xmlns:xlink="http://www.w3.org/1999/xlink" width="90" height="90" viewBox="0 0 90 90"><defs><clipPath id="clip-path"><circle id="Ellipse_9" data-name="Ellipse 9" cx="45" cy="45" r="45" transform="translate(-0.129 0.052)" fill="#fff"></circle></clipPath></defs><g id="Mask_Group_3" data-name="Mask Group 3" transform="translate(0.129 -0.052)" clip-path="url(#clip-path)"><g id="Group_165" data-name="Group 165" transform="translate(10.212 17.733)"><path id="Path_87" data-name="Path 87" d="M145.219,68.879H95.188a9.509,9.509,0,0,0-9.509,9.509v36.134a9.51,9.51,0,0,0,9.509,9.509h50.031a9.51,9.51,0,0,0,9.509-9.509V78.388a9.51,9.51,0,0,0-9.509-9.509Zm-50.1,4.389h50.1a5.119,5.119,0,0,1,5.12,5.12v5.778H90.068V78.388a5.12,5.12,0,0,1,5.12-5.12Zm50.1,46.374H95.188a5.12,5.12,0,0,1-5.12-5.12V88.482H150.34v26.04a5.12,5.12,0,0,1-5.12,5.12Z" transform="translate(-85.679 -68.879)" fill="#1b54f8" stroke="#fff" stroke-width="2"></path><path id="Path_88" data-name="Path 88" d="M152.06,120.548a3.511,3.511,0,1,1-3.511-3.511,3.511,3.511,0,0,1,3.511,3.511" transform="translate(-137.285 -110.747)" fill="#1b54f8" stroke="#fff" stroke-width="2"></path><path id="Path_89" data-name="Path 89" d="M221.5,120.548a3.511,3.511,0,1,1-3.511-3.511,3.511,3.511,0,0,1,3.511,3.511" transform="translate(-197.658 -110.747)" fill="#1b54f8" stroke="#fff" stroke-width="2"></path><path id="Path_90" data-name="Path 90" d="M294.3,120.548a3.511,3.511,0,1,1-3.511-3.511,3.511,3.511,0,0,1,3.511,3.511" transform="translate(-260.949 -110.747)" fill="#1b54f8" stroke="#fff" stroke-width="2"></path><path id="Path_91" data-name="Path 91" d="M215.275,261.877a2.195,2.195,0,0,0-3.072-.146l-8.558,7.973a2.194,2.194,0,0,0,0,3.218l8.558,7.9a2.2,2.2,0,0,0,3-3.218l-6.8-6.291,6.8-6.29a2.2,2.2,0,0,0,.073-3.146Z" transform="translate(-187.626 -236.057)" fill="#1b54f8" stroke="#fff" stroke-width="2"></path><path id="Path_92" data-name="Path 92" d="M401.538,262.071a2.2,2.2,0,0,0-3,3.219l6.8,6.29-6.8,6.29a2.2,2.2,0,0,0,3,3.219l8.558-7.9a2.194,2.194,0,0,0,0-3.218Z" transform="translate(-357.066 -236.323)" fill="#1b54f8" stroke="#fff" stroke-width="2"></path><path id="Path_93" data-name="Path 93" d="M314.4,225.852a2.195,2.195,0,0,0-2.633,1.609l-6.51,25.235a2.194,2.194,0,0,0,1.609,2.706h.512a2.2,2.2,0,0,0,2.194-1.609l6.436-25.308a2.194,2.194,0,0,0-1.609-2.633Z" transform="translate(-276.509 -205.298)" fill="#1b54f8" stroke="#fff" stroke-width="2"></path></g></g></svg> 