<?xml version="1.0" encoding="UTF-8"?> <svg xmlns="http://www.w3.org/2000/svg" xmlns:xlink="http://www.w3.org/1999/xlink" width="60" height="60" viewBox="0 0 60 60"><defs><clipPath id="clip-path"><rect id="Rectangle_877" data-name="Rectangle 877" width="60" height="60" transform="translate(43 482)" fill="#fff" stroke="#707070" stroke-width="1"></rect></clipPath></defs><g id="Mask_Group_106" data-name="Mask Group 106" transform="translate(-43 -482)" clip-path="url(#clip-path)"><g id="Group_2980" data-name="Group 2980" transform="translate(-100.454 28.39)"><g id="Group_2979" data-name="Group 2979" transform="translate(150.454 459.61)"><path id="Path_3166" data-name="Path 3166" d="M23.025,47.528H19.874c-2.224,0-4.81-1.818-4.81-4.163V21.372H56V43.366c0,2.344-2.586,4.163-4.809,4.163H48.044V49.8h3.151c3.344,0,7.084-2.753,7.084-6.437V16.509C58.279,13.1,54.912,10,51.215,10H19.874c-3.344,0-7.084,2.784-7.084,6.509V43.366c0,3.684,3.74,6.437,7.084,6.437h3.15a1.138,1.138,0,0,0,0-2.275Zm-7.96-31.019c0-2.137,2.383-4.235,4.81-4.235h31.34c2.462,0,4.79,2.058,4.79,4.235V19.1H15.065Z" transform="translate(-12.79 -10)" fill="#1c54f8" stroke="#fff" stroke-width="1"></path><path id="Path_3167" data-name="Path 3167" d="M56,17.442H54.859a1.137,1.137,0,0,0,0,2.274H56a1.137,1.137,0,0,0,0-2.274Z" transform="translate(-28.702 -12.893)" fill="#1c54f8" stroke="#fff" stroke-width="1"></path><path id="Path_3168" data-name="Path 3168" d="M65.3,17.442H64.161a1.137,1.137,0,0,0,0,2.274H65.3a1.137,1.137,0,0,0,0-2.274Z" transform="translate(-32.318 -12.893)" fill="#1c54f8" stroke="#fff" stroke-width="1"></path><path id="Path_3169" data-name="Path 3169" d="M74.6,17.442H73.464a1.137,1.137,0,0,0,0,2.274H74.6a1.137,1.137,0,1,0,0-2.274Z" transform="translate(-35.935 -12.893)" fill="#1c54f8" stroke="#fff" stroke-width="1"></path><path id="Path_3170" data-name="Path 3170" d="M38.908,56.946l-.4,1.984a1.53,1.53,0,0,0,1.5,1.834h8.45a1.53,1.53,0,0,0,1.5-1.838l-.408-1.985,2,1.5A1.531,1.531,0,0,0,54,57.217V50.8a1.537,1.537,0,0,0-.612-1.224l-2.355-1.766a1.412,1.412,0,0,0-.171-.094V42.94a9.72,9.72,0,0,0-1.765-5.6l-3.288-4.7a2,2,0,0,0-3.149,0l-3.287,4.7a9.715,9.715,0,0,0-1.765,5.6v4.78a1.543,1.543,0,0,0-.173.1l-2.354,1.766a1.537,1.537,0,0,0-.61,1.223v6.413a1.529,1.529,0,0,0,2.447,1.224Zm2.008,1.543.334-1.647H47.2l.338,1.647Zm10.8-7.313v4.552l-.863-.647V50.529Zm-7.49-16.815L45.867,36.7H42.594ZM39.879,42.94a7.444,7.444,0,0,1,1.158-3.967s6.381-.015,6.4.021a7.43,7.43,0,0,1,1.142,3.946V54.568h-8.7Zm-3.137,8.236.863-.647v4.552l-.863.647Z" transform="translate(-21.217 -18.503)" fill="#1c54f8" stroke="#fff" stroke-width="1"></path><path id="Path_3171" data-name="Path 3171" d="M48.14,83.7V85.97a1.137,1.137,0,1,0,2.274,0V83.7a1.137,1.137,0,1,0-2.274,0Z" transform="translate(-26.532 -38.207)" fill="#1c54f8" stroke="#fff" stroke-width="1"></path><path id="Path_3172" data-name="Path 3172" d="M42.558,83.7v1.137a1.137,1.137,0,1,0,2.274,0V83.7a1.137,1.137,0,1,0-2.274,0Z" transform="translate(-24.362 -38.207)" fill="#1c54f8" stroke="#fff" stroke-width="1"></path><path id="Path_3173" data-name="Path 3173" d="M54.858,82.558a1.137,1.137,0,0,0-1.137,1.137v1.137a1.137,1.137,0,0,0,2.274,0V83.695A1.136,1.136,0,0,0,54.858,82.558Z" transform="translate(-28.702 -38.207)" fill="#1c54f8" stroke="#fff" stroke-width="1"></path><path id="Path_3174" data-name="Path 3174" d="M48,54.469a3.57,3.57,0,1,0-3.57-3.57A3.574,3.574,0,0,0,48,54.469ZM48,49.6a1.3,1.3,0,1,1-1.3,1.295A1.3,1.3,0,0,1,48,49.6Z" transform="translate(-25.091 -24.512)" fill="#1c54f8" stroke="#fff" stroke-width="1"></path></g></g></g></svg> 