<?xml version="1.0" encoding="UTF-8"?> <svg xmlns="http://www.w3.org/2000/svg" xmlns:xlink="http://www.w3.org/1999/xlink" width="90" height="90" viewBox="0 0 90 90"><defs><clipPath id="clip-path"><rect id="Rectangle_13" data-name="Rectangle 13" width="90" height="90" transform="translate(1320 248)" fill="#fff" stroke="#707070" stroke-width="1"></rect></clipPath></defs><g id="Mask_Group_5" data-name="Mask Group 5" transform="translate(-1320 -248)" clip-path="url(#clip-path)"><g id="Group_13" data-name="Group 13" transform="translate(-24.442 -433.948)"><path id="Path_61" data-name="Path 61" d="M158.737,118.734h-5.268c-3.718,0-8.042-3.04-8.042-6.96V75h68.447v36.77c0,3.919-4.323,6.96-8.041,6.96h-5.268v3.8h5.268c5.591,0,11.843-4.6,11.843-10.762v-44.9c0-5.7-5.629-10.883-11.811-10.883h-52.4c-5.591,0-11.844,4.655-11.844,10.883v44.9c0,6.159,6.253,10.762,11.844,10.762h5.267a1.9,1.9,0,0,0,0-3.8ZM145.429,66.874c0-3.573,3.983-7.08,8.042-7.08h52.4c4.117,0,8.008,3.441,8.008,7.08V71.2H145.428Z" transform="translate(1209.816 629.958)" fill="#1b54f8" stroke="#fff" stroke-width="1"></path><path id="Path_62" data-name="Path 62" d="M374.653,97.676h-1.9a1.9,1.9,0,0,0,0,3.8h1.9a1.9,1.9,0,0,0,0-3.8Z" transform="translate(1022.422 595.88)" fill="#1b54f8" stroke="#fff" stroke-width="1"></path><path id="Path_63" data-name="Path 63" d="M426.743,97.676h-1.9a1.9,1.9,0,1,0,0,3.8h1.9a1.9,1.9,0,0,0,0-3.8Z" transform="translate(979.838 595.88)" fill="#1b54f8" stroke="#fff" stroke-width="1"></path><path id="Path_64" data-name="Path 64" d="M478.833,97.676h-1.9a1.9,1.9,0,0,0,0,3.8h1.9a1.9,1.9,0,1,0,0-3.8Z" transform="translate(937.254 595.88)" fill="#1b54f8" stroke="#fff" stroke-width="1"></path><path id="Path_65" data-name="Path 65" d="M270.438,220.408l-.672,3.317a2.558,2.558,0,0,0,2.507,3.066H286.4a2.558,2.558,0,0,0,2.5-3.072l-.682-3.319,3.349,2.512a2.56,2.56,0,0,0,4.09-2.049V210.139a2.57,2.57,0,0,0-1.023-2.046L290.7,205.14a2.468,2.468,0,0,0-.286-.158v-7.992a16.251,16.251,0,0,0-2.951-9.362l-5.5-7.853a3.336,3.336,0,0,0-5.265,0l-5.5,7.853a16.241,16.241,0,0,0-2.951,9.362v7.992a2.545,2.545,0,0,0-.289.16l-3.936,2.953a2.57,2.57,0,0,0-1.02,2.044v10.722a2.557,2.557,0,0,0,4.092,2.047Zm3.357,2.58.558-2.753h9.955l.565,2.753Zm18.064-12.226v7.61l-1.443-1.082v-7.61Zm-12.522-28.113,2.736,3.908H276.6Zm-7.276,14.343A12.44,12.44,0,0,1,274,190.359s10.669-.026,10.706.035a12.422,12.422,0,0,1,1.91,6.6v19.441H272.061Zm-5.244,13.77,1.443-1.082v7.61l-1.443,1.082Z" transform="translate(1110.581 529.814)" fill="#1b54f8" stroke="#fff" stroke-width="1"></path><path id="Path_66" data-name="Path 66" d="M339.59,464.236v3.8a1.9,1.9,0,0,0,3.8,0v-3.8a1.9,1.9,0,0,0-3.8,0Z" transform="translate(1047.979 297.767)" fill="#1b54f8" stroke="#fff" stroke-width="1"></path><path id="Path_67" data-name="Path 67" d="M308.32,464.236v1.9a1.9,1.9,0,1,0,3.8,0v-1.9a1.9,1.9,0,0,0-3.8,0Z" transform="translate(1073.542 297.767)" fill="#1b54f8" stroke="#fff" stroke-width="1"></path><path id="Path_68" data-name="Path 68" d="M372.736,462.32a1.9,1.9,0,0,0-1.9,1.9v1.9a1.9,1.9,0,0,0,3.8,0v-1.9A1.9,1.9,0,0,0,372.736,462.32Z" transform="translate(1022.435 297.78)" fill="#1b54f8" stroke="#fff" stroke-width="1"></path><path id="Path_69" data-name="Path 69" d="M324.8,276.987a5.968,5.968,0,1,0-5.97-5.969A5.975,5.975,0,0,0,324.8,276.987Zm0-8.135a2.165,2.165,0,1,1-2.166,2.164A2.167,2.167,0,0,1,324.8,268.852Z" transform="translate(1064.951 459.05)" fill="#1b54f8" stroke="#fff" stroke-width="1"></path></g></g></svg> 