<?xml version="1.0" encoding="UTF-8"?> <svg xmlns="http://www.w3.org/2000/svg" xmlns:xlink="http://www.w3.org/1999/xlink" width="148" height="148" viewBox="0 0 148 148"><defs><clipPath id="clip-path"><rect id="Rectangle_22" data-name="Rectangle 22" width="148" height="148" transform="translate(558.404 707.182)" fill="#fff" opacity="0.9"></rect></clipPath></defs><g id="Mask_Group_2" data-name="Mask Group 2" transform="translate(-558.404 -707.182)" clip-path="url(#clip-path)"><g id="Group_32" data-name="Group 32" transform="translate(562.953 715.247)"><path id="Path_74" data-name="Path 74" d="M235.636,38.911a1.659,1.659,0,0,0-1.708-1.725H97.948a1.659,1.659,0,0,0-1.707,1.725V147.418a1.743,1.743,0,0,0,1.707,1.824h47.586l-5,17.725h-8.706a1.8,1.8,0,1,0,0,3.6h68.213a1.8,1.8,0,1,0,0-3.6h-8.707l-5-17.725h47.586a1.742,1.742,0,0,0,1.708-1.824Zm-135.79,1.88H232.03v82.315H191.173V55.5a1.84,1.84,0,0,0-1.856-1.791H167.592a1.672,1.672,0,0,0-1.654,1.791v67.606h-3.927l.065-51.234a1.82,1.82,0,0,0-.19-.811L153.028,53.3h0a1.8,1.8,0,0,0-3.226,0l-8.857,17.755a1.857,1.857,0,0,0-.19.817l.067,51.231H99.845Zm69.7,72.1h2.4a1.8,1.8,0,0,0,0-3.605h-2.4v-6.008h5.528a1.8,1.8,0,0,0,0-3.6h-5.528V93.664h2.389a1.8,1.8,0,0,0,0-3.605h-2.389V84.051h5.528a1.8,1.8,0,0,0,0-3.6h-5.528V74.738h2.4a1.8,1.8,0,0,0,0-3.605h-2.4V65.125h5.517a1.8,1.8,0,1,0,0-3.605h-5.517V57.314h18.025V123.1H169.543ZM144.365,73.537h14.1l-.053,41.156h-14Zm1.108-3.605,5.944-11.915,5.943,11.915ZM144.428,123.1l-.006-4.807h13.991l-.006,4.807Zm43.167,43.862H144.282l5-17.725H182.6Zm44.436-21.33H99.847V126.71H232.03Z" transform="translate(-96.24 -37.185)" fill="#05f"></path></g></g></svg> 