<?xml version="1.0" encoding="UTF-8"?> <svg xmlns="http://www.w3.org/2000/svg" xmlns:xlink="http://www.w3.org/1999/xlink" width="60" height="60" viewBox="0 0 60 60"><defs><clipPath id="clip-path"><rect id="Rectangle_19" data-name="Rectangle 19" width="60" height="60" transform="translate(291 444)" fill="#fff" stroke="#707070" stroke-width="1"></rect></clipPath></defs><g id="Mask_Group_11" data-name="Mask Group 11" transform="translate(-291 -444)" clip-path="url(#clip-path)"><g id="Group_12" data-name="Group 12" transform="translate(-106.759 23.105)"><path id="Path_50" data-name="Path 50" d="M44,38.006a17.456,17.456,0,0,1-2.556-.205.737.737,0,0,1-.624-.625l-.479-3.354a.738.738,0,0,1,1.461-.209l.4,2.8a13.675,13.675,0,0,0,3.6,0l.4-2.8A.739.739,0,0,1,46.776,33a12.839,12.839,0,0,0,4.232-1.758.737.737,0,0,1,.841.031l2.268,1.7a13.908,13.908,0,0,0,2.544-2.544l-1.7-2.268a.737.737,0,0,1-.031-.841,12.855,12.855,0,0,0,1.758-4.232.738.738,0,0,1,.616-.573l2.8-.4a13.956,13.956,0,0,0,0-3.6l-2.8-.4a.739.739,0,0,1-.616-.573,12.839,12.839,0,0,0-1.758-4.232.737.737,0,0,1,.031-.841l1.7-2.266a16.252,16.252,0,0,0-2.545-2.545l-2.266,1.7a.74.74,0,0,1-.841.031,12.855,12.855,0,0,0-4.232-1.758.738.738,0,0,1-.573-.616l-.4-2.8a13.675,13.675,0,0,0-3.6,0l-.4,2.8a.739.739,0,0,1-.573.616A12.853,12.853,0,0,0,37,9.389a.74.74,0,0,1-.841-.031l-2.266-1.7A16.252,16.252,0,0,0,31.348,10.2l1.7,2.266a.737.737,0,0,1,.031.841,12.841,12.841,0,0,0-1.758,4.232.738.738,0,0,1-.616.573l-2.8.4a13.956,13.956,0,0,0,0,3.6l2.8.4a.738.738,0,1,1-.209,1.461l-3.354-.479a.738.738,0,0,1-.625-.625,17.623,17.623,0,0,1-.2-2.556,17.623,17.623,0,0,1,.2-2.556.738.738,0,0,1,.625-.625L30,16.725a14.339,14.339,0,0,1,1.569-3.774l-1.735-2.313a.735.735,0,0,1,0-.882A17.754,17.754,0,0,1,33.445,6.14a.735.735,0,0,1,.882,0l2.313,1.735a14.333,14.333,0,0,1,3.774-1.569l.408-2.856a.738.738,0,0,1,.624-.625,15.628,15.628,0,0,1,5.113,0,.737.737,0,0,1,.624.625l.408,2.856a14.329,14.329,0,0,1,3.774,1.569l2.313-1.735a.735.735,0,0,1,.882,0,17.754,17.754,0,0,1,3.615,3.615.735.735,0,0,1,0,.882L56.442,12.95a14.346,14.346,0,0,1,1.569,3.774l2.856.408a.738.738,0,0,1,.625.624,17.459,17.459,0,0,1,.205,2.556,17.456,17.456,0,0,1-.205,2.556.737.737,0,0,1-.625.624l-2.856.408a14.329,14.329,0,0,1-1.569,3.774l1.735,2.313a.735.735,0,0,1,0,.882,16.129,16.129,0,0,1-3.615,3.615.735.735,0,0,1-.882,0l-2.313-1.735a14.346,14.346,0,0,1-3.774,1.569l-.408,2.856a.738.738,0,0,1-.624.625A17.458,17.458,0,0,1,44,38.006Z" transform="translate(389.244 424.28)" fill="#1c54f8"></path><path id="Path_51" data-name="Path 51" d="M52.774,38.05a.738.738,0,0,1-.046-1.474,8.1,8.1,0,1,0-8.6-8.6.753.753,0,0,1-.783.689.737.737,0,0,1-.689-.783A9.578,9.578,0,1,1,52.821,38.047h-.047Z" transform="translate(381.037 416.098)" fill="#1c54f8"></path><path id="Path_52" data-name="Path 52" d="M35.755,29.309a5.158,5.158,0,0,0-7.3,0L5.974,51.793a.737.737,0,0,0-.178.288L2.657,61.474a.737.737,0,0,0,.933.933l9.393-3.139a.752.752,0,0,0,.288-.178L35.755,36.605a5.158,5.158,0,0,0,0-7.3Zm-1.042,6.254L12.352,57.924,4.523,60.54l1.15-3.44a5.159,5.159,0,0,1,1.7,1.383.737.737,0,0,0,1.15-.923A6.625,6.625,0,0,0,6.14,55.7l1-2.989L26.768,33.084l1.905,1.905L10.2,53.819a.737.737,0,1,0,1.052,1.032l18.461-18.82,1.132,1.132a.737.737,0,1,0,1.043-1.042l-4.08-4.08,1.69-1.69a3.685,3.685,0,1,1,5.212,5.212Z" transform="translate(401.14 411.636)" fill="#1c54f8"></path></g></g></svg> 