<?xml version="1.0" encoding="UTF-8"?> <svg xmlns="http://www.w3.org/2000/svg" xmlns:xlink="http://www.w3.org/1999/xlink" width="90" height="90" viewBox="0 0 90 90"><defs><clipPath id="clip-path"><rect id="Rectangle_11" data-name="Rectangle 11" width="90" height="90" transform="translate(448 239)" fill="#fff" stroke="#707070" stroke-width="1"></rect></clipPath></defs><g id="Mask_Group_2" data-name="Mask Group 2" transform="translate(-448 -239)" clip-path="url(#clip-path)"><g id="Group_10" data-name="Group 10" transform="translate(-369.991 -385.459)"><path id="Path_57" data-name="Path 57" d="M131.588,0a12.487,12.487,0,0,0-12.367,10.915l-42.47.257a7.5,7.5,0,0,0-7.8,7.626v.184c.01.661-.018,19.468.609,19.679a1.541,1.541,0,0,0,.5.091,1.481,1.481,0,0,0,.5-.085l1.511.732s0-19.756,0-20.423a4.449,4.449,0,0,1,4.678-4.686l42.363-.257v48.34a1.56,1.56,0,0,0,3.119,0,9.356,9.356,0,1,1,9.356,9.356l-51.081-.081a1.559,1.559,0,1,0,0,3.118l51.081.081A12.492,12.492,0,0,0,143.837,64.74a1.546,1.546,0,0,0,.226-.808V12.475A12.488,12.488,0,0,0,131.589,0Zm9.356,54.131a12.458,12.458,0,0,0-18.712,0V12.476a9.356,9.356,0,0,1,18.712,0Z" transform="translate(756.038 631.459)" fill="#1b54f8"></path><path id="Path_58" data-name="Path 58" d="M214.678,140a1.56,1.56,0,0,0-1.433.947c-3.245,7.6-3.245,8.048-3.245,8.409v29.628a1.559,1.559,0,0,0,3.118,0V149.53c.156-.513.789-2.086,1.56-3.948.77,1.862,1.4,3.431,1.56,3.948v34.132H211.56a1.559,1.559,0,0,0-1.56,1.559v7.8a3.119,3.119,0,0,0,3.118,3.118h3.119a3.119,3.119,0,0,0,3.118-3.118V149.356c0-.362,0-.812-3.245-8.409a1.56,1.56,0,0,0-1.433-.947Zm1.56,53.018h-3.119V186.78h3.118Z" transform="translate(633.965 510.171)" fill="#1b54f8"></path><path id="Path_59" data-name="Path 59" d="M82.468,210H73.112a3.119,3.119,0,0,0-3.118,3.118v40.543a3.054,3.054,0,0,0,3.119,3.119h9.356a3.055,3.055,0,0,0,3.119-3.119V213.118A3.119,3.119,0,0,0,82.468,210Zm0,43.662-9.356-.044v-7.753h3.119a1.559,1.559,0,0,0,0-3.118H73.112v-7.8H77.79a1.56,1.56,0,1,0,0-3.119H73.112v-7.8h3.119a1.559,1.559,0,0,0,0-3.118H73.112v-7.8h9.356Z" transform="translate(755.259 449.527)" fill="#1b54f8"></path><path id="Path_60" data-name="Path 60" d="M304.892,212.422a1.559,1.559,0,1,0,0,3.118h9.356a3.118,3.118,0,0,0,3.118-3.118V178.117A3.119,3.119,0,0,0,314.247,175h-9.356a1.559,1.559,0,1,0,0,3.118h9.356v6.237h-9.356a1.56,1.56,0,0,0-1.56,1.56v21.83a1.56,1.56,0,0,0,3.119,0V187.472h7.8v24.95Z" transform="translate(553.107 479.85)" fill="#1b54f8"></path></g></g></svg> 