<?xml version="1.0" encoding="UTF-8"?> <svg xmlns="http://www.w3.org/2000/svg" xmlns:xlink="http://www.w3.org/1999/xlink" width="90" height="90" viewBox="0 0 90 90"><defs><clipPath id="clip-path"><rect id="Rectangle_19" data-name="Rectangle 19" width="90" height="90" transform="translate(291 444)" fill="#fff" stroke="#707070" stroke-width="1"></rect></clipPath></defs><g id="Mask_Group_11" data-name="Mask Group 11" transform="translate(-291 -444)" clip-path="url(#clip-path)"><g id="Group_12" data-name="Group 12" transform="translate(300 453)"><path id="Path_50" data-name="Path 50" d="M52.849,55.7a26.184,26.184,0,0,1-3.835-.308,1.106,1.106,0,0,1-.936-.938l-.718-5.03a1.107,1.107,0,1,1,2.191-.313l.6,4.2a20.512,20.512,0,0,0,5.4,0l.6-4.2a1.109,1.109,0,0,1,.859-.925,19.258,19.258,0,0,0,6.347-2.637,1.106,1.106,0,0,1,1.262.046l3.4,2.551a20.862,20.862,0,0,0,3.816-3.816l-2.551-3.4a1.106,1.106,0,0,1-.046-1.262,19.282,19.282,0,0,0,2.637-6.347,1.107,1.107,0,0,1,.925-.859l4.2-.6a20.935,20.935,0,0,0,0-5.4l-4.2-.6a1.109,1.109,0,0,1-.925-.859,19.258,19.258,0,0,0-2.637-6.347,1.106,1.106,0,0,1,.046-1.262L71.833,14a24.378,24.378,0,0,0-3.817-3.817l-3.4,2.549a1.109,1.109,0,0,1-1.262.046,19.282,19.282,0,0,0-6.347-2.637,1.107,1.107,0,0,1-.859-.925l-.6-4.2a20.512,20.512,0,0,0-5.4,0l-.6,4.2a1.109,1.109,0,0,1-.859.925,19.279,19.279,0,0,0-6.347,2.637,1.109,1.109,0,0,1-1.262-.046l-3.4-2.549A24.378,24.378,0,0,0,33.866,14l2.549,3.4a1.106,1.106,0,0,1,.046,1.262,19.261,19.261,0,0,0-2.637,6.347,1.107,1.107,0,0,1-.925.859l-4.2.6a20.934,20.934,0,0,0,0,5.4l4.2.6a1.107,1.107,0,0,1-.313,2.191l-5.031-.718A1.107,1.107,0,0,1,26.617,33a26.435,26.435,0,0,1-.306-3.834,26.434,26.434,0,0,1,.306-3.834,1.107,1.107,0,0,1,.938-.938l4.285-.612a21.508,21.508,0,0,1,2.353-5.662l-2.6-3.47a1.1,1.1,0,0,1,0-1.324A26.631,26.631,0,0,1,37.012,7.9a1.1,1.1,0,0,1,1.324,0l3.47,2.6a21.5,21.5,0,0,1,5.662-2.353l.612-4.284a1.107,1.107,0,0,1,.936-.938,23.442,23.442,0,0,1,7.67,0,1.106,1.106,0,0,1,.936.938l.612,4.284A21.494,21.494,0,0,1,63.9,10.506l3.47-2.6a1.1,1.1,0,0,1,1.324,0,26.631,26.631,0,0,1,5.423,5.423,1.1,1.1,0,0,1,0,1.324l-2.6,3.47a21.519,21.519,0,0,1,2.353,5.662l4.284.612a1.107,1.107,0,0,1,.938.936,26.188,26.188,0,0,1,.308,3.835A26.183,26.183,0,0,1,79.082,33a1.106,1.106,0,0,1-.938.936l-4.284.612a21.494,21.494,0,0,1-2.353,5.662l2.6,3.47a1.1,1.1,0,0,1,0,1.324,24.193,24.193,0,0,1-5.423,5.423,1.1,1.1,0,0,1-1.324,0l-3.47-2.6a21.519,21.519,0,0,1-5.662,2.353l-.612,4.284a1.107,1.107,0,0,1-.936.938,26.188,26.188,0,0,1-3.835.308Z" transform="translate(-8.617 -2.615)" fill="#1c54f8" stroke="#1c54f9" stroke-width="0.5"></path><path id="Path_51" data-name="Path 51" d="M57.833,47.619a1.106,1.106,0,0,1-.069-2.211,12.155,12.155,0,1,0-12.9-12.9,1.129,1.129,0,0,1-1.174,1.034,1.106,1.106,0,0,1-1.034-1.174A14.367,14.367,0,1,1,57.9,47.615l-.071,0Z" transform="translate(-12.754 -6.74)" fill="#1c54f8" stroke="#1c54f9" stroke-width="0.5"></path><path id="Path_52" data-name="Path 52" d="M52.324,30.065a7.737,7.737,0,0,0-10.945,0L7.651,63.792a1.106,1.106,0,0,0-.267.431L2.676,78.313a1.105,1.105,0,0,0,1.4,1.4L18.165,75a1.127,1.127,0,0,0,.431-.267L52.323,41.01a7.737,7.737,0,0,0,0-10.945ZM50.76,39.446,17.218,72.987,5.475,76.912,7.2,71.751a7.739,7.739,0,0,1,2.557,2.074,1.106,1.106,0,0,0,1.725-1.384A9.937,9.937,0,0,0,7.9,69.654L9.4,65.17,38.842,35.727,41.7,38.585,13.994,66.83a1.106,1.106,0,1,0,1.579,1.548l27.691-28.23,1.7,1.7a1.106,1.106,0,1,0,1.564-1.563l-6.12-6.12,2.535-2.535a5.528,5.528,0,1,1,7.818,7.818Z" transform="translate(-2.619 -8.99)" fill="#1c54f8" stroke="#1c54f9" stroke-width="0.5"></path></g></g></svg> 