<?xml version="1.0" encoding="UTF-8"?> <svg xmlns="http://www.w3.org/2000/svg" width="60" height="60" viewBox="0 0 60 60" fill="none"><mask id="mask0_5_301" style="mask-type:alpha" maskUnits="userSpaceOnUse" x="0" y="0" width="60" height="60"><rect width="60" height="60" fill="#D9D9D9"></rect></mask><g mask="url(#mask0_5_301)"><path fill-rule="evenodd" clip-rule="evenodd" d="M5.33676 3.01711C5.77354 2.92105 6.19298 3.25002 6.19298 3.6948V11.9126H51.3364C51.7245 11.9126 52.0399 12.2232 52.0399 12.6068V35.6608L58.7877 29.003C59.2398 28.5463 60 28.8674 60 29.482V56.5311C60 56.914 59.6852 57.2252 59.2965 57.2252H31.8818C31.2603 57.2252 30.9409 56.4784 31.3844 56.0409L38.1442 49.3712H6.22699C2.80075 49.3712 0 46.6072 0 43.2266V9.09594C0 6.04501 2.30261 3.4507 5.33676 3.01711ZM24.5652 23.4005C24.5652 24.3144 23.1582 24.3144 23.1582 23.4005V20.9292H13.9237V31.6177H20.6062C21.5324 31.6177 21.5324 33.006 20.6062 33.006H13.9237V40.3533H23.1582V32.3118C23.1582 31.3979 24.5652 31.3979 24.5652 32.3118V40.3533H33.799V33.006H27.1172C26.191 33.006 26.191 31.6177 27.1172 31.6177H34.5032C34.892 31.6177 35.2067 31.9282 35.2067 32.3118V40.3533H42.9008V27.3068H23.8617C22.9354 27.3068 22.9354 25.9185 23.8617 25.9185H42.9008V20.9292H24.5652V23.4005ZM23.8524 19.5409H13.2202C12.8321 19.5409 12.5167 19.8515 12.5167 20.2351V41.0475C12.5167 41.3606 12.7227 41.535 12.7227 41.5383L12.9781 41.6995L43.6036 41.7416C43.9924 41.7416 44.3071 41.431 44.3071 41.0475V20.2351C44.3071 19.8522 43.9924 19.5409 43.6036 19.5409H23.8524ZM57.1332 51.3089C56.207 51.3089 56.207 49.9206 57.1332 49.9206H58.593V47.4954C57.6314 47.4954 56.4297 47.7132 56.4297 46.8013C56.4297 45.8893 57.6314 46.1071 58.593 46.1071V43.6819C57.6314 43.6819 56.4297 43.8997 56.4297 42.9878C56.4297 42.0758 57.6314 42.2936 58.593 42.2936V39.8684C57.6314 39.8684 56.4297 40.0862 56.4297 39.1743C56.4297 38.2623 57.6314 38.4801 58.593 38.4801V31.1571L33.5796 55.8369H58.593V51.3089H57.1332ZM18.3342 4.38828C17.8874 5.49562 17.8854 6.73125 18.3342 7.83925L38.1222 7.79582C37.7981 6.69836 37.7967 5.52917 38.1222 4.43171L18.3342 4.38828ZM16.8498 7.83925C16.5071 6.71744 16.5071 5.51009 16.8492 4.38828C15.9843 4.38828 15.0834 4.28827 14.4539 4.86398C13.4876 5.74695 13.7737 7.83925 15.8676 7.83925H16.8498ZM42.376 6.11409C41.5691 5.60747 40.5448 5.08242 39.4932 4.74555C39.2151 5.6351 39.2145 6.59308 39.4932 7.48264C40.5448 7.14642 41.5697 6.62006 42.376 6.11409ZM40.6595 3.69217C39.6546 3.29674 38.5376 3 37.4567 3H15.8676C11.4137 3 11.4137 9.22753 15.8676 9.22753H37.456C39.7413 9.22753 42.5133 7.82806 44.0351 6.66151C44.3418 6.42662 44.3972 5.9904 44.1584 5.6884C43.8437 5.2877 41.8932 4.17774 40.6595 3.69217ZM50.6322 37.0484V13.3003H6.19232V37.8241C6.19232 39.0137 4.45719 38.0025 2.59736 40.102C-0.134703 43.1852 2.13524 47.9816 6.22699 47.9816H39.5512L50.6322 37.0484ZM52.5974 45.4393L48.0555 49.9206H52.5974V45.4393ZM45.8602 50.1239C45.4168 50.5615 45.7362 51.3082 46.3577 51.3082H53.3009C53.689 51.3082 54.0044 50.9977 54.0044 50.6141V43.7635C54.0044 43.149 53.2442 42.8279 52.7921 43.2845L45.8602 50.1239ZM1.40704 39.3493C2.2566 38.3216 3.44158 37.5682 4.78528 37.2511V4.55606C2.80475 5.17322 1.40704 6.99904 1.40704 9.09594V39.3493Z" fill="#1B54F8" stroke="#1B54F8" stroke-width="0.5"></path></g></svg> 