<?xml version="1.0" encoding="UTF-8"?> <svg xmlns="http://www.w3.org/2000/svg" xmlns:xlink="http://www.w3.org/1999/xlink" width="90" height="90" viewBox="0 0 90 90"><defs><clipPath id="clip-path"><rect id="Rectangle_22" data-name="Rectangle 22" width="90" height="90" transform="translate(558.404 707.182)" fill="#fff" opacity="0.9"></rect></clipPath></defs><g id="Mask_Group_2" data-name="Mask Group 2" transform="translate(-558.404 -707.182)" clip-path="url(#clip-path)"><g id="Group_32" data-name="Group 32" transform="translate(561.17 712.086)"><path id="Path_74" data-name="Path 74" d="M181.008,38.235a1.009,1.009,0,0,0-1.039-1.049H97.279a1.009,1.009,0,0,0-1.038,1.049v65.984a1.06,1.06,0,0,0,1.038,1.109h28.937l-3.039,10.778h-5.294a1.1,1.1,0,1,0,0,2.192h41.481a1.1,1.1,0,1,0,0-2.192H154.07l-3.039-10.778h28.937a1.059,1.059,0,0,0,1.039-1.109ZM98.433,39.378h80.382V89.434H153.969V48.322a1.119,1.119,0,0,0-1.129-1.089H139.63a1.017,1.017,0,0,0-1.006,1.089V89.434h-2.388l.04-31.156a1.107,1.107,0,0,0-.115-.493l-5.387-10.8h0a1.1,1.1,0,0,0-1.962,0l-5.386,10.8a1.129,1.129,0,0,0-.115.5l.04,31.154H98.432Zm42.383,43.845h1.46a1.1,1.1,0,0,0,0-2.192h-1.46V77.376h3.361a1.1,1.1,0,0,0,0-2.192h-3.361V71.53h1.453a1.1,1.1,0,0,0,0-2.192h-1.453V65.684h3.361a1.1,1.1,0,0,0,0-2.192h-3.361V60.021h1.46a1.1,1.1,0,0,0,0-2.192h-1.46V54.175h3.355a1.1,1.1,0,1,0,0-2.192h-3.355V49.425h10.961V89.434H140.816ZM125.5,59.291h8.577l-.032,25.027h-8.513Zm.674-2.192,3.615-7.245,3.614,7.245Zm-.635,32.335,0-2.923h8.508l0,2.923Zm26.25,26.673H125.455l3.039-10.778h20.26Zm27.022-12.971H98.433V91.626h80.382Z" transform="translate(-96.24 -37.185)" fill="#05f"></path></g></g></svg> 