<?xml version="1.0" encoding="UTF-8"?> <svg xmlns="http://www.w3.org/2000/svg" xmlns:xlink="http://www.w3.org/1999/xlink" width="90" height="90" viewBox="0 0 90 90"><defs><clipPath id="clip-path"><rect id="Rectangle_15" data-name="Rectangle 15" width="90" height="90" transform="translate(1540 336)" fill="#fff" stroke="#707070" stroke-width="1"></rect></clipPath></defs><g id="Mask_Group_8" data-name="Mask Group 8" transform="translate(-1540 -336)" clip-path="url(#clip-path)"><g id="noun-deployment-4562661" transform="translate(1545 341)"><path id="Path_182" data-name="Path 182" d="M335.34,192.5a2.839,2.839,0,0,0-2.84,2.84v2.84a2.84,2.84,0,0,0,5.68,0v-2.84A2.839,2.839,0,0,0,335.34,192.5Z" transform="translate(-295.583 -166.942)" fill="#1b54f8" stroke="#fff" stroke-width="3"></path><path id="Path_183" data-name="Path 183" d="M387.84,192.5a2.839,2.839,0,0,0-2.84,2.84v2.84a2.84,2.84,0,1,0,5.68,0v-2.84A2.839,2.839,0,0,0,387.84,192.5Z" transform="translate(-339.563 -166.942)" fill="#1b54f8" stroke="#fff" stroke-width="3"></path><path id="Path_184" data-name="Path 184" d="M440.34,192.5a2.839,2.839,0,0,0-2.84,2.84v2.84a2.84,2.84,0,1,0,5.68,0v-2.84A2.839,2.839,0,0,0,440.34,192.5Z" transform="translate(-383.544 -166.942)" fill="#1b54f8" stroke="#fff" stroke-width="3"></path><path id="Path_185" data-name="Path 185" d="M335.34,315a2.839,2.839,0,0,0-2.84,2.84v2.84a2.84,2.84,0,1,0,5.68,0v-2.84A2.839,2.839,0,0,0,335.34,315Z" transform="translate(-295.583 -269.563)" fill="#1b54f8" stroke="#fff" stroke-width="3"></path><path id="Path_186" data-name="Path 186" d="M387.84,315a2.839,2.839,0,0,0-2.84,2.84v2.84a2.84,2.84,0,1,0,5.68,0v-2.84A2.839,2.839,0,0,0,387.84,315Z" transform="translate(-339.563 -269.563)" fill="#1b54f8" stroke="#fff" stroke-width="3"></path><path id="Path_187" data-name="Path 187" d="M440.34,315a2.839,2.839,0,0,0-2.84,2.84v2.84a2.84,2.84,0,1,0,5.68,0v-2.84A2.839,2.839,0,0,0,440.34,315Z" transform="translate(-383.544 -269.563)" fill="#1b54f8" stroke="#fff" stroke-width="3"></path><path id="Path_188" data-name="Path 188" d="M181.675,46.359a2.839,2.839,0,0,0,2.84-2.84V37.84a2.839,2.839,0,0,0-2.84-2.84H176a2.825,2.825,0,0,0-.98,5.48L163.458,52.039h-37.4L114.5,40.48A2.825,2.825,0,0,0,113.52,35h-5.68A2.839,2.839,0,0,0,105,37.84v5.68a2.827,2.827,0,0,0,5.484.98l9.258,9.258a8.484,8.484,0,0,0-3.382,6.8V89.07a8.355,8.355,0,0,0,3.329,6.742l-9.207,9.2A2.825,2.825,0,0,0,105,106v5.68a2.839,2.839,0,0,0,2.84,2.84h5.68a2.825,2.825,0,0,0,.977-5.48l11.558-11.558h37.406l11.558,11.558a2.824,2.824,0,0,0,.976,5.48h5.68a2.839,2.839,0,0,0,2.84-2.84V106a2.825,2.825,0,0,0-5.48-.98l-9.3-9.3a8.358,8.358,0,0,0,3.314-6.634l.11-28.633a8.38,8.38,0,0,0-3.377-6.7l9.255-9.252a2.82,2.82,0,0,0,2.641,1.863ZM164.637,91.8H124.655a2.644,2.644,0,0,1-2.615-2.726V77.6h45.369l-.046,11.473a2.73,2.73,0,0,1-2.726,2.726Zm2.794-19.879H122.039V60.445a2.757,2.757,0,0,1,2.84-2.726H164.75a2.729,2.729,0,0,1,2.726,2.717Z" transform="translate(-105.001 -35)" fill="#1b54f8" stroke="#fff" stroke-width="3"></path></g></g></svg> 