<?xml version="1.0" encoding="UTF-8"?> <svg xmlns="http://www.w3.org/2000/svg" xmlns:xlink="http://www.w3.org/1999/xlink" width="90" height="90" viewBox="0 0 90 90"><defs><clipPath id="clip-path"><rect id="Rectangle_3" data-name="Rectangle 3" width="90" height="90" transform="translate(312.999)" fill="none"></rect></clipPath></defs><g id="Group_6" data-name="Group 6" transform="translate(-312.999)"><g id="Group_5" data-name="Group 5" clip-path="url(#clip-path)"><path id="Path_5" data-name="Path 5" d="M356.5,50.331v10.3a1.5,1.5,0,0,0,3,0V50.334l3.2,3.2a1.5,1.5,0,1,0,2.121-2.121l-5.763-5.763a1.5,1.5,0,0,0-2.124,0l-5.763,5.763a1.5,1.5,0,1,0,2.121,2.121Z" fill="#1a53f6" fill-rule="evenodd"></path><path id="Path_6" data-name="Path 6" d="M356.5,13.32v8.688a32.264,32.264,0,0,0-4.7.564,1.5,1.5,0,0,0-1.215,1.464l-.015,3.591a27.752,27.752,0,0,0-6.255,2.592l-2.55-2.529a1.5,1.5,0,0,0-1.893-.177c-.561.375-1.107.771-1.641,1.179v-4.9a1.5,1.5,0,0,0-.441-1.062l-3.264-3.264V17.025a5.205,5.205,0,1,0-3,0v3.063a1.494,1.494,0,0,0,.441,1.059l3.264,3.267V31.2c0,.036,0,.069,0,.1a32.682,32.682,0,0,0-4.14,4.986,1.5,1.5,0,0,0,.18,1.893l2.526,2.55a27.94,27.94,0,0,0-2.589,6.255l-8.37-.09L319.7,40.683V34.911a5.2,5.2,0,1,0-3,0V41.04a1.49,1.49,0,0,0,.159.675l3.7,7.35a1.5,1.5,0,0,0,1.329.825l3.966.033a32.469,32.469,0,0,0,.285,10.7,1.5,1.5,0,0,0,1.467,1.212l3.591.018a27.917,27.917,0,0,0,2.589,6.252l-2.526,2.55a1.5,1.5,0,0,0-.18,1.9,32.448,32.448,0,0,0,8.778,8.775,1.5,1.5,0,0,0,1.893-.18l2.55-2.526a27.752,27.752,0,0,0,6.255,2.592l.015,3.588a1.5,1.5,0,0,0,1.215,1.467,32.535,32.535,0,0,0,12.408,0,1.5,1.5,0,0,0,1.215-1.467l.015-3.588a27.752,27.752,0,0,0,6.255-2.592l2.55,2.526a1.5,1.5,0,0,0,1.893.18,32.448,32.448,0,0,0,8.778-8.775,1.5,1.5,0,0,0-.18-1.9l-2.526-2.55a27.882,27.882,0,0,0,2.589-6.255l3.591-.015a1.5,1.5,0,0,0,1.467-1.212,32.469,32.469,0,0,0,.285-10.7l3.966-.033a1.5,1.5,0,0,0,1.329-.825l3.7-7.35a1.49,1.49,0,0,0,.159-.675V34.911a5.205,5.205,0,1,0-3,0v5.772L393.163,46.9l-8.37.09a27.94,27.94,0,0,0-2.589-6.255l2.526-2.55a1.5,1.5,0,0,0,.18-1.893,32.682,32.682,0,0,0-4.14-4.986c0-.033,0-.066,0-.1V24.414l3.264-3.267a1.494,1.494,0,0,0,.441-1.059V17.025a5.2,5.2,0,1,0-3,0v2.442l-3.264,3.264a1.5,1.5,0,0,0-.441,1.062v4.9c-.534-.408-1.08-.8-1.641-1.179a1.5,1.5,0,0,0-1.893.177l-2.55,2.529a27.752,27.752,0,0,0-6.255-2.592l-.015-3.591a1.5,1.5,0,0,0-1.215-1.464,32.264,32.264,0,0,0-4.7-.564V13.32a5.2,5.2,0,1,0-3,0m5.925,11.988.015,3.492a1.5,1.5,0,0,0,1.161,1.455,24.864,24.864,0,0,1,7.527,3.117,1.5,1.5,0,0,0,1.848-.207l2.481-2.46a29.4,29.4,0,0,1,6.258,6.258l-2.46,2.481a1.5,1.5,0,0,0-.207,1.851,24.816,24.816,0,0,1,3.117,7.524,1.5,1.5,0,0,0,1.455,1.161l3.495.018a29.547,29.547,0,0,1,0,8.847l-3.495.015a1.5,1.5,0,0,0-1.455,1.161,24.833,24.833,0,0,1-3.117,7.527,1.5,1.5,0,0,0,.207,1.848l2.46,2.484a29.443,29.443,0,0,1-6.255,6.255l-2.484-2.457a1.5,1.5,0,0,0-1.848-.21,24.713,24.713,0,0,1-7.527,3.117,1.5,1.5,0,0,0-1.161,1.455l-.015,3.5a29.567,29.567,0,0,1-8.85,0l-.015-3.5a1.5,1.5,0,0,0-1.161-1.455,24.713,24.713,0,0,1-7.527-3.117,1.5,1.5,0,0,0-1.848.21l-2.481,2.457a29.388,29.388,0,0,1-6.258-6.255l2.46-2.484a1.5,1.5,0,0,0,.207-1.848,24.833,24.833,0,0,1-3.117-7.527,1.5,1.5,0,0,0-1.455-1.161l-3.495-.015a29.547,29.547,0,0,1,0-8.847l3.495-.018a1.5,1.5,0,0,0,1.455-1.161,24.816,24.816,0,0,1,3.117-7.524,1.5,1.5,0,0,0-.207-1.851l-2.46-2.481A29.388,29.388,0,0,1,340.54,30.7l2.484,2.46a1.5,1.5,0,0,0,1.848.207,24.864,24.864,0,0,1,7.527-3.117A1.5,1.5,0,0,0,353.56,28.8l.015-3.492A29.183,29.183,0,0,1,358,24.972a29.572,29.572,0,0,1,4.425.333ZM358,34.971A19.451,19.451,0,1,0,377.449,54.42,19.458,19.458,0,0,0,358,34.971m0,3A16.451,16.451,0,1,1,341.551,54.42,16.457,16.457,0,0,1,358,37.971M318.2,27.723a2.2,2.2,0,1,1-2.2,2.2,2.207,2.207,0,0,1,2.2-2.2m79.59,0a2.2,2.2,0,1,1-2.205,2.2,2.2,2.2,0,0,1,2.205-2.2M333.022,9.834a2.205,2.205,0,1,1-2.205,2.2,2.207,2.207,0,0,1,2.205-2.2m49.956,0a2.205,2.205,0,1,1-2.2,2.2,2.209,2.209,0,0,1,2.2-2.2M358,6.132a2.2,2.2,0,1,1-2.2,2.2,2.2,2.2,0,0,1,2.2-2.2" fill="#1a53f6" fill-rule="evenodd"></path></g></g></svg> 