<?xml version="1.0" encoding="UTF-8"?> <svg xmlns="http://www.w3.org/2000/svg" width="60" height="60" viewBox="0 0 60 60" fill="none"><mask id="mask0_5_298" style="mask-type:alpha" maskUnits="userSpaceOnUse" x="0" y="0" width="60" height="60"><rect width="60" height="60" fill="#D9D9D9"></rect></mask><g mask="url(#mask0_5_298)"><path d="M4.88372 7C2.19028 7 0 9.16108 0 11.8186V48.9907C0 51.6482 2.19028 53.8093 4.88372 53.8093H55.1163C57.8097 53.8093 60 51.6482 60 48.9907V11.8186C60 9.16108 57.8097 7 55.1163 7H4.88372ZM4.88372 8.37674H55.1163C57.0608 8.37674 58.6046 9.89998 58.6046 11.8186V15.2605H1.39535V11.8186C1.39535 9.89998 2.93917 8.37674 4.88372 8.37674ZM6.84593 11.1302C6.6609 11.1473 6.49033 11.2363 6.37176 11.3775C6.25318 11.5187 6.19632 11.7006 6.21366 11.8831C6.23101 12.0657 6.32115 12.234 6.46426 12.351C6.60736 12.468 6.79171 12.5241 6.97674 12.507H8.37209C8.46454 12.5083 8.55633 12.4914 8.64212 12.4574C8.72791 12.4234 8.806 12.3729 8.87184 12.3088C8.93768 12.2448 8.98996 12.1685 9.02564 12.0843C9.06133 12.0001 9.0797 11.9098 9.0797 11.8186C9.0797 11.7274 9.06133 11.6371 9.02564 11.5529C8.98996 11.4687 8.93768 11.3924 8.87184 11.3284C8.806 11.2643 8.72791 11.2138 8.64212 11.1798C8.55633 11.1458 8.46454 11.1289 8.37209 11.1302H6.97674C6.93324 11.1262 6.88944 11.1262 6.84593 11.1302ZM12.4273 11.1302C12.2423 11.1473 12.0717 11.2363 11.9532 11.3775C11.8346 11.5187 11.7777 11.7006 11.7951 11.8831C11.8124 12.0657 11.9025 12.234 12.0457 12.351C12.1888 12.468 12.3731 12.5241 12.5581 12.507H13.9535C14.0459 12.5083 14.1377 12.4914 14.2235 12.4574C14.3093 12.4234 14.3874 12.3729 14.4532 12.3088C14.5191 12.2448 14.5714 12.1685 14.607 12.0843C14.6427 12.0001 14.6611 11.9098 14.6611 11.8186C14.6611 11.7274 14.6427 11.6371 14.607 11.5529C14.5714 11.4687 14.5191 11.3924 14.4532 11.3284C14.3874 11.2643 14.3093 11.2138 14.2235 11.1798C14.1377 11.1458 14.0459 11.1289 13.9535 11.1302H12.5581C12.5146 11.1262 12.4708 11.1262 12.4273 11.1302ZM18.0087 11.1302C17.9171 11.1387 17.8281 11.1649 17.7467 11.2073C17.6654 11.2498 17.5933 11.3076 17.5345 11.3775C17.4758 11.4474 17.4317 11.528 17.4045 11.6148C17.3774 11.7016 17.3679 11.7927 17.3765 11.8831C17.385 11.9735 17.4116 12.0614 17.4546 12.1417C17.4976 12.2219 17.5562 12.2931 17.627 12.351C17.6979 12.4089 17.7796 12.4525 17.8676 12.4793C17.9555 12.506 18.0479 12.5155 18.1395 12.507H19.5349C19.6273 12.5083 19.7191 12.4914 19.8049 12.4574C19.8907 12.4234 19.9688 12.3729 20.0346 12.3088C20.1005 12.2448 20.1528 12.1685 20.1884 12.0843C20.2241 12.0001 20.2425 11.9098 20.2425 11.8186C20.2425 11.7274 20.2241 11.6371 20.1884 11.5529C20.1528 11.4687 20.1005 11.3924 20.0346 11.3284C19.9688 11.2643 19.8907 11.2138 19.8049 11.1798C19.7191 11.1458 19.6273 11.1289 19.5349 11.1302H18.1395C18.096 11.1262 18.0522 11.1262 18.0087 11.1302ZM1.39535 16.6372H58.6046V48.9907C58.6046 50.9093 57.0608 52.4326 55.1163 52.4326H4.88372C2.93917 52.4326 1.39535 50.9093 1.39535 48.9907V16.6372ZM27.0785 20.0791C26.9169 20.1095 26.7715 20.1952 26.6677 20.3212C26.564 20.4471 26.5087 20.6052 26.5116 20.7674V23.736C25.765 23.9997 25.1257 24.3369 24.5276 24.7041L22.1294 22.3378C22.0608 22.2672 21.9779 22.2117 21.8859 22.1752C21.794 22.1387 21.6953 22.1219 21.5963 22.126C21.4972 22.13 21.4002 22.1549 21.3117 22.1988C21.2232 22.2428 21.1452 22.3048 21.0828 22.3808L17.5945 26.511C17.4839 26.643 17.427 26.8108 17.4351 26.9819C17.4432 27.1529 17.5155 27.3148 17.6381 27.436L19.3823 29.157C19.0637 29.7123 18.7924 30.3024 18.4012 31.093H16.0465C15.8615 31.093 15.684 31.1656 15.5532 31.2947C15.4224 31.4238 15.3489 31.5988 15.3488 31.7814V34.5349V37.2884C15.3489 37.4709 15.4224 37.646 15.5532 37.7751C15.684 37.9042 15.8615 37.9767 16.0465 37.9767H18.423C18.809 38.7587 19.0665 39.3402 19.3823 39.8913L17.6381 41.6122C17.5155 41.7334 17.4432 41.8954 17.4351 42.0664C17.427 42.2374 17.4839 42.4053 17.5945 42.5372L21.0828 46.6674C21.1452 46.7435 21.2232 46.8055 21.3117 46.8494C21.4002 46.8934 21.4972 46.9182 21.5963 46.9223C21.6953 46.9264 21.794 46.9096 21.8859 46.873C21.9779 46.8365 22.0608 46.7811 22.1294 46.7105L24.5276 44.3442C25.1243 44.7105 25.7673 45.0486 26.5116 45.3122V48.3023C26.5116 48.4849 26.5852 48.66 26.716 48.7891C26.8468 48.9182 27.0243 48.9907 27.2093 48.9907H30H32.7907C32.9757 48.9907 33.1532 48.9182 33.284 48.7891C33.4148 48.66 33.4884 48.4849 33.4884 48.3023V45.3122C34.2327 45.0486 34.8757 44.7105 35.4724 44.3442L37.8706 46.7105C37.9392 46.7811 38.0221 46.8365 38.1141 46.873C38.206 46.9096 38.3047 46.9264 38.4037 46.9223C38.5028 46.9182 38.5998 46.8934 38.6883 46.8494C38.7768 46.8055 38.8548 46.7435 38.9171 46.6674L42.4055 42.5372C42.5161 42.4053 42.573 42.2374 42.5649 42.0664C42.5568 41.8954 42.4845 41.7334 42.3619 41.6122L40.6177 39.8913C40.9335 39.3402 41.191 38.7587 41.577 37.9767H43.9535C44.1385 37.9767 44.316 37.9042 44.4468 37.7751C44.5776 37.646 44.6511 37.4709 44.6512 37.2884V34.5349V31.7814C44.6511 31.5988 44.5776 31.4238 44.4468 31.2947C44.316 31.1656 44.1385 31.093 43.9535 31.093H41.5988C41.2076 30.3024 40.9363 29.7123 40.6177 29.157L42.3619 27.436C42.4845 27.3148 42.5568 27.1529 42.5649 26.9819C42.573 26.8108 42.5161 26.643 42.4055 26.511L38.9171 22.3808C38.8548 22.3048 38.7768 22.2428 38.6883 22.1988C38.5998 22.1549 38.5028 22.13 38.4037 22.126C38.3047 22.1219 38.206 22.1387 38.1141 22.1752C38.0221 22.2117 37.9392 22.2672 37.8706 22.3378L35.4724 24.7041C34.8743 24.3369 34.235 23.9997 33.4884 23.736V20.7674C33.4884 20.5849 33.4148 20.4098 33.284 20.2807C33.1532 20.1516 32.9757 20.0791 32.7907 20.0791H30H27.2093C27.1658 20.075 27.122 20.075 27.0785 20.0791ZM27.907 21.4558H30H32.093V24.2093C32.093 24.362 32.1443 24.5103 32.239 24.631C32.3338 24.7518 32.4665 24.838 32.6163 24.8762C33.5305 25.1007 34.2867 25.6058 35.2326 26.1669C35.3662 26.2448 35.5224 26.2766 35.6764 26.2571C35.8304 26.2376 35.9735 26.168 36.0828 26.0593L38.3285 23.8436L40.9012 26.9198L39.266 28.5331C39.1518 28.6492 39.0827 28.8011 39.0708 28.9624C39.0588 29.1237 39.1048 29.2839 39.2006 29.4151C39.6644 30.0623 39.7919 30.6888 40.5523 32.1041C40.6113 32.2136 40.6991 32.3055 40.8065 32.3698C40.914 32.4342 41.0371 32.4687 41.1628 32.4698H43.2558V34.5349V36.6H41.1628C41.0371 36.601 40.914 36.6356 40.8065 36.6999C40.6991 36.7643 40.6113 36.8561 40.5523 36.9657C39.7919 38.381 39.6644 38.9861 39.2006 39.6331C39.1048 39.7643 39.0588 39.9246 39.0708 40.0859C39.0827 40.2471 39.1518 40.3991 39.266 40.5151L40.9012 42.1285L38.3285 45.2047L36.0828 42.989C35.9735 42.8802 35.8304 42.8106 35.6764 42.7911C35.5224 42.7717 35.3662 42.8034 35.2326 42.8814C34.2868 43.4426 33.5305 43.9691 32.6163 44.1936C32.4665 44.2318 32.3338 44.318 32.239 44.4387C32.1443 44.5594 32.093 44.7078 32.093 44.8605V47.614H30H27.907V44.8605C27.907 44.7078 27.8557 44.5594 27.761 44.4387C27.6662 44.318 27.5335 44.2318 27.3837 44.1936C26.4695 43.9691 25.7132 43.4426 24.7674 42.8814C24.6338 42.8034 24.4776 42.7717 24.3236 42.7911C24.1696 42.8106 24.0265 42.8802 23.9172 42.989L21.6715 45.2047L19.0988 42.1285L20.734 40.5151C20.8482 40.3991 20.9173 40.2471 20.9292 40.0859C20.9412 39.9246 20.8952 39.7643 20.7994 39.6331C20.3356 38.9861 20.2081 38.381 19.4477 36.9657C19.3887 36.8561 19.3009 36.7643 19.1935 36.6999C19.086 36.6356 18.9629 36.601 18.8372 36.6H16.7442V34.5349V32.4698H18.8372C18.9629 32.4687 19.086 32.4342 19.1935 32.3698C19.3009 32.3055 19.3887 32.2136 19.4477 32.1041C20.2081 30.6888 20.3356 30.0623 20.7994 29.4151C20.8952 29.2839 20.9412 29.1237 20.9292 28.9624C20.9173 28.8011 20.8482 28.6492 20.734 28.5331L19.0988 26.9198L21.6715 23.8436L23.9172 26.0593C24.0265 26.168 24.1696 26.2376 24.3236 26.2571C24.4776 26.2766 24.6338 26.2448 24.7674 26.1669C25.7133 25.6058 26.4695 25.1007 27.3837 24.8762C27.5335 24.838 27.6662 24.7518 27.761 24.631C27.8557 24.5103 27.907 24.362 27.907 24.2093V21.4558ZM30 28.3395C26.5404 28.3395 23.7209 31.1215 23.7209 34.5349C23.7209 37.9483 26.5404 40.7302 30 40.7302C33.4596 40.7302 36.2791 37.9483 36.2791 34.5349C36.2791 31.1215 33.4596 28.3395 30 28.3395ZM30 29.7163C32.7055 29.7163 34.8837 31.8655 34.8837 34.5349C34.8837 37.2043 32.7055 39.3535 30 39.3535C27.2945 39.3535 25.1163 37.2043 25.1163 34.5349C25.1163 31.8655 27.2945 29.7163 30 29.7163Z" fill="#1B54F8" stroke="#1B54F8" stroke-width="0.5"></path></g></svg> 