<?xml version="1.0" encoding="UTF-8"?> <!-- Generator: Adobe Illustrator 25.3.1, SVG Export Plug-In . SVG Version: 6.00 Build 0) --> <svg xmlns="http://www.w3.org/2000/svg" xmlns:xlink="http://www.w3.org/1999/xlink" version="1.1" id="Layer_1" x="0px" y="0px" viewBox="0 0 56 56" style="enable-background:new 0 0 56 56;" xml:space="preserve"> <style type="text/css"> .st0{fill:#1B54F8;} .st1{fill:none;stroke:#1B54F8;stroke-width:2;stroke-miterlimit:10;} </style> <path class="st0" d="M34,22.3h-3.1c-0.3,0-0.5,0.2-0.5,0.5c0,0,0,0,0,0.1v3.1c0,0.3,0.2,0.5,0.5,0.5c0,0,0,0,0.1,0h1v2.1 c0,0.2-0.1,0.4-0.2,0.5l-3.4,3.4V21.3h1.5c0.2,0,0.4-0.1,0.5-0.3c0.1-0.2,0.1-0.4,0-0.5l-2.1-4.1c-0.1-0.3-0.5-0.3-0.7-0.2 c-0.1,0-0.1,0.1-0.2,0.2l-2.1,4.1c-0.1,0.2-0.1,0.3,0,0.5c0.1,0.2,0.3,0.3,0.5,0.3h1.5V35l-3.4-3.4c-0.1-0.1-0.2-0.3-0.2-0.5v-2.5 c1.1-0.3,1.8-1.4,1.5-2.5c-0.3-1.1-1.4-1.8-2.5-1.5c-0.9,0.2-1.6,1.1-1.6,2c0,0.9,0.6,1.7,1.5,2v2.5c0,0.5,0.2,0.9,0.5,1.2l4.1,4.1 v0.4c-1.1,0.3-1.8,1.4-1.5,2.5c0.3,1.1,1.4,1.8,2.5,1.5c0.9-0.2,1.6-1.1,1.6-2c0-0.9-0.6-1.7-1.5-2v-2.9l4.1-4.1 c0.3-0.3,0.5-0.8,0.5-1.2v-2.1h1c0.3,0,0.5-0.2,0.5-0.5c0,0,0,0,0-0.1v-3.1C34.5,22.6,34.3,22.4,34,22.3z M26.6,20.3l1.2-2.5 l1.2,2.5H26.6z M22.1,26.6c0-0.6,0.4-1,1-1s1,0.4,1,1s-0.4,1-1,1C22.6,27.6,22.1,27.2,22.1,26.6C22.1,26.6,22.1,26.6,22.1,26.6 L22.1,26.6z M28.8,38.8c0,0.6-0.4,1-1,1s-1-0.4-1-1s0.4-1,1-1C28.4,37.8,28.8,38.3,28.8,38.8L28.8,38.8z M33.5,25.4h-2.1v-2.1h2.1 L33.5,25.4z"></path> <path class="st1" d="M50.2,22.2h-4.9c-0.2-0.6-0.5-1.2-0.8-1.8l3.4-3.5c1.5-1.5,1.5-3.8,0-5.3c0,0,0,0,0,0l0,0L44.4,8 c-1.5-1.5-3.8-1.5-5.3,0c0,0,0,0,0,0l0,0l-3.4,3.4c-0.6-0.3-1.2-0.5-1.9-0.8V5.8c0-2.1-1.7-3.8-3.8-3.8c0,0,0,0-0.1,0h-5 c-2.1,0-3.8,1.7-3.8,3.8c0,0,0,0,0,0v4.9c-0.6,0.2-1.3,0.5-1.9,0.8L15.9,8c-1.5-1.5-3.8-1.5-5.3,0c0,0,0,0,0,0l0,0L7,11.6 c-1.5,1.5-1.5,3.8,0,5.3c0,0,0,0,0,0l0,0l3.4,3.5c-0.3,0.6-0.5,1.2-0.8,1.8H4.8c-2.1,0-3.8,1.7-3.8,3.8c0,0,0,0,0,0.1v5 c0,2.1,1.7,3.8,3.8,3.8c0,0,0,0,0,0h4.9c0.2,0.6,0.5,1.3,0.8,1.9L7,40.1c-1.5,1.5-1.5,3.8,0,5.3c0,0,0,0,0,0l0,0l3.6,3.6 c1.5,1.5,3.8,1.5,5.3,0c0,0,0,0,0,0l0,0l3.5-3.4c0.6,0.3,1.2,0.5,1.8,0.8v4.9c0,2.1,1.7,3.8,3.8,3.8c0,0,0.1,0,0.1,0h5 c2.1,0,3.8-1.7,3.8-3.8c0,0,0,0,0,0v-4.9c0.6-0.2,1.2-0.5,1.8-0.8l3.5,3.4c1.5,1.5,3.8,1.5,5.3,0c0,0,0,0,0,0l0,0l3.6-3.6 c1.5-1.5,1.5-3.8,0-5.3c0,0,0,0,0,0l0,0l-3.4-3.4c0.3-0.6,0.5-1.2,0.8-1.9h4.9c2.1,0,3.8-1.7,3.8-3.8c0,0,0-0.1,0-0.1l0,0v-5 C54,23.9,52.3,22.2,50.2,22.2C50.2,22.2,50.2,22.2,50.2,22.2z M27.5,43.2c-8.1,0-14.7-6.6-14.7-14.7c0-8.1,6.6-14.7,14.7-14.7 c8.1,0,14.7,6.6,14.7,14.7C42.2,36.6,35.6,43.2,27.5,43.2L27.5,43.2z"></path> </svg> 