<?xml version="1.0" encoding="UTF-8"?> <!-- Generator: Adobe Illustrator 25.2.2, SVG Export Plug-In . SVG Version: 6.00 Build 0) --> <svg xmlns="http://www.w3.org/2000/svg" xmlns:xlink="http://www.w3.org/1999/xlink" version="1.1" id="Layer_1" x="0px" y="0px" viewBox="0 0 94 94" style="enable-background:new 0 0 94 94;" xml:space="preserve"> <style type="text/css"> .st0{fill:none;stroke:#1B54F8;stroke-width:3;stroke-miterlimit:10;} .st1{fill:#1B54F8;} </style> <desc>Created with Sketch.</desc> <g> <path class="st0" d="M77.2,40.7C84.3,43.1,89,49.7,89,57c0,9.2-7.8,16.8-17,16.8H22c-9.4,0-17-7.6-17-16.8c0-8.7,6.4-16,15.1-17 c0.9-5.9,4.7-10.6,10.1-12.7c5.2-2.1,11.1-1.7,15.6,1.4c4.2-7.8,13-10.1,20.8-7.3C74.6,24.5,79.3,32.2,77.2,40.7z"></path> </g> <g> <g> <path class="st1" d="M48.6,32.5c0.2-0.8,0.8-1.3,1.6-1.3h3.4c0.8,0,1.4,0.6,1.6,1.3l0.5,2.5c1,0.4,2,0.9,2.8,1.6l2.4-0.8 c0.8-0.2,1.6,0,2,0.7l1.7,2.9c0.4,0.7,0.2,1.5-0.4,2.1l-1.9,1.7c0.2,1.1,0.2,2.2,0,3.2l1.9,1.7c0.6,0.5,0.8,1.4,0.4,2.1l-1.7,2.9 c-0.4,0.7-1.2,1-2,0.7L58.5,53c-0.8,0.7-1.8,1.2-2.8,1.6l-0.5,2.5c-0.2,0.8-0.8,1.3-1.6,1.3h-3.4c-0.8,0-1.4-0.6-1.6-1.3L48,54.7 c-1-0.4-2-0.9-2.8-1.6l-2.4,0.8c-0.8,0.2-1.6,0-2-0.7l-1.7-2.9c-0.4-0.7-0.2-1.5,0.4-2.1l1.9-1.7c-0.2-1.1-0.2-2.2,0-3.2l-1.9-1.7 c-0.6-0.5-0.8-1.4-0.4-2.1l1.7-2.9c0.4-0.7,1.2-1,2-0.7l2.4,0.8C46.1,36,47,35.4,48,35L48.6,32.5z M45.7,38.8l-3.3-1.1l-1.5,2.6 l2.6,2.3c-0.4,1.8-0.4,2.8,0,4.6l-2.6,2.3l1.5,2.6l3.3-1.1c1.4,1.2,2.2,1.7,4,2.3l0.7,3.4h2.9l0.7-3.4c1.8-0.6,2.6-1.1,4-2.3 l3.3,1.1l1.5-2.6l-2.6-2.3c0.4-1.8,0.4-2.8,0-4.6l2.6-2.3l-1.5-2.6L58,38.8c-1.4-1.2-2.2-1.7-4-2.3l-0.7-3.4h-2.9l-0.7,3.4 C47.9,37,47.1,37.5,45.7,38.8z"></path> <path class="st1" d="M53.6,58.7h-3.4c-1,0-1.6-0.7-1.8-1.5l-0.6-2.3c-1.1-0.5-2-0.9-2.6-1.5l-2.3,0.8c-1,0.2-1.9-0.1-2.3-0.8 l-1.7-2.9c-0.4-0.8-0.3-1.7,0.4-2.4l1.8-1.6c-0.2-1-0.2-2.1,0-3l-1.8-1.6c-0.7-0.6-0.9-1.6-0.5-2.4l1.7-2.9 c0.5-0.8,1.4-1.1,2.3-0.8l2.3,0.8c1-0.8,1.8-1.3,2.6-1.6l0.6-2.4c0.2-0.9,0.9-1.5,1.8-1.5h3.4c1,0,1.6,0.7,1.8,1.5l0.5,2.4 c1.1,0.5,2,0.9,2.6,1.5l2.3-0.8c1-0.2,1.9,0.1,2.3,0.8l1.7,2.9c0.4,0.8,0.3,1.7-0.4,2.4l-1.8,1.6c0.2,1,0.2,2.1,0,3l1.8,1.6 c0.7,0.6,0.9,1.6,0.4,2.4L63,53.3c-0.5,0.8-1.4,1.1-2.3,0.8l-2.3-0.8c-0.7,0.6-1.5,1-2.6,1.5l-0.5,2.4 C55.2,58.1,54.5,58.7,53.6,58.7z M45.3,52.8L45.3,52.8c0.8,0.7,1.6,1.2,2.8,1.7h0.1l0.6,2.5c0.2,0.5,0.6,1.1,1.4,1.1h3.4 c0.7,0,1.2-0.4,1.4-1.1l0.5-2.6l0.1-0.1c1.2-0.5,2.1-1,2.7-1.6l0.1-0.1l2.5,0.8c0.7,0.3,1.4,0,1.7-0.6l1.7-2.9 c0.3-0.6,0.2-1.3-0.3-1.8l-2-1.8v-0.1c0.2-1,0.2-2,0-3.1V43l2-1.8c0.5-0.5,0.7-1.2,0.3-1.8l-1.7-2.9c-0.3-0.6-1-0.8-1.7-0.6 l-2.5,0.8l-0.1-0.1c-0.7-0.6-1.5-1.1-2.7-1.6l-0.1-0.1L55,32.5c-0.2-0.5-0.6-1.1-1.4-1.1h-3.4c-0.7,0-1.2,0.4-1.4,1.1l-0.6,2.6 h-0.1c-0.9,0.3-1.7,0.9-2.7,1.7L45.2,37l-2.5-0.8c-0.7-0.3-1.4,0-1.7,0.6l-1.7,2.9c-0.3,0.6-0.2,1.3,0.3,1.8l2,1.8v0.1 c-0.2,1-0.2,2,0,3.1v0.1l-2,1.8c-0.5,0.5-0.7,1.2-0.3,1.8l1.7,2.9c0.3,0.6,1,0.8,1.7,0.6L45.3,52.8z M53.5,57h-3.3l-0.7-3.5 c-1.7-0.6-2.5-1.1-3.8-2.2l-3.4,1.1l-1.7-3l2.6-2.3c-0.4-1.7-0.4-2.7,0-4.4l-2.6-2.3l1.7-3l3.4,1.1c1.3-1.2,2.1-1.7,3.8-2.2 l0.7-3.5h3.3l0.7,3.5c1.7,0.6,2.5,1.1,3.8,2.2l3.4-1.1l1.7,3l-2.6,2.3c0.4,1.7,0.4,2.7,0,4.4l2.6,2.3l-1.7,3L58,51.3 c-1.3,1.1-2.1,1.6-3.8,2.2L53.5,57z M50.6,56.5h2.5l0.7-3.3h0.1c1.8-0.6,2.6-1.1,3.9-2.3l0.1-0.1l3.2,1.1l1.3-2.2l-2.6-2.3v-0.1 c0.4-1.8,0.4-2.7,0-4.5v-0.1l2.6-2.3L61.2,38L58,39.1L57.8,39c-1.4-1.2-2.1-1.7-3.9-2.3h-0.1l-0.7-3.3h-2.5l-0.7,3.4h-0.1 c-1.8,0.5-2.6,1-3.9,2.2l-0.1,0.1L42.5,38l-1.3,2.2l2.6,2.3v0.1c-0.4,1.8-0.4,2.7,0,4.5v0.1l-2.6,2.3l1.3,2.2l3.2-1.1l0.1,0.1 c1.4,1.2,2.1,1.7,3.9,2.3h0.1L50.6,56.5z"></path> </g> <g> <path class="st1" d="M57.1,44.9c0,2.9-2.4,5.2-5.2,5.2c-2.9,0-5.2-2.4-5.2-5.2c0-2.9,2.4-5.2,5.2-5.2C54.8,39.6,57.1,42,57.1,44.9 z M48.5,44.9c0,1.9,1.5,3.4,3.4,3.4s3.4-1.5,3.4-3.4s-1.5-3.4-3.4-3.4S48.5,43,48.5,44.9z"></path> <path class="st1" d="M51.9,50.3c-3,0-5.5-2.4-5.5-5.4s2.4-5.4,5.5-5.4c1.4,0,2.7,0.5,3.8,1.5s1.7,2.5,1.7,4 C57.3,47.9,54.9,50.3,51.9,50.3z M52.1,39.9c-0.1,0-0.1,0-0.2,0c-2.7,0-5,2.2-5,4.9s2.2,4.9,5,4.9s4.9-2.2,4.9-4.9 c0-1.4-0.6-2.7-1.5-3.6C54.4,40.4,53.3,39.9,52.1,39.9z M51.9,48.5c-2,0-3.7-1.6-3.7-3.6s1.6-3.6,3.7-3.6s3.6,1.6,3.6,3.6 S53.9,48.5,51.9,48.5z M51.9,41.8c-1.8,0-3.2,1.4-3.2,3.1s1.4,3.1,3.2,3.1s3.1-1.4,3.1-3.1S53.7,41.8,51.9,41.8z"></path> </g> <g> <path class="st1" d="M35,53.7c0.1-0.6,0.7-1.1,1.3-1.1h2c0.7,0,1.2,0.5,1.3,1.1l0.3,1.3c0.5,0.2,1,0.5,1.4,0.8l1.3-0.4 c0.6-0.2,1.3,0,1.6,0.6l1,1.7c0.3,0.6,0.2,1.3-0.3,1.7l-1,0.9c0.1,0.6,0.1,1.1,0,1.6l1,0.9c0.5,0.4,0.6,1.1,0.3,1.7l-1,1.7 c-0.3,0.6-1,0.8-1.6,0.6l-1.3-0.4c-0.4,0.3-0.9,0.6-1.4,0.8l-0.3,1.3c-0.1,0.6-0.7,1.1-1.3,1.1h-2c-0.7,0-1.2-0.5-1.3-1.1 l-0.3-1.3c-0.5-0.2-1-0.5-1.4-0.8L32,66.8c-0.6,0.2-1.3,0-1.6-0.6l-1-1.7c-0.3-0.6-0.2-1.3,0.3-1.7l1-0.9c-0.1-0.6-0.1-1.1,0-1.6 l-1-0.9c-0.5-0.4-0.6-1.1-0.3-1.7l1-1.7c0.3-0.6,1-0.8,1.6-0.6l1.3,0.4c0.4-0.3,0.9-0.6,1.4-0.8L35,53.7z M33.7,57.9l-1.9-0.6 l-0.6,1l1.5,1.3c-0.3,1.3-0.3,1.7,0,3L31.3,64l0.6,1l1.9-0.6c1,0.9,1.4,1.1,2.6,1.5l0.4,1.9h1.1l0.4-1.9c1.3-0.4,1.6-0.6,2.6-1.5 l1.9,0.6l0.6-1l-1.5-1.3c0.3-1.3,0.3-1.7,0-3l1.5-1.3l-0.6-1L40.9,58c-1-0.9-1.4-1.1-2.6-1.5l-0.4-1.9h-1.1l-0.4,1.9 C35.1,56.8,34.7,57,33.7,57.9z"></path> <path class="st1" d="M38.3,69.8h-2c-0.8,0-1.4-0.5-1.5-1.3l-0.3-1.2c-0.4-0.2-0.8-0.4-1.2-0.7L32.1,67c-0.8,0.3-1.6-0.1-1.9-0.7 l-1-1.7c-0.4-0.7-0.2-1.6,0.4-2l0.9-0.8c-0.1-0.5-0.1-1,0-1.4l-0.9-0.8c-0.6-0.5-0.7-1.3-0.4-2l1-1.7c0.3-0.7,1.1-1,1.9-0.7 l1.2,0.4c0.4-0.3,0.8-0.5,1.2-0.7l0.3-1.2c0.1-0.7,0.8-1.3,1.5-1.3h2c0.8,0,1.4,0.5,1.5,1.3l0.3,1.2c0.4,0.2,0.8,0.4,1.2,0.7 l1.2-0.4c0.8-0.3,1.6,0.1,1.9,0.7l1,1.7c0.4,0.7,0.2,1.6-0.4,2l-0.9,0.8c0.1,0.5,0.1,1,0,1.4l0.9,0.8c0.6,0.5,0.7,1.3,0.4,2 l-1,1.7c-0.3,0.7-1.1,1-1.9,0.7l-1.2-0.4c-0.4,0.3-0.8,0.5-1.2,0.7l-0.3,1.2C39.7,69.3,39,69.8,38.3,69.8z M33.3,66.1L33.3,66.1 c0.5,0.4,1,0.7,1.4,0.9h0.1l0.3,1.4c0.1,0.4,0.4,0.9,1.1,0.9h2c0.5,0,1-0.4,1.1-0.9l0.3-1.4h0.1c0.4-0.2,0.9-0.4,1.3-0.8l0.1-0.1 l1.4,0.4c0.5,0.2,1,0,1.3-0.5l1-1.7c0.2-0.5,0.1-1.1-0.2-1.4l-1.1-1v-0.1c0.1-0.5,0.1-0.9,0-1.5v-0.1l1.1-1 c0.4-0.3,0.5-0.9,0.2-1.4l-1-1.7c-0.3-0.5-0.9-0.6-1.3-0.5L41.1,56l0,0c-0.4-0.3-0.9-0.6-1.3-0.8h-0.1l-0.3-1.4 c-0.1-0.4-0.4-0.9-1.1-0.9h-2c-0.5,0-1,0.4-1.1,0.9l0,0l-0.3,1.4h-0.1c-0.4,0.2-0.9,0.4-1.3,0.8l-0.1,0.1L32,55.7 c-0.5-0.2-1,0-1.3,0.5l-1,1.7c-0.2,0.5-0.1,1.1,0.2,1.4l1.1,1v0.1c-0.1,0.5-0.1,0.9,0,1.5V62l-1.1,1c-0.4,0.3-0.5,0.9-0.2,1.4 l1,1.7c0.3,0.5,0.9,0.6,1.3,0.5L33.3,66.1z M38.1,68h-1.5l-0.4-2c-1.1-0.4-1.5-0.6-2.4-1.4l-2,0.6L31,64l1.4-1.4 c-0.3-1.2-0.3-1.6,0-2.8l-1.5-1.3l0.8-1.3l2,0.6c0.9-0.8,1.4-1,2.5-1.3l0.4-1.9h1.5l0.4,2c1.1,0.4,1.5,0.6,2.4,1.4l2-0.6l0.8,1.3 L42.2,60c0.3,1.2,0.3,1.6,0,2.8l1.5,1.3l-0.8,1.3l-2-0.6c-0.9,0.8-1.3,1-2.4,1.4L38.1,68z M37,67.5h0.7l0.4-1.8h0.1 c1.3-0.4,1.5-0.6,2.5-1.4l0.1-0.1l1.8,0.6l0.4-0.7l-1.5-1.3v-0.1c0.3-1.3,0.3-1.6,0-2.9v-0.1l1.5-1.3l-0.4-0.7l-1.8,0.6l-0.1-0.1 c-1-0.9-1.3-1.1-2.5-1.4h-0.1L37.7,55H37l-0.4,1.9h-0.2c-1.3,0.3-1.6,0.5-2.6,1.3l-0.1,0.1l-1.8-0.6l-0.4,0.7l1.5,1.3v0.1 c-0.3,1.3-0.3,1.6,0,2.9v0.1L31.6,64l0.4,0.7l1.8-0.6l0.1,0.1c1,0.9,1.4,1.1,2.5,1.4h0.1L37,67.5z"></path> </g> <g> <path class="st1" d="M40.2,61.1c0,1.6-1.3,2.9-2.9,2.9c-1.6,0-2.9-1.3-2.9-2.9c0-1.6,1.3-2.9,2.9-2.9 C38.9,58.2,40.2,59.5,40.2,61.1z M36.3,61.1c0,0.6,0.4,1,1,1c0.5,0,1-0.4,1-1s-0.4-1-1-1C36.8,60.1,36.3,60.6,36.3,61.1z"></path> <path class="st1" d="M37.3,64.2c-1.7,0-3.1-1.4-3.1-3.2c0-1.7,1.4-3.1,3.1-3.1c1.7,0,3.2,1.4,3.2,3.1C40.5,62.8,39,64.2,37.3,64.2 z M37.3,58.5c-1.5,0-2.6,1.2-2.6,2.6c0,1.5,1.2,2.7,2.6,2.7c1.5,0,2.7-1.2,2.7-2.7S38.8,58.5,37.3,58.5z M37.3,62.3 c-0.7,0-1.2-0.5-1.2-1.2c0-0.6,0.6-1.2,1.2-1.2c0.7,0,1.2,0.5,1.2,1.2C38.5,61.9,37.9,62.3,37.3,62.3z M37.3,60.3 c-0.4,0-0.8,0.4-0.8,0.8c0,0.5,0.3,0.8,0.8,0.8c0.4,0,0.8-0.3,0.8-0.8S37.8,60.3,37.3,60.3z"></path> </g> </g> </svg> 