<?xml version="1.0" encoding="UTF-8"?> <!-- Generator: Adobe Illustrator 25.2.3, SVG Export Plug-In . SVG Version: 6.00 Build 0) --> <svg xmlns="http://www.w3.org/2000/svg" xmlns:xlink="http://www.w3.org/1999/xlink" version="1.1" id="Layer_1" x="0px" y="0px" viewBox="0 0 94 94" style="enable-background:new 0 0 94 94;" xml:space="preserve"> <style type="text/css"> .st0{fill:#E6EEFF;} .st1{fill:#1B54F8;} </style> <desc>Created with Sketch.</desc> <path class="st0" d="M87.5,93.5h-81c-3.3,0-6-2.7-6-6v-81c0-3.3,2.7-6,6-6h81c3.3,0,6,2.7,6,6v81C93.5,90.8,90.8,93.5,87.5,93.5z"></path> <g> <ellipse class="st1" cx="48.5" cy="34.2" rx="12.8" ry="13.4"></ellipse> <polygon class="st1" points="46.5,49.4 19.8,49.4 19.8,73.2 43.8,73.2 46.5,73.2 55.2,73.2 55.2,70.7 46.5,70.7 "></polygon> <path class="st1" d="M66.1,63.4c-2.7,0-4.9,2.2-4.9,4.9c0,0.2,0,0.3,0,0.5c0,0.1,0,0.2,0.1,0.2c0,0.1,0,0.2,0.1,0.2 c0,0.1,0.1,0.2,0.1,0.3s0,0.1,0.1,0.1c0.1,0.1,0.1,0.2,0.1,0.4v0.1c0.1,0.1,0.1,0.2,0.2,0.4l0,0c0.8,1.6,2.4,2.6,4.4,2.6 c2.6,0,4.8-2.1,4.9-4.7l0,0c0-0.1,0-0.1,0-0.2C71,65.6,68.8,63.4,66.1,63.4z"></path> <path class="st1" d="M74.2,64.3c-1.5-12-17.1-15.9-19-16.3l-6.5,5.1l-0.5-0.4V69h7h1.6v1.6v2.1c1.4-0.2,2.7-0.4,3.9-0.7 c-0.8-1.1-1.2-2.4-1.2-3.7c0-3.6,2.9-6.5,6.5-6.5c3.3,0,6.1,2.5,6.5,5.7c0.1-0.1,0.2-0.1,0.2-0.2C73.8,66.7,74.3,65.6,74.2,64.3z"></path> </g> </svg> 