<?xml version="1.0" encoding="UTF-8"?> <svg xmlns="http://www.w3.org/2000/svg" xmlns:xlink="http://www.w3.org/1999/xlink" id="Layer_1" data-name="Layer 1" viewBox="0 0 80 80"><defs><style>.cls-1,.cls-4{fill:#fff;}.cls-2{mask:url(#mask);}.cls-3{fill:#1b54f8;stroke:#fff;stroke-width:0.65px;}.cls-4{stroke:#1b54f8;stroke-width:1.8px;}</style><mask id="mask" x="9.71" y="9" width="56.62" height="62" maskUnits="userSpaceOnUse"><g id="mask-2"><rect id="path-1" class="cls-1" x="38" y="9" width="28" height="62"></rect></g></mask></defs><g id="Digital-Transformation-"><g id="Group"><g id="settings"><g id="Mask-2-2" data-name="Mask"><rect id="path-1-2" data-name="path-1" class="cls-1" x="38" y="9" width="28" height="62"></rect></g><g class="cls-2"><g id="Shape"><path class="cls-3" d="M12.9,34.11l3.93-.67a21.86,21.86,0,0,1,1.58-3.81l-2.32-3.24a3.44,3.44,0,0,1,.38-4.45L20,18.45a3.43,3.43,0,0,1,2.44-1,3.38,3.38,0,0,1,2,.64l3.25,2.31a22.62,22.62,0,0,1,3.95-1.62l.66-3.88A3.46,3.46,0,0,1,35.66,12h4.92A3.46,3.46,0,0,1,44,14.89l.68,4a22.51,22.51,0,0,1,3.8,1.6l3.21-2.31a3.46,3.46,0,0,1,4.45.37L59.64,22A3.45,3.45,0,0,1,60,26.46l-2.33,3.29a21.84,21.84,0,0,1,1.55,3.82l3.88.65A3.47,3.47,0,0,1,66,37.64v4.92A3.45,3.45,0,0,1,63.11,46l-4,.68a21.84,21.84,0,0,1-1.6,3.8l2.3,3.21a3.44,3.44,0,0,1-.38,4.45L56,61.59a3.44,3.44,0,0,1-4.44.38l-3.29-2.34a22.38,22.38,0,0,1-3.69,1.52l-.66,3.93A3.45,3.45,0,0,1,40.49,68H35.56a3.46,3.46,0,0,1-3.42-2.89l-.66-3.93a22.32,22.32,0,0,1-3.81-1.58l-3.24,2.32a3.46,3.46,0,0,1-2,.64h0a3.43,3.43,0,0,1-2.45-1L16.49,58a3.47,3.47,0,0,1-.38-4.46l2.32-3.25a22.19,22.19,0,0,1-1.58-3.81l-3.93-.65A3.46,3.46,0,0,1,10,42.44V37.52A3.42,3.42,0,0,1,12.9,34.11Zm.27,8.33a.3.3,0,0,0,.26.31l4.91.82a1.56,1.56,0,0,1,1.26,1.15,18.59,18.59,0,0,0,2,4.9,1.58,1.58,0,0,1-.07,1.72l-2.89,4.07a.32.32,0,0,0,0,.4l3.48,3.48a.32.32,0,0,0,.23.09.31.31,0,0,0,.17-.05l4.06-2.89a1.58,1.58,0,0,1,1.72-.07,18.59,18.59,0,0,0,4.9,2,1.55,1.55,0,0,1,1.15,1.26l.83,4.91a.3.3,0,0,0,.31.26h4.92a.29.29,0,0,0,.3-.26l.82-4.91a1.57,1.57,0,0,1,1.16-1.26,19.56,19.56,0,0,0,4.79-2,1.65,1.65,0,0,1,.8-.21,1.54,1.54,0,0,1,.91.29l4.09,2.91a.32.32,0,0,0,.18.06.32.32,0,0,0,.22-.09l3.48-3.49a.32.32,0,0,0,0-.4l-2.88-4a1.62,1.62,0,0,1-.07-1.73,18.81,18.81,0,0,0,2.06-4.89,1.58,1.58,0,0,1,1.26-1.15l5-.85a.29.29,0,0,0,.25-.3V37.64a.31.31,0,0,0-.25-.31l-4.88-.81a1.58,1.58,0,0,1-1.27-1.17,18.92,18.92,0,0,0-2-4.91,1.56,1.56,0,0,1,.08-1.71l2.91-4.09a.33.33,0,0,0,0-.4l-3.49-3.48a.27.27,0,0,0-.22-.1.35.35,0,0,0-.18.06l-4,2.88a1.62,1.62,0,0,1-1.73.07,18.47,18.47,0,0,0-4.89-2.06,1.58,1.58,0,0,1-1.15-1.26l-.85-5a.29.29,0,0,0-.3-.25H35.64a.31.31,0,0,0-.31.25l-.81,4.88a1.59,1.59,0,0,1-1.17,1.27,19.31,19.31,0,0,0-5,2.06,1.6,1.6,0,0,1-1.72-.07l-4-2.9a.32.32,0,0,0-.18-.06.32.32,0,0,0-.22.09L18.7,24.16a.32.32,0,0,0,0,.4l2.89,4.05a1.58,1.58,0,0,1,.07,1.72,18.59,18.59,0,0,0-2,4.9,1.58,1.58,0,0,1-1.27,1.16l-4.91.83a.29.29,0,0,0-.25.3v4.92Z"></path><path class="cls-3" d="M38,27.9A12.08,12.08,0,1,1,25.93,40,12.08,12.08,0,0,1,38,27.9Zm0,21A8.92,8.92,0,1,0,29.09,40,8.93,8.93,0,0,0,38,48.9Z"></path></g></g></g><rect id="Rectangle" class="cls-4" x="27" y="16" width="6" height="6" rx="1"></rect><rect id="Rectangle-2" data-name="Rectangle" class="cls-4" x="27" y="30" width="6" height="6" rx="1"></rect><rect id="Rectangle-3" data-name="Rectangle" class="cls-4" x="27" y="44" width="6" height="6" rx="1"></rect><rect id="Rectangle-4" data-name="Rectangle" class="cls-4" x="27" y="58" width="6" height="6" rx="1"></rect><rect id="Rectangle-5" data-name="Rectangle" class="cls-4" x="15" y="23" width="6" height="6" rx="1"></rect><rect id="Rectangle-6" data-name="Rectangle" class="cls-4" x="15" y="37" width="6" height="6" rx="1"></rect><rect id="Rectangle-7" data-name="Rectangle" class="cls-4" x="15" y="51" width="6" height="6" rx="1"></rect></g></g></svg> 