<?xml version="1.0" encoding="UTF-8"?> <!-- Generator: Adobe Illustrator 25.2.2, SVG Export Plug-In . SVG Version: 6.00 Build 0) --> <svg xmlns="http://www.w3.org/2000/svg" xmlns:xlink="http://www.w3.org/1999/xlink" version="1.1" id="Layer_1" x="0px" y="0px" viewBox="0 0 80 80" style="enable-background:new 0 0 80 80;" xml:space="preserve"> <style type="text/css"> .st0{fill:#1B54F8;} </style> <path class="st0" d="M30.8,60c-1-0.3-1.9-0.8-2.7-1.5v-1.7c1.2-1.1,1.9-2.7,1.9-4.4v-4.3c0-3.5-2.8-6.2-6.6-6.2s-6.6,2.7-6.6,6.2 v4.3c0,1.7,0.7,3.3,1.9,4.4v1.7c-0.7,0.7-1.7,1.2-2.7,1.5c-2.8,0.9-5.4,1.8-5.4,5.7v3.8h25.7v-3.8C36.2,61.9,33.6,61,30.8,60z M18.6,48.2c0-2.5,2-4.3,4.8-4.3s4.8,1.8,4.8,4.3v4.3c0,2.7-2.2,4.3-4.8,4.3s-4.8-1.7-4.8-4.3V48.2z M34.3,67.6H12.4v-1.9 c0-2.4,1.2-2.9,4.1-3.8c0.9-0.3,4-1.5,4-3.3V58c0.9,0.3,1.9,0.5,2.9,0.5c1,0,1.9-0.2,2.8-0.5v0.5c0,1.8,2.8,2.9,4,3.3 c2.9,1,4.1,1.5,4.1,3.9L34.3,67.6z M64.1,60c-1-0.3-1.9-0.8-2.7-1.5v-1.7c1.2-1.1,1.9-2.7,1.9-4.4v-4.3c0-3.5-2.9-6.2-6.7-6.2 S50,44.7,50,48.2v4.3c0,1.7,0.7,3.3,1.9,4.4v1.7c-0.7,0.7-1.7,1.2-2.6,1.5c-2.8,0.9-5.4,1.8-5.4,5.7v3.8h25.7v-3.8 C69.6,61.9,66.9,61,64.1,60z M51.9,48.2c0-2.5,2-4.3,4.8-4.3s4.8,1.8,4.8,4.3v4.3c0,2.7-2.2,4.3-4.8,4.3s-4.8-1.7-4.8-4.3V48.2z M67.6,67.6H45.8v-1.9c0-2.4,1.2-2.9,4.1-3.8c0.9-0.3,4-1.5,4-3.3V58c1.8,0.7,3.9,0.7,5.7,0v0.5c0,1.8,2.8,2.9,4,3.3 c2.9,1,4.1,1.5,4.1,3.9L67.6,67.6z M49.6,31.5l5.4,5.9c0.4,0.4,1,0.3,1.4-0.1c0.1-0.2,0.2-0.4,0.2-0.6v-5.4c2-0.5,3.8-1.5,5.2-2.9 c2-1.9,3.1-4.6,3.1-7.4c0-5.8-4.7-10.5-10.5-10.5c0,0,0,0,0,0H39.2c-3.3,0-6.5,1.6-8.4,4.3h-4.9c-2.8,0-5.4,1.1-7.4,3 c-2,1.9-3.1,4.6-3.1,7.4c0,5.8,4.7,10.5,10.5,10.6c0,0,0,0,0,0h3.1V41c0,0.4,0.2,0.7,0.6,0.8c0.3,0.1,0.7,0,1-0.2l5.9-5.9h4.6 c2.8,0,5.4-1.1,7.4-3C49,32.3,49.3,31.9,49.6,31.5z M39.3,12.5h15.2c4.7,0,8.5,3.9,8.5,8.6c0,2.3-0.9,4.4-2.5,6 c-1.4,1.3-3.1,2.2-4.9,2.5c-0.5,0-0.9,0.5-0.8,1v3.7l-4.1-4.4c-0.2-0.2-0.4-0.3-0.7-0.3H39.4c-4.7-0.1-8.5-4.1-8.3-8.8 C31.2,16.3,34.8,12.6,39.3,12.5L39.3,12.5z M41.3,33.9h-5c-0.3,0-0.5,0.1-0.7,0.3L31,38.8v-3.9c0-0.6-0.4-1-1-1h-4 c-4.7,0-8.5-3.9-8.5-8.6c0-2.3,0.9-4.4,2.5-6c1.6-1.6,3.7-2.5,6-2.5h3.8c-2.4,5.3,0,11.4,5.2,13.8c1.3,0.6,2.8,0.9,4.3,0.9h7.8 C45.5,33,43.4,33.9,41.3,33.9L41.3,33.9z M37.5,23.9c1.6,0,2.8-1.3,2.8-2.9c0-1.6-1.3-2.8-2.9-2.8c-1.5,0-2.8,1.3-2.8,2.8 C34.5,22.6,35.8,23.9,37.5,23.9C37.4,23.9,37.4,23.9,37.5,23.9L37.5,23.9z M37.5,20.1c0.5,0.1,0.9,0.7,0.8,1.2 c-0.1,0.4-0.4,0.7-0.8,0.8c-0.6,0-1-0.4-1-1C36.5,20.5,36.9,20.1,37.5,20.1L37.5,20.1z M47,23.9c1.6,0,2.9-1.3,2.8-2.9 s-1.3-2.9-2.9-2.8c-1.6,0-2.8,1.3-2.8,2.8C44.1,22.6,45.3,23.9,47,23.9L47,23.9z M47,20.1c0.6,0,1,0.4,1,1s-0.4,1-1,1s-1-0.4-1-1 C45.9,20.5,46.3,20,47,20.1C46.9,20,46.9,20,47,20.1L47,20.1z M56.5,23.9c1.6,0,2.8-1.3,2.8-2.9c0-1.6-1.3-2.8-2.9-2.8 c-1.5,0-2.8,1.3-2.8,2.8C53.6,22.6,54.9,23.9,56.5,23.9C56.4,23.9,56.4,23.9,56.5,23.9L56.5,23.9z M56.5,20.1c0.6,0,1,0.4,1,1 s-0.4,1-1,1s-1-0.4-1-1C55.5,20.5,55.9,20,56.5,20.1C56.4,20,56.4,20,56.5,20.1L56.5,20.1z"></path> </svg> 