<?xml version="1.0" encoding="UTF-8"?> <svg xmlns="http://www.w3.org/2000/svg" width="60" height="60" viewBox="0 0 60 60" fill="none"><mask id="mask0_5_294" style="mask-type:alpha" maskUnits="userSpaceOnUse" x="0" y="0" width="60" height="60"><rect width="60" height="60" fill="#D9D9D9"></rect></mask><g mask="url(#mask0_5_294)"><path d="M28.1492 25.1982C33.0234 25.193 36.9749 21.2902 36.9803 16.4761C36.9803 16.0179 36.606 15.6456 36.142 15.6456H28.9872V8.57918C28.9872 8.12356 28.6103 7.75123 28.1489 7.75123C23.2694 7.75123 19.3152 11.6566 19.3152 16.4759C19.3152 21.2926 23.2697 25.1982 28.1492 25.1982ZM27.3083 9.45705V16.4761C27.3083 16.9344 27.6852 17.3041 28.1492 17.3041H35.2533C34.9317 19.9936 33.0838 22.2639 30.4925 23.1517C27.9038 24.0395 25.0278 23.386 23.0901 21.4724C21.1499 19.5588 20.4908 16.7183 21.3898 14.1587C22.2887 11.602 24.5874 9.77691 27.3105 9.45925L27.3083 9.45705ZM30.4822 14.9975H38.4778C38.9391 14.9949 39.3134 14.6278 39.3161 14.1721C39.3134 9.35547 35.3619 5.45008 30.485 5.44475C30.021 5.44475 29.6441 5.81706 29.6441 6.2727V14.1723C29.6467 14.6279 30.021 14.9976 30.485 14.9976L30.4822 14.9975ZM31.3205 7.15257H31.3231C34.6051 7.5405 37.1937 10.0972 37.5892 13.3386H31.3231L31.3205 7.15257ZM37.2887 48.24H37.2913C40.0355 48.24 42.6664 47.1621 44.6067 45.2459C46.5495 43.3297 47.6382 40.7287 47.6382 38.0182C47.6382 35.3077 46.5495 32.7095 44.6093 30.7905C42.6691 28.8742 40.0357 27.7963 37.2913 27.7963C34.5469 27.7963 31.9135 28.8742 29.9732 30.7905C28.0329 32.7067 26.9416 35.3051 26.9416 38.0155C26.9443 40.7258 28.0356 43.3242 29.9758 45.2406C31.916 47.1569 34.5469 48.2347 37.2912 48.2373L37.2887 48.24ZM37.2913 29.455C40.7974 29.455 43.9581 31.543 45.2998 34.7428C46.6416 37.9427 45.9008 41.624 43.4202 44.0741C40.9395 46.5242 37.2121 47.2556 33.9723 45.9278C30.7325 44.6026 28.6209 41.4809 28.6209 38.0156C28.6262 33.2901 32.5039 29.4603 37.2913 29.455ZM58.5093 54.9699L51.0279 47.5808C50.788 47.3439 50.4612 47.2085 50.1238 47.2085C49.7837 47.2085 49.4568 47.3439 49.2169 47.5808L48.6897 48.1016L47.1581 46.5889C47.4085 46.3103 47.6458 46.0213 47.8699 45.7193H51.4102V45.7167C53.5455 45.7141 55.2748 44.0061 55.2774 41.8998V11.2813C55.2748 9.17241 53.5455 7.46446 51.4102 7.46186H45.9904V2.25469C45.9904 1.01017 44.9676 0 43.7075 0H18.3872C18.1631 0 17.9496 0.0859206 17.794 0.242132L12.5323 5.4389C12.3741 5.59511 12.2871 5.80601 12.2871 6.02471V7.45926L6.86459 7.46186C4.73193 7.46446 3.00263 9.17241 3 11.2787V41.8972C3.00264 44.0061 4.73193 45.7141 6.86459 45.7167H20.7752V48.9399H20.0714H20.074C18.9563 49.0024 18.0811 49.9136 18.0811 51.0202C18.0811 52.1267 18.9563 53.0405 20.074 53.1004H38.2106C39.3731 53.0978 40.3142 52.1658 40.3142 51.0176C40.3142 50.8978 40.3037 50.778 40.2826 50.6583C42.3941 50.1714 44.3501 49.1742 45.9766 47.7553L47.5082 49.2679L46.9941 49.7756V49.7782C46.4959 50.2729 46.4959 51.0722 46.9941 51.5669L54.4674 58.9586C55.0737 59.6016 55.9146 59.9765 56.8004 60C58.0499 60 59.1439 59.172 59.4681 57.9822C59.7291 56.8784 59.36 55.725 58.5085 54.9699L58.5093 54.9699ZM25.821 38.015C25.821 35.0131 27.0284 32.131 29.1794 30.0062C31.3305 27.8814 34.2487 26.6892 37.2884 26.6892C40.3305 26.6892 43.2487 27.8817 45.4001 30.0062C47.5515 32.1307 48.7586 35.0103 48.7586 38.015C48.7586 41.0196 47.5512 43.9017 45.4001 46.0266C43.249 48.1514 40.3335 49.3436 37.2911 49.3436C34.249 49.341 31.3335 48.1459 29.1848 46.0214C27.0338 43.8995 25.8236 41.0198 25.821 38.015ZM45.9902 28.2905V11.6975H50.991V38.5949H50.4242C50.4347 38.4022 50.4374 38.2095 50.4374 38.0143C50.44 34.2938 48.8188 30.7506 45.9902 28.2898L45.9902 28.2905ZM51.41 9.12013V9.11752C52.62 9.12013 53.598 10.0886 53.6007 11.2811V41.8996C53.598 43.0946 52.62 44.0606 51.41 44.0632H48.9242C49.5647 42.8707 50.0076 41.5845 50.2422 40.2567H51.8318C52.2958 40.2567 52.6701 39.8844 52.6701 39.4288V10.8672C52.6701 10.409 52.2958 10.0393 51.8318 10.0393H45.9902V9.11759L51.41 9.12013ZM44.3106 2.257V27.0434V27.0408C40.8204 24.8617 36.4972 24.4268 32.6351 25.8692C28.7731 27.3116 25.8231 30.4645 24.6685 34.3807H14.5694C14.2346 34.3781 13.9657 34.1125 13.9631 33.7844V6.85581H18.3865C18.8478 6.85321 19.2221 6.4835 19.2248 6.02526V1.65904H43.7063C44.0411 1.65904 44.3099 1.92721 44.3099 2.25526L44.3106 2.257ZM24.1576 38.5955H7.2864V11.6955H12.2872V33.7846C12.2872 35.0265 13.31 36.0367 14.57 36.0367H24.2946C24.1944 36.6928 24.1417 37.3541 24.1417 38.0155C24.1417 38.2107 24.1471 38.4029 24.1576 38.5955ZM15.1524 5.19967L17.5487 2.833V5.19967H15.1524ZM4.67878 41.8995V11.281H4.67614C4.67878 10.0885 5.6594 9.11999 6.86677 9.11999H12.2866V10.0391H6.44499C6.22356 10.0391 6.01003 10.125 5.85186 10.2812C5.6937 10.4374 5.6067 10.6483 5.6067 10.867V39.4233C5.6067 39.6446 5.6937 39.8555 5.85186 40.0117C6.01003 40.1653 6.22355 40.2538 6.44499 40.2538H24.3393C24.5739 41.5816 25.0168 42.8678 25.6573 44.0602H6.86414C5.65677 44.0576 4.67615 43.0917 4.67351 41.8966L4.67878 41.8995ZM22.4597 45.7189H26.7118C27.6635 46.9921 28.8444 48.0856 30.1914 48.9421H22.4543L22.4597 45.7189ZM38.6325 51.0224C38.6325 51.2567 38.4427 51.4442 38.2055 51.4442H20.0716C19.8423 51.4364 19.6604 51.2489 19.6604 51.0224C19.6604 50.7959 19.8423 50.611 20.0716 50.6006H34.043C35.5376 50.9755 37.0877 51.0901 38.622 50.9365C38.6272 50.9651 38.6299 50.9938 38.6325 51.0224ZM57.8528 57.5522H57.8502C57.75 57.9219 57.4574 58.2083 57.0857 58.3098C56.5479 58.4036 56.0022 58.2057 55.6569 57.7891L48.4549 50.676L50.121 49.0306L57.3203 56.141C57.7447 56.482 57.945 57.021 57.8475 57.5521L57.8528 57.5522Z" fill="#1B54F8"></path></g></svg> 