<?xml version="1.0" encoding="UTF-8"?> <svg xmlns="http://www.w3.org/2000/svg" xmlns:xlink="http://www.w3.org/1999/xlink" width="90" height="90" viewBox="0 0 90 90"><defs><clipPath id="clip-path"><rect id="Rectangle_7" data-name="Rectangle 7" width="90" height="90" transform="translate(206 354)" fill="#fff" stroke="#707070" stroke-width="1"></rect></clipPath></defs><g id="Mask_Group_10" data-name="Mask Group 10" transform="translate(-206 -354)" clip-path="url(#clip-path)"><g id="Group_187" data-name="Group 187" transform="translate(117.712 35.423)"><path id="Path_260" data-name="Path 260" d="M372.861,198.84a5.842,5.842,0,1,0,5.852,5.842A5.853,5.853,0,0,0,372.861,198.84Zm0,9.647a3.806,3.806,0,1,1,3.815-3.805A3.814,3.814,0,0,1,372.861,208.487Z" transform="translate(-230.931 149.664)" fill="#1b54f8"></path><path id="Path_261" data-name="Path 261" d="M320.184,173.4c-.309-.034-.624-.05-.94-.056-.062,0-.121-.011-.184-.011h-.032a10.559,10.559,0,0,0-1.2.073c-9.082.743-16.09,9.387-16.4,9.772a1.018,1.018,0,0,0,0,1.268c.293.369,6.738,8.317,15.263,9.639a10.343,10.343,0,0,0,4.528.033c8.621-1.229,15.16-9.3,15.457-9.672a1.018,1.018,0,0,0,0-1.268c-.307-.386-7.368-9.094-16.5-9.778Zm7.336,10.443a8.489,8.489,0,0,1-6.674,8.273,11.683,11.683,0,0,1-3.736-.026,8.466,8.466,0,0,1,1.014-16.672c.306-.023.612-.048.921-.049.218,0,.433.016.647.033.07,0,.14.006.21.011a8.492,8.492,0,0,1,7.618,8.429Zm-23.943-.031a31.871,31.871,0,0,1,6.55-5.554,10.4,10.4,0,0,0-.067,11.06,32.082,32.082,0,0,1-6.483-5.506Zm24.376,5.581A10.409,10.409,0,0,0,327.9,178.2a31.937,31.937,0,0,1,6.648,5.613,31.825,31.825,0,0,1-6.592,5.58Z" transform="translate(-177.097 170.534)" fill="#1b54f8"></path><path id="Path_262" data-name="Path 262" d="M271.784,103.917a24.443,24.443,0,1,0,34.567,0,24.47,24.47,0,0,0-34.567,0Zm33.127,33.127a22.4,22.4,0,1,1,0-31.687,22.434,22.434,0,0,1,0,31.687Z" transform="translate(-147.171 233.177)" fill="#1b54f8"></path><path id="Path_263" data-name="Path 263" d="M153.268,65.542a31.861,31.861,0,0,0-3.632,40.638l-4.3,4.3a4.281,4.281,0,0,0-4.366,1.026l-12.476,12.477a8.009,8.009,0,0,0,11.326,11.327L152.3,122.835a4.281,4.281,0,0,0,1.025-4.365l4.3-4.3a31.812,31.812,0,1,0-4.356-48.626Zm-2.411,55.852-12.478,12.477a5.973,5.973,0,0,1-8.447-8.447l12.478-12.478a2.258,2.258,0,0,1,3.189,0l5.261,5.261a2.258,2.258,0,0,1,0,3.186Zm1.364-4.7-5.108-5.107,3.75-3.75a31.04,31.04,0,0,0,5.108,5.108Zm44.6-7.594a29.765,29.765,0,1,1,0-42.114A29.815,29.815,0,0,1,196.821,109.1Z" transform="translate(-33.867 266.339)" fill="#1b54f8"></path></g></g></svg> 