<?xml version="1.0" encoding="UTF-8"?> <svg xmlns="http://www.w3.org/2000/svg" id="Layer_1" data-name="Layer 1" viewBox="0 0 80 80"><defs><style>.cls-1,.cls-3{fill:none;stroke:#1b54f8;stroke-miterlimit:10;}.cls-1{stroke-width:2px;}.cls-2{fill:#1b54f8;}</style></defs><path class="cls-1" d="M61.9,67.8V12.2A3.9,3.9,0,0,0,58,8.3H22a3.9,3.9,0,0,0-3.9,3.9V67.8A4,4,0,0,0,22,71.7H58A3.84,3.84,0,0,0,61.9,67.8Z"></path><rect class="cls-2" x="37.6" y="11.3" width="4.8" height="1.3"></rect><circle class="cls-3" cx="40" cy="67.1" r="2.6"></circle><rect class="cls-1" x="23.3" y="15.7" width="33.4" height="46.7"></rect><path class="cls-2" d="M31.36,29.6a1.79,1.79,0,0,0-1.36.6l-.6.6,7.3,7.3.6-.6a1.93,1.93,0,0,0,0-2.8l-4.5-4.5a2,2,0,0,0-1.44-.6Z"></path><path class="cls-2" d="M28.78,34.81l4.29,4.29a4,4,0,0,0-.64,4.1v0l0,0a18.33,18.33,0,0,0,8.15,8.16,3.8,3.8,0,0,0,1.51.3,4.31,4.31,0,0,0,2.64-.91L49,55.19a6.47,6.47,0,0,1-3.1.71c-3.31,0-7-2.06-11.38-6.31-5.13-5.32-7.18-9.71-6.28-13.4a5.44,5.44,0,0,1,.54-1.38m-.18-3a8.17,8.17,0,0,0-2.3,3.9c-1.1,4.5,1.2,9.5,6.8,15.3,4.7,4.6,8.9,6.9,12.8,6.9a8.14,8.14,0,0,0,6-2.4l.1-.1L44.8,48l-1.1,1.1a2.3,2.3,0,0,1-1.58.64,1.89,1.89,0,0,1-.72-.14,16.24,16.24,0,0,1-7.1-7.1,2,2,0,0,1,.5-2.3l1.1-1.1-7.3-7.3Z"></path><path class="cls-2" d="M47.66,45.88a1.91,1.91,0,0,0-1.36.52l-.6.6L53,54.3c.3-.4,1.2-.8,1.2-2a2,2,0,0,0-.6-1.4l-4.5-4.5a2.18,2.18,0,0,0-1.44-.52Z"></path><polygon class="cls-3" points="45.1 40.5 48 40.5 48 37.3 51.2 37.3 51.2 34.4 48 34.4 48 31.1 45.1 31.1 45.1 34.4 41.8 34.4 41.8 37.3 45.1 37.3 45.1 40.5"></polygon></svg> 