<?xml version="1.0" encoding="UTF-8"?> <svg xmlns="http://www.w3.org/2000/svg" xmlns:xlink="http://www.w3.org/1999/xlink" width="90" height="90" viewBox="0 0 90 90"><defs><clipPath id="clip-path"><rect id="Rectangle_25" data-name="Rectangle 25" width="90" height="90" transform="translate(637 1474)" fill="#fff" stroke="#1b54f8" stroke-width="1"></rect></clipPath></defs><g id="Mask_Group_15" data-name="Mask Group 15" transform="translate(-637 -1474)" clip-path="url(#clip-path)"><g id="Group_294" data-name="Group 294" transform="translate(138.377 293.752)"><path id="Path_168" data-name="Path 168" d="M264.491,296.349h5.051a.844.844,0,0,0,0-1.689h-3.2v-1.684a.844.844,0,1,0-1.689,0v1.684h-.16a3.886,3.886,0,1,0,0,7.772h2.01a2.2,2.2,0,1,1,0,4.4h-5.051a.844.844,0,1,0,0,1.689h3.2V310.2a.844.844,0,1,0,1.689,0v-1.684h.162a3.886,3.886,0,0,0,0-7.772h-2.01a2.2,2.2,0,1,1,0-4.4Z" transform="translate(269.344 934.482)" fill="#1b54f8" stroke="#1b54f8" stroke-width="0.4"></path><path id="Path_169" data-name="Path 169" d="M211.651,258.57a14.567,14.567,0,1,0,14.566,14.565A14.583,14.583,0,0,0,211.651,258.57Zm0,27.447a12.879,12.879,0,1,1,12.877-12.881A12.9,12.9,0,0,1,211.651,286.017Z" transform="translate(323.191 962.932)" fill="#1b54f8" stroke="#1b54f8" stroke-width="0.4"></path><path id="Path_170" data-name="Path 170" d="M374.774,70.248H346.113V48.981a.844.844,0,1,0-1.689,0v22.11a.844.844,0,0,0,.844.844h29.505a.844.844,0,1,0,0-1.688Z" transform="translate(198.292 1141.313)" fill="#1b54f8" stroke="#1b54f8" stroke-width="0.4"></path><path id="Path_171" data-name="Path 171" d="M371.88,112.163h3.839a1.71,1.71,0,0,0,1.709-1.708v-8.276a1.711,1.711,0,0,0-1.709-1.709H371.88a1.711,1.711,0,0,0-1.709,1.709v8.276A1.71,1.71,0,0,0,371.88,112.163Zm0-10h3.839a.021.021,0,0,1,.021.021l-.021,8.3-3.86-.02Z" transform="translate(176.466 1096.951)" fill="#1b54f8" stroke="#1b54f8" stroke-width="0.4"></path><path id="Path_172" data-name="Path 172" d="M424.713,67.8h3.839a1.711,1.711,0,0,0,1.709-1.708V49.838a1.71,1.71,0,0,0-1.709-1.708h-3.839A1.71,1.71,0,0,0,423,49.838V66.087a1.71,1.71,0,0,0,1.708,1.708Zm0-17.976h3.839a.021.021,0,0,1,.021.02l-.021,16.269-3.86-.02Z" transform="translate(131.68 1141.318)" fill="#1b54f8" stroke="#1b54f8" stroke-width="0.4"></path><path id="Path_173" data-name="Path 173" d="M171.161,13.992H136.015a5.629,5.629,0,0,0-5.623,5.623V36.592h-1.941a2.86,2.86,0,0,0-2.861,2.853V42.5a22.712,22.712,0,0,0-3.231.887l-1.538-2.667a2.85,2.85,0,0,0-3.883-1.05l-2.895,1.667a2.893,2.893,0,0,0-1.036,3.894l1.542,2.658a23.3,23.3,0,0,0-2.374,2.358L109.514,48.7a2.868,2.868,0,0,0-3.876,1.046l-1.675,2.91a2.862,2.862,0,0,0,1.058,3.883l2.653,1.521a24.256,24.256,0,0,0-.871,3.25h-3.067a2.839,2.839,0,0,0-2.836,2.836v3.326a2.853,2.853,0,0,0,2.836,2.862H106.8a25.1,25.1,0,0,0,.872,3.241L105.025,75.1a2.852,2.852,0,0,0-1.058,3.884l1.674,2.892a2.868,2.868,0,0,0,3.879,1.036l2.656-1.545a25.01,25.01,0,0,0,2.376,2.376L113,86.408a2.843,2.843,0,0,0,1.044,3.876l2.89,1.674a2.819,2.819,0,0,0,3.876-1.051l1.546-2.659a24.455,24.455,0,0,0,3.228.871v3.069a2.852,2.852,0,0,0,2.861,2.836h3.326a2.84,2.84,0,0,0,2.836-2.836V89.121a24.364,24.364,0,0,0,3.25-.871l1.524,2.658a2.838,2.838,0,0,0,3.886,1.05l2.9-1.67a2.855,2.855,0,0,0,1.045-3.883l-1.544-2.657a24.454,24.454,0,0,0,2.37-2.375l2.658,1.549a2.867,2.867,0,0,0,3.888-1.05l1.662-2.885a2.842,2.842,0,0,0-1.044-3.882l-2.656-1.531a25.041,25.041,0,0,0,.871-3.241h3.052a2.827,2.827,0,0,0,2.853-2.862V64.146a2.848,2.848,0,0,0-2.853-2.836h-3.05a24.267,24.267,0,0,0-.871-3.25l2.654-1.522a2.853,2.853,0,0,0,1.046-3.886l-1.663-2.9a2.87,2.87,0,0,0-3.9-1.045l-2.65,1.545c-.145-.165-.318-.342-.48-.515l.6-1.543h23a5.628,5.628,0,0,0,5.622-5.623l0-22.954a5.628,5.628,0,0,0-5.622-5.623ZM148.283,52.06l3.246-1.892a1.188,1.188,0,0,1,1.6.418l1.664,2.905a1.165,1.165,0,0,1-.423,1.581L151.1,56.947a.844.844,0,0,0-.37,1.03,22.532,22.532,0,0,1,1.155,4.312.844.844,0,0,0,.834.709h3.757a1.144,1.144,0,0,1,1.165,1.148v3.326a1.157,1.157,0,0,1-1.165,1.173H152.72a.845.845,0,0,0-.833.706,23.251,23.251,0,0,1-1.157,4.309.844.844,0,0,0,.37,1.026l3.273,1.886a1.156,1.156,0,0,1,.419,1.571l-1.664,2.889a1.189,1.189,0,0,1-1.585.424l-3.259-1.9a.844.844,0,0,0-1.079.2,22.751,22.751,0,0,1-3.15,3.158.845.845,0,0,0-.193,1.076l1.9,3.262a1.168,1.168,0,0,1-.423,1.576L142.427,90.5a1.151,1.151,0,0,1-1.578-.434L138.975,86.8a.844.844,0,0,0-1.029-.37,22.517,22.517,0,0,1-4.312,1.155.844.844,0,0,0-.708.833v3.773a1.136,1.136,0,0,1-1.148,1.148h-3.327a1.162,1.162,0,0,1-1.173-1.148V88.414a.843.843,0,0,0-.706-.832,22.777,22.777,0,0,1-4.289-1.156.844.844,0,0,0-1.027.366l-1.907,3.28a1.131,1.131,0,0,1-1.567.423l-2.891-1.674a1.168,1.168,0,0,1-.424-1.57l1.9-3.267a.844.844,0,0,0-.193-1.076,23.293,23.293,0,0,1-3.161-3.16.842.842,0,0,0-1.076-.193l-3.261,1.9a1.169,1.169,0,0,1-1.577-.425l-1.67-2.883a1.166,1.166,0,0,1,.431-1.577l3.267-1.882a.844.844,0,0,0,.37-1.025,23.327,23.327,0,0,1-1.157-4.309.845.845,0,0,0-.833-.706h-3.773a1.149,1.149,0,0,1-1.148-1.173V64.146A1.136,1.136,0,0,1,103.735,63h3.773a.845.845,0,0,0,.834-.709,22.608,22.608,0,0,1,1.155-4.312.845.845,0,0,0-.37-1.03l-3.265-1.873a1.169,1.169,0,0,1-.433-1.583l1.668-2.9a1.166,1.166,0,0,1,1.574-.433l3.267,1.9a.844.844,0,0,0,1.077-.194,21.58,21.58,0,0,1,3.152-3.127.845.845,0,0,0,.2-1.082l-1.894-3.265a1.191,1.191,0,0,1,.419-1.6l2.882-1.659a1.159,1.159,0,0,1,1.58.421l1.9,3.293a.844.844,0,0,0,1.041.364,21.046,21.046,0,0,1,4.276-1.177.843.843,0,0,0,.706-.832V39.446a1.17,1.17,0,0,1,1.173-1.165h1.941l0,4.286a5.629,5.629,0,0,0,5.623,5.623h2.8l2.337,6.03a2.506,2.506,0,0,0,4.674,0l1.053-2.725c.112.129.23.264.33.383a.845.845,0,0,0,1.071.185Zm26.811-9.493A3.938,3.938,0,0,1,171.16,46.5H147.578a.843.843,0,0,0-.787.54l-2.538,6.567a.818.818,0,0,1-1.525,0l-2.546-6.569a.844.844,0,0,0-.787-.539h-3.381a3.939,3.939,0,0,1-3.935-3.934V19.615a3.939,3.939,0,0,1,3.935-3.934h35.145a3.939,3.939,0,0,1,3.934,3.934Z" transform="translate(404.724 1170.258)" fill="#1b54f8" stroke="#1b54f8" stroke-width="0.4"></path><path id="Path_174" data-name="Path 174" d="M477.53,97.375h3.84a1.71,1.71,0,0,0,1.708-1.708V84.734a1.71,1.71,0,0,0-1.708-1.709h-3.84a1.71,1.71,0,0,0-1.708,1.709V95.667A1.711,1.711,0,0,0,477.53,97.375Zm0-12.662h3.84a.02.02,0,0,1,.02.021l-.02,10.954-3.86-.02Z" transform="translate(86.908 1111.739)" fill="#1b54f8" stroke="#1b54f8" stroke-width="0.4"></path></g></g></svg> 