<?xml version="1.0" encoding="UTF-8"?> <svg xmlns="http://www.w3.org/2000/svg" xmlns:xlink="http://www.w3.org/1999/xlink" width="90" height="90" viewBox="0 0 90 90"><defs><clipPath id="clip-path"><rect id="Rectangle_9" data-name="Rectangle 9" width="90" height="90" transform="translate(574 45)" fill="#fff" stroke="#707070" stroke-width="1"></rect></clipPath></defs><g id="Mask_Group_28" data-name="Mask Group 28" transform="translate(-574 -45)" clip-path="url(#clip-path)"><g id="Group_26" data-name="Group 26" transform="translate(80.383 1)"><g id="Outline" transform="translate(507.617 49)"><path id="Path_103" data-name="Path 103" d="M95.888,8H82.926a.926.926,0,0,0,0,1.852H95.888a.926.926,0,1,0,0-1.852Z" transform="translate(-39.411 -3.062)" fill="#1c54f8" stroke="#1c54f7" stroke-width="0.4"></path><path id="Path_104" data-name="Path 104" d="M98.95,16H90.926a.926.926,0,1,0,0,1.852H98.95a.926.926,0,0,0,0-1.852Z" transform="translate(-42.474 -6.124)" fill="#1c54f8" stroke="#1c54f7" stroke-width="0.4"></path><path id="Path_105" data-name="Path 105" d="M69.476,0h-37.2A6.44,6.44,0,0,0,27.69,1.9L14.9,14.69A6.434,6.434,0,0,0,13,19.275V72.524A6.488,6.488,0,0,0,19.481,79h50a6.488,6.488,0,0,0,6.481-6.481V6.481A6.488,6.488,0,0,0,69.476,0ZM29.048,3.165V13.27a2.781,2.781,0,0,1-2.778,2.778h-10.1Zm7.569,73.988a7.862,7.862,0,1,1,15.724,0Zm33.014-.008c-.2.023-15.245,0-15.439.008a9.714,9.714,0,1,0-19.428,0c-.22-.008-15.226.015-15.437-.008V74.738A1.529,1.529,0,0,1,20.808,73.2l1.8-.062a.926.926,0,0,0,.87-.716,21.386,21.386,0,0,1,2.7-6.511.926.926,0,0,0-.109-1.121L24.84,63.471a1.528,1.528,0,0,1,.036-2.133l3.632-3.632a1.529,1.529,0,0,1,2.133-.036l1.318,1.23a.926.926,0,0,0,1.122.109,21.371,21.371,0,0,1,6.515-2.7.926.926,0,0,0,.716-.87l.062-1.805a1.529,1.529,0,0,1,1.534-1.481h5.137a1.529,1.529,0,0,1,1.534,1.481l.062,1.8a.926.926,0,0,0,.716.87,21.423,21.423,0,0,1,6.51,2.7.926.926,0,0,0,1.122-.108l1.323-1.234a1.529,1.529,0,0,1,2.133.036l3.632,3.632a1.528,1.528,0,0,1,.036,2.133l-1.23,1.318a.926.926,0,0,0-.109,1.121,21.376,21.376,0,0,1,2.695,6.515.926.926,0,0,0,.87.717l1.806.062a1.529,1.529,0,0,1,1.481,1.534ZM23.568,60.029a3.372,3.372,0,0,0-.627.891V46.432a.926.926,0,0,0-.926-.926H19.933a.926.926,0,0,1-.673-1.562l6.2-6.562a.947.947,0,0,1,1.346,0L33,43.946a.926.926,0,0,1-.673,1.562H30.245a.926.926,0,0,0-.926.926v8.993A3.363,3.363,0,0,0,27.2,56.4Zm.679,5.517a23.331,23.331,0,0,0-1.3,2.61V63.924a3.4,3.4,0,0,0,.546.81ZM39.315,32.762H35.59a.926.926,0,0,1-.679-1.559L43.8,21.726a.947.947,0,0,1,1.35,0L54.045,31.2a.926.926,0,0,1-.675,1.559H49.642a.926.926,0,0,0-.926.926V50.754A3.374,3.374,0,0,0,47.05,50.3H41.91a3.368,3.368,0,0,0-1.667.451V33.688a.926.926,0,0,0-.929-.926ZM65.389,60.029,61.757,56.4a3.366,3.366,0,0,0-2.119-.97V46.432a.926.926,0,0,0-.926-.926H56.63a.926.926,0,0,1-.672-1.56l6.2-6.562a.931.931,0,0,1,1.346,0l6.2,6.562a.926.926,0,0,1-.673,1.562H66.942a.926.926,0,0,0-.926.926V60.92a3.372,3.372,0,0,0-.627-.891Zm.627,3.895v4.224a23.189,23.189,0,0,0-1.3-2.607l.752-.807A3.377,3.377,0,0,0,66.016,63.924Zm8.089,8.6a4.629,4.629,0,0,1-2.623,4.166v-1.95a3.374,3.374,0,0,0-3.271-3.385l-.345-.012V47.358h1.157a2.778,2.778,0,0,0,2.019-4.685l-6.194-6.562a2.8,2.8,0,0,0-4.038,0l-6.2,6.562a2.778,2.778,0,0,0,2.02,4.685h1.156v8.449a3.4,3.4,0,0,0-.735.509l-.812.758a23.24,23.24,0,0,0-5.672-2.364v-20.1h2.8a2.778,2.778,0,0,0,2.025-4.678l-8.888-9.476a2.8,2.8,0,0,0-4.051,0l-8.893,9.476a2.778,2.778,0,0,0,2.028,4.678h2.8v20.1a23.182,23.182,0,0,0-5.678,2.359l-.807-.754a3.377,3.377,0,0,0-.735-.509V47.358h1.157a2.778,2.778,0,0,0,2.019-4.685l-6.2-6.561a2.8,2.8,0,0,0-4.039,0l-6.2,6.561a2.778,2.778,0,0,0,2.019,4.685h1.157V71.343l-.344.012a3.374,3.374,0,0,0-3.271,3.385v1.95a4.629,4.629,0,0,1-2.622-4.166V19.275A4.634,4.634,0,0,1,15.06,17.9H26.27A4.634,4.634,0,0,0,30.9,13.27V2.06a4.633,4.633,0,0,1,1.375-.208h37.2a4.634,4.634,0,0,1,4.629,4.629Z" transform="translate(-13 0)" fill="#1c54f8" stroke="#1c54f7" stroke-width="0.4"></path></g></g></g></svg> 