<?xml version="1.0" encoding="UTF-8"?> <!-- Generator: Adobe Illustrator 25.3.1, SVG Export Plug-In . SVG Version: 6.00 Build 0) --> <svg xmlns="http://www.w3.org/2000/svg" xmlns:xlink="http://www.w3.org/1999/xlink" version="1.1" id="Layer_1" x="0px" y="0px" viewBox="0 0 80 80" style="enable-background:new 0 0 80 80;" xml:space="preserve"> <style type="text/css"> .st0{fill-rule:evenodd;clip-rule:evenodd;fill:#1B54F8;} .st1{fill:#1B54F8;} </style> <desc>Created with Sketch.</desc> <g id="Digital_Token_Creation"> <path id="Fill-1" class="st0" d="M173.6,44.7c0,1-0.5,2-1.4,2.9v-5.2c0.6-0.4,1.1-0.8,1.4-1.3V44.7z M168.8,56.8c0,1-0.5,2.1-1.4,3 v-5.5c0.6-0.4,1-0.9,1.4-1.3V56.8z M150.9,64.6v-6h0.7h0.7v6h-0.7H150.9z M134.4,56.8V53c0.4,0.5,0.8,0.9,1.4,1.3v5.5 C134.9,58.9,134.4,57.9,134.4,56.8z M146.8,58.3c0.5,0.1,0.9,0.1,1.4,0.1v5.9c-0.5-0.1-0.9-0.1-1.4-0.1V58.3z M142.7,57.5 c0.5,0.1,0.9,0.2,1.4,0.3v5.9c-0.5-0.1-1-0.2-1.4-0.3V57.5z M139.9,56.6v5.8c-0.5-0.2-1-0.4-1.4-0.7V56 C139,56.3,139.4,56.5,139.9,56.6z M163.3,56.6c0.5-0.2,1-0.4,1.4-0.6v5.8c-0.4,0.2-0.9,0.5-1.4,0.7V56.6z M159.1,57.8 c0.5-0.1,1-0.2,1.4-0.3v5.9c-0.5,0.1-0.9,0.3-1.4,0.3V57.8z M156.4,58.3v5.9c-0.5,0.1-0.9,0.1-1.4,0.1v-5.9 C155.5,58.4,156,58.4,156.4,58.3z M139,44.3v0.3c0,5,7.9,8.9,18,8.9c3.8,0.1,7.5-0.6,11-1.8c-2.2,3.3-8.9,5.5-16.4,5.5 c-9.1,0.1-16.7-3.3-17.2-7.3v-0.4C134.4,47.6,136,45.7,139,44.3z M141.9,42.4v5.2c-0.9-0.9-1.4-1.9-1.4-2.9v-3.6 C140.8,41.5,141.3,42,141.9,42.4z M138.9,34.7v-5.5c0.4,0.2,0.9,0.4,1.4,0.6v5.5C139.9,35.2,139.4,35,138.9,34.7z M135,29.9v-3.6 c0.4,0.5,0.8,0.9,1.4,1.3v5.2C135.5,32,135,31,135,29.9z M151.6,15.4c9,0,16.6,3.4,16.6,7.5s-7.6,7.5-16.6,7.5S135,27,135,22.9 S142.6,15.4,151.6,15.4z M168.1,29.9c0,1-0.5,2-1.4,2.9v-5.2c0.6-0.4,1-0.8,1.4-1.3V29.9z M148.3,37.2c-0.5-0.1-0.9-0.1-1.4-0.1 v-5.7c0.5,0.1,0.9,0.1,1.4,0.1V37.2z M152.3,37.3h-0.7h-0.7v-5.7h0.7h0.7V37.3z M156.2,37.1c-0.5,0.1-0.9,0.1-1.4,0.1v-5.7 c0.5-0.1,0.9-0.1,1.4-0.1V37.1z M160.1,36.2c-0.4,0.1-0.9,0.3-1.4,0.3v-5.7c0.5-0.1,1-0.2,1.4-0.3V36.2z M162.7,35.4v-5.5 c0.5-0.2,1-0.4,1.4-0.6v5.5C163.7,35,163.2,35.2,162.7,35.4z M144.3,31v5.7c-0.5-0.1-0.9-0.2-1.4-0.3v-5.6 C143.3,30.8,143.8,30.8,144.3,31z M168.1,50.1v-5.6c0.5-0.2,1-0.4,1.4-0.6v5.5C169.1,49.6,168.6,49.9,168.1,50.1z M164.2,45.7 c0.5-0.1,1-0.2,1.4-0.3V51c-0.4,0.1-0.9,0.3-1.4,0.3V45.7z M160.3,46.3c0.5-0.1,0.9-0.1,1.4-0.1v5.7c-0.4,0.1-0.9,0.1-1.4,0.1V46.3 z M156.3,46.4h0.7h0.7v5.7H157h-0.7V46.4z M152.3,46.2c0.5,0.1,0.9,0.1,1.4,0.1V52c-0.5-0.1-0.9-0.1-1.4-0.1V46.2z M148.4,45.4 c0.4,0.1,0.9,0.2,1.4,0.3v5.7c-0.5-0.1-1-0.2-1.4-0.3V45.4z M145.8,44.5V50c-0.5-0.2-1-0.4-1.4-0.7v-5.5 C144.8,44.1,145.3,44.3,145.8,44.5z M173.6,37.6c0,4.1-7.6,7.5-16.6,7.5s-16.6-3.4-16.6-7.5c0-0.2,0-0.4,0.1-0.6 c3.5,1.3,7.3,1.9,11,1.8c8.3,0,15.2-2.7,17.3-6.4C171.8,33.8,173.6,35.7,173.6,37.6z M169.4,31.1c0.1-0.4,0.1-0.8,0.1-1.2v-7.1 c0-5-7.9-8.9-18-8.9c-10.1,0-18,3.9-18,8.9v7.1c0,2.6,2.1,4.9,5.6,6.5c-0.1,0.3-0.1,0.8-0.1,1.1v5.2c-3.9,1.7-6,4.1-6,6.8V50v6.8 c0,5.1,8.2,9.2,18.6,9.2c10.4,0,18.6-4.1,18.6-9.2v-6.1c3-1.5,4.7-3.7,4.7-6v-7.1C175,35,172.9,32.8,169.4,31.1z"></path> </g> <g> <path class="st1" d="M28,50.5H12c-0.6,0-1,0.4-1,1v16c0,0.6,0.4,1,1,1h16c0.6,0,1-0.4,1-1v-16C29,50.9,28.6,50.5,28,50.5z M27,66.5 H13v-14h14V66.5z M48,50.5H32c-0.6,0-1,0.4-1,1v16c0,0.6,0.4,1,1,1h16c0.6,0,1-0.4,1-1v-16C49,50.9,48.6,50.5,48,50.5z M47,66.5H33 v-14h14V66.5z M68,50.5H52c-0.6,0-1,0.4-1,1v16c0,0.6,0.4,1,1,1h16c0.6,0,1-0.4,1-1v-16C69,50.9,68.6,50.5,68,50.5z M67,66.5H53 v-14h14V66.5z M55.3,60.2c-0.4-0.4-0.4-1,0-1.4s1-0.4,1.4,0l3,3l3.4-6.8c0.2-0.5,0.8-0.7,1.3-0.4c0.5,0.2,0.7,0.8,0.4,1.3l-4,8 c-0.1,0.3-0.4,0.5-0.7,0.5c-0.1,0-0.1,0-0.2,0c-0.3,0-0.5-0.1-0.7-0.3L55.3,60.2z M35.3,60.2c-0.4-0.4-0.4-1,0-1.4s1-0.4,1.4,0l3,3 l3.4-6.8c0.2-0.5,0.8-0.7,1.3-0.4c0.5,0.2,0.7,0.8,0.4,1.3l-4,8c-0.1,0.3-0.4,0.5-0.7,0.5c-0.1,0-0.1,0-0.2,0 c-0.3,0-0.5-0.1-0.7-0.3L35.3,60.2z M15.3,60.2c-0.4-0.4-0.4-1,0-1.4s1-0.4,1.4,0l3,3l3.4-6.8c0.2-0.5,0.8-0.7,1.3-0.4 c0.5,0.2,0.7,0.8,0.4,1.3l-4,8c-0.1,0.3-0.4,0.5-0.7,0.5c-0.1,0-0.1,0-0.2,0c-0.3,0-0.5-0.1-0.7-0.3L15.3,60.2z M28,46.5h24 c0.6,0,1-0.4,1-1v-7c0-4.7-3.4-8.9-7.6-10c2.7-1.8,4.4-4.8,4.4-8.2c0-5.4-4.4-9.8-9.8-9.8s-9.8,4.4-9.8,9.8c0,3.4,1.7,6.4,4.3,8.1 c-4.3,1-7.5,4.9-7.5,9.5v7.6C27,46.1,27.4,46.5,28,46.5z M32.2,20.3c0-4.3,3.5-7.8,7.8-7.8s7.8,3.5,7.8,7.8s-3.5,7.8-7.8,7.8 S32.2,24.6,32.2,20.3z M29,37.9c0-4.3,3.4-7.8,7.7-7.8h6.4c4.1,0,7.9,4,7.9,8.3v6h-3v-6.6c0-0.6-0.4-1-1-1s-1,0.4-1,1v6.6H34v-6.6 c0-0.6-0.4-1-1-1s-1,0.4-1,1v6.6h-3V37.9z"></path> </g> </svg> 