<?xml version="1.0" encoding="UTF-8"?> <svg xmlns="http://www.w3.org/2000/svg" width="87" height="81" viewBox="0 0 87 81" fill="none"><mask id="mask0_12_54" style="mask-type:alpha" maskUnits="userSpaceOnUse" x="0" y="0" width="87" height="81"><path d="M78.9439 20.877H80.6407C81.2552 20.877 81.7362 21.3572 81.7362 21.8508V27.5603H85.7442C86.3587 27.5603 86.8397 28.0405 86.8397 28.6542V73.3429C86.8397 75.8908 84.7689 77.8384 82.3374 77.8384C72.3708 77.8384 62.391 77.9585 52.5447 77.9585C49.9929 79.7861 46.5861 81 43.4198 81C40.2535 81 36.8467 79.7861 34.295 77.9585C24.4487 77.9585 14.4688 77.8384 4.5023 77.8384C2.07079 77.8384 0 75.8908 0 73.3429V28.6542C0 28.0405 0.480958 27.5603 1.09552 27.5603H5.1035V21.8508C5.1035 21.3706 5.58446 20.877 6.19902 20.877H11.9171C10.3406 18.6892 9.48556 16.0212 9.48556 13.2332C9.48556 5.9496 15.4441 0 22.6184 0C29.9129 0 35.8715 5.9496 35.8715 13.2332C35.8715 16.0212 35.0164 18.7026 33.44 20.877H37.5815C40.0131 20.877 42.2041 22.0909 43.4198 24.0385C44.3951 22.4644 45.9716 21.3706 47.8019 20.997C47.4412 19.543 47.1873 18.0889 47.1873 16.5015C47.1873 7.63044 54.4819 0.346838 63.3662 0.346838C72.2506 0.346838 79.5452 7.63044 79.5452 16.5015C79.5585 17.9555 79.318 19.4229 78.9439 20.877ZM27.1474 9.81818L21.6698 14.6739C21.3091 15.0341 20.5743 15.0341 20.2136 14.6739L18.0226 12.246C16.9271 11.1522 15.3506 12.6062 16.1923 13.7001L16.3125 13.8202L19.9598 17.7021C20.4407 18.1823 21.0553 18.3157 21.6565 17.8221L28.7105 11.5124C29.9396 10.4318 28.3632 8.73765 27.1474 9.81818ZM21.0553 12.4995L25.9183 8.12401C29.0846 5.57609 33.2128 10.1917 30.0599 13.0998L22.8856 19.4096C21.5496 20.5035 19.7193 20.5035 18.5035 19.1695C17.5283 18.0756 15.8315 16.3814 14.9765 15.2876C11.69 12.126 16.3125 7.64377 19.4788 10.792L21.0553 12.4995ZM13.881 22.9447H7.32125V67.9936C7.32125 69.2075 8.41677 70.3014 9.75276 70.3014H34.5622C35.7779 70.3014 36.9937 70.5415 37.969 71.2752C39.305 72.249 40.7612 72.9694 42.351 73.2228V67.0331H39.5588C35.1768 67.0331 35.297 60.3498 39.5588 60.3498H42.351V56.5879H39.5588C35.1768 56.5879 35.297 49.9046 39.5588 49.9046H42.351V46.1428H39.5588C35.297 46.1428 35.297 39.4595 39.5588 39.4595H42.351V35.6843H39.5588C35.297 35.6843 35.297 29.001 39.5588 29.001H42.351V27.667C42.351 25.1191 40.2803 22.9313 37.6083 22.9313H31.5295C29.2182 25.1191 26.0519 26.333 22.6451 26.333C19.2383 26.333 16.1923 25.1191 13.881 22.9447ZM22.6451 2.17441C16.5663 2.17441 11.7033 7.1502 11.7033 13.2199C11.7033 19.2895 16.5663 24.2653 22.6451 24.2653C28.8441 24.2653 33.7072 19.2895 33.7072 13.2199C33.7072 7.1502 28.8441 2.17441 22.6451 2.17441ZM51.1018 76.251V72.6092C50.8613 72.6092 50.4873 72.7292 50.2468 72.9694C45.8647 76.1309 41.0017 76.1309 36.6196 72.9694C36.3791 72.7292 36.0051 72.6092 35.7646 72.6092V76.251C37.9556 77.8251 40.6276 78.7989 43.4198 78.919C46.2388 78.7989 48.9108 77.8251 51.1018 76.251ZM53.2928 72.4891V75.7708H82.3641C83.5799 75.7708 84.6754 74.6769 84.6754 73.3429V29.6146H81.7629V67.9936C81.7629 70.4214 79.6921 72.4891 77.1404 72.4891H53.2928ZM33.5869 75.7574V72.4758H9.75276C7.20101 72.4758 5.13022 70.4081 5.13022 67.9802V29.6146H2.20439V73.3295C2.20439 74.6635 3.29991 75.7574 4.51566 75.7574H33.5869ZM13.1596 33.5099C11.7033 33.5099 11.7033 31.3221 13.1596 31.3221H23.6204C25.0766 31.3221 25.0766 33.5099 23.6204 33.5099H13.1596ZM27.9891 33.5099C26.5329 33.5099 26.5329 31.3221 27.9891 31.3221H32.2509C33.7072 31.3221 33.7072 33.5099 32.2509 33.5099H27.9891ZM13.1596 38.6057C11.7033 38.6057 11.7033 36.538 13.1596 36.538H20.0934C21.5496 36.538 21.5496 38.6057 20.0934 38.6057H13.1596ZM24.3418 38.6057C22.8856 38.6057 22.8856 36.538 24.3418 36.538H32.2509C33.7072 36.538 33.7072 38.6057 32.2509 38.6057H24.3418ZM13.1596 43.8216C11.7033 43.8216 11.7033 41.754 13.1596 41.754H25.9317C27.2677 41.754 27.2677 43.8216 25.9317 43.8216H13.1596ZM29.5789 43.8216C28.2429 43.8216 28.2429 41.754 29.5789 41.754H32.2509C33.7072 41.754 33.7072 43.8216 32.2509 43.8216H29.5789ZM13.1596 49.0509C11.7033 49.0509 11.7033 46.9832 13.1596 46.9832H14.9899C16.4461 46.9832 16.4461 49.0509 14.9899 49.0509H13.1596ZM19.2383 49.0509C17.7821 49.0509 17.7821 46.9832 19.2383 46.9832H32.2509C33.7072 46.9832 33.7072 49.0509 32.2509 49.0509H19.2383ZM13.1596 54.2668C11.7033 54.2668 11.7033 52.079 13.1596 52.079H24.1014C25.5576 52.079 25.5576 54.2668 24.1014 54.2668H13.1596ZM27.7486 54.2668C26.2924 54.2668 26.2924 52.079 27.7486 52.079H32.2509C33.7072 52.079 33.7072 54.2668 32.2509 54.2668H27.7486ZM13.1596 59.496C11.7033 59.496 11.7033 57.3083 13.1596 57.3083H17.4214C18.8776 57.3083 18.8776 59.496 17.4214 59.496H13.1596ZM21.6698 59.496C20.2136 59.496 20.2136 57.3083 21.6698 57.3083H32.2509C33.7072 57.3083 33.7072 59.496 32.2509 59.496H21.6698ZM13.1596 64.712C11.7033 64.712 11.7033 62.5242 13.1596 62.5242H24.8361C26.1721 62.5242 26.1721 64.712 24.8361 64.712H13.1596ZM28.9644 64.712C27.6284 64.712 27.6284 62.5242 28.9644 62.5242H32.2509C33.7072 62.5242 33.7072 64.712 32.2509 64.712H28.9644ZM68.4965 46.623V50.625H71.783V46.623H68.4965ZM68.4965 52.6927V56.6947H71.783V52.6927H68.4965ZM68.4965 58.8824V62.8844H71.783V58.8824H68.4965ZM66.3054 62.8977V58.8957H54.9896V62.8977H66.3054ZM66.3054 56.6947V52.6927H54.9896V56.6947H66.3054ZM66.3054 50.625V46.623H54.9896V50.625H66.3054ZM85.998 16.1413C87.334 16.1413 87.334 18.3291 85.998 18.3291H82.3507C80.8945 18.3291 80.8945 16.1413 82.3507 16.1413H85.998ZM79.318 0.720356C80.2933 -0.253459 81.8698 1.33399 80.7743 2.29447L78.3428 4.84239C77.2472 5.81621 75.791 4.36215 76.7663 3.26828L79.318 0.720356ZM84.3013 8.12401C85.6373 7.51038 86.3721 9.57806 85.0361 10.0716L81.7495 11.4056C80.4135 11.8859 79.6787 9.95158 80.8945 9.458L84.3013 8.12401ZM40.7612 18.3291C39.4252 18.3291 39.4252 16.1413 40.7612 16.1413H44.4085C45.7445 16.1413 45.7445 18.3291 44.4085 18.3291H40.7612ZM45.8647 2.29447C44.8894 1.32065 46.4793 -0.253459 47.4412 0.720356L49.9929 3.26828C50.9682 4.36215 49.3784 5.81621 48.4165 4.84239L45.8647 2.29447ZM41.6162 10.0716C40.4005 9.5914 41.1353 7.52372 42.4713 8.12401L45.7578 9.458C47.0938 9.93824 46.3724 11.8859 45.023 11.4056L41.6162 10.0716ZM53.894 44.4353H72.8652C73.4797 44.4353 73.9607 44.9155 73.9607 45.5291V63.8715C73.9607 64.4852 73.4797 64.9654 72.8652 64.9654H53.894C53.2795 64.9654 52.7985 64.4852 52.7985 63.8715V45.5291C52.7985 44.9155 53.2928 44.4353 53.894 44.4353ZM62.2841 30.2283V25.2525C60.7076 24.8923 59.238 23.5583 59.238 21.3706V19.3029C57.5413 18.8226 56.3256 17.2352 56.3256 15.4209C56.3256 13.1131 58.1559 11.2856 60.3335 11.2856C61.5493 11.2856 62.6448 11.7658 63.3796 12.6196C64.1144 11.7658 65.2099 11.2856 66.4257 11.2856C68.6167 11.2856 70.4337 13.1131 70.4337 15.4209C70.4337 17.2485 69.2179 18.8226 67.3876 19.3029V21.3706C67.3876 23.5583 66.0516 24.8923 64.4751 25.2525V30.2283L69.9527 28.8943C74.5752 26.2263 77.3675 21.9709 77.3675 16.5015C77.3675 8.72431 71.0482 2.53459 63.3796 2.53459C55.5908 2.53459 49.3917 8.72431 49.3917 16.5015C49.3917 25.6126 54.9896 28.4007 62.2841 30.2283ZM61.4424 19.3029V21.3706C61.4424 23.9185 65.2099 23.7984 65.3302 21.3706V19.3029C64.5954 19.0627 63.8739 18.6892 63.3796 18.0889C62.8986 18.6892 62.1638 19.0494 61.4424 19.3029ZM60.3469 13.4733C59.3716 13.4733 58.3963 14.3271 58.3963 15.4209C58.3963 16.3948 59.3716 17.3686 60.3469 17.3686C61.4424 17.3686 62.2975 16.3948 62.2975 15.4209C62.2841 14.3137 61.4424 13.4733 60.3469 13.4733ZM66.4257 13.4733C65.3302 13.4733 64.4751 14.3271 64.4751 15.4209C64.4751 16.3948 65.3302 17.3686 66.4257 17.3686C67.401 17.3686 68.256 16.3948 68.256 15.4209C68.2426 14.3137 67.401 13.4733 66.4257 13.4733ZM57.9154 36.2979L69.3515 33.3898V31.2021L57.4344 34.1102C57.4211 34.8439 57.6615 35.5642 57.9154 36.2979ZM69.0977 35.6843L59.2514 38.1122C60.3469 39.086 61.8031 39.6863 63.393 39.6863C65.9314 39.6996 68.2426 37.9921 69.0977 35.6843ZM58.8773 31.5623L57.3008 31.2021V31.9358L58.8773 31.5623ZM48.6703 23.0647C46.359 23.3048 44.5287 25.2525 44.5287 27.6803V29.0143H47.3209C51.5828 29.0143 51.5828 35.6976 47.3209 35.6976H44.5287V39.4595H47.3209C51.5828 39.4595 51.5828 46.1428 47.3209 46.1428H44.5287V49.9046H47.3209C51.5828 49.9046 51.703 56.5879 47.3209 56.5879H44.5287V60.3498H47.3209C51.5828 60.3498 51.703 67.0331 47.3209 67.0331H44.5287V73.2228C46.1052 72.9827 47.5748 72.249 48.9108 71.2752C50.0063 70.5415 51.1018 70.3014 52.3176 70.3014H77.127C78.463 70.3014 79.5585 69.2075 79.5585 67.9936V22.9447H78.1023C76.7663 25.9862 74.5752 28.6542 71.5292 30.3483V33.75C71.5292 38.2456 67.8819 41.8874 63.3796 41.8874C58.8773 41.8874 55.23 38.2456 55.23 33.75V30.3483C52.1973 28.6408 50.0063 26.0929 48.6703 23.0647ZM47.3343 41.6339H39.5455C37.969 41.6339 38.2095 43.9417 39.5455 43.9417H47.3343C48.7905 43.9417 48.7905 41.6339 47.3343 41.6339ZM47.3343 52.079H39.5455C38.0892 52.079 38.0892 54.3869 39.5455 54.3869H47.3343C48.7905 54.3869 48.7905 52.079 47.3343 52.079ZM47.3343 62.5242H39.5455C38.0892 62.5242 38.0892 64.832 39.5455 64.832H47.3343C48.7905 64.832 48.7905 62.5242 47.3343 62.5242ZM47.3343 31.2021H39.5455C37.969 31.2021 38.2095 33.5099 39.5455 33.5099H47.3343C48.7905 33.5099 48.7905 31.2021 47.3343 31.2021Z" fill="black"></path></mask><g mask="url(#mask0_12_54)"><rect x="-1" y="-5" width="90" height="90" fill="#1B54F8"></rect></g></svg> 