<?xml version="1.0" encoding="UTF-8"?> <svg xmlns="http://www.w3.org/2000/svg" xmlns:xlink="http://www.w3.org/1999/xlink" width="90" height="90" viewBox="0 0 90 90"><defs><clipPath id="clip-path"><rect id="Rectangle_12" data-name="Rectangle 12" width="90" height="90" transform="translate(206 589)" fill="#fff" stroke="#707070" stroke-width="1"></rect></clipPath></defs><g id="Mask_Group_9" data-name="Mask Group 9" transform="translate(-206 -589)" clip-path="url(#clip-path)"><g id="Group_243" data-name="Group 243" transform="translate(157.156 -143.15)"><path id="Path_324" data-name="Path 324" d="M172.179,117.7h-2.9a29.132,29.132,0,0,0-58.256,0h-2.9A10.073,10.073,0,0,0,98,127.815v5.713a10.133,10.133,0,0,0,10.115,10.115h5.245A2.319,2.319,0,0,0,115.7,141.3V118.168a24.445,24.445,0,1,1,48.89,0v24.445a5.536,5.536,0,0,1-5.526,5.526h-7.774v-2.06a6.743,6.743,0,0,0-13.487,0v4.4a2.319,2.319,0,0,0,2.341,2.341h18.919a10.192,10.192,0,0,0,10.115-9.366h3a10.133,10.133,0,0,0,10.115-10.115v-5.713a10.035,10.035,0,0,0-10.116-9.928Zm-69.495,15.828v-5.713a5.436,5.436,0,0,1,5.432-5.432h2.9v16.484h-2.9a5.416,5.416,0,0,1-5.432-5.338Zm39.8,14.7v-2.06a2.06,2.06,0,0,1,4.121,0v2.06Zm35.122-14.7a5.436,5.436,0,0,1-5.432,5.432h-2.9V122.382h2.9a5.436,5.436,0,0,1,5.432,5.432Z" transform="translate(-46.158 656.11)" fill="#1b54f8" stroke="#fff" stroke-width="2"></path></g></g></svg> 