<?xml version="1.0" encoding="UTF-8"?> <svg xmlns="http://www.w3.org/2000/svg" width="80" height="80" viewBox="0 0 80 80"><g id="Group_474" data-name="Group 474" transform="translate(-2441 -878)"><g id="Rectangle_118" data-name="Rectangle 118" transform="translate(2441 878)" fill="#fff" stroke="#707070" stroke-width="1" stroke-dasharray="6 6"><rect width="80" height="80" rx="6" stroke="none"></rect><rect x="0.5" y="0.5" width="79" height="79" rx="5.5" fill="none"></rect></g><g id="Group_467" data-name="Group 467" transform="translate(-11.718 147)"><path id="Path_433" data-name="Path 433" d="M208.349,155.765a17.153,17.153,0,1,1,6.657-1.35,17.152,17.152,0,0,1-6.657,1.35Zm0-32.524h0a15.372,15.372,0,1,0,10.852,4.5,15.36,15.36,0,0,0-10.852-4.5Z" transform="translate(2284.509 632.546)" fill="#1b54f8"></path><path id="Path_434" data-name="Path 434" d="M122.939,75.867H112.554a.908.908,0,0,1-.908-.908V70.8a23.643,23.643,0,0,1-5.889-2.421l-2.941,2.941h0a.908.908,0,0,1-1.289,0l-7.335-7.353a.908.908,0,0,1,0-1.289l2.941-2.941h0a23.8,23.8,0,0,1-2.421-5.895h-4.2a.907.907,0,0,1-.908-.908V42.558a.907.907,0,0,1,.908-.908h4.164A23.8,23.8,0,0,1,97.1,35.755l-2.941-2.941h0a.908.908,0,0,1,0-1.289l7.372-7.335a.908.908,0,0,1,1.289,0l2.941,2.941h0a23.638,23.638,0,0,1,5.889-2.421v-4.2a.908.908,0,0,1,.908-.908h10.385a.908.908,0,0,1,.908.908v4.164a23.643,23.643,0,0,1,5.889,2.421l2.941-2.941h0a.908.908,0,0,1,1.289,0l7.335,7.372a.908.908,0,0,1,0,1.289l-2.941,2.941h0a23.8,23.8,0,0,1,2.421,5.895h4.2a.907.907,0,0,1,.908.908V52.931a.907.907,0,0,1-.908.908H140.8a23.8,23.8,0,0,1-2.421,5.895l2.941,2.941h0a.908.908,0,0,1,0,1.289L133.966,71.3a.908.908,0,0,1-1.289,0l-2.941-2.941h0a23.638,23.638,0,0,1-5.889,2.421v4.2a.908.908,0,0,1-.908.889Zm-9.477-1.816h8.57v-3.97a.914.914,0,0,1,.7-.884,21.721,21.721,0,0,0,6.657-2.76.9.9,0,0,1,1.12.133l2.808,2.8,6.052-6.052-2.8-2.808a.9.9,0,0,1-.133-1.119,21.872,21.872,0,0,0,2.76-6.657.92.92,0,0,1,.89-.708h3.964V43.465h-3.964a.92.92,0,0,1-.89-.708,21.87,21.87,0,0,0-2.76-6.657.9.9,0,0,1,.133-1.12l2.8-2.8-6.052-6.052-2.808,2.79a.9.9,0,0,1-1.119.133,21.722,21.722,0,0,0-6.657-2.76.914.914,0,0,1-.7-.884v-3.97h-8.576v3.97a.914.914,0,0,1-.7.884,21.721,21.721,0,0,0-6.657,2.76.9.9,0,0,1-1.12-.133l-2.808-2.8-6.052,6.052,2.8,2.8a.9.9,0,0,1,.133,1.12,21.9,21.9,0,0,0-2.76,6.657.92.92,0,0,1-.889.708h-3.97v8.57H95.4a.92.92,0,0,1,.89.708,21.87,21.87,0,0,0,2.76,6.657.9.9,0,0,1-.133,1.12l-2.8,2.8,6.052,6.052,2.808-2.8a.9.9,0,0,1,1.119-.133,21.722,21.722,0,0,0,6.657,2.76.915.915,0,0,1,.7.884Z" transform="translate(2375.112 723.397)" fill="#1b54f8"></path><path id="Path_435" data-name="Path 435" d="M267.953,292.412a2.512,2.512,0,1,1,1.776-.735A2.513,2.513,0,0,1,267.953,292.412Zm0-3.2a.69.69,0,1,0,.492.2A.7.7,0,0,0,267.953,289.21Z" transform="translate(2218.279 484.551)" fill="#1b54f8"></path><path id="Path_436" data-name="Path 436" d="M390.821,231.093a2.511,2.511,0,1,1,1.77-.735,2.512,2.512,0,0,1-1.77.735Zm0-3.2h0a.7.7,0,1,0,.69.7.7.7,0,0,0-.69-.7Z" transform="translate(2108.695 539.243)" fill="#1b54f8"></path><path id="Path_437" data-name="Path 437" d="M329.321,261.823a2.5,2.5,0,1,1,1.772-.734A2.506,2.506,0,0,1,329.321,261.823Zm0-3.2a.689.689,0,1,0,.488.2A.69.69,0,0,0,329.321,258.628Z" transform="translate(2163.537 511.823)" fill="#1b54f8"></path><path id="Path_438" data-name="Path 438" d="M342.509,195.8a.908.908,0,0,1-.908-.908v-7.613a.908.908,0,1,1,1.815,0v7.613A.908.908,0,0,1,342.509,195.8Z" transform="translate(2150.349 574.652)" fill="#1b54f8"></path><path id="Path_439" data-name="Path 439" d="M404.106,192.48a.908.908,0,0,1-.908-.908v-4.3h0a.908.908,0,1,1,1.816,0v4.3h0A.908.908,0,0,1,404.106,192.48Z" transform="translate(2095.41 574.655)" fill="#1b54f8"></path><path id="Path_440" data-name="Path 440" d="M281.189,323.18a.908.908,0,0,1-.908-.908v-4.3h0a.908.908,0,1,1,1.815,0v4.3h0A.908.908,0,0,1,281.189,323.18Z" transform="translate(2205.042 458.08)" fill="#1b54f8"></path><path id="Path_441" data-name="Path 441" d="M342.509,295.809a.908.908,0,0,1-.908-.908v-7.613a.908.908,0,1,1,1.815,0V294.9A.908.908,0,0,1,342.509,295.809Z" transform="translate(2150.349 485.45)" fill="#1b54f8"></path><path id="Path_442" data-name="Path 442" d="M404.106,268.738a.908.908,0,0,1-.908-.908V256.937h0a.908.908,0,1,1,1.816,0v10.893h0A.908.908,0,0,1,404.106,268.738Z" transform="translate(2095.41 512.521)" fill="#1b54f8"></path><path id="Path_443" data-name="Path 443" d="M281.189,199.362a.907.907,0,0,1-.908-.908V187.561a.908.908,0,1,1,1.815,0v10.893A.907.907,0,0,1,281.189,199.362Z" transform="translate(2205.042 574.4)" fill="#1b54f8"></path></g></g></svg> 