<?xml version="1.0" encoding="UTF-8"?> <svg xmlns="http://www.w3.org/2000/svg" xmlns:xlink="http://www.w3.org/1999/xlink" width="80" height="80" viewBox="0 0 80 80"><defs><clipPath id="clip-path"><rect id="Rectangle_5" data-name="Rectangle 5" width="80" height="80" transform="translate(1019 132)" fill="#fff" stroke="#707070" stroke-width="1"></rect></clipPath></defs><g id="Mask_Group_5" data-name="Mask Group 5" transform="translate(-1019 -132)" clip-path="url(#clip-path)"><path id="Path_25" data-name="Path 25" d="M45.379,43.185l.014.041-.014.014,2.062,6.714H57.79l2.075-6.768ZM43.29,42.9,41.7,38.139H38.923v-1.9H43.06l1.682,5.046H62.4L59.174,51.838H46.03Zm5.887,9.942a2.717,2.717,0,1,1-2.726,2.713,2.714,2.714,0,0,1,2.726-2.713Zm.57,2.143a.82.82,0,1,0,0,1.166.819.819,0,0,0,0-1.166Zm6.28-2.143A2.717,2.717,0,1,1,53.3,55.555a2.714,2.714,0,0,1,2.726-2.713Zm.583,2.143a.82.82,0,1,0,0,1.166.844.844,0,0,0,0-1.166ZM14.861,33.094v-.949h1.9v.949c0,.99,1.994,1.6,3.12.732a.931.931,0,0,0,.42-.732c0-.814-.977-.99-1.94-1.166-1.75-.326-3.5-.637-3.5-3.025a3.211,3.211,0,0,1,2.726-2.943V24.467h1.9v1.492A3.211,3.211,0,0,1,22.213,28.9v.949h-1.9V28.9c0-.99-1.994-1.6-3.12-.732a.931.931,0,0,0-.42.732c0,.814.977.99,1.94,1.166,1.75.326,3.5.637,3.5,3.025a3.211,3.211,0,0,1-2.726,2.943v1.492h-1.9V36.037A3.211,3.211,0,0,1,14.861,33.094Zm3.676,11.488A13.612,13.612,0,0,1,11.972,42.9V58.58A127.7,127.7,0,0,1,33.321,57.6,6.243,6.243,0,0,1,33.1,56V38.519a6.072,6.072,0,0,1,6.049-6.049h5.778V12.192a3.114,3.114,0,0,0-3.106-3.106H39.357a4.861,4.861,0,0,1-4.842,4.747H22.389a4.882,4.882,0,0,1-4.856-4.747H15.078a3.114,3.114,0,0,0-3.106,3.106v6.917a13.583,13.583,0,1,1,6.565,25.473Zm-8.464-2.957a13.58,13.58,0,0,1,0-21.241V12.192a5.019,5.019,0,0,1,5-5H41.826a5.019,5.019,0,0,1,5,5V32.47H61.846a6.064,6.064,0,0,1,6.049,6.049V56a6.064,6.064,0,0,1-6.049,6.049H46.831a5.019,5.019,0,0,1-5,5H15.078a5.019,5.019,0,0,1-5-5Zm.2-2.36a11.682,11.682,0,1,0,0-16.521,11.69,11.69,0,0,0,0,16.521ZM44.931,62.052H39.153a6.044,6.044,0,0,1-4.9-2.509,124.912,124.912,0,0,0-22.285.949v1.56a3.114,3.114,0,0,0,3.106,3.106H41.825a3.132,3.132,0,0,0,3.106-3.106ZM61.845,34.369H39.153A4.168,4.168,0,0,0,35,38.519V56a4.168,4.168,0,0,0,4.151,4.151H61.845A4.168,4.168,0,0,0,66,56V38.519A4.168,4.168,0,0,0,61.845,34.369ZM19.444,9.086a2.958,2.958,0,0,0,2.943,2.848H34.514a2.958,2.958,0,0,0,2.943-2.848Z" transform="translate(1023.044 134.813)" fill="#1c54f8"></path></g></svg> 