<?xml version="1.0" encoding="UTF-8"?> <svg xmlns="http://www.w3.org/2000/svg" width="90" height="90" viewBox="0 0 90 90" fill="none"><mask id="mask0_2_28" style="mask-type:alpha" maskUnits="userSpaceOnUse" x="0" y="0" width="90" height="90"><g clip-path="url(#clip0_2_28)"><rect width="90" height="90" fill="#7B7B7B"></rect><path d="M90 0H0V90H90V0Z" fill="#B4B4B4"></path></g></mask><g mask="url(#mask0_2_28)"><path d="M69.773 77.9974C69.773 78.6856 69.215 79.2468 68.527 79.2468H15.482C14.793 79.2468 14.232 78.6856 14.232 77.9974C14.232 77.3072 14.793 76.746 15.482 76.746H68.527C69.216 76.746 69.773 77.3072 69.773 77.9974ZM79.815 64.2082C79.815 67.3182 82.346 69.8519 85.457 69.8519C86.147 69.8519 86.71 70.4121 86.71 71.1023C86.71 71.7925 86.147 72.3507 85.457 72.3507C82.347 72.3507 79.815 74.8845 79.815 77.9984C79.815 81.1103 82.346 83.6441 85.457 83.6441C86.147 83.6441 86.71 84.2023 86.71 84.8925C86.71 85.5817 86.147 86.1429 85.457 86.1429H11.436C6.947 86.1429 3.294 82.4898 3.294 77.9984C3.294 75.0925 4.827 72.5448 7.122 71.1013C4.827 69.6609 3.294 67.1141 3.294 64.2082C3.294 59.7159 6.946 56.0618 11.436 56.0618H85.457C86.147 56.0618 86.71 56.621 86.71 57.3122C86.71 58.0024 86.147 58.5625 85.457 58.5625C82.347 58.5625 79.815 61.0953 79.815 64.2082ZM77.315 77.9974C77.315 75.8087 78.182 73.8181 79.592 72.3497H11.436C8.325 72.3497 5.794 74.8835 5.794 77.9974C5.794 81.1093 8.324 83.6431 11.436 83.6431H79.593C78.183 82.1757 77.315 80.1881 77.315 77.9974ZM79.593 69.8519C78.183 68.3875 77.316 66.3969 77.316 64.2082C77.316 62.0186 78.183 60.027 79.593 58.5625H11.436C8.325 58.5625 5.794 61.0943 5.794 64.2082C5.794 67.3182 8.324 69.8519 11.436 69.8519H79.593ZM68.527 62.9569H15.482C14.793 62.9569 14.232 63.516 14.232 64.2082C14.232 64.8964 14.793 65.4566 15.482 65.4566H68.527C69.215 65.4566 69.773 64.8964 69.773 64.2082C69.773 63.516 69.216 62.9569 68.527 62.9569ZM90 20.9012C90 21.4524 89.639 21.9385 89.112 22.0975L67.212 28.7165V37.6802C67.212 44.2592 57.457 49.4138 45.003 49.4138C32.545 49.4138 22.789 44.2592 22.789 37.6802V28.7165L9.964 24.8404V37.5062C12.32 38.0734 14.082 40.185 14.082 42.7148V48.8216C14.082 49.5128 13.522 50.072 12.831 50.072H4.596C3.905 50.072 3.346 49.5128 3.346 48.8216V42.7148C3.346 40.186 5.108 38.0744 7.464 37.5072V24.0851L0.888 22.0975C0.361 21.9385 0 21.4524 0 20.9012C0 20.349 0.361 19.8629 0.888 19.7038L44.638 6.48184C44.874 6.41082 45.126 6.41082 45.362 6.48184L89.112 19.7038C89.639 19.8629 90 20.349 90 20.9012ZM8.714 39.8459C7.133 39.8459 5.846 41.1333 5.846 42.7158V47.5732H11.58V42.7158C11.58 41.1333 10.293 39.8459 8.714 39.8459ZM64.712 29.4718L45.362 35.3205C45.242 35.3555 45.122 35.3735 45.003 35.3735C44.878 35.3735 44.758 35.3555 44.639 35.3205L25.29 29.4728V37.6812C25.29 42.6868 34.316 46.915 45.003 46.915C55.687 46.915 64.712 42.6868 64.712 37.6812V29.4718ZM84.429 20.9012L45.002 8.98459L5.572 20.9012L45.003 32.8168L84.429 20.9012Z" fill="#1B54F8" stroke="#1B54F8" stroke-width="0.8"></path></g><defs><clipPath id="clip0_2_28"><rect width="90" height="90" fill="white"></rect></clipPath></defs></svg> 