<?xml version="1.0" encoding="UTF-8"?> <svg xmlns="http://www.w3.org/2000/svg" xmlns:xlink="http://www.w3.org/1999/xlink" width="60" height="60" viewBox="0 0 60 60"><defs><clipPath id="clip-path"><rect id="Rectangle_22" data-name="Rectangle 22" width="60" height="60" transform="translate(777 898)" fill="#fff" stroke="#707070" stroke-width="1"></rect></clipPath></defs><g id="Mask_Group_70" data-name="Mask Group 70" transform="translate(-777 -898)" clip-path="url(#clip-path)"><path id="Path_214" data-name="Path 214" d="M50.636,25.449H49V23.94a1.771,1.771,0,0,0-1.745-1.762l-.547-.006c-5.026-.036-10.7-.08-14.1,2.859-3.4-2.937-9.074-2.895-14.1-2.851l-.547.006a1.764,1.764,0,0,0-1.745,1.762v1.508H14.571A2.144,2.144,0,0,0,12.429,27.6V48a2.144,2.144,0,0,0,.633,1.525,2.114,2.114,0,0,0,1.508.617h.017l.554-.006c5.756-.048,12.282-.1,16.168,2.874a2.124,2.124,0,0,0,2.6,0c3.887-2.97,10.413-2.916,16.168-2.874l.554.006A2.134,2.134,0,0,0,52.792,48l0-20.406a2.162,2.162,0,0,0-2.154-2.144ZM46.694,23.4l.547.006a.538.538,0,0,1,.537.537V45.7a.53.53,0,0,1-.537.537h-.006l-.531-.006c-4.736-.038-10.048-.076-13.49,2.379l0-22.468c3.023-2.813,8.571-2.777,13.478-2.74Zm-29.266.543a.538.538,0,0,1,.537-.537l.547-.006c4.913-.038,10.461-.076,13.483,2.74V48.6c-3.019-2.148-7.459-2.385-11.7-2.385-.6,0-1.2.006-1.787.01l-.531.006h-.006a.539.539,0,0,1-.382-.155.531.531,0,0,1-.155-.382V23.94ZM51.561,47.992a.916.916,0,0,1-.268.654.9.9,0,0,1-.661.262l-.554-.006c-5.949-.048-12.7-.1-16.915,3.119a.9.9,0,0,1-1.116,0C27.826,48.8,21.08,48.854,15.131,48.9l-.554.006a.953.953,0,0,1-.661-.262.927.927,0,0,1-.268-.654v-20.4a.923.923,0,0,1,.923-.923h1.638V45.7a1.758,1.758,0,0,0,1.777,1.76l.531-.006c5-.038,10.681-.086,13.662,2.895a.613.613,0,0,0,.86,0c2.981-2.981,8.657-2.937,13.662-2.895l.531.006a1.758,1.758,0,0,0,1.777-1.76l0-19.028h1.638a.923.923,0,0,1,.923.923v20.4ZM35.145,32.65a.6.6,0,0,1,.323-.8c2.809-1.2,6.385-1.37,9.832-1.37a.612.612,0,1,1,0,1.225c-3.314,0-6.74.155-9.349,1.273a.659.659,0,0,1-.241.048.623.623,0,0,1-.564-.378Zm10.761,9.58a.613.613,0,0,1-.612.612c-3.314,0-6.744.155-9.349,1.273a.659.659,0,0,1-.241.048.62.62,0,0,1-.564-.371.6.6,0,0,1,.323-.8c2.809-1.2,6.385-1.37,9.832-1.37a.611.611,0,0,1,.612.606ZM35.145,28.935a.6.6,0,0,1,.323-.8c2.809-1.2,6.385-1.37,9.832-1.37a.612.612,0,1,1,0,1.225c-3.314,0-6.744.155-9.349,1.273a.659.659,0,0,1-.241.048.62.62,0,0,1-.564-.378Zm0,11.143a.6.6,0,0,1,.323-.8c2.809-1.2,6.385-1.37,9.832-1.37a.612.612,0,0,1,0,1.225c-3.314,0-6.744.155-9.349,1.273a.659.659,0,0,1-.241.048.62.62,0,0,1-.564-.378Zm0-3.711a.6.6,0,0,1,.323-.8c2.809-1.2,6.385-1.37,9.832-1.37a.612.612,0,1,1,0,1.225c-3.314,0-6.744.155-9.349,1.273a.659.659,0,0,1-.241.048.627.627,0,0,1-.564-.378ZM19.3,38.519a.617.617,0,0,1,.612-.612c3.442,0,7.019.166,9.832,1.37a.609.609,0,0,1-.241,1.17.659.659,0,0,1-.241-.048c-2.609-1.116-6.035-1.273-9.349-1.273a.6.6,0,0,1-.612-.606Zm0,3.711a.613.613,0,0,1,.612-.612c3.442,0,7.019.166,9.832,1.37a.609.609,0,0,1-.241,1.17.659.659,0,0,1-.241-.048c-2.609-1.116-6.035-1.273-9.349-1.273a.6.6,0,0,1-.612-.606Zm0-7.426a.613.613,0,0,1,.612-.612c3.442,0,7.019.166,9.832,1.37a.609.609,0,0,1-.241,1.17.659.659,0,0,1-.241-.048c-2.609-1.116-6.035-1.273-9.349-1.273A.6.6,0,0,1,19.3,34.8Zm0-7.428a.613.613,0,0,1,.612-.612c3.442,0,7.019.166,9.832,1.37a.609.609,0,0,1-.241,1.17.659.659,0,0,1-.241-.048c-2.609-1.116-6.035-1.273-9.349-1.273a.6.6,0,0,1-.612-.606Zm0,3.711a.613.613,0,0,1,.612-.612c3.442,0,7.019.166,9.832,1.37a.609.609,0,0,1-.241,1.17.659.659,0,0,1-.241-.048c-2.609-1.116-6.035-1.273-9.349-1.273a.6.6,0,0,1-.612-.606Zm-.789-19.858,5.1,1.966v4.437a1.606,1.606,0,0,0,.875,1.445A17.635,17.635,0,0,0,32.6,20.95a17.667,17.667,0,0,0,8.12-1.873,1.6,1.6,0,0,0,.875-1.445V13.195l2.433-.94v3.931h-.2A1.115,1.115,0,0,0,42.717,17.3v1.5a1.928,1.928,0,1,0,3.855,0V17.3a1.115,1.115,0,0,0-1.116-1.116h-.2v-4.4l1.445-.558a1.419,1.419,0,0,0,0-2.651L33.926,3.642a3.558,3.558,0,0,0-2.637,0L18.519,8.571a1.425,1.425,0,0,0,0,2.658Zm26.833,7.583a.709.709,0,1,1-1.418,0v-1.4h1.412v1.4Zm-4.973-1.187a.385.385,0,0,1-.22.361A16.425,16.425,0,0,1,32.6,19.72a16.436,16.436,0,0,1-7.556-1.735.385.385,0,0,1-.22-.361V13.662l6.455,2.492a3.683,3.683,0,0,0,1.321.252,3.735,3.735,0,0,0,1.321-.252l6.455-2.492ZM18.953,9.711l12.77-4.929a2.436,2.436,0,0,1,.881-.172,2.462,2.462,0,0,1,.881.172l12.77,4.929a.2.2,0,0,1,0,.378l-2.131.822L32.692,9.293a.61.61,0,1,0-.168,1.208l9.27,1.311-8.3,3.205a2.353,2.353,0,0,1-1.756,0l-12.77-4.929a.187.187,0,0,1-.128-.189.162.162,0,0,1,.115-.189Z" transform="translate(774.39 899.58)" fill="#1c54f8"></path></g></svg> 