<?xml version="1.0" encoding="UTF-8"?> <svg xmlns="http://www.w3.org/2000/svg" width="90" height="90" viewBox="0 0 90 90" fill="none"><mask id="mask0_1_133" style="mask-type:luminance" maskUnits="userSpaceOnUse" x="0" y="0" width="90" height="90"><path d="M90 0H0V90H90V0Z" fill="white"></path></mask><g mask="url(#mask0_1_133)"><path d="M87.9 59.1L84.6 57.8C84.1 56.2 83.5 54.7 82.7 53.2L84.1 49.8999C84.5 48.8999 84.4 47.7 83.6 46.8C82.6 45.7 81.6 44.6 80.4 43.7C79.6 43 78.4 42.8 77.4 43.3L74.1 44.7C72.7 43.9 71.1 43.3 69.5 42.8L68.3 39.8C71.2 21 58.4 3.29995 39.5 0.399948C20.7 -2.50005 3.00002 10.3 0.100023 29.2C-2.79998 48.1 10 65.7 28.9 68.6C32.4 69.2 36 69.2 39.6 68.6L42.6 69.8C43.1 71.4 43.7 72.8999 44.5 74.3999L43.1 77.7C42.7 78.7 42.8 79.9 43.6 80.8C44.6 81.9 45.6 82.9999 46.8 83.8999C47.7 84.5999 48.8 84.7 49.8 84.3L53.1 82.8999C54.5 83.7 56.1 84.3 57.7 84.8L59 88.1C59.4 89.1 60.3 89.7999 61.4 89.8999C62.2 89.9999 63 90 63.7 90C64.4 90 65.2 89.9999 65.9 89.8999C67 89.7999 67.9 89.1 68.3 88.1L69.6 84.8C71.2 84.3 72.7 83.7 74.2 82.8999L77.4 84.3C78.4 84.7 79.6 84.6 80.5 83.8C81.6 82.8 82.7 81.8 83.6 80.7C84.3 79.9 84.5 78.7 84 77.7L82.6 74.3999C83.4 72.9999 84 71.4 84.5 69.8L87.8 68.5C88.8 68.1 89.5 67.2 89.6 66.1C89.8 64.6 89.8 63.1 89.6 61.5C89.7 60.5 89 59.5 87.9 59.1ZM3.00002 34.6C3.00002 17.2 17.1 3.09996 34.5 3.09996C51.9 3.09996 66 17.2 66 34.6C66 35.6 65.9 36.7 65.8 37.7C64.8 37.6 63.8 37.6 62.8 37.6C62.9 36.6 63 35.6 63 34.6C63 18.9 50.3 6.09996 34.5 6.09996C18.7 6.09996 6.00002 18.8 6.00002 34.6C6.00002 50.3 18.7 63.1 34.5 63.1C35.5 63.1 36.5 62.9999 37.5 62.8999C37.5 63.8999 37.5 64.8999 37.6 65.8999C36.6 65.9999 35.5 66.1 34.5 66.1C17.1 66.1 3.00002 52 3.00002 34.6ZM43.2 50L44.6 53.3C43.8 54.7 43.2 56.2999 42.7 57.8999L39.4 59.2C39.1 59.3 38.8 59.6 38.5 59.8C37.7 59.9 36.8 60 36 60.1V57.2C36 56.4 35.3 55.7 34.5 55.7C33.7 55.7 33 56.4 33 57.2V60.1C27.3 59.8 21.9 57.5 17.6 53.7L19.7 51.6C20.3 51 20.2 50 19.6 49.5C19 49 18.1 49 17.6 49.5L15.5 51.6C11.7 47.3 9.40002 41.9 9.10002 36.2H12C12.8 36.2 13.5 35.5 13.5 34.7C13.5 33.9 12.8 33.2 12 33.2H9.10002C9.40002 27.5 11.7 22.1 15.5 17.8L17.6 19.8999C18.2 20.4999 19.2 20.4 19.7 19.8C20.2 19.2 20.2 18.3 19.7 17.8L17.6 15.7C21.9 11.9 27.3 9.59997 33 9.29997V12.2C33 13 33.7 13.7 34.5 13.7C35.3 13.7 36 13 36 12.2V9.29997C41.7 9.59997 47.1 11.9 51.4 15.7L49.3 17.8C48.7 18.4 48.7 19.2999 49.2 19.8999C49.8 20.4999 50.7 20.5 51.3 20L51.4 19.8999L53.5 17.8C57.3 22.1 59.6 27.5 59.9 33.2H57C56.2 33.2 55.5 33.9 55.5 34.7C55.5 35.5 56.2 36.2 57 36.2H59.9C59.9 37 59.8 37.9 59.6 38.7C59.3 39 59.1 39.3 59 39.6L57.7 42.8999C56.1 43.3999 54.6 44 53.1 44.8L49.9 43.3999C48.9 42.9999 47.7 43.0999 46.8 43.8999C45.7 44.8999 44.6 45.9 43.7 47.1C42.9 47.8 42.8 49 43.2 50ZM86.8 65.7L82.8 67.3C82.4 67.5 82 67.9 81.9 68.3C81.4 70.1 80.7 71.9 79.8 73.5C79.6 73.9 79.5 74.3999 79.7 74.8999L81.4 78.8C80.6 79.8 79.7 80.7 78.7 81.6L74.8 79.8999C74.4 79.7 73.9 79.7 73.4 80C71.8 81 70 81.7 68.2 82.1C67.7 82.2 67.3 82.6 67.2 83L65.7 87C64.4 87.1 63.1 87.1 61.8 87L60.2 83C60 82.6 59.6 82.2 59.2 82.1C57.4 81.6 55.6 80.9 54 80C53.6 79.8 53.1 79.7 52.6 79.8999L48.7 81.6C47.7 80.8 46.8 79.7999 45.9 78.8999L47.6 75C47.8 74.6 47.8 74.1 47.5 73.6C46.5 72 45.8 70.2 45.3 68.3999C45.2 67.8999 44.8 67.4999 44.4 67.3999L40.4 65.8C40.3 64.5 40.3 63.2 40.4 62L44.4 60.3999C44.8 60.1999 45.2 59.7999 45.3 59.3999C45.8 57.5999 46.5 55.8 47.4 54.2C47.6 53.8 47.7 53.3 47.5 52.8L45.8 48.8999C46.6 47.8999 47.6 47 48.5 46.1L52.4 47.8C52.8 48 53.3 48 53.8 47.7C55.4 46.7 57.2 46 59 45.6C59.5 45.5 59.9 45.1 60 44.7L61.5 40.8C62.8 40.7 64.1 40.7 65.4 40.8L67 44.8C67.2 45.2 67.6 45.6 68 45.7C69.8 46.2 71.6 46.9 73.2 47.8C73.6 48 74.1 48.0999 74.6 47.8999L78.5 46.2C79.5 47 80.4 47.9999 81.3 48.8999L79.6 52.8C79.4 53.2 79.4 53.7 79.7 54.2C80.7 55.8 81.4 57.5999 81.9 59.3999C82 59.8999 82.4 60.2999 82.8 60.3999L86.7 61.8999C86.9 63.0999 86.9 64.4 86.8 65.7Z" fill="#1B54F8" stroke="white" stroke-width="0.25" stroke-miterlimit="10"></path><path d="M63.7 48.1C55 48.1 48 55.1 48 63.8C48 72.5 55 79.5 63.7 79.5C72.4 79.5 79.4 72.5 79.4 63.8C79.4 55.1 72.4 48.1 63.7 48.1ZM63.7 76.6C56.7 76.6 51 70.9 51 63.9C51 56.9 56.7 51.2 63.7 51.2C70.7 51.2 76.4 56.9 76.4 63.9C76.4 70.9 70.7 76.5 63.7 76.6Z" fill="#1B54F8" stroke="white" stroke-width="0.25" stroke-miterlimit="10"></path><path d="M63.7 54.1C58.3 54.1 54 58.5 54 63.8C54 69.2 58.4 73.5 63.7 73.5C69 73.5 73.4 69.1 73.4 63.8C73.4 58.5 69.1 54.1 63.7 54.1ZM63.7 70.6C60 70.6 57 67.6 57 63.9C57 60.2 60 57.2 63.7 57.2C67.4 57.2 70.4 60.2 70.4 63.9C70.4 67.5 67.4 70.6 63.7 70.6Z" fill="#1B54F8" stroke="white" stroke-width="0.25" stroke-miterlimit="10"></path><path d="M44.9 38.1C45.2 37.3 44.7 36.5 44 36.2L36 33.5V18.1C36 17.3 35.3 16.6 34.5 16.6C33.7 16.6 33 17.3 33 18.1V34.6C33 35.2 33.4 35.8 34 36L43 39C43.8 39.3 44.6 38.9 44.9 38.1Z" fill="#1B54F8" stroke="white" stroke-width="0.25" stroke-miterlimit="10"></path></g></svg> 