<?xml version="1.0" encoding="UTF-8"?> <svg xmlns="http://www.w3.org/2000/svg" width="90" height="90" viewBox="0 0 90 90" fill="none"><mask id="mask0_1_48" style="mask-type:alpha" maskUnits="userSpaceOnUse" x="0" y="0" width="90" height="90"><rect width="90" height="90" fill="#D9D9D9"></rect></mask><g mask="url(#mask0_1_48)"><path d="M76.3345 12.3717H57.4554H57.345H52.1264C51.5094 12.3717 51.2169 11.9495 51.12 11.7683C51.0232 11.5871 50.8343 11.1091 51.1714 10.586C51.89 9.47322 52.2697 8.18021 52.2697 6.84607C52.2697 3.07089 49.2333 0 45.5005 0C41.7677 0 38.7312 3.07089 38.7312 6.84607C38.7312 8.18021 39.1109 9.47322 39.8296 10.586C40.1676 11.1081 39.9778 11.5871 39.8809 11.7683C39.7841 11.9495 39.4916 12.3717 38.8746 12.3717H33.656H33.5456H14.6665C12.0931 12.3717 10 14.4885 10 17.0912V85.2805C10 87.8832 12.0931 90 14.6665 90H76.3335C78.907 90 81 87.8832 81 85.2805V17.0912C81.001 14.4885 78.9079 12.3717 76.3345 12.3717ZM34.0696 15.0184H38.8746C40.2587 15.0184 41.5255 14.2564 42.1832 13.029C42.8399 11.8016 42.7779 10.3107 42.0214 9.13919C41.5817 8.45841 41.3493 7.66497 41.3493 6.84705C41.3493 4.53139 43.2118 2.64772 45.5015 2.64772C47.7911 2.64772 49.6537 4.53139 49.6537 6.84705C49.6537 7.66497 49.4212 8.45743 48.9815 9.13919C48.225 10.3107 48.163 11.8016 48.8197 13.029C49.4764 14.2564 50.7442 15.0194 52.1283 15.0194H56.9333V20.1826H34.0696V15.0184ZM57.4554 22.8294C58.6099 22.8294 59.5484 21.8792 59.5484 20.7126V20.406H73.0578V81.9677H17.9431V20.405H31.4525V20.7116C31.4525 21.8792 32.392 22.8284 33.5456 22.8284L57.4554 22.8294ZM78.3839 85.2805C78.3839 86.4237 77.4648 87.3533 76.3345 87.3533H14.6665C13.5362 87.3533 12.617 86.4237 12.617 85.2805V17.0912C12.617 15.948 13.5362 15.0184 14.6665 15.0184H31.4525V17.7582H16.6346C15.9121 17.7582 15.3261 18.3509 15.3261 19.0816V83.2901C15.3261 84.0208 15.9121 84.6135 16.6346 84.6135H74.3664C75.0889 84.6135 75.6749 84.0208 75.6749 83.2901V19.0816C75.6749 18.3509 75.0889 17.7582 74.3664 17.7582H59.5484V15.0184H76.3345C77.4648 15.0184 78.3839 15.948 78.3839 17.0912V85.2805ZM43.7309 29.2895C43.7309 28.5588 44.3169 27.9661 45.0395 27.9661H66.7738C67.4964 27.9661 68.0824 28.5588 68.0824 29.2895C68.0824 30.0202 67.4964 30.6129 66.7738 30.6129H45.0395C44.3169 30.6129 43.7309 30.0202 43.7309 29.2895ZM35.5844 35.9945C35.5844 35.2638 36.1704 34.6711 36.8929 34.6711H66.7738C67.4964 34.6711 68.0824 35.2638 68.0824 35.9945C68.0824 36.7253 67.4964 37.3179 66.7738 37.3179H36.8929C36.1704 37.3189 35.5844 36.7262 35.5844 35.9945ZM68.0833 42.7005C68.0833 43.4312 67.4974 44.0239 66.7748 44.0239H45.0404C44.3179 44.0239 43.7319 43.4312 43.7319 42.7005C43.7319 41.9698 44.3179 41.3771 45.0404 41.3771H66.7748C67.4974 41.3771 68.0833 41.9698 68.0833 42.7005ZM35.5844 49.4065C35.5844 48.6758 36.1704 48.0831 36.8929 48.0831H66.7738C67.4964 48.0831 68.0824 48.6758 68.0824 49.4065C68.0824 50.1372 67.4964 50.7299 66.7738 50.7299H36.8929C36.1704 50.7299 35.5844 50.1372 35.5844 49.4065ZM33.5107 30.3758L28.2098 36.6302C27.9648 36.9192 27.6083 37.0877 27.2316 37.0926C27.2267 37.0926 27.2209 37.0926 27.2161 37.0926C26.8451 37.0926 26.4906 36.9329 26.2427 36.6537L23.2528 33.2861C22.7694 32.7424 22.814 31.9059 23.3525 31.4171C23.891 30.9283 24.7182 30.9743 25.2005 31.518L27.1938 33.7631L31.5242 28.6538C31.9949 28.0984 32.8211 28.0337 33.3693 28.5098C33.9175 28.9858 33.9814 29.8214 33.5107 30.3758ZM23.2528 46.6971C22.7694 46.1534 22.814 45.3169 23.3525 44.8281C23.891 44.3393 24.7182 44.3853 25.2005 44.929L27.1938 47.1741L31.5242 42.0648C31.9949 41.5103 32.8211 41.4447 33.3693 41.9208C33.9185 42.3968 33.9814 43.2324 33.5117 43.7868L28.2108 50.0412C27.9657 50.3302 27.6093 50.4987 27.2325 50.5036C27.2277 50.5036 27.2219 50.5036 27.2171 50.5036C26.8461 50.5036 26.4916 50.3439 26.2437 50.0648L23.2528 46.6971ZM21.766 55.0076V57.7523C21.766 59.2118 22.9409 60.4 24.384 60.4H25.2499C26.5284 60.4 27.5841 61.1131 28.0733 62.3081C28.5624 63.5032 28.3144 64.7619 27.4108 65.6768L26.7986 66.2959C26.3047 66.7945 26.0335 67.4596 26.0335 68.1678C26.0335 68.876 26.3056 69.5411 26.7986 70.0397L30.637 73.9217C31.6579 74.9541 33.319 74.9531 34.3398 73.9217L34.9519 73.3026C35.8556 72.3887 37.1012 72.1379 38.2828 72.6326C39.4644 73.1273 40.1695 74.195 40.1695 75.488V76.3637C40.1695 77.8232 41.3444 79.0114 42.7876 79.0114H48.2153C49.6585 79.0114 50.8334 77.8232 50.8334 76.3637V75.488C50.8334 74.195 51.5385 73.1273 52.7201 72.6326C53.9008 72.1379 55.1463 72.3877 56.051 73.3026L56.6631 73.9217C57.1561 74.4203 57.8137 74.6955 58.514 74.6955C59.2143 74.6955 59.8719 74.4203 60.3649 73.9217L64.2023 70.0397C64.6963 69.5411 64.9675 68.876 64.9675 68.1678C64.9675 67.4596 64.6953 66.7945 64.2023 66.2959L63.5902 65.6768C62.6865 64.7619 62.4386 63.5032 62.9277 62.3081C63.4168 61.1131 64.4726 60.4 65.7511 60.4H66.6169C68.0601 60.4 69.2349 59.2118 69.2349 57.7523V55.0076C69.2349 54.2768 68.649 53.6842 67.9264 53.6842H56.5837C55.8611 53.6842 55.2752 54.2768 55.2752 55.0076C55.2752 60.4587 50.8905 64.8932 45.5005 64.8932C40.1105 64.8932 35.7258 60.4587 35.7258 55.0076C35.7258 54.2768 35.1398 53.6842 34.4173 53.6842H23.0745C22.352 53.6842 21.766 54.2768 21.766 55.0076ZM24.3831 56.3309H33.1775C33.8333 62.6216 39.11 67.5399 45.5005 67.5399C51.891 67.5399 57.1677 62.6216 57.8234 56.3309H66.6169L66.616 57.7532H65.7501C63.412 57.7532 61.4032 59.1109 60.5083 61.2953C59.6133 63.4797 60.085 65.8757 61.7383 67.5487L62.3505 68.1688L58.5111 72.0498L57.899 71.4307C56.2456 69.7576 53.8756 69.2815 51.7157 70.1867C49.5558 71.0918 48.2134 73.1233 48.2134 75.488L48.2124 76.3647L42.7837 76.3637V75.488C42.7837 73.1233 41.4422 71.0918 39.2814 70.1867C38.5569 69.883 37.8101 69.7351 37.074 69.7351C35.6135 69.7351 34.1974 70.3189 33.0981 71.4307L32.485 72.0498L28.6466 68.1668L29.2588 67.5477C30.9121 65.8757 31.3838 63.4797 30.4888 61.2943C29.5939 59.1099 27.5851 57.7523 25.247 57.7523L24.3802 57.7513V56.3309H24.3831Z" fill="#1A53F6"></path></g></svg> 