<?xml version="1.0" encoding="UTF-8"?> <svg xmlns="http://www.w3.org/2000/svg" id="Layer_1" data-name="Layer 1" viewBox="0 0 56 56"><defs><style>.cls-1{fill:#1b54f8;}</style></defs><rect class="cls-1" x="19.96" y="26.98" width="16.33" height="2.09" transform="translate(-6.92 46.69) rotate(-72.94)"></rect><polygon class="cls-1" points="21.09 22.14 15.13 28.21 21.09 34.17 22.56 32.71 18.06 28.21 22.56 23.61 21.09 22.14"></polygon><polygon class="cls-1" points="32.92 23.61 37.42 28.21 32.92 32.71 34.38 34.17 40.35 28.21 34.38 22.14 32.92 23.61"></polygon><path class="cls-1" d="M40.56,11.15a1,1,0,0,0-.73-.31H16.28a1,1,0,0,0-.73.31l-4.61,4.61a.93.93,0,0,0-.31.73V39.83a1,1,0,0,0,.31.73l4.61,4.6a1,1,0,0,0,.73.32H39.83a1,1,0,0,0,.73-.32l4.6-4.6a1,1,0,0,0,.32-.73V16.49a.94.94,0,0,0-.32-.73Zm2.82,28.26-4,4H16.7l-4-4V16.91l4-4H39.41l4,4Z"></path><path class="cls-1" d="M6.34,17.33H2.05a1,1,0,1,0,0,2.09H6.34a1,1,0,0,0,1-1.05A1,1,0,0,0,6.34,17.33Z"></path><path class="cls-1" d="M6.34,22.24H2.05a1.05,1.05,0,1,0,0,2.1H6.34a1,1,0,0,0,1-1.05A1,1,0,0,0,6.34,22.24Z"></path><path class="cls-1" d="M6.34,27.16H2.05a1.05,1.05,0,1,0,0,2.1H6.34a1,1,0,0,0,1-1.05A1,1,0,0,0,6.34,27.16Z"></path><path class="cls-1" d="M6.34,32.08H2.05a1,1,0,1,0,0,2.09H6.34a1,1,0,0,0,1-1A1,1,0,0,0,6.34,32.08Z"></path><path class="cls-1" d="M6.34,37H2.05a1,1,0,1,0,0,2.09H6.34a1,1,0,0,0,1-1A1,1,0,0,0,6.34,37Z"></path><path class="cls-1" d="M49.66,19.31H54a1,1,0,1,0,0-2.09H49.66a1,1,0,0,0-1,1.05A1,1,0,0,0,49.66,19.31Z"></path><path class="cls-1" d="M53.85,22.24H49.56a1.05,1.05,0,0,0,0,2.1h4.29a1.06,1.06,0,0,0,1-1.05A1,1,0,0,0,53.85,22.24Z"></path><path class="cls-1" d="M53.85,27.16H49.56a1.05,1.05,0,0,0,0,2.1h4.29a1.06,1.06,0,0,0,1-1.05A1,1,0,0,0,53.85,27.16Z"></path><path class="cls-1" d="M53.85,32.08H49.56a1,1,0,1,0,0,2.09h4.29a1,1,0,0,0,1-1A1,1,0,0,0,53.85,32.08Z"></path><path class="cls-1" d="M53.85,37H49.56a1,1,0,1,0,0,2.09h4.29a1.05,1.05,0,0,0,1-1A1,1,0,0,0,53.85,37Z"></path><path class="cls-1" d="M18.16,48.62a1,1,0,0,0-1,1V54a1,1,0,1,0,2.09,0V49.66A1,1,0,0,0,18.16,48.62Z"></path><path class="cls-1" d="M23.08,48.62a1,1,0,0,0-1,1V54a1,1,0,1,0,2.1,0V49.66A1,1,0,0,0,23.08,48.62Z"></path><path class="cls-1" d="M28,48.62a1,1,0,0,0-1.05,1V54a1.05,1.05,0,1,0,2.1,0V49.66A1,1,0,0,0,28,48.62Z"></path><path class="cls-1" d="M32.92,48.62a1,1,0,0,0-1.05,1V54A1.05,1.05,0,1,0,34,54V49.66A1,1,0,0,0,32.92,48.62Z"></path><path class="cls-1" d="M37.84,48.62a1,1,0,0,0-1.05,1V54a1,1,0,1,0,2.09,0V49.66A1,1,0,0,0,37.84,48.62Z"></path><path class="cls-1" d="M18.16,7.38a1,1,0,0,0,1.05-1V2.05a1,1,0,1,0-2.09,0V6.34A1,1,0,0,0,18.16,7.38Z"></path><path class="cls-1" d="M23.08,7.38a1,1,0,0,0,1.05-1V2.05a1,1,0,1,0-2.1,0V6.34A1,1,0,0,0,23.08,7.38Z"></path><path class="cls-1" d="M28,7.38a1,1,0,0,0,1.05-1V2.05a1,1,0,1,0-2.1,0V6.34A1,1,0,0,0,28,7.38Z"></path><path class="cls-1" d="M32.92,7.38a1,1,0,0,0,1-1V2.05a1.05,1.05,0,1,0-2.1,0V6.34A1,1,0,0,0,32.92,7.38Z"></path><path class="cls-1" d="M37.84,7.38a1,1,0,0,0,1-1V2.05a1,1,0,1,0-2.09,0V6.34A1,1,0,0,0,37.84,7.38Z"></path></svg> 