<?xml version="1.0" encoding="UTF-8"?> <svg xmlns="http://www.w3.org/2000/svg" xmlns:xlink="http://www.w3.org/1999/xlink" width="60" height="60" viewBox="0 0 60 60"><defs><clipPath id="clip-path"><rect id="Rectangle_871" data-name="Rectangle 871" width="60" height="60" transform="translate(50 253)" fill="#fff" stroke="#707070" stroke-width="1"></rect></clipPath></defs><g id="Mask_Group_100" data-name="Mask Group 100" transform="translate(-50 -253)" clip-path="url(#clip-path)"><g id="Group_167" data-name="Group 167" transform="translate(-113.999 52)"><path id="Path_238" data-name="Path 238" d="M24.7,37.356A2.358,2.358,0,0,0,22.349,35H11.356A2.358,2.358,0,0,0,9,37.356v1.57a2.338,2.338,0,0,0,.613,1.57A2.338,2.338,0,0,0,9,42.067v1.57a2.338,2.338,0,0,0,.613,1.57A2.338,2.338,0,0,0,9,46.778v1.57A2.358,2.358,0,0,0,11.356,50.7H22.349A2.358,2.358,0,0,0,24.7,48.349v-1.57a2.338,2.338,0,0,0-.613-1.57,2.338,2.338,0,0,0,.613-1.57v-1.57a2.338,2.338,0,0,0-.613-1.57,2.338,2.338,0,0,0,.613-1.57Zm-1.57,10.993a.786.786,0,0,1-.785.785H11.356a.786.786,0,0,1-.785-.785v-1.57a.786.786,0,0,1,.785-.785H22.349a.786.786,0,0,1,.785.785Zm0-4.711a.786.786,0,0,1-.785.785H11.356a.786.786,0,0,1-.785-.785v-1.57a.786.786,0,0,1,.785-.785H22.349a.786.786,0,0,1,.785.785Zm0-4.711a.786.786,0,0,1-.785.785H11.356a.786.786,0,0,1-.785-.785v-1.57a.786.786,0,0,1,.785-.785H22.349a.786.786,0,0,1,.785.785Z" transform="translate(167.282 198.698)" fill="#1c54f8" stroke="#fff" stroke-width="0.4"></path><rect id="Rectangle_883" data-name="Rectangle 883" width="2.062" height="1.031" transform="translate(178.25 236.091)" fill="#1c54f8" stroke="#fff" stroke-width="0.4"></rect><rect id="Rectangle_884" data-name="Rectangle 884" width="6.187" height="1.031" transform="translate(183.406 236.091)" fill="#1c54f8" stroke="#fff" stroke-width="0.4"></rect><rect id="Rectangle_885" data-name="Rectangle 885" width="2.062" height="1.031" transform="translate(178.25 241.247)" fill="#1c54f8" stroke="#fff" stroke-width="0.4"></rect><rect id="Rectangle_886" data-name="Rectangle 886" width="6.187" height="1.031" transform="translate(183.406 241.247)" fill="#1c54f8" stroke="#fff" stroke-width="0.4"></rect><rect id="Rectangle_887" data-name="Rectangle 887" width="2.062" height="2.062" transform="translate(178.25 245.372)" fill="#1c54f8" stroke="#fff" stroke-width="0.4"></rect><rect id="Rectangle_888" data-name="Rectangle 888" width="6.187" height="2.062" transform="translate(183.406 245.372)" fill="#1c54f8" stroke="#fff" stroke-width="0.4"></rect><path id="Path_239" data-name="Path 239" d="M54.557,1H32.57A1.572,1.572,0,0,0,31,2.57V19.845a1.572,1.572,0,0,0,1.57,1.57H54.557a1.572,1.572,0,0,0,1.57-1.57V2.57A1.572,1.572,0,0,0,54.557,1ZM32.57,19.845V2.57H54.557V19.845Z" transform="translate(162.557 206)" fill="#1c54f8" stroke="#fff" stroke-width="0.4"></path><path id="Path_240" data-name="Path 240" d="M45.591,9.991l-.421-.235q.009-.132.008-.26t-.008-.26L45.591,9a.786.786,0,0,0,.376-.888A5.46,5.46,0,0,0,44.453,5.57a.786.786,0,0,0-.924-.117l-.447.25a4.738,4.738,0,0,0-.5-.281V4.958A.786.786,0,0,0,42,4.2a5.719,5.719,0,0,0-3,0,.785.785,0,0,0-.583.759v.461a4.713,4.713,0,0,0-.5.281l-.444-.248a.785.785,0,0,0-.924.117,5.455,5.455,0,0,0-1.516,2.543A.786.786,0,0,0,35.4,9l.421.235q-.009.132-.008.26t.008.26l-.421.235a.785.785,0,0,0-.376.888,5.462,5.462,0,0,0,1.513,2.544.785.785,0,0,0,.924.117l.447-.25a4.678,4.678,0,0,0,.5.281v.464a.786.786,0,0,0,.582.759,5.838,5.838,0,0,0,1.505.2h.069a5.846,5.846,0,0,0,1.429-.2.785.785,0,0,0,.583-.759v-.461a4.729,4.729,0,0,0,.5-.281l.445.248a.784.784,0,0,0,.924-.117,5.455,5.455,0,0,0,1.516-2.543.786.786,0,0,0-.376-.888ZM43.554,8.956a2.726,2.726,0,0,1,0,1.08.785.785,0,0,0,.388.833l.306.171a3.884,3.884,0,0,1-.5.825,1.438,1.438,0,0,0-1.463.069,3.123,3.123,0,0,1-.463.258,1.4,1.4,0,0,0-.811,1.2,4.056,4.056,0,0,1-.463.033,4.132,4.132,0,0,1-.569-.032,1.4,1.4,0,0,0-.812-1.2,3.1,3.1,0,0,1-.463-.258,1.439,1.439,0,0,0-1.465-.067,3.886,3.886,0,0,1-.5-.826l.307-.171a.785.785,0,0,0,.388-.833,2.726,2.726,0,0,1,0-1.08.785.785,0,0,0-.388-.833l-.306-.171a3.884,3.884,0,0,1,.5-.825,1.441,1.441,0,0,0,1.463-.069A3.112,3.112,0,0,1,39.17,6.8a1.4,1.4,0,0,0,.811-1.2,4.056,4.056,0,0,1,.463-.033,3.556,3.556,0,0,1,.569.032,1.394,1.394,0,0,0,.812,1.2,3.131,3.131,0,0,1,.463.258,1.441,1.441,0,0,0,1.465.067,3.885,3.885,0,0,1,.5.826l-.306.171a.785.785,0,0,0-.388.833Z" transform="translate(161.698 205.356)" fill="#1c54f8" stroke="#fff" stroke-width="0.4"></path><path id="Path_241" data-name="Path 241" d="M41.356,8a2.356,2.356,0,1,0,2.356,2.356A2.356,2.356,0,0,0,41.356,8Zm0,3.141a.785.785,0,1,1,.785-.785.785.785,0,0,1-.785.785Z" transform="translate(160.838 204.497)" fill="#1c54f8" stroke="#fff" stroke-width="0.4"></path><rect id="Rectangle_889" data-name="Rectangle 889" width="1.031" height="10.312" transform="translate(214.342 214.436)" fill="#1c54f8" stroke="#fff" stroke-width="0.4"></rect><rect id="Rectangle_890" data-name="Rectangle 890" width="1.031" height="7.218" transform="translate(211.248 217.529)" fill="#1c54f8" stroke="#fff" stroke-width="0.4"></rect><rect id="Rectangle_891" data-name="Rectangle 891" width="1.031" height="5.156" transform="translate(208.155 219.592)" fill="#1c54f8" stroke="#fff" stroke-width="0.4"></rect><rect id="Rectangle_892" data-name="Rectangle 892" width="1.031" height="3.094" transform="translate(205.061 221.654)" fill="#1c54f8" stroke="#fff" stroke-width="0.4"></rect><path id="Path_242" data-name="Path 242" d="M15.134,54.624a14.136,14.136,0,0,0,4.989-27.362l-.554,1.469a12.582,12.582,0,1,1-6.79-.574V29.5a.785.785,0,0,0,1.189.673l3.926-2.356a.785.785,0,0,0,0-1.347l-3.926-2.356a.785.785,0,0,0-1.189.673v1.781a14.127,14.127,0,0,0,2.356,28.057Zm-.785-28.452,1.615.969-1.615.969Z" transform="translate(169 201.06)" fill="#1c54f8" stroke="#fff" stroke-width="0.4"></path><rect id="Rectangle_893" data-name="Rectangle 893" width="2.062" height="2.062" transform="translate(206.092 228.873)" fill="#1c54f8" stroke="#fff" stroke-width="0.4"></rect><rect id="Rectangle_894" data-name="Rectangle 894" width="2.062" height="2.062" transform="translate(206.092 231.966)" fill="#1c54f8" stroke="#fff" stroke-width="0.4"></rect><rect id="Rectangle_895" data-name="Rectangle 895" width="2.062" height="2.062" transform="translate(206.092 235.06)" fill="#1c54f8" stroke="#fff" stroke-width="0.4"></rect><rect id="Rectangle_896" data-name="Rectangle 896" width="2.062" height="2.062" transform="translate(206.092 238.154)" fill="#1c54f8" stroke="#fff" stroke-width="0.4"></rect><rect id="Rectangle_897" data-name="Rectangle 897" width="2.062" height="2.062" transform="translate(206.092 241.247)" fill="#1c54f8" stroke="#fff" stroke-width="0.4"></rect><rect id="Rectangle_898" data-name="Rectangle 898" width="2.062" height="2.062" transform="translate(202.999 241.247)" fill="#1c54f8" stroke="#fff" stroke-width="0.4"></rect><rect id="Rectangle_899" data-name="Rectangle 899" width="1.031" height="2.062" transform="translate(199.905 241.247)" fill="#1c54f8" stroke="#fff" stroke-width="0.4"></rect></g></g></svg> 