<?xml version="1.0" encoding="UTF-8"?> <svg xmlns="http://www.w3.org/2000/svg" xmlns:xlink="http://www.w3.org/1999/xlink" width="90" height="90" viewBox="0 0 90 90"><defs><clipPath id="clip-path"><rect id="Rectangle_24" data-name="Rectangle 24" width="90" height="90" transform="translate(467 1474)" fill="#fff"></rect></clipPath></defs><g id="Mask_Group_16" data-name="Mask Group 16" transform="translate(-467 -1474)" clip-path="url(#clip-path)"><g id="Group_293" data-name="Group 293" transform="translate(48.727 347.752)"><path id="Path_133" data-name="Path 133" d="M111.216,84a7.638,7.638,0,0,0-7.613,7.613V143a7.638,7.638,0,0,0,7.613,7.613h68.517A7.638,7.638,0,0,0,187.346,143V91.613A7.638,7.638,0,0,0,179.733,84Zm0,3.806h68.517a3.757,3.757,0,0,1,3.806,3.807v3.806H107.409V91.613a3.757,3.757,0,0,1,3.806-3.807Zm2.676,1.9a1.905,1.905,0,0,0,.179,3.806h1.9a1.9,1.9,0,1,0,0-3.806h-1.9a1.6,1.6,0,0,0-.179,0Zm7.613,0a1.905,1.905,0,0,0,.179,3.806h1.9a1.9,1.9,0,1,0,0-3.806h-1.9a1.6,1.6,0,0,0-.179,0Zm7.613,0a1.905,1.905,0,0,0,.179,3.806h1.9a1.9,1.9,0,1,0,0-3.806h-1.9a1.6,1.6,0,0,0-.179,0Zm-21.709,9.516H183.54V143a3.757,3.757,0,0,1-3.806,3.807H111.216A3.757,3.757,0,0,1,107.41,143Zm34.08,2.854a1.9,1.9,0,0,0-1.725,1.9v3.479a14.527,14.527,0,0,0-1.606.773l-2.765-2.765a1.9,1.9,0,0,0-2.8.149l-4.758,5.709a1.9,1.9,0,0,0,.119,2.558l1.9,1.9c-.219.458-.56.98-.8,1.517h-2.617a1.9,1.9,0,0,0-1.9,1.9v7.613a1.9,1.9,0,0,0,1.9,1.9h2.617c.241.533.556,1.063.773,1.517l-1.873,1.873a1.9,1.9,0,0,0-.119,2.588l4.758,5.71a1.9,1.9,0,0,0,2.8.119l2.765-2.766a14.464,14.464,0,0,0,1.606.773v3.509a1.9,1.9,0,0,0,1.9,1.9h7.613a1.9,1.9,0,0,0,1.9-1.9V138.54a14.464,14.464,0,0,0,1.606-.773l2.765,2.766a1.9,1.9,0,0,0,2.8-.119l4.758-5.71a1.9,1.9,0,0,0-.119-2.588l-1.873-1.873c.217-.454.532-.984.773-1.517h2.617a1.9,1.9,0,0,0,1.9-1.9V119.21a1.9,1.9,0,0,0-1.9-1.9H161.89c-.243-.537-.584-1.059-.8-1.517l1.9-1.9a1.9,1.9,0,0,0,.119-2.558l-4.758-5.709a1.9,1.9,0,0,0-2.8-.149l-2.765,2.765a14.532,14.532,0,0,0-1.606-.773v-3.479a1.9,1.9,0,0,0-1.9-1.9h-7.613c-.06,0-.12,0-.179,0Zm2.082,3.807h3.806v2.855a1.9,1.9,0,0,0,1.457,1.843,12.746,12.746,0,0,1,3.271,1.666,1.9,1.9,0,0,0,2.32-.268l2.349-2.349,2.29,2.8-1.606,1.606a1.9,1.9,0,0,0-.208,2.468c.526.745.68,1.573,1.754,3.6a1.9,1.9,0,0,0,1.7,1.011h1.9v3.807h-1.9a1.9,1.9,0,0,0-1.7,1.011c-1.074,2.026-1.228,2.854-1.754,3.6a1.9,1.9,0,0,0,.208,2.438l1.636,1.636-2.319,2.766-2.349-2.349a1.9,1.9,0,0,0-2.32-.268,12.7,12.7,0,0,1-3.271,1.665,1.9,1.9,0,0,0-1.457,1.874v2.854h-3.806v-2.854a1.9,1.9,0,0,0-1.457-1.874,12.7,12.7,0,0,1-3.271-1.665,1.9,1.9,0,0,0-2.32.268l-2.349,2.349-2.319-2.766,1.636-1.636a1.9,1.9,0,0,0,.208-2.438c-.526-.745-.68-1.573-1.754-3.6a1.9,1.9,0,0,0-1.7-1.011h-1.9v-3.807h1.9a1.9,1.9,0,0,0,1.7-1.011c1.074-2.026,1.228-2.854,1.754-3.6a1.9,1.9,0,0,0-.208-2.468l-1.606-1.606,2.29-2.8,2.349,2.349a1.9,1.9,0,0,0,2.32.268,12.746,12.746,0,0,1,3.271-1.665,1.9,1.9,0,0,0,1.457-1.843Zm1.9,7.613a9.516,9.516,0,1,0,9.516,9.516A9.545,9.545,0,0,0,145.474,113.5Zm0,3.806a5.71,5.71,0,1,1-5.71,5.71A5.682,5.682,0,0,1,145.474,117.307Z" transform="translate(317.67 1054.249)" fill="#1b54f8" stroke="#fff" stroke-width="2"></path></g></g></svg> 