<?xml version="1.0" encoding="UTF-8"?> <svg xmlns="http://www.w3.org/2000/svg" xmlns:xlink="http://www.w3.org/1999/xlink" width="60" height="60" viewBox="0 0 60 60"><defs><clipPath id="clip-path"><rect id="Rectangle_164" data-name="Rectangle 164" width="60" height="60" transform="translate(771 1460)" fill="#fff" stroke="#707070" stroke-width="1"></rect></clipPath></defs><g id="Mask_Group_63" data-name="Mask Group 63" transform="translate(-771 -1460)" clip-path="url(#clip-path)"><g id="Group_134" data-name="Group 134" transform="translate(84.311 5)"><path id="Path_548" data-name="Path 548" d="M73.931,24.15A2.212,2.212,0,0,0,72.3,23.5a3.941,3.941,0,0,0-3.8,4.055l.117,3.616L68,33.643a2.856,2.856,0,0,0-2.044.837L61.938,38.5l-1.392.241a4.475,4.475,0,0,0-2.4,1.239l-2.769,2.769a4.437,4.437,0,0,0-1.306,3.05l-.1,4.59a3.279,3.279,0,0,0-2.248,3.072l-.064,6.01A3.282,3.282,0,0,0,54.9,62.783l9.971.107H64.9a3.282,3.282,0,0,0,3.273-3.239l.064-6.009A3.276,3.276,0,0,0,66.1,50.536l.02-.139a4.748,4.748,0,0,1,1.346-2.675l4.678-4.678A7.4,7.4,0,0,0,74.264,38.6l.5-4.708a3.034,3.034,0,0,0,.056-.532l0-.013c0-.007,0-.014,0-.021,0-.031,0-.06,0-.091l-.242-7.592A2.212,2.212,0,0,0,73.931,24.15ZM66.589,53.623l-.064,6.009a1.609,1.609,0,0,1-.489,1.139,1.729,1.729,0,0,1-1.15.465l-9.971-.106a1.628,1.628,0,0,1-1.6-1.638l.064-6.01A1.623,1.623,0,0,1,55,51.878h.018l9.971.107a1.628,1.628,0,0,1,1.6,1.638Zm4.382-11.748-4.678,4.678a6.391,6.391,0,0,0-1.813,3.6l-.025.171-8.828-.095.1-4.391a2.8,2.8,0,0,1,.822-1.919l2.769-2.769a2.816,2.816,0,0,1,1.508-.778l1.653-.286a.8.8,0,0,0,.167-.048l.01-.006a.826.826,0,0,0,.262-.174l0,0,4.206-4.208a1.214,1.214,0,0,1,1.716,1.717L64.012,42.2a.827.827,0,0,0,1.17,1.168l4.832-4.832a2.855,2.855,0,0,0-.428-4.4l.661-2.673c0-.009,0-.018,0-.027a.73.73,0,0,0,.012-.085c0-.029.006-.057.006-.085,0-.009,0-.018,0-.028l-.121-3.728a2.285,2.285,0,0,1,2.2-2.351.572.572,0,0,1,.419.165.556.556,0,0,1,.165.377l.241,7.532-.056.53c0,.02-.006.04-.006.059l-.486,4.609A5.742,5.742,0,0,1,70.971,41.875Z" transform="translate(666.021 1446.691)" fill="#1c54f8" stroke="#fff" stroke-width="0.4"></path><circle id="Ellipse_12" data-name="Ellipse 12" cx="1.414" cy="1.414" r="1.414" transform="translate(729.218 1499.657)" fill="#1c54f8" stroke="#fff" stroke-width="0.4"></circle><path id="Path_549" data-name="Path 549" d="M6.537,25.643l-.242,7.6c0,.033,0,.064,0,.1v.014a2.973,2.973,0,0,0,.057.541l.5,4.706a7.4,7.4,0,0,0,2.124,4.445l4.678,4.678A4.746,4.746,0,0,1,15,50.393l.021.143a3.276,3.276,0,0,0-2.146,3.105l.064,6.009a3.282,3.282,0,0,0,3.273,3.239h.036l9.971-.106a3.282,3.282,0,0,0,3.239-3.309l-.064-6.01a3.278,3.278,0,0,0-2.248-3.072l-.1-4.59a4.439,4.439,0,0,0-1.306-3.049l-2.769-2.769a4.48,4.48,0,0,0-2.4-1.238L19.179,38.5l-4.021-4.024a2.86,2.86,0,0,0-2.043-.836L12.5,31.173l.118-3.617A3.944,3.944,0,0,0,8.811,23.5a2.22,2.22,0,0,0-2.274,2.141Zm21.2,27.838.064,6.01a1.628,1.628,0,0,1-1.6,1.638l-9.971.107a1.7,1.7,0,0,1-1.149-.464,1.609,1.609,0,0,1-.489-1.139l-.065-6.01a1.628,1.628,0,0,1,1.6-1.639l9.971-.107h.017A1.623,1.623,0,0,1,27.741,53.482ZM8.354,25.319a.59.59,0,0,1,.41-.165,2.286,2.286,0,0,1,2.2,2.35l-.121,3.73c0,.009,0,.018,0,.028,0,.028,0,.057.006.085a.715.715,0,0,0,.012.085c0,.009,0,.018,0,.028l.661,2.673a2.855,2.855,0,0,0-.429,4.4l4.832,4.832A.827.827,0,0,0,17.1,42.2l-4.832-4.832a1.214,1.214,0,1,1,1.716-1.717l4.206,4.209,0,0a.818.818,0,0,0,.262.174l.01.006a.833.833,0,0,0,.167.048l1.655.286a2.809,2.809,0,0,1,1.506.778l2.769,2.769a2.792,2.792,0,0,1,.822,1.918l.1,4.392-8.828.095-.025-.174a6.386,6.386,0,0,0-1.812-3.6l-4.678-4.678A5.741,5.741,0,0,1,8.5,38.427L8.01,33.818c0-.02,0-.039-.006-.059l-.056-.53.24-7.531A.557.557,0,0,1,8.354,25.319Z" transform="translate(686.394 1446.691)" fill="#1c54f8" stroke="#fff" stroke-width="0.4"></path><circle id="Ellipse_13" data-name="Ellipse 13" cx="1.414" cy="1.414" r="1.414" transform="translate(701.485 1499.657)" fill="#1c54f8" stroke="#fff" stroke-width="0.4"></circle><path id="Path_550" data-name="Path 550" d="M45.1,29.45a6.015,6.015,0,1,0-6.015-6.015A6.022,6.022,0,0,0,45.1,29.45Zm0-10.378a4.363,4.363,0,1,1-4.363,4.363A4.368,4.368,0,0,1,45.1,19.073Z" transform="translate(671.67 1449.422)" fill="#1c54f8" stroke="#fff" stroke-width="0.4"></path><path id="Path_551" data-name="Path 551" d="M38.881,30.715h2.611a1.858,1.858,0,0,0,1.855-1.855V27.116a9.766,9.766,0,0,0,3.277-1.892l1.51.872a1.843,1.843,0,0,0,.925.25,1.884,1.884,0,0,0,.483-.064,1.843,1.843,0,0,0,1.126-.864l1.306-2.261a1.859,1.859,0,0,0-.679-2.535l-1.511-.872a9.863,9.863,0,0,0,0-3.784l1.509-.872a1.857,1.857,0,0,0,.679-2.535L50.668,10.3a1.857,1.857,0,0,0-2.534-.679l-1.51.872A9.762,9.762,0,0,0,43.347,8.6V6.855A1.856,1.856,0,0,0,41.493,5H38.881a1.857,1.857,0,0,0-1.855,1.855V8.6a9.758,9.758,0,0,0-3.278,1.892l-1.51-.872A1.858,1.858,0,0,0,29.7,10.3L28.4,12.559a1.858,1.858,0,0,0,.679,2.534l1.51.872a9.834,9.834,0,0,0,0,3.784l-1.511.872a1.857,1.857,0,0,0-.679,2.534L29.7,25.417a1.852,1.852,0,0,0,2.534.679l1.51-.872a9.768,9.768,0,0,0,3.277,1.892v1.743A1.859,1.859,0,0,0,38.881,30.715Zm-7.468-6.05a.2.2,0,0,1-.277-.074L29.83,22.329a.2.2,0,0,1,.074-.277l1.859-1.073a2.65,2.65,0,0,0,.259-.172l.007-.007c.016-.012.029-.027.044-.04a.822.822,0,0,0,.272-.5s0-.009,0-.013a.822.822,0,0,0,.006-.147c0-.011,0-.022,0-.034a.859.859,0,0,0-.02-.129s0,0,0-.006a8.171,8.171,0,0,1,0-4.153.839.839,0,0,0,.021-.3A.825.825,0,0,0,32,14.9a2.5,2.5,0,0,0-.241-.16L29.9,13.662a.2.2,0,0,1-.074-.277l1.306-2.261a.2.2,0,0,1,.277-.074l1.859,1.074a2.648,2.648,0,0,0,.272.135c.018.008.037.012.056.019a.819.819,0,0,0,.256.05c.006,0,.011,0,.017,0s.012,0,.018,0a.827.827,0,0,0,.284-.055l.015-.006a.824.824,0,0,0,.267-.176h0a8.088,8.088,0,0,1,3.6-2.078c.02-.006.037-.015.057-.021l.045-.017a.817.817,0,0,0,.217-.132l.027-.025a.833.833,0,0,0,.163-.2c0-.009.008-.018.012-.026a.825.825,0,0,0,.084-.268s0,0,0,0A2.639,2.639,0,0,0,38.678,9V6.855a.2.2,0,0,1,.2-.2h2.611a.2.2,0,0,1,.2.2V9a2.713,2.713,0,0,0,.019.309l0,.007a.8.8,0,0,0,.023.1c0,.02.008.04.014.059a.642.642,0,0,0,.028.063.785.785,0,0,0,.039.085s.007.009.01.014a.86.86,0,0,0,.082.116l.006.006a.852.852,0,0,0,.11.1c.006,0,.014.008.02.013a.843.843,0,0,0,.116.073l.024.009a.769.769,0,0,0,.13.049l0,0a8.1,8.1,0,0,1,3.6,2.078h0a.832.832,0,0,0,.265.175l.018.007a.82.82,0,0,0,.282.055c.006,0,.012,0,.018,0s.011,0,.017,0a.819.819,0,0,0,.256-.05c.019-.007.037-.011.056-.019a2.6,2.6,0,0,0,.272-.135l1.859-1.073a.2.2,0,0,1,.277.074l1.306,2.261a.2.2,0,0,1-.074.277l-1.857,1.072a2.605,2.605,0,0,0-.233.152.828.828,0,0,0-.323.928,8.174,8.174,0,0,1-.009,4.118s0,0,0,.006a.786.786,0,0,0-.02.129c0,.011,0,.022,0,.034a.82.82,0,0,0,.006.147s0,.009,0,.013a.821.821,0,0,0,.272.5c.015.013.028.028.044.04l.007.007a2.719,2.719,0,0,0,.259.172l1.859,1.073a.2.2,0,0,1,.074.277L49.238,24.59a.2.2,0,0,1-.123.094.2.2,0,0,1-.154-.02L47.1,23.592a2.5,2.5,0,0,0-.283-.14l-.006,0-.009,0a.825.825,0,0,0-.889.179h0a8.112,8.112,0,0,1-3.6,2.076l-.007,0c-.023.007-.044.017-.065.025a.824.824,0,0,0-.5.506c0,.009,0,.02-.007.03a.814.814,0,0,0-.029.131s0,0,0,0a2.64,2.64,0,0,0-.02.312v2.146a.2.2,0,0,1-.2.2H38.881a.2.2,0,0,1-.2-.2V26.713a2.7,2.7,0,0,0-.019-.309.042.042,0,0,1,0-.009.823.823,0,0,0-.02-.09c-.006-.024-.009-.048-.017-.071a.582.582,0,0,0-.024-.053.79.79,0,0,0-.042-.093l-.007-.01a.859.859,0,0,0-.084-.119l-.013-.012a.848.848,0,0,0-.1-.1c-.009-.007-.02-.013-.03-.019a.887.887,0,0,0-.106-.067l-.031-.013a.8.8,0,0,0-.122-.046l-.006,0a8.11,8.11,0,0,1-3.6-2.076h0a.828.828,0,0,0-.886-.179l-.012,0-.008,0a2.675,2.675,0,0,0-.279.138Z" transform="translate(676.579 1455)" fill="#1c54f8" stroke="#fff" stroke-width="0.4"></path></g></g></svg> 