<?xml version="1.0" encoding="UTF-8"?> <svg xmlns="http://www.w3.org/2000/svg" xmlns:xlink="http://www.w3.org/1999/xlink" width="90" height="90" viewBox="0 0 90 90"><defs><clipPath id="clip-path"><rect id="Rectangle_16" data-name="Rectangle 16" width="90" height="90" transform="translate(574 268)" fill="#fff" stroke="#707070" stroke-width="1"></rect></clipPath></defs><g id="Mask_Group_24" data-name="Mask Group 24" transform="translate(-574 -268)" clip-path="url(#clip-path)"><path id="Path_86" data-name="Path 86" d="M36.326,35.681,40.58,19.816a1.155,1.155,0,0,1,2.23.6L38.562,36.28a1.158,1.158,0,0,1-1.118.857,1.215,1.215,0,0,1-.3-.039,1.161,1.161,0,0,1-.822-1.417Zm7.932-3.908,3.73-3.727-3.73-3.724a1.157,1.157,0,1,1,1.636-1.636l4.541,4.544a1.151,1.151,0,0,1,0,1.635L45.895,33.41a1.157,1.157,0,0,1-1.636-1.637ZM28.37,28.048a1.151,1.151,0,0,1,.34-.817l4.54-4.544a1.157,1.157,0,1,1,1.636,1.636l-3.729,3.726,3.727,3.725a1.157,1.157,0,1,1-1.636,1.636l-4.54-4.544a1.151,1.151,0,0,1-.34-.818Zm11.2-13.333A13.333,13.333,0,1,0,52.907,28.049,13.333,13.333,0,0,0,39.571,14.715Zm0,28.979A15.646,15.646,0,1,0,23.924,28.047,15.646,15.646,0,0,0,39.571,43.694ZM24.988,9.77l-3.7,3.7,2.536,3.6a1.156,1.156,0,0,1,.035,1.275,18.553,18.553,0,0,0-2.264,5.47,1.159,1.159,0,0,1-.928.875l-4.336.749v5.23l4.336.749a1.159,1.159,0,0,1,.928.875,18.2,18.2,0,0,0,2.267,5.468,1.156,1.156,0,0,1-.035,1.275l-2.539,3.593,3.7,3.7,3.6-2.536a1.151,1.151,0,0,1,1.275-.038,18.369,18.369,0,0,0,5.469,2.268,1.151,1.151,0,0,1,.872.929l.75,4.333h5.23l.75-4.333a1.165,1.165,0,0,1,.879-.928,18.364,18.364,0,0,0,5.469-2.269,1.151,1.151,0,0,1,1.275.038l3.6,2.535,3.7-3.7-2.536-3.6a1.156,1.156,0,0,1-.035-1.275,18.217,18.217,0,0,0,2.264-5.47,1.159,1.159,0,0,1,.928-.875l4.336-.749V25.433l-4.336-.749a1.159,1.159,0,0,1-.928-.875,18.2,18.2,0,0,0-2.267-5.471,1.156,1.156,0,0,1,.035-1.275l2.536-3.6-3.7-3.7-3.6,2.536a1.151,1.151,0,0,1-1.275.038,18.369,18.369,0,0,0-5.469-2.268,1.167,1.167,0,0,1-.879-.929l-.75-4.333H36.95L36.2,9.144a1.151,1.151,0,0,1-.872.929,18.369,18.369,0,0,0-5.469,2.268,1.151,1.151,0,0,1-1.275-.038l-3.6-2.536ZM73.934,20.6a1.707,1.707,0,0,0-1.7-1.709H58.219A19.911,19.911,0,0,1,59.6,22.533l4.555.789a1.151,1.151,0,0,1,.961,1.139v7.176a1.151,1.151,0,0,1-.961,1.14l-4.555.788a20.17,20.17,0,0,1-1.973,4.749l2.666,3.782a1.151,1.151,0,0,1-.123,1.48L55.1,48.651a1.151,1.151,0,0,1-1.48.128l-3.777-2.666a20.738,20.738,0,0,1-4.752,1.973L44.3,52.639a1.151,1.151,0,0,1-1.139.96H35.985a1.151,1.151,0,0,1-1.138-.96l-.791-4.555a20.565,20.565,0,0,1-4.745-1.973l-3.782,2.666a1.151,1.151,0,0,1-1.48-.128l-5.079-5.074a1.151,1.151,0,0,1-.123-1.48l2.659-3.782a20.372,20.372,0,0,1-1.964-4.749l-4.556-.787a1.151,1.151,0,0,1-.962-1.14V24.46a1.151,1.151,0,0,1,.962-1.139l4.555-.789a19.933,19.933,0,0,1,1.384-3.646H6.913a1.708,1.708,0,0,0-1.7,1.709V58.814H73.934Zm-1.7,45.73H6.913a1.708,1.708,0,0,1-1.7-1.709v-3.49H73.934v3.491a1.707,1.707,0,0,1-1.7,1.709ZM42.86,74.191H36.282A9.931,9.931,0,0,0,38.1,68.639h2.931a9.931,9.931,0,0,0,1.826,5.552ZM2.89,20.6V64.617a4.029,4.029,0,0,0,4.023,4.022H35.789c-.164,3.056-1.786,5.551-3.7,5.552H30.609a1.157,1.157,0,0,0,0,2.313H48.534a1.157,1.157,0,0,0,0-2.313h-1.48c-1.909,0-3.532-2.5-3.7-5.552H72.229a4.029,4.029,0,0,0,4.023-4.022V20.6a4.029,4.029,0,0,0-4.023-4.022H58.491L60.3,14a1.151,1.151,0,0,0-.123-1.48L55.1,7.446a1.151,1.151,0,0,0-1.48-.127L49.833,9.983a20.455,20.455,0,0,0-4.745-1.969L44.3,3.46a1.151,1.151,0,0,0-1.14-.96H35.985a1.151,1.151,0,0,0-1.138.96l-.791,4.555A20.455,20.455,0,0,0,29.31,9.983L25.528,7.318a1.151,1.151,0,0,0-1.48.127l-5.079,5.074A1.151,1.151,0,0,0,18.846,14l1.809,2.57H6.913A4.029,4.029,0,0,0,2.89,20.6Z" transform="translate(579.11 273.5)" fill="#1c54f7" fill-rule="evenodd"></path></g></svg> 