<?xml version="1.0" encoding="UTF-8"?> <svg xmlns="http://www.w3.org/2000/svg" xmlns:xlink="http://www.w3.org/1999/xlink" width="60" height="60" viewBox="0 0 60 60"><defs><clipPath id="clip-path"><rect id="Rectangle_18" data-name="Rectangle 18" width="60" height="60" transform="translate(777 694)" fill="#fff" stroke="#707070" stroke-width="1"></rect></clipPath></defs><g id="Mask_Group_67" data-name="Mask Group 67" transform="translate(-777 -694)" clip-path="url(#clip-path)"><path id="Path_208" data-name="Path 208" d="M36.187,24.344a6.472,6.472,0,1,0-6.47-6.471,6.472,6.472,0,0,0,6.47,6.471Zm0-11.638a5.166,5.166,0,1,1-5.164,5.165,5.166,5.166,0,0,1,5.164-5.165ZM23.879,20.2l2.574.355a9.992,9.992,0,0,0,.953,2.3l-1.57,2.076a.653.653,0,0,0,.059.856l2.38,2.38a.653.653,0,0,0,.856.058L31.2,26.652a9.993,9.993,0,0,0,2.3.954l.354,2.574a.653.653,0,0,0,.647.564h3.366a.653.653,0,0,0,.647-.564l.355-2.575a10.031,10.031,0,0,0,2.3-.954l2.077,1.571a.653.653,0,0,0,.856-.059l2.38-2.38a.653.653,0,0,0,.059-.856l-1.571-2.072a10.024,10.024,0,0,0,.953-2.3L48.5,20.2a.652.652,0,0,0,.564-.647V16.189a.653.653,0,0,0-.564-.647l-2.574-.355a10.02,10.02,0,0,0-.953-2.3l1.567-2.07a.653.653,0,0,0-.059-.856L44.1,7.58a.653.653,0,0,0-.854-.058l-2.072,1.57a10.011,10.011,0,0,0-2.3-.953l-.358-2.574A.653.653,0,0,0,37.87,5H34.5a.653.653,0,0,0-.647.564L33.5,8.139a10.007,10.007,0,0,0-2.3.953l-2.073-1.57a.653.653,0,0,0-.856.058l-2.38,2.382a.653.653,0,0,0-.059.856l1.57,2.069a10.02,10.02,0,0,0-.953,2.3l-2.574.355a.653.653,0,0,0-.564.647v3.366a.652.652,0,0,0,.564.647Zm.742-3.444,2.448-.337a.653.653,0,0,0,.548-.5,8.722,8.722,0,0,1,1.13-2.725.653.653,0,0,0-.032-.742L27.22,10.481,28.8,8.906l1.97,1.493a.653.653,0,0,0,.742.032A8.714,8.714,0,0,1,34.233,9.3a.653.653,0,0,0,.5-.548l.337-2.448H37.3l.337,2.448a.653.653,0,0,0,.5.547,8.723,8.723,0,0,1,2.725,1.131.653.653,0,0,0,.742-.032l1.97-1.493,1.575,1.575-1.493,1.97a.654.654,0,0,0-.032.743,8.722,8.722,0,0,1,1.131,2.724.653.653,0,0,0,.548.5l2.448.337v2.228l-2.448.337a.653.653,0,0,0-.548.5,8.719,8.719,0,0,1-1.131,2.724.653.653,0,0,0,.032.743l1.493,1.973-1.575,1.575-1.97-1.493a.652.652,0,0,0-.742-.032,8.727,8.727,0,0,1-2.725,1.13.653.653,0,0,0-.5.547L37.3,29.439H35.073l-.337-2.45a.652.652,0,0,0-.5-.547,8.735,8.735,0,0,1-2.725-1.13.652.652,0,0,0-.742.032L28.8,26.837,27.22,25.265l1.493-1.97a.652.652,0,0,0,.032-.746,8.714,8.714,0,0,1-1.13-2.725.653.653,0,0,0-.548-.5l-2.448-.337Zm8.67,1.189a.653.653,0,1,1,.923-.924l1.418,1.418,2.527-2.523a.653.653,0,1,1,.924.923l-2.987,2.987a.653.653,0,0,1-.923,0ZM51.963,33.57a3.825,3.825,0,0,0-1.678-2.878,2.678,2.678,0,0,0-2.433-.339l-11.531,4.22a5.52,5.52,0,0,0-2.477-1.394L26.1,30.8c-5.764-1.912-9.828-.47-13.918,4.983l-.291-.287a1.834,1.834,0,0,0-1.306-.522,1.814,1.814,0,0,0-1.29.556L6.417,38.506a1.854,1.854,0,0,0,.034,2.6L17.006,51.485a1.814,1.814,0,0,0,1.281.522h.025A1.817,1.817,0,0,0,19.6,51.45l2.878-2.977a1.854,1.854,0,0,0-.034-2.6l-.3-.292,1.561-1.6,8.94.209a.668.668,0,0,0,.267-.052l16-6.691C51.555,36.342,52.029,34.729,51.963,33.57Zm-30.421,14-2.878,2.977a.517.517,0,0,1-.369.157.528.528,0,0,1-.373-.149L7.362,40.179a.551.551,0,0,1-.01-.764l2.878-2.977a.522.522,0,0,1,.369-.157h.007a.519.519,0,0,1,.366.149L21.532,46.8a.551.551,0,0,1,.01.764ZM48.418,36.239,32.54,42.88l-9.085-.214a.656.656,0,0,0-.483.2l-1.755,1.8-8.1-7.957c3.776-5.1,7.325-6.409,12.573-4.665l.014,0,7.75,2.383c2.071.637,2.321,1.507,2.328,2.105a2.111,2.111,0,0,1-2.012,2.126l-4.913-.98a.653.653,0,0,0-.256,1.281l4.985.992a.661.661,0,0,0,.128.013h.008a3.416,3.416,0,0,0,3.366-3.447,3.005,3.005,0,0,0-.114-.794L48.3,31.577a1.406,1.406,0,0,1,1.267.2,2.51,2.51,0,0,1,1.094,1.861C50.682,34.043,50.751,35.263,48.418,36.239Z" transform="translate(778.066 695.496)" fill="#1c54f8" stroke="#fff" stroke-width="0.4"></path></g></svg> 