<?xml version="1.0" encoding="UTF-8"?> <svg xmlns="http://www.w3.org/2000/svg" xmlns:xlink="http://www.w3.org/1999/xlink" width="90" height="90" viewBox="0 0 90 90"><defs><clipPath id="clip-path"><rect id="Rectangle_10" data-name="Rectangle 10" width="90" height="90" transform="translate(239 374)" fill="#fff"></rect></clipPath></defs><g id="Mask_Group_4" data-name="Mask Group 4" transform="translate(-239 -374)" clip-path="url(#clip-path)"><g id="Group_3" data-name="Group 3" transform="translate(244.701 379.63)"><path id="Path_15" data-name="Path 15" d="M384.414,296.01a11.437,11.437,0,1,0,11.437,11.437A11.45,11.45,0,0,0,384.414,296.01Zm0,20.746a9.309,9.309,0,1,1,9.309-9.309A9.319,9.319,0,0,1,384.414,316.756Z" transform="translate(-330.277 -254.27)" fill="#1b54f8"></path><path id="Path_16" data-name="Path 16" d="M333.916,217.366l-4.65-8.049-1.256-.478-5.707,1.893a19.878,19.878,0,0,0-5.945-3.44l-1.21-5.883-1.042-.849h-9.3l-1.042.849-1.211,5.883a19.886,19.886,0,0,0-5.945,3.44L290.9,208.84l-1.256.478L285,217.366l.214,1.327,4.489,4a20.267,20.267,0,0,0,0,6.866l-4.489,4L285,234.882l4.65,8.048,1.256.478,5.707-1.893a19.887,19.887,0,0,0,5.945,3.44l1.211,5.883,1.042.848h9.3l1.042-.849,1.21-5.883a19.878,19.878,0,0,0,5.945-3.44l5.707,1.893,1.256-.478,4.65-8.048-.214-1.327-4.489-4a20.245,20.245,0,0,0,0-6.866l4.489-4Zm-6.57,4.137-.334,1.012a18,18,0,0,1,0,7.217l.334,1.012,4.293,3.823-3.782,6.547L322.4,239.3l-1.042.215a17.8,17.8,0,0,1-6.256,3.619l-.707.8-1.157,5.624h-7.565l-1.157-5.624-.707-.8a17.8,17.8,0,0,1-6.255-3.619l-1.042-.215-5.457,1.81-3.782-6.547,4.293-3.823.334-1.012a18.027,18.027,0,0,1,0-7.217l-.334-1.012-4.293-3.823,3.782-6.547,5.457,1.81,1.042-.215a17.8,17.8,0,0,1,6.255-3.619l.707-.8,1.157-5.624h7.565l1.157,5.624.707.8a17.8,17.8,0,0,1,6.256,3.619l1.042.215,5.457-1.81,3.782,6.547Z" transform="translate(-255.318 -172.947)" fill="#1b54f8"></path><path id="Path_17" data-name="Path 17" d="M103.893,52.826A19.413,19.413,0,1,0,84.48,33.413,19.435,19.435,0,0,0,103.893,52.826Zm0-36.7A17.285,17.285,0,1,1,86.608,33.414a17.3,17.3,0,0,1,17.284-17.286Z" transform="translate(-84.48 -14)" fill="#1b54f8"></path><path id="Path_18" data-name="Path 18" d="M130.727,103.263l-6.989-6.988,6.989-6.989-1.5-1.5-7.741,7.742v1.5l7.741,7.74Z" transform="translate(-116.005 -76.862)" fill="#1b54f8"></path><path id="Path_19" data-name="Path 19" d="M248.84,104.76l7.741-7.74v-1.5l-7.741-7.742-1.5,1.5,6.988,6.989-6.988,6.988Z" transform="translate(-223.232 -76.855)" fill="#1b54f8"></path><path id="Path_20" data-name="Path 20" d="M189.54,94.544l5.676-20.474,2.051.568-5.676,20.474Z" transform="translate(-173.99 -65.179)" fill="#1b54f8"></path><path id="Path_21" data-name="Path 21" d="M389.417,85.874l6.685,2.935,1.405-.555,2.875-6.712-1.956-.838-1.893,4.419a31.9,31.9,0,0,0-25.416-18l-.215,2.117a29.765,29.765,0,0,1,23.585,16.537l-4.214-1.851Z" transform="translate(-328.51 -59.26)" fill="#1b54f8"></path><path id="Path_22" data-name="Path 22" d="M123.4,301.242l-5.907-4.292-1.492.243-4.239,5.945,1.733,1.236,2.561-3.593A31.65,31.65,0,0,0,132.3,322.454l1-1.88A29.53,29.53,0,0,1,118.07,300l4.077,2.963Z" transform="translate(-107.723 -255.071)" fill="#1b54f8"></path></g></g></svg> 