<?xml version="1.0" encoding="UTF-8"?> <svg xmlns="http://www.w3.org/2000/svg" xmlns:xlink="http://www.w3.org/1999/xlink" width="60" height="60" viewBox="0 0 60 60"><defs><clipPath id="clip-path"><rect id="Rectangle_60" data-name="Rectangle 60" width="60" height="60" transform="translate(385 262)" fill="#fff" stroke="#707070" stroke-width="1"></rect></clipPath></defs><g id="Mask_Group_9" data-name="Mask Group 9" transform="translate(-385 -262)" clip-path="url(#clip-path)"><g id="Group_68" data-name="Group 68" transform="translate(20.732 -102.268)"><g id="Group_67" data-name="Group 67" transform="translate(372 372)"><path id="Path_45" data-name="Path 45" d="M22.989,10A12.989,12.989,0,1,0,35.979,22.989,13.028,13.028,0,0,0,22.989,10Zm0,24.123A11.134,11.134,0,1,1,34.123,22.989,11.166,11.166,0,0,1,22.989,34.123Z" transform="translate(-0.722 -0.722)" fill="#1c54f8" stroke="#fff" stroke-width="0.4"></path><path id="Path_46" data-name="Path 46" d="M43.607,18.278H39.989a18.488,18.488,0,0,0-2.412-5.752l2.505-2.505a.9.9,0,0,0,0-1.3L35.814,4.454a.9.9,0,0,0-1.3,0L32.01,6.959a18.488,18.488,0,0,0-5.752-2.412V.928A.877.877,0,0,0,25.329,0H19.206a.877.877,0,0,0-.928.928V4.546a18.488,18.488,0,0,0-5.752,2.412L10.02,4.454a.9.9,0,0,0-1.3,0L4.361,8.721a.9.9,0,0,0,0,1.3l2.505,2.505a18.488,18.488,0,0,0-2.412,5.752H.928A.877.877,0,0,0,0,19.206v6.124a.877.877,0,0,0,.928.928H4.546A18.488,18.488,0,0,0,6.959,32.01L4.454,34.515a.9.9,0,0,0,0,1.3l4.268,4.268a.9.9,0,0,0,1.3,0l2.505-2.505a18.488,18.488,0,0,0,5.752,2.412v3.618a.877.877,0,0,0,.928.928h6.124a.877.877,0,0,0,.928-.928V39.989a18.489,18.489,0,0,0,5.752-2.412l2.505,2.505a.9.9,0,0,0,1.3,0l4.268-4.268a.9.9,0,0,0,0-1.3L37.576,32.01a18.488,18.488,0,0,0,2.412-5.752h3.618a.877.877,0,0,0,.928-.928V19.206A.93.93,0,0,0,43.607,18.278ZM42.679,24.4H39.247a.9.9,0,0,0-.928.742,14.555,14.555,0,0,1-2.691,6.4.982.982,0,0,0,.093,1.206l2.412,2.412-2.969,2.969-2.412-2.412a.972.972,0,0,0-1.206-.093,16.276,16.276,0,0,1-6.4,2.691.9.9,0,0,0-.742.928v3.433H20.134V39.247a.9.9,0,0,0-.742-.928,14.554,14.554,0,0,1-6.4-2.691.982.982,0,0,0-1.206.093L9.371,38.133,6.4,35.164l2.412-2.412a.972.972,0,0,0,.093-1.206,16.276,16.276,0,0,1-2.691-6.4.9.9,0,0,0-.928-.742H1.856V20.134H5.289a.9.9,0,0,0,.928-.742,14.554,14.554,0,0,1,2.691-6.4.982.982,0,0,0-.093-1.206L6.4,9.371,9.371,6.4l2.412,2.412a.972.972,0,0,0,1.206.093,16.276,16.276,0,0,1,6.4-2.691.9.9,0,0,0,.742-.928V1.856H24.4V5.289a.9.9,0,0,0,.742.928,14.554,14.554,0,0,1,6.4,2.691.982.982,0,0,0,1.206-.093L35.164,6.4l2.969,2.969-2.412,2.412a.972.972,0,0,0-.093,1.206,16.276,16.276,0,0,1,2.691,6.4.9.9,0,0,0,.928.742h3.433Z" fill="#1c54f8" stroke="#fff" stroke-width="0.4"></path><path id="Path_47" data-name="Path 47" d="M27.982,19.773a.9.9,0,0,0,.093,1.3l3.155,2.6-3.155,2.6a.9.9,0,0,0-.093,1.3,1.145,1.145,0,0,0,.742.371,1,1,0,0,0,.557-.186l3.99-3.34a1.145,1.145,0,0,0,.371-.742.844.844,0,0,0-.371-.742l-3.99-3.34A.981.981,0,0,0,27.982,19.773Z" transform="translate(-2.003 -1.402)" fill="#1c54f8" stroke="#fff" stroke-width="0.4"></path><path id="Path_48" data-name="Path 48" d="M19.567,19.774a.9.9,0,0,0-1.3-.093l-3.99,3.34a.722.722,0,0,0-.278.649.844.844,0,0,0,.371.742l3.99,3.34a.682.682,0,0,0,.557.186.844.844,0,0,0,.742-.371.9.9,0,0,0-.093-1.3l-3.155-2.6,3.155-2.6A.988.988,0,0,0,19.567,19.774Z" transform="translate(-1.011 -1.404)" fill="#1c54f8" stroke="#fff" stroke-width="0.4"></path><path id="Path_49" data-name="Path 49" d="M26.1,19.59a.939.939,0,0,0-1.3.371L21.09,26.548a.939.939,0,0,0,.371,1.3.836.836,0,0,0,.464.093,1.107,1.107,0,0,0,.835-.464l3.711-6.587A.9.9,0,0,0,26.1,19.59Z" transform="translate(-1.513 -1.405)" fill="#1c54f8" stroke="#fff" stroke-width="0.4"></path></g></g></g></svg> 