<?xml version="1.0" encoding="UTF-8"?> <svg xmlns="http://www.w3.org/2000/svg" width="61" height="61" viewBox="0 0 61 61" fill="none"><mask id="mask0_1_85" style="mask-type:luminance" maskUnits="userSpaceOnUse" x="0" y="0" width="61" height="61"><path d="M60.3 0.199997H0.300003V60.2H60.3V0.199997Z" fill="white"></path></mask><g mask="url(#mask0_1_85)"><path d="M31.6 8.19999C21.7 7.79999 13.6 15.7 13.6 25.4C13.6 30.6 15.9 35.4 19.8 38.7C26.8 44.5 24.4 50.5 24.9 54.2C24.9 55.6 26 56.8 27.5 56.8H27.9C27.9 58.4 29.2 59.8 30.9 59.8C32.6 59.8 33.9 58.5 33.9 56.8H34.3C35.7 56.8 36.9 55.7 36.9 54.2C37.4 50.4 35 44.7 42.1 38.6C54.2 28.5 47.2 8.89999 31.6 8.19999ZM30.9 58C30.3 58 29.7 57.4 29.7 56.8H32.1C32.1 57.5 31.6 58 30.9 58ZM34.2 55.1H27.5C27 55.1 26.7 54.7 26.7 54.3V49.9H35V54.3C35.1 54.8 34.7 55.1 34.2 55.1ZM40.9 37.3C37.2 40.4 35.3 43.9 35.1 48.1H26.8C26.5 44 24.7 40.4 21.1 37.4C17.6 34.4 15.5 30.1 15.5 25.4C15.5 16.5 22.9 9.49999 31.6 9.89999C45.5 10.6 51.8 28.2 40.9 37.3Z" fill="#1B54F8"></path><path d="M54.9 24.5H52.2C51.7 24.5 51.3 24.9 51.3 25.4C51.3 26 51.7 26.3 52.2 26.3H54.8C55.3 26.3 55.7 25.9 55.7 25.4C55.7 24.8 55.4 24.5 54.9 24.5Z" fill="#1B54F8"></path><path d="M50.9 18L53.3 17C53.8 16.8 53.9 16.3 53.8 15.9C53.7 15.5 53.2 15.2 52.7 15.3L50.3 16.3C49.8 16.5 49.7 17 49.8 17.4C50 18 50.6 18.2 50.9 18Z" fill="#1B54F8"></path><path d="M47.2 7.8L45.3 9.7C44.9 10.1 44.9 10.6 45.3 10.9C45.7 11.3 46.2 11.3 46.5 10.9L48.4 9C48.8 8.6 48.8 8.1 48.4 7.8C48 7.5 47.6 7.4 47.2 7.8Z" fill="#1B54F8"></path><path d="M38.8 6.39999C39.3 6.59999 39.7 6.39999 39.9 5.89999L40.9 3.5C41.1 3 40.9 2.59999 40.4 2.39999C39.9 2.19999 39.5 2.39999 39.3 2.89999L38.3 5.3C38 5.7 38.3 6.19999 38.8 6.39999Z" fill="#1B54F8"></path><path d="M30.9 4.8C31.4 4.8 31.8 4.39999 31.8 3.89999V1.39999C31.8 0.899994 31.4 0.5 30.9 0.5C30.3 0.5 30 0.899994 30 1.39999V4C30 4.4 30.4 4.8 30.9 4.8Z" fill="#1B54F8"></path><path d="M21.9 5.89999C22.1 6.39999 22.6 6.49999 23 6.39999C23.5 6.19999 23.6 5.7 23.5 5.3L22.6 2.89999C22.4 2.39999 21.9 2.29999 21.5 2.39999C21 2.59999 20.9 3.1 21 3.5L21.9 5.89999Z" fill="#1B54F8"></path><path d="M15.1 10.8C15.5 11.2 16 11.2 16.3 10.8C16.7 10.4 16.7 9.9 16.3 9.6L14.4 7.69999C14 7.29999 13.5 7.29999 13.2 7.69999C12.8 8.09999 12.8 8.59999 13.2 8.89999L15.1 10.8Z" fill="#1B54F8"></path><path d="M11.5 16.3L9.1 15.3C8.6 15.1 8.2 15.3 8 15.8C7.8 16.3 8 16.7 8.5 16.9L10.9 17.9C11.4 18.1 11.8 17.9 12 17.4C12.2 17 12 16.5 11.5 16.3Z" fill="#1B54F8"></path><path d="M10.4 25.3C10.4 24.8 10 24.4 9.5 24.4H6.89999C6.39999 24.4 6 24.8 6 25.3C6 25.9 6.39999 26.2 6.89999 26.2H9.60001C10 26.2 10.4 25.8 10.4 25.3Z" fill="#1B54F8"></path><path d="M10.9 32.7L8.50001 33.7C8.00001 33.8 7.8 34.3 7.9 34.8C8.1 35.3 8.60001 35.4 9.00001 35.3L11.4 34.3C11.9 34.1 12 33.6 11.9 33.2C11.8 32.7 11.3 32.5 10.9 32.7Z" fill="#1B54F8"></path><path d="M15.1 39.8L13.2 41.7C12.8 42.1 12.8 42.6 13.2 42.9C13.6 43.3 14.1 43.3 14.4 42.9L16.3 41C16.7 40.6 16.7 40.1 16.3 39.8C16.1 39.5 15.5 39.5 15.1 39.8Z" fill="#1B54F8"></path><path d="M46.7 39.8C46.3 39.4 45.8 39.4 45.5 39.8C45.1 40.2 45.1 40.7 45.5 41L47.4 42.9C47.8 43.3 48.3 43.3 48.6 42.9C49 42.5 49 42 48.6 41.7L46.7 39.8Z" fill="#1B54F8"></path><path d="M53.4 33.6L51 32.6C50.5 32.4 50.1 32.6 49.9 33.1C49.7 33.6 49.9 34 50.4 34.2L52.8 35.2C53.3 35.4 53.7 35.2 53.9 34.7C54.1 34.4 53.8 33.8 53.4 33.6Z" fill="#1B54F8"></path><path d="M42.6 23.9L39.8 22.7C39.6 22.2 39.4 21.7 39.2 21.2L40.3 18.3C40.4 17.9 40.4 17.6 40.1 17.4L39 16.3C38.7 16 38.4 16 38.1 16.1L35.2 17.2C34.7 16.9 34.3 16.7 33.7 16.6L32.5 13.8C32.3 13.5 32 13.2 31.7 13.2H30.2C29.8 13.2 29.6 13.4 29.4 13.8L28.2 16.6C27.7 16.8 27.2 17 26.7 17.2L23.7 16.2C23.4 16.1 23 16.1 22.8 16.4L21.7 17.5C21.4 17.8 21.3 18.1 21.5 18.4L22.6 21.3C22.3 21.8 22.1 22.2 22 22.8L19.2 24C18.9 24.2 18.6 24.5 18.6 24.8V26.3C18.6 26.7 18.8 26.9 19.2 27.1L22 28.3C22.2 28.8 22.4 29.3 22.6 29.8L21.5 32.7C21.4 33.1 21.4 33.4 21.7 33.6L22.8 34.7C23.1 35 23.4 35.1 23.7 34.9L26.6 33.8C27.1 34.1 27.5 34.3 28.1 34.4L29.3 37.2C29.5 37.5 29.8 37.8 30.1 37.8H31.6C32 37.8 32.2 37.6 32.4 37.2L33.6 34.4C34.1 34.2 34.6 34 35.1 33.8L38 34.9C38.4 35 38.7 35 38.9 34.7L40 33.6C40.3 33.3 40.4 33 40.2 32.7L39.1 29.8C39.4 29.3 39.6 28.9 39.7 28.3L42.5 27.1C42.8 26.9 43.1 26.6 43.1 26.3V24.8C43 24.4 42.9 24.1 42.6 23.9ZM41.3 25.7L38.6 26.9C38.3 27 38.1 27.3 38.1 27.5C37.9 28.1 37.7 28.7 37.4 29.4C37.3 29.6 37.2 30 37.3 30.1L38.3 32.8L38 33L35.4 32C35.1 31.9 34.8 31.9 34.7 32.1C34.1 32.5 33.5 32.7 32.8 32.8C32.5 32.9 32.3 33.1 32.2 33.3L31 36H30.6L29.4 33.3C29.3 33 29 32.8 28.8 32.8C28.2 32.6 27.6 32.4 26.9 32.1C26.7 32 26.3 31.9 26.2 32L23.5 33L23.2 32.7L24.2 30C24.3 29.7 24.3 29.4 24.1 29.3C23.7 28.7 23.5 28.1 23.4 27.4C23.3 27.1 23.1 26.9 22.9 26.8L20.2 25.6V25.2L22.9 24C23.2 23.9 23.4 23.6 23.4 23.4C23.6 22.8 23.8 22.2 24.1 21.5C24.2 21.3 24.3 20.9 24.2 20.8L23.2 18.1L23.5 17.8L26.2 18.8C26.5 18.9 26.8 18.9 26.9 18.7C27.5 18.3 28.1 18.1 28.8 18C29.1 17.9 29.3 17.7 29.4 17.5L30.6 14.8H31L32.2 17.5C32.3 17.8 32.6 18 32.8 18C33.4 18.2 34 18.4 34.7 18.7C34.9 18.8 35.3 18.9 35.4 18.8L38.1 17.8L38.4 18.1L37.4 20.8C37.3 21.1 37.3 21.4 37.5 21.5C37.9 22.1 38.1 22.7 38.2 23.4C38.3 23.7 38.5 23.9 38.7 24L41.4 25.2L41.3 25.7Z" fill="#1B54F8"></path><path d="M30.9 21.3C28.6 21.3 26.7 23.2 26.7 25.5C26.7 27.8 28.6 29.7 30.9 29.7C33.2 29.7 35.1 27.8 35.1 25.5C35.1 23.2 33.2 21.3 30.9 21.3ZM30.9 28C29.5 28 28.5 26.9 28.5 25.6C28.5 24.2 29.6 23.2 30.9 23.2C32.3 23.2 33.3 24.3 33.3 25.6C33.3 26.9 32.3 28 30.9 28Z" fill="#1B54F8"></path></g></svg> 