<?xml version="1.0" encoding="UTF-8"?> <svg xmlns="http://www.w3.org/2000/svg" width="90" height="90" viewBox="0 0 90 90" fill="none"><g clip-path="url(#clip0_5_184)"><mask id="mask0_5_184" style="mask-type:luminance" maskUnits="userSpaceOnUse" x="0" y="0" width="90" height="90"><path d="M90 0H0V90H90V0Z" fill="white"></path></mask><g mask="url(#mask0_5_184)"><path fill-rule="evenodd" clip-rule="evenodd" d="M45.3675 9C44.1935 9 43.021 9.057 41.85 9.171C41.298 9.22373 40.7775 9.4523 40.3651 9.82306C39.9528 10.1938 39.6704 10.6872 39.5595 11.2305L38.832 14.7585C37.7802 14.9808 36.7407 15.2582 35.718 15.5895L33.3315 12.9C32.9626 12.4852 32.4706 12.1994 31.9275 12.0844C31.3845 11.9694 30.8188 12.0313 30.3135 12.261C28.1736 13.2337 26.1327 14.4106 24.219 15.7755C23.7671 16.0979 23.4305 16.5567 23.2588 17.0846C23.0871 17.6124 23.0892 18.1815 23.265 18.708L24.4035 22.1235C23.6049 22.8429 22.8443 23.6034 22.125 24.402L18.7095 23.2635C18.1829 23.0878 17.6139 23.0856 17.086 23.2573C16.5582 23.429 16.0993 23.7656 15.777 24.2175C14.4121 26.1312 13.2352 28.1721 12.2625 30.312C12.0323 30.8174 11.97 31.3832 12.0847 31.9266C12.1994 32.47 12.4851 32.9623 12.9 33.3315L15.588 35.7165C15.2559 36.7395 14.9766 37.7789 14.751 38.8305L11.229 39.558C10.6857 39.6693 10.1925 39.952 9.82204 40.3646C9.45154 40.7773 9.22333 41.2979 9.17099 41.85C8.94235 44.1894 8.94235 46.5456 9.17099 48.885C9.22372 49.437 9.45229 49.9575 9.82305 50.3698C10.1938 50.7822 10.6872 51.0646 11.2305 51.1755L14.7585 51.903C14.9808 52.9548 15.2582 53.9943 15.5895 55.017L12.9 57.402C12.4852 57.7709 12.1994 58.2629 12.0844 58.806C11.9694 59.349 12.0313 59.9146 12.261 60.42C13.2337 62.5598 14.4106 64.6008 15.7755 66.5145C16.0978 66.9664 16.5567 67.303 17.0845 67.4747C17.6124 67.6464 18.1814 67.6442 18.708 67.4685L22.1235 66.33C22.8428 67.1286 23.6034 67.8891 24.402 68.6085L23.2635 72.024C23.0877 72.5505 23.0856 73.1196 23.2573 73.6474C23.429 74.1753 23.7656 74.6341 24.2175 74.9565C26.1312 76.3214 28.1721 77.4983 30.312 78.471C30.8173 78.7007 31.383 78.7626 31.926 78.6476C32.4691 78.5326 32.9611 78.2468 33.33 77.832L35.715 75.144C36.738 75.4761 37.7774 75.7554 38.829 75.981L39.558 79.5C39.6684 80.0441 39.9508 80.5383 40.3635 80.9097C40.7762 81.281 41.2973 81.5099 41.85 81.5625C44.1894 81.7911 46.5456 81.7911 48.885 81.5625C49.5708 81.4957 50.202 81.1591 50.6398 80.6269C51.0775 80.0947 51.2858 79.4104 51.219 78.7245C51.1522 78.0387 50.8156 77.4074 50.2834 76.9697C49.7511 76.532 49.0668 76.3237 48.381 76.3905C47.0068 76.5239 45.6253 76.5665 44.2455 76.518L43.572 73.218C43.4643 72.6978 43.2004 72.2228 42.8155 71.8566C42.4305 71.4904 41.943 71.2505 41.418 71.169C39.5245 70.8799 37.6687 70.3824 35.8845 69.6855C35.3897 69.4946 34.8484 69.4592 34.333 69.5841C33.8176 69.709 33.3525 69.9883 33 70.3845L30.7605 72.9C30.1005 72.549 29.4545 72.175 28.8225 71.778L29.883 68.58C30.0526 68.0765 30.0633 67.5329 29.9135 67.0231C29.7638 66.5133 29.4609 66.0619 29.046 65.73C27.5523 64.5318 26.1942 63.1737 24.996 61.68C24.6641 61.265 24.2127 60.9622 23.7029 60.8124C23.1931 60.6627 22.6495 60.6734 22.146 60.843L18.948 61.9035C18.548 61.2725 18.174 60.6265 17.826 59.9655L20.349 57.729C20.7456 57.3758 21.0248 56.9098 21.1492 56.3935C21.2736 55.8771 21.2373 55.3351 21.045 54.84C20.3481 53.0558 19.8505 51.2 19.5615 49.3065C19.4799 48.7815 19.24 48.294 18.8739 47.909C18.5077 47.5241 18.0327 47.2602 17.5125 47.1525L14.2125 46.479C14.184 45.729 14.184 44.979 14.2125 44.229L17.5125 43.5555C18.0327 43.4478 18.5077 43.1839 18.8739 42.799C19.24 42.414 19.4799 41.9265 19.5615 41.4015C19.8505 39.508 20.3481 37.6522 21.045 35.868C21.2326 35.3756 21.2665 34.838 21.1422 34.326C21.0179 33.8139 20.7414 33.3516 20.349 33L17.8275 30.7605C18.1785 30.1005 18.5525 29.4545 18.9495 28.8225L22.1475 29.883C22.651 30.0526 23.1946 30.0633 23.7044 29.9136C24.2142 29.7638 24.6656 29.461 24.9975 29.046C26.1957 27.5523 27.5538 26.1942 29.0475 24.996C29.4624 24.6641 29.7653 24.2127 29.915 23.7029C30.0648 23.1931 30.0541 22.6495 29.8845 22.146L28.824 18.948C29.455 18.548 30.101 18.174 30.762 17.826L33 20.349C33.3532 20.7456 33.8192 21.0249 34.3355 21.1492C34.8519 21.2736 35.3939 21.2373 35.889 21.045C37.6732 20.3481 39.529 19.8506 41.4225 19.5615C41.9475 19.48 42.435 19.2401 42.82 18.8739C43.2049 18.5077 43.4688 18.0327 43.5765 17.5125L44.25 14.2125C45.6298 14.164 47.0113 14.2066 48.3855 14.34C48.7251 14.3731 49.0679 14.339 49.3943 14.2396C49.7207 14.1402 50.0243 13.9775 50.2879 13.7608C50.5514 13.544 50.7697 13.2775 50.9302 12.9764C51.0907 12.6754 51.1904 12.3456 51.2235 12.006C51.2566 11.6664 51.2225 11.3236 51.1231 10.9972C51.0237 10.6708 50.861 10.3671 50.6443 10.1036C50.4275 9.84008 50.161 9.62182 49.8599 9.46128C49.5588 9.30075 49.2291 9.20109 48.8895 9.168C47.7145 9.056 46.5405 9 45.3675 9ZM73.941 14.196C72.3291 14.1965 70.757 14.6964 69.4409 15.6268C68.1247 16.5573 67.1291 17.8726 66.591 19.392H64.413C61.6003 19.3908 58.8632 20.3025 56.613 21.99L51.768 25.626C50.6523 26.4569 49.3349 26.9748 47.952 27.126C47.9398 26.4462 47.6615 25.7984 47.1768 25.3216C46.6922 24.8448 46.0399 24.5771 45.36 24.576C39.8485 24.576 34.5628 26.7654 30.6656 30.6626C26.7684 34.5598 24.579 39.8455 24.579 45.357C24.579 50.8685 26.7684 56.1542 30.6656 60.0514C34.5628 63.9486 39.8485 66.138 45.36 66.138C46.0399 66.1369 46.6922 65.8692 47.1768 65.3924C47.6615 64.9156 47.9398 64.2678 47.952 63.588C49.3349 63.7392 50.6523 64.2571 51.768 65.088L56.613 68.724C58.8632 70.4115 61.6003 71.3232 64.413 71.322H66.6C67.2129 73.0571 68.4195 74.5196 70.0066 75.451C71.5936 76.3825 73.4589 76.7228 75.2726 76.4118C77.0863 76.1009 78.7317 75.1588 79.9178 73.7519C81.104 72.3451 81.7546 70.5642 81.7546 68.724C81.7546 66.8838 81.104 65.1029 79.9178 63.6961C78.7317 62.2892 77.0863 61.3471 75.2726 61.0362C73.4589 60.7252 71.5936 61.0655 70.0066 61.997C68.4195 62.9284 67.2129 64.3909 66.6 66.126H64.413C62.728 66.1248 61.0888 65.578 59.7405 64.5675L54.9 60.9525C52.8868 59.4448 50.4796 58.5533 47.97 58.386V47.964H66.6C67.2129 49.6991 68.4195 51.1616 70.0066 52.093C71.5936 53.0245 73.4589 53.3648 75.2726 53.0538C77.0863 52.7429 78.7317 51.8008 79.9178 50.3939C81.104 48.9871 81.7546 47.2062 81.7546 45.366C81.7546 43.5258 81.104 41.7449 79.9178 40.3381C78.7317 38.9312 77.0863 37.9891 75.2726 37.6782C73.4589 37.3672 71.5936 37.7075 70.0066 38.639C68.4195 39.5704 67.2129 41.0329 66.6 42.768H47.964V32.3475C50.4736 32.1802 52.8808 31.2887 54.894 29.781L59.739 26.145C61.0873 25.1345 62.7265 24.5877 64.4115 24.5865H66.6C67.0762 25.9332 67.9135 27.1231 69.0203 28.0262C70.127 28.9293 71.4608 29.5107 72.8756 29.707C74.2905 29.9034 75.7322 29.707 77.043 29.1394C78.3539 28.5718 79.4835 27.6548 80.3084 26.4886C81.1333 25.3225 81.6218 23.952 81.7205 22.5269C81.8192 21.1019 81.5243 19.6772 80.8681 18.4084C80.2118 17.1396 79.2194 16.0756 77.9993 15.3328C76.7792 14.5899 75.3784 14.1966 73.95 14.196H73.941ZM73.941 19.392C74.4548 19.392 74.9571 19.5444 75.3844 19.8298C75.8116 20.1153 76.1446 20.5211 76.3412 20.9958C76.5379 21.4705 76.5893 21.9929 76.4891 22.4968C76.3888 23.0008 76.1414 23.4637 75.7781 23.8271C75.4147 24.1904 74.9518 24.4378 74.4478 24.5381C73.9439 24.6383 73.4215 24.5869 72.9468 24.3902C72.4721 24.1936 72.0663 23.8606 71.7808 23.4334C71.4954 23.0061 71.343 22.5038 71.343 21.99C71.3428 21.6487 71.4098 21.3107 71.5403 20.9953C71.6708 20.68 71.8621 20.3934 72.1034 20.152C72.3447 19.9106 72.6311 19.7191 72.9464 19.5884C73.2617 19.4577 73.5997 19.3905 73.941 19.3905V19.392ZM42.7695 30V60.75C39.1355 60.1366 35.8362 58.2558 33.4569 55.4413C31.0777 52.6267 29.7723 49.0604 29.7723 45.375C29.7723 41.6896 31.0777 38.1233 33.4569 35.3087C35.8362 32.4942 39.1355 30.6134 42.7695 30ZM73.941 42.7755C74.4548 42.7755 74.9571 42.9279 75.3844 43.2133C75.8116 43.4988 76.1446 43.9046 76.3412 44.3793C76.5379 44.854 76.5893 45.3764 76.4891 45.8803C76.3888 46.3843 76.1414 46.8472 75.7781 47.2106C75.4147 47.5739 74.9518 47.8213 74.4478 47.9216C73.9439 48.0218 73.4215 47.9704 72.9468 47.7737C72.4721 47.5771 72.0663 47.2441 71.7808 46.8169C71.4954 46.3896 71.343 45.8873 71.343 45.3735C71.3422 45.0318 71.4088 44.6933 71.539 44.3774C71.6692 44.0616 71.8605 43.7744 72.1018 43.5326C72.3431 43.2907 72.6298 43.0988 72.9454 42.9678C73.261 42.8369 73.5993 42.7695 73.941 42.7695V42.7755ZM73.941 66.1545C74.4548 66.1545 74.9571 66.3069 75.3844 66.5923C75.8116 66.8778 76.1446 67.2836 76.3412 67.7583C76.5379 68.233 76.5893 68.7554 76.4891 69.2593C76.3888 69.7633 76.1414 70.2262 75.7781 70.5896C75.4147 70.9529 74.9518 71.2003 74.4478 71.3006C73.9439 71.4008 73.4215 71.3494 72.9468 71.1527C72.4721 70.9561 72.0663 70.6231 71.7808 70.1959C71.4954 69.7686 71.343 69.2663 71.343 68.7525C71.3424 68.4109 71.4092 68.0726 71.5395 67.7569C71.6698 67.4412 71.861 67.1543 72.1023 66.9125C72.3436 66.6708 72.6302 66.479 72.9457 66.3482C73.2612 66.2174 73.5994 66.15 73.941 66.15V66.1545Z" fill="#1C54F8" stroke="white" stroke-width="3"></path></g></g><defs><clipPath id="clip0_5_184"><rect width="90" height="90" fill="white"></rect></clipPath></defs></svg> 