<?xml version="1.0" encoding="UTF-8"?> <svg xmlns="http://www.w3.org/2000/svg" xmlns:xlink="http://www.w3.org/1999/xlink" id="eLJoRuv8wdB1" viewBox="0 0 62.43 55.74" shape-rendering="geometricPrecision" text-rendering="geometricPrecision"><style><![CDATA[#eLJoRuv8wdB1{pointer-events: all}#eLJoRuv8wdB1:hover #eLJoRuv8wdB3_to {animation: eLJoRuv8wdB3_to__to 1000ms linear 1 normal forwards}@keyframes eLJoRuv8wdB3_to__to { 0% {offset-distance: 0%;animation-timing-function: cubic-bezier(0.95,-0.03,0.38,0.43)} 100% {offset-distance: 100%}} #eLJoRuv8wdB1:hover #eLJoRuv8wdB4_to {animation: eLJoRuv8wdB4_to__to 1000ms linear 1 normal forwards}@keyframes eLJoRuv8wdB4_to__to { 0% {offset-distance: 0%;animation-timing-function: cubic-bezier(0.95,-0.03,0.38,0.43)} 100% {offset-distance: 100%}} #eLJoRuv8wdB1:hover #eLJoRuv8wdB5_to {animation: eLJoRuv8wdB5_to__to 1000ms linear 1 normal forwards}@keyframes eLJoRuv8wdB5_to__to { 0% {offset-distance: 0%;animation-timing-function: cubic-bezier(0.95,-0.03,0.38,0.43)} 100% {offset-distance: 100%}}]]></style><rect id="eLJoRuv8wdB2" width="70" height="70" rx="0" ry="0" transform="matrix(1 0 0 1 -3.785 -7.13)" fill="rgb(255,255,255)" stroke="none" stroke-width="0"></rect><g id="eLJoRuv8wdB3_to" style="offset-path:path('M49.14,14.250001C41.330203,14.441064,33.287347,21.940799,31.215001,27.870001');offset-rotate:0deg"><path id="eLJoRuv8wdB3" d="M65.54,30.44C65.832479,30.321104,66.022741,30.03571,66.02,29.72L66.02,13.05C66.021352,12.732283,65.832237,12.444672,65.54,12.32L53,7.19C52.90502,7.150135,52.803007,7.129732,52.7,7.13L52.62,7.13C52.544151,7.139255,52.470046,7.159466,52.4,7.19L39.92,12.32C39.627763,12.444672,39.438648,12.732283,39.44,13.05L39.44,29.72C39.438879,30.03819,39.633591,30.324296,39.93,30.44L52.43,35.57C52.622,35.65,52.838,35.65,53.03,35.57ZM64.46,29.19L53.51,33.68L53.51,18.68L64.46,14.19ZM52,33.68L41,29.19L41,14.19L52,18.71ZM52.78,17.33L42.3,13.05L52.73,8.76L63.17,13.05Z" transform="translate(-52.73,-21.38)" fill="rgb(27,84,248)" stroke="none" stroke-width="1"></path></g><g id="eLJoRuv8wdB4_to" style="offset-path:path('M31.195016,27.532332C19.126354,22.287813,9.581567,28.623291,13.26504,41.532331');offset-rotate:0deg"><path id="eLJoRuv8wdB4" d="M47.57,43.73C47.862479,43.611104,48.052741,43.32571,48.05,43.01L48.05,26.34C48.054073,26.021481,47.864052,25.732491,47.57,25.61L35.06,20.48C34.937973,20.424578,34.803043,20.40382,34.67,20.42C34.597663,20.430663,34.527052,20.450837,34.46,20.48L22,25.61C21.707521,25.728896,21.517259,26.01429,21.52,26.33L21.52,43C21.518879,43.31819,21.713591,43.604296,22.01,43.72L34.51,48.85C34.702,48.93,34.918,48.93,35.11,48.85ZM46.48,42.47L35.54,47L35.54,32L46.48,27.52ZM34,47L23,42.47L23,27.47L34,32ZM24.32,26.34L34.76,22.05L45.2,26.34L34.76,30.62Z" transform="translate(-34.785016,-34.662331)" fill="rgb(27,84,248)" stroke="none" stroke-width="1"></path></g><g id="eLJoRuv8wdB5_to" style="offset-path:path('M13.29004,41.47C34.075274,48.15773,53.561944,36.43628,49.139959,14.230001');offset-rotate:0deg"><path id="eLJoRuv8wdB5" d="M29.69,57.68C29.982479,57.561104,30.172741,57.27571,30.17,56.96L30.17,40.29C30.174073,39.971481,29.984052,39.682491,29.69,39.56L17.18,34.43C17.08502,34.390135,16.983007,34.369732,16.88,34.37L16.79,34.37L16.58,34.43L4.07,39.56C3.777521,39.678896,3.587259,39.96429,3.59,40.28L3.59,57C3.587259,57.31571,3.777521,57.601104,4.07,57.72L16.58,62.85C16.772,62.93,16.988,62.93,17.18,62.85ZM28.6,56.42L17.66,60.92L17.66,45.92L28.6,41.46ZM16.1,60.92L5.16,56.42L5.16,41.42L16.1,45.94ZM6.44,40.29L16.88,36L27.32,40.29L16.88,44.56Z" transform="translate(-16.880014,-48.64)" fill="rgb(27,84,248)" stroke="none" stroke-width="1"></path></g></svg> 