<?xml version="1.0" encoding="UTF-8"?> <svg xmlns="http://www.w3.org/2000/svg" xmlns:xlink="http://www.w3.org/1999/xlink" width="90" height="90" viewBox="0 0 90 90"><defs><clipPath id="clip-path"><rect id="Rectangle_11" data-name="Rectangle 11" width="90" height="90" transform="translate(1051 354)" fill="#fff" stroke="#707070" stroke-width="1"></rect></clipPath></defs><g id="Mask_Group_22" data-name="Mask Group 22" transform="translate(-1051 -354)" clip-path="url(#clip-path)"><g id="Group_47" data-name="Group 47" transform="translate(-18.751 232.466)"><g id="Group_46" data-name="Group 46" transform="translate(1080.751 131.534)"><g id="Group_23" data-name="Group 23" transform="translate(9.099 10.43)"><path id="Path_97" data-name="Path 97" d="M98.994,120.407H91.8a.8.8,0,0,1-.794-.794v-3.235a20.715,20.715,0,0,1-7-2.9l-2.289,2.289a.8.8,0,0,1-1.123,0l-5.086-5.086a.8.8,0,0,1,0-1.125l2.289-2.289a20.678,20.678,0,0,1-2.9-7H71.664a.8.8,0,0,1-.794-.794V92.282a.8.8,0,0,1,.794-.794H74.9a20.715,20.715,0,0,1,2.9-7L75.511,82.2a.8.8,0,0,1,0-1.123L80.6,75.991a.8.8,0,0,1,1.123,0l2.289,2.289a20.678,20.678,0,0,1,7-2.9V72.144a.8.8,0,0,1,.794-.794h7.192a.8.8,0,0,1,.794.794v3.235a20.715,20.715,0,0,1,7,2.9l2.289-2.289a.8.8,0,0,1,1.123,0l5.086,5.086a.8.8,0,0,1,0,1.125L113,84.491a20.678,20.678,0,0,1,2.9,7h3.235a.8.8,0,0,1,.794.794v7.192a.8.8,0,0,1-.794.794H115.9a20.716,20.716,0,0,1-2.9,7l2.289,2.289a.8.8,0,0,1,0,1.125l-5.086,5.086a.8.8,0,0,1-1.123,0l-2.289-2.289a20.678,20.678,0,0,1-7,2.9v3.235A.793.793,0,0,1,98.994,120.407Zm-6.4-1.589h5.6v-3.093a.794.794,0,0,1,.653-.782,19.166,19.166,0,0,0,7.58-3.143.8.8,0,0,1,1.015.091l2.189,2.189,3.962-3.962-2.189-2.189a.8.8,0,0,1-.091-1.015,19.147,19.147,0,0,0,3.143-7.58.794.794,0,0,1,.782-.653h3.093v-5.6h-3.093a.794.794,0,0,1-.782-.653,19.147,19.147,0,0,0-3.143-7.58.8.8,0,0,1,.091-1.015L113.6,81.64l-3.962-3.962-2.189,2.189a.8.8,0,0,1-1.015.091,19.147,19.147,0,0,0-7.58-3.143.794.794,0,0,1-.653-.782V72.939H92.6v3.093a.794.794,0,0,1-.653.782,19.156,19.156,0,0,0-7.58,3.143.8.8,0,0,1-1.015-.091L81.16,77.676,77.2,81.639l2.189,2.189a.8.8,0,0,1,.091,1.015,19.147,19.147,0,0,0-3.143,7.58.794.794,0,0,1-.782.653H72.459v5.6h3.093a.794.794,0,0,1,.782.653,19.143,19.143,0,0,0,3.143,7.58.8.8,0,0,1-.091,1.015L77.2,110.117l3.962,3.962,2.189-2.189a.8.8,0,0,1,1.015-.091,19.147,19.147,0,0,0,7.58,3.143.794.794,0,0,1,.653.782v3.095Z" transform="translate(-70.87 -71.35)" fill="#1c54f8" stroke="#1c54f8" stroke-width="0.4"></path></g><g id="Group_24" data-name="Group 24" transform="translate(18.507 19.839)"><path id="Path_98" data-name="Path 98" d="M145.21,160.81a15.12,15.12,0,1,1,15.12-15.12A15.138,15.138,0,0,1,145.21,160.81Zm0-28.651a13.531,13.531,0,1,0,13.531,13.531A13.547,13.547,0,0,0,145.21,132.159Z" transform="translate(-130.09 -130.57)" fill="#1c54f8" stroke="#1c54f8" stroke-width="0.4"></path></g><g id="Group_25" data-name="Group 25" transform="translate(22.716 28.503)"><path id="Path_99" data-name="Path 99" d="M168.388,198.016a.785.785,0,0,1-.388-.1.793.793,0,0,1-.407-.693v-2.353H157.374a.8.8,0,0,1-.794-.794v-5.032a.8.8,0,0,1,.794-.794h10.219V185.9a.8.8,0,0,1,1.211-.677l9.219,5.662a.795.795,0,0,1,0,1.354L168.8,197.9A.8.8,0,0,1,168.388,198.016Zm-10.217-4.734h10.219a.8.8,0,0,1,.794.794V195.8l6.908-4.244-6.908-4.244v1.727a.8.8,0,0,1-.794.794H158.17Z" transform="translate(-156.58 -185.103)" fill="#1c54f8" stroke="#1c54f8" stroke-width="0.4"></path></g><g id="Group_26" data-name="Group 26" transform="translate(19.113 3.198)"><path id="Path_100" data-name="Path 100" d="M148.415,34.651a.8.8,0,0,1-.794-.794V28.837a1.421,1.421,0,0,0-1.419-1.419H134.694a.794.794,0,0,1,0-1.589H146.2a3.011,3.011,0,0,1,3.008,3.007v5.019A.8.8,0,0,1,148.415,34.651Z" transform="translate(-133.9 -25.83)" fill="#1c54f8" stroke="#1c54f8" stroke-width="0.4"></path></g><g id="Group_27" data-name="Group 27" transform="translate(12.716)"><path id="Path_101" data-name="Path 101" d="M97.633,13.685a3.993,3.993,0,1,1,3.993-3.993A4,4,0,0,1,97.633,13.685Zm0-6.4a2.4,2.4,0,1,0,2.4,2.4A2.407,2.407,0,0,0,97.633,7.289Z" transform="translate(-93.64 -5.7)" fill="#1c54f8" stroke="#1c54f8" stroke-width="0.4"></path></g><g id="Group_28" data-name="Group 28" transform="translate(32.833 3.198)"><path id="Path_102" data-name="Path 102" d="M221.054,29.632a.8.8,0,0,1-.794-.794,3.01,3.01,0,0,1,3.007-3.007h11.507a.794.794,0,0,1,0,1.589H223.267a1.421,1.421,0,0,0-1.419,1.419A.8.8,0,0,1,221.054,29.632Z" transform="translate(-220.26 -25.83)" fill="#1c54f8" stroke="#1c54f8" stroke-width="0.4"></path></g><g id="Group_29" data-name="Group 29" transform="translate(46.553)"><path id="Path_103" data-name="Path 103" d="M310.613,13.685a3.993,3.993,0,1,1,3.992-3.993A4,4,0,0,1,310.613,13.685Zm0-6.4a2.4,2.4,0,1,0,2.4,2.4A2.407,2.407,0,0,0,310.613,7.289Z" transform="translate(-306.62 -5.7)" fill="#1c54f8" stroke="#1c54f8" stroke-width="0.4"></path></g><g id="Group_32" data-name="Group 32" transform="translate(0 6.357)"><g id="Group_30" data-name="Group 30" transform="translate(3.198 6.396)"><path id="Path_104" data-name="Path 104" d="M44.834,94.73h-8.1a3.011,3.011,0,0,1-3.007-3.007V86.764a.794.794,0,0,1,1.589,0v4.96a1.42,1.42,0,0,0,1.419,1.419h8.1a.794.794,0,1,1,0,1.587Z" transform="translate(-33.73 -85.97)" fill="#1c54f8" stroke="#1c54f8" stroke-width="0.4"></path></g><g id="Group_31" data-name="Group 31"><path id="Path_105" data-name="Path 105" d="M17.593,53.7A3.993,3.993,0,1,1,21.585,49.7,4,4,0,0,1,17.593,53.7Zm0-6.4A2.4,2.4,0,1,0,20,49.7,2.407,2.407,0,0,0,17.593,47.3Z" transform="translate(-13.6 -45.71)" fill="#1c54f8" stroke="#1c54f8" stroke-width="0.4"></path></g></g><g id="Group_35" data-name="Group 35" transform="translate(52.158 6.357)"><g id="Group_33" data-name="Group 33" transform="translate(0 6.396)"><path id="Path_106" data-name="Path 106" d="M350.791,94.73h-8.1a.794.794,0,1,1,0-1.589h8.1a1.421,1.421,0,0,0,1.419-1.419V86.764a.794.794,0,0,1,1.589,0v4.96A3.01,3.01,0,0,1,350.791,94.73Z" transform="translate(-341.9 -85.97)" fill="#1c54f8" stroke="#1c54f8" stroke-width="0.4"></path></g><g id="Group_34" data-name="Group 34" transform="translate(7.111)"><path id="Path_107" data-name="Path 107" d="M390.653,53.7a3.993,3.993,0,1,1,3.993-3.993A4,4,0,0,1,390.653,53.7Zm0-6.4a2.4,2.4,0,1,0,2.4,2.4A2.407,2.407,0,0,0,390.653,47.3Z" transform="translate(-386.66 -45.71)" fill="#1c54f8" stroke="#1c54f8" stroke-width="0.4"></path></g></g><g id="Group_38" data-name="Group 38" transform="translate(0 48.404)"><g id="Group_36" data-name="Group 36" transform="translate(3.198)"><path id="Path_108" data-name="Path 108" d="M34.524,319.13a.8.8,0,0,1-.794-.794v-4.958a3.011,3.011,0,0,1,3.007-3.008h8.1a.794.794,0,0,1,0,1.589h-8.1a1.421,1.421,0,0,0-1.419,1.419v4.96A.794.794,0,0,1,34.524,319.13Z" transform="translate(-33.73 -310.37)" fill="#1c54f8" stroke="#1c54f8" stroke-width="0.4"></path></g><g id="Group_37" data-name="Group 37" transform="translate(0 7.172)"><path id="Path_109" data-name="Path 109" d="M17.593,363.5a3.993,3.993,0,1,1,3.993-3.993A4,4,0,0,1,17.593,363.5Zm0-6.4a2.4,2.4,0,1,0,2.4,2.4A2.407,2.407,0,0,0,17.593,357.1Z" transform="translate(-13.6 -355.51)" fill="#1c54f8" stroke="#1c54f8" stroke-width="0.4"></path></g></g><g id="Group_41" data-name="Group 41" transform="translate(52.158 48.404)"><g id="Group_39" data-name="Group 39"><path id="Path_110" data-name="Path 110" d="M353,319.13a.8.8,0,0,1-.794-.794v-4.958a1.421,1.421,0,0,0-1.419-1.419h-8.1a.794.794,0,0,1,0-1.589h8.1a3.011,3.011,0,0,1,3.008,3.008v4.96A.794.794,0,0,1,353,319.13Z" transform="translate(-341.9 -310.37)" fill="#1c54f8" stroke="#1c54f8" stroke-width="0.4"></path></g><g id="Group_40" data-name="Group 40" transform="translate(7.111 7.172)"><path id="Path_111" data-name="Path 111" d="M390.653,363.5a3.993,3.993,0,1,1,3.993-3.993A4,4,0,0,1,390.653,363.5Zm0-6.4a2.4,2.4,0,1,0,2.4,2.4A2.407,2.407,0,0,0,390.653,357.1Z" transform="translate(-386.66 -355.51)" fill="#1c54f8" stroke="#1c54f8" stroke-width="0.4"></path></g></g><g id="Group_42" data-name="Group 42" transform="translate(19.113 57.899)"><path id="Path_112" data-name="Path 112" d="M146.2,378.951H134.694a.794.794,0,0,1,0-1.589H146.2a1.421,1.421,0,0,0,1.419-1.419v-5.019a.794.794,0,0,1,1.589,0v5.019A3.011,3.011,0,0,1,146.2,378.951Z" transform="translate(-133.9 -370.13)" fill="#1c54f8" stroke="#1c54f8" stroke-width="0.4"></path></g><g id="Group_43" data-name="Group 43" transform="translate(12.716 61.932)"><path id="Path_113" data-name="Path 113" d="M97.633,403.505a3.993,3.993,0,1,1,3.993-3.993A4,4,0,0,1,97.633,403.505Zm0-6.4a2.4,2.4,0,1,0,2.4,2.4A2.407,2.407,0,0,0,97.633,397.109Z" transform="translate(-93.64 -395.52)" fill="#1c54f8" stroke="#1c54f8" stroke-width="0.4"></path></g><g id="Group_44" data-name="Group 44" transform="translate(32.833 62.917)"><path id="Path_114" data-name="Path 114" d="M234.775,405.522H223.267a3.011,3.011,0,0,1-3.007-3.008.794.794,0,0,1,1.589,0,1.42,1.42,0,0,0,1.419,1.419h11.507a.794.794,0,1,1,0,1.589Z" transform="translate(-220.26 -401.72)" fill="#1c54f8" stroke="#1c54f8" stroke-width="0.4"></path></g><g id="Group_45" data-name="Group 45" transform="translate(46.553 61.932)"><path id="Path_115" data-name="Path 115" d="M310.613,403.505a3.993,3.993,0,1,1,3.992-3.993A4,4,0,0,1,310.613,403.505Zm0-6.4a2.4,2.4,0,1,0,2.4,2.4A2.407,2.407,0,0,0,310.613,397.109Z" transform="translate(-306.62 -395.52)" fill="#1c54f8" stroke="#1c54f8" stroke-width="0.4"></path></g></g></g></g></svg> 