<?xml version="1.0" encoding="UTF-8"?> <svg xmlns="http://www.w3.org/2000/svg" xmlns:xlink="http://www.w3.org/1999/xlink" width="60" height="60" viewBox="0 0 60 60"><defs><clipPath id="clip-path"><rect id="Rectangle_12" data-name="Rectangle 12" width="60" height="60" transform="translate(56 173)" fill="#fff" stroke="#707070" stroke-width="1"></rect></clipPath></defs><g id="Mask_Group_7" data-name="Mask Group 7" transform="translate(-56 -173)" clip-path="url(#clip-path)"><path id="Path_23" data-name="Path 23" d="M49.359,13.67H27.5a2.18,2.18,0,0,0-2.18,2.18V33.941a.774.774,0,0,0,.775.775H50.764a.774.774,0,0,0,.775-.775V15.855a2.18,2.18,0,0,0-2.18-2.18Zm-3.368,6.21h4V33.172H26.871V19.88h4a.775.775,0,1,0,0-1.55h-4V15.855a.633.633,0,0,1,.63-.63H49.364a.633.633,0,0,1,.63.63V18.33h-4a.775.775,0,0,0,0,1.55ZM43.2,17.426a.775.775,0,1,0-1.545-.119l-.522,6.685h-5.4L35.2,17.307a.775.775,0,0,0-1.545.119l.511,6.566H30.332a.774.774,0,0,0-.775.775v5.574a.774.774,0,0,0,.775.775h1.746a.771.771,0,0,0,1.529,0h9.635a.771.771,0,0,0,1.529,0h1.746a.774.774,0,0,0,.775-.775V24.767a.774.774,0,0,0-.775-.775H42.679l.511-6.566Zm2.552,12.14H31.112V25.541H45.748Zm-3.9-2.165a.738.738,0,0,1,.015.15.477.477,0,0,1-.015.15.833.833,0,0,1-.046.15.635.635,0,0,1-.072.129.547.547,0,0,1-.1.119.707.707,0,0,1-.114.1,1.11,1.11,0,0,1-.134.072c-.046.015-.1.031-.145.041a.777.777,0,0,1-.15.015.788.788,0,0,1-.155-.015c-.046-.01-.1-.026-.145-.041a1.11,1.11,0,0,1-.134-.072,1.09,1.09,0,0,1-.119-.1.729.729,0,0,1-.093-.119.635.635,0,0,1-.072-.129.833.833,0,0,1-.046-.15.7.7,0,0,1-.015-.15.493.493,0,0,1,.015-.15.833.833,0,0,1,.119-.279A1.048,1.048,0,0,1,40.535,27a1.089,1.089,0,0,1,.119-.1.653.653,0,0,1,.134-.067.784.784,0,0,1,.145-.046.757.757,0,0,1,.3,0,.784.784,0,0,1,.145.046.653.653,0,0,1,.134.067.907.907,0,0,1,.212.217.833.833,0,0,1,.119.279Zm-2.655,0a.7.7,0,0,1,.015.15.774.774,0,0,1-.227.548,1.09,1.09,0,0,1-.119.1,1.11,1.11,0,0,1-.134.072,1.182,1.182,0,0,1-.145.041.732.732,0,0,1-.3,0,1.181,1.181,0,0,1-.145-.041A1.11,1.11,0,0,1,38,28.2a.751.751,0,0,1-.119-.1.774.774,0,0,1-.227-.548.7.7,0,0,1,.015-.15,1.182,1.182,0,0,1,.041-.145,1.109,1.109,0,0,1,.072-.134,1.09,1.09,0,0,1,.1-.119.751.751,0,0,1,.119-.1.653.653,0,0,1,.134-.067.676.676,0,0,1,.145-.046.732.732,0,0,1,.3,0,.676.676,0,0,1,.145.046.653.653,0,0,1,.134.067.813.813,0,0,1,.217.217.653.653,0,0,1,.067.134.676.676,0,0,1,.046.145ZM36.325,27a.783.783,0,0,1,.227.548.7.7,0,0,1-.015.15.81.81,0,0,1-.041.15,1.04,1.04,0,0,1-.072.129.547.547,0,0,1-.1.119,1.033,1.033,0,0,1-.114.1c-.046.026-.088.052-.134.072s-.1.031-.145.041a.775.775,0,0,1-.7-.212.773.773,0,0,1,0-1.1.76.76,0,0,1,.847-.165.815.815,0,0,1,.134.067A1.033,1.033,0,0,1,36.325,27Zm11.587-9.376a.786.786,0,0,1,0-1.1.8.8,0,0,1,1.1,0,.773.773,0,0,1,0,1.1.765.765,0,0,1-.548.227.774.774,0,0,1-.548-.227Zm-2.433-.248a.729.729,0,0,1-.062-.3.738.738,0,0,1,.015-.15.676.676,0,0,1,.046-.145.653.653,0,0,1,.067-.134,1.09,1.09,0,0,1,.1-.119.8.8,0,0,1,1.1,0,1.09,1.09,0,0,1,.1.119,1.109,1.109,0,0,1,.072.134,1.182,1.182,0,0,1,.041.145.738.738,0,0,1,.015.15.774.774,0,0,1-1.322.548.751.751,0,0,1-.1-.119.613.613,0,0,1-.067-.129ZM39.1,36.555a.776.776,0,0,0-1.343,0l-2.154,3.73a.775.775,0,0,0,1.343.775l.708-1.224v9.821h-25.1V46.427H19.3a.775.775,0,1,0,0-1.55h-.961V28.3a.778.778,0,0,0-.527-.734l-6.153-2.087V20.288h8.116L18.554,21a.775.775,0,0,0,.387,1.446.765.765,0,0,0,.387-.1l3.73-2.154a.776.776,0,0,0,0-1.343l-3.73-2.154a.775.775,0,1,0-.775,1.343l1.224.708H10.888a.774.774,0,0,0-.775.775v5.44L6.254,23.646a.777.777,0,0,0-1.028.734v20.5H4.265a.775.775,0,1,0,0,1.55h6.742v4a.774.774,0,0,0,.775.775H38.422a.774.774,0,0,0,.775-.775v-10.6L39.9,41.06a.776.776,0,0,0,.672.387.765.765,0,0,0,.387-.1.776.776,0,0,0,.284-1.059l-2.154-3.73ZM6.781,25.454l10.012,3.394V44.873H6.781Zm2.645,4.975v.811a.775.775,0,0,1-1.55,0v-.811a.775.775,0,1,1,1.55,0Zm4.722.811v-.811a.775.775,0,1,1,1.55,0v.811a.775.775,0,0,1-1.55,0Zm-3.136,0v-.811a.775.775,0,1,1,1.55,0v.811a.775.775,0,0,1-1.55,0Zm-1.586,3.11v.811a.775.775,0,0,1-1.55,0v-.811a.775.775,0,1,1,1.55,0Zm4.722.811v-.811a.775.775,0,1,1,1.55,0v.811a.775.775,0,0,1-1.55,0Zm-3.136,0v-.811a.775.775,0,1,1,1.55,0v.811a.775.775,0,0,1-1.55,0ZM9.426,38.27v.811a.775.775,0,0,1-1.55,0V38.27a.775.775,0,0,1,1.55,0Zm4.722.811V38.27a.775.775,0,0,1,1.55,0v.811a.775.775,0,0,1-1.55,0Zm-3.136,0V38.27a.775.775,0,0,1,1.55,0v.811a.775.775,0,0,1-1.55,0Zm-1.586,3.11V43a.775.775,0,1,1-1.55,0v-.811a.775.775,0,1,1,1.55,0ZM14.147,43v-.811a.775.775,0,1,1,1.55,0V43a.775.775,0,1,1-1.55,0Zm-3.136,0v-.811a.775.775,0,1,1,1.55,0V43a.775.775,0,1,1-1.55,0Z" transform="translate(58.01 170.83)" fill="#1c54f8" stroke="#fff" stroke-width="0.4"></path></g></svg> 