<?xml version="1.0" encoding="UTF-8"?> <svg xmlns="http://www.w3.org/2000/svg" id="Layer_1" data-name="Layer 1" viewBox="0 0 80 80"><defs><style>.cls-1,.cls-2{fill:none;stroke:#1b54f8;stroke-width:2px;}.cls-1{stroke-linecap:round;stroke-linejoin:round;}.cls-2{stroke-miterlimit:10;}</style></defs><path class="cls-1" d="M39.17,8.26h0c-13.08,0-23.8,10.79-25.59,24.65"></path><path class="cls-2" d="M37.6,19.77a1.43,1.43,0,0,0-1.3,1.43v3.17a16.71,16.71,0,0,0-2.54.88l-2.2-2.2a1.42,1.42,0,0,0-2,0l-5,5A1.44,1.44,0,0,0,24.4,30l2.29,2.88a13.34,13.34,0,0,0-.78,2H22.65a1.44,1.44,0,0,0-1.44,1.44V43.5a1.44,1.44,0,0,0,1.44,1.43h3.19a16.77,16.77,0,0,0,.87,2.52l-2.2,2.2a1.46,1.46,0,0,0,0,2.05l5,5a1.42,1.42,0,0,0,2,0l2.2-2.2a16.71,16.71,0,0,0,2.54.88V58.6A1.44,1.44,0,0,0,37.74,60h7.18a1.45,1.45,0,0,0,1.44-1.44V55.41a16.24,16.24,0,0,0,2.53-.88l2.2,2.2a1.44,1.44,0,0,0,2,0l5-5a1.44,1.44,0,0,0,0-2.05l-2.2-2.2a15.79,15.79,0,0,0,.88-2.52H60a1.43,1.43,0,0,0,1.43-1.43V36.31A1.43,1.43,0,0,0,60,34.87H56.75a14.53,14.53,0,0,0-.78-2L58.26,30a1.44,1.44,0,0,0-.12-1.93l-5-5a1.44,1.44,0,0,0-2,0l-2.2,2.2a16.24,16.24,0,0,0-2.53-.88V21.2a1.44,1.44,0,0,0-1.44-1.43H37.6Z"></path><path class="cls-2" d="M41.33,34.15a5.75,5.75,0,1,1-5.75,5.75,5.73,5.73,0,0,1,5.75-5.75Z"></path><path class="cls-1" d="M43.48,71.54c13.1,0,23.82-10.79,25.6-24.67"></path><polyline class="cls-1" points="37.04 5.32 40.27 8.55 37.18 11.64"></polyline><polyline class="cls-1" points="45.98 74.48 42.88 71.13 46.09 68.16"></polyline></svg> 