<?xml version="1.0" encoding="UTF-8"?> <svg xmlns="http://www.w3.org/2000/svg" xmlns:xlink="http://www.w3.org/1999/xlink" width="90" height="90" viewBox="0 0 90 90"><defs><clipPath id="clip-path"><rect id="Rectangle_5" data-name="Rectangle 5" width="90" height="90" transform="translate(1513 1031)" fill="#fff"></rect></clipPath></defs><g id="Mask_Group_3" data-name="Mask Group 3" transform="translate(-1513 -1031)" clip-path="url(#clip-path)"><g id="Group_1" data-name="Group 1" transform="translate(-132.894 -176)"><path id="Path_1" data-name="Path 1" d="M378.97,89.376a1.861,1.861,0,0,0-.212,3.7c16.426,2.6,28.867,16.122,28.867,32.38a31.2,31.2,0,0,1-2.18,11.509,1.861,1.861,0,1,0,3.461,1.368,34.95,34.95,0,0,0,2.441-12.877c0-18.157-13.893-33.187-32.006-36.055a1.811,1.811,0,0,0-.37-.027Z" transform="translate(1318.228 1130.911)" fill="#05f" stroke="#fff" stroke-width="1.6" fill-rule="evenodd"></path><path id="Path_2" data-name="Path 2" d="M228.562,425.61a1.862,1.862,0,0,0-1.412.683,35.773,35.773,0,0,1-54.082.018h0a1.861,1.861,0,1,0-2.846,2.4A39.493,39.493,0,0,0,230,428.689h0a1.861,1.861,0,0,0-1.436-3.079Z" transform="translate(1491.161 850.549)" fill="#05f" stroke="#fff" stroke-width="1.6" fill-rule="evenodd"></path><path id="Path_3" data-name="Path 3" d="M154.385,89.093a1.832,1.832,0,0,0-.315.025c-18.275,2.742-32.335,17.84-32.335,36.105a34.953,34.953,0,0,0,2.326,12.582h0a1.861,1.861,0,1,0,3.474-1.336,31.18,31.18,0,0,1-2.079-11.245c0-16.355,12.589-29.937,29.166-32.425h0a1.861,1.861,0,0,0-.238-3.7Z" transform="translate(1531.211 1131.147)" fill="#05f" stroke="#fff" stroke-width="1.6" fill-rule="evenodd"></path><path id="Path_4" data-name="Path 4" d="M124.5,296.164a1.861,1.861,0,0,0-.32,3.664l8.695,2.152-28.5,15.208a1.861,1.861,0,1,0,1.745,3.286L135.118,305l-2.326,8.608a1.861,1.861,0,1,0,3.577.989l3.373-12.534a1.931,1.931,0,0,0-1.25-2.559l-13.434-3.286a1.864,1.864,0,0,0-.552-.058Z" transform="translate(1546.532 958.487)" fill="#05f" stroke="#fff" stroke-width="1.6" fill-rule="evenodd"></path><path id="Path_5" data-name="Path 5" d="M392.156,296.151a1.831,1.831,0,0,0-.291.057l-13.406,3.286h0a1.862,1.862,0,0,0-1.367,2.3l3.46,12.8a1.87,1.87,0,0,0,3.606-.989l-2.326-8.608,28.905,15.441a1.861,1.861,0,1,0,1.745-3.286l-28.412-15.18,8.665-2.152h0a1.861,1.861,0,0,0-.378-3.664,1.777,1.777,0,0,0-.2,0Z" transform="translate(1318.34 958.499)" fill="#05f" stroke="#fff" stroke-width="1.6" fill-rule="evenodd"></path><path id="Path_6" data-name="Path 6" d="M293.817,33.488a1.934,1.934,0,0,0-1.832,1.89l-.029,31.115-6.688-6.281a1.872,1.872,0,1,0-2.559,2.733l9.829,9.189a1.776,1.776,0,0,0,2.559-.029l9.771-9.364a1.861,1.861,0,0,0-1.309-3.228,1.88,1.88,0,0,0-1.279.552l-6.6,6.339.029-31.029a1.936,1.936,0,0,0-1.89-1.89Z" transform="translate(1397.457 1177.514)" fill="#05f" stroke="#fff" stroke-width="1.6" fill-rule="evenodd"></path></g></g></svg> 