<?xml version="1.0" encoding="UTF-8"?> <svg xmlns="http://www.w3.org/2000/svg" id="Layer_1" data-name="Layer 1" viewBox="0 0 80 80"><defs><style>.cls-1,.cls-2{fill:#1b54f8;stroke:#1b54f8;}.cls-1{stroke-width:0.1px;}.cls-2{stroke-width:0.1px;}</style></defs><g id="Custom-API-Integration"><g id="Group"><path id="Shape" class="cls-1" d="M36.25,57a2.15,2.15,0,0,1-2.11-2.13l0-2.36h0l-1.67,1.68a2.19,2.19,0,0,1-3.08,0l-4.16-4a2.1,2.1,0,0,1-.67-1.53,2.13,2.13,0,0,1,.64-1.55l1.64-1.66-2.43,0A2.17,2.17,0,0,1,22.84,45a2.12,2.12,0,0,1-.68-1.55l-.08-5.68a2.09,2.09,0,0,1,.58-1.49,2.2,2.2,0,0,1,1.57-.69l2.39,0h0l-1.69-1.62a2.1,2.1,0,0,1,0-3.09l4-4a2.18,2.18,0,0,1,3.08,0l1.71,1.64h0l0-2.37a2,2,0,0,1,.57-1.48,2.15,2.15,0,0,1,1.57-.69l5.79-.07a2.08,2.08,0,0,1,1.52.58,2.19,2.19,0,0,1,.68,1.54l0,2.36,0,0,1.67-1.68a2.18,2.18,0,0,1,3.08,0l4.14,4A2.1,2.1,0,0,1,53.52,32a2.13,2.13,0,0,1-.64,1.55L51.24,35.2l2.43,0a2.07,2.07,0,0,1,1.51.58,2.11,2.11,0,0,1,.68,1.54L55.92,43a2.12,2.12,0,0,1-.57,1.49,2.24,2.24,0,0,1-1.58.69l-2.43,0L53,46.78h0a2.26,2.26,0,0,1,.19,3l-.12.13-4,4.08A2.18,2.18,0,0,1,46,54l-1.71-1.64h0l0,2.37a2.08,2.08,0,0,1-.57,1.48,2.16,2.16,0,0,1-1.58.69L36.33,57Zm-2.43-7.09a1.09,1.09,0,0,1,.4.07,4.11,4.11,0,0,1,.56.25l.2.09a4,4,0,0,0,.54.2,1.17,1.17,0,0,1,.93,1.14l0,3,5.42-.06,0-3a1.18,1.18,0,0,1,.91-1.16,2,2,0,0,0,.34-.13l.25-.1a3.56,3.56,0,0,0,.51-.25,1.18,1.18,0,0,1,1.43.16l2.19,2.1,3.8-3.83-2.2-2.11A1.16,1.16,0,0,1,48.81,45a5.85,5.85,0,0,1,.26-.56l.08-.16c0-.09.07-.18.11-.28a1.48,1.48,0,0,0,.1-.27,1.17,1.17,0,0,1,1.14-.92l3.06,0-.05-5.25-3.06,0h0a1.18,1.18,0,0,1-1.14-.9,2.26,2.26,0,0,0-.13-.33l-.1-.24a3.33,3.33,0,0,0-.25-.5A1.17,1.17,0,0,1,49,34.14L51.08,32,47.2,28.31l-2.14,2.15a1.17,1.17,0,0,1-1.24.28,4.75,4.75,0,0,1-.56-.25l-.16-.08-.3-.11a1.57,1.57,0,0,0-.28-.1,1.17,1.17,0,0,1-.93-1.14l0-3-5.42.07,0,3a1.18,1.18,0,0,1-.9,1.16,2.09,2.09,0,0,0-.35.13l-.25.1a3.56,3.56,0,0,0-.51.25,1.16,1.16,0,0,1-1.42-.16l-2.2-2.1-3.8,3.82,2.12,2a1.16,1.16,0,0,1,.29,1.26,4.13,4.13,0,0,1-.26.56l-.1.2a4.42,4.42,0,0,0-.19.51,1.19,1.19,0,0,1-1.12.93l-3,.07.07,5.27,3.06,0a1.14,1.14,0,0,1,1.16.89,2.26,2.26,0,0,0,.13.33l.11.25a2.47,2.47,0,0,0,.25.49,1.19,1.19,0,0,1-.16,1.46L27,48.68l3.89,3.73L33,50.26A1.14,1.14,0,0,1,33.82,49.91Z"></path><path id="Shape-2" data-name="Shape" class="cls-1" d="M39.05,47.24a7.07,7.07,0,0,1-4.92-2A6.93,6.93,0,0,1,34,35.43a7,7,0,0,1,5-2.07,7.18,7.18,0,0,1,5,2,6.87,6.87,0,0,1,2.12,4.9v0a7,7,0,0,1-2,4.93,7.07,7.07,0,0,1-5,2.08Zm0-11.52H39a4.7,4.7,0,0,0-3.32,1.37,4.58,4.58,0,0,0,.08,6.49,4.71,4.71,0,0,0,3.36,1.3,4.77,4.77,0,0,0,3.32-1.38,4.59,4.59,0,0,0,1.31-3.27A4.52,4.52,0,0,0,42.36,37,4.78,4.78,0,0,0,39.06,35.72Z"></path><rect id="Rectangle" class="cls-1" x="38.01" y="11.15" width="2.36" height="7.53"></rect><path id="Shape-3" data-name="Shape" class="cls-1" d="M39.14,13.32a4.16,4.16,0,1,1,4.22-4.16A4.19,4.19,0,0,1,39.14,13.32Zm0-6A1.8,1.8,0,1,0,41,9.16,1.83,1.83,0,0,0,39.14,7.36Z"></path><path id="Path" class="cls-1" d="M20.1,30,13.32,25.6"></path><rect id="Rectangle-2" data-name="Rectangle" class="cls-2" x="15.53" y="23.75" width="2.36" height="8.06" transform="translate(-15.69 26.83) rotate(-57.3)"></rect><path id="Shape-4" data-name="Shape" class="cls-1" d="M11.53,28.79a4.16,4.16,0,0,1-2.09-.55,4.12,4.12,0,0,1-1.55-5.69A4.26,4.26,0,0,1,13.64,21a4.15,4.15,0,0,1,2,2.54,4,4,0,0,1-.43,3.15A4.21,4.21,0,0,1,11.53,28.79Zm0-6a1.89,1.89,0,0,0-1.62.91,1.78,1.78,0,0,0,.68,2.45,1.88,1.88,0,0,0,2.55-.66,1.77,1.77,0,0,0,.19-1.35,1.82,1.82,0,0,0-.86-1.1A1.89,1.89,0,0,0,11.54,22.83Z"></path><path id="Path-2" data-name="Path" class="cls-1" d="M19.92,50.45,13.14,54.8"></path><rect id="Rectangle-3" data-name="Rectangle" class="cls-2" x="12.5" y="51.44" width="8.06" height="2.36" transform="translate(-25.81 17.27) rotate(-32.7)"></rect><path id="Shape-5" data-name="Shape" class="cls-1" d="M11.4,60a4.22,4.22,0,0,1-3.65-2.07,4,4,0,0,1-.43-3.15,4.13,4.13,0,0,1,2-2.54h0A4.24,4.24,0,0,1,15,53.75a4,4,0,0,1,.43,3.15,4.13,4.13,0,0,1-2,2.54A4.24,4.24,0,0,1,11.4,60Zm0-6a1.83,1.83,0,0,0-.93.25h0a1.78,1.78,0,0,0-.86,1.1,1.73,1.73,0,0,0,.18,1.35,1.89,1.89,0,0,0,2.55.66,1.78,1.78,0,0,0,.86-1.1A1.73,1.73,0,0,0,13,54.94,1.89,1.89,0,0,0,11.39,54Z"></path><path id="Path-3" data-name="Path" class="cls-1" d="M38.81,62v7.53"></path><rect id="Rectangle-4" data-name="Rectangle" class="cls-1" x="37.64" y="62.03" width="2.36" height="7.53"></rect><path id="Shape-6" data-name="Shape" class="cls-1" d="M38.86,75.71a4.16,4.16,0,1,1,4.21-4.15A4.19,4.19,0,0,1,38.86,75.71Zm0-6a1.81,1.81,0,1,0,1.85,1.81A1.83,1.83,0,0,0,38.86,69.75Z"></path><path id="Path-4" data-name="Path" class="cls-1" d="M57.9,50.76l6.78,4.36"></path><rect id="Rectangle-5" data-name="Rectangle" class="cls-2" x="60.11" y="48.91" width="2.36" height="8.06" transform="translate(-16.37 75.91) rotate(-57.3)"></rect><path id="Shape-7" data-name="Shape" class="cls-1" d="M66.45,60.23a4.16,4.16,0,0,1-2.09-.55,4.12,4.12,0,0,1-2-2.54A4,4,0,0,1,62.82,54a4.26,4.26,0,0,1,5.74-1.52,4.13,4.13,0,0,1,1.55,5.7A4.24,4.24,0,0,1,66.45,60.23Zm0-5.95a1.85,1.85,0,0,0-1.61.91,1.75,1.75,0,0,0-.19,1.34,1.79,1.79,0,0,0,.86,1.1A1.9,1.9,0,0,0,68.08,57a1.75,1.75,0,0,0,.18-1.34,1.8,1.8,0,0,0-.86-1.11A2,2,0,0,0,66.46,54.28Z"></path><path id="Path-5" data-name="Path" class="cls-1" d="M58.08,30.27l6.78-4.36"></path><rect id="Rectangle-6" data-name="Rectangle" class="cls-2" x="57.44" y="26.91" width="8.06" height="2.36" transform="translate(-5.43 37.66) rotate(-32.7)"></rect><path id="Shape-8" data-name="Shape" class="cls-1" d="M66.61,29A4.25,4.25,0,0,1,63,27a4,4,0,0,1-.43-3.15,4.15,4.15,0,0,1,2-2.55,4.26,4.26,0,0,1,5.74,1.52,4,4,0,0,1,.43,3.15,4.15,4.15,0,0,1-2,2.55h0A4.21,4.21,0,0,1,66.61,29Zm0-6a2,2,0,0,0-.94.24,1.8,1.8,0,0,0-.86,1.11A1.71,1.71,0,0,0,65,25.77a1.89,1.89,0,0,0,2.55.67h0a1.8,1.8,0,0,0,.86-1.11A1.71,1.71,0,0,0,68.22,24,1.85,1.85,0,0,0,66.61,23.08Z"></path></g></g></svg> 