<?xml version="1.0" encoding="UTF-8"?> <svg xmlns="http://www.w3.org/2000/svg" xmlns:xlink="http://www.w3.org/1999/xlink" width="60" height="60" viewBox="0 0 60 60"><defs><clipPath id="clip-path"><rect id="Rectangle_9" data-name="Rectangle 9" width="60" height="60" transform="translate(777 286)" fill="#fff" stroke="#707070" stroke-width="1"></rect></clipPath></defs><g id="Mask_Group_60" data-name="Mask Group 60" transform="translate(-777 -286)" clip-path="url(#clip-path)"><g id="Group_74" data-name="Group 74" transform="translate(60 -144)"><path id="Path_193" data-name="Path 193" d="M75.134,18.136a.653.653,0,0,0-.879-.966l-6.723,6.112L65.36,21.11a.653.653,0,0,0-.9-.018L60.21,25.01a.653.653,0,1,0,.886.96l3.784-3.493,2.169,2.169a.653.653,0,0,0,.9.021Z" transform="translate(693.736 421)" fill="#1c54f8" stroke="#fff" stroke-width="0.3"></path><path id="Path_194" data-name="Path 194" d="M42.03,23.426a2.593,2.593,0,0,0,.687-1.754,2.8,2.8,0,0,0-5.6,0,2.593,2.593,0,0,0,.687,1.754,2.617,2.617,0,0,0-.251.1l-.069.033A2.612,2.612,0,0,0,36,25.92V29.45a1.306,1.306,0,0,0,1.306,1.306h5.225a1.306,1.306,0,0,0,1.306-1.306V25.92a2.612,2.612,0,0,0-1.487-2.358l-.069-.033A2.618,2.618,0,0,0,42.03,23.426Zm-.619-1.754a1.5,1.5,0,1,1-1.493-1.366A1.433,1.433,0,0,1,41.411,21.672Zm1.12,4.248V29.45H37.306V25.92a1.306,1.306,0,0,1,.744-1.179l.069-.033a1.306,1.306,0,0,1,.563-.127h2.474a1.306,1.306,0,0,1,.563.127l.069.033A1.306,1.306,0,0,1,42.531,25.92Z" transform="translate(702.062 420.306)" fill="#1c54f8" stroke="#fff" stroke-width="0.3" fill-rule="evenodd"></path><path id="Path_195" data-name="Path 195" d="M17.306,32.919a2.612,2.612,0,0,1,2.612-2.612H26.45a.653.653,0,1,0,0-1.306H19.919A3.919,3.919,0,0,0,16,32.919V55.124a3.919,3.919,0,0,0,3.919,3.919H33.074L32.234,61h-.56a1.306,1.306,0,0,0-1.306,1.306v1.306a1.306,1.306,0,0,0,1.306,1.306H44.736a1.306,1.306,0,0,0,1.306-1.306V62.308A1.306,1.306,0,0,0,44.736,61H44.27l-.7-1.959H55.186A3.919,3.919,0,0,0,59.1,55.124V40.429a.653.653,0,1,0-1.306,0V55.124a2.612,2.612,0,0,1-2.612,2.612H19.919a2.612,2.612,0,0,1-2.612-2.612ZM42.183,59.043H34.495L33.655,61h9.228ZM31.674,62.308H44.736v1.306H31.674Z" transform="translate(709 416.837)" fill="#1c54f8" stroke="#fff" stroke-width="0.3" fill-rule="evenodd"></path><path id="Path_196" data-name="Path 196" d="M51.653,29a.653.653,0,1,0,0,1.306h2.939a.653.653,0,1,0,0-1.306Z" transform="translate(696.858 416.837)" fill="#1c54f8" stroke="#fff" stroke-width="0.3"></path><path id="Path_197" data-name="Path 197" d="M57.03,53.426a2.593,2.593,0,0,0,.687-1.754,2.8,2.8,0,0,0-5.6,0,2.593,2.593,0,0,0,.687,1.754,2.617,2.617,0,0,0-.251.1l-.069.033A2.612,2.612,0,0,0,51,55.92V59.45a1.306,1.306,0,0,0,1.306,1.306h5.225a1.306,1.306,0,0,0,1.306-1.306V55.92a2.612,2.612,0,0,0-1.487-2.358l-.069-.033A2.617,2.617,0,0,0,57.03,53.426Zm-.619-1.754a1.5,1.5,0,1,1-1.493-1.366A1.433,1.433,0,0,1,56.411,51.672Zm1.12,4.248V59.45H52.306V55.92a1.306,1.306,0,0,1,.744-1.179l.069-.033a1.306,1.306,0,0,1,.563-.127h2.474a1.306,1.306,0,0,1,.563.127l.069.033A1.306,1.306,0,0,1,57.531,55.92Z" transform="translate(696.858 409.899)" fill="#1c54f8" stroke="#fff" stroke-width="0.3" fill-rule="evenodd"></path><path id="Path_198" data-name="Path 198" d="M27.718,51.672a2.593,2.593,0,0,1-.687,1.754,2.618,2.618,0,0,1,.251.1l.069.033a2.612,2.612,0,0,1,1.487,2.358V59.45a1.306,1.306,0,0,1-1.306,1.306H22.306A1.306,1.306,0,0,1,21,59.45V55.92a2.612,2.612,0,0,1,1.487-2.358l.069-.033a2.617,2.617,0,0,1,.251-.1,2.593,2.593,0,0,1-.687-1.754,2.8,2.8,0,0,1,5.6,0Zm-2.8,1.366a1.371,1.371,0,1,0-1.493-1.366A1.433,1.433,0,0,0,24.919,53.037Zm2.612,6.412V55.92a1.306,1.306,0,0,0-.744-1.179l-.069-.033a1.306,1.306,0,0,0-.563-.127H23.681a1.306,1.306,0,0,0-.563.127l-.069.033a1.306,1.306,0,0,0-.744,1.179V59.45Z" transform="translate(707.266 409.899)" fill="#1c54f8" stroke="#fff" stroke-width="0.3" fill-rule="evenodd"></path><path id="Path_199" data-name="Path 199" d="M46.017,40.545a.681.681,0,0,1,0-.933.612.612,0,0,1,.893,0l4.464,4.665a.681.681,0,0,1,0,.933.612.612,0,0,1-.893,0Z" transform="translate(698.651 413.223)" fill="#1c54f8" stroke="#fff" stroke-width="0.3"></path><path id="Path_200" data-name="Path 200" d="M34.942,39.612a.681.681,0,0,1,0,.933L30.478,45.21a.612.612,0,0,1-.893,0,.681.681,0,0,1,0-.933l4.464-4.665A.612.612,0,0,1,34.942,39.612Z" transform="translate(704.351 413.223)" fill="#1c54f8" stroke="#fff" stroke-width="0.3"></path><path id="Path_201" data-name="Path 201" d="M60,35.409a.653.653,0,0,0,.653.653H74.368a.653.653,0,0,0,.653-.653V23.653a.653.653,0,0,0-1.306,0v11.1H71.756v-8.49a.653.653,0,1,0-1.306,0v8.49H68.49V30.184a.653.653,0,0,0-1.306,0v4.572H65.225V29.531a.653.653,0,1,0-1.306,0v5.225H61.959V32.8a.653.653,0,0,0-1.306,0v1.959A.653.653,0,0,0,60,35.409Z" transform="translate(693.736 418.919)" fill="#1c54f8" stroke="#fff" stroke-width="0.3"></path></g></g></svg> 