<?xml version="1.0" encoding="UTF-8"?> <!-- Generator: Adobe Illustrator 25.2.3, SVG Export Plug-In . SVG Version: 6.00 Build 0) --> <svg xmlns="http://www.w3.org/2000/svg" xmlns:xlink="http://www.w3.org/1999/xlink" version="1.1" id="Layer_1" x="0px" y="0px" viewBox="0 0 80 80" style="enable-background:new 0 0 80 80;" xml:space="preserve"> <style type="text/css"> .st0{fill:#1B54F8;} .st1{fill:none;stroke:#1B54F8;stroke-width:2;stroke-miterlimit:10;} </style> <g id="mobile_device_management"> <path class="st0" d="M47.8,38.4H31.3c-1.8,0-3.3,1.5-3.3,3.3l0,0v29.7c0,1.8,1.5,3.3,3.3,3.3h0h16.5c1.8,0,3.3-1.5,3.3-3.3l0,0 V41.7C51.1,39.9,49.6,38.4,47.8,38.4L47.8,38.4z M47.8,71.4H31.3V41.3h16.5V71.4z"></path> <path class="st1" d="M54.3,54.2h6.9c8.4,0.3,15.5-6.3,15.8-14.7c0.3-8.4-6.3-15.5-14.7-15.8c-2.5-12.4-14.5-20.5-26.9-18 c-6.8,1.4-12.7,5.7-15.9,11.9C9.4,18.7,2.1,27.7,3.2,37.8c1,9.4,8.9,16.5,18.3,16.4h3.4"></path> </g> <g id="networking"> <path class="st0" d="M45.6,30.5l-4.7-4.7v-3c-0.8,0.2-1.6,0.2-2.4,0v3l-4.7,4.7h-4.7v6h5.9v-3.7l4.7-5l4.7,5v3.6h6v-5.9H45.6z"></path> <circle class="st0" cx="39.7" cy="18.3" r="4"></circle> </g> </svg> 