<?xml version="1.0" encoding="UTF-8"?> <svg xmlns="http://www.w3.org/2000/svg" id="Layer_1" data-name="Layer 1" viewBox="0 0 94 94"><defs><style>.cls-1{fill:#1b54f8;stroke:#1b54f8;stroke-miterlimit:10;stroke-width:0.5px;}</style></defs><path class="cls-1" d="M48,78.5V54.2a8,8,0,1,0-2,0V78.5ZM41,46.2a6,6,0,1,1,6,6A6,6,0,0,1,41,46.2Z"></path><path class="cls-1" d="M47,23C26.4,23,16,48.1,30.6,62.6L32,61.2C18.7,48,28.1,25,47,25S75.3,47.9,62,61.2l1.4,1.4C77.9,48.1,67.6,23,47,23Z"></path><path class="cls-1" d="M58.1,57.3a15.5,15.5,0,0,0,4.6-11.1,15.7,15.7,0,0,0-31.4,0,15.5,15.5,0,0,0,4.6,11.1l1.4-1.4a13.53,13.53,0,0,1-4-9.7,13.7,13.7,0,0,1,27.4,0,13.53,13.53,0,0,1-4,9.7Z"></path><path class="cls-1" d="M26.7,66.5a28.7,28.7,0,1,1,40.6,0l1.4,1.4a30.7,30.7,0,1,0-43.4,0Z"></path></svg> 