<?xml version="1.0" encoding="UTF-8"?> <svg xmlns="http://www.w3.org/2000/svg" id="ERC_Tokens_Development" data-name="ERC Tokens Development" width="80" height="80" viewBox="0 0 80 80"><rect id="Rectangle_23" data-name="Rectangle 23" width="80" height="80" fill="#fff" opacity="0"></rect><path id="Union_6" data-name="Union 6" d="M46.578,62.96a3.548,3.548,0,0,1-.61-4.171L42,54.82a24.853,24.853,0,0,1-19.992,0l-3.969,3.969a3.545,3.545,0,1,1-5.635-.853,3.642,3.642,0,0,1,4.168-.6l3.479-3.478a24.963,24.963,0,0,1-4.913-3.533L6.674,58.787a3.553,3.553,0,1,1-1.461-1.461l8.462-8.461a25.074,25.074,0,0,1-3.532-4.911L6.678,47.428A3.546,3.546,0,0,1,1.04,51.6a3.543,3.543,0,0,1,4.176-5.632L9.181,42A24.838,24.838,0,0,1,9.182,22l-3.97-3.969A3.545,3.545,0,1,1,6.066,12.4a3.5,3.5,0,0,1,.608,4.179l3.469,3.468a24.984,24.984,0,0,1,3.533-4.912L5.214,6.672A3.509,3.509,0,0,1,1.04,6.064a3.553,3.553,0,1,1,5.633-.851l8.464,8.462a25.031,25.031,0,0,1,4.91-3.533L16.575,6.676A3.506,3.506,0,0,1,12.4,6.064a3.556,3.556,0,0,1,0-5.024,3.637,3.637,0,0,1,5.024,0,3.548,3.548,0,0,1,.608,4.176l3.971,3.964A24.835,24.835,0,0,1,42,9.181l3.971-3.964a3.548,3.548,0,0,1,.607-4.177,3.637,3.637,0,0,1,5.024,0,3.553,3.553,0,0,1-2.513,6.065,3.509,3.509,0,0,1-1.66-.429l-3.472,3.466a25.031,25.031,0,0,1,4.91,3.533l8.462-8.462a3.593,3.593,0,1,1,1.46,1.46l-8.462,8.461a25.078,25.078,0,0,1,3.545,4.933l3.489-3.489a3.5,3.5,0,0,1,.609-4.178,3.553,3.553,0,1,1,2.511,6.063h0a3.55,3.55,0,0,1-1.655-.427l-3.992,3.991A24.845,24.845,0,0,1,54.824,42l3.965,3.971A3.534,3.534,0,1,1,56.9,49.087a3.508,3.508,0,0,1,.428-1.66l-3.466-3.473a25.07,25.07,0,0,1-3.532,4.911l8.461,8.461a3.552,3.552,0,1,1-1.461,1.46l-8.462-8.461a25.01,25.01,0,0,1-4.912,3.533l3.478,3.478a3.641,3.641,0,0,1,4.169.6,3.553,3.553,0,0,1-5.026,5.024ZM2.5,59.4a1.493,1.493,0,1,0,1.053-.435A1.489,1.489,0,0,0,2.5,59.4Zm56.9,0a1.492,1.492,0,1,0,1.052-.435A1.49,1.49,0,0,0,59.4,59.394Zm-45.536,0a1.492,1.492,0,0,0,0,2.105,1.524,1.524,0,0,0,2.105,0A1.489,1.489,0,0,0,13.861,59.4Zm34.175,0a1.489,1.489,0,0,0,0,2.1,1.523,1.523,0,0,0,2.1,0,1.488,1.488,0,0,0-1.053-2.54A1.473,1.473,0,0,0,48.036,59.395ZM9.146,32A22.855,22.855,0,1,0,32,9.143,22.881,22.881,0,0,0,9.146,32ZM59.4,48.034a1.492,1.492,0,1,0,1.052-.435A1.482,1.482,0,0,0,59.4,48.034Zm-56.9,0A1.492,1.492,0,1,0,3.552,47.6,1.481,1.481,0,0,0,2.5,48.035ZM59.429,13.86a1.492,1.492,0,0,0,0,2.105,1.486,1.486,0,1,0,0-2.105Zm-56.93,0a1.493,1.493,0,1,0,1.053-.435A1.48,1.48,0,0,0,2.5,13.859ZM2.5,2.5a1.493,1.493,0,1,0,1.053-.435A1.492,1.492,0,0,0,2.5,2.5Zm56.9,0a1.493,1.493,0,1,0,1.053-.435A1.488,1.488,0,0,0,59.4,2.5Zm-11.361,0a1.488,1.488,0,0,0,0,2.105,1.523,1.523,0,0,0,2.1,0A1.489,1.489,0,0,0,48.035,2.5Zm-34.174,0a1.491,1.491,0,0,0,0,2.1,1.523,1.523,0,0,0,2.1,0,1.488,1.488,0,0,0-1.052-2.541A1.475,1.475,0,0,0,13.861,2.5ZM13.523,32A18.477,18.477,0,1,1,32,50.477,18.5,18.5,0,0,1,13.523,32Zm2.065,0A16.413,16.413,0,1,0,32,15.586,16.431,16.431,0,0,0,15.588,32Zm15.9,11.2L22.56,38.045a1.031,1.031,0,0,1-.516-.894V26.846a1.032,1.032,0,0,1,.516-.894L31.485,20.8a1.032,1.032,0,0,1,1.032,0l8.924,5.153a1.03,1.03,0,0,1,.516.893V37.151a1.032,1.032,0,0,1-.516.894L32.517,43.2a1.036,1.036,0,0,1-1.032,0Zm-7.375-6.64,6.86,3.96V32.6l-6.86-3.961Zm8.924-3.963v7.921l6.859-3.96V28.635Zm-7.892-5.748L32,30.807l6.859-3.961L32,22.886Z" transform="translate(7.586 8)" fill="#1b54f8"></path></svg> 