<?xml version="1.0" encoding="UTF-8"?> <svg xmlns="http://www.w3.org/2000/svg" xmlns:xlink="http://www.w3.org/1999/xlink" width="90" height="90" viewBox="0 0 90 90"><defs><clipPath id="clip-path"><rect id="Rectangle_8" data-name="Rectangle 8" width="90" height="90" transform="translate(416 354)" fill="#fff" stroke="#707070" stroke-width="1"></rect></clipPath></defs><g id="Mask_Group_11" data-name="Mask Group 11" transform="translate(-416 -354)" clip-path="url(#clip-path)"><g id="Group_240" data-name="Group 240" transform="translate(59.441 107.114)"><path id="Path_300" data-name="Path 300" d="M171.941,87.032h-8.282v-6.9a1.38,1.38,0,0,0-1.38-1.38h-13.8a1.38,1.38,0,0,0-1.38,1.38v6.9H125.009v-6.9a1.38,1.38,0,0,0-1.38-1.38h-13.8a1.38,1.38,0,0,0-1.38,1.38v6.9h-8.282a1.38,1.38,0,0,0-1.38,1.38v23.466H93.26a1.38,1.38,0,0,0-1.38,1.38v27.607a1.38,1.38,0,0,0,1.38,1.38h78.681a1.38,1.38,0,0,0,1.38-1.38V88.413A1.38,1.38,0,0,0,171.941,87.032Zm-22.086-5.521H160.9v5.521H149.855Zm-38.65,0h11.043v5.521H111.205Zm-9.663,8.282h69.018v9.663H101.543Zm-1.38,49.693H94.641V114.639h13.8v6.9a1.38,1.38,0,0,0,1.38,1.38h8.282a1.38,1.38,0,0,0,1.38-1.38v-6.9h2.761v24.847Zm11.043-24.847h5.521v5.521h-5.521Zm13.8,24.847V113.259a1.38,1.38,0,0,0-1.38-1.38H101.543v-9.663h69.018v37.27Z" transform="translate(268.679 181.136)" fill="#1b54f8" stroke="#fff" stroke-width="1"></path><path id="Path_301" data-name="Path 301" d="M498.511,280a4.141,4.141,0,1,0,4.141,4.141A4.145,4.145,0,0,0,498.511,280Zm0,5.521a1.38,1.38,0,1,1,1.38-1.38A1.381,1.381,0,0,1,498.511,285.521Z" transform="translate(-70.316 11.634)" fill="#1b54f8" stroke="#fff" stroke-width="1"></path><path id="Path_302" data-name="Path 302" d="M419.771,280a4.141,4.141,0,1,0,4.141,4.141A4.145,4.145,0,0,0,419.771,280Zm0,5.521a1.38,1.38,0,1,1,1.38-1.38A1.381,1.381,0,0,1,419.771,285.521Z" transform="translate(-3.998 11.634)" fill="#1b54f8" stroke="#fff" stroke-width="1"></path><path id="Path_303" data-name="Path 303" d="M341.011,280a4.141,4.141,0,1,0,4.141,4.141A4.145,4.145,0,0,0,341.011,280Zm0,5.521a1.38,1.38,0,1,1,1.38-1.38A1.381,1.381,0,0,1,341.011,285.521Z" transform="translate(62.337 11.634)" fill="#1b54f8" stroke="#fff" stroke-width="1"></path><path id="Path_304" data-name="Path 304" d="M498.511,358.75a4.141,4.141,0,1,0,4.141,4.141A4.145,4.145,0,0,0,498.511,358.75Zm0,5.521a1.38,1.38,0,1,1,1.38-1.38A1.381,1.381,0,0,1,498.511,364.271Z" transform="translate(-70.316 -54.693)" fill="#1b54f8" stroke="#fff" stroke-width="1"></path><path id="Path_305" data-name="Path 305" d="M419.771,358.75a4.141,4.141,0,1,0,4.141,4.141A4.145,4.145,0,0,0,419.771,358.75Zm0,5.521a1.38,1.38,0,1,1,1.38-1.38A1.381,1.381,0,0,1,419.771,364.271Z" transform="translate(-3.998 -54.693)" fill="#1b54f8" stroke="#fff" stroke-width="1"></path><path id="Path_306" data-name="Path 306" d="M341.011,358.75a4.141,4.141,0,1,0,4.141,4.141A4.145,4.145,0,0,0,341.011,358.75Zm0,5.521a1.38,1.38,0,1,1,1.38-1.38A1.381,1.381,0,0,1,341.011,364.271Z" transform="translate(62.337 -54.693)" fill="#1b54f8" stroke="#fff" stroke-width="1"></path><path id="Path_307" data-name="Path 307" d="M131.011,393.75H128.25a1.38,1.38,0,0,0,0,2.761h2.761a1.38,1.38,0,0,0,0-2.761Z" transform="translate(239.208 -84.171)" fill="#1b54f8" stroke="#fff" stroke-width="1"></path><path id="Path_308" data-name="Path 308" d="M131.011,428.75H128.25a1.38,1.38,0,0,0,0,2.761h2.761a1.38,1.38,0,0,0,0-2.761Z" transform="translate(239.208 -113.65)" fill="#1b54f8" stroke="#fff" stroke-width="1"></path></g></g></svg> 