<?xml version="1.0" encoding="UTF-8"?> <svg xmlns="http://www.w3.org/2000/svg" xmlns:xlink="http://www.w3.org/1999/xlink" width="60" height="60" viewBox="0 0 60 60"><defs><clipPath id="clip-path"><rect id="Rectangle_15" data-name="Rectangle 15" width="60" height="60" transform="translate(101 694)" fill="#fff" stroke="#707070" stroke-width="1"></rect></clipPath></defs><g id="Mask_Group_65" data-name="Mask Group 65" transform="translate(-101 -694)" clip-path="url(#clip-path)"><path id="Path_206" data-name="Path 206" d="M45.138,31.981a3.2,3.2,0,0,0-2.455.331l-9.306,5.464A3.294,3.294,0,0,0,31.3,35.953L21.833,32.8l-.492-.161c-4.314-1.435-4.961-1.528-9.322,1.512a2.419,2.419,0,0,0-2.75-1.186l-1.932.518a2.424,2.424,0,0,0-1.714,2.968L8.689,47.772a2.444,2.444,0,0,0,2.341,1.8,2.589,2.589,0,0,0,.627-.083l1.937-.518a2.408,2.408,0,0,0,1.756-2.7c1.828-.787,4.62-.057,7.328.658a20.906,20.906,0,0,0,4.894.9,3.879,3.879,0,0,0,2.118-.518L45.92,37.932a3.252,3.252,0,0,0-.782-5.951Zm-31.892,15.7-1.932.518a1.088,1.088,0,0,1-1.336-.772l-3.03-11.3a1.093,1.093,0,0,1,.109-.823,1.113,1.113,0,0,1,.663-.518h0l1.937-.518a1.036,1.036,0,0,1,.28-.036,1.093,1.093,0,0,1,1.036.808L14,46.337A1.088,1.088,0,0,1,13.246,47.678ZM46.174,35.627a1.89,1.89,0,0,1-.891,1.165L29.011,46.171h0c-1.124.72-3.584.073-5.966-.554-2.843-.746-5.764-1.512-7.991-.673l-2.543-9.451c4.195-2.973,4.324-2.942,8.452-1.554l9.959,3.294a1.9,1.9,0,0,1,1.269,1.191,3.014,3.014,0,0,1,.1.461h0a1.4,1.4,0,0,1-.347,1.264,2.072,2.072,0,0,1-1.833.388L21.45,37.6a.668.668,0,0,0-.43,1.264l8.664,2.947a2.9,2.9,0,0,0,.927.145,3.418,3.418,0,0,0,2.237-.813,2.558,2.558,0,0,0,.792-1.968l9.695-5.7a1.9,1.9,0,0,1,1.445-.2,1.937,1.937,0,0,1,1.181.9A1.916,1.916,0,0,1,46.174,35.627ZM12.511,45.565a.829.829,0,1,1-.394-.512A.823.823,0,0,1,12.511,45.565Zm9.224-26.692a2.589,2.589,0,0,0-2.589,2.589V22.6a2.589,2.589,0,0,0,2.589,2.589h1.16a10.451,10.451,0,0,0,.647,1.6l-.808.834a2.589,2.589,0,0,0,0,3.677l.808.808a2.589,2.589,0,0,0,3.672,0l.756-.756a9.954,9.954,0,0,0,1.657.7v1.036a2.589,2.589,0,0,0,2.589,2.589h1.145a2.589,2.589,0,0,0,2.589-2.589V32.059a10.357,10.357,0,0,0,1.657-.7l.751.756a2.589,2.589,0,0,0,3.677,0l.808-.808a2.589,2.589,0,0,0,0-3.677l-.813-.813a10.669,10.669,0,0,0,.647-1.6h1.16a2.589,2.589,0,0,0,2.589-2.589V21.483a2.589,2.589,0,0,0-2.589-2.589H42.693a10.451,10.451,0,0,0-.663-1.626l.813-.813a2.589,2.589,0,0,0,0-3.672l-.813-.8a2.589,2.589,0,0,0-3.677,0l-.756.756a9.659,9.659,0,0,0-1.652-.7V11a2.589,2.589,0,0,0-2.589-2.589H32.222A2.589,2.589,0,0,0,29.632,11v1.036a9.539,9.539,0,0,0-1.657.7l-.756-.756a2.589,2.589,0,0,0-3.672,0l-.808.808a2.589,2.589,0,0,0,0,3.672l.8.808a10.451,10.451,0,0,0-.647,1.6Zm2.31.834a9.037,9.037,0,0,1,.9-2.227.668.668,0,0,0-.109-.8l-1.16-1.155a1.274,1.274,0,0,1,0-1.792l.808-.808a1.264,1.264,0,0,1,1.792,0l1.113,1.108a.668.668,0,0,0,.813.1,8.851,8.851,0,0,1,2.268-.963.673.673,0,0,0,.492-.647V10.97A1.269,1.269,0,0,1,32.222,9.7h1.145a1.269,1.269,0,0,1,1.269,1.269v1.554a.673.673,0,0,0,.518.647,8.892,8.892,0,0,1,2.217.989.663.663,0,0,0,.813-.1L39.3,12.949a1.264,1.264,0,0,1,1.792,0l.808.808a1.274,1.274,0,0,1,0,1.792L40.736,16.7a.673.673,0,0,0-.109.8,9.255,9.255,0,0,1,.9,2.227.663.663,0,0,0,.642.518h1.662a1.269,1.269,0,0,1,1.305,1.222v1.139a1.269,1.269,0,0,1-1.269,1.269H42.191a.658.658,0,0,0-.642.518,9.322,9.322,0,0,1-.9,2.191.658.658,0,0,0,.109.8l1.16,1.16a1.274,1.274,0,0,1,0,1.792l-.808.808a1.274,1.274,0,0,1-1.792,0L38.2,30.034a.673.673,0,0,0-.834-.083,8.892,8.892,0,0,1-2.263.963.658.658,0,0,0-.518.642V33.11a1.269,1.269,0,0,1-1.222,1.248H32.222a1.264,1.264,0,0,1-1.264-1.264V31.541a.663.663,0,0,0-.492-.642,8.928,8.928,0,0,1-2.268-.963.663.663,0,0,0-.342-.093.684.684,0,0,0-.471.192l-1.113,1.113a1.274,1.274,0,0,1-1.792,0l-.808-.808a1.274,1.274,0,0,1,0-1.792l1.16-1.16a.658.658,0,0,0,.109-.8,9.12,9.12,0,0,1-.9-2.227.663.663,0,0,0-.647-.518H21.734a1.269,1.269,0,0,1-1.269-1.269V21.437a1.269,1.269,0,0,1,1.269-1.269h1.652a.673.673,0,0,0,.658-.461ZM32.8,29.179a7.126,7.126,0,1,0-7.126-7.137A7.126,7.126,0,0,0,32.8,29.179Zm0-12.921a5.8,5.8,0,1,1,0-.026ZM28.9,21.7l1.59,1.145L29.876,24.7a.876.876,0,0,0,1.352.974L32.8,24.518l1.554,1.155a.87.87,0,0,0,1.336-.974L35.08,22.84,36.665,21.7a.87.87,0,0,0-.518-1.554H34.221l-.6-1.864h0a.865.865,0,0,0-.823-.6.875.875,0,0,0-.829.6l-.6,1.864H29.409a.87.87,0,0,0-.518,1.554Zm2.807-.238h0a.875.875,0,0,0,.829-.6l.264-.818.264.818a.865.865,0,0,0,.823.6h.865l-.7.518a.865.865,0,0,0-.306.948l.269.818-.694-.518a.87.87,0,0,0-1.036,0l-.694.518.264-.818a.86.86,0,0,0-.316-.994l-.694-.518Zm.425-15.283V3.243a.668.668,0,1,1,1.331,0V6.164a.668.668,0,1,1-1.331,0Zm-9.161-.119a.668.668,0,0,1,1.155-.668l1.46,2.558a.663.663,0,0,1-.243.911.689.689,0,0,1-.331.088.668.668,0,0,1-.585-.357ZM16.2,12.161a.668.668,0,0,1,.911-.249l2.532,1.466a.668.668,0,0,1-.337,1.243.642.642,0,0,1-.331-.093l-2.532-1.46A.668.668,0,0,1,16.2,12.161ZM40.021,7.92l1.46-2.532a.668.668,0,0,1,1.155.668l-1.46,2.532a.668.668,0,0,1-.58.331.689.689,0,0,1-.331-.088.668.668,0,0,1-.259-.886Zm9.141,5.148-2.532,1.46a.642.642,0,0,1-.331.093.668.668,0,0,1-.331-1.243L48.5,11.913a.668.668,0,0,1,.663,1.155Z" transform="translate(103.505 697.957)" fill="#1c54f8" stroke="#fff" stroke-width="0.4"></path></g></svg> 