<?xml version="1.0" encoding="UTF-8"?> <svg xmlns="http://www.w3.org/2000/svg" xmlns:xlink="http://www.w3.org/1999/xlink" width="60" height="60" viewBox="0 0 60 60"><defs><clipPath id="clip-path"><rect id="Rectangle_14" data-name="Rectangle 14" width="60" height="60" transform="translate(756 239)" fill="#fff" stroke="#707070" stroke-width="1"></rect></clipPath></defs><g id="Mask_Group_7" data-name="Mask Group 7" transform="translate(-756 -239)" clip-path="url(#clip-path)"><g id="Group_8" data-name="Group 8" transform="translate(-154.972 177.27)"><path id="Path_36" data-name="Path 36" d="M44.733,20.181c-.355-.536-.721-1.089-1.093-1.667-.074-5.173-1.6-9.547-4.433-12.658A15.619,15.619,0,0,0,27.258.958a16.53,16.53,0,0,0-7.541,1.736H17.745V.777a.684.684,0,0,0-1.367,0V2.694h-3.62V.777a.684.684,0,0,0-1.367,0V2.694H7.771V.777A.684.684,0,0,0,6.4.777V2.694H4.271a.684.684,0,0,0-.684.684V5.512H1.67a.684.684,0,1,0,0,1.367H3.587V10.5H1.67a.684.684,0,0,0,0,1.367H3.587v3.62H1.67a.684.684,0,0,0,0,1.367H3.587v2.134a.684.684,0,0,0,.684.684H6.4v1.918a.684.684,0,0,0,1.367,0V19.671H10.96a15.761,15.761,0,0,0,3.889,8.667c3.062,3.428,5.123,6.514,5.219,10.35l-3.3,3.3a.683.683,0,0,0,.358,1.155l22.525,4.2a.7.7,0,0,0,.126.012.684.684,0,0,0,.414-1.228l-5.043-3.835-.437-5.564a12.919,12.919,0,0,1,3.064.022c2.661.2,5.414.4,5.81-1.395a10.149,10.149,0,0,0,0-3.046,14.969,14.969,0,0,1,.046-4.338l2.473-.872a1.72,1.72,0,0,0,1.177-1.061C47.741,24.723,46.545,22.916,44.733,20.181ZM4.954,4.061H19.2V18.3H4.954ZM12.338,19.67h4.04v1.918a.684.684,0,1,0,1.367,0V19.67h2.134a.684.684,0,0,0,.684-.684V16.852h1.918a.684.684,0,1,0,0-1.367H20.563V11.866h1.918a.684.684,0,1,0,0-1.367H20.563V6.879h1.918a.684.684,0,1,0,0-1.367H20.563V3.8a14.789,14.789,0,0,1,4.915-1.381,12.326,12.326,0,0,1,2.108,18.5,3.672,3.672,0,1,0-3.05,6.415v2.3a5.924,5.924,0,0,1-5.1-4.519.683.683,0,1,0-1.329.318,7.288,7.288,0,0,0,6.433,5.576v8.266l-3.108-.833c-.193-4.408-2.776-7.895-5.559-11.012A14.394,14.394,0,0,1,12.338,19.67Zm13.472,6.28H24.628a2.306,2.306,0,1,1,1.183,0ZM18.655,42.033l2.305-2.305.031.008,13.194,3.535,2.887,2.195ZM45.992,25.581c-.011.032-.045.128-.315.215l-.018.006-2.842,1a.682.682,0,0,0-.438.487,11.812,11.812,0,0,0-.3,2.75H40.445a.684.684,0,0,0,0,1.367h1.693c.026.357.057.7.087,1.022a9.326,9.326,0,0,1,.026,2.626c-.034.155-.362.346-1.179.418a21.7,21.7,0,0,1-3.194-.092c-2.262-.169-3.573-.233-4.213.41a1.129,1.129,0,0,0-.326.9l.4,5.044-7.832-2.1V27.329a3.671,3.671,0,0,0,2.553-5.343,13.692,13.692,0,0,0-.877-19.656c9.005.144,14.627,6.4,14.7,16.394a.681.681,0,0,0,.108.363c.414.646.818,1.258,1.21,1.849C44.828,22.8,46.227,24.912,45.992,25.581ZM39.343,19a.684.684,0,0,1-.684.684H35.835a.684.684,0,1,1,0-1.367H38.66A.684.684,0,0,1,39.343,19ZM15.591,6.982H8.559a.684.684,0,0,0-.684.684V14.7a.684.684,0,0,0,.684.684h7.032a.684.684,0,0,0,.684-.684V7.666A.684.684,0,0,0,15.591,6.982Zm-.684,7.032H9.242V8.349h5.665Z" transform="translate(916.986 67.637)" fill="#1c54f8"></path></g></g></svg> 