<?xml version="1.0" encoding="UTF-8"?> <svg xmlns="http://www.w3.org/2000/svg" xmlns:xlink="http://www.w3.org/1999/xlink" width="60" height="60" viewBox="0 0 60 60"><defs><clipPath id="clip-path"><rect id="Rectangle_81" data-name="Rectangle 81" width="60" height="60" transform="translate(291 957)" fill="#fff" stroke="#707070" stroke-width="1"></rect></clipPath></defs><g id="Mask_Group_53" data-name="Mask Group 53" transform="translate(-291 -957)" clip-path="url(#clip-path)"><g id="Group_85" data-name="Group 85" transform="translate(-86.19 67.786)"><g id="Group_84" data-name="Group 84" transform="translate(383.19 896.214)"><path id="Path_201" data-name="Path 201" d="M49.319,4.9H23.135a1.12,1.12,0,0,0-1.11,1.11v4.541h-4.49a1.027,1.027,0,0,0-.757.3,1.146,1.146,0,0,0-.3.807v8.779h-.454A1.754,1.754,0,0,0,14.255,22L14,24.173a1.075,1.075,0,0,1-.757.908,1.181,1.181,0,0,1-1.16-.151l-1.665-1.362a1.764,1.764,0,0,0-2.321.1l-2.321,2.22a1.663,1.663,0,0,0-.1,2.321l1.362,1.665a1.141,1.141,0,0,1,.1,1.211,1.157,1.157,0,0,1-.908.757l-2.169.252A1.754,1.754,0,0,0,2.5,33.859v3.178A1.754,1.754,0,0,0,4.064,38.8l2.169.252a1.075,1.075,0,0,1,.908.757,1.181,1.181,0,0,1-.151,1.16L5.628,42.638a1.764,1.764,0,0,0,.1,2.321l2.22,2.22a1.663,1.663,0,0,0,2.321.1l1.665-1.362a1.141,1.141,0,0,1,1.211-.1,1.02,1.02,0,0,1,.706.908l.252,2.169a1.754,1.754,0,0,0,1.766,1.564h3.178a1.754,1.754,0,0,0,1.766-1.564l.252-2.169a1.075,1.075,0,0,1,.757-.908,1.181,1.181,0,0,1,1.16.151l1.665,1.362a1.764,1.764,0,0,0,2.321-.1l1.514-1.514H43.669a1.12,1.12,0,0,0,1.11-1.11v-4.49h4.49a1.12,1.12,0,0,0,1.11-1.11v-33A1.02,1.02,0,0,0,49.319,4.9ZM25.758,45.312,24.4,44.2a3.276,3.276,0,0,0-3.38-.454,3.241,3.241,0,0,0-2.069,2.724l-.2,1.766H16.374l-.2-1.766a3.443,3.443,0,0,0-5.5-2.27l-1.362,1.11L7.646,43.647l1.11-1.362A3.276,3.276,0,0,0,9.21,38.9a3.241,3.241,0,0,0-2.724-2.069l-1.766-.2V34.212l1.766-.2a3.443,3.443,0,0,0,2.27-5.5L7.6,27.149l1.665-1.665,1.362,1.11a3.467,3.467,0,0,0,3.431.454,3.241,3.241,0,0,0,2.069-2.724l.2-1.766h2.371l.2,1.766a3.364,3.364,0,0,0,2.119,2.724,3.26,3.26,0,0,0,3.38-.454l1.362-1.11,1.665,1.665-1.11,1.362a3.39,3.39,0,0,0-.454,3.38,3.241,3.241,0,0,0,2.724,2.069l1.766.2v2.371l-1.766.2a3.443,3.443,0,0,0-2.27,5.5l1.11,1.362Zm3.986-1.867a1.831,1.831,0,0,0-.353-.858l-1.362-1.665a1.141,1.141,0,0,1-.1-1.211,1.157,1.157,0,0,1,.908-.757l2.169-.252a1.754,1.754,0,0,0,1.564-1.766V33.758a1.754,1.754,0,0,0-1.564-1.766l-2.169-.252a1.075,1.075,0,0,1-.908-.757,1.181,1.181,0,0,1,.151-1.16l1.362-1.665a1.764,1.764,0,0,0-.1-2.321l-2.22-2.22a1.663,1.663,0,0,0-2.321-.1l-1.665,1.362a1.141,1.141,0,0,1-1.211.1,1.157,1.157,0,0,1-.757-.908L20.915,21.9a1.754,1.754,0,0,0-1.766-1.564h-.5V12.67h14.53v8.425a1.12,1.12,0,0,0,1.11,1.11h8.325v21.24Zm5.6-29.161L41.1,20.035H35.344Zm12.865,23.51H44.778v-16.7a1.027,1.027,0,0,0-.3-.757l-9.485-9.485a1.073,1.073,0,0,0-.757-.353H24.245V7.069H48.26V37.794Z" transform="translate(-2.5 -4.9)" fill="#1c54f8" stroke="#fff" stroke-width="1"></path><path id="Path_202" data-name="Path 202" d="M26.85,54.4a5.55,5.55,0,1,0,5.55,5.55A5.566,5.566,0,0,0,26.85,54.4Zm0,8.879a3.33,3.33,0,1,1,3.33-3.33A3.359,3.359,0,0,1,26.85,63.279Z" transform="translate(-11.815 -29.426)" fill="#1c54f8" stroke="#fff" stroke-width="1"></path></g></g></g></svg> 