<?xml version="1.0" encoding="UTF-8"?> <svg xmlns="http://www.w3.org/2000/svg" width="60" height="60" viewBox="0 0 60 60" fill="none"><mask id="mask0_5_332" style="mask-type:alpha" maskUnits="userSpaceOnUse" x="0" y="0" width="60" height="60"><rect width="60" height="60" fill="#D9D9D9"></rect></mask><g mask="url(#mask0_5_332)"><path d="M29.9984 29.0715C28.0519 29.0715 26.1491 29.6488 24.5307 30.7302C22.9123 31.8117 21.6509 33.3488 20.9061 35.1472C20.1613 36.9456 19.9665 38.9244 20.3464 40.8335C20.7263 42.7426 21.6638 44.4961 23.0403 45.8724C24.4168 47.2486 26.1706 48.1858 28.0797 48.5653C29.9889 48.9448 31.9677 48.7496 33.7659 48.0044C35.5642 47.2593 37.101 45.9976 38.1822 44.3789C39.2633 42.7603 39.8402 40.8573 39.8398 38.9108C39.8362 36.302 38.7982 33.8011 36.9533 31.9566C35.1084 30.1121 32.6073 29.0745 29.9984 29.0715ZM24.5021 45.2659C25.0434 44.2814 25.8389 43.4601 26.8056 42.8876C27.7723 42.3151 28.8749 42.0124 29.9984 42.011C31.1214 42.0133 32.2233 42.3164 33.1894 42.8888C34.1556 43.4612 34.9507 44.2821 35.4921 45.2659C33.9672 46.5902 32.0155 47.3194 29.9958 47.3194C27.9761 47.3194 26.0243 46.5902 24.4994 45.2659H24.5021ZM27.6296 38.2081C27.6298 37.7396 27.7688 37.2817 28.0292 36.8923C28.2895 36.5028 28.6595 36.1993 29.0924 36.0201C29.5253 35.8409 30.0015 35.7941 30.461 35.8856C30.9205 35.977 31.3425 36.2027 31.6737 36.534C32.0049 36.8653 32.2305 37.2874 32.3218 37.7469C32.4132 38.2064 32.3662 38.6826 32.1869 39.1154C32.0076 39.5482 31.704 39.9182 31.3144 40.1784C30.9249 40.4387 30.4669 40.5776 29.9984 40.5776C29.3703 40.5769 28.7681 40.327 28.324 39.8828C27.8799 39.4385 27.6302 38.8363 27.6296 38.2081ZM36.5322 44.1978C35.6054 42.72 34.2059 41.5992 32.5613 41.0176C33.1277 40.5012 33.5247 39.8255 33.7002 39.0793C33.8756 38.3331 33.8213 37.5513 33.5443 36.8365C33.2674 36.1217 32.7808 35.5074 32.1484 35.0742C31.516 34.641 30.7673 34.4092 30.0008 34.4092C29.2342 34.4092 28.4856 34.641 27.8532 35.0742C27.2208 35.5074 26.7342 36.1217 26.4572 36.8365C26.1803 37.5513 26.126 38.3331 26.3014 39.0793C26.4769 39.8255 26.8739 40.5012 27.4403 41.0176C25.7937 41.5978 24.3922 42.7188 23.4647 44.1978C22.4648 42.9641 21.8349 41.4724 21.6478 39.8954C21.4607 38.3184 21.7241 36.7207 22.4075 35.2873C23.0909 33.8538 24.1663 32.6432 25.5092 31.7957C26.8522 30.9482 28.4078 30.4984 29.9958 30.4984C31.5838 30.4984 33.1394 30.9482 34.4823 31.7957C35.8253 32.6432 36.9007 33.8538 37.5841 35.2873C38.2675 36.7207 38.5309 38.3184 38.3438 39.8954C38.1567 41.4724 37.5267 42.9641 36.5269 44.1978H36.5322ZM46.8929 35.8893L43.236 35.3853C42.9253 34.2176 42.4603 33.0965 41.8532 32.0517L44.0834 29.1089C44.1876 28.9705 44.2383 28.7991 44.226 28.6263C44.2138 28.4536 44.1394 28.291 44.0167 28.1688L40.7458 24.8979C40.6236 24.7749 40.4609 24.7003 40.288 24.6881C40.115 24.6758 39.9434 24.7267 39.8051 24.8312L36.8622 27.0614C35.8176 26.4539 34.6965 25.9887 33.5287 25.678L33.0253 22.0217C33.0016 21.8501 32.9166 21.6928 32.786 21.5789C32.6553 21.4651 32.4879 21.4023 32.3146 21.4024H27.6856C27.5123 21.4022 27.3448 21.4649 27.2141 21.5787C27.0834 21.6926 26.9985 21.85 26.9749 22.0217L26.4716 25.6786C25.3038 25.9892 24.1827 26.4542 23.138 27.0614L20.1951 24.8312C20.0567 24.7269 19.8852 24.6762 19.7123 24.6885C19.5394 24.7007 19.3768 24.7751 19.2544 24.8979L15.9835 28.1695C15.8607 28.2916 15.7862 28.4542 15.774 28.627C15.7617 28.7998 15.8125 28.9712 15.9169 29.1095L18.147 32.0524C17.54 33.0972 17.075 34.2182 16.7643 35.3859L13.1073 35.89C12.9357 35.9135 12.7784 35.9984 12.6646 36.1289C12.5507 36.2594 12.488 36.4268 12.488 36.6V41.2263C12.488 41.3996 12.5507 41.567 12.6645 41.6977C12.7784 41.8283 12.9357 41.9133 13.1073 41.937L16.7643 42.4404C17.0747 43.6082 17.5397 44.7293 18.147 45.7739L15.9169 48.7168C15.8124 48.8552 15.7616 49.0267 15.7739 49.1997C15.7861 49.3726 15.8606 49.5353 15.9835 49.6575L19.2544 52.9284C19.3768 53.0512 19.5394 53.1256 19.7123 53.1378C19.8852 53.1501 20.0567 53.0994 20.1951 52.9951L23.138 50.7643C24.1827 51.3718 25.3038 51.8373 26.4716 52.1484L26.9749 55.8046C26.9986 55.9763 27.0836 56.1336 27.2143 56.2474C27.3449 56.3613 27.5123 56.424 27.6856 56.424H32.3113C32.4846 56.424 32.652 56.3613 32.7826 56.2474C32.9133 56.1336 32.9983 55.9763 33.022 55.8046L33.5253 52.1477C34.6933 51.8373 35.8144 51.372 36.8589 50.7643L39.8018 52.9951C39.9402 53.0994 40.1117 53.1501 40.2846 53.1378C40.4575 53.1256 40.6201 53.0512 40.7425 52.9284L44.0134 49.6575C44.1363 49.5353 44.2107 49.3726 44.223 49.1997C44.2353 49.0267 44.1845 48.8552 44.08 48.7168L41.8506 45.7779C42.4577 44.7332 42.9227 43.6121 43.2333 42.4444L46.8902 41.941C47.0619 41.9174 47.2192 41.8323 47.333 41.7017C47.4469 41.571 47.5096 41.4036 47.5096 41.2303V36.5993C47.5096 36.4261 47.4468 36.2588 47.333 36.1282C47.2191 35.9977 47.0618 35.9128 46.8902 35.8893H46.8929ZM46.0775 40.6003L42.5586 41.0856C42.4145 41.106 42.28 41.1696 42.1729 41.2681C42.0657 41.3665 41.991 41.4952 41.9586 41.637C41.6529 42.9841 41.1199 44.2692 40.3825 45.4373C40.305 45.5607 40.2668 45.7048 40.2732 45.8505C40.2795 45.9961 40.3299 46.1363 40.4178 46.2526L42.5646 49.0855L40.1778 51.4723L37.3449 49.3255C37.2288 49.2373 37.0885 49.1866 36.9428 49.1803C36.797 49.174 36.6529 49.2123 36.5295 49.2902C35.3616 50.0277 34.0764 50.5607 32.7293 50.8663C32.5874 50.8985 32.4586 50.9732 32.3601 51.0804C32.2617 51.1876 32.1981 51.3222 32.1779 51.4663L31.6932 54.9859H28.3103L27.8256 51.467C27.8055 51.3228 27.742 51.1882 27.6435 51.081C27.545 50.9738 27.4162 50.8991 27.2743 50.8669C25.9272 50.5609 24.6421 50.0277 23.474 49.2902C23.3506 49.2127 23.2065 49.1746 23.0608 49.1809C22.9152 49.1872 22.7749 49.2376 22.6586 49.3255L19.8258 51.4723L17.439 49.0855L19.5858 46.2526C19.6737 46.1364 19.7242 45.996 19.7304 45.8504C19.7365 45.7047 19.6982 45.5606 19.6204 45.4373C18.8834 44.2691 18.3506 42.984 18.045 41.637C18.0126 41.4952 17.9378 41.3665 17.8307 41.2681C17.7235 41.1696 17.589 41.106 17.445 41.0856L13.9261 40.6003V37.2247L17.445 36.74C17.5892 36.7197 17.7238 36.656 17.8309 36.5574C17.9381 36.4588 18.0128 36.33 18.045 36.188C18.3504 34.8408 18.8835 33.5556 19.6211 32.3877C19.6986 32.2643 19.7367 32.1202 19.7304 31.9745C19.7241 31.8289 19.6737 31.6886 19.5858 31.5723L17.439 28.7395L19.8258 26.3527L22.6586 28.4995C22.7749 28.5874 22.9152 28.6379 23.0609 28.6441C23.2066 28.6503 23.3507 28.6119 23.474 28.5342C24.6422 27.7972 25.9273 27.2645 27.2743 26.9587C27.4162 26.9264 27.5449 26.8518 27.6434 26.7446C27.7419 26.6374 27.8055 26.5028 27.8256 26.3587L28.3103 22.8391H31.6866L32.1713 26.3587C32.1913 26.5029 32.2549 26.6375 32.3534 26.7447C32.4519 26.8519 32.5807 26.9265 32.7226 26.9587C34.0696 27.2647 35.3547 27.7977 36.5229 28.5348C36.6462 28.6126 36.7903 28.6509 36.936 28.6447C37.0816 28.6385 37.222 28.5881 37.3383 28.5001L40.1711 26.3533L42.5579 28.7402L40.4111 31.573C40.3232 31.6893 40.2727 31.8296 40.2665 31.9753C40.2603 32.121 40.2987 32.2651 40.3765 32.3884C41.1135 33.5566 41.6462 34.8417 41.9519 36.1886C41.9841 36.3307 42.0588 36.4595 42.166 36.5581C42.2731 36.6567 42.4077 36.7204 42.5519 36.7407L46.0708 37.2254L46.0775 40.6003ZM13.042 26.3033L12.1633 21.713L15.5722 18.5128C15.6714 18.4197 15.7421 18.3003 15.776 18.1685C15.81 18.0367 15.8057 17.898 15.7638 17.7686C15.7218 17.6391 15.6439 17.5243 15.5392 17.4374C15.4344 17.3506 15.3071 17.2953 15.1721 17.2781L10.5345 16.6954L8.54772 12.4651C8.48962 12.342 8.39773 12.2379 8.28276 12.1651C8.16779 12.0922 8.03446 12.0535 7.89834 12.0535C7.76222 12.0535 7.62889 12.0922 7.51392 12.1651C7.39895 12.2379 7.30706 12.342 7.24897 12.4651L5.2635 16.698L0.626534 17.2807C0.491554 17.298 0.364259 17.3532 0.259506 17.4401C0.154752 17.527 0.0768604 17.6418 0.0349216 17.7713C-0.00701724 17.9007 -0.0112732 18.0394 0.0226498 18.1712C0.0565729 18.303 0.127276 18.4224 0.226507 18.5155L3.6354 21.7157L2.75334 26.3033C2.72766 26.4371 2.7406 26.5753 2.79066 26.702C2.84072 26.8286 2.92581 26.9384 3.03599 27.0184C3.14616 27.0984 3.27686 27.1454 3.41277 27.1538C3.54868 27.1623 3.68418 27.1318 3.80341 27.0661L7.89767 24.8119L11.9919 27.0661C12.1112 27.1318 12.2467 27.1623 12.3826 27.1538C12.5185 27.1454 12.6492 27.0984 12.7594 27.0184C12.8695 26.9384 12.9546 26.8286 13.0047 26.702C13.0547 26.5753 13.0677 26.4371 13.042 26.3033ZM10.6805 21.5944L11.3472 25.0733L8.2437 23.3651C8.13765 23.307 8.01864 23.2765 7.89767 23.2765C7.77671 23.2765 7.6577 23.307 7.55165 23.3651L4.44878 25.0733L5.11549 21.5944C5.13829 21.4757 5.13069 21.3532 5.09338 21.2382C5.05608 21.1233 4.99029 21.0197 4.90215 20.937L2.31798 18.5135L5.83221 18.0721C5.95214 18.0569 6.06629 18.0117 6.16408 17.9406C6.26186 17.8695 6.34011 17.7748 6.39158 17.6654L7.89767 14.4599L9.40377 17.6654C9.45534 17.7749 9.53371 17.8695 9.63161 17.9406C9.72951 18.0117 9.84377 18.057 9.96381 18.0721L13.4774 18.5135L10.8945 20.937C10.8063 21.0196 10.7404 21.1232 10.703 21.2382C10.6656 21.3531 10.6579 21.4756 10.6805 21.5944ZM59.9651 17.9455C59.923 17.8159 59.845 17.701 59.74 17.6142C59.635 17.5274 59.5075 17.4723 59.3724 17.4554L54.7334 16.8727L52.7486 12.6424C52.6905 12.5193 52.5986 12.4153 52.4836 12.3424C52.3687 12.2695 52.2353 12.2308 52.0992 12.2308C51.9631 12.2308 51.8298 12.2695 51.7148 12.3424C51.5998 12.4153 51.5079 12.5193 51.4498 12.6424L49.463 16.8727L44.8254 17.4554C44.6903 17.4724 44.5628 17.5275 44.4579 17.6144C44.3529 17.7012 44.2749 17.8161 44.2329 17.9457C44.191 18.0752 44.1868 18.2141 44.2209 18.3459C44.2549 18.4778 44.3259 18.5972 44.4254 18.6902L47.8343 21.8904L46.9556 26.4807C46.9303 26.6143 46.9434 26.7523 46.9935 26.8786C47.0437 27.005 47.1287 27.1145 47.2386 27.1945C47.3486 27.2744 47.479 27.3214 47.6147 27.3301C47.7504 27.3388 47.8857 27.3087 48.005 27.2434L52.0992 24.9893L56.1935 27.2434C56.3128 27.3092 56.4483 27.3397 56.5843 27.3313C56.7203 27.3228 56.8511 27.2758 56.9613 27.1956C57.0715 27.1155 57.1566 27.0057 57.2066 26.8789C57.2566 26.7522 57.2694 26.6138 57.2436 26.48L56.3648 21.8897L59.7737 18.6895C59.8729 18.5964 59.9435 18.477 59.9774 18.3453C60.0113 18.2135 60.007 18.0749 59.9651 17.9455ZM55.0981 21.111C55.01 21.1938 54.9442 21.2976 54.9069 21.4126C54.8696 21.5277 54.862 21.6503 54.8847 21.769L55.5514 25.2479L52.4492 23.5398C52.3433 23.4815 52.2242 23.4509 52.1032 23.4509C51.9822 23.4509 51.8632 23.4815 51.7572 23.5398L48.6543 25.2479L49.321 21.769C49.3436 21.6502 49.3359 21.5276 49.2984 21.4126C49.261 21.2975 49.1952 21.1938 49.107 21.111L46.5235 18.6882L50.0378 18.2461C50.1577 18.2311 50.272 18.186 50.3699 18.115C50.4678 18.044 50.5462 17.9495 50.5978 17.8401L52.1039 14.6339L53.6053 17.8428C53.6568 17.9521 53.7351 18.0466 53.8329 18.1176C53.9307 18.1886 54.0448 18.2337 54.1647 18.2488L57.6789 18.6908L55.0981 21.111ZM25.7315 12.6538L24.8541 17.2427C24.8284 17.3765 24.8414 17.5148 24.8914 17.6414C24.9415 17.768 25.0266 17.8778 25.1368 17.9578C25.2469 18.0378 25.3776 18.0848 25.5135 18.0933C25.6495 18.1017 25.785 18.0712 25.9042 18.0055L29.9984 15.7526L34.0927 18.0068C34.2121 18.0727 34.3477 18.1032 34.4838 18.0947C34.6198 18.0863 34.7507 18.0392 34.8609 17.9589C34.9711 17.8787 35.0562 17.7688 35.1061 17.6419C35.1561 17.515 35.1688 17.3766 35.1428 17.2427L34.2654 12.6538L37.6743 9.45357C37.7735 9.36046 37.8442 9.24105 37.8781 9.10927C37.9121 8.97749 37.9078 8.83878 37.8659 8.70933C37.8239 8.57988 37.746 8.46503 37.6413 8.37817C37.5365 8.29132 37.4092 8.23606 37.2743 8.21882L32.6346 7.64212L30.6478 3.41251C30.5899 3.28919 30.4981 3.1849 30.3831 3.11185C30.2681 3.03879 30.1347 3 29.9984 3C29.8622 3 29.7288 3.03879 29.6138 3.11185C29.4988 3.1849 29.407 3.28919 29.3491 3.41251L27.3623 7.64212L22.7246 8.22482C22.5897 8.24206 22.4624 8.29732 22.3576 8.38417C22.2529 8.47103 22.175 8.58588 22.133 8.71533C22.0911 8.84478 22.0868 8.98349 22.1208 9.11527C22.1547 9.24705 22.2254 9.36646 22.3246 9.45957L25.7315 12.6538ZM27.9316 9.01288C28.0516 8.99772 28.1658 8.95249 28.2636 8.88139C28.3614 8.81028 28.4396 8.71562 28.491 8.60618L29.9984 5.40064L31.5045 8.60618C31.556 8.71562 31.6342 8.81028 31.732 8.88139C31.8298 8.95249 31.944 8.99772 32.0639 9.01288L35.5781 9.45424L32.9986 11.8777C32.9104 11.9604 32.8446 12.064 32.8071 12.1789C32.7697 12.2938 32.762 12.4164 32.7846 12.5351L33.4513 16.014L30.3445 14.3092C30.2384 14.251 30.1194 14.2205 29.9984 14.2205C29.8775 14.2205 29.7585 14.251 29.6524 14.3092L26.5496 16.0173L27.2163 12.5384C27.2389 12.4197 27.2312 12.2972 27.1938 12.1822C27.1563 12.0673 27.0905 11.9637 27.0023 11.8811L24.4194 9.45757L27.9316 9.01288Z" fill="#1B54F8" stroke="#1B54F8" stroke-width="0.5"></path></g></svg> 