<?xml version="1.0" encoding="UTF-8"?> <svg xmlns="http://www.w3.org/2000/svg" width="90" height="90" viewBox="0 0 90 90" fill="none"><mask id="mask0_1_110" style="mask-type:luminance" maskUnits="userSpaceOnUse" x="0" y="0" width="90" height="90"><path d="M90 0H0V90H90V0Z" fill="white"></path></mask><g mask="url(#mask0_1_110)"><path d="M59.8 24.8C58.4 24.1 59.5 22 60.9 22.7C70.6 27.9 77.3 37.5 78.6 48.5C78.8 50.1 76.4 50.3 76.3 48.8C75 38.6 68.8 29.6 59.8 24.8ZM64.5 77.4C65 77 65.8 77.1 66.1 77.6C66.5 78.1 66.4 78.8 65.9 79.2C53.5 89 36 89 23.7 79.2C23.2 78.8 23.1 78.1 23.5 77.6C23.9 77.1 24.6 77 25.1 77.4C36.7 86.5 53 86.5 64.5 77.4ZM13.5 48.9C13.3 50.4 11 50.2 11.2 48.6C12.5 37.6 19.2 27.9 28.9 22.8C30.3 22.1 31.4 24.1 30 24.9C21 29.6 14.8 38.6 13.5 48.9ZM78 59.4L79.7 62.7L83.3 63.3C84.3 63.5 84.6 64.6 84 65.3L81.4 67.9L82 71.5C82.1 72.5 81.1001 73.1 80.3 72.7L77 71L73.7 72.7C72.9 73.1 71.8 72.4 72 71.4L72.6 67.8L70 65.2C69.3 64.5 69.7 63.3 70.7 63.2L74.3 62.6L76 59.3C76.3 58.5 77.5 58.6 78 59.4ZM77.8 64.3L76.9 62.5L76 64.3C75.8 64.6 75.5 64.9 75.1 64.9L73.1 65.2C75.2 67.3 75 66.6 74.5 69.6C77.2 68.3 76.4 68.2 79.1 69.6C78.6 66.7 78.4 67.3 80.5 65.2L78.6 64.9C78.4 64.9 78 64.7 77.8 64.3ZM76.9 52.4C84.3 52.4 90.3 58.4 90.3 65.8C90.3 73.2 84.3 79.2 76.9 79.2C69.5 79.2 63.5 73.2 63.5 65.8C63.5 58.4 69.5 52.4 76.9 52.4ZM84.7 58C80.4 53.7 73.4 53.7 69 58C64.7 62.3 64.7 69.3 69 73.7C73.3 78 80.3 78 84.7 73.7C89.1 69.3 89.1 62.3 84.7 58ZM13.9 59.4L15.6 62.7L19.2 63.3C20.2 63.5 20.5 64.6 19.8 65.3L17.2 67.9L17.8 71.5C18 72.5 16.9 73.1 16.1 72.7L12.8 71L9.5 72.7C8.7 73.1 7.60005 72.4 7.80005 71.4L8.40002 67.8L5.80005 65.2C5.10005 64.5 5.5 63.3 6.5 63.2L10.1 62.6L11.8 59.3C12.2 58.5 13.5 58.6 13.9 59.4ZM13.8 64.3L12.9 62.5L12 64.3C11.8 64.6 11.5 64.9 11.1 64.9L9.10004 65.2C11.2 67.3 11 66.6 10.5 69.6C13.2 68.3 12.4 68.2 15.1 69.6C14.6 66.7 14.4 67.3 16.5 65.2L14.6 64.9C14.3 64.9 14 64.7 13.8 64.3ZM12.8 52.4C20.2 52.4 26.2 58.4 26.2 65.8C26.2 73.2 20.2 79.2 12.8 79.2C5.40005 79.2 -0.599976 73.2 -0.599976 65.8C-0.599976 58.4 5.40005 52.4 12.8 52.4ZM20.7 58C16.4 53.7 9.4 53.7 5 58C0.7 62.3 0.7 69.3 5 73.7C9.3 78 16.3 78 20.7 73.7C25 69.3 25 62.3 20.7 58ZM44.9 33C53 33 56.4 43.4 49.9 48.2H52.2C56.2 48.2 59.5 51.5 59.5 55.5V67.7C59.5 68.4 59 68.9 58.3 68.9H31.7C31 68.9 30.5 68.4 30.5 67.7V55.5C30.5 51.5 33.8 48.2 37.8 48.2H40.1C36 45.2 35.5 39.1 39.1 35.5C40.5 33.9 42.6 33 44.9 33ZM49.2 37.1C45.4 33.3 38.9 36 38.9 41.4C38.9 46.8 45.4 49.5 49.2 45.7C51.5 43.3 51.5 39.5 49.2 37.1ZM52.1 50.5H37.7C35 50.5 32.8 52.7 32.8 55.4V66.4H57V55.4C57 52.7 54.8 50.5 52.1 50.5ZM45.9 10L47.6 13.3L51.2 13.9C52.2 14.1 52.5 15.2 51.9 15.9L49.3 18.5L49.9 22.1C50.1 23.1 49 23.7 48.2 23.3L44.9 21.6L41.6 23.3C40.8 23.7 39.7 23 39.9 22L40.5 18.4L37.9 15.8C37.2 15.1 37.6 13.9 38.6 13.8L42.2 13.2L43.9 9.90002C44.3 9.20002 45.5 9.2 45.9 10ZM45.8 15L44.9 13.2L44 15C43.8 15.3 43.5 15.6 43.1 15.6L41.2 15.9C43.3 18 43.1 17.3 42.6 20.3C45.3 19 44.5 18.9 47.2 20.3C46.7 17.4 46.5 18 48.6 15.9L46.7 15.6C46.3 15.6 46 15.3 45.8 15ZM44.9 3C52.3 3 58.3 9.00002 58.3 16.4C58.3 23.8 52.3 29.8 44.9 29.8C37.5 29.8 31.5 23.8 31.5 16.4C31.5 9.00002 37.5 3 44.9 3ZM52.7 8.60004C48.4 4.30004 41.4 4.30004 37 8.60004C32.7 12.9 32.7 19.9 37 24.3C41.3 28.6 48.3 28.6 52.7 24.3C57.1 20 57.1 13 52.7 8.60004Z" fill="#1B54F8"></path></g></svg> 