<?xml version="1.0" encoding="UTF-8"?> <svg xmlns="http://www.w3.org/2000/svg" width="90" height="90" viewBox="0 0 90 90" fill="none"><mask id="mask0_1_123" style="mask-type:luminance" maskUnits="userSpaceOnUse" x="0" y="0" width="90" height="90"><path d="M90 0H0V90H90V0Z" fill="white"></path></mask><g mask="url(#mask0_1_123)"><path d="M39.3 22.5L38 28.2C37.9 28.7 38.1 29.3 38.5 29.6C38.9 29.9 39.5 29.9 40 29.7L45 26.7L50 29.7C50.2 29.8 50.5 29.9 50.7 29.9C51 29.9 51.3 29.8 51.5 29.6C51.9 29.3 52.1 28.7 52 28.2L50.7 22.5L55.1 18.7C55.5 18.3 55.7 17.8 55.5 17.3C55.3 16.8 54.9 16.4 54.3 16.4L48.5 15.9L46.2 10.6C46 10.1 45.5 9.79999 45 9.79999C44.5 9.79999 44 10.1 43.8 10.6L41.5 15.9L35.7 16.4C35.2 16.4 34.7 16.8 34.5 17.3C34.3 17.8 34.5 18.4 34.9 18.7L39.3 22.5ZM42.5 18.3C43 18.3 43.4 17.9 43.6 17.5L45 14.3L46.4 17.5C46.6 18 47 18.3 47.5 18.3L50.9 18.6L48.3 20.9C47.9 21.2 47.8 21.7 47.9 22.2L48.7 25.6L45.7 23.8C45.5 23.7 45.2 23.6 45 23.6C44.8 23.6 44.5 23.7 44.3 23.8L41.3 25.6L42.1 22.2C42.2 21.7 42 21.2 41.7 20.9L39.1 18.6L42.5 18.3ZM52.7 53.3C54.7 51.3 56 48.5 56 45.5C56 39.5 51 34.6 44.9 34.6C38.8 34.6 33.8 39.5 33.8 45.5C33.8 48.6 35.1 51.3 37.1 53.3C34.7 54.2 32.6 55.7 31 57.6C28.7 60.3 27.4 63.8 27.4 67.3V74.2C27.4 75.4 28.4 76.4 29.6 76.4H60.2C61.4 76.4 62.4 75.4 62.4 74.2V67.3C62.4 63.7 61.1 60.3 58.8 57.6C57.2 55.7 55.1 54.2 52.7 53.3ZM36.6 45.5C36.6 41 40.4 37.3 45 37.3C49.6 37.3 53.4 41 53.4 45.5C53.4 50 49.6 53.7 45 53.7C40.4 53.8 36.6 50.1 36.6 45.5ZM59.8 73.8H30.3V67.4C30.3 61.5 34.4 56.5 40.1 55.3C41.6 56 43.3 56.5 45 56.5C46.8 56.5 48.5 56.1 49.9 55.3C55.6 56.5 59.7 61.5 59.7 67.4V73.8H59.8ZM28 39.6L26.7 33.9L31.1 30.1C31.5 29.7 31.7 29.2 31.5 28.7C31.3 28.2 30.9 27.8 30.3 27.8L24.5 27.3L22.2 22C22 21.5 21.5 21.2 21 21.2C20.5 21.2 20 21.5 19.8 22L17.5 27.3L11.7 27.8C11.2 27.9 10.7 28.2 10.5 28.7C10.3 29.2 10.5 29.8 10.9 30.1L15.3 33.9L14 39.6C13.9 40.1 14.1 40.7 14.5 41C14.9 41.3 15.5 41.3 16 41.1L21 38.1L26 41.1C26.2 41.2 26.5 41.3 26.7 41.3C27 41.3 27.3 41.2 27.5 41C28 40.7 28.2 40.1 28 39.6ZM24.4 32.5C24 32.8 23.9 33.3 24 33.8L24.8 37.2L21.8 35.4C21.6 35.3 21.3 35.2 21.1 35.2C20.9 35.2 20.6 35.3 20.4 35.4L17.4 37.2L18.2 33.8C18.3 33.3 18.1 32.8 17.8 32.5L15.2 30.2L18.6 29.9C19.1 29.9 19.5 29.5 19.7 29.1L21.1 25.9L22.5 29.1C22.7 29.6 23.1 29.9 23.6 29.9L27 30.2L24.4 32.5ZM18.9 51.7L13.1 51.2L10.8 45.9C10.6 45.4 10.1 45.1 9.60001 45.1C9.10001 45.1 8.59999 45.4 8.39999 45.9L6.10001 51.2L0.299989 51.7C-0.200011 51.7 -0.699993 52.1 -0.899993 52.6C-1.09999 53.1 -0.899999 53.7 -0.499999 54L3.9 57.8L2.60001 63.5C2.50001 64 2.70001 64.6 3.10001 64.9C3.50001 65.2 4.10001 65.2 4.60001 65L9.60001 62L14.6 65C14.8 65.1 15.1 65.2 15.3 65.2C15.6 65.2 15.9 65.1 16.1 64.9C16.5 64.6 16.7 64 16.6 63.5L15.3 57.8L19.7 54C20.1 53.6 20.3 53.1 20.1 52.6C19.9 52.1 19.4 51.8 18.9 51.7ZM12.9 56.4C12.5 56.7 12.4 57.2 12.5 57.7L13.3 61.1L10.3 59.3C10.1 59.2 9.80001 59.1 9.60001 59.1C9.40001 59.1 9.09999 59.2 8.89999 59.3L5.9 61.1L6.70001 57.7C6.80001 57.2 6.59999 56.7 6.29999 56.4L3.70001 54.1L7.10001 53.8C7.60001 53.8 8.00001 53.4 8.20001 53L9.60001 49.8L11 53C11.2 53.5 11.6 53.8 12.1 53.8L15.5 54.1L12.9 56.4ZM74.6 41.3C74.9 41.3 75.2 41.2 75.4 41C75.8 40.7 76 40.1 75.9 39.6L74.6 33.9L79 30.1C79.4 29.7 79.6 29.2 79.4 28.7C79.2 28.2 78.8 27.8 78.2 27.8L72.4 27.3L70.1 22C69.9 21.5 69.4 21.2 68.9 21.2C68.4 21.2 67.9 21.5 67.7 22L65.4 27.3L59.6 27.8C59.1 27.9 58.6 28.2 58.4 28.7C58.2 29.2 58.4 29.8 58.8 30.1L63.2 33.9L61.9 39.6C61.8 40.1 62 40.7 62.4 41C62.8 41.3 63.4 41.3 63.9 41.1L68.9 38.1L73.9 41.1C74.1 41.2 74.4 41.3 74.6 41.3ZM69.6 35.4C69.4 35.3 69.1 35.2 68.9 35.2C68.7 35.2 68.4 35.3 68.2 35.4L65.2 37.2L66 33.8C66.1 33.3 65.9 32.8 65.6 32.5L63 30.2L66.4 29.9C66.9 29.9 67.3 29.5 67.5 29.1L68.9 25.9L70.3 29.1C70.5 29.6 70.9 29.9 71.4 29.9L74.8 30.2L72.2 32.5C71.8 32.8 71.7 33.3 71.8 33.8L72.6 37.2L69.6 35.4ZM90.9 52.6C90.7 52.1 90.3 51.7 89.7 51.7L83.9 51.2L81.6 45.9C81.4 45.4 80.9 45.1 80.4 45.1C79.9 45.1 79.4 45.4 79.2 45.9L76.9 51.2L71.1 51.7C70.6 51.8 70.1 52.1 69.9 52.6C69.7 53.1 69.9 53.7 70.3 54L74.7 57.8L73.4 63.5C73.3 64 73.5 64.6 73.9 64.9C74.3 65.2 74.9 65.2 75.4 65L80.4 62L85.4 65C85.6 65.1 85.9 65.2 86.1 65.2C86.4 65.2 86.7 65.1 86.9 64.9C87.3 64.6 87.5 64 87.4 63.5L86.1 57.8L90.5 54C90.9 53.7 91.1 53.1 90.9 52.6ZM83.8 56.4C83.4 56.7 83.3 57.2 83.4 57.7L84.2 61.1L81.2 59.3C81 59.2 80.7 59.1 80.5 59.1C80.3 59.1 80 59.2 79.8 59.3L76.8 61.1L77.6 57.7C77.7 57.2 77.5 56.7 77.2 56.4L74.6 54.1L78 53.8C78.5 53.8 78.9 53.4 79.1 53L80.5 49.8L81.9 53C82.1 53.5 82.5 53.8 83 53.8L86.4 54.1L83.8 56.4Z" fill="#1B54F8"></path></g></svg> 