<?xml version="1.0" encoding="UTF-8"?> <svg xmlns="http://www.w3.org/2000/svg" xmlns:xlink="http://www.w3.org/1999/xlink" width="90" height="90" viewBox="0 0 90 90"><defs><clipPath id="clip-path"><rect id="Rectangle_12" data-name="Rectangle 12" width="90" height="90" transform="translate(122.358 176.57)" fill="none"></rect></clipPath></defs><g id="Group_24" data-name="Group 24" transform="translate(-122.358 -176.57)"><g id="Group_23" data-name="Group 23" clip-path="url(#clip-path)"><path id="Path_25" data-name="Path 25" d="M158.673,237.543h.6a10.822,10.822,0,0,1-2.075-15.163,10.946,10.946,0,0,1,1.119-1.258,11.592,11.592,0,0,1,16.049,0,10.8,10.8,0,0,1,.324,15.267q-.159.165-.324.323a11.464,11.464,0,0,1-.949.827H174a9.128,9.128,0,0,1,7.3,3.514,9.253,9.253,0,0,1,1.9,7.862l-1.771,8.65a9.352,9.352,0,0,1-9.2,7.547H160.45a9.312,9.312,0,0,1-5.959-2.124,9.456,9.456,0,0,1-3.247-5.427l-1.771-8.651a9.566,9.566,0,0,1,5.143-10.472,9.23,9.23,0,0,1,4.057-.9Zm40.24-25.117,3.927,6.745,7.48,1.281a1.2,1.2,0,0,1,1,1.377l0,.013a1.166,1.166,0,0,1-.38.68l-5.374,5.7,1.059,7.314a1.2,1.2,0,0,1-1.039,1.345l-.012,0a1.271,1.271,0,0,1-.74-.122l-7.274-3.217-6.833,3.236a1.259,1.259,0,0,1-1.65-.554,1.2,1.2,0,0,1-.11-.719l.9-7.727-5.273-5.311a1.168,1.168,0,0,1-.01-1.652l.04-.039a1.256,1.256,0,0,1,.655-.317l7.855-1.555,3.567-6.516a1.257,1.257,0,0,1,1.671-.5,1.236,1.236,0,0,1,.536.544Zm2.073,8.419-3.152-5.408-2.791,5.083a1.21,1.21,0,0,1-.84.612l-6.274,1.24,4.083,4.111a1.171,1.171,0,0,1,.374,1l-.72,6.176,5.329-2.522a1.261,1.261,0,0,1,1.051-.01l5.827,2.576-.826-5.71a1.169,1.169,0,0,1,.316-.972l4.321-4.582-5.843-1v-.005a1.217,1.217,0,0,1-.86-.588Zm-64.991-8.416,3.932,6.745,7.48,1.278a1.211,1.211,0,0,1,1.005,1.388,1.2,1.2,0,0,1-.385.68l-5.373,5.7,1.059,7.314a1.211,1.211,0,0,1-1.055,1.347h0a1.248,1.248,0,0,1-.735-.126l-7.28-3.217-6.833,3.236a1.251,1.251,0,0,1-1.645-.554,1.134,1.134,0,0,1-.111-.719l.9-7.727-5.274-5.306a1.172,1.172,0,0,1,0-1.658l.034-.033a1.235,1.235,0,0,1,.651-.316l7.855-1.556,3.567-6.516a1.258,1.258,0,0,1,1.671-.5,1.209,1.209,0,0,1,.535.544m2.076,8.416-3.152-5.408-2.791,5.083a1.211,1.211,0,0,1-.841.612l-6.274,1.24,4.086,4.111a1.183,1.183,0,0,1,.375,1l-.726,6.176,5.334-2.522a1.261,1.261,0,0,1,1.051-.01l5.823,2.576-.825-5.71h.005a1.167,1.167,0,0,1,.31-.972l4.322-4.582-5.843-1v-.005a1.2,1.2,0,0,1-.855-.588Zm28.27-33.37a8.677,8.677,0,0,1,6.049,2.435,8.141,8.141,0,0,1,.232,11.509c-.076.078-.154.156-.232.231a8.723,8.723,0,0,1-12.092,0,8.137,8.137,0,0,1-.235-11.5c.077-.08.155-.158.235-.235a8.65,8.65,0,0,1,6.043-2.435m4.3,4.131a6.2,6.2,0,0,0-8.6,0,5.783,5.783,0,0,0-.173,8.176c.057.059.115.116.173.173a6.206,6.206,0,0,0,8.6,0,5.782,5.782,0,0,0,.173-8.176c-.056-.059-.114-.117-.173-.173m-.273-10.55a16.311,16.311,0,0,1,1.976.651,15.11,15.11,0,0,1,1.866.9l2.357-1.167a1.258,1.258,0,0,1,1.431.219l2.878,2.8a1.177,1.177,0,0,1,.205,1.438l-1.168,2.245a15.466,15.466,0,0,1,1.6,3.727l2.511.8a1.192,1.192,0,0,1,.85,1.215v3.878a1.194,1.194,0,0,1-.85,1.137v0l-2.511.792a15.57,15.57,0,0,1-1.6,3.732l1.2,2.289a1.171,1.171,0,0,1-.23,1.39l-2.886,2.8a1.26,1.26,0,0,1-1.476.2l-2.31-1.146a15.365,15.365,0,0,1-1.87.9,15.754,15.754,0,0,1-1.972.652l-.815,2.439a1.236,1.236,0,0,1-1.251.826h-4a1.235,1.235,0,0,1-1.171-.826l-.815-2.439a16.157,16.157,0,0,1-1.977-.652,15.022,15.022,0,0,1-1.866-.9l-2.357,1.166a1.259,1.259,0,0,1-1.435-.219l-2.882-2.8a1.172,1.172,0,0,1-.2-1.434l1.173-2.245a15.36,15.36,0,0,1-.926-1.817,15.041,15.041,0,0,1-.673-1.915l-2.511-.792a1.2,1.2,0,0,1-.846-1.219V193.8a1.2,1.2,0,0,1,.851-1.138l2.516-.8a14.539,14.539,0,0,1,.665-1.914,14.8,14.8,0,0,1,.926-1.813l-1.2-2.292a1.175,1.175,0,0,1,.225-1.39l2.882-2.8a1.265,1.265,0,0,1,1.481-.2l2.309,1.147a14.836,14.836,0,0,1,1.868-.9,16.383,16.383,0,0,1,1.977-.651l.815-2.439a1.23,1.23,0,0,1,1.171-.827h4.072a1.23,1.23,0,0,1,1.2.9Zm1.031,2.862a13.7,13.7,0,0,0-2.251-.68,1.215,1.215,0,0,1-.911-.8l-.755-2.25H165.2l-.735,2.2a1.216,1.216,0,0,1-.931.856,13.645,13.645,0,0,0-2.246.68,13.29,13.29,0,0,0-2.036,1.034,1.26,1.26,0,0,1-1.281.091l-2.171-1.073-1.616,1.565,1.106,2.108a1.172,1.172,0,0,1-.061,1.187,12.437,12.437,0,0,0-1.8,4.218,1.21,1.21,0,0,1-.826.889l-2.316.73v2.213l2.261.714a1.216,1.216,0,0,1,.881.9,12.62,12.62,0,0,0,.7,2.181,13.107,13.107,0,0,0,1.067,1.984,1.164,1.164,0,0,1,.1,1.243l-1.106,2.11,1.616,1.564,2.171-1.067a1.271,1.271,0,0,1,1.226.063,13.091,13.091,0,0,0,2.091,1.064,13.552,13.552,0,0,0,2.246.68,1.226,1.226,0,0,1,.915.8l.751,2.256h2.282l.735-2.2a1.224,1.224,0,0,1,.931-.856,13.551,13.551,0,0,0,2.246-.68,13.274,13.274,0,0,0,2.041-1.03,1.272,1.272,0,0,1,1.281-.1l2.171,1.074,1.612-1.565-1.106-2.109a1.17,1.17,0,0,1,.064-1.191,12.593,12.593,0,0,0,1.1-2.036,12.274,12.274,0,0,0,.7-2.182,1.21,1.21,0,0,1,.825-.884l2.322-.733v-2.214l-2.266-.714a1.224,1.224,0,0,1-.881-.9,12.274,12.274,0,0,0-.7-2.182,12.6,12.6,0,0,0-1.058-1.982,1.172,1.172,0,0,1-.1-1.245l1.1-2.108-1.618-1.569-2.17,1.073a1.266,1.266,0,0,1-1.225-.058,13.738,13.738,0,0,0-2.092-1.069Zm-5.063,53.625h.015a8.976,8.976,0,0,0,6.269-2.527,8.45,8.45,0,0,0,.249-11.948c-.081-.085-.164-.168-.249-.25a9.079,9.079,0,0,0-12.558,0,8.451,8.451,0,0,0-.25,11.948c.082.085.165.168.25.25a8.977,8.977,0,0,0,6.274,2.527m.015,2.4h-7.675a6.724,6.724,0,0,0-2.967.652,6.865,6.865,0,0,0-2.391,1.934,7.1,7.1,0,0,0-1.4,2.791,7.28,7.28,0,0,0-.025,3.144l1.775,8.645a7.07,7.07,0,0,0,2.412,4.062,6.827,6.827,0,0,0,4.368,1.555h11.782a6.826,6.826,0,0,0,4.367-1.555,7.057,7.057,0,0,0,2.411-4.067l1.771-8.64a7.16,7.16,0,0,0-3.807-7.868,6.752,6.752,0,0,0-2.972-.651Z" fill="#1a53f6"></path><path id="Path_26" data-name="Path 26" d="M158.673,237.543h.6a10.822,10.822,0,0,1-2.075-15.163,10.946,10.946,0,0,1,1.119-1.258,11.592,11.592,0,0,1,16.049,0,10.8,10.8,0,0,1,.324,15.267q-.159.165-.324.323a11.464,11.464,0,0,1-.949.827H174a9.128,9.128,0,0,1,7.3,3.514,9.253,9.253,0,0,1,1.9,7.862l-1.771,8.65a9.352,9.352,0,0,1-9.2,7.547H160.45a9.312,9.312,0,0,1-5.959-2.124,9.456,9.456,0,0,1-3.247-5.427l-1.771-8.651a9.566,9.566,0,0,1,5.143-10.472,9.23,9.23,0,0,1,4.057-.9Zm40.24-25.117,3.927,6.745,7.48,1.281a1.2,1.2,0,0,1,1,1.377l0,.013a1.166,1.166,0,0,1-.38.68l-5.374,5.7,1.059,7.314a1.2,1.2,0,0,1-1.039,1.345l-.012,0a1.271,1.271,0,0,1-.74-.122l-7.274-3.217-6.833,3.236a1.259,1.259,0,0,1-1.65-.554,1.2,1.2,0,0,1-.11-.719l.9-7.727-5.273-5.311a1.168,1.168,0,0,1-.01-1.652l.04-.039a1.256,1.256,0,0,1,.655-.317l7.855-1.555,3.567-6.516a1.257,1.257,0,0,1,1.671-.5,1.236,1.236,0,0,1,.536.544Zm2.073,8.419-3.152-5.408-2.791,5.083a1.21,1.21,0,0,1-.84.612l-6.274,1.24,4.083,4.111a1.171,1.171,0,0,1,.374,1l-.72,6.176,5.329-2.522a1.261,1.261,0,0,1,1.051-.01l5.827,2.576-.826-5.71a1.169,1.169,0,0,1,.316-.972l4.321-4.582-5.843-1v-.005a1.217,1.217,0,0,1-.86-.588Zm-64.991-8.416,3.932,6.745,7.48,1.278a1.211,1.211,0,0,1,1.005,1.388,1.2,1.2,0,0,1-.385.68l-5.373,5.7,1.059,7.314a1.211,1.211,0,0,1-1.055,1.347h0a1.248,1.248,0,0,1-.735-.126l-7.28-3.217-6.833,3.236a1.251,1.251,0,0,1-1.645-.554,1.134,1.134,0,0,1-.111-.719l.9-7.727-5.274-5.306a1.172,1.172,0,0,1,0-1.658l.034-.033a1.235,1.235,0,0,1,.651-.316l7.855-1.556,3.567-6.516a1.258,1.258,0,0,1,1.671-.5A1.209,1.209,0,0,1,135.995,212.429Zm2.076,8.416-3.152-5.408-2.791,5.083a1.211,1.211,0,0,1-.841.612l-6.274,1.24,4.086,4.111a1.183,1.183,0,0,1,.375,1l-.726,6.176,5.334-2.522a1.261,1.261,0,0,1,1.051-.01l5.823,2.576-.825-5.71h.005a1.167,1.167,0,0,1,.31-.972l4.322-4.582-5.843-1v-.005a1.2,1.2,0,0,1-.855-.588Zm28.27-33.37a8.677,8.677,0,0,1,6.049,2.435,8.141,8.141,0,0,1,.232,11.509c-.076.078-.154.156-.232.231a8.723,8.723,0,0,1-12.092,0,8.137,8.137,0,0,1-.235-11.5c.077-.08.155-.158.235-.235A8.65,8.65,0,0,1,166.341,187.475Zm4.3,4.131a6.2,6.2,0,0,0-8.6,0,5.783,5.783,0,0,0-.173,8.176c.057.059.115.116.173.173a6.206,6.206,0,0,0,8.6,0,5.782,5.782,0,0,0,.173-8.176C170.755,191.72,170.7,191.662,170.638,191.606Zm-.273-10.55a16.311,16.311,0,0,1,1.976.651,15.11,15.11,0,0,1,1.866.9l2.357-1.167a1.258,1.258,0,0,1,1.431.219l2.878,2.8a1.177,1.177,0,0,1,.205,1.438l-1.168,2.245a15.466,15.466,0,0,1,1.6,3.727l2.511.8a1.192,1.192,0,0,1,.85,1.215v3.878a1.194,1.194,0,0,1-.85,1.137v0l-2.511.792a15.57,15.57,0,0,1-1.6,3.732l1.2,2.289a1.171,1.171,0,0,1-.23,1.39l-2.886,2.8a1.26,1.26,0,0,1-1.476.2l-2.31-1.146a15.365,15.365,0,0,1-1.87.9,15.754,15.754,0,0,1-1.972.652l-.815,2.439a1.236,1.236,0,0,1-1.251.826h-4a1.235,1.235,0,0,1-1.171-.826l-.815-2.439a16.157,16.157,0,0,1-1.977-.652,15.022,15.022,0,0,1-1.866-.9l-2.357,1.166a1.259,1.259,0,0,1-1.435-.219l-2.882-2.8a1.172,1.172,0,0,1-.2-1.434l1.173-2.245a15.36,15.36,0,0,1-.926-1.817,15.041,15.041,0,0,1-.673-1.915l-2.511-.792a1.2,1.2,0,0,1-.846-1.219V193.8a1.2,1.2,0,0,1,.851-1.138l2.516-.8a14.539,14.539,0,0,1,.665-1.914,14.8,14.8,0,0,1,.926-1.813l-1.2-2.292a1.175,1.175,0,0,1,.225-1.39l2.882-2.8a1.265,1.265,0,0,1,1.481-.2l2.309,1.147a14.836,14.836,0,0,1,1.868-.9,16.383,16.383,0,0,1,1.977-.651l.815-2.439a1.23,1.23,0,0,1,1.171-.827h4.072a1.23,1.23,0,0,1,1.2.9Zm1.031,2.862a13.7,13.7,0,0,0-2.251-.68,1.215,1.215,0,0,1-.911-.8l-.755-2.25H165.2l-.735,2.2a1.216,1.216,0,0,1-.931.856,13.645,13.645,0,0,0-2.246.68,13.29,13.29,0,0,0-2.036,1.034,1.26,1.26,0,0,1-1.281.091l-2.171-1.073-1.616,1.565,1.106,2.108a1.172,1.172,0,0,1-.061,1.187,12.437,12.437,0,0,0-1.8,4.218,1.21,1.21,0,0,1-.826.889l-2.316.73v2.213l2.261.714a1.216,1.216,0,0,1,.881.9,12.62,12.62,0,0,0,.7,2.181,13.107,13.107,0,0,0,1.067,1.984,1.164,1.164,0,0,1,.1,1.243l-1.106,2.11,1.616,1.564,2.171-1.067a1.271,1.271,0,0,1,1.226.063,13.091,13.091,0,0,0,2.091,1.064,13.552,13.552,0,0,0,2.246.68,1.226,1.226,0,0,1,.915.8l.751,2.256h2.282l.735-2.2a1.224,1.224,0,0,1,.931-.856,13.551,13.551,0,0,0,2.246-.68,13.274,13.274,0,0,0,2.041-1.03,1.272,1.272,0,0,1,1.281-.1l2.171,1.074,1.612-1.565-1.106-2.109a1.17,1.17,0,0,1,.064-1.191,12.593,12.593,0,0,0,1.1-2.036,12.274,12.274,0,0,0,.7-2.182,1.21,1.21,0,0,1,.825-.884l2.322-.733v-2.214l-2.266-.714a1.224,1.224,0,0,1-.881-.9,12.274,12.274,0,0,0-.7-2.182,12.6,12.6,0,0,0-1.058-1.982,1.172,1.172,0,0,1-.1-1.245l1.1-2.108-1.618-1.569-2.17,1.073a1.266,1.266,0,0,1-1.225-.058,13.738,13.738,0,0,0-2.092-1.069Zm-5.063,53.625h.015a8.976,8.976,0,0,0,6.269-2.527,8.45,8.45,0,0,0,.249-11.948c-.081-.085-.164-.168-.249-.25a9.079,9.079,0,0,0-12.558,0,8.451,8.451,0,0,0-.25,11.948c.082.085.165.168.25.25A8.977,8.977,0,0,0,166.333,237.543Zm.015,2.4h-7.675a6.724,6.724,0,0,0-2.967.652,6.865,6.865,0,0,0-2.391,1.934,7.1,7.1,0,0,0-1.4,2.791,7.28,7.28,0,0,0-.025,3.144l1.775,8.645a7.07,7.07,0,0,0,2.412,4.062,6.827,6.827,0,0,0,4.368,1.555h11.782a6.826,6.826,0,0,0,4.367-1.555,7.057,7.057,0,0,0,2.411-4.067l1.771-8.64a7.16,7.16,0,0,0-3.807-7.868,6.752,6.752,0,0,0-2.972-.651Z" fill="none" stroke="#1a53f6" stroke-width="0.5"></path></g></g></svg> 