<?xml version="1.0" encoding="UTF-8"?> <svg xmlns="http://www.w3.org/2000/svg" xmlns:xlink="http://www.w3.org/1999/xlink" width="60" height="60" viewBox="0 0 60 60"><defs><clipPath id="clip-path"><rect id="Rectangle_101" data-name="Rectangle 101" width="60" height="60" transform="translate(65 483)" fill="#fff" stroke="#707070" stroke-width="1"></rect></clipPath></defs><g id="Mask_Group_12" data-name="Mask Group 12" transform="translate(-65 -483)" clip-path="url(#clip-path)"><g id="Group_17" data-name="Group 17" transform="translate(-230.56 42.227)"><path id="Path_37" data-name="Path 37" d="M118.893,54.534H107.622a.8.8,0,0,0-.805.805V63.39a.8.8,0,0,0,.805.805h11.271a.8.8,0,0,0,.805-.805V55.339a.8.8,0,0,0-.805-.805Zm-.805,8.051h-9.661V56.144h9.661Zm15.3-8.051H122.113a.8.8,0,0,0-.805.805V63.39a.8.8,0,0,0,.805.805h11.271a.8.8,0,0,0,.805-.805V55.339a.8.8,0,0,0-.805-.805Zm-.805,8.051h-9.661V56.144h9.661ZM104.4,54.534H93.13a.8.8,0,0,0-.805.805V63.39a.8.8,0,0,0,.805.805H104.4a.8.8,0,0,0,.805-.805V55.339a.8.8,0,0,0-.805-.805Zm-.805,8.051H93.935V56.144H103.6ZM95.545,51.314h3.22a.8.8,0,0,0,.805-.805V44.069a.8.8,0,0,0-.805-.805h-3.22a.8.8,0,0,0-.805.805v6.441a.8.8,0,0,0,.805.805Zm.805-6.441h1.61V49.7H96.35Zm8.856-4.831h-3.22a.8.8,0,0,0-.805.805v9.661a.8.8,0,0,0,.805.805h3.22a.8.8,0,0,0,.805-.805V40.848a.8.8,0,0,0-.805-.805ZM104.4,49.7h-1.61V41.653h1.61Zm4.025,1.61h3.22a.8.8,0,0,0,.805-.805V24.747a.8.8,0,0,0-.805-.805h-3.22a.8.8,0,0,0-.805.805V50.509a.8.8,0,0,0,.805.805Zm.805-25.763h1.61V49.7h-1.61Zm5.636,25.763h3.22a.8.8,0,0,0,.805-.805V31.187a.8.8,0,0,0-.805-.805h-3.22a.8.8,0,0,0-.805.805V50.509a.8.8,0,0,0,.805.805Zm.805-19.322h1.61V49.7h-1.61Zm8.856,19.322a.8.8,0,0,0,.805-.805V37.628a.8.8,0,0,0-.805-.805h-3.22a.8.8,0,0,0-.805.805V50.509a.8.8,0,0,0,.805.805Zm-2.415-12.881h1.61V49.7h-1.61Zm5.636,12.881h3.22a.8.8,0,0,0,.805-.805v-16.1a.8.8,0,0,0-.805-.805h-3.22a.8.8,0,0,0-.805.805v16.1a.8.8,0,0,0,.805.805Zm.805-16.1h1.61V49.7h-1.61ZM135.8,17.5H90.714a3.224,3.224,0,0,0-3.22,3.22V65.806a3.224,3.224,0,0,0,3.22,3.22H135.8a3.224,3.224,0,0,0,3.22-3.22V20.721a3.224,3.224,0,0,0-3.22-3.22Zm1.61,48.305a1.613,1.613,0,0,1-1.61,1.61H90.714a1.613,1.613,0,0,1-1.61-1.61V20.721a1.611,1.611,0,0,1,1.61-1.61H135.8a1.611,1.611,0,0,1,1.61,1.61Z" transform="translate(212.067 427.273)" fill="#1b54f8" stroke="#fff" stroke-width="0.4"></path></g></g></svg> 