<?xml version="1.0" encoding="UTF-8"?> <svg xmlns="http://www.w3.org/2000/svg" width="91" height="91" viewBox="0 0 91 91" fill="none"><mask id="mask0_2_379" style="mask-type:luminance" maskUnits="userSpaceOnUse" x="0" y="0" width="91" height="91"><path d="M90.27 0.26001H0.269989V90.26H90.27V0.26001Z" fill="white"></path></mask><g mask="url(#mask0_2_379)"><path d="M39.54 22.72L38.27 28.38C38.15 28.91 38.36 29.45 38.79 29.77C39.23 30.09 39.81 30.11 40.28 29.84L45.27 26.88L50.26 29.84C50.47 29.97 50.71 30.03 50.95 30.03C51.23 30.03 51.51 29.94 51.74 29.77C52.18 29.45 52.38 28.91 52.26 28.38L50.99 22.72L55.34 18.89C55.74 18.53 55.9 17.97 55.73 17.46C55.56 16.95 55.11 16.58 54.57 16.53L48.8 15.99L46.5 10.67C46.29 10.17 45.8 9.85001 45.26 9.85001C44.72 9.85001 44.23 10.17 44.02 10.67L41.73 15.99L35.96 16.53C35.42 16.58 34.97 16.95 34.8 17.46C34.63 17.97 34.79 18.54 35.19 18.89L39.54 22.72ZM42.78 18.61C43.27 18.56 43.7 18.25 43.9 17.8L45.27 14.62L46.64 17.8C46.84 18.25 47.26 18.57 47.76 18.61L51.21 18.93L48.61 21.22C48.24 21.55 48.07 22.05 48.18 22.53L48.94 25.91L45.96 24.14C45.75 24.01 45.51 23.95 45.27 23.95C45.03 23.95 44.79 24.01 44.58 24.14L41.6 25.91L42.36 22.53C42.47 22.05 42.3 21.54 41.93 21.22L39.33 18.93L42.78 18.61ZM53.02 53.59C55.06 51.6 56.34 48.84 56.34 45.79C56.34 39.75 51.38 34.84 45.28 34.84C39.18 34.84 34.22 39.75 34.22 45.79C34.22 48.84 35.49 51.61 37.53 53.59C35.18 54.49 33.06 55.98 31.4 57.93C29.08 60.66 27.8 64.11 27.8 67.67V74.57C27.8 75.77 28.78 76.75 29.98 76.75H60.57C61.77 76.75 62.75 75.77 62.75 74.57V67.67C62.75 64.11 61.47 60.65 59.15 57.93C57.49 55.97 55.37 54.49 53.02 53.59ZM36.91 45.78C36.91 41.24 40.66 37.54 45.27 37.54C49.88 37.54 53.63 41.24 53.63 45.78C53.63 50.32 49.88 54.02 45.27 54.02C40.66 54.02 36.91 50.33 36.91 45.78ZM60.04 74.05H30.49V67.67C30.49 61.79 34.6 56.77 40.32 55.57C41.81 56.31 43.49 56.73 45.27 56.73C47.05 56.73 48.73 56.31 50.22 55.57C55.94 56.77 60.05 61.79 60.05 67.67V74.05H60.04ZM28.32 39.87L27.05 34.21L31.4 30.38C31.8 30.02 31.96 29.46 31.79 28.95C31.62 28.44 31.17 28.07 30.63 28.02L24.86 27.48L22.57 22.16C22.36 21.66 21.87 21.34 21.33 21.34C20.79 21.34 20.3 21.66 20.09 22.16L17.8 27.48L12.03 28.02C11.49 28.07 11.04 28.44 10.87 28.95C10.7 29.46 10.86 30.03 11.26 30.38L15.61 34.21L14.34 39.87C14.22 40.4 14.43 40.94 14.86 41.26C15.3 41.58 15.88 41.6 16.35 41.33L21.34 38.37L26.33 41.33C26.54 41.46 26.78 41.52 27.02 41.52C27.3 41.52 27.58 41.43 27.81 41.26C28.23 40.95 28.44 40.4 28.32 39.87ZM24.66 32.72C24.29 33.05 24.12 33.55 24.23 34.03L24.99 37.41L22.01 35.64C21.8 35.51 21.56 35.45 21.32 35.45C21.08 35.45 20.84 35.51 20.63 35.64L17.65 37.41L18.41 34.03C18.52 33.55 18.35 33.04 17.98 32.72L15.38 30.43L18.83 30.11C19.32 30.06 19.75 29.75 19.95 29.3L21.32 26.12L22.69 29.3C22.89 29.75 23.31 30.07 23.81 30.11L27.26 30.43L24.66 32.72ZM19.14 51.97L13.37 51.43L11.08 46.11C10.87 45.61 10.38 45.29 9.83999 45.29C9.29999 45.29 8.80999 45.61 8.59999 46.11L6.30999 51.43L0.53999 51.97C-9.95398e-06 52.02 -0.45001 52.39 -0.62001 52.9C-0.79001 53.41 -0.63001 53.98 -0.23001 54.33L4.11999 58.16L2.84999 63.82C2.72999 64.35 2.93999 64.89 3.36999 65.21C3.80999 65.53 4.38999 65.55 4.85999 65.28L9.84999 62.32L14.84 65.28C15.05 65.41 15.29 65.47 15.53 65.47C15.81 65.47 16.09 65.38 16.33 65.21C16.77 64.89 16.97 64.35 16.85 63.82L15.58 58.16L19.93 54.33C20.33 53.97 20.49 53.41 20.32 52.9C20.13 52.38 19.68 52.02 19.14 51.97ZM13.16 56.66C12.79 56.99 12.63 57.49 12.73 57.97L13.49 61.35L10.51 59.58C10.3 59.45 10.06 59.39 9.81999 59.39C9.57999 59.39 9.33999 59.45 9.12999 59.58L6.14999 61.35L6.90999 57.97C7.01999 57.49 6.84999 56.98 6.47999 56.66L3.87999 54.37L7.32999 54.05C7.81999 54 8.24999 53.69 8.44999 53.24L9.81999 50.06L11.19 53.24C11.39 53.69 11.81 54.01 12.31 54.05L15.76 54.37L13.16 56.66ZM74.88 41.52C75.16 41.52 75.44 41.43 75.67 41.26C76.11 40.94 76.31 40.4 76.19 39.87L74.92 34.21L79.27 30.38C79.67 30.02 79.83 29.46 79.66 28.95C79.49 28.44 79.04 28.07 78.5 28.02L72.73 27.48L70.44 22.16C70.23 21.66 69.74 21.34 69.2 21.34C68.66 21.34 68.17 21.66 67.96 22.16L65.67 27.48L59.9 28.02C59.36 28.07 58.91 28.44 58.74 28.95C58.57 29.46 58.73 30.03 59.13 30.38L63.48 34.21L62.21 39.87C62.09 40.4 62.3 40.94 62.73 41.26C63.17 41.58 63.75 41.6 64.22 41.33L69.21 38.37L74.2 41.33C74.41 41.46 74.64 41.52 74.88 41.52ZM69.9 35.64C69.69 35.51 69.45 35.45 69.21 35.45C68.97 35.45 68.73 35.51 68.52 35.64L65.54 37.41L66.3 34.03C66.41 33.55 66.24 33.04 65.87 32.72L63.27 30.43L66.72 30.11C67.21 30.06 67.64 29.75 67.84 29.3L69.21 26.12L70.58 29.3C70.78 29.75 71.2 30.07 71.7 30.11L75.15 30.43L72.55 32.72C72.18 33.05 72.01 33.55 72.12 34.03L72.88 37.41L69.9 35.64ZM91.18 52.9C91.01 52.39 90.56 52.02 90.02 51.97L84.25 51.43L81.96 46.11C81.75 45.61 81.26 45.29 80.72 45.29C80.18 45.29 79.69 45.61 79.48 46.11L77.19 51.43L71.42 51.97C70.88 52.02 70.43 52.38 70.26 52.9C70.09 53.41 70.25 53.98 70.65 54.33L75 58.16L73.73 63.82C73.61 64.35 73.82 64.89 74.25 65.21C74.69 65.53 75.27 65.55 75.74 65.28L80.73 62.32L85.72 65.28C85.93 65.41 86.17 65.47 86.41 65.47C86.69 65.47 86.97 65.38 87.2 65.21C87.64 64.89 87.84 64.35 87.72 63.82L86.45 58.16L90.8 54.33C91.19 53.97 91.34 53.41 91.18 52.9ZM84.04 56.66C83.67 56.99 83.5 57.49 83.61 57.97L84.37 61.35L81.39 59.58C81.18 59.45 80.94 59.39 80.7 59.39C80.46 59.39 80.22 59.45 80.01 59.58L77.03 61.35L77.79 57.97C77.9 57.49 77.73 56.98 77.36 56.66L74.76 54.37L78.21 54.05C78.7 54 79.13 53.69 79.33 53.24L80.7 50.06L82.07 53.24C82.27 53.69 82.69 54.01 83.19 54.05L86.64 54.37L84.04 56.66Z" fill="#1B54F8"></path></g></svg> 