<?xml version="1.0" encoding="UTF-8"?> <svg xmlns="http://www.w3.org/2000/svg" width="90" height="90" viewBox="0 0 90 90"><g id="Group_4099" data-name="Group 4099" transform="translate(-3659 -2618)"><rect id="Rectangle_908" data-name="Rectangle 908" width="90" height="90" transform="translate(3659 2618)" fill="#8f8e8e" opacity="0"></rect><g id="Group_4091" data-name="Group 4091" transform="translate(-22.315 -360.132)"><path id="Path_2560" data-name="Path 2560" d="M176.88,41.827a7.59,7.59,0,0,0-15.1,0,37.951,37.951,0,0,0-21.737,61.351,7.58,7.58,0,0,0,11.666,9.457,37.95,37.95,0,1,0,25.176-70.807Zm-7.59-3.8a4.553,4.553,0,1,1-3.22,1.334,4.554,4.554,0,0,1,3.22-1.334Zm-22.77,73.624a4.553,4.553,0,1,1,3.22-1.334A4.554,4.554,0,0,1,146.52,111.656Zm22.77,2.277a35,35,0,0,1-15.818-3.8,7.579,7.579,0,0,0-11.355-9.207,34.914,34.914,0,0,1,19.931-56.067,7.59,7.59,0,0,0,14.482,0,34.913,34.913,0,0,1-7.241,69.068Z" transform="translate(3556.956 2947.137)" fill="#1b54f8" stroke="#fff" stroke-width="1"></path><path id="Path_2561" data-name="Path 2561" d="M313.84,240.62a7.589,7.589,0,1,0,5.367,2.223A7.593,7.593,0,0,0,313.84,240.62Zm0,12.144a4.553,4.553,0,1,1,3.22-1.334A4.554,4.554,0,0,1,313.84,252.764Z" transform="translate(3412.406 2777.185)" fill="#1b54f8" stroke="#fff" stroke-width="1"></path><path id="Path_2562" data-name="Path 2562" d="M266.723,183.774a21.617,21.617,0,0,0,.425-4.265,22.012,22.012,0,1,0-8.3,17.222,7.59,7.59,0,0,0,7.879-12.957Zm-40.561-4.265a18.975,18.975,0,1,1,37.685,3.15,7.59,7.59,0,0,0-7.324,12.03,18.975,18.975,0,0,1-30.36-15.18Zm36.432,15.18a4.553,4.553,0,1,1,3.22-1.334A4.554,4.554,0,0,1,262.594,194.688Z" transform="translate(3481.11 2845.887)" fill="#1b54f8" stroke="#fff" stroke-width="1"></path></g></g></svg> 