<?xml version="1.0" encoding="UTF-8"?> <svg xmlns="http://www.w3.org/2000/svg" xmlns:xlink="http://www.w3.org/1999/xlink" width="90" height="90" viewBox="0 0 90 90"><defs><clipPath id="clip-path"><rect id="Rectangle_11" data-name="Rectangle 11" width="90" height="90" transform="translate(240.934 164.966)" fill="none"></rect></clipPath></defs><g id="Group_22" data-name="Group 22" transform="translate(-240.934 -164.966)"><g id="Group_21" data-name="Group 21" clip-path="url(#clip-path)"><path id="Path_23" data-name="Path 23" d="M287.031,197.437A12.07,12.07,0,1,0,299.1,209.512a12.075,12.075,0,0,0-12.065-12.075m0,21.947a9.872,9.872,0,1,1,9.872-9.872,9.879,9.879,0,0,1-9.872,9.872m0,5.25a24.542,24.542,0,0,0-24.516,24.515v2.138a4.061,4.061,0,0,0,4.059,4.059h40.9a4.061,4.061,0,0,0,4.059-4.059v-2.138a24.522,24.522,0,0,0-24.506-24.515m22.322,26.653a1.865,1.865,0,0,1-1.866,1.865h-40.9a1.865,1.865,0,0,1-1.866-1.865v-2.138a22.322,22.322,0,0,1,44.644,0v2.138Zm-29.682-70.322-1.209,6.309a1.972,1.972,0,0,0,.8,2.007,2.007,2.007,0,0,0,2.156.131l5.625-3.1,5.625,3.1a2.014,2.014,0,0,0,2.953-2.138l-1.209-6.309,4.687-4.388a2.016,2.016,0,0,0-1.134-3.468l-6.375-.8-2.728-5.813a2.008,2.008,0,0,0-1.828-1.153,1.976,1.976,0,0,0-1.819,1.163l-2.728,5.812-6.375.8a2.017,2.017,0,0,0-1.135,3.469Zm3.188-6.478a2.009,2.009,0,0,0,1.575-1.144l2.6-5.55,2.606,5.55a2,2,0,0,0,1.575,1.144l6.084.759-4.481,4.191a2,2,0,0,0-.6,1.847l1.163,6.018-5.372-2.962a1.985,1.985,0,0,0-1.941,0l-5.372,2.962,1.153-6.018a1.99,1.99,0,0,0-.6-1.847l-4.481-4.191ZM324.6,185.765a1.873,1.873,0,0,0-1.556-1.294l-5.419-.675-2.315-4.94a1.882,1.882,0,0,0-3.413,0l-2.315,4.94-5.419.675a1.89,1.89,0,0,0-1.05,3.253l3.984,3.732-1.031,5.362a1.883,1.883,0,0,0,2.756,2.016L313.6,196.2l4.782,2.635a1.888,1.888,0,0,0,2.025-.122,1.859,1.859,0,0,0,.74-1.885l-1.031-5.362,3.984-3.731a1.923,1.923,0,0,0,.5-1.969m-6.112,4.2a1.881,1.881,0,0,0-.563,1.734l.938,4.875-4.35-2.4a1.885,1.885,0,0,0-1.819,0l-4.35,2.4.938-4.875a1.881,1.881,0,0,0-.563-1.734l-3.628-3.394,4.931-.619a1.869,1.869,0,0,0,1.472-1.068l2.109-4.5,2.11,4.5a1.85,1.85,0,0,0,1.472,1.068l4.931.619Zm-51.216,8.728a1.861,1.861,0,0,0,.741-1.884l-1.031-5.363,3.984-3.731a1.89,1.89,0,0,0-1.05-3.253l-5.419-.675-2.315-4.941a1.883,1.883,0,0,0-3.413,0l-2.316,4.941-5.418.684a1.889,1.889,0,0,0-1.05,3.253l3.984,3.732-1.031,5.362a1.883,1.883,0,0,0,2.756,2.016l4.781-2.635,4.782,2.635a1.872,1.872,0,0,0,2.015-.141m-6.806-4.753a1.855,1.855,0,0,0-.909.234l-4.35,2.4.937-4.875a1.88,1.88,0,0,0-.562-1.734l-3.629-3.394,4.932-.619a1.869,1.869,0,0,0,1.472-1.068l2.109-4.5,2.109,4.5a1.865,1.865,0,0,0,1.472,1.068l4.931.619-3.628,3.394a1.88,1.88,0,0,0-.562,1.734l.937,4.875-4.35-2.4a1.927,1.927,0,0,0-.909-.234" fill="#1a53f6"></path><path id="Path_24" data-name="Path 24" d="M287.031,197.437A12.07,12.07,0,1,0,299.1,209.512,12.075,12.075,0,0,0,287.031,197.437Zm0,21.947a9.872,9.872,0,1,1,9.872-9.872A9.879,9.879,0,0,1,287.031,219.384Zm0,5.25a24.542,24.542,0,0,0-24.516,24.515v2.138a4.061,4.061,0,0,0,4.059,4.059h40.9a4.061,4.061,0,0,0,4.059-4.059v-2.138A24.522,24.522,0,0,0,287.031,224.634Zm22.322,26.653a1.865,1.865,0,0,1-1.866,1.865h-40.9a1.865,1.865,0,0,1-1.866-1.865v-2.138a22.322,22.322,0,0,1,44.644,0v2.138Zm-29.682-70.322-1.209,6.309a1.972,1.972,0,0,0,.8,2.007,2.007,2.007,0,0,0,2.156.131l5.625-3.1,5.625,3.1a2.014,2.014,0,0,0,2.953-2.138l-1.209-6.309,4.687-4.388a2.016,2.016,0,0,0-1.134-3.468l-6.375-.8-2.728-5.813a2.008,2.008,0,0,0-1.828-1.153,1.976,1.976,0,0,0-1.819,1.163l-2.728,5.812-6.375.8a2.017,2.017,0,0,0-1.135,3.469Zm3.188-6.478a2.009,2.009,0,0,0,1.575-1.144l2.6-5.55,2.606,5.55a2,2,0,0,0,1.575,1.144l6.084.759-4.481,4.191a2,2,0,0,0-.6,1.847l1.163,6.018-5.372-2.962a1.985,1.985,0,0,0-1.941,0l-5.372,2.962,1.153-6.018a1.99,1.99,0,0,0-.6-1.847l-4.481-4.191ZM324.6,185.765a1.873,1.873,0,0,0-1.556-1.294l-5.419-.675-2.315-4.94a1.882,1.882,0,0,0-3.413,0l-2.315,4.94-5.419.675a1.89,1.89,0,0,0-1.05,3.253l3.984,3.732-1.031,5.362a1.883,1.883,0,0,0,2.756,2.016L313.6,196.2l4.782,2.635a1.888,1.888,0,0,0,2.025-.122,1.859,1.859,0,0,0,.74-1.885l-1.031-5.362,3.984-3.731A1.923,1.923,0,0,0,324.6,185.765Zm-6.112,4.2a1.881,1.881,0,0,0-.563,1.734l.938,4.875-4.35-2.4a1.885,1.885,0,0,0-1.819,0l-4.35,2.4.938-4.875a1.881,1.881,0,0,0-.563-1.734l-3.628-3.394,4.931-.619a1.869,1.869,0,0,0,1.472-1.068l2.109-4.5,2.11,4.5a1.85,1.85,0,0,0,1.472,1.068l4.931.619Zm-51.216,8.728a1.861,1.861,0,0,0,.741-1.884l-1.031-5.363,3.984-3.731a1.89,1.89,0,0,0-1.05-3.253l-5.419-.675-2.315-4.941a1.883,1.883,0,0,0-3.413,0l-2.316,4.941-5.418.684a1.889,1.889,0,0,0-1.05,3.253l3.984,3.732-1.031,5.362a1.883,1.883,0,0,0,2.756,2.016l4.781-2.635,4.782,2.635A1.872,1.872,0,0,0,267.268,198.693Zm-6.806-4.753a1.855,1.855,0,0,0-.909.234l-4.35,2.4.937-4.875a1.88,1.88,0,0,0-.562-1.734l-3.629-3.394,4.932-.619a1.869,1.869,0,0,0,1.472-1.068l2.109-4.5,2.109,4.5a1.865,1.865,0,0,0,1.472,1.068l4.931.619-3.628,3.394a1.88,1.88,0,0,0-.562,1.734l.937,4.875-4.35-2.4A1.927,1.927,0,0,0,260.462,193.94Z" fill="none" stroke="#1a53f6" stroke-width="1"></path></g></g></svg> 