<?xml version="1.0" encoding="UTF-8"?> <svg xmlns="http://www.w3.org/2000/svg" width="90" height="90" viewBox="0 0 90 90" fill="none"><mask id="mask0_1_51" style="mask-type:alpha" maskUnits="userSpaceOnUse" x="0" y="0" width="90" height="90"><rect width="90" height="90" fill="#D9D9D9"></rect></mask><g mask="url(#mask0_1_51)"><path d="M45.5206 3.96002C45.2023 3.96006 44.892 4.05934 44.6326 4.24409C44.3732 4.42883 44.1776 4.68989 44.073 4.99104L41.2407 13.1491L32.624 13.326C32.3048 13.3315 31.9952 13.4366 31.7385 13.6269C31.4818 13.8171 31.2907 14.083 31.1921 14.3873C31.0934 14.6916 31.092 15.0191 31.188 15.3243C31.2841 15.6294 31.4728 15.8969 31.7279 16.0893L38.5973 21.3073L36.1037 29.5703C36.0105 29.876 36.0148 30.2032 36.116 30.5063C36.2172 30.8094 36.4102 31.0733 36.6681 31.2613C36.926 31.4493 37.2361 31.552 37.555 31.5552C37.8739 31.5583 38.1859 31.4616 38.4474 31.2787L45.5206 26.3424L52.5907 31.2787C52.8522 31.4628 53.1646 31.5604 53.4842 31.5579C53.8038 31.5553 54.1146 31.4528 54.3731 31.2645C54.6317 31.0763 54.8251 30.8118 54.9262 30.5081C55.0274 30.2043 55.0314 29.8764 54.9375 29.5703L52.4409 21.3073L59.3132 16.0893C59.5685 15.8967 59.7573 15.629 59.8533 15.3236C59.9493 15.0181 59.9476 14.6903 59.8486 14.3859C59.7495 14.0814 59.558 13.8156 59.3008 13.6256C59.0436 13.4356 58.7336 13.3309 58.4141 13.326L49.8004 13.1491L46.9652 4.99104C46.8607 4.69037 46.6656 4.42966 46.4068 4.24495C46.148 4.06025 45.8383 3.96069 45.5206 3.96002ZM45.5206 10.173L47.2529 15.1692C47.3558 15.4656 47.5469 15.7232 47.8003 15.9076C48.0537 16.0919 48.3574 16.194 48.6705 16.2002L53.9424 16.3052L49.7375 19.5031C49.4888 19.6927 49.3039 19.9539 49.2075 20.2517C49.1111 20.5495 49.1078 20.8697 49.198 21.1695L50.7265 26.2316L46.3957 23.2105C46.1385 23.0308 45.8326 22.9345 45.5191 22.9345C45.2056 22.9345 44.8996 23.0308 44.6424 23.2105L40.3116 26.2316L41.8401 21.1695C41.9304 20.8697 41.9271 20.5495 41.8307 20.2517C41.7342 19.9539 41.5493 19.6927 41.3007 19.5031L37.0957 16.3052L42.3676 16.2002C42.6807 16.194 42.9844 16.0919 43.2378 15.9076C43.4913 15.7232 43.6823 15.4656 43.7852 15.1692L45.5206 10.173ZM13.5715 25.713C13.2547 25.7129 12.9458 25.8123 12.6875 25.9976C12.4292 26.1829 12.2343 26.4448 12.1299 26.747L9.75016 33.6793L2.49118 33.826C2.17492 33.8334 1.86874 33.9399 1.61498 34.1308C1.36122 34.3218 1.17243 34.5876 1.07469 34.8917C0.976946 35.1958 0.975095 35.5231 1.06939 35.8282C1.16368 36.1334 1.34946 36.4015 1.60104 36.5953L7.38545 41.0281L5.28149 48.0473C5.18871 48.354 5.19287 48.6824 5.29339 48.9867C5.39391 49.291 5.58578 49.5561 5.84231 49.745C6.09884 49.934 6.40727 50.0374 6.72467 50.0409C7.04207 50.0444 7.35267 49.9478 7.61323 49.7646L13.5715 45.5716L19.5297 49.7646C19.7902 49.949 20.1012 50.0465 20.4193 50.0436C20.7373 50.0407 21.0465 49.9374 21.3037 49.7483C21.5608 49.5591 21.7531 49.2935 21.8537 48.9885C21.9542 48.6836 21.958 48.3545 21.8644 48.0473L19.7605 41.0281L25.5449 36.5953C25.7966 36.4013 25.9825 36.133 26.0767 35.8275C26.1709 35.5221 26.1688 35.1945 26.0707 34.8903C25.9726 34.5861 25.7833 34.3203 25.5291 34.1296C25.2749 33.9389 24.9683 33.8328 24.6518 33.826L17.3958 33.6793L15.0131 26.747C14.9086 26.4448 14.7137 26.1829 14.4554 25.9976C14.1971 25.8123 13.8882 25.7129 13.5715 25.713ZM77.4247 25.7246C77.1083 25.7242 76.7997 25.8233 76.5414 26.008C76.2832 26.1927 76.0881 26.4539 75.9831 26.7556L73.6004 33.6879L66.3444 33.8346C66.0272 33.8406 65.7196 33.9464 65.4646 34.1373C65.2096 34.3281 65.0198 34.5946 64.9215 34.8995C64.8233 35.2045 64.8215 35.5328 64.9165 35.8388C65.0114 36.1448 65.1983 36.4133 65.4513 36.607L71.2357 41.0397L69.1318 48.0559C69.0383 48.3631 69.042 48.6922 69.1426 48.9972C69.2431 49.3021 69.4354 49.5677 69.6926 49.7568C69.9497 49.946 70.2589 50.0492 70.5769 50.0522C70.895 50.0551 71.206 49.9576 71.4665 49.7732L77.4247 45.5803L83.383 49.7732C83.6435 49.9564 83.9541 50.053 84.2715 50.0495C84.5889 50.046 84.8973 49.9425 85.1538 49.7536C85.4104 49.5647 85.6022 49.2996 85.7028 48.9954C85.8033 48.6911 85.8075 48.3627 85.7147 48.0559L83.6107 41.0397L89.3951 36.607C89.6479 36.4135 89.8348 36.1452 89.9298 35.8395C90.0249 35.5338 90.0233 35.2057 89.9255 34.9009C89.8276 34.5961 89.6382 34.3297 89.3837 34.1386C89.1291 33.9475 88.822 33.8413 88.505 33.8346L81.246 33.6879L78.8663 26.7556C78.7614 26.4539 78.5663 26.1927 78.308 26.008C78.0498 25.8233 77.7411 25.7242 77.4247 25.7246ZM13.5715 31.9556L14.8632 35.7079C14.9655 36.0059 15.1556 36.265 15.408 36.4504C15.6603 36.6358 15.9629 36.7386 16.2749 36.7449L20.1951 36.8227L17.0691 39.2204C16.8207 39.4106 16.6359 39.6731 16.5395 39.9726C16.443 40.2721 16.4396 40.5942 16.5296 40.8957L17.6685 44.6991L14.4436 42.4272C14.188 42.2478 13.8842 42.1517 13.573 42.1517C13.2617 42.1517 12.958 42.2478 12.7023 42.4272L9.47743 44.6931L10.6133 40.8957C10.7034 40.5942 10.6999 40.2721 10.6035 39.9726C10.507 39.6731 10.3222 39.4106 10.0739 39.2204L6.94788 36.8227L10.8711 36.7449C11.183 36.7386 11.4856 36.6358 11.738 36.4504C11.9904 36.265 12.1805 36.0059 12.2827 35.7079L13.5715 31.9556ZM77.4247 31.9672L78.7135 35.7165C78.8157 36.0145 79.0058 36.2736 79.2582 36.459C79.5106 36.6444 79.8132 36.7472 80.1251 36.7535L84.0483 36.8312L80.9223 39.2289C80.674 39.4191 80.4891 39.6816 80.3927 39.9811C80.2962 40.2806 80.2928 40.6028 80.3829 40.9043L81.5187 44.7076L78.2939 42.4358C78.0382 42.2564 77.7344 42.1603 77.4232 42.1603C77.112 42.1603 76.8082 42.2564 76.5525 42.4358L73.3277 44.7046L74.4666 40.9043C74.5566 40.6028 74.5532 40.2806 74.4567 39.9811C74.3603 39.6816 74.1755 39.4191 73.9271 39.2289L70.8011 36.8312L74.7213 36.7535C75.0333 36.7472 75.3358 36.6444 75.5882 36.459C75.8406 36.2736 76.0307 36.0145 76.1329 35.7165L77.4247 31.9672ZM45.3407 37.6706C38.9213 37.6706 33.685 42.8951 33.685 49.3054C33.685 53.3094 35.7267 56.8499 38.8251 58.944C30.6732 61.6586 24.8046 69.3284 24.8046 78.3833V83.6522C24.8038 83.8547 24.8432 84.0554 24.9203 84.2426C24.9974 84.4299 25.1109 84.6 25.2541 84.7432C25.3973 84.8864 25.5674 84.9999 25.7547 85.077C25.9419 85.1542 26.1426 85.1935 26.3451 85.1927H64.3484C64.7553 85.1911 65.145 85.0279 65.4316 84.739C65.7183 84.4501 65.8784 84.0592 65.8769 83.6522V78.3833C65.8769 69.3286 60.0081 61.6587 51.8564 58.944C54.9593 56.8501 57.0085 53.3104 57.0085 49.3054C57.0085 42.8951 51.7602 37.6706 45.3407 37.6706ZM45.3407 40.7426C50.1054 40.7426 53.9394 44.5576 53.9394 49.3054C53.9394 54.0532 50.1054 57.8801 45.3407 57.8801C40.5761 57.8801 36.7541 54.0532 36.7541 49.3054C36.7541 44.5576 40.5761 40.7426 45.3407 40.7426ZM45.3407 60.9611C55.0463 60.9611 62.8079 68.7059 62.8079 78.3833V82.1206H27.8736V78.3833C27.8736 68.7059 35.6352 60.9611 45.3407 60.9611Z" fill="#1A53F6"></path></g></svg> 