<?xml version="1.0" encoding="UTF-8"?> <svg xmlns="http://www.w3.org/2000/svg" xmlns:xlink="http://www.w3.org/1999/xlink" width="90" height="90" viewBox="0 0 90 90"><defs><clipPath id="clip-path"><rect id="Rectangle_15" data-name="Rectangle 15" width="90" height="90" transform="translate(339 268)" fill="#fff" stroke="#707070" stroke-width="1"></rect></clipPath></defs><g id="Mask_Group_23" data-name="Mask Group 23" transform="translate(-339 -268)" clip-path="url(#clip-path)"><g id="Group_21" data-name="Group 21" transform="translate(-111.996 37)"><path id="Path_80" data-name="Path 80" d="M27,2.226v9.807a1.226,1.226,0,0,0,1.226,1.226h9.807a1.226,1.226,0,0,0,1.226-1.226V2.226A1.226,1.226,0,0,0,38.033,1H28.226A1.226,1.226,0,0,0,27,2.226Zm2.452,1.226h7.355v7.355H29.452Z" transform="translate(462.873 237)" fill="#1c54f8"></path><path id="Path_81" data-name="Path 81" d="M60.22,11.673a1.226,1.226,0,0,0-2.182,0l-4.9,9.807a1.226,1.226,0,0,0,1.091,1.777h9.807a1.226,1.226,0,0,0,1.091-1.777Zm-4.009,9.133,2.918-5.835,2.918,5.835Z" transform="translate(468.746 239.26)" fill="#1c54f8"></path><path id="Path_82" data-name="Path 82" d="M11.776,22.646l2.832-4.9a1.226,1.226,0,0,0,0-1.226l-2.832-4.9A1.226,1.226,0,0,0,10.722,11H5.058a1.226,1.226,0,0,0-1.066.613l-2.832,4.9a1.226,1.226,0,0,0,0,1.226l2.832,4.9a1.226,1.226,0,0,0,1.066.613h5.663a1.226,1.226,0,0,0,1.054-.613ZM5.769,20.807,3.636,17.129l2.133-3.678h4.241l2.121,3.678-2.121,3.678Z" transform="translate(457 239.259)" fill="#1c54f8"></path><path id="Path_83" data-name="Path 83" d="M38.292,47.488a7.355,7.355,0,1,0-8.066,0A8.581,8.581,0,0,0,22,56.069V68.328a1.226,1.226,0,0,0,1.226,1.226H45.291a1.226,1.226,0,0,0,1.226-1.226V56.069a8.581,8.581,0,0,0-8.226-8.581Zm-8.937-6.129a4.9,4.9,0,1,1,4.9,4.9A4.9,4.9,0,0,1,29.355,41.359ZM44.065,67.1H24.452V56.069a6.129,6.129,0,0,1,6.129-6.129h7.355a6.129,6.129,0,0,1,6.129,6.129Z" transform="translate(461.744 244.449)" fill="#1c54f8"></path><rect id="Rectangle_38" data-name="Rectangle 38" width="2.452" height="10.542" transform="translate(464.366 266.902) rotate(-35.54)" fill="#1c54f8"></rect><rect id="Rectangle_39" data-name="Rectangle 39" width="15.36" height="2.452" transform="matrix(0.878, -0.479, 0.479, 0.878, 472.13, 250.402)" fill="#1c54f8"></rect><rect id="Rectangle_40" data-name="Rectangle 40" width="10.542" height="2.452" transform="translate(519.518 274.059) rotate(-54.46)" fill="#1c54f8"></rect><rect id="Rectangle_41" data-name="Rectangle 41" width="2.452" height="18.878" transform="translate(505.215 245.2) rotate(-61.27)" fill="#1c54f8"></rect><path id="Path_84" data-name="Path 84" d="M57.651,38.854a.968.968,0,0,1-.919-.65,21.869,21.869,0,0,0-1.459-3.494.944.944,0,0,1,.2-1.1,3.408,3.408,0,0,0,.993-2.452,3.359,3.359,0,0,0-.993-2.39l-3.224-3.224a3.408,3.408,0,0,0-4.793,0,.919.919,0,0,1-1.116.184,23.635,23.635,0,0,0-3.506-1.459.944.944,0,0,1-.65-.907A3.4,3.4,0,0,0,38.8,20h-4.56a3.4,3.4,0,0,0-3.383,3.42.883.883,0,0,1-.6.87,21.686,21.686,0,0,0-3.543,1.471.919.919,0,0,1-1.1-.2,3.506,3.506,0,0,0-4.793,0L17.59,28.789a3.383,3.383,0,0,0,0,4.793.932.932,0,0,1,.294.686.9.9,0,0,1-.11.429A23.635,23.635,0,0,0,16.315,38.2a.944.944,0,0,1-.907.65A3.4,3.4,0,0,0,12,42.237V46.8a3.4,3.4,0,0,0,3.383,3.383.968.968,0,0,1,.919.65,21.869,21.869,0,0,0,1.459,3.494.944.944,0,0,1-.2,1.1,3.408,3.408,0,0,0-.993,2.452,3.359,3.359,0,0,0,.993,2.39l2.758,2.758,1.741-1.741-2.709-2.795a.87.87,0,0,1-.27-.637.907.907,0,0,1,.282-.662,3.383,3.383,0,0,0,.625-3.984,18.461,18.461,0,0,1-1.226-3.114,3.4,3.4,0,0,0-3.261-2.366.932.932,0,0,1-.932-.932v-4.56a.932.932,0,0,1,.932-.932,3.371,3.371,0,0,0,3.249-2.366,20.067,20.067,0,0,1,1.287-3.1,3.273,3.273,0,0,0,.392-1.569,3.42,3.42,0,0,0-1.005-2.452.919.919,0,0,1,0-1.312l3.114-3.15a.919.919,0,0,1,1.3,0,3.383,3.383,0,0,0,3.984.625,19.859,19.859,0,0,1,3.15-1.3,3.322,3.322,0,0,0,2.329-3.249.932.932,0,0,1,.932-.932H38.8a.932.932,0,0,1,.932.932,3.371,3.371,0,0,0,2.366,3.249,20.068,20.068,0,0,1,3.1,1.287,3.457,3.457,0,0,0,4-.613.919.919,0,0,1,1.312,0l3.236,3.236a.87.87,0,0,1,.27.637.907.907,0,0,1-.282.662,3.383,3.383,0,0,0-.625,3.984,18.462,18.462,0,0,1,1.226,3.114,3.4,3.4,0,0,0,3.261,2.366.932.932,0,0,1,.932.932v4.56a.944.944,0,0,1-.968.932,3.3,3.3,0,0,0-3.2,2.317,21.305,21.305,0,0,1-1.3,3.15,3.273,3.273,0,0,0-.392,1.569,3.42,3.42,0,0,0,1.005,2.452.919.919,0,0,1,0,1.312l-2.758,2.758,1.741,1.741,2.758-2.758a3.383,3.383,0,0,0,0-4.793.932.932,0,0,1-.294-.686.9.9,0,0,1,.11-.429,23.009,23.009,0,0,0,1.471-3.567.87.87,0,0,1,.895-.588A3.4,3.4,0,0,0,61.034,46.8v-4.56a3.4,3.4,0,0,0-3.383-3.383Z" transform="translate(459.485 241.291)" fill="#1c54f8"></path><path id="Path_85" data-name="Path 85" d="M34.936,27A15.936,15.936,0,0,0,21.157,50.941l2.108-1.226a13.484,13.484,0,1,1,23.291,0l2.108,1.226A15.936,15.936,0,0,0,34.936,27Z" transform="translate(461.067 242.872)" fill="#1c54f8"></path><rect id="Rectangle_42" data-name="Rectangle 42" width="2" height="2" transform="translate(501 307)" fill="#1c54f8"></rect></g></g></svg> 