<?xml version="1.0" encoding="UTF-8"?> <svg xmlns="http://www.w3.org/2000/svg" xmlns:xlink="http://www.w3.org/1999/xlink" width="90" height="90" viewBox="0 0 90 90"><defs><clipPath id="clip-path"><rect id="Rectangle_14" data-name="Rectangle 14" width="90" height="90" transform="translate(991 328)" fill="#fff" stroke="#707070" stroke-width="1"></rect></clipPath></defs><g id="Mask_Group_11" data-name="Mask Group 11" transform="translate(-991 -328)" clip-path="url(#clip-path)"><g id="Group_11" data-name="Group 11" transform="translate(1000 337)"><path id="Path_16" data-name="Path 16" d="M66.484,10.774V4H46.9A16.428,16.428,0,0,0,36,8.1,16.428,16.428,0,0,0,25.1,4H5.516v6.774H1V60.452H28.177a7.9,7.9,0,0,0,15.646,0H71V10.774ZM7.774,6.258H25.1a14.181,14.181,0,0,1,9.774,3.885V33.355h2.258V10.143A14.181,14.181,0,0,1,46.9,6.258H64.226V53.677h-27.1V35.613H34.871V53.677H7.774ZM68.742,58.194h-27.1v1.129a5.645,5.645,0,1,1-11.29,0V58.194H3.258V13.032H5.516v42.9H66.484v-42.9h2.258Z" fill="#1c54f8" stroke="#fff" stroke-width="0.3"></path><path id="Path_17" data-name="Path 17" d="M26.933,18.585A10.159,10.159,0,1,0,13.388,33.73v2.592a6.774,6.774,0,0,0,13.548,0V33.729a10.154,10.154,0,0,0,0-15.144ZM15.645,34.064h9.032v2.258H15.645Zm3.387-7.9a1.129,1.129,0,1,1,1.129,1.129A1.13,1.13,0,0,1,19.032,26.161Zm1.129,14.677a4.5,4.5,0,0,1-3.888-2.258H24.05A4.5,4.5,0,0,1,20.161,40.839Zm5.516-9.032H21.29V29.34a3.387,3.387,0,1,0-2.258,0v2.466H14.654a7.886,7.886,0,0,1,4.594-13.5,8.218,8.218,0,0,1,.925-.052,7.813,7.813,0,0,1,5.256,2.011,7.887,7.887,0,0,1,.25,11.538Z" transform="translate(1.161 1.549)" fill="#1c54f8" stroke="#fff" stroke-width="0.3"></path><rect id="Rectangle_16" data-name="Rectangle 16" width="2" height="2" transform="translate(10 47)" fill="#1c54f8" stroke="#fff" stroke-width="0.3"></rect><rect id="Rectangle_17" data-name="Rectangle 17" width="13" height="2" transform="translate(15 47)" fill="#1c54f8" stroke="#fff" stroke-width="0.3"></rect><rect id="Rectangle_18" data-name="Rectangle 18" width="3" height="2" transform="translate(30 47)" fill="#1c54f8" stroke="#fff" stroke-width="0.3"></rect><rect id="Rectangle_19" data-name="Rectangle 19" width="2" height="4" transform="translate(20 10)" fill="#1c54f8" stroke="#fff" stroke-width="0.3"></rect><rect id="Rectangle_20" data-name="Rectangle 20" width="2.258" height="4.516" transform="matrix(0.866, -0.5, 0.5, 0.866, 11.313, 12.629)" fill="#1c54f8" stroke="#fff" stroke-width="0.3"></rect><rect id="Rectangle_21" data-name="Rectangle 21" width="4.516" height="2.258" transform="translate(27.119 15.411) rotate(-60.007)" fill="#1c54f8" stroke="#fff" stroke-width="0.3"></rect><path id="Path_18" data-name="Path 18" d="M56.323,20.419H54.065V8H51.806V20.419H49.548V11.387H47.29v9.032H45.032V14.774H42.774v5.645H40.516V18.161H38.258v2.258H36v2.258H56.323Z" transform="translate(4.516 0.516)" fill="#1c54f8" stroke="#fff" stroke-width="0.3"></path><rect id="Rectangle_22" data-name="Rectangle 22" width="20" height="2" transform="translate(41 27)" fill="#1c54f8" stroke="#fff" stroke-width="0.3"></rect><rect id="Rectangle_23" data-name="Rectangle 23" width="9" height="2" transform="translate(41 31)" fill="#1c54f8" stroke="#fff" stroke-width="0.3"></rect><rect id="Rectangle_24" data-name="Rectangle 24" width="9" height="2" transform="translate(52 31)" fill="#1c54f8" stroke="#fff" stroke-width="0.3"></rect><path id="Path_19" data-name="Path 19" d="M38.387,47.677a3.391,3.391,0,0,0,3.387-3.387,3.332,3.332,0,0,0-.34-1.451l3.4-3.4a3.274,3.274,0,0,0,2.9,0l3.4,3.4a3.355,3.355,0,0,0-.339,1.452A3.387,3.387,0,1,0,54.194,40.9a3.332,3.332,0,0,0-1.451.34l-3.4-3.4a3.355,3.355,0,0,0,.339-1.452,3.387,3.387,0,0,0-6.774,0,3.332,3.332,0,0,0,.34,1.451l-3.4,3.4a3.355,3.355,0,0,0-1.452-.339,3.387,3.387,0,0,0,0,6.774Zm15.806-4.516a1.129,1.129,0,1,1-1.129,1.129A1.129,1.129,0,0,1,54.194,43.161Zm-7.9-7.9a1.129,1.129,0,1,1-1.129,1.129A1.129,1.129,0,0,1,46.29,35.258Zm-7.9,7.9a1.129,1.129,0,1,1-1.129,1.129A1.129,1.129,0,0,1,38.387,43.161Z" transform="translate(4.387 3.742)" fill="#1c54f8" stroke="#fff" stroke-width="0.3"></path></g></g></svg> 