<?xml version="1.0" encoding="UTF-8"?> <svg xmlns="http://www.w3.org/2000/svg" xmlns:xlink="http://www.w3.org/1999/xlink" width="60" height="60" viewBox="0 0 60 60"><defs><clipPath id="clip-path"><rect id="Rectangle_81" data-name="Rectangle 81" width="60" height="60" transform="translate(413 898)" fill="#fff" stroke="#707070" stroke-width="1"></rect></clipPath></defs><g id="Mask_Group_69" data-name="Mask Group 69" transform="translate(-413 -898)" clip-path="url(#clip-path)"><path id="Path_213" data-name="Path 213" d="M52.558,43.181H47.442a.608.608,0,0,0-.61.607V48.1a.608.608,0,0,0,.61.61h5.116a.608.608,0,0,0,.607-.61V43.789a.608.608,0,0,0-.607-.607Zm-.61,4.312h-3.9V44.4h3.9Zm-8.221-4.312H38.611a.609.609,0,0,0-.61.607V48.1a.608.608,0,0,0,.61.61h5.116a.608.608,0,0,0,.61-.61V43.789a.608.608,0,0,0-.61-.607Zm-.61,4.312h-3.9l0-3.094h3.9Zm9.439-11.375H47.441l0,0a.61.61,0,0,0-.61.61v4.312a.608.608,0,0,0,.61.61h5.116a.608.608,0,0,0,.607-.61V36.725a.608.608,0,0,0-.607-.61Zm-.61,4.312h-3.9l0-3.094h3.9Zm-8.221-4.312H38.61l0,0a.611.611,0,0,0-.61.61v4.312a.608.608,0,0,0,.61.61h5.116a.608.608,0,0,0,.61-.61V36.725a.608.608,0,0,0-.61-.61Zm-.61,4.312h-3.9l0-3.094h3.9Zm9.439-12.789-13.942,0a.611.611,0,0,0-.61.61v5.061a.608.608,0,0,0,.61.61H52.558a.608.608,0,0,0,.607-.61V28.278a.608.608,0,0,0-.607-.607Zm-.61,5.061-12.723,0V28.888H51.949ZM24.7,48.089a1.7,1.7,0,0,1-1.265,1.564v.336a.61.61,0,1,1-1.22,0v-.336a1.775,1.775,0,0,1-1.144-.98.61.61,0,1,1,1.121-.482.672.672,0,0,0,.607.336c.354,0,.658-.212.658-.457s-.3-.45-.658-.45A1.784,1.784,0,0,1,20.952,46a1.7,1.7,0,0,1,1.265-1.576v-.251a.61.61,0,0,1,1.22,0v.19a1.825,1.825,0,0,1,1.156,1.03.608.608,0,0,1-.8.815.615.615,0,0,1-.322-.359.681.681,0,0,0-.639-.343c-.354,0-.658.212-.658.457s.3.45.658.45v0A1.781,1.781,0,0,1,24.7,48.089Zm-1.875-6.175A5.183,5.183,0,1,0,28.009,47.1a5.185,5.185,0,0,0-5.182-5.182Zm0,9.135a1.644,1.644,0,1,1,0,.011Zm-7.794-28.19v-2.4a.608.608,0,0,1,.607-.61h2.382a.609.609,0,1,1,0,1.217h-.907l4.871,4.871,3-3v0a.611.611,0,0,1,.859,0l4.615,4.615a.609.609,0,0,1-.432,1.037.619.619,0,0,1-.434-.178L25.385,24.2l-3.008,3a.607.607,0,0,1-.859,0l-5.28-5.28v.939a.61.61,0,0,1-1.22,0Zm37.757.665h-14.4a4.26,4.26,0,0,0-4.261,4.261v2.978H16.9a2.632,2.632,0,0,0-2.626,2.631v.566h-.037a2.632,2.632,0,0,0-2.624,2.626v.566h-.566a2.629,2.629,0,0,0-2.624,2.631v12.7a2.624,2.624,0,0,0,2.624,2.654H35.006A2.61,2.61,0,0,0,37.6,52.8a4.336,4.336,0,0,0,.786.073H52.777a4.262,4.262,0,0,0,4.261-4.264V27.762A4.262,4.262,0,0,0,52.777,23.5Zm-37.3,9.848A1.412,1.412,0,0,1,16.9,31.957H34.125v1.98H15.489Zm-2.663,3.19a1.413,1.413,0,0,1,1.407-1.407H34.124v1.973H12.81ZM36.419,52.48a1.412,1.412,0,0,1-1.414,1.436H11.043A1.407,1.407,0,0,1,9.636,52.51V39.758a1.407,1.407,0,0,1,1.407-1.414H34.124v4.567a2.306,2.306,0,0,1-1.633-2.222.608.608,0,0,0-.61-.61H13.849a.609.609,0,0,0-.607.61,2.185,2.185,0,0,1-.719,1.626.609.609,0,0,0,.8.92A3.342,3.342,0,0,0,14.4,41.311H31.315a3.473,3.473,0,0,0,2.809,2.861V48.63a4.165,4.165,0,0,0,.238,1.389,3.454,3.454,0,0,0-2.243,1.121.611.611,0,0,0,.457,1.012.6.6,0,0,0,.457-.208,2.249,2.249,0,0,1,1.706-.742.607.607,0,0,0,.238-.05A4.256,4.256,0,0,0,36.437,52.4a.291.291,0,0,0-.018.08Zm19.4-3.866v0a3.049,3.049,0,0,1-3.044,3.046H38.386a3.045,3.045,0,0,1-3.044-3.046V27.761a3.045,3.045,0,0,1,3.044-3.046H52.778a3.049,3.049,0,0,1,3.044,3.046Z" transform="translate(410.582 890.156)" fill="#1c54f8"></path></g></svg> 