<?xml version="1.0" encoding="UTF-8"?> <svg xmlns="http://www.w3.org/2000/svg" width="91" height="91" viewBox="0 0 91 91" fill="none"><mask id="mask0_1_99" style="mask-type:luminance" maskUnits="userSpaceOnUse" x="0" y="0" width="91" height="91"><path d="M90.1 0.700012H0.0999985V90.7H90.1V0.700012Z" fill="white"></path></mask><g mask="url(#mask0_1_99)"><path d="M87.9 33.9C88.7 33.9 89.4 33.2 89.4 32.4V23.6C89.4 22.8 88.7 22.1 87.9 22.1H85V11.8C85 11.1 84.5 10.5 83.9 10.4L45.6 1.59998C45.4 1.59998 45.2 1.59998 44.9 1.59998L6.6 10.4C5.9 10.6 5.5 11.2 5.5 11.8V22.1H2.6C1.8 22.1 1.1 22.8 1.1 23.6V32.4C1.1 33.2 1.8 33.9 2.6 33.9H8.5V72.2H7C6.2 72.2 5.5 72.9 5.5 73.7V81.1H2.6C1.8 81.1 1.1 81.8 1.1 82.6V88.5C1.1 89.3 1.8 90 2.6 90H88.1C88.9 90 89.6 89.3 89.6 88.5V82.6C89.6 81.8 88.9 81.1 88.1 81.1H85.2V73.7C85.2 72.9 84.5 72.2 83.7 72.2H82V33.9H87.9ZM8.2 12.9L45.1 4.40002L82 12.9V22H8.2V12.9ZM3.8 25H86.4V30.9H3.8V25ZM23 72.2V33.9H67.2V72.2H23ZM11.2 33.9H20V72.2H11.2V33.9ZM86.4 86.9H3.8V84H86.4V86.9ZM8.2 81V75.1H82V81H8.2ZM79 72.2H70.2V33.9H79V72.2Z" fill="#1B54F8"></path><path d="M45.1 7.29999C41.8 7.29999 39.2 9.90001 39.2 13.2C39.2 16.5 41.8 19.1 45.1 19.1C48.4 19.1 51 16.5 51 13.2C51 10 48.3 7.29999 45.1 7.29999ZM45.1 16.2C43.5 16.2 42.2 14.9 42.2 13.3C42.2 11.7 43.5 10.4 45.1 10.4C46.7 10.4 48 11.7 48 13.3C48 14.9 46.7 16.2 45.1 16.2Z" fill="#1B54F8"></path><path d="M45.1 48.6C45.9 48.6 46.6 49.3 46.6 50.1H49.5C49.5 48.2 48.3 46.6 46.6 45.9V44.2H43.7V45.9C41.4 46.7 40.2 49.2 41 51.5C41.6 53.3 43.3 54.5 45.2 54.4C46 54.4 46.7 55.1 46.7 55.9C46.7 56.7 46 57.4 45.2 57.4C44.4 57.4 43.7 56.7 43.7 55.9H40.8C40.8 57.8 42 59.4 43.7 60.1V61.8H46.6V60.1C48.9 59.3 50.1 56.8 49.3 54.5C48.7 52.7 47 51.5 45.1 51.6C44.3 51.6 43.6 50.9 43.6 50.1C43.6 49.3 44.3 48.6 45.1 48.6Z" fill="#1B54F8"></path><path d="M45.1 39.8C37.8 39.8 31.8 45.7 31.8 53.1C31.8 60.5 37.7 66.4 45.1 66.4C52.4 66.4 58.4 60.5 58.4 53.1C58.4 45.7 52.4 39.8 45.1 39.8ZM45.1 63.4C39.4 63.4 34.8 58.8 34.8 53.1C34.8 47.4 39.4 42.8 45.1 42.8C50.8 42.8 55.4 47.4 55.4 53.1C55.4 58.7 50.8 63.3 45.1 63.4Z" fill="#1B54F8"></path><path d="M53.9 51.6H51V54.5H53.9V51.6Z" fill="#1B54F8"></path><path d="M39.1 51.6H36.2V54.5H39.1V51.6Z" fill="#1B54F8"></path></g></svg> 