<?xml version="1.0" encoding="UTF-8"?> <svg xmlns="http://www.w3.org/2000/svg" xmlns:xlink="http://www.w3.org/1999/xlink" width="60" height="60" viewBox="0 0 60 60"><defs><clipPath id="clip-path"><rect id="Rectangle_807" data-name="Rectangle 807" width="60" height="60" transform="translate(779 796)" fill="#fff" stroke="#707070" stroke-width="1"></rect></clipPath></defs><g id="Mask_Group_91" data-name="Mask Group 91" transform="translate(-779 -796)" clip-path="url(#clip-path)"><g id="Group_138" data-name="Group 138" transform="translate(-92 82)"><g id="Group_137" data-name="Group 137" transform="translate(875 718)"><path id="Path_200" data-name="Path 200" d="M6.531,17.4h27.6a3.946,3.946,0,0,0,7.755,0h2.6a.765.765,0,0,0,0-1.531h-2.6a3.946,3.946,0,0,0-7.755,0H6.531a.785.785,0,0,0-.765.765A.751.751,0,0,0,6.531,17.4Zm31.481-3.163a2.42,2.42,0,0,1,2.3,1.684,2.047,2.047,0,0,1,.153.765h0a2.047,2.047,0,0,1-.153.765,2.42,2.42,0,0,1-2.3,1.684,2.467,2.467,0,0,1-2.3-1.735,2.047,2.047,0,0,1-.153-.765h0a2.047,2.047,0,0,1,.153-.765A2.376,2.376,0,0,1,38.012,14.235Zm6.48,10.511h-15.1a3.946,3.946,0,0,0-7.755,0H6.531a.765.765,0,0,0,0,1.531h15.1a3.946,3.946,0,0,0,7.755,0h15.1a.785.785,0,0,0,.765-.765A.751.751,0,0,0,44.492,24.746ZM25.512,27.961a2.42,2.42,0,0,1-2.3-1.684,2.047,2.047,0,0,1-.153-.765h0a2.047,2.047,0,0,1,.153-.765,2.407,2.407,0,0,1,4.592,0,2.047,2.047,0,0,1,.153.765h0a2.047,2.047,0,0,1-.153.765A2.42,2.42,0,0,1,25.512,27.961Zm18.981,5.664h-27.3a3.946,3.946,0,0,0-7.755,0H6.531a.765.765,0,0,0,0,1.531H9.439a3.946,3.946,0,0,0,7.755,0h27.3a.785.785,0,0,0,.765-.765A.751.751,0,0,0,44.492,33.624ZM13.317,36.788a2.42,2.42,0,0,1-2.3-1.684,2.047,2.047,0,0,1-.153-.765h0a2.047,2.047,0,0,1,.153-.765,2.407,2.407,0,0,1,4.592,0,2.047,2.047,0,0,1,.153.765h0a2.047,2.047,0,0,1-.153.765A2.358,2.358,0,0,1,13.317,36.788ZM25.512,0A25.512,25.512,0,1,0,51.023,25.512,25.521,25.521,0,0,0,25.512,0Zm0,49.441a23.93,23.93,0,1,1,23.93-23.93A23.964,23.964,0,0,1,25.512,49.441Z" fill="#1c54f8"></path></g></g></g></svg> 