<?xml version="1.0" encoding="UTF-8"?> <svg xmlns="http://www.w3.org/2000/svg" id="Layer_1" data-name="Layer 1" viewBox="0 0 80 80"><defs><style>.cls-1{fill:#1b54f8;stroke:#fff;stroke-width:0.5px;}</style></defs><g id="Finance"><g id="statistics-_1_" data-name="statistics-(1)"><path id="Shape" class="cls-1" d="M19.61,38.19a5.08,5.08,0,0,0,3.53-1.43l5,2.5a4.26,4.26,0,0,0,0,.63,5.1,5.1,0,1,0,9.69-2.2l6.8-6.8a5.1,5.1,0,0,0,7.06-6.12l5.91-4.43a5.09,5.09,0,1,0-2.28-4.24,4.79,4.79,0,0,0,.24,1.52l-5.91,4.43a5.09,5.09,0,0,0-7.42,6.44l-6.8,6.8a5.08,5.08,0,0,0-5.73.93l-5-2.5c0-.21,0-.42,0-.63a5.1,5.1,0,1,0-5.1,5.1ZM60.39,14.4a1.7,1.7,0,1,1-1.7,1.7A1.7,1.7,0,0,1,60.39,14.4ZM46.8,24.59a1.7,1.7,0,1,1-1.7,1.7A1.71,1.71,0,0,1,46.8,24.59ZM33.2,38.19a1.7,1.7,0,1,1-1.7,1.7A1.7,1.7,0,0,1,33.2,38.19Zm-13.59-6.8a1.7,1.7,0,1,1-1.7,1.7A1.7,1.7,0,0,1,19.61,31.39Z"></path><path id="Shape-2" data-name="Shape" class="cls-1" d="M67.3,65.6H65.49V29.69a1.7,1.7,0,0,0-1.7-1.7H57a1.7,1.7,0,0,0-1.7,1.7V65.6h-3.4V39.89a1.7,1.7,0,0,0-1.69-1.7H43.4a1.7,1.7,0,0,0-1.7,1.7V65.6H38.3V53.48a1.7,1.7,0,0,0-1.7-1.7H29.8a1.7,1.7,0,0,0-1.69,1.7V65.6h-3.4V46.68A1.7,1.7,0,0,0,23,45h-6.8a1.7,1.7,0,0,0-1.7,1.7V65.6H12.7a1.7,1.7,0,1,0,0,3.4H67.3a1.7,1.7,0,0,0,0-3.4ZM58.69,31.39h3.4V65.6h-3.4ZM45.1,41.59h3.4v24H45.1ZM31.5,55.18h3.4V65.6H31.5Zm-13.59-6.8h3.4V65.6h-3.4Z"></path></g></g></svg> 