<?xml version="1.0" encoding="UTF-8"?> <!-- Generator: Adobe Illustrator 25.2.2, SVG Export Plug-In . SVG Version: 6.00 Build 0) --> <svg xmlns="http://www.w3.org/2000/svg" xmlns:xlink="http://www.w3.org/1999/xlink" version="1.1" id="Layer_1" x="0px" y="0px" viewBox="0 0 80 80" style="enable-background:new 0 0 80 80;" xml:space="preserve"> <style type="text/css"> .st0{fill:#1B54F8;} </style> <rect x="31.2" y="38.9" transform="matrix(0.2934 -0.956 0.956 0.2934 -9.9024 66.6554)" class="st0" width="17.9" height="2.3"></rect> <polygon class="st0" points="32.4,33.6 25.9,40.2 32.4,46.8 34,45.2 29.1,40.2 34,35.2 "></polygon> <polygon class="st0" points="45.4,35.2 50.3,40.2 45.4,45.2 47,46.8 53.5,40.2 47,33.6 "></polygon> <path class="st0" d="M53.8,21.6c-0.2-0.2-0.5-0.4-0.8-0.4H27.2c-0.3,0-0.6,0.1-0.8,0.4l-5,5c-0.2,0.2-0.4,0.5-0.3,0.8v25.6 c0,0.3,0.1,0.6,0.3,0.8l5,5c0.2,0.2,0.5,0.3,0.8,0.3h25.8c0.3,0,0.6-0.1,0.8-0.3l5-5c0.2-0.2,0.3-0.5,0.3-0.8V27.4 c0-0.3-0.1-0.6-0.3-0.8L53.8,21.6z M56.8,52.5l-4.3,4.3H27.6l-4.4-4.3V27.9l4.4-4.4h24.9l4.3,4.4V52.5z"></path> <path class="st0" d="M16.3,28.3h-4.7c-0.6,0.1-1.1,0.6-1,1.3c0.1,0.6,0.5,1,1,1h4.7c0.6,0,1.1-0.5,1.1-1.1c0-0.6-0.4-1.1-1-1.1 C16.4,28.3,16.3,28.3,16.3,28.3z"></path> <path class="st0" d="M16.3,33.7h-4.7c-0.6,0.1-1.1,0.6-1,1.3c0.1,0.6,0.5,1,1,1h4.7c0.6,0,1.1-0.5,1.1-1.1c0-0.6-0.4-1.1-1-1.1 C16.4,33.7,16.3,33.7,16.3,33.7z"></path> <path class="st0" d="M16.3,39.1h-4.7c-0.6,0.1-1.1,0.6-1,1.3c0.1,0.6,0.5,1,1,1h4.7c0.6,0,1.1-0.5,1.1-1.1c0-0.6-0.4-1.1-1-1.1 C16.4,39.1,16.3,39.1,16.3,39.1z"></path> <path class="st0" d="M16.3,44.5h-4.7c-0.6,0.1-1.1,0.6-1,1.3c0.1,0.6,0.5,1,1,1h4.7c0.6,0,1.1-0.5,1.1-1.2c0-0.6-0.4-1.1-1-1.1 C16.4,44.5,16.3,44.5,16.3,44.5z"></path> <path class="st0" d="M16.3,49.8h-4.7c-0.6,0.1-1.1,0.6-1,1.3c0.1,0.6,0.5,1,1,1h4.7c0.6,0,1.1-0.5,1.1-1.1c0-0.6-0.4-1.1-1-1.1 C16.4,49.8,16.3,49.8,16.3,49.8z"></path> <path class="st0" d="M63.7,30.5h4.7c0.6-0.1,1.1-0.6,1-1.3c-0.1-0.6-0.5-1-1-1h-4.7c-0.6,0-1.1,0.5-1.1,1.1c0,0.6,0.4,1.1,1,1.1 C63.6,30.5,63.7,30.5,63.7,30.5z"></path> <path class="st0" d="M68.3,33.7h-4.7c-0.6-0.1-1.2,0.4-1.3,1s0.4,1.2,1,1.3c0.1,0,0.1,0,0.2,0h4.7c0.6,0,1.1-0.5,1.2-1.1 c0-0.6-0.4-1.1-1-1.2C68.4,33.7,68.3,33.7,68.3,33.7z"></path> <path class="st0" d="M68.3,39.1h-4.7c-0.6-0.1-1.2,0.4-1.3,1s0.4,1.2,1,1.3c0.1,0,0.1,0,0.2,0h4.7c0.6,0,1.1-0.5,1.1-1.1 c0,0,0,0,0,0c0-0.6-0.4-1.1-1-1.2C68.4,39.1,68.3,39.1,68.3,39.1z"></path> <path class="st0" d="M68.3,44.5h-4.7c-0.6-0.1-1.2,0.4-1.3,1s0.4,1.2,1,1.3c0.1,0,0.1,0,0.2,0h4.7c0.6,0,1.2-0.5,1.2-1.1v0 c0-0.6-0.4-1.1-1-1.1C68.4,44.5,68.3,44.5,68.3,44.5z"></path> <path class="st0" d="M68.3,49.8h-4.7c-0.6-0.1-1.2,0.4-1.3,1s0.4,1.2,1,1.3c0.1,0,0.1,0,0.2,0h4.7c0.6,0,1.1-0.5,1.2-1.1 c0-0.6-0.4-1.1-1-1.2C68.4,49.8,68.3,49.8,68.3,49.8z"></path> <path class="st0" d="M29.2,62.6c-0.6,0-1.1,0.5-1.1,1.1v4.7c0.1,0.6,0.6,1.1,1.3,1c0.6-0.1,1-0.5,1-1v-4.7c0-0.6-0.4-1.1-1-1.1 C29.3,62.6,29.3,62.6,29.2,62.6z"></path> <path class="st0" d="M34.6,62.6c-0.6,0-1.1,0.5-1.1,1.1c0,0,0,0,0,0v4.7c0.1,0.6,0.6,1.1,1.3,1c0.6-0.1,1-0.5,1-1v-4.7 C35.8,63.1,35.2,62.6,34.6,62.6z"></path> <path class="st0" d="M40,62.6c-0.6,0-1.1,0.5-1.2,1.1v4.7c0,0.6,0.5,1.1,1.2,1.1c0.6,0,1.1-0.5,1.1-1.1v-4.7 C41.1,63.1,40.6,62.6,40,62.6z"></path> <path class="st0" d="M45.4,62.6c-0.6,0-1.1,0.5-1.1,1.1v4.7c0.1,0.6,0.6,1.1,1.3,1c0.6-0.1,1-0.5,1-1v-4.7 C46.5,63.1,46,62.6,45.4,62.6C45.4,62.6,45.4,62.6,45.4,62.6z"></path> <path class="st0" d="M50.8,62.6c-0.6,0-1.1,0.5-1.1,1.1c0,0,0,0,0,0v4.7c0.1,0.6,0.6,1.1,1.3,1c0.6-0.1,1-0.5,1-1v-4.7 C51.9,63.1,51.4,62.6,50.8,62.6z"></path> <path class="st0" d="M29.2,17.4c0.6,0,1.1-0.5,1.1-1.1c0,0,0,0,0,0v-4.7c-0.1-0.6-0.6-1.1-1.3-1c-0.6,0.1-1,0.5-1,1v4.7 C28.1,16.9,28.6,17.4,29.2,17.4z"></path> <path class="st0" d="M34.6,17.4c0.6,0,1.1-0.5,1.1-1.1v-4.7c-0.1-0.6-0.6-1.1-1.3-1c-0.6,0.1-1,0.5-1,1v4.7 C33.5,16.9,34,17.4,34.6,17.4C34.6,17.4,34.6,17.4,34.6,17.4z"></path> <path class="st0" d="M40,17.4c0.6,0,1.1-0.5,1.2-1.1v-4.7c0-0.6-0.5-1.1-1.2-1.1c-0.6,0-1.1,0.5-1.1,1.1v4.7 C38.9,16.9,39.4,17.4,40,17.4z"></path> <path class="st0" d="M45.4,17.4c0.6,0,1.1-0.5,1.1-1.1c0,0,0,0,0,0v-4.7c-0.1-0.6-0.6-1.1-1.3-1c-0.6,0.1-1,0.5-1,1v4.7 C44.2,16.9,44.8,17.4,45.4,17.4z"></path> <path class="st0" d="M50.8,17.4c0.6,0,1.1-0.5,1.1-1.1v-4.7c-0.1-0.6-0.6-1.1-1.3-1c-0.6,0.1-1,0.5-1,1v4.7c0,0.6,0.4,1.1,1,1.1 C50.7,17.4,50.7,17.4,50.8,17.4z"></path> </svg> 