<?xml version="1.0" encoding="UTF-8"?> <svg xmlns="http://www.w3.org/2000/svg" id="Layer_1" data-name="Layer 1" viewBox="0 0 94 94"><defs><style>.cls-1{fill:#1b54f8;stroke:#1b54f8;stroke-miterlimit:10;}</style></defs><path class="cls-1" d="M35.1,31.8a17.19,17.19,0,0,0-12.1,5,1.27,1.27,0,1,0,1.8,1.8,14.55,14.55,0,0,1,20.6,0h0a1.27,1.27,0,0,0,1.8-1.8A16.78,16.78,0,0,0,35.1,31.8Z"></path><path class="cls-1" d="M26.7,40.4a1.27,1.27,0,0,0,1.8,1.8h0a9.36,9.36,0,0,1,13.3,0,1.27,1.27,0,0,0,1.8-1.8A11.89,11.89,0,0,0,26.7,40.4Z"></path><path class="cls-1" d="M30.8,44.5a1.27,1.27,0,0,0,1.8,1.8h0a3.62,3.62,0,0,1,5.1,0,1.27,1.27,0,0,0,1.8-1.8A6.16,6.16,0,0,0,30.8,44.5Z"></path><path class="cls-1" d="M78.6,40.4h0L72.7,29.3a8,8,0,0,0-7-4.2H58.2a4.82,4.82,0,0,0-1.3-3,4.48,4.48,0,0,0-3.2-1.4h-39a4.65,4.65,0,0,0-4.6,4.6V61a4.48,4.48,0,0,0,4.5,4.5h3.5a8.94,8.94,0,0,0,8.2,7.7H27a9,9,0,0,0,8.9-7.7H54.5a9,9,0,0,0,17.7,0h7.1A4.63,4.63,0,0,0,83.9,61h0V49.9A7.88,7.88,0,0,0,82.2,45Zm-8.1-9.9,5,9.4H60.4a2.14,2.14,0,0,1-2.1-2.2V27.6h7.5A5.22,5.22,0,0,1,70.5,30.5Zm-37,34.3a6.47,6.47,0,0,1-6.9,6,6.54,6.54,0,0,1-6-6.9,6.46,6.46,0,0,1,6.5-6h.5a6.34,6.34,0,0,1,5.9,6.9Zm29.9,6a6.5,6.5,0,1,1,6.5-6.5,6.49,6.49,0,0,1-6.5,6.5Zm18-9.7a2,2,0,0,1-2.1,2h-7a9,9,0,0,0-17.8,0H35.9a9.53,9.53,0,0,0-2.1-4.7,9.28,9.28,0,0,0-6.1-3.1A9,9,0,0,0,18.2,63H14.7a2,2,0,0,1-2.1-2V25.4a2.05,2.05,0,0,1,2.1-2.1h39a1.82,1.82,0,0,1,1.4.6,2,2,0,0,1,.6,1.5V37.8a4.74,4.74,0,0,0,4.6,4.7H77l3.3,4.2A5.46,5.46,0,0,1,81.4,50Z"></path></svg> 