<?xml version="1.0" encoding="UTF-8"?> <!-- Generator: Adobe Illustrator 25.2.2, SVG Export Plug-In . SVG Version: 6.00 Build 0) --> <svg xmlns="http://www.w3.org/2000/svg" xmlns:xlink="http://www.w3.org/1999/xlink" version="1.1" id="Layer_1" x="0px" y="0px" viewBox="0 0 80 80" style="enable-background:new 0 0 80 80;" xml:space="preserve"> <style type="text/css"> .st0{fill:none;stroke:#1B54F8;stroke-width:2;stroke-miterlimit:10;} </style> <path class="st0" d="M32.6,47.6L32.6,47.6c-0.6-0.1-1-0.1-1.5-0.2H31c-0.4-0.1-0.9-0.2-1.3-0.4l-0.2-0.1c-0.4-0.2-0.8-0.3-1.2-0.5 l-0.2-0.1c-0.4-0.2-0.8-0.4-1.1-0.7l-0.2-0.1c-0.4-0.2-0.7-0.5-1.1-0.8l-0.2-0.1c-0.4-0.3-0.7-0.6-1-0.9l-0.1-0.2 c-0.3-0.3-0.6-0.6-0.9-1c0,0,0,0,0-0.1c4.5-5.8,12.9-6.9,18.7-2.4c0.9,0.7,1.7,1.5,2.4,2.4v0.1c-0.3,0.4-0.6,0.7-0.9,1l-0.1,0.1 c-0.3,0.3-0.7,0.6-1,0.9l-0.2,0.1c-0.4,0.3-0.7,0.5-1.1,0.8l-0.2,0.1c-0.4,0.2-0.8,0.5-1.2,0.7L40,46.3c-0.4,0.2-0.8,0.4-1.2,0.5 l-0.2,0c-0.4,0.2-0.9,0.3-1.3,0.4h-0.1c-0.5,0.1-0.9,0.2-1.4,0.2h-0.1c-0.5,0.1-1,0.1-1.5,0.1C33.6,47.6,33.1,47.6,32.6,47.6z"></path> <path class="st0" d="M29.6,31c0-2.5,2-4.5,4.5-4.5c2.5,0,4.5,2,4.5,4.5s-2,4.5-4.5,4.5c0,0,0,0,0,0C31.6,35.5,29.6,33.5,29.6,31 C29.6,31,29.6,31,29.6,31z"></path> <path class="st0" d="M11.2,33.9c0,12.5,10.1,22.7,22.7,22.7c5.7,0,11.2-2.2,15.4-6l3.9,3.9l-2.8,2.8c-0.3,0.3-0.3,0.9,0,1.2l8.7,8.7 c2.2,2.3,5.8,2.5,8.1,0.3s2.5-5.8,0.3-8.1c-0.1-0.1-0.2-0.2-0.3-0.3l-5.2-5.2l0,0l-3.5-3.5c-0.3-0.3-0.9-0.3-1.2,0l-2.8,2.9 l-3.9-3.9c8.5-9.2,8-23.5-1.2-32.1s-23.5-8-32.1,1.2C13.3,22.6,11.2,28.1,11.2,33.9z"></path> <path class="st0" d="M33.9,16.5c9.8,0,17.8,8,17.8,17.8s-8,17.8-17.8,17.8s-17.8-8-17.8-17.8c0,0,0,0,0,0 C16.1,24.5,24.1,16.5,33.9,16.5z"></path> </svg> 