<?xml version="1.0" encoding="UTF-8"?> <svg xmlns="http://www.w3.org/2000/svg" width="90" height="90" viewBox="0 0 90 90" fill="none"><mask id="mask0_1_128" style="mask-type:luminance" maskUnits="userSpaceOnUse" x="0" y="0" width="90" height="90"><path d="M90 0H0V90H90V0Z" fill="white"></path></mask><g mask="url(#mask0_1_128)"><path d="M45 56C51 56 56 51.1 56 45C56 39 51.1 34 45 34C39 34 34 38.9 34 45C34.1 51 39 56 45 56ZM45 36.5C49.7 36.5 53.5 40.3 53.5 45C53.5 49.7 49.7 53.5 45 53.5C40.3 53.5 36.5 49.7 36.5 45C36.5 40.3 40.4 36.5 45 36.5ZM28.7 58.5L31.5 61.3C32 61.8 32.6 62 33.3 62C34 62 34.6 61.7 35.1 61.3C36.2 60.2 37.6 60.2001 38.5 60.6001C39.4 61.0001 40.4 62 40.4 63.5C40.4 64.9 41.5 66.1001 43 66.1001H47C48.4 66.1001 49.6 65 49.6 63.5C49.6 62 50.6 61.0001 51.5 60.6001C52.4 60.2001 53.8 60.2 54.9 61.3C55.9 62.3 57.5 62.3 58.5 61.3L61.3 58.5C62.3 57.5 62.3 55.9001 61.3 54.9001C60.2 53.8001 60.2 52.4 60.6 51.5C61 50.6 62 49.6001 63.5 49.6001C64.9 49.6001 66.1 48.5 66.1 47V43C66.1 41.6 65 40.4001 63.5 40.4001C61.9 40.4001 61 39.4 60.6 38.5C60.2 37.6 60.2 36.2001 61.3 35.1001C61.8 34.6001 62 34 62 33.3C62 32.6 61.7 32 61.3 31.5L58.5 28.7C57.5 27.7 55.9 27.7 54.9 28.7C53.8 29.8 52.4 29.8001 51.5 29.4001C50.6 29.0001 49.6 28 49.6 26.5C49.6 25.1 48.5 23.9001 47 23.9001H43C41.6 23.9001 40.4 25 40.4 26.5C40.4 28 39.4 29.0001 38.5 29.4001C37.6 29.8001 36.2 29.8 35.1 28.7C34.6 28.2 34 28 33.3 28C32.6 28 32 28.3 31.5 28.7L28.7 31.5C28.2 32 28 32.6 28 33.3C28 34 28.3 34.6001 28.7 35.1001C29.8 36.2001 29.8 37.6 29.4 38.5C29 39.4 28 40.4001 26.5 40.4001C25.1 40.4001 23.9 41.5 23.9 43V47C23.9 48.4 25 49.6001 26.5 49.6001C28.1 49.6001 29 50.6 29.4 51.5C29.8 52.4 29.8 53.8001 28.7 54.9001C27.7 55.9001 27.7 57.5 28.7 58.5ZM26.4 47L26.3 43C26.3 43 26.3 42.9001 26.4 42.9001C28.7 42.9001 30.7 41.6001 31.6 39.4001C32.5 37.2001 32 34.9 30.4 33.2L33.2 30.4001C34.8 32.0001 37.2 32.5001 39.4 31.6001C41.6 30.7001 42.9 28.7001 42.9 26.4001C42.9 26.4001 42.9 26.3 43 26.3H47C47 26.3 47.1 26.3001 47.1 26.4001C47.1 28.7001 48.4 30.7001 50.6 31.6001C52.8 32.5001 55.1 32.0001 56.8 30.4001H56.9L59.7 33.2C58.1 34.8 57.6 37.2001 58.5 39.4001C59.4 41.6001 61.4 42.9001 63.7 42.9001C63.7 42.9001 63.8 42.9 63.8 43V47C63.8 47 63.8 47.1001 63.7 47.1001C61.4 47.1001 59.4 48.4001 58.5 50.6001C57.6 52.8001 58.1 55.1 59.7 56.8V56.9001L56.9 59.7H56.8C55.2 58.1 52.8 57.6 50.6 58.5C48.4 59.4 47.1 61.4 47.1 63.7C47.1 63.7 47.1 63.8 47 63.8H43C43 63.8 42.9 63.8 42.9 63.7C42.9 61.4 41.6 59.4 39.4 58.5C38.7 58.2 37.9 58.1001 37.2 58.1001C35.7 58.1001 34.3 58.7 33.2 59.8L30.4 57V56.9001C32 55.3001 32.5 52.9 31.6 50.7C30.8 48.4 28.8 47 26.4 47ZM63.8 10.9001C67.3 12.8001 70.4 15.3001 73.2 18.1001C73.4 18.3001 73.8 18.5 74.1 18.5H78.7V22.3C78.7 22.8 79 23.3 79.5 23.5C79.6 23.6 79.8 23.6001 79.9 23.6001C80.2 23.6001 80.6 23.5 80.8 23.2L88.7 14.4001C89.1 13.9001 89.1 13.2 88.7 12.7L80.8 3.90005C80.5 3.50005 79.9 3.40006 79.4 3.60006C78.9 3.80006 78.6 4.20002 78.6 4.80002V8.60006H64.3C63.7 8.60006 63.2 9.00003 63.1 9.50003C63.1 10.1 63.3 10.6001 63.8 10.9001ZM80 11.1001C80.7 11.1001 81.2 10.5001 81.2 9.90005V8.10006L86.2 13.6001L81.2 19.1001V17.3C81.2 16.6 80.6 16.1001 80 16.1001H74.7C72.9 14.3001 71 12.6001 68.9 11.1001H80ZM80.9 66.8C80.6 66.4 80 66.3 79.5 66.5C79 66.7 78.7 67.1 78.7 67.7V71.5H45C30.4 71.5 18.5 59.6 18.5 45C18.5 36.4 22.7 28.2 29.8 23.3C30.2 23 30.4 22.4001 30.3 21.9001C30.1 21.4001 29.7 21 29.1 21H18.1C17.7 21 17.4 21.2001 17.1 21.4001C11.5 28.0001 8.50001 36.3 8.50001 44.9001C8.50001 65.0001 24.8 81.3 44.9 81.3H78.6V85.1001C78.6 85.6001 78.9 86.1 79.4 86.3C79.5 86.4 79.7 86.4001 79.8 86.4001C80.1 86.4001 80.5 86.3 80.7 86L88.6 77.2C89 76.7 89 76 88.6 75.5L80.9 66.8ZM81.2 82V80.2C81.2 79.5 80.6 79 80 79H45.1C26.4 79 11.2 63.8001 11.2 45.1001C11.2 37.3001 13.9 29.7001 18.9 23.6001H25.7C19.7 29.1001 16.2 36.9001 16.2 45.1001C16.2 61.1001 29.2 74.1001 45.2 74.1001H80.1C80.8 74.1001 81.3 73.5001 81.3 72.9001V71.1001L86.3 76.6001L81.2 82ZM9.20002 23.2C9.50002 23.6 10.1 23.7 10.6 23.5C11.1 23.3 11.4 22.9 11.4 22.3V18.5H45.1C59.7 18.5 71.6 30.4 71.6 45C71.6 53.6 67.4 61.8 60.3 66.7C59.9 67 59.7 67.6001 59.8 68.1001C60 68.6001 60.4 69 61 69H72C72.4 69 72.7 68.8001 73 68.6001C78.6 62.0001 81.6 53.7001 81.6 45.1001C81.6 25.0001 65.3 8.70004 45.2 8.70004H11.5V4.90005C11.5 4.40005 11.2 3.90004 10.7 3.70004C10.2 3.50004 9.70003 3.60003 9.30003 4.00003L1.40001 12.8C1.00001 13.3 1.00001 14 1.40001 14.5L9.20002 23.2ZM8.80003 8.00003V9.80002C8.80003 10.5 9.40001 11 10 11H44.9C63.6 11 78.8 26.2001 78.8 44.9001C78.8 52.7001 76.1 60.3001 71.1 66.4001H64.3C70.3 60.9001 73.8 53.1001 73.8 44.9001C73.8 28.9001 60.8 15.9001 44.8 15.9001H10.1C9.40002 15.9001 8.90001 16.5001 8.90001 17.1001V18.9001L3.90001 13.4001L8.80003 8.00003ZM26.2 79.1001C22.7 77.2001 19.6 74.8001 16.8 71.9001C16.6 71.7001 16.2 71.5 15.9 71.5H11.3V67.7C11.3 67.2 11 66.7 10.5 66.5C10 66.3 9.50002 66.4 9.10002 66.8L1.20002 75.6001C0.800024 76.1001 0.800024 76.8 1.20002 77.3L9.10002 86.1001C9.30002 86.4001 9.70001 86.5 10 86.5C10.1 86.5 10.3 86.5001 10.4 86.4001C10.9 86.2001 11.2 85.8 11.2 85.2V81.4001H25.5C26.1 81.4001 26.6 81 26.7 80.5C27 79.9 26.7 79.4001 26.2 79.1001ZM10.1 78.9001C9.40002 78.9001 8.90001 79.5001 8.90001 80.1001V81.9001L3.90001 76.4001L8.90001 70.9001V72.7C8.90001 73.4 9.50002 73.9001 10.1 73.9001H15.4C17.2 75.7001 19.1 77.4001 21.2 78.9001H10.1Z" fill="#1B54F8"></path></g></svg> 