<?xml version="1.0" encoding="UTF-8"?> <svg xmlns="http://www.w3.org/2000/svg" id="Layer_1" data-name="Layer 1" viewBox="0 0 80 80"><defs><style>.cls-1{fill:#1b54f8;}</style></defs><path class="cls-1" d="M39.8,42.3l-7.4-2.7A.62.62,0,0,1,32,39a.82.82,0,0,1,.4-.6l5-1.8h.2a.68.68,0,0,1,.6.4.81.81,0,0,1-.4.9l-3.3,1.2,5.3,2,5.3-2-3.2-1.2a.78.78,0,0,1-.4-.4.45.45,0,0,1,0-.5.62.62,0,0,1,.6-.4h.2l5,1.8a.62.62,0,0,1,.4.6.68.68,0,0,1-.4.6L40,42.3Z"></path><path class="cls-1" d="M40,42h-.1l-7.3-2.7c-.2-.1-.3-.2-.3-.4s.1-.3.3-.4l5-1.8a.38.38,0,0,1,.3.7l-4,1.5,6.2,2.3,6.2-2.3-4-1.5a.38.38,0,1,1,.3-.7l5,1.8c.2.1.3.2.3.4s-.1.3-.3.4L40.1,42Z"></path><path class="cls-1" d="M39.8,51.5,35.7,50c-.4-.1-.5-.5-.4-.9a.62.62,0,0,1,.6-.4h.2l3.8,1.4,3.8-1.4h.2a.68.68,0,0,1,.6.4.81.81,0,0,1-.4.9L40,51.5Z"></path><path class="cls-1" d="M40,51.2h-.1l-4.1-1.5a.38.38,0,0,1,.3-.7L40,50.4,43.9,49a.38.38,0,0,1,.3.7l-4.1,1.5Z"></path><path class="cls-1" d="M32.7,46.7A.68.68,0,0,1,32,46V38.9a.7.7,0,0,1,1.4,0V46A.68.68,0,0,1,32.7,46.7Z"></path><path class="cls-1" d="M32.7,46.4a.43.43,0,0,1-.4-.4V38.9a.4.4,0,0,1,.8,0V46A.37.37,0,0,1,32.7,46.4Z"></path><path class="cls-1" d="M47.3,46.7a.68.68,0,0,1-.7-.7V38.9a.7.7,0,1,1,1.4,0V46A.68.68,0,0,1,47.3,46.7Z"></path><path class="cls-1" d="M47.3,46.4a.43.43,0,0,1-.4-.4V38.9a.4.4,0,0,1,.8,0V46A.37.37,0,0,1,47.3,46.4Z"></path><path class="cls-1" d="M40,39.2a.68.68,0,0,1-.7-.7V35.4a.7.7,0,1,1,1.4,0v3.1A.68.68,0,0,1,40,39.2Z"></path><path class="cls-1" d="M40,38.9a.43.43,0,0,1-.4-.4V35.4a.4.4,0,0,1,.8,0v3.1A.37.37,0,0,1,40,38.9Z"></path><path class="cls-1" d="M46.9,49.6a.76.76,0,0,1-.5-.2l-1.9-1.9a.67.67,0,0,1,0-1,.72.72,0,0,1,1,0l1.9,1.9a.72.72,0,0,1,0,1C47.2,49.5,47.1,49.6,46.9,49.6Z"></path><path class="cls-1" d="M46.9,49.3a.37.37,0,0,1-.3-.1l-1.9-1.9a.45.45,0,0,1,0-.5.28.28,0,0,1,.5,0l1.9,1.9a.45.45,0,0,1,0,.5A.35.35,0,0,1,46.9,49.3Z"></path><path class="cls-1" d="M33.1,49.6a.71.71,0,0,1-.5-1.2l1.9-1.9a.72.72,0,0,1,1,0,.67.67,0,0,1,0,1l-1.9,1.9A.76.76,0,0,1,33.1,49.6Z"></path><path class="cls-1" d="M33.1,49.3a.37.37,0,0,1-.3-.1.45.45,0,0,1,0-.5l1.9-1.9a.28.28,0,0,1,.5,0,.45.45,0,0,1,0,.5l-1.9,1.9A.35.35,0,0,1,33.1,49.3Z"></path><path class="cls-1" d="M40,51.5a.68.68,0,0,1-.7-.7V41.6a.7.7,0,1,1,1.4,0v9.2A.68.68,0,0,1,40,51.5Z"></path><path class="cls-1" d="M40,51.2a.43.43,0,0,1-.4-.4V41.6a.4.4,0,0,1,.8,0v9.2A.43.43,0,0,1,40,51.2Z"></path><path class="cls-1" d="M40,36.2a1.8,1.8,0,1,1,1.8-1.8A1.79,1.79,0,0,1,40,36.2Zm0-2.4a.5.5,0,1,0,.5.5A.47.47,0,0,0,40,33.8Z"></path><path class="cls-1" d="M40,35.9a1.5,1.5,0,1,1,1.5-1.5A1.54,1.54,0,0,1,40,35.9Zm0-2.4a.79.79,0,0,0-.8.8.8.8,0,1,0,1.6,0A.79.79,0,0,0,40,33.5Z"></path><path class="cls-1" d="M47.7,51.5a1.8,1.8,0,1,1,1.8-1.8A1.79,1.79,0,0,1,47.7,51.5Zm0-2.3a.5.5,0,1,0,.5.5A.54.54,0,0,0,47.7,49.2Z"></path><path class="cls-1" d="M47.7,51.2a1.5,1.5,0,1,1,1.5-1.5A1.54,1.54,0,0,1,47.7,51.2Zm0-2.3a.8.8,0,1,0,0,1.6.74.74,0,0,0,.8-.8A.86.86,0,0,0,47.7,48.9Z"></path><path class="cls-1" d="M32.3,51.5a1.8,1.8,0,1,1,1.8-1.8A1.79,1.79,0,0,1,32.3,51.5Zm0-2.3a.5.5,0,1,0,.5.5A.47.47,0,0,0,32.3,49.2Z"></path><path class="cls-1" d="M32.3,51.2a1.5,1.5,0,1,1,1.5-1.5A1.42,1.42,0,0,1,32.3,51.2Zm0-2.3a.8.8,0,1,0,.8.8A.86.86,0,0,0,32.3,48.9Z"></path><path class="cls-1" d="M33.3,32.5V29.1a5.9,5.9,0,0,0-5.5-5.9,5.13,5.13,0,0,0,1.3-3.4,5,5,0,0,0-5-5,5,5,0,0,0-3.7,8.4,5.84,5.84,0,0,0-5.5,5.9v3.4a.79.79,0,0,0,.8.8H32.5A.86.86,0,0,0,33.3,32.5Zm-9.2-16a3.4,3.4,0,1,1-3.4,3.4A3.37,3.37,0,0,1,24.1,16.5Zm7.5,15.1H16.5V29.1a4.23,4.23,0,0,1,4.2-4.2h6.7a4.23,4.23,0,0,1,4.2,4.2Z"></path><path class="cls-1" d="M59.7,55.1A5.13,5.13,0,0,0,61,51.7a5,5,0,0,0-10,0,5.13,5.13,0,0,0,1.3,3.4A5.84,5.84,0,0,0,46.8,61v3.4a.79.79,0,0,0,.8.8H64.4a.79.79,0,0,0,.8-.8V61A6,6,0,0,0,59.7,55.1Zm-3.8-6.7a3.44,3.44,0,0,1,3.4,3.4,3.4,3.4,0,0,1-6.8,0A3.44,3.44,0,0,1,55.9,48.4Zm7.6,15.1H48.4V61a4.23,4.23,0,0,1,4.2-4.2h6.7A4.23,4.23,0,0,1,63.5,61Z"></path><path class="cls-1" d="M40.2,22.6,36.9,26a.91.91,0,0,0,0,1.2l3.4,3.4,1.2-1.2-1.9-1.9H55.2V43.4h1.7V26.6a.79.79,0,0,0-.8-.8H39.5l1.9-1.9Z"></path><path class="cls-1" d="M39.8,54.5l-1.2,1.2,1.9,1.9H24.9v-21H23.2V58.4a.79.79,0,0,0,.8.8H40.4l-1.9,1.9,1.2,1.2,3.4-3.4a.91.91,0,0,0,0-1.2Z"></path></svg> 