<?xml version="1.0" encoding="UTF-8"?> <svg xmlns="http://www.w3.org/2000/svg" width="88" height="90" viewBox="0 0 88 90" fill="none"><mask id="mask0_12_48" style="mask-type:alpha" maskUnits="userSpaceOnUse" x="0" y="0" width="88" height="90"><path fill-rule="evenodd" clip-rule="evenodd" d="M54.2647 49.9773C54.339 50.0104 54.4389 50.0814 54.4885 50.217C54.538 50.3543 54.505 50.4696 54.472 50.5415C54.4389 50.6153 54.3646 50.7121 54.2317 50.7619C48.8664 52.7118 44.2962 53.6209 39.8417 53.6209C35.3871 53.6209 30.8087 52.7118 25.4434 50.7619C25.3104 50.7121 25.2444 50.6153 25.2031 50.5415C25.1701 50.4687 25.1453 50.3543 25.1949 50.217C25.2444 50.0814 25.3352 50.0104 25.4104 49.9773C25.4847 49.9441 25.6012 49.9136 25.7332 49.9634C30.983 51.871 35.4614 52.7607 39.8417 52.7607C44.2137 52.7607 48.693 51.871 53.9418 49.9634C54.0822 49.9118 54.1895 49.9441 54.2647 49.9773ZM44.5695 57.4249C43.2782 57.4249 42.251 56.9713 41.6961 56.396C43.7083 56.2918 45.7536 56.0152 47.8814 55.5598C47.7814 56.4633 46.4488 57.4249 44.5695 57.4249ZM35.1138 57.4249C33.2263 57.4249 31.8928 56.4633 31.7937 55.5598C33.9215 56.0143 35.975 56.2918 37.9863 56.396C37.4323 56.9713 36.4051 57.4249 35.1138 57.4249ZM33.2511 38.6306L29.9723 48.3915C33.5326 49.4379 36.7289 49.9376 39.8417 49.9376C43.0205 49.9376 46.2919 49.4167 49.9431 48.3196L46.6891 38.6315C46.5561 38.236 46.2828 37.9207 45.9187 37.7409C45.5546 37.5602 45.14 37.5399 44.7429 37.6754C41.8447 38.6896 38.0945 38.6896 35.1963 37.6754C34.8075 37.5371 34.3929 37.5602 34.0205 37.7409C33.6564 37.9188 33.3831 38.235 33.2511 38.6306ZM49.346 37.727C48.9737 36.6133 48.195 35.7171 47.1522 35.2036C46.1094 34.6901 44.9254 34.6209 43.8239 35.0072C41.5219 35.8121 38.4256 35.8121 36.1236 35.0072C35.0138 34.6209 33.8298 34.6891 32.787 35.2036C31.7442 35.7171 30.9655 36.6142 30.5932 37.727L27.2979 47.5248C27.0989 47.4529 26.8925 47.3838 26.6935 47.3072C25.8818 47.0131 25.0041 47.0509 24.2181 47.4206C23.4395 47.7876 22.8433 48.4385 22.5535 49.2563C22.2554 50.0713 22.2967 50.9536 22.6608 51.7391C23.0249 52.5265 23.6788 53.1212 24.4905 53.4171C26.0552 53.9869 27.562 54.4709 29.0194 54.8748C28.9946 55.0656 28.9781 55.2574 28.9781 55.4501C28.9781 58.1413 31.669 60.2489 35.1129 60.2489C37.0343 60.2489 38.7227 59.5888 39.8407 58.5387C40.9587 59.5888 42.6472 60.2489 44.5686 60.2489C48.0042 60.2489 50.7034 58.1422 50.7034 55.4501C50.7034 55.2583 50.6869 55.0656 50.6539 54.8748C52.1112 54.4709 53.6181 53.9869 55.191 53.4171C56.0027 53.1203 56.6483 52.5256 57.0124 51.7391C57.3765 50.9536 57.4178 50.0713 57.128 49.2563C56.8299 48.4394 56.2338 47.7885 55.456 47.4206C54.6774 47.0518 53.8006 47.0131 52.9889 47.3072C52.8651 47.3533 52.7404 47.3957 52.6166 47.44L49.346 37.727ZM66.0711 25.7377C66.0711 25.77 66.0711 25.7995 66.0711 25.8318C66.0711 25.865 66.0628 25.888 66.0628 25.9C66.0133 25.9249 65.9051 25.9249 65.8555 25.9C65.8555 25.888 65.8473 25.865 65.8473 25.8318C65.8473 25.7995 65.8473 25.77 65.8473 25.7377L64.9201 11.5578C64.9366 10.6847 65.6492 10.5879 65.9555 10.5879C66.2701 10.5879 66.9735 10.6856 66.9983 11.5578L66.0711 25.7377ZM65.9555 32.4985C65.6574 32.4985 65.4171 32.2533 65.4171 31.9518C65.4171 31.6503 65.6574 31.4051 65.9555 31.4051C66.2618 31.4051 66.5021 31.6503 66.5021 31.9518C66.5012 32.2533 66.2618 32.4985 65.9555 32.4985ZM65.9555 7.76391C64.0928 7.76391 62.1136 9.10907 62.1136 11.5975C62.1136 11.6288 62.1136 11.6592 62.1136 11.6906L63.0408 25.8843C63.0656 27.271 63.9681 28.3617 65.2429 28.6604C63.736 28.9886 62.6015 30.3384 62.6015 31.9509C62.6015 33.8096 64.1084 35.3216 65.9546 35.3216C67.8091 35.3216 69.3077 33.8096 69.3077 31.9509C69.3077 30.3374 68.1732 28.9877 66.6746 28.6604C67.9494 28.3617 68.8519 27.271 68.8766 25.8843L69.8039 11.6906C69.8039 11.6592 69.8039 11.6288 69.8039 11.5975C69.8048 9.10907 67.8265 7.76391 65.9555 7.76391ZM84.9239 35.7946C84.5598 36.4418 83.9554 36.7986 83.2097 36.7986H58.0396C56.1109 33.4832 53.3035 30.7403 49.9422 28.8909L65.2346 3.23612C65.3997 2.96229 65.64 2.82307 65.9546 2.82307C66.2774 2.82307 66.5177 2.96229 66.6828 3.23612L84.9055 33.8004C85.2797 34.4393 85.288 35.1474 84.9239 35.7946ZM58.1314 47.5055C58.1314 37.3675 49.9266 29.1204 39.8417 29.1204C29.7567 29.1204 21.552 37.3665 21.552 47.5055C21.552 57.6434 29.7567 65.8905 39.8417 65.8905C49.9266 65.8905 58.1314 57.6434 58.1314 47.5055ZM76.8677 71.0286V39.6226H59.4227C60.3995 42.0612 60.9378 44.7202 60.9378 47.5055C60.9378 59.2007 51.4738 68.7135 39.8417 68.7135C28.2095 68.7135 18.7455 59.2007 18.7455 47.5055C18.7455 35.8112 28.2086 26.2974 39.8417 26.2974C42.4913 26.2974 45.0327 26.7943 47.376 27.6978L49.5946 23.9814H5.42307C3.98224 23.9814 2.81472 25.1587 2.81472 26.6044V71.0286H76.8677ZM74.2593 77.783H5.42307C3.98224 77.783 2.81472 76.6056 2.81472 75.1609V73.8535H76.8668V75.1609C76.8677 76.6056 75.6919 77.783 74.2593 77.783ZM57.3197 87.176H22.3554L26.1643 80.606H53.5108L57.3197 87.176ZM87.3167 32.3483L69.0931 1.78586C68.4144 0.650911 67.2716 0 65.9555 0C64.6385 0 63.5049 0.650911 62.8262 1.78586L51.2757 21.1583H5.42307C2.4341 21.1583 0 23.6006 0 26.6044V75.16C0 78.1637 2.4341 80.606 5.42307 80.606H22.9093L19.2417 86.9345C18.8693 87.5725 18.8693 88.3358 19.2334 88.9692C19.5975 89.6045 20.268 90 20.9971 90H58.6853C59.4053 90 60.0849 89.6045 60.449 88.9692C60.8131 88.3358 60.8048 87.5734 60.4325 86.9345L56.7648 80.606H74.2593C77.2401 80.606 79.6742 78.1637 79.6742 75.16V39.6226H83.2097C84.9569 39.6226 86.5133 38.7117 87.3662 37.1877C88.2274 35.6609 88.2109 33.8538 87.3167 32.3483Z" fill="#1B54F8"></path></mask><g mask="url(#mask0_12_48)"><rect x="-1" width="90" height="90" fill="#1B54F8"></rect></g></svg> 