<?xml version="1.0" encoding="UTF-8"?> <svg xmlns="http://www.w3.org/2000/svg" xmlns:xlink="http://www.w3.org/1999/xlink" width="60" height="60" viewBox="0 0 60 60"><defs><clipPath id="clip-path"><rect id="Rectangle_867" data-name="Rectangle 867" width="60" height="60" transform="translate(537 45)" fill="#fff" stroke="#707070" stroke-width="1"></rect></clipPath></defs><g id="Mask_Group_96" data-name="Mask Group 96" transform="translate(-537 -45)" clip-path="url(#clip-path)"><g id="Group_162" data-name="Group 162" transform="translate(-100.547 49)"><path id="Path_222" data-name="Path 222" d="M53.934,27.871h-3.51A21.854,21.854,0,0,0,29.349,6.8V3.286a.739.739,0,1,0-1.477,0V6.8A21.855,21.855,0,0,0,6.8,27.871H3.286a.739.739,0,1,0,0,1.477H6.8A21.855,21.855,0,0,0,27.871,50.424v3.51a.739.739,0,1,0,1.477,0v-3.51A21.855,21.855,0,0,0,50.424,29.349h3.51a.739.739,0,1,0,0-1.477ZM29.349,48.946V45.465a.739.739,0,0,0-1.477,0v3.481a20.376,20.376,0,0,1-19.6-19.6h3.481a.739.739,0,1,0,0-1.477H8.274a20.377,20.377,0,0,1,19.6-19.6v3.482a.739.739,0,0,0,1.477,0V8.274a20.377,20.377,0,0,1,19.6,19.6H45.465a.739.739,0,0,0,0,1.477h3.481A20.376,20.376,0,0,1,29.349,48.946Zm6.876-23.609h-9.94v-3.81a2.037,2.037,0,0,1,2.035-2.035H28.9a2.037,2.037,0,0,1,2.035,2.035v1.041a.739.739,0,0,0,.739.739h2.878a.739.739,0,0,0,.739-.739v-.75a6.681,6.681,0,0,0-13.361,0v3.52H21a.739.739,0,0,0-.739.739V41.346a.739.739,0,0,0,.739.739H36.224a.739.739,0,0,0,.739-.739V26.075A.738.738,0,0,0,36.224,25.336Zm-12.818-3.52a5.2,5.2,0,1,1,10.407,0v.011h-1.4v-.3A3.516,3.516,0,0,0,28.9,18.013h-.581a3.516,3.516,0,0,0-3.512,3.513v3.81h-1.4ZM35.486,40.607H21.734V26.814H35.486V40.607Zm-7.614-4.9v2.8a.739.739,0,1,0,1.477,0v-2.8a3.8,3.8,0,1,0-1.477,0Zm.739-6.056a2.326,2.326,0,1,1-2.326,2.326A2.328,2.328,0,0,1,28.61,29.652Z" transform="translate(639 -2.547)" fill="#1c54f8" stroke="#fff" stroke-width="0.3"></path></g></g></svg> 