<?xml version="1.0" encoding="UTF-8"?> <svg xmlns="http://www.w3.org/2000/svg" width="90" height="90" viewBox="0 0 90 90"><g id="Group_1387" data-name="Group 1387" transform="translate(-1338 -394)"><rect id="Rectangle_433" data-name="Rectangle 433" width="90" height="90" transform="translate(1338 394)" fill="#fff"></rect><path id="human-target" d="M71.13,67.787a1.5,1.5,0,0,1,.06,2.111,1.471,1.471,0,0,1-2.094.043c-.01-.009-.017-.02-.027-.029a1.379,1.379,0,0,1-.435-1.011,1.462,1.462,0,0,1,.4-1.055,1.508,1.508,0,0,1,2.071-.078C71.115,67.775,71.123,67.78,71.13,67.787ZM30.472,37.16a1.486,1.486,0,0,0,1.486-1.486V32.7H34.93a1.486,1.486,0,0,0,0-2.972H30.472a1.485,1.485,0,0,0-1.486,1.486v4.458A1.485,1.485,0,0,0,30.472,37.16ZM28.986,57.476v1.975a1.485,1.485,0,0,0,1.486,1.486H34.93a1.486,1.486,0,0,0,0-2.972H31.958V54.992a1.5,1.5,0,0,0-.067-.42,1.482,1.482,0,0,0-2.9.42v2.484Zm7.431-3.97a1.486,1.486,0,0,1-2.972,0V52.02a7.44,7.44,0,0,1,6.587-7.379,7.921,7.921,0,0,1-1.386-4.511c0-4.1,3-7.431,6.688-7.431a6.492,6.492,0,0,1,5.385,3.044,7.939,7.939,0,0,1,1.3,4.386,8.037,8.037,0,0,1-.8,3.518,7.552,7.552,0,0,1-.586.993,7.44,7.44,0,0,1,6.587,7.379v1.486a1.486,1.486,0,0,1-2.972,0V52.019a4.463,4.463,0,0,0-4.459-4.458H40.875a4.463,4.463,0,0,0-4.459,4.458Zm5.2-13.377a4.848,4.848,0,0,0,1.316,3.4,3.356,3.356,0,0,0,2.4,1.059c2.049,0,3.715-2,3.715-4.459a5.12,5.12,0,0,0-.5-2.219,3.662,3.662,0,0,0-3.218-2.24C43.283,35.672,41.618,37.672,41.618,40.13ZM55.736,60.937h4.458a1.486,1.486,0,0,0,1.486-1.486V54.992a1.486,1.486,0,0,0-2.972,0v2.973H55.736a1.486,1.486,0,1,0,0,2.972Zm-10.4,14.118a29.713,29.713,0,0,0,23.108-48.4,1.413,1.413,0,0,0-1.07-.55,1.432,1.432,0,0,0-1.131.431l-2.9,2.885a1.5,1.5,0,0,0,0,2.108v0a1.54,1.54,0,0,0,2.11,0V31.5l1.679-1.664a26.75,26.75,0,0,1-37.3,37.3l1.428-1.426a1.5,1.5,0,0,0,.005-2.1.021.021,0,0,1-.005-.007,1.539,1.539,0,0,0-2.1,0l-2.631,2.644a1.434,1.434,0,0,0-.431,1.114,1.419,1.419,0,0,0,.55,1.086A29.707,29.707,0,0,0,45.333,75.055Zm25.219-54.94a35.408,35.408,0,0,0-25.2-10.448h-.029a35.665,35.665,0,0,0-25.2,60.885A35.663,35.663,0,0,0,66.555,74a1.5,1.5,0,0,0,.312-2.082c-.007-.008-.015-.015-.022-.024a1.5,1.5,0,0,0-2.06-.274A32.7,32.7,0,0,1,22.209,22.209,32.7,32.7,0,0,1,72.588,63.4a1.489,1.489,0,0,0-.223,1.114,1.463,1.463,0,0,0,.608.926c.011.008.02.018.032.025a1.524,1.524,0,0,0,2.051-.416,35.668,35.668,0,0,0-4.5-44.938ZM61.681,33.189V31.215a1.486,1.486,0,0,0-1.486-1.486H55.736a1.486,1.486,0,0,0,0,2.972h2.972v2.972a1.5,1.5,0,0,0,.067.421,1.482,1.482,0,0,0,2.9-.421V33.189Zm2.882-9.9a1.407,1.407,0,0,0-.55-1.07A29.687,29.687,0,0,0,45.348,15.61h-.029a29.713,29.713,0,0,0-23.094,48.4,1.4,1.4,0,0,0,1.07.55h.088a1.435,1.435,0,0,0,1.041-.431l2.3-2.3a1.433,1.433,0,0,0,.431-1.04,1.469,1.469,0,0,0-.43-1.053l0,0a1.522,1.522,0,0,0-2.1,0l-1.1,1.1a26.749,26.749,0,0,1,37.3-37.3l-1.56,1.56a1.488,1.488,0,0,0,0,2.1h0a1.507,1.507,0,0,0,2.094,0l2.763-2.764A1.465,1.465,0,0,0,64.563,23.294Z" transform="translate(1337.333 393.333)" fill="#1b54f8"></path></g></svg> 