<?xml version="1.0" encoding="UTF-8"?> <svg xmlns="http://www.w3.org/2000/svg" width="90" height="90" viewBox="0 0 90 90" fill="none"><mask id="mask0_1_54" style="mask-type:alpha" maskUnits="userSpaceOnUse" x="0" y="0" width="90" height="90"><rect width="90" height="90" fill="#D9D9D9"></rect></mask><g mask="url(#mask0_1_54)"><path d="M78.3871 66.7742C74.1005 66.7742 70.3568 69.1156 68.3448 72.5807H59.506C73.1366 66.8845 82.7419 53.415 82.7419 37.7419C82.7419 16.9316 65.8103 0 45 0C24.676 0 8.05208 16.1492 7.28563 36.2903H2.70724L13.0645 48.719L23.4218 36.2903H18.9101C19.6664 22.5552 31.079 11.6129 45 11.6129C59.4072 11.6129 71.129 23.3347 71.129 37.7419C71.129 52.1492 59.4072 63.871 45 63.871H29.0322V81.2903H67.156C68.4508 86.2911 72.9871 90 78.3871 90C84.7901 90 90 84.7902 90 78.3871C90 71.984 84.7901 66.7742 78.3871 66.7742ZM45 66.7742C61.0084 66.7742 74.0322 53.7503 74.0322 37.7419C74.0322 21.7335 61.0084 8.70968 45 8.70968C28.9916 8.70968 15.9677 21.7335 15.9677 37.7419V39.1936H17.2234L13.0645 44.1842L8.90563 39.1936H10.1613V37.7419C10.1613 18.5327 25.7908 2.90323 45 2.90323C64.2092 2.90323 79.8387 18.5327 79.8387 37.7419C79.8387 56.9511 64.2092 72.5807 45 72.5807H31.9355V66.7742H45ZM31.9355 78.3871V75.4839H67.156C66.915 76.4144 66.7742 77.3826 66.7742 78.3871H31.9355ZM78.3871 87.0968C73.5837 87.0968 69.6774 83.1905 69.6774 78.3871C69.6774 73.5837 73.5837 69.6774 78.3871 69.6774C83.1905 69.6774 87.0968 73.5837 87.0968 78.3871C87.0968 83.1905 83.1905 87.0968 78.3871 87.0968Z" fill="#1A53F6"></path><path d="M83.1673 74.4576L76.9355 80.6894L75.0586 78.8124L73.006 80.865L76.9355 84.7945L85.2199 76.5102L83.1673 74.4576Z" fill="#1A53F6"></path><path d="M21.7742 52.2581H4.35484C1.95387 52.2581 0 54.2119 0 56.6129V85.6452C0 88.0461 1.95387 90 4.35484 90H21.7742C24.1752 90 26.129 88.0461 26.129 85.6452V56.6129C26.129 54.2119 24.1752 52.2581 21.7742 52.2581ZM23.2258 85.6452C23.2258 86.4464 22.574 87.0968 21.7742 87.0968H4.35484C3.555 87.0968 2.90323 86.4464 2.90323 85.6452V56.6129C2.90323 55.8116 3.555 55.1613 4.35484 55.1613H21.7742C22.574 55.1613 23.2258 55.8116 23.2258 56.6129V85.6452Z" fill="#1A53F6"></path><path d="M46.4516 47.9032C52.0548 47.9032 56.6129 43.3452 56.6129 37.7419C56.6129 32.1387 52.0548 27.5807 46.4516 27.5807C40.8484 27.5807 36.2903 32.1387 36.2903 37.7419C36.2903 43.3452 40.8484 47.9032 46.4516 47.9032ZM46.4516 30.4839C50.4537 30.4839 53.7097 33.7399 53.7097 37.7419C53.7097 41.744 50.4537 45 46.4516 45C42.4495 45 39.1935 41.744 39.1935 37.7419C39.1935 33.7399 42.4495 30.4839 46.4516 30.4839Z" fill="#1A53F6"></path><path d="M27.5807 43.2305L31.0878 44.1058L29.2282 47.205L36.99 54.9653L40.0878 53.1058L40.9631 56.6129H51.9402L52.8155 53.1058L55.9132 54.9653L63.675 47.205L61.8155 44.1058L65.3226 43.2305V32.2534L61.8155 31.3781L63.675 28.2803L55.9132 20.5186L52.8155 22.3781L51.9402 18.871H40.9631L40.0878 22.3781L36.99 20.5186L29.2282 28.2803L31.0878 31.3781L27.5807 32.2534V43.2305ZM30.4839 34.5208L34.0345 33.6339L34.7632 31.86L32.8819 28.7274L37.4371 24.1723L40.5697 26.0536L42.3436 25.3248L43.2305 21.7742H49.6728L50.5597 25.3248L52.3336 26.0536L55.4661 24.1723L60.0213 28.7274L58.14 31.86L58.8687 33.6339L62.4194 34.5208V40.9631L59.5902 41.67L58.815 41.969L58.1386 43.621L60.0199 46.7565L55.4647 51.3131L52.3321 49.4318L50.5611 50.1518L49.6728 53.7097H43.2305L42.5236 50.8805L42.2289 50.1039L40.5711 49.4303L37.4386 51.3116L32.8834 46.755L34.7647 43.6195L34.0345 41.8486L30.4839 40.9631V34.5208Z" fill="#1A53F6"></path><path d="M46.4516 42.0968C48.8526 42.0968 50.8064 40.1429 50.8064 37.7419C50.8064 35.341 48.8526 33.3871 46.4516 33.3871C44.0506 33.3871 42.0968 35.341 42.0968 37.7419C42.0968 40.1429 44.0506 42.0968 46.4516 42.0968ZM46.4516 36.2903C47.2514 36.2903 47.9032 36.9421 47.9032 37.7419C47.9032 38.5418 47.2514 39.1936 46.4516 39.1936C45.6518 39.1936 45 38.5418 45 37.7419C45 36.9421 45.6518 36.2903 46.4516 36.2903Z" fill="#1A53F6"></path><path d="M20.3226 58.0645H5.80646V60.9677H20.3226V58.0645Z" fill="#1A53F6"></path><path d="M20.3226 63.871H5.80646V66.7742H20.3226V63.871Z" fill="#1A53F6"></path><path d="M20.3226 69.6774H5.80646V72.5807H20.3226V69.6774Z" fill="#1A53F6"></path><path d="M20.3226 75.4839H5.80646V78.3871H20.3226V75.4839Z" fill="#1A53F6"></path><path d="M20.3226 81.2903H17.4193V84.1935H20.3226V81.2903Z" fill="#1A53F6"></path><path d="M14.5161 81.2903H11.6129V84.1935H14.5161V81.2903Z" fill="#1A53F6"></path><path d="M8.70968 81.2903H5.80646V84.1935H8.70968V81.2903Z" fill="#1A53F6"></path></g></svg> 