<?xml version="1.0" encoding="UTF-8"?> <svg xmlns="http://www.w3.org/2000/svg" xmlns:xlink="http://www.w3.org/1999/xlink" width="60" height="60" viewBox="0 0 60 60"><defs><clipPath id="clip-path"><rect id="Rectangle_82" data-name="Rectangle 82" width="60" height="60" transform="translate(539 957)" fill="#fff" stroke="#707070" stroke-width="1"></rect></clipPath></defs><g id="Mask_Group_54" data-name="Mask Group 54" transform="translate(-539 -957)" clip-path="url(#clip-path)"><g id="Group_86" data-name="Group 86" transform="translate(13.002 120.75)"><g id="Layer_22" data-name="Layer 22" transform="translate(529.998 845)"><path id="Path_203" data-name="Path 203" d="M30.56,50.943a3.191,3.191,0,0,1-1.826-.591,14.519,14.519,0,0,1-4.086.591.869.869,0,0,1-.869-.869V38.415a.869.869,0,0,1,1.739,0V49.17a12.407,12.407,0,0,0,3.121-.609.869.869,0,0,1,.869.191,1.539,1.539,0,0,0,1.052.452,2.217,2.217,0,0,0,1.869-2.217.869.869,0,0,1,.348-.617c.356-.261.722-.565,1.174-.965a.869.869,0,0,1,.869-.174,1.33,1.33,0,0,0,.469.078c1.017,0,1.887-1.156,1.887-2.521a3.7,3.7,0,0,0-.087-.774.869.869,0,0,0-.043-.139,3.712,3.712,0,0,1-1.226-1.035,5.4,5.4,0,0,1-.617-1.009.869.869,0,0,1,1.078-1.191,3.652,3.652,0,0,1,1.643,1.174,4.652,4.652,0,0,1,.409.609h.113c1.026,0,1.9-1.156,1.9-2.53a2.956,2.956,0,0,0-.539-1.739.869.869,0,0,1-.156-.713l.07-.339c.07-.287.139-.574.183-.869a.869.869,0,0,1,.583-.687A2.5,2.5,0,0,0,41.923,31.1a2.86,2.86,0,0,0-.617-1.843,1.947,1.947,0,0,0-.583-.5A.869.869,0,0,1,40.28,28v-.322a.869.869,0,0,1,.756-.869,2.371,2.371,0,0,0,1.687-2.5,3,3,0,0,0-.609-1.852,1.669,1.669,0,0,0-1.348-.678,2.608,2.608,0,0,1-.435.365,3.234,3.234,0,0,1-1.165.53.869.869,0,0,1-.869-1.391,3.652,3.652,0,0,1,1.026-.869,2.434,2.434,0,0,1,.522-.226,2.939,2.939,0,0,0,.522-1.739,2.878,2.878,0,0,0-.617-1.852,1.53,1.53,0,0,0-2.347-.226.865.865,0,0,1-1.313-.139c-.113-.174-.243-.322-.374-.487l-.174-.113a.869.869,0,0,1-.139-.869,3.06,3.06,0,0,0-.409-2.956,1.548,1.548,0,0,0-2.478-.087,4.5,4.5,0,0,1-.826,1.852.849.849,0,0,1-1.548-.6,4.521,4.521,0,0,1,.722-1.887v-.287a3,3,0,0,0-.609-1.852,1.574,1.574,0,0,0-2.556,0,2.608,2.608,0,0,0-.435.809.869.869,0,0,1-.956.583c-.261,0-.53-.07-.8-.1V19.01a.869.869,0,1,1-1.739,0V9.29a.869.869,0,0,1,.869-.869,12.007,12.007,0,0,1,1.261.061A3.791,3.791,0,0,1,26.37,7.8,3.347,3.347,0,0,1,28.978,6.49a3.391,3.391,0,0,1,2.608,1.322,4.443,4.443,0,0,1,.869,1.834,3.33,3.33,0,0,1,3.852,1.078,4.608,4.608,0,0,1,1.009,2.939,5.016,5.016,0,0,1-.07.817,3.356,3.356,0,0,1,3.8,1.1,4.643,4.643,0,0,1,1,2.947,4.8,4.8,0,0,1-.3,1.739,3.573,3.573,0,0,1,1.669,1.174,4.66,4.66,0,0,1,1.035,2.878,4.417,4.417,0,0,1-1.887,3.747l.1.113a4.608,4.608,0,0,1,1.009,2.939,4.347,4.347,0,0,1-2.139,3.886l-.1.461a4.738,4.738,0,0,1,.661,2.443,4.1,4.1,0,0,1-3.2,4.243,5.148,5.148,0,0,1,.043.617c0,2.347-1.626,4.26-3.625,4.26a2.713,2.713,0,0,1-.539,0l-.652.539a3.808,3.808,0,0,1-3.547,3.373Z" transform="translate(-4.841 -6.386)" fill="#1c54f8" stroke="#fff" stroke-width="0.4"></path><path id="Path_204" data-name="Path 204" d="M21.805,52.966a14.38,14.38,0,0,1-4.086-.591,3.234,3.234,0,0,1-1.826.591,3.808,3.808,0,0,1-3.556-3.4c-.209-.165-.426-.339-.652-.539a3.476,3.476,0,0,1-.53,0c-2,0-3.634-1.913-3.634-4.26a3.921,3.921,0,0,1,.043-.626,4.086,4.086,0,0,1-3.2-4.234,4.7,4.7,0,0,1,.661-2.434,3.382,3.382,0,0,0-.1-.478,4.347,4.347,0,0,1-2.139-3.834A4.608,4.608,0,0,1,3.8,30.213l.087-.1A4.443,4.443,0,0,1,2,26.344a4.608,4.608,0,0,1,1.009-2.956,3.356,3.356,0,0,1,2.608-1.313.869.869,0,0,1,1.017.165,2.356,2.356,0,0,1,.556.243,3.478,3.478,0,0,1,1,.869.873.873,0,0,1-.9,1.391,3.391,3.391,0,0,1-1.148-.53,2.93,2.93,0,0,1-.435-.365H5.625a1.626,1.626,0,0,0-1.269.669,2.973,2.973,0,0,0-.617,1.826,2.391,2.391,0,0,0,1.739,2.513.869.869,0,0,1,.748.869v.322a.869.869,0,0,1-.452.765,1.9,1.9,0,0,0-.574.478,2.93,2.93,0,0,0-.626,1.861A2.5,2.5,0,0,0,6.016,35.6a.869.869,0,0,1,.583.687,3.6,3.6,0,0,0,.183.869l.078.322a.869.869,0,0,1-.165.722,2.852,2.852,0,0,0-.539,1.739c0,1.374.869,2.53,1.9,2.53h.035a6.833,6.833,0,0,1,.391-.583,3.791,3.791,0,0,1,1.652-1.191.877.877,0,0,1,1.087,1.174,4.7,4.7,0,0,1-.609,1.017,3.773,3.773,0,0,1-1.243,1.009l-.052.165a3.9,3.9,0,0,0-.078.748c0,1.365.869,2.521,1.9,2.521a1.252,1.252,0,0,0,.461-.078.869.869,0,0,1,.869.174,14.78,14.78,0,0,0,1.156.956A.869.869,0,0,1,13.98,49a2.2,2.2,0,0,0,1.93,2.226,1.617,1.617,0,0,0,1.052-.452.869.869,0,0,1,.869-.191,12.885,12.885,0,0,0,3.13.617V40.429a.869.869,0,1,1,1.739,0V52.1a.869.869,0,0,1-.9.869Z" transform="translate(-1.998 -8.408)" fill="#1c54f8" stroke="#fff" stroke-width="0.4"></path><path id="Path_205" data-name="Path 205" d="M22.594,19.878a.869.869,0,0,1-.869-.869V10.184a4.683,4.683,0,0,0-.8.1.869.869,0,0,1-.956-.574,2.608,2.608,0,0,0-.435-.8,1.565,1.565,0,0,0-2.556,0,2.93,2.93,0,0,0-.617,1.852,2.8,2.8,0,0,0,0,.287,4.443,4.443,0,0,1,.722,1.878.869.869,0,0,1-1.548.661,4.564,4.564,0,0,1-.869-1.878,1.643,1.643,0,0,0-1.182-.574,1.687,1.687,0,0,0-1.278.678,2.939,2.939,0,0,0-.626,1.852,2.982,2.982,0,0,0,.252,1.1.869.869,0,0,1-.148.869l-.217.261a4.087,4.087,0,0,0-.3.383.874.874,0,0,1-1.313.148,1.608,1.608,0,0,0-.982-.435.87.87,0,0,1,.07-1.739,3.3,3.3,0,0,1,1.043.226,5.1,5.1,0,0,1-.07-.817,4.66,4.66,0,0,1,1.017-2.947,3.278,3.278,0,0,1,3.843-1.069,4.5,4.5,0,0,1,.869-1.843A3.339,3.339,0,0,1,18.256,6.48,3.417,3.417,0,0,1,20.864,7.8a4.06,4.06,0,0,1,.443.669c.391,0,.817-.052,1.269-.052a.869.869,0,0,1,.869.869v9.72a.869.869,0,0,1-.852.869Z" transform="translate(-2.787 -6.384)" fill="#1c54f8" stroke="#fff" stroke-width="0.4"></path><path id="Path_206" data-name="Path 206" d="M5.784,19.6a.73.73,0,0,1-.235,0,.869.869,0,0,1-.556-1.1,3.921,3.921,0,0,1,.487-1.1.869.869,0,1,1,1.461.939,2.808,2.808,0,0,0-.278.635A.869.869,0,0,1,5.784,19.6Z" transform="translate(-2.383 -7.752)" fill="#1c54f8" stroke="#fff" stroke-width="0.4"></path><path id="Path_207" data-name="Path 207" d="M46.652,23.186h-12.3a.869.869,0,1,1,0-1.739H45.782V15.239a.869.869,0,1,1,1.739,0v7.077A.869.869,0,0,1,46.652,23.186Z" transform="translate(-6.109 -7.415)" fill="#1c54f8" stroke="#fff" stroke-width="0.4"></path><path id="Path_208" data-name="Path 208" d="M46.645,47.456a.869.869,0,0,1-.869-.869V40.379H34.3a.869.869,0,0,1,0-1.739H46.645a.869.869,0,0,1,.869.869v7.077A.869.869,0,0,1,46.645,47.456Z" transform="translate(-6.102 -10.584)" fill="#1c54f8" stroke="#fff" stroke-width="0.4"></path><path id="Path_209" data-name="Path 209" d="M52.556,32.319H50.869a.869.869,0,1,1,0-1.739h1.687a.869.869,0,1,1,0,1.739Z" transform="translate(-8.266 -9.531)" fill="#1c54f8" stroke="#fff" stroke-width="0.4"></path><path id="Path_210" data-name="Path 210" d="M44.469,32.319H28.489a.869.869,0,0,1,0-1.739h15.98a.869.869,0,0,1,0,1.739Z" transform="translate(-5.344 -9.531)" fill="#1c54f8" stroke="#fff" stroke-width="0.4"></path><path id="Path_211" data-name="Path 211" d="M48.007,14.664a4.147,4.147,0,1,1,4.147-4.138A4.147,4.147,0,0,1,48.007,14.664Zm0-6.547a2.408,2.408,0,1,0,2.408,2.408,2.408,2.408,0,0,0-2.408-2.408Z" transform="translate(-7.464 -6.37)" fill="#1c54f8" stroke="#fff" stroke-width="0.4"></path><path id="Path_212" data-name="Path 212" d="M56.616,35.094a4.147,4.147,0,1,1,4.138-4.138A4.147,4.147,0,0,1,56.616,35.094Zm0-6.547a2.408,2.408,0,1,0,2.4,2.408,2.408,2.408,0,0,0-2.4-2.408Z" transform="translate(-8.587 -9.038)" fill="#1c54f8" stroke="#fff" stroke-width="0.4"></path><path id="Path_213" data-name="Path 213" d="M48.01,55.527a4.138,4.138,0,1,1,2.935-1.212,4.138,4.138,0,0,1-2.935,1.212Zm0-6.538a2.4,2.4,0,1,0,2.408,2.391,2.4,2.4,0,0,0-2.408-2.391Z" transform="translate(-7.467 -11.708)" fill="#1c54f8" stroke="#fff" stroke-width="0.4"></path><path id="Path_214" data-name="Path 214" d="M26.18,33.5a2.4,2.4,0,1,1,2.4-2.4,2.4,2.4,0,0,1-2.4,2.4Zm0-3.06a.661.661,0,1,0,.661.661.661.661,0,0,0-.661-.661Z" transform="translate(-4.842 -9.286)" fill="#1c54f8" stroke="#fff" stroke-width="0.4"></path><path id="Path_215" data-name="Path 215" d="M32.05,41.719a2.4,2.4,0,1,1,2.4-2.4A2.4,2.4,0,0,1,32.05,41.719Zm0-3.06a.661.661,0,1,0,.661.661A.661.661,0,0,0,32.05,38.659Z" transform="translate(-5.609 -10.359)" fill="#1c54f8" stroke="#fff" stroke-width="0.4"></path><path id="Path_216" data-name="Path 216" d="M32.05,25.279a2.4,2.4,0,1,1,2.4-2.4A2.4,2.4,0,0,1,32.05,25.279Zm0-3.06a.661.661,0,1,0,.661.661A.661.661,0,0,0,32.05,22.219Z" transform="translate(-5.609 -8.213)" fill="#1c54f8" stroke="#fff" stroke-width="0.4"></path></g></g></g></svg> 