<?xml version="1.0" encoding="UTF-8"?> <svg xmlns="http://www.w3.org/2000/svg" width="80" height="80" viewBox="0 0 80 80"><g id="Group_620" data-name="Group 620" transform="translate(-1030 -2709)"><rect id="Rectangle_125" data-name="Rectangle 125" width="80" height="80" transform="translate(1030 2709)" fill="#f6f6f6" opacity="0"></rect><g id="Group_613" data-name="Group 613" transform="translate(-1487.256 1489.381)"><path id="Path_643" data-name="Path 643" d="M147.88,152.668a.852.852,0,0,0,.533.79l29.9,12.083a.847.847,0,0,0,.638,0l29.9-12.083a.852.852,0,0,0,0-1.58l-13-5.252,13-5.251a.852.852,0,0,0,0-1.58l-12.995-5.252,13-5.251h0a.852.852,0,0,0,0-1.58l-29.9-12.083a.853.853,0,0,0-.638,0l-29.9,12.083a.852.852,0,0,0,0,1.58l12.995,5.251L148.413,139.8a.852.852,0,0,0,0,1.58l13,5.251-13,5.252a.852.852,0,0,0-.533.79Zm30.752-35.329L206.259,128.5l-27.627,11.164L151.005,128.5ZM163.57,135.509a.8.8,0,0,0,.084-.056l14.658,5.923a.853.853,0,0,0,.638,0l14.631-5.912,12.676,5.122L178.632,151.75,151,140.586Zm.112,12.037,14.631,5.912a.853.853,0,0,0,.638,0l14.712-5.945a.825.825,0,0,0,.257.169l12.338,4.986-27.627,11.164L151,152.668Z" transform="translate(2378.376 1119.051)" fill="#1b54f8"></path></g></g></svg> 