<?xml version="1.0" encoding="UTF-8"?> <svg xmlns="http://www.w3.org/2000/svg" xmlns:xlink="http://www.w3.org/1999/xlink" width="90" height="90" viewBox="0 0 90 90"><defs><clipPath id="clip-path"><circle id="Ellipse_7" data-name="Ellipse 7" cx="45" cy="45" r="45" transform="translate(-0.256 -0.734)" fill="#fff"></circle></clipPath></defs><g id="Mask_Group_1" data-name="Mask Group 1" transform="translate(0.256 0.734)" clip-path="url(#clip-path)"><g id="Group_169" data-name="Group 169" transform="translate(14.576 14.595)"><path id="Path_14" data-name="Path 14" d="M224.488,326.28a1.134,1.134,0,0,0-1.065.871c-.1.484.387.968.871,1.065,5.035.484,7.165,1.259,7.746,1.646-1.065.775-5.906,1.936-14.33,1.936s-13.265-1.162-14.33-1.936c.678-.387,2.808-1.259,7.843-1.646a.875.875,0,0,0,.871-1.065.924.924,0,0,0-1.065-.871c-9.779.871-9.779,2.9-9.779,3.582v17.428c0,1.259,5.044,2.836,8.143,3.514a.967.967,0,0,0,1.162-.775.98.98,0,0,0-.775-1.162c-2.227-.484-6.5-1.674-6.593-1.771v-3.582c3.873,1.743,12.394,1.84,14.524,1.84s10.651-.1,14.524-1.84v3.679c-.678.678-5.616,2.033-14.524,2.033a63.121,63.121,0,0,1-7.649-.387.973.973,0,0,0-.194,1.936,67.521,67.521,0,0,0,7.843.387c2.711,0,16.46-.194,16.46-3.873V329.862C234.17,329.185,234.17,327.151,224.488,326.28Zm7.746,9.3a9.561,9.561,0,0,1-3.2,1.162,1,1,0,0,0-.775,1.162,1.027,1.027,0,0,0,1.162.775,11.6,11.6,0,0,0,2.711-.775v3.582c-.678.678-5.616,2.033-14.524,2.033s-13.845-1.356-14.524-2.033V337.8c3.873,1.743,12.393,1.84,14.524,1.84a69.856,69.856,0,0,0,8.036-.387,1.134,1.134,0,0,0,.871-1.065,1.053,1.053,0,0,0-1.065-.871,64.774,64.774,0,0,1-7.746.387c-8.908,0-13.845-1.356-14.524-2.033v-3.679c3.873,1.743,12.394,1.84,14.524,1.84s10.651-.1,14.524-1.84Z" transform="translate(-187.695 -291.132)" fill="#1b54f8"></path><path id="Path_15" data-name="Path 15" d="M114.718,45.686h7.746a.968.968,0,1,0,0-1.936h-7.746a.968.968,0,0,0,0,1.936Z" transform="translate(-109.877 -39.877)" fill="#1b54f8"></path><path id="Path_16" data-name="Path 16" d="M114.718,80.686h7.746a.968.968,0,1,0,0-1.936h-7.746a.968.968,0,0,0,0,1.936Z" transform="translate(-109.877 -71.004)" fill="#1b54f8"></path><path id="Path_17" data-name="Path 17" d="M114.718,115.686h7.746a.968.968,0,1,0,0-1.936h-7.746a.968.968,0,1,0,0,1.936Z" transform="translate(-109.877 -102.131)" fill="#1b54f8"></path><path id="Path_18" data-name="Path 18" d="M114.718,150.686h7.746a.968.968,0,1,0,0-1.936h-7.746a.968.968,0,1,0,0,1.936Z" transform="translate(-109.877 -133.258)" fill="#1b54f8"></path><path id="Path_19" data-name="Path 19" d="M272.218,133.011a.915.915,0,0,0,.968-.968v-5.069a.968.968,0,0,0-1.937,0v5.069A.97.97,0,0,0,272.218,133.011Z" transform="translate(-249.949 -113.03)" fill="#1b54f8"></path><path id="Path_20" data-name="Path 20" d="M307.218,45.686h7.746a.968.968,0,1,0,0-1.936h-7.746a.968.968,0,0,0,0,1.936Z" transform="translate(-281.076 -39.877)" fill="#1b54f8"></path><path id="Path_21" data-name="Path 21" d="M307.218,80.686h7.746a.968.968,0,1,0,0-1.936h-7.746a.968.968,0,0,0,0,1.936Z" transform="translate(-281.076 -71.004)" fill="#1b54f8"></path><path id="Path_22" data-name="Path 22" d="M307.218,115.686h7.746a.968.968,0,1,0,0-1.936h-7.746a.968.968,0,0,0,0,1.936Z" transform="translate(-281.076 -102.131)" fill="#1b54f8"></path><path id="Path_23" data-name="Path 23" d="M307.218,150.686h7.746a.968.968,0,1,0,0-1.936h-7.746a.968.968,0,0,0,0,1.936Z" transform="translate(-281.076 -133.258)" fill="#1b54f8"></path><path id="Path_24" data-name="Path 24" d="M137.813,11.655a.915.915,0,0,0,.968-.968V9.718a.915.915,0,0,0-.968-.968H122.321a.915.915,0,0,0-.968.968V29.083a.915.915,0,0,0,.968.968H129.1v5.809H109.734V30.051h6.778a.915.915,0,0,0,.968-.968V9.718a.915.915,0,0,0-.968-.968H101.02a.915.915,0,0,0-.968.968V22.4a.968.968,0,0,0,1.936,0V10.686h13.555V28.115H101.988a.968.968,0,0,0-1.936,0v.968a.915.915,0,0,0,.968.968H107.8v5.809H88.432V30.051H95.21a.915.915,0,0,0,.968-.968V9.718a.915.915,0,0,0-.968-.968H79.718a.915.915,0,0,0-.968.968v5.713a.968.968,0,1,0,1.936,0V10.686H94.242V28.115H80.686V15.051a.968.968,0,0,0-1.936,0V29.083a.915.915,0,0,0,.968.968H86.5v6.778a.915.915,0,0,0,.968.968H107.8v6.39l-2.227-2.227a.959.959,0,0,0-1.356,1.356l3.873,3.873a1.077,1.077,0,0,0,1.356,0l3.873-3.873a.959.959,0,1,0-1.356-1.356l-2.227,2.227V37.8h20.333a.915.915,0,0,0,.968-.968V30.051h6.778a.915.915,0,0,0,.968-.968v-18.4a.968.968,0,1,0-1.936,0V28.114H123.289V10.685h13.555a.915.915,0,0,0,.968.968Z" transform="translate(-78.75 -8.75)" fill="#1b54f8"></path><path id="Path_25" data-name="Path 25" d="M507.464,43.75h-7.746a.968.968,0,0,0,0,1.936h7.746a.968.968,0,1,0,0-1.936Z" transform="translate(-452.274 -39.877)" fill="#1b54f8"></path><path id="Path_26" data-name="Path 26" d="M507.464,78.75h-7.746a.968.968,0,0,0,0,1.936h7.746a.968.968,0,1,0,0-1.936Z" transform="translate(-452.274 -71.004)" fill="#1b54f8"></path><path id="Path_27" data-name="Path 27" d="M507.464,113.75h-7.746a.968.968,0,0,0,0,1.936h7.746a.968.968,0,1,0,0-1.936Z" transform="translate(-452.274 -102.131)" fill="#1b54f8"></path><path id="Path_28" data-name="Path 28" d="M507.464,148.75h-7.746a.968.968,0,0,0,0,1.936h7.746a.968.968,0,1,0,0-1.936Z" transform="translate(-452.274 -133.258)" fill="#1b54f8"></path></g></g></svg> 