<?xml version="1.0" encoding="UTF-8"?> <svg xmlns="http://www.w3.org/2000/svg" width="61" height="61" viewBox="0 0 61 61" fill="none"><mask id="mask0_1_56" style="mask-type:luminance" maskUnits="userSpaceOnUse" x="0" y="0" width="61" height="61"><path d="M60.7 0.700012H0.700012V60.7H60.7V0.700012Z" fill="white"></path></mask><g mask="url(#mask0_1_56)"><path d="M55 28.3C54.9 28.1 54.8 28.1 55 27.9C56.2 25.8 56.8 23.5 56.8 21.1C56.8 21 56.8 21 56.8 20.9C56.8 20.7 56.8 20.6 56.8 20.4C56.6 16.7 55.1 13.6 52.2 11.3C48.7 8.50001 44.7 7.80001 40.3 8.80001C40.1 8.80001 40 8.80001 39.9 8.60001C39.1 7.20001 38.1 6.00002 36.8 4.90002C33.6 2.30002 29.9 1.20001 25.9 2.10001C20.7 3.30001 17.5 6.70002 16 11.7C15.9 11.9 15.9 12 15.6 12C13.1 12 10.7 12.6 8.60002 13.9C4.20002 16.5 1.90001 21.4 2.50001 26.4C2.90001 29.5 4.20001 32.1 6.40001 34.3C6.50001 34.4 6.60001 34.5 6.50001 34.7C5.00001 37.3 4.40003 40 4.70003 43C5.00003 46.2 6.40001 49 8.90001 51.1C12.5 54.2 16.7 55 21.2 53.9C21.4 53.9 21.5 53.9 21.6 54C22.4 55.5 23.5 56.8 24.8 57.8C28.1 60.4 31.9 61.5 36 60.4C40.9 59.1 44 55.8 45.5 50.9C45.6 50.7 45.6 50.6 45.9 50.6C48.2 50.6 50.5 50.1 52.5 48.9C56.7 46.5 59 42.8 59.1 37.9C59 34.2 57.6 31 55 28.3ZM39.3 12.8C40.9 11.9 42.6 11.6 44.4 11.8C47.8 12.1 50.4 13.5 52.1 16.5C53.7 19.3 53.6 22.2 52.4 25.1C52.3 25.3 52.2 25.5 52.1 25.8C52 26 51.9 26.1 51.7 25.9C49.8 24.8 47.9 23.7 46 22.6C43.2 21 40.4 19.4 37.6 17.8C37.4 17.7 37.3 17.7 37.1 17.8C33.5 20 29.8 22.3 26.2 24.5C26.1 24.6 26 24.6 25.9 24.7C25.9 24.5 25.9 24.3 25.9 24.1C25.9 23 25.8 21.9 25.8 20.9C25.8 20.7 25.8 20.6 26 20.6C30.4 18 34.9 15.4 39.3 12.8ZM35.3 33.7C35.3 33.9 35.2 34 35.1 34C33.7 34.8 32.3 35.6 30.9 36.4C30.7 36.5 30.6 36.5 30.5 36.4C29.1 35.6 27.7 34.8 26.3 34C26.1 33.9 26.1 33.8 26.1 33.6C26.1 32 26.1 30.4 26.1 28.8C26.1 28.6 26.2 28.5 26.3 28.5C27.7 27.7 29.1 26.9 30.5 26.1C30.6 26 30.7 26 30.9 26.1C32.3 26.9 33.7 27.7 35.1 28.5C35.3 28.6 35.3 28.7 35.3 28.9C35.3 29.7 35.3 30.5 35.3 31.3C35.3 32.1 35.3 32.9 35.3 33.7ZM19 14.9C19 10.3 22.7 5.60001 28.1 5.30001C31.3 5.20001 33.9 6.50002 35.9 8.90002C36.2 9.20002 36.4 9.60002 36.7 9.90002C36.8 10.1 36.8 10.2 36.6 10.3C34.3 11.6 31.9 13 29.6 14.4C27.2 15.8 24.9 17.1 22.5 18.5C22.3 18.6 22.3 18.7 22.3 18.9C22.4 23.2 22.5 27.5 22.6 31.8C22.6 31.9 22.6 32 22.6 32.1C21.8 31.6 21 31.2 20.2 30.8C19.9 30.6 19.6 30.5 19.3 30.3C19.1 30.2 19.1 30.1 19.1 29.9C19.1 27.1 19.1 24.2 19.1 21.4C19 19.3 19 17.1 19 14.9ZM7.00001 29.3C5.60001 26.5 5.4 23.6 6.8 20.8C8 18.2 10.2 16.6 12.9 15.8C13.7 15.6 14.5 15.5 15.3 15.4C15.6 15.4 15.5 15.5 15.5 15.7C15.5 21.1 15.5 26.5 15.5 31.9C15.5 32.1 15.6 32.3 15.8 32.4C19.5 34.4 23.3 36.4 27 38.5C27.1 38.6 27.2 38.6 27.4 38.7C27.1 38.9 26.8 39 26.6 39.2C25.8 39.7 25 40.2 24.2 40.7C24.1 40.8 24 40.8 23.8 40.7C19.3 38.1 14.9 35.6 10.4 33C8.90001 32.2 7.80001 30.9 7.00001 29.3ZM22.1 49.8C20.8 50.6 19.3 50.9 17.7 50.8C14.2 50.8 11.4 49.4 9.50001 46.4C7.80001 43.6 7.70001 40.6 8.90001 37.6C9.00001 37.3 9.2 37 9.3 36.8C9.4 36.6 9.50002 36.6 9.60002 36.7C10.9 37.5 12.2 38.2 13.5 38.9C16.9 40.9 20.4 42.9 23.8 44.8C24 44.9 24.1 44.9 24.3 44.8C28 42.5 31.6 40.3 35.3 38C35.4 38 35.5 37.9 35.6 37.8C35.6 38 35.6 38.2 35.6 38.3C35.6 39.4 35.7 40.5 35.7 41.6C35.7 41.8 35.7 41.9 35.5 42C31 44.6 26.5 47.2 22.1 49.8ZM42.4 48C42.4 49.8 41.8 51.4 40.8 52.9C39.3 55.2 37.1 56.7 34.4 57.2C31.6 57.7 29.1 56.8 26.9 55C26.1 54.3 25.4 53.5 24.8 52.6C24.7 52.4 24.7 52.3 24.9 52.2C29.6 49.5 34.3 46.8 39 44.1C39.2 44 39.3 43.9 39.3 43.6C39.2 39.3 39.1 35 39 30.7C39 30.6 39 30.5 39 30.4C39.1 30.4 39.2 30.5 39.3 30.5C40.3 31.1 41.4 31.6 42.4 32.2C42.5 32.3 42.6 32.4 42.6 32.5C42.4 37.7 42.4 42.9 42.4 48ZM54.4 42.1C53 44.8 50.6 46.3 47.7 46.9C47.2 47 46.7 47 46.2 47.1C45.9 47.1 45.9 47 45.9 46.8C45.9 41.4 45.9 36 45.9 30.7C45.9 30.4 45.8 30.3 45.6 30.2C41.8 28.1 38 26.1 34.2 24C34.2 24 34.1 24 34.1 23.9C34.2 23.8 34.2 23.8 34.3 23.7C35.3 23.1 36.3 22.5 37.3 21.9C37.5 21.8 37.6 21.8 37.7 21.9C42.1 24.5 46.6 27 51 29.6C52.4 30.4 53.4 31.6 54.2 33C55.8 35.9 56.1 39 54.4 42.1Z" fill="#1B54F8" stroke="white" stroke-miterlimit="10"></path></g></svg> 