<?xml version="1.0" encoding="UTF-8"?> <svg xmlns="http://www.w3.org/2000/svg" width="61" height="60" viewBox="0 0 61 60" fill="none"><mask id="mask0_1_35" style="mask-type:luminance" maskUnits="userSpaceOnUse" x="0" y="0" width="61" height="60"><path d="M60.7 0H0.699997V60H60.7V0Z" fill="white"></path></mask><g mask="url(#mask0_1_35)"><path d="M51.8 37.4C51.3 37.2 50.8 37.4 50.6 37.9C49.4 40.9 47.7 43.7 45.6 46.2L41.7 50.7C41.6 50.9 41.5 51.1 41.5 51.3V57.8H21V52.2H29.5C30.9 52.2 32.2 51.4 32.8 50.1L33.9 47.9C34.1 47.4 33.9 46.9 33.5 46.7C33 46.5 32.5 46.7 32.3 47.1L31.2 49.3C30.9 49.9 30.2 50.3 29.5 50.3H12.6C11.1 50.3 9.8 49 9.8 47.5V40.1C9.8 39.6 9.39999 39.2 8.89999 39.2H6.19999C5.09999 39.2 4.29999 38.3 4.29999 37.3C4.29999 36.9 4.39999 36.5 4.59999 36.2L9.69999 28.6C9.79999 28.5 9.89999 28.3 9.89999 28.1V27.2C9.89999 18.7 15 11 22.8 7.6C23.3 7.4 23.5 6.8 23.3 6.4C23.1 5.9 22.5 5.7 22.1 5.9C13.6 9.6 8.09999 18 8.09999 27.2V27.9L3.19999 35.3C2.79999 35.9 2.59999 36.6 2.59999 37.4C2.59999 39.5 4.29999 41.2 6.39999 41.2H7.99999V47.7C7.99999 50.3 10.1 52.3 12.6 52.3H19.1V58.8C19.1 59.3 19.5 59.7 20 59.7H42.3C42.8 59.7 43.2 59.3 43.2 58.8V51.7L46.9 47.4C49.2 44.8 50.9 41.8 52.2 38.6C52.5 38.1 52.2 37.6 51.8 37.4Z" fill="#1B54F8" stroke="white" stroke-width="0.25" stroke-miterlimit="10"></path><path d="M34 21.6H26.6C26.1 21.6 25.7 22 25.7 22.5C25.7 23 26.1 23.4 26.6 23.4H33.1V26.2C33.1 26.7 33.5 27.1 34 27.1C34.5 27.1 34.9 26.7 34.9 26.2V22.5C34.9 22 34.5 21.6 34 21.6Z" fill="#1B54F8" stroke="white" stroke-width="0.25" stroke-miterlimit="10"></path><path d="M34 29H27.5V26.2C27.5 25.7 27.1 25.3 26.6 25.3C26.1 25.3 25.7 25.7 25.7 26.2V29.9C25.7 30.4 26.1 30.8 26.6 30.8H34C34.5 30.8 34.9 30.4 34.9 29.9C34.9 29.4 34.5 29 34 29Z" fill="#1B54F8" stroke="white" stroke-width="0.25" stroke-miterlimit="10"></path><path d="M30.3 27.1C30.7971 27.1 31.2 26.697 31.2 26.2C31.2 25.7029 30.7971 25.3 30.3 25.3C29.8029 25.3 29.4 25.7029 29.4 26.2C29.4 26.697 29.8029 27.1 30.3 27.1Z" fill="#1B54F8" stroke="white" stroke-width="0.25" stroke-miterlimit="10"></path><path d="M42.4 11.4C42.4 12.9 43.7 14.2 45.2 14.2C45.4 14.2 45.7 14.2 45.9 14.1L48.2 17.5C48.4 17.8 48.7 17.9 49 17.9H51C51.4 19 52.4 19.8 53.6 19.8C55.1 19.8 56.4 18.5 56.4 17C56.4 15.5 55.1 14.2 53.6 14.2C52.4 14.2 51.4 15 51 16.1H49.5L47.5 13.1C47.9 12.6 48.1 12.1 48.1 11.4C48.1 9.89999 46.8 8.59999 45.3 8.59999C43.6 8.59999 42.4 9.79999 42.4 11.4ZM53.5 16C54 16 54.4 16.4 54.4 16.9C54.4 17.4 54 17.8 53.5 17.8C53 17.8 52.6 17.4 52.6 16.9C52.6 16.4 53 16 53.5 16ZM46.1 11.4C46.1 11.9 45.7 12.3 45.2 12.3C44.7 12.3 44.3 11.9 44.3 11.4C44.3 10.9 44.7 10.5 45.2 10.5C45.7 10.4 46.1 10.9 46.1 11.4Z" fill="#1B54F8" stroke="white" stroke-width="0.25" stroke-miterlimit="10"></path><path d="M55.4 26.2C53.9 26.2 52.6 27.5 52.6 29C52.6 29.4 52.7 29.8 52.9 30.2L47.6 35.5H39.6C39.1 35.5 38.7 35.9 38.7 36.4V39.4C37.6 39.8 36.8 40.8 36.8 42C36.8 43.5 38.1 44.8 39.6 44.8C41.1 44.8 42.4 43.5 42.4 42C42.4 40.8 41.6 39.8 40.5 39.4V37.4H47.9C48.2 37.4 48.4 37.3 48.6 37.1L54.2 31.5C54.6 31.7 55 31.8 55.4 31.8C56.9 31.8 58.2 30.5 58.2 29C58.2 27.5 56.9 26.2 55.4 26.2ZM39.6 43C39.1 43 38.7 42.6 38.7 42.1C38.7 41.6 39.1 41.2 39.6 41.2C40.1 41.2 40.5 41.6 40.5 42.1C40.5 42.5 40.1 43 39.6 43ZM55.4 30C55.1 30 54.9 29.9 54.7 29.7C54.5 29.5 54.4 29.3 54.4 29C54.4 28.5 54.8 28.1 55.3 28.1C55.8 28.1 56.2 28.5 56.2 29C56.2 29.5 55.9 30 55.4 30Z" fill="#1B54F8" stroke="white" stroke-width="0.25" stroke-miterlimit="10"></path><path d="M25.6 5.59999V8.59999C25.6 8.89999 25.7 9.2 26 9.3L29.3 11.8V17.8H27.4V14.1C27.4 13.6 27 13.2 26.5 13.2H23.5C23.1 12.1 22.1 11.3 20.9 11.3C19.4 11.3 18.1 12.6 18.1 14.1C18.1 15.6 19.4 16.9 20.9 16.9C22.1 16.9 23.1 16.1 23.5 15H25.5V17.8H24.6C23.1 17.8 21.8 19.1 21.8 20.6V21.5H18.1C17.6 21.5 17.2 21.9 17.2 22.4C17.2 22.9 17.6 23.3 18.1 23.3H21.8V25.2H16.2C15.7 25.2 15.3 25.6 15.3 26.1C15.3 26.6 15.7 27 16.2 27H21.8V29H19.9C19.4 29 19 29.4 19 29.9C19 30.4 19.4 30.8 19.9 30.8H21.8V31.7C21.8 33.2 23.1 34.5 24.6 34.5H25.5V38.2C25.5 38.7 25.9 39.1 26.4 39.1C26.9 39.1 27.3 38.7 27.3 38.2V34.5H29.2V40.1C29.2 40.6 29.6 41 30.1 41C30.6 41 31 40.6 31 40.1V34.5H32.9V36.4C32.9 36.9 33.3 37.3 33.8 37.3C34.3 37.3 34.7 36.9 34.7 36.4V34.5H35.6C37.1 34.5 38.4 33.2 38.4 31.7H41.4C41.8 32.8 42.8 33.6 44 33.6C45.5 33.6 46.8 32.3 46.8 30.8C46.8 30.6 46.8 30.5 46.8 30.3L50.3 26.8C50.7 26.4 50.7 25.9 50.3 25.5C49.9 25.1 49.4 25.1 49 25.5L45.8 28.7C45.3 28.3 44.7 28.1 44 28.1C42.8 28.1 41.8 28.9 41.4 30H38.4V22.6H42.3C42.7 23.7 43.7 24.5 44.9 24.5C46.4 24.5 47.7 23.2 47.7 21.7C47.7 20.2 46.4 18.9 44.9 18.9C43.7 18.9 42.7 19.7 42.3 20.8H38.4C38.4 19.6 37.6 18.6 36.5 18.2V16C37.6 15.6 38.4 14.6 38.4 13.4C38.4 12.2 37.6 11.2 36.5 10.8V10.1L40.9 5.69999C41.3 5.89999 41.7 5.99999 42.1 5.99999C43.6 5.99999 44.9 4.69999 44.9 3.19999C44.9 1.69999 43.6 0.399994 42.1 0.399994C40.6 0.399994 39.3 1.69999 39.3 3.19999C39.3 3.59999 39.4 3.99999 39.6 4.39999L34.9 9.09999C34.7 9.29999 34.6 9.5 34.6 9.8V10.9C33.5 11.3 32.7 12.3 32.7 13.5C32.7 14.7 33.5 15.7 34.6 16.1V18.1H30.9V11.6C30.9 11.3 30.8 11 30.5 10.9L27.2 8.39999V5.89999C28.3 5.49999 29.1 4.5 29.1 3.3C29.1 1.8 27.8 0.499992 26.3 0.499992C24.8 0.499992 23.5 1.8 23.5 3.3C23.8 4.2 24.6 5.19999 25.6 5.59999ZM21 15.1C20.5 15.1 20.1 14.7 20.1 14.2C20.1 13.7 20.5 13.3 21 13.3C21.5 13.3 21.9 13.7 21.9 14.2C21.9 14.7 21.5 15.1 21 15.1ZM44.2 30C44.7 30 45.1 30.4 45.1 30.9C45.1 31.4 44.7 31.8 44.2 31.8C43.7 31.8 43.3 31.4 43.3 30.9C43.3 30.4 43.7 30 44.2 30ZM45.1 20.7C45.6 20.7 46 21.1 46 21.6C46 22.1 45.6 22.5 45.1 22.5C44.6 22.5 44.2 22.1 44.2 21.6C44.2 21.1 44.6 20.7 45.1 20.7ZM42.4 2.09999C42.9 2.09999 43.3 2.49999 43.3 2.99999C43.3 3.49999 42.9 3.89999 42.4 3.89999C42.1 3.89999 41.9 3.79999 41.7 3.59999C41.5 3.39999 41.4 3.19999 41.4 2.89999C41.4 2.49999 41.8 2.09999 42.4 2.09999ZM36.8 31.8C36.8 32.3 36.4 32.7 35.9 32.7H24.7C24.2 32.7 23.8 32.3 23.8 31.8V20.7C23.8 20.2 24.2 19.8 24.7 19.8H35.9C36.4 19.8 36.8 20.2 36.8 20.7V31.8ZM35.9 12.3C36.4 12.3 36.8 12.7 36.8 13.2C36.8 13.7 36.4 14.1 35.9 14.1C35.4 14.1 35 13.7 35 13.2C35 12.7 35.3 12.3 35.9 12.3ZM26.6 2.09999C27.1 2.09999 27.5 2.49999 27.5 2.99999C27.5 3.49999 27.1 3.89999 26.6 3.89999C26.1 3.89999 25.7 3.49999 25.7 2.99999C25.6 2.49999 26.1 2.09999 26.6 2.09999Z" fill="#1B54F8" stroke="white" stroke-width="0.25" stroke-miterlimit="10"></path></g></svg> 