<?xml version="1.0" encoding="UTF-8"?> <svg xmlns="http://www.w3.org/2000/svg" xmlns:xlink="http://www.w3.org/1999/xlink" width="90" height="90" viewBox="0 0 90 90"><defs><clipPath id="clip-path"><rect id="Rectangle_4" data-name="Rectangle 4" width="90" height="90" fill="#fff"></rect></clipPath></defs><g id="Mask_Group_3" data-name="Mask Group 3" clip-path="url(#clip-path)"><g id="Group_114" data-name="Group 114" transform="translate(7 3)"><path id="Path_1" data-name="Path 1" d="M214.668,80.775l-2.434-.578a2.2,2.2,0,0,1-1.628-2.662,2,2,0,0,1,.263-.63l1.313-2.154a1.379,1.379,0,0,0-.21-1.716l-3.117-3.117a1.405,1.405,0,0,0-1.716-.21l-2.154,1.313a2.21,2.21,0,0,1-3.292-1.366l-.578-2.434a1.4,1.4,0,0,0-1.366-1.068H197.49a8.468,8.468,0,0,0,1.453-4.745v-34.3a8.407,8.407,0,0,0-8.4-8.4,7.877,7.877,0,0,0-1.7.175l-34.023,7a8.45,8.45,0,0,0-6.689,7.635l-1,14.061-6.9,15.181a1.412,1.412,0,0,0,.7,1.856,1.32,1.32,0,0,0,.578.123h5.6v16.88a4.192,4.192,0,0,0,4.2,4.2,4.253,4.253,0,0,0,1.558-.3l11.049-4.413v21.449h2.8V79.97l10.331-4.132-1.033-2.609-24.2,9.683A1.409,1.409,0,0,1,150,82.123a1.34,1.34,0,0,1-.105-.525V63.334a1.4,1.4,0,0,0-1.4-1.4h-4.833l6.111-13.43a1.573,1.573,0,0,0,.123-.473l1.016-14.323a5.638,5.638,0,0,1,4.465-5.1l34.023-7a5.606,5.606,0,0,1,6.619,4.36,6.122,6.122,0,0,1,.123,1.138V61.391a5.572,5.572,0,0,1-3.52,5.2l.946,2.346-.175.7a2.2,2.2,0,0,1-2.662,1.628A2,2,0,0,1,190.1,71l-2.154-1.313a1.379,1.379,0,0,0-1.716.21l-3.117,3.117a1.405,1.405,0,0,0-.21,1.716l1.313,2.154a2.21,2.21,0,0,1-1.366,3.292l-2.434.578a1.4,1.4,0,0,0-1.068,1.366v4.413a1.4,1.4,0,0,0,1.068,1.366l2.434.578a2.2,2.2,0,0,1,1.629,2.662,2,2,0,0,1-.263.63L182.9,93.925a1.379,1.379,0,0,0,.21,1.716l3.117,3.117a1.405,1.405,0,0,0,1.716.21l2.154-1.313a2.21,2.21,0,0,1,3.292,1.366l.578,2.434a1.4,1.4,0,0,0,1.366,1.068h4.412a1.4,1.4,0,0,0,1.366-1.068l.578-2.434a2.2,2.2,0,0,1,2.662-1.628,2,2,0,0,1,.63.263l2.154,1.313a1.379,1.379,0,0,0,1.716-.21l3.117-3.117a1.405,1.405,0,0,0,.21-1.716l-1.313-2.154a2.21,2.21,0,0,1,1.366-3.292l2.434-.578a1.4,1.4,0,0,0,1.068-1.366V82.123a1.4,1.4,0,0,0-1.068-1.348Zm-1.734,4.675-1.366.333a5,5,0,0,0-3.695,6.041,5.526,5.526,0,0,0,.6,1.453l.735,1.208-1.558,1.558-1.208-.735a4.985,4.985,0,0,0-7.477,3.1l-.333,1.366h-2.206l-.333-1.366a5,5,0,0,0-6.041-3.695,5.526,5.526,0,0,0-1.453.6l-1.208.735-1.558-1.558.735-1.208a4.985,4.985,0,0,0-3.1-7.477l-1.366-.333V83.262l1.366-.333a5,5,0,0,0,3.695-6.041,5.526,5.526,0,0,0-.6-1.453l-.735-1.208,1.558-1.558,1.208.735a4.985,4.985,0,0,0,7.477-3.1l.333-1.366h2.206l.333,1.366A5,5,0,0,0,204.985,74a5.526,5.526,0,0,0,1.453-.6l1.208-.735,1.558,1.558-.735,1.208a4.985,4.985,0,0,0,3.1,7.477l1.366.333Z" transform="translate(-140.109 -18.701)" fill="#1b54f8"></path><path id="Path_2" data-name="Path 2" d="M232.507,171.531a4.2,4.2,0,1,0,5.6-3.957V149.118a1.418,1.418,0,0,0-.4-1l-5.6-5.6-1.979,1.979,5.2,5.2v17.878a4.183,4.183,0,0,0-2.819,3.957Zm4.2,1.4a1.4,1.4,0,1,1,1.4-1.4A1.4,1.4,0,0,1,236.709,172.932Z" transform="translate(-215.714 -122.694)" fill="#1b54f8"></path><path id="Path_3" data-name="Path 3" d="M348.346,108.536a4.2,4.2,0,1,0,4.2-4.2,4.38,4.38,0,0,0-1.821.4l-6.584-6.584V79.7l5.2-5.2-1.979-1.979-5.6,5.6a1.388,1.388,0,0,0-.4,1V98.731a1.418,1.418,0,0,0,.4,1l7,7a4.013,4.013,0,0,0-.42,1.8Zm5.6,0a1.4,1.4,0,1,1-1.4-1.4A1.4,1.4,0,0,1,353.949,108.536Z" transform="translate(-309.14 -63.902)" fill="#1b54f8"></path><path id="Path_4" data-name="Path 4" d="M397.315,65.854l-1.979-1.979-7,7a1.388,1.388,0,0,0-.4,1V86.131a4.2,4.2,0,1,0,2.8,0V72.455Zm-8,25.618a1.4,1.4,0,1,1,1.4-1.4A1.4,1.4,0,0,1,389.313,91.472Z" transform="translate(-345.905 -56.643)" fill="#1b54f8"></path><path id="Path_5" data-name="Path 5" d="M275.82,134.785a4.2,4.2,0,0,0,0-8.4,4.38,4.38,0,0,0-1.821.4l-1-1V105.368a1.418,1.418,0,0,0-.4-1l-5.6-5.6-1.979,1.979,5.2,5.2V126.38a1.418,1.418,0,0,0,.4,1l1.4,1.4a4.2,4.2,0,0,0,1.979,5.6,4.38,4.38,0,0,0,1.821.4Zm1.4-4.2a1.4,1.4,0,1,1-1.4-1.4A1.4,1.4,0,0,1,277.221,130.583Z" transform="translate(-245.019 -85.949)" fill="#1b54f8"></path><path id="Path_6" data-name="Path 6" d="M462,385a7,7,0,1,0,7,7A7,7,0,0,0,462,385Zm0,11.207a4.2,4.2,0,1,1,4.2-4.2A4.192,4.192,0,0,1,462,396.207Z" transform="translate(-404.588 -326.358)" fill="#1b54f8"></path><path id="Path_7" data-name="Path 7" d="M591.9,313.387l2.136-1.821a25.325,25.325,0,0,0-2.907-2.907l-1.821,2.136a22.64,22.64,0,0,1,2.592,2.592Z" transform="translate(-517.398 -262.238)" fill="#1b54f8"></path><path id="Path_8" data-name="Path 8" d="M532.851,277.084a25.077,25.077,0,0,0-8.9-3.432l-.49,2.767a22.277,22.277,0,0,1,7.915,3.047Z" transform="translate(-462.092 -232.836)" fill="#1b54f8"></path><path id="Path_9" data-name="Path 9" d="M344.588,401.458l-2.767-.49a24.341,24.341,0,0,0-.35,2.959l2.8.158a22.382,22.382,0,0,1,.315-2.626Z" transform="translate(-309.234 -339.769)" fill="#1b54f8"></path><path id="Path_10" data-name="Path 10" d="M344.272,436.946l-2.8.158a25.325,25.325,0,0,0,8.93,17.807l1.8-2.136a22.5,22.5,0,0,1-7.932-15.829Z" transform="translate(-309.233 -369.987)" fill="#1b54f8"></path></g></g></svg> 