<?xml version="1.0" encoding="UTF-8"?> <svg xmlns="http://www.w3.org/2000/svg" xmlns:xlink="http://www.w3.org/1999/xlink" width="60" height="60" viewBox="0 0 60 60"><defs><clipPath id="clip-path"><rect id="Rectangle_63" data-name="Rectangle 63" width="60" height="60" transform="translate(282 42)" fill="#fff" stroke="#707070" stroke-width="1"></rect></clipPath></defs><g id="Mask_Group_19" data-name="Mask Group 19" transform="translate(-282 -42)" clip-path="url(#clip-path)"><g id="Group_24" data-name="Group 24" transform="translate(-1690.601 221)"><path id="Path_74" data-name="Path 74" d="M49.783,38.95a2.035,2.035,0,0,0-2.867-.243L40.6,44.038,39.23,42.3a2.117,2.117,0,0,0-3.324,2.619l2.929,3.717a1.76,1.76,0,0,0,1.231.676,1.916,1.916,0,0,0,.193.01,1.754,1.754,0,0,0,1.15-.425l8.237-6.953a1.942,1.942,0,0,0,.723-1.531A2.354,2.354,0,0,0,49.783,38.95ZM48.7,40.823l-8.237,6.954a.335.335,0,0,1-.48-.049L37.056,44.01c-.307-.39.008-.733.223-.9a.566.566,0,0,1,.351-.121.584.584,0,0,1,.069,0,.566.566,0,0,1,.381.212l1.84,2.336a.733.733,0,0,0,1.045.106l6.895-5.819a.573.573,0,0,1,.8.068.916.916,0,0,1,.241.54A.474.474,0,0,1,48.7,40.823Zm-1.357-7.358V4.43a.732.732,0,0,0-.732-.732H43.647V.732A.732.732,0,0,0,42.915,0H15.97c-.016,0-.03.008-.046.009a.705.705,0,0,0-.188.037.619.619,0,0,0-.07.025.708.708,0,0,0-.213.142h0L8.815,6.852a.723.723,0,0,0-.144.214c-.01.023-.016.046-.025.069a.728.728,0,0,0-.037.188c0,.016-.009.03-.009.046V47.387a.732.732,0,0,0,.732.731H12.3v2.967a.732.732,0,0,0,.732.732H35.1A11.22,11.22,0,1,0,47.345,33.465Zm-1.464-28.3v27.8a11.127,11.127,0,0,0-2.234-.374V5.162ZM13.169,4.568,15.238,2.5V6.637H11.1ZM10.065,8.1H15.97A.732.732,0,0,0,16.7,7.37V1.464h25.48V32.587a11.165,11.165,0,0,0-10.1,14.068H10.065Zm3.7,40.017h18.8a11.185,11.185,0,0,0,1.274,2.235H13.765Zm29.149,5.416a9.761,9.761,0,1,1,0-19.521h0a9.761,9.761,0,1,1,0,19.521ZM22.976,9.432a.732.732,0,0,1,.732-.732H38.084a.732.732,0,0,1,0,1.464H23.708A.732.732,0,0,1,22.976,9.432Zm-9.544,5.555a.732.732,0,0,1,.732-.732h11.28a.732.732,0,1,1,0,1.464H14.164a.732.732,0,0,1-.732-.73Zm25.384,0a.731.731,0,0,1-.731.732H29.807a.732.732,0,0,1,0-1.464h8.277a.731.731,0,0,1,.731.734Zm0,5.558a.731.731,0,0,1-.731.731H33.2a.732.732,0,1,1,0-1.464h4.883a.731.731,0,0,1,.731.734Zm-25.384,0a.732.732,0,0,1,.732-.732H29.728a.732.732,0,1,1,0,1.464H14.164a.732.732,0,0,1-.732-.729ZM38.816,26.1a.731.731,0,0,1-.731.732H20.433a.732.732,0,0,1,0-1.464H38.084a.731.731,0,0,1,.731.736Zm-25.384,0a.732.732,0,0,1,.732-.732h2.8a.732.732,0,1,1,0,1.464h-2.8a.732.732,0,0,1-.732-.728Zm0,5.555a.731.731,0,0,1,.732-.731H24.715a.732.732,0,0,1,0,1.464H14.164a.732.732,0,0,1-.732-.725Zm25.384,0a.731.731,0,0,1-.731.732H27.868a.732.732,0,1,1,0-1.464H38.084a.731.731,0,0,1,.731.738ZM13.432,37.21a.732.732,0,0,1,.732-.732h11.96a.732.732,0,0,1,0,1.464H14.164a.732.732,0,0,1-.732-.723Z" transform="translate(1971 -176)" fill="#1c54f8" stroke="#fff" stroke-width="0.4"></path></g></g></svg> 