<?xml version="1.0" encoding="UTF-8"?> <svg xmlns="http://www.w3.org/2000/svg" width="90" height="90" viewBox="0 0 90 90" fill="none"><g clip-path="url(#clip0_5_168)"><mask id="mask0_5_168" style="mask-type:luminance" maskUnits="userSpaceOnUse" x="0" y="0" width="90" height="90"><path d="M90 0H0V90H90V0Z" fill="white"></path></mask><g mask="url(#mask0_5_168)"><path d="M78.4471 62.571L76.2286 62.0445C75.9716 61.9832 75.7292 61.8718 75.5154 61.7165C75.3016 61.5613 75.1206 61.3654 74.9827 61.14C74.8449 60.9146 74.7529 60.6642 74.7121 60.4032C74.6713 60.1422 74.6825 59.8757 74.7451 59.619C74.7916 59.4151 74.8728 59.2208 74.9851 59.0445L76.1851 57.081C76.3363 56.8374 76.3997 56.5494 76.3648 56.2649C76.3298 55.9803 76.1987 55.7162 75.9931 55.5165L73.1521 52.6755C72.95 52.4736 72.6863 52.3451 72.4028 52.3103C72.1194 52.2756 71.8324 52.3365 71.5876 52.4835L69.6241 53.6835C69.3535 53.8472 69.0482 53.945 68.7328 53.9688C68.4174 53.9927 68.1009 53.9419 67.8088 53.8207C67.5167 53.6995 67.2572 53.5112 67.0514 53.271C66.8456 53.0309 66.6992 52.7457 66.6241 52.4385L66.0976 50.22C66.029 49.9417 65.8691 49.6945 65.6433 49.518C65.4176 49.3415 65.1391 49.2459 64.8526 49.2465H62.7946C63.658 47.9696 64.1193 46.4634 64.1191 44.922V13.6605C64.1187 11.6289 63.3114 9.68064 61.8749 8.2441C60.4384 6.80757 58.4901 6.00035 56.4586 5.99996C55.9383 5.99672 55.4193 6.05003 54.9106 6.15895L23.9041 12.543C22.2716 12.8859 20.7945 13.7496 19.6952 15.0043C18.5958 16.2589 17.9336 17.8366 17.8081 19.5L16.8991 32.3145L10.6111 46.1505C10.4736 46.4598 10.4636 46.8109 10.5832 47.1276C10.7029 47.4443 10.9424 47.7012 11.2501 47.8425C11.4149 47.9188 11.5949 47.9568 11.7766 47.9535H16.8766V63.3375C16.8754 63.8407 16.9736 64.3392 17.1656 64.8043C17.3577 65.2695 17.6397 65.6921 17.9955 66.048C18.3514 66.4038 18.774 66.6858 19.2392 66.8779C19.7043 67.0699 20.2028 67.1681 20.7061 67.167C21.1924 67.1664 21.6743 67.0743 22.1266 66.8955L32.1961 62.874V82.4235H34.7461V61.8375L44.1616 58.071L43.2196 55.6935L21.1696 64.518C20.8542 64.6411 20.5029 64.6347 20.1922 64.5002C19.8815 64.3656 19.6365 64.1138 19.5106 63.7995C19.4467 63.648 19.414 63.4853 19.4146 63.321V46.671C19.4134 46.3328 19.2785 46.0088 19.0394 45.7696C18.8002 45.5305 18.4762 45.3956 18.1381 45.3945H13.7386L19.3081 33.1545C19.3672 33.0176 19.4047 32.8724 19.4191 32.724L20.3446 19.674C20.4269 18.5624 20.8683 17.5077 21.6023 16.669C22.3364 15.8302 23.3232 15.2529 24.4141 15.024L55.4206 8.63996C56.7473 8.36754 58.1278 8.63305 59.2588 9.37815C60.3899 10.1232 61.1787 11.2869 61.4521 12.6135C61.5214 12.9552 61.5586 13.3027 61.5631 13.6515V44.9055C61.567 45.9264 61.2631 46.9248 60.691 47.7703C60.1189 48.6159 59.3052 49.2694 58.3561 49.6455L59.2171 51.7845L59.0581 52.4235C58.9968 52.6805 58.8854 52.9228 58.7301 53.1366C58.5749 53.3504 58.379 53.5314 58.1536 53.6693C57.9282 53.8072 57.6778 53.8991 57.4168 53.9399C57.1558 53.9807 56.8893 53.9695 56.6326 53.907C56.4287 53.8604 56.2344 53.7792 56.0581 53.667L54.0946 52.467C53.851 52.3157 53.563 52.2523 53.2785 52.2873C52.9939 52.3222 52.7299 52.4533 52.5301 52.659L49.6921 55.5C49.4902 55.702 49.3617 55.9657 49.3269 56.2492C49.2922 56.5326 49.3531 56.8196 49.5001 57.0645L50.7001 59.028C50.8638 59.2985 50.9616 59.6038 50.9854 59.9192C51.0093 60.2346 50.9585 60.5511 50.8373 60.8432C50.7161 61.1354 50.5278 61.3948 50.2876 61.6006C50.0475 61.8065 49.7623 61.9529 49.4551 62.028L47.2366 62.5545C46.9583 62.623 46.7111 62.7829 46.5346 63.0087C46.3581 63.2344 46.2625 63.5129 46.2631 63.7995V67.821C46.2625 68.1075 46.3581 68.386 46.5346 68.6117C46.7111 68.8375 46.9583 68.9974 47.2366 69.066L49.4551 69.5925C49.7121 69.6537 49.9544 69.7652 50.1682 69.9204C50.382 70.0756 50.5631 70.2715 50.7009 70.4969C50.8388 70.7223 50.9307 70.9727 50.9715 71.2337C51.0123 71.4947 51.0011 71.7613 50.9386 72.018C50.892 72.2218 50.8108 72.4161 50.6986 72.5925L49.4971 74.55C49.3459 74.7935 49.2825 75.0815 49.3174 75.366C49.3523 75.6506 49.4834 75.9147 49.6891 76.1145L52.5301 78.9555C52.7321 79.1573 52.9958 79.2858 53.2793 79.3206C53.5627 79.3554 53.8497 79.2944 54.0946 79.1475L56.0581 77.9475C56.3286 77.7837 56.634 77.6859 56.9493 77.6621C57.2647 77.6382 57.5812 77.689 57.8734 77.8102C58.1655 77.9314 58.4249 78.1198 58.6307 78.3599C58.8366 78.6 58.983 78.8852 59.0581 79.1925L59.5846 81.411C59.6531 81.6892 59.813 81.9364 60.0388 82.1129C60.2645 82.2894 60.543 82.385 60.8296 82.3845H64.8511C65.1376 82.385 65.4161 82.2894 65.6418 82.1129C65.8676 81.9364 66.0275 81.6892 66.0961 81.411L66.6226 79.1925C66.6838 78.9355 66.7953 78.6931 66.9505 78.4793C67.1057 78.2655 67.3016 78.0845 67.527 77.9466C67.7524 77.8088 68.0028 77.7168 68.2638 77.676C68.5248 77.6352 68.7914 77.6464 69.0481 77.709C69.2519 77.7555 69.4462 77.8367 69.6226 77.949L71.5861 79.149C71.8296 79.3002 72.1176 79.3636 72.4021 79.3286C72.6867 79.2937 72.9508 79.1626 73.1506 78.957L75.9916 76.116C76.1934 75.9139 76.3219 75.6502 76.3567 75.3667C76.3915 75.0833 76.3305 74.7963 76.1836 74.5515L74.9836 72.588C74.8198 72.3174 74.722 72.0121 74.6982 71.6967C74.6743 71.3813 74.7251 71.0648 74.8463 70.7727C74.9675 70.4805 75.1559 70.2211 75.396 70.0153C75.6361 69.8095 75.9213 69.6631 76.2286 69.588L78.4471 69.0615C78.7253 68.9929 78.9725 68.833 79.149 68.6072C79.3255 68.3815 79.4212 68.103 79.4206 67.8165V63.801C79.4186 63.5168 79.3217 63.2414 79.1453 63.0185C78.969 62.7957 78.7232 62.6382 78.4471 62.571ZM76.8676 66.8325L75.6226 67.1325C75.0394 67.2717 74.4894 67.5248 74.0043 67.8771C73.5191 68.2294 73.1083 68.6741 72.7954 69.1855C72.4826 69.697 72.2738 70.2652 72.181 70.8576C72.0883 71.45 72.1135 72.0548 72.2551 72.6375C72.3721 73.1026 72.5549 73.5486 72.7981 73.962L73.4686 75.063L72.0481 76.4835L70.9471 75.813C70.3343 75.4337 69.6401 75.2056 68.9218 75.1475C68.2036 75.0894 67.4817 75.2031 66.816 75.479C66.1503 75.7549 65.5598 76.1852 65.0932 76.7344C64.6266 77.2836 64.2973 77.9359 64.1326 78.6375L63.8326 79.8825H61.8226L61.5226 78.6375C61.3833 78.0543 61.1303 77.5043 60.7779 77.0192C60.4256 76.534 59.981 76.1232 59.4695 75.8103C58.958 75.4975 58.3898 75.2887 57.7974 75.1959C57.205 75.1032 56.6002 75.1283 56.0176 75.27C55.5525 75.387 55.1065 75.5698 54.6931 75.813L53.5921 76.4835L52.1716 75.063L52.8421 73.962C53.2214 73.3492 53.4494 72.655 53.5075 71.9367C53.5656 71.2184 53.452 70.4966 53.176 69.8309C52.9001 69.1652 52.4698 68.5747 51.9206 68.1081C51.3714 67.6415 50.7191 67.3122 50.0176 67.1475L48.7726 66.8475V64.8375L50.0176 64.5375C50.6007 64.3982 51.1507 64.1452 51.6359 63.7928C52.121 63.4405 52.5318 62.9959 52.8447 62.4844C53.1576 61.9729 53.3664 61.4047 53.4591 60.8123C53.5518 60.2199 53.5267 59.6151 53.3851 59.0325C53.268 58.5674 53.0852 58.1214 52.8421 57.708L52.1716 56.607L53.5921 55.1865L54.6931 55.857C55.3058 56.234 55.9994 56.4602 56.7166 56.5169C57.4339 56.5735 58.1543 56.459 58.8187 56.1828C59.483 55.9065 60.0723 55.4765 60.5379 54.928C61.0036 54.3795 61.3323 53.7283 61.4971 53.028L61.7971 51.783H63.8071L64.1071 53.028C64.2463 53.6111 64.4994 54.1611 64.8517 54.6462C65.204 55.1314 65.6487 55.5422 66.1601 55.8551C66.6716 56.168 67.2398 56.3768 67.8322 56.4695C68.4246 56.5622 69.0294 56.5371 69.6121 56.3955C70.0772 56.2784 70.5232 56.0956 70.9366 55.8525L72.0376 55.182L73.4581 56.6025L72.7876 57.7035C72.4083 58.3162 72.1802 59.0104 72.1221 59.7287C72.064 60.447 72.1777 61.1688 72.4536 61.8345C72.7295 62.5002 73.1598 63.0907 73.709 63.5573C74.2582 64.0239 74.9105 64.3532 75.6121 64.518L76.8571 64.818L76.8676 66.8325Z" fill="#1C54F8" stroke="white" stroke-width="0.4"></path><path d="M25.8031 50.5065C25.8008 51.2093 25.992 51.8993 26.3557 52.5007C26.7194 53.1022 27.2417 53.5919 27.8652 53.9163C28.4888 54.2407 29.1895 54.3872 29.8908 54.3398C30.5921 54.2925 31.2668 54.053 31.841 53.6476C32.4152 53.2423 32.8668 52.6868 33.1463 52.0418C33.4258 51.3969 33.5224 50.6875 33.4256 49.9914C33.3287 49.2952 33.0421 48.6391 32.5972 48.095C32.1523 47.5509 31.5662 47.1397 30.9031 46.9065V30.081C30.9047 29.7415 30.7727 29.415 30.5356 29.172L25.4356 24.072L23.6356 25.872L28.3756 30.612V46.905C27.6253 47.1629 26.9742 47.6485 26.5131 48.2941C26.0519 48.9397 25.8038 49.7131 25.8031 50.5065ZM29.6326 51.783C29.3802 51.783 29.1334 51.7081 28.9235 51.5678C28.7135 51.4276 28.5499 51.2282 28.4533 50.995C28.3567 50.7617 28.3314 50.5051 28.3807 50.2574C28.4299 50.0098 28.5515 49.7824 28.73 49.6038C28.9085 49.4253 29.136 49.3038 29.3836 49.2545C29.6312 49.2052 29.8879 49.2305 30.1211 49.3271C30.3544 49.4238 30.5537 49.5874 30.694 49.7973C30.8343 50.0072 30.9091 50.254 30.9091 50.5065C30.9084 50.8449 30.7736 51.1693 30.5345 51.4088C30.2953 51.6482 29.9711 51.7818 29.6326 51.783Z" fill="#1C54F8" stroke="white" stroke-width="0.4"></path><path d="M46.2302 46.677C46.2302 47.4344 46.4548 48.1748 46.8756 48.8046C47.2963 49.4343 47.8944 49.9252 48.5942 50.215C49.2939 50.5049 50.0639 50.5807 50.8068 50.4329C51.5496 50.2852 52.232 49.9205 52.7675 49.3849C53.3031 48.8493 53.6678 48.167 53.8156 47.4241C53.9634 46.6813 53.8875 45.9113 53.5977 45.2115C53.3078 44.5118 52.817 43.9137 52.1872 43.4929C51.5575 43.0721 50.8171 42.8475 50.0597 42.8475C49.4867 42.8495 48.9209 42.9749 48.4007 43.215L42.4007 37.215V20.394L47.1407 15.654L45.3407 13.854L40.2407 18.954C40.122 19.0735 40.0284 19.2154 39.9652 19.3715C39.9021 19.5276 39.8708 19.6947 39.8732 19.863V37.74C39.8716 38.0795 40.0036 38.406 40.2407 38.649L46.6247 45.033C46.3666 45.5427 46.2315 46.1057 46.2302 46.677ZM51.3302 46.677C51.3302 46.9295 51.2553 47.1763 51.115 47.3862C50.9748 47.5961 50.7754 47.7598 50.5422 47.8564C50.3089 47.953 50.0523 47.9783 49.8046 47.929C49.557 47.8797 49.3296 47.7582 49.1511 47.5797C48.9725 47.4011 48.851 47.1737 48.8017 46.9261C48.7525 46.6784 48.7777 46.4218 48.8743 46.1885C48.971 45.9553 49.1346 45.7559 49.3445 45.6157C49.5544 45.4754 49.8012 45.4005 50.0537 45.4005C50.3929 45.4001 50.7184 45.5343 50.9589 45.7736C51.1993 46.0129 51.335 46.3378 51.3362 46.677H51.3302Z" fill="#1C54F8" stroke="white" stroke-width="0.4"></path><path d="M57.3525 14.391L55.5525 12.591L49.1685 18.975C49.0498 19.0944 48.9562 19.2363 48.8931 19.3924C48.8299 19.5485 48.7986 19.7156 48.801 19.884V32.874C47.9499 33.1747 47.2325 33.7667 46.7757 34.5453C46.3189 35.3239 46.152 36.2389 46.3046 37.1286C46.4572 38.0183 46.9194 38.8254 47.6095 39.4073C48.2997 39.9892 49.1733 40.3083 50.076 40.3083C50.9787 40.3083 51.8523 39.9892 52.5425 39.4073C53.2326 38.8254 53.6948 38.0183 53.8474 37.1286C54 36.2389 53.8332 35.3239 53.3763 34.5453C52.9195 33.7667 52.2021 33.1747 51.351 32.874V20.4105L57.3525 14.391ZM50.0595 37.7385C49.8071 37.7385 49.5602 37.6636 49.3503 37.5233C49.1404 37.3831 48.9768 37.1837 48.8802 36.9505C48.7836 36.7172 48.7583 36.4606 48.8075 36.2129C48.8568 35.9653 48.9784 35.7379 49.1569 35.5593C49.3354 35.3808 49.5629 35.2593 49.8105 35.21C50.0581 35.1607 50.3148 35.186 50.548 35.2826C50.7813 35.3793 50.9806 35.5429 51.1209 35.7528C51.2612 35.9627 51.336 36.2095 51.336 36.462C51.3356 36.8007 51.2011 37.1254 50.9619 37.3652C50.7226 37.605 50.3982 37.7403 50.0595 37.7415V37.7385Z" fill="#1C54F8" stroke="white" stroke-width="0.4"></path><path d="M38.5696 50.508C39.5855 50.508 40.5597 50.1044 41.278 49.3861C41.9963 48.6678 42.3999 47.6936 42.3999 46.6777C42.3999 45.6619 41.9963 44.6876 41.278 43.9693C40.5597 43.251 39.5855 42.8475 38.5696 42.8475C37.9967 42.8495 37.4308 42.9748 36.9106 43.215L36.0016 42.306V23.706C36.0032 23.3665 35.8712 23.04 35.6341 22.797L30.5341 17.697L28.7341 19.497L33.4741 24.237V42.8595C33.4725 43.199 33.6045 43.5255 33.8416 43.7685L35.1181 45.045C34.9013 45.498 34.7759 45.9893 34.7491 46.4908C34.7222 46.9924 34.7944 47.4943 34.9616 47.9679C35.1287 48.4415 35.3876 48.8775 35.7233 49.2511C36.059 49.6246 36.465 49.9284 36.9181 50.145C37.4364 50.3825 37.9995 50.5063 38.5696 50.508ZM39.8461 46.6785C39.8461 46.9309 39.7713 47.1777 39.631 47.3876C39.4907 47.5976 39.2914 47.7612 39.0581 47.8578C38.8249 47.9544 38.5682 47.9797 38.3206 47.9304C38.073 47.8812 37.8455 47.7596 37.667 47.5811C37.4885 47.4026 37.3669 47.1751 37.3177 46.9275C37.2684 46.6799 37.2937 46.4232 37.3903 46.19C37.4869 45.9567 37.6505 45.7574 37.8604 45.6171C38.0703 45.4768 38.3172 45.402 38.5696 45.402C38.9078 45.4031 39.2318 45.538 39.4709 45.7772C39.7101 46.0163 39.8449 46.3403 39.8461 46.6785Z" fill="#1C54F8" stroke="white" stroke-width="0.4"></path><path d="M62.8246 59.4435C61.5619 59.4435 60.3275 59.818 59.2776 60.5196C58.2278 61.2211 57.4095 62.2182 56.9264 63.3848C56.4432 64.5515 56.3169 65.8351 56.5633 67.0735C56.8098 68.312 57.418 69.4495 58.3109 70.3423C59.2039 71.235 60.3416 71.8429 61.58 72.0891C62.8185 72.3352 64.1022 72.2086 65.2687 71.7252C66.4352 71.2417 67.4321 70.4233 68.1334 69.3732C68.8347 68.3232 69.2088 67.0888 69.2085 65.8261C69.2087 64.9877 69.0438 64.1575 68.723 63.383C68.4022 62.6084 67.932 61.9047 67.3391 61.312C66.7462 60.7192 66.0424 60.2491 65.2677 59.9285C64.4931 59.608 63.6629 59.4431 62.8246 59.4435ZM62.8246 69.657C62.0672 69.657 61.3268 69.4325 60.697 69.0117C60.0673 68.5909 59.5764 67.9928 59.2866 67.293C58.9967 66.5933 58.9209 65.8233 59.0687 65.0804C59.2164 64.3376 59.5812 63.6552 60.1167 63.1197C60.6523 62.5841 61.3346 62.2194 62.0775 62.0716C62.8203 61.9238 63.5903 61.9997 64.2901 62.2896C64.9898 62.5794 65.5879 63.0702 66.0087 63.7C66.4295 64.3297 66.6541 65.0702 66.6541 65.8276C66.6553 66.3308 66.557 66.8293 66.365 67.2944C66.1729 67.7596 65.8909 68.1822 65.5351 68.5381C65.1792 68.8939 64.7566 69.1759 64.2915 69.368C63.8263 69.56 63.3278 69.6582 62.8246 69.657Z" fill="#1C54F8" stroke="white" stroke-width="0.4"></path><path d="M78.4022 52.6125L80.3522 50.9535C79.5424 50.0001 78.6565 49.1142 77.7032 48.3045L76.0442 50.2545C76.8925 50.9756 77.6811 51.7642 78.4022 52.6125Z" fill="#1C54F8" stroke="white" stroke-width="0.4"></path><path d="M74.9821 46.326C72.5067 44.7755 69.7571 43.7139 66.8821 43.1985L66.4321 45.72C68.9923 46.175 71.4411 47.1176 73.6456 48.4965L74.9821 46.326Z" fill="#1C54F8" stroke="white" stroke-width="0.4"></path><path d="M42.7186 62.2245L40.1971 61.7745C40.0355 62.6671 39.9288 63.5688 39.8776 64.4745L42.4276 64.6245C42.477 63.8194 42.5742 63.018 42.7186 62.2245Z" fill="#1C54F8" stroke="white" stroke-width="0.4"></path><path d="M42.4276 67.0245L39.8776 67.1745C40.0666 70.2895 40.8853 73.3338 42.2842 76.1234C43.6832 78.9129 45.6332 81.3899 48.0166 83.4045L49.6666 81.4545C47.5463 79.6642 45.8115 77.4622 44.5672 74.9819C43.3229 72.5015 42.595 69.7944 42.4276 67.0245Z" fill="#1C54F8" stroke="white" stroke-width="0.4"></path></g></g><defs><clipPath id="clip0_5_168"><rect width="90" height="90" fill="white"></rect></clipPath></defs></svg> 