<?xml version="1.0" encoding="UTF-8"?> <svg xmlns="http://www.w3.org/2000/svg" xmlns:xlink="http://www.w3.org/1999/xlink" width="60" height="60" viewBox="0 0 60 60"><defs><clipPath id="clip-path"><rect id="Rectangle_39" data-name="Rectangle 39" width="60" height="60" transform="translate(514 53)" fill="#fff" stroke="#707070" stroke-width="1"></rect></clipPath></defs><g id="Mask_Group_32" data-name="Mask Group 32" transform="translate(-514 -53)" clip-path="url(#clip-path)"><g id="Group_46" data-name="Group 46" transform="translate(-73.392 12.849)"><path id="Path_147" data-name="Path 147" d="M71.871,24.918a3.055,3.055,0,0,0-3,2.52H62.741a4.9,4.9,0,0,0-.163-4.626,4.626,4.626,0,0,0-1.908-1.7,4.376,4.376,0,0,0,.158-2.087l1.348-1.348a1.716,1.716,0,0,1,1.222-.506h2.383a3.049,3.049,0,1,0,0-1.058H63.4a2.767,2.767,0,0,0-1.97.816l-.981.981a3.234,3.234,0,0,0-.771-.953,3.471,3.471,0,0,0-2.224-.769,4.315,4.315,0,0,0-3.082-2.054,3.948,3.948,0,0,0-1.138.029,2.434,2.434,0,0,0-.524.152V12.907a1.741,1.741,0,0,1,.506-1.222L56,8.9A1.739,1.739,0,0,1,57.22,8.4h2.393a3.049,3.049,0,1,0,0-1.058H57.22a2.8,2.8,0,0,0-1.97.816l-2.783,2.783a2.768,2.768,0,0,0-.816,1.97v2.257a2.514,2.514,0,0,0-.456,1.45V38.906a2.33,2.33,0,0,0,.221,1.026,3.477,3.477,0,0,0,.235.408v2.688A2.768,2.768,0,0,0,52.467,45l2.783,2.783a2.805,2.805,0,0,0,1.97.816h2.393a3.05,3.05,0,1,0,0-1.058H57.22A1.739,1.739,0,0,1,56,47.034l-2.783-2.783a1.741,1.741,0,0,1-.506-1.222V41.357a3.247,3.247,0,0,0,1.139.429,3.17,3.17,0,0,0,.535.045,3.443,3.443,0,0,0,2.845-1.559,4.478,4.478,0,0,0,3.38-1.2,4.181,4.181,0,0,0,.413-.471l.408.408a2.767,2.767,0,0,0,1.97.816h2.383a3.049,3.049,0,1,0,0-1.058H63.4a1.716,1.716,0,0,1-1.222-.506l-.615-.615A4.554,4.554,0,0,0,61.68,34.6a5.474,5.474,0,0,0,1.748-3.353,5.319,5.319,0,0,0-.41-2.748h5.85a3.05,3.05,0,1,0,3-3.579Zm-3.086-10.27a1.991,1.991,0,1,1-1.991,1.991A1.993,1.993,0,0,1,68.785,14.648ZM62.616,5.875a1.991,1.991,0,1,1-1.991,1.991A1.993,1.993,0,0,1,62.616,5.875Zm0,40.2a1.991,1.991,0,1,1-1.991,1.991A1.993,1.993,0,0,1,62.616,46.078Zm6.169-8.773A1.991,1.991,0,1,1,66.794,39.3,1.993,1.993,0,0,1,68.785,37.305Zm-6.407-6.184a4.416,4.416,0,0,1-1.64,2.891.529.529,0,0,0-.168.613,3.4,3.4,0,0,1-.7,3.692,3.527,3.527,0,0,1-2.846.872.528.528,0,0,0-.549.281,2.353,2.353,0,0,1-2.445,1.271,2.3,2.3,0,0,1-1.659-1.273,1.284,1.284,0,0,1-.114-.563V35.812a1.931,1.931,0,0,1,.7-1.3,1.857,1.857,0,0,1,1.015-.374l-.062-1.056a2.879,2.879,0,0,0-1.6.594l-.051.041V25.205A1.746,1.746,0,0,1,54.081,24l.1-1.054a2.864,2.864,0,0,0-1.852.478l-.077.055V16.614a1.412,1.412,0,0,1,1.159-1.41,2.9,2.9,0,0,1,.493-.042,2.85,2.85,0,0,1,.342.02,3.372,3.372,0,0,1,2.43,1.776.532.532,0,0,0,.516.294,2.521,2.521,0,0,1,1.8.513,2.887,2.887,0,0,1,.516,3.41.529.529,0,0,0,.3.715,3.68,3.68,0,0,1,1.863,1.476,3.944,3.944,0,0,1-.147,4.1.529.529,0,0,0,.027.589A4.361,4.361,0,0,1,62.378,31.121Zm9.494-1.162a1.991,1.991,0,1,1,1.991-1.991A1.994,1.994,0,0,1,71.871,29.959Z" transform="translate(566.809 42.183)" fill="#1c54f8" stroke="#1c54f8" stroke-width="0.3"></path><path id="Path_148" data-name="Path 148" d="M57.218,34.882a3.309,3.309,0,0,0,.892-.124c.033.048.065.1.1.149a7.044,7.044,0,0,1,.856,1.984l1.023-.271a8.093,8.093,0,0,0-.986-2.281,9.265,9.265,0,0,0-.714-.959,2.245,2.245,0,0,1-.574-.959,2.3,2.3,0,0,1,.293-1.575l-.938-.489a3.316,3.316,0,0,0-.386,2.3,2.819,2.819,0,0,0,.6,1.161,2.09,2.09,0,0,1-.64-.05,2.165,2.165,0,0,1-.934-.487l-.7.792A3.226,3.226,0,0,0,56.5,34.8,3.146,3.146,0,0,0,57.218,34.882Z" transform="translate(564.902 29.73)" fill="#1c54f8" stroke="#1c54f8" stroke-width="0.3"></path><path id="Path_149" data-name="Path 149" d="M60.946,47.716a2.991,2.991,0,0,1-2.36-.209l-.505.93a4.252,4.252,0,0,0,1.957.493,3.757,3.757,0,0,0,.9-.109,1.917,1.917,0,0,1,.336.865,1.948,1.948,0,0,1-.19,1.1l.946.474a3.011,3.011,0,0,0,.294-1.709,2.957,2.957,0,0,0-.39-1.137,4.072,4.072,0,0,0,1.937-2.825l-1.043-.182A2.965,2.965,0,0,1,60.946,47.716Z" transform="translate(563.451 22.389)" fill="#1c54f8" stroke="#1c54f8" stroke-width="0.3"></path><path id="Path_150" data-name="Path 150" d="M60.027,60.316a3.317,3.317,0,0,0-.175-2.141,3.483,3.483,0,0,0-2.04-1.839l-.335,1A2.4,2.4,0,0,1,58.884,58.6a2.451,2.451,0,0,1-.089,2.038,3.684,3.684,0,0,0-.456.249,3.872,3.872,0,0,0-1.672,2.491l1.041.193a2.716,2.716,0,0,1,3.3-2.15l.244-1.03A3.924,3.924,0,0,0,60.027,60.316Z" transform="translate(564.141 17.061)" fill="#1c54f8" stroke="#1c54f8" stroke-width="0.3"></path><path id="Path_151" data-name="Path 151" d="M25.77,12.907a2.768,2.768,0,0,0-.816-1.97L22.171,8.153a2.77,2.77,0,0,0-1.97-.816H17.808a3.05,3.05,0,1,0,0,1.058H20.2a1.718,1.718,0,0,1,1.222.506l2.783,2.783a1.741,1.741,0,0,1,.506,1.222v1.406a2.434,2.434,0,0,0-.524-.152,4.005,4.005,0,0,0-1.138-.029,4.315,4.315,0,0,0-3.082,2.054,3.474,3.474,0,0,0-2.224.769,3.234,3.234,0,0,0-.771.953l-.981-.981a2.767,2.767,0,0,0-1.97-.816H11.639a3.049,3.049,0,1,0,0,1.058h2.383a1.716,1.716,0,0,1,1.222.506l1.348,1.348a4.377,4.377,0,0,0,.158,2.087,4.626,4.626,0,0,0-1.908,1.7,4.9,4.9,0,0,0-.163,4.626H8.553a3.049,3.049,0,1,0,0,1.058H14.4a5.32,5.32,0,0,0-.41,2.749A5.474,5.474,0,0,0,15.741,34.6a4.554,4.554,0,0,0,.118,3.048l-.615.615a1.716,1.716,0,0,1-1.222.506H11.639a3.049,3.049,0,1,0,0,1.058h2.383a2.767,2.767,0,0,0,1.97-.816L16.4,38.6a4.18,4.18,0,0,0,.413.471,4.474,4.474,0,0,0,3.38,1.2,3.443,3.443,0,0,0,2.845,1.559,3.171,3.171,0,0,0,.535-.045,3.246,3.246,0,0,0,1.139-.429v1.672a1.741,1.741,0,0,1-.506,1.222l-2.783,2.783a1.717,1.717,0,0,1-1.222.506H17.808a3.049,3.049,0,1,0,0,1.058H20.2a2.769,2.769,0,0,0,1.97-.816L24.954,45a2.768,2.768,0,0,0,.816-1.97V40.339A3.461,3.461,0,0,0,26,39.932a2.317,2.317,0,0,0,.222-1.026V16.614a2.514,2.514,0,0,0-.456-1.45ZM14.8,9.857A1.991,1.991,0,1,1,16.8,7.866,1.993,1.993,0,0,1,14.8,9.857ZM8.636,18.63a1.991,1.991,0,1,1,1.991-1.991A1.993,1.993,0,0,1,8.636,18.63ZM5.55,29.959a1.991,1.991,0,1,1,1.991-1.991A1.994,1.994,0,0,1,5.55,29.959ZM8.636,41.288A1.991,1.991,0,1,1,10.627,39.3,1.993,1.993,0,0,1,8.636,41.288ZM14.8,50.06A1.991,1.991,0,1,1,16.8,48.069,1.993,1.993,0,0,1,14.8,50.06ZM25.167,23.483l-.076-.054a2.855,2.855,0,0,0-1.852-.478L23.34,24a1.745,1.745,0,0,1,1.827,1.2v8.509l-.051-.041a2.883,2.883,0,0,0-1.6-.595l-.062,1.056a1.855,1.855,0,0,1,1.015.374,1.931,1.931,0,0,1,.7,1.3v3.093a1.278,1.278,0,0,1-.115.563,2.3,2.3,0,0,1-1.659,1.273,2.35,2.35,0,0,1-2.444-1.271.53.53,0,0,0-.471-.287.507.507,0,0,0-.078.006,3.529,3.529,0,0,1-2.846-.872,3.4,3.4,0,0,1-.7-3.692.529.529,0,0,0-.168-.613,4.416,4.416,0,0,1-1.64-2.891,4.362,4.362,0,0,1,.82-3.064.529.529,0,0,0,.027-.589,3.944,3.944,0,0,1-.147-4.1,3.68,3.68,0,0,1,1.863-1.476.529.529,0,0,0,.3-.715,2.888,2.888,0,0,1,.515-3.41,2.525,2.525,0,0,1,1.805-.513.537.537,0,0,0,.516-.294,3.372,3.372,0,0,1,2.43-1.776,2.887,2.887,0,0,1,.834.022,1.412,1.412,0,0,1,1.159,1.41Z" transform="translate(590.554 42.183)" fill="#1c54f8" stroke="#1c54f8" stroke-width="0.3"></path><path id="Path_152" data-name="Path 152" d="M38.518,33.768a2.1,2.1,0,0,1-.64.05,2.818,2.818,0,0,0,.6-1.161,3.315,3.315,0,0,0-.386-2.3l-.938.489a2.3,2.3,0,0,1,.293,1.575,2.244,2.244,0,0,1-.574.959,9.31,9.31,0,0,0-.715.96,8.1,8.1,0,0,0-.986,2.281l1.023.271a7.052,7.052,0,0,1,.855-1.983c.033-.052.066-.1.1-.15a3.308,3.308,0,0,0,.892.124,3.15,3.15,0,0,0,.72-.083,3.227,3.227,0,0,0,1.392-.725l-.7-.792A2.166,2.166,0,0,1,38.518,33.768Z" transform="translate(574.622 29.73)" fill="#1c54f8" stroke="#1c54f8" stroke-width="0.3"></path><path id="Path_153" data-name="Path 153" d="M33.21,49.686a1.917,1.917,0,0,1,.337-.865,3.756,3.756,0,0,0,.9.109,4.252,4.252,0,0,0,1.957-.493l-.505-.93a2.863,2.863,0,0,1-4.245-2.1l-1.043.182a4.072,4.072,0,0,0,1.937,2.825,2.957,2.957,0,0,0-.39,1.137,3.011,3.011,0,0,0,.294,1.709l.946-.474A1.948,1.948,0,0,1,33.21,49.686Z" transform="translate(576.845 22.389)" fill="#1c54f8" stroke="#1c54f8" stroke-width="0.3"></path><path id="Path_154" data-name="Path 154" d="M37.3,60.89a3.683,3.683,0,0,0-.456-.249,2.451,2.451,0,0,1-.089-2.038,2.4,2.4,0,0,1,1.407-1.263l-.335-1a3.483,3.483,0,0,0-2.04,1.839,3.317,3.317,0,0,0-.175,2.141,3.924,3.924,0,0,0-1.226.079l.244,1.03a2.716,2.716,0,0,1,3.3,2.15l1.041-.193A3.872,3.872,0,0,0,37.3,60.89Z" transform="translate(575.007 17.061)" fill="#1c54f8" stroke="#1c54f8" stroke-width="0.3"></path></g></g></svg> 