<?xml version="1.0" encoding="UTF-8"?> <svg xmlns="http://www.w3.org/2000/svg" width="60" height="61" viewBox="0 0 60 61" fill="none"><mask id="mask0_1_25" style="mask-type:luminance" maskUnits="userSpaceOnUse" x="0" y="0" width="60" height="61"><path d="M60 0.5H0V60.5H60V0.5Z" fill="white"></path></mask><g mask="url(#mask0_1_25)"><path fill-rule="evenodd" clip-rule="evenodd" d="M30.9 29.7C30.9 30.1 30.6 30.4 30.2 30.4C29.8 30.4 29.5 30.1 29.5 29.7V27.7C29.5 25.5 27.7 23.8 25.6 23.8C24.6 23.8 23.6 24.2 22.8 25C22.1 25.8 21.6 26.8 21.7 27.8C21.7 28.2 21.4 28.5 21 28.5C16.9 29 14.8 31.2 14.7 35.4C14.7 35.7 14.4 36 14.1 36.1C13 36.3 12 36.8 11.3 37.6C10.6 38.4 10.2 39.5 10.2 40.6C10.2 43.2 12.3 45.3 14.9 45.3H29.5V37.9C29.5 37.5 29.8 37.2 30.2 37.2C30.6 37.2 30.9 37.5 30.9 37.9V45.3H45.5C48.1 45.3 50.2 43.2 50.2 40.6C50.2 39.5 49.8 38.4 49.1 37.6C48.4 36.8 47.4 36.2 46.3 36.1C45.9 36 45.7 35.7 45.7 35.3C45.7 35.1 45.7 35 45.7 34.8C45.7 33.2 45.1 31.7 44 30.6C42.9 29.5 41.5 28.7 39.9 28.6C39.7 28.6 39.5 28.6 39.3 28.6C38.9 28.6 38.6 28.3 38.6 27.9C38.6 26.8 38.2 25.8 37.4 25.1C36.7 24.4 35.7 23.9 34.6 23.9C32.4 23.9 30.7 25.7 30.7 27.8L30.9 29.7ZM8.89999 13.3C8.89999 13.7 8.60001 14 8.20001 14C7.80001 14 7.5 13.7 7.5 13.3V5.00001C7.5 4.60001 7.80001 4.30001 8.20001 4.30001C8.60001 4.30001 8.89999 4.60001 8.89999 5.00001V13.3ZM13 11C13 11.4 12.7 11.7 12.3 11.7C11.9 11.7 11.6 11.4 11.6 11V7.30001C11.6 6.90001 11.9 6.60001 12.3 6.60001C12.7 6.60001 13 6.90001 13 7.30001V11ZM17 13.3C17 13.7 16.7 14 16.3 14C15.9 14 15.6 13.7 15.6 13.3V5.00001C15.6 4.60001 15.9 4.30001 16.3 4.30001C16.7 4.30001 17 4.60001 17 5.00001V13.3ZM21.1 11C21.1 11.4 20.8 11.7 20.4 11.7C20 11.7 19.7 11.4 19.7 11V7.30001C19.7 6.90001 20 6.60001 20.4 6.60001C20.8 6.60001 21.1 6.90001 21.1 7.30001V11ZM25.2 13.3C25.2 13.7 24.9 14 24.5 14C24.1 14 23.8 13.7 23.8 13.3V5.00001C23.8 4.60001 24.1 4.30001 24.5 4.30001C24.9 4.30001 25.2 4.60001 25.2 5.00001V13.3ZM24 16.3H27.1C27.2 16.3 27.3 16.3 27.4 16.2L27.5 16.1V2.2C27.5 2.2 27.5 2.10001 27.4 2.10001C27.3 2.00001 27.2 2.00001 27.1 2.00001H5.60001C5.50001 2.00001 5.39999 2.00001 5.29999 2.10001L5.20001 2.2V16.1C5.20001 16.2 5.19999 16.2 5.29999 16.2C5.39999 16.3 5.50001 16.3 5.60001 16.3H18.3C18.4 16.3 18.6 16.3 18.7 16.4L23.3 18.7V17C23.3 16.7 23.6 16.3 24 16.3ZM27.1 17.7C27.5 17.7 28 17.5 28.3 17.3C28.6 17 28.9 16.6 28.9 16.1V2.2C28.9 1.7 28.7 1.30001 28.3 1.00001C28 0.700008 27.5 0.600006 27.1 0.600006H5.60001C5.20001 0.600006 4.69999 0.800008 4.39999 1.00001C3.99999 1.30001 3.79999 1.7 3.79999 2.2V16.1C3.79999 16.6 3.99999 17 4.39999 17.3C4.69999 17.6 5.20001 17.7 5.60001 17.7H18.1L23.6 20.5C23.9 20.7 24.4 20.5 24.5 20.2C24.5 20.1 24.6 20 24.6 19.9V17.7H27.1ZM50.2 12.7C50.6 12.7 50.9 13 50.9 13.4C50.9 13.8 50.6 14.1 50.2 14.1H37.9C37.5 14.1 37.2 13.8 37.2 13.4C37.2 13 37.5 12.7 37.9 12.7H50.2ZM50.2 8.50001C50.6 8.50001 50.9 8.8 50.9 9.2C50.9 9.6 50.6 9.90001 50.2 9.90001H37.9C37.5 9.90001 37.2 9.6 37.2 9.2C37.2 8.8 37.5 8.50001 37.9 8.50001H50.2ZM50.2 4.30001C50.6 4.30001 50.9 4.60001 50.9 5.00001C50.9 5.40001 50.6 5.7 50.2 5.7H37.9C37.5 5.7 37.2 5.40001 37.2 5.00001C37.2 4.60001 37.5 4.30001 37.9 4.30001H50.2ZM35.7 17.7V19.9C35.7 20.3 36 20.6 36.4 20.6C36.5 20.6 36.6 20.6 36.7 20.5L42.2 17.7H54.7C55.1 17.7 55.6 17.5 55.9 17.3C56.2 17 56.5 16.6 56.5 16.1V2.2C56.5 1.7 56.3 1.30001 55.9 1.00001C55.6 0.700008 55.1 0.600006 54.7 0.600006H33.2C32.8 0.600006 32.3 0.800008 32 1.00001C31.7 1.30001 31.4 1.7 31.4 2.2V16.1C31.4 16.6 31.6 17 32 17.3C32.3 17.6 32.8 17.7 33.2 17.7H35.7ZM33.3 16.3H36.4C36.8 16.3 37.1 16.6 37.1 17V18.7L41.7 16.4C41.8 16.3 41.9 16.3 42.1 16.3H54.8C54.9 16.3 55 16.3 55.1 16.2L55.2 16.1V2.2C55.2 2.2 55.2 2.10001 55.1 2.10001C55 2.00001 54.9 2.00001 54.8 2.00001H33.3C33.2 2.00001 33.1 2.00001 33 2.10001L32.9 2.2V16.1C32.9 16.1 32.9 16.2 33 16.2C33.1 16.3 33.2 16.3 33.3 16.3ZM30.2 34.7C30.6 34.7 30.9 35 30.9 35.4C30.9 35.8 30.6 36.1 30.2 36.1H30.1C29.7 36.1 29.4 35.8 29.4 35.4C29.4 35 29.8 34.7 30.2 34.7ZM30.2 31.3C30.6 31.3 30.9 31.6 30.9 32C30.9 32.4 30.6 32.7 30.2 32.7H30.1C29.7 32.7 29.4 32.4 29.4 32C29.4 31.6 29.8 31.3 30.2 31.3ZM17.2 52.5L22.6 49.4V46.7H14.9C11.5 46.7 8.79999 44 8.79999 40.6C8.79999 39.1 9.29999 37.7 10.3 36.6C11.1 35.7 12.1 35 13.3 34.7C13.3 33.2 13.7 31.8 14.6 30.6C15.1 29.8 15.8 29.1 16.6 28.6C17.7 27.8 19 27.3 20.4 27.2C20.5 26 21.1 24.9 21.9 24C24 21.9 27.3 21.9 29.4 23.9C29.7 24.2 30 24.6 30.3 25C30.5 24.6 30.8 24.2 31.2 23.9C33.3 21.8 36.6 21.8 38.7 23.9C39.5 24.8 40.1 25.9 40.2 27.1C42.1 27.3 43.9 28.1 45.2 29.6C46.5 31 47.2 32.8 47.2 34.7C48.4 35 49.4 35.7 50.2 36.6C52.4 39.2 52 43 49.5 45.2C48.4 46.1 47 46.6 45.6 46.6H37.9V49.3L43.3 52.4C43.4 52.3 43.4 52.3 43.5 52.2C45 50.7 47.3 50.7 48.8 52.2C50.3 53.7 50.3 56 48.8 57.5C47.3 59 45 59 43.5 57.5C42.5 56.5 42.1 55 42.6 53.6L36.9 50.3C36.7 50.2 36.5 49.9 36.5 49.7V46.6H31V52.9C33 53.3 34.4 55.2 34 57.3C33.6 59.3 31.7 60.7 29.6 60.3C27.6 59.9 26.2 58 26.6 55.9C26.9 54.4 28.1 53.2 29.6 52.9V46.6H24V49.7C24 49.9 23.9 50.2 23.6 50.3L17.9 53.6C18.6 55.6 17.6 57.7 15.6 58.4C13.6 59.1 11.5 58.1 10.8 56.1C10.1 54.1 11.1 52 13.1 51.3C14.5 50.8 16 51.2 17 52.2C17.1 52.4 17.1 52.4 17.2 52.5ZM12.7 56.6C13.6 57.5 15.1 57.5 16 56.6C16.9 55.7 16.9 54.2 16 53.3C15.1 52.4 13.6 52.4 12.7 53.3C12.3 53.7 12 54.3 12 55C12 55.6 12.2 56.2 12.7 56.6ZM46 57.3C47.3 57.3 48.3 56.2 48.3 55C48.3 53.7 47.2 52.7 46 52.7C44.7 52.7 43.7 53.8 43.7 55C43.7 55.6 43.9 56.2 44.4 56.7C44.8 57 45.4 57.3 46 57.3ZM30.2 59C31.5 59 32.5 57.9 32.5 56.7C32.5 55.4 31.4 54.4 30.2 54.4C28.9 54.4 27.9 55.5 27.9 56.7C27.9 57.3 28.1 57.9 28.6 58.4C29 58.7 29.6 59 30.2 59ZM42.7 37.3C42.7 37.7 42.4 38 42 38C41.6 38 41.3 37.7 41.3 37.3C41.3 36.1 40.9 34.9 40.1 33.9C39.2 33 38 32.5 36.8 32.5C36.4 32.5 36.1 32.1 36.2 31.7C36.2 31.3 36.6 31 37 31.1C38.6 31.2 40.1 31.8 41.2 33C42.2 34.2 42.7 35.8 42.7 37.3ZM19.1 37.4C19.1 37.8 18.7 38.1 18.4 38.1C18 38.1 17.7 37.8 17.7 37.4C17.7 35.8 18.2 34.3 19.2 33.1C20.3 32 21.8 31.3 23.4 31.2C23.8 31.2 24.1 31.4 24.2 31.8C24.2 32.2 24 32.5 23.6 32.6C22.4 32.7 21.2 33.2 20.3 34C19.4 34.9 19 36.1 19.1 37.4Z" fill="#1B54F8" stroke="#1B54F8" stroke-width="0.25" stroke-miterlimit="10"></path></g></svg> 