<?xml version="1.0" encoding="UTF-8"?> <svg xmlns="http://www.w3.org/2000/svg" width="61" height="61" viewBox="0 0 61 61" fill="none"><mask id="mask0_1_174" style="mask-type:luminance" maskUnits="userSpaceOnUse" x="0" y="0" width="61" height="61"><path d="M60.4 0.799988H0.400002V60.8H60.4V0.799988Z" fill="white"></path></mask><g mask="url(#mask0_1_174)"><path d="M31.1 32.4C33.2 33.3 34.8 35.3 35.3 37.6H39.9C40.6 33.5 44.2 30.4 48.5 30.4C53.3 30.4 57.2 34.3 57.2 39.1C57.2 43.9 53.3 47.8 48.5 47.8C44.2 47.8 40.6 44.7 39.9 40.6H35.3C35.1 41.7 34.6 42.7 34 43.5H35.4C35.8 43.5 36.2 43.7 36.4 43.9L44.7 52.2H47C47.8 52.2 48.4 52.8 48.4 53.6C48.4 54.4 47.8 55 47 55H44.1C43.7 55 43.3 54.8 43.1 54.6L34.8 46.3H29.6V52.8C29.6 57.2 26 60.8 21.6 60.8C17.2 60.8 13.6 57.2 13.6 52.8C13.6 52.1 13.7 51.4 13.9 50.8C10.4 51.1 6.7 49.3 4.8 46C2.7 42.4 3.10001 38.2 5.40001 35.4C3.00001 34 1.3 31 1.3 27.6C1.3 24.4 2.70001 21.6 4.90001 20.1C5.00001 14.6 8 9.9 12.1 9C12.1 8.9 12.1 8.89999 12.1 8.79999C12.1 4.19999 15.7 1.60001 20.8 1.60001C24.6 1.60001 27.8 3.99999 29 7.39999H34C34.4 7.39999 34.8 7.59999 35 7.79999L43.3 16.1H47.2C47.8 13.6 50.1 11.8 52.8 11.8C56 11.8 58.6 14.4 58.6 17.6C58.6 20.8 56 23.4 52.8 23.4C50.1 23.4 47.8 21.6 47.2 19.1H34C33.2 19.1 32.6 18.5 32.6 17.7C32.6 16.9 33.2 16.3 34 16.3H39.2L33.4 10.5H29.7V30.2L33 26.9C33.3 26.6 33.6 26.5 34 26.5H41.2C42 26.5 42.6 27.1 42.6 27.9C42.6 28.7 42 29.3 41.2 29.3H34.6L31.1 32.4ZM26.8 31.9V27.4C26.8 25 24.9 23.1 22.5 23.1C21.7 23.1 21.1 22.5 21.1 21.7C21.1 20.9 21.7 20.3 22.5 20.3C24.1 20.3 25.6 20.8 26.8 21.7V10.1C26.8 6.90001 24.2 4.29999 21 4.29999C17.3 4.29999 15.2 5.80001 15.2 8.60001C15.2 10.6 16.8 12.2 18.8 12.2C19.6 12.2 20.2 12.8 20.2 13.6C20.2 14.4 19.6 15 18.8 15C16.3 15 14.1 13.6 13 11.5C10.5 12 8.5 14.9 8 18.7H9.40001C12.9 18.7 15.9 21.3 16.5 24.6C17.7 24.9 18.9 25.5 19.8 26.4C20.4 27 20.4 27.9 19.8 28.4C19.2 28.9 18.3 29 17.8 28.4C17.1 27.7 16.2 27.3 15.2 27.3C14.2 27.3 13.3 27.7 12.6 28.4C12 29 11.1 29 10.6 28.4C10.1 27.8 10 26.9 10.6 26.4C11.4 25.6 12.5 25 13.6 24.7C13.1 22.9 11.4 21.6 9.40001 21.6H8.7C6.4 21.6 4.40001 24.1 4.40001 27.4C4.40001 30.7 6.4 33.2 8.7 33.2H9.40001C12 33.2 14.2 34.7 15.3 36.9C16.6 36 18.1 35.4 19.6 35.4H22C23 33.6 24.7 32.3 26.8 31.9ZM21 38.3H19.5C18.1 38.3 16.5 39.3 15.7 40.6C15.4 41.1 15.2 42.1 15.2 43.4C15.2 44.2 14.6 44.8 13.8 44.8C13 44.8 12.4 44.2 12.4 43.4C12.4 41.9 12.6 40.5 13.1 39.5C12.9 37.6 11.4 36.2 9.5 36.2H8.90001C6.40001 37.9 5.7 41.5 7.5 44.5C9.3 47.6 13.2 48.8 16 47.2C16.1 47.2 16.2 47.1 16.2 47.1C17.6 45.7 19.6 44.8 21.7 44.8C22.5 44.8 23.1 45.4 23.1 46.2C23.1 47 22.5 47.6 21.7 47.6C18.9 47.6 16.6 49.9 16.6 52.7C16.6 55.5 18.9 57.8 21.7 57.8C24.5 57.8 26.8 55.5 26.8 52.7V46C23.5 45.3 21 42.4 21 38.9C21 38.8 21 38.5 21 38.3ZM48.5 44.8C51.7 44.8 54.3 42.2 54.3 39C54.3 35.8 51.7 33.2 48.5 33.2C45.3 33.2 42.7 35.8 42.7 39C42.7 42.2 45.3 44.8 48.5 44.8ZM28.2 43.3C30.6 43.3 32.5 41.4 32.5 39C32.5 36.6 30.6 34.7 28.2 34.7C25.8 34.7 23.9 36.6 23.9 39C23.9 41.4 25.8 43.3 28.2 43.3ZM52.8 20.2C54.4 20.2 55.7 18.9 55.7 17.3C55.7 15.7 54.4 14.4 52.8 14.4C51.2 14.4 49.9 15.7 49.9 17.3C49.9 18.9 51.2 20.2 52.8 20.2ZM52.8 52H54.2C55 52 55.6 52.6 55.6 53.4C55.6 54.2 55 54.8 54.2 54.8H52.8C52 54.8 51.4 54.2 51.4 53.4C51.4 52.7 52 52 52.8 52ZM45.6 10.1C43.2 10.1 41.3 8.19999 41.3 5.79999C41.3 3.39999 43.2 1.5 45.6 1.5C48 1.5 49.9 3.39999 49.9 5.79999C49.9 8.19999 48 10.1 45.6 10.1ZM45.6 7.20001C46.4 7.20001 47 6.59999 47 5.79999C47 4.99999 46.4 4.39999 45.6 4.39999C44.8 4.39999 44.2 4.99999 44.2 5.79999C44.2 6.49999 44.8 7.20001 45.6 7.20001ZM35.5 60.7C33.1 60.7 31.2 58.8 31.2 56.4C31.2 54 33.1 52.1 35.5 52.1C37.9 52.1 39.8 54 39.8 56.4C39.8 58.8 37.9 60.7 35.5 60.7ZM35.5 57.8C36.3 57.8 36.9 57.2 36.9 56.4C36.9 55.6 36.3 55 35.5 55C34.7 55 34.1 55.6 34.1 56.4C34 57.2 34.7 57.8 35.5 57.8ZM32.6 4.29999C31.8 4.29999 31.2 3.69999 31.2 2.89999C31.2 2.09999 31.8 1.5 32.6 1.5H36.9C37.7 1.5 38.3 2.09999 38.3 2.89999C38.3 3.69999 37.7 4.29999 36.9 4.29999H32.6ZM48.5 43.3C46.1 43.3 44.2 41.4 44.2 39C44.2 36.6 46.1 34.7 48.5 34.7C50.9 34.7 52.8 36.6 52.8 39C52.8 41.4 50.9 43.3 48.5 43.3ZM48.5 40.4C49.3 40.4 49.9 39.8 49.9 39C49.9 38.2 49.3 37.6 48.5 37.6C47.7 37.6 47.1 38.2 47.1 39C47.1 39.8 47.7 40.4 48.5 40.4Z" fill="#1B54F8" stroke="white" stroke-width="0.7619" stroke-miterlimit="10"></path></g></svg> 