<?xml version="1.0" encoding="UTF-8"?> <svg xmlns="http://www.w3.org/2000/svg" width="61" height="61" viewBox="0 0 61 61" fill="none"><mask id="mask0_19_102" style="mask-type:luminance" maskUnits="userSpaceOnUse" x="0" y="0" width="61" height="61"><path d="M60.3 0.799988H0.300003V60.8H60.3V0.799988Z" fill="white"></path></mask><g mask="url(#mask0_19_102)"><path d="M58.3 28C55.6 25.3 50.9 26.7 50.2 30.5H46.6C47.3 26.8 47.1 22.6 45.6 19.6C45.4 19.1 45.1 18.7 44.8 18.3L46.1 17C48 18.4 50.7 18.2 52.4 16.5C53.3 15.6 53.8 14.4 53.8 13.1C53.8 10.4 51.6 8.29999 49 8.29999C45.2 8.29999 42.9 12.5 44.9 15.7L43.7 16.9C38.8 11.5 29.3 10.5 22.9 13.7C20.9 14.7 19.2 16.1 18.1 17.9L15.9 15.7C17.9 12.5 15.6 8.29999 11.8 8.29999C9.1 8.29999 7 10.5 7 13.1C7 15.7 9.2 17.9 11.8 17.9C12.9 17.9 13.9 17.5 14.7 16.9L17.6 19.8C17.4 21.7 16.9 25.1 16 28.2C15.8 29 15.5 29.8 15.2 30.5H10.7C10.3 28.2 8.3 26.6 6 26.6C3.3 26.6 1.2 28.8 1.2 31.4C1.2 34.1 3.4 36.2 6 36.2C8.3 36.2 10.3 34.5 10.7 32.3H14.4C14 33.2 13.5 34.1 13 34.9C13.1 35.1 13 35.1 13.8 35C14.3 35 15 35 16.1 35C16.6 35 16.9 35.4 17 35.8C17.5 38.6 16.6 41 17.3 43.2L14.8 45.7C14 45.1 13 44.8 11.9 44.8C9.19999 44.8 7.10001 47 7.10001 49.6C7.10001 52.3 9.29999 54.4 11.9 54.4C15.7 54.4 18 50.2 16 47L18.2 44.8C19.5 46.2 22 46 24.3 46C24.8 46 25.2 46.4 25.3 46.9C25.4 47.7 25.4 48.5 25.4 49.3H42C41.3 47.2 41.1 45.3 41.4 43.5L44.9 47C42.9 50.2 45.2 54.4 49 54.4C51.7 54.4 53.8 52.2 53.8 49.6C53.8 46.9 51.6 44.8 49 44.8C47.9 44.8 46.9 45.2 46.1 45.7L41.9 41.5C42.5 39.6 43.4 38 44.2 36.5C44.7 35.6 45.1 34.8 45.4 34.1C45.7 33.5 45.9 32.9 46.1 32.2H50.1C50.5 34.5 52.5 36.1 54.8 36.1C56.1 36.1 57.3 35.6 58.2 34.7C60.1 32.9 60.1 29.8 58.3 28ZM28.9 37.7C28.3 37.5 27.7 37.3 27.2 37.1L23.8 39.1C23.1 39.5 22.5 39 22.5 38.4C22.5 35.2 22.1 31.9 22.1 28.8C22.1 23.7 26.2 19.5 31.4 19.5C36.6 19.5 40.7 23.6 40.7 28.8C40.4 34.8 34.8 39.2 28.9 37.7ZM25.7 30.4C24.8 29.5 25.4 27.9 26.7 27.9C27.5 27.9 28.2 28.6 28.2 29.4C28.2 30.7 26.6 31.3 25.7 30.4ZM30 30.3C29.1 29.4 29.7 27.8 31 27.8C31.8 27.8 32.5 28.5 32.5 29.3C32.5 30.6 30.9 31.2 30 30.3ZM34.1 30.1C33.2 29.2 33.8 27.6 35.1 27.6C35.9 27.6 36.6 28.3 36.6 29.1C36.6 30.4 35.1 31.1 34.1 30.1Z" stroke="#1B54F8" stroke-width="1.3686" stroke-miterlimit="10"></path></g></svg> 