<?xml version="1.0" encoding="UTF-8"?> <svg xmlns="http://www.w3.org/2000/svg" width="90" height="90" viewBox="0 0 90 90" fill="none"><path d="M2.45557 48.7796V41.1073C2.45557 39.4598 3.68336 38.0869 5.47657 38.0869H10.9531C11.5024 38.0869 12.0517 37.6831 12.1809 37.1339C13.0048 33.5643 14.378 30.2854 16.2843 27.2649C16.559 26.7157 16.4136 26.1665 16.1551 25.7627L12.1809 21.7893C10.9532 20.691 11.0824 18.6396 12.1809 17.5413L17.6575 12.0657C18.7561 10.9673 20.6785 10.9673 21.7609 12.0657L25.7351 16.0391C26.1389 16.4429 26.8336 16.5883 27.3829 16.1683C28.8853 15.2154 30.4039 14.3916 32.0355 13.6971C33.6834 13.0187 35.4604 12.4695 37.2375 12.0495C37.7868 11.9203 38.1906 11.5004 38.1906 10.9512V5.33022C38.1906 3.6827 39.5638 2.30976 41.2116 2.30976H48.7561C50.5331 2.30976 51.7771 3.6827 51.7771 5.33022V10.9512C51.7771 11.5004 52.1809 11.9042 52.7302 12.0495C54.5073 12.4533 56.3005 13.0025 57.9322 13.6971C59.58 14.3755 61.0824 15.1992 62.5848 16.1683C63.1341 16.5721 63.8126 16.4429 64.2326 16.0391L68.2068 12.0657C69.3053 10.9673 71.2278 10.9673 72.3102 12.0657L77.7868 17.5413C78.8853 18.6396 79.0145 20.691 77.7868 21.7893L73.8126 25.7627C73.538 26.1665 73.4087 26.7157 73.6834 27.2649C75.6058 30.2854 76.979 33.5643 77.7868 37.1339C77.916 37.6831 78.4653 38.0869 79.0145 38.0869H84.6365C86.2843 38.0869 87.5121 39.4598 87.5121 41.1073V48.7796C87.5121 50.4271 86.2843 51.8001 84.6365 51.8001H79.0145C78.4653 51.8001 77.916 52.2039 77.7868 52.7531C76.9628 56.3227 75.5897 59.6016 73.6834 62.7513C73.4087 63.1551 73.5541 63.8496 73.8126 64.1242L77.7868 68.0976C79.0145 69.196 78.8853 71.2473 77.7868 72.3457L72.3102 77.8213C71.2116 78.9196 69.2892 78.9196 68.2068 77.8213L64.2326 73.8478C63.8288 73.444 63.1341 73.444 62.5848 73.7186C61.0824 74.6716 59.5638 75.4953 57.9322 76.1899C56.2843 76.8683 54.5073 77.4174 52.7302 77.8374C52.1809 77.9666 51.7771 78.5158 51.7771 79.065V84.5406C51.7771 86.1881 50.5493 87.561 48.7561 87.561H41.2116C39.5638 87.561 38.1906 86.1881 38.1906 84.5406V79.065C38.1906 78.5158 37.7868 77.9666 37.2375 77.8374C35.4604 77.4336 33.6672 76.8844 32.0355 76.1899C30.3877 75.5115 28.8853 74.6877 27.3829 73.7186C26.8336 73.444 26.1551 73.444 25.7351 73.8478L21.7609 77.8213C20.6624 78.9196 18.7399 78.9196 17.6575 77.8213L12.1809 72.3457C11.0824 71.2473 10.9532 69.196 12.1809 68.0976L16.1551 64.1242C16.4297 63.8496 16.559 63.1712 16.2843 62.7513C14.3619 59.6016 12.9887 56.3065 12.1809 52.7531C12.0517 52.2039 11.5024 51.8001 10.9531 51.8001H5.47657C3.69951 51.8001 2.45557 50.4271 2.45557 48.7796ZM59.8708 38.2322L65.8966 35.3571L67.8191 31.3837L65.3473 27.9594C64.6688 28.5086 63.8449 28.6378 63.021 28.6378C60.42 28.6378 58.3683 26.5865 58.3683 23.986C58.3683 21.5147 60.42 19.3342 63.021 19.3342C65.622 19.3342 67.6737 21.5309 67.6737 23.986C67.6737 24.8098 67.5444 25.6335 67.1244 26.3119L70.1454 30.5599C70.42 30.8345 70.42 31.3837 70.2746 31.7875L67.9483 36.8593C67.8191 37.1339 67.5444 37.2631 67.2698 37.4085L59.8708 40.8327V43.7078H68.2229C68.7722 41.7857 70.5493 40.2836 72.7464 40.2836C75.2181 40.2836 77.399 42.3349 77.399 44.9354C77.399 47.5359 75.2019 49.5872 72.7464 49.5872C70.5493 49.5872 68.7722 48.0851 68.2229 46.163H59.8708V49.0381L67.2698 52.4623C67.5444 52.5915 67.8191 52.8661 67.9483 53.0115L70.2746 58.2125C70.4039 58.6163 70.4039 59.0363 70.1454 59.4401L67.1244 63.6881C68.0775 65.4648 67.8029 67.6615 66.3005 69.1637C64.5234 70.9404 61.5024 70.9404 59.7254 69.1637C57.9483 67.3869 57.9483 64.3665 59.7254 62.5897C61.2278 61.0876 63.5703 60.813 65.3473 61.9113L67.8191 58.4871L65.8966 54.5136L59.8708 51.6385V56.3227C59.8708 58.2448 58.3683 59.8923 56.3005 59.8923H52.4556V62.3636C52.4556 64.0111 49.9838 64.0111 49.9838 62.3636V59.8762H46.1389V68.0976C48.1906 68.6468 49.5638 70.4235 49.5638 72.6202C49.5638 75.2207 47.5121 77.2721 45.0404 77.2721C42.4394 77.2721 40.3877 75.2207 40.3877 72.6202C40.3877 70.4235 41.7609 68.6468 43.8126 68.0976V59.8762H40V62.3475C40 63.995 37.5283 63.995 37.5283 62.3475V59.8762H33.6995C31.6478 59.8762 30.1292 58.2286 30.1292 56.3065V51.6547L24.1034 54.5298L22.1809 58.5032L24.6527 61.9275C25.3312 61.5237 26.1551 61.2491 26.979 61.2491C29.58 61.2491 31.6317 63.3004 31.6317 65.9009C31.6317 68.5014 29.58 70.5528 26.979 70.5528C24.378 70.5528 22.3263 68.5014 22.3263 65.9009C22.3263 65.0772 22.601 64.2534 22.8756 63.7042L19.8546 59.4562C19.58 59.0524 19.58 58.6325 19.7254 58.2286L22.0517 53.0276C22.1809 52.8984 22.4556 52.6238 22.7302 52.4785L30.1292 49.0542V46.1791H21.7771C21.2278 48.1012 19.4507 49.6034 17.2536 49.6034C14.7819 49.6034 12.601 47.552 12.601 44.9515C12.601 42.351 14.7981 40.2997 17.2536 40.2997C19.4507 40.2997 21.2278 41.8019 21.7771 43.724H30.1292V40.9781L22.7302 37.4085C22.4556 37.2793 22.1809 37.1339 22.0517 36.8593L19.7254 31.7875C19.5961 31.3837 19.5961 30.8345 19.8546 30.5599L22.8756 26.3119C22.601 25.6335 22.3263 24.8098 22.3263 23.986C22.3263 21.5147 24.378 19.3342 26.979 19.3342C29.58 19.3342 31.6317 21.5309 31.6317 23.986C31.6317 26.5865 29.58 28.6378 26.979 28.6378C26.1551 28.6378 25.3312 28.5086 24.6527 27.9594L22.1809 31.3837L24.1034 35.3571L30.1292 38.2322V33.5804C30.1292 31.6583 31.6317 30.0108 33.6995 30.0108H37.5444V27.5395C37.5444 25.892 40.0162 25.892 40.0162 27.5395V30.0108H43.8611V21.7893C41.8094 21.2401 40.4362 19.4634 40.4362 17.2667C40.4362 14.6662 42.4879 12.6149 45.0889 12.6149C47.5606 12.6149 49.6123 14.6662 49.6123 17.2667C49.6123 19.4634 48.2391 21.2401 46.1874 21.7893V30.0108H50.0323V27.5395C50.0323 25.892 52.504 25.892 52.504 27.5395V30.0108H56.3166C58.3683 30.0108 59.8869 31.6583 59.8869 33.5804V38.2322H59.8708ZM38.7722 37.5538H51.2439C51.9225 37.5538 52.4717 38.103 52.4717 38.7814V51.2509C52.4717 51.8001 51.9225 52.3492 51.2439 52.3492H38.7722C38.0937 52.3492 37.5444 51.8001 37.5444 51.2509V38.7814C37.5444 38.103 38.0937 37.5538 38.7722 37.5538ZM50.0162 40.009H40V50.0072H50V40.009H50.0162ZM56.3166 32.4821H33.6995C33.021 32.4821 32.4717 33.0312 32.4717 33.5804V56.3227C32.4717 57.0011 33.021 57.421 33.6995 57.421H56.3166C56.9952 57.421 57.5444 57.0172 57.5444 56.3227V33.5804C57.5444 33.0312 56.9952 32.4821 56.3166 32.4821ZM42.7464 72.6202C42.7464 73.8478 43.8449 74.8169 45.0727 74.8169C46.3005 74.8169 47.2698 73.864 47.2698 72.6202C47.2698 71.3927 46.3166 70.4235 45.0727 70.4235C43.8449 70.4235 42.7464 71.3927 42.7464 72.6202ZM42.7464 17.2667C42.7464 18.4943 43.8449 19.4634 45.0727 19.4634C46.3005 19.4634 47.2698 18.5104 47.2698 17.2667C47.2698 16.0391 46.3166 15.07 45.0727 15.07C43.8449 15.0861 42.7464 16.0391 42.7464 17.2667ZM17.2536 42.7548C16.0258 42.7548 15.0565 43.7078 15.0565 44.9515C15.0565 46.1791 16.0097 47.1482 17.2536 47.1482C18.4814 47.1482 19.58 46.1953 19.58 44.9515C19.5961 43.7078 18.4976 42.7548 17.2536 42.7548ZM72.7625 42.7548C71.5347 42.7548 70.4362 43.7078 70.4362 44.9515C70.4362 46.1791 71.5347 47.1482 72.7625 47.1482C73.9903 47.1482 74.9596 46.1953 74.9596 44.9515C74.9435 43.7078 73.9903 42.7548 72.7625 42.7548ZM26.9952 68.0976C28.2229 68.0976 29.1922 67.1447 29.1922 65.9009C29.1922 64.6572 28.2391 63.7042 26.9952 63.7042C25.7512 63.7042 24.7981 64.6572 24.7981 65.9009C24.7981 67.1447 25.7512 68.0976 26.9952 68.0976ZM26.9952 21.7893C25.7674 21.7893 24.7981 22.7423 24.7981 23.986C24.7981 25.2297 25.7512 26.3119 26.9952 26.3119C28.2391 26.3119 29.1922 25.2136 29.1922 23.986C29.1922 22.7584 28.2229 21.7893 26.9952 21.7893ZM64.6688 67.4192C65.4927 66.5955 65.4927 65.2225 64.6688 64.2696C63.7157 63.4458 62.3425 63.4458 61.5186 64.2696C60.5654 65.2225 60.5654 66.5955 61.5186 67.4192C62.3425 68.3722 63.7157 68.3722 64.6688 67.4192ZM63.021 21.7893C61.7932 21.7893 60.8239 22.7423 60.8239 23.986C60.8239 25.2297 61.7771 26.3119 63.021 26.3119C64.2488 26.3119 65.2181 25.2136 65.2181 23.986C65.2181 22.7584 64.2649 21.7893 63.021 21.7893ZM0 41.1073V48.7796C0 51.8001 2.47173 54.2552 5.47657 54.2552H10C10.8239 57.2757 12.0517 60.28 13.6995 63.1551L10.4039 66.4501C8.35218 68.6468 8.35218 72.0711 10.4039 74.1224L15.8805 79.4688C18.0775 81.5201 21.357 81.6655 23.5541 79.4688L26.8498 76.1737C28.2229 76.9975 29.7254 77.8213 31.0985 78.3704C32.601 79.0488 34.2488 79.4688 35.7512 79.8726V84.5244C35.7512 87.5449 38.2229 90 41.2278 90H48.7722C51.7932 90 54.2488 87.5287 54.2488 84.5244V79.8726C55.8966 79.4688 57.399 79.0488 58.9015 78.3704C60.2746 77.8213 61.7771 76.9975 63.1502 76.1737L66.4459 79.4688C68.643 81.6655 71.9225 81.5201 74.1196 79.4688L79.5961 74.1224C81.6478 72.0711 81.6478 68.6468 79.5961 66.4501L76.3005 63.1551C77.9483 60.28 79.1761 57.2595 80 54.2552H84.6527C87.5283 54.2552 90 51.7839 90 48.7796V41.1073C90 38.0869 87.5283 35.7609 84.6527 35.7609H80C79.1761 32.6113 77.9483 29.5908 76.3005 26.7157L79.5961 23.4207C81.6478 21.3693 81.6478 17.9451 79.5961 15.8776L74.1196 10.402C71.9225 8.35068 68.643 8.20531 66.4459 10.402L63.1502 13.6971C61.7771 12.8733 60.2746 12.1949 58.9015 11.5004C57.399 10.9512 55.8805 10.402 54.2488 9.99821V5.34637C54.2488 2.32591 51.7771 0 48.7722 0H41.2278C38.2068 0 35.7512 2.32591 35.7512 5.34637V9.99821C34.2488 10.402 32.601 10.9512 31.0985 11.5004C29.7254 12.1788 28.2229 12.8733 26.8498 13.6971L23.5541 10.402C21.357 8.20531 18.0775 8.35068 15.8805 10.402L10.4039 15.8776C8.35218 17.9289 8.35218 21.3532 10.4039 23.4207L13.6995 26.7157C12.0517 29.5908 10.8239 32.6113 10 35.7609H5.47657C2.45557 35.7609 0 38.103 0 41.1073Z" fill="#1B54F8"></path></svg> 