<?xml version="1.0" encoding="UTF-8"?> <svg xmlns="http://www.w3.org/2000/svg" width="90" height="90" viewBox="0 0 90 90" fill="none"><mask id="path-1-inside-1_11_30" fill="white"><path fill-rule="evenodd" clip-rule="evenodd" d="M14.2456 61.8645L13.5467 62.6576C12.33 64.1951 11.6167 66.0738 11.6167 68.102C11.6167 73.3027 16.3205 77.525 22.1107 77.525C22.2628 77.525 22.4113 77.5217 22.5597 77.5152C24.0806 82.03 28.7519 85.3227 34.2741 85.3227C37.631 85.3227 40.6764 84.1038 42.8889 82.134V88.3748C42.8889 89.2719 43.7 90 44.6995 90C45.6989 90 46.5101 89.2719 46.5101 88.3748V85.3194C46.5354 85.3194 46.5607 85.3227 46.5861 85.3227C48.049 85.3259 49.512 85.2317 50.9641 85.0399C51.7716 84.9359 52.4016 84.3573 52.4994 83.6292L53.1585 78.7536C54.7916 78.3278 56.3668 77.7427 57.8587 77.0081L62.1643 80.0375C62.8088 80.4893 63.7069 80.4991 64.3623 80.0603C66.6653 78.5196 68.7077 76.6864 70.4241 74.6191C70.9129 74.0308 70.9021 73.2214 70.3988 72.6461L67.0238 68.7781C67.8422 67.4422 68.494 66.0283 68.972 64.5624L74.4001 63.9708C75.2113 63.883 75.8558 63.3175 75.9753 62.5926C76.3917 60.041 76.3917 57.4472 75.9753 54.8957C75.8558 54.1708 75.2113 53.6053 74.4001 53.5175L68.9684 52.9259C68.494 51.46 67.8422 50.0461 67.0238 48.7069L70.3988 44.8422C70.9021 44.2669 70.9129 43.4575 70.4241 42.8692C68.7077 40.8019 66.6653 38.9687 64.3623 37.428C63.7069 36.9892 62.8088 36.999 62.1643 37.4508L57.8587 40.4801C56.3668 39.7455 54.7916 39.1605 53.1585 38.7347L52.4994 33.8591C52.4016 33.131 51.7716 32.5524 50.9641 32.4484C49.512 32.2566 48.049 32.1624 46.5861 32.1656C46.5607 32.1656 46.5354 32.1689 46.5101 32.1689V29.1135C46.5101 28.2164 45.6989 27.4883 44.6995 27.4883C43.7 27.4883 42.8889 28.2164 42.8889 29.1135V34.4734C41.0457 33.0367 38.6413 32.1656 36.0123 32.1656C32.1124 32.1656 28.7048 34.0801 26.8943 36.9177C26.467 36.8689 26.0288 36.8462 25.5871 36.8462C19.7932 36.8462 15.0893 41.0685 15.0893 46.2691C15.0893 47.0037 15.1835 47.722 15.3645 48.4111C13.0723 50.1371 11.6167 52.7309 11.6167 55.6238C11.6167 58.0161 12.6089 60.2003 14.2456 61.8645ZM46.5101 45.6483C46.5644 45.645 46.6223 45.6418 46.6766 45.6418C54.7336 45.6418 61.2771 51.512 61.2771 58.7441C61.2771 65.9763 54.7336 71.8465 46.6766 71.8465C46.6223 71.8465 46.5644 71.8465 46.5101 71.84V82.0723C46.539 82.0723 46.5679 82.0723 46.5969 82.0723C47.4262 82.0723 48.2518 82.0398 49.0774 81.9715L49.7148 77.2649C49.8053 76.5856 50.3593 76.033 51.1016 75.877C53.2055 75.4414 55.2153 74.6939 57.0476 73.6667C57.6921 73.3059 58.5214 73.3449 59.1225 73.7675L63.2796 76.6896C64.5108 75.773 65.6478 74.7524 66.6726 73.6472L63.4136 69.9125C62.9464 69.3762 62.8993 68.6319 63.3049 68.05C64.4455 66.4053 65.2784 64.6046 65.7673 62.7161C65.9375 62.0498 66.5567 61.5525 67.3099 61.468L72.5533 60.8959C72.7018 59.4657 72.7018 58.0226 72.5533 56.5924L67.3099 56.0203C66.5567 55.9358 65.9375 55.4385 65.7673 54.7722C65.2784 52.8837 64.4455 51.0829 63.3049 49.4382C62.8993 48.8564 62.9464 48.1121 63.4136 47.5758L66.6726 43.8411C65.6478 42.7359 64.5108 41.7153 63.2796 40.7987L59.1225 43.7208C58.5214 44.1433 57.6921 44.1823 57.0476 43.8215C55.2153 42.7944 53.2055 42.0468 51.1016 41.6113C50.3593 41.4553 49.8053 40.9027 49.7148 40.2234L49.0774 35.5168C48.2518 35.4485 47.4262 35.416 46.5969 35.416C46.5679 35.416 46.539 35.416 46.5101 35.416V45.6483ZM26.1302 76.8619C27.2962 79.8913 30.5045 82.0723 34.2741 82.0723C39.0287 82.0723 42.8889 78.6073 42.8889 74.3396V41.5885C42.8889 38.1821 39.8073 35.416 36.0123 35.416C33.3146 35.416 30.9753 36.8137 29.8528 38.8452L29.5232 39.505C28.9293 40.7662 28.8316 42.1541 29.2009 43.451C29.4472 44.3189 28.8641 45.2062 27.8973 45.4272C26.9268 45.6515 25.9419 45.125 25.692 44.2571C25.3046 42.9017 25.2575 41.478 25.5581 40.0966C21.774 40.1096 18.7105 42.8692 18.7105 46.2691C18.7105 47.0394 18.8698 47.7773 19.1559 48.4599C19.4637 49.1815 19.1631 49.9973 18.4353 50.4101C16.5124 51.5055 15.2378 53.433 15.2378 55.6238C15.2378 57.249 15.9367 58.7279 17.0809 59.8298C18.4027 59.1829 19.8946 58.7799 21.477 58.6954C21.8754 57.6943 22.4656 56.7354 23.2586 55.8675C22.5815 55.0712 22.0347 54.1741 21.6544 53.199C21.3285 52.3506 21.8283 51.4242 22.7698 51.1285C23.7149 50.8359 24.7469 51.2845 25.0765 52.1296C25.8188 54.0473 27.5569 55.5067 29.5957 56.1893C30.5335 56.5014 31.0115 57.4375 30.6639 58.2793C30.3163 59.1212 29.2733 59.547 28.3355 59.235C27.4809 58.9489 26.6625 58.5719 25.9021 58.1071C24.584 59.6575 24.2074 61.611 24.7143 63.389C24.9642 64.2568 24.3776 65.1442 23.4107 65.3652C22.4439 65.5895 21.4553 65.0629 21.209 64.1951C21.0063 63.4865 20.894 62.7584 20.8796 62.027C19.5868 62.2383 18.4208 62.7746 17.4901 63.5352L17.4249 63.5872C16.0779 64.7151 15.2378 66.3208 15.2378 68.102C15.2378 71.5085 18.3158 74.2746 22.1107 74.2746C22.3063 74.2746 22.4982 74.2648 22.6865 74.2518C23.1138 72.1553 24.3269 70.1758 26.2932 68.7066C27.0608 68.1313 28.2051 68.2256 28.8424 68.9146C29.4834 69.6037 29.3784 70.6309 28.6107 71.2029C26.8327 72.5323 25.9926 74.4988 26.1556 76.4231C26.1701 76.5726 26.1592 76.7189 26.1302 76.8619ZM46.5101 48.8857V68.6026C46.5644 68.5994 46.6223 68.5961 46.6766 68.5961C52.7348 68.5961 57.6559 64.1821 57.6559 58.7441C57.6559 53.3062 52.7348 48.8922 46.6766 48.8922C46.6223 48.8922 46.5644 48.8889 46.5101 48.8857Z"></path></mask><path fill-rule="evenodd" clip-rule="evenodd" d="M14.2456 61.8645L13.5467 62.6576C12.33 64.1951 11.6167 66.0738 11.6167 68.102C11.6167 73.3027 16.3205 77.525 22.1107 77.525C22.2628 77.525 22.4113 77.5217 22.5597 77.5152C24.0806 82.03 28.7519 85.3227 34.2741 85.3227C37.631 85.3227 40.6764 84.1038 42.8889 82.134V88.3748C42.8889 89.2719 43.7 90 44.6995 90C45.6989 90 46.5101 89.2719 46.5101 88.3748V85.3194C46.5354 85.3194 46.5607 85.3227 46.5861 85.3227C48.049 85.3259 49.512 85.2317 50.9641 85.0399C51.7716 84.9359 52.4016 84.3573 52.4994 83.6292L53.1585 78.7536C54.7916 78.3278 56.3668 77.7427 57.8587 77.0081L62.1643 80.0375C62.8088 80.4893 63.7069 80.4991 64.3623 80.0603C66.6653 78.5196 68.7077 76.6864 70.4241 74.6191C70.9129 74.0308 70.9021 73.2214 70.3988 72.6461L67.0238 68.7781C67.8422 67.4422 68.494 66.0283 68.972 64.5624L74.4001 63.9708C75.2113 63.883 75.8558 63.3175 75.9753 62.5926C76.3917 60.041 76.3917 57.4472 75.9753 54.8957C75.8558 54.1708 75.2113 53.6053 74.4001 53.5175L68.9684 52.9259C68.494 51.46 67.8422 50.0461 67.0238 48.7069L70.3988 44.8422C70.9021 44.2669 70.9129 43.4575 70.4241 42.8692C68.7077 40.8019 66.6653 38.9687 64.3623 37.428C63.7069 36.9892 62.8088 36.999 62.1643 37.4508L57.8587 40.4801C56.3668 39.7455 54.7916 39.1605 53.1585 38.7347L52.4994 33.8591C52.4016 33.131 51.7716 32.5524 50.9641 32.4484C49.512 32.2566 48.049 32.1624 46.5861 32.1656C46.5607 32.1656 46.5354 32.1689 46.5101 32.1689V29.1135C46.5101 28.2164 45.6989 27.4883 44.6995 27.4883C43.7 27.4883 42.8889 28.2164 42.8889 29.1135V34.4734C41.0457 33.0367 38.6413 32.1656 36.0123 32.1656C32.1124 32.1656 28.7048 34.0801 26.8943 36.9177C26.467 36.8689 26.0288 36.8462 25.5871 36.8462C19.7932 36.8462 15.0893 41.0685 15.0893 46.2691C15.0893 47.0037 15.1835 47.722 15.3645 48.4111C13.0723 50.1371 11.6167 52.7309 11.6167 55.6238C11.6167 58.0161 12.6089 60.2003 14.2456 61.8645ZM46.5101 45.6483C46.5644 45.645 46.6223 45.6418 46.6766 45.6418C54.7336 45.6418 61.2771 51.512 61.2771 58.7441C61.2771 65.9763 54.7336 71.8465 46.6766 71.8465C46.6223 71.8465 46.5644 71.8465 46.5101 71.84V82.0723C46.539 82.0723 46.5679 82.0723 46.5969 82.0723C47.4262 82.0723 48.2518 82.0398 49.0774 81.9715L49.7148 77.2649C49.8053 76.5856 50.3593 76.033 51.1016 75.877C53.2055 75.4414 55.2153 74.6939 57.0476 73.6667C57.6921 73.3059 58.5214 73.3449 59.1225 73.7675L63.2796 76.6896C64.5108 75.773 65.6478 74.7524 66.6726 73.6472L63.4136 69.9125C62.9464 69.3762 62.8993 68.6319 63.3049 68.05C64.4455 66.4053 65.2784 64.6046 65.7673 62.7161C65.9375 62.0498 66.5567 61.5525 67.3099 61.468L72.5533 60.8959C72.7018 59.4657 72.7018 58.0226 72.5533 56.5924L67.3099 56.0203C66.5567 55.9358 65.9375 55.4385 65.7673 54.7722C65.2784 52.8837 64.4455 51.0829 63.3049 49.4382C62.8993 48.8564 62.9464 48.1121 63.4136 47.5758L66.6726 43.8411C65.6478 42.7359 64.5108 41.7153 63.2796 40.7987L59.1225 43.7208C58.5214 44.1433 57.6921 44.1823 57.0476 43.8215C55.2153 42.7944 53.2055 42.0468 51.1016 41.6113C50.3593 41.4553 49.8053 40.9027 49.7148 40.2234L49.0774 35.5168C48.2518 35.4485 47.4262 35.416 46.5969 35.416C46.5679 35.416 46.539 35.416 46.5101 35.416V45.6483ZM26.1302 76.8619C27.2962 79.8913 30.5045 82.0723 34.2741 82.0723C39.0287 82.0723 42.8889 78.6073 42.8889 74.3396V41.5885C42.8889 38.1821 39.8073 35.416 36.0123 35.416C33.3146 35.416 30.9753 36.8137 29.8528 38.8452L29.5232 39.505C28.9293 40.7662 28.8316 42.1541 29.2009 43.451C29.4472 44.3189 28.8641 45.2062 27.8973 45.4272C26.9268 45.6515 25.9419 45.125 25.692 44.2571C25.3046 42.9017 25.2575 41.478 25.5581 40.0966C21.774 40.1096 18.7105 42.8692 18.7105 46.2691C18.7105 47.0394 18.8698 47.7773 19.1559 48.4599C19.4637 49.1815 19.1631 49.9973 18.4353 50.4101C16.5124 51.5055 15.2378 53.433 15.2378 55.6238C15.2378 57.249 15.9367 58.7279 17.0809 59.8298C18.4027 59.1829 19.8946 58.7799 21.477 58.6954C21.8754 57.6943 22.4656 56.7354 23.2586 55.8675C22.5815 55.0712 22.0347 54.1741 21.6544 53.199C21.3285 52.3506 21.8283 51.4242 22.7698 51.1285C23.7149 50.8359 24.7469 51.2845 25.0765 52.1296C25.8188 54.0473 27.5569 55.5067 29.5957 56.1893C30.5335 56.5014 31.0115 57.4375 30.6639 58.2793C30.3163 59.1212 29.2733 59.547 28.3355 59.235C27.4809 58.9489 26.6625 58.5719 25.9021 58.1071C24.584 59.6575 24.2074 61.611 24.7143 63.389C24.9642 64.2568 24.3776 65.1442 23.4107 65.3652C22.4439 65.5895 21.4553 65.0629 21.209 64.1951C21.0063 63.4865 20.894 62.7584 20.8796 62.027C19.5868 62.2383 18.4208 62.7746 17.4901 63.5352L17.4249 63.5872C16.0779 64.7151 15.2378 66.3208 15.2378 68.102C15.2378 71.5085 18.3158 74.2746 22.1107 74.2746C22.3063 74.2746 22.4982 74.2648 22.6865 74.2518C23.1138 72.1553 24.3269 70.1758 26.2932 68.7066C27.0608 68.1313 28.2051 68.2256 28.8424 68.9146C29.4834 69.6037 29.3784 70.6309 28.6107 71.2029C26.8327 72.5323 25.9926 74.4988 26.1556 76.4231C26.1701 76.5726 26.1592 76.7189 26.1302 76.8619ZM46.5101 48.8857V68.6026C46.5644 68.5994 46.6223 68.5961 46.6766 68.5961C52.7348 68.5961 57.6559 64.1821 57.6559 58.7441C57.6559 53.3062 52.7348 48.8922 46.6766 48.8922C46.6223 48.8922 46.5644 48.8889 46.5101 48.8857Z" fill="#1B54F8" stroke="white" stroke-width="0.8" mask="url(#path-1-inside-1_11_30)"></path><path d="M43.3894 14.2595V14.0966L43.2299 14.0636C39.7356 13.3415 37.1538 10.5374 37.1538 7.22239C37.1538 3.36763 40.6501 0.2 45 0.2C49.3499 0.2 52.8462 3.36763 52.8462 7.22239C52.8462 10.5374 50.2644 13.3415 46.7701 14.0636L46.6106 14.0966V14.2595V23.1526C46.6106 23.9195 45.9099 24.5778 45 24.5778C44.0902 24.5778 43.3894 23.9195 43.3894 23.1526V14.2595ZM49.6251 7.22239C49.6251 4.89804 47.5301 3.0504 45 3.0504C42.4699 3.0504 40.375 4.89804 40.375 7.22239C40.375 9.54339 42.4698 11.3944 45 11.3944C47.5303 11.3944 49.6251 9.54339 49.6251 7.22239Z" fill="#1B54F8" stroke="white" stroke-width="0.4"></path><path d="M24.3458 23.1136V22.9581L24.1951 22.9198C21.4834 22.2297 19.5188 20.0002 19.5188 17.3799C19.5188 14.2239 22.3815 11.6219 25.9564 11.6219C29.5313 11.6219 32.394 14.2239 32.394 17.3799C32.394 20.0002 30.4294 22.2297 27.7176 22.9198L27.567 22.9581V23.1136V29.7152C27.567 30.482 26.8662 31.1404 25.9564 31.1404C25.0465 31.1404 24.3458 30.482 24.3458 29.7152V23.1136ZM29.1728 17.3799C29.1728 15.7545 27.7117 14.4723 25.9564 14.4723C24.2011 14.4723 22.74 15.7545 22.74 17.3799C22.74 19.0053 24.2011 20.2875 25.9564 20.2875C27.7117 20.2875 29.1728 19.0053 29.1728 17.3799Z" fill="#1B54F8" stroke="white" stroke-width="0.4"></path><path d="M62.4331 23.1136V22.9581L62.2824 22.9198C59.5706 22.2297 57.606 20.0002 57.606 17.3799C57.606 14.2239 60.4687 11.6219 64.0436 11.6219C67.6186 11.6219 70.4812 14.2239 70.4812 17.3799C70.4812 20.0002 68.5167 22.2297 65.8049 22.9198L65.6542 22.9581V23.1136V29.7152C65.6542 30.482 64.9535 31.1404 64.0436 31.1404C63.1338 31.1404 62.4331 30.482 62.4331 29.7152V23.1136ZM67.26 17.3799C67.26 15.7545 65.799 14.4723 64.0436 14.4723C62.2883 14.4723 60.8272 15.7545 60.8272 17.3799C60.8272 19.0053 62.2883 20.2875 64.0436 20.2875C65.799 20.2875 67.26 19.0053 67.26 17.3799Z" fill="#1B54F8" stroke="white" stroke-width="0.4"></path><path d="M5.02702 14.448V14.2925L4.87634 14.2542C2.16463 13.5641 0.2 11.3314 0.2 8.71427C0.2 5.55509 3.06258 2.95629 6.63759 2.95629C10.2091 2.95629 13.0751 5.55516 13.0751 8.71427C13.0751 11.3314 11.1106 13.5641 8.39885 14.2542L8.24817 14.2925V14.448V25.9642V26.0534L8.31453 26.113L15.2527 32.344L15.2527 32.344C15.8703 32.8984 15.8703 33.79 15.2527 34.3444C14.6226 34.91 13.5899 34.91 12.9597 34.3444L5.48929 27.6388C5.18872 27.369 5.02702 27.0093 5.02702 26.6402V14.448ZM9.85398 8.71427C9.85398 7.08872 8.38913 5.80669 6.63759 5.80669C4.88227 5.80669 3.42115 7.08886 3.42115 8.71427C3.42115 10.3397 4.88227 11.6219 6.63759 11.6219C8.38913 11.6219 9.85398 10.3398 9.85398 8.71427Z" fill="#1B54F8" stroke="white" stroke-width="0.4"></path><path d="M81.7518 14.448V14.2925L81.6012 14.2542C78.8894 13.5641 76.9249 11.3314 76.9249 8.71427C76.9249 5.55516 79.7909 2.95629 83.3624 2.95629C86.9374 2.95629 89.8 5.55509 89.8 8.71427C89.8 11.3314 87.8354 13.5641 85.1237 14.2542L84.973 14.2925V14.448V26.6402C84.973 27.0093 84.8113 27.369 84.5107 27.6388L77.0403 34.3444C76.4101 34.91 75.3774 34.91 74.7473 34.3444L74.6137 34.4932L74.7473 34.3444C74.1297 33.79 74.1297 32.8984 74.7473 32.344L74.7473 32.344L81.6855 26.113L81.7518 26.0534V25.9642V14.448ZM86.5789 8.71427C86.5789 7.08886 85.1177 5.80669 83.3624 5.80669C81.6109 5.80669 80.146 7.08872 80.146 8.71427C80.146 10.3398 81.6109 11.6219 83.3624 11.6219C85.1177 11.6219 86.5789 10.3397 86.5789 8.71427Z" fill="#1B54F8" stroke="white" stroke-width="0.4"></path></svg> 