<?xml version="1.0" encoding="UTF-8"?> <svg xmlns="http://www.w3.org/2000/svg" xmlns:xlink="http://www.w3.org/1999/xlink" width="60" height="60" viewBox="0 0 60 60"><defs><clipPath id="clip-path"><rect id="Rectangle_872" data-name="Rectangle 872" width="60" height="60" transform="translate(317 253)" fill="#fff" stroke="#707070" stroke-width="1"></rect></clipPath></defs><g id="Mask_Group_101" data-name="Mask Group 101" transform="translate(-317 -253)" clip-path="url(#clip-path)"><g id="Group_2963" data-name="Group 2963" transform="translate(-269.8 -3140.224)"><g id="Group_2962" data-name="Group 2962" transform="translate(595.8 3399.224)"><g id="Group_2961" data-name="Group 2961" transform="translate(0 0)"><g id="Group_2960" data-name="Group 2960"><g id="Group_2959" data-name="Group 2959"><g id="Group_2951" data-name="Group 2951" transform="translate(20.028 31.665)"><path id="Path_3143" data-name="Path 3143" d="M3339.7,4682.776a.7.7,0,0,1-.7-.7V4672.7a.7.7,0,0,1,1.409,0v9.368A.758.758,0,0,1,3339.7,4682.776Z" transform="translate(-3339 -4672)" fill="#1c54f8" fill-rule="evenodd"></path></g><g id="Group_2952" data-name="Group 2952" transform="translate(8.467 28.725)"><path id="Path_3144" data-name="Path 3144" d="M1637.561,4246.778H1632.7a.7.7,0,0,1,0-1.409h4.193V4238.7a.7.7,0,0,1,1.409,0v7.37A.763.763,0,0,1,1637.561,4246.778Z" transform="translate(-1632 -4238)" fill="#1c54f8" fill-rule="evenodd"></path></g><g id="Group_2953" data-name="Group 2953" transform="translate(28.292 28.725)"><path id="Path_3145" data-name="Path 3145" d="M4564.567,4246.778h-4.856a.705.705,0,0,1-.711-.7v-7.37a.708.708,0,0,1,1.415,0v6.665h4.193a.7.7,0,0,1,.7.705A.734.734,0,0,1,4564.567,4246.778Z" transform="translate(-4559 -4238)" fill="#1c54f8" fill-rule="evenodd"></path></g><g id="Group_2954" data-name="Group 2954" transform="translate(2.628 33.195)"><path id="Path_3146" data-name="Path 3146" d="M773.6,4905.213a3.606,3.606,0,1,1,3.6-3.609A3.6,3.6,0,0,1,773.6,4905.213Zm0-5.8a2.235,2.235,0,0,0,0,4.471,2.235,2.235,0,0,0,0-4.471Z" transform="translate(-770 -4898)" fill="#1c54f8" fill-rule="evenodd"></path></g><g id="Group_2955" data-name="Group 2955" transform="translate(33.155 33.195)"><path id="Path_3147" data-name="Path 3147" d="M5280.6,4905.213a3.606,3.606,0,1,1,3.61-3.609A3.6,3.6,0,0,1,5280.6,4905.213Zm0-5.8a2.235,2.235,0,1,0,2.235,2.234A2.211,2.211,0,0,0,5280.6,4899.409Z" transform="translate(-5277 -4898)" fill="#1c54f8" fill-rule="evenodd"></path></g><g id="Group_2956" data-name="Group 2956" transform="translate(17.163 41.032)"><path id="Path_3148" data-name="Path 3148" d="M2919.57,6062.173a3.587,3.587,0,1,1,3.6-3.6A3.645,3.645,0,0,1,2919.57,6062.173Zm0-5.765a2.19,2.19,0,0,0-2.194,2.194,2.215,2.215,0,1,0,4.429,0A2.256,2.256,0,0,0,2919.57,6056.409Z" transform="translate(-2916 -6055)" fill="#1c54f8" fill-rule="evenodd"></path></g><g id="Group_2957" data-name="Group 2957"><path id="Path_3149" data-name="Path 3149" d="M424.285,22.752a.705.705,0,0,1-.7-.711V15.579l-4.078-.237a.666.666,0,0,1-.623-.508,15.014,15.014,0,0,0-1.964-4.667.7.7,0,0,1,.081-.82l2.743-3.061-4.077-4.071-3.055,2.743a.714.714,0,0,1-.826.075,15.744,15.744,0,0,0-4.66-1.957.625.625,0,0,1-.508-.63l-.2-4.071h-5.8l-.23,4.071a.673.673,0,0,1-.515.63,16.7,16.7,0,0,0-4.66,1.957.714.714,0,0,1-.826-.075l-3.055-2.743-4.078,4.111,2.743,3.061a.7.7,0,0,1,.081.82,16.021,16.021,0,0,0-1.957,4.667.636.636,0,0,1-.63.508l-4.078.237v6.462a.7.7,0,1,1-1.409,0V14.949a.656.656,0,0,1,.664-.664l4.193-.237a15.988,15.988,0,0,1,1.727-4.111L385.759,6.8a.685.685,0,0,1,.041-.941L390.859.8a.669.669,0,0,1,.935-.034l3.136,2.818a17.747,17.747,0,0,1,4.118-1.72l.237-4.2A.708.708,0,0,1,399.949-3h7.092a.666.666,0,0,1,.671.664l.271,4.2a17.747,17.747,0,0,1,4.118,1.72L415.229.766a.678.678,0,0,1,.941.034l5.019,5.019a.685.685,0,0,1,.041.941L418.406,9.9a16.615,16.615,0,0,1,1.727,4.111l4.193.237a.714.714,0,0,1,.664.664v7.1A.714.714,0,0,1,424.285,22.752Z" transform="translate(-382 3)" fill="#1c54f8" fill-rule="evenodd"></path></g><g id="Group_2958" data-name="Group 2958" transform="translate(9.916 9.875)"><path id="Path_3150" data-name="Path 3150" d="M1857.6,1478.2a11.6,11.6,0,1,1,11.6-11.6A11.6,11.6,0,0,1,1857.6,1478.2Zm0-21.83a10.228,10.228,0,1,0,10.234,10.228A10.236,10.236,0,0,0,1857.6,1456.375Z" transform="translate(-1846 -1455)" fill="#1c54f8" fill-rule="evenodd"></path></g></g></g></g></g><text id="AI" transform="translate(613.294 3423.395)" fill="#1c54f8" font-size="8" font-family="OpenSans-Bold, Open Sans" font-weight="700"><tspan x="0" y="0">AI</tspan></text></g></g></svg> 