<?xml version="1.0" encoding="UTF-8"?> <svg xmlns="http://www.w3.org/2000/svg" xmlns:xlink="http://www.w3.org/1999/xlink" width="60" height="60" viewBox="0 0 60 60"><defs><clipPath id="clip-path"><rect id="Rectangle_161" data-name="Rectangle 161" width="60" height="60" transform="translate(63 1460)" fill="#fff" stroke="#707070" stroke-width="1"></rect></clipPath></defs><g id="Mask_Group_60" data-name="Mask Group 60" transform="translate(-63 -1460)" clip-path="url(#clip-path)"><g id="Group_130" data-name="Group 130" transform="translate(-361.77 -121.545)"><path id="Path_544" data-name="Path 544" d="M58.4,23.247a3.372,3.372,0,0,0-1.271-2.264l-.984-.772a3.4,3.4,0,0,0-4.764.575L44.13,30.033V11.18a2.137,2.137,0,0,0-2.137-2.137H11.359a.712.712,0,0,0-.549.259L5.163,16.146s-.006.012-.01.017a.7.7,0,0,0-.1.183c0,.011-.007.021-.01.033A.685.685,0,0,0,5,16.6V56.034a2.137,2.137,0,0,0,2.137,2.137H41.995a2.137,2.137,0,0,0,2.137-2.137V43.051l13.575-17.3a3.37,3.37,0,0,0,.7-2.5ZM43.022,42.159a.712.712,0,0,0-.267.34L40.8,44.993l-4.085-3.206L48.862,26.3l4.085,3.206Zm-7.058,2.678h0l.293-1.6L39.5,45.78,35.46,47.591ZM10.818,11.527v3.647a.712.712,0,0,1-.712.712H7.22ZM42.708,56.034a.712.712,0,0,1-.712.712H7.137a.712.712,0,0,1-.712-.712V17.31h3.681a2.137,2.137,0,0,0,2.137-2.137V10.465H41.995a.712.712,0,0,1,.712.712V31.844l-3.85,4.906H21.77a.712.712,0,1,0,0,1.425H37.742l-2.585,3.292a.706.706,0,0,0-.131.6l-.351,1.917H21.77a.712.712,0,1,0,0,1.425H34.415l-.49,2.677H21.77a.712.712,0,1,0,0,1.425H34.517a.692.692,0,0,0,.146-.015l.019-.01a.712.712,0,0,0,.119-.04h.006L40.921,46.7A.758.758,0,0,0,41,46.7a.712.712,0,0,0,.475-.267l1.228-1.565ZM56.588,24.868l-2.763,3.522-4.085-3.206L52.5,21.662a1.973,1.973,0,0,1,2.768-.334l.984.772a1.978,1.978,0,0,1,.334,2.768ZM17.8,42.909l-.694.757a4.641,4.641,0,1,0,.912,1.109l.831-.9a.712.712,0,1,0-1.048-.961Zm-.56,4.208a3.213,3.213,0,1,1-1.093-2.4L14.1,46.943l-1.268-.8a.712.712,0,0,0-.759,1.2l1.773,1.118a.712.712,0,0,0,.9-.119L17,45.892a3.194,3.194,0,0,1,.242,1.224Zm3.82-13.754a.712.712,0,0,1,.712-.712H39.008a.712.712,0,1,1,0,1.425H21.77a.712.712,0,0,1-.711-.712ZM17.8,31.576l-.694.758a4.635,4.635,0,1,0,.913,1.109l.831-.9a.712.712,0,0,0-1.05-.962Zm-.56,4.208a3.213,3.213,0,1,1-1.093-2.4L14.1,35.613l-1.268-.8a.712.712,0,1,0-.759,1.2l1.773,1.118a.712.712,0,0,0,.9-.119L17,34.561a3.194,3.194,0,0,1,.242,1.224Zm3.82-13.754a.712.712,0,0,1,.712-.712H39.008a.712.712,0,0,1,0,1.425H21.77a.712.712,0,0,1-.711-.711Zm0,4.1a.712.712,0,0,1,.712-.712H39.008a.712.712,0,0,1,0,1.425H21.77a.712.712,0,0,1-.711-.711ZM17.8,20.244,17.1,21a4.641,4.641,0,1,0,.912,1.109l.831-.9a.712.712,0,1,0-1.048-.961Zm-.56,4.208a3.213,3.213,0,1,1-1.093-2.4L14.1,24.28l-1.268-.8a.712.712,0,0,0-.759,1.2L13.845,25.8a.712.712,0,0,0,.9-.119L17,23.229a3.194,3.194,0,0,1,.242,1.223Z" transform="translate(422.77 1577.503)" fill="#1c54f8" stroke="#fff" stroke-width="0.4"></path></g></g></svg> 