<?xml version="1.0" encoding="UTF-8"?> <svg xmlns="http://www.w3.org/2000/svg" id="Layer_1" data-name="Layer 1" viewBox="0 0 80 80"><defs><style>.cls-1{opacity:0;}.cls-2{fill:#fff;}.cls-3{fill:#1b54f8;}</style></defs><g class="cls-1"><rect class="cls-2" width="80" height="80"></rect></g><path class="cls-3" d="M40.78,11A29.22,29.22,0,1,0,70,40.22,29.23,29.23,0,0,0,40.78,11Zm0,2.66c2.92,0,5.91,2.59,8.2,7.4a34.7,34.7,0,0,1,2.28,6.54,41.19,41.19,0,0,1-10.48,1.33A41.25,41.25,0,0,1,30.3,27.6a35.41,35.41,0,0,1,2.29-6.54C34.88,16.25,37.87,13.66,40.78,13.66Zm-7.2,1a22.1,22.1,0,0,0-3.38,5.27,37.83,37.83,0,0,0-2.43,6.89,28.18,28.18,0,0,1-7.32-3.69A26.52,26.52,0,0,1,33.58,14.65Zm14.4,0a26.55,26.55,0,0,1,13.14,8.47,28.41,28.41,0,0,1-7.33,3.69,37.83,37.83,0,0,0-2.42-6.89A22.43,22.43,0,0,0,48,14.65ZM18.83,25.26a31.2,31.2,0,0,0,8.36,4.21,56.78,56.78,0,0,0-1,9.42H14.26A26.45,26.45,0,0,1,18.83,25.26Zm43.91,0A26.35,26.35,0,0,1,67.3,38.89H55.37a54.72,54.72,0,0,0-1-9.42A31.12,31.12,0,0,0,62.74,25.26Zm-33,5a44.46,44.46,0,0,0,11,1.36,44.4,44.4,0,0,0,11-1.36,53.42,53.42,0,0,1,.89,8.67H28.85A53.42,53.42,0,0,1,29.74,30.22ZM14.26,41.55H26.19a57,57,0,0,0,1,9.44,31,31,0,0,0-8.36,4.19A26.48,26.48,0,0,1,14.26,41.55Zm14.59,0H52.71a53.53,53.53,0,0,1-.89,8.67,45.17,45.17,0,0,0-22.08,0A53.53,53.53,0,0,1,28.85,41.55Zm26.52,0H67.3a26.38,26.38,0,0,1-4.56,13.63A31.08,31.08,0,0,0,54.37,51,55,55,0,0,0,55.37,41.55Zm-14.59,10a41.65,41.65,0,0,1,10.48,1.32A34.94,34.94,0,0,1,49,59.35c-2.15,4.51-4.92,7.1-7.66,7.41a4.87,4.87,0,0,1-.54,0,5,5,0,0,1-.54,0c-2.73-.31-5.51-2.9-7.65-7.41a34.23,34.23,0,0,1-2.29-6.52A41.71,41.71,0,0,1,40.78,51.51Zm-13,2.11a37.61,37.61,0,0,0,2.43,6.87,22.24,22.24,0,0,0,3.38,5.29,26.5,26.5,0,0,1-13.13-8.46A28.2,28.2,0,0,1,27.77,53.62Zm26,0a28.43,28.43,0,0,1,7.33,3.7A26.53,26.53,0,0,1,48,65.78a22.58,22.58,0,0,0,3.39-5.29A37.61,37.61,0,0,0,53.79,53.62Z"></path></svg> 