<?xml version="1.0" encoding="UTF-8"?> <svg xmlns="http://www.w3.org/2000/svg" id="Layer_1" data-name="Layer 1" viewBox="0 0 80 80"><defs><style>.cls-1{fill:#ea4335;}.cls-2{fill:#4285f4;}.cls-3{fill:#34a853;}.cls-4{fill:#fbbc05;}</style></defs><path class="cls-1" d="M51.2,28.6l2.54,0,6.89-6.89L61,18.84a30.94,30.94,0,0,0-50.46,15,3.71,3.71,0,0,1,2.36-.14l13.77-2.26s.71-1.17,1.07-1.11a17.14,17.14,0,0,1,23.5-1.78Z"></path><path class="cls-2" d="M70.31,33.9A31,31,0,0,0,61,18.84L51.2,28.59A17.19,17.19,0,0,1,57.62,42V43.7a8.61,8.61,0,0,1,0,17.21H40.41l-1.72,1.74V73l1.72,1.72H57.62A22.36,22.36,0,0,0,70.31,33.9Z"></path><path class="cls-3" d="M23.19,74.7H40.38V60.91H23.19a8.53,8.53,0,0,1-3.55-.77l-2.48.76-6.89,6.9-.6,2.32a22.22,22.22,0,0,0,13.51,4.57Z"></path><path class="cls-4" d="M23.19,29.94A22.37,22.37,0,0,0,9.68,70.14l10-10A8.6,8.6,0,1,1,31,48.79l10-10a22.34,22.34,0,0,0-17.82-8.87Z"></path></svg> 