<?xml version="1.0" encoding="UTF-8"?> <svg xmlns="http://www.w3.org/2000/svg" id="Group_389" data-name="Group 389" width="90" height="90" viewBox="0 0 90 90"><rect id="Rectangle_14" data-name="Rectangle 14" width="90" height="90" transform="translate(0)" fill="#fff" opacity="0.002"></rect><g id="Group_373" data-name="Group 373" transform="translate(11 10.8)"><g id="Group_359" data-name="Group 359" transform="translate(0 0)"><path id="Path_402" data-name="Path 402" d="M130.826,0H77.17A7.179,7.179,0,0,0,70,7.172V60.828A7.179,7.179,0,0,0,77.17,68h53.656A7.179,7.179,0,0,0,138,60.828V7.172A7.179,7.179,0,0,0,130.826,0ZM136.4,60.828a5.584,5.584,0,0,1-5.578,5.578H77.17a5.584,5.584,0,0,1-5.578-5.578V15.937H136.4Zm0-46.484H71.592V7.172A5.584,5.584,0,0,1,77.17,1.594h53.656a5.584,5.584,0,0,1,5.578,5.578Z" transform="translate(-69.798 0.2)" fill="#1b54f8"></path><path id="Path_402_-_Outline" data-name="Path 402 - Outline" d="M77.17-.2h53.657A7.379,7.379,0,0,1,138.2,7.172V60.828a7.379,7.379,0,0,1-7.372,7.372H77.17A7.379,7.379,0,0,1,69.8,60.828V7.172A7.379,7.379,0,0,1,77.17-.2Zm53.657,68a6.979,6.979,0,0,0,6.972-6.972V7.172A6.979,6.979,0,0,0,130.826.2H77.17A6.979,6.979,0,0,0,70.2,7.172V60.828A6.979,6.979,0,0,0,77.17,67.8ZM77.17,1.394h53.657a5.784,5.784,0,0,1,5.778,5.778v7.372H71.392V7.172A5.784,5.784,0,0,1,77.17,1.394ZM136.2,14.144V7.172a5.384,5.384,0,0,0-5.378-5.378H77.17a5.384,5.384,0,0,0-5.378,5.378v6.972ZM71.392,15.737H136.6V60.828a5.784,5.784,0,0,1-5.778,5.778H77.17a5.784,5.784,0,0,1-5.778-5.778Zm64.812.4H71.792V60.828a5.384,5.384,0,0,0,5.378,5.378h53.656a5.384,5.384,0,0,0,5.378-5.378Z" transform="translate(-69.798 0.2)" fill="#1b54f8"></path><path id="Path_403" data-name="Path 403" d="M207.168,217.247a2.484,2.484,0,0,1,.322.991l.756,7.261h0a4.116,4.116,0,0,0,4.921,3.575l7.14-1.524a2.51,2.51,0,0,1,1.04,0l7.139,1.524a4.116,4.116,0,0,0,4.921-3.575l.754-7.261a2.484,2.484,0,0,1,.322-.99l3.658-6.318a4.114,4.114,0,0,0-1.879-5.785l-6.669-2.961a2.505,2.505,0,0,1-.844-.613l-4.881-5.429a4.115,4.115,0,0,0-6.082,0l-4.879,5.429a2.5,2.5,0,0,1-.843.613l-6.672,2.962a4.114,4.114,0,0,0-1.879,5.785Zm25.41.826-.755,7.261a2.46,2.46,0,0,1-.454,1.177l-8.457-11.638,9.674,3.141c0,.019-.007.038-.009.059Zm4.186-7.942-3.659,6.318c-.009.017-.016.034-.025.049l-9.674-3.14,13.68-4.443a2.468,2.468,0,0,1-.322,1.216Zm-7.875-6.52c.018.009.036.019.053.028l6.672,2.963a2.468,2.468,0,0,1,.979.8l-13.68,4.444Zm-7.265-7.091a2.465,2.465,0,0,1,1.059.685l4.879,5.429c.012.014.026.026.038.039l-5.977,8.231Zm0,19.29,8.452,11.634a2.469,2.469,0,0,1-1.257.068l-7.138-1.524-.057-.009Zm-11.794,9.524-.754-7.26a.5.5,0,0,0-.009-.059l9.675-3.142-8.455,11.639a2.46,2.46,0,0,1-.456-1.177Zm10.2.647-.057.009-7.139,1.524a2.463,2.463,0,0,1-1.257-.067l8.452-11.636Zm-5.938-23.347,4.879-5.429a2.464,2.464,0,0,1,1.059-.685V210.9l-5.977-8.23.038-.039Zm-8.053,3.967,6.672-2.963c.018-.008.035-.018.053-.027l5.977,8.23-13.679-4.448a2.461,2.461,0,0,1,.976-.792Zm12.21,6.756-9.675,3.141c-.009-.016-.016-.033-.025-.049l-3.656-6.318a2.465,2.465,0,0,1-.324-1.222Z" transform="translate(-186.626 -170.943)" fill="#1b54f8"></path><path id="Path_403_-_Outline" data-name="Path 403 - Outline" d="M229.316,229.358a4.322,4.322,0,0,1-.871-.089l-7.14-1.524a2.321,2.321,0,0,0-.957,0l-7.139,1.524a4.316,4.316,0,0,1-5.162-3.748l-.025-.222h0l-.733-7.04a2.269,2.269,0,0,0-.3-.911l-3.656-6.318a4.314,4.314,0,0,1,1.97-6.068L211.983,202a2.282,2.282,0,0,0,.775-.564l4.879-5.429a4.315,4.315,0,0,1,6.378,0l4.882,5.43a2.29,2.29,0,0,0,.776.564l6.669,2.961a4.314,4.314,0,0,1,1.972,6.067l-3.659,6.319a2.269,2.269,0,0,0-.3.911l-.754,7.261a4.316,4.316,0,0,1-4.289,3.839Zm-8.49-2.063a2.714,2.714,0,0,1,.561.059l7.139,1.524a3.916,3.916,0,0,0,4.681-3.4l.754-7.259a2.666,2.666,0,0,1,.347-1.07l3.658-6.318a3.914,3.914,0,0,0-1.789-5.5l-6.668-2.961a2.688,2.688,0,0,1-.911-.662l-4.881-5.429a3.915,3.915,0,0,0-5.785,0l-4.878,5.428a2.68,2.68,0,0,1-.91.662l-6.672,2.962a3.914,3.914,0,0,0-1.787,5.5l3.655,6.317a2.666,2.666,0,0,1,.348,1.071l.76,7.3a3.916,3.916,0,0,0,4.678,3.362l7.138-1.524A2.714,2.714,0,0,1,220.826,227.295Zm-8.493.471a2.66,2.66,0,0,1-.817-.128l-.263-.085L220.23,215.2v10.95l-.161.032-.041.007-.016,0-7.137,1.524A2.671,2.671,0,0,1,212.333,227.766Zm-.421-.439a2.273,2.273,0,0,0,.882-.008l7.036-1.5v-9.389Zm17.407.437a2.679,2.679,0,0,1-.541-.055l-7.139-1.524-.014,0-.041-.007-.161-.032V215.195L230.4,227.55l-.263.085A2.663,2.663,0,0,1,229.319,227.764Zm-7.5-1.949,7.037,1.5a2.283,2.283,0,0,0,.88.007l-7.918-10.9Zm-11.537,1.037-.162-.223a2.665,2.665,0,0,1-.493-1.273l-.756-7.275c0-.014-.006-.028-.008-.043l-.019-.163,10.416-3.383Zm-1-8.7.744,7.159a2.26,2.26,0,0,0,.268.843l7.921-10.9Zm22.084,8.7-8.98-12.359,10.413,3.381-.016.16c0,.015,0,.031-.007.046v.014l-.755,7.261a2.664,2.664,0,0,1-.492,1.274Zm-7.933-11.6,7.922,10.9a2.264,2.264,0,0,0,.267-.844l.733-7.052h0l.012-.107Zm-14.957,1.486-.08-.143-.018-.035-.007-.014-3.654-6.315a2.671,2.671,0,0,1-.351-1.322v-.275l14.528,4.723Zm-3.693-7.549a2.271,2.271,0,0,0,.281.842l3.6,6.225,8.933-2.9Zm28.387,7.548-10.414-3.381,14.528-4.718v.276a2.673,2.673,0,0,1-.348,1.314l-3.659,6.316-.006.013c-.006.013-.013.026-.02.039Zm-9.119-3.381,8.931,2.9,3.606-6.226a2.268,2.268,0,0,0,.277-.834Zm-1.664-1.136,6.435-8.862.149.069.041.021.013.007,6.668,2.961a2.674,2.674,0,0,1,1.059.862l.162.223Zm6.564-8.36-5.518,7.6,12.815-4.163a2.273,2.273,0,0,0-.72-.515Zm-9.689,8.359L204.738,207.5l.163-.223a2.667,2.667,0,0,1,1.055-.856l.058-.026h0l6.614-2.937.016-.008.033-.017.15-.071Zm-13.86-4.928,12.813,4.167-5.518-7.6-6.589,2.926A2.266,2.266,0,0,0,205.4,207.294Zm16.019,4.226V196.245l.262.086a2.67,2.67,0,0,1,1.145.741l4.88,5.429.011.011.025.025.112.121Zm.4-14.705v13.474l5.518-7.6-4.808-5.349A2.267,2.267,0,0,0,221.824,196.815Zm-1.594,14.7-6.191-8.526-.163.181.011-.389-.092-.127.112-.121.028-.028.015-.015,4.873-5.421a2.67,2.67,0,0,1,1.145-.742l.262-.086Zm-5.918-8.831,5.518,7.6V196.815a2.269,2.269,0,0,0-.711.526Z" transform="translate(-186.626 -170.943)" fill="#1b54f8"></path><path id="Path_404" data-name="Path 404" d="M120.513,48.125a2.394,2.394,0,1,0,1.69.7,2.391,2.391,0,0,0-1.69-.7Zm0,3.187a.8.8,0,1,1,.8-.8A.8.8,0,0,1,120.513,51.312Z" transform="translate(-112.079 -42.081)" fill="#1b54f8"></path><path id="Path_404_-_Outline" data-name="Path 404 - Outline" d="M120.513,47.925h0a2.59,2.59,0,1,1-1.832.759A2.575,2.575,0,0,1,120.513,47.925Zm0,4.781a2.191,2.191,0,0,0,0-4.381h0a2.191,2.191,0,1,0,0,4.381Zm0-3.187a1,1,0,1,1-.705.292A.992.992,0,0,1,120.513,49.519Zm0,1.594a.6.6,0,1,0-.551-.368A.6.6,0,0,0,120.513,51.112Z" transform="translate(-112.079 -42.081)" fill="#1b54f8"></path><path id="Path_405" data-name="Path 405" d="M260.513,48.125a2.394,2.394,0,1,0,1.69.7,2.391,2.391,0,0,0-1.69-.7Zm0,3.187a.8.8,0,1,1,.8-.8A.8.8,0,0,1,260.513,51.312Z" transform="translate(-235.079 -42.081)" fill="#1b54f8"></path><path id="Path_405_-_Outline" data-name="Path 405 - Outline" d="M260.513,47.925h0a2.59,2.59,0,1,1-1.832.759A2.575,2.575,0,0,1,260.513,47.925Zm0,4.781a2.191,2.191,0,0,0,0-4.381h0a2.191,2.191,0,1,0,0,4.381Zm0-3.187a1,1,0,1,1-.705.292A.992.992,0,0,1,260.513,49.519Zm0,1.594a.6.6,0,1,0-.551-.368A.6.6,0,0,0,260.513,51.112Z" transform="translate(-235.079 -42.081)" fill="#1b54f8"></path><path id="Path_406" data-name="Path 406" d="M190.513,48.125a2.394,2.394,0,1,0,1.69.7,2.391,2.391,0,0,0-1.69-.7Zm0,3.187a.8.8,0,1,1,.8-.8A.8.8,0,0,1,190.513,51.312Z" transform="translate(-173.579 -42.081)" fill="#1b54f8"></path><path id="Path_406_-_Outline" data-name="Path 406 - Outline" d="M190.513,47.925h0a2.59,2.59,0,1,1-1.832.759A2.575,2.575,0,0,1,190.513,47.925Zm0,4.781a2.191,2.191,0,0,0,0-4.381h0a2.191,2.191,0,1,0,0,4.381Zm0-3.187a1,1,0,1,1-.705.292A.992.992,0,0,1,190.513,49.519Zm0,1.594a.6.6,0,1,0-.551-.368A.6.6,0,0,0,190.513,51.112Z" transform="translate(-173.579 -42.081)" fill="#1b54f8"></path><path id="Path_407" data-name="Path 407" d="M479.013,48.125h-8.5a2.391,2.391,0,1,0,0,4.781h8.5a2.391,2.391,0,1,0,0-4.781Zm0,3.187h-8.5a.8.8,0,1,1,0-1.594h8.5a.8.8,0,1,1,0,1.594Z" transform="translate(-419.579 -42.081)" fill="#1b54f8"></path><path id="Path_407_-_Outline" data-name="Path 407 - Outline" d="M470.513,47.925h8.5a2.591,2.591,0,1,1,0,5.181h-8.5a2.591,2.591,0,1,1,0-5.181Zm8.5,4.781a2.191,2.191,0,1,0,0-4.381h-8.5a2.191,2.191,0,1,0,0,4.381Zm-8.5-3.188h8.5a1,1,0,0,1,0,1.994h-8.5a1,1,0,1,1,0-1.994Zm8.5,1.594a.6.6,0,0,0,0-1.194h-8.5a.6.6,0,1,0,0,1.194Z" transform="translate(-419.579 -42.081)" fill="#1b54f8"></path><path id="Path_408" data-name="Path 408" d="M533.9,252.676l2.993-2.993a2.656,2.656,0,1,0-3.744-3.768l-2.993,2.993h0a2.656,2.656,0,1,0,3.745,3.768Zm-2.629-2.63,3.016-3.016h0a1.062,1.062,0,0,1,1.491,1.513l-3.017,3.018h0a1.093,1.093,0,0,1-1.5-.024,1.078,1.078,0,0,1,.012-1.491Z" transform="translate(-473.39 -215.17)" fill="#1b54f8"></path><path id="Path_408_-_Outline" data-name="Path 408 - Outline" d="M532.026,253.654h0a2.856,2.856,0,0,1-2.852-2.87,2.839,2.839,0,0,1,.849-2.019l.036-.036,2.957-2.957a2.856,2.856,0,1,1,4.026,4.052l-2.993,2.993A2.838,2.838,0,0,1,532.026,253.654Zm-1.765-4.564a2.44,2.44,0,0,0-.69,1.7,2.456,2.456,0,0,0,2.452,2.468l0,.2v-.2a2.44,2.44,0,0,0,1.737-.719l2.993-2.993a2.456,2.456,0,1,0-3.461-3.485Zm1.767,2.958a1.286,1.286,0,0,1-.9-.368l-.006-.006a1.275,1.275,0,0,1,.014-1.768l3.077-3.076h.007a1.262,1.262,0,0,1,1.71,1.853l-3.077,3.078h-.009A1.289,1.289,0,0,1,532.027,252.048Zm-.621-.652a.893.893,0,0,0,1.225.017l0,0,3.008-3.009a.866.866,0,0,0,0-1.208.862.862,0,0,0-1.21-.019l-.008.008-3.005,3A.875.875,0,0,0,531.406,251.4Z" transform="translate(-473.39 -215.17)" fill="#1b54f8"></path><path id="Path_409" data-name="Path 409" d="M532.964,366.222a2.656,2.656,0,1,0,3.763-3.75l-2.988-2.988a2.656,2.656,0,1,0-3.768,3.744Zm-1.855-5.631a1.078,1.078,0,0,1,1.491.012l3.005,3h0a1.076,1.076,0,0,1-.011,1.515,1.1,1.1,0,0,1-1.492-.011l-3.017-3.018a1.075,1.075,0,0,1,.024-1.5Z" transform="translate(-473.21 -314.916)" fill="#1b54f8"></path><path id="Path_409_-_Outline" data-name="Path 409 - Outline" d="M534.852,367.211h-.01a2.877,2.877,0,0,1-2.021-.848l-2.993-2.993a2.856,2.856,0,0,1-.019-4.072,2.836,2.836,0,0,1,2.013-.83h.034a2.874,2.874,0,0,1,2.026.878l2.985,2.985a2.856,2.856,0,0,1,0,4.047A2.838,2.838,0,0,1,534.852,367.211Zm-3.03-8.343a2.439,2.439,0,0,0-1.731.714,2.457,2.457,0,0,0,.018,3.5l3,3a2.475,2.475,0,0,0,1.739.73h.008a2.44,2.44,0,0,0,1.735-.717,2.456,2.456,0,0,0,0-3.48l-2.989-2.988a2.474,2.474,0,0,0-1.745-.758Zm3.031,6.739a1.3,1.3,0,0,1-.888-.35l-.005,0-3.021-3.022a1.283,1.283,0,0,1,.028-1.782l0,0a1.278,1.278,0,0,1,1.767.014l2.666,2.666v-.009l.343.351a1.28,1.28,0,0,1-.014,1.8l-.007.006A1.3,1.3,0,0,1,534.853,365.607Zm-.613-.64a.9.9,0,0,0,1.215.01.879.879,0,0,0,.017-1.218l-3.015-3.014a.862.862,0,0,0-1.23,1.209Z" transform="translate(-473.21 -314.916)" fill="#1b54f8"></path><path id="Path_410" data-name="Path 410" d="M105.7,252.469a2.656,2.656,0,1,0,3.768-3.745l-2.993-2.993a2.656,2.656,0,1,0-3.768,3.744Zm-1.878-5.61a1.078,1.078,0,0,1,1.515-.012l3.017,3.019a1.076,1.076,0,0,1-.024,1.5,1.1,1.1,0,0,1-1.491-.011l-3.018-3.018h0a1.079,1.079,0,0,1,0-1.48Z" transform="translate(-97.832 -214.976)" fill="#1b54f8"></path><path id="Path_410_-_Outline" data-name="Path 410 - Outline" d="M107.594,253.458h-.014a2.837,2.837,0,0,1-2.019-.849l-2.992-2.992a2.856,2.856,0,0,1-.02-4.072,2.836,2.836,0,0,1,2.012-.83h.034a2.872,2.872,0,0,1,2.027.877l2.991,2.99a2.857,2.857,0,0,1-.006,4.046A2.839,2.839,0,0,1,107.594,253.458Zm-3.032-8.343a2.438,2.438,0,0,0-1.73.714,2.456,2.456,0,0,0,.019,3.5l2.995,3a2.441,2.441,0,0,0,1.737.731h.012a2.442,2.442,0,0,0,1.731-.714,2.457,2.457,0,0,0,.005-3.479l-2.993-2.993a2.472,2.472,0,0,0-1.746-.757Zm3.033,6.738a1.3,1.3,0,0,1-.888-.35l0,0-3.359-3.359h.109a1.282,1.282,0,0,1,.229-1.417l.023.022-.02-.026a1.278,1.278,0,0,1,1.8-.015l3.023,3.025a1.268,1.268,0,0,1-.028,1.782l-.007.006A1.3,1.3,0,0,1,107.595,251.853Zm-.613-.64a.9.9,0,0,0,1.214.01.87.87,0,0,0,.018-1.218l-3.015-3.017a.863.863,0,0,0-1.228,1.214l.006.006Z" transform="translate(-97.832 -214.976)" fill="#1b54f8"></path><path id="Path_411" data-name="Path 411" d="M105.931,359.352l-3,3a2.656,2.656,0,0,0,3.751,3.762l2.993-2.993h0a2.656,2.656,0,1,0-3.744-3.766Zm2.629,2.629L105.544,365h0a1.091,1.091,0,0,1-1.5-.023,1.08,1.08,0,0,1,.012-1.491l3.017-3.016a1.063,1.063,0,0,1,1.491,1.514Z" transform="translate(-98.046 -314.794)" fill="#1b54f8"></path><path id="Path_411_-_Outline" data-name="Path 411 - Outline" d="M107.852,358.329a2.857,2.857,0,0,1,1.961,4.935l-.007.006-2.983,2.983a2.856,2.856,0,1,1-4.034-4.045l3-3a2.873,2.873,0,0,1,2.034-.882Zm1.742,4.59a2.457,2.457,0,0,0-1.742-4.19h-.025a2.47,2.47,0,0,0-1.752.761l-.022-.016.019.019-3,3a2.456,2.456,0,1,0,3.469,3.479Zm-1.791-2.945a1.254,1.254,0,0,1,.9.377,1.268,1.268,0,0,1,0,1.771l-.377.383V362.5l-2.7,2.7h-.009a1.291,1.291,0,0,1-1.717-.08l-.006-.006a1.278,1.278,0,0,1,.014-1.768l3.019-3.018A1.259,1.259,0,0,1,107.8,359.974Zm.627,1.855a.867.867,0,0,0-.012-1.2.862.862,0,0,0-1.21-.019l-3.014,3.013a.878.878,0,0,0-.01,1.21.891.891,0,0,0,1.225.016l0,0Z" transform="translate(-98.046 -314.794)" fill="#1b54f8"></path></g></g></svg> 