<?xml version="1.0" encoding="UTF-8"?> <svg xmlns="http://www.w3.org/2000/svg" xmlns:xlink="http://www.w3.org/1999/xlink" width="90" height="90" viewBox="0 0 90 90"><defs><clipPath id="clip-path"><rect id="Rectangle_14" data-name="Rectangle 14" width="90" height="90" transform="translate(730 589)" fill="#fff" stroke="#707070" stroke-width="1"></rect></clipPath></defs><g id="Mask_Group_7" data-name="Mask Group 7" transform="translate(-730 -589)" clip-path="url(#clip-path)"><g id="Group_246" data-name="Group 246" transform="translate(-113.556 63.069)"><path id="Path_326" data-name="Path 326" d="M153.816,62.537h-5.565l2.654-1.37a1.412,1.412,0,0,0,.77-1.284c0-18.494-15.412-33.564-34.335-33.564h-.171C98.162,26.233,82.75,41.3,82.75,59.8a1.412,1.412,0,0,0,.77,1.284l2.569,1.37H80.352a5.335,5.335,0,0,0-5.308,5.308v10.96a5.354,5.354,0,0,0,5.394,5.308l9.162-.085A1.464,1.464,0,0,0,91.056,82.4V62.708a26.115,26.115,0,1,1,52.23,0V82.573a1.579,1.579,0,0,0,1.456,1.541h2.226a15.288,15.288,0,0,1-14.127,13.7,4.569,4.569,0,0,0-4.281-3h-4.281a4.538,4.538,0,1,0,0,9.076h4.281a4.529,4.529,0,0,0,4.281-3.082,18.292,18.292,0,0,0,17.124-16.7h4.024a5.335,5.335,0,0,0,5.308-5.308V67.846a5.485,5.485,0,0,0-5.48-5.309Zm-25.344,38.445h-4.281a1.541,1.541,0,1,1,0-3.082h4.281a1.541,1.541,0,1,1,0,3.082Zm-40.5-19.864-7.62.085A2.3,2.3,0,0,1,78.04,78.89V67.846a2.3,2.3,0,0,1,2.312-2.312h7.62Zm29.283-47.606h-.342A29.194,29.194,0,0,0,88.144,60.225l-2.4-1.284c.428-16.44,14.3-29.711,31.338-29.711h.171c16.953,0,30.824,13.186,31.338,29.625l-2.654,1.37a29.049,29.049,0,0,0-28.684-26.714Zm38.873,45.38a2.3,2.3,0,0,1-2.312,2.312l-7.706-.085V65.534h7.62a2.3,2.3,0,0,1,2.312,2.312V78.891Z" transform="translate(771.512 505.612)" fill="#1b54f8" stroke="#fff" stroke-width="1"></path><path id="Path_327" data-name="Path 327" d="M275.736,228.564v-6.507h6.507a1.534,1.534,0,0,0,1.541-1.541V210.07a1.534,1.534,0,0,0-1.541-1.541h-6.508v-6.507a1.534,1.534,0,0,0-1.541-1.541H263.835a1.534,1.534,0,0,0-1.541,1.541v6.507h-6.507a1.534,1.534,0,0,0-1.541,1.541v10.446a1.534,1.534,0,0,0,1.541,1.541h6.507v6.507a1.534,1.534,0,0,0,1.541,1.541h10.446a1.644,1.644,0,0,0,1.456-1.54Zm-3-8.049v6.507H265.29v-6.507a1.534,1.534,0,0,0-1.541-1.541h-6.507v-7.449h6.507a1.534,1.534,0,0,0,1.541-1.541v-6.507h7.449v6.592a1.534,1.534,0,0,0,1.541,1.541h6.507v7.449H274.28a1.417,1.417,0,0,0-1.541,1.456Z" transform="translate(619.709 358.079)" fill="#1b54f8" stroke="#fff" stroke-width="1"></path></g></g></svg> 