<?xml version="1.0" encoding="UTF-8"?> <svg xmlns="http://www.w3.org/2000/svg" width="61" height="61" viewBox="0 0 61 61" fill="none"><mask id="mask0_1_154" style="mask-type:luminance" maskUnits="userSpaceOnUse" x="0" y="0" width="61" height="61"><path d="M60.7 0.100006H0.700012V60.1H60.7V0.100006Z" fill="white"></path></mask><g mask="url(#mask0_1_154)"><path d="M55.2 28.7L54.6 28.2L54.8 27.5C56.6 22.1 55.3 16.3 51.3 12.3C48.5 9.49999 44.7 7.89999 40.8 7.89999C36.8 7.89999 33.1 9.40001 30.3 12.2L28.7 13.8L27.1 12.2C24.3 9.40001 20.6 7.89999 16.6 7.89999C12.4 7.89999 8.59998 9.5 5.79998 12.5C0.299976 18.3 0.499975 27.7 6.29998 33.4L26.3 53.4C27.5 54.6 29.7 54.7 31 53.4L36.5 47.9L37.3 48.7C39.9 51.4 43.3 52.9 47 52.9C54.5 52.9 60.5 46.8 60.5 39.4C60.7 35.2 58.7 31.3 55.2 28.7ZM35.2 45.6L35.6 46.3L29.7 52.2C29.5 52.4 29.1 52.6 28.8 52.6C28.5 52.6 28.1 52.5 27.9 52.2L7.89998 32.1C2.89998 27.1 2.59998 19 7.39998 14C9.79998 11.4 13.1 10 16.7 10C20.1 10 23.3 11.3 25.8 13.7L28.1 16C28.5 16.4 29.1 16.4 29.5 16L31.8 13.7C34.2 11.3 37.4 10 40.9 10C44.3 10 47.5 11.3 50 13.7C52.4 16.2 53.7 19.4 53.7 22.8C53.7 23.9 53.5 25 53.3 26L53.1 27.2L51.9 26.8C50.2 26.2 48.7 25.9 47.3 25.9C39.8 25.9 33.8 32 33.8 39.5C33.7 41.5 34.2 43.6 35.2 45.6ZM47.1 49.9C41.3 49.9 36.7 45.2 36.7 39.5C36.7 33.7 41.4 29.1 47.1 29.1C52.9 29.1 57.5 33.8 57.5 39.5C57.6 45.2 52.9 49.9 47.1 49.9Z" fill="#1B54F8"></path><path d="M52.3 38.4H48.2V34.3H46.1V38.4H42V40.5H46.1V44.6H48.2V40.5H52.3V38.4Z" fill="#1B54F8"></path></g></svg> 