<?xml version="1.0" encoding="UTF-8"?> <svg xmlns="http://www.w3.org/2000/svg" id="Layer_1" data-name="Layer 1" viewBox="0 0 80 80"><defs><style>.cls-1,.cls-2,.cls-3{fill:none;stroke:#1b54f8;}.cls-1{stroke-miterlimit:10;}.cls-1,.cls-2{stroke-width:2px;}.cls-2,.cls-3{stroke-linecap:round;stroke-linejoin:round;}.cls-4{fill:#1b54f8;}</style></defs><path class="cls-1" d="M46.76,31.45V56.72h-.62V50.59a4.78,4.78,0,0,0-4.78-4.78h-.08a.87.87,0,0,0-.88.88V64.58l6.18,6.56H66.46l5.06-6.56V56.72h0l.3-12.1a2.87,2.87,0,0,0-5.74-.14l-.3,12.24h-.6l.18-14a2.87,2.87,0,1,0-5.74-.08l-.18,14.09h-.58V42.59A2.87,2.87,0,0,0,56,39.72h0a2.88,2.88,0,0,0-2.87,2.87V56.72H52.5V31.45a2.87,2.87,0,1,0-5.74,0Z"></path><line class="cls-2" x1="9.74" y1="11.3" x2="49.13" y2="11.3"></line><line class="cls-2" x1="9.74" y1="7.29" x2="28.65" y2="7.29"></line><line class="cls-2" x1="9.74" y1="20.03" x2="45.39" y2="20.03"></line><line class="cls-2" x1="9.74" y1="24.21" x2="18.82" y2="24.21"></line><line class="cls-2" x1="9.74" y1="32.8" x2="19.2" y2="32.8"></line><line class="cls-2" x1="9.74" y1="42.03" x2="19.2" y2="42.03"></line><line class="cls-2" x1="9.74" y1="28.75" x2="41.02" y2="28.75"></line><line class="cls-2" x1="9.74" y1="37.48" x2="41.02" y2="37.48"></line><line class="cls-3" x1="5.9" y1="9.4" x2="5.9" y2="12.37"></line><line class="cls-3" x1="4.42" y1="10.88" x2="7.39" y2="10.88"></line><circle class="cls-4" cx="5.9" cy="19.78" r="1.25"></circle><circle class="cls-4" cx="5.9" cy="28.58" r="1.25"></circle><circle class="cls-4" cx="5.9" cy="37.48" r="1.25"></circle></svg> 