<?xml version="1.0" encoding="UTF-8"?> <svg xmlns="http://www.w3.org/2000/svg" xmlns:xlink="http://www.w3.org/1999/xlink" width="60" height="60" viewBox="0 0 60 60"><defs><clipPath id="clip-path"><rect id="Rectangle_76" data-name="Rectangle 76" width="60" height="60" transform="translate(484 426)" fill="#fff" stroke="#707070" stroke-width="1"></rect></clipPath></defs><g id="Mask_Group_51" data-name="Mask Group 51" transform="translate(-484 -426)" clip-path="url(#clip-path)"><g id="Group_68" data-name="Group 68" transform="translate(486.313 427.328)"><path id="Path_178" data-name="Path 178" d="M24.824,49.611a21.388,21.388,0,0,0-4.376-6.3,21.531,21.531,0,0,1-4.643-7.163,2.779,2.779,0,0,0-3.752-1.378l-.251.13-.413-5.324a3.355,3.355,0,0,0-6.7.3l.178,10.859C4.971,45.649,8.18,49.6,10.9,52.083a11.23,11.23,0,0,1,3.63,8.468v.81a.809.809,0,0,0,.81.81h9.838a.809.809,0,0,0,.81-.81v-6.2a13.994,13.994,0,0,0-1.167-5.551Zm-8.671,10.94a12.963,12.963,0,0,0-4.173-9.684c-2-1.831-5.365-5.6-5.462-10.162L6.308,29.855a1.732,1.732,0,0,1,1.621-1.718,1.757,1.757,0,0,1,1.7,1,1.66,1.66,0,0,1,.146.592l.583,7.52a3.032,3.032,0,0,0,.267,1.28l1.839,4.052a.81.81,0,1,0,1.475-.673L12.11,37.861a1.516,1.516,0,0,1-.13-.567v-.041a1.186,1.186,0,0,1,.746-1.013,1.16,1.16,0,0,1,1.621.567,23.054,23.054,0,0,0,4.927,7.658,19.778,19.778,0,0,1,4.052,5.81,12.357,12.357,0,0,1,1.021,4.862v5.413Z" transform="translate(0 -10.492)" fill="#1c54f9" stroke="#fff" stroke-width="0.3"></path><path id="Path_179" data-name="Path 179" d="M72.426,26.555a3.362,3.362,0,0,0-3.582,3.1l-.413,5.332-.251-.13a2.788,2.788,0,0,0-3.768,1.418A21.455,21.455,0,0,1,59.777,43.4,21.318,21.318,0,0,0,55.4,49.714a13.94,13.94,0,0,0-1.151,5.526V61.4a.809.809,0,0,0,.81.81H64.89a.809.809,0,0,0,.81-.81v-.81A11.288,11.288,0,0,1,69.387,52.1c2.666-2.431,5.875-6.41,5.98-11.345l.178-10.834a3.363,3.363,0,0,0-3.12-3.363Zm1.321,14.181c-.1,4.57-3.46,8.338-5.5,10.211A12.9,12.9,0,0,0,64.08,60.59H55.863V55.2a12.385,12.385,0,0,1,1.013-4.862,19.906,19.906,0,0,1,4.052-5.81,23.022,23.022,0,0,0,4.967-7.617,1.165,1.165,0,0,1,1.621-.608,1.191,1.191,0,0,1,.737.948.609.609,0,0,0,0,.122,1.353,1.353,0,0,1-.122.527l-1.84,4.052a.81.81,0,0,0,1.475.673l1.848-4.052a3.1,3.1,0,0,0,.259-1.3l.592-7.536a1.618,1.618,0,0,1,.146-.575,1.761,1.761,0,0,1,1.694-.989,1.736,1.736,0,0,1,1.621,1.758Z" transform="translate(-23.859 -10.53)" fill="#1c54f9" stroke="#fff" stroke-width="0.3"></path><path id="Path_180" data-name="Path 180" d="M46.7,16.764H45.139V15.2a3.825,3.825,0,1,0-7.65,0v1.54H35.934a3.8,3.8,0,1,0,0,7.593H37.49v1.54a3.825,3.825,0,1,0,7.65,0V24.357H46.7a3.8,3.8,0,1,0,0-7.593Zm0,5.972H44.329a.81.81,0,0,0-.81.81V25.9a2.2,2.2,0,1,1-4.408,0v-2.35a.809.809,0,0,0-.81-.81H35.934a2.18,2.18,0,1,1,0-4.352H38.3a.809.809,0,0,0,.81-.81V15.2a2.2,2.2,0,0,1,4.408,0v2.35a.809.809,0,0,0,.81.81H46.7a2.18,2.18,0,1,1,0,4.352Z" transform="translate(-13.127 -3.227)" fill="#1c54f9" stroke="#fff" stroke-width="0.3"></path><path id="Path_181" data-name="Path 181" d="M50.908,17.338a12.675,12.675,0,1,0-3.716,8.94,12.657,12.657,0,0,0,3.716-8.94ZM38.251,28.367a11.043,11.043,0,1,1,7.8-3.231,11.039,11.039,0,0,1-7.8,3.231Z" transform="translate(-10.064)" fill="#1c54f9" stroke="#fff" stroke-width="0.3"></path></g></g></svg> 