<?xml version="1.0" encoding="UTF-8"?> <svg xmlns="http://www.w3.org/2000/svg" id="Layer_1" data-name="Layer 1" viewBox="0 0 94 94"><defs><style>.cls-1{fill:#1b54f8;}</style></defs><path class="cls-1" d="M81.4,17.8H12.6a.94.94,0,0,0-1,1h0V63.6a.94.94,0,0,0,1,1H34.5L31,75a1,1,0,0,0,.6,1.3c.1,0,.2.1.3.1H62.1a.94.94,0,0,0,1-1,.37.37,0,0,0-.1-.3L59.5,64.7H81.4a.94.94,0,0,0,1-1h0V18.8a1,1,0,0,0-1-1ZM60.7,74.2H33.3l3.3-9.8H57.4ZM80.4,62.5H13.6V19.8H80.4Z"></path><path class="cls-1" d="M24.6,35.2h7.3l2.4,6.3a.89.89,0,0,0,1,.6,1,1,0,0,0,.9-.7l3.7-11.8,5.3,11.9a1,1,0,0,0,.9.6h.1a1.18,1.18,0,0,0,.9-.9l.9-6.3h4.5a.87.87,0,0,0,.9-.6l1.9-4.8,2.6,11.8a1.06,1.06,0,0,0,.9.8,1.09,1.09,0,0,0,1-.7l2.1-6.3h7.4a1,1,0,0,0,0-2H61.2a1,1,0,0,0-.9.7l-1.2,3.6L56.6,25.9a1.22,1.22,0,0,0-.9-.8,1,1,0,0,0-1,.6l-2.9,7.2H47.1a1.06,1.06,0,0,0-1,.9l-.5,3.7-5-11.2a1,1,0,0,0-1.3-.5.63.63,0,0,0-.5.6L35.2,38l-1.6-4.2a.87.87,0,0,0-.9-.6h-8a.94.94,0,0,0-1,1A.92.92,0,0,0,24.6,35.2Z"></path><path class="cls-1" d="M19.6,56.6H74.4a1,1,0,0,0,0-2H19.6a.94.94,0,0,0-1,1A1,1,0,0,0,19.6,56.6Z"></path></svg> 