<?xml version="1.0" encoding="UTF-8"?> <svg xmlns="http://www.w3.org/2000/svg" id="Layer_1" data-name="Layer 1" viewBox="0 0 56 56"><defs><style>.cls-1,.cls-3,.cls-4{fill:none;stroke:#1b54f8;}.cls-1{stroke-miterlimit:10;}.cls-1,.cls-3{stroke-width:1.5px;}.cls-2{fill:#1b54f8;}.cls-3,.cls-4{stroke-linecap:round;stroke-linejoin:round;}</style></defs><rect class="cls-1" x="1" y="20" width="54" height="29" rx="2.73"></rect><path class="cls-1" d="M8,49H18a0,0,0,0,1,0,0v3a1,1,0,0,1-1,1H9a1,1,0,0,1-1-1V49a0,0,0,0,1,0,0Z"></path><path class="cls-1" d="M39,49H49a0,0,0,0,1,0,0v3a1,1,0,0,1-1,1H40a1,1,0,0,1-1-1V49a0,0,0,0,1,0,0Z"></path><rect class="cls-1" x="3.62" y="23" width="31.38" height="12" rx="1.11"></rect><rect class="cls-2" x="38" y="24" width="2.75" height="2.75"></rect><rect class="cls-2" x="42.13" y="24" width="2.75" height="2.75"></rect><rect class="cls-2" x="46.25" y="24" width="2.75" height="2.75"></rect><rect class="cls-2" x="38" y="28.13" width="2.75" height="2.75"></rect><rect class="cls-2" x="42.13" y="28.13" width="2.75" height="2.75"></rect><rect class="cls-2" x="46.25" y="28.13" width="2.75" height="2.75"></rect><rect class="cls-2" x="38" y="32.25" width="2.75" height="2.75"></rect><rect class="cls-2" x="42.13" y="32.25" width="2.75" height="2.75"></rect><rect class="cls-2" x="46.25" y="32.25" width="2.75" height="2.75"></rect><line class="cls-1" x1="1" y1="39.37" x2="55" y2="39.37"></line><circle class="cls-2" cx="4.5" cy="44.5" r="1"></circle><circle class="cls-2" cx="9.5" cy="44.5" r="1"></circle><circle class="cls-2" cx="14.5" cy="44.5" r="1"></circle><circle class="cls-2" cx="19.5" cy="44.5" r="1"></circle><circle class="cls-2" cx="24.5" cy="44.5" r="1"></circle><circle class="cls-2" cx="29.5" cy="44.5" r="1"></circle><circle class="cls-2" cx="34.5" cy="44.5" r="1"></circle><path class="cls-3" d="M8,29h3.85a.24.24,0,0,0,.21-.14l1.33-3a.23.23,0,0,1,.44.05l1.05,5.48a.23.23,0,0,0,.43.07l3.22-6a.23.23,0,0,1,.42,0l2.18,5.91a.24.24,0,0,0,.44,0l2.07-5.7a.23.23,0,0,1,.44,0l1.09,2.66a.24.24,0,0,0,.22.15h5.37"></path><path class="cls-2" d="M44.77,11.58a2.79,2.79,0,1,0,2.79,2.79A2.79,2.79,0,0,0,44.77,11.58Zm0,4.42a1.64,1.64,0,1,1,1.63-1.63A1.64,1.64,0,0,1,44.77,16Z"></path><path class="cls-4" d="M49.58,10.61a6.82,6.82,0,0,0-9.63,0"></path><path class="cls-4" d="M51.92,8.26a10.15,10.15,0,0,0-14.31,0"></path><path class="cls-4" d="M54.25,5.93a13.41,13.41,0,0,0-19,0"></path></svg> 