<?xml version="1.0" encoding="UTF-8"?> <svg xmlns="http://www.w3.org/2000/svg" width="91" height="91" viewBox="0 0 91 91" fill="none"><mask id="mask0_1_91" style="mask-type:luminance" maskUnits="userSpaceOnUse" x="0" y="0" width="91" height="91"><path d="M90.7 0.200012H0.699997V90.2H90.7V0.200012Z" fill="white"></path></mask><g mask="url(#mask0_1_91)"><path d="M82.6 43.2L81.6 42.5L82 41.4C84.8 33.1 82.7 24.2 76.6 18C72.3 13.7 66.5 11.3 60.4 11.3C54.3 11.3 48.6 13.7 44.2 17.9L41.8 20.3L39.4 17.9C35.1 13.6 29.4 11.3 23.3 11.3C16.9 11.3 11 13.8 6.7 18.4C-1.8 27.4 -1.50001 41.8 7.39999 50.6L38.2 81.4C40.1 83.3 43.4 83.3 45.5 81.4L53.9 73L55.1 74.2C59 78.3 64.4 80.6 70.1 80.6C81.6 80.6 90.9 71.3 90.9 59.8C90.9 53.2 87.9 47.2 82.6 43.2ZM51.8 69.2L52.4 70.3L43.3 79.3C42.9 79.7 42.4 79.8 41.9 79.8C41.4 79.8 40.9 79.6 40.5 79.3L9.7 48.4C1.9 40.8 1.6 28.3 9 20.6C12.7 16.7 17.8 14.5 23.3 14.5C28.5 14.5 33.5 16.5 37.3 20.2L40.9 23.8C41.5 24.4 42.5 24.4 43.1 23.8L46.7 20.3C50.4 16.6 55.3 14.6 60.7 14.6C65.9 14.6 70.9 16.6 74.7 20.3C78.4 24.1 80.4 29.1 80.4 34.3C80.4 36 80.1 37.6 79.8 39.2L79.4 41.1L77.6 40.5C75 39.6 72.7 39.1 70.5 39.1C59 39.1 49.7 48.4 49.7 59.9C49.4 62.9 50.2 66.1 51.8 69.2ZM70.1 75.7C61.2 75.7 54 68.5 54 59.6C54 50.7 61.2 43.5 70.1 43.5C79 43.5 86.2 50.7 86.2 59.6C86.1 68.5 78.9 75.7 70.1 75.7Z" fill="#1B54F8"></path><path d="M78.1 58.2H71.7V51.7H68.6V58.2H62.1V61.3H68.6V67.7H71.7V61.3H78.1V58.2Z" fill="#1B54F8"></path></g></svg> 