<?xml version="1.0" encoding="UTF-8"?> <svg xmlns="http://www.w3.org/2000/svg" xmlns:xlink="http://www.w3.org/1999/xlink" width="90" height="90" viewBox="0 0 90 90"><defs><clipPath id="clip-path"><rect id="Rectangle_28" data-name="Rectangle 28" width="90" height="90" transform="translate(574 702)" fill="#fff" stroke="#707070" stroke-width="1"></rect></clipPath></defs><g id="Mask_Group_2" data-name="Mask Group 2" transform="translate(-574 -702)" clip-path="url(#clip-path)"><g id="Healthcare" transform="translate(583 709.5)"><g id="Group"><path id="Shape" d="M84.089,48.834a5.939,5.939,0,0,0-8.247-1.246l-13.9,10.135L50,56.832l-.459-.262h0a.721.721,0,0,1-.1-.708A.708.708,0,0,1,50,55.416l7.513-1.6a5.808,5.808,0,0,0,4.93-6.149h0a5.821,5.821,0,0,0-5.887-5.336H37.321a7,7,0,0,0-4.038,1.154L12.869,57.553a1.77,1.77,0,0,0-.538,2.4l9.584,16.035a1.757,1.757,0,0,0,1.311.8h.354a1.783,1.783,0,0,0,1.167-.354l9.519-7.591,25.619,3.12A6.818,6.818,0,0,0,64.8,70.651L82.988,57.015A5.769,5.769,0,0,0,84.089,49ZM80.864,54.17,62.652,67.78a3.186,3.186,0,0,1-2.321.616L33.821,65.2a1.809,1.809,0,0,0-1.311.354l-8.535,6.765-7.7-12.81L35.263,46.4a3.173,3.173,0,0,1,1.967-.538H56.477A2.242,2.242,0,0,1,58.719,47.9h0a2.229,2.229,0,0,1-1.967,2.4h-.092l-7.618,1.691a4.314,4.314,0,0,0-3.055,2.622,4.261,4.261,0,0,0,.551,4.012h0a4.3,4.3,0,0,0,3.134,1.783L62.3,61.3a1.8,1.8,0,0,0,1.167-.367l14.5-10.4a2.334,2.334,0,0,1,3.225.524h.092a2.242,2.242,0,0,1-.446,3.12Z" transform="translate(-12.073 -3.101)" fill="#1b54f8" stroke="#fff" stroke-width="0.4"></path><path id="Shape-2" data-name="Shape" d="M52,12.41a6.333,6.333,0,0,0-6.359,6.307v4.458H41.169a6.359,6.359,0,0,0,0,12.718H45.64v4.445a6.411,6.411,0,0,0,12.81,0V35.892h4.471a6.359,6.359,0,0,0,0-12.718H58.45V18.717a6.307,6.307,0,0,0-1.9-4.5A6.372,6.372,0,0,0,52,12.41ZM62.921,26.833a2.806,2.806,0,0,1,0,5.612H56.653a1.77,1.77,0,0,0-1.783,1.718V40.39a2.832,2.832,0,0,1-5.651,0V34.162a1.77,1.77,0,0,0-1.783-1.77H41.169a2.806,2.806,0,0,1,0-5.612h6.267a1.783,1.783,0,0,0,1.783-1.8V18.717a2.832,2.832,0,0,1,5.651,0v6.267a1.783,1.783,0,0,0,1.783,1.77Z" transform="translate(-4.998 -12.409)" fill="#1b54f8" stroke="#fff" stroke-width="0.4"></path></g></g></g></svg> 