<?xml version="1.0" encoding="UTF-8"?> <svg xmlns="http://www.w3.org/2000/svg" xmlns:xlink="http://www.w3.org/1999/xlink" width="90" height="90" viewBox="0 0 90 90"><defs><clipPath id="clip-path"><rect id="Rectangle_418" data-name="Rectangle 418" width="90" height="90" transform="translate(1070 165)" fill="#fff" stroke="#707070" stroke-width="1"></rect></clipPath></defs><g id="Mask_Group_9" data-name="Mask Group 9" transform="translate(-1070 -165)" clip-path="url(#clip-path)"><g id="Layer_3" data-name="Layer 3" transform="translate(1082 177)"><path id="Path_7203" data-name="Path 7203" d="M62.647,34H60.593a3.09,3.09,0,0,0-3.081,3.081v1.633l-5.135,5.135-1.931-1.931a3.081,3.081,0,0,0-4.354,0L32.864,55.146,19.636,41.918a3.081,3.081,0,0,0-4.354,0l-1.931,1.931L8.216,38.714V37.081A3.09,3.09,0,0,0,5.135,34H3.081A3.09,3.09,0,0,0,0,37.081v4.283a3.036,3.036,0,0,0,.9,2.177L20.54,63.177V64.81h2.054V62.756a1.061,1.061,0,0,0-.3-.729L2.352,42.093a1.017,1.017,0,0,1-.3-.729V37.081a1.027,1.027,0,0,1,1.027-1.027H5.135a1.027,1.027,0,0,1,1.027,1.027v2.054a1.061,1.061,0,0,0,.3.729L18.784,52.188l1.458-1.458L14.8,45.3l1.931-1.931a1.035,1.035,0,0,1,1.458,0L31.837,57.015V64.81h2.054V57.015L47.54,43.366a1.035,1.035,0,0,1,1.458,0L50.929,45.3,45.486,50.73l1.458,1.458L59.268,39.864a1.061,1.061,0,0,0,.3-.729V37.081a1.027,1.027,0,0,1,1.027-1.027h2.054a1.027,1.027,0,0,1,1.027,1.027v4.283a1.017,1.017,0,0,1-.3.729L43.432,62.027a1.061,1.061,0,0,0-.3.729V64.81h2.054V63.177L64.824,43.541a3.036,3.036,0,0,0,.9-2.177V37.081A3.09,3.09,0,0,0,62.647,34Z" transform="translate(0 0.896)" fill="#1b54f8"></path><path id="Path_7204" data-name="Path 7204" d="M31.9,42.831a1.015,1.015,0,0,0,.5.269,1.045,1.045,0,0,0,.259.033h0a1.027,1.027,0,0,0,.725-.3L53.617,22.558a1.052,1.052,0,0,0,.143-.178A13.331,13.331,0,0,0,34.927,3.539a1.008,1.008,0,0,0-.177.142l-2.1,2.105L30.542,3.681a.97.97,0,0,0-.17-.136,13.331,13.331,0,0,0-18.684,19ZM13.376,5.382A11.218,11.218,0,0,1,29.1,5.165a.952.952,0,0,0,.124.1l2.7,2.7a1.055,1.055,0,0,0,1.45,0l2.695-2.7a.987.987,0,0,0,.127-.1A11.279,11.279,0,0,1,52.132,21.118a.978.978,0,0,0-.1.125L32.647,40.668,13.16,21.116a11.236,11.236,0,0,1,.216-15.735Z" transform="translate(0.217 -0.021)" fill="#1b54f8"></path><path id="Path_7205" data-name="Path 7205" d="M26.027,24.27h3.081v3.081a1.027,1.027,0,0,0,1.027,1.027h4.108a1.027,1.027,0,0,0,1.027-1.027V24.27h3.081a1.027,1.027,0,0,0,1.027-1.027V19.135a1.027,1.027,0,0,0-1.027-1.027H35.27V15.027A1.027,1.027,0,0,0,34.243,14H30.135a1.027,1.027,0,0,0-1.027,1.027v3.081H26.027A1.027,1.027,0,0,0,25,19.135v4.108A1.027,1.027,0,0,0,26.027,24.27Zm1.027-4.108h3.081a1.027,1.027,0,0,0,1.027-1.027V16.054h2.054v3.081a1.027,1.027,0,0,0,1.027,1.027h3.081v2.054H34.243a1.027,1.027,0,0,0-1.027,1.027v3.081H31.162V23.243a1.027,1.027,0,0,0-1.027-1.027H27.054Z" transform="translate(0.675 0.356)" fill="#1b54f8"></path></g></g></svg> 