<?xml version="1.0" encoding="UTF-8"?> <svg xmlns="http://www.w3.org/2000/svg" id="Layer_1" data-name="Layer 1" viewBox="0 0 94 94"><defs><style>.cls-1{fill:none;stroke:#1b54f8;stroke-miterlimit:10;stroke-width:4px;}.cls-2{fill:#1b54f8;}</style></defs><circle class="cls-1" cx="47" cy="47" r="44.6"></circle><path class="cls-2" d="M69.7,49.6,47,30.9,24.3,49.6l-3.3-4,7.2-5.9V26.1h7.3v7.6L47,24.1,73,45.6Zm-4,20.3v-20L47,34.5,28.3,49.9v20ZM33.6,51.2a19,19,0,0,1,26.7,0L58,53.5a15.63,15.63,0,0,0-22.1,0Zm4.5,3.6a12.8,12.8,0,0,1,17.8,0l-2.3,2.3a9.29,9.29,0,0,0-13.1,0ZM42,59.2a7.12,7.12,0,0,1,10.1,0l-2.3,2.3a3.8,3.8,0,0,0-5.4,0Zm3.1,5.1A1.9,1.9,0,1,1,47,66.2,1.78,1.78,0,0,1,45.1,64.3Z"></path></svg> 