<?xml version="1.0" encoding="UTF-8"?> <svg xmlns="http://www.w3.org/2000/svg" id="Layer_1" data-name="Layer 1" viewBox="0 0 80 80"><defs><style>.cls-1{fill:#1b54f8;}</style></defs><g id="Healthcare"><g id="Group"><path id="Shape" class="cls-1" d="M67,47.29a4.53,4.53,0,0,0-6.29-.95L50.11,54.07,41,53.39l-.35-.2h0a.55.55,0,0,1-.08-.54.54.54,0,0,1,.43-.34l5.73-1.22a4.43,4.43,0,0,0,3.76-4.69h0A4.44,4.44,0,0,0,46,42.33H31.33a5.34,5.34,0,0,0-3.08.88L12.68,53.94a1.35,1.35,0,0,0-.41,1.83L19.58,68a1.34,1.34,0,0,0,1,.61h.27a1.36,1.36,0,0,0,.89-.27L29,62.55l19.54,2.38a5.2,5.2,0,0,0,3.75-1L66.16,53.53A4.4,4.4,0,0,0,67,47.42Zm-2.46,4.07L50.65,61.74a2.43,2.43,0,0,1-1.77.47L28.66,59.77a1.38,1.38,0,0,0-1,.27L21.15,65.2l-5.87-9.77,14.48-10a2.42,2.42,0,0,1,1.5-.41H45.94a1.71,1.71,0,0,1,1.71,1.56h0a1.7,1.7,0,0,1-1.5,1.83h-.07l-5.81,1.29a3.29,3.29,0,0,0-2.33,2,3.25,3.25,0,0,0,.42,3.06h0a3.28,3.28,0,0,0,2.39,1.36l9.63.68a1.37,1.37,0,0,0,.89-.28l11.06-7.93a1.78,1.78,0,0,1,2.46.4h.07a1.71,1.71,0,0,1-.34,2.38Z"></path><path id="Shape-2" data-name="Shape" class="cls-1" d="M47.92,12.41a4.83,4.83,0,0,0-4.85,4.81v3.4H39.66a4.85,4.85,0,1,0,0,9.7h3.41v3.39a4.89,4.89,0,0,0,9.77,0V30.32h3.41a4.85,4.85,0,1,0,0-9.7H52.84v-3.4a4.81,4.81,0,0,0-1.45-3.43A4.86,4.86,0,0,0,47.92,12.41Zm8.33,11a2.14,2.14,0,1,1,0,4.28H51.47A1.35,1.35,0,0,0,50.11,29v4.75a2.16,2.16,0,0,1-4.31,0V29a1.35,1.35,0,0,0-1.36-1.35H39.66a2.14,2.14,0,1,1,0-4.28h4.78A1.36,1.36,0,0,0,45.8,22V17.22a2.16,2.16,0,0,1,4.31,0V22a1.36,1.36,0,0,0,1.36,1.35Z"></path></g></g></svg> 