<?xml version="1.0" encoding="UTF-8"?> <svg xmlns="http://www.w3.org/2000/svg" xmlns:xlink="http://www.w3.org/1999/xlink" width="60" height="60" viewBox="0 0 60 60"><defs><clipPath id="clip-path"><rect id="Rectangle_136" data-name="Rectangle 136" width="60" height="60" transform="translate(131 1070.038)" fill="#fff" stroke="#707070" stroke-width="1"></rect></clipPath></defs><g id="Mask_Group_45" data-name="Mask Group 45" transform="translate(-131 -1070.038)" clip-path="url(#clip-path)"><g id="Group_69" data-name="Group 69" transform="translate(134.335 1076.004)"><g id="Group_68" data-name="Group 68" transform="translate(0 24.408)"><path id="Path_154" data-name="Path 154" d="M131.164,122.9v-3.453H119.572v23.431h11.592v-3.206l12.908,2.96c3.618.576,8.3-1.809,11.346-3.618,4.521-2.549,10.112-6.824,16.689-12.579,4.111-3.124-1.069-10.359-5.673-6.577a79.668,79.668,0,0,1-10.359,7.152c-.822.493-1.644.9-2.467,1.316a4.656,4.656,0,0,0-4.439-5.344h-18Zm0,14.305V125.365h17.923a2.221,2.221,0,0,1,0,4.439h-7.235a1.233,1.233,0,0,0,0,2.466h7.317a3.72,3.72,0,0,0,1.316-.247,28.482,28.482,0,0,0,6.824-2.96,91.852,91.852,0,0,0,10.688-7.4c2.8-1.562,3.864,1.562,2.467,2.878a99.572,99.572,0,0,1-16.361,12.5c-4.193,2.467-7.4,3.618-9.537,3.288ZM128.7,121.912v18.5h-6.659v-18.5Z" transform="translate(-119.572 -118.788)" fill="#1b54f8" stroke="#fff" stroke-width="1.4" fill-rule="evenodd"></path></g><path id="Path_155" data-name="Path 155" d="M105.557,62.876h4.9v4.9a2.193,2.193,0,0,0,2.191,2.191h3.575a2.194,2.194,0,0,0,2.194-2.191v-4.9h4.9a2.194,2.194,0,0,0,2.191-2.191V57.11a2.194,2.194,0,0,0-2.191-2.193h-4.9v-4.9a2.195,2.195,0,0,0-2.191-2.192h-3.575a2.194,2.194,0,0,0-2.194,2.192v4.9h-4.9a2.194,2.194,0,0,0-2.191,2.191v3.575a2.194,2.194,0,0,0,2.191,2.193Zm-.913-5.766a.914.914,0,0,1,.913-.913h5.538a.64.64,0,0,0,.64-.64V50.018a.915.915,0,0,1,.913-.914h3.575a.915.915,0,0,1,.913.914v5.538a.64.64,0,0,0,.64.64h5.536a.914.914,0,0,1,.913.913v3.575a.914.914,0,0,1-.913.913h-5.538a.64.64,0,0,0-.64.64v5.536a.915.915,0,0,1-.914.913h-3.571a.914.914,0,0,1-.914-.913V62.235a.64.64,0,0,0-.64-.64h-5.538a.914.914,0,0,1-.913-.913Z" transform="translate(-84.063 -47.827)" fill="#1b54f8"></path></g></g></svg> 