<?xml version="1.0" encoding="UTF-8"?> <svg xmlns="http://www.w3.org/2000/svg" width="80" height="80" viewBox="0 0 80 80"><g id="Group_475" data-name="Group 475" transform="translate(-2594 -878)"><g id="Rectangle_119" data-name="Rectangle 119" transform="translate(2594 878)" fill="#fff" stroke="#707070" stroke-width="1" stroke-dasharray="6 6"><rect width="80" height="80" rx="6" stroke="none"></rect><rect x="0.5" y="0.5" width="79" height="79" rx="5.5" fill="none"></rect></g><g id="Group_469" data-name="Group 469" transform="translate(-3.1 162.253)"><path id="Path_516" data-name="Path 516" d="M124.545,0H84.354a2.87,2.87,0,0,0-2.871,2.871V28.708H72.87A2.87,2.87,0,0,0,70,31.579V54.546a2.87,2.87,0,0,0,2.871,2.871H95.837a2.87,2.87,0,0,0,2.871-2.871V45.933h25.837a2.87,2.87,0,0,0,2.871-2.871V2.871A2.87,2.87,0,0,0,124.545,0ZM96.794,54.546a.956.956,0,0,1-.957.957H72.87a.957.957,0,0,1-.957-.957V31.579a.957.957,0,0,1,.957-.957h8.612v12.44a2.87,2.87,0,0,0,2.871,2.871h12.44ZM125.5,43.062a.956.956,0,0,1-.957.957H84.354a.957.957,0,0,1-.957-.957V2.871a.957.957,0,0,1,.957-.957h40.192a.956.956,0,0,1,.957.957Z" transform="translate(2538.101 726.747)" fill="#1b54f8"></path><path id="Path_517" data-name="Path 517" d="M255.212,37.385l-4.689,1.172h0a1.962,1.962,0,0,0-.911,3.29l1.077,1.076-25.74,25.73-1.087-1.087a1.961,1.961,0,0,0-3.289.913L219.4,73.167h0a1.964,1.964,0,0,0,1.9,2.437,2.045,2.045,0,0,0,.478-.06l4.689-1.172a1.961,1.961,0,0,0,.911-3.29L226.3,70.005l25.742-25.73,1.089,1.089a1.935,1.935,0,0,0,1.376.574,1.966,1.966,0,0,0,.533-.074,1.939,1.939,0,0,0,1.379-1.415l1.172-4.689a1.959,1.959,0,0,0-2.378-2.377ZM221.27,73.674a.037.037,0,0,1-.015-.044l1.253-4.711,3.494,3.6ZM255.734,39.3l-1.251,4.71-3.5-3.6,4.734-1.159h0a.039.039,0,0,1,.012.044Z" transform="translate(2404.07 693.249)" fill="#1b54f8"></path></g></g></svg> 