<?xml version="1.0" encoding="UTF-8"?> <!-- Generator: Adobe Illustrator 25.2.3, SVG Export Plug-In . SVG Version: 6.00 Build 0) --> <svg xmlns="http://www.w3.org/2000/svg" xmlns:xlink="http://www.w3.org/1999/xlink" version="1.1" id="Layer_1" x="0px" y="0px" viewBox="0 0 80 80" style="enable-background:new 0 0 80 80;" xml:space="preserve"> <style type="text/css"> .st0{fill:#1B54F8;stroke:#1B54F8;stroke-width:0.38;} </style> <desc>Created with Sketch.</desc> <g id="Team-Full-Stack-Developers"> <g id="Group" transform="translate(10.000000, 11.000000)"> <path id="Path" class="st0" d="M1.6,40.2V29.6c0-1.5,1-2.8,2.4-3l2.8-0.8l1.6-0.5c0.2,0,0.4-0.2,0.4-0.4V23l-0.1-0.1 c-0.8-0.6-1.4-1.6-1.5-2.7c0-0.4,0-0.6-0.1-0.8H6.9c-0.3,0-0.6-0.2-0.6-0.5L6,17.2c-0.1-0.5,0.3-0.9,0.8-0.9l0.1-3.1 c0-1.9,1.6-3.4,3.5-3.4h2.2c1.9,0,3.5,1.5,3.5,3.4l0.1,3.1c0.5,0,0.9,0.4,0.8,0.9l-0.2,1.6c0,0.3-0.3,0.5-0.6,0.5h-0.3 c0,0.2,0,0.5-0.1,0.8c-0.1,1-0.6,2-1.5,2.7l-0.1,0.1v1.9c0,0.2,0.2,0.4,0.4,0.4l1.3,0.4c0.7-0.4,1.5-0.8,2.3-1h0L15.6,24v-0.4 c0.8-0.8,1.4-1.9,1.5-3c0.6-0.3,1-0.9,1.1-1.6l0.2-1.6c0.1-0.7-0.1-1.4-0.6-1.9c-0.1-0.1-0.2-0.2-0.2-0.2l0-2.1c0-2.8-2.3-5-5.1-5 h-2.2c-2.8,0-5.1,2.2-5.1,5l0,2.1c-0.1,0.1-0.2,0.2-0.3,0.3c-0.4,0.5-0.6,1.2-0.6,1.9l0.2,1.6c0.1,0.7,0.5,1.2,1.1,1.6 c0.2,1.2,0.7,2.2,1.5,3V24l-0.8,0.2L3.6,25C1.5,25.5,0,27.4,0,29.6v10.5v0.9l0.8,0.5l11.4,6.8v-1.8L1.6,40.2z"></path> <path id="Path_1_" class="st0" d="M56.3,25.1l-3.6-1v-0.4c0.8-0.8,1.4-1.9,1.5-3c0.6-0.3,1-0.9,1.1-1.6l0.2-1.6 c0.1-0.7-0.1-1.4-0.6-1.9c-0.1-0.1-0.2-0.2-0.2-0.3l0-2.1c0-2.8-2.3-5-5.1-5h-2.2c-2.8,0-5.1,2.2-5.1,5l0,2.1 c-0.1,0.1-0.2,0.2-0.2,0.2c-0.4,0.5-0.6,1.2-0.6,1.9l0.2,1.6c0.1,0.7,0.5,1.3,1.1,1.6c0.2,1.1,0.7,2.2,1.5,3V24l-0.8,0.2l-1.5,0.4 l0,0c0.8,0.2,1.6,0.5,2.4,1l1.2-0.4c0.2,0,0.4-0.2,0.4-0.4V23l-0.1-0.1c-0.8-0.6-1.4-1.6-1.5-2.7c0-0.4-0.1-0.7-0.1-0.8h-0.3 c-0.3,0-0.6-0.2-0.6-0.5L43,17.3c-0.1-0.5,0.3-0.9,0.8-0.9l0.1-3.1c0-1.9,1.6-3.4,3.5-3.4h2.2c1.9,0,3.5,1.5,3.5,3.4l0.1,3.1 c0.5,0,0.9,0.4,0.8,0.9l-0.2,1.6c0,0.3-0.3,0.5-0.6,0.5h-0.3c0,0.2,0,0.5-0.1,0.8c-0.1,1-0.6,2-1.5,2.7L51,23v1.9 c0,0.2,0.2,0.4,0.4,0.4l4.5,1.3c1.4,0.3,2.4,1.6,2.4,3v10.5l-10.6,6.2v1.8l11.4-6.7l0.8-0.5v-0.9V29.7 C60,27.5,58.5,25.6,56.3,25.1z"></path> <path id="Path_2_" class="st0" d="M25,9.6C26.1,9.6,27,9,27.6,8l0-0.1c1,1,2.4,1.6,3.9,1.6h4.4V8.1V8h-4.4c-1.4,0-2.6-0.8-3.3-1.9 l-0.7-1.3l-1.3,2.5C25.9,7.7,25.5,8,25,8h-0.8l0,1.6l0,0H25z"></path> <path id="Shape" class="st0" d="M41.6,25.9l-6.1-1.8v-0.5v-1c1.4-1.2,2.2-2.9,2.4-4.8c0.8-0.3,1.4-1.1,1.6-2l0.4-2.4 c0.1-0.8-0.1-1.6-0.6-2.2c-0.2-0.2-0.4-0.4-0.6-0.5l-0.1-3.6c0-3.7-3.1-6.8-6.9-6.8h-3.4c-3.8,0-6.9,3-6.9,6.8l-0.1,3.6 c-0.2,0.2-0.4,0.3-0.6,0.5c-0.5,0.6-0.8,1.4-0.6,2.2l0.4,2.4c0.2,0.9,0.8,1.6,1.6,2c0.2,1.8,1,3.5,2.4,4.8v1.5l-1.9,0.5l-4.2,1.2 c-2.9,0.6-4.9,3.2-4.9,6.2v15.9v0.9l0.8,0.5l15.2,9l0.8,0.5l0.8-0.5l14.8-9l0.8-0.5v-0.9V32C46.6,29.1,44.5,26.5,41.6,25.9z M45,48l-14.8,9L15,48V32c0-2.2,1.6-4.2,3.7-4.6l4.3-1.2l2.5-0.7c0.3-0.1,0.6-0.4,0.6-0.7v-1l0.1,0.1c0.8,0.6,1.8,0.9,2.8,0.9h0.8 v-1.6H29c-0.7,0-1.3-0.2-1.9-0.6l-1-0.7l0,0l-0.2-0.1c-1.3-1-2.1-2.5-2.2-4.1c0-0.5-0.1-1-0.1-1.2H23c-0.5,0-0.9-0.4-1-0.8 l-0.4-2.4c-0.1-0.7,0.4-1.4,1.2-1.4L23,7.1c0-2.9,2.4-5.2,5.3-5.2h3.4c2.9,0,5.3,2.3,5.3,5.2l0.1,4.7c0.8,0,1.3,0.6,1.2,1.4 l-0.4,2.4c-0.1,0.5-0.5,0.8-1,0.8h-0.5c0,0.2-0.1,0.7-0.1,1.2c-0.1,1.6-1,3.1-2.2,4.1l-0.2,0.1v1.8v1.2v3h1.6v-2l5.7,1.6 c2.2,0.4,3.7,2.4,3.7,4.6L45,48L45,48z"></path> <path id="Path_3_" class="st0" d="M26.6,37c-0.3-0.3-0.8-0.3-1.1,0l-3,3c-0.2,0.2-0.2,0.4-0.2,0.6s0.1,0.4,0.2,0.6l3,3 c0.2,0.2,0.4,0.2,0.6,0.2c0.2,0,0.4-0.1,0.6-0.2c0.3-0.3,0.3-0.8,0-1.1l-2.4-2.4l2.4-2.4C26.9,37.8,26.9,37.3,26.6,37z"></path> <path id="Path_4_" class="st0" d="M37.6,40l-3-3c-0.3-0.3-0.8-0.3-1.1,0c-0.3,0.3-0.3,0.8,0,1.1l2.4,2.4L33.4,43 c-0.3,0.3-0.3,0.8,0,1.1c0.2,0.2,0.4,0.2,0.6,0.2s0.4-0.1,0.6-0.2l3-3c0.2-0.2,0.2-0.4,0.2-0.6C37.8,40.4,37.7,40.2,37.6,40z"></path> <path id="Path_5_" class="st0" d="M31,36.8c-0.4-0.1-0.9,0.2-1,0.6l-1.6,6c-0.1,0.4,0.2,0.9,0.6,1c0.1,0,0.1,0,0.2,0 c0.4,0,0.7-0.2,0.8-0.6l1.6-6C31.7,37.4,31.4,36.9,31,36.8z"></path> <path id="Shape_1_" class="st0" d="M30,29.5c-6.1,0-11.1,5-11.1,11.1s5,11.1,11.1,11.1s11.1-5,11.1-11.1S36.1,29.5,30,29.5z M30,50.1c-5.2,0-9.5-4.3-9.5-9.5s4.3-9.5,9.5-9.5s9.5,4.3,9.5,9.5S35.2,50.1,30,50.1z"></path> </g> </g> </svg> 