<?xml version="1.0" encoding="UTF-8"?> <svg xmlns="http://www.w3.org/2000/svg" id="Layer_1" data-name="Layer 1" viewBox="0 0 94 94"><defs><style>.cls-1{fill:#1b54f8;stroke:#1b54f8;stroke-miterlimit:10;}</style></defs><path class="cls-1" d="M46.9,15.84c-.1,0-.2.1-.3.2L19.8,39.24c-.2.1-.2.3-.2.5v37.6a.68.68,0,0,0,.7.7H73.9a.68.68,0,0,0,.7-.7V39.74a.76.76,0,0,0-.2-.5l-4.1-3.5V23.14a.68.68,0,0,0-.7-.7H59.3a.68.68,0,0,0-.7.7v2.5L47.5,16a1.42,1.42,0,0,0-.6-.2Zm.1,1.7,11.8,10.2a.67.67,0,0,0,1-.1.76.76,0,0,0,.2-.5v-3.4h8.7v12.2a.76.76,0,0,0,.2.5l4.1,3.5v36.6H20.9V39.94Zm0,26.6a23.66,23.66,0,0,0-16.4,6.5.67.67,0,0,0-.1,1,.68.68,0,0,0,1,.1l.1-.1a22.49,22.49,0,0,1,30.8,0,.71.71,0,0,0,1.1-.9l-.1-.1A23.66,23.66,0,0,0,47,44.14Zm0,6.5a17.43,17.43,0,0,0-12.1,4.9.71.71,0,0,0,1,1h0a15.94,15.94,0,0,1,22.2,0,.71.71,0,0,0,1-1A17,17,0,0,0,47,50.64Zm0,6.5a11,11,0,0,0-7.8,3.1.67.67,0,0,0,0,1h0l7.2,7.2a.67.67,0,0,0,1,0h0l7.2-7.2a.67.67,0,0,0,0-1h0A10.16,10.16,0,0,0,47,57.14Zm0,1.4a9.77,9.77,0,0,1,6.2,2.2L47,66.94l-6.2-6.2A10.38,10.38,0,0,1,47,58.54Z"></path></svg> 