<?xml version="1.0" encoding="UTF-8"?> <svg xmlns="http://www.w3.org/2000/svg" xmlns:xlink="http://www.w3.org/1999/xlink" width="60" height="60" viewBox="0 0 60 60"><defs><clipPath id="clip-path"><rect id="Rectangle_25" data-name="Rectangle 25" width="60" height="60" transform="translate(1704 898)" fill="#fff" stroke="#707070" stroke-width="1"></rect></clipPath></defs><g id="Mask_Group_72" data-name="Mask Group 72" transform="translate(-1704 -898)" clip-path="url(#clip-path)"><g id="Group_76" data-name="Group 76" transform="translate(145.195 61.196)"><path id="Path_216" data-name="Path 216" d="M24.506,43.746l-.709-.107-.323-.677a1.659,1.659,0,0,0-3.011,0l-.323.677-.713.107a1.676,1.676,0,0,0-1.341,1.14,1.72,1.72,0,0,0,.407,1.759l.53.536-.125.763a1.7,1.7,0,0,0,.694,1.683,1.636,1.636,0,0,0,1.746.1l.629-.343.628.342a1.636,1.636,0,0,0,1.746-.1,1.7,1.7,0,0,0,.694-1.683l-.125-.763.53-.536a1.72,1.72,0,0,0,.407-1.759,1.676,1.676,0,0,0-1.34-1.139Zm-.194,1.783-.815.824a.794.794,0,0,0-.219.688L23.47,48.2c.011.072-.02.111-.114.136l-1.008-.549a.793.793,0,0,0-.76,0l-1.074.544a.125.125,0,0,1-.048-.131l.193-1.162a.794.794,0,0,0-.219-.688l-.815-.824a.133.133,0,0,1-.029-.142c.021-.063.056-.069.07-.071l1.128-.17a.794.794,0,0,0,.6-.444l.5-1.059c.037-.079.107-.079.144,0l.5,1.059a.794.794,0,0,0,.6.444l1.128.17c.013,0,.049.007.07.071a.133.133,0,0,1-.03.141Z" transform="translate(1561.284 834.324)" fill="#1c54f9" stroke="#fff" stroke-width="0.4"></path><path id="Path_217" data-name="Path 217" d="M36.506,43.746l-.709-.107-.323-.677a1.659,1.659,0,0,0-3.011,0l-.323.677-.713.107a1.676,1.676,0,0,0-1.341,1.14,1.72,1.72,0,0,0,.407,1.759l.53.536-.125.763a1.7,1.7,0,0,0,.694,1.683,1.636,1.636,0,0,0,1.746.1l.629-.343.628.342a1.636,1.636,0,0,0,1.746-.1,1.7,1.7,0,0,0,.694-1.683l-.125-.763.53-.536a1.72,1.72,0,0,0,.407-1.759A1.676,1.676,0,0,0,36.506,43.746Zm-.194,1.783-.815.824a.793.793,0,0,0-.219.688L35.47,48.2c.011.072-.02.111-.114.136l-1.008-.549a.793.793,0,0,0-.76,0l-1.074.544a.125.125,0,0,1-.048-.131l.193-1.162a.794.794,0,0,0-.219-.688l-.815-.824a.133.133,0,0,1-.029-.142c.021-.063.056-.069.07-.071l1.128-.17a.794.794,0,0,0,.6-.444l.5-1.059c.037-.079.107-.079.144,0l.5,1.059a.794.794,0,0,0,.6.444l1.128.17c.013,0,.049.007.07.071a.133.133,0,0,1-.03.141Z" transform="translate(1558.806 834.324)" fill="#1c54f9" stroke="#fff" stroke-width="0.4"></path><path id="Path_218" data-name="Path 218" d="M49.845,44.885a1.676,1.676,0,0,0-1.339-1.139l-.709-.107-.323-.677a1.659,1.659,0,0,0-3.011,0l-.323.677-.713.107a1.676,1.676,0,0,0-1.341,1.14,1.72,1.72,0,0,0,.407,1.759l.53.536-.125.763a1.7,1.7,0,0,0,.694,1.683,1.636,1.636,0,0,0,1.746.1l.629-.343.628.342a1.636,1.636,0,0,0,1.746-.1,1.7,1.7,0,0,0,.694-1.683l-.125-.763.53-.536A1.72,1.72,0,0,0,49.845,44.885Zm-1.535.643-.815.824a.793.793,0,0,0-.219.688l.193,1.162c.011.072-.02.111-.114.136l-1.008-.549a.794.794,0,0,0-.76,0l-1.074.544a.125.125,0,0,1-.048-.131l.193-1.162a.794.794,0,0,0-.219-.688l-.815-.824a.133.133,0,0,1-.029-.142c.021-.063.056-.069.07-.071l1.128-.17a.794.794,0,0,0,.6-.444l.5-1.059c.037-.079.107-.079.144,0l.5,1.059a.794.794,0,0,0,.6.444l1.128.17c.013,0,.049.007.07.071A.133.133,0,0,1,48.31,45.528Z" transform="translate(1556.328 834.324)" fill="#1c54f9" stroke="#fff" stroke-width="0.4"></path><path id="Path_219" data-name="Path 219" d="M39.947,22.219a2.374,2.374,0,0,0,.76-4.625,15.084,15.084,0,0,0-11.1-13.878,3.949,3.949,0,0,0-7.884,0,15.084,15.084,0,0,0-11.1,13.878,2.374,2.374,0,0,0,.76,4.625ZM25.664,1.588a2.381,2.381,0,0,1,2.295,1.781,13.7,13.7,0,0,0-4.59,0,2.381,2.381,0,0,1,2.295-1.781Zm0,3.174a13.5,13.5,0,0,1,13.449,12.7h-26.9a13.5,13.5,0,0,1,13.451-12.7ZM10.587,19.838a.794.794,0,0,1,.794-.794H39.947a.794.794,0,1,1,0,1.587H11.381A.794.794,0,0,1,10.587,19.838Z" transform="translate(1563.141 842.997)" fill="#1c54f9" stroke="#fff" stroke-width="0.4"></path><path id="Path_220" data-name="Path 220" d="M46.023,32.761H44.436a1.587,1.587,0,0,0-1.587,1.587v.794H12.7a2.381,2.381,0,0,0-2.381-2.381H4.761V29.587A1.587,1.587,0,0,0,3.174,28H1.587A1.587,1.587,0,0,0,0,29.587V51.805a1.587,1.587,0,0,0,1.587,1.587H3.174a1.587,1.587,0,0,0,1.587-1.587V48.631h6.461a3.174,3.174,0,0,0,3.061,2.381H42.849v.794a1.587,1.587,0,0,0,1.587,1.587h1.587a1.587,1.587,0,0,0,1.587-1.587V34.348A1.587,1.587,0,0,0,46.023,32.761ZM10.316,34.348a.794.794,0,0,1,.794.794v1.587H4.761V34.348Zm.794,3.968V43.87H4.761V38.316ZM1.587,51.805V29.587H3.174V51.805Zm3.174-6.348h6.348v1.587H4.761Zm9.522,3.968A1.587,1.587,0,0,1,12.7,47.838V36.729H42.849v12.7Zm30.153,2.381V34.348h1.587V51.805Z" transform="translate(1565 837.216)" fill="#1c54f9" stroke="#fff" stroke-width="0.4"></path></g></g></svg> 