<?xml version="1.0" encoding="UTF-8"?> <svg xmlns="http://www.w3.org/2000/svg" id="Layer_1" data-name="Layer 1" viewBox="0 0 56 56"><defs><style>.cls-1{fill:none;stroke:#1b54f8;stroke-linecap:round;stroke-linejoin:round;stroke-width:1.5px;}.cls-2{fill:#1b54f8;}</style></defs><polyline class="cls-1" points="34.63 33.35 6.62 33.35 6.62 9.82 41.76 9.82 41.76 15.65"></polyline><polyline class="cls-1" points="6.62 33.35 1.75 38.21 34.25 38.21"></polyline><rect class="cls-1" x="36.51" y="15.99" width="17.73" height="30.18" rx="2.88"></rect><path class="cls-1" d="M13.5,18.26H27.65V26a2.16,2.16,0,0,1-.31,1.11l-1.51,2.55A2.21,2.21,0,0,1,24,30.71H17a2.18,2.18,0,0,1-1.83-1l-1.37-2.14a2.21,2.21,0,0,1-.34-1.17Z"></path><path class="cls-1" d="M27.83,21.28l1.11-1a1.67,1.67,0,0,1,2.21.11h0a1.66,1.66,0,0,1,0,2.36l-3.53,3.63"></path><rect class="cls-1" x="40.29" y="21.65" width="9.43" height="14.72"></rect><rect class="cls-2" x="43.3" y="23.92" width="1.13" height="1.13"></rect><rect class="cls-2" x="45.94" y="23.92" width="1.13" height="1.13"></rect><rect class="cls-2" x="43.3" y="26.56" width="1.13" height="1.13"></rect><rect class="cls-2" x="45.94" y="26.56" width="1.13" height="1.13"></rect><rect class="cls-2" x="43.3" y="28.82" width="1.13" height="1.13"></rect><rect class="cls-2" x="45.94" y="28.82" width="1.13" height="1.13"></rect><rect class="cls-2" x="43.3" y="31.09" width="1.13" height="1.13"></rect><rect class="cls-2" x="45.94" y="31.09" width="1.13" height="1.13"></rect><rect class="cls-2" x="44.06" y="33.35" width="2.26" height="3.02" rx="0.29"></rect><line class="cls-1" x1="38.4" y1="36.37" x2="51.98" y2="36.37"></line><line class="cls-1" x1="36.51" y1="39.77" x2="54.25" y2="39.77"></line><rect class="cls-2" x="42.55" y="42.03" width="5.66" height="1.89" rx="0.94"></rect></svg> 