<?xml version="1.0" encoding="UTF-8"?> <svg xmlns="http://www.w3.org/2000/svg" xmlns:xlink="http://www.w3.org/1999/xlink" width="60" height="60" viewBox="0 0 60 60"><defs><clipPath id="clip-path"><rect id="Rectangle_22" data-name="Rectangle 22" width="60" height="60" transform="translate(388.733 131.733)" fill="#fff" stroke="#707070" stroke-width="1"></rect></clipPath></defs><g id="Mask_Group_11" data-name="Mask Group 11" transform="translate(-388.733 -131.733)" clip-path="url(#clip-path)"><g id="Group_5" data-name="Group 5" transform="translate(397.176 136.46)"><path id="Path_31" data-name="Path 31" d="M51.316,52.11h-.037L35,51.932a3.315,3.315,0,0,1-3.281-3.354l.116-10.14a3.322,3.322,0,0,1,3.317-3.279h.036l16.278.178a3.316,3.316,0,0,1,3.28,3.355l-.116,10.14A3.32,3.32,0,0,1,51.316,52.11ZM35.153,36.365a2.113,2.113,0,0,0-2.111,2.087l-.116,10.14a2.109,2.109,0,0,0,2.087,2.134l16.279.178h.024a2.112,2.112,0,0,0,2.11-2.086l.116-10.14a2.111,2.111,0,0,0-2.087-2.135l-16.278-.178Z" transform="translate(-21.608 -18.553)" fill="#1c54f8"></path><path id="Path_32" data-name="Path 32" d="M52.659,34.078l-9.2-.1.017-1.551a3.415,3.415,0,0,1,3.458-3.382l2.362.025a3.421,3.421,0,0,1,3.384,3.461Zm-7.985-1.294,6.793.074,0-.342a2.214,2.214,0,0,0-2.191-2.241l-2.362-.025a2.2,2.2,0,0,0-2.239,2.19Z" transform="translate(-26.266 -16.125)" fill="#1c54f8"></path><rect id="Rectangle_17" data-name="Rectangle 17" width="15.993" height="1.206" transform="translate(15.465 33.297) rotate(-89.33)" fill="#1c54f8"></rect><rect id="Rectangle_18" data-name="Rectangle 18" width="15.306" height="1.206" transform="translate(26.523 32.731) rotate(-89.33)" fill="#1c54f8"></rect><path id="Path_33" data-name="Path 33" d="M56.393,47.625H22.239V24.455A16.853,16.853,0,0,1,39.073,7.621h.485A16.853,16.853,0,0,1,56.393,24.455ZM23.445,46.419H55.187V24.455A15.646,15.646,0,0,0,39.558,8.827h-.485A15.645,15.645,0,0,0,23.445,24.455Z" transform="translate(-17.845 -7.621)" fill="#1c54f8"></path><path id="Path_34" data-name="Path 34" d="M57.87,79.007H14.952V72.023H57.87ZM16.158,77.8H56.664V73.229H16.158Z" transform="translate(-14.952 -33.186)" fill="#1c54f8"></path><path id="Path_35" data-name="Path 35" d="M27.147,88.3a3.1,3.1,0,1,1,3.1-3.1A3.1,3.1,0,0,1,27.147,88.3Zm0-5a1.9,1.9,0,1,0,1.9,1.9A1.9,1.9,0,0,0,27.147,83.3Z" transform="translate(-18.562 -37.183)" fill="#1c54f8"></path><path id="Path_36" data-name="Path 36" d="M69.456,88.3a3.1,3.1,0,1,1,3.1-3.1A3.105,3.105,0,0,1,69.456,88.3Zm0-5a1.9,1.9,0,1,0,1.9,1.9A1.9,1.9,0,0,0,69.456,83.3Z" transform="translate(-35.357 -37.183)" fill="#1c54f8"></path><rect id="Rectangle_19" data-name="Rectangle 19" width="25.591" height="1.206" transform="translate(9.649 41.726)" fill="#1c54f8"></rect><path id="Path_37" data-name="Path 37" d="M55.455,68.782h-29.5V61.849h29.5Zm-28.3-1.206H54.249v-4.52H27.16Z" transform="translate(-19.319 -29.147)" fill="#1c54f8"></path><rect id="Rectangle_20" data-name="Rectangle 20" width="1.206" height="5.904" transform="translate(10.058 33.496)" fill="#1c54f8"></rect><rect id="Rectangle_21" data-name="Rectangle 21" width="1.206" height="6.096" transform="translate(31.642 33.305)" fill="#1c54f8"></rect></g></g></svg> 