<?xml version="1.0" encoding="UTF-8"?> <svg xmlns="http://www.w3.org/2000/svg" xmlns:xlink="http://www.w3.org/1999/xlink" id="Layer_1" data-name="Layer 1" viewBox="0 0 86 86"><defs><style>.cls-1{fill:#fff;}.cls-1,.cls-3{fill-rule:evenodd;}.cls-2{mask:url(#mask);}.cls-3{fill:#1b54f8;}</style><mask id="mask" x="13" y="13.15" width="59.86" height="59.71" maskUnits="userSpaceOnUse"><g id="mask-2"><polygon id="path-1" class="cls-1" points="13 13.15 72.86 13.15 72.86 72.86 13 72.86 13 13.15"></polygon></g></mask></defs><g id="Artboard"><g id="Page-1"><g id="Group-3"><g class="cls-2"><path id="Fill-1" class="cls-3" d="M59.81,21.09c-.84.85-1.7,1.71-2.56,2.56a1.36,1.36,0,0,1-2.1.23,22.46,22.46,0,0,0-7.2-3c-1.24-.28-1.43-.53-1.43-1.85V15.58H39.34v3.53c0,1.2-.22,1.5-1.37,1.75a22.64,22.64,0,0,0-7.33,3.06,1.29,1.29,0,0,1-2-.22c-.88-.88-1.74-1.77-2.51-2.56L21,26.26c.83.81,1.73,1.67,2.61,2.55a1.26,1.26,0,0,1,.19,1.91A22.48,22.48,0,0,0,20.74,38c-.26,1.15-.56,1.38-1.74,1.38H15.46v7.17H19c1.15,0,1.45.21,1.7,1.34a22.55,22.55,0,0,0,3.06,7.32c.55.86.5,1.29-.24,2L21,59.81l5.12,5.07c.8-.82,1.65-1.69,2.52-2.55a1.3,1.3,0,0,1,2-.22,22.74,22.74,0,0,0,7.34,3c1.11.25,1.33.55,1.33,1.71v3.55h7.18V66.93c0-1.26.21-1.54,1.4-1.8A22.49,22.49,0,0,0,55,62.22c1.15-.72,1.43-.69,2.39.26l2.4,2.4,5.11-5.1C64,59,63.15,58.1,62.27,57.22A1.25,1.25,0,0,1,62,55.31a22.89,22.89,0,0,0,3.14-7.53c.21-.93.55-1.19,1.5-1.19,1.24,0,2.48,0,3.74,0V39.42H66.79c-1.1,0-1.41-.24-1.65-1.31a22.53,22.53,0,0,0-3-7.32c-.59-.91-.53-1.3.25-2.09l2.55-2.53c-1.71-1.72-3.37-3.37-5.08-5.08M56.13,64.58l-7.21,3c0,1.12,0,2.44,0,3.76,0,1.12-.4,1.52-1.53,1.52q-4.49,0-9,0c-1,0-1.45-.42-1.46-1.44V67.57c-2.39-1-4.72-2-7.24-3l-2.55,2.6c-.88.88-1.41.89-2.27,0L18.64,61c-.83-.82-.82-1.37,0-2.21l2.63-2.61c-1-2.44-2-4.76-3-7.19H14.5c-1.07,0-1.49-.42-1.5-1.48v-9c0-1,.45-1.42,1.41-1.43H18.3l3-7.18-2.68-2.66a1.27,1.27,0,0,1,0-2.11L25,18.69a1.25,1.25,0,0,1,2.06,0c.94.93,1.86,1.87,2.68,2.71l7.22-3V14.68c0-1.12.42-1.53,1.54-1.53H47.3c1.23,0,1.61.39,1.61,1.6v3.68l7.24,3c.75-.77,1.65-1.69,2.56-2.6s1.41-.89,2.27,0L67.22,25c.82.82.81,1.38,0,2.22l-2.63,2.61c1,2.44,2,4.76,3,7.18h3.8c1.07,0,1.49.43,1.49,1.49q0,4.44,0,8.88c0,1.18-.4,1.57-1.57,1.57H67.55c-1,2.42-2,4.74-3,7.18l2.57,2.56c.91.91.92,1.43,0,2.32Q64.08,64.12,61,67.2c-.86.86-1.4.86-2.27,0s-1.79-1.8-2.58-2.6"></path></g></g><path id="Fill-4" class="cls-3" d="M42.91,58.53A15.53,15.53,0,1,0,27.37,43,15.58,15.58,0,0,0,42.91,58.53M25,43A18,18,0,1,1,42.87,60.91,18,18,0,0,1,25,43"></path><path id="Fill-6" class="cls-3" d="M41.4,48.11l.36-.69q2.91-5.79,5.81-11.58a4.17,4.17,0,0,1,.4-.72,1.1,1.1,0,0,1,1.46-.34A1.11,1.11,0,0,1,50,36.21a4.78,4.78,0,0,1-.28.61L43.06,50.2c-.72,1.43-1.44,1.54-2.56.43q-2.14-2.13-4.28-4.27a1.19,1.19,0,0,1,.29-2.07,1.22,1.22,0,0,1,1.41.38l2.9,2.9.58.54"></path></g></g></svg> 