<?xml version="1.0" encoding="UTF-8"?> <svg xmlns="http://www.w3.org/2000/svg" xmlns:xlink="http://www.w3.org/1999/xlink" width="90" height="90" viewBox="0 0 90 90"><defs><clipPath id="clip-path"><rect id="Rectangle_32" data-name="Rectangle 32" width="90" height="90" transform="translate(1481 702)" fill="#fff" stroke="#707070" stroke-width="1"></rect></clipPath></defs><g id="Mask_Group_6" data-name="Mask Group 6" transform="translate(-1481 -702)" clip-path="url(#clip-path)"><g id="Group_1" data-name="Group 1" transform="translate(1487 708)"><path id="Path_1" data-name="Path 1" d="M71.328,45.691V40.984a3.864,3.864,0,0,0-3.169-3.793A19.366,19.366,0,0,0,54.532,19a6.083,6.083,0,1,0-10.642-.04A18.963,18.963,0,0,0,30.264,37.154v.038a3.865,3.865,0,0,0-3.152,3.792v4.706a3.868,3.868,0,0,0,3.864,3.864H67.464A3.868,3.868,0,0,0,71.328,45.691ZM45.071,16.08a4.149,4.149,0,1,1,7.476,2.448,18.3,18.3,0,0,0-2.939-.32c-.132,0-.262,0-.392,0a19.157,19.157,0,0,0-3.338.3A4.13,4.13,0,0,1,45.071,16.08ZM37.3,25a16.867,16.867,0,0,1,12.267-4.862,17.279,17.279,0,0,1,16.655,16.98H32.2A16.885,16.885,0,0,1,37.3,25ZM29.043,45.691V40.984a1.934,1.934,0,0,1,1.932-1.932H67.464A1.934,1.934,0,0,1,69.4,40.984v4.706a1.934,1.934,0,0,1-1.932,1.932H30.975A1.934,1.934,0,0,1,29.043,45.691Z" transform="translate(-10.583 -10)" fill="#1c54f8" stroke="#1c54f8" stroke-width="0.4"></path><path id="Path_2" data-name="Path 2" d="M15.882,36.147A5.361,5.361,0,0,0,10,41.481V61.448a9.693,9.693,0,0,0,2.366,6.343l9.532,11a3.4,3.4,0,0,1,.829,2.223V87.2a.966.966,0,0,0,.966.966H40.165a.966.966,0,0,0,.966-.966V70.5a5.289,5.289,0,0,0-1.56-3.766L27.935,55.1a5.358,5.358,0,0,0-7.217-.331V41.67A5.5,5.5,0,0,0,15.882,36.147ZM29.077,68.665,21.723,61.31a3.428,3.428,0,0,1,0-4.847,3.508,3.508,0,0,1,4.846,0L38.2,68.1a3.372,3.372,0,0,1,.994,2.4V86.231H24.658V81.012a5.33,5.33,0,0,0-1.3-3.488l-9.532-11a7.758,7.758,0,0,1-1.894-5.079V41.481a3.437,3.437,0,0,1,1.122-2.537A3.4,3.4,0,0,1,15.7,38.07a3.558,3.558,0,0,1,3.087,3.6V58.827c0,.013,0,.025,0,.038v.021a5.325,5.325,0,0,0,1.57,3.79l7.354,7.355a.966.966,0,0,0,1.366-1.366Z" transform="translate(-10 -10.891)" fill="#1c54f8" stroke="#1c54f8" stroke-width="0.4"></path><path id="Path_3" data-name="Path 3" d="M83.019,36.147a5.5,5.5,0,0,0-4.836,5.523v13.1a5.358,5.358,0,0,0-7.217.331L59.331,66.731a5.289,5.289,0,0,0-1.56,3.766V87.2a.966.966,0,0,0,.966.966H75.209a.966.966,0,0,0,.966-.966V81.012A3.4,3.4,0,0,1,77,78.789l9.532-11A9.693,9.693,0,0,0,88.9,61.448V41.481a5.361,5.361,0,0,0-5.882-5.334Zm3.95,25.3a7.758,7.758,0,0,1-1.894,5.079l-9.532,11a5.33,5.33,0,0,0-1.3,3.488v5.219H59.7V70.5a3.372,3.372,0,0,1,.994-2.4L72.332,56.463a3.508,3.508,0,0,1,4.846,0,3.428,3.428,0,0,1,0,4.847l-7.354,7.355A.966.966,0,0,0,71.19,70.03l7.354-7.355a5.325,5.325,0,0,0,1.57-3.79v-.021c0-.013,0-.025,0-.038V41.67a3.558,3.558,0,0,1,3.087-3.6,3.4,3.4,0,0,1,2.645.874,3.437,3.437,0,0,1,1.122,2.537Z" transform="translate(-11.629 -10.891)" fill="#1c54f8" stroke="#1c54f8" stroke-width="0.4"></path></g></g></svg> 