<?xml version="1.0" encoding="UTF-8"?> <svg xmlns="http://www.w3.org/2000/svg" xmlns:xlink="http://www.w3.org/1999/xlink" width="60" height="60" viewBox="0 0 60 60"><defs><clipPath id="clip-path"><rect id="Rectangle_80" data-name="Rectangle 80" width="60" height="60" transform="translate(1079 426)" fill="#fff" stroke="#707070" stroke-width="1"></rect></clipPath></defs><g id="Mask_Group_55" data-name="Mask Group 55" transform="translate(-1079 -426)" clip-path="url(#clip-path)"><g id="Group_72" data-name="Group 72" transform="translate(-75.639 21)"><path id="Path_188" data-name="Path 188" d="M55.272,41.787a3.237,3.237,0,0,0-2.114-1.532,3.716,3.716,0,0,0-2.905.545l-7.039,4.775a3.659,3.659,0,0,0-.221-.46,3.567,3.567,0,0,0-2.182-1.676l-11.04-2.957h0L26.11,39.5a5.5,5.5,0,0,0-6.334,2.849,2.416,2.416,0,0,0-2.076-.229l-5.6,1.993a.692.692,0,0,0-.42.885L15.57,55.931a.694.694,0,0,0,.885.42l5.6-1.993a2.414,2.414,0,0,0,1.422-1.372h3.042c1.179.3,2.255.577,3.241.832,4.628,1.2,7.36,1.89,9.5,1.89,3.008,0,4.858-1.366,9.161-4.629,1.54-1.17,3.461-2.624,5.886-4.348a3.728,3.728,0,0,0,.96-4.945ZM21.593,53.051l-4.947,1.761-3.43-9.627,4.947-1.76a1.042,1.042,0,0,1,1.33.634l2.728,7.663a1.042,1.042,0,0,1-.628,1.33ZM53.508,45.6c-2.442,1.738-4.37,3.2-5.922,4.373-6.905,5.236-6.905,5.236-17.481,2.5-1.012-.262-2.117-.548-3.331-.856L26.69,51.6H23.61a2.346,2.346,0,0,0-.084-.342L20.8,43.59c0-.013-.012-.023-.017-.036a4.109,4.109,0,0,1,4.969-2.718l4.634,1.242h0l10.067,2.7a2.208,2.208,0,1,1-1.142,4.265L28.269,46.086a.693.693,0,1,0-.359,1.339l11.042,2.956a3.586,3.586,0,0,0,4.517-3.3l7.561-5.128a2.362,2.362,0,0,1,1.818-.341,1.865,1.865,0,0,1,1.223.875,2.32,2.32,0,0,1-.563,3.116ZM49.1,24.336a10.459,10.459,0,1,0-17.848,7.391l-.009.017.4.36c.079.072.166.134.246.2s.149.123.225.185c.185.145.37.285.558.417.083.058.167.115.251.171q.283.185.575.35c.1.055.194.11.293.161.188.1.38.19.573.277.113.051.226.1.341.149.185.076.375.142.565.207.128.044.254.089.384.128.188.056.38.1.572.147.134.031.267.067.4.094.209.041.421.069.633.1.123.016.24.038.362.05.336.033.678.052,1.017.052s.681-.019,1.018-.052c.123-.012.239-.034.359-.05.213-.028.426-.056.636-.1.135-.026.266-.062.4-.093.193-.046.386-.092.575-.148.128-.038.253-.083.379-.123.192-.065.382-.132.57-.209.113-.046.225-.1.336-.147.2-.087.388-.179.578-.279.1-.051.192-.1.288-.159q.3-.166.58-.352.123-.082.246-.168.286-.2.561-.419l.223-.185c.073-.062.168-.132.246-.2l.4-.36-.009-.017A10.426,10.426,0,0,0,49.1,24.337Zm-19.531,0A9.073,9.073,0,1,1,45.3,30.471a8.06,8.06,0,0,0-13.329,0,9.027,9.027,0,0,1-2.408-6.134Zm12.658,8.331c-.071.03-.143.057-.214.085-.185.073-.37.142-.554.2-.1.031-.192.062-.288.087q-.257.075-.52.134c-.1.023-.208.047-.313.067-.185.034-.37.062-.554.085-.094.012-.188.027-.283.036-.281.026-.566.044-.854.044s-.572-.017-.854-.044c-.1-.009-.19-.024-.285-.036-.185-.023-.37-.051-.554-.085-.106-.02-.211-.044-.315-.067-.174-.04-.346-.084-.516-.133-.1-.028-.2-.057-.293-.089-.185-.062-.37-.129-.549-.2-.073-.03-.148-.056-.221-.087-.249-.108-.493-.224-.732-.353h0A9.084,9.084,0,0,1,33,31.431a6.681,6.681,0,0,1,11.281,0,9.085,9.085,0,0,1-2.055,1.236Zm-3.585-6.887a3.567,3.567,0,1,0-3.568-3.567,3.567,3.567,0,0,0,3.568,3.567Zm0-5.748a2.181,2.181,0,1,1-2.182,2.181,2.181,2.181,0,0,1,2.182-2.181Zm13.12.133a.693.693,0,1,1,1.321-.421,15.23,15.23,0,0,1-6.865,17.714,15.061,15.061,0,0,1-7.544,2.011,15.219,15.219,0,0,1-10.2-3.9l-.216,1.809a.694.694,0,0,1-.687.61.628.628,0,0,1-.083,0,.694.694,0,0,1-.606-.771L27.265,34a.752.752,0,0,1,.03-.091.454.454,0,0,1,.123-.246.7.7,0,0,1,.067-.091c.008-.007.018-.009.026-.016a.754.754,0,0,1,.105-.062.712.712,0,0,1,.129-.066.666.666,0,0,1,.111-.017.7.7,0,0,1,.152-.012.07.07,0,0,1,.025,0l3.216.385a.694.694,0,0,1-.165,1.377L29.97,35.02A13.76,13.76,0,0,0,51.759,20.166ZM24.2,28.929a15.152,15.152,0,0,1,24.635-15.8l.185-1.563a.693.693,0,0,1,1.376.165l-.384,3.216a.694.694,0,0,1-.687.61.752.752,0,0,1-.083,0l-3.214-.384a.693.693,0,1,1,.164-1.376l1.494.179A13.76,13.76,0,0,0,25.518,28.509a.693.693,0,1,1-1.32.421Z" transform="translate(1151 401.811)" fill="#1c54f9"></path></g></g></svg> 