<?xml version="1.0" encoding="UTF-8"?> <svg xmlns="http://www.w3.org/2000/svg" xmlns:xlink="http://www.w3.org/1999/xlink" width="60" height="60" viewBox="0 0 60 60"><defs><clipPath id="clip-path"><rect id="Rectangle_2" data-name="Rectangle 2" width="60" height="60" transform="translate(319 95)" fill="#fff" stroke="#707070" stroke-width="1"></rect></clipPath></defs><g id="Mask_Group_2" data-name="Mask Group 2" transform="translate(-319 -95)" clip-path="url(#clip-path)"><g id="Group_5" data-name="Group 5" transform="translate(-48.947 -167.447)"><g id="Group_4" data-name="Group 4" transform="translate(386.862 282.244)"><path id="Path_3" data-name="Path 3" d="M25.756,60.664a1.646,1.646,0,1,0-1.646-1.646A1.65,1.65,0,0,0,25.756,60.664Zm0-2.4a.758.758,0,1,1-.758.758A.757.757,0,0,1,25.756,58.26Z" transform="translate(-18.732 -48.061)" fill="#1c54f8"></path><path id="Path_4" data-name="Path 4" d="M48.787,60.664a1.646,1.646,0,1,0-1.646-1.646A1.65,1.65,0,0,0,48.787,60.664Zm0-2.4a.758.758,0,1,1-.758.758A.757.757,0,0,1,48.787,58.26Z" transform="translate(-32.987 -48.061)" fill="#1c54f8"></path><path id="Path_5" data-name="Path 5" d="M33.2,73.24h4.588a.447.447,0,0,0,0-.893H33.2a.447.447,0,0,0,0,.893Z" transform="translate(-24.08 -57.33)" fill="#1c54f8"></path><path id="Path_6" data-name="Path 6" d="M12,48.8h.689V49.96a1.9,1.9,0,0,0,1.9,1.9H28.223a1.9,1.9,0,0,0,1.9-1.9V48.8h.689a2,2,0,0,0,2-2V44.306a2,2,0,0,0-2-2h-.689V41.142a1.9,1.9,0,0,0-1.9-1.9H24.115a2,2,0,0,0-2-1.864h-.271V36.169a1.644,1.644,0,1,0-.889,0v1.212h-.271a2,2,0,0,0-2,1.864H14.584a1.9,1.9,0,0,0-1.9,1.9v1.163H12a2,2,0,0,0-2,2V46.8a2,2,0,0,0,2,2Zm18.123-5.606h.689a1.115,1.115,0,0,1,1.113,1.113V46.8a1.115,1.115,0,0,1-1.113,1.113h-.689Zm-9.473-8.608a.758.758,0,1,1,.758.758A.757.757,0,0,1,20.648,34.584Zm.046,3.686h1.429a1.116,1.116,0,0,1,1.1.975H19.593a1.114,1.114,0,0,1,1.1-.975Zm-7.115,10V41.142a1.011,1.011,0,0,1,1.009-1.009H28.223a1.011,1.011,0,0,1,1.009,1.009v8.819a1.011,1.011,0,0,1-1.009,1.009H14.59a1.011,1.011,0,0,1-1.009-1.009v-1.7Zm-2.694-3.96A1.115,1.115,0,0,1,12,43.195h.689v4.717H12A1.115,1.115,0,0,1,10.885,46.8V44.307Z" transform="translate(-9.997 -32.938)" fill="#1c54f8"></path></g><path id="Path_13" data-name="Path 13" d="M21.893,51.332c.476.221.967.424,1.459.6l.516-1.423c-.451-.163-.9-.349-1.337-.551Z" transform="translate(368.41 256.071)" fill="#1c54f8"></path><path id="Path_14" data-name="Path 14" d="M18.279,49.295c.431.3.879.585,1.332.846l.755-1.311c-.415-.239-.826-.5-1.221-.776Z" transform="translate(369.29 256.535)" fill="#1c54f8"></path><path id="Path_15" data-name="Path 15" d="M15.081,46.676c.37.368.762.725,1.166,1.062l.97-1.16c-.37-.309-.73-.637-1.069-.975Z" transform="translate(370.069 257.133)" fill="#1c54f8"></path><path id="Path_16" data-name="Path 16" d="M12.39,43.559c.3.429.628.848.966,1.248l1.154-.977c-.309-.366-.608-.75-.885-1.143Z" transform="translate(370.725 257.843)" fill="#1c54f8"></path><path id="Path_17" data-name="Path 17" d="M10.289,40.034c.224.473.471.943.735,1.395l1.307-.763c-.242-.414-.469-.845-.674-1.279Z" transform="translate(371.237 258.647)" fill="#1c54f8"></path><path id="Path_18" data-name="Path 18" d="M8.845,36.2c.138.506.3,1.012.482,1.5l1.419-.524c-.166-.449-.315-.913-.441-1.376Z" transform="translate(371.589 259.52)" fill="#1c54f8"></path><path id="Path_19" data-name="Path 19" d="M8.1,32.187c.048.522.119,1.048.213,1.563L9.8,33.481c-.085-.472-.151-.954-.195-1.433Z" transform="translate(371.769 260.435)" fill="#1c54f8"></path><path id="Path_20" data-name="Path 20" d="M49.21,4.877,42.4,1.1a.756.756,0,0,0-1.124.661V4.782H26.152A18.173,18.173,0,0,0,8,22.934v.116l1.513-.016v-.1a16.659,16.659,0,0,1,16.64-16.64H41.279V9.32a.756.756,0,0,0,1.124.661L49.21,6.2a.756.756,0,0,0,0-1.322ZM42.792,8.034V3.042l4.493,2.5Z" transform="translate(371.795 268)" fill="#1c54f8"></path><path id="Path_21" data-name="Path 21" d="M55.349,31.265c-.048-.522-.119-1.048-.213-1.563l-1.488.269c.085.472.151.954.195,1.433Z" transform="translate(360.673 261.007)" fill="#1c54f8"></path><path id="Path_22" data-name="Path 22" d="M52.643,26.205c.166.449.315.913.441,1.376l1.46-.4c-.138-.506-.3-1.012-.482-1.5Z" transform="translate(360.917 261.987)" fill="#1c54f8"></path><path id="Path_23" data-name="Path 23" d="M51.012,22.677c.242.414.469.845.674,1.279l1.367-.647c-.224-.473-.471-.943-.735-1.395Z" transform="translate(361.315 262.904)" fill="#1c54f8"></path><path id="Path_24" data-name="Path 24" d="M48.807,19.487c.309.366.608.75.885,1.143l1.235-.873c-.3-.429-.628-.848-.966-1.248Z" transform="translate(361.852 263.734)" fill="#1c54f8"></path><path id="Path_25" data-name="Path 25" d="M46.1,16.734c.37.309.73.637,1.069.975l1.067-1.073c-.37-.368-.762-.725-1.166-1.062Z" transform="translate(362.513 264.449)" fill="#1c54f8"></path><path id="Path_26" data-name="Path 26" d="M45.049,14.033c-.431-.3-.879-.585-1.332-.846L42.962,14.5c.415.239.826.5,1.221.776Z" transform="translate(363.276 265.031)" fill="#1c54f8"></path><path id="Path_27" data-name="Path 27" d="M41.471,12.032c-.476-.221-.967-.424-1.459-.6L39.5,12.852c.451.163.9.349,1.337.551Z" transform="translate(364.12 265.459)" fill="#1c54f8"></path><path id="Path_28" data-name="Path 28" d="M1.389,52.02,8.2,55.8A.756.756,0,0,0,9.32,55.14V52.115H24.447A18.173,18.173,0,0,0,42.6,33.963v-.116l-1.513.016v.1A16.659,16.659,0,0,1,24.447,50.6H9.32V47.577A.756.756,0,0,0,8.2,46.916L1.389,50.7a.756.756,0,0,0,0,1.322Zm6.418-3.157v4.992l-4.493-2.5Z" transform="translate(373.5 259.997)" fill="#1c54f8"></path></g></g></svg> 