<?xml version="1.0" encoding="UTF-8"?> <svg xmlns="http://www.w3.org/2000/svg" id="Layer_1" data-name="Layer 1" viewBox="0 0 80 80"><defs><style>.cls-1{fill:#1b54f8;}</style></defs><g id="Ideation"><path id="Fill-1" class="cls-1" d="M51.29,46.69a7.61,7.61,0,0,0-3.5,4.05H32.38a5.9,5.9,0,0,0-2.54-3.19,17,17,0,0,1-7.34-14,17.5,17.5,0,0,1,35,0A17,17,0,0,1,51.29,46.69Zm-4.15,7.62V57.6H32.94V54.17H47.16ZM40,64.57,32.94,61H47.15ZM40,13A20.82,20.82,0,0,0,19,33.59a20.48,20.48,0,0,0,8.81,16.75l.25.17c1.29.74,1.41,3.11,1.38,3.55v7a3.43,3.43,0,0,0,1.9,3.06l7.07,3.53a3.54,3.54,0,0,0,3.17,0l7.15-3.53A3.43,3.43,0,0,0,50.65,61V54.31c0-3.38,2.11-4.5,2.12-4.51l.78-.49A20.37,20.37,0,0,0,61,33.59,20.82,20.82,0,0,0,40,13Z"></path></g></svg> 