<?xml version="1.0" encoding="UTF-8"?> <svg xmlns="http://www.w3.org/2000/svg" xmlns:xlink="http://www.w3.org/1999/xlink" width="90" height="90" viewBox="0 0 90 90"><defs><clipPath id="clip-path"><circle id="Ellipse_10" data-name="Ellipse 10" cx="45" cy="45" r="45" transform="translate(0.315 0.219)" fill="#fff"></circle></clipPath></defs><g id="Mask_Group_6" data-name="Mask Group 6" transform="translate(-0.315 -0.219)" clip-path="url(#clip-path)"><g id="Group_167" data-name="Group 167" transform="translate(12.749 12.736)"><path id="Path_165" data-name="Path 165" d="M342.472,102.86a9.924,9.924,0,0,0-9.914,9.914,2.326,2.326,0,0,0,4.651,0,5.263,5.263,0,1,1,5.263,5.261,2.324,2.324,0,0,0-2.326,2.326c0,.047.023.084.025.128s-.025.084-.025.13v4.84a2.326,2.326,0,0,0,4.651,0v-3.075a9.9,9.9,0,0,0-2.326-19.523Z" transform="translate(-302.319 -93.842)" fill="#1b54f8" stroke="#fff" stroke-width="2"></path><path id="Path_166" data-name="Path 166" d="M391.986,297.01a2.324,2.324,0,0,0-2.326,2.326v1.439a2.326,2.326,0,1,0,4.651,0v-1.439A2.325,2.325,0,0,0,391.986,297.01Z" transform="translate(-351.832 -262.191)" fill="#1b54f8" stroke="#fff" stroke-width="2"></path><path id="Path_167" data-name="Path 167" d="M145.161,35A24.931,24.931,0,0,0,126.15,76.1l-5.991,5.97a7.153,7.153,0,0,0-7.9,1.319l-5.2,5.2a6.976,6.976,0,1,0,9.863,9.868l5.2-5.2a6.9,6.9,0,0,0,1.349-7.918l6-5.977A24.956,24.956,0,1,0,145.163,35ZM118.833,89.967l-5.2,5.2a2.378,2.378,0,0,1-3.289,0,2.321,2.321,0,0,1,0-3.286l5.2-5.2a2.321,2.321,0,0,1,3.288,0,2.322,2.322,0,0,1,0,3.286Zm26.328-9.691a20.312,20.312,0,1,1,20.311-20.314A20.334,20.334,0,0,1,145.161,80.276Z" transform="translate(-105.008 -34.999)" fill="#1b54f8" stroke="#fff" stroke-width="2"></path></g></g></svg> 