<?xml version="1.0" encoding="UTF-8"?> <svg xmlns="http://www.w3.org/2000/svg" width="61" height="61" viewBox="0 0 61 61" fill="none"><mask id="mask0_19_445" style="mask-type:luminance" maskUnits="userSpaceOnUse" x="0" y="0" width="61" height="61"><path d="M60.6 0.299988H0.599998V60.3H60.6V0.299988Z" fill="white"></path></mask><g mask="url(#mask0_19_445)"><path d="M14.5 12.6C14.3 12.6 14.1 12.6 13.9 12.7C13.7 12.8 13.5 12.9 13.4 13C13.3 13.1 13.1 13.3 13.1 13.5C13 13.7 13 13.9 13 14.1V46.3C13 46.5 13 46.7 13.1 46.9C13.2 47.1 13.3 47.3 13.4 47.4C13.5 47.5 13.7 47.7 13.9 47.7C14.1 47.8 14.3 47.8 14.5 47.8H46.7C46.9 47.8 47.1 47.8 47.3 47.7C47.5 47.6 47.7 47.5 47.8 47.4C47.9 47.3 48.1 47.1 48.1 46.9C48.2 46.7 48.2 46.5 48.2 46.3V14.1C48.2 13.9 48.2 13.7 48.1 13.5C48 13.3 47.9 13.1 47.8 13C47.7 12.9 47.5 12.7 47.3 12.7C47.1 12.7 46.9 12.6 46.7 12.6H14.5ZM45.1 15.8V37L37.9 32.2C37.7 32 37.4 31.9 37.1 31.9C36.8 31.9 36.5 31.9 36.3 32.1L30.9 34.8L25.3 29.2C25.2 29.1 25 28.9 24.8 28.9C24.6 28.8 24.4 28.8 24.2 28.8C24 28.8 23.8 28.8 23.6 28.9C23.4 29 23.2 29.1 23.1 29.2L16.2 36.1V15.8H45.1ZM16.1 44.8V40.6L24.2 32.5L29.5 37.8C29.7 38 30 38.2 30.4 38.2C30.7 38.3 31.1 38.2 31.4 38.1L37 35.3L45.2 40.7V44.7H16.1V44.8Z" fill="#1B54F8" stroke="white" stroke-width="1.0489" stroke-miterlimit="10"></path><path d="M37.1 27.1C37.7 27.1 38.4 26.9 38.9 26.6C39.4 26.2 39.8 25.7 40.1 25.2C40.3 24.6 40.4 24 40.3 23.3C40.2 22.7 39.9 22.1 39.4 21.6C38.9 21.1 38.4 20.8 37.7 20.7C37.1 20.6 36.4 20.6 35.8 20.9C35.2 21.1 34.7 21.6 34.4 22.1C34 22.6 33.9 23.3 33.9 23.9C33.9 24.8 34.2 25.6 34.8 26.2C35.4 26.8 36.2 27.1 37.1 27.1Z" fill="#1B54F8"></path><path d="M37.1 23.8H38.7M37.1 27.1C37.7 27.1 38.4 26.9 38.9 26.6C39.4 26.2 39.8 25.7 40.1 25.2C40.3 24.6 40.4 24 40.3 23.3C40.2 22.7 39.9 22.1 39.4 21.6C38.9 21.1 38.4 20.8 37.7 20.7C37.1 20.6 36.4 20.6 35.8 20.9C35.2 21.1 34.7 21.6 34.4 22.1C34 22.6 33.9 23.3 33.9 23.9C33.9 24.8 34.2 25.6 34.8 26.2C35.4 26.8 36.2 27.1 37.1 27.1Z" stroke="white" stroke-width="1.0489" stroke-miterlimit="10"></path><path d="M3.3 17.4C3.5 17.4 3.7 17.4 3.9 17.3C4.1 17.2 4.3 17.1 4.4 17C4.5 16.9 4.7 16.7 4.7 16.5C4.8 16.3 4.8 16.1 4.8 15.9V4.60001H16.1C16.5 4.60001 16.9 4.40001 17.2 4.10001C17.5 3.80001 17.7 3.4 17.7 3C17.7 2.6 17.5 2.19999 17.2 1.89999C16.9 1.59999 16.5 1.39999 16.1 1.39999H3.3C3.1 1.39999 2.9 1.4 2.7 1.5C2.5 1.6 2.3 1.69999 2.2 1.79999C2.1 1.89999 1.9 2.09999 1.9 2.29999C1.8 2.49999 1.8 2.69999 1.8 2.89999V15.8C1.8 16 1.8 16.2 1.9 16.4C2 16.6 2.1 16.8 2.2 16.9C2.3 17 2.5 17.2 2.7 17.2C2.8 17.3 3.1 17.4 3.3 17.4Z" fill="#1B54F8" stroke="white" stroke-width="1.0489" stroke-miterlimit="10"></path><path d="M45.1 4.5H56.4V15.8C56.4 16.2 56.6 16.6 56.9 16.9C57.2 17.2 57.6 17.4 58 17.4C58.4 17.4 58.8 17.2 59.1 16.9C59.4 16.6 59.6 16.2 59.6 15.8V2.89999C59.6 2.69999 59.6 2.49999 59.5 2.29999C59.4 2.09999 59.3 1.89999 59.2 1.79999C59.1 1.69999 58.9 1.5 58.7 1.5C58.5 1.4 58.3 1.39999 58.1 1.39999H45.1C44.7 1.39999 44.3 1.59999 44 1.89999C43.7 2.19999 43.5 2.6 43.5 3C43.5 3.4 43.7 3.80001 44 4.10001C44.3 4.30001 44.7 4.5 45.1 4.5Z" fill="#1B54F8" stroke="white" stroke-width="1.0489" stroke-miterlimit="10"></path><path d="M58 43.2C57.8 43.2 57.6 43.2 57.4 43.3C57.2 43.4 57 43.5 56.9 43.6C56.8 43.7 56.6 43.9 56.6 44.1C56.5 44.3 56.5 44.5 56.5 44.7V56H45.1C44.7 56 44.3 56.2 44 56.5C43.7 56.8 43.5 57.2 43.5 57.6C43.5 58 43.7 58.4 44 58.7C44.3 59 44.7 59.2 45.1 59.2H58C58.2 59.2 58.4 59.2 58.6 59.1C58.8 59 59 58.9 59.1 58.8C59.2 58.7 59.4 58.5 59.4 58.3C59.5 58.1 59.5 57.9 59.5 57.7V44.8C59.5 44.6 59.5 44.4 59.4 44.2C59.3 44 59.2 43.8 59.1 43.7C59 43.6 58.8 43.4 58.6 43.4C58.5 43.2 58.2 43.2 58 43.2Z" fill="#1B54F8" stroke="white" stroke-width="1.0489" stroke-miterlimit="10"></path><path d="M16.1 56.1H4.9V44.8C4.9 44.4 4.7 44 4.4 43.7C4.1 43.4 3.7 43.2 3.3 43.2C2.9 43.2 2.5 43.4 2.2 43.7C1.9 44 1.7 44.4 1.7 44.8V57.7C1.7 57.9 1.7 58.1 1.8 58.3C1.9 58.5 1.99999 58.7 2.09999 58.8C2.19999 58.9 2.39999 59.1 2.59999 59.1C2.79999 59.2 3 59.2 3.2 59.2H16.1C16.5 59.2 16.9 59 17.2 58.7C17.5 58.4 17.7 58 17.7 57.6C17.7 57.2 17.5 56.8 17.2 56.5C17 56.3 16.6 56.1 16.1 56.1Z" fill="#1B54F8" stroke="white" stroke-width="1.0489" stroke-miterlimit="10"></path></g></svg> 