<?xml version="1.0" encoding="UTF-8"?> <svg xmlns="http://www.w3.org/2000/svg" xmlns:xlink="http://www.w3.org/1999/xlink" width="90" height="90" viewBox="0 0 90 90"><defs><clipPath id="clip-path"><rect id="Rectangle_12" data-name="Rectangle 12" width="90" height="90" transform="translate(741 247)" fill="#fff" stroke="#707070" stroke-width="1"></rect></clipPath></defs><g id="Mask_Group_3" data-name="Mask Group 3" transform="translate(-741 -247)" clip-path="url(#clip-path)"><g id="Group_9" data-name="Group 9" transform="translate(473.421 -403.679)"><path id="Path_14" data-name="Path 14" d="M136.591,98.826a9.695,9.695,0,1,0,9.695,9.695A9.706,9.706,0,0,0,136.591,98.826Zm0,16.907a7.211,7.211,0,1,1,7.211-7.211A7.219,7.219,0,0,1,136.591,115.734Zm36.964-59.678c-7.61,0-13.8,5.789-13.8,12.9a11.148,11.148,0,0,0,2.033,6.616c1.319,2.207,2.684,4.489,2.684,10.117a1.325,1.325,0,0,0,.052.346,3.373,3.373,0,0,0,2.07,5.234,3.351,3.351,0,0,0-.161.977,3.388,3.388,0,0,0,3.383,3.385h2.406V114.14c0,.6-.357,1.07-.665,1.07h-21.89a14.563,14.563,0,0,0,1.13-2.937h2a1.339,1.339,0,0,0,1.337-1.337v-4.821a1.339,1.339,0,0,0-1.337-1.337h-2a14.6,14.6,0,0,0-1.513-3.645l1.412-1.412a1.339,1.339,0,0,0,0-1.895l-3.4-3.4a1.343,1.343,0,0,0-.946-.393h0a1.351,1.351,0,0,0-.946.387l-1.414,1.414a14.622,14.622,0,0,0-3.647-1.513v-2A1.339,1.339,0,0,0,139,90.981h-1.169V74.055c0-.6.357-1.07.665-1.07h8.271a1.242,1.242,0,1,0,0-2.485H138.5a3.373,3.373,0,0,0-3.148,3.553V90.98h-1.166a1.339,1.339,0,0,0-1.339,1.336v2a14.6,14.6,0,0,0-3.645,1.512l-1.407-1.406a1.4,1.4,0,0,0-1.9-.008l-3.408,3.407a1.355,1.355,0,0,0,0,1.891l1.414,1.414a14.581,14.581,0,0,0-1.512,3.646h-2a1.339,1.339,0,0,0-1.337,1.336v4.819a1.339,1.339,0,0,0,1.337,1.337h2a14.6,14.6,0,0,0,1.513,3.646l-1.414,1.414a1.345,1.345,0,0,0-.387.949,1.321,1.321,0,0,0,.387.942l3.416,3.416a1.347,1.347,0,0,0,1.882-.008l1.414-1.414a14.581,14.581,0,0,0,3.646,1.512v2a1.339,1.339,0,0,0,1.337,1.337H139a1.338,1.338,0,0,0,1.336-1.336v-2a14.592,14.592,0,0,0,3.646-1.513l1.416,1.416a1.355,1.355,0,0,0,1.891,0l3.412-3.411a1.336,1.336,0,0,0,.243-1.527h20.615a3.373,3.373,0,0,0,3.148-3.553V95.63h2.587a3.389,3.389,0,0,0,3.385-3.385,3.329,3.329,0,0,0-.161-.977,3.375,3.375,0,0,0,2.073-5.233,1.28,1.28,0,0,0,.053-.348c0-5.628,1.365-7.911,2.684-10.117a11.127,11.127,0,0,0,2.031-6.614c0-7.114-6.192-12.9-13.8-12.9Zm-27.211,64.006-1.284-1.283a1.244,1.244,0,0,0-1.506-.193l-.807.473a12.093,12.093,0,0,1-3.062,1.27l-.905.237a1.241,1.241,0,0,0-.928,1.2v1.813h-2.526v-1.811a1.243,1.243,0,0,0-.927-1.2l-.905-.237a12.1,12.1,0,0,1-3.06-1.269l-.807-.475a1.24,1.24,0,0,0-1.507.193l-1.282,1.283-1.785-1.786,1.283-1.282a1.241,1.241,0,0,0,.192-1.507l-.473-.806a12.138,12.138,0,0,1-1.27-3.062l-.237-.905a1.241,1.241,0,0,0-1.2-.928h-1.813V107.26h1.813a1.242,1.242,0,0,0,1.2-.927l.237-.906a12.124,12.124,0,0,1,1.27-3.062l.473-.807a1.242,1.242,0,0,0-.193-1.506l-1.282-1.282,1.786-1.785,1.283,1.282a1.239,1.239,0,0,0,1.5.193l.807-.473a12.081,12.081,0,0,1,3.062-1.27l.905-.237a1.242,1.242,0,0,0,.927-1.2V93.469h2.528v1.811a1.242,1.242,0,0,0,.927,1.2l.906.237a12.124,12.124,0,0,1,3.06,1.269l.807.475a1.241,1.241,0,0,0,1.507-.192l1.282-1.282,1.785,1.786-1.282,1.282a1.241,1.241,0,0,0-.193,1.5l.473.809a12.122,12.122,0,0,1,1.27,3.062l.237.905a1.24,1.24,0,0,0,1.2.927h1.813v2.525h-1.811a1.242,1.242,0,0,0-1.2.927l-.237.906a12.122,12.122,0,0,1-1.27,3.06l-.473.807a1.244,1.244,0,0,0,.192,1.507l.333.333.951.951Zm27.211-43.313a7.049,7.049,0,0,0,.848-.056v7.886h-1.694V76.692A7.153,7.153,0,0,0,173.554,76.748Zm3.738,16.4h-7.477a.9.9,0,0,1,0-1.8h7.477a.9.9,0,1,1,0,1.8Zm2.519-4.284H167.3a.9.9,0,0,1,0-1.8h12.513a.9.9,0,1,1,0,1.8ZM183.194,74.3a18.678,18.678,0,0,0-3.019,10.279h-3.291V75.892a7.03,7.03,0,0,0,2.737-2.629,1.242,1.242,0,0,0-2.144-1.252,4.543,4.543,0,0,1-7.847,0,1.242,1.242,0,0,0-2.144,1.252,7.03,7.03,0,0,0,2.737,2.63v8.685h-3.289A18.679,18.679,0,0,0,163.914,74.3a8.773,8.773,0,0,1-1.679-5.339c0-5.746,5.078-10.419,11.319-10.419s11.319,4.674,11.319,10.421a8.751,8.751,0,0,1-1.678,5.339ZM161.7,53.875a1.242,1.242,0,0,1,2.151-1.242l1.35,2.336a1.241,1.241,0,1,1-2.15,1.242Zm-7.707,6.6a1.24,1.24,0,0,1,1.7-.454l2.336,1.348a1.242,1.242,0,1,1-1.241,2.151l-2.336-1.348a1.242,1.242,0,0,1-.455-1.7Zm-2.92,11.267a1.242,1.242,0,0,1,1.242-1.242h2.7a1.242,1.242,0,1,1,0,2.485h-2.7A1.244,1.244,0,0,1,151.071,71.744Zm7.593,8.626a1.241,1.241,0,0,1-.454,1.7l-2.336,1.349a1.242,1.242,0,0,1-1.241-2.151l2.336-1.348a1.24,1.24,0,0,1,1.7.454Zm34.455,2.269a1.24,1.24,0,0,1-1.7.454l-2.336-1.35a1.242,1.242,0,1,1,1.242-2.151l2.336,1.35a1.241,1.241,0,0,1,.454,1.7Zm2.92-11.267a1.242,1.242,0,0,1-1.242,1.242h-2.7a1.242,1.242,0,1,1,0-2.485h2.7A1.242,1.242,0,0,1,196.039,71.371Zm-7.592-8.626a1.241,1.241,0,0,1,.455-1.7l2.336-1.348a1.242,1.242,0,1,1,1.242,2.151L190.143,63.2a1.241,1.241,0,0,1-1.7-.455Zm-6.856-7.961,1.348-2.336a1.242,1.242,0,1,1,2.151,1.242l-1.348,2.336a1.242,1.242,0,0,1-2.151-1.242Zm-9.462-1.771v-2.7a1.242,1.242,0,1,1,2.485,0v2.7a1.242,1.242,0,1,1-2.485,0Z" transform="translate(154.531 608.606)" fill="#1b54f8"></path></g></g></svg> 