<?xml version="1.0" encoding="UTF-8"?> <!-- Generator: Adobe Illustrator 25.2.2, SVG Export Plug-In . SVG Version: 6.00 Build 0) --> <svg xmlns="http://www.w3.org/2000/svg" xmlns:xlink="http://www.w3.org/1999/xlink" version="1.1" id="Layer_1" x="0px" y="0px" viewBox="0 0 80 80" style="enable-background:new 0 0 80 80;" xml:space="preserve"> <style type="text/css"> .st0{fill:#1B54F8;} </style> <path class="st0" d="M58.8,40c0-1.5-0.2-3-0.5-4.4l5.6-3.2l-5.3-9.2L53,26.4c-2.2-2.1-4.8-3.6-7.7-4.4v-5.3H34.7v5.3 c-2.9,0.8-5.5,2.4-7.7,4.4l-5.5-3.2l-5.3,9.2l5.6,3.2c-0.4,1.5-0.5,2.9-0.6,4.4c0,1.5,0.2,3,0.5,4.4l-5.6,3.2l5.3,9.2l5.6-3.2 c2.2,2.1,4.8,3.6,7.7,4.4v5.3h10.6v-5.3c2.9-0.8,5.5-2.4,7.7-4.4l5.5,3.2l5.3-9.2l-5.6-3.2C58.7,43,58.8,41.5,58.8,40z M61.7,48.2 L58,54.7l-5.2-3l-0.4,0.4c-2.2,2.2-5,3.8-8,4.6l-0.6,0.2v4.9h-7.5v-4.9l-0.6-0.2c-3-0.8-5.8-2.4-8-4.6l-0.4-0.4l-5.2,3l-3.7-6.5 l5.2-3l-0.2-0.6c-0.9-3-0.9-6.2,0-9.2l0.2-0.6l-5.2-3l3.7-6.5l5.2,3l0.4-0.4c2.2-2.2,5-3.8,8-4.6l0.6-0.2v-4.9h7.4v4.9l0.6,0.2 c3,0.8,5.8,2.4,8,4.6l0.4,0.4l5.2-3l3.7,6.5l-5.2,3l0.2,0.6c0.9,3,0.9,6.2,0,9.2l-0.2,0.6L61.7,48.2z"></path> <path class="st0" d="M40,24.5c-8.5,0-15.5,6.9-15.5,15.5S31.5,55.5,40,55.5S55.5,48.5,55.5,40l0,0C55.5,31.5,48.5,24.5,40,24.5z M40,53.9c-7.7,0-13.9-6.2-13.9-13.9S32.3,26.1,40,26.1S53.9,32.3,53.9,40C53.9,47.7,47.7,53.9,40,53.9z"></path> <path class="st0" d="M42.8,40c0-1.1-0.7-2.1-1.7-2.6v-8.7h-2.3v8.7c-1.4,0.6-2.1,2.3-1.5,3.7c0.6,1.4,2.3,2.1,3.7,1.5 c0.2-0.1,0.4-0.2,0.6-0.4l5.7,3.2l1.1-2l-5.7-3.2C42.8,40.2,42.8,40.1,42.8,40z"></path> <path class="st0" d="M40,10.6c6.8,0,13.4,2.4,18.6,6.8h-2.8v2.3h6.8v-6.8h-2.3V16C47.9,5.2,29.2,6,17.8,17.8l1.6,1.6 C24.8,13.8,32.2,10.7,40,10.6z"></path> <path class="st0" d="M40,69.3c-6.8,0-13.4-2.4-18.6-6.8h2.8v-2.3h-6.8v6.8h2.3V64c12.4,10.8,31.1,10,42.6-1.8l-1.6-1.6 C55.2,66.2,47.8,69.3,40,69.3z"></path> </svg> 