<?xml version="1.0" encoding="UTF-8"?> <svg xmlns="http://www.w3.org/2000/svg" xmlns:xlink="http://www.w3.org/1999/xlink" width="90" height="90" viewBox="0 0 90 90"><defs><clipPath id="clip-path"><rect id="Rectangle_13" data-name="Rectangle 13" width="90" height="90" transform="translate(491 589)" fill="#fff" stroke="#707070" stroke-width="1"></rect></clipPath></defs><g id="Mask_Group_8" data-name="Mask Group 8" transform="translate(-491 -589)" clip-path="url(#clip-path)"><g id="Group_244" data-name="Group 244" transform="translate(-90.114 18)"><path id="Path_325" data-name="Path 325" d="M162.672,53.747a1.114,1.114,0,0,1,0,2.229h-6.194a1.114,1.114,0,0,1,0-2.229Zm0,7.243a1.114,1.114,0,0,1,0,2.229h-7.7a1.114,1.114,0,1,1,0-2.229Zm-42.867-5.014a1.114,1.114,0,0,1,0-2.229H126a1.114,1.114,0,0,1,0,2.229Zm0,7.243a1.114,1.114,0,0,1,0-2.229h7.7a1.114,1.114,0,0,1,0,2.229Zm31.512-21.254a4.09,4.09,0,0,1,1.9,2.8,7.43,7.43,0,0,1,.213,1.8,7.337,7.337,0,0,1-.213,1.8c-.426,1.737-1.459,3.1-3.163,3.1h-.525L148.2,55.091a6.687,6.687,0,0,1-1.491,2.458,3.385,3.385,0,0,1-2.392,1.032H142.5V71a.687.687,0,0,1,.115-.082,6.346,6.346,0,0,1,3.638-1.229h22.384V37.753H154.151c-.9,1.458-1.884,2.867-2.835,4.211Zm-4.162,9.52-1.049,2.851a4.365,4.365,0,0,1-.95,1.639,1.2,1.2,0,0,1-.836.393h-5.145a1.173,1.173,0,0,1-.836-.393,4.235,4.235,0,0,1-.95-1.639l-1.049-2.851Zm-13.207,0h-.525c-1.7,0-2.736-1.36-3.163-3.1a7.429,7.429,0,0,1-.213-1.8,7.337,7.337,0,0,1,.213-1.8,4.01,4.01,0,0,1,1.95-2.819c-.967-1.36-1.95-2.753-2.819-4.195H114.12V69.707H136.5a6.346,6.346,0,0,1,3.638,1.229.688.688,0,0,0,.115.082V58.6h-1.081a3.416,3.416,0,0,1-2.392-1.032,6.391,6.391,0,0,1-1.491-2.458Zm16.107-7.57c.475,0,.8.606,1,1.376a5.756,5.756,0,0,1,0,2.589c-.18.77-.525,1.376-1,1.376H133.438c-.475,0-.8-.606-1-1.376a5.756,5.756,0,0,1,0-2.589c.18-.77.525-1.376,1-1.376Zm-9.8-42.8a1.114,1.114,0,1,1,2.229,0V6.7a1.114,1.114,0,1,1-2.229,0ZM115.332,28.265a1.114,1.114,0,1,1,0-2.229h5.588a1.114,1.114,0,1,1,0,2.229Zm6.833-18.731a1.1,1.1,0,0,1,0-1.573,1.113,1.113,0,0,1,1.573,0l3.949,3.949a1.113,1.113,0,0,1-1.573,1.573Zm45.243,16.5a1.114,1.114,0,0,1,0,2.229H161.82a1.114,1.114,0,1,1,0-2.229ZM159,7.946a1.113,1.113,0,0,1,1.573,1.573l-3.949,3.949a1.113,1.113,0,0,1-1.573-1.573Zm-17.256,5.129a15.386,15.386,0,0,0-15.4,15.4,15.933,15.933,0,0,0,1.8,7.046H113a1.105,1.105,0,0,0-1.114,1.114v2.884h-5.162a1.105,1.105,0,0,0-1.114,1.114V77.1a1.105,1.105,0,0,0,1.114,1.114h24.646c.311,0,.574.59.836,1.2.574,1.262,1.13,2.523,2.868,2.523H147.63c1.737,0,2.311-1.262,2.868-2.523.262-.59.541-1.2.836-1.2h24.646a1.105,1.105,0,0,0,1.114-1.114V40.637a1.105,1.105,0,0,0-1.114-1.114h-5.162V36.639a1.105,1.105,0,0,0-1.114-1.114H155.315a16.046,16.046,0,0,0,1.8-7.046,15.386,15.386,0,0,0-15.37-15.4Zm9.308,6.08a13.128,13.128,0,0,1,3.851,9.308c0,4.522-2.9,8.636-5.555,12.4-.164.246-.344.492-.574.8h-14.06c-.2-.278-.442-.623-.688-.967-1.049-1.475-2.114-2.982-3.031-4.556a.359.359,0,0,0-.082-.131,15.26,15.26,0,0,1-2.36-7.538,13.2,13.2,0,0,1,22.5-9.324Zm19.8,22.6v29.07a1.105,1.105,0,0,1-1.114,1.114H146.22a4.033,4.033,0,0,0-2.327.8,4.26,4.26,0,0,0-1.278,1.508c-.344.7-.77,1.032-1.262,1.032-.361,0-.786-.017-1.213-.934a4.148,4.148,0,0,0-1.327-1.606,4.036,4.036,0,0,0-2.327-.8H113a1.105,1.105,0,0,1-1.114-1.114V41.752h-4.048V75.984h23.531c1.737,0,2.311,1.262,2.868,2.523.262.59.541,1.2.836,1.2h12.552c.311,0,.574-.59.836-1.2.574-1.262,1.13-2.523,2.868-2.523h23.531V41.752Z" transform="translate(484.5 575.001)" fill="#1b54f8" fill-rule="evenodd"></path></g></g></svg> 