<?xml version="1.0" encoding="UTF-8"?> <!-- Generator: Adobe Illustrator 25.2.2, SVG Export Plug-In . SVG Version: 6.00 Build 0) --> <svg xmlns="http://www.w3.org/2000/svg" xmlns:xlink="http://www.w3.org/1999/xlink" version="1.1" id="Layer_1" x="0px" y="0px" viewBox="0 0 80 80" style="enable-background:new 0 0 80 80;" xml:space="preserve"> <style type="text/css"> .st0{fill:#1B54F8;} </style> <path class="st0" d="M27.1,53.8c-2.8,0-5,2.2-5,5s2.2,5,5,5s5-2.2,5-5S29.8,53.8,27.1,53.8z M27.1,61.8c-1.7,0-3-1.3-3-3s1.3-3,3-3 s3,1.3,3,3C30,60.4,28.7,61.7,27.1,61.8L27.1,61.8z"></path> <path class="st0" d="M37,61.7c0.6,0,1-0.4,1-1v-4c0-0.6-0.4-1-1-1h-1.5c-0.1-0.3-0.2-0.6-0.3-0.8l1.1-1.1c0.4-0.4,0.4-1,0-1.4 l-2.8-2.8c-0.4-0.4-1-0.4-1.4,0l-1.1,1c-0.3-0.1-0.5-0.2-0.8-0.3v-1.5c0-0.6-0.4-1-1-1h-4c-0.6,0-1,0.4-1,1v1.5 c-0.3,0.1-0.5,0.2-0.8,0.3l-1.1-1.1c-0.4-0.4-1-0.4-1.4,0l-2.8,2.8c-0.4,0.4-0.4,1,0,1.4l1,1.1c-0.1,0.3-0.2,0.5-0.3,0.8h-1.5 c-0.6,0-1,0.4-1,1v4c0,0.6,0.4,1,1,1l1.5,0c0.1,0.3,0.2,0.6,0.3,0.8l-1.1,1.1c-0.4,0.4-0.4,1,0,1.4l2.8,2.8c0.4,0.4,1,0.4,1.4,0 l1.1-1c0.2,0.1,0.5,0.2,0.8,0.3v1.5c0,0.6,0.4,1,1,1h4c0.6,0,1-0.4,1-1v-1.5c0.3-0.1,0.5-0.2,0.8-0.3l1.1,1c0.4,0.4,1,0.4,1.4,0 l2.8-2.8c0.4-0.4,0.4-1,0-1.4l-1-1.1c0.1-0.3,0.2-0.5,0.3-0.8L37,61.7z M33.7,64l0.4,0.4l-1.4,1.4l-0.4-0.4 c-0.6-0.6-1.5-0.8-2.3-0.4c-0.2,0.1-0.4,0.2-0.6,0.3c-0.8,0.3-1.4,1-1.4,1.9v0.5h-2v-0.5c0-0.9-0.6-1.6-1.4-1.9 c-0.2-0.1-0.4-0.2-0.6-0.3c-0.8-0.4-1.7-0.2-2.3,0.4l-0.4,0.4L20,64.4l0.4-0.4c0.6-0.6,0.8-1.5,0.4-2.3c-0.1-0.2-0.2-0.4-0.2-0.6 c-0.3-0.8-1-1.4-1.9-1.4h-0.5v-2h0.5c0.9,0,1.6-0.5,1.9-1.4c0.1-0.2,0.2-0.4,0.2-0.6c0.4-0.8,0.2-1.7-0.4-2.3L20,53.1l1.4-1.4 l0.4,0.4c0.6,0.6,1.5,0.8,2.3,0.4l0.6-0.2c0.8-0.3,1.4-1,1.4-1.9v-0.5h2v0.5c0,0.9,0.6,1.6,1.4,1.9l0.6,0.2c0.8,0.4,1.7,0.2,2.3-0.4 l0.4-0.4l1.4,1.4l-0.4,0.4c-0.6,0.6-0.7,1.5-0.4,2.3c0.1,0.2,0.2,0.4,0.2,0.6c0.3,0.8,1,1.4,1.9,1.4H36v2h-0.5 c-0.9,0-1.6,0.5-1.9,1.4c-0.1,0.2-0.2,0.4-0.2,0.6C33,62.5,33.1,63.4,33.7,64z"></path> <path class="st0" d="M54.9,46.8c-4.4,0-8,3.6-8,8s3.6,8,8,8s8-3.6,8-8S59.3,46.8,54.9,46.8z M54.9,60.7c-3.3,0-6-2.7-6-6s2.7-6,6-6 s6,2.7,6,6S58.2,60.7,54.9,60.7z"></path> <path class="st0" d="M68.8,50.8h-1.6c-0.2-0.6-0.5-1.3-0.8-1.9l1.2-1.2c0.4-0.4,0.4-1,0-1.4l-4.2-4.2c-0.4-0.4-1-0.4-1.4,0l-1.2,1.2 c-0.6-0.3-1.2-0.6-1.9-0.8v-1.7c0-0.6-0.4-1-1-1h-6c-0.6,0-1,0.4-1,1v1.6c-0.6,0.2-1.3,0.5-1.9,0.8l-1.2-1.2c-0.4-0.4-1-0.4-1.4,0 l-4.2,4.2c-0.4,0.4-0.4,1,0,1.4l1.1,1.2c-0.3,0.6-0.6,1.2-0.8,1.9H41c-0.6,0-1,0.4-1,1v6c0,0.6,0.4,1,1,1h1.6 c0.2,0.6,0.5,1.3,0.8,1.9l-1.2,1.2c-0.4,0.4-0.4,1,0,1.4l4.2,4.2c0.4,0.4,1,0.4,1.4,0l1.2-1.1c0.6,0.3,1.2,0.6,1.9,0.8v1.6 c0,0.6,0.4,1,1,1h6c0.6,0,1-0.4,1-1v-1.6c0.6-0.2,1.3-0.5,1.9-0.8l1.2,1.1c0.4,0.4,1,0.4,1.4,0l4.2-4.2c0.4-0.4,0.4-1,0-1.4 l-1.1-1.2c0.3-0.6,0.6-1.2,0.8-1.9h1.6c0.6,0,1-0.4,1-1v-6C69.9,51.2,69.4,50.8,68.8,50.8C68.9,50.8,68.9,50.8,68.8,50.8z M67.8,56.8h-0.6c-0.9,0-1.6,0.6-1.9,1.4c-0.2,0.5-0.4,1.1-0.7,1.6c-0.4,0.8-0.2,1.7,0.3,2.3l0.4,0.5l-2.8,2.8l-0.5-0.4 c-0.6-0.6-1.6-0.8-2.3-0.3c-0.5,0.3-1,0.5-1.6,0.6c-0.8,0.3-1.4,1-1.4,1.9v0.6h-4V67c0-0.9-0.6-1.6-1.4-1.9c-0.5-0.2-1-0.4-1.5-0.6 c-0.8-0.4-1.7-0.3-2.3,0.3l-0.5,0.4l-2.8-2.8l0.5-0.5c0.6-0.6,0.8-1.6,0.4-2.3c-0.3-0.5-0.5-1-0.7-1.6c-0.3-0.8-1-1.4-1.9-1.4H42v-4 h0.6c0.9,0,1.6-0.6,1.9-1.4c0.2-0.5,0.4-1.1,0.7-1.6c0.4-0.8,0.3-1.7-0.4-2.3L44.4,47l2.8-2.8l0.5,0.5c0.6,0.6,1.6,0.8,2.4,0.4 c0.5-0.3,1-0.5,1.6-0.6c0.8-0.3,1.4-1,1.4-1.9v-0.7h4v0.7c0,0.9,0.6,1.6,1.4,1.9c0.5,0.2,1.1,0.4,1.6,0.6c0.8,0.4,1.7,0.3,2.3-0.3 l0.5-0.5l2.8,2.8L65,47.5c-0.6,0.6-0.8,1.6-0.3,2.3c0.3,0.5,0.5,1,0.7,1.6c0.3,0.8,1,1.4,1.9,1.4h0.6L67.8,56.8z"></path> <path class="st0" d="M22.1,34.9v10.9h2v-10h3c0.6,0,1-0.5,1-1c0-0.2-0.1-0.5-0.2-0.6l-8-9c-0.4-0.4-1-0.4-1.4-0.1 c0,0-0.1,0.1-0.1,0.1l-8,9c-0.4,0.4-0.3,1.1,0.1,1.4c0.2,0.2,0.4,0.2,0.6,0.2h3v14.9h2V34.9c0-0.6-0.4-1-1-1h-1.7l5.8-6.5l5.7,6.5 h-1.8C22.5,33.9,22.1,34.3,22.1,34.9z"></path> <path class="st0" d="M43,26.9v13.9h2V27.9h3c0.6,0,1-0.5,1-1c0-0.2-0.1-0.5-0.2-0.6l-8-9c-0.4-0.4-1-0.4-1.4-0.1c0,0,0,0-0.1,0.1 l-8,9c-0.4,0.4-0.3,1.1,0.1,1.4c0.2,0.2,0.4,0.2,0.6,0.2h3v19.9h2V26.9c0-0.6-0.4-1-1-1h-1.7l5.7-6.5l5.7,6.5H44 C43.4,25.9,43,26.3,43,26.9z"></path> <path class="st0" d="M63.9,19.9v15.9h2V20.9h3c0.4,0,0.7-0.2,0.9-0.6c0.2-0.4,0.1-0.8-0.2-1.1l-8-8.9c-0.4-0.4-1-0.4-1.4-0.1 c0,0-0.1,0.1-0.1,0.1l-8,9c-0.2,0.3-0.3,0.7-0.1,1c0.2,0.4,0.5,0.6,0.9,0.6h3v16.9h2V19.9c0-0.6-0.4-1-1-1h-1.8l5.7-6.5l5.8,6.5 h-1.8C64.3,18.9,63.9,19.4,63.9,19.9z"></path> </svg> 