<?xml version="1.0" encoding="UTF-8"?> <svg xmlns="http://www.w3.org/2000/svg" xmlns:xlink="http://www.w3.org/1999/xlink" width="60" height="60" viewBox="0 0 60 60"><defs><clipPath id="clip-path"><rect id="Rectangle_870" data-name="Rectangle 870" width="60" height="60" transform="translate(1221 45)" fill="#fff" stroke="#707070" stroke-width="1"></rect></clipPath></defs><g id="Mask_Group_99" data-name="Mask Group 99" transform="translate(-1221 -45)" clip-path="url(#clip-path)"><g id="Group_166" data-name="Group 166" transform="translate(-1189.904 -1399)"><g id="Group_165" data-name="Group 165" transform="translate(2416.904 1450)"><path id="Path_237" data-name="Path 237" d="M30.309,5.963a1.113,1.113,0,0,0-.991,1.13V10.83A19.685,19.685,0,0,0,10.807,29.342H7.07q-.052,0-.1,0a1.114,1.114,0,1,0,.1,2.225h3.737A19.685,19.685,0,0,0,29.318,50.078v3.737a1.112,1.112,0,1,0,2.225,0V50.078A19.685,19.685,0,0,0,50.055,31.567h3.737a1.112,1.112,0,1,0,0-2.225H50.055A19.685,19.685,0,0,0,31.543,10.83V7.093a1.113,1.113,0,0,0-1.234-1.13Zm.122,7.057A17.434,17.434,0,1,1,13,30.454,17.422,17.422,0,0,1,30.431,13.02Zm-.122,10.742a1.113,1.113,0,0,0-.991,1.13v4.45h-4.45q-.052,0-.1,0a1.114,1.114,0,1,0,.1,2.225h4.45v4.45a1.112,1.112,0,1,0,2.225,0v-4.45h4.45a1.112,1.112,0,1,0,0-2.225h-4.45v-4.45a1.113,1.113,0,0,0-1.234-1.13Z" transform="translate(-5.904 -5.957)" fill="#1c54f8" stroke="#fff" stroke-width="1"></path></g></g></g></svg> 