<?xml version="1.0" encoding="UTF-8"?> <svg xmlns="http://www.w3.org/2000/svg" xmlns:xlink="http://www.w3.org/1999/xlink" width="90" height="90" viewBox="0 0 90 90"><defs><clipPath id="clip-path"><rect id="Rectangle_13" data-name="Rectangle 13" width="90" height="90" transform="translate(752 328)" fill="#fff" stroke="#707070" stroke-width="1"></rect></clipPath></defs><g id="Mask_Group_10" data-name="Mask Group 10" transform="translate(-752 -328)" clip-path="url(#clip-path)"><g id="Group_10" data-name="Group 10" transform="translate(-25 -159.915)"><path id="Path_12" data-name="Path 12" d="M69.585,25.305h-5.27a1.165,1.165,0,0,1-1.071-.761c-.1-.249-.205-.5-.313-.743l-.089-.205a1.118,1.118,0,0,1,.262-1.244l3.715-3.73a2.333,2.333,0,0,0,0-3.292L58.585,7.1a2.335,2.335,0,0,0-3.292,0l-3.738,3.723a1.113,1.113,0,0,1-1.233.255c-.552-.247-1.126-.477-1.712-.684V4.331A2.333,2.333,0,0,0,46.28,2H34.627A2.333,2.333,0,0,0,32.3,4.331V10.39c-.586.207-1.158.437-1.709.683a1.119,1.119,0,0,1-1.244-.262L25.613,7.1a2.333,2.333,0,0,0-3.292,0l-8.23,8.23a2.333,2.333,0,0,0,0,3.292l3.723,3.738a1.116,1.116,0,0,1,.248,1.249l-.083.192c-.107.248-.213.493-.312.742a1.165,1.165,0,0,1-1.071.762h-5.27a2.333,2.333,0,0,0-2.331,2.331V39.288a1.166,1.166,0,0,0,1.165,1.165h.608a10.469,10.469,0,0,0,2.887,14.54v2.939h-3.5A8.166,8.166,0,0,0,2,66.089V70.75a1.166,1.166,0,0,0,1.165,1.165H35.792a1.166,1.166,0,0,0,1.165-1.165V66.089a8.187,8.187,0,0,0-.093-1.165H46.28a2.333,2.333,0,0,0,2.331-2.331v-5.27a1.165,1.165,0,0,1,.761-1.071c.249-.1.5-.205.743-.313l.205-.089a1.114,1.114,0,0,1,1.244.262l3.73,3.715a2.333,2.333,0,0,0,3.292,0l8.23-8.23a2.333,2.333,0,0,0,0-3.292L63.1,44.563a1.116,1.116,0,0,1-.248-1.249l.083-.192c.107-.248.213-.493.312-.742a1.165,1.165,0,0,1,1.071-.761h5.27a2.333,2.333,0,0,0,2.331-2.331V27.636A2.333,2.333,0,0,0,69.585,25.305Zm-46.61,8.157a17.5,17.5,0,1,1,6.932,13.926A10.463,10.463,0,0,0,23.26,36.509,17.594,17.594,0,0,1,22.975,33.462ZM27.2,43.681a7.168,7.168,0,0,1-6.888-1.835,1.2,1.2,0,0,0-1.674,0,6.941,6.941,0,0,1-6.888,1.835,8.147,8.147,0,0,1,15.45,0Zm-15.881,2.6c0-.1.012-.207.016-.311a9.54,9.54,0,0,0,8.14-1.74,9.238,9.238,0,0,0,8.142,1.75c0,.1.015.2.015.3a8.157,8.157,0,0,1-16.314,0ZM32.3,58.73a8.084,8.084,0,0,0-3.5-.8H27.517L29.352,56.1a1.118,1.118,0,0,1,1.25-.247l.225.1c.259.112.514.221.781.326a1.125,1.125,0,0,1,.689,1.058ZM19.479,56.767a10.413,10.413,0,0,0,3.5-.612v2.46l-3.5,3.5-3.5-3.5v-2.46A10.413,10.413,0,0,0,19.479,56.767ZM34.627,69.585H4.331v-3.5a5.833,5.833,0,0,1,5.826-5.826h4.179l4.32,4.32a1.164,1.164,0,0,0,1.648,0l4.32-4.32H28.8a5.833,5.833,0,0,1,5.826,5.826Zm34.958-30.3h-5.27a3.485,3.485,0,0,0-3.236,2.229c-.091.23-.188.453-.287.681l-.079.183a3.446,3.446,0,0,0,.74,3.836l3.715,3.73-8.23,8.23L53.216,54.47a3.445,3.445,0,0,0-3.831-.754l-.2.085c-.227.1-.451.195-.681.287a3.482,3.482,0,0,0-2.229,3.235v5.27H36.159a8.224,8.224,0,0,0-1.532-2.2V57.338a3.466,3.466,0,0,0-2.172-3.229c-.238-.093-.468-.193-.7-.295l-.217-.093a3.448,3.448,0,0,0-3.836.74l-2.393,2.385V54.993a10.534,10.534,0,0,0,4.02-5.14,19.812,19.812,0,1,0-8.681-16.392,20.237,20.237,0,0,0,.161,2.424,10.587,10.587,0,0,0-1.326-.093A10.435,10.435,0,0,0,12.9,38.123h-1.58V27.636h5.27a3.485,3.485,0,0,0,3.236-2.229c.091-.23.188-.453.287-.681l.079-.183a3.446,3.446,0,0,0-.74-3.836l-3.715-3.73,8.23-8.23,3.721,3.707a3.452,3.452,0,0,0,3.848.748,20.868,20.868,0,0,1,2.273-.861,1.166,1.166,0,0,0,.816-1.112v-6.9H46.28v6.9A1.164,1.164,0,0,0,47.1,12.34a20.617,20.617,0,0,1,2.276.862,3.451,3.451,0,0,0,3.836-.74l3.73-3.715,8.23,8.23L61.461,20.7a3.445,3.445,0,0,0-.754,3.831l.085.2c.1.227.195.451.287.681a3.485,3.485,0,0,0,3.236,2.229h5.27Z" transform="translate(785 495)" fill="#1c54f8" stroke="#fff" stroke-width="0.6"></path><path id="Path_13" data-name="Path 13" d="M27.5,32.992A3.5,3.5,0,1,0,24,29.5,3.5,3.5,0,0,0,27.5,32.992Zm0-4.661A1.165,1.165,0,1,1,26.331,29.5,1.167,1.167,0,0,1,27.5,28.331Z" transform="translate(788.636 498.966)" fill="#1c54f8" stroke="#fff" stroke-width="0.6"></path><path id="Path_14" data-name="Path 14" d="M35.5,32.992A3.5,3.5,0,1,0,32,29.5,3.5,3.5,0,0,0,35.5,32.992Zm0-4.661A1.165,1.165,0,1,1,34.331,29.5,1.167,1.167,0,0,1,35.5,28.331Z" transform="translate(789.958 498.966)" fill="#1c54f8" stroke="#fff" stroke-width="0.6"></path><path id="Path_15" data-name="Path 15" d="M43.5,32.992A3.5,3.5,0,1,0,40,29.5,3.5,3.5,0,0,0,43.5,32.992Zm0-4.661A1.165,1.165,0,1,1,42.331,29.5,1.167,1.167,0,0,1,43.5,28.331Z" transform="translate(791.28 498.966)" fill="#1c54f8" stroke="#fff" stroke-width="0.6"></path></g></g></svg> 