<?xml version="1.0" encoding="UTF-8"?> <svg xmlns="http://www.w3.org/2000/svg" width="61" height="61" viewBox="0 0 61 61" fill="none"><mask id="mask0_1_80" style="mask-type:luminance" maskUnits="userSpaceOnUse" x="0" y="0" width="61" height="61"><path d="M60.2 0.699997H0.199997V60.7H60.2V0.699997Z" fill="white"></path></mask><g mask="url(#mask0_1_80)"><path d="M3.39999 27.3C3.19999 26.8 3.5 26.2 4 26.1C19.2 20.8 32.8 13.3 44.5 3.89999H41.5C41 3.89999 40.5 3.49999 40.5 2.89999C40.5 2.29999 40.9 1.89999 41.5 1.89999H47.2C47.5 1.89999 47.8 2 47.9 2.3C48.1 2.5 48.2 2.80001 48.1 3.10001L47 8.7C46.9 9.2 46.5 9.5 46.1 9.5C46 9.5 46 9.5 45.9 9.5C45.4 9.4 45 8.89999 45.1 8.39999L45.7 5.5C33.9 15.1 20.1 22.6 4.60001 28C4.50001 28 4.4 28.1 4.3 28.1C3.9 27.9 3.59999 27.7 3.39999 27.3ZM60.2 41.8V46C60.2 46.4 60 46.8 59.6 46.9L57.5 47.7C57.2 48.8 56.7 49.9 56.2 50.9L57.1 53C57.3 53.4 57.2 53.8 56.9 54.1L53.9 57.1C53.6 57.4 53.2 57.5 52.8 57.3L50.7 56.4C49.7 57 48.6 57.4 47.5 57.7L46.7 59.8C46.6 60.2 46.2 60.4 45.8 60.4H41.6C41.2 60.4 40.8 60.2 40.7 59.8L39.9 57.7C38.8 57.4 37.7 56.9 36.7 56.4L34.6 57.3C34.2 57.5 33.8 57.4 33.5 57.1L30.5 54.1C30.2 53.8 30.1 53.4 30.3 53L31.2 50.9C30.7 50.1 30.3 49.2 30 48.2H25.1H18H1.10001C0.600006 48.2 0.100006 47.8 0.100006 47.2C0.100006 46.7 0.500006 46.2 1.10001 46.2H3.89999V33.6C3.89999 33.1 4.29999 32.6 4.89999 32.6H12C12.5 32.6 13 33 13 33.6V46.2H17.1V26.5C17.1 26 17.5 25.5 18.1 25.5H25.2C25.7 25.5 26.2 25.9 26.2 26.5V46.2H27.3C27.3 46.1 27.2 46 27.2 45.9V41.7C27.2 41.3 27.4 40.9 27.8 40.8L29.9 40C30.2 38.9 30.7 37.8 31.2 36.8L30.3 34.7C30.2 34.5 30.2 34.2 30.3 34V19.1C30.3 18.6 30.7 18.1 31.3 18.1H38.4C38.9 18.1 39.4 18.5 39.4 19.1V30.3C39.6 30.2 39.7 30.2 39.9 30.2L40.7 28.1C40.8 27.7 41.2 27.5 41.6 27.5H43.5V12.5C43.5 12 43.9 11.5 44.5 11.5H51.6C52.1 11.5 52.6 11.9 52.6 12.5V30.7L52.8 30.6C53.2 30.4 53.6 30.5 53.9 30.8L56.9 33.8C57.2 34.1 57.3 34.5 57.1 34.9L56.2 37C56.8 38 57.2 39.1 57.5 40.2L59.6 41C60 41 60.2 41.4 60.2 41.8ZM45.5 27.4H45.8C46.2 27.4 46.6 27.6 46.7 28L47.5 30.1C48.6 30.4 49.6 30.8 50.6 31.4V13.4H45.4L45.5 27.4ZM32.4 20.1V32L33.6 30.8C33.9 30.5 34.3 30.4 34.7 30.6L36.8 31.5C37.1 31.4 37.3 31.2 37.6 31.1V20.1H32.4ZM19.2 46.3H24.4V27.5H19.2V46.3ZM6.10001 46.3H11.3V34.6H6.10001V46.3ZM58.3 42.5L56.4 41.8C56.1 41.7 55.9 41.4 55.8 41.1C55.5 39.8 55 38.6 54.3 37.5C54.1 37.2 54.1 36.9 54.2 36.6L55 34.7L53 32.7L51.1 33.5C50.8 33.6 50.5 33.6 50.2 33.4C49.1 32.7 47.9 32.2 46.6 31.9C46.3 31.8 46 31.6 45.9 31.3L45.2 29.4H42.3L41.6 31.3C41.5 31.6 41.2 31.8 40.9 31.9C39.6 32.2 38.4 32.7 37.3 33.4C37 33.6 36.7 33.6 36.4 33.5L34.5 32.7L32.5 34.7L33.3 36.6C33.4 36.9 33.4 37.2 33.2 37.5C32.5 38.6 32 39.8 31.7 41.1C31.6 41.4 31.4 41.7 31.1 41.8L29.2 42.5V45.4L31.1 46.1C31.4 46.2 31.6 46.5 31.7 46.8C32 48.1 32.5 49.3 33.2 50.4C33.4 50.7 33.4 51 33.3 51.3L32.5 53.2L34.5 55.2L36.4 54.4C36.7 54.3 37 54.3 37.3 54.5C38.4 55.2 39.6 55.7 40.9 56C41.2 56.1 41.5 56.3 41.6 56.6L42.3 58.5H45.2L45.9 56.6C46 56.3 46.3 56.1 46.6 56C47.9 55.7 49.1 55.2 50.2 54.5C50.5 54.3 50.8 54.3 51.1 54.4L53 55.2L55 53.2L54.2 51.3C54.1 51 54.1 50.7 54.3 50.4C55 49.3 55.5 48.1 55.8 46.8C55.9 46.5 56.1 46.2 56.4 46.1L58.3 45.4V42.5ZM53.2 43.9C53.2 49.1 49 53.3 43.8 53.3C38.6 53.3 34.4 49.1 34.4 43.9C34.4 38.7 38.6 34.5 43.8 34.5C48.9 34.5 53.2 38.7 53.2 43.9ZM51.2 43.9C51.2 39.8 47.9 36.4 43.7 36.4C39.5 36.4 36.2 39.7 36.2 43.9C36.2 48 39.5 51.4 43.7 51.4C47.9 51.4 51.2 48 51.2 43.9ZM47.4 42.9H44.8V39.8C44.8 39.3 44.4 38.8 43.8 38.8C43.3 38.8 42.8 39.2 42.8 39.8V43.8C42.8 44.3 43.2 44.8 43.8 44.8H47.4C47.9 44.8 48.4 44.4 48.4 43.8C48.3 43.4 47.9 42.9 47.4 42.9Z" fill="#1B54F8" stroke="white" stroke-width="0.25" stroke-miterlimit="10"></path></g></svg> 