<?xml version="1.0" encoding="UTF-8"?> <svg xmlns="http://www.w3.org/2000/svg" xmlns:xlink="http://www.w3.org/1999/xlink" width="90" height="90" viewBox="0 0 90 90"><defs><clipPath id="clip-path"><rect id="Rectangle_18" data-name="Rectangle 18" width="90" height="90" transform="translate(206 824)" fill="#fff" stroke="#707070" stroke-width="1"></rect></clipPath></defs><g id="Mask_Group_18" data-name="Mask Group 18" transform="translate(-206 -824)" clip-path="url(#clip-path)"><g id="Group_250" data-name="Group 250" transform="translate(-277.286 -305.898)"><path id="Path_350" data-name="Path 350" d="M218.082,210.135l-3.681-1.472h0a23.487,23.487,0,0,0-2.128-5.136l1.56-3.648h0a2.969,2.969,0,0,0-.426-3.089c-.5-.6-1.056-1.2-1.644-1.793s-1.191-1.134-1.795-1.646h0a2.977,2.977,0,0,0-3.086-.426l-3.65,1.56a23.484,23.484,0,0,0-5.136-2.128l-1.472-3.688a2.969,2.969,0,0,0-2.489-1.877,28.665,28.665,0,0,0-4.863,0,2.971,2.971,0,0,0-2.5,1.88l-1.472,3.688a23.511,23.511,0,0,0-5.136,2.128l-3.653-1.56h0a2.962,2.962,0,0,0-3.083.434c-.6.5-1.206,1.056-1.795,1.646s-1.145,1.194-1.646,1.795h0a2.969,2.969,0,0,0-.425,3.085l1.56,3.651A23.483,23.483,0,0,0,169,208.674l-3.688,1.472a2.966,2.966,0,0,0-1.875,2.488c-.072.772-.108,1.59-.108,2.421s.036,1.65.106,2.433h0a2.965,2.965,0,0,0,1.879,2.488L169,221.449h0a23.43,23.43,0,0,0,2.128,5.136l-1.56,3.65h0a2.966,2.966,0,0,0,.435,3.086c.5.6,1.053,1.2,1.644,1.795s1.193,1.134,1.795,1.646h0a2.963,2.963,0,0,0,3.086.426l3.65-1.56h0a23.433,23.433,0,0,0,5.136,2.128l1.462,3.685a2.972,2.972,0,0,0,2.491,1.877c.783.069,1.6.105,2.43.105s1.647-.036,2.433-.105a2.972,2.972,0,0,0,2.488-1.877l1.472-3.681a23.571,23.571,0,0,0,5.136-2.128l3.648,1.56a2.965,2.965,0,0,0,3.089-.426c.6-.5,1.2-1.056,1.793-1.644s1.134-1.191,1.646-1.795a2.961,2.961,0,0,0,.425-3.085l-1.56-3.651h0a23.55,23.55,0,0,0,2.128-5.136l3.685-1.478a2.973,2.973,0,0,0,1.877-2.489c.069-.784.105-1.6.105-2.431s-.036-1.647-.105-2.433a2.97,2.97,0,0,0-1.877-2.488Zm-.949,7.092h0a.154.154,0,0,1-.105.108l-4.336,1.743a1.419,1.419,0,0,0-.851.975,20.6,20.6,0,0,1-2.367,5.7,1.416,1.416,0,0,0-.088,1.291l1.844,4.309a.165.165,0,0,1,0,.142c-.451.538-.946,1.077-1.475,1.607s-1.07,1.024-1.606,1.474a.171.171,0,0,1-.152,0l-4.306-1.844a1.408,1.408,0,0,0-1.291.088,20.6,20.6,0,0,1-5.7,2.367,1.417,1.417,0,0,0-.974.851l-1.739,4.349a.157.157,0,0,1-.106.105,25.661,25.661,0,0,1-4.356,0,.16.16,0,0,1-.109-.105l-1.736-4.341a1.418,1.418,0,0,0-.976-.851,20.6,20.6,0,0,1-5.7-2.366,1.42,1.42,0,0,0-.734-.2,1.392,1.392,0,0,0-.559.115l-4.308,1.844a.154.154,0,0,1-.149,0c-.536-.448-1.077-.943-1.607-1.474s-1.027-1.072-1.472-1.606h0a.164.164,0,0,1,0-.152l1.844-4.306h0a1.419,1.419,0,0,0-.09-1.291,20.624,20.624,0,0,1-2.366-5.7,1.42,1.42,0,0,0-.851-.975l-4.344-1.74a.153.153,0,0,1-.1-.108c-.064-.7-.1-1.431-.1-2.178s.031-1.479.1-2.178h0a.153.153,0,0,1,.1-.108l4.34-1.738a1.417,1.417,0,0,0,.851-.974,20.634,20.634,0,0,1,2.366-5.7,1.419,1.419,0,0,0,.089-1.291l-1.844-4.308a.16.16,0,0,1,0-.15c.445-.533.94-1.074,1.472-1.606s1.071-1.025,1.606-1.474a.171.171,0,0,1,.152,0l4.306,1.844h0a1.418,1.418,0,0,0,1.292-.09,20.611,20.611,0,0,1,5.7-2.369,1.418,1.418,0,0,0,.976-.851l1.736-4.342h0a.159.159,0,0,1,.108-.1,25.661,25.661,0,0,1,4.356,0,.154.154,0,0,1,.107.1l1.738,4.342a1.42,1.42,0,0,0,.975.851,20.581,20.581,0,0,1,5.7,2.367,1.418,1.418,0,0,0,1.292.088L208,195.525a.175.175,0,0,1,.15,0c.538.451,1.077.946,1.607,1.475s1.024,1.07,1.474,1.606h0a.167.167,0,0,1,0,.152l-1.844,4.306a1.419,1.419,0,0,0,.088,1.291,20.6,20.6,0,0,1,2.367,5.7,1.419,1.419,0,0,0,.851.975l4.342,1.738a.156.156,0,0,1,.105.106c.062.7.094,1.434.094,2.179s-.03,1.479-.093,2.179Z" transform="translate(336.357 973.58)" fill="#1b54f8" stroke="#fff" stroke-width="1"></path><path id="Path_351" data-name="Path 351" d="M267.056,266.321c-.013-.013-.03-.017-.043-.03h0a16.987,16.987,0,0,0-23.984,0c-.014.013-.031.015-.044.03s-.017.03-.03.044h0a16.986,16.986,0,0,0,0,23.983c.013.014.015.031.03.044s.03.017.044.03h0a16.987,16.987,0,0,0,23.984,0c.013-.013.03-.017.043-.03s.017-.03.03-.043a16.989,16.989,0,0,0,0-23.985.245.245,0,0,0-.03-.043Zm.731,13.454h1.346A14.116,14.116,0,0,1,266,287.326l-.946-.946h0a1.418,1.418,0,0,0-2.006,2.005l.946.946a14.12,14.12,0,0,1-7.552,3.136v-1.346a1.418,1.418,0,1,0-2.836,0v1.346a14.111,14.111,0,0,1-7.552-3.136l.946-.946a1.418,1.418,0,0,0-2.006-2.005l-.946.946h0a14.1,14.1,0,0,1-3.136-7.551h1.346a1.419,1.419,0,0,0,0-2.837h-1.346a14.1,14.1,0,0,1,3.136-7.552l.946.946A1.419,1.419,0,0,0,247,268.327l-.946-.946h0a14.1,14.1,0,0,1,7.552-3.136v1.346a1.418,1.418,0,1,0,2.836,0v-1.346a14.111,14.111,0,0,1,7.552,3.136l-.946.946h0a1.419,1.419,0,1,0,2.006,2.006l.946-.946a14.115,14.115,0,0,1,3.136,7.552h-1.346a1.419,1.419,0,0,0,0,2.837Z" transform="translate(273.035 910.278)" fill="#1b54f8" stroke="#fff" stroke-width="1"></path><path id="Path_352" data-name="Path 352" d="M330.127,318.954a4.128,4.128,0,0,0-1.506-4.373l1.574-4.725a1.42,1.42,0,0,0-2.7-.9l-1.571,4.712h0a4.255,4.255,0,1,0,2.618,7.641l.928.622a1.419,1.419,0,0,0,1.577-2.358Zm-5.532-1.036a1.418,1.418,0,1,1,1.418,1.419A1.418,1.418,0,0,1,324.6,317.918Z" transform="translate(202.043 870.717)" fill="#1b54f8" stroke="#fff" stroke-width="1"></path><path id="Path_353" data-name="Path 353" d="M156.516,81.347l1.834-1.834V98.784a1.419,1.419,0,1,0,2.837,0V79.514l1.834,1.834a1.418,1.418,0,0,0,2.006-2.005l-4.255-4.255a1.418,1.418,0,0,0-2.006,0l-4.255,4.255a1.418,1.418,0,0,0,2.006,2.005Z" transform="translate(344.174 1068.574)" fill="#1b54f8" stroke="#fff" stroke-width="1"></path><path id="Path_354" data-name="Path 354" d="M234.437,53.536a1.418,1.418,0,0,0,1.418-1.418V32.848l1.834,1.834a1.418,1.418,0,0,0,2.005-2.006l-4.255-4.255a1.418,1.418,0,0,0-2.005,0l-4.255,4.255a1.418,1.418,0,0,0,2.005,2.006l1.834-1.834V52.118a1.418,1.418,0,0,0,1.418,1.418Z" transform="translate(280.853 1108.148)" fill="#1b54f8" stroke="#fff" stroke-width="1"></path><path id="Path_355" data-name="Path 355" d="M478.112,75.084a1.418,1.418,0,0,0-2.006,0l-4.255,4.255a1.418,1.418,0,0,0,2.006,2.005l1.834-1.834V98.782a1.419,1.419,0,1,0,2.837,0V79.511l1.834,1.834a1.418,1.418,0,0,0,2.006-2.005Z" transform="translate(75.061 1068.576)" fill="#1b54f8" stroke="#fff" stroke-width="1"></path><path id="Path_356" data-name="Path 356" d="M402.437,53.536a1.418,1.418,0,0,0,1.418-1.418V32.848l1.834,1.834a1.418,1.418,0,0,0,2.005-2.006l-4.255-4.255a1.418,1.418,0,0,0-2.005,0l-4.255,4.255a1.418,1.418,0,0,0,2.005,2.006l1.834-1.834V52.118a1.418,1.418,0,0,0,1.418,1.418Z" transform="translate(138.385 1108.148)" fill="#1b54f8" stroke="#fff" stroke-width="1"></path><path id="Path_357" data-name="Path 357" d="M318.437,25.536a1.418,1.418,0,0,0,1.418-1.418V4.848l1.834,1.834A1.418,1.418,0,0,0,323.7,4.676L319.44.421a1.418,1.418,0,0,0-2.005,0l-4.255,4.255a1.418,1.418,0,0,0,2.005,2.006l1.834-1.834V24.118a1.418,1.418,0,0,0,1.418,1.418Z" transform="translate(209.619 1131.893)" fill="#1b54f8" stroke="#fff" stroke-width="1"></path></g></g></svg> 