<?xml version="1.0" encoding="UTF-8"?> <svg xmlns="http://www.w3.org/2000/svg" width="61" height="61" viewBox="0 0 61 61" fill="none"><mask id="mask0_1_68" style="mask-type:luminance" maskUnits="userSpaceOnUse" x="0" y="0" width="61" height="61"><path d="M60.3 0.399994H0.300003V60.4H60.3V0.399994Z" fill="white"></path></mask><g mask="url(#mask0_1_68)"><path d="M16.9 46.3L20 48.6C20.7 49.1 21.7 49 22.2 48.2L23 47.1C24.2 47.7 25.5 48.1 26.8 48.3V49.6C26.8 50.5 27.5 51.2 28.4 51.2H32.3C33.2 51.2 33.9 50.5 33.9 49.6V48.3C35.2 48 36.5 47.6 37.7 47.1L38.5 48.2C39 48.9 40 49.1 40.8 48.6L43.9 46.3C44.6 45.8 44.8 44.8 44.3 44L43.5 42.9C44.4 41.9 45.2 40.8 45.8 39.7L47.1 40.1C47.9 40.4 48.9 39.9 49.1 39.1L50.3 35.4C50.6 34.6 50.1 33.6 49.3 33.4L48 33C48.2 31.7 48.2 30.3 48 29L49.3 28.6C50.1 28.3 50.6 27.4 50.3 26.6L49.1 22.9C48.8 22.1 47.9 21.6 47.1 21.9L45.8 22.3C45.1 21.1 44.4 20.1 43.5 19.1L44.3 18C44.8 17.3 44.7 16.3 43.9 15.7L40.8 13.4C40.1 12.9 39.1 13 38.6 13.7L37.8 14.8C36.6 14.2 35.3 13.8 34 13.6V12.3C34 11.4 33.3 10.7 32.4 10.7H28.5C27.6 10.7 26.9 11.4 26.9 12.3V13.6C25.6 13.9 24.3 14.3 23.1 14.8L22.3 13.7C21.8 13 20.8 12.8 20 13.3L16.9 15.6C16.2 16.1 16 17.1 16.5 17.9L17.3 19C16.4 20 15.6 21.1 15 22.2L13.7 21.8C12.9 21.5 11.9 22 11.7 22.8L10.5 26.5C10.2 27.3 10.7 28.3 11.5 28.5L12.8 28.9C12.6 30.2 12.6 31.6 12.8 32.9L11.5 33.3C10.7 33.6 10.2 34.5 10.5 35.3L11.7 39C12 39.8 12.9 40.3 13.7 40L15 39.6C15.7 40.8 16.4 41.8 17.3 42.8L16.5 43.9C16 44.7 16.1 45.8 16.9 46.3ZM16.5 38.6C16.1 37.9 15.3 37.6 14.6 37.8L13.4 38.2L12.4 35.1L13.6 34.7C14.3 34.5 14.8 33.7 14.7 33C14.5 31.7 14.5 30.3 14.7 29C14.8 28.2 14.3 27.5 13.6 27.3L12.4 26.9L13.4 23.8L14.6 24.2C15.3 24.4 16.1 24.1 16.5 23.4C17.1 22.2 17.9 21.1 18.9 20.1C19.4 19.5 19.5 18.7 19 18L18.3 17L20.9 15.1L21.6 16.1C22.1 16.7 22.9 16.9 23.6 16.6C24.8 16 26.1 15.6 27.4 15.4C28.2 15.3 28.7 14.6 28.7 13.8V12.5H32V13.8C32 14.6 32.6 15.2 33.3 15.4C34.6 15.6 35.9 16.1 37.1 16.6C37.8 16.9 38.6 16.7 39.1 16.1L39.8 15.1L42.4 17L41.7 18C41.2 18.6 41.3 19.5 41.8 20.1C42.7 21.1 43.5 22.2 44.2 23.3C44.6 24 45.4 24.3 46.1 24.1L47.3 23.7L48.3 26.8L47.1 27.2C46.4 27.4 45.9 28.2 46 28.9C46.2 30.2 46.2 31.6 46 32.9C45.9 33.7 46.4 34.4 47.1 34.6L48.3 35L47.3 38.1L46.1 37.7C45.4 37.5 44.6 37.8 44.2 38.5C43.6 39.7 42.8 40.8 41.8 41.8C41.3 42.4 41.2 43.2 41.7 43.9L42.4 44.9L39.8 46.8L39.1 45.8C38.6 45.2 37.8 45 37.1 45.3C35.9 45.9 34.6 46.3 33.3 46.5C32.5 46.6 32 47.3 32 48.1V49.4H28.8V48.1C28.8 47.3 28.2 46.7 27.5 46.5C26.2 46.3 24.9 45.8 23.7 45.3C23 45 22.2 45.2 21.7 45.8L21 46.8L18.4 44.9L19.1 43.9C19.6 43.3 19.5 42.4 19 41.8C17.9 40.8 17.1 39.7 16.5 38.6Z" fill="#1B54F8" stroke="white" stroke-width="0.183" stroke-miterlimit="10"></path><path d="M30.4 43.6C37.3 43.6 43 38 43 31C43 24.1 37.4 18.4 30.4 18.4C23.5 18.4 17.8 24 17.8 31C17.8 37.9 23.4 43.5 30.4 43.6ZM30.4 20.4C36.3 20.4 41 25.2 41 31C41 36.9 36.2 41.6 30.4 41.6C24.6 41.6 19.8 36.8 19.8 31C19.7 25.1 24.5 20.4 30.4 20.4Z" fill="#1B54F8" stroke="white" stroke-width="0.183" stroke-miterlimit="10"></path><path d="M26.5 36.7C26.8 36.9 27.2 36.9 27.5 36.7L36.2 31.9C36.7 31.6 36.8 31.1 36.6 30.6C36.5 30.4 36.4 30.3 36.2 30.2L27.5 25.4C27 25.1 26.4 25.3 26.2 25.8C26.1 25.9 26.1 26.1 26.1 26.3V36C26 36.2 26.2 36.5 26.5 36.7ZM27.9 27.8L33.6 31L27.9 34.2V27.8Z" fill="#1B54F8" stroke="white" stroke-width="0.183" stroke-miterlimit="10"></path><path d="M30.4 2.9C35 2.9 39.5 4.00001 43.5 6.10001L44.4 4.4C29.8 -3.3 11.6 2.3 3.9 16.9C-0.699996 25.7 -0.699996 36.1 3.9 44.9L5.6 44C-1.6 30.3 3.60001 13.3 17.3 6.10001C21.3 4.10001 25.8 2.9 30.4 2.9Z" fill="#1B54F8" stroke="white" stroke-width="0.183" stroke-miterlimit="10"></path><path d="M55.2 17.9C62.4 31.6 57.2 48.6 43.5 55.8C35.3 60.1 25.5 60.1 17.3 55.8L16.4 57.5C31 65.2 49.2 59.6 56.9 45C61.5 36.2 61.5 25.8 56.9 17L55.2 17.9Z" fill="#1B54F8" stroke="white" stroke-width="0.183" stroke-miterlimit="10"></path><path d="M48.2 14.6H54C54.5 14.6 55 14.2 55 13.6V7.8C55 7.3 54.6 6.8 54 6.8H48.2C47.7 6.8 47.2 7.2 47.2 7.8V13.6C47.3 14.1 47.7 14.6 48.2 14.6ZM49.2 8.7H53.1V12.6H49.2V8.7Z" fill="#1B54F8" stroke="white" stroke-width="0.183" stroke-miterlimit="10"></path><path d="M12.5 47.4H6.7C6.2 47.4 5.7 47.8 5.7 48.4V54.2C5.7 54.7 6.1 55.2 6.7 55.2H12.5C13 55.2 13.5 54.8 13.5 54.2V48.4C13.4 47.9 13 47.4 12.5 47.4ZM11.5 53.2H7.6V49.3H11.5V53.2Z" fill="#1B54F8" stroke="white" stroke-width="0.183" stroke-miterlimit="10"></path></g></svg> 