<?xml version="1.0" encoding="UTF-8"?> <svg xmlns="http://www.w3.org/2000/svg" id="Layer_1" data-name="Layer 1" viewBox="0 0 56 56"><defs><style>.cls-1{fill:#1b54f8;}</style></defs><path class="cls-1" d="M56,13.46V7.79H1.23V20.7h3.3V32.2H16.41l-2.66,7a7.61,7.61,0,0,0-2.6,2.6H.16v8.59H11.67a7.59,7.59,0,1,0,11.56-9.83l3.58-8.34h23V26.65h4.76v-8H49.78V17.22ZM1.87,48.66V43.49h8.51a7.66,7.66,0,0,0-.33,2.2,7.54,7.54,0,0,0,.6,3Zm21.67-3a5.89,5.89,0,1,1-5.89-5.89A5.9,5.9,0,0,1,23.54,45.69Zm-1.67-6.32a7.49,7.49,0,0,0-6-1.07l2.32-6.1h6.7Zm26.2-8.89H6.24V20.7H44l4-2.44Zm4.76-10.11v4.56h-3V20.37ZM43.55,19H3V9.51H54.29v3Z"></path><path class="cls-1" d="M17.65,42.28a3.42,3.42,0,1,0,3.42,3.41A3.42,3.42,0,0,0,17.65,42.28Zm0,5.12a1.71,1.71,0,1,1,1.71-1.71A1.7,1.7,0,0,1,17.65,47.4Z"></path><rect class="cls-1" x="10.91" y="12.33" width="18.3" height="1.71"></rect><rect class="cls-1" x="6.07" y="12.33" width="3.09" height="1.71"></rect></svg> 