<?xml version="1.0" encoding="UTF-8"?> <svg xmlns="http://www.w3.org/2000/svg" xmlns:xlink="http://www.w3.org/1999/xlink" width="90" height="90" viewBox="0 0 90 90"><defs><clipPath id="clip-path"><rect id="Rectangle_37" data-name="Rectangle 37" width="90" height="90" transform="translate(788 891)" fill="#fff" stroke="#707070" stroke-width="1"></rect></clipPath></defs><g id="Mask_Group_11" data-name="Mask Group 11" transform="translate(-788 -891)" clip-path="url(#clip-path)"><g id="Group_7" data-name="Group 7" transform="translate(795.5 898.5)"><path id="Path_11" data-name="Path 11" d="M63.395,18A4.759,4.759,0,0,0,62.2,27.37V39.5H50.254V27.557H34.538a4.779,4.779,0,1,0,0,2.389H47.865V39.5H39.5v8.362H27.37a4.779,4.779,0,1,0,0,2.389H39.5V62.2H27.557V77.916a4.779,4.779,0,1,0,2.389,0V64.589H39.5v8.362h8.362V85.084a4.779,4.779,0,1,0,2.389,0V72.951H62.2V84.9H77.916a4.779,4.779,0,1,0,0-2.389H64.589V72.951h8.362V64.589H85.084a4.779,4.779,0,1,0,0-2.389H72.951V50.254H84.9V34.538a4.779,4.779,0,1,0-2.389,0V47.865H72.951V39.5H64.589V27.37A4.759,4.759,0,0,0,63.395,18Zm0,2.389a2.389,2.389,0,1,1-2.389,2.389A2.371,2.371,0,0,1,63.395,20.389ZM29.946,26.362a2.389,2.389,0,1,1-2.389,2.389A2.371,2.371,0,0,1,29.946,26.362ZM83.7,27.557a2.389,2.389,0,1,1-2.389,2.389A2.371,2.371,0,0,1,83.7,27.557ZM41.892,41.892h28.67v28.67H41.892ZM22.778,46.67a2.389,2.389,0,1,1-2.389,2.389A2.371,2.371,0,0,1,22.778,46.67Zm66.9,14.335a2.389,2.389,0,1,1-2.389,2.389A2.371,2.371,0,0,1,89.676,61.005ZM28.751,80.119a2.389,2.389,0,1,1-2.389,2.389A2.371,2.371,0,0,1,28.751,80.119Zm53.757,1.195A2.389,2.389,0,1,1,80.119,83.7,2.371,2.371,0,0,1,82.508,81.313ZM49.059,87.286a2.389,2.389,0,1,1-2.389,2.389A2.371,2.371,0,0,1,49.059,87.286Z" transform="translate(-18 -18)" fill="#1a53f7" stroke="#1a53f7" stroke-width="0.4"></path></g></g></svg> 