<?xml version="1.0" encoding="UTF-8"?> <!-- Generator: Adobe Illustrator 25.2.3, SVG Export Plug-In . SVG Version: 6.00 Build 0) --> <svg xmlns="http://www.w3.org/2000/svg" xmlns:xlink="http://www.w3.org/1999/xlink" version="1.1" id="Layer_1" x="0px" y="0px" viewBox="0 0 94 94" style="enable-background:new 0 0 94 94;" xml:space="preserve"> <style type="text/css"> .st0{fill:#E6EEFF;} .st1{fill-rule:evenodd;clip-rule:evenodd;fill:#1B54F8;} </style> <desc>Created with Sketch.</desc> <path class="st0" d="M87.5,93.5h-81c-3.3,0-6-2.7-6-6v-81c0-3.3,2.7-6,6-6h81c3.3,0,6,2.7,6,6v81C93.5,90.8,90.8,93.5,87.5,93.5z"></path> <path class="st1" d="M74.6,52.7V41.3h-10c-0.3-0.9-0.7-1.9-1.2-2.7l7.1-7.1l-8.1-8l-7.3,7.3c-0.8-0.4-1.7-0.8-2.6-1V19.4H41.3v10.3 c-0.9,0.3-1.7,0.6-2.6,1l-7.3-7.3l-8,8l7.1,7.1c-0.5,0.9-0.9,1.7-1.2,2.7h-10v11.3H29c0.3,1,0.7,2,1.2,3l-6.8,6.9l8,8l6.7-6.7 c1,0.5,2,1,3.1,1.3v9.4h11.3V65c1.1-0.3,2.1-0.8,3.1-1.3l6.7,6.7l8-8l-6.7-6.9c0.5-0.9,0.9-2,1.2-3L74.6,52.7L74.6,52.7z M47,58.4 c-6,0-11-4.9-11-11s4.9-11,11-11s11,4.9,11,11S53.1,58.4,47,58.4 M42.9,40l11.7,7.4l-11.7,7.4V40z"></path> </svg> 