<?xml version="1.0" encoding="UTF-8"?> <svg xmlns="http://www.w3.org/2000/svg" xmlns:xlink="http://www.w3.org/1999/xlink" id="Group_12" data-name="Group 12" width="90" height="90" viewBox="0 0 90 90"><defs><clipPath id="clip-path"><rect id="Rectangle_6" data-name="Rectangle 6" width="90" height="90" fill="none"></rect></clipPath></defs><g id="Group_11" data-name="Group 11" clip-path="url(#clip-path)"><path id="Path_9" data-name="Path 9" d="M14.161,27.927a1.476,1.476,0,0,0,1.048.45h.013a1.474,1.474,0,0,0,1.043-.432l6.978-6.978a1.475,1.475,0,0,0-2.086-2.086L15.24,24.8l-1.7-1.76a1.475,1.475,0,0,0-2.122,2.05Z" fill="#1a53f6"></path><path id="Path_10" data-name="Path 10" d="M14.161,44.949a1.472,1.472,0,0,0,1.048.45h.013a1.474,1.474,0,0,0,1.043-.432l6.978-6.977A1.475,1.475,0,0,0,21.157,35.9L15.24,41.82l-1.7-1.759a1.475,1.475,0,1,0-2.122,2.049Z" fill="#1a53f6"></path><path id="Path_11" data-name="Path 11" d="M21.157,52.924,15.24,58.84l-1.7-1.758a1.475,1.475,0,1,0-2.122,2.049l2.742,2.839a1.48,1.48,0,0,0,1.048.45h.013a1.474,1.474,0,0,0,1.043-.432l6.978-6.978a1.475,1.475,0,0,0-2.086-2.086" fill="#1a53f6"></path><path id="Path_12" data-name="Path 12" d="M27.367,27.176H41.182a1.475,1.475,0,1,0,0-2.95H27.367a1.475,1.475,0,0,0,0,2.95" fill="#1a53f6"></path><path id="Path_13" data-name="Path 13" d="M79.5,62.006a1.474,1.474,0,0,0-1.782,1.084,28.865,28.865,0,0,1-2.77,7.107,1.475,1.475,0,1,0,2.584,1.425,31.831,31.831,0,0,0,3.052-7.834A1.475,1.475,0,0,0,79.5,62.006" fill="#1a53f6"></path><path id="Path_14" data-name="Path 14" d="M80.823,52.717H80.8a1.475,1.475,0,0,0-1.453,1.5,19.768,19.768,0,0,1-.217,3.272,1.475,1.475,0,0,0,1.285,1.644,1.584,1.584,0,0,0,.181.011,1.474,1.474,0,0,0,1.462-1.295,22.472,22.472,0,0,0,.239-3.675,1.475,1.475,0,0,0-1.475-1.454" fill="#1a53f6"></path><path id="Path_15" data-name="Path 15" d="M48.755,83.2a28.915,28.915,0,0,1-4.748-.569,1.475,1.475,0,0,0-.592,2.891,31.931,31.931,0,0,0,5.232.626H48.7a1.475,1.475,0,0,0,.053-2.949" fill="#1a53f6"></path><path id="Path_16" data-name="Path 16" d="M71.548,74.213a29.168,29.168,0,0,1-8.833,6.45A28.925,28.925,0,0,1,54.1,83.19a1.475,1.475,0,0,0,.189,2.938,1.4,1.4,0,0,0,.193-.013,31.854,31.854,0,0,0,13.08-4.774A32.087,32.087,0,0,0,73.7,76.228a1.475,1.475,0,0,0-2.155-2.015" fill="#1a53f6"></path><path id="Path_17" data-name="Path 17" d="M89.937,23.029a1.474,1.474,0,0,0-1.123-1.019l-5.125-1.025-1.025-5.126a1.475,1.475,0,0,0-2.49-.753l-8.037,8.037a1.475,1.475,0,0,0-.4,1.332l1.044,5.22-5.215,5.241a25.886,25.886,0,0,0-15.779-6.527V11.918a1.476,1.476,0,0,0-1.476-1.476H37.542v-1.5a1.476,1.476,0,0,0-1.475-1.476H32.523V4.495A1.475,1.475,0,0,0,31.048,3.02H21.625A1.475,1.475,0,0,0,20.15,4.495V7.471H16.607a1.476,1.476,0,0,0-1.476,1.475v1.5H2.365A1.475,1.475,0,0,0,.89,11.917V72.674a1.475,1.475,0,0,0,1.475,1.475H33.459A25.985,25.985,0,0,0,69.654,37.016l5.134-5.159,5.41,1.082a1.426,1.426,0,0,0,.29.029,1.478,1.478,0,0,0,1.043-.432L89.568,24.5a1.474,1.474,0,0,0,.369-1.47M23.1,5.97h6.473v1.5H23.1Zm-5.018,4.452H34.591v2.249H18.082V10.422ZM3.84,13.393H15.131v.753a1.475,1.475,0,0,0,1.476,1.475H36.066a1.476,1.476,0,0,0,1.476-1.475v-.753H48.833V28.409A26.023,26.023,0,0,0,27.87,41.246h-.5a1.474,1.474,0,0,0-.863,2.67A25.953,25.953,0,0,0,30.512,71.2H3.84ZM73.357,54.365A23.075,23.075,0,1,1,65.48,37.029l-3.807,3.825a17.686,17.686,0,1,0,2.091,2.081L67.57,39.11a22.952,22.952,0,0,1,5.787,15.255m-15.511,0a7.548,7.548,0,1,1-3.371-6.277l-5.209,5.234a1.475,1.475,0,0,0,2.086,2.086l5.214-5.24a7.5,7.5,0,0,1,1.28,4.2M80,29.892l-4.351-.87-.87-4.351,5.529-5.53.678,3.387a1.476,1.476,0,0,0,1.157,1.157l3.387.677Z" fill="#1a53f6"></path><path id="Path_18" data-name="Path 18" d="M62.877,54.366A12.568,12.568,0,1,1,50.309,41.8,12.568,12.568,0,0,1,62.877,54.366Z" fill="none" stroke="#e6f0ff" stroke-width="4.456"></path></g></svg> 