<?xml version="1.0" encoding="UTF-8"?> <svg xmlns="http://www.w3.org/2000/svg" xmlns:xlink="http://www.w3.org/1999/xlink" width="90" height="90" viewBox="0 0 90 90"><defs><clipPath id="clip-path"><rect id="Rectangle_423" data-name="Rectangle 423" width="90" height="90" transform="translate(604 396)" fill="#fff" stroke="#707070" stroke-width="1"></rect></clipPath></defs><g id="Mask_Group_14" data-name="Mask Group 14" transform="translate(-604 -396)" clip-path="url(#clip-path)"><g id="insurance" transform="translate(615 407)"><path id="Path_7243" data-name="Path 7243" d="M36.913,30.559l-3.272-.3c-4.177-.38-7.415-5.3-7.616-6.229a1.1,1.1,0,0,0-1.076-1.063,1.05,1.05,0,0,0-1.076,1.007q0,.029,0,.057c-.2.928-3.437,5.851-7.616,6.23l-3.272.3A1.077,1.077,0,0,0,12,31.633V33.7A21.37,21.37,0,0,0,24.5,53.114a1.075,1.075,0,0,0,.893,0A21.37,21.37,0,0,0,37.893,33.7V31.633a1.079,1.079,0,0,0-.981-1.075ZM35.736,33.7a19.211,19.211,0,0,1-10.789,17.24A19.211,19.211,0,0,1,14.158,33.7V32.618l2.292-.207c3.682-.336,6.9-3.38,8.5-5.807,1.6,2.426,4.815,5.471,8.5,5.807l2.292.207Z" transform="translate(0.789 1.654)" fill="#1b54f8"></path><path id="Path_7244" data-name="Path 7244" d="M53.787,40.84a12.862,12.862,0,0,0-4.316.755V9.552a1.079,1.079,0,0,0-1.079-1.079H34.29A7.564,7.564,0,0,0,26.814,2H24.657a7.564,7.564,0,0,0-7.476,6.473H3.079A1.079,1.079,0,0,0,2,9.552v56.1a1.079,1.079,0,0,0,1.079,1.079H48.392a1.065,1.065,0,0,0,1.018-.778A12.94,12.94,0,1,0,53.787,40.84Zm-6.473,1.745c-.04.023-.074.053-.113.076a13.22,13.22,0,0,0-1.127.753c-.1.077-.206.15-.306.23-.21.166-.411.342-.611.521v-30.3a1.079,1.079,0,0,0-1.079-1.079H39.761V10.631h7.552ZM40.933,55.277c.006.059.009.121.017.18.014.107.042.209.059.316.05.32.107.638.18.949.029.124.052.249.084.372.019.076.047.148.069.222.077.272.165.537.259.8.067.189.132.379.207.564.01.023.016.046.025.069.109.261.235.512.36.765.112.228.227.452.352.672.013.023.022.049.036.071H8.473V14.947H11.71v1.079A1.079,1.079,0,0,0,12.789,17.1H38.682a1.079,1.079,0,0,0,1.079-1.079V14.947H43v31.7c-.077.115-.143.235-.217.353-.1.155-.2.307-.286.467l-.025.047c-.073.132-.138.266-.207.4q-.159.309-.3.626c-.022.047-.047.093-.068.14-.045.107-.086.214-.129.322-.094.235-.178.473-.258.712-.032.1-.07.194-.1.292-.025.081-.045.164-.068.245-.031.111-.059.223-.088.336-.042.166-.086.331-.122.5-.022.1-.038.207-.057.311-.038.2-.076.4-.1.6-.01.067-.014.135-.023.2l-.008.067c-.013.113-.027.227-.038.341-.035.394-.058.787-.058,1.182a13.059,13.059,0,0,0,.093,1.49ZM18.183,10.631a1.079,1.079,0,0,0,1.079-1.079,5.4,5.4,0,0,1,5.394-5.394h2.158a5.4,5.4,0,0,1,5.394,5.394,1.079,1.079,0,0,0,1.079,1.079H37.6v4.316H13.868V10.631ZM46.644,64.576H4.158V10.631H11.71v2.158H7.394a1.079,1.079,0,0,0-1.079,1.079V61.339a1.079,1.079,0,0,0,1.079,1.079H44.077c.022,0,.039-.011.059-.012.095.106.2.2.3.307.216.227.442.442.674.653.114.1.223.211.342.311a12.99,12.99,0,0,0,1.19.9l.005,0Zm7.142,0a10.71,10.71,0,0,1-4.919-1.2,11.086,11.086,0,0,1-1.246-.75c-.039-.027-.076-.057-.113-.085a10.849,10.849,0,0,1-.915-.738c-.09-.08-.18-.16-.266-.243a10.766,10.766,0,0,1-.854-.908c-.07-.085-.132-.178-.2-.265-.181-.233-.352-.475-.514-.722l-.1-.15a10.785,10.785,0,0,1-.618-1.127c-.022-.045-.044-.088-.065-.134-.046-.1-.094-.2-.137-.305a10.493,10.493,0,0,1-.388-1.082l-.016-.058c-.031-.106-.055-.215-.083-.322q-.124-.478-.2-.967a9.888,9.888,0,0,1-.059-3.079c.016-.131.039-.26.059-.389q.08-.488.2-.967c.028-.107.052-.216.083-.322l.016-.058a10.752,10.752,0,0,1,.388-1.082c.043-.1.091-.2.137-.305.021-.045.043-.088.064-.133a10.569,10.569,0,0,1,.618-1.127c.031-.051.065-.1.1-.15.162-.247.331-.489.514-.722.068-.087.129-.18.2-.265a10.6,10.6,0,0,1,.854-.908c.086-.083.177-.163.266-.243a10.639,10.639,0,0,1,.915-.738l.113-.085a11,11,0,0,1,1.247-.75,10.784,10.784,0,1,1,4.919,20.379Z" fill="#1b54f8"></path><path id="Path_7245" data-name="Path 7245" d="M56.406,47.026V43.789a1.079,1.079,0,0,0-1.079-1.079H48.854a1.079,1.079,0,0,0-1.079,1.079v3.237H44.539A1.079,1.079,0,0,0,43.46,48.1v6.473a1.079,1.079,0,0,0,1.079,1.079h3.237v3.237a1.079,1.079,0,0,0,1.079,1.079h6.473a1.079,1.079,0,0,0,1.079-1.079V55.657h3.237a1.079,1.079,0,0,0,1.079-1.079V48.1a1.079,1.079,0,0,0-1.079-1.079ZM58.564,53.5H55.327a1.079,1.079,0,0,0-1.079,1.079v3.237H49.933V54.578A1.079,1.079,0,0,0,48.854,53.5H45.617V49.183h3.237A1.079,1.079,0,0,0,49.933,48.1V44.868h4.316V48.1a1.079,1.079,0,0,0,1.079,1.079h3.237ZM23.5,45.015l1.136,1.835A15.983,15.983,0,0,0,32.671,33H30.513A13.857,13.857,0,0,1,23.5,45.015Z" transform="translate(1.696 2.446)" fill="#1b54f8"></path></g></g></svg> 