<?xml version="1.0" encoding="UTF-8"?> <svg xmlns="http://www.w3.org/2000/svg" xmlns:xlink="http://www.w3.org/1999/xlink" width="90" height="90" viewBox="0 0 90 90"><defs><clipPath id="clip-path"><rect id="Rectangle_30" data-name="Rectangle 30" width="90" height="90" transform="translate(1003 702)" fill="#fff" stroke="#707070" stroke-width="1"></rect></clipPath></defs><g id="Mask_Group_4" data-name="Mask Group 4" transform="translate(-1003 -702)" clip-path="url(#clip-path)"><g id="Technical_Component_Definition" transform="translate(1009 708)"><g id="Group" transform="translate(0 0)"><path id="Shape" d="M10.713,15.528H1.565A1.564,1.564,0,0,1,.12,14.565,1.681,1.681,0,0,1,.481,12.76L12.76.481A1.491,1.491,0,0,1,14.445.12a1.564,1.564,0,0,1,.963,1.444v9.028A4.685,4.685,0,0,1,10.713,15.528Zm-5.176-3.25h5.176a1.593,1.593,0,0,0,1.565-1.565V5.537Z" transform="translate(0 0)" fill="#1b54f8" stroke="#fff" stroke-width="0.3"></path><path id="Shape_1_" d="M53.543,58.279H44.636a1.593,1.593,0,0,1-1.565-1.565V52.742c-.6-.241-1.083-.361-1.565-.6l-2.769,2.769a1.674,1.674,0,0,1-2.287,0l-6.38-6.38a1.674,1.674,0,0,1,0-2.287l2.769-2.769a8.359,8.359,0,0,1-.6-1.565H28.265A1.593,1.593,0,0,1,26.7,40.343V31.436a1.593,1.593,0,0,1,1.565-1.565h3.972c.241-.6.361-1.083.6-1.565L30.07,25.537a1.674,1.674,0,0,1,0-2.287l6.38-6.38a1.674,1.674,0,0,1,2.287,0l2.769,2.769a8.358,8.358,0,0,1,1.565-.6V15.065A1.593,1.593,0,0,1,44.636,13.5h8.908a1.593,1.593,0,0,1,1.565,1.565v3.972c.6.241,1.083.361,1.565.6l2.769-2.769a1.674,1.674,0,0,1,2.287,0l6.38,6.38a1.674,1.674,0,0,1,0,2.287L65.34,28.306a8.358,8.358,0,0,1,.6,1.565h3.972a1.593,1.593,0,0,1,1.565,1.565v8.908a1.593,1.593,0,0,1-1.565,1.565H65.942c-.241.6-.361,1.083-.6,1.565l2.769,2.769a1.793,1.793,0,0,1,.481,1.083,1.307,1.307,0,0,1-.481,1.083l-6.38,6.38a1.674,1.674,0,0,1-2.287,0L56.673,52.02a8.358,8.358,0,0,1-1.565.6v3.972A1.488,1.488,0,0,1,53.543,58.279Zm-7.222-3.25H52.1V51.538a1.662,1.662,0,0,1,1.2-1.565,14.381,14.381,0,0,0,3.13-1.324,1.635,1.635,0,0,1,1.926.241l2.407,2.528,4.093-4.093L62.331,44.8a1.635,1.635,0,0,1-.241-1.926,14.381,14.381,0,0,0,1.324-3.13,1.662,1.662,0,0,1,1.565-1.2H68.47V32.76H64.979a1.662,1.662,0,0,1-1.565-1.2,14.381,14.381,0,0,0-1.324-3.13,1.635,1.635,0,0,1,.241-1.926l2.528-2.528-4.093-3.852-2.528,2.528a1.635,1.635,0,0,1-1.926.241,14.381,14.381,0,0,0-3.13-1.324A1.662,1.662,0,0,1,51.979,20V16.509H46.321V20a1.662,1.662,0,0,1-1.2,1.565,14.381,14.381,0,0,0-3.13,1.324,1.635,1.635,0,0,1-1.926-.241l-2.528-2.528-4.093,4.093,2.528,2.528a1.635,1.635,0,0,1,.241,1.926,14.38,14.38,0,0,0-1.324,3.13A1.662,1.662,0,0,1,33.321,33H29.83v5.778h3.491a1.662,1.662,0,0,1,1.565,1.2,14.38,14.38,0,0,0,1.324,3.13,1.635,1.635,0,0,1-.241,1.926l-2.528,2.528,4.093,4.093,2.528-2.528a1.635,1.635,0,0,1,1.926-.241,14.381,14.381,0,0,0,3.13,1.324,1.662,1.662,0,0,1,1.2,1.565v3.25Z" transform="translate(5.44 2.751)" fill="#1b54f8" stroke="#fff" stroke-width="0.3"></path><path id="Shape_2_" d="M51.4,77.04H4.815A4.829,4.829,0,0,1,0,72.225V13.241L13.241,0H51.4a4.829,4.829,0,0,1,4.815,4.815V19.26H51.761v4.695l-1.2.361a14.381,14.381,0,0,0-3.13,1.324l-1.083.6-3.37-3.37-4.093,4.093,3.37,3.37-.6.963a14.38,14.38,0,0,0-1.324,3.13l-.361,1.2H35.27v5.778h4.695l.361,1.2a14.38,14.38,0,0,0,1.324,3.13l.6,1.083-3.37,3.37,4.093,4.093,3.37-3.37,1.083.6a14.381,14.381,0,0,0,3.13,1.324l1.2.361V57.78h4.454V72.225A4.829,4.829,0,0,1,51.4,77.04ZM3.25,14.565V72.225a1.593,1.593,0,0,0,1.565,1.565H51.4a1.593,1.593,0,0,0,1.565-1.565V61.03H48.511V55.493c-.6-.241-1.083-.361-1.565-.6l-3.972,3.852L34.427,50.2,38.4,46.224a8.358,8.358,0,0,1-.6-1.565H32.26V32.5H37.8c.241-.6.361-1.083.6-1.565l-3.972-3.972,8.547-8.547,3.972,3.972a8.358,8.358,0,0,1,1.565-.6V16.251h4.454V4.815A1.593,1.593,0,0,0,51.4,3.25H14.565Z" transform="translate(0 0)" fill="#1b54f8" stroke="#fff" stroke-width="0.3"></path><path id="Shape_3_" d="M47.113,44.527A10.713,10.713,0,1,1,57.827,33.813,10.737,10.737,0,0,1,47.113,44.527Zm0-18.177a7.463,7.463,0,1,0,7.463,7.463A7.424,7.424,0,0,0,47.113,26.35Z" transform="translate(7.416 4.706)" fill="#1b54f8" stroke="#fff" stroke-width="0.3"></path><path id="Path" d="M24.275,33.83H8.265a1.565,1.565,0,0,1,0-3.13h16.01a1.593,1.593,0,0,1,1.565,1.565A1.452,1.452,0,0,1,24.275,33.83Z" transform="translate(1.365 6.255)" fill="#1b54f8" stroke="#fff" stroke-width="0.3"></path><path id="Path_1_" d="M24.275,27.25H8.265A1.593,1.593,0,0,1,6.7,25.685,1.622,1.622,0,0,1,8.265,24h16.01a1.593,1.593,0,0,1,1.565,1.565A1.488,1.488,0,0,1,24.275,27.25Z" transform="translate(1.365 4.89)" fill="#1b54f8" stroke="#fff" stroke-width="0.3"></path><path id="Path_2_" d="M24.275,20.53H8.265a1.565,1.565,0,1,1,0-3.13h16.01a1.593,1.593,0,0,1,1.565,1.565A1.451,1.451,0,0,1,24.275,20.53Z" transform="translate(1.365 3.545)" fill="#1b54f8" stroke="#fff" stroke-width="0.3"></path><path id="Path_3_" d="M24.275,40.53H8.265a1.565,1.565,0,0,1,0-3.13h16.01a1.593,1.593,0,0,1,1.565,1.565A1.452,1.452,0,0,1,24.275,40.53Z" transform="translate(1.365 7.62)" fill="#1b54f8" stroke="#fff" stroke-width="0.3"></path><path id="Path_4_" d="M24.275,47.25H8.265A1.593,1.593,0,0,1,6.7,45.685,1.7,1.7,0,0,1,8.265,44h16.01a1.593,1.593,0,0,1,1.565,1.565A1.618,1.618,0,0,1,24.275,47.25Z" transform="translate(1.365 8.965)" fill="#1b54f8" stroke="#fff" stroke-width="0.3"></path><path id="Path_5_" d="M33.9,53.83H8.265a1.565,1.565,0,1,1,0-3.13H33.9a1.593,1.593,0,0,1,1.565,1.565A1.452,1.452,0,0,1,33.9,53.83Z" transform="translate(1.365 10.33)" fill="#1b54f8" stroke="#fff" stroke-width="0.3"></path></g></g></g></svg> 