<?xml version="1.0" encoding="UTF-8"?> <svg xmlns="http://www.w3.org/2000/svg" width="61" height="61" viewBox="0 0 61 61" fill="none"><mask id="mask0_1_126" style="mask-type:luminance" maskUnits="userSpaceOnUse" x="0" y="0" width="61" height="61"><path d="M60.5 0.700012H0.5V60.7H60.5V0.700012Z" fill="white"></path></mask><g mask="url(#mask0_1_126)"><path d="M38.9 20.7L37.3 22.3L42.7 27.7L52.9 17.6L51.4 16.1L42.7 24.6L38.9 20.7Z" fill="#1B54F8"></path><path d="M58.8 9.60001L45.2 6.10001C45 6.10001 44.9 6.10001 44.6 6.10001L31 9.60001C30.5 9.70001 30.1 10.2 30.1 10.7V27.3C30.1 29.6 31.1 31.7 32.8 33.3L32.9 33.4L44.2 41.1C44.4 41.2 44.7 41.3 44.9 41.3C45.1 41.3 45.4 41.2 45.6 41.1L56.9 33.4C56.9 33.4 57 33.4 57 33.3C58.7 31.8 59.7 29.7 59.7 27.4V10.7C59.7 10.2 59.4 9.70001 58.8 9.60001ZM57.5 27.3C57.5 28.9 56.8 30.4 55.7 31.5L45 38.8L34.4 31.5C33.2 30.4 32.5 28.9 32.5 27.3V11.5L45 8.29999L57.5 11.5V27.3Z" fill="#1B54F8"></path><path d="M47.3 50.3H39.6C39.7 50 39.8 49.5 39.8 49.2C39.8 48.3 39.5 47.4 38.8 46.8L33.5 41.5C31.9 39.8 30.1 39 28.1 39H21.3V37.9C21.3 36.1 19.8 34.6 18 34.6H16.8C16.8 34 16.2 33.5 15.7 33.5H2.10001C1.40001 33.5 1 34 1 34.6V53.8C1 54.5 1.50001 54.9 2.10001 54.9H15.7C16.4 54.9 16.8 54.4 16.8 53.8H18C19.8 53.8 21.3 52.3 21.3 50.5V49.3C22.8 49.3 24.5 50.7 25 51.2L28.4 54.6C28.6 54.8 31.1 57.2 33.7 57.2H47.3C49.2 57.2 50.7 55.7 50.7 53.8C50.7 51.9 49.2 50.3 47.3 50.3ZM14.4 52.6H3V35.7H14.3V52.6H14.4ZM18.9 50.4C18.9 51 18.4 51.4 17.9 51.4H16.7V36.8H17.9C18.5 36.8 18.9 37.3 18.9 37.8V50.4ZM47.3 54.9H33.7C32.2 54.9 30.5 53.5 30 53L26.6 49.6C26.4 49.4 24 47 21.3 47V41.3H28.1C29.5 41.3 30.8 41.9 32.1 43.1L37.4 48.4C37.6 48.6 37.7 48.9 37.7 49.2C37.7 49.5 37.6 49.8 37.4 50C36.9 50.5 36.3 50.5 35.8 50L30.8 45L29.2 46.6L34.2 51.6C34.8 52.2 35.4 52.4 36.1 52.5H47.4C48.1 52.5 48.5 53 48.5 53.6C48.5 54.3 47.9 54.9 47.3 54.9Z" fill="#1B54F8"></path><path d="M16.6 7.20001H6.39999V9.5H16.6V7.20001Z" fill="#1B54F8"></path><path d="M22.3 11.7H6.39999V14H22.3V11.7Z" fill="#1B54F8"></path><path d="M21.1 16.3H6.39999V18.6H21.1V16.3Z" fill="#1B54F8"></path><path d="M12.1 24.2H6.39999V26.5H12.1V24.2Z" fill="#1B54F8"></path></g></svg> 