<?xml version="1.0" encoding="UTF-8"?> <svg xmlns="http://www.w3.org/2000/svg" xmlns:xlink="http://www.w3.org/1999/xlink" width="60" height="60" viewBox="0 0 60 60"><defs><clipPath id="clip-path"><rect id="Rectangle_137" data-name="Rectangle 137" width="60" height="60" transform="translate(479 1069.765)" fill="#fff" stroke="#707070" stroke-width="1"></rect></clipPath></defs><g id="Mask_Group_46" data-name="Mask Group 46" transform="translate(-479 -1069.765)" clip-path="url(#clip-path)"><g id="Group_70" data-name="Group 70" transform="translate(486.305 1074.648)"><path id="Path_156" data-name="Path 156" d="M145.236,32.73a1.191,1.191,0,0,1,0,1.686L133.855,45.8a1.194,1.194,0,0,1-1.687,0l-7.558-7.559a1.193,1.193,0,0,1,1.686-1.687l6.715,6.716L143.55,32.73a1.193,1.193,0,0,1,1.686,0ZM134.923,63.068c14.632-7.841,20.426-18.623,20.424-38.07a12.359,12.359,0,0,1-9.6-7.869H124.095A12.361,12.361,0,0,1,114.5,25c0,19.446,5.792,30.228,20.424,38.07Zm21.691-40.322a9.954,9.954,0,0,1-8.856-7.14,1.192,1.192,0,0,0-1.145-.861H123.234a1.192,1.192,0,0,0-1.145.861,9.954,9.954,0,0,1-8.856,7.14,1.193,1.193,0,0,0-1.111,1.177c-.116,10.973,1.488,19.149,5.047,25.73,3.51,6.492,8.977,11.52,17.2,15.825a1.194,1.194,0,0,0,1.106,0c8.226-4.3,13.691-9.331,17.2-15.825,3.561-6.581,5.162-14.757,5.046-25.73a1.193,1.193,0,0,0-1.111-1.177Z" transform="translate(-112.115 -14.745)" fill="#1b54f8" stroke="#fff" stroke-width="1" fill-rule="evenodd"></path></g></g></svg> 