<?xml version="1.0" encoding="UTF-8"?> <svg xmlns="http://www.w3.org/2000/svg" xmlns:xlink="http://www.w3.org/1999/xlink" width="148" height="148" viewBox="0 0 148 148"><defs><clipPath id="clip-path"><rect id="Rectangle_25" data-name="Rectangle 25" width="148" height="148" transform="translate(1341 707)" fill="#fff" opacity="0.9"></rect></clipPath></defs><g id="Mask_Group_5" data-name="Mask Group 5" transform="translate(-1341 -707)" clip-path="url(#clip-path)"><g id="Group_35" data-name="Group 35" transform="translate(1359.089 711.933)"><path id="Path_85" data-name="Path 85" d="M252.654,109.874h-10.4v-4.439l-4.745-1.676q-.241-.612-.509-1.224l2.173-4.543L225.552,84.364l-4.545,2.173c-.4-.18-.814-.348-1.224-.509l-1.674-4.742H198.835l-1.674,4.745q-.615.241-1.224.509l-4.545-2.173L177.768,98l2.173,4.543c-.18.408-.351.816-.509,1.224l-4.745,1.673v4.439h-10.4A13.009,13.009,0,0,0,151.3,122.868v57.177A13.009,13.009,0,0,0,164.29,193.04h18.193v10.4h-10.4a5.2,5.2,0,0,0-5.2,5.2v5.2a5.2,5.2,0,0,0,5.2,5.2h72.77a5.2,5.2,0,0,0,5.2-5.2v-5.2a5.2,5.2,0,0,0-5.2-5.2h-10.4v-10.4h18.193a13.009,13.009,0,0,0,12.994-12.994V122.868a13.011,13.011,0,0,0-13-12.994Zm-72.77-.759,3.62-1.276.406-1.19a25.722,25.722,0,0,1,1.24-2.979l.556-1.131-1.661-3.468,8.425-8.425,3.47,1.658,1.133-.556a25.237,25.237,0,0,1,2.979-1.24l1.19-.408,1.273-3.617h11.913L215.7,90.1l1.19.408a25.253,25.253,0,0,1,2.979,1.24l1.133.556,3.47-1.658,8.425,8.425-1.661,3.468.556,1.131a25.7,25.7,0,0,1,1.24,2.979l.406,1.19,3.619,1.275v.759h-8.467a20.779,20.779,0,0,0-40.243,0h-8.467Zm43.273.759H193.791a15.568,15.568,0,0,1,29.367,0Zm-58.866,5.2h88.365a7.807,7.807,0,0,1,7.8,7.8v44.183H156.5V122.869a7.806,7.806,0,0,1,7.8-7.8Zm80.57,98.758H172.089v-5.2h72.77Zm-15.6-10.4H187.681v-10.4h41.584Zm23.39-15.593H164.293a7.807,7.807,0,0,1-7.8-7.8v-7.8H260.454v7.8a7.806,7.806,0,0,1-7.8,7.8Z" transform="translate(-151.296 -81.285)" fill="#05f" stroke="#fff" stroke-width="1.6"></path><path id="Path_86" data-name="Path 86" d="M310.035,418.088a2.6,2.6,0,1,1-2.6-2.6,2.6,2.6,0,0,1,2.6,2.6" transform="translate(-260.657 -319.325)" fill="#05f" stroke="#fff" stroke-width="1"></path><path id="Path_87" data-name="Path 87" d="M346.165,418.088a2.6,2.6,0,1,1-2.6-2.6,2.6,2.6,0,0,1,2.6,2.6" transform="translate(-286.391 -319.325)" fill="#05f" stroke="#fff" stroke-width="1"></path><path id="Path_88" data-name="Path 88" d="M382.295,418.088a2.6,2.6,0,1,1-2.6-2.6,2.6,2.6,0,0,1,2.6,2.6" transform="translate(-312.125 -319.325)" fill="#05f" stroke="#fff" stroke-width="1"></path><path id="Path_89" data-name="Path 89" d="M323.17,256.171l10.407-41.581,5.04,1.261L328.21,257.433Z" transform="translate(-273.715 -176.233)" fill="#05f" stroke="#fff" stroke-width="1"></path><path id="Path_90" data-name="Path 90" d="M392.934,266.743l21.155-15.111-21.155-15.11-3.02,4.231,15.23,10.879-15.23,10.879Z" transform="translate(-321.254 -191.854)" fill="#05f" stroke="#fff" stroke-width="1"></path><path id="Path_91" data-name="Path 91" d="M250.249,262.508l-15.23-10.879,15.23-10.879-3.02-4.231-21.155,15.11,21.155,15.111Z" transform="translate(-204.557 -191.852)" fill="#05f" stroke="#fff" stroke-width="1"></path></g></g></svg> 