<?xml version="1.0" encoding="UTF-8"?> <svg xmlns="http://www.w3.org/2000/svg" id="Layer_1" data-name="Layer 1" viewBox="0 0 94 94"><defs><style>.cls-1,.cls-2{fill:none;stroke:#1b54f8;stroke-width:2px;}.cls-1{stroke-linecap:round;stroke-linejoin:round;}.cls-2{stroke-miterlimit:10;}.cls-3{fill:#1b54f8;}</style></defs><path class="cls-1" d="M60.2,23.14v-4.7a6.81,6.81,0,0,0-6.8-6.8H24.3a6.87,6.87,0,0,0-6.8,6.8v57a6.81,6.81,0,0,0,6.8,6.8H53.5a6.87,6.87,0,0,0,6.8-6.8v-4"></path><path class="cls-2" d="M33.6,77.84a2.39,2.39,0,0,1-1.4-.5,2.1,2.1,0,0,1-.7-1.4,2.21,2.21,0,0,1,2.1-2.3H44a2.22,2.22,0,0,1,2.2,2.2,2.05,2.05,0,0,1-2.1,2.1l-10.5-.1Z"></path><path class="cls-3" d="M60.3,30.24l15.3,8.7v17.5L60.3,65,45,56.34V40.24l14.2,8v11.3a1,1,0,0,0,1.1,1.1,1.11,1.11,0,0,0,1.1-1.1V48.24l10-5.8a1.13,1.13,0,0,0,.4-1.5,1.14,1.14,0,0,0-1-.54,1,1,0,0,0-.52.14l-10,5.7-14.1-8,14.1-8m0-2a2,2,0,0,0-1,.26l-14.1,8a2,2,0,0,0-1,1.74.86.86,0,0,0,0,.16l-.22.11a2,2,0,0,0-1,1.73v16.1a2,2,0,0,0,1,1.74l15.3,8.7a2.06,2.06,0,0,0,1,.26,2,2,0,0,0,1-.26l15.3-8.6a2,2,0,0,0,1-1.74V38.94a2,2,0,0,0-1-1.74l-15.3-8.7a2.06,2.06,0,0,0-1-.26Z"></path></svg> 