<?xml version="1.0" encoding="UTF-8"?> <svg xmlns="http://www.w3.org/2000/svg" xmlns:xlink="http://www.w3.org/1999/xlink" width="90" height="90" viewBox="0 0 90 90"><defs><clipPath id="clip-path"><rect id="Rectangle_25" data-name="Rectangle 25" width="90" height="90" transform="translate(1341 707)" fill="#fff" opacity="0.9"></rect></clipPath></defs><g id="Mask_Group_5" data-name="Mask Group 5" transform="translate(-1341 -707)" clip-path="url(#clip-path)"><g id="Group_35" data-name="Group 35" transform="translate(1351.513 709.514)"><path id="Path_85" data-name="Path 85" d="M212.933,98.67h-6.322v-2.7l-2.886-1.019q-.147-.372-.31-.744l1.321-2.763-8.285-8.287-2.764,1.321c-.245-.109-.495-.212-.744-.31l-1.018-2.884H180.2l-1.018,2.886q-.374.147-.744.31l-2.764-1.321-8.285,8.287,1.321,2.763c-.109.248-.213.5-.31.744l-2.886,1.017v2.7H159.2a7.911,7.911,0,0,0-7.9,7.9v34.77a7.911,7.911,0,0,0,7.9,7.9h11.063v6.322h-6.322a3.164,3.164,0,0,0-3.161,3.161v3.161a3.164,3.164,0,0,0,3.161,3.161h44.252a3.164,3.164,0,0,0,3.161-3.161v-3.161a3.165,3.165,0,0,0-3.161-3.161H201.87v-6.322h11.063a7.911,7.911,0,0,0,7.9-7.9v-34.77a7.912,7.912,0,0,0-7.9-7.9Zm-44.252-.461,2.2-.776.247-.724a15.642,15.642,0,0,1,.754-1.811l.338-.688-1.01-2.109,5.124-5.124,2.11,1.008.689-.338a15.347,15.347,0,0,1,1.811-.754l.724-.248.774-2.2h7.244l.776,2.2.724.248a15.357,15.357,0,0,1,1.811.754l.689.338,2.11-1.008,5.124,5.124-1.01,2.109.338.688A15.631,15.631,0,0,1,201,96.71l.247.724,2.2.775v.461H198.3a12.636,12.636,0,0,0-24.472,0h-5.149ZM195,98.67H177.137a9.467,9.467,0,0,1,17.859,0Zm-35.8,3.161h53.736a4.747,4.747,0,0,1,4.742,4.742v26.868H154.458V106.573a4.747,4.747,0,0,1,4.742-4.741Zm49,60.056H163.941v-3.161h44.252Zm-9.484-6.322H173.422v-6.322H198.71Zm14.224-9.482H159.2a4.747,4.747,0,0,1-4.742-4.742V136.6h63.218v4.742a4.747,4.747,0,0,1-4.742,4.742Z" transform="translate(-150.809 -80.799)" fill="#05f"></path><path id="Path_85_-_Outline" data-name="Path 85 - Outline" d="M179.547,80.485h12.409l1.059,3c.123.05.24.1.35.145l2.874-1.374,8.771,8.774L203.636,93.9q.074.174.145.349l3,1.06V97.87h5.835a8.4,8.4,0,0,1,8.389,8.388v34.77a8.4,8.4,0,0,1-8.388,8.388H202.043v5.349h5.835a3.652,3.652,0,0,1,3.648,3.648v3.161a3.652,3.652,0,0,1-3.648,3.648H163.626a3.652,3.652,0,0,1-3.648-3.648v-3.161a3.652,3.652,0,0,1,3.648-3.648h5.835v-5.349H158.884a8.4,8.4,0,0,1-8.388-8.388v-34.77a8.4,8.4,0,0,1,8.388-8.388h5.835V95.313l3-1.058c.046-.114.094-.23.146-.35l-1.374-2.873,8.771-8.774,2.875,1.374q.174-.074.349-.145Zm11.721.973H180.236l-.977,2.771-.207.081c-.242.095-.486.2-.726.3l-.2.09-2.655-1.269-7.8,7.8,1.269,2.654-.09.2c-.113.257-.212.494-.3.724l-.081.208L165.693,96v2.841h-6.808a7.424,7.424,0,0,0-7.415,7.415v34.77a7.424,7.424,0,0,0,7.415,7.415h11.55v7.295h-6.808a2.678,2.678,0,0,0-2.675,2.675v3.161a2.678,2.678,0,0,0,2.675,2.675h44.252a2.678,2.678,0,0,0,2.675-2.675v-3.161a2.678,2.678,0,0,0-2.675-2.675H201.07v-7.295h11.55a7.424,7.424,0,0,0,7.415-7.416v-34.77a7.424,7.424,0,0,0-7.416-7.415h-6.808V96l-2.771-.978-.081-.207c-.095-.241-.2-.486-.3-.727l-.089-.2,1.269-2.653-7.8-7.8-2.657,1.27-.205-.092c-.212-.095-.449-.193-.723-.3l-.207-.081Zm-9.483,2.188h7.933l.812,2.3.5.172a15.837,15.837,0,0,1,1.869.778l.477.234,2.208-1.055,5.61,5.61-1.057,2.206.234.476a16.141,16.141,0,0,1,.778,1.869l.171.5,2.3.811v1.292h-6.012l-.094-.364a12.035,12.035,0,0,0-1.633-3.651,12.3,12.3,0,0,0-6.142-4.786,12.017,12.017,0,0,0-7.981,0,12.3,12.3,0,0,0-6.142,4.786,12.04,12.04,0,0,0-1.633,3.651l-.094.364h-6.012V97.551l2.3-.812.171-.5a16.151,16.151,0,0,1,.778-1.869l.234-.476-1.057-2.206,5.61-5.61,2.208,1.055.477-.234a15.825,15.825,0,0,1,1.868-.777l.5-.172Zm7.245.973h-6.556l-.738,2.1-.947.325a14.85,14.85,0,0,0-1.754.73l-.9.443-2.012-.961-4.637,4.637.963,2.011-.443.9a15.167,15.167,0,0,0-.73,1.754l-.323.947-1.051.37h3.243a13.017,13.017,0,0,1,1.664-3.581,13.275,13.275,0,0,1,6.629-5.165,12.99,12.99,0,0,1,8.627,0,13.275,13.275,0,0,1,6.629,5.165,13.012,13.012,0,0,1,1.664,3.581H201.6l-1.049-.37-.323-.947a15.156,15.156,0,0,0-.73-1.754l-.442-.9.963-2.011-4.637-4.637-2.012.961-.9-.442a14.865,14.865,0,0,0-1.755-.73l-.947-.324Zm-3.277,6.929a9.866,9.866,0,0,1,5.774,1.863,9.974,9.974,0,0,1,3.613,4.782l.231.65H176.134l.231-.65a9.973,9.973,0,0,1,3.613-4.782A9.867,9.867,0,0,1,185.753,91.548Zm8.211,6.322a9.018,9.018,0,0,0-3-3.667,8.907,8.907,0,0,0-10.416,0,9.018,9.018,0,0,0-3,3.668Zm-35.079,3.161h53.736a5.234,5.234,0,0,1,5.228,5.228v27.354H153.658V106.259a5.237,5.237,0,0,1,3.884-5.052l-.263-.175Zm57.991,31.609V106.259A4.26,4.26,0,0,0,212.621,102H158.886a4.26,4.26,0,0,0-4.255,4.254v26.381ZM153.658,135.8h64.191v5.228a5.234,5.234,0,0,1-5.228,5.228H158.886a5.234,5.234,0,0,1-5.228-5.228Zm63.218.973H154.631v4.255a4.26,4.26,0,0,0,4.255,4.255h53.735a4.26,4.26,0,0,0,4.255-4.255Zm-44.254,11.671h26.261v7.295H172.622Zm25.288.973H173.6v5.349H197.91Zm-34.769,8.509h45.225l0,4.134H163.141Zm44.252.973H164.114v2.188h43.28Z" transform="translate(-150.496 -80.485)" fill="#fff"></path><path id="Path_86" data-name="Path 86" d="M308,417.069a1.58,1.58,0,1,1-1.58-1.58,1.58,1.58,0,0,1,1.58,1.58" transform="translate(-277.485 -356.524)" fill="#05f"></path><path id="Path_86_-_Outline" data-name="Path 86 - Outline" d="M306.222,418.757a1.884,1.884,0,1,1,1.884-1.884A1.886,1.886,0,0,1,306.222,418.757Zm0-3.161a1.276,1.276,0,1,0,1.276,1.276A1.278,1.278,0,0,0,306.222,415.6Z" transform="translate(-277.289 -356.328)" fill="#fff"></path><path id="Path_87" data-name="Path 87" d="M344.128,417.069a1.58,1.58,0,1,1-1.58-1.58,1.58,1.58,0,0,1,1.58,1.58" transform="translate(-307.293 -356.524)" fill="#05f"></path><path id="Path_87_-_Outline" data-name="Path 87 - Outline" d="M342.352,418.757a1.884,1.884,0,1,1,1.884-1.884A1.886,1.886,0,0,1,342.352,418.757Zm0-3.161a1.276,1.276,0,1,0,1.276,1.276A1.278,1.278,0,0,0,342.352,415.6Z" transform="translate(-307.097 -356.328)" fill="#fff"></path><path id="Path_88" data-name="Path 88" d="M380.258,417.069a1.58,1.58,0,1,1-1.58-1.58,1.58,1.58,0,0,1,1.58,1.58" transform="translate(-337.101 -356.524)" fill="#05f"></path><path id="Path_88_-_Outline" data-name="Path 88 - Outline" d="M378.482,418.757a1.884,1.884,0,1,1,1.884-1.884A1.886,1.886,0,0,1,378.482,418.757Zm0-3.161a1.276,1.276,0,1,0,1.276,1.276A1.278,1.278,0,0,0,378.482,415.6Z" transform="translate(-336.905 -356.328)" fill="#fff"></path><path id="Path_89" data-name="Path 89" d="M323.17,239.876,329.5,214.59l3.065.767-6.329,25.286Z" transform="translate(-292.609 -190.778)" fill="#05f"></path><path id="Path_89_-_Outline" data-name="Path 89 - Outline" d="M326.218,240.774l-3.655-.914,6.476-25.876,3.655.914Zm-2.917-1.357,2.475.619,6.181-24.7-2.475-.619Z" transform="translate(-292.372 -190.541)" fill="#fff"></path><path id="Path_90" data-name="Path 90" d="M391.751,254.9l12.864-9.189-12.864-9.188-1.837,2.573,9.262,6.616-9.262,6.616Z" transform="translate(-347.675 -208.872)" fill="#05f"></path><path id="Path_90_-_Outline" data-name="Path 90 - Outline" d="M391.407,255.05l-2.19-3.068,9.163-6.545-9.163-6.545,2.19-3.068,13.458,9.613Zm-1.342-2.927,1.483,2.078,12.27-8.765-12.27-8.764-1.483,2.078,9.361,6.686Z" transform="translate(-347.401 -208.599)" fill="#fff"></path><path id="Path_91" data-name="Path 91" d="M240.775,252.323l-9.262-6.616,9.262-6.616-1.837-2.573-12.864,9.188,12.864,9.189Z" transform="translate(-212.503 -208.87)" fill="#05f"></path><path id="Path_91_-_Outline" data-name="Path 91 - Outline" d="M238.672,255.047l-13.458-9.613,13.458-9.613,2.19,3.068-9.163,6.545,9.163,6.545Zm-12.412-9.613,12.27,8.765,1.483-2.078-9.361-6.686,9.361-6.686-1.483-2.078Z" transform="translate(-212.166 -208.597)" fill="#fff"></path></g></g></svg> 