<?xml version="1.0" encoding="UTF-8"?> <svg xmlns="http://www.w3.org/2000/svg" xmlns:xlink="http://www.w3.org/1999/xlink" width="90" height="90" viewBox="0 0 90 90"><defs><clipPath id="clip-path"><rect id="Rectangle_72" data-name="Rectangle 72" width="90" height="90" transform="translate(1020 45)" fill="#fff" stroke="#707070" stroke-width="1"></rect></clipPath></defs><g id="Mask_Group_34" data-name="Mask Group 34" transform="translate(-1020 -45)" clip-path="url(#clip-path)"><g id="Group_36" data-name="Group 36" transform="translate(-115.55 -18)"><path id="Path_112" data-name="Path 112" d="M40.985,33.911a18.228,18.228,0,0,0,1.639-3.949l3.454-.109a1.32,1.32,0,0,0,1.286-1.319V21.383a1.309,1.309,0,0,0-1.286-1.319l-3.454-.109A18.228,18.228,0,0,0,40.985,16l2.37-2.521a1.316,1.316,0,0,0-.025-1.84L38.271,6.585a1.309,1.309,0,0,0-1.84-.025L33.91,8.929A18.229,18.229,0,0,0,29.96,7.291l-.109-3.454A1.319,1.319,0,0,0,28.532,2.56H21.381a1.308,1.308,0,0,0-1.319,1.277l-.109,3.454a18.3,18.3,0,0,0-3.958,1.639L13.482,6.56a1.316,1.316,0,0,0-1.84.025L6.583,11.644a1.309,1.309,0,0,0-.025,1.84L8.928,16a18.294,18.294,0,0,0-1.639,3.958l-3.454.1A1.32,1.32,0,0,0,2.55,21.374v7.151a1.309,1.309,0,0,0,1.286,1.319l3.454.1A18.3,18.3,0,0,0,8.928,33.9l-2.37,2.512a1.316,1.316,0,0,0,.025,1.84l5.059,5.05a1.309,1.309,0,0,0,1.84.025l2.512-2.37A18.294,18.294,0,0,0,19.952,42.6l.1,3.454a1.32,1.32,0,0,0,1.319,1.286h7.151a1.309,1.309,0,0,0,1.319-1.286l.1-3.454A18.294,18.294,0,0,0,33.9,40.961l2.521,2.37a1.316,1.316,0,0,0,1.84-.025l5.059-5.059a1.317,1.317,0,0,0,.025-1.84Zm-3.664,7.613L34.9,39.256a1.307,1.307,0,0,0-1.58-.176,16.336,16.336,0,0,1-4.3,1.781,1.3,1.3,0,0,0-.992,1.244l-.1,3.311H21.986l-.1-3.311a1.319,1.319,0,0,0-.992-1.244,16.22,16.22,0,0,1-4.3-1.781,1.306,1.306,0,0,0-1.58.176L12.6,41.524l-4.2-4.2,2.269-2.412a1.307,1.307,0,0,0,.176-1.58,16.172,16.172,0,0,1-1.781-4.3,1.3,1.3,0,0,0-1.244-.992l-3.311-.1V22l3.311-.1A1.319,1.319,0,0,0,9.062,20.9a16.22,16.22,0,0,1,1.781-4.3,1.306,1.306,0,0,0-.176-1.58L8.39,12.593l4.2-4.2L15,10.66a1.307,1.307,0,0,0,1.58.176,16.336,16.336,0,0,1,4.3-1.781,1.309,1.309,0,0,0,.992-1.244l.1-3.311h5.941l.1,3.311a1.319,1.319,0,0,0,.992,1.244,16.336,16.336,0,0,1,4.3,1.781,1.307,1.307,0,0,0,1.58-.176l2.42-2.269,4.2,4.2-2.269,2.42a1.307,1.307,0,0,0-.176,1.58,16.336,16.336,0,0,1,1.781,4.3,1.3,1.3,0,0,0,1.244.992l3.311.1v5.941l-3.311.1a1.319,1.319,0,0,0-1.244.992,16.336,16.336,0,0,1-1.781,4.3,1.306,1.306,0,0,0,.176,1.58l2.269,2.42ZM27.96,13.753A11.6,11.6,0,1,0,35,19.156,11.618,11.618,0,0,0,27.96,13.753Zm6.327,13.705a9.649,9.649,0,1,1-.966-7.319A9.6,9.6,0,0,1,34.288,27.458ZM81.067,59.523l-2.714-.084a15.561,15.561,0,0,0-1.26-3.05l1.857-1.975a1.261,1.261,0,0,0-.025-1.756l-4.151-4.151a1.253,1.253,0,0,0-1.756-.025l-1.975,1.857a14.867,14.867,0,0,0-3.05-1.26l-.084-2.714a1.256,1.256,0,0,0-1.26-1.218H60.774a1.261,1.261,0,0,0-1.26,1.218l-.084,2.714a15.351,15.351,0,0,0-3.05,1.26L54.4,48.482a1.253,1.253,0,0,0-1.756.025L48.5,52.658a1.253,1.253,0,0,0-.025,1.756l1.857,1.975a15.381,15.381,0,0,0-1.269,3.05l-2.706.084a1.245,1.245,0,0,0-1.218,1.26v5.874a1.256,1.256,0,0,0,1.218,1.26L49.06,68a14.9,14.9,0,0,0,1.269,3.05l-1.857,1.975a1.253,1.253,0,0,0,.025,1.756l4.151,4.151a1.253,1.253,0,0,0,1.756.025L56.379,77.1a15.381,15.381,0,0,0,3.05,1.269l.084,2.706a1.245,1.245,0,0,0,1.26,1.218h5.874a1.256,1.256,0,0,0,1.26-1.218h0l.084-2.706a15.351,15.351,0,0,0,3.05-1.26l1.975,1.857a1.261,1.261,0,0,0,1.756-.025l4.151-4.151a1.253,1.253,0,0,0,.025-1.756l-1.857-1.975a14.867,14.867,0,0,0,1.26-3.05l2.714-.084a1.256,1.256,0,0,0,1.218-1.26V60.792A1.252,1.252,0,0,0,81.067,59.523Zm-.723,6.462-2.554.076a1.254,1.254,0,0,0-1.185.95A13.19,13.19,0,0,1,75.16,70.5a1.243,1.243,0,0,0,.168,1.5l1.748,1.865-3.21,3.21L72,75.329a1.256,1.256,0,0,0-1.5-.168,13.19,13.19,0,0,1-3.487,1.445,1.256,1.256,0,0,0-.95,1.185l-.076,2.554H61.446l-.076-2.554a1.254,1.254,0,0,0-.95-1.185,13.075,13.075,0,0,1-3.487-1.445,1.231,1.231,0,0,0-1.5.168l-1.857,1.748-3.21-3.21L52.11,72.01a1.256,1.256,0,0,0,.168-1.5,13.244,13.244,0,0,1-1.445-3.5,1.256,1.256,0,0,0-1.185-.95l-2.554-.076V61.448l2.554-.076a1.254,1.254,0,0,0,1.185-.95,13.075,13.075,0,0,1,1.445-3.487,1.243,1.243,0,0,0-.168-1.5l-1.748-1.857,3.21-3.21,1.857,1.748a1.256,1.256,0,0,0,1.5.168,13.19,13.19,0,0,1,3.487-1.445,1.256,1.256,0,0,0,.95-1.185l.076-2.554h4.546l.076,2.554a1.254,1.254,0,0,0,.95,1.185A13.19,13.19,0,0,1,70.5,52.28a1.256,1.256,0,0,0,1.5-.168l1.865-1.748,3.21,3.21L75.336,55.44a1.256,1.256,0,0,0-.168,1.5,13.19,13.19,0,0,1,1.445,3.487,1.256,1.256,0,0,0,1.185.95l2.554.076v4.529ZM63.715,54.742a8.974,8.974,0,1,0,8.974,8.974A8.983,8.983,0,0,0,63.715,54.742Zm0,16.008a7.033,7.033,0,1,1,7.033-7.033A7.041,7.041,0,0,1,63.715,70.75ZM51.2,25.231l9.974,7.294a.97.97,0,0,0,1.546-.781V29.071c7.243.126,9.823,3.412,11.4,8.277a.974.974,0,0,0,.924.672h.025a.986.986,0,0,0,.916-.731c1.378-5.277.966-9.445-1.2-12.386-2.21-3-6.269-4.722-12.067-5.126v-2.63a.97.97,0,0,0-1.546-.781L51.2,23.66a.979.979,0,0,0,0,1.571Zm9.579-6.159V20.7a.978.978,0,0,0,.933.975c5.68.252,9.554,1.731,11.52,4.386,1.378,1.865,1.874,4.412,1.5,7.588a11.671,11.671,0,0,0-2.958-3.756c-2.286-1.865-5.395-2.773-9.5-2.773-.176,0-.353,0-.538.008a.977.977,0,0,0-.958.975v1.731L53.43,24.458ZM41.22,62.935l-9.974-7.294a.985.985,0,0,0-1.017-.084.973.973,0,0,0-.529.865v2.672c-7.243-.126-9.823-3.412-11.4-8.277a.966.966,0,0,0-.95-.672.989.989,0,0,0-.916.723c-1.378,5.277-.966,9.445,1.2,12.386,2.21,3,6.269,4.722,12.067,5.126v2.63a.964.964,0,0,0,.529.866,1.018,1.018,0,0,0,.437.109,1.006,1.006,0,0,0,.571-.185l9.974-7.294a.985.985,0,0,0,.008-1.571Zm-9.579,6.159v-1.63a.978.978,0,0,0-.933-.975c-5.68-.252-9.554-1.731-11.52-4.386-1.378-1.865-1.874-4.412-1.5-7.588a11.671,11.671,0,0,0,2.958,3.756c2.386,1.949,5.672,2.857,10.033,2.773a.977.977,0,0,0,.958-.975V58.339l7.353,5.378Zm-4.647-48.72-3.521,3.521-.546-.546a2.665,2.665,0,0,0-3.765,0,2.658,2.658,0,0,0,0,3.765l2.428,2.428a2.637,2.637,0,0,0,1.882.781h0a2.637,2.637,0,0,0,1.882-.781l5.4-5.4a2.662,2.662,0,1,0-3.765-3.765Zm2.386,2.395-5.4,5.4a.71.71,0,0,1-1.008,0l-2.428-2.428a.714.714,0,0,1,.5-1.218.686.686,0,0,1,.5.21l1.235,1.235a.974.974,0,0,0,1.378,0l4.21-4.21a.713.713,0,1,1,1.008,1.008Z" transform="translate(1138 65.44)" fill="#1c54f8" stroke="#1c54f7" stroke-width="0.4"></path></g></g></svg> 