<?xml version="1.0" encoding="UTF-8"?> <svg xmlns="http://www.w3.org/2000/svg" width="77" height="77" viewBox="0 0 77 77"><g id="Group_301" data-name="Group 301" transform="translate(-2874 -61)"><rect id="Rectangle_114" data-name="Rectangle 114" width="77" height="77" transform="translate(2874 61)" fill="#9b9b9b" opacity="0"></rect><g id="Group_293" data-name="Group 293" transform="translate(17.151 81)"><path id="Path_254" data-name="Path 254" d="M383.508,94.907a.649.649,0,0,0-.074,1.291c11.744,1.86,20.669,11.548,20.669,23.21a22.408,22.408,0,0,1-1.565,8.261h0a.649.649,0,1,0,1.207.476,23.71,23.71,0,0,0,1.656-8.738c0-12.325-9.431-22.539-21.763-24.492a.654.654,0,0,0-.129-.009Z" transform="translate(2516.677 -97.45)" fill="#1b54f8" stroke="#1b54f8" stroke-width="1" fill-rule="evenodd"></path><path id="Path_255" data-name="Path 255" d="M215.771,431.19a.651.651,0,0,0-.492.238,25.585,25.585,0,0,1-38.689.013.649.649,0,1,0-.992.836,26.88,26.88,0,0,0,40.674-.014h0a.649.649,0,0,0-.5-1.074Z" transform="translate(2700.09 -394.783)" fill="#1b54f8" stroke="#1b54f8" stroke-width="1" fill-rule="evenodd"></path><path id="Path_256" data-name="Path 256" d="M149.477,94.625a.639.639,0,0,0-.11.009c-12.443,1.867-21.986,12.127-21.986,24.525a23.7,23.7,0,0,0,1.579,8.537.649.649,0,1,0,1.211-.466,22.4,22.4,0,0,1-1.492-8.071c0-11.733,9.031-21.465,20.881-23.243h0a.649.649,0,0,0-.083-1.291Z" transform="translate(2742.58 -97.201)" fill="#1b54f8" stroke="#1b54f8" stroke-width="1" fill-rule="evenodd"></path><path id="Path_257" data-name="Path 257" d="M123.257,301.7a.649.649,0,0,0-.1,1.277l7.682,1.905-21.343,11.392a.653.653,0,0,0,.608,1.156l21.526-11.493-2.007,7.459h0a.649.649,0,1,0,1.237.345l2.392-8.878h0c.007-.013.014-.027.02-.04s0-.027,0-.04a.649.649,0,0,0-.1-.486v-.02a.649.649,0,0,0-.365-.243l-9.344-2.311h0a.638.638,0,0,0-.2-.02Z" transform="translate(2758.703 -280.29)" fill="#1b54f8" stroke="#1b54f8" stroke-width="1" fill-rule="evenodd"></path><path id="Path_258" data-name="Path 258" d="M392.655,301.7a.651.651,0,0,0-.121.02l-9.344,2.311h0a.648.648,0,0,0-.466.79l2.412,8.919a.652.652,0,1,0,1.257-.345l-2.027-7.479L405.85,317.4a.653.653,0,1,0,.608-1.156l-21.324-11.371,7.723-1.905a.649.649,0,0,0-.142-1.277h-.061Z" transform="translate(2516.832 -280.287)" fill="#1b54f8" stroke="#1b54f8" stroke-width="1" fill-rule="evenodd"></path><path id="Path_259" data-name="Path 259" d="M295.029,39.168a.649.649,0,0,0-.507.648L294.5,63l-5.756-5.392h0a.652.652,0,1,0-.892.952l6.851,6.385h.02a.649.649,0,0,0,.79.041.556.556,0,0,0,.061-.041h.02l6.79-6.527h0a.646.646,0,1,0-.892-.932l-5.7,5.452.02-23.128h0a.648.648,0,0,0-.669-.648.607.607,0,0,0-.122,0Z" transform="translate(2600.877 -48.164)" fill="#1b54f8" stroke="#1b54f8" stroke-width="1" fill-rule="evenodd"></path></g></g></svg> 