<?xml version="1.0" encoding="UTF-8"?> <svg xmlns="http://www.w3.org/2000/svg" xmlns:xlink="http://www.w3.org/1999/xlink" width="90" height="90" viewBox="0 0 90 90"><defs><clipPath id="clip-path"><rect id="Rectangle_4" data-name="Rectangle 4" width="90" height="90" transform="translate(810 66)" fill="#fff" stroke="#707070" stroke-width="1"></rect></clipPath></defs><g id="Mask_Group_4" data-name="Mask Group 4" transform="translate(-810 -66)" clip-path="url(#clip-path)"><g id="Group_8" data-name="Group 8" transform="translate(74.02 -156)"><path id="Path_25" data-name="Path 25" d="M38.749,51.528V47.01l3.2,3.2a2.8,2.8,0,0,0,3.885,0l4.382-4.382a2.727,2.727,0,0,0,0-3.868l-3.2-3.2h4.519A2.754,2.754,0,0,0,54.291,36V29.79a2.754,2.754,0,0,0-2.756-2.756H47.017l3.2-3.2a2.727,2.727,0,0,0,0-3.868l-4.382-4.382a2.8,2.8,0,0,0-3.885,0l-3.2,3.2V14.266a2.754,2.754,0,0,0-2.756-2.756H29.78a2.75,2.75,0,0,0-2.739,2.756v4.519l-3.2-3.2a2.8,2.8,0,0,0-3.885,0l-4.382,4.382a2.738,2.738,0,0,0,0,3.885l3.2,3.2H14.256A2.754,2.754,0,0,0,11.5,29.808v6.213a2.754,2.754,0,0,0,2.756,2.756h4.519l-3.2,3.2a2.738,2.738,0,0,0,0,3.885l4.382,4.382a2.8,2.8,0,0,0,3.885,0l3.2-3.2v4.519a2.75,2.75,0,0,0,2.739,2.756h6.213a2.754,2.754,0,0,0,2.756-2.756Zm-3.423-8.644v7.976H30.465V42.885a1.712,1.712,0,0,0-2.927-1.2l-5.631,5.631-3.44-3.44L24.1,38.246a1.712,1.712,0,0,0-1.2-2.927H14.923V30.458H22.9A1.69,1.69,0,0,0,24.474,29.4a1.715,1.715,0,0,0-.377-1.866L18.466,21.9l3.44-3.44,5.631,5.631a1.712,1.712,0,0,0,2.927-1.2V14.916h4.861v7.976a1.712,1.712,0,0,0,2.927,1.2l5.631-5.631,3.44,3.44-5.631,5.631a1.712,1.712,0,0,0,1.2,2.927h7.976v4.861H42.892a1.712,1.712,0,0,0-1.2,2.927l5.631,5.631-3.44,3.44-5.631-5.631a1.712,1.712,0,0,0-2.927,1.2Z" transform="translate(747.64 234.315)" fill="#1c54f8" stroke="#fff" stroke-width="1.4"></path><path id="Path_26" data-name="Path 26" d="M33.766,26.868a6.9,6.9,0,1,0-6.9,6.9A6.91,6.91,0,0,0,33.766,26.868Zm-6.9,3.475a3.475,3.475,0,1,1,3.475-3.475A3.477,3.477,0,0,1,26.868,30.343Z" transform="translate(753.668 240.335)" fill="#1c54f8" stroke="#fff" stroke-width="1.4"></path><path id="Path_27" data-name="Path 27" d="M69.595,64.614l-4.878-4.878A1.707,1.707,0,0,0,62.3,62.149L64.254,64.1H51.246A29.308,29.308,0,0,0,37.536,8.883H10.817l1.951-1.951a1.707,1.707,0,1,0-2.413-2.413L5.476,9.4a1.694,1.694,0,0,0-.5,1.215,1.768,1.768,0,0,0,.5,1.215l4.878,4.878a1.681,1.681,0,0,0,1.215.5,1.753,1.753,0,0,0,1.215-.5,1.7,1.7,0,0,0,0-2.413L10.834,12.34H23.842a29.308,29.308,0,0,0,13.71,55.218H64.272L62.32,69.509a1.7,1.7,0,0,0,0,2.413,1.681,1.681,0,0,0,1.215.5,1.753,1.753,0,0,0,1.215-.5l4.878-4.878a1.694,1.694,0,0,0,.5-1.215,1.768,1.768,0,0,0-.5-1.215ZM11.638,38.221a25.9,25.9,0,1,1,25.9,25.9A25.933,25.933,0,0,1,11.638,38.221Z" transform="translate(743 228.982)" fill="#1c54f8" stroke="#fff" stroke-width="1.4"></path></g></g></svg> 