<?xml version="1.0" encoding="UTF-8"?> <svg xmlns="http://www.w3.org/2000/svg" xmlns:xlink="http://www.w3.org/1999/xlink" width="90" height="90" viewBox="0 0 90 90"><defs><clipPath id="clip-path"><rect id="Rectangle_28" data-name="Rectangle 28" width="90" height="90" transform="translate(1137 1476)" fill="#fff"></rect></clipPath></defs><g id="Mask_Group_12" data-name="Mask Group 12" transform="translate(-1137 -1476)" clip-path="url(#clip-path)"><g id="Group_297" data-name="Group 297" transform="translate(136.648 264.752)"><path id="Path_260" data-name="Path 260" d="M197.347,33.6A31.945,31.945,0,0,0,165.2,65.291a31.421,31.421,0,0,0,9.376,22.374l-5.541,23.684a1.948,1.948,0,0,0,2.253,2.344l8.433-1.644,6.819,6.7a1.949,1.949,0,0,0,3.258-.883l5.388-20.944c.716.047,1.434.06,2.162.06s1.445-.014,2.162-.06l5.388,20.944a1.949,1.949,0,0,0,3.258.883l6.819-6.7,8.433,1.644a1.948,1.948,0,0,0,2.253-2.344l-5.541-23.684a31.424,31.424,0,0,0,9.376-22.374A31.945,31.945,0,0,0,197.347,33.6Zm0,3.9A27.8,27.8,0,1,1,169.1,65.291,27.99,27.99,0,0,1,197.347,37.5Zm0,10.959a16.836,16.836,0,1,0,17.047,16.834A16.974,16.974,0,0,0,197.347,48.457Zm0,3.9A12.94,12.94,0,1,1,184.2,65.291,13.02,13.02,0,0,1,197.347,52.354ZM177.9,90.528A32.189,32.189,0,0,0,191.29,96.4l-4.414,17.2-5.145-5.054a1.949,1.949,0,0,0-1.735-.517l-6.514,1.278Zm38.9,0,4.414,18.782-6.514-1.278a1.949,1.949,0,0,0-1.735.517L207.82,113.6l-4.414-17.2A32.191,32.191,0,0,0,216.8,90.527Z" transform="translate(848.152 1179.647)" fill="#1b54f8" stroke="#fff" stroke-width="1.5"></path></g></g></svg> 