<?xml version="1.0" encoding="UTF-8"?> <svg xmlns="http://www.w3.org/2000/svg" xmlns:xlink="http://www.w3.org/1999/xlink" width="90" height="90" viewBox="0 0 90 90"><defs><clipPath id="clip-path"><rect id="Rectangle_24" data-name="Rectangle 24" width="90" height="90" transform="translate(1278 470)" fill="#fff" stroke="#707070" stroke-width="1"></rect></clipPath></defs><g id="Mask_Group_20" data-name="Mask Group 20" transform="translate(-1278 -470)" clip-path="url(#clip-path)"><g id="Group_17" data-name="Group 17" transform="translate(-16.223 101.777)"><path id="Path_68" data-name="Path 68" d="M30.426,23.377a1.137,1.137,0,0,0-.843,1.1l-.009,1.135a8.684,8.684,0,0,0-1.285.716.151.151,0,0,1-.113-.019l-.981-.548a1.136,1.136,0,0,0-1.338.169,10.154,10.154,0,0,0-2.82,4.728,1.136,1.136,0,0,0,.544,1.285l1.022.571c-.022.24-.033.477-.033.714s.011.474.033.714l-1.022.571a1.137,1.137,0,0,0-.544,1.285,10.143,10.143,0,0,0,2.814,4.732,1.135,1.135,0,0,0,1.338.169l.985-.55a.157.157,0,0,1,.112-.021,13.764,13.764,0,0,0,1.3.756v1.1a1.136,1.136,0,0,0,.843,1.1,10.866,10.866,0,0,0,2.806.373h.128a10.873,10.873,0,0,0,2.665-.376,1.137,1.137,0,0,0,.843-1.1l.009-1.135a8.684,8.684,0,0,0,1.285-.716.151.151,0,0,1,.113.019l.981.549a1.135,1.135,0,0,0,1.338-.169,10.155,10.155,0,0,0,2.82-4.728,1.136,1.136,0,0,0-.544-1.285l-1.022-.571c.022-.24.033-.477.033-.714s-.011-.474-.033-.714l1.022-.571a1.137,1.137,0,0,0,.544-1.285A10.15,10.15,0,0,0,40.6,25.924a1.136,1.136,0,0,0-1.338-.169l-.985.55a.16.16,0,0,1-.112.021,13.8,13.8,0,0,0-1.3-.756v-1.1a1.136,1.136,0,0,0-.843-1.1A10.49,10.49,0,0,0,33.091,23,10.873,10.873,0,0,0,30.426,23.377ZM34.6,25.386v.184a2.311,2.311,0,0,0,1.347,2.11,6.364,6.364,0,0,1,.949.529,2.4,2.4,0,0,0,2.491.08l.216-.121a7.866,7.866,0,0,1,1.346,2.243l-.886.495a1.136,1.136,0,0,0-.562,1.2,5.645,5.645,0,0,1,0,2.227,1.136,1.136,0,0,0,.563,1.205l.885.494A7.882,7.882,0,0,1,39.6,38.28l-.213-.119a2.4,2.4,0,0,0-2.49.082,6.411,6.411,0,0,1-.949.529,2.311,2.311,0,0,0-1.347,2.11v.181a8.164,8.164,0,0,1-1.263.116,7.717,7.717,0,0,1-1.476-.113v-.184a2.311,2.311,0,0,0-1.347-2.11,6.418,6.418,0,0,1-.95-.529,2.4,2.4,0,0,0-2.49-.08l-.216.121a7.861,7.861,0,0,1-1.346-2.243l.886-.495a1.137,1.137,0,0,0,.562-1.2,5.645,5.645,0,0,1,0-2.227,1.136,1.136,0,0,0-.563-1.2l-.885-.494a7.882,7.882,0,0,1,1.35-2.241l.212.119a2.4,2.4,0,0,0,2.49-.081,6.411,6.411,0,0,1,.949-.529,2.311,2.311,0,0,0,1.347-2.11v-.181a8.164,8.164,0,0,1,1.263-.116,8.921,8.921,0,0,1,1.476.113Z" transform="translate(1305.997 379.997)" fill="#1c54f8"></path><path id="Path_69" data-name="Path 69" d="M28,32.545A4.545,4.545,0,1,0,32.545,28,4.545,4.545,0,0,0,28,32.545Zm4.545-2.272a2.272,2.272,0,1,1-2.272,2.272A2.272,2.272,0,0,1,32.545,30.272Z" transform="translate(1306.678 380.678)" fill="#1c54f8"></path><path id="Path_70" data-name="Path 70" d="M19,33.771A14.771,14.771,0,1,0,33.771,19,14.771,14.771,0,0,0,19,33.771Zm27.269,0a12.5,12.5,0,1,1-12.5-12.5A12.5,12.5,0,0,1,46.269,33.771Z" transform="translate(1305.452 379.452)" fill="#1c54f8"></path><path id="Path_71" data-name="Path 71" d="M7.817,14.635A6.817,6.817,0,1,0,1,7.817a6.817,6.817,0,0,0,6.817,6.817Zm0-11.362A4.545,4.545,0,1,1,3.272,7.817,4.545,4.545,0,0,1,7.817,3.272Z" transform="translate(1303 377)" fill="#1c54f8"></path><path id="Path_72" data-name="Path 72" d="M70.366,56.854l-9.09-5.681a1.136,1.136,0,0,0-1.738.964v4.545H12.954A5.688,5.688,0,0,1,7.272,51H5a7.962,7.962,0,0,0,7.954,7.954H59.538V63.5a1.136,1.136,0,0,0,1.738.964l9.09-5.681a1.136,1.136,0,0,0,0-1.927Zm-8.555,4.595V54.186l5.81,3.631Z" transform="translate(1303.545 383.811)" fill="#1c54f8"></path><path id="Path_73" data-name="Path 73" d="M63.226,14h-9.09A1.136,1.136,0,0,0,53,15.136v9.09a1.136,1.136,0,0,0,1.136,1.136h9.09a1.136,1.136,0,0,0,1.136-1.136v-9.09A1.136,1.136,0,0,0,63.226,14ZM62.09,23.09H55.272V16.272H62.09Z" transform="translate(1310.083 378.771)" fill="#1c54f8"></path><path id="Path_74" data-name="Path 74" d="M46,34.09h6.817a7.962,7.962,0,0,0,7.953-7.954V25H58.5v1.136a5.688,5.688,0,0,1-5.681,5.681H46Z" transform="translate(1309.13 380.269)" fill="#1c54f8"></path><path id="Path_75" data-name="Path 75" d="M62.857,13.954H65.13A7.962,7.962,0,0,0,57.176,6H14V8.272H57.176a5.688,5.688,0,0,1,5.681,5.681Z" transform="translate(1304.771 377.681)" fill="#1c54f8"></path><path id="Path_76" data-name="Path 76" d="M2.136,51.362h9.09a1.136,1.136,0,0,0,1.136-1.136v-9.09A1.136,1.136,0,0,0,11.226,40H2.136A1.136,1.136,0,0,0,1,41.136v9.09a1.136,1.136,0,0,0,1.136,1.136Zm1.136-9.09H10.09V49.09H3.272Z" transform="translate(1303 382.312)" fill="#1c54f8"></path><path id="Path_77" data-name="Path 77" d="M5,38.954V40.09H7.272V38.954a5.688,5.688,0,0,1,5.681-5.681h6.817V31H12.954A7.962,7.962,0,0,0,5,38.954Z" transform="translate(1303.545 381.086)" fill="#1c54f8"></path></g></g></svg> 