<?xml version="1.0" encoding="UTF-8"?> <svg xmlns="http://www.w3.org/2000/svg" xmlns:xlink="http://www.w3.org/1999/xlink" width="90" height="90" viewBox="0 0 90 90"><defs><clipPath id="clip-path"><rect id="Rectangle_10" data-name="Rectangle 10" width="90" height="90" transform="translate(787 354)" fill="#fff" stroke="#707070" stroke-width="1"></rect></clipPath></defs><g id="Mask_Group_13" data-name="Mask Group 13" transform="translate(-787 -354)" clip-path="url(#clip-path)"><g id="Group_242" data-name="Group 242" transform="translate(-364.11 27.906)"><path id="Path_320" data-name="Path 320" d="M201.987,347.972a14.383,14.383,0,1,0-10.173-4.213A14.386,14.386,0,0,0,201.987,347.972Zm0-20.925h0a6.539,6.539,0,1,1-4.623,1.915,6.542,6.542,0,0,1,4.623-1.915Z" transform="translate(970.816 60.748)" fill="#1b54f8" stroke="#fff" stroke-width="5"></path><path id="Path_321" data-name="Path 321" d="M417.972,131.987a14.385,14.385,0,1,0-4.213,10.173A14.389,14.389,0,0,0,417.972,131.987Zm-20.924,0a6.538,6.538,0,1,1,1.915,4.624A6.538,6.538,0,0,1,397.047,131.987Z" transform="translate(816.299 215.266)" fill="#1b54f8" stroke="#fff" stroke-width="5"></path><path id="Path_322" data-name="Path 322" d="M345.563,302.017,359.95,316.4l5.545-5.545-7.69-7.69h12.764a14.386,14.386,0,0,0,14.386-14.386V274.4h-7.847v14.386a6.538,6.538,0,0,1-6.539,6.539H357.8l7.69-7.69-5.545-5.545-14.386,14.386a3.922,3.922,0,0,0,0,5.545Z" transform="translate(850.624 95.089)" fill="#1b54f8" stroke="#fff" stroke-width="5"></path><path id="Path_323" data-name="Path 323" d="M182,133.347v14.386h7.847V133.347a6.538,6.538,0,0,1,6.539-6.539h12.764l-7.69,7.69L207,140.043l14.386-14.386a3.922,3.922,0,0,0,0-5.545L207,105.726l-5.545,5.545,7.69,7.69H196.386A14.386,14.386,0,0,0,182,133.347Z" transform="translate(975.11 224.368)" fill="#1b54f8" stroke="#fff" stroke-width="5"></path></g></g></svg> 