<?xml version="1.0" encoding="UTF-8"?> <!-- Generator: Adobe Illustrator 25.2.3, SVG Export Plug-In . SVG Version: 6.00 Build 0) --> <svg xmlns="http://www.w3.org/2000/svg" xmlns:xlink="http://www.w3.org/1999/xlink" version="1.1" id="Layer_1" x="0px" y="0px" viewBox="0 0 80 80" style="enable-background:new 0 0 80 80;" xml:space="preserve"> <style type="text/css"> .st0{fill:#1B54F8;stroke:#FFFFFF;stroke-width:0.5;} </style> <desc>Created with Sketch.</desc> <g id="Internet-of-Things"> <g id="Group-28" transform="translate(8.000000, 13.000000)"> <path id="Shape" class="st0" d="M54.3,19.5L47.6,8C48.4,7.2,49,6,49,4.7C49,2.1,46.8,0,44.2,0s-4.7,2.1-4.7,4.7s2.1,4.7,4.7,4.7 c0.3,0,0.6,0,0.9-0.1l6.7,11.6c0.3,0.5,0.7,0.7,1.2,0.7c0.2,0,0.5-0.1,0.7-0.2C54.4,21.1,54.7,20.2,54.3,19.5z M42.3,4.7 c0-1.1,0.9-1.9,1.9-1.9c1.1,0,1.9,0.9,1.9,1.9s-0.9,1.9-1.9,1.9C43.2,6.6,42.3,5.8,42.3,4.7z"></path> <path id="Shape_1_" class="st0" d="M49.3,43.7l6.9-11.4c1.1,0.3,2.4,0.2,3.5-0.4c2.3-1.3,3.1-4.1,1.9-6.4 c-1.3-2.3-4.1-3.1-6.4-1.9c-2.3,1.3-3.1,4.1-1.9,6.4c0.2,0.3,0.3,0.5,0.5,0.8l-6.9,11.4c-0.3,0.4-0.3,1,0,1.4 c0.1,0.2,0.3,0.4,0.5,0.5C48.1,44.5,48.9,44.3,49.3,43.7z M56.6,26.1c0.9-0.5,2.1-0.2,2.6,0.8c0.5,0.9,0.2,2.1-0.8,2.6 s-2.1,0.2-2.6-0.8C55.3,27.7,55.6,26.6,56.6,26.1z"></path> <path id="Shape_2_" class="st0" d="M7.7,35.6l6.6,11.5c-0.8,0.8-1.3,2-1.3,3.3c0,2.6,2.1,4.7,4.7,4.7s4.7-2.1,4.7-4.7 c0-2.6-2.1-4.7-4.7-4.7c-0.3,0-0.6,0-0.9,0.1l-6.7-11.6c-0.3-0.5-0.7-0.7-1.2-0.7c-0.2,0-0.5,0.1-0.7,0.2 C7.6,34.1,7.4,35,7.7,35.6z M19.7,50.4c0,1.1-0.9,1.9-1.9,1.9c-1.1,0-1.9-0.9-1.9-1.9c0-1.1,0.9-1.9,1.9-1.9 C18.8,48.5,19.7,49.4,19.7,50.4z"></path> <path id="Shape_3_" class="st0" d="M12.9,11.5L6,22.9c-1.1-0.3-2.4-0.2-3.5,0.4c-2.3,1.3-3.1,4.1-1.9,6.4C1.8,32,4.7,32.8,7,31.6 c2.3-1.3,3.1-4.1,1.9-6.4c-0.2-0.3-0.3-0.5-0.5-0.8L15.3,13c0.3-0.4,0.3-1,0-1.4c-0.1-0.2-0.3-0.4-0.5-0.5 C14.1,10.6,13.3,10.8,12.9,11.5z M5.6,29.1c-0.9,0.5-2.1,0.2-2.6-0.8c-0.5-0.9-0.2-2.1,0.8-2.6c0.9-0.5,2.1-0.2,2.6,0.8 C6.9,27.4,6.6,28.6,5.6,29.1z"></path> <path id="Shape_4_" class="st0" d="M35.5,3.6l-13.3,0c-0.3-1.1-1.1-2.2-2.2-2.8c-2.3-1.3-5.1-0.5-6.4,1.7 c-1.3,2.3-0.5,5.1,1.7,6.4s5.1,0.5,6.4-1.7c0.2-0.3,0.3-0.6,0.4-0.8l13.4,0c0.5,0,1-0.3,1.2-0.7c0.1-0.2,0.2-0.4,0.2-0.7 C36.9,4.2,36.3,3.6,35.5,3.6z M16.7,6.5C15.8,6,15.5,4.8,16,3.9c0.5-0.9,1.7-1.2,2.6-0.7s1.2,1.7,0.7,2.6 C18.8,6.7,17.6,7,16.7,6.5z"></path> <path id="Shape_5_" class="st0" d="M24.9,50.6c0,0.3,0.1,0.5,0.2,0.7c0.2,0.4,0.7,0.7,1.2,0.7l13.4,0c0.1,0.3,0.2,0.6,0.4,0.8 c1.3,2.3,4.2,3,6.4,1.7c2.3-1.3,3-4.2,1.7-6.4c-1.3-2.3-4.2-3-6.4-1.7C40.7,47,40,48,39.6,49.2l-13.3,0 C25.6,49.2,24.9,49.8,24.9,50.6z M42.5,51.4c-0.5-0.9-0.2-2.1,0.7-2.6c0.9-0.5,2.1-0.2,2.6,0.7c0.5,0.9,0.2,2.1-0.7,2.6 C44.2,52.6,43,52.3,42.5,51.4z"></path> <path id="Shape_6_" class="st0" d="M30.9,32.2c-2.5,0-4.6-2.1-4.6-4.6s2.1-4.6,4.6-4.6c2.5,0,4.6,2.1,4.6,4.6S33.4,32.2,30.9,32.2 z M30.9,25.6c-1.1,0-2,0.9-2,2c0,1.1,0.9,2,2,2c1.1,0,2-0.9,2-2C32.9,26.5,32,25.6,30.9,25.6z"></path> <path id="Path" class="st0" d="M22.6,28.9c-0.7,0-1.3-0.6-1.3-1.3c0-5.3,4.3-9.6,9.6-9.6c0.7,0,1.3,0.6,1.3,1.3 c0,0.7-0.6,1.3-1.3,1.3c-3.8,0-7,3.1-7,7C23.9,28.3,23.3,28.9,22.6,28.9z"></path> <path id="Path_1_" class="st0" d="M30.9,37.2c-0.7,0-1.3-0.6-1.3-1.3c0-0.7,0.6-1.3,1.3-1.3c3.8,0,7-3.1,7-7 c0-0.7,0.6-1.3,1.3-1.3s1.3,0.6,1.3,1.3C40.5,32.9,36.2,37.2,30.9,37.2z"></path> <path id="Path_2_" class="st0" d="M17.9,28.9c-0.7,0-1.3-0.6-1.3-1.3c0-7.9,6.4-14.3,14.3-14.3c0.7,0,1.3,0.6,1.3,1.3 c0,0.7-0.6,1.3-1.3,1.3c-6.4,0-11.7,5.2-11.7,11.7C19.2,28.3,18.6,28.9,17.9,28.9z"></path> <path id="Path_3_" class="st0" d="M30.9,41.9c-0.7,0-1.3-0.6-1.3-1.3s0.6-1.3,1.3-1.3c6.4,0,11.7-5.2,11.7-11.7 c0-0.7,0.6-1.3,1.3-1.3c0.7,0,1.3,0.6,1.3,1.3C45.2,35.5,38.8,41.9,30.9,41.9z"></path> </g> </g> </svg> 