<?xml version="1.0" encoding="UTF-8"?> <svg xmlns="http://www.w3.org/2000/svg" xmlns:xlink="http://www.w3.org/1999/xlink" width="61" height="61" viewBox="0 0 61 61"><defs><clipPath id="clip-path"><rect id="Rectangle_45" data-name="Rectangle 45" width="61" height="61" transform="translate(1220 411)" fill="#fff" stroke="#707070" stroke-width="1"></rect></clipPath></defs><g id="Mask_Group_38" data-name="Mask Group 38" transform="translate(-1220 -411)" clip-path="url(#clip-path)"><g id="Group_53" data-name="Group 53" transform="translate(1225.483 418.539)"><path id="Path_185" data-name="Path 185" d="M27.384,14.351a5.414,5.414,0,1,1-5.414,5.414,5.414,5.414,0,0,1,5.414-5.414Zm0,12A6.581,6.581,0,1,0,20.8,19.765a6.581,6.581,0,0,0,6.581,6.581ZM17.614,17.2a.585.585,0,0,1-.463.427l-2.57.448v3.38l2.573.449a.587.587,0,0,1,.463.427,10.037,10.037,0,0,0,1.048,2.528.584.584,0,0,1-.027.63l-1.5,2.135,2.388,2.391,2.136-1.5a.582.582,0,0,1,.63-.026,10.055,10.055,0,0,0,2.527,1.048.58.58,0,0,1,.426.463l.45,2.57h3.379L29.522,30a.583.583,0,0,1,.427-.463,10.074,10.074,0,0,0,2.527-1.048.582.582,0,0,1,.63.026l2.136,1.5,2.391-2.391-1.5-2.135a.583.583,0,0,1-.027-.63,10.013,10.013,0,0,0,1.048-2.526.586.586,0,0,1,.461-.429l2.57-.448V18.074l-2.57-.448a.585.585,0,0,1-.463-.427A9.989,9.989,0,0,0,36.1,14.672a.582.582,0,0,1,.027-.629l1.5-2.137-2.388-2.39-2.136,1.5a.585.585,0,0,1-.63.026A10.051,10.051,0,0,0,29.95,10a.584.584,0,0,1-.428-.463l-.449-2.573H25.694L25.245,9.53a.585.585,0,0,1-.427.463,10.055,10.055,0,0,0-2.527,1.048.585.585,0,0,1-.63-.026l-2.136-1.5-2.391,2.39,1.5,2.137a.583.583,0,0,1,.027.629A10.046,10.046,0,0,0,17.614,17.2ZM13.9,17.01a.583.583,0,0,0-.482.575v4.36a.582.582,0,0,0,.482.575l2.692.471a11.138,11.138,0,0,0,.885,2.128L15.9,27.355a.583.583,0,0,0,.065.747l3.084,3.084a.582.582,0,0,0,.748.065l2.237-1.571a11.152,11.152,0,0,0,2.126.885l.471,2.691a.583.583,0,0,0,.574.482h4.361a.583.583,0,0,0,.574-.482l.47-2.692a11.219,11.219,0,0,0,2.129-.885l2.236,1.571a.582.582,0,0,0,.748-.065L38.806,28.1a.582.582,0,0,0,.065-.747L37.3,25.118a11.2,11.2,0,0,0,.885-2.128l2.691-.47a.584.584,0,0,0,.478-.576v-4.36a.583.583,0,0,0-.483-.575l-2.691-.471a11.2,11.2,0,0,0-.885-2.128l1.571-2.236a.584.584,0,0,0-.065-.748L35.718,8.345a.582.582,0,0,0-.748-.065L32.734,9.85a11.223,11.223,0,0,0-2.129-.881l-.47-2.692a.583.583,0,0,0-.574-.483H25.2a.583.583,0,0,0-.574.483l-.47,2.692a11.2,11.2,0,0,0-2.127.881L19.795,8.28a.582.582,0,0,0-.748.065l-3.084,3.084a.584.584,0,0,0-.065.747l1.572,2.236a11.182,11.182,0,0,0-.885,2.128l-2.692.471ZM8.863,28.056,7.556,23.6a.578.578,0,0,1-.017-.255l.416-2.631a1.331,1.331,0,0,0-.018-.545c-.517-2.249-1.181-2.818-1.53-2.958-.123-.05-.5-.2-1.257.3a1.368,1.368,0,0,0-.639,1.108L3.669,32.235A1.9,1.9,0,0,0,4.31,33.82l9.414,8.586a1.553,1.553,0,0,1,.518,1.143l.022.991,9.746.035-.277-5.21v-.015a6.257,6.257,0,0,0-6.664-6.083.58.58,0,0,1-.432-.15l-4.491-4.1a1.939,1.939,0,1,0-2.614,2.866l5.591,5.1a.584.584,0,1,1-.787.863l-5.59-5.1a3.109,3.109,0,0,1-.2-4.388,3.035,3.035,0,0,1,.318-.3ZM25.282,50.33a.427.427,0,0,1-.427.425h0l-11.3-.039a.434.434,0,0,1-.3-.127.427.427,0,0,1-.124-.3l.014-4.156a.427.427,0,0,1,.427-.425h0l11.055.039h.249a.429.429,0,0,1,.425.427ZM9.074,19.909c-.492-2.138-1.223-3.373-2.235-3.779a2.468,2.468,0,0,0-2.334.416,2.552,2.552,0,0,0-1.161,2.007L2.506,32.164a3.047,3.047,0,0,0,1.018,2.517l9.414,8.589a.4.4,0,0,1,.139.306L13.1,44.61a1.6,1.6,0,0,0-1.124,1.516l-.015,4.157a1.6,1.6,0,0,0,1.588,1.6l11.3.04h0a1.6,1.6,0,0,0,1.594-1.588l.014-4.156a1.6,1.6,0,0,0-1.284-1.568l-.281-5.3a7.422,7.422,0,0,0-7.654-7.217l-4.313-3.935a3.085,3.085,0,0,0-2.236-.8,3.132,3.132,0,0,0-.784.137L8.71,23.4l.4-2.5a2.518,2.518,0,0,0-.034-.99ZM47.211,23.6,45.9,28.056a3.041,3.041,0,0,1,.319.3,3.11,3.11,0,0,1-.2,4.388l-5.591,5.1a.583.583,0,0,1-.786-.861l5.59-5.1a1.939,1.939,0,1,0-2.614-2.866l-4.491,4.1a.581.581,0,0,1-.432.15,6.257,6.257,0,0,0-6.664,6.08v.018l-.277,5.214,9.746-.035.022-.991a1.554,1.554,0,0,1,.519-1.147l9.414-8.586a1.9,1.9,0,0,0,.641-1.585l-.843-13.608a1.368,1.368,0,0,0-.638-1.106c-.758-.5-1.134-.354-1.258-.3-.349.139-1.013.709-1.53,2.956a1.321,1.321,0,0,0-.018.545l.416,2.631a.578.578,0,0,1-.017.255Zm-5.7,26.987a.431.431,0,0,1-.3.127l-11.3.039h0a.427.427,0,0,1-.426-.425l-.015-4.157a.429.429,0,0,1,.425-.427h.249L41.2,45.708h0a.427.427,0,0,1,.427.425l.014,4.156a.425.425,0,0,1-.124.3Zm2.554-23.237a3.082,3.082,0,0,0-2.236.8L37.52,32.093a7.422,7.422,0,0,0-7.651,7.216l-.281,5.3A1.6,1.6,0,0,0,28.3,46.178l.015,4.156a1.6,1.6,0,0,0,1.593,1.588h0l11.3-.04a1.6,1.6,0,0,0,1.587-1.6l-.014-4.157a1.6,1.6,0,0,0-1.124-1.516l.023-1.035a.4.4,0,0,1,.139-.305l9.413-8.59a3.051,3.051,0,0,0,1.019-2.517L51.42,18.555a2.552,2.552,0,0,0-1.159-2.007,2.468,2.468,0,0,0-2.334-.416c-1.012.4-1.743,1.641-2.235,3.779a2.549,2.549,0,0,0-.034.99l.4,2.5-1.2,4.088a3.132,3.132,0,0,0-.784-.137Z" transform="translate(-2.496 -5.794)" fill="#1c54f8" fill-rule="evenodd"></path></g></g></svg> 