<?xml version="1.0" encoding="UTF-8"?> <svg xmlns="http://www.w3.org/2000/svg" xmlns:xlink="http://www.w3.org/1999/xlink" width="60" height="60" viewBox="0 0 60 60"><defs><clipPath id="clip-path"><rect id="Rectangle_10" data-name="Rectangle 10" width="60" height="60" transform="translate(756 51)" fill="#fff" stroke="#707070" stroke-width="1"></rect></clipPath></defs><g id="Mask_Group_3" data-name="Mask Group 3" transform="translate(-756 -51)" clip-path="url(#clip-path)"><g id="Group_4" data-name="Group 4" transform="translate(78.45 -468)"><path id="Path_22" data-name="Path 22" d="M25.188,21.025a10.736,10.736,0,0,0,.965-2.326l2.034-.064a.777.777,0,0,0,.757-.777V13.646a.771.771,0,0,0-.757-.777L26.153,12.8a10.736,10.736,0,0,0-.965-2.326l1.4-1.485a.775.775,0,0,0-.015-1.084L23.589,4.931a.771.771,0,0,0-1.084-.015l-1.485,1.4a10.736,10.736,0,0,0-2.326-.965L18.63,3.312a.777.777,0,0,0-.777-.752H13.641a.77.77,0,0,0-.777.752L12.8,5.346a10.775,10.775,0,0,0-2.331.965l-1.48-1.4a.775.775,0,0,0-1.084.015L4.926,7.91a.771.771,0,0,0-.015,1.084l1.4,1.48A10.775,10.775,0,0,0,5.341,12.8l-2.034.059a.777.777,0,0,0-.757.777v4.212a.771.771,0,0,0,.757.777l2.034.059a10.775,10.775,0,0,0,.965,2.331l-1.4,1.48a.775.775,0,0,0,.015,1.084l2.979,2.974a.771.771,0,0,0,1.084.015l1.48-1.4a10.775,10.775,0,0,0,2.331.965l.059,2.034a.777.777,0,0,0,.777.757h4.212a.771.771,0,0,0,.777-.757l.059-2.034a10.775,10.775,0,0,0,2.331-.965l1.485,1.4a.775.775,0,0,0,1.084-.015l2.979-2.979a.775.775,0,0,0,.015-1.084ZM23.03,25.509,21.6,24.173a.77.77,0,0,0-.93-.1,9.622,9.622,0,0,1-2.534,1.049.767.767,0,0,0-.584.732L17.5,27.8H14l-.059-1.95a.777.777,0,0,0-.584-.732,9.553,9.553,0,0,1-2.534-1.049.769.769,0,0,0-.93.1l-1.42,1.336L5.995,23.035l1.336-1.42a.77.77,0,0,0,.1-.93A9.525,9.525,0,0,1,6.386,18.15a.767.767,0,0,0-.732-.584L3.7,17.507v-3.5l1.95-.059a.777.777,0,0,0,.732-.584A9.553,9.553,0,0,1,7.435,10.83a.769.769,0,0,0-.1-.93L5.99,8.469,8.464,5.995l1.42,1.336a.77.77,0,0,0,.93.1,9.622,9.622,0,0,1,2.534-1.049.771.771,0,0,0,.584-.732l.059-1.95h3.5l.059,1.95a.777.777,0,0,0,.584.732,9.622,9.622,0,0,1,2.534,1.049.77.77,0,0,0,.93-.1l1.425-1.336L25.5,8.469,24.163,9.895a.77.77,0,0,0-.1.93,9.622,9.622,0,0,1,1.049,2.534.767.767,0,0,0,.732.584l1.95.059v3.5l-1.95.059a.777.777,0,0,0-.732.584,9.622,9.622,0,0,1-1.049,2.534.769.769,0,0,0,.1.93L25.5,23.035ZM17.516,9.152a6.833,6.833,0,1,0,4.147,3.182A6.843,6.843,0,0,0,17.516,9.152Zm3.727,8.072a5.683,5.683,0,1,1-.569-4.311A5.656,5.656,0,0,1,21.243,17.224ZM48.8,36.11l-1.6-.049a9.165,9.165,0,0,0-.742-1.8L47.548,33.1a.743.743,0,0,0-.015-1.034l-2.445-2.445a.738.738,0,0,0-1.034-.015L42.891,30.7a8.757,8.757,0,0,0-1.8-.742l-.049-1.6a.74.74,0,0,0-.742-.718H36.843a.743.743,0,0,0-.742.718l-.049,1.6a9.041,9.041,0,0,0-1.8.742l-1.163-1.094a.738.738,0,0,0-1.034.015l-2.445,2.445A.738.738,0,0,0,29.6,33.1l1.094,1.163a9.059,9.059,0,0,0-.747,1.8l-1.594.049a.733.733,0,0,0-.718.742v3.459a.74.74,0,0,0,.718.742l1.594.049a8.774,8.774,0,0,0,.747,1.8L29.6,44.064a.738.738,0,0,0,.015,1.034l2.445,2.445a.738.738,0,0,0,1.034.015l1.163-1.094a9.059,9.059,0,0,0,1.8.747l.049,1.594a.733.733,0,0,0,.742.718H40.3a.74.74,0,0,0,.742-.718h0l.049-1.594a9.042,9.042,0,0,0,1.8-.742l1.163,1.094a.743.743,0,0,0,1.034-.015L47.533,45.1a.738.738,0,0,0,.015-1.034l-1.094-1.163a8.757,8.757,0,0,0,.742-1.8l1.6-.049a.74.74,0,0,0,.718-.742V36.858A.738.738,0,0,0,48.8,36.11Zm-.426,3.806-1.5.045a.739.739,0,0,0-.7.559,7.768,7.768,0,0,1-.851,2.054.732.732,0,0,0,.1.886l1.029,1.1-1.891,1.891-1.1-1.029a.74.74,0,0,0-.886-.1,7.769,7.769,0,0,1-2.054.851.74.74,0,0,0-.559.7l-.045,1.5H37.239l-.045-1.5a.739.739,0,0,0-.559-.7,7.7,7.7,0,0,1-2.054-.851.725.725,0,0,0-.886.1L32.6,46.449l-1.891-1.891,1.029-1.094a.739.739,0,0,0,.1-.886,7.8,7.8,0,0,1-.851-2.059.74.74,0,0,0-.7-.559l-1.5-.045V37.244l1.5-.045a.739.739,0,0,0,.7-.559,7.7,7.7,0,0,1,.851-2.054.732.732,0,0,0-.1-.886l-1.029-1.094L32.6,30.716,33.7,31.745a.74.74,0,0,0,.886.1,7.769,7.769,0,0,1,2.054-.851.74.74,0,0,0,.559-.7l.045-1.5h2.678l.045,1.5a.739.739,0,0,0,.559.7,7.769,7.769,0,0,1,2.054.851.739.739,0,0,0,.886-.1l1.1-1.029,1.891,1.891-1.029,1.1a.739.739,0,0,0-.1.886,7.769,7.769,0,0,1,.851,2.054.74.74,0,0,0,.7.559l1.5.045v2.668Zm-9.794-6.622a5.286,5.286,0,1,0,5.286,5.286A5.291,5.291,0,0,0,38.575,33.294Zm0,9.428a4.142,4.142,0,1,1,4.142-4.142A4.147,4.147,0,0,1,38.575,42.723Zm-7.369-26.81,5.875,4.3a.571.571,0,0,0,.911-.46V18.175c4.266.074,5.786,2.009,6.716,4.875a.573.573,0,0,0,.544.4h.015a.581.581,0,0,0,.539-.431c.812-3.108.569-5.563-.708-7.3-1.3-1.767-3.692-2.781-7.107-3.019V11.152a.571.571,0,0,0-.911-.46l-5.875,4.3a.577.577,0,0,0,0,.925Zm5.642-3.628v.96a.576.576,0,0,0,.549.574c3.346.148,5.627,1.02,6.785,2.583a6.113,6.113,0,0,1,.881,4.469,6.874,6.874,0,0,0-1.742-2.212,8.541,8.541,0,0,0-5.593-1.633c-.1,0-.208,0-.317,0a.576.576,0,0,0-.564.574v1.02l-4.331-3.167ZM25.326,38.12l-5.875-4.3a.58.58,0,0,0-.6-.049.573.573,0,0,0-.312.51v1.574c-4.266-.074-5.786-2.009-6.716-4.875a.569.569,0,0,0-.559-.4.582.582,0,0,0-.539.426c-.812,3.108-.569,5.563.708,7.3,1.3,1.767,3.692,2.781,7.107,3.019v1.549a.568.568,0,0,0,.312.51.6.6,0,0,0,.257.064.593.593,0,0,0,.337-.109l5.875-4.3a.58.58,0,0,0,0-.925Zm-5.642,3.628v-.96a.576.576,0,0,0-.549-.574c-3.346-.148-5.627-1.02-6.785-2.583a6.113,6.113,0,0,1-.881-4.469,6.874,6.874,0,0,0,1.742,2.212,8.754,8.754,0,0,0,5.909,1.633.576.576,0,0,0,.564-.574v-1.02l4.331,3.167Zm-2.737-28.7-2.074,2.074-.322-.322a1.57,1.57,0,0,0-2.217,0,1.565,1.565,0,0,0,0,2.217l1.43,1.43a1.553,1.553,0,0,0,1.109.46h0a1.553,1.553,0,0,0,1.109-.46l3.182-3.182a1.568,1.568,0,1,0-2.217-2.217Zm1.406,1.411L15.17,17.645a.418.418,0,0,1-.594,0l-1.43-1.43a.421.421,0,0,1,.3-.718.4.4,0,0,1,.3.124l.728.728a.574.574,0,0,0,.812,0l2.48-2.48a.42.42,0,1,1,.594.594Z" transform="translate(682 523.44)" fill="#1c54f8"></path></g></g></svg> 