<?xml version="1.0" encoding="UTF-8"?> <!-- Generator: Adobe Illustrator 25.2.3, SVG Export Plug-In . SVG Version: 6.00 Build 0) --> <svg xmlns="http://www.w3.org/2000/svg" xmlns:xlink="http://www.w3.org/1999/xlink" version="1.1" id="Layer_1" x="0px" y="0px" viewBox="0 0 94 94" style="enable-background:new 0 0 94 94;" xml:space="preserve"> <style type="text/css"> .st0{fill:#1B54F8;} </style> <g> <g> <path class="st0" d="M75.8,59.8c-3.8,0-6.9,2.6-7.8,6.1h-3.2c-1.3,0-2.3-1-2.3-2.3V52.3h3.7c8.9,0,16.1-7.2,16.1-16.1 c0-9.5-8.4-17.3-18.1-16c-4-6.5-10.9-10.4-18.4-10.4c-9.2,0-17.2,5.9-20.1,14.5c-7.6-0.2-14,6.3-14,14s6.3,14,14,14h5.8v11.3 c0,1.3-1,2.3-2.3,2.3H26c-0.9-3.5-4.1-6.1-7.8-6.1c-4.5,0-8.1,3.6-8.1,8.1s3.7,8.1,8.1,8.1c3.8,0,6.9-2.6,7.8-6.1h3.2 c3.5,0,6.4-2.9,6.4-6.4V52.3H45v16c-3.5,0.9-6.1,4.1-6.1,7.8c0,4.5,3.6,8.1,8.1,8.1s8.1-3.6,8.1-8.1c0-3.8-2.6-6.9-6.1-7.8v-16 h9.4v11.3c0,3.5,2.9,6.4,6.4,6.4H68c0.9,3.5,4.1,6.1,7.8,6.1c4.5,0,8.1-3.6,8.1-8.1C83.8,63.5,80.2,59.8,75.8,59.8z M18.1,72 c-2.2,0-4-1.9-4-4.1s1.8-4.1,4.1-4.1s4.1,1.8,4.1,4.1C22.2,70.2,20.3,72,18.1,72z M51,76c0,2.3-1.8,4.1-4.1,4.1s-4.1-1.8-4.1-4.1 c0-2.3,1.8-4,4.1-4S51,73.8,51,76z M25.6,48.2c-5.5,0-9.9-4.5-9.9-9.9s4.5-9.9,9.9-9.9c0.3,0,0.6,0.1,1.3,0.2c1,0.1,2-0.5,2.2-1.6 c1.9-7.7,8.8-13.1,16.7-13.1c6.5,0,12.4,3.6,15.3,9.5c0.4,0.9,1.3,1.3,2.3,1.1c0.9-0.2,1.8-0.3,2.7-0.3c6.6,0,12,5.4,12,12 s-5.4,12-12,12C66.1,48.2,25.6,48.2,25.6,48.2z M75.8,72c-2.3,0-4.1-1.8-4.1-4.1c0-2.3,1.8-4.1,4.1-4.1c2.3,0,4.1,1.8,4.1,4.1 S78,72,75.8,72z"></path> <path class="st0" d="M47,84.8c-4.8,0-8.7-3.9-8.7-8.7c0-3.8,2.5-7.1,6.1-8.3V52.9h-8.2v10.7c0,3.9-3.1,7-7,7h-2.8 c-1.2,3.6-4.5,6.1-8.3,6.1c-4.8,0-8.7-3.9-8.7-8.7s3.9-8.7,8.7-8.7c3.8,0,7.1,2.5,8.3,6.1h2.8c1,0,1.8-0.8,1.8-1.8V52.9h-5.2 c-8,0-14.6-6.5-14.6-14.6c0-3.9,1.6-7.7,4.4-10.5c2.7-2.6,6.1-4.1,9.7-4.1C28.4,15,36.6,9.2,45.8,9.2c7.6,0,14.5,3.9,18.5,10.4 c4.7-0.5,9.1,0.9,12.7,4c3.7,3.2,5.7,7.8,5.7,12.6c0,9.2-7.5,16.7-16.7,16.7h-3v10.7c0,1,0.8,1.8,1.8,1.8h2.8 c1.2-3.6,4.5-6.1,8.3-6.1c4.7,0,8.6,3.9,8.8,8.7c0,4.8-3.9,8.7-8.7,8.7c-3.8,0-7.1-2.5-8.3-6.1h-2.8c-3.9,0-7-3.1-7-7V52.9h-8.2 v14.9c3.6,1.2,6.1,4.5,6.1,8.3C55.7,80.9,51.8,84.8,47,84.8z M35,51.7h10.6v17l-0.4,0.1c-3.3,0.9-5.7,3.9-5.7,7.3 c0,4.2,3.4,7.5,7.5,7.5c4.2,0,7.5-3.4,7.5-7.5c0-3.4-2.3-6.4-5.7-7.3l-0.4-0.1v-17H59v11.9c0,3.2,2.6,5.8,5.8,5.8h3.7l0.1,0.4 c0.9,3.3,3.9,5.7,7.3,5.7c4.2,0,7.5-3.4,7.5-7.5c-0.1-4.2-3.6-7.5-7.6-7.5c-3.4,0-6.4,2.3-7.3,5.7l-0.1,0.4h-3.7 c-1.6,0-2.9-1.3-2.9-2.9v-12h4.3c8.6,0,15.5-7,15.5-15.5c0-4.5-1.9-8.8-5.3-11.7c-3.4-3-7.7-4.2-12.1-3.6L63.8,21l-0.2-0.3 c-3.7-6.3-10.4-10.1-17.7-10.1c-8.9,0-16.7,5.7-19.5,14.1l-0.1,0.4h-0.4c-3.4-0.1-6.8,1.3-9.3,3.8c-2.6,2.5-4.1,6.1-4.1,9.6 c0,7.4,6,13.4,13.4,13.4h6.4v11.9c0,1.6-1.3,2.9-2.9,2.9h-3.7L25.4,66c-0.9-3.3-3.9-5.7-7.3-5.7c-4.2,0-7.5,3.4-7.5,7.5 c0,4.2,3.4,7.5,7.5,7.5c3.4,0,6.4-2.3,7.3-5.7l0.1-0.4h3.7c3.2,0,5.8-2.6,5.8-5.8V51.7z M46.9,80.6c-2.6,0-4.7-2-4.7-4.7 c0-2.6,2-4.6,4.7-4.6c2.6,0,4.7,2.1,4.7,4.6C51.6,78.6,49.5,80.6,46.9,80.6z M46.9,72.6c-2,0-3.5,1.5-3.5,3.4c0,2,1.5,3.5,3.5,3.5 s3.5-1.5,3.5-3.5C50.4,74.1,48.8,72.6,46.9,72.6z M75.8,72.6c-2.6,0-4.7-2-4.7-4.7c0-2.6,2-4.7,4.7-4.7c2.6,0,4.7,2,4.7,4.7 C80.4,70.5,78.4,72.6,75.8,72.6z M75.8,64.4c-2,0-3.5,1.5-3.5,3.5s1.5,3.5,3.5,3.5c1.9,0,3.5-1.6,3.5-3.5S77.7,64.4,75.8,64.4z M18.1,72.6c-2.5,0-4.6-2.1-4.6-4.7s2.1-4.7,4.7-4.7s4.7,2,4.7,4.7C22.8,70.5,20.7,72.6,18.1,72.6z M18.1,64.4 c-1.9,0-3.5,1.6-3.5,3.5s1.6,3.5,3.4,3.5c2,0,3.6-1.6,3.6-3.5S20.1,64.4,18.1,64.4z M66,48.8H25.6c-5.8,0-10.5-4.7-10.5-10.5 s4.7-10.5,10.5-10.5c0.2,0,0.4,0,0.7,0.1c0.2,0,0.3,0.1,0.6,0.1c0.7,0.1,1.4-0.4,1.5-1.1c2-8,9-13.5,17.2-13.5 c6.7,0,12.8,3.7,15.9,9.8c0.3,0.6,0.9,0.9,1.6,0.8c0.9-0.2,1.7-0.3,2.8-0.3c7,0,12.6,5.7,12.6,12.6S73,48.8,66,48.8z M25.6,28.9 c-5.2,0-9.3,4.2-9.3,9.3s4.2,9.3,9.3,9.3H66c6.3,0,11.5-5.1,11.5-11.5c0-6.3-5.1-11.5-11.5-11.5c-0.9,0-1.7,0.1-2.5,0.3 c-1.3,0.2-2.5-0.4-2.9-1.4c-2.8-5.6-8.5-9.1-14.8-9.1c-7.7,0-14.3,5.2-16.1,12.6c-0.3,1.3-1.5,2.1-2.8,2c-0.3,0-0.5-0.1-0.6-0.1 C26,29,25.8,28.9,25.6,28.9z"></path> </g> <g> <path class="st0" d="M46.9,23.6c-4.5,0-8.8,1.7-12,4.9c-0.8,0.8-0.8,2.1,0,2.9c0.8,0.8,2.1,0.8,2.9,0c4.8-4.8,13.4-4.8,18.1,0 c0.4,0.4,0.9,0.6,1.4,0.6s1-0.2,1.4-0.5c0.8-0.8,0.8-2,0-2.9C55.8,25.4,51.4,23.6,46.9,23.6z"></path> <path class="st0" d="M57.4,32.6c-0.6,0-1.3-0.3-1.8-0.8c-4.6-4.6-12.7-4.6-17.3,0c-1,1-2.7,1-3.7,0s-1-2.7,0-3.7 C37.9,24.8,42.3,23,47,23s9.2,1.9,12.3,5.2c1,1.1,1,2.7,0,3.7C58.8,32.4,58.1,32.6,57.4,32.6z M46.9,27.2c3.5,0,7,1.3,9.5,3.8 c0.3,0.3,0.7,0.5,1,0.5c0.4,0,0.7-0.1,1-0.4c0.6-0.6,0.6-1.5,0-2.1c-2.9-3.1-7.1-4.8-11.5-4.8s-8.5,1.7-11.6,4.8 c-0.5,0.5-0.5,1.5,0,2.1c0.5,0.5,1.5,0.5,2.1,0C40,28.5,43.4,27.2,46.9,27.2z"></path> </g> <g> <path class="st0" d="M39.9,33.4c-0.8,0.8-0.8,2.1,0,2.9c0.8,0.8,2.1,0.8,2.9,0c2.3-2.3,6.1-2.3,8.4,0c0.4,0.4,0.9,0.6,1.4,0.6 s1-0.2,1.4-0.6c0.8-0.8,0.8-2.1,0-2.9C50.2,29.7,43.6,29.7,39.9,33.4z"></path> <path class="st0" d="M52.6,37.5c-0.6,0-1.3-0.3-1.8-0.8c-2-2-5.5-2-7.5,0c-1,1-2.7,1-3.7,0s-1-2.7,0-3.7c4-4,10.9-4,14.9,0 c0.5,0.5,0.8,1.2,0.8,1.9s-0.3,1.4-0.8,1.9C53.9,37.2,53.2,37.5,52.6,37.5z M47,34c1.7,0,3.4,0.6,4.6,1.9c0.3,0.3,0.7,0.5,1,0.5 s0.7-0.2,1-0.5s0.4-0.6,0.4-1s-0.1-0.8-0.4-1c-3.5-3.5-9.7-3.5-13.2,0c-0.5,0.5-0.5,1.5,0,2.1c0.5,0.5,1.5,0.5,2.1,0 C43.6,34.7,45.3,34,47,34z"></path> </g> <g> <circle class="st0" cx="46.9" cy="40.5" r="3.1"></circle> <path class="st0" d="M46.9,44.1c-2,0-3.6-1.6-3.6-3.6s1.6-3.6,3.6-3.6s3.6,1.6,3.6,3.6S48.9,44.1,46.9,44.1z M46.9,38 c-1.4,0-2.5,1.1-2.5,2.5s1.1,2.5,2.5,2.5s2.5-1.1,2.5-2.5S48.3,38,46.9,38z"></path> </g> </g> </svg> 