<?xml version="1.0" encoding="UTF-8"?> <!-- Generator: Adobe Illustrator 25.2.2, SVG Export Plug-In . SVG Version: 6.00 Build 0) --> <svg xmlns="http://www.w3.org/2000/svg" xmlns:xlink="http://www.w3.org/1999/xlink" version="1.1" id="Layer_1" x="0px" y="0px" viewBox="0 0 80 80" style="enable-background:new 0 0 80 80;" xml:space="preserve"> <style type="text/css"> .st0{fill:#1B54F8;} </style> <path class="st0" d="M37.6,29c-7.3,0-14.2-2.9-19.4-8l-0.5-0.5l0.5-0.5C28.9,9.3,46.3,9.3,57,20l0.5,0.5L57,21 C51.9,26.1,44.9,29,37.6,29z M19.7,20.5c4.8,4.6,11.2,7.1,17.9,7.1c6.7,0,13.1-2.5,17.9-7.1C45.4,11,29.7,11,19.7,20.5z"></path> <path class="st0" d="M37.6,66.9h-0.1c-7.2,0-14.1-2.9-19.3-8l-0.5-0.5l0.5-0.5c5.1-5.1,12.1-8,19.4-8c1.1,0,2.2,0.1,3.3,0.2 l-0.2,1.4c-1.1-0.1-2.1-0.2-3.2-0.2c-6.7,0-13.1,2.5-17.9,7.1c4.8,4.5,11.2,7.1,17.8,7.1h0.1c2.7,0,5.4-0.4,7.9-1.2l0.4,1.3 C43.2,66.5,40.4,66.9,37.6,66.9z"></path> <path class="st0" d="M37.6,66.9h-0.1C22.3,66.9,10,54.5,10.1,39.3C10.2,24.2,22.5,11.9,37.7,12c14.2,0.1,25.9,10.9,27.2,25l-1.4,0.1 c-1.3-14.3-14-24.9-28.3-23.6s-24.9,14-23.6,28.3C12.8,55.2,24,65.5,37.5,65.6h0.1c2.7,0,5.4-0.4,7.9-1.2l0.4,1.3 C43.2,66.5,40.4,66.9,37.6,66.9z"></path> <path class="st0" d="M46.4,59.9c-1.4-2.5-2.2-5.3-2.4-8.2l0,0v-0.2c0-5,3-9.5,7.6-11.5c1.6-0.7,3.3-1,5-1v1.4 c-6.1,0-11.1,4.9-11.2,11.1c0,0,0,0,0,0v0.2c0.2,2.7,0.9,5.3,2.2,7.6L46.4,59.9z"></path> <path class="st0" d="M37.6,67h-0.1c-2.9-0.2-5.6-1.5-7.5-3.8c-2.4-2.7-4.2-5.9-5.2-9.4c-1.5-4.6-2.2-9.5-2.2-14.3 c0-4.9,0.7-9.7,2.2-14.3c1.1-3.5,2.9-6.7,5.3-9.5c1.9-2.2,4.6-3.6,7.6-3.7c2.9,0.1,5.7,1.5,7.6,3.7c2.4,2.7,4.2,6,5.3,9.4 c1.1,3.5,1.8,7,2.1,10.7l-1.4,0.1c-0.2-3.5-0.9-7-2-10.3c-1-3.3-2.7-6.3-5-8.9c-1.6-2-4-3.1-6.6-3.3c-2.5,0.1-4.9,1.3-6.5,3.3 c-2.3,2.6-4,5.6-5,8.9c-1.4,4.5-2.2,9.2-2.1,13.9c0,4.7,0.7,9.4,2.1,13.9c1,3.3,2.7,6.3,5,8.9c1.6,1.9,4,3.1,6.5,3.3h0.1 c2.5-0.1,4.8-1.2,6.4-3.1l1,1C43.1,65.6,40.4,66.9,37.6,67z"></path> <rect x="36.9" y="12.7" class="st0" width="1.4" height="53.5"></rect> <rect x="10.8" y="38.8" class="st0" width="34.9" height="1.4"></rect> <path class="st0" d="M56.6,72.6l-0.5-0.4c-2.7-2.5-5.2-5.3-7.3-8.3c-0.9-1.3-1.7-2.6-2.4-4c-1.4-2.5-2.2-5.3-2.4-8.2l0,0v-0.2 c-0.2-6.9,5.3-12.7,12.2-12.9S69,43.7,69.2,50.7c0,0.2,0,0.5,0,0.7c-0.1,2.6-0.7,5.3-1.9,7.6c-1.1,2.4-2.5,4.6-4.2,6.6 c-1.8,2.3-3.8,4.5-6,6.5L56.6,72.6z M45.5,51.6c0.2,2.7,0.9,5.3,2.2,7.6c0.7,1.3,1.5,2.6,2.3,3.9c1.9,2.7,4.2,5.3,6.6,7.6 c1.9-1.8,3.7-3.8,5.4-5.9c2.6-3.4,5.8-8.5,5.8-13.4c0.2-6.2-4.7-11.3-10.8-11.5s-11.3,4.7-11.5,10.8c0,0.2,0,0.4,0,0.7L45.5,51.6 L45.5,51.6z"></path> <path class="st0" d="M56.6,55.4c-2.2,0-4.1-1.8-4.1-4.1c0-2.2,1.8-4.1,4.1-4.1c2.2,0,4.1,1.8,4.1,4.1c0,0,0,0,0,0.1 C60.6,53.6,58.8,55.4,56.6,55.4z M56.6,48.7c-1.5,0-2.7,1.2-2.7,2.7s1.2,2.7,2.7,2.7s2.7-1.2,2.7-2.7c0,0,0,0,0,0 C59.3,49.9,58.1,48.7,56.6,48.7z"></path> </svg> 