<?xml version="1.0" encoding="UTF-8"?> <svg xmlns="http://www.w3.org/2000/svg" xmlns:xlink="http://www.w3.org/1999/xlink" width="60" height="60" viewBox="0 0 60 60"><defs><clipPath id="clip-path"><rect id="Rectangle_12" data-name="Rectangle 12" width="60" height="60" transform="translate(295 239)" fill="#fff" stroke="#707070" stroke-width="1"></rect></clipPath></defs><g id="Mask_Group_5" data-name="Mask Group 5" transform="translate(-295 -239)" clip-path="url(#clip-path)"><g id="Group_6" data-name="Group 6" transform="translate(-81 55)"><path id="Path_24" data-name="Path 24" d="M49.712,24.488a6.7,6.7,0,0,0-4.857-6.433,3.218,3.218,0,0,1,1.069-1.84A6.89,6.89,0,0,0,48.233,10.7a7.235,7.235,0,0,0-2.141-4.8A6.995,6.995,0,0,0,34.751,8.206a7.144,7.144,0,0,0-4.927,1.737,5.784,5.784,0,0,0-1.839,4.4.7.7,0,0,0,1.41,0,4.355,4.355,0,0,1,1.382-3.36,5.707,5.707,0,0,1,3.54-1.362,7.776,7.776,0,0,0-.14,1.079,6.886,6.886,0,0,0,2.309,5.516c1.21,1.1,1.192,2.252,1.167,3.853,0,.228-.007.462-.007.7a1.727,1.727,0,0,0,.545,1.262,4.278,4.278,0,0,0,2.839.869l.175,0a4.456,4.456,0,0,0,3.015-.867,1.727,1.727,0,0,0,.545-1.262c0-.238,0-.472-.007-.7,0-.2-.006-.385-.007-.568a5.276,5.276,0,0,1,1.938,8.786.7.7,0,0,0-.1.085.324.324,0,0,0-.022.025,5.257,5.257,0,0,1-3.546,1.372.7.7,0,0,0,0,1.41A6.652,6.652,0,0,0,47.06,29.82,5.217,5.217,0,0,1,48.3,33.225a5.3,5.3,0,0,1-3.188,4.848,6.7,6.7,0,0,0-6.352-4.593.7.7,0,0,0,0,1.41A5.279,5.279,0,0,1,39.8,45.346a6.035,6.035,0,0,0,.33-1.974.7.7,0,0,0-1.41,0,4.661,4.661,0,0,1-9.322,0V32.753h2.157a.705.705,0,0,0,.7-.7v-.9H35.1a.7.7,0,0,0,0-1.41H32.255V28.207h5.077a2.3,2.3,0,1,0-.1-1.409H32.255V25.271H35.1a.7.7,0,0,0,0-1.41H32.255v-.905a.7.7,0,0,0-.7-.7H29.377l-.029-1.193a2.3,2.3,0,1,0-1.409.034l.029,1.159H25.833V14.342A6.066,6.066,0,0,0,14.8,10.863,6.687,6.687,0,0,0,8.4,18.241,6.686,6.686,0,0,0,5.73,28.855,6.716,6.716,0,0,0,4.1,33.225a6.649,6.649,0,0,0,.97,3.469l-.756.79a.7.7,0,0,0-.007.966L5.32,39.537a5.846,5.846,0,0,0-.25.671l-1.416.1A.7.7,0,0,0,3,41.03l.051,2.3a.705.705,0,0,0,.678.689l1.481.055a5.879,5.879,0,0,0,.3.65L4.58,45.8a.7.7,0,0,0,.047.97l1.661,1.589a.705.705,0,0,0,.966.007L8.34,47.357a5.848,5.848,0,0,0,.671.25l.1,1.416a.7.7,0,0,0,.7.653h.016l2.3-.051a.705.705,0,0,0,.689-.678l.055-1.481a5.88,5.88,0,0,0,.65-.3L14.6,48.1a.7.7,0,0,0,.97-.047l.151-.157a6.062,6.062,0,0,0,10.109-4.521.7.7,0,1,0-1.41,0,4.652,4.652,0,0,1-7.724,3.5l.464-.485a.7.7,0,0,0,.007-.966l-1.008-1.086a5.846,5.846,0,0,0,.25-.671l1.416-.1a.7.7,0,0,0,.652-.718l-.051-2.3a.705.705,0,0,0-.678-.689L16.27,39.8a5.879,5.879,0,0,0-.3-.65l.928-1.076a.7.7,0,0,0-.047-.97l-1.661-1.589a.7.7,0,0,0-.967-.007L13.14,36.515a5.847,5.847,0,0,0-.671-.25l-.1-1.416a.706.706,0,0,0-.718-.652l-2.3.051a.705.705,0,0,0-.689.678L8.6,36.406a5.924,5.924,0,0,0-.65.3l-1.076-.928a.7.7,0,0,0-.762-.1,5.284,5.284,0,0,1,.643-5.854,6.655,6.655,0,0,0,4.034,1.357.7.7,0,0,0,0-1.41,5.258,5.258,0,0,1-3.547-1.372l-.022-.024a.7.7,0,0,0-.095-.085A5.277,5.277,0,0,1,8.7,19.639a6.688,6.688,0,0,0,1.163,2.126.7.7,0,1,0,1.093-.89A5.285,5.285,0,0,1,9.9,18.7a.685.685,0,0,0-.025-.172q-.01-.036-.023-.07a5.277,5.277,0,0,1,5.2-6.2h.074c.023,0,.047,0,.069,0a5.306,5.306,0,0,1,4.41,2.6.7.7,0,0,0,1.215-.715,6.729,6.729,0,0,0-4.315-3.14,4.653,4.653,0,0,1,7.917,3.323v7.908H22.458a.7.7,0,0,0-.7.7v.906H18.9a.7.7,0,0,0,0,1.41h2.849V26.8H16.77a2.3,2.3,0,1,0,.025,1.41h4.958v1.527H18.9a.7.7,0,0,0,0,1.41h2.849v.905a.705.705,0,0,0,.7.7h1.958l.016,1.447a2.3,2.3,0,1,0,1.409-.029l-.016-1.418h2.159V43.372a6.068,6.068,0,0,0,11.041,3.48,6.692,6.692,0,0,0,6.39-7.378,6.689,6.689,0,0,0,2.672-10.619A6.658,6.658,0,0,0,49.712,24.488ZM37.43,15.171a5.487,5.487,0,0,1-1.848-4.389,5.626,5.626,0,0,1,11.243,0,5.487,5.487,0,0,1-1.848,4.389,4.829,4.829,0,0,0-1.629,3.755h-1.44V15.4a2.24,2.24,0,0,0-.7-4.368h0a2.241,2.241,0,0,0-.7,4.368v3.523h-1.44A4.826,4.826,0,0,0,37.43,15.171Zm4.362-1.306a.832.832,0,1,1,.244-.588A.826.826,0,0,1,41.792,13.865Zm1.445,7.154a3.134,3.134,0,0,1-2.012.469h-.042a3.131,3.131,0,0,1-2.012-.469.319.319,0,0,1-.117-.251c0-.146,0-.29,0-.433h4.293c0,.143,0,.287,0,.433A.319.319,0,0,1,43.237,21.019ZM38.82,26.734a.884.884,0,0,1,.622-.276h0a.889.889,0,1,1-.622.276ZM7.416,38.1a.7.7,0,0,0,.847.055,4.48,4.48,0,0,1,1.221-.562.7.7,0,0,0,.509-.651l.048-1.3.966-.021.093,1.254a.7.7,0,0,0,.56.638,4.485,4.485,0,0,1,1.261.467.7.7,0,0,0,.821-.1l.956-.888.7.668-.822.953a.7.7,0,0,0-.055.847,4.468,4.468,0,0,1,.562,1.222.7.7,0,0,0,.651.509l1.3.048.021.965L15.8,42.3a.7.7,0,0,0-.638.56,4.479,4.479,0,0,1-.467,1.261.7.7,0,0,0,.1.821l.888.956-.668.7-.953-.822a.7.7,0,0,0-.847-.055A4.5,4.5,0,0,1,12,46.277a.7.7,0,0,0-.509.651l-.048,1.3-.966.021L10.379,47a.7.7,0,0,0-.56-.638,4.479,4.479,0,0,1-1.261-.467.7.7,0,0,0-.821.1l-.956.888-.7-.668.822-.953a.7.7,0,0,0,.055-.847A4.5,4.5,0,0,1,6.4,43.191a.7.7,0,0,0-.651-.509l-1.3-.048-.021-.966,1.254-.093a.7.7,0,0,0,.638-.56,4.485,4.485,0,0,1,.467-1.261.7.7,0,0,0-.1-.821l-.888-.956.668-.7Zm7.821-9.948a.889.889,0,1,1,.245-.635A.884.884,0,0,1,15.237,28.154ZM27.7,18.908a.889.889,0,0,1,.867-.91h0a.889.889,0,1,1-.867.91ZM26.07,36.352a.889.889,0,1,1-.911-.867A.883.883,0,0,1,26.07,36.352Zm2.612-5.008h-5.52V23.661h7.683v7.683H28.682ZM10.738,45.188h.074a3.227,3.227,0,1,0-.074,0Zm-1.33-4.526A1.843,1.843,0,1,1,8.9,41.977,1.831,1.831,0,0,1,9.408,40.662Z" transform="translate(380 187.036)" fill="#1c54f8"></path></g></g></svg> 