<?xml version="1.0" encoding="UTF-8"?> <svg xmlns="http://www.w3.org/2000/svg" xmlns:xlink="http://www.w3.org/1999/xlink" width="60" height="60" viewBox="0 0 60 60"><defs><clipPath id="clip-path"><rect id="Rectangle_15" data-name="Rectangle 15" width="60" height="60" transform="translate(984 239)" fill="#fff" stroke="#707070" stroke-width="1"></rect></clipPath></defs><g id="Mask_Group_8" data-name="Mask Group 8" transform="translate(-984 -239)" clip-path="url(#clip-path)"><g id="Group_9" data-name="Group 9" transform="translate(2.923 160)"><path id="Path_37" data-name="Path 37" d="M7.826,56.406a.749.749,0,0,1,0-1.5h5.006V20.871a.749.749,0,0,1,.749-.749H20.85a.749.749,0,0,1,.749.749V54.908h3.084v-22.4a.749.749,0,0,1,.749-.749H32.7a.749.749,0,0,1,.749.749v22.4h3.084V41.279a.749.749,0,0,1,.749-.749h7.268a.749.749,0,0,1,.749.749v13.63h5.72a.749.749,0,0,1,0,1.5Zm24.923-40.1a.746.746,0,0,0-.064,1.053l.524.594-2.525,2.228a.746.746,0,0,0-.153.188h0L25.9,28.451a.749.749,0,0,0,1.187.893l9.093-8.023.543.615A.746.746,0,0,0,37.772,22l1.92-1.694L51.68,33.892a.746.746,0,0,0,1.053.064l3.528-3.113a.746.746,0,0,0,.064-1.053L44.339,16.2l1.922-1.7a.746.746,0,0,0,.064-1.053l-.541-.614,1.927-1.7a.746.746,0,0,0,.064-1.053L45.8,7.845a.746.746,0,0,0-1.053-.064l-1.925,1.7-.525-.6a.746.746,0,0,0-1.053-.064l-8.489,7.491ZM43.8,10.6l1.366-1.206.992,1.124L44.8,11.723,43.8,10.6Zm-8.617,9.6L34.2,19.077l-2.427,2.142-2.321,4.048,5.74-5.065Zm6.479-9.769-7.37,6.5,3.046,3.452,7.37-6.5-3.046-3.452ZM54.714,30.218,43.22,17.192l-2.409,2.126L52.305,32.344l2.409-2.126ZM38.032,54.908H43.8V42.028h-5.77v12.88Zm-11.851,0h5.77V33.258h-5.77v21.65Zm-11.851,0H20.1V21.62H14.33Z" transform="translate(979 77.406)" fill="#1c54f8" fill-rule="evenodd"></path></g></g></svg> 