<?xml version="1.0" encoding="UTF-8"?> <svg xmlns="http://www.w3.org/2000/svg" xmlns:xlink="http://www.w3.org/1999/xlink" width="90" height="90" viewBox="0 0 90 90"><defs><clipPath id="clip-path"><rect id="Rectangle_38" data-name="Rectangle 38" width="90" height="90" transform="translate(-157 905.654)" fill="#fff"></rect></clipPath></defs><g id="Mask_Group_31" data-name="Mask Group 31" transform="translate(157 -905.654)" clip-path="url(#clip-path)"><g id="Group_45" data-name="Group 45" transform="translate(-146.54 911.977)"><path id="Path_143" data-name="Path 143" d="M38.124,23.076V18.7L34.2,17.863a.572.572,0,0,1-.435-.413,13.239,13.239,0,0,0-1.341-3.231.577.577,0,0,1,.015-.6l2.189-3.371-3.1-3.1L28.156,9.339a.572.572,0,0,1-.6.016,13.241,13.241,0,0,0-3.231-1.339.572.572,0,0,1-.415-.438l-.834-3.929H18.7l-.834,3.929a.574.574,0,0,1-.415.438,13.238,13.238,0,0,0-3.231,1.339.576.576,0,0,1-.6-.015L10.245,7.152l-3.1,3.094,2.188,3.371a.572.572,0,0,1,.015.6,13.258,13.258,0,0,0-1.34,3.228.572.572,0,0,1-.435.418L3.649,18.7v4.379l3.929.834a.572.572,0,0,1,.435.413,13.249,13.249,0,0,0,1.34,3.232.572.572,0,0,1-.015.6L7.15,31.527l3.1,3.1,3.371-2.188a.574.574,0,0,1,.6-.015,13.224,13.224,0,0,0,3.231,1.339.575.575,0,0,1,.415.438l.836,3.929h4.376L23.91,34.2a.572.572,0,0,1,.415-.436,13.272,13.272,0,0,0,3.231-1.339.575.575,0,0,1,.6.015l3.369,2.188,3.1-3.1-2.189-3.371a.578.578,0,0,1-.015-.6,13.17,13.17,0,0,0,1.338-3.23.575.575,0,0,1,.436-.416l3.93-.836Zm.695-5.406-4.045-.858a14.373,14.373,0,0,0-1.185-2.86l2.253-3.471a.576.576,0,0,0-.077-.719L32.011,6.009a.575.575,0,0,0-.72-.076L27.822,8.186A14.392,14.392,0,0,0,24.962,7L24.1,2.956a.572.572,0,0,0-.558-.456H18.231a.577.577,0,0,0-.563.455L16.81,7a14.447,14.447,0,0,0-2.86,1.185L10.482,5.932a.574.574,0,0,0-.72.076L6.009,9.762a.576.576,0,0,0-.077.719L8.184,13.95A14.5,14.5,0,0,0,7,16.81l-4.045.858a.575.575,0,0,0-.454.565v5.31a.575.575,0,0,0,.455.562L7,24.963a14.393,14.393,0,0,0,1.185,2.86L5.932,31.292a.577.577,0,0,0,.077.719l3.754,3.754a.575.575,0,0,0,.72.075l3.469-2.252a14.367,14.367,0,0,0,2.86,1.185l.858,4.045a.576.576,0,0,0,.561.455h5.312a.572.572,0,0,0,.561-.455l.861-4.045a14.415,14.415,0,0,0,2.86-1.185l3.469,2.251a.576.576,0,0,0,.72-.075l3.754-3.754a.577.577,0,0,0,.077-.719l-2.253-3.469a14.418,14.418,0,0,0,1.185-2.86l4.045-.858a.575.575,0,0,0,.451-.562v-5.31a.575.575,0,0,0-.456-.563Z" transform="translate(13.971 21.223)" fill="#1c54f8" stroke="#1c54f9" stroke-width="1" fill-rule="evenodd"></path><text id="LLM" transform="translate(25.358 45.61)" fill="#1c54f8" font-size="9" font-family="OpenSans-Bold, Open Sans" font-weight="700"><tspan x="0" y="0">LLM</tspan></text><g id="Group_39" data-name="Group 39" transform="translate(0 65.747)"><g id="Group_35" data-name="Group 35"><path id="Path_144" data-name="Path 144" d="M22.3,29.026a.757.757,0,0,1-.548-.227l-2.023-1.986a.631.631,0,0,0-.435-.17h-7a1.808,1.808,0,0,1-1.8-1.8V18.1a1.808,1.808,0,0,1,1.8-1.8H23.68a1.808,1.808,0,0,1,1.8,1.8v6.751a1.808,1.808,0,0,1-1.8,1.8h-.605v1.607a.787.787,0,0,1-.473.719A.856.856,0,0,1,22.3,29.026ZM12.278,17.245a.847.847,0,0,0-.851.851v6.751a.847.847,0,0,0,.851.851h7a1.515,1.515,0,0,1,1.1.454l1.74,1.7V26.36a.67.67,0,0,1,.662-.662h.87a.847.847,0,0,0,.851-.851V18.1a.847.847,0,0,0-.851-.851Z" transform="translate(-10.5 -16.3)" fill="#1c54f8" stroke="#1c54f9" stroke-width="1"></path></g><g id="Group_36" data-name="Group 36" transform="translate(2.458 4.066)"><circle id="Ellipse_1" data-name="Ellipse 1" cx="1.078" cy="1.078" r="1.078" fill="#1c54f8" stroke="#1c54f9" stroke-width="1"></circle></g><g id="Group_37" data-name="Group 37" transform="translate(6.392 4.066)"><circle id="Ellipse_2" data-name="Ellipse 2" cx="1.078" cy="1.078" r="1.078" fill="#1c54f8" stroke="#1c54f9" stroke-width="1"></circle></g><g id="Group_38" data-name="Group 38" transform="translate(10.325 4.066)"><circle id="Ellipse_3" data-name="Ellipse 3" cx="1.078" cy="1.078" r="1.078" fill="#1c54f8" stroke="#1c54f9" stroke-width="1"></circle></g></g><g id="Group_41" data-name="Group 41" transform="translate(28.116)"><g id="Group_35-2" data-name="Group 35"><path id="Path_144-2" data-name="Path 144" d="M22.3,29.026a.757.757,0,0,1-.548-.227l-2.023-1.986a.631.631,0,0,0-.435-.17h-7a1.808,1.808,0,0,1-1.8-1.8V18.1a1.808,1.808,0,0,1,1.8-1.8H23.68a1.808,1.808,0,0,1,1.8,1.8v6.751a1.808,1.808,0,0,1-1.8,1.8h-.605v1.607a.787.787,0,0,1-.473.719A.856.856,0,0,1,22.3,29.026ZM12.278,17.245a.847.847,0,0,0-.851.851v6.751a.847.847,0,0,0,.851.851h7a1.515,1.515,0,0,1,1.1.454l1.74,1.7V26.36a.67.67,0,0,1,.662-.662h.87a.847.847,0,0,0,.851-.851V18.1a.847.847,0,0,0-.851-.851Z" transform="translate(-10.5 -16.3)" fill="#1c54f8" stroke="#1c54f9" stroke-width="1"></path></g><g id="Group_36-2" data-name="Group 36" transform="translate(2.458 4.066)"><circle id="Ellipse_1-2" data-name="Ellipse 1" cx="1.078" cy="1.078" r="1.078" fill="#1c54f8" stroke="#1c54f9" stroke-width="1"></circle></g><g id="Group_37-2" data-name="Group 37" transform="translate(6.392 4.066)"><circle id="Ellipse_2-2" data-name="Ellipse 2" cx="1.078" cy="1.078" r="1.078" fill="#1c54f8" stroke="#1c54f9" stroke-width="1"></circle></g><g id="Group_38-2" data-name="Group 38" transform="translate(10.325 4.066)"><circle id="Ellipse_3-2" data-name="Ellipse 3" cx="1.078" cy="1.078" r="1.078" fill="#1c54f8" stroke="#1c54f9" stroke-width="1"></circle></g></g><g id="Group_40" data-name="Group 40" transform="translate(53.245 65.747)"><g id="Group_35-3" data-name="Group 35"><path id="Path_144-3" data-name="Path 144" d="M22.3,29.026a.757.757,0,0,1-.548-.227l-2.023-1.986a.631.631,0,0,0-.435-.17h-7a1.808,1.808,0,0,1-1.8-1.8V18.1a1.808,1.808,0,0,1,1.8-1.8H23.68a1.808,1.808,0,0,1,1.8,1.8v6.751a1.808,1.808,0,0,1-1.8,1.8h-.605v1.607a.787.787,0,0,1-.473.719A.856.856,0,0,1,22.3,29.026ZM12.278,17.245a.847.847,0,0,0-.851.851v6.751a.847.847,0,0,0,.851.851h7a1.515,1.515,0,0,1,1.1.454l1.74,1.7V26.36a.67.67,0,0,1,.662-.662h.87a.847.847,0,0,0,.851-.851V18.1a.847.847,0,0,0-.851-.851Z" transform="translate(-10.5 -16.3)" fill="#1c54f8" stroke="#1c54f9" stroke-width="1"></path></g><g id="Group_36-3" data-name="Group 36" transform="translate(2.458 4.066)"><circle id="Ellipse_1-3" data-name="Ellipse 1" cx="1.078" cy="1.078" r="1.078" fill="#1c54f8" stroke="#1c54f9" stroke-width="1"></circle></g><g id="Group_37-3" data-name="Group 37" transform="translate(6.392 4.066)"><circle id="Ellipse_2-3" data-name="Ellipse 2" cx="1.078" cy="1.078" r="1.078" fill="#1c54f8" stroke="#1c54f9" stroke-width="1"></circle></g><g id="Group_38-3" data-name="Group 38" transform="translate(10.325 4.066)"><circle id="Ellipse_3-3" data-name="Ellipse 3" cx="1.078" cy="1.078" r="1.078" fill="#1c54f8" stroke="#1c54f9" stroke-width="1"></circle></g></g><g id="Group_42" data-name="Group 42" transform="translate(32.441 9.653)"><path id="Path_145" data-name="Path 145" d="M-127,916.781v15.007" transform="translate(129.417 -916.781)" fill="none" stroke="#1c54f8" stroke-width="1.5"></path><path id="Path_146" data-name="Path 146" d="M-128.519,922.793l2.477,2.356,2.356-2.356" transform="translate(128.519 -913.81)" fill="none" stroke="#1c54f8" stroke-linecap="round" stroke-width="1.5"></path></g><g id="Group_43" data-name="Group 43" transform="translate(20.863 53.361) rotate(43)"><path id="Path_145-2" data-name="Path 145" d="M0,0V15.007" transform="translate(2.417)" fill="none" stroke="#1c54f8" stroke-width="1.5"></path><path id="Path_146-2" data-name="Path 146" d="M0,0,2.477,2.356,4.833,0" transform="translate(0 8.983)" fill="none" stroke="#1c54f8" stroke-linecap="round" stroke-width="1.5"></path></g><g id="Group_44" data-name="Group 44" transform="translate(59.852 64.337) rotate(137)"><path id="Path_145-3" data-name="Path 145" d="M0,15.007V0" transform="translate(2.417 0)" fill="none" stroke="#1c54f8" stroke-width="1.5"></path><path id="Path_146-3" data-name="Path 146" d="M0,2.356,2.477,0,4.833,2.356" transform="translate(0 3.669)" fill="none" stroke="#1c54f8" stroke-linecap="round" stroke-width="1.5"></path></g></g></g></svg> 