<?xml version="1.0" encoding="UTF-8"?> <svg xmlns="http://www.w3.org/2000/svg" xmlns:xlink="http://www.w3.org/1999/xlink" width="90" height="90" viewBox="0 0 90 90"><defs><clipPath id="clip-path"><rect id="Rectangle_5" data-name="Rectangle 5" width="90" height="90" transform="translate(336 72)" fill="#fff" stroke="#707070" stroke-width="1"></rect></clipPath></defs><g id="Mask_Group_2" data-name="Mask Group 2" transform="translate(-336 -72)" clip-path="url(#clip-path)"><g id="Group_3" data-name="Group 3" transform="translate(-1.551 -0.002)"><g id="llms_800x800.png" transform="translate(178.607 737.928)"><path id="Path_2" data-name="Path 2" d="M201.636-658.657a6.839,6.839,0,0,0-2.815,1.606,7.4,7.4,0,0,0-2.078,3.4,7.19,7.19,0,0,0,.192,4.421c.044.147-2.181,1.488-6.941,4.215l-7,4.008-.737-.693a7.123,7.123,0,0,0-8.238-1.4,7.258,7.258,0,0,0-3.935,7.914,7.376,7.376,0,0,0,5.364,5.5l.766.177.044,8.488c.029,9.461.133,8.636-.973,8.842a7.748,7.748,0,0,0-4.244,3.124,7.352,7.352,0,0,0-.265,7.177,8.947,8.947,0,0,0,2.933,2.962,7.219,7.219,0,0,0,8.488-1.238l.752-.737,7.044,4.008,7.044,4.023-.221.589a8,8,0,0,0-.295,1.636,7.284,7.284,0,0,0,4.789,7.309,7.25,7.25,0,0,0,9.446-5.556,7.472,7.472,0,0,0-.221-3.345c-.118-.339-.162-.648-.1-.693s3.065-1.783,6.676-3.832,6.735-3.832,6.941-3.949c.383-.221.413-.206.884.339a8.626,8.626,0,0,0,1.371,1.135,7.179,7.179,0,0,0,8.945-.914,7.12,7.12,0,0,0,.074-10.109,6.9,6.9,0,0,0-3.316-1.916l-.9-.251.029-8.547.044-8.547.766-.192a7.183,7.183,0,0,0,5.04-9.314,7.115,7.115,0,0,0-6.69-4.789,6.735,6.735,0,0,0-5.084,2.048l-.811.781-6.926-3.964c-3.8-2.181-6.97-3.994-7.029-4.008s-.015-.383.118-.781a7.274,7.274,0,0,0-4.76-8.916A8.007,8.007,0,0,0,201.636-658.657Zm4.023,1.916a5.379,5.379,0,0,1,2.844,7.147,5.25,5.25,0,0,1-8.606,1.5,4.772,4.772,0,0,1-1.459-4.141,5.19,5.19,0,0,1,2.608-4.171A5.479,5.479,0,0,1,205.659-656.741ZM198.7-646.632a7.535,7.535,0,0,0,3.227,1.783c.9.162.884.118.884,3.389v2.992l-.472.074a17.93,17.93,0,0,0-6.484,1.8,18.444,18.444,0,0,0-6.116,4.981c-.368.5-.737.884-.811.855-.162-.044-4.863-2.829-5.025-2.977a2.011,2.011,0,0,1,.118-.958,8.722,8.722,0,0,0-.015-3.905c-.192-.678-.206-.825-.044-.928.486-.295,13.764-7.884,13.823-7.9A7.669,7.669,0,0,1,198.7-646.632Zm17.935,3.257c3.787,2.166,6.9,3.935,6.912,3.949a3.006,3.006,0,0,1-.177.634,7.9,7.9,0,0,0,.147,4.775c.074.177-.1.354-.693.693-.427.236-1.621.943-2.653,1.547l-1.872,1.12-.737-.943a18.063,18.063,0,0,0-9.225-6.189,15.453,15.453,0,0,0-2.063-.442c-.486-.044-1.061-.133-1.282-.162l-.413-.088v-6.1l1.076-.309a7.75,7.75,0,0,0,3.272-1.989c.251-.295.531-.516.634-.472S212.85-645.526,216.638-643.375Zm-38.654,1.4a5.267,5.267,0,0,1,4.48,5.01,5.21,5.21,0,0,1-3.669,5.438,5.446,5.446,0,0,1-6.6-2.918,4.129,4.129,0,0,1-.4-2.166,3.929,3.929,0,0,1,.457-2.284,5.529,5.529,0,0,1,3.994-3.095c.383-.059.752-.118.8-.133S177.512-642.063,177.983-641.975Zm53.052,0a5.479,5.479,0,0,1,4.436,4.1,5.4,5.4,0,0,1-2.962,6.1,3.582,3.582,0,0,1-2.284.457,3.938,3.938,0,0,1-2.284-.427,5.513,5.513,0,0,1-3.036-3.935,5.513,5.513,0,0,1,4.392-6.307c.383-.059.752-.118.8-.133S230.564-642.063,231.036-641.975Zm-24.168,5.733a15.83,15.83,0,0,1,4.937,1.975,15.822,15.822,0,0,1,4.745,4.436,13.873,13.873,0,0,1,2.107,4.288,15.475,15.475,0,0,1,.192,8.975,10.57,10.57,0,0,1-.5,1.547c-.1.206-.427.87-.707,1.474a15.9,15.9,0,0,1-6.13,6.44,20.084,20.084,0,0,1-3.316,1.459,16.2,16.2,0,0,1-7.368.339,14.542,14.542,0,0,1-8.253-4.333c-2.3-2.284-3.316-4.112-4.347-7.81a20.3,20.3,0,0,1-.251-2.8,11.089,11.089,0,0,1,.236-3.64,15.155,15.155,0,0,1,4.568-8.253,15.352,15.352,0,0,1,8.194-4.17A21.715,21.715,0,0,1,206.867-636.242Zm-21.324,5.585c1.385.825,2.535,1.533,2.535,1.577a5.835,5.835,0,0,1-.368.8,17.808,17.808,0,0,0-.206,14.575c.236.516.427.958.427.987a38.12,38.12,0,0,1-3.448,2.078l-1.606.943-.6-.589a7.926,7.926,0,0,0-3.257-1.857l-.958-.265.029-8.547.044-8.547.8-.206a7.5,7.5,0,0,0,3.227-1.827,3.714,3.714,0,0,1,.766-.663C182.964-632.175,184.143-631.482,185.543-630.657Zm39.686-.84a7.141,7.141,0,0,0,3.227,1.783l.811.206.044,8.562.029,8.547-.766.177a7.889,7.889,0,0,0-3.3,1.8c-.427.4-.84.707-.9.663-1-.56-4.583-2.7-4.73-2.829-.177-.162-.118-.413.324-1.518a13.69,13.69,0,0,0,1.194-6.661,13.384,13.384,0,0,0-1.194-6.617c-.811-1.975-1-1.651,1.886-3.36l2.549-1.5C224.4-632.263,224.772-631.91,225.229-631.5Zm-35.059,22.046a17.777,17.777,0,0,0,11.465,6.189l1.105.1v5.865l-.884.236a7.377,7.377,0,0,0-3.242,1.872l-.752.737-6.912-3.949c-3.817-2.166-6.985-3.964-7.059-3.994s-.015-.4.118-.84a8.835,8.835,0,0,0-.015-4.023c-.206-.752-.206-.9-.029-1,.118-.059,1.238-.737,2.491-1.5l2.284-1.385.295.324C189.2-610.644,189.714-610.025,190.171-609.451Zm31.095-.059c1.194.707,2.211,1.341,2.24,1.4a1.693,1.693,0,0,1-.147.737,7.117,7.117,0,0,0-.088,3.817c.251.987.251,1.105.044,1.223-.133.088-3.286,1.9-7.015,4.023l-6.779,3.876-.737-.707A7.047,7.047,0,0,0,205.6-597l-1.017-.251v-5.983h.575a17.224,17.224,0,0,0,4.112-.84,18.929,18.929,0,0,0,4.893-2.564,21.9,21.9,0,0,0,3.817-3.861c.457-.663.5-.693.8-.5C218.951-610.88,220.071-610.217,221.265-609.51Zm-42.8-.884a5.381,5.381,0,0,1,3.552,3.021,3.928,3.928,0,0,1,.368,2.152,4.24,4.24,0,0,1-.413,2.211,5.485,5.485,0,0,1-3.935,3.021,3.428,3.428,0,0,1-1.916-.059,5.293,5.293,0,0,1-4.274-5.85A5.345,5.345,0,0,1,178.47-610.394Zm53.052,0a5.3,5.3,0,0,1,3.463,2.815,3.6,3.6,0,0,1,.472,2.358,3.594,3.594,0,0,1-.5,2.4,5.4,5.4,0,0,1-6.41,2.623,5.755,5.755,0,0,1-3.021-2.594,3.454,3.454,0,0,1-.531-2.432,4.136,4.136,0,0,1,.383-2.284A5.346,5.346,0,0,1,231.522-610.394ZM204.6-595.421a5.668,5.668,0,0,1,3.08,1.724,5.367,5.367,0,0,1-1.739,8.474,3.717,3.717,0,0,1-2.24.486,3.928,3.928,0,0,1-2.211-.457,5.361,5.361,0,0,1-1.606-8.724,5.5,5.5,0,0,1,2.638-1.444A3.588,3.588,0,0,1,204.6-595.421Z" transform="translate(0)" fill="#1c54f8"></path></g><text id="LLM" transform="translate(371 122)" fill="#1c54f8" font-size="12" font-family="OpenSans-Semibold, Open Sans" font-weight="600"><tspan x="0" y="0">LLM</tspan></text></g></g></svg> 