<?xml version="1.0" encoding="UTF-8"?> <svg xmlns="http://www.w3.org/2000/svg" id="Layer_1" data-name="Layer 1" viewBox="0 0 80 80"><defs><style>.cls-1{fill:#1b54f8;stroke:#fff;}</style></defs><g id="Migration-New-Platform"><g id="data-transfer"><path id="Shape" class="cls-1" d="M66.34,12H49.27a1.64,1.64,0,0,0-1.64,1.64v26.4a1.65,1.65,0,0,0,1.64,1.64H66.34A1.64,1.64,0,0,0,68,40.06V13.66A1.63,1.63,0,0,0,66.34,12ZM64.7,38.42H50.91V15.3H64.7Z"></path><path id="Path" class="cls-1" d="M54.12,36H61.5a1.64,1.64,0,0,0,0-3.28H54.12a1.64,1.64,0,1,0,0,3.28Z"></path><path id="Path-2" data-name="Path" class="cls-1" d="M54.12,28.5H61.5a1.64,1.64,0,0,0,0-3.28H54.12a1.64,1.64,0,1,0,0,3.28Z"></path><path id="Path-3" data-name="Path" class="cls-1" d="M54.12,21H61.5a1.64,1.64,0,0,0,0-3.28H54.12a1.64,1.64,0,1,0,0,3.28Z"></path><path id="Shape-2" data-name="Shape" class="cls-1" d="M31.77,38H14.71a1.64,1.64,0,0,0-1.64,1.65v26.4a1.64,1.64,0,0,0,1.64,1.64H31.77a1.64,1.64,0,0,0,1.64-1.64V39.65A1.64,1.64,0,0,0,31.77,38ZM30.13,64.41H16.35V41.28H30.13Z"></path><path id="Path-4" data-name="Path" class="cls-1" d="M19.55,62h7.38a1.64,1.64,0,0,0,0-3.28H19.55a1.64,1.64,0,0,0,0,3.28Z"></path><path id="Path-5" data-name="Path" class="cls-1" d="M19.55,54.49h7.38a1.64,1.64,0,0,0,0-3.28H19.55a1.64,1.64,0,0,0,0,3.28Z"></path><path id="Path-6" data-name="Path" class="cls-1" d="M19.55,47h7.38a1.64,1.64,0,0,0,0-3.28H19.55a1.64,1.64,0,0,0,0,3.28Z"></path><path id="Path-7" data-name="Path" class="cls-1" d="M61.36,44a1.64,1.64,0,0,0-2,1.25A19.44,19.44,0,0,1,44.9,60l.9-.9a1.64,1.64,0,0,0-2.32-2.32L39.26,61a1.65,1.65,0,0,0-.49,1.16,1.64,1.64,0,0,0,.49,1.16l4.22,4.22a1.62,1.62,0,0,0,2.32,0,1.63,1.63,0,0,0,0-2.31l-1.73-1.73A22.74,22.74,0,0,0,62.61,45.92a1.64,1.64,0,0,0-1.25-2Z"></path><path id="Path-8" data-name="Path" class="cls-1" d="M42.05,17.87a1.64,1.64,0,0,0-.48-1.16l-4.22-4.22A1.64,1.64,0,1,0,35,14.81l1.72,1.72A22.74,22.74,0,0,0,18.43,33.2a1.63,1.63,0,0,0,1.17,2,1.52,1.52,0,0,0,.42.06A1.64,1.64,0,0,0,21.6,34,19.46,19.46,0,0,1,35.93,20l-.9.9a1.64,1.64,0,0,0,2.32,2.32L41.57,19a1.63,1.63,0,0,0,.48-1.16Z"></path></g></g></svg> 