<?xml version="1.0" encoding="UTF-8"?> <svg xmlns="http://www.w3.org/2000/svg" width="90" height="90" viewBox="0 0 90 90" fill="none"><path d="M8.54442 31.8532H38.6317C39.4497 31.8532 39.9951 32.5128 39.9951 33.2668C39.9951 34.0207 39.3589 34.6804 38.6317 34.6804H8.54442C6.63556 34.7746 6.72645 31.9474 8.54442 31.8532ZM8.54442 46.3661H32.3597C34.1777 46.3661 34.1777 43.5389 32.3597 43.4447H8.54442C6.72645 43.5389 6.72645 46.3661 8.54442 46.3661ZM8.54442 57.9577H21.9064C23.7244 57.9577 23.7244 55.1305 21.9064 55.0362H8.54442C6.72645 55.1305 6.72645 57.9577 8.54442 57.9577ZM32.2688 66.722H8.54442C6.72645 66.722 6.72645 69.5492 8.54442 69.6435H32.3597C34.1777 69.5492 34.1777 66.722 32.2688 66.722ZM82.1718 89.9993C79.9903 89.9993 77.8996 89.0569 76.4453 87.4548L65.8102 75.7691C63.8104 73.5073 59.4473 68.7011 57.4476 66.4393V76.146C57.4476 77.9366 55.9932 79.4444 54.2661 79.4444H52.4482V81.0465C55.7205 81.7062 58.1747 84.6276 58.1747 88.2088C58.1747 89.0569 57.5385 89.6224 56.8113 89.6224H10.9987C10.1806 89.6224 9.63519 88.9627 9.63519 88.2088C9.5443 84.8161 12.0894 81.612 15.3618 81.0465V79.4444H3.18143C1.45437 79.4444 0 77.9366 0 76.146V13.6648C0 13.2879 0.181796 12.9109 0.45449 12.6282L12.0894 0.471201C12.3621 0.18848 12.7257 0.0942401 13.0893 0H54.1752C55.9023 0 57.3567 1.50784 57.3567 3.2984V35.9997L63.9013 41.5599C68.4462 45.518 63.8104 53.0572 58.4474 50.4185L57.2658 51.9263L59.0837 53.4342C60.3563 54.4708 60.629 56.2614 60.0836 57.675C67.719 62.7639 79.6267 70.3031 87.1712 75.5806C92.8069 80.3868 89.4437 90.0936 82.1718 89.9993ZM55.0842 37.8845C54.7206 37.6018 47.9942 31.5704 47.6306 31.7589C45.1763 31.005 43.4493 34.3976 45.6308 35.9997L59.0837 47.497C60.0836 48.4394 61.6289 48.3452 62.447 47.3085C63.265 46.2719 63.0832 44.7641 62.1743 43.9159C62.0834 43.8217 55.0842 37.8845 55.0842 37.8845ZM56.175 48.7221L44.9036 39.0154C43.4493 40.806 36.1774 49.9473 34.5413 51.9263L45.9035 61.633C47.1761 60.031 54.7206 50.6069 56.175 48.7221ZM45.2672 64.9314L31.6325 53.2457C29.2692 51.2666 26.3604 54.8478 28.6329 56.921L42.3585 68.7011C43.6311 69.9262 45.9035 68.9838 46.0853 67.1932C46.2671 66.2508 45.9035 65.4026 45.2672 64.9314ZM4.8176 12.157H11.3623C11.5441 12.157 11.7258 11.9685 11.7258 11.78V4.99473L4.8176 12.157ZM50.9938 83.8737H16.7252C14.9073 83.7795 13.1802 85.0988 12.6348 86.7952H55.0842C54.5388 85.0988 52.9027 83.7795 50.9938 83.8737ZM49.5394 78.4078C49.1758 77.0884 48.0851 76.146 46.8125 76.146H20.9065C19.3613 76.146 18.0887 77.5596 18.0887 79.1617V80.9523H49.6303C49.6303 80.4811 49.7212 78.879 49.5394 78.4078ZM54.6297 64.1775C53.6298 64.6487 52.4482 64.5545 51.4483 64.0833C50.9938 63.8948 49.5394 62.4812 49.0849 62.1985L47.9033 63.7063C51.3574 68.7953 45.2672 74.7324 40.5405 70.8686L26.8149 59.0886C22.27 55.1305 26.9058 47.6855 32.2688 50.23C33.3596 48.8164 41.904 38.1673 42.813 37.0364C40.1769 33.361 43.1766 27.9893 47.5397 28.649C48.4487 28.7432 49.3576 29.1202 50.1757 29.7799L54.5388 33.5495V3.39264C54.5388 3.20416 54.357 3.01568 54.1752 3.01568H14.4528V11.8743C14.4528 13.6648 12.9984 15.1727 11.2714 15.1727H2.81784V76.146C2.81784 76.3345 2.99964 76.523 3.18143 76.523H15.9072C16.8161 74.5439 18.8159 73.2246 20.9974 73.2246H46.8125C48.9031 73.2246 50.9938 74.5439 51.9028 76.523H54.2661C54.4479 76.523 54.6297 76.3345 54.6297 76.146V64.1775ZM57.3567 56.7326C57.6294 56.4498 57.5385 55.9786 57.2658 55.6959L55.4478 54.1881L50.812 59.9367L52.63 61.4446C52.9027 61.7273 53.3572 61.633 53.6298 61.3503C54.2661 60.6906 56.8113 57.4865 57.3567 56.7326ZM63.3559 68.7953L66.1738 65.2142L58.3565 60.1252C57.993 60.5022 57.3567 61.3503 56.9931 61.8215L63.3559 68.7953ZM66.7192 72.4707L70.3551 67.9471L68.5371 66.722L65.2648 70.8686L66.7192 72.4707ZM84.8079 77.4654L72.8093 69.5492L68.628 74.6382L78.3541 85.4758C80.3539 87.7376 84.0807 87.6433 85.9895 85.1931C87.9893 82.8371 87.4439 79.0675 84.8079 77.4654ZM30.1782 17.1517C30.7235 2.54448 50.9029 2.54448 51.4483 17.1517C51.4483 23.2773 46.6307 28.1778 40.8132 28.1778C34.9957 28.1778 30.1782 23.2773 30.1782 17.1517ZM32.996 17.1517C33.3596 27.8951 48.2669 27.8951 48.7213 17.1517C48.7213 12.6282 45.1763 9.04705 40.9041 9.04705C36.6319 9.04705 32.996 12.7224 32.996 17.1517ZM38.4499 20.9213C38.9953 21.4867 39.9042 21.4867 40.4496 20.9213L45.6308 15.5496C46.9034 14.136 44.9945 12.157 43.6311 13.4763L39.4498 17.8114L38.0863 16.3978C36.7228 15.0784 34.8139 17.0575 36.0865 18.4711C36.1774 18.4711 38.4499 20.9213 38.4499 20.9213Z" fill="#1B54F8"></path></svg> 