<?xml version="1.0" encoding="UTF-8"?> <svg xmlns="http://www.w3.org/2000/svg" xmlns:xlink="http://www.w3.org/1999/xlink" width="60" height="60" viewBox="0 0 60 60"><defs><clipPath id="clip-path"><rect id="Rectangle_16" data-name="Rectangle 16" width="60" height="60" transform="translate(1220.804 131.804)" fill="#fff" stroke="#707070" stroke-width="1"></rect></clipPath></defs><g id="Mask_Group_10" data-name="Mask Group 10" transform="translate(-1220.804 -131.804)" clip-path="url(#clip-path)"><path id="Path_30" data-name="Path 30" d="M11.168,0a.718.718,0,0,0-.51.215L1.376,9.463a.725.725,0,0,0-.209.584V42.879a3.306,3.306,0,0,0,3.3,3.292H34.2a3.3,3.3,0,0,0,3.046-2.024.721.721,0,1,0-1.331-.554A1.845,1.845,0,0,1,34.2,44.727H4.47a1.834,1.834,0,0,1-1.858-1.849V10.7H8.591a3.3,3.3,0,0,0,3.3-3.292V1.444H34.2a1.832,1.832,0,0,1,1.858,1.847V21.233h0a.721.721,0,1,0,1.443,0V3.291A3.3,3.3,0,0,0,34.2,0H11.184a.05.05,0,0,0-.016,0Zm-.718,2.458V7.409A1.832,1.832,0,0,1,8.593,9.256H3.635l2.1-2.094Zm-.363,11.448a.72.72,0,0,0-.723.723.716.716,0,0,0,.213.51.728.728,0,0,0,.51.209H28.582a.724.724,0,0,0,.725-.72.721.721,0,0,0-.213-.512.708.708,0,0,0-.512-.211Zm0,6.54v0a.728.728,0,0,0-.51.209.721.721,0,0,0,.51,1.234H28.582a.724.724,0,0,0,.725-.723.724.724,0,0,0-.725-.72Zm23.018,1.035a2.165,2.165,0,0,0-2.053,2.87l-6.589,6.585a2.172,2.172,0,0,0-2.24,3.587l5.766,5.764a2.171,2.171,0,0,0,3.589-2.24l1.557-1.557,7.455,8.679a3.214,3.214,0,0,0,4.682-.022,3.292,3.292,0,0,0,.058-4.644v0a.414.414,0,0,0-.041-.038l-8.674-7.455,1.549-1.549a2.171,2.171,0,0,0,2.24-3.589L34.639,22.11a2.156,2.156,0,0,0-1.533-.631Zm0,1.428a.728.728,0,0,1,.516.222L39.386,28.9a.73.73,0,1,1-1.032,1.033l-5.766-5.768a.714.714,0,0,1,0-1.032.728.728,0,0,1,.516-.222Zm-1.19,2.619L36.985,30.6l-6.269,6.269L25.645,31.8ZM10.088,26.985a.721.721,0,1,0,0,1.441H24.12a.72.72,0,0,0,.718-.723.717.717,0,0,0-.718-.718ZM23.761,32.25a.723.723,0,0,1,.489.195l2.911,2.909,2.882,2.882a.73.73,0,0,1-1.032,1.032L23.245,33.5a.716.716,0,0,1,0-1.033.728.728,0,0,1,.516-.222Zm11.832,1.786,8.715,7.487a1.829,1.829,0,0,1-.058,2.61,1.779,1.779,0,0,1-2.567.1l-7.525-8.76Z" transform="translate(1227.287 138.706)" fill="#1c54f8" fill-rule="evenodd"></path></g></svg> 