<?xml version="1.0" encoding="UTF-8"?> <!-- Generator: Adobe Illustrator 25.3.1, SVG Export Plug-In . SVG Version: 6.00 Build 0) --> <svg xmlns="http://www.w3.org/2000/svg" xmlns:xlink="http://www.w3.org/1999/xlink" version="1.1" id="Layer_1" x="0px" y="0px" viewBox="0 0 69.8 56" style="enable-background:new 0 0 69.8 56;" xml:space="preserve"> <style type="text/css"> .st0{fill:#1B54F8;} .st1{fill:none;stroke:#1B54F8;stroke-width:2;stroke-miterlimit:10;} </style> <g> <path class="st0" d="M-42.2,5.1c0.1,0,0.2,0,0.3,0.1l0,0c0.3,0.2,0.3,0.5,0.2,0.7l-2.1,3.6c1.6,1.8,2.4,4.1,2.4,6.5l0,0h-23.1 c0-2.4,0.9-4.7,2.4-6.5L-64.2,6l0,0c-0.1-0.3,0-0.6,0.2-0.7l0,0c0.1,0,0.2-0.1,0.2-0.1c0.2,0,0.4,0.1,0.5,0.3l1.9,3.3 C-59,6.6-56,5.5-53,5.5s6.1,1.1,8.4,3.3l1.9-3.3c0,0,0,0,0-0.1C-42.6,5.2-42.4,5.1-42.2,5.1 M-57.3,12.2L-57.3,12.2 c0.5,0,0.9-0.4,0.9-1c0-0.5-0.4-0.9-0.9-0.9l0,0c-0.5,0-0.9,0.4-0.9,0.9l0,0C-58.2,11.8-57.8,12.2-57.3,12.2 M-48.5,12.2 c0.5,0,0.9-0.4,0.9-0.9s-0.4-0.9-0.9-0.9l0,0l0,0c-0.5,0-0.9,0.4-0.9,0.9S-49,12.2-48.5,12.2 M-42.2,3.1c-0.8,0-1.6,0.4-2.1,1.1 c0,0.1-0.1,0.1-0.1,0.2l-0.7,1.3c-2.3-1.5-5-2.3-7.8-2.3s-5.5,0.8-7.8,2.3l-0.7-1.3c-0.4-0.8-1.3-1.3-2.2-1.3 c-0.4,0-0.8,0.1-1.2,0.3h-0.1l0,0c-0.6,0.3-1,0.8-1.2,1.5c-0.2,0.6-0.1,1.3,0.2,1.9v0.1l0,0l1.4,2.5c-1.3,2-2,4.3-2,6.6v2h2h23.2h2 v-2c0-2.4-0.7-4.7-2-6.7l1.4-2.4c0.7-1.2,0.3-2.7-0.8-3.5l0,0l0,0C-41.3,3.2-41.8,3.1-42.2,3.1L-42.2,3.1z"></path> </g> <path class="st1" d="M-37,36.8L-37,36.8c0.2,1.4,1.6,2.4,3,2.2c1.1-0.2,2-1.1,2.2-2.2l0,0V25.3l0,0v-0.1c-0.1-1.4-1.4-2.5-2.8-2.4 c-1.3,0.1-2.3,1.1-2.4,2.4v0.1l0,0V36.8L-37,36.8z"></path> <g> <path class="st0" d="M-41.6,21.1c0.2,0,0.3,0.1,0.3,0.3v17.3v0.1c0,0.1,0,0.2,0,0.4c0,1.2-1,2.2-2.2,2.4l0,0h-1v7.1 c-0.2,1.1-1.1,2-2.2,2.2c-0.1,0-0.3,0-0.4,0c-1.3,0-2.4-0.9-2.6-2.2v-7.1h-6.6v7.1c-0.2,1.3-1.2,2.2-2.5,2.2h-0.1H-59 c-1.3,0-2.3-0.9-2.5-2.2v-7.1h-1l0,0c-1.2-0.1-2.1-1.2-2.2-2.4c0-0.1,0-0.2,0-0.3v-0.1V21.5c0-0.2,0.1-0.3,0.3-0.3h22.8 C-41.6,21.1-41.6,21.1-41.6,21.1 M-41.6,19.1h-22.7c-1.3,0-2.3,1-2.3,2.3v17.1c0,0.1,0,0.2,0,0.3s0,0.3,0,0.4 c0.1,1.5,0.9,2.9,2.2,3.6v0.6h1v5.1v0.1v0.1c0.3,2.3,2.2,4,4.5,4h0.1h0.1c2.3,0,4.2-1.7,4.5-4v-0.1v-0.1v-5.1h2.6v5.1v0.2v0.2 c0.4,2.2,2.3,3.9,4.6,3.9c0.2,0,0.5,0,0.7-0.1c2-0.3,3.5-1.9,3.8-3.8v-0.2v-0.2v-5.1h1V43c1.3-0.7,2.1-2.1,2.2-3.6 c0-0.2,0-0.3,0-0.5c0-0.1,0-0.2,0-0.2V21.5C-39.3,20.2-40.3,19.1-41.6,19.1L-41.6,19.1z"></path> </g> <path class="st1" d="M-74.1,36.8L-74.1,36.8c0.2,1.3,1.3,2.3,2.6,2.2c1.3,0,2.4-0.9,2.6-2.2l0,0V25.3l0,0v-0.1 c-0.1-1.4-1.2-2.5-2.6-2.4c-1.4-0.1-2.5,1-2.6,2.4v0.1l0,0V36.8z"></path> <g> <text transform="matrix(1 0 0 1 256 40)" style="font-family:'MyriadPro-Regular'; font-size:12px;">https://drive.google.com/drive/folders/1Vyn--NrVNPxWuuv_3BVNFNd9Luow7pJp?usp=sharing</text> </g> <g> <path class="st0" d="M65.1,34.5c-0.8,1.2-1.8,1.5-2.8,1.7c-8.1,1.2-16.1,2.3-24.2,3.5c-4.5,0.7-8.9,1.4-13.4,2.2 c-0.1,0-0.2,0-0.4,0c0-0.2-0.1-0.4-0.1-0.6c0-1.4,0.1-2.7,0.1-4.1c0-0.7,0.1-1.2,1-1.2c1.9-0.1,3.7-0.4,5.6-0.5c5-0.3,10-0.7,15-1 c5.4-0.2,10.8-0.4,16.2-0.5C63.2,33.9,64.1,34.3,65.1,34.5z"></path> <path class="st0" d="M38,30.5c0,0.3,0,0.6,0,0.9c-1.9,0-3.8,0-5.8,0c0-0.3,0-0.6-0.1-1c1.2,0.1,1.4-0.5,1.4-1.5c-0.1-1.6,0-3.3,0-5 c0-1-0.3-1.9-1.3-2.1c-0.9-0.2-2,0.1-3,0.2c-0.1,0-0.2,0.4-0.2,0.6c0,2.3,0,4.6,0,6.8c0,1,0.7,0.9,1.3,1c0,0.3,0,0.6,0.1,0.9 c-2,0-3.9,0-5.9,0c0-0.3,0-0.6,0-0.8c0.1,0,0.1-0.1,0.2-0.1c1,0.1,1.4-0.3,1.3-1.4c-0.1-2.1,0-4.2,0-6.3c0-0.3,0-0.6,0-1 c-0.6,0-1-0.1-1.5-0.1c-0.3-0.6-0.2-1.1,0.6-1.2c1.3-0.3,2.4-1.1,3.9-0.8c0,0.4,0,0.8,0.1,1.3c0.6-0.3,1.2-0.5,1.8-0.7 c0.6-0.2,1.1-0.4,1.7-0.5c2.3-0.4,3.8,0.8,3.8,3.2c0,2,0,4,0,6C36.4,30.4,36.4,30.4,38,30.5z"></path> <path class="st0" d="M40.3,21.7c-0.5,0-1-0.1-1.4-0.1c-0.2-0.6-0.1-1,0.5-1.1c1.2-0.4,2.5-0.8,4-1.2c0,1,0,1.6,0,2.3 c0,1.8,0,3.6,0,5.4c0,2.5,1.8,3.6,4,2.5c0.1-0.1,0.3-0.3,0.3-0.4c0-2.4,0-4.8,0-7.2c-0.6,0-1-0.1-1.5-0.1c-0.3-0.6-0.1-1,0.6-1.2 c1.2-0.3,2.4-1.2,3.9-0.8c0,1.3,0,2.7,0,4c0,1.7,0,3.5,0,5.2c0,1.4,0,1.4,1.5,1.6c0,0.3,0,0.6,0,1c-1.5,0-2.9,0-4.4,0 c0-0.4-0.1-0.7-0.1-1.1c-1,0.4-1.8,0.8-2.8,1.1c-2.6,0.8-4.5-0.6-4.5-3.3c0-2.1,0-4.2,0-6.2C40.4,21.9,40.4,21.9,40.3,21.7z"></path> <path class="st0" d="M4.1,31.4c0-0.3,0-0.6,0-0.9c0.1-0.1,0.2-0.1,0.2-0.1c1.6-0.1,1.6-0.1,1.6-1.7c0-3.4,0-6.8,0-10.2 c0-1.8,0-1.8-1.8-1.9C4.1,16.4,4,16.2,4,16c0-0.2,0-0.3,0-0.6c2.3,0,4.5,0,6.9,0c0,0.3,0,0.7,0,1c-0.1,0-0.1,0.1-0.2,0.1 c-1.6,0.1-1.6,0.1-1.6,1.7c0,3.6,0,7.2,0,10.8c0,0.4,0,0.7,0,1.2c1.5,0,2.8,0,4.1,0c0.3,0,0.6-0.4,0.7-0.8c0.2-0.8,0.3-1.6,0.4-2.5 c0.5,0,1.1,0,1.7,0c0,1.5,0,3,0,4.5C12.1,31.4,8.1,31.4,4.1,31.4z"></path> <path class="st0" d="M65.1,19.9c0,0.3,0,0.6,0,0.9c-1.7,0.1-2.2,1.6-3,2.6c-1.4,1.7-1.3,1.8-0.1,3.6c0.6,0.8,1.1,1.7,1.8,2.5 c0.3,0.4,0.9,0.7,1.3,1c0.2,0.2,0.4,0.5,0.7,0.9c-2.2,0-4,0-5.8,0c-0.1-0.6-0.1-0.6,0.9-1.3c-0.7-1-1.4-2.1-2.2-3.2 c-0.8,1.1-1.5,2.2-2.3,3.3c0.5,0.1,0.8,0.2,1.2,0.3c0,0.3,0,0.5,0,0.8c-1.5,0-2.9,0-4.5,0c-0.1-0.5-0.3-0.9,0.5-1 c0.4-0.1,0.8-0.4,1.1-0.7c0.9-1.1,1.7-2.2,2.6-3.3c0.3-0.4,0.3-0.7,0-1.1c-0.7-0.9-1.3-1.9-2-2.9c-0.6-0.8-1-1.7-2.2-1.6 c0-0.4,0-0.7,0-1c1.9,0,3.8,0,5.7,0c0,0.3,0,0.6,0,0.9c-0.3,0.1-0.6,0.2-1,0.4c0.7,1,1.3,1.9,2.1,3c0.7-1,1.3-1.9,2-3 c-0.4-0.1-0.7-0.3-1.1-0.4c0-0.3,0-0.5-0.1-0.9C62.1,19.9,63.6,19.9,65.1,19.9z"></path> <path class="st0" d="M17.3,21.7c-0.2-0.6-0.1-1,0.5-1.2c1.3-0.4,2.4-1.2,3.9-0.9c0,2,0,4,0,6c0,1.1,0,2.2,0,3.3 c0,1.5,0,1.5,1.6,1.6c0,0.3,0,0.5,0,0.9c-0.3,0-0.5,0.1-0.6,0.1c-1.8,0-3.6,0-5.5,0c0-0.3,0-0.6-0.1-0.9c0.1-0.1,0.2-0.1,0.3-0.1 c1.1,0.1,1.3-0.4,1.3-1.4c-0.1-2.4,0-4.8,0-7.3C18.2,21.8,17.8,21.8,17.3,21.7z"></path> <path class="st0" d="M20.4,14.2c1,0,1.8,0.7,1.8,1.7c0,1-0.8,1.9-1.8,1.8c-0.9,0-1.8-0.9-1.8-1.8C18.6,15,19.4,14.2,20.4,14.2z"></path> </g> </svg> 