<?xml version="1.0" encoding="UTF-8"?> <svg xmlns="http://www.w3.org/2000/svg" id="Layer_1" data-name="Layer 1" viewBox="0 0 80 80"><defs><style>.cls-1{fill:#1b54f8;}.cls-2{fill:none;stroke:#1b54f8;stroke-miterlimit:10;stroke-width:2px;}</style></defs><path class="cls-1" d="M40,10.25a7.86,7.86,0,1,1-7.85,7.85A7.86,7.86,0,0,1,40,10.25m0-2a9.86,9.86,0,1,0,9.85,9.85A9.86,9.86,0,0,0,40,8.25Z"></path><path class="cls-1" d="M41.6,18.9H38.4A2.4,2.4,0,0,1,36,16.5v-.8a2.41,2.41,0,0,1,2.4-2.4h.8v-.8h1.6v.8h.8A2.41,2.41,0,0,1,44,15.7H42.4a.8.8,0,0,0-.8-.8H38.4a.8.8,0,0,0-.8.8v.8a.8.8,0,0,0,.8.8h3.2A2.41,2.41,0,0,1,44,19.7v.8a2.4,2.4,0,0,1-2.4,2.4h-.8v.8H39.2v-.8h-.8A2.4,2.4,0,0,1,36,20.5h1.6a.8.8,0,0,0,.8.8h3.2a.8.8,0,0,0,.8-.8v-.8A.8.8,0,0,0,41.6,18.9Z"></path><path class="cls-1" d="M47.85,54.85V56.5L45.13,62a5.19,5.19,0,0,0-.56,2.36v1.86h-7V64.46a5.29,5.29,0,0,0-.89-2.93L33.24,56.3V54.85H47.85M40,36.43a1.09,1.09,0,0,0-1.09,1.1V52.85H36.72V39.72a1.1,1.1,0,1,0-2.19,0V52.85H31.24v3.72a1,1,0,0,0,.19.61l3.64,5.46a3.27,3.27,0,0,1,.55,1.82v3.72h11V64.32a3.37,3.37,0,0,1,.34-1.47l2.83-5.64a1.24,1.24,0,0,0,.11-.49V41.91a1.1,1.1,0,1,0-2.19,0V52.85H45.47V39.72a1.1,1.1,0,1,0-2.19,0V52.85H41.09V37.53A1.09,1.09,0,0,0,40,36.43Z"></path><rect class="cls-2" x="33.43" y="70.37" width="15.33" height="4.38"></rect><path class="cls-2" d="M51.83,20.29a12,12,0,0,1-23.66,0H13.72V47.66H32.34V36.72a3.27,3.27,0,0,1,4.5-3,3.27,3.27,0,0,1,6.32,0,3.26,3.26,0,0,1,4.38,2.19,3.27,3.27,0,0,1,4.5,3v8.75H66.28V20.29Z"></path><polygon class="cls-1" points="15.91 22.48 21.39 22.48 21.39 24.67 18.1 24.67 18.1 27.96 15.91 27.96 15.91 22.48"></polygon><polygon class="cls-1" points="21.39 45.47 15.91 45.47 15.91 40 18.1 40 18.1 43.28 21.39 43.28 21.39 45.47"></polygon><rect class="cls-1" x="20.29" y="31.24" width="2.19" height="2.19"></rect><rect class="cls-1" x="24.67" y="31.24" width="2.19" height="2.19"></rect><rect class="cls-1" x="29.05" y="31.24" width="2.19" height="2.19"></rect><rect class="cls-1" x="48.76" y="31.24" width="2.19" height="2.19"></rect><rect class="cls-1" x="53.14" y="31.24" width="2.19" height="2.19"></rect><rect class="cls-1" x="57.52" y="31.24" width="2.19" height="2.19"></rect><polygon class="cls-1" points="64.09 45.47 58.61 45.47 58.61 43.28 61.9 43.28 61.9 40 64.09 40 64.09 45.47"></polygon><polygon class="cls-1" points="64.09 27.96 61.9 27.96 61.9 24.67 58.61 24.67 58.61 22.48 64.09 22.48 64.09 27.96"></polygon></svg> 