<?xml version="1.0" encoding="UTF-8"?> <svg xmlns="http://www.w3.org/2000/svg" xmlns:xlink="http://www.w3.org/1999/xlink" width="90" height="90" viewBox="0 0 90 90"><defs><clipPath id="clip-path"><rect id="Rectangle_420" data-name="Rectangle 420" width="90" height="90" transform="translate(1533 185)" fill="#fff" stroke="#707070" stroke-width="1"></rect></clipPath></defs><g id="Mask_Group_11" data-name="Mask Group 11" transform="translate(-1533 -185)" clip-path="url(#clip-path)"><g id="logistics" transform="translate(1540.99 183)"><path id="Path_7219" data-name="Path 7219" d="M87.5,91.837a1.167,1.167,0,0,0,0-2.333H85.167a1.167,1.167,0,0,0,0,2.333Zm16.333-.42a6.417,6.417,0,1,0-6.417,6.417A6.417,6.417,0,0,0,103.833,91.417Zm-10.5,0A4.083,4.083,0,1,1,97.417,95.5a4.083,4.083,0,0,1-4.083-4.083Z" transform="translate(-34.996 -25.833)" fill="#1b54f8"></path><path id="Path_7220" data-name="Path 7220" d="M88.333,91.679a1.167,1.167,0,0,0-1.167-1.167H86a1.167,1.167,0,1,0,0,2.333h1.167A1.167,1.167,0,0,0,88.333,91.679Zm-17.5-.262a6.417,6.417,0,1,0-6.417,6.417A6.417,6.417,0,0,0,70.833,91.417Zm-10.5,0A4.083,4.083,0,1,1,64.417,95.5,4.083,4.083,0,0,1,60.333,91.417Z" transform="translate(-24.163 -25.833)" fill="#1b54f8"></path><path id="Path_7221" data-name="Path 7221" d="M46.167,91.679A1.167,1.167,0,0,0,45,90.512H43.833a1.167,1.167,0,1,0,0,2.333H45A1.167,1.167,0,0,0,46.167,91.679ZM16.417,85a6.417,6.417,0,1,0,6.417,6.417A6.417,6.417,0,0,0,16.417,85Zm0,10.5A4.083,4.083,0,1,1,20.5,91.417,4.083,4.083,0,0,1,16.417,95.5Z" transform="translate(-4.163 -25.833)" fill="#1b54f8"></path><path id="Path_7222" data-name="Path 7222" d="M20.333,94.45H19.167a1.167,1.167,0,1,0,0,2.333h1.167a1.167,1.167,0,1,0,0-2.333Z" transform="translate(-7.496 -29.771)" fill="#1b54f8"></path><path id="Path_7223" data-name="Path 7223" d="M72.337,23H24.5a2.333,2.333,0,0,0-2.333,2.333v9.333H9.693a1.167,1.167,0,0,0,0,2.333H10.5L7.733,43.417H7.681a6.925,6.925,0,0,0-5.757,2.094C-.352,48.037,0,51.9.068,52.563v13.02A1.167,1.167,0,0,0,1.235,66.75H2.4a1.167,1.167,0,0,0,0-2.333V53.333H22.171v10.5H22.1a1.167,1.167,0,1,0,0,2.333h8.237a1.167,1.167,0,1,0,0-2.333H24.5V54.5H72.337v9.333a1.167,1.167,0,0,0,0,2.333H73.5A1.167,1.167,0,0,0,74.671,65V25.333A2.333,2.333,0,0,0,72.337,23ZM22.171,46.333V51H2.337A6.235,6.235,0,0,1,3.65,47.074,4.9,4.9,0,0,1,7.628,45.75H22.171Zm0-2.917h-11.9L13.024,37h9.147Zm7.583,8.75H24.5V25.333h5.25Zm5.833,0h-3.5V25.333h3.5Zm5.833,0h-3.5V25.333h3.5Zm5.833,0h-3.5V25.333h3.5Zm5.833,0h-3.5V25.333h3.5Zm5.833,0h-3.5V25.333h3.5Zm5.833,0h-3.5V25.333h3.5Zm7.583-5.833v5.833h-5.25V25.333h5.25Z" transform="translate(0)" fill="#1b54f8"></path></g></g></svg> 