<?xml version="1.0" encoding="UTF-8"?> <svg xmlns="http://www.w3.org/2000/svg" id="Layer_1" data-name="Layer 1" viewBox="0 0 80 80"><defs><style>.cls-1{fill:#1b54f8;}</style></defs><g id="Supply_Chain" data-name="Supply Chain"><g id="Transportation"><path id="Shape" class="cls-1" d="M7.23,55.33v-37A1.37,1.37,0,0,1,8.6,17H48.79a1.37,1.37,0,0,1,1.37,1.38v8.16H65.33a1.38,1.38,0,0,1,1.17.65L72.57,37a1.43,1.43,0,0,1,.2.73V55.33a1.37,1.37,0,0,1-1.37,1.38h-4a7.63,7.63,0,0,1-15,0H30.46a7.63,7.63,0,0,1-15,0H8.6A1.37,1.37,0,0,1,7.23,55.33Zm52.62-7.69A7.68,7.68,0,0,1,67.37,54H70V39.15H50.16V54h2.17a7.68,7.68,0,0,1,7.52-6.31Zm4.72-18.38H50.13v7.12H69Zm-4.72,31A4.93,4.93,0,1,0,55,55.34,4.9,4.9,0,0,0,59.85,60.26Zm-36.91,0a4.9,4.9,0,0,0,4.53-3,5,5,0,0,0-1.07-5.37,4.86,4.86,0,0,0-5.34-1.06,4.93,4.93,0,0,0,1.88,9.48Zm0-12.62A7.68,7.68,0,0,1,30.46,54H47.41V19.71H10V54h5.44a7.68,7.68,0,0,1,7.52-6.31Z"></path><polygon id="Path" class="cls-1" points="36.82 25.86 25.44 37.3 19.19 31.02 17.25 32.98 25.44 41.21 38.76 27.81 36.82 25.86"></polygon></g></g></svg> 