<?xml version="1.0" encoding="UTF-8"?> <svg xmlns="http://www.w3.org/2000/svg" id="Layer_1" data-name="Layer 1" viewBox="0 0 80 80"><defs><style>.cls-1{fill:#1b54f8;}</style></defs><g id="Supply_Chain" data-name="Supply Chain"><g id="Transportation"><path id="Shape" class="cls-1" d="M7.23,55.84v-37A1.38,1.38,0,0,1,8.6,17.46H48.79a1.38,1.38,0,0,1,1.37,1.39V27H65.33a1.36,1.36,0,0,1,1.17.65l6.07,9.81a1.47,1.47,0,0,1,.2.74V55.84a1.38,1.38,0,0,1-1.37,1.39h-4a7.63,7.63,0,0,1-15,0H30.75a1.41,1.41,0,0,1-.29,0,7.63,7.63,0,0,1-15,0H8.6A1.38,1.38,0,0,1,7.23,55.84Zm52.62-7.68a7.66,7.66,0,0,1,7.52,6.3H70V39.66H50.16v14.8h2.17a7.68,7.68,0,0,1,7.52-6.3Zm4.72-18.39H50.13V36.9H69Zm-4.72,31A4.93,4.93,0,1,0,55,55.85,4.91,4.91,0,0,0,59.85,60.77Zm-36.91,0a4.91,4.91,0,0,0,4.53-3,5,5,0,0,0-1.07-5.37,4.88,4.88,0,0,0-5.34-1.07,4.93,4.93,0,0,0,1.88,9.48Zm0-12.61a7.67,7.67,0,0,1,7.52,6.34H47.41V20.23H10V54.46h5.44a7.68,7.68,0,0,1,7.52-6.3Z"></path><polygon id="Path" class="cls-1" points="36.82 26.37 25.44 37.81 19.19 31.54 17.25 33.49 25.44 41.72 38.76 28.33 36.82 26.37"></polygon></g></g></svg> 