<?xml version="1.0" encoding="UTF-8"?> <svg xmlns="http://www.w3.org/2000/svg" xmlns:xlink="http://www.w3.org/1999/xlink" width="90" height="90" viewBox="0 0 90 90"><defs><clipPath id="clip-path"><rect id="Rectangle_12" data-name="Rectangle 12" width="90" height="90" transform="translate(1267 354)" fill="#fff" stroke="#707070" stroke-width="1"></rect></clipPath></defs><g id="Mask_Group_23" data-name="Mask Group 23" transform="translate(-1267 -354)" clip-path="url(#clip-path)"><g id="Group_49" data-name="Group 49" transform="translate(-0.804 124)"><g id="Group_48" data-name="Group 48" transform="translate(1278.804 241)"><path id="Path_116" data-name="Path 116" d="M33.476,15.952h-2.19a1.1,1.1,0,0,1-1.1-1.1H28a3.29,3.29,0,0,0,3.286,3.286v2.19h2.19v-2.19a3.286,3.286,0,0,0,0-6.571h-2.19a1.1,1.1,0,0,1,0-2.19h2.19a1.1,1.1,0,0,1,1.1,1.1h2.19A3.29,3.29,0,0,0,33.476,7.19V5h-2.19V7.19a3.286,3.286,0,0,0,0,6.571h2.19a1.1,1.1,0,0,1,0,2.19Z" transform="translate(1.405 -0.619)" fill="#1c54f8"></path><path id="Path_117" data-name="Path 117" d="M54.809,62.333V52.414A13.327,13.327,0,0,0,47.4,40.428a2.449,2.449,0,0,1,0-4.381,13.329,13.329,0,0,0,7.408-11.986V14.143A2.193,2.193,0,0,0,57,11.952V9.762a2.193,2.193,0,0,0-2.19-2.19H44.718a12.026,12.026,0,0,0-21.436,0H13.19A2.193,2.193,0,0,0,11,9.762v2.19a2.193,2.193,0,0,0,2.19,2.19v9.918A13.328,13.328,0,0,0,20.6,36.047a2.449,2.449,0,0,1,0,4.381A13.328,13.328,0,0,0,13.19,52.414v9.918A2.193,2.193,0,0,0,11,64.523v2.19a2.193,2.193,0,0,0,2.19,2.19H54.809A2.193,2.193,0,0,0,57,66.713v-2.19A2.193,2.193,0,0,0,54.809,62.333Zm-2.19-38.272a11.149,11.149,0,0,1-6.2,10.027,4.639,4.639,0,0,0,0,8.3,11.149,11.149,0,0,1,6.2,10.027v9.918H35.095v-2.19h5.476a7.676,7.676,0,0,0,7.667-7.667v-1.1H40.571a7.637,7.637,0,0,0-5.476,2.312V36.047h3.286a7.676,7.676,0,0,0,7.667-7.667v-1.1H40.571A7.637,7.637,0,0,0,35.095,29.6V25.04a12.059,12.059,0,0,0,10.9-10.9h6.627ZM35.206,57.952a5.485,5.485,0,0,1,5.366-4.381h5.366a5.485,5.485,0,0,1-5.366,4.381Zm0-24.095a5.485,5.485,0,0,1,5.366-4.381h3.175a5.485,5.485,0,0,1-5.366,4.381Zm19.6-24.095v2.19H45.991a11.852,11.852,0,0,0-.412-2.19ZM34,3.19a9.857,9.857,0,1,1-9.857,9.857A9.868,9.868,0,0,1,34,3.19ZM13.19,9.762h9.228a12.054,12.054,0,0,0-.412,2.19H13.19Zm2.19,42.652a11.149,11.149,0,0,1,6.2-10.027,4.639,4.639,0,0,0,0-8.3,11.149,11.149,0,0,1-6.2-10.027V14.143h6.627a12.059,12.059,0,0,0,10.9,10.9V38.266a5.419,5.419,0,0,0-3.286-1.124H26.333v1.1a5.482,5.482,0,0,0,5.476,5.476h1.1v5.6A7.637,7.637,0,0,0,27.428,47H19.762v1.1a7.676,7.676,0,0,0,7.667,7.667H32.9v6.571H15.381ZM32.717,41.523h-.908a3.292,3.292,0,0,1-3.1-2.19h.908A3.292,3.292,0,0,1,32.717,41.523Zm.077,12.047H27.428a5.485,5.485,0,0,1-5.366-4.381h5.366A5.485,5.485,0,0,1,32.794,53.571ZM13.19,66.713v-2.19H54.809l0,2.19Z" transform="translate(-0.214 -1)" fill="#1c54f8"></path><path id="Path_118" data-name="Path 118" d="M63.962,32.361l-6.4-10.248-6.4,10.248,1.858,1.161L56.462,28V51.56h2.19V28L62.1,33.522Z" transform="translate(3.609 1.01)" fill="#1c54f8"></path><rect id="Rectangle_671" data-name="Rectangle 671" width="2.19" height="2.19" transform="translate(60.071 59.142)" fill="#1c54f8"></rect><rect id="Rectangle_672" data-name="Rectangle 672" width="2.19" height="2.19" transform="translate(60.071 54.761)" fill="#1c54f8"></rect><path id="Path_119" data-name="Path 119" d="M12.1,33.522l1.858-1.161-6.4-10.248-6.4,10.248L3.01,33.522,6.462,28V51.56h2.19V28Z" transform="translate(-1.152 1.01)" fill="#1c54f8"></path><rect id="Rectangle_673" data-name="Rectangle 673" width="2.19" height="2.19" transform="translate(5.31 59.142)" fill="#1c54f8"></rect><rect id="Rectangle_674" data-name="Rectangle 674" width="2.19" height="2.19" transform="translate(5.31 54.761)" fill="#1c54f8"></rect></g></g></g></svg> 