<?xml version="1.0" encoding="UTF-8"?> <svg xmlns="http://www.w3.org/2000/svg" width="61" height="61" viewBox="0 0 61 61" fill="none"><mask id="mask0_1_180" style="mask-type:luminance" maskUnits="userSpaceOnUse" x="0" y="0" width="61" height="61"><path d="M60.2 0.799988H0.200012V60.8H60.2V0.799988Z" fill="white"></path></mask><g mask="url(#mask0_1_180)"><path fill-rule="evenodd" clip-rule="evenodd" d="M30.5 22.5V38.7C35 38.5 38.4 34.7 38.1 30.2C38 26 34.7 22.7 30.5 22.5ZM30.5 17.7C31.2 17.7 31.9 17.8 32.5 17.9C32.9 18 33.3 17.8 33.4 17.4L34 16L37.6 17.5L37 18.9C36.9 19.2 37 19.6 37.3 19.9C38.7 20.8 39.9 22 40.8 23.4C41 23.7 41.4 23.8 41.8 23.7L43.2 23.1L44.7 26.7L43.3 27.3C43 27.4 42.8 27.8 42.8 28.2C43.1 29.8 43.1 31.5 42.8 33.1C42.7 33.5 42.9 33.9 43.3 34L44.7 34.6L43.2 38.2L41.8 37.6C41.5 37.5 41.1 37.6 40.8 37.9C39.9 39.3 38.7 40.5 37.3 41.4C37 41.6 36.9 42 37 42.4L37.6 43.8L34 45.3L33.4 43.9C33.3 43.6 32.9 43.4 32.5 43.4C31.8 43.5 31.2 43.6 30.5 43.6V40.4C35.8 40.2 40 35.7 39.7 30.3C39.5 25.3 35.5 21.3 30.5 21.1V17.7ZM13.6 36.9C14 36.9 14.4 37.2 14.4 37.6C14.4 38 14.1 38.4 13.7 38.4C12.5 38.5 11.3 38.3 10.1 38C9.70001 37.8 9.50001 37.4 9.60001 37C9.70001 36.6 10.1 36.4 10.5 36.5C11.5 36.8 12.6 36.9 13.6 36.9ZM23.3 31.4C22.1 33.7 20.3 35.7 18.1 37.1C17.7 37.4 17.2 37.3 17 36.9C16.7 36.5 16.8 36 17.2 35.8C17.2 35.8 17.3 35.8 17.3 35.7C19.3 34.4 20.9 32.6 22 30.5C18.9 28.4 16.2 25.7 14.3 22.4C14.1 22 14.2 21.5 14.6 21.3C15 21.1 15.5 21.2 15.7 21.6C18.9 26.8 23.2 30.5 29.1 31.6V9C29.1 5.6 26.3 2.89999 22.9 2.89999C19.6 2.89999 16.9 5.59999 16.8 8.89999C19.5 9.39999 20.4 10.7 21.3 12.1C22.1 13.5 23.4 14.6 25 14.9C25.4 15 25.7 15.4 25.6 15.9C25.5 16.3 25.1 16.6 24.7 16.5C22.7 16.1 21 14.8 20 13C19.1 11.6 18.3 10.4 14.4 10.4C11.1 10.4 8.50001 13 8.50001 16.3C8.50001 16.8 8.60002 17.2 8.70002 17.7C8.80002 18.1 9.00002 18.6 9.20002 19C9.40002 19.4 9.3 19.9 8.9 20.1C8.9 20.1 8.79999 20.1 8.79999 20.2C3.49999 22.5 1.1 28.7 3.4 34C3.5 34.3 3.69999 34.6 3.79999 34.8C4.59999 36.3 5.79999 37.6 7.29999 38.6C7.69999 38.8 7.80001 39.3 7.50001 39.7C7.50001 39.7 7.5 39.8 7.4 39.8C6.5 41 6.00001 42.5 6.00001 44C6.00001 48 8.50001 50.1 12.5 50.6C14.7 50.9 16.6 48.8 18.2 46.9C19.8 45.1 21.2 43.5 23.1 43.6C23.5 43.7 23.8 44.1 23.8 44.5C23.7 44.9 23.4 45.2 23 45.2C21.9 45.1 20.7 46.5 19.4 48C18.6 48.9 17.8 49.8 16.9 50.6V52.4C16.9 55.8 19.6 58.6 23 58.6C26.4 58.6 29.2 55.9 29.2 52.5V52.4V33.6C27 33 25 32.3 23.3 31.4ZM30.5 51.9V45.1C31.1 45.1 31.6 45 32.2 45L32.8 46.5C33 46.9 33.4 47.1 33.8 46.9L38.9 44.8C39.3 44.6 39.5 44.2 39.3 43.8L38.7 42.3C39.8 41.5 40.9 40.4 41.7 39.3L43.2 39.9C43.6 40.1 44.1 39.9 44.2 39.5L46.3 34.4C46.5 34 46.3 33.5 45.9 33.4L44.4 32.8C44.6 31.4 44.6 30 44.4 28.6L45.9 28C46.3 27.8 46.5 27.4 46.3 27L44.2 21.9C44 21.5 43.6 21.3 43.2 21.5L41.7 22.1C40.9 21 39.8 19.9 38.7 19.1L39.3 17.6C39.5 17.2 39.3 16.7 38.9 16.6L33.8 14.5C33.4 14.3 32.9 14.5 32.8 14.9L32.2 16.4C31.6 16.3 31.1 16.3 30.5 16.2V9.39999H51V52H30.5V51.9ZM58.7 13.5C59.1 13.5 59.5 13.8 59.5 14.2C59.5 14.6 59.2 15 58.8 15H58.7C56.7 15 54.7 15 52.7 15V19.9C54.7 19.9 56.8 19.9 58.7 19.9C59.1 19.9 59.5 20.3 59.5 20.7C59.5 21.1 59.1 21.5 58.7 21.5C56.7 21.5 54.6 21.5 52.7 21.5V26.4C54.7 26.4 56.7 26.4 58.7 26.4C59.1 26.4 59.5 26.8 59.5 27.2C59.5 27.6 59.1 28 58.7 28C56.7 28 54.7 28 52.7 28V32.9C54.7 32.9 56.8 32.9 58.7 32.9C59.1 32.9 59.5 33.3 59.5 33.7C59.5 34.1 59.1 34.5 58.7 34.5C56.7 34.5 54.7 34.5 52.7 34.5V39.4C54.7 39.4 56.8 39.4 58.7 39.4C59.1 39.4 59.5 39.8 59.5 40.2C59.5 40.6 59.1 41 58.7 41C56.7 41 54.7 41 52.7 41V45.9C54.7 45.9 56.7 45.9 58.7 45.9C59.1 45.9 59.5 46.2 59.5 46.6C59.5 47 59.2 47.4 58.8 47.4H58.7C56.8 47.4 54.5 47.4 52.7 47.4V52.5C52.7 52.9 52.3 53.3 51.9 53.3H46.8C46.8 55.3 46.8 57.4 46.8 59.3C46.8 59.7 46.4 60.1 46 60C45.6 60 45.3 59.7 45.3 59.3C45.3 57.3 45.3 55.3 45.3 53.3H40.4C40.4 55.3 40.4 57.3 40.4 59.3C40.4 59.7 40 60.1 39.6 60.1C39.2 60.1 38.8 59.7 38.8 59.3C38.8 57.3 38.8 55.3 38.8 53.3H33.9C33.9 55.3 33.9 57.3 33.9 59.3C33.9 59.7 33.5 60.1 33.1 60.1C32.7 60.1 32.3 59.7 32.3 59.3C32.3 57.3 32.3 55.3 32.3 53.3H30.5C29.7 57.5 25.7 60.3 21.5 59.5C17.8 58.8 15.2 55.6 15.2 51.9V51.2C14.3 51.7 13.2 51.9 12.2 51.8C7.40002 51.2 4.29999 48.5 4.29999 43.6C4.29999 42 4.80001 40.4 5.60001 39.1C0.500012 35.3 -0.700006 28.1 2.79999 22.8C3.89999 21.1 5.5 19.7 7.4 18.7C5.9 14.9 7.80002 10.5 11.7 9C12.6 8.7 13.5 8.5 14.4 8.5C14.7 8.5 15 8.5 15.3 8.5C15.4 4.2 19 0.9 23.3 1C26.9 1.1 30 3.79999 30.6 7.29999H32.4C32.4 5.29999 32.4 3.29999 32.4 1.29999C32.4 0.899988 32.8 0.5 33.2 0.5C33.6 0.5 34 0.899988 34 1.29999C34 3.29999 33.9 5.39999 34 7.29999H38.9C38.9 5.29999 38.9 3.29999 38.9 1.29999C38.9 0.899988 39.3 0.5 39.7 0.5C40.1 0.5 40.5 0.899988 40.5 1.29999C40.5 3.29999 40.5 5.39999 40.5 7.29999H45.4C45.4 5.29999 45.4 3.29999 45.4 1.29999C45.4 0.899988 45.8 0.500006 46.2 0.600006C46.6 0.600006 46.9 0.899988 46.9 1.29999C46.9 3.29999 46.9 5.29999 46.9 7.29999H52C52.4 7.29999 52.8 7.70001 52.8 8.10001V13.2C54.7 13.5 56.7 13.5 58.7 13.5Z" fill="#1B54F8" stroke="#1B54F8" stroke-width="0.25" stroke-miterlimit="10"></path></g></svg> 