<?xml version="1.0" encoding="UTF-8"?> <svg xmlns="http://www.w3.org/2000/svg" xmlns:xlink="http://www.w3.org/1999/xlink" width="90" height="90" viewBox="0 0 90 90"><defs><clipPath id="clip-path"><rect id="Rectangle_19" data-name="Rectangle 19" width="90" height="90" transform="translate(631 338)" fill="#fff" stroke="#707070" stroke-width="1"></rect></clipPath></defs><g id="Mask_Group_40" data-name="Mask Group 40" transform="translate(-631 -338)" clip-path="url(#clip-path)"><g id="Group_56" data-name="Group 56" transform="translate(127.31 4.985)"><path id="Path_187" data-name="Path 187" d="M134.626,59.356a6.593,6.593,0,1,0,3.461-7.809L130.434,43.1a6.6,6.6,0,1,0-12.091-2.133l-5.712,3.01a6.595,6.595,0,1,0,0,9.2l5.712,3.01a6.449,6.449,0,0,0,0,2.591l-5.714,3.01a6.594,6.594,0,1,0,0,9.2l5.712,3.01a6.448,6.448,0,0,0,0,2.591l-5.714,3.01a6.593,6.593,0,1,0,0,9.2l5.712,3.01a6.593,6.593,0,1,0,12.091-2.133l7.653-8.445a6.594,6.594,0,1,0,0-11.881l-7.653-8.445a6.652,6.652,0,0,0,.692-1.56h3.5Zm-6.96,27.82a6.593,6.593,0,0,0-7.583,1.339L114.371,85.5a6.441,6.441,0,0,0,0-2.59l5.714-3.01a6.592,6.592,0,0,0,11.044-2.733h3.5a6.6,6.6,0,0,0,.692,1.56l-7.653,8.445Zm-5.391-10.544a2.858,2.858,0,0,1,0-2.662,2.858,2.858,0,1,1,0,2.662Zm12.352-3.2h-3.5A6.592,6.592,0,0,0,120.083,70.7l-5.712-3.01a6.449,6.449,0,0,0,0-2.591l5.714-3.01a6.593,6.593,0,0,0,7.583,1.339l7.653,8.445a6.652,6.652,0,0,0-.692,1.56Zm-7.906-13.829a2.856,2.856,0,0,1-4.446-.788,2.858,2.858,0,0,1,0-2.662,2.857,2.857,0,1,1,4.446,3.449ZM124.8,50.895a6.579,6.579,0,0,0-4.721,1.992l-5.712-3.01a6.441,6.441,0,0,0,0-2.59l5.714-3.011a6.593,6.593,0,0,0,7.583,1.339l7.653,8.445a6.653,6.653,0,0,0-.692,1.56h-3.5a6.6,6.6,0,0,0-6.323-4.726Zm19,6.594a2.858,2.858,0,1,1-2.859-2.858A2.862,2.862,0,0,1,143.806,57.488Zm-19-20.672A2.858,2.858,0,1,1,122.275,41a2.809,2.809,0,0,1-.329-1.33A2.861,2.861,0,0,1,124.8,36.816Zm-16.9,14.622a2.858,2.858,0,1,1,2.529-4.191,2.858,2.858,0,0,1-2.529,4.191Zm0,17.815a2.858,2.858,0,1,1,2.529-4.188,2.858,2.858,0,0,1,0,2.662A2.854,2.854,0,0,1,107.907,69.253Zm0,17.815a2.858,2.858,0,1,1,2.529-4.188,2.864,2.864,0,0,1,0,2.662A2.854,2.854,0,0,1,107.907,87.068Zm16.9,8.907a2.861,2.861,0,0,1-2.858-2.857,2.819,2.819,0,0,1,.329-1.332h0A2.856,2.856,0,0,1,126.72,91h0a2.857,2.857,0,0,1-1.919,4.974Zm19-20.672a2.858,2.858,0,1,1-2.859-2.858,2.862,2.862,0,0,1,2.859,2.858Z" transform="translate(424.024 311.62)" fill="#1c54f8" stroke="#fff" stroke-width="1.4"></path><path id="Path_188" data-name="Path 188" d="M16.68,96.747a1.868,1.868,0,1,0-2.642,2.642l1.01,1.01H11.888a1.868,1.868,0,1,0,0,3.736h3.159l-1.01,1.01a1.868,1.868,0,0,0,2.642,2.642l4.2-4.2a1.869,1.869,0,0,0,0-2.642l-4.2-4.2Z" transform="translate(501.67 257.933)" fill="#1c54f8" stroke="#fff" stroke-width="1.4"></path><path id="Path_189" data-name="Path 189" d="M16.68,215.947a1.868,1.868,0,1,0-2.642,2.642l1.01,1.01H11.888a1.868,1.868,0,0,0,0,3.736h3.159l-1.01,1.01a1.868,1.868,0,0,0,2.642,2.642l4.2-4.2a1.869,1.869,0,0,0,0-2.642Z" transform="translate(501.67 156.548)" fill="#1c54f8" stroke="#fff" stroke-width="1.4"></path><path id="Path_190" data-name="Path 190" d="M427.538,163.736H430.7l-1.01,1.01a1.868,1.868,0,0,0,2.642,2.642l4.2-4.2a1.869,1.869,0,0,0,0-2.642l-4.2-4.2a1.868,1.868,0,1,0-2.642,2.642L430.7,160h-3.159a1.868,1.868,0,1,0,0,3.736Z" transform="translate(148.14 207.24)" fill="#1c54f8" stroke="#fff" stroke-width="1.4"></path><path id="Path_191" data-name="Path 191" d="M432.32,275.557a1.868,1.868,0,0,0-2.642,2.642l1.01,1.01h-3.159a1.868,1.868,0,0,0,0,3.736h3.159l-1.01,1.01a1.868,1.868,0,0,0,2.642,2.642l4.2-4.2a1.869,1.869,0,0,0,0-2.642Z" transform="translate(148.148 105.847)" fill="#1c54f8" stroke="#fff" stroke-width="1.4"></path><path id="Path_192" data-name="Path 192" d="M16.68,335.157a1.868,1.868,0,1,0-2.642,2.642l1.01,1.01H11.888a1.868,1.868,0,0,0,0,3.736h3.159l-1.01,1.01A1.868,1.868,0,0,0,16.68,346.2l4.2-4.2a1.869,1.869,0,0,0,0-2.642Z" transform="translate(501.67 55.154)" fill="#1c54f8" stroke="#fff" stroke-width="1.4"></path></g></g></svg> 