<?xml version="1.0" encoding="UTF-8"?> <svg xmlns="http://www.w3.org/2000/svg" xmlns:xlink="http://www.w3.org/1999/xlink" width="90" height="90" viewBox="0 0 90 90"><defs><clipPath id="clip-path"><rect id="Rectangle_27" data-name="Rectangle 27" width="90" height="90" transform="translate(981 1474)" fill="#fff"></rect></clipPath></defs><g id="Mask_Group_13" data-name="Mask Group 13" transform="translate(-981 -1474)" clip-path="url(#clip-path)"><g id="Group_296" data-name="Group 296" transform="translate(92.838 315.751)"><path id="Path_221" data-name="Path 221" d="M164.122,88.2a4.244,4.244,0,1,0,0-2.829H144.036a25.112,25.112,0,0,0-.969-5.658h9.738a4.244,4.244,0,1,0,0-2.829h-10.75a25.307,25.307,0,0,0-1.421-2.829h7.684a1.415,1.415,0,0,0,1-.414l5.244-5.244h6.73a4.244,4.244,0,1,0,0-2.829h-7.316a1.415,1.415,0,0,0-1,.414l-5.244,5.244h-9.01A25.437,25.437,0,0,0,93.157,86.446L87.646,97.468a1.414,1.414,0,0,0,1.265,2.047h4.243v5.658a7.08,7.08,0,0,0,7.072,7.072h4.243v18.388a1.414,1.414,0,0,0,1.414,1.414H137a1.414,1.414,0,0,0,1.415-1.414V102.785q.177-.219.349-.442h8.966l5.244,5.244a1.415,1.415,0,0,0,1,.414h7.316a4.244,4.244,0,1,0,0-2.829h-6.73l-5.244-5.244a1.415,1.415,0,0,0-1-.414h-7.656a25.532,25.532,0,0,0,1.408-2.829h10.736a4.244,4.244,0,1,0,0-2.829h-9.735a25.477,25.477,0,0,0,.964-5.658Zm4-2.829a1.414,1.414,0,1,1-1.414,1.414A1.414,1.414,0,0,1,168.122,85.369Zm-11.316-8.487a1.414,1.414,0,1,1-1.414,1.414A1.414,1.414,0,0,1,156.806,76.882Zm8.487-11.316a1.414,1.414,0,1,1-1.414,1.414A1.414,1.414,0,0,1,165.293,65.566Zm0,39.606a1.414,1.414,0,1,1-1.414,1.415A1.414,1.414,0,0,1,165.293,105.172Zm-29.371-3.807a1.413,1.413,0,0,0-.333.912v26.942H107.3V112.244h4.243a1.414,1.414,0,1,0,0-2.829H100.227a4.249,4.249,0,0,1-4.243-4.243V98.1a1.414,1.414,0,0,0-1.414-1.414H91.2l4.634-9.269a1.411,1.411,0,0,0,.15-.633,22.631,22.631,0,0,1,22.632-22.632h.161a22.714,22.714,0,0,1,22.47,22.493h0a22.642,22.642,0,0,1-5.325,14.72Zm20.884-7.509a1.414,1.414,0,1,1-1.414,1.414A1.414,1.414,0,0,1,156.806,93.856Z" transform="translate(803.665 1106.911)" fill="#1b54f8" stroke="#fff" stroke-width="1"></path><path id="Path_222" data-name="Path 222" d="M186.2,99.491l-2.414,2.415q-.409-.188-.829-.352V97.663a1.414,1.414,0,0,0-1.414-1.414h-8.487a1.415,1.415,0,0,0-1.414,1.414v3.891q-.42.164-.829.352L168.4,99.491a1.415,1.415,0,0,0-2,0l-5.658,5.658a1.415,1.415,0,0,0,0,2l2.415,2.414q-.188.409-.352.829h-3.892a1.415,1.415,0,0,0-1.415,1.414v8.487a1.414,1.414,0,0,0,1.415,1.414H162.8q.164.42.352.829l-2.414,2.414a1.415,1.415,0,0,0,0,2l5.658,5.658a1.415,1.415,0,0,0,2,0l2.414-2.414q.409.188.829.352v3.891a1.414,1.414,0,0,0,1.414,1.415h8.487a1.414,1.414,0,0,0,1.414-1.415v-3.891q.42-.164.829-.352l2.414,2.414a1.415,1.415,0,0,0,2,0l5.658-5.658a1.415,1.415,0,0,0,0-2l-2.414-2.414q.188-.409.352-.829h3.891a1.414,1.414,0,0,0,1.414-1.414v-8.487a1.414,1.414,0,0,0-1.414-1.414H191.8q-.164-.42-.352-.829l2.414-2.414a1.415,1.415,0,0,0,0-2L188.2,99.491a1.415,1.415,0,0,0-2,0Zm2.281,10.47a12.591,12.591,0,0,1,.964,2.269,1.415,1.415,0,0,0,1.35.991h3.478v5.658H190.8a1.414,1.414,0,0,0-1.349.991,12.587,12.587,0,0,1-.964,2.269,1.415,1.415,0,0,0,.241,1.678l2.135,2.134L187.2,129.61l-2.134-2.135a1.415,1.415,0,0,0-1.678-.241,12.589,12.589,0,0,1-2.269.964,1.414,1.414,0,0,0-.991,1.349v3.478h-5.658v-3.478a1.414,1.414,0,0,0-.991-1.349,12.588,12.588,0,0,1-2.269-.964,1.415,1.415,0,0,0-1.678.241L167.4,129.61l-3.657-3.657,2.135-2.134a1.415,1.415,0,0,0,.241-1.678,12.589,12.589,0,0,1-.964-2.269,1.414,1.414,0,0,0-1.349-.991h-3.478v-5.658H163.8a1.414,1.414,0,0,0,1.349-.991,12.587,12.587,0,0,1,.964-2.269,1.415,1.415,0,0,0-.241-1.678l-2.135-2.134,3.657-3.657,2.134,2.135a1.415,1.415,0,0,0,1.678.241,12.59,12.59,0,0,1,2.269-.964,1.414,1.414,0,0,0,.991-1.349V99.077h5.658v3.478a1.414,1.414,0,0,0,.991,1.349,12.588,12.588,0,0,1,2.269.964,1.415,1.415,0,0,0,1.678-.241l2.134-2.135,3.657,3.657-2.135,2.134a1.415,1.415,0,0,0-.241,1.678Z" transform="translate(744.98 1077.644)" fill="#1b54f8" stroke="#fff" stroke-width="1"></path><path id="Path_223" data-name="Path 223" d="M221.316,148.75a11.329,11.329,0,1,0,8,3.318A11.314,11.314,0,0,0,221.316,148.75Zm0,19.8a8.5,8.5,0,1,1,6-2.489A8.489,8.489,0,0,1,221.316,168.553Z" transform="translate(700.965 1033.629)" fill="#1b54f8" stroke="#fff" stroke-width="1"></path><path id="Path_224" data-name="Path 224" d="M250.658,183.75a5.664,5.664,0,1,0,4,1.659A5.66,5.66,0,0,0,250.658,183.75Zm0,8.487a2.833,2.833,0,1,1,2-.83,2.83,2.83,0,0,1-2,.83Z" transform="translate(671.623 1004.287)" fill="#1b54f8" stroke="#fff" stroke-width="1"></path></g></g></svg> 