<?xml version="1.0" encoding="UTF-8"?> <svg xmlns="http://www.w3.org/2000/svg" xmlns:xlink="http://www.w3.org/1999/xlink" width="90" height="90" viewBox="0 0 90 90"><defs><clipPath id="clip-path"><rect id="Rectangle_27" data-name="Rectangle 27" width="90" height="90" transform="translate(127 558)" fill="#fff"></rect></clipPath></defs><g id="Mask_Group_9" data-name="Mask Group 9" transform="translate(-127 -558)" clip-path="url(#clip-path)"><g id="Machine-Learning-Development-2" transform="translate(122.57 554.591)"><path id="Path_35" data-name="Path 35" d="M57.989,44.582a2.134,2.134,0,0,0-1.808-2.147L54.838,42.2a10.773,10.773,0,0,0-.439-1.042l.8-1.1a2.2,2.2,0,0,0-.239-2.812l-1.532-1.532a2.21,2.21,0,0,0-2.8-.239l-1.117.8c-.364-.176-.741-.326-1.1-.465l-.226-1.256a2.172,2.172,0,0,0-2.16-1.821h-2.16a2.2,2.2,0,0,0-2.16,1.821l-.226,1.369a10.772,10.772,0,0,0-1.042.439l-1.092-.778a2.21,2.21,0,0,0-2.8.239L35,37.338a2.2,2.2,0,0,0-.239,2.812l.8,1.117a9.742,9.742,0,0,0-.427,1.055l-1.256.226A2.172,2.172,0,0,0,32,44.632V46.8a2.147,2.147,0,0,0,1.821,2.147l1.369.239a10.771,10.771,0,0,0,.439,1.042l-.791,1.092a2.172,2.172,0,0,0,.239,2.8l1.532,1.544a2.222,2.222,0,0,0,2.8.226l1.13-.8c.326.151.653.289.992.414l.226,1.343a2.185,2.185,0,0,0,2.16,1.821h2.172a2.172,2.172,0,0,0,2.147-1.821l.226-1.343a10.771,10.771,0,0,0,1.042-.439l1.1.791a2.235,2.235,0,0,0,2.812-.188l1.544-1.544a2.16,2.16,0,0,0,.226-2.8L54.4,50.207a10.686,10.686,0,0,0,.427-1.042l1.343-.226a2.172,2.172,0,0,0,1.821-2.185Zm-20.7,7.96.992-1.431a1.406,1.406,0,0,0,0-1.469,7.182,7.182,0,0,1-.841-2,1.356,1.356,0,0,0-1.08-.979l-1.745-.3V45.11l1.72-.289a1.381,1.381,0,0,0,1.08-1,7.533,7.533,0,0,1,.866-2.034,1.331,1.331,0,0,0,0-1.456l-1.03-1.456.917-.917,1.369,1.017a1.381,1.381,0,0,0,1.482,0,7.746,7.746,0,0,1,2-.879,1.369,1.369,0,0,0,.979-1.067l.289-1.758h1.256l.276,1.758a1.381,1.381,0,0,0,1,1.092,7.382,7.382,0,0,1,2.034.829,1.356,1.356,0,0,0,1.469,0l1.431-1.017.917.917-1.017,1.431a1.356,1.356,0,0,0,0,1.469,8.173,8.173,0,0,1,.829,2,1.331,1.331,0,0,0,1.08.992l1.733.289v1.256l-1.733.289a1.369,1.369,0,0,0-1.092.992,7.144,7.144,0,0,1-.829,2A1.356,1.356,0,0,0,51.7,51.01l1.017,1.444-.929.917-1.431-1.017a1.356,1.356,0,0,0-1.469,0,8.1,8.1,0,0,1-1.984.829,1.343,1.343,0,0,0-1,1.08l-.289,1.733H44.354l-.289-1.733a1.343,1.343,0,0,0-.992-1.08,7.847,7.847,0,0,1-1.959-.8,1.381,1.381,0,0,0-1.456.075l-1.381,1.03Z" transform="translate(7.045 6.726)" fill="#1b54f8" stroke="#fff" stroke-width="1"></path><path id="Path_36" data-name="Path 36" d="M43.566,50.223a5.976,5.976,0,1,0-4.239-1.764A5.976,5.976,0,0,0,43.566,50.223Zm-3.289-6.014A3.289,3.289,0,1,1,43.566,47.5h0a3.289,3.289,0,0,1-3.289-3.289Z" transform="translate(8.473 8.141)" fill="#1b54f8" stroke="#fff" stroke-width="1"></path><path id="Path_37" data-name="Path 37" d="M19.638,36.187a4.758,4.758,0,1,0-4.758-4.758h0a4.758,4.758,0,0,0,4.758,4.758Zm0-6.278a1.13,1.13,0,1,1-.075,0Z" transform="translate(2.67 5.177)" fill="#1b54f8" stroke="#fff" stroke-width="1"></path><path id="Path_38" data-name="Path 38" d="M88.839,51.471A10.471,10.471,0,0,0,86.1,34.358,14.012,14.012,0,0,0,69.077,17.2,9.341,9.341,0,1,0,50.62,14.307a10.184,10.184,0,0,0-.112,1.519V25.57H49.164V20.146a1.494,1.494,0,1,0-2.976-.276,1.017,1.017,0,0,0,0,.276v5.374H39.66V20.146a1.494,1.494,0,1,0-2.988,0v5.374H30.143V20.146a1.494,1.494,0,1,0-2.976-.276,1.017,1.017,0,0,0,0,.276v5.374H20.639V20.146a1.494,1.494,0,1,0-2.988,0V25.62a2.888,2.888,0,0,0-1.632.778L12.1,30.316a3.026,3.026,0,0,0-.791,1.645H5.924a1.494,1.494,0,0,0,0,2.976H11.21v6.529H5.924a1.494,1.494,0,0,0,0,2.988H11.21v6.529H5.924a1.494,1.494,0,0,0,0,2.976H11.21v6.529H5.924a1.494,1.494,0,0,0,0,2.988H11.21V70H5.924a1.494,1.494,0,0,0,0,2.976H11.21v3.415a3.026,3.026,0,0,0,3.026,3.026H17.7v5.223a1.494,1.494,0,1,0,2.988,0V79.419h6.516v5.223a1.494,1.494,0,1,0,2.988,0V79.419h6.529v5.223a1.494,1.494,0,0,0,2.976,0V79.419h6.529v5.223a1.494,1.494,0,0,0,2.988,0V79.419h1.343v.414A10.885,10.885,0,0,0,68.55,88.082a10.885,10.885,0,0,0,16.171-9.492v-3.4a14,14,0,0,0,4.118-23.717ZM78.192,74.548A1.582,1.582,0,0,0,79.749,76.1a13.071,13.071,0,0,0,1.858-.126v2.611a7.772,7.772,0,0,1-15.531,0,1.569,1.569,0,0,0-3.126,0,10.848,10.848,0,0,0,3.026,7.533,7.772,7.772,0,0,1-12.342-6.278V70.128H65.022a4.784,4.784,0,0,0,4.758-4.771V39.418a4.784,4.784,0,0,0-4.758-4.771H53.634V15.814a6.281,6.281,0,0,1,12.555-.439,6.165,6.165,0,0,1-.866,3.415c-.377.226-.7.452-1.017.678a1.558,1.558,0,1,0,1.846,2.511A10.885,10.885,0,0,1,82.034,36.141a1.532,1.532,0,0,0,0,1.569,1.582,1.582,0,0,0,1.331.829h0a1.569,1.569,0,0,0,1.369-.791l.226-.427a7.32,7.32,0,0,1,3.3,9.831,6.141,6.141,0,0,1-.452.791,7.659,7.659,0,0,1-1.657,1.77,13.911,13.911,0,0,0-6.378-1.557h0a1.569,1.569,0,0,0,0,3.126,10.885,10.885,0,1,1,.7,21.759,7.294,7.294,0,0,1-.741,0,1.544,1.544,0,0,0-1.582,1.507Zm-39.147-7.47a1.733,1.733,0,0,1-1.72-1.708V39.431a1.72,1.72,0,0,1,1.72-1.72H65.009a1.708,1.708,0,0,1,1.657,1.72V65.37a1.708,1.708,0,0,1-1.708,1.708ZM14.386,76.205V32.513l3.829-3.829h32.3v5.964H39.045a4.8,4.8,0,0,0-4.784,4.771V65.357a4.784,4.784,0,0,0,4.784,4.771H50.483v6.077Z" transform="translate(0)" fill="#1b54f8" stroke="#fff" stroke-width="1"></path><path id="Path_39" data-name="Path 39" d="M23.8,58.685H17.948v-5.9a1.494,1.494,0,0,0-2.988,0v7.4a1.482,1.482,0,0,0,1.482,1.482H23.8a1.494,1.494,0,1,0,.276-2.976Z" transform="translate(2.691 11.468)" fill="#1b54f8" stroke="#fff" stroke-width="1"></path></g></g></svg> 