<?xml version="1.0" encoding="UTF-8"?> <svg xmlns="http://www.w3.org/2000/svg" id="Layer_1" data-name="Layer 1" viewBox="0 0 74 74"><defs><style>.cls-1{fill:#1b54f8;fill-rule:evenodd;}</style></defs><g id="Predictive-Analytics"><g id="Group-6"><path id="Fill-1" class="cls-1" d="M19.13,56.82A2.15,2.15,0,0,0,17,54.61a2.19,2.19,0,1,0,2.17,2.21m20.48-5A2.19,2.19,0,0,0,37.36,54a2.23,2.23,0,0,0,2.21,2.23A2.15,2.15,0,0,0,41.78,54a2.11,2.11,0,0,0-2.17-2.21m-12.2-3.73a2.17,2.17,0,0,0,2.23-2.17,2.21,2.21,0,1,0-4.42,0,2.07,2.07,0,0,0,2.19,2.17m21.87-7.93a2.15,2.15,0,0,0-2.18,2.21,2.18,2.18,0,0,0,2.14,2.22,2.28,2.28,0,0,0,2.29-2.22,2.17,2.17,0,0,0-2.25-2.21M32,14.07c1.9,0,3.81,0,5.72,0,.51,0,.64-.2.62-.67A2.68,2.68,0,0,0,35.66,11q-3.67-.07-7.35,0a2.67,2.67,0,0,0-2.66,2.45c0,.47.14.62.61.62,1.9,0,3.81,0,5.72,0m28.8,49.17A2.23,2.23,0,0,0,62.86,60c-1.44-2.75-2.94-5.47-4.4-8.2-.16-.3-.31-.36-.62-.2-1.1.59-2.21,1.17-3.33,1.73-.31.16-.33.34-.17.62,1.47,2.71,2.92,5.43,4.41,8.14a2.16,2.16,0,0,0,2,1.16M32.05,15.94c-3.27,0-6.54,0-9.81,0-.49,0-.66.15-.65.64,0,1.38,0,2.76,0,4.15,0,.48.15.64.64.64H41.85c.47,0,.62-.15.62-.61,0-1.37,0-2.73,0-4.09,0-.57-.15-.74-.73-.74-3.23,0-6.46,0-9.69,0m4.81,21.17a10.88,10.88,0,0,0,6.74,10,.56.56,0,0,0,.77-.19,17.86,17.86,0,0,1,1.26-1.5.82.82,0,0,0,.14-1.17,3.46,3.46,0,0,1-.5-2.15,4,4,0,1,1,8,1.07C52.9,45.3,50.62,47,48.7,46.35a1.61,1.61,0,0,0-2.21.8,1.81,1.81,0,0,1-.25.3c-.22.24-.22.36.15.41a9.8,9.8,0,0,0,3,0A10.59,10.59,0,0,0,56,44.42a10.88,10.88,0,0,0,2.66-6.06,10.54,10.54,0,0,0-12.12-12,10.8,10.8,0,0,0-9.65,10.75M10.85,41V61.69a1.33,1.33,0,0,0,1,1.47,3,3,0,0,0,.89.07H51.2a5,5,0,0,0,.67,0c.69-.1,1.26-.64,1.21-1.18a37.18,37.18,0,0,1,0-4.6,5.78,5.78,0,0,0-1-3.75c-.45-.63-.26-1.13.44-1.51.45-.24.89-.49,1.35-.69s.52-.39.27-.8a17,17,0,0,1-.87-1.63c-.18-.38-.38-.42-.74-.27a12.64,12.64,0,0,1-7.54.66.68.68,0,0,0-.77.28c-.38.49-.76,1-1.17,1.43A.62.62,0,0,0,43,52a3.82,3.82,0,0,1,0,4,4,4,0,0,1-7.41-2.87.73.73,0,0,0-.37-.92c-1.57-1-3.13-2-4.68-3.09a.67.67,0,0,0-.9,0,3.78,3.78,0,0,1-3.92.43.65.65,0,0,0-.87.18c-1.35,1.45-2.71,2.89-4.1,4.31a.83.83,0,0,0-.2,1.1A3.77,3.77,0,0,1,20,59.29a3.77,3.77,0,0,1-3.88,1.46,4,4,0,0,1-1.93-7,3.85,3.85,0,0,1,4.24-.66.72.72,0,0,0,1-.21c1.35-1.45,2.71-2.89,4.1-4.3a.79.79,0,0,0,.17-1.06,4,4,0,0,1,.78-4.47,4.1,4.1,0,0,1,4.35-.93,4,4,0,0,1,2.48,4.52.86.86,0,0,0,.44,1.05c1.59,1,3.16,2,4.73,3.11a.67.67,0,0,0,.93,0,3.06,3.06,0,0,1,3-.69c1.12.44,1.59-.11,2.15-.86.29-.4.22-.53-.19-.72a12.56,12.56,0,0,1,.33-22.89,12.74,12.74,0,0,1,10-.33c.47.16.58.08.57-.41,0-1.51,0-3,0-4.54a1.39,1.39,0,0,0-1.49-1.52c-2.3,0-4.6,0-6.9,0-.39,0-.53.13-.53.52,0,.88,0,1.76,0,2.64,0,.72-.3,1-1,1.08H21.07c-1,0-1.3-.27-1.31-1.28,0-.79,0-1.58,0-2.36,0-.47-.16-.61-.61-.61-2.21,0-4.42,0-6.62,0-1.19,0-1.69.52-1.69,1.72V41M55,59.11v2.47A3.23,3.23,0,0,1,51.58,65c-4.82,0-9.65,0-14.47,0H12.59a3.71,3.71,0,0,1-2.18-.6A3.18,3.18,0,0,1,9,61.55q0-10,0-20Q9,31.06,9,20.6a3.32,3.32,0,0,1,3.62-3.69c2.09,0,4.19,0,6.28,0,.75,0,.75,0,.75-.76,0-.37,0-.74,0-1.12a.89.89,0,0,1,1-1h2.53c.33,0,.52-.08.52-.46a4.6,4.6,0,0,1,4.71-4.45c2.32-.06,4.64-.07,7,0a4.51,4.51,0,0,1,4.71,4.5c0,.39.17.52.55.52.86,0,1.72,0,2.58,0,.68,0,1,.29,1,1,0,.47,0,.94,0,1.4s.15.58.58.58q3.45,0,6.9,0A3.24,3.24,0,0,1,54.9,19.7a3.44,3.44,0,0,1,.05.72c0,1.85,0,3.7,0,5.56a.78.78,0,0,0,.34.76,11.74,11.74,0,0,1,5.18,8.9,12.76,12.76,0,0,1-3.93,10.83A9.92,9.92,0,0,1,55,47.64c-.23.15-.3.3-.16.55.35.64.7,1.29,1,1.93a.34.34,0,0,0,.54.17c.49-.27,1-.53,1.49-.79.72-.37,1.12-.25,1.51.47,1,1.77,1.94,3.54,2.9,5.32.66,1.19,1.28,2.41,2,3.59a4,4,0,0,1-1.56,5.63A4.23,4.23,0,0,1,57,62.69l-1.73-3.21c-.08-.14-.17-.28-.26-.41l-.09,0"></path><path id="Fill-4" class="cls-1" d="M31.75,31.51c-.27-.06-.4.1-.55.2L14.08,42.51c-.72.45-1.31.3-1.52-.4A.93.93,0,0,1,13.1,41c2.28-1.43,4.55-2.88,6.83-4.32L30.3,30.11c.13-.08.24-.17.45-.33L27.14,29l-2.08-.47a.93.93,0,0,1-.79-1.15.91.91,0,0,1,1.18-.65q3.89.84,7.76,1.72A1,1,0,0,1,34,29.73l-1.68,7.61c-.09.42-.23.8-.72.9a.91.91,0,0,1-1.11-1.16c.35-1.63.72-3.25,1.09-4.87.05-.23.09-.46.14-.7"></path></g></g></svg> 