<?xml version="1.0" encoding="UTF-8"?> <svg xmlns="http://www.w3.org/2000/svg" xmlns:xlink="http://www.w3.org/1999/xlink" width="90" height="90" viewBox="0 0 90 90"><defs><clipPath id="clip-path"><rect id="Rectangle_11" data-name="Rectangle 11" width="90" height="90" transform="translate(336 328)" fill="#fff" stroke="#707070" stroke-width="1"></rect></clipPath></defs><g id="Mask_Group_8" data-name="Mask Group 8" transform="translate(-336 -328)" clip-path="url(#clip-path)"><path id="Path_10" data-name="Path 10" d="M67.505,32.961a.967.967,0,1,0,0-1.933H60.739v-5.8h6.767a.967.967,0,1,0,0-1.933H60.739V19.105a.974.974,0,0,0-.967-.967H55.583V11.372a.967.967,0,0,0-1.933,0v6.767h-5.8V11.372a.967.967,0,0,0-1.933,0v6.767h-5.8V14.594a9.341,9.341,0,0,0-16.91-5.478,8.079,8.079,0,0,0-8.223,8.056,5.6,5.6,0,0,0,.026.657,9.312,9.312,0,0,0-4.24,12.425A11.273,11.273,0,0,0,12.6,48.028a10.83,10.83,0,0,0-.193,2.011,11.3,11.3,0,0,0,5.156,9.46v.206a9.347,9.347,0,0,0,8.056,9.241,7.409,7.409,0,0,0,14.5-2.152V61.316h5.8v6.767a.967.967,0,1,0,1.933,0V61.316h5.8v6.767a.967.967,0,1,0,1.933,0V61.316h4.189a.974.974,0,0,0,.967-.967V56.161h6.767a.967.967,0,1,0,0-1.933H60.739v-5.8h6.767a.967.967,0,1,0,0-1.933H60.739v-5.8h6.767a.967.967,0,1,0,0-1.933H60.739v-5.8ZM40.116,25.228H53.65v29H40.116ZM32.705,72.272a5.5,5.5,0,0,1-5.375-4.408.973.973,0,0,0-.889-.773,7.415,7.415,0,0,1-6.947-7.385,5.4,5.4,0,0,1,.039-.644.966.966,0,0,0-.477-.915,9.372,9.372,0,0,1-4.7-8.107,10.026,10.026,0,0,1,.284-2.268.961.961,0,0,0-.49-1.083A9.336,9.336,0,0,1,12.6,31.221a.959.959,0,0,0,.219-1.237A7.406,7.406,0,0,1,16.44,19.312a.972.972,0,0,0,.593-1.07,6.5,6.5,0,0,1-.1-1.07,6.128,6.128,0,0,1,6.122-6.122,4.083,4.083,0,0,1,.567.026.965.965,0,0,0,.9-.438,7.4,7.4,0,0,1,13.662,3.957V25.872H27.228V22.5a3.544,3.544,0,1,0-1.933,0v4.344a.974.974,0,0,0,.967.967H38.183v5.8h-12.4a3.544,3.544,0,1,0,0,1.933h12.4v8.378h-12.4a3.544,3.544,0,1,0,0,1.933h12.4v5.8H28.839a.974.974,0,0,0-.967.967V56.96a3.544,3.544,0,1,0,1.933,0V53.583h8.378V66.794a5.49,5.49,0,0,1-5.478,5.478ZM26.261,20.717a1.611,1.611,0,1,1,1.611-1.611A1.612,1.612,0,0,1,26.261,20.717ZM24.005,34.572a1.611,1.611,0,1,1-1.611-1.611A1.612,1.612,0,0,1,24.005,34.572Zm0,10.311a1.611,1.611,0,1,1-1.611-1.611A1.612,1.612,0,0,1,24.005,44.883ZM30.45,60.35a1.611,1.611,0,1,1-1.611-1.611A1.612,1.612,0,0,1,30.45,60.35Zm28.355-.967H40.116V56.161h14.5a.974.974,0,0,0,.967-.967V24.261a.974.974,0,0,0-.967-.967h-14.5V20.072H58.805Z" transform="translate(342.75 333.75)" fill="#1c54f8"></path></g></svg> 