<?xml version="1.0" encoding="UTF-8"?> <svg xmlns="http://www.w3.org/2000/svg" xmlns:xlink="http://www.w3.org/1999/xlink" width="90" height="90" viewBox="0 0 90 90"><defs><clipPath id="clip-path"><rect id="Rectangle_1" data-name="Rectangle 1" width="90" height="90" fill="#fff"></rect></clipPath></defs><g id="Mask_Group_4" data-name="Mask Group 4" clip-path="url(#clip-path)"><g id="Group_116" data-name="Group 116" transform="translate(2 2)"><path id="Path_98" data-name="Path 98" d="M167.464,57.883a1.811,1.811,0,0,0,0-3.623H152.2V43.393h15.268a1.811,1.811,0,0,0,0-3.623H152.2V35.887a5.956,5.956,0,0,0-5.947-5.953H142.37V14.674a1.811,1.811,0,0,0-3.623,0v15.26H127.879V14.674a1.811,1.811,0,0,0-3.623,0v15.26H113.389V14.674a1.811,1.811,0,0,0-3.623,0v15.26h-3.879a5.958,5.958,0,0,0-5.952,5.953V39.77H84.672a1.811,1.811,0,0,0,0,3.623H99.936V54.26H84.672a1.811,1.811,0,1,0,0,3.623H99.936V68.747H84.672a1.811,1.811,0,0,0,0,3.623H99.936v3.877a5.958,5.958,0,0,0,5.952,5.951h3.879V97.464a1.811,1.811,0,1,0,3.623,0V82.2h10.867V97.464a1.811,1.811,0,0,0,3.623,0V82.2h10.867V97.464a1.811,1.811,0,1,0,3.623,0V82.2h3.879a5.955,5.955,0,0,0,5.947-5.951V72.37h15.268a1.811,1.811,0,0,0,0-3.623H152.2V57.883ZM148.572,76.247a2.328,2.328,0,0,1-2.323,2.328H105.887a2.331,2.331,0,0,1-2.329-2.328V35.887a2.331,2.331,0,0,1,2.329-2.329h40.362a2.328,2.328,0,0,1,2.323,2.329Z" transform="translate(-82.861 -12.863)" fill="#1b54f8"></path><path id="Path_99" data-name="Path 99" d="M262.844,173.05a7.349,7.349,0,0,0-5.886,2.958l-11.818-1.991a6.639,6.639,0,1,0-7.8,8.069l2.571,7.632a8.608,8.608,0,1,0,13.008,2.24l6.586-4.99a7.358,7.358,0,1,0,3.336-13.917Zm-27.169,2.531a3.019,3.019,0,1,1,3.019,3.019A3.022,3.022,0,0,1,235.675,175.581Zm5.39,6.2a6.666,6.666,0,0,0,3.929-4.112l10.559,1.78a7.208,7.208,0,0,0,1.185,5.074l-6.263,4.746a8.509,8.509,0,0,0-7.319-1.279Zm4.421,19.467a4.982,4.982,0,1,1,4.982-4.982A4.988,4.988,0,0,1,245.486,201.244Zm17.358-17.1a3.738,3.738,0,1,1,3.737-3.738A3.743,3.743,0,0,1,262.844,184.148Z" transform="translate(-207.92 -143.696)" fill="#1b54f8"></path></g></g></svg> 