<?xml version="1.0" encoding="UTF-8"?> <svg xmlns="http://www.w3.org/2000/svg" id="Layer_1" data-name="Layer 1" viewBox="0 0 100 100"><defs><style>.cls-1{fill:#1b54f8;}</style></defs><g id="Machine-Learning-Programming"><g id="machine-learning"><path id="Shape" class="cls-1" d="M78,41.17l-2.18-.55L77,38.69,75.29,37V22H50V36.45H47.87a11.62,11.62,0,0,0,.32-2.71,11.74,11.74,0,1,0-23.48,0,12,12,0,0,0,.38,2.93A4.54,4.54,0,0,0,22,41V62.65a4.52,4.52,0,0,0,4.52,4.51H38.26V69h-3.4a2.71,2.71,0,0,0-2.43,1.5L31,73.27V78H56.32V73.27l-1.4-2.8A2.68,2.68,0,0,0,52.5,69H49.1V67.16H60.84a4.51,4.51,0,0,0,4.51-4.51V56.32h4.32l.55-2.18,1.93,1.16L77,50.47l-1.16-1.93L78,48ZM51.81,23.81H73.48V35.2l-1.33-1.34L70.22,35l-.55-2.18H62.84L62.3,35l-1.93-1.16-2.59,2.59h-6ZM56,38.26l-.44.43,1.29,2.15-1.65,1H50v1.81l11.79,0,.22-.59a4.51,4.51,0,1,1,0,3l-.21-.61H52.71A2.72,2.72,0,0,0,50,48.19v5.42a.91.91,0,1,1-1.81,0v-1.8a2.71,2.71,0,0,0-5.42,0v1.8a.9.9,0,0,1-.9.91H38.26a.91.91,0,0,1-.91-.91v-1a5.43,5.43,0,0,0,4.52-5.34V45l2.88-2.88a11.84,11.84,0,0,0,2.56-3.81ZM32.84,45.48h7.22v1.81a3.61,3.61,0,1,1-7.22,0Zm.9-10.83h-1.8a1.81,1.81,0,1,1,1.8-1.81Zm3.61,9h-1.8V36.45h1.8Zm-.9-19.87a9.95,9.95,0,0,1,7,17l-2.89,2.89H39.16V36.45H41a3.61,3.61,0,1,0-3.62-3.61v1.81h-1.8V32.84a3.62,3.62,0,1,0-3.61,3.61h1.8v7.23H32.31l-2.88-2.89a9.95,9.95,0,0,1,7-17Zm2.71,10.84V32.84A1.81,1.81,0,1,1,41,34.65Zm-4.3,36.12h3.4v1.81H33.4l.65-1.31A.91.91,0,0,1,34.86,70.77Zm-2,5.42v-1.8H54.52v1.8ZM52.5,70.77a.9.9,0,0,1,.8.5L54,72.58H49.1V70.77Zm-5.21,1.81H40.06V67.16h7.23Zm13.55-7.23H26.52a2.7,2.7,0,0,1-2.71-2.7V59.94H34.65v.9a2.71,2.71,0,0,0,2.7,2.71H50a2.72,2.72,0,0,0,2.71-2.71v-.9H63.55v2.71A2.71,2.71,0,0,1,60.84,65.35ZM50.9,59.94v.9a.9.9,0,0,1-.9.9H47.29v-1.8Zm-5.42,1.8H41.87v-1.8h3.61Zm-5.42,0H37.35a.9.9,0,0,1-.9-.9v-.9h3.61Zm23.49-3.61H23.81V41a2.72,2.72,0,0,1,1.85-2.56,11.89,11.89,0,0,0,2.49,3.66L31,45v2.34a5.43,5.43,0,0,0,4.52,5.34v1a2.71,2.71,0,0,0,2.71,2.71h3.61a2.71,2.71,0,0,0,2.71-2.71v-1.8a.91.91,0,1,1,1.81,0v1.8a2.71,2.71,0,1,0,5.42,0V48.19a.9.9,0,0,1,.9-.9h2.45l1.67,1-1.29,2.15,4.83,4.83,1.93-1.16.54,2.18h.71ZM76.19,46.58,74.43,47l-.48.19-.42,1,1.17,1.95L71.87,53l-2-1.17-1.1.45-.56,2.22h-4l-.44-1.76-.18-.49-1-.42-2,1.17-2.84-2.83L59,48.24l-.39-1h1.94a6.33,6.33,0,1,0,0-5.44h-2l.06-.05.36-.88-1.17-2,2.84-2.83,2,1.17,1.1-.45.55-2.21h4l.55,2.2,1.11.46,2-1.17L74.7,39l-1.17,2L74,42l2.21.56Z"></path><polygon id="Path" class="cls-1" points="46.39 41.87 48.19 41.87 48.19 43.68 46.39 43.68 46.39 41.87"></polygon><polygon id="Path-2" data-name="Path" class="cls-1" points="53.61 25.61 55.42 25.61 55.42 27.42 53.61 27.42 53.61 25.61"></polygon><polygon id="Path-3" data-name="Path" class="cls-1" points="57.23 25.61 71.68 25.61 71.68 27.42 57.23 27.42 57.23 25.61"></polygon><polygon id="Path-4" data-name="Path" class="cls-1" points="53.61 29.23 71.68 29.23 71.68 31.03 53.61 31.03 53.61 29.23"></polygon><polygon id="Path-5" data-name="Path" class="cls-1" points="53.61 32.84 55.42 32.84 55.42 34.65 53.61 34.65 53.61 32.84"></polygon><polygon id="Path-6" data-name="Path" class="cls-1" points="57.23 32.84 59.03 32.84 59.03 34.65 57.23 34.65 57.23 32.84"></polygon><polygon id="Path-7" data-name="Path" class="cls-1" points="25.61 50.9 27.42 50.9 27.42 52.71 25.61 52.71 25.61 50.9"></polygon><polygon id="Path-8" data-name="Path" class="cls-1" points="25.61 47.29 27.42 47.29 27.42 49.1 25.61 49.1 25.61 47.29"></polygon><polygon id="Path-9" data-name="Path" class="cls-1" points="25.61 54.52 27.42 54.52 27.42 56.32 25.61 56.32 25.61 54.52"></polygon></g></g></svg> 