<?xml version="1.0" encoding="UTF-8"?> <svg xmlns="http://www.w3.org/2000/svg" xmlns:xlink="http://www.w3.org/1999/xlink" width="90" height="90" viewBox="0 0 90 90"><defs><clipPath id="clip-path"><rect id="Rectangle_5" data-name="Rectangle 5" width="90" height="90" transform="translate(991 76)" fill="#fff" stroke="#707070" stroke-width="1"></rect></clipPath></defs><g id="Mask_Group_6" data-name="Mask Group 6" transform="translate(-991 -76)" clip-path="url(#clip-path)"><path id="Path_44" data-name="Path 44" d="M73.382,45.629a.878.878,0,0,0-1.026-.191l-27.074,13.1-4.95-2.273c1.334-.426,2.616-.732,3.874-1.032,3.294-.788,6.4-1.533,9.613-4.211a6.037,6.037,0,0,0,1.395-7.392c-.688-1.211-1.479-1.092-1.788-.984-3.843,1.346-9.1,3.189-20.147,2.709-5.767-.249-8.977-.046-13.466,2.892l-3.457,2.179A1.845,1.845,0,0,0,14.3,49.71l-2.635.807a2.428,2.428,0,0,0-2.658-.88L4.326,51.069a2.494,2.494,0,0,0-1.633,2.953L6.868,74.256a2.19,2.19,0,0,0,1.049,1.453,2.494,2.494,0,0,0,2,.242l6.526-2a2.428,2.428,0,0,0,1.713-2.24l2.627-.807a1.825,1.825,0,0,0,1.086-.9,1.865,1.865,0,0,0,.161-.418A67.047,67.047,0,0,1,32.775,71.12c1.4.283,2.6.529,3.626.667a20.723,20.723,0,0,0,2.781.183A31.676,31.676,0,0,0,51.727,69a.836.836,0,0,0,.139-.081L71.549,55.394c2.1-1.439,3.261-3.117,3.465-4.986A6.557,6.557,0,0,0,73.382,45.629ZM16.318,71.944a.661.661,0,0,1-.392.323L9.4,74.261a.749.749,0,0,1-.584-.063.459.459,0,0,1-.227-.294L4.415,53.664a.75.75,0,0,1,.422-.912L9.518,51.32a.676.676,0,0,1,.194-.029.667.667,0,0,1,.638.471l6.015,19.675a.662.662,0,0,1-.048.507Zm4-2.758a.081.081,0,0,1-.048.04l-2.5.764-5.45-17.831,2.5-.764a.084.084,0,0,1,.1.053L20.26,68.924v.006l.059.194A.081.081,0,0,1,20.313,69.185ZM73.266,50.22c-.146,1.337-1.059,2.591-2.712,3.728L50.934,67.425c-2.968,1.318-8.7,3.375-14.3,2.618-.968-.132-2.147-.37-3.511-.646a67.44,67.44,0,0,0-11.362-1.575l-4.8-15.692,3.793-2.4.012-.008c4.1-2.687,6.8-2.854,12.433-2.61,11.043.479,16.5-1.3,20.439-2.679a4.2,4.2,0,0,1,.5,2.064,4.009,4.009,0,0,1-1.458,3.174c-2.892,2.415-5.674,3.08-8.894,3.851a39.972,39.972,0,0,0-6.112,1.832c-.228.093-.646.276-1.094.474l-1.257.544A.88.88,0,0,0,36.008,58c.249-.1.726-.31,1.227-.531l.056-.024L38,57.136l6.924,3.181a.88.88,0,0,0,.75-.008l26.8-12.976a4.532,4.532,0,0,1,.791,2.884Zm-60.807,19a.879.879,0,1,1-1.682.514L9.533,65.663a.88.88,0,0,1,1.683-.514Zm11.981-39.8L25.812,33.1a.88.88,0,0,0,1.01.554l2.1-.454a10.9,10.9,0,0,0,1.587,1.651L29.932,36.8a.879.879,0,0,0,.478,1.049l3.572,1.633a.88.88,0,0,0,1.106-.323l1.162-1.8a10.918,10.918,0,0,0,2.29.044l.977,1.79a.877.877,0,0,0,1.079.4l3.683-1.372a.879.879,0,0,0,.553-1.01l-.454-2.1a10.93,10.93,0,0,0,1.65-1.587l1.956.575a.88.88,0,0,0,1.049-.478l1.634-3.574a.879.879,0,0,0-.323-1.1l-1.8-1.163a10.976,10.976,0,0,0,.044-2.29l1.79-.976a.88.88,0,0,0,.4-1.079l-1.372-3.683A.879.879,0,0,0,48.4,19.2l-2.1.454a10.976,10.976,0,0,0-1.587-1.651l.575-1.956A.878.878,0,0,0,44.807,15l-3.573-1.636a.881.881,0,0,0-1.106.323l-1.162,1.8a10.864,10.864,0,0,0-2.29-.044L35.7,13.659a.88.88,0,0,0-1.079-.4l-3.683,1.372a.878.878,0,0,0-.553,1.01l.454,2.1a10.9,10.9,0,0,0-1.65,1.587l-1.955-.568a.88.88,0,0,0-1.049.478L24.549,22.8a.88.88,0,0,0,.323,1.106l1.8,1.162a10.976,10.976,0,0,0-.044,2.29l-1.79.977a.88.88,0,0,0-.4,1.076ZM28,28.621a.88.88,0,0,0,.45-.9,9.176,9.176,0,0,1,.052-2.93.879.879,0,0,0-.389-.9l-1.642-1.058,1-2.188,1.792.528a.88.88,0,0,0,.952-.316,9.211,9.211,0,0,1,2.11-2.03.88.88,0,0,0,.358-.908l-.413-1.917,2.255-.839.9,1.646a.879.879,0,0,0,.9.45,9.223,9.223,0,0,1,2.932.05.878.878,0,0,0,.9-.389L41.2,15.284l2.188,1-.527,1.792a.878.878,0,0,0,.316.952A9.194,9.194,0,0,1,45.2,21.14a.88.88,0,0,0,.909.358l1.91-.413.839,2.255-1.642.9a.88.88,0,0,0-.45.9,9.182,9.182,0,0,1-.052,2.931.88.88,0,0,0,.389.9l1.642,1.058-1,2.187-1.793-.527a.879.879,0,0,0-.951.316,9.194,9.194,0,0,1-2.11,2.034.879.879,0,0,0-.358.908l.413,1.91-2.254.841-.9-1.641a.878.878,0,0,0-.772-.458.806.806,0,0,0-.124.009,9.2,9.2,0,0,1-2.93-.053.88.88,0,0,0-.9.39L34.022,37.57l-2.188-1,.527-1.793a.878.878,0,0,0-.316-.952,9.174,9.174,0,0,1-2.033-2.11.88.88,0,0,0-.909-.358l-1.91.414-.839-2.255Zm7.218,3.04a5.754,5.754,0,1,0-3-3.228,5.754,5.754,0,0,0,3,3.228Zm-1.239-6.9a3.989,3.989,0,0,1,5.3-1.97h0a4,4,0,1,1-5.3,1.97ZM46.637,13.39l1.022,2.744a.88.88,0,0,0,1.01.553l1.428-.309a8.36,8.36,0,0,0,1.018,1.061l-.388,1.32a.879.879,0,0,0,.478,1.049l2.663,1.219a.879.879,0,0,0,1.1-.323l.792-1.228a8.415,8.415,0,0,0,1.468.029l.659,1.211a.876.876,0,0,0,1.078.4L61.714,20.1a.88.88,0,0,0,.553-1.01l-.309-1.428a8.469,8.469,0,0,0,1.059-1.018l1.32.388a.878.878,0,0,0,1.049-.478l1.219-2.663a.88.88,0,0,0-.323-1.106l-1.228-.792a8.335,8.335,0,0,0,.028-1.468l1.211-.659a.88.88,0,0,0,.4-1.079L65.675,6.042a.88.88,0,0,0-1.009-.563l-1.428.309A8.351,8.351,0,0,0,62.22,4.73l.389-1.32a.88.88,0,0,0-.478-1.049L59.468,1.141a.88.88,0,0,0-1.106.323l-.794,1.23A8.424,8.424,0,0,0,56.1,2.666L55.44,1.455a.88.88,0,0,0-1.079-.4L51.618,2.073a.879.879,0,0,0-.553,1.01l.309,1.428A8.358,8.358,0,0,0,50.315,5.53l-1.322-.385a.88.88,0,0,0-1.049.478L46.724,8.286a.88.88,0,0,0,.323,1.106l1.228.791a8.424,8.424,0,0,0-.029,1.469l-1.211.659a.88.88,0,0,0-.4,1.08Zm3.418-1.372A6.618,6.618,0,0,1,50.093,9.9a.88.88,0,0,0-.39-.9l-1.061-.684.585-1.279,1.151.339a.879.879,0,0,0,.951-.316A6.635,6.635,0,0,1,52.852,5.6a.881.881,0,0,0,.358-.909l-.267-1.236,1.318-.49.575,1.053a.88.88,0,0,0,.9.449,6.661,6.661,0,0,1,2.114.038.88.88,0,0,0,.9-.389l.684-1.062,1.279.586-.338,1.15a.878.878,0,0,0,.316.951,6.618,6.618,0,0,1,1.466,1.525.88.88,0,0,0,.909.358l1.236-.268.49,1.319-1.053.575a.88.88,0,0,0-.45.9,6.66,6.66,0,0,1-.038,2.114.879.879,0,0,0,.389.9l1.062.684-.586,1.28-1.151-.339A.88.88,0,0,0,62,15.1a6.634,6.634,0,0,1-1.522,1.467.879.879,0,0,0-.358.908l.268,1.236-1.319.491L58.5,18.151a.879.879,0,0,0-.772-.458.918.918,0,0,0-.124.008,6.618,6.618,0,0,1-2.114-.038.88.88,0,0,0-.9.39l-.684,1.061-1.279-.585.339-1.151a.88.88,0,0,0-.316-.952A6.639,6.639,0,0,1,51.188,14.9a.88.88,0,0,0-.908-.358l-1.236.267-.491-1.318,1.049-.575a.88.88,0,0,0,.455-.9Zm4.866,2.88a4.2,4.2,0,1,0,3.491-7.63h0a4.2,4.2,0,1,0-3.491,7.63Zm-.47-4.829a2.436,2.436,0,1,1-.069,1.863,2.436,2.436,0,0,1,.069-1.863Zm11.228,15.4-1.13.242a7.227,7.227,0,0,0-.758-.79l.3-1.033a.879.879,0,0,0-.478-1.049l-2.252-1.031a.88.88,0,0,0-1.106.323l-.624.968a7.183,7.183,0,0,0-1.094-.021l-.516-.946a.88.88,0,0,0-1.079-.4l-2.322.864a.879.879,0,0,0-.553,1.01l.242,1.13a7.22,7.22,0,0,0-.789.758l-1.033-.3a.88.88,0,0,0-1.049.478l-1.031,2.252a.879.879,0,0,0,.323,1.106l.968.624a7.079,7.079,0,0,0-.022,1.094l-.946.516a.88.88,0,0,0-.4,1.079l.864,2.322a.879.879,0,0,0,1.01.553l1.13-.242a7.221,7.221,0,0,0,.758.789l-.3,1.033a.88.88,0,0,0,.478,1.049l2.253,1.031a.878.878,0,0,0,1.1-.323l.624-.968a7.182,7.182,0,0,0,1.094.021l.516.945a.877.877,0,0,0,1.079.4l2.322-.864a.88.88,0,0,0,.558-1.009l-.242-1.13a7.145,7.145,0,0,0,.788-.759l1.034.3a.879.879,0,0,0,1.049-.478l1.031-2.253a.88.88,0,0,0-.323-1.1l-.968-.624a7.184,7.184,0,0,0,.021-1.094l.946-.516a.88.88,0,0,0,.4-1.079l-.868-2.323a.88.88,0,0,0-1.01-.551Zm-1.277,4.1a5.5,5.5,0,0,1-.031,1.744.879.879,0,0,0,.389.9l.8.515-.4.867-.86-.253a.879.879,0,0,0-.952.316,5.488,5.488,0,0,1-1.256,1.211.879.879,0,0,0-.358.908l.2.93-.894.332-.429-.788a.88.88,0,0,0-.772-.458.929.929,0,0,0-.124.009,5.45,5.45,0,0,1-1.744-.031.88.88,0,0,0-.9.39l-.515.8-.868-.4.253-.86a.88.88,0,0,0-.316-.952,5.473,5.473,0,0,1-1.211-1.257.88.88,0,0,0-.908-.358l-.93.2-.333-.894.788-.429a.879.879,0,0,0,.45-.9,5.45,5.45,0,0,1,.031-1.744.88.88,0,0,0-.39-.9l-.8-.517.4-.868.86.253a.88.88,0,0,0,.951-.316A5.488,5.488,0,0,1,55.8,25.813a.88.88,0,0,0,.358-.909l-.2-.929.893-.333.43.787a.879.879,0,0,0,.9.45,5.5,5.5,0,0,1,1.744.031.878.878,0,0,0,.9-.389l.515-.8.868.4-.253.86a.88.88,0,0,0,.316.952,5.482,5.482,0,0,1,1.211,1.256.879.879,0,0,0,.908.358l.93-.2.333.894-.787.429a.878.878,0,0,0-.45.9Zm-3.924-2.583a3.656,3.656,0,1,0,1.93,2.061,3.683,3.683,0,0,0-1.93-2.061Zm.217,4.15a1.923,1.923,0,1,1,.054-1.472,1.923,1.923,0,0,1-.054,1.472Z" transform="translate(996.878 82.504)" fill="#1c54f8" stroke="#1c54f9" stroke-width="0.2"></path></g></svg> 