<?xml version="1.0" encoding="UTF-8"?> <svg xmlns="http://www.w3.org/2000/svg" width="60" height="60" viewBox="0 0 60 60" fill="none"><mask id="mask0_5_297" style="mask-type:alpha" maskUnits="userSpaceOnUse" x="0" y="0" width="60" height="60"><rect width="60" height="60" fill="#D9D9D9"></rect></mask><g mask="url(#mask0_5_297)"><path d="M59.28 25.8219L52.654 24.9214C52.1041 22.772 51.2404 20.7129 50.09 18.8087L54.1287 13.5504C54.2502 13.3921 54.3095 13.1957 54.2958 12.9976C54.2821 12.7994 54.1962 12.6129 54.054 12.4723L48.3727 6.86672C48.2303 6.72628 48.0412 6.64145 47.8403 6.62791C47.6395 6.61436 47.4404 6.67303 47.28 6.79305L41.9507 10.7779C40.0207 9.6429 37.9338 8.79072 35.7553 8.24805L34.8427 1.7104C34.8154 1.51354 34.7168 1.33309 34.565 1.20247C34.4133 1.07185 34.2187 0.999923 34.0173 1H25.9827C25.7814 1.00004 25.587 1.07193 25.4353 1.20238C25.2836 1.33284 25.1849 1.51306 25.1573 1.70974L24.2447 8.24805C22.0661 8.79082 19.9789 9.643 18.0487 10.7779L12.72 6.79305C12.5595 6.67316 12.3605 6.61458 12.1597 6.62812C11.9589 6.64166 11.7698 6.72641 11.6273 6.86672L5.94667 12.4723C5.80423 12.6127 5.71813 12.7992 5.70428 12.9974C5.69043 13.1956 5.74977 13.392 5.87133 13.5504L9.91067 18.8087C8.76009 20.7128 7.89638 22.7719 7.34667 24.9214L0.72 25.8219C0.520534 25.8489 0.337725 25.9463 0.20537 26.096C0.0730141 26.2457 6.21816e-05 26.4376 0 26.6362V34.5638C6.21816e-05 34.7624 0.0730141 34.9543 0.20537 35.104C0.337725 35.2537 0.520534 35.3511 0.72 35.3781L7.34667 36.2786C7.89614 38.428 8.75963 40.4872 9.91 42.3913L5.87133 47.6496C5.74982 47.8079 5.69045 48.0043 5.70418 48.2024C5.7179 48.4006 5.80379 48.5871 5.946 48.7277L11.6273 54.3333C11.7698 54.4736 11.9589 54.5583 12.1597 54.5719C12.3605 54.5854 12.5595 54.5268 12.72 54.4069L18.0493 50.4221C19.9792 51.5573 22.0662 52.4094 24.2447 52.9519L25.1573 59.4896C25.1847 59.6864 25.2834 59.8668 25.4351 59.9974C25.5868 60.128 25.7813 60.1999 25.9827 60.2H34.0173C34.2186 60.2001 34.4131 60.1283 34.5648 59.9978C34.7166 59.8673 34.8153 59.687 34.8427 59.4903L35.7553 52.9513C37.9377 52.4076 40.0283 51.5534 41.9613 50.4156L49.6347 57.9866C50.7149 59.0342 52.1708 59.6184 53.6854 59.612C55.2001 59.6056 56.6509 59.009 57.7219 57.9523C58.793 56.8955 59.3975 55.4641 59.404 53.9696C59.4106 52.4752 58.8185 51.0387 57.7567 49.9729L50.0827 42.4012C51.2365 40.4944 52.1025 38.4318 52.6533 36.2786L59.28 35.3781C59.4795 35.3511 59.6623 35.2537 59.7946 35.104C59.927 34.9543 59.9999 34.7624 60 34.5638V26.6362C59.9999 26.4376 59.927 26.2457 59.7946 26.096C59.6623 25.9463 59.4795 25.8489 59.28 25.8219ZM57.766 53.9794C57.7648 54.7737 57.5253 55.5499 57.0777 56.2101C56.63 56.8703 55.9943 57.385 55.2506 57.6892C54.5069 57.9934 53.6886 58.0735 52.8988 57.9195C52.109 57.7655 51.3831 57.3841 50.8127 56.8236L35.0433 41.2645C34.9659 41.1882 34.8741 41.1276 34.7729 41.0863C34.6718 41.045 34.5634 41.0238 34.454 41.0238C34.3503 41.0239 34.2474 41.0428 34.1507 41.0797C32.2811 41.8008 30.2517 42.0225 28.2675 41.7224C26.2833 41.4223 24.4145 40.6111 22.8496 39.3706C21.2847 38.1301 20.0792 36.5043 19.3547 34.6571C18.6303 32.81 18.4125 30.807 18.7233 28.8503L26.3113 36.3378C26.4149 36.4396 26.5437 36.5129 26.6849 36.5501C26.8261 36.5874 26.9748 36.5875 27.116 36.5503L33.682 34.8144C33.8233 34.777 33.9521 34.7035 34.0556 34.6015C34.159 34.4994 34.2334 34.3723 34.2713 34.2329L36.0307 27.7545C36.0685 27.6151 36.0686 27.4684 36.0308 27.329C35.993 27.1897 35.9187 27.0626 35.8153 26.9605L28.2267 19.473C30.2099 19.1665 32.2399 19.3815 34.112 20.0964C35.984 20.8113 37.6318 22.0008 38.889 23.5448C40.1463 25.0889 40.9685 26.9328 41.2726 28.8906C41.5768 30.8483 41.3521 32.8506 40.6213 34.6953C40.5626 34.8442 40.549 35.0068 40.5823 35.1632C40.6155 35.3196 40.6942 35.463 40.8087 35.5761L56.578 51.1352C56.9568 51.5082 57.2568 51.9517 57.4607 52.4399C57.6646 52.9281 57.7684 53.4514 57.766 53.9794ZM42.366 34.7841C43.1437 32.5476 43.2837 30.1433 42.7707 27.8336C42.2576 25.524 41.1113 23.3978 39.4568 21.6873C37.8023 19.9767 35.7033 18.7476 33.389 18.134C31.0746 17.5205 28.6339 17.5461 26.3333 18.2081C26.1944 18.2481 26.0684 18.3231 25.9677 18.4257C25.8671 18.5283 25.7952 18.6551 25.7593 18.7934C25.7234 18.9317 25.7246 19.0769 25.7628 19.2147C25.801 19.3524 25.875 19.478 25.9773 19.5789L34.2967 27.7873L32.786 33.3489L27.1493 34.8394L18.83 26.6303C18.7276 26.5293 18.6003 26.4564 18.4607 26.4187C18.321 26.381 18.1739 26.3799 18.0336 26.4154C17.8934 26.4509 17.765 26.5219 17.661 26.6213C17.557 26.7207 17.4811 26.8451 17.4407 26.9822C16.7706 29.2519 16.7453 31.6596 17.3675 33.9426C17.9897 36.2255 19.2355 38.296 20.969 39.9279C22.7025 41.5599 24.857 42.6907 27.1974 43.1969C29.5378 43.7031 31.9742 43.5653 34.2407 42.7985L36.63 45.1553C33.1799 46.685 29.2954 46.9731 25.6523 45.9694C22.0092 44.9656 18.838 42.7337 16.6902 39.6616C14.5424 36.5896 13.5539 32.8719 13.8968 29.1553C14.2396 25.4386 15.8921 21.9581 18.5667 19.3191C21.2413 16.6802 24.7689 15.0498 28.5358 14.7115C32.3027 14.3732 36.0706 15.3485 39.1841 17.4676C42.2976 19.5868 44.5598 22.7158 45.5771 26.3103C46.5943 29.9048 46.3024 33.7375 44.752 37.1416L42.366 34.7841ZM58.3333 33.8468L51.8627 34.7262C51.6947 34.749 51.5378 34.8218 51.4128 34.9348C51.2879 35.0479 51.2008 35.1959 51.1633 35.359C50.6943 37.4071 49.9204 39.3752 48.8667 41.1994L46.0073 38.3776C47.5821 35.1985 48.1585 31.6279 47.6627 28.1235C47.1858 24.7764 45.7433 21.6352 43.5072 19.0746C41.2711 16.514 38.3357 14.6419 35.0512 13.6817C31.7666 12.7215 28.2715 12.7137 24.9825 13.6591C21.6936 14.6046 18.7496 16.4634 16.5017 19.014C14.2538 21.5645 12.7969 24.6992 12.3046 28.0441C11.8123 31.389 12.3054 34.8031 13.7252 37.8792C15.145 40.9552 17.4315 43.5635 20.312 45.3929C23.1926 47.2223 26.5456 48.1956 29.9713 48.1969C32.7134 48.1976 35.4193 47.5803 37.8827 46.3919L40.7427 49.2131C38.8939 50.2535 36.8992 51.0178 34.8233 51.4812C34.658 51.5181 34.508 51.604 34.3934 51.7273C34.2788 51.8506 34.2051 52.0054 34.182 52.1712L33.2913 58.5555H26.7093L25.818 52.1712C25.7949 52.0055 25.7211 51.8508 25.6065 51.7276C25.4919 51.6044 25.342 51.5187 25.1767 51.4818C22.7901 50.9494 20.513 50.0193 18.4433 48.7316C18.2998 48.6427 18.1322 48.5989 17.9629 48.6062C17.7935 48.6135 17.6305 48.6715 17.4953 48.7724L12.2953 52.6638L7.64133 48.0712L11.5847 42.9373C11.6871 42.804 11.7459 42.6431 11.7533 42.476C11.7607 42.3089 11.7163 42.1435 11.626 42.0019C10.3209 39.9599 9.37847 37.7132 8.83933 35.3584C8.80185 35.1952 8.71482 35.0472 8.58986 34.9342C8.4649 34.8211 8.30797 34.7483 8.14 34.7256L1.66667 33.8468V27.3532L8.138 26.4738C8.30585 26.4509 8.46264 26.378 8.58747 26.265C8.71229 26.1519 8.79922 26.004 8.83667 25.841C9.37609 23.4863 10.3185 21.2396 11.6233 19.1974C11.7136 19.0559 11.7581 18.8906 11.7508 18.7235C11.7436 18.5564 11.6849 18.3955 11.5827 18.2621L7.63867 13.1274L12.2927 8.53616L17.496 12.4269C17.6311 12.5277 17.7941 12.5856 17.9633 12.5927C18.1326 12.5999 18.3 12.5561 18.4433 12.467C20.5132 11.18 22.7902 10.2504 25.1767 9.71819C25.342 9.6812 25.492 9.59533 25.6066 9.47204C25.7212 9.34875 25.7949 9.19391 25.818 9.02818L26.7093 2.64444H33.2913L34.182 9.02883C34.2052 9.19444 34.279 9.34914 34.3936 9.47231C34.5082 9.59547 34.6581 9.68124 34.8233 9.71819C37.2098 10.2507 39.4868 11.1805 41.5567 12.4677C41.7 12.5569 41.8674 12.6008 42.0367 12.5937C42.206 12.5865 42.369 12.5286 42.504 12.4276L47.708 8.53616L52.3613 13.1281L48.418 18.2627C48.3156 18.3959 48.2569 18.5568 48.2496 18.7238C48.2424 18.8908 48.2869 19.056 48.3773 19.1974C49.6818 21.2397 50.6239 23.4864 51.1633 25.841C51.2008 26.0041 51.2879 26.1521 51.4128 26.2652C51.5378 26.3782 51.6947 26.451 51.8627 26.4738L58.3333 27.3532V33.8468Z" fill="#1B54F8" stroke="#1B54F8" stroke-width="0.5"></path></g></svg> 