<?xml version="1.0" encoding="UTF-8"?> <svg xmlns="http://www.w3.org/2000/svg" width="91" height="91" viewBox="0 0 91 91" fill="none"><mask id="mask0_2_271" style="mask-type:luminance" maskUnits="userSpaceOnUse" x="0" y="0" width="91" height="91"><path d="M90.94 0.290009H0.940002V90.29H90.94V0.290009Z" fill="white"></path></mask><g mask="url(#mask0_2_271)"><path d="M33.11 37.75H33.94C34.46 37.75 34.98 37.6 35.41 37.31C38.52 42.79 45.48 44.71 50.96 41.6C51.71 41.17 52.41 40.67 53.04 40.08H57.15C57.88 40.08 58.47 39.49 58.47 38.76V37.58C59.55 37.2 60.27 36.19 60.27 35.05V30.04C60.27 28.82 59.45 27.76 58.27 27.45C56.83 20.15 51.49 14.94 45.24 14.94C38.99 14.94 33.62 20.18 32.19 27.52C31.13 27.91 30.42 28.91 30.42 30.04V35.05C30.42 36.54 31.62 37.74 33.11 37.75ZM33.94 35.11L33.05 35.05V30.04C33.05 30.01 33.08 29.98 33.11 29.98L33.99 30.04V30.18C33.93 30.66 33.89 31.14 33.89 31.63C33.89 32.05 33.91 32.46 33.96 32.88L33.94 35.11ZM45.35 40.45C40.98 40.44 37.27 37.23 36.64 32.91V30.35C37.34 25.54 41.81 22.21 46.62 22.91C50.45 23.47 53.46 26.46 54.05 30.28V32.99C53.79 34.65 53.07 36.2 51.96 37.45H47.21C46.48 37.45 45.89 38.04 45.89 38.77C45.89 39.5 46.48 40.09 47.21 40.09H47.84C47.03 40.32 46.19 40.45 45.35 40.45ZM55.28 37.31C55.36 37.36 55.45 37.4 55.53 37.45H55.2C55.22 37.4 55.25 37.36 55.28 37.31ZM56.68 30.1V30.05C56.68 30.02 56.71 29.99 56.74 29.99L57.64 30.05L57.58 35.12L56.68 35.06V33.17C56.84 32.15 56.84 31.11 56.68 30.1ZM45.24 17.58C49.52 17.58 53.28 20.77 55.01 25.53C51.65 20.19 44.6 18.58 39.26 21.94C37.51 23.04 36.1 24.59 35.16 26.42C36.74 21.17 40.71 17.58 45.24 17.58ZM68.49 74.41H67.66V55.95C67.66 52.98 65.25 50.58 62.28 50.57H62.14C60.19 46.7 56.22 44.26 51.89 44.26H38.8C34.46 44.25 30.5 46.7 28.55 50.57H28.39C25.42 50.57 23.02 52.98 23.02 55.95V74.41H22.19C20.85 74.41 19.76 75.5 19.76 76.84V79.4C19.76 82.16 21.99 84.39 24.75 84.4H65.92C68.68 84.4 70.92 82.16 70.92 79.4V76.84C70.92 75.5 69.84 74.41 68.49 74.41ZM38.8 46.9H51.88C54.71 46.9 57.38 48.27 59.03 50.57H31.65C33.31 48.27 35.97 46.91 38.8 46.9ZM25.66 55.95C25.66 54.44 26.88 53.21 28.39 53.21H62.28C63.79 53.21 65.02 54.44 65.02 55.95V74.41H25.65V55.95H25.66ZM68.29 79.41C68.29 80.71 67.23 81.77 65.92 81.77H24.75C23.45 81.77 22.4 80.71 22.4 79.41V77.05H68.28V79.41H68.29ZM45.35 57.24C41.72 57.23 38.77 60.17 38.77 63.8C38.76 67.43 41.7 70.38 45.33 70.38C48.96 70.38 51.91 67.45 51.91 63.82V63.81C51.9 60.19 48.97 57.25 45.35 57.24ZM45.35 67.74C43.18 67.74 41.41 65.99 41.41 63.81C41.41 61.64 43.16 59.87 45.34 59.87C47.51 59.87 49.28 61.62 49.28 63.8V63.81C49.27 65.98 47.52 67.74 45.35 67.74ZM23.36 46.04C24.09 46.04 24.68 45.45 24.68 44.72V38.93C26.61 37.71 27.79 35.58 27.8 33.29V19.77C27.8 16.09 24.81 13.1 21.13 13.1H7.62C3.94 13.1 0.950012 16.09 0.950012 19.77V33.29C0.950012 36.97 3.94 39.96 7.62 39.96H17.27L22.39 45.61C22.63 45.89 22.99 46.04 23.36 46.04ZM22.04 41.3L18.83 37.75C18.58 37.47 18.23 37.31 17.85 37.31H7.60999C5.38999 37.31 3.57999 35.51 3.57999 33.28V19.77C3.57999 17.54 5.38999 15.74 7.60999 15.74H21.12C23.34 15.74 25.15 17.54 25.15 19.77V33.29C25.14 34.86 24.22 36.29 22.8 36.95C22.33 37.16 22.03 37.63 22.03 38.15L22.04 41.3ZM22.22 21.16C22.22 21.89 21.63 22.48 20.9 22.48H7.84C7.11 22.48 6.51999 21.89 6.51999 21.16C6.51999 20.43 7.11 19.84 7.84 19.84H20.9C21.63 19.84 22.22 20.43 22.22 21.16ZM22.22 26.53C22.22 27.26 21.63 27.85 20.9 27.85H7.84C7.11 27.85 6.51999 27.26 6.51999 26.53C6.51999 25.8 7.11 25.21 7.84 25.21H20.9C21.63 25.21 22.22 25.8 22.22 26.53ZM22.22 31.91C22.22 32.64 21.63 33.23 20.9 33.23H7.84C7.11 33.23 6.51999 32.64 6.51999 31.91C6.51999 31.18 7.11 30.59 7.84 30.59H20.9C21.63 30.59 22.22 31.18 22.22 31.91ZM84.27 6.54001H70.76C67.08 6.54001 64.09 9.53001 64.09 13.21V26.73C64.1 29.02 65.27 31.15 67.21 32.37V38.16C67.21 38.71 67.54 39.2 68.06 39.39C68.21 39.45 68.37 39.48 68.53 39.48C68.9 39.48 69.26 39.32 69.51 39.04L74.63 33.39H84.28C87.96 33.39 90.95 30.4 90.95 26.72V13.21C90.94 9.53001 87.96 6.55001 84.27 6.54001ZM88.3 26.73C88.3 28.95 86.49 30.76 84.27 30.76H74.04C73.67 30.76 73.31 30.92 73.06 31.2L69.85 34.75V31.6C69.85 31.09 69.55 30.62 69.08 30.4C67.65 29.74 66.73 28.31 66.73 26.74V13.21C66.73 10.98 68.54 9.18001 70.76 9.18001H84.27C86.49 9.18001 88.3 10.98 88.3 13.21V26.73ZM85.37 14.6C85.37 15.33 84.78 15.92 84.05 15.92H70.98C70.25 15.92 69.66 15.33 69.66 14.6C69.66 13.87 70.25 13.28 70.98 13.28H84.05C84.78 13.28 85.37 13.87 85.37 14.6ZM85.37 19.97C85.37 20.7 84.78 21.29 84.05 21.29H70.98C70.25 21.29 69.66 20.7 69.66 19.97C69.66 19.24 70.25 18.65 70.98 18.65H84.05C84.78 18.66 85.37 19.24 85.37 19.97ZM85.37 25.35C85.37 26.08 84.78 26.67 84.05 26.67H70.98C70.25 26.67 69.66 26.08 69.66 25.35C69.66 24.62 70.25 24.03 70.98 24.03H84.05C84.78 24.03 85.37 24.62 85.37 25.35Z" fill="#1B54F8"></path></g></svg> 