<?xml version="1.0" encoding="UTF-8"?> <svg xmlns="http://www.w3.org/2000/svg" width="90" height="90" viewBox="0 0 90 90" fill="none"><mask id="mask0_11_46" style="mask-type:alpha" maskUnits="userSpaceOnUse" x="0" y="0" width="90" height="90"><rect width="90" height="90" fill="#D9D9D9"></rect></mask><g mask="url(#mask0_11_46)"><path d="M74.8279 15.443C75.3354 15.945 75.3501 16.773 74.862 17.294C74.6116 17.561 74.2775 17.695 73.9433 17.695C73.6248 17.695 73.3062 17.573 73.0588 17.329C66.0738 10.422 56.8852 6.618 47.1861 6.618C39.2951 6.618 31.7529 9.118 25.3739 13.847C24.803 14.27 24.0061 14.138 23.593 13.552C23.181 12.966 23.3096 12.148 23.8804 11.724C30.6969 6.671 38.7554 4 47.1861 4C57.5476 3.999 67.3646 8.063 74.8279 15.443ZM72.445 73.074C65.5428 79.599 56.5715 83.193 47.1851 83.193C38.924 83.193 31.0953 80.475 24.5468 75.334C23.9866 74.895 23.1868 75.004 22.7591 75.578C22.3315 76.152 22.4377 76.974 22.9978 77.413C29.9955 82.907 38.3589 85.811 47.1861 85.811C57.2145 85.811 66.7986 81.972 74.1742 75C74.6925 74.51 74.7256 73.682 74.2482 73.15C73.7699 72.619 72.9633 72.585 72.445 73.074ZM35.3779 44.905C35.3779 38.222 40.6746 32.785 47.1851 32.785C53.6957 32.785 58.9924 38.222 58.9924 44.905C58.9924 51.588 53.6957 57.025 47.1851 57.025C40.6746 57.025 35.3779 51.588 35.3779 44.905ZM37.9283 44.905C37.9283 50.144 42.0813 54.407 47.1851 54.407C52.2889 54.407 56.4429 50.145 56.4429 44.905C56.4429 39.665 52.2899 35.403 47.1861 35.403C42.0823 35.403 37.9283 39.666 37.9283 44.905ZM30.0052 37.6C30.4475 36.504 30.4777 34.878 29.2336 33.601C28.7212 33.075 28.4387 32.375 28.4387 31.63C28.4387 30.886 28.7212 30.186 29.2336 29.659L32.3335 26.477C33.3925 25.39 35.1148 25.39 36.1738 26.477C37.4178 27.754 39.0019 27.723 40.0696 27.269C41.1373 26.815 42.2791 25.687 42.2791 23.881C42.2791 22.344 43.4968 21.094 44.9942 21.094H49.378C50.8754 21.094 52.0931 22.344 52.0931 23.881C52.0931 25.686 53.2339 26.815 54.3026 27.269C55.3703 27.723 56.9543 27.754 58.1984 26.477C59.2573 25.39 60.9797 25.39 62.0387 26.477L65.1385 29.659C66.1975 30.746 66.1975 32.514 65.1385 33.601C63.8945 34.878 63.9247 36.504 64.367 37.6C64.8093 38.696 65.9082 39.868 67.6676 39.868C69.1649 39.868 70.3826 41.118 70.3826 42.655V47.155C70.3826 48.692 69.1649 49.942 67.6676 49.942C65.9091 49.942 64.8093 51.113 64.367 52.21C63.9247 53.307 63.8955 54.932 65.1385 56.209C66.1975 57.296 66.1975 59.064 65.1385 60.151L62.0387 63.333C61.5262 63.859 60.8443 64.149 60.1185 64.149C59.3927 64.149 58.7108 63.859 58.1984 63.332C56.9553 62.056 55.3703 62.086 54.3026 62.54C53.2349 62.994 52.0931 64.122 52.0931 65.928C52.0931 67.465 50.8754 68.715 49.378 68.715H44.9942C43.4968 68.715 42.2791 67.465 42.2791 65.928C42.2791 64.12 41.1383 62.991 40.0716 62.537C39.0038 62.083 37.4198 62.054 36.1748 63.333C35.6623 63.859 34.9804 64.149 34.2546 64.149C33.5289 64.149 32.8469 63.859 32.3345 63.332L29.2346 60.15C28.7222 59.624 28.4397 58.924 28.4397 58.179C28.4397 57.434 28.7222 56.734 29.2346 56.208C30.4777 54.932 30.4485 53.305 30.0062 52.209C29.5639 51.113 28.465 49.941 26.7056 49.941C25.2083 49.941 23.9905 48.691 23.9905 47.154V42.654C23.9905 41.117 25.2083 39.867 26.7056 39.867C28.463 39.868 29.5629 38.697 30.0052 37.6ZM32.3618 38.602C31.3954 40.998 29.2278 42.486 26.7046 42.486C26.614 42.486 26.54 42.562 26.54 42.655V47.155C26.54 47.248 26.614 47.324 26.7046 47.324C29.2268 47.324 31.3944 48.812 32.3618 51.208C33.3282 53.604 32.8206 56.229 31.0369 58.06C31.0047 58.093 30.9891 58.133 30.9891 58.179C30.9891 58.226 31.0057 58.266 31.0369 58.298L34.1368 61.48C34.201 61.546 34.3053 61.546 34.3696 61.48C35.5571 60.261 37.0856 59.622 38.6629 59.622C39.4578 59.622 40.2644 59.784 41.0467 60.117C43.3799 61.109 44.8285 63.335 44.8285 65.927C44.8285 66.02 44.9026 66.096 44.9932 66.096H49.3771C49.4677 66.096 49.5417 66.02 49.5417 65.927C49.5417 63.338 50.9913 61.113 53.3255 60.12C55.6596 59.128 58.2169 59.649 60.0006 61.48C60.0649 61.546 60.1692 61.546 60.2335 61.48L63.3334 58.298C63.3655 58.265 63.3811 58.225 63.3811 58.179C63.3811 58.132 63.3645 58.092 63.3334 58.06C61.5496 56.229 61.0421 53.603 62.0085 51.208C62.9749 48.812 65.1424 47.324 67.6656 47.324C67.7562 47.324 67.8302 47.248 67.8302 47.155V42.655C67.8302 42.562 67.7562 42.486 67.6656 42.486C65.1434 42.486 62.9758 40.998 62.0085 38.602C61.0421 36.206 61.5496 33.581 63.3334 31.75C63.3977 31.684 63.3977 31.577 63.3334 31.511L60.2335 28.329C60.1692 28.263 60.0649 28.263 60.0006 28.329C58.2169 30.16 55.6596 30.681 53.3255 29.689C50.9913 28.697 49.5417 26.472 49.5417 23.882C49.5417 23.789 49.4677 23.713 49.3771 23.713H44.9932C44.9026 23.713 44.8285 23.789 44.8285 23.882C44.8285 26.472 43.3789 28.697 41.0448 29.689C38.7106 30.681 36.1533 30.16 34.3696 28.329C34.3053 28.263 34.201 28.263 34.1368 28.329L31.0369 31.511C31.0047 31.544 30.9891 31.584 30.9891 31.63C30.9891 31.677 31.0057 31.717 31.0369 31.749C32.8206 33.581 33.3282 36.207 32.3618 38.602ZM90 44.21V72.205C90 75.786 87.1622 78.699 83.6736 78.699C80.185 78.699 77.3472 75.786 77.3472 72.205V44.21C77.3472 43.487 77.918 42.901 78.6224 42.901H80.525V21.114L78.3116 18.323C78.0739 18.023 77.9775 17.63 78.0486 17.25L79.7184 8.328C79.8333 7.712 80.3594 7.266 80.9712 7.266H86.376C86.9878 7.266 87.5129 7.712 87.6288 8.328L89.2986 17.25C89.3697 17.63 89.2733 18.023 89.0356 18.323L86.8222 21.114V42.901H88.7248C89.4291 42.901 90 43.487 90 44.21ZM83.0754 20.649V42.901H84.2717V20.649C84.2717 20.348 84.3731 20.056 84.5582 19.823L86.6819 17.145L85.3229 9.885H82.0252L80.6662 17.145L82.79 19.823C82.9741 20.056 83.0754 20.348 83.0754 20.649ZM87.4496 45.519H79.8976V72.205C79.8976 74.342 81.5917 76.081 83.6736 76.081C85.7554 76.081 87.4496 74.342 87.4496 72.205V45.519ZM21.7421 68.514C21.7421 74.432 17.0523 79.246 11.287 79.246C5.52174 79.246 0.832937 74.431 0.832937 68.514C0.832937 64.396 3.17685 60.619 6.74825 58.846V31.457C2.67709 29.623 0 25.471 0 20.846C0 16.657 2.21434 12.781 5.77892 10.731C6.17347 10.504 6.65667 10.509 7.04732 10.744C7.43798 10.979 7.67763 11.409 7.67763 11.873V19.161L11.288 22.325L14.8984 19.161V11.873C14.8984 11.408 15.138 10.978 15.5287 10.744C15.9193 10.509 16.4015 10.504 16.7971 10.731C20.3616 12.781 22.576 16.657 22.576 20.846C22.576 25.264 20.1668 29.235 16.3684 31.195V59.132C19.6583 61.014 21.7421 64.608 21.7421 68.514ZM19.1916 68.514C19.1916 65.341 17.3728 62.441 14.5584 61.125C14.0791 60.901 13.7839 60.398 13.8141 59.859C13.816 59.815 13.818 59.771 13.818 59.727V30.355C13.818 29.824 14.1297 29.346 14.608 29.144C17.8989 27.755 20.0255 24.498 20.0255 20.846C20.0255 18.431 19.0747 16.151 17.4488 14.488V19.765C17.4488 20.148 17.2851 20.512 17.0016 20.761L12.1161 25.042C11.6387 25.46 10.9373 25.46 10.4599 25.042L5.57434 20.761C5.28988 20.512 5.12621 20.148 5.12621 19.765V14.488C3.50028 16.15 2.54947 18.431 2.54947 20.846C2.54947 24.672 4.91579 28.081 8.4375 29.327C8.95187 29.509 9.29674 30.006 9.29674 30.565V59.705C9.29674 60.248 8.96941 60.735 8.47549 60.928C5.42919 62.118 3.3824 65.167 3.3824 68.513C3.3824 72.987 6.92847 76.627 11.287 76.627C15.6465 76.627 19.1916 72.988 19.1916 68.514ZM16.3782 68.514C16.3782 71.395 14.0946 73.739 11.288 73.739C8.48134 73.739 6.19783 71.395 6.19783 68.514C6.19783 65.633 8.48134 63.289 11.288 63.289C14.0946 63.289 16.3782 65.633 16.3782 68.514ZM13.8277 68.514C13.8277 67.077 12.6889 65.907 11.288 65.907C9.88808 65.907 8.74827 67.077 8.74827 68.514C8.74827 69.951 9.8871 71.121 11.288 71.121C12.6879 71.121 13.8277 69.951 13.8277 68.514Z" fill="#1B54F8"></path></g></svg> 