<?xml version="1.0" encoding="UTF-8"?> <svg xmlns="http://www.w3.org/2000/svg" xmlns:xlink="http://www.w3.org/1999/xlink" width="90" height="90" viewBox="0 0 90 90"><defs><clipPath id="clip-path"><rect id="Rectangle_12" data-name="Rectangle 12" width="90" height="90" transform="translate(382 1245)" fill="#fff"></rect></clipPath></defs><g id="Mask_Group_7" data-name="Mask Group 7" transform="translate(-382 -1245)" clip-path="url(#clip-path)"><g id="Group_118" data-name="Group 118" transform="translate(194.732 26.885)"><path id="Path_153" data-name="Path 153" d="M118.772,79.5a.545.545,0,0,1-.157.393l-7.062,7.27s-.006.011-.015.016a.529.529,0,0,1-.389.164.566.566,0,0,1-.389-.153l-3.543-3.41a.552.552,0,0,1,.38-.95.559.559,0,0,1,.382.153l2.182,2.1a1.355,1.355,0,0,0,1.907-.033l5.761-5.93a.549.549,0,0,1,.389-.166.556.556,0,0,1,.389.157.545.545,0,0,1,.164.387ZM115.9,77.25l-4.827,4.968-1.219-1.17a3.243,3.243,0,0,0-4.587.089,3.249,3.249,0,0,0,.088,4.59l3.543,3.409a3.254,3.254,0,0,0,4.6-.1l7.053-7.263A3.246,3.246,0,1,0,115.9,77.25ZM112.914,93.6a10.449,10.449,0,1,0-10.446-10.45A10.46,10.46,0,0,0,112.914,93.6Zm0-23.593a13.143,13.143,0,1,0,13.145,13.142A13.157,13.157,0,0,0,112.914,70.011Zm20.88,15.738V80.56h-2.974A1.343,1.343,0,0,1,129.5,79.5a16.72,16.72,0,0,0-2.28-5.5,1.354,1.354,0,0,1,.187-1.679l2.1-2.1-3.669-3.669-2.1,2.1a1.35,1.35,0,0,1-1.68.183,16.842,16.842,0,0,0-5.493-2.278,1.347,1.347,0,0,1-1.063-1.316V62.271h-5.192v2.976a1.347,1.347,0,0,1-1.054,1.316,16.864,16.864,0,0,0-5.5,2.278,1.34,1.34,0,0,1-1.675-.183l-2.107-2.1-3.669,3.669,2.107,2.1a1.344,1.344,0,0,1,.181,1.679,16.909,16.909,0,0,0-2.28,5.5A1.343,1.343,0,0,1,95,80.56H92.028v5.189H95a1.344,1.344,0,0,1,1.316,1.059,16.881,16.881,0,0,0,2.28,5.5,1.343,1.343,0,0,1-.181,1.679l-2.107,2.1,3.669,3.669,2.107-2.1a1.341,1.341,0,0,1,1.675-.183,16.849,16.849,0,0,0,5.5,2.276,1.35,1.35,0,0,1,1.054,1.317v2.974h5.192v-2.974a1.349,1.349,0,0,1,1.063-1.317,16.8,16.8,0,0,0,5.493-2.276,1.35,1.35,0,0,1,1.68.183l2.1,2.1,3.669-3.669-2.1-2.1a1.351,1.351,0,0,1-.187-1.679,16.719,16.719,0,0,0,2.28-5.5,1.344,1.344,0,0,1,1.316-1.059Zm1.346-7.884h-3.265a19.429,19.429,0,0,0-1.816-4.378l2.317-2.312a1.352,1.352,0,0,0,0-1.906L126.8,63.695a1.35,1.35,0,0,0-1.907,0l-2.316,2.313a19.424,19.424,0,0,0-4.38-1.814V60.924a1.343,1.343,0,0,0-1.344-1.347H108.97a1.349,1.349,0,0,0-1.346,1.347v3.269a19.48,19.48,0,0,0-4.378,1.814l-2.31-2.313a1.356,1.356,0,0,0-.956-.395,1.33,1.33,0,0,0-.949.395l-5.575,5.575a1.339,1.339,0,0,0,0,1.906l2.31,2.312a19.387,19.387,0,0,0-1.816,4.378H90.685a1.343,1.343,0,0,0-1.344,1.347V87.1a1.343,1.343,0,0,0,1.344,1.347H93.95a19.417,19.417,0,0,0,1.816,4.378l-2.31,2.312a1.338,1.338,0,0,0,0,1.905l5.575,5.575a1.321,1.321,0,0,0,.949.4,1.351,1.351,0,0,0,.956-.4l2.31-2.311a19.357,19.357,0,0,0,4.378,1.813v3.268a1.348,1.348,0,0,0,1.346,1.347h7.884a1.342,1.342,0,0,0,1.344-1.347v-3.268a19.34,19.34,0,0,0,4.38-1.813l2.316,2.311a1.337,1.337,0,0,0,.949.4,1.355,1.355,0,0,0,.958-.4l5.575-5.575a1.351,1.351,0,0,0,0-1.905l-2.317-2.312a19.366,19.366,0,0,0,1.816-4.378h3.265A1.35,1.35,0,0,0,136.49,87.1V79.213A1.35,1.35,0,0,0,135.14,77.865ZM119.767,50.025a1.348,1.348,0,0,1,1.346-1.347h20.1a1.347,1.347,0,0,1,0,2.695h-20.1A1.349,1.349,0,0,1,119.767,50.025Zm-23.578,0a1.9,1.9,0,1,1,1.9,1.9A1.9,1.9,0,0,1,96.189,50.025Zm-14.586,0a1.9,1.9,0,1,1,1.906,1.9A1.9,1.9,0,0,1,81.6,50.025Zm7.293,0a1.9,1.9,0,1,1,1.906,1.9A1.906,1.906,0,0,1,88.9,50.025Zm60.636,58.335a.881.881,0,0,0,.867-.872V57.951H75.423v49.536a.888.888,0,0,0,.875.872ZM76.3,44.793a.887.887,0,0,0-.875.871v9.591H150.4V45.663a.88.88,0,0,0-.867-.871Zm73.235-2.7H76.3a3.577,3.577,0,0,0-3.573,3.567v61.822a3.577,3.577,0,0,0,3.573,3.567h73.235a3.57,3.57,0,0,0,3.566-3.567V45.663a3.57,3.57,0,0,0-3.566-3.566Z" transform="translate(119.543 1187.018)" fill="#1b54f8" fill-rule="evenodd"></path></g></g></svg> 