<?xml version="1.0" encoding="UTF-8"?> <!-- Generator: Adobe Illustrator 25.3.1, SVG Export Plug-In . SVG Version: 6.00 Build 0) --> <svg xmlns="http://www.w3.org/2000/svg" xmlns:xlink="http://www.w3.org/1999/xlink" version="1.1" id="Layer_1" x="0px" y="0px" viewBox="0 0 94 94" style="enable-background:new 0 0 94 94;" xml:space="preserve"> <style type="text/css"> .st0{fill:#E6EEFF;} .st1{fill:#1B54F8;} </style> <desc>Created with Sketch.</desc> <path class="st0" d="M87.5,93.5h-81c-3.3,0-6-2.7-6-6v-81c0-3.3,2.7-6,6-6h81c3.3,0,6,2.7,6,6v81C93.5,90.8,90.8,93.5,87.5,93.5z"></path> <g> <path class="st1" d="M70.1,37.7c-0.8-4.4-4.5-7.8-9-8.2c-1-5.7-6-10.1-12.1-10.1c-6.2,0-11.3,4.6-12.2,10.5c-0.9-0.3-1.9-0.4-3-0.4 c-4.9,0-9.1,3.6-10,8.2c-5.4,0.3-9.6,4.8-9.6,10.2c0,5.6,4.6,10.2,10.2,10.2h6.1v-2h3.8c0.2-0.7,0.5-1.3,0.8-1.9l-2.7-2.7l5.7-5.8 l2.7,2.7c0.6-0.3,1.2-0.6,1.9-0.8v-3.8h8.2v3.8c0.7,0.2,1.3,0.5,1.9,0.8l2.7-2.7l5.8,5.8l-2.7,2.7c0.3,0.6,0.6,1.3,0.8,1.9h3.7v2 h6.1c5.6,0,10.2-4.6,10.2-10.2C79.7,42.5,75.5,38,70.1,37.7z"></path> <path class="st1" d="M36,58.2h-3.3v4.1H36c0.3,1.6,0.9,3.1,1.8,4.4L35.5,69l2.9,2.9l2.2-2.2c1.3,0.9,2.8,1.5,4.4,1.8v3.1h4v-3.3 c1.5-0.3,3.1-0.9,4.4-1.8l2.2,2.2l2.9-2.9l-2.3-2.3c0.9-1.3,1.4-2.8,1.7-4.4h3.4V58H58l0,0c-0.3-1.5-0.9-3-1.8-4.3l2.3-2.3 l-2.9-2.9l-2.3,2.3C52.1,50,50.6,49.3,49,49v-3.3h-4V49c-1.5,0.3-3.1,0.9-4.3,1.7l-2.3-2.3l-2.9,2.9l2.3,2.3 C36.9,55.2,36.3,56.6,36,58.2C36,58.1,36,58.1,36,58.2z M40.2,58.1c0.9-3,3.6-5,6.8-5s5.9,2.1,6.8,5c0.2,0.7,0.3,1.4,0.3,2.1 c0,4-3.3,7.1-7.1,7.1c-4,0-7.1-3.2-7.1-7.1C39.9,59.6,40,58.8,40.2,58.1z"></path> <path class="st1" d="M47,65.4c2.9,0,5.1-2.3,5.1-5.1c0-0.7-0.2-1.5-0.5-2.1c-0.7-1.7-2.6-3-4.6-3s-3.9,1.2-4.6,3 c-0.3,0.6-0.5,1.4-0.5,2.1C41.9,63.1,44.1,65.4,47,65.4z"></path> </g> </svg> 