<?xml version="1.0" encoding="UTF-8"?> <svg xmlns="http://www.w3.org/2000/svg" id="Layer_1" data-name="Layer 1" viewBox="0 0 94 94"><defs><style>.cls-1{fill:none;stroke:#1b54f8;stroke-miterlimit:10;stroke-width:4px;}.cls-2{fill:#1b54f8;}</style></defs><circle class="cls-1" cx="47" cy="47" r="44.6"></circle><path class="cls-2" d="M53.8,51.7V31.4a1.63,1.63,0,0,0-1.7-1.7h-29a1.69,1.69,0,0,0-1.7,1.7V51.6a1.77,1.77,0,0,0,1.7,1.8h29A1.58,1.58,0,0,0,53.8,51.7Z"></path><path class="cls-2" d="M71.8,54.6V50l-.2-.5L66.2,37.2H54.9V54.6H35.6a10.91,10.91,0,0,1,1.1.6c.2.2.5.4.7.6A6.36,6.36,0,0,1,38.8,58c.1.2.1.4.2.6a1.27,1.27,0,0,1,.1.6H55.9c0-.2.1-.4.1-.6s.1-.4.2-.6a6.36,6.36,0,0,1,1.4-2.2c.2-.2.5-.4.7-.6.4-.2.7-.4,1.1-.6a5.87,5.87,0,0,1,2.3-.4,8.52,8.52,0,0,1,2.3.4,10.91,10.91,0,0,1,1.1.6c.2.2.5.4.7.6A6.36,6.36,0,0,1,67.2,58c.1.2.1.4.2.6a1.27,1.27,0,0,1,.1.6h4.7V54.5h-.4ZM59.3,45.5V38.6h5.8L68,45.5Z"></path><path class="cls-2" d="M31,54.6H23.9v4.7h3.4c0-.2.1-.4.1-.6s.1-.4.2-.6A6.36,6.36,0,0,1,29,55.9c.2-.2.5-.4.7-.6A8.26,8.26,0,0,1,31,54.6Z"></path><path class="cls-2" d="M37.1,58.6l-.3-.6a4.29,4.29,0,0,0-3.6-2.1A4.08,4.08,0,0,0,29.6,58l-.3.6c-.1.2-.1.4-.2.6a2.77,2.77,0,0,0-.1.9,4.2,4.2,0,1,0,8.4,0,3.08,3.08,0,0,0-.1-.9A2.07,2.07,0,0,0,37.1,58.6Zm-3.8,3.9A2.4,2.4,0,0,1,31,60.2a2.92,2.92,0,0,1,.2-.9,2.09,2.09,0,0,1,.4-.6,2.84,2.84,0,0,1,.9-.6,2.35,2.35,0,0,1,.8-.2,1.88,1.88,0,0,1,.8.2c.4.1.6.4.9.6a2.09,2.09,0,0,1,.4.6,2.39,2.39,0,0,1,.2.9A2.26,2.26,0,0,1,33.3,62.5Z"></path><path class="cls-2" d="M65.9,58.6l-.3-.6A4.33,4.33,0,0,0,62,56a4.08,4.08,0,0,0-3.6,2.1l-.3.6c-.1.2-.1.4-.2.6a2.77,2.77,0,0,0-.1.9,4.2,4.2,0,0,0,8.4,0,3.08,3.08,0,0,0-.1-.9A1.85,1.85,0,0,1,65.9,58.6ZM62,62.5a2.4,2.4,0,0,1-2.3-2.3,2.92,2.92,0,0,1,.2-.9,2.09,2.09,0,0,1,.4-.6,2.84,2.84,0,0,1,.9-.6,2.35,2.35,0,0,1,.8-.2,1.88,1.88,0,0,1,.8.2c.4.1.6.4.9.6a2.09,2.09,0,0,1,.4.6,2.39,2.39,0,0,1,.2.9A2.26,2.26,0,0,1,62,62.5Z"></path><circle class="cls-2" cx="58" cy="33.6" r="1.1"></circle><path class="cls-2" d="M60.8,30.8a3.57,3.57,0,0,0-3.2-1.1.27.27,0,0,0-.3.3v.7c0,.1,0,.2.1.2h0a.37.37,0,0,0,.3.1,2.48,2.48,0,0,1,2.2.7,2.58,2.58,0,0,1,.7,2.2.37.37,0,0,0,.1.3h0c.1.1.1.1.2.1h.7a.27.27,0,0,0,.3-.3A4.07,4.07,0,0,0,60.8,30.8Z"></path><path class="cls-2" d="M62.7,28.8a6.41,6.41,0,0,0-5.2-1.9.27.27,0,0,0-.3.3v.7c0,.1,0,.2.1.2h0a.31.31,0,0,0,.2.1A5.49,5.49,0,0,1,63.3,34c0,.1,0,.2.1.2h0c.1.1.1.1.2.1h.7a.27.27,0,0,0,.3-.3A6.41,6.41,0,0,0,62.7,28.8Z"></path><path class="cls-2" d="M67.6,34A9.61,9.61,0,0,0,57.5,23.9a.27.27,0,0,0-.3.3v.6c0,.1,0,.2.1.2h0c.1.1.1.1.2.1a8.25,8.25,0,0,1,8.7,8.8c0,.1,0,.2.1.2h0c.1.1.1.1.2.1h.7C67.5,34.3,67.6,34.1,67.6,34Z"></path></svg> 