<?xml version="1.0" encoding="UTF-8"?> <svg xmlns="http://www.w3.org/2000/svg" id="Layer_1" data-name="Layer 1" viewBox="0 0 80 80"><defs><style>.cls-1{fill:#1b54f8;}</style></defs><g id="manufacturing"><g id="factory-_1_" data-name="factory-(1)"><path id="Shape" class="cls-1" d="M69.47,36a1.08,1.08,0,0,0-1.06,0l-3,1.64L64.64,9a1.07,1.07,0,0,0-1.07-1h-7.5A1.07,1.07,0,0,0,55,9L54,44l-3.29,1.82V36.93a1.07,1.07,0,0,0-1.07-1.07,1.06,1.06,0,0,0-.52.13L31.43,45.82V36.93a1.07,1.07,0,0,0-1.07-1.07,1,1,0,0,0-.52.13L10.55,46.71a1.06,1.06,0,0,0-.55.93V71.21a1.07,1.07,0,0,0,1.07,1.08H68.93A1.07,1.07,0,0,0,70,71.21V36.93A1.09,1.09,0,0,0,69.47,36ZM57.11,10.14h5.42l.06,2.15H57.05ZM57,14.43h5.66l.7,24.37-7.17,4ZM38.93,70.14H32.5V64.79h6.43Zm8.57,0H41.07V64.79H47.5Zm20.36,0H49.64V63.71a1.07,1.07,0,0,0-1.07-1.07H31.43a1.07,1.07,0,0,0-1.07,1.07v6.43H12.14V48.27l17.15-9.52v8.89a1.07,1.07,0,0,0,1.07,1.07,1.06,1.06,0,0,0,.52-.13l17.69-9.83v8.89a1.07,1.07,0,0,0,1.07,1.07,1,1,0,0,0,.52-.13L60.27,43,65,40.36l2.9-1.61Z"></path><path id="Shape-2" data-name="Shape" class="cls-1" d="M25,50.86H16.43a1.07,1.07,0,0,0-1.07,1.07v4.28a1.07,1.07,0,0,0,1.07,1.08H25a1.07,1.07,0,0,0,1.07-1.08V51.93A1.07,1.07,0,0,0,25,50.86Zm-1.07,4.28H17.5V53h6.43Z"></path><path id="Shape-3" data-name="Shape" class="cls-1" d="M44.29,50.86H35.71a1.07,1.07,0,0,0-1.07,1.07v4.28a1.07,1.07,0,0,0,1.07,1.08h8.58a1.07,1.07,0,0,0,1.07-1.08V51.93A1.07,1.07,0,0,0,44.29,50.86Zm-1.08,4.28H36.79V53h6.42Z"></path><path id="Shape-4" data-name="Shape" class="cls-1" d="M63.57,50.86H55a1.07,1.07,0,0,0-1.07,1.07v4.28A1.07,1.07,0,0,0,55,57.29h8.57a1.07,1.07,0,0,0,1.07-1.08V51.93A1.07,1.07,0,0,0,63.57,50.86ZM62.5,55.14H56.07V53H62.5Z"></path></g></g></svg> 