<?xml version="1.0" encoding="UTF-8"?> <svg xmlns="http://www.w3.org/2000/svg" xmlns:xlink="http://www.w3.org/1999/xlink" width="90" height="90" viewBox="0 0 90 90"><defs><clipPath id="clip-path"><rect id="Rectangle_34" data-name="Rectangle 34" width="90" height="90" transform="translate(128 861)" fill="#fff" stroke="#707070" stroke-width="1"></rect></clipPath></defs><g id="Mask_Group_14" data-name="Mask Group 14" transform="translate(-128 -861)" clip-path="url(#clip-path)"><g id="Group_10" data-name="Group 10" transform="translate(-92.5 -117)"><path id="Path_18" data-name="Path 18" d="M82.039,64.536h-2.03q-.041-1-.177-1.988l2.278-.814a.831.831,0,0,0,.095-.057.84.84,0,0,0,.155-.093.863.863,0,0,0,.117-.119.891.891,0,0,0,.1-.137.866.866,0,0,0,.064-.154.932.932,0,0,0,.042-.165.826.826,0,0,0,0-.176.825.825,0,0,0,0-.115,25.053,25.053,0,0,0-.948-3.407,24.422,24.422,0,0,0-1.429-3.244.973.973,0,0,0-.072-.088.839.839,0,0,0-.112-.137,1.008,1.008,0,0,0-.134-.1.977.977,0,0,0-.151-.08.933.933,0,0,0-.163-.042.877.877,0,0,0-.168-.018.936.936,0,0,0-.178.026.787.787,0,0,0-.111.016l-2.253.805a20.732,20.732,0,0,0-5.278-5.835l.951-2.009a.2.2,0,0,0,.019-.021.88.88,0,0,0-.087-1.076l-.029-.029a.952.952,0,0,0-.13-.131,24.2,24.2,0,0,0-6.386-3.024.77.77,0,0,0-.1-.01.85.85,0,0,0-.194-.019.9.9,0,0,0-.154.023.857.857,0,0,0-.17.053.9.9,0,0,0-.139.082.9.9,0,0,0-.136.111.883.883,0,0,0-.1.135.9.9,0,0,0-.07.095L63.94,44.945a20.728,20.728,0,0,0-7.839-.39l-.8-2.245a.964.964,0,0,0-.055-.092.938.938,0,0,0-.354-.379.943.943,0,0,0-.145-.061.85.85,0,0,0-.169-.043.877.877,0,0,0-.181,0,.9.9,0,0,0-.11,0,24.183,24.183,0,0,0-3.414.948,24.756,24.756,0,0,0-3.238,1.427.975.975,0,0,0-.088.072.9.9,0,0,0-.138.113.786.786,0,0,0-.1.133.91.91,0,0,0-.081.151.849.849,0,0,0-.041.162.887.887,0,0,0-.019.169.851.851,0,0,0,.025.176.976.976,0,0,0,.017.112l.805,2.253a21.1,21.1,0,0,0-5.806,5.272l-2.171-1.03a.745.745,0,0,0-.109-.027.946.946,0,0,0-.177-.044.8.8,0,0,0-.161,0,.972.972,0,0,0-.176.026.936.936,0,0,0-.149.062.816.816,0,0,0-.15.088.9.9,0,0,0-.124.124.862.862,0,0,0-.08.081,24.306,24.306,0,0,0-3.027,6.387c-.011.036,0,.07-.011.106a.9.9,0,0,0-.019.188.862.862,0,0,0,.023.152.91.91,0,0,0,.054.176.865.865,0,0,0,.078.13.7.7,0,0,0,.244.239.844.844,0,0,0,.1.075l2.189,1.035a21.051,21.051,0,0,0-.567,4.041H7.46a5.961,5.961,0,0,0,0,11.922H82.04a5.96,5.96,0,1,0,0-11.92Zm-41.6-4.3a.806.806,0,0,0,.007-.1.834.834,0,0,0,.013-.175.866.866,0,0,0-.025-.167.827.827,0,0,0-.054-.162.9.9,0,0,0-.084-.141.842.842,0,0,0-.113-.133.878.878,0,0,0-.135-.1.889.889,0,0,0-.087-.065l-2.121-1a22.516,22.516,0,0,1,2.152-4.542l2.111,1a.4.4,0,0,0,.045.01.871.871,0,0,0,.337.077h0a.89.89,0,0,0,.367-.088c.02-.01.038-.016.057-.026a.856.856,0,0,0,.281-.244c.007-.01.019-.013.026-.022a19.3,19.3,0,0,1,6.317-5.736,1.011,1.011,0,0,0,.081-.07.873.873,0,0,0,.13-.112.894.894,0,0,0,.1-.138.917.917,0,0,0,.074-.148.952.952,0,0,0,.042-.165.871.871,0,0,0,.014-.167.909.909,0,0,0-.026-.175.79.79,0,0,0-.015-.1l-.782-2.187a22.982,22.982,0,0,1,2.314-.989,22.329,22.329,0,0,1,2.418-.7l.781,2.182a.926.926,0,0,0,.064.117.771.771,0,0,0,.051.093.894.894,0,0,0,.189.2c.01.008.017.019.027.027a.922.922,0,0,0,.279.124.775.775,0,0,0,.093.014.884.884,0,0,0,.136.021.816.816,0,0,0,.089-.016c.022,0,.045.005.067,0a19,19,0,0,1,8.528.424.913.913,0,0,0,.242.034c.01,0,.019,0,.029,0a.889.889,0,0,0,.234-.038c.031-.01.059-.026.09-.039a.888.888,0,0,0,.15-.078.743.743,0,0,0,.081-.068.742.742,0,0,0,.176-.211.648.648,0,0,0,.047-.07l.989-2.09a22.421,22.421,0,0,1,4.525,2.14l-.992,2.094a.619.619,0,0,0-.023.1.822.822,0,0,0-.045.177.877.877,0,0,0,0,.168,1.024,1.024,0,0,0,.025.165.885.885,0,0,0,.062.161,2.157,2.157,0,0,0,.278.344,19.018,19.018,0,0,1,5.741,6.348c.013.022.032.04.046.062s.041.056.063.084a.822.822,0,0,0,.115.108.81.81,0,0,0,.076.058.841.841,0,0,0,.153.075.781.781,0,0,0,.075.031.943.943,0,0,0,.244.037h.006a.877.877,0,0,0,.268-.047c.011,0,.021,0,.031-.005l2.191-.784a22.83,22.83,0,0,1,.99,2.315,23.409,23.409,0,0,1,.7,2.417l-2.2.787a.915.915,0,0,0-.089.054.87.87,0,0,0-.147.088.816.816,0,0,0-.129.125,1.036,1.036,0,0,0-.092.124.956.956,0,0,0-.076.169.9.9,0,0,0-.037.146,149.458,149.458,0,0,1-.008.287,19.188,19.188,0,0,1,.249,2.431h-7.67A11.6,11.6,0,0,0,48.5,60.463a11.47,11.47,0,0,0-1.071,4.075H39.758A19.36,19.36,0,0,1,40.44,60.238Zm28.324,4.3H49.219a9.708,9.708,0,0,1,.9-3.312,9.815,9.815,0,0,1,18.645,3.312ZM82.039,74.673H7.46a4.177,4.177,0,0,1,0-8.355H82.04a4.177,4.177,0,0,1,0,8.355Z" transform="translate(221 974.25)" fill="#1c54f8" stroke="#1c54f9" stroke-width="1"></path><path id="Path_19" data-name="Path 19" d="M22.229,72.988H16.195a.892.892,0,0,0,0,1.783h6.034a.892.892,0,0,0,0-1.783Z" transform="translate(219.506 970.866)" fill="#1c54f8" stroke="#1c54f9" stroke-width="1"></path><path id="Path_20" data-name="Path 20" d="M37.656,72.988H31.623a.892.892,0,0,0,0,1.783h6.034a.892.892,0,0,0,0-1.783Z" transform="translate(217.836 970.866)" fill="#1c54f8" stroke="#1c54f9" stroke-width="1"></path><path id="Path_21" data-name="Path 21" d="M53.084,72.988H47.05a.892.892,0,0,0,0,1.783h6.034a.892.892,0,0,0,0-1.783Z" transform="translate(216.165 970.866)" fill="#1c54f8" stroke="#1c54f9" stroke-width="1"></path><path id="Path_22" data-name="Path 22" d="M68.511,72.988H62.478a.892.892,0,0,0,0,1.783h6.034a.892.892,0,0,0,0-1.783Z" transform="translate(214.495 970.866)" fill="#1c54f8" stroke="#1c54f9" stroke-width="1"></path><path id="Path_23" data-name="Path 23" d="M82.855,72.988H76.822a.892.892,0,0,0,0,1.783h6.034a.892.892,0,0,0,0-1.783Z" transform="translate(212.942 970.866)" fill="#1c54f8" stroke="#1c54f9" stroke-width="1"></path><path id="Path_24" data-name="Path 24" d="M8.3,38.145a.861.861,0,0,0,.052.153.838.838,0,0,0,.095.14.917.917,0,0,0,.1.12.848.848,0,0,0,.145.1.883.883,0,0,0,.128.076.9.9,0,0,0,.259.053c.022,0,.042.013.065.013h1.379a14.253,14.253,0,0,0,1.844,4.438l-.98.98a.9.9,0,0,0-.062.094.864.864,0,0,0-.1.149.921.921,0,0,0-.055.158.9.9,0,0,0-.033.167.877.877,0,0,0,.008.168.826.826,0,0,0,.032.166.85.85,0,0,0,.076.161.828.828,0,0,0,.048.1,16.456,16.456,0,0,0,1.565,1.808,16.189,16.189,0,0,0,1.812,1.566.833.833,0,0,0,.128.066.907.907,0,0,0,.1.051.824.824,0,0,0,.67-.026.959.959,0,0,0,.109-.072.834.834,0,0,0,.158-.1l.983-.983a14.071,14.071,0,0,0,4.436,1.833V50.91c0,.034.016.062.019.095a.89.89,0,0,0,.04.2.825.825,0,0,0,.061.127.854.854,0,0,0,.111.164.942.942,0,0,0,.1.095.807.807,0,0,0,.162.109.87.87,0,0,0,.144.053.793.793,0,0,0,.119.043,16.39,16.39,0,0,0,4.774,0,.813.813,0,0,0,.082-.029.883.883,0,0,0,.21-.076.861.861,0,0,0,.094-.063.884.884,0,0,0,.168-.153.789.789,0,0,0,.06-.09.872.872,0,0,0,.1-.205.754.754,0,0,0,.023-.119.873.873,0,0,0,.029-.144v-1.4a13.985,13.985,0,0,0,4.432-1.834l.983.984a.846.846,0,0,0,.156.1.767.767,0,0,0,.109.072.879.879,0,0,0,.363.085h0a.888.888,0,0,0,.3-.059.731.731,0,0,0,.1-.051.879.879,0,0,0,.126-.064,15.81,15.81,0,0,0,1.815-1.564,16.033,16.033,0,0,0,1.568-1.816.862.862,0,0,0,.047-.1.825.825,0,0,0,.075-.161.806.806,0,0,0,.032-.165.709.709,0,0,0-.026-.334.854.854,0,0,0-.056-.158.864.864,0,0,0-.1-.149.929.929,0,0,0-.062-.093l-.981-.981A14.262,14.262,0,0,0,38.283,38.8h1.388a.879.879,0,0,0,.855-.713c.008-.031.025-.057.03-.089a16.524,16.524,0,0,0-.008-4.736.867.867,0,0,0-.037-.105.894.894,0,0,0-.061-.168.851.851,0,0,0-.093-.138.93.93,0,0,0-.116-.128.883.883,0,0,0-.136-.092.837.837,0,0,0-.156-.075.911.911,0,0,0-.171-.035.8.8,0,0,0-.111-.022H38.291a14.265,14.265,0,0,0-1.836-4.449l.97-.97a.969.969,0,0,0,.063-.095.835.835,0,0,0,.1-.148.9.9,0,0,0,.055-.159.694.694,0,0,0,.025-.334.692.692,0,0,0-.109-.326.881.881,0,0,0-.048-.1,16.7,16.7,0,0,0-1.564-1.8,16.384,16.384,0,0,0-1.813-1.567.749.749,0,0,0-.1-.047.829.829,0,0,0-.161-.076.866.866,0,0,0-.163-.032.836.836,0,0,0-.17-.008.953.953,0,0,0-.164.032.849.849,0,0,0-.16.056.835.835,0,0,0-.148.1.814.814,0,0,0-.094.062l-.964.964a14.283,14.283,0,0,0-4.468-1.852V20.515c0-.005,0-.011,0-.017v-.111c0-.013-.007-.025-.008-.038a.883.883,0,0,0-.058-.291c-.006-.016-.014-.029-.021-.045a.857.857,0,0,0-.161-.237c-.014-.015-.03-.028-.045-.042a.852.852,0,0,0-.22-.148.834.834,0,0,0-.094-.034.888.888,0,0,0-.144-.052,16.281,16.281,0,0,0-4.774,0,.912.912,0,0,0-.1.037.94.94,0,0,0-.172.062.8.8,0,0,0-.134.09.868.868,0,0,0-.13.119.844.844,0,0,0-.089.133.876.876,0,0,0-.077.16.923.923,0,0,0-.033.164.859.859,0,0,0-.023.118v1.354A14.009,14.009,0,0,0,16.8,23.583l-.96-.958a.908.908,0,0,0-.092-.061.866.866,0,0,0-.151-.1.843.843,0,0,0-.157-.055.882.882,0,0,0-.166-.033,1.177,1.177,0,0,0-.334.039.9.9,0,0,0-.163.077.787.787,0,0,0-.1.047,16.366,16.366,0,0,0-1.814,1.568A16.858,16.858,0,0,0,11.3,25.914c-.023.032-.029.07-.049.1a.85.85,0,0,0-.076.161.826.826,0,0,0-.032.166.81.81,0,0,0-.008.168.89.89,0,0,0,.033.167.706.706,0,0,0,.153.307.814.814,0,0,0,.062.094l.964.964A14.021,14.021,0,0,0,10.507,32.5H9.145a.948.948,0,0,0-.111.022.845.845,0,0,0-.171.035.811.811,0,0,0-.156.075.862.862,0,0,0-.136.092.84.84,0,0,0-.117.128.862.862,0,0,0-.092.136.872.872,0,0,0-.061.169.738.738,0,0,0-.037.105,16.411,16.411,0,0,0,0,4.774A.563.563,0,0,0,8.3,38.145Zm6.845-13.691.9.9a.846.846,0,0,0,.156.1.733.733,0,0,0,.474.157l.011,0a.894.894,0,0,0,.291-.056.839.839,0,0,0,.1-.049.879.879,0,0,0,.116-.058,12.313,12.313,0,0,1,5.11-2.118.684.684,0,0,0,.1-.037.838.838,0,0,0,.167-.064.863.863,0,0,0,.139-.094.829.829,0,0,0,.121-.116.889.889,0,0,0,.1-.141.831.831,0,0,0,.069-.152.877.877,0,0,0,.036-.176.958.958,0,0,0,.02-.1V21.183a14.5,14.5,0,0,1,2.719,0v1.267a.958.958,0,0,0,.02.1.881.881,0,0,0,.036.175.839.839,0,0,0,.069.152.857.857,0,0,0,.095.14.89.89,0,0,0,.122.117.855.855,0,0,0,.138.094.838.838,0,0,0,.167.064.962.962,0,0,0,.1.037,12.308,12.308,0,0,1,5.119,2.123.89.89,0,0,0,.124.062.687.687,0,0,0,.089.044.876.876,0,0,0,.3.059h0a.881.881,0,0,0,.369-.088.811.811,0,0,0,.106-.07.85.85,0,0,0,.155-.1l.9-.9c.35.29.692.591,1.017.916s.626.667.915,1.015l-.905.906a.716.716,0,0,0-.058.088.86.86,0,0,0-.095.143.838.838,0,0,0-.062.165.857.857,0,0,0-.03.157.908.908,0,0,0,0,.177.928.928,0,0,0,.03.156.868.868,0,0,0,.075.169.809.809,0,0,0,.039.09,12.323,12.323,0,0,1,2.105,5.1.792.792,0,0,0,.039.109.678.678,0,0,0,.154.292.769.769,0,0,0,.088.1.972.972,0,0,0,.163.111.794.794,0,0,0,.11.063.883.883,0,0,0,.294.06c.011,0,.02.006.031.006h1.289a14.719,14.719,0,0,1,0,2.732H37.58c-.034,0-.062.016-.095.019a.929.929,0,0,0-.187.037.907.907,0,0,0-.137.062.889.889,0,0,0-.153.1.964.964,0,0,0-.11.116.876.876,0,0,0-.095.14.888.888,0,0,0-.067.174.765.765,0,0,0-.034.089,12.31,12.31,0,0,1-2.114,5.091.909.909,0,0,0-.04.091.817.817,0,0,0-.075.169.873.873,0,0,0-.031.157.773.773,0,0,0,.027.335.928.928,0,0,0,.062.163.836.836,0,0,0,.1.144.716.716,0,0,0,.058.088l.919.919c-.29.35-.592.694-.917,1.018s-.664.623-1.014.912l-.919-.921a.785.785,0,0,0-.092-.062.891.891,0,0,0-.138-.093.819.819,0,0,0-.167-.062.892.892,0,0,0-.159-.031.908.908,0,0,0-.17,0,.822.822,0,0,0-.167.032.945.945,0,0,0-.157.07.981.981,0,0,0-.1.044,12.287,12.287,0,0,1-5.087,2.1.911.911,0,0,0-.1.037.933.933,0,0,0-.164.063.952.952,0,0,0-.261.21.876.876,0,0,0-.095.14.812.812,0,0,0-.069.152.868.868,0,0,0-.036.175.734.734,0,0,0-.021.1v1.306a14.426,14.426,0,0,1-2.733,0v-1.3a1,1,0,0,0-.219-.569.9.9,0,0,0-.119-.114.884.884,0,0,0-.141-.095.835.835,0,0,0-.167-.063.862.862,0,0,0-.095-.037,12.364,12.364,0,0,1-5.092-2.1.986.986,0,0,0-.095-.042.817.817,0,0,0-.162-.071.782.782,0,0,0-.161-.031.865.865,0,0,0-.173,0,.812.812,0,0,0-.161.031.885.885,0,0,0-.161.062.856.856,0,0,0-.145.1.9.9,0,0,0-.086.057l-.918.918c-.35-.291-.692-.592-1.016-.916s-.622-.663-.916-1.016L14.13,44a.745.745,0,0,0,.052-.078.9.9,0,0,0,.109-.163.917.917,0,0,0,.053-.14.858.858,0,0,0,.036-.184.948.948,0,0,0,0-.151.853.853,0,0,0-.036-.182,52.052,52.052,0,0,0-.111-.25,12.5,12.5,0,0,1-2.118-5.092.691.691,0,0,0-.037-.093.953.953,0,0,0-.066-.172.8.8,0,0,0-.091-.134.846.846,0,0,0-.12-.126.995.995,0,0,0-.291-.161.856.856,0,0,0-.175-.036.94.94,0,0,0-.1-.02H9.944a14.567,14.567,0,0,1,0-2.732h1.281a.691.691,0,0,0,.424-.122.907.907,0,0,0,.176-.119.845.845,0,0,0,.082-.1.872.872,0,0,0,.11-.161.852.852,0,0,0,.048-.134.763.763,0,0,0,.039-.11,12.317,12.317,0,0,1,2.108-5.11.8.8,0,0,0,.044-.1.78.78,0,0,0,.068-.153A.859.859,0,0,0,14.358,28a.821.821,0,0,0,0-.155.885.885,0,0,0-.035-.179.857.857,0,0,0-.054-.144.839.839,0,0,0-.105-.158.784.784,0,0,0-.054-.08l-.9-.9c.29-.349.591-.691.914-1.015S14.8,24.743,15.145,24.454Z" transform="translate(220.287 976.675)" fill="#1c54f8" stroke="#1c54f9" stroke-width="1"></path><path id="Path_25" data-name="Path 25" d="M25.453,44.413a7.719,7.719,0,1,0-7.721-7.719A7.729,7.729,0,0,0,25.453,44.413Zm0-13.655a5.936,5.936,0,1,1-5.937,5.936A5.943,5.943,0,0,1,25.453,30.757Z" transform="translate(219.243 975.631)" fill="#1c54f8" stroke="#1c54f9" stroke-width="1"></path></g></g></svg> 