<?xml version="1.0" encoding="UTF-8"?> <svg xmlns="http://www.w3.org/2000/svg" xmlns:xlink="http://www.w3.org/1999/xlink" width="60" height="60" viewBox="0 0 60 60"><defs><clipPath id="clip-path"><rect id="Rectangle_85" data-name="Rectangle 85" width="60" height="60" transform="translate(291 1133)" fill="#fff" stroke="#707070" stroke-width="1"></rect></clipPath></defs><g id="Mask_Group_48" data-name="Mask Group 48" transform="translate(-291 -1133)" clip-path="url(#clip-path)"><g id="Group_74" data-name="Group 74" transform="translate(-126.22 45)"><path id="Path_165" data-name="Path 165" d="M44.646,45.723H34.8a1.778,1.778,0,0,0,.17-.756V32.322a1.918,1.918,0,0,0-1.92-1.912H18.4a1.912,1.912,0,0,0-1.912,1.912V44.967a1.778,1.778,0,0,0,.17.756H6.8a5.582,5.582,0,0,0,0,11.165H44.653a5.582,5.582,0,1,0-.008-11.165ZM23.372,31.559h4.7v3.493l-2.1-1.033a.556.556,0,0,0-.509,0l-2.1,1.033V31.559Zm-5.737.756a.757.757,0,0,1,.756-.756h3.824v4.426a.579.579,0,0,0,.833.524l2.676-1.326L28.4,36.5a.589.589,0,0,0,.254.062.618.618,0,0,0,.308-.085.582.582,0,0,0,.27-.493V31.559h3.824a.763.763,0,0,1,.763.756V44.96a.759.759,0,0,1-.763.756H18.4a.757.757,0,0,1-.756-.756V32.314Zm27.01,23.417H6.8a4.426,4.426,0,1,1,0-8.852H44.653a4.426,4.426,0,1,1-.008,8.852Z" transform="translate(421 1086.074)" fill="#1c54f8"></path><path id="Path_166" data-name="Path 166" d="M7.533,54.51a2.313,2.313,0,1,0,2.313,2.313A2.315,2.315,0,0,0,7.533,54.51Zm0,3.47A1.157,1.157,0,1,1,8.69,56.823,1.155,1.155,0,0,1,7.533,57.98Z" transform="translate(420.084 1080.556)" fill="#1c54f8"></path><path id="Path_167" data-name="Path 167" d="M17.443,54.51a2.313,2.313,0,1,0,2.313,2.313A2.315,2.315,0,0,0,17.443,54.51Zm0,3.47A1.157,1.157,0,1,1,18.6,56.823,1.155,1.155,0,0,1,17.443,57.98Z" transform="translate(417.815 1080.556)" fill="#1c54f8"></path><path id="Path_168" data-name="Path 168" d="M27.353,54.51a2.313,2.313,0,1,0,2.313,2.313A2.315,2.315,0,0,0,27.353,54.51Zm0,3.47a1.157,1.157,0,1,1,1.157-1.157A1.155,1.155,0,0,1,27.353,57.98Z" transform="translate(415.546 1080.556)" fill="#1c54f8"></path><path id="Path_169" data-name="Path 169" d="M37.273,54.51a2.313,2.313,0,1,0,2.313,2.313A2.315,2.315,0,0,0,37.273,54.51Zm0,3.47a1.157,1.157,0,1,1,1.157-1.157A1.155,1.155,0,0,1,37.273,57.98Z" transform="translate(413.275 1080.556)" fill="#1c54f8"></path><path id="Path_170" data-name="Path 170" d="M47.183,54.51A2.313,2.313,0,1,0,49.5,56.823,2.315,2.315,0,0,0,47.183,54.51Zm0,3.47a1.157,1.157,0,1,1,1.157-1.157A1.155,1.155,0,0,1,47.183,57.98Z" transform="translate(411.006 1080.556)" fill="#1c54f8"></path><path id="Path_171" data-name="Path 171" d="M57.093,54.51a2.313,2.313,0,1,0,2.313,2.313A2.315,2.315,0,0,0,57.093,54.51Zm0,3.47a1.157,1.157,0,1,1,1.157-1.157A1.155,1.155,0,0,1,57.093,57.98Z" transform="translate(408.737 1080.556)" fill="#1c54f8"></path><path id="Path_172" data-name="Path 172" d="M12.568,22.558l2.221,7.973a.585.585,0,0,0,.555.424h1.673a.567.567,0,0,0,.424-.185.586.586,0,0,0,.154-.432L17.1,21.794a3.28,3.28,0,0,0,.594-1.488L23.4,18.587a.576.576,0,1,0-.332-1.1l-5.428,1.635a3.153,3.153,0,0,0-.47-1.079l4.966-2.969a.577.577,0,0,0,.2-.794.584.584,0,0,0-.794-.2L16.331,17.2a3.274,3.274,0,0,0-3.763,5.359Zm3.215,7.248-1.858-6.693a2.949,2.949,0,0,0,.524.054,3.254,3.254,0,0,0,1.542-.4l.409,7.04ZM14.449,17.762a2.12,2.12,0,1,1-2.12,2.12A2.124,2.124,0,0,1,14.449,17.762Z" transform="translate(418.72 1089.832)" fill="#1c54f8"></path><path id="Path_173" data-name="Path 173" d="M31.677,15.646a4.458,4.458,0,0,0,2.953-7.8V1.828a.582.582,0,0,0-.578-.578.589.589,0,0,0-.586.578V7.1a4.424,4.424,0,0,0-3.578,0V1.828a.578.578,0,1,0-1.157,0V7.842a4.458,4.458,0,0,0,2.945,7.8Zm0-7.764a3.3,3.3,0,1,1-3.308,3.3A3.31,3.31,0,0,1,31.677,7.881Z" transform="translate(415.047 1092.75)" fill="#1c54f8"></path><path id="Path_174" data-name="Path 174" d="M32.37,15.621a2.12,2.12,0,1,0-2.12-2.12A2.119,2.119,0,0,0,32.37,15.621Zm0-3.084a.964.964,0,1,1-.964.964A.964.964,0,0,1,32.37,12.537Z" transform="translate(414.354 1090.431)" fill="#1c54f8"></path><path id="Path_175" data-name="Path 175" d="M38.473,17.879a.577.577,0,0,0,.386.717l5.706,1.719a3.132,3.132,0,0,0,.594,1.488l-.493,8.543a.58.58,0,0,0,.578.617h1.673a.569.569,0,0,0,.555-.424l2.221-7.973a3.272,3.272,0,1,0-3.755-5.359l-5.212-3.123a.579.579,0,0,0-.594.995L45.1,18.049a3.308,3.308,0,0,0-.47,1.079L39.2,17.494A.575.575,0,0,0,38.473,17.879Zm8,11.928h-.617l.409-7.04a3.254,3.254,0,0,0,1.542.4,3.112,3.112,0,0,0,.532-.054Zm3.454-9.923a2.12,2.12,0,1,1-2.12-2.12A2.124,2.124,0,0,1,49.923,19.884Z" transform="translate(412.477 1089.83)" fill="#1c54f8"></path></g></g></svg> 