<?xml version="1.0" encoding="UTF-8"?> <svg xmlns="http://www.w3.org/2000/svg" xmlns:xlink="http://www.w3.org/1999/xlink" width="60" height="60" viewBox="0 0 60 60"><defs><clipPath id="clip-path"><rect id="Rectangle_2" data-name="Rectangle 2" width="60" height="60" transform="translate(67 75)" fill="#fff" stroke="#707070" stroke-width="1"></rect></clipPath></defs><g id="Mask_Group_1" data-name="Mask Group 1" transform="translate(-67 -75)" clip-path="url(#clip-path)"><path id="Path_1" data-name="Path 1" d="M32.108,37.932V29.359a.723.723,0,0,0-.722-.722H22.36a.723.723,0,0,0-.72.722v8.423H19.25V29.359a.722.722,0,0,0-.72-.722H9.5a.723.723,0,0,0-.722.722V37.85a6.593,6.593,0,0,0,.934,13.12l21,0a6.594,6.594,0,0,0,1.39-13.04Zm-6.253-7.939h2.035v2.482H25.856Zm-2.857,0h1.5v3.16a.678.678,0,0,0,.678.678h3.394a.678.678,0,0,0,.678-.678v-3.16h1.5v7.791l-.034,0H23V29.993Zm-10,0h2.035v2.482H13Zm-1.357,0v3.16a.678.678,0,0,0,.678.678h3.394a.678.678,0,0,0,.678-.678v-3.16h1.5v7.789H10.142V29.993Zm19.077,19.62-21.007,0a5.237,5.237,0,1,1,0-10.474h21a5.237,5.237,0,0,1,0,10.474ZM10.566,40.6a3.781,3.781,0,1,0,3.781,3.781A3.785,3.785,0,0,0,10.566,40.6Zm0,6.2a2.424,2.424,0,1,1,2.424-2.424A2.427,2.427,0,0,1,10.566,46.8Zm9.383-6.2a3.781,3.781,0,1,0,3.781,3.781A3.785,3.785,0,0,0,19.949,40.6Zm0,6.2a2.424,2.424,0,1,1,2.424-2.424A2.427,2.427,0,0,1,19.949,46.8Zm9.383-6.2a3.781,3.781,0,1,0,3.781,3.781A3.785,3.785,0,0,0,29.332,40.6Zm0,6.2a2.424,2.424,0,1,1,2.424-2.424A2.427,2.427,0,0,1,29.332,46.8ZM26.874,7.318a2.751,2.751,0,1,0,2.751,2.751A2.754,2.754,0,0,0,26.874,7.318Zm0,4.144a1.393,1.393,0,1,1,1.393-1.393A1.394,1.394,0,0,1,26.874,11.462ZM44.9,12.635a2.752,2.752,0,1,0-2.751-2.751A2.754,2.754,0,0,0,44.9,12.635Zm0-4.146a1.395,1.395,0,1,1-1.393,1.4A1.4,1.4,0,0,1,44.9,8.489Zm4.99,27.567h-.229L48.6,31.427a1.1,1.1,0,0,0-.71-.8l0-16.6a5.1,5.1,0,1,0-7.252-6.941H31.011a5.1,5.1,0,1,0-6.7,7.4v1.732a1.272,1.272,0,0,0-1.029,1.307v1.951l-1.742,1.233a.681.681,0,0,0-.251.768l1.887,5.666a.679.679,0,0,0,1.317-.128l.589-4.573,1.792-1.269,1.79,1.269.591,4.575a.679.679,0,0,0,.609.589c.022,0,.044,0,.066,0a.681.681,0,0,0,.644-.465l1.887-5.666a.681.681,0,0,0-.251-.768l-1.742-1.233V17.525a1.257,1.257,0,0,0-1.029-1.307V14.487a5.143,5.143,0,0,0,1.576-1.429h9.9a5.145,5.145,0,0,0,1.01.966l0,16.591a1.111,1.111,0,0,0-.738.806l-1.063,4.633h-.2c-.642,0-1.109.646-1.109,1.538V49.431c0,.892.467,1.538,1.109,1.538h9.98c.644,0,1.113-.646,1.113-1.538V37.592c0-.892-.467-1.538-1.113-1.538ZM31.011,21.526,30.219,23.9l-.249-1.929a.676.676,0,0,0-.281-.467l-2.424-1.72a.677.677,0,0,0-.786,0l-2.426,1.72a.676.676,0,0,0-.281.467L23.524,23.9l-.79-2.372,1.626-1.151a.679.679,0,0,0,.279-.65.068.068,0,0,1,0-.02V17.564H29.1V19.7a.075.075,0,0,1,0,.02.681.681,0,0,0,.279.65l1.626,1.151Zm-2.933-5.319H25.672V15.032a5.105,5.105,0,0,0,1.2.144,5.186,5.186,0,0,0,1.2-.144Zm-1.2-2.388a3.751,3.751,0,1,1,3.749-3.751,3.754,3.754,0,0,1-3.749,3.751ZM31.714,11.7a5.067,5.067,0,0,0,.267-1.63,5.132,5.132,0,0,0-.267-1.63h8.3a5.094,5.094,0,0,0,.124,3.258H31.714Zm9.445-1.814a3.75,3.75,0,1,1,3.749,3.749A3.754,3.754,0,0,1,41.158,9.884Zm3.749,5.105a5.132,5.132,0,0,0,1.63-.267V30.562H43.279L43.273,14.72a5.067,5.067,0,0,0,1.63.267ZM42.461,31.919h4.862l.952,4.138H41.512Zm7.19,17.515a.93.93,0,0,1-.018.182H40.181a.944.944,0,0,1-.016-.182V37.595a1.137,1.137,0,0,1,.016-.182h9.453a.93.93,0,0,1,.018.182ZM4.333,16.185l1.147.261a7.062,7.062,0,0,0,.367.884l-.626,1a1.418,1.418,0,0,0,.094,1.808l.992.992a1.417,1.417,0,0,0,1.806.094l1-.628a7.4,7.4,0,0,0,.882.367L10.25,22.1A1.4,1.4,0,0,0,11.6,23.314H13A1.415,1.415,0,0,0,14.342,22.1l.261-1.145a7.087,7.087,0,0,0,.882-.367l1,.63a1.413,1.413,0,0,0,1.806-.1l.994-.994a1.412,1.412,0,0,0,.092-1.808l-.628-.994a7.084,7.084,0,0,0,.367-.882l1.143-.261a1.415,1.415,0,0,0,1.215-1.347v-1.4a1.405,1.405,0,0,0-1.213-1.347l-1.145-.259a6.843,6.843,0,0,0-.367-.882l.628-1a1.414,1.414,0,0,0-.1-1.8l-.992-.992a1.4,1.4,0,0,0-1.808-.094l-.994.626a7.24,7.24,0,0,0-.884-.367L14.342,6.18A1.415,1.415,0,0,0,13,4.967h-1.4A1.407,1.407,0,0,0,10.248,6.18L9.989,7.325a6.979,6.979,0,0,0-.884.365l-.994-.624A1.405,1.405,0,0,0,6.3,7.159l-.99.99a1.405,1.405,0,0,0-.1,1.808l.626,1a6.977,6.977,0,0,0-.365.884L4.327,12.1a1.4,1.4,0,0,0-1.209,1.345v1.4a1.417,1.417,0,0,0,1.211,1.347Zm.146-2.709a.478.478,0,0,1,.156-.06l1.53-.347a.678.678,0,0,0,.5-.483,5.683,5.683,0,0,1,.551-1.329.685.685,0,0,0-.014-.7L6.368,9.226A.46.46,0,0,1,6.3,9.078l.94-.94a.565.565,0,0,1,.15.068l1.331.836a.675.675,0,0,0,.7.014,5.7,5.7,0,0,1,1.329-.551.678.678,0,0,0,.483-.5l.345-1.526a.482.482,0,0,1,.062-.16h1.327a.506.506,0,0,1,.06.156L13.375,8a.681.681,0,0,0,.483.5,5.654,5.654,0,0,1,1.329.551.676.676,0,0,0,.7-.016L17.209,8.2a.46.46,0,0,1,.152-.068l.938.938a.489.489,0,0,1-.066.152l-.838,1.331a.68.68,0,0,0-.016.7,5.914,5.914,0,0,1,.555,1.331.682.682,0,0,0,.5.481l1.524.345a.524.524,0,0,1,.158.06V14.8a.514.514,0,0,1-.158.058l-1.528.349a.676.676,0,0,0-.5.481,5.848,5.848,0,0,1-.555,1.333.68.68,0,0,0,.016.7l.836,1.323a.568.568,0,0,1,.07.158l-.936.936a.514.514,0,0,1-.154-.066l-1.327-.838a.68.68,0,0,0-.7-.016,5.846,5.846,0,0,1-1.333.555.683.683,0,0,0-.481.5l-.349,1.53a.523.523,0,0,1-.058.154H11.637a.529.529,0,0,1-.06-.156l-.347-1.528a.682.682,0,0,0-.481-.5,5.738,5.738,0,0,1-1.331-.555.68.68,0,0,0-.7.016l-1.329.838a.509.509,0,0,1-.152.068L6.3,19.2a.509.509,0,0,1,.068-.152l.836-1.327a.676.676,0,0,0,.016-.7,5.651,5.651,0,0,1-.551-1.329.678.678,0,0,0-.5-.483L4.634,14.86a.478.478,0,0,1-.156-.06V13.474ZM12.3,18.449a4.311,4.311,0,1,0-4.311-4.311A4.317,4.317,0,0,0,12.3,18.449Zm0-7.264a2.953,2.953,0,1,1-2.953,2.953A2.956,2.956,0,0,1,12.3,11.185Z" transform="translate(69.938 77.126)" fill="#1c54f8"></path></g></svg> 