<?xml version="1.0" encoding="UTF-8"?> <svg xmlns="http://www.w3.org/2000/svg" xmlns:xlink="http://www.w3.org/1999/xlink" width="60" height="60" viewBox="0 0 60 60"><defs><clipPath id="clip-path"><rect id="Rectangle_74" data-name="Rectangle 74" width="60" height="60" transform="translate(65 426)" fill="#fff" stroke="#707070" stroke-width="1"></rect></clipPath></defs><g id="Mask_Group_49" data-name="Mask Group 49" transform="translate(-65 -426)" clip-path="url(#clip-path)"><g id="Group_65" data-name="Group 65" transform="translate(-104.714 39.011)"><path id="Path_168" data-name="Path 168" d="M37.319,49.27H9.564A3.237,3.237,0,0,0,6.33,52.5h0a2.963,2.963,0,0,0,.064.635,3.236,3.236,0,0,0,3.169,2.592H37.312a3.241,3.241,0,0,0,3.169-2.592,2.963,2.963,0,0,0,.064-.635h0A3.227,3.227,0,0,0,37.319,49.27Zm2.258,3.683a2.242,2.242,0,1,1,.045-.449A2.092,2.092,0,0,1,39.577,52.953ZM7.26,52.5a2.229,2.229,0,1,1,.045.449A2.092,2.092,0,0,1,7.26,52.5Zm5.4,0a3.168,3.168,0,0,0-1.014-2.31h5a3.131,3.131,0,0,0,0,4.613h-5A3.148,3.148,0,0,0,12.656,52.5Zm8.373,0a2.236,2.236,0,1,1-2.239-2.239A2.24,2.24,0,0,1,21.029,52.5Zm.924,0a3.168,3.168,0,0,0-1.014-2.31h5a3.131,3.131,0,0,0,0,4.613h-5A3.13,3.13,0,0,0,21.953,52.5Zm8.373,0a2.236,2.236,0,1,1-2.239-2.239A2.24,2.24,0,0,1,30.326,52.5Zm.93,0a3.168,3.168,0,0,0-1.014-2.31h5a3.131,3.131,0,0,0,0,4.613h-5A3.173,3.173,0,0,0,31.256,52.5Z" transform="translate(176.276 378.154)" fill="#1c54f9"></path><path id="Path_169" data-name="Path 169" d="M17.373,40.668h4.992a.786.786,0,0,0,.783-.783V38.243a.786.786,0,0,0-.783-.783H17.373a.786.786,0,0,0-.783.783v1.642A.786.786,0,0,0,17.373,40.668Zm.141-2.284h4.709v1.36H17.514Z" transform="translate(172.599 382.387)" fill="#1c54f9"></path><path id="Path_170" data-name="Path 170" d="M39.964,18.352V5.154a3.308,3.308,0,0,0-3.3-3.3H27.293a2.926,2.926,0,0,0-2.085.866,2.963,2.963,0,0,0-.821,1.623H20.2a1.7,1.7,0,1,0-2.1,2.092V7.676L15.147,9.908a.458.458,0,0,0-.167.494l.757,2.714a.463.463,0,1,0,.892-.25l-.674-2.412,2.6-1.97,2.611,1.97L20.5,12.866a.466.466,0,0,0,.321.571.4.4,0,0,0,.122.019.466.466,0,0,0,.449-.34l.757-2.714a.458.458,0,0,0-.167-.494L19.023,7.676V6.431A1.694,1.694,0,0,0,20.2,5.263h4.19a2.951,2.951,0,0,0,2.9,2.489h6.057V18.358a5.253,5.253,0,0,0-1.95,4.081v6.75H26.632a1.391,1.391,0,0,0,.186-.687V16.825a1.4,1.4,0,0,0-1.4-1.4H10.432a1.4,1.4,0,0,0-1.405,1.4V28.5a1.391,1.391,0,0,0,.186.687H7.84a6.32,6.32,0,1,0,0,12.639H35.589a6.328,6.328,0,0,0,6.294-5.8c.013-.045.026-13.589.026-13.589A5.23,5.23,0,0,0,39.964,18.352Zm-20.723-2v1.976l-.808-.725a.776.776,0,0,0-1-.026l-1.02.821v-2.04h2.829Zm-9.29.475a.474.474,0,0,1,.475-.475h5.056v2.361a.774.774,0,0,0,.436.7.79.79,0,0,0,.334.077.752.752,0,0,0,.481-.173l1.168-.937.969.866a.758.758,0,0,0,.828.128.766.766,0,0,0,.456-.706V16.35h5.261a.474.474,0,0,1,.475.475V28.5a.474.474,0,0,1-.475.475H10.432a.474.474,0,0,1-.475-.475V16.825Zm8.61-11.247a.78.78,0,0,1,0-1.559.78.78,0,1,1,0,1.559Zm8.732,1.245a2.023,2.023,0,0,1-1.437-3.452,2,2,0,0,1,1.431-.59H34.37a3.283,3.283,0,0,0-1.02,2.374V6.822ZM34.28,5.154a2.38,2.38,0,1,1,4.761,0v12.6a5.182,5.182,0,0,0-4.754,0V5.154Zm-1.95,17.278a4.328,4.328,0,1,1,8.655,0v9.8a6.314,6.314,0,0,0-5.4-3.041H32.323V22.432ZM35.595,40.9H7.84a5.4,5.4,0,1,1,0-10.792H35.589a5.4,5.4,0,0,1,5.4,5.4h0A5.4,5.4,0,0,1,35.595,40.9Z" transform="translate(178 395.15)" fill="#1c54f9"></path><path id="Path_171" data-name="Path 171" d="M57.251,32.019a2.165,2.165,0,1,0-2.162,2.169A2.165,2.165,0,0,0,57.251,32.019Zm-3.413,0a1.241,1.241,0,1,1,1.245,1.245A1.246,1.246,0,0,1,53.837,32.019Z" transform="translate(159.578 385.115)" fill="#1c54f9"></path><path id="Path_172" data-name="Path 172" d="M57.009,6.242a1.639,1.639,0,1,0-1.636,1.642A1.64,1.64,0,0,0,57.009,6.242Zm-2.355,0a.712.712,0,1,1,.712.712A.707.707,0,0,1,54.654,6.242Z" transform="translate(159.288 394.164)" fill="#1c54f9"></path></g></g></svg> 