<?xml version="1.0" encoding="UTF-8"?> <svg xmlns="http://www.w3.org/2000/svg" width="91" height="91" viewBox="0 0 91 91" fill="none"><mask id="mask0_1_42" style="mask-type:luminance" maskUnits="userSpaceOnUse" x="0" y="0" width="91" height="91"><path d="M90.8 0.200012H0.799988V90.2H90.8V0.200012Z" fill="white"></path></mask><g mask="url(#mask0_1_42)"><path d="M88.5 39.7H79V17.1C79 16.7 78.8 16.3 78.5 16.1C78.2 15.9 77.8 15.8 77.4 15.9L61.1 20.3V17.1C61.1 16.7 60.9 16.3 60.6 16.1C60.3 15.9 59.9 15.8 59.5 15.9L43.2 20.3V17.1C43.2 16.7 43 16.3 42.7 16.1C42.4 15.9 42 15.8 41.6 15.9L25.3 20.3V3.70001C25.3 2.30001 24.2 1.20001 22.8 1.20001H14.8C13.4 1.20001 12.3 2.30001 12.3 3.70001V39.7H2.29999C1.59999 39.7 1 40.3 1 41V46C1 46.7 1.59999 47.3 2.29999 47.3H14.6V55C12.7 55.5 11.3 57.3 11.3 59.4C11.3 60.2 11.5 60.9 11.9 61.6L9.09998 64.1C8.59998 64.5 8.39999 65.1 8.29999 65.8C8.19999 66.5 8.40001 67.1 8.70001 67.6L11.4 71.8C11.6 72.2 12 72.4 12.5 72.4C12.7 72.4 13 72.3 13.2 72.2C13.8 71.8 14 71.1 13.6 70.5L10.9 66.3C10.9 66.3 10.9 66.2 10.9 66.1V66L13.8 63.4C14.5 63.8 15.2 64 16 64C16.8 64 17.6 63.8 18.2 63.4L21.1 66C21.1 66 21.1 66 21.1 66.1C21.1 66.2 21.1 66.3 21.1 66.3L18.4 70.5C18 71.1 18.2 71.9 18.8 72.2C19 72.3 19.2 72.4 19.5 72.4C19.9 72.4 20.3 72.2 20.6 71.8L23.3 67.6C23.6 67.1 23.8 66.5 23.7 65.8C23.6 65.1 23.4 64.5 22.9 64.1L20.1 61.6C20.5 60.9 20.7 60.2 20.7 59.4C20.7 57.3 19.3 55.6 17.4 55V47.3H44.5V55C42.6 55.5 41.2 57.3 41.2 59.4C41.2 60.2 41.4 60.9 41.8 61.6L39 64C38.5 64.4 38.3 65 38.2 65.7C38.1 66.4 38.3 67 38.6 67.5L41.3 71.7C41.5 72.1 41.9 72.3 42.4 72.3C42.6 72.3 42.9 72.2 43.1 72.1C43.7 71.7 43.9 71 43.5 70.4L40.8 66.2C40.8 66.2 40.8 66.1 40.8 66V65.9L43.7 63.3C44.4 63.7 45.1 63.9 45.9 63.9C46.7 63.9 47.5 63.7 48.1 63.3L51 65.9C51 65.9 51 65.9 51 66C51 66.1 51 66.2 51 66.2L48.3 70.4C47.9 71 48.1 71.8 48.7 72.1C48.9 72.2 49.1 72.3 49.4 72.3C49.8 72.3 50.2 72.1 50.5 71.7L53.2 67.5C53.5 67 53.7 66.4 53.6 65.7C53.5 65 53.3 64.4 52.8 64L50 61.5C50.4 60.8 50.6 60.1 50.6 59.3C50.6 57.2 49.2 55.5 47.3 54.9V47.2H74.4V54.9C72.5 55.4 71.1 57.2 71.1 59.3C71.1 60.1 71.3 60.8 71.7 61.5L68.9 64C68.4 64.4 68.2 65 68.1 65.7C68 66.4 68.2 67 68.5 67.5L71.2 71.7C71.4 72.1 71.8 72.3 72.3 72.3C72.5 72.3 72.8 72.2 73 72.1C73.6 71.7 73.8 71 73.4 70.4L70.7 66.2C70.7 66.2 70.7 66.1 70.7 66V65.9L73.6 63.3C74.3 63.7 75 63.9 75.8 63.9C76.6 63.9 77.4 63.7 78 63.3L80.9 65.9C80.9 65.9 80.9 65.9 80.9 66C80.9 66.1 80.9 66.2 80.9 66.2L78.2 70.4C77.8 71 78 71.8 78.6 72.1C78.8 72.2 79 72.3 79.3 72.3C79.7 72.3 80.1 72.1 80.4 71.7L83.1 67.5C83.4 67 83.6 66.4 83.5 65.7C83.4 65 83.2 64.4 82.7 64L79.9 61.5C80.3 60.8 80.5 60.1 80.5 59.3C80.5 57.2 79.1 55.5 77.2 54.9V47.2H89C89.7 47.2 90.3 46.6 90.3 45.9V40.9C89.8 40.2 89.2 39.7 88.5 39.7ZM18.2 59.3C18.2 60.4 17.3 61.4 16.1 61.4C15 61.4 14 60.5 14 59.3C14 58.1 14.9 57.2 16.1 57.2C17.3 57.2 18.2 58.1 18.2 59.3ZM47.9 59.3C47.9 60.4 47 61.4 45.8 61.4C44.7 61.4 43.7 60.5 43.7 59.3C43.7 58.1 44.6 57.2 45.8 57.2C47 57.2 47.9 58.1 47.9 59.3ZM77.5 59.3C77.5 60.4 76.6 61.4 75.4 61.4C74.3 61.4 73.3 60.5 73.3 59.3C73.3 58.1 74.2 57.2 75.4 57.2C76.6 57.2 77.5 58.1 77.5 59.3ZM40.9 18.7V21.9C40.9 22.3 41.1 22.7 41.4 22.9C41.7 23.1 42.1 23.2 42.5 23.1L58.8 18.7V21.9C58.8 22.3 59 22.7 59.3 22.9C59.6 23.1 60 23.2 60.4 23.1L76.7 18.7V39.7H25.6V22.9L40.9 18.7ZM23 3.79999V8.79999H15.1V3.79999H23ZM15.1 11.2H23V39.6H15.1V11.2ZM87.3 44.7H3.79999V42.2H87.3V44.7ZM51.5 76H40.2C39.5 76 38.9 76.6 38.9 77.3V88.6C38.9 89.3 39.5 89.9 40.2 89.9H51.5C52.2 89.9 52.8 89.3 52.8 88.6V77.3C52.7 76.5 52.1 76 51.5 76ZM50.2 87.2H41.4V78.4H44.5V80.9C44.5 81.6 45.1 82.2 45.8 82.2C46.5 82.2 47.1 81.6 47.1 80.9V78.4H50.2V87.2ZM21.8 76H10.5C9.8 76 9.20001 76.6 9.20001 77.3V88.6C9.20001 89.3 9.8 89.9 10.5 89.9H21.8C22.5 89.9 23.1 89.3 23.1 88.6V77.3C23.1 76.5 22.5 76 21.8 76ZM20.5 87.2H11.7V78.4H14.8V80.9C14.8 81.6 15.4 82.2 16.1 82.2C16.8 82.2 17.4 81.6 17.4 80.9V78.4H20.5V87.2ZM81.1 76H69.8C69.1 76 68.5 76.6 68.5 77.3V88.6C68.5 89.3 69.1 89.9 69.8 89.9H81.1C81.8 89.9 82.4 89.3 82.4 88.6V77.3C82.4 76.5 81.8 76 81.1 76ZM79.9 87.2H71.1V78.4H74.2V80.9C74.2 81.6 74.8 82.2 75.5 82.2C76.2 82.2 76.8 81.6 76.8 80.9V78.4H79.9V87.2ZM27.5 29.2V26C27.5 25.8 27.6 25.7 27.8 25.7H31C31.2 25.7 31.3 25.8 31.3 26V29.2C31.3 29.4 31.2 29.5 31 29.5H27.8C27.6 29.5 27.5 29.3 27.5 29.2ZM35.1 29.2V26C35.1 25.8 35.2 25.7 35.4 25.7H38.6C38.8 25.7 38.9 25.8 38.9 26V29.2C38.9 29.4 38.8 29.5 38.6 29.5H35.4C35.3 29.5 35.1 29.3 35.1 29.2ZM45.3 29.2V26C45.3 25.8 45.4 25.7 45.6 25.7H48.8C49 25.7 49.1 25.8 49.1 26V29.2C49.1 29.4 49 29.5 48.8 29.5H45.6C45.5 29.5 45.3 29.3 45.3 29.2ZM53 29.2V26C53 25.8 53.1 25.7 53.3 25.7H56.5C56.7 25.7 56.8 25.8 56.8 26V29.2C56.8 29.4 56.7 29.5 56.5 29.5H53.3C53.1 29.5 53 29.3 53 29.2ZM70.9 29.2V26C70.9 25.8 71 25.7 71.2 25.7H74.4C74.6 25.7 74.7 25.8 74.7 26V29.2C74.7 29.4 74.6 29.5 74.4 29.5H71.2C71 29.5 70.9 29.3 70.9 29.2ZM63.2 29.2V26C63.2 25.8 63.3 25.7 63.5 25.7H66.7C66.9 25.7 67 25.8 67 26V29.2C67 29.4 66.9 29.5 66.7 29.5H63.5C63.3 29.5 63.2 29.3 63.2 29.2Z" fill="#1B54F8"></path></g></svg> 