<?xml version="1.0" encoding="UTF-8"?> <svg xmlns="http://www.w3.org/2000/svg" id="Layer_1" data-name="Layer 1" viewBox="0 0 80 80"><defs><style>.cls-1{fill:none;}.cls-2{fill:#1b54f8;stroke:#1b54f8;stroke-width:0.15px;}</style></defs><rect id="Rectangle" class="cls-1" x="1" y="1" width="78" height="78"></rect><path id="Shape" class="cls-2" d="M27.86,28.53a13.21,13.21,0,0,0-.95,26.38h1a13.08,13.08,0,0,0,9-3.51,13.2,13.2,0,0,0-9-22.87Zm0,24.18a11,11,0,0,1-10.21-15,11,11,0,0,1,9.5-6.92h.72a11,11,0,0,1,0,21.94Z"></path><path id="Shape-2" data-name="Shape" class="cls-2" d="M50.39,36H48.66a21.33,21.33,0,0,0-2-4.86l1.16-1.18a2.83,2.83,0,0,0,.78-1.51A2.77,2.77,0,0,0,47.8,26l-4.24-4.24a2.77,2.77,0,0,0-3.9,0L38.43,23a21.37,21.37,0,0,0-4.87-2V19.21a2.76,2.76,0,0,0-2.76-2.77H24.86a2.76,2.76,0,0,0-2.76,2.77v1.73a21.56,21.56,0,0,0-4.87,2L16,21.72a2.77,2.77,0,0,0-3.9,0L7.91,25.9a2.94,2.94,0,0,0-.78,1.5,2.76,2.76,0,0,0,.78,2.48l1.23,1.23a21.3,21.3,0,0,0-2,4.86H5.33a2.77,2.77,0,0,0-2.77,2.77v6a2.74,2.74,0,0,0,.81,2,2.77,2.77,0,0,0,2,.82H7.07a21.48,21.48,0,0,0,2,4.86L7.85,53.59a2.79,2.79,0,0,0,0,3.9l4.24,4.23a2.85,2.85,0,0,0,3.9,0l1.23-1.23a21.3,21.3,0,0,0,4.86,2v1.74A2.77,2.77,0,0,0,24.84,67h6a2.76,2.76,0,0,0,2.76-2.77V62.53a21.4,21.4,0,0,0,4.87-2l1.23,1.24a2.87,2.87,0,0,0,3.9,0l4.23-4.24a2.77,2.77,0,0,0,0-3.9L46.6,52.39a21.59,21.59,0,0,0,2-4.87h1.73a2.77,2.77,0,0,0,2.77-2.76v-6A2.77,2.77,0,0,0,50.39,36Zm.53,8.76a.54.54,0,0,1-.55.54H46.9l-.2.86A19.17,19.17,0,0,1,44.29,52l-.46.78,2.46,2.46a.57.57,0,0,1,.16.39.54.54,0,0,1-.16.39l-4.23,4.22a.53.53,0,0,1-.78,0L38.83,57.7l-.78.47a19.17,19.17,0,0,1-5.82,2.41l-.86.2v3.49a.54.54,0,0,1-.54.54h-6a.54.54,0,0,1-.54-.54V60.78l-.86-.2a19.12,19.12,0,0,1-5.81-2.41l-.78-.47L14.4,60.16a.54.54,0,0,1-.78,0L9.39,55.94a.56.56,0,0,1,0-.78l2.53-2.46-.47-.78A19.17,19.17,0,0,1,9,46.1l-.24-.83H5.33a.54.54,0,0,1-.54-.54v-6A.55.55,0,0,1,5,38.35a.54.54,0,0,1,.39-.15H8.8l.2-.88a19.68,19.68,0,0,1,2.41-5.8l.47-.78L9.43,28.3a.56.56,0,0,1,0-.78l4.23-4.24a.56.56,0,0,1,.78,0l2.46,2.47.78-.47a19.51,19.51,0,0,1,5.82-2.4l.86-.2V19.21a.54.54,0,0,1,.54-.54h6a.54.54,0,0,1,.54.54v3.48l.85.2a19.17,19.17,0,0,1,5.82,2.41l.78.46,2.47-2.46a.52.52,0,0,1,.37-.16.62.62,0,0,1,.39.16l4.17,4.22a.54.54,0,0,1,0,.78l-2.46,2.46.46.78a18.92,18.92,0,0,1,2.41,5.82l.2.86h3.49a.59.59,0,0,1,.39.16.55.55,0,0,1,.16.38Z"></path><path id="Shape-3" data-name="Shape" class="cls-2" d="M60.83,19.84a7.57,7.57,0,0,0-4.22,4.25,7.41,7.41,0,0,0,.22,6,7.5,7.5,0,1,0,4-10.23Zm8,9.24a5.71,5.71,0,0,1-3.12,3.06A5.78,5.78,0,0,1,61.18,32a5.64,5.64,0,0,1-3-3.43,5.75,5.75,0,0,1,5.46-7.52,5.87,5.87,0,0,1,2.11.41A5.73,5.73,0,0,1,69,24.69a5.67,5.67,0,0,1-.1,4.39Z"></path><path id="Shape-4" data-name="Shape" class="cls-2" d="M76.27,28.57l-.69-.27a12,12,0,0,0,0-2.54l.71-.28a1.79,1.79,0,0,0,1-2.34l-1.21-3.05a1.78,1.78,0,0,0-2.33-1l-.7.28a11.79,11.79,0,0,0-1.77-1.83l.28-.65a1.84,1.84,0,0,0,.18-1.08,1.78,1.78,0,0,0-1-1.28l-3-1.3a1.8,1.8,0,0,0-2.34.93l-.29.69a11.45,11.45,0,0,0-2.55,0l-.27-.7a1.78,1.78,0,0,0-2.34-1l-3,1.21a1.74,1.74,0,0,0-1,.95,1.81,1.81,0,0,0,0,1.37l.28.69a11.79,11.79,0,0,0-1.83,1.77l-.69-.29a1.69,1.69,0,0,0-1.36,0,1.75,1.75,0,0,0-1,.9l-1.28,3a1.85,1.85,0,0,0-.13,1.09,1.74,1.74,0,0,0,1.05,1.3l.69.3a11.35,11.35,0,0,0,0,2.54l-.71.27a1.82,1.82,0,0,0-1,2.34l1.21,3.05a1.74,1.74,0,0,0,2.3,1l.7-.28a11.41,11.41,0,0,0,1.77,1.84l-.3.69a1.81,1.81,0,0,0,0,1.37,1.74,1.74,0,0,0,1,1l3,1.3a1.81,1.81,0,0,0,2.34-.93l.3-.69a12.68,12.68,0,0,0,2.54,0l.27.7a1.79,1.79,0,0,0,1.66,1.12,2,2,0,0,0,.69-.12l3-1.21a1.84,1.84,0,0,0,1-1,1.81,1.81,0,0,0,0-1.37l-.27-.7a12.4,12.4,0,0,0,1.79-1.76l.69.3a1.82,1.82,0,0,0,2.34-.93l1.3-3a1.79,1.79,0,0,0-.93-2.34Zm-2,4.68-2-.84-.41.55a10.29,10.29,0,0,1-2.41,2.34l-.57.4.78,2-3,1.2-.78-2-.69.1a10.24,10.24,0,0,1-3.36,0l-.79-.09-.83,1.94-3.07-1.3.83-2-.55-.41a10.29,10.29,0,0,1-2.34-2.41l-.4-.57-2,.78h0l-1.24-3.1a0,0,0,0,1,0,0l2-.78-.1-.7a10.46,10.46,0,0,1,0-3.35l.13-.68-1.92-.85,1.29-3H53l1.94.84.41-.56a10.29,10.29,0,0,1,2.41-2.34l.57-.4-.78-2v0l3-1.21.78,2,.69-.11a10.52,10.52,0,0,1,3.36.05l.69.13.84-1.95h0l3,1.3v.05h0l-.74,1.88.56.41a10.1,10.1,0,0,1,2.34,2.41l.4.57,2-.78,1.21,3.05-2,.78.1.68a10.3,10.3,0,0,1,0,3.37l-.13.68,1.94.85v0h0Z"></path></svg> 