<?xml version="1.0" encoding="UTF-8"?> <svg xmlns="http://www.w3.org/2000/svg" xmlns:xlink="http://www.w3.org/1999/xlink" width="90" height="90" viewBox="0 0 90 90"><defs><clipPath id="clip-path"><rect id="Rectangle_31" data-name="Rectangle 31" width="90" height="90" transform="translate(1278 702)" fill="#fff" stroke="#707070" stroke-width="1"></rect></clipPath></defs><g id="Mask_Group_5" data-name="Mask Group 5" transform="translate(-1278 -702)" clip-path="url(#clip-path)"><g id="Customer-Relationship-Management" transform="translate(1284 708)"><g id="Group"><path id="Shape" d="M84.811,10.542h-7.1a1.15,1.15,0,0,0-1.224,1.224v.857c-7.343-1.958-7.955-2.937-8.322-3.06-.734-.367-7.832-3.671-11.5-.857L49.2,14.825l-1.591-.49v-2.57a1.15,1.15,0,0,0-1.224-1.224h-7.22a1.15,1.15,0,0,0-1.224,1.224v8.567H21.418a1.15,1.15,0,0,0-1.224,1.224V62.064H9.424A1.15,1.15,0,0,0,8.2,63.288V79.809a7.159,7.159,0,0,0,7.22,7.22H64.5a7.233,7.233,0,0,0,7.22-7.22V35.752h0c2.325.734,4.406-.367,4.528-3.794A1.775,1.775,0,0,0,76,31.1h.49v3.549a1.15,1.15,0,0,0,1.224,1.224h7.22a1.15,1.15,0,0,0,1.224-1.224V11.765a1.334,1.334,0,0,0-1.346-1.224ZM40.387,12.989h4.773V33.427H40.387ZM10.648,79.809v-15.3h9.546v15.3a4.773,4.773,0,1,1-9.546,0ZM64.5,84.582H20.806a7.147,7.147,0,0,0,1.836-4.65V22.78h15.3V34.651a1.15,1.15,0,0,0,1.224,1.224h7.22a1.15,1.15,0,0,0,1.224-1.224V31.714a2.2,2.2,0,0,1,1.1.734l.122.122c1.346,1.1,7.832,6.364,9.913,7.22a4.345,4.345,0,0,0,1.958.49,3.255,3.255,0,0,0,1.469-.367,2.2,2.2,0,0,0,.979-1.1,3.439,3.439,0,0,0,2.692.122,2.851,2.851,0,0,0,1.346-1.346,4.479,4.479,0,0,0,2.2.49V79.932A4.9,4.9,0,0,1,64.5,84.582Zm8.811-51.155c-.367.245-1.224-.122-1.836-.49l-1.958-2.815a1.239,1.239,0,1,0-2.08,1.346l1.958,2.937c-.122.857-.245,1.1-.367,1.1a7.008,7.008,0,0,1-1.958-.857h0l-2.08-2.937A1.239,1.239,0,0,0,62.9,33.06l1.958,2.815c-.122.367-.245.612-.367.612a2.668,2.668,0,0,1-1.713-.612L60.7,32.937a1.239,1.239,0,1,0-2.08,1.346L60.579,37.1a.71.71,0,0,1-.122.49c-.122.122-.612,0-.979-.245a.122.122,0,0,1-.122-.122c-1.1-.367-6.119-4.161-9.179-6.731A6.609,6.609,0,0,0,47.362,28.9v-9.79a8.358,8.358,0,0,0,1.836,2.08c5.507,3.427,11.626-2.448,11.993-2.692.122-.122.245-.245.367-.245L73.552,32.2a1.371,1.371,0,0,1-.245,1.224Zm.979-4.283L63.394,16.416l-.367-.367a3.047,3.047,0,0,0-3.3.734s-5.018,4.773-8.811,2.448c-.612-.49-1.224-1.224-1.224-1.713,0-.245.367-.367.49-.49l.122-.122h.122l7.71-6.364c2.08-1.591,7.1.245,8.811,1.1,1.836,1.469,7.1,2.815,9.546,3.427V28.532A3.549,3.549,0,0,0,74.286,29.144Zm9.3,4.283h-4.65V12.989h4.773V33.427Z" transform="translate(-8.198 -7.58)" fill="#1b54f8"></path><path id="Path" d="M33.724,39.115a1.224,1.224,0,1,0,0,2.448H59.3a1.15,1.15,0,0,0,1.224-1.224C60.525,38.014,57.955,39.6,33.724,39.115Z" transform="translate(-2.759 -0.541)" fill="#1b54f8"></path><path id="Path-2" data-name="Path" d="M59.3,50.3H33.724a1.224,1.224,0,0,0,0,2.448H59.3a1.224,1.224,0,1,0,0-2.448Z" transform="translate(-2.759 1.981)" fill="#1b54f8"></path><path id="Path-3" data-name="Path" d="M59.3,61.6H33.724a1.224,1.224,0,1,0,0,2.448H59.3a1.224,1.224,0,1,0,0-2.448Z" transform="translate(-2.759 4.51)" fill="#1b54f8"></path><path id="Path-4" data-name="Path" d="M30.567,36.948l-5.14,5.14L24.2,40.864a1.224,1.224,0,1,0-1.713,1.713l2.2,2.2a1.224,1.224,0,0,0,1.713,0l6-6a1.224,1.224,0,0,0,0-1.713,1.481,1.481,0,0,0-1.836-.122Z" transform="translate(-5.109 -1.066)" fill="#1b54f8"></path><path id="Path-5" data-name="Path" d="M30.567,48.265l-5.14,5.14L24.2,52.182a1.224,1.224,0,1,0-1.713,1.713l2.2,2.2a1.224,1.224,0,0,0,1.713,0l6-6a1.3,1.3,0,0,0-1.836-1.836Z" transform="translate(-5.109 1.446)" fill="#1b54f8"></path><path id="Path-6" data-name="Path" d="M30.522,59.565l-5.14,5.14-1.224-1.224a1.224,1.224,0,0,0-1.713,1.713l2.2,2.2a1.224,1.224,0,0,0,1.713,0l6-6a1.3,1.3,0,0,0-1.836-1.836Z" transform="translate(-5.064 3.975)" fill="#1b54f8"></path></g></g></g></svg> 