<?xml version="1.0" encoding="UTF-8"?> <svg xmlns="http://www.w3.org/2000/svg" xmlns:xlink="http://www.w3.org/1999/xlink" width="60" height="60" viewBox="0 0 60 60"><defs><clipPath id="clip-path"><rect id="Rectangle_4" data-name="Rectangle 4" width="60" height="60" transform="translate(640 75)" fill="#fff" stroke="#707070" stroke-width="1"></rect></clipPath></defs><g id="Mask_Group_4" data-name="Mask Group 4" transform="translate(-640 -75)" clip-path="url(#clip-path)"><path id="Path_15" data-name="Path 15" d="M15.956,44.376a3.093,3.093,0,1,0,.912,2.194A3.095,3.095,0,0,0,15.956,44.376Zm28.22,0a3.093,3.093,0,1,0,.912,2.194A3.095,3.095,0,0,0,44.176,44.376ZM16.568,16.182v7.9L19.144,22.6a.685.685,0,0,1,.706,0l2.576,1.483v-7.9Zm7.26,0h8.759V37.049H6.408V16.182h8.759V25.3a.705.705,0,0,0,1.057.608l3.277-1.9,3.24,1.87a.7.7,0,0,0,1.093-.582V16.182Zm14.566,9.79v8.683h11.47a4.394,4.394,0,0,0-.392-1.073L46.38,27.508a2.726,2.726,0,0,0-2.5-1.546ZM49.967,36.055v9.79H46.433a4.509,4.509,0,0,0-8.9,0H18.217a4.508,4.508,0,0,0-8.9,0H6.409V38.43H33.288a.7.7,0,0,0,.706-.7V25.971h2.993v9.383a.7.7,0,0,0,.7.7Zm1.407-.763V46.571a.7.7,0,0,1-.7.7H46.433a4.509,4.509,0,0,1-8.9,0H18.217a4.508,4.508,0,0,1-8.9,0H5.708a.7.7,0,0,1-.706-.7V15.482a.7.7,0,0,1,.7-.7H33.288a.7.7,0,0,1,.706.7v9.089h9.868a4.117,4.117,0,0,1,3.75,2.3l3.091,6.08a5.7,5.7,0,0,1,.67,2.345ZM39.523,38.446h1.546a.7.7,0,1,0,0-1.4H39.523a.7.7,0,0,0,0,1.4ZM9.246,35.272H14.5a.706.706,0,0,0,0-1.407H9.246a.706.706,0,0,0,0,1.407Zm0-3.24H14.5a.7.7,0,0,0,0-1.4H9.246a.7.7,0,0,0,0,1.4Z" transform="translate(641.998 72.219)" fill="#1c54f8" fill-rule="evenodd"></path></g></svg> 