<?xml version="1.0" encoding="UTF-8"?> <svg xmlns="http://www.w3.org/2000/svg" xmlns:xlink="http://www.w3.org/1999/xlink" width="60" height="60" viewBox="0 0 60 60"><defs><clipPath id="clip-path"><rect id="Rectangle_14" data-name="Rectangle 14" width="60" height="60" transform="translate(808.979 131.979)" fill="#fff" stroke="#707070" stroke-width="1"></rect></clipPath></defs><g id="Mask_Group_8" data-name="Mask Group 8" transform="translate(-808.979 -131.979)" clip-path="url(#clip-path)"><g id="Group_4" data-name="Group 4" transform="translate(814.246 141.743)"><path id="Path_23" data-name="Path 23" d="M17.907,39.856h-.262a13.252,13.252,0,1,1,13.209-10.9v.158a.772.772,0,0,0,.786.786.8.8,0,0,0,.786-.682,16.056,16.056,0,0,0,.262-2.778A15.041,15.041,0,1,0,17.647,41.479h.262a.772.772,0,0,0,.786-.786.857.857,0,0,0-.788-.837Z" transform="translate(-2.607 -11.398)" fill="#1c54f8"></path><path id="Path_24" data-name="Path 24" d="M25.091,26.239A2.758,2.758,0,0,0,20.9,28.6v9.329a2.778,2.778,0,0,0,1.415,2.412,2.539,2.539,0,0,0,1.363.366,2.78,2.78,0,0,0,1.415-.42l7.861-4.664a2.768,2.768,0,0,0,0-4.77Zm7.024,8.017-7.861,4.664a1.139,1.139,0,0,1-1.153,0,1.125,1.125,0,0,1-.577-.995V28.6A1.118,1.118,0,0,1,23.1,27.6a1.136,1.136,0,0,1,1.155,0l7.861,4.664a1.125,1.125,0,0,1,.577.995,1.253,1.253,0,0,1-.579.995Z" transform="translate(-11.312 -18.271)" fill="#1c54f8"></path><path id="Path_25" data-name="Path 25" d="M53.477,46.348a2.425,2.425,0,0,0-2.516.158l-6.917,4.768H39.431A2.817,2.817,0,0,0,36.6,54.1v6.342a2.817,2.817,0,0,0,2.829,2.829h4.612l6.971,4.77a2.6,2.6,0,0,0,1.363.42A3.057,3.057,0,0,0,53.53,68.2a2.475,2.475,0,0,0,1.31-2.15l0-17.557a2.522,2.522,0,0,0-1.361-2.148ZM38.225,60.392v-6.34a1.186,1.186,0,0,1,1.206-1.206h4.035v8.7H39.431a1.144,1.144,0,0,1-1.206-1.155ZM53.162,66a.974.974,0,0,1-.42.733.811.811,0,0,1-.839-.053l-6.813-4.664,0-9.538L51.9,47.816a.816.816,0,0,1,.839-.053.8.8,0,0,1,.42.733Z" transform="translate(-18.785 -27.898)" fill="#1c54f8"></path><path id="Path_26" data-name="Path 26" d="M76.763,59.924a.808.808,0,0,0-.42,1.048,6.719,6.719,0,0,1,0,5.45.79.79,0,0,0,.42,1.048.655.655,0,0,0,.315.053.788.788,0,0,0,.733-.471,8.284,8.284,0,0,0,0-6.813.8.8,0,0,0-1.048-.315Z" transform="translate(-37.671 -34.452)" fill="#1c54f8"></path><path id="Path_27" data-name="Path 27" d="M84.042,54.042a.8.8,0,0,0-1.363.839,11.3,11.3,0,0,1,0,11.845.829.829,0,0,0,.262,1.1.633.633,0,0,0,.42.1.9.9,0,0,0,.682-.366,12.787,12.787,0,0,0,1.888-6.76,12.192,12.192,0,0,0-1.888-6.764Z" transform="translate(-40.652 -31.506)" fill="#1c54f8"></path><path id="Path_28" data-name="Path 28" d="M90.178,47.877a.793.793,0,0,0-1.31.893,15.7,15.7,0,0,1,0,18.134.769.769,0,0,0,.209,1.1.848.848,0,0,0,1.153-.158,17.02,17.02,0,0,0,3.145-9.958,17.882,17.882,0,0,0-3.2-10.013Z" transform="translate(-43.59 -28.59)" fill="#1c54f8"></path></g></g></svg> 