<?xml version="1.0" encoding="UTF-8"?> <svg xmlns="http://www.w3.org/2000/svg" width="77" height="77" viewBox="0 0 77 77"><g id="Group_298" data-name="Group 298" transform="translate(-2633 -164)"><rect id="Rectangle_116" data-name="Rectangle 116" width="77" height="77" transform="translate(2633 164)" fill="#9b9b9b" opacity="0"></rect><g id="Group_294" data-name="Group 294" transform="translate(-290.764 163.279)"><path id="Path_298" data-name="Path 298" d="M82.162,246.137v-1.913c0-.019,0-.038,0-.057H78.108v-.76a1.014,1.014,0,0,0-.5-.876l-3.04-1.774a1.014,1.014,0,0,0-1.022,0l-3.04,1.774a1.014,1.014,0,0,0-.5.876v3.547a1.014,1.014,0,0,0,.5.875l3.04,1.774a1.014,1.014,0,0,0,1.022,0l3.04-1.774a1.014,1.014,0,0,0,.5-.875v-.76h4.057c0-.019,0-.038,0-.057Zm-6.081.236-2.027,1.182-2.027-1.182V243.99l2.027-1.183,2.027,1.183Z" transform="translate(2859.764 -206.029)" fill="#1b54f8"></path><path id="Path_299" data-name="Path 299" d="M467.6,80.82l1.356,1.358c.013.013.023.027.036.039l2.457-2.457,2.841.747h0a1.013,1.013,0,0,0,.975-.263l2.508-2.508a1.014,1.014,0,0,0,.264-.975l-.9-3.4a1.014,1.014,0,0,0-.722-.722l-3.4-.9a1.012,1.012,0,0,0-.975.264l-2.508,2.508a1.014,1.014,0,0,0-.264.974l.748,2.841-2.455,2.455c.013.013.027.024.04.037Zm5.461-6.971,2.27.6.6,2.27L474.239,78.4l-2.269-.6-.6-2.27Z" transform="translate(2508.256 -56.681)" fill="#1b54f8"></path><path id="Path_300" data-name="Path 300" d="M152.187,398.937l-1.357-1.358c-.014-.014-.024-.028-.038-.042l-2.457,2.457-2.841-.747h0a1.012,1.012,0,0,0-.975.264l-2.508,2.508a1.015,1.015,0,0,0-.264.975l.9,3.4a1.012,1.012,0,0,0,.722.722l3.4.9a1.015,1.015,0,0,0,.975-.264l2.508-2.508a1.015,1.015,0,0,0,.264-.975l-.747-2.841,2.456-2.456c-.012-.012-.026-.022-.038-.034Zm-5.464,6.969-2.269-.6-.6-2.269,1.685-1.685,2.269.6.6,2.269Z" transform="translate(2796.356 -344.771)" fill="#1b54f8"></path><path id="Path_301" data-name="Path 301" d="M224.459,148.964l-1.165-1.166a14.375,14.375,0,0,0,1.319-3.182h1.646a2.831,2.831,0,0,0,2.716-2.929v-1.913a2.831,2.831,0,0,0-2.716-2.928h-1.646a14.307,14.307,0,0,0-1.319-3.181l1.166-1.167h0a2.833,2.833,0,0,0-.15-3.989l-1.354-1.356a2.832,2.832,0,0,0-3.991-.15L217.8,128.17a14.286,14.286,0,0,0-3.181-1.319V125.2a2.831,2.831,0,0,0-2.93-2.715h-1.912a2.832,2.832,0,0,0-2.93,2.715v1.648h0a14.282,14.282,0,0,0-3.181,1.319L202.5,127h0a2.836,2.836,0,0,0-3.993.152l-1.351,1.352A2.832,2.832,0,0,0,197,132.5l1.167,1.167a14.28,14.28,0,0,0-1.318,3.18H195.2a2.831,2.831,0,0,0-2.715,2.928v1.913a2.831,2.831,0,0,0,2.715,2.929h1.648a14.359,14.359,0,0,0,1.319,3.181L197,148.965a2.833,2.833,0,0,0,.153,3.99l1.354,1.355h0a2.839,2.839,0,0,0,3.992.149l1.164-1.166h0a14.308,14.308,0,0,0,3.18,1.32v1.648a2.832,2.832,0,0,0,2.93,2.714h1.912a2.831,2.831,0,0,0,2.93-2.714v-1.648a14.291,14.291,0,0,0,3.181-1.32l1.167,1.169a2.838,2.838,0,0,0,3.991-.152l1.354-1.354a2.835,2.835,0,0,0,.148-3.99Zm-1.583,2.558-1.351,1.351h0a.833.833,0,0,1-1.127.153l-1.726-1.728a1.012,1.012,0,0,0-1.264-.137,12.308,12.308,0,0,1-4.021,1.668,1.014,1.014,0,0,0-.8.99v2.44c0,.373-.413.687-.9.687h-1.912c-.49,0-.9-.315-.9-.687v-2.44a1.014,1.014,0,0,0-.8-.99,12.283,12.283,0,0,1-4.02-1.668,1.013,1.013,0,0,0-1.265.138l-1.721,1.725a.834.834,0,0,1-1.128-.149l-1.353-1.354a.829.829,0,0,1-.152-1.124l1.727-1.726a1.014,1.014,0,0,0,.138-1.263,12.339,12.339,0,0,1-1.667-4.022,1.013,1.013,0,0,0-.99-.8H195.2a.829.829,0,0,1-.688-.9v-1.913a.827.827,0,0,1,.688-.9h2.44a1.013,1.013,0,0,0,.99-.8,12.281,12.281,0,0,1,1.667-4.02,1.014,1.014,0,0,0-.137-1.263l-1.726-1.725a.828.828,0,0,1,.152-1.125l1.351-1.352h0a.832.832,0,0,1,1.127-.152l1.724,1.725h0a1.013,1.013,0,0,0,1.263.138,12.281,12.281,0,0,1,4.02-1.666,1.013,1.013,0,0,0,.8-.99V125.2c0-.373.414-.688.9-.688h1.912a.829.829,0,0,1,.9.688v2.44a1.013,1.013,0,0,0,.8.99,12.278,12.278,0,0,1,4.02,1.666,1.013,1.013,0,0,0,1.263-.137l1.727-1.726a.829.829,0,0,1,1.125.15l1.353,1.355a.829.829,0,0,1,.149,1.124l-1.725,1.727a1.013,1.013,0,0,0-.136,1.263,12.309,12.309,0,0,1,1.666,4.02,1.015,1.015,0,0,0,.99.8h2.438a.828.828,0,0,1,.689.9v1.913a.828.828,0,0,1-.689.9h-2.438a1.014,1.014,0,0,0-.99.8,12.328,12.328,0,0,1-1.667,4.023,1.014,1.014,0,0,0,.138,1.262l1.725,1.725a.831.831,0,0,1-.149,1.125Z" transform="translate(2751.464 -101.579)" fill="#1b54f8"></path><path id="Path_302" data-name="Path 302" d="M291.98,214.38a7.6,7.6,0,1,0,5.375,2.226A7.6,7.6,0,0,0,291.98,214.38Zm0,13.175a5.58,5.58,0,1,1,3.94-1.634A5.574,5.574,0,0,1,291.98,227.555Z" transform="translate(2670.216 -182.828)" fill="#1b54f8"></path><path id="Path_303" data-name="Path 303" d="M315.5,7.209l2.538,1.48v3.475l.058,0h1.912l.057,0V8.69l2.538-1.48a1.014,1.014,0,0,0,.5-.875V2.787a1.014,1.014,0,0,0-.5-.875L319.565.138a1.014,1.014,0,0,0-1.022,0L315.5,1.911a1.014,1.014,0,0,0-.5.875V6.334a1.014,1.014,0,0,0,.5.875Zm1.524-3.84,2.027-1.183,2.027,1.183V5.752l-2.027,1.183-2.027-1.183Z" transform="translate(2643.142 6.721)" fill="#1b54f8"></path><path id="Path_304" data-name="Path 304" d="M322.605,459.928l-2.538-1.48v-3.474l-.057,0H318.1l-.058,0v3.475l-2.538,1.48h0a1.014,1.014,0,0,0-.5.875v3.547a1.014,1.014,0,0,0,.5.875l3.04,1.774a1.014,1.014,0,0,0,1.022,0l3.04-1.774a1.014,1.014,0,0,0,.5-.875V460.8a1.014,1.014,0,0,0-.5-.875Zm-1.524,3.841-2.027,1.182-2.027-1.182v-2.383l2.027-1.182,2.027,1.182Z" transform="translate(2643.142 -395.554)" fill="#1b54f8"></path><path id="Path_305" data-name="Path 305" d="M536.639,242.537l-3.04-1.774a1.014,1.014,0,0,0-1.022,0l-3.04,1.774a1.014,1.014,0,0,0-.5.875v.76h-4.057c0,.019,0,.038,0,.057v1.913c0,.019,0,.038,0,.057h4.057v.76a1.014,1.014,0,0,0,.5.875l3.04,1.774a1.014,1.014,0,0,0,1.022,0l3.04-1.774a1.014,1.014,0,0,0,.5-.875v-3.547a1.014,1.014,0,0,0-.5-.875Zm-1.524,3.841-2.027,1.182-2.027-1.182V244l2.027-1.183L535.114,244Z" transform="translate(2457.486 -206.034)" fill="#1b54f8"></path><path id="Path_306" data-name="Path 306" d="M475.263,399.518a1.012,1.012,0,0,0-.975-.264l-2.841.747-2.455-2.455-.034.038-1.356,1.357c-.014.014-.029.025-.043.039l2.455,2.455-.747,2.841h0a1.015,1.015,0,0,0,.264.975l2.508,2.508a1.015,1.015,0,0,0,.975.264l3.4-.9a1.012,1.012,0,0,0,.722-.722l.9-3.4a1.015,1.015,0,0,0-.264-.975Zm.066,5.8-2.269.6-1.685-1.685.6-2.269,2.269-.6,1.685,1.685Z" transform="translate(2508.253 -344.78)" fill="#1b54f8"></path><path id="Path_307" data-name="Path 307" d="M144.515,80.252a1.013,1.013,0,0,0,.975.263l2.841-.747,2.458,2.458c.014-.015.027-.031.042-.046l1.346-1.348c.014-.014.03-.026.044-.04l-2.456-2.456.748-2.841h0a1.014,1.014,0,0,0-.264-.974l-2.508-2.508a1.013,1.013,0,0,0-.975-.264l-3.4.9a1.013,1.013,0,0,0-.722.722l-.9,3.4a1.013,1.013,0,0,0,.264.975Zm-.067-5.8,2.27-.6L148.4,75.54l-.6,2.27-2.269.6-1.685-1.685Z" transform="translate(2796.361 -56.687)" fill="#1b54f8"></path></g></g></svg> 