<?xml version="1.0" encoding="UTF-8"?> <svg xmlns="http://www.w3.org/2000/svg" xmlns:xlink="http://www.w3.org/1999/xlink" width="60" height="60" viewBox="0 0 60 60"><defs><clipPath id="clip-path"><rect id="Rectangle_4" data-name="Rectangle 4" width="60" height="60" transform="translate(1061 82)" fill="#fff" stroke="#707070" stroke-width="1"></rect></clipPath></defs><g id="Mask_Group_56" data-name="Mask Group 56" transform="translate(-1061 -82)" clip-path="url(#clip-path)"><path id="Path_189" data-name="Path 189" d="M19.149,31.867H34.615a.743.743,0,1,1,0,1.485H19.149a.743.743,0,1,1,0-1.485Zm-2.055.738a2,2,0,1,1-2-2A2,2,0,0,1,17.093,32.6Zm-1.481,0a.515.515,0,0,0-.517-.517.517.517,0,1,0,.517.517Zm32.322-9.736a1.08,1.08,0,0,1-.326.771l-5.151,5.151a1.1,1.1,0,0,1-.776.326,1.152,1.152,0,0,1-.417-.081,1.1,1.1,0,0,1-.68-1.016V26.735h-.747a2.315,2.315,0,0,1,.163.858V37.612a2.341,2.341,0,0,1-2.338,2.338H28.521v4.772a1.5,1.5,0,0,1-1.5,1.5H7.87v1.284A1.1,1.1,0,0,1,7.2,48.517a1.112,1.112,0,0,1-.426.086A1.1,1.1,0,0,1,6,48.277L.841,43.122a1.093,1.093,0,0,1,0-1.552L6,36.419a1.094,1.094,0,0,1,1.873.771v1.284h.747a2.315,2.315,0,0,1-.163-.858V27.593a2.341,2.341,0,0,1,2.338-2.338h9.142V20.483a1.5,1.5,0,0,1,1.5-1.5H40.585V17.7a1.095,1.095,0,0,1,1.873-.771l5.155,5.155A1.117,1.117,0,0,1,47.935,22.869ZM27.021,39.955H7.132a.743.743,0,0,1-.743-.743V38.124L2.163,42.35l4.226,4.226V45.489a.743.743,0,0,1,.743-.743H27.026a.021.021,0,0,0,.019-.019V39.974A.032.032,0,0,0,27.021,39.955ZM37.663,26.74H10.793a.856.856,0,0,0-.853.858V37.616a.856.856,0,0,0,.853.858h26.87a.856.856,0,0,0,.853-.858V27.593A.855.855,0,0,0,37.663,26.74Zm8.629-3.881-4.226-4.226v1.088a.743.743,0,0,1-.743.743H21.434a.021.021,0,0,0-.019.019v4.753a.021.021,0,0,0,.019.019H41.328a.743.743,0,0,1,.743.743v1.088Z" transform="translate(1066.772 79.397)" fill="#1c54f8" stroke="#fff" stroke-width="0.5"></path></g></svg> 