<?xml version="1.0" encoding="UTF-8"?> <svg xmlns="http://www.w3.org/2000/svg" width="77" height="77" viewBox="0 0 77 77"><g id="Group_302" data-name="Group 302" transform="translate(-2878 -170)"><rect id="Rectangle_117" data-name="Rectangle 117" width="77" height="77" transform="translate(2878 170)" fill="#9b9b9b" opacity="0"></rect><g id="Group_295" data-name="Group 295" transform="translate(-241.96 210)"><path id="Path_348" data-name="Path 348" d="M109.345,92.609a.485.485,0,0,1,0-.7l10.262-9.794a.48.48,0,0,1,.525-.1.487.487,0,0,1,.3.447v4.676h13.893a.49.49,0,0,1,.486.486v4.028L143.884,83l-9.074-8.659v4.028a.49.49,0,0,1-.486.486h-14.38a.486.486,0,0,1,0-.973h13.893V73.2a.487.487,0,0,1,.3-.447.478.478,0,0,1,.525.1l10.262,9.794a.485.485,0,0,1,0,.7L134.66,93.14a.475.475,0,0,1-.337.136.469.469,0,0,1-.188-.039.487.487,0,0,1-.3-.447V88.114H119.943a.49.49,0,0,1-.486-.486V83.6l-9.074,8.659,9.074,8.659V96.89a.49.49,0,0,1,.486-.486h14.38a.486.486,0,0,1,0,.973H120.43v4.676a.489.489,0,0,1-.486.486.474.474,0,0,1-.337-.136Zm46.986-21.347v37.361a1.831,1.831,0,0,1-1.836,1.822H135.25v4.339h7.537a2.955,2.955,0,0,1,2.971,2.938.49.49,0,0,1-.486.486H109a.49.49,0,0,1-.486-.486,2.955,2.955,0,0,1,2.971-2.938h7.537v-4.339H99.777a1.831,1.831,0,0,1-1.836-1.822V71.262a1.831,1.831,0,0,1,1.836-1.822h54.718a1.831,1.831,0,0,1,1.836,1.822Zm-57.416,0v32.925h56.443V71.262a.86.86,0,0,0-.863-.85H99.777a.856.856,0,0,0-.863.85Zm43.874,44.5h-31.3a2,2,0,0,0-1.933,1.479h35.175a2,2,0,0,0-1.933-1.479Zm-8.51-5.312h-14.29v4.339h14.29Zm21.08-1.822V105.16H98.915v3.463a.86.86,0,0,0,.863.85H154.5a.856.856,0,0,0,.863-.85Z" transform="translate(3031.019 -95.44)" fill="#1b54f8" stroke="#1b54f8" stroke-width="1"></path></g></g></svg> 