<?xml version="1.0" encoding="UTF-8"?> <!-- Generator: Adobe Illustrator 25.3.1, SVG Export Plug-In . SVG Version: 6.00 Build 0) --> <svg xmlns="http://www.w3.org/2000/svg" xmlns:xlink="http://www.w3.org/1999/xlink" version="1.1" id="Layer_1" x="0px" y="0px" viewBox="0 0 56 56" style="enable-background:new 0 0 56 56;" xml:space="preserve"> <style type="text/css"> .st0{fill:#1B54F8;} .st1{fill:none;stroke:#1B54F8;stroke-linecap:round;stroke-linejoin:round;stroke-miterlimit:10;} .st2{fill:none;stroke:#3184C1;stroke-miterlimit:10;} </style> <g> <rect x="36.6" y="40" transform="matrix(0.2934 -0.956 0.956 0.2934 -9.6905 68.0028)" class="st0" width="9" height="1.2"></rect> <polygon class="st0" points="37.3,37.4 34,40.6 37.3,43.9 38,43.1 35.6,40.6 38,38.1 "></polygon> <polygon class="st0" points="43.8,38.1 46.3,40.6 43.8,43.1 44.6,43.9 47.8,40.6 44.6,37.4 "></polygon> <path class="st0" d="M47.9,31.3c-0.1-0.1-0.2-0.2-0.3-0.1h-13c-0.1,0-0.3,0-0.4,0.2l-2.5,2.5c-0.1,0.1-0.2,0.2-0.2,0.4v12.7 c0,0.1,0.1,0.3,0.2,0.4l2.5,2.5c0.1,0.1,0.2,0.2,0.4,0.2h13c0.1,0,0.3,0,0.4-0.2l2.5-2.5c0.1-0.1,0.2-0.2,0.2-0.4V34.2 c0-0.1-0.1-0.3-0.2-0.4L47.9,31.3z M49.5,46.8L47.3,49H34.9l-2.2-2.2V34.4l2.2-2.2h12.5l2.2,2.2L49.5,46.8z"></path> <path class="st0" d="M29.1,34.6h-2.4c-0.3,0-0.5,0.2-0.5,0.5l0,0c0,0.3,0.2,0.5,0.5,0.5l0,0h2.4c0.3,0,0.5-0.2,0.5-0.5l0,0 C29.8,35,29.5,34.6,29.1,34.6C29.2,34.6,29.2,34.6,29.1,34.6z"></path> <path class="st0" d="M29.1,37.4h-2.4c-0.3,0-0.5,0.2-0.5,0.5l0,0c0,0.3,0.2,0.5,0.5,0.5l0,0h2.4c0.3,0,0.5-0.2,0.5-0.5l0,0 C29.8,37.7,29.5,37.4,29.1,37.4C29.2,37.4,29.2,37.4,29.1,37.4z"></path> <path class="st0" d="M29.1,40.1h-2.4c-0.3,0-0.5,0.3-0.5,0.7c0,0.2,0.2,0.4,0.5,0.5h2.4c0.3,0,0.5-0.2,0.5-0.5l0,0 C29.8,40.3,29.5,40.1,29.1,40.1C29.2,40.1,29.2,40.1,29.1,40.1z"></path> <path class="st0" d="M29.1,42.8h-2.4c-0.3,0-0.5,0.2-0.5,0.5c0,0.3,0.2,0.5,0.5,0.5l0,0h2.4c0.3,0,0.5-0.2,0.5-0.5 C29.8,43,29.4,42.8,29.1,42.8C29.2,42.8,29.2,42.8,29.1,42.8z"></path> <path class="st0" d="M29.1,45.5h-2.4c-0.3,0-0.5,0.2-0.5,0.5l0,0c0,0.3,0.2,0.5,0.5,0.5h2.4c0.3,0,0.5-0.2,0.5-0.5 C29.8,45.7,29.5,45.5,29.1,45.5C29.2,45.5,29.2,45.5,29.1,45.5z"></path> <path class="st0" d="M53,35.7h2.4c0.3,0,0.7-0.3,0.7-0.7s-0.3-0.7-0.7-0.7H53c-0.3,0-0.5,0.2-0.5,0.5c-0.1,0.3,0.1,0.5,0.4,0.7 C53,35.7,53,35.7,53,35.7z"></path> <path class="st0" d="M55.2,37.4h-2.4c-0.3,0-0.5,0.2-0.5,0.5l0,0c0,0.3,0.2,0.5,0.5,0.5h2.4c0.3,0,0.5-0.2,0.5-0.5 C55.9,37.7,55.7,37.4,55.2,37.4C55.3,37.4,55.3,37.4,55.2,37.4z"></path> <path class="st0" d="M55.2,40.1h-2.4c-0.3,0-0.7,0.2-0.7,0.5c0,0.3,0.2,0.7,0.5,0.7c0.1,0,0.1,0,0.2,0h2.3c0.3,0,0.5-0.2,0.5-0.5 C55.9,40.3,55.7,40.1,55.2,40.1C55.3,40.1,55.3,40.1,55.2,40.1z"></path> <path class="st0" d="M55.2,42.8h-2.4c-0.3,0-0.5,0.2-0.5,0.5c0,0.3,0.2,0.5,0.5,0.5l0,0h2.4c0.3,0,0.5-0.2,0.5-0.5 C55.9,43,55.7,42.8,55.2,42.8C55.3,42.8,55.3,42.8,55.2,42.8z"></path> <path class="st0" d="M55.2,45.5h-2.4c-0.3,0-0.5,0.2-0.5,0.5l0,0c0,0.3,0.2,0.5,0.5,0.5h2.4c0.3,0,0.5-0.2,0.5-0.5 C55.9,45.7,55.7,45.5,55.2,45.5C55.3,45.5,55.3,45.5,55.2,45.5z"></path> <path class="st0" d="M35.6,51.8c-0.3,0-0.5,0.2-0.5,0.5v2.4c0,0.3,0.2,0.5,0.5,0.5c0.3,0,0.5-0.2,0.5-0.5l0,0v-2.3 C36.3,52.2,36.1,51.8,35.6,51.8C35.7,51.8,35.6,51.8,35.6,51.8z"></path> <path class="st0" d="M38.4,51.8c-0.3,0-0.5,0.2-0.5,0.5v2.4c0,0.3,0.2,0.7,0.5,0.7c0.3,0,0.7-0.2,0.7-0.5c0-0.1,0-0.1,0-0.2v-2.2 C38.9,52.2,38.7,51.8,38.4,51.8z"></path> <path class="st0" d="M41.1,51.8c-0.3,0-0.5,0.2-0.5,0.5v2.4c0,0.3,0.2,0.5,0.5,0.5c0.3,0,0.5-0.2,0.5-0.5l0,0v-2.3 C41.6,52.2,41.4,51.8,41.1,51.8L41.1,51.8z"></path> <path class="st0" d="M43.8,51.8c-0.3,0-0.5,0.2-0.5,0.5v2.4c0,0.3,0.2,0.5,0.5,0.5c0.3,0,0.5-0.2,0.5-0.5v-2.3 C44.3,52.2,44.1,51.8,43.8,51.8z"></path> <path class="st0" d="M46.5,51.8c-0.3,0-0.5,0.2-0.5,0.5v2.4c0,0.3,0.2,0.7,0.5,0.7c0.3,0,0.7-0.2,0.7-0.5c0-0.1,0-0.1,0-0.2v-2.2 C47.1,52.2,46.9,51.8,46.5,51.8L46.5,51.8z"></path> <path class="st0" d="M35.6,29.2c0.3,0,0.5-0.2,0.5-0.5v-2.4c0-0.3-0.2-0.5-0.5-0.5c-0.3,0-0.5,0.2-0.5,0.5l0,0v2.4 C35.1,29,35.4,29.2,35.6,29.2z"></path> <path class="st0" d="M38.4,29.2c0.3,0,0.5-0.2,0.5-0.5v-2.4c0-0.3-0.2-0.7-0.5-0.7c-0.3,0-0.7,0.2-0.7,0.5c0,0.1,0,0.1,0,0.2v2.4 C37.8,29,38,29.2,38.4,29.2z"></path> <path class="st0" d="M41.1,29.2c0.3,0,0.5-0.2,0.5-0.5v-2.4c0-0.3-0.2-0.5-0.5-0.5c-0.3,0-0.5,0.2-0.5,0.5l0,0v2.4 C40.5,29,40.8,29.2,41.1,29.2z"></path> <path class="st0" d="M43.8,29.2c0.3,0,0.5-0.2,0.5-0.5v-2.4c0-0.3-0.2-0.5-0.5-0.5c-0.3,0-0.5,0.2-0.5,0.5l0,0v2.4 C43.3,29,43.5,29.2,43.8,29.2z"></path> <path class="st0" d="M46.5,29.2c0.3,0,0.5-0.2,0.5-0.5v-2.4c0-0.3-0.2-0.7-0.5-0.7c-0.3,0-0.7,0.2-0.7,0.5c0,0.1,0,0.1,0,0.2v2.4 C45.9,29,46.2,29.2,46.5,29.2L46.5,29.2z"></path> </g> <g> <rect x="10.5" y="14.4" transform="matrix(0.2934 -0.956 0.956 0.2934 -3.7038 24.9024)" class="st0" width="9" height="1.2"></rect> <polygon class="st0" points="11.1,11.8 7.8,15 11.1,18.3 11.9,17.5 9.5,15 11.9,12.5 "></polygon> <polygon class="st0" points="17.6,12.5 20.1,15 17.6,17.5 18.4,18.3 21.7,15 18.4,11.8 "></polygon> <path class="st0" d="M21.8,5.7c-0.1-0.1-0.2-0.2-0.3-0.1h-13c-0.1,0-0.3,0-0.4,0.2L5.6,8.3C5.4,8.4,5.3,8.5,5.3,8.7v12.7 c0,0.1,0.1,0.3,0.2,0.4l2.5,2.5c0.1,0.1,0.2,0.2,0.4,0.2h13c0.1,0,0.3,0,0.4-0.2l2.5-2.5c0.1-0.1,0.2-0.2,0.2-0.4V8.6 c0-0.1-0.1-0.3-0.2-0.4L21.8,5.7z M23.3,21.2l-2.2,2.2H8.7l-2.2-2.2V8.8l2.2-2.2h12.5l2.2,2.2L23.3,21.2z"></path> <path class="st0" d="M2.9,9H0.5C0.2,9,0,9.3,0,9.6l0,0c0,0.3,0.2,0.5,0.5,0.5l0,0h2.4c0.3,0,0.5-0.2,0.5-0.5l0,0 C3.6,9.4,3.4,9,2.9,9C3,9,3,9,2.9,9z"></path> <path class="st0" d="M2.9,11.8H0.5C0.2,11.8,0,12,0,12.3l0,0c0,0.3,0.2,0.5,0.5,0.5l0,0h2.4c0.3,0,0.5-0.2,0.5-0.5l0,0 C3.6,12.1,3.4,11.8,2.9,11.8C3,11.8,3,11.8,2.9,11.8z"></path> <path class="st0" d="M2.9,14.5H0.5c-0.3,0-0.5,0.3-0.5,0.7c0,0.2,0.2,0.4,0.5,0.5h2.4c0.3,0,0.5-0.2,0.5-0.5l0,0 C3.6,14.7,3.4,14.5,2.9,14.5C3,14.5,3,14.5,2.9,14.5z"></path> <path class="st0" d="M2.9,17.2H0.5c-0.3,0-0.5,0.2-0.5,0.5c0,0.3,0.2,0.5,0.5,0.5l0,0h2.4c0.3,0,0.5-0.2,0.5-0.5 C3.6,17.4,3.3,17.2,2.9,17.2C3,17.2,3,17.2,2.9,17.2z"></path> <path class="st0" d="M2.9,19.9H0.5c-0.3,0-0.5,0.2-0.5,0.5l0,0C0,20.8,0.2,21,0.5,21h2.4c0.3,0,0.5-0.2,0.5-0.5 C3.6,20.1,3.4,19.9,2.9,19.9C3,19.9,3,19.9,2.9,19.9z"></path> <path class="st0" d="M26.8,10.1h2.4c0.3,0,0.7-0.3,0.7-0.7c0-0.3-0.3-0.7-0.7-0.7h-2.4c-0.3,0-0.5,0.2-0.5,0.5 c-0.1,0.3,0.1,0.5,0.4,0.7C26.8,10.1,26.8,10.1,26.8,10.1z"></path> <path class="st0" d="M29.1,11.8h-2.4c-0.3,0-0.5,0.2-0.5,0.5l0,0c0,0.3,0.2,0.5,0.5,0.5h2.4c0.3,0,0.5-0.2,0.5-0.5 C29.7,12.1,29.5,11.8,29.1,11.8C29.2,11.8,29.2,11.8,29.1,11.8z"></path> <path class="st0" d="M29.1,14.5h-2.4c-0.3,0-0.7,0.2-0.7,0.5c0,0.3,0.2,0.7,0.5,0.7c0.1,0,0.1,0,0.2,0h2.3c0.3,0,0.5-0.2,0.5-0.5 C29.7,14.7,29.5,14.5,29.1,14.5C29.2,14.5,29.2,14.5,29.1,14.5z"></path> <path class="st0" d="M29.1,17.2h-2.4c-0.3,0-0.5,0.2-0.5,0.5c0,0.3,0.2,0.5,0.5,0.5l0,0h2.4c0.3,0,0.5-0.2,0.5-0.5 C29.7,17.4,29.5,17.2,29.1,17.2C29.2,17.2,29.2,17.2,29.1,17.2z"></path> <path class="st0" d="M29.1,19.9h-2.4c-0.3,0-0.5,0.2-0.5,0.5l0,0c0,0.3,0.2,0.5,0.5,0.5h2.4c0.3,0,0.5-0.2,0.5-0.5 C29.7,20.1,29.5,19.9,29.1,19.9C29.2,19.9,29.2,19.9,29.1,19.9z"></path> <path class="st0" d="M9.5,26.2c-0.3,0-0.5,0.2-0.5,0.5v2.4c0,0.3,0.2,0.5,0.5,0.5c0.3,0,0.5-0.2,0.5-0.5l0,0v-2.3 C10.1,26.6,9.9,26.2,9.5,26.2C9.6,26.2,9.5,26.2,9.5,26.2z"></path> <path class="st0" d="M12.2,26.2c-0.3,0-0.5,0.2-0.5,0.5v2.4c0,0.3,0.2,0.7,0.5,0.7c0.3,0,0.7-0.2,0.7-0.5c0-0.1,0-0.1,0-0.2v-2.2 C12.7,26.6,12.5,26.2,12.2,26.2z"></path> <path class="st0" d="M14.9,26.2c-0.3,0-0.5,0.2-0.5,0.5v2.4c0,0.3,0.2,0.5,0.5,0.5c0.3,0,0.5-0.2,0.5-0.5l0,0v-2.3 C15.5,26.6,15.2,26.2,14.9,26.2L14.9,26.2z"></path> <path class="st0" d="M17.6,26.2c-0.3,0-0.5,0.2-0.5,0.5v2.4c0,0.3,0.2,0.5,0.5,0.5s0.5-0.2,0.5-0.5v-2.3 C18.2,26.6,18,26.2,17.6,26.2z"></path> <path class="st0" d="M20.4,26.2c-0.3,0-0.5,0.2-0.5,0.5v2.4c0,0.3,0.2,0.7,0.5,0.7c0.3,0,0.7-0.2,0.7-0.5c0-0.1,0-0.1,0-0.2v-2.2 C20.9,26.6,20.7,26.2,20.4,26.2L20.4,26.2z"></path> <path class="st0" d="M9.5,3.6C9.8,3.6,10,3.4,10,3V0.7c0-0.3-0.2-0.5-0.5-0.5c-0.3,0-0.5,0.2-0.5,0.5l0,0V3 C8.9,3.4,9.3,3.6,9.5,3.6z"></path> <path class="st0" d="M12.2,3.6c0.3,0,0.5-0.2,0.5-0.5V0.7c0-0.3-0.2-0.7-0.5-0.7c-0.3,0-0.7,0.2-0.7,0.5c0,0.1,0,0.1,0,0.2v2.4 C11.7,3.4,11.9,3.6,12.2,3.6z"></path> <path class="st0" d="M14.9,3.6c0.3,0,0.5-0.2,0.5-0.5V0.7c0-0.3-0.2-0.5-0.5-0.5c-0.3,0-0.5,0.2-0.5,0.5l0,0V3 C14.4,3.4,14.6,3.6,14.9,3.6z"></path> <path class="st0" d="M17.6,3.6c0.3,0,0.5-0.2,0.5-0.5V0.7c0-0.3-0.2-0.5-0.5-0.5s-0.5,0.2-0.5,0.5l0,0V3 C17.1,3.4,17.3,3.6,17.6,3.6z"></path> <path class="st0" d="M20.4,3.6c0.3,0,0.5-0.2,0.5-0.5V0.7c0-0.3-0.2-0.7-0.5-0.7c-0.3,0-0.7,0.2-0.7,0.5c0,0.1,0,0.1,0,0.2v2.4 C19.7,3.4,20,3.6,20.4,3.6L20.4,3.6z"></path> </g> <path class="st1" d="M-40.2,26.8c-0.9-12-10.9-21.4-23.1-21.4c-12,0-21.9,9.1-23.1,20.8"></path> <path class="st1" d="M-86.4,30.6c0.9,11.9,10.9,21.3,23.1,21.3c12,0,21.9-9.1,23.1-20.8"></path> <path class="st2" d="M50.4,29.6"></path> <path class="st0" d="M-86.1,27.5c-0.2,0.2-0.5,0.2-0.6-0.1l-0.8-2.1l-0.8-2.1c-0.1-0.2,0.1-0.5,0.4-0.5l2.2,0.3l2.3,0.4 c0.3,0,0.4,0.3,0.2,0.5l-1.4,1.8L-86.1,27.5z"></path> <path class="st0" d="M9.7,32.6c0.2-0.2,0.5-0.2,0.6,0l1.2,2l1.2,2c0.2,0.3,0,0.5-0.3,0.5L10,37.1L7.7,37c-0.3,0-0.4-0.3-0.3-0.5 l1.2-2L9.7,32.6z"></path> <polyline class="st1" points="21,43.2 10,43.2 10,33.7 "></polyline> <path class="st0" d="M34.8,7.2l2-1.2c0.2-0.1,0.5,0,0.5,0.3l0.1,2.3L37.3,11c0,0.3-0.2,0.5-0.5,0.3l-2-1.2l-2-1.2 c-0.2-0.1-0.2-0.5,0-0.6L34.8,7.2z"></path> <polyline class="st1" points="43.4,19.7 43.4,8.7 34,8.7 "></polyline> </svg> 