<?xml version="1.0" encoding="UTF-8"?> <svg xmlns="http://www.w3.org/2000/svg" width="90" height="90" viewBox="0 0 90 90"><g id="Group_4125" data-name="Group 4125" transform="translate(-4608 -2359)"><rect id="Rectangle_930" data-name="Rectangle 930" width="90" height="90" transform="translate(4608 2359)" fill="#967878" opacity="0"></rect><g id="Group_4123" data-name="Group 4123" transform="translate(71.068 681.343)"><path id="Path_111" data-name="Path 111" d="M180.681,62.629v43.056a6.863,6.863,0,0,1-.411,3.167,4.117,4.117,0,0,1-3.664,2.277H112.845a6.7,6.7,0,0,1-2.508-.274,4.1,4.1,0,0,1-2.585-3.792V62.833a4.378,4.378,0,0,1,.462-2.08,4.093,4.093,0,0,1,3.612-2.174c.539-.009,1.07,0,1.609,0h63.017a4.558,4.558,0,0,1,1.652.274,4.076,4.076,0,0,1,2.577,3.775.856.856,0,0,0,1.712,0,5.853,5.853,0,0,0-5.881-5.778H113.281c-.488,0-.984-.009-1.472,0a5.86,5.86,0,0,0-5.778,5.915v43.783c0,.248-.009.488.009.736a5.839,5.839,0,0,0,3.116,4.9,7.5,7.5,0,0,0,3.552.642h63.967A5.849,5.849,0,0,0,181.7,109.8a8.006,8.006,0,0,0,.693-3.989V62.619a.857.857,0,0,0-1.712.009Z" transform="translate(4437.911 1630.811)" fill="#1b54f8" stroke="#1b54f8" stroke-width="1.6"></path><path id="Path_112" data-name="Path 112" d="M310.347,404.447v13.867l.856-.856H295.624l.856.856V404.447l-.856.856H311.2a.856.856,0,0,0,0-1.712H295.624a.87.87,0,0,0-.856.856v13.867a.87.87,0,0,0,.856.856H311.2a.87.87,0,0,0,.856-.856V404.447a.856.856,0,0,0-1.712,0Z" transform="translate(4278.713 1338.34)" fill="#1b54f8" stroke="#1b54f8" stroke-width="1.6"></path><path id="Path_113" data-name="Path 113" d="M221.947,493.771h33.931c1.558,0,3.133.051,4.691,0h.068a.856.856,0,0,0,0-1.712H226.706c-1.558,0-3.133-.051-4.691,0h-.068a.856.856,0,0,0,0,1.712Z" transform="translate(4340.834 1263.738)" fill="#1b54f8" stroke="#1b54f8" stroke-width="1.6"></path><path id="Path_114" data-name="Path 114" d="M180.638,334.406v4.571c0,.565.017,1.138-.009,1.7a4.055,4.055,0,0,1-1.695,3.073c-1.31.924-2.859.753-4.366.753h-59.55c-1.079,0-2.157.009-3.236,0a4.106,4.106,0,0,1-4.083-3.946c-.043-1.532,0-3.082,0-4.614v-1.541l-.856.856h71.6c.967,0,1.943.017,2.919,0h.12a.856.856,0,0,0,0-1.712h-71.6c-.967,0-1.943-.017-2.919,0h-.12a.87.87,0,0,0-.856.856v4.648c0,.616-.034,1.25.026,1.866a5.8,5.8,0,0,0,1.917,3.843A6.05,6.05,0,0,0,112,346.227h61.579c1,0,1.994.009,3,0a5.846,5.846,0,0,0,5.769-5.478c.094-1.575.009-3.176.009-4.751v-1.575a.856.856,0,0,0-1.712-.017Z" transform="translate(4437.953 1397.425)" fill="#1b54f8" stroke="#1b54f8" stroke-width="1.6"></path><path id="Path_115" data-name="Path 115" d="M210.014,172.722V160.31a.856.856,0,0,0-1.712,0v12.412A.856.856,0,0,0,210.014,172.722Z" transform="translate(4351.646 1544.24)" fill="#1b54f8" stroke="#1b54f8" stroke-width="1.6"></path><path id="Path_116" data-name="Path 116" d="M186.026,185.43q-4.712-2.722-9.416-5.436l-1.335-.77a.858.858,0,0,0-.865,1.481q4.712,2.722,9.416,5.436l1.335.77A.858.858,0,0,0,186.026,185.43Z" transform="translate(4380.582 1527.69)" fill="#1b54f8" stroke="#1b54f8" stroke-width="1.6"></path><path id="Path_117" data-name="Path 117" d="M175.272,186.912q4.712-2.722,9.416-5.436l1.335-.77a.858.858,0,0,0-.865-1.481q-4.712,2.722-9.416,5.436l-1.335.77A.858.858,0,0,0,175.272,186.912Z" transform="translate(4380.584 1527.688)" fill="#1b54f8" stroke="#1b54f8" stroke-width="1.6"></path><path id="Path_118" data-name="Path 118" d="M346.244,172.722V160.31a.856.856,0,0,0-1.712,0v12.412A.856.856,0,0,0,346.244,172.722Z" transform="translate(4236.739 1544.24)" fill="#1b54f8" stroke="#1b54f8" stroke-width="1.6"></path><path id="Path_119" data-name="Path 119" d="M322.256,185.43q-4.712-2.722-9.416-5.436l-1.335-.77a.858.858,0,0,0-.865,1.481q4.712,2.722,9.416,5.436l1.335.77A.858.858,0,0,0,322.256,185.43Z" transform="translate(4265.675 1527.69)" fill="#1b54f8" stroke="#1b54f8" stroke-width="1.6"></path><path id="Path_120" data-name="Path 120" d="M311.541,186.912q4.712-2.722,9.416-5.436l1.335-.77a.858.858,0,0,0-.865-1.481q-4.712,2.722-9.416,5.436l-1.335.77A.858.858,0,0,0,311.541,186.912Z" transform="translate(4265.646 1527.688)" fill="#1b54f8" stroke="#1b54f8" stroke-width="1.6"></path><path id="Path_121" data-name="Path 121" d="M482.474,172.722V160.31a.857.857,0,0,0-1.712,0v12.412A.857.857,0,0,0,482.474,172.722Z" transform="translate(4121.832 1544.24)" fill="#1b54f8" stroke="#1b54f8" stroke-width="1.6"></path><path id="Path_122" data-name="Path 122" d="M458.536,185.43q-4.712-2.722-9.416-5.436l-1.335-.77a.858.858,0,0,0-.865,1.481q4.712,2.722,9.416,5.436l1.335.77A.858.858,0,0,0,458.536,185.43Z" transform="translate(4150.726 1527.69)" fill="#1b54f8" stroke="#1b54f8" stroke-width="1.6"></path><path id="Path_123" data-name="Path 123" d="M447.761,186.912q4.712-2.722,9.416-5.436l1.335-.77a.858.858,0,0,0-.865-1.481q-4.712,2.722-9.416,5.436l-1.335.77A.858.858,0,0,0,447.761,186.912Z" transform="translate(4150.748 1527.688)" fill="#1b54f8" stroke="#1b54f8" stroke-width="1.6"></path></g></g></svg> 