<?xml version="1.0" encoding="UTF-8"?> <svg xmlns="http://www.w3.org/2000/svg" width="90" height="90" viewBox="0 0 90 90" fill="none"><mask id="mask0_1_261" style="mask-type:luminance" maskUnits="userSpaceOnUse" x="0" y="0" width="90" height="90"><path d="M90 0H0V90H90V0Z" fill="white"></path></mask><g mask="url(#mask0_1_261)"><path d="M87.1 42.2V21.4C89.1 20.8 90.5 19 90.5 16.8C90.5 14.1 88.4 12 85.7 12C83 12 80.9 14.1 80.9 16.8C80.9 18.9 82.3 20.7 84.3 21.4V41.7L80.8 45.1C80.4 43.4 79.4 41.9 78 40.7C76.5 39.3 74.8 38.4 72.8 38.2L76.3 34.7C76.6 34.4 76.7 34.1 76.7 33.7V12.3C78.7 11.7 80.1 9.89998 80.1 7.69998C80.1 4.99998 78 2.89999 75.3 2.89999C72.6 2.89999 70.5 4.99998 70.5 7.69998C70.5 9.79998 71.9 11.6 73.9 12.3V33L70 36.9C67.6 31.4 61 28.9 55.4 31.4V12C57.4 11.4 58.8 9.59999 58.8 7.39999C58.8 4.69999 56.7 2.59998 54 2.59998C51.3 2.59998 49.2 4.69999 49.2 7.39999C49.2 9.49999 50.6 11.3 52.6 12V29.7C49.5 27 45.1 26.6 41.6 28.4V11.9C43.6 11.3 45 9.49999 45 7.29999C45 4.59999 42.9 2.5 40.2 2.5C37.5 2.5 35.4 4.59999 35.4 7.29999C35.4 9.39999 36.8 11.2 38.8 11.9V27.7C32.2 22.6 22.2 26 20.1 34.3L16.9 30.9V10.6C18.9 9.89998 20.3 8.1 20.3 6C20.3 3.3 18.2 1.19998 15.5 1.19998C12.8 1.19998 10.6 3.3 10.6 6C10.6 8.1 12 9.89998 14 10.6V31.4C14 31.8 14.1 32.1 14.4 32.4L17.9 35.9C13.5 36.6 10.3 40 9.7 44.2L6.7 41.2V20.9C8.7 20.3 10.1 18.5 10.1 16.3C10.1 13.6 7.99999 11.5 5.29999 11.5C2.59999 11.5 0.5 13.8 0.5 16.4C0.5 18.5 1.89999 20.3 3.89999 21V41.8C3.89999 42.2 3.99999 42.5 4.29999 42.8L8.5 47C4.1 48.8 2.29999 53.2 2.59999 56.8C2.99999 61.2 6.29999 65.9 12.4 65.9H23.9V70.7C23.9 71.4 24.3 72 25 72.1L28.1 72.7C28.4 73.8 28.9 75 29.5 76.1L27.9 78.8C27.5 79.4 27.6 80.1 28 80.6L32.2 85C32.6 85.4 33.5 85.6 34 85.1L36.5 83.3C37.6 83.9 38.6 84.3 39.9 84.7L40.5 87.8C40.6 88.5 41.2 88.9 41.9 88.9H47.9C48.6 88.9 49.2 88.5 49.3 87.8L49.9 84.7C51 84.4 52.2 83.9 53.3 83.3L55.8 85.1C56.4 85.5 57.1 85.4 57.6 85L62 80.6C62.4 80.2 62.6 79.3 62.1 78.8L60.3 76.3C60.9 75.2 61.3 74.2 61.7 72.9L64.8 72.3C65.5 72.2 65.9 71.6 65.9 70.9V66.1H77.4C83.3 66.1 86.5 61.7 87.2 57.5C87.8 53.8 86.2 49.5 82.1 47.4L86.6 42.9C87 42.9 87.1 42.5 87.1 42.2ZM73.3 7.79999C73.3 6.69999 74.1 5.79999 75.3 5.79999C76.4 5.79999 77.3 6.59999 77.3 7.79999C77.3 8.99999 76.5 9.79999 75.3 9.79999C74.1 9.79999 73.3 8.89999 73.3 7.79999ZM13.3 6.09998C13.3 4.99998 14.1 4.09998 15.3 4.09998C16.5 4.09998 17.3 4.89998 17.3 6.09998C17.3 7.29998 16.5 8.09998 15.3 8.09998C14.2 7.99998 13.3 7.19998 13.3 6.09998ZM3.29999 16.6C3.29999 15.5 4.09999 14.6 5.29999 14.6C6.49999 14.6 7.29999 15.4 7.29999 16.6C7.29999 17.8 6.49999 18.6 5.29999 18.6C4.09999 18.6 3.29999 17.6 3.29999 16.6ZM52.1 7.29999C52.1 6.19999 52.9 5.29999 54.1 5.29999C55.3 5.29999 56.1 6.09999 56.1 7.29999C56.1 8.49999 55.3 9.29999 54.1 9.29999C52.9 9.29999 52.1 8.49999 52.1 7.29999ZM38.3 7.29999C38.3 6.19999 39.1 5.29999 40.3 5.29999C41.5 5.29999 42.3 6.09999 42.3 7.29999C42.3 8.49999 41.5 9.29999 40.3 9.29999C39.1 9.39999 38.3 8.49999 38.3 7.29999ZM63 69.8L60.2 70.2C59.6 70.3 59.2 70.8 59.1 71.3C58.8 72.7 58.3 74.1 57.4 75.5C57.1 75.9 57.1 76.6 57.4 77L58.9 79.2L56.2 81.9L54 80.4C53.6 80.1 52.9 80.1 52.5 80.4C51.2 81.2 49.8 81.8 48.3 82.1C47.7 82.2 47.3 82.7 47.2 83.2L46.8 86H43.1L42.7 83.2C42.6 82.6 42.1 82.2 41.6 82.1C40.1 81.7 38.6 81.1 37.4 80.4C37 80.1 36.3 80.1 35.9 80.4L33.6 81.9L30.9 79.2L32.4 77C32.7 76.6 32.7 75.9 32.4 75.5C31.6 74.2 31 72.8 30.7 71.3C30.6 70.7 30.1 70.3 29.6 70.2L26.8 69.8V66.1L29.6 65.5C30.2 65.4 30.6 64.9 30.7 64.4C31 63 31.7 61.4 32.4 60.2C32.7 59.8 32.7 59.1 32.4 58.7L30.9 56.4L33.6 53.7L35.9 55.2C36.3 55.5 36.9 55.5 37.4 55.2C38.7 54.4 40.1 53.8 41.6 53.5C42.2 53.4 42.6 52.9 42.7 52.4L43.1 49.6H46.9L47.3 52.4C47.4 53 47.9 53.4 48.4 53.5C49.9 53.9 51.4 54.5 52.6 55.2C53 55.5 53.7 55.5 54.1 55.2L56.4 53.7L59.1 56.4L57.6 58.7C57.3 59.1 57.3 59.8 57.6 60.2C58.4 61.5 59 62.9 59.3 64.4C59.4 65 59.9 65.4 60.4 65.5L63.2 66.1V69.8H63ZM84.4 57.4C84 60.5 81.6 63.6 77.4 63.6H64.2L61.7 63.2C61.4 62.1 60.9 60.9 60.3 59.8L62.1 57.3C62.5 56.7 62.4 56 62 55.5L57.6 51.3C57.2 50.9 56.3 50.7 55.8 51.2L53.3 52.9C52.3 52.3 51.2 51.9 49.9 51.5L49.3 48.4C49.2 47.7 48.6 47.3 47.9 47.3H41.9C41.2 47.3 40.6 47.7 40.5 48.4L39.9 51.5C38.8 51.8 37.6 52.3 36.5 52.9L34.2 51.1C33.6 50.7 32.9 50.8 32.4 51.2L28.2 55.4C27.8 55.8 27.6 56.7 28.1 57.2L29.9 59.7C29.3 60.8 28.9 61.8 28.5 63.1L25.7 63.7C25.1 63.6 26.8 63.7 12.8 63.7C8.29999 63.7 5.99999 60.5 5.79999 57.1C4.99999 46.8 19.9 47.1 19.9 56.5C19.9 57.3 20.5 57.9 21.3 57.9C22.1 57.9 22.7 57.3 22.7 56.5C22.7 50.5 17.2 46.2 12.7 46.7C12.1 42.2 16.2 38 21.3 39C22.1 39.1 23 38.4 23 37.5C23 29.1 33.4 25.4 38.9 31.5C38.9 31.5 38.9 31.6 39 31.6C43.9 37.4 39.8 46.5 32.1 46.5C31.3 46.5 30.7 47.1 30.7 47.9C30.7 48.7 31.3 49.3 32.1 49.3C41.1 49.3 46.9 39.6 42.5 31.7C44 30.6 46 30 48 30.4C53.3 31.4 52.5 36 54.9 35.3C55.6 35.2 58.6 32.1 63.3 33.9C65.6 34.7 67.4 36.6 68.1 38.8C64.3 40.2 61.9 43.9 61.9 47.9C61.9 48.7 62.5 49.3 63.3 49.3C64.1 49.3 64.7 48.7 64.7 47.9C64.7 41.9 71.9 38.5 76.5 43C78 44.4 78.9 46.5 78.8 48.2C78.7 48.9 79.2 49.6 79.8 49.7C83.4 50.6 84.8 54.3 84.4 57.4ZM83.6 16.8C83.6 15.7 84.4 14.8 85.6 14.8C86.8 14.8 87.6 15.6 87.6 16.8C87.6 18 86.8 18.8 85.6 18.8C84.6 18.7 83.6 17.9 83.6 16.8Z" fill="#1B54F8"></path><path d="M45 57.1C39.1 57.1 34.2 62 34.2 67.9C34.2 73.8 39.1 78.7 45 78.7C50.9 78.7 55.9 73.8 55.9 67.9C55.9 62 51 57.1 45 57.1ZM45 76C40.6 76 37 72.3 37 68C37 63.7 40.7 60 45 60C49.3 60 53 63.7 53 68C53.1 72.4 49.4 76 45 76Z" fill="#1B54F8"></path></g></svg> 