<?xml version="1.0" encoding="UTF-8"?> <svg xmlns="http://www.w3.org/2000/svg" width="90" height="90" viewBox="0 0 90 90" fill="none"><mask id="mask0_1_208" style="mask-type:luminance" maskUnits="userSpaceOnUse" x="0" y="0" width="90" height="90"><path d="M90 0H0V90H90V0Z" fill="white"></path></mask><g mask="url(#mask0_1_208)"><path d="M19.8 51.8H70.2C79.4 51.8 86.8 44.4 86.8 35.2C86.8 26.9 80.6 19.9 72.5 18.8C72.2 14.7 70.4 10.9 67.5 8C64.3 4.9 60.1 3.1 55.7 3.1C51.7 3.1 47.8 4.5 44.8 7.1C42 2.9 37.3 0.399994 32.3 0.399994C24 0.399994 17.2 7.2 17.2 15.5C17.2 16.6 17.3 17.7 17.6 18.8C9.50001 20 3.40002 26.9 3.40002 35.2C3.20002 44.3 10.6 51.8 19.8 51.8ZM34.4 49.1C34.4 43.2 39.2 38.5 45 38.5C50.8 38.5 55.6 43.3 55.6 49.1C55.6 49.2 55.6 49.4 55.6 49.5H34.4C34.4 49.4 34.4 49.3 34.4 49.1ZM57.8 49.6C57.8 49.5 57.8 49.3 57.8 49.2C57.8 42.1 52.1 36.4 45 36.4C37.9 36.4 32.2 42.1 32.2 49.2C32.2 49.3 32.2 49.5 32.2 49.6H19.8C19.5 49.6 19.1 49.6 18.8 49.6V46.1C18.8 45.7 19.1 45.3 19.6 45.3H24.1C25.4 45.3 26.5 44.5 26.9 43.3C27.2 42.4 27.6 41.5 28 40.7C28.6 39.5 28.4 38.2 27.4 37.3L24.2 34.1C24.1 34 24 33.8 24 33.6C24 33.4 24.1 33.2 24.2 33.1L28.6 28.7C28.7 28.6 28.9 28.5 29.1 28.5C29.3 28.5 29.5 28.6 29.6 28.7L32.8 31.9C33.7 32.8 35.1 33 36.2 32.5C37.1 32.1 37.9 31.7 38.8 31.4C40 31 40.8 29.9 40.8 28.6V24.1C40.8 23.7 41.1 23.3 41.6 23.3H47.9C48.3 23.3 48.7 23.6 48.7 24.1V28.6C48.7 29.9 49.5 31 50.7 31.4C51.6 31.7 52.5 32.1 53.3 32.5C54.5 33.1 55.8 32.9 56.7 31.9L59.9 28.7C60.2 28.4 60.7 28.4 61 28.7L65.4 33.1C65.5 33.2 65.6 33.4 65.6 33.6C65.6 33.8 65.5 34 65.4 34.1L62.2 37.3C61.3 38.2 61.1 39.6 61.6 40.7C62 41.6 62.4 42.4 62.7 43.3C63.1 44.5 64.2 45.3 65.5 45.3H70C70.4 45.3 70.8 45.6 70.8 46.1V49.6C70.5 49.6 70.1 49.6 69.8 49.6H57.8ZM18.8 20.8C19.1 20.8 19.4 20.6 19.6 20.3C19.8 20 19.8 19.7 19.7 19.3C19.3 18 19.1 16.7 19.1 15.4C19.1 8.29999 24.9 2.5 32 2.5C36.7 2.5 41.1 5.1 43.3 9.2C43.5 9.5 43.8 9.7 44.1 9.8C44.4 9.8 44.8 9.7 45 9.5C47.8 6.7 51.5 5.2 55.4 5.2C63.4 5.2 70 11.7 70.1 19.6C70.1 20.2 70.5 20.6 71.1 20.7C78.5 21.3 84.4 27.6 84.4 35C84.4 41.8 79.6 47.6 73.2 49V45.8C73.2 44.2 71.9 42.8 70.2 42.8H65.7C65.3 42.8 65.1 42.6 65 42.3C64.7 41.3 64.3 40.3 63.8 39.4C63.6 39.1 63.7 38.8 63.9 38.5L67.1 35.3C67.7 34.7 68 34 68 33.2C68 32.4 67.7 31.7 67.1 31.1L62.7 26.7C61.5 25.5 59.7 25.5 58.5 26.7L55.3 29.9C55.1 30.1 54.7 30.2 54.4 30C53.4 29.5 52.5 29.1 51.5 28.8C51.2 28.7 51 28.4 51 28.1V23.6C51 22 49.7 20.6 48 20.6H41.7C40.1 20.6 38.7 21.9 38.7 23.6V28.1C38.7 28.5 38.5 28.7 38.2 28.8C37.2 29.1 36.2 29.5 35.3 30C35 30.2 34.7 30.1 34.4 29.9L31.2 26.7C30.6 26.1 29.9 25.8 29.1 25.8C28.3 25.8 27.6 26.1 27 26.7L22.6 31.1C22 31.7 21.7 32.4 21.7 33.2C21.7 34 22 34.7 22.6 35.3L25.8 38.5C26 38.7 26.1 39.1 25.9 39.4C25.4 40.4 25 41.3 24.7 42.3C24.6 42.6 24.3 42.8 24 42.8H19.5C17.9 42.8 16.5 44.1 16.5 45.8V49C10.1 47.5 5.30002 41.8 5.30002 35C5.40002 27.6 11.3 21.3 18.8 20.8ZM34.4 63.8C34.6 63.6 34.7 63.3 34.7 63L34.5 53.8C34.5 53.2 34 52.7 33.4 52.7C32.8 52.7 32.3 53.2 32.3 53.8L32.5 62.6L26.6 68.7C25.7 68.1 24.6 67.7 23.4 67.7C20.1 67.7 17.5 70.4 17.5 73.6C17.5 76.9 20.2 79.5 23.4 79.5C26.7 79.5 29.3 76.8 29.3 73.6C29.3 72.3 28.9 71.1 28.2 70.1L34.4 63.8ZM23.4 77.5C21.3 77.5 19.7 75.8 19.7 73.8C19.7 71.7 21.4 70.1 23.4 70.1C25.4 70.1 27.1 71.8 27.1 73.8C27.1 75.8 25.4 77.5 23.4 77.5ZM18.4 58C18.6 57.8 18.7 57.5 18.7 57.2V53.8C18.7 53.2 18.2 52.7 17.6 52.7C17 52.7 16.5 53.2 16.5 53.8V56.8L13.7 59.7C12.8 59.1 11.6 58.7 10.4 58.7C7.10002 58.7 4.50002 61.4 4.50002 64.6C4.50002 67.9 7.20002 70.5 10.4 70.5C13.7 70.5 16.3 67.8 16.3 64.6C16.3 63.3 15.9 62.2 15.2 61.2L18.4 58ZM10.5 68.4C8.40002 68.4 6.80002 66.7 6.80002 64.7C6.80002 62.6 8.50002 61 10.5 61C12.5 61 14.2 62.7 14.2 64.7C14.2 66.7 12.5 68.4 10.5 68.4ZM79.5 58.7C78.3 58.7 77.2 59.1 76.2 59.7L73.4 56.8V53.8C73.4 53.2 72.9 52.7 72.3 52.7C71.7 52.7 71.2 53.2 71.2 53.8V57.2C71.2 57.5 71.3 57.8 71.5 58L74.6 61.2C73.9 62.2 73.5 63.3 73.5 64.6C73.5 67.9 76.2 70.5 79.4 70.5C82.7 70.5 85.3 67.8 85.3 64.6C85.4 61.4 82.7 58.7 79.5 58.7ZM79.5 68.4C77.4 68.4 75.8 66.7 75.8 64.7C75.8 62.6 77.5 61 79.5 61C81.6 61 83.2 62.7 83.2 64.7C83.2 66.7 81.5 68.4 79.5 68.4ZM66.5 67.8C65.3 67.8 64.2 68.2 63.3 68.8L57.5 62.7L57.7 53.9C57.7 53.3 57.2 52.8 56.6 52.8C56 52.8 55.5 53.3 55.5 53.9L55.3 63.1C55.3 63.4 55.4 63.7 55.6 63.9L61.8 70.4C61.1 71.4 60.7 72.6 60.7 73.8C60.7 77.1 63.4 79.7 66.6 79.7C69.9 79.7 72.5 77 72.5 73.8C72.5 70.5 69.8 67.8 66.5 67.8ZM66.5 77.5C64.4 77.5 62.8 75.8 62.8 73.8C62.8 71.7 64.5 70.1 66.5 70.1C68.6 70.1 70.2 71.8 70.2 73.8C70.3 75.8 68.6 77.5 66.5 77.5ZM57 72.8C57 72.7 57 72.7 57 72.7V72.6V72.5C57 72.5 57 72.4 56.9 72.4C56.9 72.4 56.9 72.4 56.8 72.3L56.7 72.2L56.6 72.1H56.5L46.2 67.7V54.1C46.2 53.5 45.7 53 45.1 53C44.5 53 44 53.5 44 54.1V67.7L33.7 72.1H33.6C33.6 72.1 33.5 72.1 33.5 72.2L33.4 72.3C33.4 72.3 33.4 72.3 33.3 72.4C33.3 72.4 33.3 72.5 33.2 72.5V72.6V72.7V72.8V72.9V85C33.2 85.4 33.5 85.8 33.9 86L44.9 90.6H45H45.1H45.2H45.3H45.4H45.5L56.5 86C56.9 85.8 57.2 85.4 57.2 85V72.9C57 72.8 57 72.8 57 72.8ZM45 76.3L36.9 72.9L45 69.5L53.1 72.9L45 76.3ZM35.1 74.5L43.9 78.2V87.9L35.1 84.2V74.5ZM54.8 84.2L46 87.9V78.2L54.8 74.5V84.2Z" fill="#1B54F8" stroke="#1B54F8" stroke-width="0.25" stroke-miterlimit="10"></path></g></svg> 