<?xml version="1.0" encoding="UTF-8"?> <svg xmlns="http://www.w3.org/2000/svg" xmlns:xlink="http://www.w3.org/1999/xlink" width="60" height="60" viewBox="0 0 60 60"><defs><clipPath id="clip-path"><rect id="Rectangle_14" data-name="Rectangle 14" width="60" height="60" transform="translate(297 173)" fill="#fff" stroke="#707070" stroke-width="1"></rect></clipPath></defs><g id="Mask_Group_9" data-name="Mask Group 9" transform="translate(-297 -173)" clip-path="url(#clip-path)"><g id="Group_15" data-name="Group 15" transform="translate(-56.394 -10.453)"><path id="Path_27" data-name="Path 27" d="M30.6,46.906H6.193a3.578,3.578,0,0,1-3.574-3.574V3.574A3.578,3.578,0,0,1,6.193,0H30.6a3.578,3.578,0,0,1,3.574,3.574V43.336A3.578,3.578,0,0,1,30.6,46.906ZM6.193,1.466A2.11,2.11,0,0,0,4.085,3.574V43.336a2.11,2.11,0,0,0,2.108,2.108H30.6A2.108,2.108,0,0,0,32.7,43.336V3.574A2.11,2.11,0,0,0,30.6,1.466Z" transform="translate(365 190)" fill="#1c54f8" stroke="#fff" stroke-width="0.2"></path><rect id="Rectangle_48" data-name="Rectangle 48" width="31.55" height="1.466" transform="translate(367.619 196.139)" fill="#1c54f8" stroke="#fff" stroke-width="0.2"></rect><rect id="Rectangle_49" data-name="Rectangle 49" width="31.55" height="1.466" transform="translate(367.619 227.745)" fill="#1c54f8" stroke="#fff" stroke-width="0.2"></rect><path id="Path_28" data-name="Path 28" d="M9.63,18.52A2.476,2.476,0,1,1,12.1,16.045,2.479,2.479,0,0,1,9.63,18.52Zm0-3.486a1.01,1.01,0,1,0,1.008,1.011A1.011,1.011,0,0,0,9.63,15.034Z" transform="translate(373.764 216.209)" fill="#1c54f8" stroke="#fff" stroke-width="0.2"></path><path id="Path_29" data-name="Path 29" d="M12.967,1.795a.735.735,0,0,1-.733.733h-4.1a.733.733,0,0,1-.733-.733h0a.733.733,0,0,1,.733-.733h4.1a.737.737,0,0,1,.733.733Z" transform="translate(374.247 192.051)" fill="#1c54f8" stroke="#fff" stroke-width="0.2"></path><circle id="Ellipse_4" data-name="Ellipse 4" cx="0.733" cy="0.733" r="0.733" transform="translate(379.577 193.113)" fill="#1c54f8" stroke="#fff" stroke-width="0.2"></circle><path id="Path_30" data-name="Path 30" d="M9.8,7.929v4.521H5.281V7.929H9.8m.583-1.466H4.691a.883.883,0,0,0-.879.882v5.69a.883.883,0,0,0,.879.882h5.693a.883.883,0,0,0,.882-.882V7.345a.883.883,0,0,0-.882-.882Z" transform="translate(367.304 202.484)" fill="#1c54f8" stroke="#fff" stroke-width="0.2"></path><path id="Path_31" data-name="Path 31" d="M9.8,5.117V9.637H5.278V5.117H9.8m.583-1.466H4.691a.88.88,0,0,0-.879.879v5.693a.88.88,0,0,0,.879.879h5.69a.881.881,0,0,0,.882-.879V4.53a.883.883,0,0,0-.882-.879Z" transform="translate(367.304 197.052)" fill="#1c54f8" stroke="#fff" stroke-width="0.2"></path><path id="Path_32" data-name="Path 32" d="M9.8,10.741v4.524H5.281V10.741H9.8m.583-1.466H4.691a.883.883,0,0,0-.879.882v5.69a.883.883,0,0,0,.879.882h5.693a.883.883,0,0,0,.882-.882v-5.69a.883.883,0,0,0-.882-.882Z" transform="translate(367.304 207.916)" fill="#1c54f8" stroke="#fff" stroke-width="0.2"></path><path id="Path_33" data-name="Path 33" d="M15.636,7.929v4.524H11.113V7.929h4.524m.583-1.466H10.526a.883.883,0,0,0-.882.882v5.69a.883.883,0,0,0,.882.882h5.69a.883.883,0,0,0,.882-.882V7.345a.879.879,0,0,0-.879-.882Z" transform="translate(378.57 202.484)" fill="#1c54f8" stroke="#fff" stroke-width="0.2"></path><path id="Path_34" data-name="Path 34" d="M15.636,5.117V9.637H11.113V5.117h4.524m.583-1.466H10.526a.881.881,0,0,0-.882.879v5.69a.883.883,0,0,0,.882.882h5.69a.883.883,0,0,0,.882-.882V4.53a.878.878,0,0,0-.879-.879Z" transform="translate(378.57 197.052)" fill="#1c54f8" stroke="#fff" stroke-width="0.2"></path><path id="Path_35" data-name="Path 35" d="M15.636,10.741v4.524H11.113V10.741h4.524m.583-1.466H10.526a.883.883,0,0,0-.882.882v5.69a.883.883,0,0,0,.882.882h5.69a.883.883,0,0,0,.882-.882v-5.69a.879.879,0,0,0-.879-.882Z" transform="translate(378.57 207.916)" fill="#1c54f8" stroke="#fff" stroke-width="0.2"></path><path id="Path_36" data-name="Path 36" d="M12.717,7.929v4.524H8.194V7.929h4.524M13.3,6.463H7.61a.883.883,0,0,0-.882.882v5.69a.883.883,0,0,0,.882.882H13.3a.883.883,0,0,0,.882-.882V7.345a.885.885,0,0,0-.882-.882Z" transform="translate(372.937 202.484)" fill="#1c54f8" stroke="#fff" stroke-width="0.2"></path><path id="Path_37" data-name="Path 37" d="M12.714,5.117V9.637H8.194V5.117h4.521M13.3,3.651H7.607a.88.88,0,0,0-.879.879v5.69a.883.883,0,0,0,.879.882H13.3a.883.883,0,0,0,.882-.882V4.53a.883.883,0,0,0-.882-.879Z" transform="translate(372.937 197.052)" fill="#1c54f8" stroke="#fff" stroke-width="0.2"></path><path id="Path_38" data-name="Path 38" d="M12.717,10.741v4.524H8.194V10.741h4.524M13.3,9.275H7.61a.883.883,0,0,0-.882.882v5.69a.883.883,0,0,0,.882.882H13.3a.883.883,0,0,0,.882-.882v-5.69a.885.885,0,0,0-.882-.882Z" transform="translate(372.937 207.916)" fill="#1c54f8" stroke="#fff" stroke-width="0.2"></path></g></g></svg> 