<?xml version="1.0" encoding="UTF-8"?> <!-- Generator: Adobe Illustrator 25.2.2, SVG Export Plug-In . SVG Version: 6.00 Build 0) --> <svg xmlns="http://www.w3.org/2000/svg" xmlns:xlink="http://www.w3.org/1999/xlink" version="1.1" id="Layer_1" x="0px" y="0px" viewBox="0 0 80 80" style="enable-background:new 0 0 80 80;" xml:space="preserve"> <style type="text/css"> .st0{fill:#1B54F8;} </style> <desc>Created with Sketch.</desc> <g id="Mobile-App-Development"> <g id="Shape-5" transform="translate(10.000000, 13.000000)"> <path id="Shape" class="st0" d="M18.6,27c0,6.2,5,11.2,11.2,11.2S41,33.2,41,27s-5-11.2-11.2-11.2S18.6,20.8,18.6,27z M29.8,17.7 c5.1,0,9.3,4.2,9.3,9.3s-4.2,9.3-9.3,9.3s-9.3-4.2-9.3-9.3S24.7,17.7,29.8,17.7z M32.9,29.1L35,27l-2.1-2.1l1.3-1.3l3.5,3.5 l-3.5,3.5L32.9,29.1z M22,27l3.5-3.5l1.3,1.3L24.6,27l2.1,2.1l-1.3,1.3L22,27z M29.8,31.8l-1.8-0.4l1.9-9.3l1.8,0.4L29.8,31.8z M50.3,9.3v9.3h9.3V9.3H50.3z M57.7,16.8h-5.6v-5.6h5.6V16.8z M55.9,14.9H54V13h1.9V14.9z M39.1,13h9.3v1.9h-9.3V13z M20.5,16.8 h-9.3v-1.9h9.3V16.8z M0,20.5h9.3v-9.3H0V20.5z M1.9,13h5.6v5.6H1.9V13z M3.7,14.9h1.9v1.9H3.7V14.9z M20.5,41h-9.3v-1.9h9.3V41z M0,44.7h9.3v-9.3H0V44.7z M1.9,37.2h5.6v5.6H1.9V37.2z M3.7,39.1h1.9V41H3.7V39.1z M39.1,37.2h9.3v1.9h-9.3V37.2z M50.3,42.8h9.3 v-9.3h-9.3V42.8z M52.1,35.4h5.6V41h-5.6V35.4z M54,37.2h1.9v1.9H54V37.2z M32.6,49.3H27v-1.9h5.6V49.3z M28.9,4.7h5.6v1.9h-5.6 V4.7z M25.1,4.7H27v1.9h-1.9V4.7z M44.7,42.8H13v7.4c0,2.1,1.7,3.7,3.7,3.7h26.1c2.1,0,3.7-1.7,3.7-3.7V41h-1.9V42.8z M44.7,50.3 c0,1-0.8,1.9-1.9,1.9H16.8c-1,0-1.9-0.8-1.9-1.9v-5.6h29.8V50.3z M13,37.2V18.6h1.9v18.6H13z M14.9,11.2h31.7V3.7 c0-2.1-1.7-3.7-3.7-3.7H16.8C14.7,0,13,1.7,13,3.7V13h1.9V11.2z M14.9,3.7c0-1,0.8-1.9,1.9-1.9h26.1c1,0,1.9,0.8,1.9,1.9v5.6H14.9 V3.7z M46.6,16.8v18.6h-1.9V16.8H46.6z"></path> </g> </g> </svg> 