<?xml version="1.0" encoding="UTF-8"?> <svg xmlns="http://www.w3.org/2000/svg" xmlns:xlink="http://www.w3.org/1999/xlink" width="90" height="90" viewBox="0 0 90 90"><defs><clipPath id="clip-path"><rect id="Rectangle_20" data-name="Rectangle 20" width="90" height="90" transform="translate(828 147)" fill="#fff" stroke="#707070" stroke-width="1"></rect></clipPath></defs><g id="Mask_Group_13" data-name="Mask Group 13" transform="translate(-828 -147)" clip-path="url(#clip-path)"><g id="Group_183" data-name="Group 183" transform="translate(832 162)"><path id="Path_250" data-name="Path 250" d="M283.468,132.471a3.749,3.749,0,0,0-2.715-1.151h0a3.747,3.747,0,0,0-2.717,1.155,3.794,3.794,0,0,0-.4,4.752l10.849,15.907a6.821,6.821,0,0,0,5.638,2.979h13a5.819,5.819,0,0,0,5.49-3.9,55.024,55.024,0,0,0,3.069-18.142v-4.25a4.281,4.281,0,0,0-4.276-4.276,4.235,4.235,0,0,0-2.749,1.029,4.113,4.113,0,0,0-6.575-1.508,4.15,4.15,0,0,0-6.071-1.621V119.08h3.822a.92.92,0,0,0,.92-.92V96.45a.92.92,0,0,0-.92-.92h-21.72a.92.92,0,0,0-.92.92v21.711a.92.92,0,0,0,.92.92h9.082v17.237Zm12.543-5.57a2.336,2.336,0,1,1,4.672,0v5.874a.92.92,0,0,0,1.84,0v-4.632a2.3,2.3,0,0,1,4.605,0v4.923a.92.92,0,1,0,1.84,0v-3.245a2.437,2.437,0,1,1,4.873,0v4.25a53.184,53.184,0,0,1-2.967,17.536,3.979,3.979,0,0,1-3.753,2.666h-13A4.983,4.983,0,0,1,290,152.1l-10.848-15.907a1.946,1.946,0,0,1,.207-2.439,1.924,1.924,0,0,1,1.395-.593h0a1.926,1.926,0,0,1,1.394.591l5.3,5.481,0,0a.908.908,0,0,0,.55.257c.032,0,.062.019.094.019l.013,0a.9.9,0,0,0,.2-.039.925.925,0,0,0,.145-.029.915.915,0,0,0,.251-.161c.015-.013.034-.017.048-.031l0,0a.907.907,0,0,0,.223-.384.932.932,0,0,0,.054-.266s0,0,0-.006V118.179c0-.006,0-.012,0-.018s0-.012,0-.018v-1.815a2.569,2.569,0,1,1,5.138,0v1.815c0,.006,0,.012,0,.018a.18.18,0,0,0,0,.018v8.283a.923.923,0,0,0,.031.157c-.006.095-.029.185-.029.282v5.873a.92.92,0,1,0,1.84,0Zm-16.981-9.659V97.369h19.881v19.873h-2.9v-.913a4.409,4.409,0,1,0-8.817,0v.913Z" transform="translate(-248.18 -95.53)" fill="#1b54f8" stroke="#1b54f8" stroke-width="0.6"></path><path id="Path_251" data-name="Path 251" d="M124.242,95.535H102.528a.92.92,0,0,0-.92.92v21.714a.92.92,0,0,0,.92.92h21.714a.92.92,0,0,0,.92-.92V96.455A.92.92,0,0,0,124.242,95.535Zm-.919,21.714H103.448V97.374h19.875Z" transform="translate(-101.608 -95.534)" fill="#1b54f8" stroke="#1b54f8" stroke-width="0.6"></path><path id="Path_252" data-name="Path 252" d="M477.592,119.09a.92.92,0,0,0,.92-.92V96.457a.92.92,0,0,0-.92-.92H455.878a.92.92,0,0,0-.92.92v21.714a.92.92,0,0,0,.92.92ZM456.8,97.377h19.875v19.876H456.8Z" transform="translate(-396.934 -95.536)" fill="#1b54f8" stroke="#1b54f8" stroke-width="0.6"></path><path id="Path_253" data-name="Path 253" d="M320.4,133.389a.919.919,0,0,0-1.3,0l-8.723,8.722-2.484-2.483a.919.919,0,1,0-1.3,1.3l3.134,3.133a.92.92,0,0,0,1.3,0l9.372-9.372a.92.92,0,0,0,0-1.3Z" transform="translate(-272.705 -126.947)" fill="#1b54f8" stroke="#1b54f8" stroke-width="0.6"></path></g></g></svg> 