<?xml version="1.0" encoding="UTF-8"?> <svg xmlns="http://www.w3.org/2000/svg" xmlns:xlink="http://www.w3.org/1999/xlink" width="90" height="90" viewBox="0 0 90 90"><defs><clipPath id="clip-path"><rect id="Rectangle_25" data-name="Rectangle 25" width="90" height="90" transform="translate(504 551)" fill="#fff" stroke="#707070" stroke-width="1"></rect></clipPath></defs><g id="Mask_Group_11" data-name="Mask Group 11" transform="translate(-504 -551)" clip-path="url(#clip-path)"><g id="Group_9" data-name="Group 9" transform="translate(16.951 -164)"><path id="Path_51" data-name="Path 51" d="M168.523,95.2a10.331,10.331,0,0,0-9.994,8h-8.28c-.072,0-.143,0-.214,0a2.287,2.287,0,1,0,.214,4.569h8.28a10.244,10.244,0,0,0,19.988,0h49.4a2.285,2.285,0,1,0,0-4.569h-49.4a10.33,10.33,0,0,0-9.994-8Zm0,4.569a5.711,5.711,0,1,1-5.711,5.711A5.676,5.676,0,0,1,168.523,99.768Zm41.119,22.844a10.279,10.279,0,1,0,9.994,12.563h8.28a2.284,2.284,0,1,0,0-4.568h-8.28a10.331,10.331,0,0,0-9.994-8Zm-23.094,1.106a2.285,2.285,0,0,0-1.356,3.926l2.962,2.963H150.247c-.072,0-.143,0-.214,0a2.287,2.287,0,1,0,.214,4.568h37.906l-2.962,2.927a2.285,2.285,0,1,0,3.212,3.248l6.853-6.853a2.284,2.284,0,0,0,0-3.248L188.4,124.4a2.284,2.284,0,0,0-1.856-.679Zm23.094,3.463a5.711,5.711,0,1,1-5.711,5.711A5.676,5.676,0,0,1,209.642,127.18Zm-41.119,22.844a10.331,10.331,0,0,0-9.994,8h-8.28c-.072,0-.143,0-.214,0a2.287,2.287,0,1,0,.214,4.569h8.28a10.244,10.244,0,0,0,19.988,0h49.4a2.285,2.285,0,1,0,0-4.569h-49.4a10.33,10.33,0,0,0-9.994-8Zm0,4.568a5.711,5.711,0,1,1-5.711,5.711A5.677,5.677,0,0,1,168.523,154.592Z" transform="translate(343.196 626.801)" fill="#1b54f8" stroke="#fff" stroke-width="2"></path></g></g></svg> 