<?xml version="1.0" encoding="UTF-8"?> <svg xmlns="http://www.w3.org/2000/svg" width="61" height="61" viewBox="0 0 61 61" fill="none"><mask id="mask0_1_210" style="mask-type:luminance" maskUnits="userSpaceOnUse" x="0" y="0" width="61" height="61"><path d="M60.4 0.100006H0.400024V60.1H60.4V0.100006Z" fill="white"></path></mask><g mask="url(#mask0_1_210)"><path d="M59.9 26.2C59.9 26 59.8 25.9 59.6 25.8L54 23.4C53.5 21.4 52.6 19.4 51.6 17.6L53.8 12C53.9 11.8 53.8 11.7 53.7 11.5C52.2 9.6 50.5 7.89999 48.6 6.39999C48.5 6.29999 48.3 6.29999 48.1 6.29999L42.5 8.5C40.7 7.4 38.7 6.60001 36.7 6.10001L34.3 0.5C34.2 0.3 34.1 0.200012 33.9 0.200012C32.7 0.100012 31.5 0 30.3 0C29.1 0 27.9 0.100012 26.7 0.200012C26.5 0.200012 26.4 0.3 26.3 0.5L23.9 6.10001C21.9 6.60001 19.9 7.5 18.1 8.5L12.5 6.29999C12.3 6.19999 12.2 6.29999 12 6.39999C10.1 7.89999 8.40002 9.6 6.90002 11.5C6.80002 11.6 6.79999 11.8 6.79999 12L9 17.6C7.9 19.4 7.09998 21.4 6.59998 23.4L1 25.8C0.8 25.9 0.700012 26 0.700012 26.2C0.600012 27.4 0.5 28.6 0.5 29.8C0.5 31 0.600012 32.2 0.700012 33.4C0.700012 33.6 0.8 33.7 1 33.8L6.59998 36.2C7.09998 38.2 8 40.2 9 42L6.79999 47.6C6.69999 47.8 6.80002 47.9 6.90002 48.1C8.40002 50 10.1 51.7 12 53.2C12.1 53.3 12.3 53.3 12.5 53.3L18.1 51.1C19.9 52.2 21.9 53 23.9 53.5L26.3 59.1C26.4 59.3 26.5 59.4 26.7 59.4C27.9 59.5 29.1 59.6 30.3 59.6C31.5 59.6 32.7 59.5 33.9 59.4C34.1 59.4 34.2 59.3 34.3 59.1L36.7 53.5C38.7 53 40.7 52.1 42.5 51.1L48.1 53.3C48.3 53.4 48.4 53.3 48.6 53.2C50.5 51.7 52.2 50 53.7 48.1C53.8 48 53.8 47.8 53.8 47.6L51.6 42C52.7 40.2 53.5 38.2 54 36.2L59.6 33.8C59.8 33.7 59.9 33.6 59.9 33.4C60 32.2 60.1 31 60.1 29.8C60.1 28.7 60 27.4 59.9 26.2ZM59 33.1L53.5 35.5C53.4 35.6 53.3 35.7 53.2 35.8C52.7 37.9 51.8 39.9 50.7 41.8C50.6 41.9 50.6 42.1 50.7 42.2L52.9 47.8C51.5 49.5 50 51 48.3 52.4L42.7 50.2C42.6 50.1 42.4 50.2 42.3 50.2C40.4 51.3 38.4 52.1 36.3 52.7C36.2 52.7 36 52.8 36 53L33.6 58.5C32.5 58.6 31.4 58.7 30.4 58.7C29.3 58.7 28.2 58.6 27.2 58.5L24.8 53C24.7 52.9 24.6 52.8 24.5 52.7C22.4 52.2 20.4 51.3 18.5 50.2C18.4 50.1 18.2 50.1 18.1 50.2L12.5 52.4C10.8 51 9.30002 49.5 7.90002 47.8L10.1 42.2C10.2 42.1 10.1 41.9 10.1 41.8C8.99998 39.9 8.19998 37.9 7.59998 35.8C7.59998 35.7 7.49999 35.5 7.29999 35.5L1.79999 33.1C1.69999 32 1.59998 30.9 1.59998 29.9C1.59998 28.8 1.69999 27.7 1.79999 26.7L7.29999 24.3C7.39999 24.2 7.49998 24.1 7.59998 24C8.09998 21.9 8.99998 19.9 10.1 18C10.2 17.9 10.2 17.7 10.1 17.6L7.90002 12C9.30002 10.3 10.8 8.79999 12.5 7.39999L18.1 9.60001C18.2 9.70001 18.4 9.60001 18.5 9.60001C20.4 8.50001 22.4 7.70001 24.5 7.10001C24.6 7.10001 24.8 6.99999 24.8 6.79999L27.2 1.29999C28.3 1.19999 29.4 1.10001 30.4 1.10001C31.5 1.10001 32.6 1.19999 33.6 1.29999L36 6.79999C36.1 6.89999 36.2 7.00001 36.3 7.10001C38.4 7.60001 40.4 8.50001 42.3 9.60001C42.4 9.70001 42.6 9.70001 42.7 9.60001L48.3 7.39999C50 8.79999 51.5 10.3 52.9 12L50.7 17.6C50.6 17.7 50.7 17.9 50.7 18C51.8 19.9 52.6 21.9 53.2 24C53.2 24.1 53.3 24.3 53.5 24.3L59 26.7C59.1 27.8 59.2 28.9 59.2 29.9C59.2 30.9 59.1 32 59 33.1Z" fill="#1B54F8" stroke="#1B54F8" stroke-miterlimit="10"></path><path d="M30.4 11.3C20.2 11.3 11.9 19.6 11.9 29.8C11.9 40 20.2 48.3 30.4 48.3C40.6 48.3 48.9 40 48.9 29.8C48.9 19.6 40.6 11.3 30.4 11.3ZM30.4 47.4C20.7 47.4 12.8 39.5 12.8 29.8C12.8 20.1 20.7 12.2 30.4 12.2C40.1 12.2 48 20.1 48 29.8C48 39.5 40.1 47.4 30.4 47.4Z" fill="#1B54F8" stroke="#1B54F8" stroke-miterlimit="10"></path><path d="M30.9 30.4V18.2C30.9 17.9 30.7 17.7 30.4 17.7C30.1 17.7 29.9 17.9 29.9 18.2V30.4C28.3 30.6 27.1 32 27.1 33.6C27.1 35.2 28.3 36.6 29.9 36.8V41.4C29.9 41.7 30.1 41.9 30.4 41.9C30.7 41.9 30.9 41.7 30.9 41.4V36.8C32.5 36.6 33.7 35.2 33.7 33.6C33.6 32 32.4 30.7 30.9 30.4ZM28.1 33.6C28.1 32.3 29.1 31.3 30.4 31.3C31.7 31.3 32.7 32.3 32.7 33.6C32.7 34.9 31.7 35.9 30.4 35.9C29.1 36 28.1 34.9 28.1 33.6Z" fill="#1B54F8" stroke="#1B54F8" stroke-miterlimit="10"></path><path d="M40.4 21.1V18.3C40.4 18 40.2 17.8 39.9 17.8C39.6 17.8 39.4 18 39.4 18.3V21.1C37.8 21.3 36.6 22.7 36.6 24.3C36.6 25.9 37.8 27.3 39.4 27.5V41.5C39.4 41.8 39.6 42 39.9 42C40.2 42 40.4 41.8 40.4 41.5V27.5C42 27.3 43.2 25.9 43.2 24.3C43.2 22.7 41.9 21.3 40.4 21.1ZM37.6 24.3C37.6 23 38.6 22 39.9 22C41.2 22 42.2 23 42.2 24.3C42.2 25.6 41.2 26.6 39.9 26.6C38.6 26.6 37.6 25.6 37.6 24.3Z" fill="#1B54F8" stroke="#1B54F8" stroke-miterlimit="10"></path><path d="M21.3 26.6V18.2C21.3 17.9 21.1 17.7 20.8 17.7C20.5 17.7 20.3 17.9 20.3 18.2V26.6C18.7 26.8 17.5 28.2 17.5 29.8C17.5 31.4 18.7 32.8 20.3 33V41.4C20.3 41.7 20.5 41.9 20.8 41.9C21.1 41.9 21.3 41.7 21.3 41.4V33C22.9 32.8 24.1 31.4 24.1 29.8C24.1 28.2 22.9 26.9 21.3 26.6ZM18.5 29.8C18.5 28.5 19.5 27.5 20.8 27.5C22.1 27.5 23.1 28.5 23.1 29.8C23.1 31.1 22.1 32.1 20.8 32.1C19.5 32.1 18.5 31.1 18.5 29.8Z" fill="#1B54F8" stroke="#1B54F8" stroke-miterlimit="10"></path></g></svg> 