<?xml version="1.0" encoding="UTF-8"?> <svg xmlns="http://www.w3.org/2000/svg" xmlns:xlink="http://www.w3.org/1999/xlink" width="90" height="90" viewBox="0 0 90 90"><defs><clipPath id="clip-path"><rect id="Rectangle_22" data-name="Rectangle 22" width="90" height="90" transform="translate(1471 338)" fill="#fff" stroke="#707070" stroke-width="1"></rect></clipPath></defs><g id="Mask_Group_38" data-name="Mask Group 38" transform="translate(-1471 -338)" clip-path="url(#clip-path)"><g id="Group_54" data-name="Group 54" transform="translate(-243.032 50)"><g id="Group_53" data-name="Group 53" transform="translate(1721.032 298)"><path id="Path_185" data-name="Path 185" d="M5.1,27.338a1.767,1.767,0,0,1,0-3.534h6.417a11.373,11.373,0,0,1,22.468,0H76.915a1.767,1.767,0,0,1,0,3.534H33.982a11.373,11.373,0,0,1-22.468,0H5.1ZM32.474,40.95a1.763,1.763,0,1,1,2.609-2.373l8.744,9.6a1.763,1.763,0,0,1,0,2.373l-8.744,9.6a1.763,1.763,0,1,1-2.609-2.373l6.055-6.652H5.1a1.767,1.767,0,0,1,0-3.534H38.529l-6.055-6.652ZM22.747,61.792a11.376,11.376,0,0,1,11.235,9.6H76.915a1.767,1.767,0,0,1,0,3.534H33.982a11.373,11.373,0,0,1-22.468,0H5.1a1.767,1.767,0,1,1,0-3.534h6.417a11.376,11.376,0,0,1,11.233-9.6Zm5.543,5.826a7.841,7.841,0,1,0,2.3,5.543A7.815,7.815,0,0,0,28.29,67.618Zm30.973-26.09a7.836,7.836,0,1,0,5.543,2.3A7.821,7.821,0,0,0,59.262,41.528Zm-8.041-.2A11.373,11.373,0,0,1,70.5,47.6h6.417a1.767,1.767,0,1,1,0,3.534H70.5a11.371,11.371,0,1,1-19.274-9.808ZM28.29,20.031a7.841,7.841,0,1,0,2.3,5.543A7.815,7.815,0,0,0,28.29,20.031Z" transform="translate(-3.33 -14.2)" fill="#1c54f8" stroke="#fff" stroke-width="1"></path></g></g></g></svg> 