<?xml version="1.0" encoding="UTF-8"?> <svg xmlns="http://www.w3.org/2000/svg" xmlns:xlink="http://www.w3.org/1999/xlink" width="90" height="90" viewBox="0 0 90 90"><defs><clipPath id="clip-path"><rect id="Rectangle_23" data-name="Rectangle 23" width="90" height="90" transform="translate(1020 470)" fill="#fff" stroke="#707070" stroke-width="1"></rect></clipPath></defs><g id="Mask_Group_19" data-name="Mask Group 19" transform="translate(-1020 -470)" clip-path="url(#clip-path)"><g id="Group_16" data-name="Group 16" transform="translate(-1.871 113.271)"><g id="Group_15" data-name="Group 15" transform="translate(1029.494 366)"><path id="Path_67" data-name="Path 67" d="M39.509,77.386A15.427,15.427,0,0,1,38.1,78.3a15.609,15.609,0,0,1-1.483.756v6.16a1.576,1.576,0,0,1-1.575,1.575h-9.7a1.576,1.576,0,0,1-1.575-1.575v-6.16a15.851,15.851,0,0,1-2.887-1.669L15.55,80.467A1.57,1.57,0,0,1,13.4,79.9L8.555,71.5a1.57,1.57,0,0,1,.571-2.146l5.338-3.079a15.938,15.938,0,0,1-.09-1.674,16.422,16.422,0,0,1,.087-1.667L9.126,59.849A1.57,1.57,0,0,1,8.555,57.7L13.4,49.31a1.568,1.568,0,0,1,2.139-.578l5.345,3.083a15.092,15.092,0,0,1,1.4-.914,15.608,15.608,0,0,1,1.483-.756V43.981a1.576,1.576,0,0,1,1.575-1.575h9.7a1.576,1.576,0,0,1,1.575,1.575v6.164A16.536,16.536,0,0,1,38.1,50.9a15.626,15.626,0,0,1,1.4.914l5.343-3.083a1.567,1.567,0,0,1,2.139.578l4.849,8.4a1.568,1.568,0,0,1-.574,2.137L45.924,62.93a15.843,15.843,0,0,1,.087,1.669,16.423,16.423,0,0,1-.087,1.667l5.336,3.081a1.57,1.57,0,0,1,.571,2.146l-4.849,8.393a1.568,1.568,0,0,1-2.139.578L39.5,77.384ZM76.546,39.325l-.031.078c-.163.423-.323.8-.477,1.11-.165.338-.359.692-.578,1.058l-.047.078,2.85,4.228a1.57,1.57,0,0,1-.425,2.182l-6.852,4.618a1.57,1.57,0,0,1-2.182-.425l-2.85-4.228c-.427.071-.859.123-1.3.151s-.852.04-1.284.028L61.138,52.78a1.571,1.571,0,0,1-2.1.725l-7.423-3.626a1.571,1.571,0,0,1-.725-2.1l2.238-4.583q-.407-.5-.77-1.039c-.243-.361-.467-.732-.673-1.107l-5.09.354a1.572,1.572,0,0,1-1.672-1.464l-.571-8.242a1.572,1.572,0,0,1,1.464-1.672l5.088-.354.031-.08c.146-.38.307-.751.479-1.1a11.959,11.959,0,0,1,.574-1.067l.045-.071L49.18,23.12a1.57,1.57,0,0,1,.425-2.182l6.852-4.618a1.57,1.57,0,0,1,2.182.425l2.85,4.231q.637-.106,1.287-.151c.427-.031.857-.04,1.291-.028l2.238-4.58a1.571,1.571,0,0,1,2.1-.725l7.423,3.626a1.571,1.571,0,0,1,.725,2.1l-2.238,4.585a12.749,12.749,0,0,1,.77,1.034l.061.1c.22.333.425.671.611,1.015l5.093-.352a1.572,1.572,0,0,1,1.672,1.464l.571,8.242a1.572,1.572,0,0,1-1.464,1.672l-5.088.354ZM73.59,38.284c.1-.25.194-.548.29-.885a1.572,1.572,0,0,1,1.407-1.138l4.564-.316L79.5,30.838l-4.526.314a1.569,1.569,0,0,1-1.591-.93,10.617,10.617,0,0,0-.843-1.549l-.057-.078a10.392,10.392,0,0,0-1.1-1.376,1.575,1.575,0,0,1-.354-1.851l2.012-4.115-4.6-2.245-2.009,4.11a1.582,1.582,0,0,1-1.582.874,10.56,10.56,0,0,0-3.69.26,1.575,1.575,0,0,1-1.693-.645L56.9,19.8l-4.245,2.859,2.557,3.8a1.583,1.583,0,0,1-.035,1.8c-.153.212-.312.446-.465.7l-.045.078c-.153.257-.3.531-.444.819a8.442,8.442,0,0,0-.378.848c-.1.253-.189.524-.272.81a1.573,1.573,0,0,1-1.428,1.216l-4.564.316.354,5.107,4.524-.314a1.572,1.572,0,0,1,1.594.93,10.417,10.417,0,0,0,2,3.006,1.575,1.575,0,0,1,.354,1.851L54.4,47.74,59,49.985,61,45.875A1.582,1.582,0,0,1,62.585,45a10.668,10.668,0,0,0,1.863.033,10.51,10.51,0,0,0,1.83-.293,1.575,1.575,0,0,1,1.693.645l2.559,3.8,4.245-2.859-2.557-3.8a1.583,1.583,0,0,1,.035-1.8c.17-.231.34-.493.51-.774.144-.238.293-.517.441-.824.163-.331.29-.616.38-.85ZM67.175,27.426a7.866,7.866,0,1,1-6.006-.371A7.845,7.845,0,0,1,67.175,27.426ZM68.19,32.96a4.725,4.725,0,1,0-.224,3.61A4.7,4.7,0,0,0,68.19,32.96ZM59.15,66.006a1.571,1.571,0,1,1,3.062.7l-.628,2.717a16.842,16.842,0,0,0,8.344-2.243,17.957,17.957,0,0,0,6.644-7.42,1.574,1.574,0,1,1,2.793,1.452,21.036,21.036,0,0,1-7.838,8.672,19.33,19.33,0,0,1-8.185,2.576l1.693,1.693a1.574,1.574,0,0,1-2.226,2.226L58.5,72.074a1.582,1.582,0,0,1-.418-1.464L59.145,66ZM39.842,32.514a1.571,1.571,0,1,1-3.062-.7l.628-2.717a16.974,16.974,0,0,0-8.164,2.137l-.073.045a17.9,17.9,0,0,0-6.75,7.482,1.574,1.574,0,0,1-2.793-1.452,20.974,20.974,0,0,1,7.956-8.747l.09-.047a19.424,19.424,0,0,1,7.973-2.455l-1.693-1.693a1.574,1.574,0,0,1,2.226-2.226l4.306,4.306a1.582,1.582,0,0,1,.418,1.464l-1.062,4.6ZM36.53,75.583a12.672,12.672,0,0,0,1.83-1.284,1.58,1.58,0,0,1,1.8-.161l4.9,2.828,3.279-5.683L43.523,68.5a1.577,1.577,0,0,1-.845-1.676,12.99,12.99,0,0,0,0-4.455,1.577,1.577,0,0,1,.763-1.629l4.9-2.828L45.057,52.23l-4.9,2.831a1.565,1.565,0,0,1-1.79-.161,12.82,12.82,0,0,0-3.744-2.184A1.576,1.576,0,0,1,33.475,51.2V45.556H26.925V51.2a1.581,1.581,0,0,1-1.039,1.476,12.756,12.756,0,0,0-3.77,2.156,1.575,1.575,0,0,1-1.879.229l-4.9-2.828-3.279,5.68,4.816,2.781a1.577,1.577,0,0,1,.845,1.676,12.713,12.713,0,0,0-.194,2.226,12.978,12.978,0,0,0,.194,2.231,1.579,1.579,0,0,1-.77,1.629l-4.892,2.824,3.282,5.683,4.854-2.8a1.57,1.57,0,0,1,1.839.139,12.6,12.6,0,0,0,3.74,2.186A1.578,1.578,0,0,1,26.923,78v5.645h6.549V78a1.581,1.581,0,0,1,1.039-1.476,12.565,12.565,0,0,0,2.019-.94ZM30.2,55.635a8.965,8.965,0,1,1-6.337,15.3l-.085-.092A8.965,8.965,0,0,1,30.2,55.635Zm4.115,4.849a5.821,5.821,0,0,0-8.3,8.164l.071.066a5.818,5.818,0,0,0,8.228-8.228Z" transform="translate(-8.343 -15.331)" fill="#1c54f8" stroke="#fff" stroke-width="0.4"></path></g></g></g></svg> 