<?xml version="1.0" encoding="UTF-8"?> <svg xmlns="http://www.w3.org/2000/svg" width="80" height="80" viewBox="0 0 80 80"><g id="Group_765" data-name="Group 765" transform="translate(-2138 -423)"><rect id="Rectangle_128" data-name="Rectangle 128" width="80" height="80" transform="translate(2138 423)" fill="#f6f6f6" opacity="0"></rect><g id="Group_761" data-name="Group 761" transform="translate(206.456 125)"><path id="Path_729" data-name="Path 729" d="M233.731,280.1a.908.908,0,0,0-.791,0l-5.037,2.783a.831.831,0,0,0-.4.656v5.567a.835.835,0,0,0,.4.66l5.037,2.783h0a.905.905,0,0,0,.791,0l5.032-2.783h0a.832.832,0,0,0,.4-.66v-5.567a.832.832,0,0,0-.4-.66Zm3.488,8.3-3.886,2.147-3.886-2.147v-4.148l3.886-2.147,3.886,2.147Z" transform="translate(1729.613 58.087)" fill="#1b54f8"></path><path id="Path_730" data-name="Path 730" d="M393.768,116.248l-11.745-6.635a2.084,2.084,0,0,0-1.85,0l-11.749,6.635a2,2,0,0,0-.928,1.569v13.269a2,2,0,0,0,.928,1.569l11.745,6.635a2.084,2.084,0,0,0,1.85,0l11.749-6.635a2,2,0,0,0,.928-1.569V117.817a2,2,0,0,0-.928-1.569Zm-1.015,14.741-11.624,6.577h-.068l-11.623-6.557V117.914l11.624-6.577h.063l11.627,6.562Z" transform="translate(1605.163 209.761)" fill="#1b54f8"></path><path id="Path_731" data-name="Path 731" d="M426.973,280.971A.971.971,0,1,1,426,280a.971.971,0,0,1,.971.971" transform="translate(1554.016 58.098)" fill="#1b54f8"></path><path id="Path_732" data-name="Path 732" d="M133.673,170.722l-1.943,1.1h0a.971.971,0,0,0-.486.845v2.783a.971.971,0,0,0,1.943,0V173.51l.19-.384,1.268-.714a.975.975,0,0,0-.971-1.69Z" transform="translate(1815.186 155.36)" fill="#1b54f8"></path><path id="Path_733" data-name="Path 733" d="M353.78,39.923a.972.972,0,0,0-1.307-.428l-1.943.971a.972.972,0,0,0-.53.865v1.943a.971.971,0,1,0,1.943,0V41.938l1.409-.714a.972.972,0,0,0,.428-1.3Z" transform="translate(1620.716 271.996)" fill="#1b54f8"></path><path id="Path_734" data-name="Path 734" d="M149.179,42.809a1.554,1.554,0,0,1-.617.971l-12.984,7.179V48.773a1.224,1.224,0,0,0-.563-.971l-7.13-4.061a1.254,1.254,0,0,0-1.127,0l-7.13,4.07a1.224,1.224,0,0,0-.563.971v2.186L106.08,43.795a1.556,1.556,0,0,1-.617-.971V32.074l6.722-3.832a1.224,1.224,0,0,0,.563-.971V19.145a1.224,1.224,0,0,0-.563-.971l-2.147-1.224,10.584-5.829h0a.97.97,0,0,0,.36.413l5.853,3.313a1.044,1.044,0,0,0,.928,0l5.872-3.318a.97.97,0,0,0,.36-.413l1.583.86,1.987-1.122-3.444-1.9V4.1a.971.971,0,0,0-.486-.787L127.806,0a1.045,1.045,0,0,0-.971,0l-5.829,3.318a1,1,0,0,0-.486.787V8.964l-12.459,6.863-3.007-1.715a1.254,1.254,0,0,0-1.127,0l-7.13,4.07a1.224,1.224,0,0,0-.563.971v8.121a1.228,1.228,0,0,0,.563.971l6.722,3.828V42.809a3.4,3.4,0,0,0,1.622,2.686l13.921,7.684V56.9a1.228,1.228,0,0,0,.563.971l7.135,4.065h0a1.254,1.254,0,0,0,1.127,0l7.13-4.065h0a1.224,1.224,0,0,0,.563-.971V53.179L149.5,45.5a3.4,3.4,0,0,0,1.618-2.691V38.379l-1.943,1.1ZM122.465,4.719l4.857-2.744,4.857,2.744v5.41l-4.857,2.744-4.857-2.744ZM98.18,19.63l6.314-3.6,6.314,3.6v7.159l-6.314,3.6-6.314-3.6Zm35.457,36.787-6.314,3.6-6.314-3.6V49.258l6.314-3.6,6.314,3.6Z" transform="translate(1846.309 307.117)" fill="#1b54f8"></path><path id="Path_735" data-name="Path 735" d="M339.3,437.6l-1.943,1.1h0a.971.971,0,0,0-.486.845v2.783a.971.971,0,1,0,1.943,0V440.39l.19-.384,1.268-.714a.975.975,0,0,0-.971-1.69Z" transform="translate(1632.385 -81.892)" fill="#1b54f8"></path><path id="Path_736" data-name="Path 736" d="M429.718,175.488l-4.857,2.817a.973.973,0,0,0-.486.84V184.1a.971.971,0,1,0,1.943,0v-4.371l4.371-2.535a.972.972,0,0,0-.971-1.681Z" transform="translate(1554.599 151.085)" fill="#1b54f8"></path></g></g></svg> 