<?xml version="1.0" encoding="UTF-8"?> <svg xmlns="http://www.w3.org/2000/svg" xmlns:xlink="http://www.w3.org/1999/xlink" width="60" height="60" viewBox="0 0 60 60"><defs><clipPath id="clip-path"><rect id="Rectangle_166" data-name="Rectangle 166" width="60" height="60" transform="translate(291 1661)" fill="#fff" stroke="#707070" stroke-width="1"></rect></clipPath></defs><g id="Mask_Group_65" data-name="Mask Group 65" transform="translate(-291 -1661)" clip-path="url(#clip-path)"><g id="Group_138" data-name="Group 138" transform="translate(-138 25.4)"><g id="Group_137" data-name="Group 137" transform="translate(432 1642.6)"><path id="Path_553" data-name="Path 553" d="M56.671,9.6H4.579A.547.547,0,0,0,4,10.179v2.778a.547.547,0,0,0,.579.579H5.91V45.37a.547.547,0,0,0,.579.579H30.046V49.48a3.473,3.473,0,1,0,1.158,0V45.949H54.819a.547.547,0,0,0,.579-.579V13.536h1.273a.547.547,0,0,0,.579-.579V10.179A.58.58,0,0,0,56.671,9.6ZM32.94,52.895a2.315,2.315,0,1,1-2.315-2.315A2.322,2.322,0,0,1,32.94,52.895Zm21.3-8.1H7.068V13.536H54.24Zm1.852-32.413H5.158V10.758H56.092Z" transform="translate(-4 -9.6)" fill="#1c54f8"></path><path id="Path_554" data-name="Path 554" d="M57.979,33.292h16.38a.579.579,0,0,0,0-1.158h-.752V22.063a.547.547,0,0,0-.579-.579H70.134a.547.547,0,0,0-.579.579V32.076h-.81V23.741a.547.547,0,0,0-.579-.579H65.272a.547.547,0,0,0-.579.579v8.393h-.81V25.651a.547.547,0,0,0-.579-.579H60.41a.547.547,0,0,0-.579.579v6.483H58.558V21.079a.579.579,0,1,0-1.158,0V32.713A.58.58,0,0,0,57.979,33.292Zm12.734-10.65h1.736v9.435H70.713ZM65.851,24.32h1.736v7.814H65.851Zm-4.862,1.91h1.736v5.9H60.989Z" transform="translate(-26.492 -14.191)" fill="#1c54f8"></path><path id="Path_555" data-name="Path 555" d="M83.051,49.5H78.479a.579.579,0,1,0,0,1.158h4.573a.547.547,0,0,0,.579-.579A.58.58,0,0,0,83.051,49.5Z" transform="translate(-35.126 -26.406)" fill="#1c54f8"></path><path id="Path_556" data-name="Path 556" d="M70.192,50.079a.547.547,0,0,0-.579-.579H61.279a.579.579,0,0,0,0,1.158h8.335A.58.58,0,0,0,70.192,50.079Z" transform="translate(-27.882 -26.406)" fill="#1c54f8"></path><path id="Path_557" data-name="Path 557" d="M79.092,54.4H69.079a.579.579,0,0,0,0,1.158h9.955a.547.547,0,0,0,.579-.579A.534.534,0,0,0,79.092,54.4Z" transform="translate(-31.167 -28.47)" fill="#1c54f8"></path><path id="Path_558" data-name="Path 558" d="M57.979,55.558h4.978a.579.579,0,1,0,0-1.158H57.979a.579.579,0,0,0,0,1.158Z" transform="translate(-26.492 -28.47)" fill="#1c54f8"></path><path id="Path_559" data-name="Path 559" d="M83.22,59.3H78.879a.579.579,0,0,0,0,1.158H83.22a.547.547,0,0,0,.579-.579A.58.58,0,0,0,83.22,59.3Z" transform="translate(-35.295 -30.533)" fill="#1c54f8"></path><path id="Path_560" data-name="Path 560" d="M57.979,60.458H68.687a.579.579,0,0,0,0-1.158H57.979a.579.579,0,0,0,0,1.158Z" transform="translate(-26.492 -30.533)" fill="#1c54f8"></path><path id="Path_561" data-name="Path 561" d="M77.84,64.3H69.679a.579.579,0,0,0,0,1.158H77.84a.547.547,0,0,0,.579-.579A.58.58,0,0,0,77.84,64.3Z" transform="translate(-31.42 -32.639)" fill="#1c54f8"></path><path id="Path_562" data-name="Path 562" d="M57.979,65.458H63.3a.579.579,0,0,0,0-1.158H57.979a.579.579,0,0,0,0,1.158Z" transform="translate(-26.492 -32.639)" fill="#1c54f8"></path><path id="Path_563" data-name="Path 563" d="M24.5,35.444l3.994,3.994a.525.525,0,0,0,.405.174h.116a15.8,15.8,0,0,0,7.409-4.225,3.745,3.745,0,0,1,.521-.463,11.765,11.765,0,0,0,1.621-2.084A18.564,18.564,0,0,0,41,23.578.58.58,0,0,0,40.416,23a18.564,18.564,0,0,0-9.261,2.431,11.765,11.765,0,0,0-2.084,1.621,3.745,3.745,0,0,0-.463.521,15.8,15.8,0,0,0-4.225,7.409A.51.51,0,0,0,24.5,35.444Zm6.483-8.508c.174-.116.289-.232.463-.347a19.8,19.8,0,0,1,5.9,5.9,3.211,3.211,0,0,1-.347.463,1.016,1.016,0,0,1-.232.289,10.078,10.078,0,0,1-.695.81,24.229,24.229,0,0,0-6.193-6.193,10.077,10.077,0,0,1,.81-.695A1.016,1.016,0,0,1,30.982,26.935Zm7,4.457a20.275,20.275,0,0,0-5.441-5.441,18.587,18.587,0,0,1,7.235-1.794A17.585,17.585,0,0,1,37.985,31.392Zm-8.914-2.72a23.781,23.781,0,0,1,6.135,6.135,15.041,15.041,0,0,1-6.135,3.531l-3.589-3.589A17.014,17.014,0,0,1,29.072,28.672Z" transform="translate(-12.576 -15.243)" fill="#1c54f8"></path><path id="Path_564" data-name="Path 564" d="M14.81,41.561a.56.56,0,0,0,.81,0,4.914,4.914,0,0,1,2.836-1.679h0a.556.556,0,0,0,.521-.405l1.215-3.357a.437.437,0,0,0-.058-.463c-.058-.174-.232-.232-.347-.289-4.11-1.042-7.409,2.72-7.582,2.836a.7.7,0,0,0,0,.81Zm4.167-5.151-.868,2.373a6.059,6.059,0,0,0-2.836,1.563l-1.679-1.679A7.216,7.216,0,0,1,18.977,36.409Z" transform="translate(-7.401 -20.376)" fill="#1c54f8"></path><path id="Path_565" data-name="Path 565" d="M35.277,49.74a.615.615,0,0,0-.463-.058L31.457,50.9a.556.556,0,0,0-.405.521,4.955,4.955,0,0,1-1.679,2.894.56.56,0,0,0,0,.81l2.489,2.489a.56.56,0,0,0,.81,0c.174-.116,3.878-3.473,2.836-7.582A.513.513,0,0,0,35.277,49.74Zm-2.952,6.714-1.679-1.679A6.633,6.633,0,0,0,32.21,51.94l2.373-.868C34.814,53.445,33.078,55.586,32.326,56.455Z" transform="translate(-14.614 -26.472)" fill="#1c54f8"></path><path id="Path_566" data-name="Path 566" d="M24.6,49.694a.657.657,0,0,0-.174-.463l-3.357-3.357A.657.657,0,0,0,20.6,45.7a.487.487,0,0,0-.405.232l-2.257,3.183a.8.8,0,0,0-.058.637.506.506,0,0,0,.521.289h.405c-.984,1.215-1.563,2.026-1.794,2.373a.823.823,0,0,0-.116.347.593.593,0,0,0,.579.579.442.442,0,0,0,.289-.116A27.091,27.091,0,0,0,20.2,51.43v.405a.608.608,0,0,0,.289.521.531.531,0,0,0,.637-.058l3.183-2.257A.324.324,0,0,0,24.6,49.694Zm-3.126,1.042v-.521a.506.506,0,0,0-.347-.521.348.348,0,0,0-.232-.058c-.116,0-.174,0-.232.058a.8.8,0,0,0,0-.521.556.556,0,0,0-.521-.347H19.62l1.158-1.679,2.373,2.373Z" transform="translate(-9.433 -24.805)" fill="#1c54f8"></path></g></g></g></svg> 