<?xml version="1.0" encoding="UTF-8"?> <svg xmlns="http://www.w3.org/2000/svg" xmlns:xlink="http://www.w3.org/1999/xlink" width="90" height="90" viewBox="0 0 90 90"><defs><clipPath id="clip-path"><rect id="Rectangle_17" data-name="Rectangle 17" width="90" height="90" transform="translate(396 565)" fill="#fff" stroke="#707070" stroke-width="1"></rect></clipPath></defs><g id="Mask_Group_9" data-name="Mask Group 9" transform="translate(-396 -565)" clip-path="url(#clip-path)"><g id="Group_176" data-name="Group 176" transform="translate(402 571)"><path id="Path_179" data-name="Path 179" d="M267.725,211.7a13.975,13.975,0,1,0-13.975-13.975A13.992,13.992,0,0,0,267.725,211.7Zm0-2.541A11.448,11.448,0,0,1,256.366,199h4.147l3.573,8.931,3.775-12.579,3.51,9.362,3.493-6.985h4.3a11.447,11.447,0,0,1-11.434,11.434Zm0-22.869a11.447,11.447,0,0,1,11.139,8.893h-5.573l-1.588,3.179L267.591,187.4l-3.849,12.831-1.51-3.773h-5.867A11.448,11.448,0,0,1,267.725,186.291Z" transform="translate(-228.34 -158.34)" fill="#1b54f8" stroke="#fff" stroke-width="1"></path><path id="Path_180" data-name="Path 180" d="M151.167,8.75H120.675a6.359,6.359,0,0,0-6.352,6.352v.535A20.326,20.326,0,1,0,99.077,49.4l.065,0a18.906,18.906,0,0,0,2.541,8.305l-3.876,3.876-1.27-1.27L80.7,76.149a6.661,6.661,0,0,0,9.419,9.421l15.835-15.837-1.27-1.27,3.876-3.876a18.9,18.9,0,0,0,5.761,2.221V71a6.359,6.359,0,0,0,6.352,6.352h30.492A6.359,6.359,0,0,0,157.519,71V15.1a6.359,6.359,0,0,0-6.352-6.352ZM114.323,29.461a19.077,19.077,0,0,0-10.831,6.494,6.425,6.425,0,0,0-.6-.517V31.116a16.347,16.347,0,0,0-2.754-9.1l-1.057-1.586L98.02,22.02a16.352,16.352,0,0,0-2.754,9.1v4.345a6.342,6.342,0,0,0-2.413,3.778H84.5a17.665,17.665,0,0,1-3.147-8.893h5.018V27.806H81.355a17.684,17.684,0,0,1,4.3-10.36l3.545,3.545,1.8-1.8L87.446,15.65a17.687,17.687,0,0,1,10.36-4.3v5.018h2.541V11.339a17.86,17.86,0,0,1,10.37,4.3l-3.555,3.555,1.8,1.8,3.557-3.557a17.765,17.765,0,0,1,1.807,2.493Zm-13.03,9.78H95.5a3.766,3.766,0,0,1,6.476-1.16C101.738,38.461,101.5,38.843,101.293,39.241Zm-.945-4.938a6.238,6.238,0,0,0-1.27-.143,6.342,6.342,0,0,0-1.27.128V31.116a13.79,13.79,0,0,1,1.27-5.8,13.8,13.8,0,0,1,1.27,5.8ZM86.653,41.782h13.536a18.866,18.866,0,0,0-1.047,5.08l-.065,0a17.719,17.719,0,0,1-12.424-5.082Zm31.482-10.164a16.516,16.516,0,1,1-16.516,16.516A16.536,16.536,0,0,1,118.135,31.618Zm3.811,35.19a18.779,18.779,0,0,0,2.541-.728v1.112h22.869V57.028h-12.38a18.869,18.869,0,0,0,1.1-2.541h11.277V44.323H136.809a18.782,18.782,0,0,0-.728-2.541h11.275V31.618H127.6a18.923,18.923,0,0,0-5.655-2.157V16.372H149.9v53.36H121.947Zm11.4-7.239h11.47v5.082H127.6a19.179,19.179,0,0,0,5.744-5.082Zm-2.3-25.41h13.767v5.082h-9.839a19.143,19.143,0,0,0-3.928-5.082Zm6.08,12.7h7.687v5.082h-8.006a19.146,19.146,0,0,0,.383-3.811c0-.429-.037-.849-.065-1.27Zm-48.8,36.908A4.119,4.119,0,1,1,82.5,77.947l14.039-14.04,5.827,5.827ZM102.89,66.666,99.6,63.38l3.531-3.531a19.239,19.239,0,0,0,3.286,3.286ZM154.98,71a3.816,3.816,0,0,1-3.811,3.811H120.677A3.816,3.816,0,0,1,116.865,71V67.127c.422.028.841.065,1.27.065s.849-.037,1.27-.065v2.606a2.543,2.543,0,0,0,2.541,2.541H149.9a2.543,2.543,0,0,0,2.541-2.541V16.373a2.543,2.543,0,0,0-2.541-2.541H121.947a2.543,2.543,0,0,0-2.541,2.541V29.142c-.422-.028-.841-.065-1.27-.065s-.848.037-1.27.065V15.1a3.816,3.816,0,0,1,3.811-3.811h30.492A3.816,3.816,0,0,1,154.98,15.1Z" transform="translate(-78.749 -8.75)" fill="#1b54f8" stroke="#fff" stroke-width="1"></path><path id="Path_181" data-name="Path 181" d="M393.75,88.914h22.869V78.75H393.75Zm2.541-7.623h17.787v5.082H396.291Z" transform="translate(-348.013 -68.586)" fill="#1b54f8" stroke="#fff" stroke-width="1"></path></g></g></svg> 