<?xml version="1.0" encoding="UTF-8"?> <svg xmlns="http://www.w3.org/2000/svg" xmlns:xlink="http://www.w3.org/1999/xlink" width="90" height="90" viewBox="0 0 90 90"><defs><clipPath id="clip-path"><rect id="Rectangle_15" data-name="Rectangle 15" width="90" height="90" transform="translate(1653 240)" fill="#fff" stroke="#707070" stroke-width="1"></rect></clipPath></defs><g id="Mask_Group_6" data-name="Mask Group 6" transform="translate(-1653 -240)" clip-path="url(#clip-path)"><g id="Group_12" data-name="Group 12" transform="translate(240.508 -439.948)"><path id="Path_112" data-name="Path 112" d="M267.439,211.128a13.689,13.689,0,1,0-13.689-13.689A13.705,13.705,0,0,0,267.439,211.128Zm0-2.489a11.213,11.213,0,0,1-11.127-9.956h4.062l3.5,8.749,3.7-12.321,3.438,9.171,3.421-6.842h4.209a11.213,11.213,0,0,1-11.2,11.2Zm0-22.4a11.213,11.213,0,0,1,10.911,8.711h-5.458l-1.556,3.113-4.028-10.741-3.77,12.568-1.479-3.7h-5.747A11.213,11.213,0,0,1,267.439,186.239Z" transform="translate(1189.632 527.088)" fill="#1b54f8"></path><path id="Path_113" data-name="Path 113" d="M149.684,8.75H119.817a6.229,6.229,0,0,0-6.222,6.222V15.5A19.91,19.91,0,1,0,98.661,48.573l.063,0a18.519,18.519,0,0,0,2.489,8.135l-3.8,3.8-1.244-1.244L80.661,74.769A6.525,6.525,0,0,0,89.887,84L105.4,68.484l-1.244-1.244,3.8-3.8a18.518,18.518,0,0,0,5.643,2.176v4.11a6.229,6.229,0,0,0,6.222,6.222h29.867a6.229,6.229,0,0,0,6.222-6.222V14.972a6.229,6.229,0,0,0-6.222-6.222Zm-36.09,20.287A18.686,18.686,0,0,0,102.985,35.4a6.3,6.3,0,0,0-.591-.507V30.658a16.012,16.012,0,0,0-2.7-8.91l-1.036-1.553-1.036,1.553a16.017,16.017,0,0,0-2.7,8.91v4.256a6.212,6.212,0,0,0-2.363,3.7H84.383A17.3,17.3,0,0,1,81.3,29.9h4.916V27.415H81.3a17.322,17.322,0,0,1,4.207-10.147l3.472,3.472,1.759-1.759-3.472-3.472A17.325,17.325,0,0,1,97.416,11.3v4.915h2.489V11.286A17.494,17.494,0,0,1,110.063,15.5L106.58,18.98l1.759,1.759,3.485-3.485a17.4,17.4,0,0,1,1.77,2.442Zm-12.763,9.58H95.158a3.689,3.689,0,0,1,6.343-1.136C101.267,37.853,101.037,38.227,100.832,38.617Zm-.926-4.837a6.111,6.111,0,0,0-1.244-.141,6.213,6.213,0,0,0-1.244.126V30.658a13.508,13.508,0,0,1,1.244-5.68,13.516,13.516,0,0,1,1.244,5.68ZM86.491,41.106H99.75a18.479,18.479,0,0,0-1.026,4.976l-.063,0a17.356,17.356,0,0,1-12.17-4.978Zm30.837-9.956A16.178,16.178,0,1,1,101.15,47.328,16.2,16.2,0,0,1,117.329,31.15Zm3.733,34.47a18.4,18.4,0,0,0,2.489-.713V66h22.4V56.039H133.825a18.479,18.479,0,0,0,1.08-2.489h11.046V43.595H135.62a18.39,18.39,0,0,0-.713-2.489h11.045V31.15H126.6a18.535,18.535,0,0,0-5.539-2.113V16.216h27.378V68.484H121.063Zm11.165-7.091h11.235v4.978H126.6a18.785,18.785,0,0,0,5.626-4.978Zm-2.25-24.889h13.485v4.978h-9.637a18.751,18.751,0,0,0-3.848-4.978Zm5.955,12.445h7.53v4.978H135.62A18.755,18.755,0,0,0,136,47.328c0-.421-.036-.831-.063-1.244Zm-47.8,36.152a4.035,4.035,0,1,1-5.707-5.706L96.173,62.777l5.707,5.707ZM102.4,65.48l-3.218-3.218,3.458-3.458a18.844,18.844,0,0,0,3.218,3.218Zm51.023,4.248a3.738,3.738,0,0,1-3.733,3.733H119.818a3.738,3.738,0,0,1-3.733-3.733v-3.8c.413.027.824.063,1.244.063s.831-.036,1.244-.063v2.552a2.491,2.491,0,0,0,2.489,2.489h27.378a2.491,2.491,0,0,0,2.489-2.489V16.217a2.491,2.491,0,0,0-2.489-2.489H121.063a2.491,2.491,0,0,0-2.489,2.489V28.725c-.413-.027-.824-.063-1.244-.063s-.831.036-1.244.063V14.972a3.738,3.738,0,0,1,3.733-3.733h29.867a3.738,3.738,0,0,1,3.733,3.733Z" transform="translate(1339.743 677.199)" fill="#1b54f8"></path><path id="Path_114" data-name="Path 114" d="M393.75,88.706h22.4V78.75h-22.4Zm2.489-7.467h17.423v4.978H396.239Z" transform="translate(1069.543 617.154)" fill="#1b54f8"></path></g></g></svg> 