<?xml version="1.0" encoding="UTF-8"?> <!-- Generator: Adobe Illustrator 25.2.2, SVG Export Plug-In . SVG Version: 6.00 Build 0) --> <svg xmlns="http://www.w3.org/2000/svg" xmlns:xlink="http://www.w3.org/1999/xlink" version="1.1" id="Layer_1" x="0px" y="0px" viewBox="0 0 80 80" style="enable-background:new 0 0 80 80;" xml:space="preserve"> <style type="text/css"> .st0{fill:none;stroke:#1B54F8;stroke-width:2;stroke-miterlimit:10;} </style> <path class="st0" d="M57.6,32.7H57c-2.3,0-4.2,1.9-4.2,4.2v10.4H27V37c0-2.4-1.9-4.3-4.3-4.3h-0.3c-2.4,0-4.3,1.9-4.3,4.3v15l0,0 c0.2,2.4,2.2,4.2,4.6,4.2H30V73h19.9V56.2h7.3c2.6,0,4.6-2.1,4.6-4.7V36.9C61.8,34.6,59.9,32.7,57.6,32.7z"></path> <path class="st0" d="M39.9,27.1c-4.3,0-7.8,3.5-7.8,7.8s3.5,7.8,7.8,7.8s7.8-3.5,7.8-7.8l0,0C47.7,30.5,44.2,27.1,39.9,27.1 C40,27.1,39.9,27.1,39.9,27.1z"></path> <rect x="35.8" y="8" class="st0" width="10" height="10"></rect> <path class="st0" d="M55,24.6c-2.8,0-5-2.2-5-5s2.2-5,5-5s5,2.2,5,5S57.8,24.6,55,24.6z"></path> <polygon class="st0" points="30.5,24 19.2,24 24.9,14.2 "></polygon> </svg> 