<?xml version="1.0" encoding="UTF-8"?> <svg xmlns="http://www.w3.org/2000/svg" xmlns:xlink="http://www.w3.org/1999/xlink" width="90" height="90" viewBox="0 0 90 90"><defs><clipPath id="clip-path"><rect id="Rectangle_24" data-name="Rectangle 24" width="90" height="90" transform="translate(541 712)" fill="#fff" stroke="#707070" stroke-width="1"></rect></clipPath></defs><g id="Mask_Group_18" data-name="Mask Group 18" transform="translate(-541 -712)" clip-path="url(#clip-path)"><g id="Group_34" data-name="Group 34" transform="translate(-148 -254)"><path id="Path_63" data-name="Path 63" d="M80.129,61.568H77.391V14.186a.871.871,0,0,0-.871-.87H9.48a.871.871,0,0,0-.871.87V61.568H5.871A.87.87,0,0,0,5,62.438v5.981a7.147,7.147,0,0,0,7.394,6.852H73.606A7.147,7.147,0,0,0,81,68.419V62.438a.87.87,0,0,0-.871-.871ZM10.35,15.056h65.3V61.568H52.259a.87.87,0,0,0-.809.55L50.3,65.033H35.7l-1.156-2.916a.869.869,0,0,0-.809-.55H10.348ZM79.256,68.419A5.407,5.407,0,0,1,73.6,73.531H12.394A5.409,5.409,0,0,1,6.74,68.419V63.308H33.148L34.3,66.224a.87.87,0,0,0,.809.55H50.887a.87.87,0,0,0,.809-.55l1.156-2.916H79.26ZM23.945,36.148a2.33,2.33,0,0,0,2.354,0l6.687-3.861h0a2.354,2.354,0,0,0,0-4.077L26.3,24.35a2.354,2.354,0,0,0-3.53,2.042V34.11a2.331,2.331,0,0,0,1.177,2.038Zm.566-9.757a.613.613,0,0,1,.92-.531l6.687,3.86a.614.614,0,0,1,0,1.063L25.43,34.644a.613.613,0,0,1-.92-.531Zm2.657,14.883A11.023,11.023,0,1,0,16.147,30.251,11.023,11.023,0,0,0,27.168,41.275Zm0-20.3a9.282,9.282,0,1,1-9.282,9.281,9.282,9.282,0,0,1,9.282-9.281ZM56.421,32.809h4.444a.868.868,0,0,0,.247.214l4.8,2.773a2.321,2.321,0,0,0,3.481-2.01V20.9a2.321,2.321,0,0,0-3.481-2.01l-4.8,2.775a.868.868,0,0,0-.247.214H56.421a.871.871,0,0,0-.871.871v9.192a.871.871,0,0,0,.871.87ZM66.786,20.4a.58.58,0,0,1,.87.5V33.787a.58.58,0,0,1-.87.5l-4.364-2.522V22.916Zm-9.5,3.22h3.387v7.453H57.291ZM42.091,57.04H64.1a.871.871,0,0,0,.871-.87V39.282a.871.871,0,0,0-.871-.87H42.091a.87.87,0,0,0-.871.87V56.171a.87.87,0,0,0,.871.874Zm.87-1.74V51.859l5.556-5.111L51.533,49.3h0l2.516,2.131A.871.871,0,1,0,55.174,50.1L53.54,48.721l2.581-1.682,7.1,3.01V55.3ZM63.227,40.156v8.005l-6.849-2.9a.872.872,0,0,0-.816.072l-3.4,2.22-3.1-2.626a.871.871,0,0,0-1.152.024l-4.943,4.547V40.156ZM14.7,46.71a.87.87,0,0,1,.871-.87h12.9a.871.871,0,1,1,0,1.74h-12.9a.87.87,0,0,1-.871-.871Zm0,4.746a.87.87,0,0,1,.871-.87h3.005a.871.871,0,1,1,0,1.74H15.572a.871.871,0,0,1-.871-.871Zm18.617-.87a.871.871,0,1,1,0,1.74H22.575a.871.871,0,1,1,0-1.74Zm0,6.485H15.572a.871.871,0,1,1,0-1.74H33.318a.871.871,0,1,1,0,1.74Z" transform="translate(691 966.684)" fill="#1c54f8"></path></g></g></svg> 