<?xml version="1.0" encoding="UTF-8"?> <svg xmlns="http://www.w3.org/2000/svg" xmlns:xlink="http://www.w3.org/1999/xlink" width="90" height="90" viewBox="0 0 90 90"><defs><clipPath id="clip-path"><rect id="Rectangle_9" data-name="Rectangle 9" width="90" height="90" transform="translate(436.237 333.82)" fill="none"></rect></clipPath></defs><g id="Group_18" data-name="Group 18" transform="translate(-436.237 -333.82)"><g id="Group_17" data-name="Group 17" clip-path="url(#clip-path)"><path id="Path_18" data-name="Path 18" d="M515.1,358.209a9.793,9.793,0,0,0-9.658,8.4H492.709a11.585,11.585,0,0,0-2.519-6.159l8.958-8.958a5.7,5.7,0,0,0,2.519.7,5.6,5.6,0,1,0-5.6-5.6,4.771,4.771,0,0,0,.98,3.08l-8.818,8.818a12.762,12.762,0,0,0-6.719-2.94V344.212a5.615,5.615,0,1,0-7-5.459,5.71,5.71,0,0,0,4.2,5.459v11.337a12.531,12.531,0,0,0-6.3,2.52l-9.1-9.1a9.583,9.583,0,0,0,1.96-5.879,9.8,9.8,0,1,0-9.8,9.8,9.582,9.582,0,0,0,5.879-1.96l9.1,9.1a12.609,12.609,0,0,0-2.8,6.579h-7.839a1.4,1.4,0,0,0,0,2.8h7.839a12.79,12.79,0,0,0,7.558,10.218V384.8a4.6,4.6,0,0,0-2.38-.56A5,5,0,0,0,467.655,389v10.777a9.18,9.18,0,0,0,3.219,7,5.908,5.908,0,0,1,2.239,4.619v1.959a2.841,2.841,0,0,0-2.939,2.8v5.6a1.4,1.4,0,0,0,2.8,0v-5.6c.14-.14,21.136,0,21.136,0v5.6a1.4,1.4,0,0,0,2.8,0v-5.6a2.977,2.977,0,0,0-2.519-2.8,16.069,16.069,0,0,1,4.9-7.418c.7-.84,3.5-2.239,3.779-5.879.14-.419,0-4.758.14-10.5,0-2.94-3.22-4.9-6.159-3.779-.56-2.8-4.059-4.2-6.719-2.8a4.471,4.471,0,0,0-5.458-1.679v-6.859a4.628,4.628,0,0,0-9.238,0v2.1a9.766,9.766,0,1,1,14.7-8.4,9.9,9.9,0,0,1-2.659,6.718,1.386,1.386,0,1,0,1.96,1.96,12.572,12.572,0,0,0,3.359-7.279h12.737a9.777,9.777,0,0,0,19.456-1.4,10.286,10.286,0,0,0-10.078-9.938m-35.272,14.7h0a1.72,1.72,0,0,1,1.819,1.54V392.5a1.4,1.4,0,0,0,2.8,0v-7.418a1.707,1.707,0,0,1,3.359,0V392.5a1.4,1.4,0,1,0,2.8,0v-6.019c0-.7.7-1.259,1.68-1.259a1.576,1.576,0,0,1,1.68,1.4V392.5a1.322,1.322,0,0,0,1.4,1.4,1.4,1.4,0,0,0,1.4-1.4v-2.939c0-.7.7-1.26,1.68-1.26a1.486,1.486,0,0,1,1.679,1.4v10.077c0,2.24-1.959,3.22-2.939,4.2a18.555,18.555,0,0,0-5.879,9.517h-15.4v-1.959a8.693,8.693,0,0,0-3.22-6.859,6.187,6.187,0,0,1-2.239-4.759V389.142a2.424,2.424,0,0,1,4.759,0V395.3a1.4,1.4,0,1,0,2.8,0c0-2.939.14-20.575.14-20.855-.14-.84.7-1.54,1.68-1.54m21.835-29.253a2.8,2.8,0,1,1-2.8,2.8,2.807,2.807,0,0,1,2.8-2.8m-24.355-4.759a2.8,2.8,0,1,1,2.8,2.8,2.807,2.807,0,0,1-2.8-2.8m-28.833,4.2a7,7,0,1,1,7,7,7.019,7.019,0,0,1-7-7M515.1,375.005a7,7,0,1,1,7-7,6.93,6.93,0,0,1-7,7" fill="#1a53f6"></path><path id="Path_19" data-name="Path 19" d="M515.1,363.807a4.2,4.2,0,1,0,0,8.4,4.2,4.2,0,0,0,0-8.4m0,5.6a1.4,1.4,0,1,1,0-2.8,1.4,1.4,0,1,1,0,2.8" fill="#1a53f6"></path><path id="Path_20" data-name="Path 20" d="M435.322,368.007a5.615,5.615,0,0,0,5.6,5.6,5.708,5.708,0,0,0,5.458-4.2h7.839a1.4,1.4,0,0,0,0-2.8h-7.839a5.62,5.62,0,0,0-11.057,1.4m8.4,0a2.8,2.8,0,1,1-2.8-2.8,2.807,2.807,0,0,1,2.8,2.8" fill="#1a53f6"></path><path id="Path_21" data-name="Path 21" d="M455.477,338.893a4.2,4.2,0,0,0,0,8.4,4.2,4.2,0,1,0,0-8.4m0,5.6a1.4,1.4,0,1,1,0-2.8,1.322,1.322,0,0,1,1.4,1.4,1.506,1.506,0,0,1-1.4,1.4" fill="#1a53f6"></path></g></g></svg> 