<?xml version="1.0" encoding="UTF-8"?> <svg xmlns="http://www.w3.org/2000/svg" width="77" height="77" viewBox="0 0 77 77"><g id="Group_300" data-name="Group 300" transform="translate(-2761 -170)"><rect id="Rectangle_115" data-name="Rectangle 115" width="77" height="77" transform="translate(2761 170)" fill="#9b9b9b" opacity="0"></rect><g id="Group_296" data-name="Group 296" transform="translate(-422.053 210)"><path id="Path_386" data-name="Path 386" d="M171.758,82.791a8.542,8.542,0,0,0-4-5.219l-5.625-3.223A8.615,8.615,0,0,0,150.394,77.5a1.014,1.014,0,0,0,1.754,1.014,6.587,6.587,0,0,1,8.969-2.4l5.625,3.248h0a6.564,6.564,0,0,1-6.568,11.366l-5.625-3.248a6.482,6.482,0,0,1-1.788-1.52l5.63-3.289a1.014,1.014,0,0,0,.507-.876V78.4a1.013,1.013,0,0,0-2.027,0v2.8l-11.148,6.441V74.785L156.87,68.6v1.7a1.013,1.013,0,1,0,2.027,0V66.58a1.014,1.014,0,0,0-.507-.876l-5.767-3.335a8.606,8.606,0,0,0,.7-3.34V52.559a8.589,8.589,0,1,0-17.178,0V59.03a8.614,8.614,0,0,0,8.615,8.615,1.013,1.013,0,0,0,0-2.027,6.588,6.588,0,0,1-6.588-6.588V52.559a6.588,6.588,0,0,1,13.125,0V59.03a6.65,6.65,0,0,1-.426,2.316L145.215,58.1a1.012,1.012,0,0,0-1.013,0l-2.99,1.728a1.013,1.013,0,1,0,1.013,1.753l2.483-1.419,11.381,6.588-11.381,6.274L133.56,66.586l1.556-.9A1.013,1.013,0,0,0,134.1,63.93l-3.076,1.8a1.014,1.014,0,0,0-.507.877v6.633a8.654,8.654,0,0,0-3.233,1.1L121.662,77.6a8.615,8.615,0,0,0,8.615,14.883l5.625-3.248h0A8.589,8.589,0,0,0,139.043,77.5a1.013,1.013,0,1,0-1.753,1.013,6.587,6.587,0,0,1-2.4,8.964l-5.625,3.248a6.588,6.588,0,0,1-9.628-7.383,6.488,6.488,0,0,1,3.04-3.983l5.625-3.248h0a6.63,6.63,0,0,1,2.22-.816v6.5a1.013,1.013,0,0,0,.507.876l3.01,1.764a1.018,1.018,0,0,0,1.044-1.748l-2.534-1.47V68.339L143.7,74.774V87.645l-1.7-.978a1.013,1.013,0,1,0-1.013,1.753l3.218,1.855a1.014,1.014,0,0,0,1.013,0l5.767-3.329h0a8.661,8.661,0,0,0,2.534,2.26l5.625,3.248h0a8.615,8.615,0,0,0,12.6-9.664Z" transform="translate(3076.238 -69.97)" fill="#1b54f8"></path></g></g></svg> 