<?xml version="1.0" encoding="UTF-8"?> <svg xmlns="http://www.w3.org/2000/svg" xmlns:xlink="http://www.w3.org/1999/xlink" width="90" height="90" viewBox="0 0 90 90"><defs><clipPath id="clip-path"><rect id="Rectangle_4" data-name="Rectangle 4" width="90" height="90" transform="translate(11.003 0.544)" fill="none"></rect></clipPath></defs><g id="Group_8" data-name="Group 8" transform="translate(-11.003 -0.544)"><g id="Group_7" data-name="Group 7" clip-path="url(#clip-path)"><path id="Path_6" data-name="Path 6" d="M71.15,70.358l-2.6-2.813H61.025a6.875,6.875,0,0,1-2.883.633l-3.094.071h-.14a7.45,7.45,0,0,1-3.235-.7H15.111A1.409,1.409,0,0,1,13.7,66.139V64.733h34.8A6.652,6.652,0,0,1,47.6,61.92H42.462a6.742,6.742,0,0,1-2.882.493,6.892,6.892,0,0,1-2.391-.493H13.7V45.045h2.812a1.406,1.406,0,1,0,0-2.812H13.7V39.42h7.031a1.406,1.406,0,1,0,0-2.812H13.7V33.795h2.812a1.406,1.406,0,1,0,0-2.812H13.7V16.92a1.41,1.41,0,0,1,1.406-1.406h15.68a7.462,7.462,0,0,1,.7-.844l1.9-1.968H15.111a4.231,4.231,0,0,0-4.219,4.218V66.139a4.232,4.232,0,0,0,4.219,4.219H50.267V75.28H43.939a1.406,1.406,0,0,0,0,2.812H67.845a1.406,1.406,0,1,0,0-2.812H61.517V70.358ZM58.705,75.28H53.08V70.358h5.625Z" fill="#1a53f6"></path><path id="Path_7" data-name="Path 7" d="M96.673,12.7H78.392l.984.984a8.453,8.453,0,0,1,1.406,1.829H96.673a1.41,1.41,0,0,1,1.406,1.406V30.983H95.267a1.407,1.407,0,1,0,0,2.813h2.812v2.812H91.048a1.406,1.406,0,0,0,0,2.813h7.031v2.812H95.267a1.406,1.406,0,1,0,0,2.813h2.812v15.89l2.813,3.094V16.921A4.231,4.231,0,0,0,96.673,12.7" fill="#1a53f6"></path><path id="Path_8" data-name="Path 8" d="M83.244,49.616a3.456,3.456,0,0,0-4.64-.282c-.071-.14-.141-.211-.211-.351l-2.11-1.969a22.864,22.864,0,0,0,2.18-5.484l2.883-.071a4.392,4.392,0,0,0,4.078-4.64l-.071-3.164a4.368,4.368,0,0,0-4.218-4.43h-.071l-2.882.07a21.929,21.929,0,0,0-2.391-5.414l1.969-2.109a4.421,4.421,0,0,0-.352-6.188L75.158,13.4a4.964,4.964,0,0,0-3.094-1.336,4.084,4.084,0,0,0-3.093,1.265L67,15.444a22.864,22.864,0,0,0-5.484-2.18l-.071-2.883a4.356,4.356,0,0,0-4.5-4.078h-.07l-3.094.07a4.381,4.381,0,0,0-4.429,4.29l.07,2.882a21.9,21.9,0,0,0-5.414,2.391l-2.18-1.969a4.42,4.42,0,0,0-6.187.352l-2.18,2.25a4.964,4.964,0,0,0-1.336,3.094,4.019,4.019,0,0,0,1.195,3.093l2.11,1.969a22.864,22.864,0,0,0-2.18,5.484l-2.883.071a4.39,4.39,0,0,0-4.078,4.64l.07,3.094a4.384,4.384,0,0,0,4.289,4.43l2.883-.071a21.919,21.919,0,0,0,2.391,5.415L33.955,49.9a4.42,4.42,0,0,0,.352,6.187l2.25,2.18A4.962,4.962,0,0,0,39.65,59.6a4.089,4.089,0,0,0,3.094-1.266l1.969-2.109A22.905,22.905,0,0,0,50.2,58.4l.071,2.883a4.376,4.376,0,0,0,4.57,4.078h.07L58,65.295a4.429,4.429,0,0,0,4.43-4.289l-.071-2.883a21.856,21.856,0,0,0,5.414-2.39l1.758,1.687-.7.633a3.334,3.334,0,0,0-.211,4.711l.07.07L94.353,90.959a1.4,1.4,0,0,0,2.11-1.828L70.728,61.006a.471.471,0,0,1,0-.7l9.563-8.719a.551.551,0,0,1,.773,0L97.588,69.795A1.4,1.4,0,1,0,99.7,67.967Zm-14.2,3.445a1.384,1.384,0,0,0-1.758-.141A20.553,20.553,0,0,1,60.674,55.8a1.362,1.362,0,0,0-1.055,1.406l.07,4.008A1.568,1.568,0,0,1,58,62.624H54.908a1.572,1.572,0,0,1-1.758-1.336l-.07-4.008a1.418,1.418,0,0,0-1.125-1.336,20.337,20.337,0,0,1-6.68-2.6,1.393,1.393,0,0,0-1.757.211l-2.743,2.883a1.165,1.165,0,0,1-.914.352,1.757,1.757,0,0,1-1.265-.563l-2.25-2.18a1.632,1.632,0,0,1-.282-2.179l2.743-2.883a1.383,1.383,0,0,0,.14-1.758,20.575,20.575,0,0,1-2.883-6.609,1.354,1.354,0,0,0-1.336-1.055l-3.937.07a1.566,1.566,0,0,1-1.406-1.687l-.211-3.024a1.624,1.624,0,0,1,1.336-1.757l4.008-.071a1.418,1.418,0,0,0,1.335-1.125,20.362,20.362,0,0,1,2.6-6.679,1.393,1.393,0,0,0-.211-1.758l-2.883-2.742a1.227,1.227,0,0,1-.351-.985,1.76,1.76,0,0,1,.562-1.265l2.18-2.25a1.555,1.555,0,0,1,2.18-.282l2.882,2.742a1.382,1.382,0,0,0,1.758.141,20.571,20.571,0,0,1,6.61-2.883A1.36,1.36,0,0,0,52.236,14.6l-.07-4.008a1.567,1.567,0,0,1,1.687-1.406l3.094-.07a1.625,1.625,0,0,1,1.758,1.336l.07,3.937A1.42,1.42,0,0,0,59.9,15.725a20.337,20.337,0,0,1,6.68,2.6,1.394,1.394,0,0,0,1.758-.211l2.742-2.883a1.656,1.656,0,0,1,.914-.352,1.761,1.761,0,0,1,1.266.563l2.25,2.179a1.556,1.556,0,0,1,.281,2.18l-2.742,2.883a1.384,1.384,0,0,0-.141,1.758,20.575,20.575,0,0,1,2.883,6.609A1.362,1.362,0,0,0,77.2,32.108l4.008-.07a1.566,1.566,0,0,1,1.406,1.687l.071,3.094a1.626,1.626,0,0,1-1.336,1.758l-4.078.14a1.418,1.418,0,0,0-1.336,1.125,20.359,20.359,0,0,1-2.6,6.68,1.4,1.4,0,0,0,.211,1.758l2.883,2.742.14.141-4.851,4.429Z" fill="#1a53f6"></path><path id="Path_9" data-name="Path 9" d="M74.666,60.163a1.359,1.359,0,0,0-.07,1.969L88.658,77.6a1.4,1.4,0,0,0,2.11-1.828L76.705,60.3a1.391,1.391,0,0,0-2.039-.141" fill="#1a53f6"></path><path id="Path_10" data-name="Path 10" d="M93.861,79.5A1.406,1.406,0,1,1,92.455,80.9,1.406,1.406,0,0,1,93.861,79.5" fill="#1a53f6"></path><path id="Path_11" data-name="Path 11" d="M65.455,26.835a1.376,1.376,0,0,0-.281-1.969,15.719,15.719,0,0,0-18.633.07,1.427,1.427,0,0,0-.141,1.969,1.411,1.411,0,0,0,1.9.211,12.874,12.874,0,0,1,15.117-.07,1.384,1.384,0,0,0,2.039-.211" fill="#1a53f6"></path><path id="Path_12" data-name="Path 12" d="M65.173,62.553a5.885,5.885,0,0,1-.844,2.18h1.758a6,6,0,0,1-.914-2.18" fill="#1a53f6"></path></g></g></svg> 