<?xml version="1.0" encoding="UTF-8"?> <svg xmlns="http://www.w3.org/2000/svg" xmlns:xlink="http://www.w3.org/1999/xlink" width="90" height="90" viewBox="0 0 90 90"><defs><clipPath id="clip-path"><rect id="Rectangle_22" data-name="Rectangle 22" width="90" height="90" transform="translate(729 833)" fill="#fff"></rect></clipPath></defs><g id="Mask_Group_8" data-name="Mask Group 8" transform="translate(-729 -833)" clip-path="url(#clip-path)"><g id="noun-natural-language-processing-2985136" transform="translate(733 845)"><path id="Path_121" data-name="Path 121" d="M149.007,447.483a.981.981,0,0,0-.982.982v7.852a2.948,2.948,0,0,1-2.945,2.945H116.94a2.923,2.923,0,0,0-2.082.863l-7.074,7.074v-4.992a2.948,2.948,0,0,0-2.945-2.945h-3.926a2.948,2.948,0,0,1-2.945-2.945V424.908a2.948,2.948,0,0,1,2.945-2.945h20.612a.982.982,0,0,0,0-1.963H100.913a4.913,4.913,0,0,0-4.908,4.908v31.409a4.913,4.913,0,0,0,4.908,4.908h3.926a.983.983,0,0,1,.982.982v7.361a.981.981,0,0,0,1.675.694l8.749-8.749a.976.976,0,0,1,.695-.288h28.141a4.913,4.913,0,0,0,4.908-4.908v-7.852a.981.981,0,0,0-.982-.982Z" transform="translate(-96.005 -404.296)" fill="#1b54f8"></path><path id="Path_122" data-name="Path 122" d="M493.076,228H448.908A4.913,4.913,0,0,0,444,232.908v7.852a.982.982,0,1,0,1.963,0v-7.852a2.948,2.948,0,0,1,2.945-2.945h44.168a2.948,2.948,0,0,1,2.945,2.945v31.409a2.948,2.948,0,0,1-2.945,2.945H489.15a2.948,2.948,0,0,0-2.945,2.945V275.2l-7.074-7.074a2.924,2.924,0,0,0-2.083-.863h-4.585a.982.982,0,0,0,0,1.963h4.585a.975.975,0,0,1,.694.288l8.749,8.749a.982.982,0,0,0,1.676-.694v-7.361a.983.983,0,0,1,.982-.982h3.926a4.913,4.913,0,0,0,4.908-4.908V232.908A4.913,4.913,0,0,0,493.076,228Z" transform="translate(-415.536 -228)" fill="#1b54f8"></path><path id="Path_123" data-name="Path 123" d="M538.8,504h-9.815a.981.981,0,0,0-.982.982V514.8a.981.981,0,0,0,.982.981H538.8a.981.981,0,0,0,.982-.981v-9.815A.981.981,0,0,0,538.8,504Z" transform="translate(-492.666 -481.425)" fill="#1b54f8"></path><path id="Path_124" data-name="Path 124" d="M429.372,395.556a.981.981,0,0,0-.982-.982h-2.945v-4.908h2.945a.982.982,0,0,0,0-1.963h-2.945V382.8h2.945a.982.982,0,1,0,0-1.963h-2.945a4.913,4.913,0,0,0-4.908-4.908v-2.945a.982.982,0,1,0-1.963,0v2.945h-4.908v-2.945a.982.982,0,1,0-1.963,0v2.945H406.8v-2.945a.982.982,0,1,0-1.963,0v2.945a4.913,4.913,0,0,0-4.908,4.908h-2.945a.982.982,0,1,0,0,1.963h2.945V387.7h-2.945a.982.982,0,1,0,0,1.963h2.945v4.908h-2.945a.982.982,0,1,0,0,1.963h2.945a4.913,4.913,0,0,0,4.908,4.908v2.945a.982.982,0,0,0,1.963,0v-2.945H411.7v2.945a.982.982,0,0,0,1.963,0v-2.945h4.908v2.945a.982.982,0,0,0,1.963,0v-2.945a4.913,4.913,0,0,0,4.908-4.908h2.945A.981.981,0,0,0,429.372,395.556Zm-5.889.982a2.948,2.948,0,0,1-2.945,2.945h-15.7a2.948,2.948,0,0,1-2.945-2.945v-15.7a2.948,2.948,0,0,1,2.945-2.945h15.7a2.948,2.948,0,0,1,2.945,2.945Z" transform="translate(-371.462 -360.222)" fill="#1b54f8"></path></g></g></svg> 