<?xml version="1.0" encoding="UTF-8"?> <svg xmlns="http://www.w3.org/2000/svg" width="61" height="61" viewBox="0 0 61 61" fill="none"><mask id="mask0_1_169" style="mask-type:luminance" maskUnits="userSpaceOnUse" x="0" y="0" width="61" height="61"><path d="M60.1 0.5H0.100006V60.5H60.1V0.5Z" fill="white"></path></mask><g mask="url(#mask0_1_169)"><path fill-rule="evenodd" clip-rule="evenodd" d="M40.6 34.3L37.1 31.9C37 31.8 36.8 31.8 36.7 31.8H35.6V25C35.6 24.6 35.3 24.3 34.9 24.3H25.7V21.4H40.6V34.3ZM34.2 31.8V25.7H25.7V31.8H34.2ZM34.2 36.1V33.2H25C24.6 33.2 24.3 32.9 24.3 32.5V25.7H19.3V38.6L22.8 36.2C22.9 36.1 23.1 36.1 23.2 36.1H34.2ZM41.3 20H25C24.6 20 24.3 20.3 24.3 20.7V24.3H18.6C18.2 24.3 17.9 24.6 17.9 25V40C17.9 40.4 18.2 40.7 18.6 40.7C18.7 40.7 18.9 40.7 19 40.6L23.5 37.5H35C35.4 37.5 35.7 37.2 35.7 36.8V33.2H36.5L41 36.3C41.1 36.4 41.3 36.4 41.4 36.4C41.5 36.4 41.6 36.4 41.7 36.3C41.9 36.2 42.1 35.9 42.1 35.7V20.7C42 20.3 41.7 20 41.3 20ZM56.7 28.5C57.7 28.5 58.5 29.3 58.5 30.3C58.5 31.3 57.7 32.1 56.7 32.1C55.7 32.1 54.9 31.3 54.9 30.3C54.8 29.3 55.7 28.5 56.7 28.5ZM58.5 50.1C58.5 51.1 57.7 51.9 56.7 51.9C55.7 51.9 54.9 51.1 54.9 50.1C54.9 49.1 55.7 48.3 56.7 48.3C57.7 48.3 58.5 49.1 58.5 50.1ZM46.2 45V15.7C46.2 14.9 45.5 14.2 44.7 14.2H15.4C14.6 14.2 13.9 14.9 13.9 15.7V45C13.9 45.8 14.6 46.5 15.4 46.5H44.7C45.5 46.5 46.2 45.8 46.2 45ZM49.8 55.2C50.8 55.2 51.6 56 51.6 57C51.6 58 50.8 58.8 49.8 58.8C48.8 58.8 48 58 48 57C47.9 56 48.7 55.2 49.8 55.2ZM31.8 57C31.8 58 31 58.8 30 58.8C29 58.8 28.2 58 28.2 57C28.2 56 29 55.2 30 55.2C31 55.2 31.8 56 31.8 57ZM10.2 58.8C9.2 58.8 8.4 58 8.4 57C8.4 56 9.2 55.2 10.2 55.2C11.2 55.2 12 56 12 57C12.1 58 11.2 58.8 10.2 58.8ZM3.30001 51.9C2.30001 51.9 1.50001 51.1 1.50001 50.1C1.50001 49.1 2.30001 48.3 3.30001 48.3C4.30001 48.3 5.10001 49.1 5.10001 50.1C5.10001 51.1 4.30001 51.9 3.30001 51.9ZM3.30001 32.2C2.30001 32.2 1.50001 31.4 1.50001 30.4C1.50001 29.4 2.30001 28.6 3.30001 28.6C4.30001 28.6 5.10001 29.4 5.10001 30.4C5.10001 31.4 4.30001 32.2 3.30001 32.2ZM1.50001 10.6C1.50001 9.6 2.30001 8.79998 3.30001 8.79998C4.30001 8.79998 5.10001 9.6 5.10001 10.6C5.10001 11.6 4.30001 12.4 3.30001 12.4C2.30001 12.4 1.50001 11.6 1.50001 10.6ZM10.2 5.49999C9.2 5.49999 8.4 4.7 8.4 3.7C8.4 2.7 9.2 1.89998 10.2 1.89998C11.2 1.89998 12 2.7 12 3.7C12.1 4.7 11.2 5.49999 10.2 5.49999ZM28.2 3.7C28.2 2.7 29 1.89998 30 1.89998C31 1.89998 31.8 2.7 31.8 3.7C31.8 4.7 31 5.49999 30 5.49999C29 5.49999 28.2 4.7 28.2 3.7ZM49.8 1.79998C50.8 1.79998 51.6 2.6 51.6 3.6C51.6 4.6 50.8 5.39998 49.8 5.39998C48.8 5.39998 48 4.6 48 3.6C47.9 2.7 48.7 1.79998 49.8 1.79998ZM56.7 8.7C57.7 8.7 58.5 9.49999 58.5 10.5C58.5 11.5 57.7 12.3 56.7 12.3C55.7 12.3 54.9 11.5 54.9 10.5C54.8 9.59999 55.7 8.8 56.7 8.7ZM51.8 19.1C52.1 19.1 52.3 19 52.4 18.7L55.4 13.5C57 14.2 58.9 13.4 59.6 11.8C60.3 10.2 59.5 8.3 57.9 7.6C56.3 6.9 54.4 7.69998 53.7 9.29998C53.2 10.5 53.4 11.8 54.3 12.7L51.4 17.7H47.6V15.7C47.6 14.1 46.3 12.8 44.7 12.8H42.7V8.99999L47.7 6.1C49 7.3 51.1 7.19998 52.2 5.89998C53.4 4.59999 53.3 2.49998 52 1.39998C50.7 0.199985 48.6 0.299997 47.5 1.6C46.7 2.5 46.4 3.79999 46.9 4.99999L41.7 7.99999C41.5 8.09999 41.4 8.4 41.3 8.6V12.8H30.8V6.89998C32.5 6.49998 33.6 4.79999 33.3 2.99999C32.9 1.29999 31.2 0.199991 29.4 0.499991C27.7 0.899991 26.6 2.59998 26.9 4.39998C27.2 5.59999 28.1 6.59998 29.4 6.89998V12.8H18.9V8.6C18.9 8.3 18.8 8.09999 18.5 7.99999L13.3 4.99999C14 3.29999 13.2 1.49998 11.6 0.799979C9.90001 0.0999789 8.1 0.899991 7.4 2.49999C6.7 4.19999 7.50001 6 9.10001 6.7C10.3 7.2 11.6 7 12.5 6.1L17.5 8.99999V12.8H15.5C13.9 12.8 12.6 14.1 12.6 15.7V17.7H8.80001L5.9 12.7C7.1 11.4 7 9.3 5.7 8.1C4.4 6.9 2.30001 6.99998 1.10001 8.29998C-0.0999876 9.59998 9.41753e-06 11.7 1.30001 12.9C2.20001 13.7 3.6 14 4.7 13.5L7.7 18.7C7.8 18.9 8.10001 19.1 8.30001 19.1H12.5V29.6H6.60001C6.20001 27.9 4.5 26.8 2.7 27.1C1 27.5 -0.0999967 29.2 0.200003 31C0.500003 32.8 2.30001 33.8 4.10001 33.5C5.30001 33.2 6.30001 32.3 6.60001 31H12.5V41.5H8.30001C8.00001 41.5 7.8 41.6 7.7 41.9L4.7 47.1C3 46.4 1.20001 47.2 0.500006 48.8C-0.199994 50.4 0.600003 52.3 2.2 53C3.9 53.7 5.7 52.9 6.4 51.3C6.9 50.1 6.70001 48.8 5.80001 47.9L8.7 42.9H12.5V44.9C12.5 46.5 13.8 47.8 15.4 47.8H17.4V51.6L12.4 54.5C11.1 53.3 9.00001 53.4 7.80001 54.7C6.60001 56 6.70001 58.1 8.00001 59.3C9.30001 60.5 11.4 60.4 12.6 59.1C13.4 58.2 13.7 56.8 13.2 55.7L18.4 52.7C18.6 52.6 18.8 52.3 18.8 52.1V47.9H29.3V53.8C27.6 54.2 26.5 55.9 26.8 57.7C27.2 59.4 28.9 60.5 30.7 60.2C32.5 59.9 33.5 58.1 33.2 56.3C32.9 55.1 32 54.1 30.7 53.8V47.9H41.2V52.1C41.2 52.4 41.3 52.6 41.6 52.7L46.8 55.7C46.1 57.4 46.9 59.3 48.5 59.9C50.2 60.6 52.1 59.8 52.7 58.2C53.4 56.5 52.6 54.6 51 54C49.8 53.5 48.5 53.7 47.6 54.6L42.6 51.7V47.9H44.6C46.2 47.9 47.5 46.6 47.5 45V43H51.3L54.2 48C53 49.3 53.1 51.4 54.4 52.6C55.7 53.8 57.8 53.7 59 52.4C60.2 51.1 60.1 49 58.8 47.8C57.9 47 56.5 46.7 55.4 47.2L52.4 42C52.3 41.8 52 41.6 51.8 41.6H47.6V31H53.5C53.9 32.7 55.6 33.8 57.4 33.5C59.1 33.1 60.2 31.4 59.9 29.6C59.5 27.9 57.8 26.8 56 27.1C54.8 27.4 53.8 28.3 53.5 29.6H47.6V19.1H51.8Z" fill="#1B54F8" stroke="#1B54F8" stroke-width="0.5" stroke-miterlimit="10"></path></g></svg> 