<?xml version="1.0" encoding="UTF-8"?> <svg xmlns="http://www.w3.org/2000/svg" xmlns:xlink="http://www.w3.org/1999/xlink" width="90" height="90" viewBox="0 0 90 90"><defs><clipPath id="clip-path"><rect id="Rectangle_10" data-name="Rectangle 10" width="90" height="90" transform="translate(112 328)" fill="#fff" stroke="#707070" stroke-width="1"></rect></clipPath></defs><g id="Mask_Group_7" data-name="Mask Group 7" transform="translate(-112 -328)" clip-path="url(#clip-path)"><g id="Group_9" data-name="Group 9" transform="translate(227.253 156)"><path id="Path_9" data-name="Path 9" d="M53.014,44.99,50.67,46.344l2.416,1.4a.843.843,0,0,1,.422.732h0v4.776a.072.072,0,0,0,.022.051.075.075,0,0,0,.051.022H71.732a.075.075,0,0,0,.051-.022.08.08,0,0,0,.022-.051V39.443a.073.073,0,0,0-.022-.05l-.012-.013a.074.074,0,0,0-.039-.01H53.583a.071.071,0,0,0-.051.018h0a.07.07,0,0,0-.018.051v4.776a.847.847,0,0,1-.5.771ZM41.516,6.8a.848.848,0,0,1,0,1.7H36.735a.848.848,0,0,1,0-1.7Zm3.4,62.7a.848.848,0,0,1,0,1.7H33.335a.848.848,0,1,1,0-1.7ZM39.124,25.511a2.136,2.136,0,1,1-1.509.626,2.136,2.136,0,0,1,1.509-.626Zm.31,1.824a.441.441,0,1,0,.128.31A.441.441,0,0,0,39.434,27.336Zm-3.918-2.022a5.1,5.1,0,0,1,7.216,0,.848.848,0,0,0,1.2-1.2,6.8,6.8,0,0,0-9.614,0,.848.848,0,0,0,1.2,1.2Zm-4.693-3a.848.848,0,0,1-1.2-1.2,13.433,13.433,0,0,1,19,0,.848.848,0,0,1-1.2,1.2A11.74,11.74,0,0,0,30.823,22.314Zm13.83,20.207H33.593v3.008a4.777,4.777,0,0,0,4.763,4.763h1.537a4.779,4.779,0,0,0,4.763-4.763V42.521Zm-11.063-1.7H44.655V37.816a4.779,4.779,0,0,0-4.763-4.761H38.355a4.777,4.777,0,0,0-4.763,4.763v3.008ZM44.6,58.491a.848.848,0,0,1,0,1.7H33.647a.848.848,0,0,1,0-1.7h4.628v-6.5a6.476,6.476,0,0,1-6.38-6.458V37.816a6.476,6.476,0,0,1,6.459-6.459h1.537a6.475,6.475,0,0,1,6.458,6.459v7.713a6.474,6.474,0,0,1-6.38,6.458v6.5ZM12.918,6.922H29.061a.849.849,0,0,1,.822.643L31.031,11.1H47.216l1.166-3.587a.846.846,0,0,1,.8-.585v-.01H65.329V6.532A2.343,2.343,0,0,0,63,4.2H15.254a2.345,2.345,0,0,0-2.332,2.336v.387Zm52.411,1.7V37.675H53.583a1.769,1.769,0,0,0-1.246.519l-.006.006a1.763,1.763,0,0,0-.517,1.244v4.291l-3.256,1.88a.845.845,0,0,0,0,1.463h0l3.259,1.882v4.289a1.769,1.769,0,0,0,1.769,1.769H65.329V65.829H12.918V55.016H24.665a1.769,1.769,0,0,0,1.769-1.769V48.959l3.259-1.882h0a.845.845,0,0,0,0-1.463l-3.259-1.881V39.443a1.769,1.769,0,0,0-.519-1.25h0a1.769,1.769,0,0,0-1.248-.52H12.918V8.62H28.447l1.165,3.586a.847.847,0,0,0,.8.585H47.831a.848.848,0,0,0,.822-.638L49.8,8.618Zm0,58.906H12.918v3.31a2.345,2.345,0,0,0,2.332,2.336H62.994a2.343,2.343,0,0,0,2.332-2.336V67.526ZM56.3,51.435a.848.848,0,1,1,0-1.7h12.71a.848.848,0,1,1,0,1.7Zm0-4.242a.848.848,0,1,1,0-1.7h12.71a.848.848,0,1,1,0,1.7Zm0-4.242a.848.848,0,1,1,0-1.7h12.71a.848.848,0,1,1,0,1.7ZM67.026,55.013V70.836a4.041,4.041,0,0,1-4.032,4.032H15.254a4.041,4.041,0,0,1-4.032-4.032V55.016H6.516a1.769,1.769,0,0,1-1.769-1.769v-13.8A1.763,1.763,0,0,1,5.266,38.2l0,0a1.769,1.769,0,0,1,1.245-.517h4.707V6.532A4.041,4.041,0,0,1,15.254,2.5h47.74a4.041,4.041,0,0,1,4.032,4.032V37.675h4.706a1.76,1.76,0,0,1,1.184.459c.023.018.045.039.066.06a1.765,1.765,0,0,1,.519,1.25V53.248a1.769,1.769,0,0,1-1.769,1.769Zm-45.08-5.274H9.235a.848.848,0,1,0,0,1.7h12.71a.848.848,0,1,0,0-1.7Zm0-4.242H9.235a.848.848,0,1,0,0,1.7h12.71a.848.848,0,1,0,0-1.7Zm0-4.242H9.235a.848.848,0,1,0,0,1.7h12.71a.848.848,0,1,0,0-1.7Zm5.629,5.088L25.229,44.99a.848.848,0,0,1-.5-.771V39.443a.069.069,0,0,0-.022-.05h0a.072.072,0,0,0-.051-.018H6.516a.072.072,0,0,0-.051.018h0a.07.07,0,0,0-.018.05V53.248a.072.072,0,0,0,.022.051.075.075,0,0,0,.051.022H24.665a.075.075,0,0,0,.051-.022.072.072,0,0,0,.022-.051V48.472h0a.843.843,0,0,1,.422-.732Z" transform="translate(-109 178.5)" fill="#1c54f8" fill-rule="evenodd"></path></g></g></svg> 