<?xml version="1.0" encoding="UTF-8"?> <svg xmlns="http://www.w3.org/2000/svg" xmlns:xlink="http://www.w3.org/1999/xlink" width="90" height="90" viewBox="0 0 90 90"><defs><clipPath id="clip-path"><rect id="Rectangle_78" data-name="Rectangle 78" width="90" height="90" transform="translate(351 333)" fill="#fff" stroke="#707070" stroke-width="1"></rect></clipPath></defs><g id="Mask_Group_41" data-name="Mask Group 41" transform="translate(-351 -333)" clip-path="url(#clip-path)"><g id="Group_74" data-name="Group 74" transform="translate(-158 25)"><path id="Path_206" data-name="Path 206" d="M35,30v2.476a6.2,6.2,0,0,1,6.19,6.19h2.476A8.676,8.676,0,0,0,35,30Z" transform="translate(520.854 320.664)" fill="#1c54f8"></path><path id="Path_207" data-name="Path 207" d="M26,29v2.476a3.719,3.719,0,0,1,3.714,3.714H32.19A6.2,6.2,0,0,0,26,29Z" transform="translate(518.712 320.426)" fill="#1c54f8"></path><path id="Path_208" data-name="Path 208" d="M20,40.19h2.476a3.719,3.719,0,0,1,3.714-3.714V34A6.2,6.2,0,0,0,20,40.19Z" transform="translate(517.284 321.616)" fill="#1c54f8"></path><path id="Path_209" data-name="Path 209" d="M72.2,26.4a1.233,1.233,0,0,0,.363-.875V20.394a4.952,4.952,0,1,0-2.476,0v4.615l-3.714,3.714V23.046a1.233,1.233,0,0,0-.363-.875l-3.351-3.351V11.728a4.952,4.952,0,1,0-2.476,0v7.091l-3.351,3.351a1.233,1.233,0,0,0-.363.875V33.04c-.136.017-.271.036-.406.059a9.847,9.847,0,0,0-1.191.267l-.025,0a11.169,11.169,0,0,0-3.257-3.4l.02-.03a11.11,11.11,0,0,0-3.4-1.552l-.078-.02a11.016,11.016,0,0,0-1.281-.256c-.038,0-.076-.012-.114-.019A11.017,11.017,0,0,0,45.367,28l-.037,0V26.034l4.589-4.589a1.233,1.233,0,0,0,.363-.875V14.2a4.952,4.952,0,1,0-2.476,0v5.853l-4.589,4.589a1.233,1.233,0,0,0-.363.875v2.767a11.076,11.076,0,0,0-2.241.766l-.077.036a11.272,11.272,0,0,0-1.4.787,11.192,11.192,0,0,0-3.708-1.569V21.632a4.952,4.952,0,1,0-2.476,0V28A11.041,11.041,0,0,0,28,29.2V20.57a1.233,1.233,0,0,0-.363-.875l-4.589-4.589V11.728a4.952,4.952,0,1,0-2.476,0v8.329l-6.19,6.19-6.19-6.19V16.68a4.952,4.952,0,1,0-2.476,0v3.89a1.233,1.233,0,0,0,.363.875l1.6,1.6L3.6,27.123A1.233,1.233,0,0,0,3.238,28V46.748A9.885,9.885,0,0,0,11.9,61.424H44.092v1.238a6.2,6.2,0,0,0,6.19,6.19h2.476a7.435,7.435,0,0,0,7.428,7.428,1.238,1.238,0,0,0,1.238-1.238V68.727a6.2,6.2,0,0,0,4.952-6.065V61.424a9.9,9.9,0,0,0,1.169-19.739,9.832,9.832,0,0,0-1.169-3.608V32.224ZM68.852,15.618a2.476,2.476,0,1,1,2.476,2.476A2.478,2.478,0,0,1,68.852,15.618ZM46.568,9.428A2.476,2.476,0,1,1,49.044,11.9,2.478,2.478,0,0,1,46.568,9.428ZM31.712,16.856a2.476,2.476,0,1,1,2.476,2.476A2.478,2.478,0,0,1,31.712,16.856Zm27.236-9.9a2.476,2.476,0,1,1,2.476,2.476A2.478,2.478,0,0,1,58.948,6.952Zm2.476,14.13L63.9,23.558V35.126c-.053-.043-.111-.079-.165-.121-.09-.069-.183-.136-.276-.2-.157-.113-.316-.223-.479-.326-.1-.066-.21-.125-.317-.187-.156-.09-.311-.181-.47-.262-.141-.072-.286-.135-.431-.2s-.259-.121-.391-.173c-.228-.09-.462-.17-.7-.244-.053-.016-.105-.038-.158-.053a9.8,9.8,0,0,0-1.567-.321V23.558ZM19.332,6.952a2.476,2.476,0,1,1,2.476,2.476A2.478,2.478,0,0,1,19.332,6.952Zm3.351,14.493a1.233,1.233,0,0,0,.363-.875V18.606l2.476,2.476v9.8a11.139,11.139,0,0,0-2.092,2.491l-.025,0a9.846,9.846,0,0,0-1.191-.267c-.137-.024-.276-.042-.415-.059a10.165,10.165,0,0,0-1.062-.078c-.056,0-.111-.011-.167-.011a9.961,9.961,0,0,0-1.238.087V31.712a1.233,1.233,0,0,0-.363-.875L16.13,28ZM4.476,11.9A2.476,2.476,0,1,1,6.952,14.38,2.478,2.478,0,0,1,4.476,11.9ZM9.428,24.8l7.428,7.428v1.448c-.115.046-.225.1-.338.155-.145.066-.291.128-.431.2-.16.08-.314.172-.47.262-.106.062-.213.121-.317.187-.162.1-.321.213-.479.326-.093.067-.186.132-.276.2-.154.119-.3.241-.453.37-.089.077-.175.156-.261.235s-.18.155-.265.239l.01.01a9.873,9.873,0,0,0-2.842,5.825c-.188.022-.371.059-.556.092-.072.012-.144.021-.214.036-.234.047-.462.105-.69.168-.078.021-.157.038-.235.062-.206.062-.4.136-.6.21-.1.037-.2.068-.3.109-.147.061-.287.132-.431.2a9.821,9.821,0,0,0-1.721,1.031c-.067.05-.136.1-.2.149-.021.02-.045.033-.067.052V28.51Zm49.52,48.85a4.96,4.96,0,0,1-3.714-4.795h3.714ZM63.9,62.662a3.719,3.719,0,0,1-3.714,3.714h-9.9a3.719,3.719,0,0,1-3.714-3.714V61.424H63.9ZM73.8,51.52a7.435,7.435,0,0,1-7.428,7.428H58.862a9.856,9.856,0,0,0-2.36-5.257,3.706,3.706,0,0,1,3.683-3.409V47.806A6.182,6.182,0,0,0,54.4,51.865a9.836,9.836,0,0,0-5.353-1.583v2.476a7.435,7.435,0,0,1,7.317,6.19H39.054a9.856,9.856,0,0,0-2.36-5.257,4.944,4.944,0,0,1,4.921-4.647V46.568a7.439,7.439,0,0,0-7.1,5.253,9.831,9.831,0,0,0-5.279-1.539v2.476a7.435,7.435,0,0,1,7.317,6.19H11.9a7.431,7.431,0,0,1-4.126-13.6c.043-.03.092-.054.136-.083a7.336,7.336,0,0,1,1.162-.61c.035-.015.072-.025.106-.038a7.344,7.344,0,0,1,1.294-.383l.033,0a7.427,7.427,0,0,1,6.648,2.039l1.751-1.751a9.842,9.842,0,0,0-5.669-2.8,7.445,7.445,0,0,1,3.205-5.039c.043-.03.092-.054.136-.083a7.336,7.336,0,0,1,1.162-.61c.035-.015.072-.025.106-.038a7.344,7.344,0,0,1,1.294-.383l.033,0a7.486,7.486,0,0,1,2.778,0c.017,0,.035,0,.052.007a7.507,7.507,0,0,1,1.242.368c.061.024.124.043.184.069a7.4,7.4,0,0,1,2.393,1.6l1.751-1.751a9.88,9.88,0,0,0-1.861-1.45,8.689,8.689,0,0,1,7.234-3.929,8.556,8.556,0,0,1,4.217,1.1,11.367,11.367,0,0,0-1.037,1.283l2.044,1.4a8.678,8.678,0,0,1,1.7-1.848c.014-.01.028-.012.042-.024a8.819,8.819,0,0,1,1.2-.811l.035-.02a8.535,8.535,0,0,1,1.195-.54c.083-.031.167-.059.253-.087a8.428,8.428,0,0,1,1.2-.309c.069-.012.139-.019.208-.03a8.784,8.784,0,0,1,1.318-.11h.009a8.521,8.521,0,0,1,1.21.088l.046.007A8.73,8.73,0,0,1,52.568,34.4a9.83,9.83,0,0,0-1.861,1.45L52.458,37.6a7.364,7.364,0,0,1,2.393-1.6c.061-.026.123-.045.183-.069a7.472,7.472,0,0,1,1.242-.368c.017,0,.035,0,.052-.007a7.486,7.486,0,0,1,2.778,0l.033,0a7.406,7.406,0,0,1,1.294.383c.035.014.072.025.106.04a7.378,7.378,0,0,1,1.161.61c.045.028.092.053.136.083a7.548,7.548,0,0,1,1.07.873,7.4,7.4,0,0,1,2.231,5.3,1.238,1.238,0,0,0,1.238,1.238A7.435,7.435,0,0,1,73.8,51.52Z" transform="translate(513 314)" fill="#1c54f8"></path><rect id="Rectangle_75" data-name="Rectangle 75" width="3" height="3" transform="translate(527 364)" fill="#1c54f8"></rect><rect id="Rectangle_76" data-name="Rectangle 76" width="3" height="3" transform="translate(532 364)" fill="#1c54f8"></rect><rect id="Rectangle_77" data-name="Rectangle 77" width="3" height="3" transform="translate(537 364)" fill="#1c54f8"></rect></g></g></svg> 