<?xml version="1.0" encoding="UTF-8"?> <svg xmlns="http://www.w3.org/2000/svg" xmlns:xlink="http://www.w3.org/1999/xlink" width="90" height="90" viewBox="0 0 90 90"><defs><clipPath id="clip-path"><rect id="Rectangle_3" data-name="Rectangle 3" width="90" height="90" transform="translate(1031 180)" fill="#fff"></rect></clipPath></defs><g id="Mask_Group_1" data-name="Mask Group 1" transform="translate(-1031 -180)" clip-path="url(#clip-path)"><g id="Group_166" data-name="Group 166" transform="translate(-177.869 978)"><path id="Path_192" data-name="Path 192" d="M327.911,288.75a4.161,4.161,0,1,0,4.161,4.161A4.166,4.166,0,0,0,327.911,288.75Zm0,5.548a1.387,1.387,0,1,1,1.387-1.387A1.389,1.389,0,0,1,327.911,294.3Z" transform="translate(925.565 -1039.369)" fill="#1b54f8" stroke="#fff" stroke-width="1"></path><path id="Path_193" data-name="Path 193" d="M201.25,156.214V178.4a11.108,11.108,0,0,0,11.1,11.1h11.1v4.161h-9.708v2.774h22.191v-2.774h-9.708V189.5h11.1a11.108,11.108,0,0,0,11.1-11.1V156.214h-2.774v2.774h-2.774v-20.8a6.942,6.942,0,0,0-6.935-6.935H213.732a6.942,6.942,0,0,0-6.935,6.935v20.8h-2.774v-2.774ZM234.536,178.4v2.774h-2.774V178.4h-2.774v2.774h-2.774V178.4h-2.774v2.774h-2.774V178.4h-2.774v2.774h-2.774V178.4h-2.774v2.519a4.154,4.154,0,0,1-2.774-3.906v-1.387h30.512v1.387a4.156,4.156,0,0,1-2.774,3.906V178.4Zm5.548-11.1h-5.548v2.774h5.548v2.774H209.571v-2.774h5.548V167.31h-5.548v-2.774h8.321v-2.774h-8.321v-2.774h8.321v-2.774h-8.321v-2.774h30.512v2.774h-8.321v2.774h8.321v2.774h-8.321v2.774h8.321Zm0-16.643H209.571v-2.774h30.512Zm-27.738-16.388v8.066h2.774v-8.321h2.774v8.321h2.774v-8.321h2.774v8.321h2.774v-8.321h2.774v8.321h2.774v-8.321h2.774v8.321h2.774v-8.066a4.154,4.154,0,0,1,2.774,3.906v6.935H209.571v-6.935A4.156,4.156,0,0,1,212.345,134.279ZM206.8,161.762v15.256a6.942,6.942,0,0,0,6.935,6.935h22.191a6.942,6.942,0,0,0,6.935-6.935V161.762h2.774V178.4a8.33,8.33,0,0,1-8.321,8.321H212.345a8.33,8.33,0,0,1-8.321-8.321V161.762Z" transform="translate(1028.649 -906.833)" fill="#1b54f8" stroke="#fff" stroke-width="1"></path><path id="Path_194" data-name="Path 194" d="M164.21,16.585c-1.061,2.828-2.264,6.034-3.9,6.034s-2.844-3.207-3.906-6.036c-1.446-3.852-2.94-7.834-6.5-7.834s-5.055,3.983-6.5,7.834c-1.059,2.829-2.262,6.036-3.9,6.036s-2.842-3.207-3.9-6.034c-1.445-3.852-2.939-7.835-6.5-7.835s-5.055,3.983-6.5,7.834c-1.059,2.829-2.262,6.036-3.9,6.036s-2.841-3.207-3.9-6.034c-1.444-3.852-2.936-7.835-6.5-7.835s-5.054,3.983-6.5,7.835c-1.06,2.828-2.262,6.034-3.9,6.034s-2.84-3.207-3.9-6.034c-1.443-3.852-2.937-7.835-6.5-7.835v2.774c1.638,0,2.841,3.207,3.9,6.034,1.444,3.852,2.937,7.835,6.5,7.835s5.054-3.983,6.5-7.835c1.06-2.828,2.262-6.034,3.9-6.034s2.841,3.207,3.9,6.034c1.443,3.852,2.937,7.835,6.5,7.835s5.055-3.983,6.5-7.834c1.061-2.829,2.263-6.036,3.9-6.036s2.843,3.207,3.9,6.036c1.446,3.852,2.939,7.834,6.5,7.834s5.055-3.983,6.5-7.835c1.059-2.828,2.262-6.034,3.9-6.034s2.843,3.207,3.9,6.034c1.446,3.852,2.94,7.835,6.5,7.835s5.057-3.982,6.5-7.834c1.061-2.829,2.264-6.036,3.906-6.036V8.75c-3.563,0-5.057,3.983-6.5,7.835Z" transform="translate(1124.37 -803.75)" fill="#1b54f8" stroke="#fff" stroke-width="1"></path><path id="Path_195" data-name="Path 195" d="M341.25,358.75h2.774v2.774H341.25Z" transform="translate(910.839 -1098.274)" fill="#1b54f8" stroke="#fff" stroke-width="1"></path><path id="Path_196" data-name="Path 196" d="M306.25,358.75h2.774v2.774H306.25Z" transform="translate(940.292 -1098.274)" fill="#1b54f8" stroke="#fff" stroke-width="1"></path><path id="Path_197" data-name="Path 197" d="M376.25,358.75h2.774v2.774H376.25Z" transform="translate(881.387 -1098.274)" fill="#1b54f8" stroke="#fff" stroke-width="1"></path></g></g></svg> 