<?xml version="1.0" encoding="UTF-8"?> <svg xmlns="http://www.w3.org/2000/svg" id="Layer_1" data-name="Layer 1" viewBox="0 0 74 74"><defs><style>.cls-1{fill:#1b54f8;}</style></defs><g id="Neural-Network-Development"><g id="neural"><path id="Shape" class="cls-1" d="M19.7,41.48a7.46,7.46,0,1,0,3,10.87l7,3.53a7.47,7.47,0,1,0,13.46-2.53L53.09,43A7.47,7.47,0,1,0,53,31.11L42.89,21a7.47,7.47,0,1,0-13.17-2.92L23.1,20.53a7.47,7.47,0,1,0-3.65,10.24l3.44,5.78ZM16.47,53.8a5.6,5.6,0,1,1,5.6-5.6A5.6,5.6,0,0,1,16.47,53.8Zm7-3.13a7.2,7.2,0,0,0,.43-2.47,7.44,7.44,0,0,0-2.66-5.71L24,38.34,32.05,52a7.45,7.45,0,0,0-1.68,2.15ZM37,23.93a7.43,7.43,0,0,0,4.57-1.57L51.64,32.43a7.48,7.48,0,0,0-1.31,2.65l-5.87-.81s0-.05,0-.07A7.46,7.46,0,0,0,30.8,30.05l-1.12-.55,4.09-6.31A7.44,7.44,0,0,0,37,23.93Zm.93,26.2V41.6a7.48,7.48,0,0,0,6.28-5.48l5.86.81V37a7.44,7.44,0,0,0,1.67,4.7L41.94,52a7.45,7.45,0,0,0-4-1.82ZM37,28.6a5.6,5.6,0,1,1-5.6,5.6A5.6,5.6,0,0,1,37,28.6Zm-7,3.13a7.43,7.43,0,0,0,6.11,9.87v8.53a7.4,7.4,0,0,0-2.48.77l-8.5-14.3,3.57-5.53Zm7,31.4a5.6,5.6,0,1,1,5.6-5.6A5.6,5.6,0,0,1,37,63.13ZM57.53,31.4a5.6,5.6,0,1,1-5.6,5.6A5.6,5.6,0,0,1,57.53,31.4ZM37,10.87a5.6,5.6,0,1,1-5.6,5.6A5.6,5.6,0,0,1,37,10.87Zm-6.64,9a7.52,7.52,0,0,0,1.84,2.31L28,28.66l-4.5-2.25a7.3,7.3,0,0,0,.43-2.48,7.52,7.52,0,0,0-.19-1.65ZM10.87,23.93a5.6,5.6,0,1,1,5.6,5.6A5.6,5.6,0,0,1,10.87,23.93Zm10.18,5.88a7.39,7.39,0,0,0,1.62-1.73L27,30.23,24,34.8Z"></path></g></g></svg> 