<?xml version="1.0" encoding="UTF-8"?> <svg xmlns="http://www.w3.org/2000/svg" width="90" height="90" viewBox="0 0 90 90"><g id="Group_777" data-name="Group 777" transform="translate(-3765 -1011)"><rect id="Rectangle_80" data-name="Rectangle 80" width="90" height="90" transform="translate(3765 1011)" fill="#bcbcbc" opacity="0"></rect><g id="Group_144" data-name="Group 144" transform="translate(-46.698 185.362)"><path id="Path_62" data-name="Path 62" d="M254.956,68.183a1.205,1.205,0,0,0,1.206-1.206V62.851l6.408-3.661a4.852,4.852,0,1,0-.3-2.608L254.358,61.1a1.206,1.206,0,0,0-.608,1.047v4.826a1.205,1.205,0,0,0,1.206,1.206Zm12.065-13.271a2.413,2.413,0,1,1-2.413,2.413A2.415,2.415,0,0,1,267.021,54.912Z" transform="translate(3589.839 786.377)" fill="#1b54f8"></path><path id="Path_63" data-name="Path 63" d="M319.826,172.283a4.826,4.826,0,1,0,4.751,5.569l7.912-4.522a1.206,1.206,0,0,0,.608-1.047v-4.826a1.206,1.206,0,1,0-2.413,0v4.126l-6.408,3.661a4.831,4.831,0,0,0-4.45-2.962Zm0,7.239a2.413,2.413,0,1,1,2.413-2.413A2.415,2.415,0,0,1,319.826,179.521Z" transform="translate(3537.034 688.31)" fill="#1b54f8"></path><path id="Path_64" data-name="Path 64" d="M190.371,18.1h-8.445V12.066a1.205,1.205,0,0,0-.615-1.051L162.007.156a1.2,1.2,0,0,0-1.182,0l-19.3,10.858a1.208,1.208,0,0,0-.615,1.051V18.1H132.46a1.205,1.205,0,0,0-1.206,1.206V44.641a6.044,6.044,0,0,0,4.826,5.911V76.009a1.205,1.205,0,0,0,1.206,1.206h48.259a1.205,1.205,0,0,0,1.206-1.206V50.551a6.043,6.043,0,0,0,4.826-5.911V19.3a1.205,1.205,0,0,0-1.206-1.206Zm-48.259,2.413a1.205,1.205,0,0,0,1.206-1.206V12.771l18.1-10.179,18.1,10.18v8.946a1.206,1.206,0,0,0,2.413,0V20.513h7.239v4.826h-8.445a1.205,1.205,0,0,0-1.206,1.206v6.533l-18.1,10.18-18.1-10.18V24.132a1.206,1.206,0,0,0-2.413,0v1.206h-7.239V20.513h8.445Zm42.227,30.041v3.741H138.492V50.552a6.024,6.024,0,0,0,3.619-2.328,5.978,5.978,0,0,0,9.652,0,5.978,5.978,0,0,0,9.652,0,5.978,5.978,0,0,0,9.652,0,5.978,5.978,0,0,0,9.652,0A6.025,6.025,0,0,0,184.339,50.552Zm-45.846,6.154h13.271v9.652H138.492Zm30.162,18.1H154.177v-18.1h14.478Zm2.413-18.1h13.271v9.652H171.067Zm-27.749-20.86,7.239,4.072v4.725a3.619,3.619,0,1,1-7.239,0Zm9.652,5.429,7.172,4.035a3.617,3.617,0,0,1-7.172-.667Zm9.719,4.035,7.172-4.035v3.367a3.617,3.617,0,0,1-7.172.667Zm13.2,2.952a3.624,3.624,0,0,1-3.619-3.619V39.917l7.239-4.072v8.8A3.624,3.624,0,0,1,175.893,48.261Zm-42.227-3.619V27.751h7.239V44.642a3.619,3.619,0,1,1-7.239,0Zm4.826,24.13h13.271V74.8H138.492ZM171.067,74.8V68.772h13.271V74.8Zm14.478-26.543a3.624,3.624,0,0,1-3.619-3.619V27.751h7.239V44.642A3.624,3.624,0,0,1,185.545,48.261Z" transform="translate(3695.445 831.637)" fill="#1b54f8"></path><path id="Path_65" data-name="Path 65" d="M368.707,453.489a1.205,1.205,0,0,0,1.206-1.206v-4.826a1.206,1.206,0,1,0-2.413,0v4.826A1.205,1.205,0,0,0,368.707,453.489Z" transform="translate(3491.773 446.918)" fill="#1b54f8"></path><path id="Path_66" data-name="Path 66" d="M431.163,132.456a1.206,1.206,0,1,1-1.206-1.206,1.207,1.207,0,0,1,1.206,1.206" transform="translate(3438.968 718.485)" fill="#1b54f8"></path><path id="Path_67" data-name="Path 67" d="M256.163,184.956a1.206,1.206,0,1,1-1.206-1.206,1.207,1.207,0,0,1,1.206,1.206" transform="translate(3589.839 673.223)" fill="#1b54f8"></path></g></g></svg> 