<?xml version="1.0" encoding="UTF-8"?> <svg xmlns="http://www.w3.org/2000/svg" width="90" height="90" viewBox="0 0 90 90" fill="none"><mask id="mask0_1_236" style="mask-type:luminance" maskUnits="userSpaceOnUse" x="0" y="0" width="90" height="90"><path d="M90 0H0V90H90V0Z" fill="white"></path></mask><g mask="url(#mask0_1_236)"><path d="M77 43.3H75.5V41.8C75.5 41 74.9 40.3 74 40.3H71.1C71.4 39.3 71.7 38.4 71.9 37.4H75.4C76.2 37.4 76.9 36.8 76.9 35.9V27.2C76.9 26.4 76.3 25.7 75.4 25.7H71.9C71.2 22.4 69.9 19.3 68.1 16.6L70.6 14.1C71.2 13.5 71.2 12.6 70.6 12L64.4 5.80002C63.8 5.20002 62.9 5.20002 62.3 5.80002L59.8 8.30002C57 6.50002 53.9 5.2 50.7 4.5V1.20001C50.7 0.400012 50.1 -0.299988 49.2 -0.299988H40.5C39.7 -0.299988 39 0.300012 39 1.20001V4.70001C35.7 5.40001 32.6 6.7 29.9 8.5L27.4 6C26.8 5.5 25.9 5.5 25.3 6L19.1 12.2C18.5 12.8 18.5 13.7 19.1 14.3L21.6 16.8C19.8 19.6 18.5 22.7 17.8 25.9H14.2C13.4 25.9 12.7 26.5 12.7 27.4V36.1C12.7 36.9 13.3 37.6 14.2 37.6H17.7C17.9 38.6 18.2 39.6 18.5 40.5H15.6C14.8 40.5 14.1 41.1 14.1 42V43.5H12.6C10.2 43.5 8.20001 45.4 8.20001 47.9V85.6C8.20001 88 10.1 90 12.6 90H76.5C78.9 90 80.9 88.1 80.9 85.6V47.9C81.3 45.2 79.4 43.3 77 43.3ZM30 40.4C25.2 32.1 28 21.4 36.4 16.6C44.8 11.8 55.4 14.6 60.2 23C63.3 28.4 63.3 35.1 60.2 40.5H56.8C57 40.2 57.1 40 57.3 39.7C61.7001 33 59.8 24 53.1 19.6C50.6 18 47.7 17.1 44.7 17.2C36.9 17.5 30.7 23.8 30.6 31.6C30.6 34.5 31.4 37.3 33 39.7C33.2 39.9 33.3 40.2 33.4 40.4H30ZM35.3 38.1C34 36.2 33.4 33.9 33.4 31.6C33.5 25.4 38.5 20.3 44.7 20.1C51.1 19.9 56.5 25 56.6 31.4C56.6 31.5 56.6 31.6 56.6 31.7C56.6 34 55.9 36.2 54.7 38.1C53.6 39.7 52.7 41.5 52.1 43.4H38C37.3 41.4 36.4 39.7 35.3 38.1ZM50.9 49.1H39.2C39.1 48.1 39 47.2 38.8 46.2H51.3C51.1 47.1 50.9 48.1 50.9 49.1ZM49.9 52L48.4 54.9H41.5L40 52H49.9ZM46.5 57.8H49.4C50 57.8 50.5 57.5 50.7 57L53.6 51.2C53.7 51 53.8 50.8 53.8 50.6V50.3C53.8 47.9 54.3 45.5 55.3 43.3H72.7V81H54.7C51.9 81 49.1 81.6 46.6 82.9V57.8H46.5ZM20.7 35.8C20.6 35.1 20 34.6 19.3 34.6H16V28.8H19.3C20 28.8 20.6 28.3 20.7 27.6C21.3 23.9 22.8 20.5 24.9 17.4C25.3 16.8 25.2 16 24.7 15.5L22.4 13.2L26.5 9.10001L28.8 11.4C29.3 11.9 30.1 12 30.7 11.6C33.7 9.40001 37.2 8.00002 40.9 7.40002C41.6 7.30002 42.1 6.7 42.1 6V2.70001H47.9V6C47.9 6.7 48.4 7.30002 49.1 7.40002C52.8 8.00002 56.2001 9.50001 59.3 11.6C59.9 12 60.7 11.9 61.2 11.4L63.5 9.10001L67.6 13.2L65.3 15.5C64.8 16 64.7 16.8 65.1 17.4C67.3 20.4 68.7001 23.9 69.3 27.6C69.4 28.3 70 28.8 70.7 28.8H74V34.6H70.7C70 34.6 69.4 35.1 69.3 35.8C69 37.4 68.6 38.9 68 40.4H63.3C68.1 30.3 63.8 18.1 53.7 13.3C43.6 8.50002 31.4 12.8 26.6 22.9C24 28.4 24 34.8 26.6 40.3H21.9C21.4 38.9 21 37.3 20.7 35.8ZM17.5 43.3H34.9C35.9 45.5 36.4 47.9 36.4 50.3V50.6C36.4 50.8 36.5 51 36.6 51.2L39.5 57C39.7 57.5 40.2001 57.8 40.8 57.8H43.7V82.9C41.2 81.7 38.4 81 35.6 81H17.6V43.3H17.5ZM78.4 85.4C78.4 86.2 77.8 86.9 76.9 86.9H13C12.2 86.9 11.5 86.3 11.5 85.4V47.7C11.5 46.9 12.1 46.2 13 46.2H14.5V82.5C14.5 83.3 15.1 84 16 84H35.5C38.6 84 41.7001 84.9 44.3 86.7C44.8 87 45.4 87 45.9 86.7C48.5 85 51.5 84 54.7 84H74.2C75 84 75.7 83.4 75.7 82.5V46.2H77.2C78 46.2 78.7 46.8 78.7 47.7V85.4H78.4Z" fill="#1B54F8" stroke="white" stroke-width="0.25" stroke-miterlimit="10"></path><path d="M37.8 60.7H20.4V63.6H37.8V60.7Z" fill="#1B54F8" stroke="white" stroke-width="0.25" stroke-miterlimit="10"></path><path d="M34.9 54.9H23.3V57.8H34.9V54.9Z" fill="#1B54F8" stroke="white" stroke-width="0.25" stroke-miterlimit="10"></path><path d="M66.8 54.9H55.2V57.8H66.8V54.9Z" fill="#1B54F8" stroke="white" stroke-width="0.25" stroke-miterlimit="10"></path><path d="M37.8 66.5H20.4V69.4H37.8V66.5Z" fill="#1B54F8" stroke="white" stroke-width="0.25" stroke-miterlimit="10"></path><path d="M37.8 72.3H20.4V75.2H37.8V72.3Z" fill="#1B54F8" stroke="white" stroke-width="0.25" stroke-miterlimit="10"></path><path d="M69.7 60.7H52.3V63.6H69.7V60.7Z" fill="#1B54F8" stroke="white" stroke-width="0.25" stroke-miterlimit="10"></path><path d="M69.7 66.5H52.3V69.4H69.7V66.5Z" fill="#1B54F8" stroke="white" stroke-width="0.25" stroke-miterlimit="10"></path><path d="M69.7 72.3H52.3V75.2H69.7V72.3Z" fill="#1B54F8" stroke="white" stroke-width="0.25" stroke-miterlimit="10"></path><path d="M50.8 31.7H53.7C53.7 26.9 49.8 23 45 23V25.9C48.2 25.9 50.8 28.5 50.8 31.7Z" fill="#1B54F8" stroke="white" stroke-width="0.25" stroke-miterlimit="10"></path></g></svg> 