<?xml version="1.0" encoding="UTF-8"?> <svg xmlns="http://www.w3.org/2000/svg" id="Layer_1" data-name="Layer 1" viewBox="0 0 80 80"><defs><style>.cls-1{opacity:0;}.cls-2{fill:#fff;}.cls-3{fill:#1b54f8;fill-rule:evenodd;}</style></defs><g class="cls-1"><rect class="cls-2" width="80" height="80"></rect></g><path class="cls-3" d="M55.46,46.49A2.47,2.47,0,1,0,53,44a2.48,2.48,0,0,0,2.48,2.47ZM67.11,49.4h-14L48.29,44l4.8-5.39h14Zm1.5-13.78h-1V23.34a1.51,1.51,0,0,0-1.51-1.5H63.22V16.45a1.5,1.5,0,0,0-1.5-1.5h-7a1.5,1.5,0,0,0-1.25,2.33,1.51,1.51,0,0,0,1.25.68h5.51v3.88H51.81a1.49,1.49,0,0,0-1.38.92,1.51,1.51,0,0,0,1.38,2.09H64.6V35.62H52.42a1.49,1.49,0,0,0-1.12.51L45.15,43a1.5,1.5,0,0,0,0,2l6.15,6.89a1.49,1.49,0,0,0,1.12.5H64.6V63.19H34.39a1.5,1.5,0,1,0,0,3H66.1a1.51,1.51,0,0,0,1.51-1.5V52.41h1a1.5,1.5,0,0,0,1.5-1.5V37.13a1.51,1.51,0,0,0-1.5-1.51ZM51.1,12.26a1.52,1.52,0,0,0-.59-.12,1.49,1.49,0,0,0-1.38.92L26.44,66.91a1.48,1.48,0,0,0,0,1.15,1.45,1.45,0,0,0,.81.82,1.47,1.47,0,0,0,.58.12,1.51,1.51,0,0,0,1.39-.92L51.9,14.23a1.51,1.51,0,0,0-.8-2ZM23.62,63.19H21a4.77,4.77,0,0,1-4.76-4.77v-34a4.94,4.94,0,0,0,1.91.39H41a1.51,1.51,0,0,0,1.39-.92,1.52,1.52,0,0,0-.14-1.42A1.49,1.49,0,0,0,41,21.84H18.15a1.92,1.92,0,0,1-1.91-1.91v-.06A1.91,1.91,0,0,1,18.15,18H43.94A1.52,1.52,0,0,0,45.33,17,1.5,1.5,0,0,0,43.94,15H18.15a4.92,4.92,0,0,0-4.92,4.91V58.42A7.78,7.78,0,0,0,21,66.19h2.62a1.49,1.49,0,0,0,1.25-2.33,1.48,1.48,0,0,0-1.25-.67Z"></path></svg> 