<?xml version="1.0" encoding="UTF-8"?> <svg xmlns="http://www.w3.org/2000/svg" xmlns:xlink="http://www.w3.org/1999/xlink" width="90" height="90" viewBox="0 0 90 90"><defs><clipPath id="clip-path"><rect id="Rectangle_17" data-name="Rectangle 17" width="90" height="90" transform="translate(302 498)" fill="#fff" stroke="#707070" stroke-width="1"></rect></clipPath></defs><g id="Mask_Group_10" data-name="Mask Group 10" transform="translate(-302 -498)" clip-path="url(#clip-path)"><g id="Group_25" data-name="Group 25" transform="translate(-100.517 53.468)"><g id="Group_24" data-name="Group 24" transform="translate(412.6 453)"><path id="Path_32" data-name="Path 32" d="M57.85,2.5A23.607,23.607,0,0,0,34.7,21.574a5.821,5.821,0,0,1,1.154-.077,7.037,7.037,0,0,1,1.307.077l1.154.231A20,20,0,1,1,62.849,45.492a.576.576,0,0,1,.077.385,9.147,9.147,0,0,1,.154,3.23A23.605,23.605,0,0,0,57.85,2.5Z" transform="translate(-11.55 -2.5)" fill="#1c54f8" stroke="#fff" stroke-width="1.3"></path><path id="Path_33" data-name="Path 33" d="M73.944,25.214a2.508,2.508,0,0,0-2.077-1.692l-6.23-.692-2.615-5.768a2.464,2.464,0,0,0-2.23-1.461,2.421,2.421,0,0,0-2.23,1.461l-2.615,5.768-6.307.769a2.485,2.485,0,0,0-2.077,1.692,2.4,2.4,0,0,0,.692,2.538l4.691,4.307-1.231,6.153A2.406,2.406,0,0,0,55.255,40.9l5.537-3.153L66.33,40.9a2.257,2.257,0,0,0,1.231.308,2.532,2.532,0,0,0,1.461-.461,2.351,2.351,0,0,0,.923-2.461l-1.384-6.23,4.691-4.307A2.4,2.4,0,0,0,73.944,25.214Zm-8.46,4.845a1.918,1.918,0,0,0-.538,1.769l.923,4.691-4.153-2.384a1.961,1.961,0,0,0-1.846,0l-4.153,2.384.923-4.691a1.918,1.918,0,0,0-.538-1.769l-3.538-3.23,4.768-.538a1.944,1.944,0,0,0,1.461-1.077l2-4.307,2,4.307a1.784,1.784,0,0,0,1.461,1.077l4.768.538Z" transform="translate(-14.493 -5.525)" fill="#1c54f8" stroke="#fff" stroke-width="1.3"></path><path id="Path_34" data-name="Path 34" d="M53.591,61.792a5.406,5.406,0,0,0-2-4.153,5.066,5.066,0,0,0,.692-4.076,5.544,5.544,0,0,0-5.461-4.153H34.133a32.638,32.638,0,0,0,1.307-6.153A22.4,22.4,0,0,0,35.21,37.8,6.776,6.776,0,0,0,29.6,32.182a4.467,4.467,0,0,0-5.076,3.461L23.443,40.8a12.813,12.813,0,0,1-3.922,6.922l-6.076,5.768a2.972,2.972,0,0,1-2.077.846h-5a1.769,1.769,0,0,0,0,3.538h5.076A6.6,6.6,0,0,0,15.983,56.1l6.076-5.768a17.272,17.272,0,0,0,4.922-8.768l1.077-5.076a.869.869,0,0,1,1-.692,3.267,3.267,0,0,1,2.692,2.692A17.788,17.788,0,0,1,31.9,42.95a29.571,29.571,0,0,1-2,7.614,1.894,1.894,0,0,0,.154,1.692,1.859,1.859,0,0,0,1.461.769h3l-.077.385c-2.153,9.306-9.768,8.614-10.075,8.537a1.658,1.658,0,0,0-1.307.385,1.823,1.823,0,0,0-.692,1.154,1.658,1.658,0,0,0,.385,1.307,1.823,1.823,0,0,0,1.154.692,3.844,3.844,0,0,0,.846.077,13.565,13.565,0,0,0,8.46-3,5.421,5.421,0,0,0,1.923,3.384,5.416,5.416,0,0,0-.846,2.923,5.18,5.18,0,0,0,1.923,4.076,5.3,5.3,0,0,0-.923,3,5.076,5.076,0,0,0,.461,2.077,76.79,76.79,0,0,1-11.767.846h-.692a8.457,8.457,0,0,1-7.153-4l-.923-1.461a1.773,1.773,0,0,0-1.538-.846H6.369a1.769,1.769,0,0,0,0,3.538h6.307l.385.615A11.969,11.969,0,0,0,23.212,82.4h1a67.264,67.264,0,0,0,14.767-1.461,5.991,5.991,0,0,0,1.615.308h5.461a5.314,5.314,0,0,0,4.384-8.306,5.3,5.3,0,0,0,1.923-4.076,5.829,5.829,0,0,0-.846-2.923A5.032,5.032,0,0,0,53.591,61.792Zm-14-8.845h7.46a1.731,1.731,0,1,1,0,3.461h-7.46a1.789,1.789,0,0,1-1.769-1.769A1.83,1.83,0,0,1,39.594,52.948Zm6.537,24.688H40.671a1.731,1.731,0,1,1,0-3.461h5.461A1.775,1.775,0,0,1,47.9,75.867,1.842,1.842,0,0,1,46.131,77.636Zm1-7.076h-7.46a1.769,1.769,0,1,1,0-3.538h7.46a1.769,1.769,0,1,1,0,3.538Zm1.154-7.076H38.44a1.769,1.769,0,0,1,0-3.538h9.844a1.789,1.789,0,0,1,1.769,1.769A1.74,1.74,0,0,1,48.285,63.484Z" transform="translate(-4.6 -9.34)" fill="#1c54f8" stroke="#fff" stroke-width="1.3"></path></g></g></g></svg> 