<?xml version="1.0" encoding="UTF-8"?> <svg xmlns="http://www.w3.org/2000/svg" width="91" height="75" viewBox="0 0 91 75" fill="none"><mask id="mask0_17_330" style="mask-type:alpha" maskUnits="userSpaceOnUse" x="0" y="0" width="91" height="75"><path d="M45.3476 26.8193C40.2163 26.8193 36.0455 22.6485 36.0455 17.5172C36.0455 12.3859 40.2163 8.21515 45.3476 8.21515C50.4789 8.21515 54.6497 12.3859 54.6497 17.5172C54.6497 22.6485 50.4536 26.8193 45.3476 26.8193ZM45.3476 10.7429C41.6066 10.7429 38.5733 13.7762 38.5733 17.5172C38.5733 21.2583 41.6066 24.2916 45.3476 24.2916C49.0887 24.2916 52.122 21.2583 52.122 17.5172C52.122 13.7762 49.0634 10.7429 45.3476 10.7429Z" fill="black"></path><path d="M49.0887 35.0345H41.6066C40.8989 35.0345 40.3428 34.4784 40.3428 33.7706V30.6615C40.09 30.5604 39.8372 30.4593 39.5844 30.3581L37.3853 32.5573C37.1578 32.7848 36.8292 32.9364 36.5006 32.9364C36.172 32.9364 35.8434 32.8101 35.6159 32.5573L30.3076 27.249C30.0801 27.0215 29.9285 26.6929 29.9285 26.3643C29.9285 26.0357 30.0549 25.7071 30.3076 25.4796L32.5068 23.2805C32.4057 23.0277 32.2793 22.7749 32.2034 22.5222H29.0943C28.3865 22.5222 27.8304 21.9661 27.8304 21.2583V13.7762C27.8304 13.0684 28.3865 12.5123 29.0943 12.5123H32.2034C32.3045 12.2595 32.4057 12.0068 32.5068 11.754L30.3076 9.55485C30.0801 9.32736 29.9285 8.99875 29.9285 8.67015C29.9285 8.34154 30.0549 8.01293 30.3076 7.78544L35.6159 2.47718C36.0962 1.99691 36.905 1.99691 37.4106 2.47718L39.6097 4.67632C39.8625 4.57521 40.1153 4.44882 40.368 4.37299V1.26387C40.368 0.556103 40.9241 0 41.6319 0H49.114C49.8218 0 50.3779 0.556103 50.3779 1.26387V4.37299C50.6306 4.4741 50.8834 4.57521 51.1362 4.67632L53.3353 2.47718C53.5628 2.24969 53.8914 2.09802 54.22 2.09802C54.5486 2.09802 54.8772 2.22441 55.1047 2.47718L60.413 7.78544C60.9185 8.26571 60.9185 9.07458 60.413 9.58013L58.2139 11.7793C58.315 12.032 58.4414 12.2848 58.5172 12.5376H61.6263C62.3341 12.5376 62.8902 13.0937 62.8902 13.8015V21.2836C62.8902 21.9913 62.3341 22.5474 61.6263 22.5474H58.5172C58.4161 22.8002 58.315 23.053 58.2139 23.3058L60.413 25.5049C60.9185 26.0104 60.9185 26.794 60.413 27.2996L55.1047 32.6078C54.5992 33.1134 53.8156 33.1134 53.31 32.6078L51.1109 30.4087C50.8581 30.5098 50.6054 30.6362 50.3526 30.712V33.7706C50.3526 34.4784 49.7965 35.0345 49.0887 35.0345ZM42.8452 32.5067H47.7996V29.7768C47.7996 29.2207 48.1535 28.7404 48.6843 28.5634C49.3921 28.336 50.0745 28.0579 50.7318 27.704C51.212 27.4512 51.8187 27.5271 52.2231 27.9315L54.1695 29.8779L57.683 26.3643L55.7367 24.418C55.3575 24.0135 55.2564 23.4069 55.5092 22.9266C55.8631 22.2694 56.1411 21.5869 56.3686 20.8791C56.5203 20.3483 57.0258 19.9944 57.5819 19.9944H60.3119V15.04H57.5819C57.0258 15.04 56.5456 14.6862 56.3686 14.1553C56.1411 13.4476 55.8631 12.7651 55.5092 12.1079C55.2564 11.6276 55.3322 11.0209 55.7367 10.6165L57.683 8.67015L54.1695 5.15659L52.2231 7.10295C51.844 7.50739 51.2373 7.58322 50.7318 7.33044C50.0745 6.97656 49.3921 6.69851 48.6843 6.47101C48.1535 6.31935 47.7996 5.8138 47.7996 5.2577V2.52774H42.8452V5.2577C42.8452 5.8138 42.4913 6.29407 41.9605 6.47101C41.2527 6.69851 40.5702 6.97656 39.913 7.33044C39.4328 7.58322 38.8261 7.50739 38.4217 7.10295L36.4753 5.15659L32.9618 8.67015L34.9081 10.6165C35.3126 11.0209 35.3884 11.6023 35.1356 12.1079C34.7817 12.7651 34.5037 13.4476 34.2762 14.1553C34.1245 14.6862 33.619 15.04 33.0629 15.04H30.3582V19.9944H33.0881C33.6442 19.9944 34.1245 20.3483 34.3015 20.8791C34.529 21.5869 34.807 22.2694 35.1609 22.9266C35.4137 23.4069 35.3378 24.0135 34.9334 24.418L32.987 26.3643L36.5006 29.8779L38.4469 27.9315C38.8514 27.5271 39.4328 27.4512 39.9383 27.704C40.5955 28.0579 41.278 28.336 41.9858 28.5634C42.5166 28.7151 42.8705 29.2207 42.8705 29.7768V32.5067H42.8452Z" fill="black"></path><path d="M19.5141 74.2902C8.74598 74.2902 0 65.5443 0 54.7761C0 44.0079 8.74598 35.2619 19.5141 35.2619C30.2823 35.2619 39.0283 44.0079 39.0283 54.7761C39.0283 65.5443 30.2823 74.2902 19.5141 74.2902ZM19.5141 37.7897C10.1362 37.7897 2.52774 45.3982 2.52774 54.7761C2.52774 64.154 10.1615 71.7625 19.5141 71.7625C28.8668 71.7625 36.5005 64.154 36.5005 54.7761C36.5005 45.3982 28.8668 37.7897 19.5141 37.7897Z" fill="black"></path><path d="M29.2207 71.4844C28.513 71.4844 27.9569 70.9283 27.9569 70.2206V61.0196C27.9569 59.4271 26.6677 58.138 25.0752 58.138H13.9785C12.386 58.138 11.0968 59.4271 11.0968 61.0196V70.2206C11.0968 70.9283 10.5407 71.4844 9.83296 71.4844C9.12519 71.4844 8.56909 70.9283 8.56909 70.2206V61.0196C8.56909 58.0369 10.9957 55.6102 13.9785 55.6102H25.0752C28.058 55.6102 30.4846 58.0369 30.4846 61.0196V70.2206C30.4846 70.9283 29.9285 71.4844 29.2207 71.4844Z" fill="black"></path><path d="M19.514 54.1189C15.6719 54.1189 12.5375 50.9845 12.5375 47.1423C12.5375 43.3002 15.6719 40.1658 19.514 40.1658C23.3562 40.1658 26.4906 43.3002 26.4906 47.1423C26.4906 50.9845 23.3562 54.1189 19.514 54.1189ZM19.514 42.7188C17.0621 42.7188 15.0652 44.7157 15.0652 47.1676C15.0652 49.6195 17.0621 51.6164 19.514 51.6164C21.9659 51.6164 23.9629 49.6195 23.9629 47.1676C23.9629 44.7157 21.9659 42.7188 19.514 42.7188Z" fill="black"></path><path d="M71.1559 74.2902C60.3877 74.2902 51.6417 65.5443 51.6417 54.7761C51.6417 44.0079 60.3877 35.2619 71.1559 35.2619C81.924 35.2619 90.67 44.0079 90.67 54.7761C90.67 65.5443 81.924 74.2902 71.1559 74.2902ZM71.1559 37.7897C61.778 37.7897 54.1695 45.3982 54.1695 54.7761C54.1695 64.154 61.778 71.7625 71.1559 71.7625C80.5338 71.7625 88.1423 64.154 88.1423 54.7761C88.1423 45.3982 80.5338 37.7897 71.1559 37.7897Z" fill="black"></path><path d="M80.8623 71.4844C80.1545 71.4844 79.5984 70.9283 79.5984 70.2206V61.0196C79.5984 59.4271 78.3093 58.138 76.7168 58.138H65.6201C64.0276 58.138 62.7384 59.4271 62.7384 61.0196V70.2206C62.7384 70.9283 62.1823 71.4844 61.4746 71.4844C60.7668 71.4844 60.2107 70.9283 60.2107 70.2206V61.0196C60.2107 58.0369 62.6373 55.6102 65.6201 55.6102H76.7168C79.6996 55.6102 82.1262 58.0369 82.1262 61.0196V70.2206C82.1262 70.9283 81.5701 71.4844 80.8623 71.4844Z" fill="black"></path><path d="M71.1559 54.1189C67.3137 54.1189 64.1793 50.9845 64.1793 47.1423C64.1793 43.3002 67.3137 40.1658 71.1559 40.1658C74.998 40.1658 78.1324 43.3002 78.1324 47.1423C78.1324 50.9845 74.998 54.1189 71.1559 54.1189ZM71.1559 42.7188C68.704 42.7188 66.7071 44.7157 66.7071 47.1676C66.7071 49.6195 68.704 51.6164 71.1559 51.6164C73.6078 51.6164 75.6047 49.6195 75.6047 47.1676C75.6047 44.7157 73.6078 42.7188 71.1559 42.7188Z" fill="black"></path><path d="M19.5141 37.7897C18.8063 37.7897 18.2502 37.2336 18.2502 36.5258V21.6122C18.2502 18.68 20.6516 16.2786 23.5838 16.2786H29.069C29.7767 16.2786 30.3328 16.8347 30.3328 17.5425C30.3328 18.2503 29.7767 18.8064 29.069 18.8064H23.5838C22.0419 18.8064 20.778 20.0702 20.778 21.6122V36.5258C20.778 37.2083 20.2219 37.7897 19.5141 37.7897Z" fill="black"></path><path d="M71.1558 37.7897C70.448 37.7897 69.8919 37.2336 69.8919 36.5258V21.6122C69.8919 20.0702 68.628 18.8064 67.0861 18.8064H61.6009C60.8931 18.8064 60.337 18.2503 60.337 17.5425C60.337 16.8347 60.8931 16.2786 61.6009 16.2786H67.0861C70.0183 16.2786 72.4196 18.68 72.4196 21.6122V36.5258C72.4196 37.2083 71.8635 37.7897 71.1558 37.7897Z" fill="black"></path><path d="M52.9056 56.04H37.7645C37.0567 56.04 36.5006 55.4839 36.5006 54.7761C36.5006 54.0683 37.0567 53.5122 37.7645 53.5122H52.9056C53.6134 53.5122 54.1695 54.0683 54.1695 54.7761C54.1695 55.4839 53.6134 56.04 52.9056 56.04Z" fill="black"></path></mask><g mask="url(#mask0_17_330)"><rect x="0.669922" y="-7.99301" width="90" height="90" fill="#1B54F8"></rect></g></svg> 