<?xml version="1.0" encoding="UTF-8"?> <svg xmlns="http://www.w3.org/2000/svg" xmlns:xlink="http://www.w3.org/1999/xlink" id="Layer_1" data-name="Layer 1" viewBox="0 0 80 80"><defs><style>.cls-1{fill:#fff;}.cls-1,.cls-3{fill-rule:evenodd;}.cls-2{mask:url(#mask);}.cls-3{fill:#1b54f8;}</style><mask id="mask" x="10.05" y="10.15" width="59.86" height="59.71" maskUnits="userSpaceOnUse"><g id="mask-2"><polygon id="path-1" class="cls-1" points="10.05 10.15 69.91 10.15 69.91 69.85 10.05 69.85 10.05 10.15"></polygon></g></mask></defs><g id="Artboard"><g id="Page-1"><g id="Group-3"><g class="cls-2"><path id="Fill-1" class="cls-3" d="M56.86,18.09,54.3,20.65a1.36,1.36,0,0,1-2.1.23,22.46,22.46,0,0,0-7.2-3c-1.24-.28-1.43-.53-1.43-1.85V12.58H36.39v3.53c0,1.2-.22,1.5-1.37,1.75a22.42,22.42,0,0,0-7.33,3.06,1.29,1.29,0,0,1-2-.22c-.88-.88-1.74-1.78-2.51-2.57l-5.14,5.12c.83.82,1.73,1.68,2.61,2.56a1.26,1.26,0,0,1,.19,1.91A22.39,22.39,0,0,0,17.79,35c-.26,1.15-.56,1.38-1.74,1.38H12.51v7.16h3.57c1.15,0,1.45.22,1.7,1.34a22.37,22.37,0,0,0,3.06,7.32,1.32,1.32,0,0,1-.24,2L18.05,56.8l5.12,5.07c.8-.81,1.65-1.69,2.52-2.55a1.31,1.31,0,0,1,2-.22,22.54,22.54,0,0,0,7.34,3c1.11.24,1.33.55,1.33,1.7v3.56h7.18V63.92c0-1.25.21-1.53,1.4-1.79a22.49,22.49,0,0,0,7.08-2.91c1.15-.72,1.43-.69,2.39.26l2.4,2.39L62,56.78c-.86-.83-1.75-1.69-2.63-2.56a1.25,1.25,0,0,1-.24-1.91,23,23,0,0,0,3.14-7.53c.21-.94.55-1.19,1.5-1.2h3.74V36.42H63.84c-1.1,0-1.41-.24-1.65-1.31a22.66,22.66,0,0,0-3-7.32c-.59-.91-.53-1.31.25-2.09l2.55-2.54-5.08-5.07M53.18,61.58l-7.21,3c0,1.12,0,2.44,0,3.75,0,1.13-.4,1.53-1.53,1.53-3,0-6,0-9,0-1,0-1.45-.43-1.46-1.45V64.56l-7.24-3c-.74.77-1.64,1.69-2.55,2.6s-1.41.89-2.27,0L15.69,58c-.83-.83-.82-1.37,0-2.21l2.63-2.61c-1-2.44-2-4.77-3-7.19h-3.8c-1.07,0-1.49-.42-1.5-1.49v-9A1.24,1.24,0,0,1,11.46,34h3.89l3-7.19c-.81-.8-1.75-1.72-2.68-2.65-.76-.77-.77-1.36,0-2.11q3.2-3.21,6.4-6.39a1.26,1.26,0,0,1,2.06,0c.94.94,1.85,1.88,2.68,2.72l7.22-3V11.67c0-1.11.42-1.52,1.54-1.52h8.82c1.23,0,1.61.39,1.61,1.6v3.68l7.24,3,2.56-2.61c.87-.88,1.41-.89,2.27,0L64.27,22c.82.82.81,1.38,0,2.21l-2.63,2.61c1,2.44,2,4.77,3,7.19h3.8c1.07,0,1.49.42,1.49,1.49q0,4.44,0,8.88c0,1.17-.39,1.56-1.56,1.57H64.6l-3,7.17,2.57,2.57c.91.9.92,1.43,0,2.32Q61.13,61.12,58,64.2c-.86.86-1.4.85-2.27,0l-2.58-2.6"></path></g></g><path id="Fill-4" class="cls-3" d="M40,55.52A15.52,15.52,0,1,0,24.42,40,15.57,15.57,0,0,0,40,55.52M22,40A18,18,0,1,1,39.92,57.91,17.94,17.94,0,0,1,22,40"></path><path id="Fill-6" class="cls-3" d="M38.45,45.11c.14-.26.25-.48.36-.7q2.91-5.79,5.81-11.58a4.47,4.47,0,0,1,.4-.71,1.19,1.19,0,0,1,2.07,1.09,4.78,4.78,0,0,1-.28.61q-3.36,6.69-6.7,13.38c-.72,1.42-1.44,1.54-2.56.42-1.43-1.42-2.86-2.83-4.28-4.27a1.19,1.19,0,0,1,.29-2.07,1.22,1.22,0,0,1,1.41.39l2.9,2.89.58.55"></path></g></g></svg> 