<?xml version="1.0" encoding="UTF-8"?> <svg xmlns="http://www.w3.org/2000/svg" width="80" height="80" viewBox="0 0 80 80"><g id="Group_619" data-name="Group 619" transform="translate(-960 -2692)"><rect id="Rectangle_124" data-name="Rectangle 124" width="80" height="80" transform="translate(960 2692)" fill="#f6f6f6" opacity="0"></rect><g id="Group_612" data-name="Group 612" transform="translate(-1420.214 1469.381)"><path id="Path_564" data-name="Path 564" d="M130.272,40.948a.657.657,0,0,0-.645.665V43.95a17.91,17.91,0,0,0-4.312,1.149l-1.189-2.035a.647.647,0,0,0-.886-.242l-3.083,1.773a.664.664,0,0,0-.222.907l1.168,2.035a18.374,18.374,0,0,0-3.164,3.164l-2.035-1.189a.684.684,0,0,0-.907.262l-1.773,3.063a.679.679,0,0,0,.242.907l2.035,1.168a17.524,17.524,0,0,0-1.149,4.312H112a.632.632,0,0,0-.645.645v3.546a.664.664,0,0,0,.645.665h2.358A18.155,18.155,0,0,0,115,66.941l.765-.02a19.391,19.391,0,0,1-.665-3.285l-.04-.362h-2.9V60.009h2.9l.04-.343a16.734,16.734,0,0,1,1.27-4.775l.141-.343L113.992,53.1l1.652-2.821,2.519,1.451.222-.282a17.436,17.436,0,0,1,3.486-3.506l.282-.222L120.7,45.2l2.821-1.632,1.451,2.539.343-.141a17,17,0,0,1,4.776-1.269l.343-.04V41.714H133.7v2.922l.343.04a17.252,17.252,0,0,1,4.776,1.269l.343.141,1.451-2.519,2.8,1.632-1.451,2.519.3.222a17.045,17.045,0,0,1,3.486,3.486l.22.282,2.519-1.451,1.632,2.821L147.6,54.548l.141.322a17.239,17.239,0,0,1,1.269,4.776l.06.362h2.9v3.244h-2.9l-.06.362a16.87,16.87,0,0,1-1.269,4.776l-.141.322,2.519,1.471-1.612,2.8-2.539-1.451-.222.282a17.251,17.251,0,0,1-1.854,2.116l.544.584A15.967,15.967,0,0,0,146.15,72.6l2.035,1.168a.665.665,0,0,0,.907-.242l1.773-3.082a.7.7,0,0,0,.06-.5.665.665,0,0,0-.322-.383l-2.015-1.189a17.546,17.546,0,0,0,1.149-4.312h2.358a.639.639,0,0,0,.645-.645V59.868a.656.656,0,0,0-.645-.665h-2.358a17.409,17.409,0,0,0-1.149-4.312l2.015-1.168a.705.705,0,0,0,.322-.4.6.6,0,0,0-.06-.5l-1.773-3.083a.664.664,0,0,0-.907-.222L146.15,50.68a17.871,17.871,0,0,0-3.143-3.163l1.189-2.035a.642.642,0,0,0-.242-.886l-3.083-1.773a.656.656,0,0,0-.5-.081.705.705,0,0,0-.4.322L138.8,45.1a18.2,18.2,0,0,0-4.312-1.149V41.613a.681.681,0,0,0-.665-.665Zm1.088,6.891a13.823,13.823,0,0,0-11.686,19.887l.846.1a15.083,15.083,0,0,1-1.451-6.206,13,13,0,1,1,20.493,10.6l.04.06.967.222a14.073,14.073,0,0,0,5.3-10.86,13.815,13.815,0,0,0-13.8-13.8c-.238,0-.47-.012-.705,0Zm.705,1.713A12.087,12.087,0,0,0,120,61.621a9.672,9.672,0,0,0,1.955,6.407l1.007.222a11.279,11.279,0,1,1,14.1,3.466l1.149.3a12.242,12.242,0,0,0,4.05-3.909,12.092,12.092,0,0,0-10.195-18.557Zm0,8.7a3.375,3.375,0,1,0,0,6.75,3.375,3.375,0,0,0,0-6.75Zm0,.806a2.579,2.579,0,1,1-2.579,2.579A2.57,2.57,0,0,1,132.066,59.062ZM114.918,68.27c-4.705,0-9.352,1.6-13.862,3.143-.916.309-1.865.649-2.78.947l-.282.081v13.9l.282.081a30.929,30.929,0,0,0,4.231.544c1.225.115,2.39.228,2.962.343a24.307,24.307,0,0,1,6.992,3.043c1.282.721,2.6,1.489,3.97,2.1.71.321,1.466.664,2.176,1.007,2.507,1.225,5.1,2.482,7.939,2.539h.564a62.884,62.884,0,0,0,11.485-1.431c1.351-.252,2.737-.508,4.11-.725,4.27-.687,8.147-4.311,11.364-7.757,1.774-1.9,2.373-3.921,1.652-5.581a4.214,4.214,0,0,0-3.97-2.358,6.338,6.338,0,0,0-4.03,1.552,14.276,14.276,0,0,1-7.6,3.647,48.2,48.2,0,0,1-5.037.322,16.532,16.532,0,0,1-8.221-1.793,6.617,6.617,0,0,1,1.531-.161c.7,0,1.435.093,2.156.161.7.068,1.42.141,2.1.141a30.271,30.271,0,0,1,3.365.262,32.762,32.762,0,0,0,3.526.262,11.541,11.541,0,0,0,2.358-.222,3.573,3.573,0,0,0,2.74-3.486,3.991,3.991,0,0,0-2.579-4.151,37.486,37.486,0,0,0-7.838-1.451,44.992,44.992,0,0,1-6.407-1.028,26.337,26.337,0,0,1-4.312-1.692,21.124,21.124,0,0,0-5.884-2.055,19.073,19.073,0,0,0-2.7-.181Zm0,.846a19.167,19.167,0,0,1,2.579.181,20.8,20.8,0,0,1,5.682,1.974,28.139,28.139,0,0,0,4.433,1.753,46.145,46.145,0,0,0,6.528,1.048,36.824,36.824,0,0,1,7.677,1.39,3.2,3.2,0,0,1,2.035,3.345,2.824,2.824,0,0,1-2.075,2.761,11.086,11.086,0,0,1-2.216.2,31.313,31.313,0,0,1-3.425-.242,34.554,34.554,0,0,0-3.446-.262c-.63,0-1.305-.072-2.015-.141-.733-.069-1.492-.161-2.237-.161a5.765,5.765,0,0,0-2.64.524l-.625.3.584.383a16.794,16.794,0,0,0,9.349,2.337,49.445,49.445,0,0,0,5.118-.322,15.044,15.044,0,0,0,8.019-3.828,5.543,5.543,0,0,1,3.526-1.37,3.427,3.427,0,0,1,3.244,1.854c.584,1.351.034,3.075-1.511,4.735-3.125,3.343-6.871,6.854-10.9,7.5-1.385.218-2.8.474-4.151.725a60.651,60.651,0,0,1-11.867,1.39c-2.667-.057-5.189-1.259-7.616-2.438-.721-.344-1.463-.728-2.2-1.048a42.543,42.543,0,0,1-3.929-2.035,24.762,24.762,0,0,0-7.214-3.164c-.618-.126-1.795-.228-3.043-.343-1.388-.125-2.937-.253-3.788-.423V73.065c.836-.274,1.694-.56,2.519-.846,4.442-1.523,9.033-3.1,13.6-3.1Z" transform="translate(2293.221 1193.671)" fill="#1b54f8" stroke="#1b54f8" stroke-width="1"></path></g></g></svg> 