<?xml version="1.0" encoding="UTF-8"?> <svg xmlns="http://www.w3.org/2000/svg" xmlns:xlink="http://www.w3.org/1999/xlink" width="90" height="90" viewBox="0 0 90 90"><defs><clipPath id="clip-path"><rect id="Rectangle_21" data-name="Rectangle 21" width="90" height="90" transform="translate(846 833)" fill="#fff"></rect></clipPath></defs><g id="Mask_Group_9" data-name="Mask Group 9" transform="translate(-846 -833)" clip-path="url(#clip-path)"><path id="noun-maintenance-5585359" d="M145.528,100.155a7.978,7.978,0,0,1-7.968-7.967v-8.8a28.778,28.778,0,0,1-6.607-2.8l-5.273,5.3a2.791,2.791,0,0,1-3.943,0L114.9,79.046h0a2.8,2.8,0,0,1,0-3.941l5.3-5.276h0a29.5,29.5,0,0,1-2.915-6.957h-7.448a2.794,2.794,0,0,1-2.791-2.792V50.432a2.794,2.794,0,0,1,2.791-2.791h7.448a28.977,28.977,0,0,1,2.912-6.962l-5.3-5.271a2.8,2.8,0,0,1,0-3.943l6.837-6.835a2.787,2.787,0,0,1,3.941,0l5.272,5.3a28.928,28.928,0,0,1,6.962-2.911V19.571a2.8,2.8,0,0,1,2.793-2.792h9.646a2.8,2.8,0,0,1,2.793,2.792v7.448a28.923,28.923,0,0,1,6.962,2.911l5.27-5.3a2.79,2.79,0,0,1,3.943,0l6.837,6.837h0a2.8,2.8,0,0,1,0,3.941l-5.3,5.272a28.981,28.981,0,0,1,2.912,6.962h7.448A2.794,2.794,0,0,1,184,50.432V60.08a2.794,2.794,0,0,1-2.791,2.791h-7.448a29.48,29.48,0,0,1-2.914,6.957l5.3,5.274h0a2.8,2.8,0,0,1,0,3.944l-6.837,6.836a2.787,2.787,0,0,1-3.941,0l-5.275-5.3h0a28.778,28.778,0,0,1-6.607,2.8v8.8a7.978,7.978,0,0,1-7.968,7.967Zm-5.2-17.839v9.872a5.2,5.2,0,0,0,10.393,0V72.971a18.432,18.432,0,0,1-10.393.024Zm19.988-4.867a1.38,1.38,0,0,1,.983.409l6.038,6.069,6.856-6.84-6.068-6.055a1.387,1.387,0,0,1-.2-1.715,26.608,26.608,0,0,0,3.405-8.139,1.385,1.385,0,0,1,1.35-1.077h8.531l.019-9.665-8.55-.023a1.384,1.384,0,0,1-1.35-1.077c-2.965-11.935-7.393-5.7,2.866-15.891l-6.839-6.855L161.3,32.656a1.393,1.393,0,0,1-1.722.2,26.205,26.205,0,0,0-8.13-3.4,1.386,1.386,0,0,1-1.078-1.35v-8.53l-9.668-.02-.022,8.55a1.385,1.385,0,0,1-1.078,1.35c-11.932,2.968-5.7,7.39-15.89-2.865l-6.856,6.839,6.068,6.057a1.384,1.384,0,0,1,.195,1.721,26.228,26.228,0,0,0-3.4,8.132,1.384,1.384,0,0,1-1.35,1.077h-8.531l-.019,9.668,8.55.02a1.385,1.385,0,0,1,1.351,1.077,26.607,26.607,0,0,0,3.405,8.139,1.387,1.387,0,0,1-.2,1.715l-6.071,6.037,6.839,6.856,6.057-6.067a1.378,1.378,0,0,1,1.719-.2,26.457,26.457,0,0,0,6.088,2.834V71.919c-14.112-6.114-13.632-28.3.869-33.7a1.395,1.395,0,0,1,1.9,1.286V57.268l5.2,3.5,5.2-3.505V39.506a1.386,1.386,0,0,1,1.922-1.278,18.4,18.4,0,0,1,.85,33.6v8.667a62.775,62.775,0,0,0,6.823-3.046ZM139.462,69.72c18.083,6.97,30.522-17.731,14.034-27.972V58a1.386,1.386,0,0,1-.612,1.149l-6.582,4.44a1.379,1.379,0,0,1-1.548,0l-6.582-4.44A1.387,1.387,0,0,1,137.559,58v-16.3a15.743,15.743,0,0,0,1.9,28.014Z" transform="translate(745.949 819.221)" fill="#1b54f8" stroke="#fff" stroke-width="0.4"></path></g></svg> 