<?xml version="1.0" encoding="UTF-8"?> <svg xmlns="http://www.w3.org/2000/svg" xmlns:xlink="http://www.w3.org/1999/xlink" width="60" height="60" viewBox="0 0 60 60"><defs><clipPath id="clip-path"><rect id="Rectangle_873" data-name="Rectangle 873" width="60" height="60" transform="translate(537 253)" fill="#fff" stroke="#707070" stroke-width="1"></rect></clipPath></defs><g id="Mask_Group_102" data-name="Mask Group 102" transform="translate(-537 -253)" clip-path="url(#clip-path)"><g id="Group_2964" data-name="Group 2964" transform="translate(-12.276 -160)"><path id="Path_3151" data-name="Path 3151" d="M56.128,20.738H50.8l1.181-2.331-3.876-3.853-2.7,1.389a14.2,14.2,0,0,0-3.548-1.458L40.913,11.6l-5.466.014L34.517,14.5a14.242,14.242,0,0,0-3.542,1.476l-2.708-1.371-3.856,3.874,1.158,2.257H20.318a3.182,3.182,0,0,0-3.179,3.179V50.643a3.181,3.181,0,0,0,3.179,3.178H30.8l-1.637,2.553h-4.4A1.27,1.27,0,0,0,23.5,57.644v2.549a1.27,1.27,0,0,0,1.267,1.267H51.682a1.27,1.27,0,0,0,1.269-1.269V57.644a1.27,1.27,0,0,0-1.269-1.269h-4.4l-1.637-2.553H56.129a3.181,3.181,0,0,0,3.179-3.178V23.917A3.182,3.182,0,0,0,56.128,20.738ZM28.553,16.391l2.491,1.261.347-.219a12.778,12.778,0,0,1,3.86-1.609l.4-.094.857-2.66,3.338-.009.874,2.656.4.093a12.758,12.758,0,0,1,3.868,1.59l.351.218,2.484-1.275L50.2,18.7l-1.261,2.49.219.347a12.792,12.792,0,0,1,1.609,3.861l.1.4,2.659.856.009,3.34-2.655.87-.092.4a12.824,12.824,0,0,1-1.589,3.868l-.217.347,1.274,2.485-2.355,2.366L45.4,39.078l-.347.219a12.819,12.819,0,0,1-3.546,1.522V38.832a10.978,10.978,0,1,0-6.568,0v1.985a12.783,12.783,0,0,1-3.487-1.485l-.352-.217L28.619,40.39l-2.367-2.355,1.26-2.491-.219-.347a12.835,12.835,0,0,1-1.609-3.86l-.1-.4-2.659-.857-.012-3.34,2.656-.869.092-.4A12.785,12.785,0,0,1,27.256,21.6l.217-.351L26.2,18.759ZM35.97,32.722a5.518,5.518,0,0,1-1.031-9.47v3.694a1.472,1.472,0,0,0,1.471,1.472h3.626a1.472,1.472,0,0,0,1.471-1.472V23.253a5.518,5.518,0,0,1-1.031,9.469.731.731,0,0,0-.433.667V44.045a1.821,1.821,0,1,1-3.641,0V33.39a.731.731,0,0,0-.433-.667Zm.1-11.355a.73.73,0,0,0-.694-.053,6.982,6.982,0,0,0-.433,12.533v3.439a9.514,9.514,0,1,1,6.568,0V33.846a6.983,6.983,0,0,0-.432-12.533.732.732,0,0,0-1.031.668l-.008,4.974L36.4,26.946V21.981a.731.731,0,0,0-.333-.615ZM20.32,22.2h4.948a14.2,14.2,0,0,0-.926,2.529l-2.887.947.015,5.465,2.891.931a14.292,14.292,0,0,0,1.476,3.542l-1.371,2.708,3.874,3.855,2.7-1.389a14.254,14.254,0,0,0,3.547,1.458l.351,1.072v.726a3.284,3.284,0,0,0,6.568,0v-.5l.424-1.319a14.293,14.293,0,0,0,3.542-1.476l2.708,1.371,3.855-3.874-1.389-2.7A14.3,14.3,0,0,0,52.107,32l2.886-.947-.013-5.466-2.892-.93a14.268,14.268,0,0,0-.909-2.456h4.949a1.718,1.718,0,0,1,1.716,1.716V47.852H18.6V23.917A1.718,1.718,0,0,1,20.318,22.2ZM51.487,57.838V60H24.959V57.838Zm-5.944-1.464H30.9l1.637-2.553H43.9Zm10.585-4.017H20.318A1.717,1.717,0,0,1,18.6,50.643V49.317H57.843v1.326a1.717,1.717,0,0,1-1.716,1.715Z" transform="translate(541.137 406.403)" fill="#1c54f8" stroke="#fff" stroke-width="0.4"></path></g></g></svg> 