<?xml version="1.0" encoding="UTF-8"?> <svg xmlns="http://www.w3.org/2000/svg" xmlns:xlink="http://www.w3.org/1999/xlink" width="90" height="90" viewBox="0 0 90 90"><defs><clipPath id="clip-path"><rect id="Rectangle_5" data-name="Rectangle 5" width="90" height="90" transform="translate(554.261)" fill="none"></rect></clipPath></defs><g id="Group_10" data-name="Group 10" transform="translate(-554.261)"><g id="Group_9" data-name="Group 9" clip-path="url(#clip-path)"><path id="Path_8" data-name="Path 8" d="M605.583,88.1H587.542a1.491,1.491,0,0,1-1.492-1.489V79.854a36.636,36.636,0,0,1-14.458-8.324L565.755,74.9a1.5,1.5,0,0,1-2.039-.549l-8.983-15.689a1.491,1.491,0,0,1,.548-2.031l5.817-3.367a35.114,35.114,0,0,1,0-16.614c-1.771-1.044-4.635-2.724-5.776-3.331a1.5,1.5,0,0,1-.605-2.033l.013-.025,8.983-15.69a1.5,1.5,0,0,1,2.036-.551l5.872,3.38a36.646,36.646,0,0,1,14.426-8.292V3.391A1.491,1.491,0,0,1,587.54,1.9h18.043a1.489,1.489,0,0,1,1.491,1.489v6.723A36.662,36.662,0,0,1,621.495,18.4l5.764-3.37a1.5,1.5,0,0,1,2.042.54l9.09,15.69a1.5,1.5,0,0,1-.545,2.038L632,36.679a37.051,37.051,0,0,1,.9,5.841,20.486,20.486,0,1,1-20.633,35.291,34.961,34.961,0,0,1-5.2,2.009v6.789a1.491,1.491,0,0,1-1.49,1.491Zm-16.55-2.982h15.058V78.695a1.494,1.494,0,0,1,1.1-1.439,34.3,34.3,0,0,0,4.486-1.539,20.386,20.386,0,0,1-3.9-5.247c-16.5,6.773-37.2-7.608-36.28-25.516a27.042,27.042,0,0,1,53.668-4.625,19.609,19.609,0,0,1,6.627.905,38.985,38.985,0,0,0-.947-4.921,1.485,1.485,0,0,1,.7-1.657l5.517-3.193-7.591-13.1-5.449,3.185a1.5,1.5,0,0,1-1.806-.233,33.648,33.648,0,0,0-15.024-8.634,1.493,1.493,0,0,1-1.1-1.441V4.882H589.033v6.354a1.493,1.493,0,0,1-1.1,1.441,33.648,33.648,0,0,0-15.024,8.634,1.492,1.492,0,0,1-1.8.238l-5.551-3.194-7.489,13.084c1.8,1.023,4.416,2.57,5.52,3.222a1.494,1.494,0,0,1,.676,1.7,32.315,32.315,0,0,0,0,17.212,1.492,1.492,0,0,1-.688,1.7l-5.519,3.2,7.5,13.1,5.513-3.19a1.482,1.482,0,0,1,1.8.236,33.64,33.64,0,0,0,15.056,8.668,1.494,1.494,0,0,1,1.1,1.441Zm24.749-9.841a17.584,17.584,0,0,0,27.493-14.455c.256-15.287-19.37-23.426-29.765-12.248a17.555,17.555,0,0,0,2.272,26.7m-41.3-30.239c-.912,15.646,17.611,28.587,32.034,22.72a18.378,18.378,0,0,1-.941-3.5c-12.712,5.12-28.1-5.621-27.475-19.31.954-25.393,36.027-27.544,40.579-3.373a18.575,18.575,0,0,1,3.516-.923,24.057,24.057,0,0,0-47.713,4.381m19.908,16.906a17.4,17.4,0,0,0,10.905-.792,20.8,20.8,0,0,1,2.858-10.7,11.939,11.939,0,0,0-5.1-4.049,7.9,7.9,0,0,1-8.991,0,12.148,12.148,0,0,0-7.346,11.367,18.987,18.987,0,0,0,7.675,4.179m-13.308-16.9a16.217,16.217,0,0,0,2.925,9.655,15.213,15.213,0,0,1,7.931-10.6c-5.646-11.5,13.262-16.514,14.261-3.9a8.043,8.043,0,0,1-1.023,3.908,14.92,14.92,0,0,1,4.765,3.785,21.522,21.522,0,0,1,5.925-4.993c-3.048-21.554-34.068-20.014-34.784,2.148m14.928-.921a4.6,4.6,0,1,0-2.07-3.864,4.6,4.6,0,0,0,2.07,3.864M623.8,72.306a11.473,11.473,0,0,1-4.961-21.811,1.5,1.5,0,0,1,2.13,1.348v7.845l2.831,1.63,2.828-1.63V51.843a1.5,1.5,0,0,1,1.517-1.485,1.523,1.523,0,0,1,.612.138,11.49,11.49,0,0,1-4.957,21.81m-5.814-17.719A8.5,8.5,0,1,0,630,55.038q-.191-.2-.393-.4v5.909a1.493,1.493,0,0,1-.745,1.292l-4.32,2.488a1.492,1.492,0,0,1-1.488,0l-4.322-2.488a1.491,1.491,0,0,1-.749-1.292Z" fill="#1a53f6"></path></g></g></svg> 