<?xml version="1.0" encoding="UTF-8"?> <svg xmlns="http://www.w3.org/2000/svg" xmlns:xlink="http://www.w3.org/1999/xlink" width="60" height="60" viewBox="0 0 60 60"><defs><clipPath id="clip-path"><rect id="Rectangle_869" data-name="Rectangle 869" width="60" height="60" transform="translate(976 45)" fill="#fff" stroke="#707070" stroke-width="1"></rect></clipPath></defs><g id="Mask_Group_98" data-name="Mask Group 98" transform="translate(-976 -45)" clip-path="url(#clip-path)"><g id="Group_164" data-name="Group 164" transform="translate(87.015 27)"><path id="Path_232" data-name="Path 232" d="M20.132,14.416a.371.371,0,0,1-.362.241,2.768,2.768,0,0,0-2.761,2.761v3.315a2.768,2.768,0,0,0,2.761,2.761.36.36,0,0,1,.362.241,14.856,14.856,0,0,0,1.085,2.6.375.375,0,0,1-.084.434l-.024.024a2.765,2.765,0,0,0,.024,3.882l2.339,2.339a2.761,2.761,0,0,0,3.906,0,.375.375,0,0,1,.434-.084,14.8,14.8,0,0,0,2.6,1.073.371.371,0,0,1,.241.362,2.768,2.768,0,0,0,2.761,2.761h3.315a2.768,2.768,0,0,0,2.761-2.761.36.36,0,0,1,.241-.362,15.248,15.248,0,0,0,2.6-1.085.375.375,0,0,1,.434.084,2.772,2.772,0,0,0,3.906,0l2.339-2.339a2.765,2.765,0,0,0,.024-3.882l-.024-.024a.375.375,0,0,1-.084-.434,15.206,15.206,0,0,0,1.085-2.64.339.339,0,0,1,.35-.2,2.768,2.768,0,0,0,2.761-2.761V17.406a2.768,2.768,0,0,0-2.761-2.761.36.36,0,0,1-.362-.241,14.855,14.855,0,0,0-1.085-2.6.375.375,0,0,1,.084-.434l.024-.024a2.765,2.765,0,0,0-.024-3.882L46.668,5.121a2.761,2.761,0,0,0-3.906,0,.375.375,0,0,1-.434.084,14.8,14.8,0,0,0-2.6-1.073.371.371,0,0,1-.241-.362A2.768,2.768,0,0,0,36.722,1.01H33.406a2.776,2.776,0,0,0-2.761,2.8.331.331,0,0,1-.217.326,15.257,15.257,0,0,0-2.64,1.1.375.375,0,0,1-.434-.084,2.772,2.772,0,0,0-3.906,0L21.109,7.484a2.765,2.765,0,0,0-.024,3.882l.024.024a.375.375,0,0,1,.084.434,16.956,16.956,0,0,0-1.085,2.6Zm2.3.723a12.971,12.971,0,0,1,.916-2.194A2.784,2.784,0,0,0,22.869,9.7l-.024-.024a.372.372,0,0,1,0-.506l2.339-2.339a.36.36,0,0,1,.506,0,2.765,2.765,0,0,0,3.267.506,12.4,12.4,0,0,1,2.23-.916,2.726,2.726,0,0,0,1.9-2.664.35.35,0,0,1,.35-.35h3.315a.35.35,0,0,1,.35.35,2.775,2.775,0,0,0,1.941,2.664,12.421,12.421,0,0,1,2.194.916,2.771,2.771,0,0,0,3.267-.518.357.357,0,0,1,.494,0L47.343,9.16a.36.36,0,0,1,0,.506l-.024.024a2.763,2.763,0,0,0-.482,3.243,13.4,13.4,0,0,1,.916,2.194,2.775,2.775,0,0,0,2.664,1.941.35.35,0,0,1,.35.35v3.315a.359.359,0,0,1-.386.35,2.739,2.739,0,0,0-2.628,1.9,14.233,14.233,0,0,1-.916,2.23,2.784,2.784,0,0,0,.482,3.243l.024.024a.372.372,0,0,1,0,.506L45,31.331a.372.372,0,0,1-.506,0,2.786,2.786,0,0,0-3.267-.518,13.851,13.851,0,0,1-2.194.916A2.775,2.775,0,0,0,37.1,34.393a.35.35,0,0,1-.35.35H33.43a.35.35,0,0,1-.35-.35,2.775,2.775,0,0,0-1.941-2.664,12.421,12.421,0,0,1-2.194-.916,2.706,2.706,0,0,0-1.278-.313,2.845,2.845,0,0,0-1.989.832.357.357,0,0,1-.494,0l-2.339-2.339a.36.36,0,0,1,0-.506l.024-.024a2.763,2.763,0,0,0,.482-3.243,13.4,13.4,0,0,1-.916-2.194,2.775,2.775,0,0,0-2.664-1.941.35.35,0,0,1-.35-.35V17.418a.35.35,0,0,1,.35-.35,2.775,2.775,0,0,0,2.664-1.941Z" transform="translate(884.239 28.99)" fill="#1c54f8" stroke="#fff" stroke-width="1"></path><path id="Path_233" data-name="Path 233" d="M33.85,28.7A10.85,10.85,0,1,0,23,17.85,10.867,10.867,0,0,0,33.85,28.7Zm0-19.29a8.439,8.439,0,1,1-8.439,8.439A8.448,8.448,0,0,1,33.85,9.411Z" transform="translate(885.47 30.222)" fill="#1c54f8" stroke="#fff" stroke-width="1"></path><path id="Path_234" data-name="Path 234" d="M31.168,20.7a1.235,1.235,0,0,0,.856-.35l5.968-5.968-1.7-1.7L31.18,17.792l-1.7-1.7-1.7,1.7,2.556,2.556a1.184,1.184,0,0,0,.856.35Z" transform="translate(886.453 31.389)" fill="#1c54f8" stroke="#fff" stroke-width="1"></path><path id="Path_235" data-name="Path 235" d="M18.237,36.734l1.724-1.688a22.878,22.878,0,0,1-.386-31.659,1.2,1.2,0,0,0,.145-1.459,1.219,1.219,0,0,0-1.362-.53L11.606,3.339l.663,2.315,3.11-.892a25.272,25.272,0,0,0,2.857,31.96Z" transform="translate(883 29.061)" fill="#1c54f8" stroke="#fff" stroke-width="1"></path><path id="Path_236" data-name="Path 236" d="M47.294,1.3,45.57,2.988a22.878,22.878,0,0,1,.386,31.659,1.2,1.2,0,0,0-.145,1.459,1.219,1.219,0,0,0,1.025.579,1.142,1.142,0,0,0,.338-.048L53.925,34.7l-.663-2.315-3.11.892a25.272,25.272,0,0,0-2.857-31.96Z" transform="translate(890.111 29.05)" fill="#1c54f8" stroke="#fff" stroke-width="1"></path></g></g></svg> 