<?xml version="1.0" encoding="UTF-8"?> <svg xmlns="http://www.w3.org/2000/svg" xmlns:xlink="http://www.w3.org/1999/xlink" width="90" height="90" viewBox="0 0 90 90"><defs><clipPath id="clip-path"><rect id="Rectangle_17" data-name="Rectangle 17" width="90" height="90" transform="translate(1464 589)" fill="#fff" stroke="#707070" stroke-width="1"></rect></clipPath></defs><g id="Mask_Group_17" data-name="Mask Group 17" transform="translate(-1464 -589)" clip-path="url(#clip-path)"><g id="Group_249" data-name="Group 249" transform="translate(-219.382 13.625)"><path id="Path_349" data-name="Path 349" d="M133.552,53.71l1.456,5.451a.846.846,0,0,1-.592,1.033l-2.488.66a.846.846,0,0,1-1.033-.592l-1.524-5.7a4.97,4.97,0,0,1-.965-9.75l3.826-1.033,5.992-4.6c-.118-.44-.237-.846.271-1.2l2.471-1.9a.853.853,0,0,1,1.337.457l4.858,18.112a.844.844,0,0,1-.982,1.05l-3.081-.406a.854.854,0,0,1-.711-.626l-.085-.288-7.482-1Zm-3.64-.829.626-.1,3.165-.846L132.011,45.6l-3.165.846a3.241,3.241,0,0,0-1.981,1.524,3.281,3.281,0,0,0,3.047,4.909Zm3.25,5.908-1.236-4.638-.863.237,1.236,4.638ZM147.2,40.354a.842.842,0,1,1-1.456-.846l1.727-2.979a.842.842,0,0,1,1.456.846Zm1.523,10a.842.842,0,0,1,.846-1.456l2.979,1.727a.842.842,0,0,1-.846,1.456Zm-.863-4.723a.85.85,0,0,1-.44-1.642l3.335-.9a.85.85,0,0,1,.44,1.642Zm-6.873-7.448L139.916,39l3.927,14.676,1.32.169ZM138.7,40.963l-5.112,3.927,1.845,6.873,6.4.846Zm-24.054,31.5h5.468a.838.838,0,0,1,.846.846V87.024a.849.849,0,0,1-.846.846h-5.468a.849.849,0,0,1-.846-.846V73.313A.849.849,0,0,1,114.644,72.466Zm4.6,1.693H115.49V86.178h3.775V74.159Zm38.358-6.653h5.468a.849.849,0,0,1,.846.846V87.041a.849.849,0,0,1-.846.846h-5.468a.838.838,0,0,1-.846-.846V68.353A.849.849,0,0,1,157.606,67.507Zm4.6,1.693h-3.775v17h3.775Zm-15.353,6.348h5.468a.838.838,0,0,1,.846.846V87.041a.849.849,0,0,1-.846.846h-5.468a.849.849,0,0,1-.846-.846V76.394A.849.849,0,0,1,146.856,75.547Zm4.621,1.693H147.7v8.955h3.775Zm-15.353-6.111h5.468a.838.838,0,0,1,.846.846V87.041a.849.849,0,0,1-.846.846h-5.468a.838.838,0,0,1-.846-.846V71.976A.838.838,0,0,1,136.124,71.129Zm4.6,1.693h-3.775V86.2h3.775Zm-15.353,2.725h5.468a.838.838,0,0,1,.846.846V87.041a.849.849,0,0,1-.846.846h-5.468a.838.838,0,0,1-.846-.846V76.394A.849.849,0,0,1,125.375,75.547ZM130,77.24h-3.775V86.2H130Zm8.853-48.8A19.968,19.968,0,0,1,158.79,47.4h13.593a.849.849,0,0,1,.846.846V94.489h3.436a.849.849,0,0,1,.846.846v5.5a5.241,5.241,0,0,1-4.96,5.468H105.146c-2.844,0-4.96-2.607-4.96-5.468v-5.5a.838.838,0,0,1,.846-.846h3.436V48.243a.838.838,0,0,1,.846-.846h13.593a19.969,19.969,0,0,1,19.94-18.959ZM158.807,49.09c-.017.694-.085,1.388-.169,2.082h9.987a.849.849,0,0,1,.846.846V91.951a.849.849,0,0,1-.846.846H109.09a.849.849,0,0,1-.846-.846V52a.849.849,0,0,1,.846-.846h9.987a20.727,20.727,0,0,1-.169-2.082H106.162v45.4h16.114a.9.9,0,0,1,.406.1l5.451,2.911h21.448l5.383-2.878a.851.851,0,0,1,.457-.135h16.114V49.091Zm-.491,3.758a19.972,19.972,0,0,1-38.933,0h-9.446v38.24h57.841V52.848ZM151.765,35.48a18.266,18.266,0,1,0,0,25.832A18.248,18.248,0,0,0,151.765,35.48Zm-46.619,69.133h67.423a3.562,3.562,0,0,0,3.267-3.775V96.183H155.625l-5.451,2.911a.786.786,0,0,1-.389.1H127.931a.809.809,0,0,1-.457-.135l-5.4-2.878H101.88v4.655a3.562,3.562,0,0,0,3.267,3.775Z" transform="translate(1589.196 552.938)" fill="#1b54f8"></path></g></g></svg> 