<?xml version="1.0" encoding="UTF-8"?> <svg xmlns="http://www.w3.org/2000/svg" width="90" height="90" viewBox="0 0 90 90" fill="none"><g clip-path="url(#clip0_5_303)"><mask id="mask0_5_303" style="mask-type:luminance" maskUnits="userSpaceOnUse" x="0" y="0" width="90" height="90"><path d="M90 0H0V90H90V0Z" fill="white"></path></mask><g mask="url(#mask0_5_303)"><path d="M57.6 62.163L55.5 59.8995H49.437C48.708 60.2356 47.9148 60.4097 47.112 60.4095L44.616 60.4665H44.502C43.601 60.4753 42.7096 60.2815 41.8935 59.8995H12.4035C12.103 59.8987 11.815 59.779 11.6025 59.5665C11.39 59.354 11.2703 59.066 11.2695 58.7655V57.6315H39.342C38.9286 56.9406 38.6764 56.1654 38.604 55.3635H34.464C33.7274 55.6644 32.9337 55.8001 32.139 55.761C31.478 55.7439 30.8253 55.6093 30.2115 55.3635H11.268V41.751H13.5375C13.8383 41.751 14.1267 41.6315 14.3394 41.4189C14.552 41.2062 14.6715 40.9178 14.6715 40.617C14.6715 40.3162 14.552 40.0278 14.3394 39.8151C14.1267 39.6025 13.8383 39.483 13.5375 39.483H11.268V37.2135H16.9395C17.2403 37.2135 17.5287 37.094 17.7414 36.8814C17.954 36.6687 18.0735 36.3803 18.0735 36.0795C18.0735 35.7787 17.954 35.4903 17.7414 35.2776C17.5287 35.065 17.2403 34.9455 16.9395 34.9455H11.268V32.6775H13.5375C13.8383 32.6775 14.1267 32.558 14.3394 32.3454C14.552 32.1327 14.6715 31.8443 14.6715 31.5435C14.6715 31.2427 14.552 30.9543 14.3394 30.7416C14.1267 30.529 13.8383 30.4095 13.5375 30.4095H11.268V19.0665C11.2688 18.766 11.3885 18.478 11.601 18.2655C11.8135 18.053 12.1015 17.9333 12.402 17.9325H25.05C25.222 17.6918 25.4115 17.4642 25.617 17.2515L27.15 15.663H12.4035C11.5016 15.6654 10.6373 16.0247 9.99949 16.6625C9.36172 17.3003 9.00238 18.1646 9 19.0665V58.7655C9.00396 59.6664 9.364 60.5292 10.0016 61.1656C10.6392 61.8021 11.5026 62.1606 12.4035 62.163H40.7535V66.138H35.6535C35.3527 66.138 35.0643 66.2575 34.8516 66.4701C34.639 66.6828 34.5195 66.9712 34.5195 67.272C34.5195 67.5728 34.639 67.8612 34.8516 68.0739C35.0643 68.2865 35.3527 68.406 35.6535 68.406H54.9375C55.2383 68.406 55.5267 68.2865 55.7394 68.0739C55.952 67.8612 56.0715 67.5728 56.0715 67.272C56.0715 66.9712 55.952 66.6828 55.7394 66.4701C55.5267 66.2575 55.2383 66.138 54.9375 66.138H49.8375V62.163H57.6ZM47.565 62.163V66.138H43.0275V62.163H47.565Z" fill="#1C54F8"></path><path d="M78.189 15.663H63.444L64.2375 16.4565C64.6809 16.894 65.0624 17.3901 65.3715 17.931H78.189C78.4895 17.9318 78.7775 18.0515 78.99 18.264C79.2025 18.4765 79.3222 18.7645 79.323 19.065V30.408H77.055C76.7542 30.408 76.4658 30.5275 76.2531 30.7401C76.0404 30.9528 75.921 31.2412 75.921 31.542C75.921 31.8428 76.0404 32.1312 76.2531 32.3439C76.4658 32.5565 76.7542 32.676 77.055 32.676H79.323V34.944H73.6515C73.3507 34.944 73.0623 35.0635 72.8496 35.2761C72.6369 35.4888 72.5175 35.7772 72.5175 36.078C72.5175 36.3788 72.6369 36.6672 72.8496 36.8799C73.0623 37.0925 73.3507 37.212 73.6515 37.212H79.323V39.483H77.055C76.7542 39.483 76.4658 39.6025 76.2531 39.8151C76.0404 40.0278 75.921 40.3162 75.921 40.617C75.921 40.9178 76.0404 41.2062 76.2531 41.4189C76.4658 41.6315 76.7542 41.751 77.055 41.751H79.323V54.5685L81.594 57.063V19.0665C81.5916 18.1643 81.232 17.2998 80.5939 16.662C79.9559 16.0242 79.0912 15.665 78.189 15.663Z" fill="#1C54F8"></path><path d="M67.3575 45.4365C66.8731 44.9383 66.22 44.6389 65.5264 44.597C64.8327 44.5551 64.1484 44.7737 63.6075 45.21C63.5505 45.096 63.4935 45.0405 63.438 44.9265L61.737 43.338C62.5114 41.9455 63.1023 40.4587 63.495 38.9145L65.8305 38.8545C66.7626 38.7898 67.6313 38.3593 68.2475 37.6569C68.8636 36.9545 69.1772 36.0371 69.12 35.1045L69.063 32.5545C69.0765 31.6319 68.7275 30.7408 68.0911 30.0727C67.4547 29.4046 66.5817 29.0128 65.6595 28.9815H65.6025L63.2775 29.0385C62.8354 27.5025 62.187 26.0336 61.35 24.672L62.9385 22.971C63.555 22.2681 63.8707 21.3512 63.8177 20.4178C63.7647 19.4843 63.3471 18.6091 62.655 17.9805L60.84 16.2225C60.1568 15.5863 59.2729 15.2086 58.341 15.1545C57.8765 15.1394 57.414 15.2226 56.9839 15.3986C56.5537 15.5747 56.1656 15.8396 55.845 16.176L54.2565 17.877C52.864 17.1026 51.3772 16.5117 49.833 16.119L49.7805 13.791C49.7221 12.878 49.3098 12.0238 48.6314 11.41C47.9529 10.7962 47.0618 10.4714 46.1475 10.5045H46.0905L43.5945 10.5615C42.6633 10.551 41.7657 10.9085 41.0966 11.5562C40.4276 12.2039 40.0412 13.0895 40.0215 14.0205L40.0785 16.3455C38.5425 16.7875 37.0736 17.436 35.712 18.273L33.954 16.6845C33.2511 16.068 32.3342 15.7523 31.4007 15.8053C30.4673 15.8583 29.592 16.2759 28.9635 16.968L27.2055 18.783C26.5667 19.4641 26.1858 20.3469 26.1285 21.279C26.1025 21.7397 26.1751 22.2006 26.3414 22.6311C26.5078 23.0615 26.764 23.4515 27.093 23.775L28.7925 25.3545C28.0181 26.747 27.4272 28.2338 27.0345 29.778L24.7095 29.835C23.7774 29.8997 22.9086 30.3302 22.2925 31.0326C21.6763 31.735 21.3627 32.6524 21.42 33.585L21.477 36.081C21.4669 37.012 21.8245 37.9095 22.4721 38.5784C23.1197 39.2474 24.0051 39.6339 24.936 39.654L27.261 39.597C27.703 41.133 28.3514 42.6019 29.1885 43.9635L27.6015 45.6645C26.985 46.3674 26.6693 47.2843 26.7223 48.2177C26.7753 49.1512 27.1929 50.0264 27.885 50.655L29.7 52.413C30.3811 53.0518 31.2639 53.4327 32.196 53.49C32.6605 53.5051 33.123 53.4219 33.5531 53.2459C33.9832 53.0698 34.3713 52.8049 34.692 52.4685L36.2805 50.7675C37.673 51.5419 39.1598 52.1328 40.704 52.5255L40.761 54.8505C40.8228 55.7722 41.2435 56.633 41.9329 57.248C42.6222 57.8631 43.5252 58.1833 44.448 58.14H44.505L47.001 58.083C47.9293 58.0838 48.8215 57.7232 49.4884 57.0775C50.1554 56.4319 50.5447 55.5518 50.574 54.624L50.517 52.299C52.0519 51.8567 53.5198 51.2083 54.8805 50.3715L56.298 51.732L55.731 52.242C55.2047 52.7234 54.8912 53.3941 54.8594 54.1066C54.8276 54.8192 55.0802 55.5152 55.5615 56.0415L55.6185 56.0985L76.3185 78.783C76.4153 78.8947 76.5332 78.9862 76.6654 79.0523C76.7976 79.1185 76.9415 79.1579 77.0889 79.1685C77.2364 79.179 77.3844 79.1603 77.5247 79.1136C77.6649 79.0669 77.7946 78.9931 77.9062 78.8962C78.0179 78.7994 78.1095 78.6816 78.1756 78.5494C78.2417 78.4172 78.2812 78.2733 78.2917 78.1258C78.3022 77.9784 78.2836 77.8303 78.2369 77.6901C78.1902 77.5499 78.1163 77.4202 78.0195 77.3085L57.2625 54.624C57.2225 54.5884 57.1905 54.5447 57.1685 54.4959C57.1466 54.447 57.1353 54.3941 57.1353 54.3405C57.1353 54.2869 57.1466 54.234 57.1685 54.1851C57.1905 54.1363 57.2225 54.0926 57.2625 54.057L64.9755 47.025C65.0593 46.9443 65.1712 46.8993 65.2875 46.8993C65.4038 46.8993 65.5157 46.9443 65.5995 47.025L78.927 61.713C79.1225 61.9386 79.3997 62.0772 79.6974 62.0985C79.9952 62.1197 80.2892 62.0218 80.5147 61.8262C80.7403 61.6307 80.879 61.3536 80.9002 61.0558C80.9214 60.7581 80.8235 60.4641 80.628 60.2385L67.3575 45.4365ZM55.902 48.216C55.7158 48.0351 55.4725 47.9248 55.2137 47.904C54.955 47.8832 54.6972 47.9532 54.4845 48.102C52.8583 49.185 51.0536 49.9721 49.1535 50.427C48.9006 50.485 48.6764 50.6308 48.5207 50.8384C48.365 51.0459 48.2879 51.302 48.303 51.561L48.36 54.7935C48.3269 55.123 48.1658 55.4264 47.9114 55.6385C47.657 55.8505 47.3296 55.9543 46.9995 55.9275H44.502C44.1715 55.9707 43.8373 55.8819 43.572 55.6802C43.3066 55.4786 43.1314 55.1805 43.0845 54.8505L43.0305 51.6195C43.0213 51.3655 42.9279 51.1218 42.765 50.9268C42.602 50.7318 42.3788 50.5966 42.1305 50.5425C40.2244 50.1669 38.4001 49.4558 36.7425 48.4425C36.5232 48.3021 36.2619 48.2422 36.0034 48.2732C35.7448 48.3041 35.505 48.4239 35.325 48.612L33.1125 50.937C33.0175 51.0351 32.9022 51.1112 32.7748 51.1602C32.6473 51.2092 32.5107 51.2297 32.3745 51.2205C32.1827 51.2184 31.9933 51.1774 31.8177 51.1C31.6421 51.0227 31.484 50.9106 31.353 50.7705L29.5305 49.0095C29.2807 48.7972 29.1191 48.4994 29.0772 48.1743C29.0353 47.8492 29.1162 47.5202 29.304 47.2515L31.5165 44.9265C31.6985 44.7401 31.8095 44.4958 31.8304 44.2361C31.8512 43.9764 31.7805 43.7176 31.6305 43.5045C30.5475 41.8783 29.7604 40.0736 29.3055 38.1735C29.25 37.9301 29.1129 37.713 28.917 37.5583C28.7211 37.4035 28.4781 37.3205 28.2285 37.323L25.053 37.38C24.7235 37.3469 24.4201 37.1859 24.208 36.9314C23.996 36.677 23.8922 36.3496 23.919 36.0195L23.7495 33.5805C23.7177 33.252 23.8109 32.9237 24.0105 32.6609C24.2101 32.3982 24.5015 32.2204 24.8265 32.163L28.059 32.106C28.313 32.0968 28.5566 32.0034 28.7516 31.8405C28.9466 31.6775 29.0819 31.4543 29.136 31.206C29.5116 29.2999 30.2227 27.4756 31.236 25.818C31.3764 25.5987 31.4362 25.3374 31.4053 25.0789C31.3744 24.8203 31.2546 24.5805 31.0665 24.4005L28.7415 22.188C28.6386 22.0849 28.5598 21.9602 28.5108 21.823C28.4618 21.6858 28.4438 21.5395 28.458 21.3945C28.4601 21.2027 28.5011 21.0133 28.5785 20.8377C28.6558 20.6621 28.7679 20.5041 28.908 20.373L30.666 18.558C30.8692 18.295 31.1685 18.1234 31.4981 18.0809C31.8278 18.0384 32.1608 18.1286 32.424 18.3315L34.749 20.544C34.9351 20.7249 35.1785 20.8352 35.4372 20.856C35.6959 20.8768 35.9538 20.8068 36.1665 20.658C37.7927 19.575 39.5974 18.7879 41.4975 18.333C41.7504 18.275 41.9746 18.1292 42.1302 17.9216C42.2859 17.714 42.3631 17.458 42.348 17.199L42.291 13.9545C42.3241 13.625 42.4851 13.3216 42.7395 13.1095C42.9939 12.8975 43.3214 12.7937 43.6515 12.8205L46.1475 12.7635C46.4759 12.7317 46.8043 12.8249 47.0671 13.0245C47.3298 13.2241 47.5076 13.5155 47.565 13.8405L47.622 17.016C47.6311 17.27 47.7246 17.5137 47.8875 17.7087C48.0505 17.9037 48.2737 18.0389 48.522 18.093C50.4281 18.4686 52.2524 19.1797 53.91 20.193C54.1293 20.3334 54.3906 20.3933 54.6491 20.3623C54.9077 20.3314 55.1475 20.2116 55.3275 20.0235L57.54 17.6985C57.7517 17.5317 58.009 17.4328 58.278 17.415C58.4698 17.4171 58.6592 17.4581 58.8348 17.5355C59.0104 17.6128 59.1684 17.7249 59.2995 17.865L61.1145 19.623C61.3775 19.8262 61.5491 20.1255 61.5916 20.4551C61.634 20.7848 61.5439 21.1178 61.341 21.381L59.1285 23.706C58.9476 23.8922 58.8373 24.1355 58.8165 24.3942C58.7957 24.653 58.8657 24.9108 59.0145 25.1235C60.0975 26.7497 60.8846 28.5544 61.3395 30.4545C61.3975 30.7074 61.5433 30.9316 61.7509 31.0873C61.9584 31.2429 62.2145 31.3201 62.4735 31.305L65.706 31.248C66.0355 31.2811 66.3389 31.4422 66.551 31.6966C66.763 31.951 66.8668 32.2784 66.84 32.6085L66.897 35.1045C66.9288 35.433 66.8356 35.7613 66.636 36.0241C66.4363 36.2868 66.145 36.4646 65.82 36.522L62.5305 36.636C62.2765 36.6452 62.0328 36.7386 61.8378 36.9015C61.6428 37.0645 61.5076 37.2877 61.4535 37.536C61.0779 39.4421 60.3668 41.2664 59.3535 42.924C59.2131 43.1433 59.1532 43.4046 59.1842 43.6631C59.2151 43.9217 59.3348 44.1615 59.523 44.3415L61.848 46.554L61.962 46.668L58.0575 50.2545L55.902 48.216Z" fill="#1C54F8"></path><path d="M60.4379 53.9445C60.3266 54.043 60.2364 54.1631 60.1729 54.2976C60.1094 54.432 60.0739 54.5779 60.0686 54.7265C60.0632 54.8751 60.0882 55.0232 60.1419 55.1619C60.1956 55.3005 60.2769 55.4268 60.3809 55.533L71.7239 68.01C71.9195 68.2356 72.1966 68.3742 72.4944 68.3955C72.7921 68.4167 73.0861 68.3188 73.3117 68.1233C73.5373 67.9277 73.6759 67.6506 73.6972 67.3528C73.7184 67.0551 73.6205 66.7611 73.4249 66.5355L62.0819 54.0585C61.985 53.9369 61.8638 53.8368 61.7261 53.7645C61.5884 53.6922 61.4372 53.6494 61.282 53.6387C61.1269 53.6279 60.9712 53.6496 60.8248 53.7022C60.6785 53.7549 60.5447 53.8374 60.4319 53.9445H60.4379Z" fill="#1C54F8"></path><path d="M75.921 71.808C76.5473 71.808 77.055 71.3003 77.055 70.674C77.055 70.0477 76.5473 69.54 75.921 69.54C75.2947 69.54 74.787 70.0477 74.787 70.674C74.787 71.3003 75.2947 71.808 75.921 71.808Z" fill="#1C54F8"></path><path d="M53.01 27.0615C53.1026 26.9436 53.1705 26.8082 53.2093 26.6633C53.2482 26.5185 53.2573 26.3673 53.2362 26.2188C53.215 26.0704 53.164 25.9278 53.0862 25.7996C53.0084 25.6714 52.9054 25.5603 52.7835 25.473C50.5998 23.8788 47.9636 23.0244 45.2599 23.0346C42.5561 23.0449 39.9265 23.9192 37.755 25.53C37.5347 25.729 37.3999 26.0053 37.3787 26.3013C37.3574 26.5974 37.4514 26.8901 37.641 27.1185C37.8284 27.3339 38.0899 27.4708 38.3736 27.5022C38.6574 27.5336 38.9425 27.4572 39.1725 27.288C40.9394 25.9942 43.07 25.292 45.26 25.2817C47.4499 25.2715 49.587 25.9537 51.366 27.231C51.4819 27.3359 51.6187 27.4153 51.7673 27.464C51.9159 27.5126 52.0731 27.5295 52.2287 27.5136C52.3843 27.4976 52.5347 27.4491 52.6704 27.3712C52.806 27.2933 52.9237 27.1878 53.016 27.0615H53.01Z" fill="#1C54F8"></path><path d="M52.7835 55.872C52.6766 56.4977 52.445 57.0955 52.1025 57.63H53.52C53.1603 57.0987 52.9099 56.5011 52.7835 55.872Z" fill="#1C54F8"></path></g></g><defs><clipPath id="clip0_5_303"><rect width="90" height="90" fill="white"></rect></clipPath></defs></svg> 