<?xml version="1.0" encoding="UTF-8"?> <svg xmlns="http://www.w3.org/2000/svg" xmlns:xlink="http://www.w3.org/1999/xlink" width="60" height="60" viewBox="0 0 60 60"><defs><clipPath id="clip-path"><rect id="Rectangle_14" data-name="Rectangle 14" width="60" height="60" transform="translate(373 156)" fill="#fff" stroke="#707070" stroke-width="1"></rect></clipPath></defs><g id="Mask_Group_8" data-name="Mask Group 8" transform="translate(-373 -156)" clip-path="url(#clip-path)"><g id="Group_8" data-name="Group 8" transform="translate(17 139)"><path id="Path_57" data-name="Path 57" d="M32.4,47,31,45.491H26.958a3.7,3.7,0,0,1-1.55.34l-1.664.038h-.076a4.01,4.01,0,0,1-1.739-.378H2.269a.758.758,0,0,1-.756-.756v-.756H20.228a3.57,3.57,0,0,1-.492-1.512h-2.76a3.627,3.627,0,0,1-1.55.265,3.716,3.716,0,0,1-1.285-.265H1.512V33.392H3.025a.756.756,0,0,0,0-1.512H1.512V30.367H5.293a.756.756,0,1,0,0-1.512H1.512V27.343H3.025a.756.756,0,1,0,0-1.512H1.512V18.269a.758.758,0,0,1,.756-.756H10.7a4,4,0,0,1,.378-.454L12.1,16H2.269A2.275,2.275,0,0,0,0,18.269V44.735A2.275,2.275,0,0,0,2.269,47h18.9V49.65h-3.4a.756.756,0,1,0,0,1.512H30.625a.756.756,0,0,0,0-1.512h-3.4V47ZM25.71,47V49.65H22.685V47Z" transform="translate(362 11.442)" fill="#1c54f8"></path><path id="Path_58" data-name="Path 58" d="M105.83,16H96l.529.529a4.558,4.558,0,0,1,.756.983h8.545a.758.758,0,0,1,.756.756V25.83h-1.512a.756.756,0,0,0,0,1.512h1.512v1.512h-3.781a.756.756,0,1,0,0,1.512h3.781V31.88h-1.512a.756.756,0,0,0,0,1.512h1.512v8.545L108.1,43.6V18.269A2.275,2.275,0,0,0,105.83,16Z" transform="translate(302.296 11.442)" fill="#1c54f8"></path><path id="Path_59" data-name="Path 59" d="M52.518,30.188a1.859,1.859,0,0,0-2.5-.151c-.038-.076-.076-.113-.113-.189l-1.134-1.059a12.308,12.308,0,0,0,1.172-2.949L51.5,25.8a2.361,2.361,0,0,0,2.193-2.5l-.038-1.7a2.349,2.349,0,0,0-2.269-2.382h-.038l-1.55.038a11.779,11.779,0,0,0-1.285-2.911l1.059-1.134a2.377,2.377,0,0,0-.189-3.327l-1.21-1.172A2.672,2.672,0,0,0,46.507,10a2.2,2.2,0,0,0-1.664.681l-1.059,1.134a12.308,12.308,0,0,0-2.949-1.172L40.8,9.091A2.342,2.342,0,0,0,38.378,6.9H38.34l-1.664.038a2.356,2.356,0,0,0-2.382,2.306l.038,1.55a11.779,11.779,0,0,0-2.911,1.285l-1.172-1.059a2.377,2.377,0,0,0-3.327.189l-1.172,1.21a2.672,2.672,0,0,0-.718,1.664,2.163,2.163,0,0,0,.643,1.664L26.808,16.8a12.308,12.308,0,0,0-1.172,2.949l-1.55.038a2.361,2.361,0,0,0-2.193,2.5l.038,1.664a2.357,2.357,0,0,0,2.306,2.382l1.55-.038a11.779,11.779,0,0,0,1.285,2.911L26.014,30.34a2.377,2.377,0,0,0,.189,3.327l1.21,1.172a2.672,2.672,0,0,0,1.664.718,2.2,2.2,0,0,0,1.664-.681L31.8,33.742a12.308,12.308,0,0,0,2.949,1.172l.038,1.55a2.353,2.353,0,0,0,2.458,2.193h.038l1.664-.038a2.381,2.381,0,0,0,2.382-2.306l-.038-1.55A11.78,11.78,0,0,0,44.2,33.478l.945.907-.378.34a1.793,1.793,0,0,0-.113,2.533l.038.038,13.8,15.123a.75.75,0,0,0,1.134-.983L45.788,36.313a.253.253,0,0,1,0-.378l5.142-4.688a.3.3,0,0,1,.416,0l8.885,9.792a.75.75,0,0,0,1.134-.983Zm-7.637,1.853a.744.744,0,0,0-.945-.076,11.056,11.056,0,0,1-3.554,1.55.732.732,0,0,0-.567.756l.038,2.155a.843.843,0,0,1-.907.756H37.281a.844.844,0,0,1-.945-.718h0L36.3,34.31a.763.763,0,0,0-.6-.718,10.943,10.943,0,0,1-3.592-1.4.749.749,0,0,0-.945.113l-1.475,1.55a.626.626,0,0,1-.492.189.947.947,0,0,1-.681-.3L27.3,32.57a.878.878,0,0,1-.151-1.172l1.475-1.55A.744.744,0,0,0,28.7,28.9a11.056,11.056,0,0,1-1.55-3.554.729.729,0,0,0-.718-.567h0l-2.117.038h0a.843.843,0,0,1-.756-.907l-.113-1.626a.874.874,0,0,1,.718-.945l2.155-.038a.763.763,0,0,0,.718-.6,10.943,10.943,0,0,1,1.4-3.592.749.749,0,0,0-.113-.945l-1.55-1.475a.658.658,0,0,1-.189-.529.947.947,0,0,1,.3-.681l1.172-1.21a.836.836,0,0,1,1.172-.151l1.55,1.475a.744.744,0,0,0,.945.076,11.056,11.056,0,0,1,3.554-1.55.732.732,0,0,0,.567-.756L35.807,9.2a.843.843,0,0,1,.907-.756l1.664-.038a.874.874,0,0,1,.945.718l.038,2.117a.763.763,0,0,0,.6.718,10.943,10.943,0,0,1,3.592,1.4.749.749,0,0,0,.945-.113l1.475-1.55a.89.89,0,0,1,.492-.189.947.947,0,0,1,.681.3l1.21,1.172a.836.836,0,0,1,.151,1.172l-1.475,1.55a.744.744,0,0,0-.076.945,11.056,11.056,0,0,1,1.55,3.554.732.732,0,0,0,.756.567l2.155-.038h0a.843.843,0,0,1,.756.907l.038,1.664a.874.874,0,0,1-.718.945l-2.193.076a.763.763,0,0,0-.718.6,10.943,10.943,0,0,1-1.4,3.592.749.749,0,0,0,.113.945l1.55,1.475.076.076L46.318,33.4Z" transform="translate(348.387 17.103)" fill="#1c54f8"></path><path id="Path_60" data-name="Path 60" d="M90.294,83.163a.731.731,0,0,0-.038,1.059h0l7.562,8.318a.75.75,0,1,0,1.134-.983l-7.562-8.318a.748.748,0,0,0-1.1-.076Z" transform="translate(305.998 -30.2)" fill="#1c54f8"></path><circle id="Ellipse_1" data-name="Ellipse 1" cx="0.756" cy="0.756" r="0.756" transform="translate(405.858 63.36)" fill="#1c54f8"></circle><path id="Path_61" data-name="Path 61" d="M60.455,31.684a.74.74,0,0,0-.151-1.059,8.452,8.452,0,0,0-10.019.038.767.767,0,0,0-.076,1.059.758.758,0,0,0,1.021.113,6.924,6.924,0,0,1,8.129-.038.744.744,0,0,0,1.1-.113Z" transform="translate(330.885 3.357)" fill="#1c54f8"></path><path id="Path_62" data-name="Path 62" d="M76.454,86.9A3.159,3.159,0,0,1,76,88.072h.945A3.223,3.223,0,0,1,76.454,86.9Z" transform="translate(314.735 -32.652)" fill="#1c54f8"></path></g></g></svg> 