<?xml version="1.0" encoding="UTF-8"?> <svg xmlns="http://www.w3.org/2000/svg" xmlns:xlink="http://www.w3.org/1999/xlink" width="60" height="60" viewBox="0 0 60 60"><defs><clipPath id="clip-path"><rect id="Rectangle_19" data-name="Rectangle 19" width="60" height="60" transform="translate(1061 694)" fill="#fff" stroke="#707070" stroke-width="1"></rect></clipPath></defs><g id="Mask_Group_68" data-name="Mask Group 68" transform="translate(-1061 -694)" clip-path="url(#clip-path)"><g id="Group_75" data-name="Group 75" transform="translate(1064.59 699.237)"><path id="Path_209" data-name="Path 209" d="M22.95,39.063l1.089.1-.555.945a2.2,2.2,0,0,0,.339,2.683l1.616,1.637a2.195,2.195,0,0,0,2.7.339l.9-.541.1,1.1a2.221,2.221,0,0,0,1.839,1.984l2.25.375a2.082,2.082,0,0,0,.361.029,2.186,2.186,0,0,0,2.02-1.349l.4-.959.692.8a2.2,2.2,0,0,0,2.669.527l2.02-1.031a2.2,2.2,0,0,0,1.14-2.467l-.245-1.039,1.01.238a2.179,2.179,0,0,0,2.467-1.154l1.017-2.041a2.228,2.228,0,0,0-.519-2.654l-.829-.728.974-.411a2.2,2.2,0,0,0,1.305-2.38L47.337,30.8a2.213,2.213,0,0,0-1.976-1.854l-1.089-.1.555-.945a2.2,2.2,0,0,0-.339-2.683l-1.616-1.637a2.195,2.195,0,0,0-2.7-.339l-.9.541-.1-1.1A2.221,2.221,0,0,0,37.333,20.7l-2.25-.375a2.179,2.179,0,0,0-2.38,1.32l-.4.959-.692-.8a2.2,2.2,0,0,0-2.669-.527l-2.02,1.031a2.2,2.2,0,0,0-1.14,2.467l.245,1.039-1.01-.238a2.179,2.179,0,0,0-2.467,1.154l-1.017,2.041a2.228,2.228,0,0,0,.519,2.654l.829.728-.974.411a2.2,2.2,0,0,0-1.305,2.38l.368,2.265a2.22,2.22,0,0,0,1.976,1.854Zm2.135-8.821-.736-.649.541-1.089.909.216a2.192,2.192,0,0,0,2.113-.642c.058-.065.123-.13.195-.209s.13-.13.195-.188a2.2,2.2,0,0,0,.635-2.106l-.216-.938,1.06-.541.628.728a2.224,2.224,0,0,0,2.084.728c.18-.029.353-.058.534-.079a2.22,2.22,0,0,0,1.782-1.334l.361-.866,1.19.2.094.974a2.246,2.246,0,0,0,1.262,1.8c.166.079.325.166.483.252a2.222,2.222,0,0,0,2.222-.022L41.213,26l.88.887-.49.829a2.23,2.23,0,0,0-.022,2.207c.087.159.173.325.252.49a2.236,2.236,0,0,0,1.8,1.277l.952.094.2,1.241-.858.368a2.218,2.218,0,0,0-1.32,1.782c-.022.18-.05.361-.079.541a2.259,2.259,0,0,0,.714,2.077l.736.649-.541,1.089-.909-.216a2.192,2.192,0,0,0-2.113.642c-.058.065-.123.13-.188.195l-.007.007c-.065.065-.13.13-.195.188a2.2,2.2,0,0,0-.635,2.106l.216.938-1.06.541-.628-.728a2.224,2.224,0,0,0-2.084-.728c-.18.029-.353.058-.534.079a2.22,2.22,0,0,0-1.782,1.334l-.361.866-1.19-.2-.094-.974a2.246,2.246,0,0,0-1.262-1.8c-.166-.079-.325-.166-.483-.252a2.222,2.222,0,0,0-2.222.022l-.793.483-.88-.887.49-.829a2.23,2.23,0,0,0,.022-2.207c-.087-.159-.173-.325-.252-.49a2.236,2.236,0,0,0-1.8-1.277l-.952-.094L23.542,35l.858-.368a2.218,2.218,0,0,0,1.32-1.782c.022-.18.05-.361.079-.541a2.218,2.218,0,0,0-.714-2.07Z" transform="translate(-7.75 -9.244)" fill="#1c54f8" stroke="#fff" stroke-width="1.6"></path><path id="Path_210" data-name="Path 210" d="M42.407,48.92h.014a6.526,6.526,0,0,0,6.5-6.5,6.477,6.477,0,0,0-6.47-6.484h-.014a6.526,6.526,0,0,0-6.5,6.5,6.477,6.477,0,0,0,6.47,6.484ZM39.89,39.89a3.628,3.628,0,0,1,2.553-1.067h.007a3.592,3.592,0,0,1,2.539,1.046,3.536,3.536,0,0,1,1.046,2.546,3.573,3.573,0,0,1-1.067,2.553,3.616,3.616,0,0,1-2.553,1.067h-.007A3.591,3.591,0,0,1,39.89,39.89Z" transform="translate(-16.02 -17.666)" fill="#1c54f8" stroke="#fff" stroke-width="1.6"></path><path id="Path_211" data-name="Path 211" d="M14.205,12.415a17.179,17.179,0,0,1,16.3-4.674,4.417,4.417,0,0,0,7.566,3.015,2.347,2.347,0,0,0,.166-.209,1.176,1.176,0,0,0,.159-.123,1.461,1.461,0,0,0,.4-.678,4.486,4.486,0,0,0-.714-5.309,4.415,4.415,0,0,0-6.289.007,3.845,3.845,0,0,0-.433.541,20.06,20.06,0,0,0-19.2,5.4A20.435,20.435,0,0,0,10,36.715a1.44,1.44,0,1,0,2.344-1.673A17.572,17.572,0,0,1,14.2,12.415ZM33.838,6.472a1.579,1.579,0,0,1,1.111-.462,1.522,1.522,0,0,1,1.089.454,1.615,1.615,0,0,1-.007,2.258,1.57,1.57,0,0,1-2.193.007,1.609,1.609,0,0,1,0-2.258Z" transform="translate(0)" fill="#1c54f8" stroke="#fff" stroke-width="1.6"></path><path id="Path_212" data-name="Path 212" d="M51.313,23.4a1.442,1.442,0,1,0-2.344,1.681,17.571,17.571,0,0,1-1.854,22.626,17.179,17.179,0,0,1-16.3,4.674,4.417,4.417,0,0,0-7.566-3.015c-.065.065-.108.137-.166.2a1.327,1.327,0,0,0-.159.123,1.461,1.461,0,0,0-.4.678,4.486,4.486,0,0,0,.714,5.309,4.415,4.415,0,0,0,6.289-.007,4.5,4.5,0,0,0,.44-.541,19.891,19.891,0,0,0,4.89.62,20.106,20.106,0,0,0,14.31-6.015A20.451,20.451,0,0,0,51.313,23.4ZM27.474,53.647a1.579,1.579,0,0,1-1.111.462,1.522,1.522,0,0,1-1.089-.454,1.614,1.614,0,0,1-.18-2.027,1.875,1.875,0,0,1,.188-.231,1.533,1.533,0,0,1,1.1-.462,1.51,1.51,0,0,1,1.089.454,1.609,1.609,0,0,1,0,2.258Z" transform="translate(-8.494 -10.592)" fill="#1c54f8" stroke="#fff" stroke-width="1.6"></path></g></g></svg> 