<?xml version="1.0" encoding="UTF-8"?> <!-- Generator: Adobe Illustrator 25.3.1, SVG Export Plug-In . SVG Version: 6.00 Build 0) --> <svg xmlns="http://www.w3.org/2000/svg" xmlns:xlink="http://www.w3.org/1999/xlink" version="1.1" id="Layer_1" x="0px" y="0px" viewBox="0 0 56 56" style="enable-background:new 0 0 56 56;" xml:space="preserve"> <style type="text/css"> .st0{fill:#3184C1;} .st1{fill:none;stroke:#1B54F8;stroke-width:1.9013;stroke-miterlimit:10;} .st2{fill:none;stroke:#1B54F8;stroke-width:2;stroke-linecap:round;stroke-linejoin:round;stroke-miterlimit:10;} </style> <path class="st0" d="M-39.3,23.3c-0.4-0.4-1-0.4-1.4,0l-4,4c-0.4,0.4-0.4,1,0,1.4c0.2,0.2,0.4,0.3,0.7,0.3h1.6l-2.3,2.3 c-0.4,0.4-0.4,1,0,1.4c0.2,0.2,0.4,0.3,0.7,0.3c0.3,0,0.5-0.1,0.7-0.3l4-4c0.4-0.4,0.4-1,0-1.4c-0.2-0.2-0.4-0.3-0.7-0.3h-1.6 l2.3-2.3C-38.9,24.3-38.9,23.7-39.3,23.3z"></path> <path class="st0" d="M-26.4,12.4c-0.4-0.4-1.1-0.3-1.4,0.1c-0.3,0.4-0.3,0.9,0,1.3c7.8,7.8,7.9,20.5,0.1,28.3 C-31.6,45.9-36.7,48-42,48c-0.6,0-1,0.4-1,1s0.4,1,1,1c12.2,0,22-9.8,22-22C-20,22.2-22.3,16.6-26.4,12.4z"></path> <path class="st0" d="M-51.5,45.2l7.1-6.8v3c0,0.6,0.4,1,1,1h1.4c3.8,0,7.5-1.5,10.2-4.2c1.7-1.7,2.9-3.7,3.6-5.9l0,0 c0,0,0-0.1,0-0.1c0,0,0-0.1,0-0.1c0,0,0,0,0,0l0,0c0,0,0-0.1,0-0.1c0,0,0-0.1,0-0.1v-0.1v-0.1c0,0,0-0.1,0-0.1c0,0,0-0.1,0-0.1 l-0.1-0.1l-0.1-0.1l-0.1-0.1l-0.1,0l-0.1,0h-0.1l0,0l0,0L-29,31h-9c-0.6,0-1,0.4-1,1s0.4,1,1,1h7.4c-0.6,1.4-1.5,2.7-2.6,3.8 c-2.3,2.3-5.5,3.6-8.8,3.6h-0.4v-4.4c0-0.6-0.5-1-1-1c-0.3,0-0.5,0.1-0.7,0.3l-9.5,9.1c-0.4,0.4-0.4,1,0,1.4c0,0,0,0,0,0l9.5,9.1 c0.2,0.2,0.4,0.3,0.7,0.3c0.3,0,0.5-0.1,0.7-0.3c0.4-0.4,0.4-1,0-1.4L-51.5,45.2z"></path> <path class="st0" d="M-33.2,17.8c-0.4,0.4-0.4,1,0,1.4c2.3,2.3,3.7,5.5,3.6,8.8c0,0.6,0.4,1,1,1s1-0.4,1-1c0-3.8-1.5-7.5-4.2-10.2 C-32.2,17.4-32.8,17.4-33.2,17.8C-33.2,17.8-33.2,17.8-33.2,17.8z"></path> <path class="st0" d="M-62,28c0-11,9-20,20-20c0.6,0,1-0.4,1-1s-0.4-1-1-1c-12.2,0-22,9.8-22,22c0,5.9,2.3,11.5,6.5,15.6 c0.2,0.2,0.4,0.3,0.7,0.3c0.6,0,1-0.5,1-1c0-0.3-0.1-0.5-0.3-0.7C-59.9,38.4-62,33.3-62,28z"></path> <path class="st0" d="M-32.5,10.8l-7.1,6.8v-3c0-0.6-0.4-1-1-1H-42c-3.8,0-7.5,1.5-10.2,4.2c-1.7,1.7-2.9,3.7-3.6,5.9l0,0 c0,0,0,0.1,0,0.1c0,0,0,0.1,0,0.1l0,0l0,0c0,0,0,0.1,0,0.1c0,0,0,0.1,0,0.1v0.1v0.1c0,0,0,0.1,0.1,0.1c0,0,0,0.1,0,0.1l0.1,0.1 l0.1,0.1l0.1,0c0,0,0.1,0,0.1,0.1h0.1l0.1,0l0,0l0,0c0.1,0,0.2,0,0.3,0h9c0.6,0,1-0.4,1-1s-0.4-1-1-1h-7.4c0.6-1.4,1.5-2.7,2.6-3.8 c2.4-2.3,5.5-3.5,8.8-3.4h0.4v4.4c0,0.6,0.5,1,1,1c0.3,0,0.5-0.1,0.7-0.3l9.5-9.1c0.2-0.2,0.3-0.4,0.3-0.7c0-0.3-0.1-0.5-0.3-0.7 l-9.5-9.2c-0.4-0.4-1-0.4-1.4,0s-0.4,1,0,1.4L-32.5,10.8z"></path> <path class="st0" d="M-55.4,27c-0.6,0-1,0.4-1,1c0,3.8,1.5,7.5,4.2,10.2c0.2,0.2,0.4,0.3,0.7,0.3c0.3,0,0.5-0.1,0.7-0.3 c0.4-0.4,0.4-1,0-1.4c-2.3-2.3-3.6-5.5-3.6-8.8C-54.4,27.4-54.9,27-55.4,27z"></path> <path class="st1" d="M54.6,18V7.9c0-3.5-2.9-6.4-6.4-6.4H38.2"></path> <path class="st1" d="M18,1.5H8c-3.5,0-6.4,2.9-6.4,6.4l0,0V18"></path> <path class="st1" d="M1.6,38.1v10.1c0,3.5,2.9,6.4,6.4,6.4H18"></path> <path class="st1" d="M38.2,54.5h10.1c3.5,0,6.4-2.9,6.4-6.4V38.1"></path> <path class="st2" d="M29.4,7.8l-6.5,15.9c-0.5,1.2,0.4,2.5,1.7,2.5h10.1c1.3,0,2.2,1.3,1.7,2.5l-6.8,15.5"></path> </svg> 