<?xml version="1.0" encoding="UTF-8"?> <svg xmlns="http://www.w3.org/2000/svg" id="Layer_1" data-name="Layer 1" viewBox="0 0 94 94"><defs><style>.cls-1{fill:#1b54f8;stroke:#1b54f8;stroke-miterlimit:10;}</style></defs><path class="cls-1" d="M40.2,11.14a.85.85,0,0,0-.7.8v7.7a29.28,29.28,0,0,0-6.5,2.9l-5.4-5.4a.91.91,0,0,0-1.2,0h0l-9.2,9.2a.91.91,0,0,0,0,1.2l5.4,5.4a29.28,29.28,0,0,0-2.9,6.5H12a.79.79,0,0,0-.8.8v13.3a.79.79,0,0,0,.8.8h7.8a29.28,29.28,0,0,0,2.9,6.5l-5.4,5.4a.91.91,0,0,0,0,1.2l9.2,9.2a.91.91,0,0,0,1.2,0h0l5.4-5.4a29.28,29.28,0,0,0,6.5,2.9v7.8a.79.79,0,0,0,.8.8H53.7a.79.79,0,0,0,.8-.8v-7.8a29.28,29.28,0,0,0,6.5-2.9l5.4,5.4a.91.91,0,0,0,1.2,0h0l9.2-9.2a.91.91,0,0,0,0-1.2l-5.4-5.4a29.28,29.28,0,0,0,2.9-6.5H82a.79.79,0,0,0,.8-.8V40.24a.79.79,0,0,0-.8-.8H74.2a29.28,29.28,0,0,0-2.9-6.5l5.4-5.4a.91.91,0,0,0,0-1.2l-9.2-9.2a.91.91,0,0,0-1.2,0h0L61,22.64a29.28,29.28,0,0,0-6.5-2.9V12a.79.79,0,0,0-.8-.8H40.3a.1.1,0,0,0-.1-.1Zm1,1.7H52.9v7.5a.87.87,0,0,0,.6.8,26.51,26.51,0,0,1,7.3,3.3.92.92,0,0,0,1-.1l5.2-5.2,8,8-5.2,5.2a.77.77,0,0,0-.1,1,25,25,0,0,1,3.2,7.3,1,1,0,0,0,.8.7h7.5V53H73.7a.87.87,0,0,0-.8.6,29.49,29.49,0,0,1-3.2,7.3.77.77,0,0,0,.1,1l5.2,5.3-8,8L61.8,70a.77.77,0,0,0-1-.1,28.24,28.24,0,0,1-7.3,3.3.76.76,0,0,0-.6.8v7.5H41.2V74a.87.87,0,0,0-.6-.8,26.51,26.51,0,0,1-7.3-3.3.92.92,0,0,0-1,.1l-5.2,5.2-8-8,5.2-5.3a.77.77,0,0,0,.1-1,25,25,0,0,1-3.2-7.3.76.76,0,0,0-.8-.6H12.9V41.34h7.5a.85.85,0,0,0,.8-.7,29.49,29.49,0,0,1,3.2-7.3.77.77,0,0,0-.1-1l-5.2-5.2,8-8,5.2,5.2a.77.77,0,0,0,1,.1,29.84,29.84,0,0,1,7.3-3.3.76.76,0,0,0,.6-.8v-7.5ZM47,27A20,20,0,1,0,67,47,20.06,20.06,0,0,0,47,27Zm0,1.6a18.3,18.3,0,0,1,5,35.9v-8.9a11.65,11.65,0,0,0,6.7-10.4,11.85,11.85,0,0,0-7.2-10.8.81.81,0,0,0-1.1.5c0,.1-.1.2-.1.3v9.6L47,47.64l-3.3-2.7v-9.6a1,1,0,0,0-.8-.9h-.2a.1.1,0,0,0-.1.1,11.75,11.75,0,0,0-7.2,10.8,11.37,11.37,0,0,0,6.7,10.4v8.9a18.36,18.36,0,0,1,4.9-36Zm-5,8.1v8.6a.91.91,0,0,0,.3.7l4.2,3.3a.91.91,0,0,0,1,0L51.7,46a.91.91,0,0,0,.3-.7v-8.6a9.94,9.94,0,0,1-1.1,17.8.79.79,0,0,0-.5.8V65a18.41,18.41,0,0,1-3.3.3,17.61,17.61,0,0,1-3.3-.3v-9.7a.89.89,0,0,0-.5-.8,10,10,0,0,1-6.1-9.2A9.39,9.39,0,0,1,42,36.74Z"></path></svg> 