<?xml version="1.0" encoding="UTF-8"?> <svg xmlns="http://www.w3.org/2000/svg" width="90" height="90" viewBox="0 0 90 90" fill="none"><mask id="mask0_1_198" style="mask-type:luminance" maskUnits="userSpaceOnUse" x="0" y="0" width="90" height="90"><path d="M90 0H0V90H90V0Z" fill="white"></path></mask><g mask="url(#mask0_1_198)"><path d="M18.1 58.6H22.5C23.2 58.6 23.8 58 23.8 57.3V48.3C23.8 47.6 23.2 47 22.5 47H18.1C17.4 47 16.8 47.6 16.8 48.3V57.3C16.9 58 17.4 58.6 18.1 58.6ZM19.4 49.6H21.2V56.1H19.4V49.6ZM27.4 58.6H31.8C32.5 58.6 33.1 58 33.1 57.3V42.8C33.1 42.1 32.5 41.5 31.8 41.5H27.4C26.7 41.5 26.1 42.1 26.1 42.8V57.3C26.1 58 26.7 58.6 27.4 58.6ZM28.6 44.1H30.4V56H28.6V44.1ZM40.9 38.1H36.5C35.8 38.1 35.2 38.7 35.2 39.4V57.4C35.2 58.1 35.8 58.7 36.5 58.7H40.9C41.6 58.7 42.2 58.1 42.2 57.4V39.4C42.2 38.6 41.6 38.1 40.9 38.1ZM39.7 56H37.9V40.5H39.7V56ZM35.4 63.7C35.4 64.4 34.8 65 34.1 65H18.1C17.4 65 16.8 64.4 16.8 63.7C16.8 63 17.4 62.4 18.1 62.4H34.1C34.8 62.4 35.4 63 35.4 63.7ZM35.4 68.8C35.4 69.5 34.8 70.1 34.1 70.1H18.1C17.4 70.1 16.8 69.5 16.8 68.8C16.8 68.1 17.4 67.5 18.1 67.5H34.1C34.8 67.5 35.4 68.1 35.4 68.8ZM41.7 32C48.1 32 53.3 26.8 53.3 20.4C53.3 14 48.1 8.80001 41.7 8.80001C35.3 8.80001 30.1 14 30.1 20.4C30.1 26.9 35.3 32 41.7 32ZM45.2 28.8L43.3 21.7H50.6C50.2 24.9 48.1 27.6 45.2 28.8ZM50.7 19.2H43.4L45.3 12.1C48.1 13.4 50.2 16 50.7 19.2ZM41.7 11.4C42.1 11.4 42.4 11.4 42.8 11.5L40.5 20.1C40.5 20.1 40.5 20.1 40.5 20.2C40.5 20.2 40.5 20.2 40.5 20.3C40.5 20.3 40.5 20.3 40.5 20.4C40.5 20.4 40.5 20.4 40.5 20.5C40.5 20.5 40.5 20.5 40.5 20.6C40.5 20.7 40.5 20.6 40.5 20.7C40.5 20.7 40.5 20.7 40.5 20.8C40.5 20.8 40.5 20.8 40.5 20.9L42.8 29.5C42.4 29.5 42.1 29.6 41.7 29.6C36.7 29.6 32.7 25.5 32.7 20.6C32.7 15.5 36.7 11.4 41.7 11.4ZM87.1 77.3C85.8 76 84.5 74.7 83.2 73.4C80.8 71 78.4 68.6 76 66.2C76 66.1 76.1 66.1 76.1 66C78.5 61.8 79.1 57 77.9 52.4C77 49.2 75.3 46.3 72.9 44V13.8C72.9 12.1 71.5 10.6 69.7 10.6H62.4V3.30001C62.4 1.60001 61 0.100006 59.2 0.100006H22.6C21.7 0.100006 21 0.400008 20.4 1.00001L6.70001 14.7C6.10001 15.3 5.80002 16.1 5.80002 16.9V75.8C5.80002 77.5 7.2 79 9 79H16.3V86.3C16.3 88 17.7 89.5 19.5 89.5H69.7C71.4 89.5 72.9 88.1 72.9 86.3V75.6L80.9 83.6C81.7 84.4 82.8 84.9 83.9 84.9C85 84.9 86 84.5 86.9 83.7L87.1 83.5C88.7 81.7 88.7 79 87.1 77.3ZM79.5 73.3L76.9 75.9L71.9 70.9C72.9 70.1 73.7 69.2 74.5 68.3C76.1 69.9 77.8 71.6 79.5 73.3ZM75.4 53C76.5 57 75.9 61.1 73.9 64.7C73.7 65 73.5 65.4 73.3 65.7C72.9 66.2 70.7 68.4 69.9 69.2C69.7 69.4 69.5 69.6 69.4 69.7C68 70.7 66.3 71.4 64.6 71.9C60.6 73 56.5 72.4 52.9 70.4C49.3 68.4 46.8 65 45.7 61C44.6 57 45.2 52.9 47.2 49.3C49.2 45.7 52.6 43.2 56.6 42.1C60.6 41 64.7 41.6 68.3 43.6C71.8 45.7 74.4 49 75.4 53ZM48.9 43.2C48.2 43.8 47.6 44.3 47.1 45V38.1H48.9V43.2ZM69.7 13.1C70 13.1 70.3 13.4 70.3 13.7V41.9C70 41.7 69.7 41.5 69.4 41.4C67.2 40.1 64.8 39.4 62.4 39.1V13.1H69.7ZM20.7 4.40001V14.3C20.7 14.6 20.4 14.9 20.1 14.9H10.2L20.7 4.40001ZM8.40002 75.8V17.4H20C21.7 17.4 23.2 16 23.2 14.2V2.60001H59.3C59.6 2.60001 59.9 2.90001 59.9 3.20001V39C58.5 39 57.2 39.2 55.8 39.6C54.2 40 52.8 40.6 51.4 41.4V36.9C51.4 36.2 50.8 35.6 50.1 35.6H45.7C45 35.6 44.4 36.2 44.4 36.9V48.7C42.3 52.7 41.8 57.3 43 61.6C44.2 66.2 47.2 70.1 51.4 72.5C54 74 56.9 74.8 59.8 74.9V75.8C59.8 76.1 59.5 76.4 59.2 76.4H8.90002C8.70002 76.4 8.40002 76.2 8.40002 75.8ZM70.4 86.3C70.4 86.6 70.1 86.9 69.8 86.9H19.6C19.3 86.9 19 86.6 19 86.3V79H59.4C61.1 79 62.6 77.6 62.6 75.8V74.8C63.5 74.7 64.4 74.5 65.3 74.3C66.9 73.9 68.5 73.2 69.9 72.4L70.5 73L70.4 86.3ZM85.3 81.6L85.1 81.8C84.4 82.5 83.4 82.4 82.7 81.8L78.7 77.8L81.3 75.2L81.4 75.3C82.7 76.6 84 77.9 85.3 79.3C85.9 79.8 86 80.9 85.3 81.6ZM57 43.8C49.8 45.7 45.4 53.2 47.4 60.5C48.3 64 50.6 66.9 53.7 68.8C55.8 70 58.1 70.6 60.5 70.6C61.7 70.6 62.9 70.4 64 70.1C67.5 69.2 70.4 66.9 72.3 63.8C74.1 60.7 74.6 57 73.7 53.5C71.7 46.2 64.2 41.9 57 43.8ZM70.1 62.5C68.6 65.1 66.2 66.9 63.4 67.7C60.5 68.5 57.6 68.1 55 66.6C52.4 65.1 50.6 62.7 49.8 59.9C48.2 54 51.7 47.9 57.6 46.3C63.5 44.7 69.6 48.2 71.2 54.1C72 57 71.6 60 70.1 62.5ZM64.7 56.5L68.2 53.8C68.8 53.4 69.6 53.5 70 54.1C70.4 54.7 70.3 55.5 69.7 55.9L65.4 59.2C64.9 59.6 64.3 59.5 63.8 59.2L60 56L52.7 60.7C52.5 60.8 52.3 60.9 52 60.9C51.6 60.9 51.2 60.7 50.9 60.3C50.5 59.7 50.7 58.9 51.3 58.6L59.4 53.4C59.9 53.1 60.5 53.1 60.9 53.5L64.7 56.5Z" fill="#1B54F8"></path></g></svg> 