<?xml version="1.0" encoding="UTF-8"?> <svg xmlns="http://www.w3.org/2000/svg" xmlns:xlink="http://www.w3.org/1999/xlink" width="90" height="90" viewBox="0 0 90 90"><defs><clipPath id="clip-path"><rect id="Rectangle_3" data-name="Rectangle 3" width="90" height="90" transform="translate(985 281)" fill="#324a8d"></rect></clipPath></defs><g id="Mask_Group_5" data-name="Mask Group 5" transform="translate(-985 -281)" clip-path="url(#clip-path)"><g id="Group_1" data-name="Group 1" transform="translate(55.514 -284.78)"><path id="Path_51" data-name="Path 51" d="M163.768,408.65a1.367,1.367,0,0,0,1.366-1.366v-.091a1.329,1.329,0,0,0-1.366-1.321,1.407,1.407,0,0,0-1.366,1.412,1.366,1.366,0,0,0,1.366,1.366Z" transform="translate(781.918 225.388)" fill="#1b54f8" stroke="#fff" stroke-width="0.6"></path><path id="Path_52" data-name="Path 52" d="M163.768,380.94a1.366,1.366,0,0,0,1.366-1.366v-.091a1.329,1.329,0,0,0-1.366-1.321,1.407,1.407,0,0,0-1.366,1.412,1.366,1.366,0,0,0,1.366,1.366Z" transform="translate(781.918 248.59)" fill="#1b54f8" stroke="#fff" stroke-width="0.6"></path><path id="Path_53" data-name="Path 53" d="M193.64,380.893a1.366,1.366,0,0,0,1.294-1.364v-.092a1.331,1.331,0,0,0-1.29-1.309h-.1a1.4,1.4,0,0,0-1.366,1.4,1.366,1.366,0,0,0,1.366,1.366Z" transform="translate(756.982 248.621)" fill="#1b54f8" stroke="#fff" stroke-width="0.6"></path><path id="Path_54" data-name="Path 54" d="M223.411,378.1h-.1a1.39,1.39,0,0,0-1.366,1.393,1.367,1.367,0,0,0,1.366,1.366h.092a1.364,1.364,0,0,0,1.311-1.365V379.4A1.339,1.339,0,0,0,223.411,378.1Z" transform="translate(732.059 248.643)" fill="#1b54f8" stroke="#fff" stroke-width="0.6"></path><path id="Path_55" data-name="Path 55" d="M253.194,378.07H253.1a1.383,1.383,0,0,0-1.368,1.386,1.367,1.367,0,0,0,1.368,1.366h.091a1.366,1.366,0,0,0,1.33-1.364v-.095a1.348,1.348,0,0,0-1.326-1.29Z" transform="translate(707.12 248.668)" fill="#1b54f8" stroke="#fff" stroke-width="0.6"></path><path id="Path_56" data-name="Path 56" d="M282.97,378.037h-.093a1.371,1.371,0,0,0,0,2.742h.092a1.366,1.366,0,0,0,1.347-1.366v-.1A1.358,1.358,0,0,0,282.97,378.037Z" transform="translate(682.188 248.695)" fill="#1b54f8" stroke="#fff" stroke-width="0.6"></path><path id="Path_57" data-name="Path 57" d="M312.75,380.736a1.367,1.367,0,0,0,0-2.733h-.091a1.366,1.366,0,1,0,0,2.733Z" transform="translate(657.251 248.723)" fill="#1b54f8" stroke="#fff" stroke-width="0.6"></path><path id="Path_58" data-name="Path 58" d="M522.168,408.65a1.367,1.367,0,0,0,1.366-1.366,1.407,1.407,0,0,0-1.366-1.412,1.329,1.329,0,0,0-1.366,1.321v.091A1.367,1.367,0,0,0,522.168,408.65Z" transform="translate(481.83 225.388)" fill="#1b54f8" stroke="#fff" stroke-width="0.6"></path><path id="Path_59" data-name="Path 59" d="M522.168,380.94a1.366,1.366,0,0,0,1.366-1.366,1.407,1.407,0,0,0-1.366-1.412,1.329,1.329,0,0,0-1.366,1.321v.091A1.366,1.366,0,0,0,522.168,380.94Z" transform="translate(481.83 248.59)" fill="#1b54f8" stroke="#fff" stroke-width="0.6"></path><path id="Path_60" data-name="Path 60" d="M492.3,378.12h-.1a1.33,1.33,0,0,0-1.29,1.309v.092a1.366,1.366,0,0,0,1.294,1.364h.092a1.366,1.366,0,0,0,1.366-1.366,1.4,1.4,0,0,0-1.367-1.4Z" transform="translate(506.851 248.625)" fill="#1b54f8" stroke="#fff" stroke-width="0.6"></path><path id="Path_61" data-name="Path 61" d="M462.415,378.1h-.1a1.341,1.341,0,0,0-1.309,1.3v.093a1.365,1.365,0,0,0,1.311,1.365h.092a1.367,1.367,0,0,0,1.366-1.366,1.39,1.39,0,0,0-1.366-1.394Z" transform="translate(531.892 248.642)" fill="#1b54f8" stroke="#fff" stroke-width="0.6"></path><path id="Path_62" data-name="Path 62" d="M432.547,378.07h-.093a1.349,1.349,0,0,0-1.326,1.29v.1a1.364,1.364,0,0,0,1.33,1.364h.091a1.368,1.368,0,0,0,1.368-1.366,1.383,1.383,0,0,0-1.368-1.386Z" transform="translate(556.915 248.667)" fill="#1b54f8" stroke="#fff" stroke-width="0.6"></path><path id="Path_63" data-name="Path 63" d="M402.679,378.04h-.093a1.36,1.36,0,0,0-1.345,1.28v.1a1.366,1.366,0,0,0,1.347,1.366h.092a1.371,1.371,0,0,0,0-2.742Z" transform="translate(581.94 248.692)" fill="#1b54f8" stroke="#fff" stroke-width="0.6"></path><path id="Path_64" data-name="Path 64" d="M372.81,380.736a1.367,1.367,0,0,0,0-2.733h-.091a1.366,1.366,0,0,0,0,2.733Z" transform="translate(606.963 248.723)" fill="#1b54f8" stroke="#fff" stroke-width="0.6"></path><path id="Path_65" data-name="Path 65" d="M341.6,407.133a1.366,1.366,0,0,0,2.733,0v-.046a1.367,1.367,0,1,0-2.733,0Z" transform="translate(631.875 225.515)" fill="#1b54f8" stroke="#fff" stroke-width="0.6"></path><path id="Path_66" data-name="Path 66" d="M341.6,379.2a1.366,1.366,0,0,0,2.733,0v-.081a1.367,1.367,0,0,0-2.733,0Z" transform="translate(631.875 248.933)" fill="#1b54f8" stroke="#fff" stroke-width="0.6"></path><path id="Path_67" data-name="Path 67" d="M342.968,352.781a1.367,1.367,0,0,0,1.366-1.366v-.046a1.367,1.367,0,0,0-2.733,0v.046A1.367,1.367,0,0,0,342.968,352.781Z" transform="translate(631.874 272.168)" fill="#1b54f8" stroke="#fff" stroke-width="0.6"></path><path id="Path_68" data-name="Path 68" d="M128.6,431.2a8.2,8.2,0,1,0,8.2,8.2A8.2,8.2,0,0,0,128.6,431.2Zm0,13.667a5.467,5.467,0,1,1,5.467-5.467A5.467,5.467,0,0,1,128.6,444.867Z" transform="translate(817.084 204.181)" fill="#1b54f8" stroke="#fff" stroke-width="0.6"></path><path id="Path_69" data-name="Path 69" d="M307.8,431.2a8.2,8.2,0,1,0,8.2,8.2A8.2,8.2,0,0,0,307.8,431.2Zm0,13.667a5.467,5.467,0,1,1,5.467-5.467A5.467,5.467,0,0,1,307.8,444.867Z" transform="translate(667.04 204.181)" fill="#1b54f8" stroke="#fff" stroke-width="0.6"></path><path id="Path_70" data-name="Path 70" d="M487,431.2a8.2,8.2,0,1,0,8.2,8.2A8.2,8.2,0,0,0,487,431.2Zm0,13.667a5.467,5.467,0,1,1,5.467-5.467A5.467,5.467,0,0,1,487,444.867Z" transform="translate(516.996 204.181)" fill="#1b54f8" stroke="#fff" stroke-width="0.6"></path><path id="Path_71" data-name="Path 71" d="M218.711,28a25.511,25.511,0,1,0,25.511,25.511A25.511,25.511,0,0,0,218.711,28Zm0,48.289a22.778,22.778,0,1,1,22.778-22.778A22.778,22.778,0,0,1,218.711,76.289Z" transform="translate(756.131 541.78)" fill="#1b54f8" stroke="#fff" stroke-width="0.6"></path><path id="Path_72" data-name="Path 72" d="M286.291,129.082H262.548l.534-1.42c.418-1.111.994-2.642,1.627-4.328a8.448,8.448,0,0,1,3.236-3.766,10.114,10.114,0,0,1,5.068-1.78,15.046,15.046,0,0,0,6-1.5,9.322,9.322,0,0,0,2.249-1.542,4.956,4.956,0,0,0,1.384-2.143c.2-.67.382-1.295.546-1.846l1.089,2.03a1.367,1.367,0,1,0,2.409-1.292l-2.664-4.967a1.369,1.369,0,0,0-1.853-.557l-4.963,2.669a1.368,1.368,0,0,0,1.3,2.407l2.079-1.12c-.167.566-.357,1.208-.561,1.9a2.291,2.291,0,0,1-.651.941,7.849,7.849,0,0,1-2.657,1.536,12.73,12.73,0,0,1-3.812.754,12.814,12.814,0,0,0-6.483,2.246,11.1,11.1,0,0,0-4.264,5.068l-1.83,4.861v-19.7a1.367,1.367,0,1,0-2.733,0v22.918a1.364,1.364,0,0,0,1.368,1.366H286.29a1.366,1.366,0,0,0,0-2.732Z" transform="translate(702.218 476.636)" fill="#1b54f8" stroke="#fff" stroke-width="0.6"></path><path id="Path_73" data-name="Path 73" d="M344.4,215.7a2.278,2.278,0,1,0,2.278-2.278A2.278,2.278,0,0,0,344.4,215.7Z" transform="translate(629.531 386.528)" fill="#1b54f8" stroke="#fff" stroke-width="0.6"></path><path id="Path_74" data-name="Path 74" d="M301.871,122.769a2.277,2.277,0,1,0-2.277-2.277A2.277,2.277,0,0,0,301.871,122.769Z" transform="translate(667.047 466.244)" fill="#1b54f8" stroke="#fff" stroke-width="0.6"></path></g></g></svg> 