<?xml version="1.0" encoding="UTF-8"?> <svg xmlns="http://www.w3.org/2000/svg" width="90" height="90" viewBox="0 0 90 90"><g id="Group_1386" data-name="Group 1386" transform="translate(-1086 -395)"><rect id="Rectangle_432" data-name="Rectangle 432" width="90" height="90" transform="translate(1086 395)" fill="none"></rect><g id="fraud-prevention_1_" data-name="fraud-prevention (1)" transform="translate(1097 406)"><path id="Path_7832" data-name="Path 7832" d="M62.9,13H41.6V8.7a7.6,7.6,0,1,0-15.2,0V13H5.1A4.055,4.055,0,0,0,1,17.1V50.7a4.055,4.055,0,0,0,4.1,4.1h17l4.5,9.4A4.918,4.918,0,0,0,33,66.5a4.861,4.861,0,0,0,2.3-6.4l-2.5-5.2h30a4.055,4.055,0,0,0,4.1-4.1V17.1A3.913,3.913,0,0,0,62.9,13ZM28.4,8.7a5.6,5.6,0,1,1,11.2,0v7.9H28.4ZM23.1,45.5a11.808,11.808,0,1,1,5.5-15.8A11.744,11.744,0,0,1,23.1,45.5ZM25,46.8,27,51l-2.2,1-2-4.2A21.4,21.4,0,0,0,25,46.8Zm7.2,17.9a2.935,2.935,0,0,1-3.8-1.3l-4.2-8.9c.2-.1,5.1-2.4,5.1-2.4.4.9,3.7,7.8,4.2,8.9A2.731,2.731,0,0,1,32.2,64.7ZM65,50.7a2.112,2.112,0,0,1-2.1,2.1h-31l-1.2-2.5a1.024,1.024,0,0,0-.6-.5,1.1,1.1,0,0,0-.8,0l-.5.3-2.1-4.5A13.822,13.822,0,0,0,12,22.4,13.968,13.968,0,0,0,5.5,40.8a13.773,13.773,0,0,0,15.3,7.5l2.1,4.5H5.1A2.112,2.112,0,0,1,3,50.7V17.1A2.182,2.182,0,0,1,5.1,15H26.4v2.6a.945.945,0,0,0,1,1H40.6a.945.945,0,0,0,1-1V15H62.9A2.182,2.182,0,0,1,65,17.1Z" fill="#1b54f8"></path><path id="Path_7833" data-name="Path 7833" d="M20,34.5a5.2,5.2,0,1,0-4,0,6.223,6.223,0,0,0-5.6,6.3v.8a.945.945,0,0,0,1,1H24.7a.945.945,0,0,0,1-1v-.8A6.308,6.308,0,0,0,20,34.5Zm-5.2-4.8A3.2,3.2,0,1,1,18,32.9,3.159,3.159,0,0,1,14.8,29.7ZM12.3,40.6a4.294,4.294,0,0,1,4.3-4.1h2.7a4.294,4.294,0,0,1,4.3,4.1Zm49.6-16H37.2a1,1,0,0,0,0,2H61.9a.945.945,0,0,0,1-1,1,1,0,0,0-1-1ZM37.2,33.1h7.5a1,1,0,1,0,0-2H37.2a1,1,0,0,0,0,2Zm24.7-2h-14a1,1,0,0,0,0,2h14a.945.945,0,0,0,1-1A1.075,1.075,0,0,0,61.9,31.1Zm0,6.7H37.2a1,1,0,0,0,0,2H61.9a.945.945,0,0,0,1-1,1,1,0,0,0-1-1ZM34,11.7a3.351,3.351,0,0,0,3.3-3.4A3.265,3.265,0,0,0,34,5a3.351,3.351,0,0,0-3.3,3.4A3.265,3.265,0,0,0,34,11.7ZM34,7a1.347,1.347,0,0,1,1.3,1.4A1.26,1.26,0,0,1,34,9.7a1.347,1.347,0,0,1-1.3-1.4A1.26,1.26,0,0,1,34,7Zm5.6,38.3H36.3a1,1,0,0,0,0,2h3.3a1,1,0,1,0,0-2Zm7.4,0H43.7a1,1,0,0,0,0,2H47a1,1,0,0,0,0-2Zm7.5,0H51.2a1,1,0,0,0,0,2h3.3a.945.945,0,0,0,1-1A1,1,0,0,0,54.5,45.3Zm7.4,0H58.6a1,1,0,0,0,0,2h3.3a.945.945,0,0,0,1-1A1,1,0,0,0,61.9,45.3Z" fill="#1b54f8"></path></g></g></svg> 