<?xml version="1.0" encoding="UTF-8"?> <svg xmlns="http://www.w3.org/2000/svg" width="90" height="90" viewBox="0 0 90 90"><g id="Group_1389" data-name="Group 1389" transform="translate(-1723 -399)"><rect id="Rectangle_435" data-name="Rectangle 435" width="90" height="90" transform="translate(1723 399)" fill="none"></rect><g id="predictive-analysis" transform="translate(1737.999 414)"><path id="Path_7838" data-name="Path 7838" d="M69.6,9.834q.277.2.549.4A.968.968,0,0,0,71.326,8.7q-.3-.227-.6-.442A.969.969,0,0,0,69.6,9.834c.184.131-.436-.309,0,0Z" transform="translate(-35.73 -4.18)" fill="#1b54f8"></path><path id="Path_7839" data-name="Path 7839" d="M59.214,48.675A11.431,11.431,0,0,0,56.2,44.85L41.619,32.872A22.1,22.1,0,0,0,44.35,23.15h3.1a4.355,4.355,0,1,0,0-1.935h-3.1A22.078,22.078,0,0,0,38.561,7.23a.968.968,0,0,0-1.429,1.305,20.151,20.151,0,0,1,5.28,12.679H40.26L37.828,14.88a.976.976,0,0,0-1.783-.058L33.1,21.214H27.63a.968.968,0,0,0-.884.573l-1.5,3.361L21.817,14.92A.976.976,0,0,0,20,14.88l-2.432,6.334H13.836a4.355,4.355,0,1,0,0,1.935h4.393a.968.968,0,0,0,.9-.621l1.705-4.44L24.2,28.119a.976.976,0,0,0,1.8.087l2.258-5.056H33.72a.968.968,0,0,0,.879-.563l2.245-4.871,1.848,4.813a.968.968,0,0,0,.9.621h2.816A20.255,20.255,0,1,1,31.006,3.957a.968.968,0,0,0,.844-1.742,22.181,22.181,0,1,0,1.017,39.406L44.848,56.2a11.435,11.435,0,0,0,3.825,3.011A7.891,7.891,0,0,0,59.214,48.675h0ZM9.592,24.6a2.419,2.419,0,1,1,2.42-2.419A2.423,2.423,0,0,1,9.592,24.6ZM51.7,19.763a2.419,2.419,0,1,1-2.42,2.419A2.423,2.423,0,0,1,51.7,19.763Zm2.452,25.906-3.557,3.556L38.529,37.165A22.316,22.316,0,0,0,40.6,34.541L54.149,45.669ZM37.16,38.533,49.223,50.593,45.666,54.15,34.536,40.6a22.337,22.337,0,0,0,2.624-2.072ZM56.322,56.322a5.962,5.962,0,0,1-6.805,1.149,9.484,9.484,0,0,1-2.582-1.853l4.341-4.34h0l4.341-4.34a9.486,9.486,0,0,1,1.854,2.581A5.958,5.958,0,0,1,56.322,56.322Z" transform="translate(0)" fill="#1b54f8"></path></g></g></svg> 