<?xml version="1.0" encoding="UTF-8"?> <svg xmlns="http://www.w3.org/2000/svg" xmlns:xlink="http://www.w3.org/1999/xlink" width="60" height="60" viewBox="0 0 60 60"><defs><clipPath id="clip-path"><rect id="Rectangle_24" data-name="Rectangle 24" width="60" height="60" transform="translate(297 475)" fill="#fff" stroke="#707070" stroke-width="1"></rect></clipPath></defs><g id="Mask_Group_18" data-name="Mask Group 18" transform="translate(-297 -475)" clip-path="url(#clip-path)"><g id="Group_50" data-name="Group 50" transform="translate(58.734 57.147)"><path id="Path_105" data-name="Path 105" d="M17.256,35.654a1.589,1.589,0,0,1-1.494,1.7,1.6,1.6,0,0,1-1.446-1.677h0l-.2-6.619a1.7,1.7,0,0,1,2.893-1.225,1.652,1.652,0,0,1,.467,1.225l-.226,6.577Zm-1.791,0a.218.218,0,0,0,0-.047l-.221-6.59a.523.523,0,0,1,.153-.382.548.548,0,0,1,.936.366l-.221,6.588v.047h0c0,.332-.259.715-.507.425v0a.735.735,0,0,1-.135-.425Zm.808,3.514a.689.689,0,1,0,0,.982.7.7,0,0,0,0-.982Zm-.485-1.361,0,0a1.847,1.847,0,1,1-1.838,1.851,1.844,1.844,0,0,1,1.838-1.851ZM13.006,26.882c-.97-4.8-.761-10.55-.761-16.39v0a.575.575,0,0,1,.643-.575,20.324,20.324,0,0,0,8.039-1.238A39.98,39.98,0,0,0,27.482,5.5a.572.572,0,0,1,.578,0,40.037,40.037,0,0,0,6.568,3.18A20.321,20.321,0,0,0,42.71,9.91a.582.582,0,0,1,.427.16.588.588,0,0,1,.181.419v2.748c.068,13.5.12,23.039-15.314,30.023a.576.576,0,0,1-.469,0l-1.8-.851a2.377,2.377,0,0,1-1.911.945H7.739A2.425,2.425,0,0,1,5.664,39.7Zm3.242-2.389a2.394,2.394,0,0,0-2.323.876c-.655-4.216-.527-9.421-.51-14.272a21.582,21.582,0,0,0,7.9-1.328,39.55,39.55,0,0,0,6.469-3.1,39.723,39.723,0,0,0,6.479,3.1A21.65,21.65,0,0,0,42.182,11.1v2.149c.063,12.991.106,22.193-14.395,28.853l-1.57-.758,0,0a2.4,2.4,0,0,0-.3-1.647l-1.107-1.931c.876.548,1.786,1.047,2.71,1.505a.563.563,0,0,0,.51,0,24.815,24.815,0,0,0,6.3-4.254,16.744,16.744,0,0,0,4.993-10.465A77.148,77.148,0,0,0,39.744,14v0a.573.573,0,0,0-.527-.575A30.092,30.092,0,0,1,28.021,9.6a.576.576,0,0,0-.545,0A30.529,30.529,0,0,1,16.3,13.428h0a.583.583,0,0,0-.477.6v3.262a58.3,58.3,0,0,0,.425,7.2Zm.374,1.412v0a1.223,1.223,0,0,1,.281.346l8.039,14.028,0,0a1.254,1.254,0,0,1,0,1.276,1.216,1.216,0,0,1-1.093.633H7.74a1.276,1.276,0,0,1-1.1-1.906l4.031-7.019a.09.09,0,0,0,0-.03l3.4-5.93.043-.073.562-.982v0a1.278,1.278,0,0,1,1.906-.346Zm6.858,9.536a26.133,26.133,0,0,0,4.3,2.667c4.373-2.212,7.992-5.134,9.576-10,1.08-3.322,1.221-7.346,1.276-10.831V14.516A31.494,31.494,0,0,1,27.79,10.769a31.457,31.457,0,0,1-10.822,3.747c0,2.7,0,5.751.256,8.434.073.739.166,1.481.289,2.208h0a2.616,2.616,0,0,1,.366.5l4.02,7.01Zm7.788-14.217-4.254,4.254a.559.559,0,0,1-.405.173.566.566,0,0,1-.407-.173l-1.918-1.947a.711.711,0,0,0-1,1.012l2.978,3.016a.489.489,0,0,0,.695,0l5.317-5.3a.713.713,0,0,0-1.009-1.009Zm-4.644,3.037L25.1,22.726h0a1.868,1.868,0,0,0-2.632,2.65l2.978,3.016a1.637,1.637,0,0,0,2.326,0l5.312-5.339a1.865,1.865,0,1,0-2.624-2.65Z" transform="translate(243.939 423.436)" fill="#1c54f8" fill-rule="evenodd"></path></g></g></svg> 