<?xml version="1.0" encoding="UTF-8"?> <svg xmlns="http://www.w3.org/2000/svg" xmlns:xlink="http://www.w3.org/1999/xlink" width="90" height="90" viewBox="0 0 90 90"><defs><clipPath id="clip-path"><rect id="Rectangle_3" data-name="Rectangle 3" width="90" height="90" transform="translate(587 66)" fill="#fff" stroke="#707070" stroke-width="1"></rect></clipPath></defs><g id="Mask_Group_1" data-name="Mask Group 1" transform="translate(-587 -66)" clip-path="url(#clip-path)"><g id="Group_3" data-name="Group 3" transform="translate(-4.346 -206.998)"><g id="Group_2" data-name="Group 2" transform="translate(603.79 283)"><path id="Path_1" data-name="Path 1" d="M27.441,63.717h-4.51c-3.183,0-6.885-2.6-6.885-5.958V26.278h58.6V57.76c0,3.355-3.7,5.958-6.884,5.958h-4.51v3.256h4.51c4.787,0,10.14-3.941,10.14-9.214V19.317C77.9,14.441,73.083,10,67.791,10H22.931c-4.787,0-10.141,3.985-10.141,9.317V57.76c0,5.273,5.354,9.214,10.141,9.214H27.44a1.628,1.628,0,0,0,0-3.257Zm-11.394-44.4c0-3.059,3.411-6.062,6.885-6.062h44.86c3.524,0,6.856,2.946,6.856,6.062v3.705h-58.6Z" transform="translate(-12.79 -10)" fill="#1c54f8" stroke="#fff" stroke-width="1"></path><path id="Path_2" data-name="Path 2" d="M56.977,17.442H55.349a1.627,1.627,0,0,0,0,3.255h1.627a1.627,1.627,0,0,0,0-3.255Z" transform="translate(-17.909 -10.931)" fill="#1c54f8" stroke="#fff" stroke-width="1"></path><path id="Path_3" data-name="Path 3" d="M66.279,17.442H64.651a1.627,1.627,0,1,0,0,3.255h1.627a1.627,1.627,0,1,0,0-3.255Z" transform="translate(-19.072 -10.931)" fill="#1c54f8" stroke="#fff" stroke-width="1"></path><path id="Path_4" data-name="Path 4" d="M75.582,17.442H73.954a1.627,1.627,0,1,0,0,3.255h1.627a1.627,1.627,0,1,0,0-3.255Z" transform="translate(-20.235 -10.931)" fill="#1c54f8" stroke="#fff" stroke-width="1"></path><path id="Path_5" data-name="Path 5" d="M40.824,67.762l-.576,2.84a2.19,2.19,0,0,0,2.146,2.625h12.1A2.19,2.19,0,0,0,56.635,70.6l-.584-2.842L58.918,69.9a2.191,2.191,0,0,0,3.5-1.754V58.97a2.2,2.2,0,0,0-.876-1.752l-3.37-2.528a2.02,2.02,0,0,0-.245-.135V47.714A13.913,13.913,0,0,0,55.4,39.7L50.7,32.976a2.856,2.856,0,0,0-4.508,0L41.483,39.7a13.907,13.907,0,0,0-2.526,8.015v6.842a2.211,2.211,0,0,0-.248.136L35.34,57.22a2.2,2.2,0,0,0-.873,1.75v9.18a2.189,2.189,0,0,0,3.5,1.753ZM43.7,69.971l.478-2.357H52.7l.484,2.357ZM59.164,59.5v6.516l-1.235-.927V58.576ZM48.443,35.434l2.342,3.346H46.1Zm-6.23,12.28a10.655,10.655,0,0,1,1.658-5.678s9.134-.022,9.166.03a10.636,10.636,0,0,1,1.635,5.649V64.358H42.214ZM37.724,59.5l1.235-.927v6.516l-1.235.927Z" transform="translate(-15.501 -12.735)" fill="#1c54f8" stroke="#fff" stroke-width="1"></path><path id="Path_6" data-name="Path 6" d="M48.14,84.186v3.256a1.627,1.627,0,0,0,3.255,0V84.186a1.627,1.627,0,1,0-3.255,0Z" transform="translate(-17.211 -19.074)" fill="#1c54f8" stroke="#fff" stroke-width="1"></path><path id="Path_7" data-name="Path 7" d="M42.558,84.186v1.627a1.627,1.627,0,1,0,3.255,0V84.186a1.627,1.627,0,1,0-3.255,0Z" transform="translate(-16.513 -19.074)" fill="#1c54f8" stroke="#fff" stroke-width="1"></path><path id="Path_8" data-name="Path 8" d="M55.348,82.558a1.627,1.627,0,0,0-1.627,1.627v1.627a1.627,1.627,0,0,0,3.255,0V84.185A1.625,1.625,0,0,0,55.348,82.558Z" transform="translate(-17.909 -19.074)" fill="#1c54f8" stroke="#fff" stroke-width="1"></path><path id="Path_9" data-name="Path 9" d="M49.544,57.549a5.11,5.11,0,1,0-5.111-5.111A5.116,5.116,0,0,0,49.544,57.549Zm0-6.965a1.854,1.854,0,1,1-1.855,1.853A1.855,1.855,0,0,1,49.544,50.585Z" transform="translate(-16.747 -14.668)" fill="#1c54f8" stroke="#fff" stroke-width="1"></path></g></g></g></svg> 