<?xml version="1.0" encoding="UTF-8"?> <svg xmlns="http://www.w3.org/2000/svg" width="90" height="90" viewBox="0 0 90 90" fill="none"><mask id="mask0_1_53" style="mask-type:alpha" maskUnits="userSpaceOnUse" x="0" y="0" width="90" height="90"><rect width="90" height="90" fill="#D9D9D9"></rect></mask><g mask="url(#mask0_1_53)"><path fill-rule="evenodd" clip-rule="evenodd" d="M6.08 55.81H13.13C13.66 55.81 14.15 56.03 14.5 56.38C14.85 56.73 15.07 57.21 15.07 57.75V70.32C15.07 70.85 14.85 71.34 14.5 71.69C14.15 72.04 13.67 72.26 13.13 72.26H6.08C5.55 72.26 5.06 72.04 4.71 71.69C4.36 71.34 4.14 70.86 4.14 70.32V57.75C4.14 57.22 4.36 56.73 4.71 56.38C5.06 56.03 5.54 55.81 6.08 55.81ZM5.93 43.52C5.48 43.89 4.82 43.82 4.45 43.37C4.08 42.92 4.15 42.26 4.6 41.89L34.95 17.03C35.39 16.67 36.03 16.72 36.4 17.14L43.64 24.24L62.16 9.15L58.48 9.1C57.9 9.1 57.43 8.62 57.44 8.04C57.44 7.46 57.92 7 58.5 7L65.04 7.08C65.35 7.08 65.67 7.2 65.88 7.47C66.1 7.74 66.16 8.09 66.08 8.4L64.39 14.75C64.24 15.31 63.67 15.65 63.1 15.5C62.54 15.35 62.2 14.78 62.35 14.21L63.21 10.99L44.25 26.44C43.84 26.79 43.22 26.78 42.83 26.39L35.54 19.25L5.92 43.52H5.93ZM73.7 58.62C73.7 58.04 74.17 57.57 74.75 57.57C75.33 57.57 75.8 58.04 75.8 58.62V59.54C76.78 59.75 77.66 60.24 78.35 60.92C79.27 61.84 79.84 63.12 79.84 64.52C79.84 65.1 79.37 65.57 78.79 65.57C78.21 65.57 77.74 65.1 77.74 64.52C77.74 63.7 77.41 62.95 76.87 62.41C76.33 61.87 75.58 61.54 74.76 61.54C73.94 61.54 73.19 61.87 72.65 62.41C72.11 62.95 71.78 63.7 71.78 64.52C71.78 66.77 73.39 67.15 75.01 67.53C77.44 68.11 79.86 68.69 79.86 72.6C79.86 74.01 79.29 75.28 78.37 76.2C77.68 76.88 76.81 77.38 75.82 77.58V78.5C75.82 79.08 75.35 79.55 74.77 79.55C74.19 79.55 73.72 79.08 73.72 78.5V77.58C72.74 77.37 71.86 76.88 71.17 76.2C70.25 75.28 69.68 74 69.68 72.6C69.68 72.02 70.15 71.55 70.73 71.55C71.31 71.55 71.78 72.02 71.78 72.6C71.78 73.42 72.11 74.17 72.65 74.71C73.19 75.25 73.94 75.58 74.76 75.58C75.58 75.58 76.33 75.25 76.87 74.71C77.41 74.17 77.74 73.42 77.74 72.6C77.74 70.35 76.13 69.97 74.51 69.59C72.08 69.01 69.66 68.43 69.66 64.52C69.66 63.11 70.23 61.84 71.15 60.92C71.84 60.23 72.71 59.74 73.7 59.54V58.62ZM74.75 53.31C74.38 53.31 74.01 53.32 73.64 53.35V19.7C73.64 19.17 73.42 18.68 73.07 18.33C72.72 17.98 72.24 17.76 71.7 17.76H64.65C64.12 17.76 63.63 17.98 63.28 18.33C62.93 18.68 62.71 19.16 62.71 19.7V59.18C60.69 61.77 59.48 65.03 59.48 68.57C59.48 70.48 59.83 72.31 60.48 74H1.05C0.47 74 0 74.47 0 75.05C0 75.63 0.47 76.1 1.05 76.1H61.48C62.16 77.29 62.99 78.38 63.96 79.35C66.72 82.11 70.53 83.82 74.75 83.82C78.97 83.82 82.78 82.11 85.54 79.35C88.3 76.59 90.01 72.78 90.01 68.56C90.01 64.34 88.3 60.53 85.54 57.77C82.78 55.01 78.97 53.3 74.75 53.3V53.31ZM64.84 56.97C66.73 55.35 69.02 54.19 71.54 53.65V19.87H64.84V56.97ZM84.05 59.27C81.67 56.89 78.39 55.42 74.76 55.42C71.13 55.42 67.84 56.89 65.47 59.27C63.09 61.65 61.62 64.93 61.62 68.56C61.62 72.19 63.09 75.48 65.47 77.85C67.85 80.23 71.13 81.7 74.76 81.7C78.39 81.7 81.68 80.23 84.05 77.85C86.43 75.47 87.9 72.19 87.9 68.56C87.9 64.93 86.43 61.64 84.05 59.27ZM50.02 29.59C49.49 29.59 49 29.81 48.65 30.16C48.3 30.51 48.08 30.99 48.08 31.53V70.31C48.08 70.84 48.3 71.33 48.65 71.68C49 72.03 49.48 72.25 50.02 72.25H57.07C57.6 72.25 58.09 72.03 58.44 71.68C58.79 71.33 59.01 70.85 59.01 70.31V31.53C59.01 31 58.79 30.51 58.44 30.16C58.09 29.81 57.61 29.59 57.07 29.59H50.02ZM56.89 31.7H50.19V70.13H56.89V31.7ZM35.37 35.41C34.84 35.41 34.35 35.63 34 35.98C33.65 36.33 33.43 36.81 33.43 37.35V70.31C33.43 70.84 33.65 71.33 34 71.68C34.35 72.03 34.83 72.25 35.37 72.25H42.42C42.95 72.25 43.44 72.03 43.79 71.68C44.14 71.33 44.36 70.85 44.36 70.31V37.35C44.36 36.82 44.14 36.33 43.79 35.98C43.44 35.63 42.96 35.41 42.42 35.41H35.37ZM42.24 37.52H35.54V70.13H42.24V37.52ZM20.72 45.08H27.77C28.3 45.08 28.79 45.3 29.14 45.65C29.49 46 29.71 46.48 29.71 47.02V70.32C29.71 70.85 29.49 71.34 29.14 71.69C28.79 72.04 28.31 72.26 27.77 72.26H20.72C20.19 72.26 19.7 72.04 19.35 71.69C19 71.34 18.78 70.86 18.78 70.32V47.02C18.78 46.49 19 46 19.35 45.65C19.7 45.3 20.18 45.08 20.72 45.08ZM27.59 47.19V70.13H20.89V47.19H27.59ZM12.94 57.92H6.24V70.13H12.94V57.92Z" fill="#1A53F6"></path></g></svg> 