<?xml version="1.0" encoding="UTF-8"?> <svg xmlns="http://www.w3.org/2000/svg" xmlns:xlink="http://www.w3.org/1999/xlink" width="90" height="90" viewBox="0 0 90 90"><defs><clipPath id="clip-path"><rect id="Rectangle_36" data-name="Rectangle 36" width="90" height="90" transform="translate(614 861)" fill="#fff" stroke="#707070" stroke-width="1"></rect></clipPath></defs><g id="Mask_Group_13" data-name="Mask Group 13" transform="translate(-614 -861)" clip-path="url(#clip-path)"><g id="Group_9" data-name="Group 9" transform="translate(56 -258)"><path id="Path_17" data-name="Path 17" d="M37.021,30.292A16.991,16.991,0,0,0,25.641,35.3,17.237,17.237,0,0,0,50.01,59.671a17,17,0,0,0,5.007-11.38h-18Zm41.845,6.728H66.289a18.643,18.643,0,0,0-18-18V6.443H52.1l1.59,6.359,7.407,3,5.465-3.347,6.3,6.3-3.357,5.653L72.7,31.8l6.165,1.586v3.634ZM48.288,20.464A17.2,17.2,0,0,1,64.845,37.021H48.288ZM80.309,32.83v5.634H46.845V5h6.378l1.685,6.741L60.965,14.2l5.814-3.564,7.892,7.892-3.556,5.99,2.624,6.07,6.57,1.689v.556ZM56.461,48.289H69.224v3.8L62.864,53.5l-3,7.6,3.347,5.457-6.467,6.306L51.264,69.5l-7.4,3.2-1.59,6.166H33.386L31.8,72.7l-7.393-3.2-5.65,3.356-6.3-6.3L15.8,61.1l-3-7.6L6.441,52.085v-9.05l6.359-1.59,3-7.41-3.347-5.465,6.3-6.3,5.654,3.357,7.393-3.2,1.59-6.166h3.635V28.848a18.43,18.43,0,0,0-12.41,5.439A18.672,18.672,0,1,0,51.024,60.693a18.429,18.429,0,0,0,5.438-12.4Zm-18-32.745v31.3h32.2v6.391l-6.741,1.5-2.458,6.226,3.569,5.822-8.09,7.887-5.8-3.555L45.081,73.74l-1.689,6.569H32.274L30.584,73.74l-6.07-2.625-5.99,3.556L10.632,66.78,14.2,60.962l-2.458-6.226L5,53.237V41.911l6.741-1.683L14.2,34.172l-3.564-5.817,7.892-7.892,5.99,3.556,6.07-2.624,1.689-6.57h6.192Z" transform="translate(560 1121)" fill="#1c54f8" stroke="#1c54f7" stroke-width="1.6" fill-rule="evenodd"></path></g></g></svg> 