<?xml version="1.0" encoding="UTF-8"?> <svg xmlns="http://www.w3.org/2000/svg" xmlns:xlink="http://www.w3.org/1999/xlink" width="90" height="90" viewBox="0 0 90 90"><defs><clipPath id="clip-path"><rect id="Rectangle_10" data-name="Rectangle 10" width="90" height="90" transform="translate(129 159)" fill="#fff" stroke="#707070" stroke-width="1"></rect></clipPath></defs><g id="Mask_Group_1" data-name="Mask Group 1" transform="translate(-129 -159)" clip-path="url(#clip-path)"><g id="Group_8" data-name="Group 8" transform="translate(-234.335 -525)"><path id="Path_7" data-name="Path 7" d="M296.41,318.446h.072c-.025-.021-.048-.044-.072-.064Z" transform="translate(102.888 417.032)" fill="#1b54f8"></path><path id="Path_8" data-name="Path 8" d="M110.013,168.364a4.528,4.528,0,1,0,6.2,0,1.356,1.356,0,0,1,.932-2.342h10.472V163.2a26.6,26.6,0,0,1-4.768-26.582H98.366v29.4h10.716C109.638,166.024,110.417,167.983,110.013,168.364Z" transform="translate(268.969 569.455)" fill="none" stroke="#1b54f8" stroke-width="2"></path><path id="Path_9" data-name="Path 9" d="M133.256,354.842a4.53,4.53,0,1,0,0-9.061,4.471,4.471,0,0,0-3.289,1.429,1.357,1.357,0,0,1-2.345-.929V335.574h-7.878a7.242,7.242,0,1,1-13.254,0H98.371v29.25h29.251V354.345a1.356,1.356,0,0,1,2.344-.929,4.464,4.464,0,0,0,3.28,1.426s0,0,.01,0Z" transform="translate(268.965 402.614)" fill="none" stroke="#1b54f8" stroke-width="2"></path><path id="Path_10" data-name="Path 10" d="M322.477,338.045a26.335,26.335,0,0,1-8.439,1.4h0a26.924,26.924,0,0,1-5.5-.572,26.625,26.625,0,0,1-8.348-3.294H296.4V343.7a7.24,7.24,0,1,1,2.927,13.862h-.018a7.191,7.191,0,0,1-2.909-.62v7.89h29.4V346.9l-2.911-6.112a4.7,4.7,0,0,1-.411-2.742Z" transform="translate(102.897 402.61)" fill="none" stroke="#1b54f8" stroke-width="2"></path><path id="Path_11" data-name="Path 11" d="M310.522,109.182,297.844,90.247a2.4,2.4,0,0,0-3.116-.744l-.738.425L292.71,87.7a24.1,24.1,0,1,0-13.444,4.113h0A24.055,24.055,0,0,0,290.53,88.99l1.265,2.2-.531.306a2.351,2.351,0,0,0-.942,3.053l9.795,20.567a2.2,2.2,0,0,0,1.983,1.246,2.222,2.222,0,0,0,1.1-.294l6.569-3.738a2.206,2.206,0,0,0,.751-3.149Zm-31.256-19.9A21.776,21.776,0,1,1,300.553,71.97a21.9,21.9,0,0,1-21.287,17.313ZM302.245,113.7l-9.572-20.1,3.155-1.816,12.394,18.51Z" transform="translate(137.665 647.8)" fill="#1b54f8"></path><path id="Path_12" data-name="Path 12" d="M367.471,121.483a7.6,7.6,0,0,0-2.558-1.341,10.438,10.438,0,0,0-3.095-.448,9.326,9.326,0,0,0-6.156,1.987,8.253,8.253,0,0,0-2.791,5.779l5.511.358a3.6,3.6,0,0,1,.983-2.254,3.348,3.348,0,0,1,2.558-.93,2.655,2.655,0,0,1,1.845.661,2.361,2.361,0,0,1,.733,1.843,2.183,2.183,0,0,1-.34,1.163,6.874,6.874,0,0,1-.948,1.181q-.606.626-1.449,1.341t-1.843,1.682a3.772,3.772,0,0,0-.965,1.4,5.156,5.156,0,0,0-.286,1.826V137.3h5.367v-1.036a2.818,2.818,0,0,1,.287-1.217,3.687,3.687,0,0,1,1.109-1.253,23.089,23.089,0,0,0,2.129-1.843,9.566,9.566,0,0,0,1.359-1.664,5.827,5.827,0,0,0,.735-1.664,7.569,7.569,0,0,0,.215-1.878,6.869,6.869,0,0,0-.644-3.042,6.455,6.455,0,0,0-1.756-2.219Z" transform="translate(55.539 583.652)" fill="#1b54f8" stroke="#fff" stroke-width="1"></path><path id="Path_13" data-name="Path 13" d="M390.671,242.15a3.165,3.165,0,0,0-1.055-.7,3.442,3.442,0,0,0-2.577,0,3.152,3.152,0,0,0-1.752,1.752,3.441,3.441,0,0,0,0,2.577,3.166,3.166,0,0,0,.7,1.055,3.207,3.207,0,0,0,1.055.7,3.451,3.451,0,0,0,2.577,0,3.159,3.159,0,0,0,1.752-1.753,3.442,3.442,0,0,0,0-2.577A3.186,3.186,0,0,0,390.671,242.15Z" transform="translate(28.566 481.754)" fill="#1b54f8" stroke="#fff" stroke-width="1"></path></g></g></svg> 