<?xml version="1.0" encoding="UTF-8"?> <svg xmlns="http://www.w3.org/2000/svg" id="Layer_1" data-name="Layer 1" viewBox="0 0 80 80"><defs><style>.cls-1{fill:#1b54f8;}</style></defs><path class="cls-1" d="M58.6,19.6H21.4a1.9,1.9,0,0,0-1.9,1.9V58.6a1.9,1.9,0,0,0,1.9,1.9H58.5a1.9,1.9,0,0,0,1.9-1.9V21.4A1.79,1.79,0,0,0,58.6,19.6ZM51.1,49.3a1.9,1.9,0,0,1-1.9,1.9H30.7a1.9,1.9,0,0,1-1.9-1.9V30.7a1.9,1.9,0,0,1,1.9-1.9H49.3a1.9,1.9,0,0,1,1.9,1.9V49.3Z"></path><path class="cls-1" d="M56.7,23.3a1.9,1.9,0,0,1-1.9-1.9V15.8a1.9,1.9,0,1,1,3.8,0v5.6A1.9,1.9,0,0,1,56.7,23.3Z"></path><path class="cls-1" d="M51.1,23.3a1.9,1.9,0,0,1-1.9-1.9V15.8a1.9,1.9,0,1,1,3.8,0v5.6A1.84,1.84,0,0,1,51.1,23.3Z"></path><path class="cls-1" d="M45.6,23.3a1.9,1.9,0,0,1-1.9-1.9V15.8a1.9,1.9,0,1,1,3.8,0v5.6A2,2,0,0,1,45.6,23.3Z"></path><path class="cls-1" d="M40,23.3a1.9,1.9,0,0,1-1.9-1.9V15.8a1.9,1.9,0,0,1,3.8,0v5.6A1.9,1.9,0,0,1,40,23.3Z"></path><path class="cls-1" d="M34.4,23.3a1.9,1.9,0,0,1-1.9-1.9V15.8a1.9,1.9,0,1,1,3.8,0v5.6A1.84,1.84,0,0,1,34.4,23.3Z"></path><path class="cls-1" d="M28.9,23.3A1.9,1.9,0,0,1,27,21.4V15.8a1.9,1.9,0,0,1,1.9-1.9,1.84,1.84,0,0,1,1.9,1.9v5.6A2,2,0,0,1,28.9,23.3Z"></path><path class="cls-1" d="M23.3,23.3a1.9,1.9,0,0,1-1.9-1.9V15.8a1.9,1.9,0,1,1,3.8,0v5.6A2,2,0,0,1,23.3,23.3Z"></path><path class="cls-1" d="M64.1,58.6H58.5a1.9,1.9,0,0,1,0-3.8h5.6a1.9,1.9,0,0,1,0,3.8Z"></path><path class="cls-1" d="M64.1,53H58.5a1.9,1.9,0,1,1,0-3.8h5.6A1.9,1.9,0,0,1,66,51.1,1.84,1.84,0,0,1,64.1,53Z"></path><path class="cls-1" d="M64.1,47.4H58.5a1.9,1.9,0,0,1,0-3.8h5.6A1.9,1.9,0,0,1,66,45.5,1.84,1.84,0,0,1,64.1,47.4Z"></path><path class="cls-1" d="M64.1,41.9H58.5a1.9,1.9,0,0,1,0-3.8h5.6a1.9,1.9,0,1,1,0,3.8Z"></path><path class="cls-1" d="M64.1,36.3H58.5a1.9,1.9,0,1,1,0-3.8h5.6A1.9,1.9,0,0,1,66,34.4,1.84,1.84,0,0,1,64.1,36.3Z"></path><path class="cls-1" d="M64.1,30.7H58.5a1.9,1.9,0,0,1-1.9-1.9,1.84,1.84,0,0,1,1.9-1.9h5.6A1.9,1.9,0,0,1,66,28.8,1.84,1.84,0,0,1,64.1,30.7Z"></path><path class="cls-1" d="M64.1,25.1H58.5a1.9,1.9,0,1,1,0-3.8h5.6A1.9,1.9,0,0,1,66,23.2,1.84,1.84,0,0,1,64.1,25.1Z"></path><path class="cls-1" d="M23.3,66a1.9,1.9,0,0,1-1.9-1.9V58.5a1.9,1.9,0,1,1,3.8,0v5.6A2,2,0,0,1,23.3,66Z"></path><path class="cls-1" d="M28.9,66A1.9,1.9,0,0,1,27,64.1V58.5a1.9,1.9,0,0,1,1.9-1.9,1.84,1.84,0,0,1,1.9,1.9v5.6A2,2,0,0,1,28.9,66Z"></path><path class="cls-1" d="M34.4,66a1.9,1.9,0,0,1-1.9-1.9V58.5a1.9,1.9,0,1,1,3.8,0v5.6A1.84,1.84,0,0,1,34.4,66Z"></path><path class="cls-1" d="M40,66a1.9,1.9,0,0,1-1.9-1.9V58.5a1.9,1.9,0,0,1,3.8,0v5.6A1.9,1.9,0,0,1,40,66Z"></path><path class="cls-1" d="M45.6,66a1.9,1.9,0,0,1-1.9-1.9V58.5a1.9,1.9,0,1,1,3.8,0v5.6A2,2,0,0,1,45.6,66Z"></path><path class="cls-1" d="M51.1,66a1.9,1.9,0,0,1-1.9-1.9V58.5a1.9,1.9,0,1,1,3.8,0v5.6A1.84,1.84,0,0,1,51.1,66Z"></path><path class="cls-1" d="M56.7,66a1.9,1.9,0,0,1-1.9-1.9V58.5a1.9,1.9,0,1,1,3.8,0v5.6A1.9,1.9,0,0,1,56.7,66Z"></path><path class="cls-1" d="M21.4,25.1H15.8a1.9,1.9,0,1,1,0-3.8h5.6a1.9,1.9,0,0,1,1.9,1.9A1.84,1.84,0,0,1,21.4,25.1Z"></path><path class="cls-1" d="M21.4,30.7H15.8a1.9,1.9,0,0,1-1.9-1.9,1.84,1.84,0,0,1,1.9-1.9h5.6a1.9,1.9,0,0,1,1.9,1.9A1.84,1.84,0,0,1,21.4,30.7Z"></path><path class="cls-1" d="M21.4,36.3H15.8a1.9,1.9,0,0,1,0-3.8h5.6a1.9,1.9,0,0,1,1.9,1.9A1.84,1.84,0,0,1,21.4,36.3Z"></path><path class="cls-1" d="M21.4,41.9H15.8a1.9,1.9,0,0,1,0-3.8h5.6a1.9,1.9,0,0,1,0,3.8Z"></path><path class="cls-1" d="M21.4,47.4H15.8a1.9,1.9,0,0,1,0-3.8h5.6a1.9,1.9,0,0,1,1.9,1.9A1.84,1.84,0,0,1,21.4,47.4Z"></path><path class="cls-1" d="M21.4,53H15.8a1.9,1.9,0,0,1,0-3.8h5.6a1.9,1.9,0,0,1,1.9,1.9A1.84,1.84,0,0,1,21.4,53Z"></path><path class="cls-1" d="M21.4,58.6H15.8a1.9,1.9,0,1,1,0-3.8h5.6a1.9,1.9,0,0,1,0,3.8Z"></path></svg> 