<?xml version="1.0" encoding="UTF-8"?> <svg xmlns="http://www.w3.org/2000/svg" width="90" height="90" viewBox="0 0 90 90"><g id="Group_2274" data-name="Group 2274" transform="translate(-353 -1170)"><g id="Group_2265" data-name="Group 2265" transform="translate(150 235)" opacity="0"><rect id="Rectangle_713" data-name="Rectangle 713" width="90" height="90" transform="translate(203 935)" fill="#fff"></rect></g><g id="Group_2273" data-name="Group 2273" transform="translate(-213.777 29.499)"><path id="Path_2760" data-name="Path 2760" d="M66.449,59.763l-.291-1.511H63.584l-.3,1.539a.922.922,0,0,1-.668.717,8.584,8.584,0,0,0-1.05.356,8.4,8.4,0,0,0-.991.487.921.921,0,0,1-.972-.035h0l-1.3-.875-1.818,1.82.875,1.3a.922.922,0,0,1,0,1.037,8.445,8.445,0,0,0-.807,1.977.924.924,0,0,1-.746.673l-1.51.294v2.571l1.539.3a.919.919,0,0,1,.717.667,8.734,8.734,0,0,0,.356,1.05,8.625,8.625,0,0,0,.487.992.92.92,0,0,1-.035.972h0l-.875,1.3L58.3,77.219l1.3-.875a.922.922,0,0,1,1.037,0,8.487,8.487,0,0,0,1.977.807.922.922,0,0,1,.673.746l.294,1.511h2.574l.3-1.54a.921.921,0,0,1,.667-.717,8.75,8.75,0,0,0,1.05-.356,8.615,8.615,0,0,0,.991-.487.92.92,0,0,1,.972.035h0l1.3.875L73.258,75.4l-.875-1.3a.922.922,0,0,1,0-1.037,8.446,8.446,0,0,0,.807-1.977.921.921,0,0,1,.746-.673l1.51-.294V67.542l-1.539-.3a.92.92,0,0,1-.717-.667,8.475,8.475,0,0,0-.843-2.041.92.92,0,0,1,.034-.972h0l.875-1.3-1.816-1.816-1.3.875a.92.92,0,0,1-1.037,0,8.588,8.588,0,0,0-.928-.455,8.45,8.45,0,0,0-1.05-.356.92.92,0,0,1-.672-.745Zm-41.579-.5A3.615,3.615,0,0,1,27.9,64.85a25.032,25.032,0,0,0,17.412,7,.923.923,0,0,1,0,1.845,26.92,26.92,0,0,1-18.775-7.608,3.615,3.615,0,0,1-4.406-5.565,26.9,26.9,0,0,1-3.8-13.809,27.332,27.332,0,0,1,.195-3.256c.025-.2.051-.4.08-.6l-1.689,1.439a.921.921,0,1,1-1.2-1.4l3.693-3.15a.92.92,0,0,1,1.3.1.9.9,0,0,1,.129.2l2.105,4.375a.921.921,0,0,1-1.658.8L20.4,43.37c-.013.1-.026.2-.038.3a25.454,25.454,0,0,0,.81,10.062,25,25,0,0,0,2.481,5.74,3.6,3.6,0,0,1,1.225-.213Zm1.25,2.362a1.769,1.769,0,1,0,.518,1.251,1.769,1.769,0,0,0-.518-1.251ZM63.738,24.673a3.6,3.6,0,0,0-2.024.619,26.862,26.862,0,0,0-16.4-5.561q-.584,0-1.276.032-.628.031-1.273.087a.92.92,0,1,0,.165,1.832q.577-.055,1.187-.082.537-.026,1.2-.025a25.019,25.019,0,0,1,15.188,5.1,3.616,3.616,0,0,0,4.846,4.846,25.228,25.228,0,0,1,4.812,19.052q-.079.516-.18,1.025l-.688-1.819a.921.921,0,0,0-1.724.649l1.718,4.538a.951.951,0,0,0,.111.21.921.921,0,0,0,1.284.216l3.952-2.817a.92.92,0,1,0-1.068-1.5l-1.87,1.333q.165-.772.288-1.561a27.244,27.244,0,0,0,.316-4.137,26.866,26.866,0,0,0-5.561-16.4,3.615,3.615,0,0,0-3-5.638Zm1.251,2.362a1.769,1.769,0,1,1-1.251-.518,1.769,1.769,0,0,1,1.251.518Zm-9.33,16V41.688l3.524-2.075v5.494Zm3.524,4.209V54.9l-12.95,7.625V47.238l3.522-2.074v4.963h0a.919.919,0,0,0,1.384.793l3.994-2.348a.923.923,0,0,0,.525-.835V45.165Zm-14.8,8.708-12.95-7.626V54.9l12.95,7.625Zm-12.95-9.759,12.95,7.626V47.238l-12.95-7.626ZM41.727,32.472l12.98,7.643L58.294,38,45.311,30.361l-3.587,2.11ZM48.9,43.537l-12.98-7.643L32.328,38l12.98,7.643ZM37.728,34.827l12.98,7.644,2.187-1.288-12.98-7.643-2.187,1.287ZM51.6,44.078l2.213-1.3v4.437l-2.213,1.3Zm9.422-6.049V55.406a.919.919,0,0,1-.455.811l-14.777,8.7a.92.92,0,0,1-.945.009L30.059,56.217a.917.917,0,0,1-.454-.793v-17.4a.92.92,0,0,1,.465-.823l14.78-8.7a.921.921,0,0,1,.945.009l14.778,8.7a.919.919,0,0,1,.454.817ZM35.754,24.006a.919.919,0,0,1-.915,1.594l-1.449-.836a.92.92,0,0,1,.92-1.594l1.448.836Zm1.452-7.253a.923.923,0,1,1,0,1.845H35.534a.923.923,0,1,1,0-1.845Zm-2.37-7a.921.921,0,0,1,.922,1.593l-1.448.836a.921.921,0,0,1-.923-1.594ZM29.282,4.871a.921.921,0,1,1,1.593.922l-.836,1.449a.92.92,0,1,1-1.593-.923l.837-1.448ZM11.068,25.6a.919.919,0,1,1-.916-1.593L11.6,23.17a.919.919,0,0,1,.915,1.593l-1.448.836ZM8.7,18.6a.923.923,0,0,1,0-1.846h1.673a.923.923,0,0,1,0,1.846Zm1.448-7.253a.921.921,0,1,1,.923-1.593l1.448.836a.921.921,0,1,1-.923,1.593ZM15.03,5.794a.921.921,0,1,1,1.593-.923l.836,1.448a.921.921,0,1,1-1.593.923L15.03,5.794Zm7-2.37a.923.923,0,0,1,1.846,0V5.1a.923.923,0,1,1-1.846,0V3.423Zm2.062,13.221a.923.923,0,0,1,1.845,0,3,3,0,0,1-2.061,2.838V29.45h3.507A15.5,15.5,0,0,1,30.032,23.4c1.118-1.741,2.177-3.4,2.177-6.015a9.259,9.259,0,0,0-18.518,0c0,2.616,1.062,4.273,2.18,6.018a15.5,15.5,0,0,1,2.652,6.051H22.03V19.475a3,3,0,0,1-2.061-2.838.923.923,0,0,1,1.845,0,1.137,1.137,0,0,0,.216.665v-.409a.923.923,0,1,1,1.846,0V17.3a1.137,1.137,0,0,0,.216-.665ZM19.5,33.811v.666h6.9v-.666Zm8.742,0v1.163A1.35,1.35,0,0,1,26.9,36.323H19.008a1.35,1.35,0,0,1-1.349-1.349V33.811h-.6a1.27,1.27,0,0,1-.9-.374l-.005-.005a1.269,1.269,0,0,1-.372-.894V30.726a1.277,1.277,0,0,1,.87-1.207,14.285,14.285,0,0,0-2.335-5.125c-1.269-1.981-2.475-3.863-2.475-7.013a11.105,11.105,0,1,1,22.211,0c0,3.15-1.207,5.032-2.475,7.013a14.312,14.312,0,0,0-2.335,5.126,1.272,1.272,0,0,1,.493.307h0a1.263,1.263,0,0,1,.374.9v1.811a1.276,1.276,0,0,1-1.273,1.273Zm.025-2.512H17.635v.667H28.272Zm36.6,29.947a7.582,7.582,0,1,1-5.36,2.221,7.582,7.582,0,0,1,5.36-2.221Zm4.056,3.525a5.736,5.736,0,1,1-4.056-1.68A5.736,5.736,0,0,1,68.926,64.771ZM67.866,57.4l.291,1.5q.36.12.713.262c.234.1.466.2.694.318l1.27-.856a1.225,1.225,0,0,1,.773-.209,1.2,1.2,0,0,1,.764.35l2.561,2.562a1.193,1.193,0,0,1,.35.763,1.225,1.225,0,0,1-.208.773l-.857,1.27c.116.228.221.459.318.694s.186.473.263.713l1.5.292a1.225,1.225,0,0,1,.7.4,1.191,1.191,0,0,1,.295.783v3.622a1.191,1.191,0,0,1-.295.787,1.225,1.225,0,0,1-.7.4l-1.5.292c-.081.239-.169.477-.263.713s-.2.466-.318.694l.857,1.27a1.225,1.225,0,0,1,.208.774,1.193,1.193,0,0,1-.35.763l-2.562,2.558a1.2,1.2,0,0,1-.764.35,1.225,1.225,0,0,1-.773-.209l-1.27-.856c-.228.115-.459.221-.694.318s-.473.186-.713.262l-.291,1.5a1.234,1.234,0,0,1-.4.7,1.194,1.194,0,0,1-.787.295H63.053a1.191,1.191,0,0,1-.783-.295,1.225,1.225,0,0,1-.4-.7l-.291-1.5c-.24-.08-.478-.169-.714-.262s-.465-.2-.694-.318l-1.27.856a1.23,1.23,0,0,1-.773.209,1.2,1.2,0,0,1-.764-.35L54.8,76.33a1.192,1.192,0,0,1-.35-.763,1.225,1.225,0,0,1,.208-.774l.856-1.27c-.115-.227-.22-.459-.318-.694s-.187-.474-.262-.713l-1.5-.292a1.225,1.225,0,0,1-.7-.4,1.191,1.191,0,0,1-.295-.787V67.012a1.191,1.191,0,0,1,.295-.783,1.225,1.225,0,0,1,.7-.4l1.5-.292q.119-.359.262-.713c.1-.234.2-.466.318-.694l-.856-1.27a1.225,1.225,0,0,1-.208-.773,1.192,1.192,0,0,1,.35-.763l2.566-2.559a1.2,1.2,0,0,1,.764-.35,1.23,1.23,0,0,1,.773.209l1.27.856c.228-.115.459-.221.695-.318s.473-.186.713-.263l.291-1.5a1.225,1.225,0,0,1,.4-.7,1.191,1.191,0,0,1,.783-.295h3.626a1.194,1.194,0,0,1,.787.295,1.234,1.234,0,0,1,.395.7Z" transform="translate(569 1144)" fill="#1c54f8" fill-rule="evenodd"></path></g></g></svg> 