<?xml version="1.0" encoding="UTF-8"?> <svg xmlns="http://www.w3.org/2000/svg" xmlns:xlink="http://www.w3.org/1999/xlink" width="60" height="60" viewBox="0 0 60 60"><defs><clipPath id="clip-path"><rect id="Rectangle_13" data-name="Rectangle 13" width="60" height="60" transform="translate(518 239)" fill="#fff" stroke="#707070" stroke-width="1"></rect></clipPath></defs><g id="Mask_Group_6" data-name="Mask Group 6" transform="translate(-518 -239)" clip-path="url(#clip-path)"><g id="Group_7" data-name="Group 7" transform="translate(335.975 -1068.072)"><path id="Path_25" data-name="Path 25" d="M623.173,334.862a4.89,4.89,0,0,1-4.884-5.03.779.779,0,0,1,1.558.045,3.328,3.328,0,0,0,5.028,2.958.779.779,0,1,1,.8,1.34A4.89,4.89,0,0,1,623.173,334.862Z" transform="translate(-399.139 997.196)" fill="#1c54f8"></path><path id="Path_26" data-name="Path 26" d="M598.445,468.71a.779.779,0,0,1-.744-1.009,4.889,4.889,0,0,1,5.34-3.4.779.779,0,1,1-.214,1.543,3.334,3.334,0,0,0-3.638,2.315A.779.779,0,0,1,598.445,468.71Z" transform="translate(-379.803 870.439)" fill="#1c54f8"></path><path id="Path_27" data-name="Path 27" d="M594.722,602.395a4.89,4.89,0,0,1-4.877-5.207.781.781,0,0,1,1.558.1,3.328,3.328,0,0,0,4.916,3.138.779.779,0,0,1,.748,1.367A4.885,4.885,0,0,1,594.722,602.395Z" transform="translate(-372.46 746.475)" fill="#1c54f8"></path><path id="Path_28" data-name="Path 28" d="M543.218,156.366a4.869,4.869,0,0,0-1.438-3.462c.035-.039.07-.077.1-.117a5.534,5.534,0,0,0-2.247-8.78,4.886,4.886,0,0,0-4.687-6.169,5.534,5.534,0,0,0-10.974,1.013l-.017,35.275a4.884,4.884,0,0,0,9.757.318c.125.016.256.03.384.037.11.006.218.009.327.009a5.532,5.532,0,0,0,5.309-7.081,4.887,4.887,0,0,0,1.737-7.306A4.9,4.9,0,0,0,543.218,156.366Zm-2.879,2.652c-.128-.088-.26-.171-.4-.249a4.885,4.885,0,0,0-6.683,1.967.779.779,0,1,0,1.374.735,3.326,3.326,0,1,1,3.844,4.767.778.778,0,0,0-.348,1.289,3.976,3.976,0,0,1-3.94,5.4c-.119-.007-.239-.019-.356-.037a.781.781,0,0,0-.264.007,4.855,4.855,0,0,0-.678-1.5.779.779,0,1,0-1.291.872,3.326,3.326,0,1,1-6.085,1.859l.017-35.276a3.976,3.976,0,0,1,7.875-.773,4.893,4.893,0,0,0-3.37,4.643.779.779,0,0,0,1.558,0,3.326,3.326,0,1,1,6.318,1.456l-.006.012c-.007.016-.014.032-.021.049l-.01.028c0,.009-.009.028-.014.043s-.006.024-.009.037,0,.014-.005.021,0,.011,0,.017a.29.29,0,0,1-.006.041c0,.014,0,.025,0,.038v.11a.4.4,0,0,0,0,.046.064.064,0,0,0,0,.026c0,.009.006.032.009.049s0,.016.006.024.009.032.014.047l.009.026c.006.014.011.029.017.043a.313.313,0,0,0,.014.029c0,.009.012.025.019.037l.019.032.019.031L538,145l.021.026.027.031c.009.01.016.017.024.026l.028.026.03.026.027.021.037.026.026.016c.014.009.028.016.042.024l.012.006.014.006.051.022.032.011.042.012.042.011h.008a3.976,3.976,0,0,1-.135,7.822.779.779,0,1,0,.249,1.538,5.515,5.515,0,0,0,1.994-.741,3.325,3.325,0,0,1-.229,5.11Z" transform="translate(-310.69 1180.754)" fill="#1c54f8"></path><path id="Path_29" data-name="Path 29" d="M287.621,199.548h-3.094a4.527,4.527,0,0,1-3.061-1.076c-.561-.475-1.047-.9-1.395-1.205a2.728,2.728,0,1,0-1.135,1.079c.356.312.9.784,1.52,1.315a6.024,6.024,0,0,0,4.07,1.447h3.094a.779.779,0,0,0,0-1.558Zm-11.08-3.636a1.168,1.168,0,1,1,1.168,1.167A1.168,1.168,0,0,1,276.542,195.912Z" transform="translate(-77.222 1124.617)" fill="#1c54f8"></path><path id="Path_30" data-name="Path 30" d="M240.542,694.205h-6.225a4.528,4.528,0,0,1-3.061-1.076c-.561-.475-1.047-.9-1.395-1.205A2.728,2.728,0,1,0,228.727,693c.356.312.9.784,1.521,1.315a6,6,0,0,0,4.07,1.447h6.227a.779.779,0,1,0,0-1.558Zm-14.212-3.634a1.168,1.168,0,1,1,1.168,1.167A1.168,1.168,0,0,1,226.33,690.571Z" transform="translate(-30.143 660.788)" fill="#1c54f8"></path><path id="Path_31" data-name="Path 31" d="M186.355,493.19h-9.827a6.019,6.019,0,0,0-4.07,1.447c-.623.532-1.165,1-1.52,1.315a2.727,2.727,0,1,0,1.135,1.076c.347-.3.836-.73,1.395-1.205a4.527,4.527,0,0,1,3.061-1.076h9.827a.779.779,0,0,0,0-1.558Zm-16.646,6.362a1.168,1.168,0,1,1,1.167-1.168A1.168,1.168,0,0,1,169.709,499.552Z" transform="translate(24.045 843.308)" fill="#1c54f8"></path><path id="Path_32" data-name="Path 32" d="M405.154,197.9H401.1a.779.779,0,0,1,0-1.558h4.055a.779.779,0,0,1,0,1.558Z" transform="translate(-194.754 1121.659)" fill="#1c54f8"></path><path id="Path_33" data-name="Path 33" d="M215.661,364.933H203.572a2.726,2.726,0,1,0,0,1.558h12.089a.779.779,0,1,0,0-1.558Zm-14.7,1.947a1.168,1.168,0,1,1,1.163-1.26.758.758,0,0,0-.006.092.743.743,0,0,0,.006.092A1.168,1.168,0,0,1,200.961,366.88Z" transform="translate(-5.262 965.397)" fill="#1c54f8"></path><path id="Path_34" data-name="Path 34" d="M324.386,562.843h-4.865a2.725,2.725,0,1,0,0,1.558h4.865a.779.779,0,1,0,0-1.558Zm-7.478,1.946a1.167,1.167,0,1,1,1.163-1.259.685.685,0,0,0,0,.187,1.168,1.168,0,0,1-1.161,1.072Z" transform="translate(-113.986 779.82)" fill="#1c54f8"></path><path id="Path_35" data-name="Path 35" d="M364.683,692.638h-6.744a.779.779,0,1,1,0-1.558h6.744a.779.779,0,0,1,0,1.558Z" transform="translate(-154.284 657.749)" fill="#1c54f8"></path></g></g></svg> 