<?xml version="1.0" encoding="UTF-8"?> <svg xmlns="http://www.w3.org/2000/svg" id="Layer_1" data-name="Layer 1" viewBox="0 0 69.4 69.4"><defs><style>.cls-1{fill:#1b54f8;}</style></defs><path class="cls-1" d="M41.9,39.8,38.7,43a1.09,1.09,0,0,0,0,1.5l3.2,3.2,1.5-1.5L41,43.8l2.5-2.5Z" transform="translate(-12.3 -12.3)"></path><path class="cls-1" d="M41.9,48.3l-3.5-3.5a1.34,1.34,0,0,1,0-2l3.5-3.5,2,2-2.5,2.5,2.5,2.5Zm0-8-3,3a.67.67,0,0,0,0,1l3,3,1-1-2.5-2.5,2.5-2.5Z" transform="translate(-12.3 -12.3)"></path><path class="cls-1" d="M52.1,47.8l3.2-3.2a1.09,1.09,0,0,0,0-1.5l-3.2-3.2-1.5,1.5,2.5,2.5-2.5,2.5Z" transform="translate(-12.3 -12.3)"></path><path class="cls-1" d="M52.1,48.3l-2-2,2.5-2.5L50,41.3l2-2,3.5,3.5a1.34,1.34,0,0,1,0,2Zm-1-2.1,1,1,3-3a.67.67,0,0,0,0-1l-3-3-1,1,2.5,2.5Z" transform="translate(-12.3 -12.3)"></path><rect class="cls-1" x="43.57" y="42.72" width="6.8" height="2.1" transform="translate(-21.71 62.18) rotate(-71.55)"></rect><path class="cls-1" d="M47.2,47.8l-2.7-.9,2.4-7.2,2.7.9Zm-1.8-1.4,1.3.4,1.9-5.7-1.3-.4Z" transform="translate(-12.3 -12.3)"></path><path class="cls-1" d="M62,12.6H32a2.11,2.11,0,0,0-2.1,2.1V79.1A2.11,2.11,0,0,0,32,81.2H62a2.11,2.11,0,0,0,2.1-2.1V14.8A2.07,2.07,0,0,0,62,12.6Zm0,66.6H32V14.8H62.1V79.2Z" transform="translate(-12.3 -12.3)"></path><path class="cls-1" d="M62,81.7H32a2.48,2.48,0,0,1-2.5-2.5V14.8A2.48,2.48,0,0,1,32,12.3H62a2.48,2.48,0,0,1,2.5,2.5V79.2A2.42,2.42,0,0,1,62,81.7ZM32,13a1.79,1.79,0,0,0-1.8,1.8V79.2A1.79,1.79,0,0,0,32,81H62a1.79,1.79,0,0,0,1.8-1.8V14.8A1.79,1.79,0,0,0,62,13ZM62.4,79.6H31.6V14.4H62.4Zm-30.1-.8H61.6V15.2H32.3Z" transform="translate(-12.3 -12.3)"></path><path class="cls-1" d="M35.2,66.3h4.3V64.2H36.3V23.4h3.2V21.3H35.2a1.11,1.11,0,0,0-1.1,1.1V65.3A1.1,1.1,0,0,0,35.2,66.3Z" transform="translate(-12.3 -12.3)"></path><path class="cls-1" d="M39.9,66.7H35.2a1.43,1.43,0,0,1-1.4-1.4v-43a1.37,1.37,0,0,1,1.4-1.4h4.7v2.9H36.7v40h3.2ZM35.2,21.6a.68.68,0,0,0-.7.7V65.2a.68.68,0,0,0,.7.7h3.9V64.5H35.9V23h3.2V21.6Z" transform="translate(-12.3 -12.3)"></path><path class="cls-1" d="M57.7,64.2H54.5v2.1h4.3a1.11,1.11,0,0,0,1.1-1.1V22.3a1.11,1.11,0,0,0-1.1-1.1H54.5v2.1h3.2Z" transform="translate(-12.3 -12.3)"></path><path class="cls-1" d="M58.8,66.7H54.1V63.8h3.2v-40H54.1V20.9h4.7a1.37,1.37,0,0,1,1.4,1.4V65.2A1.34,1.34,0,0,1,58.8,66.7ZM54.9,66h3.9a.68.68,0,0,0,.7-.7v-43a.68.68,0,0,0-.7-.7H54.9V23h3.2V64.5H54.9Z" transform="translate(-12.3 -12.3)"></path><rect class="cls-1" x="29.3" y="8.9" width="10.7" height="2.1"></rect><path class="cls-1" d="M52.7,23.8H41.3V20.9H52.8v2.9ZM42,23H52V21.6H42Z" transform="translate(-12.3 -12.3)"></path><path class="cls-1" d="M47,68.5a4.3,4.3,0,1,0,4.3,4.3A4.27,4.27,0,0,0,47,68.5Zm0,6.4a2.1,2.1,0,1,1,0-4.2,2.18,2.18,0,0,1,2.1,2.1A2.05,2.05,0,0,1,47,74.9Z" transform="translate(-12.3 -12.3)"></path><path class="cls-1" d="M47,77.4a4.7,4.7,0,1,1,4.7-4.7A4.69,4.69,0,0,1,47,77.4Zm0-8.6a3.9,3.9,0,0,0-3.9,3.9A4,4,0,0,0,47,76.6a3.9,3.9,0,0,0,0-7.8Zm0,6.5a2.5,2.5,0,1,1,2.5-2.5A2.48,2.48,0,0,1,47,75.3ZM47,71a1.8,1.8,0,1,0,1.8,1.8A1.79,1.79,0,0,0,47,71Z" transform="translate(-12.3 -12.3)"></path><rect class="cls-1" x="30.4" y="4.6" width="8.6" height="2.1"></rect><path class="cls-1" d="M51.7,19.5H42.4V16.6h9.3Zm-8.6-.8h7.8V17.3H43.1Z" transform="translate(-12.3 -12.3)"></path><rect class="cls-1" x="29.3" y="51.9" width="10.7" height="2.1"></rect><path class="cls-1" d="M52.7,66.7H41.3V63.8H52.8v2.9ZM42,66H52V64.6H42Z" transform="translate(-12.3 -12.3)"></path><path class="cls-1" d="M12.6,20.2V73.9A1.11,1.11,0,0,0,13.7,75h14V72.9H14.8V29.8H27.7V27.7H14.8V21.3H27.7V19.2h-14A1,1,0,0,0,12.6,20.2Z" transform="translate(-12.3 -12.3)"></path><path class="cls-1" d="M28,75.3H13.7a1.37,1.37,0,0,1-1.4-1.4V20.2a1.37,1.37,0,0,1,1.4-1.4H28v2.9H15.2v5.7H28v2.9H15.2V72.5H28ZM13.7,19.5a.68.68,0,0,0-.7.7V73.9a.68.68,0,0,0,.7.7H27.3V73.2H14.4V29.4H27.3V28H14.4V20.8H27.3V19.4H13.7Z" transform="translate(-12.3 -12.3)"></path><rect class="cls-1" x="4.6" y="11.1" width="2.1" height="2.1"></rect><path class="cls-1" d="M19.5,25.9H16.6V23h2.9Zm-2.2-.7h1.4V23.8H17.3Z" transform="translate(-12.3 -12.3)"></path><rect class="cls-1" x="8.9" y="11.1" width="2.1" height="2.1"></rect><path class="cls-1" d="M23.8,25.9H20.9V23h2.9Zm-2.2-.7H23V23.8H21.6Z" transform="translate(-12.3 -12.3)"></path><rect class="cls-1" x="13.2" y="11.1" width="2.1" height="2.1"></rect><path class="cls-1" d="M28,25.9H25.1V23H28Zm-2.1-.7h1.4V23.8H25.9Z" transform="translate(-12.3 -12.3)"></path><path class="cls-1" d="M80.3,19.1h-14v2.1H79.2v6.4H66.3v2.1H79.2V72.6H66.3v2.1h14a1.11,1.11,0,0,0,1.1-1.1V20.1A1.1,1.1,0,0,0,80.3,19.1Z" transform="translate(-12.3 -12.3)"></path><path class="cls-1" d="M80.3,75.3H66V72.4H78.9V30.2H66V27.3H78.9V21.6H66V18.7H80.3a1.37,1.37,0,0,1,1.4,1.4V73.8A1.45,1.45,0,0,1,80.3,75.3Zm-13.6-.8H80.3a.68.68,0,0,0,.7-.7V20.2a.68.68,0,0,0-.7-.7H66.7v1.4H79.6V28H66.7v1.4H79.6V73.1H66.7Z" transform="translate(-12.3 -12.3)"></path><rect class="cls-1" x="58.3" y="11.1" width="6.4" height="2.1"></rect><path class="cls-1" d="M77.4,25.9H70.2V23h7.2ZM71,25.2h5.7V23.8H71Z" transform="translate(-12.3 -12.3)"></path></svg> 