<?xml version="1.0" encoding="UTF-8"?> <svg xmlns="http://www.w3.org/2000/svg" xmlns:xlink="http://www.w3.org/1999/xlink" id="eqmwEbsgQkP1" viewBox="0 0 80 80" shape-rendering="geometricPrecision" text-rendering="geometricPrecision"><style><![CDATA[#eqmwEbsgQkP1{pointer-events: all}#eqmwEbsgQkP1:hover #eqmwEbsgQkP5_ts {animation: eqmwEbsgQkP5_ts__ts 1000ms linear 1 normal forwards}@keyframes eqmwEbsgQkP5_ts__ts { 0% {transform: translate(40.890311px,39.7125px) scale(1,1)} 50% {transform: translate(40.890311px,39.7125px) scale(0,0)} 80% {transform: translate(40.890311px,39.7125px) scale(0.5,0.5)} 100% {transform: translate(40.890311px,39.7125px) scale(1,1)}} #eqmwEbsgQkP1:hover #eqmwEbsgQkP13_tr {animation: eqmwEbsgQkP13_tr__tr 1000ms linear 1 normal forwards}@keyframes eqmwEbsgQkP13_tr__tr { 0% {transform: translate(40px,40.9px) rotate(0deg)} 50% {transform: translate(40px,40.9px) rotate(-136.566736deg)} 100% {transform: translate(40px,40.9px) rotate(-180.015498deg)}}]]></style><g id="eqmwEbsgQkP2"><g id="eqmwEbsgQkP3"><path id="eqmwEbsgQkP4" d="M76.3,2.5C77,2.5,77.5,3.1,77.5,3.7L77.5,76.2C77.5,76.9,76.9,77.4,76.3,77.4L3.7,77.4C3,77.4,2.5,76.8,2.5,76.2L2.5,3.7C2.5,3,3.1,2.5,3.7,2.5L76.3,2.5M76.3,0.5L3.7,0.5C2,0.5,0.5,2,0.5,3.7L0.5,76.2C0.5,78,2,79.4,3.7,79.4L76.2,79.4C78,79.4,79.4,77.9,79.4,76.2L79.4,3.7C79.5,2,78,0.5,76.3,0.5L76.3,0.5Z" fill="rgb(27,84,248)" stroke="none" stroke-width="1"></path></g><g id="eqmwEbsgQkP5_ts" transform="translate(40.890311,39.7125) scale(1,1)"><g id="eqmwEbsgQkP5" transform="translate(-40.89031,-39.712499)"><path id="eqmwEbsgQkP6" d="M63.9,51.7L63.9,27.7C63.9,27.3,63.6,26.9,63.2,26.8L41.2,18.8C41,18.7,40.7,18.7,40.5,18.8L18.5,26.8C18.1,26.9,17.8,27.3,17.9,27.7L17.9,51.7C17.9,52.1,18.2,52.5,18.5,52.6L40.5,60.6C40.6,60.6,40.7,60.7,40.8,60.7C40.9,60.7,41,60.7,41.1,60.6L63.1,52.6C63.7,52.5,63.9,52.1,63.9,51.7Z" fill="none" stroke="rgb(27,84,248)" stroke-width="2" stroke-miterlimit="10"></path><polyline id="eqmwEbsgQkP7" points="63.8,27.2 40.5,33.5 17.9,27.7" fill="none" stroke="rgb(27,84,248)" stroke-width="2" stroke-miterlimit="10"></polyline><line id="eqmwEbsgQkP8" x1="40.5" y1="33.5" x2="40.5" y2="39.2" fill="none" stroke="rgb(27,84,248)" stroke-width="2" stroke-miterlimit="10"></line><line id="eqmwEbsgQkP9" x1="40.5" y1="40.5" x2="40.5" y2="46.2" fill="none" stroke="rgb(27,84,248)" stroke-width="2" stroke-miterlimit="10"></line><line id="eqmwEbsgQkP10" x1="40.5" y1="47.5" x2="40.5" y2="53.2" fill="none" stroke="rgb(27,84,248)" stroke-width="2" stroke-miterlimit="10"></line><line id="eqmwEbsgQkP11" x1="40.5" y1="54.5" x2="40.5" y2="60.2" fill="none" stroke="rgb(27,84,248)" stroke-width="2" stroke-miterlimit="10"></line></g></g><circle id="eqmwEbsgQkP12" r="33" transform="matrix(1 0 0 1 40 40)" fill="none" stroke="rgb(27,84,248)" stroke-width="2" stroke-miterlimit="10"></circle><g id="eqmwEbsgQkP13_tr" transform="translate(40,40.9) rotate(0)"><g id="eqmwEbsgQkP13" transform="translate(-40,-40.899999)"><g id="eqmwEbsgQkP14"><circle id="eqmwEbsgQkP15" r="4.5" transform="matrix(1 0 0 1 18 16.8)" fill="rgb(255,255,255)" stroke="rgb(27,84,248)" stroke-width="1" stroke-miterlimit="10"></circle><circle id="eqmwEbsgQkP16" r="2" transform="matrix(1 0 0 1 18 16.8)" fill="rgb(27,84,248)" stroke="none" stroke-width="1"></circle></g><g id="eqmwEbsgQkP17"><circle id="eqmwEbsgQkP18" r="4.5" transform="matrix(1 0 0 1 62 65)" fill="rgb(255,255,255)" stroke="rgb(27,84,248)" stroke-width="1" stroke-miterlimit="10"></circle><circle id="eqmwEbsgQkP19" r="2" transform="matrix(1 0 0 1 62 65)" fill="rgb(27,84,248)" stroke="none" stroke-width="1"></circle></g></g></g></g></svg> 