<?xml version="1.0" encoding="UTF-8"?> <svg xmlns="http://www.w3.org/2000/svg" xmlns:xlink="http://www.w3.org/1999/xlink" width="60" height="60" viewBox="0 0 60 60"><defs><clipPath id="clip-path"><rect id="Rectangle_10" data-name="Rectangle 10" width="60" height="60" transform="translate(1061 286)" fill="#fff" stroke="#707070" stroke-width="1"></rect></clipPath></defs><g id="Mask_Group_61" data-name="Mask Group 61" transform="translate(-1061 -286)" clip-path="url(#clip-path)"><path id="Path_202" data-name="Path 202" d="M4.265,0A3.518,3.518,0,0,0,.754,3.511V36.552a3.518,3.518,0,0,0,3.511,3.511H18.058a.711.711,0,1,0,0-1.423H4.265a2.067,2.067,0,0,1-2.088-2.088V3.511A2.069,2.069,0,0,1,4.265,1.423H30.649a2.067,2.067,0,0,1,2.088,2.088V22.887a.711.711,0,1,0,1.423,0V3.511A3.518,3.518,0,0,0,30.65,0ZM6.425,5.129a.71.71,0,0,0-.713.713v5.983a.709.709,0,0,0,.713.708h5.983a.712.712,0,0,0,.708-.708V5.842a.711.711,0,0,0-.708-.713Zm9.259,1.156a.711.711,0,0,0,0,1.423H28.492a.711.711,0,0,0,.5-1.213.7.7,0,0,0-.5-.21Zm-8.549.267h4.558V11.11H7.135Zm8.549,3.4a.711.711,0,0,0,0,1.423h7.6a.711.711,0,1,0,0-1.423ZM6.425,16.33a.71.71,0,0,0-.713.71v5.981a.706.706,0,0,0,.208.507.716.716,0,0,0,.505.208h5.983a.712.712,0,0,0,.708-.715V17.039a.712.712,0,0,0-.708-.71Zm9.259,1.154v0a.711.711,0,0,0,0,1.423H28.492a.7.7,0,0,0,.5-.21.711.711,0,0,0-.5-1.213Zm-8.549.269h4.558v4.558H7.135Zm8.549,3.4v0a.711.711,0,0,0,0,1.423h7.6A.71.71,0,0,0,24,21.866a.714.714,0,0,0-.21-.5.7.7,0,0,0-.5-.206Zm10.98,2.4v0a.71.71,0,0,0-.708.715v.747H22.872A2.688,2.688,0,0,0,20.194,27.7v15.15a2.688,2.688,0,0,0,2.678,2.678h20.04A2.691,2.691,0,0,0,45.6,42.852V27.7a2.693,2.693,0,0,0-2.684-2.678H39.834v-.747h0a.71.71,0,0,0-.715-.715.71.71,0,0,0-.708.715v.747l-11.039,0v-.745a.725.725,0,0,0-.206-.505.714.714,0,0,0-.5-.21Zm-3.792,2.883h3.084v.749a.71.71,0,0,0,.708.713.71.71,0,0,0,.71-.713v-.747H38.412v.747a.712.712,0,0,0,1.215.505.716.716,0,0,0,.208-.505v-.747h3.078A1.242,1.242,0,0,1,44.175,27.7l0,1.622H21.611V27.7a1.242,1.242,0,0,1,1.261-1.256ZM6.425,27.531v0a.709.709,0,0,0-.713.708v5.983a.71.71,0,0,0,.713.713h5.983a.711.711,0,0,0,.708-.713V28.24a.712.712,0,0,0-.708-.708Zm.708,1.423h4.558v4.558H7.133Zm14.478,1.791H44.173v12.1A1.241,1.241,0,0,1,42.912,44.1l-20.04,0a1.241,1.241,0,0,1-1.261-1.254Zm3.409,1.6,0,0a.712.712,0,0,0-.715.71v3.11a.711.711,0,0,0,.715.708h3.13a.71.71,0,0,0,.713-.708v-3.11a.71.71,0,0,0-.713-.71Zm6.3,0,0,0a.712.712,0,0,0-.715.71v3.11a.711.711,0,0,0,.715.708h3.13a.71.71,0,0,0,.713-.708v-3.11a.71.71,0,0,0-.713-.71Zm6.317,0v0a.711.711,0,0,0-.713.71v3.11a.711.711,0,0,0,.713.708h3.132a.711.711,0,0,0,.713-.708v-3.11a.711.711,0,0,0-.713-.71Zm-11.9,1.419h1.7v1.691l-1.7,0Zm6.3,0h1.7v1.691l-1.7,0Zm6.317,0h1.7v1.691h-1.7ZM25.022,37.975v0a.713.713,0,0,0-.505.208.7.7,0,0,0-.21.5V41.8a.713.713,0,0,0,.715.711h3.13a.716.716,0,0,0,.505-.208.7.7,0,0,0,.208-.5V38.687a.7.7,0,0,0-.208-.5.716.716,0,0,0-.505-.208Zm6.3,0v0a.713.713,0,0,0-.505.208.7.7,0,0,0-.21.5V41.8a.713.713,0,0,0,.715.711h3.13a.716.716,0,0,0,.505-.208.7.7,0,0,0,.208-.5V38.687a.7.7,0,0,0-.208-.5.716.716,0,0,0-.505-.208Zm6.317,0,0,0a.719.719,0,0,0-.505.208.708.708,0,0,0-.208.5V41.8a.712.712,0,0,0,.208.5.719.719,0,0,0,.505.208h3.132a.719.719,0,0,0,.505-.208.712.712,0,0,0,.208-.5V38.687a.708.708,0,0,0-.208-.5.719.719,0,0,0-.505-.208Zm-11.9,1.419h1.7v1.693h-1.7Zm6.3,0h1.7v1.693h-1.7Zm6.317,0h1.7v1.693h-1.7Z" transform="translate(1068.246 293)" fill="#1c54f8" stroke="#fff" stroke-width="0.4" fill-rule="evenodd"></path></g></svg> 