<?xml version="1.0" encoding="UTF-8"?> <svg xmlns="http://www.w3.org/2000/svg" xmlns:xlink="http://www.w3.org/1999/xlink" width="90" height="90" viewBox="0 0 90 90"><defs><clipPath id="clip-path"><rect id="Rectangle_2" data-name="Rectangle 2" width="90" height="90" transform="translate(156.018 51.519)" fill="none"></rect></clipPath></defs><g id="Group_4" data-name="Group 4" transform="translate(-156.018 -51.519)"><g id="Group_3" data-name="Group 3" clip-path="url(#clip-path)"><path id="Path_3" data-name="Path 3" d="M166.564,51.518v3.516h68.907V51.518h10.547V62.065H242.5v68.907h3.516v10.547H235.471V138H166.564v3.516H156.018V130.972h3.517V62.065h-3.517V51.518ZM242.5,134.487h-3.516V138H242.5Zm-79.453,0h-3.516V138h3.516ZM235.471,58.55H166.564v3.515h-3.513v68.907h3.513v3.515h68.907v-3.515h3.515V62.065h-3.515Zm-28.109,63.281a3.517,3.517,0,0,1-3.518,3.516h-5.8a3.517,3.517,0,0,1-3.518-3.516Zm0-3.516h-12.84V114.8h12.84Zm-6.42-50.449A18.514,18.514,0,0,1,219.5,86.336c0,10.724-9.323,11.947-9.608,19.094a5.882,5.882,0,0,1-5.884,5.88h-6.13a5.883,5.883,0,0,1-5.884-5.783v-.1c-.162-7.147-9.607-8.378-9.607-19.094a18.512,18.512,0,0,1,18.25-18.467Zm.316,3.518-.744.006a15,15,0,0,0-14.544,14.7l0,.244a10.376,10.376,0,0,0,1.109,4.93,15.487,15.487,0,0,0,2.65,3.516l1.674,1.765a18.22,18.22,0,0,1,2.741,3.6,11.005,11.005,0,0,1,1.429,5.072l.007.309a2.366,2.366,0,0,0,2.311,2.269h6.186a2.367,2.367,0,0,0,2.368-2.31l0-.194a11.2,11.2,0,0,1,1.487-5.162,17.928,17.928,0,0,1,2.518-3.339l1.925-2.045.183-.2a14.622,14.622,0,0,0,2.38-3.234,10.5,10.5,0,0,0,1.112-4.974,15,15,0,0,0-14.793-14.952M201.03,74.9a1.878,1.878,0,0,1,1.669,1.015l.04.084a1.844,1.844,0,0,1,.165.7l0,1.79a8.5,8.5,0,0,1,4.294,2.43l.074.079,1.5-.86a1.854,1.854,0,0,1,.691-.235l.064-.007.041,0a1.88,1.88,0,0,1,1.766.929,1.865,1.865,0,0,1-.627,2.516l-1.552.893a8.477,8.477,0,0,1,.04,4.893l-.04.133,1.492.858a1.862,1.862,0,0,1,.687,2.551,1.878,1.878,0,0,1-1.753.93l-.1-.01a1.882,1.882,0,0,1-.643-.2l-1.557-.894a8.491,8.491,0,0,1-4.26,2.484l-.108.025v1.722a1.877,1.877,0,0,1-3.565.813l-.043-.093a1.878,1.878,0,0,1-.143-.651V94.992a8.49,8.49,0,0,1-4.285-2.432l-.074-.079-1.505.865a1.869,1.869,0,0,1-1.934-3.2l1.562-.9a8.478,8.478,0,0,1-.04-4.88l.04-.132-1.5-.865a1.869,1.869,0,0,1,1.811-3.27l1.57.9a8.5,8.5,0,0,1,4.25-2.486l.109-.025V76.765a1.869,1.869,0,0,1,.139-.708l.043-.1A1.876,1.876,0,0,1,201.03,74.9m.041,6.773a5.01,5.01,0,1,0,5.013,5.01,5.012,5.012,0,0,0-5.013-5.01m0,3.164a1.846,1.846,0,1,1-1.847,1.846,1.846,1.846,0,0,1,1.847-1.846m41.431-29.8h-3.516V58.55H242.5Zm-79.453,0h-3.516V58.55h3.516Z" fill="#1a53f6"></path><path id="Path_4" data-name="Path 4" d="M166.564,51.518v3.516h68.907V51.518h10.547V62.065H242.5v68.907h3.516v10.547H235.471V138H166.564v3.516H156.018V130.972h3.517V62.065h-3.517V51.518ZM242.5,134.487h-3.516V138H242.5Zm-79.453,0h-3.516V138h3.516ZM235.471,58.55H166.564v3.515h-3.513v68.907h3.513v3.515h68.907v-3.515h3.515V62.065h-3.515Zm-28.109,63.281a3.517,3.517,0,0,1-3.518,3.516h-5.8a3.517,3.517,0,0,1-3.518-3.516Zm0-3.516h-12.84V114.8h12.84Zm-6.42-50.449A18.514,18.514,0,0,1,219.5,86.336c0,10.724-9.323,11.947-9.608,19.094a5.882,5.882,0,0,1-5.884,5.88h-6.13a5.883,5.883,0,0,1-5.884-5.783v-.1c-.162-7.147-9.607-8.378-9.607-19.094a18.512,18.512,0,0,1,18.25-18.467Zm.316,3.518-.744.006a15,15,0,0,0-14.544,14.7l0,.244a10.376,10.376,0,0,0,1.109,4.93,15.487,15.487,0,0,0,2.65,3.516l1.674,1.765a18.22,18.22,0,0,1,2.741,3.6,11.005,11.005,0,0,1,1.429,5.072l.007.309a2.366,2.366,0,0,0,2.311,2.269h6.186a2.367,2.367,0,0,0,2.368-2.31l0-.194a11.2,11.2,0,0,1,1.487-5.162,17.928,17.928,0,0,1,2.518-3.339l1.925-2.045.183-.2a14.622,14.622,0,0,0,2.38-3.234,10.5,10.5,0,0,0,1.112-4.974A15,15,0,0,0,201.258,71.384ZM201.03,74.9a1.878,1.878,0,0,1,1.669,1.015l.04.084a1.844,1.844,0,0,1,.165.7l0,1.79a8.5,8.5,0,0,1,4.294,2.43l.074.079,1.5-.86a1.854,1.854,0,0,1,.691-.235l.064-.007.041,0a1.88,1.88,0,0,1,1.766.929,1.865,1.865,0,0,1-.627,2.516l-1.552.893a8.477,8.477,0,0,1,.04,4.893l-.04.133,1.492.858a1.862,1.862,0,0,1,.687,2.551,1.878,1.878,0,0,1-1.753.93l-.1-.01a1.882,1.882,0,0,1-.643-.2l-1.557-.894a8.491,8.491,0,0,1-4.26,2.484l-.108.025v1.722a1.877,1.877,0,0,1-3.565.813l-.043-.093a1.878,1.878,0,0,1-.143-.651V94.992a8.49,8.49,0,0,1-4.285-2.432l-.074-.079-1.505.865a1.869,1.869,0,0,1-1.934-3.2l1.562-.9a8.478,8.478,0,0,1-.04-4.88l.04-.132-1.5-.865a1.869,1.869,0,0,1,1.811-3.27l1.57.9a8.5,8.5,0,0,1,4.25-2.486l.109-.025V76.765a1.869,1.869,0,0,1,.139-.708l.043-.1A1.876,1.876,0,0,1,201.03,74.9Zm.041,6.773a5.01,5.01,0,1,0,5.013,5.01A5.012,5.012,0,0,0,201.071,81.67Zm0,3.164a1.846,1.846,0,1,1-1.847,1.846A1.846,1.846,0,0,1,201.071,84.834Zm41.431-29.8h-3.516V58.55H242.5Zm-79.453,0h-3.516V58.55h3.516Z" fill="none" stroke="#e6f0ff" stroke-width="0.375"></path></g></g></svg> 