<?xml version="1.0" encoding="UTF-8"?> <svg xmlns="http://www.w3.org/2000/svg" xmlns:xlink="http://www.w3.org/1999/xlink" width="90" height="90" viewBox="0 0 90 90"><defs><clipPath id="clip-path"><rect id="Rectangle_26" data-name="Rectangle 26" width="90" height="90" transform="translate(817 1474)" fill="#fff"></rect></clipPath></defs><g id="Mask_Group_14" data-name="Mask Group 14" transform="translate(-817 -1474)" clip-path="url(#clip-path)"><g id="Group_295" data-name="Group 295" transform="translate(108.985 306.751)"><path id="Path_213" data-name="Path 213" d="M136.279,177.326a28.966,28.966,0,1,0,20.461,8.484,28.944,28.944,0,0,0-20.461-8.484Zm0,51.34a22.413,22.413,0,1,1,15.827-6.565,22.392,22.392,0,0,1-15.827,6.565Z" transform="translate(603.682 1014.945)" fill="#1b54f8" stroke="#fff" stroke-width="3.6"></path><path id="Path_214" data-name="Path 214" d="M123.06,81.222h74.277a3.277,3.277,0,1,0,0-6.554H123.06a3.277,3.277,0,1,0,0,6.554Z" transform="translate(593.418 1099.581)" fill="#1b54f8" stroke="#fff" stroke-width="3.6"></path><path id="Path_215" data-name="Path 215" d="M443.558,199.11H421.711a3.277,3.277,0,0,0,0,6.554h21.847a3.277,3.277,0,0,0,0-6.554Z" transform="translate(347.195 996.984)" fill="#1b54f8" stroke="#fff" stroke-width="3.6"></path><path id="Path_216" data-name="Path 216" d="M453.822,448H434.161a3.277,3.277,0,0,0,0,6.554h19.662a3.277,3.277,0,1,0,0-6.554Z" transform="translate(336.931 791.787)" fill="#1b54f8" stroke="#fff" stroke-width="3.6"></path><path id="Path_217" data-name="Path 217" d="M484.6,323.55H471.493a3.277,3.277,0,0,0,0,6.554H484.6a3.277,3.277,0,1,0,0-6.554Z" transform="translate(306.152 894.39)" fill="#1b54f8" stroke="#fff" stroke-width="3.6"></path><path id="Path_218" data-name="Path 218" d="M231.4,256.522a1.379,1.379,0,0,0,.131-.24c.05-.122.093-.245.131-.372v-.24a3.378,3.378,0,0,0,0-.656V239.722a3.277,3.277,0,0,0-6.554,0v13.545l-5.09,3.386a3.277,3.277,0,0,0,1.944,6.008,3.214,3.214,0,0,0,1.813-.546l6.554-4.37h0a3.2,3.2,0,0,0,.5-.415l.219-.262.2-.24h0a1.329,1.329,0,0,0,.153-.306Z" transform="translate(511.99 966.203)" fill="#1b54f8" stroke="#fff" stroke-width="3.6"></path></g></g></svg> 