<?xml version="1.0" encoding="UTF-8"?> <svg xmlns="http://www.w3.org/2000/svg" xmlns:xlink="http://www.w3.org/1999/xlink" width="90" height="90" viewBox="0 0 90 90"><defs><clipPath id="clip-path"><rect id="Rectangle_13" data-name="Rectangle 13" width="90" height="90" transform="translate(85 642)" fill="#fff" stroke="#707070" stroke-width="1"></rect></clipPath></defs><g id="Mask_Group_24" data-name="Mask Group 24" transform="translate(-85 -642)" clip-path="url(#clip-path)"><g id="Group_59" data-name="Group 59" transform="translate(-76.864 -153)"><g id="Group_58" data-name="Group 58" transform="translate(175.864 801)"><g id="Group_57" data-name="Group 57"><g id="Group_50" data-name="Group 50" transform="translate(1.234)"><path id="Path_120" data-name="Path 120" d="M112.1,77.305h-7.9a1.215,1.215,0,0,1-1.215-1.215V72.773a25.3,25.3,0,0,1-8.554-3.536l-2.375,2.351a1.215,1.215,0,0,1-1.714,0L84.7,65.933a1.215,1.215,0,0,1,0-1.716l2.349-2.358a25.281,25.281,0,0,1-3.532-8.545h-3.3A1.215,1.215,0,0,1,79,52.1V44.2a1.215,1.215,0,0,1,1.215-1.215h3.3a25.281,25.281,0,0,1,3.537-8.547l-2.349-2.368a1.215,1.215,0,0,1,0-1.715l5.651-5.644a1.214,1.214,0,0,1,1.715,0l2.361,2.35a25.3,25.3,0,0,1,8.552-3.532V20.215A1.215,1.215,0,0,1,104.2,19h7.9a1.215,1.215,0,0,1,1.215,1.215v3.318a25.271,25.271,0,0,1,8.539,3.535l2.362-2.348a1.215,1.215,0,0,1,1.716,0l5.644,5.65a1.215,1.215,0,0,1,0,1.716l-2.349,2.358a25.28,25.28,0,0,1,3.532,8.545h3.331a1.215,1.215,0,0,1,1.215,1.215v7.9a1.215,1.215,0,0,1-1.215,1.215h-3.331a25.284,25.284,0,0,1-3.535,8.546l2.35,2.368a1.215,1.215,0,0,1,0,1.715l-5.648,5.644a1.215,1.215,0,0,1-1.717,0l-2.354-2.349a25.269,25.269,0,0,1-8.538,3.531v3.318A1.215,1.215,0,0,1,112.1,77.305Zm-6.681-2.429h5.466V71.766a1.215,1.215,0,0,1,1.014-1.2,22.777,22.777,0,0,0,9.4-3.886,1.215,1.215,0,0,1,1.563.13l2.206,2.2L129,65.082l-2.2-2.22a1.215,1.215,0,0,1-.127-1.56,22.792,22.792,0,0,0,3.888-9.4,1.215,1.215,0,0,1,1.2-1.014h3.123V45.42h-3.123a1.215,1.215,0,0,1-1.2-1.014,22.787,22.787,0,0,0-3.886-9.4,1.215,1.215,0,0,1,.129-1.562l2.2-2.21L125.069,27.3l-2.213,2.2a1.215,1.215,0,0,1-1.561.128,22.78,22.78,0,0,0-9.4-3.889,1.215,1.215,0,0,1-1.014-1.2V21.429H105.42v3.109a1.215,1.215,0,0,1-1.014,1.2A22.8,22.8,0,0,0,95,29.623a1.215,1.215,0,0,1-1.561-.129l-2.214-2.2-3.938,3.933,2.2,2.22A1.215,1.215,0,0,1,89.613,35a22.793,22.793,0,0,0-3.889,9.4,1.215,1.215,0,0,1-1.2,1.014h-3.1v5.466h3.1a1.215,1.215,0,0,1,1.2,1.014,22.79,22.79,0,0,0,3.886,9.4,1.214,1.214,0,0,1-.129,1.562l-2.2,2.21,3.933,3.937,2.227-2.2A1.215,1.215,0,0,1,95,66.68a22.805,22.805,0,0,0,9.409,3.889,1.215,1.215,0,0,1,1.014,1.2v3.109Z" transform="translate(-79 -19)" fill="#1c54f8" stroke="#fff" stroke-width="0.4"></path></g><g id="Group_51" data-name="Group 51" transform="translate(10.938 9.718)"><path id="Path_121" data-name="Path 121" d="M162.347,121.87a19.435,19.435,0,1,1,19.435-19.435A19.457,19.457,0,0,1,162.347,121.87Zm0-36.441a17.006,17.006,0,1,0,17.006,17.006A17.025,17.025,0,0,0,162.347,85.429Z" transform="translate(-142.912 -83)" fill="#1c54f8" stroke="#fff" stroke-width="0.4"></path></g><g id="Group_52" data-name="Group 52" transform="translate(20.669 30.367)"><path id="Path_122" data-name="Path 122" d="M225.22,235.095a1.215,1.215,0,0,1-1.215-1.215v-5.162a7.288,7.288,0,1,0-14.576,0v5.162a1.215,1.215,0,0,1-2.429,0v-5.162a9.718,9.718,0,0,1,19.435,0v5.162A1.215,1.215,0,0,1,225.22,235.095Z" transform="translate(-207 -219)" fill="#1c54f8" stroke="#fff" stroke-width="0.4"></path></g><g id="Group_53" data-name="Group 53" transform="translate(24.3 20.65)"><path id="Path_123" data-name="Path 123" d="M236.985,167.147a6.073,6.073,0,1,1,6.073-6.073A6.08,6.08,0,0,1,236.985,167.147Zm0-9.718a3.644,3.644,0,1,0,3.644,3.644A3.648,3.648,0,0,0,236.985,157.429Z" transform="translate(-230.912 -155)" fill="#1c54f8" stroke="#fff" stroke-width="0.4"></path></g><g id="Group_54" data-name="Group 54" transform="translate(22.016 60.634)"><path id="Path_124" data-name="Path 124" d="M229.625,435.5a1.215,1.215,0,0,1-.565-.14l-4.224-2.221-4.224,2.221a1.215,1.215,0,0,1-1.763-1.28l.807-4.7-3.418-3.331a1.215,1.215,0,0,1,.673-2.072l4.723-.686,2.112-4.28a1.215,1.215,0,0,1,2.179,0l2.112,4.28,4.723.686a1.215,1.215,0,0,1,.673,2.072l-3.418,3.331.807,4.7a1.215,1.215,0,0,1-1.2,1.42Zm-4.789-4.947a1.215,1.215,0,0,1,.565.14l2.611,1.373-.5-2.907a1.214,1.214,0,0,1,.349-1.075l2.112-2.059-2.919-.424a1.215,1.215,0,0,1-.914-.665l-1.306-2.645-1.305,2.645a1.215,1.215,0,0,1-.915.665l-2.919.424,2.112,2.059a1.215,1.215,0,0,1,.349,1.075l-.5,2.907,2.611-1.373A1.214,1.214,0,0,1,224.836,430.557Z" transform="translate(-215.871 -418.334)" fill="#1c54f8" stroke="#fff" stroke-width="0.4"></path></g><g id="Group_55" data-name="Group 55" transform="translate(0 55.775)"><path id="Path_125" data-name="Path 125" d="M82.56,401.076a1.215,1.215,0,0,1-.565-.14L78.56,399.13l-3.435,1.806a1.215,1.215,0,0,1-1.762-1.28l.656-3.825-2.779-2.709a1.215,1.215,0,0,1,.673-2.072l3.84-.558,1.717-3.48a1.215,1.215,0,0,1,2.179,0l1.717,3.48,3.84.558a1.215,1.215,0,0,1,.673,2.072L83.1,395.831l.656,3.825a1.215,1.215,0,0,1-1.2,1.42Zm-4-4.532a1.215,1.215,0,0,1,.565.14l1.822.958-.348-2.028a1.215,1.215,0,0,1,.349-1.075l1.474-1.437-2.037-.3a1.215,1.215,0,0,1-.915-.665l-.911-1.845-.911,1.845a1.215,1.215,0,0,1-.915.665l-2.037.3,1.474,1.437a1.215,1.215,0,0,1,.349,1.075l-.348,2.028,1.822-.958A1.215,1.215,0,0,1,78.56,396.543Z" transform="translate(-70.873 -386.335)" fill="#1c54f8" stroke="#fff" stroke-width="0.4"></path></g><g id="Group_56" data-name="Group 56" transform="translate(46.614 55.775)"><path id="Path_126" data-name="Path 126" d="M389.559,401.076a1.215,1.215,0,0,1-.565-.14l-3.435-1.806-3.435,1.806a1.215,1.215,0,0,1-1.763-1.28l.656-3.825-2.779-2.709a1.215,1.215,0,0,1,.673-2.072l3.84-.558,1.718-3.48a1.215,1.215,0,0,1,2.179,0l1.718,3.48,3.84.558a1.215,1.215,0,0,1,.673,2.072l-2.779,2.709.656,3.825a1.215,1.215,0,0,1-1.2,1.42Zm-4-4.532a1.215,1.215,0,0,1,.565.14l1.822.958-.348-2.028a1.215,1.215,0,0,1,.349-1.075l1.474-1.437-2.037-.3a1.215,1.215,0,0,1-.914-.665l-.911-1.846-.911,1.846a1.215,1.215,0,0,1-.915.665l-2.037.3,1.474,1.437a1.214,1.214,0,0,1,.349,1.075l-.348,2.028,1.822-.958A1.216,1.216,0,0,1,385.559,396.543Z" transform="translate(-377.872 -386.335)" fill="#1c54f8" stroke="#fff" stroke-width="0.4"></path></g></g></g></g></g></svg> 