<?xml version="1.0" encoding="UTF-8"?> <svg xmlns="http://www.w3.org/2000/svg" xmlns:xlink="http://www.w3.org/1999/xlink" width="90" height="90" viewBox="0 0 90 90"><defs><clipPath id="clip-path"><rect id="Rectangle_11" data-name="Rectangle 11" width="90" height="90" transform="translate(967 354)" fill="#fff" stroke="#707070" stroke-width="1"></rect></clipPath></defs><g id="Mask_Group_14" data-name="Mask Group 14" transform="translate(-967 -354)" clip-path="url(#clip-path)"><g id="Group_241" data-name="Group 241" transform="translate(349.056 -152.275)"><path id="Path_309" data-name="Path 309" d="M213.927,258.616a.938.938,0,0,1-.94-.921v-4.246a2.687,2.687,0,0,1,2.687-2.687h5.036c.132-.357.282-.714.432-1.052l-3.551-3.551a2.677,2.677,0,0,1,0-3.8l2.95-2.95a2.7,2.7,0,0,1,3.815,0l3.551,3.551a10.261,10.261,0,0,1,1.052-.432v-5.017a2.687,2.687,0,0,1,2.687-2.687h4.171a2.687,2.687,0,0,1,2.687,2.687v5.017c.357.132.714.282,1.052.432l3.551-3.551a2.7,2.7,0,0,1,3.815,0l2.95,2.95a2.677,2.677,0,0,1,0,3.8l-3.551,3.551a10.264,10.264,0,0,1,.432,1.052h5.017a2.687,2.687,0,0,1,2.687,2.687v4.246a.94.94,0,1,1-1.879-.076h0v-4.171a.8.8,0,0,0-.808-.808h-5.694a.947.947,0,0,1-.9-.658,10.5,10.5,0,0,0-.846-2.03.945.945,0,0,1,.169-1.109l4.022-4.022a.814.814,0,0,0,.244-.564.742.742,0,0,0-.244-.564l-2.95-2.95a.8.8,0,0,0-1.146,0l-4.022,4.022a.966.966,0,0,1-1.109.169,12.189,12.189,0,0,0-2.03-.846.93.93,0,0,1-.658-.9v-5.694a.8.8,0,0,0-.808-.808h-4.171a.8.8,0,0,0-.808.808v5.694a.947.947,0,0,1-.658.9,10.5,10.5,0,0,0-2.03.846.945.945,0,0,1-1.109-.169L223,240.744a.8.8,0,0,0-1.146,0l-2.95,2.95a.814.814,0,0,0-.244.564.742.742,0,0,0,.244.564l4.022,4.022a.937.937,0,0,1,.169,1.109,12.192,12.192,0,0,0-.846,2.03.93.93,0,0,1-.9.658h-5.694a.8.8,0,0,0-.808.808v4.209a.929.929,0,0,1-.92.958h0Z" transform="translate(428.739 309.117)" fill="#1b54f8"></path><path id="Path_310" data-name="Path 310" d="M313.048,331.2a.933.933,0,0,1-.3-.057.957.957,0,0,1-.6-1.184,6.183,6.183,0,0,0,.3-1.841,5.919,5.919,0,1,0-11.838,0,5.479,5.479,0,0,0,.3,1.841.933.933,0,0,1-.6,1.184.957.957,0,0,1-1.184-.6,7.617,7.617,0,0,1-.395-2.424,7.8,7.8,0,0,1,15.6,0,7.536,7.536,0,0,1-.395,2.424.944.944,0,0,1-.884.658Z" transform="translate(355.943 236.528)" fill="#1b54f8"></path><path id="Path_311" data-name="Path 311" d="M180.118,153.035a7.949,7.949,0,1,1,7.949-7.949A7.964,7.964,0,0,1,180.118,153.035Zm0-14.018a6.069,6.069,0,1,0,6.069,6.069A6.078,6.078,0,0,0,180.118,139.017Z" transform="translate(463.394 392.053)" fill="#1b54f8"></path><path id="Path_312" data-name="Path 312" d="M431.118,153.035a7.949,7.949,0,1,1,7.949-7.949A7.964,7.964,0,0,1,431.118,153.035Zm0-14.018a6.069,6.069,0,1,0,6.069,6.069A6.079,6.079,0,0,0,431.118,139.017Z" transform="translate(250.294 392.053)" fill="#1b54f8"></path><path id="Path_313" data-name="Path 313" d="M454.478,174.225a.881.881,0,0,1-.658-.282.93.93,0,0,1,0-1.334l4.886-4.867a.965.965,0,0,1,1.334,0,.93.93,0,0,1,0,1.334l-4.886,4.867A1.025,1.025,0,0,1,454.478,174.225Z" transform="translate(224.511 366.298)" fill="#1b54f8"></path><path id="Path_314" data-name="Path 314" d="M459.238,174.225a.881.881,0,0,1-.658-.282l-4.886-4.867a.93.93,0,0,1,0-1.334.965.965,0,0,1,1.334,0l4.886,4.867a.93.93,0,0,1,0,1.334.956.956,0,0,1-.677.282Z" transform="translate(224.617 366.298)" fill="#1b54f8"></path><path id="Path_315" data-name="Path 315" d="M154.878,422.956H78.888a3.529,3.529,0,0,1-3.533-3.533V416.83a.931.931,0,0,1,.94-.94h81.177a.931.931,0,0,1,.94.94v2.593a3.541,3.541,0,0,1-3.533,3.533Zm-77.643-5.186v1.653a1.656,1.656,0,0,0,1.653,1.653h75.99a1.656,1.656,0,0,0,1.653-1.653v-1.653Z" transform="translate(545.589 155.392)" fill="#1b54f8"></path><path id="Path_316" data-name="Path 316" d="M178.836,457.306h-65.6a3.529,3.529,0,0,1-3.533-3.533V451.18a.94.94,0,0,1,1.879,0v2.593a1.644,1.644,0,0,0,1.653,1.653h65.6a1.656,1.656,0,0,0,1.653-1.653V451.18a.94.94,0,0,1,1.879,0v2.593a3.529,3.529,0,0,1-3.533,3.533Z" transform="translate(516.426 126.229)" fill="#1b54f8"></path><path id="Path_317" data-name="Path 317" d="M166.143,119.731a.94.94,0,1,1,0-1.879,3.312,3.312,0,0,0,3.307-3.307V70.031a3.312,3.312,0,0,0-3.307-3.307H99.078a3.312,3.312,0,0,0-3.307,3.307v44.5a3.312,3.312,0,0,0,3.307,3.307.94.94,0,1,1,0,1.879,5.2,5.2,0,0,1-5.187-5.186v-44.5a5.2,5.2,0,0,1,5.187-5.186h67.046a5.2,5.2,0,0,1,5.186,5.186v44.5a5.174,5.174,0,0,1-5.168,5.2Z" transform="translate(529.851 453.431)" fill="#1b54f8"></path><path id="Path_318" data-name="Path 318" d="M195.494,144.832H130.8a.931.931,0,0,1-.94-.94V101.744a.931.931,0,0,1,.94-.94h64.7a.931.931,0,0,1,.94.94v42.148a.942.942,0,0,1-.94.94Zm-63.758-1.879h62.818V102.685H131.736Z" transform="translate(499.317 422.901)" fill="#1b54f8"></path><path id="Path_319" data-name="Path 319" d="M201.77,176.2a.881.881,0,0,1-.658-.282l-1.954-1.935a.943.943,0,1,1,1.334-1.334l1.278,1.278L205.1,170.6a.943.943,0,1,1,1.334,1.334l-4,4a.939.939,0,0,1-.658.263Z" transform="translate(440.707 363.871)" fill="#1b54f8"></path></g></g></svg> 