<?xml version="1.0" encoding="UTF-8"?> <svg xmlns="http://www.w3.org/2000/svg" xmlns:xlink="http://www.w3.org/1999/xlink" width="90" height="90" viewBox="0 0 90 90"><defs><clipPath id="clip-path"><rect id="Rectangle_24" data-name="Rectangle 24" width="90" height="90" transform="translate(298 711)" fill="#fff" stroke="#707070" stroke-width="1"></rect></clipPath></defs><g id="Mask_Group_18" data-name="Mask Group 18" transform="translate(-298 -711)" clip-path="url(#clip-path)"><g id="Group_45" data-name="Group 45" transform="translate(-42 -173)"><g id="Group_44" data-name="Group 44" transform="translate(351 895)"><g id="Group_33" data-name="Group 33"><path id="Path_64" data-name="Path 64" d="M54.2,55.4a.945.945,0,0,0-1,1v7A1.728,1.728,0,0,1,51.3,65H4.9A1.79,1.79,0,0,1,3,63.4V13.9a1.79,1.79,0,0,1,1.9-1.6h8.7v2.9a.945.945,0,0,0,1,1H41.5a.945.945,0,0,0,1-1V12.3h8.8a1.79,1.79,0,0,1,1.9,1.6v4.4a1,1,0,0,0,2,0V13.9a3.723,3.723,0,0,0-3.9-3.6H42.5V7.9a.945.945,0,0,0-1-1H37.7V6.1A5.374,5.374,0,0,0,32.1,1h-8a5.374,5.374,0,0,0-5.6,5.1v.7H14.7a.945.945,0,0,0-1,1v2.4H4.9A3.786,3.786,0,0,0,1,13.8V63.3a3.723,3.723,0,0,0,3.9,3.6H51.3a3.786,3.786,0,0,0,3.9-3.6v-7A.987.987,0,0,0,54.2,55.4ZM20.5,6.1A3.379,3.379,0,0,1,24.1,3h8a3.379,3.379,0,0,1,3.6,3.1v.7H20.5Zm20,2.8v5.4H15.6V8.9Z" fill="#1c54f8"></path></g><g id="Group_34" data-name="Group 34"><path id="Path_65" data-name="Path 65" d="M25.5,19.6H9.7a.945.945,0,0,0-1,1v16a.945.945,0,0,0,1,1H25.5a.945.945,0,0,0,1-1V31.2a1,1,0,0,0-2,0v4.4H10.7v-14H25.5a.945.945,0,0,0,1-1A1,1,0,0,0,25.5,19.6Z" fill="#1c54f8"></path></g><g id="Group_35" data-name="Group 35"><path id="Path_66" data-name="Path 66" d="M17.3,30.6l-2-4.1a.883.883,0,0,0-1.3-.4.883.883,0,0,0-.4,1.3l2.6,5.1a.752.752,0,0,0,.7.5h.2a1.421,1.421,0,0,0,.6-.2L27,26a1,1,0,0,0-1.2-1.6Z" fill="#1c54f8"></path></g><g id="Group_36" data-name="Group 36"><path id="Path_67" data-name="Path 67" d="M37.6,43.8a1.04,1.04,0,0,0-1.3.6l-5.1,15a1.148,1.148,0,0,0,.4,1.2,1.048,1.048,0,0,0,1.2-.1l3.7-3.4.9,5a.978.978,0,0,0,1.9.1l4.8-13.6a1.012,1.012,0,0,0-1.9-.7l-3.6,10-.5-3a.969.969,0,0,0-.7-.8,1.232,1.232,0,0,0-1,.2l-2.2,2,4-11.3A.9.9,0,0,0,37.6,43.8Z" fill="#1c54f8"></path></g><g id="Group_37" data-name="Group 37"><path id="Path_68" data-name="Path 68" d="M66.9,59l-6-14.7a.985.985,0,0,0-1.8.8l4.5,11.1-2.3-1.9a.92.92,0,0,0-1-.1.871.871,0,0,0-.6.8l-.3,2.9-4-10a1.012,1.012,0,1,0-1.9.7L59,62.2a1.007,1.007,0,0,0,1.1.6,1.061,1.061,0,0,0,.9-.9l.6-5,3.9,3.2a.91.91,0,0,0,1.2,0A.885.885,0,0,0,66.9,59Z" fill="#1c54f8"></path></g><g id="Group_38" data-name="Group 38"><path id="Path_69" data-name="Path 69" d="M39.8,33.3a9.133,9.133,0,0,0,9.1,9.1h0a9.1,9.1,0,1,0-9.1-9.1Zm16.3,0A7.127,7.127,0,0,1,49,40.4h0a7.1,7.1,0,1,1,7.1-7.1Z" fill="#1c54f8"></path></g><g id="Group_39" data-name="Group 39"><path id="Path_70" data-name="Path 70" d="M49.4,17.9a1.08,1.08,0,0,0-.7-.3.908.908,0,0,0-.7.3l-2.6,2.7-3.6-.9a1.128,1.128,0,0,0-.8.1,1.47,1.47,0,0,0-.5.6l-.8,3.3-3.3.7a1.1,1.1,0,0,0-.8,1.2l.9,4.2-3,3.1a.967.967,0,0,0,0,1.4l2.7,2.6-.9,3.6a1.028,1.028,0,0,0,.7,1.2l3.3.8.7,3.3a.918.918,0,0,0,.4.6,1.063,1.063,0,0,0,.8.1l4.2-.9,3.1,3a.908.908,0,0,0,.7.3h0a.908.908,0,0,0,.7-.3l2.6-2.7,3.6.9a1.128,1.128,0,0,0,.8-.1,1.47,1.47,0,0,0,.5-.6l.8-3.3,3.3-.7a1.1,1.1,0,0,0,.8-1.2l-.9-4.2,3-3.1a.967.967,0,0,0,0-1.4l-2.7-2.6.9-3.6a1.028,1.028,0,0,0-.7-1.2L58.5,24l-.7-3.3a.918.918,0,0,0-.4-.6,1.063,1.063,0,0,0-.8-.1l-4.2.9ZM56.7,25a1.143,1.143,0,0,0,.7.8l2.9.7-.8,3.2a1.015,1.015,0,0,0,.3,1L62.2,33l-2.7,2.7a1.4,1.4,0,0,0-.3.9l.8,3.7-2.9.6a1.143,1.143,0,0,0-.8.7l-.7,2.9-3.2-.8a.959.959,0,0,0-1,.3l-2.3,2.4-2.7-2.7a.908.908,0,0,0-.7-.3h-.2l-3.7.8-.6-2.9a1.143,1.143,0,0,0-.7-.8l-2.9-.7.8-3.2a1.015,1.015,0,0,0-.3-1l-2.4-2.3,2.7-2.7a1.4,1.4,0,0,0,.3-.9L37.9,26l2.9-.6a1.143,1.143,0,0,0,.8-.7l.7-2.9,3.2.8a1.015,1.015,0,0,0,1-.3l2.3-2.4,2.7,2.7a1.4,1.4,0,0,0,.9.3l3.7-.8Z" fill="#1c54f8"></path></g><g id="Group_40" data-name="Group 40"><path id="Path_71" data-name="Path 71" d="M43.9,33.3l2.8,3.9a1.012,1.012,0,0,0,.7.4h.1a.908.908,0,0,0,.7-.3l5.5-5.9A.99.99,0,1,0,52.3,30l-4.7,5-2.1-2.9a1.075,1.075,0,0,0-1.4-.2A1.09,1.09,0,0,0,43.9,33.3Z" fill="#1c54f8"></path></g><g id="Group_41" data-name="Group 41"><path id="Path_72" data-name="Path 72" d="M6,43.9a.945.945,0,0,0,1,1H28.1a1,1,0,1,0,0-2H7A1,1,0,0,0,6,43.9Z" fill="#1c54f8"></path></g><g id="Group_42" data-name="Group 42"><path id="Path_73" data-name="Path 73" d="M7.1,51.9H28.2a1,1,0,0,0,0-2H7.1a1,1,0,0,0,0,2Z" fill="#1c54f8"></path></g><g id="Group_43" data-name="Group 43"><path id="Path_74" data-name="Path 74" d="M7.1,58.9H28.2a1,1,0,0,0,0-2H7.1a.945.945,0,0,0-1,1A1,1,0,0,0,7.1,58.9Z" fill="#1c54f8"></path></g></g></g></g></svg> 