<?xml version="1.0" encoding="UTF-8"?> <!-- Generator: Adobe Illustrator 25.3.1, SVG Export Plug-In . SVG Version: 6.00 Build 0) --> <svg xmlns="http://www.w3.org/2000/svg" xmlns:xlink="http://www.w3.org/1999/xlink" version="1.1" id="Layer_1" x="0px" y="0px" viewBox="0 0 80 80" style="enable-background:new 0 0 80 80;" xml:space="preserve"> <style type="text/css"> .st0{fill:#1B54F8;} </style> <desc>Created with Sketch.</desc> <path class="st0" d="M23.2,51.7c0.2,0,0.5-0.1,0.7-0.2c0.5-0.4,0.6-1.1,0.3-1.6c0,0,0,0,0,0c-6.4-8.9-4.5-21.3,4.4-27.7 c2.4-1.8,5.2-3,8.2-3.5c0.6-0.1,1.1-0.7,0.9-1.3c-0.1-0.6-0.7-1.1-1.3-0.9c-12.1,2.1-20.1,13.6-18,25.7c0.6,3.3,1.9,6.5,3.9,9.2 C22.4,51.5,22.8,51.7,23.2,51.7z"></path> <path class="st0" d="M64.5,58.1H50c11-5.4,15.4-18.7,10-29.7c-2.3-4.7-6.2-8.4-10.9-10.4l3.8-1.8c0.6-0.3,0.8-1,0.5-1.6 c-0.3-0.6-1-0.8-1.6-0.5l-6.5,3.1c-0.6,0.3-0.8,1-0.5,1.6c0,0,0,0,0,0.1l3.6,6.2c0.2,0.4,0.6,0.6,1,0.6c0.6,0,1.2-0.5,1.2-1.2 c0-0.2-0.1-0.4-0.2-0.6l-2.1-3.7c10,4.5,14.4,16.3,9.9,26.3C55.1,53.5,48,58.1,40.2,58.1H17.9l1.3-1.2c0.5-0.4,0.5-1.2,0.1-1.6 s-1.2-0.5-1.6-0.1l-3.4,3.2c-0.4,0.3-0.5,0.9-0.3,1.3l0,0c0,0.1,0.1,0.1,0.1,0.2L14,60l0.1,0.1l0,0l3.5,3.2c0.5,0.4,1.2,0.4,1.7,0 c0.4-0.5,0.4-1.2,0-1.7l-1.3-1.2h46.6c0.6,0,1.2-0.5,1.2-1.2S65.1,58.1,64.5,58.1z"></path> <path class="st0" d="M27.5,38.6c0,7.2,5.8,13.1,13.1,13.1s13.1-5.8,13.1-13.1c0-7.2-5.8-13.1-13.1-13.1 C33.4,25.6,27.5,31.4,27.5,38.6z M40.6,27.9c5.9,0,10.8,4.8,10.8,10.7c0,5.9-4.8,10.8-10.7,10.8c-5.9,0-10.8-4.8-10.8-10.7 c0,0,0,0,0,0C29.9,32.7,34.7,27.9,40.6,27.9z"></path> <path class="st0" d="M40.6,41c1.3,0,2.4-1,2.4-2.3c0-0.2,0-0.5-0.1-0.7l4.2-4.2c0.4-0.5,0.2-1.3-0.3-1.6c-0.4-0.3-0.9-0.3-1.3,0 l-4.2,4.2c-1.3-0.4-2.6,0.4-3,1.6c-0.4,1.3,0.4,2.6,1.6,3C40.2,41,40.4,41,40.6,41L40.6,41z M40.6,38.6 C40.6,38.6,40.6,38.6,40.6,38.6c0.1,0,0.1,0,0.1,0.1c0,0,0,0,0,0.1c0,0-0.1,0-0.1,0c0,0,0,0,0,0C40.6,38.7,40.5,38.7,40.6,38.6 C40.5,38.6,40.6,38.6,40.6,38.6L40.6,38.6z"></path> </svg> 