<?xml version="1.0" encoding="UTF-8"?> <svg xmlns="http://www.w3.org/2000/svg" id="Layer_1" data-name="Layer 1" viewBox="0 0 80 80"><defs><style>.cls-1,.cls-2{fill:#1b54f8;}.cls-1{fill-rule:evenodd;}</style></defs><path class="cls-1" d="M60.26,30.73a1.15,1.15,0,0,0,2-.81V23.43a1.15,1.15,0,0,0-1.15-1.14H54.59a1.14,1.14,0,0,0-.81,1.95l2.43,2.43-13,13L36,32.35a1.14,1.14,0,0,0-1.62,0L18.12,48.56a1.15,1.15,0,1,0,1.62,1.62l15.4-15.4,7.29,7.29a1.14,1.14,0,0,0,1.62,0L57.83,28.3Z"></path><path class="cls-2" d="M60.62,72.75H48.9V63.06H77.51V10.48h-75V63.06H31.1v9.69H19.38a1,1,0,0,0,0,2.09H60.62a1.05,1.05,0,1,0,0-2.09ZM4.57,61V12.56H75.42V61ZM46.81,72.75H33.19V63.06H46.81Z"></path></svg> 