<?xml version="1.0" encoding="UTF-8"?> <svg xmlns="http://www.w3.org/2000/svg" xmlns:xlink="http://www.w3.org/1999/xlink" width="90" height="90" viewBox="0 0 90 90"><defs><clipPath id="clip-path"><rect id="Rectangle_33" data-name="Rectangle 33" width="90" height="90" transform="translate(1646 702)" fill="#fff" stroke="#707070" stroke-width="1"></rect></clipPath></defs><g id="Mask_Group_7" data-name="Mask Group 7" transform="translate(-1646 -702)" clip-path="url(#clip-path)"><g id="Group_2" data-name="Group 2" transform="translate(1652 714)"><path id="Path_4" data-name="Path 4" d="M21.006,30.845,18.4,29.9a2.434,2.434,0,0,1-1.457-3.121,2.449,2.449,0,0,1,2.293-1.61h.008a2.564,2.564,0,0,1,1.813.747,2.591,2.591,0,0,1,.548.806,1.348,1.348,0,1,0,2.479-1.063,5.205,5.205,0,0,0-3.493-2.991V20.849a1.349,1.349,0,0,0-2.7,0v1.829a5.117,5.117,0,0,0-.418,9.753l2.611.949a2.439,2.439,0,0,1-.833,4.731H19.24a2.576,2.576,0,0,1-2.36-1.554A1.348,1.348,0,1,0,14.4,37.62a5.2,5.2,0,0,0,3.488,2.989v1.818a1.349,1.349,0,1,0,2.7,0V40.6a5.112,5.112,0,0,0,.421-9.753Z" transform="translate(19.871 23.657)" fill="#1a53f8"></path><path id="Path_5" data-name="Path 5" d="M13.5,15.243A6.743,6.743,0,1,0,20.243,8.5,6.751,6.751,0,0,0,13.5,15.243Zm10.789,0A4.046,4.046,0,1,1,20.243,11.2,4.051,4.051,0,0,1,24.289,15.243Z" transform="translate(18.868 4.987)" fill="#1a53f8"></path><path id="Path_6" data-name="Path 6" d="M73.932,36.261,41.565,3.894a1.35,1.35,0,0,0-1.907,0L28.473,15.08V4.849A1.349,1.349,0,0,0,27.124,3.5H16.335a1.349,1.349,0,0,0-1.349,1.349V28.566l-7.7,7.7L1.894,41.658A1.348,1.348,0,0,0,3.8,43.565l3.094-3.094V69.583a1.349,1.349,0,0,0,1.349,1.349H29.821a1.349,1.349,0,0,0,1.349-1.349V53.4a9.44,9.44,0,1,1,18.881,0V69.583A1.349,1.349,0,0,0,51.4,70.931H72.977a1.349,1.349,0,0,0,1.349-1.349V40.471l3.091,3.091a1.348,1.348,0,1,0,1.91-1.9ZM17.684,6.2h8.092V17.777l-8.092,8.092ZM71.629,68.234H52.748V53.4a12.138,12.138,0,0,0-24.275,0V68.234H9.592V37.774l7.7-7.7s0,0,0-.005L28.076,19.29s0,0,0-.005L40.61,6.756,71.629,37.774Z" transform="translate(-1.5 -3.5)" fill="#1a53f8"></path></g></g></svg> 