<?xml version="1.0" encoding="UTF-8"?> <svg xmlns="http://www.w3.org/2000/svg" xmlns:xlink="http://www.w3.org/1999/xlink" width="60" height="60" viewBox="0 0 60 60"><defs><clipPath id="clip-path"><rect id="Rectangle_13" data-name="Rectangle 13" width="60" height="60" transform="translate(598.522 131.522)" fill="#fff" stroke="#707070" stroke-width="1"></rect></clipPath></defs><g id="Mask_Group_7" data-name="Mask Group 7" transform="translate(-598.522 -131.522)" clip-path="url(#clip-path)"><path id="Path_22" data-name="Path 22" d="M21.8,19a1.1,1.1,0,0,0-.636.309L4.32,35.779a1.1,1.1,0,0,0,.774,1.891h1.96V52.009a1.1,1.1,0,0,0,1.1,1.1H53.508a1.1,1.1,0,1,0,0-2.2H27.668V36.828a1.1,1.1,0,0,0-1.1-1.1H17.3a1.042,1.042,0,0,0-1.1,1.1V50.909H9.254V36.57a1.1,1.1,0,0,0-1.1-1.1H7.793l14.15-13.823L28.3,27.871a1.1,1.1,0,0,0,1.874-.791v-.224h2.906v5.227a1.1,1.1,0,0,0,.327.791l2.648,2.6h-.344a1.1,1.1,0,0,0-1.1,1.1V48.4a1.1,1.1,0,1,0,2.2,0V37.67h1.96a1.1,1.1,0,0,0,.774-1.891l-4.264-4.161V25.756a1.1,1.1,0,0,0-1.1-1.1H29.077a1.1,1.1,0,0,0-.671.224L22.7,19.308A1.1,1.1,0,0,0,21.908,19q-.052,0-.1,0ZM42.832,33.028a1.1,1.1,0,0,0-1,1.1v6.413a1.1,1.1,0,0,0,1.1,1.1h4.178V48.4a1.1,1.1,0,1,0,2.2,0V41.642h4.2a1.1,1.1,0,0,0,1.1-1.1V34.129a1.1,1.1,0,0,0-1.1-1.1H42.935Q42.883,33.026,42.832,33.028Zm1.2,2.2h8.373v4.212H44.035ZM18.4,37.928h7.066V50.909H18.4ZM20.24,43.4a1,1,0,0,0-1.014,1,1.02,1.02,0,0,0,1.014,1.014,1,1,0,0,0,1-1.014A.991.991,0,0,0,20.24,43.4Z" transform="translate(599.226 125.469)" fill="#1c54f8" stroke="#fff" stroke-width="0.7"></path></g></svg> 