<?xml version="1.0" encoding="UTF-8"?> <svg xmlns="http://www.w3.org/2000/svg" width="91" height="90" viewBox="0 0 91 90" fill="none"><path d="M22.125 70C22.225 70.2 22.325 70.3 22.425 70.4C22.525 70.5 22.625 70.6 22.825 70.7C23.825 71.5 25.225 71.3 26.025 70.3C26.025 70.3 26.025 70.2 26.125 70.2C26.125 70.1 26.225 70.1 26.225 70C26.225 69.9 26.325 69.9 26.325 69.8C26.325 69.7 26.425 69.7 26.425 69.6C26.425 69.5 26.525 69.4 26.525 69.4V69.3C26.525 69.2 26.525 69 26.525 68.9C26.525 67.6 25.425 66.6 24.225 66.6C22.925 66.6 21.925 67.6 21.925 68.9C21.925 69.1 21.925 69.2 22.025 69.4V69.5C22.025 69.8 22.025 69.9 22.125 70Z" fill="#1B54F8"></path><path d="M47.825 8.10001C48.625 8.10001 49.225 7.50001 49.225 6.70001V1.40002C49.225 0.600024 48.625 0 47.825 0C47.025 0 46.425 0.600024 46.425 1.40002V6.70001C46.425 7.40001 47.025 8.10001 47.825 8.10001Z" fill="#1B54F8"></path><path d="M70.725 17C71.125 17 71.425 16.9 71.725 16.6L75.425 12.9C76.025 12.4 76.025 11.5 75.425 10.9C74.825 10.3 74.025 10.3 73.425 10.9L69.725 14.6C69.225 15.1 69.225 16 69.725 16.6C70.025 16.8 70.325 17 70.725 17Z" fill="#1B54F8"></path><path d="M24.2249 17.6C24.8249 18.1 25.6249 18.1 26.2249 17.6C26.7249 17.1 26.7249 16.2 26.2249 15.6L22.525 11.9C22.025 11.4 21.125 11.4 20.525 11.9C19.925 12.4 20.025 13.3 20.525 13.9L24.2249 17.6Z" fill="#1B54F8"></path><path d="M19.625 35.7C19.625 35.4 19.825 35.2 20.125 35.2H27.525C27.825 35.2 28.025 35.4 28.025 35.7V71.7C28.925 71.8 29.825 72 30.825 72.1V39.1C32.825 38.9 34.625 37.8 35.825 36.2C36.525 35.3 37.025 34.3 37.425 33.2L42.825 18.1C43.525 16 45.825 14.9 47.825 15.6C48.825 15.9 49.725 16.6 50.125 17.6C50.625 18.5 50.625 19.5 50.325 20.5L47.325 29.4C47.025 30.2 47.125 31.1 47.725 31.8C48.425 32.5 49.325 32.8 50.225 32.5H69.125C71.725 32.8 73.925 34.9 73.925 37.1C73.925 39.2 71.825 41 69.125 41H66.325C65.525 41 64.925 41.6 64.925 42.4C64.925 43.2 65.525 43.8 66.325 43.8H69.125C72.025 43.8 75.425 44.5 75.425 47.7C75.425 50.3 73.825 51.6 70.625 51.6H66.725C66.725 51.6 66.625 51.6 66.525 51.6H63.725C62.925 51.6 62.325 52.2 62.325 53C62.325 53.8 62.925 54.4 63.725 54.4H66.525C66.525 54.4 66.625 54.4 66.725 54.4C69.325 54.4 71.525 56.1 71.525 58.3C71.525 60.7 69.925 62.2 67.525 62.2H64.425C64.425 62.2 64.425 62.2 64.325 62.2H61.325C60.525 62.2 59.925 62.8 59.925 63.6C59.925 64.4 60.525 65 61.325 65H64.425C64.425 65 64.425 65 64.525 65H64.625C66.625 64.9 68.425 66.4 68.525 68.4C68.525 68.6 68.525 68.7 68.525 68.9C68.525 69.5 68.425 70.1 68.125 70.7C69.325 70.5 70.325 70.3 71.225 70.1C71.325 69.7 71.325 69.3 71.325 68.9C71.325 67.4 70.825 65.9 69.925 64.7C72.625 63.8 74.525 61.2 74.425 58.4C74.425 56.9 73.825 55.5 72.825 54.3C76.225 53.6 78.225 51.3 78.225 47.8C78.325 45.3 76.725 43 74.325 42.1C75.825 40.9 76.625 39.2 76.625 37.3C76.625 33.6 73.325 30.3 69.225 29.9H69.125H50.025L52.825 21.6C53.425 19.9 53.225 18.1 52.425 16.5C51.625 14.9 50.125 13.7 48.425 13.1C44.925 12 41.125 13.8 39.825 17.3L34.425 32.4C34.125 33.2 33.725 33.9 33.225 34.6C32.525 35.5 31.525 36.2 30.425 36.4V35.7C30.425 33.9 28.925 32.4 27.125 32.4H19.725C17.925 32.4 16.425 33.9 16.425 35.7V69.7C17.225 69.9 18.125 70.1 19.225 70.3V35.7H19.625Z" fill="#1B54F8"></path><path d="M74.425 68.2C74.425 68.4 74.425 68.5 74.425 68.7C74.425 68.8 74.425 68.8 74.425 68.9C74.425 69.9 74.225 70.9 73.925 71.8L74.325 72.2C69.525 73.3 56.525 75.9 45.625 75.9C34.925 75.9 24.325 74.5 14.025 71.8V69.8L11.725 72.2C11.025 72.7 10.525 73.6 10.525 74.5V82.9C10.525 84.4 11.625 85.6 13.125 85.7C23.525 88.6 34.225 90 45.025 89.9C55.825 90 66.525 88.5 76.925 85.7C78.425 85.6 79.525 84.4 79.525 82.9V74.5C79.525 73.7 79.225 73 78.625 72.5L75.125 68.9H85.525L82.525 72.2C82.325 72.5 82.125 72.8 82.125 73.1C82.225 73.3 82.225 73.5 82.225 73.7C82.325 73.8 82.325 74 82.425 74.1L85.425 77.4H82.325V80.2H88.625C89.425 80.2 90.025 79.6 90.025 78.8C90.025 78.5 89.925 78.1 89.625 77.9L85.325 73.2L89.625 68.5C90.125 67.9 90.125 67 89.525 66.5C89.225 66.3 88.925 66.1 88.625 66.1H74.125C74.225 66.8 74.425 67.5 74.425 68.2ZM76.625 82.9C76.525 82.9 76.325 82.9 76.225 83C66.025 85.8 55.525 87.2 45.025 87.2C34.525 87.2 24.025 85.8 13.825 83C13.725 83 13.525 82.9 13.425 82.9V74.5C23.925 77.3 34.725 78.7 45.725 78.7C58.725 78.7 74.125 75.1 76.625 74.5V82.9Z" fill="#1B54F8"></path><path d="M0.124951 79.3C0.324951 79.8 0.82495 80.1 1.42495 80.1H7.72495V77.3H4.62495L7.62495 74C7.72495 73.9 7.82495 73.8 7.82495 73.6C7.82495 73.4 7.92495 73.2 7.92495 73C7.92495 72.7 7.82495 72.3 7.52495 72.1L4.52495 68.8H14.025V66H1.42495C0.62495 66 0.0249486 66.6 0.0249486 67.4C0.0249486 67.7 0.12495 68.1 0.42495 68.3L4.72495 73L0.42495 77.7C-0.0750499 78.2 -0.0750492 78.8 0.124951 79.3Z" fill="#1B54F8"></path></svg> 