<?xml version="1.0" encoding="UTF-8"?> <svg xmlns="http://www.w3.org/2000/svg" xmlns:xlink="http://www.w3.org/1999/xlink" width="90" height="90" viewBox="0 0 90 90"><defs><clipPath id="clip-path"><rect id="Rectangle_7" data-name="Rectangle 7" width="90" height="90" transform="translate(85 354)" fill="#fff" stroke="#707070" stroke-width="1"></rect></clipPath></defs><g id="Mask_Group_18" data-name="Mask Group 18" transform="translate(-85 -354)" clip-path="url(#clip-path)"><g id="Group_19" data-name="Group 19" transform="translate(-108.332 7)"><path id="Path_82" data-name="Path 82" d="M86.035,16H28.506a5.008,5.008,0,0,0-5,5V78.531H16v7.5a5.008,5.008,0,0,0,5,5H78.531a5.008,5.008,0,0,0,5-5V28.506h7.5V21a5.008,5.008,0,0,0-5-5ZM21,88.536a2.5,2.5,0,0,1-2.5-2.5v-5H73.529v5a4.972,4.972,0,0,0,.671,2.5Zm60.03-2.5a2.5,2.5,0,0,1-5,0v-7.5H26V21a2.5,2.5,0,0,1,2.5-2.5h53.2a4.97,4.97,0,0,0-.673,2.5ZM88.536,26h-5V21a2.5,2.5,0,1,1,5,0Z" transform="translate(184.332 338)" fill="#1c54f8" stroke="#fff" stroke-width="0.6"></path><rect id="Rectangle_655" data-name="Rectangle 655" width="3.248" height="2.436" transform="translate(212.446 391.788)" fill="#1c54f8" stroke="#fff" stroke-width="0.6"></rect><rect id="Rectangle_656" data-name="Rectangle 656" width="17.051" height="2.436" transform="translate(218.129 391.788)" fill="#1c54f8" stroke="#fff" stroke-width="0.6"></rect><rect id="Rectangle_657" data-name="Rectangle 657" width="3.248" height="2.436" transform="translate(212.446 397.472)" fill="#1c54f8" stroke="#fff" stroke-width="0.6"></rect><rect id="Rectangle_658" data-name="Rectangle 658" width="17.051" height="2.436" transform="translate(218.129 397.472)" fill="#1c54f8" stroke="#fff" stroke-width="0.6"></rect><rect id="Rectangle_659" data-name="Rectangle 659" width="3.248" height="2.436" transform="translate(212.446 403.968)" fill="#1c54f8" stroke="#fff" stroke-width="0.6"></rect><rect id="Rectangle_660" data-name="Rectangle 660" width="17.051" height="2.436" transform="translate(218.129 403.968)" fill="#1c54f8" stroke="#fff" stroke-width="0.6"></rect><path id="Path_83" data-name="Path 83" d="M299.75,100.506H296v2.5h2.5v2.5H301v-2.716A3.752,3.752,0,0,0,299.75,95.5a1.251,1.251,0,0,1,0-2.5H303.5V90.5H301V88h-2.5v2.716A3.752,3.752,0,0,0,299.75,98a1.251,1.251,0,0,1,0,2.5Z" transform="translate(-51.894 277.256)" fill="#1c54f8" stroke="#fff" stroke-width="0.6"></path><path id="Path_84" data-name="Path 84" d="M282.873,58.494A11.256,11.256,0,1,1,277.247,79.5l-1.252,2.165a13.755,13.755,0,1,0,2.753-25.043l.749,2.386A11.258,11.258,0,0,1,282.873,58.494Z" transform="translate(-35.018 304.26)" fill="#1c54f8" stroke="#fff" stroke-width="0.6"></path><path id="Path_85" data-name="Path 85" d="M117.753,83.5a13.758,13.758,0,0,0,4.127-.63l-.749-2.386A11.257,11.257,0,1,1,123.38,60l1.252-2.165A13.758,13.758,0,1,0,117.753,83.5Z" transform="translate(110.093 304.263)" fill="#1c54f8" stroke="#fff" stroke-width="0.6"></path><path id="Path_86" data-name="Path 86" d="M163.758,99l-4.026,5.032L155.706,99l-1.953,1.562,3.377,4.221h-1.15v2.5h2.5v2.5h-2.5v2.5h2.5v2.5h2.5v-2.5h2.5v-2.5h-2.5v-2.5h2.5v-2.5h-1.15l3.377-4.221Z" transform="translate(68.114 267.973)" fill="#1c54f8" stroke="#fff" stroke-width="0.6"></path><rect id="Rectangle_661" data-name="Rectangle 661" width="3.248" height="2.436" transform="translate(212.446 410.463)" fill="#1c54f8" stroke="#fff" stroke-width="0.6"></rect><rect id="Rectangle_662" data-name="Rectangle 662" width="17.051" height="2.436" transform="translate(218.129 410.463)" fill="#1c54f8" stroke="#fff" stroke-width="0.6"></rect><path id="Path_87" data-name="Path 87" d="M231.538,79.264l4.221-9.5-2.286-1.016-5.784,13.014h5l-4.221,9.5,2.286,1.016,5.784-13.014Z" transform="translate(5.736 293.495)" fill="#1c54f8" stroke="#fff" stroke-width="0.6"></path><rect id="Rectangle_663" data-name="Rectangle 663" width="2.436" height="2.436" transform="translate(240.052 391.788)" fill="#1c54f8" stroke="#fff" stroke-width="0.6"></rect><rect id="Rectangle_664" data-name="Rectangle 664" width="17.051" height="2.436" transform="translate(245.736 391.788)" fill="#1c54f8" stroke="#fff" stroke-width="0.6"></rect><rect id="Rectangle_665" data-name="Rectangle 665" width="2.436" height="2.436" transform="translate(240.052 397.472)" fill="#1c54f8" stroke="#fff" stroke-width="0.6"></rect><rect id="Rectangle_666" data-name="Rectangle 666" width="17.051" height="2.436" transform="translate(245.736 397.472)" fill="#1c54f8" stroke="#fff" stroke-width="0.6"></rect><rect id="Rectangle_667" data-name="Rectangle 667" width="2.436" height="2.436" transform="translate(240.052 403.968)" fill="#1c54f8" stroke="#fff" stroke-width="0.6"></rect><rect id="Rectangle_668" data-name="Rectangle 668" width="17.051" height="2.436" transform="translate(245.736 403.968)" fill="#1c54f8" stroke="#fff" stroke-width="0.6"></rect><rect id="Rectangle_669" data-name="Rectangle 669" width="2.436" height="2.436" transform="translate(240.052 410.463)" fill="#1c54f8" stroke="#fff" stroke-width="0.6"></rect><rect id="Rectangle_670" data-name="Rectangle 670" width="17.051" height="2.436" transform="translate(245.736 410.463)" fill="#1c54f8" stroke="#fff" stroke-width="0.6"></rect></g></g></svg> 