<?xml version="1.0" encoding="UTF-8"?> <svg xmlns="http://www.w3.org/2000/svg" xmlns:xlink="http://www.w3.org/1999/xlink" width="90" height="90" viewBox="0 0 90 90"><defs><clipPath id="clip-path"><rect id="Rectangle_7" data-name="Rectangle 7" width="90" height="90" transform="translate(577.531 328.672)" fill="none"></rect></clipPath></defs><g id="Group_14" data-name="Group 14" transform="translate(-577.531 -328.672)"><g id="Group_13" data-name="Group 13" clip-path="url(#clip-path)"><path id="Path_15" data-name="Path 15" d="M631.274,378.506a5.215,5.215,0,0,0-2.029,3.737h-5.053V370.336a4.083,4.083,0,1,0-2.1,0v11.911h-5.053a5.211,5.211,0,0,0-2.03-3.741,13.221,13.221,0,1,1,16.268,0m-8.133,11.656a5.127,5.127,0,0,1-3.8-1.674h7.593a5.127,5.127,0,0,1-3.8,1.674m0-21.795a1.978,1.978,0,1,0-1.98-1.978,1.977,1.977,0,0,0,1.98,1.978m6.087,15.983V386a.382.382,0,0,1-.381.374H617.434a.382.382,0,0,1-.381-.374v-1.649Zm-6.087-31.594a15.33,15.33,0,0,0-9.435,27.414,3.076,3.076,0,0,1,1.243,2.544v3.3a2.488,2.488,0,0,0,1.764,2.376,7.259,7.259,0,0,0,12.855,0,2.487,2.487,0,0,0,1.764-2.379v-3.3a3.076,3.076,0,0,1,1.243-2.544,15.33,15.33,0,0,0-9.434-27.411m40.089,17a2.753,2.753,0,1,1-2.75,2.756v0a2.757,2.757,0,0,1,2.75-2.753m2.758,32.46a2.754,2.754,0,1,1-2.758-2.752,2.753,2.753,0,0,1,2.758,2.752m-18.528-7.672V350.478a2.288,2.288,0,0,0-2.287-2.283H601.108a2.288,2.288,0,0,0-2.287,2.283v44.069a2.289,2.289,0,0,0,2.287,2.283h44.065a2.289,2.289,0,0,0,2.287-2.283m5.383,15.3a2.753,2.753,0,1,1-2.75,2.756v0a2.756,2.756,0,0,1,2.75-2.753m-26.952,2.753a2.75,2.75,0,1,1-2.75-2.753,2.75,2.75,0,0,1,2.75,2.753m-32.466,2.753a2.753,2.753,0,1,1,2.759-2.753,2.752,2.752,0,0,1-2.759,2.753Zm-10.374-10.387a2.752,2.752,0,1,1,2.75-2.754v0a2.756,2.756,0,0,1-2.75,2.752m0-29.706a2.753,2.753,0,1,1,2.75-2.756v0a2.756,2.756,0,0,1-2.75,2.753m-2.758-32.459a2.754,2.754,0,1,1,2.758,2.753,2.754,2.754,0,0,1-2.758-2.753m13.136-7.633a2.754,2.754,0,1,1,2.759-2.754,2.753,2.753,0,0,1-2.759,2.754Zm26.961-2.754a2.75,2.75,0,1,1,2.751,2.754,2.752,2.752,0,0,1-2.751-2.754m32.453-2.753a2.754,2.754,0,1,1-2.75,2.756v0a2.757,2.757,0,0,1,2.75-2.753m10.389,10.389a2.754,2.754,0,1,1-2.75,2.756v0a2.757,2.757,0,0,1,2.75-2.753m-7.3,15.575a1.036,1.036,0,0,0,.911-.526l4.514-7.817a4.878,4.878,0,1,0-1.722-1.223l-4.307,7.468h-5.765v-3.054a4.4,4.4,0,0,0-4.391-4.395h-3.047v-5.756l7.463-4.307a4.806,4.806,0,1,0-1.226-1.723l-7.819,4.513a1.059,1.059,0,0,0-.521.913v6.369H624.192v-8.929a4.862,4.862,0,1,0-2.1,0v8.925H606.258v-6.369a1.059,1.059,0,0,0-.521-.913l-7.819-4.513a4.881,4.881,0,1,0-1.226,1.727l7.468,4.307v5.761h-3.052a4.4,4.4,0,0,0-4.391,4.395v3.049h-5.765l-4.307-7.46a4.836,4.836,0,1,0-1.722,1.223l4.514,7.817a1.036,1.036,0,0,0,.911.526h6.369v15.821h-8.928a4.86,4.86,0,1,0,0,2.107h8.928v15.828h-6.369a1.04,1.04,0,0,0-.911.527l-4.514,7.815a4.875,4.875,0,1,0,1.722,1.222l4.307-7.46h5.765v3.049a4.395,4.395,0,0,0,4.391,4.39h3.052v5.76l-7.463,4.308a4.827,4.827,0,1,0,1.226,1.727l7.82-4.514a1.053,1.053,0,0,0,.521-.912v-6.369h15.825v8.924a4.862,4.862,0,1,0,2.1,0v-8.924h15.831v6.369a1.053,1.053,0,0,0,.521.912l7.819,4.514a4.884,4.884,0,1,0,1.227-1.727l-7.463-4.308v-5.76h3.047a4.395,4.395,0,0,0,4.391-4.39V391.5h5.765l4.307,7.46a4.837,4.837,0,1,0,1.722-1.222l-4.514-7.818a1.04,1.04,0,0,0-.911-.527h-6.37V373.566h8.928a4.861,4.861,0,1,0,0-2.107h-8.928V355.63Z" fill="#1a53f6" fill-rule="evenodd"></path><path id="Path_16" data-name="Path 16" d="M631.274,378.506a5.215,5.215,0,0,0-2.029,3.737h-5.053V370.336a4.083,4.083,0,1,0-2.1,0v11.911h-5.053a5.211,5.211,0,0,0-2.03-3.741,13.221,13.221,0,1,1,16.268,0Zm-8.133,11.656a5.127,5.127,0,0,1-3.8-1.674h7.593A5.127,5.127,0,0,1,623.141,390.162Zm0-21.795a1.978,1.978,0,1,0-1.98-1.978A1.977,1.977,0,0,0,623.141,368.367Zm6.087,15.983V386a.382.382,0,0,1-.381.374H617.434a.382.382,0,0,1-.381-.374v-1.649Zm-6.087-31.594a15.33,15.33,0,0,0-9.435,27.414,3.076,3.076,0,0,1,1.243,2.544v3.3a2.488,2.488,0,0,0,1.764,2.376,7.259,7.259,0,0,0,12.855,0,2.487,2.487,0,0,0,1.764-2.379v-3.3a3.076,3.076,0,0,1,1.243-2.544,15.33,15.33,0,0,0-9.434-27.411Zm40.089,17a2.753,2.753,0,1,1-2.75,2.756v0A2.757,2.757,0,0,1,663.23,369.759Zm2.758,32.46a2.754,2.754,0,1,1-2.758-2.752A2.753,2.753,0,0,1,665.988,402.219Zm-18.528-7.672V350.478a2.288,2.288,0,0,0-2.287-2.283H601.108a2.288,2.288,0,0,0-2.287,2.283v44.069a2.289,2.289,0,0,0,2.287,2.283h44.065A2.289,2.289,0,0,0,647.46,394.547Zm5.383,15.3a2.753,2.753,0,1,1-2.75,2.756v0A2.756,2.756,0,0,1,652.843,409.852Zm-26.952,2.753a2.75,2.75,0,1,1-2.75-2.753A2.75,2.75,0,0,1,625.891,412.605Zm-32.466,2.753a2.753,2.753,0,1,1,2.759-2.753,2.752,2.752,0,0,1-2.759,2.753Zm-10.374-10.387a2.752,2.752,0,1,1,2.75-2.754v0A2.756,2.756,0,0,1,583.051,404.971Zm0-29.706a2.753,2.753,0,1,1,2.75-2.756v0A2.756,2.756,0,0,1,583.051,375.265Zm-2.758-32.459a2.754,2.754,0,1,1,2.758,2.753A2.754,2.754,0,0,1,580.293,342.806Zm13.136-7.633a2.754,2.754,0,1,1,2.759-2.754,2.753,2.753,0,0,1-2.759,2.754Zm26.961-2.754a2.75,2.75,0,1,1,2.751,2.754A2.752,2.752,0,0,1,620.39,332.419Zm32.453-2.753a2.754,2.754,0,1,1-2.75,2.756v0A2.757,2.757,0,0,1,652.843,329.666Zm10.389,10.389a2.754,2.754,0,1,1-2.75,2.756v0A2.757,2.757,0,0,1,663.232,340.055Zm-7.3,15.575a1.036,1.036,0,0,0,.911-.526l4.514-7.817a4.878,4.878,0,1,0-1.722-1.223l-4.307,7.468h-5.765v-3.054a4.4,4.4,0,0,0-4.391-4.395h-3.047v-5.756l7.463-4.307a4.806,4.806,0,1,0-1.226-1.723l-7.819,4.513a1.059,1.059,0,0,0-.521.913v6.369H624.192v-8.929a4.862,4.862,0,1,0-2.1,0v8.925H606.258v-6.369a1.059,1.059,0,0,0-.521-.913l-7.819-4.513a4.881,4.881,0,1,0-1.226,1.727l7.468,4.307v5.761h-3.052a4.4,4.4,0,0,0-4.391,4.395v3.049h-5.765l-4.307-7.46a4.836,4.836,0,1,0-1.722,1.223l4.514,7.817a1.036,1.036,0,0,0,.911.526h6.369v15.821h-8.928a4.86,4.86,0,1,0,0,2.107h8.928v15.828h-6.369a1.04,1.04,0,0,0-.911.527l-4.514,7.815a4.875,4.875,0,1,0,1.722,1.222l4.307-7.46h5.765v3.049a4.395,4.395,0,0,0,4.391,4.39h3.052v5.76l-7.463,4.308a4.827,4.827,0,1,0,1.226,1.727l7.82-4.514a1.053,1.053,0,0,0,.521-.912v-6.369h15.825v8.924a4.862,4.862,0,1,0,2.1,0v-8.924h15.831v6.369a1.053,1.053,0,0,0,.521.912l7.819,4.514a4.884,4.884,0,1,0,1.227-1.727l-7.463-4.308v-5.76h3.047a4.395,4.395,0,0,0,4.391-4.39V391.5h5.765l4.307,7.46a4.837,4.837,0,1,0,1.722-1.222l-4.514-7.818a1.04,1.04,0,0,0-.911-.527h-6.37V373.566h8.928a4.861,4.861,0,1,0,0-2.107h-8.928V355.63Z" fill="none" stroke="#1a53f6" stroke-width="0.75"></path></g></g></svg> 