<?xml version="1.0" encoding="UTF-8"?> <svg xmlns="http://www.w3.org/2000/svg" xmlns:xlink="http://www.w3.org/1999/xlink" width="60" height="60" viewBox="0 0 60 60"><defs><clipPath id="clip-path"><rect id="Rectangle_71" data-name="Rectangle 71" width="60" height="60" transform="translate(291 419)" fill="#fff" stroke="#707070" stroke-width="1"></rect></clipPath></defs><g id="Mask_Group_25" data-name="Mask Group 25" transform="translate(-291 -419)" clip-path="url(#clip-path)"><g id="Group_47" data-name="Group 47" transform="translate(-72.823 13.413)"><path id="Path_99" data-name="Path 99" d="M47.649,6.833H32.422a8.132,8.132,0,0,0-10.719,0H6.47A2.868,2.868,0,0,0,3.606,9.7V35.973A2.868,2.868,0,0,0,6.47,38.838H22.26v7c-4.223-.027-6.4-.5-6.054,4.719h21.71c.343-5.229-1.844-4.744-6.055-4.719v-7H47.649a2.871,2.871,0,0,0,2.871-2.865V9.7A2.871,2.871,0,0,0,47.649,6.833Zm-25.373.932c5.819-5.367,14.744,1.623,10.97,8.544-1.731,2.281-3.81,4.526-3.687,7.615h-.779c.054-.381,1.354-9.626,1.359-9.653a.541.541,0,0,0-1.071-.151l-.1.685a3.551,3.551,0,0,1-3.866,0c-.061-.424-.061-1.251-.707-1.147a.541.541,0,0,0-.46.611L25.3,23.924h-.735A9.05,9.05,0,0,0,22.075,17.9,7.068,7.068,0,0,1,22.275,7.765Zm1.492,20.462c-.438.05-.433-1.122,0-1.07h6.589c.438-.05.433,1.122,0,1.07Zm5.084,1.081a1.162,1.162,0,0,1-1.138,1.071c-.882.013-2.37.186-2.446-1.071Zm1.5-3.232H23.768c-.438.05-.433-1.123,0-1.071h6.589C30.794,24.956,30.79,26.128,30.357,26.076Zm-3.968-2.152-1.1-7.811a4.511,4.511,0,0,0,3.5.011l-1.1,7.8Zm8.792,22.993c1.433.02,1.786,1.361,1.654,2.556H17.287c-.345-3.551,2.723-2.355,4.973-2.556H35.181Zm-11.84-1.081v-7H30.78v7Zm26.1-9.863a1.789,1.789,0,0,1-1.789,1.784H6.47c-2.023-.071-1.818-2.124-1.784-3.584H49.438Zm0-2.881H4.687V9.7A1.786,1.786,0,0,1,6.47,7.914h14.2a8.158,8.158,0,0,0,.644,10.755,7.824,7.824,0,0,1,2.163,5.287c-1.176.244-1.347,1.8-.8,2.66a1.671,1.671,0,0,0,1.509,2.692c.116,2.988,5.644,2.986,5.76,0,1.6.255,2.275-1.475,1.514-2.692.6-.881.341-2.422-.809-2.662-.037-2.451,1.323-4.52,2.964-6.213a8.171,8.171,0,0,0-.152-9.828H47.649A1.789,1.789,0,0,1,49.438,9.7ZM19.717,22.84H19.2a5.851,5.851,0,0,0-.509-1.226c.425-.343.865-.948.366-1.433-.525-.386-1.527-2.065-2.3-1.231l-.365.365a5.851,5.851,0,0,0-1.231-.509c.222-1.8-1.391-1.155-2.5-1.269-.691-.01-.813.726-.751,1.269a5.854,5.854,0,0,0-1.228.51c-.338-.425-.954-.866-1.43-.366-.389.524-2.063,1.519-1.234,2.293l.367.37a5.87,5.87,0,0,0-.508,1.227c-1.808-.218-1.153,1.38-1.27,2.5-.01.691.727.814,1.269.752a5.851,5.851,0,0,0,.509,1.231c-.426.329-.865.963-.366,1.426.867.71,1.545,2.3,2.665.869a5.783,5.783,0,0,0,1.227.512c-.223,1.8,1.39,1.156,2.5,1.27.691.01.813-.727.751-1.269a5.826,5.826,0,0,0,1.229-.513c.339.429.943.866,1.428.369.387-.524,2.066-1.52,1.238-2.3l-.367-.367a5.911,5.911,0,0,0,.51-1.229c.543.061,1.279-.06,1.27-.752C20.373,24.691,20.854,22.808,19.717,22.84Zm-.329,2.168c-.4.01-1.034-.113-1.141.431a4.871,4.871,0,0,1-.691,1.669c-.308.449.228.824.5,1.108l-.77.77c-.274-.272-.676-.821-1.112-.505a4.768,4.768,0,0,1-1.666.695c-.542.106-.422.739-.431,1.14H12.993c-.01-.4.113-1.033-.43-1.14a4.726,4.726,0,0,1-1.66-.694c-.452-.317-.832.227-1.119.5l-.766-.769c.269-.275.817-.678.5-1.112a4.792,4.792,0,0,1-.69-1.666c-.105-.542-.739-.421-1.14-.43V23.921c.9.053,1.087-.016,1.273-.925.067-.607.979-1.32.49-1.845l-.434-.437.768-.767c.95,1.237,1.348.074,2.485-.12.829-.116.726-.526.722-1.209H14.08c.009.4-.113,1.033.431,1.14a4.762,4.762,0,0,1,1.666.689c.449.311.827-.225,1.112-.5l.771.768c-.267.276-.817.68-.5,1.114a4.822,4.822,0,0,1,.69,1.663c.105.541.74.421,1.14.43Zm-5.064-4.319a3.858,3.858,0,1,0,2.1,6.335A3.888,3.888,0,0,0,14.324,20.689Zm1.295,5.619a2.788,2.788,0,0,1-4.8-2.389C12.093,19.382,18.447,22.6,15.618,26.307Zm31.613-3.316h-.516a5.691,5.691,0,0,0-.509-1.227c.427-.342.867-.945.369-1.432-.524-.385-1.527-2.062-2.3-1.233l-.371.368a5.867,5.867,0,0,0-1.227-.509c.223-1.8-1.39-1.156-2.5-1.27-.69-.01-.813.726-.751,1.268a5.919,5.919,0,0,0-1.232.509c-.324-.43-.977-.838-1.426-.366-.388.522-2.067,1.515-1.238,2.295l.37.371a5.748,5.748,0,0,0-.509,1.226c-.543-.06-1.283.057-1.273.752.117,1.118-.539,2.713,1.269,2.5a5.842,5.842,0,0,0,.513,1.23c-.427.332-.865.953-.369,1.428.857.7,1.559,2.3,2.666.872a5.9,5.9,0,0,0,1.23.51c-.222,1.8,1.39,1.156,2.5,1.269.691.01.814-.727.752-1.27a5.867,5.867,0,0,0,1.227-.509c.336.423.955.862,1.431.366.7-.856,2.3-1.562.868-2.666a5.737,5.737,0,0,0,.51-1.23c.541.06,1.282-.056,1.272-.746C47.891,24.844,48.375,22.959,47.231,22.991Zm-.325,2.167c-.405.01-1.041-.114-1.146.434a4.664,4.664,0,0,1-.689,1.663c-.311.46.225.822.5,1.112l-.77.771c-.288-.274-.665-.813-1.115-.5a4.831,4.831,0,0,1-1.663.69c-.541.105-.421.739-.43,1.14H40.512c-.009-.4.113-1.033-.431-1.14a4.869,4.869,0,0,1-1.67-.691c-.448-.309-.824.228-1.108.5l-.77-.77c.279-.286.816-.658.5-1.112a4.774,4.774,0,0,1-.695-1.666c-.106-.542-.739-.422-1.14-.431V24.072c.884.056,1.1-.021,1.271-.919.077-.617.987-1.325.5-1.852l-.436-.437.77-.766c.287.277.66.813,1.113.5a4.779,4.779,0,0,1,1.373-.62c.335-.054.734-.189.723-.6,0,0,0-.611,0-.611H41.6c.01.4-.113,1.033.43,1.14a4.831,4.831,0,0,1,1.663.69c.45.311.829-.229,1.115-.5l.771.767c-.277.288-.819.665-.5,1.119a4.617,4.617,0,0,1,.687,1.655c.1.547.743.425,1.146.434ZM41.843,20.84a3.859,3.859,0,1,0,2.1,6.339A3.891,3.891,0,0,0,41.843,20.84Zm1.289,5.622c-3.067,3.143-7.15-2.232-3.285-4.341A2.781,2.781,0,0,1,43.132,26.462ZM33.811,6.105a.54.54,0,0,1,0-.764c.417-.272,1.406-1.9,2.01-1.246a.54.54,0,0,1,0,.764C35.4,5.131,34.415,6.761,33.811,6.105Zm-19.14,6.75a.54.54,0,0,1,.541-.541c.554.1,2.343-.336,2.3.54a.54.54,0,0,1-.541.541C16.419,13.3,14.631,13.733,14.672,12.856Zm21.936,0a.54.54,0,0,1,.541-.541c.554.1,2.343-.336,2.3.54a.54.54,0,0,1-.541.541C38.355,13.3,36.567,13.733,36.608,12.856Zm-18.307-8a.541.541,0,0,1,.764-.764c.273.419,1.9,1.406,1.245,2.01C19.709,6.762,18.715,5.129,18.3,4.859Zm8.22-2.091V1.007a.541.541,0,0,1,1.081,0s0,1.761,0,1.761A.541.541,0,0,1,26.521,2.769Z" transform="translate(367.217 410.11)" fill="#1c54f8"></path></g></g></svg> 