<?xml version="1.0" encoding="UTF-8"?> <svg xmlns="http://www.w3.org/2000/svg" xmlns:xlink="http://www.w3.org/1999/xlink" width="148" height="148" viewBox="0 0 148 148"><defs><clipPath id="clip-path"><rect id="Rectangle_28" data-name="Rectangle 28" width="148" height="148" transform="translate(926 842)" fill="#fff"></rect></clipPath></defs><g id="Mask_Group_7" data-name="Mask Group 7" transform="translate(-926 -842)" clip-path="url(#clip-path)"><g id="Group_42" data-name="Group 42" transform="translate(719.67 -15)"><path id="Path_104" data-name="Path 104" d="M166.34,273.657a2.241,2.241,0,0,1-2.24-2.24V232.34a2.24,2.24,0,1,1,4.48,0v39.077A2.241,2.241,0,0,1,166.34,273.657Z" transform="translate(69.077 688.604)" fill="#05f"></path><path id="Path_104_-_Outline" data-name="Path 104 - Outline" d="M166.34,274.157a2.743,2.743,0,0,1-2.74-2.74V232.34a2.74,2.74,0,1,1,5.48,0v39.077A2.743,2.743,0,0,1,166.34,274.157Zm0-43.557a1.742,1.742,0,0,0-1.74,1.74v39.077a1.74,1.74,0,1,0,3.48,0V232.34A1.742,1.742,0,0,0,166.34,230.6Z" transform="translate(69.077 688.604)" fill="#fff"></path><path id="Path_105" data-name="Path 105" d="M327.68,183.35H313.267a2.24,2.24,0,0,1,0-4.48H325.44V89.07H231.93a2.24,2.24,0,0,1,0-4.48h95.75a2.241,2.241,0,0,1,2.24,2.24v94.281a2.24,2.24,0,0,1-2.24,2.239Z" transform="translate(20.276 796.867)" fill="#05f"></path><path id="Path_105_-_Outline" data-name="Path 105 - Outline" d="M327.68,183.85H313.267a2.74,2.74,0,0,1,0-5.48H324.94V89.57H231.93a2.74,2.74,0,0,1,0-5.48h95.75a2.743,2.743,0,0,1,2.74,2.74v94.281a2.744,2.744,0,0,1-2.24,2.693v.046Zm-14.413-4.48a1.74,1.74,0,0,0,0,3.48H327.68a1.741,1.741,0,0,0,1.74-1.739V86.83a1.742,1.742,0,0,0-1.74-1.74H231.93a1.74,1.74,0,0,0,0,3.48h94.01v90.8Z" transform="translate(20.276 796.867)" fill="#fff"></path><path id="Path_106" data-name="Path 106" d="M346.129,166.88H257.15a2.24,2.24,0,1,1,0-4.48h88.979a2.24,2.24,0,1,1,0,4.48Z" transform="translate(1.512 738.974)" fill="#05f"></path><path id="Path_106_-_Outline" data-name="Path 106 - Outline" d="M346.129,167.38H257.15a2.74,2.74,0,1,1,0-5.48h88.979a2.74,2.74,0,1,1,0,5.48ZM257.15,162.9a1.74,1.74,0,1,0,0,3.48h88.979a1.74,1.74,0,1,0,0-3.48Z" transform="translate(1.512 738.974)" fill="#fff"></path><path id="Path_107" data-name="Path 107" d="M468.258,124.37h-.823a2.241,2.241,0,0,1-2.24-2.24v-.867a2.241,2.241,0,0,1,2.24-2.24h.823a2.241,2.241,0,0,1,2.24,2.24v.867A2.241,2.241,0,0,1,468.258,124.37Z" transform="translate(-154.946 771.248)" fill="#05f"></path><path id="Path_107_-_Outline" data-name="Path 107 - Outline" d="M468.258,124.87h-.823a2.743,2.743,0,0,1-2.74-2.74v-.867a2.743,2.743,0,0,1,2.74-2.74h.823a2.743,2.743,0,0,1,2.74,2.74v.867A2.743,2.743,0,0,1,468.258,124.87Zm-.823-5.346a1.742,1.742,0,0,0-1.74,1.74v.867a1.742,1.742,0,0,0,1.74,1.74h.823a1.742,1.742,0,0,0,1.74-1.74v-.867a1.742,1.742,0,0,0-1.74-1.74Z" transform="translate(-154.946 771.248)" fill="#fff"></path><path id="Path_108" data-name="Path 108" d="M514.558,124.37h-.823a2.241,2.241,0,0,1-2.24-2.24v-.867a2.241,2.241,0,0,1,2.24-2.24h.823a2.241,2.241,0,0,1,2.24,2.24v.867A2.24,2.24,0,0,1,514.558,124.37Z" transform="translate(-189.394 771.248)" fill="#05f"></path><path id="Path_108_-_Outline" data-name="Path 108 - Outline" d="M514.558,124.87h-.823a2.743,2.743,0,0,1-2.74-2.74v-.867a2.743,2.743,0,0,1,2.74-2.74h.823a2.743,2.743,0,0,1,2.74,2.74v.867A2.743,2.743,0,0,1,514.558,124.87Zm-.823-5.346a1.742,1.742,0,0,0-1.74,1.74v.867a1.742,1.742,0,0,0,1.74,1.74h.823a1.742,1.742,0,0,0,1.74-1.74v-.867a1.742,1.742,0,0,0-1.74-1.74Z" transform="translate(-189.394 771.248)" fill="#fff"></path><path id="Path_109" data-name="Path 109" d="M560.845,124.37h-.824a2.241,2.241,0,0,1-2.24-2.24v-.867a2.241,2.241,0,0,1,2.24-2.24h.824a2.241,2.241,0,0,1,2.24,2.24v.867A2.24,2.24,0,0,1,560.845,124.37Z" transform="translate(-223.832 771.248)" fill="#05f"></path><path id="Path_109_-_Outline" data-name="Path 109 - Outline" d="M560.845,124.87h-.824a2.743,2.743,0,0,1-2.74-2.74v-.867a2.743,2.743,0,0,1,2.74-2.74h.824a2.743,2.743,0,0,1,2.74,2.74v.867A2.743,2.743,0,0,1,560.845,124.87Zm-.824-5.346a1.742,1.742,0,0,0-1.74,1.74v.867a1.742,1.742,0,0,0,1.74,1.74h.824a1.742,1.742,0,0,0,1.74-1.74v-.867a1.742,1.742,0,0,0-1.74-1.74Z" transform="translate(-223.832 771.248)" fill="#fff"></path><path id="Path_110" data-name="Path 110" d="M295,223.772a2.24,2.24,0,0,1-1.624-.7l-3.232-3.4a2.24,2.24,0,0,1,3.249-3.084L295,218.279l4.552-4.792a2.24,2.24,0,0,1,3.249,3.084l-6.176,6.5a2.25,2.25,0,0,1-1.626.7Z" transform="translate(-24.244 701.483)" fill="#05f"></path><path id="Path_110_-_Outline" data-name="Path 110 - Outline" d="M295,224.272a2.75,2.75,0,0,1-1.987-.854l-3.231-3.4a2.74,2.74,0,1,1,3.974-3.772L295,217.553l4.19-4.41a2.741,2.741,0,0,1,3.873-.1,2.743,2.743,0,0,1,.1,3.873l-6.177,6.5a2.762,2.762,0,0,1-.919.634l.246.219Zm-.023-1H295a1.757,1.757,0,0,0,1.264-.542l6.175-6.5a1.739,1.739,0,0,0-1.262-2.937,1.722,1.722,0,0,0-1.261.541L295,219.005l-1.97-2.074a1.74,1.74,0,1,0-2.524,2.395l3.232,3.4A1.746,1.746,0,0,0,294.974,223.272Z" transform="translate(-24.244 701.483)" fill="#fff"></path><path id="Path_111" data-name="Path 111" d="M295,293.172a2.24,2.24,0,0,1-1.624-.7l-3.232-3.4a2.24,2.24,0,0,1,3.249-3.084L295,287.679l4.552-4.792a2.24,2.24,0,1,1,3.249,3.084l-6.176,6.5a2.254,2.254,0,0,1-1.626.7Z" transform="translate(-24.244 649.847)" fill="#05f"></path><path id="Path_111_-_Outline" data-name="Path 111 - Outline" d="M295,293.672a2.75,2.75,0,0,1-1.987-.854l-3.231-3.4a2.74,2.74,0,1,1,3.974-3.772L295,286.953l4.19-4.41a2.74,2.74,0,0,1,3.974,3.772l-6.177,6.5a2.772,2.772,0,0,1-.977.657l.2.2Zm-.025-1H295a1.76,1.76,0,0,0,1.265-.543l6.175-6.5a1.739,1.739,0,0,0-1.262-2.937,1.722,1.722,0,0,0-1.261.541L295,288.405l-1.97-2.075a1.74,1.74,0,1,0-2.524,2.395l3.232,3.4A1.746,1.746,0,0,0,294.973,292.671Z" transform="translate(-24.244 649.847)" fill="#fff"></path><path id="Path_112" data-name="Path 112" d="M407.726,229.97H375.66a2.24,2.24,0,0,1,0-4.48h32.063a2.24,2.24,0,0,1,0,4.48Z" transform="translate(-86.663 692.034)" fill="#05f"></path><path id="Path_112_-_Outline" data-name="Path 112 - Outline" d="M407.726,230.47H375.66a2.74,2.74,0,0,1,0-5.48h32.063a2.74,2.74,0,0,1,0,5.48Zm-32.066-4.48a1.74,1.74,0,0,0,0,3.48h32.064a1.74,1.74,0,0,0,0-3.48Z" transform="translate(-86.663 692.034)" fill="#fff"></path><path id="Path_113" data-name="Path 113" d="M407.726,303.92H375.66a2.24,2.24,0,0,1,0-4.48h32.063a2.24,2.24,0,0,1,0,4.48Z" transform="translate(-86.663 637.013)" fill="#05f"></path><path id="Path_113_-_Outline" data-name="Path 113 - Outline" d="M407.726,304.42H375.66a2.74,2.74,0,0,1,0-5.48h32.063a2.74,2.74,0,0,1,0,5.48Zm-32.066-4.48a1.74,1.74,0,0,0,0,3.48h32.064a1.74,1.74,0,0,0,0-3.48Z" transform="translate(-86.663 637.013)" fill="#fff"></path><path id="Path_114" data-name="Path 114" d="M187.884,391.368a2.32,2.32,0,0,1-.342-.026,37.687,37.687,0,0,1-5.224-1.158,35.709,35.709,0,0,1-4.966-2.02l-22.746-8.072-19.843,6.945a2.239,2.239,0,0,1-2.979-2.174l.615-22.939a2.241,2.241,0,0,1,1.536-2.066q16.48-5.461,33.046-11l1-.336a2.245,2.245,0,0,1,1.3-.035c11.518,3.172,22.995,6.3,34.513,9.425,4.608,1.011,7.971,5.2,7.552,9.516a7.494,7.494,0,0,1-.18,1.1l7.308-1.491q7.439-1.515,14.879-3.044a8.891,8.891,0,0,1,10.6,6.541,9.354,9.354,0,0,1-5.682,11.076,2.31,2.31,0,0,1-.334.093q-24.838,4.856-49.628,9.624a2.36,2.36,0,0,1-.426.039Zm-33.274-15.89a2.237,2.237,0,0,1,.749.129l23.627,8.383a2.23,2.23,0,0,1,.272.116,30.613,30.613,0,0,0,4.4,1.8,32.5,32.5,0,0,0,4.188.945q24.542-4.732,49.042-9.51a4.847,4.847,0,0,0,2.727-5.693,4.373,4.373,0,0,0-5.261-3.291c-5.057,1.045-10.019,2.056-14.981,3.067q-6.235,1.272-12.471,2.548a2.245,2.245,0,0,1-.907.186l-1.465.3a2.182,2.182,0,0,1-.66.036L194,373.573a2.333,2.333,0,0,1-.237-.035l-17.1-3.471a2.24,2.24,0,1,1,.892-4.389l16.984,3.448,9.422.88,1.247-.256a4.184,4.184,0,0,0,1.689-2.737c.177-1.822-1.365-4.143-4.161-4.759-11.408-3.095-22.675-6.162-33.976-9.273l-.357.119q-15.8,5.276-31.562,10.515l-.486,18.121,17.522-6.133a2.226,2.226,0,0,1,.738-.126Z" transform="translate(93.122 600.584)" fill="#05f"></path><path id="Path_114_-_Outline" data-name="Path 114 - Outline" d="M187.885,391.868l-.093,0a2.868,2.868,0,0,1-.324-.03,38.172,38.172,0,0,1-5.295-1.174l-.011,0a36.462,36.462,0,0,1-5.009-2.035l-22.55-8-19.677,6.887a2.739,2.739,0,0,1-3.644-2.66l.615-22.938a2.748,2.748,0,0,1,1.879-2.527c10.47-3.469,21.156-7.036,31.491-10.486l2.558-.855a2.756,2.756,0,0,1,1.595-.043c12.322,3.393,24.354,6.666,34.5,9.421a10.493,10.493,0,0,1,5.933,3.694,8.845,8.845,0,0,1,2,6.356q-.018.21-.048.418l1.976-.4,4.6-.939c4.721-.961,9.789-1.995,14.867-3.041a8.749,8.749,0,0,1,2.127-.263,9.271,9.271,0,0,1,5.657,1.977,9.691,9.691,0,0,1,3.406,5.189,9.863,9.863,0,0,1-6,11.672,2.829,2.829,0,0,1-.409.114c-17.651,3.451-34.993,6.8-49.63,9.624A2.884,2.884,0,0,1,187.885,391.868Zm-5.418-2.161a37.2,37.2,0,0,0,5.151,1.141,1.821,1.821,0,0,0,.266.02h.04a1.874,1.874,0,0,0,.3-.03c14.631-2.822,31.973-6.172,49.623-9.623a1.812,1.812,0,0,0,.262-.073,8.854,8.854,0,0,0,5.366-10.482,8.567,8.567,0,0,0-3.052-4.649,8.266,8.266,0,0,0-5.043-1.766,7.748,7.748,0,0,0-1.893.235l-.021,0c-5.083,1.047-10.155,2.082-14.88,3.044l-4.6.939-3.477.709.185-.765a7.021,7.021,0,0,0,.168-1.031,7.854,7.854,0,0,0-1.784-5.641,9.49,9.49,0,0,0-5.377-3.343l-.024-.006c-10.149-2.756-22.187-6.031-34.515-9.425a1.753,1.753,0,0,0-1.013.027l-2.558.855c-10.335,3.45-21.022,7.017-31.493,10.486a1.745,1.745,0,0,0-1.193,1.6l-.615,22.938a1.74,1.74,0,0,0,2.314,1.689l20.01-7,22.942,8.142.028.014A35.385,35.385,0,0,0,182.468,389.707Zm5.386-2.347-.088-.014a33.187,33.187,0,0,1-4.251-.96l-.011,0a31.112,31.112,0,0,1-4.475-1.832,1.706,1.706,0,0,0-.207-.088l-23.631-8.385a1.731,1.731,0,0,0-.58-.1h0a1.72,1.72,0,0,0-.572.1l-18.207,6.373.515-19.2.333-.11c10.675-3.54,21.292-7.086,31.561-10.515l.5-.167.147.04c12.468,3.432,24.7,6.756,33.962,9.27a6.151,6.151,0,0,1,3.465,2.1,4.52,4.52,0,0,1,1.074,3.191,4.661,4.661,0,0,1-1.878,3.084l-.093.073-.115.024-1.248.256-.073.015-9.523-.889-.026-.005-16.984-3.448a1.735,1.735,0,0,0-2.051,1.358,1.738,1.738,0,0,0,1.358,2.051l17.1,3.471a1.837,1.837,0,0,0,.187.027l9.871.923c.056.006.111.008.165.008a1.712,1.712,0,0,0,.347-.036l1.465-.3.053-.011h.07a1.746,1.746,0,0,0,.685-.144l.048-.021.052-.011c3.486-.715,7.031-1.438,10.459-2.137l2.013-.41c4.861-.99,9.887-2.014,14.971-3.064a4.751,4.751,0,0,1,1.139-.14,4.947,4.947,0,0,1,4.716,3.792,5.522,5.522,0,0,1-.37,3.75,5.072,5.072,0,0,1-2.653,2.532l-.045.018-.047.009c-17.851,3.49-35.586,6.916-49.044,9.51Zm-4.045-1.93a32.056,32.056,0,0,0,4.031.914c13.433-2.59,31.111-6,48.9-9.483a4.08,4.08,0,0,0,2.083-2.02,4.519,4.519,0,0,0,.3-3.068,3.947,3.947,0,0,0-3.748-3.041,3.752,3.752,0,0,0-.907.112l-.02,0c-5.088,1.051-10.118,2.076-14.983,3.067l-2.012.41c-3.412.7-6.939,1.415-10.409,2.127a2.776,2.776,0,0,1-1,.206l-1.416.292a2.692,2.692,0,0,1-.81.044l-9.871-.923a2.831,2.831,0,0,1-.291-.043l-17.1-3.471a2.74,2.74,0,0,1,.541-5.425,2.757,2.757,0,0,1,.55.056l16.958,3.442,9.322.871,1.055-.217a3.609,3.609,0,0,0,1.41-2.314v-.005c.155-1.6-1.242-3.665-3.771-4.222l-.023-.006c-9.23-2.5-21.407-5.814-33.831-9.233l-.213.071c-10.162,3.393-20.666,6.9-31.23,10.4l-.457,17.046,16.838-5.894a2.716,2.716,0,0,1,.9-.154h0a2.728,2.728,0,0,1,.916.158l23.626,8.383a2.688,2.688,0,0,1,.329.14A30.1,30.1,0,0,0,183.809,385.43Z" transform="translate(93.122 600.584)" fill="#fff"></path><path id="Path_115" data-name="Path 115" d="M110.717,100.479a5.887,5.887,0,0,1-3.277-1,6.2,6.2,0,0,1-2.495-3.362,21.714,21.714,0,0,1-5.886-.983,5.878,5.878,0,0,1-8.048,1.181,6.394,6.394,0,0,1-2.131-7.693,23.871,23.871,0,0,1-3.759-5.48,5.87,5.87,0,0,1-3.588-1A6.293,6.293,0,0,1,82.5,71.166a24.32,24.32,0,0,1,1.117-6.591,6.4,6.4,0,0,1-1.183-8.139A5.911,5.911,0,0,1,86.3,53.758a5.844,5.844,0,0,1,3.81.526A22.022,22.022,0,0,1,95,50.853a6.15,6.15,0,0,1,4.735-7,5.856,5.856,0,0,1,4.449.884,6.211,6.211,0,0,1,2.595,3.722,21.8,21.8,0,0,1,5.434,1.126,5.884,5.884,0,0,1,8.4-1.682,6.386,6.386,0,0,1,1.687,8.536l-.025.038a24.033,24.033,0,0,1,3.176,4.75l.19-.039a5.848,5.848,0,0,1,4.449.884,6.226,6.226,0,0,1,2.661,4.022,6.161,6.161,0,0,1-4.6,7.258,24.446,24.446,0,0,1-.87,5.735l.222.157a6.388,6.388,0,0,1,1.687,8.536,5.883,5.883,0,0,1-8.082,1.921,22.259,22.259,0,0,1-4.51,3.45,6.018,6.018,0,0,1-5.873,7.323Zm-1.76-7,.218,1.114a1.78,1.78,0,0,0,.749,1.157,1.4,1.4,0,0,0,1.072.222,1.673,1.673,0,0,0,1.184-2.023l-.227-1.155c-.013-.069-.03-.132-.048-.194a2.239,2.239,0,0,1,1.182-2.661,17.9,17.9,0,0,0,5.994-4.646,2.245,2.245,0,0,1,1.548-.79,2.28,2.28,0,0,1,1.646.556c.04.035.082.069.125.1l.943.664a1.418,1.418,0,0,0,1.1.246,1.463,1.463,0,0,0,.95-.675,1.879,1.879,0,0,0-.477-2.482l-.936-.66a1.507,1.507,0,0,0-.267-.151,2.239,2.239,0,0,1-1.2-2.8,19.986,19.986,0,0,0,1.141-7.724,2.241,2.241,0,0,1,2.179-2.348,1.323,1.323,0,0,0,.242-.024l1.1-.223a1.675,1.675,0,0,0,1.184-2.024,1.79,1.79,0,0,0-.75-1.157,1.4,1.4,0,0,0-1.07-.221h0l-1.1.223a1.417,1.417,0,0,0-.3.1,2.241,2.241,0,0,1-3.009-1.182,19.587,19.587,0,0,0-4.285-6.437,2.24,2.24,0,0,1-.1-3.056,1.7,1.7,0,0,0,.158-.206l.614-.973a1.88,1.88,0,0,0-.476-2.482,1.416,1.416,0,0,0-1.1-.246,1.458,1.458,0,0,0-.949.675l-.617.977a1.808,1.808,0,0,0-.131.26,2.237,2.237,0,0,1-2.981,1.183,17.82,17.82,0,0,0-7.322-1.539,2.228,2.228,0,0,1-2.242-1.962l-.018-.133-.227-1.157a1.789,1.789,0,0,0-.75-1.158,1.4,1.4,0,0,0-1.07-.221,1.673,1.673,0,0,0-1.185,2.023l.259,1.276a2.248,2.248,0,0,1-1.3,2.664,17.771,17.771,0,0,0-6.336,4.46,2.237,2.237,0,0,1-2.94.319l-.841-.591a1.421,1.421,0,0,0-1.1-.246,1.463,1.463,0,0,0-.95.675,1.879,1.879,0,0,0,.477,2.482l.874.615a2.241,2.241,0,0,1,.794,2.657A19.925,19.925,0,0,0,86.995,72.8,2.241,2.241,0,0,1,85.2,75.083l-.747.152a1.675,1.675,0,0,0-1.184,2.024,1.782,1.782,0,0,0,.749,1.156,1.4,1.4,0,0,0,1.071.222L86,78.451a2.24,2.24,0,0,1,2.519,1.342,19.546,19.546,0,0,0,4.686,6.835,2.237,2.237,0,0,1,.357,2.825l-.449.712a1.877,1.877,0,0,0,.477,2.482,1.415,1.415,0,0,0,1.1.246,1.463,1.463,0,0,0,.95-.675l.595-.943c.019-.03.038-.062.057-.09a2.234,2.234,0,0,1,2.7-.833,17.328,17.328,0,0,0,7.618,1.257,2.231,2.231,0,0,1,2.326,1.766.934.934,0,0,0,.015.1Zm17.127-30.09h.011Z" transform="translate(132.578 827.261)" fill="#05f"></path><path id="Path_115_-_Outline" data-name="Path 115 - Outline" d="M110.718,100.979h-.073a6.394,6.394,0,0,1-3.481-1.088,6.646,6.646,0,0,1-2.581-3.29,22.277,22.277,0,0,1-5.349-.9,6.318,6.318,0,0,1-3.568,2.072,6.5,6.5,0,0,1-1.253.123,6.381,6.381,0,0,1-3.689-1.18,6.761,6.761,0,0,1-2.611-3.76,6.933,6.933,0,0,1,.187-4.239,24.433,24.433,0,0,1-3.481-5.075,6.381,6.381,0,0,1-3.562-1.088,6.8,6.8,0,0,1,.76-11.722,24.883,24.883,0,0,1,1.034-6.106,6.906,6.906,0,0,1-1.035-8.56,6.4,6.4,0,0,1,5.438-3.025,6.281,6.281,0,0,1,2.567.544,22.6,22.6,0,0,1,4.437-3.117A6.793,6.793,0,0,1,95.584,46.1a6.369,6.369,0,0,1,8.873-1.772,6.72,6.72,0,0,1,2.708,3.669,22.366,22.366,0,0,1,4.842,1,6.375,6.375,0,0,1,8.891-1.5,6.9,6.9,0,0,1,1.987,8.935,24.617,24.617,0,0,1,2.833,4.234,6.331,6.331,0,0,1,4.645.992A6.722,6.722,0,0,1,133.238,66a6.8,6.8,0,0,1-.927,4.978,6.424,6.424,0,0,1-3.682,2.77,25.02,25.02,0,0,1-.782,5.135,6.9,6.9,0,0,1,1.759,9.167,6.379,6.379,0,0,1-8.426,2.275,22.825,22.825,0,0,1-4.042,3.087,6.79,6.79,0,0,1-1.04,4.621,6.4,6.4,0,0,1-4.107,2.818A6.7,6.7,0,0,1,110.718,100.979ZM98.879,94.55l.33.1a21.278,21.278,0,0,0,5.751.96l.359.01.105.343a5.672,5.672,0,0,0,2.294,3.092,5.394,5.394,0,0,0,3,.92h.027a5.519,5.519,0,0,0,5.355-6.732l-.064-.347.305-.177a21.822,21.822,0,0,0,4.408-3.373l.278-.276.334.2a5.383,5.383,0,0,0,2.808.8,5.395,5.395,0,0,0,4.591-2.558,5.883,5.883,0,0,0-1.552-7.861l-.51-.36.093-.339a24.014,24.014,0,0,0,.852-5.618l.012-.389.381-.083a5.42,5.42,0,0,0,3.429-2.424,5.8,5.8,0,0,0,.79-4.249,5.729,5.729,0,0,0-2.447-3.7,5.332,5.332,0,0,0-4.071-.81l-.564.116-.173-.34a23.608,23.608,0,0,0-3.11-4.651l-.245-.286.229-.348a5.88,5.88,0,0,0-1.554-7.856,5.38,5.38,0,0,0-3.111-1,5.4,5.4,0,0,0-4.581,2.541l-.212.333-.373-.128a21.363,21.363,0,0,0-5.309-1.1l-.361-.028-.086-.352a5.734,5.734,0,0,0-2.386-3.424,5.374,5.374,0,0,0-7.49,1.5,5.8,5.8,0,0,0-.922,4.122l.054.355-.319.164a21.592,21.592,0,0,0-4.777,3.353l-.256.237-.311-.158a5.308,5.308,0,0,0-2.429-.585A5.4,5.4,0,0,0,82.862,56.7a5.9,5.9,0,0,0,1.089,7.5l.246.215-.1.312A23.884,23.884,0,0,0,83,71.182l-.01.324-.3.123a5.793,5.793,0,0,0-.884,10.1,5.4,5.4,0,0,0,3.285.913l.327-.017.146.293a23.433,23.433,0,0,0,3.68,5.366l.218.239-.128.3a5.911,5.911,0,0,0-.262,3.881A5.759,5.759,0,0,0,91.3,95.9a5.387,5.387,0,0,0,3.113,1,5.5,5.5,0,0,0,1.058-.1,5.344,5.344,0,0,0,3.2-1.975ZM110.718,96.5h0a1.913,1.913,0,0,1-1.07-.334,2.275,2.275,0,0,1-.964-1.478l-.256-1.309h0a1.721,1.721,0,0,0-1.667-1.273c-.037,0-.075,0-.113,0-.366.022-.736.034-1.1.034a17.887,17.887,0,0,1-6.738-1.326,1.731,1.731,0,0,0-2.1.646c-.012.017-.02.031-.029.046l-.022.035-.594.942a1.956,1.956,0,0,1-1.276.9,1.871,1.871,0,0,1-.363.036,1.94,1.94,0,0,1-1.121-.364,2.389,2.389,0,0,1-.611-3.158l.449-.711a1.74,1.74,0,0,0-.277-2.194,20.039,20.039,0,0,1-4.805-7.009A1.738,1.738,0,0,0,86.1,78.94l-.912.186a1.9,1.9,0,0,1-.376.038,1.932,1.932,0,0,1-1.074-.335,2.278,2.278,0,0,1-.961-1.475,2.173,2.173,0,0,1,1.575-2.61l.747-.152A1.732,1.732,0,0,0,86.5,72.817a20.422,20.422,0,0,1,1.416-8.423,1.735,1.735,0,0,0-.617-2.064l-.874-.615a2.392,2.392,0,0,1-.612-3.157,1.956,1.956,0,0,1,1.276-.9,1.858,1.858,0,0,1,.362-.036,1.95,1.95,0,0,1,1.121.363l.842.591a1.737,1.737,0,0,0,2.283-.247,18.269,18.269,0,0,1,6.514-4.584,1.748,1.748,0,0,0,1.012-2.071l-.007-.031-.259-1.276a2.174,2.174,0,0,1,1.576-2.612,1.867,1.867,0,0,1,.376-.039,1.938,1.938,0,0,1,1.069.333,2.286,2.286,0,0,1,.964,1.478l.232,1.186.019.138a1.729,1.729,0,0,0,1.727,1.524h.019a18.343,18.343,0,0,1,7.526,1.582,1.74,1.74,0,0,0,1.352.029,1.753,1.753,0,0,0,.963-.949,2.282,2.282,0,0,1,.168-.332l.618-.979a1.949,1.949,0,0,1,1.275-.9,1.884,1.884,0,0,1,.364-.036,1.944,1.944,0,0,1,1.12.363,2.393,2.393,0,0,1,.611,3.157l-.614.973a2.166,2.166,0,0,1-.2.266,1.745,1.745,0,0,0,.08,2.376,20.088,20.088,0,0,1,4.394,6.6,1.743,1.743,0,0,0,.972.956,1.711,1.711,0,0,0,.634.121,1.767,1.767,0,0,0,.731-.16,1.909,1.909,0,0,1,.4-.136l1.155-.234a1.908,1.908,0,0,1,1.393.3,2.286,2.286,0,0,1,.964,1.477,2.173,2.173,0,0,1-1.575,2.611l-1.1.223a1.793,1.793,0,0,1-.329.034,1.741,1.741,0,0,0-1.692,1.824,20.484,20.484,0,0,1-1.169,7.916,1.746,1.746,0,0,0,.934,2.175,2,2,0,0,1,.353.2l.936.66a2.392,2.392,0,0,1,.612,3.157,1.956,1.956,0,0,1-1.276.9,1.852,1.852,0,0,1-.362.036,1.942,1.942,0,0,1-1.122-.364l-.947-.667c-.053-.038-.108-.082-.162-.129A1.775,1.775,0,0,0,120.661,85a1.757,1.757,0,0,0-1.2.614,18.394,18.394,0,0,1-6.161,4.775,1.729,1.729,0,0,0-.918,2.066c.021.071.043.152.06.245l.226,1.151a2.173,2.173,0,0,1-1.575,2.609A1.9,1.9,0,0,1,110.718,96.5Zm-1.266-3.1.214,1.092a1.283,1.283,0,0,0,.536.837.929.929,0,0,0,.516.166.747.747,0,0,0,.179-.018,1.176,1.176,0,0,0,.793-1.437l-.227-1.154c-.01-.055-.024-.1-.038-.151a2.723,2.723,0,0,1,1.447-3.251,17.4,17.4,0,0,0,5.828-4.518A2.763,2.763,0,0,1,120.592,84h.011a2.8,2.8,0,0,1,2,.68c.028.025.058.048.085.068l.94.662a.924.924,0,0,0,.713.165.967.967,0,0,0,.625-.452,1.385,1.385,0,0,0-.342-1.806l-.936-.66a1,1,0,0,0-.178-.1,2.751,2.751,0,0,1-1.473-3.426,19.489,19.489,0,0,0,1.112-7.532,2.741,2.741,0,0,1,2.665-2.872.892.892,0,0,0,.153-.014l1.1-.224a1.176,1.176,0,0,0,.793-1.438,1.292,1.292,0,0,0-.537-.837.893.893,0,0,0-.691-.147l-.052.01-1.049.213a.924.924,0,0,0-.188.065,2.775,2.775,0,0,1-1.149.251,2.7,2.7,0,0,1-1-.19,2.746,2.746,0,0,1-1.531-1.506,19.093,19.093,0,0,0-4.176-6.274,2.747,2.747,0,0,1-.128-3.738,1.273,1.273,0,0,0,.111-.143l.615-.974a1.386,1.386,0,0,0-.341-1.806.925.925,0,0,0-.715-.164.96.96,0,0,0-.622.45l-.618.978a1.326,1.326,0,0,0-.092.186,2.736,2.736,0,0,1-2.528,1.686,2.718,2.718,0,0,1-1.119-.239,17.348,17.348,0,0,0-7.109-1.5,2.743,2.743,0,0,1-2.746-2.4l-.016-.116-.224-1.142a1.293,1.293,0,0,0-.537-.839.893.893,0,0,0-.691-.147,1.176,1.176,0,0,0-.8,1.437l.255,1.257a2.751,2.751,0,0,1-1.6,3.24,17.276,17.276,0,0,0-6.159,4.335,2.737,2.737,0,0,1-3.6.39l-.84-.591a.928.928,0,0,0-.715-.165.967.967,0,0,0-.625.451A1.385,1.385,0,0,0,87,60.9l.874.615a2.732,2.732,0,0,1,.971,3.25,19.428,19.428,0,0,0-1.346,8.013,2.727,2.727,0,0,1-2.192,2.8l-.746.152a1.177,1.177,0,0,0-.793,1.438A1.286,1.286,0,0,0,84.3,78a.936.936,0,0,0,.517.165.9.9,0,0,0,.177-.018l.911-.186A2.738,2.738,0,0,1,88.985,79.6a19.046,19.046,0,0,0,4.566,6.662,2.741,2.741,0,0,1,.436,3.456l-.448.711a1.383,1.383,0,0,0,.342,1.806.923.923,0,0,0,.714.164.967.967,0,0,0,.624-.451l.612-.97c.016-.027.033-.053.049-.077a2.731,2.731,0,0,1,3.307-1.015,16.889,16.889,0,0,0,6.361,1.253c.344,0,.693-.011,1.037-.032.057,0,.117-.006.175-.006a2.716,2.716,0,0,1,2.67,2.165l.008.037,0,.034c0,.01,0,.021.005.031ZM126.1,63.887h-.011v-1h.011Z" transform="translate(132.578 827.261)" fill="#fff"></path><path id="Path_116" data-name="Path 116" d="M148.854,130.881a12.038,12.038,0,0,1-6.7-2.044,12.487,12.487,0,0,1,4.313-22.563,12.018,12.018,0,0,1,9.128,1.8,12.412,12.412,0,0,1-6.743,22.811Zm.037-20.373a7.626,7.626,0,0,0-1.528.156,8.009,8.009,0,0,0-2.724,14.447,7.571,7.571,0,0,0,5.751,1.136,8.009,8.009,0,0,0,2.72-14.448,7.577,7.577,0,0,0-4.22-1.291Z" transform="translate(89.511 780.917)" fill="#05f"></path><path id="Path_116_-_Outline" data-name="Path 116 - Outline" d="M148.854,131.381a12.544,12.544,0,0,1-6.976-2.128,12.987,12.987,0,0,1,4.491-23.469,12.693,12.693,0,0,1,2.532-.257,12.54,12.54,0,0,1,6.974,2.127,12.912,12.912,0,0,1-7.021,23.727Zm.047-24.853a11.691,11.691,0,0,0-2.332.237,11.987,11.987,0,0,0-4.136,21.657,11.548,11.548,0,0,0,6.421,1.96,11.763,11.763,0,0,0,2.331-.237,11.987,11.987,0,0,0,4.134-21.658A11.543,11.543,0,0,0,148.9,106.528Zm-.038,20.373a8.088,8.088,0,0,1-4.5-1.375,8.509,8.509,0,0,1,2.9-15.353,8.15,8.15,0,0,1,1.628-.166h0a8.076,8.076,0,0,1,4.5,1.375,8.508,8.508,0,0,1-2.9,15.353A8.176,8.176,0,0,1,148.863,126.9Zm.028-15.893a7.151,7.151,0,0,0-1.428.146,7.509,7.509,0,0,0-2.546,13.541,7.091,7.091,0,0,0,3.946,1.206,7.173,7.173,0,0,0,1.427-.145,7.509,7.509,0,0,0,2.543-13.542,7.08,7.08,0,0,0-3.942-1.207Z" transform="translate(89.511 780.917)" fill="#fff"></path></g></g></svg> 