<?xml version="1.0" encoding="UTF-8"?> <svg xmlns="http://www.w3.org/2000/svg" xmlns:xlink="http://www.w3.org/1999/xlink" width="90" height="90" viewBox="0 0 90 90"><defs><clipPath id="clip-path"><rect id="Rectangle_53" data-name="Rectangle 53" width="90" height="90" transform="translate(100 470)" fill="#fff" stroke="#707070" stroke-width="1"></rect></clipPath></defs><g id="Mask_Group_20" data-name="Mask Group 20" transform="translate(-100 -470)" clip-path="url(#clip-path)"><g id="Group_20" data-name="Group 20" transform="translate(600.33 358.8)"><path id="Path_54" data-name="Path 54" d="M70.088,107.7c-.306.531-.322.628-.854.9v5.54a5.313,5.313,0,0,1-5.3,5.3H29.874a1.3,1.3,0,0,1-.9-.37l-14.3-14.317a1.24,1.24,0,0,1-.37-.9V62.7a5.313,5.313,0,0,1,5.3-5.3H63.936a5.313,5.313,0,0,1,5.3,5.3V79.109l7.473-12.948a3.62,3.62,0,0,1,5.009-1.288L88.4,68.738h0a3.617,3.617,0,0,1,1.321,4.944h0L70.136,107.631a.222.222,0,0,1-.048.064Zm-3.35,2.255-4.606,2.464a3.615,3.615,0,0,1-5.331-3.157l-.016-1.015h-6.41a1.258,1.258,0,0,1-1.256-1.256V98.081a1.258,1.258,0,0,1,1.256-1.256h8.6L66.722,83.41V62.7a2.8,2.8,0,0,0-2.8-2.8H19.6a2.815,2.815,0,0,0-2.8,2.8v39.924h9.019a5.313,5.313,0,0,1,5.3,5.3v9.035H63.936a2.815,2.815,0,0,0,2.8-2.8Zm-9.985-4.2-.048-4.59a2.347,2.347,0,0,1,.451-1.143l.387-.66H51.631v6.394Zm2.448-3.463.081,6.957a1.129,1.129,0,0,0,1.659.982l5.782-3.092v-.644a19.822,19.822,0,0,0-3.269-2.351h0a19.553,19.553,0,0,0-4.252-1.852Zm27.958-31.4-6.748-3.9a1.149,1.149,0,0,0-1.546.419L60.07,99.949a22.778,22.778,0,0,1,4.638,2.029h0a21.527,21.527,0,0,1,4.058,3h0L87.562,72.426h0a1.119,1.119,0,0,0-.4-1.546ZM42.21,73.473a1.256,1.256,0,0,1,0,2.512H25.863a1.256,1.256,0,1,1,0-2.512Zm0,29.166a1.256,1.256,0,1,1,0,2.512H34.947a1.256,1.256,0,1,1,0-2.512Zm0-14.591a1.256,1.256,0,1,1,0,2.512H25.863a1.256,1.256,0,1,1,0-2.512Zm15.815-3.833H51.631v6.394h6.394Zm-7.634-2.5h8.89a1.258,1.258,0,0,1,1.256,1.256v8.906a1.258,1.258,0,0,1-1.256,1.256h-8.89a1.258,1.258,0,0,1-1.256-1.256V82.975a1.248,1.248,0,0,1,1.256-1.256ZM58.025,69.06H51.631v6.394h6.394Zm-7.634-2.5h8.89a1.258,1.258,0,0,1,1.256,1.256v8.906a1.258,1.258,0,0,1-1.256,1.256h-8.89a1.258,1.258,0,0,1-1.256-1.256V67.82a1.258,1.258,0,0,1,1.256-1.256ZM28.617,115.185v-7.263a2.815,2.815,0,0,0-2.8-2.8H18.568Z" transform="translate(-507.63 67.8)" fill="#1c54f8"></path></g></g></svg> 