<?xml version="1.0" encoding="UTF-8"?> <svg xmlns="http://www.w3.org/2000/svg" xmlns:xlink="http://www.w3.org/1999/xlink" width="60" height="60" viewBox="0 0 60 60"><defs><clipPath id="clip-path"><rect id="Rectangle_17" data-name="Rectangle 17" width="60" height="60" transform="translate(78 444)" fill="#fff" stroke="#707070" stroke-width="1"></rect></clipPath></defs><g id="Mask_Group_10" data-name="Mask Group 10" transform="translate(-78 -444)" clip-path="url(#clip-path)"><g id="Group_11" data-name="Group 11" transform="translate(-159.097 -849.575)"><path id="Path_39" data-name="Path 39" d="M626.4,617.981a6.32,6.32,0,1,1,6.32-6.32A6.32,6.32,0,0,1,626.4,617.981Zm0-10.855a4.535,4.535,0,1,0,4.535,4.535A4.535,4.535,0,0,0,626.4,607.126Z" transform="translate(-345.942 724.325)" fill="#1c54f8" stroke="#fff" stroke-width="0.4"></path><path id="Path_40" data-name="Path 40" d="M677.805,680.35a.89.89,0,0,1-.632-.261l-1.678-1.68a.893.893,0,0,1,1.263-1.263l1.048,1.048,2.389-2.389a.893.893,0,0,1,1.263,1.263l-3.021,3.021A.892.892,0,0,1,677.805,680.35Z" transform="translate(-398.017 658.039)" fill="#1c54f8" stroke="#fff" stroke-width="0.4"></path><path id="Path_41" data-name="Path 41" d="M182.747,130.425h-25.48a3.891,3.891,0,0,1-3.888-3.888V87.888A3.891,3.891,0,0,1,157.268,84h25.48a3.891,3.891,0,0,1,3.888,3.888v26.1a.893.893,0,1,1-1.786,0v-26.1a2.1,2.1,0,0,0-2.1-2.1h-25.48a2.1,2.1,0,0,0-2.1,2.1v38.65a2.1,2.1,0,0,0,2.1,2.1h25.48a2.1,2.1,0,0,0,2.1-2.1v-1.7a.893.893,0,1,1,1.786,0v1.7a3.891,3.891,0,0,1-3.888,3.888Z" transform="translate(94.717 1216.575)" fill="#1c54f8" stroke="#fff" stroke-width="0.4"></path><path id="Path_42" data-name="Path 42" d="M382.673,242.356h-15.91a.893.893,0,1,1,0-1.786h15.91a.893.893,0,0,1,0,1.786Z" transform="translate(-105.916 1068.741)" fill="#1c54f8" stroke="#fff" stroke-width="0.4"></path><path id="Path_43" data-name="Path 43" d="M382.673,404.646h-15.91a.893.893,0,1,1,0-1.786h15.91a.893.893,0,0,1,0,1.786Z" transform="translate(-105.916 915.507)" fill="#1c54f8" stroke="#fff" stroke-width="0.4"></path><path id="Path_44" data-name="Path 44" d="M382.673,566.926h-15.91a.893.893,0,1,1,0-1.786h15.91a.893.893,0,0,1,0,1.786Z" transform="translate(-105.916 762.282)" fill="#1c54f8" stroke="#fff" stroke-width="0.4"></path><path id="Path_45" data-name="Path 45" d="M381.126,729.216H366.763a.893.893,0,1,1,0-1.786h14.363a.893.893,0,0,1,0,1.786Z" transform="translate(-105.916 609.048)" fill="#1c54f8" stroke="#fff" stroke-width="0.4"></path><path id="Path_46" data-name="Path 46" d="M225.32,205.033h-4.687a.893.893,0,0,1-.893-.893v-4.687a.893.893,0,0,1,.893-.893h4.687a.893.893,0,0,1,.893.893v4.687A.893.893,0,0,1,225.32,205.033Zm-3.794-1.786h2.9v-2.9h-2.9Z" transform="translate(32.06 1108.407)" fill="#1c54f8" stroke="#fff" stroke-width="0.4"></path><path id="Path_47" data-name="Path 47" d="M225.32,367.323h-4.687a.893.893,0,0,1-.893-.893v-4.687a.893.893,0,0,1,.893-.893h4.687a.893.893,0,0,1,.893.893v4.687A.893.893,0,0,1,225.32,367.323Zm-3.794-1.786h2.9v-2.9h-2.9Z" transform="translate(32.06 955.173)" fill="#1c54f8" stroke="#fff" stroke-width="0.4"></path><path id="Path_48" data-name="Path 48" d="M225.32,529.6h-4.687a.893.893,0,0,1-.893-.893v-4.687a.893.893,0,0,1,.893-.893h4.687a.893.893,0,0,1,.893.893v4.687A.893.893,0,0,1,225.32,529.6Zm-3.794-1.786h2.9v-2.9h-2.9Z" transform="translate(32.06 801.948)" fill="#1c54f8" stroke="#fff" stroke-width="0.4"></path><path id="Path_49" data-name="Path 49" d="M225.32,691.893h-4.687a.893.893,0,0,1-.893-.893v-4.687a.893.893,0,0,1,.893-.893h4.687a.893.893,0,0,1,.893.893V691A.893.893,0,0,1,225.32,691.893Zm-3.794-1.786h2.9v-2.9h-2.9Z" transform="translate(32.06 648.714)" fill="#1c54f8" stroke="#fff" stroke-width="0.4"></path></g></g></svg> 