<?xml version="1.0" encoding="UTF-8"?> <svg xmlns="http://www.w3.org/2000/svg" xmlns:xlink="http://www.w3.org/1999/xlink" width="90" height="90" viewBox="0 0 90 90"><defs><clipPath id="clip-path"><rect id="Rectangle_1" data-name="Rectangle 1" width="90" height="90" transform="translate(0.181 35.566)" fill="none"></rect></clipPath></defs><g id="Group_2" data-name="Group 2" transform="translate(-0.181 -35.566)"><g id="Group_1" data-name="Group 1" clip-path="url(#clip-path)"><path id="Path_1" data-name="Path 1" d="M90.175,116.388a6.72,6.72,0,0,0-2.393-4.827L77.521,102.91A14.333,14.333,0,0,0,66.212,82.255v-4.67a1.028,1.028,0,0,0-.006-.11c0-.025-.007-.051-.012-.077l0-.029a.846.846,0,0,0-.023-.09l0-.014a.779.779,0,0,0-.032-.089l0-.011c-.012-.028-.025-.054-.039-.081l-.008-.016a.721.721,0,0,0-.042-.07l-.013-.022c-.015-.022-.031-.042-.046-.063l-.017-.023c-.023-.028-.047-.054-.072-.079L53.752,64.677h0a1.025,1.025,0,0,0-.078-.07.248.248,0,0,0-.026-.019c-.02-.016-.04-.031-.06-.044l-.025-.015-.068-.041-.018-.009-.079-.037-.014-.005c-.029-.011-.058-.022-.087-.031l-.013,0a.913.913,0,0,0-.09-.023l-.029,0-.078-.011a1,1,0,0,0-.11-.006H41.414a15.637,15.637,0,1,0-24.569,13.9,3.254,3.254,0,0,0-.109,4.464,3.264,3.264,0,0,0,2.437,5.442h.5a4.366,4.366,0,0,0,.8,2.5,4.412,4.412,0,0,0,.926.958v26.828a3.582,3.582,0,0,0,3.575,3.58H55.848a3.585,3.585,0,0,0,3.581-3.58v-2.99h3.2a3.582,3.582,0,0,0,3.58-3.575v-1.1a14.351,14.351,0,0,0,4.857-1.415l8.651,10.261a6.706,6.706,0,0,0,4.821,2.4q.132.006.264.006a5.193,5.193,0,0,0,5.372-5.637Zm-16.9-11.272a12.162,12.162,0,1,1,0-17.2,12.179,12.179,0,0,1,0,17.2ZM54.072,68.1l8.394,8.39H54.4a.33.33,0,0,1-.325-.318V68.1Zm-41.7-2.647A13.446,13.446,0,1,1,32.207,77.282h-5.29v-9.1h5a1.1,1.1,0,0,0,0-2.194H19.728a1.1,1.1,0,1,0,0,2.194h5v9.1h-5.29a13.408,13.408,0,0,1-7.061-11.831Zm5.724,15.1a1.09,1.09,0,0,1,1.076-1.076h13.29a1.076,1.076,0,0,1,0,2.152H19.172A1.077,1.077,0,0,1,18.1,80.551m0,4.346a1.089,1.089,0,0,1,1.076-1.076h13.29a1.076,1.076,0,0,1,0,2.152H19.172A1.09,1.09,0,0,1,18.1,84.9m11.683,3.269a2.174,2.174,0,0,1-2.16,2.147h-3.6a2.138,2.138,0,0,1-.981-.235L23,90.055a2.165,2.165,0,0,1-.738-.658,2.14,2.14,0,0,1-.4-1.23h7.919Zm27.456,30.28a1.406,1.406,0,0,1-1.388,1.388H24.97a1.386,1.386,0,0,1-1.381-1.388V92.483a4.143,4.143,0,0,0,.433.024h3.6a4.31,4.31,0,0,0,.558-.037v19.412a3.579,3.579,0,0,0,3.575,3.575H57.237v2.99Zm5.4-5.182H31.751a1.384,1.384,0,0,1-1.382-1.382V91.519a4.33,4.33,0,0,0,.8-.858,4.375,4.375,0,0,0,.8-2.5h.494A3.265,3.265,0,0,0,34.9,82.724a3.257,3.257,0,0,0-.107-4.462,15.569,15.569,0,0,0,6.626-11.714H51.879V76.17A2.517,2.517,0,0,0,54.4,78.682h9.621v3.5a14.345,14.345,0,0,0,0,28.662v1.033a1.385,1.385,0,0,1-1.387,1.382Zm24.487,5.7a3.293,3.293,0,0,1-2.485.868,4.518,4.518,0,0,1-3.238-1.618l-8.419-9.987a14.141,14.141,0,0,0,3.4-3.4l9.985,8.418a4.518,4.518,0,0,1,1.617,3.243,3.288,3.288,0,0,1-.865,2.481M59.235,91.082a7.687,7.687,0,1,0,10.87,0,7.707,7.707,0,0,0-10.87,0Zm9.319,1.551a5.494,5.494,0,1,1-7.769,0,5.46,5.46,0,0,1,7.769,0ZM39.2,77.125a1.1,1.1,0,0,1,1.1-1.1h6.294a1.1,1.1,0,1,1,0,2.193H40.3a1.1,1.1,0,0,1-1.1-1.1m-.342,7.208a1.1,1.1,0,0,1,1.1-1.1H50.6a1.1,1.1,0,1,1,0,2.194H39.954a1.1,1.1,0,0,1-1.1-1.1M34.7,91.541a1.1,1.1,0,0,1,1.1-1.1H47.479a1.1,1.1,0,0,1,0,2.194H35.8a1.1,1.1,0,0,1-1.1-1.1m0,7.208a1.1,1.1,0,0,1,1.1-1.1H47.328a1.1,1.1,0,1,1,0,2.193H35.8a1.1,1.1,0,0,1-1.1-1.1m15.8,7.207a1.1,1.1,0,0,1-1.1,1.1H35.8a1.1,1.1,0,0,1,0-2.194H49.4a1.1,1.1,0,0,1,1.1,1.1M24.724,45.083V40.909a1.1,1.1,0,1,1,2.194,0v4.174a1.1,1.1,0,1,1-2.194,0M12.6,44.745a1.1,1.1,0,0,1,1.9-1.1l2.085,3.614a1.1,1.1,0,0,1-1.9,1.1ZM9.13,55.816a1.1,1.1,0,0,1-1.5.4L4.018,54.133a1.1,1.1,0,1,1,1.095-1.9l3.614,2.084a1.1,1.1,0,0,1,.4,1.5M6.549,65.451a1.1,1.1,0,0,1-1.1,1.1H1.278a1.1,1.1,0,1,1,0-2.193H5.453A1.1,1.1,0,0,1,6.549,65.451Zm35.962-9.635a1.1,1.1,0,0,1,.4-1.5l3.609-2.084a1.1,1.1,0,1,1,1.1,1.9l-3.609,2.085a1.095,1.095,0,0,1-1.5-.4Zm-7.457-8.553,2.085-3.614a1.1,1.1,0,0,1,1.9,1.1l-2.085,3.614a1.1,1.1,0,0,1-1.9-1.1" fill="#1a53f6"></path><path id="Path_2" data-name="Path 2" d="M90.175,116.388a6.72,6.72,0,0,0-2.393-4.827L77.521,102.91A14.333,14.333,0,0,0,66.212,82.255v-4.67a1.028,1.028,0,0,0-.006-.11c0-.025-.007-.051-.012-.077l0-.029a.846.846,0,0,0-.023-.09l0-.014a.779.779,0,0,0-.032-.089l0-.011c-.012-.028-.025-.054-.039-.081l-.008-.016a.721.721,0,0,0-.042-.07l-.013-.022c-.015-.022-.031-.042-.046-.063l-.017-.023c-.023-.028-.047-.054-.072-.079L53.752,64.677h0a1.025,1.025,0,0,0-.078-.07.248.248,0,0,0-.026-.019c-.02-.016-.04-.031-.06-.044l-.025-.015-.068-.041-.018-.009-.079-.037-.014-.005c-.029-.011-.058-.022-.087-.031l-.013,0a.913.913,0,0,0-.09-.023l-.029,0-.078-.011a1,1,0,0,0-.11-.006H41.414a15.637,15.637,0,1,0-24.569,13.9,3.254,3.254,0,0,0-.109,4.464,3.264,3.264,0,0,0,2.437,5.442h.5a4.366,4.366,0,0,0,.8,2.5,4.412,4.412,0,0,0,.926.958v26.828a3.582,3.582,0,0,0,3.575,3.58H55.848a3.585,3.585,0,0,0,3.581-3.58v-2.99h3.2a3.582,3.582,0,0,0,3.58-3.575v-1.1a14.351,14.351,0,0,0,4.857-1.415l8.651,10.261a6.706,6.706,0,0,0,4.821,2.4q.132.006.264.006a5.193,5.193,0,0,0,5.372-5.637Zm-16.9-11.272a12.162,12.162,0,1,1,0-17.2,12.179,12.179,0,0,1,0,17.2ZM54.072,68.1l8.394,8.39H54.4a.33.33,0,0,1-.325-.318V68.1Zm-41.7-2.647A13.446,13.446,0,1,1,32.207,77.282h-5.29v-9.1h5a1.1,1.1,0,0,0,0-2.194H19.728a1.1,1.1,0,1,0,0,2.194h5v9.1h-5.29a13.408,13.408,0,0,1-7.061-11.831Zm5.724,15.1a1.09,1.09,0,0,1,1.076-1.076h13.29a1.076,1.076,0,0,1,0,2.152H19.172A1.077,1.077,0,0,1,18.1,80.551Zm0,4.346a1.089,1.089,0,0,1,1.076-1.076h13.29a1.076,1.076,0,0,1,0,2.152H19.172A1.09,1.09,0,0,1,18.1,84.9Zm11.683,3.269a2.174,2.174,0,0,1-2.16,2.147h-3.6a2.138,2.138,0,0,1-.981-.235L23,90.055a2.165,2.165,0,0,1-.738-.658,2.14,2.14,0,0,1-.4-1.23h7.919Zm27.456,30.28a1.406,1.406,0,0,1-1.388,1.388H24.97a1.386,1.386,0,0,1-1.381-1.388V92.483a4.143,4.143,0,0,0,.433.024h3.6a4.31,4.31,0,0,0,.558-.037v19.412a3.579,3.579,0,0,0,3.575,3.575H57.237v2.99Zm5.4-5.182H31.751a1.384,1.384,0,0,1-1.382-1.382V91.519a4.33,4.33,0,0,0,.8-.858,4.375,4.375,0,0,0,.8-2.5h.494A3.265,3.265,0,0,0,34.9,82.724a3.257,3.257,0,0,0-.107-4.462,15.569,15.569,0,0,0,6.626-11.714H51.879V76.17A2.517,2.517,0,0,0,54.4,78.682h9.621v3.5a14.345,14.345,0,0,0,0,28.662v1.033a1.385,1.385,0,0,1-1.387,1.382Zm24.487,5.7a3.293,3.293,0,0,1-2.485.868,4.518,4.518,0,0,1-3.238-1.618l-8.419-9.987a14.141,14.141,0,0,0,3.4-3.4l9.985,8.418a4.518,4.518,0,0,1,1.617,3.243A3.288,3.288,0,0,1,87.117,118.962ZM59.235,91.082a7.687,7.687,0,1,0,10.87,0,7.707,7.707,0,0,0-10.87,0Zm9.319,1.551a5.494,5.494,0,1,1-7.769,0,5.46,5.46,0,0,1,7.769,0ZM39.2,77.125a1.1,1.1,0,0,1,1.1-1.1h6.294a1.1,1.1,0,1,1,0,2.193H40.3A1.1,1.1,0,0,1,39.2,77.125Zm-.342,7.208a1.1,1.1,0,0,1,1.1-1.1H50.6a1.1,1.1,0,1,1,0,2.194H39.954A1.1,1.1,0,0,1,38.858,84.333ZM34.7,91.541a1.1,1.1,0,0,1,1.1-1.1H47.479a1.1,1.1,0,0,1,0,2.194H35.8A1.1,1.1,0,0,1,34.7,91.541Zm0,7.208a1.1,1.1,0,0,1,1.1-1.1H47.328a1.1,1.1,0,1,1,0,2.193H35.8A1.1,1.1,0,0,1,34.7,98.749Zm15.8,7.207a1.1,1.1,0,0,1-1.1,1.1H35.8a1.1,1.1,0,0,1,0-2.194H49.4A1.1,1.1,0,0,1,50.5,105.956ZM24.724,45.083V40.909a1.1,1.1,0,1,1,2.194,0v4.174a1.1,1.1,0,1,1-2.194,0ZM12.6,44.745a1.1,1.1,0,0,1,1.9-1.1l2.085,3.614a1.1,1.1,0,0,1-1.9,1.1ZM9.13,55.816a1.1,1.1,0,0,1-1.5.4L4.018,54.133a1.1,1.1,0,1,1,1.095-1.9l3.614,2.084A1.1,1.1,0,0,1,9.13,55.816ZM6.549,65.451a1.1,1.1,0,0,1-1.1,1.1H1.278a1.1,1.1,0,1,1,0-2.193H5.453A1.1,1.1,0,0,1,6.549,65.451Zm35.962-9.635a1.1,1.1,0,0,1,.4-1.5l3.609-2.084a1.1,1.1,0,1,1,1.1,1.9l-3.609,2.085a1.095,1.095,0,0,1-1.5-.4Zm-7.457-8.553,2.085-3.614a1.1,1.1,0,0,1,1.9,1.1l-2.085,3.614a1.1,1.1,0,0,1-1.9-1.1Z" fill="none" stroke="#1a53f6" stroke-width="0.362"></path></g></g></svg> 