<?xml version="1.0" encoding="UTF-8"?> <svg xmlns="http://www.w3.org/2000/svg" width="60" height="60" viewBox="0 0 60 60" fill="none"><mask id="mask0_1_22" style="mask-type:alpha" maskUnits="userSpaceOnUse" x="0" y="0" width="60" height="60"><rect width="60" height="60" fill="#D9D9D9"></rect></mask><g mask="url(#mask0_1_22)"><path fill-rule="evenodd" clip-rule="evenodd" d="M18.9354 33.1121L25.602 25.1121C25.6685 25.0324 25.7518 24.9685 25.846 24.9249C25.9402 24.8813 26.0428 24.8592 26.1466 24.8601C26.2503 24.861 26.3526 24.8849 26.446 24.9301C26.5394 24.9753 26.6216 25.0406 26.6867 25.1214L33.356 33.1247C33.4409 33.2271 33.4949 33.3514 33.5118 33.4833C33.5286 33.6151 33.5076 33.749 33.4512 33.8694C33.3948 33.9898 33.3053 34.0916 33.1932 34.163C33.0811 34.2344 32.951 34.2725 32.818 34.2727H30.0074V55.1254C30.0074 55.3119 29.9333 55.4908 29.8014 55.6227C29.6695 55.7546 29.4906 55.8287 29.304 55.8287H22.974C22.8815 55.829 22.7898 55.811 22.7043 55.7758C22.6187 55.7406 22.5409 55.6888 22.4754 55.6235C22.4099 55.5581 22.3579 55.4805 22.3224 55.395C22.287 55.3096 22.2687 55.2179 22.2687 55.1254V34.2727H19.46C19.3258 34.2723 19.1945 34.2332 19.0818 34.1602C18.9692 34.0873 18.8799 33.9834 18.8246 33.8611C18.7693 33.7388 18.7503 33.6031 18.77 33.4703C18.7896 33.3375 18.847 33.2132 18.9354 33.1121ZM30.202 16.5974C30.3886 16.5974 30.5675 16.6715 30.6994 16.8034C30.8313 16.9353 30.9054 17.1142 30.9054 17.3007C30.9054 17.4873 30.8313 17.6662 30.6994 17.7981C30.5675 17.93 30.3886 18.0041 30.202 18.0041C30.0155 18.0041 29.8366 17.93 29.7047 17.7981C29.5728 17.6662 29.4987 17.4873 29.4987 17.3007C29.4987 17.1142 29.5728 16.9353 29.7047 16.8034C29.8366 16.6715 30.0155 16.5974 30.202 16.5974ZM33.17 16.5974C33.3566 16.5974 33.5355 16.6715 33.6674 16.8034C33.7993 16.9353 33.8734 17.1142 33.8734 17.3007C33.8734 17.4873 33.7993 17.6662 33.6674 17.7981C33.5355 17.93 33.3566 18.0041 33.17 18.0041C32.9835 18.0041 32.8046 17.93 32.6727 17.7981C32.5408 17.6662 32.4667 17.4873 32.4667 17.3007C32.4667 17.1142 32.5408 16.9353 32.6727 16.8034C32.8046 16.6715 32.9835 16.5974 33.17 16.5974ZM36.1374 16.5974C36.3239 16.5974 36.5028 16.6715 36.6347 16.8034C36.7666 16.9353 36.8407 17.1142 36.8407 17.3007C36.8407 17.4873 36.7666 17.6662 36.6347 17.7981C36.5028 17.93 36.3239 18.0041 36.1374 18.0041C35.9508 18.0041 35.7719 17.93 35.64 17.7981C35.5081 17.6662 35.434 17.4873 35.434 17.3007C35.434 17.1142 35.5081 16.9353 35.64 16.8034C35.7719 16.6715 35.9508 16.5974 36.1374 16.5974ZM39.1054 16.5974C39.2919 16.5974 39.4708 16.6715 39.6027 16.8034C39.7346 16.9353 39.8087 17.1142 39.8087 17.3007C39.8087 17.4873 39.7346 17.6662 39.6027 17.7981C39.4708 17.93 39.2919 18.0041 39.1054 18.0041C38.9188 18.0041 38.7399 17.93 38.608 17.7981C38.4761 17.6662 38.402 17.4873 38.402 17.3007C38.402 17.1142 38.4761 16.9353 38.608 16.8034C38.7399 16.6715 38.9188 16.5974 39.1054 16.5974ZM30.1974 14.9761C30.0108 14.9761 29.8319 14.902 29.7 14.7701C29.5681 14.6382 29.494 14.4593 29.494 14.2727C29.494 14.0862 29.5681 13.9073 29.7 13.7754C29.8319 13.6435 30.0108 13.5694 30.1974 13.5694H34.076C34.2626 13.5694 34.4415 13.6435 34.5734 13.7754C34.7053 13.9073 34.7794 14.0862 34.7794 14.2727C34.7794 14.4593 34.7053 14.6382 34.5734 14.7701C34.4415 14.902 34.2626 14.9761 34.076 14.9761H30.1974ZM36.158 14.9761C35.9715 14.9761 35.7926 14.902 35.6607 14.7701C35.5288 14.6382 35.4547 14.4593 35.4547 14.2727C35.4547 14.0862 35.5288 13.9073 35.6607 13.7754C35.7926 13.6435 35.9715 13.5694 36.158 13.5694H42.562C42.7486 13.5694 42.9275 13.6435 43.0594 13.7754C43.1913 13.9073 43.2654 14.0862 43.2654 14.2727C43.2654 14.4593 43.1913 14.6382 43.0594 14.7701C42.9275 14.902 42.7486 14.9761 42.562 14.9761H36.158ZM30.1974 11.1234C30.0147 11.1178 29.8413 11.0412 29.7141 10.91C29.5868 10.7788 29.5157 10.6032 29.5157 10.4204C29.5157 10.2376 29.5868 10.062 29.7141 9.93079C29.8413 9.79957 30.0147 9.72304 30.1974 9.71741H37.518C37.6122 9.71451 37.7059 9.73055 37.7938 9.76457C37.8816 9.7986 37.9617 9.84991 38.0293 9.91548C38.0969 9.98105 38.1507 10.0595 38.1874 10.1463C38.2241 10.233 38.243 10.3262 38.243 10.4204C38.243 10.5146 38.2241 10.6078 38.1874 10.6946C38.1507 10.7813 38.0969 10.8598 38.0293 10.9253C37.9617 10.9909 37.8816 11.0422 37.7938 11.0762C37.7059 11.1103 37.6122 11.1263 37.518 11.1234H30.1974ZM39.5974 11.1234C39.4147 11.1178 39.2413 11.0412 39.1141 10.91C38.9868 10.7788 38.9157 10.6032 38.9157 10.4204C38.9157 10.2376 38.9868 10.062 39.1141 9.93079C39.2413 9.79957 39.4147 9.72304 39.5974 9.71741H42.562C42.6562 9.71451 42.7499 9.73055 42.8378 9.76457C42.9256 9.7986 43.0057 9.84991 43.0733 9.91548C43.1409 9.98105 43.1947 10.0595 43.2314 10.1463C43.2681 10.233 43.287 10.3262 43.287 10.4204C43.287 10.5146 43.2681 10.6078 43.2314 10.6946C43.1947 10.7813 43.1409 10.8598 43.0733 10.9253C43.0057 10.9909 42.9256 11.0422 42.8378 11.0762C42.7499 11.1103 42.6562 11.1263 42.562 11.1234H39.5974ZM30.1974 7.27074C30.0147 7.26512 29.8413 7.18858 29.7141 7.05736C29.5868 6.92614 29.5157 6.75053 29.5157 6.56774C29.5157 6.38496 29.5868 6.20935 29.7141 6.07813C29.8413 5.9469 30.0147 5.87037 30.1974 5.86474H32.064C32.1582 5.86184 32.2519 5.87788 32.3398 5.91191C32.4276 5.94593 32.5077 5.99725 32.5753 6.06281C32.6429 6.12838 32.6967 6.20686 32.7334 6.2936C32.7701 6.38033 32.789 6.47356 32.789 6.56774C32.789 6.66193 32.7701 6.75515 32.7334 6.84189C32.6967 6.92863 32.6429 7.00711 32.5753 7.07267C32.5077 7.13824 32.4276 7.18956 32.3398 7.22358C32.2519 7.2576 32.1582 7.27364 32.064 7.27074H30.1974ZM34.1487 7.27074C34.0546 7.27364 33.9608 7.2576 33.873 7.22358C33.7851 7.18956 33.705 7.13824 33.6374 7.07267C33.5698 7.00711 33.5161 6.92863 33.4793 6.84189C33.4426 6.75515 33.4237 6.66193 33.4237 6.56774C33.4237 6.47356 33.4426 6.38033 33.4793 6.2936C33.5161 6.20686 33.5698 6.12838 33.6374 6.06281C33.705 5.99725 33.7851 5.94593 33.873 5.91191C33.9608 5.87788 34.0546 5.86184 34.1487 5.86474H42.562C42.6562 5.86184 42.7499 5.87788 42.8378 5.91191C42.9256 5.94593 43.0057 5.99725 43.0733 6.06281C43.1409 6.12838 43.1947 6.20686 43.2314 6.2936C43.2681 6.38033 43.287 6.47356 43.287 6.56774C43.287 6.66193 43.2681 6.75515 43.2314 6.84189C43.1947 6.92863 43.1409 7.00711 43.0733 7.07267C43.0057 7.13824 42.9256 7.18956 42.8378 7.22358C42.7499 7.2576 42.6562 7.27364 42.562 7.27074H34.1487ZM42.1487 33.4747C40.1127 33.4745 38.1396 34.1802 36.5656 35.4717C34.9916 36.7632 33.9141 38.5606 33.5168 40.5574C33.1195 42.5543 33.4269 44.6272 34.3866 46.4228C35.3463 48.2184 36.899 49.6257 38.78 50.4049C40.6611 51.184 42.7541 51.2868 44.7024 50.6957C46.6507 50.1046 48.3338 48.8562 49.4649 47.1633C50.5959 45.4703 51.1049 43.4375 50.9052 41.4113C50.7054 39.3852 49.8092 37.4909 48.3694 36.0514C47.5534 35.2333 46.5837 34.5845 45.5162 34.1423C44.4486 33.7001 43.3042 33.4732 42.1487 33.4747ZM47.3747 37.0454C48.5839 38.2545 49.3365 39.8456 49.5042 41.5474C49.6718 43.2492 49.2442 44.9565 48.2942 46.3784C47.3442 47.8002 45.9305 48.8487 44.2941 49.3451C42.6577 49.8415 40.8998 49.7552 39.3199 49.1008C37.74 48.4464 36.4359 47.2644 35.6298 45.7563C34.8237 44.2481 34.5655 42.5072 34.8992 40.83C35.2328 39.1528 36.1377 37.6432 37.4596 36.5584C38.7815 35.4736 40.4387 34.8807 42.1487 34.8807C43.1195 34.8794 44.0809 35.0699 44.9778 35.4414C45.8746 35.8129 46.6892 36.358 47.3747 37.0454ZM42.1487 40.5974C41.8136 40.5974 41.4888 40.4812 41.2297 40.2686C40.9706 40.0561 40.7933 39.7602 40.7278 39.4315C40.6624 39.1028 40.713 38.7616 40.8709 38.466C41.0289 38.1705 41.2844 37.9388 41.594 37.8105C41.9036 37.6821 42.2481 37.6651 42.5688 37.7624C42.8896 37.8596 43.1667 38.065 43.3529 38.3436C43.5392 38.6222 43.6231 38.9567 43.5904 39.2903C43.5576 39.6238 43.4103 39.9357 43.1734 40.1727C43.039 40.3075 42.8793 40.4145 42.7034 40.4873C42.5276 40.5602 42.339 40.5976 42.1487 40.5974ZM40.0154 41.0421C39.6504 40.6304 39.4122 40.1221 39.3293 39.5783C39.2464 39.0344 39.3224 38.4782 39.5481 37.9765C39.7738 37.4748 40.1396 37.049 40.6015 36.7503C41.0635 36.4516 41.6019 36.2927 42.152 36.2927C42.7022 36.2927 43.2406 36.4516 43.7025 36.7503C44.1645 37.049 44.5303 37.4748 44.756 37.9765C44.9817 38.4782 45.0577 39.0344 44.9748 39.5783C44.8919 40.1221 44.6536 40.6304 44.2887 41.0421C45.24 41.4589 46.0493 42.1439 46.6176 43.0133C47.1859 43.8827 47.4886 44.8988 47.4887 45.9374C47.4916 46.0316 47.4756 46.1253 47.4415 46.2131C47.4075 46.301 47.3562 46.3811 47.2906 46.4487C47.2251 46.5163 47.1466 46.5701 47.0598 46.6068C46.9731 46.6435 46.8799 46.6624 46.7857 46.6624C46.6915 46.6624 46.5983 46.6435 46.5116 46.6068C46.4248 46.5701 46.3463 46.5163 46.2808 46.4487C46.2152 46.3811 46.1639 46.301 46.1299 46.2131C46.0958 46.1253 46.0798 46.0316 46.0827 45.9374C46.0827 44.8942 45.6683 43.8938 44.9307 43.1561C44.193 42.4185 43.1925 42.0041 42.1494 42.0041C41.1062 42.0041 40.1057 42.4185 39.3681 43.1561C38.6304 43.8938 38.216 44.8942 38.216 45.9374C38.2189 46.0316 38.2029 46.1253 38.1689 46.2131C38.1348 46.301 38.0835 46.3811 38.018 46.4487C37.9524 46.5163 37.8739 46.5701 37.7872 46.6068C37.7004 46.6435 37.6072 46.6624 37.513 46.6624C37.4188 46.6624 37.3256 46.6435 37.2389 46.6068C37.1521 46.5701 37.0737 46.5163 37.0081 46.4487C36.9425 46.3811 36.8912 46.301 36.8572 46.2131C36.8232 46.1253 36.8071 46.0316 36.81 45.9374C36.8104 44.8984 37.1136 43.882 37.6825 43.0126C38.2515 42.1432 39.0614 41.4584 40.0134 41.0421H40.0154ZM51.4634 48.5021C52.4133 47.08 53.0253 45.4595 53.2526 43.7646C53.4799 42.0696 53.3165 40.3451 52.7748 38.723C52.2332 37.1009 51.3276 35.6243 50.1275 34.406C48.9274 33.1877 47.4645 32.26 45.8507 31.6941V27.8314H48.6614C48.7943 27.8312 48.9244 27.7931 49.0365 27.7217C49.1486 27.6503 49.2381 27.5484 49.2945 27.4281C49.3509 27.3077 49.3719 27.1738 49.3551 27.0419C49.3382 26.9101 49.2842 26.7857 49.1994 26.6834L42.5287 18.6781C42.4638 18.597 42.3817 18.5313 42.2883 18.4859C42.1948 18.4405 42.0925 18.4165 41.9886 18.4156C41.8847 18.4147 41.7819 18.4369 41.6878 18.4807C41.5936 18.5245 41.5103 18.5888 41.444 18.6687L34.7774 26.6687C34.6889 26.77 34.6314 26.8946 34.6119 27.0276C34.5923 27.1607 34.6115 27.2965 34.6671 27.419C34.7227 27.5414 34.8124 27.6452 34.9255 27.718C35.0386 27.7908 35.1702 27.8295 35.3047 27.8294H38.1154V31.8141C36.0051 32.63 34.1911 34.0654 32.9119 35.9315C31.6326 37.7977 30.948 40.0072 30.948 42.2697C30.948 44.5323 31.6326 46.7418 32.9119 48.608C34.1911 50.4741 36.0051 51.9095 38.1154 52.7254V55.1254C38.1154 55.3119 38.1895 55.4908 38.3214 55.6227C38.4533 55.7546 38.6322 55.8287 38.8187 55.8287H45.1487C45.3352 55.8287 45.5141 55.7546 45.646 55.6227C45.7779 55.4908 45.852 55.3119 45.852 55.1254V52.8494C46.745 52.5379 47.5946 52.1135 48.38 51.5867L53.786 58.8414C53.8674 58.951 53.9565 59.0546 54.0527 59.1514C54.3383 59.4295 54.6767 59.6476 55.0479 59.7928C55.419 59.9381 55.8156 60.0077 56.214 59.9974C57.0031 59.9864 57.7686 59.7273 58.402 59.2567C58.6824 59.054 58.9298 58.8091 59.1354 58.5307C59.6042 57.8946 59.8608 57.127 59.8687 56.3367C59.8798 55.938 59.811 55.541 59.6661 55.1694C59.5213 54.7977 59.3034 54.4588 59.0254 54.1727C58.9287 54.0764 58.8251 53.9873 58.7154 53.9061L51.4634 48.5021ZM49.492 50.7341C49.6903 50.5625 49.8834 50.3825 50.0714 50.1941C50.2594 50.0056 50.4394 49.8127 50.6114 49.6154L51.0934 49.9747L49.8514 51.2167L49.492 50.7341ZM50.7 52.3561L52.2334 50.8227L56.8467 54.2641L54.1387 56.9721L50.7 52.3587V52.3561ZM54.9927 58.1034L57.9807 55.1161C57.998 55.1321 58.016 55.1487 58.034 55.1674C58.1804 55.3226 58.2942 55.5054 58.3688 55.7052C58.4435 55.905 58.4774 56.1176 58.4687 56.3307C58.4614 56.822 58.2993 57.2984 58.0054 57.6921C57.9434 57.7751 57.8752 57.8533 57.8014 57.9261C57.7286 57.9996 57.6507 58.0678 57.568 58.1301C57.1742 58.4237 56.6979 58.5859 56.2067 58.5934C55.9933 58.6016 55.7804 58.5672 55.5804 58.4922C55.3805 58.4173 55.1974 58.3032 55.042 58.1567C55.024 58.1381 55.0067 58.1207 54.9907 58.1027L54.9927 58.1034ZM39.5207 31.3787V27.1307C39.5205 26.9443 39.4463 26.7656 39.3145 26.6338C39.1826 26.5021 39.0038 26.4281 38.8174 26.4281C38.796 26.4281 38.776 26.4281 38.7554 26.4281H36.802L41.986 20.2074L47.1694 26.4281H45.1474C44.9618 26.4283 44.7838 26.5021 44.6526 26.6333C44.5213 26.7645 44.4475 26.9425 44.4474 27.1281V31.3014C42.8207 30.9624 41.139 30.9879 39.5234 31.3761L39.5207 31.3787ZM44.4447 53.2394V54.4221H39.5207V53.1647C41.1364 53.5529 42.818 53.5784 44.4447 53.2394ZM42.1487 32.4741C39.8822 32.475 37.6861 33.2618 35.9347 34.7004C34.1833 36.139 32.9848 38.1403 32.5436 40.3635C32.1023 42.5866 32.4455 44.8939 33.5148 46.8924C34.584 48.8908 36.3131 50.4567 38.4074 51.3232C40.5017 52.1897 42.8317 52.3032 45.0004 51.6444C47.169 50.9856 49.0421 49.5953 50.3006 47.7102C51.559 45.8252 52.1249 43.5622 51.9019 41.3067C51.6789 39.0512 50.6806 36.9428 49.0774 35.3407C48.1682 34.4301 47.0881 33.7081 45.8991 33.2161C44.71 32.7241 43.4355 32.472 42.1487 32.4741ZM9.9087 27.4394L9.54803 26.4394C12.5044 27.6517 15.7994 27.7536 18.825 26.7263C21.8506 25.699 24.4024 23.6118 26.0094 20.8501C26.018 20.8374 26.0267 20.8241 26.0347 20.8101C27.4953 18.2797 28.0783 15.3374 27.6928 12.4412C27.3073 9.54505 25.975 6.85763 23.9034 4.79741C23.7716 4.6663 23.5931 4.59293 23.4071 4.59343C23.2212 4.59393 23.0431 4.66826 22.912 4.80008C22.7809 4.93189 22.7076 5.11038 22.7081 5.29629C22.7086 5.48221 22.7829 5.6603 22.9147 5.79141C24.7669 7.63263 25.9581 10.0347 26.3028 12.6235C26.6476 15.2122 26.1265 17.8423 24.8207 20.1041L24.8014 20.1394C23.412 22.5243 21.2332 24.3491 18.6415 25.2985C16.0498 26.248 13.2079 26.2624 10.6067 25.3394L11.178 25.2367C11.2686 25.2205 11.355 25.1867 11.4324 25.1371C11.5099 25.0875 11.5768 25.0231 11.6293 24.9476C11.6819 24.8722 11.7191 24.7871 11.7388 24.6973C11.7584 24.6074 11.7602 24.5146 11.744 24.4241C11.7278 24.3336 11.694 24.2471 11.6444 24.1697C11.5948 24.0922 11.5304 24.0253 11.4549 23.9728C11.3795 23.9202 11.2944 23.883 11.2046 23.8634C11.1147 23.8437 11.0219 23.8419 10.9314 23.8581L8.20737 24.3487C8.10153 24.3634 8.00045 24.402 7.91183 24.4617C7.82322 24.5213 7.74942 24.6005 7.69609 24.6931C7.64276 24.7856 7.61131 24.8892 7.60413 24.9958C7.59696 25.1024 7.61425 25.2092 7.6547 25.3081L8.58803 27.9081C8.61903 27.9947 8.66677 28.0743 8.72854 28.1424C8.7903 28.2106 8.86489 28.2659 8.94802 28.3052C9.03116 28.3445 9.12123 28.367 9.21309 28.3715C9.30494 28.376 9.39678 28.3624 9.48337 28.3314C9.56995 28.3004 9.64958 28.2527 9.71772 28.1909C9.78585 28.1291 9.84115 28.0546 9.88046 27.9714C9.91977 27.8883 9.94232 27.7982 9.94682 27.7064C9.95133 27.6145 9.93769 27.5227 9.9067 27.4361L9.9087 27.4394ZM19.2334 0.936743C19.2023 0.850158 19.1887 0.758308 19.1931 0.666438C19.1976 0.574567 19.2201 0.484474 19.2594 0.401304C19.2986 0.318133 19.3539 0.243514 19.422 0.181706C19.4902 0.119898 19.5698 0.0721123 19.6564 0.0410766C19.7429 0.0100409 19.8348 -0.00363692 19.9267 0.000824406C20.0185 0.00528573 20.1086 0.0277987 20.1918 0.0670779C20.275 0.106357 20.3496 0.161633 20.4114 0.22975C20.4732 0.297868 20.521 0.377492 20.552 0.464077L21.498 3.09474C21.5292 3.18132 21.543 3.27319 21.5386 3.3651C21.5342 3.45701 21.5117 3.54715 21.4725 3.63037C21.4332 3.71359 21.3779 3.78825 21.3098 3.85009C21.2417 3.91193 21.162 3.95972 21.0754 3.99074C21.0387 4.00392 21.001 4.01396 20.9627 4.02074L18.2114 4.51674C18.1196 4.53613 18.0248 4.53688 17.9327 4.51896C17.8406 4.50103 17.7531 4.4648 17.6753 4.4124C17.5974 4.36 17.5309 4.29251 17.4797 4.21393C17.4284 4.13534 17.3935 4.04726 17.3769 3.95492C17.3604 3.86258 17.3625 3.76785 17.3832 3.67635C17.404 3.58485 17.4429 3.49845 17.4976 3.42227C17.5524 3.34608 17.6219 3.28167 17.702 3.23286C17.7821 3.18404 17.8712 3.15181 17.964 3.13808L18.5374 3.03474C15.9359 2.11147 13.0936 2.12579 10.5015 3.07522C7.90945 4.02465 5.73038 5.84957 4.3407 8.23474C4.33491 8.24687 4.32846 8.25867 4.32137 8.27008C3.02588 10.5137 2.50224 13.1204 2.83076 15.6902C3.15927 18.2601 4.32181 20.6512 6.14003 22.4967C6.20637 22.562 6.25904 22.6399 6.295 22.7257C6.33095 22.8115 6.34945 22.9037 6.34943 22.9968C6.34941 23.0898 6.33087 23.182 6.29489 23.2678C6.2589 23.3536 6.20619 23.4314 6.13983 23.4967C6.07347 23.5619 5.99479 23.6133 5.90836 23.6479C5.82194 23.6824 5.72951 23.6994 5.63645 23.6978C5.5434 23.6963 5.45158 23.6763 5.36635 23.6389C5.28112 23.6015 5.20419 23.5475 5.14003 23.4801C3.10714 21.4153 1.80744 18.7408 1.44017 15.8666C1.0729 12.9924 1.65832 10.077 3.1067 7.56741C3.1147 7.55341 3.12337 7.54008 3.13203 7.52674C4.73905 4.76476 7.29128 2.67763 10.3173 1.65086C13.3433 0.624091 16.6387 0.727059 19.5947 1.94074L19.2334 0.936743ZM12.5894 14.6894C12.463 14.5565 12.3936 14.3794 12.3959 14.1961C12.3982 14.0127 12.472 13.8374 12.6017 13.7077C12.7313 13.578 12.9065 13.504 13.0899 13.5016C13.2733 13.4992 13.4503 13.5685 13.5834 13.6947L14.0734 14.1847L15.5587 12.6994C15.6234 12.6314 15.701 12.5769 15.7871 12.5394C15.8731 12.5018 15.9658 12.4818 16.0597 12.4807C16.1536 12.4795 16.2467 12.4971 16.3337 12.5325C16.4207 12.5679 16.4996 12.6204 16.566 12.6868C16.6324 12.7532 16.6848 12.8322 16.7201 12.9192C16.7555 13.0062 16.773 13.0994 16.7718 13.1932C16.7705 13.2871 16.7505 13.3798 16.7129 13.4658C16.6753 13.5518 16.6208 13.6294 16.5527 13.6941L14.5707 15.6761C14.5054 15.7414 14.4279 15.7932 14.3425 15.8285C14.2572 15.8639 14.1657 15.8821 14.0734 15.8821C13.981 15.8821 13.8895 15.8639 13.8042 15.8285C13.7189 15.7932 13.6413 15.7414 13.576 15.6761L12.5894 14.6894ZM14.5714 9.57208C15.6392 9.57269 16.6738 9.9435 17.4989 10.6213C18.324 11.2992 18.8885 12.2421 19.0964 13.2895C19.3043 14.3369 19.1426 15.4239 18.6389 16.3655C18.1352 17.3071 17.3206 18.0449 16.334 18.4532C15.3473 18.8616 14.2496 18.9152 13.2278 18.605C12.206 18.2948 11.3234 17.64 10.7303 16.752C10.1372 15.8641 9.87023 14.798 9.97497 13.7353C10.0797 12.6726 10.5496 11.6791 11.3047 10.9241C11.7331 10.4944 12.2423 10.1538 12.803 9.92172C13.3636 9.68968 13.9646 9.57085 14.5714 9.57208ZM16.838 11.9187C17.3633 12.4439 17.6902 13.135 17.763 13.8742C17.8357 14.6135 17.6499 15.355 17.2371 15.9726C16.8243 16.5901 16.2102 17.0454 15.4993 17.2608C14.7884 17.4762 14.0249 17.4384 13.3387 17.1539C12.6526 16.8693 12.0864 16.3557 11.7366 15.7004C11.3868 15.0451 11.2751 14.2888 11.4205 13.5604C11.5659 12.832 11.9594 12.1765 12.534 11.7058C13.1085 11.235 13.8286 10.9781 14.5714 10.9787C14.9924 10.9786 15.4094 11.0615 15.7984 11.2228C16.1873 11.3841 16.5406 11.6206 16.838 11.9187ZM15.678 7.48741C15.6998 7.62137 15.7599 7.74614 15.8511 7.84661C15.9424 7.94707 16.0608 8.01891 16.192 8.05341C16.7343 8.19687 17.2551 8.41187 17.7407 8.69274C17.8562 8.76442 17.99 8.801 18.1258 8.79804C18.2617 8.79508 18.3938 8.75271 18.506 8.67608L19.9167 7.71341L21.0434 8.84008L20.08 10.2501C20.0061 10.3598 19.9646 10.488 19.9603 10.6202C19.9559 10.7524 19.9889 10.8831 20.0554 10.9974C20.3415 11.488 20.5602 12.015 20.7054 12.5641C20.7391 12.6925 20.8086 12.8088 20.9059 12.8992C21.0031 12.9896 21.1241 13.0505 21.2547 13.0747L22.9314 13.3907V14.9847L21.2714 15.2974C21.1374 15.3193 21.0126 15.3795 20.9121 15.4709C20.8116 15.5622 20.7398 15.6807 20.7054 15.8121C20.6329 16.0845 20.5422 16.3518 20.434 16.6121C20.3277 16.8682 20.2047 17.1172 20.066 17.3574C19.9945 17.4729 19.958 17.6067 19.961 17.7425C19.964 17.8784 20.0062 18.0104 20.0827 18.1227L21.046 19.5327L19.9194 20.6594L18.5087 19.7001C18.3995 19.6255 18.2715 19.5833 18.1394 19.5784C18.0073 19.5734 17.8765 19.6059 17.762 19.6721C17.2713 19.9579 16.7443 20.1766 16.1954 20.3221C16.0668 20.3557 15.9505 20.4252 15.8599 20.5225C15.7694 20.6198 15.7084 20.7408 15.684 20.8714L15.368 22.5481H13.774L13.4614 20.8887C13.4397 20.7547 13.3796 20.6298 13.2883 20.5292C13.1971 20.4287 13.0787 20.3567 12.9474 20.3221C12.405 20.1789 11.8841 19.9639 11.3987 19.6827C11.2832 19.6112 11.1493 19.5747 11.0135 19.5778C10.8776 19.5809 10.7455 19.6233 10.6334 19.7001L9.2227 20.6641L8.0967 19.5374L9.05937 18.1274C9.13396 18.0181 9.17612 17.8899 9.18095 17.7577C9.18579 17.6254 9.15311 17.4945 9.0867 17.3801C8.9434 17.1342 8.81689 16.879 8.70803 16.6161C8.60012 16.3557 8.50948 16.0884 8.4367 15.8161C8.40305 15.6875 8.33353 15.5712 8.23627 15.4807C8.139 15.3901 8.018 15.3291 7.88737 15.3047L6.21137 14.9887V13.3907L7.8707 13.0781C8.00466 13.0563 8.12943 12.9962 8.2299 12.905C8.33036 12.8137 8.4022 12.6953 8.4367 12.5641C8.58094 12.022 8.7959 11.5013 9.07603 11.0154C9.14771 10.8999 9.18429 10.7661 9.18133 10.6303C9.17837 10.4944 9.136 10.3623 9.05937 10.2501L8.0967 8.84008L9.2227 7.71341L10.6334 8.67608C10.7427 8.75067 10.8708 8.79282 11.0031 8.79766C11.1353 8.8025 11.2662 8.76982 11.3807 8.70341C11.6263 8.56011 11.8813 8.4336 12.144 8.32474C12.4055 8.21662 12.6739 8.12598 12.9474 8.05341C13.0758 8.01965 13.192 7.95008 13.2824 7.85283C13.3728 7.75557 13.4337 7.63462 13.458 7.50408L13.774 5.82808H15.368L15.6807 7.48741H15.678ZM16.69 5.28208L16.9807 6.82408C17.1687 6.88541 17.3534 6.95741 17.5334 7.02874C17.7134 7.10008 17.894 7.18608 18.0667 7.27541L19.364 6.38941C19.567 6.2517 19.8115 6.18883 20.0557 6.21157C20.2999 6.23432 20.5287 6.34126 20.7027 6.51408L22.24 8.04741C22.4135 8.22093 22.5209 8.44955 22.5438 8.69383C22.5667 8.9381 22.5036 9.1827 22.3654 9.38541L21.4794 10.6827C21.5683 10.8574 21.6505 11.0352 21.726 11.2161C21.8007 11.3961 21.8694 11.5807 21.9307 11.7694L23.4727 12.0601C23.716 12.1045 23.9359 12.2332 24.0937 12.4236C24.2514 12.6141 24.337 12.8541 24.3354 13.1014V15.2747C24.3353 15.5206 24.2492 15.7586 24.092 15.9476C23.9348 16.1366 23.7164 16.2646 23.4747 16.3094L21.9354 16.5974C21.874 16.7854 21.802 16.9701 21.7307 17.1507C21.6594 17.3314 21.5734 17.5107 21.484 17.6841L22.37 18.9814C22.4983 19.171 22.5613 19.3973 22.5492 19.6259C22.5372 19.8545 22.4509 20.073 22.3034 20.2481C22.2847 20.2717 22.2644 20.2939 22.2427 20.3147L20.708 21.8641C20.534 22.037 20.3053 22.144 20.061 22.1666C19.8167 22.1893 19.5722 22.1261 19.3694 21.9881L18.072 21.1027C17.8967 21.1914 17.718 21.2741 17.5387 21.3487C17.3594 21.4234 17.174 21.4921 16.986 21.5534L16.6954 23.0961C16.6504 23.3376 16.5223 23.5559 16.3334 23.7129C16.1444 23.87 15.9064 23.956 15.6607 23.9561H13.4874C13.2415 23.9562 13.0034 23.8702 12.8143 23.7132C12.6252 23.5561 12.497 23.3378 12.452 23.0961L12.1614 21.5534C11.9734 21.4921 11.7887 21.4201 11.608 21.3487C11.4274 21.2774 11.248 21.1914 11.0747 21.1027L9.77737 21.9881C9.57457 22.1261 9.33003 22.1893 9.08575 22.1666C8.84147 22.144 8.61269 22.037 8.4387 21.8641L6.90137 20.3267C6.72888 20.1525 6.62222 19.9238 6.5996 19.6796C6.57699 19.4355 6.63982 19.191 6.77737 18.9881L7.66337 17.6907C7.57448 17.5156 7.49226 17.3379 7.4167 17.1574C7.34203 16.9767 7.27337 16.7921 7.21203 16.6041L5.6687 16.3094C5.4259 16.2658 5.20612 16.1384 5.04773 15.9492C4.88933 15.7601 4.80237 15.5214 4.80203 15.2747V13.1014C4.80148 12.8542 4.88806 12.6147 5.04656 12.425C5.20506 12.2353 5.42534 12.1075 5.6687 12.0641L7.2107 11.7734C7.27248 11.585 7.3407 11.4003 7.41537 11.2194C7.4907 11.0381 7.57337 10.8594 7.66203 10.6861L6.77603 9.38874C6.63844 9.18567 6.57558 8.94113 6.59819 8.69687C6.62081 8.45261 6.72749 8.22377 6.90003 8.04941L8.43737 6.51608C8.61141 6.34326 8.84012 6.23632 9.08433 6.21357C9.32855 6.19083 9.57307 6.2537 9.77603 6.39141L11.0687 7.27541C11.2438 7.18652 11.4216 7.1043 11.602 7.02874C11.782 6.95408 11.9667 6.88541 12.1547 6.82408L12.4454 5.28208C12.4901 5.04028 12.6182 4.82181 12.8074 4.66469C12.9965 4.50756 13.2348 4.42171 13.4807 4.42208H15.654C15.8998 4.42187 16.1379 4.50779 16.3269 4.6649C16.516 4.82201 16.644 5.04039 16.6887 5.28208H16.69ZM4.45203 57.9374C4.2655 57.9374 4.0866 57.8633 3.9547 57.7314C3.8228 57.5995 3.7487 57.4206 3.7487 57.2341C3.7487 57.0475 3.8228 56.8686 3.9547 56.7367C4.0866 56.6048 4.2655 56.5307 4.45203 56.5307H47.684C47.8706 56.5307 48.0495 56.6048 48.1814 56.7367C48.3133 56.8686 48.3874 57.0475 48.3874 57.2341C48.3874 57.4206 48.3133 57.5995 48.1814 57.7314C48.0495 57.8633 47.8706 57.9374 47.684 57.9374H4.45203ZM3.08937 38.5974L9.75603 30.5974C9.82262 30.5179 9.90601 30.4541 10.0002 30.4107C10.0944 30.3672 10.197 30.3452 10.3007 30.3461C10.4044 30.3471 10.5067 30.371 10.6 30.4162C10.6934 30.4614 10.7756 30.5267 10.8407 30.6074L17.5127 38.6087C17.5976 38.7111 17.6516 38.8355 17.6685 38.9674C17.6853 39.0993 17.6642 39.2333 17.6077 39.3537C17.5512 39.4741 17.4616 39.5759 17.3494 39.6473C17.2372 39.7187 17.107 39.7566 16.974 39.7567H14.164V55.1254C14.1639 55.3119 14.0897 55.4907 13.9578 55.6225C13.826 55.7544 13.6472 55.8286 13.4607 55.8287H7.12737C6.94095 55.8286 6.76222 55.7544 6.63047 55.6225C6.49871 55.4906 6.4247 55.3118 6.4247 55.1254V39.7567H3.6167C3.48248 39.7566 3.35113 39.7178 3.23832 39.6451C3.1255 39.5724 3.03598 39.4687 2.9804 39.3466C2.92483 39.2244 2.90555 39.0888 2.92487 38.956C2.94419 38.8232 3.00129 38.6987 3.08937 38.5974ZM10.2954 32.1354L5.11203 38.3561H7.0687C7.08937 38.3561 7.11003 38.3561 7.1307 38.3561C7.31724 38.3561 7.49613 38.4302 7.62803 38.5621C7.75993 38.694 7.83403 38.8729 7.83403 39.0594V54.4221H12.758V39.0567C12.758 38.8709 12.8319 38.6927 12.9633 38.5613C13.0947 38.4299 13.2729 38.3561 13.4587 38.3561H15.4774L10.2954 32.1354ZM26.1394 26.6514L20.9554 32.8721H22.912C22.932 32.8721 22.9527 32.8721 22.974 32.8721C23.0664 32.8721 23.1578 32.8903 23.2431 32.9256C23.3284 32.961 23.4059 33.0128 23.4711 33.0781C23.5364 33.1434 23.5881 33.221 23.6234 33.3063C23.6587 33.3916 23.6768 33.4831 23.6767 33.5754V54.4221H28.602V33.5727C28.602 33.387 28.6758 33.2089 28.807 33.0775C28.9383 32.9462 29.1163 32.8723 29.302 32.8721H31.3207L26.1394 26.6514Z" fill="#1B54F8"></path></g></svg> 