<?xml version="1.0" encoding="UTF-8"?> <svg xmlns="http://www.w3.org/2000/svg" xmlns:xlink="http://www.w3.org/1999/xlink" width="60" height="60" viewBox="0 0 60 60"><defs><clipPath id="clip-path"><rect id="Rectangle_165" data-name="Rectangle 165" width="60" height="60" transform="translate(63 1661)" fill="#fff" stroke="#707070" stroke-width="1"></rect></clipPath></defs><g id="Mask_Group_64" data-name="Mask Group 64" transform="translate(-63 -1661)" clip-path="url(#clip-path)"><g id="Group_136" data-name="Group 136" transform="translate(-4.761 -153.279)"><g id="Group_135" data-name="Group 135" transform="translate(72.522 1819.799)"><path id="Path_552" data-name="Path 552" d="M87.271,78.246a1.029,1.029,0,1,0-.3.733A1.036,1.036,0,0,0,87.271,78.246Zm5.537-6.122a2.714,2.714,0,0,1-4.635,1.921,2.741,2.741,0,0,1-.67-1.094H79.618v4.469h4.029a2.715,2.715,0,1,1,.009,1.683H79.618v4.469h7.855a2.71,2.71,0,1,1,.009,1.683H79.618v2.3A2.76,2.76,0,0,1,77.624,90.2v5.957A1.079,1.079,0,0,0,78.7,97.234H80.93a2.712,2.712,0,1,1,0,1.683H78.7a2.762,2.762,0,0,1-2.758-2.758v-5.85H71.417v7.135a2.719,2.719,0,1,1-1.683-.009V90.309H65.265V93.62a2.715,2.715,0,1,1-1.683-.01v-3.3H59.114v5.85a2.762,2.762,0,0,1-2.758,2.758h-2.23a2.713,2.713,0,1,1,0-1.683h2.232a1.079,1.079,0,0,0,1.075-1.075V90.177a2.761,2.761,0,0,1-1.911-2.621v-2.3H47.656a2.712,2.712,0,1,1,.009-1.683H55.52V79.1H51.482a2.717,2.717,0,1,1,.009-1.683H55.52V72.95H47.635a2.713,2.713,0,1,1-.009-1.683H55.52v-2.3a2.761,2.761,0,0,1,1.911-2.621V60.362a1.079,1.079,0,0,0-1.075-1.075H54.124a2.712,2.712,0,1,1,0-1.683h2.23a2.762,2.762,0,0,1,2.758,2.758v5.849h4.524V59.077a2.713,2.713,0,1,1,1.683.009v7.126h4.469V62.9a2.715,2.715,0,1,1,1.683.01v3.3h4.469V60.362A2.762,2.762,0,0,1,78.7,57.6h2.23a2.713,2.713,0,1,1,0,1.683H78.7a1.079,1.079,0,0,0-1.075,1.075v5.956a2.76,2.76,0,0,1,1.995,2.646v2.3h7.893a2.718,2.718,0,0,1,5.3.856Zm-1.985.731a1.038,1.038,0,1,0-.732.3A1.032,1.032,0,0,0,90.823,72.855Zm-1.8,11.557a1.029,1.029,0,1,0,.3-.748,1.036,1.036,0,0,0-.3.748ZM46.082,72.137V72.11h0a1.043,1.043,0,1,0,0,.028Zm2.087,5.376a1.039,1.039,0,1,0,.733-.3A1.036,1.036,0,0,0,48.169,77.512Zm-2.057,6.9h0v-.026a1.041,1.041,0,1,0,0,.028ZM82.479,98.075a1.03,1.03,0,1,0,.3-.735A1.036,1.036,0,0,0,82.479,98.075Zm-29.9-.013a1.035,1.035,0,1,0-.3.745A1.031,1.031,0,0,0,52.576,98.062Zm11.1-1.129a1.039,1.039,0,1,0-.3-.733A1.036,1.036,0,0,0,63.676,96.933Zm6.878,2.056a1.035,1.035,0,1,0,.739.3,1.034,1.034,0,0,0-.739-.3ZM52.576,58.424a1.031,1.031,0,1,0-.3.757A1.038,1.038,0,0,0,52.576,58.424Zm29.9.044a1.035,1.035,0,1,0,.3-.754,1.03,1.03,0,0,0-.3.754Zm-11.1,1.121a1.039,1.039,0,1,0,.3.733A1.036,1.036,0,0,0,71.379,59.588Zm-6.885-2.056a1.035,1.035,0,1,0-.732-.3A1.034,1.034,0,0,0,64.493,57.532ZM74.487,70.5a.841.841,0,1,1,1.683,0V86.02a.842.842,0,0,1-.841.841H65.677a.841.841,0,1,1,0-1.683h8.81ZM60.651,86.02a.841.841,0,0,1-1.683,0V70.5a.842.842,0,0,1,.841-.841h9.651a.841.841,0,0,1,0,1.683h-8.81ZM76.782,67.894H58.25a1.075,1.075,0,0,0-1.048,1.07V87.556a1.074,1.074,0,0,0,1.07,1.07H76.866a1.074,1.074,0,0,0,1.07-1.07V68.964a1.068,1.068,0,0,0-.315-.755A1.08,1.08,0,0,0,76.782,67.894Z" transform="translate(-42.33 -53.78)" fill="#1c54f8" stroke="#fff" stroke-width="0.6"></path></g></g></g></svg> 