<?xml version="1.0" encoding="UTF-8"?> <svg xmlns="http://www.w3.org/2000/svg" xmlns:xlink="http://www.w3.org/1999/xlink" width="60" height="60" viewBox="0 0 60 60"><defs><clipPath id="clip-path"><rect id="Rectangle_23" data-name="Rectangle 23" width="60" height="60" transform="translate(1061 898)" fill="#fff" stroke="#707070" stroke-width="1"></rect></clipPath></defs><g id="Mask_Group_71" data-name="Mask Group 71" transform="translate(-1061 -898)" clip-path="url(#clip-path)"><path id="Path_215" data-name="Path 215" d="M51.972,16.085,47.566,8.456A.643.643,0,0,0,47,8.129H10.06a.643.643,0,0,0-.566.327L5.088,16.085A.659.659,0,0,0,5,16.412v3.971a5.25,5.25,0,0,0,2.173,4.236V51.263a.657.657,0,0,0,.192.464.65.65,0,0,0,.462.19H49.234a.65.65,0,0,0,.462-.19.657.657,0,0,0,.192-.464V24.621a5.221,5.221,0,0,0,2.173-4.238V16.412a.659.659,0,0,0-.088-.327ZM10.437,9.436H46.623l3.65,6.324-43.487,0ZM41.6,20.382a3.922,3.922,0,1,1-7.843,0V17.065H41.6ZM15.458,17.065H23.3v3.317a3.922,3.922,0,1,1-7.843,0Zm9.151,0h7.843v3.317a3.922,3.922,0,0,1-7.843,0Zm-18.3,3.317V17.065h7.843v3.317a3.922,3.922,0,1,1-7.843,0ZM25.969,50.61H13.886V33.075H25.969Zm22.611,0h-21.3V32.421a.656.656,0,0,0-.654-.654H13.232a.654.654,0,0,0-.654.654V50.61h-4.1v-25.3a5.226,5.226,0,0,0,6.324-2.4,5.224,5.224,0,0,0,9.151,0,5.224,5.224,0,0,0,9.151,0,5.224,5.224,0,0,0,9.151,0,5.223,5.223,0,0,0,6.324,2.4ZM46.831,24.3a3.928,3.928,0,0,1-3.922-3.922V17.065h7.843v3.317A3.928,3.928,0,0,1,46.831,24.3ZM21.89,43.1V40.585a.654.654,0,1,1,1.307,0V43.1a.654.654,0,0,1-1.307,0ZM43.468,29.884H33.424a.653.653,0,0,0-.654.654V40.583a.656.656,0,0,0,.654.654H43.468a.657.657,0,0,0,.464-.192.65.65,0,0,0,.19-.462V30.538a.65.65,0,0,0-.19-.462A.657.657,0,0,0,43.468,29.884Zm-.654,10.045H34.078V31.191h8.736Z" transform="translate(1062 897.871)" fill="#1c54f8"></path></g></svg> 