<?xml version="1.0" encoding="UTF-8"?> <svg xmlns="http://www.w3.org/2000/svg" width="61" height="60" viewBox="0 0 61 60" fill="none"><mask id="mask0_1_138" style="mask-type:luminance" maskUnits="userSpaceOnUse" x="0" y="0" width="61" height="60"><path d="M60.9 0H0.899994V60H60.9V0Z" fill="white"></path></mask><g mask="url(#mask0_1_138)"><path d="M24.8 8.70001C25.3 8.70001 25.7 8.70001 25.8 8.70001L27.3 16.9C27.4 17.7 28.2 18.3 29 18.3H36C36.8 18.3 37.5 17.7 37.7 16.9L38.6 11.9C38.7 11.4 38.6 10.9 38.2 10.5C37.9 10.1 37.4 9.89999 36.9 9.89999H28L27.7 8C27.4 6.7 25.6 6.69999 24.8 6.79999C24.3 6.79999 23.9 7.29999 23.9 7.79999C23.8 8.29999 24.2 8.70001 24.8 8.70001ZM36.6 11.8L35.8 16.4H29.2L28.4 11.8C28.3 11.8 36.6 11.8 36.6 11.8ZM31 20.1C31 20.6 30.6 21.1 30 21.1C29.5 21.1 29 20.7 29 20.1C29 19.5 29.4 19.1 30 19.1C30.6 19.1 31 19.6 31 20.1ZM35.2 20.1C35.2 20.6 34.8 21.1 34.2 21.1C33.6 21.1 33.2 20.7 33.2 20.1C33.2 19.5 33.6 19.1 34.2 19.1C34.8 19.1 35.2 19.6 35.2 20.1ZM58.8 52H55V28.4C55.4 28.3 55.8 27.9 55.8 27.5V24.4C56.8 24.3 57.6 23.5 57.6 22.4V12.7C57.6 11.6 56.7 10.7 55.6 10.7H44.1C43.1 4.90001 37.9 0.399994 31.8 0.399994C25.7 0.399994 20.5 4.90001 19.5 10.7H8C6.9 10.7 6 11.6 6 12.7V22.4C6 23.4 6.8 24.3 7.8 24.4V27.5C7.8 28 8.2 28.5 8.8 28.5V52H4.8C4.3 52 3.8 52.4 3.8 53V58.8C3.8 59.3 4.2 59.8 4.8 59.8H58.8C59.3 59.8 59.8 59.4 59.8 58.8V53C59.8 52.4 59.3 52 58.8 52ZM9.8 26.5V24.4H26.8C26.8 24.4 26.9 24.4 26.9 24.5H27C27.2 24.6 27.3 24.6 27.5 24.7H27.6C27.8 24.8 27.9 24.8 28.1 24.9C29.1 25.2 30.1 25.4 31.2 25.4C31.4 25.4 31.5 25.4 31.7 25.4C31.8 25.4 31.8 25.4 31.9 25.4C32.1 25.4 32.3 25.4 32.5 25.4C33.5 25.3 34.6 25.2 35.5 24.9C35.7 24.8 35.8 24.8 36 24.7H36.1C36.3 24.6 36.4 24.6 36.6 24.5H36.7C36.7 24.5 36.8 24.5 36.8 24.4H53.8V26.5H9.8ZM44.3 12.6H55.6C55.6 12.6 55.7 12.6 55.7 12.7V22.4C55.7 22.4 55.7 22.5 55.6 22.5H54.8H39.9C40 22.4 40.1 22.4 40.1 22.3L40.2 22.2C40.3 22.1 40.4 22 40.5 21.9C40.6 21.8 40.6 21.8 40.7 21.7C40.8 21.6 40.8 21.5 40.9 21.5C41 21.4 41.1 21.3 41.2 21.2C41.2 21.1 41.3 21.1 41.3 21C41.4 20.9 41.5 20.7 41.7 20.6C42.9 19 43.8 17.1 44.1 15.1C44.1 14.9 44.2 14.7 44.2 14.5C44.2 14.3 44.2 14.1 44.3 13.9C44.3 13.7 44.3 13.4 44.3 13.2C44.3 12.8 44.3 12.7 44.3 12.6ZM31.8 2.29999C37.6 2.29999 42.4 6.99999 42.4 12.9C42.4 13.2 42.4 13.5 42.4 13.8C42.4 13.9 42.4 14 42.4 14.1C42.4 14.3 42.3 14.5 42.3 14.7C42.3 14.8 42.3 14.9 42.2 15C42.1 15.3 42.1 15.5 42 15.8C42 15.9 41.9 16.1 41.9 16.2C41.9 16.3 41.8 16.5 41.7 16.6C41.6 16.7 41.6 16.9 41.5 17C41.4 17.1 41.4 17.3 41.3 17.4C41.2 17.6 41.1 17.8 41 18C40.9 18.2 40.8 18.3 40.7 18.5C40.6 18.6 40.6 18.7 40.5 18.8C40.4 19 40.3 19.1 40.1 19.3C40 19.4 40 19.5 39.9 19.5C39.7 19.7 39.5 20 39.3 20.2C39.1 20.4 38.9 20.6 38.6 20.8L38.5 20.9C38.3 21.1 38 21.3 37.8 21.4C37.8 21.4 37.8 21.4 37.7 21.5C37.2 21.9 36.6 22.2 36 22.5C36 22.5 36 22.5 35.9 22.5C35.6 22.6 35.3 22.7 35 22.8C35 22.8 35 22.8 34.9 22.8C34.6 22.9 34.3 23 33.9 23C33.6 23.1 33.2 23.1 32.9 23.2C32.6 23.2 32.2 23.3 31.8 23.3C31.4 23.3 31.1 23.3 30.7 23.2C30.4 23.2 30 23.1 29.7 23C29.4 22.9 29 22.8 28.7 22.8C28.7 22.8 28.7 22.8 28.6 22.8C28.3 22.7 28 22.6 27.7 22.5C27.7 22.5 27.7 22.5 27.6 22.5C27 22.2 26.4 21.9 25.8 21.5C25.8 21.5 25.8 21.5 25.7 21.5C25.5 21.3 25.2 21.2 25 21L24.9 20.9C24.7 20.7 24.4 20.5 24.2 20.3C24 20.1 23.8 19.9 23.6 19.6C23.5 19.5 23.5 19.4 23.4 19.4C23.3 19.2 23.2 19.1 23 18.9C22.9 18.8 22.9 18.7 22.8 18.6C22.7 18.4 22.6 18.3 22.5 18.1C22.4 17.9 22.3 17.7 22.2 17.5C22.1 17.4 22.1 17.2 22 17.1C21.9 17 21.9 16.8 21.8 16.7C21.7 16.6 21.7 16.4 21.6 16.3C21.6 16.2 21.5 16 21.5 15.9C21.4 15.6 21.4 15.4 21.3 15.1C21.3 15 21.3 14.9 21.2 14.8C21.2 14.6 21.1 14.4 21.1 14.2C21.1 14.1 21.1 14 21.1 13.9C21.1 13.6 21.1 13.3 21.1 13C21.2 7.1 26 2.29999 31.8 2.29999ZM7.89999 12.7C7.89999 12.6 7.99999 12.6 7.89999 12.7L19.2 12.6C19.2 12.7 19.2 12.8 19.2 12.9C19.2 13.1 19.2 13.4 19.2 13.6C19.2 13.8 19.2 14 19.3 14.2C19.3 14.4 19.4 14.6 19.4 14.8C19.7 16.8 20.6 18.7 21.8 20.3C21.9 20.4 22 20.6 22.2 20.7C22.2 20.8 22.3 20.8 22.3 20.9C22.4 21 22.5 21.1 22.6 21.2C22.7 21.3 22.7 21.4 22.8 21.4C22.9 21.5 22.9 21.5 23 21.6C23.1 21.7 23.2 21.8 23.3 21.9L23.4 22C23.5 22.1 23.6 22.1 23.6 22.2H8.7H8C8 22.2 7.89999 22.2 7.89999 22.1C7.89999 22.4 7.89999 12.7 7.89999 12.7ZM10.7 28.4H53V52H37.2V35.2C37.2 34.7 36.8 34.2 36.2 34.2H27.1C26.6 34.2 26.1 34.6 26.1 35.2V52H10.5V28.4H10.7ZM35.4 52H28.2V36.1H35.4V52ZM57.9 57.8H5.8V53.9H9.8H27.3H36.4H54H57.9V57.8ZM40.9 45.2H49.3C49.8 45.2 50.3 44.8 50.3 44.2V35.1C50.3 34.6 49.9 34.1 49.3 34.1H40.9C40.4 34.1 39.9 34.5 39.9 35.1V44.2C40 44.8 40.4 45.2 40.9 45.2ZM41.9 36.1H48.4V43.3H41.9V36.1ZM22.7 34.2H14.3C13.8 34.2 13.3 34.6 13.3 35.2V44.3C13.3 44.8 13.7 45.3 14.3 45.3H22.7C23.2 45.3 23.7 44.9 23.7 44.3V35.2C23.7 34.6 23.2 34.2 22.7 34.2ZM21.7 43.3H15.2V36.1H21.7V43.3Z" fill="#1B54F8"></path></g></svg> 