<?xml version="1.0" encoding="UTF-8"?> <svg xmlns="http://www.w3.org/2000/svg" xmlns:xlink="http://www.w3.org/1999/xlink" width="90" height="90" viewBox="0 0 90 90"><defs><clipPath id="clip-path"><rect id="Rectangle_27" data-name="Rectangle 27" width="90" height="90" transform="translate(339 702)" fill="#fff" stroke="#707070" stroke-width="1"></rect></clipPath></defs><g id="Mask_Group_1" data-name="Mask Group 1" transform="translate(-339 -702)" clip-path="url(#clip-path)"><g id="Retail___Commerce" data-name="Retail_&amp;_Commerce" transform="translate(345.774 706.662)"><g id="shopping"><path id="Shape" d="M43.293,8.32A14.064,14.064,0,0,0,29.3,22.384v3.673H18.486a2.056,2.056,0,0,0-2.093,1.818L9.586,78.391a9.4,9.4,0,0,0,2.219,7.4A9.3,9.3,0,0,0,18.787,89H76.674a9.3,9.3,0,0,0,6.982-3.209,9.4,9.4,0,0,0,2.219-7.4L82,49.861a2.081,2.081,0,0,0-2.031-1.83H72.889L70.156,27.875A2.056,2.056,0,0,0,68.1,26.082H57.282v-3.7A14.064,14.064,0,0,0,43.293,8.32ZM33.441,22.384a9.853,9.853,0,1,1,19.705,0v3.673H33.441ZM81.763,78.918a5.177,5.177,0,0,1-1.254,4.124,5.114,5.114,0,0,1-3.886,1.793H46.54a5.164,5.164,0,0,1-5.1-5.891l3.623-26.725H78.153ZM68.727,48.031H43.343a2.068,2.068,0,0,0-2.056,1.793L37.427,78.391a9.364,9.364,0,0,0,1.529,6.443H18.787a5.139,5.139,0,0,1-3.873-1.78,5.215,5.215,0,0,1-1.254-4.111l6.619-48.736H66.3Z" transform="translate(-9.505 -8.32)" fill="#1b54f8" stroke="#fff" stroke-width="1"></path><path id="Path" d="M53.26,62.988A10.7,10.7,0,0,0,63.94,52.245V50.578a2.068,2.068,0,1,0-4.137,0v1.667a6.543,6.543,0,1,1-13.087,0V50.578a2.068,2.068,0,1,0-4.137,0v1.667A10.717,10.717,0,0,0,53.26,62.988Z" transform="translate(-1.12 1.868)" fill="#1b54f8" stroke="#fff" stroke-width="1"></path><ellipse id="Oval" cx="2.77" cy="2.783" rx="2.77" ry="2.783" transform="translate(20.902 28.354)" fill="#1b54f8" stroke="#fff" stroke-width="1"></ellipse><ellipse id="Oval-2" data-name="Oval" cx="2.77" cy="2.783" rx="2.77" ry="2.783" transform="translate(41.146 28.354)" fill="#1b54f8" stroke="#fff" stroke-width="1"></ellipse></g></g></g></svg> 