<?xml version="1.0" encoding="UTF-8"?> <svg xmlns="http://www.w3.org/2000/svg" id="Layer_1" data-name="Layer 1" viewBox="0 0 80 80"><defs><style>.cls-1{fill:#1b54f8;stroke:#fff;stroke-width:0.5px;}</style></defs><g id="Retail___Commerce" data-name="Retail_&amp;_Commerce"><g id="shopping"><path id="Shape" class="cls-1" d="M36.46,8.32A11.22,11.22,0,0,0,25.3,19.54v2.93H16.67A1.64,1.64,0,0,0,15,23.92L9.57,64.22a7.5,7.5,0,0,0,1.77,5.9,7.42,7.42,0,0,0,5.57,2.56H63.09a7.42,7.42,0,0,0,5.57-2.56,7.5,7.5,0,0,0,1.77-5.9L67.34,41.46A1.66,1.66,0,0,0,65.72,40H60.07L57.89,23.92a1.64,1.64,0,0,0-1.64-1.43H47.62V19.54A11.22,11.22,0,0,0,36.46,8.32ZM28.6,19.54a7.86,7.86,0,0,1,15.72,0v2.93H28.6Zm38.55,45.1a4.13,4.13,0,0,1-1,3.29,4.08,4.08,0,0,1-3.1,1.43h-24a4.12,4.12,0,0,1-4.07-4.7l2.89-21.32H64.27ZM56.75,40H36.5a1.65,1.65,0,0,0-1.64,1.43L31.78,64.22A7.47,7.47,0,0,0,33,69.36H16.91a4.1,4.1,0,0,1-3.09-1.42,4.16,4.16,0,0,1-1-3.28l5.28-38.88H54.81Z"></path><path id="Path" class="cls-1" d="M51.1,60.06a8.54,8.54,0,0,0,8.52-8.57V50.16a1.65,1.65,0,0,0-3.3,0v1.33a5.22,5.22,0,1,1-10.44,0V50.16a1.65,1.65,0,0,0-3.3,0v1.33a8.55,8.55,0,0,0,8.52,8.57Z"></path><ellipse id="Oval" class="cls-1" cx="28.39" cy="33.16" rx="2.21" ry="2.22"></ellipse><ellipse id="Oval-2" data-name="Oval" class="cls-1" cx="44.54" cy="33.16" rx="2.21" ry="2.22"></ellipse></g></g></svg> 