<?xml version="1.0" encoding="UTF-8"?> <svg xmlns="http://www.w3.org/2000/svg" xmlns:xlink="http://www.w3.org/1999/xlink" width="60" height="60" viewBox="0 0 60 60"><defs><clipPath id="clip-path"><rect id="Rectangle_102" data-name="Rectangle 102" width="60" height="60" transform="translate(62 651)" fill="#fff" stroke="#707070" stroke-width="1"></rect></clipPath></defs><g id="Mask_Group_13" data-name="Mask Group 13" transform="translate(-62 -651)" clip-path="url(#clip-path)"><g id="Group_18" data-name="Group 18" transform="translate(201.292 48.891)"><path id="Path_38" data-name="Path 38" d="M146.612,50.4a9.312,9.312,0,0,0-9.318,9.318v3.994h-7.321a.666.666,0,0,0-.666.6L125.98,104.25a.694.694,0,0,0,.666.728h39.934a.7.7,0,0,0,.666-.728l-.166-1.934h-1.331l.1,1.331H127.374l3.224-38.6h6.7v5.387a3.328,3.328,0,1,0,1.332,0V65.044H154.6v3.994h1.331V65.044h6.7l.333,3.994h1.352l-.4-4.722a.689.689,0,0,0-.666-.6h-7.321V59.72a9.312,9.312,0,0,0-9.318-9.318Zm0,1.331A7.955,7.955,0,0,1,154.6,59.72v3.994H138.625V59.72a7.955,7.955,0,0,1,7.987-7.987ZM137.96,71.7a2,2,0,1,1-2,2A1.987,1.987,0,0,1,137.96,71.7Zm13.311-.728-2.662,29.285a.694.694,0,0,0,.666.728h29.285a.7.7,0,0,0,.666-.728l-2.662-29.285a.689.689,0,0,0-.666-.6h-23.96a.682.682,0,0,0-.666.6Zm1.269.728h22.754l2.538,27.953H150Zm4.722,2.662a.666.666,0,0,0-.666.666v2.662a7.321,7.321,0,1,0,14.643,0V75.027a.666.666,0,1,0-1.331,0v2.662a5.99,5.99,0,1,1-11.98,0V75.027a.666.666,0,0,0-.666-.666Z" transform="translate(-261.269 554.707)" fill="#1b54f8"></path></g></g></svg> 