<?xml version="1.0" encoding="UTF-8"?> <svg xmlns="http://www.w3.org/2000/svg" width="91" height="91" viewBox="0 0 91 91" fill="none"><mask id="mask0_1_81" style="mask-type:luminance" maskUnits="userSpaceOnUse" x="0" y="0" width="91" height="91"><path d="M90.7 0.0999756H0.700012V90.1H90.7V0.0999756Z" fill="white"></path></mask><g mask="url(#mask0_1_81)"><path fill-rule="evenodd" clip-rule="evenodd" d="M4.3988 26.0969C4.3988 26.1969 4.3988 26.2969 4.3988 26.3969V28.5969C4.3988 31.2969 5.69879 33.5969 7.79879 35.0969V43.5968V43.6969V43.7968V79.4967V79.5967V79.6967V88.1967C7.79879 88.9967 8.39881 89.5967 9.19881 89.5967H16.3988H16.4988H16.5988H39.3987H39.4987H39.5987H79.3985C80.1985 89.5967 80.7985 88.9967 80.7985 88.1967V79.6967V79.5967V79.4967V43.7968V43.6969V43.5968V35.0969C81.1985 34.7969 81.5985 34.4969 81.8985 34.1969C83.3985 32.6969 84.1985 30.6969 84.1985 28.5969V26.3969C84.1985 26.2969 84.1985 26.1969 84.1985 25.9969L78.6986 1.59698C78.5986 0.896983 77.9985 0.497009 77.2985 0.497009H11.2988C10.5988 0.497009 10.0988 0.996983 9.89878 1.59698L4.3988 26.0969ZM77.9986 80.8968H40.8987V86.5967H77.9986V80.8968ZM17.8988 45.0968V86.6967H37.9987V45.0968H17.8988ZM14.9988 86.6967V80.9967H10.4988V86.6967H14.9988ZM77.9986 45.0968H40.8987V78.0967H77.9986V45.0968ZM14.9988 78.0967V45.0968H10.4988V78.0967H14.9988ZM58.7986 72.9968H60.7986C61.5986 72.9968 62.1986 72.3967 62.1986 71.5967C62.1986 70.7967 61.5986 70.1968 60.7986 70.1968H58.7986C57.9986 70.1968 57.3986 70.7967 57.3986 71.5967C57.3986 72.3967 57.9986 72.9968 58.7986 72.9968ZM67.8986 72.9968H69.8986C70.6986 72.9968 71.2986 72.3967 71.2986 71.5967C71.2986 70.7967 70.6986 70.1968 69.8986 70.1968H67.8986C67.0986 70.1968 66.4986 70.7967 66.4986 71.5967C66.4986 72.3967 67.0986 72.9968 67.8986 72.9968ZM36.5987 67.9968V65.7968C36.5987 64.9968 35.9987 64.3968 35.1987 64.3968H32.2987C31.4987 64.3968 30.8987 64.9968 30.8987 65.7968C30.8987 66.5968 31.4987 67.1968 32.2987 67.1968H33.6987V67.8968C33.6987 68.6968 34.2987 69.2968 35.0987 69.2968C35.8987 69.4968 36.5987 68.7968 36.5987 67.9968ZM45.4987 53.1968H49.5987L54.3986 67.4968C54.5986 68.0968 55.0986 68.4968 55.7986 68.4968H71.9986C72.7986 68.4968 73.3986 67.8968 73.3986 67.0967C73.3986 66.2968 72.7986 65.6968 71.9986 65.6968H56.7986L51.9986 51.3969C51.7986 50.7969 51.2987 50.3969 50.5987 50.3969H45.4987C44.6987 50.3969 44.0987 50.9968 44.0987 51.7968C44.0987 52.5968 44.7987 53.1968 45.4987 53.1968ZM73.6986 53.1968C73.6986 52.3968 73.0986 51.7968 72.2986 51.7968H55.9986C55.4986 51.7968 55.0986 51.9969 54.7986 52.3969C54.4986 52.7968 54.3986 53.1968 54.5986 53.6968L57.4986 62.8968C57.6986 63.4968 58.1986 63.8968 58.8986 63.8968H72.2986C73.0986 63.8968 73.6986 63.2968 73.6986 62.4968V53.1968ZM70.8986 54.5968V60.8968H59.9986L57.9986 54.5968H70.8986ZM57.0986 33.0969C56.7986 33.4969 56.5986 33.7969 56.1986 34.0969C54.6986 35.5969 52.6986 36.3969 50.5987 36.3969C48.4987 36.3969 46.4987 35.5969 44.9987 34.0969C44.6987 33.7969 44.3987 33.3969 44.0987 33.0969C43.7987 33.4969 43.5987 33.7969 43.1987 34.0969C41.6987 35.5969 39.6987 36.3969 37.5987 36.3969C35.4987 36.3969 33.4987 35.5969 31.9987 34.0969C31.6987 33.7969 31.3987 33.3969 31.0987 33.0969C30.7987 33.4969 30.5987 33.7969 30.1987 34.0969C28.7987 35.4969 26.8987 36.2969 24.7987 36.3969H24.5987C21.8988 36.3969 19.5988 35.0969 18.1988 33.0969C17.8988 33.4969 17.6988 33.7969 17.2988 34.0969C15.8988 35.4969 13.9988 36.2969 11.8988 36.3969H11.6988C11.1988 36.3969 10.5988 36.2969 10.0988 36.1969V42.0968H77.9986V36.1969C77.4986 36.2969 76.8986 36.3969 76.3986 36.3969C74.2986 36.3969 72.2986 35.5969 70.7986 34.0969C70.4986 33.7969 70.1986 33.3969 69.8986 33.0969C69.5986 33.4969 69.3986 33.7969 68.9986 34.0969C67.4986 35.5969 65.4986 36.3969 63.3986 36.3969C61.2986 36.3969 59.2986 35.5969 57.7986 34.0969C57.6986 33.7969 57.3986 33.4969 57.0986 33.0969ZM17.1988 27.7969V28.5969C17.1988 29.8969 16.6988 31.1969 15.6988 32.0969C14.7988 32.9969 13.4988 33.5969 12.1988 33.5969C9.3988 33.5969 7.19881 31.3969 7.19881 28.5969V27.7969H17.1988ZM29.9987 27.7969V28.5969C29.9987 29.8969 29.4987 31.1969 28.4987 32.0969C27.5987 32.9969 26.2987 33.5969 24.9987 33.5969C22.1987 33.5969 19.9988 31.3969 19.9988 28.5969V27.7969H29.9987ZM42.7987 27.7969V28.5969C42.7987 29.8969 42.2987 31.1969 41.2987 32.0969C40.3987 32.9969 39.1987 33.4969 37.8987 33.5969H37.7987C36.4987 33.5969 35.1987 33.0969 34.2987 32.0969C33.3987 31.1969 32.7987 29.8969 32.7987 28.5969V27.7969H34.9987H42.7987ZM68.4986 27.7969V28.5969C68.4986 29.8969 67.9986 31.1969 66.9986 32.0969C66.0986 32.9969 64.8986 33.4969 63.5986 33.5969H63.4986C62.1986 33.5969 60.8986 33.0969 59.9986 32.0969C59.0986 31.1969 58.4986 29.8969 58.4986 28.5969V27.7969H60.6986H68.4986ZM55.6986 27.7969V28.5969C55.6986 29.8969 55.1986 31.1969 54.1986 32.0969C53.2986 32.9969 52.0986 33.4969 50.7986 33.5969H50.6987C49.3987 33.5969 48.0987 33.0969 47.1987 32.0969C46.2987 31.1969 45.6987 29.8969 45.6987 28.5969V27.7969H47.8987H55.6986ZM81.2985 27.7969V28.5969C81.2985 29.8969 80.7985 31.1969 79.7985 32.0969C78.8985 32.9969 77.6985 33.4969 76.3986 33.5969H76.2985C74.9986 33.5969 73.6986 33.0969 72.7986 32.0969C71.8986 31.1969 71.2986 29.8969 71.2986 28.5969V27.7969H73.4986H81.2985ZM7.5988 24.9969H57.0986H80.9985L76.0986 3.497H12.3988L7.5988 24.9969Z" fill="#1B54F8"></path></g></svg> 