<?xml version="1.0" encoding="UTF-8"?> <svg xmlns="http://www.w3.org/2000/svg" width="61" height="60" viewBox="0 0 61 60" fill="none"><mask id="mask0_19_97" style="mask-type:luminance" maskUnits="userSpaceOnUse" x="0" y="0" width="61" height="60"><path d="M60.8 0H0.800003V60H60.8V0Z" fill="white"></path></mask><g mask="url(#mask0_19_97)"><path d="M48.8 41.8C48.8 43.5 47.6 45 46 45.5V38.2C47.6 38.6 48.8 40.1 48.8 41.8ZM1.5 41.8C1.5 43.5 2.7 45 4.3 45.5V38.2C2.7 38.6 1.5 40.1 1.5 41.8ZM23 41.8C23 40.7 22.6 39.7 21.8 39C21.1 38.3 20.1 37.8 19 37.8C17.9 37.8 16.9 38.2 16.2 39C15.5 39.7 15 40.7 15 41.8C15 42.9 15.4 43.9 16.2 44.6C16.9 45.3 17.9 45.8 19 45.8C20.1 45.8 21.1 45.4 21.8 44.6C22.6 43.9 23 42.9 23 41.8ZM35.2 41.8C35.2 40.7 34.8 39.7 34 39C33.3 38.3 32.3 37.8 31.2 37.8C30.1 37.8 29.1 38.2 28.4 39C27.7 39.7 27.2 40.7 27.2 41.8C27.2 42.9 27.6 43.9 28.4 44.6C29.1 45.3 30.1 45.8 31.2 45.8C32.3 45.8 33.3 45.4 34 44.6C34.8 43.9 35.2 42.9 35.2 41.8ZM44.1 38V45.6C44.1 52 38.8 57.3 32.4 57.3H17.9C11.5 57.3 6.2 52 6.2 45.6V38C6.2 31.6 11.5 26.3 17.9 26.3H24.2V19.1C23.5 18.8 23 18 23 17.1C23 15.9 24 14.9 25.2 14.9C26.4 14.9 27.4 15.9 27.4 17.1C27.4 18 26.9 18.7 26.2 19.1V26.3H32.5C38.9 26.3 44.1 31.5 44.1 38ZM39.5 38.9C39.5 37.2 38.8 35.6 37.7 34.5C36.6 33.4 35 32.7 33.3 32.7H17C15.3 32.7 13.7 33.4 12.6 34.5C11.5 35.6 10.8 37.2 10.8 38.9V44.6C10.8 46.3 11.5 47.9 12.6 49C13.7 50.1 15.3 50.8 17 50.8H33.4C35.1 50.8 36.7 50.1 37.8 49C38.9 47.9 39.6 46.3 39.6 44.6V38.9H39.5ZM19.1 39.7C18.5 39.7 18 39.9 17.6 40.3C17.2 40.7 17 41.2 17 41.8C17 42.4 17.2 42.9 17.6 43.3C18 43.7 18.5 43.9 19.1 43.9C19.7 43.9 20.2 43.7 20.6 43.3C21 42.9 21.2 42.4 21.2 41.8C21.2 41.2 21 40.7 20.6 40.3C20.2 40 19.6 39.7 19.1 39.7ZM31.2 39.7C30.6 39.7 30.1 39.9 29.7 40.3C29.3 40.7 29.1 41.2 29.1 41.8C29.1 42.4 29.3 42.9 29.7 43.3C30.1 43.7 30.6 43.9 31.2 43.9C31.8 43.9 32.3 43.7 32.7 43.3C33.1 42.9 33.3 42.4 33.3 41.8C33.3 41.2 33.1 40.7 32.7 40.3C32.3 40 31.8 39.7 31.2 39.7ZM60.2 6.59999V17.6C60.2 19.4 58.8 20.8 57 20.8H47.9C47.1 20.8 46.3 21.1 45.8 21.8L42.6 25.6C42.4 25.8 42.1 25.9 41.8 25.8C41.5 25.7 41.3 25.4 41.3 25.1V22.3C41.3 21.5 40.6 20.8 39.8 20.8H38.2C36.4 20.8 35 19.4 35 17.6V6.59999C35 4.79999 36.4 3.39999 38.2 3.39999H57C58.8 3.39999 60.2 4.79999 60.2 6.59999ZM42.8 12.1C42.8 11.6 42.4 11.2 41.9 11.2H41.6C41.1 11.2 40.7 11.6 40.7 12.1C40.7 12.6 41.1 13 41.6 13H41.9C42.3 13 42.8 12.6 42.8 12.1ZM48.7 12.1C48.7 11.6 48.3 11.2 47.8 11.2H47.5C47 11.2 46.6 11.6 46.6 12.1C46.6 12.6 47 13 47.5 13H47.8C48.3 13 48.7 12.6 48.7 12.1ZM54.7 12.1C54.7 11.6 54.3 11.2 53.8 11.2H53.5C53 11.2 52.6 11.6 52.6 12.1C52.6 12.6 53 13 53.5 13H53.8C54.2 13 54.7 12.6 54.7 12.1Z" stroke="#1B54F8" stroke-width="1.3872" stroke-miterlimit="10"></path></g></svg> 