<?xml version="1.0" encoding="UTF-8"?> <svg xmlns="http://www.w3.org/2000/svg" width="90" height="90" viewBox="0 0 90 90" fill="none"><mask id="mask0_6_5" style="mask-type:alpha" maskUnits="userSpaceOnUse" x="0" y="0" width="84" height="90"><rect opacity="0.5" width="83.5052" height="90" fill="#D9D9D9"></rect></mask><g mask="url(#mask0_6_5)"> </g><path d="M71.2021 44.8064H43.0594C40.7603 44.8064 38.9076 46.7143 38.9076 49.0507V62.1982C38.9076 64.5346 40.7739 66.4424 43.0594 66.4424H71.2021C73.4876 66.4424 75.3539 64.5346 75.3539 62.1982V49.0507C75.3539 46.7005 73.5012 44.8064 71.2021 44.8064ZM72.7168 62.1982C72.7168 63.0553 72.0406 63.7465 71.2156 63.7465H43.0729C42.2344 63.7465 41.5582 63.0553 41.5582 62.1982V49.0507C41.5582 48.1935 42.2344 47.5023 43.0729 47.5023H71.2156C72.0541 47.5023 72.7168 48.1935 72.7303 49.0507V62.1982H72.7168ZM48.6446 50.3364C45.7776 50.3364 43.4651 52.7005 43.4651 55.6313C43.4651 58.5622 45.7776 60.9263 48.6446 60.9263C51.5117 60.9263 53.8242 58.5622 53.8242 55.6313C53.8242 52.7143 51.4981 50.3364 48.6446 50.3364ZM48.6446 58.2304C47.2382 58.2304 46.1022 57.0691 46.1022 55.6313C46.1022 54.1935 47.2382 53.0323 48.6446 53.0323C50.0511 53.0323 51.1871 54.1935 51.1871 55.6313C51.1871 57.0553 50.0511 58.2166 48.6446 58.2166V58.2304ZM65.6304 50.3364C62.7634 50.3364 60.4508 52.7005 60.4508 55.6313C60.4508 58.5622 62.7634 60.9263 65.6304 60.9263C68.4974 60.9263 70.8099 58.5622 70.8099 55.6313C70.8099 52.7143 68.4839 50.3364 65.6304 50.3364ZM65.6304 58.2304C64.2239 58.2304 63.0879 57.0691 63.0879 55.6313C63.0879 54.1935 64.2239 53.0323 65.6304 53.0323C67.0368 53.0323 68.1728 54.1935 68.1728 55.6313C68.1728 57.0553 67.0368 58.2166 65.6304 58.2166V58.2304ZM88.3907 44.8756H86.5785V27.1382C89.0939 26.3917 90.541 23.7097 89.8107 21.1382C89.0804 18.5668 86.4568 17.0876 83.9414 17.8341C81.426 18.5806 79.979 21.2627 80.7093 23.8341C81.1555 25.424 82.3862 26.682 83.9414 27.1382V44.8756H83.4546V42.7189C83.4546 39.4562 81.2502 36.6359 78.1533 35.8894C77.3824 33.4424 75.1781 31.7834 72.6627 31.7834H41.6394C39.1375 31.7834 36.9196 33.4562 36.1488 35.8894C33.0518 36.6359 30.8475 39.47 30.8475 42.7189V44.8756H25.8978C25.1676 44.8756 24.5725 45.4839 24.5725 46.2304V61.977C24.5725 62.7235 25.1675 63.3318 25.8843 63.3318H30.834V68.5576C30.834 72.4424 33.9174 75.5945 37.7175 75.5945H76.5575C80.3577 75.5945 83.441 72.4424 83.441 68.5576V63.3318H85.0368V75.9954C85.0368 78.8018 82.8054 81.0829 80.0601 81.0829H64.0887V79.2304C64.0887 78.4839 63.4936 77.8756 62.7634 77.8756H47.3464C46.6161 77.8756 46.021 78.4839 46.021 79.2304V85.6452C46.021 86.3917 46.6161 87 47.3464 87H62.7634C63.4936 87 64.0887 86.3917 64.0887 85.6452V83.7926H80.0601C84.266 83.7926 87.674 80.3088 87.6875 75.9954V63.3318H88.4042C89.1345 63.3318 89.7296 62.7235 89.7296 61.977V46.2304C89.7296 45.4839 89.1345 44.8756 88.4042 44.8756H88.3907ZM83.1571 22.5069C83.1571 21.318 84.1037 20.3641 85.2667 20.3641C86.4298 20.3641 87.3629 21.3318 87.3629 22.5207C87.3629 23.7097 86.4163 24.6636 85.2667 24.6636C84.1037 24.6636 83.1706 23.6959 83.1706 22.5069H83.1571ZM61.438 84.2765H48.6717V80.5714H61.438V84.2765ZM41.6259 34.4654H72.6492C73.5958 34.4654 74.4884 34.9078 75.0834 35.6682H39.1781C39.7731 34.9078 40.6657 34.4654 41.6259 34.4654ZM27.2096 60.6221V47.5714H30.834V60.6221H27.2096ZM80.8039 68.5438C80.8039 70.9355 78.8971 72.8848 76.5575 72.8848H37.7175C35.3779 72.8848 33.4711 70.9355 33.4711 68.5438V42.7051C33.4711 40.3134 35.3779 38.3641 37.7175 38.3641H76.5575C78.8971 38.3641 80.8039 40.3134 80.8039 42.7051V68.5438ZM83.441 47.5714H87.0654V60.6221H83.441V47.5714ZM26.9797 40.8525C27.683 40.8525 28.2645 40.2857 28.2915 39.553L28.4944 34.894H30.2389C32.4162 34.9217 34.3636 33.47 35.0128 31.3548L39.9895 15.6912C40.8415 12.9954 39.408 10.106 36.7709 9.23502C36.284 9.08295 35.7566 9 35.2292 9H5.01728C2.24493 9 0 11.2949 0 14.129C0 14.6682 0.081142 15.2074 0.243426 15.7189L5.22014 31.3687C5.86927 33.4977 7.81668 34.9355 9.99399 34.9078H18.6086L26.2089 40.5899C26.4388 40.7558 26.7092 40.8525 26.9932 40.8387L26.9797 40.8525ZM25.7626 36.9263L19.8122 32.4747C19.5823 32.3088 19.3118 32.212 19.0278 32.212H9.98047C8.95267 32.212 8.03306 31.5346 7.72202 30.5253L2.75883 14.8756C2.35312 13.6037 3.0293 12.235 4.27348 11.8203C4.51691 11.7373 4.76033 11.6959 5.01728 11.6959H35.2292C36.541 11.6959 37.6093 12.7742 37.6093 14.1152C37.6093 14.3779 37.5688 14.6267 37.4876 14.8756L32.5109 30.5392C32.2134 31.5484 31.2938 32.2396 30.2525 32.2258H27.2367C26.5334 32.2258 25.9519 32.7926 25.9249 33.5253L25.7761 36.9401L25.7626 36.9263ZM30.7258 17.4885H9.52066C8.79039 17.5161 8.18182 16.9217 8.15477 16.1751C8.12773 15.4286 8.70924 14.8065 9.43952 14.7788C9.46657 14.7788 9.49362 14.7788 9.52066 14.7788H30.7258C31.4561 14.7512 32.0646 15.3456 32.0917 16.0922C32.1187 16.8387 31.5372 17.4608 30.8069 17.4885C30.7799 17.4885 30.7528 17.4885 30.7258 17.4885ZM28.6161 23.4332H11.6304C10.9001 23.4608 10.2915 22.8664 10.2645 22.1198C10.2374 21.3733 10.8189 20.7512 11.5492 20.7235C11.5763 20.7235 11.6033 20.7235 11.6304 20.7235H28.6161C29.3464 20.7512 29.9144 21.3733 29.9008 22.1198C29.8738 22.8387 29.3193 23.4055 28.6161 23.4332ZM26.4793 29.3779H13.7806C13.0503 29.4055 12.4418 28.8111 12.4147 28.0645C12.3877 27.318 12.9692 26.6959 13.6995 26.6682C13.7265 26.6682 13.7536 26.6682 13.7806 26.6682H26.4658C27.1961 26.6959 27.7641 27.318 27.7506 28.0645C27.7235 28.7834 27.1691 29.3502 26.4658 29.3779H26.4793Z" fill="#1B54F8"></path></svg> 