<?xml version="1.0" encoding="UTF-8"?> <svg xmlns="http://www.w3.org/2000/svg" id="Layer_1" data-name="Layer 1" viewBox="0 0 80 80"><defs><style>.cls-1{fill:#1b54f8;}</style></defs><path class="cls-1" d="M8.82,44.26,24.88,57.14,14.48,67.75h-5V80H68.78V67.75H60.93V56H44.8A7.61,7.61,0,0,0,42,51.17L23.06,36l5.75-8.29a6.91,6.91,0,0,0,1.05-2.38H56.47a5.38,5.38,0,0,0,4.17-8.79l2.2-2.61a4.22,4.22,0,0,0,2,.5,4,4,0,0,0,.83-.09l5.07-1A4.19,4.19,0,0,0,74,8.34L73,3.27,71,3.66l1,5.07a2.23,2.23,0,0,1-1.75,2.63l-5.07,1a2.23,2.23,0,0,1-2.63-1.74l-1-5.07a2.22,2.22,0,0,1,.33-1.68,2.24,2.24,0,0,1,1.42-1l5.07-1L68,0,62.94,1A4.2,4.2,0,0,0,59.66,6l1,5.07a4.22,4.22,0,0,0,.68,1.56l-2.22,2.64a5.42,5.42,0,0,0-2.68-.72H24.32a5.38,5.38,0,0,0-4.93,3.27,6.85,6.85,0,0,0-2.05,1.93l-5.78,8.33a7,7,0,0,0-1.21,3.27,7.78,7.78,0,0,0-2.73,2.14A7.69,7.69,0,0,0,8.82,44.26Zm58,25.45V78H11.45V69.71ZM44.85,58H59v9.78H17.22l9.2-9.38,6,4.8A7.68,7.68,0,0,0,44.85,58ZM24.32,16.48H56.47a3.43,3.43,0,0,1,0,6.86H30a7,7,0,0,0-6.95-6.62A3.37,3.37,0,0,1,24.32,16.48ZM13.17,29.17,19,20.84a5,5,0,1,1,8.25,5.73L21.42,34.9a5,5,0,1,1-8.25-5.73Zm-4,5.51a5.84,5.84,0,0,1,1.33-1.2,7,7,0,0,0,11.25,3.93L40.8,52.69a5.73,5.73,0,0,1-7.17,9L10,42.73A5.73,5.73,0,0,1,9.15,34.68Z"></path></svg> 