<?xml version="1.0" encoding="UTF-8"?> <!-- Generator: Adobe Illustrator 25.2.3, SVG Export Plug-In . SVG Version: 6.00 Build 0) --> <svg xmlns="http://www.w3.org/2000/svg" xmlns:xlink="http://www.w3.org/1999/xlink" version="1.1" id="Layer_1" x="0px" y="0px" viewBox="0 0 94 94" style="enable-background:new 0 0 94 94;" xml:space="preserve"> <style type="text/css"> .st0{fill:#1B54F8;} </style> <g> <g> <path class="st0" d="M55.6,28.9c0-4.8-4-8.8-8.8-8.8s-8.8,4-8.8,8.8s4,8.8,8.8,8.8S55.6,33.7,55.6,28.9z M41.6,28.9 c0-3,2.3-5.3,5.3-5.3s5.3,2.3,5.3,5.3s-2.3,5.3-5.3,5.3S41.6,31.9,41.6,28.9z"></path> <path class="st0" d="M46.9,37.9c-5,0-9-4.1-9-9s4.1-9,9-9c5,0,9,4.1,9,9S51.8,37.9,46.9,37.9z M46.9,20.5c-4.7,0-8.5,3.8-8.5,8.5 s3.8,8.5,8.5,8.5s8.5-3.8,8.5-8.5S51.6,20.5,46.9,20.5z M46.9,34.6c-3.1,0-5.5-2.4-5.5-5.5s2.4-5.5,5.5-5.5s5.5,2.4,5.5,5.5 C52.4,32,50,34.6,46.9,34.6z M46.9,23.9c-2.8,0-5,2.2-5,5s2.2,5,5,5s5-2.2,5-5S49.7,23.9,46.9,23.9z"></path> </g> <g> <path class="st0" d="M74.8,68.7v-6.4c0-3-2.4-5.4-5.4-5.4H48.6v-8.5h0.8c1.6,0,3-1.3,3-3v-1.5c0.4-0.2,0.8-0.3,1.2-0.5l1,1 c1.1,1.1,3.1,1.1,4.2,0l3.7-3.7c1.2-1.2,1.2-3,0-4.2l-1-1c0.2-0.4,0.3-0.8,0.5-1.2h1.3c1.6,0,3-1.3,3-3v-5.2c0-1.6-1.3-3-3-3h-1.5 c-0.2-0.4-0.3-0.8-0.5-1.2l1-1c1.2-1.2,1.2-3,0-4.2l-3.7-3.6c-1.2-1.2-3-1.2-4.2,0l-1,1c-0.4-0.2-0.8-0.3-1.2-0.5v-1.5 c0-1.6-1.3-3-3-3H44c-1.6,0-3,1.3-3,3v1.5c-0.4,0.2-0.8,0.3-1.2,0.5l-1-1c-1.2-1.2-3-1.2-4.2,0L31,16.9c-1.2,1.2-1.2,3,0,4.2l1,1 c-0.2,0.4-0.3,0.8-0.5,1.2h-1.4c-1.6,0-3,1.3-3,3v5.4c0,1.6,1.3,3,3,3h1.5c0.2,0.4,0.3,0.8,0.5,1.2l-1,1c-0.5,0.5-0.8,1.2-0.8,2 s0.3,1.5,0.8,2l3.7,3.7c1.2,1.2,3,1.2,4.2,0l1-1c0.4,0.2,0.8,0.3,1.2,0.5v1.4c0,1.6,1.3,3,3,3H45V57H24.5c-3,0-5.4,2.4-5.4,5.4 v6.4c-3.6,0.8-6.1,4-6.1,7.8c0,4.3,3.6,8,8,8s7.8-3.6,7.8-8c0-3.8-2.7-6.9-6.1-7.8v-6.5c0-1.1,0.8-1.9,1.9-1.9h20.6v8.5 c-3.6,0.8-6.1,4-6.1,7.8c0,4.3,3.6,8,8,8s7.9-3.6,7.9-8c0-3.8-2.7-6.9-6.1-7.8v-8.6h20.6c1.1,0,1.9,0.8,1.9,1.9v6.4 c-3.6,0.8-6.1,4-6.1,7.8c0,4.3,3.6,8,8,8c4.3,0,8-3.6,8-8C80.9,72.7,78.3,69.6,74.8,68.7z M43.5,41c-1-0.2-1.9-0.6-2.9-1.2 c-0.7-0.4-1.5-0.2-2,0.3l-1.5,1.5l-2.9-2.8l1.5-1.5c0.5-0.5,0.6-1.4,0.3-2.1c-0.5-0.8-0.8-1.8-1.2-2.9c-0.2-0.8-0.8-1.2-1.6-1.2 H31V27h2.2c0.8,0,1.5-0.5,1.6-1.2c0.2-1,0.6-1.9,1.2-2.9c0.4-0.7,0.2-1.5-0.3-2l-1.5-1.5l3-3l1.5,1.5c0.5,0.5,1.4,0.6,2.1,0.3 c0.8-0.5,1.8-0.8,2.9-1.2c0.8-0.2,1.2-0.8,1.2-1.6v-2.2H49v2.2c0,0.8,0.5,1.5,1.2,1.6c1,0.3,1.9,0.6,2.9,1.2 c0.7,0.4,1.5,0.2,2.1-0.3l1.5-1.5l3,3l-1.5,1.5c-0.5,0.5-0.6,1.4-0.3,2.1c0.5,0.8,0.8,1.8,1.2,2.9c0.2,0.8,0.8,1.2,1.6,1.2H63v4.1 h-2.2c-0.8,0-1.5,0.5-1.6,1.2c-0.3,1-0.6,1.9-1.2,2.9c-0.4,0.7-0.2,1.5,0.3,2.1l1.5,1.5l-3,3l-1.5-1.5c-0.5-0.5-1.4-0.6-2.1-0.3 c-0.8,0.5-1.8,0.8-2.9,1.2c-0.8,0-1.2,0.6-1.2,1.4V45H45v-2.2C44.9,42,44.2,41.3,43.5,41z M25.3,76.4c0,2.4-1.9,4.4-4.4,4.4 s-4.5-1.9-4.5-4.4c0-2.4,1.9-4.4,4.4-4.4S25.3,74,25.3,76.4z M51.3,76.4c0,2.4-1.9,4.4-4.4,4.4s-4.4-1.9-4.4-4.4s1.9-4.4,4.4-4.4 S51.3,74,51.3,76.4z M73,80.9c-2.4,0-4.4-1.9-4.4-4.4s1.9-4.4,4.4-4.4s4.4,1.9,4.4,4.4C77.4,78.8,75.5,80.9,73,80.9z"></path> <path class="st0" d="M73.1,84.7c-4.5,0-8.2-3.7-8.2-8.2c0-3.8,2.6-7,6.1-8v-6.2c0-0.9-0.7-1.7-1.7-1.7H48.9v8 c3.6,0.9,6.1,4.2,6.1,8c0,4.6-3.6,8.2-8.2,8.2c-4.5,0-8.2-3.7-8.2-8.2c0-3.8,2.6-7,6.1-8v-8H24.5c-0.9,0-1.7,0.7-1.7,1.7v6.2 c3.6,0.9,6.1,4.2,6.1,8c0,4.6-3.6,8.2-8.1,8.2s-8.2-3.7-8.2-8.2c0-3.8,2.6-7,6.1-8v-6.2c0-3.2,2.6-5.7,5.7-5.7H45v-8h-0.6 c-1.7,0-3.2-1.4-3.2-3.2v-1.2l-0.8-0.3l-0.9,0.9c-1.2,1.2-3.3,1.2-4.5,0l-3.7-3.7c-0.6-0.6-0.9-1.4-0.9-2.2s0.3-1.6,0.9-2.2 l0.9-0.9L31.9,35h-1.4c-1.7,0-3.2-1.4-3.2-3.2v-5.2c0-1.7,1.4-3.2,3.2-3.2h1.2l0.3-0.8l-0.9-1.1c-1.2-1.2-1.2-3.3,0-4.5l3.7-3.7 c0.6-0.6,1.4-0.9,2.2-0.9s1.6,0.3,2.2,0.9l0.9,0.9l0.8-0.3v-1.3c0-1.7,1.4-3.2,3.2-3.2h5.2c1.7,0,3.2,1.4,3.2,3.2v1.3l0.8,0.3 l0.9-0.9c0.6-0.6,1.4-0.9,2.2-0.9s1.6,0.3,2.2,0.9l3.7,3.6c0.6,0.6,0.9,1.4,0.9,2.2c0,0.8-0.3,1.6-0.9,2.2l-0.9,0.9l0.3,0.8h1.5 c1.7,0,3.2,1.4,3.2,3.2v5.2c0,1.7-1.4,3.2-3.2,3.2H62l-0.3,0.8l0.9,0.9c0.6,0.6,0.9,1.4,0.9,2.2s-0.3,1.6-0.9,2.2L59,44.6 c-1.2,1.2-3.4,1.2-4.5,0l-0.9-0.9L52.8,44v1.3c0,1.7-1.4,3.2-3.2,3.2H49v8h20.4c3.2,0,5.7,2.6,5.7,5.7v6.2 c3.6,0.9,6.1,4.2,6.3,7.9C81.3,81,77.6,84.7,73.1,84.7z M48.4,60.1h20.9c1.2,0,2.2,1,2.2,2.2v6.6h-0.2c-3.5,0.8-5.9,3.9-5.9,7.4 c0,4.3,3.5,7.7,7.7,7.7s7.7-3.5,7.7-7.7c-0.1-3.6-2.7-6.6-6.1-7.4h-0.2v-6.6c0-2.9-2.3-5.2-5.2-5.2h-21v-9h1.1 c1.4,0,2.7-1.2,2.7-2.7v-1.6l1.5-0.6l1.1,1.1c1,1,2.9,1,3.8,0l3.7-3.7c0.5-0.5,0.8-1.2,0.8-1.9s-0.3-1.4-0.8-1.9l-1.1-1.1l0.6-1.5 h1.6c1.4,0,2.7-1.2,2.7-2.7v-5.2c0-1.4-1.2-2.7-2.7-2.7h-1.6l-0.6-1.5l1.1-1.1c1.1-1.1,1.1-2.8,0-3.8l-3.7-3.6c-1-1-2.8-1-3.8,0 l-1.1,1.1l-1.5-0.6v-1.6c0-1.4-1.2-2.7-2.7-2.7h-5.2c-1.4,0-2.7,1.2-2.7,2.7v1.6L40,14.7l-1.1-1.1c-1-1-2.8-1-3.8,0l-3.7,3.7 c-1.1,1.1-1.1,2.8,0,3.8l1.1,1.1L32,23.7h-1.6c-1.4,0-2.7,1.2-2.7,2.7v5.3c0,1.4,1.2,2.7,2.7,2.7h1.7l0.6,1.4l-1.1,1.1 c-0.5,0.5-0.8,1.1-0.8,1.8s0.3,1.3,0.8,1.8l3.7,3.7c1.1,1.1,2.8,1.1,3.8,0l1.1-1.1l1.5,0.6v1.6c0,1.4,1.2,2.7,2.7,2.7h1.1v9h-21 c-2.9,0-5.2,2.3-5.2,5.2v6.6h-0.2c-3.5,0.8-5.9,3.9-5.9,7.4c0,4.3,3.5,7.7,7.7,7.7s7.6-3.4,7.6-7.7c0-3.6-2.4-6.6-5.9-7.4h-0.2 v-6.5c0-1.2,1-2.2,2.2-2.2h20.9V69h-0.2c-3.5,0.8-5.9,3.9-5.9,7.4c0,4.3,3.5,7.7,7.7,7.7c4.3,0,7.7-3.4,7.7-7.7 c0-3.6-2.4-6.6-5.9-7.4h-0.2v-8.9H48.4z M73,81.2c-2.6,0-4.7-2-4.7-4.7s2-4.7,4.7-4.7s4.7,2,4.7,4.7C77.7,79,75.6,81.2,73,81.2z M73,72.4c-2.2,0-4.2,1.8-4.2,4.2c0,2.3,1.8,4.2,4.2,4.2c2.2,0,4.2-1.9,4.2-4.2C77.2,74.2,75.3,72.4,73,72.4z M46.9,81.1 c-2.6,0-4.7-2-4.7-4.7s2-4.7,4.7-4.7s4.7,2,4.7,4.7S49.4,81.1,46.9,81.1z M46.9,72.3c-2.2,0-4.2,1.8-4.2,4.2 c0,2.3,1.8,4.2,4.2,4.2c2.2,0,4.2-1.8,4.2-4.2C51.1,74.1,49.1,72.3,46.9,72.3z M20.9,81.1c-2.6,0-4.7-2-4.7-4.7s2-4.7,4.7-4.7 s4.7,2,4.7,4.7S23.4,81.1,20.9,81.1z M20.9,72.3c-2.2,0-4.2,1.8-4.2,4.2c0,2.3,1.8,4.2,4.2,4.2s4.2-1.8,4.2-4.2 C25.1,74.1,23.1,72.3,20.9,72.3z M49.2,45.2h-4.6v-2.4c-0.1-0.6-0.6-1.2-1.1-1.4c-1-0.2-2-0.6-2.9-1.2c-0.6-0.3-1.2-0.2-1.7,0.3 l-1.7,1.7l-3.4-3.3l1.6-1.6c0.4-0.4,0.5-1.2,0.3-1.8c-0.5-0.8-0.9-1.8-1.2-2.9c-0.2-0.7-0.7-1.1-1.4-1.1h-2.4v-4.6h2.4 c0.6,0,1.2-0.5,1.4-1c0.2-1,0.6-2,1.2-3c0.3-0.6,0.2-1.2-0.3-1.7l-1.7-1.8L37,16l1.6,1.6c0.4,0.4,1.2,0.5,1.8,0.3 c0.8-0.5,1.8-0.9,2.9-1.2c0.7-0.2,1.1-0.7,1.1-1.4v-2.6H49v2.4c0,0.6,0.5,1.2,1,1.4c1,0.3,2,0.6,3,1.2c0.6,0.3,1.2,0.2,1.8-0.3 l1.7-1.7l3.3,3.3l-1.6,1.7c-0.4,0.4-0.5,1.2-0.3,1.8c0.5,0.8,0.9,1.8,1.2,2.9c0.2,0.7,0.7,1.1,1.4,1.1H63v4.6h-2.4 c-0.6,0-1.2,0.5-1.4,1c-0.3,1-0.6,2-1.2,3c-0.3,0.6-0.2,1.2,0.3,1.8l1.7,1.7L56.7,42l-1.6-1.6c-0.4-0.4-1.2-0.5-1.8-0.3 c-0.8,0.5-1.8,0.9-2.9,1.2c-0.7,0.2-1.1,0.7-1.1,1.4C49.2,42.7,49.2,45.2,49.2,45.2z M45.2,44.7h3.6v-1.9c0-0.9,0.5-1.6,1.4-1.9 c1-0.3,1.9-0.7,2.8-1.1c0.8-0.4,1.8-0.2,2.4,0.4l1.3,1.3l2.6-2.6l-1.4-1.4c-0.6-0.7-0.8-1.6-0.4-2.4c0.5-0.8,0.8-1.7,1.1-2.8 c0.2-0.8,1-1.4,1.9-1.4h1.9v-3.6h-1.9c-0.9,0-1.6-0.5-1.9-1.4c-0.3-1-0.7-1.9-1.1-2.8c-0.4-0.8-0.2-1.8,0.4-2.4l1.3-1.3l-2.6-2.6 l-1.4,1.4c-0.7,0.6-1.6,0.8-2.4,0.4C51.9,18,51,17.7,50,17.4c-0.8-0.2-1.4-1-1.4-1.9v-2.1H45v2c0,0.9-0.5,1.6-1.4,1.9 c-1,0.3-1.9,0.7-2.8,1.1C40,18.8,39,18.6,38.4,18L37,16.7l-2.6,2.6l1.4,1.4c0.6,0.6,0.8,1.5,0.4,2.3c-0.5,0.8-0.9,1.7-1.1,2.8 c-0.2,0.8-1,1.4-1.9,1.4h-1.9v3.6h1.9c0.9,0,1.6,0.5,1.9,1.4c0.3,1,0.7,1.9,1.1,2.8c0.4,0.8,0.2,1.8-0.4,2.4l-1.3,1.4l2.6,2.6 l1.4-1.4c0.6-0.6,1.5-0.8,2.3-0.4c0.8,0.5,1.7,0.9,2.8,1.1l0,0c0.8,0.3,1.4,1,1.5,1.8L45.2,44.7L45.2,44.7z"></path> </g> </g> </svg> 