<?xml version="1.0" encoding="UTF-8"?> <svg xmlns="http://www.w3.org/2000/svg" xmlns:xlink="http://www.w3.org/1999/xlink" width="60" height="60" viewBox="0 0 60 60"><defs><clipPath id="clip-path"><rect id="Rectangle_3" data-name="Rectangle 3" width="60" height="60" transform="translate(548 95)" fill="#fff" stroke="#707070" stroke-width="1"></rect></clipPath></defs><g id="Mask_Group_3" data-name="Mask Group 3" transform="translate(-548 -95)" clip-path="url(#clip-path)"><path id="Path_29" data-name="Path 29" d="M36.179,11.648a.331.331,0,0,1,.039-.035l.01-.008.017-.014,0,0,.006,0,0,0,.008,0,0,0,.019-.01,0,0,.008,0,0,0a.473.473,0,0,1,.223-.054H49.132a.48.48,0,0,1,0,.96l-12.411,0-5.005,5a.481.481,0,0,1-.68-.68Zm.343,18.042a.471.471,0,0,1-.273-.085l0,0a.4.4,0,0,1-.068-.058L31.038,24.4a.481.481,0,0,1,.68-.68l5.005,5.005H49.136a.48.48,0,1,1,0,.96l-12.614,0ZM24.3,6.63a.481.481,0,1,1,.68.68L18.147,14.14h7.085a3.352,3.352,0,0,1,3.342,3.342v6.235a3.352,3.352,0,0,1-3.342,3.342l-16.489,0A3.348,3.348,0,0,1,5.4,23.713V17.48a3.348,3.348,0,0,1,3.34-3.342h7.085L9,7.309a.481.481,0,0,1,.68-.68l7.311,7.311ZM22.472,17.261a3.338,3.338,0,1,0,2.358.978A3.32,3.32,0,0,0,22.472,17.261Zm1.679,1.657a2.375,2.375,0,1,0,.7,1.679A2.368,2.368,0,0,0,24.151,18.919Zm-13,28.379a1.374,1.374,0,1,0-.974.4A1.372,1.372,0,0,0,11.155,47.3Zm1.365-.974a2.343,2.343,0,0,1-.242,1.036A9.147,9.147,0,0,0,25.684,36.686a.479.479,0,1,1,.912-.3A10.11,10.11,0,0,1,11.679,48.121a2.337,2.337,0,1,1,.84-1.8ZM42.347,16.105v3.683a.48.48,0,1,0,.96,0V16.105a.48.48,0,1,0-.96,0ZM36.521,39.989a.48.48,0,1,1,0-.96H49.134a.48.48,0,1,1,0,.96Zm0-2.085a.48.48,0,1,1,0-.96H49.134a.48.48,0,1,1,0,.96Zm5.307-18.518-2.207-1.439,2.207-1.439a.479.479,0,0,0-.521-.8L38.49,17.543a.513.513,0,0,0-.081.064l-.006.006a.458.458,0,0,0-.085.118l-.006.01,0,.01a.5.5,0,0,0-.043.188v.019a.491.491,0,0,0,.043.188l0,.01.006.01a.494.494,0,0,0,.085.118l.006.006v0a.422.422,0,0,0,.081.064l2.817,1.837a.48.48,0,0,0,.521-.805Zm2.521.8,2.817-1.837a.514.514,0,0,0,.081-.064l.006-.006v0a.458.458,0,0,0,.085-.118l.006-.01,0-.01a.5.5,0,0,0,.043-.188v-.019a.491.491,0,0,0-.043-.188l0-.01-.006-.01a.494.494,0,0,0-.085-.118v0l0,0h0a.422.422,0,0,0-.081-.064L44.349,15.7a.479.479,0,0,0-.521.8l2.207,1.439-2.207,1.439a.48.48,0,0,0,.521.805ZM11.5,17.262a3.338,3.338,0,1,0,2.358.978,3.32,3.32,0,0,0-2.358-.978Zm1.681,1.657a2.375,2.375,0,1,0,.7,1.679A2.368,2.368,0,0,0,13.182,18.919ZM8.289,42.351a9.194,9.194,0,0,1-.2-4.976,9.15,9.15,0,0,1,13.6-5.7,2.343,2.343,0,1,0,.6-.759A10.11,10.11,0,0,0,7.374,42.65a.481.481,0,0,0,.914-.3ZM36.521,31.278H49.133a.48.48,0,0,1,.48.48v3.489a.48.48,0,0,1-.48.48H36.521a.48.48,0,0,1-.48-.48V31.758a.48.48,0,0,1,.48-.48Zm12.133.962H37v2.527h11.65ZM37.584,13.986a.48.48,0,0,0-.48.48v6.963a.48.48,0,0,0,.48.48H48.073a.48.48,0,0,0,.48-.48V14.466a.48.48,0,0,0-.48-.48Zm10.007.96H38.064v6h9.526ZM18.352,40.886a1.935,1.935,0,1,0-1.367.563A1.924,1.924,0,0,0,18.352,40.886Zm.682.678a2.891,2.891,0,1,0-2.047.848A2.882,2.882,0,0,0,19.034,41.563Zm1.373-.625c-.012.029-.151.318-.151.318a.48.48,0,0,0,.012.471l.924,1.537-.461.461-1.5-.9a.48.48,0,0,0-.5-.033c-.112.06-.219.11-.318.151s-.207.081-.308.112a.48.48,0,0,0-.352.35l-.432,1.739H16.66L16.226,43.4a.482.482,0,0,0-.325-.345,3.456,3.456,0,0,1-.333-.12c-.029-.012-.318-.151-.318-.151a.48.48,0,0,0-.471.012l-1.537.924-.461-.461.9-1.5a.48.48,0,0,0,.033-.5c-.06-.112-.11-.219-.151-.318s-.081-.207-.112-.308a.48.48,0,0,0-.35-.352l-1.739-.432v-.653l1.739-.434a.482.482,0,0,0,.345-.325,3.456,3.456,0,0,1,.12-.333c.012-.029.151-.318.151-.318a.48.48,0,0,0-.012-.471l-.924-1.537.461-.461,1.5.9a.48.48,0,0,0,.5.033c.112-.06.219-.11.318-.151s.207-.081.308-.112a.48.48,0,0,0,.352-.35l.432-1.739h.653l.434,1.739a.482.482,0,0,0,.325.345,3.457,3.457,0,0,1,.333.12c.029.012.318.151.318.151a.48.48,0,0,0,.471-.012l1.537-.924.461.461-.9,1.5a.48.48,0,0,0-.033.5c.06.112.11.219.151.318s.081.207.112.308a.48.48,0,0,0,.35.352l1.739.432v.653l-1.739.434a.482.482,0,0,0-.345.325c-.033.108-.074.219-.12.333Zm.885.364c-.021.052-.045.1-.068.157l.962,1.6a.482.482,0,0,1-.05.62l-.991.989a.479.479,0,0,1-.585.072l-1.634-.984c-.05.023-.1.045-.157.068s-.1.043-.157.062L18.158,45.7a.479.479,0,0,1-.474.4l-1.4,0a.483.483,0,0,1-.467-.366l-.461-1.849c-.052-.019-.1-.041-.157-.062s-.1-.045-.157-.068l-1.6.962a.482.482,0,0,1-.62-.05l-.989-.991a.479.479,0,0,1-.072-.585l.984-1.634c-.023-.05-.045-.1-.068-.157s-.043-.1-.06-.157L10.8,40.69a.479.479,0,0,1-.4-.474l0-1.4a.481.481,0,0,1,.366-.467l1.849-.461c.019-.052.041-.1.06-.157s.045-.1.068-.157l-.962-1.6a.482.482,0,0,1,.05-.62l.991-.989a.479.479,0,0,1,.585-.072l1.634.984c.05-.023.1-.045.157-.068s.1-.043.157-.06l.453-1.818a.479.479,0,0,1,.474-.4l1.4,0a.481.481,0,0,1,.467.366l.461,1.849.157.06c.054.021.1.045.157.068l1.6-.962a.482.482,0,0,1,.62.05l.989.991a.479.479,0,0,1,.072.585l-.984,1.634c.023.05.045.1.068.157s.041.1.06.157l1.818.453a.479.479,0,0,1,.4.474l0,1.4a.481.481,0,0,1-.366.467l-1.849.461c-.017.052-.037.1-.06.157Zm3.477-7.615a1.374,1.374,0,1,1,.4-.974A1.374,1.374,0,0,1,24.769,33.687ZM25.231,15.1H8.742a2.387,2.387,0,0,0-2.38,2.38v6.235a2.387,2.387,0,0,0,2.38,2.38H25.231a2.387,2.387,0,0,0,2.38-2.38V17.481a2.383,2.383,0,0,0-2.38-2.378Z" transform="translate(550.098 97.011)" fill="#1c54f8" stroke="#1c54f9" stroke-width="0.2" fill-rule="evenodd"></path></g></svg> 