<?xml version="1.0" encoding="UTF-8"?> <svg xmlns="http://www.w3.org/2000/svg" xmlns:xlink="http://www.w3.org/1999/xlink" width="60" height="60" viewBox="0 0 60 60"><defs><clipPath id="clip-path"><rect id="Rectangle_8" data-name="Rectangle 8" width="60" height="60" transform="translate(297 22)" fill="#fff" stroke="#707070" stroke-width="1"></rect></clipPath></defs><g id="Mask_Group_3" data-name="Mask Group 3" transform="translate(-297 -22)" clip-path="url(#clip-path)"><g id="Group_8" data-name="Group 8" transform="translate(-93.551 186.272)"><g id="Group_7" data-name="Group 7" transform="translate(397.916 -157.365)"><g id="Group_6" data-name="Group 6" transform="translate(0 0)"><path id="Path_7" data-name="Path 7" d="M90.108,54H86.223a.5.5,0,0,1,0-1h3.885a5.748,5.748,0,0,0,3.225-10.506.526.526,0,0,1-.224-.4,5.738,5.738,0,0,0-5.641-5.652.5.5,0,0,1-.49-.415,7.509,7.509,0,0,0-14.828.255.5.5,0,0,1-.224.351.519.519,0,0,1-.415.053,5.769,5.769,0,0,0-4.652.6A5.674,5.674,0,0,0,64.2,41.1a.49.49,0,0,1-.522.4c-.106-.011-.213-.011-.319-.011a5.748,5.748,0,1,0,0,11.5h3.885a.5.5,0,0,1,0,1H63.359a6.759,6.759,0,0,1-.053-13.518,6.773,6.773,0,0,1,7.951-4.918A8.522,8.522,0,0,1,87.9,35.431,6.723,6.723,0,0,1,94.121,41.8,6.759,6.759,0,0,1,90.108,54Z" transform="translate(-54.099 -28.8)" fill="#1c54f8" fill-rule="evenodd"></path><path id="Path_8" data-name="Path 8" d="M158.531,182.515a.494.494,0,0,1,.245.064,7.282,7.282,0,0,0,1.3.543.5.5,0,0,1,.362.479v1.863a.427.427,0,0,0,.426.426h2.044a.427.427,0,0,0,.426-.426V183.6a.492.492,0,0,1,.362-.479,5.994,5.994,0,0,0,1.3-.543.5.5,0,0,1,.6.085l1.32,1.32a.4.4,0,0,0,.3.128.387.387,0,0,0,.3-.128l1.448-1.448a.47.47,0,0,0,.128-.3.386.386,0,0,0-.128-.3l-1.32-1.32a.5.5,0,0,1-.085-.6,7.284,7.284,0,0,0,.543-1.3.5.5,0,0,1,.479-.362h1.863a.427.427,0,0,0,.426-.426v-2.044a.427.427,0,0,0-.426-.426h-1.863a.492.492,0,0,1-.479-.362,6,6,0,0,0-.543-1.3.5.5,0,0,1,.085-.6l1.32-1.32a.447.447,0,0,0,.128-.3.387.387,0,0,0-.128-.3l-1.448-1.448a.47.47,0,0,0-.3-.128.387.387,0,0,0-.3.128l-1.32,1.32a.5.5,0,0,1-.6.085,7.284,7.284,0,0,0-1.3-.543.5.5,0,0,1-.362-.479v-1.863a.427.427,0,0,0-.426-.426h-2.044a.427.427,0,0,0-.426.426v1.863a.492.492,0,0,1-.362.479,6,6,0,0,0-1.3.543.5.5,0,0,1-.6-.085l-1.32-1.32a.424.424,0,0,0-.607,0l-1.448,1.448a.448.448,0,0,0-.128.3.387.387,0,0,0,.128.3l1.32,1.32a.5.5,0,0,1,.085.6,7.282,7.282,0,0,0-.543,1.3.5.5,0,0,1-.479.362h-1.863a.427.427,0,0,0-.426.426v2.044a.427.427,0,0,0,.426.426h1.863a.492.492,0,0,1,.479.362,6,6,0,0,0,.543,1.3.5.5,0,0,1-.085.6l-1.309,1.3a.47.47,0,0,0-.128.3.387.387,0,0,0,.128.3l1.448,1.448a.4.4,0,0,0,.3.128.386.386,0,0,0,.3-.128l1.32-1.32a.529.529,0,0,1,.351-.128Zm4.385,4.375h-2.044a1.438,1.438,0,0,1-1.437-1.437v-1.49a6.614,6.614,0,0,1-.8-.33l-1.054,1.054a1.433,1.433,0,0,1-2.033,0l-1.448-1.448a1.433,1.433,0,0,1,0-2.033l1.054-1.054a7.415,7.415,0,0,1-.33-.8h-1.49a1.438,1.438,0,0,1-1.437-1.437v-2.044a1.438,1.438,0,0,1,1.437-1.437h1.49a6.613,6.613,0,0,1,.33-.8l-1.054-1.054a1.433,1.433,0,0,1,0-2.033l1.448-1.448a1.433,1.433,0,0,1,2.033,0l1.054,1.054a7.416,7.416,0,0,1,.8-.33v-1.49a1.438,1.438,0,0,1,1.437-1.437h2.044a1.438,1.438,0,0,1,1.437,1.437v1.49a6.616,6.616,0,0,1,.8.33l1.054-1.054a1.433,1.433,0,0,1,2.033,0l1.448,1.448a1.433,1.433,0,0,1,0,2.033l-1.054,1.054a7.411,7.411,0,0,1,.33.8h1.49a1.438,1.438,0,0,1,1.437,1.437v2.044a1.438,1.438,0,0,1-1.437,1.437h-1.49a6.611,6.611,0,0,1-.33.8l1.054,1.054a1.433,1.433,0,0,1,0,2.033l-1.448,1.448a1.439,1.439,0,0,1-2.022,0l-1.054-1.054a7.414,7.414,0,0,1-.8.33v1.49a1.454,1.454,0,0,1-1.448,1.437Z" transform="translate(-139.255 -152.2)" fill="#1c54f8" fill-rule="evenodd"></path><path id="Path_9" data-name="Path 9" d="M205.59,216.722a3.779,3.779,0,1,0,3.779,3.779A3.78,3.78,0,0,0,205.59,216.722Zm0,8.558a4.79,4.79,0,1,1,4.79-4.79A4.8,4.8,0,0,1,205.59,225.28Z" transform="translate(-182.949 -195.806)" fill="#1c54f8" fill-rule="evenodd"></path><path id="Path_10" data-name="Path 10" d="M63.78,417.111a1.469,1.469,0,1,0,1.469,1.469A1.472,1.472,0,0,0,63.78,417.111Zm0,3.949a2.48,2.48,0,1,1,2.48-2.48A2.483,2.483,0,0,1,63.78,421.06Z" transform="translate(-58.298 -374.874)" fill="#1c54f8" fill-rule="evenodd"></path><path id="Path_11" data-name="Path 11" d="M241.6,353.847a.5.5,0,0,1-.5-.5V345.8a.5.5,0,1,1,1,0v7.547a.5.5,0,0,1-.5.5Z" transform="translate(-218.96 -311.611)" fill="#1c54f8" fill-rule="evenodd"></path><path id="Path_12" data-name="Path 12" d="M112.2,435.7H99a.5.5,0,0,1,0-1h13.2a.5.5,0,0,1,0,1Zm17.159,0h-13.2a.5.5,0,0,1,0-1h13.2a.5.5,0,0,1,0,1Z" transform="translate(-91.539 -391.495)" fill="#1c54f8" fill-rule="evenodd"></path><path id="Path_13" data-name="Path 13" d="M224.98,417.111a1.469,1.469,0,1,0,1.469,1.469A1.472,1.472,0,0,0,224.98,417.111Zm0,3.949a2.48,2.48,0,1,1,2.48-2.48A2.483,2.483,0,0,1,224.98,421.06Z" transform="translate(-202.34 -374.874)" fill="#1c54f8" fill-rule="evenodd"></path><path id="Path_14" data-name="Path 14" d="M386.18,417.111a1.469,1.469,0,1,0,1.469,1.469A1.472,1.472,0,0,0,386.18,417.111Zm0,3.949a2.48,2.48,0,1,1,2.48-2.48A2.483,2.483,0,0,1,386.18,421.06Z" transform="translate(-346.381 -374.874)" fill="#1c54f8" fill-rule="evenodd"></path><path id="Path_15" data-name="Path 15" d="M346.373,287.735a.494.494,0,0,1,.245.064,3.7,3.7,0,0,0,.734.309.5.5,0,0,1,.362.479V289.7a.05.05,0,0,0,.053.053h1.224a.05.05,0,0,0,.053-.053v-1.118a.492.492,0,0,1,.362-.479,3.7,3.7,0,0,0,.734-.309.5.5,0,0,1,.6.085l.788.788a.051.051,0,0,0,.075,0l.862-.862a.064.064,0,0,0,.011-.043.039.039,0,0,0-.011-.032l-.788-.788a.5.5,0,0,1-.085-.6,3.7,3.7,0,0,0,.309-.734.5.5,0,0,1,.479-.362h1.118a.05.05,0,0,0,.053-.053v-1.224a.05.05,0,0,0-.053-.053h-1.118a.492.492,0,0,1-.479-.362,3.7,3.7,0,0,0-.309-.734.5.5,0,0,1,.085-.6l.788-.788a.064.064,0,0,0,.011-.043.039.039,0,0,0-.011-.032l-.862-.862a.051.051,0,0,0-.075,0l-.788.788a.5.5,0,0,1-.6.085,3.7,3.7,0,0,0-.734-.309.5.5,0,0,1-.362-.479v-1.118a.05.05,0,0,0-.053-.053h-1.224a.05.05,0,0,0-.053.053v1.118a.492.492,0,0,1-.362.479,3.7,3.7,0,0,0-.734.309.5.5,0,0,1-.6-.085l-.788-.788a.051.051,0,0,0-.074,0l-.862.862a.039.039,0,0,0-.011.032.08.08,0,0,0,.011.043l.788.788a.5.5,0,0,1,.085.6,3.7,3.7,0,0,0-.309.734.5.5,0,0,1-.479.362h-1.118a.05.05,0,0,0-.053.053V285.2a.05.05,0,0,0,.053.053h1.118a.492.492,0,0,1,.479.362,3.7,3.7,0,0,0,.309.734.5.5,0,0,1-.085.6l-.788.788a.051.051,0,0,0,0,.075l.862.862a.051.051,0,0,0,.074,0l.788-.788a.466.466,0,0,1,.351-.149Zm2.618,3.034h-1.224A1.068,1.068,0,0,1,346.7,289.7v-.756c-.075-.032-.16-.064-.234-.1l-.532.532a1.047,1.047,0,0,1-.745.309,1.012,1.012,0,0,1-.745-.309l-.862-.862a1.06,1.06,0,0,1,0-1.5l.532-.532c-.032-.075-.064-.16-.1-.234h-.756a1.068,1.068,0,0,1-1.064-1.064v-1.224a1.068,1.068,0,0,1,1.064-1.064h.756c.032-.074.064-.16.1-.234l-.532-.532a1.047,1.047,0,0,1-.309-.745,1.012,1.012,0,0,1,.309-.745l.862-.862a1.066,1.066,0,0,1,1.5,0l.532.532c.074-.032.16-.064.234-.1v-.756a1.068,1.068,0,0,1,1.064-1.064h1.213a1.068,1.068,0,0,1,1.064,1.064v.756c.074.032.16.064.234.1l.532-.532a1.066,1.066,0,0,1,1.5,0l.862.862a1.047,1.047,0,0,1,.309.745,1.012,1.012,0,0,1-.309.745l-.532.532c.032.075.064.16.1.234h.756a1.068,1.068,0,0,1,1.064,1.064v1.224a1.068,1.068,0,0,1-1.064,1.064h-.756c-.032.074-.064.16-.1.234l.532.532a1.067,1.067,0,0,1,0,1.5l-.862.862a1.054,1.054,0,0,1-.756.309,1.012,1.012,0,0,1-.745-.309l-.532-.532c-.074.032-.16.064-.234.1v.756a1.068,1.068,0,0,1-1.064,1.064Z" transform="translate(-309.298 -251.832)" fill="#1c54f8" fill-rule="evenodd"></path><path id="Path_16" data-name="Path 16" d="M378.129,312.722a1.618,1.618,0,1,0,1.618,1.618,1.617,1.617,0,0,0-1.618-1.618Zm0,4.236a2.629,2.629,0,1,1,2.629-2.629,2.635,2.635,0,0,1-2.629,2.629Z" transform="translate(-339.054 -281.587)" fill="#1c54f8" fill-rule="evenodd"></path><path id="Path_17" data-name="Path 17" d="M37.283,287.735a.5.5,0,0,1,.245.064,3.7,3.7,0,0,0,.734.309.5.5,0,0,1,.362.479V289.7a.05.05,0,0,0,.053.053H39.9a.05.05,0,0,0,.053-.053v-1.118a.492.492,0,0,1,.362-.479,3.7,3.7,0,0,0,.734-.309.5.5,0,0,1,.6.085l.788.788a.051.051,0,0,0,.075,0l.862-.862a.051.051,0,0,0,0-.075l-.788-.788a.5.5,0,0,1-.085-.6,3.7,3.7,0,0,0,.309-.734.5.5,0,0,1,.479-.362H44.4a.05.05,0,0,0,.053-.053v-1.224a.05.05,0,0,0-.053-.053H43.287a.492.492,0,0,1-.479-.362,3.7,3.7,0,0,0-.309-.734.5.5,0,0,1,.085-.6l.788-.788a.064.064,0,0,0,.011-.043.039.039,0,0,0-.011-.032l-.862-.862a.051.051,0,0,0-.075,0l-.788.788a.5.5,0,0,1-.6.085,3.7,3.7,0,0,0-.734-.309.5.5,0,0,1-.362-.479v-1.118a.05.05,0,0,0-.053-.053H38.678a.05.05,0,0,0-.053.053v1.118a.492.492,0,0,1-.362.479,3.7,3.7,0,0,0-.734.309.5.5,0,0,1-.6-.085l-.788-.788a.051.051,0,0,0-.075,0l-.862.862a.039.039,0,0,0-.011.032.081.081,0,0,0,.011.043l.788.788a.5.5,0,0,1,.085.6,3.7,3.7,0,0,0-.309.734.5.5,0,0,1-.479.362H34.175a.05.05,0,0,0-.053.053V285.2a.05.05,0,0,0,.053.053h1.118a.492.492,0,0,1,.479.362,3.7,3.7,0,0,0,.309.734.5.5,0,0,1-.085.6l-.788.788a.053.053,0,0,0-.011.032.08.08,0,0,0,.011.043l.862.862a.051.051,0,0,0,.075,0l.788-.788a.5.5,0,0,1,.351-.149Zm2.619,3.034H38.678a1.068,1.068,0,0,1-1.064-1.064v-.756c-.075-.032-.16-.064-.234-.1l-.532.532a1.066,1.066,0,0,1-1.5,0l-.862-.862a1.054,1.054,0,0,1-.309-.756,1.012,1.012,0,0,1,.309-.745l.532-.532c-.032-.075-.064-.16-.1-.234h-.756a1.068,1.068,0,0,1-1.064-1.064v-1.224a1.068,1.068,0,0,1,1.064-1.064h.756c.032-.074.064-.16.1-.234l-.532-.532a1.047,1.047,0,0,1-.309-.745,1.029,1.029,0,0,1,.309-.745l.862-.862a1.047,1.047,0,0,1,.745-.309,1.012,1.012,0,0,1,.745.309l.532.532c.075-.032.16-.064.234-.1v-.756a1.068,1.068,0,0,1,1.064-1.064H39.9a1.068,1.068,0,0,1,1.064,1.064v.756c.075.032.16.064.234.1l.532-.532a1.066,1.066,0,0,1,1.5,0l.862.862a1.047,1.047,0,0,1,.309.745,1.012,1.012,0,0,1-.309.745l-.532.532c.032.075.064.16.1.234h.756a1.068,1.068,0,0,1,1.064,1.064v1.224a1.068,1.068,0,0,1-1.064,1.064h-.756c-.032.074-.064.16-.1.234l.532.532a1.06,1.06,0,0,1,0,1.5l-.862.862a1.047,1.047,0,0,1-.745.309,1.012,1.012,0,0,1-.745-.309l-.532-.532c-.075.032-.16.064-.234.1v.756a1.084,1.084,0,0,1-1.075,1.064Z" transform="translate(-33.1 -251.832)" fill="#1c54f8" fill-rule="evenodd"></path><path id="Path_18" data-name="Path 18" d="M69.229,312.722a1.618,1.618,0,1,0,1.618,1.618A1.617,1.617,0,0,0,69.229,312.722Zm0,4.236a2.629,2.629,0,1,1,2.629-2.629,2.635,2.635,0,0,1-2.629,2.629Z" transform="translate(-63.034 -281.587)" fill="#1c54f8" fill-rule="evenodd"></path></g></g></g></g></svg> 