<?xml version="1.0" encoding="UTF-8"?> <svg xmlns="http://www.w3.org/2000/svg" id="Layer_1" data-name="Layer 1" viewBox="0 0 87 56.54"><defs><style>.cls-1{fill:none;stroke:#1b54f8;stroke-miterlimit:10;stroke-width:3px;}.cls-2{fill:#1b54f8;}</style></defs><path class="cls-1" d="M77.2,40.7A17.27,17.27,0,0,1,89,57,17.07,17.07,0,0,1,72,73.8H22A17,17,0,0,1,20.1,40,16,16,0,0,1,30.2,27.3a16.58,16.58,0,0,1,15.6,1.4c4.2-7.8,13-10.1,20.8-7.3C74.6,24.5,79.3,32.2,77.2,40.7Z" transform="translate(-3.5 -18.76)"></path><path class="cls-2" d="M48.6,32.5a1.6,1.6,0,0,1,1.6-1.3h3.4a1.71,1.71,0,0,1,1.6,1.3l.5,2.5a9.7,9.7,0,0,1,2.8,1.6l2.4-.8a1.71,1.71,0,0,1,2,.7l1.7,2.9a1.71,1.71,0,0,1-.4,2.1l-1.9,1.7a8.6,8.6,0,0,1,0,3.2l1.9,1.7a1.69,1.69,0,0,1,.4,2.1l-1.7,2.9a1.59,1.59,0,0,1-2,.7L58.5,53a9.7,9.7,0,0,1-2.8,1.6l-.5,2.5a1.6,1.6,0,0,1-1.6,1.3H50.2a1.71,1.71,0,0,1-1.6-1.3L48,54.7a9.7,9.7,0,0,1-2.8-1.6l-2.4.8a1.71,1.71,0,0,1-2-.7l-1.7-2.9a1.71,1.71,0,0,1,.4-2.1l1.9-1.7a8.6,8.6,0,0,1,0-3.2l-1.9-1.7a1.69,1.69,0,0,1-.4-2.1l1.7-2.9a1.59,1.59,0,0,1,2-.7l2.4.8A11.65,11.65,0,0,1,48,35Zm-2.9,6.3-3.3-1.1-1.5,2.6,2.6,2.3a9,9,0,0,0,0,4.6l-2.6,2.3,1.5,2.6L45.7,51a10,10,0,0,0,4,2.3l.7,3.4h2.9l.7-3.4A10,10,0,0,0,58,51l3.3,1.1,1.5-2.6-2.6-2.3a9,9,0,0,0,0-4.6l2.6-2.3-1.5-2.6L58,38.8a10,10,0,0,0-4-2.3l-.7-3.4H50.4l-.7,3.4A8.11,8.11,0,0,0,45.7,38.8Z" transform="translate(-3.5 -18.76)"></path><path class="cls-2" d="M53.6,58.7H50.2a1.83,1.83,0,0,1-1.8-1.5l-.6-2.3a8.91,8.91,0,0,1-2.6-1.5l-2.3.8a2.07,2.07,0,0,1-2.3-.8l-1.7-2.9a2,2,0,0,1,.4-2.4l1.8-1.6a7.57,7.57,0,0,1,0-3l-1.8-1.6a2,2,0,0,1-.5-2.4l1.7-2.9a1.91,1.91,0,0,1,2.3-.8l2.3.8A9.63,9.63,0,0,1,47.7,35l.6-2.4a1.82,1.82,0,0,1,1.8-1.5h3.4a1.83,1.83,0,0,1,1.8,1.5l.5,2.4a8.91,8.91,0,0,1,2.6,1.5l2.3-.8a2.07,2.07,0,0,1,2.3.8l1.7,2.9a2,2,0,0,1-.4,2.4l-1.8,1.6a7.57,7.57,0,0,1,0,3L64.3,48a1.85,1.85,0,0,1,.4,2.4L63,53.3a1.91,1.91,0,0,1-2.3.8l-2.3-.8a10.48,10.48,0,0,1-2.6,1.5l-.5,2.4A1.65,1.65,0,0,1,53.6,58.7Zm-8.3-5.9.1.1a9.62,9.62,0,0,0,2.7,1.6h.1l.6,2.5a1.52,1.52,0,0,0,1.4,1.1h3.4A1.39,1.39,0,0,0,55,57l.5-2.6.1-.1a8.35,8.35,0,0,0,2.7-1.6l.1-.1,2.5.8a1.29,1.29,0,0,0,1.7-.6l1.7-2.9a1.53,1.53,0,0,0-.3-1.8l-2-1.8v-.1a8.08,8.08,0,0,0,0-3.1V43l2-1.8a1.4,1.4,0,0,0,.3-1.8l-1.7-2.9a1.39,1.39,0,0,0-1.7-.6l-2.5.8-.1-.1A9.62,9.62,0,0,0,55.6,35l-.1-.1L55,32.5a1.52,1.52,0,0,0-1.4-1.1H50.2a1.39,1.39,0,0,0-1.4,1.1l-.6,2.6h-.1a9.18,9.18,0,0,0-2.7,1.7l-.2.2-2.5-.8a1.29,1.29,0,0,0-1.7.6l-1.7,2.9a1.53,1.53,0,0,0,.3,1.8l2,1.8v.1a8.08,8.08,0,0,0,0,3.1v.1l-2,1.8a1.4,1.4,0,0,0-.3,1.8L41,53.1a1.39,1.39,0,0,0,1.7.6ZM53.5,57H50.2l-.7-3.5a10.27,10.27,0,0,1-3.8-2.2l-3.4,1.1-1.7-3,2.6-2.3a8.22,8.22,0,0,1,0-4.4l-2.6-2.3,1.7-3,3.4,1.1a8.12,8.12,0,0,1,3.8-2.2l.7-3.5h3.3l.7,3.5A10.27,10.27,0,0,1,58,38.5l3.4-1.1,1.7,3-2.6,2.3a8.22,8.22,0,0,1,0,4.4l2.6,2.3-1.7,3L58,51.3a10.27,10.27,0,0,1-3.8,2.2Zm-2.9-.5h2.5l.7-3.3h.1a9,9,0,0,0,3.9-2.3l.1-.1,3.2,1.1,1.3-2.2-2.6-2.3v-.1a8.59,8.59,0,0,0,0-4.5v-.1l2.6-2.3L61.2,38,58,39.1l-.2-.1a9.63,9.63,0,0,0-3.9-2.3h-.1l-.7-3.3H50.6l-.7,3.4h-.1A8,8,0,0,0,45.9,39l-.1.1L42.5,38l-1.3,2.2,2.6,2.3v.1a8.59,8.59,0,0,0,0,4.5v.1l-2.6,2.3,1.3,2.2,3.2-1.1.1.1A9.63,9.63,0,0,0,49.7,53h.1Z" transform="translate(-3.5 -18.76)"></path><path class="cls-2" d="M57.1,44.9a5.2,5.2,0,1,1-5.2-5.2A5.1,5.1,0,0,1,57.1,44.9Zm-8.6,0a3.4,3.4,0,1,0,3.4-3.4A3.37,3.37,0,0,0,48.5,44.9Z" transform="translate(-3.5 -18.76)"></path><path class="cls-2" d="M51.9,50.3a5.46,5.46,0,0,1-5.5-5.4,5.4,5.4,0,0,1,5.5-5.4A5.54,5.54,0,0,1,55.7,41a5.44,5.44,0,0,1,1.7,4A5.51,5.51,0,0,1,51.9,50.3Zm.2-10.4h-.2a5,5,0,0,0-5,4.9,4.93,4.93,0,0,0,5,4.9,4.84,4.84,0,0,0,4.9-4.9,5.15,5.15,0,0,0-1.5-3.6A4.82,4.82,0,0,0,52.1,39.9Zm-.2,8.6a3.67,3.67,0,0,1-3.7-3.6,3.61,3.61,0,0,1,3.7-3.6,3.52,3.52,0,0,1,3.6,3.6A3.59,3.59,0,0,1,51.9,48.5Zm0-6.7a3.1,3.1,0,1,0,0,6.2,3.1,3.1,0,0,0,0-6.2Z" transform="translate(-3.5 -18.76)"></path><path class="cls-2" d="M35,53.7a1.38,1.38,0,0,1,1.3-1.1h2a1.3,1.3,0,0,1,1.3,1.1l.3,1.3a6.38,6.38,0,0,1,1.4.8l1.3-.4a1.3,1.3,0,0,1,1.6.6l1,1.7a1.36,1.36,0,0,1-.3,1.7l-1,.9a4.29,4.29,0,0,1,0,1.6l1,.9a1.36,1.36,0,0,1,.3,1.7l-1,1.7a1.3,1.3,0,0,1-1.6.6l-1.3-.4a6.38,6.38,0,0,1-1.4.8l-.3,1.3a1.38,1.38,0,0,1-1.3,1.1h-2A1.3,1.3,0,0,1,35,68.5l-.3-1.3a6.38,6.38,0,0,1-1.4-.8l-1.3.4a1.3,1.3,0,0,1-1.6-.6l-1-1.7a1.36,1.36,0,0,1,.3-1.7l1-.9a4.29,4.29,0,0,1,0-1.6l-1-.9a1.36,1.36,0,0,1-.3-1.7l1-1.7a1.3,1.3,0,0,1,1.6-.6l1.3.4a6.38,6.38,0,0,1,1.4-.8Zm-1.3,4.2-1.9-.6-.6,1,1.5,1.3a5.11,5.11,0,0,0,0,3L31.3,64l.6,1,1.9-.6a5.73,5.73,0,0,0,2.6,1.5l.4,1.9h1.1l.4-1.9a5.26,5.26,0,0,0,2.6-1.5l1.9.6.6-1-1.5-1.3a5.11,5.11,0,0,0,0-3l1.5-1.3-.6-1-1.9.6a5.73,5.73,0,0,0-2.6-1.5l-.4-1.9H36.8l-.4,1.9A4.72,4.72,0,0,0,33.7,57.9Z" transform="translate(-3.5 -18.76)"></path><path class="cls-2" d="M38.3,69.8h-2a1.43,1.43,0,0,1-1.5-1.3l-.3-1.2a7.46,7.46,0,0,1-1.2-.7l-1.2.4a1.53,1.53,0,0,1-1.9-.7l-1-1.7a1.53,1.53,0,0,1,.4-2l.9-.8a3.3,3.3,0,0,1,0-1.4l-.9-.8a1.68,1.68,0,0,1-.4-2l1-1.7a1.44,1.44,0,0,1,1.9-.7l1.2.4a7.46,7.46,0,0,1,1.2-.7l.3-1.2a1.6,1.6,0,0,1,1.5-1.3h2a1.43,1.43,0,0,1,1.5,1.3l.3,1.2a7.46,7.46,0,0,1,1.2.7l1.2-.4a1.53,1.53,0,0,1,1.9.7l1,1.7a1.53,1.53,0,0,1-.4,2l-.9.8a3.3,3.3,0,0,1,0,1.4l.9.8a1.68,1.68,0,0,1,.4,2l-1,1.7a1.44,1.44,0,0,1-1.9.7l-1.2-.4a7.46,7.46,0,0,1-1.2.7l-.3,1.2A1.5,1.5,0,0,1,38.3,69.8Zm-5-3.7.1.1a9.13,9.13,0,0,0,1.3.8h.1l.3,1.4a1.1,1.1,0,0,0,1.1.9h2a1.17,1.17,0,0,0,1.1-.9l.3-1.4h.1a4.58,4.58,0,0,0,1.3-.8l.1-.1,1.4.4a1,1,0,0,0,1.3-.5l1-1.7a1.37,1.37,0,0,0-.2-1.4l-1.1-1v-.1a3.78,3.78,0,0,0,0-1.5v-.1l1.1-1a1.06,1.06,0,0,0,.2-1.4l-1-1.7a1.19,1.19,0,0,0-1.3-.5l-1.4.4h0a9.13,9.13,0,0,0-1.3-.8h-.1l-.3-1.4a1.1,1.1,0,0,0-1.1-.9h-2a1.17,1.17,0,0,0-1.1.9h0l-.3,1.4h-.1a4.58,4.58,0,0,0-1.3.8l-.1.1L32,55.7a1,1,0,0,0-1.3.5l-1,1.7a1.37,1.37,0,0,0,.2,1.4l1.1,1v.1a3.78,3.78,0,0,0,0,1.5V62l-1.1,1a1.06,1.06,0,0,0-.2,1.4l1,1.7a1.19,1.19,0,0,0,1.3.5ZM38.1,68H36.6l-.4-2a5.85,5.85,0,0,1-2.4-1.4l-2,.6L31,64l1.4-1.4a4.47,4.47,0,0,1,0-2.8l-1.5-1.3.8-1.3,2,.6a5,5,0,0,1,2.5-1.3l.4-1.9h1.5l.4,2A5.85,5.85,0,0,1,40.9,58l2-.6.8,1.3L42.2,60a4.47,4.47,0,0,1,0,2.8l1.5,1.3-.8,1.3-2-.6a5.85,5.85,0,0,1-2.4,1.4ZM37,67.5h.7l.4-1.8h.1a5.61,5.61,0,0,0,2.5-1.4l.1-.1,1.8.6.4-.7-1.5-1.3v-.1a4.78,4.78,0,0,0,0-2.9v-.1L43,58.4l-.4-.7-1.8.6-.1-.1a4.52,4.52,0,0,0-2.5-1.4h-.1L37.7,55H37l-.4,1.9h-.2a5,5,0,0,0-2.6,1.3l-.1.1-1.8-.6-.4.7L33,59.7v.1a4.78,4.78,0,0,0,0,2.9v.1L31.6,64l.4.7,1.8-.6.1.1a4.88,4.88,0,0,0,2.5,1.4h.1Z" transform="translate(-3.5 -18.76)"></path><path class="cls-2" d="M40.2,61.1a2.9,2.9,0,1,1-2.9-2.9A2.9,2.9,0,0,1,40.2,61.1Zm-3.9,0a.94.94,0,0,0,1,1,1,1,0,0,0,1-1,.94.94,0,0,0-1-1A1.08,1.08,0,0,0,36.3,61.1Z" transform="translate(-3.5 -18.76)"></path><path class="cls-2" d="M37.3,64.2a3.15,3.15,0,0,1,0-6.3,3.15,3.15,0,1,1,0,6.3Zm0-5.7a2.58,2.58,0,0,0-2.6,2.6,2.65,2.65,0,1,0,5.3,0A2.61,2.61,0,0,0,37.3,58.5Zm0,3.8a1.16,1.16,0,0,1-1.2-1.2,1.29,1.29,0,0,1,1.2-1.2,1.2,1.2,0,0,1,0,2.4Zm0-2a.86.86,0,0,0-.8.8.74.74,0,0,0,.8.8.79.79,0,0,0,.8-.8A.74.74,0,0,0,37.3,60.3Z" transform="translate(-3.5 -18.76)"></path></svg> 