<?xml version="1.0" encoding="UTF-8"?> <svg xmlns="http://www.w3.org/2000/svg" id="Layer_1" data-name="Layer 1" viewBox="0 0 80 80"><defs><style>.cls-1,.cls-2{fill:#1b54f8;}.cls-1{stroke:#fff;stroke-width:1.75px;}.cls-2{stroke:#1b54f8;}</style></defs><g id="salesforce-integration"><g id="salesforce"><path id="Shape" class="cls-1" d="M58.59,20.54a16.41,16.41,0,0,0-5.35.89,13.67,13.67,0,0,0-17-2.36A16.41,16.41,0,0,0,9.1,31.47,16.23,16.23,0,0,0,9.49,35a13.67,13.67,0,0,0,8.67,23.79,16.39,16.39,0,0,0,25.93-.39,14,14,0,0,0,3.29.4,13.59,13.59,0,0,0,10.94-5.47h.27a16.41,16.41,0,1,0,0-32.81Zm0,28.71c-.36,0-.74,0-1.13,0l-1.26-.12-.67,1.08a9.52,9.52,0,0,1-8.15,4.56,9.4,9.4,0,0,1-3.4-.63l-1.59-.6-.89,1.45a12.3,12.3,0,0,1-20.63.64l-.65-.92-1.12.05h-.43A9.57,9.57,0,0,1,13,37.43l1.18-.87-.44-1.4a12.31,12.31,0,0,1,20.77-12l1.29,1.39,1.49-1.19A9.58,9.58,0,0,1,51,25.1l1,1.34,1.51-.69a12.15,12.15,0,0,1,5.11-1.11,12.31,12.31,0,1,1,0,24.61Z"></path></g><g id="settings-_1_" data-name="settings-(1)"><path id="Path" class="cls-2" d="M37.23,45.56a4.4,4.4,0,0,1-7.48-3.17.34.34,0,0,1,.67,0A3.8,3.8,0,0,0,31.49,45a3.66,3.66,0,0,0,2.63,1.1,3.72,3.72,0,0,0,2.68-6.33,3.61,3.61,0,0,0-2.62-1.11.34.34,0,0,1-.34-.34.34.34,0,0,1,.34-.34,4.39,4.39,0,0,1,3.09,1.32,4.39,4.39,0,0,1,0,6.22Z"></path><path id="Path-2" data-name="Path" class="cls-2" d="M44,40.55l-1,.43a8.88,8.88,0,0,1,0,2.91l1,.43a1.22,1.22,0,0,1,.66.66,1.21,1.21,0,0,1,0,1L44,47.34a1.26,1.26,0,0,1-.68.68,1.3,1.3,0,0,1-1,0l-1-.44a8.57,8.57,0,0,1-2.06,2.06l.44,1a1.24,1.24,0,0,1-.68,1.62l-1.4.59A1.26,1.26,0,0,1,36,52.22l-.43-1a8.31,8.31,0,0,1-2.9,0l-.43,1a1.27,1.27,0,0,1-.68.67,1.21,1.21,0,0,1-.95,0l-1.4-.59a1.21,1.21,0,0,1-.68-.67,1.3,1.3,0,0,1,0-1l.44-1a8.76,8.76,0,0,1-2.06-2.06l-1,.44A1.3,1.3,0,0,1,25,48a1.26,1.26,0,0,1-.68-.68l-.58-1.4a1.25,1.25,0,0,1,.67-1.63l1.29-.53a.33.33,0,1,1,.26.61l-1.29.54a.55.55,0,0,0-.31.74l.58,1.41a.57.57,0,0,0,.75.31l1.29-.54a.35.35,0,0,1,.41.12,8,8,0,0,0,2.25,2.25.34.34,0,0,1,.12.41l-.54,1.3a.64.64,0,0,0,0,.43.56.56,0,0,0,.31.31l1.41.58a.56.56,0,0,0,.44,0,.54.54,0,0,0,.31-.3l.54-1.3a.34.34,0,0,1,.37-.2,8.16,8.16,0,0,0,3.19,0,.33.33,0,0,1,.37.2l.54,1.3a.56.56,0,0,0,.75.3l1.4-.58a.57.57,0,0,0,.31-.74l-.53-1.29a.33.33,0,0,1,.13-.4A8.2,8.2,0,0,0,41,47a.34.34,0,0,1,.41-.12l1.29.54a.56.56,0,0,0,.44,0,.54.54,0,0,0,.3-.31L44,45.68a.66.66,0,0,0,0-.44.54.54,0,0,0-.31-.3l-1.3-.54a.36.36,0,0,1-.2-.38,7.92,7.92,0,0,0,0-3.18.34.34,0,0,1,.2-.38l1.3-.54a.57.57,0,0,0,.31-.74l-.59-1.41a.57.57,0,0,0-.74-.31L41.37,38a.34.34,0,0,1-.41-.12,8,8,0,0,0-2.25-2.25.33.33,0,0,1-.13-.41l.54-1.29a.56.56,0,0,0,0-.44.59.59,0,0,0-.31-.31L37.4,32.6a.56.56,0,0,0-.44,0,.51.51,0,0,0-.3.31l-.54,1.29a.34.34,0,0,1-.62-.26L36,32.65a1.22,1.22,0,0,1,.67-.67,1.33,1.33,0,0,1,.48-.1,1.28,1.28,0,0,1,.47.1l1.42.58a1.26,1.26,0,0,1,.67.67,1.21,1.21,0,0,1,0,1l-.43,1a8.91,8.91,0,0,1,2,2.06l1-.43a1.21,1.21,0,0,1,1,0,1.24,1.24,0,0,1,.68.67l.58,1.41A1.24,1.24,0,0,1,44,40.55Z"></path><path id="Shape-2" data-name="Shape" class="cls-2" d="M25.1,36.78a3.15,3.15,0,1,1,3.14-3.15A3.16,3.16,0,0,1,25.1,36.78Zm0-5.63a2.48,2.48,0,1,0,2.47,2.47A2.48,2.48,0,0,0,25.1,31.15Z"></path><path id="Shape-3" data-name="Shape" class="cls-2" d="M32.2,35.19h-.75A6.17,6.17,0,0,1,30.69,37l.52.53a1,1,0,0,1,0,1.41l-.78.79a1,1,0,0,1-.71.29,1,1,0,0,1-.7-.29l-.53-.53a6.83,6.83,0,0,1-1.85.77v.74a1,1,0,0,1-1,1H24.54a1,1,0,0,1-1-1V40a6.65,6.65,0,0,1-1.85-.77l-.52.53a1,1,0,0,1-1.41,0L19,39a1,1,0,0,1,0-1.41L19.5,37a6.2,6.2,0,0,1-.77-1.84H18a1,1,0,0,1-1-1V33.08a1,1,0,0,1,1-1h.74a6.53,6.53,0,0,1,.77-1.85L19,29.7a1,1,0,0,1-.29-.7,1,1,0,0,1,.29-.71l.79-.78a1,1,0,0,1,.7-.29,1,1,0,0,1,.71.29l.52.52a6.63,6.63,0,0,1,1.85-.76v-.75a1,1,0,0,1,1-1h1.11a1,1,0,0,1,1,1v.75A6.41,6.41,0,0,1,28.5,28l.53-.53a1,1,0,0,1,1.41,0l.78.79a1,1,0,0,1,.3.7,1,1,0,0,1-.3.71l-.52.53a6.45,6.45,0,0,1,.76,1.84h.74a1,1,0,0,1,1,1v1.11A1,1,0,0,1,32.2,35.19Zm.32-2.12a.32.32,0,0,0-.32-.33h-1a.33.33,0,0,1-.33-.26A5.76,5.76,0,0,0,30,30.37a.35.35,0,0,1,0-.43l.73-.72a.32.32,0,0,0,.09-.23.33.33,0,0,0-.09-.23L30,28a.33.33,0,0,0-.23-.1.34.34,0,0,0-.23.1l-.72.72a.33.33,0,0,1-.42,0,5.83,5.83,0,0,0-2.11-.87.34.34,0,0,1-.27-.33v-1a.32.32,0,0,0-.32-.33H24.54a.33.33,0,0,0-.33.33v1a.34.34,0,0,1-.27.33,5.78,5.78,0,0,0-2.1.87.33.33,0,0,1-.19.06.34.34,0,0,1-.23-.1L20.7,28a.33.33,0,0,0-.23-.09.32.32,0,0,0-.23.09l-.79.79a.32.32,0,0,0-.09.23.35.35,0,0,0,.09.23l.73.72a.33.33,0,0,1,0,.42,5.83,5.83,0,0,0-.87,2.11.33.33,0,0,1-.33.27H18a.32.32,0,0,0-.33.32v1.12h0a.32.32,0,0,0,.32.32h1a.33.33,0,0,1,.33.27,5.61,5.61,0,0,0,.88,2.11.33.33,0,0,1,0,.42l-.73.72a.34.34,0,0,0-.1.23.33.33,0,0,0,.1.23l.78.79a.34.34,0,0,0,.46,0l.72-.72a.34.34,0,0,1,.43,0,5.76,5.76,0,0,0,2.11.87.33.33,0,0,1,.26.33v1a.32.32,0,0,0,.33.32h1.11a.32.32,0,0,0,.32-.32v-1a.34.34,0,0,1,.27-.33,5.76,5.76,0,0,0,2.11-.87.33.33,0,0,1,.42,0l.72.72a.34.34,0,0,0,.23.1.33.33,0,0,0,.23-.1l.79-.78a.34.34,0,0,0,0-.46L30,37.3a.33.33,0,0,1,0-.42,5.83,5.83,0,0,0,.87-2.11.33.33,0,0,1,.33-.27h1a.32.32,0,0,0,.32-.32V33.07Z"></path></g></g></svg> 