<?xml version="1.0" encoding="UTF-8"?> <!-- Generator: Adobe Illustrator 25.2.2, SVG Export Plug-In . SVG Version: 6.00 Build 0) --> <svg xmlns="http://www.w3.org/2000/svg" xmlns:xlink="http://www.w3.org/1999/xlink" version="1.1" id="Layer_1" x="0px" y="0px" viewBox="0 0 80 80" style="enable-background:new 0 0 80 80;" xml:space="preserve"> <style type="text/css"> .st0{fill:#1B54F8;} </style> <path class="st0" d="M57.2,58L57.2,58l-0.1-3.7c1,0.1,2,0.5,2.8,1.1l1.3-1.8c-1.2-0.9-2.6-1.4-4.1-1.5v-1h-1.3v1 c-2.4,0.1-4.3,1.6-4.3,4s1.7,3.3,4.3,4v3.7c-1.3-0.3-2.4-0.8-3.4-1.7l-1.3,1.7c1.3,1.2,3,2,4.8,2.1v1.4h1.3v-1.4 c2.5-0.1,4.4-1.5,4.4-4S59.7,58.6,57.2,58z M55.9,57.6c-1.1-0.4-1.9-0.7-1.9-1.8s0.9-1.5,1.9-1.6V57.6z M57.1,63.9v-3.5 c1.2,0.4,2,0.7,2,1.8S58.2,63.8,57.1,63.9L57.1,63.9z"></path> <path class="st0" d="M47.5,40.8c0-0.5-0.4-1-0.9-1c0,0-0.1,0-0.1,0h-9.3v-12c0-0.6-0.4-1-1-1s-1,0.4-1,1v13c0,0.5,0.4,1,0.9,1 c0,0,0.1,0,0.1,0h10.3C47.1,41.8,47.5,41.4,47.5,40.8z"></path> <path class="st0" d="M64.4,46.2c0.5-2.1,0.7-4.2,0.7-6.4c0-16-12.9-28.9-28.9-28.9c-16,0-28.9,12.9-28.9,28.9 c0,16,12.9,28.9,28.9,28.9c2.5,0,4.9-0.3,7.3-1c2.9,4.3,7.7,6.9,12.8,6.9c8.5,0,15.4-6.8,15.4-15.3C71.7,54,69,49,64.4,46.2z M36.2,66.7c-14.9,0-26.9-12-26.9-26.9s12-26.9,26.9-26.9s26.9,12,26.9,26.9l0,0c0,1.8-0.2,3.6-0.6,5.4c-1.1-0.5-2.4-0.9-3.6-1.1 c0.3-1.4,0.4-2.9,0.4-4.3c0-12.8-10.3-23.1-23.1-23.1l0,0C23.4,16.7,13,27,13,39.8C13,52.6,23.3,63,36.1,63l0,0 c1.7,0,3.4-0.2,5.1-0.6c0.3,1.2,0.7,2.4,1.2,3.5C40.4,66.4,38.3,66.7,36.2,66.7z M41,59.3c0,0.4,0,0.7,0.1,1.1 c-1.2,0.3-2.5,0.5-3.8,0.5v-3c0-0.6-0.4-1-1-1s-1,0.4-1,1v3c-4.9-0.2-9.6-2.1-13.2-5.5l2.1-2.1c0.3-0.4,0.2-1.1-0.2-1.4 c-0.4-0.3-0.8-0.3-1.2,0L20.7,54c-3.5-3.5-5.4-8.3-5.6-13.2h3c0.6,0,1-0.4,1-1s-0.4-1-1-1h-3c0.2-4.9,2.1-9.6,5.5-13.2l2.1,2.1 c0.4,0.3,1.1,0.2,1.4-0.2c0.3-0.4,0.3-0.8,0-1.2L22,24.2c3.7-3.3,8.3-5.2,13.2-5.5v3c0,0.6,0.4,1,1,1s1-0.4,1-1v-3 c4.9,0.2,9.6,2.1,13.2,5.5l-2.1,2.1c-0.3,0.4-0.2,1.1,0.2,1.4c0.4,0.3,0.8,0.3,1.2,0l2.1-2.1c3.3,3.6,5.3,8.3,5.5,13.2h-3 c-0.6,0-1,0.4-1,1s0.4,1,1,1h3c0,1-0.2,2.1-0.4,3.1h-0.6C47.8,44,41,50.9,41,59.3L41,59.3z M56.3,72.6c-7.4,0-13.4-6-13.4-13.4 s6-13.4,13.4-13.4s13.4,6,13.4,13.4S63.7,72.6,56.3,72.6L56.3,72.6z"></path> </svg> 