<?xml version="1.0" encoding="UTF-8"?> <svg xmlns="http://www.w3.org/2000/svg" xmlns:xlink="http://www.w3.org/1999/xlink" width="90" height="90" viewBox="0 0 90 90"><defs><clipPath id="clip-path"><rect id="Rectangle_8" data-name="Rectangle 8" width="90" height="90" transform="translate(342 354)" fill="#fff" stroke="#707070" stroke-width="1"></rect></clipPath></defs><g id="Mask_Group_19" data-name="Mask Group 19" transform="translate(-342 -354)" clip-path="url(#clip-path)"><g id="Group_20" data-name="Group 20" transform="translate(457.907 -44.771)"><path id="Path_88" data-name="Path 88" d="M5.217,38A1.217,1.217,0,0,0,4,39.217V67.2a1.217,1.217,0,0,0,1.217,1.217H16.169A1.217,1.217,0,0,0,17.386,67.2V39.217A1.217,1.217,0,0,0,16.169,38Zm9.735,27.988H6.434V40.434h8.518Z" transform="translate(-107.458 402.12)" fill="#1c54f8" stroke="#fff" stroke-width="0.4"></path><path id="Path_89" data-name="Path 89" d="M20.217,44A1.217,1.217,0,0,0,19,45.217V65.9a1.217,1.217,0,0,0,1.217,1.217H31.169A1.217,1.217,0,0,0,32.386,65.9V45.217A1.217,1.217,0,0,0,31.169,44Zm9.735,20.687H21.434V46.434h8.518Z" transform="translate(-104.205 403.422)" fill="#1c54f8" stroke="#fff" stroke-width="0.4"></path><path id="Path_90" data-name="Path 90" d="M35.217,49A1.217,1.217,0,0,0,34,50.217v14.6a1.217,1.217,0,0,0,1.217,1.217H46.169a1.217,1.217,0,0,0,1.217-1.217v-14.6A1.217,1.217,0,0,0,46.169,49Zm9.735,14.6H36.434V51.434h8.518Z" transform="translate(-100.952 404.506)" fill="#1c54f8" stroke="#fff" stroke-width="0.4"></path><path id="Path_91" data-name="Path 91" d="M49,55.217v8.518a1.217,1.217,0,0,0,1.217,1.217H61.169a1.217,1.217,0,0,0,1.217-1.217V55.217A1.217,1.217,0,0,0,61.169,54H50.217A1.217,1.217,0,0,0,49,55.217Zm2.434,1.217h8.518v6.084H51.434Z" transform="translate(-97.699 405.59)" fill="#1c54f8" stroke="#fff" stroke-width="0.4"></path><path id="Path_92" data-name="Path 92" d="M11.235,38.47A9.735,9.735,0,1,0,1.5,28.735a9.735,9.735,0,0,0,9.735,9.735Zm0-17.036a7.3,7.3,0,1,1-7.3,7.3,7.3,7.3,0,0,1,7.3-7.3Z" transform="translate(-108 398)" fill="#1c54f8" stroke="#fff" stroke-width="0.4"></path><path id="Path_93" data-name="Path 93" d="M10.76,30.642H9.543a.608.608,0,0,1-.608-.608H6.5a3.042,3.042,0,0,0,2.433,2.98v1.279h2.434V33.014a3.042,3.042,0,0,0-.608-6.022H9.543a.608.608,0,1,1,0-1.217H10.76a.608.608,0,0,1,.608.608H13.8A3.042,3.042,0,0,0,11.367,23.4V22.124H8.934V23.4a3.042,3.042,0,0,0,.608,6.023H10.76a.608.608,0,0,1,0,1.217Z" transform="translate(-106.916 398.677)" fill="#1c54f8" stroke="#fff" stroke-width="0.4"></path><path id="Path_94" data-name="Path 94" d="M55.653,50.118l1.128,2.156,6.1-3.191a1.217,1.217,0,0,0,.515-1.642l-3.192-6.1L58.051,42.47l1.976,3.772a155.977,155.977,0,0,1-40.294-15.1l-1.244,2.092A158.293,158.293,0,0,0,58.82,48.462Z" transform="translate(-104.316 400.633)" fill="#1c54f8" stroke="#fff" stroke-width="0.4"></path></g></g></svg> 