<?xml version="1.0" encoding="UTF-8"?> <svg xmlns="http://www.w3.org/2000/svg" xmlns:xlink="http://www.w3.org/1999/xlink" width="60" height="60" viewBox="0 0 60 60"><defs><clipPath id="clip-path"><rect id="Rectangle_803" data-name="Rectangle 803" width="60" height="60" transform="translate(779 641)" fill="#fff" stroke="#707070" stroke-width="1"></rect></clipPath></defs><g id="Mask_Group_87" data-name="Mask Group 87" transform="translate(-779 -641)" clip-path="url(#clip-path)"><g id="Group_103" data-name="Group 103" transform="translate(-124 18)"><g id="Group_102" data-name="Group 102" transform="translate(909 629)"><path id="Path_168" data-name="Path 168" d="M22.637,27.8a1.719,1.719,0,0,0-1.72-1.72h-8.6V12.318H26.076v8.6a1.72,1.72,0,0,0,3.439,0V10.6a1.714,1.714,0,0,0-.5-1.217L22.133,2.5A1.718,1.718,0,0,0,20.917,2H3.72A1.719,1.719,0,0,0,2,3.72v17.2a1.72,1.72,0,0,0,.5,1.216l6.879,6.879a1.718,1.718,0,0,0,1.216.5H20.917A1.719,1.719,0,0,0,22.637,27.8ZM23.645,8.879H11.311L7.871,5.439H20.205ZM5.439,7.871l3.439,3.439V23.645L5.439,20.205Z" transform="translate(-2 -2)" fill="#1c54f8" stroke="#fff" stroke-width="2"></path><path id="Path_169" data-name="Path 169" d="M43.891,19.1l-3.439-3.439a1.72,1.72,0,1,0-2.432,2.432l.5.5H21.031l-4.28-4.28a3.4,3.4,0,0,0,.128-.879,3.439,3.439,0,1,0-3.439,3.439,3.4,3.4,0,0,0,.879-.128l4.28,4.28V38.523l-.5-.5a1.72,1.72,0,1,0-2.432,2.432L19.1,43.891a1.719,1.719,0,0,0,2.432,0l3.439-3.439a1.72,1.72,0,1,0-2.432-2.432l-.5.5V24.47l9.606,9.606H30.637a1.72,1.72,0,1,0,0,3.439H35.8a1.719,1.719,0,0,0,1.72-1.72V30.637a1.72,1.72,0,1,0-3.439,0v1.008L24.47,22.038H38.523l-.5.5a1.72,1.72,0,1,0,2.432,2.432l3.439-3.439A1.719,1.719,0,0,0,43.891,19.1Z" transform="translate(3.758 3.758)" fill="#1c54f8" stroke="#fff" stroke-width="2"></path></g></g></g></svg> 