<?xml version="1.0" encoding="UTF-8"?> <svg xmlns="http://www.w3.org/2000/svg" width="77" height="77" viewBox="0 0 77 77"><g id="Group_299" data-name="Group 299" transform="translate(-2762 -61)"><rect id="Rectangle_113" data-name="Rectangle 113" width="77" height="77" transform="translate(2762 61)" fill="#9b9b9b" opacity="0"></rect><g id="Group_292" data-name="Group 292" transform="translate(-10.735 71)"><path id="Path_173" data-name="Path 173" d="M207.678,156.41h-1.086a.965.965,0,0,0,0,1.931h1.086a.965.965,0,0,0,0-1.931Z" transform="translate(2590.071 -141.533)" fill="#1b54f8"></path><path id="Path_174" data-name="Path 174" d="M251.428,156.41h-1.086a.965.965,0,1,0,0,1.931h1.086a.965.965,0,0,0,0-1.931Z" transform="translate(2551.148 -141.533)" fill="#1b54f8"></path><path id="Path_175" data-name="Path 175" d="M295.177,156.41h-1.086a.965.965,0,0,0,0,1.931h1.086a.965.965,0,1,0,0-1.931Z" transform="translate(2512.224 -141.533)" fill="#1b54f8"></path><path id="Path_176" data-name="Path 176" d="M131.787,58.134a2.654,2.654,0,0,0-2.109-2.6l-2.807-16.844a2.7,2.7,0,0,0,.519-.4,2.655,2.655,0,0,0-3.755-3.755,2.7,2.7,0,0,0-.454.6l-19.709-2.509a2.655,2.655,0,0,0-5.15,0L78.613,35.144a2.688,2.688,0,0,0-.454-.6A2.655,2.655,0,0,0,74.4,38.292a2.7,2.7,0,0,0,.519.4L72.116,55.536a2.654,2.654,0,0,0,0,5.2l2.807,16.844a2.7,2.7,0,0,0-.519.4,2.655,2.655,0,0,0,3.755,3.755,2.7,2.7,0,0,0,.454-.6l19.709,2.512h0a2.654,2.654,0,0,0,5.15,0l19.709-2.512h0a2.7,2.7,0,0,0,.454.6,2.655,2.655,0,0,0,3.755-3.755,2.7,2.7,0,0,0-.519-.4l2.807-16.844h0a2.654,2.654,0,0,0,2.109-2.6ZM98.567,81.721,78.854,79.209a2.562,2.562,0,0,0-.143-.42L82.48,75.02a3.833,3.833,0,0,0,1.644.369H99.932v5.13a2.675,2.675,0,0,0-1.365,1.2Zm4.66-47.173,19.712,2.512a2.561,2.561,0,0,0,.143.42l-3.769,3.769a3.834,3.834,0,0,0-1.644-.369H101.862V35.75a2.675,2.675,0,0,0,1.365-1.2ZM126.661,57.17h-5.13V44.741a3.839,3.839,0,0,0-.724-2.252l3.644-3.644a2.562,2.562,0,0,0,.52.168l2.807,16.842h0a2.671,2.671,0,0,0-1.117,1.314ZM99.932,35.751v5.13H84.124a3.833,3.833,0,0,0-1.644.369l-3.769-3.769a2.562,2.562,0,0,0,.143-.42l19.712-2.512a2.676,2.676,0,0,0,1.365,1.2Zm-22.585,3.1,3.641,3.644a3.839,3.839,0,0,0-.724,2.252V57.171h-5.13a2.671,2.671,0,0,0-1.114-1.314l2.807-16.843a2.567,2.567,0,0,0,.52-.168ZM75.133,59.1h5.13V62.54a.965.965,0,1,0,1.931,0V49.81l37.648-.019a.965.965,0,0,0,0-1.931l-37.648.019V44.742a1.93,1.93,0,0,1,.666-1.455A.984.984,0,0,0,83,43.173a1.916,1.916,0,0,1,1.121-.362h33.545a1.916,1.916,0,0,1,1.121.362.982.982,0,0,0,.144.113,1.93,1.93,0,0,1,.666,1.455V71.529a1.929,1.929,0,0,1-.666,1.455.982.982,0,0,0-.144.113,1.916,1.916,0,0,1-1.121.362H84.124A1.916,1.916,0,0,1,83,73.1a.981.981,0,0,0-.144-.113,1.93,1.93,0,0,1-.666-1.455V61.512a.965.965,0,1,0-1.931,0V71.529a3.839,3.839,0,0,0,.724,2.252l-3.644,3.644a2.561,2.561,0,0,0-.52-.168l-2.8-16.843A2.671,2.671,0,0,0,75.133,59.1ZM101.862,80.52v-5.13h15.807a3.833,3.833,0,0,0,1.644-.369l3.769,3.769a2.562,2.562,0,0,0-.143.42l-19.712,2.512a2.676,2.676,0,0,0-1.365-1.2Zm22.585-3.1-3.641-3.644a3.839,3.839,0,0,0,.724-2.252V59.1h5.13a2.671,2.671,0,0,0,1.114,1.314l-2.807,16.843a2.565,2.565,0,0,0-.52.168Zm4.685-18.566a.724.724,0,1,1,.724-.724.724.724,0,0,1-.724.724ZM125,35.9a.724.724,0,1,1,0,1.023A.724.724,0,0,1,125,35.9Zm-24.1-3.35a.724.724,0,1,1-.724.724.724.724,0,0,1,.724-.724ZM75.77,35.9a.725.725,0,1,1-.229.517.724.724,0,0,1,.229-.517ZM72.661,57.412a.724.724,0,1,1-.724.724.724.724,0,0,1,.724-.724Zm4.131,22.955a.724.724,0,1,1,0-1.023.724.724,0,0,1,0,1.023Zm24.1,3.35a.724.724,0,1,1,.724-.724.724.724,0,0,1-.724.724Zm25.127-3.35a.725.725,0,1,1,.229-.517.724.724,0,0,1-.229.517Z" transform="translate(2710.729 -29.622)" fill="#1b54f8"></path></g></g></svg> 