<?xml version="1.0" encoding="UTF-8"?> <svg xmlns="http://www.w3.org/2000/svg" width="90" height="85" viewBox="0 0 90 85" fill="none"><mask id="mask0_17_335" style="mask-type:alpha" maskUnits="userSpaceOnUse" x="0" y="0" width="90" height="85"><path d="M81.2808 84.3724H8.7187C6.4075 84.3686 4.19203 83.4489 2.55776 81.8146C0.923488 80.1803 0.00371876 77.9649 0 75.6537V25.5211C0 25.1482 0.148157 24.7905 0.411879 24.5267C0.6756 24.263 1.03328 24.1149 1.40624 24.1149H88.5933C88.9662 24.1149 89.3239 24.263 89.5876 24.5267C89.8514 24.7905 89.9995 25.1482 89.9995 25.5211V75.6537C89.9958 77.9649 89.076 80.1803 87.4418 81.8146C85.8075 83.4489 83.592 84.3686 81.2808 84.3724ZM2.81248 26.9274V75.6537C2.8162 77.2189 3.43965 78.7191 4.54648 79.8259C5.65331 80.9327 7.15342 81.5562 8.7187 81.5599H81.2808C82.8461 81.5562 84.3462 80.9327 85.453 79.8259C86.5599 78.7191 87.1833 77.2189 87.187 75.6537V26.9274H2.81248Z" fill="black"></path><path d="M66.9232 10.4602H48.8951C48.5222 10.4602 48.1645 10.3121 47.9008 10.0483C47.637 9.78462 47.4889 9.42694 47.4889 9.05398C47.4889 8.68102 47.637 8.32334 47.9008 8.05961C48.1645 7.79589 48.5222 7.64774 48.8951 7.64774H66.9232C67.2961 7.64774 67.6538 7.79589 67.9175 8.05961C68.1812 8.32334 68.3294 8.68102 68.3294 9.05398C68.3294 9.42694 68.1812 9.78462 67.9175 10.0483C67.6538 10.3121 67.2961 10.4602 66.9232 10.4602Z" fill="black"></path><path d="M88.5933 26.9273H1.40624C1.03328 26.9273 0.6756 26.7792 0.411879 26.5155C0.148157 26.2517 0 25.8941 0 25.5211V12.654C0.00743203 11.3237 0.541114 10.0504 1.48443 9.11232C2.42775 8.17427 3.70401 7.64773 5.03435 7.64775H15.2859C15.6588 7.64775 16.0165 7.79591 16.2802 8.05963C16.5439 8.32335 16.6921 8.68104 16.6921 9.054C16.6921 9.42695 16.5439 9.78464 16.2802 10.0484C16.0165 10.3121 15.6588 10.4602 15.2859 10.4602H5.03435C4.44991 10.4602 3.889 10.6904 3.47311 11.101C3.05723 11.5116 2.81988 12.0696 2.81248 12.654V24.0867H87.187V12.654C87.187 12.0647 86.9529 11.4996 86.5363 11.0829C86.1196 10.6662 85.5544 10.4321 84.9652 10.4321H74.7137C74.3407 10.4321 73.983 10.284 73.7193 10.0202C73.4556 9.75651 73.3074 9.39883 73.3074 9.02587C73.3074 8.65291 73.4556 8.29523 73.7193 8.03151C73.983 7.76779 74.3407 7.61963 74.7137 7.61963H84.9652C86.3004 7.61963 87.5809 8.15003 88.525 9.09415C89.4691 10.0383 89.9995 11.3188 89.9995 12.654V25.493C90.0033 25.68 89.9697 25.8659 89.9007 26.0398C89.8317 26.2136 89.7287 26.372 89.5977 26.5056C89.4668 26.6391 89.3105 26.7452 89.138 26.8177C88.9655 26.8901 88.7803 26.9274 88.5933 26.9273Z" fill="black"></path><path d="M41.1043 10.4602H23.0763C22.7033 10.4602 22.3456 10.3121 22.0819 10.0483C21.8182 9.78462 21.67 9.42694 21.67 9.05398C21.67 8.68102 21.8182 8.32334 22.0819 8.05961C22.3456 7.79589 22.7033 7.64774 23.0763 7.64774H41.1043C41.4773 7.64774 41.835 7.79589 42.0987 8.05961C42.3624 8.32334 42.5106 8.68102 42.5106 9.05398C42.5106 9.42694 42.3624 9.78462 42.0987 10.0483C41.835 10.3121 41.4773 10.4602 41.1043 10.4602Z" fill="black"></path><path d="M70.8185 18.1102C70.1223 18.1102 69.4329 17.9731 68.7897 17.7066C68.1465 17.4402 67.562 17.0497 67.0697 16.5574C66.5775 16.0651 66.187 15.4807 65.9205 14.8375C65.6541 14.1943 65.517 13.5049 65.517 12.8087V5.29934C65.519 4.25594 65.8297 3.23647 66.41 2.36929C66.9902 1.50212 67.8141 0.826004 68.7778 0.426084C69.7415 0.0261633 70.802 -0.079686 71.8258 0.121864C72.8495 0.323414 73.7908 0.823352 74.531 1.55873C75.0282 2.04608 75.4225 2.62826 75.6907 3.27079C75.9588 3.91332 76.0952 4.60312 76.0919 5.29934V12.8087C76.0919 14.2099 75.5372 15.5541 74.5491 16.5475C73.5609 17.5409 72.2197 18.1028 70.8185 18.1102ZM70.8185 2.81029C70.1584 2.81029 69.5253 3.07253 69.0585 3.53931C68.5917 4.0061 68.3295 4.6392 68.3295 5.29934V12.8087C68.3295 13.4688 68.5917 14.1019 69.0585 14.5687C69.5253 15.0355 70.1584 15.2977 70.8185 15.2977C71.4786 15.2977 72.1117 15.0355 72.5785 14.5687C73.0453 14.1019 73.3076 13.4688 73.3076 12.8087V5.29934C73.3039 4.64034 73.0404 4.00938 72.5744 3.54339C72.1085 3.0774 71.4775 2.81398 70.8185 2.81029Z" fill="black"></path><path d="M44.9998 18.1102C43.5937 18.1102 42.2453 17.5516 41.251 16.5574C40.2568 15.5632 39.6982 14.2147 39.6982 12.8087V5.29932C39.6987 4.25025 40.0104 3.22489 40.5938 2.35304C41.1772 1.48118 42.0062 0.802025 42.9759 0.401533C43.9455 0.00104027 45.0121 -0.102782 46.0408 0.103208C47.0694 0.309197 48.0138 0.815738 48.7544 1.55871C49.2472 2.04867 49.6377 2.63164 49.9032 3.27379C50.1688 3.91593 50.3041 4.60444 50.3013 5.29932V12.8087C50.3013 14.2147 49.7428 15.5632 48.7485 16.5574C47.7543 17.5516 46.4058 18.1102 44.9998 18.1102ZM44.9998 2.81027C44.3396 2.81027 43.7065 3.07251 43.2398 3.53929C42.773 4.00608 42.5107 4.63918 42.5107 5.29932V12.8087C42.5107 13.4688 42.773 14.1019 43.2398 14.5687C43.7065 15.0355 44.3396 15.2977 44.9998 15.2977C45.6599 15.2977 46.293 15.0355 46.7598 14.5687C47.2266 14.1019 47.4888 13.4688 47.4888 12.8087V5.29932C47.4914 4.97221 47.4279 4.64794 47.3023 4.34591C47.1766 4.04389 46.9914 3.7703 46.7576 3.54151C46.2917 3.07446 45.6595 2.81145 44.9998 2.81027Z" fill="black"></path><path d="M19.1812 18.1102C17.7751 18.1102 16.4267 17.5516 15.4324 16.5574C14.4382 15.5632 13.8796 14.2147 13.8796 12.8087V5.29932C13.8801 4.25025 14.1917 3.22489 14.7752 2.35304C15.3586 1.48118 16.1876 0.802025 17.1573 0.401533C18.1269 0.00104027 19.1935 -0.102782 20.2222 0.103208C21.2508 0.309197 22.1952 0.815738 22.9358 1.55871C23.4286 2.04867 23.8191 2.63164 24.0846 3.27379C24.3502 3.91593 24.4855 4.60444 24.4827 5.29932V12.8087C24.4827 13.5049 24.3456 14.1942 24.0792 14.8375C23.8127 15.4807 23.4222 16.0651 22.9299 16.5574C22.4376 17.0497 21.8532 17.4402 21.21 17.7066C20.5668 17.9731 19.8774 18.1102 19.1812 18.1102ZM19.1812 2.81027C18.5222 2.81396 17.8912 3.07738 17.4252 3.54337C16.9592 4.00936 16.6958 4.64032 16.6921 5.29932V12.8087C16.6921 13.4688 16.9544 14.1019 17.4211 14.5687C17.8879 15.0355 18.521 15.2977 19.1812 15.2977C19.8413 15.2977 20.4744 15.0355 20.9412 14.5687C21.408 14.1019 21.6702 13.4688 21.6702 12.8087V5.29932C21.6723 4.97354 21.6099 4.65056 21.4869 4.34892C21.3638 4.04727 21.1824 3.77289 20.953 3.54151C20.4811 3.07491 19.8448 2.81231 19.1812 2.81027Z" fill="black"></path><path d="M53.9012 75.9349H36.0981C35.7252 75.9349 35.3675 75.7867 35.1038 75.523C34.8401 75.2593 34.6919 74.9016 34.6919 74.5286V58.4553C34.6919 58.0823 34.8401 57.7246 35.1038 57.4609C35.3675 57.1972 35.7252 57.049 36.0981 57.049H53.9012C54.2741 57.049 54.6318 57.1972 54.8955 57.4609C55.1593 57.7246 55.3074 58.0823 55.3074 58.4553V74.5286C55.3074 74.9016 55.1593 75.2593 54.8955 75.523C54.6318 75.7867 54.2741 75.9349 53.9012 75.9349ZM37.5044 73.1224H52.4949V59.8615H37.5044V73.1224Z" fill="black"></path><path d="M53.9012 51.4241H36.0981C35.7252 51.4241 35.3675 51.2759 35.1038 51.0122C34.8401 50.7485 34.6919 50.3908 34.6919 50.0179V33.9586C34.6919 33.5856 34.8401 33.2279 35.1038 32.9642C35.3675 32.7005 35.7252 32.5523 36.0981 32.5523H53.9012C54.2741 32.5523 54.6318 32.7005 54.8955 32.9642C55.1593 33.2279 55.3074 33.5856 55.3074 33.9586V50.0179C55.3074 50.3908 55.1593 50.7485 54.8955 51.0122C54.6318 51.2759 54.2741 51.4241 53.9012 51.4241ZM37.5044 48.6116H52.4949V35.3648H37.5044V48.6116Z" fill="black"></path><path d="M80.156 51.4241H62.3389C61.9659 51.4241 61.6082 51.2759 61.3445 51.0122C61.0808 50.7485 60.9326 50.3908 60.9326 50.0179V33.9586C60.9326 33.5856 61.0808 33.2279 61.3445 32.9642C61.6082 32.7005 61.9659 32.5523 62.3389 32.5523H80.156C80.5289 32.5523 80.8866 32.7005 81.1503 32.9642C81.414 33.2279 81.5622 33.5856 81.5622 33.9586V50.0179C81.5622 50.3908 81.414 50.7485 81.1503 51.0122C80.8866 51.2759 80.5289 51.4241 80.156 51.4241ZM63.7451 48.6116H78.7497V35.3648H63.7451V48.6116Z" fill="black"></path><path d="M80.156 75.9349H62.3389C61.9659 75.9349 61.6082 75.7867 61.3445 75.523C61.0808 75.2593 60.9326 74.9016 60.9326 74.5286V58.4553C60.9326 58.0823 61.0808 57.7246 61.3445 57.4609C61.6082 57.1972 61.9659 57.049 62.3389 57.049H80.156C80.5289 57.049 80.8866 57.1972 81.1503 57.4609C81.414 57.7246 81.5622 58.0823 81.5622 58.4553V74.5286C81.5622 74.9016 81.414 75.2593 81.1503 75.523C80.8866 75.7867 80.5289 75.9349 80.156 75.9349ZM63.7451 73.1224H78.7497V59.8615H63.7451V73.1224Z" fill="black"></path><path d="M27.6608 51.4241H9.84374C9.47078 51.4241 9.1131 51.2759 8.84938 51.0122C8.58566 50.7485 8.4375 50.3908 8.4375 50.0179V33.9586C8.4375 33.5856 8.58566 33.2279 8.84938 32.9642C9.1131 32.7005 9.47078 32.5523 9.84374 32.5523H27.6608C28.0338 32.5523 28.3915 32.7005 28.6552 32.9642C28.9189 33.2279 29.0671 33.5856 29.0671 33.9586V50.0179C29.0671 50.3908 28.9189 50.7485 28.6552 51.0122C28.3915 51.2759 28.0338 51.4241 27.6608 51.4241ZM11.25 48.6116H26.2546V35.3648H11.25V48.6116Z" fill="black"></path><path d="M27.6608 75.9349H9.84374C9.47078 75.9349 9.1131 75.7867 8.84938 75.523C8.58566 75.2593 8.4375 74.9016 8.4375 74.5286V58.4553C8.4375 58.0823 8.58566 57.7246 8.84938 57.4609C9.1131 57.1972 9.47078 57.049 9.84374 57.049H27.6608C28.0338 57.049 28.3915 57.1972 28.6552 57.4609C28.9189 57.7246 29.0671 58.0823 29.0671 58.4553V74.5286C29.0671 74.9016 28.9189 75.2593 28.6552 75.523C28.3915 75.7867 28.0338 75.9349 27.6608 75.9349ZM11.25 73.1224H26.2546V59.8615H11.25V73.1224Z" fill="black"></path></mask><g mask="url(#mask0_17_335)"><rect x="-0.000244141" y="-2.81303" width="90" height="90" fill="#1B54F8"></rect></g></svg> 