<?xml version="1.0" encoding="UTF-8"?> <svg xmlns="http://www.w3.org/2000/svg" width="80" height="80" viewBox="0 0 80 80"><g id="Group_476" data-name="Group 476" transform="translate(-2768 -878)"><g id="Rectangle_120" data-name="Rectangle 120" transform="translate(2768 878)" fill="#fff" stroke="#707070" stroke-width="1" stroke-dasharray="6 6"><rect width="80" height="80" rx="6" stroke="none"></rect><rect x="0.5" y="0.5" width="79" height="79" rx="5.5" fill="none"></rect></g><g id="Group_466" data-name="Group 466" transform="translate(373.539 153.421)"><path id="Path_387" data-name="Path 387" d="M139.749,132.09a1.944,1.944,0,1,1-1.944-1.944,1.944,1.944,0,0,1,1.944,1.944" transform="translate(2275.195 618.281)" fill="#1b54f8"></path><path id="Path_388" data-name="Path 388" d="M188.539,132.09a1.944,1.944,0,1,1-1.944-1.944,1.944,1.944,0,0,1,1.944,1.944" transform="translate(2231.678 618.281)" fill="#1b54f8"></path><path id="Path_389" data-name="Path 389" d="M237.329,132.09a1.944,1.944,0,1,1-1.944-1.944,1.944,1.944,0,0,1,1.944,1.944" transform="translate(2188.16 618.281)" fill="#1b54f8"></path><path id="Path_390" data-name="Path 390" d="M474.95,139.38h8.693v1.891H474.95Z" transform="translate(1972.752 610.045)" fill="#1b54f8"></path><path id="Path_391" data-name="Path 391" d="M145.011,94.543H97.127a3.8,3.8,0,0,0-3.8,3.8v32.494a3.8,3.8,0,0,0,3.8,3.8H145.01a3.8,3.8,0,0,0,3.8-3.8V98.338a3.8,3.8,0,0,0-3.8-3.8Zm1.9,15.883v20.406a1.906,1.906,0,0,1-1.9,1.9H97.127a1.907,1.907,0,0,1-1.905-1.9V105.412h51.693Zm0-6.9H95.222V98.338a1.906,1.906,0,0,1,1.9-1.9H145.01a1.906,1.906,0,0,1,1.9,1.9v5.183Z" transform="translate(2313.13 650.037)" fill="#1b54f8"></path><path id="Path_392" data-name="Path 392" d="M239.2,262.711l-6.231-6.233,6.231-6.231-1.337-1.337-7.568,7.568,7.568,7.57Z" transform="translate(2190.965 512.351)" fill="#1b54f8"></path><path id="Path_393" data-name="Path 393" d="M388.642,264.047l7.568-7.57-7.568-7.568-1.337,1.337,6.231,6.231L387.3,262.71Z" transform="translate(2050.926 512.352)" fill="#1b54f8"></path><path id="Path_394" data-name="Path 394" d="M326.178,252.54l1.807.558-4.26,13.8-1.807-.558Z" transform="translate(2109.246 509.114)" fill="#1b54f8"></path></g></g></svg> 