<?xml version="1.0" encoding="UTF-8"?> <svg xmlns="http://www.w3.org/2000/svg" xmlns:xlink="http://www.w3.org/1999/xlink" width="89.999" height="90" viewBox="0 0 89.999 90"><defs><clipPath id="clip-path"><rect id="Rectangle_4" data-name="Rectangle 4" width="89.999" height="90" transform="translate(448.955 51.519)" fill="none"></rect></clipPath></defs><g id="Group_8" data-name="Group 8" transform="translate(-448.955 -51.519)"><g id="Group_7" data-name="Group 7" clip-path="url(#clip-path)"><path id="Path_7" data-name="Path 7" d="M471.5,122.326a1.231,1.231,0,0,1,0,2.461h-8.867a1.231,1.231,0,1,1,0-2.461Zm0,4.654h-8.867a1.23,1.23,0,1,0,0,2.461H471.5a1.23,1.23,0,0,0,0-2.461m0,4.654h-8.867a1.231,1.231,0,1,0,0,2.462H471.5a1.231,1.231,0,0,0,0-2.462m18.525-9.308a1.231,1.231,0,1,0,0,2.461h8.866a1.231,1.231,0,1,0,0-2.461Zm8.866,4.654h-8.866a1.23,1.23,0,1,0,0,2.461h8.866a1.23,1.23,0,1,0,0-2.461m0,4.654h-8.866a1.231,1.231,0,1,0,0,2.462h8.866a1.231,1.231,0,0,0,0-2.462m32.442-17.724v23.6a2.216,2.216,0,0,1-2.214,2.214H512.989a2.216,2.216,0,0,1-2.214-2.214V118.291a2.172,2.172,0,0,1,.648-1.566l4.383-4.381a2.168,2.168,0,0,1,1.565-.648h4.69v-3.209h-21.81a3.694,3.694,0,0,1-2.23,2.23v1.239h4.6a2.216,2.216,0,0,1,2.214,2.214v23.6a2.216,2.216,0,0,1-2.214,2.215H486.487a2.216,2.216,0,0,1-2.214-2.215V118.552a2.168,2.168,0,0,1,.65-1.566L489.3,112.6a2.174,2.174,0,0,1,1.566-.648h4.689v-1.239a3.691,3.691,0,0,1-2.23-2.23h-22.7v3.47h4.6a2.216,2.216,0,0,1,2.214,2.214v23.6a2.216,2.216,0,0,1-2.214,2.214H459.1a2.216,2.216,0,0,1-2.214-2.214V118.552a2.169,2.169,0,0,1,.648-1.564l4.382-4.383a2.176,2.176,0,0,1,1.566-.648h4.69v-4.7a1.231,1.231,0,0,1,1.23-1.231h23.93a3.692,3.692,0,0,1,2.231-2.231v-2.014h-1.425a1.233,1.233,0,0,1-1.215-1.034l-.851-5.27a18.4,18.4,0,0,1-4.676-1.938l-4.328,3.125a1.231,1.231,0,0,1-1.591-.128l-3.756-3.756a1.231,1.231,0,0,1-.128-1.59l3.125-4.329a18.432,18.432,0,0,1-1.938-4.676l-5.269-.851a1.231,1.231,0,0,1-1.034-1.215V74.806a1.229,1.229,0,0,1,1.034-1.214l5.269-.851a18.4,18.4,0,0,1,1.938-4.675l-3.125-4.329a1.232,1.232,0,0,1,.128-1.591l3.756-3.756a1.233,1.233,0,0,1,1.591-.128l4.328,3.125a18.447,18.447,0,0,1,4.676-1.938l.851-5.269a1.232,1.232,0,0,1,1.215-1.034h5.312a1.23,1.23,0,0,1,1.215,1.034l.85,5.269a18.447,18.447,0,0,1,4.676,1.938l4.328-3.125a1.232,1.232,0,0,1,1.591.128l3.756,3.756a1.232,1.232,0,0,1,.128,1.591l-3.125,4.329a18.46,18.46,0,0,1,1.938,4.675l5.269.851a1.23,1.23,0,0,1,1.034,1.214v5.312a1.231,1.231,0,0,1-1.034,1.215l-5.269.851a18.416,18.416,0,0,1-1.938,4.676l3.125,4.329a1.231,1.231,0,0,1-.128,1.59l-3.756,3.756a1.232,1.232,0,0,1-1.591.128l-4.328-3.125a18.39,18.39,0,0,1-4.676,1.938l-.85,5.27a1.232,1.232,0,0,1-1.215,1.034h-1.425v2.014a3.7,3.7,0,0,1,2.231,2.231h23.041a1.231,1.231,0,0,1,1.23,1.231v4.44h4.6a2.215,2.215,0,0,1,2.212,2.214M495.181,99.318H498.4l.815-5.046a1.231,1.231,0,0,1,.959-1.007,16.009,16.009,0,0,0,5.4-2.238,1.232,1.232,0,0,1,1.39.035l4.145,2.992,2.275-2.274-2.994-4.146a1.23,1.23,0,0,1-.034-1.39,16.022,16.022,0,0,0,2.238-5.4,1.234,1.234,0,0,1,1.007-.959l5.047-.815V75.855l-5.047-.816a1.23,1.23,0,0,1-1.007-.958,16,16,0,0,0-2.238-5.4,1.232,1.232,0,0,1,.034-1.391l2.994-4.145-2.275-2.274-4.145,2.992a1.23,1.23,0,0,1-1.39.034,16.033,16.033,0,0,0-5.4-2.238,1.231,1.231,0,0,1-.959-1.007l-.815-5.047h-3.217l-.815,5.046a1.231,1.231,0,0,1-.959,1.007,16.016,16.016,0,0,0-5.4,2.238,1.23,1.23,0,0,1-1.39-.034l-4.145-2.992L480.2,63.145l2.993,4.146a1.23,1.23,0,0,1,.034,1.39,16.022,16.022,0,0,0-2.238,5.4,1.231,1.231,0,0,1-1.007.958l-5.046.816V79.07l5.046.815a1.234,1.234,0,0,1,1.007.959,16.032,16.032,0,0,0,2.238,5.4,1.232,1.232,0,0,1-.034,1.39L480.2,91.78l2.274,2.274,4.145-2.992a1.232,1.232,0,0,1,1.39-.035,16.019,16.019,0,0,0,5.4,2.238,1.231,1.231,0,0,1,.959,1.007Zm-34.1,17.6h.757v-.757Zm13.9-2.5H464.3v2.743a2.216,2.216,0,0,1-2.214,2.214h-2.744v18.148h15.639Zm13.492,2.5h.757v-.757Zm13.9-2.5h-10.68v2.743a2.216,2.216,0,0,1-2.214,2.214h-2.744v18.148h15.638Zm-4.367-7.162a1.216,1.216,0,1,0-1.216,1.216,1.217,1.217,0,0,0,1.216-1.216m16.97,9.4h.757V115.9Zm13.9-2.5H518.194V116.9a2.216,2.216,0,0,1-2.214,2.214h-2.744v18.148h15.639Zm-12.347,7.908a1.23,1.23,0,0,0,0,2.461H525.4a1.23,1.23,0,1,0,0-2.461Zm8.867,4.654h-8.867a1.231,1.231,0,0,0,0,2.462H525.4a1.231,1.231,0,0,0,0-2.462m0,4.655h-8.867a1.231,1.231,0,0,0,0,2.461H525.4a1.231,1.231,0,1,0,0-2.461M496.789,89.855a12.393,12.393,0,1,1,12.393-12.393,12.407,12.407,0,0,1-12.393,12.393m3.739-21.592-2.135,7.969h8.249a9.956,9.956,0,0,0-6.114-7.969m-3.739,19.132a10.027,10.027,0,0,0,1.362-.1L495.6,77.781c0-.012,0-.026-.007-.038s-.011-.048-.015-.072l-.009-.068c0-.024-.005-.047-.007-.071s0-.047,0-.07,0-.046,0-.069,0-.047.007-.071l.009-.069c0-.024.01-.047.015-.071s.005-.026.007-.039l2.551-9.517a9.931,9.931,0,1,0-1.362,19.769m9.853-8.7h-8.249l2.135,7.968a9.955,9.955,0,0,0,6.114-7.968" fill="#1a53f6"></path></g></g></svg> 