<?xml version="1.0" encoding="UTF-8"?> <svg xmlns="http://www.w3.org/2000/svg" width="70" height="70" viewBox="0 0 70 70"><g id="Security" transform="translate(-760 -1652)"><rect id="Rectangle_3" data-name="Rectangle 3" width="70" height="70" transform="translate(760 1652)" fill="none"></rect><path id="Path_84" data-name="Path 84" d="M40.24,5.142,9.626,20.075A1.4,1.4,0,0,0,8.85,21.5l2.243,18.708C14.023,64.662,33.38,73.6,40.591,74.975a1.411,1.411,0,0,0,.526,0c7.211-1.379,26.567-10.314,29.5-34.767L72.857,21.5a1.4,1.4,0,0,0-.776-1.425L41.467,5.142a1.4,1.4,0,0,0-1.227,0ZM67.835,39.875c-2.7,22.493-20.134,30.862-26.981,32.3-6.847-1.435-24.285-9.8-26.981-32.3L11.749,22.155l29.105-14.2,29.1,14.2ZM36.257,47.555,54.893,28.918a1.4,1.4,0,0,1,1.98,1.98L37.247,50.525a1.4,1.4,0,0,1-1.98,0L24.834,40.093a1.4,1.4,0,0,1,1.98-1.98Z" transform="translate(754.16 1647)" fill="#1a54f8"></path></g></svg> 