<?xml version="1.0" encoding="UTF-8"?> <!-- Generator: Adobe Illustrator 25.2.3, SVG Export Plug-In . SVG Version: 6.00 Build 0) --> <svg xmlns="http://www.w3.org/2000/svg" xmlns:xlink="http://www.w3.org/1999/xlink" version="1.1" id="Layer_1" x="0px" y="0px" viewBox="0 0 80 80" style="enable-background:new 0 0 80 80;" xml:space="preserve"> <style type="text/css"> .st0{fill:#1B54F8;stroke:#1B54F8;} </style> <desc>Created with Sketch.</desc> <g id="Page-1"> <g id="Artboard" transform="translate(-182.000000, -46.000000)"> <g id="noun_Network-Protected_995755" transform="translate(195.000000, 59.000000)"> <g id="Group"> <path id="Shape" class="st0" d="M53.5,11.8v-0.5L53,11.2C34.9,8.9,27.6,1.1,27.6,1l-0.5-0.5L26.6,1c-0.1,0.1-7.3,7.9-25.5,10.3 l-0.5,0.1v0.5c0,0.3-1.6,36.9,26.3,43.7h0.2h0.2C55,48.7,53.5,12.2,53.5,11.8z M27.1,54.2C2.2,48.1,1.7,16.8,1.8,12.4 C17.6,10.3,25.2,4,27.1,2.3c1.8,1.8,9.3,8,25.2,10.1C52.4,16.8,51.9,48.1,27.1,54.2z"></path> <path id="Path" class="st0" d="M9.2,23.7l0.9,0.9c4.6-4.6,10.6-7.1,17-7.1s12.4,2.5,17,7l0.9-0.9c-4.7-4.8-11.1-7.4-17.9-7.4 C20.3,16.3,14,18.9,9.2,23.7z"></path> <path id="Path_1_" class="st0" d="M12.9,27.4l0.9,0.9c3.6-3.6,8.2-5.5,13.2-5.5s9.7,1.9,13.2,5.5l0.9-0.9 c-3.7-3.8-8.8-5.9-14.1-5.9S16.6,23.7,12.9,27.4z"></path> <path id="Path_2_" class="st0" d="M16.6,31.2l0.9,0.9c2.6-2.6,6-4,9.6-4s7,1.4,9.6,4l0.9-0.9c-2.8-2.8-6.5-4.3-10.5-4.3 C23.1,26.8,19.4,28.3,16.6,31.2z"></path> <path id="Path_3_" class="st0" d="M27.1,32c-2.6,0-5,1-6.7,2.8l0.9,0.9c1.6-1.6,3.7-2.4,5.9-2.4l0,0c2.2,0,4.3,0.8,5.9,2.4 l0.9-0.9C32,33,29.6,32,27.1,32L27.1,32z"></path> <path id="Shape_1_" class="st0" d="M24.9,37.9C24.3,38.4,24,39.2,24,40c0,0.8,0.3,1.6,0.9,2.2c0.6,0.6,1.3,0.9,2.2,0.9 c0.8,0,1.6-0.3,2.2-0.9c0.6-0.6,0.9-1.3,0.9-2.2c0-0.8-0.3-1.6-0.9-2.2C28,36.7,26.1,36.7,24.9,37.9z M28.4,41.3 c-0.7,0.7-1.9,0.7-2.6,0c-0.3-0.3-0.5-0.8-0.5-1.3c0-0.5,0.2-0.9,0.5-1.3c0.3-0.3,0.8-0.5,1.3-0.5s0.9,0.2,1.3,0.5 c0.3,0.3,0.5,0.8,0.5,1.3C28.9,40.5,28.7,41,28.4,41.3z"></path> </g> </g> </g> </g> </svg> 