<?xml version="1.0" encoding="UTF-8"?> <svg xmlns="http://www.w3.org/2000/svg" width="90" height="90" viewBox="0 0 90 90" fill="none"><mask id="mask0_1_44" style="mask-type:alpha" maskUnits="userSpaceOnUse" x="0" y="0" width="90" height="90"><rect width="90" height="90" fill="#D9D9D9" fill-opacity="0.88"></rect></mask><g mask="url(#mask0_1_44)"><path fill-rule="evenodd" clip-rule="evenodd" d="M44.3 20.933C43.9128 20.5476 43.3883 20.3318 42.842 20.333C42.3657 20.3342 41.9045 20.5005 41.537 20.8036C41.1696 21.1067 40.9185 21.5278 40.8267 21.9952C40.7349 22.4625 40.808 22.9473 41.0335 23.3669C41.2591 23.7864 41.6231 24.1148 42.0636 24.2961C42.5041 24.4773 42.9938 24.5003 43.4493 24.361C43.9048 24.2217 44.2979 23.9288 44.5616 23.5322C44.8254 23.1355 44.9435 22.6597 44.8958 22.1858C44.8481 21.7118 44.6375 21.2691 44.3 20.933ZM60.21 33.309C60.5932 32.9254 60.8883 32.4631 61.075 31.954H54.08C54.2947 32.5412 54.6539 33.0648 55.1243 33.4765C55.5948 33.8882 56.1613 34.1748 56.7718 34.3099C57.3822 34.4449 58.0168 34.424 58.617 34.2491C59.2172 34.0741 59.7637 33.7508 60.206 33.309H60.21ZM60.358 29.403L57.58 24.636L54.8 29.403H60.358ZM30.73 33.309C31.1138 32.9259 31.4091 32.4634 31.595 31.954H24.605C24.8196 32.5412 25.1786 33.0648 25.649 33.4765C26.1193 33.8883 26.6858 34.1749 27.2962 34.3099C27.9066 34.445 28.5411 34.4241 29.1412 34.2491C29.7414 34.0742 30.2878 33.7509 30.73 33.309ZM30.879 29.403L28.1 24.636L25.322 29.403H30.879ZM42.842 46.435H38.83C38.5001 46.4368 38.1842 46.5687 37.951 46.802C37.7177 47.0353 37.5858 47.3511 37.584 47.681V48.927H48.092V47.681C48.0902 47.3511 47.9583 47.0353 47.725 46.802C47.4918 46.5687 47.1759 46.4368 46.846 46.435H42.842ZM62.379 66.043C64.379 68.843 67.837 71.39 73.629 73.243C79.42 71.392 82.877 68.843 84.878 66.043C86.651 63.4521 87.5503 60.3627 87.445 57.225V44.774L73.629 41.16L59.812 44.774V57.229C59.7075 60.3654 60.6068 63.4532 62.379 66.043ZM67 58.584C66.8672 58.4833 66.7556 58.3574 66.6715 58.2135C66.5874 58.0697 66.5324 57.9106 66.5098 57.7455C66.4871 57.5804 66.4972 57.4125 66.5394 57.2513C66.5817 57.0901 66.6553 56.9388 66.756 56.806C66.8567 56.6732 66.9826 56.5616 67.1265 56.4775C67.2703 56.3934 67.4294 56.3384 67.5945 56.3158C67.7596 56.2931 67.9275 56.3032 68.0887 56.3455C68.2499 56.3877 68.4012 56.4613 68.534 56.562L72.568 59.628L78.5 52.243C78.7139 51.9881 79.0192 51.8271 79.3504 51.7946C79.6816 51.7621 80.0123 51.8608 80.2717 52.0693C80.531 52.2779 80.6983 52.5798 80.7376 52.9102C80.7769 53.2407 80.6852 53.5734 80.482 53.837L73.782 62.188C73.575 62.4458 73.2755 62.6126 72.9474 62.653C72.6192 62.6933 72.2883 62.604 72.025 62.404L67 58.584ZM41.563 17.958V15.458C41.563 15.1199 41.6973 14.7956 41.9364 14.5564C42.1755 14.3173 42.4999 14.183 42.838 14.183C43.1762 14.183 43.5005 14.3173 43.7396 14.5564C43.9787 14.7956 44.113 15.1199 44.113 15.458V17.958C44.8154 18.1609 45.4597 18.5274 45.993 19.0275C46.5264 19.5276 46.9335 20.1471 47.181 20.835H57.581C57.8193 20.8351 58.0527 20.9019 58.2549 21.028C58.4571 21.154 58.62 21.3341 58.725 21.548L63.625 29.961C63.7697 30.1721 63.8467 30.4221 63.846 30.678C63.8565 31.508 63.7021 32.3318 63.3917 33.1016C63.0813 33.8715 62.6212 34.572 62.038 35.1627C61.4547 35.7533 60.7601 36.2222 59.9942 36.5423C59.2283 36.8624 58.4066 37.0272 57.5765 37.0272C56.7464 37.0272 55.9247 36.8624 55.1588 36.5423C54.3929 36.2222 53.6982 35.7533 53.115 35.1627C52.5318 34.572 52.0717 33.8715 51.7613 33.1016C51.4509 32.3318 51.2965 31.508 51.307 30.678C51.3063 30.4221 51.3833 30.1721 51.528 29.961L55.361 23.386H47.342C47.1624 24.1964 46.7677 24.9433 46.1995 25.5483C45.6313 26.1533 44.9105 26.594 44.113 26.824V43.884H46.846C47.8538 43.884 48.8204 44.2844 49.533 44.997C50.2456 45.7096 50.646 46.6762 50.646 47.684V50.205C50.646 50.5432 50.5117 50.8675 50.2726 51.1066C50.0335 51.3457 49.7091 51.48 49.371 51.48H36.309C36.1415 51.4801 35.9756 51.4473 35.8208 51.3832C35.666 51.3192 35.5253 51.2253 35.4068 51.1069C35.2883 50.9885 35.1943 50.8479 35.1301 50.6932C35.066 50.5384 35.033 50.3725 35.033 50.205V47.681C35.0343 46.6736 35.4351 45.7078 36.1475 44.9955C36.8598 44.2831 37.8256 43.8823 38.833 43.881H41.566V26.824C40.7685 26.594 40.0477 26.1533 39.4795 25.5483C38.9113 24.9433 38.5166 24.1964 38.337 23.386H30.316L34.15 29.962C34.2938 30.1731 34.3704 30.4226 34.37 30.678C34.37 32.3409 33.7094 33.9357 32.5336 35.1116C31.3577 36.2874 29.7629 36.948 28.1 36.948C26.4371 36.948 24.8423 36.2874 23.6664 35.1116C22.4906 33.9357 21.83 32.3409 21.83 30.678C21.8296 30.422 21.9071 30.172 22.052 29.961L26.952 21.548C27.057 21.3341 27.2199 21.154 27.4221 21.028C27.6243 20.9019 27.8577 20.8351 28.096 20.835H38.5C38.7475 20.1471 39.1546 19.5276 39.688 19.0275C40.2213 18.5274 40.8656 18.1609 41.568 17.958H41.563ZM22.67 83.131H63.006C63.3645 83.1544 63.7213 83.0648 64.0263 82.8749C64.3312 82.6849 64.569 82.4041 64.706 82.072C64.906 81.5467 64.906 80.9663 64.706 80.441C64.569 80.1088 64.3313 79.8279 64.0264 79.6378C63.7215 79.4476 63.3646 79.3578 63.006 79.381H22.67C22.3114 79.3578 21.9545 79.4476 21.6496 79.6378C21.3447 79.8279 21.107 80.1088 20.97 80.441C20.77 80.9663 20.77 81.5467 20.97 82.072C21.107 82.4041 21.3448 82.6849 21.6497 82.8749C21.9547 83.0648 22.3115 83.1544 22.67 83.131ZM52.035 65.943C52.2643 68.6937 53.3858 71.2943 55.229 73.349C56.2088 74.4422 57.4074 75.3173 58.7472 75.9173C60.087 76.5173 61.538 76.829 63.006 76.832C63.8764 76.7954 64.7363 77.0327 65.4648 77.5104C66.1933 77.9881 66.7536 78.6822 67.067 79.495C67.5203 80.6259 67.5203 81.8881 67.067 83.019C66.7538 83.832 66.1935 84.5263 65.465 85.0042C64.7365 85.4821 63.8765 85.7195 63.006 85.683H22.67C21.7995 85.7195 20.9395 85.4821 20.211 85.0042C19.4825 84.5263 18.9222 83.832 18.609 83.019C18.1557 81.8881 18.1557 80.6259 18.609 79.495C18.9224 78.6822 19.4827 77.9881 20.2112 77.5104C20.9397 77.0327 21.7996 76.7954 22.67 76.832C24.138 76.829 25.589 76.5173 26.9288 75.9173C28.2686 75.3173 29.4672 74.4422 30.447 73.349C32.2901 71.2943 33.4117 68.6937 33.641 65.943H3.065C2.2793 65.9449 1.52156 65.6515 0.942 65.121C0.647442 64.8561 0.411492 64.5325 0.249275 64.171C0.087058 63.8096 0.00215206 63.4182 0 63.022V7.92201C0.00138421 7.52594 0.0855418 7.13452 0.247075 6.77288C0.408607 6.41124 0.643949 6.08736 0.938 5.82201C1.51756 5.2915 2.2753 4.99811 3.061 5.00001H82.612C83.3974 4.99826 84.1547 5.29165 84.734 5.82201C85.0281 6.08736 85.2634 6.41124 85.4249 6.77288C85.5865 7.13452 85.6706 7.52594 85.672 7.92201V41.682L89.039 42.563C89.3116 42.6336 89.553 42.7927 89.7255 43.0153C89.898 43.2379 89.9917 43.5114 89.992 43.793V57.229C90.1034 60.8965 89.0373 64.5034 86.95 67.521C84.607 70.798 80.623 73.743 74 75.794C73.7523 75.8721 73.4866 75.8721 73.239 75.794C66.626 73.747 62.647 70.801 60.305 67.526C59.9426 67.0199 59.6107 66.4926 59.311 65.947L52.035 65.943ZM55.316 76.832C54.6078 76.3058 53.9515 75.7131 53.356 75.062C51.0835 72.5391 49.7181 69.3299 49.476 65.943H36.2C35.9579 69.3299 34.5925 72.5391 32.32 75.062C31.7245 75.7131 31.0682 76.3058 30.36 76.832H55.316ZM57.294 58.489H2.555V63.023C2.55692 63.0661 2.56767 63.1082 2.5866 63.1469C2.60552 63.1857 2.63221 63.2201 2.665 63.248C2.77571 63.3442 2.91837 63.3956 3.065 63.392H58.2C57.6792 61.807 57.3765 60.1586 57.3 58.492L57.294 58.489ZM2.555 55.937V7.92401C2.55692 7.88097 2.56767 7.83878 2.5866 7.80007C2.60552 7.76136 2.63221 7.72696 2.665 7.69901C2.77571 7.6028 2.91837 7.55144 3.065 7.55501H82.612C82.7587 7.55095 82.9015 7.60237 83.012 7.69901C83.0451 7.72675 83.0721 7.76108 83.0912 7.79982C83.1103 7.83856 83.1211 7.88085 83.123 7.92401V41.015L73.971 38.621C73.7552 38.5629 73.5278 38.5629 73.312 38.621L58.317 42.537C58.0214 42.5888 57.7535 42.743 57.5603 42.9728C57.3672 43.2025 57.2612 43.4929 57.261 43.793V55.937H2.555Z" fill="#1A53F6"></path></g></svg> 