<?xml version="1.0" encoding="UTF-8"?> <svg xmlns="http://www.w3.org/2000/svg" xmlns:xlink="http://www.w3.org/1999/xlink" width="90" height="90" viewBox="0 0 90 90"><defs><clipPath id="clip-path"><rect id="Rectangle_1" data-name="Rectangle 1" width="90" height="90" transform="translate(391.237 164.966)" fill="none"></rect></clipPath></defs><g id="Group_2" data-name="Group 2" transform="translate(-391.237 -164.966)"><g id="Group_1" data-name="Group 1" clip-path="url(#clip-path)"><path id="Path_1" data-name="Path 1" d="M397.768,189.87a2.159,2.159,0,1,0-.005,3.053l.005-.005a2.148,2.148,0,0,0,.009-3.038l-.009-.01m3.417,17.458a2.158,2.158,0,1,0,0,3.058,2.159,2.159,0,0,0,0-3.058m-.989,16.579a2.158,2.158,0,1,0-.054,3.052l.054-.054a2.159,2.159,0,0,0,0-3m5.067,12.761a2.159,2.159,0,1,0-.005,3.052l.005,0a2.16,2.16,0,0,0,0-3.048m9.523,10.622a2.158,2.158,0,1,0-.054,3.052q.027-.025.054-.054a2.159,2.159,0,0,0,0-3m61.627-58.059a2.159,2.159,0,1,0,2.159,2.158,2.158,2.158,0,0,0-2.159-2.158M473.005,206.7a2.159,2.159,0,1,0,2.159,2.158,2.158,2.158,0,0,0-2.159-2.158m1,16.538a2.159,2.159,0,1,0,1.523.625,2.178,2.178,0,0,0-1.523-.625m-5.087,12.771a2.159,2.159,0,1,0,2.159,2.159,2.159,2.159,0,0,0-2.159-2.159m-9.523,10.643a2.159,2.159,0,1,0,2.158,2.158,2.159,2.159,0,0,0-2.158-2.158m5.446-65.714h-28.73a1.069,1.069,0,0,0-1.059,1v18.717a1.059,1.059,0,0,0,1.059,1.049h28.73a1,1,0,0,0,1-1c0-.017,0-.034,0-.051V182.016a1.059,1.059,0,0,0-1-1ZM452.41,204.43a76.319,76.319,0,0,1-.09,8.145,25.2,25.2,0,0,1-1.809,8.074c-3.318,6.675-7.735,11.892-14.18,15.539a34.563,34.563,0,0,1-14.15-15.529c-2.349-5.266-2.079-13.061-1.839-18.987a68.521,68.521,0,0,0,11.992-2.568v1.519a3.786,3.786,0,0,0,3.777,3.777Zm6.585,0a80.349,80.349,0,0,1-.16,9.324,30.208,30.208,0,0,1-2.378,9.743,51.432,51.432,0,0,1-3.228,5.666.928.928,0,0,0-.11.16,42.058,42.058,0,0,1-5.3,6.415,39.8,39.8,0,0,1-11.492,7.865,39.53,39.53,0,0,1-11.492-7.865,40.9,40.9,0,0,1-5.3-6.415l-.11-.16A48.519,48.519,0,0,1,416.2,223.5c-2-4.307-2.6-9.993-2.6-14.64,0-2.728.07-5,.18-7.755l.169-5.486a63.221,63.221,0,0,0,18.378-3.457v4.117a64.989,64.989,0,0,1-13.441,2.858,1.368,1.368,0,0,0-1.219,1.359c-.15,3.547-.3,7.345-.1,10.992a29.5,29.5,0,0,0,2.158,10.373,37.139,37.139,0,0,0,15.989,17.108,1.381,1.381,0,0,0,1.309,0,35.363,35.363,0,0,0,9.294-7.235,40.554,40.554,0,0,0,6.645-9.893v-.09a27.57,27.57,0,0,0,2-8.994,77.352,77.352,0,0,0,.13-8.354Zm-20.486-26.192V176.1a11.992,11.992,0,0,1,23.934,0v2.138h2.4a3.789,3.789,0,0,1,3.778,3.778v14.909h.329l3.188-3.177a4.888,4.888,0,1,1,1.929,1.928l-3.578,3.568c-.509.519-1.119.41-1.868.41v1a3.787,3.787,0,0,1-3.778,3.777h-3.128c0,1,0,2,.06,3.068h6.536a4.886,4.886,0,1,1,0,2.728h-6.556a48.819,48.819,0,0,1-.779,7.835h6.995a1.389,1.389,0,0,1,1,.409l2.648,2.649a4.886,4.886,0,1,1-1.928,1.928l-2.259-2.258h-7.115a31.034,31.034,0,0,1-3.557,7.844h7.455a1.372,1.372,0,0,1,1.239.8l2.3,4a4.887,4.887,0,1,1-2.348,1.359l-2-3.418h-8.384a43.308,43.308,0,0,1-6.925,7.845h6.545a1.359,1.359,0,0,1,1.239.789l2.349,4.078a4.886,4.886,0,1,1-2.349,1.359l-2-3.508h-9.2a43.784,43.784,0,0,1-7.794,4.417,1.383,1.383,0,0,1-1.11,0,43.282,43.282,0,0,1-7.784-4.457H418.8l-2,3.508a4.888,4.888,0,1,1-2.359-1.359l2.368-4.108a1.371,1.371,0,0,1,1.23-.759h6.545a43.329,43.329,0,0,1-6.935-7.845H409.23l-2,3.418a4.866,4.866,0,1,1-2.348-1.359l2.308-4a1.371,1.371,0,0,1,1.239-.8h7.435c-.679-1.149-1.579-2.778-2.158-4a28.223,28.223,0,0,1-1.359-3.807h-7.135l-2.259,2.258a4.888,4.888,0,1,1-1.929-1.928l2.649-2.649a1.372,1.372,0,0,1,1-.409h7.045a47.465,47.465,0,0,1-.779-7.835h-6.586a4.9,4.9,0,1,1,0-2.728h6.536c0-2.628.13-5.236.229-7.844h-7.994a1.348,1.348,0,0,1-1-.41l-3.578-3.568a4.885,4.885,0,1,1,1.929-1.928l3.228,3.177h7.5v-2.618a1.359,1.359,0,0,1,1.335-1.383c.045,0,.09,0,.134,0a67.45,67.45,0,0,0,10.783-1.179,54.625,54.625,0,0,0,8.874-2.488v-7.245a3.787,3.787,0,0,1,3.777-3.778Zm15.58,0V176.1a3.617,3.617,0,0,0-7.225,0v2.138Zm-9.993,0V176.1a6.345,6.345,0,0,1,12.681,0v2.138h2.9V176.1a9.243,9.243,0,1,0-18.477-.608c-.007.2-.007.4,0,.608v2.138Zm8.254,18.288h-3.788l1.11-5.437a1.371,1.371,0,0,0-.48-1.329,2,2,0,1,1,2.816-.247,1.928,1.928,0,0,1-.248.247,1.359,1.359,0,0,0-.439,1.359l1.1,5.407Zm1.7-5.257,1.3,6.356a1.359,1.359,0,0,1-1.062,1.6,1.337,1.337,0,0,1-.267.027h-7.125a1.357,1.357,0,0,1-1.309-1.749l1.279-6.236a4.757,4.757,0,1,1,7.225,0Zm-26.312,25.3,4.717,5a1.488,1.488,0,0,0,2.1.044l.043-.044,10.323-10.862a1.561,1.561,0,0,0,.4-1.069,1.329,1.329,0,0,0-2.269-1.06l-8.554,8.994a1.37,1.37,0,0,1-1.935.064c-.022-.021-.043-.042-.063-.064l-3-3.1a1.33,1.33,0,0,0-2.169,1.039,1.489,1.489,0,0,0,.41,1.06Zm2.748,6.825a4.217,4.217,0,0,0,5.962.133c.046-.043.09-.088.134-.133l10.313-10.812a4.28,4.28,0,0,0,1.169-3,4.047,4.047,0,0,0-6.995-2.938l-7.535,7.984-2-2.068a4,4,0,0,0-2.9-1.25,4.217,4.217,0,0,0-2.888,7.135Z" fill="#1a53f6" fill-rule="evenodd"></path></g></g></svg> 