<?xml version="1.0" encoding="UTF-8"?> <svg xmlns="http://www.w3.org/2000/svg" id="Layer_1" data-name="Layer 1" viewBox="0 0 94 94"><defs><style>.cls-1{fill:#1b54f8;stroke:#1b54f8;stroke-miterlimit:10;}</style></defs><path class="cls-1" d="M69.3,19.5H24.7a5.23,5.23,0,0,0-5.2,5.2,5.16,5.16,0,0,0,5.2,5.2H69.4a5.23,5.23,0,0,0,5.2-5.2A5.31,5.31,0,0,0,69.3,19.5Zm0,9H24.7a3.9,3.9,0,0,1,0-7.8H69.4a3.84,3.84,0,0,1,3.9,3.9A4,4,0,0,1,69.3,28.5Z"></path><path class="cls-1" d="M67.6,53.9V34.6A.65.65,0,0,0,67,34H27a.65.65,0,0,0-.6.6V53.9a20.6,20.6,0,1,0,41.2,0Zm-40,0V35.2H66.4V53.8a19.4,19.4,0,0,1-38.8.1Z"></path><path class="cls-1" d="M60.1,53.9A13.1,13.1,0,1,0,47,67,13.14,13.14,0,0,0,60.1,53.9Zm-25,0A11.9,11.9,0,1,1,47,65.8,12,12,0,0,1,35.1,53.9Z"></path><path class="cls-1" d="M51.2,53.9A4.2,4.2,0,1,0,47,58.1,4.23,4.23,0,0,0,51.2,53.9Zm-7.1,0A2.9,2.9,0,1,1,47,56.8,2.9,2.9,0,0,1,44.1,53.9Z"></path><path class="cls-1" d="M47.6,45.8a.65.65,0,0,0-.6-.6A8.83,8.83,0,0,0,39.2,50a.55.55,0,0,0,.3.8c.1,0,.2.1.3.1a.86.86,0,0,0,.6-.3,7.31,7.31,0,0,1,6.7-4.1A.94.94,0,0,0,47.6,45.8Z"></path></svg> 