<?xml version="1.0" encoding="UTF-8"?> <svg xmlns="http://www.w3.org/2000/svg" xmlns:xlink="http://www.w3.org/1999/xlink" width="90" height="90" viewBox="0 0 90 90"><defs><clipPath id="clip-path"><rect id="Rectangle_19" data-name="Rectangle 19" width="90" height="90" transform="translate(786 498)" fill="#fff" stroke="#707070" stroke-width="1"></rect></clipPath></defs><g id="Mask_Group_12" data-name="Mask Group 12" transform="translate(-786 -498)" clip-path="url(#clip-path)"><g id="Group_28" data-name="Group 28" transform="translate(-101.452 14.223)"><path id="Path_49" data-name="Path 49" d="M289.177,16A1.177,1.177,0,0,0,288,17.177V28.95a1.177,1.177,0,0,0,1.177,1.177,15.322,15.322,0,0,1,15.3,15.3,1.177,1.177,0,0,0,1.177,1.177h11.773a1.177,1.177,0,0,0,1.177-1.177A29.465,29.465,0,0,0,289.177,16ZM306.8,44.254a17.688,17.688,0,0,0-16.443-16.443V18.38a27.115,27.115,0,0,1,25.874,25.874Z" transform="translate(649.296 477.554)" fill="#1c54f8" stroke="#fff" stroke-width="0.4"></path><rect id="Rectangle_28" data-name="Rectangle 28" width="3" height="2" transform="translate(897 497)" fill="#1c54f8" stroke="#fff" stroke-width="0.4"></rect><rect id="Rectangle_29" data-name="Rectangle 29" width="6" height="2" transform="translate(902 497)" fill="#1c54f8" stroke="#fff" stroke-width="0.4"></rect><path id="Path_50" data-name="Path 50" d="M67.343,110.106A29.43,29.43,0,0,0,80.749,85.431a1.177,1.177,0,0,0-1.177-1.177H67.8a1.177,1.177,0,0,0-1.177,1.177,15.3,15.3,0,1,1-15.3-15.3A1.177,1.177,0,0,0,52.5,68.95V57.177A1.177,1.177,0,0,0,51.318,56a29.3,29.3,0,0,0-18.795,6.8l-4.044-3.033a1.178,1.178,0,0,0-.706-.235H16v2.355H27.38l3.363,2.522a29.395,29.395,0,0,0,4.012,45.339l-2.761,2.761H16v2.355H32.482a1.177,1.177,0,0,0,.832-.345l3.49-3.49a29.38,29.38,0,0,0,28.345.376l4.3,3.224a1.178,1.178,0,0,0,.706.235h15.3v-2.355H70.546Zm1.6-23.5H78.37A27.113,27.113,0,0,1,52.5,112.482v-9.431A17.686,17.686,0,0,0,68.938,86.609ZM50.141,58.38v9.432A17.686,17.686,0,0,0,33.7,84.254H24.268A27.113,27.113,0,0,1,50.141,58.38ZM24.268,86.609H33.7A17.684,17.684,0,0,0,50.141,103.05v9.431A27.111,27.111,0,0,1,24.268,86.609Z" transform="translate(881.269 443.441)" fill="#1c54f8" stroke="#fff" stroke-width="0.4"></path><rect id="Rectangle_30" data-name="Rectangle 30" width="3" height="2" transform="translate(964 562)" fill="#1c54f8" stroke="#fff" stroke-width="0.4"></rect><rect id="Rectangle_31" data-name="Rectangle 31" width="9" height="2" transform="translate(953 562)" fill="#1c54f8" stroke="#fff" stroke-width="0.4"></rect><rect id="Rectangle_32" data-name="Rectangle 32" width="3" height="2" transform="translate(897 562)" fill="#1c54f8" stroke="#fff" stroke-width="0.4"></rect><rect id="Rectangle_33" data-name="Rectangle 33" width="10" height="2" transform="translate(902 562)" fill="#1c54f8" stroke="#fff" stroke-width="0.4"></rect><path id="Path_51" data-name="Path 51" d="M205.191,172.013V153.177A1.177,1.177,0,0,0,204.013,152H199.3a1.177,1.177,0,0,0-1.177,1.177v2.355H194.6a1.177,1.177,0,0,0-1.177,1.177v3.532h-3.532a1.177,1.177,0,0,0-1.177,1.177v2.355h-3.532A1.177,1.177,0,0,0,184,164.95v7.064a1.177,1.177,0,0,0,1.177,1.177h18.836a1.177,1.177,0,0,0,1.177-1.177Zm-18.836-5.886h2.355v4.709h-2.355Zm4.709-3.532h2.355v8.241h-2.355Zm4.709-4.709h2.355v12.95h-2.355Zm7.064,12.95h-2.355V154.355h2.355Z" transform="translate(737.992 361.568)" fill="#1c54f8" stroke="#fff" stroke-width="0.4"></path><rect id="Rectangle_34" data-name="Rectangle 34" width="3" height="2" transform="translate(929 536)" fill="#1c54f8" stroke="#fff" stroke-width="0.4"></rect><rect id="Rectangle_35" data-name="Rectangle 35" width="3" height="2" transform="translate(924 536)" fill="#1c54f8" stroke="#fff" stroke-width="0.4"></rect><rect id="Rectangle_36" data-name="Rectangle 36" width="2" height="2" transform="translate(934 536)" fill="#1c54f8" stroke="#fff" stroke-width="0.4"></rect><rect id="Rectangle_37" data-name="Rectangle 37" width="2" height="2" transform="translate(939 536)" fill="#1c54f8" stroke="#fff" stroke-width="0.4"></rect></g></g></svg> 