<?xml version="1.0" encoding="UTF-8"?> <svg xmlns="http://www.w3.org/2000/svg" id="Layer_1" data-name="Layer 1" viewBox="0 0 80 80"><defs><style>.cls-1{fill:#1b54f8;}</style></defs><path class="cls-1" d="M14.6,25.6a2.84,2.84,0,0,0,4,0,30.18,30.18,0,0,1,42.8,0,2.83,2.83,0,1,0,4-4A36,36,0,0,0,40,11.1,35.62,35.62,0,0,0,14.6,21.6,2.84,2.84,0,0,0,14.6,25.6Z"></path><path class="cls-1" d="M57.9,33.1a2.94,2.94,0,0,0,.1-4,25.77,25.77,0,0,0-18-7.5A25.25,25.25,0,0,0,22,29a2.83,2.83,0,0,0,4,4,19.92,19.92,0,0,1,14-5.8A19.52,19.52,0,0,1,53.9,33,2.75,2.75,0,0,0,57.9,33.1Z"></path><path class="cls-1" d="M29.5,36.5a2.83,2.83,0,0,0,4,4,9.58,9.58,0,0,1,13.1-.1,2.83,2.83,0,0,0,4-4A14.93,14.93,0,0,0,40.1,32,15.26,15.26,0,0,0,29.5,36.5Z"></path><path class="cls-1" d="M58.3,47.5h-14a4.33,4.33,0,0,1,.1-.5,4.4,4.4,0,0,0-8.8,0,4.33,4.33,0,0,0,.1.5h-14A6.7,6.7,0,0,0,15,54.2v8a6.7,6.7,0,0,0,6.7,6.7H58.4a6.7,6.7,0,0,0,6.7-6.7v-8A6.85,6.85,0,0,0,58.3,47.5ZM43.5,61.1H25.8A2.8,2.8,0,0,1,23,58.3a2.86,2.86,0,0,1,2.8-2.8H43.6a2.8,2.8,0,0,1,2.8,2.8A3,3,0,0,1,43.5,61.1Zm10.1.6a3.5,3.5,0,1,1,3.5-3.5A3.61,3.61,0,0,1,53.6,61.7Z"></path></svg> 