<?xml version="1.0" encoding="UTF-8"?> <svg xmlns="http://www.w3.org/2000/svg" xmlns:xlink="http://www.w3.org/1999/xlink" width="90" height="90" viewBox="0 0 90 90"><defs><clipPath id="clip-path"><rect id="Rectangle_15" data-name="Rectangle 15" width="90" height="90" transform="translate(1174 328)" fill="#fff" stroke="#707070" stroke-width="1"></rect></clipPath></defs><g id="Mask_Group_12" data-name="Mask Group 12" transform="translate(-1174 -328)" clip-path="url(#clip-path)"><g id="Group_13" data-name="Group 13" transform="translate(66.526 -169.474)"><g id="Group_12" data-name="Group 12" transform="translate(1116 506)"><path id="Path_20" data-name="Path 20" d="M24.237,54.423a1.257,1.257,0,0,1-1.258,1.258H17.32a1.257,1.257,0,0,1-1.258-1.258V43.1a1.257,1.257,0,0,1,1.258-1.258h5.691l1.07-4.932a2.529,2.529,0,0,1,2.474-1.985h1.423a2.669,2.669,0,0,1,2.527,2.637c-.03,1.138-.145,2.8-.262,4.28h4.045a2.422,2.422,0,0,1,2.265,1.478,2.654,2.654,0,0,1,.25,1.317l-.849,7.546a2.525,2.525,0,0,1-2.515,2.236Zm0-2.515h9.2c.006,0,.014,0,.016,0l.838-7.455-.04-.09H28.878A1.258,1.258,0,0,1,27.624,43c.141-1.651.328-4.024.366-5.5,0-.033-.034-.05-.064-.057H26.54L25.254,43.37a1.258,1.258,0,0,1-1.017.973v7.564Zm-2.515-7.546H18.577v8.8h3.144ZM45.685,25.495H39.72a1.257,1.257,0,0,1-1.258-1.258V12.918A1.257,1.257,0,0,1,39.72,11.66H55.84A2.525,2.525,0,0,1,58.355,13.9l.849,7.546a2.661,2.661,0,0,1-.25,1.317,2.423,2.423,0,0,1-2.265,1.478H52.644c.117,1.477.232,3.142.261,4.28a2.669,2.669,0,0,1-2.527,2.637H48.955a2.528,2.528,0,0,1-2.474-1.985l-.8-3.674Zm-1.562-11.32H40.978v8.8h3.144Zm2.515,7.564a1.258,1.258,0,0,1,1.017.973l1.285,5.926h1.387c.029-.008.064-.024.064-.057-.038-1.471-.225-3.844-.366-5.5a1.257,1.257,0,0,1,1.253-1.365h5.376l.04-.09-.839-7.455c0-.006-.009,0-.015,0h-9.2v7.564ZM45.76,36.186a9.947,9.947,0,0,1,.487,3.144v4.738a1.258,1.258,0,0,1-2.515,0V39.33a6.723,6.723,0,0,0-1.011-3.715,6.037,6.037,0,0,0-5.277-2.574H14.8A5.951,5.951,0,0,0,8.515,39.33V64.593l6.028-6.028a1.258,1.258,0,0,1,.889-.369h22.01c.189,0,.374-.006.556-.018a1.258,1.258,0,1,1,.165,2.51c-.236.015-.477.023-.721.023H15.954L8.147,68.518A1.258,1.258,0,0,1,6,67.629V39.33c0-5.27,3.534-8.8,8.8-8.8H29.127a9.947,9.947,0,0,1-.487-3.144V14.8c0-5.27,3.534-8.8,8.8-8.8H60.083c5.27,0,8.8,3.534,8.8,8.8V39.4a1.258,1.258,0,1,1-2.515,0V14.8a5.951,5.951,0,0,0-6.289-6.289H37.443A5.951,5.951,0,0,0,31.155,14.8V27.381a7.022,7.022,0,0,0,.685,3.144h5.6a8.583,8.583,0,0,1,6.975,3.144H59.454a1.258,1.258,0,0,1,.889.369l3.306,3.306a1.258,1.258,0,1,1-1.778,1.778l-2.937-2.937H45.76Zm14.322,5.031A18.866,18.866,0,1,1,41.217,60.083,18.875,18.875,0,0,1,60.083,41.217Zm0,2.515A16.351,16.351,0,1,0,76.433,60.083,16.358,16.358,0,0,0,60.083,43.732Zm0,1.887a5.66,5.66,0,1,1-5.66,5.66A5.663,5.663,0,0,1,60.083,45.619Zm0,2.515a3.144,3.144,0,1,0,3.144,3.144A3.145,3.145,0,0,0,60.083,48.134Zm7.546,23.9H52.536a1.257,1.257,0,0,1-1.258-1.258V64.485A6.289,6.289,0,0,1,57.567,58.2H62.6a6.289,6.289,0,0,1,6.289,6.289v6.289A1.257,1.257,0,0,1,67.629,72.031Zm-1.258-2.515V64.485A3.773,3.773,0,0,0,62.6,60.711H57.567a3.773,3.773,0,0,0-3.773,3.773v5.031Z" transform="translate(-6 -6)" fill="#1c54f8" stroke="#fff" stroke-width="1" fill-rule="evenodd"></path></g></g></g></svg> 