<?xml version="1.0" encoding="UTF-8"?> <svg xmlns="http://www.w3.org/2000/svg" xmlns:xlink="http://www.w3.org/1999/xlink" width="90" height="90" viewBox="0 0 90 90"><defs><clipPath id="clip-path"><rect id="Rectangle_23" data-name="Rectangle 23" width="90" height="90" transform="translate(302 712)" fill="#fff" stroke="#707070" stroke-width="1"></rect></clipPath></defs><g id="Mask_Group_19" data-name="Mask Group 19" transform="translate(-302 -712)" clip-path="url(#clip-path)"><g id="Group_36" data-name="Group 36" transform="translate(-111.294 4.181)"><g id="Group_35" data-name="Group 35" transform="translate(422.294 720.819)"><path id="Path_64" data-name="Path 64" d="M8,1.753a7.213,7.213,0,0,0-7.2,7.193V58.374A7.215,7.215,0,0,0,8,65.57H66.532a7.206,7.206,0,0,0,7.193-7.2V8.946a7.2,7.2,0,0,0-7.193-7.193ZM8,4.27H66.532A4.638,4.638,0,0,1,71.21,8.946v6.268H3.311V8.946A4.644,4.644,0,0,1,8,4.27ZM11.43,7.9a1.838,1.838,0,1,0,1.835,1.837A1.845,1.845,0,0,0,11.43,7.9Zm7.559,0a1.838,1.838,0,1,0,1.837,1.837A1.845,1.845,0,0,0,18.99,7.9Zm7.559,0a1.838,1.838,0,1,0,1.837,1.837A1.845,1.845,0,0,0,26.549,7.9ZM3.311,17.728h67.9V58.374a4.64,4.64,0,0,1-4.679,4.679H8a4.646,4.646,0,0,1-4.686-4.679ZM24.3,22.5a1.257,1.257,0,0,0-1.149.931L19.508,37.071a1.255,1.255,0,1,0,2.422.661l3.657-13.655A1.259,1.259,0,0,0,24.3,22.5Zm5.1,1.852a1.257,1.257,0,0,0-.892,2.144L32.6,30.575,28.511,34.66a1.256,1.256,0,0,0,1.773,1.781l4.976-4.973a1.258,1.258,0,0,0,0-1.783l-4.976-4.966a1.257,1.257,0,0,0-.882-.371Zm-13.8,0a1.257,1.257,0,0,0-.8.368L9.837,29.684a1.258,1.258,0,0,0,0,1.783L14.8,36.44a1.259,1.259,0,1,0,1.781-1.781L12.5,30.576l4.084-4.084a1.258,1.258,0,0,0-.98-2.142Zm-3.93,19.414a1.259,1.259,0,1,0,0,2.517H22.46a1.259,1.259,0,0,0,0-2.517Zm16.43,0a1.259,1.259,0,0,0,0,2.517H49.841a1.259,1.259,0,1,0,0-2.517Zm27.391,0a1.259,1.259,0,1,0,0,2.517h7.36a1.259,1.259,0,0,0,0-2.517ZM11.674,53.325a1.259,1.259,0,1,0,0,2.517H34.045a1.259,1.259,0,1,0,0-2.517Zm27.087,0a1.259,1.259,0,1,0,0,2.517H53.2a1.259,1.259,0,0,0,0-2.517Zm19.149,0a1.259,1.259,0,0,0,0,2.517h4.946a1.259,1.259,0,0,0,0-2.517Z" transform="translate(-0.794 -1.753)" fill="#1c54f8" stroke="#fff" stroke-width="0.4"></path></g></g></g></svg> 