<?xml version="1.0" encoding="UTF-8"?> <svg xmlns="http://www.w3.org/2000/svg" id="Layer_1" data-name="Layer 1" viewBox="0 0 94 94"><defs><style>.cls-1{fill:#1b54f8;}</style></defs><path class="cls-1" d="M42.9,77.35A26.15,26.15,0,1,1,69.05,51.2,26.18,26.18,0,0,1,42.9,77.35Zm0-50.7A24.55,24.55,0,1,0,67.45,51.2,24.57,24.57,0,0,0,42.9,26.65Z"></path><path class="cls-1" d="M42.9,25.3A25.9,25.9,0,1,1,17,51.2,25.93,25.93,0,0,1,42.9,25.3m0,50.7A24.8,24.8,0,1,0,18.1,51.2,24.83,24.83,0,0,0,42.9,76m0-51.2A26.4,26.4,0,1,0,69.3,51.2,26.44,26.44,0,0,0,42.9,24.8Zm0,50.7A24.3,24.3,0,1,1,67.2,51.2,24.33,24.33,0,0,1,42.9,75.5Z"></path><path class="cls-1" d="M42.9,84.55A33.25,33.25,0,1,1,76.15,51.3,33.29,33.29,0,0,1,42.9,84.55Zm0-64.9A31.55,31.55,0,1,0,74.45,51.2,31.58,31.58,0,0,0,42.9,19.65Z"></path><path class="cls-1" d="M42.9,18.3a33,33,0,1,1-33,33,33,33,0,0,1,33-33m0,64.7A31.8,31.8,0,1,0,11.1,51.2,31.84,31.84,0,0,0,42.9,83m0-65.2A33.5,33.5,0,1,0,76.4,51.3,33.57,33.57,0,0,0,42.9,17.8Zm0,64.7A31.3,31.3,0,1,1,74.2,51.2,31.28,31.28,0,0,1,42.9,82.5Z"></path><path class="cls-1" d="M26.65,48v-9.3h32.5V48Zm24.8-1.6h6v-6h-6Zm-7.7,0h6v-6h-6Zm-7.7,0h6v-6h-6Zm-7.7,0h6v-6h-6Z"></path><path class="cls-1" d="M58.9,38.9v8.8h-32V38.9h32m-7.7,7.7h6.5V40.1H51.2v6.5m-7.7,0H50V40.1H43.5v6.5m-7.7,0h6.5V40.1H35.8v6.5m-7.7,0h6.5V40.1H28.1v6.5m31.3-8.2h-33v9.8h33V38.4Zm-7.7,7.7V40.6h5.5v5.5Zm-7.7,0V40.6h5.5v5.5Zm-7.7,0V40.6h5.5v5.5Zm-7.7,0V40.6h5.5v5.5Z"></path><path class="cls-1" d="M53.2,63.85a5.95,5.95,0,1,1,5.95-6A6,6,0,0,1,53.2,63.85Zm0-10.2a4.25,4.25,0,1,0,4.25,4.25A4.26,4.26,0,0,0,53.2,53.65Z"></path><path class="cls-1" d="M53.2,52.2a5.7,5.7,0,1,1-5.7,5.7,5.71,5.71,0,0,1,5.7-5.7m0,10.2a4.5,4.5,0,1,0-4.5-4.5,4.51,4.51,0,0,0,4.5,4.5m0-10.7a6.2,6.2,0,1,0,6.2,6.2,6.23,6.23,0,0,0-6.2-6.2Zm0,10.2a4,4,0,1,1,4-4,4,4,0,0,1-4,4Z"></path><path class="cls-1" d="M27.5,63.85a.85.85,0,0,1,0-1.7H43.6a.86.86,0,0,1,.85.85.92.92,0,0,1-.78.85Z"></path><path class="cls-1" d="M43.6,62.4a.6.6,0,0,1,.6.6.68.68,0,0,1-.56.6H27.5a.6.6,0,0,1,0-1.2H43.6m0-.5H27.5a1.1,1.1,0,0,0,0,2.2H43.7a1.18,1.18,0,0,0,1-1.1,1.11,1.11,0,0,0-1.1-1.1Z"></path><path class="cls-1" d="M27.5,58.75a.85.85,0,0,1,0-1.7H43.7a.85.85,0,1,1,0,1.7Z"></path><path class="cls-1" d="M43.7,57.3a.6.6,0,1,1,0,1.2H27.5a.6.6,0,0,1,0-1.2H43.7m0-.5H27.5a1.1,1.1,0,0,0,0,2.2H43.7a1.1,1.1,0,0,0,0-2.2Z"></path><path class="cls-1" d="M27.5,53.65a.85.85,0,0,1,0-1.7H43.7a.85.85,0,1,1,0,1.7Z"></path><path class="cls-1" d="M43.7,52.2a.6.6,0,1,1,0,1.2H27.5a.6.6,0,0,1,0-1.2H43.7m0-.5H27.5a1.1,1.1,0,1,0,0,2.2H43.7a1.1,1.1,0,1,0,0-2.2Z"></path><path class="cls-1" d="M77.9,28.05a.86.86,0,0,1-.85-.85A10.49,10.49,0,0,0,66.71,16.85a.85.85,0,1,1,0-1.7,12.07,12.07,0,0,1,12,12A.86.86,0,0,1,77.9,28.05Zm-5.6,0a.79.79,0,0,1-.85-.85,4.82,4.82,0,0,0-4.75-4.75.85.85,0,1,1,0-1.7,6.45,6.45,0,0,1,6.45,6.45A.86.86,0,0,1,72.3,28.05Z"></path><path class="cls-1" d="M66.7,15.4A11.81,11.81,0,0,1,78.5,27.2a.6.6,0,0,1-1.2,0A10.74,10.74,0,0,0,66.7,16.6a.53.53,0,0,1-.6-.6.6.6,0,0,1,.6-.6m0,5.6a6.21,6.21,0,0,1,6.2,6.2.6.6,0,0,1-.6.6.53.53,0,0,1-.6-.6,5.07,5.07,0,0,0-5-5,.6.6,0,0,1,0-1.2m0-6.1A1.11,1.11,0,0,0,65.6,16a1,1,0,0,0,1.1,1.1A10.2,10.2,0,0,1,76.8,27.2a1.1,1.1,0,1,0,2.2,0A12.29,12.29,0,0,0,66.7,14.9Zm0,5.6a1.1,1.1,0,1,0,0,2.2,4.55,4.55,0,0,1,4.5,4.5,1,1,0,0,0,1.1,1.1,1.11,1.11,0,0,0,1.1-1.1,6.7,6.7,0,0,0-6.7-6.7Z"></path><path class="cls-1" d="M83.4,28a.86.86,0,0,1-.85-.85,15.94,15.94,0,0,0-16-15.95h-.06l-.05,0h0a.51.51,0,0,1-.37-.16.85.85,0,0,1-.23-.62.86.86,0,0,1,.85-.85,17.65,17.65,0,0,1,12.42,5.13,16.93,16.93,0,0,1,5.13,12.41A.86.86,0,0,1,83.4,28Z"></path><path class="cls-1" d="M66.7,9.8a17.46,17.46,0,0,1,12.25,5A16.74,16.74,0,0,1,84,27.1a.6.6,0,1,1-1.2,0A16.22,16.22,0,0,0,66.6,10.9h-.07l-.11,0a.39.39,0,0,1-.17-.09.69.69,0,0,1-.15-.45.6.6,0,0,1,.6-.6m0-.5a1.11,1.11,0,0,0-1.1,1.1,1.14,1.14,0,0,0,.3.8.78.78,0,0,0,.52.24.34.34,0,0,0,.18,0A15.71,15.71,0,0,1,82.3,27.1a1.1,1.1,0,0,0,2.2,0,17.3,17.3,0,0,0-5.2-12.6A18,18,0,0,0,66.7,9.3Z"></path></svg> 