<?xml version="1.0" encoding="UTF-8"?> <svg xmlns="http://www.w3.org/2000/svg" id="Layer_1" data-name="Layer 1" viewBox="0 0 94 94"><defs><style>.cls-1{fill:#1b54f8;stroke:#1b54f8;stroke-miterlimit:10;stroke-width:0.25px;}</style></defs><circle class="cls-1" cx="47" cy="67.9" r="1.2"></circle><circle class="cls-1" cx="47" cy="72.9" r="1.2"></circle><circle class="cls-1" cx="47" cy="62.8" r="1.2"></circle><path class="cls-1" d="M53.3,44.9a6.18,6.18,0,0,0-2.2-4l.6-1.5a3.81,3.81,0,0,0,.3-1.8,5,5,0,0,0-5-5h-.3A4.92,4.92,0,0,0,42,37.4a6.45,6.45,0,0,0,.3,2l.6,1.5a6.18,6.18,0,0,0-2.2,4l-.3,1.8a2.21,2.21,0,0,0,.6,1.9,2.62,2.62,0,0,0,1.8.9H51a2.14,2.14,0,0,0,1.8-.9,2.56,2.56,0,0,0,.6-1.9ZM42.9,47l.3-1.8A4.14,4.14,0,0,1,46,41.9a1.41,1.41,0,0,0,.1-.9,2,2,0,0,1-.9-.9l-.6-1.5a3.55,3.55,0,0,1-.2-1,2.68,2.68,0,0,1,2.4-2.5H47a2.52,2.52,0,0,1,2.6,2.6,2.92,2.92,0,0,1-.2.9L48.8,40a1.59,1.59,0,0,1-.9.9,2.77,2.77,0,0,0,.1.9,3.73,3.73,0,0,1,2.8,3.3l.3,1.8C51.1,47,42.9,47,42.9,47Z"></path><path class="cls-1" d="M63.1,40.1h-.3a15.09,15.09,0,0,0-6.7-11.6V19.6a5.7,5.7,0,0,0-5.7-5.7H43.6a5.7,5.7,0,0,0-5.7,5.7v8.9a15.58,15.58,0,0,0,0,25.6V74.4a5.7,5.7,0,0,0,5.7,5.7h6.9a5.7,5.7,0,0,0,5.7-5.7V54.2a15.9,15.9,0,0,0,6.7-11.6h.3a1.16,1.16,0,0,0,1.2-1.2A1.32,1.32,0,0,0,63.1,40.1ZM40.4,27V19.5a3.33,3.33,0,0,1,3.3-3.3h6.8a3.33,3.33,0,0,1,3.3,3.3V27c-.1,0-.1-.1-.2-.1a4.87,4.87,0,0,0-1.1-.4c-.2-.1-.3-.1-.4-.2a2.66,2.66,0,0,0-1.2-.3c-.2,0-.3-.1-.4-.1a5.85,5.85,0,0,0-1.3-.2.76.76,0,0,0-.4-.1,9.15,9.15,0,0,0-1.7-.1,9.7,9.7,0,0,0-1.7.1c-.2,0-.3,0-.3.1-.4.1-.9.1-1.3.2-.2,0-.3.1-.4.1l-1.2.3c-.2.1-.3.2-.4.2a7.6,7.6,0,0,1-1.1.4ZM53.7,55.6V74.5a3.33,3.33,0,0,1-3.3,3.3H43.6a3.33,3.33,0,0,1-3.3-3.3V55.6c.1,0,.1,0,.2.1.4.2.9.3,1.3.5.1,0,.2.1.3.1a16.51,16.51,0,0,0,5.1.9,15.24,15.24,0,0,0,5.1-.9c.1,0,.2-.1.3-.1a9.05,9.05,0,0,1,1.1-.6Zm.2-2.7c-.3.2-.6.3-.9.5s-.3.2-.5.3-.3.2-.5.3a1.07,1.07,0,0,1-.6.2c-.2.1-.3.1-.5.2l-1,.3a1,1,0,0,0-.3.1c-.3.1-.6.1-.9.2h-.3c-.4,0-.8.1-1.2.1A4.87,4.87,0,0,1,46,55h-.3a2.92,2.92,0,0,1-.9-.2c-.1,0-.3,0-.3-.1l-1-.3c-.2-.1-.3-.1-.5-.2l-.6-.3c-.2-.1-.3-.2-.5-.3s-.3-.2-.5-.3a3.55,3.55,0,0,0-.9-.4,13.32,13.32,0,0,1,0-23,3.55,3.55,0,0,1,.9-.4c.2-.1.3-.2.5-.3s.3-.2.5-.3l.6-.3c.2-.1.3-.1.5-.2l1-.3a1,1,0,0,0,.3-.1c.3-.1.6-.1.9-.2H46c.4,0,.8-.1,1.2-.1a4.87,4.87,0,0,1,1.2.1h.3a2.92,2.92,0,0,1,.9.2c.1,0,.3,0,.3.1l1,.3c.2.1.3.1.5.2a1.42,1.42,0,0,0,.6.2c.2.1.3.2.5.3s.3.2.5.3.6.3.9.5a13.4,13.4,0,0,1,6.6,11.5A13.89,13.89,0,0,1,53.9,52.9Z"></path><path class="cls-1" d="M28.1,30.9a1.2,1.2,0,0,0-1.6.6,22.28,22.28,0,0,0-2.2,9.8,23.4,23.4,0,0,0,2.2,9.8,1.23,1.23,0,0,0,1.1.7.9.9,0,0,0,.5-.1,1.2,1.2,0,0,0,.6-1.6,19.49,19.49,0,0,1,0-17.6A1.2,1.2,0,0,0,28.1,30.9Z"></path><path class="cls-1" d="M66,30.9a1.2,1.2,0,0,0-.6,1.6,19.49,19.49,0,0,1,0,17.6,1.2,1.2,0,0,0,.6,1.6.9.9,0,0,0,.5.1,1.36,1.36,0,0,0,1.1-.7,22.28,22.28,0,0,0,2.2-9.8,23.4,23.4,0,0,0-2.2-9.8A1.2,1.2,0,0,0,66,30.9Z"></path><path class="cls-1" d="M22.6,28.3a1.2,1.2,0,0,0-1.6.6,28.23,28.23,0,0,0-2.8,12.5A28.23,28.23,0,0,0,21,53.9a1.23,1.23,0,0,0,1.1.7.9.9,0,0,0,.5-.1,1.2,1.2,0,0,0,.6-1.6,27,27,0,0,1-2.7-11.5,25.57,25.57,0,0,1,2.7-11.5A1.14,1.14,0,0,0,22.6,28.3Z"></path><path class="cls-1" d="M73,28.8a1.21,1.21,0,1,0-2.2,1,27,27,0,0,1,2.7,11.5,25.57,25.57,0,0,1-2.7,11.5,1.2,1.2,0,0,0,.6,1.6.9.9,0,0,0,.5.1,1.36,1.36,0,0,0,1.1-.7,28.23,28.23,0,0,0,2.8-12.5A25.74,25.74,0,0,0,73,28.8Z"></path></svg> 