<?xml version="1.0" encoding="UTF-8"?> <svg xmlns="http://www.w3.org/2000/svg" width="90" height="90" viewBox="0 0 90 90"><g id="Group_779" data-name="Group 779" transform="translate(-3985 -1014)"><rect id="Rectangle_82" data-name="Rectangle 82" width="90" height="90" transform="translate(3985 1014)" fill="#bcbcbc" opacity="0"></rect><g id="Group_146" data-name="Group 146" transform="translate(-84.964 202.362)"><path id="Path_125" data-name="Path 125" d="M415.339,78.717v-7a1.873,1.873,0,0,0-1.87-1.87h-.195V64.722a3.134,3.134,0,0,0-3.131-3.131H409.8a3.134,3.134,0,0,0-3.131,3.131v5.129h-.195a1.873,1.873,0,0,0-1.87,1.87v7a1.873,1.873,0,0,0,1.87,1.87h7a1.874,1.874,0,0,0,1.868-1.871Zm-6.194-13.994a.653.653,0,0,1,.653-.653h.345a.653.653,0,0,1,.653.653v5.128h-1.652Zm3.717,13.387h-5.781V72.328h5.781Z" transform="translate(3718.782 763.174)" fill="#1b54f8" stroke="#fff" stroke-width="0.5"></path><path id="Path_126" data-name="Path 126" d="M195.84,232.08h20.646a1.239,1.239,0,1,0,0-2.477H195.84a1.239,1.239,0,0,0,0,2.477Z" transform="translate(3897.815 619.939)" fill="#1b54f8" stroke="#fff" stroke-width="0.5"></path><path id="Path_127" data-name="Path 127" d="M195.84,176.08h20.646a1.239,1.239,0,1,0,0-2.477H195.84a1.239,1.239,0,0,0,0,2.477Z" transform="translate(3897.815 667.681)" fill="#1b54f8" stroke="#fff" stroke-width="0.5"></path><path id="Path_128" data-name="Path 128" d="M220.616,117.6H195.84a1.239,1.239,0,0,0,0,2.477h24.776a1.239,1.239,0,0,0,0-2.477Z" transform="translate(3897.815 715.425)" fill="#1b54f8" stroke="#fff" stroke-width="0.5"></path><path id="Path_129" data-name="Path 129" d="M195.84,148.08h16.517a1.239,1.239,0,0,0,0-2.477H195.84a1.239,1.239,0,0,0,0,2.477Z" transform="translate(3897.815 691.551)" fill="#1b54f8" stroke="#fff" stroke-width="0.5"></path><path id="Path_130" data-name="Path 130" d="M220.616,257.6H195.84a1.239,1.239,0,0,0,0,2.477h24.776a1.239,1.239,0,0,0,0-2.477Z" transform="translate(3897.815 596.071)" fill="#1b54f8" stroke="#fff" stroke-width="0.5"></path><path id="Path_131" data-name="Path 131" d="M393.08,314.84a1.239,1.239,0,1,1-1.239-1.239,1.238,1.238,0,0,1,1.239,1.239" transform="translate(3730.718 548.328)" fill="#1b54f8" stroke="#fff" stroke-width="0.5"></path><path id="Path_132" data-name="Path 132" d="M365.08,314.84a1.239,1.239,0,1,1-1.239-1.239,1.238,1.238,0,0,1,1.239,1.239" transform="translate(3754.589 548.328)" fill="#1b54f8" stroke="#fff" stroke-width="0.5"></path><path id="Path_133" data-name="Path 133" d="M309.08,314.84a1.239,1.239,0,1,1-1.239-1.239,1.238,1.238,0,0,1,1.239,1.239" transform="translate(3802.33 548.328)" fill="#1b54f8" stroke="#fff" stroke-width="0.5"></path><path id="Path_134" data-name="Path 134" d="M281.08,314.84a1.239,1.239,0,1,1-1.239-1.239,1.238,1.238,0,0,1,1.239,1.239" transform="translate(3826.201 548.328)" fill="#1b54f8" stroke="#fff" stroke-width="0.5"></path><path id="Path_135" data-name="Path 135" d="M197.08,314.84a1.239,1.239,0,1,1-1.239-1.239,1.238,1.238,0,0,1,1.239,1.239" transform="translate(3897.813 548.328)" fill="#1b54f8" stroke="#fff" stroke-width="0.5"></path><path id="Path_136" data-name="Path 136" d="M337.08,314.84a1.239,1.239,0,1,1-1.239-1.239,1.238,1.238,0,0,1,1.239,1.239" transform="translate(3778.459 548.328)" fill="#1b54f8" stroke="#fff" stroke-width="0.5"></path><path id="Path_137" data-name="Path 137" d="M253.08,314.84a1.239,1.239,0,1,1-1.239-1.239,1.238,1.238,0,0,1,1.239,1.239" transform="translate(3850.072 548.328)" fill="#1b54f8" stroke="#fff" stroke-width="0.5"></path><path id="Path_138" data-name="Path 138" d="M225.08,314.84a1.239,1.239,0,1,1-1.239-1.239,1.238,1.238,0,0,1,1.239,1.239" transform="translate(3873.943 548.328)" fill="#1b54f8" stroke="#fff" stroke-width="0.5"></path><path id="Path_139" data-name="Path 139" d="M212.357,397.6H195.84a1.239,1.239,0,0,0,0,2.477h16.517a1.239,1.239,0,0,0,0-2.477Z" transform="translate(3897.815 476.717)" fill="#1b54f8" stroke="#fff" stroke-width="0.5"></path><path id="Path_140" data-name="Path 140" d="M216.486,369.6H195.84a1.239,1.239,0,0,0,0,2.477h20.646a1.239,1.239,0,1,0,0-2.477Z" transform="translate(3897.815 500.588)" fill="#1b54f8" stroke="#fff" stroke-width="0.5"></path><path id="Path_141" data-name="Path 141" d="M157.717,89.761a13.626,13.626,0,1,0,0-27.253c-.279,0-.551.025-.826.042V39.257a5.659,5.659,0,0,0-5.654-5.654H101.972A5.374,5.374,0,0,0,96.6,38.971v2.478a1.239,1.239,0,0,0,1.239,1.239h7.02v57.936a5.66,5.66,0,0,0,5.111,5.626,1.209,1.209,0,0,0,.256.028h49.837a1.258,1.258,0,0,0,.257-.027,5.375,5.375,0,0,0,4.826-5.341V96.78a1.239,1.239,0,0,0-1.239-1.239h-7.02V89.719c.275.016.546.041.826.041Zm11.149-13.626a11.149,11.149,0,1,1-11.149-11.149A11.162,11.162,0,0,1,168.866,76.134Zm-6.194,24.776a2.894,2.894,0,0,1-2.891,2.891h-45.03a5.338,5.338,0,0,0,.846-2.891V98.019h47.074Zm-8.259-5.368H114.36a1.239,1.239,0,0,0-1.239,1.239v4.129a2.888,2.888,0,0,1-2.748,2.876,3.173,3.173,0,0,1-3.034-3.162V38.97a5.335,5.335,0,0,0-.852-2.891h44.749a3.181,3.181,0,0,1,3.176,3.176V62.929a13.607,13.607,0,0,0,0,26.409Z" transform="translate(3981.36 787.034)" fill="#1b54f8" stroke="#fff" stroke-width="0.5"></path><path id="Path_142" data-name="Path 142" d="M453.658,267.5a1.237,1.237,0,0,0,.314,1.27l3.147,3.067-.743,4.331a1.239,1.239,0,0,0,1.8,1.307l3.89-2.046,3.89,2.046a1.239,1.239,0,0,0,1.8-1.307l-.743-4.331,3.147-3.067a1.239,1.239,0,0,0-.686-2.114l-4.349-.632-1.945-3.94a1.239,1.239,0,0,0-2.221,0l-1.945,3.94-4.349.632a1.243,1.243,0,0,0-1,.843Zm6.35.885a1.24,1.24,0,0,0,.933-.677l1.122-2.274,1.122,2.274a1.24,1.24,0,0,0,.933.677l2.509.364-1.815,1.77a1.241,1.241,0,0,0-.357,1.1l.429,2.5-2.245-1.18a1.24,1.24,0,0,0-1.153,0l-2.245,1.18.429-2.5a1.24,1.24,0,0,0-.357-1.1l-1.815-1.77Z" transform="translate(3677.014 592.834)" fill="#1b54f8" stroke="#fff" stroke-width="0.5"></path></g></g></svg> 