<?xml version="1.0" encoding="UTF-8"?> <svg xmlns="http://www.w3.org/2000/svg" width="91" height="91" viewBox="0 0 91 91" fill="none"><mask id="mask0_2_358" style="mask-type:luminance" maskUnits="userSpaceOnUse" x="0" y="0" width="91" height="91"><path d="M90.91 0.690002H0.910004V90.69H90.91V0.690002Z" fill="white"></path></mask><g mask="url(#mask0_2_358)"><path d="M88.95 31.17C88.95 26.23 84.93 22.21 79.99 22.21C75.05 22.21 71.03 26.23 71.03 31.17C71.03 34.53 72.9 37.47 75.65 39V53.02C73.45 49.72 69.71 47.55 65.46 47.55H27C22.3 47.55 18.22 50.21 16.17 54.09V39C18.92 37.47 20.79 34.53 20.79 31.17C20.79 26.23 16.77 22.21 11.83 22.21C6.88999 22.21 2.87 26.23 2.87 31.17C2.87 34.53 4.73999 37.47 7.48999 39V58.39C5.61999 59.17 4.31 61.01 4.31 63.15V75.3C4.31 78.14 6.62999 80.45 9.45999 80.45H14.87C15.7 86.41 20.81 91.01 27 91.01H65.45C71.63 91.01 76.75 86.4 77.58 80.45H82.35C85.19 80.45 87.5 78.13 87.5 75.3V63.15C87.5 61 86.18 59.17 84.32 58.39V39C87.08 37.47 88.95 34.53 88.95 31.17ZM11.85 25.98C14.71 25.98 17.04 28.31 17.04 31.17C17.04 34.03 14.71 36.36 11.85 36.36C8.99001 36.36 6.66 34.03 6.66 31.17C6.66 28.31 8.98001 25.98 11.85 25.98ZM11.85 40.12C12.04 40.12 12.23 40.12 12.42 40.09V57.99H11.29V40.09C11.48 40.09 11.67 40.12 11.86 40.12H11.85ZM8.09 75.3V63.15C8.09 62.39 8.71001 61.76 9.48001 61.76H14.77V76.69H9.48001C8.72001 76.69 8.09 76.06 8.09 75.3ZM73.94 78.76C73.94 83.43 70.14 87.23 65.47 87.23H27C22.33 87.23 18.53 83.43 18.53 78.76V59.79C18.53 55.12 22.33 51.32 27 51.32H65.45C70.12 51.32 73.92 55.12 73.92 59.79V78.76H73.94ZM79.99 25.98C82.85 25.98 85.18 28.31 85.18 31.17C85.18 34.03 82.85 36.36 79.99 36.36C77.13 36.36 74.8 34.03 74.8 31.17C74.8 28.31 77.13 25.98 79.99 25.98ZM83.74 75.3C83.74 76.06 83.12 76.69 82.35 76.69H77.69V61.76H82.35C83.11 61.76 83.74 62.38 83.74 63.15V75.3ZM80.56 57.99H79.43V40.09C79.62 40.09 79.81 40.12 80 40.12C80.19 40.12 80.38 40.12 80.57 40.09V57.99H80.56ZM40.03 64.51C40.03 60.77 36.99 57.73 33.25 57.73C29.51 57.73 26.47 60.77 26.47 64.51C26.47 68.25 29.51 71.29 33.25 71.29C36.99 71.29 40.03 68.25 40.03 64.51ZM33.25 67.53C31.58 67.53 30.23 66.18 30.23 64.51C30.23 62.84 31.58 61.49 33.25 61.49C34.92 61.49 36.27 62.84 36.27 64.51C36.27 66.18 34.92 67.53 33.25 67.53ZM59.23 57.98C55.49 57.98 52.45 61.02 52.45 64.76C52.45 68.5 55.49 71.54 59.23 71.54C62.97 71.54 66.01 68.5 66.01 64.76C66.01 61.02 62.98 57.98 59.23 57.98ZM59.23 67.78C57.56 67.78 56.21 66.43 56.21 64.76C56.21 63.09 57.56 61.74 59.23 61.74C60.9 61.74 62.25 63.09 62.25 64.76C62.25 66.43 60.9 67.78 59.23 67.78ZM56.59 78.55C56.59 79.59 55.75 80.43 54.71 80.43H37.79C36.75 80.43 35.91 79.59 35.91 78.55C35.91 77.51 36.75 76.67 37.79 76.67H54.71C55.75 76.66 56.59 77.5 56.59 78.55Z" fill="#1B54F8" stroke="white" stroke-miterlimit="10"></path></g><mask id="mask1_2_358" style="mask-type:luminance" maskUnits="userSpaceOnUse" x="0" y="0" width="91" height="91"><path d="M90.91 0.690002H0.910004V90.69H90.91V0.690002Z" fill="white"></path></mask><g mask="url(#mask1_2_358)"><path d="M61.99 1.07001H30.25C27.34 1.07001 25.01 3.4 25.01 6.31V38.12C25.01 41.03 27.34 43.36 30.25 43.36H62.06C64.97 43.36 67.3 41.03 67.3 38.12V6.31C67.24 3.4 64.91 1.07001 61.99 1.07001ZM26.47 19.85H34.99C34.84 20.58 34.77 21.38 34.77 22.18C34.77 22.98 34.84 23.78 34.99 24.51H26.47V19.85ZM36.15 22.18C36.15 16.72 40.59 12.21 46.12 12.21C51.65 12.21 56.09 16.72 56.09 22.18C56.09 27.64 51.58 32.15 46.12 32.15C40.66 32.15 36.15 27.64 36.15 22.18ZM61.27 18.39H58.21V2.52H61.27V18.39ZM56.83 18.17C56.17 16.42 55.16 14.89 53.77 13.73V2.52H56.83V18.17ZM57.26 19.85H65.78V24.51H57.26C57.41 23.78 57.48 22.98 57.48 22.18C57.48 21.38 57.48 20.58 57.26 19.85ZM65.78 6.31V18.47H62.72V2.60001C64.47 2.96001 65.78 4.49 65.78 6.31ZM30.26 2.52H52.32V12.64C50.5 11.48 48.39 10.82 46.13 10.82C41.18 10.82 36.96 14.02 35.36 18.46H26.48V6.3C26.47 4.2 28.15 2.52 30.26 2.52ZM61.99 41.83H30.25C28.14 41.83 26.46 40.16 26.46 38.04V25.96H35.34C36.87 30.4 41.09 33.6 46.11 33.6C51.13 33.6 55.28 30.4 56.88 25.96H65.76V38.12C65.78 40.16 64.11 41.83 61.99 41.83Z" fill="#1B54F8" stroke="#1B54F8" stroke-width="0.75" stroke-miterlimit="10"></path><path d="M46.13 28.44C49.55 28.44 52.39 25.67 52.39 22.18C52.39 18.69 49.62 15.92 46.13 15.92C42.64 15.92 39.87 18.69 39.87 22.18C39.87 25.67 42.71 28.44 46.13 28.44ZM46.13 17.37C48.75 17.37 50.93 19.48 50.93 22.17C50.93 24.86 48.82 26.97 46.13 26.97C43.44 26.97 41.33 24.86 41.33 22.17C41.32 19.48 43.51 17.37 46.13 17.37Z" fill="#1B54F8" stroke="#1B54F8" stroke-width="0.75" stroke-miterlimit="10"></path><path d="M32 11.4C33.82 11.4 35.28 9.94 35.28 8.12C35.28 6.3 33.82 4.84 32 4.84C30.18 4.84 28.72 6.3 28.72 8.12C28.72 9.94 30.19 11.4 32 11.4ZM32 6.24001C33.02 6.24001 33.82 7.04 33.82 8.06C33.82 9.08 33.02 9.88 32 9.88C30.98 9.88 30.18 9.08 30.18 8.06C30.19 7.04 30.99 6.24001 32 6.24001Z" fill="#1B54F8" stroke="#1B54F8" stroke-width="0.75" stroke-miterlimit="10"></path></g></svg> 