<?xml version="1.0" encoding="UTF-8"?> <svg xmlns="http://www.w3.org/2000/svg" xmlns:xlink="http://www.w3.org/1999/xlink" width="60" height="60" viewBox="0 0 60 60"><defs><clipPath id="clip-path"><rect id="Rectangle_7" data-name="Rectangle 7" width="60" height="60" transform="translate(180 22)" fill="#fff" stroke="#707070" stroke-width="1"></rect></clipPath></defs><g id="Mask_Group_2" data-name="Mask Group 2" transform="translate(-180 -22)" clip-path="url(#clip-path)"><g id="Group_5" data-name="Group 5" transform="translate(-156.135 354)"><g id="Group_4" data-name="Group 4" transform="translate(344 -322)"><path id="Path_4" data-name="Path 4" d="M6.832,73.681V66.96H0V40.514H37.436V66.96H13.553ZM1.6,65.36H8.432v4.459l4.459-4.459H35.836V42.114H1.6Z" transform="translate(0 -33.681)" fill="#1c54f8" stroke="#fff" stroke-width="0.4"></path><path id="Path_5" data-name="Path 5" d="M68.3,36.089H30.867V9.643H68.3Zm-35.837-1.6H66.7V11.243H32.467Z" transform="translate(-24.035 -9.643)" fill="#1c54f8" stroke="#fff" stroke-width="0.4"></path><g id="Group_2" data-name="Group 2" transform="translate(9.848 9.848)"><path id="Path_6" data-name="Path 6" d="M69.065,67.716H44.492V54.134H69.065Zm-22.973-1.6H67.465V55.734H46.092Z" transform="translate(-44.492 -54.134)" fill="#1c54f8" stroke="#fff" stroke-width="0.4"></path></g><g id="Group_3" data-name="Group 3" transform="translate(18.135 15.839)"><rect id="Rectangle_30" data-name="Rectangle 30" width="1.6" height="1.6" fill="#1c54f8" stroke="#fff" stroke-width="0.4"></rect><rect id="Rectangle_31" data-name="Rectangle 31" width="1.598" height="1.6" transform="translate(3.2)" fill="#1c54f8" stroke="#fff" stroke-width="0.4"></rect><rect id="Rectangle_32" data-name="Rectangle 32" width="1.6" height="1.6" transform="translate(6.398)" fill="#1c54f8" stroke="#fff" stroke-width="0.4"></rect></g></g></g></g></svg> 