<?xml version="1.0" encoding="UTF-8"?> <svg xmlns="http://www.w3.org/2000/svg" xmlns:xlink="http://www.w3.org/1999/xlink" width="60" height="60" viewBox="0 0 60 60"><defs><clipPath id="clip-path"><rect id="Rectangle_10" data-name="Rectangle 10" width="60" height="60" transform="translate(544 22)" fill="#fff" stroke="#707070" stroke-width="1"></rect></clipPath></defs><g id="Mask_Group_5" data-name="Mask Group 5" transform="translate(-544 -22)" clip-path="url(#clip-path)"><g id="Group_11" data-name="Group 11" transform="translate(-22.533 84.466)"><path id="Path_21" data-name="Path 21" d="M23.645,11.1h.7V7.6a2.847,2.847,0,1,1,1.116,0v3.5h.7a1.224,1.224,0,0,1,1.222,1.222v1.946a10.808,10.808,0,0,1,3.284,1.36l1.375-1.375a1.226,1.226,0,0,1,1.729,0l.5.5,2.478-2.478h0a2.845,2.845,0,1,1,.791.791l-2.478,2.478.5.5v0a1.224,1.224,0,0,1,0,1.728l-1.375,1.375v0a10.857,10.857,0,0,1,1.36,3.284h1.944a1.22,1.22,0,0,1,.864.358l0,0,0,0a1.216,1.216,0,0,1,.358.862v.7h3.5a2.846,2.846,0,1,1,0,1.116h-3.5v.7a1.229,1.229,0,0,1-1.222,1.222H35.544a10.831,10.831,0,0,1-1.362,3.284l1.375,1.375a1.221,1.221,0,0,1,0,1.728l-.5.5,2.478,2.478v0a2.849,2.849,0,1,1-.791.793L34.27,35.058l-.5.5h0a1.224,1.224,0,0,1-1.728,0l-1.377-1.377a10.813,10.813,0,0,1-3.284,1.362v1.944a1.223,1.223,0,0,1-1.22,1.222h-.7v3.5a2.846,2.846,0,1,1-1.116,0v-3.5h-.7a1.226,1.226,0,0,1-1.222-1.222V35.539a10.879,10.879,0,0,1-3.284-1.362l-1.375,1.375a1.224,1.224,0,0,1-1.728,0l-.5-.5-2.476,2.478a2.845,2.845,0,1,1-.791-.791l2.478-2.478-.5-.5v0a1.221,1.221,0,0,1,0-1.728l1.375-1.375a10.9,10.9,0,0,1-1.362-3.284H12.324A1.229,1.229,0,0,1,11.1,26.162v-.7H7.6a2.846,2.846,0,1,1,0-1.116h3.5c0-.608-.086-1.185.4-1.6a1.22,1.22,0,0,1,.821-.321H14.27a10.894,10.894,0,0,1,1.36-3.284L14.255,17.76a1.224,1.224,0,0,1,0-1.728l.5-.5L12.274,13.06a2.845,2.845,0,1,1,.791-.791l2.478,2.478.5-.5h0a1.221,1.221,0,0,1,1.728,0l1.375,1.375a10.949,10.949,0,0,1,3.284-1.362V12.319A1.226,1.226,0,0,1,23.645,11.1Zm5.7-5.229a19.4,19.4,0,0,1,5.879,2.438.559.559,0,1,0,.59-.95A20.562,20.562,0,0,0,29.6,4.78a.558.558,0,1,0-.25,1.088ZM41.5,14.582a19.461,19.461,0,0,1,2.438,5.879.559.559,0,0,0,.668.422.559.559,0,0,0,.42-.672,20.586,20.586,0,0,0-2.576-6.218.559.559,0,0,0-.95.59ZM43.94,29.341A19.464,19.464,0,0,1,41.5,35.22a.554.554,0,0,0-.073.424.56.56,0,0,0,1.022.166,20.582,20.582,0,0,0,2.576-6.218.559.559,0,0,0-1.09-.25ZM35.225,41.5a19.441,19.441,0,0,1-5.879,2.438.559.559,0,0,0,.25,1.09,20.571,20.571,0,0,0,6.218-2.578.559.559,0,0,0-.59-.95ZM20.466,43.934A19.4,19.4,0,0,1,14.587,41.5a.559.559,0,0,0-.59.95,20.562,20.562,0,0,0,6.218,2.576.558.558,0,0,0,.25-1.088ZM8.312,35.22a19.461,19.461,0,0,1-2.438-5.879.558.558,0,0,0-1.088.25,20.543,20.543,0,0,0,2.578,6.218.558.558,0,0,0,.948-.59ZM5.873,20.461a19.464,19.464,0,0,1,2.438-5.879.559.559,0,0,0-.95-.59,20.582,20.582,0,0,0-2.576,6.218.558.558,0,0,0,1.088.25ZM14.588,8.306a19.441,19.441,0,0,1,5.879-2.438.559.559,0,0,0-.25-1.09A20.524,20.524,0,0,0,14,7.357a.559.559,0,0,0,.59.95Zm6.761,16.988,2.11,2.11a.56.56,0,0,0,.791,0l4.214-4.214a.559.559,0,0,0-.791-.791l-3.819,3.819L22.14,24.5a.563.563,0,0,0-.4-.172.557.557,0,0,0-.4.164.559.559,0,0,0,.007.8ZM8.964,10.689a1.73,1.73,0,1,0,1.729-1.729A1.733,1.733,0,0,0,8.964,10.689ZM3.582,26.121a1.729,1.729,0,1,0,0-2.44,1.733,1.733,0,0,0,0,2.44Zm7.112,14.722a1.73,1.73,0,1,0-1.729-1.729A1.733,1.733,0,0,0,10.694,40.843Zm15.434,5.383a1.729,1.729,0,1,0-2.44,0h0a1.73,1.73,0,0,0,2.44,0Zm14.72-7.112a1.73,1.73,0,1,0-1.729,1.729A1.733,1.733,0,0,0,40.848,39.113ZM46.23,23.679a1.729,1.729,0,1,0,0,2.44v0a1.73,1.73,0,0,0,0-2.44ZM39.118,8.959a1.73,1.73,0,1,0,1.729,1.729A1.733,1.733,0,0,0,39.118,8.959ZM23.686,3.577a1.729,1.729,0,1,0,2.44,0,1.733,1.733,0,0,0-2.44,0Zm2.481,8.64H23.645a.106.106,0,0,0-.1.1v2.4h0a.561.561,0,0,1-.457.55,9.71,9.71,0,0,0-3.677,1.515.559.559,0,0,1-.739-.045l-1.7-1.7a.1.1,0,0,0-.146,0l-1.782,1.782a.11.11,0,0,0-.009.136l1.705,1.705h0a.56.56,0,0,1,.067.711,9.713,9.713,0,0,0-1.53,3.668.559.559,0,0,1-.556.494h-2.4a.1.1,0,0,0-.1.1v2.522a.1.1,0,0,0,.1.1h2.4v0a.558.558,0,0,1,.548.457A9.8,9.8,0,0,0,16.787,30.4a.559.559,0,0,1-.045.739l-1.7,1.7a.1.1,0,0,0,0,.146l1.782,1.782a.107.107,0,0,0,.136.009l1.705-1.705v0A.56.56,0,0,1,19.38,33a9.773,9.773,0,0,0,3.668,1.53.561.561,0,0,1,.494.556v2.4a.106.106,0,0,0,.1.1h2.522a.106.106,0,0,0,.1-.1v-2.4h0a.558.558,0,0,1,.457-.548A9.8,9.8,0,0,0,30.4,33.02a.559.559,0,0,1,.739.045l1.7,1.7a.1.1,0,0,0,.146,0l1.782-1.782a.1.1,0,0,0,0-.146l-1.7-1.7h0A.56.56,0,0,1,33,30.427a9.773,9.773,0,0,0,1.53-3.668.558.558,0,0,1,.556-.494h2.4a.1.1,0,0,0,.1-.1V23.64a.1.1,0,0,0-.032-.071l0,0-.073-.03h-2.4v0a.558.558,0,0,1-.548-.457A9.743,9.743,0,0,0,33.025,19.4a.559.559,0,0,1,.045-.739l1.7-1.7a.1.1,0,0,0,0-.146l-1.782-1.782a.11.11,0,0,0-.136-.009l-1.705,1.705v0a.56.56,0,0,1-.711.067,9.773,9.773,0,0,0-3.668-1.53.559.559,0,0,1-.494-.556v-2.4a.106.106,0,0,0-.1-.1Zm-1.261,6.623a6.057,6.057,0,1,0,4.287,1.774,6.061,6.061,0,0,0-4.287-1.774Zm-5.078.983a7.184,7.184,0,1,0,5.078-2.1,7.18,7.18,0,0,0-5.078,2.1Z" transform="translate(571.569 -57.42)" fill="#1c54f8" fill-rule="evenodd"></path></g></g></svg> 