<?xml version="1.0" encoding="UTF-8"?> <!-- Generator: Adobe Illustrator 25.2.2, SVG Export Plug-In . SVG Version: 6.00 Build 0) --> <svg xmlns="http://www.w3.org/2000/svg" xmlns:xlink="http://www.w3.org/1999/xlink" version="1.1" id="Layer_1" x="0px" y="0px" viewBox="0 0 80 80" style="enable-background:new 0 0 80 80;" xml:space="preserve"> <style type="text/css"> .st0{fill:#1B54F8;} .st1{fill:none;stroke:#1B54F8;stroke-width:3;stroke-linecap:round;stroke-linejoin:round;} </style> <path class="st0" d="M57.5,23.8c0-0.6-0.5-1.1-1.1-1.1l0,0H23.8c-0.6,0-1.1,0.5-1.1,1.1l0,0v32.6c0,0.6,0.5,1.1,1.1,1.1l0,0h32.6 c0.6,0,1.1-0.5,1.1-1.1l0,0V23.8z M55.3,55.1H24.9V24.9h30.4V55.1z"></path> <path class="st0" d="M71.3,41.1c0.6,2.2,2.9,3.5,5.1,2.9c2.2-0.6,3.5-2.9,2.9-5.1c-0.6-2.2-2.9-3.5-5.1-2.9 c-1.4,0.4-2.5,1.5-2.9,2.9h-6.2v-5.6H68c0.6,0,1.1-0.5,1.2-1.1v-6.4h1.5c0.2,0.7,0.6,1.3,1.1,1.9c1.6,1.6,4.2,1.6,5.9,0 c1.6-1.6,1.6-4.2,0-5.9c-1.6-1.6-4.2-1.6-5.8,0c-0.5,0.5-0.9,1.1-1.1,1.8H68c-0.6,0-1,0.5-1,1.1c0,0,0,0,0,0v6.4h-1.9V20.8 c0-3.2-2.6-5.8-5.8-5.8c0,0,0,0,0,0H48.6v-2h6.7c0.6,0,1.1-0.4,1.1-1c0,0,0,0,0,0V9.3c0.7-0.2,1.3-0.6,1.8-1.1 c1.6-1.6,1.6-4.2,0-5.9s-4.2-1.6-5.9,0c-1.6,1.6-1.6,4.2,0,5.8l0,0c0.5,0.5,1.2,0.9,1.9,1.1v1.5h-6.7c-0.6,0-1.1,0.6-1.1,1.2v3h-5.3 V8.6C43.3,8,44.6,5.8,44,3.5c-0.6-2.2-2.9-3.5-5.1-2.9S35.4,3.5,36,5.7c0.4,1.4,1.5,2.5,2.9,2.9V15h-5.6v-3c0-0.6-0.5-1.1-1.1-1.1 h-6.4V9.3c0.7-0.2,1.3-0.6,1.8-1.1c1.6-1.6,1.7-4.2,0.1-5.8c-1.6-1.6-4.2-1.7-5.8-0.1c-0.8,0.8-1.3,1.9-1.3,3c0,1.1,0.4,2.1,1.2,2.9 c0.5,0.5,1.1,0.9,1.8,1.1V12c0,0.6,0.5,1,1.1,1c0,0,0,0,0,0h6.3v2H20.8c-3.2,0-5.8,2.5-5.8,5.7c0,0,0,0,0,0.1v10.7h-2v-6.7 c0-0.6-0.4-1.1-1-1.1c0,0,0,0,0,0H9.3c-0.2-0.7-0.6-1.3-1.1-1.8c-1.6-1.6-4.2-1.6-5.9,0s-1.6,4.2,0,5.9c1.6,1.6,4.2,1.6,5.9,0l0,0 c0.5-0.5,0.9-1.2,1.1-1.9h1.5v6.7c0,0.6,0.6,1.1,1.2,1.1h3v5.3H8.6c-0.2-0.7-0.6-1.3-1.1-1.8l0,0c-1.6-1.6-4.2-1.6-5.9,0 s-1.6,4.2,0,5.9s4.2,1.6,5.9,0c0,0,0,0,0,0c0.5-0.5,0.9-1.1,1.1-1.8H15v5.6h-3c-0.6,0-1.1,0.5-1.2,1.1v6.4H9.3 c-0.2-0.7-0.6-1.3-1.1-1.8c-1.6-1.6-4.2-1.6-5.8,0s-1.6,4.2,0,5.8c1.6,1.6,4.2,1.6,5.8,0c0.5-0.5,0.9-1.1,1.1-1.8H12 c0.6,0,1-0.5,1-1.1c0,0,0,0,0,0v-6.4h2v10.3c0,3.2,2.6,5.8,5.7,5.8c0,0,0,0,0.1,0h10.6v2h-6.7c-0.6,0-1.1,0.4-1.1,1c0,0,0,0,0,0v2.6 c-0.7,0.2-1.3,0.6-1.8,1.1c-1.6,1.6-1.6,4.2,0,5.9c1.6,1.6,4.2,1.6,5.9,0c1.6-1.6,1.6-4.2,0-5.8l0,0c-0.5-0.5-1.1-0.9-1.8-1.1v-1.5 h6.7c0.6,0,1.1-0.6,1.1-1.2v-3h5.3v6.4c-2.2,0.6-3.5,2.9-2.9,5.1c0.6,2.2,2.9,3.5,5.1,2.9s3.5-2.9,2.9-5.1c-0.4-1.4-1.5-2.5-2.9-2.9 V65h5.6v3c0,0.6,0.5,1.1,1.1,1.2h6.4v1.5c-0.7,0.2-1.3,0.6-1.8,1.1c-1.6,1.6-1.6,4.2,0,5.8c1.6,1.6,4.2,1.6,5.8,0 c1.6-1.6,1.6-4.2,0-5.8c-0.5-0.5-1.1-0.9-1.8-1.1V68c0-0.6-0.5-1-1.1-1c0,0,0,0,0,0h-6.4v-2h10.4c3.2,0,5.8-2.5,5.8-5.7c0,0,0,0,0,0 V48.6H67v6.7c0,0.6,0.4,1.1,1,1.1c0,0,0,0,0,0h2.7c0.2,0.7,0.6,1.3,1.1,1.8c1.6,1.6,4.2,1.6,5.9,0c1.6-1.6,1.6-4.2,0-5.9 c-1.6-1.6-4.2-1.6-5.9,0l0,0c-0.5,0.5-0.9,1.2-1.1,1.8h-1.5v-6.7c0-0.6-0.6-1.1-1.2-1.1h-2.9v-5.3H71.3z M74,38.6 c0.8-0.8,2.1-0.7,2.8,0s0.7,2.1,0,2.8c-0.8,0.8-2.1,0.7-2.8,0c-0.4-0.4-0.6-0.9-0.6-1.4C73.4,39.5,73.6,39,74,38.6z M73.3,23.3 c0.9-0.6,2.2-0.3,2.8,0.6c0.4,0.7,0.4,1.5,0,2.2l0,0c-0.9,0.6-2.2,0.3-2.8-0.6C72.9,24.8,72.9,24,73.3,23.3L73.3,23.3z M53.9,4 c0.8-0.8,2-0.8,2.8-0.1c0.8,0.8,0.8,2,0.1,2.8s-2,0.8-2.8,0.1c0,0,0,0-0.1-0.1l0,0C53.1,6,53.1,4.8,53.9,4C53.9,4,53.9,4,53.9,4z M38,4.7c0-1.1,0.8-2,1.9-2c1.1,0,2,0.8,2,1.9c0,1.1-0.8,2-1.9,2c-0.5,0-1.1-0.2-1.4-0.6C38.3,5.6,38.1,5.2,38,4.7L38,4.7z M22.8,5.4c0-1.1,0.9-1.9,2-1.9c1.1,0,1.9,0.9,1.9,2s-0.9,1.9-2,1.9c-0.5,0-1-0.2-1.4-0.6C23,6.4,22.8,5.9,22.8,5.4L22.8,5.4z M6.7,26.1L6.7,26.1c-0.8,0.8-2,0.8-2.8,0.1c-0.8-0.8-0.8-2-0.1-2.8s2-0.8,2.8-0.1c0,0,0,0,0.1,0.1C7.5,24.1,7.5,25.3,6.7,26.1 C6.7,26.1,6.7,26.1,6.7,26.1z M6,41.4c-0.8,0.7-2,0.7-2.7-0.1c-0.7-0.8-0.7-2,0.1-2.7c0.8-0.7,2-0.7,2.7,0.1C6.4,39,6.6,39.5,6.6,40 C6.6,40.5,6.4,41,6,41.4z M6.7,56.7c-0.6,0.9-1.8,1.2-2.8,0.7s-1.2-1.8-0.7-2.8c0.2-0.3,0.4-0.5,0.7-0.7H4c0.9-0.6,2.2-0.3,2.8,0.6 C7.2,55.2,7.2,56,6.7,56.7L6.7,56.7z M26.1,76c-0.8,0.8-2,0.8-2.8,0.1c-0.8-0.8-0.8-2-0.1-2.8s2-0.8,2.8-0.1c0,0,0,0,0.1,0.1 C26.9,74,26.9,75.2,26.1,76C26.1,76,26.1,76,26.1,76z M42,75.3c0,1.1-0.9,2-2,2s-2-0.9-2-2s0.9-2,2-2S42,74.2,42,75.3z M57.3,74.7 c0,1.1-0.9,1.9-2,1.9c-1.1,0-1.9-0.9-1.9-2c0-1.1,0.9-1.9,2-1.9c0.5,0,1,0.2,1.4,0.6C57.1,73.6,57.3,74.1,57.3,74.7z M63,59.3 c0,2-1.6,3.6-3.6,3.6l0,0H20.8c-2,0-3.6-1.6-3.6-3.6l0,0l0,0V20.8c0-2,1.6-3.6,3.6-3.6l0,0h38.5c2,0,3.6,1.6,3.6,3.6l0,0L63,59.3z M73.3,53.9L73.3,53.9c0.8-0.8,2-0.8,2.8-0.1c0.8,0.8,0.8,2,0.1,2.8s-2,0.8-2.8,0.1c0,0,0,0-0.1-0.1l0,0 C72.6,55.9,72.6,54.7,73.3,53.9L73.3,53.9L73.3,53.9z"></path> <polyline class="st1" points="29.5,40.1 36.3,46.9 52.3,31 "></polyline> </svg> 