<?xml version="1.0" encoding="UTF-8"?> <!-- Generator: Adobe Illustrator 25.2.2, SVG Export Plug-In . SVG Version: 6.00 Build 0) --> <svg xmlns="http://www.w3.org/2000/svg" xmlns:xlink="http://www.w3.org/1999/xlink" version="1.1" id="Layer_1" x="0px" y="0px" viewBox="0 0 80 80" style="enable-background:new 0 0 80 80;" xml:space="preserve"> <style type="text/css"> .st0{fill:#1B54F8;} </style> <path class="st0" d="M72,8H9C8.4,8,8,8.4,8,9v42.2c0,0.6,0.4,1,1,1h6.6v1.5c0,2.2,1.8,4.1,4.1,4.1s4.1-1.8,4.1-4.1v-1.5h5.1v6.6 c0,0.6,0.4,1,1,1h2.5c1.1,0,2,0.9,2,2c0,1.1-0.9,2-2,2h-2.5c-0.6,0-1,0.4-1,1V72c0,0.6,0.4,1,1,1H72c0.6,0,1-0.4,1-1V9 C73,8.4,72.6,8,72,8z M61.3,44.5c-2.2,0-4.1,1.8-4.1,4.1v0v1.5h-5.1v-5.6h1.5c2.2,0,4.1-1.8,4.1-4.1c0-2.2-1.8-4.1-4.1-4.1h-1.5 v-5.6h6.1c0.6,0,1-0.4,1-1v-2.5c0-1.1,0.9-2,2-2c1.1,0,2,0.9,2,2v2.5c0,0.6,0.4,1,1,1H71v19.3h-5.6v-1.5 C65.4,46.4,63.6,44.5,61.3,44.5z M40.5,44.5c-2.2,0-4.1,1.8-4.1,4.1v0v1.5h-5.6v-6.6c0-0.6-0.4-1-1-1h-2.6c-1.1,0-2-0.9-2-2 c0-1.1,0.9-2,2-2h2.5c0.6,0,1-0.4,1-1v-6.6h6.6c0.6,0,1-0.4,1-1v-2.6c0-1.1,0.9-2,2-2c1.1,0,2,0.9,2,2v2.5c0,0.6,0.4,1,1,1h6.6v6.6 c0,0.6,0.4,1,1,1h2.5c1.1,0,2,0.9,2,2c0,1.1-0.9,2-2,2h-2.5c-0.6,0-1,0.4-1,1v6.6h-5.6v-1.5C44.6,46.4,42.8,44.5,40.5,44.5 C40.5,44.5,40.5,44.5,40.5,44.5z M52.2,16.1V10H71v18.8h-5.6v-1.5c-0.1-2.2-2-4-4.3-3.9c-2.1,0.1-3.8,1.8-3.9,3.9v1.5h-5.1v-6.6 c0-0.6-0.4-1-1-1h-2.6c-1.1,0-2-0.9-2-2c0-1.1,0.9-2,2-2h2.5C51.7,17.2,52.2,16.7,52.2,16.1C52.2,16.2,52.2,16.1,52.2,16.1z M30.9,16.1V10h19.3v5.1h-1.5c-2.2,0-4.1,1.8-4.1,4.1s1.8,4.1,4.1,4.1l0,0h1.5v5.6h-5.6v-1.5c0-2.2-1.8-4.1-4.1-4.1 c-2.2,0-4.1,1.8-4.1,4.1v1.5h-5.6v-6.6c0-0.6-0.4-1-1-1h-2.6c-1.1,0-2-0.9-2-2c0-1.1,0.9-2,2-2h2.5C30.4,17.2,30.9,16.7,30.9,16.1 C30.9,16.2,30.9,16.1,30.9,16.1z M10.1,10h18.8v5.1h-1.5c-2.2,0-4.1,1.8-4.1,4.1s1.8,4.1,4.1,4.1h1.5v5.6h-6.1c-0.6,0-1,0.4-1,1v2.5 c0,1.1-0.9,2-2,2c-1.1,0-2-0.9-2-2v-2.5c0-0.6-0.4-1-1-1h-6.6L10.1,10z M22.7,50.1c-0.6,0-1,0.4-1,1v2.5c0,1.1-0.9,2-2,2 c-1.1,0-2-0.9-2-2v-2.5c0-0.6-0.4-1-1-1h-6.6V30.8h5.6v1.5c0,2.2,1.8,4.1,4.1,4.1s4.1-1.8,4.1-4.1v-1.5h5.1v5.6h-1.6 c-2.2,0-4.1,1.8-4.1,4.1s1.8,4.1,4.1,4.1c0,0,0,0,0,0h1.5v5.6L22.7,50.1z M50.2,64.9V71H30.9v-5.1h1.5c2.2,0,4.1-1.8,4.1-4.1 c0-2.2-1.8-4.1-4.1-4.1h-1.5v-5.6h6.6c0.6,0,1-0.4,1-1v-2.6c0-1.1,0.9-2,2-2c1.1,0,2,0.9,2,2v2.5c0,0.6,0.4,1,1,1h6.6v6.6 c0,0.6,0.4,1,1,1h2.5c1.1,0,2,0.9,2,2c0,1.1-0.9,2-2,2h-2.5C50.6,63.8,50.2,64.2,50.2,64.9C50.2,64.8,50.2,64.8,50.2,64.9z M71,71 H52.2v-5.1h1.5c2.2,0,4.1-1.8,4.1-4.1s-1.8-4.1-4.1-4.1c0,0,0,0,0,0h-1.5v-5.6h6.1c0.6,0,1-0.4,1-1v-2.6c0-1.1,0.9-2,2-2 c1.1,0,2,0.9,2,2v2.5c0,0.6,0.4,1,1,1H71V71z"></path> </svg> 