<?xml version="1.0" encoding="UTF-8"?> <!-- Generator: Adobe Illustrator 25.2.2, SVG Export Plug-In . SVG Version: 6.00 Build 0) --> <svg xmlns="http://www.w3.org/2000/svg" xmlns:xlink="http://www.w3.org/1999/xlink" version="1.1" id="Layer_1" x="0px" y="0px" viewBox="0 0 80 80" style="enable-background:new 0 0 80 80;" xml:space="preserve"> <style type="text/css"> .st0{fill:#1B54F8;} </style> <path class="st0" d="M60.7,3c5.4,0,9.7,4.4,9.7,9.7s-4.4,9.7-9.7,9.7h-5.7l1.3-0.8l-1.7-1.4c-4.2-3.4-4.8-9.5-1.5-13.7 C55,4.3,57.7,3,60.7,3 M60.7,1.5c-6.2,0-11.2,5-11.2,11.2c0,3.4,1.6,6.6,4.2,8.8L49.5,24h11.2c6.2,0,11.2-5,11.2-11.2 C71.9,6.6,66.9,1.5,60.7,1.5L60.7,1.5z"></path> <path class="st0" d="M57.3,15.8c0.2,0.2,0.2,0.4,0,0.6c-0.2,0.2-0.4,0.2-0.6,0c0,0,0,0,0,0l-3.3-3.3c-0.2-0.2-0.2-0.4,0-0.6l3.3-3.3 c0.2-0.2,0.4-0.2,0.6,0c0,0,0,0,0,0c0.2,0.2,0.2,0.4,0,0.6l-3,3L57.3,15.8"></path> <path class="st0" d="M64.1,9.7c-0.2-0.2-0.2-0.4,0-0.6s0.4-0.2,0.6,0l3.3,3.3c0.2,0.2,0.2,0.4,0,0.6c0,0,0,0,0,0l-3.3,3.3 c-0.2,0.2-0.4,0.2-0.6,0c0,0,0,0,0,0c-0.2-0.2-0.2-0.4,0-0.6c0,0,0,0,0,0l3-3L64.1,9.7"></path> <path class="st0" d="M59.1,16.7c-0.1,0-0.1,0-0.2,0c-0.2-0.1-0.3-0.3-0.2-0.6c0,0,0,0,0,0l3.2-7c0.1-0.2,0.4-0.3,0.6-0.2 c0.2,0.1,0.3,0.3,0.2,0.6c0,0,0,0,0,0l-3.2,7C59.4,16.6,59.3,16.7,59.1,16.7"></path> <path class="st0" d="M43.2,60.7c0.7,0,1.2-0.5,1.2-1.2V57c0-0.7-0.5-1.2-1.2-1.2c-0.7,0-1.2,0.5-1.2,1.1c0,0,0,0.1,0,0.1v2.5 C42,60.1,42.5,60.6,43.2,60.7z"></path> <path class="st0" d="M38.4,62.8c0.7,0,1.2-0.5,1.2-1.2v-4.7c0-0.7-0.5-1.2-1.2-1.2c-0.6,0-1.2,0.5-1.2,1.1c0,0,0,0.1,0,0.1v4.7 C37.2,62.3,37.8,62.8,38.4,62.8L38.4,62.8z"></path> <path class="st0" d="M33.7,60.7c0.7,0,1.2-0.5,1.2-1.2V57c0.1-0.7-0.4-1.3-1.1-1.3c-0.7-0.1-1.3,0.4-1.3,1.1c0,0.1,0,0.1,0,0.2v2.5 C32.5,60.1,33,60.7,33.7,60.7z"></path> <path class="st0" d="M38.4,41.8c2.4,0,4.4-2,4.4-4.4c0-2.4-2-4.4-4.4-4.4C36,33,34,35,34,37.4C34,39.9,36,41.8,38.4,41.8 C38.4,41.8,38.4,41.8,38.4,41.8z M38.4,35.4c1.1,0,2,0.9,2,2s-0.9,2-2,2s-2-0.9-2-2S37.3,35.4,38.4,35.4z"></path> <path class="st0" d="M67.2,67.1h-2.9V39.1c0-2.5-2-4.5-4.5-4.5H47.6v-1c0-3-1.1-6-3.1-8.3L41,21.1c-0.6-0.7-1.6-1.2-2.6-1.1 c-1,0-1.9,0.4-2.5,1.1l-3.6,4.1c-2,2.3-3.1,5.3-3.1,8.3v1H17.1c-2.5,0-4.5,2-4.5,4.5V67H9.7c-0.9,0-1.6,0.7-1.6,1.6c0,0,0,0,0,0V74 c0,2.5,2,4.5,4.5,4.5h51.8c2.5,0,4.5-2,4.5-4.5v-5.4C68.8,67.7,68,67.1,67.2,67.1z M31.7,41.2v-7.7c0-2.5,0.9-4.9,2.5-6.8l3.6-4.2 c0.2-0.2,0.4-0.3,0.7-0.2c0.3,0,0.5,0.1,0.7,0.3l3.6,4.1c1.6,1.9,2.5,4.3,2.5,6.8v7.7c0,0.5,0.3,0.9,0.7,1.1l0.6,0.3 c1.6,0.7,2.6,2.4,2.4,4.2L48.5,51c-1.7-0.8-3.5-1.3-5.4-1.7c-0.7-0.1-1.3,0.3-1.4,1c0,0,0,0.1,0,0.1v1.1h-6.6v-1.1 c0-0.4-0.2-0.7-0.5-0.9c-0.3-0.3-0.6-0.4-1-0.3c-1.8,0.3-3.6,0.9-5.3,1.6L28,46.9c-0.1-1.8,0.8-3.4,2.4-4.2l0.6-0.3 C31.4,42.2,31.7,41.7,31.7,41.2z M15,39.1c0-1.2,0.9-2.1,2.1-2.1h12.1v3.5c-2.4,1.2-3.9,3.8-3.7,6.5l0.5,4.3 c0.1,0.7,0.5,1.4,1.1,1.8c0.6,0.4,1.4,0.4,2.1,0.1c1.1-0.5,2.3-1,3.5-1.3c0.1,1.1,1,2,2.2,2h7.2c1.1,0,2.1-0.9,2.2-2 c1.2,0.3,2.4,0.7,3.5,1.2c0.7,0.3,1.5,0.3,2.1-0.1c0.6-0.4,1-1,1.1-1.7l0.5-4.3c0.2-2.7-1.3-5.3-3.7-6.5V37h12.1 c1.2,0,2.1,1,2.1,2.2c0,0,0,0,0,0v27.9H44.8c-0.8,0-1.5,0.7-1.5,1.5v0.7h-9.5v-0.7c0-0.8-0.7-1.5-1.5-1.5H15V39.1z M66.3,74.1 c0,1.1-0.8,2-1.9,2c0,0,0,0-0.1,0H12.6c-1.1,0-2-0.9-2-2c0,0,0,0,0-0.1v-4.6h20.8c0,1.2,1,2.2,2.2,2.2h9.8c1.2,0,2.2-1,2.2-2.2h20.8 V74.1z"></path> </svg> 