<?xml version="1.0" encoding="UTF-8"?> <svg xmlns="http://www.w3.org/2000/svg" width="60" height="60" viewBox="0 0 60 60" fill="none"><g clip-path="url(#clip0_19_482)"><mask id="mask0_19_482" style="mask-type:luminance" maskUnits="userSpaceOnUse" x="0" y="0" width="60" height="60"><path d="M60 0H0.397354V60H60V0Z" fill="white"></path></mask><g mask="url(#mask0_19_482)"><path fill-rule="evenodd" clip-rule="evenodd" d="M5.46358 43.6H0.695364C0.298013 43.6 0 43.3 0 42.9C0 42.5 0.298013 42.2 0.695364 42.2H5.96026C6.25828 42.2 6.55629 42.4 6.65563 42.7L7.25166 44.5L9.23841 39.2C9.33775 38.8 9.7351 38.6 10.1325 38.8C10.3311 38.9 10.4305 39 10.5298 39.2L11.6225 42.3H16.3907C16.7881 42.3 17.0861 42.6 17.0861 43C17.0861 43.4 16.7881 43.7 16.3907 43.7H11.1258C10.8278 43.7 10.5298 43.5 10.4305 43.2L9.93377 41.4L7.94702 46.7C7.84768 47.1 7.45033 47.3 7.05298 47.1C6.8543 47 6.75497 46.9 6.65563 46.7L5.46358 43.6ZM37.8477 14.6C37.8477 14.2 38.1457 13.9 38.543 13.9C40.2318 13.9 41.5232 15.2 41.5232 16.9C41.5232 17.3 41.2252 17.6 40.8278 17.6C40.4305 17.6 40.1325 17.3 40.1325 16.9C40.1325 16 39.4371 15.3 38.543 15.3C38.1457 15.3 37.8477 15 37.8477 14.6ZM34.2715 16.9V24.7C34.2715 27.1 36.0596 29 38.4437 29C40.8278 29 42.7152 27.2 42.7152 24.8C42.7152 24.7 42.7152 24.7 42.7152 24.6V16.8C42.7152 14.4 40.9272 12.5 38.543 12.5C36.1589 12.5 34.2715 14.3 34.2715 16.7C34.2715 16.8 34.2715 16.8 34.2715 16.9ZM38.543 30.3C41.6225 30.3 44.2053 27.8 44.2053 24.6V16.8C44.2053 13.7 41.6225 11.2 38.543 11.2C35.4636 11.2 32.9801 13.7 32.9801 16.8V24.6C32.8808 27.8 35.3642 30.3 38.543 30.3ZM46.7881 24.7C46.7881 29 43.5099 32.6 39.2384 33V36C39.2384 36.4 38.9404 36.7 38.543 36.7C38.1457 36.7 37.8477 36.4 37.8477 36V33C33.5762 32.6 30.298 29 30.298 24.7C30.298 24.3 30.596 24 30.9934 24C31.3907 24 31.6887 24.3 31.6887 24.7C31.6887 28.5 34.7682 31.6 38.543 31.6C42.3179 31.6 45.3974 28.5 45.3974 24.7C45.3974 24.3 45.6954 24 46.0927 24C46.4901 24 46.7881 24.3 46.7881 24.7ZM56.1258 35.2C61.3907 25.3 57.7152 12.9 47.8808 7.59999C41.7219 4.29999 34.2715 4.39999 28.2119 7.89999C23.0464 10.8 19.5695 16.1 18.8742 22C20.0662 25.3 19.9669 27.6 18.5762 29L14.2053 35.3L17.9801 36.2C18.2781 36.3 18.5762 36.6 18.4768 36.9L18.2781 40.2L19.4702 41C20.0662 41.4 20.1656 42.1 19.7682 42.7C19.7682 42.7 19.7682 42.7 19.7682 42.8L19.1722 43.6L20.1656 44.2C20.4636 44.4 20.6623 44.8 20.6623 45.2V48.3C20.6623 48.5 20.8609 48.7 21.0596 48.7H26.1258C26.8212 48.7 27.5166 49.1 27.8146 49.8C28.3113 51.1 28.8079 52.5 29.106 53.8H50.9603C50.3642 52.3 49.6689 50.5 49.0728 48.5C48.7748 47.6 48.8742 46.6 49.4702 45.8C50.1656 44.6 50.9603 43.5 51.755 42.4C53.4437 40.3 54.9338 37.9 56.1258 35.2ZM53.3444 9.99999C46.3907 3.19999 35.8609 1.89999 27.5166 6.69999C21.9536 9.89999 18.1788 15.6 17.4834 22C17.4834 22.2 17.4834 22.4 17.5828 22.5C18.5762 25.3 18.5762 27.2 17.5828 28.1L17.4834 28.2L12.9139 34.8C12.5166 35.3 12.6159 36.1 13.2119 36.5C13.3113 36.6 13.5099 36.6 13.6093 36.7L17.0861 37.6L16.8874 40.4C16.8874 40.8 17.0861 41.3 17.3841 41.5L18.4768 42.2L17.8808 43C17.4834 43.5 17.5828 44.3 18.0795 44.7C18.0795 44.7 18.0795 44.7 18.1788 44.7L19.2715 45.4V48.4C19.2715 49.4 20.0662 50.2 21.0596 50.2H26.1258C26.3245 50.2 26.4238 50.3 26.5232 50.4C27.1192 51.8 27.5166 53.3 27.9139 54.8C28.0132 55.1 28.3113 55.3 28.6093 55.3H52.053C52.4503 55.3 52.7483 55 52.7483 54.6C52.7483 54.5 52.7483 54.4 52.649 54.3C51.755 52.3 51.0596 50.3 50.3642 48.2C50.1656 47.7 50.2649 47.1 50.5629 46.7C51.2583 45.6 52.053 44.4 52.8477 43.4C54.6358 41 56.1258 38.5 57.4172 35.8C61.8874 27.3 60.298 16.8 53.3444 9.99999Z" fill="#1B54F8"></path></g></g><defs><clipPath id="clip0_19_482"><rect width="60" height="60" fill="white"></rect></clipPath></defs></svg> 