<?xml version="1.0" encoding="UTF-8"?> <svg xmlns="http://www.w3.org/2000/svg" xmlns:xlink="http://www.w3.org/1999/xlink" width="90" height="90" viewBox="0 0 90 90"><defs><clipPath id="clip-path"><rect id="Rectangle_1" data-name="Rectangle 1" width="90" height="90" transform="translate(176 117)" fill="#fff"></rect></clipPath></defs><g id="Mask_Group_1" data-name="Mask Group 1" transform="translate(-176 -117)" clip-path="url(#clip-path)"><g id="noun-speech-recognition-2985137" transform="translate(178 119)"><path id="Path_182" data-name="Path 182" d="M501.64,348.417a9.651,9.651,0,0,0,9.64-9.64V321.64a9.64,9.64,0,0,0-19.28,0v17.137A9.651,9.651,0,0,0,501.64,348.417Zm-7.5-26.777a7.5,7.5,0,1,1,15,0v17.137a7.5,7.5,0,1,1-15,0Z" transform="translate(-458.796 -294.863)" fill="#1b54f8"></path><path id="Path_183" data-name="Path 183" d="M460.114,600.02a1.071,1.071,0,0,0-1.071,1.071,12.941,12.941,0,1,1-25.881,0,1.071,1.071,0,0,0-2.142,0,15.092,15.092,0,0,0,14.012,15.029v7.461h-5.355a1.071,1.071,0,1,0,0,2.142h12.853a1.071,1.071,0,1,0,0-2.142h-5.355V616.12a15.092,15.092,0,0,0,14.012-15.029A1.071,1.071,0,0,0,460.114,600.02Z" transform="translate(-403.259 -557.175)" fill="#1b54f8"></path><path id="Path_184" data-name="Path 184" d="M204.618,163.915a1.071,1.071,0,0,0,0-2.142h-9.64v-15h5.581a2.678,2.678,0,1,0,0-2.142h-5.581v-8.569a5.362,5.362,0,0,0-5.355-5.355h-8.563v-9.64a1.071,1.071,0,0,0-2.142,0v9.64h-15v-9.64a1.071,1.071,0,1,0-2.141,0v9.64h-15V125.13a2.678,2.678,0,1,0-2.142,0v5.581h-8.573a5.362,5.362,0,0,0-5.355,5.355v8.569h-9.64a1.071,1.071,0,0,0,0,2.142h9.64v15h-9.64a1.071,1.071,0,1,0,0,2.142h9.64v15h-5.581a2.678,2.678,0,1,0,0,2.142h5.581v8.569a5.362,5.362,0,0,0,5.355,5.355h8.569v5.593a2.677,2.677,0,1,0,2.142-.005v-5.588h15v9.64a1.071,1.071,0,1,0,2.142,0v-9.64h15v9.64a1.071,1.071,0,1,0,2.142,0v-9.64h8.569a5.362,5.362,0,0,0,5.355-5.355v-8.569h9.64a1.071,1.071,0,1,0,0-2.142h-9.64v-15Zm-11.782,25.706a3.217,3.217,0,0,1-3.213,3.213H136.068a3.217,3.217,0,0,1-3.213-3.213V136.066a3.217,3.217,0,0,1,3.213-3.213h53.555a3.217,3.217,0,0,1,3.213,3.213Z" transform="translate(-120.002 -120)" fill="#1b54f8"></path></g></g></svg> 