<?xml version="1.0" encoding="UTF-8"?> <svg xmlns="http://www.w3.org/2000/svg" id="Layer_1" data-name="Layer 1" viewBox="0 0 80 80"><defs><style>.cls-1{opacity:0;}.cls-2{fill:#fff;}.cls-3{fill:#1b54f8;}</style></defs><g class="cls-1"><rect class="cls-2" width="80" height="80"></rect></g><path class="cls-3" d="M41.76,12.54A31.74,31.74,0,0,0,19.05,65.86l.94,1,1.17-.75A38.3,38.3,0,0,1,42,59.9a36.62,36.62,0,0,1,20.07,6l1.21.79,1-1.09A32.54,32.54,0,0,0,72,44.3C72,26.49,58.72,12.54,41.76,12.54ZM62.58,62.36A39.9,39.9,0,0,0,42,56.6a41.48,41.48,0,0,0-21.37,6A28.43,28.43,0,0,1,41.76,15.84c15.11,0,26.94,12.5,26.94,28.46A29.34,29.34,0,0,1,62.58,62.36Z"></path><path class="cls-3" d="M55.47,27.21,45.7,37a6.77,6.77,0,0,0-4.33-1.58,7,7,0,1,0-.17,14h.17a6.89,6.89,0,0,0,6.93-6.86.65.65,0,0,0,0-.14,7,7,0,0,0-.57-2.8L57.81,29.54ZM41.37,46.13a3.72,3.72,0,1,1-.17-7.43h.17a3.72,3.72,0,0,1,0,7.43Z"></path><path class="cls-3" d="M41.57,25.2A16.85,16.85,0,0,1,49.1,27l2.45-2.46a19.84,19.84,0,0,0-9.93-2.62A20.83,20.83,0,0,0,20.77,42.45c0,.23,0,.44,0,.67h3.3c0-.23,0-.45,0-.67A17.49,17.49,0,0,1,41.57,25.2Z"></path></svg> 