<?xml version="1.0" encoding="UTF-8"?> <svg xmlns="http://www.w3.org/2000/svg" id="Layer_1" data-name="Layer 1" viewBox="0 0 94 94"><defs><style>.cls-1{fill:#1b54f8;stroke:#1b54f8;stroke-miterlimit:10;stroke-width:0.5px;}</style></defs><path class="cls-1" d="M60.2,47.1H55.3l-2.1-5.6a1.33,1.33,0,0,0-1.1-.8,1.17,1.17,0,0,0-1.1.8L47,52.6,42.1,36.9a1.08,1.08,0,0,0-1.1-.8,1.23,1.23,0,0,0-1.1.7l-4,10.4H31a1.1,1.1,0,1,0,0,2.2h5.7a1.23,1.23,0,0,0,1.1-.7l3.1-8L46,56.5a1.08,1.08,0,0,0,1.1.8h0a1.17,1.17,0,0,0,1.1-.8l4.1-11.3,1.3,3.4a1.17,1.17,0,0,0,1.1.8h5.7a1.11,1.11,0,0,0,1.1-1.1A1.3,1.3,0,0,0,60.2,47.1Zm9,7.5H67.8V39.4h1.4a1.1,1.1,0,1,0,0-2.2H67.8V31.4a6.36,6.36,0,0,0-5.5-6.3L59,13.8a1.08,1.08,0,0,0-1.1-.8H33.6a1.08,1.08,0,0,0-1.1.8L29.2,25a6.36,6.36,0,0,0-5.5,6.3V62.7A6.36,6.36,0,0,0,29.2,69l3.3,11.2a1.08,1.08,0,0,0,1.1.8H57.9a1.08,1.08,0,0,0,1.1-.8L62.3,69a6.36,6.36,0,0,0,5.5-6.3V56.9h1.4a1.11,1.11,0,0,0,1.1-1.1A1.2,1.2,0,0,0,69.2,54.6ZM34.4,15.2H57l2.9,9.7H31.6ZM57,78.8H34.4l-2.9-9.7H59.8Zm8.5-16.1a4.12,4.12,0,0,1-4.1,4.1H30.1A4.12,4.12,0,0,1,26,62.7V31.3a4.12,4.12,0,0,1,4.1-4.1H61.5a4.12,4.12,0,0,1,4.1,4.1V62.7Z"></path></svg> 