<?xml version="1.0" encoding="UTF-8"?> <svg xmlns="http://www.w3.org/2000/svg" id="Layer_1" data-name="Layer 1" viewBox="0 0 80 80"><defs><style>.cls-1{fill:#4a4a4a;fill-opacity:0;stroke:#1b54f8;stroke-width:2px;}</style></defs><g id="start-up"><path id="Shape" class="cls-1" d="M17.36,43c4.23-6.11,6.7-10.05,8.52-13-7,.62-13.63,9.33-13.63,9.33L16.84,44A5.19,5.19,0,0,1,17.36,43Zm18,19.54,4.59,4.62s8.66-6.71,9.28-13.7c-2.9,1.82-6.81,4.31-12.9,8.55A4.17,4.17,0,0,1,35.31,62.53Zm-7-2.38c-.79.32-1.56.66-2.37.93a36.82,36.82,0,0,1-6.63,1.52c-.95.14-1.9.25-2.85.32l0-.35a43,43,0,0,1,1.1-6.86c.28-1.08.62-2.13,1-3.19.23-.65.52-1.28.81-1.9l-.51-.51A12.56,12.56,0,0,0,16,52.91a18.58,18.58,0,0,0-2.79,5.35A22.59,22.59,0,0,0,12,64.67a5.63,5.63,0,0,0,0,.92,2.13,2.13,0,0,0,1.45,1.71,3,3,0,0,0,.94.09,21,21,0,0,0,5.84-.92,16.18,16.18,0,0,0,8.94-6L28.71,60ZM66.56,12.56A1.92,1.92,0,0,0,65.21,12h0c-6.13.12-21.27,1.27-29.3,9.36a43.72,43.72,0,0,0-7.44,9.76c-1.87,3-4.43,7.14-9.12,13.92a1.92,1.92,0,0,0,.22,2.44L31.81,59.83a1.9,1.9,0,0,0,2.44.22c6.74-4.71,10.84-7.28,13.84-9.16a43.83,43.83,0,0,0,9.71-7.48C65.86,35.32,67,20.11,67.11,14A1.94,1.94,0,0,0,66.56,12.56ZM52.32,35.87a6.31,6.31,0,0,1-9,0,6.39,6.39,0,0,1,0-9,6.31,6.31,0,0,1,9,0,6.39,6.39,0,0,1,0,9Z"></path></g></svg> 