<?xml version="1.0" encoding="UTF-8"?> <svg xmlns="http://www.w3.org/2000/svg" id="Layer_1" data-name="Layer 1" viewBox="0 0 80 80"><defs><style>.cls-1{fill:#1b54f8;}</style></defs><path class="cls-1" d="M56.05,14.73a.78.78,0,0,0-.35.07c-2.4,1.4-4.9,2.8-7.3,4.2a.67.67,0,0,0-.4.7V20a21.85,21.85,0,0,0-8-1.5A21.33,21.33,0,0,0,32.1,20c0-.4,0-.7-.4-.9-2.4-1.4-4.9-2.8-7.3-4.2a.83.83,0,0,0-.36-.08,1.41,1.41,0,0,0-.44.08c-2.4,1.4-4.9,2.8-7.3,4.2a.84.84,0,0,0-.4.7v8.5a.55.55,0,0,0,.4.6c1.4.8,2.8,1.6,4.1,2.4A20.06,20.06,0,0,0,18.5,40a20.82,20.82,0,0,0,1.9,8.8c-1.4.8-2.7,1.6-4.1,2.3a.84.84,0,0,0-.4.7v8.5a.55.55,0,0,0,.4.6c2.4,1.4,4.8,2.8,7.3,4.2a.75.75,0,0,0,.9,0l7.2-4.2a.67.67,0,0,0,.4-.7V60a21.55,21.55,0,0,0,15.8,0v.3a.55.55,0,0,0,.4.6c2.4,1.4,4.9,2.8,7.3,4.2a.75.75,0,0,0,.9,0l7.2-4.2a.84.84,0,0,0,.4-.7V51.7a.55.55,0,0,0-.4-.6c-1.4-.8-2.7-1.6-4.1-2.4a21.33,21.33,0,0,0,0-17.6c1.4-.8,2.7-1.6,4.1-2.4l.08,0c.17,0,.32-.26.32-.52V19.7a.55.55,0,0,0-.4-.6l-2.4-1.4a.84.84,0,0,0-.39-.1.66.66,0,0,0-.61.4.69.69,0,0,0,.3,1l1.3.7L56,23.1l-5.9-3.4C52,18.6,54,17.4,56,16.3l1.7,1a.6.6,0,0,0,.35.1A.75.75,0,0,0,58.4,16l-2-1.2a.81.81,0,0,0-.35-.07ZM24,23.1l-5.9-3.4c2-1.1,3.9-2.2,5.9-3.4,2,1.1,3.9,2.3,5.9,3.4L24,23.1Zm.05,10.15a.81.81,0,0,0,.45-.15l7.2-4.2a.67.67,0,0,0,.4-.7V21.6A19.58,19.58,0,0,1,40,20a20.41,20.41,0,0,1,8,1.6v6.6a.55.55,0,0,0,.4.6c2.4,1.4,4.9,2.8,7.3,4.2a.75.75,0,0,0,.9,0l1.9-1.1A25.21,25.21,0,0,1,60,40a18.57,18.57,0,0,1-1.7,8l-1.9-1.1a.82.82,0,0,0-.35-.08.78.78,0,0,0-.35.08c-2.4,1.4-4.9,2.8-7.3,4.2a.67.67,0,0,0-.4.7v6.6A20.41,20.41,0,0,1,40,60a19.58,19.58,0,0,1-7.9-1.6V51.8a.55.55,0,0,0-.4-.6l-2.5-1.5a.6.6,0,0,0-.35-.1A.75.75,0,0,0,28.5,51l1.4.8L24,55.2l-5.9-3.4c2-1.1,3.9-2.3,5.9-3.4l1.6.9a.84.84,0,0,0,.39.1.66.66,0,0,0,.61-.4.69.69,0,0,0-.3-1l-1.9-1.1a.8.8,0,0,0-.36-.08,1.41,1.41,0,0,0-.44.08L21.7,48A20.53,20.53,0,0,1,20,40a20.16,20.16,0,0,1,1.7-8l1.9,1.1a.81.81,0,0,0,.45.15ZM56.7,31.2V24.4L62.6,21v6.8c-2,1.1-3.9,2.3-5.9,3.4Zm-1.4,0c-2-1.1-3.9-2.3-5.9-3.4V21l5.9,3.4v6.8Zm-30.6,0V24.4L30.6,21v6.8c-2,1.1-3.9,2.3-5.9,3.4Zm-1.4,0c-2-1.2-4-2.3-5.9-3.4V21l5.9,3.4v6.8ZM56,55.2l-5.9-3.4c2-1.1,3.9-2.3,5.9-3.4,2,1.1,3.9,2.3,5.9,3.4L56,55.2Zm.7,8V56.4L62.6,53v6.8c-2,1.1-3.9,2.3-5.9,3.4Zm-1.4,0c-2-1.1-3.9-2.3-5.9-3.4V53l5.9,3.4v6.8Zm-30.6,0V56.4L30.6,53v6.8c-2,1.1-3.9,2.3-5.9,3.4Zm-1.5,0c-2-1.1-3.9-2.3-5.9-3.4V53l5.9,3.4v6.8Z"></path><path class="cls-1" d="M38.4,31A7.38,7.38,0,0,0,31,38.4a7,7,0,0,0,1.8,4.8l-1.6,1.6a.54.54,0,0,0,.4.9h4a7.36,7.36,0,0,0,6.1,3.2h6.9A.54.54,0,0,0,49,48l-1.8-1.6A7.44,7.44,0,0,0,45,35a7.32,7.32,0,0,0-6.6-4ZM32.7,44.7l1.1-1.1a.43.43,0,0,0,.1-.7A6.36,6.36,0,0,1,32,38.4a6.3,6.3,0,1,1,6.28,6.3H32.7Zm5.68,1h0a7.4,7.4,0,0,0,7.2-9.1,6.32,6.32,0,0,1,.5,9.4.48.48,0,0,0,0,.7l1.1,1.1c0,.1-5.6.1-5.6.1a6.39,6.39,0,0,1-4.8-2.2h1.58Z"></path><path class="cls-1" d="M41.6,35.8H35.3a.5.5,0,0,0,0,1h6.3a.5.5,0,1,0,0-1Z"></path><path class="cls-1" d="M41.6,37.9H35.3a.47.47,0,0,0-.5.5c-.1.3.2.5.5.5h6.3a.5.5,0,0,0,0-1Z"></path><path class="cls-1" d="M41.6,40.1H35.3a.47.47,0,0,0-.5.5c-.1.2.2.5.5.5h6.3a.5.5,0,0,0,0-1Z"></path></svg> 