<?xml version="1.0" encoding="UTF-8"?> <svg xmlns="http://www.w3.org/2000/svg" id="Layer_1" data-name="Layer 1" viewBox="0 0 80 80"><defs><style>.cls-1{fill:#1b54f8;}</style></defs><polygon class="cls-1" points="43.8 19.1 39.2 19.1 39.2 20.6 43.8 20.6 43.8 19.1 43.8 19.1"></polygon><polygon class="cls-1" points="37.6 19.1 36.1 19.1 36.1 20.6 37.6 20.6 37.6 19.1 37.6 19.1"></polygon><path class="cls-1" d="M31.9,56.3h-.5a1.47,1.47,0,0,0-1.5,1.5v1.5a1.47,1.47,0,0,0,1.5,1.5h.5a1.61,1.61,0,0,0,1.1-.5l1.9-1.9L33,56.7a1.37,1.37,0,0,0-1.1-.4Zm-.5,3.1V57.9h.5l.8.8-.8.7Z"></path><path class="cls-1" d="M40.8,56.3H39.3a1.47,1.47,0,0,0-1.5,1.5v1.5a1.47,1.47,0,0,0,1.5,1.5h1.5a1.47,1.47,0,0,0,1.5-1.5V57.8a1.54,1.54,0,0,0-1.5-1.5Zm-1.6,3.1V57.9h1.5v1.5Z"></path><path class="cls-1" d="M48.5,56.3H48a1.61,1.61,0,0,0-1.1.5L45,58.7l1.9,1.9a1.61,1.61,0,0,0,1.1.5h.5A1.47,1.47,0,0,0,50,59.6V58.1a1.52,1.52,0,0,0-1.5-1.8Zm-.4,3.1-.8-.8.8-.8h.5v1.5h-.5v.1Z"></path><path class="cls-1" d="M27.6,33a7,7,0,1,0,7,7,7,7,0,0,0-7-7Zm0,12.4A5.4,5.4,0,1,1,33,40a5.38,5.38,0,0,1-5.4,5.4Z"></path><path class="cls-1" d="M27.6,36.1a3.9,3.9,0,0,0,0,7.8A4,4,0,0,0,31.5,40a3.9,3.9,0,0,0-3.9-3.9Zm0,6.2A2.3,2.3,0,1,1,29.9,40a2.26,2.26,0,0,1-2.3,2.3Z"></path><path class="cls-1" d="M50.8,16H29.2a3.9,3.9,0,0,0-3.9,3.9v8.5h-.6l-.5,2.2a4.88,4.88,0,0,0-.7.3l-1.9-1.2-4.1,4.1,1.1,1.9a4.88,4.88,0,0,1-.3.7l-2.3.7v5.8l2.2.6c.1.2.2.5.3.7l-1.1,1.9,4.1,4.1L23.4,49c.2.1.5.2.7.3l.5,2.2h.6V60a3.9,3.9,0,0,0,3.9,3.9H50.8A3.9,3.9,0,0,0,54.7,60V50.1a9.3,9.3,0,0,0,0-18.6V19.9A3.9,3.9,0,0,0,50.8,16Zm-24,3.9a2.26,2.26,0,0,1,2.3-2.3H50.8a2.26,2.26,0,0,1,2.3,2.3V31.7a9.36,9.36,0,0,0-1.6.4V22.3H28.4v6.2H26.9V19.9Zm3.1,8.6V23.8H50v9a9.16,9.16,0,0,0,0,16v4.3H29.9V51.6h.6l.6-2.2a4.88,4.88,0,0,0,.7-.3l1.9,1.2,4.1-4.1-1.1-2a4.88,4.88,0,0,1,.3-.7l2.2-.6V37.1L37,36.5c-.1-.2-.2-.5-.3-.7l1.1-1.9-4.1-4.1L31.8,31a4.88,4.88,0,0,1-.7-.3l-.6-2.2Zm-6.7,4.2.4-.2a6.94,6.94,0,0,1,1.3-.5l.4-.1.5-1.8h3.4l.5,1.8.4.1a6.94,6.94,0,0,1,1.3.5l.4.2,1.6-1,2.4,2.4-1,1.6.2.4a6.94,6.94,0,0,1,.5,1.3l.1.4,1.8.5v3.4l-1.8.5-.1.4a6.94,6.94,0,0,1-.5,1.3v.4l1,1.6-2.4,2.4-1.6-1-.4.2a6.94,6.94,0,0,1-1.3.5l-.4.1-.5,1.8H25.9v.2l-.5-1.8-.4-.2a6.94,6.94,0,0,1-1.3-.5l-.4-.2-1.6,1L19.3,46l1-1.6-.3-.5a6.94,6.94,0,0,1-.5-1.3l-.1-.4-1.8-.5V38.3l1.8-.5.1-.4a6.94,6.94,0,0,1,.5-1.3l.2-.4-1-1.6,2.4-2.4,1.6,1ZM54.8,48.6a7.85,7.85,0,0,1-5.3-2.1,17.41,17.41,0,0,1-1.2-1.4A7.79,7.79,0,0,1,47,40.8a8.75,8.75,0,0,1,.2-1.6,7.48,7.48,0,0,1,2.1-3.9,10.63,10.63,0,0,1,1.1-.9c.1-.1.3-.2.4-.3a3.79,3.79,0,0,1,1.3-.6c.1,0,.2-.1.4-.1a8.52,8.52,0,0,1,2.3-.4,7.8,7.8,0,0,1,7.3,5.1c.1.1.1.2.1.4a8.52,8.52,0,0,1,.4,2.3v.5c-.2,0-.2.1-.2.2a6.88,6.88,0,0,1-.2,1.3c-.1.3-.2.7-.3,1a4.88,4.88,0,0,1-.3.7c0,.1-.1.2-.2.3s-.1.2-.2.3A5.26,5.26,0,0,1,60,46.5l-.3.3c-.1.1-.2.2-.3.2a7.55,7.55,0,0,1-4.6,1.6ZM28.4,54.7H51.6V49.5a7.49,7.49,0,0,0,1.6.4V60.1a2.26,2.26,0,0,1-2.3,2.3H29.2a2.26,2.26,0,0,1-2.3-2.3V51.6h1.5v3.1Z"></path><path class="cls-1" d="M51.84,36.47a.43.43,0,0,0-.44.43v7.8a.43.43,0,0,0,.44.43.45.45,0,0,0,.16,0l7.8-3.9c.3-.2.3-.6,0-.7l-7.8-4a.45.45,0,0,0-.16,0Zm1.3,6.36a.43.43,0,0,1-.44-.43V39.1a.49.49,0,0,1,.48-.43.27.27,0,0,1,.12,0l3.3,1.7c.3.2.3.6,0,.7l-3.3,1.7a.45.45,0,0,1-.16,0Z"></path></svg> 