<?xml version="1.0" encoding="UTF-8"?> <svg xmlns="http://www.w3.org/2000/svg" id="Layer_1" data-name="Layer 1" viewBox="0 0 80 80"><defs><style>.cls-1{fill:#1b54f8;}</style></defs><path class="cls-1" d="M54.2,33.2h1.9a4.44,4.44,0,0,1,4.4,4.4v2.8h1.9V37.6a6.23,6.23,0,0,0-6.2-6.2H54.3v1.8Z"></path><path class="cls-1" d="M23.5,31.3H21.6a6.25,6.25,0,0,0-6.3,6.2V57.8A6.25,6.25,0,0,0,21.6,64H56.2a6.23,6.23,0,0,0,6.2-6.2V50.6H60.5v7.3a4.44,4.44,0,0,1-4.4,4.4H21.6a4.44,4.44,0,0,1-4.4-4.4V37.6a4.44,4.44,0,0,1,4.4-4.4h1.9V31.3Z"></path><polyline class="cls-1" points="16.9 58.9 46 58.9 46 57 16.9 57"></polyline><polyline class="cls-1" points="51.6 59.2 60.6 59.2 60.6 56.7 51.6 56.7"></polyline><polyline class="cls-1" points="20.3 32.9 20.3 34.2 22.2 34.2 22.2 32.9"></polyline><path class="cls-1" d="M20.3,50.9v2.4h1.9V50.9Zm0-4.7v2.4h1.9V46.2Zm0-4.8v2.4h1.9V41.4Zm0-4.8V39h1.9V36.6Z"></path><polyline class="cls-1" points="20.3 55.7 20.3 57 22.2 57 22.2 55.7"></polyline><path class="cls-1" d="M62.1,50.7v-.9H53.3a.68.68,0,0,1-.7-.7V45.4a.68.68,0,0,1,.7-.7h8.8a.68.68,0,0,1,.7.7v3.7a.68.68,0,0,1-.7.7v1.8A2.65,2.65,0,0,0,64.7,49V45.3a2.65,2.65,0,0,0-2.6-2.6H53.3a2.65,2.65,0,0,0-2.6,2.6V49a2.65,2.65,0,0,0,2.6,2.6h8.8Z"></path><path class="cls-1" d="M56.9,47.2h-.5a.8.8,0,1,1-.8-.8.79.79,0,0,1,.8.8h1a1.7,1.7,0,1,0-1.7,1.7,1.75,1.75,0,0,0,1.7-1.7Z"></path><path class="cls-1" d="M51.2,39.4l-1-2.5c.2-.5.4-.9.6-1.4l2.5-1a1.44,1.44,0,0,0,.9-1.1,14.08,14.08,0,0,0,.1-2,14.8,14.8,0,0,0-.1-2,1.44,1.44,0,0,0-.9-1.1l-2.5-1c-.2-.5-.4-1-.6-1.4l1-2.5A1.4,1.4,0,0,0,51,22a14.85,14.85,0,0,0-2.8-2.8,1.4,1.4,0,0,0-1.4-.2l-2.5,1c-.5-.2-.9-.4-1.4-.6l-1-2.5a1.44,1.44,0,0,0-1.1-.9,12.75,12.75,0,0,0-3.9,0,1.44,1.44,0,0,0-1.1.9l-1,2.5c-.5.2-1,.4-1.4.6l-2.5-1a1.4,1.4,0,0,0-1.4.2A14.85,14.85,0,0,0,26.7,22a1.4,1.4,0,0,0-.2,1.4l1,2.5c-.2.5-.4.9-.6,1.4l-2.5,1a1.44,1.44,0,0,0-.9,1.1,14.08,14.08,0,0,0-.1,2,14.8,14.8,0,0,0,.1,2,1.44,1.44,0,0,0,.9,1.1l2.5,1c.2.5.4,1,.6,1.4l-1,2.5a1.4,1.4,0,0,0,.2,1.4,14.85,14.85,0,0,0,2.8,2.8,1.4,1.4,0,0,0,1.4.2l2.5-1c.5.2.9.4,1.4.6l1,2.5a1.44,1.44,0,0,0,1.1.9,14.08,14.08,0,0,0,2,.1,14.8,14.8,0,0,0,2-.1,1.44,1.44,0,0,0,1.1-.9l1-2.5c.5-.2,1-.4,1.4-.6l2.5,1a1.4,1.4,0,0,0,1.4-.2,14.85,14.85,0,0,0,2.8-2.8A1.39,1.39,0,0,0,51.2,39.4Zm-2.1-6.3a1.42,1.42,0,0,0-.8.9,6.67,6.67,0,0,1-.9,2.1,1.67,1.67,0,0,0-.1,1.2l1,2.3a11.41,11.41,0,0,1-1.1,1.1l-2.3-1a1.26,1.26,0,0,0-1.2.1,9.49,9.49,0,0,1-2.1.9,1.22,1.22,0,0,0-.9.8l-1,2.3H38.1l-1-2.3a1.42,1.42,0,0,0-.9-.8,7.84,7.84,0,0,1-2.1-.9,1.67,1.67,0,0,0-1.2-.1l-2.3,1a11.41,11.41,0,0,1-1.1-1.1l1-2.3a1.26,1.26,0,0,0-.1-1.2,9.49,9.49,0,0,1-.9-2.1,1.22,1.22,0,0,0-.8-.9l-2.3-1V30.5l2.3-1a1.42,1.42,0,0,0,.8-.9,6.67,6.67,0,0,1,.9-2.1,1.67,1.67,0,0,0,.1-1.2l-1-2.3a11.41,11.41,0,0,1,1.1-1.1l2.3,1a1.29,1.29,0,0,0,1.2-.1,9.49,9.49,0,0,1,2.1-.9,1.22,1.22,0,0,0,.9-.8l1-2.3h1.6l1,2.3a1.42,1.42,0,0,0,.9.8,7.84,7.84,0,0,1,2.1.9,1.67,1.67,0,0,0,1.2.1l2.3-1A11.41,11.41,0,0,1,48.3,23l-1,2.3a1.26,1.26,0,0,0,.1,1.2,9.49,9.49,0,0,1,.9,2.1,1.22,1.22,0,0,0,.8.9l2.3,1v1.6Z"></path><path class="cls-1" d="M38.8,24.4a7,7,0,1,0,7,7A6.9,6.9,0,0,0,38.8,24.4Zm0,11.2A4.2,4.2,0,1,1,43,31.4,4.1,4.1,0,0,1,38.8,35.6Z"></path></svg> 