<?xml version="1.0" encoding="UTF-8"?> <svg xmlns="http://www.w3.org/2000/svg" xmlns:xlink="http://www.w3.org/1999/xlink" width="60" height="60" viewBox="0 0 60 60"><defs><clipPath id="clip-path"><rect id="Rectangle_41" data-name="Rectangle 41" width="60" height="60" transform="translate(78 51)" fill="#fff" stroke="#707070" stroke-width="1"></rect></clipPath></defs><g id="Mask_Group_34" data-name="Mask Group 34" transform="translate(-78 -51)" clip-path="url(#clip-path)"><g id="Group_49" data-name="Group 49" transform="translate(86.027 57.02)"><path id="Path_179" data-name="Path 179" d="M43.448,26.433a12.166,12.166,0,1,0-24.332,0c0,3.9,1.68,6.568,3.458,9.387a30.68,30.68,0,0,1,3.265,6.267,2.275,2.275,0,0,0-.957,1.85V49.05a2.284,2.284,0,0,0,2.281,2.281h.6a3.762,3.762,0,0,0,7.042,0h.6a2.283,2.283,0,0,0,2.281-2.281V43.937a2.275,2.275,0,0,0-.957-1.85,30.706,30.706,0,0,1,3.265-6.267C41.768,33,43.448,30.336,43.448,26.433ZM31.282,52.5a2.511,2.511,0,0,1-2.108-1.172h4.218A2.514,2.514,0,0,1,31.282,52.5Zm5.133-3.453A1.016,1.016,0,0,1,35.4,50.064H27.163a1.016,1.016,0,0,1-1.014-1.014V43.937a1.016,1.016,0,0,1,1.014-1.014H35.4a1.016,1.016,0,0,1,1.014,1.014Zm-.885-7.382c-.043,0-.085-.013-.129-.013H31.916v-6.6l.733,0h0a.633.633,0,0,0,.633-.63,1.214,1.214,0,0,1,2.116-.865.633.633,0,0,0,.447.187.745.745,0,0,0,.449-.183l2-1.98a.634.634,0,0,0,0-.9,1.225,1.225,0,0,1-.3-1.347,1.291,1.291,0,0,1,1.2-.792.633.633,0,0,0,.62-.63l.015-2.782a.633.633,0,0,0-.63-.637,1.214,1.214,0,0,1-.865-2.116.634.634,0,0,0,0-.9l-1.98-2a.633.633,0,0,0-.447-.187.558.558,0,0,0-.449.183,1.214,1.214,0,0,1-2.107-.884.633.633,0,0,0-.63-.636l-2.812-.014h0a.634.634,0,0,0-.633.63,1.215,1.215,0,0,1-2.116.865.633.633,0,0,0-.447-.187.583.583,0,0,0-.449.183l-2,1.98a.633.633,0,0,0,0,.9,1.214,1.214,0,0,1-.877,2.107h-.011a.633.633,0,0,0-.633.63l-.014,2.813a.633.633,0,0,0,.63.636,1.215,1.215,0,0,1,.865,2.116.634.634,0,0,0,0,.9l1.979,2a.633.633,0,0,0,.9,0,1.215,1.215,0,0,1,2.108.885.633.633,0,0,0,.63.636l.813,0v6.608H27.163c-.044,0-.086.01-.129.013a32.179,32.179,0,0,0-3.389-6.524c-1.751-2.776-3.263-5.174-3.263-8.712a10.9,10.9,0,0,1,21.8,0c0,3.538-1.512,5.936-3.263,8.712A32.213,32.213,0,0,0,35.53,41.668ZM25.711,28.784A2.449,2.449,0,0,0,24,27.318l.008-1.692a2.464,2.464,0,0,0,1.55-3.694l1.2-1.191a2.465,2.465,0,0,0,3.709-1.516l1.692.008a2.465,2.465,0,0,0,3.694,1.55l1.191,1.2a2.465,2.465,0,0,0,1.515,3.708l-.009,1.674a2.506,2.506,0,0,0-1.734,1.5A2.449,2.449,0,0,0,37,31.081l-1.2,1.192a2.465,2.465,0,0,0-3.708,1.515l-.809,0h-.005l-.878,0a2.466,2.466,0,0,0-3.695-1.551l-1.191-1.2A2.446,2.446,0,0,0,25.711,28.784Zm9.895,16.478a.633.633,0,0,1-.633.633H27.591a.633.633,0,0,1,0-1.267h7.381A.633.633,0,0,1,35.606,45.262Zm0,2.464a.633.633,0,0,1-.633.633H27.591a.633.633,0,1,1,0-1.267h7.381A.633.633,0,0,1,35.606,47.726ZM15.278,27.369a.634.634,0,0,1-.1.172s0,.011-.009.016l-1.9,2.2a.633.633,0,0,1-.959-.827l.995-1.154H9.774a.633.633,0,1,1,0-1.267h3.531l-.995-1.153a.633.633,0,0,1,.959-.827l1.9,2.2s0,.01.008.014a.637.637,0,0,1,.1.174c0,.008,0,.017.008.025a.582.582,0,0,1,0,.4C15.283,27.351,15.282,27.36,15.278,27.369Zm.347-14.986a.633.633,0,0,1,.9-.9l2.5,2.5.112-1.519a.634.634,0,1,1,1.264.093l-.214,2.9a.616.616,0,0,1-.03.114.646.646,0,0,1-.023.09.631.631,0,0,1-.328.328.608.608,0,0,1-.087.023.594.594,0,0,1-.117.03l-2.9.214-.047,0a.634.634,0,0,1-.046-1.265l1.519-.112Zm31.312-.9a.633.633,0,0,1,0,.9l-2.5,2.5,1.519.112a.634.634,0,0,1-.046,1.265l-.047,0-2.9-.214a.661.661,0,0,1-.114-.029.652.652,0,0,1-.09-.023.628.628,0,0,1-.328-.328.6.6,0,0,1-.023-.088.634.634,0,0,1-.03-.117l-.214-2.9a.634.634,0,0,1,1.264-.093l.112,1.519,2.5-2.5A.633.633,0,0,1,46.938,11.486ZM28.668,9.13a.633.633,0,1,1,.827-.959l1.153.995V5.634a.633.633,0,1,1,1.267,0V9.166l1.154-1a.633.633,0,0,1,.827.959l-2.2,1.9s-.011.005-.016.009a.615.615,0,0,1-.172.1l-.027.008a.624.624,0,0,1-.2.035h0a.631.631,0,0,1-.2-.035l-.025-.008a.624.624,0,0,1-.174-.1s-.01,0-.014-.008ZM53.423,27.143a.634.634,0,0,1-.633.633H49.258l1,1.154a.633.633,0,0,1-.959.827l-1.9-2.2s-.005-.011-.009-.016a.607.607,0,0,1-.1-.172l-.009-.027a.633.633,0,0,1-.035-.2v0a.628.628,0,0,1,.035-.2c0-.009,0-.017.008-.025a.632.632,0,0,1,.1-.173s0-.01.008-.014l1.9-2.2a.633.633,0,0,1,.959.827l-.995,1.153H52.79A.634.634,0,0,1,53.423,27.143ZM46.938,41.9a.633.633,0,1,1-.9.9l-2.5-2.5-.112,1.519a.634.634,0,0,1-.631.587l-.047,0a.634.634,0,0,1-.585-.678l.214-2.9a.614.614,0,0,1,.03-.117.537.537,0,0,1,.351-.416.644.644,0,0,1,.09-.023.616.616,0,0,1,.114-.03l2.9-.214a.634.634,0,0,1,.093,1.264l-1.519.112ZM20.18,38.829l.214,2.9a.634.634,0,0,1-.585.678l-.047,0a.633.633,0,0,1-.631-.587L19.019,40.3l-2.5,2.5a.633.633,0,1,1-.9-.9l2.5-2.5L16.6,39.294A.634.634,0,0,1,16.7,38.03l2.9.214a.614.614,0,0,1,.117.03.607.607,0,0,1,.087.023.629.629,0,0,1,.328.328.646.646,0,0,1,.023.09A.729.729,0,0,1,20.18,38.829Zm11.1-7.427a4.9,4.9,0,1,0-4.9-4.9A4.9,4.9,0,0,0,31.282,31.4Zm0-8.526a3.63,3.63,0,1,1-3.63,3.63A3.634,3.634,0,0,1,31.282,22.877Z" transform="translate(-9.141 -5.001)" fill="#1c54f8"></path></g></g></svg> 