<?xml version="1.0" encoding="UTF-8"?> <svg xmlns="http://www.w3.org/2000/svg" xmlns:xlink="http://www.w3.org/1999/xlink" width="90" height="90" viewBox="0 0 90 90"><defs><clipPath id="clip-path"><rect id="Rectangle_29" data-name="Rectangle 29" width="90" height="90" transform="translate(348 870)" fill="#fff"></rect></clipPath></defs><g id="Mask_Group_8" data-name="Mask Group 8" transform="translate(-348 -870)" clip-path="url(#clip-path)"><g id="Group_43" data-name="Group 43" transform="translate(359.858 870.304)"><path id="Path_117" data-name="Path 117" d="M440.491,41.721h-12.21a6.156,6.156,0,0,1-6.149-6.147V23.362a1.813,1.813,0,0,1,3.1-1.282l16.545,16.545a1.813,1.813,0,0,1-1.283,3.1ZM425.759,27.74v7.833a2.524,2.524,0,0,0,2.522,2.521h7.833Z" transform="translate(-376.755 -20.635)" fill="#05f"></path><path id="Path_117_-_Outline" data-name="Path 117 - Outline" d="M439.9,42.045h-12.21a7.068,7.068,0,0,1-7.061-7.06V22.774a2.717,2.717,0,0,1,1.683-2.518h0a2.732,2.732,0,0,1,2.966.592L441.83,37.393a2.728,2.728,0,0,1-.364,4.162l.42.49Zm-16.892-20.1a.9.9,0,0,0-.554.832V34.986a5.242,5.242,0,0,0,5.237,5.235H439.9a.9.9,0,0,0,.638-1.538L424,22.137a.9.9,0,0,0-.637-.263A.917.917,0,0,0,423.011,21.943Zm14.717,16.475H427.693a3.437,3.437,0,0,1-3.434-3.433V24.95Zm-11.645-9.064v5.631a1.611,1.611,0,0,0,1.61,1.608h5.63Z" transform="translate(-376.167 -20.047)" fill="#fff"></path><path id="Path_118" data-name="Path 118" d="M216.555,108.577H164.213a6.154,6.154,0,0,1-6.147-6.147V27.681a6.154,6.154,0,0,1,6.147-6.147h40.131a1.812,1.812,0,0,1,1.282.531l16.545,16.545a1.813,1.813,0,0,1,.531,1.282v62.537a6.155,6.155,0,0,1-6.148,6.147ZM164.213,25.162a2.523,2.523,0,0,0-2.52,2.521V102.43a2.523,2.523,0,0,0,2.52,2.521h52.342a2.525,2.525,0,0,0,2.522-2.521V40.645L203.594,25.162Z" transform="translate(-157.154 -20.622)" fill="#05f"></path><path id="Path_118_-_Outline" data-name="Path 118 - Outline" d="M215.967,108.9H163.625a7.067,7.067,0,0,1-7.059-7.06V27.094a7.067,7.067,0,0,1,7.059-7.06h40.131a2.707,2.707,0,0,1,1.927.8l16.545,16.545a2.708,2.708,0,0,1,.8,1.927v62.537a7.068,7.068,0,0,1-7.059,7.06ZM163.625,21.858a5.241,5.241,0,0,0-5.235,5.235v74.748a5.241,5.241,0,0,0,5.235,5.235h52.342a5.242,5.242,0,0,0,5.236-5.235V39.3a.9.9,0,0,0-.264-.637L204.393,22.123a.9.9,0,0,0-.637-.264Zm52.342,83.417H163.625a3.436,3.436,0,0,1-3.432-3.433V27.095a3.436,3.436,0,0,1,3.432-3.433h39.759L219.4,39.679v62.163A3.437,3.437,0,0,1,215.967,105.275ZM163.625,25.486a1.61,1.61,0,0,0-1.608,1.608v74.748a1.61,1.61,0,0,0,1.608,1.608h52.342a1.611,1.611,0,0,0,1.61-1.608V40.435L202.629,25.486Z" transform="translate(-156.566 -20.034)" fill="#fff"></path><path id="Path_119" data-name="Path 119" d="M320.674,109.2h-10.34a1.813,1.813,0,0,1-1.813-1.814V97.043a1.813,1.813,0,0,1,1.814-1.814h10.34a1.813,1.813,0,0,1,1.814,1.814v10.341A1.812,1.812,0,0,1,320.674,109.2Zm-8.527-3.626h6.714V98.857h-6.714Z" transform="translate(-282.274 -81.909)" fill="#05f"></path><path id="Path_119_-_Outline" data-name="Path 119 - Outline" d="M320.086,109.522h-10.34a2.729,2.729,0,0,1-2.726-2.726V96.456a2.729,2.729,0,0,1,2.726-2.726h10.34a2.729,2.729,0,0,1,2.726,2.726V106.8A2.728,2.728,0,0,1,320.086,109.522ZM309.746,95.554a.9.9,0,0,0-.9.9V106.8a.9.9,0,0,0,.9.9h10.34a.9.9,0,0,0,.9-.9V96.456a.9.9,0,0,0-.9-.9Zm9.439,10.341h-8.538V97.357h8.538Zm-6.714-1.824h4.889v-4.89h-4.889Z" transform="translate(-281.686 -81.321)" fill="#fff"></path><path id="Path_120" data-name="Path 120" d="M320.677,256.584h-10.34a1.813,1.813,0,0,1-1.813-1.814V244.43a1.813,1.813,0,0,1,1.813-1.814h10.34a1.813,1.813,0,0,1,1.814,1.814v10.341A1.814,1.814,0,0,1,320.677,256.584Zm-8.527-3.627h6.714v-6.714H312.15Z" transform="translate(-282.277 -204.477)" fill="#05f"></path><path id="Path_120_-_Outline" data-name="Path 120 - Outline" d="M320.09,256.909H309.75a2.729,2.729,0,0,1-2.726-2.726V243.842a2.729,2.729,0,0,1,2.726-2.726h10.34a2.729,2.729,0,0,1,2.726,2.726v10.341A2.73,2.73,0,0,1,320.09,256.909ZM309.75,242.94a.9.9,0,0,0-.9.9v10.341a.9.9,0,0,0,.9.9h10.34a.9.9,0,0,0,.9-.9V243.842a.9.9,0,0,0-.9-.9Zm9.439,10.341H310.65v-8.539h8.538Zm-6.714-1.824h4.889v-4.89h-4.889Z" transform="translate(-281.689 -203.889)" fill="#fff"></path><path id="Path_121" data-name="Path 121" d="M320.677,403.974h-10.34a1.813,1.813,0,0,1-1.813-1.813V391.82a1.813,1.813,0,0,1,1.813-1.813h10.34a1.813,1.813,0,0,1,1.814,1.813v10.341A1.814,1.814,0,0,1,320.677,403.974Zm-8.527-3.627h6.714v-6.714H312.15Z" transform="translate(-282.277 -327.049)" fill="#05f"></path><path id="Path_121_-_Outline" data-name="Path 121 - Outline" d="M320.09,404.3H309.75a2.729,2.729,0,0,1-2.726-2.726V391.232a2.729,2.729,0,0,1,2.726-2.726h10.34a2.729,2.729,0,0,1,2.726,2.726v10.341A2.73,2.73,0,0,1,320.09,404.3ZM309.75,390.33a.9.9,0,0,0-.9.9v10.341a.9.9,0,0,0,.9.9h10.34a.9.9,0,0,0,.9-.9V391.232a.9.9,0,0,0-.9-.9Zm9.439,10.341H310.65v-8.539h8.538Zm-6.714-1.824h4.889v-4.89h-4.889Z" transform="translate(-281.689 -326.461)" fill="#fff"></path><path id="Path_122" data-name="Path 122" d="M215.016,153.7h-3.405a7.769,7.769,0,0,1-7.76-7.759V133.7a7.768,7.768,0,0,1,7.76-7.759h3.405a1.813,1.813,0,1,1,0,3.627h-3.405a4.138,4.138,0,0,0-4.133,4.133v12.237a4.138,4.138,0,0,0,4.133,4.131h3.405a1.814,1.814,0,1,1,0,3.627Z" transform="translate(-195.229 -107.449)" fill="#05f"></path><path id="Path_122_-_Outline" data-name="Path 122 - Outline" d="M214.429,154.021h-3.405a8.682,8.682,0,0,1-8.672-8.671V133.113a8.682,8.682,0,0,1,8.672-8.671h3.405a2.726,2.726,0,1,1,0,5.451h-3.405a3.225,3.225,0,0,0-3.221,3.221v12.237a3.224,3.224,0,0,0,3.221,3.219h3.405a2.726,2.726,0,1,1,0,5.451Zm-3.405-27.755a6.855,6.855,0,0,0-6.848,6.847V145.35a6.855,6.855,0,0,0,6.848,6.847h3.43a.9.9,0,0,0-.025-1.8h-3.405a5.05,5.05,0,0,1-5.046-5.044V133.114a5.051,5.051,0,0,1,5.046-5.045h3.405a.9.9,0,0,0,0-1.8Z" transform="translate(-194.642 -106.861)" fill="#fff"></path><path id="Path_123" data-name="Path 123" d="M424.674,301.078h-3.8a1.814,1.814,0,1,1,0-3.627h3.8a4.138,4.138,0,0,0,4.131-4.133V281.082a4.138,4.138,0,0,0-4.131-4.133h-3.8a1.814,1.814,0,1,1,0-3.627h3.8a7.767,7.767,0,0,1,7.758,7.759v12.237a7.767,7.767,0,0,1-7.758,7.76Z" transform="translate(-374.2 -230.013)" fill="#05f"></path><path id="Path_123_-_Outline" data-name="Path 123 - Outline" d="M424.086,301.4h-3.8a2.726,2.726,0,1,1,0-5.451h3.8a3.224,3.224,0,0,0,3.219-3.221V280.494a3.224,3.224,0,0,0-3.219-3.22h-3.8a2.726,2.726,0,1,1,0-5.451h3.8a8.681,8.681,0,0,1,8.67,8.671V292.73A8.684,8.684,0,0,1,425,301.355v.048Zm-3.8-3.627a.9.9,0,1,0,0,1.8h3.8a6.855,6.855,0,0,0,6.846-6.848V280.493a6.854,6.854,0,0,0-6.846-6.847h-3.8a.9.9,0,0,0,0,1.8h3.8a5.05,5.05,0,0,1,5.043,5.045v12.237a5.05,5.05,0,0,1-5.043,5.045Z" transform="translate(-373.613 -229.425)" fill="#fff"></path></g></g></svg> 