<?xml version="1.0" encoding="UTF-8"?> <!-- Generator: Adobe Illustrator 25.2.2, SVG Export Plug-In . SVG Version: 6.00 Build 0) --> <svg xmlns="http://www.w3.org/2000/svg" xmlns:xlink="http://www.w3.org/1999/xlink" version="1.1" id="Layer_1" x="0px" y="0px" viewBox="0 0 80 80" style="enable-background:new 0 0 80 80;" xml:space="preserve"> <style type="text/css"> .st0{fill:#1B54F8;} </style> <path class="st0" d="M56.8,74H23.2c-3.4,0-6.2-2.8-6.2-6.2c0,0,0,0,0,0V21c0-3.4,2.8-6.1,6.1-6.1h3.7c0.6,0,1,0.4,1,1 c0,1.9,1.5,3.4,3.4,3.4h0h17.6c1.9,0,3.4-1.5,3.4-3.4c0-0.6,0.4-1,1-1h3.7c3.4,0,6.2,2.7,6.2,6.1c0,0,0,0,0,0v46.8 C63,71.2,60.3,74,56.8,74C56.8,74,56.8,74,56.8,74z M23.2,16.9c-2.3,0-4.1,1.8-4.1,4.1v46.9c0,2.3,1.8,4.1,4.1,4.1h33.7 c2.3,0,4.1-1.8,4.1-4.1V21c0-2.3-1.8-4.1-4.1-4.1h-2.7c-0.5,2.5-2.7,4.4-5.3,4.4H31.2c-2.6,0-4.8-1.8-5.3-4.4L23.2,16.9z"></path> <path class="st0" d="M48.8,21.2H31.2c-3,0.1-5.5-2.2-5.6-5.2s2.2-5.5,5.2-5.6c0.2,0,0.3,0,0.5,0h3.5c0.6-2.9,3.4-4.9,6.4-4.3 c2.2,0.4,3.9,2.1,4.3,4.3h3.5c3-0.1,5.5,2.2,5.6,5.2s-2.2,5.5-5.2,5.6C49.1,21.3,48.9,21.3,48.8,21.2z M31.2,12.5 c-1.9-0.1-3.4,1.3-3.5,3.2c-0.1,1.9,1.3,3.4,3.2,3.5c0.1,0,0.2,0,0.4,0h17.6c1.9,0.1,3.4-1.3,3.5-3.2c0.1-1.9-1.3-3.4-3.2-3.5 c-0.1,0-0.2,0-0.4,0h-4.4c-0.6,0-1-0.4-1-1c0-1.9-1.5-3.4-3.4-3.4c-1.9,0-3.4,1.5-3.4,3.4c0,0.6-0.4,1-1,1L31.2,12.5z"></path> <path class="st0" d="M52.5,60.8c-2.6,0-4.7-2.1-4.7-4.7s2.1-4.7,4.7-4.7c2.6,0,4.7,2.1,4.7,4.7v0C57.1,58.7,55,60.8,52.5,60.8z M52.5,53.5c-1.5,0-2.6,1.2-2.6,2.6s1.2,2.6,2.6,2.6c1.5,0,2.6-1.2,2.6-2.6l0,0C55.1,54.7,53.9,53.5,52.5,53.5z"></path> <path class="st0" d="M39.3,41.8c-2.6,0-4.7-2.1-4.6-4.7c0-2.6,2.1-4.7,4.7-4.6c2.6,0,4.6,2.1,4.7,4.7C44,39.7,41.9,41.8,39.3,41.8 C39.3,41.8,39.3,41.8,39.3,41.8z M39.3,34.4c-1.5,0-2.6,1.2-2.6,2.6c0,1.5,1.2,2.6,2.6,2.6c1.5,0,2.6-1.2,2.6-2.6c0,0,0,0,0,0 C41.9,35.6,40.7,34.4,39.3,34.4z"></path> <path class="st0" d="M27.3,60.8c-2.6,0-4.7-2.1-4.7-4.7c0-2.6,2.1-4.7,4.7-4.7c2.6,0,4.7,2.1,4.7,4.7C32,58.7,29.9,60.8,27.3,60.8 C27.3,60.8,27.3,60.8,27.3,60.8z M27.3,53.5c-1.5,0-2.6,1.2-2.6,2.6s1.2,2.6,2.6,2.6c1.5,0,2.6-1.2,2.6-2.6l0,0 C29.9,54.7,28.7,53.5,27.3,53.5z"></path> <path class="st0" d="M52.5,53.5c-0.6,0-1-0.4-1-1v-4.9H27.8v4.8c0,0.6-0.5,1-1,1s-1-0.5-1-1v-5.9c0-0.6,0.4-1,1-1h25.7 c0.6,0,1,0.4,1,1v5.9C53.5,53,53,53.5,52.5,53.5C52.5,53.5,52.5,53.5,52.5,53.5z"></path> <path class="st0" d="M39.3,47.6c-0.6,0-1-0.4-1-1v-5.9c0-0.6,0.4-1,1-1s1,0.4,1,1v5.9C40.3,47.1,39.9,47.6,39.3,47.6 C39.3,47.6,39.3,47.6,39.3,47.6z"></path> <path class="st0" d="M62,25.1c0.6,0,1,0.5,1,1s-0.5,1-1,1"></path> <path class="st0" d="M62,66.1c0.6,0,1,0.5,1,1s-0.5,1-1,1"></path> <path class="st0" d="M62,36.8c0.6,0,1,0.4,1,1s-0.4,1-1,1"></path> </svg> 