<?xml version="1.0" encoding="UTF-8"?> <svg xmlns="http://www.w3.org/2000/svg" xmlns:xlink="http://www.w3.org/1999/xlink" width="90" height="90" viewBox="0 0 90 90"><defs><clipPath id="clip-path"><rect id="Rectangle_54" data-name="Rectangle 54" width="90" height="90" transform="translate(339 470)" fill="#fff" stroke="#707070" stroke-width="1"></rect></clipPath></defs><g id="Mask_Group_21" data-name="Mask Group 21" transform="translate(-339 -470)" clip-path="url(#clip-path)"><g id="Group_21" data-name="Group 21" transform="translate(-107.411 -86.5)"><path id="Path_55" data-name="Path 55" d="M49.928,22.241h.033a6.142,6.142,0,0,0,6.149-6.089A6.134,6.134,0,0,0,49.993,10a6.17,6.17,0,0,0-4.356,1.767,6.121,6.121,0,0,0,4.291,10.474Zm-2.936-9.1a4.2,4.2,0,0,1,2.966-1.212h.025a4.2,4.2,0,0,1,2.978,1.244,4.146,4.146,0,0,1,1.218,2.966,4.208,4.208,0,0,1-4.217,4.166h-.023a4.2,4.2,0,0,1-2.977-1.244,4.17,4.17,0,0,1,.031-5.921Z" transform="translate(441.997 552.5)" fill="#1c54f8" stroke="#1c54f8" stroke-width="1"></path><path id="Path_56" data-name="Path 56" d="M41.033,20.1,28.783,27.167a.966.966,0,0,0,.966,1.673L42,21.768a.966.966,0,1,0-.966-1.673Z" transform="translate(442.526 552.159)" fill="#1c54f8" stroke="#1c54f8" stroke-width="1"></path><path id="Path_57" data-name="Path 57" d="M17.617,38.106a6.065,6.065,0,0,0,3.067.836,6.12,6.12,0,1,0-3.067-.836ZM17.1,30.684a4.225,4.225,0,0,1,3.649-2.1,4.141,4.141,0,0,1,2.1.568,4.223,4.223,0,0,1-1.078,7.711,4.144,4.144,0,0,1-3.178-.428A4.208,4.208,0,0,1,17.1,30.684Z" transform="translate(442.994 551.931)" fill="#1c54f8" stroke="#1c54f8" stroke-width="1"></path><path id="Path_58" data-name="Path 58" d="M15.225,69.491a6.12,6.12,0,1,0,6.925-8.951,6.1,6.1,0,0,0-7.522,4.29A6.122,6.122,0,0,0,15.225,69.491Zm1.267-4.157a4.172,4.172,0,0,1,4.018-3.087,4.237,4.237,0,0,1,4.08,5.339,4.169,4.169,0,0,1-5.142,2.933,4.238,4.238,0,0,1-2.957-5.184Z" transform="translate(443 550.782)" fill="#1c54f8" stroke="#1c54f8" stroke-width="1"></path><path id="Path_59" data-name="Path 59" d="M27.994,70.944a.967.967,0,0,0,.354,1.32L40.6,79.335a.966.966,0,0,0,.966-1.673L29.314,70.59A.966.966,0,0,0,27.994,70.944Z" transform="translate(442.541 550.436)" fill="#1c54f8" stroke="#1c54f8" stroke-width="1"></path><path id="Path_60" data-name="Path 60" d="M49.637,77.326H49.6a6.142,6.142,0,0,0-6.149,6.089,6.134,6.134,0,0,0,6.117,6.152h.035a6.12,6.12,0,1,0,.03-12.24Zm2.936,9.1a4.24,4.24,0,0,1-5.968-.032,4.146,4.146,0,0,1-1.218-2.966A4.208,4.208,0,0,1,49.6,79.258h.023A4.2,4.2,0,0,1,52.6,80.5a4.17,4.17,0,0,1-.031,5.921Z" transform="translate(442.009 550.202)" fill="#1c54f8" stroke="#1c54f8" stroke-width="1"></path><path id="Path_61" data-name="Path 61" d="M69.75,70.841,57.5,77.913a.966.966,0,0,0,.966,1.673l12.249-7.072a.966.966,0,0,0-.966-1.673Z" transform="translate(441.546 550.428)" fill="#1c54f8" stroke="#1c54f8" stroke-width="1"></path><path id="Path_62" data-name="Path 62" d="M81.95,61.46a6.134,6.134,0,0,0-8.387,2.22,6.143,6.143,0,0,0,2.181,8.4,6.06,6.06,0,0,0,3.067.832A6.154,6.154,0,0,0,81.95,61.46Zm.514,7.422A4.189,4.189,0,1,1,77.8,62.7a4.151,4.151,0,0,1,3.178.428A4.208,4.208,0,0,1,82.464,68.882Z" transform="translate(441.01 550.772)" fill="#1c54f8" stroke="#1c54f8" stroke-width="1"></path><path id="Path_63" data-name="Path 63" d="M84.342,30.075a6.135,6.135,0,1,0,.6,4.661A6.124,6.124,0,0,0,84.342,30.075Zm-1.267,4.157a4.168,4.168,0,0,1-5.142,2.933,4.238,4.238,0,0,1-2.957-5.185,4.173,4.173,0,0,1,4.018-3.086,4.236,4.236,0,0,1,4.081,5.338Z" transform="translate(441.004 551.921)" fill="#1c54f8" stroke="#1c54f8" stroke-width="1"></path><path id="Path_64" data-name="Path 64" d="M71.5,28.738a.967.967,0,0,0-.354-1.32L58.9,20.347a.966.966,0,1,0-.966,1.673l12.249,7.071a.966.966,0,0,0,1.32-.354Z" transform="translate(441.531 552.151)" fill="#1c54f8" stroke="#1c54f8" stroke-width="1"></path><path id="Path_65" data-name="Path 65" d="M35.792,35.883A2.67,2.67,0,0,0,32.422,37l-2.177,3.772a2.674,2.674,0,0,0,.717,3.478l3.921,2.924a13.943,13.943,0,0,0,0,4.186l-3.922,2.925a2.673,2.673,0,0,0-.716,3.477l2.177,3.771a2.675,2.675,0,0,0,3.37,1.119l4.5-1.936A14.478,14.478,0,0,0,43.91,62.8l.573,4.864a2.673,2.673,0,0,0,2.653,2.359h4.355a2.673,2.673,0,0,0,2.653-2.359l.573-4.864a14.478,14.478,0,0,0,3.622-2.089l4.5,1.935a2.673,2.673,0,0,0,3.37-1.118l2.177-3.771a2.674,2.674,0,0,0-.717-3.478l-3.921-2.924a13.943,13.943,0,0,0,0-4.186l3.922-2.925a2.673,2.673,0,0,0,.716-3.477L66.205,37a2.674,2.674,0,0,0-3.37-1.118l-4.5,1.936a14.478,14.478,0,0,0-3.622-2.089l-.573-4.864A2.673,2.673,0,0,0,51.491,28.5H47.136a2.673,2.673,0,0,0-2.653,2.359l-.573,4.864a14.478,14.478,0,0,0-3.622,2.089Zm5.284,3.787a12.608,12.608,0,0,1,4.045-2.334.966.966,0,0,0,.639-.8L46.4,31.09a.74.74,0,0,1,.735-.654h4.355a.74.74,0,0,1,.735.654l.641,5.448a.966.966,0,0,0,.639.8A12.608,12.608,0,0,1,57.55,39.67a.968.968,0,0,0,1.011.155L63.6,37.656a.74.74,0,0,1,.933.309l2.177,3.772a.741.741,0,0,1-.2.963l-4.394,3.276a.965.965,0,0,0-.372.952,12.239,12.239,0,0,1,0,4.677.965.965,0,0,0,.372.952l4.393,3.275a.741.741,0,0,1,.2.964l-2.177,3.771a.737.737,0,0,1-.933.309l-5.037-2.168a.966.966,0,0,0-1.011.155A12.608,12.608,0,0,1,53.506,61.2a.966.966,0,0,0-.639.8l-.641,5.448a.74.74,0,0,1-.735.654H47.136a.74.74,0,0,1-.735-.654l-.641-5.448a.966.966,0,0,0-.639-.8,12.608,12.608,0,0,1-4.045-2.334.967.967,0,0,0-1.011-.155l-5.038,2.168a.739.739,0,0,1-.933-.31L31.918,56.8a.741.741,0,0,1,.2-.963l4.394-3.276a.965.965,0,0,0,.372-.952,12.24,12.24,0,0,1,0-4.677.965.965,0,0,0-.372-.952L32.117,42.7a.741.741,0,0,1-.2-.964L34.1,37.966a.736.736,0,0,1,.933-.308l5.037,2.168A.968.968,0,0,0,41.077,39.67Z" transform="translate(442.472 551.868)" fill="#1c54f8" stroke="#1c54f8" stroke-width="1"></path><path id="Path_66" data-name="Path 66" d="M49.721,57.627a7.906,7.906,0,1,0-7.906-7.906A7.915,7.915,0,0,0,49.721,57.627Zm0-13.881a5.974,5.974,0,1,1-5.974,5.974A5.981,5.981,0,0,1,49.721,43.746Z" transform="translate(442.065 551.414)" fill="#1c54f8" stroke="#1c54f8" stroke-width="1"></path></g></g></svg> 