<?xml version="1.0" encoding="UTF-8"?> <svg xmlns="http://www.w3.org/2000/svg" xmlns:xlink="http://www.w3.org/1999/xlink" width="60" height="60" viewBox="0 0 60 60"><defs><clipPath id="clip-path"><rect id="Rectangle_2" data-name="Rectangle 2" width="60" height="60" transform="translate(239 373.669)" fill="#fff"></rect></clipPath></defs><g id="Mask_Group_2" data-name="Mask Group 2" transform="translate(-239 -373.669)" clip-path="url(#clip-path)"><g id="Group_2" data-name="Group 2" transform="translate(242.78 377.733)"><path id="Path_2" data-name="Path 2" d="M380.56,296.01a7.583,7.583,0,1,0,7.583,7.583A7.591,7.591,0,0,0,380.56,296.01Zm0,13.754a6.172,6.172,0,1,1,6.172-6.172A6.179,6.179,0,0,1,380.56,309.764Z" transform="translate(-344.668 -268.337)" fill="#1b54f8"></path><path id="Path_3" data-name="Path 3" d="M317.429,211.7l-3.083-5.336-.833-.317L309.73,207.3a13.179,13.179,0,0,0-3.942-2.281l-.8-3.9-.691-.563H298.13l-.691.563-.8,3.9A13.184,13.184,0,0,0,292.7,207.3l-3.784-1.255-.833.317L285,211.7l.142.88,2.976,2.651a13.437,13.437,0,0,0,0,4.552l-2.976,2.651-.142.88,3.083,5.336.833.317,3.784-1.255a13.185,13.185,0,0,0,3.941,2.281l.8,3.9.691.562h6.165l.691-.563.8-3.9a13.179,13.179,0,0,0,3.942-2.281l3.784,1.255.833-.317,3.083-5.336-.142-.88-2.976-2.651a13.421,13.421,0,0,0,0-4.552l2.976-2.651Zm-4.356,2.743-.222.671a11.933,11.933,0,0,1,0,4.784l.221.671,2.846,2.535-2.508,4.341-3.618-1.2-.691.143a11.8,11.8,0,0,1-4.147,2.4l-.469.527-.767,3.729H298.7l-.767-3.729-.468-.527a11.8,11.8,0,0,1-4.147-2.4l-.691-.143-3.618,1.2-2.508-4.341,2.846-2.535.221-.671a11.952,11.952,0,0,1,0-4.784l-.221-.671L286.5,211.91l2.508-4.341,3.618,1.2.691-.143a11.8,11.8,0,0,1,4.147-2.4l.468-.527.767-3.729h5.015l.767,3.729.469.527a11.8,11.8,0,0,1,4.147,2.4l.691.143,3.618-1.2,2.508,4.341Z" transform="translate(-265.32 -182.253)" fill="#1b54f8"></path><path id="Path_4" data-name="Path 4" d="M97.35,39.741A12.87,12.87,0,1,0,84.48,26.87,12.885,12.885,0,0,0,97.35,39.741Zm0-24.33a11.46,11.46,0,1,1-11.459,11.46A11.473,11.473,0,0,1,97.35,15.411Z" transform="translate(-84.48 -14)" fill="#1b54f8"></path><path id="Path_5" data-name="Path 5" d="M127.611,98.046l-4.633-4.633,4.633-4.633-1-1-5.132,5.133v1l5.132,5.132Z" transform="translate(-117.85 -80.542)" fill="#1b54f8"></path><path id="Path_6" data-name="Path 6" d="M248.333,99.036l5.132-5.132v-1l-5.132-5.133-1,1,4.633,4.633-4.633,4.633Z" transform="translate(-231.355 -80.535)" fill="#1b54f8"></path><path id="Path_7" data-name="Path 7" d="M189.54,87.644,193.3,74.07l1.36.377L190.9,88.021Z" transform="translate(-179.231 -68.175)" fill="#1b54f8"></path><path id="Path_8" data-name="Path 8" d="M383.177,79.554,387.61,81.5l.932-.368,1.906-4.45-1.3-.555-1.255,2.93a21.149,21.149,0,0,0-16.85-11.934l-.143,1.4A19.733,19.733,0,0,1,386.54,79.49l-2.794-1.227Z" transform="translate(-342.797 -61.91)" fill="#1b54f8"></path><path id="Path_9" data-name="Path 9" d="M119.477,299.8l-3.916-2.846-.989.161-2.81,3.942,1.149.819,1.7-2.382a20.984,20.984,0,0,0,10.771,14.369l.66-1.246a19.578,19.578,0,0,1-10.1-13.639l2.7,1.964Z" transform="translate(-109.084 -269.185)" fill="#1b54f8"></path></g></g></svg> 