<?xml version="1.0" encoding="UTF-8"?> <svg xmlns="http://www.w3.org/2000/svg" xmlns:xlink="http://www.w3.org/1999/xlink" width="148" height="148" viewBox="0 0 148 148"><defs><clipPath id="clip-path"><rect id="Rectangle_29" data-name="Rectangle 29" width="148" height="148" transform="translate(348 870)" fill="#fff"></rect></clipPath></defs><g id="Mask_Group_8" data-name="Mask Group 8" transform="translate(-348 -870)" clip-path="url(#clip-path)"><g id="Group_43" data-name="Group 43" transform="translate(59.509 -112.868)"><path id="Path_117" data-name="Path 117" d="M452.322,54.72H432.243a10.123,10.123,0,0,1-10.111-10.109V24.53a2.982,2.982,0,0,1,5.091-2.108l27.208,27.208a2.981,2.981,0,0,1-2.109,5.09ZM428.1,31.729V44.61a4.151,4.151,0,0,0,4.147,4.145h12.88Z" transform="translate(-39.522 963.322)" fill="#05f"></path><path id="Path_117_-_Outline" data-name="Path 117 - Outline" d="M452.322,56.22H432.243a11.623,11.623,0,0,1-11.611-11.609V24.53a4.468,4.468,0,0,1,2.767-4.141l.006,0a4.493,4.493,0,0,1,4.878.974l27.208,27.208a4.486,4.486,0,0,1-.6,6.845l.691.806ZM424.543,23.162a1.477,1.477,0,0,0-.911,1.368V44.611a8.62,8.62,0,0,0,8.611,8.609h20.078a1.481,1.481,0,0,0,1.049-2.529L426.162,23.483a1.473,1.473,0,0,0-1.048-.433A1.508,1.508,0,0,0,424.543,23.162Zm24.2,27.093h-16.5A5.652,5.652,0,0,1,426.6,44.61v-16.5ZM429.6,35.35v9.26a2.649,2.649,0,0,0,2.647,2.645H441.5Z" transform="translate(-39.522 963.322)" fill="#fff"></path><path id="Path_118" data-name="Path 118" d="M254.248,164.671H168.174a10.12,10.12,0,0,1-10.108-10.109V31.643a10.12,10.12,0,0,1,10.108-10.109h65.994a2.98,2.98,0,0,1,2.108.874l27.208,27.208a2.982,2.982,0,0,1,.874,2.108V154.562a10.122,10.122,0,0,1-10.11,10.109ZM168.174,27.5a4.149,4.149,0,0,0-4.144,4.145V154.564a4.149,4.149,0,0,0,4.144,4.145h86.074a4.151,4.151,0,0,0,4.147-4.145V52.961L232.935,27.5Z" transform="translate(151.425 963.334)" fill="#05f"></path><path id="Path_118_-_Outline" data-name="Path 118 - Outline" d="M254.248,166.171H168.174a11.622,11.622,0,0,1-11.608-11.609V31.643a11.622,11.622,0,0,1,11.608-11.609h65.994a4.452,4.452,0,0,1,3.169,1.313l27.208,27.208a4.452,4.452,0,0,1,1.313,3.169V154.562a11.623,11.623,0,0,1-11.609,11.609ZM168.174,23.034a8.618,8.618,0,0,0-8.608,8.609V154.562a8.618,8.618,0,0,0,8.608,8.609h86.073a8.619,8.619,0,0,0,8.61-8.609V51.724a1.472,1.472,0,0,0-.435-1.047L235.215,23.469a1.472,1.472,0,0,0-1.047-.435Zm86.074,137.175H168.174a5.651,5.651,0,0,1-5.644-5.645V31.645A5.651,5.651,0,0,1,168.174,26h65.382l26.338,26.339V154.564A5.652,5.652,0,0,1,254.248,160.209ZM168.174,29a2.647,2.647,0,0,0-2.644,2.645V154.564a2.647,2.647,0,0,0,2.644,2.645h86.074a2.649,2.649,0,0,0,2.647-2.645V53.582L232.313,29Z" transform="translate(151.425 963.334)" fill="#fff"></path><path id="Path_119" data-name="Path 119" d="M328.507,118.2h-17a2.981,2.981,0,0,1-2.982-2.982v-17A2.981,2.981,0,0,1,311.5,95.23h17a2.981,2.981,0,0,1,2.982,2.982v17.006A2.981,2.981,0,0,1,328.507,118.2Zm-14.022-5.963h11.04V101.194h-11.04Z" transform="translate(42.631 910.044)" fill="#05f"></path><path id="Path_119_-_Outline" data-name="Path 119 - Outline" d="M328.507,119.7h-17a4.487,4.487,0,0,1-4.482-4.482v-17A4.487,4.487,0,0,1,311.5,93.73h17a4.487,4.487,0,0,1,4.482,4.482v17.006A4.486,4.486,0,0,1,328.507,119.7Zm-17-22.969a1.484,1.484,0,0,0-1.482,1.482v17A1.484,1.484,0,0,0,311.5,116.7h17a1.483,1.483,0,0,0,1.481-1.481V98.212a1.484,1.484,0,0,0-1.482-1.482Zm15.522,17.006h-14.04V99.694h14.04Zm-11.04-3h8.04v-8.041h-8.04Z" transform="translate(42.631 910.044)" fill="#fff"></path><path id="Path_120" data-name="Path 120" d="M328.51,265.586h-17a2.981,2.981,0,0,1-2.982-2.982V245.6a2.981,2.981,0,0,1,2.982-2.982h17a2.981,2.981,0,0,1,2.982,2.982V262.6A2.983,2.983,0,0,1,328.51,265.586Zm-14.023-5.964h11.04V248.58h-11.04Z" transform="translate(42.628 803.47)" fill="#05f"></path><path id="Path_120_-_Outline" data-name="Path 120 - Outline" d="M328.51,267.086h-17a4.487,4.487,0,0,1-4.482-4.482V245.6a4.487,4.487,0,0,1,4.482-4.482h17a4.487,4.487,0,0,1,4.482,4.482V262.6A4.489,4.489,0,0,1,328.51,267.086Zm-17-22.97a1.484,1.484,0,0,0-1.482,1.482V262.6a1.484,1.484,0,0,0,1.482,1.482h17a1.485,1.485,0,0,0,1.482-1.483v-17a1.484,1.484,0,0,0-1.482-1.482Zm15.521,17.006h-14.04V247.08h14.04Zm-11.04-3h8.04V250.08h-8.04Z" transform="translate(42.628 803.47)" fill="#fff"></path><path id="Path_121" data-name="Path 121" d="M328.51,412.976h-17a2.981,2.981,0,0,1-2.982-2.982V392.988a2.981,2.981,0,0,1,2.982-2.982h17a2.981,2.981,0,0,1,2.982,2.982v17.006A2.982,2.982,0,0,1,328.51,412.976Zm-14.023-5.964h11.04V395.97h-11.04Z" transform="translate(42.628 696.892)" fill="#05f"></path><path id="Path_121_-_Outline" data-name="Path 121 - Outline" d="M328.51,414.476h-17a4.487,4.487,0,0,1-4.482-4.482V392.988a4.487,4.487,0,0,1,4.482-4.482h17a4.487,4.487,0,0,1,4.482,4.482v17.006A4.489,4.489,0,0,1,328.51,414.476Zm-17-22.97a1.484,1.484,0,0,0-1.482,1.482v17.006a1.484,1.484,0,0,0,1.482,1.482h17a1.485,1.485,0,0,0,1.482-1.483v-17a1.484,1.484,0,0,0-1.482-1.482Zm15.521,17.006h-14.04V394.47h14.04Zm-11.04-3h8.04V397.47h-8.04Z" transform="translate(42.628 696.892)" fill="#fff"></path><path id="Path_122" data-name="Path 122" d="M222.212,171.583h-5.6a12.775,12.775,0,0,1-12.761-12.759V138.7a12.774,12.774,0,0,1,12.761-12.759h5.6a2.982,2.982,0,1,1,0,5.964h-5.6a6.8,6.8,0,0,0-6.8,6.8v20.123a6.8,6.8,0,0,0,6.8,6.794h5.6a2.982,2.982,0,1,1,0,5.964Z" transform="translate(118.317 887.836)" fill="#05f"></path><path id="Path_122_-_Outline" data-name="Path 122 - Outline" d="M222.212,173.083h-5.6a14.276,14.276,0,0,1-14.261-14.259V138.7a14.276,14.276,0,0,1,14.261-14.259h5.6a4.482,4.482,0,1,1,0,8.964h-5.6a5.3,5.3,0,0,0-5.3,5.3v20.123a5.3,5.3,0,0,0,5.3,5.294h5.6a4.482,4.482,0,1,1,0,8.964Zm-5.6-45.641A11.273,11.273,0,0,0,205.351,138.7v20.123a11.273,11.273,0,0,0,11.261,11.259h5.641a1.482,1.482,0,0,0-.041-2.964h-5.6a8.3,8.3,0,0,1-8.3-8.294V138.7a8.306,8.306,0,0,1,8.3-8.3h5.6a1.482,1.482,0,1,0,0-2.964Z" transform="translate(118.317 887.836)" fill="#fff"></path><path id="Path_123" data-name="Path 123" d="M428.292,318.966h-6.25a2.982,2.982,0,1,1,0-5.964h6.25a6.8,6.8,0,0,0,6.794-6.8V286.082a6.8,6.8,0,0,0-6.794-6.8h-6.25a2.982,2.982,0,1,1,0-5.964h6.25a12.772,12.772,0,0,1,12.758,12.759V306.2a12.773,12.773,0,0,1-12.758,12.761Z" transform="translate(-37.3 781.266)" fill="#05f"></path><path id="Path_123_-_Outline" data-name="Path 123 - Outline" d="M428.292,320.466h-6.25a4.482,4.482,0,1,1,0-8.964h6.25a5.3,5.3,0,0,0,5.294-5.3V286.082a5.3,5.3,0,0,0-5.294-5.3h-6.25a4.482,4.482,0,1,1,0-8.964h6.25a14.275,14.275,0,0,1,14.258,14.259V306.2a14.281,14.281,0,0,1-12.758,14.183v.078Zm-6.25-5.964a1.482,1.482,0,1,0,0,2.964h6.25A11.272,11.272,0,0,0,439.55,306.2V286.081a11.271,11.271,0,0,0-11.258-11.259h-6.25a1.482,1.482,0,1,0,0,2.964h6.25a8.3,8.3,0,0,1,8.294,8.3v20.123a8.3,8.3,0,0,1-8.294,8.3Z" transform="translate(-37.3 781.266)" fill="#fff"></path></g></g></svg> 