<?xml version="1.0" encoding="UTF-8"?> <svg xmlns="http://www.w3.org/2000/svg" width="60" height="60" viewBox="0 0 60 60" fill="none"><mask id="mask0_1_66" style="mask-type:alpha" maskUnits="userSpaceOnUse" x="0" y="0" width="60" height="60"><rect width="60" height="60" fill="#D9D9D9"></rect></mask><g mask="url(#mask0_1_66)"><path d="M30.2158 14.6375H29.3106V12.8272H38.3753V14.6375H30.2158ZM29.7114 10.9651H28.8063V9.15475H38.8925V10.9651H29.7114ZM30.3063 7.30559H29.4011V5.49523H38.2977V7.30559H30.3063ZM13.6898 15.3876H12.7846V13.5772H20.0002V15.3876H13.6898ZM12.4096 11.7151H11.5044V9.90475H18.72V11.7151H12.4096ZM13.3794 8.04267H12.4742V6.23231H20.4657V8.04267H13.3794ZM40.8193 2.7021C42.9141 4.61591 44.0391 7.18921 44.1814 9.81423C44.3107 12.4522 43.4314 15.1419 41.5176 17.2626C39.8882 19.06 37.7287 20.1979 35.3753 20.5471L32.7115 25.7583L30.9399 20.2626C30.2804 20.0686 29.6339 19.81 29.0261 19.4867C28.2761 19.0988 27.5778 18.5945 26.9183 17.9996L26.8795 17.9738C26.4269 17.56 26.0261 17.1203 25.664 16.6548C24.6812 17.9479 23.4269 18.9953 21.9786 19.7066L21.0217 25.4738L17.6596 20.7798C13.263 20.8962 9.28023 18.1936 7.7285 14.0815C5.72417 8.74095 8.42678 2.77969 13.7673 0.762433C18.0217 -0.841028 22.8191 0.529673 25.5864 4.12453L26.2071 3.37452C28.1209 1.27968 30.6942 0.15467 33.3192 0.012427C35.9572 -0.116884 38.6469 0.762433 40.7676 2.67624L40.8193 2.7021ZM24.6166 14.9996C23.1683 12.116 23.1424 8.68922 24.5648 5.79265C22.3924 2.44348 18.1639 1.03399 14.401 2.44348C9.99145 4.09867 7.75436 9.02543 9.40955 13.435C10.7415 16.9781 14.2587 19.2281 18.0217 18.9436L18.526 18.9048L19.9355 20.8704L20.3364 18.4652C21.4355 17.9867 22.1855 17.6117 23.1295 16.7583C23.6985 16.241 24.2028 15.6591 24.6166 14.9996ZM42.371 9.90475C42.2547 7.71939 41.3236 5.58575 39.5779 4.00815L39.5391 3.98229C37.7934 2.41762 35.5822 1.70641 33.4227 1.80986C31.2502 1.92624 29.1037 2.85728 27.5261 4.60298L27.5002 4.64178C26.0002 6.30989 25.2243 8.53405 25.3278 10.7582C25.3924 12.1418 25.7674 13.3444 26.4528 14.5858C26.8019 15.2195 27.5778 16.2151 28.1597 16.6936C29.2201 17.6376 30.5002 18.31 31.858 18.6333L32.3494 18.7497L33.0865 21.0514L34.1985 18.866C35.5046 18.7367 36.4486 18.5686 37.69 17.9479C38.6081 17.4953 39.4486 16.8617 40.1727 16.06C41.7503 14.3143 42.4745 12.0901 42.371 9.90475ZM34.3408 48.7111V47.8059H36.1511V58.1896H52.2116V44.599C51.3711 43.6292 50.3237 42.8274 49.1469 42.2585C47.9314 41.6766 46.5607 41.3533 45.1124 41.3533H37.0822C35.6339 41.3533 34.2761 41.6766 33.0477 42.2585C31.8709 42.8145 30.8364 43.6162 29.983 44.599V58.1896H34.3279V48.7111H34.3408ZM41.1038 25.0988C37.2503 25.0988 34.1339 28.2152 34.1339 32.0687C34.1339 35.9222 37.2503 39.0386 41.1038 39.0386C44.9573 39.0386 48.0737 35.9222 48.0737 32.0687C48.0737 28.2152 44.9573 25.0988 41.1038 25.0988ZM34.8968 25.8488C38.3236 22.4221 43.884 22.4221 47.3107 25.8488C51.3452 29.8834 50.5176 36.5946 45.6814 39.5559C48.8754 39.711 51.8366 41.2498 53.828 43.7068L54.0349 43.9524V47.3921H57.4746V55.862H54.0349V60H28.1856V55.862H2V47.3921H4.25002V40.4093L4.45692 40.1507C5.96986 38.3015 8.15522 37.086 10.5475 36.8145C6.95263 34.2282 6.51297 29.0428 9.65524 25.9006C12.4613 23.0945 17.0001 23.0945 19.8062 25.9006C22.9485 29.0428 22.5088 34.2282 18.9139 36.8145C21.3062 37.0731 23.5045 38.2886 25.0045 40.1507L25.2114 40.4093V47.3921H28.1856V43.9524L28.3925 43.7068C30.3839 41.2498 33.3451 39.724 36.5391 39.5559C31.7028 36.5946 30.8752 29.8834 34.8968 25.8488ZM54.0349 49.2025V54.0517H55.6642V49.2025H54.0349ZM28.1856 54.0517V49.2025H3.81036V54.0517H28.1856ZM6.06038 47.3921H9.16385V43.3576H10.9742V47.3921H23.414V41.0559C22.7674 40.3188 21.9657 39.711 21.0734 39.2843C20.1295 38.8317 19.0691 38.586 17.9441 38.586H11.5432C10.4182 38.586 9.35782 38.8446 8.41385 39.2843C7.5216 39.711 6.71987 40.3188 6.07331 41.0559V47.3921H6.06038ZM14.7372 25.6161C11.7759 25.6161 9.37075 28.0213 9.37075 30.9825C9.37075 33.9437 11.7759 36.3489 14.7372 36.3489C17.6984 36.3489 20.1036 33.9437 20.1036 30.9825C20.1036 28.0213 17.6984 25.6161 14.7372 25.6161Z" fill="#1B54F8"></path></g></svg> 