<?xml version="1.0" encoding="UTF-8"?> <svg xmlns="http://www.w3.org/2000/svg" xmlns:xlink="http://www.w3.org/1999/xlink" width="90" height="90" viewBox="0 0 90 90"><defs><clipPath id="clip-path"><rect id="Rectangle_914" data-name="Rectangle 914" width="90" height="90" transform="translate(1604 2313)" fill="#fff"></rect></clipPath></defs><g id="Mask_Group_6" data-name="Mask Group 6" transform="translate(-1604 -2313)" clip-path="url(#clip-path)"><g id="Group_4111" data-name="Group 4111" transform="translate(-0.096 -160)"><path id="Path_2588" data-name="Path 2588" d="M456.412,180.8h-3.194a1.452,1.452,0,0,0,0,2.9h3.194a4.36,4.36,0,0,0,4.355-4.355V141.605a4.36,4.36,0,0,0-4.355-4.355H447.7a1.452,1.452,0,0,0,0,2.9h8.711a1.453,1.453,0,0,1,1.452,1.452v37.746A1.453,1.453,0,0,1,456.412,180.8Z" transform="translate(1219.316 2357.353)" fill="#1b54f8" stroke="#fff" stroke-width="1"></path><path id="Path_2589" data-name="Path 2589" d="M170.605,140.154h8.711a1.452,1.452,0,0,0,0-2.9h-8.711a4.36,4.36,0,0,0-4.355,4.355v37.746a4.36,4.36,0,0,0,4.355,4.355H173.8a1.452,1.452,0,0,0,0-2.9h-3.194a1.453,1.453,0,0,1-1.452-1.452V141.605A1.454,1.454,0,0,1,170.605,140.154Z" transform="translate(1452.859 2357.353)" fill="#1b54f8" stroke="#fff" stroke-width="1"></path><path id="Path_2590" data-name="Path 2590" d="M169.061,157.414h-3.687a8.667,8.667,0,0,0,2.235-5.806V110.959a8.72,8.72,0,0,0-8.711-8.711H147.662a1.452,1.452,0,1,0,0,2.9H158.9a5.814,5.814,0,0,1,5.807,5.807v40.649a5.812,5.812,0,0,1-5.793,5.806h-55.2a5.812,5.812,0,0,1-5.793-5.806V110.959a5.814,5.814,0,0,1,5.807-5.807h11.237a1.452,1.452,0,1,0,0-2.9H103.731a8.72,8.72,0,0,0-8.711,8.711v40.649a8.664,8.664,0,0,0,2.235,5.806H93.569c-7.656.235-7.689,11.367,0,11.614h75.492c7.648-.232,7.7-11.365,0-11.614Zm-45.2,8.711c.4-.617.879-1.512,1.745-1.452h11.41c.859-.061,1.348.836,1.745,1.452Zm45.2,0H142.254l-1.611-2.416a4.344,4.344,0,0,0-3.624-1.94H125.61a4.344,4.344,0,0,0-3.624,1.94l-1.611,2.416H93.569a2.9,2.9,0,0,1,0-5.807c5.462,0,58.424,0,65.329,0,.028,0,10.162,0,10.162,0a2.9,2.9,0,0,1,0,5.807Z" transform="translate(1518.281 2386.548)" fill="#1b54f8" stroke="#fff" stroke-width="1"></path><path id="Path_2591" data-name="Path 2591" d="M360.61,266.5l-9.875,11.336a2.919,2.919,0,0,0,2.189,4.81h2.617v6.778a2.907,2.907,0,0,0,2.9,2.9h8.711a2.907,2.907,0,0,0,2.9-2.9v-6.778h2.617a2.92,2.92,0,0,0,2.189-4.81L364.987,266.5a3,3,0,0,0-4.378,0Zm8,13.243a1.451,1.451,0,0,0-1.452,1.452v8.23h-8.711v-8.23a1.451,1.451,0,0,0-1.452-1.452h-4.069L362.8,268.4l9.875,11.336Z" transform="translate(1299.58 2250.342)" fill="#1b54f8" stroke="#fff" stroke-width="1"></path><path id="Path_2592" data-name="Path 2592" d="M204.366,292.327h8.711a2.907,2.907,0,0,0,2.9-2.9v-6.778H218.6a2.919,2.919,0,0,0,2.189-4.81L210.909,266.5a3,3,0,0,0-4.378,0l-9.876,11.336a2.92,2.92,0,0,0,2.189,4.81h2.617v6.778a2.907,2.907,0,0,0,2.9,2.9Zm-5.528-12.575,9.883-11.346,9.876,11.336h-4.069a1.451,1.451,0,0,0-1.452,1.452v8.23h-8.711v-8.23a1.451,1.451,0,0,0-1.452-1.452l-4.076.01Z" transform="translate(1428.093 2250.34)" fill="#1b54f8" stroke="#fff" stroke-width="1"></path><path id="Path_2593" data-name="Path 2593" d="M274.175,89.065a4.4,4.4,0,0,0,5.682-.008L289.976,80.4a4.357,4.357,0,0,0,1.553-3.365V68.326a4.4,4.4,0,0,0-1.539-3.353L279.848,56.3a4.4,4.4,0,0,0-5.682.008l-10.144,8.676a4.439,4.439,0,0,0-1.528,3.344v8.711a4.391,4.391,0,0,0,1.539,3.353l10.142,8.675ZM265.92,67.179l10.125-8.659a1.5,1.5,0,0,1,1.925-.008L288.1,67.18a1.49,1.49,0,0,1,0,2.291l-10.126,8.661a1.5,1.5,0,0,1-1.926.007l-10.134-8.668a1.533,1.533,0,0,1,0-2.292Zm-.522,5.667,8.777,7.508a4.477,4.477,0,0,0,2.834,1.037,4.558,4.558,0,0,0,2.848-1.044l8.769-7.5v4.191a1.472,1.472,0,0,1-.522,1.147l-10.125,8.659a1.494,1.494,0,0,1-1.925.008l-10.135-8.67a1.517,1.517,0,0,1-.52-1.145v-4.19Z" transform="translate(1372.584 2425.738)" fill="#1b54f8" stroke="#fff" stroke-width="1"></path></g></g></svg> 