<?xml version="1.0" encoding="UTF-8"?> <svg xmlns="http://www.w3.org/2000/svg" xmlns:xlink="http://www.w3.org/1999/xlink" width="90" height="90" viewBox="0 0 90 90"><defs><clipPath id="clip-path"><rect id="Rectangle_14" data-name="Rectangle 14" width="90" height="90" transform="translate(342 642)" fill="#fff" stroke="#707070" stroke-width="1"></rect></clipPath></defs><g id="Mask_Group_25" data-name="Mask Group 25" transform="translate(-342 -642)" clip-path="url(#clip-path)"><g id="Group_60" data-name="Group 60" transform="translate(110.772 88)"><path id="Path_127" data-name="Path 127" d="M14.144,67.431H23.7V66.162a1.014,1.014,0,0,0-1.009-1.01H15.153a1.014,1.014,0,0,0-1.009,1.01v1.268Zm-2.138,2.923v1.56H25.842v-1.56A1.361,1.361,0,0,0,24.488,69H13.36a1.361,1.361,0,0,0-1.354,1.354ZM22.827,57.721l-.024-.014c-.024-.013-.047-.025-.072-.037l-4.713-2.217A.775.775,0,0,1,17.9,55.4a1.213,1.213,0,0,0-1.529.549.787.787,0,0,1-.055.114l-.695,1.477a.218.218,0,0,0-.007.167.21.21,0,0,0,.108.12l6.5,3.059a.808.808,0,0,1,.094.042.228.228,0,0,0,.136,0,.213.213,0,0,0,.1-.08.823.823,0,0,1,.046-.094l.695-1.477A1.21,1.21,0,0,0,22.827,57.721Zm.258-13.468.024.014c.024.013.047.025.072.037l4.777,2.246a1.208,1.208,0,0,0,1.6-.575l.7-1.481a.75.75,0,0,1,.04-.092.228.228,0,0,0,0-.136.22.22,0,0,0-.081-.105.749.749,0,0,1-.093-.046l-6.5-3.058a.214.214,0,0,0-.167-.007.208.208,0,0,0-.12.107L22.606,42.7a1.212,1.212,0,0,0,.479,1.553ZM25.6,53.795l15.569,8.449c.051.027.053.03.062.034a1.337,1.337,0,0,0,1.037.027,1.593,1.593,0,0,0,.846-.732h0c.014-.027.027-.053.039-.076l.777-1.652q.011-.025.034-.082a1.6,1.6,0,0,0,.024-1.124,1.336,1.336,0,0,0-.648-.761l-.033-.015c-.024-.011-.046-.021-.065-.028L26.8,51.227,25.592,53.8Zm1.876-3.987L43.824,56.38c.054.022.1.044.152.065l.047.024a2.9,2.9,0,0,1,1.446,1.653,3.168,3.168,0,0,1-.047,2.22c-.018.044-.042.1-.072.162l-.777,1.651c-.027.057-.053.111-.081.161h0a3.172,3.172,0,0,1-1.685,1.455,2.883,2.883,0,0,1-2.239-.081c-.076-.037-.129-.062-.148-.072l-15.5-8.4-.748,1.591a2.777,2.777,0,0,1,.545,3.128L24,61.481a1.781,1.781,0,0,1-2.363.854l-6.569-3.092a1.782,1.782,0,0,1-.854-2.364l.726-1.542a2.761,2.761,0,0,1,1.568-1.425A2.789,2.789,0,0,1,17.7,53.76l4.04-8.591a2.777,2.777,0,0,1-.545-3.129l.725-1.542a1.78,1.78,0,0,1,2.364-.854l6.571,3.091a1.781,1.781,0,0,1,.85,2.359l-.725,1.542a2.779,2.779,0,0,1-2.759,1.583l-.749,1.589Zm-1.783.121-1.8,3.811-.011.02a.774.774,0,0,0-.046.1l-1,2.131-3.652-1.719,3.9-8.294L26.733,47.7l-1.014,2.157a.639.639,0,0,0-.034.076ZM11.671,13.665h3.9a1.023,1.023,0,0,0,1.02-1.019V7.7l-4.925,5.966Zm25.01,38a.784.784,0,1,1,0-1.568H51.222a.784.784,0,1,1,0,1.568Zm11.233,6.778a.784.784,0,0,1,0-1.568h3.308a.784.784,0,1,1,0,1.568ZM16.552,38.107a.784.784,0,1,1,0-1.568H47.345a.784.784,0,0,1,0,1.568Zm18.526,6.778H51.222a.784.784,0,1,0,0-1.568H35.078a.784.784,0,0,0,0,1.568ZM27.3,24.551a.784.784,0,1,1,0-1.568H46.357a.784.784,0,0,1,0,1.568ZM26.16,31.329a.784.784,0,1,1,0-1.568h20.2a.784.784,0,0,1,0,1.568Zm-9.609,0a.784.784,0,1,1,0-1.568H22.8a.784.784,0,1,1,0,1.568ZM53.5,39.545a13.111,13.111,0,0,1-2.722-7.962V25.307l7.124-2.054a.74.74,0,0,0,.152-.043l2.191-.632,2.919.841a.812.812,0,0,0,.152.043l6.4,1.843v6.274a13.111,13.111,0,0,1-2.729,7.966,12.881,12.881,0,0,1-3.864,3.365.92.92,0,0,0-.1.056,12.794,12.794,0,0,1-2.777,1.141,12.876,12.876,0,0,1-2.089-.783.773.773,0,0,0-.107-.052A12.859,12.859,0,0,1,53.5,39.544ZM64.239,22.107l6.468,1.863a.781.781,0,0,1,.566.751h0v6.86A14.686,14.686,0,0,1,68.221,40.5a14.439,14.439,0,0,1-3.986,3.569v25.27a2.594,2.594,0,0,1-2.587,2.587H27.408V72.7a.784.784,0,0,1-.781.785h-15.4a.784.784,0,0,1-.784-.784V70.354a2.933,2.933,0,0,1,2.138-2.815v-.56h-.761a2.592,2.592,0,0,1-2.587-2.587V14.429h0v-.059h0a.782.782,0,0,1,.22-.469l7.111-8.613a.781.781,0,0,1,.6-.288h38.8a2.594,2.594,0,0,1,2.587,2.587V9.946h3.1a2.594,2.594,0,0,1,2.587,2.587v9.574Zm-5.692-.662,1.483-.428a.778.778,0,0,1,.44,0l2.2.635V12.533a1.026,1.026,0,0,0-1.02-1.02h-3.1ZM56.979,44.477V64.39a1.025,1.025,0,0,1-1.019,1.02h-30.8a2.587,2.587,0,0,0-2.465-1.826H15.153a2.587,2.587,0,0,0-2.465,1.826h-.874a1.026,1.026,0,0,1-1.02-1.02V15.236h4.781a2.592,2.592,0,0,0,2.587-2.587V6.568h37.8a1.023,1.023,0,0,1,1.019,1.019V21.9l-7.123,2.054a.784.784,0,0,0-.642.772v6.86A14.685,14.685,0,0,0,52.266,40.5a14.426,14.426,0,0,0,4.713,3.98Zm3.057,1.187a.785.785,0,0,0,.409,0,14.538,14.538,0,0,0,2.229-.783v24.45a1.026,1.026,0,0,1-1.02,1.02H27.414a2.933,2.933,0,0,0-2.138-2.815v-.56H55.96a2.594,2.594,0,0,0,2.587-2.587V45.187a14.63,14.63,0,0,0,1.488.478ZM55.782,28.877a6.316,6.316,0,1,0,4.463-1.849,6.316,6.316,0,0,0-4.463,1.849Zm1.109,1.109A4.745,4.745,0,1,0,60.245,28.6a4.745,4.745,0,0,0-3.354,1.389Zm.46,4.071L59.319,35.6a.783.783,0,0,0,1.1-.132l0-.006L63.246,32.2a.782.782,0,0,0-1.182-1.023L59.7,33.914l-1.381-1.086a.783.783,0,1,0-.968,1.231Zm-40.8,10.829h2a.784.784,0,0,0,0-1.568h-2a.784.784,0,1,0,0,1.568Z" transform="translate(236 560)" fill="#1c54f8" fill-rule="evenodd"></path></g></g></svg> 