<?xml version="1.0" encoding="UTF-8"?> <svg xmlns="http://www.w3.org/2000/svg" xmlns:xlink="http://www.w3.org/1999/xlink" width="60" height="60" viewBox="0 0 60 60"><defs><clipPath id="clip-path"><rect id="Rectangle_31" data-name="Rectangle 31" width="60" height="60" transform="translate(193 246)" fill="#fff" stroke="#707070" stroke-width="1"></rect></clipPath></defs><g id="Mask_Group_6" data-name="Mask Group 6" transform="translate(-193 -246)" clip-path="url(#clip-path)"><g id="Group_7" data-name="Group 7" transform="translate(-163.001 18)"><path id="Path_28" data-name="Path 28" d="M43.545,36.46l-9.593,2.579-1.467-.683a3.852,3.852,0,0,0,.949-2.693,3.729,3.729,0,0,0-2.1-3.256L25.457,29.48a4.158,4.158,0,0,0-2.941-.43l-8.184,2.093-.106-.4a1.591,1.591,0,0,0-1.947-1.124l-6.1,1.634a1.591,1.591,0,0,0-1.124,1.947L9.24,48.821A1.595,1.595,0,0,0,10.774,50a1.6,1.6,0,0,0,.413-.055l6.1-1.634a1.592,1.592,0,0,0,1.124-1.947l-.351-1.312,9.656,2.4a2.289,2.289,0,0,0,.559.069,3.287,3.287,0,0,0,.95-.168l.181-.051L45.31,43.044A3.086,3.086,0,0,0,47.532,40.8a3.811,3.811,0,0,0-.914-3.584A3.1,3.1,0,0,0,43.545,36.46ZM11.134,47.788,7.213,33.153l5.118-1.372,3.922,14.635Zm34.372-7.532a1,1,0,0,1-.738.763L28.862,45.281l-.225.063c-.264.076-.346.095-.417.077L17.438,42.736,14.874,33.17l8.161-2.087a2.07,2.07,0,0,1,1.486.274l5.873,2.927a1.7,1.7,0,0,1,.288,2.868.845.845,0,0,1-.572.1L25.44,35.074a1.049,1.049,0,0,0-.885,1.9L28.262,38.7a1.086,1.086,0,0,0,.114.081,4.08,4.08,0,0,0,1.066.469l3.972,1.85a1.052,1.052,0,0,0,.715.062l9.961-2.678a1,1,0,0,1,1.047.212A1.7,1.7,0,0,1,45.506,40.256Zm-33.04,3.016a1.048,1.048,0,1,1,2.026-.542l.417,1.556a1.049,1.049,0,1,1-2.026.542ZM49.98,15.788a1.048,1.048,0,0,0-1.049-1.043h-.015a1.733,1.733,0,0,1-1.253-3.01,1.049,1.049,0,0,0-.007-1.483L44.648,7.272a1.049,1.049,0,0,0-.738-.3h-.005a1.047,1.047,0,0,0-.74.311,1.733,1.733,0,0,1-3.022-1.235A1.048,1.048,0,0,0,39.1,5H39.09l-4.234.02a1.048,1.048,0,0,0-1.043,1.054A1.733,1.733,0,0,1,30.8,7.337a1.088,1.088,0,0,0-.743-.3,1.047,1.047,0,0,0-.74.311l-2.979,3.008a1.049,1.049,0,0,0,.007,1.483,1.733,1.733,0,0,1-1.235,3.022,1.048,1.048,0,0,0-1.043,1.054l.022,4.187a1.049,1.049,0,0,0,1.027,1.043,1.85,1.85,0,0,1,1.725,1.133,1.749,1.749,0,0,1-.437,1.924,1.049,1.049,0,0,0,.007,1.483l3.008,2.979a1.049,1.049,0,0,0,.738.3h0a1.047,1.047,0,0,0,.74-.31,1.733,1.733,0,0,1,3.022,1.235,1.049,1.049,0,0,0,1.049,1.044h.005l4.234-.02a1.048,1.048,0,0,0,1.043-1.053,1.733,1.733,0,0,1,3.01-1.264,1.108,1.108,0,0,0,.743.3,1.047,1.047,0,0,0,.74-.31l2.979-3.008a1.049,1.049,0,0,0-.007-1.483,1.733,1.733,0,0,1,1.235-3.022A1.048,1.048,0,0,0,50,20.022Zm-4.648,5.57a3.774,3.774,0,0,0,.261,3.4l-1.687,1.7a3.806,3.806,0,0,0-5.621,2.359l-2.4.011a3.8,3.8,0,0,0-5.642-2.306l-1.7-1.688a3.778,3.778,0,0,0,.247-3.349,3.863,3.863,0,0,0-2.6-2.3l-.013-2.371a3.806,3.806,0,0,0,2.306-5.642l1.688-1.7a3.806,3.806,0,0,0,5.62-2.359l2.4-.011a3.806,3.806,0,0,0,5.642,2.306l1.7,1.688a3.806,3.806,0,0,0,2.359,5.621l.011,2.4A3.779,3.779,0,0,0,45.332,21.358Zm-8.3-9.208a5.816,5.816,0,1,0,5.815,5.816A5.822,5.822,0,0,0,37.035,12.15Zm0,9.535a3.718,3.718,0,1,1,3.718-3.719A3.723,3.723,0,0,1,37.035,21.684Z" transform="translate(359 231)" fill="#1c54f8" stroke="#fff" stroke-width="1"></path></g></g></svg> 