<?xml version="1.0" encoding="UTF-8"?> <svg xmlns="http://www.w3.org/2000/svg" xmlns:xlink="http://www.w3.org/1999/xlink" width="60" height="60" viewBox="0 0 60 60"><defs><clipPath id="clip-path"><rect id="Rectangle_25" data-name="Rectangle 25" width="60" height="60" transform="translate(643 89)" fill="#fff" stroke="#707070" stroke-width="1"></rect></clipPath></defs><g id="Mask_Group_16" data-name="Mask Group 16" transform="translate(-643 -89)" clip-path="url(#clip-path)"><g id="Group_30" data-name="Group 30" transform="translate(74.999 89)"><path id="Path_50" data-name="Path 50" d="M41.574,34.851l-9.1,2.447L31.08,36.65a3.655,3.655,0,0,0,.9-2.555,3.539,3.539,0,0,0-2-3.089l-5.573-2.777a3.946,3.946,0,0,0-2.791-.408l-7.766,1.986-.1-.375a1.509,1.509,0,0,0-1.847-1.067l-5.787,1.55a1.51,1.51,0,0,0-1.067,1.847L9.023,46.58A1.513,1.513,0,0,0,10.478,47.7a1.518,1.518,0,0,0,.392-.052L16.658,46.1a1.51,1.51,0,0,0,1.066-1.847L17.391,43l9.162,2.282a2.172,2.172,0,0,0,.53.066,3.119,3.119,0,0,0,.9-.16l.172-.049L43.249,41.1a2.928,2.928,0,0,0,2.108-2.132,3.616,3.616,0,0,0-.867-3.4A2.936,2.936,0,0,0,41.574,34.851ZM10.821,45.6,7.1,31.713l4.857-1.3L15.677,44.3Zm32.614-7.147a.949.949,0,0,1-.7.724L27.642,43.221l-.213.06c-.25.073-.328.09-.4.074L16.8,40.806l-2.432-9.077,7.744-1.98a1.964,1.964,0,0,1,1.41.26L29.1,32.787a1.617,1.617,0,0,1,.274,2.722.8.8,0,0,1-.542.093l-4.433-2.065a1,1,0,0,0-.84,1.8l3.518,1.638a1.031,1.031,0,0,0,.108.076,3.871,3.871,0,0,0,1.011.445l3.768,1.755a1,1,0,0,0,.678.059l9.452-2.541a.95.95,0,0,1,.993.2A1.612,1.612,0,0,1,43.435,38.453Zm-31.35,2.862a.995.995,0,1,1,1.922-.515l.4,1.476a1,1,0,1,1-1.922.515Zm35.6-26.078a1,1,0,0,0-.995-.99H46.67a1.644,1.644,0,0,1-1.189-2.856,1,1,0,0,0-.007-1.407L42.621,7.156a1,1,0,0,0-.7-.288h0a.994.994,0,0,0-.7.295A1.644,1.644,0,0,1,38.346,5.99.995.995,0,0,0,37.352,5h0l-4.017.019a1,1,0,0,0-.99,1,1.644,1.644,0,0,1-2.856,1.2,1.033,1.033,0,0,0-.705-.288.994.994,0,0,0-.7.295l-2.827,2.854a1,1,0,0,0,.007,1.407,1.644,1.644,0,0,1-1.172,2.867.995.995,0,0,0-.99,1l.021,3.973a1,1,0,0,0,.974.99,1.755,1.755,0,0,1,1.637,1.075,1.659,1.659,0,0,1-.415,1.826,1,1,0,0,0,.007,1.407l2.854,2.827a1,1,0,0,0,.7.288h0a.994.994,0,0,0,.7-.295,1.644,1.644,0,0,1,2.867,1.171,1,1,0,0,0,.995.991h0l4.017-.019a1,1,0,0,0,.99-1,1.644,1.644,0,0,1,2.856-1.2,1.051,1.051,0,0,0,.705.288.994.994,0,0,0,.7-.295l2.827-2.854a1,1,0,0,0-.007-1.407,1.644,1.644,0,0,1,1.172-2.867,1,1,0,0,0,.99-1Zm-4.41,5.286a3.581,3.581,0,0,0,.247,3.224l-1.6,1.616A3.611,3.611,0,0,0,36.583,27.6l-2.275.011a3.6,3.6,0,0,0-5.354-2.188l-1.617-1.6a3.585,3.585,0,0,0,.234-3.178,3.666,3.666,0,0,0-2.47-2.18l-.012-2.249a3.611,3.611,0,0,0,2.188-5.354l1.6-1.617A3.611,3.611,0,0,0,34.21,7l2.275-.011a3.611,3.611,0,0,0,5.354,2.188l1.616,1.6a3.611,3.611,0,0,0,2.238,5.333l.01,2.275A3.586,3.586,0,0,0,43.27,20.522ZM35.4,11.784A5.518,5.518,0,1,0,40.915,17.3,5.525,5.525,0,0,0,35.4,11.784Zm0,9.047A3.528,3.528,0,1,1,38.925,17.3,3.532,3.532,0,0,1,35.4,20.831Z" transform="translate(572 4)" fill="#1c54f8" stroke="#fff" stroke-width="0.4"></path></g></g></svg> 