<?xml version="1.0" encoding="UTF-8"?> <svg xmlns="http://www.w3.org/2000/svg" id="Layer_1" data-name="Layer 1" viewBox="0 0 80 80"><defs><style>.cls-1{fill:none;stroke:#1b54f8;stroke-miterlimit:10;stroke-width:2px;}</style></defs><g id="Software-Maintenance-Support"><g id="Maintenance"><path id="Fill-1" class="cls-1" d="M60.24,58.29a1.23,1.23,0,0,1-1.74,0l-8.67-8.66a1.23,1.23,0,0,1,1.74-1.75l8.67,8.67A1.23,1.23,0,0,1,60.24,58.29Zm-3.92,3.92a1.23,1.23,0,0,1-1.74,0l-8.67-8.66a1.23,1.23,0,0,1,0-1.74,1.21,1.21,0,0,1,1.74,0l8.67,8.66A1.23,1.23,0,0,1,56.32,62.21ZM51.54,43.08a2.22,2.22,0,0,0-3.12,0L46.51,45l-2.8-2.8L52.3,33.6a11.34,11.34,0,0,0,4.44.91h0A11.26,11.26,0,0,0,67.54,20.07a.67.67,0,0,0-.48-.46.68.68,0,0,0-.65.18l-7.09,7.1a12.39,12.39,0,0,1-3.48-2.73,12.58,12.58,0,0,1-2.75-3.47l7.09-7.11a.68.68,0,0,0,.18-.65.67.67,0,0,0-.47-.48A11.25,11.25,0,0,0,46.41,27.7l-8.6,8.59L29,27.49s0,0,0,0l-4-6.9a.89.89,0,0,0-.28-.3l-6.78-4.7a1,1,0,0,0-1.21.1l-3,3a.94.94,0,0,0-.11,1.2l4.71,6.79a1,1,0,0,0,.3.27l6.89,4,.05,0,8.8,8.8L27.7,46.41A11.25,11.25,0,0,0,12.46,59.93a.66.66,0,0,0,.48.46.68.68,0,0,0,.65-.18l7.08-7.11a12.46,12.46,0,0,1,3.48,2.74,12.13,12.13,0,0,1,2.75,3.47l-7.08,7.11a.68.68,0,0,0-.18.65.67.67,0,0,0,.47.48,11.26,11.26,0,0,0,14.4-10.82,11.26,11.26,0,0,0-.92-4.43l6.62-6.62L43,48.48,41.11,50.4A2.16,2.16,0,0,0,40.46,52a2.19,2.19,0,0,0,.65,1.56L54.61,67a2.22,2.22,0,0,0,3.12,0L65,59.7a2.19,2.19,0,0,0,.65-1.56A2.15,2.15,0,0,0,65,56.59Z"></path></g></g></svg> 