<?xml version="1.0" encoding="UTF-8"?> <svg xmlns="http://www.w3.org/2000/svg" xmlns:xlink="http://www.w3.org/1999/xlink" width="60" height="60" viewBox="0 0 60 60"><defs><clipPath id="clip-path"><rect id="Rectangle_87" data-name="Rectangle 87" width="60" height="60" transform="translate(771 1133)" fill="#fff" stroke="#707070" stroke-width="1"></rect></clipPath></defs><g id="Mask_Group_47" data-name="Mask Group 47" transform="translate(-771 -1133)" clip-path="url(#clip-path)"><g id="Group_73" data-name="Group 73" transform="translate(90.284 1.196)"><g id="Group_72" data-name="Group 72"><g id="Group_71" data-name="Group 71" transform="translate(684.716 1135.804)"><g id="Outline"><path id="Path_157" data-name="Path 157" d="M20.769,50.734a19.073,19.073,0,0,1-6.241-5.088.858.858,0,1,0-1.342,1.069,20.8,20.8,0,0,0,6.807,5.552.848.848,0,0,0,.388.093.858.858,0,0,0,.389-1.622Z" transform="translate(-3.564 -8.161)" fill="#1c54f8" stroke="#fff" stroke-width="0.4"></path><path id="Path_158" data-name="Path 158" d="M15.377,14.038A20.655,20.655,0,0,0,11.5,18.67a.858.858,0,0,0,1.463.9,18.957,18.957,0,0,1,3.554-4.249.858.858,0,0,0-1.141-1.282Z" transform="translate(-3.333 -3.681)" fill="#1c54f8" stroke="#fff" stroke-width="0.4"></path><path id="Path_159" data-name="Path 159" d="M52.136,22a.858.858,0,0,0,.772-1.236A20.628,20.628,0,0,0,50.48,16.94a.858.858,0,1,0-1.338,1.074,18.923,18.923,0,0,1,2.23,3.5A.858.858,0,0,0,52.136,22Z" transform="translate(-8.677 -4.079)" fill="#1c54f8" stroke="#fff" stroke-width="0.4"></path><path id="Path_160" data-name="Path 160" d="M47.576,49.312a20.706,20.706,0,0,0,2.91-3.14.858.858,0,0,0-1.372-1.029,18.98,18.98,0,0,1-2.67,2.878.858.858,0,0,0,1.131,1.287Z" transform="translate(-8.284 -8.087)" fill="#1c54f8" stroke="#fff" stroke-width="0.4"></path><circle id="Ellipse_3" data-name="Ellipse 3" cx="0.858" cy="0.858" r="0.858" transform="translate(35.169 41.603)" fill="#1c54f8" stroke="#fff" stroke-width="0.4"></circle><path id="Path_161" data-name="Path 161" d="M33.351,2H22.573A2.573,2.573,0,0,0,20,4.573v9.659a2.573,2.573,0,0,0,2.573,2.573h.957a2.349,2.349,0,0,0,4.375,0h8.715a2.349,2.349,0,0,0,4.375,0h1.547a.858.858,0,0,0,.858-.858V10.8a.84.84,0,0,0-.075-.349L41.481,6.315a1.608,1.608,0,0,0-1.458-.952h-4.1V4.573A2.573,2.573,0,0,0,33.351,2ZM21.716,4.573a.858.858,0,0,1,.858-.858H33.351a.858.858,0,0,1,.858.858v6H21.716Zm0,9.659V12.293H34.2v2.8H27.911a2.365,2.365,0,0,0-4.388,0h-.95A.858.858,0,0,1,21.716,14.232Zm4.006,2.35a.639.639,0,1,1,.635-.635A.639.639,0,0,1,25.721,16.582Zm13.081,0a.636.636,0,1,1,.454-.183A.639.639,0,0,1,38.8,16.582ZM41,15.09a2.364,2.364,0,0,0-4.387,0h-.692V11.942h5.764V15.09ZM39.943,7.078l1.4,3.148H35.924V7.078Z" transform="translate(-4.56 -2)" fill="#1c54f8" stroke="#fff" stroke-width="0.4"></path><path id="Path_162" data-name="Path 162" d="M58.867,26H46.858a.858.858,0,0,0-.858.858V38.867a.858.858,0,0,0,.858.858H58.867a.858.858,0,0,0,.858-.858V26.858A.858.858,0,0,0,58.867,26Zm-4.553,1.716v1.913h-2.9V27.716Zm3.7,10.293H47.716V27.716H49.7v2.771a.858.858,0,0,0,.858.858h4.618a.858.858,0,0,0,.858-.858V27.716h1.98Z" transform="translate(-8.257 -5.413)" fill="#1c54f8" stroke="#fff" stroke-width="0.4"></path><path id="Path_163" data-name="Path 163" d="M2.858,38.871H20.014a.858.858,0,0,0,.858-.858V25.728a.858.858,0,0,0-1.247-.764l-4.691,2.391.144-1.544a.858.858,0,0,0-1.258-.837L8.71,27.7l-.791-6.935A.858.858,0,0,0,7.065,20H3.793a.858.858,0,0,0-.852.761l-.935,8.188a.727.727,0,0,0-.006.1v8.967a.858.858,0,0,0,.858.858Zm.858-9.779.842-7.377H6.3l.847,7.428A.858.858,0,0,0,8.4,29.8l4.816-2.569-.138,1.515a.858.858,0,0,0,1.244.844l4.831-2.465V37.156H3.716Z" transform="translate(-2 -4.56)" fill="#1c54f8" stroke="#fff" stroke-width="0.4"></path><circle id="Ellipse_4" data-name="Ellipse 4" cx="1" cy="1" r="1" transform="translate(3.284 28.196)" fill="#1c54f8" stroke="#fff" stroke-width="0.4"></circle><circle id="Ellipse_5" data-name="Ellipse 5" cx="1" cy="1" r="1" transform="translate(8.284 28.196)" fill="#1c54f8" stroke="#fff" stroke-width="0.4"></circle><circle id="Ellipse_6" data-name="Ellipse 6" cx="1" cy="1" r="1" transform="translate(13.284 28.196)" fill="#1c54f8" stroke="#fff" stroke-width="0.4"></circle><path id="Path_164" data-name="Path 164" d="M23.188,59.427H38.345a.858.858,0,0,0,.858-.858,9.271,9.271,0,0,0-5.18-8.471,1.978,1.978,0,0,0,.033-.356v-3.32c0-1.409-1.447-2.513-3.294-2.513s-3.285,1.1-3.285,2.513v3.32a1.946,1.946,0,0,0,.033.353A9.269,9.269,0,0,0,22.33,58.57a.858.858,0,0,0,.858.858Zm6-13c0-.317.626-.8,1.57-.8s1.578.48,1.578.8v3.32a.438.438,0,0,1-.124.269,2.268,2.268,0,0,1-2.906,0,.465.465,0,0,1-.118-.273Zm-.737,5.124a4.136,4.136,0,0,0,4.614,0,7.4,7.4,0,0,1,4.373,6.164H24.09a7.4,7.4,0,0,1,4.365-6.164Z" transform="translate(-4.891 -7.96)" fill="#1c54f8" stroke="#fff" stroke-width="0.4"></path></g></g></g></g></g></svg> 