<?xml version="1.0" encoding="UTF-8"?> <svg xmlns="http://www.w3.org/2000/svg" width="80" height="80" viewBox="0 0 80 80"><g id="Group_477" data-name="Group 477" transform="translate(-2897 -918)"><g id="Rectangle_121" data-name="Rectangle 121" transform="translate(2897 918)" fill="#fff" stroke="#707070" stroke-width="1" stroke-dasharray="6 6"><rect width="80" height="80" rx="6" stroke="none"></rect><rect x="0.5" y="0.5" width="79" height="79" rx="5.5" fill="none"></rect></g><g id="Group_472" data-name="Group 472" transform="translate(-16.55 47.849)"><g id="Group_468" data-name="Group 468" transform="translate(413.616 159.23)"><path id="Path_482" data-name="Path 482" d="M100.5,10.72H89.454L88.389,9.087a.035.035,0,0,0-.036-.036,2.348,2.348,0,0,0-1.81-.817H78.981a.728.728,0,0,0-.746.746V25.1a1.152,1.152,0,0,0,1.172,1.136h6.781a.355.355,0,0,0,0-.71H79.407a.44.44,0,0,1-.462-.426V14.873h22.011V25.1a.44.44,0,0,1-.462.426h-.639a.355.355,0,0,0,0,.71h.639a1.152,1.152,0,0,0,1.172-1.136V11.891A1.286,1.286,0,0,0,100.5,10.72Zm-21.55,3.444V8.981c0-.036,0-.036.036-.036h7.562a1.589,1.589,0,0,1,1.243.568l1.172,1.775a.323.323,0,0,0,.284.142H100.46a.571.571,0,0,1,.462.426v2.308Z" transform="translate(2451.015 717.686)" fill="#1b54f8" stroke="#1b54f8" stroke-width="0.5"></path><path id="Path_483" data-name="Path 483" d="M218.713,198.806l3.834-3.479a1.061,1.061,0,0,0,.391-.817,1.21,1.21,0,0,0-.319-.852l-.994-1.1a1.191,1.191,0,0,0-1.7-.071l-1.633,1.42a.035.035,0,0,0-.036.036l-2.308,2.095-3.976-4.047a.343.343,0,0,0-.5,0l-3.692,3.621a.343.343,0,0,0,0,.5l3.834,3.87-2.627,2.414-.071.071-2.485,4.4a.377.377,0,0,0,.036.426.333.333,0,0,0,.391.071l4.579-2.024a.269.269,0,0,0,.142-.071l2.769-2.521c.249.249,4.4,4.473,4.4,4.473a.383.383,0,0,0,.249.106.323.323,0,0,0,.249-.106l3.692-3.621a.343.343,0,0,0,0-.5Zm-1.136-1.136,1.988-1.775.6.639-1.953,1.775Zm2.8-4.686a.5.5,0,0,1,.71.036l.994,1.1a.515.515,0,0,1,0,.71l-1.385,1.243-1.633-1.846Zm-1.917,1.74.6.639-1.988,1.811-.6-.639Zm-8.769,7.952,2.414-2.2.6.6-2.45,2.2Zm-.426.568,1.491,1.633-3.2,1.42Zm2.095,1.243-.639-.71,2.45-2.2.639.675Zm7.668,1.988-.888-.888,2.059-2.024a.352.352,0,0,0-.5-.5l-2.059,2.024-.887-.887,1.136-1.136a.352.352,0,0,0-.5-.5l-1.136,1.136-.852-.887,2.059-2.024a.351.351,0,1,0-.5-.5l-2.059,2.024-.852-.888L215.2,200.3a.351.351,0,0,0-.5-.5l-1.136,1.136-.852-.888,2.059-2.024a.351.351,0,1,0-.5-.5l-2.059,2.024-.852-.888,1.136-1.136a.351.351,0,1,0-.5-.5l-1.207,1.137-.852-.888L212,195.256a.352.352,0,1,0-.5-.5l-2.059,2.024-.888-.923,3.16-3.124,6.213,6.319,4.26,4.331Z" transform="translate(2328.395 541.955)" fill="#1b54f8" stroke="#1b54f8" stroke-width="0.5"></path><path id="Path_484" data-name="Path 484" d="M118.121,216.471h5.574a.355.355,0,0,0,0-.71h-5.574a.335.335,0,0,0-.355.355.382.382,0,0,0,.355.355Z" transform="translate(2413.189 519.106)" fill="#1b54f8" stroke="#1b54f8" stroke-width="0.5"></path><path id="Path_485" data-name="Path 485" d="M118.121,281.531h3.8a.355.355,0,1,0,0-.71h-3.8a.335.335,0,0,0-.355.355A.356.356,0,0,0,118.121,281.531Z" transform="translate(2413.189 456.851)" fill="#1b54f8" stroke="#1b54f8" stroke-width="0.5"></path><path id="Path_486" data-name="Path 486" d="M118.121,347.421h5.574a.355.355,0,0,0,0-.71h-5.574a.335.335,0,0,0-.355.355.382.382,0,0,0,.355.355Z" transform="translate(2413.189 393.801)" fill="#1b54f8" stroke="#1b54f8" stroke-width="0.5"></path></g><path id="Path_536" data-name="Path 536" d="M384.466,133.966a2.431,2.431,0,0,0-.712-1.637,2.463,2.463,0,0,0-1.794-.712,4.329,4.329,0,0,0-4.176,4.454l.129,3.972-.671,2.715a3.138,3.138,0,0,0-2.245.919l-4.417,4.42-1.529.264a4.917,4.917,0,0,0-2.634,1.361l-3.042,3.042a4.875,4.875,0,0,0-1.435,3.35l-.113,5.042a3.6,3.6,0,0,0-2.47,3.375l-.071,6.6a3.606,3.606,0,0,0,3.558,3.635l10.954.118h.039a3.605,3.605,0,0,0,3.6-3.558l.071-6.6a3.6,3.6,0,0,0-2.358-3.411l.022-.153a5.213,5.213,0,0,1,1.479-2.938l5.139-5.139a8.124,8.124,0,0,0,2.334-4.882l.545-5.173a3.32,3.32,0,0,0,.062-.584l0-.014c0-.008,0-.016,0-.024,0-.034,0-.066,0-.1Zm-8.778,30.741-.071,6.6a1.767,1.767,0,0,1-.537,1.252,1.826,1.826,0,0,1-1.263.51l-10.954-.117a1.789,1.789,0,0,1-1.762-1.8l.071-6.6a1.783,1.783,0,0,1,1.781-1.763h.019l10.954.117a1.789,1.789,0,0,1,1.762,1.8ZM380.5,151.8l-5.139,5.139a7.022,7.022,0,0,0-1.992,3.958l-.027.187-9.7-.1.108-4.824a3.07,3.07,0,0,1,.9-2.108l3.042-3.042a3.1,3.1,0,0,1,1.656-.855l1.816-.314a.875.875,0,0,0,.183-.053l.011-.006a.906.906,0,0,0,.288-.191l0,0,4.62-4.623a1.333,1.333,0,1,1,1.885,1.886l-5.308,5.308a.908.908,0,0,0,1.285,1.284l5.308-5.308a3.136,3.136,0,0,0-.47-4.837l.726-2.936c0-.01,0-.02,0-.03a.852.852,0,0,0,.013-.093c0-.032.006-.062.006-.094,0-.01,0-.02,0-.03l-.133-4.1a2.51,2.51,0,0,1,2.412-2.583.621.621,0,0,1,.642.6l.264,8.275-.061.582c0,.022-.006.043-.007.065l-.534,5.064A6.31,6.31,0,0,1,380.5,151.8Z" transform="translate(2595.717 761.183)" fill="#1b54f8"></path><path id="Path_537" data-name="Path 537" d="M479.687,432.678a1.553,1.553,0,1,1-1.553-1.553,1.553,1.553,0,0,1,1.553,1.553" transform="translate(2491.099 494.042)" fill="#1b54f8"></path><path id="Path_538" data-name="Path 538" d="M128.159,161.149l-.113-5.042a4.878,4.878,0,0,0-1.435-3.35l-3.042-3.042a4.923,4.923,0,0,0-2.631-1.361l-1.532-.265-4.417-4.42a3.141,3.141,0,0,0-2.245-.919l-.671-2.716.13-3.974a4.332,4.332,0,0,0-4.186-4.453,2.457,2.457,0,0,0-1.784.712,2.429,2.429,0,0,0-.712,1.64l-.266,8.348c0,.036,0,.07,0,.105v.015a3.292,3.292,0,0,0,.063.594l.545,5.17a8.12,8.12,0,0,0,2.334,4.883l5.139,5.139a5.213,5.213,0,0,1,1.478,2.935l.023.157a3.6,3.6,0,0,0-2.358,3.411l.071,6.6a3.605,3.605,0,0,0,3.6,3.558h.039l10.954-.117a3.606,3.606,0,0,0,3.558-3.635l-.071-6.6a3.6,3.6,0,0,0-2.471-3.374Zm-13.536-4.217-5.139-5.139A6.306,6.306,0,0,1,107.673,148l-.534-5.063c0-.022,0-.043-.007-.065l-.061-.582.264-8.273a.61.61,0,0,1,.182-.417.626.626,0,0,1,.45-.182A2.511,2.511,0,0,1,110.389,136l-.133,4.1c0,.01,0,.02,0,.03,0,.031,0,.062.006.094a.755.755,0,0,0,.014.093c0,.01,0,.02,0,.03l.726,2.936a3.136,3.136,0,0,0-.471,4.837l5.308,5.308a.908.908,0,0,0,1.285-1.284l-5.308-5.308a1.333,1.333,0,0,1,1.885-1.886l4.621,4.624,0,0a.912.912,0,0,0,.288.192l.011.005a.88.88,0,0,0,.183.053l1.819.314a3.086,3.086,0,0,1,1.654.854l3.042,3.042a3.066,3.066,0,0,1,.9,2.107l.108,4.825-9.7.1-.028-.191a7.013,7.013,0,0,0-1.991-3.955Zm13.751,15.477a1.766,1.766,0,0,1-1.252.537l-10.953.117a1.789,1.789,0,0,1-1.8-1.762l-.072-6.6a1.789,1.789,0,0,1,1.762-1.8l10.954-.117h.019a1.783,1.783,0,0,1,1.781,1.763l.071,6.6a1.767,1.767,0,0,1-.51,1.262Z" transform="translate(2822.295 761.19)" fill="#1b54f8"></path><path id="Path_539" data-name="Path 539" d="M197.777,432.678a1.554,1.554,0,1,1-1.553-1.553,1.554,1.554,0,0,1,1.553,1.553" transform="translate(2742.543 494.042)" fill="#1b54f8"></path></g></g></svg> 