<?xml version="1.0" encoding="UTF-8"?> <svg xmlns="http://www.w3.org/2000/svg" xmlns:xlink="http://www.w3.org/1999/xlink" width="90" height="90" viewBox="0 0 90 90"><defs><clipPath id="clip-path"><rect id="Rectangle_9" data-name="Rectangle 9" width="90" height="90" transform="translate(1174 72)" fill="#fff" stroke="#707070" stroke-width="1"></rect></clipPath></defs><g id="Mask_Group_6" data-name="Mask Group 6" transform="translate(-1174 -72)" clip-path="url(#clip-path)"><path id="Path_8" data-name="Path 8" d="M34.664,20.618A11.227,11.227,0,1,0,45.891,31.845,11.24,11.24,0,0,0,34.664,20.618Zm0,20.019a8.793,8.793,0,1,1,8.793-8.793A8.8,8.8,0,0,1,34.664,40.637Zm38.4.891a1.216,1.216,0,0,0-1.8-.79l-7.538,4.352a2.256,2.256,0,0,1-2.256-3.908l7.538-4.352a1.217,1.217,0,0,0,.214-1.951,12.815,12.815,0,0,0-3.948-2.475c0-.187.007-.375.007-.561a30.879,30.879,0,0,0-.315-4.4,4.834,4.834,0,0,0-4.82-4.175h-.016a6.132,6.132,0,0,1-5.31-9.208,4.837,4.837,0,0,0-1.2-6.26A30.593,30.593,0,0,0,46.01,3.391a4.835,4.835,0,0,0-6.027,2.1,6.132,6.132,0,0,1-10.637,0,4.834,4.834,0,0,0-6.027-2.1A30.559,30.559,0,0,0,15.694,7.8a4.835,4.835,0,0,0-1.2,6.26,6.132,6.132,0,0,1-5.31,9.208H9.173a4.834,4.834,0,0,0-4.82,4.175,30.971,30.971,0,0,0,0,8.8,4.835,4.835,0,0,0,4.82,4.175h.016a6.132,6.132,0,0,1,5.31,9.208,4.835,4.835,0,0,0,1.2,6.26A30.58,30.58,0,0,0,23.318,60.3a4.924,4.924,0,0,0,1.828.355,4.834,4.834,0,0,0,4.2-2.45,6.152,6.152,0,0,1,5.318-3.08,6.088,6.088,0,0,1,3.363,1L32.78,61.372a6.176,6.176,0,0,0,0,8.722L34.8,72.116a6.174,6.174,0,0,0,8.719,0l15.2-15.2A12.767,12.767,0,0,0,73.069,41.529Zm-38.4,11.161a8.591,8.591,0,0,0-7.428,4.3,2.419,2.419,0,0,1-3.016,1.049,28.149,28.149,0,0,1-7.018-4.06,2.42,2.42,0,0,1-.6-3.132A8.566,8.566,0,0,0,9.188,37.985H9.176A2.412,2.412,0,0,1,6.761,35.9a28.519,28.519,0,0,1,0-8.1,2.418,2.418,0,0,1,2.411-2.089h.016A8.566,8.566,0,0,0,16.6,12.845a2.419,2.419,0,0,1,.6-3.132A28.146,28.146,0,0,1,24.22,5.651,2.418,2.418,0,0,1,27.235,6.7a8.566,8.566,0,0,0,14.856,0,2.42,2.42,0,0,1,3.016-1.049,28.124,28.124,0,0,1,7.018,4.061,2.42,2.42,0,0,1,.6,3.132,8.566,8.566,0,0,0,7.416,12.861h.016a2.418,2.418,0,0,1,2.411,2.089,28.558,28.558,0,0,1,.288,3.922A12.787,12.787,0,0,0,47.976,46.179l-8.2,8.2A8.5,8.5,0,0,0,34.664,52.689Zm31.106.552a10.312,10.312,0,0,1-7.219,1.177,1.216,1.216,0,0,0-1.1.332L41.8,70.4a3.737,3.737,0,0,1-5.278,0L34.5,68.375a3.743,3.743,0,0,1,0-5.28L50.144,47.452a1.218,1.218,0,0,0,.332-1.1A10.33,10.33,0,0,1,66.238,35.627l-5.975,3.45a4.69,4.69,0,1,0,4.69,8.122l5.975-3.45A10.29,10.29,0,0,1,65.77,53.241Z" transform="translate(1180.461 81.008)" fill="#1c54f8" stroke="#fff" stroke-width="0.4"></path></g></svg> 