<?xml version="1.0" encoding="UTF-8"?> <svg xmlns="http://www.w3.org/2000/svg" width="61" height="61" viewBox="0 0 61 61" fill="none"><path d="M20.2 50C17.4 48.6 14.9 46.5 12.9 44.1C12.5 43.7 11.9 43.6 11.5 44C11.1 44.3 11 45 11.3 45.4C13.5 48.1 16.2 50.3 19.2 51.9C19.3 52 19.5 52 19.7 52C20.3 52 20.7 51.6 20.7 51C20.7 50.5 20.5 50.1 20.2 50Z" fill="#1B54F8"></path><path d="M14.2 12.4C12.4 14 10.9 15.8 9.70002 17.8C9.40002 18.3 9.60001 18.9 10 19.2C10.5 19.5 11.1 19.3 11.4 18.9C12.5 17.1 13.9 15.4 15.5 13.9C15.9 13.5 15.9 12.9 15.6 12.5C15.2 12.1 14.6 12 14.2 12.4Z" fill="#1B54F8"></path><path d="M50.8 21.2C51.4 21.2 51.8 20.8 51.8 20.2C51.8 20 51.8 19.9 51.7 19.8C50.9 18.2 50 16.7 48.9 15.3C48.6 14.9 47.9 14.8 47.5 15.1C47.1 15.4 47 16.1 47.3 16.5C48.3 17.8 49.2 19.1 49.9 20.6C50.1 21 50.4 21.2 50.8 21.2Z" fill="#1B54F8"></path><path d="M45.9 48.4C47.2 47.3 48.3 46.1 49.3 44.7C49.6 44.3 49.5 43.6 49.1 43.3C48.7 43 48 43.1 47.7 43.5C46.8 44.7 45.7 45.8 44.6 46.9C44.2 47.3 44.2 47.9 44.6 48.3C44.9 48.7 45.5 48.7 45.9 48.4Z" fill="#1B54F8"></path><path d="M42.1 50.8C42.6523 50.8 43.1 50.3523 43.1 49.8C43.1 49.2477 42.6523 48.8 42.1 48.8C41.5477 48.8 41.1 49.2477 41.1 49.8C41.1 50.3523 41.5477 50.8 42.1 50.8Z" fill="#1B54F8"></path><path d="M33.7 0.299988H21.1C19.4 0.299988 18.1 1.59999 18.1 3.29999V14.6C18.1 16.3 19.4 17.6 21.1 17.6H22.2C22.8 19 24.3 19.7 25.7 19.2C26.4 18.9 27 18.4 27.3 17.6H37.5C38.1 19 39.6 19.7 41 19.2C41.7 18.9 42.3 18.4 42.6 17.6H44.4C45 17.6 45.4 17.2 45.4 16.6V10.9V10.6C45.4 10.5 45.4 10.3 45.3 10.2L43.1 5.39999C42.8 4.69999 42.1 4.29999 41.4 4.29999H36.6V3.39999C36.7 1.69999 35.3 0.299988 33.7 0.299988ZM20.1 3.29999C20.1 2.69999 20.5 2.29999 21.1 2.29999H33.7C34.3 2.29999 34.7 2.69999 34.7 3.29999V5.20001V10.3H20.1V3.29999ZM20.1 14.6V12.3H34.7V15.6H27.4C26.8 14.2 25.2 13.5 23.8 14.1C23.1 14.4 22.6 14.9 22.3 15.6H21.2C20.6 15.6 20.1 15.1 20.1 14.6ZM24.8 17.3C24.4 17.3 24.1 17 24.1 16.6C24.1 16.2 24.4 15.9 24.8 15.9C25.2 15.9 25.5 16.2 25.5 16.6C25.5 17 25.2 17.3 24.8 17.3ZM40 17.3C39.6 17.3 39.3 17 39.3 16.5C39.3 16.1 39.6 15.8 40.1 15.8C40.5 15.8 40.8 16.1 40.8 16.5C40.8 17 40.5 17.3 40 17.3ZM42.6 15.6C42 14.2 40.4 13.5 39 14.1C38.3 14.4 37.8 14.9 37.5 15.6H36.7V11.9H43.4V15.6H42.6ZM41.4 6.29999L43 10H36.7V6.29999H41.4Z" fill="#1B54F8"></path><path d="M59.1 24.3H45.1C44.5 24.3 44.1 24.7 44.1 25.3V39.3C44.1 39.9 44.5 40.3 45.1 40.3H59.1C59.7 40.3 60.1 39.9 60.1 39.3V25.3C60.1 24.8 59.7 24.3 59.1 24.3ZM53.8 26.3V28.5H50.4V26.3H53.8ZM58.1 38.3H46.1V26.3H48.4V29.5C48.4 30.1 48.8 30.5 49.4 30.5H54.8C55.4 30.5 55.8 30.1 55.8 29.5V26.3H58.1V38.3Z" fill="#1B54F8"></path><path d="M1.10001 40.3H21.1C21.7 40.3 22.1 39.9 22.1 39.3V25C22.1 24.4 21.7 24 21.1 24C20.9 24 20.8 24 20.6 24.1L15.1 26.9L15.3 25.1C15.4 24.6 14.9 24.1 14.4 24C14.2 24 14 24 13.8 24.1L7.79999 27.3L6.89999 19.2C6.79999 18.7 6.39999 18.3 5.89999 18.3H2.10001C1.60001 18.3 1.20001 18.7 1.10001 19.2L0 28.7V28.8V39.3C0.1 39.9 0.600006 40.3 1.10001 40.3ZM2.10001 28.9L3.10001 20.3H5.10001L6.10001 29C6.20001 29.5 6.70001 29.9 7.20001 29.9C7.30001 29.9 7.40001 29.8 7.60001 29.8L13.2 26.8L13 28.6C12.9 29.1 13.4 29.6 13.9 29.7C14.1 29.7 14.3 29.7 14.4 29.6L20 26.7V38.4H2V28.9H2.10001Z" fill="#1B54F8"></path><path d="M5.10001 35.3C5.65229 35.3 6.10001 34.8523 6.10001 34.3C6.10001 33.7477 5.65229 33.3 5.10001 33.3C4.54772 33.3 4.10001 33.7477 4.10001 34.3C4.10001 34.8523 4.54772 35.3 5.10001 35.3Z" fill="#1B54F8"></path><path d="M11.1 35.3C11.6523 35.3 12.1 34.8523 12.1 34.3C12.1 33.7477 11.6523 33.3 11.1 33.3C10.5477 33.3 10.1 33.7477 10.1 34.3C10.1 34.8523 10.5477 35.3 11.1 35.3Z" fill="#1B54F8"></path><path d="M17.1 35.3C17.6523 35.3 18.1 34.8523 18.1 34.3C18.1 33.7477 17.6523 33.3 17.1 33.3C16.5477 33.3 16.1 33.7477 16.1 34.3C16.1 34.8523 16.5477 35.3 17.1 35.3Z" fill="#1B54F8"></path><path d="M21.4 60.3H39.1C39.7 60.3 40.1 59.9 40.1 59.3C40.2 55.1 37.8 51.3 34.1 49.4C34.1 49.3 34.1 49.1 34.1 49V45.1C34.1 43.5 32.4 42.2 30.3 42.2C28.1 42.2 26.5 43.5 26.5 45.1V49C26.5 49.1 26.5 49.3 26.5 49.4C22.7 51.2 20.4 55.1 20.5 59.3C20.4 59.9 20.9 60.3 21.4 60.3ZM28.4 45.2C28.4 44.8 29.1 44.3 30.2 44.3C31.3 44.3 32 44.9 32 45.2V49.1C32 49.2 31.9 49.3 31.9 49.4C30.9 50.2 29.5 50.2 28.5 49.4C28.4 49.3 28.4 49.2 28.4 49.1V45.2ZM27.6 51.1C29.2 52.2 31.4 52.2 33 51.1C35.9 52.4 37.8 55.1 38.1 58.3H22.5C22.7 55.2 24.7 52.4 27.6 51.1Z" fill="#1B54F8"></path></svg> 