<?xml version="1.0" encoding="UTF-8"?> <svg xmlns="http://www.w3.org/2000/svg" xmlns:xlink="http://www.w3.org/1999/xlink" width="90" height="90" viewBox="0 0 90 90"><defs><clipPath id="clip-path"><rect id="Rectangle_2" data-name="Rectangle 2" width="90" height="90" transform="translate(548 183)" fill="#fff"></rect></clipPath></defs><g id="Mask_Group_1" data-name="Mask Group 1" transform="translate(-548 -183)" clip-path="url(#clip-path)"><g id="Group_79" data-name="Group 79" transform="translate(-618.513 -29)"><path id="Path_53" data-name="Path 53" d="M162.608,71.123a14.04,14.04,0,0,0-14.452-3.384L134.389,53.973l18.486-18.486,4.632-2.443a1.314,1.314,0,0,0,.444-.383l6.154-8.426a1.3,1.3,0,0,0-.131-1.688l-3.7-3.7a1.3,1.3,0,0,0-1.688-.131l-8.426,6.154a1.3,1.3,0,0,0-.383.444l-2.443,4.632L128.843,48.429,115.078,34.664A14.075,14.075,0,0,0,97.361,16.788a1.3,1.3,0,0,0-.516,2.156l8.547,8.548-1.335,4.981-4.981,1.335-8.547-8.547a1.3,1.3,0,0,0-2.156.516,14.075,14.075,0,0,0,17.876,17.717l13.766,13.765L117.573,59.7l-1.243-1.243a3.868,3.868,0,0,0-5.459,0L86.457,82.871a1.3,1.3,0,0,0,0,1.84L98.107,96.361a1.3,1.3,0,0,0,1.84,0L124.36,71.948a3.868,3.868,0,0,0,0-5.459l-1.243-1.243,2.441-2.441L139.325,76.57a14.085,14.085,0,0,0,13.309,18.582,14.185,14.185,0,0,0,4.409-.706,1.3,1.3,0,0,0,.516-2.156l-8.547-8.547,1.335-4.981,4.981-1.335,8.547,8.547a1.3,1.3,0,0,0,2.156-.516,14.017,14.017,0,0,0-3.424-14.333ZM107.5,41.062a1.3,1.3,0,0,0-1.411-.284,11.475,11.475,0,0,1-15.729-12.01l7.41,7.41a1.3,1.3,0,0,0,1.257.337l6.433-1.723a1.3,1.3,0,0,0,.92-.92l1.723-6.433a1.3,1.3,0,0,0-.337-1.257l-7.41-7.41A11.476,11.476,0,0,1,112.365,34.5a1.3,1.3,0,0,0,.284,1.411l14.357,14.357-5.15,5.15Zm15.023,29.045L99.028,93.6,89.217,83.79,112.71,60.3a1.265,1.265,0,0,1,1.779,0l8.032,8.032a1.268,1.268,0,0,1,0,1.779Zm-3.108-8.568,29.9-29.9a1.318,1.318,0,0,0,.231-.313l2.394-4.54,7.284-5.32,2.13,2.13-5.32,7.284-4.54,2.394a1.306,1.306,0,0,0-.313.231L121.279,63.4Zm44.632,20.925-7.41-7.41a1.3,1.3,0,0,0-1.257-.337l-6.432,1.724a1.3,1.3,0,0,0-.92.92L146.3,83.793a1.3,1.3,0,0,0,.337,1.257l7.41,7.41a11.476,11.476,0,0,1-12.011-15.728,1.3,1.3,0,0,0-.284-1.412L127.4,60.962l5.15-5.15,14.357,14.357a1.3,1.3,0,0,0,1.411.284,11.475,11.475,0,0,1,15.728,12.01Z" transform="translate(1085.438 200.918)" fill="#1b54f8"></path></g></g></svg> 