<?xml version="1.0" encoding="UTF-8"?> <svg xmlns="http://www.w3.org/2000/svg" width="84" height="84" viewBox="0 0 84 84" fill="none"><mask id="mask0_17_33" style="mask-type:alpha" maskUnits="userSpaceOnUse" x="0" y="0" width="84" height="84"><path d="M41.6204 83.26H41.4604C40.6304 83.26 39.9604 82.59 39.9604 81.76C39.9604 80.93 40.6304 80.26 41.4604 80.26H41.6204C44.1904 80.26 46.7705 80 49.2705 79.5C50.0805 79.33 50.8704 79.86 51.0404 80.67C51.2004 81.48 50.6804 82.27 49.8704 82.44C47.1704 82.98 44.4004 83.26 41.6304 83.26H41.6204ZM31.5704 81.98C31.4504 81.98 31.3204 81.96 31.1904 81.93C28.5204 81.24 25.9004 80.27 23.4204 79.06C22.6804 78.7 22.3704 77.8 22.7304 77.05C23.0904 76.3 24.0004 76 24.7404 76.36C27.0504 77.49 29.4705 78.38 31.9505 79.02C32.7505 79.23 33.2304 80.05 33.0304 80.85C32.8604 81.53 32.2504 81.97 31.5804 81.97L31.5704 81.98ZM59.0305 79.28C58.4705 79.28 57.9404 78.97 57.6804 78.43C57.3204 77.68 57.6305 76.79 58.3805 76.43C60.6805 75.32 62.8905 73.97 64.9405 72.41C65.6005 71.91 66.5405 72.04 67.0405 72.7C67.5405 73.36 67.4105 74.3 66.7505 74.8C64.5405 76.47 62.1704 77.93 59.6904 79.13C59.4804 79.23 59.2604 79.28 59.0404 79.28H59.0305ZM15.7304 73.76C15.3904 73.76 15.0404 73.64 14.7604 73.41C12.6504 71.62 10.7104 69.62 9.00045 67.46C8.48045 66.81 8.59045 65.87 9.24045 65.35C9.89045 64.83 10.8304 64.94 11.3504 65.59C12.9404 67.6 14.7404 69.46 16.7004 71.11C17.3304 71.65 17.4104 72.59 16.8804 73.22C16.5804 73.57 16.1604 73.75 15.7304 73.75V73.76ZM72.9805 68.15C72.6505 68.15 72.3205 68.04 72.0405 67.82C71.3905 67.3 71.2905 66.36 71.8105 65.71C73.4105 63.7 74.8205 61.53 75.9905 59.26C76.3705 58.53 77.2705 58.23 78.0105 58.61C78.7505 58.99 79.0405 59.89 78.6605 60.63C77.4005 63.08 75.8805 65.42 74.1505 67.58C73.8505 67.95 73.4205 68.14 72.9805 68.14V68.15ZM4.98045 59.51C4.41045 59.51 3.86045 59.18 3.61045 58.62C2.48045 56.1 1.60045 53.45 0.990449 50.76C0.810449 49.95 1.32045 49.15 2.12045 48.97C2.93045 48.79 3.73045 49.3 3.91045 50.1C4.47045 52.6 5.29045 55.05 6.34045 57.39C6.68045 58.15 6.34045 59.03 5.59045 59.37C5.39045 59.46 5.18045 59.5 4.98045 59.5V59.51ZM80.7405 52.09C80.6305 52.09 80.5205 52.08 80.4005 52.05C79.5905 51.86 79.0905 51.06 79.2705 50.25C79.8405 47.76 80.1605 45.2 80.2305 42.62C80.2505 41.79 80.9405 41.13 81.7705 41.16C82.6005 41.18 83.2505 41.87 83.2305 42.7C83.1605 45.47 82.8105 48.24 82.2005 50.92C82.0405 51.61 81.4205 52.09 80.7405 52.09ZM1.50045 42.01C1.50045 42.01 1.47045 42.01 1.46045 42.01C0.630449 41.99 -0.0195506 41.3 0.000449404 40.47C0.0804494 37.7 0.43045 34.94 1.05045 32.25C1.24045 31.44 2.04045 30.94 2.85045 31.13C3.66045 31.32 4.16045 32.12 3.97045 32.93C3.39045 35.42 3.07045 37.98 3.00045 40.55C2.98045 41.36 2.31045 42.01 1.50045 42.01ZM80.7605 34.25C80.0705 34.25 79.4605 33.78 79.3005 33.08C78.7305 30.58 77.9105 28.13 76.8605 25.79C76.5205 25.04 76.8605 24.15 77.6105 23.81C78.3705 23.47 79.2505 23.81 79.5905 24.56C80.7305 27.08 81.6105 29.72 82.2305 32.42C82.4105 33.23 81.9105 34.03 81.1005 34.21C80.9905 34.24 80.8805 34.25 80.7705 34.25H80.7605ZM5.96045 24.73C5.73045 24.73 5.49045 24.68 5.27045 24.56C4.53045 24.18 4.25045 23.27 4.63045 22.54C5.90045 20.09 7.42045 17.76 9.15045 15.6C9.67045 14.96 10.6104 14.85 11.2604 15.37C11.9104 15.89 12.0104 16.83 11.4904 17.48C9.88045 19.48 8.47045 21.65 7.29045 23.92C7.02045 24.44 6.50045 24.73 5.96045 24.73ZM73.0205 18.16C72.5805 18.16 72.1405 17.97 71.8505 17.59C70.2505 15.59 68.4505 13.73 66.4905 12.08C65.8605 11.55 65.7805 10.6 66.3105 9.97C66.8405 9.34 67.7905 9.26 68.4205 9.79C70.5305 11.57 72.4705 13.57 74.2005 15.73C74.7205 16.38 74.6104 17.32 73.9604 17.84C73.6804 18.06 73.3505 18.17 73.0305 18.17L73.0205 18.16ZM17.4704 11.09C17.0204 11.09 16.5704 10.88 16.2704 10.49C15.7704 9.83 15.9004 8.89 16.5604 8.39C18.7704 6.72 21.1504 5.27 23.6304 4.08C24.3804 3.72 25.2704 4.04 25.6304 4.78C25.9904 5.53 25.6705 6.42 24.9305 6.78C22.6205 7.89 20.4104 9.24 18.3704 10.78C18.1004 10.98 17.7804 11.08 17.4704 11.08V11.09ZM59.0804 7C58.8604 7 58.6404 6.95 58.4304 6.85C56.1204 5.73 53.6904 4.84 51.2204 4.2C50.4204 3.99 49.9304 3.18 50.1404 2.37C50.3504 1.57 51.1604 1.09 51.9704 1.29C54.6404 1.98 57.2604 2.94 59.7504 4.14C60.5004 4.5 60.8104 5.4 60.4404 6.14C60.1804 6.67 59.6505 6.99 59.0905 6.99L59.0804 7ZM33.7404 3.77C33.0404 3.77 32.4105 3.28 32.2705 2.56C32.1105 1.75 32.6405 0.96 33.4505 0.8C36.1205 0.27 38.8605 0 41.6105 0C42.4405 0 43.1504 0.67 43.1504 1.5C43.1504 2.33 42.5204 3 41.6904 3H41.6105C39.0605 3 36.5204 3.25 34.0404 3.74C33.9404 3.76 33.8405 3.77 33.7505 3.77H33.7404ZM41.6105 13.57C26.1405 13.57 13.5504 26.15 13.5504 41.62C13.5504 57.09 26.1405 69.67 41.6105 69.67C57.0805 69.67 69.6705 57.09 69.6705 41.62C69.6705 26.15 57.0805 13.57 41.6105 13.57ZM26.0304 61.22C26.7604 55.81 30.2504 51.14 35.2404 48.95C35.7204 48.74 36.0504 48.3 36.1204 47.78C36.1904 47.26 35.9804 46.74 35.5804 46.41C33.2104 44.49 31.8405 41.63 31.8405 38.57C31.8405 33.01 36.3604 28.48 41.9204 28.48C47.4804 28.48 52.0005 33.01 52.0005 38.57C52.0005 41.74 50.5604 44.65 48.0504 46.57C47.6304 46.89 47.4104 47.4 47.4704 47.92C47.5304 48.44 47.8504 48.9 48.3204 49.12C53.1005 51.37 56.4605 55.98 57.1705 61.22C52.8905 64.63 47.4805 66.67 41.5905 66.67C35.7005 66.67 30.2904 64.62 26.0104 61.21L26.0304 61.22ZM59.7805 58.84C58.6105 54.14 55.6404 50.03 51.5404 47.46C53.7704 45.07 55.0205 41.93 55.0205 38.57C55.0205 31.35 49.1504 25.48 41.9404 25.48C34.7304 25.48 28.8605 31.35 28.8605 38.57C28.8605 41.78 30.0204 44.83 32.1004 47.2C27.7704 49.75 24.6504 53.96 23.4404 58.84C19.1804 54.35 16.5604 48.29 16.5604 41.63C16.5604 27.82 27.8004 16.58 41.6204 16.58C55.4404 16.58 66.6805 27.82 66.6805 41.63C66.6805 48.3 64.0604 54.36 59.8004 58.85L59.7805 58.84ZM15.8704 22.47V12.52C15.8704 11.69 15.2004 11.02 14.3704 11.02H4.43045C3.60045 11.02 2.93045 11.69 2.93045 12.52C2.93045 13.35 3.60045 14.02 4.43045 14.02H12.8704V22.47C12.8704 23.3 13.5404 23.97 14.3704 23.97C15.2004 23.97 15.8704 23.3 15.8704 22.47ZM80.5905 70.75C80.5905 69.92 79.9205 69.25 79.0905 69.25H70.6505V60.8C70.6505 59.97 69.9805 59.3 69.1505 59.3C68.3205 59.3 67.6505 59.97 67.6505 60.8V70.75C67.6505 71.58 68.3205 72.25 69.1505 72.25H79.0905C79.9205 72.25 80.5905 71.58 80.5905 70.75Z" fill="black"></path></mask><g mask="url(#mask0_17_33)"><rect x="-3" y="-3" width="90" height="86" fill="#1B54F8"></rect></g></svg> 