<?xml version="1.0" encoding="UTF-8"?> <svg xmlns="http://www.w3.org/2000/svg" xmlns:xlink="http://www.w3.org/1999/xlink" width="90" height="90" viewBox="0 0 90 90"><defs><clipPath id="clip-path"><rect id="Rectangle_2" data-name="Rectangle 2" width="90" height="90" transform="translate(268 81)" fill="#fff"></rect></clipPath></defs><g id="Mask_Group_1" data-name="Mask Group 1" transform="translate(-268 -81)" clip-path="url(#clip-path)"><g id="Group_1" data-name="Group 1" transform="translate(-9.8 -937.5)"><path id="Path_30" data-name="Path 30" d="M358.3,298.807v6.276a1.4,1.4,0,0,0,.717,1.166l1.793.9v9.234a1.226,1.226,0,0,0,1.255,1.255H369.6a1.226,1.226,0,0,0,1.255-1.255v-9.234l1.793-.9a1.2,1.2,0,0,0,.717-1.166v-6.276a6.256,6.256,0,0,0-3.586-5.648,4.934,4.934,0,0,0,1.076-3.138,5.021,5.021,0,1,0-10.041,0,4.934,4.934,0,0,0,1.076,3.138A6.256,6.256,0,0,0,358.3,298.807Zm7.531-11.3a2.51,2.51,0,1,1-2.51,2.51A2.506,2.506,0,0,1,365.831,287.51Zm-5.021,11.3a3.788,3.788,0,0,1,3.765-3.765h2.51a3.788,3.788,0,0,1,3.765,3.765v5.469l-1.793.9a1.2,1.2,0,0,0-.717,1.165v8.786h-5.021v-8.786a1.4,1.4,0,0,0-.717-1.165l-1.793-.9Z" transform="translate(-22.949 784.776)" fill="#1b54f8"></path><path id="Path_31" data-name="Path 31" d="M335.9,305.083a1.4,1.4,0,0,0,.717,1.166l1.793.9v9.234a1.226,1.226,0,0,0,1.255,1.255H347.2a1.226,1.226,0,0,0,1.255-1.255v-9.234l1.793-.9a1.2,1.2,0,0,0,.717-1.166v-6.276a6.256,6.256,0,0,0-3.586-5.648,4.934,4.934,0,0,0,1.076-3.138,5.021,5.021,0,1,0-10.041,0,4.934,4.934,0,0,0,1.076,3.138,6.106,6.106,0,0,0-3.586,5.648Zm7.531-17.572a2.51,2.51,0,1,1-2.51,2.51A2.451,2.451,0,0,1,343.431,287.51Zm-5.021,11.3a3.788,3.788,0,0,1,3.765-3.765h2.51a3.788,3.788,0,0,1,3.765,3.765v5.469l-1.793.9a1.2,1.2,0,0,0-.717,1.165v8.786h-5.021v-8.786a1.4,1.4,0,0,0-.717-1.165l-1.793-.9Z" transform="translate(-20.631 784.776)" fill="#1b54f8"></path><path id="Path_32" data-name="Path 32" d="M313.5,298.807v6.276a1.4,1.4,0,0,0,.717,1.166l1.793.9v9.234a1.226,1.226,0,0,0,1.255,1.255H324.8a1.226,1.226,0,0,0,1.255-1.255v-9.234l1.793-.9a1.2,1.2,0,0,0,.717-1.166v-6.276a6.256,6.256,0,0,0-3.586-5.648,4.934,4.934,0,0,0,1.076-3.138,5.021,5.021,0,1,0-10.041,0,4.934,4.934,0,0,0,1.076,3.138A6.106,6.106,0,0,0,313.5,298.807Zm7.531-11.3a2.51,2.51,0,1,1-2.51,2.51A2.451,2.451,0,0,1,321.031,287.51Zm-5.021,11.3a3.788,3.788,0,0,1,3.766-3.765h2.51a3.788,3.788,0,0,1,3.765,3.765v5.469l-1.793.9a1.2,1.2,0,0,0-.717,1.165v8.786h-5.021v-8.786a1.4,1.4,0,0,0-.717-1.165l-1.793-.9Z" transform="translate(-18.314 784.776)" fill="#1b54f8"></path><path id="Path_33" data-name="Path 33" d="M349.761,274.26a1.142,1.142,0,0,0-.986-.807L346,273.005l-1.255-2.69a1.319,1.319,0,0,0-1.7-.628,1.412,1.412,0,0,0-.628.628l-1.255,2.69-2.779.448a1.24,1.24,0,0,0-1.076,1.434,1.107,1.107,0,0,0,.359.717l2.062,2.152-.448,3.048a1.24,1.24,0,0,0,1.076,1.434.915.915,0,0,0,.807-.179l2.51-1.345,2.51,1.345a1.281,1.281,0,0,0,1.7-.448,1.332,1.332,0,0,0,.179-.807l-.448-3.048,2.062-2.152A1.731,1.731,0,0,0,349.761,274.26Zm-4.572,2.062a1.232,1.232,0,0,0-.359,1.076l.179,1.076-.807-.448a1.528,1.528,0,0,0-1.255,0l-.807.448.179-1.076a1.232,1.232,0,0,0-.359-1.076l-.807-.807,1.076-.179a1.388,1.388,0,0,0,.986-.717l.448-.9.448.9a1.388,1.388,0,0,0,.986.717l1.076.179Z" transform="translate(-20.775 786.37)" fill="#1b54f8"></path><path id="Path_34" data-name="Path 34" d="M378.71,234.5H300.8v2.51h77.91Z" transform="translate(-17 790)" fill="#1b54f8"></path><path id="Path_35" data-name="Path 35" d="M300.8,241.21h33.889v2.51a1.226,1.226,0,0,0,1.255,1.255h2.51v4.572a4.331,4.331,0,0,0-3.138,4.214.672.672,0,0,0,.09.448l-.179-.269-5.021,3.765a1.276,1.276,0,0,0-.448,1.434l2.51,7.531,2.421-.807-2.241-6.724,3.855-2.869a4.385,4.385,0,0,0,2.241,1.524v2.062h2.51V257.8a4.385,4.385,0,0,0,2.241-1.524l3.855,2.869-2.241,6.724,2.421.807,2.51-7.531a1.276,1.276,0,0,0-.448-1.434l-5.021-3.765-.179.269a.672.672,0,0,1,.09-.448,4.331,4.331,0,0,0-3.138-4.214v-4.572h2.51a1.226,1.226,0,0,0,1.255-1.255v-2.51H378.8V238.7H300.89v2.51Zm40.882,12.641a1.883,1.883,0,1,1-1.883-1.883A1.894,1.894,0,0,1,341.682,253.852Zm.628-11.386h-5.021V241.21h5.021Z" transform="translate(-17 789.565)" fill="#1b54f8"></path></g></g></svg> 