<?xml version="1.0" encoding="UTF-8"?> <svg xmlns="http://www.w3.org/2000/svg" xmlns:xlink="http://www.w3.org/1999/xlink" id="ehmbWC6pXwL1" viewBox="0 0 80 80" shape-rendering="geometricPrecision" text-rendering="geometricPrecision"><style><![CDATA[#ehmbWC6pXwL1{pointer-events: all}#ehmbWC6pXwL1:hover #ehmbWC6pXwL5 {animation: ehmbWC6pXwL5_s_w 1000ms linear 1 normal forwards}@keyframes ehmbWC6pXwL5_s_w { 0% {stroke-width: 2} 40% {stroke-width: 2;animation-timing-function: cubic-bezier(0.42,0,0.58,1)} 70% {stroke-width: 4;animation-timing-function: cubic-bezier(0.42,0,0.58,1)} 100% {stroke-width: 2}} #ehmbWC6pXwL1:hover #ehmbWC6pXwL6 {animation: ehmbWC6pXwL6_s_w 1000ms linear 1 normal forwards}@keyframes ehmbWC6pXwL6_s_w { 0% {stroke-width: 2} 40% {stroke-width: 2;animation-timing-function: cubic-bezier(0.42,0,0.58,1)} 70% {stroke-width: 4;animation-timing-function: cubic-bezier(0.42,0,0.58,1)} 100% {stroke-width: 2}} #ehmbWC6pXwL1:hover #ehmbWC6pXwL7 {animation: ehmbWC6pXwL7_s_w 1000ms linear 1 normal forwards}@keyframes ehmbWC6pXwL7_s_w { 0% {stroke-width: 2} 40% {stroke-width: 2;animation-timing-function: cubic-bezier(0.42,0,0.58,1)} 70% {stroke-width: 4;animation-timing-function: cubic-bezier(0.42,0,0.58,1)} 100% {stroke-width: 2}} #ehmbWC6pXwL1:hover #ehmbWC6pXwL8 {animation: ehmbWC6pXwL8_s_w 1000ms linear 1 normal forwards}@keyframes ehmbWC6pXwL8_s_w { 0% {stroke-width: 2} 40% {stroke-width: 2;animation-timing-function: cubic-bezier(0.42,0,0.58,1)} 70% {stroke-width: 4;animation-timing-function: cubic-bezier(0.42,0,0.58,1)} 100% {stroke-width: 2}} #ehmbWC6pXwL1:hover #ehmbWC6pXwL9 {animation: ehmbWC6pXwL9_s_w 1000ms linear 1 normal forwards}@keyframes ehmbWC6pXwL9_s_w { 0% {stroke-width: 2} 40% {stroke-width: 2;animation-timing-function: cubic-bezier(0.42,0,0.58,1)} 70% {stroke-width: 4;animation-timing-function: cubic-bezier(0.42,0,0.58,1)} 100% {stroke-width: 2}} #ehmbWC6pXwL1:hover #ehmbWC6pXwL10 {animation: ehmbWC6pXwL10_s_w 1000ms linear 1 normal forwards}@keyframes ehmbWC6pXwL10_s_w { 0% {stroke-width: 2} 40% {stroke-width: 2;animation-timing-function: cubic-bezier(0.42,0,0.58,1)} 70% {stroke-width: 4;animation-timing-function: cubic-bezier(0.42,0,0.58,1)} 100% {stroke-width: 2}} #ehmbWC6pXwL1:hover #ehmbWC6pXwL11_ts {animation: ehmbWC6pXwL11_ts__ts 1000ms linear 1 normal forwards}@keyframes ehmbWC6pXwL11_ts__ts { 0% {transform: translate(40px,39px) scale(1,1);animation-timing-function: cubic-bezier(0.42,0,0.58,1)} 20% {transform: translate(40px,39px) scale(0,0);animation-timing-function: cubic-bezier(0.42,0,0.58,1)} 40% {transform: translate(40px,39px) scale(1,1)} 100% {transform: translate(40px,39px) scale(1,1)}}]]></style><g id="ehmbWC6pXwL2"><g id="ehmbWC6pXwL3"><path id="ehmbWC6pXwL4" d="M76.3,2.5C77,2.5,77.5,3.1,77.5,3.7L77.5,76.2C77.5,76.9,76.9,77.4,76.3,77.4L3.7,77.4C3,77.4,2.5,76.8,2.5,76.2L2.5,3.7C2.5,3,3.1,2.5,3.7,2.5L76.3,2.5M76.3,0.5L3.7,0.5C2,0.5,0.5,2,0.5,3.7L0.5,76.2C0.5,78,2,79.4,3.7,79.4L76.2,79.4C78,79.4,79.4,77.9,79.4,76.2L79.4,3.7C79.5,2,78,0.5,76.3,0.5L76.3,0.5Z" fill="rgb(27,84,248)" stroke="none" stroke-width="1"></path></g><circle id="ehmbWC6pXwL5" r="5.1" transform="matrix(1 0 0 1 40 57.9)" fill="none" stroke="rgb(27,84,248)" stroke-width="2" stroke-miterlimit="10"></circle><path id="ehmbWC6pXwL6" d="M33.1,63.3C32,65.4,31.4,67.7,31.3,70C31.3,72.5,33.9,74.4,36.1,74.4L44,74.4C46.5,74.4,48.5,72.5,48.7,70L48.7,69.8C48.7,67.5,48.1,65.3,47,63.4" fill="none" stroke="rgb(27,84,248)" stroke-width="2" stroke-miterlimit="10"></path><path id="ehmbWC6pXwL7" d="M23.2,15.9C26,15.9,28.3,13.6,28.3,10.7C28.3,7.8,26,5.6,23.1,5.6C20.3,5.6,18,7.9,18,10.7C18,13.6,20.3,15.9,23.2,15.9C23.2,15.9,23.2,15.9,23.2,15.9Z" fill="none" stroke="rgb(27,84,248)" stroke-width="2" stroke-miterlimit="10"></path><path id="ehmbWC6pXwL8" d="M16.2,16.1C15.1,18.2,14.5,20.5,14.5,22.8C14.5,25.3,17,27.2,19.3,27.2L27.1,27.2C29.6,27.2,31.7,25.3,31.8,22.8L31.8,22.6C31.8,20.3,31.2,18.1,30.1,16.2" fill="none" stroke="rgb(27,84,248)" stroke-width="2" stroke-miterlimit="10"></path><path id="ehmbWC6pXwL9" d="M56.8,15.9C59.6,15.9,61.9,13.6,61.9,10.8C61.9,8,59.6,5.7,56.8,5.7C54,5.7,51.7,8,51.7,10.8L51.7,10.8C51.7,13.6,54,15.9,56.8,15.9Z" fill="none" stroke="rgb(27,84,248)" stroke-width="2" stroke-miterlimit="10"></path><path id="ehmbWC6pXwL10" d="M49.9,16.1C48.8,18.2,48.2,20.5,48.1,22.8C48.1,25.3,50.7,27.2,52.9,27.2L60.7,27.2C63.2,27.2,65.3,25.3,65.4,22.8L65.4,22.6C65.4,20.3,64.8,18.1,63.7,16.1" fill="none" stroke="rgb(27,84,248)" stroke-width="2" stroke-miterlimit="10"></path><g id="ehmbWC6pXwL11_ts" transform="translate(40,39) scale(1,1)"><g id="ehmbWC6pXwL11" transform="translate(-40,-39)"><circle id="ehmbWC6pXwL12" r="9" transform="matrix(1 0 0 1 40 39)" fill="none" stroke="rgb(27,84,248)" stroke-width="2" stroke-miterlimit="10"></circle><path id="ehmbWC6pXwL13" d="M44.3,39.8L40.8,39.8L40.8,43.3C40.8,43.8,40.4,44.1,40,44.1C39.5,44.1,39.2,43.7,39.2,43.3L39.2,39.8L35.7,39.8C35.2,39.8,34.9,39.4,34.9,39C34.9,38.5,35.3,38.2,35.7,38.2L39.2,38.2L39.2,34.7C39.2,34.2,39.6,33.9,40,33.9C40.5,33.9,40.8,34.3,40.8,34.7L40.8,38.2L44.3,38.2C44.8,38.2,45.1,38.6,45.1,39C45.2,39.5,44.8,39.8,44.3,39.8Z" fill="rgb(27,84,248)" stroke="none" stroke-width="1"></path></g></g></g></svg> 