<?xml version="1.0" encoding="UTF-8"?> <svg xmlns="http://www.w3.org/2000/svg" width="90" height="90" viewBox="0 0 90 90" fill="none"><mask id="mask0_1_47" style="mask-type:alpha" maskUnits="userSpaceOnUse" x="0" y="0" width="90" height="90"><rect width="90" height="90" fill="#D9D9D9"></rect></mask><g mask="url(#mask0_1_47)"><path d="M42.3066 25.579C41.5288 24.2539 43.5705 23.0825 44.3483 24.4076L45.2428 25.9438L49.0346 22.1992C50.1235 21.1238 51.8152 22.7561 50.7069 23.8507L45.8456 28.6707C45.3011 29.2084 44.3872 29.0932 43.9983 28.4211L42.3066 25.579ZM46.8179 16.4573C51.7958 16.4573 55.8404 20.4324 55.8404 25.3677C55.8404 30.2838 51.7958 34.2781 46.8179 34.2781C41.8399 34.2781 37.7954 30.2838 37.7954 25.3677C37.7954 20.4324 41.8399 16.4573 46.8179 16.4573ZM51.5236 20.7205C47.3429 16.5918 40.1677 19.5299 40.1677 25.3677C40.1677 31.2056 47.3429 34.1437 51.5236 30.015C54.1097 27.4417 54.1097 23.2746 51.5236 20.7205ZM45.1456 11.138V13.1159C45.1456 13.6728 44.7567 14.1337 44.2317 14.2489C42.9872 14.537 41.7621 15.0363 40.6927 15.6892C40.2065 15.9965 39.6037 15.9004 39.2343 15.5356L37.8148 14.1145L35.6759 12.9047L34.2175 14.345L35.462 16.4381L36.8814 17.8592C37.3092 18.2817 37.3481 18.9154 36.9981 19.3763C36.3953 20.2596 35.8314 21.7383 35.5786 22.7945C35.4425 23.3706 34.9175 23.7354 34.3536 23.697H32.4091L30.0173 24.3115V26.3471L32.3896 26.9616H34.4119C34.9953 26.9616 35.4814 27.3841 35.5786 27.941C35.7925 29.0164 36.4342 30.4374 37.037 31.3592C37.3287 31.8201 37.2509 32.4346 36.862 32.7995L35.4425 34.2205L34.198 36.3329L35.6564 37.7731L37.7954 36.5633L39.2148 35.1423C39.6426 34.7198 40.2843 34.7006 40.751 35.0271C41.6455 35.6224 43.1233 36.1793 44.2122 36.4289C44.7761 36.5441 45.165 37.0818 45.1261 37.6387V39.5399L45.7678 41.9019H47.829L48.4707 39.5591V37.5619C48.4707 36.9858 48.8985 36.5057 49.4624 36.4097C50.5513 36.1985 51.9902 35.5647 52.9236 34.9694C53.4097 34.6622 54.0125 34.7582 54.382 35.1423L55.8209 36.5633L57.9404 37.7731L59.3988 36.3329L58.1738 34.2205L56.7348 32.7995C56.307 32.377 56.2681 31.7433 56.6182 31.2824C57.2209 30.399 57.7849 28.9204 58.0376 27.8642C58.1543 27.3265 58.6404 26.9616 59.2043 26.9616H61.2266L63.5989 26.3471V24.3115L61.2072 23.697H59.2043C58.6404 23.697 58.1738 23.313 58.0376 22.7945C57.746 21.5654 57.2404 20.3748 56.5793 19.2994C56.2876 18.8194 56.3654 18.2241 56.7543 17.8592L58.1932 16.4381L59.4182 14.345L57.9599 12.9047L55.8404 14.1145L54.4014 15.5356C53.9736 15.958 53.3319 15.9965 52.8653 15.6508C51.9708 15.0555 50.493 14.4986 49.404 14.2489C48.8596 14.1337 48.4901 13.6536 48.4901 13.1159V11.138L47.8484 8.79517H45.7873L45.1456 11.138ZM42.7927 12.2326L42.8316 10.6963L43.7261 7.39332C43.8428 6.85562 44.3094 6.43315 44.8928 6.43315H48.7624C49.2874 6.43315 49.7735 6.77881 49.9096 7.2973C50.0457 7.81579 50.8624 10.6387 50.8624 10.9652V12.2134C51.7375 12.4822 52.5736 12.8087 53.3903 13.2504L54.2847 12.367C54.557 12.0982 56.9682 10.8115 57.5126 10.4659C57.9793 10.1586 58.6016 10.197 59.0099 10.6003L61.7516 13.308C62.1211 13.6728 62.2183 14.2489 61.9461 14.7098C61.6739 15.1707 60.2155 17.744 59.9821 17.9744L59.0877 18.8578C59.5155 19.6451 59.8655 20.4901 60.1377 21.3542L61.6933 21.3926L65.0379 22.276C65.5823 22.372 65.9907 22.8521 65.9907 23.4282V27.2497C65.9907 27.7682 65.6407 28.2482 65.1156 28.3827C64.5906 28.5171 61.7128 29.3236 61.4016 29.3236H60.1377C59.8655 30.1878 59.5155 31.0135 59.0877 31.8201L59.9821 32.7034C60.2544 32.9723 61.5572 35.3343 61.9072 35.8912C62.2183 36.3521 62.16 36.9666 61.7711 37.3699L59.0293 40.0776C58.6599 40.4424 58.0765 40.5384 57.6099 40.2504C57.1432 39.9815 54.5375 38.5413 54.3042 38.33L53.4097 37.4467C52.6125 37.8692 51.7569 38.234 50.8819 38.4837V39.7319C50.8819 40.0968 50.1041 42.6892 49.968 43.3229C49.8707 43.8606 49.3846 44.2639 48.8013 44.2639H44.9317C44.4067 44.2639 43.9205 43.9182 43.7844 43.3997L42.8705 40.0199L42.8316 38.4837C41.9566 38.234 41.1205 37.8884 40.3038 37.4467L39.4093 38.33C39.1371 38.5797 36.7259 39.8855 36.1814 40.212C35.7147 40.5192 35.0925 40.4808 34.6842 40.0776L31.9424 37.3699C31.5729 37.005 31.4757 36.4289 31.748 35.9488C32.0202 35.4879 33.4786 32.9147 33.7119 32.7034L34.6064 31.8201C34.1786 31.0327 33.8286 30.1878 33.5563 29.3236H32.2535C31.8841 29.3236 29.259 28.5555 28.6173 28.4211C28.0728 28.3059 27.6645 27.845 27.6645 27.2689V23.4474C27.6645 22.9289 28.0145 22.468 28.5395 22.3144L31.9619 21.4118L33.5175 21.3734C33.7897 20.5093 34.1397 19.6835 34.5675 18.877L33.673 17.9936C33.4008 17.744 32.098 15.3627 31.748 14.8058C31.4368 14.345 31.4952 13.7304 31.8841 13.3272L34.6258 10.6195C34.9953 10.2546 35.5786 10.1586 36.0453 10.4467C36.512 10.7155 39.1176 12.1558 39.351 12.367L40.2454 13.2504C41.0816 12.8279 41.9177 12.4822 42.7927 12.2326ZM76.9966 69.7276L79.8355 75.2198L85.9996 76.18C86.9719 76.3336 87.3219 77.505 86.6607 78.158L82.2273 82.5555L83.1995 88.643C83.3551 89.584 82.3439 90.2753 81.4884 89.8528L75.9271 87.0491L70.3658 89.8528C69.5297 90.2753 68.4796 89.6032 68.6741 88.547L69.6463 82.5171L65.2323 78.158C64.5517 77.4858 64.9212 76.3336 65.9129 76.18L72.0575 75.2198L74.8965 69.7276C75.3243 68.8827 76.5493 68.9019 76.9966 69.7276ZM78.0077 76.8329L75.9465 72.8386L73.8853 76.8137C73.7103 77.121 73.3992 77.3706 73.0103 77.4282L68.538 78.1387L71.7464 81.3073C71.9992 81.557 72.1353 81.941 72.077 82.3251L71.3575 86.7419C72.6992 86.0698 74.0603 85.3976 75.4021 84.7063C75.7326 84.5335 76.1215 84.5335 76.4715 84.7063L80.5161 86.7419L79.8161 82.3635C79.7383 81.9986 79.8355 81.5954 80.1272 81.3073L83.3356 78.1387L78.9411 77.4474C78.5522 77.4282 78.2021 77.1978 78.0077 76.8329ZM14.1308 69.7276L16.9697 75.2198L23.1338 76.18C24.1061 76.3336 24.4561 77.505 23.7949 78.158L19.3615 82.5363L20.3337 88.6238C20.4893 89.5648 19.4781 90.2561 18.6226 89.8336L13.0613 87.0299L7.5 89.8336C6.66386 90.2561 5.59438 89.584 5.80828 88.5278L6.78053 82.5171L2.34706 78.1387C1.66649 77.4666 2.03594 76.3144 3.02764 76.1608L9.17227 75.2006L12.0112 69.7084C12.4585 68.8827 13.703 68.9019 14.1308 69.7276ZM15.1225 76.8329L13.0807 72.8386L11.0195 76.8137C10.864 77.121 10.5334 77.3706 10.164 77.4282L5.69161 78.1387L8.90004 81.3073C9.15283 81.557 9.28894 81.9218 9.23061 82.3059L8.51114 86.7419C9.85285 86.0698 11.1946 85.3784 12.5557 84.7063C12.8863 84.5335 13.2752 84.5335 13.6252 84.7063L17.6698 86.7419L16.9697 82.3635C16.8919 81.9986 17.0086 81.5954 17.3003 81.3073L20.5087 78.1387L16.1141 77.4474C15.6864 77.4282 15.3169 77.1978 15.1225 76.8329ZM45.5539 69.7276L48.3929 75.2198L54.557 76.18C55.5292 76.3336 55.8792 77.505 55.2181 78.158L50.8041 82.5171L51.7763 88.6046C51.9319 89.5648 50.9208 90.2561 50.0652 89.8336L44.5039 87.0683L38.9426 89.872C38.1065 90.2945 37.0564 89.6224 37.2509 88.5662L38.2232 82.5363L33.8091 78.1771C33.1286 77.505 33.498 76.3528 34.4897 76.1992L40.6343 75.239L43.4733 69.7468C43.9011 68.8827 45.1261 68.9019 45.5539 69.7276ZM46.5651 76.8329L44.5039 72.8386L42.4427 76.8137C42.2872 77.121 41.9566 77.3706 41.5871 77.4282L37.1148 78.1387L40.3232 81.3073C40.576 81.557 40.7121 81.941 40.6538 82.3251L39.9343 86.7419C41.276 86.0698 42.6372 85.3976 43.9789 84.7063C44.3094 84.5335 44.6983 84.5335 45.0484 84.7063L49.0929 86.7419L48.3929 82.3443C48.3346 81.9794 48.4318 81.5954 48.7235 81.3073L51.9319 78.1387L47.5373 77.4474C47.129 77.4282 46.7595 77.1978 46.5651 76.8329ZM73.5548 30.6295L80.9633 42.0555C81.4495 42.8044 80.9244 43.8798 79.8939 43.8414L74.5465 43.8222L74.5659 48.7767C74.5854 54.9218 70.5991 55.7091 62.4906 55.7283L55.5876 55.6899V60.798C55.5876 61.547 54.5959 62.3151 54.0125 62.7568C51.9513 64.3315 48.8207 65.3109 45.4373 65.234C40.4982 65.1188 35.8897 62.872 32.6035 58.6473C32.4285 58.436 32.3508 58.1864 32.3508 57.9367L32.2146 51.5036C25.545 48.8727 21.0337 42.4588 21.0337 35.2383V17.5135C21.0337 7.8734 29.0062 0 38.7676 0H55.8209C65.5823 0 73.5548 7.8734 73.5548 17.5135V30.6295ZM77.7938 41.5178L71.4158 31.6857C71.2797 31.4936 71.1825 31.2632 71.1825 30.9943V17.5327C71.1825 9.17924 64.2795 2.34282 55.8209 2.34282H38.7676C30.3285 2.34282 23.406 9.17924 23.406 17.5327V35.2575C23.406 38.5221 24.4561 41.537 26.245 44.0335C28.0728 46.5683 30.6979 48.5463 33.7119 49.5832C34.1786 49.7177 34.5092 50.1401 34.5286 50.6394C34.5869 51.6956 34.6258 52.9823 34.6453 54.2497C34.6647 55.5171 34.7036 56.6693 34.7036 57.5335C35.3647 58.34 36.0648 59.0313 36.8037 59.6458C39.5065 61.8734 42.6177 62.8336 45.4762 62.8912C48.3151 62.9488 50.8819 62.1615 52.5541 60.8941C52.7875 60.7212 53.0014 60.5292 53.1958 60.3372V54.5185C53.1958 53.8656 53.7208 53.3471 54.382 53.3471L62.4517 53.4047C68.9852 53.3855 72.1936 52.867 72.1742 48.7767L72.1547 42.6508C72.1547 41.9979 72.6797 41.4986 73.3409 41.4986L77.7938 41.5178Z" fill="#1A53F6"></path></g></svg> 