<?xml version="1.0" encoding="UTF-8"?> <!-- Generator: Adobe Illustrator 25.2.2, SVG Export Plug-In . SVG Version: 6.00 Build 0) --> <svg xmlns="http://www.w3.org/2000/svg" xmlns:xlink="http://www.w3.org/1999/xlink" version="1.1" id="Layer_1" x="0px" y="0px" viewBox="0 0 80 80" style="enable-background:new 0 0 80 80;" xml:space="preserve"> <style type="text/css"> .st0{fill:#1B54F8;} </style> <path class="st0" d="M22.1,49.9c0,4.4,3.6,8,8,8h19.8c4.4,0,8-3.6,8-8V30.1c0-4.4-3.6-8-8-8H30.1c-4.4,0-8,3.6-8,8L22.1,49.9 L22.1,49.9z M25.1,30.1c0-2.7,2.2-4.9,4.9-4.9h19.9c2.7,0,4.9,2.2,4.9,4.9v19.9c0,2.7-2.2,4.9-4.9,4.9H30.1c-2.7,0-4.9-2.2-4.9-4.9 L25.1,30.1L25.1,30.1z"></path> <path class="st0" d="M36.5,18.9c0.8,0,1.5-0.7,1.5-1.5v-4.3c0.1-0.8-0.5-1.6-1.3-1.7s-1.6,0.5-1.7,1.3c0,0.1,0,0.2,0,0.3v4.3 C35,18.3,35.7,18.9,36.5,18.9z"></path> <path class="st0" d="M42,13.1v4.3c0.1,0.8,0.8,1.4,1.7,1.3c0.7-0.1,1.2-0.6,1.3-1.3v-4.3c0.1-0.8-0.5-1.6-1.3-1.7s-1.6,0.5-1.7,1.3 C42,12.9,42,13,42,13.1z"></path> <path class="st0" d="M28,8.3v9.2c0.1,0.8,0.8,1.4,1.7,1.3c0.7-0.1,1.2-0.6,1.3-1.3V8.3c-0.1-0.8-0.8-1.4-1.7-1.3 C28.6,7,28.1,7.6,28,8.3z"></path> <path class="st0" d="M49,8.3v9.2c-0.1,0.8,0.5,1.6,1.3,1.7s1.6-0.5,1.7-1.3c0-0.1,0-0.2,0-0.3V8.3c0.1-0.8-0.5-1.6-1.3-1.7 c-0.8-0.1-1.6,0.5-1.7,1.3C49,8,49,8.1,49,8.3z"></path> <path class="st0" d="M35,62.6v4.3c0.1,0.8,0.8,1.4,1.7,1.3c0.7-0.1,1.2-0.6,1.3-1.3v-4.3c0.1-0.8-0.5-1.6-1.3-1.7s-1.6,0.5-1.7,1.3 C35,62.3,35,62.5,35,62.6z"></path> <path class="st0" d="M42,62.6v4.3c0.1,0.8,0.8,1.4,1.7,1.3c0.7-0.1,1.2-0.6,1.3-1.3v-4.3c-0.1-0.8-0.8-1.4-1.7-1.3 C42.6,61.3,42.1,61.9,42,62.6z"></path> <path class="st0" d="M28,62.6v9.2c0.1,0.8,0.8,1.4,1.7,1.3c0.7-0.1,1.2-0.6,1.3-1.3v-9.2c-0.1-0.8-0.8-1.4-1.7-1.3 C28.6,61.3,28.1,61.9,28,62.6z"></path> <path class="st0" d="M49,62.6v9.2c0.1,0.8,0.8,1.4,1.7,1.3c0.7-0.1,1.2-0.6,1.3-1.3v-9.2c0.1-0.8-0.5-1.6-1.3-1.7s-1.6,0.5-1.7,1.3 C49,62.3,49,62.5,49,62.6z"></path> <path class="st0" d="M66.9,35h-4.3c-0.8-0.1-1.6,0.5-1.7,1.3s0.5,1.6,1.3,1.7c0.1,0,0.2,0,0.3,0h4.3c0.8,0.1,1.6-0.5,1.7-1.3 s-0.5-1.6-1.3-1.7C67.1,35,67,35,66.9,35z"></path> <path class="st0" d="M66.9,42h-4.3c-0.8-0.1-1.6,0.5-1.7,1.3s0.5,1.6,1.3,1.7c0.1,0,0.2,0,0.3,0h4.3c0.8,0.1,1.6-0.5,1.7-1.3 s-0.5-1.6-1.3-1.7C67.1,42,67,42,66.9,42z"></path> <path class="st0" d="M71.7,28h-9.2c-0.8-0.1-1.6,0.5-1.7,1.3c-0.1,0.8,0.5,1.6,1.3,1.7c0.1,0,0.2,0,0.3,0h9.2 c0.8,0.1,1.6-0.5,1.7-1.3c0.1-0.8-0.5-1.6-1.3-1.7C72,28,71.9,28,71.7,28z"></path> <path class="st0" d="M71.7,49h-9.2c-0.8-0.1-1.6,0.5-1.7,1.3s0.5,1.6,1.3,1.7c0.1,0,0.2,0,0.3,0h9.2c0.8,0.1,1.6-0.5,1.7-1.3 s-0.5-1.6-1.3-1.7C72,49,71.9,49,71.7,49z"></path> <path class="st0" d="M13.1,38h4.3c0.8-0.1,1.4-0.8,1.3-1.7c-0.1-0.7-0.6-1.2-1.3-1.3h-4.3c-0.8,0.1-1.4,0.8-1.3,1.7 C11.8,37.4,12.4,37.9,13.1,38z"></path> <path class="st0" d="M13.1,45h4.3c0.8,0.1,1.6-0.5,1.7-1.3s-0.5-1.6-1.3-1.7c-0.1,0-0.2,0-0.3,0h-4.3c-0.8,0.1-1.4,0.8-1.3,1.7 C11.8,44.4,12.4,44.9,13.1,45z"></path> <path class="st0" d="M6.8,29.5c0,0.8,0.6,1.5,1.5,1.5c0,0,0,0,0,0h9.2c0.8,0.1,1.6-0.5,1.7-1.3c0.1-0.8-0.5-1.6-1.3-1.7 c-0.1,0-0.2,0-0.3,0H8.3C7.4,28,6.8,28.7,6.8,29.5z"></path> <path class="st0" d="M8.3,52h9.2c0.8,0.1,1.6-0.5,1.7-1.3s-0.5-1.6-1.3-1.7c-0.1,0-0.2,0-0.3,0H8.3c-0.8,0.1-1.4,0.8-1.3,1.7 C7,51.4,7.6,51.9,8.3,52z"></path> <path class="st0" d="M32.5,49h14.9c0.8,0,1.5-0.6,1.5-1.5c0,0,0-0.1,0-0.1V32.5c0-0.8-0.6-1.5-1.5-1.5c0,0-0.1,0-0.1,0H32.5 c-0.8,0-1.5,0.6-1.5,1.5c0,0,0,0.1,0,0.1v14.9C31,48.3,31.6,49,32.5,49C32.5,49,32.5,49,32.5,49z M34,34.1h12V46H34V34.1L34,34.1z"></path> </svg> 