<?xml version="1.0" encoding="UTF-8"?> <svg xmlns="http://www.w3.org/2000/svg" width="91" height="91" viewBox="0 0 91 91" fill="none"><mask id="mask0_2_241" style="mask-type:luminance" maskUnits="userSpaceOnUse" x="0" y="0" width="91" height="91"><path d="M90.23 0.25H0.230011V90.25H90.23V0.25Z" fill="white"></path></mask><g mask="url(#mask0_2_241)"><path d="M36.13 66.77C38.41 66.9 40.51 67.67 42.27 68.92H54.76C55.16 64.91 58.22 61.63 62.16 60.93C55.86 55.96 55.28 46.59 60.98 40.9C66.22 35.66 74.72 35.66 79.96 40.9C85.65 46.59 85.08 55.96 78.78 60.93C83.03 61.69 86.22 65.42 86.22 69.81V77.32C86.22 78.15 85.55 78.83 84.71 78.83H75.68V84.19C75.68 85.02 75 85.69 74.17 85.69H47.27V88.87C47.27 89.7 46.6 90.38 45.76 90.38H6.69002C5.85002 90.38 5.18002 89.7 5.18002 88.87V78.57C5.18002 72.31 10.11 67.13 16.33 66.78C6.98002 60.53 5.63002 47.28 13.61 39.3C20.58 32.33 31.88 32.33 38.86 39.3C46.83 47.27 45.48 60.52 36.13 66.77ZM45.23 71.94C46.52 73.83 47.28 76.12 47.28 78.57V82.69H72.67V71.95L45.23 71.94ZM35.47 69.77H16.99C12.15 69.77 8.20002 73.73 8.20002 78.56V87.35H44.26V78.56C44.26 73.73 40.3 69.77 35.47 69.77ZM36.72 41.42C30.93 35.62 21.54 35.62 15.74 41.42C9.94002 47.21 9.94002 56.61 15.74 62.4C21.54 68.2 30.93 68.2 36.72 62.4C42.51 56.61 42.51 47.21 36.72 41.42ZM57.8 68.92H74.17C75 68.92 75.68 69.6 75.68 70.43V75.82H83.2V69.82C83.2 66.52 80.5 63.82 77.2 63.82H63.74C60.76 63.81 58.24 66.02 57.8 68.92ZM77.83 43.04C73.77 38.97 67.18 38.97 63.12 43.04C59.05 47.1 59.05 53.69 63.12 57.75C67.18 61.81 73.77 61.81 77.83 57.75C81.89 53.69 81.89 47.1 77.83 43.04ZM61.28 4.18999H30.41C28.87 4.18999 27.6 5.45999 27.6 7.00999V22.24C27.6 23.78 28.87 25.06 30.41 25.06H40.5C40.94 25.06 41.34 25.25 41.61 25.56L51.56 35.03L50.33 26.8C50.2 25.89 50.91 25.07 51.82 25.07H61.29C62.83 25.07 64.11 23.8 64.11 22.25V7.00999C64.1 5.46999 62.83 4.18999 61.28 4.18999ZM30.41 1.17999H61.28C64.49 1.17999 67.11 3.79999 67.11 7.00999V22.24C67.11 25.45 64.49 28.07 61.28 28.07H53.57L55.19 38.91C55.4 40.31 53.7 41.21 52.66 40.22L39.9 28.07H30.41C27.2 28.07 24.58 25.45 24.58 22.24V7.00999C24.58 3.79999 27.2 1.17999 30.41 1.17999Z" fill="#1B54F8" stroke="white" stroke-width="0.25" stroke-miterlimit="10"></path></g></svg> 