<?xml version="1.0" encoding="UTF-8"?> <svg xmlns="http://www.w3.org/2000/svg" id="Layer_1" data-name="Layer 1" viewBox="0 0 80 80"><defs><style>.cls-1{fill:none;}.cls-2{fill:#1b54f8;stroke:#1b54f8;stroke-miterlimit:10;stroke-width:0.5px;}</style></defs><rect id="Rectangle-Copy-9" class="cls-1" width="80" height="80"></rect><g id="noun_Medical-app_1077191" data-name="noun Medical-app 1077191"><path id="Path" class="cls-2" d="M53.39,40.39H49.61V36.61a.61.61,0,0,0-1.22,0v3.78H44.61a.61.61,0,0,0,0,1.22h3.78v3.78a.61.61,0,0,0,1.22,0V41.61h3.78A.61.61,0,0,0,54,41,.61.61,0,0,0,53.39,40.39Z"></path><path id="Path-2" data-name="Path" class="cls-2" d="M30.58,19h3.84a.51.51,0,1,0,0-1H30.58a.51.51,0,1,0,0,1Z"></path><path id="Path-3" data-name="Path" class="cls-2" d="M28.5,19a.45.45,0,0,0,.35-.15.42.42,0,0,0,.11-.16.58.58,0,0,0,0-.19.53.53,0,0,0-.15-.36.5.5,0,0,0-.7,0,.53.53,0,0,0-.15.36.47.47,0,0,0,.15.35A.45.45,0,0,0,28.5,19Z"></path><path id="Shape" class="cls-2" d="M31.5,59A2.5,2.5,0,1,0,34,61.5,2.5,2.5,0,0,0,31.5,59Zm0,3.61a1.11,1.11,0,1,1,1.11-1.11A1.11,1.11,0,0,1,31.5,62.61Z"></path><path id="Shape-2" data-name="Shape" class="cls-2" d="M58.53,28.19A7.94,7.94,0,0,0,49,31.11a9.33,9.33,0,0,0-2-2V18.42A3.44,3.44,0,0,0,43.52,15H19.46A3.44,3.44,0,0,0,16,18.42V62.59A3.44,3.44,0,0,0,19.46,66H43.52A3.44,3.44,0,0,0,47,62.59V52.54c1,.51,1.69.79,1.74.81a.7.7,0,0,0,.25,0,.69.69,0,0,0,.24,0,33.5,33.5,0,0,0,6.4-3.62c4.4-3.15,7.2-6.87,8.1-10.74A9,9,0,0,0,58.53,28.19ZM45.69,62.59a2.15,2.15,0,0,1-2.17,2.13H19.46a2.16,2.16,0,0,1-2.17-2.13V18.42a2.16,2.16,0,0,1,2.17-2.14H43.52a2.16,2.16,0,0,1,2.17,2.14v9.94a7.47,7.47,0,0,0-1.76-.6v-7a.64.64,0,0,0-.64-.64H19.69a.65.65,0,0,0-.65.64V57.35a.64.64,0,0,0,.65.64h23.6a.64.64,0,0,0,.64-.64V50.81c.62.4,1.21.75,1.76,1ZM34.23,39c.9,3.87,3.7,7.59,8.09,10.74l.32.22h0v6.76H20.34V21.43h22.3V27.6a8.13,8.13,0,0,0-3.24.59A9.05,9.05,0,0,0,34.23,39Zm28.22-.29C60.6,46.67,50.66,51.33,49,52.06c-1.69-.73-11.63-5.38-13.48-13.36a7.8,7.8,0,0,1,4.4-9.33,6.79,6.79,0,0,1,2.53-.49,7,7,0,0,1,6,3.7.67.67,0,0,0,1.1,0c2.43-3.92,6-4.22,8.52-3.21A7.79,7.79,0,0,1,62.45,38.7Z"></path></g></svg> 