<?xml version="1.0" encoding="UTF-8"?> <svg xmlns="http://www.w3.org/2000/svg" xmlns:xlink="http://www.w3.org/1999/xlink" width="60" height="60" viewBox="0 0 60 60"><defs><clipPath id="clip-path"><rect id="Rectangle_808" data-name="Rectangle 808" width="60" height="60" transform="translate(1021 796)" fill="#fff" stroke="#707070" stroke-width="1"></rect></clipPath></defs><g id="Mask_Group_92" data-name="Mask Group 92" transform="translate(-1021 -796)" clip-path="url(#clip-path)"><g id="Group_139" data-name="Group 139" transform="translate(-93 66)"><path id="Path_201" data-name="Path 201" d="M45.12,44.013l1.22,1.178a14.511,14.511,0,0,0,1.474-1.8l-1.381-.974a13.39,13.39,0,0,1-1.3,1.593Z" transform="translate(1110.408 726.821)" fill="#1c54f8"></path><path id="Path_202" data-name="Path 202" d="M27.414,2A25.414,25.414,0,1,0,52.828,27.414,25.445,25.445,0,0,0,27.414,2Zm-.4,1.7,2.7,3.38L26.99,10.5A16.96,16.96,0,0,0,10.556,25.72L7.608,23.365a.853.853,0,0,0-1.059,0L3.77,25.592A23.746,23.746,0,0,1,27.016,3.7ZM3.7,27.812l3.38-2.7L10.5,27.837A16.96,16.96,0,0,0,25.72,44.272L23.365,47.22a.853.853,0,0,0,0,1.059l2.228,2.779A23.739,23.739,0,0,1,3.711,27.812ZM27.812,51.125l-2.7-3.38,2.728-3.405a16.69,16.69,0,0,0,9.971-3.549l-1.042-1.338a15.015,15.015,0,0,1-9.344,3.211,15.261,15.261,0,1,1,13.427-8.031l1.491.8A16.81,16.81,0,0,0,44.272,29.1l2.948,2.363a.833.833,0,0,0,1.05,0l2.779-2.228A23.739,23.739,0,0,1,27.8,51.116ZM47.745,29.718,44.331,26.99A16.96,16.96,0,0,0,29.108,10.556l2.355-2.948a.853.853,0,0,0,0-1.059L29.235,3.77A23.739,23.739,0,0,1,51.116,27.016l-3.38,2.7Z" transform="translate(1117 733)" fill="#1c54f8"></path><path id="Path_203" data-name="Path 203" d="M42.385,32.96a.874.874,0,0,0-.119-.695.827.827,0,0,0-.6-.364,2.211,2.211,0,0,1,0-4.388.847.847,0,0,0,.72-1.059,13.475,13.475,0,0,0-1.423-3.422.829.829,0,0,0-.576-.4.846.846,0,0,0-.678.169,2.21,2.21,0,0,1-3.1-3.1.842.842,0,0,0-.237-1.254,13.475,13.475,0,0,0-3.422-1.423.874.874,0,0,0-.695.119.827.827,0,0,0-.364.6,2.211,2.211,0,0,1-4.388,0,.843.843,0,0,0-.364-.6.868.868,0,0,0-.695-.119,13.476,13.476,0,0,0-3.422,1.423.867.867,0,0,0-.407.576.846.846,0,0,0,.169.678,2.21,2.21,0,0,1-3.1,3.1A.854.854,0,0,0,19,22.633a.875.875,0,0,0-.576.4,13.789,13.789,0,0,0-1.423,3.422.874.874,0,0,0,.119.695.827.827,0,0,0,.6.364,2.211,2.211,0,0,1,0,4.388.847.847,0,0,0-.72,1.059,13.476,13.476,0,0,0,1.423,3.422.829.829,0,0,0,.576.4.846.846,0,0,0,.678-.169,2.21,2.21,0,0,1,3.1,3.1.842.842,0,0,0,.237,1.254,13.475,13.475,0,0,0,3.422,1.423.874.874,0,0,0,.695-.119.827.827,0,0,0,.364-.6,2.211,2.211,0,0,1,4.388,0,.843.843,0,0,0,.364.6.867.867,0,0,0,.474.144.9.9,0,0,0,.212-.025,13.475,13.475,0,0,0,3.422-1.423.867.867,0,0,0,.407-.576.846.846,0,0,0-.169-.678,2.21,2.21,0,0,1,3.1-3.1.854.854,0,0,0,.678.169.875.875,0,0,0,.576-.4,13.788,13.788,0,0,0,1.423-3.422Zm-2.474,1.813a3.907,3.907,0,0,0-5.134,5.134,12.42,12.42,0,0,1-1.432.593,3.911,3.911,0,0,0-7.268,0,12.42,12.42,0,0,1-1.432-.593,3.907,3.907,0,0,0-5.134-5.134,11.078,11.078,0,0,1-.593-1.432,3.911,3.911,0,0,0,0-7.268,12.42,12.42,0,0,1,.593-1.432,3.907,3.907,0,0,0,5.134-5.134,12.42,12.42,0,0,1,1.432-.593,3.911,3.911,0,0,0,7.268,0,12.42,12.42,0,0,1,1.432.593,3.907,3.907,0,0,0,5.134,5.134,11.079,11.079,0,0,1,.593,1.432,3.911,3.911,0,0,0,0,7.268A12.42,12.42,0,0,1,39.912,34.773Z" transform="translate(1114.71 730.707)" fill="#1c54f8"></path><path id="Path_204" data-name="Path 204" d="M30.93,25a5.93,5.93,0,1,0,5.93,5.93A5.936,5.936,0,0,0,30.93,25Zm0,10.166a4.236,4.236,0,1,1,4.236-4.236A4.237,4.237,0,0,1,30.93,35.166Z" transform="translate(1113.484 729.484)" fill="#1c54f8"></path></g></g></svg> 