<?xml version="1.0" encoding="UTF-8"?> <!-- Generator: Adobe Illustrator 25.2.3, SVG Export Plug-In . SVG Version: 6.00 Build 0) --> <svg xmlns="http://www.w3.org/2000/svg" xmlns:xlink="http://www.w3.org/1999/xlink" version="1.1" id="Layer_1" x="0px" y="0px" viewBox="0 0 94 94" style="enable-background:new 0 0 94 94;" xml:space="preserve"> <style type="text/css"> .st0{fill:#E6EEFF;} .st1{fill:#1B54F8;} </style> <desc>Created with Sketch.</desc> <path class="st0" d="M87.5,93.5h-81c-3.3,0-6-2.7-6-6v-81c0-3.3,2.7-6,6-6h81c3.3,0,6,2.7,6,6v81C93.5,90.8,90.8,93.5,87.5,93.5z"></path> <g> <g> <path class="st1" d="M42.2,49.9c0,2,1.6,3.6,3.6,3.7c1.5,0,2.7-0.7,3.4-2c1.6-3,3.2-6,5.2-8.9l1.5-2.2l-11.7,6 C43,47.2,42.2,48.5,42.2,49.9z"></path> <path class="st1" d="M71.2,50.8c-0.6,0-1-0.5-1-1c0-0.6,0.5-1,1-1h5.3c-0.3-7.4-3.2-14-7.9-19.1l-3.8,3.8 c-0.2,0.2-0.5,0.3-0.7,0.3c-0.3,0-0.5-0.1-0.7-0.3c-0.4-0.4-0.4-1,0-1.4l3.8-3.8c-5.1-4.7-11.8-7.7-19.2-7.9v5.3c0,0.6-0.5,1-1,1 s-1-0.5-1-1v-5.3c-7.4,0.3-14.1,3.2-19.2,7.9l3.8,3.8c0.4,0.4,0.4,1,0,1.4c-0.2,0.2-0.5,0.3-0.7,0.3s-0.5-0.1-0.7-0.3l-3.8-3.8 c-4.7,5-7.7,11.7-7.9,19.1h5.3c0.6,0,1,0.5,1,1c0,0.6-0.5,1-1,1h-5.3c0.3,9.2,4.9,17.6,12.3,23c3.8-5.7,10.3-9.3,17.2-9.3 s13.4,3.5,17.2,9.3c7.5-5.3,12-13.8,12.3-23C76.6,50.8,71.2,50.8,71.2,50.8z M60,38.3l-3.9,5.6c-1.9,2.8-3.5,5.8-5,8.6 c-1,1.9-3,3.1-5.1,3.1c-0.1,0-0.1,0-0.2,0c-3.1-0.1-5.6-2.7-5.6-5.7c0-2.2,1.2-4.1,3.1-5.1l0,0l15.4-7.9c0.4-0.2,0.9-0.1,1.3,0.2 C60.2,37.4,60.2,37.9,60,38.3z"></path> </g> </g> </svg> 