<?xml version="1.0" encoding="UTF-8"?> <svg xmlns="http://www.w3.org/2000/svg" width="60" height="60" viewBox="0 0 60 60" fill="none"><mask id="mask0_5_295" style="mask-type:alpha" maskUnits="userSpaceOnUse" x="0" y="0" width="60" height="60"><rect width="60" height="60" fill="#D9D9D9"></rect></mask><g mask="url(#mask0_5_295)"><path d="M45.66 42.1754C45.0535 41.5719 45.9743 40.6557 46.5809 41.2592L48.677 43.342L50.7704 41.2592C51.377 40.6557 52.2965 41.5719 51.69 42.1754L49.603 44.2609L51.69 46.3438C52.2965 46.9472 51.377 47.8621 50.7704 47.2587L48.677 45.1823L46.5809 47.2587C45.9743 47.8621 45.0535 46.9472 45.66 46.3438L47.7535 44.2609L45.66 42.1754ZM4.39435 13.3561C3.96522 12.6203 5.09217 11.9766 5.51739 12.7072L6.97435 15.2171L11.6217 10.5958C12.2283 9.98972 13.1491 10.9085 12.5426 11.512L7.29652 16.7368C7.22566 16.8067 7.13962 16.8594 7.04502 16.8911C6.95042 16.9227 6.8498 16.9323 6.75089 16.9191C6.65198 16.9059 6.55743 16.8704 6.47451 16.8151C6.39159 16.7599 6.32252 16.6865 6.27261 16.6005L4.39435 13.3561ZM28.0787 25.507C26.8718 25.507 25.6921 25.8631 24.6886 26.5302C23.6852 27.1973 22.9031 28.1456 22.4413 29.255C21.9795 30.3643 21.8588 31.5851 22.0943 32.7627C22.3298 33.9404 22.9111 35.0221 23.7646 35.8711C24.618 36.7201 25.7054 37.2982 26.8891 37.5323C28.0728 37.7664 29.2997 37.646 30.4146 37.1863C31.5296 36.7266 32.4824 35.9483 33.1527 34.9498C33.8231 33.9512 34.1807 32.7774 34.1804 31.5766C34.1809 30.7793 34.0235 29.9897 33.717 29.253C33.4105 28.5162 32.9611 27.8469 32.3943 27.2831C31.8276 26.7194 31.1548 26.2724 30.4142 25.9676C29.6737 25.6628 28.8801 25.5063 28.0787 25.507ZM22.8443 26.3687C23.8797 25.3385 25.1989 24.637 26.635 24.3527C28.0712 24.0685 29.5598 24.2144 30.9126 24.7719C32.2654 25.3294 33.4217 26.2735 34.2352 27.4849C35.0487 28.6962 35.4829 30.1204 35.4829 31.5772C35.4829 33.0341 35.0487 34.4583 34.2352 35.6696C33.4217 36.881 32.2654 37.8251 30.9126 38.3826C29.5598 38.9401 28.0712 39.086 26.635 38.8018C25.1989 38.5175 23.8797 37.816 22.8443 36.7858C22.156 36.1023 21.6098 35.2905 21.2372 34.3967C20.8645 33.5029 20.6727 32.5448 20.6727 31.5772C20.6727 30.6096 20.8645 29.6515 21.2372 28.7578C21.6098 27.864 22.156 27.0522 22.8443 26.3687ZM30.5217 20.9454C31.7241 21.217 32.8711 21.691 33.913 22.347L35.2357 21.3425C35.3612 21.2466 35.5174 21.1994 35.6753 21.2097C35.8332 21.2199 35.982 21.287 36.0939 21.3983L38.3113 23.6045C38.4284 23.7208 38.4967 23.8772 38.5023 24.0418C38.5078 24.2064 38.4503 24.3669 38.3413 24.4908L37.3565 25.7743C38.0131 26.8124 38.4893 27.9531 38.7652 29.1485L40.4139 29.3691C40.5709 29.3909 40.7145 29.4687 40.8179 29.5881C40.9214 29.7075 40.9776 29.8603 40.9761 30.018V33.1326C40.9764 33.2982 40.9131 33.4576 40.7991 33.5782C40.6851 33.6988 40.5291 33.7716 40.363 33.7815L38.7626 33.9982C38.4879 35.194 38.0116 36.3349 37.3539 37.3724L38.3622 38.6883C38.4576 38.8127 38.5047 38.9673 38.4946 39.1235C38.4845 39.2797 38.418 39.427 38.3074 39.5383L36.09 41.7445C35.9784 41.8562 35.8298 41.9237 35.6719 41.9345C35.514 41.9452 35.3576 41.8985 35.2317 41.8029L33.913 40.8075C32.8703 41.4619 31.7236 41.9358 30.5217 42.2091L30.3 43.8495C30.2781 44.0056 30.1999 44.1485 30.0799 44.2514C29.9599 44.3544 29.8063 44.4103 29.6478 44.4088H26.5174C26.351 44.4091 26.1908 44.3461 26.0695 44.2327C25.9483 44.1193 25.8752 43.9641 25.8652 43.7989L25.65 42.2065C24.4463 41.9327 23.2975 41.4589 22.2522 40.8049L20.9322 41.8081C20.8036 41.9059 20.6431 41.9526 20.4818 41.9391C20.3205 41.9257 20.17 41.8531 20.0596 41.7354L17.8604 39.5461C17.748 39.4353 17.6799 39.2875 17.6688 39.1304C17.6578 38.9733 17.7046 38.8175 17.8004 38.6922L18.81 37.3763C18.1507 36.3396 17.6743 35.1984 17.4013 34.0021L15.7526 33.7815C15.5957 33.7597 15.4521 33.6819 15.3486 33.5625C15.2451 33.4431 15.1889 33.2903 15.1904 33.1326V30.018C15.1902 29.8522 15.2536 29.6926 15.3679 29.572C15.4821 29.4513 15.6385 29.3787 15.8048 29.3691L17.3935 29.1485C17.6677 27.9525 18.144 26.8116 18.8022 25.7743L17.7926 24.4584C17.6973 24.3338 17.6505 24.1792 17.6608 24.0229C17.6711 23.8667 17.7379 23.7195 17.8487 23.6084L20.0661 21.4022C20.1831 21.2857 20.3402 21.2177 20.5056 21.2122C20.671 21.2067 20.8324 21.2639 20.957 21.3723L22.243 22.3508C23.2876 21.6953 24.4366 21.2214 25.6409 20.9493L25.8626 19.3089C25.8836 19.152 25.9615 19.0082 26.0816 18.9045C26.2017 18.8008 26.3557 18.7443 26.5148 18.7457H29.6452C29.8118 18.7454 29.9722 18.8086 30.0935 18.9222C30.2148 19.0359 30.2877 19.1914 30.2974 19.3569L30.5217 20.9454ZM31.7791 22.6973C31.1583 22.4418 30.5128 22.2504 29.8526 22.1263C29.7108 22.1085 29.579 22.0442 29.478 21.9436C29.3769 21.8431 29.3123 21.712 29.2943 21.5709L29.087 20.0408H27.077L26.8696 21.5709C26.8512 21.7065 26.7902 21.8329 26.6954 21.9319C26.6005 22.031 26.4766 22.0977 26.3413 22.1224C25.0839 22.347 23.6387 22.918 22.6109 23.6564C22.498 23.7406 22.3607 23.7862 22.2196 23.7862C22.0785 23.7862 21.9412 23.7406 21.8283 23.6564L20.593 22.7181L19.1739 24.1236L20.117 25.3526C20.2004 25.4614 20.247 25.5937 20.2503 25.7305C20.2536 25.8673 20.2133 26.0017 20.1352 26.1143C19.4178 27.1525 18.7813 28.5684 18.5817 29.8181C18.5638 29.9592 18.4992 30.0903 18.3981 30.1909C18.2971 30.2914 18.1653 30.3557 18.0235 30.3736L16.4843 30.576V32.5668L18.0261 32.7822C18.1619 32.8013 18.2881 32.8625 18.3869 32.9571C18.4858 33.0517 18.5521 33.1749 18.5765 33.3091C18.8022 34.5588 19.3761 35.998 20.1183 37.0168C20.2037 37.1305 20.2498 37.2687 20.2498 37.4107C20.2498 37.5526 20.2037 37.6908 20.1183 37.8045L19.1739 39.0335L20.5852 40.439L21.823 39.4968C21.9328 39.4144 22.066 39.3686 22.2035 39.3661C22.3411 39.3635 22.4759 39.4043 22.5887 39.4825C23.6322 40.1963 25.0552 40.8296 26.3113 41.0243C26.4526 41.0434 26.5837 41.1081 26.6845 41.2084C26.7853 41.3087 26.8503 41.4391 26.8696 41.5797L27.077 43.1136H29.087L29.293 41.5797C29.312 41.4444 29.3734 41.3185 29.4685 41.2199C29.5636 41.1213 29.6875 41.0551 29.8226 41.0307C31.0787 40.8036 32.5252 40.2365 33.5491 39.4968C33.6628 39.4104 33.8019 39.3636 33.945 39.3636C34.0881 39.3636 34.2272 39.4104 34.3409 39.4968L35.5787 40.439L36.9913 39.0296L36.0443 37.8019C35.9609 37.6931 35.9143 37.5608 35.911 37.424C35.9077 37.2872 35.948 37.1528 36.0261 37.0401C36.7435 36.0019 37.38 34.5822 37.5756 33.3351C37.5949 33.1945 37.6599 33.0641 37.7607 32.9637C37.8615 32.8634 37.9926 32.7987 38.1339 32.7796L39.6757 32.5707V30.576L38.1339 30.3697C37.9981 30.3509 37.8717 30.29 37.7726 30.1957C37.6736 30.1013 37.6069 29.9783 37.5822 29.8441C37.3539 28.5931 36.7839 27.1551 36.0404 26.1325C35.9558 26.0202 35.91 25.8836 35.91 25.7432C35.91 25.6028 35.9558 25.4662 36.0404 25.3539L36.9874 24.1249L35.5696 22.7155L34.3357 23.6538C34.2263 23.7368 34.0933 23.7832 33.9558 23.7865C33.8183 23.7897 33.6832 23.7497 33.57 23.672C33.0064 23.2861 32.404 22.9595 31.7726 22.6973H31.7791ZM9.64435 36.2706C10.791 36.2712 11.9075 36.6361 12.8311 37.3123C13.7547 37.9884 14.4371 38.9404 14.7789 40.0295C15.1206 41.1185 15.1037 42.2877 14.7308 43.3666C14.3579 44.4454 13.6483 45.3776 12.7057 46.0271C16.273 46.1997 19.2757 48.1269 19.2757 51.928L19.2874 55.6798C19.2874 55.8519 19.2187 56.017 19.0964 56.1386C18.9741 56.2603 18.8082 56.3287 18.6352 56.3287H0.652174C0.479207 56.3287 0.313324 56.2603 0.191017 56.1386C0.068711 56.017 0 55.8519 0 55.6798L0.00782602 51.928C0.00782602 48.1243 3.00783 46.1997 6.57783 46.0271C5.634 45.3779 4.9235 44.4454 4.5501 43.3659C4.17669 42.2864 4.15994 41.1164 4.50228 40.0267C4.84461 38.937 5.52812 37.9848 6.45297 37.3091C7.37783 36.6333 8.49559 36.2694 9.64304 36.2706H9.64435ZM12.5217 38.7519C11.9514 38.1847 11.2249 37.7986 10.434 37.6422C9.64314 37.4859 8.82342 37.5663 8.0785 37.8735C7.33358 38.1806 6.69691 38.7005 6.24897 39.3676C5.80104 40.0347 5.56196 40.819 5.56196 41.6212C5.56196 42.4235 5.80104 43.2077 6.24897 43.8748C6.69691 44.5419 7.33358 45.0619 8.0785 45.369C8.82342 45.6761 9.64314 45.7566 10.434 45.6002C11.2249 45.4439 11.9514 45.0577 12.5217 44.4906C13.2865 43.7295 13.7162 42.6974 13.7162 41.6212C13.7162 40.545 13.2865 39.5129 12.5217 38.7519ZM3.63652 51.405C3.63551 51.2613 3.68246 51.1214 3.77 51.0071C3.85753 50.8929 3.98071 50.8107 4.12022 50.7736C4.25972 50.7365 4.40766 50.7465 4.54084 50.8021C4.67402 50.8576 4.78489 50.9556 4.85609 51.0806L4.94087 51.4037V55.0309H14.3478V51.3868C14.3478 50.7873 15.2243 50.4784 15.5635 51.0819L15.6522 51.405V55.0322H17.9857L17.9739 51.928C17.9739 50.5005 17.4378 49.4078 16.5587 48.6603C15.5491 47.7998 14.0804 47.3508 12.4291 47.3106H6.87522C5.2187 47.3508 3.74478 47.7959 2.73391 48.6577C1.84957 49.4078 1.31348 50.4927 1.31348 51.928L1.30435 55.0322H3.63652V51.405ZM50.5487 54.9998V50.7509C50.5487 50.5788 50.6174 50.4138 50.7397 50.2921C50.862 50.1704 51.0279 50.1021 51.2009 50.1021H55.4674V37.275H41.8813V55.0322L50.5487 54.9998ZM54.5491 51.3946H51.853V54.0732L54.5491 51.3946ZM40.577 55.6772V36.6249C40.577 36.4528 40.6457 36.2877 40.768 36.166C40.8903 36.0443 41.0562 35.976 41.2291 35.976H56.1196C56.2925 35.976 56.4584 36.0443 56.5807 36.166C56.703 36.2877 56.7717 36.4528 56.7717 36.6249V50.747C56.7717 50.8333 56.7544 50.9188 56.7208 50.9983C56.6872 51.0779 56.638 51.1499 56.5761 51.2103L51.6913 56.0691C51.6273 56.1435 51.5469 56.2021 51.4564 56.2406C51.366 56.2791 51.2678 56.2963 51.1696 56.2911C47.8891 56.2911 47.0387 56.3014 46.033 56.3053C45.15 56.3131 44.1404 56.3196 41.2265 56.3274C41.0536 56.3274 40.8877 56.259 40.7654 56.1373C40.6431 56.0157 40.5743 55.8506 40.5743 55.6785L40.577 55.6772ZM6.47609 4.3328V8.58165C6.47609 8.75374 6.40738 8.91879 6.28507 9.04048C6.16276 9.16216 5.99688 9.23053 5.82391 9.23053H1.55478V22.0576H15.1383V4.30035L6.47609 4.3328ZM2.47826 7.93796H5.17435V5.2555L2.47826 7.93796ZM16.4478 3.65537V22.7077C16.4478 22.8798 16.3791 23.0449 16.2568 23.1666C16.1345 23.2882 15.9686 23.3566 15.7957 23.3566H0.9C0.727033 23.3566 0.56115 23.2882 0.438843 23.1666C0.316537 23.0449 0.247826 22.8798 0.247826 22.7077V8.58554C0.247766 8.49951 0.265182 8.41435 0.299028 8.33518C0.332873 8.25601 0.382451 8.18447 0.444783 8.12484L5.32957 3.26215C5.39296 3.1869 5.47315 3.12742 5.56372 3.08844C5.6543 3.04947 5.75278 3.03207 5.8513 3.03764C9.13435 3.03764 9.98478 3.03764 10.9865 3.02336C11.8735 3.02336 12.8791 3.01168 15.797 3.00519C15.9699 3.00519 16.1358 3.07355 16.2581 3.19524C16.3804 3.31693 16.4491 3.48198 16.4491 3.65407L16.4478 3.65537ZM21.4826 5.46184C20.6661 5.7214 20.2774 4.47685 21.0991 4.22249C27.2856 2.30188 33.9613 2.6706 39.8961 5.26069C40.0405 5.3379 40.1503 5.46638 40.2038 5.62054C40.2573 5.7747 40.2505 5.94325 40.1847 6.09263C40.1189 6.242 39.999 6.36126 39.8488 6.42666C39.6987 6.49206 39.5293 6.4988 39.3743 6.44554C33.7255 3.97889 27.3703 3.62948 21.4826 5.46184ZM54 27.8144C53.923 26.9644 55.217 26.8463 55.2952 27.6963C55.4872 29.7277 55.4434 31.7743 55.1648 33.7958C55.05 34.6419 53.7639 34.4654 53.8787 33.6232C54.1428 31.6992 54.1835 29.7515 54 27.8183V27.8144ZM36.823 53.8552C37.6448 53.5956 38.0361 54.8337 37.2143 55.0906C33.0875 56.3819 28.71 56.6721 24.4474 55.9368C23.6035 55.7862 23.8252 54.5092 24.673 54.6572C28.7273 55.3644 32.8931 55.0893 36.8178 53.8552H36.823ZM4.05783 34.4057C4.21696 35.2415 2.93739 35.4802 2.78217 34.6419C2.3555 32.3925 2.21744 30.0984 2.3713 27.8144C2.43 26.9644 3.72783 27.0526 3.67565 27.9026C3.52664 30.0781 3.65815 32.2635 4.06696 34.4057H4.05783ZM50.3622 3C51.5095 2.99983 52.6268 3.36438 53.5512 4.04046C54.4756 4.71654 55.1588 5.66879 55.501 6.75833C55.8432 7.84786 55.8266 9.01768 55.4535 10.0972C55.0805 11.1766 54.3706 12.1093 53.4274 12.7591C56.9948 12.9317 59.9974 14.8563 59.9974 18.66L60 22.4131C60 22.5852 59.9313 22.7503 59.809 22.872C59.6867 22.9937 59.5208 23.062 59.3478 23.062H41.3674C41.1944 23.062 41.0285 22.9937 40.9062 22.872C40.7839 22.7503 40.7152 22.5852 40.7152 22.4131L40.723 18.6613C40.723 14.8576 43.723 12.933 47.293 12.7604C46.3501 12.1108 45.6403 11.1785 45.2672 10.0994C44.8941 9.02028 44.8772 7.85082 45.2189 6.76148C45.5606 5.67214 46.2431 4.71987 47.1669 4.04349C48.0906 3.3671 49.2074 3.00196 50.3543 3.0013L50.3622 3ZM53.2461 5.4865C52.6758 4.91936 51.9492 4.53321 51.1584 4.37685C50.3675 4.22049 49.5478 4.30095 48.8028 4.60806C48.0579 4.91518 47.4213 5.43514 46.9733 6.10223C46.5254 6.76932 46.2863 7.55358 46.2863 8.35584C46.2863 9.15811 46.5254 9.94236 46.9733 10.6094C47.4213 11.2765 48.0579 11.7965 48.8028 12.1036C49.5478 12.4107 50.3675 12.4912 51.1584 12.3348C51.9492 12.1785 52.6758 11.7923 53.2461 11.2252C53.6256 10.8488 53.9266 10.4016 54.1321 9.90921C54.3375 9.41684 54.4433 8.88896 54.4433 8.35584C54.4433 7.82272 54.3375 7.29485 54.1321 6.80247C53.9266 6.31009 53.6256 5.86289 53.2461 5.4865ZM44.3478 18.1383C44.3478 18.053 44.3648 17.9685 44.3977 17.8896C44.4306 17.8108 44.4788 17.7392 44.5396 17.6789C44.8317 17.3921 45.2909 17.4661 45.4604 17.6789L45.6196 17.9294L45.6522 18.1383V21.763H55.0552V18.1176C55.0587 17.9921 55.0986 17.8703 55.1703 17.767C55.2419 17.6636 55.3421 17.5832 55.4588 17.5354C55.5755 17.4876 55.7035 17.4745 55.8275 17.4977C55.9515 17.5208 56.0661 17.5793 56.1574 17.6659L56.323 17.9255L56.3596 18.1344V21.7591H58.6957L58.6852 18.6574C58.6852 17.2221 58.1491 16.1372 57.2687 15.3871C56.2591 14.5293 54.7904 14.0815 53.1391 14.04H47.5891C45.9326 14.0841 44.4587 14.5293 43.4478 15.3897C42.5648 16.1359 42.0287 17.2247 42.0287 18.66L42.017 21.7617H44.3478V18.1383Z" fill="#1B54F8" stroke="#1B54F8" stroke-width="0.5"></path></g></svg> 