<?xml version="1.0" encoding="UTF-8"?> <svg xmlns="http://www.w3.org/2000/svg" xmlns:xlink="http://www.w3.org/1999/xlink" width="90" height="90" viewBox="0 0 90 90"><defs><clipPath id="clip-path"><rect id="Rectangle_14" data-name="Rectangle 14" width="90" height="90" transform="translate(1051 242)" fill="#fff" stroke="#707070" stroke-width="1"></rect></clipPath></defs><g id="Mask_Group_4" data-name="Mask Group 4" transform="translate(-1051 -242)" clip-path="url(#clip-path)"><g id="Group_11" data-name="Group 11" transform="translate(-452.44 -436.948)"><path id="Path_131" data-name="Path 131" d="M125.56,92.337a.792.792,0,0,1-1.111-1.128l3.314-3.314-3.314-3.314a.792.792,0,0,1,1.111-1.128l3.314,3.314,3.314-3.314a.792.792,0,0,1,1.111,1.128l-3.314,3.314,3.314,3.314a.792.792,0,0,1-1.111,1.128l-3.314-3.314Zm-2.627-11.952H135.59a.79.79,0,0,1,.793.793V94.629a.79.79,0,0,1-.793.793H122.14a.79.79,0,0,1-.793-.793V81.971h-12.64a.79.79,0,0,1-.793-.793V67.728a.79.79,0,0,1,.793-.793h13.451a.79.79,0,0,1,.793.793V80.385ZM134.8,81.971H122.933V93.835H134.8Zm-24.028-7.545a.793.793,0,0,1,.176-1.111.77.77,0,0,1,1.093.176l1.886,2.574,4.866-5.994a.789.789,0,0,1,1.216,1c-.6.74-5.447,6.769-5.659,6.928a.778.778,0,0,1-1.111-.176Zm10.577-5.906H109.482V80.385h11.864Zm43.843-14.385H173.7a.79.79,0,0,1,.793.793v8.5a.79.79,0,0,1-.793.793h-8.515a.79.79,0,0,1-.793-.793v-8.5A.79.79,0,0,1,165.189,54.136Zm7.721,1.587h-6.928V62.65h6.928Zm-7.721,35.892H173.7a.79.79,0,0,1,.793.793v8.5a.79.79,0,0,1-.793.793h-8.515a.79.79,0,0,1-.793-.793v-8.5A.79.79,0,0,1,165.189,91.615ZM172.91,93.2h-6.928v6.928h6.928Zm-7.721-20.326H173.7a.79.79,0,0,1,.793.793v8.5a.79.79,0,0,1-.793.793h-8.515a.79.79,0,0,1-.793-.793v-8.5A.79.79,0,0,1,165.189,72.875Zm7.721,1.587h-6.928V81.39h6.928ZM159.477,85a.793.793,0,0,1,0,1.587h-10.26a.793.793,0,0,1,0-1.587ZM154.4,109.05a.793.793,0,0,1,0,1.587H137.988a.793.793,0,0,1,0-1.587Zm5.077-53.82a.793.793,0,0,1,0,1.587h-21.1a.793.793,0,0,1,0-1.587Zm0,14.9a.793.793,0,0,1,0,1.587H149.2a.793.793,0,0,1,0-1.587Zm0-7.457a.793.793,0,0,1,0,1.587H145.956a.793.793,0,0,1,0-1.587Zm0,14.9a.793.793,0,0,1,0,1.587h-10.26a.793.793,0,0,1,0-1.587Zm0,22.318a.793.793,0,0,1,0,1.587H149.2a.793.793,0,0,1,0-1.587Zm0-7.439a.793.793,0,0,1,0,1.587H149.2a.793.793,0,0,1,0-1.587ZM122.934,58.262a22.94,22.94,0,0,1,0,45.853v13.7h44.459V107.535a.79.79,0,0,1,.793-.793h10.278V44.547h-55.53Zm-1.587,45.851a22.94,22.94,0,0,1,0-45.853V43.77a.79.79,0,0,1,.793-.793h57.117a.79.79,0,0,1,.793.793v63.763a.815.815,0,0,1-.229.564l-11.141,11.141-.494.159H122.141a.79.79,0,0,1-.793-.793Zm15.9-38.042a21.353,21.353,0,1,0,0,30.2A21.354,21.354,0,0,0,137.248,66.071Zm40.088,42.255H168.98v8.356Z" transform="translate(1409.234 642.972)" fill="#1b54f8" stroke="#1b54f8" stroke-width="1"></path></g></g></svg> 