<?xml version="1.0" encoding="UTF-8"?> <svg xmlns="http://www.w3.org/2000/svg" xmlns:xlink="http://www.w3.org/1999/xlink" width="60" height="60" viewBox="0 0 60 60"><defs><clipPath id="clip-path"><rect id="Rectangle_376" data-name="Rectangle 376" width="60" height="60" transform="translate(641 25)" fill="#fff" stroke="#707070" stroke-width="1"></rect></clipPath></defs><g id="Mask_Group_23" data-name="Mask Group 23" transform="translate(-641 -25)" clip-path="url(#clip-path)"><g id="Group_598" data-name="Group 598" transform="translate(-10.508 -171.445)"><path id="Path_178" data-name="Path 178" d="M105.912,223.578l-3.719-2.034c-.163-.122-.18-.23-.093-.444l4.354-7.89a2.694,2.694,0,0,0-4.665-2.7l-4.98,8.252.36-2.913a5.631,5.631,0,0,0-.564-2.514,5.555,5.555,0,0,0-1.526-1.906,1.794,1.794,0,0,0-2.811.957l-2.336,7.175a.816.816,0,0,0-.033.141l-.931,6.74a.846.846,0,0,0-.007.091l-.1,3.809L87.551,234a.816.816,0,0,0,.376.992l9.506,5.2a.818.818,0,0,0,1.047-.229l2.62-3.523c.609-.558,2.66-1.928,3-2.683l3.369-6.144a3.373,3.373,0,0,0-1.555-4.038Zm.068,3.352-3.314,6.043a1.184,1.184,0,0,1-.295.352L100,235.235a.805.805,0,0,0-.144.149L97.6,238.421,89.324,233.9c0-.035,1.283-3.46,1.169-3.378l.1-3.895L91.506,220l2.331-7.169c.035-.134.16-.175.221-.124a3.964,3.964,0,0,1,1.481,3.008l-.682,5.526a1.065,1.065,0,0,0,1.965.661l6.36-10.538a1.062,1.062,0,0,1,1.842,1.056l-4.354,7.89a1.96,1.96,0,0,0,.739,2.665l3.719,2.034a1.775,1.775,0,0,1,.853,1.92Z" transform="translate(570.005 11.144)" fill="#1b54f9" stroke="#fff" stroke-width="0.3"></path><path id="Path_179" data-name="Path 179" d="M205.345,17.5H168.8a2.547,2.547,0,0,0-2.548,2.54V34.578a.817.817,0,0,0,1.633,0V20.04a.912.912,0,0,1,.915-.907h36.549a.912.912,0,0,1,.915.907V42.611a.912.912,0,0,1-.915.907h-5.707a.817.817,0,0,0-.811.722,12.561,12.561,0,0,1-1.032,3.715,8.837,8.837,0,0,0-1.746-4.1.817.817,0,0,0-.657-.332H178.5a.817.817,0,0,0,0,1.633h16.472a5.9,5.9,0,0,1,.691,6.073.819.819,0,0,0,1.284.994s0,0,0,0l0,0,0,0h0a13.9,13.9,0,0,0,3.394-7.059h5a2.547,2.547,0,0,0,2.548-2.54V20.04a2.547,2.547,0,0,0-2.548-2.54Z" transform="translate(498.607 184.945)" fill="#1b54f9" stroke="#fff" stroke-width="0.3"></path><path id="Path_180" data-name="Path 180" d="M250.948,114.157a.817.817,0,0,0-.817-.817H237.067a.817.817,0,1,0,0,1.633h13.065A.817.817,0,0,0,250.948,114.157Z" transform="translate(435.139 98.049)" fill="#1b54f9" stroke="#fff" stroke-width="0.3"></path><path id="Path_181" data-name="Path 181" d="M245.931,165.62a.817.817,0,0,0,0,1.633h6.532a.817.817,0,0,0,0-1.633Z" transform="translate(427.091 50.648)" fill="#1b54f9" stroke="#fff" stroke-width="0.3"></path><path id="Path_182" data-name="Path 182" d="M419.415,139.479h-7.349a.817.817,0,0,0-.817.817v9.757a.817.817,0,0,0,.817.817h9.8a.817.817,0,0,0,.817-.817v-4.065a.817.817,0,0,0-1.633,0v3.249h-8.165v-8.124h6.532a.817.817,0,0,0,0-1.633Z" transform="translate(276.47 74.349)" fill="#1b54f9" stroke="#fff" stroke-width="0.3"></path><path id="Path_183" data-name="Path 183" d="M447.64,127.232a.817.817,0,0,0-1.3.982l2.45,3.252a.822.822,0,0,0,1.289.02l6.532-8.131a.817.817,0,0,0-1.274-1.023l-5.875,7.312Z" transform="translate(244.815 90.174)" fill="#1b54f9" stroke="#fff" stroke-width="0.3"></path></g></g></svg> 