<?xml version="1.0" encoding="UTF-8"?> <svg xmlns="http://www.w3.org/2000/svg" width="91" height="91" viewBox="0 0 91 91" fill="none"><mask id="mask0_2_370" style="mask-type:luminance" maskUnits="userSpaceOnUse" x="0" y="0" width="91" height="91"><path d="M90.17 0.809998H0.170013V90.81H90.17V0.809998Z" fill="white"></path></mask><g mask="url(#mask0_2_370)"><path d="M88.29 30.5C88.29 25.57 84.28 21.56 79.35 21.56C74.42 21.56 70.41 25.57 70.41 30.5C70.41 33.85 72.28 36.79 75.02 38.31V52.3C72.82 49.01 69.09 46.84 64.85 46.84H26.47C21.78 46.84 17.71 49.49 15.66 53.37V38.31C18.4 36.79 20.27 33.85 20.27 30.5C20.27 25.57 16.26 21.56 11.33 21.56C6.40002 21.56 2.39001 25.57 2.39001 30.5C2.39001 33.85 4.26 36.79 7 38.31V57.66C5.13 58.43 3.82999 60.28 3.82999 62.41V74.54C3.82999 77.37 6.14 79.68 8.97 79.68H14.37C15.2 85.62 20.3 90.22 26.47 90.22H64.85C71.02 90.22 76.13 85.62 76.95 79.68H81.71C84.54 79.68 86.85 77.37 86.85 74.54V62.41C86.85 60.26 85.53 58.44 83.68 57.66V38.31C86.42 36.78 88.29 33.85 88.29 30.5ZM11.34 25.31C14.2 25.31 16.52 27.63 16.52 30.49C16.52 33.35 14.2 35.67 11.34 35.67C8.48003 35.67 6.16 33.35 6.16 30.49C6.16 27.63 8.49003 25.31 11.34 25.31ZM11.34 39.42C11.53 39.42 11.72 39.42 11.91 39.39V57.26H10.78V39.4C10.97 39.4 11.16 39.43 11.35 39.43L11.34 39.42ZM7.60001 74.54V62.41C7.60001 61.65 8.22001 61.03 8.98001 61.03H14.26V75.93H8.98001C8.22001 75.92 7.60001 75.3 7.60001 74.54ZM73.31 77.99C73.31 82.65 69.51 86.45 64.85 86.45H26.46C21.8 86.45 18 82.65 18 77.99V59.06C18 54.4 21.8 50.6 26.46 50.6H64.84C69.5 50.6 73.3 54.4 73.3 59.06V77.99H73.31ZM79.35 25.31C82.21 25.31 84.53 27.63 84.53 30.49C84.53 33.35 82.21 35.67 79.35 35.67C76.49 35.67 74.17 33.35 74.17 30.49C74.17 27.63 76.49 25.31 79.35 25.31ZM83.09 74.54C83.09 75.3 82.47 75.92 81.71 75.92H77.06V61.02H81.71C82.47 61.02 83.09 61.64 83.09 62.4V74.54ZM79.92 57.27H78.79V39.4C78.98 39.4 79.17 39.43 79.36 39.43C79.55 39.43 79.74 39.43 79.93 39.4V57.27H79.92ZM39.47 63.77C39.47 60.04 36.43 57 32.7 57C28.97 57 25.93 60.04 25.93 63.77C25.93 67.5 28.97 70.54 32.7 70.54C36.43 70.54 39.47 67.5 39.47 63.77ZM32.7 66.78C31.04 66.78 29.69 65.43 29.69 63.77C29.69 62.11 31.04 60.76 32.7 60.76C34.36 60.76 35.71 62.11 35.71 63.77C35.71 65.43 34.37 66.78 32.7 66.78ZM58.63 57.25C54.9 57.25 51.86 60.29 51.86 64.02C51.86 67.75 54.9 70.79 58.63 70.79C62.36 70.79 65.4 67.75 65.4 64.02C65.4 60.29 62.37 57.25 58.63 57.25ZM58.63 67.03C56.97 67.03 55.62 65.68 55.62 64.02C55.62 62.36 56.97 61.01 58.63 61.01C60.29 61.01 61.64 62.36 61.64 64.02C61.64 65.68 60.3 67.03 58.63 67.03ZM55.99 77.77C55.99 78.81 55.15 79.65 54.11 79.65H37.22C36.18 79.65 35.34 78.81 35.34 77.77C35.34 76.73 36.18 75.89 37.22 75.89H54.11C55.16 75.89 55.99 76.73 55.99 77.77Z" fill="#1B54F8" stroke="white" stroke-miterlimit="10"></path></g><mask id="mask1_2_370" style="mask-type:luminance" maskUnits="userSpaceOnUse" x="0" y="0" width="91" height="91"><path d="M90.17 0.809998H0.170013V90.81H90.17V0.809998Z" fill="white"></path></mask><g mask="url(#mask1_2_370)"><path fill-rule="evenodd" clip-rule="evenodd" d="M62.35 12.25L57.77 11.8C57.18 11.75 56.75 11.23 56.81 10.64C56.83 10.39 56.94 10.16 57.12 9.98L61.25 5.85001C61.66 5.43001 62.34 5.42 62.76 5.84C62.95 6.02 63.06 6.27 63.08 6.53L63.52 11.09C63.58 11.68 63.15 12.2 62.56 12.25C62.49 12.26 62.42 12.26 62.35 12.25ZM60.28 9.9L61.27 10L61.17 8.96001L60.24 9.89L60.28 9.9ZM29.03 33.49L33.62 33.94C34.21 34 34.64 34.52 34.58 35.1C34.58 35.1 34.58 35.1 34.58 35.11C34.56 35.36 34.45 35.58 34.27 35.76L30.15 39.89C29.74 40.31 29.06 40.32 28.64 39.9C28.46 39.72 28.35 39.49 28.33 39.24C28.17 37.71 28.01 36.18 27.86 34.64C27.8 34.05 28.23 33.53 28.82 33.48C28.89 33.49 28.96 33.49 29.03 33.49ZM31.12 35.85L30.11 35.75C30.14 36.1 30.18 36.45 30.21 36.8L31.16 35.85H31.12ZM59.31 6.63001C58.75 6.16001 58.17 5.73001 57.57 5.32001L56.38 7.10001C56.92 7.46001 57.43 7.85001 57.93 8.27001L59.31 6.63001ZM55.72 4.2C55.08 3.86 54.42 3.55001 53.75 3.27001L52.94 5.26C53.54 5.51 54.13 5.78 54.71 6.09C54.71 6.1 55.72 4.2 55.72 4.2ZM47 1.74001C45.39 1.65001 43.77 1.74 42.17 2C40.04 2.36 37.98 3.04001 36.06 4.02001L37.05 5.92C39.46 4.69 42.1 3.99 44.8 3.86C45.5 3.83 46.17 3.84 46.87 3.87L47 1.74001ZM30.5 8.14C29.99 8.66 29.52 9.21001 29.07 9.77001L30.76 11.09C31.17 10.58 31.59 10.09 32.05 9.62L30.5 8.14ZM27.81 11.55C27.42 12.17 27.07 12.79 26.74 13.44L28.66 14.39C28.95 13.81 29.27 13.24 29.62 12.69L27.81 11.55ZM24.71 20.06C24.2 23.81 24.71 27.64 26.18 31.13L28.16 30.3C26.84 27.16 26.39 23.72 26.84 20.34L24.71 20.06ZM32.19 39.22C32.75 39.69 33.33 40.11 33.93 40.52L35.12 38.74C34.58 38.37 34.06 37.99 33.55 37.57L32.19 39.22ZM35.8 41.63C36.44 41.97 37.1 42.28 37.77 42.55L38.56 40.56C37.95 40.31 37.38 40.05 36.79 39.74L35.8 41.63ZM44.52 44.06C48.3 44.27 52.07 43.47 55.44 41.73L54.45 39.83C51.42 41.39 48.03 42.11 44.63 41.92C44.64 41.92 44.52 44.06 44.52 44.06ZM60.99 37.59C61.5 37.06 61.97 36.52 62.42 35.95L60.73 34.63C60.31 35.15 59.91 35.62 59.45 36.1L60.99 37.59ZM63.67 34.17C64.06 33.56 64.41 32.92 64.74 32.27L62.82 31.32C62.53 31.9 62.21 32.47 61.87 33.02L63.67 34.17ZM66.73 25.65C67.22 21.89 66.7 18.07 65.21 14.58L63.24 15.42C64.57 18.55 65.05 21.99 64.61 25.37L66.73 25.65ZM46.99 31.04V32.27C46.99 32.9 46.47 33.42 45.84 33.42C45.21 33.42 44.69 32.91 44.69 32.27V31.1C42.52 30.62 40.97 28.69 40.96 26.46C40.96 25.83 41.48 25.31 42.11 25.31C42.74 25.31 43.26 25.82 43.26 26.46C43.26 27.82 44.35 28.92 45.71 28.93C47.07 28.93 48.17 27.84 48.18 26.48C48.18 25.12 47.09 24.02 45.73 24.01C43.11 24.02 40.97 21.9 40.97 19.27C40.96 17.03 42.52 15.09 44.71 14.62V13.45C44.71 12.82 45.22 12.3 45.86 12.3C46.49 12.3 47.01 12.81 47.01 13.45V14.69C49.06 15.27 50.48 17.13 50.48 19.26C50.48 19.89 49.97 20.41 49.33 20.41C48.7 20.41 48.18 19.9 48.18 19.26C48.18 17.96 47.16 16.88 45.86 16.81H45.85C45.82 16.81 45.79 16.81 45.77 16.81H45.73C45.08 16.81 44.45 17.07 43.99 17.53C43.04 18.49 43.04 20.04 43.99 21C44.45 21.46 45.08 21.72 45.73 21.72C48.35 21.73 50.47 23.86 50.47 26.48C50.46 28.61 49.04 30.47 46.99 31.04ZM45.72 7.52001C37.23 7.51001 30.33 14.4 30.33 22.89C30.32 31.39 37.21 38.28 45.7 38.28C54.19 38.28 61.09 31.4 61.09 22.91C61.09 18.83 59.47 14.91 56.59 12.03C53.71 9.14 49.8 7.51001 45.72 7.52001ZM54.97 13.64C49.86 8.52 41.56 8.51 36.44 13.62C31.32 18.73 31.31 27.03 36.42 32.15C41.53 37.27 49.83 37.28 54.95 32.17C57.41 29.71 58.8 26.38 58.8 22.9C58.81 19.42 57.43 16.09 54.97 13.64Z" fill="#1B54F8"></path></g></svg> 