<?xml version="1.0" encoding="UTF-8"?> <svg xmlns="http://www.w3.org/2000/svg" id="Layer_1" data-name="Layer 1" viewBox="0 0 94 94"><defs><style>.cls-1{fill:none;stroke:#1b54f8;stroke-miterlimit:10;stroke-width:4px;}.cls-2{fill:#1b54f8;}</style></defs><circle class="cls-1" cx="47" cy="47" r="44.6"></circle><path class="cls-2" d="M39.7,41.1H54.4v4.4A1.54,1.54,0,0,1,52.9,47H51.4v1.5a1.5,1.5,0,0,1-3,0V47H45.5v1.5a1.5,1.5,0,0,1-3,0V47H41a1.54,1.54,0,0,1-1.5-1.5V41.1Z"></path><circle class="cls-2" cx="63" cy="33.5" r="1.5"></circle><path class="cls-2" d="M63,27.9A5.8,5.8,0,0,0,58.6,30a.64.64,0,0,0,0,.6l.7.7a.37.37,0,0,0,.3.1h0c.1,0,.3-.1.3-.2a3.75,3.75,0,0,1,6,0c.1.1.2.2.3.2h0a.37.37,0,0,0,.3-.1l.7-.7a.37.37,0,0,0,0-.6A5.12,5.12,0,0,0,63,27.9Z"></path><path class="cls-2" d="M63,24a10,10,0,0,0-7.2,3.2c-.2.2-.2.5,0,.6l.7.7a.37.37,0,0,0,.3.1h0c.1,0,.3-.1.3-.2a7.58,7.58,0,0,1,11.6,0c.1.1.2.2.3.2h0a.37.37,0,0,0,.3-.1l.7-.7a.38.38,0,0,0,0-.6A9.25,9.25,0,0,0,63,24Z"></path><path class="cls-2" d="M73.1,24.2A14,14,0,0,0,63,19.7a13.58,13.58,0,0,0-10.1,4.5c-.2.2-.2.5,0,.6l.7.6a.37.37,0,0,0,.3.1h0c.1,0,.3,0,.3-.2A12,12,0,0,1,63,21.4a11.82,11.82,0,0,1,8.8,3.9c.1.1.2.1.3.2h0a.37.37,0,0,0,.3-.1l.7-.7C73.3,24.7,73.3,24.4,73.1,24.2Z"></path><path class="cls-2" d="M63,31.1H30.7a4.44,4.44,0,0,0-4.4,4.4v36a.68.68,0,0,0,.7.7H66.6a.68.68,0,0,0,.7-.7v-36A4.29,4.29,0,0,0,63,31.1Zm-7.4,4.5H60a1.5,1.5,0,0,1,0,3H55.6a1.5,1.5,0,0,1,0-3Zm-8.8-1.5A2.9,2.9,0,1,1,43.9,37,2.9,2.9,0,0,1,46.8,34.1ZM33.6,35.6H38a1.5,1.5,0,0,1,0,3H33.6a1.54,1.54,0,0,1-1.5-1.5A1.47,1.47,0,0,1,33.6,35.6ZM52,64.9H41.7l-.6-4.4H52.5Zm3.3-6.8a1.61,1.61,0,0,0-1.1-.5H39.5A1.55,1.55,0,0,0,38,59.3l1.3,10.1H30.7V42.9H63V69.3H54.4l1.3-10.1A1.5,1.5,0,0,0,55.3,58.1Z"></path></svg> 