<?xml version="1.0" encoding="UTF-8"?> <svg xmlns="http://www.w3.org/2000/svg" xmlns:xlink="http://www.w3.org/1999/xlink" width="90" height="90" viewBox="0 0 90 90"><defs><clipPath id="clip-path"><rect id="Rectangle_12" data-name="Rectangle 12" width="90" height="90" transform="translate(561 328)" fill="#fff" stroke="#707070" stroke-width="1"></rect></clipPath></defs><g id="Mask_Group_9" data-name="Mask Group 9" transform="translate(-561 -328)" clip-path="url(#clip-path)"><g id="transfer_learning" data-name="transfer learning" transform="translate(574.304 336.043)"><path id="Path_11" data-name="Path 11" d="M39.723,73.511H24.189a1.205,1.205,0,0,1-1.206-1.206V69.96a3.377,3.377,0,0,1,3.853-3.285V63.21H8.594a3.9,3.9,0,0,1-3.9-3.9V29.243a3.9,3.9,0,0,1,3.9-3.9h11.78v-1.2c-1.015-.043-2.973.363-2.988-1.206.014-1.568,1.976-1.163,2.988-1.206v-1.22H16.323a1.205,1.205,0,0,1-1.206-1.206V16.79H13.094a2.811,2.811,0,1,1,0-2.412h3.226a1.205,1.205,0,0,1,1.206,1.206V18.1h2.845V16.274A3.275,3.275,0,0,1,23.76,13.01v-2.4H21.243a1.205,1.205,0,0,1-1.206-1.206v-3.1a2.81,2.81,0,1,1,2.412,0V8.2h2.518a1.205,1.205,0,0,1,1.206,1.206v3.6H30.75v-5.3a2.81,2.81,0,1,1,2.412,0v5.3H37.74v-3.6A1.205,1.205,0,0,1,38.946,8.2h2.518v-1.9a2.81,2.81,0,1,1,2.412,0v3.1a1.205,1.205,0,0,1-1.206,1.206H40.151v2.4a3.391,3.391,0,0,1,3.954,3.264V18.1h2.4V15.584a1.205,1.205,0,0,1,1.206-1.206h3.1a2.811,2.811,0,1,1,0,2.412h-1.9v2.518a1.205,1.205,0,0,1-1.206,1.206h-3.61v1.22c1.015.043,2.973-.363,2.988,1.206-.014,1.568-1.976,1.163-2.988,1.206v1.2H55.318a3.9,3.9,0,0,1,3.9,3.9V59.315a3.9,3.9,0,0,1-3.9,3.9H37.076v3.464a3.377,3.377,0,0,1,3.853,3.285C40.806,71.051,41.477,73.469,39.723,73.511ZM25.395,71.1H38.517c-.009-.712.2-2.013-.874-2.014H26.268C25.2,69.084,25.4,70.39,25.395,71.1Zm3.853-4.425h5.417V63.21H29.248ZM35.87,60.8H55.318A1.487,1.487,0,0,0,56.8,59.315V29.243a1.487,1.487,0,0,0-1.486-1.484H8.594a1.487,1.487,0,0,0-1.486,1.484V59.315A1.487,1.487,0,0,0,8.594,60.8Zm5.058-35.45h.765V16.274a.852.852,0,0,0-.853-.853h-17.2a.852.852,0,0,0-.853.853v2.958a1.087,1.087,0,0,1,0,.151v5.965h.765V17.993a1.81,1.81,0,0,1,1.809-1.806H39.12a1.81,1.81,0,0,1,1.809,1.806Zm-14.966,0H38.517V18.6H25.962ZM39.12,18.6Zm14.234-3.415a.4.4,0,0,0-.4.4c0,.44.8.436.8,0a.4.4,0,0,0-.4-.4Zm-42.8,0a.4.4,0,0,0-.4.4c0,.436.8.44.8,0a.4.4,0,0,0-.4-.4Zm21.4-10.409a.4.4,0,0,0-.4.4c0,.438.8.438.8,0A.4.4,0,0,0,31.956,4.774ZM42.669,3.368a.4.4,0,0,0-.4.4c0,.438.8.438.8,0a.4.4,0,0,0-.4-.4Zm-21.426,0a.4.4,0,0,0-.4.4c0,.438.8.438.8,0A.4.4,0,0,0,21.243,3.368ZM54.206,59.409H9.705A1.205,1.205,0,0,1,8.5,58.2V30.355a1.205,1.205,0,0,1,1.206-1.206h44.5a1.205,1.205,0,0,1,1.206,1.206V58.2a1.205,1.205,0,0,1-1.206,1.206ZM10.911,57H53V31.561H10.911ZM39.968,52.49a2.916,2.916,0,0,1-2.8-3.627H31.023a2.9,2.9,0,0,1-2.854-3.379H26.742A2.91,2.91,0,0,1,21.9,48.265l-3.631-3.629a2.908,2.908,0,0,1,0-4.093L21.9,36.914A2.915,2.915,0,0,1,26.744,39.7h6.144a2.9,2.9,0,0,1,2.854,3.379H37.17a2.91,2.91,0,0,1,4.844-2.781l3.631,3.629a2.894,2.894,0,0,1,0,4.093c-1.864,1.644-3.9,4.657-5.678,4.475Zm-8.944-7a.483.483,0,0,0,0,.966h8.5a1.214,1.214,0,0,1,.85,2.061l-.749.747c-.452.436.252,1.124.685.681h0l3.631-3.629a.483.483,0,0,0,0-.683L40.309,42c-.439-.446-1.132.246-.683.683l.746.744a1.214,1.214,0,0,1-.85,2.061ZM23.944,38.5a.492.492,0,0,0-.341.12h0l-3.631,3.629a.483.483,0,0,0,0,.683L23.6,46.56c.452.453,1.084-.237.683-.681l-.749-.749a1.214,1.214,0,0,1,.853-2.058h8.5a.483.483,0,0,0,0-.966h-8.5a1.214,1.214,0,0,1-.85-2.061l.749-.747a.466.466,0,0,0-.344-.8Zm-1.194-.732Z" fill="#1c54f8" stroke="#fff" stroke-width="1"></path></g></g></svg> 