<?xml version="1.0" encoding="UTF-8"?> <!-- Generator: Adobe Illustrator 25.3.1, SVG Export Plug-In . SVG Version: 6.00 Build 0) --> <svg xmlns="http://www.w3.org/2000/svg" xmlns:xlink="http://www.w3.org/1999/xlink" version="1.1" id="Layer_1" x="0px" y="0px" viewBox="0 0 80 80" style="enable-background:new 0 0 80 80;" xml:space="preserve"> <style type="text/css"> .st0{fill:#1B54F8;} </style> <desc>Created with Sketch.</desc> <path class="st0" d="M62,17.9c-8.2-8.2-21.4-8.2-29.6,0c-2.2,2.2-3.9,5-5,8C16.3,28.8,9.6,40.3,12.5,51.4s14.4,17.8,25.5,14.9 c6.7-1.8,12.2-6.8,14.4-13.4c11.2-2.9,17.9-14.4,15-25.6C66.5,23.8,64.7,20.6,62,17.9z M51.3,46.1c0,1.6-0.2,3.3-0.6,4.8 c-1.1,0.2-2.3,0.3-3.4,0.3c-1.1,0-2.2-0.1-3.3-0.3l7.3-7.3C51.3,44.6,51.3,45.3,51.3,46.1z M41.3,50.3L41.3,50.3 c-2.6-0.9-4.9-2.3-6.9-4.2l0,0l12.3-12.3c1.8,2.1,3.2,4.5,3.9,7.2v0L41.3,50.3z M32.8,44.4c-1.8-2.2-3-4.7-3.7-7.4l8.7-8.7 c2.7,0.7,5.1,2.1,7.2,3.9L32.8,44.4z M28.7,34.1c0-0.5-0.1-0.9-0.1-1.4c0-1.6,0.2-3.3,0.6-4.8c1.9-0.4,3.9-0.4,5.8-0.2L28.7,34.1z M32.7,64.7c-10.3,0-18.6-8.3-18.6-18.6c0-7.9,5-15,12.6-17.6c-0.5,2.5-0.5,5.1-0.1,7.7c0.1,0.9,0.4,1.8,0.6,2.7 c0.8,2.6,2.1,5.1,3.9,7.2c0.4,0.5,0.8,1,1.3,1.4c0.1,0.1,0.2,0.2,0.3,0.3c1.9,1.9,4.2,3.4,6.7,4.4c0.8,0.3,1.6,0.6,2.5,0.8 c1.7,0.4,3.5,0.7,5.3,0.7c0.9,0,1.7-0.1,2.6-0.2C46.9,60.3,40.2,64.7,32.7,64.7z M60.4,45.9c-2,2-4.4,3.5-7.1,4.5 c0.3-1.4,0.4-2.8,0.4-4.2c0-1.5-0.2-3-0.5-4.4c-0.2-0.9-0.4-1.7-0.7-2.6c-2.1-5.9-6.8-10.6-12.7-12.7c-0.8-0.3-1.7-0.5-2.6-0.7 c-1.4-0.3-2.9-0.5-4.4-0.5c-0.9,0-1.7,0.1-2.6,0.2c4.1-9.4,15-13.8,24.4-9.7s13.8,15,9.7,24.4C63.4,42.2,62,44.2,60.4,45.9z"></path> </svg> 