<?xml version="1.0" encoding="UTF-8"?> <svg xmlns="http://www.w3.org/2000/svg" xmlns:xlink="http://www.w3.org/1999/xlink" width="60" height="60" viewBox="0 0 60 60"><defs><clipPath id="clip-path"><rect id="Rectangle_1" data-name="Rectangle 1" width="60" height="60" transform="translate(91 95)" fill="#fff" stroke="#707070" stroke-width="1"></rect></clipPath></defs><g id="Mask_Group_1" data-name="Mask Group 1" transform="translate(-91 -95)" clip-path="url(#clip-path)"><g id="Group_2" data-name="Group 2" transform="translate(-128.266 -189)"><path id="Path_1" data-name="Path 1" d="M12.112,57.312H53.774a3.837,3.837,0,0,0,1.039-7.532V23.837a10.036,10.036,0,0,0-9.694-13.9A10.154,10.154,0,0,0,35.5,19.8v.141l-21.393,0a3.034,3.034,0,0,0-3.035,3.035V49.78a3.837,3.837,0,0,0,1.039,7.532ZM45.194,11.173h.363a8.8,8.8,0,0,1,2.169,17.332,1.69,1.69,0,0,0-.769.425l-2.975,2.894a.464.464,0,0,1-.443.118.481.481,0,0,1-.333-.326l-.769-2.765,0,0A1.738,1.738,0,0,0,41.56,27.8a8.756,8.756,0,0,1-4.774-8.006,8.9,8.9,0,0,1,8.407-8.618ZM40.951,28.887a.472.472,0,0,1,.252.3l.776,2.765v0a1.687,1.687,0,0,0,1.194,1.183,1.916,1.916,0,0,0,.443.06,1.7,1.7,0,0,0,1.183-.485l2.975-2.889a.444.444,0,0,1,.21-.118,9.485,9.485,0,0,0,1.319-.437V44.452A1.849,1.849,0,0,1,47.455,46.3H18.4a1.847,1.847,0,0,1-1.848-1.848v-16.8A1.849,1.849,0,0,1,18.4,25.8h19a9.907,9.907,0,0,0,3.555,3.086ZM14.107,21.17H35.6a9.936,9.936,0,0,0,1.042,3.411H18.4a3.08,3.08,0,0,0-3.079,3.081v16.79A3.075,3.075,0,0,0,18.4,47.531H47.485a3.075,3.075,0,0,0,3.079-3.079V28.7A10.081,10.081,0,0,0,53.6,26.018V49.637h-12.2a10.376,10.376,0,0,0-4.576,1.072,9.111,9.111,0,0,1-7.842.111l-.517-.24a10.475,10.475,0,0,0-4.312-.942H12.3V22.973a1.808,1.808,0,0,1,1.8-1.8Zm-2,29.7H24.155a9.223,9.223,0,0,1,3.806.831l.51.24a10.341,10.341,0,0,0,8.9-.129,9.159,9.159,0,0,1,4.035-.942H53.774a2.611,2.611,0,0,1,0,5.215H12.112a2.611,2.611,0,0,1,0-5.215ZM40.445,16.224h0ZM22.4,44.186H36.128a2.6,2.6,0,0,0,2.591-2.591v-.376a3.282,3.282,0,0,0,0-6.449,2.592,2.592,0,0,0-2.587-2.513H33.56v-.395a2.249,2.249,0,0,0-2.25-2.247H27.2a2.248,2.248,0,0,0-2.268,2.247v.395H22.4a2.6,2.6,0,0,0-2.6,2.6v6.739a2.6,2.6,0,0,0,2.6,2.591ZM40.161,38a2.044,2.044,0,0,1-1.441,1.947v-3.9A2.057,2.057,0,0,1,40.161,38ZM26.168,31.861a1.017,1.017,0,0,1,.3-.721,1.034,1.034,0,0,1,.723-.3H31.31a1.017,1.017,0,0,1,1.016,1.016v.395H26.169Zm-5.137,2.993a1.36,1.36,0,0,1,1.367-1.36H36.128a1.364,1.364,0,0,1,1.36,1.36v6.739a1.361,1.361,0,0,1-1.36,1.36H22.4a1.36,1.36,0,0,1-1.367-1.36Zm2.76,3.079h2.414v0a1.712,1.712,0,1,0,0-3.418H23.789a1.712,1.712,0,1,0,0,3.418Zm0-2.187h2.414v0a.48.48,0,1,1,0,.954H23.789a.48.48,0,1,1,0-.954Zm8.535,2.19h2.421a1.712,1.712,0,0,0,0-3.418H32.326a1.712,1.712,0,0,0,0,3.418Zm0-2.187h2.421a.48.48,0,0,1,0,.954H32.326a.48.48,0,0,1,0-.954Zm-1.1,3.079H27.3a.616.616,0,0,0-.614.617,2.574,2.574,0,1,0,5.148,0,.615.615,0,0,0-.617-.677Zm-1.982,1.9A1.338,1.338,0,0,1,28.058,40h2.421a1.336,1.336,0,0,1-1.231.728Z" transform="translate(216 280.067)" fill="#1c54f8"></path><g id="Group_1" data-name="Group 1" transform="translate(255.389 294.323)"><path id="Path_2" data-name="Path 2" d="M35.9,32.158a.411.411,0,0,1,.821,0,.653.653,0,0,0,.651.651h0a.646.646,0,0,0,.456-.189.67.67,0,0,0,.2-.466c.005-.42-.363-.53-.738-.641-.674-.2-1.362-.4-1.386-1.471,0-.056,0,.005,0-.031a1.432,1.432,0,0,1,.428-1.018,1.483,1.483,0,0,1,.634-.372V28.2a.411.411,0,0,1,.821,0v.417a1.485,1.485,0,0,1,.631.373,1.467,1.467,0,0,1,.431,1.041.411.411,0,0,1-.821,0,.653.653,0,0,0-.651-.651h-.029a.663.663,0,0,0-.44.193.615.615,0,0,0-.185.437c0,.051,0-.027,0,.015.011.468.408.587.8.7.674.2,1.336.4,1.324,1.431a1.492,1.492,0,0,1-.433,1.039,1.463,1.463,0,0,1-.626.372v.417a.411.411,0,0,1-.821,0v-.417A1.473,1.473,0,0,1,35.9,32.158Zm7.158-3.975-.3.67A5.833,5.833,0,0,0,31.657,29.92a.408.408,0,0,0,.8.163,5.016,5.016,0,0,1,9.577-.824l-.837-.38a.41.41,0,1,0-.337.746l1.651.748a.41.41,0,0,0,.542-.2l.748-1.651a.41.41,0,1,0-.746-.337ZM31.682,33.936l.286-.633A5.833,5.833,0,0,0,43.08,32.277a.408.408,0,0,0-.8-.163,5.015,5.015,0,0,1-9.613.729l.874.4a.41.41,0,1,0,.337-.746l-1.651-.748a.41.41,0,0,0-.542.2L30.938,33.6a.41.41,0,0,0,.746.337Z" transform="translate(-30.902 -25.266)" fill="#1c54f8" stroke="#1c54f9" stroke-width="0.3" fill-rule="evenodd"></path></g></g></g></svg> 