<?xml version="1.0" encoding="UTF-8"?> <svg xmlns="http://www.w3.org/2000/svg" id="Layer_1" data-name="Layer 1" viewBox="0 0 80 80"><defs><style>.cls-1{fill:#1b54f8;}</style></defs><path class="cls-1" d="M59.9,63.8l-2.3-2.3V32.1l-.4-.4-3.8-3.8V14.8H19.8V58.5H24v4.2H56.4L58.7,65a.75.75,0,0,0,1.2,0A.75.75,0,0,0,59.9,63.8ZM54.8,31.6H45V21.9l8.4,8.4ZM24,56.8H21.5V16.5H51.8v9.7L45,19.4l-.5-.4H24ZM56,61H25.7V20.7H43.3V33.3H56Z"></path><path class="cls-1" d="M39.5,60.1a8.24,8.24,0,0,1-8.2-8.2,7.25,7.25,0,0,1,.7-3.3,8.3,8.3,0,0,1,1.9-2.7.4.4,0,0,1,.7.3c0,.1-.1.2-.1.3a7.25,7.25,0,0,0-2.3,5.4,7.38,7.38,0,0,0,7.4,7.4,7.48,7.48,0,0,0,7.2-5.6H46a7.57,7.57,0,0,1-1.5-.1,6.64,6.64,0,0,1-2-.6,8.64,8.64,0,0,1-1.6-1l-.1-.1a4.89,4.89,0,0,1-1.2-1.3l-.1-.1a8.64,8.64,0,0,1-1-1.6c-.3-.7-.5-1.4-.7-2a7.57,7.57,0,0,1-.1-1.5v-.8a6.39,6.39,0,0,0-1.9.8c-.1,0-.1.1-.2.1a.52.52,0,0,1-.4-.2.19.19,0,0,1,0-.3c.1-.1.1-.2.2-.3a7.71,7.71,0,0,1,2.5-1,8.3,8.3,0,0,1,6.9-6.5,4.48,4.48,0,0,1,1.1-.1,7.57,7.57,0,0,1,1.5.1,6.64,6.64,0,0,1,2,.6,8.64,8.64,0,0,1,1.6,1l.1.1a6.79,6.79,0,0,1,1.2,1.2l.1.1a13,13,0,0,1,1,1.5,15.87,15.87,0,0,1,.7,2,7.57,7.57,0,0,1,.1,1.5,4.1,4.1,0,0,1-.1,1.1,8.3,8.3,0,0,1-6.5,7A8.22,8.22,0,0,1,39.5,60.1Zm5.9-7.2h1.4l.1-.1V51.5Zm-2.1-.5,1,.3,2.4-2.4c-.1-.3-.2-.6-.3-1Zm9.6-4.5-4.6,4.6A8,8,0,0,0,52.9,47.9ZM41.7,51.5c.3.2.5.3.8.5l3.6-3.6a3.51,3.51,0,0,0-.5-.8Zm5.9-.9a4.12,4.12,0,0,1,.1,1.2l5.5-5.5V45Zm-7.3-.2.6.6,4-4-.6-.6Zm-1-1.5a3.51,3.51,0,0,0,.5.8l3.9-3.9c-.3-.2-.5-.3-.8-.5Zm7.8-.3.3.9,5.7-5.7c-.1-.3-.2-.6-.3-1Zm-8.5-1.5c.1.3.2.6.3,1L42,45c-.3-.1-.7-.2-1-.3Zm7.6-.1a3.51,3.51,0,0,1,.5.8L52.5,42a3.51,3.51,0,0,0-.5-.8ZM45,45.7l.6.6,5.8-5.8-.6-.6Zm-5.5-1.2a2.77,2.77,0,0,0-.9.1V46L40,44.6A1.09,1.09,0,0,0,39.5,44.5Zm4,.2c.3.2.5.3.8.5l5.8-5.8c-.3-.2-.5-.3-.8-.5Zm-1.8-.8c.3.1.6.2,1,.3l5.7-5.7c-.3-.1-.7-.2-1-.3Zm-2.2-.3a4.87,4.87,0,0,1,1.2.1l5.6-5.6h-.5a2.77,2.77,0,0,0-.9.1Zm3.9-5.1A7.43,7.43,0,0,0,38.9,43Z"></path><path class="cls-1" d="M53.9,44h0a7.62,7.62,0,0,0-.6-2v-.1a5.6,5.6,0,0,0-1-1.5l-.1-.1h0A6.79,6.79,0,0,0,51,39.1h0l-.1-.1a13,13,0,0,0-1.5-1h-.1a7,7,0,0,0-1.9-.6h0a6.6,6.6,0,0,0-1.4-.1,4.1,4.1,0,0,0-1.1.1h0A8.3,8.3,0,0,0,38,43.9a7.71,7.71,0,0,0-2.5,1c-.2.1-.2.3-.1.5s.3.2.5.1a4.85,4.85,0,0,1,2.1-.8v.9a6.15,6.15,0,0,0,.1,1.4h0a6,6,0,0,0,.6,1.9V49a5.6,5.6,0,0,0,1,1.5l.1.1h0A6.79,6.79,0,0,0,41,51.8h0l.1.1a13,13,0,0,0,1.5,1h.1a7,7,0,0,0,1.9.6h0a7.57,7.57,0,0,0,1.5.1H47a7.5,7.5,0,0,1-14.8-1.7,7.25,7.25,0,0,1,2.3-5.4A.35.35,0,0,0,34,46a9.66,9.66,0,0,0-1.9,2.6,7.25,7.25,0,0,0-.7,3.3A8.13,8.13,0,0,0,39.5,60a8.23,8.23,0,0,0,8-6.6A8.3,8.3,0,0,0,54,46.5h0c0-.3.1-.7.1-1C54,45,54,44.5,53.9,44ZM52,41.1a8.79,8.79,0,0,1,.6,1l-6,5.9c-.2-.3-.4-.7-.6-1Zm-.5-.5-5.9,5.9a6,6,0,0,0-.8-.8l5.9-5.9A6,6,0,0,1,51.5,40.6Zm-1.3-1.2-5.9,5.9a8.79,8.79,0,0,0-1-.6l5.9-5.9A8.79,8.79,0,0,1,50.2,39.4Zm-2.8-1.2a5.64,5.64,0,0,1,1.2.4l-5.9,5.9a5.64,5.64,0,0,0-1.2-.4ZM45,38.1c.3,0,.6-.1.9-.1h.7l-5.8,5.8a5.28,5.28,0,0,0-1.3-.1h-.2Zm-1.2.2-5.1,5.1A7.29,7.29,0,0,1,43.8,38.3Zm-5.4,7.9v-.7a2.77,2.77,0,0,1,.1-.9l.1-.1c.3,0,.6-.1.9-.1h.7Zm.1.8,2.4-2.4a5.64,5.64,0,0,1,1.2.4l-3.3,3.3A5,5,0,0,0,38.5,47Zm1.3,2.8a8.79,8.79,0,0,1-.6-1l3.6-3.6c.3.2.7.4,1,.6Zm.4.6,4.2-4.2a6,6,0,0,1,.8.8L41,51.1A5.72,5.72,0,0,1,40.2,50.4Zm1.3,1.2,4-4a8.79,8.79,0,0,1,.6,1l-3.7,3.7A5.5,5.5,0,0,0,41.5,51.6Zm2.8,1.2a5.64,5.64,0,0,1-1.2-.4l3.3-3.3a5.64,5.64,0,0,1,.4,1.2Zm2.6-.1-.2.2H45.1l1.8-1.8v.7A1.35,1.35,0,0,1,46.9,52.7Zm.5-2.9a5.64,5.64,0,0,0-.4-1.2l5.9-5.9a5.64,5.64,0,0,1,.4,1.2Zm.5,2.9,5.2-5.2A7.56,7.56,0,0,1,47.9,52.7Zm5.4-6.3L47.6,52v-.1a5.7,5.7,0,0,0-.1-1.3l5.8-5.8v.7A2.72,2.72,0,0,1,53.3,46.4Z"></path></svg> 