<?xml version="1.0" encoding="UTF-8"?> <svg xmlns="http://www.w3.org/2000/svg" width="61" height="61" viewBox="0 0 61 61" fill="none"><mask id="mask0_1_162" style="mask-type:luminance" maskUnits="userSpaceOnUse" x="0" y="0" width="61" height="61"><path d="M60.9 0.5H0.900024V60.5H60.9V0.5Z" fill="white"></path></mask><g mask="url(#mask0_1_162)"><path d="M60 25.3C59.2 24.3 58.2 23.7 57 23.7C55.2 23.7 53.5 24.2 51.9 25.2V17.9C51.9 15 49.8 12.7 47.1 12.7H38.1V10C38.1 7.8 36.4 5.89999 34.3 5.89999H28.6C26.5 5.89999 24.8 7.7 24.8 10V12.6H15.9C13.3 12.6 11.1 14.9 11.1 17.8V37.1C11.1 40 13.2 42.3 15.9 42.3H32.9L35.7 44.9C35.8 45 36 45.2 36 45.4L37.6 49.1C38.1 50.3 39.2 51.1 40.4 51.1C41.1 51.1 41.7 50.8 42.3 50.4L42.6 50.1C44 48.9 44.6 47 44.2 45.1L44 44.4L46.1 42.8L48.5 47.2C49.1 48.2 50.1 48.9 51.2 48.9C52.1 48.9 53 48.4 53.7 47.7C54.8 46.2 55.2 44.4 54.8 42.5L53.7 37.2L56.7 34.9C58.6 33.4 60 31.3 60.6 28.9C60.9 27.6 60.7 26.3 60 25.3ZM47.1 15.5C48.3 15.5 49.3 16.5 49.3 17.9V27.4L47.7 28.8L43.3 26.3V15.6H47.1V15.5ZM27.5 10C27.5 9.3 28 8.70001 28.7 8.70001H34.4C35 8.70001 35.6 9.2 35.6 10V12.6H27.5V10ZM19.7 39.5H15.9C14.7 39.5 13.7 38.5 13.7 37.1V17.8C13.7 16.5 14.6 15.4 15.9 15.4H19.7V39.5ZM22.3 15.5H40.6V25.5H40.5C39.7 25.5 38.9 25.7 38.2 26C37.3 26.5 36.6 27.4 36.4 28.4C36.2 29.5 36.5 30.6 37.2 31.5L40.5 35.1L38.5 36.9L37.9 36.6C37.2 36.2 36.5 36 35.7 36C34.8 36 33.8 36.3 33.1 37L32.8 37.1C32.1 37.7 31.7 38.6 31.6 39.5H22.1V15.5H22.3ZM58.1 28.1C57.7 29.9 56.7 31.5 55.2 32.6L50.7 35.9L52.2 43.1C52.4 44.1 52.2 45.1 51.6 45.9C51.5 46 51.3 46.1 51.2 46.1C51 46.1 50.8 46 50.8 45.8L47 38.8L41.1 43.3L41.7 45.9C41.9 46.6 41.6 47.4 41.1 47.9L40.8 48.2C40.7 48.3 40.6 48.3 40.5 48.3C40.3 48.3 40.1 48.2 40.1 48L38.5 44.2C38.2 43.7 37.9 43.1 37.5 42.8L34.6 40.2C34.3 40 34.3 39.6 34.6 39.4L34.9 39.1C35.2 38.8 35.6 38.7 35.9 38.7C36.2 38.7 36.5 38.8 36.8 39L38.9 40.4L44.4 35.4L39.1 29.6C38.8 29.3 38.9 28.9 39.2 28.6C39.6 28.4 40 28.3 40.5 28.3C41 28.3 41.5 28.4 41.9 28.7L47.9 32.2L52.1 28.5C53.4 27.3 55.1 26.7 56.8 26.7C57.7 26.5 58.3 27.3 58.1 28.1Z" fill="#1B54F8" stroke="white" stroke-width="0.5" stroke-miterlimit="10"></path><path d="M31.2 46.2C17.7 54.7 8.8 52 5.4 47.2C2.3 42.9 3.1 36.7 7.4 32.1C7.9 31.6 7.9 30.7 7.4 30.1C6.9 29.6 6.09995 29.6 5.59995 30.1C0.299951 35.7 -0.6 43.5 3.4 49C5.8 52.4 9.79998 54.4 14.5 54.6C14.8 54.6 15 54.6 15.3 54.6C20.5 54.6 26.4 52.6 32.6 48.7C33.2 48.3 33.3999 47.5 33.0999 46.8C32.5999 46 31.8 45.8 31.2 46.2Z" fill="#1B54F8" stroke="white" stroke-width="0.5" stroke-miterlimit="10"></path></g></svg> 