<?xml version="1.0" encoding="UTF-8"?> <svg xmlns="http://www.w3.org/2000/svg" width="90" height="90" viewBox="0 0 90 90" fill="none"><mask id="mask0_11_48" style="mask-type:alpha" maskUnits="userSpaceOnUse" x="0" y="0" width="90" height="90"><rect width="90" height="90" fill="#D9D9D9"></rect></mask><g mask="url(#mask0_11_48)"><path fill-rule="evenodd" clip-rule="evenodd" d="M85.1443 33.825L79.2133 37.185C79.0208 37.2951 78.8571 37.4491 78.7354 37.6346C78.6138 37.82 78.5377 38.0316 78.5133 38.252L76.7273 54.12L74.2983 55.52L73.6303 42.255C73.6188 42.0141 73.5455 41.7802 73.4175 41.5759C73.2894 41.3715 73.111 41.2035 72.8993 41.088C72.6876 40.9725 72.4497 40.9134 72.2086 40.9164C71.9675 40.9194 71.7311 40.9843 71.5223 41.105L64.0223 45.432C63.8609 45.5249 63.7197 45.6491 63.6069 45.7973C63.494 45.9455 63.4119 46.1147 63.3653 46.295L62.0863 51.195L60.0323 52.382L59.4663 46.608C59.4472 46.4082 59.3853 46.2149 59.2849 46.0412C59.1844 45.8675 59.0478 45.7173 58.8843 45.601L54.1663 42.224L56.2233 41.037L61.1133 42.392C61.293 42.4414 61.4808 42.4547 61.6657 42.431C61.8505 42.4073 62.0289 42.3471 62.1903 42.254L69.6843 37.927C69.8933 37.8067 70.0678 37.6348 70.1911 37.4276C70.3144 37.2205 70.3824 36.9851 70.3886 36.7441C70.3947 36.5031 70.3387 36.2646 70.2261 36.0514C70.1135 35.8383 69.9479 35.6577 69.7453 35.527L58.5903 28.316L61.0203 26.916L75.6533 33.305C75.8571 33.3939 76.0791 33.4333 76.3011 33.4199C76.523 33.4065 76.7387 33.3408 76.9303 33.228L82.8043 29.773C84.2315 29.2525 85.8061 29.3139 87.1883 29.944C87.0436 31.4563 86.3093 32.8498 85.1443 33.825ZM32.0883 70.483C32.4142 71.4297 32.3987 72.4606 32.0443 73.397C28.031 71.8349 24.453 69.3288 21.6133 66.091C25.4001 65.327 29.1163 64.2479 32.7233 62.865C32.3208 63.6975 32.0415 64.5841 31.8943 65.497C31.6101 67.1542 31.6752 68.8524 32.0853 70.483H32.0883ZM47.9073 70.052C49.9016 70.6664 51.8432 71.4403 53.7133 72.366C47.8296 75.3012 41.0748 75.9806 34.7243 74.276C35.2286 72.8719 35.2696 71.3431 34.8413 69.914C34.5075 68.6319 34.4475 67.2938 34.6653 65.987C35.0053 64.062 35.6533 63.4 35.9493 63.319C36.2453 63.238 36.9173 63.571 37.7243 64.507C40.2663 67.456 44.1513 68.776 47.9073 70.052ZM3.60033 60.252C1.75933 57.061 3.47333 52.737 5.23533 49.672C7.51907 45.9061 10.328 42.485 13.5773 39.512C12.2793 43.5654 11.8748 47.852 12.3916 52.0767C12.9084 56.3014 14.3344 60.364 16.5713 63.985C10.0113 64.577 5.33133 63.249 3.60033 60.251V60.252ZM41.6773 21.814C35.3807 21.8219 29.289 24.0522 24.4758 28.1118C19.6626 32.1715 16.4369 37.7999 15.3673 44.005C16.4081 44.9332 17.5942 45.6842 18.8783 46.228C21.2973 47.1617 23.8294 47.771 26.4083 48.04C30.3293 48.64 34.3833 49.268 37.3993 51.73C38.3573 52.511 39.0723 52.73 39.3543 52.592C39.6363 52.454 40.1543 51.692 40.1543 49.742C40.1419 48.4167 39.8503 47.1089 39.2983 45.904C38.2983 43.404 37.8593 41.452 40.6783 37.356C42.3573 34.917 42.1783 31.323 41.9853 27.519C41.859 25.6217 41.8313 23.7191 41.9023 21.819H41.6773V21.814ZM89.3663 27.93C88.232 27.2168 86.9469 26.7783 85.6132 26.6495C84.2795 26.5206 82.9342 26.705 81.6843 27.188C81.6152 27.2161 81.5483 27.2495 81.4843 27.288L76.1243 30.441L61.4943 24.052C61.2928 23.9634 61.0733 23.9235 60.8535 23.9357C60.6337 23.9479 60.4198 24.0117 60.2293 24.122L55.1933 27.03C54.983 27.1492 54.8072 27.3208 54.6829 27.5281C54.5586 27.7354 54.4901 27.9714 54.484 28.213C54.478 28.4547 54.5346 28.6938 54.6484 28.907C54.7622 29.1203 54.9292 29.3005 55.1333 29.43L66.2863 36.642L61.2943 39.525L56.4133 38.178C56.2335 38.1285 56.0455 38.1153 55.8605 38.139C55.6755 38.1626 55.497 38.2228 55.3353 38.316L50.8793 40.889C50.6757 41.0067 50.5049 41.1736 50.3825 41.3744C50.2601 41.5752 50.19 41.8035 50.1787 42.0384C50.1673 42.2733 50.2151 42.5073 50.3176 42.719C50.4201 42.9306 50.574 43.1132 50.7653 43.25L55.7353 46.807C52.4179 49.3488 48.9364 51.6689 45.3133 53.752C36.5133 58.836 27.4603 62.299 19.6663 63.585C16.6123 59.1497 14.98 53.8901 14.9863 48.505C14.9863 48.101 14.9957 47.701 15.0143 47.305C15.8709 47.8766 16.7741 48.3751 17.7143 48.795C20.3664 49.839 23.1465 50.5224 25.9803 50.827C29.6923 51.399 33.1983 51.939 35.6213 53.915C36.586 54.8237 37.8377 55.367 39.1603 55.451C39.6445 55.4534 40.123 55.3468 40.5603 55.139C42.1113 54.403 42.9673 52.488 42.9673 49.749C42.9596 48.066 42.6006 46.4032 41.9133 44.867C41.2083 43.094 40.8193 42.117 42.9973 38.952C45.2153 35.729 45.0113 31.673 44.7973 27.38C44.6764 25.5843 44.6484 23.7836 44.7133 21.985C47.3561 22.2805 49.939 22.974 52.3743 24.042C52.5444 24.1217 52.7287 24.1666 52.9164 24.174C53.1041 24.1814 53.2913 24.1511 53.4671 24.0849C53.6429 24.0188 53.8037 23.9181 53.94 23.7888C54.0762 23.6596 54.1852 23.5043 54.2606 23.3323C54.3359 23.1602 54.376 22.9748 54.3785 22.787C54.381 22.5992 54.3459 22.4127 54.2752 22.2387C54.2046 22.0647 54.0998 21.9066 53.967 21.7737C53.8343 21.6408 53.6763 21.5358 53.5023 21.465C46.9299 18.596 39.5378 18.2179 32.707 20.4015C25.8762 22.585 20.074 27.1807 16.3843 33.33C10.2843 38.255 5.58433 43.417 2.79733 48.269C-0.259666 53.584 -0.822666 58.213 1.16533 61.657C3.16533 65.125 7.51533 66.938 13.6353 66.938C15.2289 66.931 16.8205 66.8228 18.4003 66.614C21.7163 70.8792 26.1398 74.1519 31.1884 76.0751C36.237 77.9984 41.7168 78.4983 47.0301 77.5203C52.3434 76.5424 57.286 74.1241 61.319 70.5293C65.352 66.9346 68.3204 62.3013 69.9003 57.135C70.0047 56.7798 69.9647 56.3977 69.7891 56.0718C69.6135 55.7458 69.3164 55.5023 68.9624 55.3941C68.6083 55.2858 68.2258 55.3216 67.898 55.4937C67.5702 55.6657 67.3234 55.9601 67.2113 56.313C65.4241 62.2267 61.633 67.3332 56.4893 70.755C54.0879 69.3043 51.5074 68.1731 48.8133 67.39C45.2573 66.181 41.8983 65.04 39.8563 62.671C39.2429 61.9122 38.4748 61.2928 37.6033 60.854C40.7215 59.4561 43.7656 57.8984 46.7233 56.187C50.261 54.1504 53.6677 51.8943 56.9233 49.432L57.4523 54.837C57.4756 55.0706 57.557 55.2947 57.6891 55.4888C57.8211 55.683 57.9997 55.841 58.2084 55.9484C58.4172 56.0559 58.6495 56.1094 58.8843 56.1041C59.119 56.0988 59.3487 56.0348 59.5523 55.918L64.0133 53.345C64.1747 53.2521 64.316 53.1279 64.4288 52.9797C64.5416 52.8315 64.6237 52.6623 64.6703 52.482L65.9483 47.582L70.9423 44.7L71.6103 57.965C71.6242 58.2042 71.6989 58.4358 71.8274 58.638C71.9559 58.8403 72.1338 59.0063 72.3445 59.1205C72.5551 59.2347 72.7914 59.2932 73.0309 59.2905C73.2705 59.2877 73.5054 59.2239 73.7133 59.105L78.7493 56.205C78.9403 56.0949 79.1028 55.9414 79.2235 55.7569C79.3442 55.5724 79.4199 55.3621 79.4443 55.143L81.2253 39.283L86.6343 36.217C86.7007 36.1804 86.7636 36.1379 86.8223 36.09C87.866 35.2496 88.6988 34.1769 89.2544 32.9576C89.81 31.7383 90.0729 30.406 90.0223 29.067C90.0143 28.8383 89.9502 28.6151 89.8359 28.4168C89.7215 28.2186 89.5603 28.0515 89.3663 27.93Z" fill="#1B54F8"></path></g></svg> 