<?xml version="1.0" encoding="UTF-8"?> <svg xmlns="http://www.w3.org/2000/svg" id="Layer_1" data-name="Layer 1" viewBox="0 0 80 80"><defs><style>.cls-1{fill:#1b54f8;}</style></defs><g id="Travel___Tourism" data-name="Travel_&amp;_Tourism"><g id="Travel"><path id="Shape" class="cls-1" d="M30.64,69.92h-.53a3.47,3.47,0,0,1-2.63-1.79l-5-8.93L20.4,61.3a1.37,1.37,0,0,1-.91.37,1.24,1.24,0,0,1-.9-.37,1.4,1.4,0,0,1-.38-.9,1.27,1.27,0,0,1,.38-.9l2.11-2.1-8.89-4.95A3.5,3.5,0,0,1,10,49.83a3.64,3.64,0,0,1,1.05-3.08l1-1a3.62,3.62,0,0,1,2.56-1.05,4.67,4.67,0,0,1,1.05.15l8.82,2.7L36.36,35.65h-.07l1.88-1.88h0l7.76-7.72L16.86,17.2c-.08,0-.23-.07-.3-.07a.73.73,0,0,0-.68.3l-1.51,1.42a1,1,0,0,0,.23,1.58l20.48,11.4a1.28,1.28,0,0,1,.68,1,1.19,1.19,0,0,1-.38,1.12,1.26,1.26,0,0,1-1.5.23L13.32,22.83a3.43,3.43,0,0,1-1.81-2.78,3.47,3.47,0,0,1,1.13-3l1.43-1.42a3.57,3.57,0,0,1,2.56-1.05,4.84,4.84,0,0,1,1.06.15L27,17.5l2.41-2.4a4.2,4.2,0,0,1,6,0,4.29,4.29,0,0,1,.68,5.17l12,3.68L60.39,11.73a5.63,5.63,0,1,1,8,8L56.25,31.9l3.61,11.85a4.3,4.3,0,0,1,5,.67,4.26,4.26,0,0,1,0,6l-2.26,2.25,2.86,9.53a3.41,3.41,0,0,1-.91,3.52l-1.5,1.5a3.58,3.58,0,0,1-2.56,1.06h-.45a3.82,3.82,0,0,1-2.72-1.81L45.93,46.08a1.27,1.27,0,0,1,.22-1.58,1.44,1.44,0,0,1,.91-.37,1.25,1.25,0,0,1,1.13.67L59.63,65.28a1.11,1.11,0,0,0,.76.52h.15a1,1,0,0,0,.75-.3L62.8,64A1,1,0,0,0,63,63L54.14,34l-7.76,7.65-.08.08L44.42,43.6h0l-12.05,12L35,64.3a3.58,3.58,0,0,1-.91,3.6l-1.05,1a3.27,3.27,0,0,1-2.41,1Zm-.9-3.14a1.09,1.09,0,0,0,.75.52h.15a.75.75,0,0,0,.68-.3l1-1a.85.85,0,0,0,.23-1l-3.09-10.2L66.56,18a3.06,3.06,0,0,0,0-4.35,3,3,0,0,0-2.18-.9,3,3,0,0,0-2.19.9l-37,36.82L14.83,47.28c-.08,0-.23-.08-.31-.08a1,1,0,0,0-.75.3l-1,1a1.17,1.17,0,0,0-.3.83,1.15,1.15,0,0,0,.53.75l9.56,5.32,3.69-3.67a1.38,1.38,0,0,1,.91-.38,1.24,1.24,0,0,1,.9.38,1.22,1.22,0,0,1,0,1.8l-3.69,3.67Zm32-16.88L63,48.63a1.66,1.66,0,0,0,.45-1.13A1.5,1.5,0,0,0,63,46.38a1.67,1.67,0,0,0-1.13-.46,1.71,1.71,0,0,0-1.13.46l-.07.07ZM33.35,19.45l.23-.22A1.66,1.66,0,0,0,34,18.1,1.52,1.52,0,0,0,33.58,17a1.67,1.67,0,0,0-1.13-.45,1.66,1.66,0,0,0-1.13.45L29.89,18.4Zm8.36,47a1.24,1.24,0,0,0,.9-.37l7.76-7.65a1.38,1.38,0,0,0,.38-.91,1.2,1.2,0,0,0-.38-.89,1.35,1.35,0,0,0-.9-.38,1.25,1.25,0,0,0-.91.38l-7.75,7.57a1.37,1.37,0,0,0-.38.9,1.24,1.24,0,0,0,.38.9,1.3,1.3,0,0,0,.9.45Zm-27-26.85a1.21,1.21,0,0,0,.9-.38l7.69-7.65a1.22,1.22,0,0,0,0-1.79,1.4,1.4,0,0,0-.91-.38,1.23,1.23,0,0,0-.9.38L13.85,37.3a1.22,1.22,0,0,0,0,1.8,1.16,1.16,0,0,0,.9.45Zm.08-6a1.24,1.24,0,0,0,.9-.38L18.89,30a1.35,1.35,0,0,0,.38-.89,1.21,1.21,0,0,0-.38-.9,1.35,1.35,0,0,0-.9-.38,1.25,1.25,0,0,0-.91.38l-3.16,3.15a1.21,1.21,0,0,0,0,1.79,1,1,0,0,0,.91.38ZM47.66,66.33a1.25,1.25,0,0,0,.9-.38l3.17-3.15a1.39,1.39,0,0,0,.37-.9,1.26,1.26,0,0,0-.37-.9,1.44,1.44,0,0,0-.91-.37,1.28,1.28,0,0,0-.9.37l-3.16,3.15a1.22,1.22,0,0,0,0,1.8,1.4,1.4,0,0,0,.9.38Z"></path></g></g></svg> 