<?xml version="1.0" encoding="UTF-8"?> <svg xmlns="http://www.w3.org/2000/svg" id="Layer_1" data-name="Layer 1" viewBox="0 0 72 72"><defs><style>.cls-1{fill:#fff;fill-opacity:0;stroke:#1b54f8;stroke-width:1.91px;}</style></defs><g id="Artboard"><g id="visual"><path id="Visual_TechnicalDesign_Icon" data-name="Visual TechnicalDesign Icon" class="cls-1" d="M44.52,32.72a10.82,10.82,0,0,0,3.09-7.55,11,11,0,0,0-9.55-10.84L39.3,13V6.17L36.41,3,33.52,6.17V13l1.24,1.37A11.06,11.06,0,0,0,25.2,25.17a10.81,10.81,0,0,0,3.09,7.55L16.72,55.55a5.63,5.63,0,0,0-5.07,5.55A5.45,5.45,0,0,0,12.46,64L10,68.81l6.77-2.16a5.83,5.83,0,0,0,.59,0,5.64,5.64,0,0,0,5.7-5.58,5.49,5.49,0,0,0-1.15-3.36l11.2-22.09a11.55,11.55,0,0,0,6.59,0L55.29,66.41l7.52,2.4ZM17.36,64.07a3,3,0,1,1,3-3A3,3,0,0,1,17.36,64.07ZM36.41,31a5.83,5.83,0,1,1,6-5.83A5.87,5.87,0,0,1,36.41,31Z"></path></g></g></svg> 