<?xml version="1.0" encoding="UTF-8"?> <svg xmlns="http://www.w3.org/2000/svg" xmlns:xlink="http://www.w3.org/1999/xlink" width="60" height="60" viewBox="0 0 60 60"><defs><clipPath id="clip-path"><rect id="Rectangle_28" data-name="Rectangle 28" width="60" height="60" transform="translate(426 90)" fill="#fff" stroke="#707070" stroke-width="1"></rect></clipPath></defs><g id="Mask_Group_3" data-name="Mask Group 3" transform="translate(-426 -90)" clip-path="url(#clip-path)"><g id="Group_5" data-name="Group 5" transform="translate(-11.78 -95)"><path id="Path_13" data-name="Path 13" d="M4.4,37.856H20.567v3.227H18.8a.6.6,0,0,0-.534.328l-1.432,2.907a.592.592,0,0,0,.534.855H30.676a.607.607,0,0,0,.506-.278.594.594,0,0,0,.028-.577l-1.432-2.907a.6.6,0,0,0-.534-.328H27.478V37.856h6.07v5.073a2.653,2.653,0,0,0,2.643,2.65h3.092a2.654,2.654,0,0,0,2.65-2.65V37.856h1.7a2.624,2.624,0,0,0,2.622-2.622V6.032A2.624,2.624,0,0,0,43.636,3.41H4.4A2.624,2.624,0,0,0,1.78,6.032v29.21A2.627,2.627,0,0,0,4.4,37.856ZM29.722,44h-11.4l.855-1.724h9.7Zm-7.965-2.914V37.856h4.538v3.227Zm17.526,3.306H36.191a1.462,1.462,0,0,1-1.46-1.46v-5.97a1.438,1.438,0,0,1,.256-.826,1.474,1.474,0,0,1,1.2-.634h3.1a1.462,1.462,0,0,1,1.46,1.46v5.97A1.464,1.464,0,0,1,39.283,44.389Zm4.353-7.716H41.912a.72.72,0,0,1-.021-.121c-.014-.085-.028-.171-.05-.249s-.043-.157-.071-.235a2.176,2.176,0,0,0-.093-.228c-.036-.071-.078-.142-.114-.214a2.064,2.064,0,0,0-.135-.207,1.956,1.956,0,0,0-.157-.185,2.105,2.105,0,0,0-.171-.185c-.057-.057-.121-.1-.178-.15a2.248,2.248,0,0,0-.207-.157c-.064-.043-.128-.071-.192-.107a2.559,2.559,0,0,0-.242-.121c-.057-.021-.128-.036-.185-.057-.1-.028-.192-.064-.3-.085a.139.139,0,0,1-.05-.007,2.413,2.413,0,0,0-.456-.043H36.2a2.737,2.737,0,0,0-.492.05H35.7a2.373,2.373,0,0,0-.321.093,1.436,1.436,0,0,0-.164.05c-.085.036-.171.085-.256.128-.064.036-.128.064-.192.1a2.08,2.08,0,0,0-.2.15c-.064.05-.128.1-.192.157a1.7,1.7,0,0,0-.157.164,2.184,2.184,0,0,0-.171.207,1.516,1.516,0,0,0-.114.178c-.05.085-.1.171-.142.256a1.427,1.427,0,0,0-.071.185c-.036.1-.064.192-.093.292a1.821,1.821,0,0,0-.036.192,1.106,1.106,0,0,0-.028.15H4.4a1.44,1.44,0,0,1-1.439-1.439v-1.81H45.068v1.81A1.425,1.425,0,0,1,43.636,36.674ZM4.4,4.593H43.636a1.44,1.44,0,0,1,1.439,1.439V32.249H2.97V6.032A1.434,1.434,0,0,1,4.4,4.593Z" transform="translate(444 190.59)" fill="#1c54f8" stroke="#fff" stroke-width="0.4"></path><path id="Path_14" data-name="Path 14" d="M6.589,46.96a.534.534,0,0,0-.2-.128.584.584,0,0,0-.641.128.606.606,0,0,0-.128.192.53.53,0,0,0,0,.449.7.7,0,0,0,.128.192.649.649,0,0,0,.192.128.507.507,0,0,0,.228.05.477.477,0,0,0,.221-.05.6.6,0,0,0,.2-.128.606.606,0,0,0,.128-.192.53.53,0,0,0,0-.449A.507.507,0,0,0,6.589,46.96Z" transform="translate(442.91 178.117)" fill="#1c54f8" stroke="#fff" stroke-width="0.4"></path><path id="Path_15" data-name="Path 15" d="M9.579,46.96a.584.584,0,0,0-.641-.128.6.6,0,0,0-.2.128.606.606,0,0,0-.128.192.53.53,0,0,0,0,.449.7.7,0,0,0,.128.192.534.534,0,0,0,.2.128.477.477,0,0,0,.221.05.582.582,0,0,0,.42-.178.579.579,0,0,0,.171-.413.617.617,0,0,0-.043-.228A.508.508,0,0,0,9.579,46.96Z" transform="translate(442.05 178.117)" fill="#1c54f8" stroke="#fff" stroke-width="0.4"></path><path id="Path_16" data-name="Path 16" d="M12.569,46.963a.616.616,0,0,0-.841,0,.606.606,0,0,0-.128.192.62.62,0,0,0-.05.221.612.612,0,0,0,.178.42.582.582,0,0,0,.42.178.594.594,0,0,0,.42-.178.612.612,0,0,0,.178-.42.62.62,0,0,0-.05-.221A.508.508,0,0,0,12.569,46.963Z" transform="translate(441.191 178.113)" fill="#1c54f8" stroke="#fff" stroke-width="0.4"></path><path id="Path_17" data-name="Path 17" d="M8.255,31.285H42.416a1.947,1.947,0,0,0,1.945-1.945V9.955A1.943,1.943,0,0,0,42.416,8.01H8.255A1.947,1.947,0,0,0,6.31,9.955V29.34A1.947,1.947,0,0,0,8.255,31.285ZM43.179,9.955V12.05H25.51L24.157,9.193h18.26A.763.763,0,0,1,43.179,9.955Zm-35.686,0a.763.763,0,0,1,.762-.762H22.846L24.6,12.9a.6.6,0,0,0,.534.342H43.179V29.348a.763.763,0,0,1-.762.762H8.255a.763.763,0,0,1-.762-.762Z" transform="translate(442.697 189.267)" fill="#1c54f8" stroke="#fff" stroke-width="0.4"></path><path id="Path_18" data-name="Path 18" d="M51.478,12.035a.594.594,0,0,0,.42-.178.536.536,0,0,0,.128-.192.6.6,0,0,0-.128-.641.6.6,0,0,0-1.019.42.609.609,0,0,0,.6.591Z" transform="translate(429.881 188.448)" fill="#1c54f8" stroke="#fff" stroke-width="0.4"></path><path id="Path_19" data-name="Path 19" d="M54.72,11.985a.5.5,0,0,0,.221.05.6.6,0,0,0,.42-.171.594.594,0,0,0,.178-.42.624.624,0,0,0-.05-.228.569.569,0,0,0-.128-.192.607.607,0,0,0-.834,0,.57.57,0,0,0-.178.42.594.594,0,0,0,.178.42A.549.549,0,0,0,54.72,11.985Z" transform="translate(428.883 188.448)" fill="#1c54f8" stroke="#fff" stroke-width="0.4"></path><path id="Path_20" data-name="Path 20" d="M10.9,12.933H22.778a.591.591,0,1,0,0-1.183H10.9a.591.591,0,0,0,0,1.183Z" transform="translate(441.547 188.192)" fill="#1c54f8" stroke="#fff" stroke-width="0.4"></path><path id="Path_21" data-name="Path 21" d="M27.367,19.524l-.121.021a.491.491,0,0,0-.107.05.143.143,0,0,0-.057.028.071.071,0,0,0-.028.036,1.1,1.1,0,0,0-.085.093,1.042,1.042,0,0,0-.064.093.558.558,0,0,0-.036.1.362.362,0,0,0-.021.121c0,.014-.007.028-.007.043v10.58c0,.014.007.028.007.043a.72.72,0,0,0,.021.121.412.412,0,0,0,.036.1.271.271,0,0,0,.064.093.528.528,0,0,0,.085.093.071.071,0,0,1,.028.036c.021.014.05.021.071.036s.043.021.064.036a.511.511,0,0,0,.207.043h7.63a.511.511,0,0,0,.207-.043.289.289,0,0,0,.064-.036c.021-.014.05-.021.071-.036a.071.071,0,0,0,.028-.036,1.1,1.1,0,0,0,.085-.093,1.042,1.042,0,0,0,.064-.093.558.558,0,0,0,.036-.1.362.362,0,0,0,.021-.121c0-.014.007-.028.007-.043V20.108c0-.014-.007-.028-.007-.043a.72.72,0,0,0-.021-.121.412.412,0,0,0-.036-.1.271.271,0,0,0-.064-.093.528.528,0,0,0-.085-.093.071.071,0,0,1-.028-.036c-.014-.014-.036-.014-.057-.028a.719.719,0,0,0-.107-.05.362.362,0,0,0-.121-.021c-.021,0-.043-.014-.064-.014H27.424A.168.168,0,0,1,27.367,19.524Zm4.6,5.87,2.494-3.455V28.85ZM33.9,30.09H28.585l2.657-3.683Zm-2.657-5.707L28.585,20.7H33.9Zm-.734,1.012L28.016,28.85V21.939Z" transform="translate(436.794 185.96)" fill="#1c54f8" stroke="#fff" stroke-width="0.4"></path><path id="Path_22" data-name="Path 22" d="M43.388,30.852a.412.412,0,0,0,.036.1.271.271,0,0,0,.064.093.528.528,0,0,0,.085.093.071.071,0,0,1,.028.036c.021.014.05.021.071.036s.043.021.064.036a.511.511,0,0,0,.207.043h7.63a.511.511,0,0,0,.207-.043.289.289,0,0,0,.064-.036c.021-.014.05-.021.071-.036a.071.071,0,0,0,.028-.036,1.1,1.1,0,0,0,.085-.093,1.042,1.042,0,0,0,.064-.093.558.558,0,0,0,.036-.1.362.362,0,0,0,.021-.121c0-.014.007-.028.007-.043V20.108c0-.014-.007-.028-.007-.043a.72.72,0,0,0-.021-.121.412.412,0,0,0-.036-.1.271.271,0,0,0-.064-.093.528.528,0,0,0-.085-.093.071.071,0,0,1-.028-.036c-.014-.014-.036-.014-.057-.028a.719.719,0,0,0-.107-.05.362.362,0,0,0-.121-.021c-.021,0-.043-.014-.064-.014H43.951a.208.208,0,0,0-.064.014l-.121.021a.491.491,0,0,0-.107.05.143.143,0,0,0-.057.028.071.071,0,0,0-.028.036,1.1,1.1,0,0,0-.085.093,1.042,1.042,0,0,0-.064.093.558.558,0,0,0-.036.1.362.362,0,0,0-.021.121c0,.014-.007.028-.007.043v10.58c0,.014.007.028.007.043A.362.362,0,0,0,43.388,30.852Zm5.1-5.457,2.494-3.455V28.85ZM50.42,30.09H45.105l2.657-3.683Zm-2.657-5.707L45.105,20.7H50.42Zm-.727,1.012L44.543,28.85V21.939Z" transform="translate(432.043 185.96)" fill="#1c54f8" stroke="#fff" stroke-width="0.4"></path><path id="Path_23" data-name="Path 23" d="M10.338,30.852a.412.412,0,0,0,.036.1.271.271,0,0,0,.064.093.528.528,0,0,0,.085.093.071.071,0,0,1,.028.036c.021.014.05.021.071.036s.043.021.064.036a.511.511,0,0,0,.207.043h7.63a.511.511,0,0,0,.207-.043.289.289,0,0,0,.064-.036c.021-.014.05-.021.071-.036a.071.071,0,0,0,.028-.036,1.1,1.1,0,0,0,.085-.093,1.042,1.042,0,0,0,.064-.093.558.558,0,0,0,.036-.1.362.362,0,0,0,.021-.121c0-.014.007-.028.007-.043V20.108c0-.014-.007-.028-.007-.043a.72.72,0,0,0-.021-.121.412.412,0,0,0-.036-.1.271.271,0,0,0-.064-.093.528.528,0,0,0-.085-.093.071.071,0,0,1-.028-.036c-.014-.014-.036-.014-.057-.028a.719.719,0,0,0-.107-.05.362.362,0,0,0-.121-.021c-.021,0-.043-.014-.064-.014H10.9a.208.208,0,0,0-.064.014l-.121.021a.719.719,0,0,0-.107.05.143.143,0,0,0-.057.028.071.071,0,0,0-.028.036,1.1,1.1,0,0,0-.085.093,1.042,1.042,0,0,0-.064.093.558.558,0,0,0-.036.1.362.362,0,0,0-.021.121c0,.014-.007.028-.007.043v10.58c0,.014.007.028.007.043C10.324,30.774,10.331,30.809,10.338,30.852Zm5.108-5.457,2.494-3.455V28.85ZM17.37,30.09H12.055l2.657-3.683Zm-2.657-5.707L12.055,20.7H17.37Zm-.727,1.012L11.493,28.85V21.939Z" transform="translate(441.547 185.96)" fill="#1c54f8" stroke="#fff" stroke-width="0.4"></path><path id="Path_24" data-name="Path 24" d="M52.011,50.1a.59.59,0,0,0-.591.591v1.46a.591.591,0,1,0,1.183,0v-1.46A.594.594,0,0,0,52.011,50.1Z" transform="translate(429.725 177.164)" fill="#1c54f8" stroke="#fff" stroke-width="0.4"></path></g></g></svg> 