<?xml version="1.0" encoding="UTF-8"?> <svg xmlns="http://www.w3.org/2000/svg" width="90" height="90" viewBox="0 0 90 90"><g id="Group_66" data-name="Group 66" transform="translate(-681 -600)"><rect id="Rectangle_9" data-name="Rectangle 9" width="90" height="90" transform="translate(681 600)" fill="#fff" opacity="0"></rect><g id="Group_64" data-name="Group 64" transform="translate(-535.509 -5)"><path id="Path_49" data-name="Path 49" d="M178.561,341.567H166.9a.648.648,0,0,1-.648-.648v-7.772a.648.648,0,1,1,1.3,0v7.124h11.01a.648.648,0,1,1,0,1.3Z" transform="translate(1068.207 325.427)" fill="#1b54f8" stroke="#1b54f8" stroke-width="0.4"></path><path id="Path_50" data-name="Path 50" d="M393.071,192.474H359.393a.648.648,0,1,1,0-1.3h33.03V158.8H360.686a.648.648,0,1,1,0-1.3H393.07a.648.648,0,0,1,.648.648v33.679a.648.648,0,0,1-.648.648Z" transform="translate(904.213 474.521)" fill="#1b54f8" stroke="#1b54f8" stroke-width="0.4"></path><path id="Path_51" data-name="Path 51" d="M306.9,459.2a.649.649,0,0,1-.632-.789l2.591-11.658a.648.648,0,0,1,1.265.281L307.528,458.7A.65.65,0,0,1,306.9,459.2Z" transform="translate(948.938 228.517)" fill="#1b54f8" stroke="#1b54f8" stroke-width="0.4"></path><path id="Path_52" data-name="Path 52" d="M431.984,459.2a.648.648,0,0,1-.632-.508l-2.591-11.658a.648.648,0,1,1,1.265-.281l2.591,11.658a.648.648,0,0,1-.492.773A.672.672,0,0,1,431.984,459.2Z" transform="translate(844.575 228.517)" fill="#1b54f8" stroke="#1b54f8" stroke-width="0.4"></path><path id="Path_53" data-name="Path 53" d="M193.755,350.635H144.175A4.21,4.21,0,0,1,140,346.4V333.148a.648.648,0,1,1,1.3,0V346.4a2.913,2.913,0,0,0,2.881,2.939h49.579a.648.648,0,1,1,0,1.3Z" transform="translate(1090.576 325.427)" fill="#1b54f8" stroke="#1b54f8" stroke-width="0.4"></path><path id="Path_54" data-name="Path 54" d="M400.893,179.177h-2.948a.648.648,0,1,1,0-1.3h2.948a2.913,2.913,0,0,0,2.881-2.939V135.485a2.913,2.913,0,0,0-2.881-2.939h-32.74a.648.648,0,0,1,0-1.3h32.74a4.21,4.21,0,0,1,4.176,4.235v39.458a4.21,4.21,0,0,1-4.176,4.234Z" transform="translate(896.75 496.885)" fill="#1b54f8" stroke="#1b54f8" stroke-width="0.4"></path><path id="Path_55" data-name="Path 55" d="M506.522,439.43h-3.886a3.891,3.891,0,0,1-3.886-3.886V423.886A3.891,3.891,0,0,1,502.636,420h3.886a3.891,3.891,0,0,1,3.886,3.886v11.658A3.891,3.891,0,0,1,506.522,439.43ZM502.636,421.3a2.593,2.593,0,0,0-2.591,2.591v11.658a2.593,2.593,0,0,0,2.591,2.591h3.886a2.593,2.593,0,0,0,2.591-2.591V423.886a2.593,2.593,0,0,0-2.591-2.591Z" transform="translate(784.934 250.881)" fill="#1b54f8" stroke="#1b54f8" stroke-width="0.4"></path><path id="Path_56" data-name="Path 56" d="M534.393,450.136a.648.648,0,0,1-.648-.648V446.9a.648.648,0,1,1,1.3,0v2.591A.648.648,0,0,1,534.393,450.136Z" transform="translate(755.119 228.517)" fill="#1b54f8" stroke="#1b54f8" stroke-width="0.4"></path><path id="Path_57" data-name="Path 57" d="M307.845,528.886H281.938a1.943,1.943,0,0,1,0-3.886h25.907a1.943,1.943,0,1,1,0,3.886ZM281.938,526.3a.648.648,0,1,0,0,1.3h25.907a.648.648,0,1,0,0-1.3Z" transform="translate(971.305 161.425)" fill="#1b54f8" stroke="#1b54f8" stroke-width="0.4"></path><path id="Path_58" data-name="Path 58" d="M122.149,57.973H79.4a.648.648,0,0,1-.648-.648V9.4A.648.648,0,0,1,79.4,8.75h42.746a.648.648,0,0,1,.648.648V57.325A.648.648,0,0,1,122.149,57.973Zm-42.1-1.3H121.5V10.045H80.05Z" transform="translate(1142.754 601.25)" fill="#1b54f8" stroke="#1b54f8" stroke-width="0.4"></path><path id="Path_59" data-name="Path 59" d="M450.118,39.2H429.393a.648.648,0,0,1-.648-.648V26.9a.648.648,0,0,1,.648-.648h20.725a.648.648,0,0,1,.648.648V38.556A.648.648,0,0,1,450.118,39.2Zm-20.077-1.3h19.43V27.545h-19.43Z" transform="translate(844.575 586.341)" fill="#1b54f8" stroke="#1b54f8" stroke-width="0.4"></path><path id="Path_60" data-name="Path 60" d="M419.014,190.227H394.4a.648.648,0,0,1-.648-.648V184.4a.648.648,0,0,1,.648-.648h24.611a.648.648,0,0,1,.648.648v5.181A.648.648,0,0,1,419.014,190.227Zm-23.964-1.3h23.316v-3.886H395.05Z" transform="translate(874.385 452.157)" fill="#1b54f8" stroke="#1b54f8" stroke-width="0.4"></path><path id="Path_61" data-name="Path 61" d="M402.165,277.727h-7.772a.648.648,0,0,1-.648-.648V271.9a.648.648,0,0,1,.648-.648h7.772a.648.648,0,0,1,.648.648v5.181A.648.648,0,0,1,402.165,277.727Zm-7.124-1.3h6.477v-3.886H395.04Z" transform="translate(874.394 377.61)" fill="#1b54f8" stroke="#1b54f8" stroke-width="0.4"></path><path id="Path_62" data-name="Path 62" d="M486.106,277.727H473.153a.648.648,0,0,1-.648-.648V271.9a.648.648,0,0,1,.648-.648h12.953a.648.648,0,0,1,.648.648v5.181A.648.648,0,0,1,486.106,277.727Zm-12.306-1.3h11.658v-3.886H473.8Z" transform="translate(807.294 377.61)" fill="#1b54f8" stroke="#1b54f8" stroke-width="0.4"></path><path id="Path_63" data-name="Path 63" d="M247.557,360.045h-54.4a.648.648,0,1,1,0-1.3h54.4a.648.648,0,1,1,0,1.3Z" transform="translate(1045.843 303.063)" fill="#1b54f8" stroke="#1b54f8" stroke-width="0.4"></path><path id="Path_64" data-name="Path 64" d="M419.014,333.8H394.4a.648.648,0,1,1,0-1.3h24.611a.648.648,0,1,1,0,1.3Z" transform="translate(874.385 325.427)" fill="#1b54f8" stroke="#1b54f8" stroke-width="0.4"></path><path id="Path_65" data-name="Path 65" d="M419.014,246.3H394.4a.648.648,0,1,1,0-1.3h24.611a.648.648,0,1,1,0,1.3Z" transform="translate(874.385 399.974)" fill="#1b54f8" stroke="#1b54f8" stroke-width="0.4"></path><path id="Path_66" data-name="Path 66" d="M116.983,50.227a3.238,3.238,0,1,1,3.238-3.238A3.242,3.242,0,0,1,116.983,50.227Zm0-5.181a1.943,1.943,0,1,0,1.943,1.943A1.946,1.946,0,0,0,116.983,45.045Z" transform="translate(1112.943 571.431)" fill="#1b54f8" stroke="#1b54f8" stroke-width="0.4"></path><path id="Path_67" data-name="Path 67" d="M119.574,106.3h-5.181a.648.648,0,0,1,0-1.3h5.181a.648.648,0,0,1,0,1.3Z" transform="translate(1112.943 519.249)" fill="#1b54f8" stroke="#1b54f8" stroke-width="0.4"></path><path id="Path_68" data-name="Path 68" d="M208.379,106.3H201.9a.648.648,0,1,1,0-1.3h6.477a.648.648,0,0,1,0,1.3Z" transform="translate(1038.388 519.249)" fill="#1b54f8" stroke="#1b54f8" stroke-width="0.4"></path><path id="Path_69" data-name="Path 69" d="M300.743,50.227a3.238,3.238,0,1,1,3.238-3.238A3.242,3.242,0,0,1,300.743,50.227Zm0-5.181a1.943,1.943,0,1,0,1.943,1.943A1.946,1.946,0,0,0,300.743,45.045Z" transform="translate(956.387 571.431)" fill="#1b54f8" stroke="#1b54f8" stroke-width="0.4"></path><path id="Path_70" data-name="Path 70" d="M303.334,106.3h-5.181a.648.648,0,0,1,0-1.3h5.181a.648.648,0,0,1,0,1.3Z" transform="translate(956.387 519.249)" fill="#1b54f8" stroke="#1b54f8" stroke-width="0.4"></path><path id="Path_71" data-name="Path 71" d="M208.379,50.227H201.9a.648.648,0,0,1-.648-.648V44.4a.648.648,0,0,1,.648-.648h6.477a.648.648,0,0,1,.648.648v5.181A.648.648,0,0,1,208.379,50.227Zm-5.829-1.3h5.181V45.045H202.55Z" transform="translate(1038.388 571.431)" fill="#1b54f8" stroke="#1b54f8" stroke-width="0.4"></path><path id="Path_72" data-name="Path 72" d="M146.786,193.8H114.4a.648.648,0,1,1,0-1.3h32.383a.648.648,0,1,1,0,1.3Z" transform="translate(1112.935 444.702)" fill="#1b54f8" stroke="#1b54f8" stroke-width="0.4"></path><path id="Path_73" data-name="Path 73" d="M146.786,298.8H114.4a.648.648,0,0,1,0-1.3h32.383a.648.648,0,1,1,0,1.3Z" transform="translate(1112.935 355.246)" fill="#1b54f8" stroke="#1b54f8" stroke-width="0.4"></path><path id="Path_74" data-name="Path 74" d="M510.743,53.8h-2.591a.648.648,0,0,1,0-1.3h2.591a.648.648,0,0,1,0,1.3Z" transform="translate(777.475 563.977)" fill="#1b54f8" stroke="#1b54f8" stroke-width="0.4"></path><path id="Path_75" data-name="Path 75" d="M513.334,80.045h-5.181a.648.648,0,0,1,0-1.3h5.181a.648.648,0,0,1,0,1.3Z" transform="translate(777.475 541.613)" fill="#1b54f8" stroke="#1b54f8" stroke-width="0.4"></path><path id="Path_76" data-name="Path 76" d="M460.834,57.681h-5.181a.648.648,0,0,1-.648-.648V53.148a.648.648,0,0,1,.648-.648h5.181a.648.648,0,0,1,.648.648v3.886A.648.648,0,0,1,460.834,57.681Zm-4.534-1.3h3.886V53.8H456.3Z" transform="translate(822.203 563.977)" fill="#1b54f8" stroke="#1b54f8" stroke-width="0.4"></path><path id="Path_77" data-name="Path 77" d="M278.379,386.3H271.9a.648.648,0,1,1,0-1.3h6.477a.648.648,0,1,1,0,1.3Z" transform="translate(978.751 280.699)" fill="#1b54f8" stroke="#1b54f8" stroke-width="0.4"></path></g></g></svg> 