<?xml version="1.0" encoding="UTF-8"?> <svg xmlns="http://www.w3.org/2000/svg" xmlns:xlink="http://www.w3.org/1999/xlink" width="60" height="60" viewBox="0 0 60 60"><defs><clipPath id="clip-path"><rect id="Rectangle_875" data-name="Rectangle 875" width="60" height="60" transform="translate(978 253)" fill="#fff" stroke="#707070" stroke-width="1"></rect></clipPath></defs><g id="Mask_Group_104" data-name="Mask Group 104" transform="translate(-978 -253)" clip-path="url(#clip-path)"><g id="Group_2976" data-name="Group 2976" transform="translate(80 -148)"><g id="Group_2975" data-name="Group 2975" transform="translate(904 406)"><rect id="Rectangle_900" data-name="Rectangle 900" width="17.688" height="1.129" transform="translate(17.387 7.978)" fill="#1c54f8"></rect><rect id="Rectangle_901" data-name="Rectangle 901" width="15.054" height="1.129" transform="translate(17.387 11.591)" fill="#1c54f8"></rect><path id="Path_3159" data-name="Path 3159" d="M6.5,16.709h9.484V7.3H6.5Zm1.129-8.28h7.226v7.226H7.629Z" transform="translate(-1.532 -1.655)" fill="#1c54f8"></path><rect id="Rectangle_902" data-name="Rectangle 902" width="17.688" height="1.129" transform="translate(17.387 21.979)" fill="#1c54f8"></rect><rect id="Rectangle_903" data-name="Rectangle 903" width="15.054" height="1.129" transform="translate(17.387 25.516)" fill="#1c54f8"></rect><path id="Path_3160" data-name="Path 3160" d="M6.5,35.284h9.484V25.8H6.5Zm1.129-8.355h7.226v7.226H7.629Z" transform="translate(-1.532 -6.23)" fill="#1c54f8"></path><rect id="Rectangle_904" data-name="Rectangle 904" width="9.258" height="1.129" transform="translate(17.387 35.903)" fill="#1c54f8"></rect><rect id="Rectangle_905" data-name="Rectangle 905" width="7.527" height="1.129" transform="translate(17.387 39.441)" fill="#1c54f8"></rect><path id="Path_3161" data-name="Path 3161" d="M6.5,53.784h9.484V44.3H6.5Zm1.129-8.355h7.226v7.226H7.629Z" transform="translate(-1.532 -10.805)" fill="#1c54f8"></path><path id="Path_3162" data-name="Path 3162" d="M42.8,32.09V29.682H40.47V-.2H-.1V49.1H40.395V45.112H48.9V32.09Zm-1.129,0h-5.72v-1.28h5.72ZM39.341,47.972H1.029V.929H39.266V29.682H34.825V32.09H28.653V45.037H39.266v2.935Zm8.505-4.065H29.857V38.639c1.656,1.656,5.043,2.71,9.032,2.71s7.3-1.129,9.032-2.71v5.269Zm-9.032-3.613c-5.344,0-9.032-2.032-9.032-3.989V33.219H47.846v3.086C47.846,38.262,44.233,40.295,38.814,40.295Z" transform="translate(0.1 0.2)" fill="#1c54f8"></path><rect id="Rectangle_906" data-name="Rectangle 906" width="3.462" height="1.129" transform="translate(37.183 37.935)" fill="#1c54f8"></rect></g></g></g></svg> 