<?xml version="1.0" encoding="UTF-8"?> <!-- Generator: Adobe Illustrator 25.2.3, SVG Export Plug-In . SVG Version: 6.00 Build 0) --> <svg xmlns="http://www.w3.org/2000/svg" xmlns:xlink="http://www.w3.org/1999/xlink" version="1.1" id="Layer_1" x="0px" y="0px" viewBox="0 0 74 74" style="enable-background:new 0 0 74 74;" xml:space="preserve"> <style type="text/css"> .st0{fill:#1B54F8;stroke:#1B54F8;stroke-width:0.4;} </style> <desc>Created with Sketch.</desc> <g id="Discovery"> <g id="Group-43" transform="translate(9.000000, 9.000000)"> <path id="Shape" class="st0" d="M33.7,17.6c-2.2,0-4,1.8-4,4c0,2.2,1.8,4,4,4c2.2,0,4-1.8,4-4C37.7,19.4,35.9,17.6,33.7,17.6z M33.7,24.2c-1.4,0-2.6-1.2-2.6-2.6c0-1.4,1.2-2.6,2.6-2.6c1.4,0,2.6,1.2,2.6,2.6C36.3,23,35.1,24.2,33.7,24.2z"></path> <path id="Shape_1_" class="st0" d="M34.5,14.5c-0.2,0-0.4,0-0.6,0c0,0-0.1,0-0.1,0c0,0,0,0,0,0c0,0,0,0,0,0c-0.3,0-0.5,0-0.8,0 C26.7,15,22,20.9,21.8,21.1c-0.2,0.3-0.2,0.6,0,0.9c0.2,0.3,4.6,5.6,10.4,6.5c0.5,0.1,1,0.2,1.6,0.2c0.5,0,1-0.1,1.5-0.2 c5.9-0.8,10.3-6.3,10.5-6.6c0.2-0.3,0.2-0.6,0-0.9C45.5,20.9,40.7,15,34.5,14.5z M39.5,21.6c0,2.7-1.9,5.1-4.5,5.6 c-0.4,0.1-0.8,0.1-1.2,0.1c-0.4,0-0.9,0-1.3-0.1c-2.6-0.6-4.5-2.9-4.5-5.6c0-3,2.3-5.4,5.2-5.7c0.2,0,0.4,0,0.6,0 c0.1,0,0.3,0,0.4,0c0,0,0.1,0,0.1,0C37.2,16.2,39.5,18.6,39.5,21.6z M23.2,21.6c0.7-0.8,2.3-2.4,4.4-3.8c-0.7,1.1-1.1,2.4-1.1,3.8 c0,1.4,0.4,2.6,1.1,3.7C25.5,24,23.9,22.3,23.2,21.6z M39.8,25.4c0.7-1.1,1.1-2.4,1.1-3.8c0-1.4-0.4-2.7-1.1-3.8 c2.2,1.3,3.8,3,4.5,3.8C43.5,22.3,41.9,24,39.8,25.4z"></path> <path id="Shape_2_" class="st0" d="M22,9.9c-6.5,6.5-6.5,17,0,23.5c3.2,3.2,7.5,4.9,11.7,4.9c4.2,0,8.5-1.6,11.7-4.9 c6.5-6.5,6.5-17,0-23.5C39,3.4,28.4,3.4,22,9.9z M44.4,32.4c-5.9,5.9-15.6,5.9-21.5,0c-5.9-5.9-5.9-15.6,0-21.5 c3-3,6.9-4.4,10.8-4.4s7.8,1.5,10.8,4.4C50.4,16.8,50.4,26.4,44.4,32.4z"></path> <path id="Shape_3_" class="st0" d="M18.4,6.3c-7.5,7.5-8.3,19.2-2.5,27.6L13,36.8c-1-0.3-2.2-0.1-3,0.7L1.6,46 c-1,1-1.6,2.4-1.6,3.8c0,1.5,0.6,2.8,1.6,3.8c1,1,2.4,1.6,3.8,1.6c1.5,0,2.8-0.6,3.8-1.6l8.5-8.5c0.8-0.8,1-2,0.7-3l2.9-2.9 c3.7,2.6,8,3.9,12.3,3.9c5.5,0,11.1-2.1,15.3-6.3c4.1-4.1,6.3-9.5,6.3-15.3c0-5.8-2.2-11.2-6.3-15.3C40.5-2.1,26.8-2.1,18.4,6.3z M16.8,44.2l-8.5,8.5c-0.8,0.8-1.8,1.2-2.9,1.2c-1.1,0-2.1-0.4-2.9-1.2c-0.8-0.8-1.2-1.8-1.2-2.9c0-1.1,0.4-2.1,1.2-2.9l8.5-8.5 c0.3-0.3,0.7-0.4,1.1-0.4c0.4,0,0.8,0.1,1.1,0.4l3.6,3.6C17.4,42.7,17.4,43.6,16.8,44.2z M17.7,41l-3.5-3.5l2.5-2.5 c0.5,0.6,1,1.2,1.6,1.8c0.6,0.6,1.2,1.1,1.8,1.6L17.7,41z M48,35.9c-7.9,7.9-20.7,7.9-28.6,0c-7.9-7.9-7.9-20.7,0-28.6 c3.9-3.9,9.1-5.9,14.3-5.9c5.2,0,10.4,2,14.3,5.9C55.9,15.2,55.9,28,48,35.9z"></path> </g> </g> </svg> 