<?xml version="1.0" encoding="UTF-8"?> <svg xmlns="http://www.w3.org/2000/svg" width="61" height="61" viewBox="0 0 61 61" fill="none"><mask id="mask0_1_47" style="mask-type:luminance" maskUnits="userSpaceOnUse" x="0" y="0" width="61" height="61"><path d="M60.4 0.899994H0.399994V60.9H60.4V0.899994Z" fill="white"></path></mask><g mask="url(#mask0_1_47)"><path d="M27.6 30.7H25.7V28.8H27.6V30.7ZM27.6 32.7H25.7V34.6H27.6V32.7ZM27.6 25H25.7V26.9H27.6V25ZM25.7 36.5V38.4H27.6V36.5H25.7ZM27.6 21.1H25.7V23H27.6V21.1ZM35.6 21.1H33.7V23H35.6V21.1ZM35.6 32.7H33.7V34.6H35.6V32.7ZM33.7 36.5V38.4H35.6V36.5H33.7ZM35.6 28.8H33.7V30.7H35.6V28.8ZM35.6 25H33.7V26.9H35.6V25ZM30.6 45.8C36.8 45.8 41.8 40.8 41.8 34.6C41.8 32.5 41.2 30.5 40.1 28.7C39.8 28.2 39.2 28.1 38.8 28.4C38.3 28.7 38.2 29.3 38.5 29.7C39.4 31.2 39.9 32.8 39.9 34.6C39.9 39.7 35.7 43.9 30.6 43.9C25.5 43.9 21.3 39.7 21.3 34.6C21.3 33.1 21.6 31.7 22.3 30.3C22.5 29.8 22.4 29.2 21.9 29C21.4 28.8 20.8 28.9 20.6 29.4C19.8 31 19.4 32.8 19.4 34.5C19.4 40.7 24.4 45.8 30.6 45.8ZM22.4 12.3H25.7V20.2H27.6V11.3C27.6 10.8 27.2 10.3 26.6 10.3H24.5L30.5 3.59998L36.7 10.3H34.6C34.1 10.3 33.6 10.7 33.6 11.3V20.2H34.6H35.6V12.3H38.9C39.3 12.3 39.6 12.1 39.8 11.7C40 11.3 39.9 10.9 39.6 10.7L31.2 1.59998C31 1.39998 30.8 1.29999 30.5 1.29999C30.2 1.29999 30 1.39998 29.8 1.59998L21.7 10.7C21.4 11 21.4 11.4 21.5 11.7C21.7 12.1 22 12.3 22.4 12.3ZM35.5 53.1V49.2C36.3 48.9 37.2 48.6 37.9 48.2L40.7 51C41.1 51.4 41.7 51.4 42.1 51L47.7 45.4C48.1 45 48.1 44.4 47.7 44L44.9 41.2C45.3 40.4 45.6 39.6 45.9 38.8H49.8C50.3 38.8 50.8 38.4 50.8 37.8V29.9C50.8 29.4 50.4 28.9 49.8 28.9H45.9C45.6 28.1 45.3 27.2 44.9 26.5L47.7 23.7C48.1 23.3 48.1 22.7 47.7 22.3L43.3 17.9C42.9 17.5 42.3 17.5 41.9 17.9C41.5 18.3 41.5 18.9 41.9 19.3L45.6 23L43 25.6C42.7 25.9 42.6 26.4 42.8 26.8C43.4 27.8 43.9 29 44.2 30.1C44.3 30.5 44.7 30.8 45.1 30.8H48.8V36.8H45.1C44.7 36.8 44.3 37.1 44.2 37.5C43.9 38.7 43.4 39.8 42.8 40.8C42.6 41.2 42.6 41.7 43 42L45.6 44.6L41.4 48.8L38.8 46.2C38.5 45.9 38 45.8 37.6 46C36.6 46.6 35.4 47.1 34.3 47.4C33.9 47.5 33.6 47.9 33.6 48.3V52H27.6V48.3C27.6 47.9 27.3 47.5 26.9 47.4C25.7 47.1 24.6 46.6 23.6 46C23.2 45.8 22.7 45.8 22.4 46.2L19.8 48.8L15.6 44.6L18.2 42C18.5 41.7 18.6 41.2 18.4 40.8C17.8 39.8 17.3 38.6 17 37.5C16.9 37.1 16.5 36.8 16.1 36.8H12.4V30.8H16.1C16.5 30.8 16.9 30.5 17 30.1C17.3 28.9 17.8 27.8 18.4 26.8C18.6 26.4 18.6 25.9 18.2 25.6L15.6 23L19.3 19.3C19.7 18.9 19.7 18.3 19.3 17.9C18.9 17.5 18.3 17.5 17.9 17.9L13.5 22.3C13.1 22.7 13.1 23.3 13.5 23.7L16.3 26.5C15.9 27.3 15.6 28.1 15.3 28.9H11.4C10.9 28.9 10.4 29.3 10.4 29.9V37.8C10.4 38.3 10.8 38.8 11.4 38.8H15.3C15.6 39.6 15.9 40.5 16.3 41.2L13.5 44C13.1 44.4 13.1 45 13.5 45.4L19.1 51C19.5 51.4 20.1 51.4 20.5 51L23.3 48.2C24.1 48.6 24.9 48.9 25.7 49.2V53.1C25.7 53.6 26.1 54.1 26.7 54.1H34.6C35.1 54 35.5 53.6 35.5 53.1ZM57.7 33.8C57.7 48.7 45.6 60.8 30.7 60.8C30.2 60.8 29.7 60.4 29.7 59.8C29.7 59.3 30.1 58.8 30.7 58.8C44.5 58.8 55.8 47.5 55.8 33.7C55.8 26.5 52.7 19.7 47.3 14.9L47.7 15.5C48 16 47.8 16.5 47.4 16.8C47.2 16.9 47.1 16.9 46.9 16.9C46.6 16.9 46.3 16.7 46.1 16.4L44.2 13.1C44 12.8 44 12.4 44.2 12.1C44.4 11.8 44.7 11.6 45 11.6H48.8C49.4 11.6 49.8 12 49.8 12.5C49.8 13 49.4 13.4 48.9 13.5C54.4 18.9 57.7 26.1 57.7 33.8ZM46.7 14.1C46.7 14 46.7 13.9 46.8 13.7H46.5L46.7 14.1ZM6.60001 41.3C6.40001 40.8 5.89999 40.5 5.39999 40.7C4.89999 40.9 4.59999 41.4 4.79999 41.9C4.99999 42.5 5.2 43.2 5.5 43.8C5.6 44.2 5.99999 44.4 6.39999 44.4C6.49999 44.4 6.59999 44.4 6.79999 44.3C7.29999 44.1 7.49999 43.5 7.29999 43C6.99999 42.4 6.80001 41.8 6.60001 41.3ZM17.4 55.1C16.9 54.8 16.4 54.4 15.9 54.1C15.5 53.8 14.9 53.9 14.6 54.3C14.3 54.7 14.4 55.3 14.8 55.6C15.3 56 15.9 56.4 16.4 56.7C16.6 56.8 16.7 56.8 16.9 56.8C17.2 56.8 17.5 56.6 17.7 56.3C17.9 56 17.8 55.4 17.4 55.1ZM14.5 14.3C14.7 14.3 14.9 14.2 15.1 14.1C15.6 13.7 16.1 13.3 16.6 13C17 12.7 17.2 12.1 16.9 11.7C16.6 11.3 16 11.1 15.6 11.4C15.1 11.8 14.5 12.2 14 12.6C13.6 12.9 13.5 13.5 13.8 14C13.9 14.2 14.2 14.3 14.5 14.3ZM5.60001 35.2C5.60001 34.7 5.60001 34.3 5.60001 33.8C5.60001 33.6 5.60001 33.5 5.60001 33.3C5.60001 32.8 5.20001 32.3 4.70001 32.3C4.20001 32.3 3.70001 32.7 3.70001 33.2C3.70001 33.4 3.70001 33.5 3.70001 33.7C3.70001 34.2 3.70001 34.7 3.70001 35.2C3.70001 35.7 4.20001 36.1 4.70001 36.1C4.70001 36.1 4.69999 36.1 4.79999 36.1C5.19999 36.2 5.60001 35.7 5.60001 35.2ZM24.7 58.2C24.1 58.1 23.5 57.9 22.9 57.7C22.4 57.5 21.9 57.8 21.7 58.3C21.5 58.8 21.8 59.3 22.3 59.5C22.9 59.7 23.6 59.9 24.2 60C24.3 60 24.4 60 24.4 60C24.8 60 25.2 59.7 25.3 59.3C25.6 58.9 25.2 58.3 24.7 58.2ZM9.70001 20C10 19.5 10.4 19 10.8 18.5C11.1 18.1 11.1 17.5 10.6 17.2C10.2 16.9 9.59999 16.9 9.29999 17.4C8.89999 17.9 8.50001 18.5 8.10001 19C7.80001 19.4 7.89999 20 8.39999 20.3C8.59999 20.4 8.69999 20.5 8.89999 20.5C9.19999 20.4 9.50001 20.3 9.70001 20ZM5.20001 27.9C5.30001 27.9 5.4 27.9 5.5 27.9C5.9 27.9 6.29999 27.6 6.39999 27.2C6.59999 26.6 6.7 26 7 25.4C7.2 24.9 6.89999 24.3 6.39999 24.2C5.89999 24 5.30001 24.3 5.20001 24.8C5.00001 25.4 4.80001 26.1 4.60001 26.7C4.40001 27.3 4.70001 27.8 5.20001 27.9ZM10.2 48.4C9.90001 48 9.29999 47.9 8.89999 48.2C8.49999 48.5 8.40001 49.1 8.70001 49.5C9.10001 50 9.49999 50.6 9.89999 51.1C10.1 51.3 10.4 51.4 10.6 51.4C10.8 51.4 11 51.3 11.2 51.2C11.6 50.9 11.7 50.3 11.3 49.8C10.9 49.4 10.6 48.9 10.2 48.4Z" fill="#1B54F8" stroke="white" stroke-width="0.1" stroke-miterlimit="10"></path></g></svg> 