<?xml version="1.0" encoding="UTF-8"?> <svg xmlns="http://www.w3.org/2000/svg" width="76" height="90" viewBox="0 0 76 90" fill="none"><mask id="mask0_12_41" style="mask-type:alpha" maskUnits="userSpaceOnUse" x="0" y="0" width="76" height="90"><path fill-rule="evenodd" clip-rule="evenodd" d="M44.3587 28.8884C47.4226 29.1394 50.464 29.614 53.4587 30.3084C55.6507 30.8116 57.7948 31.5045 59.8667 32.3794V27.3414H55.1667C54.9609 27.3412 54.7596 27.2807 54.5877 27.1675C54.4158 27.0543 54.2808 26.8933 54.1993 26.7043C54.1178 26.5153 54.0933 26.3066 54.1289 26.1039C54.1645 25.9012 54.2586 25.7133 54.3997 25.5634L63.9137 14.2234C64.0929 14.0093 64.3498 13.8751 64.6279 13.8504C64.906 13.8256 65.1825 13.9123 65.3967 14.0914C65.4479 14.1348 65.4951 14.1826 65.5377 14.2344L75.0817 25.6114C75.2103 25.765 75.2924 25.9521 75.3184 26.1507C75.3444 26.3493 75.3132 26.5513 75.2285 26.7328C75.1438 26.9143 75.009 27.0679 74.8401 27.1755C74.6712 27.2831 74.475 27.3403 74.2747 27.3404H69.5747V42.5744C69.5753 42.8531 69.5206 43.1292 69.4138 43.3867C69.3071 43.6441 69.1504 43.8779 68.9527 44.0744C68.9267 44.1004 68.8997 44.1244 68.8727 44.1474C68.4853 44.5 67.9805 44.6957 67.4567 44.6964H67.0287V52.8284V65.7794V78.7324V78.7564C67.0287 83.5934 61.0287 86.4114 54.2597 88.0084C48.8567 89.2146 43.3474 89.8815 37.8127 89.9994C37.7127 89.9994 37.6197 89.9994 37.5227 89.9994C31.985 89.882 26.4726 89.2151 21.0667 88.0084C14.3027 86.4084 8.29769 83.5934 8.29769 78.7564V78.7324V65.7794V52.8254V44.6934H7.86669C7.58924 44.6934 7.31454 44.6385 7.05845 44.5317C6.80236 44.425 6.56997 44.2685 6.37469 44.0714C6.1774 43.8747 6.02096 43.6409 5.91439 43.3834C5.80781 43.126 5.7532 42.85 5.75369 42.5714V27.3414H1.05469C0.848788 27.3414 0.647401 27.281 0.475358 27.1679C0.303316 27.0548 0.168139 26.8938 0.0864902 26.7048C0.00484164 26.5157 -0.0197089 26.3069 0.0158658 26.1041C0.0514405 25.9013 0.145585 25.7134 0.286693 25.5634L9.80069 14.2234C9.97988 14.0093 10.2368 13.8751 10.5149 13.8504C10.793 13.8256 11.0695 13.9123 11.2837 14.0914C11.3349 14.1348 11.3821 14.1826 11.4247 14.2344L20.9667 25.6114C21.0945 25.7647 21.1762 25.9511 21.2022 26.1489C21.2283 26.3468 21.1976 26.5479 21.1138 26.7291C21.03 26.9102 20.8965 27.0638 20.7288 27.172C20.5612 27.2802 20.3662 27.3386 20.1667 27.3404H15.4667V32.3794C17.5395 31.5041 19.6846 30.8112 21.8777 30.3084C24.8724 29.614 27.9138 29.1394 30.9777 28.8884V18.9884H23.5117C23.3059 18.9882 23.1046 18.9277 22.9327 18.8145C22.7608 18.7013 22.6258 18.5403 22.5443 18.3513C22.4628 18.1623 22.4383 17.9536 22.4739 17.7509C22.5095 17.5482 22.6036 17.3603 22.7447 17.2104L36.8597 0.379417C36.9589 0.259785 37.0834 0.163689 37.2243 0.0980754C37.3652 0.0324622 37.5189 -0.00102857 37.6743 2.4066e-05C37.8297 0.0010767 37.9829 0.0366464 38.1229 0.104162C38.2629 0.171678 38.3861 0.269452 38.4837 0.390417L52.6307 17.2534C52.7593 17.4071 52.8415 17.5942 52.8675 17.793C52.8934 17.9917 52.8622 18.1937 52.7773 18.3752C52.6925 18.5568 52.5576 18.7104 52.3885 18.8179C52.2194 18.9255 52.0231 18.9825 51.8227 18.9824H44.3587V28.8824V28.8884ZM30.9767 30.9994C28.0778 31.2465 25.2004 31.7013 22.3667 32.3604C19.9912 32.8932 17.6784 33.6748 15.4667 34.6924V42.5744C15.4673 42.8531 15.4126 43.1292 15.3058 43.3867C15.1991 43.6441 15.0423 43.8779 14.8447 44.0744C14.6899 44.2293 14.5121 44.3595 14.3177 44.4604C16.7499 45.7488 19.3431 46.7069 22.0287 47.3094C27.1556 48.4959 32.4045 49.0739 37.6667 49.0314C42.9297 49.0731 48.1793 48.4941 53.3067 47.3064C55.9922 46.7037 58.5854 45.7456 61.0177 44.4574C60.6717 44.2792 60.3813 44.0093 60.1783 43.6772C59.9753 43.3451 59.8675 42.9636 59.8667 42.5744V34.6924C57.655 33.6748 55.3423 32.8931 52.9667 32.3604C50.1336 31.7014 47.2569 31.2466 44.3587 30.9994V42.0594C44.3574 42.7568 44.0798 43.4252 43.5866 43.9184C43.0935 44.4115 42.4251 44.6891 41.7277 44.6904H33.6067C32.9095 44.6888 32.2413 44.4111 31.7484 43.918C31.2555 43.4249 30.978 42.7566 30.9767 42.0594V30.9994ZM25.7667 16.8744H32.0277C32.1662 16.8744 32.3033 16.9017 32.4313 16.9547C32.5592 17.0078 32.6755 17.0855 32.7733 17.1835C32.8712 17.2815 32.9488 17.3978 33.0018 17.5258C33.0547 17.6538 33.0818 17.7909 33.0817 17.9294V42.0624C33.083 42.2002 33.1383 42.332 33.2357 42.4294C33.3332 42.5268 33.4649 42.5821 33.6027 42.5834H41.7237C41.8615 42.5821 41.9932 42.5268 42.0907 42.4294C42.1881 42.332 42.2434 42.2002 42.2447 42.0624V17.9294C42.2447 17.6496 42.3558 17.3813 42.5537 17.1834C42.7515 16.9856 43.0199 16.8744 43.2997 16.8744H49.5667L37.6667 2.69342L25.7667 16.8744ZM10.4047 44.6934V52.8304C10.4047 55.1584 13.3097 57.3684 17.9987 59.0594C24.3476 61.1164 30.994 62.1048 37.6667 61.9844C44.3401 62.105 50.9872 61.1166 57.3367 59.0594C62.0247 57.3684 64.9257 55.1594 64.9297 52.8304V44.6934H64.3907C62.1177 46.6054 58.4167 48.2194 53.8007 49.3504C48.5117 50.5791 43.0964 51.1799 37.6667 51.1404C32.237 51.1799 26.8217 50.5791 21.5327 49.3504C16.9167 48.2194 13.2167 46.6054 10.9437 44.6934H10.4047ZM3.31369 25.2324H6.80469C6.94319 25.2324 7.08033 25.2597 7.20827 25.3127C7.33622 25.3658 7.45245 25.4435 7.55034 25.5415C7.64822 25.6395 7.72584 25.7558 7.77875 25.8838C7.83166 26.0118 7.85882 26.1489 7.85869 26.2874V42.5744V42.5804H13.3467H13.3517V42.5744V26.2874C13.3516 26.1489 13.3787 26.0118 13.4316 25.8838C13.4845 25.7558 13.5622 25.6395 13.66 25.5415C13.7579 25.4435 13.8742 25.3658 14.0021 25.3127C14.1301 25.2597 14.2672 25.2324 14.4057 25.2324H17.8967L10.5967 16.5374L3.30269 25.2374L3.31369 25.2324ZM57.4327 25.2324H60.9227C61.2025 25.2324 61.4708 25.3436 61.6687 25.5414C61.8665 25.7393 61.9777 26.0076 61.9777 26.2874V42.5744V42.5804H61.9837H67.4667V42.5744V26.2874C67.4667 26.1489 67.494 26.0117 67.547 25.8837C67.6 25.7557 67.6777 25.6394 67.7757 25.5414C67.8737 25.4435 67.99 25.3657 68.118 25.3127C68.246 25.2597 68.3832 25.2324 68.5217 25.2324H72.0127L64.7127 16.5374L57.4187 25.2374L57.4327 25.2324ZM46.1007 82.6994C46.2419 82.7038 46.3826 82.6797 46.5143 82.6287C46.646 82.5776 46.7662 82.5007 46.8676 82.4023C46.969 82.304 47.0497 82.1862 47.1047 82.0561C47.1598 81.926 47.1882 81.7862 47.1882 81.6449C47.1882 81.5036 47.1598 81.3638 47.1047 81.2337C47.0497 81.1036 46.969 80.9859 46.8676 80.8875C46.7662 80.7892 46.646 80.7122 46.5143 80.6612C46.3826 80.6101 46.2419 80.5861 46.1007 80.5904C45.8266 80.5989 45.5666 80.7137 45.3758 80.9105C45.1849 81.1073 45.0782 81.3707 45.0782 81.6449C45.0782 81.9191 45.1849 82.1825 45.3758 82.3793C45.5666 82.5762 45.8266 82.691 46.1007 82.6994ZM41.8587 83.2904C41.9999 83.2948 42.1406 83.2707 42.2723 83.2197C42.404 83.1686 42.5242 83.0917 42.6256 82.9933C42.727 82.895 42.8077 82.7772 42.8627 82.6471C42.9178 82.517 42.9462 82.3772 42.9462 82.2359C42.9462 82.0946 42.9178 81.9548 42.8627 81.8247C42.8077 81.6946 42.727 81.5769 42.6256 81.4785C42.5242 81.3802 42.404 81.3032 42.2723 81.2522C42.1406 81.2011 41.9999 81.1771 41.8587 81.1814C41.5846 81.1899 41.3246 81.3047 41.1338 81.5015C40.9429 81.6983 40.8362 81.9617 40.8362 82.2359C40.8362 82.5101 40.9429 82.7735 41.1338 82.9703C41.3246 83.1672 41.5846 83.282 41.8587 83.2904ZM37.8487 81.2264H37.6667C34.1781 81.2332 30.6936 80.9902 27.2397 80.4994C24.2281 80.088 21.2615 79.396 18.3787 78.4324C18.2476 78.3841 18.1081 78.3625 17.9685 78.3689C17.8289 78.3752 17.692 78.4093 17.5658 78.4692C17.4395 78.5291 17.3265 78.6136 17.2334 78.7178C17.1402 78.8219 17.0688 78.9436 17.0233 79.0757C16.9777 79.2078 16.959 79.3477 16.9683 79.4871C16.9775 79.6265 17.0145 79.7627 17.077 79.8877C17.1395 80.0126 17.2264 80.1239 17.3324 80.2148C17.4385 80.3058 17.5617 80.3747 17.6947 80.4174C20.703 81.4264 23.7992 82.1515 26.9427 82.5834C30.4952 83.0893 34.0794 83.3396 37.6677 83.3324H37.8487C38.1192 83.3206 38.3748 83.2048 38.5621 83.0092C38.7493 82.8136 38.8539 82.5532 38.8539 82.2824C38.8539 82.0116 38.7493 81.7513 38.5621 81.5556C38.3748 81.36 38.1192 81.2442 37.8487 81.2324V81.2264ZM46.1007 57.3264C46.2419 57.3308 46.3826 57.3067 46.5143 57.2557C46.646 57.2046 46.7662 57.1277 46.8676 57.0293C46.969 56.931 47.0497 56.8132 47.1047 56.6831C47.1598 56.553 47.1882 56.4132 47.1882 56.2719C47.1882 56.1306 47.1598 55.9908 47.1047 55.8607C47.0497 55.7306 46.969 55.6129 46.8676 55.5145C46.7662 55.4162 46.646 55.3392 46.5143 55.2882C46.3826 55.2371 46.2419 55.2131 46.1007 55.2174C45.8266 55.2259 45.5666 55.3407 45.3758 55.5375C45.1849 55.7343 45.0782 55.9977 45.0782 56.2719C45.0782 56.5461 45.1849 56.8095 45.3758 57.0063C45.5666 57.2032 45.8266 57.318 46.1007 57.3264ZM41.8587 57.9174C42.1385 57.9174 42.4068 57.8063 42.6047 57.6084C42.8025 57.4106 42.9137 57.1422 42.9137 56.8624C42.9137 56.5826 42.8025 56.3143 42.6047 56.1164C42.4068 55.9186 42.1385 55.8074 41.8587 55.8074C41.5789 55.8074 41.3105 55.9186 41.1127 56.1164C40.9148 56.3143 40.8037 56.5826 40.8037 56.8624C40.8037 57.1422 40.9148 57.4106 41.1127 57.6084C41.3105 57.8063 41.5789 57.9174 41.8587 57.9174ZM37.8487 55.8534H37.6667C34.1779 55.8618 30.6929 55.6198 27.2387 55.1294C24.2271 54.718 21.2605 54.026 18.3777 53.0624C18.2473 53.0175 18.1093 52.9987 17.9717 53.0071C17.834 53.0155 17.6993 53.051 17.5754 53.1114C17.4514 53.1719 17.3406 53.2562 17.2492 53.3594C17.1578 53.4627 17.0876 53.583 17.0427 53.7134C16.9978 53.8438 16.979 53.9818 16.9874 54.1195C16.9958 54.2571 17.0313 54.3918 17.0917 54.5157C17.1522 54.6397 17.2364 54.7506 17.3397 54.8419C17.443 54.9333 17.5633 55.0035 17.6937 55.0484C20.7028 56.0523 23.7993 56.7725 26.9427 57.1994C30.4949 57.705 34.0787 57.9557 37.6667 57.9494H37.8477C37.9894 57.9556 38.131 57.933 38.2638 57.8831C38.3965 57.8331 38.5178 57.7567 38.6203 57.6586C38.7228 57.5605 38.8044 57.4427 38.8601 57.3122C38.9158 57.1817 38.9445 57.0413 38.9445 56.8994C38.9445 56.7575 38.9158 56.6171 38.8601 56.4866C38.8044 56.3562 38.7228 56.2383 38.6203 56.1402C38.5178 56.0421 38.3965 55.9658 38.2638 55.9158C38.131 55.8658 37.9894 55.8432 37.8477 55.8494L37.8487 55.8534ZM46.1007 70.1004C46.2419 70.1048 46.3826 70.0807 46.5143 70.0297C46.646 69.9786 46.7662 69.9017 46.8676 69.8033C46.969 69.705 47.0497 69.5872 47.1047 69.4571C47.1598 69.327 47.1882 69.1872 47.1882 69.0459C47.1882 68.9046 47.1598 68.7648 47.1047 68.6347C47.0497 68.5046 46.969 68.3869 46.8676 68.2885C46.7662 68.1902 46.646 68.1132 46.5143 68.0622C46.3826 68.0111 46.2419 67.9871 46.1007 67.9914C45.8266 67.9999 45.5666 68.1147 45.3758 68.3115C45.1849 68.5083 45.0782 68.7717 45.0782 69.0459C45.0782 69.3201 45.1849 69.5835 45.3758 69.7803C45.5666 69.9772 45.8266 70.092 46.1007 70.1004ZM41.8587 70.6914C41.9999 70.6958 42.1406 70.6717 42.2723 70.6207C42.404 70.5696 42.5242 70.4927 42.6256 70.3943C42.727 70.296 42.8077 70.1782 42.8627 70.0481C42.9178 69.918 42.9462 69.7782 42.9462 69.6369C42.9462 69.4956 42.9178 69.3558 42.8627 69.2257C42.8077 69.0956 42.727 68.9779 42.6256 68.8795C42.5242 68.7812 42.404 68.7042 42.2723 68.6532C42.1406 68.6021 41.9999 68.5781 41.8587 68.5824C41.5846 68.5909 41.3246 68.7057 41.1338 68.9025C40.9429 69.0993 40.8362 69.3627 40.8362 69.6369C40.8362 69.9111 40.9429 70.1745 41.1338 70.3713C41.3246 70.5682 41.5846 70.683 41.8587 70.6914ZM37.8487 68.6274H37.6667C34.1779 68.6358 30.6929 68.3938 27.2387 67.9034C24.227 67.4925 21.2604 66.8004 18.3777 65.8364C18.2473 65.7915 18.1093 65.7727 17.9717 65.7811C17.834 65.7895 17.6993 65.825 17.5754 65.8854C17.4514 65.9459 17.3406 66.0302 17.2492 66.1334C17.1578 66.2367 17.0876 66.357 17.0427 66.4874C16.9978 66.6178 16.979 66.7558 16.9874 66.8935C16.9958 67.0311 17.0313 67.1658 17.0917 67.2897C17.1522 67.4137 17.2364 67.5246 17.3397 67.616C17.443 67.7073 17.5633 67.7775 17.6937 67.8224C20.702 68.8314 23.7982 69.5565 26.9417 69.9884C30.4942 70.4943 34.0784 70.7446 37.6667 70.7374H37.8477C37.9894 70.7436 38.131 70.721 38.2638 70.6711C38.3965 70.6211 38.5178 70.5447 38.6203 70.4466C38.7228 70.3485 38.8044 70.2307 38.8601 70.1002C38.9158 69.9697 38.9445 69.8293 38.9445 69.6874C38.9445 69.5455 38.9158 69.4051 38.8601 69.2747C38.8044 69.1442 38.7228 69.0263 38.6203 68.9282C38.5178 68.8301 38.3965 68.7538 38.2638 68.7038C38.131 68.6538 37.9894 68.6312 37.8477 68.6374L37.8487 68.6274ZM10.4047 57.1384V65.7844C10.4047 68.1114 13.3097 70.3214 17.9987 72.0124C24.3476 74.0694 30.994 75.0578 37.6667 74.9374C44.3401 75.0581 50.9872 74.0696 57.3367 72.0124C62.0247 70.3214 64.9257 68.1124 64.9297 65.7844V57.1384C62.926 58.8956 60.583 60.223 58.0457 61.0384C51.4691 63.1797 44.5821 64.2122 37.6667 64.0934C30.7515 64.2115 23.8648 63.1784 17.2887 61.0364C14.7511 60.221 12.4078 58.8936 10.4037 57.1364L10.4047 57.1384ZM10.4047 70.0924V78.7324V78.7564C10.4047 82.3014 15.6417 84.5634 21.5417 85.9564C26.7939 87.1315 32.1499 87.7824 37.5307 87.8994H37.8047C43.185 87.7841 48.5406 87.1349 53.7927 85.9614C59.6927 84.5674 64.9297 82.3054 64.9297 78.7614V78.7374V70.0974C62.926 71.8546 60.583 73.182 58.0457 73.9974C51.4688 76.1371 44.5818 77.1678 37.6667 77.0474C30.7518 77.1651 23.8655 76.1317 17.2897 73.9894C14.7524 73.1749 12.4091 71.8485 10.4047 70.0924Z" fill="#1B54F8"></path></mask><g mask="url(#mask0_12_41)"><path d="M-8 0H82V90H-8V0Z" fill="#1B54F8"></path></g></svg> 