<?xml version="1.0" encoding="UTF-8"?> <svg xmlns="http://www.w3.org/2000/svg" xmlns:xlink="http://www.w3.org/1999/xlink" width="90" height="90" viewBox="0 0 90 90"><defs><clipPath id="clip-path"><rect id="Rectangle_58" data-name="Rectangle 58" width="90" height="90" transform="translate(1481 470)" fill="#fff" stroke="#707070" stroke-width="1"></rect></clipPath></defs><g id="Mask_Group_25" data-name="Mask Group 25" transform="translate(-1481 -470)" clip-path="url(#clip-path)"><g id="Group_26" data-name="Group 26" transform="translate(-137.636 218)"><path id="Path_81" data-name="Path 81" d="M41.321,95.943H99.568v-4.77H41.321Zm59.24,1.987H78.137a15.063,15.063,0,0,0,2.451,2.335,20.683,20.683,0,0,0,5.2,2.915.984.984,0,0,1,.712.961v6.293a1,1,0,0,1-.994.994H55.382a1,1,0,0,1-.994-.994v-6.326a.989.989,0,0,1,.712-.927,20.683,20.683,0,0,0,5.2-2.915,16.583,16.583,0,0,0,2.451-2.335H40.311a1,1,0,0,1-.994-.994V74.529l-7.188,7.2a2.309,2.309,0,0,1-3.279,0l-3.13-3.13a2.339,2.339,0,0,1,0-3.279L35,66.05a2.308,2.308,0,0,1,2.352-.563l.845-.845a15.915,15.915,0,0,1-2.65-8.811h0A16.023,16.023,0,0,1,51.573,39.8h0A16.025,16.025,0,0,1,66.561,50.118h34a1,1,0,0,1,.994.994V96.953a.993.993,0,0,1-.994.977ZM38.92,66.712l1.772,1.772,1.259-1.259h0a.985.985,0,0,1,1.292-.1A14.065,14.065,0,0,0,65.65,55.815h0A14.058,14.058,0,0,0,51.589,41.754h0A14.069,14.069,0,0,0,37.529,55.815h0a14.16,14.16,0,0,0,.7,4.389,13.987,13.987,0,0,0,2,3.892,1.015,1.015,0,0,1-.05,1.358Zm3.031,3.345a2.348,2.348,0,0,1-.629,2.5V89.186H52.169V84.9a1,1,0,0,1,.994-.994h2.65a13.472,13.472,0,0,1,.712-2.136h0a15.134,15.134,0,0,1,1.01-2l-1.871-1.871a.98.98,0,0,1,0-1.408l3.743-3.743a.98.98,0,0,1,1.408,0l1.871,1.871a14.8,14.8,0,0,1,4.157-1.722V70.24a1,1,0,0,1,.994-.994h5.283a.98.98,0,0,1,.994,1.076v2.55A15.219,15.219,0,0,1,78.27,74.6l1.871-1.871a.98.98,0,0,1,1.408,0l3.743,3.743a1.01,1.01,0,0,1,0,1.408L83.42,79.746A15.008,15.008,0,0,1,85.143,83.9h2.65a1,1,0,0,1,.994.994v4.289H99.568v-37.1H67.19a16.271,16.271,0,0,1,.431,3.726h0A16.052,16.052,0,0,1,46.571,71.051a16.514,16.514,0,0,1-3.809-1.838ZM40,70.587l-3.13-3.13a.32.32,0,0,0-.464,0l-9.258,9.258a.34.34,0,0,0,0,.48l3.13,3.13a.34.34,0,0,0,.48,0l9.258-9.258a.376.376,0,0,0-.017-.48ZM51.589,44.735a11.1,11.1,0,1,1-11.1,11.1,11.1,11.1,0,0,1,11.1-11.1Zm6.442,4.654a9.111,9.111,0,1,0,0,12.885,9.106,9.106,0,0,0,0-12.885ZM77.094,63.963a.992.992,0,0,1-1.209,1.573L70.8,61.644a.994.994,0,0,1,.017-1.59l5.068-3.875a.992.992,0,1,1,1.209,1.573l-4.041,3.114Zm6.923-8.032a.994.994,0,0,1,1.722.994L80.6,65.8a.994.994,0,1,1-1.722-.994Zm4.72,9.606a.992.992,0,1,1-1.209-1.573l4.058-3.1-4.058-3.1A.992.992,0,1,1,88.736,56.2L93.8,60.071a1,1,0,0,1,.017,1.59Zm-18.3,12.885A9.125,9.125,0,0,1,79.412,89.2h7.32v-3.3H84.281A.992.992,0,0,1,83.3,85.1a12.983,12.983,0,0,0-.762-2.55,12.359,12.359,0,0,0-1.242-2.3,1.006,1.006,0,0,1,.083-1.308L83.122,77.2,80.787,74.86l-1.739,1.722h0a.98.98,0,0,1-1.259.116,13.186,13.186,0,0,0-4.9-2.037h0a.982.982,0,0,1-.812-.977V71.233H68.764v2.4a.975.975,0,0,1-.812,1.027,12.982,12.982,0,0,0-2.55.762,12.358,12.358,0,0,0-2.3,1.242.987.987,0,0,1-1.308-.083L60.052,74.86,57.717,77.2l1.772,1.722h0a.98.98,0,0,1,.116,1.259,13.406,13.406,0,0,0-1.275,2.352h0a12.654,12.654,0,0,0-.745,2.484.99.99,0,0,1-.994.878H54.14v3.3h7.32c-.017-.05-.017-.1-.033-.149h0a9.135,9.135,0,0,1,9.009-10.616ZM75.487,82.5A7.137,7.137,0,0,0,63.4,88.722h0l.1.464H77.392a7.159,7.159,0,0,0-1.9-6.691Zm.2,15.435h-10.5a17.72,17.72,0,0,1-5.565,5.217H81.251a17.9,17.9,0,0,1-5.565-5.217Zm-19.31,11.51H84.513v-4.306H56.376Z" transform="translate(1600.586 221.2)" fill="#1c54f8" stroke="#1a53f8" stroke-width="0.4"></path></g></g></svg> 