<?xml version="1.0" encoding="UTF-8"?> <svg xmlns="http://www.w3.org/2000/svg" xmlns:xlink="http://www.w3.org/1999/xlink" width="90" height="90" viewBox="0 0 90 90"><defs><clipPath id="clip-path"><rect id="Rectangle_1" data-name="Rectangle 1" width="90" height="90" transform="translate(123 164)" fill="#fff"></rect></clipPath></defs><g id="Mask_Group_1" data-name="Mask Group 1" transform="translate(-123 -164)" clip-path="url(#clip-path)"><g id="noun-use-case-5491427" transform="translate(128 169)"><path id="Path_178" data-name="Path 178" d="M157.046,166.023a8.523,8.523,0,1,0-8.523,8.523A8.532,8.532,0,0,0,157.046,166.023Zm-8.523,2.841a2.841,2.841,0,1,1,2.841-2.841A2.844,2.844,0,0,1,148.523,168.864Z" transform="translate(-134.318 -137.613)" fill="#05f" stroke="#fff" stroke-width="4"></path><path id="Path_179" data-name="Path 179" d="M124.887,262.5H113.523A8.533,8.533,0,0,0,105,271.023V276.7a2.841,2.841,0,0,0,2.841,2.841h22.728a2.841,2.841,0,0,0,2.841-2.841v-5.682A8.533,8.533,0,0,0,124.887,262.5Zm2.841,11.364H110.682v-2.841a2.844,2.844,0,0,1,2.841-2.841h11.364a2.844,2.844,0,0,1,2.841,2.841Z" transform="translate(-105 -225.567)" fill="#05f" stroke="#fff" stroke-width="4"></path><path id="Path_180" data-name="Path 180" d="M325.911,210c-9.586,0-17.156,3.5-19.273,8.494-2.182,0-5.135.018-6.32.029a2.841,2.841,0,0,0,.025,5.682h.025c2.213-.02,4.59-.032,6.245-.029,2.083,5.026,9.675,8.552,19.3,8.552,11.337,0,19.887-4.885,19.887-11.364S337.249,210,325.911,210Zm0,17.046c-8.671,0-14.2-3.365-14.2-5.682s5.534-5.682,14.2-5.682,14.2,3.365,14.2,5.682S334.582,227.046,325.911,227.046Z" transform="translate(-266.25 -181.59)" fill="#05f" stroke="#fff" stroke-width="4"></path><path id="Path_181" data-name="Path 181" d="M311.252,370.344c-7.255,0-13.354,2.006-16.815,5.144l-9.889-7.416a2.841,2.841,0,1,0-3.41,4.545l10.359,7.769a7.206,7.206,0,0,0-.131,1.322c0,6.478,8.55,11.364,19.887,11.364s19.887-4.885,19.887-11.364-8.55-11.364-19.887-11.364Zm0,17.046c-8.671,0-14.2-3.365-14.2-5.682s5.534-5.682,14.2-5.682,14.2,3.365,14.2,5.682S319.924,387.389,311.252,387.389Z" transform="translate(-251.592 -313.524)" fill="#05f" stroke="#fff" stroke-width="4"></path><path id="Path_182" data-name="Path 182" d="M282.847,60.569a2.825,2.825,0,0,0,1.7-.569l9.889-7.416c3.462,3.138,9.562,5.144,16.817,5.144,11.337,0,19.887-4.885,19.887-11.364S322.592,35,311.255,35s-19.887,4.885-19.887,11.364a7.272,7.272,0,0,0,.131,1.323L281.14,55.456a2.841,2.841,0,0,0,1.708,5.113Zm28.406-19.887c8.671,0,14.2,3.365,14.2,5.682s-5.534,5.682-14.2,5.682-14.2-3.365-14.2-5.682S302.583,40.682,311.254,40.682Z" transform="translate(-251.593 -35)" fill="#05f" stroke="#fff" stroke-width="4"></path></g></g></svg> 