<?xml version="1.0" encoding="UTF-8"?> <svg xmlns="http://www.w3.org/2000/svg" xmlns:xlink="http://www.w3.org/1999/xlink" width="90" height="90" viewBox="0 0 90 90"><defs><clipPath id="clip-path"><rect id="Rectangle_7" data-name="Rectangle 7" width="90" height="90" transform="translate(100 45)" fill="#fff" stroke="#707070" stroke-width="1"></rect></clipPath></defs><g id="Mask_Group_26" data-name="Mask Group 26" transform="translate(-100 -45)" clip-path="url(#clip-path)"><g id="Group_23" data-name="Group 23" transform="translate(98.68 -33)"><path id="Path_97" data-name="Path 97" d="M18.637,25.762v2.813a1.23,1.23,0,1,1-2.46,0V25.762a1.23,1.23,0,1,1,2.46,0ZM39.155,29.8a1.228,1.228,0,0,0,1.23-1.23V25.762a1.23,1.23,0,0,0-2.46,0v2.813A1.228,1.228,0,0,0,39.155,29.8ZM28.28,24.532a1.228,1.228,0,0,0-1.23,1.23v2.813a1.23,1.23,0,1,0,2.46,0V25.762A1.228,1.228,0,0,0,28.28,24.532ZM17.406,38.12a1.228,1.228,0,0,0-1.23,1.23v2.813a1.23,1.23,0,1,0,2.46,0V39.35A1.228,1.228,0,0,0,17.406,38.12Zm10.874,0a1.228,1.228,0,0,0-1.23,1.23v2.813a1.23,1.23,0,1,0,2.46,0V39.35A1.228,1.228,0,0,0,28.28,38.12ZM17.406,51.709a1.228,1.228,0,0,0-1.23,1.23v2.813a1.23,1.23,0,1,0,2.46,0V52.939A1.228,1.228,0,0,0,17.406,51.709Zm10.874,0a1.228,1.228,0,0,0-1.23,1.23v2.813a1.23,1.23,0,1,0,2.46,0V52.939A1.228,1.228,0,0,0,28.28,51.709ZM17.406,65.3a1.228,1.228,0,0,0-1.23,1.23V69.34a1.23,1.23,0,1,0,2.46,0V66.527A1.228,1.228,0,0,0,17.406,65.3Zm21.748,0a1.228,1.228,0,0,0-1.23,1.23V69.34a1.23,1.23,0,1,0,2.46,0V66.527A1.228,1.228,0,0,0,39.155,65.3Zm-10.874,0a1.228,1.228,0,0,0-1.23,1.23V69.34a1.23,1.23,0,1,0,2.46,0V66.527A1.228,1.228,0,0,0,28.28,65.3Zm21.273-7.774a10.077,10.077,0,0,1-1.23.131c-.164,0-.32.025-.484.025a7.446,7.446,0,0,1-.746-.041,10.036,10.036,0,0,1-6.708-3.28,10.19,10.19,0,0,1-1.7-2.567,10.06,10.06,0,0,1-.918-4.182,10.274,10.274,0,0,1,.976-4.305,10.1,10.1,0,0,1,8.348-5.724c.246-.016.492-.041.746-.041.164,0,.328.016.484.025a9.967,9.967,0,0,1,7.446,3.863l.836-.836a1.229,1.229,0,0,1,1.739,1.739l-1.279,1.279a10.04,10.04,0,0,1-7.512,13.908Zm0-2.5a7.585,7.585,0,0,0,5.593-9.488l-5.593,5.593-1.23,1.23-.492.492a1.248,1.248,0,0,1-.746.336c-.041,0-.082.025-.131.025a1.237,1.237,0,0,1-.869-.361L42.1,48.863a1.229,1.229,0,1,1,1.739-1.739l3.116,3.116.131-.131,1.23-1.23,1.23-1.23,4.461-4.461a7.576,7.576,0,0,0-4.461-2.977,8.718,8.718,0,0,0-1.23-.18c-.164-.008-.32-.025-.484-.025a7.448,7.448,0,0,0-.746.041,7.605,7.605,0,0,0,0,15.138,7.448,7.448,0,0,0,.746.041c.164,0,.328-.016.484-.025a6.847,6.847,0,0,0,1.23-.18ZM79.084,74.252a4.243,4.243,0,0,1-1.246,3.018l-.353.353a4.276,4.276,0,0,1-6.036,0l-8.643-8.643a4.249,4.249,0,0,1-.607-5.248L58.467,60a16.107,16.107,0,0,1-8.931,3.863V77.278h1.058a1.23,1.23,0,1,1,0,2.46H5.95a1.23,1.23,0,1,1,0-2.46H7.008V4.76A1.234,1.234,0,0,1,8.64,3.6L48.717,17.184a1.234,1.234,0,0,1,.836,1.164V31.371a16.32,16.32,0,0,1,10.669,26.89l3.723,3.723a4.253,4.253,0,0,1,5.248.607l8.643,8.643a4.243,4.243,0,0,1,1.246,3.018ZM76.1,75.531a1.822,1.822,0,0,0,0-2.559l-8.643-8.643a1.822,1.822,0,0,0-2.559,0l-.353.353a1.822,1.822,0,0,0,0,2.559l8.643,8.643a1.8,1.8,0,0,0,2.55,0l.353-.353ZM47.093,77.286V63.928a16.189,16.189,0,0,1-10.808-4.748,16.358,16.358,0,0,1,0-23.109,16.189,16.189,0,0,1,10.808-4.748V19.234L9.468,6.474V77.286H47.085Zm1.23-15.8c.41-.016.82-.041,1.23-.09a13.864,13.864,0,0,0,0-27.521c-.41-.049-.82-.082-1.23-.09-.164,0-.32-.025-.484-.025-.246,0-.492.025-.746.033a13.861,13.861,0,0,0,0,27.685c.246.016.492.033.746.033.164,0,.32-.016.484-.025Z" transform="translate(4.6 81.472)" fill="#1c54f8"></path></g></g></svg> 