<?xml version="1.0" encoding="UTF-8"?> <svg xmlns="http://www.w3.org/2000/svg" xmlns:xlink="http://www.w3.org/1999/xlink" width="90" height="90" viewBox="0 0 90 90"><defs><clipPath id="clip-path"><rect id="Rectangle_29" data-name="Rectangle 29" width="90" height="90" transform="translate(1320 1476)" fill="#fff"></rect></clipPath></defs><g id="Mask_Group_11" data-name="Mask Group 11" transform="translate(-1320 -1476)" clip-path="url(#clip-path)"><g id="Group_298" data-name="Group 298" transform="translate(28.289 350.752)"><path id="Path_295" data-name="Path 295" d="M137.907,131.893l-.017-.025c-.009-.015-.017-.028-.028-.042s-.017-.025-.027-.037l-.032-.039c-.01-.012-.021-.023-.032-.034s-.021-.023-.032-.033l-.036-.032-.036-.028-.039-.028-.036-.024-.04-.03-.037-.021-.044-.021-.039-.017-.046-.017-.041-.013-.048,0-.044-.01-.045-.006a.356.356,0,0,0-.046-.005h-.183l-.043.006-.049.008-.043.01-.047.013-.044.015-.044.017-.045.021-.028.013h0a14.592,14.592,0,1,1,.163-25.723l.033.017.044.021.044.017a.34.34,0,0,0,.045.017l.044.013a.32.32,0,0,1,.046.011l.045.008.047.007h.183l.044,0,.046-.007h0a.228.228,0,0,0,.042-.01.424.424,0,0,0,.048-.011l.041-.013.046-.015.039-.017.044-.021.038-.021.042-.024.037-.025.039-.028.035-.03c.012-.01.024-.021.035-.032s.023-.022.034-.034.021-.021.03-.033l.032-.04.027-.035.028-.043c.009-.015.014-.019.019-.03l5.094-8.823h0a.952.952,0,0,0-.36-1.306,26.553,26.553,0,0,0-6.467-2.567V90.591a3.8,3.8,0,0,0-3.788-3.794h-5.469a3.794,3.794,0,0,0-3.79,3.79v2.161a26.449,26.449,0,0,0-7.155,2.965l-1.528-1.528h0a3.8,3.8,0,0,0-5.361,0l-3.868,3.868a3.8,3.8,0,0,0,0,5.362l1.528,1.528h0a26.426,26.426,0,0,0-2.965,7.155h-2.16A3.793,3.793,0,0,0,98,115.89v5.469a3.8,3.8,0,0,0,3.791,3.791h2.16a26.437,26.437,0,0,0,2.965,7.155l-1.528,1.528h0a3.8,3.8,0,0,0,0,5.362l3.868,3.866a3.8,3.8,0,0,0,5.361,0l1.528-1.528A26.454,26.454,0,0,0,123.3,144.5v2.161a3.794,3.794,0,0,0,3.79,3.794h5.469a3.794,3.794,0,0,0,3.79-3.79V144.5a26.516,26.516,0,0,0,6.288-2.468.951.951,0,0,0,.369-1.308Zm-2.715,10.923a.951.951,0,0,0-.745.929v2.913a1.893,1.893,0,0,1-1.889,1.889h-5.469a1.893,1.893,0,0,1-1.889-1.889v-2.913a.951.951,0,0,0-.745-.929,24.548,24.548,0,0,1-7.94-3.29.95.95,0,0,0-1.183.129l-2.061,2.061h0a1.9,1.9,0,0,1-2.675,0l-3.868-3.868h0a1.9,1.9,0,0,1,0-2.676l2.066-2.057a.95.95,0,0,0,.129-1.183,24.548,24.548,0,0,1-3.29-7.939.952.952,0,0,0-.929-.746H101.79a1.892,1.892,0,0,1-1.889-1.889V115.89A1.891,1.891,0,0,1,101.79,114H104.7a.95.95,0,0,0,.928-.746,24.585,24.585,0,0,1,3.29-7.94.948.948,0,0,0-.129-1.182l-2.061-2.061a1.892,1.892,0,0,1,0-2.676l3.868-3.868h0a1.9,1.9,0,0,1,2.675,0l2.057,2.062a.952.952,0,0,0,1.184.129,24.574,24.574,0,0,1,7.94-3.29.95.95,0,0,0,.745-.928V90.591a1.893,1.893,0,0,1,1.889-1.889h5.469a1.893,1.893,0,0,1,1.889,1.889V93.5a.951.951,0,0,0,.745.928,24.61,24.61,0,0,1,5.844,2.092l-4.151,7.2a16.493,16.493,0,1,0-.179,29.9l4.151,7.2a24.587,24.587,0,0,1-5.666,2Zm44.885-49.8h-5.589a.952.952,0,0,0-.951.951v1.845H149.022a.953.953,0,0,0-.824.475l-9,15.585H123.249a.951.951,0,1,0,0,1.9h16.508a.949.949,0,0,0,.1-.008l.03,0a.521.521,0,0,0,.084-.017l.028-.006a.916.916,0,0,0,.092-.032l.015,0c.034-.015.068-.032.1-.049l.024-.015h0a.791.791,0,0,0,.068-.046l.032-.023c.021-.017.042-.035.062-.053l.022-.021h0a.956.956,0,0,0,.072-.081l.019-.026c.019-.025.036-.051.053-.077l.009-.014,9-15.586h23.968v1.846a.951.951,0,0,0,.951.95h5.589a.949.949,0,0,0,.951-.951v-5.59a.951.951,0,0,0-.951-.951Zm-.95,5.59h-3.69V94.92h3.69Zm.95,38.521h-5.589a.951.951,0,0,0-.951.95v1.845H149.569l-9.225-15.978-.015-.023-.03-.046-.028-.037c-.01-.013-.017-.023-.028-.034l-.035-.04-.027-.027c-.013-.013-.027-.025-.041-.037l-.028-.024-.042-.032-.034-.024L140,123.6l-.042-.023-.037-.017-.049-.021-.034-.013-.053-.017-.036-.009h0a.467.467,0,0,0-.052-.012l-.043-.007-.046-.006H123.248a.951.951,0,1,0,0,1.9h15.724l9.225,15.978a.951.951,0,0,0,.824.475h24.515v1.845a.952.952,0,0,0,.951.951h5.589a.95.95,0,0,0,.951-.956v-5.59a.95.95,0,0,0-.951-.95Zm-.95,5.59h-3.69v-3.69h3.69Zm.95-27.841h-5.589a.951.951,0,0,0-.951.951v1.845H148.984l6.055-10.491h7.447v1.846a.949.949,0,0,0,.95.95h5.59a.951.951,0,0,0,.951-.95v-5.588a.952.952,0,0,0-.951-.951h-5.59a.952.952,0,0,0-.95.951v1.845H154.49a.951.951,0,0,0-.824.476l-6.877,11.911H120.653a.951.951,0,1,0,0,1.9h25.908l7.1,12.306h0a.95.95,0,0,0,.824.476h8.949V134.2a.951.951,0,0,0,.95.951h5.59a.952.952,0,0,0,.951-.951V128.61a.951.951,0,0,0-.951-.95h-5.593a.95.95,0,0,0-.95.95v1.845h-8.4l-6.283-10.88h24.78v1.845a.951.951,0,0,0,.951.95h5.589a.95.95,0,0,0,.951-.95v-5.59a.949.949,0,0,0-.951-.951Zm-15.691-10.486h3.69v3.69h-3.69Zm.95,25.169h3.69v3.69h-3.69Zm13.79-9.092h-3.69v-3.69h3.69Z" transform="translate(1196.712 1051.452)" fill="#1b54f8"></path></g></g></svg> 