<?xml version="1.0" encoding="UTF-8"?> <svg xmlns="http://www.w3.org/2000/svg" xmlns:xlink="http://www.w3.org/1999/xlink" width="90" height="90" viewBox="0 0 90 90"><defs><clipPath id="clip-path"><rect id="Rectangle_16" data-name="Rectangle 16" width="90" height="90" transform="translate(803 642)" fill="#fff" stroke="#707070" stroke-width="1"></rect></clipPath></defs><g id="Mask_Group_27" data-name="Mask Group 27" transform="translate(-803 -642)" clip-path="url(#clip-path)"><g id="noun-ai-ethics-2985138" transform="translate(693.534 532.531)"><path id="Path_132" data-name="Path 132" d="M352.8,349.53a.819.819,0,0,0-.071-.159.835.835,0,0,0-.037-.082l-6.779-9.478-.01-.011a.829.829,0,0,0-.126-.138.853.853,0,0,0-.174-.117.82.82,0,0,0-.109-.04.845.845,0,0,0-.243-.049c-.008,0-.015-.005-.023-.005H333.978a2.154,2.154,0,1,0-3.427,0H319.375c-.023,0-.043.012-.066.013a.852.852,0,0,0-.11-.013h0a.863.863,0,0,0-.7.362l-6.747,9.478a.811.811,0,0,0-.036.082.822.822,0,0,0-.071.16.806.806,0,0,0-.034.169.782.782,0,0,0-.018.089,7.625,7.625,0,1,0,15.25,0,.788.788,0,0,0-.018-.089.784.784,0,0,0-.106-.33.83.83,0,0,0-.037-.083l-5.8-8.115h10.563v31.019H327.13a.862.862,0,0,0,0,1.723h10.34a.862.862,0,0,0,0-1.723h-4.308V341.173h10.376l-5.778,8.117a.807.807,0,0,0-.036.082.821.821,0,0,0-.071.16.805.805,0,0,0-.034.169.789.789,0,0,0-.018.089,7.624,7.624,0,1,0,15.248,0,.789.789,0,0,0-.018-.089.823.823,0,0,0-.034-.171Zm-2.485-.6H340.132l5.078-7.133ZM319.2,341.8l5.1,7.133h-10.18Zm.014,13.9a5.91,5.91,0,0,1-5.838-5.04h11.677a5.911,5.911,0,0,1-5.839,5.04Zm26.009,0a5.91,5.91,0,0,1-5.838-5.04h11.676A5.911,5.911,0,0,1,345.224,355.691Z" transform="translate(-177.833 -200.494)" fill="#1c54f8"></path><path id="Path_133" data-name="Path 133" d="M188.07,155.327a.862.862,0,0,0,0-1.723h-7.755V141.541h4.49a2.154,2.154,0,1,0,0-1.723h-4.49v-6.893a4.313,4.313,0,0,0-4.308-4.308h-6.889v-7.755a.862.862,0,0,0-1.723,0v7.755H155.332v-7.755a.862.862,0,1,0-1.723,0v7.755H141.545v-4.49a2.154,2.154,0,1,0-1.723,0v4.49h-6.9a4.313,4.313,0,0,0-4.308,4.308v6.893h-7.755a.862.862,0,1,0,0,1.723h7.755V153.6h-7.755a.862.862,0,1,0,0,1.723h7.755V167.39h-4.49a2.154,2.154,0,1,0,0,1.723h4.49v6.893a4.313,4.313,0,0,0,4.308,4.308h6.893v4.5a2.153,2.153,0,1,0,1.723,0v-4.5H153.6v7.755a.862.862,0,1,0,1.723,0v-7.755H167.39v7.755a.862.862,0,0,0,1.723,0v-7.755h6.893a4.313,4.313,0,0,0,4.308-4.308v-6.893h7.755a.862.862,0,0,0,0-1.723h-7.755V155.327Zm-9.478,20.679a2.588,2.588,0,0,1-2.585,2.585H132.925a2.588,2.588,0,0,1-2.585-2.585V132.925a2.588,2.588,0,0,1,2.585-2.585h43.082a2.588,2.588,0,0,1,2.585,2.585Z" fill="#1c54f8"></path></g></g></svg> 