<?xml version="1.0" encoding="UTF-8"?> <svg xmlns="http://www.w3.org/2000/svg" width="90" height="90" viewBox="0 0 90 90" fill="none"><mask id="mask0_1_167" style="mask-type:luminance" maskUnits="userSpaceOnUse" x="0" y="0" width="90" height="90"><path d="M90 0H0V90H90V0Z" fill="white"></path></mask><g mask="url(#mask0_1_167)"><path d="M62.5 50.5C61 46.6 58 43.7 54.3 42C56.2 39.8 57.3 37 57.3 33.9C57.3 27.1 51.8 21.6 45 21.6C38.2 21.6 32.7 27.1 32.7 33.9C32.7 37 33.8 39.8 35.7 42C32 43.7 29 46.7 27.5 50.5C26.3 53.7 25.4 57 24.9 60.4C24.7 62.3 25.2 64.2 26.4 65.5C27.6 66.9 29.3 67.7 31.2 67.7H58.5C60.4 67.7 62.1 66.9 63.3 65.5C64.3 64.4 64.9 62.8 64.9 61.2C64.9 60.9 64.9 60.6 64.8 60.3C64.7 56.9 63.8 53.6 62.5 50.5ZM45 25.8C49.5 25.8 53.1 29.4 53.1 33.9C53.1 38.4 49.5 42 45 42C40.5 42 36.9 38.4 36.9 33.9C36.9 29.4 40.6 25.8 45 25.8ZM60.4 62.7C60 63.2 59.4 63.5 58.7 63.5H31.4C30.7 63.5 30.1 63.2 29.7 62.7C29.3 62.2 29.1 61.6 29.2 60.9C29.6 57.9 30.3 54.8 31.5 52C32.9 48.4 36.1 45.8 39.8 45C41.4 45.8 43.1 46.1 45 46.1C46.9 46.1 48.6 45.6 50.2 45C54 45.9 57.2 48.5 58.5 52C59.6 54.8 60.4 57.9 60.8 60.9C61 61.6 60.8 62.2 60.4 62.7Z" fill="#1B54F8" stroke="white" stroke-miterlimit="10"></path><path d="M88 42.9H84.3C83.3 22.9 67.2 6.9 47.2 5.8V2.10001C47.2 1.00001 46.3 0 45.1 0C43.9 0 43 0.900006 43 2.10001V5.8C23 6.8 6.90002 22.9 5.90002 42.9H2.20001C1.10001 42.9 0.0999756 43.8 0.0999756 45C0.0999756 46.2 1.00001 47.1 2.20001 47.1H5.90002C6.90002 67.1 23 83.1 43 84.2V87.9C43 89 43.9 90 45.1 90C46.2 90 47.2 89.1 47.2 87.9V84.2C67.2 83.2 83.2 67.1 84.3 47.1H88C89.1 47.1 90.1 46.2 90.1 45C90.1 43.8 89.1 42.9 88 42.9ZM47.1 79.9V76.4C47.1 75.3 46.2 74.3 45 74.3C43.8 74.3 42.9 75.2 42.9 76.4V79.9C25.3 78.9 11.2 64.7 10 47H13.5C14.6 47 15.6 46.1 15.6 44.9C15.6 43.7 14.7 42.8 13.5 42.8H10C11 25.2 25.2 11.1 42.9 9.9V13.3C42.9 14.4 43.8 15.4 45 15.4C46.2 15.4 47.1 14.5 47.1 13.3V9.9C64.7 10.9 78.8 25.1 80 42.8H76.6C75.5 42.8 74.5 43.7 74.5 44.9C74.5 46.1 75.4 47 76.6 47H80C79 64.7 64.7 78.9 47.1 79.9Z" fill="#1B54F8" stroke="white" stroke-miterlimit="10"></path></g></svg> 