<?xml version="1.0" encoding="UTF-8"?> <svg xmlns="http://www.w3.org/2000/svg" xmlns:xlink="http://www.w3.org/1999/xlink" width="90" height="90" viewBox="0 0 90 90"><defs><clipPath id="clip-path"><circle id="Ellipse_12" data-name="Ellipse 12" cx="45" cy="45" r="45" transform="translate(0.361 0.388)" fill="#fff"></circle></clipPath></defs><g id="Mask_Group_4" data-name="Mask Group 4" transform="translate(-0.361 -0.388)" clip-path="url(#clip-path)"><g id="Group_168" data-name="Group 168" transform="translate(13.887 15.808)"><path id="Path_168" data-name="Path 168" d="M119.753,81.46a.617.617,0,0,1-.866-.88L121.471,78l-2.584-2.584a.617.617,0,0,1,.866-.88l2.584,2.584,2.584-2.584a.617.617,0,0,1,.866.88L123.2,78l2.584,2.584a.617.617,0,0,1-.866.88l-2.584-2.584ZM117.7,72.142h9.868a.616.616,0,0,1,.618.618V83.247a.616.616,0,0,1-.618.618H117.086a.616.616,0,0,1-.618-.618V73.379h-9.855a.616.616,0,0,1-.618-.618V62.274a.616.616,0,0,1,.618-.618H117.1a.616.616,0,0,1,.618.618v9.868Zm9.25,1.237H117.7v9.25h9.25ZM108.221,67.5a.618.618,0,0,1,.137-.866.6.6,0,0,1,.852.137l1.471,2.007,3.793-4.673a.615.615,0,1,1,.948.783c-.467.577-4.247,5.278-4.412,5.4a.607.607,0,0,1-.866-.137Zm8.246-4.6h-9.25v9.25h9.25ZM150.65,51.677h6.638a.616.616,0,0,1,.618.618V58.92a.616.616,0,0,1-.618.618H150.65a.616.616,0,0,1-.618-.618V52.3A.616.616,0,0,1,150.65,51.677Zm6.02,1.237h-5.4v5.4h5.4ZM150.65,80.9h6.638a.616.616,0,0,1,.618.618V88.14a.616.616,0,0,1-.618.618H150.65a.616.616,0,0,1-.618-.618V81.516A.616.616,0,0,1,150.65,80.9Zm6.02,1.237h-5.4v5.4h5.4Zm-6.02-15.847h6.638a.616.616,0,0,1,.618.618V73.53a.616.616,0,0,1-.618.619H150.65a.616.616,0,0,1-.618-.619V66.906A.616.616,0,0,1,150.65,66.287Zm6.02,1.237h-5.4v5.4h5.4ZM146.2,75.743a.619.619,0,0,1,0,1.237h-8a.619.619,0,0,1,0-1.237ZM142.238,94.49a.619.619,0,0,1,0,1.237h-12.8a.619.619,0,0,1,0-1.237ZM146.2,52.53a.619.619,0,0,1,0,1.237H129.745a.619.619,0,0,1,0-1.237Zm0,11.614a.619.619,0,0,1,0,1.237h-8.013a.619.619,0,0,1,0-1.237Zm0-5.814a.619.619,0,0,1,0,1.237H135.655a.619.619,0,0,1,0-1.237Zm0,11.614a.619.619,0,0,1,0,1.237h-8a.619.619,0,0,1,0-1.237Zm0,17.4a.619.619,0,0,1,0,1.237h-8.013a.619.619,0,0,1,0-1.237Zm0-5.8a.619.619,0,0,1,0,1.237h-8.013a.619.619,0,0,1,0-1.237Zm-28.491-26.65a17.885,17.885,0,0,1,0,35.749v10.679h34.662V93.309a.616.616,0,0,1,.618-.618H161V44.2H117.705Zm-1.237,35.748a17.885,17.885,0,0,1,0-35.749v-11.3a.616.616,0,0,1,.618-.618h44.532a.616.616,0,0,1,.618.618V93.307a.636.636,0,0,1-.179.44l-8.686,8.686-.385.124h-35.9a.616.616,0,0,1-.618-.618Zm12.4-29.66a16.648,16.648,0,1,0,0,23.544A16.649,16.649,0,0,0,128.866,60.982ZM160.12,93.926h-6.515v6.515Z" transform="translate(-99.205 -42.976)" fill="#1b54f8" stroke="#1b54f8" stroke-width="1"></path></g></g></svg> 