<?xml version="1.0" encoding="UTF-8"?> <svg xmlns="http://www.w3.org/2000/svg" id="Layer_1" data-name="Layer 1" viewBox="0 0 56 56"><defs><style>.cls-1{fill:#1b54f8;}</style></defs><path class="cls-1" d="M9.09,1.21V54.79a.71.71,0,0,0,.72.71H47.32a.71.71,0,0,0,.71-.71V1.21A.71.71,0,0,0,47.32.5H9.81a.71.71,0,0,0-.72.71Zm37,52.34H11V2.45h35Z"></path><path class="cls-1" d="M34,7.85H14.8a.7.7,0,0,0-.7.71h0v28a.7.7,0,0,0,.68.73H34a.71.71,0,0,0,.71-.71V8.56A.71.71,0,0,0,34,7.85Zm-1.24,2V17H16V9.8Zm0,9.17v7.14H16V19ZM16,35.38V28.06H32.77v7.32Z"></path><path class="cls-1" d="M42.12,40.63H14.8a.7.7,0,0,0-.7.71V47.4a.7.7,0,0,0,.7.71H42.12a.71.71,0,0,0,.72-.7h0V41.34a.71.71,0,0,0-.71-.71Zm-1.23,5.53H16V42.58H40.89Z"></path><path class="cls-1" d="M42.24,7.85H37.92a.71.71,0,0,0-.71.71h0v4.32a.72.72,0,0,0,.7.72h4.33a.71.71,0,0,0,.71-.71h0V8.56A.71.71,0,0,0,42.24,7.85ZM41,11.65H39.16V9.8H41Z"></path><path class="cls-1" d="M42.24,15.76H37.92a.7.7,0,0,0-.71.7h0v4.32a.7.7,0,0,0,.7.71h4.33a.71.71,0,0,0,.71-.71h0V16.47a.7.7,0,0,0-.7-.71ZM41,19.55H39.16V17.7H41Z"></path><path class="cls-1" d="M38,29.41h4.32A.71.71,0,0,0,43,28.7h0V24.35a.7.7,0,0,0-.7-.71H38a.7.7,0,0,0-.71.7h0v4.32a.69.69,0,0,0,.67.73Zm1.24-3.8h1.84v1.85H39.24Z"></path><path class="cls-1" d="M38,37.33h4.32a.71.71,0,0,0,.71-.71h0V32.28a.7.7,0,0,0-.7-.71H38a.7.7,0,0,0-.71.7h0V36.6a.7.7,0,0,0,.68.73Zm1.24-3.8h1.84v1.85H39.24Z"></path></svg> 