<?xml version="1.0" encoding="UTF-8"?> <svg xmlns="http://www.w3.org/2000/svg" width="80" height="80" viewBox="0 0 80 80"><g id="Group_766" data-name="Group 766" transform="translate(-2270 -423)"><rect id="Rectangle_129" data-name="Rectangle 129" width="80" height="80" transform="translate(2270 423)" fill="#f6f6f6" opacity="0"></rect><g id="Group_762" data-name="Group 762" transform="translate(178.016 113)"><path id="Path_777" data-name="Path 777" d="M129.448,78.4a.8.8,0,0,1,.692.354l3.045,4.515a.8.8,0,1,1-1.334.9l-1.573-2.333v8.633h.01a.8.8,0,0,1,0,1.61h-.01v12.875h27.912a.8.8,0,0,1,.292.055L169.86,93.738l-1.87.34a.8.8,0,0,1-.288-1.584l4.288-.78a.8.8,0,0,1,.674-1.245h.815a.8.8,0,0,1,.8.8v.808a.8.8,0,0,1-1.251.669l-1.191,4.368a.8.8,0,0,1-1.553-.423l.417-1.53-11.711,11.6V134.08h13.679v0a.8.8,0,1,1,1.609,0v0h13.41l-2.327-1.533a.8.8,0,0,1,.886-1.344l4.568,3.01a.8.8,0,0,1-.086,1.393l-4.568,2.257a.8.8,0,1,1-.713-1.443l1.48-.731h-57.46a.8.8,0,0,1-.8-.8V82.15L127.5,84.128a.8.8,0,1,1-1.386-.818l2.665-4.515a.807.807,0,0,1,.669-.4Zm27.464,28.164H130.277v26.385ZM131.421,134.08l25.964-25.718V134.08Z" transform="translate(1972.982 241.601)" fill="#1b54f8" fill-rule="evenodd"></path><path id="Path_778" data-name="Path 778" d="M172.9,163.2a.8.8,0,0,1,.8-.8h1.629a.8.8,0,1,1,0,1.61H173.7A.8.8,0,0,1,172.9,163.2Z" transform="translate(1932.823 169.672)" fill="#1b54f8"></path><path id="Path_779" data-name="Path 779" d="M206.93,163.2a.8.8,0,0,1,.8-.8h1.63a.8.8,0,0,1,0,1.61h-1.63A.8.8,0,0,1,206.93,163.2Z" transform="translate(1903.683 169.672)" fill="#1b54f8"></path><path id="Path_780" data-name="Path 780" d="M240.96,163.2a.8.8,0,0,1,.8-.8h1.63a.8.8,0,0,1,0,1.61h-1.63A.8.8,0,0,1,240.96,163.2Z" transform="translate(1874.543 169.672)" fill="#1b54f8"></path><path id="Path_781" data-name="Path 781" d="M274.99,163.2a.8.8,0,0,1,.8-.8h1.629a.8.8,0,1,1,0,1.61h-1.629A.8.8,0,0,1,274.99,163.2Z" transform="translate(1845.403 169.672)" fill="#1b54f8"></path><path id="Path_782" data-name="Path 782" d="M309.02,163.2a.8.8,0,0,1,.8-.8h1.63a.8.8,0,0,1,0,1.61h-1.63A.8.8,0,0,1,309.02,163.2Z" transform="translate(1816.263 169.672)" fill="#1b54f8"></path><path id="Path_783" data-name="Path 783" d="M343.04,163.2a.8.8,0,0,1,.8-.8h1.63a.8.8,0,0,1,0,1.61h-1.63A.8.8,0,0,1,343.04,163.2Z" transform="translate(1787.131 169.672)" fill="#1b54f8"></path><path id="Path_784" data-name="Path 784" d="M377.07,163.2a.8.8,0,0,1,.8-.8h1.63a.8.8,0,1,1,0,1.61h-1.63A.8.8,0,0,1,377.07,163.2Z" transform="translate(1757.991 169.672)" fill="#1b54f8"></path><path id="Path_785" data-name="Path 785" d="M411.1,163.2a.8.8,0,0,1,.8-.8h1.63a.8.8,0,0,1,0,1.61H411.9A.8.8,0,0,1,411.1,163.2Z" transform="translate(1728.851 169.672)" fill="#1b54f8"></path><path id="Path_786" data-name="Path 786" d="M451.6,190.5a.8.8,0,0,1,.8.8v1.615a.8.8,0,1,1-1.609,0V191.3A.8.8,0,0,1,451.6,190.5Z" transform="translate(1694.857 145.608)" fill="#1b54f8"></path><path id="Path_787" data-name="Path 787" d="M451.6,224.22a.8.8,0,0,1,.8.8v1.615a.8.8,0,1,1-1.609,0v-1.615A.8.8,0,0,1,451.6,224.22Z" transform="translate(1694.857 116.733)" fill="#1b54f8"></path><path id="Path_788" data-name="Path 788" d="M451.6,257.94a.8.8,0,0,1,.8.8v1.615a.8.8,0,0,1-1.609,0v-1.615A.8.8,0,0,1,451.6,257.94Z" transform="translate(1694.857 87.859)" fill="#1b54f8"></path><path id="Path_789" data-name="Path 789" d="M451.6,291.66a.8.8,0,0,1,.8.8v1.615a.8.8,0,1,1-1.609,0v-1.615A.8.8,0,0,1,451.6,291.66Z" transform="translate(1694.857 58.984)" fill="#1b54f8"></path><path id="Path_790" data-name="Path 790" d="M451.6,325.39a.8.8,0,0,1,.8.8v1.615a.8.8,0,0,1-1.609,0v-1.615A.8.8,0,0,1,451.6,325.39Z" transform="translate(1694.857 30.101)" fill="#1b54f8"></path><path id="Path_791" data-name="Path 791" d="M451.6,359.11a.8.8,0,0,1,.8.8v1.615a.8.8,0,0,1-1.609,0v-1.615A.8.8,0,0,1,451.6,359.11Z" transform="translate(1694.857 1.226)" fill="#1b54f8"></path><path id="Path_792" data-name="Path 792" d="M451.6,392.83a.8.8,0,0,1,.8.8v1.615a.8.8,0,1,1-1.609,0v-1.615A.8.8,0,0,1,451.6,392.83Z" transform="translate(1694.857 -27.648)" fill="#1b54f8"></path><path id="Path_793" data-name="Path 793" d="M451.6,426.55a.8.8,0,0,1,.8.8v1.615a.8.8,0,0,1-1.609,0v-1.615A.8.8,0,0,1,451.6,426.55Z" transform="translate(1694.857 -56.523)" fill="#1b54f8"></path></g></g></svg> 