<?xml version="1.0" encoding="UTF-8"?> <svg xmlns="http://www.w3.org/2000/svg" width="60" height="60" viewBox="0 0 60 60" fill="none"><g clip-path="url(#clip0_19_469)"><path d="M21.9079 33.5C20.7237 33.5 19.8355 34.5 19.8355 35.6C19.8355 36.7 20.8224 37.7 21.9079 37.7C23.0921 37.7 23.9802 36.7 23.9802 35.6C24.0789 34.5 23.0921 33.5 21.9079 33.5Z" stroke="#1B54F8" stroke-width="1.5" stroke-miterlimit="10"></path><path d="M30 33.5C28.8158 33.5 27.9276 34.5 27.9276 35.6C27.9276 36.7 28.9145 37.7 30 37.7C31.1842 37.7 32.0724 36.7 32.0724 35.6C32.0724 34.5 31.1842 33.5 30 33.5Z" stroke="#1B54F8" stroke-width="1.5" stroke-miterlimit="10"></path><path d="M38.0921 33.5C36.9079 33.5 36.0197 34.5 36.0197 35.6C36.0197 36.7 37.0066 37.7 38.0921 37.7C39.1776 37.7 40.1645 36.7 40.1645 35.6C40.1645 34.5 39.1776 33.5 38.0921 33.5Z" stroke="#1B54F8" stroke-width="1.5" stroke-miterlimit="10"></path><path d="M56.25 30.6C55.4605 30.2 54.5724 30 53.6842 30C53.5855 30 53.4868 30 53.3882 30C53.8816 31.8 54.1776 33.7 54.1776 35.6C54.1776 37.6 53.8816 39.4 53.3882 41.2C53.4868 41.2 53.5855 41.2 53.6842 41.2C56.7434 41.2 59.2105 38.7 59.2105 35.6C59.3092 33.5 58.125 31.6 56.25 30.6Z" stroke="#1B54F8" stroke-width="1.5" stroke-miterlimit="10"></path><path d="M57.3355 9.59999V6.59999C57.3355 5.39999 56.3487 4.29999 55.1645 4.29999C53.9803 4.29999 52.9934 5.29999 52.9934 6.59999V9.69999C52.9934 10.9 53.9803 12 55.1645 12C56.25 11.9 57.3355 10.9 57.3355 9.59999Z" stroke="#1B54F8" stroke-width="1.5" stroke-miterlimit="10"></path><path d="M54.1776 11.7V30C54.7697 30 55.3618 30.2 55.9539 30.4V11.7C55.6579 11.8 55.3618 11.8 55.0658 11.8C54.7697 11.9 54.4737 11.8 54.1776 11.7Z" stroke="#1B54F8" stroke-width="1.5" stroke-miterlimit="10"></path><path d="M3.75 11.7V30.5C4.34211 30.2 4.93421 30.1 5.52632 30V11.7C5.23026 11.8 4.93421 11.8 4.63816 11.8C4.34211 11.9 4.04605 11.8 3.75 11.7Z" stroke="#1B54F8" stroke-width="1.5" stroke-miterlimit="10"></path><path d="M4.63815 4.29999C3.45394 4.29999 2.4671 5.29999 2.4671 6.59999V9.69999C2.4671 10.9 3.45394 12 4.63815 12C5.82237 12 6.90789 10.9 6.90789 9.59999V6.59999C6.90789 5.29999 5.92105 4.29999 4.63815 4.29999Z" stroke="#1B54F8" stroke-width="1.5" stroke-miterlimit="10"></path><path d="M6.61183 41.3C6.11841 39.5 5.82235 37.6 5.82235 35.7C5.82235 33.8 6.11841 31.9 6.61183 30.1C6.51314 30.1 6.41446 30.1 6.21709 30.1C6.11841 30.1 6.11841 30.1 6.01972 30.1C5.13156 30.2 4.24341 30.4 3.55262 30.9C1.7763 31.9 0.789459 33.8 0.789459 35.8C0.789459 38.9 3.25656 41.4 6.31577 41.4C6.41446 41.3 6.51314 41.3 6.61183 41.3Z" stroke="#1B54F8" stroke-width="1.5" stroke-miterlimit="10"></path><path d="M35.2303 16.5H24.7697C14.3092 16.5 5.82236 25.1 5.82236 35.7C5.82236 46.3 14.3092 54.9 24.7697 54.9H35.3289C45.7895 54.9 54.2763 46.3 54.2763 35.7C54.1776 25.1 45.6908 16.5 35.2303 16.5ZM45.4934 35.7C45.4934 41.4 40.9539 46 35.3289 46H31.5789L22.6974 51.3L25.0658 46H24.7697C19.1447 46 14.6053 41.4 14.6053 35.7C14.6053 30 19.1447 25.4 24.7697 25.4H35.3289C40.9539 25.3 45.4934 29.9 45.4934 35.7Z" stroke="#1B54F8" stroke-width="1.5" stroke-miterlimit="10"></path></g><defs><clipPath id="clip0_19_469"><rect width="60" height="60" fill="white"></rect></clipPath></defs></svg> 