<?xml version="1.0" encoding="UTF-8"?> <svg xmlns="http://www.w3.org/2000/svg" width="90" height="90" viewBox="0 0 90 90" fill="none"><mask id="mask0_1_270" style="mask-type:luminance" maskUnits="userSpaceOnUse" x="0" y="0" width="90" height="90"><path d="M90 0H0V90H90V0Z" fill="white"></path></mask><g mask="url(#mask0_1_270)"><path d="M35.9 66.6C38.2 66.7 40.3 67.5 42 68.8H54.5C54.9 64.8 58 61.5 61.9 60.8C55.6 55.8 55 46.5 60.7 40.8C65.9 35.6 74.4 35.6 79.7 40.8C85.4 46.5 84.8 55.9 78.5 60.8C82.8 61.6 85.9 65.3 85.9 69.7V77.2C85.9 78 85.2 78.7 84.4 78.7H75.4V84.1C75.4 84.9 74.7 85.6 73.9 85.6H47V88.8C47 89.6 46.3 90.3 45.5 90.3H6.5C5.7 90.3 5 89.6 5 88.8V78.5C5 72.2 9.9 67.1 16.1 66.7C6.7 60.5 5.4 47.2 13.4 39.2C20.4 32.2 31.7 32.2 38.6 39.2C46.6 47.1 45.3 60.3 35.9 66.6ZM45 71.7C46.3 73.6 47 75.9 47 78.3V82.4H72.4V71.7H45ZM35.3 69.6H16.8C12 69.6 8 73.6 8 78.4V87.2H44.1V78.4C44.1 73.5 40.1 69.6 35.3 69.6ZM36.5 41.2C30.7 35.4 21.3 35.4 15.5 41.2C9.7 47 9.7 56.4 15.5 62.2C21.3 68 30.7 68 36.5 62.2C42.3 56.4 42.3 47 36.5 41.2ZM57.6 68.7H74C74.8 68.7 75.5 69.4 75.5 70.2V75.6H83V69.6C83 66.3 80.3 63.6 77 63.6H63.5C60.6 63.6 58 65.8 57.6 68.7ZM77.6 42.8C73.5 38.7 66.9 38.7 62.9 42.8C58.8 46.9 58.8 53.5 62.9 57.5C67 61.6 73.6 61.6 77.6 57.5C81.7 53.5 81.7 46.9 77.6 42.8ZM61.1 4H30.2C28.7 4 27.4 5.29999 27.4 6.79999V22C27.4 23.5 28.7 24.8 30.2 24.8H40.3C40.7 24.8 41.1 25 41.4 25.3L51.3 34.8L50.1 26.6C50 25.7 50.7 24.9 51.6 24.9H61.1C62.6 24.9 63.9 23.6 63.9 22.1V6.89999C63.9 5.29999 62.6 4 61.1 4ZM30.2 1H61.1C64.3 1 66.9 3.59999 66.9 6.79999V22C66.9 25.2 64.3 27.8 61.1 27.8H53.4L55 38.6C55.2 40 53.5 40.9 52.5 39.9L39.7 27.9H30.2C27 27.9 24.4 25.3 24.4 22.1V6.89999C24.4 3.59999 27 1 30.2 1Z" fill="#1B54F8"></path></g></svg> 