<?xml version="1.0" encoding="UTF-8"?> <svg xmlns="http://www.w3.org/2000/svg" width="61" height="61" viewBox="0 0 61 61" fill="none"><mask id="mask0_19_107" style="mask-type:luminance" maskUnits="userSpaceOnUse" x="0" y="0" width="61" height="61"><path d="M60.4 0.700012H0.399994V60.7H60.4V0.700012Z" fill="white"></path></mask><g mask="url(#mask0_19_107)"><path d="M55.2 55H38.5C37.7 55 37 54.3 37 53.5C37 52.7 37.7 52 38.5 52H55.2C56 52 56.7 51.3 56.7 50.5V11C56.7 10.2 56 9.5 55.2 9.5H6.70001C5.90001 9.5 5.20001 10.2 5.20001 11V50.4C5.20001 51.2 5.90001 51.9 6.70001 51.9H27.9C28.7 51.9 29.4 51.2 29.4 50.4V48.5H28.2C21.9 48.5 16.8 43.4 16.8 37.1C16.8 36.3 17.5 35.6 18.3 35.6C19.1 35.6 19.8 36.3 19.8 37.1C19.8 41.7 23.6 45.5 28.2 45.5H29.4V42.2C25.3 41.5 22.2 37.9 22.2 33.6V31.5C22.3 31.5 22.4 31.5 22.6 31.5H27.4C28.2 31.5 28.9 30.8 28.9 30C28.9 29.2 28.2 28.5 27.4 28.5H22.6C22.5 28.5 22.4 28.5 22.2 28.5V22.3C22.3 22.3 22.4 22.3 22.6 22.3H27.4C28.2 22.3 28.9 21.6 28.9 20.8C28.9 20 28.2 19.3 27.4 19.3H22.6H22.5C23.4 15.4 26.8 12.6 31 12.6C35.8 12.6 39.7 16.5 39.7 21.3V23.4C39.6 23.4 39.5 23.4 39.3 23.4H34.5C33.7 23.4 33 24.1 33 24.9C33 25.7 33.7 26.4 34.5 26.4H39.3C39.4 26.4 39.5 26.4 39.7 26.4V32.6C39.6 32.6 39.5 32.6 39.3 32.6H34.5C33.7 32.6 33 33.3 33 34.1C33 34.9 33.7 35.6 34.5 35.6H39.3H39.4C38.6 39 35.9 41.6 32.5 42.2V45.5H33.7C38.3 45.5 42.1 41.7 42.1 37.1C42.1 36.3 42.8 35.6 43.6 35.6C44.4 35.6 45.1 36.3 45.1 37.1C45.1 43.4 40 48.5 33.7 48.5H32.5V50.4C32.5 52.9 30.5 54.9 28 54.9H6.79999C4.29999 54.9 2.29999 52.9 2.29999 50.4V11C2.29999 8.5 4.29999 6.5 6.79999 6.5H55.3C57.8 6.5 59.8 8.5 59.8 11V50.4C59.7 52.9 57.7 55 55.2 55Z" stroke="#1B54F8" stroke-width="1.5" stroke-miterlimit="10"></path><path d="M48.4 36.8C48 36.8 47.6 36.6 47.3 36.3C46.8 35.7 46.8 34.7 47.5 34.2C49.6 32.4 50.8 30 50.8 27.5C50.8 25.1 49.7 22.7 47.7 20.9C47.1 20.3 47 19.4 47.6 18.8C48.2 18.2 49.1 18.1 49.7 18.7C52.4 21.1 53.8 24.2 53.8 27.6C53.8 31 52.3 34.2 49.5 36.6C49.1 36.7 48.7 36.8 48.4 36.8Z" stroke="#1B54F8" stroke-width="1.5" stroke-miterlimit="10"></path><path d="M42.8 32.8C43.1 33.1 43.5 33.3 43.9 33.3C44.3 33.3 44.6 33.2 44.9 32.9C46.6 31.4 47.5 29.5 47.5 27.4C47.5 25.4 46.6 23.5 45.1 22.1C44.5 21.5 43.5 21.6 43 22.2C42.4 22.8 42.5 23.8 43.1 24.3C44 25.2 44.6 26.3 44.6 27.4C44.6 28.6 44 29.7 43 30.6C42.4 31.2 42.3 32.2 42.8 32.8Z" stroke="#1B54F8" stroke-width="1.5" stroke-miterlimit="10"></path><path d="M13.3 36.8C12.9 36.8 12.6 36.7 12.3 36.4C9.59999 34 8.20001 30.9 8.20001 27.5C8.20001 24.1 9.7 20.9 12.5 18.5C13.1 18 14.1 18 14.6 18.7C15.1 19.3 15.1 20.3 14.4 20.8C12.3 22.6 11.1 25 11.1 27.5C11.1 29.9 12.2 32.3 14.2 34.1C14.8 34.7 14.9 35.6 14.3 36.2C14.2 36.7 13.8 36.8 13.3 36.8Z" stroke="#1B54F8" stroke-width="1.5" stroke-miterlimit="10"></path><path d="M16.7 32.9C17 33.2 17.4 33.3 17.7 33.3C18.1 33.3 18.5 33.1 18.8 32.8C19.4 32.2 19.3 31.2 18.7 30.7C17.8 29.8 17.2 28.7 17.2 27.6C17.2 26.4 17.8 25.3 18.8 24.4C19.4 23.9 19.5 22.9 19 22.3C18.5 21.7 17.5 21.6 16.9 22.1C15.2 23.6 14.3 25.5 14.3 27.6C14.3 29.6 15.1 31.5 16.7 32.9Z" stroke="#1B54F8" stroke-width="1.5" stroke-miterlimit="10"></path></g></svg> 