<?xml version="1.0" encoding="UTF-8"?> <svg xmlns="http://www.w3.org/2000/svg" id="Layer_1" data-name="Layer 1" viewBox="0 0 100 100"><defs><style>.cls-1{fill:#1b54f8;}</style></defs><g id="Shape"><path class="cls-1" d="M67.49,28.78V75.06c0,2-6.81,5-17.49,5s-17.49-2.94-17.49-5V28.78c3.61,2.4,10.58,3.64,17.49,3.64s13.88-1.24,17.49-3.64M50,18c-9.45,0-19.49,2.44-19.49,7V75.06c0,4.52,10,7,19.49,7s19.49-2.44,19.49-7V24.94c0-4.52-10-7-19.49-7Zm0,12.44c-10.61,0-18-2.88-18-5.48s7.4-5.48,18-5.48,18,2.89,18,5.48-7.4,5.48-18,5.48Z"></path></g><path id="Shape-2" data-name="Shape" class="cls-1" d="M50,47.84a4.83,4.83,0,1,0,4.83,4.82A4.83,4.83,0,0,0,50,47.84Z"></path><path id="Shape-3" data-name="Shape" class="cls-1" d="M39.46,47.84a2.7,2.7,0,1,0,2.7,2.7A2.7,2.7,0,0,0,39.46,47.84Z"></path><path id="Shape-4" data-name="Shape" class="cls-1" d="M60.54,47.84a2.7,2.7,0,1,0,2.7,2.7A2.7,2.7,0,0,0,60.54,47.84Z"></path><path id="Path" class="cls-1" d="M74.14,46.81a.74.74,0,0,0,0,1A3,3,0,0,1,75,50a3,3,0,0,1-.89,2.14.74.74,0,0,0,0,1,.77.77,0,0,0,.53.21.73.73,0,0,0,.52-.21,4.51,4.51,0,0,0,0-6.38A.74.74,0,0,0,74.14,46.81Z"></path><path id="Path-2" data-name="Path" class="cls-1" d="M78.71,43.29a.74.74,0,0,0-1,1.05,8,8,0,0,1,0,11.33.73.73,0,0,0,0,1,.74.74,0,0,0,.53.22.7.7,0,0,0,.52-.22,9.49,9.49,0,0,0,0-13.42Z"></path><path id="Path-3" data-name="Path" class="cls-1" d="M82.37,39.62a.74.74,0,1,0-1,1.05,13.22,13.22,0,0,1,0,18.66.73.73,0,0,0,0,1,.7.7,0,0,0,.52.22.74.74,0,0,0,.53-.22A14.69,14.69,0,0,0,82.37,39.62Z"></path><path id="Path-4" data-name="Path" class="cls-1" d="M25.86,46.81a.74.74,0,0,0-1.05,0,4.51,4.51,0,0,0,0,6.38.77.77,0,0,0,.53.21.75.75,0,0,0,.52-.21.74.74,0,0,0,0-1,3,3,0,0,1,0-4.28A.74.74,0,0,0,25.86,46.81Z"></path><path id="Path-5" data-name="Path" class="cls-1" d="M22.34,43.29a.74.74,0,0,0-1.05,0,9.5,9.5,0,0,0,0,13.42.7.7,0,0,0,.52.22.79.79,0,0,0,.53-.22.74.74,0,0,0,0-1.05,8,8,0,0,1,0-11.32A.74.74,0,0,0,22.34,43.29Z"></path><path id="Path-6" data-name="Path" class="cls-1" d="M18.67,40.67a.74.74,0,1,0-1-1.05,14.67,14.67,0,0,0,0,20.75.72.72,0,0,0,1,0,.73.73,0,0,0,0-1A13.22,13.22,0,0,1,18.67,40.67Z"></path></svg> 