<?xml version="1.0" encoding="UTF-8"?> <svg xmlns="http://www.w3.org/2000/svg" width="90" height="90" viewBox="0 0 90 90"><g id="Group_778" data-name="Group 778" transform="translate(-3867 -1014)"><rect id="Rectangle_81" data-name="Rectangle 81" width="90" height="90" transform="translate(3867 1014)" fill="#bcbcbc" opacity="0"></rect><g id="Group_145" data-name="Group 145" transform="translate(-126.224 208.363)"><path id="Path_89" data-name="Path 89" d="M121.406,78.4a6.629,6.629,0,0,0-6.607,6.607v47.074a5.8,5.8,0,0,0,5.781,5.781h57.81a5.8,5.8,0,0,0,5.781-5.781V94.093a5.8,5.8,0,0,0-5.781-5.781H174.26V80.054a1.716,1.716,0,0,0-1.652-1.652Zm0,3.3h49.551v6.607H121.406a3.3,3.3,0,0,1,0-6.606Zm-3.3,9.007a6.554,6.554,0,0,0,3.3.9c18.6-.017,41,0,56.984,0a2.437,2.437,0,0,1,2.478,2.478v8.259h-23.95a4.158,4.158,0,0,0-4.129,4.129v13.214a4.158,4.158,0,0,0,4.129,4.129h23.95v8.259a2.437,2.437,0,0,1-2.478,2.478H120.58a2.437,2.437,0,0,1-2.478-2.478Zm38.815,14.942h23.95v14.865h-23.95a.791.791,0,0,1-.826-.826V106.479a.791.791,0,0,1,.826-.826Zm8.258,3.278a4.129,4.129,0,1,0,4.129,4.129A4.154,4.154,0,0,0,165.176,108.932Zm0,3.3a.826.826,0,1,1-.826.826A.8.8,0,0,1,165.176,112.235Z" transform="translate(3888.425 742.236)" fill="#1b54f8" stroke="#707070" stroke-width="0.2"></path></g></g></svg> 