<?xml version="1.0" encoding="UTF-8"?> <!-- Generator: Adobe Illustrator 25.2.3, SVG Export Plug-In . SVG Version: 6.00 Build 0) --> <svg xmlns="http://www.w3.org/2000/svg" xmlns:xlink="http://www.w3.org/1999/xlink" version="1.1" id="Layer_1" x="0px" y="0px" viewBox="0 0 94 94" style="enable-background:new 0 0 94 94;" xml:space="preserve"> <style type="text/css"> .st0{fill:#1B54F8;} </style> <path class="st0" d="M47,9.6C26.4,9.6,9.6,26.4,9.6,47S26.4,84.4,47,84.4S84.4,67.6,84.4,47S67.6,9.6,47,9.6z M55.1,29 c-2.6,0.4-5.3,0.7-8.1,0.7s-5.4-0.2-8.1-0.7c2-9.3,5.4-14.8,8.1-14.8S52.9,19.7,55.1,29z M55,15.2c5.7,1.5,10.8,4.4,14.9,8.3 c-3,1.9-6.5,3.4-10.2,4.4C58.4,23,56.9,18.6,55,15.2z M37.2,44.6c0.1-4,0.4-7.7,0.9-11c2.9,0.4,5.8,0.8,8.9,0.8s5.9-0.3,8.9-0.8 c0.4,3.3,0.8,7,0.9,11H37.2z M56.8,49.4c-0.1,4-0.4,7.7-0.9,11C53,60,50.1,59.6,47,59.6s-5.9,0.3-8.9,0.8c-0.4-3.3-0.8-7-0.9-11 H56.8z M34.4,28c-3.8-1-7.3-2.5-10.2-4.4c4-4,9.2-6.8,14.9-8.3C37.1,18.6,35.6,23,34.4,28z M33.6,32.6c-0.7,3.8-0.9,8-1,12H14.5 c0.4-6.5,2.9-12.6,6.7-17.5C24.7,29.5,28.9,31.4,33.6,32.6z M32.5,49.4c0.1,4,0.4,8.1,1,12c-4.6,1.2-8.9,3-12.6,5.5 c-3.8-4.9-6.2-11-6.6-17.5H32.5z M34.4,66c1.1,5,2.7,9.5,4.6,12.8c-5.7-1.5-10.8-4.4-14.9-8.3C27.1,68.5,30.6,67,34.4,66z M38.9,65 c2.6-0.4,5.3-0.7,8.1-0.7s5.4,0.2,8.1,0.7c-2,9.3-5.4,14.8-8.1,14.8S41.1,74.3,38.9,65z M59.6,66c3.8,1,7.3,2.5,10.2,4.5 c-4,4-9.2,6.8-14.9,8.3C56.9,75.4,58.4,71,59.6,66z M60.4,61.4c0.7-3.8,0.9-8,1-12h18.2c-0.4,6.5-2.9,12.6-6.7,17.5 C69.3,64.5,65.1,62.6,60.4,61.4z M61.5,44.6c-0.1-4-0.4-8.1-1-12c4.6-1.2,8.9-3,12.6-5.5c3.8,4.9,6.2,11,6.7,17.5H61.5z"></path> </svg> 