<?xml version="1.0" encoding="UTF-8"?> <!-- Generator: Adobe Illustrator 25.2.3, SVG Export Plug-In . SVG Version: 6.00 Build 0) --> <svg xmlns="http://www.w3.org/2000/svg" xmlns:xlink="http://www.w3.org/1999/xlink" version="1.1" id="Layer_1" x="0px" y="0px" viewBox="0 0 80 80" style="enable-background:new 0 0 80 80;" xml:space="preserve"> <style type="text/css"> .st0{fill:#1B54F8;} </style> <desc>Created with Sketch.</desc> <g id="Website-Development"> <g id="data" transform="translate(10.000000, 10.000000)"> <path id="Path" class="st0" d="M6.9,21.9c0.2,0.2,0.4,0.3,0.6,0.3c0.2,0,0.4-0.1,0.6-0.3c0.3-0.3,0.3-0.9,0-1.2L6,18.5l2.1-2.1 c0.3-0.3,0.3-0.9,0-1.2c-0.3-0.3-0.9-0.3-1.2,0l-2.8,2.8c-0.2,0.2-0.3,0.4-0.3,0.6c0,0.2,0.1,0.5,0.3,0.6L6.9,21.9z"></path> <path id="Path_1_" class="st0" d="M15.6,18.5l-2.1,2.1c-0.3,0.3-0.3,0.9,0,1.2c0.2,0.2,0.4,0.3,0.6,0.3s0.4-0.1,0.6-0.3l2.8-2.8 c0.3-0.3,0.3-0.9,0-1.2l-2.8-2.8c-0.3-0.3-0.9-0.3-1.2,0c-0.3,0.3-0.3,0.9,0,1.2L15.6,18.5z"></path> <path id="Path_2_" class="st0" d="M9.5,22.1c0.1,0,0.2,0.1,0.3,0.1c0.4,0,0.7-0.2,0.8-0.6l2.2-5.5c0.2-0.5,0-1-0.5-1.1 c-0.5-0.2-1,0-1.1,0.5L9,21C8.8,21.4,9.1,21.9,9.5,22.1z"></path> <path id="Path_3_" class="st0" d="M5.3,27.3h5.9c0.5,0,0.9-0.4,0.9-0.9c0-0.5-0.4-0.9-0.9-0.9H5.3c-0.5,0-0.9,0.4-0.9,0.9 C4.4,26.9,4.8,27.3,5.3,27.3z"></path> <path id="Path_4_" class="st0" d="M24.8,25.6H14.4c-0.5,0-0.9,0.4-0.9,0.9c0,0.5,0.4,0.9,0.9,0.9h10.4c0.5,0,0.9-0.4,0.9-0.9 C25.7,26,25.3,25.6,24.8,25.6z"></path> <path id="Path_5_" class="st0" d="M5.3,31h2.5c0.5,0,0.9-0.4,0.9-0.9c0-0.5-0.4-0.9-0.9-0.9H5.3c-0.5,0-0.9,0.4-0.9,0.9 C4.4,30.6,4.8,31,5.3,31z"></path> <path id="Path_6_" class="st0" d="M21.6,29.3c-0.5,0-0.9,0.4-0.9,0.9c0,0.5,0.4,0.9,0.9,0.9h1.5c0.5,0,0.9-0.4,0.9-0.9 c0-0.5-0.4-0.9-0.9-0.9H21.6z"></path> <path id="Path_7_" class="st0" d="M19.3,30.2c0-0.5-0.4-0.9-0.9-0.9h-7.5c-0.5,0-0.9,0.4-0.9,0.9c0,0.5,0.4,0.9,0.9,0.9h7.5 C18.9,31,19.3,30.6,19.3,30.2z"></path> <path id="Path_8_" class="st0" d="M25,30.2c0,0.5,0.4,0.9,0.9,0.9h2.9c0.5,0,0.9-0.4,0.9-0.9c0-0.5-0.4-0.9-0.9-0.9h-2.9 C25.4,29.3,25,29.7,25,30.2z"></path> <path id="Path_9_" class="st0" d="M20.3,19.2h3c0.5,0,0.9-0.4,0.9-0.9c0-0.5-0.4-0.9-0.9-0.9h-3c-0.5,0-0.9,0.4-0.9,0.9 C19.4,18.9,19.8,19.2,20.3,19.2z"></path> <path id="Path_10_" class="st0" d="M26.7,19.2h18.5c0.5,0,0.9-0.4,0.9-0.9c0-0.5-0.4-0.9-0.9-0.9H26.7c-0.5,0-0.9,0.4-0.9,0.9 C25.8,18.9,26.2,19.2,26.7,19.2z"></path> <path id="Path_11_" class="st0" d="M42.4,21.4h-7.5c-0.5,0-0.9,0.4-0.9,0.9c0,0.5,0.4,0.9,0.9,0.9h7.5c0.5,0,0.9-0.4,0.9-0.9 C43.3,21.8,42.9,21.4,42.4,21.4z"></path> <path id="Path_12_" class="st0" d="M32.1,21.4h-2.6c-0.5,0-0.9,0.4-0.9,0.9c0,0.5,0.4,0.9,0.9,0.9h2.6c0.5,0,0.9-0.4,0.9-0.9 C33,21.8,32.6,21.4,32.1,21.4z"></path> <path id="Path_13_" class="st0" d="M20.3,23.1h6.3c0.5,0,0.9-0.4,0.9-0.9c0-0.5-0.4-0.9-0.9-0.9h-6.3c-0.5,0-0.9,0.4-0.9,0.9 C19.4,22.7,19.8,23.1,20.3,23.1z"></path> <path id="Path_14_" class="st0" d="M18.4,32.9h-5.9c-0.5,0-0.9,0.4-0.9,0.9c0,0.5,0.4,0.9,0.9,0.9h5.9c0.5,0,0.9-0.4,0.9-0.9 C19.3,33.3,18.9,32.9,18.4,32.9z"></path> <path id="Path_15_" class="st0" d="M9.8,32.9H5.3c-0.5,0-0.9,0.4-0.9,0.9c0,0.5,0.4,0.9,0.9,0.9h4.5c0.5,0,0.9-0.4,0.9-0.9 C10.7,33.3,10.3,32.9,9.8,32.9z"></path> <path id="Path_16_" class="st0" d="M29.1,32.9h-7.7c-0.5,0-0.9,0.4-0.9,0.9c0,0.5,0.4,0.9,0.9,0.9h7.7c0.5,0,0.9-0.4,0.9-0.9 C30,33.3,29.6,32.9,29.1,32.9L29.1,32.9z"></path> <path id="Path_17_" class="st0" d="M39.6,28.4h-4.2c-0.5,0-0.9,0.4-0.9,0.9c0,0.5,0.4,0.9,0.9,0.9h4.2c0.5,0,0.9-0.4,0.9-0.9 C40.5,28.8,40.1,28.4,39.6,28.4L39.6,28.4z"></path> <path id="Path_18_" class="st0" d="M46.9,30.2h6c0.5,0,0.9-0.4,0.9-0.9c0-0.5-0.4-0.9-0.9-0.9h-6c-0.5,0-0.9,0.4-0.9,0.9 C46.1,29.8,46.4,30.2,46.9,30.2z"></path> <path id="Path_19_" class="st0" d="M43.9,28.4h-1.4c-0.5,0-0.9,0.4-0.9,0.9c0,0.5,0.4,0.9,0.9,0.9h1.4c0.5,0,0.9-0.4,0.9-0.9 C44.8,28.8,44.4,28.4,43.9,28.4z"></path> <path id="Path_20_" class="st0" d="M35.4,39.8h4.2c0.5,0,0.9-0.4,0.9-0.9c0-0.5-0.4-0.9-0.9-0.9h-4.2c-0.5,0-0.9,0.4-0.9,0.9 C34.5,39.4,34.9,39.8,35.4,39.8L35.4,39.8z"></path> <path id="Path_21_" class="st0" d="M46.9,39.8h6c0.5,0,0.9-0.4,0.9-0.9c0-0.5-0.4-0.9-0.9-0.9h-6c-0.5,0-0.9,0.4-0.9,0.9 C46.1,39.4,46.4,39.8,46.9,39.8z"></path> <path id="Path_22_" class="st0" d="M42.6,39.8h1.4c0.5,0,0.9-0.4,0.9-0.9c0-0.5-0.4-0.9-0.9-0.9h-1.4c-0.5,0-0.9,0.4-0.9,0.9 C41.7,39.4,42.1,39.8,42.6,39.8z"></path> <path id="Path_23_" class="st0" d="M39.6,47.6h-4.2c-0.5,0-0.9,0.4-0.9,0.9c0,0.5,0.4,0.9,0.9,0.9h4.2c0.5,0,0.9-0.4,0.9-0.9 C40.5,48,40.1,47.6,39.6,47.6L39.6,47.6z"></path> <path id="Path_24_" class="st0" d="M52.9,47.6h-6c-0.5,0-0.9,0.4-0.9,0.9c0,0.5,0.4,0.9,0.9,0.9h6c0.5,0,0.9-0.4,0.9-0.9 C53.8,48,53.4,47.6,52.9,47.6L52.9,47.6z"></path> <path id="Path_25_" class="st0" d="M43.9,47.6h-1.4c-0.5,0-0.9,0.4-0.9,0.9c0,0.5,0.4,0.9,0.9,0.9h1.4c0.5,0,0.9-0.4,0.9-0.9 C44.8,48,44.4,47.6,43.9,47.6z"></path> <path id="Shape" class="st0" d="M56.1,0.1H3.9C1.7,0.1,0,1.8,0,3.9v42.5c0,2.1,1.7,3.9,3.9,3.9h3.3c0.5,0,0.9-0.4,0.9-0.9 c0-0.5-0.4-0.9-0.9-0.9H3.9c-1.2,0-2.1-0.9-2.1-2.1v-3.3h32v1.5h-0.7c-1,0-1.7,0.8-1.7,1.7v2.2H12.5c-0.5,0-0.9,0.4-0.9,0.9 c0,0.5,0.4,0.9,0.9,0.9H21v3.1h-2.7c-1.8,0-3.2,1.4-3.2,3.2v1.9c0,0.8,0.7,1.5,1.5,1.5h26.8c0.8,0,1.5-0.7,1.5-1.5v-1.9 c0-1.8-1.4-3.2-3.2-3.2H39v-1.1h16.2c1,0,1.7-0.8,1.7-1.7v-0.4c1.7-0.4,3-1.9,3-3.8L60,3.9C60,1.8,58.3,0.1,56.1,0.1L56.1,0.1z M33.1,41v-4.2h22.1V41H33.1z M35.5,35v-1.8h17.3V35H35.5z M52.8,42.7v1.8H35.5v-1.8H52.8z M22.7,50.3h8.6v0.3 c0,1,0.8,1.7,1.7,1.7h4.2v1.1H22.7V50.3z M41.6,55.2c0.8,0,1.5,0.7,1.5,1.5v1.6H16.8v-1.6c0-0.8,0.7-1.5,1.5-1.5H41.6z M55.2,50.6 H33.1v-4.2h22.1V50.6z M58.2,46.4c0,0.9-0.5,1.6-1.2,1.9v-2c0-1-0.8-1.7-1.7-1.7h-0.7v-1.5h3.7V46.4z M58.2,41.3h-1.3 c0-0.1,0-4.6,0-4.6c0-1-0.8-1.7-1.7-1.7h-0.7v-1.8h0.7c1,0,1.7-0.8,1.7-1.7v-4.3c0-1-0.8-1.7-1.7-1.7h-5c-0.5,0-0.9,0.4-0.9,0.9 c0,0.5,0.4,0.9,0.9,0.9h4.9v4.2H33.1v-4.2h11.7c0.5,0,0.9-0.4,0.9-0.9c0-0.5-0.4-0.9-0.9-0.9H33.1c-1,0-1.7,0.8-1.7,1.7v4.3 c0,1,0.8,1.7,1.7,1.7h0.7V35h-0.7c-1,0-1.7,0.8-1.7,1.7c0,0,0,4.5,0,4.6H1.8V12h56.4V41.3z M58.2,10.2H1.8V3.9 c0-1.2,0.9-2.1,2.1-2.1h52.1c1.2,0,2.1,0.9,2.1,2.1V10.2z"></path> <path id="Shape_1_" class="st0" d="M6.5,3.4C5.1,3.4,3.9,4.6,3.9,6s1.2,2.6,2.6,2.6S9.1,7.4,9.1,6S7.9,3.4,6.5,3.4z M6.5,6.8 C6,6.8,5.7,6.5,5.7,6c0-0.5,0.4-0.8,0.8-0.8c0.5,0,0.8,0.4,0.8,0.8C7.3,6.5,6.9,6.8,6.5,6.8z"></path> <path id="Shape_2_" class="st0" d="M13,3.4c-1.4,0-2.6,1.2-2.6,2.6s1.2,2.6,2.6,2.6s2.6-1.2,2.6-2.6S14.5,3.4,13,3.4z M13,6.8 c-0.5,0-0.8-0.4-0.8-0.8c0-0.5,0.4-0.8,0.8-0.8c0.5,0,0.8,0.4,0.8,0.8C13.9,6.5,13.5,6.8,13,6.8z"></path> <path id="Shape_3_" class="st0" d="M19.6,3.4C18.2,3.4,17,4.6,17,6s1.2,2.6,2.6,2.6s2.6-1.2,2.6-2.6S21,3.4,19.6,3.4z M19.6,6.8 c-0.5,0-0.8-0.4-0.8-0.8c0-0.5,0.4-0.8,0.8-0.8c0.5,0,0.8,0.4,0.8,0.8C20.4,6.5,20.1,6.8,19.6,6.8z"></path> </g> </g> </svg> 