<?xml version="1.0" encoding="UTF-8"?> <svg xmlns="http://www.w3.org/2000/svg" xmlns:xlink="http://www.w3.org/1999/xlink" width="60" height="60" viewBox="0 0 60 60"><defs><clipPath id="clip-path"><rect id="Rectangle_13" data-name="Rectangle 13" width="60" height="60" transform="translate(180 173)" fill="#fff" stroke="#707070" stroke-width="1"></rect></clipPath></defs><g id="Mask_Group_8" data-name="Mask Group 8" transform="translate(-180 -173)" clip-path="url(#clip-path)"><g id="Group_14" data-name="Group 14" transform="translate(-55 48.202)"><g id="Group_13" data-name="Group 13" transform="translate(244 133.798)"><path id="Path_24" data-name="Path 24" d="M48.237,18.279l.511-1.022-2.582-2.582-1.021.511c-.082-.036-.164-.07-.246-.1L44.537,14H40.886l-.361,1.083c-.082.032-.164.066-.246.1l-1.021-.511-2.582,2.582.511,1.022c-.036.081-.07.163-.1.245L36,18.885v3.652l1.083.361c.032.082.066.164.1.245l-.511,1.021,2.582,2.583,1.021-.511c.082.036.164.07.246.1l.361,1.085h3.652l.361-1.083c.082-.032.164-.066.246-.1l1.021.511,2.582-2.583-.511-1.021c.036-.081.07-.163.1-.245l1.084-.362V18.886l-1.083-.361C48.307,18.442,48.274,18.36,48.237,18.279ZM48.08,21.57l-.8.266-.1.323a4.649,4.649,0,0,1-.287.687l-.154.3.377.753L45.9,25.115l-.754-.378-.3.155a4.7,4.7,0,0,1-.687.287l-.322.1-.266.8H41.852l-.265-.8-.322-.1a4.629,4.629,0,0,1-.687-.287l-.3-.155-.754.378L38.308,23.9l.376-.753-.154-.3a4.71,4.71,0,0,1-.287-.687l-.1-.323-.8-.266V19.852l.8-.266.1-.323a4.649,4.649,0,0,1,.287-.687l.154-.3-.377-.754,1.214-1.214.754.378.3-.155a4.7,4.7,0,0,1,.687-.287l.322-.1.266-.8H43.57l.265.8.322.1a4.629,4.629,0,0,1,.687.287l.3.155.754-.378,1.214,1.214-.377.754.154.3a4.71,4.71,0,0,1,.287.687l.1.323.8.266Z" transform="translate(-11.839 -4.604)" fill="#1c54f8" stroke="#fff" stroke-width="0.2"></path><path id="Path_25" data-name="Path 25" d="M44.356,19a3.356,3.356,0,1,0,3.356,3.356A3.359,3.359,0,0,0,44.356,19Zm0,5.369a2.013,2.013,0,1,1,2.013-2.013A2.016,2.016,0,0,1,44.356,24.369Z" transform="translate(-13.484 -6.249)" fill="#1c54f8" stroke="#fff" stroke-width="0.2"></path><path id="Path_26" data-name="Path 26" d="M39.6,0H22.147a2.016,2.016,0,0,0-2.013,2.013v4.7H14.695a3.36,3.36,0,0,0-3.068-2.677,4.692,4.692,0,0,0-8.488,0,3.355,3.355,0,0,0,.217,6.7H6.711v2.685H3.356A3.359,3.359,0,0,0,0,16.778V34.227a3.359,3.359,0,0,0,3.356,3.356h7.382v2.685H8.054V41.61H28.187V40.268H25.5V37.583h7.382a3.359,3.359,0,0,0,3.356-3.356V26.845H39.6a2.016,2.016,0,0,0,2.013-2.013V2.013A2.016,2.016,0,0,0,39.6,0ZM22.147,1.342H39.6a.672.672,0,0,1,.671.671V5.369H21.476V2.013A.672.672,0,0,1,22.147,1.342Zm-20.8,6.04A2.017,2.017,0,0,1,3.393,5.376h.013l.638.059.171-.493a3.351,3.351,0,0,1,6.334,0l.171.493.689-.065a2.013,2.013,0,1,1,0,4.027H3.356A2.016,2.016,0,0,1,1.342,7.382Zm6.711,3.356h3.356A3.362,3.362,0,0,0,14.7,8.054h5.437v5.369H8.054Zm16.107,29.53H12.08V37.583h12.08Zm8.725-4.027H3.356a2.016,2.016,0,0,1-2.013-2.013V32.214H34.9v2.013A2.016,2.016,0,0,1,32.885,36.241ZM34.9,30.872H1.342V16.778a2.016,2.016,0,0,1,2.013-2.013H20.134V24.832a2.016,2.016,0,0,0,2.013,2.013H34.9ZM39.6,25.5H22.147a.672.672,0,0,1-.671-.671V6.711H40.268v18.12A.672.672,0,0,1,39.6,25.5Z" fill="#1c54f8" stroke="#fff" stroke-width="0.2"></path><rect id="Rectangle_33" data-name="Rectangle 33" width="0.974" height="0.974" transform="translate(28.24 3.118)" fill="#1c54f8" stroke="#fff" stroke-width="0.2"></rect><rect id="Rectangle_34" data-name="Rectangle 34" width="1.948" height="0.974" transform="translate(22.398 3.118)" fill="#1c54f8" stroke="#fff" stroke-width="0.2"></rect><rect id="Rectangle_35" data-name="Rectangle 35" width="1.948" height="0.974" transform="translate(25.319 3.118)" fill="#1c54f8" stroke="#fff" stroke-width="0.2"></rect><ellipse id="Ellipse_1" data-name="Ellipse 1" cx="0.487" cy="0.974" rx="0.487" ry="0.974" transform="translate(27.267 33.306)" fill="#1c54f8" stroke="#fff" stroke-width="0.2"></ellipse><circle id="Ellipse_2" data-name="Ellipse 2" cx="0.974" cy="0.974" r="0.974" transform="translate(29.214 33.306)" fill="#1c54f8" stroke="#fff" stroke-width="0.2"></circle><ellipse id="Ellipse_3" data-name="Ellipse 3" cx="0.487" cy="0.974" rx="0.487" ry="0.974" transform="translate(32.136 33.306)" fill="#1c54f8" stroke="#fff" stroke-width="0.2"></ellipse><rect id="Rectangle_38" data-name="Rectangle 38" width="15.581" height="0.974" transform="translate(2.921 17.725)" fill="#1c54f8" stroke="#fff" stroke-width="0.2"></rect><rect id="Rectangle_46" data-name="Rectangle 46" width="15.581" height="0.974" transform="translate(2.921 21.62)" fill="#1c54f8" stroke="#fff" stroke-width="0.2"></rect><rect id="Rectangle_47" data-name="Rectangle 47" width="15.581" height="0.974" transform="translate(2.921 24.542)" fill="#1c54f8" stroke="#fff" stroke-width="0.2"></rect><rect id="Rectangle_39" data-name="Rectangle 39" width="4.869" height="0.974" transform="translate(2.921 28.437)" fill="#1c54f8" stroke="#fff" stroke-width="0.2"></rect><rect id="Rectangle_40" data-name="Rectangle 40" width="0.974" height="0.974" transform="translate(9.738 28.437)" fill="#1c54f8" stroke="#fff" stroke-width="0.2"></rect><rect id="Rectangle_41" data-name="Rectangle 41" width="6.817" height="0.974" transform="translate(11.686 28.437)" fill="#1c54f8" stroke="#fff" stroke-width="0.2"></rect><rect id="Rectangle_42" data-name="Rectangle 42" width="0.974" height="0.974" transform="translate(32.136 28.437)" fill="#1c54f8" stroke="#fff" stroke-width="0.2"></rect><rect id="Rectangle_43" data-name="Rectangle 43" width="0.974" height="0.974" transform="translate(24.345 28.437)" fill="#1c54f8" stroke="#fff" stroke-width="0.2"></rect><rect id="Rectangle_44" data-name="Rectangle 44" width="1.948" height="0.974" transform="translate(29.214 28.437)" fill="#1c54f8" stroke="#fff" stroke-width="0.2"></rect><rect id="Rectangle_45" data-name="Rectangle 45" width="0.974" height="0.974" transform="translate(27.267 28.437)" fill="#1c54f8" stroke="#fff" stroke-width="0.2"></rect></g></g></g></svg> 