<?xml version="1.0" encoding="UTF-8"?> <svg xmlns="http://www.w3.org/2000/svg" width="90" height="90" viewBox="0 0 90 90" fill="none"><mask id="mask0_2_272" style="mask-type:luminance" maskUnits="userSpaceOnUse" x="0" y="0" width="90" height="90"><path d="M90 0H0V90H90V0Z" fill="white"></path></mask><g mask="url(#mask0_2_272)"><path d="M46.95 12C32.1 11.4 19.95 23.25 19.95 37.8C19.95 45.6 23.4 52.8 29.25 57.75C39.75 66.45 36.15 75.45 36.9 81C36.9 83.1 38.55 84.9 40.8 84.9H41.4C41.4 87.3 43.35 89.4 45.9 89.4C48.45 89.4 50.4 87.45 50.4 84.9H51C53.1 84.9 54.9 83.25 54.9 81C55.65 75.3 52.05 66.75 62.7 57.6C80.85 42.45 70.35 13.05 46.95 12ZM45.9 86.7C45 86.7 44.1 85.8 44.1 84.9H47.7C47.7 85.95 46.95 86.7 45.9 86.7ZM50.85 82.35H40.8C40.05 82.35 39.6 81.75 39.6 81.15V74.55H52.05V81.15C52.2 81.9 51.6 82.35 50.85 82.35ZM60.9 55.65C55.35 60.3 52.5 65.55 52.2 71.85H39.75C39.3 65.7 36.6 60.3 31.2 55.8C25.95 51.3 22.8 44.85 22.8 37.8C22.8 24.45 33.9 13.95 46.95 14.55C67.8 15.6 77.25 42 60.9 55.65Z" fill="#1B54F8"></path><path d="M81.9 36.45H77.85C77.1 36.45 76.5 37.05 76.5 37.8C76.5 38.7 77.1 39.15 77.85 39.15H81.75C82.5 39.15 83.1 38.55 83.1 37.8C83.1 36.9 82.65 36.45 81.9 36.45Z" fill="#1B54F8"></path><path d="M75.9 26.7L79.5 25.2C80.25 24.9 80.4 24.15 80.25 23.55C80.1 22.95 79.35 22.5 78.6 22.65L75 24.15C74.25 24.45 74.1 25.2 74.25 25.8C74.55 26.7 75.45 27 75.9 26.7Z" fill="#1B54F8"></path><path d="M70.3501 11.4L67.5 14.25C66.9 14.85 66.9 15.6 67.5 16.05C68.1 16.65 68.85 16.65 69.3 16.05L72.15 13.2C72.75 12.6 72.75 11.85 72.15 11.4C71.55 10.95 70.9501 10.8 70.3501 11.4Z" fill="#1B54F8"></path><path d="M57.75 9.30002C58.5 9.60002 59.1 9.30002 59.4 8.55002L60.9 4.95003C61.2 4.20003 60.9 3.60002 60.15 3.30002C59.4 3.00002 58.8 3.30002 58.5 4.05002L57 7.65003C56.55 8.25003 57 9.00002 57.75 9.30002Z" fill="#1B54F8"></path><path d="M45.9 6.90002C46.65 6.90002 47.25 6.3 47.25 5.55V1.8C47.25 1.05 46.65 0.450012 45.9 0.450012C45 0.450012 44.55 1.05 44.55 1.8V5.70001C44.55 6.30001 45.15 6.90002 45.9 6.90002Z" fill="#1B54F8"></path><path d="M32.4 8.55001C32.7 9.30001 33.45 9.45001 34.05 9.30001C34.8 9.00001 34.95 8.25003 34.8 7.65003L33.45 4.05001C33.15 3.30001 32.4 3.15001 31.8 3.30001C31.05 3.60001 30.9 4.35002 31.05 4.95002L32.4 8.55001Z" fill="#1B54F8"></path><path d="M22.2 15.8999C22.8 16.4999 23.55 16.4999 24 15.8999C24.6 15.2999 24.6 14.5499 24 14.0999L21.15 11.2499C20.55 10.6499 19.8 10.6499 19.35 11.2499C18.75 11.8499 18.75 12.5999 19.35 13.0499L22.2 15.8999Z" fill="#1B54F8"></path><path d="M16.8 24.1499L13.2 22.6499C12.45 22.3499 11.85 22.6499 11.55 23.3999C11.25 24.1499 11.55 24.7499 12.3 25.0499L15.9 26.5499C16.65 26.8499 17.25 26.5499 17.55 25.7999C17.85 25.1999 17.55 24.4499 16.8 24.1499Z" fill="#1B54F8"></path><path d="M15.15 37.6499C15.15 36.8999 14.55 36.2999 13.8 36.2999H9.89999C9.14999 36.2999 8.55 36.8999 8.55 37.6499C8.55 38.5499 9.14999 38.9999 9.89999 38.9999H13.95C14.55 38.9999 15.15 38.3999 15.15 37.6499Z" fill="#1B54F8"></path><path d="M15.9 48.75L12.3 50.25C11.55 50.4 11.25 51.15 11.4 51.9C11.7 52.65 12.45 52.8 13.05 52.65L16.65 51.15C17.4 50.85 17.55 50.1 17.4 49.5C17.25 48.75 16.5 48.45 15.9 48.75Z" fill="#1B54F8"></path><path d="M22.2 59.4L19.35 62.25C18.75 62.85 18.75 63.6 19.35 64.05C19.95 64.65 20.7 64.65 21.15 64.05L24 61.2C24.6 60.6 24.6 59.85 24 59.4C23.7 58.95 22.8 58.95 22.2 59.4Z" fill="#1B54F8"></path><path d="M69.6001 59.4C69.0001 58.8 68.25 58.8 67.8 59.4C67.2 60 67.2 60.75 67.8 61.2L70.65 64.05C71.25 64.65 72 64.65 72.45 64.05C73.05 63.45 73.05 62.7 72.45 62.25L69.6001 59.4Z" fill="#1B54F8"></path><path d="M79.65 50.1L76.05 48.6C75.3 48.3 74.7 48.6 74.4 49.35C74.1 50.1 74.4 50.7 75.15 51L78.75 52.5C79.5 52.8 80.1 52.5 80.4 51.75C80.7 51.3 80.25 50.4 79.65 50.1Z" fill="#1B54F8"></path><path d="M63.45 35.55L59.25 33.75C58.95 33 58.65 32.25 58.35 31.5L60 27.15C60.15 26.55 60.15 26.1 59.7 25.8L58.05 24.15C57.6 23.7 57.15 23.7 56.7 23.85L52.35 25.5C51.6 25.05 51 24.75 50.1 24.6L48.3 20.4C48 19.95 47.55 19.5 47.1 19.5H44.85C44.25 19.5 43.95 19.8 43.65 20.4L41.85 24.6C41.1 24.9 40.35 25.2 39.6 25.5L35.1 24C34.65 23.85 34.05 23.85 33.75 24.3L32.1 25.95C31.65 26.4 31.5 26.85 31.8 27.3L33.45 31.65C33 32.4 32.7 33 32.55 33.9L28.35 35.7C27.9 36 27.45 36.45 27.45 36.9V39.15C27.45 39.75 27.75 40.05 28.35 40.35L32.55 42.15C32.85 42.9 33.15 43.65 33.45 44.4L31.8 48.75C31.65 49.35 31.65 49.8 32.1 50.1L33.75 51.75C34.2 52.2 34.65 52.35 35.1 52.05L39.45 50.4C40.2 50.85 40.8 51.15 41.7 51.3L43.5 55.5C43.8 55.95 44.25 56.4 44.7 56.4H46.95C47.55 56.4 47.85 56.1 48.15 55.5L49.95 51.3C50.7 51 51.45 50.7 52.2 50.4L56.55 52.05C57.15 52.2 57.6 52.2 57.9 51.75L59.55 50.1C60 49.65 60.15 49.2 59.85 48.75L58.2 44.4C58.65 43.65 58.95 43.05 59.1 42.15L63.3 40.35C63.75 40.05 64.2 39.6 64.2 39.15V36.9C64.05 36.3 63.9 35.85 63.45 35.55ZM61.5 38.25L57.45 40.05C57 40.2 56.7 40.65 56.7 40.95C56.4 41.85 56.1 42.75 55.65 43.8C55.5 44.1 55.35 44.7 55.5 44.85L57 48.9L56.55 49.2L52.65 47.7C52.2 47.55 51.75 47.55 51.6 47.85C50.7 48.45 49.8 48.75 48.75 48.9C48.3 49.05 48 49.35 47.85 49.65L46.05 53.7H45.45L43.65 49.65C43.5 49.2 43.05 48.9 42.75 48.9C41.85 48.6 40.95 48.3 39.9 47.85C39.6 47.7 39 47.55 38.85 47.7L34.8 49.2L34.35 48.75L35.85 44.7C36 44.25 36 43.8 35.7 43.65C35.1 42.75 34.8 41.85 34.65 40.8C34.5 40.35 34.2 40.05 33.9 39.9L29.85 38.1V37.5L33.9 35.7C34.35 35.55 34.65 35.1 34.65 34.8C34.95 33.9 35.25 33 35.7 31.95C35.85 31.65 36 31.05 35.85 30.9L34.35 26.85L34.8 26.4L38.85 27.9C39.3 28.05 39.75 28.05 39.9 27.75C40.8 27.15 41.7 26.85 42.75 26.7C43.2 26.55 43.5 26.25 43.65 25.95L45.45 21.9H46.05L47.85 25.95C48 26.4 48.45 26.7 48.75 26.7C49.65 27 50.55 27.3 51.6 27.75C51.9 27.9 52.5 28.05 52.65 27.9L56.7 26.4L57.15 26.85L55.65 30.9C55.5 31.35 55.5 31.8 55.8 31.95C56.4 32.85 56.7 33.75 56.85 34.8C57 35.25 57.3 35.55 57.6 35.7L61.65 37.5L61.5 38.25Z" fill="#1B54F8"></path><path d="M45.9 31.65C42.45 31.65 39.6 34.5 39.6 37.95C39.6 41.4 42.45 44.25 45.9 44.25C49.35 44.25 52.2 41.4 52.2 37.95C52.2 34.5 49.35 31.65 45.9 31.65ZM45.9 41.7C43.8 41.7 42.3 40.05 42.3 38.1C42.3 36 43.95 34.5 45.9 34.5C48 34.5 49.5 36.15 49.5 38.1C49.5 40.05 48 41.7 45.9 41.7Z" fill="#1B54F8"></path></g></svg> 