<?xml version="1.0" encoding="UTF-8"?> <svg xmlns="http://www.w3.org/2000/svg" width="90" height="90" viewBox="0 0 90 90" fill="none"><mask id="mask0_2_350" style="mask-type:luminance" maskUnits="userSpaceOnUse" x="0" y="0" width="90" height="90"><path d="M90 0H0V90H90V0Z" fill="white"></path></mask><g mask="url(#mask0_2_350)"><path d="M45.75 -0.149963C52.2 -0.149963 57.3 5.10006 57.3 11.4001C57.3 12.6001 57.15 13.8 56.85 14.85L70.05 21.4501C72.15 18.6001 75.6 16.6501 79.35 16.6501C85.8 16.6501 90.9 21.9001 90.9 28.2001C90.9 34.6501 85.65 39.75 79.35 39.75C75.45 39.75 72.15 37.8001 70.05 34.9501L56.85 41.55C57.15 42.6 57.3 43.8 57.3 45C57.3 46.2 57.15 47.4001 56.85 48.4501L70.05 55.05C72.15 52.2 75.6 50.25 79.35 50.25C85.8 50.25 90.9 55.5 90.9 61.8C90.9 68.1 85.65 73.35 79.35 73.35C75.45 73.35 72.15 71.4 70.05 68.55L56.85 75.1501C57.15 76.2001 57.3 77.4 57.3 78.6C57.3 85.05 52.05 90.1501 45.75 90.1501C39.3 90.1501 34.2 84.9 34.2 78.6C34.2 77.4 34.35 76.2001 34.65 75.1501L21.45 68.55C19.35 71.4 15.9 73.35 12.15 73.35C5.70001 73.35 0.599991 68.1 0.599991 61.8C0.599991 55.5 5.85001 50.25 12.15 50.25C13.8 50.25 15.45 50.55 16.95 51.3L21.15 45L16.95 38.7001C15.45 39.3001 13.95 39.75 12.15 39.75C5.70001 39.75 0.599991 34.5001 0.599991 28.2001C0.599991 21.7501 5.85001 16.6501 12.15 16.6501C16.05 16.6501 19.35 18.6001 21.45 21.4501L34.65 14.85C34.35 13.8 34.2 12.6001 34.2 11.4001C34.05 5.10006 39.3 -0.149963 45.75 -0.149963ZM45.75 71.4001C41.7 71.4001 38.4 74.7 38.4 78.75C38.4 82.8 41.7 86.1 45.75 86.1C49.8 86.1 53.1 82.8 53.1 78.75C53.1 74.7 49.8 71.4001 45.75 71.4001ZM45.75 75.6C47.55 75.6 48.9 76.95 48.9 78.75C48.9 80.55 47.55 81.9001 45.75 81.9001C43.95 81.9001 42.6 80.55 42.6 78.75C42.6 77.1 43.95 75.6 45.75 75.6ZM45.75 56.7001C41.85 56.7001 38.55 54.7501 36.45 51.9001L31.8 54.3L41.1 68.25C42.6 67.65 44.1 67.2001 45.9 67.2001C49.8 67.2001 53.1 69.15 55.35 72L68.55 65.4001C68.25 64.3501 68.1 63.1501 68.1 61.9501C68.1 60.7501 68.25 59.55 68.55 58.5L55.35 51.9001C52.95 54.9001 49.5 56.7001 45.75 56.7001ZM28.2 55.9501L23.1 58.5C23.4 59.55 23.55 60.7501 23.55 61.9501C23.55 63.1501 23.4 64.3501 23.1 65.4001L36.3 72C36.75 71.4 37.2 70.8 37.8 70.35L28.2 55.9501ZM79.35 54.6C75.3 54.6 72 57.9001 72 61.9501C72 66.0001 75.3 69.3 79.35 69.3C83.4 69.3 86.7 66.0001 86.7 61.9501C86.7 57.9001 83.4 54.6 79.35 54.6ZM12 54.6C7.94995 54.6 4.65001 57.9001 4.65001 61.9501C4.65001 66.0001 7.94995 69.3 12 69.3C16.05 69.3 19.35 66.0001 19.35 61.9501C19.35 57.9001 16.05 54.6 12 54.6ZM79.35 58.8C81.15 58.8 82.5 60.1501 82.5 61.9501C82.5 63.7501 81.15 65.1 79.35 65.1C77.55 65.1 76.2 63.7501 76.2 61.9501C76.2 60.1501 77.7 58.8 79.35 58.8ZM12 58.8C13.8 58.8 15.15 60.1501 15.15 61.9501C15.15 63.7501 13.8 65.1 12 65.1C10.2 65.1 8.84999 63.7501 8.84999 61.9501C8.84999 60.1501 10.2 58.8 12 58.8ZM23.25 48.6L19.95 53.55C20.55 54 21 54.6001 21.45 55.2001L26.1 52.8L23.25 48.6ZM45.75 37.8C41.7 37.8 38.4 41.1001 38.4 45.1501C38.4 49.2001 41.7 52.5 45.75 52.5C49.8 52.5 53.1 49.2001 53.1 45.1501C53.1 41.1001 49.8 37.8 45.75 37.8ZM29.55 39.1501L25.5 45.1501L29.55 51.1501L34.65 48.6C34.35 47.55 34.2 46.3501 34.2 45.1501C34.2 43.9501 34.35 42.7501 34.65 41.7001L29.55 39.1501ZM45.75 42C47.55 42 48.9 43.3501 48.9 45.1501C48.9 46.9501 47.55 48.3 45.75 48.3C43.95 48.3 42.6 46.9501 42.6 45.1501C42.6 43.3501 43.95 42 45.75 42ZM19.95 36.75L23.25 41.7001L26.1 37.5L21.45 35.1C21 35.7 20.4 36.3 19.95 36.75ZM45.75 22.9501C44.1 22.9501 42.45 22.6501 40.95 21.9001L31.65 35.85L36.3 38.25C38.4 35.4 41.85 33.4501 45.6 33.4501C49.5 33.4501 52.8 35.4 55.05 38.25L68.25 31.6501C67.95 30.6001 67.8 29.4001 67.8 28.2001C67.8 27.0001 67.95 25.8 68.25 24.75L55.05 18.1501C52.95 21.1501 49.5 22.9501 45.75 22.9501ZM12 20.85C7.94995 20.85 4.65001 24.1501 4.65001 28.2001C4.65001 32.2501 7.94995 35.55 12 35.55C16.05 35.55 19.35 32.2501 19.35 28.2001C19.35 24.1501 16.05 20.85 12 20.85ZM79.35 20.85C75.3 20.85 72 24.1501 72 28.2001C72 32.2501 75.3 35.55 79.35 35.55C83.4 35.55 86.7 32.2501 86.7 28.2001C86.7 24.1501 83.4 20.85 79.35 20.85ZM36.3 18.3L23.1 24.9001C23.4 25.9501 23.55 27.15 23.55 28.35C23.55 29.55 23.4 30.75 23.1 31.8L28.2 34.35L37.8 19.9501C37.2 19.3501 36.75 18.9 36.3 18.3ZM79.35 25.05C81.15 25.05 82.5 26.4001 82.5 28.2001C82.5 30.0001 81.15 31.35 79.35 31.35C77.55 31.35 76.2 30.0001 76.2 28.2001C76.2 26.5501 77.7 25.05 79.35 25.05ZM12 25.05C13.8 25.05 15.15 26.4001 15.15 28.2001C15.15 30.0001 13.8 31.35 12 31.35C10.2 31.35 8.84999 30.0001 8.84999 28.2001C8.84999 26.5501 10.2 25.05 12 25.05ZM45.75 4.05002C41.7 4.05002 38.4 7.35005 38.4 11.4001C38.4 15.4501 41.7 18.75 45.75 18.75C49.8 18.75 53.1 15.4501 53.1 11.4001C53.1 7.35005 49.8 4.05002 45.75 4.05002ZM45.75 8.25C47.55 8.25 48.9 9.60005 48.9 11.4001C48.9 13.2001 47.55 14.55 45.75 14.55C43.95 14.55 42.6 13.2001 42.6 11.4001C42.6 9.60005 43.95 8.25 45.75 8.25Z" fill="#1B54F8" stroke="white" stroke-miterlimit="10"></path></g></svg> 