<?xml version="1.0" encoding="UTF-8"?> <svg xmlns="http://www.w3.org/2000/svg" id="Layer_1" data-name="Layer 1" viewBox="0 0 80 80"><defs><style>.cls-1{fill:#1b54f8;}</style></defs><path class="cls-1" d="M40,26.6a9.37,9.37,0,0,0-2.3,18.5V65.2a2.3,2.3,0,0,0,4.6,0V45.1A9.36,9.36,0,0,0,40,26.6Z"></path><path class="cls-1" d="M26.6,25.4a2.43,2.43,0,0,0-3.2,0,14.49,14.49,0,0,0,0,20.4h.1a2.2,2.2,0,0,0,1.5.6,2.14,2.14,0,0,0,1.7-.8,2.24,2.24,0,0,0-.2-3.2,9.87,9.87,0,0,1,.1-13.8A2.43,2.43,0,0,0,26.6,25.4Z"></path><path class="cls-1" d="M16.7,20.1a2.2,2.2,0,0,0-3.1-.1.1.1,0,0,0-.1.1,22.45,22.45,0,0,0,0,31.8,2.43,2.43,0,0,0,3.2,0,2.23,2.23,0,0,0,0-3.2h0a18.17,18.17,0,0,1,0-25.4,2.23,2.23,0,0,0,0-3.2Z"></path><path class="cls-1" d="M56.7,26.3a2.3,2.3,0,0,0-3.1-.1,2.21,2.21,0,0,0-.3,3.1l.1.1a.1.1,0,0,1,.1.1,9.78,9.78,0,0,1,.2,13.8l-.2.2a2.23,2.23,0,0,0,0,3.2,1.91,1.91,0,0,0,1.6.6,2.36,2.36,0,0,0,1.6-.7,14.36,14.36,0,0,0,0-20.3Z"></path><path class="cls-1" d="M63.3,20.1a2.2,2.2,0,0,0-.1,3.1.1.1,0,0,0,.1.1,18.17,18.17,0,0,1,0,25.4,2.23,2.23,0,0,0,0,3.2h0a2.43,2.43,0,0,0,3.2,0,22.45,22.45,0,0,0,0-31.8,2.33,2.33,0,0,0-3.2,0Z"></path></svg> 