<?xml version="1.0" encoding="UTF-8"?> <svg xmlns="http://www.w3.org/2000/svg" xmlns:xlink="http://www.w3.org/1999/xlink" width="60" height="60" viewBox="0 0 60 60"><defs><clipPath id="clip-path"><rect id="Rectangle_874" data-name="Rectangle 874" width="60" height="60" transform="translate(761 253)" fill="#fff" stroke="#707070" stroke-width="1"></rect></clipPath></defs><g id="Mask_Group_103" data-name="Mask Group 103" transform="translate(-761 -253)" clip-path="url(#clip-path)"><g id="Group_2974" data-name="Group 2974" transform="translate(382.31 -168.609)"><g id="Group_2973" data-name="Group 2973" transform="translate(382.69 431.609)"><g id="Group_2972" data-name="Group 2972"><g id="Group_2965" data-name="Group 2965" transform="translate(15.306 8.873)"><path id="Path_3152" data-name="Path 3152" d="M2098.463,2111.49h-3.436a.71.71,0,0,1-.718-.718l-.088-1.744a10.267,10.267,0,0,1-1.524-.63l-1.267,1.143a.725.725,0,0,1-1.019-.044l-2.418-2.418a.726.726,0,0,1-.044-1.019l1.143-1.267a14.11,14.11,0,0,1-.637-1.524l-1.736-.088a.739.739,0,0,1-.718-.718v-3.436a.71.71,0,0,1,.718-.718l1.736-.088a10.808,10.808,0,0,1,.637-1.524l-1.143-1.275a.725.725,0,0,1,.044-1.019l2.418-2.418a.733.733,0,0,1,1.019-.036l1.267,1.143a11.568,11.568,0,0,1,1.524-.637l.088-1.737a.739.739,0,0,1,.718-.718h3.436a.71.71,0,0,1,.718.718l.088,1.737a9.255,9.255,0,0,1,1.524.637l1.275-1.143a.732.732,0,0,1,1.018.036l2.41,2.418a.727.727,0,0,1,.044,1.019l-1.143,1.275a11.2,11.2,0,0,1,.637,1.524l1.737.088a.739.739,0,0,1,.718.718v3.436a.71.71,0,0,1-.718.718l-1.737.088a9.55,9.55,0,0,1-.637,1.524l1.143,1.267a.725.725,0,0,1-.044,1.019l-2.41,2.418a.727.727,0,0,1-1.018.044l-1.275-1.143a12.2,12.2,0,0,1-1.524.63l-.088,1.744A.685.685,0,0,1,2098.463,2111.49Zm-2.711-1.48h2.03l.088-1.575a.715.715,0,0,1,.593-.674,7,7,0,0,0,2.118-.894.774.774,0,0,1,.894.088l1.143,1.063,1.4-1.4-1.062-1.15a.761.761,0,0,1-.081-.886,7.052,7.052,0,0,0,.887-2.118.762.762,0,0,1,.681-.593l1.568-.088v-1.993l-1.568-.081a.729.729,0,0,1-.681-.593,7.013,7.013,0,0,0-.887-2.125.761.761,0,0,1,.081-.886l1.063-1.151-1.4-1.392-1.143,1.055a.774.774,0,0,1-.894.088,7,7,0,0,0-2.118-.894.764.764,0,0,1-.593-.674l-.088-1.656h-1.993l-.125,1.568a.73.73,0,0,1-.594.681,6.975,6.975,0,0,0-2.117.887.772.772,0,0,1-.894-.081l-1.143-1.062-1.4,1.4,1.063,1.143a.761.761,0,0,1,.081.894,7.171,7.171,0,0,0-.887,2.117.771.771,0,0,1-.681.594l-1.568.088v1.986l1.568.088a.723.723,0,0,1,.681.594,7.16,7.16,0,0,0,.887,2.117.761.761,0,0,1-.081.894l-1.062,1.143,1.4,1.4,1.143-1.062a.772.772,0,0,1,.894-.081,6.988,6.988,0,0,0,2.117.887.78.78,0,0,1,.594.681Zm-.806-17.006Z" transform="translate(-2086 -2090)" fill="#1c54f8" stroke="#fff" stroke-width="0.4" fill-rule="evenodd"></path></g><g id="Group_2966" data-name="Group 2966" transform="translate(20.984 14.551)"><path id="Path_3153" data-name="Path 3153" d="M2866.092,2875.17a5.085,5.085,0,1,1,5.085-5.085A5.1,5.1,0,0,1,2866.092,2875.17Zm0-8.726a3.6,3.6,0,1,0,3.6,3.6A3.6,3.6,0,0,0,2866.092,2866.444Z" transform="translate(-2861 -2865)" fill="#1c54f8" stroke="#fff" stroke-width="0.4" fill-rule="evenodd"></path></g><g id="Group_2967" data-name="Group 2967" transform="translate(10.221 3.737)"><path id="Path_3154" data-name="Path 3154" d="M1407.855,1420.711a15.855,15.855,0,1,1,15.855-15.855A15.885,15.885,0,0,1,1407.855,1420.711Zm0-30.223a14.372,14.372,0,1,0,14.368,14.368A14.384,14.384,0,0,0,1407.855,1390.487Z" transform="translate(-1392 -1389)" fill="#1c54f8" stroke="#fff" stroke-width="0.4" fill-rule="evenodd"></path></g><g id="Group_2968" data-name="Group 2968" transform="translate(0 3.7)"><path id="Path_3155" data-name="Path 3155" d="M23.076,1385.524H-2.238a.757.757,0,0,1-.762-.762.757.757,0,0,1,.762-.762H23.076a.762.762,0,1,1,0,1.524Z" transform="translate(3 -1384)" fill="#1c54f8" stroke="#fff" stroke-width="0.4" fill-rule="evenodd"></path></g><g id="Group_2969" data-name="Group 2969" transform="translate(25.307 33.923)"><path id="Path_3156" data-name="Path 3156" d="M3477.076,5510.524h-25.307a.762.762,0,1,1,0-1.524h25.307a.762.762,0,0,1,0,1.524Z" transform="translate(-3451 -5509)" fill="#1c54f8" stroke="#fff" stroke-width="0.4" fill-rule="evenodd"></path></g><g id="Group_2970" data-name="Group 2970" transform="translate(0.044)"><path id="Path_3157" data-name="Path 3157" d="M7.491,888a.785.785,0,0,1-.506-.213l-3.773-3.773A.749.749,0,0,1,3,883.506a.689.689,0,0,1,.212-.513l3.773-3.773a.749.749,0,0,1,1.055,1.062l-3.26,3.224,3.26,3.217a.739.739,0,0,1,0,1.062A1.015,1.015,0,0,1,7.491,888Z" transform="translate(-3 -879)" fill="#1c54f8" stroke="#fff" stroke-width="0.4" fill-rule="evenodd"></path></g><g id="Group_2971" data-name="Group 2971" transform="translate(46.877 30.225)"><path id="Path_3158" data-name="Path 3158" d="M6395.732,5013.246a.7.7,0,0,1-.513-.213.743.743,0,0,1,0-1.055l3.269-3.224-3.269-3.225a.749.749,0,0,1,1.063-1.055l3.773,3.773a.709.709,0,0,1,0,1.011l-3.773,3.773A.861.861,0,0,1,6395.732,5013.246Z" transform="translate(-6394.999 -5004.251)" fill="#1c54f8" stroke="#fff" stroke-width="0.4" fill-rule="evenodd"></path></g></g></g></g></g></svg> 