<?xml version="1.0" encoding="UTF-8"?> <svg xmlns="http://www.w3.org/2000/svg" xmlns:xlink="http://www.w3.org/1999/xlink" width="60" height="60" viewBox="0 0 60 60"><defs><clipPath id="clip-path"><rect id="Rectangle_865" data-name="Rectangle 865" width="60" height="60" transform="translate(50 45)" fill="#fff" stroke="#707070" stroke-width="1"></rect></clipPath></defs><g id="Mask_Group_94" data-name="Mask Group 94" transform="translate(-50 -45)" clip-path="url(#clip-path)"><g id="Group_152" data-name="Group 152" transform="translate(-99.7 39)"><g id="Group_151" data-name="Group 151" transform="translate(158.7 11)"><g id="Group_142" data-name="Group 142" transform="translate(0 0)"><path id="Path_209" data-name="Path 209" d="M48.254,13.245h0L36.463,1.227A.817.817,0,0,0,35.934,1H6.456a.714.714,0,0,0-.756.756V50.13a.714.714,0,0,0,.756.756H47.725a.714.714,0,0,0,.756-.756V13.774A.817.817,0,0,0,48.254,13.245ZM36.614,3.57l9.3,9.448h-9.3Zm-29.4,45.8V2.512H35.178V13.774a.714.714,0,0,0,.756.756H47.045V49.374Z" transform="translate(-5.7 -1)" fill="#1c54f8" stroke="#fff" stroke-width="0.4"></path></g><g id="Group_143" data-name="Group 143" transform="translate(3.058 7.181)"><path id="Path_210" data-name="Path 210" d="M45.16,37.03l-1.512,1.361V36.577a5,5,0,0,0-5.215-4.762h-9.6V29.774a3.707,3.707,0,0,0,0-7.256V20.326h5.518a.714.714,0,0,0,.756-.756V11.256a.714.714,0,0,0-.756-.756H21.8a.714.714,0,0,0-.756.756V19.57a.714.714,0,0,0,.756.756h5.518v2.192a3.728,3.728,0,0,0-2.948,3.628A3.66,3.66,0,0,0,27.4,29.774v1.965H17.572A5,5,0,0,0,12.357,36.5V38.24L11,36.955a.75.75,0,1,0-.983,1.134l2.645,2.419a.706.706,0,0,0,.983,0l2.721-2.494a.75.75,0,1,0-.983-1.134l-1.436,1.285V36.426a3.489,3.489,0,0,1,3.7-3.25h9.675V38.24l-1.436-1.285a.75.75,0,0,0-.983,1.134l2.645,2.419a.828.828,0,0,0,1.134-.076l2.645-2.343a.75.75,0,1,0-.983-1.134l-1.512,1.361V33.327h9.675a3.489,3.489,0,0,1,3.7,3.25v1.738l-1.361-1.209a.75.75,0,0,0-.983,1.134l2.57,2.343a.814.814,0,0,0,1.134.076l2.721-2.494a.809.809,0,0,0,.076-1.058A1.026,1.026,0,0,0,45.16,37.03Zm-22.6-24.943H33.52v6.8H22.561Zm3.25,14.134A2.192,2.192,0,1,1,28,28.414,2.194,2.194,0,0,1,25.811,26.222Z" transform="translate(-9.745 -10.5)" fill="#1c54f8" stroke="#fff" stroke-width="0.4"></path></g><g id="Group_144" data-name="Group 144" transform="translate(3.099 38.548)"><path id="Path_211" data-name="Path 211" d="M15.62,52H10.556a.714.714,0,0,0-.756.756V57.82a.714.714,0,0,0,.756.756H15.62a.714.714,0,0,0,.756-.756V52.756A.714.714,0,0,0,15.62,52Zm-.756,4.989H11.312V53.512h3.552Z" transform="translate(-9.8 -52)" fill="#1c54f8" stroke="#fff" stroke-width="0.4"></path></g><g id="Group_145" data-name="Group 145" transform="translate(17.989 38.548)"><path id="Path_212" data-name="Path 212" d="M35.32,52H30.256a.714.714,0,0,0-.756.756V57.82a.714.714,0,0,0,.756.756H35.32a.714.714,0,0,0,.756-.756V52.756A.714.714,0,0,0,35.32,52Zm-.756,4.989H31.012V53.512h3.552Z" transform="translate(-29.5 -52)" fill="#1c54f8" stroke="#fff" stroke-width="0.4"></path></g><g id="Group_146" data-name="Group 146" transform="translate(32.955 38.548)"><path id="Path_213" data-name="Path 213" d="M55.12,52H50.056a.714.714,0,0,0-.756.756V57.82a.714.714,0,0,0,.756.756H55.12a.714.714,0,0,0,.756-.756V52.756A.757.757,0,0,0,55.12,52Zm-.756,4.989H50.812V53.512h3.552Z" transform="translate(-49.3 -52)" fill="#1c54f8" stroke="#fff" stroke-width="0.4"></path></g><g id="Group_147" data-name="Group 147" transform="translate(3.023 5.291)"><path id="Path_214" data-name="Path 214" d="M10.456,9.512H18.09A.756.756,0,1,0,18.09,8H10.456a.714.714,0,0,0-.756.756A.757.757,0,0,0,10.456,9.512Z" transform="translate(-9.7 -8)" fill="#1c54f8" stroke="#fff" stroke-width="0.4"></path></g><g id="Group_148" data-name="Group 148" transform="translate(3.023 10.657)"><path id="Path_215" data-name="Path 215" d="M10.456,16.612H18.09a.756.756,0,1,0,0-1.512H10.456a.756.756,0,1,0,0,1.512Z" transform="translate(-9.7 -15.1)" fill="#1c54f8" stroke="#fff" stroke-width="0.4"></path></g><g id="Group_149" data-name="Group 149" transform="translate(3.023 16.1)"><path id="Path_216" data-name="Path 216" d="M10.456,23.812H18.09a.756.756,0,1,0,0-1.512H10.456a.756.756,0,0,0,0,1.512Z" transform="translate(-9.7 -22.3)" fill="#1c54f8" stroke="#fff" stroke-width="0.4"></path></g><g id="Group_150" data-name="Group 150" transform="translate(3.023 21.542)"><path id="Path_217" data-name="Path 217" d="M10.456,31.012H18.09a.756.756,0,1,0,0-1.512H10.456a.756.756,0,0,0,0,1.512Z" transform="translate(-9.7 -29.5)" fill="#1c54f8" stroke="#fff" stroke-width="0.4"></path></g></g></g></g></svg> 