<?xml version="1.0" encoding="UTF-8"?> <svg xmlns="http://www.w3.org/2000/svg" xmlns:xlink="http://www.w3.org/1999/xlink" width="300" height="186" viewBox="0 0 300 186"><defs><clipPath id="clip-path"><rect id="Rectangle_59" data-name="Rectangle 59" width="109" height="109" transform="translate(202 999)" fill="#c5cae0"></rect></clipPath></defs><g id="Group_2859" data-name="Group 2859" transform="translate(-82 -1155)"><rect id="Rectangle_55" data-name="Rectangle 55" width="300" height="186" transform="translate(82 1155)" fill="#051c2c"></rect><g id="Mask_Group_8" data-name="Mask Group 8" transform="translate(-24 195)" clip-path="url(#clip-path)"><g id="Group_2841" data-name="Group 2841" transform="translate(-288.525 -117.051)"><path id="Path_2860" data-name="Path 2860" d="M185.746,37.923h-4.863a14.6,14.6,0,0,0-14.591-14.591H107.929A14.6,14.6,0,0,0,93.338,37.923v4.863a4.863,4.863,0,0,0,9.727,0V37.923a4.878,4.878,0,0,1,4.863-4.863h58.363a4.878,4.878,0,0,1,4.863,4.863V96.286a4.878,4.878,0,0,1-4.863,4.863h-4.863V91.422a24.35,24.35,0,0,0-11.4-20.573,17.023,17.023,0,1,0-25.827,0,24.354,24.354,0,0,0-11.4,20.574v9.728h-4.864a4.878,4.878,0,0,1-4.863-4.863V62.24a4.863,4.863,0,1,0-9.727,0V96.285a14.6,14.6,0,0,0,14.591,14.591h4.863v4.863a14.6,14.6,0,0,0,14.591,14.591h58.363a14.6,14.6,0,0,0,14.591-14.591V52.513a14.6,14.6,0,0,0-14.591-14.591ZM129.814,59.809a7.3,7.3,0,1,1,7.3,7.3A7.317,7.317,0,0,1,129.814,59.809Zm-7.3,31.614a14.591,14.591,0,1,1,29.182,0v9.728H122.518Zm68.091,24.319a4.878,4.878,0,0,1-4.863,4.863H127.383a4.878,4.878,0,0,1-4.863-4.863v-4.863h43.773a14.6,14.6,0,0,0,14.591-14.591V47.65h4.863a4.878,4.878,0,0,1,4.863,4.863Z" transform="translate(397.187 1093.719)" fill="#fff" stroke="#051c2c" stroke-width="6.4"></path></g></g></g></svg> 