<?xml version="1.0" encoding="UTF-8"?> <svg xmlns="http://www.w3.org/2000/svg" width="300" height="186" viewBox="0 0 300 186"><g id="Group_105" data-name="Group 105" transform="translate(-1892 -6141)"><g id="Group_104" data-name="Group 104" transform="translate(427)"><rect id="Rectangle_8" data-name="Rectangle 8" width="300" height="186" transform="translate(1465 6141)" fill="#051c2c"></rect></g><path id="Path_1093" data-name="Path 1093" d="M178.379,51.7V65.8h9.061V57.534a5.034,5.034,0,0,1,7.132-4.576l15.1,6.925a5.035,5.035,0,0,1,2.936,4.576v24.5h2.019a9.062,9.062,0,0,1,8.149,13.025l-12.59,25.87a9.061,9.061,0,0,1-15.278,1.626l-1.13-1.441a1.007,1.007,0,0,0-1.652.1l-9.007,14.741a9.061,9.061,0,0,1-15.494-.05l-13.375-22.209a1.008,1.008,0,0,0-1.5-.264l-1.821,1.472a9.06,9.06,0,0,1-13.709-2.816l-8.85-16.761a9.061,9.061,0,0,1,8.013-13.292h1.717V60.763a5.034,5.034,0,0,1,5.035-5.034h11.075V51.7a5.033,5.033,0,0,1,5.034-5.034h14.1a5.033,5.033,0,0,1,5.034,5.034Zm-16.109,3.02h8.055V88.954H162.27ZM136.389,97.008a1.007,1.007,0,0,0-.89,1.477l8.849,16.761a1.007,1.007,0,0,0,1.524.313l1.82-1.472a9.061,9.061,0,0,1,13.459,2.371l13.376,22.209a1.007,1.007,0,0,0,1.722.006l9.007-14.741a9.061,9.061,0,0,1,14.863-.866l1.13,1.442a1.007,1.007,0,0,0,1.7-.181l12.589-25.87a1.007,1.007,0,0,0-.906-1.447Zm51.051-8.054v-15.1h-9.061v15.1Zm17.115,0V66.4l-9.061-4.155V88.954Zm-50.339,0V63.783h-8.054V88.953Z" transform="translate(1866.49 6137.062)" fill="#fff" stroke="#051c2c" stroke-width="4" fill-rule="evenodd"></path></g></svg> 