<?xml version="1.0" encoding="UTF-8"?> <svg xmlns="http://www.w3.org/2000/svg" width="300" height="186" viewBox="0 0 300 186"><g id="Group_11" data-name="Group 11" transform="translate(-231 -1518)"><rect id="Rectangle_1" data-name="Rectangle 1" width="300" height="186" transform="translate(231 1518)" fill="#051c2c"></rect><path id="Path_70" data-name="Path 70" d="M183.873,100.8A13.125,13.125,0,0,0,170.8,113.875a3.269,3.269,0,1,0,6.537,0,6.537,6.537,0,1,1,6.538,6.537,3.269,3.269,0,1,0,0,6.537,13.075,13.075,0,0,0,0-26.149Zm39.225,0a13.075,13.075,0,1,0,13.075,13.075A13.125,13.125,0,0,0,223.1,100.8Zm39.225,0A13.075,13.075,0,1,0,275.4,113.875,13.124,13.124,0,0,0,262.323,100.8ZM223.1,107.337a6.537,6.537,0,1,1-6.537,6.538A6.489,6.489,0,0,1,223.1,107.337Zm39.225,0a6.537,6.537,0,1,1-6.537,6.538A6.49,6.49,0,0,1,262.323,107.337Zm-78.45,32.687A13.075,13.075,0,1,0,196.947,153.1,13.125,13.125,0,0,0,183.873,140.024Zm39.225,0A13.075,13.075,0,1,0,236.173,153.1,13.125,13.125,0,0,0,223.1,140.024Zm39.225,0A13.075,13.075,0,1,0,275.4,153.1,13.124,13.124,0,0,0,262.323,140.024Zm-78.45,6.538a6.537,6.537,0,1,1-6.538,6.537A6.488,6.488,0,0,1,183.873,146.562Zm39.225,0a6.537,6.537,0,1,1-6.537,6.537A6.488,6.488,0,0,1,223.1,146.562Zm39.225,0a6.537,6.537,0,1,1-6.537,6.537A6.489,6.489,0,0,1,262.323,146.562Zm-78.45,32.687a13.075,13.075,0,1,0,13.074,13.074A13.125,13.125,0,0,0,183.873,179.249Zm39.225,0a13.075,13.075,0,1,0,13.075,13.074A13.125,13.125,0,0,0,223.1,179.249Zm39.225,0a13.124,13.124,0,0,0-13.074,13.074,3.269,3.269,0,1,0,6.537,0,6.537,6.537,0,1,1,6.537,6.538,3.269,3.269,0,1,0,0,6.537,13.075,13.075,0,1,0,0-26.149Zm-78.45,6.537a6.537,6.537,0,1,1-6.538,6.537A6.488,6.488,0,0,1,183.873,185.786Zm39.225,0a6.537,6.537,0,1,1-6.537,6.537A6.488,6.488,0,0,1,223.1,185.786Z" transform="translate(157.702 1457.7)" fill="#fff" stroke="#051c2c" stroke-width="3"></path></g></svg> 