<?xml version="1.0" encoding="UTF-8"?> <svg xmlns="http://www.w3.org/2000/svg" width="300" height="186" viewBox="0 0 300 186"><g id="Group_8" data-name="Group 8" transform="translate(-1038 -1200)"><rect id="Rectangle_4" data-name="Rectangle 4" width="300" height="186" transform="translate(1038 1200)" fill="#051c2c"></rect><path id="Union_6" data-name="Union 6" d="M42.057,105.108a5.8,5.8,0,0,1-2.708-4.858V67.744a4.916,4.916,0,0,1-1.3.462A5.988,5.988,0,0,1,30.8,62.355V40.968A11.976,11.976,0,0,1,42.771,28.993h3.267a15.21,15.21,0,0,1-6.843-7.049,4.567,4.567,0,0,1-3.267-4.4V14.3a6,6,0,0,1,3.114-5.32,15.4,15.4,0,0,1,27.989,0,6,6,0,0,1,3.114,5.32v3.251a4.568,4.568,0,0,1-3.234,4.4,15.2,15.2,0,0,1-6.843,7.049H63.3A11.976,11.976,0,0,1,75.277,40.968V62.355a5.987,5.987,0,0,1-7.254,5.783,4.891,4.891,0,0,1-1.3-.462v32.506a5.8,5.8,0,0,1-11.548.787L53.036,83.86,50.9,100.969a5.8,5.8,0,0,1-8.84,4.139Zm12.69-35.259,3.815,30.623a2.378,2.378,0,0,0,4.739-.291V44.389a1.711,1.711,0,0,1,3.422,0V62.353a2.566,2.566,0,0,0,5.132,0V40.966A8.553,8.553,0,0,0,63.3,32.412H42.772a8.553,8.553,0,0,0-8.554,8.554V62.353a2.566,2.566,0,1,0,5.133,0V44.389a1.711,1.711,0,0,1,3.422,0V100.18a2.378,2.378,0,0,0,4.722.291l3.833-30.623a1.711,1.711,0,0,1,3.422,0Zm-1.712-42.6a11.975,11.975,0,0,0,9.8-5.1H43.232A11.976,11.976,0,0,0,53.035,27.246ZM48.93,10.995l-7.305.684A2.566,2.566,0,0,0,39.349,14.3v3.251a1.146,1.146,0,0,0,1.1,1.181H65.628a1.146,1.146,0,0,0,1.1-1.181V14.3a2.567,2.567,0,0,0-2.275-2.617l-7.305-.684a30.03,30.03,0,0,0-4.106-.188C51.667,10.807,50.3,10.858,48.93,10.995Zm8.485-3.4,5.133.479a11.984,11.984,0,0,0-19.093,0l5.133-.479q2.2-.206,4.414-.206T57.415,7.59Zm29.837,95.193A8.553,8.553,0,0,1,78.7,94.229V83.691c-2.258-.325-4.586-.6-7-.821a1.718,1.718,0,1,1,.308-3.422h0c2.292.206,4.534.462,6.689.753V62a8.554,8.554,0,0,1,6.844-8.383C99.092,51,102.651,47.557,102.651,46.1c0-2.1-6.022-6.022-22.5-8.434a1.712,1.712,0,1,1,.5-3.387c10.23,1.557,25.422,4.978,25.422,11.822V92.3c0,4.277-5.715,7.733-16.937,10.282a8.667,8.667,0,0,1-1.872.206Zm-.992-45.816A5.135,5.135,0,0,0,82.12,62V94.212a5.132,5.132,0,0,0,6.228,4.927c11.292-2.446,14.3-5.458,14.3-6.843V51.3C98.75,54.007,92.146,55.821,86.261,56.967ZM16.972,102.561C5.715,100.029,0,96.573,0,92.3V46.1C0,39.26,15.191,35.838,25.422,34.282a1.712,1.712,0,1,1,.5,3.387C9.444,40.081,3.421,44,3.421,46.1c0,1.454,3.559,4.893,17.109,7.511A8.554,8.554,0,0,1,27.373,62V80.2c2.155-.291,4.4-.548,6.689-.753l.034.051a1.718,1.718,0,1,1,.308,3.422h0c-2.413.222-4.739.5-7,.821v10.47a8.555,8.555,0,0,1-8.554,8.554A8.708,8.708,0,0,1,16.972,102.561ZM3.422,92.3c0,1.385,3.011,4.4,14.3,6.86a5.132,5.132,0,0,0,6.228-5.013V62a5.133,5.133,0,0,0-4.14-5.1c-5.885-1.146-12.489-2.96-16.39-5.663Z" transform="translate(1135 1240)" fill="#fff"></path></g></svg> 