<?xml version="1.0" encoding="UTF-8"?> <svg xmlns="http://www.w3.org/2000/svg" width="300" height="186" viewBox="0 0 300 186"><g id="Group_101" data-name="Group 101" transform="translate(-1465 -5823)"><rect id="Rectangle_3" data-name="Rectangle 3" width="300" height="186" transform="translate(1465 5823)" fill="#051c2c"></rect><path id="Path_1084" data-name="Path 1084" d="M176.575,59.277l-8.229-2.206a7.742,7.742,0,0,0-9.478,5.472l-2.611,9.741h-8.518A7.742,7.742,0,0,0,140,80.023v61.912a7.742,7.742,0,0,0,7.739,7.739h41.276a7.742,7.742,0,0,0,7.739-7.739v-1.5L199.2,131.3l31.542-52.34.026-.041a7.744,7.744,0,0,0-2.832-10.571L192.192,47.712a7.741,7.741,0,0,0-10.571,2.832l-5.043,8.735Zm-18.29,18.166H147.739a2.581,2.581,0,0,0-2.58,2.58v61.912a2.581,2.581,0,0,0,2.58,2.58h41.276a2.581,2.581,0,0,0,2.58-2.58V80.023a2.581,2.581,0,0,0-2.58-2.58H158.286ZM169.7,93.476a2.565,2.565,0,0,0-2.652,0l-12.9,7.739a2.573,2.573,0,0,0-1.254,2.211V118.9a2.575,2.575,0,0,0,1.254,2.211l12.9,7.739a2.565,2.565,0,0,0,2.652,0l12.9-7.739a2.574,2.574,0,0,0,1.254-2.211V103.426a2.575,2.575,0,0,0-1.254-2.211Zm-1.326,5.219,10.319,6.191v12.558l-10.319,6.191-10.319-6.191V104.886Zm8.738-33.932-10.1-2.706a2.582,2.582,0,0,0-3.16,1.824L161.6,72.285h27.414a7.742,7.742,0,0,1,7.739,7.739V120.5L208.7,75.9a2.581,2.581,0,0,0-1.824-3.16L177.2,64.787l-.083-.023Zm26.91,48.542c9.349-15.514,22.291-36.99,22.3-37.006a2.583,2.583,0,0,0-.967-3.483L189.613,52.178a2.581,2.581,0,0,0-3.524.944l-4.352,7.535,26.481,7.1a7.743,7.743,0,0,1,5.474,9.478Z" transform="translate(1429.5 5817.826)" fill="#fff" stroke="#051c2c" stroke-width="1" fill-rule="evenodd"></path></g></svg> 