<?xml version="1.0" encoding="UTF-8"?> <svg xmlns="http://www.w3.org/2000/svg" width="300" height="186" viewBox="0 0 300 186"><g id="Group_100" data-name="Group 100" transform="translate(-1038 -5823)"><rect id="Rectangle_4" data-name="Rectangle 4" width="300" height="186" transform="translate(1038 5823)" fill="#051c2c"></rect><path id="Union_41" data-name="Union 41" d="M35.641,103a2,2,0,0,1-2.02-2.02v-7.96A2,2,0,0,1,35.641,91h11.88V87.082H5.94A5.883,5.883,0,0,1,0,81.141V5.94A5.883,5.883,0,0,1,5.94,0H112.861a5.883,5.883,0,0,1,5.94,5.94v75.2a5.883,5.883,0,0,1-5.94,5.94H71.28V91H83.161a2,2,0,0,1,2.02,2.02v7.96a2,2,0,0,1-2.02,2.02Zm2.018-4.039h43.6V95.041h-43.6Zm13.78-7.841h15.8V87.2h-15.8ZM3.92,81.141a2,2,0,0,0,2.02,2.02H112.861a2,2,0,0,0,2.02-2.019v-2.02H79.241V75.2h35.64V5.941a2,2,0,0,0-2.02-2.02H5.94a2,2,0,0,0-2.02,2.02V75.2H67.242v3.921H3.92Zm67.359-2.019V75.2H75.2v3.921ZM41.579,67.36a5.883,5.883,0,0,1-5.94-5.94v-5.94H30.531L27.2,58.806a2.192,2.192,0,0,1-1.425.594H21.858V55.479h3.089l3.327-3.444A2.192,2.192,0,0,1,29.7,51.44h5.94V45.5H30.531l-5.346,5.346a2.192,2.192,0,0,1-1.425.594h-5.94V47.52h5.108l5.346-5.465a2.192,2.192,0,0,1,1.425-.594h5.94v-5.94h-7.96a1.967,1.967,0,0,1-1.425-.594L22.927,31.6H15.8V27.68h7.96a1.968,1.968,0,0,1,1.425.594L28.511,31.6h7.128V25.66H27.679a1.967,1.967,0,0,1-1.426-.594L22.927,21.74H19.838V17.82h3.921a2.186,2.186,0,0,1,1.425.594L28.51,21.74h7.128V17.82a5.883,5.883,0,0,1,5.94-5.94h35.64a5.883,5.883,0,0,1,5.94,5.94v3.92h7.128l3.327-3.326a2.192,2.192,0,0,1,1.425-.594h3.92v4.039H95.871l-3.326,3.326a2.192,2.192,0,0,1-1.425.594h-7.96v5.94h7.128l3.327-3.326A2.192,2.192,0,0,1,95.04,27.8H103v3.921H95.871l-3.326,3.326a2.192,2.192,0,0,1-1.425.594h-7.96v5.94H89.1a2.192,2.192,0,0,1,1.425.594l5.346,5.346h5.108v4.039h-5.94a1.966,1.966,0,0,1-1.425-.594l-5.346-5.346H83.159v5.94H89.1a1.967,1.967,0,0,1,1.425.594l3.326,3.326H96.94V59.4H93.02a1.967,1.967,0,0,1-1.425-.594l-3.327-3.326H83.159v5.94h0a5.958,5.958,0,0,1-5.939,5.94ZM39.559,42.885V61.3a2,2,0,0,0,2.02,2.02h35.64a2.032,2.032,0,0,0,2.019-2.138V46.093a24.127,24.127,0,0,1-6.534.951A23.316,23.316,0,0,1,61.655,44.43a30.229,30.229,0,0,1-3.327-1.9,24.753,24.753,0,0,0-4.158-2.376,13.226,13.226,0,0,0-5.064-.982A13.872,13.872,0,0,0,39.559,42.885Zm16.156-6.294A25.845,25.845,0,0,1,60.467,39.2c1.069.593,2.02,1.307,2.97,1.782a20.289,20.289,0,0,0,15.8,1.069V17.819a2,2,0,0,0-2.02-2.02H41.578v0a2.082,2.082,0,0,0-2.02,2.02v20.2a18.259,18.259,0,0,1,9.6-2.7A17.014,17.014,0,0,1,55.715,36.591ZM100.98,59.4V55.48H104.9V59.4ZM13.9,59.4V55.48H17.82V59.4Zm91-7.96V47.52h3.921V51.44Zm-95.041,0V47.52H13.78V51.44ZM57.38,27.68a7.96,7.96,0,1,1,7.96,7.96A7.961,7.961,0,0,1,57.38,27.68Zm4.039,0a3.921,3.921,0,1,0,3.921-3.921A3.956,3.956,0,0,0,61.42,27.68Zm45.5,3.922V27.681h3.921V31.6Zm-98.96,0V27.681h3.921V31.6ZM103,21.741V17.82h3.921v3.921Zm-91.121,0V17.82H15.8v3.921Z" transform="translate(1129 5865)" fill="#fff"></path></g></svg> 