<?xml version="1.0" encoding="UTF-8"?> <svg xmlns="http://www.w3.org/2000/svg" width="300" height="186" viewBox="0 0 300 186"><g id="Group_49" data-name="Group 49" transform="translate(-1082 -248)"><rect id="Rectangle_2" data-name="Rectangle 2" width="300" height="186" transform="translate(1082 248)" fill="#051c2c"></rect><path id="Union_4" data-name="Union 4" d="M4.791,103A4.808,4.808,0,0,1,0,98.209V35.93a4.807,4.807,0,0,1,4.791-4.79h7.186V4.791A4.808,4.808,0,0,1,16.768,0H98.209A4.808,4.808,0,0,1,103,4.791V67.07a4.807,4.807,0,0,1-4.791,4.79h-1.2a1.2,1.2,0,1,1,0-2.4h1.2a2.364,2.364,0,0,0,2.4-2.395V19.163H14.372V31.14h71.86a4.807,4.807,0,0,1,4.791,4.79V98.209A4.808,4.808,0,0,1,86.233,103Zm-2.4-4.792a2.365,2.365,0,0,0,2.4,2.4H86.231a2.365,2.365,0,0,0,2.4-2.4V50.3H2.4Zm0-62.278V47.907H88.628V35.93a2.365,2.365,0,0,0-2.4-2.4H4.792A2.365,2.365,0,0,0,2.4,35.93ZM14.373,4.791V16.768h86.232V4.791a2.364,2.364,0,0,0-2.4-2.4H16.769A2.363,2.363,0,0,0,14.373,4.791ZM36.782,91.275a1.067,1.067,0,0,1-.4-1.456L52.427,61.6a1.068,1.068,0,0,1,1.856,1.056L38.239,90.875a1.066,1.066,0,0,1-1.456.4ZM60,90.933a1.068,1.068,0,0,1,0-1.51L73.273,76.154,60,62.884a1.068,1.068,0,1,1,1.51-1.51L75.538,75.4a1.068,1.068,0,0,1,0,1.51L61.514,90.933a1.066,1.066,0,0,1-1.51,0Zm-30.852,0L15.127,76.908a1.068,1.068,0,0,1,0-1.51L29.152,61.374a1.068,1.068,0,1,1,1.51,1.51L17.393,76.154,30.662,89.423a1.068,1.068,0,1,1-1.51,1.51ZM79.046,40.721a2.4,2.4,0,1,1,2.4,2.395A2.4,2.4,0,0,1,79.046,40.721Zm-8.384,0a2.4,2.4,0,1,1,2.4,2.395A2.4,2.4,0,0,1,70.663,40.721Zm-8.385,0a2.4,2.4,0,1,1,2.4,2.395A2.4,2.4,0,0,1,62.278,40.721Zm-54.006.112a1.2,1.2,0,0,1,1.084-1.309,1.255,1.255,0,0,1,.225,0H50.3a1.2,1.2,0,1,1,0,2.395H9.581q-.058.005-.115.005A1.2,1.2,0,0,1,8.272,40.832ZM91.023,9.581a2.4,2.4,0,1,1,2.4,2.4A2.395,2.395,0,0,1,91.023,9.581Zm-8.384,0a2.4,2.4,0,1,1,2.4,2.4A2.395,2.395,0,0,1,82.64,9.581Zm-8.385,0a2.4,2.4,0,1,1,2.4,2.4A2.4,2.4,0,0,1,74.255,9.581Zm-54.007.112a1.2,1.2,0,0,1,1.085-1.31,1.256,1.256,0,0,1,.225,0H62.279a1.2,1.2,0,1,1,0,2.4H21.558q-.058.005-.114.005A1.2,1.2,0,0,1,20.248,9.694Z" transform="translate(1180.5 290)" fill="#fff"></path></g></svg> 