<?xml version="1.0" encoding="UTF-8"?> <svg xmlns="http://www.w3.org/2000/svg" width="300" height="186" viewBox="0 0 300 186"><g id="Group_63" data-name="Group 63" transform="translate(-849 -830)"><rect id="Rectangle_2" data-name="Rectangle 2" width="300" height="186" transform="translate(849 830)" fill="#051c2c"></rect><g id="Group_62" data-name="Group 62" transform="translate(648.135 -374)"><path id="Path_81" data-name="Path 81" d="M215.514,126.351v-.062l-4.251-23.022A17.573,17.573,0,0,0,200.251,89.51V86.073a6.6,6.6,0,0,0-2.209-4.9V19.8A11.058,11.058,0,0,0,187,8.753h-97.2A11.058,11.058,0,0,0,78.747,19.8V94.911a11.058,11.058,0,0,0,11.046,11.046H120.1l-3.314,13.255H116.3a11.058,11.058,0,0,0-11.046,11.046,2.209,2.209,0,0,0,2.209,2.209h15.872a16.885,16.885,0,0,0,31.9,3.274l.5-1.115h0a14.9,14.9,0,0,1,27.173,0l.5,1.117h0a16.878,16.878,0,0,0,32.106-9.389ZM193.725,88.282H187V86.073a2.209,2.209,0,0,1,2.209-2.209h4.418a2.209,2.209,0,0,1,2.209,2.209v2.346a17.931,17.931,0,0,0-2.108-.137ZM83.166,94.91V19.8a6.627,6.627,0,0,1,6.627-6.627H187a6.627,6.627,0,0,1,6.627,6.627V79.446h-4.418V19.8A2.209,2.209,0,0,0,187,17.589h-97.2A2.209,2.209,0,0,0,87.584,19.8V86.073a2.209,2.209,0,0,0,2.209,2.209h44.183V83.864H92V22.007h92.785v59.16a6.6,6.6,0,0,0-2.209,4.9v2.209H171.532a6.627,6.627,0,0,0-6.627-6.627h-1.1a1.1,1.1,0,0,1,0-2.209h5.523a8.836,8.836,0,0,0,8.837-8.837V68.4h-4.418v2.209a4.418,4.418,0,0,1-4.418,4.418H163.8a5.523,5.523,0,1,0,0,11.046h1.1a2.209,2.209,0,0,1,2.209,2.209H156.068V86.073a6.627,6.627,0,0,0-6.627-6.627h-4.418a6.627,6.627,0,0,0-6.627,6.627v3.435a17.52,17.52,0,0,0-10.659,12.029H89.794a6.627,6.627,0,0,1-6.627-6.627Zm68.484-6.628h-6.729a17.933,17.933,0,0,0-2.108.137V86.073a2.209,2.209,0,0,1,2.209-2.209h4.418a2.209,2.209,0,0,1,2.209,2.209Zm-27,17.673h2.231l-2.43,13.255h-3.115Zm-8.35,17.673h7.33l-.5,2.722q-.127.843-.171,1.7H110.053a6.639,6.639,0,0,1,6.25-4.418Zm92.013,13.321a12.5,12.5,0,0,1-20.877-3.011l-.5-1.117a19.319,19.319,0,0,0-35.245,0l-.5,1.115a12.5,12.5,0,0,1-20.868,3.013,12.309,12.309,0,0,1-2.845-9.861l4.262-23.148A13.231,13.231,0,0,1,144.921,92.7h48.8A13.255,13.255,0,0,1,206.908,104l4.244,23.05a12.332,12.332,0,0,1-2.838,9.895Z" transform="translate(204.118 1220.247)" fill="#fff" stroke="#051c2c" stroke-width="2"></path><path id="Path_82" data-name="Path 82" d="M330.551,365.378h-4.418v-4.418a2.209,2.209,0,0,0-2.209-2.209h-8.837a2.209,2.209,0,0,0-2.209,2.209v4.418h-4.418a2.209,2.209,0,0,0-2.209,2.209v8.837a2.209,2.209,0,0,0,2.209,2.209h4.418v4.418a2.209,2.209,0,0,0,2.209,2.209h8.837a2.209,2.209,0,0,0,2.209-2.209v-4.418h4.418a2.209,2.209,0,0,0,2.209-2.209v-8.837a2.209,2.209,0,0,0-2.209-2.209Zm-2.209,8.837h-4.418a2.209,2.209,0,0,0-2.209,2.209v4.418H317.3v-4.418a2.209,2.209,0,0,0-2.209-2.209h-4.418V369.8h4.418a2.209,2.209,0,0,0,2.209-2.209v-4.418h4.418v4.418a2.209,2.209,0,0,0,2.209,2.209h4.418Z" transform="translate(34.054 958.616)" fill="#fff" stroke="#051c2c" stroke-width="2"></path><path id="Path_83" data-name="Path 83" d="M479.3,358.837a6.539,6.539,0,0,0-2.914.705,6.538,6.538,0,0,0,.705-2.914,6.628,6.628,0,1,0-13.255,0,6.538,6.538,0,0,0,.705,2.914,6.539,6.539,0,0,0-2.914-.705,6.628,6.628,0,1,0,0,13.255,6.538,6.538,0,0,0,2.914-.705,6.538,6.538,0,0,0-.705,2.914,6.628,6.628,0,1,0,13.255,0,6.538,6.538,0,0,0-.705-2.914,6.538,6.538,0,0,0,2.914.705,6.628,6.628,0,1,0,0-13.255Zm-8.837-4.418a2.209,2.209,0,1,1-2.209,2.209A2.208,2.208,0,0,1,470.464,354.419Zm2.914,8.132a6.377,6.377,0,0,0,0,5.829,6.377,6.377,0,0,0-5.829,0,6.377,6.377,0,0,0,0-5.829A6.377,6.377,0,0,0,473.379,362.55Zm-11.751,5.124a2.209,2.209,0,1,1,1.562-.647A2.208,2.208,0,0,1,461.628,367.674Zm8.837,8.837a2.209,2.209,0,1,1,1.562-.647A2.208,2.208,0,0,1,470.464,376.51Zm8.837-8.837a2.209,2.209,0,1,1,1.562-.647A2.208,2.208,0,0,1,479.3,367.674Z" transform="translate(-77.14 965.157)" fill="#fff" stroke="#051c2c" stroke-width="2"></path><path id="Path_84" data-name="Path 84" d="M250.025,133.806V98.459a2.209,2.209,0,0,0-2.209-2.209H185.959a2.209,2.209,0,0,0-2.209,2.209v35.347a2.209,2.209,0,0,0,2.209,2.209h61.857a2.209,2.209,0,0,0,2.209-2.209Zm-4.418-2.209H188.168V100.668h57.438Z" transform="translate(125.626 1154.841)" fill="#fff" stroke="#051c2c" stroke-width="2"></path><path id="Path_85" data-name="Path 85" d="M252.273,158.948l3.123-3.123-5.065-5.066,5.065-5.065-3.123-3.123-6.628,6.628h0a2.211,2.211,0,0,0,0,3.124Z" transform="translate(79.84 1120.216)" fill="#fff" stroke="#051c2c" stroke-width="2"></path><path id="Path_86" data-name="Path 86" d="M346.942,158.944l6.628-6.628a2.211,2.211,0,0,0,0-3.124l-6.628-6.628-3.123,3.123,5.065,5.066-5.065,5.065Z" transform="translate(5.97 1120.219)" fill="#fff" stroke="#051c2c" stroke-width="2"></path><path id="Path_87" data-name="Path 87" d="M297.94,148.369l6.633-19.881,4.19,1.4-6.633,19.881Z" transform="translate(40.266 1130.742)" fill="#fff" stroke="#051c2c" stroke-width="2"></path></g></g></svg> 