<?xml version="1.0" encoding="UTF-8"?> <svg xmlns="http://www.w3.org/2000/svg" width="300" height="186" viewBox="0 0 300 186"><g id="Group_50" data-name="Group 50" transform="translate(-699 -248)"><rect id="Rectangle_1" data-name="Rectangle 1" width="300" height="186" transform="translate(699 248)" fill="#051c2c"></rect><g id="Group_48" data-name="Group 48"><g id="Group_47" data-name="Group 47" transform="translate(11.507 31.842)"><path id="Union_1" data-name="Union 1" d="M19.113,41.72l-3.936-2.736L13.236,37.4l5.559,2.63L13.236,37.4,3.229,40.149.37,30.39h0l3.071-9.566,2.088-.611-2.089.611L1.412,18.442l.882-.635L.882,16.519l1.077-.847L.547,14.6l.953-.706L0,6.689,2.223,0l14.33,5.347.01.026-.01-.026H28.449L42.762,0,45,6.689l-1.5,7.2.935.706-1.412,1.076,1.095.847-1.412,1.288.882.635-2.047,2.382h0L44.65,30.39h0l-2.877,9.759L31.766,37.4l-5.559,2.63,5.559-2.63-1.941,1.588L25.872,41.72ZM25.819,38l.441.389-.477-3.9-.847-.582H20.049l-.847.582-.441,3.9L19.166,38Zm5.947-.6-5.983-2.912Zm0,0-.82-6.935h-.009Zm-18.53,0L19.2,34.484l-5.146-4.017h0L19.2,34.484Zm11.7-3.494,1.183-6.018,4.994-1.465-3.53-1.606-1.464,3.071-.917-5.1,9.917-.441h0l0,0L32,28.408l3.125-6.065-2.806-4.218h0l2.806,4.218-9.918.441.918,5.1Zm-6.053-6.018L20.049,33.9l-1.165-6.018.936-5.1-.936,5.1-1.446-3.071-3.531,1.606L9.884,22.343h0l4.023,4.077Zm-9-5.542,2.788-4.218h0ZM35.12,22.343Z" transform="translate(815 301)" fill="none" stroke="#fff" stroke-linecap="round" stroke-linejoin="round" stroke-width="2"></path><path id="Path_72" data-name="Path 72" d="M824.017,316.685l.927,19.837,10.008,7.153h7.019l2.162-1.423,4.595-3.59,6-22.971-18.935-1.259h-9.761A1.848,1.848,0,0,0,824.017,316.685Z" transform="translate(-1.066 -1.593)" fill="#051c2c"></path><path id="Path_11" data-name="Path 11" d="M115.577,179.171l-4.977-1.465,3.512-1.606Z" transform="translate(719.098 144.574)" fill="#fff"></path><path id="Path_12" data-name="Path 12" d="M179.7,179.171l1.465-3.071,3.53,1.606Z" transform="translate(662.193 144.574)" fill="#fff"></path><path id="Path_24" data-name="Path 24" d="M145.124,228.182l-.847-.582h-4.889l-.847.582-.441,3.9.406-.388h6.653l.441.388Z" transform="translate(696.451 102.163)" fill="#fff"></path></g><path id="noun-web-5019540" d="M108.465,81.445a12.286,12.286,0,0,0-12.217,12.3v78.423a12.271,12.271,0,0,0,12.217,12.279H215.686a12.252,12.252,0,0,0,12.195-12.279V93.739a12.266,12.266,0,0,0-12.195-12.3Zm0,4.539H215.686a7.652,7.652,0,0,1,7.673,7.757V107.5H100.791V93.741a7.652,7.652,0,0,1,7.673-7.757Zm6.547,7.855a2.968,2.968,0,1,0,.146,0c-.05,0-.1,0-.147,0Zm11.578,0a2.968,2.968,0,1,0,.146,0c-.05,0-.1,0-.147,0Zm11.579,0a2.968,2.968,0,1,0,.146,0c-.05,0-.1,0-.146,0Zm-37.376,18.2H223.361v60.129a7.638,7.638,0,0,1-7.673,7.74H108.465a7.638,7.638,0,0,1-7.673-7.74Z" transform="translate(686.944 208.557)" fill="#fff" stroke="#051c2c" stroke-width="2" fill-rule="evenodd"></path></g></g></svg> 