<?xml version="1.0" encoding="UTF-8"?> <svg xmlns="http://www.w3.org/2000/svg" width="300" height="186" viewBox="0 0 300 186"><g id="Group_47" data-name="Group 47" transform="translate(-1365 -1669)"><g id="Group_13" data-name="Group 13" transform="translate(1283 1530)"><rect id="Rectangle_2" data-name="Rectangle 2" width="300" height="186" transform="translate(82 139)" fill="#051c2c"></rect></g><path id="Path_36" data-name="Path 36" d="M20.069,56.531a1.415,1.415,0,0,1,0-2.83H57.053a1.415,1.415,0,1,1,0,2.83ZM35.8,31.933a1.414,1.414,0,1,1,1.982-2.016l1.63,1.6,5.1-5.426a1.416,1.416,0,1,1,2.062,1.942l-6.1,6.476a1.416,1.416,0,0,1-2.016.04ZM39.1,46.9c-11.415-7.332-11.461-7.71-13.345-23.3-.1-.856-.212-1.768-.378-3.141a1.423,1.423,0,0,1,1.194-1.574l13.006-2.945a1.505,1.505,0,0,1,.643,0L53.3,18.9a1.423,1.423,0,0,1,1.091,1.551H54.4c-.172,1.372-.281,2.284-.384,3.141-1.884,15.6-1.924,15.967-13.361,23.312a1.407,1.407,0,0,1-1.55-.012ZM28.578,23.263C30.259,37.2,30.341,37.882,39.89,44.036,49.438,37.882,49.519,37.2,51.2,23.263l.229-1.884L39.89,18.77,28.35,21.38Zm6.96,76.642H39.5v-1.7H15.378v5.368h18.74V101.32A1.413,1.413,0,0,1,35.542,99.9Zm35.093,0h3.963a1.416,1.416,0,0,1,1.423,1.417v2.254h4.077V77.109L78.217,75.4a2.63,2.63,0,0,1-2.985-.138l-1.573-1.211-.489.631.964.741a1.416,1.416,0,0,1,.253,1.987l-3.869,5.029a1.423,1.423,0,0,1-1.987.259L51.471,69.571a1.423,1.423,0,0,1-.253-1.987l3.876-5.03a1.41,1.41,0,0,1,1.981-.259l.958.741,10-12.988-.964-.741a1.415,1.415,0,0,1-.253-1.981l3.876-5.035a1.4,1.4,0,0,1,1.981-.253l7.418,5.707V17.136H70.244l6.006,6.579a1.423,1.423,0,0,1,.431,1.016V38.587a1.423,1.423,0,1,1-2.837,0V26.145H58.638a1.423,1.423,0,0,1-1.423-1.423V7.921H9.131V95.366H39.5V92.429a1.414,1.414,0,0,1,1.423-1.423h28.3a1.423,1.423,0,0,1,1.417,1.423v2.937h3.216V83.2a1.423,1.423,0,0,1,2.837,0V96.789a1.423,1.423,0,0,1-1.423,1.423H70.632Zm5.38,6.5v3.807a1.423,1.423,0,0,1-1.423,1.423H35.538a1.423,1.423,0,0,1-1.423-1.423V106.41H13.952a1.423,1.423,0,0,1-1.417-1.417V98.205H7.713A1.423,1.423,0,0,1,6.3,96.789V6.5A1.423,1.423,0,0,1,7.717,5.079h50.92a1.41,1.41,0,0,1,1.1.529L67.669,14.3H81.507a1.41,1.41,0,0,1,1.415,1.423h0v34.2l6.8,5.243a1.409,1.409,0,0,1,.259,1.981l-3.871,5.035a1.416,1.416,0,0,1-1.982.253l-.964-.74-.487.637,1.579,1.212a2.617,2.617,0,0,1,.89,2.847l21.044,13.581c4.163,2.687,5.018,8.572,1.906,11.98a8.156,8.156,0,0,1-11.369.316L82.922,79.693v25.3A1.423,1.423,0,0,1,81.5,106.41Zm-2.836-3.669H36.95V108.8H73.176Zm-5.38-8.9H42.336v6.063H67.8Zm19.1-37.3L72.068,45.139l-2.154,2.79,14.82,11.409ZM71.286,76.8,56.472,65.4l-2.153,2.8L69.145,79.6ZM82.351,65.655l-1.4-1.079-5.575,7.235,1.395,1.079q2.792-3.618,5.575-7.235Zm-2.286,7.6,18.57,16.92a5.246,5.246,0,0,0,7.774-.649A5,5,0,0,0,107.052,86a5.362,5.362,0,0,0-2.388-3.64L83.552,68.732Zm-7.786-2.05,8.647-11.231L70.27,51.772l-10,12.993L70.93,72.97ZM60.055,10.16V23.308h12Q66.045,16.728,60.055,10.16ZM20.069,87.019a1.423,1.423,0,0,1,0-2.837H57.524a1.423,1.423,0,0,1,0,2.837Zm0-15.245a1.423,1.423,0,0,1,0-2.837H47.091a1.423,1.423,0,0,1,0,2.837Z" transform="translate(1457.2 1703.421)" fill="#fff" stroke="#051b2c" stroke-width="0.7"></path></g></svg> 