<?xml version="1.0" encoding="UTF-8"?> <svg xmlns="http://www.w3.org/2000/svg" width="300" height="186" viewBox="0 0 300 186"><g id="Group_56" data-name="Group 56" transform="translate(-537 -2515)"><g id="Group_19" data-name="Group 19" transform="translate(455 2376)"><rect id="Rectangle_2" data-name="Rectangle 2" width="300" height="186" transform="translate(82 139)" fill="#051c2c"></rect></g><path id="Path_83" data-name="Path 83" d="M27.951,39.306H29.93v8.638a2.778,2.778,0,0,0,2.776,2.775H39.5a2.779,2.779,0,0,0,2.776-2.775V39.306h1.978a2.528,2.528,0,0,0,1.879-4.219l-8.15-9.058a2.528,2.528,0,0,0-3.759,0l-8.15,9.058A2.527,2.527,0,0,0,27.951,39.3ZM36.1,28.379l7.161,7.959H40.788A1.484,1.484,0,0,0,39.3,37.822v9.93H32.9v-9.93a1.484,1.484,0,0,0-1.484-1.484H28.941L36.1,28.379ZM67.638,16.661h1.978V47.945a2.778,2.778,0,0,0,2.775,2.775h6.792a2.779,2.779,0,0,0,2.776-2.775V16.661h1.978a2.528,2.528,0,0,0,1.879-4.219l-8.15-9.058a2.529,2.529,0,0,0-3.759,0l-8.15,9.058a2.528,2.528,0,0,0,1.879,4.219Zm8.15-10.927,7.161,7.959H80.475a1.484,1.484,0,0,0-1.484,1.484V47.752H72.586V15.177A1.484,1.484,0,0,0,71.1,13.693H68.628l7.162-7.959ZM58.749,59.668a.947.947,0,0,0-.294-.848,4.619,4.619,0,0,0-1.876-.892c-.311-.088-.656-.17-1.022-.257a9.424,9.424,0,0,1-3.645-1.421,4.072,4.072,0,0,1-1.647-2.913,3.9,3.9,0,0,1,1.129-3A5.679,5.679,0,0,1,54.46,48.82V47.638a1.484,1.484,0,0,1,2.968,0v1.191a5.341,5.341,0,0,1,3.858,2.5,1.485,1.485,0,0,1-2.614,1.409,2.744,2.744,0,0,0-2.044-1.031,3.945,3.945,0,0,0-3.093.684.975.975,0,0,0-.311.731,1.176,1.176,0,0,0,.507.784,7.563,7.563,0,0,0,2.509.878c.382.09.777.184,1.151.291a7.561,7.561,0,0,1,3.076,1.564,3.88,3.88,0,0,1,1.222,3.449,4.245,4.245,0,0,1-2.335,3.186,6.624,6.624,0,0,1-1.923.591v1.149a1.484,1.484,0,1,1-2.968,0V63.8a5.814,5.814,0,0,1-4.117-2.627,1.484,1.484,0,0,1,2.6-1.426c.627,1.146,3.526,1.637,5.082.863a1.265,1.265,0,0,0,.72-.946Zm43.542-7.817a6.756,6.756,0,0,0-6.58,5.262H84.725v-.788a1.484,1.484,0,0,0-1.484-1.484H71.354a15.517,15.517,0,0,0-9.239-12.712V27.507h1.978a2.528,2.528,0,0,0,1.879-4.219l-8.15-9.058a2.529,2.529,0,0,0-3.759,0l-8.15,9.058a2.528,2.528,0,0,0,1.879,4.219h1.978V42.128a15.514,15.514,0,0,0-9.238,12.711H28.646a1.484,1.484,0,0,0-1.484,1.484v.788H16.176a6.746,6.746,0,1,0,0,2.968H27.163v.788a1.484,1.484,0,0,0,1.2,1.456l4.021.793,2.1,5.063-2.283,3.4a1.482,1.482,0,0,0,.184,1.876l2.164,2.164-7.768,7.768a6.744,6.744,0,1,0,1.165,10.473h0a6.756,6.756,0,0,0,.931-8.373l7.769-7.77,2.164,2.164a1.485,1.485,0,0,0,1.876.184l3.4-2.283,5.063,2.1.793,4.021A1.484,1.484,0,0,0,51.4,85.1h3.061V96.09a6.746,6.746,0,1,0,2.968,0V85.1h3.061a1.484,1.484,0,0,0,1.456-1.2l.793-4.021,5.063-2.1,3.4,2.283a1.484,1.484,0,0,0,1.876-.184l2.164-2.164,7.768,7.768a6.749,6.749,0,1,0,2.1-2.1l-7.769-7.769,2.164-2.164a1.485,1.485,0,0,0,.184-1.876l-2.283-3.4,2.1-5.063,4.021-.793a1.484,1.484,0,0,0,1.2-1.456v-.788H95.711a6.746,6.746,0,1,0,6.58-8.23ZM9.6,62.373A3.778,3.778,0,1,1,13.374,58.6,3.782,3.782,0,0,1,9.6,62.373ZM25.842,91.767a3.778,3.778,0,1,1,0-5.342A3.782,3.782,0,0,1,25.842,91.767Zm33.879,10.9a3.778,3.778,0,1,1-3.778-3.778A3.782,3.782,0,0,1,59.721,102.671ZM91.386,86.425a3.782,3.782,0,1,1-2.671-1.1A3.782,3.782,0,0,1,91.386,86.425ZM51.257,24.539H48.783l7.162-7.959,7.161,7.959H60.632a1.484,1.484,0,0,0-1.484,1.484V41.177a15.45,15.45,0,0,0-6.405,0V26.023a1.484,1.484,0,0,0-1.484-1.484ZM55.944,43.81A12.514,12.514,0,1,1,43.43,56.324,12.528,12.528,0,0,1,55.944,43.81ZM81.755,59.65l-3.6.711a1.483,1.483,0,0,0-1.084.888l-2.706,6.532a1.483,1.483,0,0,0,.139,1.4l2.046,3.05-4.7,4.7-3.05-2.046a1.486,1.486,0,0,0-1.4-.139l-6.532,2.706a1.487,1.487,0,0,0-.888,1.084l-.711,3.6H52.618l-.711-3.6a1.483,1.483,0,0,0-.888-1.084l-6.532-2.706a1.483,1.483,0,0,0-1.4.139l-3.05,2.046-4.7-4.7,2.046-3.05a1.483,1.483,0,0,0,.139-1.4l-2.706-6.532a1.488,1.488,0,0,0-1.084-.888l-3.6-.711V57.81h10.4a15.481,15.481,0,0,0,30.82,0h10.4v1.84Zm20.536,2.725a3.778,3.778,0,1,1,3.778-3.778A3.782,3.782,0,0,1,102.291,62.375Z" transform="translate(631.15 2552.453)" fill="#fff" stroke="#051b2c" stroke-width="1"></path></g></svg> 