<?xml version="1.0" encoding="UTF-8"?> <svg xmlns="http://www.w3.org/2000/svg" width="300" height="186" viewBox="0 0 300 186"><g id="Group_74" data-name="Group 74" transform="translate(-123 -2515)"><g id="Group_18" data-name="Group 18" transform="translate(41 2376)"><rect id="Rectangle_2" data-name="Rectangle 2" width="300" height="186" transform="translate(82 139)" fill="#051c2c"></rect></g><g id="Group_73" data-name="Group 73" transform="translate(244.164 -25.822)"><path id="Path_106" data-name="Path 106" d="M99.373,22.59,87.658,10.875l0,11.72ZM83.129,7.673H23.021V36.384H55.165A11.355,11.355,0,0,1,66.482,47.7V97.919a11.355,11.355,0,0,1-11.317,11.317H16.153A11.355,11.355,0,0,1,4.836,97.919V47.7A11.355,11.355,0,0,1,16.153,36.384h2.34V5.408a2.263,2.263,0,0,1,2.264-2.264H85.389a2.261,2.261,0,0,1,1.641.7L106.4,23.213a2.259,2.259,0,0,1,.7,1.641V104.7a2.263,2.263,0,0,1-2.264,2.264H74.049a2.264,2.264,0,1,1,0-4.529H102.57V27.118h-14.9a4.544,4.544,0,0,1-3.2-1.327l-.013-.013a4.524,4.524,0,0,1-1.331-3.2V7.672ZM61.661,11.826h6.121v4.529H61.661ZM96.736,61.155H99v4.529H71.789V61.155Zm0-8.748H99v4.529H71.789V52.407ZM85.4,43.659h2.264v4.529H71.792V43.659ZM35.664,32.523H33.4V27.994H77.754v4.529Zm0-8.084H33.4V19.91H77.754v4.529ZM53.7,11.829h2.264v4.529H33.4V11.829ZM93.928,86.465a5.073,5.073,0,1,1-3.587,1.486A5.061,5.061,0,0,1,93.928,86.465Zm.385,4.688a.545.545,0,1,0,.159.385A.545.545,0,0,0,94.312,91.153ZM76.861,75.873a5.073,5.073,0,1,1-3.587,1.486A5.061,5.061,0,0,1,76.861,75.873Zm.385,4.688a.545.545,0,1,0,.159.385A.545.545,0,0,0,77.246,80.561Zm5.422,14.922-1.132,1.955-3.91-2.264L89.254,75.051l3.91,2.264ZM28.438,47.237H26.174V42.709H45.152v4.529ZM9.363,89.314H18.5V77.974H9.363Zm13.661,0H33.4V77.974H23.024Zm14.9,0H48.295V77.974H37.924Zm14.9,0h9.133V77.974H52.823Zm9.133,4.529H52.823v10.884h2.34a6.81,6.81,0,0,0,6.793-6.793Zm-13.661,0H37.924v10.884H48.3Zm-14.9,0H23.025v10.884H33.4Zm-14.9,0H9.363v4.091a6.81,6.81,0,0,0,6.793,6.793H18.5Zm-9.133-20.4H18.5V63.1H9.363Zm13.661,0H33.4V63.1H23.024Zm14.9,0H48.295V63.1H37.924Zm14.9,0h9.133V63.1H52.823ZM9.358,58.567h52.6V47.71a6.81,6.81,0,0,0-6.793-6.793H16.151A6.81,6.81,0,0,0,9.358,47.71Z" transform="translate(-27 2577.678)" fill="#fff" stroke="#051b2c" stroke-width="2"></path></g></g></svg> 