<?xml version="1.0" encoding="UTF-8"?> <svg xmlns="http://www.w3.org/2000/svg" width="300" height="186" viewBox="0 0 300 186"><g id="Group_3013" data-name="Group 3013" transform="translate(-67 -2039)"><g id="Group_3009" data-name="Group 3009" transform="translate(0 741)"><rect id="Rectangle_1" data-name="Rectangle 1" width="300" height="186" transform="translate(67 1298)" fill="#051c2c"></rect></g><path id="Path_3224" data-name="Path 3224" d="M14.272,52.129h6.573a1.275,1.275,0,0,0,1.266-1.124,38.821,38.821,0,0,1,24.5-31.5l.571,3.789a1.274,1.274,0,0,0,2.085.783L61.984,13.3a1.275,1.275,0,0,0-.323-2.145L46.334,4.6a1.274,1.274,0,0,0-1.761,1.362l.662,4.389A47.8,47.8,0,0,0,13,50.724a1.274,1.274,0,0,0,1.268,1.4ZM47.035,12.446a1.276,1.276,0,0,0,.882-1.408l-.482-3.2,11.328,4.845-9.4,7.968-.462-3.066a1.276,1.276,0,0,0-1.67-1.017A41.377,41.377,0,0,0,19.73,49.58H15.707a45.065,45.065,0,0,1,31.33-37.134Zm64.2,27.774a1.276,1.276,0,0,0-1.2-.481l-4.389.661A47.8,47.8,0,0,0,65.268,8.169a1.274,1.274,0,0,0-1.4,1.268v6.573a1.275,1.275,0,0,0,1.124,1.266,38.821,38.821,0,0,1,31.5,24.5l-3.789.571a1.274,1.274,0,0,0-.783,2.085L102.7,57.149a1.275,1.275,0,0,0,2.145-.322L111.4,41.5a1.277,1.277,0,0,0-.163-1.282Zm-7.923,13.709-7.968-9.4,3.066-.463a1.276,1.276,0,0,0,1.017-1.67A41.377,41.377,0,0,0,66.414,14.894V10.87A45.065,45.065,0,0,1,103.547,42.2a1.274,1.274,0,0,0,1.408.882l3.2-.482-4.845,11.328Zm3.247,5.1H99.982a1.275,1.275,0,0,0-1.266,1.124,38.821,38.821,0,0,1-24.5,31.5l-.571-3.789a1.274,1.274,0,0,0-2.085-.783L58.844,97.862a1.275,1.275,0,0,0,.323,2.145l15.326,6.554a1.275,1.275,0,0,0,1.762-1.362l-.662-4.389a47.8,47.8,0,0,0,32.231-40.376,1.274,1.274,0,0,0-1.268-1.4ZM73.793,98.712a1.275,1.275,0,0,0-.882,1.408l.482,3.2L62.064,98.473l9.4-7.968.462,3.066a1.276,1.276,0,0,0,1.67,1.017A41.377,41.377,0,0,0,101.1,61.578h4.024a45.065,45.065,0,0,1-31.33,37.134Zm-3.7-17.5a27.623,27.623,0,0,0,2.962-1.321l3.109,1.584a4.329,4.329,0,0,0,1.969.481,4.244,4.244,0,0,0,3.01-1.269l4.381-4.381a4.225,4.225,0,0,0,.789-4.979l-1.584-3.109a27.418,27.418,0,0,0,1.819-4.385l3.317-1.077a4.224,4.224,0,0,0,2.963-4.079V52.483A4.226,4.226,0,0,0,89.863,48.4l-3.317-1.077a27.2,27.2,0,0,0-1.819-4.385l1.584-3.109a4.225,4.225,0,0,0-.789-4.979l-4.381-4.381a4.225,4.225,0,0,0-4.979-.789l-3.109,1.584a27.371,27.371,0,0,0-4.385-1.819l-1.077-3.317a4.225,4.225,0,0,0-4.079-2.963H57.318a4.226,4.226,0,0,0-4.079,2.963L52.162,29.45a27.371,27.371,0,0,0-4.385,1.819l-3.109-1.584a4.225,4.225,0,0,0-4.979.789l-4.381,4.381a4.225,4.225,0,0,0-.789,4.979L36.1,42.941a27.238,27.238,0,0,0-1.327,2.98A27.106,27.106,0,0,0,21.655,84.777l-3.069,3.069A3.5,3.5,0,0,0,17.7,91.3L5.8,101.715a3.879,3.879,0,0,0-1.16,4.027,8.4,8.4,0,0,0,5.614,5.614,4.841,4.841,0,0,0,1.147.144,3.728,3.728,0,0,0,2.88-1.3L24.7,98.3a3.5,3.5,0,0,0,3.45-.882l3.074-3.074A27.124,27.124,0,0,0,70.1,81.217ZM37.107,36.654l4.381-4.381a1.694,1.694,0,0,1,2.02-.32l3.7,1.887a1.277,1.277,0,0,0,1.2-.02A24.74,24.74,0,0,1,53.519,31.7a1.276,1.276,0,0,0,.86-.831l1.284-3.95a1.692,1.692,0,0,1,1.654-1.2h6.195a1.692,1.692,0,0,1,1.654,1.2l1.284,3.95a1.274,1.274,0,0,0,.86.831,24.724,24.724,0,0,1,5.113,2.119,1.273,1.273,0,0,0,1.2.02l3.7-1.887a1.7,1.7,0,0,1,2.02.32l4.381,4.381a1.692,1.692,0,0,1,.32,2.02l-1.886,3.7a1.271,1.271,0,0,0,.02,1.195A24.724,24.724,0,0,1,84.3,48.683a1.274,1.274,0,0,0,.831.86l3.95,1.284a1.692,1.692,0,0,1,1.2,1.654v6.195a1.692,1.692,0,0,1-1.2,1.654l-3.95,1.284a1.274,1.274,0,0,0-.831.86,24.724,24.724,0,0,1-2.119,5.113,1.277,1.277,0,0,0-.02,1.2l1.886,3.7a1.694,1.694,0,0,1-.32,2.02l-4.381,4.381a1.692,1.692,0,0,1-2.02.32l-3.7-1.887a1.278,1.278,0,0,0-1.195.02c-.409.226-.827.436-1.25.64a27.361,27.361,0,0,0,.744-9.913q.256-.236.5-.482A16.976,16.976,0,0,0,48.413,43.575q-.252.252-.5.517a27.271,27.271,0,0,0-9.911.75c.206-.429.42-.855.649-1.269a1.277,1.277,0,0,0,.02-1.2l-1.886-3.7a1.694,1.694,0,0,1,.32-2.02Zm27.033,15.2a26.921,26.921,0,0,0-13.1-7.237A14.422,14.422,0,0,1,71.393,64.932,26.906,26.906,0,0,0,64.14,51.854ZM12.361,108.514a1.35,1.35,0,0,1-1.5.363,5.868,5.868,0,0,1-3.742-3.742,1.35,1.35,0,0,1,.363-1.5l11.7-10.245,3.427,3.427-10.245,11.7ZM26.346,95.609a.947.947,0,0,1-1.338,0l-4.624-4.624a.955.955,0,0,1,0-1.339l2.7-2.7a27.353,27.353,0,0,0,5.964,5.96l-2.7,2.7Zm18.642-.078A24.466,24.466,0,0,1,28.706,89.36l-2.076-2.076A24.537,24.537,0,1,1,69.3,67.684c0,.016,0,.031.006.046A24.861,24.861,0,0,1,69.527,71a24.545,24.545,0,0,1-1.566,8.66,1.318,1.318,0,0,0-.079.212A24.561,24.561,0,0,1,44.99,95.53ZM30.7,56.715a20.211,20.211,0,1,0,28.583,0,20.078,20.078,0,0,0-28.583,0ZM57.476,83.493A17.66,17.66,0,1,1,62.649,71,17.681,17.681,0,0,1,57.476,83.493Z" transform="translate(158.5 2073.505)" fill="#fff"></path></g></svg> 