<?xml version="1.0" encoding="UTF-8"?> <svg xmlns="http://www.w3.org/2000/svg" width="300" height="186" viewBox="0 0 300 186"><g id="Group_50" data-name="Group 50" transform="translate(-951 -2092)"><g id="Group_16" data-name="Group 16" transform="translate(869 1953)"><rect id="Rectangle_2" data-name="Rectangle 2" width="300" height="186" transform="translate(82 139)" fill="#051c2c"></rect></g><g id="Group_49" data-name="Group 49" transform="translate(1047 2131)"><path id="Path_38" data-name="Path 38" d="M28.687,51.1a6.681,6.681,0,0,0-5.132-6.482V41H20.132v3.622a6.67,6.67,0,0,0-.563,12.821L23.034,58.6a3.259,3.259,0,0,1-1.028,6.352h-.323a3.263,3.263,0,0,1-3.261-3.261V59.819H15v1.872a6.681,6.681,0,0,0,5.132,6.482v3.622h3.422V68.173a6.67,6.67,0,0,0,.563-12.821L20.653,54.2a3.259,3.259,0,0,1,1.028-6.352H22A3.263,3.263,0,0,1,25.265,51.1v.161Z" transform="translate(9.951 28.433)" fill="#fff" stroke="#051b2c" stroke-width="1"></path><path id="Path_39" data-name="Path 39" d="M53,28.951H63.265V5H53Zm3.422-20.53h3.422V25.53H56.422Z" transform="translate(36.963 2.843)" fill="#fff" stroke="#051b2c" stroke-width="1"></path><path id="Path_40" data-name="Path 40" d="M45,27.53H55.265V7H45Zm3.422-17.108h3.422V24.108H48.422Z" transform="translate(31.276 4.265)" fill="#fff" stroke="#051b2c" stroke-width="1"></path><path id="Path_41" data-name="Path 41" d="M37,26.108H47.265V9H37Zm3.422-13.687h3.422V22.687H40.422Z" transform="translate(25.589 5.687)" fill="#fff" stroke="#051b2c" stroke-width="1"></path><path id="Path_42" data-name="Path 42" d="M79.192,1H38.132A5.139,5.139,0,0,0,33,6.132V41.351a4.13,4.13,0,0,0,7.05,2.92l5.634-5.634H79.192a5.139,5.139,0,0,0,5.132-5.132V6.132A5.139,5.139,0,0,0,79.192,1ZM80.9,33.506a1.713,1.713,0,0,1-1.711,1.711H44.267l-6.638,6.636a.735.735,0,0,1-1.208-.5V6.132a1.713,1.713,0,0,1,1.711-1.711h41.06A1.713,1.713,0,0,1,80.9,6.132Z" transform="translate(22.746)" fill="#fff" stroke="#051b2c" stroke-width="1"></path><path id="Path_43" data-name="Path 43" d="M19.843,32.951v-3.67a4.865,4.865,0,0,0,.722-9l-3.334-1.668a1.461,1.461,0,0,1,.652-2.768h.5A1.464,1.464,0,0,1,19.843,17.3v.25h3.422V17.3a4.874,4.874,0,0,0-3.422-4.635V9H16.422v3.67a4.865,4.865,0,0,0-.722,9l3.334,1.668a1.461,1.461,0,0,1-.652,2.768h-.5a1.464,1.464,0,0,1-1.463-1.461V22.687H13v1.961a4.874,4.874,0,0,0,3.422,4.635v3.67Z" transform="translate(8.53 5.687)" fill="#fff" stroke="#051b2c" stroke-width="1"></path><path id="Path_44" data-name="Path 44" d="M79.345,46.222,67.683,55.945l-19.3-15.68A25.641,25.641,0,1,0,26.51,52.316L4.446,65.2a6.844,6.844,0,0,0,3.4,12.783v29.084h47.9V77.987A6.844,6.844,0,0,0,59.159,65.21L35.81,51.575a8.8,8.8,0,0,0-1.252-.506,25.559,25.559,0,0,0,6.729-3.346L67.765,69.234l8.867-7.387,11.413,19.4L76.06,88.44l31.01,14.474V69.833L96.843,75.968ZM4.422,26.662A22.241,22.241,0,1,1,26.662,48.9,22.266,22.266,0,0,1,4.422,26.662Zm6.843,76.987V77.07l20.53-11.907,20.53,11.906v26.581Zm46.18-35.477a3.425,3.425,0,0,1,1.271,4.669,3.526,3.526,0,0,1-4.657,1.278L31.795,61.209,9.535,74.117a3.519,3.519,0,0,1-4.664-1.278,3.429,3.429,0,0,1,1.285-4.674L29.335,54.626a5.654,5.654,0,0,1,4.833-.048Zm46.2,29.37L83.338,88.063,92.71,82.44l-15.175-25.8-9.8,8.164L44,45.524a25.828,25.828,0,0,0,2.385-2.472L67.71,60.374,78.44,51.43,95.646,80.678l8-4.8Z" fill="#fff" stroke="#051b2c" stroke-width="1"></path><path id="Path_45" data-name="Path 45" d="M42.638,23.819A18.819,18.819,0,1,0,23.819,42.638,18.841,18.841,0,0,0,42.638,23.819Zm-34.216,0a15.4,15.4,0,1,1,15.4,15.4A15.415,15.415,0,0,1,8.422,23.819Z" transform="translate(2.843 2.843)" fill="#fff" stroke="#051b2c" stroke-width="1"></path></g></g></svg> 