<?xml version="1.0" encoding="UTF-8"?> <svg xmlns="http://www.w3.org/2000/svg" width="300" height="186" viewBox="0 0 300 186"><g id="Group_43" data-name="Group 43" transform="translate(-123 -1669)"><g id="Group_10" data-name="Group 10" transform="translate(41 1530)"><rect id="Rectangle_2" data-name="Rectangle 2" width="300" height="186" transform="translate(82 139)" fill="#051c2c"></rect></g><path id="Path_33" data-name="Path 33" d="M31.989,2.841H67.134A9.183,9.183,0,0,1,76.291,12V38.581a17.8,17.8,0,0,1,0,35.538V100.7a9.183,9.183,0,0,1-9.157,9.158H24.3a9.183,9.183,0,0,1-9.158-9.158V12A9.183,9.183,0,0,1,24.3,2.84h7.685ZM74.106,38.58V12a6.995,6.995,0,0,0-6.973-6.973h-6.69a6.208,6.208,0,0,1-1.69,3.263,6.038,6.038,0,0,1-4.312,1.822H36.995a6.043,6.043,0,0,1-4.313-1.822,6.208,6.208,0,0,1-1.69-3.263H24.3A6.995,6.995,0,0,0,17.33,12v88.7a6.995,6.995,0,0,0,6.973,6.973H67.132A6.995,6.995,0,0,0,74.1,100.7V74.118a17.8,17.8,0,0,1,0-35.538Zm12.137,6.725a15.617,15.617,0,1,0,4.575,11.043,15.567,15.567,0,0,0-4.575-11.043Zm-27.33-1.636H53.954L52.7,42.792,50.66,41.371a4.644,4.644,0,1,0-1.246,1.783l3.5,2.443a1.083,1.083,0,0,0,.7.257h5.294a1.092,1.092,0,0,0,0-2.185ZM48.076,37.945a2.456,2.456,0,1,0,.719,1.736,2.446,2.446,0,0,0-.719-1.736ZM55.37,52.737H51.5L44.5,47.858a1.082,1.082,0,0,0-.622-.2v0H35.827a4.635,4.635,0,1,0,0,2.184h7.721l2.334,1.63,4.576,3.193a1.092,1.092,0,0,0,.7.257h4.207a1.092,1.092,0,0,0,0-2.185ZM33.053,47.014a2.456,2.456,0,1,0,.718,1.738v0h0v0a2.443,2.443,0,0,0-.718-1.732ZM43.662,68.379a4.634,4.634,0,1,0,4.321,2.948l1.47-1.026,1.7-1.187h7.819a1.092,1.092,0,0,0,0-2.185H50.821a1.087,1.087,0,0,0-.7.257l-3.38,2.359a4.629,4.629,0,0,0-3.076-1.166Zm2.454,4.638a2.451,2.451,0,1,0-.718,1.736,2.454,2.454,0,0,0,.718-1.736ZM38.672,56.948a4.637,4.637,0,1,0,4.51,5.73H55.907a1.092,1.092,0,0,0,0-2.184H43.181a4.641,4.641,0,0,0-4.51-3.546Zm1.736,2.9a2.456,2.456,0,1,0,.718,1.736,2.446,2.446,0,0,0-.718-1.736Zm28.581.02,0,.038c0,.012,0,.025,0,.037v.009c0,.014,0,.027,0,.041a4.778,4.778,0,0,0,1.68,3.728,6.709,6.709,0,0,0,3.443,1.592v1.224a1.092,1.092,0,1,0,2.184,0V65.325a6.632,6.632,0,0,0,1.533-.419,5.51,5.51,0,0,0,2.36-1.793,4.953,4.953,0,0,0,.882-3.151,4.69,4.69,0,0,0-1.217-3.012c-1.177-1.217-2.876-1.528-4.558-1.838s-3.37-.618-3.691-1.988a3.065,3.065,0,0,1-.046-1.257,2.358,2.358,0,0,1,.436-1,3.36,3.36,0,0,1,1.431-1.05,4.582,4.582,0,0,1,1.608-.325,1.073,1.073,0,0,0,.326,0l.137.007a4.605,4.605,0,0,1,2.782,1.111,2.636,2.636,0,0,1,.963,2.037h0v.025h0l0,.038a1.09,1.09,0,0,0,2.177.137l0-.038h0V52.8l0-.038h0v-.009a4.768,4.768,0,0,0-1.679-3.758A6.692,6.692,0,0,0,76.293,47.4V46.159a1.092,1.092,0,1,0-2.184,0v1.226a6.622,6.622,0,0,0-1.5.409,5.534,5.534,0,0,0-2.353,1.757,4.521,4.521,0,0,0-.838,1.923,5.246,5.246,0,0,0,.063,2.145c.648,2.758,3.021,3.193,5.423,3.634,1.34.246,2.693.494,3.382,1.207a2.508,2.508,0,0,1,.611,1.6,2.772,2.772,0,0,1-.464,1.76A3.321,3.321,0,0,1,77,62.891a4.594,4.594,0,0,1-1.566.329A1.062,1.062,0,0,0,75.2,63.2a1.1,1.1,0,0,0-.218.023l-.076,0A4.612,4.612,0,0,1,72.125,62.1a2.642,2.642,0,0,1-.963-2.025v-.043l0-.038a1.091,1.091,0,0,0-2.178-.127ZM58.208,5.026H33.229a4.032,4.032,0,0,0,1.006,1.737,3.87,3.87,0,0,0,2.76,1.165H54.442A3.87,3.87,0,0,0,57.2,6.763,4.038,4.038,0,0,0,58.208,5.026Z" transform="translate(219.354 1705.66)" fill="#fff" stroke="#fff" stroke-width="0.4" fill-rule="evenodd"></path></g></svg> 