<?xml version="1.0" encoding="UTF-8"?> <svg xmlns="http://www.w3.org/2000/svg" width="300" height="186" viewBox="0 0 300 186"><g id="Group_77" data-name="Group 77" transform="translate(-537 -2092)"><g id="Group_48" data-name="Group 48"><g id="Group_15" data-name="Group 15" transform="translate(455 1953)"><rect id="Rectangle_2" data-name="Rectangle 2" width="300" height="186" transform="translate(82 139)" fill="#051c2c"></rect></g></g><path id="Path_109" data-name="Path 109" d="M.837,50.331l.006-.3.007-.318L.858,49.4.87,49.08l.013-.315L.9,48.449l.017-.314.019-.314.021-.313.021-.313L1,46.882l.027-.313.028-.31.03-.311.034-.311.035-.31.035-.309.039-.309.039-.309.044-.306.044-.312.046-.306.048-.305.048-.305.052-.3.053-.3.055-.3.057-.3.059-.3.061-.3.062-.3.065-.3.066-.3.067-.3.07-.3.072-.3.073-.3.075-.3.077-.294.079-.3.08-.293L2.7,37.5l.084-.292.085-.291.085-.291.09-.29.091-.29.093-.288.059-.181a1.459,1.459,0,1,1,2.773.9L6,36.656l-.085.27-.086.272-.084.273-.082.273-.081.274-.076.276-.076.275-.077.276-.073.276-.072.277-.071.278-.068.278L5,40.234l-.066.279-.065.281-.061.282-.061.282-.058.282-.058.284-.057.29-.054.285-.052.284-.049.286-.048.286-.047.286-.045.287-.043.287-.04.29-.04.288-.037.291-.036.29-.036.285-.033.292-.03.291-.029.293-.027.294-.025.293-.024.294-.021.294-.019.3-.018.3-.017.3-.013.3-.012.3-.009.3-.011.3v.584a1.459,1.459,0,1,1-2.918-.037Zm6.8,19.279a1.459,1.459,0,1,0-2.667,1.178,49.27,49.27,0,0,0,5.575,9.576c.786,1.048,1.6,2.058,2.458,3.045A1.459,1.459,0,1,0,15.2,81.49a46.518,46.518,0,0,1-7.56-11.88Zm.567-40.138a1.459,1.459,0,0,0,1.229-.761l.172-.312.138-.244.137-.244.141-.241.141-.241.144-.241.144-.239.146-.238.148-.238.123-.2A1.459,1.459,0,1,0,8.4,24.732l-.125.2-.157.253-.154.253-.154.255-.153.255-.149.257-.15.257-.147.265-.146.259-.19.337a1.459,1.459,0,0,0,1.333,2.153ZM4.965,61.583Q4.642,60.2,4.4,58.81a1.459,1.459,0,1,0-2.874.494q.253,1.479.594,2.943a1.459,1.459,0,0,0,2.841-.664ZM20.4,15.4c.645-.535,1.3-1.05,1.965-1.553s1.352-.981,2.049-1.449c.311-.205.622-.409.936-.608.561-.349,1.113-.686,1.683-1.01a1.46,1.46,0,0,0-1.469-2.524c-.772.449-1.523.908-2.274,1.392-.662.433-1.311.878-1.955,1.339s-1.267.937-1.887,1.429c-.7.556-1.371,1.122-2.038,1.713-.3.263-.586.526-.874.795-.92.862-1.8,1.744-2.658,2.669a1.459,1.459,0,0,0,2.145,1.973c.806-.87,1.634-1.7,2.5-2.508C19.139,16.482,19.763,15.934,20.4,15.4ZM45.741,4.839l.2-.018.293-.026.293-.024.3-.021.3-.019.3-.018.3-.016.3-.015.3-.012.3-.01.3-.009.3-.006h.9a46.667,46.667,0,0,1,9.7,1.017,1.459,1.459,0,0,0,.6-2.852,49.6,49.6,0,0,0-10.156-1.08h-.787l-.318.006-.319.007-.315.009-.316.01-.314.013-.315.016-.314.017-.314.018-.313.021-.313.022L46,1.9l-.313.026-.218.02a1.459,1.459,0,1,0,.276,2.9ZM34.723,7.245l.239-.083.268-.093.269-.09.27-.089.272-.088.272-.085.273-.083.272-.083.274-.08.284-.082a1.459,1.459,0,0,0-.8-2.806l-.3.088-.292.084-.29.089-.292.089-.287.091-.287.092-.287.094-.286.1-.286.1-.256.089a1.459,1.459,0,0,0,.967,2.751ZM97.145,49.732a1.459,1.459,0,0,0-.7,1.247A46.353,46.353,0,0,1,94.318,64.9a1.459,1.459,0,0,0,2.782.872A49.339,49.339,0,0,0,99.172,55.3c.123-1.442.184-2.877.187-4.324a1.459,1.459,0,0,0-2.214-1.246ZM92.508,71.944a1.459,1.459,0,0,0-1.459.763q-.663,1.249-1.4,2.456a1.459,1.459,0,1,0,2.488,1.52q.786-1.283,1.489-2.606a1.459,1.459,0,0,0-1.116-2.132Zm14.53-49.985v1.047a3.479,3.479,0,0,1-2.412,3.321l-.655.212a.529.529,0,0,0-.366.384,15.594,15.594,0,0,1-1.257,3.03.525.525,0,0,0-.008.536l.309.6a3.485,3.485,0,0,1-.641,4.055l-.745.744a3.479,3.479,0,0,1-4.049.641l-.606-.309a.524.524,0,0,0-.539.008A15.675,15.675,0,0,1,93.031,37.5a.529.529,0,0,0-.385.376l-.21.644a3.479,3.479,0,0,1-3.321,2.412H88.069a3.486,3.486,0,0,1-3.322-2.413l-.207-.639a.522.522,0,0,0-.385-.38,15.59,15.59,0,0,1-3.038-1.26.53.53,0,0,0-.538-.007l-.6.309A3.494,3.494,0,0,1,75.92,35.9l-.741-.742a3.479,3.479,0,0,1-.641-4.054l.3-.6a.534.534,0,0,0,0-.545,15.522,15.522,0,0,1-1.26-3.037.53.53,0,0,0-.375-.385l-.645-.209a3.479,3.479,0,0,1-2.41-3.321V21.961a3.479,3.479,0,0,1,2.413-3.321l.648-.211a.53.53,0,0,0,.37-.386,15.644,15.644,0,0,1,1.259-3.03.526.526,0,0,0,.007-.535l-.308-.6a3.488,3.488,0,0,1,.642-4.058l.74-.738a3.479,3.479,0,0,1,4.054-.646l.6.308a.532.532,0,0,0,.54-.007,15.538,15.538,0,0,1,3.03-1.258.523.523,0,0,0,.386-.373l.209-.644A3.479,3.479,0,0,1,88.067,4.04h1.056a3.479,3.479,0,0,1,3.321,2.415l.212.653a.513.513,0,0,0,.38.364h0a15.551,15.551,0,0,1,3.03,1.259.531.531,0,0,0,.536.007l.608-.309a3.479,3.479,0,0,1,4.053.644l.741.737a3.486,3.486,0,0,1,.642,4.056l-.305.6a.527.527,0,0,0,0,.542,15.633,15.633,0,0,1,1.259,3.03.531.531,0,0,0,.377.388l.643.209A3.479,3.479,0,0,1,107.037,21.959Zm-2.918,0a.547.547,0,0,0-.4-.548l-.64-.209a3.45,3.45,0,0,1-2.27-2.334A12.64,12.64,0,0,0,99.785,16.4a3.446,3.446,0,0,1-.044-3.255l.308-.606a.55.55,0,0,0-.107-.673l-.74-.736a.549.549,0,0,0-.673-.112l-.612.31a3.443,3.443,0,0,1-3.249-.046A12.633,12.633,0,0,0,92.2,10.256a3.448,3.448,0,0,1-2.332-2.269l-.209-.642a.553.553,0,0,0-.548-.4H88.062a.561.561,0,0,0-.55.4l-.21.648a3.434,3.434,0,0,1-2.332,2.266,12.717,12.717,0,0,0-2.464,1.022,3.446,3.446,0,0,1-3.255.044l-.6-.306a.549.549,0,0,0-.673.107l-.738.74a.548.548,0,0,0-.107.673l.313.614a3.437,3.437,0,0,1-.049,3.246,12.81,12.81,0,0,0-1.025,2.469A3.451,3.451,0,0,1,74.1,21.2l-.642.209a.549.549,0,0,0-.4.549V23a.548.548,0,0,0,.4.548l.633.205a3.453,3.453,0,0,1,2.279,2.334,12.594,12.594,0,0,0,1.025,2.469,3.443,3.443,0,0,1,.044,3.255l-.308.6a.547.547,0,0,0,.105.668l.741.741a.548.548,0,0,0,.673.107l.6-.308a3.449,3.449,0,0,1,3.255.044,12.588,12.588,0,0,0,2.469,1.024,3.435,3.435,0,0,1,2.331,2.272l.21.646a.553.553,0,0,0,.548.4h1.046a.548.548,0,0,0,.549-.4l.208-.64A3.448,3.448,0,0,1,92.2,34.692a12.588,12.588,0,0,0,2.469-1.024,3.456,3.456,0,0,1,3.255-.045l.6.309a.544.544,0,0,0,.667-.105l.744-.741a.551.551,0,0,0,.106-.673l-.311-.608a3.444,3.444,0,0,1,.046-3.255,12.666,12.666,0,0,0,1.024-2.469,3.446,3.446,0,0,1,2.269-2.332l.644-.209a.549.549,0,0,0,.4-.549Zm-5.063.523a10.466,10.466,0,1,1-10.463-10.46,10.466,10.466,0,0,1,10.463,10.46Zm-2.918,0a7.55,7.55,0,1,0-7.55,7.551,7.55,7.55,0,0,0,7.55-7.551ZM87.822,83.025V93.752a1.459,1.459,0,0,1-1.459,1.459H80.518v9.268a1.459,1.459,0,0,1-1.459,1.459h-56.6A1.459,1.459,0,0,1,21,104.479V93.752a1.459,1.459,0,0,1,1.459-1.459H28.3V84.481h-8.66a1.459,1.459,0,0,1-1.459-1.459V72.3a1.459,1.459,0,0,1,1.459-1.459h8.769a4.714,4.714,0,0,1-.6-5.25l.511-1a1.8,1.8,0,0,0-.026-1.758,24.591,24.591,0,0,1-2-4.815,1.8,1.8,0,0,0-1.235-1.261L24,56.412a4.735,4.735,0,0,1-3.32-4.57V50.12A4.736,4.736,0,0,1,24,45.55l1.061-.343A1.8,1.8,0,0,0,26.3,43.943a24.658,24.658,0,0,1,2-4.811,1.8,1.8,0,0,0,.025-1.763l-.507-.992a4.736,4.736,0,0,1,.884-5.581l1.218-1.218a4.736,4.736,0,0,1,5.578-.883l.994.507a1.8,1.8,0,0,0,1.764-.024,24.521,24.521,0,0,1,4.813-1.994,1.8,1.8,0,0,0,1.262-1.235l.346-1.062a4.727,4.727,0,0,1,4.567-3.318h1.728a4.733,4.733,0,0,1,4.569,3.321l.345,1.057a1.8,1.8,0,0,0,1.259,1.236,24.683,24.683,0,0,1,4.811,1.994,1.8,1.8,0,0,0,1.762.025l1-.508a4.733,4.733,0,0,1,5.579.884L71.5,30.795a4.731,4.731,0,0,1,.882,5.581l-.505.994a1.8,1.8,0,0,0,.025,1.762,24.916,24.916,0,0,1,2,4.81,1.8,1.8,0,0,0,1.228,1.264l1.059.343a4.736,4.736,0,0,1,3.321,4.57v1.723a4.735,4.735,0,0,1-3.32,4.57l-1.065.345A1.8,1.8,0,0,0,73.9,58.019,24.712,24.712,0,0,1,71.9,62.831a1.8,1.8,0,0,0-.025,1.762l.507,1a4.714,4.714,0,0,1-.6,5.249H76.25A1.459,1.459,0,0,1,77.709,72.3v9.269h8.657a1.459,1.459,0,0,1,1.457,1.457Zm-13.03-9.269H67.574a4.693,4.693,0,0,1-1.321,0H59.959c-.367.159-.746.286-1.122.428v7.384H74.792ZM66.038,92.294V84.481H50.086v7.813ZM42.778,95.212v7.808H58.735V95.21ZM39.973,73.758v7.811H55.923V73.758Zm-7.04-2.918h.732a1.966,1.966,0,0,0,.505-.168l1-.506a4.736,4.736,0,0,1,4.478.062c.4.224.819.419,1.235.613H59.293c.423-.2.848-.389,1.257-.613a4.741,4.741,0,0,1,4.48-.062l1,.507a2,2,0,0,0,.506.167h.73a1.879,1.879,0,0,0,.96-.515l1.217-1.218a1.836,1.836,0,0,0,.348-2.193l-.506-1a4.735,4.735,0,0,1,.062-4.48A21.866,21.866,0,0,0,71.1,57.193a4.738,4.738,0,0,1,3.121-3.208l1.063-.346a1.839,1.839,0,0,0,1.305-1.8V50.12a1.839,1.839,0,0,0-1.306-1.8l-1.062-.345a4.737,4.737,0,0,1-3.12-3.209,21.984,21.984,0,0,0-1.761-4.242,4.737,4.737,0,0,1-.061-4.48l.505-.992a1.836,1.836,0,0,0-.346-2.2L68.22,31.642a1.841,1.841,0,0,0-2.194-.347l-1,.508a4.737,4.737,0,0,1-4.477-.063,21.857,21.857,0,0,0-4.242-1.759,4.741,4.741,0,0,1-3.21-3.123L52.754,25.8a1.837,1.837,0,0,0-1.8-1.306H49.234a1.836,1.836,0,0,0-1.8,1.3l-.343,1.056a4.747,4.747,0,0,1-3.21,3.127,21.683,21.683,0,0,0-4.242,1.759,4.743,4.743,0,0,1-4.481.062l-1-.508a1.842,1.842,0,0,0-2.194.349l-1.21,1.217a1.836,1.836,0,0,0-.349,2.2l.505.99a4.743,4.743,0,0,1-.061,4.489A21.811,21.811,0,0,0,29.1,44.775a4.752,4.752,0,0,1-3.125,3.209l-1.061.345a1.839,1.839,0,0,0-1.305,1.8v1.723a1.837,1.837,0,0,0,1.305,1.8l1.054.337A4.741,4.741,0,0,1,29.1,57.19a21.669,21.669,0,0,0,1.76,4.244,4.737,4.737,0,0,1,.063,4.48l-.508,1a1.838,1.838,0,0,0,.348,2.192l1.218,1.219a1.875,1.875,0,0,0,.953.519ZM21.1,81.567H37.055V73.755H33.943a4.714,4.714,0,0,1-1.33,0H21.1ZM31.22,92.294H47.171V84.481H31.217Zm-7.3,10.726H39.866V95.21H23.915Zm53.691-7.81H61.649v7.81H77.6Zm7.3-10.728H68.954v7.813H84.907Zm-52-33.5A17.19,17.19,0,1,1,50.1,68.171,17.19,17.19,0,0,1,32.908,50.982Zm2.918,0A14.274,14.274,0,1,0,50.1,36.713,14.274,14.274,0,0,0,35.826,50.982ZM50.1,56.753A2.159,2.159,0,0,1,47.942,54.6a1.459,1.459,0,1,0-2.918,0A5.063,5.063,0,0,0,48.64,59.43v.827a1.459,1.459,0,0,0,2.918,0V59.43A5.058,5.058,0,0,0,50.1,49.524a2.157,2.157,0,1,1,2.156-2.157,1.459,1.459,0,0,0,2.918,0,5.063,5.063,0,0,0-3.615-4.834v-.827a1.459,1.459,0,1,0-2.918,0v.827A5.058,5.058,0,0,0,50.1,52.44a2.157,2.157,0,0,1,0,4.313Z" transform="translate(632.663 2130.769)" fill="#fff" stroke="#051b2c" stroke-width="1.2"></path></g></svg> 