<?xml version="1.0" encoding="UTF-8"?> <svg xmlns="http://www.w3.org/2000/svg" width="300" height="186" viewBox="0 0 300 186"><g id="Group_76" data-name="Group 76" transform="translate(-123 -2092)"><g id="Group_14" data-name="Group 14" transform="translate(41 1953)"><rect id="Rectangle_2" data-name="Rectangle 2" width="300" height="186" transform="translate(82 139)" fill="#051c2c"></rect></g><path id="Path_108" data-name="Path 108" d="M14.254,155.047a1.754,1.754,0,0,1,0-3.507H117.5a1.754,1.754,0,0,1,0,3.507ZM31.68,116.774a5.264,5.264,0,0,1,2.477.636l9.8-7.65a5.07,5.07,0,0,1,8.352-5.2l8.527-4.1a5.065,5.065,0,1,1,10.018.438l9.25,5.568a5.038,5.038,0,0,1,4.187-.7L95.183,98.1a5.04,5.04,0,1,1,2.039,2.828l-10,7.058a5.066,5.066,0,1,1-9.185,1.381l-9.031-5.436a5.051,5.051,0,0,1-6.686-.307l-8.505,4.121a5.065,5.065,0,0,1-7.716,4.779l-9.667,7.541a5.083,5.083,0,1,1-4.757-3.288Zm1.1,3.968a1.553,1.553,0,1,0,0,2.192,1.535,1.535,0,0,0,0-2.192Zm17.1-13.612a1.553,1.553,0,1,0,0,2.192,1.535,1.535,0,0,0,0-2.192Zm51.315-11.508a1.553,1.553,0,1,0,0,2.192,1.575,1.575,0,0,0,0-2.192ZM84.07,109.584a1.553,1.553,0,1,0,0,2.192,1.535,1.535,0,0,0,0-2.192Zm-17.1-10.7a1.553,1.553,0,1,0,0,2.192,1.535,1.535,0,0,0,0-2.192Zm-29.746-1.6v.285a1.754,1.754,0,0,1-3.507,0v-.285a4.582,4.582,0,0,1-3.595-4.231,1.754,1.754,0,0,1,3.507,0c0,.723,2.1,1.447,3.332.526a.712.712,0,0,0,.351-.526c0-.614-1.074-.789-2.148-.986-2.521-.46-5.042-.9-5.042-4.428a4.582,4.582,0,0,1,3.595-4.231V83.1a1.754,1.754,0,0,1,3.507,0v.307a4.582,4.582,0,0,1,3.595,4.231,1.754,1.754,0,0,1-3.507,0c0-.723-2.1-1.447-3.332-.526a.751.751,0,0,0-.351.526c0,.614,1.074.811,2.148.986,2.521.46,5.042.9,5.042,4.428a4.582,4.582,0,0,1-3.595,4.231Zm-1.754,7.234a14.16,14.16,0,1,1,14.16-14.16,14.154,14.154,0,0,1-14.16,14.16ZM27.932,97.9a10.664,10.664,0,1,0,0-15.081,10.663,10.663,0,0,0,0,15.081Zm66.659,14.445h10.982a1.759,1.759,0,0,1,1.754,1.754v30.579a1.759,1.759,0,0,1-1.754,1.754H94.591a1.759,1.759,0,0,1-1.754-1.754V114.1a1.745,1.745,0,0,1,1.754-1.754Zm9.228,3.507H96.345v27.071h7.475ZM26.178,130.277H37.16a1.759,1.759,0,0,1,1.754,1.754V144.7a1.759,1.759,0,0,1-1.754,1.754H26.178a1.759,1.759,0,0,1-1.754-1.754v-12.67a1.745,1.745,0,0,1,1.754-1.754Zm9.228,3.507H27.932v9.141h7.475Zm7.869-13H54.258a1.759,1.759,0,0,1,1.754,1.754V144.7a1.759,1.759,0,0,1-1.754,1.754H43.276a1.759,1.759,0,0,1-1.754-1.754V122.539a1.745,1.745,0,0,1,1.754-1.754Zm9.25,3.507H45.052v18.632h7.475Zm7.847-5.787H71.356a1.759,1.759,0,0,1,1.754,1.754v24.419a1.759,1.759,0,0,1-1.754,1.754H60.374a1.759,1.759,0,0,1-1.754-1.754v-24.4a1.764,1.764,0,0,1,1.754-1.776Zm9.228,3.529H62.149v20.912H69.6Zm7.869,3.924H88.454a1.759,1.759,0,0,1,1.754,1.754V144.7a1.759,1.759,0,0,1-1.754,1.754H77.472a1.759,1.759,0,0,1-1.754-1.754V127.713a1.759,1.759,0,0,1,1.754-1.754Zm9.25,3.507H79.247v13.459h7.475Z" transform="translate(207 2069.3)" fill="#fff" stroke="#051b2c" stroke-width="1.5"></path></g></svg> 