<?xml version="1.0" encoding="UTF-8"?> <svg xmlns="http://www.w3.org/2000/svg" width="300" height="186" viewBox="0 0 300 186"><g id="Group_99" data-name="Group 99" transform="translate(-231 -2902)"><g id="Group_98" data-name="Group 98"><rect id="Rectangle_5" data-name="Rectangle 5" width="300" height="186" transform="translate(231 2902)" fill="#051c2c"></rect></g><path id="Path_981" data-name="Path 981" d="M226.47,203.62H172.9a3.152,3.152,0,0,1-3.152-3.152v-9.453H155.609v3.124h10.234a.8.8,0,0,1,.8.8v1.575a.8.8,0,0,1-.8.8H142.209a.8.8,0,0,1-.8-.8V194.94a.8.8,0,0,1,.8-.8h10.255v-3.124H103.576a3.152,3.152,0,0,1-3.152-3.152v-63.07a3.152,3.152,0,0,1,3.152-3.152H204.413a3.152,3.152,0,0,1,3.152,3.152v14.179h18.906a3.151,3.151,0,0,1,3.152,3.152v58.344a3.154,3.154,0,0,1-3.153,3.153Zm-53.506-3.183H195V159.464H172.964ZM204.451,124.8H103.64v63.031h66.106V159.459a3.152,3.152,0,0,1,3.152-3.152h9.453V142.128a3.151,3.151,0,0,1,3.152-3.152h18.951V124.805Zm22.058,17.332H185.566v14.172h9.393a3.152,3.152,0,0,1,3.152,3.152V200.44h28.4ZM205.23,194.143h1.577a.8.8,0,0,1,.8.8v1.575a.8.8,0,0,1-.8.8H205.23a.8.8,0,0,1-.8-.8v-1.575a.8.8,0,0,1,.8-.8Zm-20.48,3.176h-1.577a.8.8,0,0,1-.8-.8v-1.575a.8.8,0,0,1,.8-.8h1.577a.8.8,0,0,1,.8.8v1.575A.8.8,0,0,1,184.75,197.319Z" transform="translate(216.141 2832.868)" fill="#fff" stroke="#fff" stroke-width="1" fill-rule="evenodd"></path></g></svg> 