<?xml version="1.0" encoding="UTF-8"?> <svg xmlns="http://www.w3.org/2000/svg" width="300" height="186" viewBox="0 0 300 186"><g id="Group_93" data-name="Group 93" transform="translate(-1465 -2584)"><rect id="Rectangle_3" data-name="Rectangle 3" width="300" height="186" transform="translate(1465 2584)" fill="#051c2c"></rect><path id="Union_17" data-name="Union 17" d="M53.355,107h0a1.939,1.939,0,0,1-.416-.058c-.057-.011-.112-.007-.166-.022a1.524,1.524,0,0,1-.152-.067,1.918,1.918,0,0,1-.4-.179.033.033,0,0,1-.015-.007l-12.839-8.1a2.156,2.156,0,0,1,2.3-3.649l11.813,7.454,12.076-5.979h0a2.158,2.158,0,1,1,1.915,3.867L54.31,106.776c-.019.011-.041,0-.06.015a2.165,2.165,0,0,1-.89.209Zm32.995-3.41h0a2.145,2.145,0,0,1-.756-.153,1.526,1.526,0,0,1-.149-.06c-.049-.024-.095-.057-.144-.086-.068-.04-.142-.059-.207-.1L65.785,89.309a1.713,1.713,0,0,1-.119-.129,1.937,1.937,0,0,1-.3-.315,2.182,2.182,0,0,1-.226-.336,2.114,2.114,0,0,1-.136-.368,1.955,1.955,0,0,1-.089-.438c0-.057-.035-.106-.035-.164V70.937l-6.32-3.787a7.127,7.127,0,0,1-9.314,0l-6.319,3.787V87.559c0,.058-.03.11-.035.168a2.149,2.149,0,0,1-.089.43,1.879,1.879,0,0,1-.138.375,2.256,2.256,0,0,1-.224.332,2.141,2.141,0,0,1-.3.319c-.043.038-.069.09-.116.127l-19.31,13.876c-.065.046-.136.063-.2.1s-.1.065-.153.09-.1.038-.149.06a2.186,2.186,0,0,1-.755.152,2.131,2.131,0,0,1-.752-.152,1.575,1.575,0,0,1-.153-.062c-.054-.026-.1-.059-.147-.089-.067-.039-.141-.057-.2-.1L.9,89.309c-.05-.037-.074-.088-.119-.127a1.938,1.938,0,0,1-.3-.319,2,2,0,0,1-.224-.332,2.191,2.191,0,0,1-.138-.373,1.941,1.941,0,0,1-.089-.433c0-.057-.035-.108-.035-.166V69.716c0-.058.03-.107.035-.166a2.427,2.427,0,0,1,.017-.244,2.032,2.032,0,0,1,.08-.241,2.453,2.453,0,0,1,.127-.319,1.935,1.935,0,0,1,.114-.214c.015-.023.017-.049.032-.073.035-.049.086-.071.125-.116a2.167,2.167,0,0,1,.251-.251c.046-.038.071-.09.119-.127L20.208,54.092c.024-.017.05-.017.072-.032a2.125,2.125,0,0,1,.418-.189,2.229,2.229,0,0,1,.362-.134,1.981,1.981,0,0,1,.371-.01,1.923,1.923,0,0,1,.45.013,2.107,2.107,0,0,1,.315.116,2.1,2.1,0,0,1,.455.2.6.6,0,0,1,.069.03L40.88,67.138l6.028-3.613a7.108,7.108,0,0,1,4.838-8.851V48.825L33.341,35.6c-.05-.035-.072-.088-.117-.125a1.97,1.97,0,0,1-.3-.321,2.027,2.027,0,0,1-.224-.332,2.135,2.135,0,0,1-.138-.373,1.919,1.919,0,0,1-.089-.431c0-.058-.035-.111-.035-.169V16c0-.061.03-.11.035-.168.007-.085,0-.162.017-.244a2.206,2.206,0,0,1,.08-.239,2.347,2.347,0,0,1,.127-.318c.039-.076.071-.149.117-.22.015-.022.017-.047.032-.069.035-.049.086-.071.125-.116a2.169,2.169,0,0,1,.248-.248c.046-.041.072-.094.121-.132L52.65.374c.024-.018.05-.018.072-.032a1.99,1.99,0,0,1,.416-.19A2.075,2.075,0,0,1,53.5.016,1.142,1.142,0,0,1,53.756,0c.039,0,.078,0,.117,0a2.118,2.118,0,0,1,.448.013,2.528,2.528,0,0,1,.317.119,2.091,2.091,0,0,1,.455.2c.021.013.045.015.066.03L74.466,14.249c.05.035.071.086.117.125a1.943,1.943,0,0,1,.25.25c.038.044.09.069.127.117.017.023.017.049.035.073a2.224,2.224,0,0,1,.112.213,1.9,1.9,0,0,1,.127.317,1.985,1.985,0,0,1,.082.244,1.925,1.925,0,0,1,.017.246c0,.056.035.106.035.164V33.846c0,.061-.03.108-.035.166a2,2,0,0,1-.086.434,2.263,2.263,0,0,1-.138.375,2.3,2.3,0,0,1-.222.326,2.087,2.087,0,0,1-.306.328c-.045.036-.069.088-.114.122L56.059,48.824v5.852A7.105,7.105,0,0,1,60.9,63.525l6.031,3.614L85.089,54.09c.018-.013.043-.015.063-.027a2.091,2.091,0,0,1,.446-.2,2.273,2.273,0,0,1,.334-.122,2.189,2.189,0,0,1,.41-.013,2.214,2.214,0,0,1,.412.013,1.956,1.956,0,0,1,.332.122,2.133,2.133,0,0,1,.447.2c.019.013.043.015.062.027L106.9,67.965c.05.035.072.086.117.125a2.173,2.173,0,0,1,.254.254c.038.046.09.069.125.117a.725.725,0,0,1,.032.071,2.421,2.421,0,0,1,.114.214,2.241,2.241,0,0,1,.13.319c.026.082.062.16.08.244a1.875,1.875,0,0,1,.017.244c0,.057.035.106.035.164V87.562c0,.058-.03.107-.023.161a2.074,2.074,0,0,1-.086.435,2.214,2.214,0,0,1-.138.373,2.161,2.161,0,0,1-.225.33,2.073,2.073,0,0,1-.3.323c-.045.038-.069.091-.116.125L87.608,103.186a1.981,1.981,0,0,1-.2.1,1.388,1.388,0,0,1-.149.089c-.047.022-.1.04-.149.062a2.144,2.144,0,0,1-.755.152ZM88.5,84.7V97.231l15-10.775V73.924ZM69.194,86.454,84.188,97.231V84.7L69.194,73.924Zm-64.878,0L19.307,97.229V84.7L4.315,73.924ZM23.62,84.7V97.228l15-10.777V73.921ZM5.857,69.716,21.465,80.937,37.078,69.716,21.468,58.5Zm64.878,0,15.61,11.219,15.611-11.219L86.346,58.5ZM50.93,61.592a2.976,2.976,0,1,0,2.976-2.965A2.98,2.98,0,0,0,50.93,61.592Zm5.13-30.614V43.515l15-10.775V20.2ZM36.754,32.739,51.748,43.514V30.977L36.754,20.2Zm1.541-16.744L53.907,27.216,69.517,16,53.907,4.778ZM93.181,52.077V38.606L81.258,31.323a2.158,2.158,0,0,1,2.251-3.683l12.956,7.913a316.811,316.811,0,0,1,.5.466,1.987,1.987,0,0,1,.224.334,2.232,2.232,0,0,1,.171.371,2.255,2.255,0,0,1,.086.431,2.307,2.307,0,0,1,.047.239V52.077a2.156,2.156,0,1,1-4.312,0Zm-83.524,0V37.4a2.356,2.356,0,0,1,.047-.242,2.245,2.245,0,0,1,.086-.429,2.281,2.281,0,0,1,.171-.368,1.843,1.843,0,0,1,.55-.637,1.94,1.94,0,0,1,.179-.166L23.654,27.64A2.157,2.157,0,0,1,25.9,31.324L13.971,38.605V52.077a2.156,2.156,0,0,1-4.313,0Z" transform="translate(1561.5 2623.5)" fill="#fff" stroke="#051c2c" stroke-width="0.5"></path></g></svg> 