<?xml version="1.0" encoding="UTF-8"?> <svg xmlns="http://www.w3.org/2000/svg" width="300" height="186" viewBox="0 0 300 186"><g id="Group_91" data-name="Group 91" transform="translate(-632 -2584)"><rect id="Rectangle_2" data-name="Rectangle 2" width="300" height="186" transform="translate(632 2584)" fill="#051c2c"></rect><g id="Group_90" data-name="Group 90" transform="translate(0.239)"><path id="Union_14" data-name="Union 14" d="M5.644,107A5.649,5.649,0,0,1,0,101.359V21.237a5.65,5.65,0,0,1,5.644-5.644H15.6v-8.5A7.1,7.1,0,0,1,22.69,0h90.7a7.1,7.1,0,0,1,7.094,7.094v77.22a7.1,7.1,0,0,1-7.094,7.094h-8.507v9.952A5.649,5.649,0,0,1,99.234,107Zm.294-5.935h93V91.407H22.69A7.1,7.1,0,0,1,15.6,84.313V43.423H5.939Zm15.6-16.752a1.158,1.158,0,0,0,1.155,1.155h90.7a1.158,1.158,0,0,0,1.155-1.155V31.865H21.535ZM15.6,37.484V21.531H5.939V37.484ZM114.54,25.926V7.09a1.158,1.158,0,0,0-1.155-1.155H22.69A1.158,1.158,0,0,0,21.535,7.09V18.418q0,.073,0,.146t0,.146v7.216ZM45.86,18.52a2.969,2.969,0,1,1,0-5.939H53a2.969,2.969,0,1,1,0,5.939Zm-16.272,0a2.969,2.969,0,1,1,0-5.939h7.144a2.969,2.969,0,0,1,0,5.939Z" transform="translate(721.761 2624)" fill="#fff" stroke="#051c2c" stroke-width="2.3"></path><path id="Path_359" data-name="Path 359" d="M287.179,262.13l15.473,6.345-1.133,3.346-18.829-7.952v-3.477l18.828-7.954,1.134,3.348Z" transform="translate(476.467 2419.745)" fill="#fff" stroke="#fff" stroke-width="0.2"></path><path id="Path_360" data-name="Path 360" d="M349.385,261.087h-4.142l14.776-42.067h4.055Z" transform="translate(435.142 2441.823)" fill="#fff" stroke="#fff" stroke-width="0.2"></path><path id="Path_361" data-name="Path 361" d="M404.458,255.781l1.133-3.348,18.828,7.954v3.477l-18.828,7.952-1.134-3.346,15.473-6.345Z" transform="translate(396.019 2419.749)" fill="#fff" stroke="#fff" stroke-width="0.2"></path></g></g></svg> 