<?xml version="1.0" encoding="UTF-8"?> <svg xmlns="http://www.w3.org/2000/svg" width="300" height="186" viewBox="0 0 300 186"><g id="Group_97" data-name="Group 97" transform="translate(-632 -2902)"><rect id="Rectangle_6" data-name="Rectangle 6" width="300" height="186" transform="translate(632 2902)" fill="#051c2c"></rect><path id="noun-stack-4213592" d="M172.028,69.087l.322.508a5.151,5.151,0,0,1-1.493,6.681l-.508.322L124,102.348a5.151,5.151,0,0,1-4.4.284l-.6-.284L72.647,76.6a5.15,5.15,0,0,1,4.46-9.265l.542.262L121.494,91.95l43.854-24.356a5.15,5.15,0,0,1,6.681,1.493Zm0-20.6.322.508a5.151,5.151,0,0,1-1.493,6.681l-.508.322L124,81.748a5.151,5.151,0,0,1-4.4.284l-.6-.284L72.647,56a5.15,5.15,0,0,1,4.46-9.265l.542.262L121.494,71.35l43.854-24.356a5.15,5.15,0,0,1,6.681,1.493ZM119,.644a5.149,5.149,0,0,1,5,0l46.35,25.75a5.15,5.15,0,0,1,0,9L124,61.147a5.149,5.149,0,0,1-5,0L72.648,35.4a5.15,5.15,0,0,1,0-9Zm2.5,10.393L85.753,30.9l35.741,19.853L157.24,30.9Z" transform="translate(660.503 2943.504)" fill="#fff" stroke="#051c2c" stroke-width="5"></path></g></svg> 