<?xml version="1.0" encoding="UTF-8"?> <svg xmlns="http://www.w3.org/2000/svg" width="300" height="186" viewBox="0 0 300 186"><g id="Group_2993" data-name="Group 2993" transform="translate(-409 -1602)"><rect id="Rectangle_2" data-name="Rectangle 2" width="300" height="186" transform="translate(409 1602)" fill="#051c2c"></rect><g id="Group_2992" data-name="Group 2992" transform="translate(-260 -24)"><path id="Path_3204" data-name="Path 3204" d="M98.934,24.3H79.3a13.981,13.981,0,0,0-7.083-5,9.6,9.6,0,0,0,.686-3.556A9.494,9.494,0,0,0,63.45,6.224c-.3,0-.6.014-.9.043A10.949,10.949,0,0,0,43.392,5.1,10.949,10.949,0,0,0,24.235,6.268c-.3-.03-.6-.043-.9-.043a9.494,9.494,0,0,0-9.449,9.517A9.6,9.6,0,0,0,14.58,19.3,14.22,14.22,0,0,0,4.83,35.235,12.671,12.671,0,0,0,3.517,50.543,12.547,12.547,0,0,0,0,59.314,12.7,12.7,0,0,0,7.7,70.967,13.538,13.538,0,0,0,17.6,83.758,14.017,14.017,0,0,0,41.657,88.84v6.623a8.689,8.689,0,0,0,8.678,8.678H97.2a5.207,5.207,0,0,0,5.207-5.207V88.9a5.181,5.181,0,0,0,1.736-3.853V29.507A5.207,5.207,0,0,0,98.934,24.3Zm1.736,5.207V85.049a1.736,1.736,0,0,1-1.736,1.736H52.071V27.771H98.934A1.736,1.736,0,0,1,100.67,29.507ZM31.05,90.256a10.588,10.588,0,0,1-10.341-8.3,1.736,1.736,0,0,0-1.3-1.3A10.154,10.154,0,0,1,11.2,69.862,1.736,1.736,0,0,0,9.958,68.09,9.18,9.18,0,0,1,6.915,52.146a1.736,1.736,0,0,0,.25-2.482A9.187,9.187,0,0,1,7.9,37.073,1.736,1.736,0,0,0,8.4,35.386a10.713,10.713,0,0,1,9.039-13.158,1.736,1.736,0,0,0,1.168-2.793A6.035,6.035,0,0,1,24.881,9.9a1.736,1.736,0,0,0,2.1-1.154,7.509,7.509,0,0,1,14.677,2.324,1.736,1.736,0,1,0,3.471,0A7.509,7.509,0,0,1,59.8,8.748,1.736,1.736,0,0,0,61.9,9.9a6.035,6.035,0,0,1,6.269,9.538,1.736,1.736,0,0,0,1.168,2.793,10.426,10.426,0,0,1,5.12,2.067H50.335a8.689,8.689,0,0,0-8.678,8.678V79.542A10.673,10.673,0,0,1,31.05,90.256ZM45.128,32.978A5.207,5.207,0,0,1,48.6,28.091v58.89a8.661,8.661,0,0,0-3.471,1.54ZM98.934,98.934A1.736,1.736,0,0,1,97.2,100.67H50.335a5.207,5.207,0,1,1,0-10.414h48.6Z" transform="translate(767 1667)" fill="#fff"></path><path id="Path_3205" data-name="Path 3205" d="M25.889,41a14.009,14.009,0,0,0-6.816,1.793A10.654,10.654,0,0,0,13.739,41a1.736,1.736,0,0,0-.017,3.471c.193,0,4.711.16,7.094,5.875a1.736,1.736,0,0,0,1.6,1.067,1.713,1.713,0,0,0,.668-.134,1.736,1.736,0,0,0,.934-2.27A15.038,15.038,0,0,0,21.842,45.3a10.522,10.522,0,0,1,4.048-.828,1.736,1.736,0,1,0,0-3.471Z" transform="translate(775.825 1697.164)" fill="#fff"></path><path id="Path_3206" data-name="Path 3206" d="M16.725,11.471a5.848,5.848,0,0,1,5.311,4.02,1.738,1.738,0,1,0,3.3-1.1A9.3,9.3,0,0,0,16.739,8a1.736,1.736,0,1,0-.014,3.471Z" transform="translate(778.033 1672.886)" fill="#fff"></path><path id="Path_3207" data-name="Path 3207" d="M30.284,14.681a1.736,1.736,0,0,0,2.388-.555,5.936,5.936,0,0,1,4.674-2.654A1.736,1.736,0,0,0,37.337,8a9.463,9.463,0,0,0-7.609,4.289,1.736,1.736,0,0,0,.557,2.392Z" transform="translate(788.677 1672.886)" fill="#fff"></path><path id="Path_3208" data-name="Path 3208" d="M45.736,57.471h8.678a1.736,1.736,0,0,0,0-3.471H45.736a1.736,1.736,0,0,0,0,3.471Z" transform="translate(799.37 1706.728)" fill="#fff"></path><path id="Path_3209" data-name="Path 3209" d="M33.736,57.471H47.621a1.736,1.736,0,0,0,0-3.471H33.736a1.736,1.736,0,0,0,0,3.471Z" transform="translate(790.542 1706.728)" fill="#fff"></path><path id="Path_3210" data-name="Path 3210" d="M64.507,38H36.736a1.736,1.736,0,1,0,0,3.471H64.507a1.736,1.736,0,0,0,0-3.471Z" transform="translate(792.749 1694.957)" fill="#fff"></path><path id="Path_3211" data-name="Path 3211" d="M57.093,42H39.736a1.736,1.736,0,1,0,0,3.471H57.093a1.736,1.736,0,0,0,0-3.471Z" transform="translate(794.956 1697.9)" fill="#fff"></path><path id="Path_3212" data-name="Path 3212" d="M13.416,26.1a7.4,7.4,0,0,1,7-5.627,1.736,1.736,0,1,0,0-3.471,10.812,10.812,0,0,0-10.362,8.258,1.736,1.736,0,0,0,1.264,2.1,1.765,1.765,0,0,0,.411.052A1.736,1.736,0,0,0,13.416,26.1Z" transform="translate(774.361 1679.507)" fill="#fff"></path><path id="Path_3213" data-name="Path 3213" d="M21.466,37.1a1.736,1.736,0,0,0,1.684,1.316,1.765,1.765,0,0,0,.422-.052,1.736,1.736,0,0,0,1.264-2.1C23.2,29.725,16.207,28,12.736,28a1.736,1.736,0,1,0,0,3.471C13.031,31.471,20.085,31.577,21.466,37.1Z" transform="translate(775.093 1687.6)" fill="#fff"></path><path id="Path_3214" data-name="Path 3214" d="M32.508,32.641l8.678,8.678a1.736,1.736,0,1,0,2.454-2.454L36.19,31.414l7.451-7.451a1.736,1.736,0,1,0-2.454-2.454l-8.678,8.679A1.736,1.736,0,0,0,32.508,32.641Z" transform="translate(790.542 1682.45)" fill="#fff"></path><path id="Path_3215" data-name="Path 3215" d="M49.509,41.32a1.736,1.736,0,0,0,2.454,0l8.678-8.678a1.736,1.736,0,0,0,0-2.454l-8.678-8.678a1.736,1.736,0,1,0-2.454,2.454l7.451,7.451-7.451,7.451A1.736,1.736,0,0,0,49.509,41.32Z" transform="translate(803.049 1682.45)" fill="#fff"></path><path id="Path_3216" data-name="Path 3216" d="M42.261,46.705a1.8,1.8,0,0,0,.476.066,1.736,1.736,0,0,0,1.668-1.26l6.943-24.3a1.736,1.736,0,0,0-3.339-.951l-6.943,24.3a1.736,1.736,0,0,0,1.2,2.145Z" transform="translate(797.162 1680.978)" fill="#fff"></path></g></g></svg> 