<?xml version="1.0" encoding="UTF-8"?> <svg xmlns="http://www.w3.org/2000/svg" width="300" height="186" viewBox="0 0 300 186"><g id="Group_94" data-name="Group 94" transform="translate(-1465 -2902)"><rect id="Rectangle_8" data-name="Rectangle 8" width="300" height="186" transform="translate(1465 2902)" fill="#051c2c"></rect><g id="Layer_2" data-name="Layer 2" transform="translate(1554 2944.011)"><g id="Layer_1" data-name="Layer 1" transform="translate(0 -0.011)"><path id="Path_455" data-name="Path 455" d="M104.556,13.469,89.9,20.937,19.114,56.991A42.162,42.162,0,0,1,81.482,14.725l8.39-4.275,1.252-.639A51.505,51.505,0,0,0,9.364,51.5q0,1.968.149,3.92a9.369,9.369,0,0,1-5.089,9.055L0,66.73V77.253l13.026-6.639h0l4.218-2.153L21.4,66.344h0L96.022,28.323l8.385-4.27,17.332-8.833V4.7Z" transform="translate(0 0.011)" fill="#fff"></path><path id="Path_456" data-name="Path 456" d="M121.738,50l-96.1,48.93-8.385,4.28L0,112v10.512l17.136-8.73,14.658-7.468L102.65,70.211a42.982,42.982,0,0,1,.361,5.542,42.168,42.168,0,0,1-62.79,36.754l-.515.273-9.1,4.635a51.505,51.505,0,0,0,81.765-41.663c0-1.324-.052-2.647-.149-3.956a9.374,9.374,0,0,1,5.084-9.055l4.429-2.256Z" transform="translate(0 -24.242)" fill="#fff"></path></g></g></g></svg> 