<?xml version="1.0" encoding="UTF-8"?> <svg xmlns="http://www.w3.org/2000/svg" width="300" height="186" viewBox="0 0 300 186"><g id="Group_96" data-name="Group 96" transform="translate(-1038 -2902)"><rect id="Rectangle_7" data-name="Rectangle 7" width="300" height="186" transform="translate(1038 2902)" fill="#051c2c"></rect><g id="Group_95" data-name="Group 95" transform="translate(-0.21)"><path id="Path_311" data-name="Path 311" d="M227.446,78.4H147.337A15.735,15.735,0,0,0,131.6,94.134v71.527A15.735,15.735,0,0,0,147.337,181.4h80.109a15.735,15.735,0,0,0,15.735-15.736V94.134A15.735,15.735,0,0,0,227.446,78.4Zm7.153,87.263a7.153,7.153,0,0,1-7.153,7.153H147.337a7.153,7.153,0,0,1-7.153-7.153V94.134a7.153,7.153,0,0,1,7.153-7.153h80.109a7.153,7.153,0,0,1,7.153,7.153Z" transform="translate(1000.608 2865.602)" fill="#fff" stroke="#051c2c" stroke-width="2.5"></path><path id="Path_312" data-name="Path 312" d="M214.36,217.914l12.016-14.448h0a4.291,4.291,0,0,0-6.58-5.435L205.492,215.2a4.289,4.289,0,0,0,0,5.436L219.8,237.8h0a4.291,4.291,0,0,0,6.58-5.436Z" transform="translate(946.316 2777.443)" fill="#fff" stroke="#051c2c" stroke-width="2.5"></path><path id="Path_313" data-name="Path 313" d="M414.422,197.471a4.291,4.291,0,0,0-6.58,5.436l12.016,14.448-12.016,14.592a4.291,4.291,0,0,0,6.58,5.436l14.305-17.166h0a4.289,4.289,0,0,0,0-5.436Z" transform="translate(795.462 2777.858)" fill="#fff" stroke="#051c2c" stroke-width="2.5"></path><path id="Path_314" data-name="Path 314" d="M320.186,146.847a4.29,4.29,0,0,0-5.293,3.147l-15.163,59.51a4.292,4.292,0,0,0,3.147,5.294h1a4.292,4.292,0,0,0,4.149-3.291L323.333,152a4.29,4.29,0,0,0-3.147-5.15Z" transform="translate(875.539 2814.749)" fill="#fff" stroke="#051c2c" stroke-width="2.5"></path></g></g></svg> 