<?xml version="1.0" encoding="UTF-8"?> <svg xmlns="http://www.w3.org/2000/svg" width="300" height="186" viewBox="0 0 300 186"><g id="Group_92" data-name="Group 92" transform="translate(-1038 -2584)"><rect id="Rectangle_4" data-name="Rectangle 4" width="300" height="186" transform="translate(1038 2584)" fill="#051c2c"></rect><path id="Union_9" data-name="Union 9" d="M19.976,92.375A49.936,49.936,0,0,1,5.351,57.067c0-.567.028-1.129.047-1.694,0-.03-.018-.044-.018-.089s.023-.082.023-.127A49.135,49.135,0,0,1,9.835,36.416C5.407,30.9,0,22.849,0,16.428A16.263,16.263,0,0,1,16.05,0,16.171,16.171,0,0,1,31.744,13.031a49.7,49.7,0,0,1,4.956-2.29c.046-.022.09-.037.139-.056A49.813,49.813,0,0,1,67.774,8.725c.018,0,.036.014.054.014a49.124,49.124,0,0,1,7.82,2.749A16.027,16.027,0,0,1,107,16.428c0,5.407-3.82,11.948-7.669,17.177a50.943,50.943,0,0,1,5.886,23.462A49.934,49.934,0,0,1,19.976,92.375Zm35.306,11.059A46.323,46.323,0,0,0,99.534,43.27h0L98.6,45.435a4.366,4.366,0,0,1-4.08,2.716H92.733a1.814,1.814,0,0,0-1.783,1.783,1.846,1.846,0,0,0,1.868,1.784,4.365,4.365,0,0,1,4.083,5.8A133.59,133.59,0,0,1,84.207,84.19h0c-.4.675-.764,1.289-1.079,1.824a6.324,6.324,0,0,1-11.8-3.18V71.44a5.447,5.447,0,0,0-1.573-3.9,5.372,5.372,0,0,0-3.777-1.555A14.266,14.266,0,0,1,51.717,51.293,14.64,14.64,0,0,1,66.508,37.449h4.636a1.925,1.925,0,0,0,1.962-1.613,1.7,1.7,0,0,0-.5-1.408,1.744,1.744,0,0,0-1.271-.546H64.646a7.467,7.467,0,0,1-7.44-5.947,7.212,7.212,0,0,1,.94-5.24l6.6-11.017a46.289,46.289,0,0,0-7.678-.929v1.216a5.374,5.374,0,0,1-3.226,4.91h0L43.06,20.992a5.149,5.149,0,0,1-2.019.408,5.4,5.4,0,0,1-2.974-.892,5.333,5.333,0,0,1-2.4-4.458v-.985q-1.837.856-3.6,1.877A26.337,26.337,0,0,1,27.82,28.533H33.4a5.68,5.68,0,0,1,5.689,5.689,5.74,5.74,0,0,1-1.371,3.708l-8.51,9.919a3.45,3.45,0,0,0-.819,2.227A7,7,0,0,1,21.4,57.066H8.917a46.088,46.088,0,0,0,3.312,17.163h0l2.217-4.993a8.486,8.486,0,0,1,13.744-2.552l.482.482a4.809,4.809,0,0,0,1.917,1.19l8.467,2.822A10.681,10.681,0,0,1,46.367,81.32v6.42a7.739,7.739,0,0,1-3.476,6.482,4.18,4.18,0,0,0-1.874,3.5v3.451a46.145,46.145,0,0,0,14.266,2.255ZM19.511,68.559a4.9,4.9,0,0,0-1.81,2.123l-3.49,7.859h0a46.637,46.637,0,0,0,23.24,21.325V97.726a7.742,7.742,0,0,1,3.476-6.482,4.18,4.18,0,0,0,1.874-3.5h0V81.32a7.12,7.12,0,0,0-4.88-6.761h0l-8.455-2.817a8.344,8.344,0,0,1-3.317-2.054l-.481-.481a4.957,4.957,0,0,0-3.483-1.439h0A4.906,4.906,0,0,0,19.511,68.559Zm52.78-3.536A8.906,8.906,0,0,1,74.9,71.331v11.5A2.766,2.766,0,0,0,77.664,85.6a2.737,2.737,0,0,0,2.376-1.365h0c.324-.563.694-1.182,1.1-1.868a130.4,130.4,0,0,0,12.379-26c.141-.4-.057-1.09-.572-1.09a5.351,5.351,0,0,1-.216-10.7h1.784a.848.848,0,0,0,.785-.519l2.425-5.608h0c-.257-.587-.514-1.174-.8-1.75-.749.932-1.469,1.784-2.124,2.536a5.081,5.081,0,0,1-7.714,0h0C82.536,34,74.9,24.061,74.9,16.426c0-.446.033-.885.066-1.323a45.953,45.953,0,0,0-6.6-2.535L61.182,24.559a3.744,3.744,0,0,0-.476,2.706,3.956,3.956,0,0,0,3.939,3.049h6.687a5.365,5.365,0,0,1,5.323,5.841,5.478,5.478,0,0,1-5.519,4.86H66.5A11.055,11.055,0,0,0,55.283,51.39a10.7,10.7,0,0,0,10.7,11.024h.011A8.9,8.9,0,0,1,72.291,65.023ZM9.068,53.5H21.4a3.428,3.428,0,0,0,3.425-3.424,7.034,7.034,0,0,1,1.67-4.544h0l8.514-9.921a2.154,2.154,0,0,0,.515-1.39A2.113,2.113,0,0,0,33.4,32.1H25.509a87.426,87.426,0,0,1-5.6,7.133,5.115,5.115,0,0,1-3.858,1.784h0A5.083,5.083,0,0,1,12.4,39.429,45.493,45.493,0,0,0,9.068,53.5ZM7.152,7.418a12.687,12.687,0,0,0-3.584,9.01c0,6.717,7.914,16.563,11.319,20.476a1.549,1.549,0,0,0,2.329,0c3.4-3.919,11.318-13.758,11.318-20.476A12.692,12.692,0,0,0,16.051,3.567,12.688,12.688,0,0,0,7.152,7.418Zm77.556-1.8a12.482,12.482,0,0,0-6.241,10.811c0,6.717,7.914,16.563,11.317,20.476a1.549,1.549,0,0,0,2.329,0h0c3.4-3.912,11.318-13.758,11.318-20.476A12.483,12.483,0,0,0,84.708,5.617ZM39.234,13.569V16.05a1.8,1.8,0,0,0,2.5,1.639l10.761-4.109a1.783,1.783,0,0,0,1.01-1.614V10.761A46.451,46.451,0,0,0,39.234,13.569Zm46.7,2.543A5.371,5.371,0,1,1,91.3,21.483,5.371,5.371,0,0,1,85.931,16.112Zm2.686,0A2.685,2.685,0,1,0,91.3,13.427,2.688,2.688,0,0,0,88.616,16.112Zm-77.875,0a5.371,5.371,0,1,1,5.371,5.371A5.37,5.37,0,0,1,10.741,16.112Zm2.685,0a2.685,2.685,0,1,0,2.686-2.686A2.689,2.689,0,0,0,13.426,16.112ZM90.951,0h0Z" transform="translate(1134.5 2623.5)" fill="#fff"></path></g></svg> 